<svg width="640" height="480" xmlns="http://www.w3.org/2000/svg" xmlns:svg="http://www.w3.org/2000/svg" xmlns:xlink="http://www.w3.org/1999/xlink">
 <!-- Sketchy ANNOTATION
  ImageNet ID: n01530575_6331
  URL: http://farm4.static.flickr.com/3174/2364268860_d96235660d.jpg
  Image Width: 500
  Image Height: 348
  BBox X: 44
  BBox Y: 34
  BBox Width: 307
  BBox Height: 274
  Exposure: 2000ms
  Synset Label: songbird
  Synset ID: n01526521
  Worker Tag: SONGBIRD ON TREE
  Sanity Check: 
   Saved
  Comment: 
   {}
  Worker ID: A1E9VI5RSZI31F
  Assignment ID: 39LOEL67OS5JB2YO6NYXKBGBXNT83M
  HIT ID: 37VE3DA4YUHFKO50YI27QNC1JWLBH1
  Work Time: 120s
  Worker Score: 0.7857
 END ANNOTATION -->
 <g display="inline">
  <title>Layer 1</title>
  <path t="0,151,187,223,247,247,255,270,292,305,305,342,383,383,383,399,399,423,454,454,479,479,488,504,520,542,558,558,590,590,598,614,631,655,655,662,678,687,687,704,720,737,758,774,774,798,822,838,838,846,870,870,886,902,902,985,985,1037,1095,1095,1127,1127,1159,1175,1175,1188,1188,1215,1215,1239,1421,1436,1471,1471,1479,1503,1551,1559,1599,1599,1685,1719,1816,1816,1870,1870,1885,1906,1927,1938,1955,1970,1970,2037,2118,2186,2284,2300,2335,2350,2350,2367,2375,2392,2405,2430,2471,2519,2520,2520,2574,2636,2673,2711" d="m251,214c0,-1.7 0.03033,-2.60275 0.42534,-3.41066c0.44678,-0.91382 0.44684,-1.59752 0.57483,-2.56767c0.12126,-0.91913 0.78503,-1.36891 1.22133,-2.12167c0.4558,-0.78642 1.18916,-1.31065 1.94518,-2.06667c0.48599,-0.48599 1.02016,-0.99599 1.81166,-1.81183c0.58414,-0.60211 0.87726,-1.52612 1.46451,-2.12151c0.6286,-0.63731 1.64178,-0.89923 2.1105,-1.5c0.6066,-0.77748 1.07758,-1.22949 1.94666,-1.42082c0.84753,-0.18658 1.49976,-0.97942 2,-1.47917c0.69968,-0.69901 1.26831,-1.35114 2.20001,-1.4955c0.8894,-0.13782 1.89386,0.05966 2.5,-0.57249c0.61047,-0.63669 1.10785,-1.2675 2,-1.43333c0.91089,-0.16931 1.45407,-0.80855 2.39999,-0.98801c0.88428,-0.16777 1.80411,0.07104 2.7045,-0.01517c0.87329,-0.0836 1.81311,-0.36627 2.45267,-1.09534c0.55399,-0.6315 1.24283,-0.90016 2.04282,-0.90016c0.95718,0 1.85269,0 2.54733,0c1.02734,0 1.974,0 2.82733,0c0.94135,0 1.70935,0 2.6507,0c1.008,0 1.79999,0 2.65866,0c0.86331,0 1.76334,0 2.68265,0c0.83334,0 1.81201,0 2.586,0c0.90002,0 1.78287,-0.17331 2.7265,0.02083c0.86722,0.17841 1.61472,0.91829 2.52084,0.97917c0.79819,0.05363 1.66959,0.11043 2.08401,0.80133c0.47675,0.7948 1.34988,1.09683 2.11731,1.48267c0.72281,0.3634 1.7576,0.37096 2.46533,0.88268c0.78754,0.56941 0.95844,1.46384 1.65451,1.93333c0.79446,0.53587 1.46826,1.10849 1.67899,1.99983c0.18628,0.7879 0.87106,1.26538 1.00119,2.10016c0.14267,0.91533 0.83286,1.23167 1.56265,1.82533c0.64908,0.528 1.12152,1.39725 1.37885,2.27467c0.25345,0.86417 0.49911,1.48558 1.25583,1.98534c0.60892,0.40215 0.79907,1.41464 0.80133,2.31467c0.00223,0.89999 0,1.79999 0,2.7c0,0.89999 0,1.8 0,2.7c0,0.8 0,1.7 0,2.60001l0,0.89999l0,0.89999" id="svg_1" stroke-width="2" stroke="#000" fill="none"/>
  <path t="6110,6325,6368,6368,6383,6515,6515,6587,6603,6603,6623,6639,6647,6655,6655,6679,6711,7208,7208,7224,7247,7255,7310,7359,7359,7701,7727,7743,7744,7896,7935,7935,7942,7953,7970,7998,8022,8022,8054,8054,8070,8078,8079,8110,8158,8219,8269,8269,8284" d="m318,216c-1.75717,0.05716 -2.71268,0.25804 -3.29016,0.7045c-0.75232,0.58163 -0.99655,1.70789 -1.5965,2.01016c-0.86737,0.437 -1.96893,0.1358 -2.70267,0.32133c-0.87189,0.22046 -1.61533,0.83907 -2.51068,0.96417c-0.90646,0.12665 -1.55258,0.80013 -2.39999,0.979c-0.89127,0.18814 -1.82132,0.02022 -2.67465,0.02083c-0.93869,0.00067 -1.43399,0.50781 -2.18253,0.94284c-0.73038,0.42447 -1.74298,0.05266 -2.52817,0.05716c-0.92938,0.00534 -2.17505,0.26767 -1.89316,1.10001c0.2471,0.72954 1.08942,1.18925 1.7785,1.89999c0.57321,0.59122 0.79596,1.49518 1.28534,2.19867c0.54581,0.78462 1.47049,1.00336 1.88132,1.80133c0.34589,0.67183 0.78406,1.48137 0.82886,2.34734c0.04626,0.89435 0.10751,1.89131 0.80582,2.36732c0.7493,0.51079 1.19733,1.08667 1.19867,1.92134l0,1.01666l0,0.69467l0.01068,1.006" id="svg_2" stroke-width="2" stroke="#000" fill="none"/>
  <path t="11578,11884,11900,11900,11933,11973,11989,12052,12068,12068,12102,12126,12166,12190,12206,12214,12237,12253,12294,12334,12366,12390,12422,12470,12510,12550,12914,12914,12914,12969,12985,13030,13046,13094,13094,13110,13110,13110,13169,13169,13169,13236,13251,13251,13278,13326,13342,13353,13406,13414,13414,13438,13478,13502,13542,13582,13598,13598,13652,13652,13686,13710" d="m318,217c1.2215,0.87866 2.21393,1.11781 2.64282,1.7045c0.55521,0.75946 1.08963,1.10588 1.95718,1.3315c0.86563,0.22511 1.5975,0.98831 2.04282,1.664c0.47168,0.7157 1.14981,1.2939 1.35269,2.0045c0.25815,0.90424 0.84363,1.1763 1.48364,1.81633c0.64005,0.64005 0.96173,1.53941 1.54617,2.05383c0.62344,0.54872 1.42712,0.96294 1.922,1.72084c0.45407,0.6954 1.13675,1.11903 1.70001,1.75717c0.52554,0.5954 1.39371,0.7657 2.15265,1.03265c0.76111,0.2677 1.35776,1.55876 0.67917,1.89384c-0.78851,0.38937 -1.78366,0.02083 -2.64581,0.02083c-0.85419,0 -1.83459,-0.03513 -2.62268,0.01067c-0.72794,0.0423 -1.66299,0.61748 -2.53198,0.86783c-0.82687,0.23822 -1.79333,0.12151 -2.67868,0.12151c-0.79999,0 -1.70001,0 -2.60001,0c-0.89999,0 -1.84454,-0.09547 -2.60001,0.284c-0.86719,0.43558 -1.59998,0.71533 -2.5,0.716c-0.89999,0.00066 -1.83472,-0.0529 -2.59998,0.35266c-0.84592,0.4483 -1.70001,0.64734 -2.45718,0.64734c-0.89551,0 -1.75882,0 -2.72198,0l-0.92084,0" id="svg_3" stroke-width="2" stroke="#000" fill="none"/>
  <path t="14922,15095,15111,15141,15158,15173" d="m304,239c1.79999,0 2.70001,0 3.60001,0l0.79999,-0.01067l0.89999,-0.3465" id="svg_4" stroke-width="2" stroke="#000" fill="none"/>
  <path t="15674,15797,15797,15813,15813,15813,15813,15838,15853,15870,15885,15885,15902,15933,15933,15942,15958,16005,16021,16045,16045,16093,16135" d="m310,229c1,-1 1.75717,-1 2.65717,-1c0.74734,0 1.74152,0 2.68567,0c0.89999,0 1.85718,0 2.75717,0c0.89999,0 1.69998,0 2.53598,0c1.01669,0 1.71133,0 2.72803,0c0.93597,0 1.83978,-0.08212 2.73599,0.00017c0.91144,0.08368 1.5,0.57449 2.39999,0.979l0.89999,0.02083" id="svg_5" stroke-width="2" stroke="#000" fill="none"/>
  <path t="22326,22858,22902,22983,23051,23102,23102,23152,23469,23485,23583,23635,23635,23678,23726,23832,23832,23995,24010,24010,24010,24026,24026,24077,24118,24118,24118,24166,24166,24190,24230,24230,24254,24270,24271,24310,24326,24342,24342,24382,24398,24398,24414,24423,24438,24452,24468,24486,24486,24518,24518,24550,24566,24574,24574,24598,24606,24622,24654,24654,24662,24670,24702,24726,24726,24726,24750,24751,24758,24774,24798,24798,24806,24806,24822,24822,24835,24835,24852,24868,24885,24885,24902,24918,24918,24935,24958,24990,24990,24998,24998,25006,25006,25046,25046,25062,25062,25079,25079,25087,25104,25126,25142,25142,25158,25182,25206,25206,25222,25246,25246,25262,25262,25279,25302,25310,25319,25342,25355,25368,25368,25398,25398,25414,25414,25422,25422,25438,25438,25452,25468,25468,25485,25485,25502,25502,25502,25518,25518,25518,25535,25535,25535,25552,25552,25568,25606,25638,25638,25694,25718,25718,25726,25726,25742,25758,25758,25768,25768,25785,25802,25802,25822,25822,25823,25835,25835,25852,25868,25885,25902,25902,25918,25918,25935,25935,25952,25952,25968,25968,25998,25999,26014,26014,26038,26038,26336,26368,26398,26398,26407,26421,26435,26452,26452,26469,26470,26486,26486,26502,26502,26502,26518,26518,26542,26542,26557,26558,26558,26581,26589,26590,26614,26614,26614,26622,26622,26645,26646,26661,26662,26678,26686,26702,26702,26718,26718,26735,26735,26752,26768,26768,26785,26785,26785,26802,26802,26802,26818,26818,26818,26818,26835,26835,26835,26835,26852,26852,26852,26868,26868,26868,26885,26885,26885,26902,26902,26918,26918,26918,26935,26935,26952,26952,26952,26952,26968,26968,26968,26968,26985,26985,26985,27002,27002,27018,27018,27035,27035,27035,27053,27053,27068,27085,27102,27118,27118,27135,27135,27135,27152,27152,27168,27168,27185,27185,27202,27218,27235,27252,27268,27268,27285,27285,27302,27302,27318,27318,27318,27335,27335,27365,27381,27382,27397,27421,27422,27438,27462,27469,27470,27485,27503,27504,27518,27535,27552,27552,27552,27568,27568,27568,27585,27602,27602,27618,27618,27618,27635,27652,27668,27668,27686,27702,27702,27718,27735,27752,27768,27797,27798,27821,27822,27845,27846,27846,27861,27862,27862,27885,27917,27933,27934" d="m250,211c-1.22133,0.87866 -1.97141,1.35571 -2,2.2c-0.03047,0.89949 0,1.8 0,2.60001c0,0.89999 0.16733,1.81964 -0.02083,2.7c-0.18138,0.84866 -1.06848,1.42712 -1.54317,2.10001c-0.51836,0.7348 -0.5817,1.80473 -1.436,2.23332c-0.73018,0.36632 -1.69957,0.17967 -2.5425,0.60951c-0.72464,0.36952 -1.46593,0.83798 -2.09334,1.53549c-0.60632,0.67409 -1.45081,0.92857 -2.36417,1.355c-0.63623,0.29704 -1.08127,0.94957 -2.11467,1.49734c-0.64404,0.3414 -1.48288,0.86284 -2.36932,1.084c-0.67404,0.16817 -1.82483,-0.088 -2.61601,0.30682c-0.68919,0.34393 -1.20444,1.34654 -2,1.657c-0.84602,0.33014 -1.71541,-0.00166 -2.65717,0.17867c-0.92616,0.17734 -1.55963,0.70766 -2.48566,0.88568c-0.94041,0.18079 -1.56763,0.5477 -2.19318,1.03183c-0.7458,0.57719 -1.56868,0.84308 -2.32117,1.078c-0.90149,0.28145 -1.55794,0.72774 -2.60683,0.91133c-0.8243,0.14429 -1.67267,0.36212 -2.436,0.752c-0.75288,0.38454 -1.76958,0.17255 -2.5,0.64116c-0.79991,0.5132 -1.23378,1.38399 -2.09999,1.60684c-0.87231,0.22443 -1.82439,-0.06432 -2.76668,0.20267c-0.69415,0.19669 -1.44208,0.62016 -2.23067,1.03333c-0.73785,0.38658 -1.26952,1.37868 -2.04933,1.76401c-0.78497,0.38788 -1.58994,-0.02521 -2.55333,0.20267c-0.80833,0.19119 -1.89363,0.52112 -2.58934,0.89467c-0.69908,0.37535 -0.94495,1.49026 -1.81065,1.86665c-0.82835,0.36015 -1.75684,0.42336 -2.40001,0.78801c-0.75801,0.42975 -1.42519,1.04776 -1.89999,1.57866c-0.70187,0.78481 -1.54555,1.18382 -2.46667,1.53867c-0.63078,0.243 -1.70305,0.46512 -2.19733,1.01733c-0.69,0.77089 -1.0563,1.40491 -1.80267,1.98267c-0.60287,0.46667 -1.67227,0.59653 -2.23782,0.87117c-0.99815,0.48471 -1.80344,0.81276 -2.42618,1.49417c-0.61496,0.6729 -1.42662,0.63762 -2.26933,1.02266c-0.6693,0.3058 -1.56519,0.69632 -2.29999,1.21468c-0.67288,0.47469 -0.96429,1.30115 -1.62083,2.04315c-0.5537,0.62576 -1.57825,0.59433 -2.222,1.22617c-0.53036,0.52054 -1.17551,1.33597 -1.7825,1.86935c-0.62387,0.54822 -1.4232,0.96555 -1.922,1.72083c-0.46109,0.69818 -1.3179,0.93234 -1.85268,1.59116c-0.57651,0.71024 -0.86627,1.48367 -1.39999,2.22934c-0.47118,0.65829 -1.08104,1.54794 -1.5,2.23132c-0.4787,0.78079 -1.09967,1.45169 -1.7,2.05267c-0.69963,0.70041 -1.2186,1.18201 -1.90451,1.909c-0.46559,0.49347 -1.17502,1.46329 -1.53149,1.94168c-0.55946,0.75079 -1.34584,1.63007 -1.964,2.08798c-0.58371,0.4324 -1.41353,0.96707 -1.98933,1.48669c-0.74355,0.67099 -1.55209,1.34381 -1.924,1.97333c-0.48987,0.82919 -0.7135,1.61014 -1.38667,2.30133c-0.59203,0.60788 -1.42032,1.22473 -1.77866,2.00015c-0.34045,0.73672 -0.42497,1.58224 -0.92267,2.41583c-0.45186,0.75684 -1.19867,1.48401 -1.69867,1.98401c-0.7,0.70001 -1.30006,1.29993 -1.89999,1.89999c-0.70009,0.70026 -1.25336,1.24347 -1.70001,2.14267c-0.34209,0.68866 -0.5094,1.50089 -1.09999,2.48666c-0.34924,0.58295 -1.18486,1.21262 -1.67867,2.0705c-0.42459,0.73764 -1.14694,1.21506 -1.52133,1.76151c-0.64563,0.94232 -1.12448,1.59509 -1.69984,2.23883c-0.56801,0.63553 -0.74495,1.58591 -1.00999,2.24716c-0.33319,0.83127 -1.16252,1.18988 -1.8685,1.974c-0.55621,0.61777 -0.7411,1.72992 -1.1315,2.37418c-0.43976,0.72571 -2.03444,1.00101 -1.79683,1.8685c0.22876,0.83514 1.73999,0.436 2.496,0.436c0.91066,0 1.81065,0 2.71516,0c0.86217,0 1.6955,0 2.67416,0c0.774,0 1.683,0 2.483,0c0.9595,0 1.75299,0 2.769,0c0.964,0 1.73759,0.01892 2.77916,-0.00449c0.77596,-0.01743 1.83313,-0.12891 2.5285,-0.34818c0.8131,-0.25638 1.70808,-0.60751 2.62834,-0.64734c0.85361,-0.03693 1.8389,-0.15005 2.63333,-0.42532c0.60449,-0.20947 1.61488,-0.40591 2.54283,-0.62735c0.92831,-0.22153 1.51567,-0.79077 2.30983,-1.24283c0.67496,-0.38422 1.71075,-0.68649 2.54868,-0.7045c0.9651,-0.02075 1.79866,0 2.63199,0c0.91934,0 1.81934,0 2.51401,0c1.02733,0 1.97433,0 2.69434,0c1.125,0 1.911,0 2.733,0c1.05865,0 1.7789,0.02277 2.48666,-0.03601c1.07622,-0.08936 2.05016,-0.31412 2.75949,-0.48483c0.73279,-0.17636 1.81293,-0.47769 2.49251,-0.67783c0.94559,-0.27847 1.79088,-0.56906 2.804,-0.716c0.69913,-0.10138 1.45203,-0.07712 2.65067,-0.08667c0.68271,-0.00543 1.39214,0.04779 2.69867,-0.16531c0.82457,-0.13449 1.44371,-0.52106 2.452,-0.74802c0.73431,-0.16528 1.93333,-0.08533 2.55733,-0.08533c0.966,0 2.06253,0.04474 2.82401,-0.02084c1.00685,-0.08673 1.55675,-0.25595 2.54167,-0.5c0.71622,-0.17746 1.79382,-0.47192 2.47166,-0.67917c0.94814,-0.28989 1.53145,-0.48358 2.56517,-0.89981c0.90656,-0.36502 1.51149,-0.65573 2.517,-0.8475c0.91281,-0.1741 1.77028,-0.52197 2.37383,-0.854c1.01093,-0.55615 1.81865,-0.79178 2.34801,-0.99866c1.22733,-0.47961 1.85054,-0.72662 2.79599,-1.116c0.81648,-0.33624 1.24831,-1.02725 2.20818,-1.08435c0.69931,-0.0416 1.69972,-0.30099 2.274,-0.70499c0.77844,-0.54761 1.51712,-1.14188 2.37383,-1.37735c0.79326,-0.21805 1.83951,-0.37628 2.53067,-0.91733c0.66293,-0.51895 1.29179,-1.10046 2,-1.5c0.87799,-0.49533 1.36104,-1.10196 1.86166,-1.79999c0.42255,-0.58914 1.29036,-1.00977 2.04283,-1.40002c0.98891,-0.51291 1.59778,-0.79547 2.5955,-1.29999c0.59688,-0.30182 1.41512,-0.68726 2.11467,-1.48267c0.53474,-0.60803 1.14563,-1.2312 1.98534,-1.73883c0.65916,-0.39847 1.18925,-1.08942 1.89999,-1.7785c0.59122,-0.57321 1.44084,-0.92026 2.02083,-1.52084c0.60585,-0.62738 1.39925,-1.08179 1.91783,-1.87915c0.4747,-0.72989 0.89616,-1.23633 1.76134,-1.65268c0.86095,-0.41431 1.47456,-1.10629 1.95267,-1.60449c0.7065,-0.73618 1.32539,-1.54282 1.71133,-2.12149c0.43416,-0.651 1.31859,-1.11035 2.04666,-1.67868c0.5519,-0.43082 1.06226,-1.31747 1.58934,-2.02182c0.50551,-0.67551 1.40981,-1.19086 1.97467,-1.95685c0.4895,-0.66379 0.82637,-1.36426 1.52533,-2.064c0.59959,-0.60025 1.17772,-1.31534 1.52533,-2.10001c0.36227,-0.81775 0.71738,-1.71863 1.26001,-2.31732c0.65106,-0.71832 1.18372,-1.12341 1.71466,-1.91602c0.47311,-0.70627 1.00214,-1.49905 1.3045,-2.172c0.33383,-0.74295 0.8161,-1.70984 1.51016,-2.32266c0.58051,-0.51257 1.164,-1.272 1.22699,-2.172l0.52634,-0.7l0.58133,-0.40001" id="svg_6" stroke-width="2" stroke="#000" fill="none"/>
  <path t="32096,32270,32285,32304,32304,32326,32336,32366,32414,32414,32438,32446,32446,32479,32486,32518,32542,32558,32569,32598,32614,32633,32662,32662,32686,32701,32722,32749,32750,32765,32765,32805,32805,32830,32830,32846,32861,32861,32901,32901,32918,32918,32942,32965,32965,32989,33005,33005,33029,33029,33038,33053,33085,33101,33117,33141,33149,33149,33165,33190,33198,33219,33236,33251,33251,33269,33269,33285,33285,33309,33325,33325,33349,33357,33357,33381,33405,33406,33421,33422,33429,33438,33461,33477,33478,33509,33533,33534,33541,33557,33581,33606,33622,33623,33640,33640,33662,33677,33677,33693,33694,33709,33733,33742,33751,33751,33790,33790,33797,33797,33821,33821,33837,33845,33861,33861,33877,33893,33933,33933,33958,33958,33966,33966,33986,34086,34086,34102,34102,34102,34102,34102,34102,34102,34102,34102,34133,34133,34133,34157,34157,34189,34189,34197,34197,34206,34229,34253,34253,34261,34261,34269,34286,34301,34318,34319,34335,34336,34351,34351,34368,34369,34385,34386,34401,34401,34418,34419,34435,34436,34453,34469,34469,34486,34501,34502,34518,34519,34519,34536,34536,34536,34551,34552,34552,34568,34569,34569,34585,34585,34601,34602,34602,34619,34619,34620,34636,34636,34637,34637,34637,34651,34652,34652,34652,34669,34669,34669,34686,34686,34686,34702,34702,34719,34719,34719,34736,34737,34737,34752,34769,34785,34786,34804,34804,34827,34827,34836,34836,34852,34869,34869,34902,34902,34917,34918,34933,34957,34957,34965,34973,34990,34990,35006,35021,35021,35045,35101,35101,35151,35151,35166,35166,35190,35214,35214" d="m305,238c0.57468,1.60001 0.83432,2.47359 1.35718,3.3c0.35757,0.56517 1.08884,1.22046 1.59015,1.9955c0.45914,0.70984 1.306,1.24454 1.61667,1.88983c0.43106,0.8954 0.67813,1.76843 1.08334,2.51466c0.4133,0.76112 0.35275,1.69797 0.85266,2.3c0.51459,0.61975 0.91824,1.41605 1.69867,1.916c0.72845,0.46666 0.71921,1.28777 0.80148,2.18401c0.08368,0.91144 0.80002,1.5526 0.979,2.39999c0.18604,0.8808 -0.13007,1.91022 0.4635,2.60016c0.45538,0.52936 1.39908,1.2016 1.51569,1.89984c0.16135,0.96619 0.04166,1.75266 0.04166,2.65268c0,0.86331 -0.02402,1.84766 0.00134,2.83133c0.01782,0.69128 0.38373,1.58331 0.71466,2.39999c0.36557,0.90222 0.28333,1.63199 0.284,2.616c0.00067,0.98401 0,1.67465 0,2.74734c0,0.91931 0,1.75266 0,2.73114c0,0.71701 0,1.62152 0,2.52151c0,0.89999 0,1.79999 0,2.70001c0,0.89999 0,1.79999 0,2.59998c0,0.90002 0,1.80002 0,2.70001c0,0.89999 0.08575,1.82803 -0.22134,2.82132c-0.21671,0.70093 -0.68369,1.50122 -0.76797,2.30402c-0.10727,1.02185 0.03418,1.76495 -0.436,2.73868c-0.37592,0.7785 -0.71829,1.46652 -1.42535,2.03598c-0.78882,0.63531 -1.02957,1.31198 -1.18533,2.23599c-0.14694,0.87161 -0.53122,1.56729 -1.16266,2.47867c-0.41641,0.60104 -0.62872,1.50583 -0.82217,2.38535c-0.18643,0.84756 -1.06848,1.42712 -1.54315,2.10001c-0.51837,0.7348 -0.82208,1.53836 -1.15201,2.19998c-0.42056,0.84338 -0.33844,1.84714 -0.98849,2.25269c-0.79224,0.49426 -1.43243,1.24921 -1.77466,1.94733c-0.39856,0.81305 -0.73605,1.54626 -1.35419,2.16666c-0.68594,0.68845 -1.1564,1.07993 -1.83331,1.83334c-0.55267,0.61511 -1.19064,1.00766 -1.93335,1.61066c-0.76022,0.61722 -0.93909,1.57803 -1.48401,2.104c-0.69028,0.66629 -1.69641,0.28043 -2.56866,0.64252c-0.71729,0.29776 -1.59946,0.93268 -2.146,1.44281c-0.71371,0.66614 -1.46838,0.96375 -2.30133,1.42151c-0.67505,0.37097 -1.23465,1.27808 -2,1.65717c-0.84677,0.4194 -1.50232,0.78378 -2.384,1.32001c-0.66754,0.40601 -1.66901,0.60385 -2.31467,0.88535c-0.87897,0.38324 -1.37631,1.16489 -2.01733,1.58798c-1.13187,0.74707 -1.60867,0.87778 -2.59998,1.32883c-0.53424,0.2431 -1.08124,0.48495 -2.16803,0.93668c-0.51071,0.21228 -1.78091,0.71817 -2.61066,0.96518c-0.96533,0.28738 -1.81387,0.63379 -2.40665,0.81332c-0.98212,0.29742 -1.85211,0.29184 -2.79736,0.85199c-0.6225,0.3689 -1.3923,1.23312 -2.19064,1.41068c-0.88989,0.19794 -1.65082,0.51416 -2.57733,0.85468c-0.63031,0.23166 -1.69699,-0.00989 -2.52884,0.22382c-0.76526,0.215 -1.50916,0.8179 -2.40451,0.94299c-0.90646,0.12665 -1.49545,0.70218 -2.38531,0.91452c-0.89752,0.21417 -1.91336,0.08533 -2.67868,0.08533c-0.952,0 -1.72,0 -2.672,0c-0.76534,0 -1.77063,-0.05832 -2.564,0.05716c-1.01343,0.14752 -1.73082,0.63101 -2.716,0.85751c-0.75294,0.1731 -1.70934,0.08533 -2.71733,0.08533c-0.75601,0 -1.6875,0 -2.65201,0c-0.72533,0 -1.71483,0 -2.53549,0c-0.66451,0 -1.66451,0 -2.5,0c-0.88051,0 -2.07918,0 -2.67917,0c-0.90001,0 -2.09967,0 -2.69101,0c-0.83699,0 -1.96632,0 -2.75966,0c-0.89233,0 -1.89101,0 -2.45833,0c-1.19118,0 -2.10167,0 -2.72701,0c-1.33067,0 -2.04933,0 -2.8,0c-0.77466,0 -1.56534,0 -2.76367,0c-0.79132,0 -1.55865,0 -2.286,0c-1.2715,0 -2.05299,0 -2.99699,0c-1.00134,0 -1.81734,0 -2.63333,0c-0.99867,0 -1.87334,0 -2.68401,0c-0.81067,0 -1.68533,0 -2.68266,0c-0.79651,0 -1.548,0 -2.64534,0c-0.9765,0 -1.83867,0 -2.69283,0c-0.97917,0 -1.76851,0 -2.8125,0c-0.79201,0 -1.65067,0 -2.51401,0c-0.89999,0 -1.81934,0 -2.65266,0c-0.97867,0 -1.75267,0 -2.65266,0c-0.86334,0 -1.84734,0 -2.83133,0c-0.69067,0 -1.75883,0 -2.61601,0c-0.89999,0 -1.67726,-0.12762 -2.42082,-0.5c-0.93762,-0.46957 -1.65379,-0.49466 -2.7265,-0.5c-0.91933,-0.00458 -1.578,0 -2.586,0c-0.79201,0 -1.81934,0 -2.51401,0l-1.02733,0l-0.94667,0l-0.85333,0" id="svg_7" stroke-width="2" stroke="#000" fill="none"/>
  <path t="39590,39654,39670,39670,39702,39702,39718,39718,39726,39726,39736,39736,39752,39752,39768,39768,39768,39785,39785,39801,39801,39801,39818,39818,39835,39835,39835,39851,39851,39868,39868,39868,39868,39885,39885,39901,39901,39918,39918,39918,39935,39935,39935,39935,39951,39951,39968,39968,39987,39987,39987,40002,40002,40002,40019,40019,40019,40035,40036,40036,40051,40051,40051,40068,40068,40068,40068,40085,40085,40085,40085,40101,40101,40121,40121,40121,40121,40135,40135,40135,40135,40135,40151,40151,40151,40151,40168,40168,40168,40168,40168,40185,40185,40185,40185,40185,40201,40201,40201,40218,40218,40218,40218,40218,40235,40235,40235,40235,40235,40251,40251,40251,40268,40268,40268,40285,40285,40285,40301,40301,40301,40301,40301,40318,40318,40318,40335,40335,40335,40335,40351,40351,40351,40374,40374,40390,40401,40401,40418,40418,40418,40440,40440,40451,40451,40474,40474,40489,40489,40489,40507,40508,40508,40527,40527,40527,40549,40550,40573,40826,40826,40842,40869,40885,40901,40901,40918,40934,40934,40934,40951,40968,40968,40968,40984,41001,41001,41020,41038,41038,41051,41051,41077,41084,41084,41101,41126,41126,41144,41154,41154,41168,41189,41190,41190,41190,41213,41213,41213,41221,41237,41253,41268,41284,41301,41301,41301,41318,41318,41334,41351,41351,41368,41368,41384,41384,41401,41401,41418,41418,41434,41434,41434,41451,41451,41468,41468,41468,41484,41484,41484,41484,41485,41501,41501,41501,41501,41501,41502,41502,41502,41518,41518,41518,41518,41518,41519,41534,41534,41534,41534,41551,41551,41551,41551,41568,41568,41568,41584,41584,41584,41584,41584,41601,41601,41601,41618,41618,41634,41634,41634,41634,41651,41828,41843,41843,41862,41885,41886,41901,41901,41901,41918,41918,41918,41934,41934,41934,41959,41959,41968,41984,41984,42001,42018,42018,42018,42018,42019,42034,42034,42034,42034,42051,42051,42069,42085,42086,42086,42109,42109,42109,42118,42119,42136,42136,42151,42152,42152,42169,42170,42184,42184,42184,42201,42201,42218,42218,42234,42234,42251,42268,42268,42268,42284,42301,42301,42318,42342,42343,42359,42359,42368,42398,42406,42422,42422,42434,42451,42468,42486,42486,42501,42518,42534,42534,42551,42568,42568,42584,42584,42601,42601,42618,42634,42651,42694,42694,42694,42718,42718,42734,42766,42766,42775,42806,42830,42854,42901,42901,43076,43076,43117,43141,43142,43158,43182,43213,43214,43229,43253,43261,43277,43278,43285,43286,43309,43333,43334,43341,43351,43368,43368,43384,43384,43401,43418,43418,43434,43434,43451,43451,43468,43468,43468,43484,43484,43501,43501,43501,43518,43518,43518,43534,43534,43534,43535,43551,43551,43551,43568,43568,43584,43584,43601,43601,43618,43634,43634,43634,43651,43651,43669,43669,43684,43684,43684,43701,43701,43718,43718,43734,43734,43735,43751,43751,43751,43768,43768,43784,43784,43784,43801,43801,43818,43818,43834,43964,43979,43998,44018,44018,44034,44034,44051,44051,44051,44068,44068,44068,44069,44084,44084,44084,44174,44174,44175,44175,44175,44202,44203,44203,44203,44204,44204,44204,44204,44204,44233,44234,44234,44234,44235,44235,44235,44251,44251,44268,44268,44284,44284,44285,44301,44318,44334,44334,44335,44351,44351,44352,44368,44390,44390,44406,44418,44434,44434,44454,44454,44470,44484,44501,44518,44518,44542,44543,44558,44558,44582,44614,44630,44630,44726,44924,44924,44959,44984,44984,45001,45001,45021,45054,45054,45085,45109,45110,45117,45118,45134,45151,45168,45189,45190,45190,45211,45211,45223,45234,45254,45273,45274,45274,45288,45301,45318,45318,45319,45334,45334,45335,45351,45352,45368,45369,45384,45385,45401,45401,45418,45418,45434,45434,45451,45468,45469,45484,45484,45501,45502,45518,45519,45534,45534,45551,45568,45568,45584,45584,45601,45618,45618,45634,45635,45651,45651,45670,45671,45671,45684,45685,45701,45701,45718,45719,45720,45720,45734,45734,45751,45751,45768,45769,45769,45784,45784,45785,45801,45801,45802,45818,45819,45834,45834,45851,45851,45853,45853,45853,45868,45869,45870,45884,45884,45901,45902,45903,45919,45919,45920,45934,45934,45951,45969,45969,45970,45984,45984,46001,46002,46019,46019,46034,46036,46036,46036,46051,46052,46068,46070,46087,46087,46102,46118,46143,46143,46151,46168,46190,46201,46201,46218,46234,46254,46255,46255,46280,46280,46287,46302,46303,46335,46359,46359,46360,46382,46383,46414,46415,46422,46470" d="m152,310c-1.02083,-0.97916 -1.97867,-1.00192 -2.75267,-1c-0.90451,0.00226 -1.86015,0.04379 -2.64732,0.284c-0.81412,0.24841 -1.80409,0.56995 -2.57918,0.716c-1.00604,0.18958 -1.62048,0.64999 -2.50616,1.20001c-0.52144,0.32382 -1.51468,0.79999 -2.31467,1.19998c-0.59999,0.30002 -1.58711,0.82806 -2.2,1.07916c-0.98167,0.40219 -1.82726,0.41318 -2.60001,0.69019c-0.84138,0.30161 -1.54337,1.08041 -2.39999,1.49731c-0.7507,0.36536 -1.55479,0.33099 -2.396,0.78c-0.69881,0.37299 -1.65496,1.03928 -2.28001,1.37869c-0.64692,0.35129 -1.32156,0.61569 -2.4525,1.41748c-0.58615,0.41556 -1.27651,1.18741 -1.84216,1.64252c-0.7785,0.62637 -1.5625,1.12894 -2.13834,1.46198c-0.87858,0.50812 -1.78423,0.90118 -2.37016,1.13184c-0.83235,0.32764 -1.85527,0.67926 -2.67417,1.12085c-0.84935,0.45801 -1.44925,1.03329 -2.16833,1.50015c-0.69942,0.45407 -1.37511,0.76871 -2.36234,1.38516c-0.54709,0.34164 -1.37843,0.89978 -2.14934,1.51468c-0.72413,0.57761 -1.3279,1.19955 -2.16666,1.83334c-0.5816,0.43948 -1.22858,0.75198 -2,1.33331c-0.83303,0.62778 -1.19971,1.04431 -2,1.83334c-0.60878,0.60022 -1.25766,1.21857 -1.77067,1.60001c-0.84924,0.63141 -1.5284,0.9986 -2.2085,1.37915c-0.96502,0.53998 -1.95808,1.14966 -2.5,1.5c-0.84016,0.54315 -1.54591,0.81573 -2.37817,1.19284c-0.63561,0.28799 -1.67145,0.85941 -2.39534,1.33783c-0.75529,0.49918 -1.1218,0.77579 -1.86333,1.3075c-1.06238,0.76175 -1.73134,1.23001 -2.384,1.68268c-0.65266,0.45267 -1.66599,1.1676 -2.38533,1.68268c-0.37148,0.26599 -1.11982,0.82138 -1.91917,1.3075c-1.17364,0.71375 -1.58686,0.8876 -2.38651,1.1955c-0.75996,0.2926 -1.85131,0.57449 -2.76633,0.91483c-0.80473,0.29932 -1.56903,0.7442 -2.376,1.39951c-0.65374,0.53088 -0.97209,0.86292 -1.6875,1.5c-0.72655,0.647 -1.80369,1.51346 -2.15766,1.73566c-0.96297,0.60449 -1.61625,0.85672 -2.22017,1.14569c-1.21131,0.57959 -1.7917,0.94229 -2.36533,1.2933c-1.07128,0.65552 -1.79325,1.04904 -2.42533,1.45068c-1.03605,0.65833 -1.62204,1.22299 -2.08267,1.58533c-1.0396,0.81775 -1.69069,1.19745 -2.37867,1.57867c-0.69344,0.38425 -1.3823,0.72342 -2.3065,1.18933c-0.78232,0.39438 -1.50095,0.75729 -2.46417,1.34283c-0.53704,0.32645 -1.36313,0.87592 -1.89467,1.27982c-1.01669,0.77252 -1.64605,1.37402 -2.19733,1.91336c-0.73449,0.7186 -1.31292,1.13858 -2.12267,1.54666c-0.88276,0.44485 -1.36915,0.95425 -2.19733,1.772c-0.54475,0.5379 -1.03999,1.06155 -1.81934,1.81482c-0.51505,0.4978 -1.46334,1.1825 -2.1,1.39999c-0.9045,0.30902 -1.65529,0.64948 -2.64867,1.15317c-0.62169,0.31525 -1.29429,0.66721 -2.28267,1.284c-0.54719,0.34146 -1.3794,0.89856 -2.14933,1.51468c-0.72054,0.5766 -1.32607,1.1579 -2,1.83334c-0.52477,0.52594 -0.85299,1.63763 -1.60917,2.04498c-0.70189,0.37811 -0.84428,-0.52631 -0.0575,-0.87833c0.79971,-0.35782 1.42832,-1.08762 2.1,-1.564c0.74522,-0.52853 1.72526,-0.87387 2.22533,-1.28668c0.69619,-0.57471 1.59916,-1.00949 2.34134,-1.48267c0.70481,-0.44934 1.00246,-1.10962 1.78267,-2.01999c0.54425,-0.63504 1.40627,-0.5686 2.298,-0.65115c0.92955,-0.08606 1.78197,-0.46866 2.586,-0.99551c0.67263,-0.44077 1.4203,-0.78903 2.26667,-1.22134c0.65531,-0.33472 1.55034,-0.76096 2.384,-1.06265c0.70462,-0.25497 1.62759,-0.67328 2.516,-0.716c0.79908,-0.03842 1.72287,-0.03207 2.76417,-0.44266c0.60789,-0.23972 1.24847,-0.577 1.935,-0.85202c1.24384,-0.49832 2.01638,-0.65829 2.81284,-0.70267c0.96595,-0.05383 1.74686,-0.42395 2.58783,-0.88132c0.74749,-0.40652 1.27738,-1.01801 2.06683,-1.28799c0.87494,-0.29922 1.42827,-0.64777 2.42883,-1.12885c0.74271,-0.35709 1.64957,-0.61804 2.60583,-0.70584c0.68625,-0.06302 1.63804,-0.42767 2.4,-0.79999c0.80095,-0.39136 1.59077,-0.75555 2.37733,-1.29868c0.67265,-0.46448 1.48325,-1.14944 2.232,-1.46399c0.76893,-0.32303 1.62129,-0.31555 2.38933,-0.60535c1.06353,-0.40131 1.57356,-1.05005 2.4,-1.664c0.59113,-0.43915 1.27119,-0.79358 2.33334,-1.33331c0.63951,-0.32495 1.36919,-0.6969 2.16,-1.18802c0.43521,-0.27029 1.84464,-1.3064 2.34917,-1.73065c0.52909,-0.44489 1.06032,-0.92319 1.5975,-1.41602c0.54117,-0.49649 1.07108,-0.99973 1.5975,-1.48798c1.45631,-1.35074 1.88735,-1.73801 2.6955,-2.38202c0.36488,-0.29077 1.06109,-0.80173 1.74833,-1.22333c1.02559,-0.62918 1.7692,-1.00104 2.49783,-1.40533c0.71335,-0.39581 1.70361,-0.97845 2.5065,-1.59549c0.4827,-0.37097 1.06747,-0.98474 2.12784,-1.65186c0.66927,-0.42105 1.23946,-0.64371 2.2505,-1.07397c0.79166,-0.33691 1.63618,-0.67825 2.06001,-0.85333c0.82434,-0.34052 2.22266,-0.93423 2.768,-1.18936c0.90855,-0.42508 1.71777,-0.8215 2.544,-1.27197c0.94061,-0.51285 1.44262,-0.85321 2.24316,-1.34317c0.74778,-0.45764 1.53823,-0.94464 2.52084,-1.02084c0.23235,-0.01801 -0.54615,0.02371 -1.364,0.42532c-0.87278,0.42859 -1.61872,0.72073 -2.40533,1.14267c-0.76387,0.40973 -1.24773,0.81329 -2.30933,1.18933c-0.89808,0.31812 -1.63435,0.34491 -2.604,0.81201c-0.82486,0.39734 -1.33859,0.74185 -2.34667,1.54532c-0.56773,0.45248 -1.16807,1.35114 -1.97066,1.71869c-0.74272,0.34015 -1.7312,0.2309 -2.5,0.66666c-0.5724,0.32443 -1.19806,0.7937 -1.86,1.332c-0.68544,0.55743 -1.61118,1.45523 -2.12116,2.05899c-0.46983,0.55624 -0.98482,1.37524 -1.63351,2.13702c-0.54412,0.63898 -1.44583,0.92487 -2.20699,1.41464c-0.76569,0.49271 -1.33072,1.08893 -2.361,1.388c-0.77811,0.22586 -1.59808,0.11551 -2.50751,0.52652c-0.74969,0.33881 -1.47407,0.94281 -2.2715,1.39999c-0.7073,0.40549 -1.4773,0.90613 -2.277,1.3815c-0.91777,0.54556 -1.62374,0.72775 -2.58283,1.08301c-0.72118,0.26712 -1.30016,0.6387 -2.07716,1.26099c-0.78679,0.6301 -1.41701,1.22733 -2.22667,1.53201c-0.84144,0.31662 -1.63074,0.72711 -2.27383,1.28082c-0.72894,0.62766 -1.39926,0.60388 -2.33416,0.78851c-0.97076,0.19171 -1.80264,0.65491 -2.56667,1c-0.76815,0.34695 -1.50188,1.05292 -2.2,1.39514c-0.81305,0.39856 -1.69508,0.57428 -2.5,1.02084c-0.79958,0.4436 -1.75729,0.3363 -2.6,0.72134c-0.6693,0.30579 -1.43031,0.7197 -2.3,1.20398c-0.72862,0.40573 -1.57173,0.78638 -2.2,1.14935c-0.84566,0.48859 -1.41076,1.12338 -2.26133,1.39999c-0.63245,0.20566 -1.61573,0.58017 -2.46,1.12534c-0.66179,0.42734 -1.47359,0.95853 -2.17867,1.37915c-0.78432,0.4679 -1.51227,0.35587 -2.61333,0.52219c-0.78739,0.11893 -1.29817,0.85947 -2.05333,1.332c-0.71561,0.44778 -1.18179,1.01736 -1.948,1.78131c-0.58169,0.57999 -1.17459,1.19623 -1.88533,1.88535c-0.59121,0.57321 -1.36009,1.00726 -2.02533,1.57468c-0.56204,0.4794 -1.41606,0.82028 -2.0745,1.52548c-0.58169,0.62302 -0.8752,1.55084 -0.89566,2.24716c-0.02925,0.99509 0.69363,1.21014 1.51283,0.93533c0.83607,-0.28049 1.85817,-0.11072 2.68267,-0.56799c0.69205,-0.38382 1.09702,-1.31216 2,-1.62933c0.85295,-0.29959 1.81299,0.00842 2.55717,-0.14249c0.9214,-0.18686 1.5805,-0.83472 2.24283,-1.422c0.6344,-0.5625 1.53695,-0.34714 2.47917,-0.54169c0.86707,-0.17902 1.62995,-0.8262 2.40617,-1.06317c0.77758,-0.23737 1.63849,-0.6076 2.47866,-0.89066c0.84592,-0.285 1.50059,-0.84229 2.472,-0.98932c0.75749,-0.11465 1.78379,0.04184 2.62117,-0.15033c0.99258,-0.22778 1.4903,-0.59225 2.28151,-1.035c0.92717,-0.51883 1.75921,-0.77237 2.58299,-1.07236c0.74033,-0.26959 1.36977,-0.65707 2.36367,-1.26233c0.55335,-0.33698 1.40359,-0.89319 2.31467,-1.34933c0.88583,-0.44351 1.50968,-0.64471 2.4,-1.05066c0.91011,-0.41498 1.48669,-0.77158 2.328,-1.25467c0.93395,-0.53629 1.65424,-0.68625 2.47334,-1.14667c0.74689,-0.41983 1.42847,-1.06024 2.146,-1.35748c1.00048,-0.41443 1.82063,-0.68884 2.48866,-1.20786c0.56963,-0.44257 1.56673,-0.96384 2.328,-1.164c0.95753,-0.25177 1.5825,-0.75333 2.1575,-1.30649c0.69199,-0.66571 1.23264,-1.23041 2.2785,-1.569c0.77581,-0.25116 1.82181,-0.35031 2.4,-0.65149c1.04586,-0.5448 1.57578,-1.13773 2.2,-1.59702c0.77206,-0.56808 1.60717,-0.76468 2.4,-0.944c1.01568,-0.22974 1.63032,-0.54184 2.56667,-0.91733c0.77696,-0.31155 1.60608,-0.52875 2.5,-1c0.8283,-0.43665 1.3441,-1.21878 2.03333,-1.64282c0.8214,-0.50534 2.17067,-0.49878 2.25333,0.25348c0.09615,0.87488 -1.02081,1.52686 -1.58933,1.98935c-0.80668,0.65625 -1.57465,1.00006 -2.364,1.39999c-0.81064,0.41074 -1.46523,0.74362 -2.42133,1.32132c-0.53596,0.32382 -1.34959,0.85934 -1.89467,1.19467c-0.99329,0.61105 -1.68934,0.97464 -2.368,1.36801c-1.02023,0.59134 -1.63325,0.99112 -2.41467,1.43466c-0.4608,0.26154 -0.98007,0.54901 -2.23467,1.18134c-0.7343,0.37009 -1.53806,0.7533 -2.388,1.15799c-0.8807,0.41934 -1.77897,0.84137 -2.67599,1.26602c-0.88163,0.41736 -1.73626,0.81262 -3.26933,1.57599c-0.66363,0.33044 -1.25116,0.63931 -1.7715,0.92401c-0.46482,0.25433 -1.2395,0.70963 -1.86584,1.08667c-1.00774,0.60663 -1.67358,0.93741 -2.52934,1.48932c-0.70425,0.45419 -1.49715,0.853 -2.40666,0.97467c-0.69565,0.09308 -1.58084,0.54388 -2.20667,1.01065c-0.79149,0.59033 -1.37749,0.90564 -2.01501,1.36652c-0.92862,0.67133 -1.76485,0.96655 -2.47133,1.34366c-0.84397,0.4505 -1.50404,1.23343 -2.25233,1.29382c-0.92507,0.07468 -1.575,0.51431 -2.384,0.92667c-0.70772,0.36072 -1.69502,0.41553 -2.22934,0.88535c-0.73246,0.64407 -1.50987,1.06317 -2.40133,1.20001c-0.91593,0.14059 -1.54253,0.69302 -2.45267,0.9505c-0.6855,0.19394 -1.54032,0.79535 -2.04283,1.34283c-0.64543,0.70319 -1.4318,1.1142 -2.3045,1.53867c-0.75391,0.3667 -1.5925,0.60382 -2.19733,1.36533c-0.5201,0.65482 0.39867,0.80133 1.364,0.80133c0.83333,0 1.66666,0 2.52883,0c0.9405,0 1.78851,0.00217 2.65183,0c0.90001,-0.00226 1.81934,-0.16666 2.65267,-0.5c0.83333,-0.33334 1.69549,-0.49774 2.6,-0.5c0.9,-0.00223 1.8625,0.08261 2.56667,-0.33334c0.72682,-0.42935 1.15762,-1.04245 1.94801,-1.78c0.66522,-0.62076 1.4854,-0.87079 2.38533,-0.88666c0.91077,-0.01608 1.82526,-0.43787 2.32533,-0.85068c0.69619,-0.57471 1.54396,-1.0282 2.47916,-1.15381c0.86948,-0.11679 1.53687,-0.44394 2.38217,-0.79684c0.99001,-0.41333 1.54042,-0.56833 2.3035,-0.89868c1.05939,-0.45862 1.72758,-1.04822 2.49517,-1.49866c0.70045,-0.41104 1.71876,-0.65527 2.49383,-0.80133c1.00604,-0.18961 1.61409,-0.66049 2.50484,-1.19867c0.66875,-0.40405 1.53418,-0.56024 2.31467,-0.88535c0.77912,-0.32452 1.50076,-1.05798 2.20133,-1.39514c0.95245,-0.4584 1.75528,-0.45984 2.65717,-0.52985c0.75246,-0.05841 1.74649,-0.55237 2.322,-0.991c0.86176,-0.65683 1.61669,-1.00189 2.4315,-1.42532c0.76228,-0.39615 1.63376,-0.43002 2.56783,-0.79602c0.65703,-0.25745 1.45334,-0.68546 2.34283,-1.00015c0.69928,-0.24741 1.60781,-0.95654 2.304,-1.3425c0.81316,-0.45081 1.63545,-0.38666 2.57466,-0.87866c0.64275,-0.3367 1.13153,-1.00665 2.19867,-1.38669c0.73457,-0.2616 1.72404,-0.13217 2.46833,-0.22781c0.90466,-0.11624 1.82165,-0.3714 2.493,-0.5535c0.67541,-0.1832 1.86655,-0.59167 2.5775,-0.8685c1.03942,-0.40472 1.75982,-0.51169 2.8265,-0.521c0.59399,-0.00519 1.57647,0.06918 2.736,-0.1665c0.65202,-0.13254 1.44738,-0.6763 2.26933,-1.03201c0.73616,-0.3186 1.54157,-0.55096 2.544,-0.71732c0.83567,-0.13867 1.80265,-0.37759 2.42001,-0.73068c0.92743,-0.53046 1.59915,-0.84753 2.37866,-1.168c0.81776,-0.33618 1.62309,-0.66782 2.7235,-0.94232c0.84744,-0.2114 1.55132,-0.21722 2.5645,-0.24435c0.80046,-0.02142 1.79837,-0.22537 2.62083,-0.49866c0.66309,-0.22034 1.66318,-0.41599 2.47917,-0.5c0.81599,-0.08401 1.87761,-0.15546 2.61734,-0.61066c0.88519,-0.54471 1.37804,-1.25189 2.17999,-1.36401c0.75565,-0.10565 1.81018,-0.17188 2.661,-0.54617c0.91315,-0.40173 1.49318,-1.07932 2.36334,-1.35782c0.6954,-0.22256 1.8503,-0.26733 2.631,-0.47852c0.55145,-0.14917 1.36963,-0.42868 2.36067,-0.84149c0.84558,-0.3522 1.65977,-0.73398 2.57066,-0.79999c0.93895,-0.06805 1.65219,-0.04263 2.59517,-0.50134c0.84062,-0.40894 1.64487,-0.69308 2.22083,-1.2045c0.73227,-0.65024 1.49698,-1.25278 2.40001,-1.2955c0.89899,-0.04251 1.73247,0.18912 2.59999,-0.05716c0.77472,-0.21991 1.45554,-0.9621 2.136,-1.34283c0.75362,-0.42166 1.74841,-0.92038 2.328,-1.164c0.93454,-0.39282 1.79674,-0.66556 2.536,-1.08334c0.78511,-0.4437 1.63918,-0.77518 2.3,-1.3735c0.53082,-0.48062 1.18253,-1.34412 1.96933,-1.6925c0.75224,-0.33307 1.744,-0.31198 2.66634,-0.508l0.58566,-0.65732" id="svg_8" stroke-width="2" stroke="#000" fill="none"/>
  <path t="51388,51498,51498,51546,51581,51592,51592,51606,51606,51629,51630,51670,51718,51734,51750,51750,51765,51773,51773,51797,51806,51817,51834,51851,51867,51884,51884,51901,51901,51901,51917,51934,51951,51951,51967,51967,51984,51984,52001,52017,52017,52034,52034,52051,52051,52051,52067,52067,52084,52084,52101,52101,52117,52134,52201,52217,52253,52254,52269,52286,52317,52341,52373,52373,52397,52429,52453,52469,52477" d="m252,340c1.8,0 2.79807,-0.36542 3.564,0.03601c0.67789,0.35526 0.70767,1.4556 1.04666,2.17465c0.47055,0.99811 0.75003,1.87033 1.38934,2.45599c0.60974,0.55859 0.91083,1.28967 1.61066,1.89734c0.67535,0.58643 1.71066,0.436 2.564,0.436c0.94,0 1.82535,0 2.62534,0c0.90002,0 1.80002,0 2.70001,0c0.89999,0 1.79999,0 2.70132,0c0.96533,0 1.83374,0.0545 2.79868,-0.16666c0.60809,-0.13937 1.49069,-0.65533 2.36401,-0.79733c0.92899,-0.15103 1.80264,-0.03595 2.63599,-0.03601c0.97867,-0.00009 1.76584,-0.01965 2.65268,-0.35266c0.70639,-0.26526 1.74072,-0.55887 2.66864,-0.86868c0.69589,-0.23236 1.50159,-0.68457 2.34003,-0.76797c0.87723,-0.08728 1.8595,-0.01068 2.65598,-0.01068c0.99734,0 1.87201,0 2.68268,0c0.97916,0 1.83353,0.01715 2.6955,0c0.90506,-0.01801 1.61484,-0.6181 2.50452,-0.91467c0.85764,-0.28586 1.79999,-0.08533 2.59998,-0.08533c0.90002,0 1.92334,-0.14664 2.58936,0.436c0.69785,0.6105 0.46414,1.69803 0.69598,2.36398c0.30835,0.88568 0.87866,1.60001 0.91467,2.5l-0.00134,0.89868l-0.35583,0.74417" id="svg_9" stroke-width="2" stroke="#000" fill="none"/>
  <path t="53234,53377,53377,53430,53477,53477,53534,53575,53599,53615,53717,53732,53767,53775,53775,53791,53806,53817,53834,53834,53851,53867,53867,53884,53901,53917,53934,53951,53951,54006,54007,54046,54047,54054,54086,54118,54118,54158,54254,54254,54254,54285,54285,54285,54285,54325,54325,54349,54374,54414,54414,54446,54462,54469,54485,54501,54517,54565,54565,54613,54662,54662,54717,54783,54814,54814" d="m282,331c-1.564,0.61066 -1.88495,1.44318 -2.35266,2.29999c-0.40686,0.74533 -0.77081,1.47711 -1.22202,2.30002c-0.42773,0.78012 -0.42542,1.69998 -0.42532,2.60001c0.00009,0.89981 0.21524,1.73911 1.10001,1.79999c0.89786,0.0618 1.69998,0 2.60001,0c0.89999,0 1.82083,0 2.784,0c0.69064,0 1.81326,0.14932 2.616,-0.22134c0.66806,-0.3085 1.5,-0.76797 2.39999,-0.77866c0.89999,-0.01068 1.62274,-0.41837 2.5,-0.83334c0.71259,-0.3371 1.64172,-0.56195 2.40451,-0.814c0.97751,-0.323 1.77399,-0.18835 2.70883,-0.354c0.83914,-0.14868 1.32361,-0.92865 2.07199,-0.98798c1.05875,-0.08392 1.98132,-0.01068 2.672,-0.01068c0.91467,0 1.78534,0 2.79333,0c0.69867,0 1.38135,0 2.57733,0c0.91467,0 2.08041,-0.3111 2.68799,0.28534c0.62088,0.60947 0.92987,1.48151 1.07333,2.31467c0.15274,0.88699 0.01068,1.79999 0.01068,2.69998c0,0.90002 0,1.80002 0,2.70001c0,0.79999 0.04361,1.75845 -0.00449,2.64816c-0.04245,0.78552 -0.70001,1.39999 -1.51636,1.85184l-0.80048,0.37851l-0.85333,0.11081" id="svg_10" stroke-width="2" stroke="#000" fill="none"/>
  <path t="55148,55228,55228,55244,55262,55285,55310,55310,55342,55342,55342,55366,55398,55451,55451,55486" d="m305,338c1.16666,1 1.74695,1.5372 1.96399,2.39999c0.21973,0.8735 0.03601,1.80133 0.03601,2.76666c0,0.85419 0,1.83334 0,2.62268c0,0.72534 0,1.79999 -0.01068,2.61066l-0.35098,0.89551l-0.52499,0.41916l-0.93869,0.24933" id="svg_11" stroke-width="2" stroke="#000" fill="none"/>
  <path t="55796,55938,55938,55938,55973,55973,56001,56017,56062,56062" d="m302,341c1,1 1,1.79999 1,2.63599c0,1.01669 0,1.71133 -0.01068,2.71735l-0.51016,0.66751l-0.67917,0.54715l-0.39999,0.58133" id="svg_12" stroke-width="2" stroke="#000" fill="none"/>
  <path t="56613,56693,56735,56735,56751,56751,56880,56926,56926,56974,56974,56998,56998,57015,57031,57031,57037,57054,57069,57084,57084,57100,57117,57134,57165,57165,57190,57214,57246,57246,57300,57316,57357,57373,57374,57429,57461,57461,57493,57509,57518" d="m299,321c0.97916,1.02084 0.99808,1.97867 1,2.75266c0.00226,0.90002 -0.15384,1.91431 0.44666,2.60068c0.67188,0.76794 1.57404,0.63623 2.55334,0.64667c0.78931,0.00839 1.83334,0 2.6955,0c0.82535,0 1.78851,0 2.65182,0c0.89551,0 1.85269,0 2.75269,0c0.89999,0 1.69998,0 2.60001,0c0.89999,0 1.71066,0 2.62131,0c0.85333,0 1.79333,0 2.77869,0c0.89999,0 1.69998,0 2.60001,0c0.89999,0 1.97327,-0.0575 2.24283,0.70984c0.26828,0.76367 0.05716,1.79016 0.05716,2.61148c0,0.85333 0,1.79333 -0.00015,2.7785l-0.22134,0.77869" id="svg_13" stroke-width="2" stroke="#000" fill="none"/>
  <path t="58206,58254,58270,58294,58295,58318,58336,58336,58358,58358,58367,58590,58630,58638,58652,58670,58702,58703,58766,58766,58816,58842,58842,58862,58862,58869,58893,58901,58925,58981,58998,58998,59029,59084,59142,59174,59174,59198,59198,59214,59238,59255,59255,59270,59294,59310,59334,59350,59398,59414,59430,59446,59454,59454,59467,59486,59510,59550,59558" d="m309,311c0,1.79999 0,2.63599 0,3.48401c0,0.86331 0.06921,1.91205 -0.22134,2.83731c-0.21982,0.69995 -0.67322,1.50275 -0.77417,2.37418c-0.10419,0.89941 -0.41608,1.69373 -0.29547,1.65268c0.81812,-0.27853 1.49426,-0.89136 2.39099,-1.22668c0.85065,-0.31808 1.65823,-0.08194 2.55267,-0.12598c0.86603,-0.04263 1.67303,-0.53464 2.51398,-0.82886c0.80215,-0.28064 1.78287,-0.44101 2.52884,-0.814c0.77838,-0.38919 1.7045,-0.35266 2.60449,-0.35266c0.90002,0 1.80002,0 2.70001,0c0.79999,0 1.70001,0 2.60001,0c0.92084,0 1.8894,-0.04846 2.61066,0.03601c0.99942,0.11703 1.89124,0.32626 2.54651,1.06381c0.55795,0.62802 1.37637,0.939 1.88565,1.60468c0.51831,0.67752 1.17145,1.2836 1.35269,2c0.21964,0.86816 0.00449,1.7955 0.00449,2.6955c0,0.89999 0,1.80002 0,2.70001c0,0.89999 0.02725,1.70041 0,2.60001c-0.02859,0.94412 -0.80133,1.384 -1.5,1.79999l-0.79999,0.44284" id="svg_14" stroke-width="2" stroke="#000" fill="none"/>
  <path t="59912,60059,60075,60103,60118,60142,60158,60174,60198,60198,60250,60250,60294,60310,60318,60336,60352" d="m329,323c0,1.79999 0,2.70001 0,3.60001c0,0.89999 0,1.79999 0,2.69998c0,0.90002 0.24487,1.79541 -0.17065,2.5c-0.46475,0.78806 -1.4473,0.88019 -2.18268,1.60001c-0.62534,0.61209 -0.93201,1.51468 -1.84534,1.59866l-0.71732,-0.28265" id="svg_15" stroke-width="2" stroke="#000" fill="none"/>
  <path t="60717,60767,60782,60798,60798,60821,60845,60869,60910,60910,60910,61005,61005,61005" d="m326,323c1,1 1,1.79999 1,2.70001c0,0.89999 0.00223,1.79999 0,2.69998c-0.00226,0.90451 -0.12521,1.78555 -0.44666,2.436c-0.39111,0.79141 -1.03735,1.56268 -1.55334,2.14316l-0.51599,0.53552" id="svg_16" stroke-width="2" stroke="#000" fill="none"/>
  <path t="61345,61456,61456,61510" d="m329,334" id="svg_17" stroke-width="2" stroke="#000" fill="none"/>
  <path t="70899,71026,71079,71079,71111,71135,71159,71217,71217,71232,71263,71318,71351,71401,71468,71483,71519,71519,71567,71584,71630,71654,71717,71717,71717,71783,71831,71855,71903,71959,71991,72007,72008" d="m272,207c2.62534,0 3.48401,0 4.34732,0c0.89551,0 1.85269,0 2.75269,0c0.89999,0 1.69998,0 2.60001,0c0.89999,0 1.79999,0 2.69998,0c0.89999,0 1.80002,0 2.70001,0c0.89999,0 1.69998,0 2.60001,0c0.89999,0 1.86957,-0.11145 2.59998,0.35716c0.79993,0.5132 1.1759,1.29535 1.67468,2.03217c0.45157,0.66707 0.85394,1.24179 1.04617,2.11067c0.18655,0.84329 1.07898,1.37866 1.89514,1.78534l0.30536,0.81467l0.42599,0.59999" id="svg_19" stroke-width="2" stroke="#000" fill="none"/>
  <path t="72537,72649,72649,72686,72710,72710,72718,72758,72774,72806,72851,72851,72918,72918,72918,72918,72984,73051,73103,73159,73159,73207,73231,73232,73263,73263,73569,73631,73631" d="m276,207c1.79999,0 2.57849,0.10883 3.10983,0.7045c0.67679,0.75874 1.4259,0.95422 2.36932,1.2955c0.84012,0.30389 1.67087,0.58473 2.35419,1.16667c0.73987,0.6301 1.20377,1.03992 1.83331,1.83333c0.51199,0.64526 0.07776,1.72171 0.41867,2.43066c0.45477,0.94574 1.17697,1.39017 1.86652,1.922c0.66116,0.50993 1.39999,0.64508 2.42282,0.64734c0.79199,0.00174 1.68286,0.16521 2.60382,-0.2215c0.79709,-0.3347 1.31702,-1.08301 1.85486,-1.94518l0.13065,-0.65866" id="svg_20" stroke-width="2" stroke="#000" fill="none"/>
  <path t="74115,74244,74244,74294,74319,74350,74359,74448,74494,74494,74494,74535,74535,74551,74551,74575,74576,74593,74639,74639,74671,74704,74704,74751,74783,74784,74815,74833,74855,74871,74871,74903,74919,74951,74999,75000,75031,75039,75079,75087,75103" d="m291,211c-1,-1 -1.46555,-1.97954 -0.91467,-2.71466c0.46191,-0.61641 1.61569,-0.32785 2.51468,-0.28534c0.88211,0.04172 1.3158,0.88295 1.35333,1.71201c0.02817,0.62202 0.01752,1.84904 -0.38934,2.58c-0.5087,0.91389 -1.16339,1.36353 -2.048,1.90666c-0.66583,0.4088 -1.62756,0.75862 -2.51599,0.80133c-0.79907,0.03842 -1.63742,0.04982 -2.64816,-0.0045c-0.78552,-0.04221 -1.39047,-0.64296 -1.34735,-1.64366c0.03387,-0.78593 0.68115,-1.4509 1.07953,-2.15317c0.40659,-0.71671 1.02393,-1.52953 1.71597,-1.91333c0.82449,-0.45728 1.64835,-0.52737 2.28403,-1.00134c0.76883,-0.57324 1.71616,-0.30273 2.616,-0.284c0.86453,0.01801 1.2955,0.7045 1.29999,1.60001l0,0.92082" id="svg_21" stroke-width="2" stroke="#000" fill="none"/>
  <path t="78566,78582,78599,78631,78641,78641,78641,78663,78663,78679,78679,78687,78701,78717,78734,78734,78734,78751,78774,78774,78786,78786,78802,78802,78803,78821,78834,78863,78863,78879,78879,78911,78935,78935,78951,78951,78967,78983,78983,79007,79007,79031,79055,79056,79072,79072,79095,79096,79119,79167,79167,79167,79183,79183,79203,79230,79231,79246,79247,79255" d="m235,245c-0.9955,1.7 -0.92239,2.6684 -1.44667,3.41066c-0.60231,0.85274 -1.20599,1.242 -1.728,1.76401c-0.80383,0.80383 -1.41467,1.41467 -2.02533,2.02533c-0.60001,0.60001 -1.29471,1.28775 -1.99867,1.716c-0.74765,0.45483 -1.09761,1.28271 -1.66266,1.89867c-0.46181,0.50342 -1.40033,1.03168 -2.30534,1.35199c-0.67084,0.23743 -1.66907,0.83011 -2.20799,1.23334c-0.79558,0.59525 -1.46773,0.97189 -2.14134,1.39999c-0.87155,0.55392 -1.68097,1.15729 -2.58417,1.20001c-0.78429,0.03708 -1.7433,-0.08871 -2.41583,0.08533c-1.03374,0.26755 -1.80029,0.8436 -2.65866,0.90399c-0.93907,0.06607 -1.70934,0.01068 -2.65067,0.01068c-1.008,0 -1.8,0 -2.65866,0c-0.86334,0 -1.76334,0 -2.68268,0c-0.83333,0 -1.812,0 -2.586,0c-0.89999,0 -1.76334,0 -2.74733,0c-0.98399,0 -1.68314,0.12982 -2.74283,-0.00449c-0.8772,-0.11118 -1.40327,-0.75983 -2.15717,-1.38486c-0.65761,-0.5452 -1.48534,-0.69467 -2.42534,-1.04666l-0.69067,-0.36533l-0.72682,-0.49866" id="svg_22" stroke-width="2" stroke="#000" fill="none"/>
  <path t="79701,79797,79812,79830,79855,79856,79875,79875,79875,79887,79901,79901,79917,79935,79951,79967,79984,80001,80017,80017,80034,80034,80051,80067,80084,80084,80101,80101,80101,80117,80117" d="m224,265c-0.16667,1.83334 -0.61073,2.50702 -1.36166,2.94284c-0.69798,0.40512 -1.70708,-0.02975 -2.63834,0.3905c-0.63998,0.28882 -1.24918,1.13199 -2.11467,1.496c-0.83112,0.34955 -1.68533,0.17065 -2.58533,0.17065c-0.90001,0 -1.8,0 -2.7,0c-0.90001,0 -1.80135,0 -2.76668,0c-0.83333,0 -1.66666,0 -2.52882,0c-0.90451,0 -1.85818,0.08569 -2.61351,-0.36166c-0.72675,-0.43042 -1.459,-1.12234 -1.94167,-1.46368l-0.74399,-0.52197l-0.86234,-0.6315l-0.60133,-0.54202" id="svg_23" stroke-width="2" stroke="#000" fill="none"/>
  <path t="80540,80573,80573,80615,80615,80623,80636,80651,80651,80668,80668,80668,80684,80684,80684,80684,80684,80709,80709,80709,80719,80719,80734,80751,80751,80791,80799,80807,80823,80835,80851,80851,80867,80867,80885,80885,80904,80904,80921,80921,80943,80943,80991,81031,81047,81048" d="m236,273c-1,1.16666 -1.60266,1.60797 -2.3,2.29999c-0.50192,0.49808 -1.11548,1.37338 -2,1.64285c-0.86537,0.26364 -1.68608,0.19833 -2.472,0.62784c-0.80745,0.44128 -1.38672,0.8511 -2.39467,1.42932c-0.71085,0.40778 -1.44641,0.79242 -2.172,1.164c-0.69051,0.35361 -1.61833,0.81448 -2.38933,1.20001c-0.86932,0.43469 -1.65489,0.86975 -2.436,1.19998c-0.93372,0.39474 -1.80267,0.65659 -2.436,1.01068c-0.86125,0.48151 -1.79999,0.42532 -2.7,0.42532c-0.89999,0 -1.80064,0.03391 -2.7,0c-0.75879,-0.02859 -1.66183,-0.34729 -2.4045,-0.7045c-0.80034,-0.38495 -1.74028,-0.60617 -2.35268,-1.39566c-0.52095,-0.67163 -0.55789,-1.57523 -0.94733,-2.24716c-0.53926,-0.93045 -1.0955,-1.45135 -1.77467,-2.15268l-0.46367,-0.8045l-0.05716,-0.86215l0,-0.83334" id="svg_24" stroke-width="2" stroke="#000" fill="none"/>
  <path t="81411,81507,81507,81507,81522,81522,81543,81551,81551,81567,81567,81567" d="m198,259c0,2.62534 -0.10699,3.49792 0.05716,4.34732c0.17975,0.93008 0.69667,1.5271 0.91751,2.47803c0.23213,0.99951 0.54616,1.6955 1.02533,2.508l0.3045,0.672l0.3315,0.74399" id="svg_25" stroke-width="2" stroke="#000" fill="none"/>
  <path t="82208,82241,82241,82320,82328,82352,82369,82369,82369,82386,82387,82387,82387,82387,82387,82400,82400,82400,82400,82400,82417,82417,82417,82434,82450,82467,82484,82484,82500,82500,82517,82517,82534,82550,82550,82550,82567,82567,82567,82584,82584,82600,82600" d="m167,264c-1.564,0.61066 -1.98199,1.39944 -2,2.29999c-0.01799,0.89984 -0.29692,2.07422 0.44383,2.57852c0.58621,0.39911 1.58549,0.12082 2.3895,0.12149c0.98933,0.00082 1.539,0 2.70834,0c0.60367,0 1.20934,0 2.95833,0c0.53517,0 1.5195,0 2.39583,0c0.77634,0 2.061,0 2.8215,0c0.79466,0 1.76184,0 2.68266,0c0.90451,0 1.76668,0 2.60001,0c0.97867,0 1.75267,0 2.65266,0c0.86334,0 1.76709,0.06842 2.68066,-0.33334c0.70512,-0.31009 1.43208,-0.8298 2.33334,-1.5c0.53333,-0.39661 1.21599,-0.96533 1.98599,-1.46664l0.69467,-0.40002l0.89549,-0.59998l0.55583,-0.5" id="svg_26" stroke-width="2" stroke="#000" fill="none"/>
  <path t="82996,83060,83096,83150,83150,83165,83185,83201,83201,83201,83201,83217,83217,83217,83217,83235,83235,83235,83251,83251,83251,83268,83268,83268,83285,83285,83285,83301,83301,83318,83318,83335,83335,83335,83351,83351,83368,83368,83385,83385,83385,83401,83401" d="m168,271c-0.87866,1.22134 -1.61197,1.737 -1.964,2.436c-0.38686,0.76816 0.48462,1.55356 1.27301,1.564c1.02423,0.01355 1.71303,-0.02457 2.54832,0.07199c0.63412,0.0733 2.02881,0.49048 2.76801,0.77869c0.75154,0.29303 1.47516,0.63715 2.55299,0.90631c0.6524,0.16293 1.57484,0.23233 2.655,0.24301c0.71397,0.00705 1.61934,0 2.58801,0c0.80399,0 1.62599,0 2.65717,0c0.90067,0 1.52016,0 2.5215,0c0.79999,0 1.80464,0.04599 2.63599,-0.03601c1.19379,-0.11774 1.71124,-0.31998 2.50267,-0.53867c1.1172,-0.30869 1.89233,-0.40112 2.748,-0.71066c0.7774,-0.28125 1.68001,-0.71466 2.4615,-1.01465l0.7905,-0.30002l0.92801,-0.39999l0.79166,-0.47916" id="svg_27" stroke-width="2" stroke="#000" fill="none"/>
  <path t="83764,83831,83847,83863,83871,83871,83871,83884,83900,83901,83919,83919,83919,83935,83935,83935,83951,83951,83951,83951,83951,83972,83972,83972,83972,83986,83986,83986,83986,84002,84002,84002,84002,84021,84021,84021,84021,84022,84035,84035,84035,84035,84035,84035,84050,84050,84051,84067" d="m172,282c0.05716,1.70001 0.54846,2.43671 1.3,2.95633c0.72905,0.50406 1.04398,1.34787 1.39999,1.98566c0.52176,0.93469 1.50267,1.05737 2.27068,1.05801c0.79999,0.00067 1.57475,-0.01761 2.43199,0.08533c1.20636,0.14487 1.80292,0.36285 2.7545,0.56201c1.00473,0.21027 1.72745,0.27969 2.47884,0.31665c0.77414,0.03809 1.56534,0.03534 2.76382,0.03601c0.79567,0.00046 1.96417,0 2.71484,0c1.064,0 1.73267,0 2.71066,0c0.65866,0 1.69633,0 2.82133,0c0.8,0 1.215,0 2.52,0c0.91866,0 1.86932,0 2.35416,0c0.98367,0 2.47917,0 2.97884,0c0.99133,0 1.479,0 2.42833,0c0.90134,0 2.12851,-0.00015 2.84418,-0.00449l0.8985,-0.03152l1.07466,-0.24933" id="svg_28" stroke-width="2" stroke="#000" fill="none"/>
  <path t="84780,84828,84844,84863,84863,84927,84959,84959,84968,84984,85000,85001,85001,85001,85001,85018,85019,85019,85019,85019,85019,85035,85035,85035,85035,85054,85054,85054,85068,85068,85068,85084,85084,85084,85100,85100,85117,85117,85117,85134,85134,85150,85151,85167,85167,85167" d="m161,288c-2.55333,1.02533 -3.05798,1.76132 -3.70534,2.29999c-0.67802,0.56421 -1.30638,1.22009 -1.29333,2.18268c0.01097,0.80936 0.51878,1.49649 1.43068,1.51733c1.06772,0.02438 1.62689,-0.00873 2.67216,0.02084c0.39995,0.01132 1.27242,0.0452 2.73849,0.2005c0.52611,0.05573 1.60796,0.20435 2.15733,0.27866c1.09457,0.14807 1.62978,0.23843 3.15666,0.37851c0.46942,0.04306 1.34976,0.095 2.15001,0.11081c1.35977,0.02686 2.1835,0.01068 2.90799,0.01068c0.95201,0 1.74251,0 2.59601,0c1.18933,0 2.08069,0.05774 2.88133,-0.03601c0.95569,-0.11191 1.48421,-0.74933 2.44533,-1.16266c0.55623,-0.23923 1.50394,-0.46976 2.59834,-0.67999c0.71962,-0.13824 1.58583,-0.34283 2.28516,-0.64218l0.97917,-0.47916l0.60899,-0.29999l0.90533,-0.40002" id="svg_29" stroke-width="2" stroke="#000" fill="none"/>
  <path t="85545,85656,85671,85693,85693,85719,85719,85719,85721,85736,85736,85736,85736,85736,85750,85750,85750,85750,85767,85767,85767,85784,85784,85784,85784,85800,85800,85800,85817,85817,85817,85817" d="m164,298c0.52083,2.45834 1.29865,2.97141 2.20399,3c0.66718,0.02106 1.85333,0 2.51468,0c0.74933,0 1.57066,0 2.90266,0c0.46266,0 1.40399,0 2.35333,0c0.94133,0 1.85866,0 2.73599,0c0.82133,0 1.57066,0 2.78934,0c0.83467,0 1.63734,0.00388 2.4855,-0.00015c1.12653,-0.00537 1.94995,-0.02374 2.36099,-0.05701c1.49336,-0.12082 2.12289,-0.23184 2.8575,-0.62552c1.02415,-0.54883 1.48001,-1.08533 2.02133,-1.56799l0.82201,-0.74399" id="svg_30" stroke-width="2" stroke="#000" fill="none"/>
  <path t="86382,86434,86516,86532,86552,86569,86586,86586,86600,86600,86617,86617,86617,86634,86634,86671,86686,86686,86719,86719" d="m163,279c-2.58934,0 -4.0834,-0.11572 -3.93834,0.64734c0.14194,0.74658 1.41527,0.96454 2.25967,1.23132c0.82562,0.26086 1.76152,0.48044 2.48849,0.76868c0.92593,0.3671 1.71083,0.34103 2.50751,0.35132c0.99593,0.01285 1.836,0.00134 2.79866,0.00134c1.05067,0 1.70934,0 2.71733,0l0.86217,0" id="svg_31" stroke-width="2" stroke="#000" fill="none"/>
 </g>
 <g display="none">
  <title>muse_image</title>
  <image xlink:href="http://farm4.static.flickr.com/3174/2364268860_d96235660d.jpg" id="muse" height="445" width="640" y="17.5" x="0"/>
 </g>
 <g display="none">
  <title>bbox</title>
  <rect stroke="#f00" fill="none" stroke-width="3" height="350.37356" width="392.96" y="60.97701" x="56.32" id="bbox"/>
 </g>
</svg>
