<svg width="640" height="480" xmlns="http://www.w3.org/2000/svg" xmlns:svg="http://www.w3.org/2000/svg" xmlns:xlink="http://www.w3.org/1999/xlink">
 <!-- Sketchy ANNOTATION
  ImageNet ID: n01527347_16730
  URL: http://farm3.static.flickr.com/2099/2194309424_8ee0ff42b8.jpg
  Image Width: 340
  Image Height: 500
  BBox X: 23
  BBox Y: 153
  BBox Width: 265
  BBox Height: 223
  Exposure: 2000ms
  Synset Label: songbird
  Synset ID: n01526521
  Worker Tag: chubby brown bird
  Sanity Check: 
   Saved
  Comment: 
   {}
  Worker ID: A1VGZ2K3HF66TE
  Assignment ID: 3WMINLGALB3L7QNMWETC95Q0QW9AC6
  HIT ID: 3E9ZFLPWOYSMTMJL9WCAFW4818NXIF
  Work Time: 63s
  Worker Score: 0.7143
 END ANNOTATION -->
 <g display="inline">
  <title>Layer 1</title>
  <path t="0,185,185,186,186,186,186,186,218,219,219,219,219,219,220,243,243,244,244,244,244,251,251,260,336,344,344,345,352,384,385,385,385,385,438,439,439,439,439,439,439,440,466,466,466,466,467,467,474,475,475,475,475,476,476,476,477,486,487,487,487,487,487,488,488,500,501,501,501,517,553" d="m346,157c10.11401,-2.41417 10.85849,-2.47269 11.57132,-2.47583c0.68475,-0.00302 1.34589,0.03113 1.98602,0.0825c1.23853,0.0994 2.4422,0.23323 3.043,0.27182c1.20789,0.07758 1.82092,0.08809 2.44131,0.10068c0.63028,0.01279 1.92902,0.02016 3.29169,0.02083c0.70831,0.00035 1.42667,0 2.14499,0c0.70834,0 2.05499,0 2.67334,0c0.56833,0 2.16565,0 3.077,0c0.90732,0 1.77136,-0.00514 2.36066,0c1.22415,0.01067 0.52402,0.44333 -0.03598,0.72333c-0.72,0.36 -1.60001,0.8 -2.10001,1.05c-1.12,0.56 -1.73926,0.86783 -3.05951,1.532c-0.68491,0.34456 -1.37363,0.69339 -2.05649,1.04401c-0.67014,0.34409 -1.32022,0.67482 -2.504,1.31734c-0.52878,0.287 -1.47025,0.8313 -2.35419,1.3125c-0.43973,0.23938 -1.37711,0.72058 -2.47916,1.1875c-0.62448,0.26457 -1.30716,0.52095 -2.02951,0.7905c-0.7536,0.2812 -1.53326,0.56287 -2.32648,0.8535c-0.7998,0.29305 -1.60156,0.57651 -3.14401,1.18933c-0.7377,0.29309 -1.44196,0.59422 -2.11499,0.89549c-0.64694,0.28958 -1.26529,0.5731 -2.40002,1.14734c-0.5275,0.26694 -1.92505,1.02605 -2.69098,1.4865c-0.6319,0.37987 -1.26334,0.81334 -0.858,0.752l0.39066,0.06134" id="svg_1" stroke-width="2" stroke="#000" fill="none"/>
  <path t="952,1216,1217,1217,1217,1218,1218,1218,1234,1234,1234,1234,1259,1292,1293,1293,1293,1293,1293,1306,1307,1307,1307,1307,1307,1309,1326,1326,1326,1341,1342,1342,1342,1368,1369,1369,1369,1391,1391,1392,1392,1392,1401,1401,1402,1402,1402,1402,1434,1434,1435,1435,1435,1435,1451,1451,1451,1470,1471,1471,1471,1471,1471,1483,1484,1484,1484,1484,1484,1519,1520,1520,1520,1520,1549,1550,1550,1550,1550,1551,1558,1558,1558,1559,1559,1559,1560,1560,1586,1586,1587,1587,1587,1588,1588,1588,1588,1595,1596,1596,1598,1598,1598,1628,1629,1629,1632,1632,1633,1648,1649,1649,1649,1650,1650,1650,1650,1657,1659,1659,1659,1660,1660,1660,1661,1661,1671,1672,1672,1672,1673,1673,1673,1674,1674,1718,1719,1719,1720,1720,1721,1721,1721,1722,1751,1752,1752,1753,1753,1754,1754,1755,1755,1765,1766,1766,1766,1767,1767,1767,1768,1768,1785,1786,1787,1787,1787,1788,1788,1789,1789,1818,1819,1820,1820,1821,1821,1821,1822,1822,1829,1830,1830,1839,1842,1843,1845,1851,1851,1858,1859,1859,1859,1860,1860,1860,1861,1861,1871,1872,1873,1873,1874,1874,1875,1875,1876" d="m352,160c-2.64267,-9.235 -2.95853,-9.94481 -3.30533,-10.61501c-0.33624,-0.64978 -0.68933,-1.26321 -1.04401,-1.845c-0.34024,-0.55812 -1.31708,-2.04016 -1.60718,-2.47466c-0.5152,-0.77164 -0.61313,-1.87054 -1.60349,-2.2065c-0.58984,-0.20009 -1.24039,-0.16283 -2.09201,-0.6535c-0.49564,-0.28557 -1.01282,-0.61494 -2.15732,-1.24268c-1.18082,-0.64764 -1.78613,-0.92816 -2.38535,-1.19066c-1.15543,-0.50616 -1.72092,-0.71236 -2.26132,-0.91467c-1.0007,-0.37463 -2.25732,-0.83786 -2.91983,-1.09566c-0.81647,-0.3177 -1.78693,-0.62863 -2.58585,-0.70451c-0.88226,-0.08379 -1.52499,-0.05649 -2.56,-0.05716c-1.125,-0.00072 -1.92499,0 -2.34,0c-1.30499,0 -2.22366,0 -3.17435,0c-0.48483,0 -1.46848,-0.00075 -2.96399,0c-0.5,0.00026 -1.50046,0.00378 -2,0.032c-1.00128,0.05655 -2.01373,0.17334 -3,0.468c-1.01138,0.30217 -1.49197,0.54269 -2.41666,1.02083c-0.44434,0.22975 -1.25409,0.69437 -2.19818,1.3365c-0.70377,0.47865 -1.34198,0.96652 -2.21851,1.476c-0.78116,0.45404 -1.72571,0.93793 -2.22916,1.20834c-0.51926,0.2789 -1.58084,0.84848 -2.60416,1.45833c-0.49365,0.29417 -1.41696,0.89496 -1.84,1.21066c-0.81378,0.6073 -1.55127,1.24663 -2.16,1.95601c-0.59439,0.69266 -1.0769,1.46048 -1.51202,2.24399c-0.43436,0.78215 -0.82135,1.58932 -1.224,2.39467c-0.41867,0.83733 -0.63901,1.27798 -1.11166,2.22334c-0.25632,0.51266 -0.81958,1.63771 -1.12833,2.25716c-0.32593,0.65387 -1.01086,2.04613 -1.35733,2.77667c-0.35226,0.74278 -0.7027,1.49483 -1.03201,2.25751c-0.65054,1.50656 -0.93094,2.25594 -1.19598,2.99199c-0.25916,0.71971 -0.49414,1.42917 -0.7095,2.1255c-0.20984,0.67842 -0.40118,1.34236 -0.57449,1.99049c-0.3306,1.23624 -0.60355,2.40012 -0.73535,2.95317c-0.2518,1.05655 -0.35425,1.56816 -0.63666,2.53084c-0.40411,1.3775 -0.59152,1.81331 -0.97333,2.69467c-0.1987,0.45868 -0.65997,1.41826 -0.91467,1.93332c-0.55798,1.12834 -1.19858,2.40141 -1.55133,3.08417c-0.36716,0.71065 -0.75458,1.44136 -1.17001,2.18251c-0.42447,0.75729 -0.85385,1.53023 -1.84,3.02666c-0.49649,0.7534 -1.02859,1.48296 -1.57648,2.196c-0.54425,0.70831 -1.10492,1.39256 -1.67551,2.052c-0.56055,0.64786 -1.11652,1.27649 -2.24802,2.41867c-0.53806,0.54314 -1.07977,1.04977 -1.61398,1.53751c-0.52454,0.47891 -1.05225,0.94217 -1.578,1.4025c-0.52692,0.46133 -1.06558,0.91901 -2.14133,1.89333c-0.55893,0.50623 -1.12457,1.03937 -1.70401,1.5945c-0.59927,0.57414 -1.21371,1.17529 -1.84799,1.80151c-0.65842,0.65007 -1.33908,1.32892 -2.78134,2.77066c-0.76437,0.76411 -1.55405,1.55397 -2.36249,2.367c-0.82492,0.82961 -1.65985,1.6732 -2.4975,2.52899c-0.84067,0.85887 -1.68167,1.71477 -3.30669,3.43733c-0.79494,0.84267 -1.57225,1.68703 -2.33249,2.5455c-0.76649,0.86552 -1.52925,1.76082 -2.28751,2.6985c-0.78372,0.96918 -1.59151,1.98605 -3.21333,4.256c-0.87805,1.22894 -1.7608,2.5448 -2.67149,3.91951c-0.9415,1.4212 -1.89265,2.89192 -2.8605,4.3965c-0.98318,1.52841 -1.967,3.07921 -3.968,6.18399c-0.99667,1.54645 -1.99568,3.07716 -2.97749,4.60051c-0.9715,1.50734 -1.92567,2.9991 -2.84251,4.48349c-0.9014,1.4594 -1.79671,2.88676 -3.34666,5.74934c-0.74657,1.3788 -1.41728,2.75383 -2.0385,4.11c-0.60652,1.3241 -1.15953,2.63577 -1.66949,3.92999c-0.49883,1.26596 -0.96742,2.51337 -1.79201,4.95999c-0.40079,1.18921 -0.77196,2.37827 -1.146,3.573c-0.38066,1.21591 -0.76729,2.46976 -1.18199,3.77103c-0.43581,1.36746 -0.8941,2.81778 -2.00534,5.98932c-0.61662,1.75986 -1.30087,3.60782 -2.01601,5.5275c-0.73279,1.96704 -1.48399,3.95166 -2.23199,5.9325l-0.73599,1.95084l-0.71201,1.89584" id="svg_2" stroke-width="2" stroke="#000" fill="none"/>
  <path t="2272,2532,2533,2533,2533,2533,2533,2533,2533,2533,2550,2550,2550,2550,2550,2550,2550,2551,2551,2566,2567,2567,2567,2567,2567,2567,2567,2567,2602,2603,2603,2603,2603,2603,2604,2604,2604,2619,2620,2620,2620,2620,2621,2621,2621,2622,2640,2641,2642,2642,2643,2643,2643,2643,2643,2669,2669,2669,2669,2670,2670,2670,2670,2670,2684,2684,2685,2685,2685,2685,2685,2686,2686,2702,2703,2703,2703,2703,2704,2705,2705,2705,2720,2720,2720,2721,2721,2721,2722,2722,2722,2777,2777,2778,2778,2778,2778,2779,2779,2788,2817,2818,2818,2819,2819,2819,2820,2820,2820,2837,2838,2839,2839,2839,2840,2840,2840,2841,2852,2853,2853,2854,2854,2855,2855,2855,2856,2861,2862,2862,2864,2864,2864,2865,2866,2866,2871,2872,2872,2873,2873,2873,2874,2874,2874,2883,2883,2884,2884,2884,2885,2885,2886,2886,2919,2919,2920,2920,2920,2921,2921,2921,2922,2952,2952,2953,2954,2954,2956,2956,2957,2957,2965,2966,2966,2967,2967,2968,2968,2969,2969,2981,2982,2982,2983,2983,2983,2984,3000,3001,3002,3002,3002,3003,3019,3020,3021,3021,3022,3022,3023,3053,3054,3054,3055,3082,3088,3089,3089,3099,3183,3200,3201,3201,3202,3202,3203,3217,3218,3219,3220,3220,3253,3254,3255,3255,3256,3256,3268,3268,3271,3271,3272,3272,3272,3273,3273,3295,3296,3306,3307,3308,3309,3310,3310,3311,3347,3348,3349,3350,3351,3353,3354,3360,3361,3362,3363,3363" d="m353,170c3.83334,10.83333 4.18372,11.87645 4.50934,12.91333c0.32132,1.02319 0.62256,2.03719 0.88651,3.045c0.25989,0.99234 0.49551,1.97554 0.6615,2.955c0.3241,1.91246 0.37173,2.86456 0.40265,3.80133c0.03061,0.92781 0.01428,1.84961 -0.02249,2.76451c-0.03659,0.91049 -0.09949,1.81625 -0.1575,2.7195c-0.11566,1.80118 -0.16245,2.70085 -0.19467,3.59866c-0.03207,0.89352 -0.05176,1.7813 -0.06448,2.661c-0.01257,0.86964 -0.01758,1.72734 -0.0195,2.571c-0.00372,1.63734 -0.00134,2.42883 -0.00134,3.20934c0,0.7785 0,1.56401 0,2.36551c0,0.82649 0,1.687 0,2.5905c0,1.972 0,3.05466 0,4.19333c0,1.18066 0,2.38933 0,3.612c0,1.22267 0,2.43134 0,3.612c0,2.22133 0.00189,3.23735 -0.00266,4.18933c-0.00427,0.89401 -0.01288,1.73618 -0.039,2.532c-0.02481,0.75621 -0.05847,1.47931 -0.129,2.17201c-0.1355,1.33104 -0.26315,1.97583 -0.40268,2.61465c-0.14044,0.64301 -0.31302,1.28874 -0.51001,1.9425c-0.20282,0.67305 -0.43445,1.36363 -0.69,2.0775c-0.5481,1.53099 -0.8685,2.34502 -1.19199,3.192c-0.33051,0.86536 -0.66592,1.7366 -0.99301,2.6055c-0.32089,0.85245 -0.63065,1.67731 -0.90298,2.4705c-0.48758,1.42007 -0.66068,2.04002 -0.80002,2.59866c-0.12595,0.50499 -0.21918,0.97275 -0.297,1.41c-0.07404,0.41612 -0.13266,0.82428 -0.207,1.23c-0.15677,0.85547 -0.27213,1.31903 -0.40665,1.80667c-0.1409,0.51083 -0.30481,1.03534 -0.49051,1.5675c-0.18887,0.54126 -0.39297,1.08289 -0.62549,1.61249c-0.45779,1.04272 -0.72601,1.52887 -1.00269,2c-0.2764,0.47067 -0.58109,0.93161 -0.91348,1.38751c-0.34348,0.47104 -0.7222,0.94742 -1.13852,1.4325c-0.90927,1.05945 -1.43939,1.61493 -2.00131,2.19998c-0.58923,0.61349 -1.21558,1.23941 -1.88101,1.86752c-0.68378,0.64545 -1.39594,1.2919 -2.151,1.91248c-1.53473,1.26135 -2.36099,1.83105 -3.18799,2.39468c-0.82275,0.56073 -1.65341,1.09131 -2.47351,1.6095c-0.80261,0.50711 -1.5903,0.98911 -2.3385,1.47449c-1.39948,0.9079 -2.02005,1.36377 -2.60934,1.80267c-0.57132,0.42551 -1.1261,0.85562 -1.698,1.2645c-0.58276,0.41663 -1.19647,0.83728 -1.87799,1.21951c-1.51309,0.84863 -2.42636,1.21207 -3.396,1.59866c-1.0166,0.40533 -2.0795,0.78656 -3.16351,1.16101c-1.08536,0.37491 -2.16238,0.72711 -3.2085,1.07098c-1.93747,0.6369 -2.80011,0.92456 -3.59067,1.20132c-0.73273,0.2565 -1.4144,0.50516 -2.05499,0.7485c-0.6127,0.23276 -1.20428,0.46671 -1.785,0.70352c-1.17526,0.47928 -1.78247,0.73892 -2.40799,1c-0.63715,0.26593 -1.28183,0.53412 -1.93201,0.79648c-0.64847,0.26166 -1.29214,0.51782 -1.93201,0.7515c-1.22992,0.44916 -1.82431,0.63116 -2.40265,0.80136c-0.56772,0.16708 -1.13571,0.31854 -1.707,0.46799c-0.58069,0.15192 -1.17896,0.30176 -1.797,0.46799c-1.33008,0.35773 -2.04688,0.57419 -2.79868,0.79733c-0.77786,0.23087 -1.57321,0.4693 -2.38351,0.69302c-0.81238,0.2243 -1.62155,0.44135 -2.4285,0.603c-1.54367,0.3092 -2.28537,0.36752 -2.99466,0.39865c-0.68402,0.03003 -1.34839,0.01468 -1.9935,-0.02249c-0.63098,-0.03635 -1.2489,-0.09921 -1.85849,-0.1575c-1.20386,-0.11511 -2.40253,-0.19812 -2.99951,-0.22284c-0.59372,-0.02457 -1.76849,-0.04797 -2.34732,-0.05267c-0.57184,-0.00464 -2.23602,-0.00449 -2.77451,-0.00449c-1.06799,0 -1.60352,0 -2.6925,0c-0.55951,0 -2.3327,0.00244 -2.95685,-0.004c-0.63419,-0.00653 -1.27518,-0.00143 -2.54666,-0.104c-0.62534,-0.05045 -1.26071,-0.04788 -2.92114,-0.55582c-0.51178,-0.15656 -1.42065,-0.55811 -2.11752,-1.02417c-0.8858,-0.59241 -1.15466,-0.96536 -1.88965,-1.33286c-0.55667,-0.27835 -1.60248,-0.89328 -2.35852,-0.97916c-1.14246,-0.12976 -1.59317,0 -2.61983,0c-0.56332,0 -1.73999,0 -2.33333,0c-1.14667,0 -2.1925,-0.01489 -3.14934,0.02133c-0.90211,0.03415 -1.35182,0.03543 -2.664,0.31201c-0.93347,0.19678 -1.40973,0.37711 -2.4375,0.70831c-0.55116,0.17761 -1.12167,0.39188 -3.0625,0.95834c-0.7164,0.20911 -1.47134,0.40259 -2.25299,0.60001c-0.80234,0.20264 -1.6219,0.40045 -2.451,0.60001c-0.8329,0.20044 -1.66545,0.39413 -3.29601,0.79999c-0.79088,0.19684 -1.56113,0.39813 -2.3145,0.591c-0.73596,0.18842 -1.45534,0.37149 -2.1615,0.53699c-0.69022,0.16174 -1.36499,0.32684 -2.69066,0.53867c-0.64297,0.10275 -1.90015,0.22464 -2.50934,0.26135c-0.59453,0.03583 -1.73846,0.06567 -2.28534,0.06934c-1.52963,0.01019 -2.00667,0.00266 -2.94266,0.00266l-0.952,0l-0.49701,0" id="svg_3" stroke-width="2" stroke="#000" fill="none"/>
  <path t="3798,4235,4235,4235,4235,4235,4236,4236,4259,4259,4260,4260,4260,4260,4260,4285,4286,4286,4286,4286,4292,4318,4334,4335,4335,4350,4402,4408,4408,4408,4408,4416,4417,4417,4417,4417,4435,4435,4436,4436,4436,4436,4436,4436,4436,4469,4469,4469,4470,4470,4470,4470,4470,4475,4519,4519,4519,4520,4520,4521,4521,4521,4521,4531,4532,4532,4532,4532,4532,4533,4533,4533,4551,4551,4551,4552,4552,4552,4552,4552,4552,4569,4569,4569,4569,4583,4600,4601,4601,4601,4601,4602,4602,4638,4638,4638,4638,4639,4639,4639,4639,4639,4652,4653,4653,4653,4654,4654,4654,4654,4654,4667,4668,4668,4668,4668,4669,4669,4669,4669,4684,4684,4684,4685,4685,4685,4685,4686,4687,4718,4718,4719,4719,4720,4765,4765,4783,4784,4784,4784,4785,4785,4785,4786,4786,4801,4803,4803,4803,4804,4804,4804,4805,4805,4831,4832,4832,4833,4833,4834,4834,4835,4835,4855,4856,4856,4857,4857,4857,4858,4873,4900,4901,4918,4919,4919,4920,4920,4921,4921,4922,4935,4937,4937,4938,4939,4939,4939,4940,4940,4970,4971,4971,4972,4972,4973,4973,4973,4974,4983,4984,4984,4985,4985,4985,4986,4987,4987,5018,5018,5019,5019,5020,5027,5053,5054,5054,5082,5083,5084,5084,5084,5085,5085,5085,5092,5092,5093,5093,5094,5094,5095,5095,5095,5104,5105,5105,5106,5106,5108,5108,5109,5109" d="m287,298c0,10.83334 0,12.40533 0,13.10883c0,0.66052 0,1.28702 0,2.474c0,0.57852 0,1.75052 0,2.98517c0,0.63733 0,1.28268 0,1.93201c0,1.29468 0,1.93201 0,3.16666c0,1.15335 0,1.6875 0,2.64584c0,0.77832 0.60101,0.98233 0,0.98233c-0.81168,0 0,1.82117 0,2.54251c0,1.16266 0.104,1.1731 1.10718,1.16266c0.66962,-0.00696 1.45532,0 2.30099,0c1.25848,0 2.02917,0 2.78381,0c0.80267,0 1.71735,0 2.80801,0c0.62866,0 1.30933,0 2.034,0c0.76068,0 1.54935,0 2.358,0c0.82068,0 1.64532,0.00034 3.27466,0c0.79169,-0.00018 1.57336,0.00024 2.35501,-0.009c0.79169,-0.00937 1.60352,-0.02762 2.44501,-0.06299c0.8819,-0.03705 1.81476,-0.08151 3.86667,-0.26135c1.13889,-0.09982 2.34418,-0.23309 3.60599,-0.37198c1.30618,-0.14377 2.64374,-0.29706 4.00201,-0.444c1.36575,-0.14774 2.72607,-0.30582 5.392,-0.51733c1.27832,-0.10144 2.51306,-0.16864 3.69748,-0.21902c1.12897,-0.048 2.19827,-0.0762 3.20251,-0.09299c0.93411,-0.01563 1.79333,-0.01999 3.26666,-0.02133c0.60599,-0.00055 1.12799,0 1.57199,0c0.37201,0 0.67801,0 0.92401,0c0.19199,0 0.336,0 0.504,0c0.03568,0 0.04532,0 0.00266,0c-0.74399,0 -1.66931,0 -2.50131,0c-1.064,0 -1.668,0 -2.31201,0c-0.67801,0 -1.384,-0.00015 -2.85599,0c-0.75616,0.00009 -1.52936,-0.00006 -2.32651,0.00449c-0.82816,0.00473 -1.69437,0.01395 -2.6055,0.03152c-0.96323,0.01859 -1.98572,0.04013 -4.23468,0.13065c-1.23703,0.04977 -2.53482,0.11588 -3.87448,0.19052c-1.36301,0.07596 -2.72989,0.16046 -4.08151,0.25348c-1.31805,0.0907 -2.58405,0.17526 -4.87732,0.38934c-0.9975,0.09311 -1.89508,0.19528 -2.7045,0.2955c-0.73325,0.09079 -1.39969,0.18362 -2.01151,0.26849c-0.56784,0.0788 -1.1012,0.164 -2.11734,0.26935c-0.49902,0.05173 -0.99716,0.08469 -1.491,0.1095c-0.48752,0.02448 -0.96732,0.03821 -1.43701,0.04648c-0.45764,0.00806 -0.90134,0.01001 -1.73865,0.01068c-0.38968,0.00031 -0.75735,0 -1.41867,0c-0.77701,0 -0.98303,-0.00372 -0.23318,0.11432c1.32031,0.20782 1.97565,0.32788 2.7345,0.45636c0.84317,0.14276 1.75241,0.2991 2.70901,0.47098c0.98743,0.1774 1.98737,0.36041 2.979,0.561c1.89871,0.38409 2.76886,0.59253 3.58932,0.79733c0.78284,0.1954 1.53369,0.39871 2.26501,0.60001c0.72202,0.19873 1.44217,0.40427 2.17499,0.60001c1.53098,0.40894 2.35074,0.6037 3.20001,0.79733c0.8674,0.19778 1.74585,0.38519 2.625,0.561c0.86755,0.17349 1.71542,0.3345 2.535,0.47098c1.50452,0.25052 2.17612,0.33255 2.78665,0.40002c0.54953,0.06073 1.03979,0.10202 1.47,0.129c0.36981,0.02319 1.16199,-0.04865 0.23666,0.04431c-0.56653,0.05692 -1.65305,0.33206 -2.20151,0.44c-1.35165,0.26602 -2.13385,0.41171 -2.97266,0.55734c-0.88251,0.1532 -1.79883,0.30527 -2.74051,0.43201c-1.90259,0.25607 -2.84961,0.33258 -3.784,0.39734c-0.92133,0.06384 -1.83051,0.10349 -2.72549,0.129c-0.8797,0.02509 -1.74365,0.03516 -2.59052,0.039c-1.63864,0.00748 -2.42932,0.00266 -3.20398,0.00266c-0.76266,0 -1.51733,0 -2.26801,0c-0.75067,0 -1.50534,0 -2.26801,0c-1.56534,0 -2.37399,0 -3.19467,0c-0.82465,0 -1.64532,0 -2.45398,0c-0.78867,0 -1.54935,0 -2.27402,0c-1.30933,0 -1.87949,0 -2.39066,0c-0.45316,0 -2.11151,-0.922 -2.11151,0c0,0.8595 1.5675,-0.00012 2.12885,0c1.50015,0.00034 2.20007,0.00037 2.98383,0.01801c0.85498,0.01923 1.7684,0.05478 2.72549,0.12601c0.99072,0.07373 2.009,0.13867 4.02133,0.52264c0.99564,0.18997 1.96109,0.45819 2.901,0.7485c0.92151,0.28464 1.80899,0.60126 2.66702,0.91949c0.82925,0.30759 1.61493,0.63211 3.09866,1.16534c0.67752,0.2435 1.32111,0.44922 1.92899,0.62851c0.57089,0.1684 1.11267,0.30899 1.62302,0.43948l0.48233,0.1185l0.45633,0.1095" id="svg_4" stroke-width="2" stroke="#000" fill="none"/>
  <path t="5350,5534,5534,5534,5534,5534,5535,5535,5535,5550,5550,5550,5550,5550,5550,5550,5550,5566,5567,5567,5567,5567,5568,5603,5603,5603,5604,5618,5671,5679,5680,5681,5681,5681,5681,5682,5682,5702,5702,5702,5703,5703,5703,5703,5703,5703,5718,5719,5720,5720,5720,5721,5721,5721,5721,5742,5742,5742,5743,5743,5743,5743,5743,5743,5750,5751,5751,5751,5751,5751,5752,5752,5752,5785,5785,5800,5801,5817,5818,5818,5818,5818,5819,5819,5819,5834,5835,5835,5835,5836,5836,5836,5837,5837,5871,5872,5872,5872,5873,5873,5873,5874,5887,5888,5888,5888,5889,5889,5889,5890,5914,5915,5915,5915,5916,5921,5951,5952,5952,5953,5953,5969,5970,5971,5971,5971,5972,5973,5973,5973,5983,5983,5984,5984,5985,5985,5985,5986,5986,6001,6001,6002,6002,6002,6002,6003,6003,6003,6037,6038,6039,6039,6040,6040,6040,6040,6041,6050,6050,6051,6051,6052,6053,6054,6055,6055,6069,6070,6102,6103,6103,6117,6118,6119,6120,6120,6121,6121,6122,6122,6134,6135,6136,6136,6137,6137,6138,6139,6139,6165,6166,6167,6167,6168,6168,6168,6169,6169,6183,6184,6185,6185,6185,6186,6187,6187,6188,6201,6202,6203,6204,6204,6205,6206,6224,6238,6287,6288,6289,6290,6290,6291,6292,6293,6299,6300,6300,6301,6301,6302,6302,6303,6303,6312,6313,6314,6315,6315,6316,6316,6317,6317" d="m309,286c0,11.83334 0,12.74985 0,13.60535c0,0.8035 0,1.564 0,2.99197c0,0.68552 0,1.36401 0,2.73602c0,0.70917 0,1.43332 0,2.16748c0,0.73917 0,2.21252 0,2.93668c0,0.70917 -0.00323,2.0625 0.00049,2.69766c0.00696,1.18439 0.00153,1.73816 0.10751,2.76083c0.04953,0.47781 0.34488,1.79431 0.74268,2.52802c0.37204,0.68619 0.8833,2.17505 1.48849,1.91516c0.2789,-0.11978 1.1608,-0.17212 1.65417,-0.11783c0.57327,0.06311 1.9198,0.20584 2.67331,0.27866c0.79315,0.07663 1.61624,0.15265 2.46002,0.216c1.7059,0.12808 2.55228,0.16815 3.39331,0.19598c0.84067,0.02783 1.68674,0.03799 2.54251,0.02551c0.87097,-0.01273 1.76242,-0.04465 2.67749,-0.1095c1.92856,-0.13672 2.94614,-0.26379 3.99469,-0.39999c1.07248,-0.13931 2.15729,-0.30295 3.24448,-0.49051c1.08484,-0.18713 2.15616,-0.38934 3.19952,-0.62549c1.99435,-0.45139 2.91629,-0.72415 3.79199,-0.996c0.83728,-0.25992 1.63013,-0.53549 2.38348,-0.81601c0.72263,-0.26907 1.40997,-0.54495 2.06851,-0.81601c1.24585,-0.51282 1.83286,-0.76273 2.39734,-0.99466c0.53387,-0.21936 1.03296,-0.42224 1.49249,-0.60599c0.41382,-0.1655 0.77725,-0.31015 1.08749,-0.42599c0.43192,-0.16129 0.43445,0.03055 -0.43466,0.32797c-0.79144,0.27084 -1.63214,0.34729 -2.81601,0.58536c-0.71207,0.14319 -1.48816,0.30048 -2.31598,0.47098c-0.86819,0.1788 -1.76453,0.36496 -2.67603,0.561c-1.82501,0.39255 -2.71439,0.59488 -3.58264,0.79733c-0.84741,0.1976 -1.67145,0.39697 -2.47052,0.60001c-0.77557,0.19708 -1.52527,0.39423 -2.24548,0.60001c-1.36182,0.3891 -1.99524,0.59805 -2.60666,0.79868c-0.5946,0.1951 -1.17529,0.39291 -1.75201,0.58047c-0.57526,0.1871 -1.74664,0.55737 -3,0.85419c-0.66119,0.15656 -1.3497,0.28558 -2.0535,0.405c-0.71088,0.12064 -1.42416,0.23206 -2.83133,0.39999c-0.67715,0.08081 -1.94818,0.19949 -2.52817,0.24017c-1.03082,0.0723 -2.77676,-0.77106 -2.76968,0.12015c0.00177,0.224 1.32669,0.00134 2.02402,0.00134c0.82532,0 1.29599,0 2.37332,0c1.28534,0 2.01468,0 2.80002,0c0.83731,0 1.72266,0 2.65198,0c0.96933,0 1.97467,0 3.01202,0c2.15466,0 3.26382,0 4.388,0c1.13416,0 2.27332,0 3.41248,0c1.13419,0 2.25833,0 3.36752,0c2.15332,0 3.18814,0 4.19199,0c0.97183,0 1.91068,0 2.81549,0c0.86984,0 1.70367,0 2.50052,0c1.47867,0 2.15967,0 2.80667,0c0.61899,0 1.21597,0 1.797,0c0.57098,0 1.138,0 1.707,0c1.168,0 1.77615,0 2.39331,0c0.61517,0 1.21735,0 1.7955,0c0.54318,0 1.04034,0 1.4805,0c0.66534,0 0.99872,-0.03711 0.20767,0.009c-0.59927,0.03494 -1.405,0.16159 -2.70898,0.32434c-0.87567,0.10928 -1.88522,0.2356 -3.00302,0.37198c-1.19952,0.14636 -2.45508,0.29684 -3.741,0.444c-1.28943,0.14755 -2.55582,0.29837 -4.92267,0.51733c-1.05173,0.09729 -2.01831,0.16821 -2.91299,0.21902c-0.83606,0.04749 -1.62857,0.07654 -2.39099,0.09299c-0.74628,0.01611 -1.49066,0.01999 -3.02933,0.02133c-0.81851,0.0007 -1.668,0 -2.53952,0c-0.88449,0 -1.77298,0 -2.65649,0c-0.86951,0 -1.716,0 -3.30399,0c-0.72568,0 -1.40533,0 -2.043,0c-0.59967,0 -1.16534,0 -1.70102,0c-0.50964,0 -0.99731,0 -1.92267,0c-0.44449,0 -0.87598,0 -1.2915,0c-0.39648,0 -0.771,0 -1.44199,0c-1.2045,0 -0.91867,-0.00122 0.06683,0c1.07599,0.00134 1.74155,0.00598 2.48801,0.02133c0.82455,0.01697 1.72424,0.04553 2.6955,0.09299c1.04077,0.05084 3.31702,0.21323 4.54382,0.32834c1.27191,0.11932 2.57092,0.26047 3.88202,0.40802c1.30756,0.14716 2.59454,0.29968 3.84598,0.444c1.19922,0.13831 3.37766,0.37604 4.32968,0.46265c0.86133,0.07834 1.64337,0.13702 2.35501,0.19202c0.65167,0.05035 1.25333,0.10132 1.81497,0.15601l0.53168,0.06265" id="svg_5" stroke-width="2" stroke="#000" fill="none"/>
  <path t="7004,7735,7754,7818,7819,7819,7819,7836,7893,7921,7921,7921,7921,7938,7939,7939,7952,7985,8019,8020,8020,8027,8034,8068,8068,8068,8069,8085,8101,8138,8138,8139,8139,8139,8152,8168,8169,8183,8184,8184,8184,8184,8200,8243,8250,8250,8250,8268,8416,8433,8434,8434,8434,8434" d="m314,152c8.72299,2.82851 8.04166,3 7.16666,3c-0.92548,0 -1.64581,0 -2.34616,0c-1.1925,0 -0.39383,0 0.60217,0c0.72534,0 1.52267,0 2.328,0c1.08484,0 1.94131,0 2.84534,0c0.99048,0 1.94531,0 1.07065,0c-0.672,0 -1.66132,-0.00041 -2.69467,0c-0.85098,0.00034 -1.47198,0.66666 -2.03,1.41066c-0.44199,0.58932 -0.99554,1.10469 -1.57748,2.10335c-0.30133,0.51712 0.63486,0.98729 1.33817,1.33665c0.83789,0.41621 1.26898,0.64461 2.12418,1.03416c1.21259,0.55235 1.20947,0.12947 1.43048,-0.48082c0.35275,-0.97417 0.79657,-1.86351 1.008,-2.36c0.42346,-0.99434 2.38974,-2.11522 1.14883,-2.75084c-0.56229,-0.28802 -1.08081,0.70683 -1.82483,0.70683c-0.888,0 -1.92267,0 -2.80533,0c-1.11282,0 -1.49466,0 -2.38934,0l-1.02264,0l-0.54184,0" id="svg_6" stroke-width="2" stroke="#000" fill="none"/>
 </g>
 <g display="none">
  <title>muse_image</title>
  <image xlink:href="http://farm3.static.flickr.com/2099/2194309424_8ee0ff42b8.jpg" id="muse" height="480" width="326" y="0" x="157"/>
 </g>
 <g display="none">
  <title>bbox</title>
  <rect stroke="#f00" fill="none" stroke-width="3" height="214.08" width="254.08824" y="146.88" x="179.05294" id="bbox"/>
 </g>
</svg>
