<svg width="640" height="480" xmlns="http://www.w3.org/2000/svg" xmlns:svg="http://www.w3.org/2000/svg" xmlns:xlink="http://www.w3.org/1999/xlink">
 <!-- Sketchy ANNOTATION
  ImageNet ID: n01530575_6331
  URL: http://farm4.static.flickr.com/3174/2364268860_d96235660d.jpg
  Image Width: 500
  Image Height: 348
  BBox X: 44
  BBox Y: 34
  BBox Width: 307
  BBox Height: 274
  Exposure: 2000ms
  Synset Label: songbird
  Synset ID: n01526521
  Worker Tag: fat brown bird
  Sanity Check: 
   Saved
  Comment: 
   {}
  Worker ID: A1VGZ2K3HF66TE
  Assignment ID: 3NAPMVF0ZWFQQ6XMSISMN1FODQ7271
  HIT ID: 329E6HTMSW21JJ2VPAQYLWUHMHBK3D
  Work Time: 976s
  Worker Score: 0.7143
 END ANNOTATION -->
 <g display="inline">
  <title>Layer 1</title>
  <path t="0,202,203,203,203,203,236,237,237,237,253,265,271,272,272,278,279,279,279,279,279,279,280,296,296,296,297,297,300,300,308,308,308,309,309,336,336,336,337,337,337,359,359,359,359,360,360,360,360,376,376,377,377,377,377,386,387,387,387,387,420,421,421,422,445,445,451,452,452,452,459,460,460,460,461,461,468,469,469,469,470,503,514,515,515,515,516,516,535,535,536,536,536,536,537,537,544,545,545,545,546,546,546,553,553,554,554,554,585,600,601,601,602,602,621,621,622,622,622,622,623,623,633,634,634,635,635,635,635,636,636,643,643,644,648,648,662,663,687,688,688,689,689,689,695,695,696,696,696,697,697,697,705,706,706,707,707,718,720,720,721,751,770,771,771,773,773,774,785,786,787,787,821,835,836,837" d="m368,141c-1.97867,-12.08484 -2.10519,-12.74789 -2.24734,-13.32383c-0.23486,-0.95157 -0.43707,-1.71275 -1.07397,-2.75517c-0.45694,-0.74788 -0.88727,-1.19892 -1.19467,-1.77567c-0.52271,-0.98067 -0.73853,-1.82791 -1.04651,-2.7495c-0.16742,-0.50098 -0.54541,-1.58565 -1.10416,-2.72917c-0.30188,-0.61782 -0.66519,-1.23747 -1.05301,-1.8675c-0.39609,-0.64347 -0.8183,-1.28085 -1.25101,-1.9125c-0.42932,-0.62669 -1.69611,-2.38657 -2.086,-2.92216c-0.37012,-0.50842 -0.7294,-0.98646 -1.35999,-1.902c-0.29443,-0.42748 -0.85806,-1.23452 -1.44086,-2.4625c-0.37299,-0.78587 -0.64676,-1.60728 -1.00497,-2.4c-0.1825,-0.40388 -0.88373,-1.61462 -1.51352,-2.409c-0.33307,-0.42011 -0.7037,-0.83596 -1.49466,-1.70533c-0.41675,-0.45808 -1.29745,-1.41769 -1.75067,-1.92817c-0.46417,-0.52283 -1.40274,-1.5986 -1.87866,-2.13667c-0.47345,-0.53526 -0.94171,-1.06356 -1.41599,-1.5675c-0.90674,-0.96345 -1.79306,-1.80214 -2.22235,-2.18183c-0.81198,-0.71818 -1.21909,-1.03458 -1.97501,-1.6675c-1.07098,-0.89674 -1.39862,-1.2044 -2.05066,-1.78266c-0.62274,-0.55227 -1.18887,-1.12414 -2.44,-1.85333c-0.60791,-0.3543 -1.306,-0.61395 -2.052,-0.936c-1.31192,-0.56638 -1.7984,-0.80061 -2.311,-1.03733c-1.07404,-0.49597 -1.62518,-0.75288 -2.18933,-0.98933c-1.6662,-0.69838 -2.21594,-0.8826 -3.28198,-1.1865c-0.5123,-0.14604 -1.51312,-0.37213 -2,-0.45267c-1.39032,-0.22998 -2.27985,-0.29055 -3.15768,-0.33016c-0.44547,-0.0201 -1.371,-0.03375 -2.90399,-0.036c-0.56433,-0.00083 -1.15466,0 -2.39734,0c-0.64432,0 -1.29868,0 -1.95898,0c-1.97702,0 -2.62234,0 -3.25967,0c-0.63135,0 -1.884,0 -2.50934,0c-0.62732,0 -1.25867,0 -3.19568,0c-0.66031,0 -1.32266,0 -1.98297,0c-0.65436,0 -1.92902,0 -2.54135,0c-1.69034,0 -2.19998,0 -3.15732,0c-0.90134,0 -1.341,-0.00383 -2.664,0c-0.92136,0.00267 -1.89203,0.02844 -2.39584,0.08334c-1.06,0.1155 -1.62195,0.21648 -2.77084,0.58333c-0.61731,0.19711 -1.88785,0.75251 -2.54932,1.06667c-0.68231,0.32404 -1.37436,0.67393 -2.0835,1.0275c-0.72153,0.35976 -2.19839,1.07716 -2.95468,1.41766c-0.75708,0.34084 -1.51804,0.66509 -2.27249,0.9855c-0.74387,0.3159 -1.47479,0.62194 -2.1825,0.9315c-0.68561,0.2999 -1.96121,0.89745 -2.53833,1.20434c-0.54944,0.29216 -1.55353,0.88787 -2.02335,1.17933c-0.90363,0.56055 -1.32745,0.86252 -2.68417,1.60001c-0.46008,0.25009 -1.42841,0.72101 -1.91998,0.98333c-1.02731,0.5482 -1.56519,0.8484 -2.625,1.60416c-0.56552,0.40327 -1.11938,0.86244 -1.677,1.3395c-1.1243,0.96188 -1.65717,1.45857 -2.18933,1.926c-0.51059,0.44849 -1.44879,1.26048 -2.311,1.84517c-0.73322,0.49722 -1.44623,0.84401 -2.052,1.272c-0.94058,0.66454 -1.50024,1.28745 -2.02068,1.909c-0.46774,0.55864 -1.09503,1.65498 -1.5905,2.49183c-0.44696,0.75492 -0.75221,1.18004 -1.05533,1.654c-0.6472,1.01202 -0.98424,1.52798 -1.60417,2.5625c-0.56857,0.9488 -1.03578,1.79391 -1.40399,2.496c-0.43704,0.83334 -0.58267,1.144 -0.95016,1.879l-0.41251,0.825" id="svg_1" stroke-width="2" stroke="#000" fill="none"/>
  <path t="2331,2584,2584,2585,2585,2585,2585,2585,2619,2619,2619,2619,2619,2619,2639,2639,2640,2640,2640,2652,2652,2652,2670,2671,2671,2671,2671,2671,2671,2672,2672,2678,2678,2679,2679,2680,2680,2680,2703,2703,2704,2704,2724,2725,2737,2737,2737,2835,2869,2870,2870,2871,2871,2893,2893,2893,2894,2894,2894,2894,2894,2895,2902,2903,2903,2903,2904,2904,2904,2905,2905,2935,2936,2936,2936,2937,2937,2937,2937,2938,2957,2958,2958,2958,2959,2959,2959,2960,2960,2972,2973,2973,2973,2974,2974,2974,2975,2975,3001,3002,3002,3003,3003,3003,3018,3019,3020,3020,3038,3039,3039,3069,3143" d="m242,119c-8.35667,4.8355 -9.02435,5.14935 -9.67667,5.4285c-0.62782,0.26867 -1.2388,0.51212 -2.39999,0.958c-0.54944,0.21098 -1.59361,0.60495 -2.55667,1.01484c-0.46762,0.19903 -1.38776,0.61893 -2.32916,1.05583c-0.49098,0.22787 -1.53476,0.71568 -2.69484,1.22684c-0.61722,0.27196 -1.25992,0.54477 -1.92599,0.81599c-0.68324,0.27821 -1.38457,0.55487 -2.106,0.81599c-1.47185,0.53276 -2.23055,0.76672 -2.99333,0.99867c-0.76424,0.23239 -1.53152,0.45102 -2.29651,0.66451c-0.75903,0.21182 -1.51149,0.41457 -2.2515,0.61949c-1.43695,0.39793 -2.79645,0.79857 -3.446,0.99684c-0.63043,0.19244 -1.23982,0.38425 -2.39999,0.74733c-0.54991,0.1721 -2.07904,0.63766 -2.54733,0.77049c-0.86023,0.24399 -1.60194,0.47682 -2.70934,0.72c-0.87143,0.19136 -1.80135,0.16667 -2.64584,0.16667c-0.7995,0 -1.00282,0 -0.13383,0c0.56868,0 1.32133,0 2.274,0c0.55634,0 1.839,0 2.56784,0c0.78183,0 1.60966,0 2.4765,0c0.89883,0 1.82266,0 2.7645,0c0.95284,0 2.86349,0 3.80833,0c0.93384,0 1.85567,0 2.7645,0c0.89484,0 1.77467,0 2.6385,0c0.84683,0 2.4855,0 3.27682,0c0.77934,0 1.55467,0 2.33401,0c0.79132,0 1.60266,0 2.44199,0c0.87534,0 2.76601,0 3.79333,0c1.07133,0 2.17067,0 3.282,0c1.10735,0 2.19467,0 3.246,0c0.99934,0 2.778,0 3.53,0c0.664,0 1.252,0 1.776,0c0.472,0 0.90401,0 1.308,0c0.388,0 1.164,0 1.57333,0c0.42534,0 0.86267,0 1.75734,0c0.89467,0 2.16667,0 2.92799,0c1.00951,0 1.60583,0 2.65067,0c0.92134,0 1.60535,0 2.856,0l0.696,0" id="svg_2" stroke-width="2" stroke="#000" fill="none"/>
  <path t="3374,3533,3534,3534,3534,3534,3534,3534,3534,3534,3551,3552,3552,3552,3552,3552,3552,3552,3552,3568,3569,3569,3569,3569,3569,3601,3602" d="m207,131c12.5,0 13.63499,0 14.74001,0c1.075,0 2.12,0 3.13499,0c0.985,0 1.94,0 2.86501,0c1.75999,0 2.595,0 3.39999,0c0.77499,0 1.52,0 2.235,0c0.685,0 1.34,0 1.965,0c1.16,0 1.69518,0 2.20134,0c0.92934,0 1.75467,0 2.48399,0l1.20134,0l0.69,0" id="svg_3" stroke-width="2" stroke="#000" fill="none"/>
  <path t="4576,4835,4836,4836,4836,4838,4838,4857,4860,4861,4861,4861,4886,4887,4887,4887,4887,4903,4910,4910,4910,4921,4922,4922,4922,4922,4922,4923,4923,4935,4935,4935,4936,4936,4936,4936,4951,4952,4952,4952,4952,4952,4952,4987,4988,4988,4988,4988,4988,4989,4989,4989,5025,5026,5026,5026,5026,5026,5026,5027,5027" d="m250,142c0,9.01384 0,9.65733 0,10.26683c0,1.129 -0.00018,1.6545 0,2.6425c0.00026,1.36917 -0.00821,2.23506 0.0625,3.06984c0.03484,0.41119 0.11249,1.25015 0.60167,2.42065c0.34311,0.821 0.85573,1.57993 1.33499,2.343c0.23372,0.37213 0.84943,1.44098 1.38217,2.45317c0.37093,0.70474 0.55211,1.10231 1.452,2.304c0.35724,0.47704 0.77625,0.96675 1.73601,1.976c0.50583,0.53191 1.04312,1.05321 1.59601,1.56601c0.55118,0.51123 1.6633,1.46396 2.21317,1.89366c0.53168,0.41548 1.58392,1.16925 2.10065,1.52266c0.50864,0.3479 1.02649,0.67059 2.52084,1.70834c0.5036,0.34973 1.00131,0.71736 2.01068,1.45866c0.51016,0.37468 1.02029,0.75645 1.54648,1.12199c1.59457,1.10779 2.16296,1.43529 2.73352,1.77267c0.5824,0.34438 1.18814,0.68639 1.81348,1.0425c0.65067,0.37054 1.3324,0.75594 2.03851,1.17751c1.53143,0.91429 2.34433,1.44206 3.19067,1.99466c0.87039,0.56831 1.74664,1.15601 2.625,1.74451l0.86832,0.5835l0.84833,0.5695l0.81836,0.54649" id="svg_4" stroke-width="2" stroke="#000" fill="none"/>
  <path t="5388,5584,5584,5584,5584,5584,5584,5584,5584,5584,5600,5601,5601,5601,5601,5602,5602,5602,5602,5637,5638,5638,5638,5638,5638,5638,5638,5639,5652,5653,5653,5654,5654,5654,5655,5655,5655,5669,5669,5669,5669,5670,5670,5670,5670,5670,5684,5684,5685,5685,5685,5685,5685,5685,5686,5719,5719,5720,5720,5720,5720,5720,5720,5721,5746,5746,5746,5747,5747,5747,5748,5748,5748,5753,5754,5754,5754,5754,5755,5755,5755,5755,5784,5784,5785,5785,5785,5785,5786,5786,5786,5813,5814,5818,5818,5819,5819,5819,5819,5820,5835,5836,5836,5837,5837,5837,5838,5838,5838" d="m286,186c0.33334,14.83333 0.43076,16.05112 0.57199,17.20399c0.13498,1.10185 0.30057,2.15651 0.49051,3.17101c0.185,0.98822 0.39481,1.95277 0.62549,2.901c0.46103,1.89505 0.73035,2.84605 0.99734,3.80667c0.26862,0.9664 0.54767,1.93288 0.83551,2.8965c0.28687,0.96037 0.57919,1.91241 0.88049,2.8515c0.58997,1.83881 0.89334,2.7298 1.20801,3.60799c0.31564,0.88087 0.65518,1.76825 1.0365,2.66551c0.39569,0.93102 0.8374,1.89555 1.3515,2.89049c1.13239,2.19148 1.84558,3.3596 2.59598,4.59868c0.78595,1.29784 1.62411,2.6283 2.49002,3.98999c0.88074,1.38499 1.77924,2.77501 2.66998,4.17c1.75177,2.74342 2.58243,4.08182 3.39468,5.38667c0.79376,1.27513 1.56906,2.52444 2.35199,3.735c0.76923,1.18941 1.53723,2.35495 2.35199,3.465c1.60757,2.19026 2.5,3.20703 3.40533,4.20532c0.90613,0.99918 1.85394,1.96484 2.82602,2.91302c0.97729,0.95325 1.98404,1.88892 3.00598,2.823c2.07068,1.89264 3.13113,2.84369 4.20935,3.80798c1.10074,0.98444 2.23755,1.98627 3.43048,2.99402c1.23489,1.04321 2.53351,2.11008 3.92551,3.17398c2.98355,2.28036 4.65121,3.41895 6.39468,4.59067c1.79999,1.20972 3.67053,2.40915 5.5965,3.58951c1.9447,1.19183 3.91458,2.35641 5.9115,3.4545c3.9176,2.15424 5.86942,3.0957 7.78265,3.99066c1.86713,0.87338 3.71329,1.67514 5.535,2.409c1.77859,0.71649 3.5322,1.3754 5.26501,1.95901c3.34546,1.12674 4.99182,1.57721 6.60532,2.00534c1.58401,0.42032 3.15448,0.79208 4.71301,1.11899c1.54291,0.32364 3.08252,0.61014 4.62299,0.849c3.08011,0.4776 4.64108,0.64328 6.22,0.80402c1.6088,0.16379 3.26202,0.29871 4.96951,0.40948c1.77121,0.11493 3.61926,0.20728 5.5545,0.27451c4.17389,0.14499 6.43106,0.17331 8.78665,0.19867c2.43344,0.02621 4.92401,0.02133 7.4505,0.00598l2.5415,-0.03531l2.53549,-0.05734l2.50851,-0.08133" id="svg_5" stroke-width="2" stroke="#000" fill="none"/>
  <path t="6310,6500,6501,6501,6501,6537,6537,6537,6537,6537,6558,6558,6558,6558,6558,6558,6558,6559,6568,6568,6569,6569,6569,6569,6569,6569,6569,6607,6607,6607,6608,6608,6608,6608,6608,6608,6620,6620,6620,6620,6621,6621,6621,6621,6621,6635,6635,6635,6635,6636,6636,6636,6636,6636,6656,6657,6657,6657,6657,6657,6658,6658,6660,6687,6688,6688,6688,6688,6689,6689,6689,6689,6703,6704,6704,6704,6705,6705,6705,6705,6705,6718,6718,6719,6719,6719,6719,6719,6720,6720,6755,6756,6758,6758,6759,6759,6759,6759,6760,6784,6786,6786,6787,6787,6787,6787,6788,6788,6796,6796,6796,6797,6799,6799,6800,6800,6800,6807,6808,6808,6808,6809,6809,6809,6809,6810,6841,6842,6842,6842,6842,6843,6843,6843,6844,6853,6854,6855,6855,6855,6856,6856,6857,6857,6869,6870,6871,6871,6872,6872,6873,6873,6873,6884,6885,6885,6886,6886,6887,6887,6888,6888,6901,6902,6902,6903,6903,6904,6905,6905,6905,6936,6937,6937,6939,6940,6940,6940,6941,6941,6955,6956,6956,6957,6957,6957,6958,6959,6960" d="m367,138c8.57117,0 9.56149,0 10.39584,0c0.73431,0 1.77081,0 2.49481,0c0.78802,0 1.664,0 2.65201,0c1.12399,0 1.74319,-0.00305 2.39734,0.00534c0.68423,0.00877 2.1235,0.06667 2.86667,0.13866c0.75534,0.07318 1.52649,0.14125 3.02667,0.52267c0.75299,0.19144 1.48776,0.46201 2.21399,0.76199c0.7327,0.30266 1.45563,0.64873 2.17801,1.01401c0.73038,0.36934 1.45685,0.76605 2.94131,1.55733c0.75491,0.40239 1.52646,0.80573 2.3175,1.218c0.81561,0.42508 1.66229,0.86418 2.54251,1.326c0.92148,0.48346 1.89072,0.98981 3.97333,2.12267c1.12955,0.61443 2.29999,1.26564 3.49799,1.9395c1.21268,0.68211 2.42017,1.37041 3.60602,2.0565c1.1528,0.66698 2.25833,1.30333 4.22934,2.504c0.85583,0.52135 1.62476,1.00751 2.3175,1.4745c0.647,0.43619 1.25073,0.87225 1.82248,1.32149c0.57336,0.4505 1.15063,0.93095 2.36002,2.03734c0.67987,0.62196 1.39191,1.3067 2.14349,2.0295c0.78314,0.75314 1.58524,1.53345 2.40451,2.32651c0.82639,0.79994 1.64752,1.60353 3.28531,3.144c0.7876,0.74081 1.57074,1.45445 2.33701,2.17349c0.76971,0.72227 1.54572,1.46471 2.319,2.2545c0.80511,0.8223 1.64954,1.69308 3.34399,3.73868c0.93713,1.13135 1.87296,2.36861 2.83502,3.65999c0.9848,1.32188 1.95856,2.67198 2.92499,4.02c0.9502,1.32535 1.85632,2.62082 3.57333,4.98666c0.76605,1.05553 1.48624,2.01665 2.14801,2.90851c0.61551,0.82953 1.19244,1.60735 1.716,2.3595c0.5015,0.72046 0.99661,1.41922 1.80264,2.89867c0.41068,0.75377 0.77228,1.55186 1.11902,2.37151c0.35214,0.8324 0.67807,1.68903 0.99298,2.5605c0.31781,0.87955 0.62051,1.77138 1.22134,3.56799c0.30109,0.90036 0.60178,1.80518 0.90451,2.718c0.30661,0.92451 0.61716,1.86505 0.93149,2.826c0.32199,0.98439 0.65268,1.99626 1.33066,4.12267c0.35645,1.11794 0.71738,2.26797 1.086,3.4395c0.37271,1.18448 0.74622,2.37335 1.12201,3.5565c0.37158,1.16985 0.73276,2.31883 1.45868,4.504c0.34113,1.02684 0.67789,2.00522 1.00949,2.93849c0.31787,0.89468 0.63266,1.7504 0.9465,2.5695c0.30264,0.78986 0.59818,1.5527 1.21066,2.992c0.2948,0.69279 0.59796,1.36554 0.90451,2.0235c0.30286,0.65004 0.61353,1.29041 0.93149,1.9245c0.31836,0.63492 0.64343,1.27113 1.33066,2.552c0.35248,0.65697 0.72034,1.32474 1.10852,2.004c0.39975,0.69949 0.82391,1.41579 1.27948,2.14799c0.47327,0.76064 0.97034,1.5509 2.112,3.18134c0.60965,0.87064 1.26794,1.75507 1.953,2.658c0.69888,0.92114 1.41931,1.84413 2.151,2.76599c0.73032,0.92014 1.45941,1.82779 2.896,3.576c0.68848,0.83783 1.36478,1.6485 2.02802,2.44199c0.65408,0.7825 1.30563,1.55777 1.95599,2.33401c0.65497,0.78177 1.3208,1.57309 2.68268,3.224c0.71164,0.86267 1.43729,1.75446 2.18549,2.66251c0.76242,0.92532 1.53964,1.86176 2.3385,2.79749c0.80478,0.94266 1.60934,1.89313 3.30933,3.70667c0.84485,0.90131 1.71976,1.77365 2.604,2.646c0.89438,0.88235 1.81427,1.76904 2.74802,2.68201c0.95898,0.93765 1.95721,1.89673 3.98132,4.00534c1.07358,1.11841 2.15286,2.29947 3.24899,3.51151c1.10928,1.22659 2.20932,2.46765 3.30301,3.7005l1.07568,1.21481l1.04962,1.18384" id="svg_6" stroke-width="2" stroke="#000" fill="none"/>
  <path t="7399,7551,7551,7551,7551,7551,7551,7551,7551,7585,7585,7585,7585,7585,7588,7588,7588,7588,7605,7605,7605,7605,7605,7606,7606,7606,7606,7619,7619,7619,7620,7620,7620,7620,7620,7620,7637,7638,7638,7638,7638,7638,7638,7677,7678,7710,7724,7724,7725,7725,7771,7772,7777,7778,7778,7778,7778,7778,7779,7810,7811,7811,7811,7812,7813,7813,7813,7823,7824,7824,7825,7825,7825,7825,7825,7836,7836,7836,7836,7837,7837,7837,7851,7851,7852,7852,7852,7852,7853,7853,7853,7881,7882,7882,7883,7883,7883,7884,7884,7893,7893,7893,7893,7894,7895,7921,7922,7922,7922,7922,7923,7923,7934,7934,7935,7935,7935,7935,7936,7937,7951,7952,7952,7953,7953,7953,7984,7985,7985,7986,7986,8004,8005,8005,8005,8006,8006,8006,8007,8018,8019,8019,8019,8037,8038,8038" d="m398,294c7.92133,-0.00049 8.68405,0.00046 9.45267,-0.01349c0.77277,-0.01404 1.54791,-0.03998 2.32199,-0.09451c0.77338,-0.05447 1.54901,-0.10446 3.05869,-0.392c0.74991,-0.14282 1.48645,-0.34628 2.21848,-0.56699c0.73611,-0.22192 1.46951,-0.47324 2.2095,-0.729c0.74902,-0.25888 1.50208,-0.54117 3.07202,-1.03735c0.80637,-0.25485 1.63385,-0.48553 2.47198,-0.71399c0.84454,-0.23022 1.69504,-0.45123 2.54401,-0.67801c0.8457,-0.22589 1.68881,-0.43829 3.31732,-0.94131c0.79312,-0.245 1.56235,-0.51224 2.31,-0.7905c0.73239,-0.27255 1.44229,-0.55832 2.13,-0.85352c0.6723,-0.28857 1.32617,-0.57806 2.56,-1.18933c0.59271,-0.29364 1.16257,-0.58789 2.21869,-1.17868c0.49213,-0.2753 1.38098,-0.80063 1.77066,-1.05066c1.21414,-0.77908 1.81998,-1.37091 2.52399,-1.87866c0.87631,-0.63202 1.577,-0.94864 2.29916,-1.37115c0.69858,-0.40872 1.59778,-1.02646 2.25119,-0.63135c0.73428,0.44403 1.34796,1.17105 1.82248,1.48199c0.52124,0.34155 1.69623,1.06097 2.32602,1.44202c0.64621,0.39096 1.95627,1.18365 2.59933,1.58667c0.63559,0.39835 1.25879,0.79965 1.8645,1.21048c0.59796,0.40558 1.18509,0.81171 1.73849,1.24652c1.61694,1.27042 2.08133,1.75861 2.54816,2.22684c0.46182,0.46323 1.33078,1.41443 1.74933,1.89066c0.41406,0.47113 0.80292,0.95538 2.022,2.30399c0.39957,0.44202 0.80359,0.88284 1.68268,1.72134c0.4537,0.43274 0.93799,0.86151 1.45798,1.284c1.11002,0.90186 1.74017,1.3432 2.39868,1.79733c0.67978,0.46878 1.38907,0.9296 2.1225,1.37701c0.73993,0.45139 1.49124,0.888 2.25751,1.28699c1.49991,0.78101 2.25436,1.09918 2.992,1.39734c0.71826,0.29034 1.42838,0.54556 2.12549,0.77399c0.67767,0.22205 1.33862,0.43192 3.22916,0.91669c0.58884,0.151 1.1604,0.29077 2.26135,0.51999c0.52927,0.1102 1.55951,0.31412 3.07199,0.48001c0.49969,0.05481 1.51785,0.11404 2.04266,0.13065c1.10107,0.03485 1.686,0.03278 2.29868,0.03467c1.32532,0.00406 2.04382,0.00134 2.79333,0.00134c0.77148,0 2.34448,0 3.12799,0c0.7695,0 1.51599,0 2.90399,0c0.62585,0 1.7475,0 2.25336,0c0.92667,0 1.77335,0.00937 2.98065,-0.00049c0.81738,-0.00665 1.68393,-0.05078 2.14334,-0.10751c1.00064,-0.1236 2.12524,-0.38254 2.74115,-0.556c1.3269,-0.37372 2.00574,-0.61124 2.69403,-0.836c0.68372,-0.22327 1.34979,-0.45215 1.99945,-0.64801c1.70599,-0.51431 2.18921,-0.63162 3.04138,-0.74399c1.05261,-0.13879 1.97998,-0.108 2.862,-0.108l0.77399,0" id="svg_7" stroke-width="2" stroke="#000" fill="none"/>
  <path t="10929,11207,11208,11208,11208,11208,11208,11208,11208,11208,11233,11233,11233,11233,11234,11234,11234,11234,11234,11253,11253,11253,11253,11254,11255,11255,11255,11255,11271,11272,11272,11272,11272,11272,11272,11273,11273,11288,11288,11291,11291,11292,11292,11292,11292,11292,11301,11302,11302,11302,11302,11303,11303,11303,11303,11336,11337,11337,11337,11337,11337,11338,11338,11338,11354,11355,11355,11356,11356,11356,11356,11356,11357,11370,11370,11371,11371,11371,11371,11371,11372,11372" d="m322,265c1.83334,13.33334 1.98315,14.96964 2.116,16.66666c0.13593,1.7363 0.25793,3.49341 0.384,5.25c0.12463,1.73672 0.24167,3.43427 0.384,5.07001c0.26239,3.01517 0.43216,4.35913 0.59732,5.61465c0.15771,1.19879 0.32965,2.36847 0.47702,3.54453c0.15152,1.20926 0.29715,2.48468 0.38699,3.8595c0.20639,3.15836 0.20093,5.00214 0.19998,7.008c-0.00101,2.14587 -0.03839,4.40677 -0.08698,6.75751c-0.04996,2.41592 -0.11685,4.87158 -0.177,7.3425c-0.11896,4.88657 -0.16339,7.25558 -0.19601,9.55865c-0.03159,2.23096 -0.05157,4.38397 -0.06448,6.453c-0.01233,1.979 -0.01755,3.862 -0.0195,5.64301c-0.00351,3.23199 -0.00134,4.67416 -0.00134,6.00934c0,1.24115 0,2.40134 0,3.4935c0,1.03717 0,2.03232 0,2.9985c0,1.89731 0,2.85181 0,3.81332c0,0.96548 0,1.93201 0,2.89648c0,0.9595 0,1.91101 0,2.8515c0,1.836 0.00259,2.72653 -0.004,3.60001c-0.00647,0.85953 -0.02039,1.70831 -0.0585,2.54849c-0.03793,0.83588 -0.09109,1.67102 -0.19351,2.50351c-0.20776,1.68884 -0.40024,2.53986 -0.59467,3.39734c-0.19522,0.86093 -0.41522,1.71317 -0.62848,2.5575c-0.20941,0.82901 -0.42191,1.63483 -0.5835,2.42249c-0.30106,1.46747 -0.36584,2.15198 -0.39734,2.78934c-0.02914,0.59 -0.00668,1.13202 0.02249,1.62152l0.04416,0.43448l0.05417,0.37653l0.05917,0.31549" id="svg_8" stroke-width="2" stroke="#000" fill="none"/>
  <path t="12033,12187,12188,12188,12188,12188,12188,12188,12188,12188,12216,12216,12216,12216,12216,12217,12217,12217,12217,12239,12239,12239,12239,12240,12240,12240,12240,12240,12258,12258,12258,12259,12259,12259,12259,12259,12259,12270,12270,12270,12271,12271,12271,12271,12271,12271,12285,12285,12285,12286,12286,12286,12286,12286,12287" d="m319,385c-7.83334,-7.66666 -8.57449,-8.36115 -9.31601,-9.02533c-0.72726,-0.65143 -1.45242,-1.27826 -2.18399,-1.87051c-0.7193,-0.58237 -1.44092,-1.14053 -2.18399,-1.64548c-1.46033,-0.99237 -2.2309,-1.40656 -3.00134,-1.80002c-0.76544,-0.3909 -1.54593,-0.741 -2.33551,-1.0545c-0.78531,-0.31183 -1.57895,-0.59161 -2.38049,-0.8295c-1.58994,-0.47183 -2.39792,-0.64163 -3.20932,-0.80267c-0.82336,-0.16342 -1.67343,-0.29895 -2.556,-0.40948c-0.92014,-0.11523 -1.88989,-0.20773 -2.91602,-0.27451c-2.24918,-0.14636 -3.48782,-0.17566 -4.78934,-0.19467c-1.34921,-0.01971 -2.73132,-0.01077 -4.12799,0.05252c-1.39822,0.06335 -2.78497,0.15649 -4.12799,0.36749c-2.55356,0.40121 -3.71118,0.78397 -4.78668,1.19598c-1.03088,0.39493 -1.98639,0.86664 -2.87698,1.37402c-0.86145,0.49078 -1.66312,1.02194 -2.427,1.55399c-1.45782,1.01535 -2.13821,1.51932 -2.80667,1.99335c-0.64722,0.45898 -1.27066,0.90799 -1.87051,1.34848l-0.57483,0.43552l-0.54883,0.4335l-0.52182,0.43448" id="svg_9" stroke-width="2" stroke="#000" fill="none"/>
  <path t="12491,12635,12635,12635,12635,12635,12635,12635,12635,12636,12651,12651,12651,12651,12651,12651,12651,12652,12652,12668,12668,12668,12668,12669,12669,12669,12669,12669,12685,12686,12686,12686,12686,12686,12686,12687,12687,12725,12725,12726,12726,12726,12726,12726,12726,12726" d="m301,385c-12.16666,-1.66666 -13.19284,-1.7641 -14.17999,-1.82935c-0.95624,-0.0632 -1.89319,-0.10367 -2.82001,-0.129c-0.92654,-0.02533 -1.86334,-0.03519 -2.82001,-0.039c-2.01334,-0.008 -3.08652,-0.00583 -4.19867,0.00269c-1.1402,0.00873 -2.29773,0.02722 -3.46048,0.078c-1.15866,0.0506 -2.30371,0.11603 -3.4155,0.258c-2.11319,0.26984 -3.08231,0.52332 -3.992,0.79868c-0.87219,0.26401 -1.69229,0.58032 -2.4675,0.92249c-0.7515,0.33167 -1.46417,0.69354 -2.1525,1.0575c-1.3316,0.7041 -1.97217,1.05701 -2.60269,1.39734c-0.61646,0.33273 -1.2164,0.66052 -1.7865,1.00351c-0.55389,0.33325 -1.08664,0.66855 -1.56149,1.04849c-0.90758,0.72623 -1.27356,1.16122 -1.59866,1.60666c-0.32401,0.44394 -0.57867,0.93866 -0.819,1.44901l-0.21033,0.54034l-0.18234,0.57233l-0.15633,0.60632" id="svg_10" stroke-width="2" stroke="#000" fill="none"/>
  <path t="12850,12990,12990,12991,12991,12991,12991,12991,12991,12991,13001,13001,13002,13002,13002,13002,13002,13002,13002" d="m302,387c-17.66666,9 -18.90482,9.66193 -20.00665,10.29468c-1.00275,0.57584 -1.90936,1.12875 -2.7225,1.68448c-0.76654,0.52386 -1.48129,1.06064 -2.13751,1.6395c-1.33426,1.17697 -1.96295,1.88052 -2.61334,2.60535c-0.66827,0.74475 -1.31332,1.53467 -1.95749,2.3385l-0.62918,0.81885l-0.60916,0.82681l-0.58417,0.82785" id="svg_11" stroke-width="2" stroke="#000" fill="none"/>
  <path t="13121,13237,13238,13238,13238,13238,13238,13238,13238,13239,13254,13254,13254,13254,13254,13254,13255,13255,13255,13285,13286,13286,13286,13286,13286,13286,13286,13287" d="m318,385c-10.16666,5.5 -10.996,5.93188 -11.77866,6.35733c-0.75629,0.4111 -1.49255,0.82794 -2.2005,1.28851c-0.72046,0.46869 -1.44656,0.98901 -2.15552,1.60349c-1.57712,1.36691 -2.36194,2.25504 -3.20132,3.20001c-0.88672,0.99826 -1.77374,2.07196 -2.664,3.1965c-0.90732,1.14606 -1.79956,2.32019 -2.664,3.51147c-1.68945,2.32822 -2.45593,3.47491 -3.19733,4.59067c-0.72452,1.09036 -1.41602,2.17603 -2.09702,3.25201l-0.67099,1.07599l-0.66699,1.082l-0.66901,1.09402" id="svg_12" stroke-width="2" stroke="#000" fill="none"/>
  <path t="13810,14187,14187,14187,14187,14187,14188,14188,14188,14188,14203,14203,14204,14204,14204,14204,14204,14204,14204,14218,14218,14218,14218,14219,14219,14219,14219,14219,14251,14251,14251,14251,14251,14252,14252,14252,14252,14269,14269,14270,14270,14270,14270,14270,14270,14270,14285,14285,14286,14287,14287,14287,14287,14288,14288,14301,14302,14302,14302,14302,14302,14302,14302,14303,14317,14318,14318,14319,14319,14319" d="m371,312c0.5,13.5 0.65063,14.73849 0.85733,15.94934c0.20477,1.19962 0.45242,2.38733 0.72601,3.5715c0.2757,1.19327 0.58328,2.39539 0.90598,3.61649c0.66901,2.53156 1.03174,3.8483 1.39603,5.20001c0.37137,1.37796 0.74896,2.77512 1.1355,4.1835c0.38815,1.41428 0.77881,2.82703 1.18048,4.22849c0.78915,2.75342 1.19379,4.08685 1.59866,5.388c0.39526,1.27017 0.79382,2.50345 1.20001,3.69601c0.39398,1.15674 0.78784,2.27197 1.20001,3.336c0.77719,2.00629 1.19348,2.92557 1.59598,3.80133c0.38477,0.83716 0.77112,1.62842 1.14151,2.38348c0.35364,0.72095 0.69955,1.40497 1.0065,2.06851c0.57205,1.23669 0.79794,1.83194 1.00266,2.40533c0.19675,0.55109 0.36676,1.08929 0.5325,1.6095c0.16095,0.50513 0.311,1.00018 0.48752,1.47449c0.34589,0.92935 0.56866,1.36938 0.79865,1.79602c0.22427,0.41605 0.4606,0.80484 0.69302,1.16699c0.21585,0.33636 0.42206,0.63461 0.603,0.897c0.27209,0.39459 0.36282,0.51694 0.39865,0.60934c0.02237,0.05768 0.00925,0.10483 -0.02249,0.1395c-0.04108,0.04486 -0.10901,0.09314 -0.1575,0.18448c-0.14807,0.27884 -0.15851,0.52267 -0.19467,0.79868l-0.04932,0.64801l-0.02533,0.69598l-0.00934,0.64801" id="svg_13" stroke-width="2" stroke="#000" fill="none"/>
  <path t="15769,15935,15935,15935,15935,15936,15936,15936,15936,15936,15952,15952,15952,15953,15953,15953,15953,15953,15953,15992,15993,15993,15993,15993,15993,15993,15993,15994,16001,16002,16002,16002,16002,16002,16002,16003,16007" d="m389,379c-15.33334,-10.16666 -16.70114,-10.7991 -18.05734,-11.26001c-1.29825,-0.44119 -2.5827,-0.76047 -3.8385,-0.98999c-1.22095,-0.22314 -2.4274,-0.36261 -3.61349,-0.45001c-2.32153,-0.17111 -3.46881,-0.18576 -4.604,-0.20932c-1.12488,-0.02335 -2.24036,-0.02472 -3.345,0.01349c-1.09552,0.0379 -2.18307,0.10211 -3.255,0.23853c-2.12744,0.27075 -3.17371,0.51736 -4.20667,0.81866c-1.04962,0.30615 -2.10327,0.7084 -3.14249,1.2345c-1.08945,0.55151 -2.19745,1.23251 -3.2775,2.08948c-2.41098,1.91296 -3.56638,3.21649 -4.79068,4.58667c-1.2851,1.4382 -2.52798,3.004 -3.78598,4.61551l-1.23801,1.65649l-1.20599,1.68051l-1.16202,1.6835" id="svg_14" stroke-width="2" stroke="#000" fill="none"/>
  <path t="16238,16342,16343,16343,16343,16343,16343,16343,16343,16343,16354,16354,16354,16354,16354,16354,16354,16355,16355,16386,16387,16387,16387,16387,16387,16387,16387,16387" d="m374,384c-16.83334,2.83334 -18.0238,3.06653 -19.09332,3.32132c-0.97534,0.23236 -1.86609,0.478 -2.67752,0.76202c-0.76862,0.26904 -1.49774,0.57327 -2.1825,0.94199c-1.40802,0.75815 -2.09674,1.27176 -2.81332,1.80133c-0.74216,0.54849 -1.4805,1.14496 -2.21249,1.7775c-0.74155,0.64078 -1.46954,1.30688 -2.16751,2.0025c-1.37579,1.37115 -1.99731,2.08658 -2.59732,2.79733c-0.59299,0.70242 -1.14801,1.42801 -1.69351,2.15851l-0.53049,0.74551l-0.51852,0.76349l-0.50949,0.78448" id="svg_15" stroke-width="2" stroke="#000" fill="none"/>
  <path t="16515,16652,16652,16652,16652,16652,16652,16652,16652,16652,16669,16669,16669,16669,16669,16669,16669,16669,16670" d="m382,388c-11.66666,1 -12.76672,1.30148 -13.82266,1.716c-1.05176,0.41287 -2.06598,0.90735 -3.03149,1.4715c-0.95905,0.56036 -1.87735,1.1781 -2.71652,1.8765c-1.65021,1.37335 -2.34045,2.18436 -2.99866,2.99066c-0.6506,0.797 -1.21866,1.64267 -1.76401,2.487l-0.50531,0.85434l-0.46735,0.86035l-0.43134,0.8623" id="svg_16" stroke-width="2" stroke="#000" fill="none"/>
  <path t="16818,16919,16920,16920,16920,16920,16920,16920,16920,16955,16955,16955,16955,16955,16956,16956,16956,16956,16968,16968,16969,16969,16969,16969,16969,16969,16969" d="m388,382c-7.2565,4.84351 -7.83701,5.36337 -8.37216,5.92783c-0.53577,0.56509 -1.03821,1.16556 -1.4985,1.80151c-0.46368,0.64066 -0.923,1.30295 -1.62933,2.77066c-0.36267,0.7536 -0.66037,1.56366 -0.92401,2.4165c-0.27594,0.89261 -0.5076,1.85132 -0.70798,2.87549c-0.21332,1.09018 -0.40891,2.26178 -0.70135,4.87466c-0.16171,1.44492 -0.28638,2.97287 -0.405,4.56c-0.12152,1.62619 -0.22,3.27335 -0.315,4.92001l-0.08499,1.62668l-0.07501,1.58664" id="svg_17" stroke-width="2" stroke="#000" fill="none"/>
  <path t="17434,17634,17634,17634,17634,17634,17634,17651,17651,17651,17651,17651,17651,17651,17691,17692,17692,17692,17692,17692,17692,17707,17707,17707,17707,17707,17707,17707,17707,17708,17717,17718,17718,17718,17718,17735" d="m357,326c0,-11.5 0,-13.03601 0,-13.69901c0,-0.60901 0,-1.71298 0,-2.23199c0,-1.569 0,-2.13318 0,-2.72232c0,-1.23334 0,-1.86752 0,-2.50668c0,-1.27332 0,-2.50665 0,-3.09766c0,-1.146 0,-1.71301 0,-2.284c0,-1.17801 0,-1.797 0,-3.125c0,-0.71869 0,-1.46933 0,-2.24402c0,-0.79065 0,-1.58932 0,-2.388c0,-0.79065 0,-1.56534 0,-3.71417c0,-0.63647 0,-1.22699 0,-2.258l0,-0.811l-0.11432,-0.82965" id="svg_18" stroke-width="2" stroke="#000" fill="none"/>
 </g>
 <g display="none">
  <title>muse_image</title>
  <image xlink:href="http://farm4.static.flickr.com/3174/2364268860_d96235660d.jpg" id="muse" height="445" width="640" y="17.5" x="0"/>
 </g>
 <g display="none">
  <title>bbox</title>
  <rect stroke="#f00" fill="none" stroke-width="3" height="350.37356" width="392.96" y="60.97701" x="56.32" id="bbox"/>
 </g>
</svg>
