<svg width="640" height="480" xmlns="http://www.w3.org/2000/svg" xmlns:svg="http://www.w3.org/2000/svg" xmlns:xlink="http://www.w3.org/1999/xlink">
 <!-- Sketchy ANNOTATION
  ImageNet ID: n01594787_4761
  URL: http://farm3.static.flickr.com/2348/2087814292_de429bc2c6.jpg
  Image Width: 500
  Image Height: 375
  BBox X: 95
  BBox Y: 112
  BBox Width: 242
  BBox Height: 210
  Exposure: 2000ms
  Synset Label: songbird
  Synset ID: n01526521
  Worker Tag: songbird on a stem
  Sanity Check: 
   Saved
  Comment: 
   {}
  Worker ID: A1P7U2ULSAE7YL
  Assignment ID: 3I7DHKZYGN0V4WVFSKSW90VHVUJ5FN
  HIT ID: 344M16OZKIF51N3VB7ZAWFFI716EN3
  Work Time: 57s
  Worker Score: 0.7464
 END ANNOTATION -->
 <g display="inline">
  <title>Layer 1</title>
  <path t="0,133,141,150,157,165,173,181,189,197,197,205,213,221,229,229,237,246,253,253,263,269,269,285,285,293,301,309,309,319,325,325,333,341,357,357,366,366,373,383,389,405,413,413,421,437,446,463,469,469,477,485,485,494,501,517,525,525,533,541,541,549,557,573,582,583,589,599,605,605,614,621,629,648,648,663,663,669,669,677,693,709,717,725,757,781,781,797,805,813,813,821,837,837,846,853,869,869,877,877,885,893,909,909,917,917,925,933,933,941,950,957,957,965,973,989,997,997,1005,1005,1013,1021,1029,1045,1046,1055,1062,1069,1069,1079,1086,1093,1093,1103,1103,1109,1117,1125,1133,1149,1149,1157,1165,1173,1189,1189,1199,1205,1215,1232,1238,1238,1253,1253,1262,1269,1280,1287,1294,1304,1310,1322,1325,1325,1336,1342,1353,1357,1365,1373,1381,1389,1398,1405,1421,1421,1432,1432,1438,1453,1461,1461,1470,1478,1494,1509,1518,1535,1551,1552,1557,1568,1589,1598,1598,1615,1645,1661,1670,1678,1695,1702,1709,1709,1719,1725,1734,1734,1741,1751,1757,1757,1768,1768,1773,1781,1781,1798,1798,1805,1821,1831,1837,1869,1869,1878,1885,1895,1895,1902,1909,1919,1933,1941,1949,1957,1981,1991,1991,2005,2029,2029,2045,2069,2069,2077,2103,2141,2165,2174,2174,2185,2201,2218,2221,2234,2251,2269,2325,2341,2365,2389,2405,2437,2447,2469,2501,2517,2525,2541,2565,2581,2621,2621,2653,2669,2693,2703,2733,2773,2797,2821,2877,2893,2902,2910,2927,2934" d="m185.51137,319.09091c1.8,0 2.70001,0.00601 3.60001,0c0.80005,-0.00534 1.80341,-0.28052 2.23332,-1c0.46039,-0.77048 0.92796,-1.36163 1.38817,-2.09982c0.44711,-0.71716 1.39699,-0.89053 2.1785,-1.3255c0.81966,-0.45621 1.36336,-1.05151 1.62534,-1.724c0.35083,-0.9006 1.27843,-1.2038 1.97467,-1.85068c0.60327,-0.56049 1.45044,-0.86722 2.20134,-1.28534c0.74857,-0.41681 1.51443,-0.92245 2.08882,-1.41467c0.8017,-0.68701 1.04172,-1.62405 1.70984,-2.29999c0.57889,-0.58566 1.46405,-0.84387 2.2,-1.28534c0.67862,-0.4071 1.36098,-1.17209 1.74733,-2.01465c0.35245,-0.76862 0.78294,-1.46097 1.70534,-1.64285c0.8488,-0.16736 1.89905,-0.0007 2.37267,-0.66782c0.51227,-0.72156 0.72476,-1.70169 1.308,-2.38934c0.53902,-0.63553 1.13206,-1.16055 1.83334,-1.83334c0.58511,-0.56134 1.19427,-1.12305 2.1545,-1.16681c0.65765,-0.02997 1.43896,-0.57358 2.24817,-0.91452c0.72495,-0.30545 1.86603,0.06512 2.62933,-0.36932c0.78519,-0.4469 1.43614,-0.9025 2.09599,-1.4205c0.74521,-0.58502 1.35114,-0.98376 2.13733,-1.37952c0.74573,-0.37537 1.41936,-0.92868 2.06801,-1.43683c0.76779,-0.60147 1.24619,-1.33948 1.89999,-1.8685c0.74429,-0.60223 1.30771,-1.10709 1.65266,-1.90533c0.32217,-0.74554 1.42778,-0.55417 2.24734,-1.0625c0.80763,-0.50095 1.18263,-1.19751 2.02133,-1.74265c0.65189,-0.42371 1.54742,-0.6243 2.37416,-0.95285c0.85542,-0.33997 1.60315,-0.91867 2.5045,-0.94733c0.89938,-0.02859 1.73911,-0.21497 1.8,-1.08401c0.06404,-0.91376 0.11987,-1.69583 0.57466,-2.51599c0.43375,-0.7822 0.69749,-1.6116 1.22667,-2.19998c0.66168,-0.73572 1.12698,-1.51633 1.188,-2.37469c0.06656,-0.93637 0.37846,-1.57693 1.1105,-2.047c0.64438,-0.41376 0.62344,-1.50125 0.98416,-2.20898c0.41235,-0.80902 0.96237,-1.3772 1.62584,-2.22202c0.43611,-0.55533 1.20235,-1.11273 1.74849,-1.82648c0.58061,-0.75879 0.85689,-1.56317 1.25768,-2.32083c0.44933,-0.8494 0.69386,-1.62576 1.384,-2.29984c0.5789,-0.56543 1.37172,-1.01068 1.95265,-1.54752c0.68863,-0.63632 1.33597,-1.04095 2.09668,-1.414c0.76233,-0.37384 0.84271,-1.46796 1.46133,-1.95332c0.69653,-0.54649 1.15308,-1.2524 1.61084,-2.08534c0.37097,-0.67502 1.26364,-1.20903 1.77847,-1.92082c0.54938,-0.75954 0.76382,-1.46645 1.60001,-1.99384c0.76901,-0.48505 1.38058,-1.1644 1.80002,-1.8c0.57394,-0.86975 1.4353,-1.06122 2.07916,-1.70616c0.6395,-0.64056 0.84277,-1.4659 1.54166,-1.97917c0.66208,-0.48627 1.61972,-0.37497 2.33249,-0.936c0.74475,-0.5862 1.06885,-1.33269 1.81335,-1.73067c0.74026,-0.39571 1.52625,-0.45372 2.39734,-0.86932c0.73965,-0.35291 1.33804,-0.79253 2.26932,-1.13068c0.69235,-0.2514 1.36398,-1.03603 1.96667,-1.63333c0.59735,-0.59201 1.49774,-0.84398 2.284,-1.28532c0.72995,-0.40974 0.86148,-1.52985 1.62134,-1.862c0.9035,-0.39494 1.51083,-0.78215 2.29465,-1.21935c0.65189,-0.3636 1.12143,-1.37289 1.97467,-1.79733c0.74811,-0.37213 1.58286,-0.44116 2.41467,-1.01067c0.66467,-0.45506 1.01428,-1.21832 1.69467,-1.74133c0.6113,-0.46991 1.71173,-0.34187 2.39999,-0.85333c0.55032,-0.40895 1.30383,-1.31493 1.88,-1.784c0.78091,-0.63574 1.73727,-0.59888 2.63599,-0.64667c0.80341,-0.04272 1.39124,-0.5773 1.97467,-1.38933c0.46088,-0.64146 0.862,-1.27533 1.54617,-1.58984c0.80899,-0.3719 1.7977,-0.24913 2.47916,-0.52083c0.9744,-0.3885 1.90637,-0.46776 2.52084,-1.02083c0.7132,-0.64194 1.24744,-1.3147 2.07916,-1.46851c0.88553,-0.16376 1.91095,-0.24083 2.2785,-1.11067c0.35349,-0.83653 0.47818,-1.51231 1.03751,-2.18533c0.55612,-0.66916 0.85886,-1.35217 1.47333,-2.11465c0.60101,-0.74577 0.73419,-1.63538 1.31519,-2.3c0.55219,-0.63165 1.26645,-1.28729 1.65265,-2.00984c0.34409,-0.64375 1.0426,-1.47997 1.35751,-2.17416c0.40344,-0.88934 0.37332,-1.99919 0.80615,-2.59517c0.58145,-0.8006 0.96042,-1.4579 1.53183,-2.16367c0.59158,-0.73068 0.94876,-1.34067 1.522,-1.93182c0.63672,-0.65663 1.25253,-1.07909 2.12534,-1.47801c0.85022,-0.3886 1.65042,-0.71094 2.43866,-0.97266c0.84888,-0.28186 1.39905,-0.811 2.26135,-0.98534c0.9437,-0.19078 1.59164,-0.87491 2.47867,-0.98933c0.82101,-0.10591 1.60791,-0.53505 2.22131,-1.09984c0.68539,-0.63106 1.53659,-0.8681 2.384,-0.90149c0.86447,-0.03406 1.68472,-0.49542 2.51599,-0.832c0.7572,-0.30659 1.71738,-0.19458 2.47919,-0.66667c0.76077,-0.47145 1.62082,-0.5 2.52081,-0.5c0.80002,0 1.70001,0 2.60001,0c0.89999,0 1.80002,0 2.70001,0c0.89999,0 1.79984,0 2.72534,0c0.776,0 1.67465,0 2.57465,0c0.89999,0 1.80002,0 2.70001,0c0.89999,0 1.93216,-0.24425 2.616,0.284c0.6275,0.48471 1.65283,0.4614 2.048,1.15201c0.42725,0.74666 0.12042,1.8434 0.83734,2.28c0.77408,0.47142 1.25131,0.98849 1.69864,1.784c0.44736,0.7955 0.871,1.53447 1.52536,2.07466c0.57913,0.47809 1.73334,0.37624 1.97015,1.12984c0.25793,0.82088 0.72049,1.3795 1.00317,2.09683l0.00131,0.89867l0.05719,0.94284" id="svg_1" stroke-width="2" stroke="#000" fill="none"/>
  <path t="3645,3805,3813,3829,3845,3862,3869,3917,3965,3989,4005,4021,4061,4093,4133,4173,4220,4229,4237,4269,4325,4581,4621,4629,4639,4678,4725,4797,4845,4885,4917,4917,4941,4965,4989,5013,5029,5052,5069,5125,5125,5149,5197,5253,5253,5309,5317,5357,5381,5413" d="m367.51135,207.09091c1.60001,0.57466 2.44321,0.88495 3.30002,1.35266c0.7453,0.40685 1.57867,0.64734 2.40451,0.64734c0.89548,0 1.66394,0.1441 2.34814,0.64734c0.66623,0.49001 1.48169,0.44446 1.98334,0.92732c0.56915,0.54782 1.41235,0.66737 2.048,1.14134c0.7688,0.57326 1.58804,0.56621 2.13733,1.16266c0.58481,0.63501 1.34039,0.8577 1.74268,1.55734c0.43103,0.74966 0.18579,1.77658 0.03583,2.66383c-0.14401,0.85202 -0.65778,1.52232 -1.28516,1.90016c-0.78354,0.47189 -1.81467,0 -2.71469,0c-0.79999,0 -1.69998,0 -2.59998,0c-0.90002,0 -1.80002,0 -2.70001,0c-0.89865,0 -1.784,0 -2.70001,0c-0.79999,0 -1.45148,0.33101 -2.16666,0.83333c-0.69543,0.48846 -1.61078,0.29095 -2.43332,0.74133c-0.7804,0.42729 -1.70001,0.42534 -2.59866,0.42534l-0.88535,0" id="svg_2" stroke-width="2" stroke="#000" fill="none"/>
  <path t="6141,6301,6317,6341,6373,6381,6389,6406,6423,6429,6445,6485,6517,6549,6573,6589,6606,6629,6637,6669,6677,6694,6717,6741,6749,6813,6845,6869,6941,6982,7021,7045,7061,7069,7093,7110,7117,7133,7142,7165,7176,7197,7213,7213,7237,7245,7253,7269,7285,7293,7301,7301,7317,7326,7341,7349,7359,7365,7373,7397,7409,7429,7453,7453,7461,7485,7517,7525,7542,7542,7549,7559,7565,7575,7597,7608,7613,7625,7629,7645,7654,7661,7685,7701,7709,7717,7725,7733,7741,7741,7749,7759,7765,7765,7775,7781,7791,7797,7807,7824,7837,7838,7845,7854,7861,7871,7877,7877,7893,7901,7909,7926,7949,7973,7989,7997,7997,8008,8025,8029,8037,8054,8077,8101,8157,8157,8197,8221,8245,8277,8285,8301,8317,8317,8349,8357,8421,8429,8445,8445,8476,8501,8525,8556,8693,8733" d="m369.51135,222.09091c-0.05716,1.7 -0.68616,2.42238 -0.94281,3.3c-0.25311,0.86555 0.18704,1.93214 -0.34119,2.616c-0.48471,0.62747 -0.6369,1.43904 -1.14133,2.05867c-0.48193,0.59198 -0.38687,1.57129 -0.93182,2.32083c-0.49289,0.67792 -1.45566,0.87553 -1.64285,1.7045c-0.19958,0.88385 -0.95718,1.28236 -1,2.2c-0.04193,0.89886 -0.30554,1.56967 -0.94733,2.15266c-0.57932,0.52625 -1.45062,0.64742 -2.05267,1.14734c-0.61972,0.51459 -1.23657,1.19344 -2.08398,1.49867c-0.86182,0.31041 -1.46127,0.45108 -2.20132,0.916c-0.77686,0.48804 -1.47421,0.399 -1.716,1.284c-0.21796,0.79776 -1.04636,1.16161 -1.57333,1.82666c-0.49622,0.62622 -0.09723,1.64662 -0.44617,2.45384c-0.30862,0.71397 -0.95978,1.31062 -1.33633,2.16899c-0.29324,0.66846 -1.08786,1.06578 -1.93832,1.35634c-0.75296,0.25723 -0.70447,1.2955 -0.70453,2.1955c-0.00009,0.90001 -0.03543,1.938 -0.7045,2.44284c-0.75098,0.56664 -1.2807,0.96788 -1.2955,1.85716c-0.0163,0.97925 -0.75162,1.44363 -0.99548,2.2045c-0.28702,0.89548 -0.64334,1.40048 -1.06168,1.94284c-0.57037,0.73944 -0.90564,1.35352 -0.94284,2.15265c-0.04272,0.91766 -0.81766,1.4321 -1.00015,2.29984c-0.16663,0.79236 -1.21378,1.01801 -1.64267,1.60468c-0.55521,0.75946 -1.13788,1.29907 -1.35583,2.09683c-0.24179,0.88501 -0.91769,1.17468 -1.70584,1.19867c-0.93964,0.02859 -0.87839,0.94525 -1.35266,1.64282c-0.46378,0.68216 -1.80609,-0.11905 -2.58566,0.41434c-0.70517,0.48245 -0.21561,1.67432 -0.79315,2.33218c-0.61148,0.6965 -1.43301,1.03244 -2,1.59598c-0.68149,0.67734 -0.95786,1.44089 -1.86401,1.90033c-0.80933,0.41034 -1.65771,0.34933 -2.39999,0.76169c-0.8244,0.45798 -1.30832,1.11667 -2.10135,1.35132c-0.81451,0.241 -0.80972,1.05594 -1.48398,1.832c-0.59256,0.68204 -1.42764,0.7872 -2.31467,1.19467c-0.81277,0.37338 -1.59296,0.70383 -2.31735,1.25867c-0.62991,0.48248 -1.26797,0.70993 -2.3255,0.716c-0.95581,0.00549 -1.43082,0.56799 -2.1825,0.96399c-0.76154,0.40118 -1.77466,0.03601 -2.67465,0.03601c-0.90002,0 -1.68109,0.11768 -2.5,0.57468c-0.77274,0.43121 -1.27396,1.15091 -2.01068,1.41464c-0.83737,0.29977 -1.79333,-0.07382 -2.68481,0.01068c-0.88303,0.08371 -1.47266,0.84586 -2.3045,0.98932c-0.88699,0.15298 -1.80002,0.01068 -2.70001,0.01068c-0.89999,0 -1.79999,0 -2.70001,0c-0.79999,0 -1.70862,0.0423 -2.47916,0.5c-0.81558,0.48447 -1.62082,0.5 -2.52084,0.5c-0.79999,0 -1.69998,0 -2.59998,0c-0.90002,0 -1.80002,0 -2.70001,0l-0.89999,0" id="svg_3" stroke-width="2" stroke="#000" fill="none"/>
  <path t="9565,9653,9653,9661,9669,9677,9686,9686,9693,9709,9709,9718,9725,9733,9741,9749,9749,9757,9765,9765,9774,9781,9789,9797,9805,9813,9813,9822,9829,9829,9839,9839,9845,9845,9856,9861,9861,9872,9872,9872,9877,9909,9917,9917,9933,9933,9941,9949,9957,9965,9965,9973,9981,9997,10006,10006,10012,10013,10029,10045,10056,10071,10077,10085,10109,10125,10133,10141,10149,10165,10173,10181,10197,10206,10229,10245,10258,10262,10277,10294,10309,10326,10326,10335,10349,10373,10384,10389" d="m308.51135,231.09091c0,1 0,1.8 0,2.7c0,0.90001 0,1.82083 0,2.784c0,0.69067 0,1.76334 0,2.68268c0,0.8125 0.17551,1.75536 -0.05716,2.53783c-0.25949,0.8727 -0.77924,1.64256 -1.16415,2.39551c-0.39014,0.7632 -0.7637,1.57878 -1.48401,2.2c-0.53937,0.46516 -1.3804,1.08719 -1.86932,1.76132c-0.51672,0.71248 -0.35529,1.74644 -0.86133,2.37468c-0.58905,0.73131 -1.164,1.164 -1.86401,1.864c-0.70001,0.7 -1.19901,1.23026 -2.02118,1.80016c-0.64185,0.44492 -1.35468,1.06305 -1.65799,1.879c-0.31573,0.84933 -1.01288,1.36029 -1.54166,2.04169c-0.63632,0.81998 -1.37491,1.24658 -1.90985,1.77783c-0.66788,0.66327 -0.4061,1.7305 -0.931,2.50131c-0.40808,0.59924 -1.38538,0.87155 -2.069,1.5c-0.70795,0.65082 -1.233,0.93472 -2.06934,1.24167c-0.82217,0.30176 -1.20325,1.24954 -1.88931,1.897c-0.61362,0.5791 -0.95309,1.37515 -1.61069,2.06134c-0.5871,0.61261 -1.10794,1.33084 -1.79999,1.71466c-0.82449,0.45728 -1.92273,0.13937 -2.58932,0.72134c-0.69818,0.60956 -0.99756,1.46985 -1.58533,1.98932c-0.58282,0.51511 -1.52536,0.57242 -2.42535,0.57468c-0.89548,0.00226 -1.40878,0.66605 -2.12082,0.97916c-0.79553,0.34985 -1.42038,0.59821 -2.08984,1.04617c-0.73544,0.49213 -1.5863,0.93195 -2.48932,0.97467c-0.89902,0.04251 -1.44492,0.45032 -2.18533,0.91467c-0.77826,0.48807 -1.81467,0.08533 -2.71469,0.08533c-0.79999,0 -1.71466,0 -2.61066,0l-0.88934,0l-0.89999,0l-0.89999,0.00449" id="svg_4" stroke-width="2" stroke="#000" fill="none"/>
  <path t="10901,10964,10973,10989,10989,10997,10997,11005,11005,11013,11021,11021,11021,11029,11037,11045,11045,11053,11061,11069,11077,11077,11085,11093,11104,11104,11117,11134,11134,11141,11141,11150,11157,11173,11181,11181,11189,11197,11197,11213,11220,11221,11237,11237,11245,11260,11260,11269,11276,11285,11309,11309,11317,11325,11341,11341,11350,11357,11357,11365,11365,11381,11389,11397,11405,11405,11413,11421,11429,11437,11445,11460,11469,11469,11484,11500,11516,11524,11533,11540,11540,11549,11566,11572,11588,11605,11605,11612,11628,11637,11644,11660,11668,11676,11716,11924,11940,11956,11980,11988,11996,12004,12004,12036,12053,12069,12092,12117,12132" d="m257.51135,281.09091c-0.57465,1.60001 -0.83105,2.47601 -1.36166,3.3045c-0.42226,0.6593 -1.15056,1.15259 -1.77699,1.87015c-0.55518,0.63596 -0.78941,1.60391 -1.308,2.22534c-0.60049,0.7196 -1.39572,0.97189 -2.06934,1.39999c-0.87155,0.55392 -1.75105,0.96375 -2.584,1.42151c-0.67502,0.37097 -1.25557,1.23849 -1.99983,1.65717c-0.74165,0.41721 -1.09103,1.24734 -1.60466,1.82135c-0.64795,0.72409 -1.27254,1.33331 -1.65266,2.00531c-0.41933,0.7413 -1.29842,1.25433 -2.12683,1.58002c-0.71053,0.27933 -1.43686,0.90048 -2.2115,1.35748c-0.75813,0.44727 -1.5078,0.90039 -2.40451,1.23569c-0.85063,0.31808 -1.75044,0.13464 -2.39999,0.64233c-0.76845,0.60062 -1.29996,1.27917 -1.89999,1.87915c-0.70013,0.70007 -1.1994,1.25555 -2.084,1.79868c-0.66585,0.40881 -1.62759,0.75861 -2.51601,0.80133c-0.79909,0.03842 -1.70053,0.05621 -2.5,0.5c-0.79604,0.44189 -1.6646,0.66873 -2.2045,1.2045c-0.69284,0.68753 -1.39391,1.18658 -2.2955,1.2955c-0.79874,0.0965 -1.48848,0.56842 -2.32133,1.09982c-0.65543,0.41818 -1.65298,0.81186 -2.47733,0.89883c-0.89824,0.09479 -1.76659,0.474 -2.11734,1.20135c-0.4128,0.85605 -0.46947,1.66306 -1.13667,2.44281c-0.50058,0.58505 -1.62144,0.79123 -1.89017,1.65717c-0.26691,0.86011 -0.46156,1.54727 -1.25716,1.98401c-0.64812,0.35577 -1.34746,0.93094 -1.96667,1.54935c-0.6187,0.61789 -1.20132,1.01584 -2.13333,1.17114c-0.81747,0.13623 -1.13153,0.97763 -1.75267,1.63834c-0.56776,0.60394 -1.33447,0.67166 -2.114,1.19052c-0.70746,0.47089 -1.63333,0.16666 -2.53333,0.16666c-0.90001,0 -1.83475,-0.05292 -2.60001,0.35266c-0.8459,0.4483 -1.83821,0.3251 -2.53333,0.814c-0.71429,0.50241 -1.32417,1.21201 -1.16667,1.21201c0.97867,0 -0.00224,-1.87866 0,-2.77866c0.00226,-0.89999 0.19138,-1.72519 0.716,-2.31467c0.67259,-0.75574 1.2,-1.48401 1.56799,-2.20135l0.68001,-0.51999l0.0405,-0.8595l0.4315,-0.66849" id="svg_5" stroke-width="2" stroke="#000" fill="none"/>
  <path t="12564,12636,12652,12676,12686,12686,12692,12701,12701,12708,12708" d="m185.51137,321.09091c0.87866,1.22134 1.35571,1.97141 2.2,2c0.89964,0.03046 1.68846,0.06674 2.62534,-0.01068c1.01653,-0.08398 1.67467,-0.51016 2.49583,-1.08932l0.658,-0.39999" id="svg_6" stroke-width="2" stroke="#000" fill="none"/>
  <path t="13557,13660,13669,13669,13676,13685,13701,13701,13708,13724,13725,13735,13735,13748,13757,13768,13772,13788,13804,13821,13821,13830" d="m283.51135,291.09091c-1.82532,0 -2.83331,0 -3.6955,0c-0.90448,0 -1.82532,0 -2.62582,0c-0.85333,0 -1.79333,0 -2.77884,0c-0.78516,0 -1.72516,0 -2.41583,0c-1.07333,0 -1.98401,0 -2.884,0c-0.89999,0 -1.79999,0 -2.69998,0l-0.90002,0l-0.79999,0l-0.91467,0" id="svg_7" stroke-width="2" stroke="#000" fill="none"/>
  <path t="14782,14917,14941,14949,14982,15013,15022,15037,15054,15078,15117,15149,15166,15213,15277,15301,15309,15317,15341,15357,15365,15373,15389,15413,15429,15437,15461,15485,15501,15509,15533,15549,15557,15573,15582,15599,15605,15629,15637,15653,15663,15679,15679,15686,15717,15917,15949,15949,15957,15989,15997,16005,16021,16053,16101,16110,16125,16141,16221,16245,16285,16373,16389,16397,16429,16445,16493,16525,16533,16565,16565,16581,16621,16629,16653,16685,16701,16893,16909,16918,16926,16941,16973,16989,17005,17037,17085,17102,17151,17453,17533,17549,17573,17573,17613,17629,17717,17749,17758,17805,17830,17838,17853,17885" d="m328.51135,281.09091c-0.87866,1.22134 -1.6102,1.73788 -1.96399,2.436c-0.3909,0.77133 0.10132,1.84512 -0.38867,2.51132c-0.50323,0.68423 -0.64734,1.45267 -0.64734,2.35266c0,0.90002 -0.51822,1.98413 0.02084,2.67917c0.5463,0.70438 1.29282,0.78043 2.17783,1.02219c0.79779,0.21796 1.23679,0.98065 2.10135,0.99866c0.89981,0.01874 1.79999,-0.00067 2.69998,0c0.91602,0.00067 1.44144,0.68579 2.30002,0.94284c0.8627,0.2583 1.44983,0.68002 2.22083,1.03632c0.78891,0.36456 1.57153,0.42813 2.1265,1.07352c0.50046,0.582 0.81308,1.47092 1.30002,2.24283c0.44312,0.70242 1.0473,1.31509 1.05264,2.18365c0.00537,0.87799 0,1.82083 0,2.72086c0,0.89999 0,1.79999 0,2.59998c0,0.90002 -0.85834,2.65836 0,2.65836c0.45834,0 0.39304,-1.38873 -0.08533,-2.173c-0.4902,-0.80362 -1.30637,-1.18579 -1.88931,-1.71066c-0.58917,-0.53049 -1.39978,-0.87613 -1.90402,-1.6745c-0.48663,-0.77048 -0.86505,-1.52438 -1.62134,-1.87933c-0.77222,-0.36243 -1.37589,-0.75278 -2.14731,-1.01636c-0.8266,-0.28244 -1.78751,-0.24738 -2.64816,0c-0.76788,0.2207 -1.27914,0.99017 -2.22534,0.99551c-0.87918,0.00497 -1.82922,-0.13165 -2.57916,0.22134c-0.77554,0.36505 -1.29251,1.07861 -2.06668,1.612c-0.68665,0.47308 -0.44104,1.09818 -0.91867,1.88132c-0.49011,0.80359 -1.27335,1.74368 -0.91467,1.74368c0.85834,0 0,-1.75833 0,-2.65836c0,-0.89999 0,-1.79999 0,-2.74731c0,-0.75717 0,-1.65268 0,-2.55267c0,-0.89999 0,-1.79999 0,-2.70001c0,-0.89999 0,-1.79999 0,-2.59998c0,-0.90002 0,-1.84283 0,-2.72086c0,-0.87915 -0.00009,-1.77914 0,-2.67917c0.00009,-0.89981 0.28403,-1.716 0.96402,-2.23599l0.03598,-0.8595" id="svg_8" stroke-width="2" stroke="#000" fill="none"/>
  <path t="18678,18837,18869,18909,18917,18949,18957,18965,18981,18997,19021,19029,19045,19053,19069,19077,19085,19101,19117,19117,19133,19142,19149,19158,19165,19174,19181,19189,19205,19221,19237,19237,19253,19261,19285,19293,19349,19429,19445,19453,19461,19469,19469,19477,19493,19501,19509,19517,19517,19525,19549,19558,19558,19575,19591,19621,19653,19669,19685,19725,19797,19813,19813,19821,19830,19845,19861,19869,19877,19893,19933,19973,20133,20149,20158,20158,20165,20165,20174,20174,20181,20191,20197,20197,20213,20213,20221,20229,20237,20253,20269,20269,20278" d="m316.51135,288.09091c0,1.79999 0,2.64282 0,3.52084c0,0.87915 0.24289,1.91397 -0.00449,2.77466c-0.2207,0.76788 -0.8465,1.23938 -1.00616,2.10449c-0.15344,0.83139 -0.47134,1.85297 -1.15601,2.43335c-0.63101,0.53488 -1.29227,0.84863 -1.80798,1.556c-0.49988,0.68564 -1.5336,0.47818 -2.32535,0.96783c-0.56879,0.35178 -1.11533,1.31668 -2,1.58566c-0.8616,0.26196 -1.52658,0.54144 -2.22083,1.05716c-0.68475,0.5087 -1.13428,1.24353 -1.7005,1.87866c-0.53445,0.59949 -0.6207,1.39865 -1,2.22134c-0.30811,0.66824 -0.77335,1.49994 -0.77869,2.37915c-0.00534,0.87799 -0.00009,1.82083 0,2.72086c0.00009,0.89981 0.47614,2.04132 0.94284,1.44281c0.51953,-0.66623 0.36105,-1.69205 0.7045,-2.34283c0.46909,-0.88885 0.89777,-1.55316 1.23117,-2.39999c0.3327,-0.84503 0.46796,-1.68765 1.12149,-1.89999c0.90826,-0.2951 0.86835,-1.35004 1.22134,-2.10001c0.36502,-0.77551 0.93707,-1.41501 1.49466,-1.98401c0.65909,-0.67258 1.3884,-0.8273 2.284,-0.91599c0.8457,-0.08374 1.28094,-0.95728 2.16669,-1c0.83234,-0.04013 1.63333,0 2.53333,0c0.89999,0 1.8797,-0.3667 2.77917,0.02084c0.71436,0.3078 1.327,0.6077 2.08484,1.01517c0.72931,0.39212 1.96762,1.04065 1.72699,1.90683c-0.01529,0.05508 -0.99481,-0.22653 -1.63834,-0.7045c-0.84604,-0.62836 -1.09103,-1.26544 -1.7525,-2.21686c-0.43793,-0.62988 -0.78403,-1.4628 -1.18417,-2.2215c-0.45273,-0.85837 -0.71375,-1.55716 -0.716,-2.45267c-0.00217,-0.86331 0,-1.82648 0,-2.64731c0,-0.90002 0,-1.80002 0,-2.70001l0,-0.79999l0,-0.95718" id="svg_9" stroke-width="2" stroke="#000" fill="none"/>
  <path t="22605,22717,22733,22749,22749,22765,22781,22805,22829,22885,22885,22917,22949,22965,22981,22997" d="m364.51135,204.09091c-0.87848,1.2215 -0.78934,2.16612 -1.16666,3c-0.2959,0.65396 -1.39462,0.93547 -1.85867,1.61067c-0.49582,0.72144 -0.974,1.47333 -0.97467,2.38933c-0.00058,0.8 0,1.7 0,2.60001l0,0.89999l0.01068,0.89999l0.27466,0.79868" id="svg_10" stroke-width="2" stroke="#000" fill="none"/>
  <path t="23501,23661,23669,23686,23693,23702,23709,23725,23749,23829,23893,23949,23965,23997,24005,24021,24045,24061,24109,24165,24173,24173,24197,24261,24269,24293,24317,24341,24373" d="m353.51135,202.09091c1.70001,0 2.72275,-0.14598 3.38934,0.436c0.69818,0.60957 1.2384,1.31158 1.58984,2.08482c0.36389,0.8006 0.0209,1.77917 0.02081,2.67917c-0.00009,0.89984 -0.21524,1.73911 -1.09998,1.8c-0.89789,0.0618 -1.5809,-0.28287 -2.18402,-0.916c-0.54688,-0.5741 -0.716,-1.384 -0.716,-2.284c0,-0.90001 0,-1.8 0,-2.60001c0,-0.89999 -0.35431,-1.88379 0.02084,-2.67917c0.33267,-0.70534 1.47916,-0.52083 2.3685,-0.51016l0.58984,0.51016" id="svg_11" stroke-width="2" stroke="#000" fill="none"/>
  <path t="26269,26373,26381,26397,26405,26413,26421,26429,26437,26437,26445,26461,26469,26501,26517,26525,26533,26550,26566,26566,26573,26573,26582,26589,26597,26605,26613,26629,26645,26653,26661,26669,26669,26677,26677" d="m263.51135,293.09091c-1.69998,0 -2.59998,0 -3.5,0c-0.89999,0 -1.88257,0.01917 -2.5,0.5c-0.6398,0.49826 -1.53413,0.26804 -2.29015,0.55716c-0.89729,0.34317 -1.33284,1.06042 -1.76701,1.59018c-0.54691,0.66733 -1.50587,0.74985 -2.33215,1.32733c-0.67152,0.46933 -0.94612,1.34589 -1.61067,2.02533c-0.50484,0.51614 -1.31114,1.11777 -1.97917,1.47916c-0.90262,0.48828 -1.85495,0.18024 -2.6875,0.6875c-0.71165,0.43359 -1.50862,0.52325 -2.21199,1.05469c-0.64133,0.48456 -1.32133,0.77866 -2.22134,0.77866c-0.89999,0 -1.65717,0 -2.55716,0l-0.74733,0" id="svg_12" stroke-width="2" stroke="#000" fill="none"/>
 </g>
 <g display="none">
  <title>muse_image</title>
  <image xlink:href="http://farm3.static.flickr.com/2348/2087814292_de429bc2c6.jpg" id="muse" height="480" width="640" y="0" x="0"/>
 </g>
 <g display="none">
  <title>bbox</title>
  <rect stroke="#f00" fill="none" stroke-width="3" height="268.8" width="309.76" y="143.36" x="121.6" id="bbox"/>
 </g>
</svg>
