<svg width="640" height="480" xmlns="http://www.w3.org/2000/svg" xmlns:svg="http://www.w3.org/2000/svg" xmlns:xlink="http://www.w3.org/1999/xlink">
 <!-- Sketchy ANNOTATION
  ImageNet ID: n01534433_252
  URL: http://farm3.static.flickr.com/2331/2321639690_16ccf141e5.jpg
  Image Width: 500
  Image Height: 375
  BBox X: 58
  BBox Y: 108
  BBox Width: 352
  BBox Height: 191
  Exposure: 2000ms
  Synset Label: songbird
  Synset ID: n01526521
  Worker Tag: Songbird
  Sanity Check: 
   Saved
  Comment: 
   {}
  Worker ID: AIH9VLD92GHFH
  Assignment ID: 392CY0QWG1RXI4T5FNF7752VCB44I3
  HIT ID: 3AC6MFV69KIB2M8G4WIAC5J49V7HZ4
  Work Time: 47s
  Worker Score: 0.6155
 END ANNOTATION -->
 <g display="inline">
  <title>Layer 1</title>
  <path t="0,268,268,279,297,297,297,314,320,321,329,330,347,348,348,362,363,363,363,379,380,380,396,397,397,397,413,414,414,414,429,429,430,446,447,452,452,462,463,463,463,479,480,480,496,496,497,497,512,513,513,529,530,547,548,548,562,563,563,579,580,596,597,597,613,613,613,629,630,630,646,647,647,663,663,664,679,679,680,699,699,713,714,729,730,730,746,747,747,764,764,764,780,780,780,796,797,797,812,830,830,830,846,847,862,864,864,879,897,898,898,913,914,929,929,946,962,963,979,979,996,997,1013,1029,1030,1030,1046,1047,1062,1063,1079,1080,1080,1096,1097,1112,1129,1130,1146,1147,1162,1163,1179,1196,1197,1197,1212,1229,1229,1247,1248,1262,1263,1280,1281,1296,1297,1312,1313,1329,1346,1347,1362,1363,1379,1379,1412,1412,1429,1446,1447,1462,1480,1512,1529,1546,1547,1562,1580,1581,1596,1597,1597,1612,1613,1630,1630,1646,1647,1647,1647,1662,1663,1663,1679,1680,1680,1696,1698,1712,1713,1713,1746,1746,1762,1779,1779,1796,1812,1829,1846,1996,2012,2029,2029,2046,2062,2063,2063,2079,2080,2080,2096,2097,2097,2097,2097,2112,2113,2113,2114,2129,2130,2130,2146,2147,2147,2162,2163,2163,2179,2180,2196,2196,2197,2213,2214" d="m315,200c2.36401,-0.85066 2.76407,-1.48181 3.63599,-2.05066c0.6615,-0.43158 1.38919,-0.98656 1.96533,-1.552c0.80478,-0.78984 1.17496,-1.21353 1.79868,-1.74017c0.96518,-0.81496 1.59802,-1.14015 2.60001,-1.65717c0.6033,-0.31131 1.26398,-0.63429 2.16666,-1.33333c0.53345,-0.4131 1.3157,-1.16338 1.82352,-1.66133c0.68082,-0.66762 1.35916,-1.35469 1.97781,-1.97334c0.57501,-0.575 1.30402,-1.30402 1.85333,-1.85333c0.58136,-0.58134 1.47763,-1.47923 1.77734,-1.776c0.58893,-0.5831 1.13043,-1.172 2.23468,-2.06934c0.46854,-0.38074 1.38226,-0.93445 2.33331,-1.33333c0.51239,-0.21489 1.37012,-0.47804 2.14935,-0.97067c0.80582,-0.50943 1.45245,-1.28566 1.90933,-1.77866c0.45258,-0.48836 1.44965,-1.30063 2.01065,-1.58934c0.85376,-0.43938 1.7738,-0.81036 2.65952,-1.314c0.59042,-0.33571 1.4118,-0.87569 2.18298,-1.32584c0.67923,-0.39648 1.53534,-0.79132 2.517,-1.326c0.57794,-0.31479 1.33835,-1.05812 1.94617,-1.67467c0.47977,-0.48666 1.50745,-0.8698 2.13434,-0.95949c0.9624,-0.13771 2.09286,-0.21272 2.78235,-0.58217c0.91629,-0.491 1.57767,-0.9769 2.14297,-1.3645c0.82346,-0.56461 1.37466,-1.1682 2.08401,-1.54533c0.95099,-0.5056 1.83752,-0.53264 2.716,-0.65201c0.90085,-0.12242 1.78427,-0.35753 2.64151,-0.56467c1.03165,-0.24928 1.73676,-0.29196 2.64114,-0.43666c1.00574,-0.1609 1.79013,-0.43439 2.54666,-0.632c0.95819,-0.25029 1.73843,-0.24403 2.77469,-0.293c0.74582,-0.03525 1.68964,-0.28894 2.34399,-0.84166c0.64853,-0.54781 1.41656,-1.00732 2.19232,-1.12851c0.85684,-0.13383 1.76123,-0.22928 2.64767,-0.44617c0.85666,-0.20959 1.88635,-0.4825 2.58533,-0.53867c0.90707,-0.07288 1.90802,-0.036 2.7045,-0.036c0.7515,0 1.87018,0 2.85419,0c0.672,0 1.66132,0 2.69867,0c0.77332,0 1.73599,0 2.46799,0c0.73199,0 1.84933,0 2.83334,0c0.672,0 1.66132,0 2.69733,0c0.7175,0 1.62201,0 2.48532,0c0.98401,0 1.80551,0 2.69467,0c0.98917,0 1.76849,0 2.76782,0c0.82019,0 1.69351,0 2.56418,0c0.95734,0 1.69073,-0.04785 2.65201,0.0045c0.77637,0.04228 1.83411,0.30226 2.55466,0.64217c0.95367,0.44987 1.35962,1.08231 1.99884,1.64349c0.81567,0.71611 1.67166,0.59787 2.49466,1.067c0.86292,0.49187 1.2355,1.23108 2.24118,1.56017c0.6705,0.21942 1.6171,0.662 2.10532,1.23201c0.59579,0.69556 1.59137,0.98526 2.23602,1.28667c0.70776,0.33092 1.48688,1.04199 2.27481,1.44283c0.74619,0.37959 1.5621,0.82069 2.07449,1.3065c0.81949,0.77698 1.41467,1.40401 2.02667,2.01601c0.55585,0.55583 1.2641,1.30139 1.79868,1.77783c0.80649,0.71881 1.71304,0.85667 2.38934,1.45683c0.69543,0.61714 0.73306,1.48462 1.3205,2.21666c0.44193,0.55072 1.26932,1.32518 1.87949,1.93668c0.61002,0.61134 1.07721,1.31137 1.396,2.22533c0.3031,0.869 1.04126,1.07268 1.99301,1.1855c0.86502,0.10255 1.34253,0.86407 1.97351,1.35249c0.66025,0.51109 1.39999,0.64027 2.41217,0.64734c0.94501,0.00661 1.62518,0.13559 2.40399,0.56934c0.75137,0.41847 1.46121,0.95175 2.26266,1.54399c0.71503,0.52837 1.6358,0.83157 2.25198,0.912c1.05124,0.13721 2.0242,0.31502 2.6965,0.51634c0.66498,0.19913 1.78143,0.75264 2.33417,1.28366c0.68561,0.65866 1.43661,1.33388 2.20752,1.633c0.77966,0.30252 1.79544,0.44569 2.45831,0.54167c1.02368,0.14822 1.87399,0.35553 2.53552,0.88667c0.82153,0.65964 1.01474,1.66489 1.896,2.04132c0.83994,0.35878 1.79706,-0.00992 2.52798,0.49734c0.66013,0.45815 1.47073,0.56129 2.06134,1.07466c0.6712,0.58345 0.98199,1.36082 1,2.33333c0.01401,0.75589 0.06421,1.75005 -0.44318,2.48801c-0.52054,0.7571 -0.98218,1.09258 -1.97849,1.65733c-0.79611,0.45129 -1.43317,0.62723 -2.745,1.188c-0.72064,0.30806 -1.45038,0.66469 -1.8125,0.85416c-0.71585,0.37456 -1.98773,1.16652 -2.51102,1.57918c-0.73865,0.58247 -1.1806,1.01509 -2.1925,1.79999c-0.52591,0.40794 -1.34464,0.96057 -1.98398,1.60001c-0.56271,0.56282 -1.07532,1.42477 -1.87601,1.9785c-0.66306,0.45854 -1.49112,0.64235 -2.31451,1.12167c-0.80188,0.4668 -1.46414,1.22116 -1.96817,1.72516l-0.52197,0.522l-0.76733,0.76599l-0.68402,0.60001" id="svg_1" stroke-width="2" stroke="#000" fill="none"/>
  <path t="2542,2746,2746,2746,2779,2779,2812,2813,2829,2847,2847,2862,2863,2879,2879,2879,2880,2896,2896,2896,2896,2912,2913,2913,2913,2929,2929,2930,2930,2946,2946,2946,2962,2963,2979" d="m445,188c-4.61417,7.2495 -4.98962,7.98364 -5.73917,8.6685c-0.67529,0.617 -1.61624,0.82985 -2.09018,1.81549c-0.30621,0.63683 -0.26187,1.76373 -0.17032,2.61618c0.08582,0.79883 0.70383,1.56647 1.22101,2.11049c0.76392,0.8036 1.38315,1.39383 1.7995,1.81017c0.66452,0.66449 1.39783,1.40338 1.93631,1.93184c0.56076,0.55034 1.1311,1.11357 2.04285,1.88066c0.58844,0.49509 1.21121,0.91467 2.04285,1.61934c0.81271,0.68863 1.27646,1.22615 1.93631,2.0265c0.41931,0.50858 1.20929,1.39226 1.81018,1.8595c0.54352,0.42265 1.32532,1.144 1.79999,1.8l0.70618,0.7515" id="svg_2" stroke-width="2" stroke="#000" fill="none"/>
  <path t="3400,3479,3480,3480,3496,3496,3512,3529,3529,3529,3545,3546,3546,3546,3565,3565,3579,3579,3579,3596,3596,3612,3612,3613,3629,3629,3629,3629,3629,3646,3647,3647,3647,3662,3662,3663,3679,3679,3679,3679,3695,3696,3696,3712,3713,3713,3730,3730,3730,3730,3746,3746,3746,3762,3763,3763,3779,3779,3779,3796,3796,3812,3813,3813,3830,3830,3830,3846,3846,3846,3862,3863,3863,3879,3879" d="m390,186c-6.05865,-0.91333 -6.92416,-1.02361 -7.59467,-0.91333c-1.02185,0.16808 -1.8027,0.43301 -2.64816,0.86966c-0.82822,0.42773 -1.16251,1.35399 -1.39316,1.87567c-0.51874,1.17334 -0.82983,1.77649 -1.36401,2.62633c-0.33603,0.53461 -1.06519,1.3425 -1.45834,2.04167c-0.55109,0.97998 -0.51974,1.76089 -0.53717,2.55183c-0.02261,1.02643 -0.07776,1.94528 0.16217,2.94817c0.14746,0.61635 0.66327,1.45192 1.33334,2c0.81613,0.66756 1.5405,1.00208 2.25635,1.39999c0.36172,0.20107 1.41592,0.81042 2.40765,1.37868c0.62149,0.35611 1.20648,0.7484 2.43732,1.05066c0.59946,0.14722 1.55582,0.16617 2.56534,0.17067c0.716,0.00319 1.8125,0 2.5235,0c0.9765,0 2.04852,0.00012 2.75803,0c0.97333,-0.00017 1.79593,0.03624 2.65631,-0.11433c0.90808,-0.15894 1.8046,-0.57048 2.35385,-0.92734c0.79956,-0.51947 1.63104,-1.32321 1.97916,-1.97916c0.33704,-0.63509 0.50012,-1.66306 0.54166,-2.5c0.04364,-0.87964 0.02084,-2.07651 0.02084,-2.65784c0,-0.80701 0.00006,-2.02051 0,-2.68384c-0.00009,-0.9015 0.01248,-1.81482 -0.03601,-2.4615c-0.0885,-1.17992 -0.36679,-2.03221 -0.93597,-2.55733c-0.73538,-0.67845 -1.55917,-1.13643 -2.13702,-1.466c-1.1705,-0.6676 -1.78198,-0.89099 -2.61899,-1.20599l-0.93866,-0.28l-0.83334,-0.14584" id="svg_3" stroke-width="2" stroke="#000" fill="none"/>
  <path t="4248,4412,4412,4412,4429,4429,4429,4446,4446,4446,4447,4462,4463,4463,4479,4479,4479,4495,4496,4512" d="m384,185c2.60449,1.65717 3.00879,2.03491 3.68533,2.60133c0.98032,0.82077 1.55237,1.18242 2.05334,1.63466c0.97556,0.88068 1.345,1.42429 1.69882,2.28484c0.23416,0.56955 0.46722,1.77687 0.52649,2.6685c0.05664,0.8522 0.03601,1.88918 0.03601,2.57468c0,0.83466 0,1.8315 0,2.75066l0,0.96451" id="svg_4" stroke-width="2" stroke="#000" fill="none"/>
  <path t="4948,5078,5079,5079,5096,5097,5097,5097,5112,5113,5113,5128,5129,5129,5130,5130,5146,5147" d="m455,221c-2.74399,4.23199 -2.96503,4.9984 -2.996,5.76801c-0.04831,1.20036 -0.00299,1.89383 -0.04001,2.61732c-0.03748,0.73271 -0.23099,2.13576 -0.41064,2.78934c-0.18042,0.65637 -0.7149,1.99428 -1.03601,2.70667c-0.32681,0.72504 -0.65601,1.42134 -0.948,2.064l-0.45502,1.18767l-0.11166,0.74834" id="svg_5" stroke-width="2" stroke="#000" fill="none"/>
  <path t="5349,5461,5462,5462,5462,5479,5479,5479,5479,5496,5496,5496,5511,5512,5512,5528,5529,5529,5529,5546,5546,5546,5546,5561,5562,5562,5578,5578,5595,5596,5596,5596,5611,5612,5613,5613,5628,5629,5629,5629,5646,5647,5647,5647,5661,5662,5662,5662,5678,5678,5679,5679,5696,5697,5697,5697,5711,5712,5712,5712,5712,5728,5728,5729,5729,5746,5746,5746,5747,5747,5761,5762,5762,5778,5779,5779,5779,5779,5795,5796,5796,5796,5811,5812,5812,5812,5812,5828,5829,5829,5829,5845,5846,5846,5846,5847,5863,5863,5863,5863,5863,5878,5879,5879,5879,5879,5895,5895,5896,5896,5896,5912,5912,5912,5913,5928,5929,5929,5929,5929,5946,5946,5946,5947,5947,5962,5962,5962,5963,5963,5978,5979,5979,5979,5979,5980,5996,5996,5996,5997,5997,6013,6013,6014,6014,6014,6014,6028,6029,6029,6029,6029,6030,6030,6045,6046,6046,6047,6047,6047,6062,6063,6063,6063,6063,6064,6261,6261,6261,6261,6261,6261,6261,6261,6267,6267,6267,6267,6267,6267,6268,6268,6268,6278,6278,6279,6279,6279,6279,6279,6279,6280,6304,6304,6305,6305,6305,6305,6305,6305,6305,6322,6322,6322,6322,6323,6323,6323,6323,6323,6345,6345,6345,6345,6345,6345,6346,6346,6346,6349,6349,6349,6349,6350,6350,6350,6350,6351,6379,6380,6380,6381,6381,6381,6381,6381,6382" d="m453,225c-3.51401,5.93567 -3.83423,6.72397 -3.95734,7.804c-0.07684,0.674 -0.04266,1.71733 -0.04266,2.44867c0,0.74733 0,1.86333 0,2.92566c0,0.66 0,1.575 0,2.655c0,0.71851 0,1.6765 0,2.80951c0,0.66699 0,1.37799 0,2.10899c0,1.42667 0,2.091 0,3.03751c0,0.60933 0,1.80933 0,2.68983c0,0.56366 0,1.83682 0,2.52083c0,1.16667 0,1.96167 0,2.54166c0,0.94501 0,1.97968 0,2.711c0,0.74734 0,1.86334 0,2.92603c0,0.66864 0,1.64667 0,2.30533c0,1.03751 0,2.15198 0,2.92667c0,0.79065 0,1.98917 0,2.78482c0,0.78366 0,1.54733 0,2.63785c0,0.68265 0,1.66666 0,2.31934c0,1.36884 0,2.10449 0,2.86816c0,0.78366 0,1.97916 0,2.77914c0,0.80002 0,1.60001 0,2.40002c0,1.19998 0,2 0,2.79999c0,0.79999 0,2 0,2.79868c0,0.79065 0,1.56534 0,2.31598c0,1.06403 0,2.06 0,2.71069c0,1.34131 0,2.06 0,2.81064c0,0.77469 0.00317,1.56534 -0.00015,2.76401c-0.00223,0.80002 -0.00244,1.60104 -0.05701,2.39999c-0.08209,1.20221 -0.22296,2.0007 -0.36816,2.80002c-0.14548,0.80069 -0.32336,1.59604 -0.45319,2.79999c-0.08606,0.79797 -0.10733,1.59988 -0.117,2.39999c-0.0145,1.19992 0.00192,2.00146 -0.01517,2.81067c-0.01743,0.82556 -0.04941,1.67749 -0.211,3.01068c-0.05621,0.46384 -0.2103,1.4072 -0.42499,2.35333c-0.10764,0.4744 -0.50919,1.86261 -0.836,2.73999c-0.16022,0.43018 -0.52155,1.25537 -0.8075,2.08084c-0.41309,1.19244 -0.5563,2.0025 -0.6485,2.8045c-0.0918,0.79834 -0.11237,1.6041 -0.28284,2.79999c-0.1145,0.80331 -0.29303,1.60147 -0.483,2.39999c-0.28601,1.2023 -0.49451,2.00061 -0.60001,2.40002c-0.21167,0.80124 -0.42349,1.61032 -0.86215,2.79999c-0.29773,0.8075 -0.66205,1.59854 -1.008,2.39999c-0.3447,0.79858 -0.66705,1.59711 -0.94269,2.40134c-0.27643,0.80649 -0.52548,1.64163 -0.85199,2.48401c-0.3446,0.88907 -0.7952,1.80118 -1.0405,2.26733c-0.50122,0.95255 -0.77646,1.42148 -1.3075,2.36331c-0.51694,0.91684 -1.00095,1.79678 -1.44669,2.64801c-0.21692,0.41425 -0.63159,1.23148 -1.23599,2.436c-0.40274,0.80264 -0.60187,1.21277 -1.04166,2.04166c-0.46518,0.87671 -0.71457,1.33765 -1.60101,2.80103c-0.32013,0.5285 -0.66214,1.06299 -1.008,1.60797c-0.69763,1.09933 -1.04681,1.64227 -1.38135,2.18134c-0.64001,1.03134 -1.20023,1.99857 -1.71732,2.90668c-0.25079,0.44043 -0.74841,1.31418 -1.01868,1.74399c-0.85135,1.354 -1.19867,1.8056 -1.54633,2.27451c-0.71909,0.96985 -1.10529,1.45486 -1.49466,1.94733c-1.18579,1.49966 -1.59061,1.99625 -1.99368,2.49686c-0.40561,0.50372 -0.8129,1.01413 -1.66931,2.03467c-0.43942,0.52362 -0.88522,1.06146 -1.86136,2.13065c-0.5166,0.56586 -1.12494,1.18591 -1.95898,1.81201c-1.0466,0.78568 -2.48129,1.63889 -4.353,2.604c-2.34387,1.20856 -5.29214,2.60229 -13.35468,5.91733c-5.17172,2.12643 -11.05386,4.37747 -17.4375,6.7995c-6.71606,2.54816 -13.62024,5.10938 -20.54251,7.63651c-6.76285,2.46893 -13.19958,4.82806 -24.51999,8.73065c-4.55075,1.56882 -8.38187,2.8299 -11.57849,3.7995c-2.61981,0.79465 -4.76773,1.38193 -6.52951,1.7565c-1.43594,0.3053 -2.65228,0.48358 -4.72534,0.61069c-1.00842,0.06183 -2.03458,0.08493 -3.07199,0.1095c-1.04523,0.02475 -2.09464,0.0383 -3.14401,0.04648c-1.04532,0.00815 -2.08264,0.01001 -4.11731,0.01068c-0.99002,0.00034 -1.96002,0 -2.91,0c-0.92999,0 -1.84,0 -2.73001,0c-0.87,0 -1.72,0 -3.35999,0c-0.79068,0 -1.56534,0 -2.328,0c-0.75467,0 -1.50534,0 -2.25601,0c-0.75467,0 -1.51733,0 -3.08267,0c-0.80966,0 -1.63733,0 -2.48099,0c-0.85767,0 -1.72733,0 -2.60699,0l-0.88766,0l-0.89368,0" id="svg_6" stroke-width="2" stroke="#000" fill="none"/>
  <path t="6767,6895,6895,6895,6895,6911,6912,6912,6912,6912,6928,6928,6928,6928,6928,6928,6945,6945,6946,6946,6946,6961,6962,6962,6962,6962,6978,6978,6978,6978,6978,6995,6995,6996,6996,7011,7012,7012,7028,7028,7028,7045,7045,7062,7062,7078,7078,7095,7095,7128,7128,7161,7178" d="m331,190c-5.27832,2.636 -6.1391,2.8381 -6.95834,3c-0.78073,0.1543 -1.89825,0.45865 -2.55899,0.85733c-0.6951,0.41942 -1.34555,1.00888 -2.052,1.632c-0.76572,0.67542 -1.59729,1.3945 -2.02701,1.76784c-0.4343,0.37732 -1.29599,1.1387 -1.68399,1.54733c-1.09695,1.15529 -1.35876,1.58107 -1.8045,2.38649c-0.41776,0.75484 -0.67706,1.5616 -1.41516,2.47568c-0.49756,0.61618 -1.19705,1.08305 -1.896,1.584c-0.72238,0.51773 -1.46292,1.05643 -2.116,1.71866c-0.65744,0.66664 -1.21628,1.40837 -1.46918,1.7825c-0.71707,1.06081 -1.05368,1.75954 -1.49799,2.7065c-0.27158,0.57881 -0.832,1.62781 -1.34619,2.31635c-0.51196,0.68558 -1.0354,1.37823 -1.41748,2.17349c-0.37378,0.77797 -0.7785,1.70659 -1.14651,2.3905c-0.5202,0.96677 -0.43164,1.77444 -1.05331,2.63983c-0.4371,0.60847 -1.34409,1.10936 -1.6055,1.77867c-0.34412,0.88103 -0.59918,1.59016 -0.91583,2.60683l-0.0405,0.9315" id="svg_7" stroke-width="2" stroke="#000" fill="none"/>
  <path t="7317,7461,7461,7461,7461,7478,7479,7479,7495,7495,7495,7495,7511,7511,7512,7528,7528,7528,7545,7545,7545,7561,7561,7578,7578,7578,7578,7578,7595,7595,7595,7596,7596,7596,7596,7596,7620,7620,7620,7621,7621,7621,7621,7621,7621,7646,7646,7646,7646,7646,7646,7647,7647,7647,7648,7648,7648,7648,7649,7649,7649,7649,7649" d="m295,230c-3.51416,7.03517 -3.78632,8.01752 -3.86667,8.47067c-0.14578,0.82217 -0.25534,2.20763 -0.49051,3.0195c-0.21356,0.73724 -0.64331,1.67632 -0.94733,2.467c-0.21667,0.56352 -0.55457,1.4574 -1.01682,2.3425c-0.31378,0.60085 -0.83112,1.44432 -1.51202,2.367c-0.39676,0.53763 -0.98737,1.29062 -1.36798,2.10133c-0.33942,0.72298 -0.59943,1.53508 -1.284,2.26399c-0.65265,0.69492 -1.52011,1.29636 -1.92136,1.74001c-0.70715,0.78186 -0.94443,1.11638 -1.62,1.716c-1.2312,1.0928 -1.79956,1.40469 -2.36816,1.77817c-0.60324,0.39621 -1.25018,0.79764 -1.93051,1.21649c-0.71063,0.43753 -1.45618,0.8826 -3.008,1.85068c-0.81186,0.50647 -1.63977,1.03625 -2.48099,1.59c-0.86017,0.56622 -1.73068,1.15521 -2.60699,1.76999c-0.89108,0.62515 -1.7951,1.26199 -3.57867,2.64001c-0.90762,0.70123 -1.80847,1.43729 -2.7135,2.19897c-0.9231,0.77689 -1.85287,1.58835 -2.79449,2.43301c-0.9675,0.86789 -1.95654,1.76962 -3.992,3.70132c-1.07034,1.01578 -2.16792,2.08273 -3.3075,3.19351c-1.18715,1.15717 -2.42168,2.36899 -3.71251,3.63449l-1.35083,1.32352l-1.41583,1.38449" id="svg_8" stroke-width="2" stroke="#000" fill="none"/>
  <path t="7714,7761,7761,7761,7761,7761,7761,7761,7761,7761,7783,7783,7783,7783,7783,7783,7783,7783,7783,7808,7808,7808,7808,7808,7808,7808,7808,7838,7855,7855,7855,7855,7855,7855,7862,7862,7862,7862,7862,7862,7862,7862,7862,7879,7879,7879,7879,7879,7879,7879,7879,7879,7895,7895,7895,7895,7895,7896,7896,7896,7896,7911,7912,7912,7912,7912,7912,7912,7913,7913,7928,7928,7928,7928,7929,7929,7929,7929,7929,7945,7945,7946,7946,7946,7946,7946,7946,7946,7961,7962,7962,7962,7962,7963,7963,7963,7963,7978,7978,7978,7978,7979,7979,7979,7979,7979,7995,7995,7996,7996,7996,7996,7996,7997,7997,8011,8012,8012,8012,8013,8013,8013,8013,8013,8028,8028,8028,8028,8029,8029,8029,8029,8029,8045,8045,8046,8046,8046,8047,8047,8047,8047,8061,8062,8062,8063,8063,8063,8063,8063,8063,8089,8089,8089,8089,8089,8089,8089,8089,8090,8105,8105,8105,8105,8106,8106,8106,8106,8106" d="m127,414c-11.33334,11.83334 -12.32045,12.97162 -13.25333,14.10666c-0.90695,1.10349 -1.76415,2.19012 -2.58,3.2475c-0.784,1.01608 -1.52068,1.99783 -2.21999,2.9325c-1.28125,1.7124 -1.85915,2.48462 -2.40134,3.19736c-0.50223,0.66019 -0.9695,1.26788 -1.3995,1.82849c-0.39532,0.51538 -0.75922,0.98685 -1.0845,1.42349c-0.56638,0.76028 -0.7999,1.09717 -1.004,1.40668c-0.18427,0.27942 -0.34223,0.53665 -0.474,0.77399c-0.11857,0.21356 -0.94954,0.73511 -0.4375,1.52084c0.48283,0.74094 1.57101,0.21057 2.48083,0.0585c0.52151,-0.08719 1.66206,-0.3616 2.26667,-0.55466c1.28378,-0.40994 1.93191,-0.69748 2.592,-0.99734c0.67576,-0.30698 1.35318,-0.64719 2.0355,-1.0065c0.69242,-0.36462 1.38496,-0.74872 2.0805,-1.14151c1.40128,-0.79138 2.09945,-1.19525 2.8,-1.59866c0.70378,-0.40527 1.41087,-0.81607 2.1195,-1.23898c0.71672,-0.42773 1.44012,-0.8667 2.1645,-1.32901c1.48921,-0.95044 2.23904,-1.46924 3.004,-2.00266c0.78378,-0.54654 1.57995,-1.11826 2.394,-1.71002c0.83665,-0.60818 1.69278,-1.23984 2.574,-1.88998c1.84291,-1.35968 2.80724,-2.06973 3.79866,-2.79868c1.01558,-0.7467 2.05292,-1.5094 3.10651,-2.2905c1.07043,-0.79358 2.15382,-1.59995 3.2415,-2.42551c2.20172,-1.67114 3.2975,-2.53201 4.39867,-3.39734c1.10753,-0.87033 2.21797,-1.75153 3.339,-2.6355c1.12962,-0.89072 2.26865,-1.78885 3.429,-2.68048c2.35457,-1.80927 3.56999,-2.70291 4.804,-3.60135c1.25029,-0.91031 2.52754,-1.8212 3.8295,-2.73898c1.32336,-0.93289 2.67531,-1.87415 4.05449,-2.82901c2.83923,-1.9657 4.30542,-2.97256 5.79601,-3.99866c1.51205,-1.04089 3.04224,-2.09265 4.58701,-3.15152c1.55388,-1.06512 3.11369,-2.13239 4.677,-3.1965c3.11275,-2.1188 4.65939,-3.16245 6.19865,-4.19864c1.53374,-1.03247 3.06723,-2.05984 4.6035,-3.08401c1.53973,-1.02649 3.08789,-2.05435 4.6485,-3.08401c3.16174,-2.08606 4.77254,-3.13721 6.39334,-4.19733c1.62453,-1.06253 3.24605,-2.12155 4.854,-3.177c1.58937,-1.04324 3.1521,-2.0705 4.674,-3.08698c2.91466,-1.94672 4.28314,-2.88782 5.604,-3.80267c1.28677,-0.89124 2.5435,-1.77481 3.7845,-2.65201c1.23767,-0.87482 2.47882,-1.75919 3.7395,-2.65201c2.6129,-1.85046 3.98625,-2.81439 5.40266,-3.79733c1.44456,-1.00247 2.91289,-2.00995 4.39949,-3.009c1.48543,-0.99826 2.96579,-1.98062 4.4445,-2.91898c2.85422,-1.81122 4.24472,-2.621 5.588,-3.39734c1.29686,-0.74948 2.56055,-1.45502 3.78,-2.142c1.18054,-0.66507 2.32808,-1.30444 3.42,-1.96201c2.09581,-1.26212 3.06694,-1.93301 4.00267,-2.60266c0.91289,-0.65332 1.782,-1.31842 2.619,-1.97702c0.8136,-0.6402 1.59097,-1.27679 2.349,-1.88699c1.43942,-1.15872 2.12906,-1.6951 2.80533,-2.19598c0.65256,-0.48331 1.29434,-0.93585 1.92902,-1.35452c0.61618,-0.40649 1.22614,-0.78778 1.83899,-1.12949c1.19043,-0.66376 1.80002,-0.93655 2.39868,-1.20532c0.58841,-0.26419 1.172,-0.50803 1.74149,-0.7485l0.5545,-0.2355l0.5365,-0.23352l0.5155,-0.2345" id="svg_9" stroke-width="2" stroke="#000" fill="none"/>
  <path t="8414,8477,8478,8478,8478,8478,8478,8478,8478,8495,8495,8495,8495,8495,8495,8496,8496,8496,8511,8511,8511,8511,8511,8512,8512,8513,8513,8527,8528,8528,8528,8528,8528,8529,8529,8529,8545,8545,8545,8545,8545,8546,8546,8546,8546,8561,8561,8562,8562,8562,8562,8562,8562,8562,8577,8578,8578,8578,8578,8578,8579,8579,8579,8595,8595,8595,8595,8595,8596,8596,8596,8596,8611,8611,8611,8611,8611,8612,8612,8612,8612,8628,8628,8628,8628,8628,8629,8629,8629,8629,8645,8645,8646,8646,8646,8646,8647,8647,8647,8661,8661,8661,8662,8662,8662,8662,8662,8663,8677,8678,8678,8678,8678,8679,8679,8679,8679" d="m252,279c-5.06467,4.17883 -5.65451,4.52261 -6.276,4.85184c-0.63982,0.33896 -1.30714,0.66937 -1.992,1.00949c-0.70248,0.34888 -1.42914,0.69308 -2.89867,1.47202c-0.75961,0.40265 -1.52716,0.83725 -2.3085,1.29898c-0.80681,0.47678 -1.6321,0.98782 -2.47949,1.53302c-0.88174,0.56729 -1.79642,1.16647 -3.71201,2.50131c-1.0247,0.71405 -2.08531,1.47861 -3.18449,2.29352c-1.15036,0.85284 -2.34146,1.76245 -3.5715,2.7345c-1.28656,1.01669 -2.62781,2.08627 -5.41066,4.47198c-1.48395,1.27219 -2.99617,2.62473 -4.548,4.02902c-1.59229,1.44092 -3.20422,2.92691 -4.836,4.44299c-1.65025,1.53323 -3.30464,3.08466 -6.616,6.19467c-1.64499,1.54498 -3.28015,3.07968 -4.89601,4.61398c-1.60545,1.52441 -3.19325,3.04663 -4.752,4.578c-1.54857,1.52136 -3.09071,3.03076 -6.01866,6.14133c-1.45035,1.5408 -2.85066,3.1113 -4.233,4.68152c-1.37497,1.56183 -2.72507,3.1312 -4.071,4.69049c-1.3394,1.55173 -2.65694,3.11017 -5.36267,6.12799c-1.34409,1.49911 -2.70964,2.9635 -4.07249,4.41c-1.35052,1.43344 -2.69856,2.83978 -4.0275,4.23001c-1.30939,1.36978 -2.60916,2.70526 -5.06667,5.35999c-1.18837,1.28375 -2.33209,2.56076 -3.438,3.83252c-1.09137,1.25504 -2.1526,2.51572 -3.186,3.78748c-1.03195,1.26996 -2.05849,2.55078 -4.04266,5.21335c-1.00999,1.35532 -1.99835,2.74313 -2.97749,4.14001c-0.97418,1.3898 -1.92174,2.77435 -2.84251,4.13998c-0.89749,1.33112 -1.75861,2.62323 -3.34666,5.05334c-0.72826,1.11441 -1.40723,2.16763 -2.0475,3.16199c-0.60637,0.94168 -1.18097,1.83844 -1.7325,2.694c-0.53017,0.82242 -1.04016,1.6203 -2.05333,3.14401c-0.49666,0.74692 -0.99663,1.48007 -1.4955,2.2005c-0.49182,0.71024 -0.98184,1.40497 -1.46851,2.0835c-0.47704,0.6651 -0.94582,1.31427 -1.86932,2.54932c-0.44235,0.59158 -0.87682,1.15909 -1.29601,1.70551c-0.40216,0.52423 -0.78801,1.02316 -1.15199,1.4985c-0.34331,0.44833 -0.66951,0.86475 -1.21867,1.62933c-0.23925,0.33313 -0.4477,0.6438 -0.633,0.93301c-0.17187,0.26825 -0.32533,0.52533 -0.47099,0.771l-0.13967,0.23965l-0.13766,0.23767" id="svg_10" stroke-width="2" stroke="#000" fill="none"/>
  <path t="8981,9128,9128,9128,9145,9145,9145,9145,9161,9161,9161,9161,9178,9178,9195,9195,9211,9227,9245,9245,9261,9277,9278,9294,9294,9294,9311,9311,9311,9311,9311,9327,9327,9328,9328,9328,9345,9346,9346,9346,9346,9346,9346,9361,9361,9362,9362,9362,9362,9362,9362,9362,9377,9378,9378,9378,9378,9378,9378,9378,9378,9394,9395,9395,9395,9395,9395,9396,9396,9396,9411,9411,9411,9411,9412,9412,9412,9412,9412,9427,9427,9428,9428,9428,9428,9428,9428,9429,9444,9445,9445,9445,9446,9446,9446,9446,9446,9461,9461,9461,9462,9462,9462,9462,9462,9462,9477,9478,9478,9478,9478,9479,9479,9479,9479,9527,9528,9528,9528,9529,9529,9529,9529,9529" d="m191,387c0.57201,4.23065 1.04742,4.99258 1.46617,5.44818c0.92274,1.00397 1.49234,1.49939 2.013,2.07266c0.52155,0.57425 1.2002,1.47156 1.55283,2.07516c0.4857,0.83139 0.84241,1.69839 1.73466,2.14932c0.66373,0.33542 1.93024,0.30807 2.22934,1.056c0.34076,0.85208 0.76566,1.19641 1.65666,1.19867c0.86334,0.00217 1.84734,0 2.83267,0c0.72533,0 1.71516,0 2.57716,0c0.7935,0 1.80183,0 2.60451,0c0.87466,0 1.78932,0.00003 2.25166,0c1.36034,-0.00009 2.23781,0.00208 3.123,-0.02084c0.45576,-0.01178 1.41423,-0.04987 2.45833,-0.14581c1.15894,-0.10648 1.77708,-0.19708 2.41867,-0.30133c0.66586,-0.10818 2.05617,-0.39227 2.77066,-0.58936c1.48671,-0.4101 2.23677,-0.6976 3.00134,-1.00266c0.7887,-0.31467 1.59142,-0.67276 2.4135,-1.065c0.85411,-0.40753 1.73239,-0.85352 2.63849,-1.33499c1.93137,-1.02628 2.94432,-1.60202 3.996,-2.19467c1.08237,-0.60995 2.18492,-1.24109 3.30301,-1.88699c1.12993,-0.65274 2.26282,-1.31326 3.39299,-1.97702c2.23366,-1.31186 3.32336,-1.95898 4.39734,-2.59866c1.06335,-0.63336 2.11845,-1.26617 3.168,-1.9035c1.05177,-0.63867 2.10756,-1.28543 3.168,-1.94849c2.16989,-1.35675 3.2757,-2.07269 4.40399,-2.80002c1.1474,-0.73962 2.30963,-1.49362 3.49051,-2.2515c1.19376,-0.76614 2.39957,-1.53757 3.62549,-2.29648c2.47046,-1.52936 3.73013,-2.26578 4.99335,-2.99469c1.25949,-0.72678 2.52066,-1.43433 3.77701,-2.12549c1.24234,-0.68347 2.47278,-1.34723 3.68698,-1.99051c2.35101,-1.24557 3.4899,-1.82938 4.59735,-2.40265c1.08124,-0.55972 2.1398,-1.10583 3.17398,-1.6485c1.01648,-0.53339 2.0166,-1.06183 2.99402,-1.60352c1.93054,-1.06989 2.86929,-1.63458 3.79865,-2.19733c0.91766,-0.55566 1.81213,-1.11313 2.68652,-1.6575c0.84961,-0.52896 1.66733,-1.04437 2.46149,-1.52249c1.4693,-0.88458 2.15265,-1.26071 2.79868,-1.59601c0.60294,-0.31293 1.17538,-0.58615 1.71899,-0.819c0.50739,-0.21735 0.98892,-0.40405 1.44901,-0.54901c0.83636,-0.26352 1.2309,-0.34067 1.60001,-0.40265c0.3425,-0.0575 0.66132,-0.08002 0.95099,-0.09l0.25967,0.00998l0.22766,0.03l0.19366,0.05002" id="svg_11" stroke-width="2" stroke="#000" fill="none"/>
  <path t="9848,9961,9961,9961,9961,9961,9977,9977,9978,9978,9978,9978,9978,9978,9994,9995,9995,9995,9995,9995,9995,9995,9995,10010,10011,10011,10011,10011,10011,10011,10011,10011,10027,10028,10028,10028,10028,10028,10028,10028,10028,10044,10045,10045,10045,10045,10045,10045,10045,10046,10061,10061,10061,10061,10061,10062,10062,10062,10062,10077,10078,10079,10079,10079,10079,10079,10079,10079" d="m388,246c-2.68799,1.14267 -3.25952,1.75276 -3.5625,2.10417c-0.66116,0.76686 -0.99561,1.19884 -2.18066,2.51782c-0.42392,0.47182 -0.87589,0.94847 -1.33951,1.446c-0.48004,0.51514 -0.97702,1.04854 -1.48349,1.608c-0.52429,0.57915 -1.60419,1.82092 -2.15582,2.48901c-0.5712,0.6918 -1.15036,1.41864 -1.746,2.17499c-0.61713,0.78363 -1.25049,1.60016 -1.90802,2.44501c-0.68112,0.87515 -2.12302,2.71576 -2.88849,3.67999c-0.7905,0.99579 -1.60873,2.01862 -2.44351,3.07501c-0.85626,1.08359 -1.72833,2.19666 -2.6055,3.345c-0.89493,1.1716 -2.69138,3.61151 -3.58734,4.87967c-0.9108,1.28915 -1.82007,2.61243 -2.75247,3.95398c-0.94925,1.36578 -1.91907,2.75482 -2.93253,4.15201c-1.03311,1.42429 -3.2374,4.3042 -4.4205,5.75015c-1.20081,1.46756 -2.44492,2.92099 -3.69897,4.37253c-1.24997,1.44681 -2.4996,2.87021 -3.71701,4.2825c-1.19055,1.38113 -3.42163,4.04913 -4.427,5.33765c-0.96225,1.23325 -1.85284,2.43942 -2.68799,3.6105c-0.80261,1.12549 -1.55399,2.224 -2.27402,3.2865c-0.69589,1.02689 -2.01852,2.99191 -2.66699,3.92468c-0.63162,0.90851 -1.25705,1.78647 -1.875,2.6355c-0.60214,0.82727 -1.20001,1.62534 -1.785,2.40149l-0.57501,0.75317" id="svg_12" stroke-width="2" stroke="#000" fill="none"/>
  <path t="10464,10577,10578,10578,10578,10594,10595,10595,10595,10595,10595,10611,10612,10612,10612,10612,10612,10612,10627,10627,10628,10628,10628,10644,10645,10645,10645" d="m254,385c2.11865,4.51733 2.37982,5.19278 2.69733,5.86133c0.34021,0.7164 1.0647,1.88318 1.35468,2.31067c0.61975,0.91357 0.95679,1.38486 1.272,1.88535c0.64209,1.0195 1.19266,2.10251 1.41183,2.66382c0.43518,1.1145 0.57858,1.69318 0.74332,2.258c0.32385,1.11038 0.41946,1.67899 1.06384,3.17752c0.2063,0.47977 0.71692,1.35818 0.99866,1.75998c0.54449,0.77655 1.45834,1.75 2.05566,2.314l0.58136,0.50803l0.54932,0.47598" id="svg_13" stroke-width="2" stroke="#000" fill="none"/>
  <path t="11047,11194,11194,11194,11194,11194,11194,11195,11195,11211,11211,11211,11211,11211,11212,11212,11212,11227,11228,11228,11228,11228,11228,11228,11229,11244,11244,11245,11245,11245,11245,11245,11245,11260,11261,11261,11261,11262,11262,11262,11262,11277,11277,11277,11278,11278,11278,11279,11296,11296,11296,11297,11297,11297,11297,11310,11311,11311,11311" d="m228,393c6.16434,2.63599 6.85378,2.75491 7.567,2.84201c0.72951,0.08908 1.47495,0.15533 2.229,0.23398c0.76062,0.07932 1.53,0.13477 3.03732,0.42401c0.74921,0.14377 1.48245,0.34503 2.205,0.5625c0.71751,0.21594 2.11476,0.69818 2.8,0.93668c0.67477,0.23483 1.99284,0.67496 2.6405,0.85782c0.63647,0.17969 1.90544,0.47629 2.54199,0.60135c0.63948,0.12564 1.28824,0.23755 1.9485,0.33899c2.0712,0.31818 2.80009,0.40329 3.5405,0.50717c0.75159,0.10547 1.51144,0.21353 2.27551,0.33148c0.76691,0.11838 1.53503,0.23343 3.048,0.53067c0.74658,0.14667 1.48035,0.31442 2.20499,0.48151c0.71536,0.16495 1.41751,0.34235 2.80002,0.642c0.6738,0.14606 1.99393,0.38437 2.64014,0.46701c0.63522,0.08124 1.88538,0.18381 2.50067,0.22198c0.61002,0.03784 1.82047,0.09082 3.02084,0.1875c0.60022,0.04834 1.79117,0.18451 2.37866,0.25867c0.57986,0.07321 1.70636,0.22736 2.25067,0.29068c1.52567,0.17749 2.44733,0.22684 3.28732,0.26315l0.76001,0.01636" id="svg_14" stroke-width="2" stroke="#000" fill="none"/>
  <path t="11831,11994,11994,11994,11994,11994,12010,12011,12011,12011,12011,12011,12011,12011,12011,12027,12028,12028,12028,12028,12028,12028,12028,12028,12044,12044,12044,12044,12045,12045,12045,12045,12045,12060,12061,12061,12061,12061,12061,12061,12061,12077,12077,12077,12077,12077,12094,12094,12095,12095,12310,12310,12346,12346,12346,12460,12477,12494,12494,12495,12510,12510,12511,12511,12511,12527,12527,12527,12527,12528,12528,12528,12528,12544,12544,12544,12545,12545,12545,12545,12545,12560,12561,12561,12561,12561,12561,12577,12577,12577,12578,12578,12594,12594,12594,12660,12660,12677,12677,12694,12694,12694,12695,12695,12710,12710,12711,12711,12711,12711,12711,12727,12727,12728,12729,12729,12744,12745,12745,12745,12745,12745,12760,12761,12761,12777,12777,12794,12795,12795,12811,12811,12827,12828,12845,12846,12860,12861,12861,12877,12877,12877,12878,12878,12895,12895,12896,12896,12910,12910,12911,12911,12911,12911,12927,12927,12927,12928,12928,12928,12944,12944,12945,12960,12961,12962,13027,13027,13044,13060,13061,13061,13061,13076,13077,13077,13078,13094,13094,13095,13110,13111,13111,13127,13127,13128,13194,13194,13210,13210,13227,13227,13227,13228,13244,13244,13245,13245,13245,13246,13260,13260,13261,13261,13261,13276,13277,13277,13278,13278,13278,13279,13279,13295,13296,13296,13296,13296,13297,13310,13310,13311,13311,13327,13328,13328,13344,13344,13360,13361,13476" d="m380,387c-1.54132,-0.11334 -1.48126,0.72168 -1.39584,1.22916c0.19907,1.18274 0.35458,1.84161 0.72919,3.27084c0.20099,0.76678 0.43384,1.55664 0.67648,2.37149c0.24927,0.83719 0.51178,1.6908 0.77551,2.56052c0.26724,0.88126 0.5444,1.76849 1.048,3.56799c0.25134,0.89813 0.48428,1.79794 0.7095,2.6955c0.22409,0.8931 0.43753,1.78339 0.64648,2.66852c0.2074,0.87854 0.40662,1.75128 0.81067,3.46933c0.19867,0.84479 0.39777,1.67654 0.60001,2.49149c0.19781,0.79706 0.39639,1.57199 0.60001,2.3205c0.1965,0.72244 0.38257,1.4176 0.79999,2.68802c0.19171,0.5835 0.39578,1.12723 0.591,1.64249c0.18619,0.49139 0.3739,0.95929 0.53699,1.41751c0.31403,0.88223 0.56314,1.76923 0.70401,2.68933c0.14215,0.92856 0.13998,1.40018 0.27335,2.3075c0.18857,1.2829 0.43637,2.04803 0.74533,2.71649c0.40979,0.88663 1.01791,1.72992 1.14032,2.69867c0.12067,0.95514 0.0054,1.69467 0.009,2.42667c0.00534,1.08536 0.45679,1.75 1.33334,1.76801c0.9491,0.0195 1.52399,0 2.83331,0c0.724,0 1.51202,0 2.388,0c0.47852,0 2.112,-0.00143 2.73102,0.00049c0.65298,0.00201 1.33481,-0.00681 2.75598,0.06201c0.72955,0.03534 1.46454,0.08942 2.19302,0.19351c1.43802,0.20547 2.12622,0.39484 2.79333,0.59998c0.65741,0.20215 1.91296,0.69882 2.51465,0.97601c0.5947,0.27396 1.1759,0.55991 2.83566,1.46765c0.53714,0.29376 1.05753,0.59583 2.08002,1.15869c0.4938,0.27182 0.95932,0.57135 2.375,1.20831c0.86685,0.39001 1.70752,0.66696 2.48398,0.91202c0.70911,0.22379 1.66507,0.46509 2.40002,0.832c0.82816,0.41345 1.99487,1.24448 1.73999,2.01999c-0.23105,0.70303 -1.35461,0.56039 -2.62399,0.23599c-0.73532,-0.18793 -1.49017,-0.52924 -1.89584,-0.6875c-0.85529,-0.33365 -2.26895,-0.81934 -2.78018,-0.95798c-1.0589,-0.2872 -1.61075,-0.39569 -2.70667,-0.68253c-0.54675,-0.1431 -1.10825,-0.24399 -2.60782,-0.88132c-0.4826,-0.20511 -1.38089,-0.70911 -2.25751,-1.20667c-0.4332,-0.24588 -1.74649,-0.931 -2.20648,-1.10751c-0.9169,-0.35187 -1.85611,-0.58926 -2.3175,-0.68582c-0.88867,-0.18597 -2.11768,-0.33966 -3.168,-0.43201c-0.59982,-0.05273 -1.73547,-0.28302 -2.54401,-0.60001c-0.87732,-0.34396 -1.59955,-0.40369 -2.34399,-0.42084c-1.19971,-0.02765 -1.97333,-0.00449 -3.01068,-0.00449c-0.74399,0 -1.67267,-0.11459 -2.60931,0.03601c-0.89746,0.14432 -1.45972,0.50659 -2.15735,0.93597c-0.88681,0.54581 -1.53629,1.04236 -2.26965,1.52802c-0.76117,0.50409 -1.13757,0.77905 -2.35834,1.35751c-0.78613,0.3725 -1.6152,0.62976 -2.39999,1.00497c-1.22592,0.58612 -1.61368,0.88412 -2.40002,1.50452c-0.40726,0.32132 -1.19965,1.02936 -1.59998,1.38934c-1.19901,1.07813 -1.59457,1.42816 -2.39102,2.082c-0.76248,0.62595 -1.14145,0.90942 -1.83832,1.47498c-0.93372,0.75778 -1.70346,1.44565 -2.14935,1.87601c-0.83035,0.80142 -1.41681,1.40616 -1.98532,1.97467c-0.66934,0.66934 -1.27176,1.27585 -1.14267,1.17868c0.8616,-0.64865 1.31839,-1.00369 2.12799,-1.55334c0.5795,-0.39343 1.48953,-0.97375 2.36801,-1.60001c0.58215,-0.41501 1.15979,-0.84048 1.88916,-1.6105c0.7211,-0.76129 1.05344,-1.37097 1.92151,-2.24548c0.56067,-0.56485 1.24496,-0.91312 1.83334,-1.66669c0.4819,-0.61722 0.4938,-1.58539 1.26682,-2.30215c0.63354,-0.58746 1.75717,-0.36447 2.41867,-0.3645c1.12433,-0.00009 1.80026,0.00412 2.54367,-0.02084c0.80405,-0.02701 2.10632,-0.13034 3.02151,-0.26715c0.46991,-0.07025 1.42291,-0.25018 2.36331,-0.53085c0.47244,-0.14102 1.83719,-0.71347 2.70901,-1.18649c0.44254,-0.24011 1.33292,-0.76016 1.81067,-0.98932c1.50919,-0.72391 2.0946,-0.87146 2.68631,-1.03601c0.60669,-0.1687 1.86731,-0.44943 2.50668,-0.58398c0.63895,-0.13446 1.28235,-0.23203 3.09683,-0.70651c0.57425,-0.15018 1.12469,-0.32584 2.18066,-0.65799c0.50534,-0.15897 1.46246,-0.50668 2.84067,-0.77802c0.84961,-0.16727 1.66034,-0.21188 2.40298,-0.29099c0.98703,-0.1051 1.79688,-0.3291 2.70984,-0.59918c1.00006,-0.29584 1.77301,-0.37799 2.72366,-0.63666l0.68402,-0.43201l0.76532,-0.34534" id="svg_15" stroke-width="2" stroke="#000" fill="none"/>
  <path t="13747,13876,13877,13877,13877,13877,13877,13877,13877,13894,13894,13894,13894,13894,13894,13910,13910,13910,13910,13910,13912,13912,13912,13926,13927,13927,13927,13927,13927,13944,13944,13944,13944,13944,13944,13960,13960,13960,13960,13976,13977,13977,14060,14098,14289,14291,14291,14291,14291,14291,14291,14291,14301,14301,14301,14301,14301,14301,14301,14301,14301,14312,14312,14312,14312,14312,14313,14313,14313,14313,14331,14331,14331,14331,14331,14331,14331,14331,14331,14344,14344,14344,14344,14344,14345,14345,14345,14345,14360,14360,14360,14360,14361,14361,14361,14361,14361,14376,14377,14377,14377,14377,14377,14377,14378,14378,14396,14397,14397,14397,14397,14397,14397,14397,14397,14410,14410,14410,14411,14411,14411,14411,14427,14427,14526,14543,14560,14560,14560,14577,14578,14578,14578,14579,14579,14593,14594,14594,14594,14595,14595,14610,14610,14610,14611,14611,14611,14626,14627,14627,14627,14628,14644,14644,14644,14645,14645,14645,14660,14660,14661,14676,14677,14776,14777,14793,14795,14795,14810,14810,14810,14826,14827,14827,14827,14828,14843,14844,14844,14845,14845,14860,14860,14860,14861,14861,14877,14878,14878,14878,14893,14894,14894,14910,14910,14910,14926,14927,14943,14944,14960,14993,14994,15010,15010,15043,15243,15276,15294,15310,15310,15311,15311,15327,15328,15345,15345,15360,15360,15361,15361,15376,15377,15377,15393,15394,15394,15395,15410,15410,15411,15426" d="m417,365c0.00034,7.04251 -0.00031,7.76669 0.009,8.50082c0.00937,0.7392 0.02637,1.47861 0.06299,2.21252c0.03613,0.72449 0.03101,1.44376 0.37085,3.42249c0.10559,0.61481 0.25598,1.20471 0.578,2.34332c0.15906,0.56241 0.36353,1.11295 0.8125,2.85419c0.15637,0.60648 0.28809,1.23312 0.405,1.87198c0.23639,1.29178 0.31946,1.94342 0.39999,2.58936c0.07941,0.63681 0.24112,2.46228 0.28033,3.03467c0.03812,0.5563 0.09686,1.63251 0.24832,2.66165c0.07483,0.50839 0.48608,2.01309 0.685,2.50766c0.4021,0.99976 0.65686,1.4765 1.09,2.44418c0.21033,0.46994 0.73093,1.82773 0.88651,2.69098c0.14386,0.79819 0.16476,1.54727 0.17151,2.53284c0.0072,1.05066 -0.37369,1.93124 0.02084,2.79169c0.33078,0.72137 1.41116,0.54166 2.47916,0.54166c0.59732,0 1.53867,0 2.20834,0c0.83966,0 1.87732,0 3.14099,0c3.31732,0 5.41083,0 7.74533,0c2.5065,0 5.116,0 7.75949,0c2.60852,0 5.11301,0 7.44452,0c3.86798,0 5.284,0 6.35599,0c0.76401,0 1.25601,0 1.51199,0c0.056,0 -0.052,0 -0.28799,0c-0.71201,0 -1.12231,0 -1.55466,0c-0.45633,0 -0.93866,0 -1.44901,0c-0.54034,0 -1.11267,0 -1.71899,0c-1.32266,0 -2.0415,0 -2.79333,0c-0.77783,0 -1.57468,0 -2.38351,0c-0.81381,0 -1.62567,0 -2.4285,0c-1.55066,0 -2.28598,0 -2.99332,0c-0.68134,0 -1.33868,0 -1.974,0c-0.61536,0 -1.21268,0 -1.79401,0c-1.12268,0 -1.66766,0 -2.20267,0c-0.52499,0 -1.04001,0 -1.54501,0c-0.495,0 -0.97998,0 -1.45499,0c-0.92001,0 -1.36499,0 -1.80002,0c-0.42499,0 -0.84,0 -1.245,0c-0.39499,0 -0.78,0 -1.155,0c-0.72,0 -1.06482,0 -1.39865,0c-0.32184,0 -0.63068,0 -0.92551,0c-0.27985,0 -1.22916,0 -2.02084,0c-0.92032,0 -0.70621,0.01212 0.23035,0.28799c0.8027,0.23645 1.41339,0.49509 2.39465,1.04535c0.73538,0.41238 1.48257,0.94574 1.875,1.22916c0.82547,0.59619 1.24731,0.92252 2.57968,1.95868c0.46347,0.36044 0.92804,0.73126 1.87866,1.45798c0.47305,0.36163 0.93018,0.73581 2.33334,1.6875c0.43991,0.29837 1.30756,0.82681 2.14581,1.3125c0.40924,0.23712 1.23138,0.68457 2.42084,1.44235c0.40411,0.25745 1.20306,0.81024 2,1.38916c0.40155,0.29169 1.59851,1.19135 2.39868,1.78665c0.39609,0.29468 1.17416,0.8703 1.94415,1.38834c0.36887,0.24817 1.41675,0.91232 2.39984,1.33167c0.82437,0.35162 1.99667,0.09921 2.56934,0.76669c0.51913,0.60507 -0.68414,0.92923 -1.72635,0.9115c-0.5275,-0.00897 -1.39694,-0.03482 -2.58698,-0.28085c-0.61469,-0.12708 -1.55438,-0.42416 -2.56534,-0.71466c-0.71768,-0.20624 -1.47562,-0.40271 -2.24402,-0.672c-0.79764,-0.27951 -1.99423,-0.86258 -2.38931,-1.09866c-0.81046,-0.48428 -1.6022,-1.04764 -2,-1.33835c-1.20673,-0.88187 -1.99796,-1.48883 -2.39102,-1.7865c-0.76855,-0.58203 -1.50638,-1.13303 -2.47565,-1.93784c-0.56967,-0.47302 -1.06815,-0.92361 -1.72433,-1.56216c-0.8176,-0.79562 -1.18814,-1.22287 -1.80902,-1.76849c-0.96878,-0.85138 -1.59421,-1.21066 -2.19998,-1.53149c-0.98825,-0.52338 -1.89175,-0.82025 -2.35718,-1.62567c-0.42883,-0.7421 -0.70474,-1.56503 -1.44415,-1.96283c-0.71246,-0.3833 -1.6431,-0.60519 -2.31467,-0.80002c-1.0076,-0.29233 -1.76984,-0.87225 -1.68134,-0.83066c0.78036,0.36673 1.36871,1.24463 1.85001,1.92001c0.35077,0.49222 0.82611,1.2562 1.59015,2.18033c0.43228,0.52289 1.17896,1.2352 1.72784,1.785c0.798,0.79932 1.29227,1.29044 1.77866,1.85065c0.49539,0.57056 1.11176,1.47623 1.60001,2.35736c0.30368,0.54803 0.9545,1.52786 1.65601,2.01599c0.71628,0.49841 1.22665,0.77332 2.02533,1.57199l0.44849,0.71249l0.4035,0.66751l0.7655,0.68634" id="svg_16" stroke-width="2" stroke="#000" fill="none"/>
 </g>
 <g display="none">
  <title>muse_image</title>
  <image xlink:href="http://farm3.static.flickr.com/2331/2321639690_16ccf141e5.jpg" id="muse" height="480" width="640" y="0" x="0"/>
 </g>
 <g display="none">
  <title>bbox</title>
  <rect stroke="#f00" fill="none" stroke-width="3" height="244.48" width="450.56" y="138.24" x="74.24" id="bbox"/>
 </g>
</svg>
