<svg width="640" height="480" xmlns="http://www.w3.org/2000/svg" xmlns:svg="http://www.w3.org/2000/svg" xmlns:xlink="http://www.w3.org/1999/xlink">
 <!-- Sketchy ANNOTATION
  ImageNet ID: n01530575_6331
  URL: http://farm4.static.flickr.com/3174/2364268860_d96235660d.jpg
  Image Width: 500
  Image Height: 348
  BBox X: 44
  BBox Y: 34
  BBox Width: 307
  BBox Height: 274
  Exposure: 2000ms
  Synset Label: songbird
  Synset ID: n01526521
  Worker Tag: A songbird
  Sanity Check: 
   Saved
  Comment: 
   {}
  Worker ID: AI16JQPI42EKR
  Assignment ID: 39N5ACM9HENQWWML9D1IXAEOSLQ9PB
  HIT ID: 3VDI8GSXAFTIIUCIB00FELAZ04UG8B
  Work Time: 70s
  Worker Score: 0.7857
 END ANNOTATION -->
 <g display="inline">
  <title>Layer 1</title>
  <path t="0,79,93,106,120,137,138,148,148,164,164,173,180,180,188,197,204,214,220,220,230,230,236,247,252,260,260,276,276,284,292,308,316,316,324,340,348,364,364,380,388,397,404,404,414,420,430,436,447,447,452,460,468,476,492,492,508,508,516,524,532,540,548,548,564,564,583,583,598,598,604,604,614,620,631,648,652,668,668,676,684,692,708,724,724,740,740,748,765,781,804,804,814,831,848,860,868,868,884,900,908,924,940,956,956,972,972,988,998,1014,1031,1036,1048,1060,1077,1077,1093,1093,1108,1124,1132,1148,1172,1181,1181,1212,1212,1237,1237,1256,1277,1284,1292,1300,1316,1332,1332,1356,1372,1382,1428,1428,1437,1493,1549,1581,1581,1621,1644,1660,1660,1725,1749,1749,1757,1774,1790,1798,1815,1815,1832,1836,1844,1852,1860,1892,1892,1900,1908,1916,1957,1997,1997,2005,2005,2052,2061,2062,2076,2079,2092,2100,2124,2132,2140,2149,2149,2156,2165,2172,2172,2172,2182,2182,2182,2188,2188,2199,2199,2199,2204,2204,2204,2216,2216,2216,2220,2220,2232,2244,2244,2244,2252,2252,2252,2252,2260,2260,2268,2268,2276,2284,2292,2292,2300,2308,2316,2316,2324,2332,2340,2349,2366,2383,2388,2404,2404,2416,2436,2436,2444,2452,2452,2460,2468,2468,2484,2484,2492,2500,2508,2516,2524,2524,2533,2533,2549,2550,2556,2566,2583,2588,2604,2616,2633,2636,2644,2652,2668,2676,2684,2701,2708,2717,2717,2724,2734,2740,2740,2750,2756,2767,2772,2783,2800,2817,2817,2820,2820,2836,2844,2844,2852,2860,2860,2868,2868,2868,2876,2884,2892,2892,2900,2900,2909,2918,2924,2948,2948,2974,3012,3020,3045,3059,3060,3068,3076,3084,3092,3092,3100,3100,3108,3116,3325,3365,3373,3374,3394,3412,3415,3437,3437,3452,3468,3468,3492,3516,3516,3540,3556,3556,3572,3572,3588,3588,3601,3604,3604,3621,3621,3628,3636,3644,3660,3668,3668,3676,3676,3684,3692,3701,3708,3718,3718,3734,3740,3751,3756,3756,3768,3772,3784,3801,3801,3804,3804,3818,3818,3820,3828,3836,3836,3852,3852,3860,3868,3876,3876,3885,3885,3901,3908,3908,3918,3924,3924,3935,3941,3956,3956,3969,3969,3985,3985,3988,3988,4002,4004,4004,4020,4028,4028,4036,4036,4044,4044,4052,4060,4060,4068,4084,4084,4085,4085,4093,4094,4094,4101,4101,4108,4108,4117,4124,4124,4136,4150,4150,4156,4156,4156,4166,4166,4172,4172,4183,4188,4188,4188,4200,4200,4204,4216,4217,4220,4220,4220,4220,4228,4228,4228,4236,4244,4244,4252,4252,4260,4260,4260,4268,4268,4276,4276,4292,4292,4292,4308,4308,4308,4317,4317,4317,4324,4324,4333,4333,4340,4340,4340,4350,4350,4351,4356,4356,4367,4367,4367,4372,4372,4372,4384,4384,4388,4388,4388,4400,4401,4404,4404,4417,4417,4420,4420,4420,4428,4428,4436,4436,4436,4444,4452,4452,4452,4468,4476,4484,4484,4492,4501,4501,4508,4517,4518,4518,4524,4524,4524,4534,4534,4540,4540,4540,4551,4551,4556,4556,4556,4556,4568,4568,4568,4572,4572,4572,4572,4585,4585,4585,4585,4585,4588,4588,4588,4588,4601,4602,4602,4604,4604,4604,4605,4618,4619,4619,4619,4620,4620,4620,4628,4628,4628,4636,4636,4644,4644,4644,4645,4652,4653,4653,4660,4660,4660,4669,4669,4676,4676,4676,4685,4686,4686,4692,4692,4702,4703,4719,4719,4724,4724,4724,4736,4736,4740,4740,4752,4756,4756,4769,4770,4772,4772,4772,4786,4786,4788,4788,4788,4803,4803,4803,4804,4805,4812,4812,4821,4821,4828,4828,4828,4837,4837,4837,4844,4844,4853,4853,4860,4860,4860,4870,4871,4871,4876,4876,4876,4887,4887,4887,4887,4892,4892,4903,4904,4908,4908,4908,4920,4920,4924,4924,4937,4940,4954" d="m289,141.5c0.99551,-1.7 0.83481,-2.6192 1.02084,-3.5c0.17899,-0.8474 0.82693,-1.60892 1.06317,-2.38533c0.23792,-0.78186 0.6235,-1.50484 0.83197,-2.51334c0.19312,-0.93427 0.58078,-1.77002 0.91736,-2.60133c0.30658,-0.7572 0.16666,-1.7 0.16666,-2.6c0,-0.9 -0.08124,-1.8375 0.284,-2.60133c0.34897,-0.72986 0.6969,-1.62336 0.71466,-2.31467c0.02759,-1.07298 -0.08081,-1.98867 0.00583,-2.7885c0.112,-1.03369 0.46866,-1.72481 0.99551,-2.52884c0.44073,-0.67262 0.97134,-1.46531 1,-2.36666c0.02863,-0.89954 0.22058,-1.76667 0.57468,-2.4c0.48151,-0.86125 0.30875,-1.80817 0.42981,-2.7c0.11151,-0.82137 0.77081,-1.33714 1.38486,-2.1c0.60013,-0.74554 0.39999,-1.76612 0.77731,-2.6c0.2959,-0.65397 1.40656,-0.92049 1.83334,-1.52084c0.56586,-0.79601 0.89108,-1.57755 1,-2.47916c0.0965,-0.79874 0.66653,-1.47215 1.38934,-1.97467c0.67267,-0.46766 1.04092,-1.27938 1.4895,-2.12533c0.35507,-0.66957 0.99487,-1.28034 1.63849,-1.7c0.86411,-0.56345 1.78381,-0.96253 2.39865,-1.48399c0.66586,-0.56473 1.14716,-1.18624 1.68402,-1.86533c0.56418,-0.71367 1.32251,-0.96953 2.05267,-1.5605c0.73523,-0.59508 1.32581,-1.26867 1.93665,-1.8795c0.71066,-0.71066 1.13489,-1.29871 1.91068,-1.88983c0.73419,-0.55943 1.37573,-1.05997 2.02084,-1.52084c0.69742,-0.49824 1.40756,-1.08748 2.07916,-1.564c0.72568,-0.51489 1.39877,-1.05082 2.10449,-1.48866c0.68277,-0.42361 1.44019,-0.98717 2.12085,-1.33667c0.97983,-0.50312 1.78421,-0.43809 2.67465,-0.6315c0.84634,-0.18384 1.59387,-0.91828 2.5,-0.97916c0.79819,-0.05363 1.70657,-0.04552 2.5,-0.5c0.70599,-0.4044 1.60001,-0.5 2.5,-0.5c0.79999,0 1.70001,0 2.60001,0c0.89999,0 1.79999,0 2.7045,0c1.01682,0 1.6955,0 2.67398,0c0.82019,0 1.72153,0 2.62152,0c0.89999,0 1.79999,0 2.69998,0c0.90002,0 1.80002,0 2.70001,0c0.88535,0 1.82535,0 2.51599,0c1.07333,0 1.884,0 2.784,0c0.90002,0 1.80002,0 2.70001,0c0.88535,0 1.84479,-0.05231 2.60132,0.08533c1.01285,0.18428 1.71164,0.67681 2.64151,0.8575c0.84332,0.16386 1.89508,-0.26463 2.59052,0.22383c0.71518,0.50232 1.41513,0.67982 2.16666,1c0.78122,0.33282 1.53204,0.76813 2.29999,1.186c0.84091,0.45759 1.73825,0.47379 2.5,0.73267c0.88794,0.30177 1.64133,0.79852 2.40002,1.19866c0.85837,0.45272 1.5,0.76867 2.29999,1.216c0.79999,0.44733 1.62604,0.69085 2.20001,1.2045c0.73532,0.65803 1.50085,1.31761 1.94281,1.9955c0.47849,0.73392 0.64719,1.69306 1.457,2.17867c0.7298,0.43763 1.18988,1.17823 1.54752,1.82133c0.47443,0.85312 0.7565,1.73925 1.55133,2.216c0.69089,0.41441 0.62784,1.34128 0.96799,2.084c0.36755,0.8026 1.21823,1.24193 1.71201,2.09983c0.42444,0.73747 1.02295,1.2757 1.28799,2.06683c0.2851,0.85104 0.4006,1.79306 0.88602,2.47167c0.5484,0.76669 0.91013,1.36253 0.94733,2.16167c0.04272,0.91764 0.95444,1.11247 1.564,1.81066c0.58197,0.6666 0.436,1.68934 0.436,2.58933c0,0.9 -0.17355,1.83826 0.08533,2.60001c0.30176,0.88792 0.84616,1.62347 1.13602,2.52183c0.24301,0.75312 0.53796,1.44319 0.65717,2.32067c0.13477,0.99204 0.10825,1.67085 0.12149,2.8575c0.00894,0.80269 0.15549,1.67126 0.52084,2.54166c0.27222,0.64854 0.67996,1.64204 0.97916,2.45834c0.20053,0.54714 0.61578,1.57194 0.97916,2.47916c0.2464,0.61524 0.48523,1.61529 0.5195,2.5355c0.03241,0.87015 0.15729,1.82175 0.35852,2.49966c0.24072,0.8109 0.63919,1.98689 0.84283,2.58301c0.29474,0.86279 0.56754,1.64944 1.09549,2.59283c0.39532,0.70638 0.68539,1.63452 0.70316,2.32584c0.02759,1.07298 0.00134,1.89465 0.00134,2.80533c0,0.85333 0,1.79333 0,2.77867c0,0.89999 0,1.7 0,2.59999c0,0.90001 0,1.8 0,2.7c0,0.90001 0,1.8 0,2.70001c0,0.89999 0,1.7 0,2.536c0,1.01666 0.15433,1.72476 -0.01068,2.728c-0.14294,0.86914 -0.72855,1.51518 -0.96399,2.45067c-0.21317,0.84695 -0.91504,1.28717 -1.41467,2.04666c-0.40244,0.61174 -0.53992,1.65199 -0.96332,2.43867c-0.4537,0.84296 -0.94458,1.42668 -1.74734,1.92166c-0.6871,0.42366 -1.08923,1.26868 -1.5,1.953c-0.48715,0.81157 -0.84415,1.6391 -1.42532,2.38933c-0.45639,0.58917 -1.39349,0.85248 -1.89066,1.63467c-0.4649,0.73146 -1.14426,1.2422 -1.65869,1.82666c-0.54871,0.62343 -0.96295,1.42714 -1.72083,1.922c-0.6954,0.45407 -1.11179,1.14505 -1.75717,1.70001c-0.582,0.50046 -1.42764,0.89444 -2.14734,1.55133c-0.5845,0.53348 -1.46631,0.71736 -2.19998,1.23734c-0.78708,0.55785 -1.25314,1.35358 -2.10001,1.54317c-0.95636,0.21411 -1.50204,0.63039 -2.2045,1.0735c-0.77191,0.48692 -1.61813,0.83287 -2.46216,1.114c-0.6658,0.22176 -1.27908,1.0206 -1.91602,1.54799c-0.65674,0.54381 -1.7608,0.19661 -2.43332,0.37067c-1.03375,0.26755 -1.80533,0.79445 -2.50485,0.91467c-0.97888,0.16823 -1.75089,0.47383 -2.49384,0.716c-1.05426,0.34364 -1.89621,0.26497 -2.80664,0.28416c-0.85388,0.01799 -1.8255,0.24388 -2.37418,0.70433c-0.75262,0.63158 -1.5015,1.25279 -2.40451,1.2955c-0.89899,0.04253 -1.69998,0 -2.60001,0c-0.89999,0 -1.6817,0.12654 -2.35266,0.64734c-0.58377,0.45311 -1.54733,0.35266 -2.44733,0.35266c-0.89999,0 -1.80463,-0.01538 -2.82132,0.00017c-0.67892,0.01039 -1.6282,0.27419 -2.37418,0.64717c-0.77838,0.38919 -1.7045,0.35201 -2.60449,0.35266c-0.90002,0.00067 -1.93866,0.10301 -2.41467,0.80133c-0.5108,0.74931 -1.03674,1.26736 -1.36935,2.08534c-0.30634,0.75334 -0.60522,1.47092 -1.21149,2.35616c-0.52478,0.76628 -0.60339,1.56764 -0.74051,2.39317c-0.14474,0.87157 -0.72824,1.68105 -0.90683,2.61133c-0.17368,0.9046 0.0459,1.78415 -0.22382,2.586c-0.28403,0.84444 -0.78622,1.64793 -0.82886,2.51401c-0.04404,0.89442 0.07037,1.86775 -0.08981,2.53799c-0.23239,0.97221 -0.74988,1.6058 -0.89383,2.59384c-0.13278,0.91144 -0.02084,1.82083 -0.02084,2.72217c0,0.96533 0.11072,1.83276 -0.16666,2.63199c-0.28168,0.8116 -0.81534,1.56613 -0.83334,2.46667c-0.01801,0.89981 0.18329,1.85428 -0.16666,2.7c-0.32468,0.78462 -0.68094,1.51434 -0.84402,2.39999c-0.15311,0.83142 -0.9043,1.5874 -0.98798,2.40001c-0.09219,0.89526 0.08524,1.80579 -0.01202,2.61066c-0.11212,0.92798 -0.59854,1.55383 -0.86783,2.56801c-0.2009,0.75658 -0.00293,1.69453 -0.20682,2.53734c-0.21481,0.888 -0.82333,1.68459 -0.91483,2.58417c-0.07993,0.78571 -0.47122,1.70753 -0.71585,2.41583c-0.32593,0.94377 -0.22156,1.91472 -0.50534,2.80533c-0.22275,0.69902 -0.69064,1.50085 -0.77417,2.37416c-0.08954,0.93625 0.10315,1.80254 -0.06165,2.65184c-0.17963,0.92572 -0.67972,1.68954 -1.02686,2.45267c-0.38858,0.85426 -0.88416,1.6105 -0.91614,2.52133c-0.0238,0.67856 -0.29364,1.62166 -0.64719,2.43132c-0.38135,0.87332 -0.33911,1.66962 -0.63666,2.64603c-0.23865,0.78311 -0.62616,1.71643 -0.716,2.60132c-0.08127,0.80042 -0.56842,1.48849 -1.09982,2.32132c-0.41821,0.65546 -0.71118,1.51779 -0.92551,2.30402c-0.23563,0.86435 -0.7135,1.63092 -1.36401,2.32401c-0.55612,0.59253 -0.4556,1.41733 -0.63199,2.436c-0.17029,0.9834 -0.68579,1.62616 -0.99951,2.1355c-0.49222,0.79913 -1.08493,1.79984 -1.47916,2.45831c-0.37439,0.62537 -0.99838,1.40631 -1.63867,2.18484c-0.5415,0.65845 -0.91785,1.52713 -1.28665,2.24667c-0.46393,0.90515 -0.41638,1.83908 -0.93185,2.48398c-0.57654,0.72131 -1.12262,1.17599 -1.80948,2.10535c-0.45517,0.61584 -1.05542,1.10693 -1.59067,1.97849c-0.41708,0.67917 -1.03113,1.21826 -1.67468,1.8215c-0.66959,0.62762 -1.00494,1.52643 -1.58884,2.22086c-0.49158,0.58466 -1.0441,1.41132 -1.56848,2.10715c-0.5603,0.74347 -1.55637,1.04568 -2.04666,1.55469c-0.76306,0.79218 -1.01596,1.3309 -1.57468,2.10266c-0.38705,0.53461 -1.19061,1.5246 -1.74768,2.173c-0.47433,0.55212 -0.85852,1.51447 -1.4845,2.14166c-0.63232,0.63361 -1.55939,0.97293 -2.1825,1.53598c-0.72473,0.65488 -1.1998,1.18958 -1.72198,1.71133c-0.76834,0.76767 -1.38943,1.37201 -2.138,1.854c-0.71097,0.45779 -1.52368,0.95453 -2.31467,1.62402c-0.60703,0.51379 -1.39584,1.1597 -2,1.54932c-0.59598,0.38434 -1.58871,1.12198 -2.20001,1.60449c-0.58942,0.46524 -1.60669,0.86508 -2.34283,1.069c-0.92664,0.25668 -1.45587,0.72839 -2.20001,1.27316c-0.70816,0.51843 -1.50174,1.03784 -2.2905,1.51202c-0.69873,0.42007 -1.51804,0.84259 -2.284,1.36667c-0.70493,0.4823 -1.64911,1.00735 -2.4035,1.29999c-0.52899,0.2052 -1.58792,0.54169 -2.4375,1.02084c-0.57834,0.32617 -1.23233,1.18573 -1.8515,1.82648c-0.67206,0.6955 -1.44409,1.00946 -2.18481,1.34818c-0.86624,0.39609 -1.56451,0.92529 -2.30984,1.60449c-0.56647,0.5162 -1.36948,0.97787 -2.10001,1.45718c-0.81531,0.53494 -1.35629,1.11163 -1.99548,1.53299c-0.94907,0.62564 -1.81763,0.65265 -2.79984,0.93134c-0.60349,0.17123 -1.32706,0.56265 -2.17484,1.1785c-0.80389,0.58395 -1.46774,0.97189 -2.14134,1.39999c-0.87155,0.55392 -1.64296,0.93585 -2.48399,1.36667c-0.66434,0.3403 -1.22536,1.28387 -2.16667,1.66669c-0.61436,0.24985 -1.47928,0.4845 -2.16666,1.16666c-0.48233,0.47867 -1.35017,0.81137 -2.34933,1.20001c-0.52968,0.20602 -1.36583,0.39365 -2.34801,1.00131c-0.77184,0.47754 -1.26073,1.15338 -1.99016,1.77783c-0.55867,0.47827 -1.58801,0.89893 -2.21516,1.0715c-0.93781,0.25806 -1.72208,0.65756 -2.57468,1.13467c-0.59129,0.33087 -1.4808,0.81372 -2.38933,1.17868c-0.59473,0.23889 -1.80116,0.63257 -2.40134,0.83731c-0.9213,0.31427 -1.56267,0.5394 -2.56534,0.96533c-0.72244,0.30688 -1.46271,0.66138 -2.20799,1.04401c-0.74545,0.38272 -1.80212,0.99194 -2.46817,1.38034c-0.63472,0.37015 -1.53381,0.90671 -2.45717,1.16617c-0.88388,0.24835 -1.50768,0.20584 -2.7,0.40948c-0.91206,0.15579 -1.53046,0.34918 -2.48534,0.72c-1.04715,0.40665 -1.76472,0.76205 -2.49384,1.11334c-0.71288,0.34344 -1.68367,0.84119 -2.25017,1.11334c-0.94313,0.45313 -1.76805,0.73563 -2.57066,0.86133c-0.79771,0.12494 -1.80728,0.38702 -2.472,0.63599c-1.05865,0.39655 -1.69562,0.59067 -2.728,0.88934c-0.69441,0.2009 -1.66821,0.49573 -2.49017,0.7955c-0.72588,0.26474 -1.67406,0.55603 -2.45799,0.65182c-0.78847,0.09634 -1.91821,0.25623 -2.7025,0.66333c-0.90306,0.46875 -1.60068,0.81232 -2.40117,1.03217c-1.01579,0.27899 -1.72128,0.27664 -2.54683,0.44119c-1.01248,0.20181 -1.72655,0.62323 -2.65317,0.86331c-0.70706,0.1832 -1.7632,0.39447 -2.53351,0.66333c-1.05553,0.36841 -1.74585,0.71481 -2.40399,0.95334c-0.99498,0.3606 -1.78967,0.42557 -2.78917,0.436c-0.82011,0.00854 -1.6582,-0.03366 -2.67867,0.00449c-0.74866,0.02798 -1.73775,0.29388 -2.54283,0.57019c-0.79524,0.27295 -1.60843,0.35004 -2.40001,0.50934c-1.01936,0.20514 -1.84424,0.62616 -2.82133,0.79449c-0.79678,0.13727 -1.62599,0.11923 -2.65717,0.12149c-0.6855,0.0015 -1.52016,0 -2.5215,0c-0.79999,0 -1.79999,0 -2.59999,0c-1.00017,0 -1.82083,0 -2.96667,0c-0.786,0 -1.608,0 -2.66666,0c-0.7095,0 -1.56216,0 -2.56667,0c-0.8,0 -1.8,0 -2.60001,0c-1,0 -1.81067,0 -2.45717,0c-1.22816,0 -1.77882,0 -2.64734,0c-1.1955,0 -1.79549,0 -2.6955,0c-1.2,0 -1.79866,0 -2.67917,0c-0.83549,0 -1.83549,0 -2.71016,0c-1.01067,0 -1.81067,0 -2.81067,0c-0.8,0 -1.60001,0 -2.60001,0c-0.79999,0 -1.79866,0 -2.564,0l-1.07883,0l-0.85701,0.00015l-0.81616,0.28384" id="svg_1" stroke-width="2" stroke="#000" fill="none"/>
  <path t="5585,5645,5652,5660,5660,5660,5668,5668,5676,5676,5676,5684,5684,5684,5692,5700,5700,5700,5708,5708,5717,5717,5717,5724,5724,5733,5733,5740,5740,5750,5750,5756,5756,5772,5772,5788,5788,5800,5804,5812,5812,5820,5820,5828,5836,5836,5844,5852,5852,5868,5868,5876,5876,5885,5885,5893,5900,5908,5917,5917,5917,5924,5933,5940,5940,5956,5956,5967,5983,5988,5988,6000,6004,6004,6020,6020,6028,6044,6044,6052,6060,6068,6076,6076,6092,6100,6100,6101,6108,6124,6134,6134,6140,6156,6157,6167,6167,6172,6188,6188,6204,6204,6212,6212,6220,6220,6228,6236,6244,6244,6252,6252,6260,6260,6276,6276,6276,6284,6284,6301,6301,6308,6308,6317,6318,6324,6324,6340,6351,6351,6356,6356,6368,6372,6384,6388,6388,6401,6401,6404,6412,6420,6428,6428,6444,6452,6452,6460,6468,6468,6485,6492,6492,6501,6518,6524,6535,6551,6551,6556,6568,6572,6572,6585,6596,6604,6612,6628,6636,6644,6668,6692,6732,6732,6904,6905,6909,6926,6935,6940,6952,6956,6956,6972,6972,6985,6988,6988,6996,7004,7012,7020,7020,7036,7044,7052,7060,7060,7069,7085,7102,7102,7119,7119,7124,7135,7152,7156,7169,7169,7185,7188,7196,7212,7220,7236,7236,7252,7260,7269,7285,7292,7302,7302,7319,7324,7340,7352,7356,7356,7372,7412,7853,7878,7892,7908,7919,7919,7924,7940,7952,7953,7956,7972,7972,7980,7988,7996,7996,8005,8012,8012,8028,8036,8044,8044,8052,8060,8060,8069,8076,8092,8092,8108,8108,8119,8136,8153,8169,8180,8180,8204,8212,8228,8236,8245,8253,8260,8292,8501,8530,8533,8534,8549,8556,8570,8580,8580,8596,8596,8612,8612,8612,8628,8628,8644,8644,8653,8653,8660,8660,8676,8686,8692,8692,8708,8724,8724,8736,8740,8753,8756,8756,8772,8780,8780,8788,8804,8812,8820,8820,8828,8836,8844,8844,8860,8870,8876,8892,8892,8903,8908,8908,8920,8936,8937,8940,8956,8956,8970,8970,8972,8972,8980,8996,9012,9012,9028,9028,9044,9053,9053,9060,9070,9076,9092,9103,9104,9120,9124,9124,9137,9140,9153,9156,9170,9172,9180,9188,9196,9212,9228,9228,9237,9237,9244,9254,9270,9271,9287,9287,9292,9304,9304,9308,9324,9324,9337,9337,9340,9354,9354,9356,9356,9372,9372,9380,9380,9388,9389,9396,9404,9412,9421,9421,9428,9438,9438,9438,9444,9444,9454,9460,9460,9471,9471,9476,9488,9488,9492,9504,9505,9508,9521,9521,9524,9524,9538,9538,9538,9540,9555,9555,9556,9569,9569,9572,9572,9580,9580,9580,9588,9588,9596,9596,9604,9604,9612,9620,9620,9628,9628,9628,9636,9646,9654,9654,9654,9660,9660,9660,9670,9670,9676,9689,9689,9692,9692,9692,9703,9703,9719,9719,9724,9724,9736,9740,9740,9752,9753,9756,9756,9764,9764,9772,9780,9780,9780,9788,9788,9796,9796,9804,9812,9812,9820,9828,9828,9837,9837,9837,9844,9853,9854,9854,9860,9870,9870,9871,9876,9887,9887,9892,9892,9904,9908,9908,9920,9924,9924,9937,9940,9940,9954,9954,9956,9964,9972,9972,9980,9980,9988,9996,9996,10004,10004,10012,10021,10028,10028,10037,10044,10044,10054,10054,10060,10071,10076,10076,10087,10088,10092,10092,10104,10104,10108,10121,10124,10124,10138,10140,10140,10154,10154,10156,10164,10172,10172,10180,10180,10188,10196,10204,10205,10212,10212,10221,10221,10228,10228,10238,10238,10244,10255,10255,10260,10271,10272,10276,10276,10288,10288,10292,10305,10308,10321,10322,10338,10338,10339,10340,10340,10355,10355,10357,10357,10364,10364,10373,10380,10389,10405,10405,10412,10422,10422,10428,10439,10444,10456,10472,10473,10476,10476,10489,10492,10492,10506,10508,10508,10522,10523,10539,10540,10541,10541,10556,10557,10557,10564,10565,10574,10580,10580,10596,10596,10606,10606,10612,10612,10628,10628,10639,10640,10644,10644,10657,10660,10660,10673,10674,10676,10676,10690,10690,10692,10707,10707,10708,10709,10724,10724,10725,10740,10741,10757,10757,10757,10764,10765,10765,10775,10775,10780,10780,10791,10796,10796,10812,10812,10824,10824,10828,10840,10841,10844,10857,10874,10891,10891,10892,10893,10908,10909,10924,10941,10941,10964,10964,10965,10980,10991,10991,11008,11028,11028,11041,11044,11058,11060,11075,11076,11100,11125,11125,11141,11141,11164,11180,11180,11192,11228,11244,11268,11300,11300,11325,11348,11390,11782,11783" d="m158,363.5c-2.168,0.716 -3.05765,0.92551 -4,1.16666c-0.808,0.20676 -1.51814,0.62958 -2.25183,1.13333c-0.72095,0.49503 -1.52191,0.89117 -2.269,1.22086c-0.80139,0.35367 -1.57001,0.78366 -2.2325,1.29382c-0.77512,0.59689 -1.63678,1.10498 -2.58,1.35199c-0.6757,0.17697 -1.44781,0.37625 -2.33334,0.83334c-0.84775,0.43759 -1.47701,1.04254 -2.16933,1.38934c-0.74353,0.37247 -1.77013,0.51895 -2.564,0.66333c-1.00887,0.1835 -1.7847,0.52509 -2.57867,1.04715c-0.66512,0.43735 -1.51996,0.74368 -2.36867,0.95285c-0.92252,0.22736 -1.52373,0.7692 -2.30533,1.24731c-0.68382,0.4183 -1.59946,0.98987 -2.146,1.5c-0.71371,0.66617 -1.54088,1.05151 -2.30151,1.42136c-0.70419,0.34241 -1.57465,0.62512 -2.41583,0.86267c-0.88359,0.24951 -1.50611,1.11685 -2.184,1.55881c-0.73392,0.47849 -1.58493,0.74118 -2.18533,1.15851c-0.92251,0.6412 -1.5231,0.89093 -2.51334,1.39868c-0.76843,0.39401 -1.5415,0.95514 -2.19067,1.36398c-0.76093,0.47922 -1.25603,1.04947 -1.77233,1.73599c-0.6412,0.8526 -1.44094,1.14279 -2.15434,1.41467c-0.93869,0.35773 -1.88573,0.57022 -2.36283,1.38535c-0.38283,0.65408 -0.95699,1.34689 -1.6385,1.61465c-0.93377,0.36688 -1.79651,0.62778 -2.48267,1.28534c-0.61263,0.5871 -1.22372,1.41302 -2,1.83334c-0.666,0.3606 -1.36344,0.9003 -2.14933,1.19199c-0.83418,0.30963 -1.03973,1.3157 -1.73734,1.68933c-0.84956,0.45502 -1.61106,0.6246 -2.33483,1.164c-0.75614,0.56351 -1.45065,0.8555 -2.083,1.42133c-0.82761,0.74054 -1.58728,1.00095 -2.12617,1.5c-0.70557,0.65341 -1.23112,1.1821 -2.222,1.55267c-0.70678,0.26431 -1.64571,0.45981 -2.4475,0.86884c-0.72638,0.37054 -1.44439,0.8902 -2.19,1.47852c-0.66862,0.52759 -1.14367,1.4133 -1.73067,1.79999c-0.94386,0.62177 -1.44437,1.05081 -2.3005,1.59982c-0.65446,0.41971 -1.68703,0.68414 -2.37417,0.95285c-0.85728,0.33524 -1.66219,0.76907 -2.50583,1.23267c-0.61012,0.33527 -1.46268,0.99554 -2.146,1.41467c-0.78226,0.47983 -1.40646,1.05603 -2.13667,1.784c-0.51679,0.5152 -1.00891,1.05597 -1.76333,1.75882c-0.61839,0.57611 -1.4048,1.06671 -2.15717,1.45718c-0.98772,0.5126 -1.60873,0.74588 -2.42883,1.29999c-0.67677,0.45724 -1.29601,1.29459 -1.96666,1.71466c-0.7389,0.46283 -1.41469,1.07211 -1.95717,1.58002c-0.78231,0.73245 -1.75033,0.72015 -2.291,1.40982c-0.55988,0.71417 -1.17304,1.14465 -2.1185,1.46216c-0.66524,0.22342 -1.4839,0.84238 -1.8815,1.53336c-0.4545,0.78989 -1.26039,1.1644 -2.15183,1.30133c-0.91579,0.14066 -1.50113,0.70203 -2.2,1.39865c-0.60097,0.59903 -1.18566,1.19321 -2,1.57468c-0.88557,0.41483 -1.4,0.82666 -2.1,1.52533c-0.7,0.69867 -1.45409,0.96085 -2.14283,1.55267c-0.65908,0.56631 -0.83872,1.49915 -1.65717,1.89465c-0.86561,0.4183 -1.57739,0.78635 -2.17917,1.55267c-0.50933,0.64862 -1.01951,1.20255 -1.8155,1.55267c-0.81405,0.35806 -1.33614,1.00989 -1.78933,1.74866c-0.42166,0.68738 -1.32225,1.1543 -1.916,1.69867c-0.59213,0.54288 -0.63352,1.52441 -1.2215,2.25717c-0.55051,0.68607 -1.43221,0.85284 -1.87817,1.564c-0.49033,0.78189 -0.31912,1.6619 0.15233,0.97433c0.44383,-0.64728 1.32851,-0.99341 1.89467,-1.65268c0.59241,-0.68985 0.81178,-1.36624 1.34817,-2.2955c0.38826,-0.67264 0.52447,-1.64188 0.92583,-2.44733c0.38228,-0.76715 1.00888,-1.37561 1.49467,-2.06934c0.51488,-0.73526 0.53832,-1.79123 0.85867,-2.41998c0.45236,-0.88788 0.46425,-1.77911 0.92533,-2.43152c0.47271,-0.66885 0.49383,-1.49652 0.5,-2.45831c0.00598,-0.93155 0.22831,-1.83936 0.5,-2.52084c0.38852,-0.97455 0.48728,-1.69559 0.5,-2.60001c0.01266,-0.90015 0.58915,-1.71793 0.8785,-2.5c0.31512,-0.85175 0.24578,-1.67743 0.69616,-2.5c0.42728,-0.7804 0.42533,-1.69998 0.42533,-2.60001c0,-0.89999 0,-1.79999 0,-2.59998c0,-0.90002 -0.00194,-1.81961 0.42533,-2.60001c0.45038,-0.82257 0.52687,-1.70129 0.57467,-2.60001c0.04273,-0.80341 0.68619,-1.42236 0.94283,-2.29999c0.25312,-0.8656 0.05717,-1.80002 0.05717,-2.70001c0,-0.79999 0,-1.70001 0,-2.60001c0,-0.89999 0.11831,-2.11224 -0.61067,-2.38931c-0.74787,-0.28424 -1.71067,-0.01068 -2.564,-0.01068c-0.94,0 -1.92533,0 -2.82533,0c-0.8,0 -1.636,0 -2.65267,0c-0.69466,0 -1.71133,0 -2.64733,0c-0.90133,0 -1.58533,0 -2.52533,0c-1.008,0 -1.87017,0 -2.77467,0c-0.81067,0 -1.72133,0.00061 -2.57467,0c-0.94,-0.00067 -1.78361,-0.23395 -2.52533,-0.64734c-0.76368,-0.42563 -1.53636,-0.85596 -2.46667,-1.186c-0.79731,-0.28287 -1.66684,-0.14951 -2.52883,-0.16666c-0.90504,-0.01801 -1.61483,-0.61813 -2.5045,-0.91467c-0.85765,-0.28589 -1.8,-0.08533 -2.6,-0.08533c-0.9,0 -1.82003,0.00272 -2.6,-0.42532c-0.82174,-0.45096 -1.27663,-1.14352 -2.036,-1.53867c-0.76711,-0.39917 -1.86535,0.21222 -2.66367,-0.25735c-0.71911,-0.42297 0.14422,-1.08969 0.89967,-1.49466c0.75596,-0.40521 1.54574,-0.8114 2.4,-1.19998c0.76311,-0.34714 1.40688,-0.73901 2.28533,-1.28403c0.70386,-0.43668 1.52177,-0.78625 2.304,-1.19998c0.73221,-0.38727 1.43575,-0.92969 2.09467,-1.39999c0.74944,-0.53491 1.52443,-0.89227 2.51467,-1.40002c0.76843,-0.39401 1.5404,-0.95688 2.19067,-1.36398c0.77026,-0.48221 1.53796,-0.84488 2.41067,-1.26935c0.75391,-0.3667 1.46887,-0.72125 2.20133,-1.36533c0.53431,-0.46982 1.58804,-0.40604 2.46533,-0.96799c0.70173,-0.44949 1.36522,-0.95987 1.93333,-1.444c0.74536,-0.63519 1.43689,-1.12622 2.2,-1.47336c0.85426,-0.38858 1.69518,-0.71194 2.39867,-1.20132c0.78462,-0.54581 0.97039,-1.43011 1.80133,-1.71466c0.83173,-0.28479 1.49395,-0.7135 2.29467,-1.05267c0.76361,-0.32346 1.07085,-1.45068 1.80533,-1.82599c0.84147,-0.42996 1.50266,-0.72931 2.2,-1.42133c0.70269,-0.69733 1.16284,-1.24942 2,-1.64734c0.86786,-0.41251 1.52782,-0.70782 2.336,-1.11401c0.88323,-0.44391 1.36916,-0.95425 2.19733,-1.772c0.53402,-0.52731 1.20526,-1.34299 1.76667,-1.73065c0.80754,-0.55762 1.3813,-1.1265 1.96933,-1.63602c0.7018,-0.60809 1.56356,-0.97958 2.12617,-1.5c0.72905,-0.67438 1.40369,-1.40079 1.9045,-1.89999c0.69888,-0.69662 1.64338,-1.0553 2.27867,-1.62134c0.60097,-0.53546 1.24735,-0.96951 1.82133,-1.48315c0.73533,-0.65802 1.32431,-1.49301 2,-1.93832c0.71569,-0.47165 1.48562,-0.8501 2.016,-1.44119c0.53841,-0.60007 0.95727,-1.37857 1.67333,-1.89066c0.7112,-0.50861 1.23872,-1.08957 1.69466,-1.82666c0.43938,-0.7103 1.23891,-1.29602 1.916,-1.69867c0.83529,-0.49673 1.42982,-1.01825 1.94733,-1.7955c0.46371,-0.69644 1.40266,-1.02274 1.85267,-1.59116c0.5678,-0.71719 0.78407,-1.55084 1.5,-2.35168c0.6123,-0.68491 1.45586,-0.91827 1.7,-1.7825c0.2672,-0.94589 0.60527,-1.57376 1.3,-2.27914c0.49618,-0.50378 1.30017,-1.17114 1.57867,-2.02133c0.26954,-0.82281 0.40207,-1.79773 0.82583,-2.43134c0.49153,-0.73492 0.8494,-1.49994 1.61667,-2.22583c0.60062,-0.56824 1.39594,-1.14157 1.7615,-1.8215c0.44476,-0.82721 0.78283,-1.60989 0.92184,-2.5c0.12791,-0.819 0.73778,-1.36493 1.3955,-2.11069c0.63839,-0.72385 1.00613,-1.42215 1.4,-2.19064c0.40634,-0.79282 0.79739,-1.52905 1.4955,-2.29333c0.61819,-0.67679 0.60881,-1.52264 1.06167,-2.34818c0.3422,-0.62381 1.23991,-1.22931 1.5215,-2.07834c0.26147,-0.78833 0.66029,-1.5137 1.22116,-2.12167c0.59373,-0.64362 0.67267,-1.72571 1.06683,-2.55716c0.33226,-0.70087 1.0437,-1.47964 1.33334,-2.02084c0.51876,-0.96936 0.93511,-1.74966 1.21467,-2.49384c0.31236,-0.83151 0.55305,-1.70093 1.08666,-2.28531c0.67693,-0.7413 1.29601,-1.52292 1.69867,-2.20001c0.49673,-0.8353 1.03562,-1.4747 1.5,-2.16666c0.43452,-0.64746 0.81363,-1.42798 1.2955,-2.42883c0.35751,-0.74252 0.56971,-1.68839 0.87383,-2.28851c0.42361,-0.83588 1.22395,-1.40314 1.66133,-2.23065c0.4425,-0.83722 0.82676,-1.53265 1.26933,-2.42786c0.33649,-0.68063 0.47352,-1.49344 1.1955,-2.2905c0.56535,-0.62415 0.84332,-1.50906 1.06616,-2.17233c0.25374,-0.75522 0.77859,-1.68781 1.453,-2.33331c0.5937,-0.56824 1.00063,-1.3342 1.268,-2.17734c0.2777,-0.8757 1.07608,-1.53787 1.51733,-2.15601c0.58334,-0.81717 0.78112,-1.58658 1.1,-2.32266c0.37787,-0.87225 0.9208,-1.56451 1.60001,-2.30984c0.51622,-0.56647 0.97785,-1.36142 1.39999,-2.04282c0.56638,-0.91422 1.11605,-1.6579 1.35267,-2.40985c0.28391,-0.90225 0.6374,-1.59961 1.146,-2.35883c0.43205,-0.64493 0.6452,-1.55957 0.88533,-2.39999c0.25609,-0.89624 1.09533,-1.63855 1.56417,-2.14117c0.50445,-0.5408 1.13303,-1.53622 1.33099,-2.32199c0.21365,-0.84802 0.66142,-1.5827 1.21951,-2.22086c0.67225,-0.76868 0.81047,-1.5264 1.32217,-2.32083c0.53504,-0.83069 1.03667,-1.47513 1.3125,-2.47916c0.16061,-0.58466 0.15417,-1.56081 0.60266,-2.37466c0.46926,-0.85156 1.00191,-1.42981 1.27866,-2.14134c0.37355,-0.96043 0.72481,-1.80798 1.28534,-2.48399c0.42955,-0.51805 0.88954,-1.52644 1.35716,-2.3045c0.37666,-0.62671 0.92068,-1.3614 1.34283,-2.04283c0.56636,-0.9142 1.03392,-1.6909 1.384,-2.45267c0.34456,-0.74973 1.25064,-1.31743 1.63066,-2.08533c0.42804,-0.8649 0.50491,-1.72083 1.08667,-2.28267c0.65392,-0.63153 0.85832,-1.3674 1.19867,-2.31117c0.30447,-0.8443 0.84096,-1.68591 0.97467,-2.34616c0.20366,-1.00571 0.66592,-1.73654 1.224,-2.37466c0.67226,-0.76868 0.85788,-1.55806 1.50667,-2.10001c0.67696,-0.56549 1.19734,-1.30659 1.30533,-2.11066c0.12439,-0.92628 0.41652,-1.65218 1.188,-2.42134c0.57275,-0.57103 0.63165,-1.43178 1.08667,-2.28133c0.37364,-0.6976 1.44231,-0.96452 1.68933,-1.748c0.29793,-0.94493 0.58014,-1.61572 1.12534,-2.46001c0.42735,-0.66179 0.86494,-1.54073 1.39999,-2.15784c0.65761,-0.75847 1.17355,-1.33804 1.52533,-2.12083c0.36859,-0.82022 1.07468,-1.5 1.57468,-2c0.7,-0.7 1.48834,-1.3308 1.87917,-1.92082c0.58337,-0.88071 0.45967,-1.67294 1.02083,-2.45834c0.49118,-0.68748 1.27414,-1.24765 1.79466,-1.778c0.63184,-0.64375 0.61642,-1.66428 1.31601,-2.25749c0.67526,-0.57259 1.22116,-1.22456 1.55865,-1.87067c0.43336,-0.82964 1.18608,-1.42288 1.66267,-2.22934c0.38771,-0.65607 1.07574,-1.2377 1.68533,-1.77066c0.79254,-0.69292 1.13431,-1.45508 1.88266,-2.06401c0.66426,-0.54051 1.10768,-1.29384 1.8,-1.88266c0.71918,-0.61165 1.17085,-1.29138 1.90001,-1.92534c0.61244,-0.53249 1.20775,-1.16904 1.7,-1.67467c0.69038,-0.70914 1.69951,-0.93877 2.116,-1.76799c0.42668,-0.84953 0.73148,-1.43521 1.40533,-2.12151c0.50459,-0.5139 1.22234,-1.25977 1.79333,-2.07584c0.38353,-0.54816 1.15044,-1.33847 1.68533,-1.77066c0.71864,-0.58066 1.03438,-1.40698 1.84816,-2.07483c0.60722,-0.49834 1.11388,-1.40305 1.87267,-1.73634c0.80545,-0.35379 1.7923,-0.36365 2.27917,-0.82216c0.72,-0.67804 1.32138,-1.50624 2,-1.91333c0.73595,-0.44148 1.59488,-0.7191 2.39867,-1.20134c0.74847,-0.44905 1.23517,-1.19734 1.82216,-1.584c0.94368,-0.62161 1.54927,-1.1044 2.37917,-1.47467c0.78374,-0.34967 1.30913,-0.93866 2.12083,-1.5045c0.73392,-0.51163 1.71457,-0.38416 2.59384,-0.80617c0.64575,-0.30994 1.2567,-1.16782 2.052,-1.71466c0.63046,-0.4335 1.36824,-0.65723 2.3125,-1c0.84532,-0.30685 1.37292,-0.85815 2.34616,-1.38933c0.67015,-0.36575 1.70354,-0.51271 2.47917,-0.96783c0.63065,-0.37004 1.34763,-0.95238 2.09999,-1.34283c0.98773,-0.5126 1.599,-0.76059 2.42883,-1.3c0.68835,-0.44745 1.49634,-0.8365 2.34134,-1.02533c0.95308,-0.21298 1.54488,-0.73299 2.478,-1.27017c0.6731,-0.3875 1.59377,-0.6644 2.51401,-0.7045c0.83279,-0.03629 1.72418,-0.08076 2.42267,-0.61067c0.79134,-0.60036 1.26997,-1.23215 2.06332,-1.68483c0.67458,-0.3849 1.7377,-0.62321 2.51401,-0.87117c0.85497,-0.27309 1.67221,-0.64505 2.45866,-0.85866c0.86542,-0.23506 1.69197,-0.73688 2.61749,-0.91751c0.84349,-0.16463 1.73325,-0.12198 2.52783,-0.3425c0.77681,-0.21559 1.63155,-0.51738 2.52901,-0.8145c0.87854,-0.29085 1.66933,-0.61798 2.731,-0.81483c0.70993,-0.13164 1.64253,0.03322 2.48534,-0.17065c0.888,-0.21481 1.69498,-0.79539 2.36932,-0.99867c0.9671,-0.29153 1.70151,-0.70914 2.71017,-0.85884c0.74106,-0.10999 1.82031,0.05719 2.60449,-0.34116c0.65918,-0.33485 1.52629,-0.53229 2.40001,-0.752c0.87215,-0.21931 1.558,-0.86102 2.39999,-0.94318c0.97409,-0.09505 1.79907,0.00645 2.7,-0.02083c0.94414,-0.02859 1.44591,-0.79327 2.18266,-0.97467c0.78915,-0.19429 1.80167,-0.30333 2.5965,-0.52533c0.75311,-0.21034 1.90121,-0.35472 2.72086,-0.784c0.65494,-0.34302 1.45032,-0.6983 2.284,-1c0.88077,-0.31873 1.75739,-0.68741 2.616,-0.716c0.89951,-0.02995 1.50717,-0.48317 2.18533,-0.91467c0.77505,-0.49315 1.86356,0.08466 2.71466,-0.252c0.70264,-0.27792 1.49832,-0.67813 2.34732,-0.886c0.91733,-0.22461 1.64008,-0.86229 2.45267,-0.946c0.89529,-0.09222 1.81967,0.166 2.70001,-0.02216c0.84863,-0.18138 1.42462,-1.07205 2.10001,-1.54317c0.73358,-0.5117 1.69998,-0.436 2.60001,-0.43733l0.89999,-0.22l0.60001,-0.42601" id="svg_2" stroke-width="2" stroke="#000" fill="none"/>
  <path t="13714,13998,14014,14030,14042,14042,14060,14076,14092,14092,14116,14140,14160,14160,14165,14180,14196,14196,14212,14220,14228,14228,14244,14253,14253,14260,14270,14276,14276,14286,14292,14303,14308,14324,14324,14332,14340,14364,14364,14372,14396,14404,14412,14452,14501,14517,14548,14676,14677,14695,14712,14924,14925,15004,15028,15029,15045,15045,15056,15056,15060,15070,15087,15104,15104,15116,15116,15124,15140,15148,15156,15156,15164,15180,15196,15212,15212,15221,15221,15252,15285,15312,15348,15372,15396,15412,15421,15421,15444,15468,15492,15508,15525,15588,15589,15677" d="m398,119.5c1.70001,0.05717 2.4686,0.56145 3.29999,0.94733c0.87204,0.40475 1.44611,0.91457 2.10001,1.442c0.74551,0.60133 1.65692,0.90037 2.30002,1.258c0.85312,0.47441 1.69647,0.79239 2.39999,1.4525c0.49753,0.46682 1.43207,0.83491 2.19998,1.25284c0.84097,0.4577 1.5545,0.65666 2.30002,1.258c0.6539,0.52743 1.42917,1.1452 2.10001,1.44201c0.84763,0.37505 1.49808,1.14925 2,1.64732c0.69733,0.69202 1.54608,1.10001 2.29999,1.46667c0.76361,0.3714 1.60855,0.6534 2.2955,1.19049c0.7439,0.5816 0.97458,1.4165 1.8045,1.86417c0.64764,0.34933 1.42554,0.83678 2.00983,1.48317c0.56476,0.62479 1.31818,0.76335 2.2435,1.27017c0.73071,0.40024 1.36084,0.62677 2.21066,1.06133c0.69684,0.35632 0.99045,1.38162 1.6575,1.8425c0.72968,0.50414 1.74518,0.3421 2.37851,0.69617c0.86127,0.48151 1.86618,0.29002 2.60001,0.71068c0.68655,0.39354 1.53659,1.36339 1.02847,2.01016c-0.45093,0.57399 -1.6261,0.65211 -2.4285,0.69383c-0.99838,0.05191 -1.87173,-0.19218 -2.69016,0.36333c-0.68472,0.46475 -1.32983,1.14503 -2.10983,1.48067c-0.71127,0.30606 -1.65274,0.15733 -2.51599,0.16667c-0.96335,0.01042 -1.72009,0.46594 -2.58401,0.87866c-0.85266,0.40733 -1.43716,0.86829 -2.29999,1.08534c-0.8735,0.21974 -1.82324,-0.06038 -2.76666,0.20267c-0.68167,0.19006 -1.65521,0.73976 -2.42267,0.82266c-0.90546,0.09781 -1.80002,0.02133 -2.41068,0.51067c-0.61066,0.48933 -1.53473,0.4471 -2.29999,0.85266c-0.84592,0.4483 -1.70041,0.62198 -2.5,0.64734c-0.9014,0.02859 -1.62238,0.6862 -2.5,0.94284c-0.8656,0.25313 -1.80002,0.05733 -2.70001,0.22383l-0.60001,0.40799l-0.89999,0.42534" id="svg_3" stroke-width="2" stroke="#000" fill="none"/>
  <path t="16497,16686,16693,16701,16717,16730,16733,16741,16764,16772,16772,16804,16828,16845,16860,16892,16917,16933,16964,16964,16989,16996,17012,17029,17052,17080,17095,17117,17117,17132" d="m404,140.5c1.70001,0 2.70001,0 3.60001,0c0.89999,0 1.79999,0 2.69998,0c0.90002,0 1.80002,0 2.70001,0c0.79999,0 1.70001,0 2.60001,0c0.89999,0 1.79999,0 2.69998,0c0.90002,0 1.80002,0 2.70001,0c0.79999,0 1.70001,0 2.60001,0c0.89999,0 1.79999,0 2.69998,0c0.90002,0 1.80002,0 2.70001,0l0.79999,0l0.90002,0" id="svg_4" stroke-width="2" stroke="#000" fill="none"/>
  <path t="17886,18101,18108,18140,18163,18175,18175,18188,18196,18212,18260,18260,18285,18308,18332,18367,18380,18408,18409,18460,18495,18506,18548,18548,18572,18629,18677,18749,18789,18836,18877,18909,18930,18964,19007,19007,19030,19046,19055,19092,19165,19165,19205,19253,19280,19280,19297,19332,19356,19364,19404,19445,19445,19477,19573,19669,19669,19701,19749,19821,19877,19877,19933,19933,20045,20046,20065" d="m343,123.5c-1.71466,-1.16933 -1.77774,-2.11347 -2.284,-2.83067c-0.48837,-0.69188 -1.10208,-1.30769 -1.43201,-1.96934c-0.42056,-0.84336 -0.52603,-1.64834 -1,-2.284c-0.57327,-0.76882 -0.284,-1.716 -0.284,-2.616c0,-0.9 -0.14206,-1.813 0.01068,-2.7c0.14346,-0.83313 0.7413,-1.6309 1.04199,-2.3c0.37259,-0.82912 1.25586,-1.16448 2.14734,-1.30134c0.91577,-0.14059 1.45407,-0.80853 2.39999,-0.988c0.88428,-0.16778 1.79999,-0.01067 2.69998,-0.01067c0.90002,0 1.92664,-0.25862 2.57867,0.22134c0.69827,0.51398 0.96085,1.2882 1.47852,2.07867c0.52069,0.79505 1.31668,1.11532 1.58566,2c0.26196,0.86163 0.68661,1.45208 1.03632,2.24166c0.38168,0.86182 0.02084,1.633 0.02084,2.70117c0,0.85716 0,1.75716 0,2.55717c0,0.89999 -0.16718,1.62706 -0.716,2.284c-0.51691,0.61871 -0.89197,1.51863 -1.48401,2.116c-0.59729,0.60268 -1.25735,1.36117 -2.09998,1.74734c-0.76877,0.35231 -1.46686,0.89852 -2.30002,1.042c-0.88699,0.15275 -1.81088,0.02969 -2.72131,0.0105c-0.85388,-0.018 -1.79468,-0.28516 -2.43134,-0.70433l-0.73001,-0.4955l-0.8075,-0.5l-0.60001,-0.60001" id="svg_5" stroke-width="2" stroke="#000" fill="none"/>
  <path t="24618,24791,24798,24820,24839,24839,24857,24857,24857,24857,24857,24869,24869,24869,24869,24869,24876,24876,24876,24876,24884,24884,24893,24893,24909,24909,24916,24932,24943,25182,25204,25208,25225,25225,25232,25232,25232,25232,25236,25244,25244,25260,25260,25268,25276,25293,25310,25590,25598,25622,25645,25645,25660,25668,25684,25708,25716,25732,25732,25756,25789,25958,25998,26021,26037,26052,26052,26084,26108,26127,26127,26143,26165,26165,26320,26320,26348,26348,26365,26374,26383,26404,26420,26428,26444,26648,26656,26679,26694,26695,26703,26703,26712,26717,26732,26742,26748,26759,26788,26804,26828,26844,26878,26878,26933,27008" d="m289,309.5c1.79999,0 2.70001,-0.00113 3.52084,0c0.96716,0.00134 1.7778,0.01456 2.8125,0.33334c0.65067,0.20047 1.34677,0.53415 2.12399,0.85199c0.828,0.33859 1.70435,0.66479 2.62534,0.92932c0.92731,0.26633 1.39661,0.36404 2.3075,0.58084c1.27664,0.30386 2.03748,0.49973 2.71649,0.69385c0.87128,0.24908 1.9212,0.56189 2.776,0.60931c0.95193,0.05283 1.73532,0.03101 2.71283,0.354c0.76279,0.25204 1.67529,0.4118 2.60318,0.64868c0.8013,0.20456 1.21759,0.98062 0.91333,0.99866c-0.9357,0.05548 -1.94534,0 -2.65366,0c-0.95834,0 -1.81635,0 -2.45834,0c-0.948,0 -2.12851,0 -3,0c-0.75717,0 -1.65268,0 -2.51599,0c-0.96317,0 -1.884,0 -2.784,0c-0.90002,0 -2.0791,-0.39175 -2.61469,0.28534c-0.50818,0.64243 -0.11069,1.71506 -0.08533,2.51465c0.02859,0.9014 0.68619,1.62238 0.94284,2.5c0.25311,0.8656 -0.12421,1.85349 0.22382,2.70001c0.27591,0.67108 0.82291,1.49982 0.83334,2.39999c0.01031,0.89093 -0.28177,0.92749 -0.87866,0.37866c-0.64005,-0.58853 -1.27322,-1.13889 -1.92133,-1.49466c-0.79559,-0.43674 -1.30295,-1.17389 -2.06134,-1.67334c-0.61154,-0.40274 -1.65787,-0.54895 -2.45999,-0.83215c-0.69946,-0.24695 -1.51236,-1.52011 -2.31702,-1.36417c-0.67575,0.13098 -0.36166,1.38565 -0.36166,2.28568c0,0.89999 0,1.79999 0,2.69998c0,0.89999 0.12402,1.80862 -0.00015,2.69983c-0.11172,0.80188 -0.67773,1.73267 -1.43585,1.84283c-0.91013,0.13226 -1.13043,-1.15018 -1.66382,-1.92114c-0.51172,-0.73965 -1.05518,-1.45508 -1.54752,-2.07419c-0.51471,-0.64728 0.0105,-1.74423 -0.38867,-2.51132c-0.39514,-0.7594 -1.41431,-0.98093 -1.87866,-1.72134c-0.48807,-0.77826 -0.08533,-1.81467 -0.08533,-2.71466l-0.08533,-0.79999l-0.41467,-0.70001l-0.44284,-0.79999" id="svg_7" stroke-width="2" stroke="#000" fill="none"/>
  <path t="28088,28208,28223,28223,28232,28232,28232,28232,28237,28237,28246,28246,28253,28253,28262,28262,28269,28279,28279,28293,28293,28300,28300,28300,28310,28326,28343,28360,28388,28388,28600,28632,28653,28653,28663,28663,28669,28677,28684,28684,28694,28710,28710,28716,28732,28743,28743,28760,28764,28968,29009,29031,29031,29040,29040,29040,29053,29063,29068,29108,29108,29143,29312,29344,29361,29361,29373,29373,29396,29396,29672,29695,29701,29719,29730,29748,29764,29788,29796,29879,29880,30008,30029,30039,30053,30085,30109,30109,30117,30130,30133,30133,30146,30163,30166,30173,30182,30197,30213,30237,30253,30268,30284,30300,30316,30340,30398,30494" d="m252,333.5c-0.436,1.81467 -1.05307,2.60052 -1.636,3.12268c-0.76384,0.6842 -1.02074,1.29016 -1.364,1.89816c-0.52223,0.92502 -0.97211,1.7193 -1.47917,2.4375c-0.61314,0.86847 -0.9724,1.57269 -1.52083,2.375c-0.46091,0.67426 -1.20192,1.36475 -1.7,1.86667c-0.69202,0.69733 -1.13144,1.5394 -1.46933,2.18533c-0.43675,0.83493 -1.05183,1.29721 -1.664,2.11465c-0.56485,0.75424 -1.06192,1.32101 -1.73067,2.01468c-0.58673,0.60861 -1.00967,1.44836 -1.38333,2.28531c-0.34476,0.77219 -0.93106,1.46191 -1.04201,2.30002c-0.12206,0.922 0.90759,0.99753 1.50667,0.51199c0.81635,-0.66162 1.07951,-1.5293 1.88266,-2.05066c0.73087,-0.47443 1.62918,-0.8172 2.3,-1.11401c0.84766,-0.37506 1.49808,-1.14926 2,-1.64734c0.69734,-0.69202 1.56435,-1.06458 2.3,-1.46664c0.73549,-0.40198 1.1105,-1.30505 1.64734,-1.88602c0.63634,-0.68863 1.60048,-1.29422 2.18599,-0.61398c0.4747,0.55151 0.30804,1.67542 0.59201,2.45599c0.26714,0.73434 0.26701,1.7467 0.58533,2.60001c0.28374,0.76062 1.24684,1.14871 1.55333,1.79599c0.47955,1.01282 1.03792,1.99319 1.40001,1.36801c0.43883,-0.75769 0.036,-1.76401 0.036,-2.75317c0,-0.77933 0,-1.77866 0,-2.59885c0,-0.90134 -0.05815,-1.97 0.7045,-2.19684c0.85837,-0.25531 1.7955,-0.00449 2.6955,-0.00449c0.89999,0 1.80002,0 2.70001,0c0.89999,0 1.85538,0.08881 2.46399,-0.61066c0.57147,-0.6568 -0.13776,-1.33295 -0.58932,-2c-0.49878,-0.73682 -1.07355,-1.49048 -1.67468,-2.08936c-0.59885,-0.59662 -1.62457,-0.93634 -2.13333,-1.63333c-0.40512,-0.55505 -0.50571,-1.57159 -1.16666,-2.16666c-0.59863,-0.53897 -1.44012,-0.90332 -1.91599,-1.69867c-0.41394,-0.69183 -0.96025,-1.33975 -1.60484,-1.80133c-0.69357,-0.49664 -1.15012,-1.22977 -1.7005,-1.87866c-0.56084,-0.66122 -1.20401,-1.09601 -1.804,-1.69601l-0.69067,-0.50934l-0.28267,-0.71732" id="svg_8" stroke-width="2" stroke="#000" fill="none"/>
  <path t="31369,31566,31591,31609,31610,31610,31615,31625,31625,31632,31632,31636,31646,31646,31652,31652,31662,31668,31679,31684,31696,31700,31700,31712,31716,31716,31729,31746,31748,31756,31764,31764,31772,31780,31788,31796,31796,31804,31812,31813,31820,31820,31829,31836,31846,31846,31852,31868,31868,31868,31879,31879,31884,31896,31896,31913,31913,31916,31916,31932,31932,31940,31940,31948,31956,31964,31972,31972,31980,31988,31988,31996,32004,32013,32013,32029,32030,32030,32036,32036,32036,32046,32063,32063,32068,32068,32080,32080,32096,32096,32100,32100,32113,32113,32116,32127,32127,32132,32140,32148,32148,32148,32156,32164,32164,32180,32180,32180,32188,32188,32196,32204,32204,32212,32212,32220,32228,32228,32236,32236,32244,32244,32252,32252,32261,32261,32268,32268,32277,32278,32284,32284,32294,32294,32294,32300,32300,32311,32311,32316,32316,32316,32328,32332,32332,32340,32340,32348,32356,32364,32364,32372,32380,32388,32396,32403,32411,32411,32419,32419,32427,32427,32435,32435,32444,32444,32444,32451,32451,32460,32460,32467,32477,32477,32494,32499,32499,32510,32515,32515,32527,32527,32533,32533,32541,32541,32548,32548,32556,32556,32564,32564,32574,32574,32581,32581,32581,32588,32588,32588,32596,32604,32604,32612,32612,32612,32620,32628,32628,32628,32636,32636,32645,32645,32652,32652,32662,32662,32668,32668,32684,32684,32695,32700,32700,32712,32716,32716,32732,32732,32740,32748,32772,32803,32811,32819,32819,32843,32867,32980" d="m274,222.5c1.99734,0.80133 2.00531,1.67909 2.22134,2.54266c0.1788,0.71478 0.4827,1.69231 0.72598,2.64301c0.20908,0.81702 0.71512,1.41666 1.25134,2.29832c0.40601,0.66757 0.75861,1.62759 0.80133,2.51601c0.03635,0.7563 0,1.65266 0,2.51601c0,0.96317 0,1.88399 0,2.784c0,0.89999 0,1.8 0,2.7c0,0.8 0,1.75717 0,2.65266c0,0.69467 0,1.71133 0,2.64734c0,0.89999 0,1.8 0,2.7c0,0.8 0,1.7 0,2.60001c0,0.92082 0,1.88399 0,2.57466c0,1.06816 0.09283,1.94125 -0.08533,2.71068c-0.22549,0.97385 -0.74417,1.60663 -0.89383,2.59381c-0.13812,0.91098 -0.28857,1.73648 -0.82217,2.32083c-0.67691,0.7413 -1.21793,1.35553 -1.59866,2.03601c-0.42166,0.7536 -0.80142,1.82199 -1.30002,2.44968c-0.59543,0.74954 -1.5661,0.94147 -2.09998,1.60098c-0.57791,0.71393 -0.89676,1.5195 -1.30002,2.31317c-0.39679,0.78098 -0.86536,1.6619 -1.39999,2.27933c-0.56509,0.65262 -1.33044,0.95062 -2.064,1.54617c-0.64957,0.52737 -0.95157,1.4798 -1.53601,2.07468c-0.59467,0.60529 -1.29077,1.30933 -1.89999,1.89999c-0.59122,0.57321 -1.55249,0.94162 -2.02533,1.61066c-0.51935,0.73483 -0.9339,1.21649 -1.9845,1.69385c-0.50522,0.22955 -1.34372,0.5242 -2.3035,1.17816c-0.67267,0.45834 -1.17709,0.99051 -2.16585,1.49649c-0.80812,0.41354 -1.39302,0.84299 -2.17349,1.32083c-0.68365,0.41858 -1.57304,1.02884 -2.23134,1.5c-0.74565,0.53369 -1.46265,0.90106 -2.36333,1.49551c-0.63618,0.41989 -1.59888,0.58762 -2.26868,0.78851c-1.01302,0.30383 -1.60538,1.22354 -2.284,1.63065c-0.73595,0.44147 -1.58156,0.7626 -2.36667,1.28534c-0.63689,0.42404 -1.34929,0.71484 -2.33333,1c-0.98529,0.28552 -1.71172,0.60852 -2.5,1c-0.80109,0.39783 -1.39561,0.70889 -2.39867,1.19867c-0.76207,0.3721 -1.71292,0.75861 -2.60133,0.80133c-0.7563,0.03635 -1.6732,-0.11856 -2.51601,0.08533c-0.888,0.21481 -1.6893,0.81903 -2.45467,0.99869c-0.80028,0.18787 -1.51402,0.47516 -2.696,0.74933c-0.80412,0.18652 -1.65483,0.1666 -2.54399,0.16666c-0.98917,0.00009 -1.81006,-0.12726 -2.76801,0.22134c-0.69247,0.25201 -1.50938,0.67795 -2.23199,0.80399c-0.99359,0.17331 -1.79193,0.49011 -2.78934,0.97467c-0.60159,0.29227 -1.38066,0.72784 -2.39867,0.91467c-0.75633,0.13879 -1.72716,0.02429 -2.57066,0.17065c-0.81122,0.14078 -1.54987,0.3898 -2.26266,0.716c-1.13098,0.51755 -1.86137,1.13651 -2.65334,1.19733c-0.93724,0.07196 -1.63068,0.00134 -2.70401,0.00134c-0.82132,0 -1.73199,0 -2.58533,0c-0.94,0 -2.05025,-0.25626 -2.70399,0.22134c-0.69907,0.51071 -1.32275,0.76657 -2.28801,0.77866c-0.83353,0.01044 -1.6474,0.20642 -2.45866,0.57468c-0.84209,0.38223 -1.58528,0.41998 -2.57466,0.42532c-0.79999,0.00433 -1.8,0 -2.60001,0c-0.8,0 -1.8,-0.00055 -2.59999,0c-0.99867,0.00067 -1.81178,-0.10336 -2.71468,0.284c-0.95752,0.4108 -1.58533,0.71301 -2.52133,0.716c-0.84799,0.00272 -1.75453,-0.05087 -2.60683,0.35266c-0.81061,0.38379 -1.57161,0.63306 -2.52518,0.64868c-0.73216,0.01199 -1.91795,0.12057 -2.56,0.42398c-0.90616,0.42822 -1.64267,0.57401 -2.44,0.57468c-0.98132,0.00082 -1.89867,-0.00055 -2.71117,0c-1.00616,0.00067 -1.74815,-0.0376 -2.72083,0.22134c-0.81863,0.21793 -1.79401,0.6572 -2.61067,0.74265c-0.64375,0.06735 -1.61118,0.01233 -2.40399,0.04669c-1.01779,0.0441 -1.90741,0.47134 -2.78534,0.82266c-0.64049,0.25632 -1.76801,0.16666 -2.5,0.16666c-0.73199,0 -1.84933,0 -2.83333,0c-0.67201,0 -1.41656,-0.03531 -2.52383,0.00015c-0.89236,0.02856 -1.78456,0.39514 -2.54733,0.64719c-0.97751,0.323 -1.75946,0.34732 -2.7115,0.35266c-0.76799,0.0043 -1.72,0 -2.48534,0c-0.99417,0 -1.7415,0 -2.77333,0c-0.94667,0 -1.8,0 -2.74001,0c-0.88533,0 -1.6425,0 -2.53799,0c-0.86334,0 -1.82651,0 -2.74733,0c-0.90001,0 -1.8,0 -2.7,0c-0.9,0 -1.7,0 -2.6,0l-0.9,0l-0.9,0" id="svg_9" stroke-width="2" stroke="#000" fill="none"/>
  <path t="33603,33684,33692,33700,33701,33719,33719,33725,33725,33725,33740,33740,33747,33747,33755,33763,33779,33779,33795,33795,33803,33811,33819,33835,33845,33845,33851,33852,33861,33878,33878,33883,33884,33895,33899,33911,33911,33915,33924,33939,33939,33955,33955,33963,33963,33963,33971,33972,33979,33979,33979,33987,33988,33995,33995,34003,34004,34012,34012,34019,34020,34028,34028,34035,34036,34036,34051,34051,34062,34062,34062,34067,34079,34079,34083,34095,34099,34100,34112,34115,34116,34124,34131,34131,34147,34187,34228,34380" d="m95,348.5c-1.6,0.61066 -2.22642,1.40808 -3,1.83334c-0.70637,0.38831 -1.48357,0.7381 -2.02084,1.1875c-0.97596,0.81635 -1.58236,1.2095 -2.322,1.67465c-0.78152,0.49149 -1.3985,1.02148 -2.13983,1.50452c-0.79575,0.51849 -1.33757,1.31555 -1.95333,1.77466c-0.7608,0.56726 -1.42366,0.86902 -2.21667,1.32083c-0.67481,0.38449 -1.70814,0.6701 -2.34734,1.2045c-0.618,0.51666 -1.39732,0.93884 -2.10017,1.60001c-0.53381,0.50217 -1.41763,1.04739 -2.0385,1.5c-0.74023,0.53961 -1.31043,1.24991 -2.04667,1.42532c-0.93874,0.22369 -1.54602,0.85342 -2.31467,1.45383c-0.65025,0.50793 -1.55956,0.80582 -2.2,1.16818c-0.82079,0.46442 -1.33892,1.13901 -2.01434,1.65265c-0.63806,0.48523 -1.68567,0.90002 -2.28567,1.20001c-1,0.5 -1.59999,0.79999 -2.4,1.20001c-1,0.5 -1.60075,0.79849 -2.6,1.29999c-0.59595,0.2991 -1.36757,0.66431 -2.24733,1.29999c-0.65616,0.47412 -1.4048,1.00955 -2.15717,1.40002c-0.79017,0.4101 -1.60452,0.75217 -2.42883,1.29999c-0.69405,0.46124 -1.30612,1.05081 -2.16667,1.47916c-0.81061,0.4035 -1.67068,0.51224 -2.48533,1.09018c-0.57128,0.40527 -1.0853,0.99142 -1.91467,1.54532c-0.77356,0.51663 -1.60711,0.87161 -2.38933,1.28534c-0.73221,0.38727 -1.5265,1.11636 -2.37733,1.43335c-0.77723,0.28955 -1.48467,0.64771 -2.195,1.11398c-0.6975,0.45786 -1.70096,0.47565 -2.39566,1.1525c-0.668,0.65085 -1.43541,0.59888 -2.13284,1.25735c-0.67598,0.63821 -0.91117,1.35748 -1.80983,1.6955l-0.8,0.44733l-0.7955,0.44733l-0.6685,0.48868" id="svg_10" stroke-width="2" stroke="#000" fill="none"/>
  <path t="34830,34933,34941,34941,34954,34954,34954,34957,34957,34971,34971,34973,34973,34979,34979,34987,34987,34988,34995,34995,35003,35003,35012,35012,35028,35029,35029,35035,35035,35036,35045,35045,35051,35052,35062,35062,35067,35068,35079,35079,35083,35083,35095,35096,35100,35100,35100,35108,35108,35108,35115,35115,35124,35124,35124,35131,35131,35131,35140,35140,35140,35147,35147,35156,35156,35156,35163,35163,35172,35172,35172,35180,35188,35188,35188,35196,35196,35204,35213,35213,35243,35396,35396" d="m43,419.5c1.75717,-0.05716 2.67574,-0.32816 3.21067,-0.64667c1.02878,-0.61255 1.58537,-1.17166 2.13217,-1.70065c0.78289,-0.75742 1.25496,-1.28268 2.14117,-1.85269c0.67127,-0.43176 1.48286,-0.91565 2.14133,-1.39999c0.84533,-0.62177 1.42792,-0.87418 2.37467,-1.56665c0.61812,-0.45212 1.09919,-1.06824 1.97867,-1.59067c0.72962,-0.43341 1.52061,-0.79529 2.196,-1.42801c0.67432,-0.63171 1.32534,-1.31467 1.992,-1.98132c0.4905,-0.49051 1.04399,-1.04401 1.83333,-1.83334c0.5955,-0.59549 1.16399,-1.164 1.83334,-1.83334c0.64582,-0.64581 1.2275,-1.31281 1.92383,-1.86667c0.69101,-0.54965 1.49546,-0.85388 2.22134,-1.62115c0.56821,-0.60062 1.07532,-1.2695 1.7215,-1.78418c0.66869,-0.53262 0.99317,-1.31293 1.784,-2.01065c0.64352,-0.56775 1.51259,-1.1922 1.89066,-1.72c0.53535,-0.74734 1.08773,-1.58472 1.64617,-2.14316c0.55846,-0.55847 1.4097,-1.09192 2.14317,-1.64618c0.85506,-0.64612 1.19261,-1.23328 1.64583,-1.77917c0.6909,-0.83218 1.44916,-1.38531 1.93951,-1.7955c0.93358,-0.78098 1.40697,-1.422 1.99883,-2.14282c0.54324,-0.66159 1.3256,-1.07419 2.08517,-1.82382c0.60683,-0.59888 0.855,-1.24747 1.65067,-1.94934c0.64355,-0.56769 1.38856,-1.0209 1.88,-1.70935c0.47411,-0.66418 1.00349,-1.59384 1.80267,-2.17465c0.6279,-0.45633 1.40736,-0.83398 2.07617,-1.64816c0.49863,-0.60699 1.12541,-1.1134 1.95716,-1.63718c0.66965,-0.42169 1.2,-1.11465 1.9,-1.81448l0.6,-0.543" id="svg_11" stroke-width="2" stroke="#000" fill="none"/>
  <path t="36401,36446,36455,36455,36473,36473,36481,36481,36481,36481,36484,36484,36484,36492,36500,36500,36500,36508,36508,36516,36516,36524,36532,36532,36540,36540,36547,36564,36572,36587,36733,36744,36764,36764,36769,36769,36769,36769,36770,36790,36790,36790,36795,36795,36795,36799,36799,36799,36808,36820,36831" d="m249,215.5c-0.11433,1.7 -0.72301,2.27934 -1.51733,2.8c-0.74738,0.48988 -1.29196,1.01486 -2.0255,1.74266c-0.46666,0.46301 -1.23079,1.21991 -1.77451,1.68933c-0.74539,0.64354 -1.65327,1.207 -2.196,1.56534c-0.8824,0.58261 -1.65334,1.36934 -2.13933,1.85533c-0.522,0.522 -1.32584,1.32584 -1.82651,1.82651c-0.72083,0.72083 -1.3208,1.32086 -1.92082,1.92082c-0.70013,0.70006 -1.21584,1.22955 -2.08267,1.8c-0.64183,0.42238 -1.33072,1.15746 -1.87,1.74733c-0.57433,0.62822 -1.75114,0.6633 -2.01534,1.47801c-0.18523,0.57118 1.20335,0.61209 1.9305,0.55383c1.1102,-0.08894 1.77614,-0.25789 2.5495,-0.41518c0.82413,-0.16762 1.6458,-0.33606 2.72366,-0.66383c0.87451,-0.26595 1.59581,-0.60098 2.58568,-0.77882c0.79694,-0.14319 1.64098,-0.09956 2.657,-0.34283c0.68878,-0.16492 1.435,-0.57983 2.28566,-1.16783l0.836,-0.52534l0.90001,-0.08533" id="svg_12" stroke-width="2" stroke="#000" fill="none"/>
  <path t="37337,37414,37430,37462,37482,37492,37508,37516,37524,37540,37548,37565,37565,37572,37572,37588,37598,37615,37620,37632,37648,37665,37668,37668,37692,37692,37918,37926,37946,37951,37951,37951,37951,37969,37969,37972,37972,37972,37982,37988,37999,38013,38060,38060,38070,38094,38115,38254,38254" d="m261,231.5c-0.16666,1.83333 -0.76697,2.30801 -1.35266,2.94733c-0.53433,0.58327 -0.92786,1.45609 -1.64734,1.886c-0.77048,0.46039 -1.35123,0.99458 -1.94733,1.51933c-0.66093,0.58183 -1.25688,1.21396 -1.65268,1.83267c-0.50522,0.78975 -0.84358,1.62888 -1.42532,2.37866c-0.48489,0.62497 -1.14134,1.26933 -1.97467,1.436c-0.83333,0.16667 -1.29144,0.86482 -2.2,1.00133c-0.80785,0.12138 -1.40234,0.66115 -2.284,1.19734c-0.66757,0.40601 -1.93785,0.5247 -1.89467,0.80133c0.12503,0.80096 1.87866,0 2.43066,0c0.948,0 1.896,0 2.89467,0c0.85416,0 1.82133,0 2.55333,0c0.73199,0 1.828,0 2.8,0c0.90001,0 1.8,0 2.7,0c0.79999,0 1.70001,0 2.60001,0l0.92084,0l0.80017,0.00017l0.91199,0.05699" id="svg_13" stroke-width="2" stroke="#000" fill="none"/>
  <path t="38493,38574,38574,38582,38582,38590,38590,38609,38609,38616,38616,38620,38620,38632,38632,38636,38636,38646,38646,38663,38663,38663,38668,38668,38684,38692,38716,38716,38870,38894,38908,38916,38916,38924,38924,38924,38932,38932,38932,38940,38940,38940,38948,38948,38956,38956,38956,38964,38964,38964,38972,38972,38988,38996,39013,39086,39182,39211,39211,39211" d="m251,261.5c1,1 0.96291,1.79422 0.12801,2.39999c-0.49788,0.36124 -1.51102,0.83347 -2.29201,1.164c-0.93515,0.39578 -1.61758,0.50406 -2.49316,1.14133c-0.57372,0.41754 -1.31633,1.06213 -2.13217,1.22269c-1.02678,0.20206 -1.83641,0.0466 -2.696,0.07333c-0.92041,0.02863 -1.91212,0.28979 -2.51466,0.49866c-0.99596,0.34521 -1.79945,0.48077 -2.60001,0.49866c-0.99525,0.02222 -1.91466,-0.0007 -2.76399,0.00134c-0.93602,0.00226 -1.77435,0.38608 -2.436,0.716c-0.84335,0.42056 -2.30429,0.44031 -1.94266,1c0.45631,0.70624 1.53867,0.27277 2.57599,0.284c0.94135,0.01019 1.62643,0.01974 2.58817,0.22134c0.82179,0.17227 1.67647,0.46085 2.57851,0.612c0.88591,0.14844 1.75914,0.05969 2.85733,0.388c0.67113,0.20062 1.68269,0.68546 2.40401,0.74265c0.78865,0.06253 1.81717,0.03601 2.71783,0.03601c0.61949,0 1.81017,0 2.53549,0c0.96451,0 1.88533,0 2.78534,0c0.89999,0 1.7995,-0.00034 2.1355,-0.44299l-0.498,-0.59866l-0.5415,-0.561" id="svg_14" stroke-width="2" stroke="#000" fill="none"/>
  <path t="39461,39542,39550,39558,39558,39559,39579,39579,39579,39594,39594,39594,39594,39594,39600,39600,39600,39600,39600,39604,39604,39604,39604,39615,39615,39620,39620,39631,39631,39648,39665,39717,39901,39909,39926,39926,39942,39942,39942,39943,39955,39955,39955,39995,40020,40052,40060,40068,40068,40084,40100,40222,40222,40245,40253,40253" d="m238,251.5c-1.7,-0.9955 -2.672,-1 -3.54283,-1c-0.71851,0 -1.509,0 -2.77583,0c-0.72301,0 -1.536,-0.00262 -2.54584,0.00017c-0.80701,0.00223 -1.69815,0.01634 -2.1675,0.03583c-0.97241,0.04037 -2.46849,0.17935 -2.96533,0.24934c-0.98312,0.1385 -1.46397,0.22105 -2.38834,0.41916c-1.28546,0.2755 -2.04233,0.49416 -2.73167,0.68483c-0.91649,0.25349 -1.95726,0.5304 -2.84099,0.58984c-1.01825,0.0685 -1.79434,0.02083 -2.69434,0.02083c-0.86334,0 -1.82651,0 -2.64734,0c-0.89999,0 -2.04266,-0.243 -2.04266,0c0,0.83067 1.62534,-0.0011 2.67599,0c0.63467,0.00067 1.66859,-0.00592 2.36134,0.05716c1.26755,0.1154 2.01332,0.39513 2.81732,0.65884c0.84317,0.27657 1.78801,0.284 2.688,0.284c0.90001,0 1.83826,-0.17355 2.60001,0.08533c0.88791,0.30176 1.61073,0.87682 2.52116,0.91484c0.81758,0.03415 1.60683,0.4465 1.67833,1.32133l-0.062,0.69934" id="svg_15" stroke-width="2" stroke="#000" fill="none"/>
  <path t="40493,40532,40540,40540,40557,40558,40558,40574,40574,40574,40574,40590,40590,40590,40590,40590,40599,40599,40599,40599,40599,40604,40604,40604,40616,40616,40620,40620,40633,40633,40633,40652,40652,40734,40790,40790,40811,40815,40815,40827,40827,40827,40827,40828,40828,40835,40835,40835,40849,40849,40851,40851,40859,40860,40867,40867,40875,40875,40883,40891,40908,40924,40924,40933,40933,40940,40950,40950,40956,40967,40972,40972,40983,40988,40988,41000,41017,41126,41150,41158" d="m213,263.5c-1.52083,1.5 -2.32291,2.09735 -3,2.5c-0.83528,0.49673 -1.3763,0.9393 -2.05467,1.38535c-0.97479,0.64096 -1.64763,0.95206 -2.37733,1.28931c-0.76622,0.3541 -1.96626,0.80954 -2.36932,0.94c-0.80573,0.2608 -1.63264,0.48309 -2.48401,0.68402c-1.33261,0.31451 -1.79655,0.39877 -2.71866,0.60132c-0.89922,0.19751 -1.75041,0.36874 -2.8315,0.69983c-0.86449,0.26474 -1.53168,0.62952 -2.5645,0.81485c-0.79085,0.14191 -1.8,0.08533 -2.60001,0.08533c-1,0 -1.80917,-0.0567 -2.60001,0.08533c-1.01454,0.18219 -1.74104,0.56744 -2.64282,0.862c-0.85518,0.27933 -1.60968,0.97437 -1.09984,1.65268c0.61502,0.81827 1.37236,0.92789 2.50934,1.39999c0.51225,0.21271 1.33754,0.4888 2.14932,0.79999c1.00406,0.38489 1.63826,0.76141 2.68401,1.03336c0.78624,0.20447 1.61317,0.20572 2.60001,0.51932c0.8125,0.25821 1.59583,0.56769 2.39999,0.6265c0.99756,0.07294 1.97917,0.02084 2.83333,0.02084c0.79201,0 1.81934,0 2.51401,0c1.01666,0 1.95267,0 2.854,0c0.96533,0 1.62399,0 2.63199,0c0.86217,0 1.80267,0 2.65067,0c0.86334,0 1.75883,0 2.716,0c0.90018,0 1.68533,0 2.62534,0c1.008,0 1.76401,0 2.67467,0c0.89999,0 1.7955,0.00449 2.464,0.436l0.03149,0.86398" id="svg_16" stroke-width="2" stroke="#000" fill="none"/>
  <path t="41405,41435,41443,41453,41453,41461,41461,41461,41478,41478,41478,41478,41497,41497,41497,41497,41497,41497,41512,41512,41512,41512,41512,41512,41512,41512,41520,41520,41520,41520,41520,41520,41524,41524,41524,41533,41533,41533,41547,41547,41547,41555,41781,41782,41790,41808,41808,41808,41816,41816,41816,41816,41816,41820,41820,41820,41833,41833,41836,41837,41844,41844,41844,41851,41851,41867,41875,41891,41899,41915,41923,41931,41931,41947,41955,41964,41971,41980,42124,42124,42144,42144,42145,42145,42145,42155,42155,42155,42155,42155,42155,42155" d="m198,289.5c-1.7,0 -2.636,0 -3.48666,0c-0.76001,0 -1.93483,0 -2.74933,0c-0.57468,0 -1.76401,0 -2.67751,0c-0.649,0 -1.358,0 -2.5865,0c-0.95734,0 -1.476,0 -2.58333,0c-0.58467,0 -1.18733,0 -3.08334,0c-0.65466,0 -1.31732,0 -1.98599,0c-0.67267,0 -2.022,0 -2.69467,0c-0.66867,0 -1.98599,0 -3.26199,0c-0.61551,0 -1.21201,0 -2.336,0c-0.5215,0 -1.888,0 -2.61334,0c-0.858,0 -1.94133,0 -2.752,0c-0.87466,0 -1.87199,0 -2.6685,0c-0.7515,0 -1.8595,0 -2.84166,0c-0.74583,0 -0.43625,-0.02225 0.5215,0.00034c0.88338,0.02081 1.43454,0.08496 2.466,0.33301c0.87424,0.21024 1.82423,0.51654 2.3125,0.66666c0.95346,0.29312 2.17712,0.71191 3.03949,0.88568c0.70944,0.14294 1.64473,0.06171 2.38583,0.17148c1.01129,0.14981 1.81648,0.57941 2.76218,0.77618c0.77258,0.16077 1.57195,0.16132 2.69032,0.16666c0.83398,0.004 1.74301,0 2.64301,0c0.89999,0 1.8,0 2.7,0c0.90001,0 1.8,0 2.60001,0c0.89999,0 1.8,0 2.7,0c0.89999,0 2.01016,-0.36041 2.599,0.22168c0.49164,0.48602 -0.60419,1.28595 -1.347,1.59299c-0.43369,0.17926 -1.44685,0.49106 -2.01601,0.616c-1.22905,0.26981 -2.58479,0.40582 -3.28499,0.45502c-0.7052,0.04953 -1.40933,0.07266 -2.103,0.09299l-0.67567,0.01233" id="svg_17" stroke-width="2" stroke="#000" fill="none"/>
  <path t="42432,42822,42823,42830,42831,42852,42852,42852,42869,42869,42869,42877,42877,42886,42886,42903,42923,42955,42955,42977,43142,43163,43171,43171,43172,43184,43184,43188,43188,43188,43199,43199,43204,43204,43215,43215,43215,43220,43228,43228,43228,43235,43235,43244,43251,43251,43260,43267,43267,43283,43284,43292,43292,43299,43299,43308,43308,43315,43332" d="m153,295.5c-1.836,-0.436 -2.59195,-0.8208 -3.40134,-1.19867c-0.82558,-0.38541 -1.76151,-0.66696 -2.55133,-0.74417c-0.81941,-0.08011 -1.88223,-0.0181 -2.59016,-0.06616c-0.85716,-0.0582 -1.86082,-0.55237 -2.43634,-0.991c-0.86176,-0.6568 -1.60999,-0.9873 -2.42082,-1c-0.89992,-0.01407 -1.73836,-0.38608 -2.40001,-0.716c-0.84335,-0.42056 -2.10722,-0.28232 -2.13834,-1.04565c-0.03818,-0.93655 0.35527,-1.69547 0.92368,-2.59167c0.43536,-0.68646 1.28139,-0.62271 2.43584,-0.86816c0.53229,-0.11316 1.35991,-0.30185 2.43599,-0.87851c0.65182,-0.3493 1.4379,-1.05325 2.16367,-1.37915c0.94989,-0.42651 1.76843,-0.48633 2.49384,-0.5195c0.98524,-0.04504 1.7977,-0.45566 2.50616,-1.00134c0.57327,-0.44156 1.61694,-0.75195 2.26483,-1.04816c0.86357,-0.39484 1.39751,-1.30197 2.06618,-1.59467c0.86256,-0.37759 1.73935,-0.59113 2.40533,-1.06168c0.71872,-0.50781 1.43227,-0.93628 2.44266,-1.17416c0.76775,-0.18076 1.79054,-0.32401 2.42551,-0.73199c0.87555,-0.56256 1.54933,-0.95334 2.48799,-1.30533l0.7655,-0.30551" id="svg_18" stroke-width="2" stroke="#000" fill="none"/>
  <path t="44334,44390,44412,44414,44414,44414,44431,44432,44432,44432,44448,44448,44448,44448,44448,44457,44458,44458,44460,44460,44460,44478,44478,44498,44499,44499,44501,44501,44508,44532,44734,44735,44743,44743,44758,44758,44758,44768,44768,44768,44768,44768,44768,44768,44772,44772,44772,44772,44772,44785,44785,44785,44785,44788,44788,44788,44799,44799,44799,44804,44804,44812,44819,44820,44828,44828,44854,45046,45067" d="m191,231.5c-2.08267,0.80133 -2.53387,1.52847 -3.16667,2.16667c-0.67181,0.67754 -1.06035,1.06749 -2,1.83333c-0.50835,0.41432 -1.36034,1.01268 -1.93784,1.45717c-0.90536,0.69685 -1.49988,1.22066 -2.08482,1.76816c-0.58043,0.54327 -1.12567,1.09033 -1.88918,1.85318c-0.68581,0.6852 -1.31482,1.31917 -2.12132,2.12115c-0.39462,0.39241 -1.06839,1.21162 -1.91751,1.63101c-0.65079,0.32143 -1.65622,0.44157 -2.40349,0.69016c-0.80128,0.26654 -1.84416,0.58669 -2.59651,1.07918c-0.77916,0.51004 -1.19109,1.24939 -2.04933,1.56667c-0.79567,0.29414 -1.15294,1.14285 -0.41533,1.47617c0.93556,0.42276 1.70685,0.34338 2.325,0.35266c1.25687,0.01884 1.78517,0.0045 2.97751,0.0045c0.64217,0 1.30032,0 1.9635,0c1.29733,0 2.48267,0 3.49066,0c0.856,0 1.608,0 2.304,0c1.04266,0 1.774,0 2.896,0c0.74133,0 1.80367,0 2.77867,0c0.59999,0 1.67999,0 2.61067,0c0.83466,0 1.8315,0 2.57883,0c1.03183,0 1.82384,0 2.65717,0c0.9785,0 1.79866,0 2.7,0l0.90001,0l0.89999,0" id="svg_19" stroke-width="2" stroke="#000" fill="none"/>
  <path t="45569,45622,45630,45648,45648,45667,45667,45667,45667,45671,45671,45671,45671,45690,45690,45692,45692,45692,45692,45700,45700,45700,45707,45707,45708,45716,45724,45724,45733,45733,45733,45749,45749,45756,45756,45766,45787,45819,45820,45974,45997,45998,46002,46002,46002,46003,46003,46003,46003,46020,46020,46020,46020,46020,46028,46028,46028,46029,46036,46036,46037,46044" d="m216,206.5c-1.7,0.05716 -2.48927,0.53207 -3.20267,1.20134c-0.60275,0.56548 -1.33284,1.13135 -2.08,1.63466c-0.56895,0.38327 -1.19687,0.78021 -2.23833,1.36366c-0.71698,0.40167 -1.42973,0.77483 -2.112,1.086c-1.09146,0.4978 -1.88139,0.67392 -2.867,1.04767c-0.56247,0.21329 -1.52213,0.68486 -2.19917,1.01851c-0.96938,0.47771 -1.7865,0.89101 -2.47949,1.2375c-0.82133,0.41068 -1.63214,0.77399 -2.336,1.21066c-0.87843,0.545 -1.60303,1.03081 -2.29967,1.30983c-0.98271,0.3936 -1.44765,0.73476 -2.18033,1.242c-0.87648,0.6068 -1.58438,1.30263 -2.48801,1.56416c-0.7867,0.22769 -1.30917,0.7301 -1.879,1.3795c-0.63853,0.72772 -2.06488,0.18849 -2.46634,0.98849c-0.31107,0.61989 0.93266,0.71375 1.99467,0.716c1.024,0.00217 1.61099,0 2.23199,0c0.64301,0 1.94701,0 2.584,0c1.18401,0 2.19333,0 3.05867,0c0.77733,0 1.52266,0 2.70116,0c0.85834,0 1.73668,0 2.595,0c1.16251,0 1.80518,0 2.79451,0l0.98267,0" id="svg_20" stroke-width="2" stroke="#000" fill="none"/>
 </g>
 <g display="none">
  <title>muse_image</title>
  <image xlink:href="http://farm4.static.flickr.com/3174/2364268860_d96235660d.jpg" id="muse" height="480" width="640" y="0" x="0"/>
 </g>
 <g display="none">
  <title>bbox</title>
  <rect stroke="#f00" fill="none" stroke-width="3" height="350.37357" width="392.96" y="60.977013" x="56.32" id="bbox"/>
 </g>
</svg>
