<svg width="640" height="480" xmlns="http://www.w3.org/2000/svg" xmlns:svg="http://www.w3.org/2000/svg" xmlns:xlink="http://www.w3.org/1999/xlink">
 <!-- Sketchy ANNOTATION
  ImageNet ID: n01594787_5190
  URL: http://farm1.static.flickr.com/196/550143091_73cf6457c6.jpg
  Image Width: 500
  Image Height: 400
  BBox X: 165
  BBox Y: 146
  BBox Width: 134
  BBox Height: 168
  Exposure: 2000ms
  Synset Label: songbird
  Synset ID: n01526521
  Worker Tag: songbird sitting on a wall
  Sanity Check: 
   Saved
  Comment: 
   {}
  Worker ID: A1P7U2ULSAE7YL
  Assignment ID: 34T446B1C0EP6DP44CWJKZENH9EC0W
  HIT ID: 3M67TQBQQHOHM8IPUSEJIVU7HXR9A4
  Work Time: 64s
  Worker Score: 0.7857
 END ANNOTATION -->
 <g display="inline">
  <title>Layer 1</title>
  <path t="0,196,221,260,269,277,309,333,357,365,389,413,429,453,461,477,509,517,533,533,557,558,573,581,605,621,621,637,684,693,740,749,765,789,805,805,813,829,861,884,885,893,909,917,925,941,973,981,1013,1037,1053,1061,1077,1101,1125,1125,1148,1157,1173,1205,1213,1244,1253,1260,1285,1300,1309,1333,1333,1341,1349,1365,1375,1397,1413,1429,1445,1453,1477,1477,1485,1493,1501,1517,1532,1557,1565,1581,1589,1597,1613,1622,1622,1629,1638,1638,1645,1661,1669,1685,1685,1700,1709,1717,1725,1733,1742,1758,1758,1775,1781,1791,1791,1797,1808,1821,1829,1838,1838,1845,1853,1861,1869,1869,1885,1885,1893,1893,1900,1901,1909,1917,1925,1925,1933,1933,1941,1949,1959,1959,1965,1973,1973,1981,1992,1992,2005,2013,2013,2029,2029,2038,2038,2045,2060,2077,2093,2093,2109,2109,2125,2141,2141,2158,2165,2180,2191,2208,2221,2253,2261,2285,2293,2316,2341,2349,2372,2404,2413,2421,2437,2469,2477,2493,2717,2725,2742,2764,2781,2790,2807,2807,2821,2837,2854,2871,2877,2893,2908,2917,2925,2941,2957,2965,2981,2997,2997,3012,3028,3039,3045,3053,3061,3070,3085,3085,3101,3109,3125,3141,3149,3165,3173,3181,3190,3212,3223,3229,3237,3245,3253,3261,3285,3293,3301,3301,3309,3309,3317,3332,3341,3349,3349,3357,3373,3390,3397,3413,3413,3428,3429,3445,3445,3453,3461,3470,3477,3486,3493,3501,3516,3525,3533,3556,3573,3581,3589,3612,3623,3629,3644,3655,3669,3677,3701,3708,3733,3748,3764,3796,3796,3805,3828,3845,3877,3885,3893,3902,3925,3925,3925,3933,3933,3948,3957,3973,3973,3981,3996,4012,4028,4045,4060,4072,4072,4085,4103,4109,4132,4148,4172,4180,4189,4189,4206,4244,4253,4276,4286,4293,4308,4324,4333,4388,4412,4452,4484,4508,4548" d="m365.51135,213.09091c-1.22131,-0.87866 -1.77408,-1.38063 -2.00015,-2.22133c-0.20905,-0.77739 -1.36026,-0.53923 -2.08383,-0.864c-0.76379,-0.3428 -1.58978,-0.58153 -2.39517,-0.9355c-0.7121,-0.31297 -1.22534,-0.97691 -2.12082,-0.97917c-0.90002,-0.00226 -1.80002,0 -2.6955,0c-0.92603,0 -1.8045,0 -2.70453,0c-0.75714,0 -1.65265,0 -2.51599,0c-0.96317,0 -1.89462,-0.1335 -2.784,0.0045c-0.93039,0.14438 -1.06885,1.03255 -1.784,1.71016c-0.63849,0.60497 -1.75516,-0.12387 -2.56332,0.3425c-0.6846,0.39507 -1.18417,1.08681 -1.75269,1.7935c-0.63489,0.78918 -1.39859,0.78198 -2.164,1.18533c-0.75732,0.39909 -1.17938,1.17256 -1.60266,1.964c-0.40045,0.74876 -0.96262,1.36018 -1.48065,2.05267c-0.49539,0.6622 -0.67804,1.24303 -1.23117,1.94749c-0.44141,0.56215 -0.41367,1.33868 -0.95483,1.99983c-0.45853,0.56021 -0.18192,1.59373 -0.87119,2.05267c-0.75342,0.50163 -1.1319,1.29439 -1.51682,2.04733c-0.39014,0.7632 -0.77335,1.49995 -0.77869,2.39999c-0.00534,0.89998 0,1.8 0,2.7955c0,0.87117 0.32236,1.85829 -0.22131,2.58316c-0.4823,0.64302 -0.77869,1.32133 -0.77869,2.22134c0,0.89999 0,1.7 0,2.59999c0,0.90001 -0.12653,1.68173 -0.64731,2.35268c-0.45313,0.58377 -0.34738,1.54735 -0.35269,2.44733c-0.00534,0.90004 -0.50049,1.71881 -0.83331,2.5c-0.32019,0.75154 0.24603,1.82343 -0.22385,2.64284c-0.39441,0.68782 -0.94211,1.24384 -0.94284,2.17183c-0.00076,0.9425 -0.42712,1.62469 -1.19864,2.10133c-0.73599,0.4547 -0.71924,1.28777 -0.80151,2.18401c-0.08368,0.91144 -0.65344,1.46042 -1.29532,2.19998c-0.57861,0.66669 -0.82358,1.47952 -1.27917,2.30002c-0.4342,0.78195 -0.6015,1.74872 -1.42535,2.23334c-0.65277,0.384 -1.50717,0.77567 -1.94281,1.52383c-0.42447,0.72894 -0.66507,1.3819 -1.02118,2.07883c-0.43915,0.85941 -0.30386,1.77948 -0.83734,2.36398c-0.65689,0.7197 -1.03506,1.54706 -1.41998,2.30002c-0.39014,0.76318 -0.93716,1.41492 -1.49466,1.98398c-0.65906,0.6727 -1.13129,1.32043 -1.56802,2.11603c-0.35574,0.64807 -0.77933,1.42517 -1.51733,1.88397c-0.70932,0.44098 -1.29599,1.23889 -1.69867,1.91602c-0.49673,0.8353 -1.03534,1.47531 -1.59998,2.32117c-0.42755,0.64044 -1.03006,1.37793 -1.70001,1.76151c-0.80594,0.46143 -1.16296,1.32803 -1.20016,2.23865c-0.03485,0.85336 -0.06894,1.80209 -0.70435,2.31702c-0.73233,0.59348 -1.2341,1.04138 -1.65265,2.00983c-0.28958,0.67004 -1.13672,1.18951 -1.74283,1.79449c-0.6127,0.61154 -1.16031,1.27124 -2,1.77884c-0.65918,0.3985 -1.30881,1.16983 -1.90002,1.7785c-0.60916,0.62717 -1.14197,1.29941 -1.47916,2c-0.45831,0.95227 -0.11682,1.93552 -0.60617,2.71466c-0.46481,0.74008 -1.2496,1.09244 -2.01483,1.50684c-0.71704,0.38831 -1.35812,1.02469 -2.19,1.42133c-0.85434,0.40735 -1.74634,0.47943 -2.40982,1.06168c-0.63297,0.55548 -0.84256,1.66125 -1.52151,2.17401c-0.70758,0.53439 -1.57117,0.35922 -1.77866,1.22131c-0.20218,0.84012 -0.74966,1.52304 -1.52066,1.87933c-0.78891,0.36456 -1.16678,0.60339 -1.48984,1.41019c-0.31598,0.78912 -0.87869,1.44135 -1.51016,2.08981c-0.56287,0.57803 -1.86157,0.12653 -2.39383,0.80618c-0.56564,0.72229 -0.69733,1.45166 -1.04935,2.15067c-0.38684,0.76816 0.39948,1.54599 1.36401,1.564c0.89984,0.01682 1.79999,0 2.69998,0c0.89999,0 1.7359,0.20081 2.60001,-0.05716c0.85876,-0.25638 1.48425,-0.80533 2.29999,-0.96368c0.93259,-0.18106 1.43546,-0.96115 2.30002,-0.97916c0.89981,-0.01874 1.93216,0.24426 2.616,-0.284c0.6275,-0.48471 1.38873,-0.62515 2.284,-0.71735c0.81259,-0.08368 1.3869,-0.81839 2.23599,-0.99866c0.94299,-0.2002 1.86401,0.00009 2.76401,0c0.89984,-0.00009 1.48331,-0.39786 2.15717,-0.94733c0.7034,-0.57355 1.41452,-0.88593 2.34283,-1.04819c0.88745,-0.15512 1.68762,-0.43161 2.35266,-1.05716c0.55658,-0.52353 1.44717,-0.93466 2.34735,-0.94733c0.89539,-0.0126 1.40683,-0.6705 2.12082,-0.97916c0.80722,-0.34897 1.80084,0.17404 2.67783,-0.02219c0.80707,-0.18057 1.32199,-0.98822 2.19067,-0.99866c0.89594,-0.01074 1.86005,0.1459 2.71085,-0.22134c0.7189,-0.3103 1.62277,-0.50195 2.33051,-0.86267c0.80899,-0.41235 1.45462,-0.63385 2.26932,-1.03033c0.75726,-0.36853 0.9754,-1.54895 1.79999,-1.84399c0.92279,-0.3302 1.86331,0.0585 2.70001,-0.043c0.91995,-0.1116 1.53946,-0.73016 2.284,-1.19867c0.67554,-0.42508 1.64691,-0.98175 2.21152,-1.5c0.7261,-0.66653 1.53424,-0.97095 2.18317,-1.52133c0.66122,-0.56082 1.17038,-1.13782 1.69598,-1.80399c0.50198,-0.63626 0.37845,-1.72641 1.12985,-1.97018c0.89444,-0.29019 1.46481,-0.72049 2.29547,-1.00449c0.83069,-0.284 1.44574,-0.82294 2.00452,-1.35266c0.54303,-0.5148 1.32401,-0.60791 1.99548,-1.14734c0.60699,-0.48761 0.59399,-1.34561 1.07202,-2.064c0.48767,-0.73291 1.70099,-0.65268 1.92798,-1.46133c0.23825,-0.84879 0.7905,-1.31888 1.22153,-2.07468c0.38156,-0.6691 1.1889,-1.2865 1.69449,-2.09866c0.45599,-0.73248 1.31793,-0.65424 2.18384,-0.80148c0.85107,-0.14471 0.66653,-1.22562 1.23349,-1.99985c0.3952,-0.53967 1.27759,-0.8071 1.905,-1.65268c0.47766,-0.64371 0.61932,-1.59918 0.763,-2.54733c0.13882,-0.91605 0.80841,-1.4541 0.98801,-2.39999c0.164,-0.86377 0.01065,-1.75717 0.01065,-2.69998c0,-0.90002 0,-1.80002 0,-2.70001c0,-0.79999 0,-1.70001 0,-2.60001c0,-0.89999 0,-1.79999 0,-2.6955c0,-0.92599 0,-1.8045 0,-2.7045c0,-0.79999 -0.21597,-1.54803 -0.83331,-2.16666c-0.61768,-0.61899 -1.13739,-1.18922 -1.16669,-2.13335c-0.02786,-0.89824 -0.35571,-1.67133 -1.19998,-1.7c-0.89932,-0.03055 -1.46933,-0.54842 -2.15717,-0.94284c-0.8194,-0.46988 -1.84283,-0.05716 -2.74283,-0.05716l-0.90002,0" id="svg_1" stroke-width="2" stroke="#000" fill="none"/>
  <path t="5757,5941,5964,6012,6084,6124,6132,6164,6260,6308,6332,6348,6412,6500,6572,6588,6644,6660,6684,6716,6741,6780,6804,6836,6845,6860,6916,7332,7340,7364,7388,7404,7516,7564,7588,7644,7676,7708,7724,7756" d="m364.51135,212.09091c0,1.8 0.20331,2.47394 0.83334,3.16667c0.54556,0.59985 0.953,1.21632 1.168,2.032c0.21024,0.79761 1.34882,0.72829 1.97333,1.22667c0.60797,0.48518 1.42535,0.57466 2.32535,0.57466c0.89865,0 1.34784,0.43037 1.98532,0.91467c0.73148,0.55573 1.99899,-0.24304 2.59317,0.30666c0.60947,0.56384 1.34814,0.52005 2.00018,1c0.69827,0.51398 0.87079,1.25238 1.12582,2.07417c0.23682,0.76308 0.99548,1.31511 0.99548,2.2045c0,0.88939 -0.58252,1.18762 -1.38931,1.51067c-0.78915,0.31598 -1.34192,0.80438 -2.21066,1.02533c-0.86227,0.21931 -1.5,0.8425 -2.40002,0.964l-0.91599,0l-0.78851,0l-0.89548,0" id="svg_2" stroke-width="2" stroke="#000" fill="none"/>
  <path t="8357,8492,8524,8596,8636,8700" d="m375.51135,225.09091c-1.69998,0 -2.64282,0 -3.52081,0l-0.87918,0l-0.89999,0" id="svg_3" stroke-width="2" stroke="#000" fill="none"/>
  <path t="9413,9628,9636,9684,9716,9747,9764,9780,9799,9820,9846,9916,10084,10124,10172,10212,10236,10236,10268,10300,10324,10332,10348,10365,10372,10396,10428,10444,10452,10468,10484,10492,10508,10532,10548,10548,10564,10596,10604,10620,10636,10647,10661,10678,10678,10692,10700,10716,10748,10756,10756,10772,10781,10788,10798,10820,10832,10836,10845,10868,10892,10909,10924,10933,10933,10940,10956,10965,10973,10988,10998,11020,11036,11037,11060,11069,11084,11108,11109,11116,11125,11133,11140,11156,11180,11196,11212,11221,11244,11252,11284,11293,11308,11317,11333,11340,11356,11372,11381,11420,11429,11429,11452,11464,11492,11532,11533,11564,11580,11589,11596,11628,11652,11668,11692,11709,11741,11749,11765,11788,11797,11820,11836,11860,11868,11892,11892,11916,11956,11965,11996,12012,12021,12052,12068,12068,12092,12108,12117,12172,12196,12220,12268,12476,12476,12524,12556,12572,12581,12597,12605,12628,12636,12652,12668,12679,12684,12694,12708,12709,12716,12725,12732,12742,12748,12756,12772,12780,12788,12796,12804,12812,12828,12836,12846,12852,12852,12868,12879,12884,12895,12908,12925,12925,12932,12932,12942,12964,12964,12980,12988,12997,13004,13012,13020,13028,13036,13052,13062,13068,13078,13084,13095,13111,13116,13125,13132,13142,13142,13148,13156,13172,13172,13181,13181,13204,13236,13356,13420,13431,13447,13464,13469,13508,13517,13540,13556,13565,13581,13588,13597,13604,13628,13820,13820,13836,13847,13908,13917,13927,13956,13980,14124,14140,14164,14173,14188,14212,14252,14292,14316,14325,14348,14357,14374,14390,14404,14548,14559,14564,14564,14573,14582,14596,14596,14597,14604,14614,14620,14620,14636,14636,14796,14844,14916,14956,14988,14988,14999,15006,15037,15068,15068,15092,15103,15113,15114,15130,15133,15144,15148,15165,15180,15197,15206,15220,15236,15252,15252,15262,15262,15268,15278,15284,15308,15356,15367,15372,15382,15389,15413,15422,15468,15478,15495,15516,15529,15529,15534,15549,15556,15557,15668,15700,15711,15812" d="m372.51135,230.09091c0,1.61067 -0.16275,2.43806 -0.64731,3.05267c-0.51202,0.64944 -0.34204,1.64738 -0.35269,2.54733c-0.01041,0.87935 -0.75162,1.34364 -0.99548,2.10449c-0.28702,0.89549 -0.67654,1.57771 -1.22583,2.17416c-0.58481,0.63501 -0.77869,1.34283 -0.77869,2.22134c0,0.89999 0,1.7 0,2.59999c0,0.90001 0,1.8 0,2.7c0,0.90001 0,1.8 0,2.69984c0,0.90016 0,1.70149 0,2.60016c0,0.90001 0,1.8 0,2.7c0,0.89999 0,1.80002 0,2.70001c0,0.89999 0,1.69998 0,2.61465c0,0.896 0,1.78534 0,2.68533c0,0.89999 0,1.80002 0,2.70001c0,0.89999 0.01797,1.70016 0,2.60001c-0.01801,0.90054 -0.69745,1.54852 -1,2.46664c-0.2608,0.79147 0,1.63333 0,2.53336c0,0.89999 -0.16275,1.73804 -0.64731,2.35266c-0.51202,0.64944 -0.34204,1.6474 -0.35269,2.54733c-0.01041,0.87933 -0.57477,1.48969 -1,2.23334c-0.36615,0.64032 -0.78995,1.41983 -1.22131,2.26666c-0.38904,0.76373 -0.43521,1.62366 -0.7995,2.39999c-0.35489,0.75632 -0.95981,1.30154 -0.97919,2.20001c-0.01865,0.86453 -0.78613,1.33865 -1.29547,2.00531c-0.50931,0.66663 -1.32425,1.08755 -1.68369,1.81552c-0.38947,0.78879 -0.2887,1.69464 -0.82217,2.27914c-0.65689,0.7197 -1.07529,1.55127 -1.62399,2.17468c-0.51443,0.58447 -1.2186,1.07999 -1.65866,1.82666c-0.41287,0.70053 -0.80673,1.53778 -1.34134,2.17334c-0.5462,0.64935 -1.31955,0.83273 -2.18533,1.06134c-0.84637,0.22348 -1.15109,1.26581 -1.67334,1.87997c-0.55591,0.65375 -1.25424,0.91772 -2.116,1.09467c-0.94055,0.19312 -1.13199,1.18805 -1.76666,1.82269c-0.63467,0.63464 -1.63751,0.64142 -2.3125,1.16666c-0.6535,0.50851 -0.86813,1.36719 -1.52084,2c-0.59119,0.57318 -1.49982,0.98956 -2.39999,1c-0.89993,0.01041 -1.90063,-0.18057 -2.51599,0.284c-0.6832,0.51578 -1.384,0.716 -2.284,0.716c-0.89984,0 -1.80002,0 -2.60135,0c-0.89865,0 -1.79865,0 -2.69867,0c-0.89999,0 -1.79999,0 -2.69998,0c-0.89999,0 -1.80002,0 -2.60001,0c-0.91467,0 -1.81067,0 -2.70001,0c-0.89999,0 -1.79999,0 -2.69998,0c-0.89999,0 -1.80002,0 -2.60001,0c-0.89999,0 -1.79999,0 -2.67917,0c-0.95682,0 -1.82083,0 -2.72083,0c-0.89999,0 -1.80002,0 -2.60001,0c-0.89999,0 -1.87857,-0.34308 -2.67917,0.02084c-0.77322,0.35147 -1.34818,0.86652 -2,1.47916c-0.68665,0.64539 -0.33798,1.8024 -0.80484,2.41599c-0.52347,0.68802 -0.9028,1.41504 -1.716,1.91736c-0.76358,0.47165 -1.21167,1.1384 -1.57465,1.76666c-0.48856,0.84564 -0.82895,1.59299 -1.50934,2.116c-0.6113,0.46991 -1.75186,0.16589 -2.39517,0.80484c-0.64221,0.63785 -0.90842,1.49411 -1.54617,2.05383c-0.58957,0.51743 -0.57196,1.36313 -1.06,2.13998c-0.4649,0.74002 -1.20609,1.15018 -2.11465,1.28668c-0.80786,0.12137 -1.44284,0.70316 -1.80002,1.49866c-0.35715,0.7955 -1.23233,1.18146 -1.91599,1.784c-0.59763,0.52673 -1.27362,1.01736 -1.84116,1.4205c-0.87369,0.62064 -1.68579,0.88068 -2.17084,1.68484c-0.45572,0.75555 -0.72098,1.44003 -1.12466,2.31067c-0.38556,0.83154 -0.82397,1.65125 -1.37268,2.27466c-0.51443,0.58447 -1.3056,0.87698 -1.96399,1.46133c-0.69321,0.61523 -0.9664,1.53534 -1.81067,1.564c-0.89932,0.03055 -1.65747,0.33127 -2.22534,0.97467c-0.52463,0.59442 -0.9126,1.33466 -1.57468,2.02533c-0.59763,0.62341 -1.29514,1.13214 -1.83331,2c-0.4162,0.67114 -1.29568,0.75674 -1.99869,1.28534c-0.69772,0.52463 -1.16699,1.24884 -2.00131,1.548c-0.8613,0.30884 -1.38193,1.10577 -2.26666,1.16666c-0.89789,0.0618 -1.8161,0.01456 -1.90002,-0.7045c-0.10379,-0.88947 0,-1.7955 0,-2.6955c0,-0.89999 -0.11987,-1.80682 0,-2.68402c0.11169,-0.81729 0.7392,-1.52365 1.436,-1.87997c0.84982,-0.43457 1.44321,-0.75848 2.21133,-1.03152c0.80377,-0.28571 1.228,-0.59106 0.55133,-0.28714c-0.85812,0.38544 -1.76266,0.27777 -2.63464,0.28265c-0.95337,0.00534 -1.22336,0.5687 -1.57468,1.42532c-0.28574,0.69669 -1.38934,0.57535 -2.28934,0.57468c-0.89865,-0.00067 -1.63644,-0.36212 -2.20001,-1c-0.5155,-0.5835 -1.35455,-0.95181 -1.5,-1.61066c-0.21326,-0.96609 -0.1152,-2.0936 0.61069,-2.37869c0.82828,-0.32532 1.64819,-0.43195 2.48917,-0.88931c0.7475,-0.40652 1.24701,-1.09268 0.85849,-1.12134c-0.9343,-0.06891 -1.75699,0 -2.65833,0c-0.84167,0 -1.84268,0 -2.55066,0c-0.98134,0 -1.93501,0 -2.84935,0c-0.89999,0 -1.65717,0 -2.55266,0c-0.86334,0 -2.21057,0.15405 -2.30067,-0.61066c-0.10188,-0.86462 1.20697,-1.17838 2.05334,-1.61069c0.6553,-0.33472 1.49855,-0.7804 1.95265,-1.48315c0.4855,-0.75134 1.19391,-1.40027 1.59468,-2c0.53004,-0.79321 1.21349,-1.2775 2.18599,-1.2955c0.75589,-0.01401 1.71863,0.28909 2.556,-0.01068c0.73672,-0.26373 1.24399,-0.80826 2.11066,-1.01016c0.961,-0.22388 1.89578,-0.51611 2.41467,-1.2645c0.46661,-0.67303 0.38516,-1.58841 1.25201,-1.88132c0.67041,-0.22653 1.81653,-0.36938 2.47165,-0.88602c0.58362,-0.46027 0.36539,-1.73575 1.16302,-1.94598c0.81567,-0.215 1.35297,-0.9176 2.19864,-1.00134c0.91156,-0.09027 1.8671,0.47379 2.64285,-0.05716c0.70508,-0.48257 0.36179,-1.73547 1.15851,-1.9415c0.87189,-0.22546 1.62177,-0.68625 2.50314,-0.94418c0.82928,-0.24268 1.93219,0.32193 2.52484,-0.3425c0.6188,-0.69376 0.64508,-1.48431 1.32001,-1.73999c0.89401,-0.33865 1.46133,-0.96402 2.41467,-1.01068l0.42532,-0.57465" id="svg_4" stroke-width="2" stroke="#000" fill="none"/>
  <path t="17004,17221,17285,17349,17405,17437,17485,17589,17629,17669,17725,17734,17757,17893,17965,18045,18045,18069,18292,18364,18564,18564,18596,18852,18868,18885,19092,19164,19260" d="m361.51135,217.09091c-1.69998,0 -2.62198,-0.17807 -3.5,0.02083c-0.96234,0.218 -1.89584,0.51607 -2.41464,1.26451c-0.46664,0.6732 -0.53857,1.98856 0.13617,2.59315c0.66049,0.59181 1.91638,-0.20029 2.61182,0.28818c0.71518,0.50232 1.26794,0.88112 2.16666,0.83333c0.80341,-0.04272 2.2388,-0.11465 2.34818,-1c0.03021,-0.24455 -0.59027,-0.95378 -0.99548,-1.7c-0.4133,-0.76112 -0.44757,-1.97517 -0.92734,-1.67867c-0.74057,0.45769 -0.42535,1.67867 -0.42401,2.57733l0.35583,0.74416" id="svg_5" stroke-width="2" stroke="#000" fill="none"/>
  <path t="21132,21308,21363,21412,21435,21515,21532,21620" d="m367.51135,219.09091c-0.99866,1.71466 -1.39359,2.71219 -0.96399,3.564c0.35242,0.69881 1.13068,1.26933 1.84268,1.65733l0.474,0.726" id="svg_6" stroke-width="2" stroke="#000" fill="none"/>
  <path t="23644,23741,23756,23780,23788,23796,23828,23836,23852,23860,23884,23916,23940,23956,23988,24012,24020,24060,24084,24116,24132,24140,24179,24212,24227,24316,24332,24364,24364,24404,24419,24435,24445,24492,24508,24516,24516,24539,24548,24548,24564,24580,24587,24604,24620,24652,24820,24828,24844,24868,24892,24892,24916,24939,24964,24996,25012,25052,25060,25067,25092,25116,25148,25172,25188,25227,25316,25388,25432,25435,25435,25439,25464,25492,25532,25556,25580,25764,25772,25788,25803,25803,25819,25828,25931,25971,26091,26211,26267,26348,26371,26395,26507,26523,26620,26620,26659,26692,26708,26740,26788,26875,26916,26924,26940,26995,27012,27035,27084" d="m357.51135,296.09091c0,1.79999 0.01065,2.70007 0,3.60001c-0.01041,0.87933 -0.77069,1.27985 -1,1.92084c-0.29257,0.81781 -0.77478,1.41577 -0.99548,2.18365c-0.24738,0.86066 -0.00452,1.7955 -0.00452,2.6955c0,0.89999 0,1.80002 0,2.70001c0,0.89999 0,1.73334 0,2.60449c0,0.89551 -0.28909,1.84747 0.01068,2.68484c0.26373,0.73672 1.14816,1.12875 1.70532,1.69464c0.66071,0.67102 1.384,0.91602 2.284,0.91602c0.80002,0 1.70007,-0.01068 2.60001,0c0.87936,0.01044 1.34335,0.67609 1.75269,1.35718c0.46887,0.78015 0.77057,1.6777 1.29465,2.28564c0.59061,0.68512 1.26764,1.34457 1.35135,2.15717c0.09222,0.89529 0.00131,1.80002 0.00131,2.70001c0,0.89999 0,1.79999 0,2.70001c0,0.89966 -0.21353,1.39319 -0.71597,0.71597c-0.50705,-0.68341 -0.19269,-1.76013 -0.36935,-2.43198c-0.26666,-1.01416 -0.72223,-1.70071 -0.91483,-2.58383c-0.18411,-0.8443 -0.80862,-1.56619 -1.52066,-1.87933c-0.79553,-0.34985 -1.4158,-0.79565 -2.18369,-1.01636c-0.86066,-0.24738 -1.7955,-0.00449 -2.6955,-0.00449c-0.89999,0 -1.79999,0 -2.69998,0c-0.90002,0 -1.81628,0.1543 -1.90002,1c-0.07883,0.79608 -0.21597,1.54803 -0.83331,2.16666c-0.61768,0.61896 -1.13809,1.18921 -1.16669,2.13333c-0.02725,0.8996 0.24765,2.27768 -0.35266,2.28568c-0.86401,0.01154 -0.64734,-1.58566 -0.64734,-2.38565c0,-0.90002 0,-1.80002 0,-2.70001c0,-0.89999 -0.2074,-1.81906 0.00018,-2.72134c0.18094,-0.7865 0.67227,-1.27545 1.0105,-2.168c0.27728,-0.73175 1.22812,-1.05988 1.70532,-1.69467c0.57626,-0.76654 0.30273,-1.71616 0.284,-2.616c-0.01801,-0.86453 -0.81808,-1.29428 -0.99866,-2.10132c-0.19943,-0.8913 -0.47845,-1.40216 -1.168,-2.03201c-0.59863,-0.54678 -0.83334,-1.26666 -0.83334,-2.16666l-0.16666,-0.83334l-0.74799,-0.452l-0.08536,-0.91467" id="svg_7" stroke-width="2" stroke="#000" fill="none"/>
  <path t="28380,28531,28540,28557,28563,28580,28620,28628,28660,28723,28739,28827,28835,28867,28875,28875,28907,28939,28955,29011,29043,29331,29347,29356,29363,29387,29395,29395,29411" d="m344.51135,306.09091c0.57468,1.60001 0.71481,2.44717 1.00452,3.2955c0.27835,0.81506 0.99014,1.27914 0.99548,2.22534c0.00494,0.87915 0,1.77914 0,2.67917c0,0.89999 0.32208,1.93808 -0.16666,2.63333c-0.50327,0.71591 -0.94968,1.38263 -1.53784,1.80948c-0.82867,0.60144 -1.29324,1.06168 -1.2955,2c-0.00211,0.87802 -0.95508,2.52228 0,2.73584c0.19559,0.04373 0.58954,-0.98618 1.40002,-1.35333c0.78058,-0.35361 1.43332,-1.02533 1.65265,-1.72534l0.44733,-0.79999" id="svg_8" stroke-width="2" stroke="#000" fill="none"/>
 </g>
 <g display="none">
  <title>muse_image</title>
  <image xlink:href="http://farm1.static.flickr.com/196/550143091_73cf6457c6.jpg" id="muse" height="480" width="600" y="0" x="20"/>
 </g>
 <g display="none">
  <title>bbox</title>
  <rect stroke="#f00" fill="none" stroke-width="3" height="201.6" width="160.8" y="175.2" x="218" id="bbox"/>
 </g>
</svg>
