<svg width="640" height="480" xmlns="http://www.w3.org/2000/svg" xmlns:svg="http://www.w3.org/2000/svg" xmlns:xlink="http://www.w3.org/1999/xlink">
 <!-- Sketchy ANNOTATION
  ImageNet ID: n01558993_16414
  URL: http://farm3.static.flickr.com/2377/2387217557_15dc865cc6.jpg
  Image Width: 500
  Image Height: 400
  BBox X: 56
  BBox Y: 120
  BBox Width: 240
  BBox Height: 208
  Exposure: 2000ms
  Synset Label: songbird
  Synset ID: n01526521
  Worker Tag: bird in grass
  Sanity Check: 
   Saved
  Comment: 
   {}
  Worker ID: A1VGZ2K3HF66TE
  Assignment ID: 3ZWFC4W1UU7K9JTDPR5ZC10DNC5RFK
  HIT ID: 3TC2K6WK9G2S304BCLFQCHGYL3I282
  Work Time: 770s
  Worker Score: 0.7143
 END ANNOTATION -->
 <g display="inline">
  <title>Layer 1</title>
  <path t="0,185,185,185,185,186,217,217,217,217,218,231,231,231,243,243,243,243,243,244,250,250,250,259,260,260,260,260,260,268,268,268,274,275,277,277,278,279,279,280,300,301,301,301,301,301,301,302,315,316,316,318,318,319,319,319,319,362,363,363,363,364,364,364,364,364,370,370,370,371,371,371,383,384,384,384,385,385,398,399,399,400,400,401,402,414,415,415,415,416,431,432,432,432,433,433,470,471,471,471,471,472,472,486,487,487,487,488,488,488,489,489,501,502,502,503,503,504,505,505,507,532,532,533,533,533,534,534,550,550,551,551,551,552,552,552,553,564,565,566,566,566,566,567,582,582,583,583,583,584,584,617,618,619,619,620,620,621,621,649,651,651,652,652,653,653,676,685,693,705,707,708,708,709,709,709,710,721,722,722,723,723,724,724,724,725" d="m243,220c4.83501,-9.45016 5.14789,-10.00381 5.41499,-10.51784c0.47414,-0.91246 0.89352,-1.76315 1.08501,-3.14883c0.07133,-0.51617 0.05472,-1.07874 0.03467,-2.30933c-0.01091,-0.66989 -0.03169,-1.37476 -0.0195,-2.11349c0.01274,-0.77205 0.13788,-2.41249 0.27017,-3.27451c0.13663,-0.89027 0.32211,-1.79468 0.51599,-2.71201c0.19543,-0.92468 0.40392,-1.84665 0.588,-2.76599c0.18115,-0.90472 0.45856,-2.65671 0.52551,-3.49333c0.06453,-0.80634 0.08083,-1.58864 0.0945,-2.34601c0.01328,-0.73531 0.01593,-1.45129 0.0585,-2.14799c0.04169,-0.68216 0.24393,-2.01021 0.4395,-2.649c0.19653,-0.64195 0.46152,-1.26599 0.76199,-1.875c0.30159,-0.61127 0.63599,-1.20738 1.35201,-2.36c0.70032,-1.12733 1.05838,-1.66539 1.39732,-2.20667c0.33839,-0.54039 1.02248,-1.64282 1.37868,-2.21333c0.36911,-0.59117 0.75308,-1.20938 1.60266,-2.53334c0.46201,-0.71997 0.95151,-1.47012 1.46701,-2.2395c0.5271,-0.78668 1.06934,-1.5768 1.629,-2.35649c0.55508,-0.7733 1.09512,-1.53856 2.23734,-2.90401c0.53238,-0.63643 1.07275,-1.21248 1.60498,-1.743c0.50821,-0.50659 1.01563,-0.97038 1.51501,-1.401c0.4808,-0.41458 0.957,-0.80116 1.88,-1.52266c0.44373,-0.34685 1.30734,-1.00787 1.73065,-1.32001c0.82126,-0.60558 1.6257,-1.17407 2.436,-1.67999c0.79544,-0.49664 1.62973,-0.94569 2.0625,-1.16667c0.90439,-0.46181 1.38818,-0.69572 3.0015,-1.42084c0.58612,-0.26343 1.19183,-0.52365 1.81201,-0.77249c0.62186,-0.24953 1.86057,-0.7014 2.47198,-0.86667c1.14297,-0.30894 2.19769,-0.43391 3.15466,-0.40666c0.45642,0.013 1.33804,0.15201 2.664,0.29999c0.91693,0.10233 1.39233,0.10451 2.35419,0.20834c0.98587,0.10643 1.50357,0.13654 2.97998,0.62349c0.51523,0.16994 1.55682,0.67763 2.10333,0.98067c0.58051,0.32188 1.18539,0.69049 1.82251,1.0995c1.41504,0.90843 2.18109,1.4379 2.99066,1.99066c0.8385,0.57251 1.6897,1.16298 2.54102,1.76401c0.84464,0.59631 1.66785,1.18408 2.45099,1.76401c1.43112,1.05978 2.0448,1.54465 2.59332,1.99733c0.50146,0.41385 0.95145,0.8096 1.3515,1.19699c0.37701,0.36507 0.72565,0.72844 1.0365,1.10701c0.94473,1.15062 1.22891,1.60196 1.82001,2.57066c0.32016,0.5247 0.63202,1.09789 0.9465,1.716c0.33533,0.65906 1.01501,2.14566 1.36383,2.97566c0.36615,0.87126 0.72592,1.77806 1.08301,2.703c0.35764,0.92639 0.70047,1.84467 1.02899,2.739c0.31409,0.85503 0.86942,2.39615 1.10217,3.05899c0.20834,0.59326 0.39233,1.12962 0.53549,1.62601c0.13263,0.45992 0.3613,1.33519 0.396,2.71201c0.01309,0.51909 -0.07346,1.65776 -0.12799,2.26666c-0.0564,0.62946 -0.13193,1.27255 -0.25601,2.58667c-0.12393,1.31259 -0.16245,1.95946 -0.20132,2.60266c-0.07892,1.30524 -0.11755,1.98196 -0.17865,2.68266c-0.06396,0.73369 -0.13098,1.50938 -0.40268,3.19467c-0.14996,0.93028 -0.3483,1.90434 -0.5715,2.9115c-0.22864,1.0316 -0.48309,2.06976 -0.7605,3.10049c-0.27371,1.01697 -0.53848,2.00998 -1.168,3.82133c-0.28589,0.82259 -0.59442,1.58353 -0.927,2.2935c-0.32391,0.69145 -0.68683,1.35907 -1.08899,2.0145c-0.41559,0.67731 -0.88031,1.37286 -1.98401,2.85867c-0.62042,0.83524 -1.30853,1.71317 -2.04749,2.634c-0.77417,0.96471 -1.59836,1.94933 -2.45251,2.95799l-0.88416,1.02068l-0.90918,1.02466" id="svg_1" stroke-width="2" stroke="#000" fill="none"/>
  <path t="1142,1347,1348,1348,1348,1348,1348,1348,1348,1348,1364,1364,1364,1365,1365,1365,1365,1365,1365,1393,1394,1394,1394,1394,1394,1394,1395,1395,1401,1401,1434,1450,1451,1451,1451,1464,1533,1534,1549,1550,1550,1550,1550,1550,1551,1551,1551,1584,1585,1585,1585,1585,1585,1586,1586,1586,1599,1599,1599,1599,1600,1600,1600,1600,1600,1614,1615,1616,1616,1617,1618,1618,1619,1620,1636,1636,1637,1637,1639,1640,1641,1641" d="m316,171c12.66666,0 13.62866,0 14.52267,0c0.83798,0 1.63199,0 2.39398,0c0.742,0 1.47601,0 2.21402,0c1.53598,0 2.35486,-0.00237 3.20667,0.004c0.87787,0.00656 1.77493,0.02065 2.6835,0.0585c0.91415,0.0381 1.82779,0.08864 2.72849,0.1935c1.75574,0.20442 2.58817,0.39609 3.388,0.59467c0.77158,0.19154 1.50244,0.41115 2.19601,0.62851c0.65573,0.20551 1.26218,0.42305 1.836,0.5835c1.41132,0.39464 2.3801,-0.03062 3.33066,0.104c0.87286,0.12361 1.31149,0.89417 2,1.3125c0.67963,0.41295 1.87964,0.69162 1.45499,0.53883c-0.53372,-0.19203 -1.62152,0.64894 -2.16949,0.86766c-0.6347,0.25333 -1.3432,0.53519 -2.11349,0.83701c-0.81735,0.32025 -1.66977,0.65034 -2.5455,0.981c-0.88293,0.33337 -2.62497,0.96745 -3.46201,1.25316c-0.80704,0.27547 -1.59149,0.52924 -2.35648,0.7605c-0.74408,0.22495 -1.4747,0.43037 -2.19452,0.6165c-0.70825,0.18312 -2.11276,0.50305 -2.81384,0.645c-0.70163,0.14206 -1.40869,0.27277 -2.12097,0.40649c-0.72037,0.13525 -1.45148,0.27214 -2.19302,0.4245c-0.75714,0.15556 -2.32043,0.51807 -3.12833,0.73283c-0.82681,0.21979 -1.66302,0.46138 -2.508,0.70801c-0.84973,0.24802 -1.69791,0.50131 -2.54401,0.74399c-0.83661,0.23996 -2.47052,0.67821 -3.26166,0.86234c-0.7663,0.17834 -1.51135,0.32867 -2.229,0.47101l-0.68967,0.13033l-0.65967,0.12035l-1.22134,0.21866" id="svg_2" stroke-width="2" stroke="#000" fill="none"/>
  <path t="2041,2264,2264,2264,2264,2264,2264,2281,2298,2298,2298,2331,2332,2371,2372,2372,2372,2372,2376,2377,2377,2377,2377,2377,2377,2421,2421,2421,2421,2422,2422,2426,2426,2426,2426,2426,2426,2426,2427,2427,2448,2448,2448,2449,2449,2449,2449,2449,2450,2472,2473,2473,2473,2473,2473,2473,2473,2474,2481,2482,2482,2482,2482,2482,2484,2484,2501,2502,2502,2502,2502,2503,2503,2503,2503,2531,2532,2532,2532,2533,2533,2533,2533,2537,2538,2538,2538,2539,2539,2539,2565,2566,2566,2566,2567,2567,2567,2568,2568,2584,2585,2585,2586,2586,2586,2586,2587,2587,2597,2598,2598,2599,2599,2599,2599,2600,2600,2614,2615,2615,2615,2615,2616,2616,2616,2616,2652,2653,2653,2653,2653,2654,2654,2654,2654,2664,2665,2666,2667,2667,2668,2668,2669,2669,2683,2684,2684,2685,2685,2686,2686,2687,2687,2700,2701,2702,2702,2702,2703,2703,2703,2704,2732,2733,2733,2733,2734,2734,2735,2735,2736,2747,2750,2751,2752,2752,2753,2753,2754,2754,2764,2765,2765,2766,2766,2766,2767,2767,2768,2781,2782,2783,2784,2784,2785,2785,2786,2787,2815,2816,2817,2818,2819,2819,2820,2821,2821,2836,2837,2838,2839,2839,2840,2840,2841,2841,2847,2851,2851,2852,2852,2853,2854,2855,2856,2866,2867,2867,2868,2869,2869,2869,2870,2870,2899,2901,2901,2931,2938,2940,2941,2941,2942,2942,2950,2951,2952,2952,2953,2954,2955,2956,2960,2982,2983,2983,2984,2985,2985,2986,2986,2987,2998,3000,3000,3001,3002,3003,3003,3004,3005,3017,3018,3019,3020,3020,3021,3021,3023,3023,3031,3032,3033,3034,3035,3035,3036,3037,3038,3067,3068,3070,3071,3072,3072,3073,3074,3074,3082,3083,3084,3086,3087,3088,3089,3090,3093,3104,3105,3107,3107,3108,3109,3109,3110,3111,3132,3133,3133,3134,3135,3136,3136,3137,3138,3149,3151,3151,3152,3153,3153,3154,3154,3155,3261,3262,3263,3264,3266,3266,3267,3268,3269,3284,3286,3286,3287,3288,3289,3290,3290,3291" d="m307,224c-9.23416,2.42084 -9.93564,2.67415 -10.5925,2.93916c-0.61639,0.2487 -1.1842,0.48573 -2.13666,0.93668c-1.10703,0.52411 -1.86246,0.7717 -2.45883,1.01083c-1.00449,0.40277 -1.83936,0.75099 -2.42801,1.33299c-0.64371,0.63643 -1.22137,1.20535 -1.92566,1.90533c-0.38522,0.38287 -0.85144,0.74203 -1.79169,2.20833c-0.314,0.48967 -0.75473,1.56926 -0.944,2.11734c-0.18878,0.54671 -0.50363,1.64906 -0.68799,2.18134c-0.534,1.54178 -0.78943,2.01445 -1.328,2.94933c-0.28046,0.4868 -0.60376,0.97496 -1.28,2.04266c-0.76425,1.20667 -1.17172,1.88168 -1.59601,2.59868c-0.44281,0.74829 -0.8923,1.52516 -1.3515,2.319c-0.46478,0.80348 -0.92828,1.61092 -1.39648,2.409c-0.91074,1.55243 -1.35864,2.28641 -1.79733,2.99333c-0.42572,0.68602 -0.84766,1.34909 -1.2645,1.9935c-0.40854,0.63156 -0.81549,1.24957 -1.21951,1.85849c-0.79962,1.20514 -1.20038,1.80432 -1.60132,2.40134c-0.39908,0.5943 -0.79767,1.18298 -1.20001,1.76102c-0.39767,0.57129 -0.79388,1.13187 -1.20001,1.67099c-0.78821,1.0463 -1.60205,2.00946 -2.02249,2.47433c-0.42618,0.47122 -0.87823,0.94141 -1.35748,1.41901c-0.50229,0.50058 -1.04184,1.02118 -2.25336,2.14398c-0.6705,0.6214 -1.38474,1.26865 -2.12549,1.93951c-0.75656,0.68518 -1.52045,1.37286 -2.2785,2.05649c-0.74228,0.66937 -1.46057,1.31247 -2.76266,2.504c-0.57294,0.52429 -1.09076,1.00803 -1.5705,1.44751c-0.44437,0.40707 -0.86324,0.7861 -1.2735,1.13251c-0.39691,0.33514 -1.65067,1.26175 -2.1205,1.55331c-0.99602,0.61807 -1.54185,0.90311 -2.09801,1.20001c-0.56783,0.30313 -1.741,0.901 -2.9375,1.5c-0.60126,0.30099 -1.21118,0.60568 -1.8405,0.91351c-0.65465,0.32022 -1.34569,0.65179 -2.0835,0.99448c-0.78911,0.36652 -1.63974,0.75781 -3.576,1.59201c-1.08946,0.46936 -2.25388,0.95261 -3.4695,1.45349c-1.24701,0.51382 -2.50926,1.02667 -3.76649,1.53452c-1.23244,0.49783 -2.42262,0.97479 -4.59734,1.84534c-0.95232,0.38123 -1.81952,0.72723 -2.61301,1.05148c-0.73712,0.30124 -1.43033,0.59048 -2.091,0.88049c-0.64799,0.28442 -1.29626,0.57391 -2.62933,1.23468c-0.72226,0.358 -1.47371,0.75259 -2.25749,1.16251c-0.80957,0.4234 -1.63728,0.86035 -2.4825,1.29749c-0.85312,0.44122 -1.70532,0.89001 -3.42667,1.70667c-0.8425,0.39972 -1.69081,0.7717 -2.541,1.15051c-0.86447,0.38519 -1.75368,0.78061 -2.66701,1.2135c-0.95752,0.45383 -1.97165,0.93307 -4.12534,2.13599c-1.19214,0.66586 -2.42342,1.41714 -3.69749,2.20651c-1.30603,0.80917 -2.61612,1.64594 -3.9225,2.4855c-1.2886,0.82813 -2.53473,1.64688 -4.88,3.14133c-1.05913,0.6749 -2.05049,1.29178 -2.9805,1.86151c-0.87407,0.53546 -1.70644,1.03528 -2.50349,1.5105c-0.76996,0.45908 -1.52608,0.90186 -3.01601,1.79465c-0.75587,0.45291 -1.5186,0.91745 -2.2905,1.38602c-0.77876,0.47275 -1.56268,0.94894 -2.3535,1.422c-0.79286,0.47427 -1.58464,0.9519 -3.18933,1.85867c-0.79738,0.45059 -1.60117,0.88547 -2.409,1.314c-0.81085,0.43015 -1.63185,0.85428 -2.463,1.27798c-0.84151,0.42899 -1.69844,0.85913 -3.46133,1.74133c-0.90904,0.45493 -1.83363,0.91678 -2.7675,1.38602c-0.93947,0.47208 -1.87897,0.94611 -2.8125,1.422c-0.92479,0.47144 -1.83676,0.93481 -3.58667,1.85867c-0.83698,0.44186 -1.64334,0.87878 -2.424,1.30499c-0.75798,0.41382 -1.49266,0.82001 -2.20801,1.215c-0.69731,0.38501 -1.37599,0.76495 -2.70132,1.48001c-0.64355,0.34723 -1.27736,0.68118 -1.90051,1.00049c-0.60756,0.31131 -1.202,0.60715 -1.78349,0.88351c-0.56224,0.26721 -1.10422,0.52625 -2.14934,0.94931c-0.48793,0.19751 -0.96439,0.36844 -1.4325,0.5145c-0.45871,0.14313 -0.92,0.26398 -1.3875,0.36151c-0.47427,0.09894 -0.96469,0.18793 -2.01334,0.29068c-0.56277,0.05515 -1.14919,0.08493 -1.74899,0.1095c-0.60553,0.02478 -1.2093,0.03821 -1.80301,0.04648c-0.57565,0.00803 -1.12534,0.01001 -2.11467,0.01068c-0.42532,0.00027 -0.80266,0 -1.13399,0c-0.28734,0 -0.53267,0 -0.73801,0c-0.16733,0 -0.29866,0 -0.46133,0c-0.03566,0 -0.04533,0 -0.033,0c0.03033,0 0.07468,0 0.129,0c0.06033,0 0.12268,0 0.23734,0c0.04517,0 0.09781,0.0495 0.16701,-0.00101c0.85063,-0.62073 0.56905,-1.71292 0.72749,-2.142c0.36427,-0.98654 0.58507,-1.52863 0.85268,-2.08398c0.867,-1.79926 1.2748,-2.37939 1.67816,-2.97302c0.41219,-0.60663 0.86317,-1.20599 1.3455,-1.79999c0.49226,-0.60623 1.01509,-1.20795 1.5705,-1.79999c1.14127,-1.21655 1.76633,-1.80383 2.40134,-2.40802c0.65359,-0.62189 1.33917,-1.25543 2.049,-1.91699c0.74084,-0.69046 1.51788,-1.41257 2.319,-2.18701c1.73404,-1.6763 2.64423,-2.61432 3.59734,-3.59598c0.98964,-1.01929 2.00125,-2.07739 3.04199,-3.15451c1.05791,-1.09491 2.12651,-2.20114 3.222,-3.28949c2.17856,-2.16434 3.28799,-3.18979 4.39067,-4.18802c1.08446,-0.98172 2.16768,-1.92505 3.2415,-2.83499c1.05029,-0.88998 2.0873,-1.74457 3.10651,-2.565c1.94893,-1.56882 2.89067,-2.29672 3.79999,-3.00534c0.88371,-0.68869 1.7484,-1.35681 2.59351,-2.013c0.8309,-0.64514 1.65166,-1.28195 2.4585,-1.923c1.60933,-1.27863 2.40741,-1.93826 3.21201,-2.612c0.82147,-0.68787 1.65814,-1.40417 2.517,-2.1525c0.89323,-0.77826 1.8204,-1.59897 2.787,-2.4675c2.09323,-1.88086 3.21815,-2.91281 4.392,-3.99466c1.21423,-1.11908 2.45174,-2.27206 3.696,-3.4545c1.25177,-1.18958 2.49355,-2.38342 3.696,-3.58951c2.32259,-2.32962 3.38159,-3.47668 4.38933,-4.58798c0.96938,-1.06897 1.88159,-2.11636 2.748,-3.13501c0.83479,-0.98151 1.62625,-1.93924 2.388,-2.86499c1.44707,-1.75858 2.13475,-2.5975 2.81334,-3.40933c0.66745,-0.79849 1.33437,-1.58676 2.007,-2.37152c0.67935,-0.79257 1.37589,-1.59616 2.097,-2.4165c1.52357,-1.73323 2.34575,-2.64818 3.19466,-3.59599c0.86774,-0.96886 1.74696,-1.9464 2.625,-2.92499c0.86862,-0.96808 1.71881,-1.91478 2.535,-2.83501c1.51062,-1.70317 2.18037,-2.47583 2.79601,-3.19733c0.57452,-0.67332 1.108,-1.31248 1.60649,-1.92601c0.47874,-0.58923 0.93752,-1.1682 1.3815,-1.746c0.89577,-1.16574 1.34636,-1.78223 1.82268,-2.42532c0.50703,-0.68456 1.05333,-1.42267 1.64999,-2.2245l0.65666,-0.87683l0.72667,-0.96283l0.80667,-1.05984" id="svg_3" stroke-width="2" stroke="#000" fill="none"/>
  <path t="3661,3882,3882,3883,3883,3883,3883,3898,3898,3898,3898,3921,3922,3922,3922,3952,3953,3953,3953,3953,3953,3953,3967,3967,3967,3968,3968,3968,3968,3968,3992,3993,3993,3993,3993,4001,4001,4001,4001,4001,4038,4039,4039,4039,4039,4053,4053,4053,4053,4053,4054,4067,4067,4067,4068,4108,4109,4109,4109,4127,4130,4130,4130,4130,4136,4136,4137,4137,4137,4137,4137,4138,4167,4167,4168,4168,4168,4168,4172,4173,4173,4173,4174,4201,4202,4202,4202,4203,4203,4214,4215,4215,4216,4216,4216,4216,4217,4232,4232,4232,4233,4233,4233,4233,4268,4268,4268,4269,4269,4271,4271,4293,4299,4300,4300,4300,4300,4301,4307,4308,4308,4308,4308,4309,4309,4309,4309,4315,4316,4317,4317,4317,4319,4319,4320,4348,4349,4349,4350,4351,4351,4352,4353,4376,4377,4377,4378,4379,4379,4379,4385,4386,4386,4387,4387,4388,4388,4388,4389,4397,4398,4399,4399,4399,4400,4400,4400,4401,4424,4426,4440,4443,4454" d="m301,225c-3.51401,8.35634 -3.67062,9.02202 -3.77133,9.66766c-0.0961,0.616 -0.19485,1.76666 -0.21066,2.29466c-0.04102,1.37051 -0.01801,2.41801 -0.01801,2.996c0,0.80701 0,2.015 0,2.735c0,0.8 -0.00061,1.68001 0,2.64c0.00067,1.04001 -0.00174,1.59012 0.02084,2.75c0.01187,0.61008 0.02899,1.24036 0.06448,1.89c0.11307,2.0704 0.1965,2.79251 0.27634,3.52301c0.08017,0.73355 0.17386,1.46292 0.285,2.181c0.10898,0.70395 0.18835,1.39688 0.67435,3.23666c0.14502,0.54895 0.48666,1.54077 0.63733,2.00266c0.28156,0.86313 0.57767,2.082 0.58966,2.88333c0.01196,0.80029 -0.12128,1.60004 -0.09601,2.40002c0.03809,1.20514 0.30737,2.01443 0.56885,2.86249c0.13751,0.44601 0.45404,1.38507 0.64581,2.4375c0.2081,1.14197 0.22736,1.74847 0.26135,2.35468c0.06711,1.1965 0.06747,1.77295 0.07199,3.31198c0.00238,0.80936 0.00012,1.47467 0,2.32516c-0.00018,1.15118 0.009,1.82355 -0.04166,2.54984c-0.05362,0.76889 -0.26355,1.96725 -0.53033,2.76233c-0.28134,0.83841 -0.68384,1.70468 -0.89417,2.16751c-0.69559,1.53073 -0.95538,2.0925 -1.21918,2.68051c-0.27185,0.60599 -0.8327,1.8493 -1.12534,2.47198c-0.29105,0.61932 -0.56641,1.23694 -1.18933,2.37601c-0.57776,1.05649 -0.88861,1.53613 -1.5,2.4375c-0.29456,0.43427 -0.89914,1.25916 -1.5,2.0625c-0.59781,0.79932 -1.19,1.58884 -1.47916,1.97916c-0.565,0.7627 -1.35471,1.85382 -1.84085,2.54083c-0.24106,0.34067 -0.73712,1.04651 -1.30417,1.80417c-0.31287,0.41806 -1.45917,1.8631 -1.91449,2.41183c-0.47855,0.57672 -0.98117,1.16782 -1.50299,1.76401c-0.52618,0.60117 -1.05582,1.19513 -1.59302,1.76401c-1.02032,1.08047 -1.51443,1.5589 -1.99731,1.99466c-0.90234,0.8143 -1.35504,1.17599 -2.27335,1.82333c-0.45642,0.32175 -1.42157,0.92929 -2.46399,1.51666c-0.53723,0.3027 -1.08768,0.59924 -2.216,1.16534c-0.56436,0.28314 -1.12738,0.56079 -2.24802,1.06934c-1.08228,0.49115 -1.62488,0.71606 -2.17331,0.93066c-1.12149,0.43881 -1.71503,0.63919 -2.33334,0.83466c-1.32156,0.41782 -2.04434,0.60614 -2.79868,0.79868c-0.77966,0.19897 -1.58273,0.38712 -2.40298,0.561c-0.82779,0.17551 -1.66016,0.33847 -2.49301,0.47098c-1.62866,0.25916 -2.42169,0.33502 -3.19467,0.40002c-0.75574,0.06354 -1.4984,0.1055 -2.22899,0.129c-1.43231,0.04605 -2.13901,0.04083 -3.54167,0.04166c-0.69966,0.00043 -1.39742,0.00061 -2.091,-0.01349c-0.68777,-0.01398 -2.03819,-0.08325 -2.69466,-0.15802c-0.64503,-0.07346 -1.89284,-0.29169 -3.05167,-0.68448c-0.58186,-0.19724 -1.15578,-0.44949 -1.746,-0.70651c-1.25302,-0.54562 -1.9164,-0.86612 -3.41667,-1.4375c-0.82295,-0.31342 -1.70245,-0.60345 -2.616,-0.89551c-0.93445,-0.29874 -1.88367,-0.58478 -2.832,-0.8685c-0.93567,-0.27994 -1.85133,-0.53983 -3.552,-1.06934c-0.7722,-0.24042 -1.48749,-0.47659 -2.14799,-0.71399c-0.61673,-0.22168 -1.18867,-0.44495 -1.716,-0.67801c-0.49794,-0.22009 -0.97652,-0.42651 -1.80267,-0.94131c-0.77649,-0.48386 -1.41866,-1.02667 -1.968,-1.5l-0.83199,-0.80002" id="svg_4" stroke-width="2" stroke="#000" fill="none"/>
  <path t="4792,4982,4982,4982,4982,4982,4982,4982,5023,5023,5023,5024,5024,5024,5034,5034,5034,5035,5035,5035,5035,5049,5049,5049,5049,5049,5050,5068,5071,5071,5200,5224,5224,5224,5225,5225,5225,5225,5225,5250,5251,5251,5251,5251,5251,5251,5251,5252,5290,5291,5291,5291,5291,5291,5291,5292,5292,5315,5315,5315,5315,5316,5316,5316,5316,5316,5322,5322,5322,5322,5323,5323,5323,5323,5323,5333,5333,5352,5352,5353,5368,5369,5396,5397,5397,5397,5397,5398,5434,5435,5435,5435,5436,5436,5436,5436,5443,5444,5459,5459,5460,5460,5460,5460,5465,5471,5472,5472,5473,5473,5473,5474,5474,5475,5500,5501,5501,5501,5501,5543,5586,5586,5587,5587,5587,5587,5588,5589,5598,5599,5600,5600,5601,5602,5602,5602,5612,5613,5613,5614,5614,5615,5615,5615,5616,5633,5634,5635,5635,5636,5637,5651,5682,5683,5701,5701,5702,5703,5703,5703,5704,5705,5706,5732,5733,5733,5734,5734,5735,5735,5735,5736,5749,5750,5750,5751,5751,5752,5752,5753,5753,5768,5770,5770,5771,5772,5772,5772,5773,5774,5781,5782,5782,5783,5783,5784,5784,5818,5819,5831,5832,5833,5833,5834,5834,5835,5852,5854,5854,5855,5855,5855,5856,5878,5879,5880,5880,5881,5881,5882,5882,5898,5899,5900,5900,5901" d="m246,319c0,10.83334 0.00079,12.40271 -0.009,13.09982c-0.00911,0.64822 -0.00908,1.25613 -0.10533,2.36868c-0.04526,0.52322 -0.32178,2.03351 -0.45366,2.53415c-0.2693,1.02228 -0.446,1.53525 -0.72667,2.61166c-0.14458,0.5545 -0.46919,2.32761 -0.53734,2.95367c-0.06931,0.63663 -0.11626,1.28278 -0.168,1.93201c-0.10318,1.29486 -0.12624,1.93832 -0.33333,3.16666c-0.19659,1.16602 -0.35683,1.7117 -0.6875,2.72919c-0.15532,0.47791 -0.48393,1.35086 -0.9575,2.43933c-0.36536,0.83975 -1.11572,1.67801 -0.76967,2.30884c0.50667,0.92361 1.74484,0.99667 2.25267,1.27115c0.55602,0.30054 1.15854,0.61288 1.806,0.91949c0.67447,0.3194 1.3692,0.65601 2.856,1.16534c0.74928,0.25668 1.52669,0.45697 2.32649,0.633c0.82561,0.1817 1.6933,0.33197 2.6055,0.47101c0.96213,0.14664 1.98506,0.27945 4.23468,0.56265c1.23666,0.15567 2.53455,0.31689 3.87448,0.48151c1.36273,0.16742 2.72943,0.33304 4.08151,0.49051c1.3176,0.15347 2.5813,0.30591 4.87732,0.52798c0.99628,0.09637 1.89438,0.16745 2.7045,0.21902c0.73257,0.04663 1.3996,0.07617 2.01151,0.09299c0.56775,0.01559 1.10266,0.01999 2.11734,0.02133c0.49884,0.00064 0.99066,0 1.46851,0c0.45682,0 0.88565,0 1.27948,0c0.35184,0 0.65469,0 1.08536,0c0.23999,0 1.03867,0 1.76932,0c0.79468,0 2.07199,0.02148 1.78983,0.11432c-0.87292,0.2872 -1.65079,0.45901 -2.5325,0.73636c-0.48407,0.15225 -1.5419,0.45767 -2.12,0.58133c-1.23407,0.26398 -1.90283,0.34921 -3.3205,0.45367c-0.74802,0.05511 -1.52356,0.07684 -2.32349,0.09299c-0.82379,0.01663 -1.67068,0.01999 -3.42935,0.02133c-0.90933,0.00067 -1.83466,0 -2.772,0c-0.94531,0 -1.89465,0 -2.84399,0c-0.94531,0 -1.88266,0 -3.71732,0c-0.88934,0 -1.75467,0 -2.59201,0c-0.80533,0 -1.57468,0 -2.30399,0c-0.68535,0 -1.32268,0 -2.43735,0c-0.47067,0 -0.88533,0 -1.56267,0c-0.696,0 -1.27052,0.04111 -0.104,0.33334c0.43822,0.10977 1.51172,0.38562 2.12267,0.56c0.64952,0.18539 1.3242,0.39157 2.00851,0.63c0.69318,0.24152 2.67679,1.1105 3.28616,1.44733c0.60541,0.33463 1.1955,0.69998 1.79099,1.07098c0.60721,0.3783 1.22488,0.7771 1.88101,1.16101c1.39859,0.81833 2.18008,1.20459 2.996,1.59332c0.8364,0.3985 1.69498,0.77753 2.56049,1.14151c0.8559,0.35995 1.69794,0.69733 2.5155,1.0065c1.50101,0.56763 2.17441,0.79413 2.78534,0.99866c0.54916,0.18387 1.10947,0.16656 2.14999,0.68668c0.5361,0.26797 -0.47949,0.37067 -1.05884,0.37067c-1.2045,0 -1.80722,0.00336 -2.50583,-0.00665c-0.78076,-0.01117 -1.63,-0.03586 -2.53198,-0.0975c-0.94354,-0.06451 -1.91635,-0.15045 -2.892,-0.32251c-1.95334,-0.34451 -2.88525,-0.66058 -3.79333,-1.00134c-0.91141,-0.34201 -1.80838,-0.75366 -2.71051,-1.19699c-0.92609,-0.45511 -1.86502,-0.9585 -2.84549,-1.46701c-2.0878,-1.08279 -3.21606,-1.63507 -4.38934,-2.18533c-1.19304,-0.55954 -2.3987,-1.10074 -3.5985,-1.6185c-1.16962,-0.50473 -2.29778,-0.97726 -3.3735,-1.39349c-1.88956,-0.73111 -2.6908,-0.99222 -3.39067,-1.19867c-0.60403,-0.17816 -1.13144,-0.30609 -1.59,-0.38699c-0.39523,-0.06973 -0.74297,-0.10519 -1.05,-0.117c-0.53299,-0.02051 -0.778,-0.008 -1.01067,-0.008c-0.21866,0 -0.42133,0 -0.606,0c-0.16466,0 -0.37294,0.03104 0.31801,0.17065c1.25269,0.25314 1.79269,0.39713 2.38533,0.54367c1.29825,0.32101 1.98076,0.50421 2.67334,0.69467c0.69411,0.19086 2.04198,0.58478 2.67583,0.79117c1.20557,0.39255 1.77913,0.60617 2.34334,0.82068c1.12497,0.4277 1.68863,0.66177 2.85416,1.14581c0.60977,0.25323 1.23439,0.51489 2.50667,1.05869c0.63971,0.27344 1.27383,0.54822 1.89749,0.82199c0.60965,0.26761 2.29767,1.03116 2.80383,1.26733l0.92935,0.44934l0.82532,0.42532l0.37619,0.20618" id="svg_5" stroke-width="2" stroke="#000" fill="none"/>
  <path t="6090,6264,6264,6264,6264,6264,6264,6281,6281,6316,6331,6369,6370,6370,6370,6370,6374,6375,6375,6375,6375,6376,6400,6401,6401,6401,6401,6402,6402,6402,6418,6419,6420,6420,6420,6420,6420,6420,6421,6431,6432,6432,6432,6433,6433,6433,6433,6433,6483,6484,6484,6484,6484,6484,6485,6485,6489,6490,6490,6498,6519,6550,6550,6551,6551,6551,6551,6566,6567,6567,6567,6567,6567,6567,6568,6568,6603,6603,6603,6603,6604,6604,6610,6610,6610,6610,6611,6649,6650,6651,6651,6682,6682,6716,6716,6716,6717,6717,6717,6717,6731,6732,6732,6732,6733,6734,6734,6747,6767,6820,6831,6831,6832,6832,6832,6833,6833,6833,6864,6865,6865,6866,6866,6866,6867,6868,6868,6881,6882,6883,6883,6884,6884,6884,6885,6885,6918,6919,6919,6919,6920,6920,6920,6926" d="m262,328c0,11.42783 0,12.116 0,12.73816c0,1.07434 0,1.5405 0,2.36584c0,1.40533 -0.76474,2.68704 0,3.22934c0.24707,0.1752 1.1041,0.55627 1.42667,0.80133c0.74554,0.56638 1.61188,1.15558 2.09583,1.39749c1.43832,0.71893 1.97278,0.81152 2.98651,0.88651c0.51108,0.03781 1.5632,-0.03354 2.10532,-0.08401c1.71979,-0.16016 2.3291,-0.21768 2.96167,-0.24933c0.65613,-0.03284 1.33859,-0.05615 2.78934,-0.07465c0.77231,-0.00983 1.57867,-0.01001 3.30133,-0.01068c0.91885,-0.00037 1.87067,0 2.84851,0c0.99683,0 2.00568,0 3.0195,0c1.01184,0 2.01468,0 3.96533,0c0.93484,0 1.83865,0 2.71051,0c0.83884,0 1.64365,0 2.41348,0c0.73383,0 1.43066,0 2.70935,0c0.58047,0 1.12399,0 1.63348,0c0.47852,0 0.92902,0 1.35449,0c0.78802,0 1.85669,0 2.81067,0c0.79202,0 1.84329,0.00861 1.44135,0.34134c-0.9892,0.81888 -1.36792,1.09869 -2.28168,1.70032c-0.51749,0.3407 -1.08987,0.68188 -1.72498,0.99301c-1.37943,0.67578 -2.16901,0.93491 -2.98535,1.19199c-0.83609,0.26331 -1.69519,0.48898 -2.56049,0.69c-0.85617,0.19891 -1.69861,0.36975 -2.5155,0.51001c-1.50238,0.25793 -2.17557,0.33884 -2.79468,0.40268c-1.10385,0.11386 -1.60614,0.14218 -2.54083,0.16165c-1.33621,0.02783 -1.79099,0.009 -2.71799,0.009c-0.931,0 -1.84201,0 -3.1185,0c-0.75735,0 -2.20242,-0.95251 -2.38934,0c-0.02719,0.13849 0.65356,0.42633 1.60617,1.10733c0.44461,0.31784 0.9422,0.67236 2.05399,1.47601c0.59915,0.43311 1.21436,0.88019 1.8345,1.33798c1.23065,0.90845 1.81894,1.35419 2.38135,1.78799c0.53586,0.41333 1.49899,1.17896 1.90665,1.53601c0.68448,0.59952 1.25131,1.82272 0.315,1.75467c-0.58047,-0.04221 -1.54245,-0.49765 -2.60834,-0.85733c-0.6438,-0.21725 -1.34753,-0.45883 -2.09998,-0.72601c-0.79428,-0.28204 -1.61932,-0.58035 -2.46002,-0.90598c-1.71222,-0.66321 -2.55319,-1.02795 -3.38531,-1.39334c-0.82355,-0.36163 -1.63104,-0.7312 -2.42551,-1.0965c-0.78021,-0.35873 -1.54172,-0.71533 -2.2905,-1.05151c-1.43497,-0.64429 -2.12772,-0.93015 -2.80267,-1.19998c-0.65808,-0.26309 -1.30746,-0.5094 -1.94849,-0.7485c-0.63498,-0.23688 -1.26978,-0.46698 -1.9035,-0.70352c-1.28555,-0.47983 -1.93805,-0.73642 -2.59067,-0.99731c-0.64404,-0.25748 -1.86002,-0.75751 -2.41333,-0.98666l-0.94669,-0.39334l-1.06116,-0.41583" id="svg_6" stroke-width="2" stroke="#000" fill="none"/>
  <path t="7747,7964,8231,8266,8266,8284" d="m287,167c-1.88568,8.72301 -1.96799,8 -1.14801,8l0.87201,0l1.01999,0" id="svg_7" stroke-width="2" stroke="#000" fill="none"/>
  <path t="8796,9014,9014,9014,9015,9015,9015,9015,9015,9015,9032,9032,9032,9032,9032,9032,9032,9033,9033,9066,9067,9067,9067,9067,9067,9068,9068,9068" d="m242,215c-4.66667,6.16667 -5.27914,6.82802 -5.94133,7.48267c-0.68037,0.67262 -1.39705,1.3383 -2.142,1.99651c-0.75371,0.66592 -1.52718,1.32031 -2.32201,1.95149c-1.58,1.2547 -2.3922,1.82878 -3.188,2.40001c-0.78256,0.56172 -1.5565,1.10361 -2.30249,1.6485c-0.72729,0.53123 -1.43358,1.05074 -2.0775,1.6035c-1.22327,1.05011 -1.73227,1.62814 -2.20267,2.20267c-0.45987,0.56166 -0.86534,1.15067 -1.26151,1.73549l-0.38116,0.58984l-0.37317,0.59383l-0.37216,0.59683" id="svg_8" stroke-width="2" stroke="#000" fill="none"/>
 </g>
 <g display="none">
  <title>muse_image</title>
  <image xlink:href="http://farm3.static.flickr.com/2377/2387217557_15dc865cc6.jpg" id="muse" height="480" width="600" y="0" x="20"/>
 </g>
 <g display="none">
  <title>bbox</title>
  <rect stroke="#f00" fill="none" stroke-width="3" height="249.6" width="288" y="144" x="87.2" id="bbox"/>
 </g>
</svg>
