<svg width="640" height="480" xmlns="http://www.w3.org/2000/svg" xmlns:svg="http://www.w3.org/2000/svg" xmlns:xlink="http://www.w3.org/1999/xlink">
 <!-- Sketchy ANNOTATION
  ImageNet ID: n01530575_10073
  URL: http://farm4.static.flickr.com/3368/3306199485_79a90b024f.jpg
  Image Width: 500
  Image Height: 375
  BBox X: 112
  BBox Y: 137
  BBox Width: 178
  BBox Height: 140
  Exposure: 2000ms
  Synset Label: songbird
  Synset ID: n01526521
  Worker Tag: Bird
  Sanity Check: 
   Saved
  Comment: 
   {}
  Worker ID: AIH9VLD92GHFH
  Assignment ID: 3NGI5ARFTT587RJQ50MPI4W4M2CP14
  HIT ID: 3DZKABX2ZI53CUSQH7F6G89S8SWCVQ
  Work Time: 140s
  Worker Score: 0.7143
 END ANNOTATION -->
 <g display="inline">
  <title>Layer 1</title>
  <path t="0,283,284,297,297,297,318,318,337,338,351,351,363,363,380,381,381,396,397,397,412,413,413,434,434,446,446,446,500,512,712,713,729,762,779,796,796,812,812,829,830,846,846,862,879,880,895,896,896,912,912,929,945,962,963,979,980,995,1012" d="m313,174c2.00983,1.88567 2.78519,1.98933 3.83334,2c0.70947,0.00722 1.56216,0 2.56534,0c0.94415,0 1.8606,-0.04561 2.57065,0.08533c1.05222,0.19403 1.77066,0.52504 2.69733,0.748c0.82626,0.19881 1.88721,0.35574 2.58401,0.61334c0.75781,0.28015 1.61758,0.86423 2.09866,1.37866c0.63333,0.67725 1.4006,1.33388 2.17151,1.633c0.77966,0.30252 1.79544,0.44569 2.45831,0.54167c1.02368,0.14822 1.79257,0.47383 2.53552,0.716c1.05426,0.34364 2.11481,0.18803 2.68265,0.85199c0.53552,0.62616 0.18152,1.42134 -0.69733,1.43201c-0.91061,0.01105 -1.82132,0 -2.67465,0c-0.94269,0 -1.79468,0 -2.59335,0c-0.98132,0 -1.89865,0 -2.81067,0c-0.832,0 -1.74774,-0.0641 -2.63199,0.036c-1.00018,0.11322 -1.57278,0.43965 -2.38934,0.68001c-0.97946,0.2883 -1.91467,0.2813 -2.76401,0.284c-0.94049,0.00299 -1.80264,0.16667 -2.63599,0.5c-0.83334,0.33333 -1.6955,0.4955 -2.564,0.57201l-0.42133,0.77866" id="svg_1" stroke-width="2" stroke="#000" fill="none"/>
  <path t="2583,2862,2862,2862,2879,2879,2898,2912,2912,2929,2929,2945,2946,2962,2979,2979,2995,2995,2995,3012,3012,3029,3045,3045,3045,3062,3062,3079,3079,3079,3095,3129" d="m319,176c-8.12817,-6.14951 -8.79474,-6.76476 -9.72116,-6.96851c-0.91031,-0.2002 -1.63983,0.1243 -2.64285,-0.04216c-0.86972,-0.14433 -1.51437,-0.88307 -2.12,-1.472c-0.68289,-0.66406 -1.36295,-1.15462 -2.21149,-1.56551c-0.72772,-0.35239 -1.62582,-0.8316 -2.32535,-0.95183c-0.97888,-0.16823 -1.7626,-0.47565 -2.57916,-0.716c-0.97946,-0.2883 -1.74283,-0.28174 -2.65182,-0.284c-1.08151,-0.00267 -1.75351,0 -2.4975,0c-1.108,0 -1.90134,0 -2.79333,0c-0.95734,0 -1.68933,0 -2.78534,0l-0.87332,0" id="svg_2" stroke-width="2" stroke="#000" fill="none"/>
  <path t="3666,3895,3895,3911,3912,3929,3929,3945,3961,3962,3979,3979,3995,3995,4011,4012,4029,4029,4045,4045,4061,4062,4062,4078,4079,4095,4096,4096,4112,4112,4113,4113,4130,4130,4145,4145,4145,4145,4162,4162,4162,4180,4180,4180,4180,4195,4195,4195,4212,4212,4212,4228,4229,4229,4229,4245,4245,4245,4246,4261,4262,4262,4262,4278,4279,4279,4279,4279,4295,4295,4295,4295,4311,4312,4312,4328,4329,4345" d="m317,174c-2.74533,-6.056 -2.52313,-6.81779 -3.16666,-7.66667c-0.50235,-0.66266 -1.50803,-0.64957 -2.18066,-1.03783c-0.92926,-0.53639 -1.68646,-1.04968 -2.40985,-1.40533c-0.77167,-0.37939 -1.41483,-1.0782 -2.07617,-1.7235c-0.64325,-0.62764 -1.37271,-1.06784 -2.13733,-1.25067c-1.03967,-0.2486 -1.77206,-0.5153 -2.69598,-0.74933c-0.82803,-0.20973 -1.67282,-0.48915 -2.33868,-0.87201c-0.7511,-0.43187 -1.64182,-1.0193 -2.49466,-1.27383c-0.81851,-0.24429 -1.76849,-0.45978 -2.32132,-0.59549c-1.17194,-0.28769 -2.07358,-0.37952 -2.65784,-0.40451c-0.83496,-0.03572 -2.07266,-0.02083 -2.78217,-0.02083c-1.07202,0 -1.70667,0 -2.73868,0c-0.69467,0 -1.95734,0 -2.74933,0c-0.75601,0 -1.89334,0 -2.556,0c-0.69467,0 -1.72714,-0.02834 -2.65167,0.0005c-1.00278,0.03128 -1.69849,0.18427 -2.44434,0.85283c-0.67813,0.60786 -0.98831,1.2283 -2.02017,2.004c-0.50598,0.38037 -1.40164,0.7711 -1.97983,1.11067c-0.91986,0.54024 -1.50354,1.03615 -2.09866,1.55283c-0.60501,0.52528 -1.50098,1.31129 -2.09732,1.79651c-0.86246,0.70174 -1.46051,1.13779 -2.06934,2.01599c-0.41791,0.60278 -0.6774,1.33023 -0.98401,2.052c-0.31195,0.73431 -0.87842,1.80263 -1.35016,2.4575c-0.4653,0.64594 -1.24448,1.50894 -1.63467,2.45683c-0.34857,0.84673 -0.33249,1.42833 -0.3645,2.55733l0,0.834l0,0.94501" id="svg_3" stroke-width="2" stroke="#000" fill="none"/>
  <path t="4599,4894,4895,4895,4895,4911,4929,4929,4929,4945,4961,4961,4979,4994,4995,5011,5011,5028,5044,5045,5045,5078,5079,5095,5111,5128,5129,5129,5144" d="m289,176c5.05649,8.78484 5.72311,9.53247 6.39584,9.77083c0.71338,0.25276 1.58813,-0.45305 1.60416,-1.31349c0.01782,-0.95717 0,-1.68933 0,-2.64301c0,-1.01567 0,-1.69966 0,-2.63966c0,-1.008 -0.03305,-1.96359 -0.70984,-2.47017c-0.58438,-0.43739 -1.67499,-0.68649 -2.6235,-0.7045c-0.67188,-0.01276 -1.66132,0 -2.52365,0c-0.94034,0 -1.95599,-0.00046 -2.13852,0.81883c-0.20639,0.92647 -0.00449,1.68117 -0.00449,2.41316l0.01068,1.09601" id="svg_4" stroke-width="2" stroke="#000" fill="none"/>
  <path t="5598,5778,5778,5778,5779,5795,5795,5795,5813,5813,5813,5828,5828,5828,5828,5844,5845,5861,5862,5878,5878,5878,5894,5895,5895,5911,5911,5928,5929" d="m325,186c-7.69199,2.85733 -8.616,3.16023 -9.33334,3.5c-0.58652,0.2778 -1.37051,1.02153 -1.56934,1.772c-0.21738,0.82048 -0.29346,2.03442 -0.45898,2.62349c-0.24728,0.87999 -0.7915,1.94713 -1.2865,2.65184c-0.32233,0.45888 -0.88248,1.10223 -1.1825,2.13533c-0.22598,0.77809 -0.3255,1.98808 -0.59467,2.66667c-0.39279,0.99017 -0.50891,1.66193 -0.60001,2.436c-0.1236,1.05023 -0.35727,1.74773 -0.62201,2.61015c-0.30484,0.99313 -0.414,1.76851 -0.92065,2.71918l-0.58133,0.47467" id="svg_5" stroke-width="2" stroke="#000" fill="none"/>
  <path t="6248,6448,6448,6448,6461,6478,6478,6479,6494,6495,6511,6511,6511,6528,6529,6547,6547,6547,6547,6562,6563,6563,6579,6579,6579,6595,6595,6596,6613,6613,6613,6613,6629,6629,6629,6629,6645,6646,6646,6646,6661,6662,6662,6662,6662,6679,6679,6679,6679,6679,6696,6696,6696,6696,6712,6712,6712,6712,6712,6729,6729,6729,6729,6745,6745,6745,6745,6745,6762,6763,6763,6763,6763,6779,6779,6779,6779,6779,6779,6796,6796,6796,6796,6796,6796,6812,6812,6812,6812,6812,6813,6828,6828,6828,6828,6829,6829,6829,6829,6845,6846,6846,6846,6846,6847,6847,6847,6862,6862,6862,6863,6863,6863,6863,6879,6879,6879,6879,6879,6880,6880,6880,6896,6896,6897,6897,6897,6897,6897,6897,6923,6923,6923,6923,6924,6924,6924,6937,6937,6937,6937,6937,6937,6938,6938,6953,6953,6953,6953,6954,6954,6954,6954,6970,6970,6970,6971,6971,6971,6971" d="m314,192c0,10.7635 0,11.67117 0,12.48267c0,0.93867 0,1.85066 0,2.76801c0,0.74399 0.00055,1.78133 0,2.55466c-0.00067,0.964 0.02505,1.72055 -0.08533,2.51201c-0.14066,1.00847 -0.54596,1.89424 -0.74802,2.84933c-0.16544,0.78203 -0.1868,1.65305 -0.336,2.23466c-0.3136,1.22237 -0.70709,1.77509 -1.12534,2.64149c-0.49313,1.02151 -0.66232,1.72977 -0.69632,2.40984c-0.06158,1.23116 -0.009,1.78333 -0.009,2.65184c0,1.19566 0,1.79999 0,2.73149c0,0.64934 0.00626,2.04947 -0.01068,2.8c-0.01749,0.77487 -0.04489,1.56909 -0.21066,2.76399c-0.11139,0.80302 -0.29001,1.59799 -0.42599,2.40001c-0.203,1.19724 -0.27264,1.99971 -0.32733,2.8c-0.05466,0.79973 -0.07401,1.60457 -0.24701,2.79999c-0.11633,0.80379 -0.30621,1.60393 -0.53998,2.40001c-0.11807,0.40208 -0.55292,1.60281 -0.89102,2.39999c-0.34055,0.80292 -0.72034,1.58992 -1.18066,2.8c-0.30093,0.79109 -0.52933,1.58742 -0.828,2.328c-0.2865,0.71037 -0.86154,1.64734 -1.34848,2.16666c-0.49158,0.52428 -1.08755,0.96994 -1.82352,1.83867c-0.51608,0.60919 -0.94025,1.32869 -1.392,2.05202c-0.45758,0.73267 -1.18073,1.80624 -1.73633,2.46198c-0.56445,0.66617 -0.88074,0.98221 -1.52499,1.63669c-1.02789,1.04422 -1.40002,1.39868 -2.13867,2.15198c-0.37604,0.38351 -1.12665,1.16425 -1.49066,1.56534c-1.07657,1.18622 -1.40237,1.59671 -2.05865,2.39868c-0.32654,0.39902 -0.97382,1.20352 -1.30936,1.60001c-1.0249,1.21109 -1.39758,1.60611 -2.16266,2.41064c-0.3924,0.41266 -1.21436,1.24716 -1.63998,1.67468c-0.87869,0.88263 -1.32758,1.34363 -2.27951,2.26282c-0.4873,0.47055 -0.99094,0.93719 -1.51651,1.3905c-0.53079,0.45782 -1.06085,0.93301 -2.25067,1.728c-1.20724,0.80661 -1.86987,1.12744 -2.51733,1.47202c-0.64725,0.34445 -1.29971,0.67395 -1.944,1.00949c-0.6384,0.33249 -1.87823,1.00827 -2.46249,1.37335c-1.14563,0.71585 -1.6835,1.11163 -2.22198,1.49933c-0.53757,0.38702 -1.0621,0.79303 -2.6875,1.97916c-0.55252,0.4032 -1.11755,0.80164 -1.69052,1.20001c-0.57767,0.40164 -1.16281,0.80127 -1.75348,1.19998c-1.18893,0.80258 -2.38864,1.60104 -2.98935,1.99951c-0.5993,0.39752 -1.19727,0.79132 -1.79999,1.16849c-0.59735,0.37381 -1.17981,0.76263 -2.39999,1.37601c-1.18167,0.59402 -1.79578,0.80429 -2.40002,1.00266c-1.19215,0.39139 -1.80029,0.53134 -2.39999,0.69336c-1.20062,0.32434 -2.40239,0.68658 -3.00032,0.90265c-0.60484,0.21857 -1.82031,0.70972 -2.44135,0.95734c-0.62964,0.25107 -1.26825,0.50723 -1.929,0.73199c-1.35411,0.4606 -2.06963,0.63446 -2.79599,0.79602c-0.73209,0.16284 -2.21164,0.41574 -2.94667,0.51465c-0.72336,0.09732 -1.43227,0.18185 -2.78667,0.29068c-0.63539,0.05106 -1.83749,0.1095 -2.41333,0.13065l-1.12666,0.02533l-0.56084,0.0062l-0.56584,0.00314" id="svg_6" stroke-width="2" stroke="#000" fill="none"/>
  <path t="8148,8310,8311,8328,8344,8345,8361,8361,8378,8378,8394,8394,8411,8428,8444,8478,8478,8494,8510,8511,8528,8544,8544,8561,8561,8578,8594,8594,8594,8611,8611,8628,8628,8628,8628,8644,8644,8644,8644,8661,8661,8661,8661,8677,8677,8677,8677,8694,8694,8694,8695,8710,8710,8710,8710,8710,8728,8728,8728,8728,8728,8743,8743,8743,8743,8743,8761,8761,8762,8762,8762,8762,8777,8777,8777,8777,8777,8794,8794,8794,8795,8795,8795,8810,8811,8811,8811,8811,8811,8812,8828,8828,8828,8828,8828,8829,8829,8843,8843,8843,8843,8844,8844,8860,8860,8861,8861,8861,8878,8879,8879,8879,8879,8907,8908,8908" d="m264,174c-5.77335,2.744 -6.67743,2.99266 -7.52084,3c-0.96312,0.00838 -1.73561,-0.17148 -2.59383,0.28667c-0.80266,0.42848 -1.09412,1.44106 -1.6425,2.00349c-0.63232,0.64853 -1.63261,0.65392 -2.48566,1.0625c-0.80885,0.38744 -1.38007,1.0721 -2.20001,1.52583c-0.65686,0.36348 -1.91798,-0.15079 -2.43582,0.56418c-0.42336,0.58452 -0.57954,1.46251 -1.44267,1.77866c-0.68889,0.25233 -1.6915,0.55075 -2.47733,0.86267c-0.79147,0.31416 -1.7449,0.789 -2.45201,0.90134c-0.745,0.11836 -1.78253,0.58276 -2.24933,1.03549c-0.83548,0.81029 -1.51549,1.22876 -2.04167,1.5c-0.8629,0.44482 -1.77104,1.00604 -2.35382,1.489c-0.59731,0.495 -1.15082,1.0385 -1.93784,1.8235c-0.71268,0.71085 -1.16724,1.14789 -1.76534,1.85068c-0.83186,0.97746 -1.21021,1.55685 -1.60133,2.16266c-0.40938,0.63405 -0.99899,1.67532 -1.40451,2.40601c-0.41512,0.748 -0.82188,1.51541 -1.56216,2.58066c-0.24484,0.35233 -0.77998,1.01898 -1.35416,1.64584c-0.57333,0.62596 -1.48318,1.51685 -2.07784,2.12216c-0.59471,0.60538 -1.18265,1.22038 -1.716,1.884c-0.53642,0.66743 -1.00946,1.39508 -1.46001,2.15067c-0.459,0.76974 -0.89677,1.57306 -1.392,2.364c-0.50597,0.80809 -1.06702,1.60165 -1.35416,2c-0.57907,0.80334 -0.88213,1.19879 -1.77901,2.39999c-0.59673,0.79921 -0.89757,1.19427 -1.46417,2c-0.55867,0.79443 -1.0817,1.5927 -1.55199,2.40268c-0.47119,0.81152 -0.68808,1.23689 -1.13667,2.11166c-0.23346,0.45525 -0.96785,1.92908 -1.23399,2.455c-0.27383,0.54109 -0.85159,1.65335 -1.16,2.21599c-0.31157,0.56841 -0.61009,1.15102 -1.6745,2.79317c-0.35173,0.54263 -0.7265,1.0647 -1.09351,1.58551c-0.72301,1.02603 -1.08615,1.52444 -1.416,2.03467c-0.95767,1.48135 -1.21199,1.99341 -1.69733,2.99066c-0.23688,0.48671 -0.66209,1.4539 -0.86934,1.92534c-0.60004,1.36499 -0.79793,1.80223 -1.20267,2.64932c-0.39539,0.82755 -0.80054,1.63441 -1.2,2.436c-0.39787,0.7984 -0.79498,1.58218 -1.12801,2.364c-0.317,0.74419 -0.629,1.81416 -0.79999,2.77867l-0.063,0.8385" id="svg_7" stroke-width="2" stroke="#000" fill="none"/>
  <path t="9181,9244,9244,9244,9244,9244,9260,9261,9261,9261,9261,9261,9261,9277,9278,9278,9278,9278,9278,9278,9278,9278,9294,9294,9294,9294,9294,9294,9294,9295,9295,9310,9311,9311,9311,9311,9311,9311,9311,9311,9328,9328,9328,9328,9328,9328,9328,9328,9328,9345,9345,9345,9345,9345,9345,9345,9345,9345,9361,9361,9362,9362,9362,9362,9362,9362,9362,9378,9378,9378,9378,9379,9379,9379,9379,9379,9396,9396,9396,9396,9396,9397,9397,9397,9397,9415,9416,9416,9416,9416,9416,9416,9416,9416,9433,9433,9433,9433,9433,9433,9433,9433,9433,9449,9449,9449,9449,9449,9449,9450,9450,9450,9494,9495,9495,9495,9495,9495,9496,9496,9496,9510,9511,9511,9511,9511,9511,9511,9511,9511,9527,9528,9528,9528,9528,9529,9529,9529,9529,9544,9544,9545,9545,9545,9546,9546,9546,9546,9561,9561,9561,9562,9562,9562,9562,9562,9563,9577,9578,9578,9579,9579,9579,9579,9580,9580,9594,9594,9594,9595,9595,9595,9596,9596,9596,9610,9611,9611,9611,9612,9612,9612,9612,9613,9627,9628,9628,9629,9629,9629,9629,9630,9630,9644,9644,9645,9645,9646,9646,9646,9646,9646,9661,9661,9662,9662,9662,9662,9663,9663,9663,9677,9678,9678,9679,9679,9679,9679,9680,9680,9694,9694,9695,9695,9695,9696,9696,9696,9696,9711,9711,9712,9712,9712,9712,9713,9713,9713" d="m233,218c-4.39999,3.73633 -5.20789,4.13525 -6,4.54167c-0.80836,0.41475 -1.26051,0.61156 -2.40067,1.66617c-0.42894,0.39676 -0.82289,0.88239 -1.242,1.39349c-0.91356,1.11409 -1.38034,1.74007 -1.89867,2.37601c-1.11328,1.36591 -1.74097,2.07045 -2.40533,2.79999c-0.69545,0.76367 -1.43832,1.54961 -2.22,2.3685c-0.81824,0.85718 -1.68121,1.74783 -2.58,2.6835c-1.92261,2.0015 -2.93956,3.07697 -3.99199,4.192c-1.08159,1.14595 -2.18263,2.31731 -3.30301,3.4995c-1.12761,1.18982 -2.25638,2.37845 -3.39299,3.54451c-2.2211,2.27867 -3.32059,3.35179 -4.39734,4.40132c-1.06061,1.0338 -2.11983,2.0508 -3.168,3.07501c-1.05316,1.0291 -2.11612,2.07283 -3.168,3.16499c-2.18797,2.27173 -3.28021,3.51678 -4.40134,4.79868c-1.14601,1.31036 -2.29178,2.6575 -3.45149,4.0155c-1.16429,1.36334 -2.3212,2.72894 -3.49651,4.06049c-2.29694,2.60226 -3.45363,3.81863 -4.59734,4.99335c-1.1208,1.15118 -2.24551,2.25992 -3.3645,3.34198c-1.10641,1.06992 -2.2169,2.1174 -3.31949,3.16202c-2.20251,2.08673 -3.30396,3.13895 -4.39467,4.20398c-1.08762,1.06201 -2.15852,2.12692 -3.2025,3.1965c-1.0293,1.05453 -2.03018,2.10025 -2.97751,3.15152c-1.81625,2.01556 -2.62772,3.01981 -3.40134,4c-0.75221,0.95306 -1.46143,1.90405 -2.142,2.84848c-0.67137,0.93167 -1.31973,1.86783 -1.96199,2.8035c-1.29152,1.88159 -1.94115,2.83911 -2.604,3.79733c-0.66414,0.96011 -1.33012,1.91467 -1.99651,2.85751c-0.65765,0.93048 -1.3069,1.84134 -1.95149,2.7225c-1.22824,1.67905 -1.82404,2.45566 -2.39734,3.19867c-0.5511,0.71423 -1.0891,1.39752 -1.6095,2.05798c-0.50496,0.64087 -0.99944,1.26294 -1.4745,1.87802c-0.92738,1.20065 -1.36868,1.80328 -1.80133,2.40265c-0.42732,0.59198 -0.84102,1.1806 -1.245,1.76102c-0.39601,0.56897 -0.77921,1.12787 -1.155,1.67099c-0.71848,1.03839 -1.06508,1.5275 -1.39867,2c-0.32207,0.45618 -0.63354,0.89673 -0.92551,1.32901c-0.28262,0.41846 -0.55302,0.82712 -0.7905,1.23898c-0.45689,0.79245 -0.63747,1.19824 -0.79601,1.59735c-0.15251,0.38394 -0.27406,0.75974 -0.351,1.12198c-0.07158,0.33704 -0.12038,0.65732 -0.08099,0.94202c0.06718,0.48563 0.2265,0.67517 0.40132,0.79599c0.18283,0.12634 0.42931,0.18652 0.7005,0.19949c0.30453,0.01456 0.64713,-0.02765 1.0155,-0.11548c0.84821,-0.20221 1.30692,-0.39545 1.79733,-0.60001c0.52565,-0.21924 1.07498,-0.48111 1.64551,-0.78452c0.60452,-0.3215 1.23155,-0.68393 1.8705,-1.09949c1.37614,-0.89499 2.07269,-1.4346 2.79466,-1.99466c0.74522,-0.57813 1.49463,-1.19016 2.2515,-1.82251c0.7672,-0.64096 1.532,-1.29718 2.29651,-1.95749c1.51797,-1.31107 2.26334,-1.9574 3,-2.60269c0.73636,-0.64505 1.47301,-1.29993 2.20349,-1.98148c0.74565,-0.69571 1.50076,-1.42297 2.2485,-2.20651c1.58937,-1.6655 2.37965,-2.61298 3.20134,-3.59866c0.84988,-1.0195 1.70311,-2.08389 2.571,-3.17401c0.88148,-1.10721 1.76335,-2.23248 2.661,-3.354c1.78941,-2.23569 2.69293,-3.32349 3.59866,-4.392c0.89867,-1.06018 1.80545,-2.10211 2.7195,-3.129c0.9113,-1.02377 1.83174,-2.03693 2.76451,-3.039c1.87215,-2.01126 2.83493,-3.00385 3.79866,-4.004c0.96761,-1.00418 1.94258,-2.00815 2.916,-3.0195c0.97592,-1.01398 1.95311,-2.03091 2.916,-3.06448c1.92896,-2.07056 2.86507,-3.13422 3.80267,-4.19867c0.93971,-1.06686 1.87453,-2.1438 2.823,-3.216c0.95285,-1.07715 1.91359,-2.15829 2.91299,-3.216c2.02185,-2.13977 3.10361,-3.1687 4.19733,-4.19998c1.10027,-1.03745 2.22401,-2.05869 3.34801,-3.08401c1.12399,-1.02533 2.25162,-2.04245 3.34801,-3.08401c2.1712,-2.06259 3.19362,-3.13037 4.19333,-4.19333c0.98456,-1.04684 1.93001,-2.09406 2.85449,-3.1185c0.90083,-0.99823 1.76654,-1.97476 2.6295,-2.89349c1.62311,-1.72798 2.42455,-2.48898 3.2,-3.2c0.74059,-0.67905 1.46977,-1.30638 2.1705,-1.90649c0.67397,-0.57719 1.33278,-1.12416 1.94551,-1.6815c1.17645,-1.0701 1.70294,-1.63637 2.20267,-2.20801c0.49329,-0.56427 0.95403,-1.14613 1.39349,-1.73549c0.43652,-0.5854 0.85214,-1.18152 1.2585,-1.7805c0.8103,-1.19441 1.20261,-1.7991 1.604,-2.39467c0.39862,-0.59143 0.8,-1.172 1.2,-1.7415l0.39999,-0.5545l0.40001,-0.5365l0.39999,-0.5155" id="svg_8" stroke-width="2" stroke="#000" fill="none"/>
  <path t="10065,10193,10194,10194,10194,10194,10194,10194,10194,10210,10210,10211,10211,10211,10211,10211,10211,10228,10229,10229,10229,10229,10229,10243,10244,10244,10244,10244,10245,10245,10245,10261,10261,10261,10261,10261,10261,10261,10277,10278,10278,10278,10278,10294,10294,10294,10294,10360,10360" d="m236,294c-13.33333,0.83334 -14.2854,0.8812 -15.15067,0.91467c-0.79108,0.03061 -1.52122,0.05539 -2.85066,0.07465c-0.62514,0.00906 -1.24133,0.01001 -3.16267,0.01068c-0.688,0.00024 -1.394,0 -2.112,0c-0.724,0 -1.448,0 -2.166,0c-0.70599,0 -2.694,0.00089 -3.306,-0.00134c-0.59399,-0.00214 -1.75208,-0.01663 -2.328,-0.03467c-0.58209,-0.01825 -2.42424,-0.12781 -3.08817,-0.18533c-0.68942,-0.05972 -1.39838,-0.13083 -2.1225,-0.20398c-0.73421,-0.07419 -1.47238,-0.15964 -2.94667,-0.29068c-1.43248,-0.12732 -2.12315,-0.16608 -2.79333,-0.19867c-0.64984,-0.03162 -1.88997,-0.06635 -2.48,-0.07465c-0.56998,-0.008 -2.16,-0.01068 -3.12267,-0.01068c-0.45633,0 -1.32899,0 -2.16167,0c-1.209,0 -2.005,0 -2.77699,0l-1.0605,0l-0.87151,0l-0.996,0" id="svg_9" stroke-width="2" stroke="#000" fill="none"/>
  <path t="11515,11643,11644,11644,11660,11661,11661,11661,11661,11661,11678,11678,11679,11679,11679,11679,11679,11693,11694,11694,11694,11694,11694,11694,11710,11711,11711,11711,11711,11711,11711,11727,11727,11728,11728,11728,11728,11728,11744,11744,11745,11745,11745,11760,11760,11761,11761,11761,11777,11777,12043,12060,12060,12060,12078,12078,12078,12093,12094,12094,12094,12110,12110,12110,12110,12127,12127,12128,12144,12144,12144,12160,12160,12160,12161,12177,12177,12178,12210,12211,12260,12261,12277,12294,12294,12310,12310,12310,12327,12327,12328,12328,12328,12343,12344,12344,12344,12344,12360,12360,12360,12361,12377,12377,12378,12378,12378,12378,12393,12394,12394,12394,12410,12410,12411,12427,12427,12428,12443,12444,12444,12461,12461,12494,12528,12528,12528,12544,12544,12560,12560,12577,12660,12660,12677,12694,12694,12694,12712,12712,12727,12728,12728,12743,12744,12777,12778,12927,12943,12944,12944,12960,12961,12961,12962,12977,12977,12978,12978,12978,12994,12994,12994,12995,12995,13017,13017,13017,13017,13027,13028,13028,13043,13044,13044,13044,13210" d="m254,266c1.82933,4.51733 1.94841,5.18411 1.97867,5.86133c0.06573,1.4707 0.01944,2.31076 0.03033,2.75751c0.02304,0.94394 0.09433,1.94864 0.16165,2.46918c0.13992,1.08185 0.392,2.1994 0.54367,2.76917c0.31094,1.16815 0.50473,1.75421 0.69467,2.34732c0.19138,0.59756 0.78955,2.39612 0.99368,2.99551c0.20453,0.60059 0.40393,1.20563 0.86932,2.39999c0.23495,0.60294 0.47638,1.21069 1.06134,2.39999c0.29791,0.60568 0.9675,1.79999 1.30667,2.39999c0.33914,0.60001 0.68796,1.19232 0.9975,1.80002c0.90591,1.77853 1.10828,2.39618 1.30649,2.99731c0.19467,0.59039 0.49802,1.76001 0.62399,2.33069c0.12289,0.5567 0.42172,2.14087 0.63467,3.10132c0.10144,0.45743 0.30222,1.34198 0.61166,2.16165c0.46469,1.2309 0.94708,2.00821 1.18649,2.39551c0.46817,0.75739 1.02524,1.3909 1.63467,2.54901c0.3559,0.67627 0.28467,1.8511 1.02899,2.14282c0.83942,0.32895 1.74506,0.0679 2.6355,-0.09967c0.90692,-0.17068 1.48938,-0.40869 2.70001,-0.612c0.89853,-0.15091 1.52069,-0.15494 2.48532,-0.16531c1.03595,-0.01114 1.76733,-0.00134 2.51468,-0.00134c0.74734,0 2.17847,-0.00903 2.83835,0.00449c0.91531,0.01877 2.01376,0.10428 2.70898,0.36169c0.70169,0.25983 1.62741,0.95773 2.13535,1.40182c0.54077,0.47281 1.30862,1.22552 1.98398,1.89865c0.67313,0.67087 1.22345,1.20868 1.81601,1.81735c0.66446,0.68253 1.75229,1.61417 1.34399,2.22934c-0.49118,0.74005 -1.81305,0.35504 -2.63651,0.22949c-0.97784,-0.14911 -1.75662,-0.47391 -2.35632,-0.7045c-1.00745,-0.38736 -1.71863,-0.72354 -2.46982,-1.06369c-0.77414,-0.35052 -1.55331,-0.72311 -2.76401,-1.15298c-0.79272,-0.28146 -1.59836,-0.48718 -2,-0.57501c-0.79703,-0.17429 -1.99951,-0.33365 -2.8045,-0.39398c-0.81577,-0.06113 -1.65524,-0.07892 -2.96216,-0.21933c-0.91956,-0.09879 -1.38602,-0.186 -2.33334,-0.33334c-0.94733,-0.14734 -1.41275,-0.24579 -2.77817,-0.37851c-0.85403,-0.08301 -1.65921,-0.10751 -2.40298,-0.117c-1.27591,-0.01627 -2.05753,-0.00449 -3.00153,-0.00449c-1.00266,0 -1.83817,0 -2.42181,0c-1.19516,0 -2.07419,0 -2.88116,0c-1.04367,0 -1.81781,-0.07358 -2.68634,0.03601c-0.88319,0.11145 -1.8429,0.4487 -2.56,0.76532c-0.81496,0.35983 -1.43398,0.94501 -1.71983,1.84683c-0.24541,0.7742 -1.11316,1.19452 -1.8815,1.51849c-0.81915,0.3454 -0.33072,0.81927 0.60133,0.54669c0.74397,-0.21756 1.53668,-0.51352 2.26266,-1.19736c0.65837,-0.62015 1.26749,-1.52777 1.80533,-1.88c0.73631,-0.48218 1.84473,-0.82614 2.44968,-1.39316c0.66223,-0.62073 0.4101,-1.46524 0.72781,-2.48566c0.26755,-0.85931 1.06058,-1.05582 1.81851,-1.39316c1.17206,-0.52167 1.76819,-0.85004 2.37866,-1.18936c0.94476,-0.52512 1.94888,-1.02692 2.67468,-1.28931c0.74387,-0.26892 1.52405,-0.47952 2.31598,-0.68402c1.19666,-0.30902 1.99872,-0.49548 2.77783,-0.74298c0.38727,-0.12302 1.16876,-0.37103 2.19934,-1.00085c0.68866,-0.42087 1.259,-0.99817 2.22018,-1.60416c0.86743,-0.54688 1.79977,-0.76581 2.40131,-0.85733c1.1972,-0.18219 1.79733,-0.28 2.65836,-0.496l0.771,-0.216l1.08798,-0.26932" id="svg_10" stroke-width="2" stroke="#000" fill="none"/>
  <path t="13498,13610,13610,13610,13610,13610,13610,13610,13627,13627,13627,13627,13627,13627,13644,13644,13644,13644,13644,13644,13660,13660,13660,13660,13660,13677,13677,13678,13678,13678,13693,13693,13694,13710,13710,13860,13861,13877,13894,13894,13910,13910,13910,13927,13927,13927,13943,13943,13943,13944,13944,13960,13960,13960,13960,13977,13977,13977,13994,13995,13995,14010,14010,14011,14028,14093,14093,14110,14128,14128,14128,14143,14144,14144,14144,14160,14161,14161,14177,14177,14178,14178,14194,14194,14194,14194,14210,14211,14211,14211,14227,14227,14228,14228,14243,14244,14244,14244,14260,14261,14261,14261,14277,14278,14294,14294,14310,14311,14478,14478,14743,14759,14760,14778,14779,14779,14793,14794,14811,14812,14812,14827,14861,14927,14943,14961,14961,14977,14977,14978,14993,14994,14994,15010,15011,15011,15011,15028,15028,15043,15044,15061,15061,15109,15135,15150,15150,15150,15164,15164,15164,15165,15178,15178,15178,15193,15193,15193,15227,15228,15228,15228,15242,15242,15260,15293,15310,15310,15327,15327,15343,15343,15343,15343,15361,15361,15361,15361,15377,15378,15378,15393,15393,15393,15410,15411,15411,15427,15427" d="m285,254c1.10016,9.23532 1.19797,9.94318 1.3045,10.62399c0.10294,0.65787 0.20148,1.29565 0.45267,2.50534c0.12103,0.58286 0.39673,1.70782 0.72684,2.78534c0.16241,0.53012 0.51694,1.56415 0.69064,2.07465c0.34323,1.0087 0.66974,2.00763 0.94,3.00934c0.13367,0.49542 0.36719,1.47989 0.58084,2.44418c0.10449,0.47156 0.40842,1.8349 0.60001,2.7045c0.18765,0.85178 0.35663,1.70389 0.41916,2.13666c0.19263,1.33331 0.23602,2.26389 0.2645,3.19516c0.01404,0.45941 0.00809,1.35156 0.02118,2.57751c0.01123,1.05014 -0.14496,1.74402 0.44232,2.80051c0.30664,0.55161 1.25864,1.29599 1.496,1.95749c0.33228,0.92606 1.06134,1.18533 1.87567,1.18533c0.95633,0 1.72733,0 2.58835,0c0.89749,0 1.80798,0 2.75449,0c1.00949,0 1.72818,0 2.47882,0c0.77469,0 1.56534,0 2.76367,0c0.79135,0 1.55869,0 2.62967,0c0.92783,0 1.94983,-0.00046 2.65335,0c1.00266,0.00067 1.84131,-0.01315 2.71866,0.08533c0.90277,0.10135 1.80542,0.25928 2.52716,0.61917c0.97137,0.48434 1.31888,1.43555 1.55066,2.27466c0.22974,0.83176 -0.81314,1.04285 -1.4935,1.01184c-0.80859,-0.03687 -1.99603,-0.29953 -2.58432,-0.56033c-0.60236,-0.26706 -1.42706,-0.81171 -2.48016,-1.409c-0.69574,-0.39462 -1.42072,-0.71008 -2.25452,-0.85501c-0.96811,-0.16827 -1.68738,-0.15247 -2.41849,-0.16217c-1.08142,-0.01434 -2.09549,-0.00449 -2.74817,-0.00449c-0.98401,0 -2.02151,0 -2.75717,0c-0.76367,0 -1.54733,0 -2.74283,0c-0.79868,0 -1.58932,0 -2.36401,0c-1.46933,0 -2.15198,0 -2.81064,0c-0.97803,0 -1.99203,-0.0058 -2.7067,0.00134c-1.07712,0.01077 -1.78531,-0.09619 -2.85416,0.22034c-0.73972,0.21906 -1.30557,1.14124 -1.78534,1.75748c-0.57944,0.74429 -1.52014,0.8718 -2.45749,1.242c-0.70331,0.27777 -0.7359,-0.14542 0.14499,-0.22116c0.83261,-0.07159 1.71539,-0.46759 2.07617,-1.0625c0.40387,-0.66592 0.80914,-1.83017 1.27802,-2.41666c0.58902,-0.73676 1.27118,-1.37491 1.82648,-1.811c0.84482,-0.66348 1.43704,-1.09338 1.65402,-1.90851c0.21268,-0.79898 1.32956,-0.72153 2.0195,-0.84299c1.0062,-0.17715 1.56113,-0.69757 2.21515,-1.10767c0.9021,-0.56567 1.72009,-0.74844 2.57468,-0.86536c1.18793,-0.16254 1.79578,-0.24326 2.66849,-0.50616c0.84387,-0.25424 1.82669,-0.69971 2.5,-0.95831c1.0087,-0.38739 1.99158,-0.202 2.6875,-0.85419c0.53723,-0.50348 0.67761,-1.58878 0.51001,-1.55234c-0.77304,0.16809 -1.44031,0.76157 -2.28568,1.23752c-0.88251,0.49686 -1.48477,0.77484 -2.37015,1.12732c-0.83109,0.33087 -1.84549,0.70428 -2.52084,1.04169c-0.69333,0.34637 -1.68723,0.96155 -2.23599,1.31516c-0.57666,0.37158 -1.76788,1.15829 -2.36002,1.564c-0.57581,0.3945 -1.45636,0.90564 -2.03967,1.79968c-0.34839,0.53397 -0.8569,1.32309 -1.27899,2.08566c-0.44611,0.80594 -0.04675,1.69873 0.20267,2.48132c0.23184,0.72748 1.01691,1.79706 1.72635,2.07535c0.7822,0.30682 1.42902,0.33105 2.28549,0.82214c0.94183,0.54004 1.45572,1.10587 2.01483,1.56918c0.98541,0.81659 1.69257,1.23166 2.284,1.73465c0.63354,0.53882 1.15308,1.31662 1.80133,1.96951c0.74814,0.75351 1.39999,0.96518 2.20001,1.14383l0.99548,0.27585l0.74734,0.34732" id="svg_11" stroke-width="2" stroke="#000" fill="none"/>
 </g>
 <g display="none">
  <title>muse_image</title>
  <image xlink:href="http://farm4.static.flickr.com/3368/3306199485_79a90b024f.jpg" id="muse" height="480" width="640" y="0" x="0"/>
 </g>
 <g display="none">
  <title>bbox</title>
  <rect stroke="#f00" fill="none" stroke-width="3" height="179.2" width="227.84" y="175.36" x="143.36" id="bbox"/>
 </g>
</svg>
