<svg width="640" height="480" xmlns="http://www.w3.org/2000/svg" xmlns:svg="http://www.w3.org/2000/svg" xmlns:xlink="http://www.w3.org/1999/xlink">
 <!-- Sketchy ANNOTATION
  ImageNet ID: n01530575_10073
  URL: http://farm4.static.flickr.com/3368/3306199485_79a90b024f.jpg
  Image Width: 500
  Image Height: 375
  BBox X: 112
  BBox Y: 137
  BBox Width: 178
  BBox Height: 140
  Exposure: 2000ms
  Synset Label: songbird
  Synset ID: n01526521
  Worker Tag: small songbird
  Sanity Check: 
   Saved
  Comment: 
   {}
  Worker ID: A2HCKWFKLJAMRG
  Assignment ID: 3HFNH7HEMHEQBIA8NWMHPWQKT0DQGI
  HIT ID: 3DZKABX2ZI53CUSQH7F6G89S8SWCVQ
  Work Time: 113s
  Worker Score: 0.7857
 END ANNOTATION -->
 <g display="inline">
  <title>Layer 1</title>
  <path t="0,171,171,171,186,186,209,209,215,223,223,231,239,239,245,245,253,261,269,269,275,283,291,291,299,305,305,313,313,321,329,329,337,343,343,351,351,359,359,365,365,373,373,381,381,389,389,395,395,403,403,411,411,411,419,419,427,433,433,433,441,441,449,449,449,455,455,463,463,471,471,479,479,485,485,493,501,501,509,509,509,515,523,523,531,539,539,545,545,545,553,561,561,569,569,575,575,583,583,591,599,599,605,605,613,621,621,629,629,635,635,643,651,651,659,659,665,673,681,689,689,695,695,703,711,711,719,725,733,749,755,763,771,779,779,793,793,801,809,809,815,823,831,839,845,869,928,1249,1296,1331,1534,1626,1642,1671,1679,1685,1701,1707,1709,1715,1723,1731,1739,1745,1753,1762,1769,1775,1775,1783,1791,1797,1797,1805,1814,1814,1815,1829,1835,1851,1865,1889,1903,1903,1919,1925,1933,1949,1949,1955,1963,1971,1985,2001,2015,2023,2039,2053,2062,2075,2083,2099,2113,2121,2135,2242,2263,2271,2279,2279,2285,2285,2293,2301,2301,2309,2315,2315,2323,2331,2331,2339,2345,2345,2353,2353,2361,2362,2369,2369,2375,2375,2383,2383,2383,2391,2399,2399,2405,2405,2405,2413,2413,2421,2421,2429,2429,2429,2435,2443,2443,2451,2459,2459,2465,2473,2481,2489,2863,2878,2878,2878,2901,2909,2909,2915,2923,2931,2939,2939,2945,2945,2953,2953,2962,2969,2969,2975,2983,2983,2991,2991,2999,3005,3005,3013,3021,3021,3029,3029,3035,3043,3043,3051,3051,3051,3059,3059,3065,3073,3081,3089,3095,3095,3103,3112,3119,3119,3125,3133,3133,3141,3149,3149,3155,3155,3163,3163,3171,3171,3179,3179,3185,3193,3201,3209,3215,3223" d="m236,250c-1,0.45833 -1,-0.5 -1,-1.39999c0,-0.90001 -0.05437,-1.80165 0.00017,-2.70001c0.04272,-0.70386 0.69969,-1.49599 0.91451,-2.38399c0.20387,-0.8428 -0.04706,-1.80566 0.30666,-2.61618c0.31319,-0.71767 0.62965,-1.57336 0.86267,-2.41583c0.24368,-0.88103 0.83067,-1.68399 0.916,-2.48399c0.08533,-0.8 0.71518,-1.41144 1.38933,-1.98534c0.69633,-0.59279 0.48674,-1.45244 1.04668,-2.37866c0.43977,-0.72745 1.164,-1.23601 1.864,-1.936c0.5,-0.5 1.2,-1.2 1.89999,-1.89999c0.5,-0.5 1.18805,-1.21216 1.90018,-1.90001c0.52713,-0.50916 1.39018,-1.08919 2.07449,-1.5c0.81175,-0.48732 1.42879,-1.03195 2.14667,-1.5c0.6599,-0.43025 1.68016,-0.97316 2.26801,-1.5c0.63824,-0.57199 1.14798,-1.13072 2.06332,-1.7c0.68069,-0.42334 1.44698,-0.92157 2.09999,-1.39999c0.71555,-0.52423 1.45349,-0.90906 2.44736,-1.39984c0.59732,-0.29495 1.3913,-0.65582 2.39548,-0.84749c0.91281,-0.17422 1.7572,-0.52087 2.57117,-1.05267c0.65277,-0.4265 1.2374,-0.7009 2.23334,-1.2c0.79965,-0.40074 1.58746,-0.82689 2.39999,-1.18933c0.78873,-0.35182 1.60349,-0.50362 2.40002,-0.636c1.00507,-0.16704 1.74472,-0.58252 2.77866,-0.85316c0.75726,-0.19823 1.6785,-0.12151 2.42584,-0.12151c0.99417,0 1.93832,0 2.84283,0c0.91931,0 1.7735,0 2.75266,0c0.78934,0 1.51468,0 2.5,0c0.98401,0 1.67465,0 2.74734,0c0.91931,0 1.7735,0 2.75266,0c0.78934,0 1.51468,0 2.5,0c0.98532,0 1.71075,-0.01303 2.69983,0.00017c0.77954,0.01039 1.74265,0.29485 2.55283,0.64717c0.86871,0.37778 1.60156,0.24353 2.62201,0.36333c0.9632,0.11308 1.59143,0.59262 2.60382,0.86783c0.70105,0.19057 1.67297,0.10965 2.50552,0.4055c0.70605,0.2509 1.64481,0.58153 2.39999,0.8c0.96188,0.27827 1.60764,0.7511 2.616,0.89517c0.97437,0.13922 1.7233,-0.08325 2.61465,0.30482c0.74176,0.32295 1.58481,0.76964 2.38535,1.216c0.80396,0.44829 1.66666,0.66667 2.5,1c0.83334,0.33333 1.65717,0.41251 2.39999,0.936c0.78857,0.55573 1.41803,1.0094 2.164,1.58932c0.62448,0.4855 1.23224,1.06737 1.936,1.47467c0.78989,0.45715 1.33951,1.00955 1.85718,1.8c0.52069,0.79506 1.14282,1.19998 1.84283,1.89999c0.59998,0.59999 1.21759,1.18283 1.89981,1.90001c0.55774,0.58632 0.83487,1.4321 1.25284,2.2c0.45767,0.84081 0.9585,1.46358 1.59467,2.05266c0.57559,0.53299 1.25662,1.04266 1.76868,1.73134c0.50342,0.67708 -0.1333,1.73073 0.284,2.56334c0.27963,0.55794 1.00043,1.14522 1.80133,1.35133c0.87216,0.22446 1.509,0.61945 2.39868,0.916c0.85745,0.28581 1.836,0.08533 2.60132,0.08533c0.89868,0 1.79868,0 2.69867,0c0.89999,0 1.79999,0 2.70001,0c0.89999,0 1.79999,0 2.59998,0c0.90002,0 1.836,0 2.68268,0c0.8075,0 1.70236,0.44817 2.51733,0.83333c0.64966,0.30704 1.64282,0.16667 2.52084,0.16667c0.87915,0 1.77914,0 2.67917,0c0.89999,0 1.80255,-0.0639 2.59998,0c1.04337,0.0836 1.41525,0.9391 2.30002,1c0.89786,0.0618 1.69998,0 2.60001,0c0.89999,0 1.83472,-0.0529 2.59998,0.35266c0.84592,0.4483 1.84891,0.31026 2.53336,0.81401c0.65298,0.48059 1.3988,0.5891 2.08264,1.11732c0.6275,0.48471 1.43417,0.64296 2.05869,1.14134c0.60797,0.48518 1.38412,0.62178 2.05066,1.14932c0.57925,0.45847 -0.32532,0.42534 -1.22534,0.42534c-0.90015,0 -1.68533,0 -2.62534,0c-0.69064,0 -1.67465,0 -2.65866,0c-0.69064,0 -1.75882,0 -2.61615,0c-0.78519,0 -1.72519,0 -2.73318,0c-0.86215,0 -1.68781,-0.02348 -2.65067,0.00133c-0.69128,0.01782 -1.7211,0.4382 -2.39999,0.71468c-0.91113,0.37103 -1.71793,0.25276 -2.716,0.2885c-0.80121,0.02869 -1.80896,0.25914 -2.39999,0.51633c-1.01678,0.44244 -1.77002,0.91556 -2.51468,1.19383c-0.84158,0.31448 -1.79993,0.52461 -2.50616,0.78534c-0.97034,0.35822 -1.78766,0.42427 -2.57916,0.584c-1.01498,0.20485 -1.58066,0.56369 -2.60001,0.79466c-0.78912,0.1788 -1.80875,0.26271 -2.58932,0.54668c-0.73434,0.26714 -1.71106,0.54024 -2.69467,0.57599c-0.69107,0.02512 -1.5687,0.39813 -2.51599,0.832c-0.66696,0.30547 -1.42258,0.85219 -2.29999,1.10951c-0.8642,0.25345 -1.60788,0.44223 -2.12534,1.03183c-0.55969,0.63776 -1.21057,1.08479 -1.65869,1.82666c-0.42606,0.70529 -1.0401,1.50171 -1.71597,1.91333c-0.84247,0.51309 -1.21301,1.13644 -1.72086,1.78534c-0.60168,0.76883 -1.20987,1.23734 -1.77914,2.15268c-0.42334,0.68069 -0.87961,1.48019 -1.40002,2.04282c-0.67438,0.72903 -1.39999,1.40451 -1.89999,1.90451c-0.69998,0.69998 -1.39999,1.39999 -1.89999,1.89999c-0.70001,0.70001 -1.29999,1.29999 -1.89999,1.89999c-0.70001,0.70001 -1.30002,1.30002 -1.89999,1.89999c-0.70001,0.70001 -1.30002,1.30002 -1.90002,1.90002c-0.59998,0.59998 -1.29999,1.29999 -1.90015,1.90015c-0.53583,0.53583 -1.22116,1.22116 -1.89984,1.89984c-0.51599,0.51599 -1.24704,1.23865 -1.79868,1.79868c-0.68576,0.69617 -0.97937,1.65912 -1.63733,2.17599c-0.64816,0.50919 -1.59848,0.76758 -2.36398,1.10934c-0.74353,0.33197 -1.55261,0.74689 -2.40002,1.19998c-0.65198,0.3486 -1.45032,0.6983 -2.284,1c-0.88077,0.31873 -1.78091,0.59958 -2.68265,0.88266c-0.67517,0.21198 -1.67221,0.64523 -2.45868,0.85867c-0.8667,0.2352 -1.56607,0.62115 -2.57449,0.85333c-0.76862,0.17697 -1.76071,0.37567 -2.3895,0.69601c-0.88788,0.45236 -1.81067,0.42532 -2.71066,0.42532l-0.89868,0.00134l-0.71732,0.28265l-0.52002,0.67999" id="svg_1" stroke-width="2" stroke="#000" fill="none"/>
  <path t="3905,4070,4129,4144,4144,4161,4169,4169,4169,4175,4175,4183,4191,4191,4191,4199,4199,4205,4213,4221,4229,4229,4273" d="m337,237c-0.16666,-1.83333 -0.86597,-2.34674 -0.94284,-2.291c-0.73389,0.53215 0.79736,1.51044 1.1095,2.45767c0.2258,0.68524 0.64145,1.43132 1.03201,2.23199c0.3718,0.76221 0.75024,1.71512 0.80133,2.76801c0.03244,0.66862 0.02966,1.45132 0.35266,2.42883c0.25204,0.76277 0.62933,1.76791 0.64734,2.60449c0.01938,0.8998 0,1.8 -0.08533,2.60001l-0.56201,0.78566" id="svg_2" stroke-width="2" stroke="#000" fill="none"/>
  <path t="4491,4609,4609,4624,4641,4655,4655,4663,4671,4679,4693,4701,4709,4709,4715,4731,4739,4753,4753,4761,4769,4775,4791,4799,4799,4813,4829,4835,4851,4859,4873,4881,4889,4889,4903,4911,4919,4941,4955,4955,4971,4985,5001,5015,5015,5069" d="m337,242c1,-1 1.54764,-1.44608 2.28534,-1.91467c0.69144,-0.43921 1.66843,-0.32745 2.41467,-0.73267c0.76111,-0.41328 1.69998,-0.35266 2.59998,-0.35266c0.90002,0 1.80002,0 2.70001,0c0.79999,0 1.42896,-0.3707 2.2215,-0.87849c0.74673,-0.47844 1.80621,0.02454 2.47852,-0.17867c0.87527,-0.26456 1.5986,-0.91425 2.5,-0.94284c0.89954,-0.02853 1.79999,0 2.59998,0c0.90002,0 1.80002,0 2.70001,0c0.89999,0 1.79999,0 2.70001,0c0.89999,0 1.80038,-0.02536 2.59998,0c0.9014,0.02859 1.62256,0.68555 2.5,0.94284c0.86548,0.25378 1.75085,0.358 2.40002,0.7045c0.84937,0.45335 1.79999,0.37349 2.59998,0.70532l0.80002,0.526l0.69998,0.20534l0.78568,0.56334" id="svg_3" stroke-width="2" stroke="#000" fill="none"/>
  <path t="6000,6077,6092,6092,6092,6111,6119,6119,6125,6133,6141,6149,6163,6171,6171,6179,6185,6193,6193,6201,6215,6223,6261" d="m294,242c0.16666,-1.83333 1.10608,-2.05791 1.564,-2.61067c0.56763,-0.6852 0.77118,-1.71019 1.436,-2.38933c0.48447,-0.49487 1.38028,-0.9854 2,-1.5c0.60202,-0.49991 1.51312,-0.64275 2.39999,-0.48933c0.83347,0.14418 1.4892,0.71387 2.07916,1.48933c0.56122,0.7377 0.82773,1.54681 1.23685,2.3c0.43323,0.79752 1.11734,1.36667 1.50534,2.07866l0.72598,0.474" id="svg_4" stroke-width="2" stroke="#000" fill="none"/>
  <path t="6595,6724,6724,6724,6740,6740,6740,6770,6778,6778,6800,6814,6831,6853,6869" d="m296,239c1,1 1.78812,1.10608 2.5,1.5c0.88596,0.49025 1.79999,0.5 2.70001,0.5c0.89999,0 1.80045,0.02708 2.59998,0c0.8443,-0.02859 1.36667,-0.83333 2.07867,-1.22133l0.474,-0.726l0.64734,-0.55267" id="svg_5" stroke-width="2" stroke="#000" fill="none"/>
  <path t="8561,8814,8829,8829,8847,8855,8855,8863,8863,8871,8879,8879,8885,8893,8893,8901,8901,8907,8907,8915,8915,8923,8923,8931,8931,8937,8937,8945,8945,8945,8953,8961,8961,8967,8967,8975,8975,8983,8991,8991,8997,8997,9005,9005,9005,9013,9013,9021,9021,9029,9029,9029,9035,9035,9043,9043,9051,9051,9051,9057,9057,9057,9065,9073,9073,9081,9081,9081,9087,9095,9095,9103,9103,9111,9111,9117,9117,9125,9125,9133,9133,9141,9141,9147,9147,9155,9155,9163,9171,9171,9177,9177,9185,9185,9193,9201,9201,9201,9207,9207,9215,9215,9223,9223,9223,9231,9231,9231,9237,9237,9237,9245,9245,9253,9253,9253,9261,9261,9261,9267,9267,9267,9267,9275,9275,9275,9283,9283,9283,9291,9291,9291,9299,9299,9299,9299,9305,9305,9305,9313,9313,9313,9313,9321,9321,9321,9327,9327,9327,9327,9335,9335,9335,9335,9343,9343,9343,9351,9351,9351,9357,9357,9357,9360,9360,9361,9366,9366,9366,9373,9373,9373,9373,9381,9382,9393,9393,9393,9395,9403,9403,9405,9405,9405,9405,9417,9417,9425,9425,9425,9433,9433,9433,9433,9441,9441,9441,9449,9449,9449,9455,9455,9455,9463,9463,9463,9471,9471,9471,9471,9477,9477,9477,9485,9485,9485,9493,9493,9493,9501,9501,9507,9507,9507,9515,9515,9515,9523,9531,9531,9537,9537,9545,9553,9553,9561,9561,9567,9567,9575,9583,9591,9591,9598,9598,9598,9614,9616,9635,9696,9730,9730,9745,9777,9801,9801,9823,9837,9837,9845,9853,9861,9861,9867,9875,9883,9891,9897,9905,9913,9921,9943,10027,10576,10592,10592,10617,10625,10625,10633,10633,10641,10641,10647,10647,10647,10655,10655,10655,10663,10663,10663,10671,10671,10671,10671,10677,10677,10677,10685,10685,10685,10685,10693,10693,10693,10693,10701,10701,10701,10701,10707,10707,10707,10707,10715,10715,10715,10715,10723,10723,10723,10731,10731,10731,10732,10737,10737,10737,10746,10746,10746,10753,10753,10754,10754,10762,10762,10762,10767,10767,10775,10775,10797,10797,10862,10878,10910,11102,11118,11118,11118,11135,11135,11143,11143,11151,11151,11159,11159,11165,11165,11173,11181,11181,11187,11195,11195,11195,11203,11203,11212,11212,11212,11217,11217,11217,11225,11225,11233,11233,11241,11241,11241,11247,11247,11247,11255,11256,11256,11263,11263,11271,11271,11285,11285,11323,11353,11361,11367,11367,11383,11391,11397,11525,11555,11563,11571,11577,11585,11601,11607,11607,11615,11615,11623,11631,11631,11637,11637,11637,11645,11645,11653,11653,11662,11662,11662,11667,11667,11675,11683,11683,11691,11697,11697,11705,11705,11713,11713,11721,11721,11727,11727,11727,11735,11735,11735,11743,11743,11751,11751,11751,11757,11757,11765,11765,11773,11781,11781,11787,11787,11795,11795,11803,11803,11812,11819,11819,11825,11825,11833,11833,11841,11841,11847,11847,11855,11855,11863,11863,11871,11871,11877,11877,11877,11885,11885,11885,11893,11893,11893,11901,11901,11901,11907,11907,11907,11915,11915,11915,11923,11923,11923,11931,11931,11931,11937,11937,11937,11946,11946,11946,11953,11953,11954,11962,11962,11967,11967,11975,11975,11975,11983,11983,11991,11991,11997,11997,12005,12006,12006,12013,12021,12021,12022,12027,12027,12035,12035,12043,12043,12051,12051,12057,12057,12065,12065,12065,12073,12081,12081,12087,12087,12095,12095,12103,12112,12117,12125,12125,12133,12141,12141,12147,12155,12155,12163,12171,12171,12177,12185,12193,12201,12207,12207,12215,12223,12231,12231,12237,12245,12245,12254,12262,12262,12267,12268,12275,12283,12283,12297,12305,12313,12321,12321,12327,12327,12335,12343,12351,12357,12357,12365,12381,12411,12425,12441,12441,12447,12455,12471,12485,12547,12562,12562,12562,12591" d="m284,283c0.05716,1.70001 0.68625,2.42236 0.94284,3.29999c0.25345,0.86685 -0.00449,1.87051 0.078,2.70001c0.08371,0.84186 0.5907,1.57214 0.95383,2.39999c0.34506,0.78662 0.84711,1.46365 0.98932,2.42535c0.14755,0.99777 0.02917,1.81351 0.32001,2.65997c0.25391,0.73901 0.63657,1.71024 0.69516,2.49384c0.07455,0.99695 -0.00873,1.77414 0.02533,2.67801c0.0282,0.74866 0.30103,1.73532 0.57019,2.54285c0.33051,0.99152 0.40814,1.79993 0.42532,2.79999c0.01358,0.78931 0.06888,1.52176 0.5,2.5c0.36472,0.82755 0.44409,1.67633 0.50134,2.616c0.04697,0.77115 0.4025,1.51688 0.71466,2.39999c0.29785,0.84268 0.284,1.80551 0.284,2.69467c0,0.98935 -0.00668,1.78937 0,2.78934c0.00534,0.80005 0.04358,1.61154 0.284,2.39999c0.24826,0.81418 0.63635,1.79587 0.69516,2.60001c0.07294,0.99756 0.02084,1.79999 0.02084,2.60001c0,1 0.02011,1.80023 -0.00134,2.80133c-0.01788,0.83517 -0.15298,1.76834 -0.35132,2.55133c-0.20908,0.82538 -0.51495,1.87619 -0.59018,2.58566c-0.10297,0.97116 0.00726,1.85623 -0.2785,2.78317c-0.2218,0.71939 -0.62289,1.67664 -0.75333,2.46783c-0.11932,0.72375 -0.63577,1.66827 -0.90399,2.53198c-0.25677,0.8269 -0.40247,1.79745 -0.82584,2.43134c-0.49066,0.73462 -0.85522,1.44849 -1.39551,2.22601c-0.46643,0.67126 -1.0892,1.51172 -1.5,2.19598c-0.4873,0.81177 -1.03699,1.42599 -1.60001,2.30936c-0.42896,0.67303 -0.87247,1.5181 -1.39999,2.10532c-0.6666,0.74207 -1.24734,1.16754 -1.89999,1.93152c-0.64978,0.76062 -0.95157,1.51019 -1.5,2.3125c-0.46091,0.67426 -1.09775,1.26895 -1.70001,1.86667c-0.70801,0.70267 -1.46252,1.30685 -2.12534,1.69998c-0.68646,0.40714 -1.43481,0.89078 -2.05865,1.48535c-0.61423,0.58542 -1.29581,1.32816 -2.116,1.948c-0.57956,0.43796 -1.40323,0.85583 -2.20001,1.26682c-0.80328,0.41434 -1.42075,0.75842 -2.19998,1.38385c-0.61716,0.49536 -1.17529,1.06705 -2.20001,1.76334c-0.58655,0.39856 -1.40863,0.90884 -2,1.40533c-0.60907,0.51135 -1.38422,1.20508 -2.21066,1.72198c-0.63492,0.39709 -1.612,0.94449 -2.142,1.27802c-0.8241,0.51862 -1.3548,0.87781 -2.36333,1.46332c-0.67839,0.39383 -1.37473,0.75696 -2.36801,1.36801c-0.54507,0.33533 -1.35652,0.87451 -2.14932,1.34933c-0.70807,0.42407 -1.62474,0.91013 -2.33334,1.33331c-0.79671,0.4758 -1.34041,0.85754 -2.23466,1.34933c-0.88554,0.487 -1.79541,0.84232 -2.36267,1.10934c-1.0844,0.51047 -1.78191,1.02921 -2.23599,1.37466c-0.68188,0.51877 -1.67538,1.13837 -2.52083,1.47916c-0.57735,0.23273 -1.78174,0.61362 -2.37917,0.82535c-0.90402,0.32037 -1.51335,0.55429 -2.40001,1.01682c-0.91457,0.47708 -1.49086,0.86993 -2.09999,1.19467c-1.18182,0.63004 -1.77686,0.8779 -2.64284,1.12234c-1.02336,0.28888 -1.96088,0.33557 -2.64117,0.44568c-1.00696,0.16296 -1.82303,0.41711 -2.63199,0.71732c-1.00534,0.37308 -1.54886,0.87326 -2.56967,1.14151c-0.93625,0.246 -1.61774,-0.02533 -2.61433,0.05716c-1.01035,0.08362 -1.776,0.42532 -2.442,0.64734c-1.026,0.34201 -1.90866,0.35266 -2.815,0.35266c-0.907,0 -1.743,0 -2.39099,0c-1.108,0 -1.92351,0 -2.68401,0c-1.168,0 -2.0545,0 -2.86,0c-0.9435,0 -1.75116,0 -2.56534,0c-0.90933,0 -1.69983,0 -2.55333,0c-1.18933,0 -2.08932,0 -2.68933,0c-0.89999,0 -2.09866,0 -2.68933,0c-0.8535,0 -1.88934,0 -2.81067,0c-0.68401,0 -1.68608,0.01944 -2.52083,-0.02084c-0.88184,-0.04254 -1.78114,-0.19199 -2.67917,-0.40448c-0.90207,-0.21347 -1.79793,-0.42584 -2.7,-0.522c-0.89828,-0.09576 -1.50838,-0.09174 -2.69867,-0.33667c-0.88802,-0.18274 -1.43492,-0.40952 -2.48001,-0.59467c-0.91504,-0.16211 -1.61194,-0.17474 -2.60533,-0.40533c-0.82224,-0.19086 -1.62497,-0.47101 -2.63199,-0.63199c-0.9044,-0.14459 -1.8537,-0.23834 -2.63667,-0.43668c-0.82539,-0.20908 -1.87906,-0.49106 -2.58566,-0.59467c-0.79837,-0.11707 -1.7874,-0.5918 -2.62834,-0.88602c-0.80215,-0.28064 -1.72404,-0.24759 -2.42267,-0.77731c-0.67551,-0.51221 -1.41588,-1.20538 -2.16783,-1.44202c-0.90224,-0.28391 -1.62852,-0.59692 -2.3575,-1.14734c-0.7261,-0.54825 -1.38065,-1.13953 -1.80133,-2c-0.41743,-0.85385 -0.78737,-1.50113 -1.48399,-2.19998c-0.59904,-0.60098 -1.10246,-1.20166 -1.60451,-1.95267c-0.44392,-0.66403 -0.89763,-1.19156 -1.51633,-1.64734c-0.6886,-0.50726 -1.70775,-0.67236 -2.35783,-1.22134c-0.66431,-0.56097 -1.34084,-1.04214 -1.92134,-1.57999c-0.62173,-0.57605 -1.30112,-1.29755 -1.89999,-1.89868c-0.59662,-0.59888 -1.05273,-1.45053 -1.46667,-2.29999c-0.31784,-0.65225 -0.88998,-1.42514 -1.40799,-2.02533c-0.54265,-0.62872 -0.96294,-1.42712 -1.72084,-1.922c-0.6954,-0.45407 -1.11903,-1.13675 -1.75717,-1.70001c-0.5954,-0.52554 -1.16264,-1.41428 -2.04716,-1.35251c-0.80766,0.0564 -1.26537,0.87112 -2.10016,1.00119c-0.91566,0.14267 -1.53947,0.73016 -2.284,1.19867c-0.67552,0.42508 -1.51823,0.87292 -2.14134,1.43597c-0.72491,0.65506 -1.21066,1.20001 -1.77916,1.76852c-0.7955,0.7955 -1.39551,1.39548 -1.9955,1.99548c-0.8,0.80002 -1.2,1.20001 -1.8,1.80002c-0.8,0.79999 -1.39485,1.41031 -2.036,2c-0.44278,0.40723 -1.44534,1.20554 -2,1.59998c-0.57062,0.40579 -1.76711,1.1954 -2.36266,1.60135c-0.59381,0.40475 -1.2151,0.7804 -2.23467,1.76532c-0.50887,0.49158 -0.93051,1.06775 -1.392,1.608c-0.92012,1.07718 -1.45111,1.54926 -2,1.98935c-0.54203,0.4346 -1.61366,1.22925 -2.09067,1.63599c-0.69235,0.59036 -1.35557,1.21561 -2.10533,1.80002c-0.79123,0.61673 -1.36111,0.98969 -1.89467,1.39999c-1.01517,0.78067 -1.67737,1.40762 -2.13667,1.79999c-0.95514,0.81595 -1.49419,1.20392 -2.04733,1.57916c-0.80771,0.54794 -1.816,1.13684 -2.5,1.52084c-0.684,0.384 -1.6882,0.97891 -2.22533,1.336c-0.55374,0.3681 -1.61066,1.1608 -2.09067,1.56268c-0.68785,0.5759 -1.33852,1.16803 -2.36666,1.71597c-0.51851,0.27634 -1.35031,0.50073 -2.34801,1.08536c-0.75453,0.44214 -1.45969,0.98923 -2.144,1.39999c-0.81157,0.48715 -1.63956,0.84357 -2.38934,1.42532c-0.62495,0.48489 -0.90318,1.55591 -1.65733,1.853c-0.70745,0.27869 -0.77866,-1.19965 -0.77866,-1.87833c0,-0.97867 -0.04094,-1.88535 0.01067,-2.836c0.04168,-0.76782 0.3599,-1.75769 0.564,-2.36401c0.33337,-0.99036 0.36333,-1.78085 0.4255,-2.77847c0.05129,-0.823 0.69333,-1.61905 0.9145,-2.50552c0.16816,-0.67401 0.00149,-1.78339 0.252,-2.68265c0.19257,-0.69125 0.60165,-1.42401 0.78067,-2.43784c0.14939,-0.84607 0.26785,-1.81842 0.478,-2.62085c0.21571,-0.82367 0.45639,-1.85272 0.54934,-2.53867c0.11304,-0.83417 0.40675,-1.82599 0.67266,-2.63599c0.25976,-0.79126 0.27544,-1.616 0.51933,-2.60001c0.20551,-0.82916 0.55889,-1.44879 0.93317,-2.42133c0.30692,-0.79752 0.59011,-1.61636 0.77884,-2.65717c0.16215,-0.89423 0.12286,-1.54654 0.4785,-2.517c0.28356,-0.7738 1.0426,-1.59433 1.3575,-2.28851c0.40344,-0.88937 0.32783,-1.651 0.78533,-2.59515c0.40671,-0.83932 0.44563,-1.7225 0.50017,-2.62085c0.04272,-0.70386 0.74452,-1.43774 0.96383,-2.29999c0.22096,-0.86877 0.75268,-1.47717 1.02534,-2.21066c0.30282,-0.81461 0.80328,-1.38324 1.00616,-2.09384c0.25816,-0.90421 0.73396,-1.51166 1.17117,-2.2955c0.36359,-0.65189 1.23807,-1.23956 1.548,-1.88535c0.422,-0.87927 0.41081,-1.97156 0.80617,-2.61465c0.52641,-0.85626 0.98132,-1.51974 1.27917,-2.10132c0.50818,-0.99228 0.89938,-1.79791 1.52133,-2.37735c0.62615,-0.58337 1.54981,-1.15924 2.04266,-1.84668c0.36028,-0.50253 0.92175,-1.43063 1.436,-1.97333c0.68156,-0.71924 1.39999,-1.40134 1.89999,-1.90134c0.7,-0.69998 1.4373,-1.36761 1.9,-1.93597c0.65585,-0.8056 0.93604,-1.58218 1.50017,-2.3425c0.48417,-0.65256 1.24404,-1.08685 1.89983,-1.54236c0.86589,-0.60147 1.36146,-1.32416 1.75267,-1.88367c0.70782,-1.01233 1.26764,-1.57861 1.76333,-2.1955c0.62637,-0.77951 0.93655,-1.43332 1.65067,-2.39999c0.45671,-0.61823 1.00532,-1.16666 1.66667,-1.83334c0.64323,-0.64841 1.26665,-1.26666 1.86666,-1.86667c0.7,-0.69998 1.2635,-1.34122 1.936,-1.89999c0.6525,-0.54214 1.39836,-0.84674 2.19733,-1.39999c0.7935,-0.54947 1.36668,-1.20001 1.96667,-1.79999c0.60001,-0.60001 1.2605,-1.34659 1.95717,-1.90002c0.69075,-0.54877 1.44398,-0.85974 2.2215,-1.39999c0.67128,-0.46643 1.51169,-1.0892 2.196,-1.5c0.81175,-0.4873 1.42879,-1.03195 2.14667,-1.5c0.6599,-0.43024 1.64861,-1.01151 2.304,-1.5c0.68723,-0.51221 1.39487,-0.90121 2.37466,-1.39999c0.59962,-0.30524 1.42453,-0.72388 2.2,-1.32132c0.62076,-0.47824 1.17224,-1.06287 2,-1.65735c0.77559,-0.55701 1.42599,-0.87222 2.2,-1.50665c0.62199,-0.50983 1.20033,-1.11566 2,-1.91467c0.60025,-0.59976 0.99998,-1 1.8,-1.80002c0.59999,-0.59998 1.19652,-1.20349 2,-1.99982c0.59743,-0.59213 1.17274,-1.17889 2,-1.77884c0.58197,-0.42206 1.23643,-0.72668 2.2,-1.50665c0.62511,-0.50601 0.99767,-0.92154 1.8,-1.71451c0.59827,-0.59128 1.17458,-1.17636 1.99983,-1.77884c0.75729,-0.55286 1.36732,-0.85852 2.0475,-1.67401c0.55022,-0.65967 1.21898,-1.49164 1.7735,-1.82648c0.9494,-0.5733 1.78296,-0.8956 2.32201,-1.22086c0.93146,-0.56207 1.54149,-1.185 2.14116,-1.784c0.51628,-0.51572 1.32378,-1.37674 1.89067,-1.88c0.75961,-0.67435 1.46828,-1.00702 2.14134,-1.43597c0.88336,-0.56299 1.64653,-1.20688 2.30933,-1.60001c0.68648,-0.40717 1.39821,-0.93185 2.05867,-1.39999c0.91072,-0.64551 1.66789,-0.9516 2.36333,-1.50452c0.67458,-0.53635 1.23668,-1.17947 1.92734,-1.87015c0.65868,-0.65869 1.16013,-1.24249 1.992,-1.82535c0.6311,-0.4422 1.39484,-0.74036 2.19733,-1.39999c0.78477,-0.64508 1.24564,-1.23914 2.12,-1.80002c0.6718,-0.43094 1.6006,-0.79922 2.06934,-1.39999c0.6066,-0.77747 1.04086,-1.27588 1.84666,-1.836c0.67616,-0.47 1.15727,-1.20984 1.90001,-1.8595c0.66444,-0.58118 1.55025,-0.71677 2.2,-1.22534c0.76804,-0.60114 1.29996,-1.27917 1.89999,-1.87915c0.69997,-0.69989 1.30038,-1.24197 2.10001,-1.60001c0.79588,-0.35635 1.10806,-1.30542 1.78534,-1.91599c0.64622,-0.58258 1.36081,-0.84828 2.11465,-1.47334c0.65749,-0.54515 1.6319,-0.73721 2.20001,-1.22134c0.74535,-0.63516 1.43596,-1.12823 2.2,-1.47333c0.76814,-0.34694 1.49945,-1.05794 2.2,-1.39517c0.95232,-0.45844 1.75797,-0.47971 2.5,-1.04166c0.77678,-0.58827 1.31535,-1.15688 2.10001,-1.5045c0.81776,-0.36229 1.60059,-0.88333 2.50017,-0.97484c0.78571,-0.07991 1.70753,-0.47122 2.41583,-0.71584c0.94377,-0.32594 1.92853,-0.18854 2.68399,-0.56799c0.8672,-0.43558 1.52687,-0.53003 2.40001,-0.752c0.86227,-0.21921 1.59697,-0.9213 2.5,-0.964c0.89899,-0.04253 1.73444,0.19595 2.59999,-0.05716c0.87764,-0.25664 1.59865,-0.91434 2.5,-0.94284c0.8994,-0.02844 1.67867,0.2215 2.02133,1.10001l0.42601,0.59999l0.37799,0.90001" id="svg_6" stroke-width="2" stroke="#000" fill="none"/>
  <path t="13862,14021,14036,14036,14036,14036,14053,14053,14061,14061,14067,14067,14067,14075,14075,14083,14083,14083,14091,14091,14091,14097,14097,14097,14105,14105,14105,14105,14113,14113,14113,14121,14121,14121,14127,14127,14127,14127,14135,14135,14135,14135,14143,14143,14143,14143,14151,14151,14151,14151,14157,14157,14157,14165,14165,14173,14277,14277,14329,14345,14345,14345,14375,14391,14391,14397,14405,14405,14413,14421,14421,14427,14427,14435,14435,14435,14443,14443,14443,14451,14451,14451,14457,14457,14457,14457,14465,14465,14465,14465,14473,14473,14481,14481,14481,14487,14487,14495,14495" d="m95,350c-1.2215,0.87866 -2.16669,1.15573 -2.7,1.76166c-0.58042,0.65948 -0.85973,1.43948 -1.4,2.21701c-0.46644,0.67126 -1.11272,1.49979 -1.5,2.23199c-0.41373,0.78223 -0.8,1.58932 -1.1,2.18933c-0.49999,1 -0.90211,1.79895 -1.3,2.60001c-0.40215,0.8096 -0.71201,1.45224 -1.10017,2.42133c-0.32047,0.80008 -0.46666,1.39093 -1.0665,2.41202c-0.43748,0.74472 -1.06195,1.35648 -1.66667,2.33331c-0.30997,0.5007 -0.64191,1.3349 -0.96533,2.14935c-0.39786,1.00192 -0.70511,1.69336 -1.08666,2.36798c-0.57468,1.01608 -0.94833,1.55353 -1.32534,2.12668c-0.78446,1.19254 -1.19369,1.78568 -1.57866,2.38934c-0.38033,0.59641 -1.05515,1.79486 -1.32667,2.39999c-0.40057,0.89273 -0.60638,1.51456 -1.05067,2.39999c-0.45969,0.91611 -0.84949,1.50302 -1.23784,2.10001c-0.58845,0.9046 -1.19823,1.79541 -1.57466,2.39999c-0.37085,0.59561 -1.00761,1.79602 -1.26367,2.39099c-0.35813,0.83209 -0.75345,1.77786 -1.1465,2.43701c-0.52174,0.87497 -1.32133,1.53833 -1.24133,2.38666c0.0742,0.78677 0.73369,1.52399 1.432,2c0.74931,0.51077 1.35297,1.2016 2.19867,1.28534c0.79611,0.07883 1.65148,0.01184 2.484,-0.284c0.88261,-0.31363 1.83553,-0.4895 2.616,-0.93768c0.69999,-0.40198 1.08262,-1.27518 1.536,-1.98898c0.50996,-0.80286 1.02486,-1.38229 1.53867,-1.98935c0.66948,-0.79095 1.2143,-1.59845 1.52084,-2.25714c0.44125,-0.94818 0.70201,-1.78418 0.9405,-2.35352c0.50317,-1.20123 0.84549,-1.79077 1.18933,-2.38934c0.51823,-0.90216 1.02787,-1.79117 1.4175,-2.6955c0.24915,-0.57828 0.53471,-1.42789 0.95716,-2.41916c0.28584,-0.67072 0.8,-1.68533 1.10001,-2.28534c0.39999,-0.79999 0.79983,-1.59982 1.17916,-2.37915l0.39951,-0.99918l0.20533,-0.73502" id="svg_7" stroke-width="2" stroke="#000" fill="none"/>
  <path t="14893,14953,14961,14961,14967,14967,14975,14975,14975,14975,14983,14983,14983,14991,14991,14991,14991,14991,14997,14997,14997,14997,14997,15005,15005,15005,15005,15005,15005,15013,15013,15013,15013,15013,15013,15021,15021,15021,15021,15021,15027,15027,15027,15027,15035,15035,15035,15043,15043,15087,15095" d="m111,346c0.64733,-0.04816 0.11337,0.57599 -0.05267,1.409c-0.19904,0.9986 -0.43085,1.62979 -1.114,2.591c-0.44933,0.63223 -1.03317,1.21793 -1.34933,1.68533c-0.65405,0.96692 -0.98283,1.85681 -1.23667,2.47632c-0.4121,1.00577 -0.72762,1.72607 -1.08333,2.47433c-0.36945,0.77719 -0.76572,1.56516 -1.364,2.76419c-0.20013,0.40109 -0.60461,1.20825 -1,2.03583c-0.40472,0.84711 -0.80244,1.72958 -1.20134,2.64932c-0.20441,0.47128 -0.61658,1.4368 -0.83466,1.92535c-0.44341,0.99332 -0.92183,1.99396 -1.448,2.98798c-0.26425,0.49921 -0.53919,0.99188 -1.09067,1.96533c-0.27161,0.47946 -1.06137,1.86789 -1.30367,2.31433c-0.46521,0.85721 -0.89127,1.67465 -1.26,2.46002c-0.5107,1.08777 -0.78438,1.77332 -1.02567,2.42566c-0.34299,0.92731 -0.62739,1.83896 -0.936,2.72699c-0.29188,0.83987 -0.7,1.77567 -1.08933,2.43701l-0.489,0.77182l0.16233,0.81616" id="svg_8" stroke-width="2" stroke="#000" fill="none"/>
  <path t="15410,15462,15462,15462,15462,15462,15462,15462,15478,15478,15478,15493,15493,15493,15501,15501,15501,15501,15507,15507,15507,15507,15515,15515,15523,15523,15523,15531,15531,15537,15545,15545" d="m117,351c-0.436,1.836 -0.81467,2.59482 -1.19867,3.39999c-0.37859,0.79382 -0.68864,1.79895 -0.80133,2.62085c-0.09098,0.66357 -0.27277,1.66812 -0.52084,2.5c-0.17485,0.58633 -0.57916,1.77914 -0.77917,2.37915c-0.3,0.89999 -0.69479,2.10178 -0.90133,2.70001c-0.31167,0.90274 -0.52621,1.51407 -0.96533,2.39999c-0.45154,0.91098 -0.86143,1.4545 -1.264,2.31467c-0.45708,0.97662 -0.50214,1.69373 -0.736,2.85199c-0.1592,0.78848 -0.38238,1.60034 -0.83334,2.5c-0.3439,0.68607 -0.87867,1.43335 -1.16666,2.33334l-0.408,0.60001" id="svg_9" stroke-width="2" stroke="#000" fill="none"/>
  <path t="15733,15763,15769,15769,15777,15777,15785,15785,15793,15793,15793,15801,15801,15807,15807,15815,15815,15815,15823,15823,15831,15837,15837" d="m124,350c0,1.82535 0.09273,2.84305 -0.036,3.62534c-0.14532,0.88315 -0.61244,1.56561 -0.84267,2.57468c-0.17999,0.78888 -0.27373,1.80475 -0.54666,2.59998c-0.27631,0.80508 -0.49134,1.80466 -0.62733,2.60001c-0.1378,0.80591 -0.52161,1.57825 -0.78067,2.60001c-0.19965,0.78748 -0.19539,1.61661 -0.51933,2.59549c-0.25239,0.76266 -0.59467,1.64734 -0.86867,2.50452l-0.49467,0.69998" id="svg_10" stroke-width="2" stroke="#000" fill="none"/>
  <path t="16843,16887,16895,16903,16903,16911,16911,16911,16917,16917,16925,16925,16925,16933,16933,16933,16933,16941,16941,16941,16947,16947,16947,16955,16955,16955,16963,16963,16963,16963,16969,16969,16969,16977,16977,16985,16985,16985,16993,16993,17001,17001,17001,17007,17007,17015,17015,17023,17023,17037,17045,17096,17456,17472,17487,17487,17495,17500,17511,17511,17517,17524,17533,17533,17540,17540,17547,17547,17554,17563,17563,17569,17569,17576,17583,17585,17599,17602,17773" d="m166,381c1.7,0.05716 2.50516,0.51556 3.20134,1.20132c0.56001,0.55164 1.27373,1.29355 1.81949,1.79868c0.57001,0.52756 1.38635,1.10489 2.17917,1.62534c0.80748,0.53009 1.38542,1.05133 2.036,1.54932c0.9054,0.69305 1.44801,0.94135 2.26401,1.32535c0.81599,0.384 1.58614,0.81116 2.27467,1.32535c0.68558,0.51196 1.63864,1.16992 2.17799,1.41748c0.81073,0.3721 1.88876,0.73883 2.59467,1.06168c0.68633,0.31387 1.62218,0.85757 2.40533,1.34818c0.54935,0.34412 1.35826,0.87183 2.362,1.46332c0.66121,0.38965 1.30962,0.73529 2.084,1.36801c0.60144,0.49142 1.43466,1.34933 1.976,1.89066c0.50934,0.50934 1.29504,1.26691 1.8,1.836c0.68233,0.76898 1.05569,1.39252 1.52083,2.13217c0.49147,0.78152 1.03432,1.39066 1.60451,2.30984c0.42253,0.68115 0.88173,1.47821 1.39999,2.04282c0.66652,0.7261 0.93417,1.76959 1.65266,2.24734c0.35779,0.23792 -0.45393,0.00937 -1.35266,0.05716c-0.80341,0.04272 -1.5717,0.63831 -2.38933,0.96399c-0.80922,0.32233 -1.43826,0.68887 -2.31067,1.08868c-0.72552,0.33249 -1.44656,1.00781 -2,1.7045c-0.54875,0.69077 -0.84489,1.4545 -1.40001,2.22131c-0.54825,0.75729 -1.22128,1.30084 -1.89999,2.02151c-0.58279,0.6188 -0.74719,1.53027 -1.05267,2.29016c-0.31071,0.77289 -1.24283,1.0625 -1.93666,1.73517l-0.01067,0.776l0,0.91333l-0.63066,0.20001" id="svg_11" stroke-width="2" stroke="#000" fill="none"/>
  <path t="18047,18142,18142,18158,18158,18158,18158,18177,18177,18177,18185,18185,18185,18193,18193,18199,18199,18207,18207,18215,18275,18289" d="m196,408c0.28267,0.80133 0.03899,1.63681 -0.0045,2.65717c-0.03191,0.7485 -0.29579,1.73874 -0.4955,2.36368c-0.36322,1.13669 -0.46193,1.93097 -0.48933,2.75381c-0.03523,1.05817 -0.01067,1.76819 -0.01067,2.62085c0,1.00449 0,1.8045 0,2.80432c0,0.77933 0,1.77866 0,2.59885l0,0.80133l0,0.98566l0.00017,-0.68549" id="svg_12" stroke-width="2" stroke="#000" fill="none"/>
  <path t="18486,18561,18563,18563,18563,18563,18583,18583,18583,18591,18591,18591,18597,18597,18597,18605,18605,18605,18613,18613,18613,18621,18621,18627,18627,18635,18665" d="m200,408c0.64734,-0.23383 0.91397,0.66263 1.05267,1.40451c0.18787,1.00491 0.55714,1.79593 1.04733,2.79565c0.29947,0.61075 0.61748,1.24991 1,2.22116c0.31447,0.79846 0.58099,1.63358 1,2.65735c0.28706,0.70142 0.61676,1.36725 1,2.34265c0.31381,0.79871 0.5782,1.63474 1,2.65717c0.28537,0.69174 0.60802,1.31308 1.09866,2.32019c0.37141,0.76239 0.67999,1.5798 0.88533,2.39999l0.49066,0.80133l0.40451,0.85834" id="svg_13" stroke-width="2" stroke="#000" fill="none"/>
  <path t="19024,19062,19069,19069,19077,19077,19077,19085,19085,19085,19092,19092,19092,19093,19099,19099,19099,19107,19107,19107,19107,19115,19115,19115,19123,19123,19123,19123,19128,19129,19129,19137,19137,19137,19144,19145,19153,19153,19158,19158,19166,19166,19174,19196,19196,19395,19410,19410,19429,19445,19453,19453,19459,19459,19467,19467,19475,19475,19475,19483,19489,19489,19497,19497,19497,19505,19513,19513,19521,19535,19565,19573,19579,19587,19587,19595,19603,19609,19617,19625,19625,19633,19633,19639,19647,19655,19655" d="m216,380c1.5,1.5 2.20134,2.20132 2.75717,2.75717c0.72815,0.72815 1.26343,1.26392 1.84416,1.84415c0.79968,0.79901 1.19293,1.21683 1.85583,1.79868c0.9416,0.82648 1.49608,1.19922 2.04283,1.60001c0.81688,0.59882 1.58304,1.19498 2.27467,1.79999c0.45355,0.39673 1.38721,1.2063 1.90933,1.60001c0.80869,0.6098 1.38231,0.9761 2.39465,1.80002c0.47789,0.38895 1.12781,1.02274 2.08801,1.79999c0.50766,0.41092 1.04918,0.80368 1.88066,1.34283c0.77737,0.50406 1.51651,0.87064 2.34816,1.40982c0.82655,0.53586 1.40054,1.06567 1.94734,1.59467c0.7829,0.75742 1.39903,1.36417 2.14116,1.854c0.68108,0.44955 1.521,1.10123 1.99518,1.79868c0.55252,0.81268 0.96889,1.5499 1.72083,1.91599c0.85452,0.41602 2.30371,0.09714 2.42934,1.08267c0.09351,0.73358 -1.04523,1.08389 -1.68201,1.64868c-0.70145,0.62216 -1.11069,1.35498 -1.558,1.98865c-0.48558,0.68787 -0.95865,1.33191 -1.26799,2.34283c-0.24844,0.81189 -0.40533,1.78918 -0.62134,2.52118c-0.216,0.73199 -0.47189,1.83835 -0.5,2.66666c-0.02898,0.85394 -0.14137,1.8421 -0.42534,2.62268c-0.26714,0.73434 -0.56424,1.71048 -0.57466,2.53198c-0.01082,0.85327 0,1.79333 0,2.77869c0,0.89999 -0.07423,1.3876 0.35266,0.60001c0.40465,-0.74655 0.45071,-1.53455 0.7045,-2.40002c0.25729,-0.87744 0.80734,-1.60852 0.94417,-2.5c0.14058,-0.91592 0.75676,-1.52795 0.94151,-2.45267c0.13649,-0.68314 0.05716,-1.71133 0.06166,-2.64731l0.21683,-0.80002l0.49467,-0.69998" id="svg_14" stroke-width="2" stroke="#000" fill="none"/>
  <path t="19745,19789,19797,19805,19805,19813,19819,19819,19827,19827,19827,19835,19843,19843,19851,19851,19857,19857,19873,19881,19909,19917,19925" d="m245,409c0,1.70001 0,2.63599 0,3.48401c0,0.86331 -0.06445,1.91055 0.22133,2.83749c0.2218,0.71939 0.6581,1.67224 0.74268,2.46783c0.07677,0.72211 -0.00542,1.72839 0.25732,2.53198c0.28702,0.87787 0.64662,1.80679 0.86267,2.56268c0.22418,0.78436 0.60524,1.47357 1.2115,2.35883c0.52478,0.76627 0.87117,1.59052 1.61917,1.47183l0.08533,-0.91467" id="svg_15" stroke-width="2" stroke="#000" fill="none"/>
  <path t="20045,20089,20097,20105,20113,20113,20113,20119,20119,20127,20127,20127,20135,20135,20135,20143,20143,20143,20149,20149,20157,20157,20157,20165,20165,20165,20173,20173,20179,20179,20187,20195,20217,20233" d="m248,407c0.716,-0.19733 0.93268,0.78271 1.44667,1.39999c0.59973,0.72021 1.43311,0.93985 2.06934,1.48535c0.80486,0.69006 1.17413,1.52191 1.58417,2.31467c0.41524,0.8028 0.75166,1.42624 1.38516,2.19998c0.50948,0.62225 1.12198,1.19409 1.91335,2c0.58493,0.59567 1.14651,1.17795 1.71732,2c0.40631,0.58514 1.04019,1.60864 1.53668,2.20001c0.51135,0.60907 1.19803,1.38843 1.59015,1.99548c0.47406,0.73395 0.98154,1.50211 1.45718,2.15717c0.63333,0.87225 1,1.53751 1.68933,2.186l0.61066,0.56134l0.64734,0.43832l0.35132,-0.73965" id="svg_16" stroke-width="2" stroke="#000" fill="none"/>
 </g>
 <g display="none">
  <title>muse_image</title>
  <image xlink:href="http://farm4.static.flickr.com/3368/3306199485_79a90b024f.jpg" id="muse" height="480" width="640" y="0" x="0"/>
 </g>
 <g display="none">
  <title>bbox</title>
  <rect stroke="#f00" fill="none" stroke-width="3" height="179.2" width="227.84" y="175.36" x="143.36" id="bbox"/>
 </g>
</svg>
