<svg width="640" height="480" xmlns="http://www.w3.org/2000/svg" xmlns:svg="http://www.w3.org/2000/svg" xmlns:xlink="http://www.w3.org/1999/xlink">
 <!-- Sketchy ANNOTATION
  ImageNet ID: n01530575_1534
  URL: http://farm3.static.flickr.com/2243/1561396266_ce111103bb.jpg
  Image Width: 500
  Image Height: 403
  BBox X: 50
  BBox Y: 70
  BBox Width: 383
  BBox Height: 248
  Exposure: 2000ms
  Synset Label: songbird
  Synset ID: n01526521
  Worker Tag: multicolored songbird facing right
  Sanity Check: 
   Saved
  Comment: 
   {}
  Worker ID: A2HM35CWB7IIFM
  Assignment ID: 3PWWM24LHSYUQK252NKS11BJPCU82G
  HIT ID: 3SA4EMRVJV26DI0EJFDNFFI9DFZ0P1
  Work Time: 151s
  Worker Score: 0.7857
 END ANNOTATION -->
 <g display="inline">
  <title>Layer 1</title>
  <path t="0,197,197,217,218,221,222,235,235,247,247,256,257,269,269,282,282,298,298,306,332,347,348,348,355,355,369,369,380,381,381,397,397,397,405,405,405,405,416,416,416,431,431,431,447,448,453,454,466,466,479,496,496,502,503,515,528,529,539,539,551,552,563,580,580,588,600,625,639" d="m281.5,210.89999c1.836,-0.97466 2.62756,-1.00208 3.59549,-1.35716c0.77371,-0.28383 1.45111,-0.964 2.28851,-1.3575c0.72958,-0.34283 1.71793,-0.25409 2.716,-0.28983c0.80121,-0.02869 1.81653,-0.24092 2.37915,-0.51634c1.03748,-0.50786 1.61121,-1.14493 2.50485,-1.39516c0.67334,-0.18855 1.66339,-0.32858 2.31467,-0.88535c0.74136,-0.63379 1.42075,-1.05319 2.36798,-1.36533c0.68524,-0.2258 1.42816,-0.64801 2.23334,-1.032c0.79382,-0.37859 1.80093,-0.67416 2.60001,-0.80135c1.00119,-0.15935 1.8212,-0.40921 2.39999,-0.76166c0.83411,-0.5079 1.40179,-1.08461 2.05716,-1.64284c0.95151,-0.81046 1.48972,-1.19942 2.04285,-1.57466c0.80771,-0.54794 1.83154,-1.11162 2.47916,-1.54167c0.63715,-0.42308 1.41876,-1.24759 1.82083,-1.71916c0.59695,-0.70013 1.41794,-1.35808 2.15836,-1.73917c0.82129,-0.4227 0.90222,-1.39905 1.7515,-1.911c0.56622,-0.34134 1.65417,-0.54584 2.29016,-1.10985c0.63599,-0.564 1.48138,-0.95068 2.34732,-0.9955c0.89435,-0.04628 1.70349,-0.31389 2.40985,-0.65182c0.85449,-0.40881 1.64792,-0.31993 2.64017,-0.354c0.88956,-0.03055 1.59268,-0.73994 2.46399,-0.96266c0.63644,-0.16269 1.728,-0.03601 2.63867,-0.03601l0.89999,0l0.89999,0" id="svg_1" stroke-width="2" stroke="#000" fill="none"/>
  <path t="1369,1536,1549,1549,1563,1563,1563,1579,1579,1579,1579,1585,1585,1585,1585,1585,1585,1586,1597,1597,1597,1597,1597,1597,1597,1613,1614,1614,1614,1614,1623,1623,1623,1623,1634,1634,1647,1647,1647,1663,1663,1672,1673,1684,1684,1684,1696,1696,1696,1696,1696,1713,1713,1713,1713,1713,1713,1720,1721,1721,1721,1733,1733,1733,1745,1746,1746,1763,1763,1770,1770,1782,1782,1796,1796,1812,1812,1812,1819,1819,1820,1830,1830,1830,1846,1846,1857,1857,1857,1867,1868,1870,1880,1881,1896,1896,1896,1906,1906,1917,1917,1930,1930,1945,1955,1955,1966,1966,1979,1979,1995,1995,2004,2004,2004,2004,2016,2016,2017,2029,2029,2029,2045,2046,2046,2053,2053,2053,2065,2065,2080,2090,2090,2102,2102,2102,2114" d="m337.5,186.89999c1.75717,0 2.66345,0.05298 3.40451,-0.05716c1.01279,-0.15053 1.63068,-0.48108 2.36615,-0.74417c1.19418,-0.42719 1.93143,-0.60677 2.75867,-0.79866c0.45016,-0.10443 1.97031,-0.40208 2.535,-0.50017c1.2019,-0.20876 1.83328,-0.30894 2.47733,-0.42067c0.65463,-0.11357 1.32129,-0.20558 3.29169,-0.64583c0.64716,-0.14459 1.28003,-0.31235 1.90048,-0.48601c1.20642,-0.33766 1.78354,-0.52191 2.34735,-0.69466c1.58554,-0.48579 2.07275,-0.64153 3,-0.89101c0.85376,-0.22971 1.64774,-0.43007 2.75217,-0.595c0.67749,-0.10118 1.63037,-0.12331 2.47998,-0.25067c1.01035,-0.15147 1.7088,-0.39238 2.68668,-1.08266c0.62564,-0.44162 1.06747,-1.12585 1.97867,-1.59033c0.7204,-0.36722 1.6868,-0.20613 2.483,-0.30017c0.96719,-0.11423 1.77924,-0.39342 2.69998,-0.59016c0.99951,-0.21358 1.72565,-0.28017 2.49567,-0.31667c0.8248,-0.03909 1.71469,-0.03534 2.67603,-0.03601c1.03333,-0.00072 1.5675,0 2.64581,0c0.53418,0 1.5675,0 2.95633,0c0.793,0 1.50201,0.00008 2.46051,0c0.90384,-0.00008 1.79684,0.03319 2.64685,-0.05716c1.04272,-0.11084 1.7301,-0.35905 2.55582,-0.74417c1.0083,-0.47028 1.52859,-0.88634 2.51868,-1.11333c0.83447,-0.19131 1.888,-0.08534 2.63199,-0.08534c0.91733,0 1.75067,0 2.79352,0c0.71848,0 1.50897,0 2.53583,0c0.92133,0 1.60532,0 2.60532,0c0.81601,0 1.63202,0 2.86334,0c0.67801,0 1.87411,-0.00784 2.40533,0.0045c0.82239,0.0191 1.89856,0.1067 2.81134,0.4315c0.64651,0.23006 1.67035,0.70781 2.39999,1.2c0.70813,0.47768 1.15131,1.23734 1.72,1.88c0.70105,0.79227 1.31915,1.03148 2.23199,1.68401c0.65857,0.47076 1.41043,0.93578 2.02267,1.39999c0.81836,0.6205 0.97458,1.63541 1.62299,2.04283c0.79852,0.50175 1.82053,0.44627 2.48569,1.0625c0.56949,0.52759 1.4194,1.17134 1.99933,1.34534c1.18622,0.35588 1.72183,0.63884 2.52798,1.17067c0.55273,0.36465 1.54657,1.17142 1.98935,1.57866c0.64114,0.58968 1.41879,1.41837 2.04666,1.98933c0.62964,0.57259 1.34766,1.06017 2.13751,1.45801c0.78256,0.39417 1.76672,0.87245 2.23749,1.40533c0.56873,0.64378 1.14429,1.38042 1.52899,2.146c0.44849,0.89244 0.28534,1.86299 0.28534,2.66299c0,0.9595 0,1.75301 0,2.5285l0,1.03917" id="svg_2" stroke-width="2" stroke="#000" fill="none"/>
  <path t="2856,3025,3039,3039,3051,3051,3051,3051,3051,3062,3062,3063,3079,3079,3087,3087,3087,3098,3099,3112,3135,3135,3161,3161,3173,3173,3185,3185,3198,3198,3213,3213,3213,3222,3222,3222,3234,3234,3234,3234,3246,3246,3246,3246,3246,3246,3264,3264,3264,3264,3272,3272,3272,3283,3283,3283,3296,3296,3296,3312,3312,3312,3320,3320,3321,3333,3333,3346,3346,3346,3363,3363,3363,3371,3371,3381,3382,3382,3382,3396,3396,3396,3396,3412,3412,3412,3412,3412,3419,3420,3420,3420,3420,3431,3431,3431,3431,3446,3447,3447,3456,3456,3456,3468,3468,3468,3480,3481,3481,3481,3495,3495,3495,3495,3505,3505,3505,3517,3517,3517,3529,3529,3545,3545,3545" d="m443.5,203.89999c-0.05716,1.75717 -0.35352,2.67 -0.64667,3.28267c-0.50601,1.05748 -0.83734,1.68533 -1.17868,2.36801c-0.3493,0.69865 -0.69064,1.38133 -1.28931,2.57866c-0.3645,0.729 -0.68399,1.36801 -1.18533,2.37067c-0.30002,0.60001 -0.80002,1.60001 -1.20001,2.39999c-0.29999,0.60001 -0.70395,1.65598 -1.20001,2.28568c-0.59692,0.75771 -1.4133,1.14818 -1.79999,1.73517c-0.62173,0.94386 -1.12711,1.58578 -1.60001,2.30032c-0.42499,0.64215 -1.13077,1.45656 -1.78534,1.84685c-0.80905,0.48241 -1.32574,1.02391 -1.948,1.83199c-0.58765,0.76317 -0.91672,1.4191 -1.7095,1.97884c-0.67435,0.47614 -1.55487,0.76828 -2.2905,1.35451c-0.77673,0.61899 -1.19113,1.22473 -1.73364,1.77567c-0.90521,0.91924 -1.28165,1.21222 -2.09552,1.782c-0.84286,0.59009 -1.28818,0.85361 -2.17084,1.33833c-0.82489,0.453 -1.59595,0.79848 -2.60416,1.24983c-0.59711,0.2673 -1.65558,0.82291 -2.32651,1.34618c-0.64606,0.50386 -1.42715,1.16757 -2.04666,1.54933c-0.63754,0.39287 -1.6123,0.94406 -2.41467,1.45067c-0.55045,0.34753 -1.60983,1.00491 -2.08798,1.29066c-0.84326,0.50392 -1.66174,1.20807 -2.06134,1.69865c-0.50479,0.61974 -1.47964,1.10724 -2.08701,1.29068c-0.97382,0.29411 -1.76633,0.75153 -2.31299,1.08c-1.06393,0.63933 -1.74088,1.11729 -2.62085,1.45299c-0.78464,0.29932 -1.63406,0.30986 -2.77115,0.52834c-0.80283,0.15425 -1.37396,0.35768 -2.32001,0.63467c-1.03372,0.30267 -1.77237,0.49673 -2.53418,0.7195c-0.78561,0.22972 -1.98172,0.6394 -2.77914,0.96184c-0.40134,0.16228 -1.19006,0.52336 -2,0.8075c-1.18677,0.41634 -1.99771,0.54866 -2.78934,0.65916c-0.77377,0.10802 -1.54871,0.14037 -2.58917,0.4935c-1.01389,0.3441 -1.6048,0.75383 -2.22018,1.07449c-1.18872,0.61942 -1.79099,0.84581 -2.64417,1.17818c-1.03604,0.40361 -1.74399,0.67647 -2.35266,1.06166c-1.04929,0.66403 -1.40628,1.08911 -2.06165,1.64734c-0.95169,0.81061 -1.49622,1.20087 -2.06369,1.59549c-0.87476,0.60834 -1.77637,1.20407 -2.37915,1.59552c-0.59729,0.38788 -1.48709,0.9451 -2.39984,1.38315c-0.87781,0.4213 -1.50308,0.57581 -2.53351,1.18802c-0.73615,0.43738 -1.32196,1.00595 -2,1.66666c-0.54291,0.52905 -1.33331,1.16666 -1.992,1.56665l-0.69064,0.40002" id="svg_3" stroke-width="2" stroke="#000" fill="none"/>
  <path t="4270,4405,4405,4418,4419,4430,4430,4430,4441,4441,4441,4441,4454,4454,4454,4454,4454,4464,4465,4465,4465,4465,4465,4480,4480,4480,4480,4480,4480,4480,4480,4480,4490,4490,4490,4490,4491,4491,4491,4501,4501,4501,4502,4502,4514,4514,4514,4514,4528,4528,4528,4539,4539,4551,4551,4551,4562,4563,4563,4580,4580,4581,4588,4588,4588,4588,4588,4600,4600,4600,4600,4601,4601,4601,4601,4612,4612,4612,4613,4613,4613,4613,4613,4613,4629,4630,4630,4630,4630,4630,4630,4630,4630,4639,4639,4639,4639,4640,4640,4640,4652,4652,4653,4653,4653,4653,4664,4664,4664,4665,4679,4679,4679,4679,4679,4687,4687,4688,4688,4688,4688,4688,4688,4698,4699,4699,4699,4699,4699,4699,4699,4699,4712,4712,4712,4713,4713,4713,4713,4713,4732,4732,4732,4733,4733,4733,4736,4736,4736,4736,4736,4747,4747,4748,4748,4748,4762,4762,4762,4772,4772,4773,4784,4785,4785,4785,4785,4797,4797,4797,4797,4812,4812,4812,4812,4813,4813,4823,4823,4823,4823,4823,4833,4834,4834,4834,4846,4846,4846,4846,4847,4847,4862,4862,4863,4863,4871,4872,4872,4872,4872,4883,4883,4883,4896,4896,4912,4913,4913,4913,4921,4921,4921,4922,4932,4932,4932,4933,4945,4946,4946,4946,4979,4979,4979,4979,4979,4987,4988,4988,4988,4988,4989,5000,5000,5000,5000,5012,5012,5018,5019,5031,5031,5046,5056,5068,5068,5092,5241,5255,5269,5269,5280,5280,5281,5290,5290,5291,5302,5302,5302,5313,5314,5330,5331,5331,5331,5340,5340,5341,5350,5350,5351,5351,5363,5363,5364,5364,5364,5364,5379,5379,5380,5380,5380,5380,5380,5381,5388,5389,5389,5389,5389,5390,5390,5390,5390,5400,5400,5401,5401,5401,5401,5402,5402,5402,5413,5413,5413,5413,5414,5414,5414,5414,5415,5429,5430,5430,5430,5430,5431,5431,5438,5439,5439,5439,5449,5449,5449,5462,5463,5479,5635,5654,5655,5665,5666,5672,5683,5683,5697,5697,5713,5713,5721,5721,5721,5722,5732,5732,5733,5733,5733,5733,5746,5746,5746,5747,5747,5762,5762,5763,5763,5763,5769,5770,5770,5781,5782,5806,5806,5881,5943,5956,5957,5971,5972,5987,5998,5998,5999,5999,6000,6004,6005,6005,6006,6006,6006,6007,6007,6017,6018,6018,6018,6018,6019,6019,6019,6019,6029,6029,6029,6030,6030,6030,6031,6031,6031,6046,6046,6047,6047,6047,6048,6048,6048,6048,6053,6053,6053,6054,6054,6054,6055,6055,6055,6064,6065,6065,6079,6080,6114,6138,6163,6164,6179,6179,6189,6190,6200,6200,6213,6213,6214,6214,6230,6231,6231,6232,6237,6238,6238,6299,6299,6300" d="m356.5,267.89999c-1.836,0 -2.60132,0 -3.60449,0c-0.85266,0 -1.81738,-0.01633 -2.6315,0.01068c-0.86926,0.02884 -2.06812,0.19547 -2.673,0.35098c-0.63705,0.16379 -1.66342,0.52032 -2.42435,0.80502c-0.83795,0.31351 -1.72879,0.66739 -2.1875,0.85416c-0.93262,0.37973 -2.31274,0.97861 -2.75848,1.17917c-0.88651,0.3989 -1.80222,0.80438 -2.29001,1c-0.51016,0.20459 -2.26245,0.8053 -2.9375,1c-0.71292,0.2056 -1.46057,0.40167 -2.2305,0.60001c-0.78308,0.20169 -1.57239,0.39841 -2.35651,0.59998c-0.77188,0.19843 -2.24094,0.59521 -2.91998,0.79984c-0.64487,0.19431 -1.83224,0.5874 -2.38202,0.77936c-1.03036,0.35974 -1.50803,0.55194 -2.88248,0.99948c-0.85672,0.27896 -1.27814,0.38626 -2.07501,0.64667c-0.76312,0.24939 -2.17026,0.84192 -2.79999,1.21066c-0.61044,0.35742 -1.17188,0.75067 -2.16135,1.56134c-0.6727,0.55115 -1.24609,1.12427 -2.28534,1.49734c-0.5835,0.20947 -1.61639,0.52557 -2.19998,0.96664c-0.61829,0.46729 -1.61026,1.24118 -2.20001,1.65952c-0.61099,0.43338 -1.3942,1.25467 -1.82132,1.72983c-0.67972,0.75616 -1.49335,1.45096 -2.15335,1.78134c-0.71124,0.35602 -1.55499,0.61771 -2.00583,0.77332c-1.5206,0.52484 -2.08557,0.7337 -2.67551,0.96533c-1.25534,0.49289 -1.90701,0.76978 -2.57599,1.05069c-0.68204,0.28641 -1.37216,0.58096 -2.76801,1.17865c-0.70026,0.29984 -1.40112,0.60052 -2.10449,0.89999c-0.70596,0.30054 -1.41589,0.60107 -2.1315,0.90002c-0.7207,0.30109 -1.44745,0.60464 -2.93066,1.19998c-0.75339,0.3024 -1.51483,0.59964 -2.27701,0.89999c-0.7605,0.29965 -1.51566,0.59756 -2.259,0.90002c-0.73132,0.29758 -1.44992,0.58383 -2.79733,1.19998c-0.63904,0.29221 -1.82965,0.89331 -2.392,1.18933c-0.54663,0.28772 -1.59271,0.8569 -2.104,1.12534c-1.00055,0.52533 -2.00031,1.00229 -2.495,1.22818c-0.96533,0.4408 -1.89734,0.84692 -2.33835,1.05582c-1.2355,0.58521 -1.95886,1.00037 -2.64981,1.38052c-0.66714,0.36707 -1.68039,0.87308 -2.41019,1.13681c-0.77167,0.27887 -1.62881,0.51129 -2.56799,0.76801c-1.04208,0.28485 -1.6066,0.44009 -2.81866,0.76868c-0.64227,0.17413 -1.30658,0.35034 -1.992,0.522c-0.7019,0.17578 -1.418,0.35727 -2.89867,0.65866c-0.75307,0.15329 -1.51672,0.28503 -2.286,0.40948c-0.77206,0.12491 -1.54707,0.23819 -2.32201,0.34653c-0.7724,0.10797 -1.54175,0.20615 -3.80367,0.51065c-0.73514,0.09897 -1.4601,0.19931 -2.17499,0.29999c-0.70509,0.0993 -1.40012,0.19928 -2.08501,0.30002c-0.67511,0.0993 -2.63998,0.39905 -3.27367,0.5c-0.62199,0.09909 -1.82574,0.29861 -2.40533,0.39999c-0.56406,0.09866 -2.15044,0.39474 -3.112,0.60001c-0.45686,0.09753 -1.32974,0.29688 -2.16167,0.5c-1.21011,0.29547 -2.00816,0.49805 -2.79834,0.69998c-0.77515,0.19809 -1.52829,0.38974 -2.58899,0.70001c-0.66191,0.1936 -1.58339,0.47803 -2.655,0.89999c-0.72449,0.28528 -1.41779,0.62857 -2.5,1c-0.63182,0.21686 -1.33766,0.40384 -2.08801,0.60001c-0.78029,0.20401 -1.97847,0.5014 -2.78316,0.70001c-0.81598,0.20142 -1.65137,0.4057 -2.96217,0.69998c-0.45422,0.10199 -1.38596,0.3002 -2.33333,0.5c-0.47466,0.1001 -1.4169,0.29593 -2.7785,0.59985c-0.86491,0.19305 -1.28342,0.29962 -2.11082,0.46414c-0.80743,0.16055 -2.0106,0.31732 -2.81517,0.38785c-0.81612,0.07153 -1.66327,0.10291 -2.96217,0.3815c-0.9252,0.19846 -1.38731,0.36493 -2.3125,0.70834c-0.46252,0.17166 -1.36566,0.53275 -2.57799,1.15833c-0.74207,0.3829 -1.42072,0.80215 -2.091,1.19998c-1.01656,0.60333 -1.73204,1.00333 -2.46651,1.38934c-0.7216,0.37924 -1.41966,0.71811 -2.34216,1.18933c-0.76357,0.39005 -1.61014,0.85474 -2.15916,1.50668c-0.57091,0.67792 -1.02606,1.53586 -1.55017,2.11917c-0.58981,0.65646 -1.09497,1.09387 -1.9765,1.81665c-0.65474,0.53683 -1.35071,1.06714 -2.052,1.569c-0.96306,0.68918 -1.52747,1.05783 -2.30533,1.48901c-0.75876,0.42059 -1.64301,0.84232 -2.31433,1.17798c-0.72734,0.36368 -1.49448,0.74774 -2.68567,1.34283c-0.80119,0.40027 -1.20261,0.60388 -2.02083,1c-0.83443,0.40396 -2.14441,1.0033 -2.60034,1.19968c-0.92413,0.39804 -1.38741,0.59555 -2.31749,0.92834c-0.88649,0.3172 -2.11526,0.64612 -2.84251,0.76215c-0.65407,0.10434 -1.54506,0.13141 -2.53349,0.39383c-0.89084,0.23651 -1.88098,0.63519 -2.66451,0.69519c-0.85191,0.06522 -1.7178,0.07529 -2.52083,0.52081c-0.80148,0.44467 -1.53667,0.82614 -2.3,1.216c-0.7529,0.38455 -1.96271,0.34619 -2.18933,-0.36267c-0.3091,-0.96683 -0.01067,-1.815 -0.01067,-2.77466c0,-0.80399 0,-1.62601 0,-2.65732c0,-0.69601 -0.01128,-1.60544 0.00133,-2.60535c0.0103,-0.81619 0.01743,-1.64764 0.28401,-2.63199c0.18912,-0.69827 0.70743,-1.85358 0.91733,-2.36667c0.32777,-0.80121 0.68256,-1.64359 1.56667,-2.34802c0.45396,-0.36172 1.31746,-0.65894 2.30983,-1.29099c0.75671,-0.48196 1.24182,-0.94257 1.86084,-1.36499c1.12448,-0.76733 1.59686,-1.0069 2.604,-1.54935c0.53697,-0.28922 1.09772,-0.57654 1.674,-0.8685c1.77908,-0.90131 2.38321,-1.19363 2.98199,-1.49951c0.60123,-0.3071 1.20505,-0.61899 1.8,-0.9585c1.21056,-0.6908 1.81973,-1.06613 3,-1.9375c0.61053,-0.45074 1.20586,-0.95062 1.8,-1.47598c0.60605,-0.53589 1.20444,-1.10281 1.8,-1.69202c0.60454,-0.59808 1.20798,-1.21387 2.39999,-2.49866c0.60391,-0.65091 1.2005,-1.3157 1.7955,-1.98599c0.59566,-0.67105 1.18489,-1.34628 1.76849,-2.022c0.58006,-0.67163 1.15222,-1.34003 2.26933,-2.65866c0.54561,-0.64404 1.07852,-1.27747 1.60051,-1.89603c0.50868,-0.60278 1.00285,-1.18802 1.48349,-1.75198c0.46306,-0.54333 0.90546,-1.06595 1.74934,-2.01868c0.38779,-0.43781 0.76198,-0.84473 1.1145,-1.233c0.65755,-0.72421 1.26184,-1.40329 1.53082,-1.74832c0.79422,-1.01883 1.23392,-1.76501 1.66718,-2.49783c0.41931,-0.70923 0.99356,-1.70816 1.61633,-2.50201c0.36798,-0.46909 1.1991,-1.39487 1.76849,-1.87216c0.69289,-0.58081 1.57512,-0.86249 1.636,-1.81332c0.05325,-0.83163 0,-1.66666 0,-2.52884c0,-0.94049 -0.00124,-1.78983 0,-2.70898c0.00134,-0.99417 -0.07901,-1.84692 0.44284,-2.57434c0.46187,-0.6438 1.41458,-1.34021 1.81349,-2.04001c0.30406,-0.53342 0.56432,-1.17822 1.24367,-2.14783c0.52032,-0.74265 1.19363,-1.4621 1.54167,-1.83334c0.70723,-0.75436 1.07465,-1.11835 2.13699,-2.1785c0.66719,-0.6658 0.99008,-0.99173 1.64667,-1.61084c0.65283,-0.61557 1.69408,-1.51263 2.05733,-1.80933c0.7285,-0.595 1.46083,-1.15936 2.14801,-1.716c0.93277,-0.75558 1.45938,-1.21426 2.112,-1.83865c0.70032,-0.67004 1.30009,-1.44366 2.17867,-1.72516c0.65338,-0.20935 1.93654,0.34555 2.55716,-0.34302c0.59387,-0.65887 0.07626,-1.66544 0.13217,-2.60382c0.04132,-0.69348 0.54294,-1.68646 1.15601,-2.508c0.32779,-0.43927 0.89952,-1.31024 1.116,-1.66801c0.49789,-0.82289 1.05095,-1.83185 1.36116,-2.40599c0.33382,-0.61784 1.07326,-1.96692 1.502,-2.67601c0.44698,-0.73923 0.92766,-1.49754 1.48351,-2.23799c1.16037,-1.54573 1.86659,-2.26848 2.59599,-2.99333c0.74454,-0.7399 1.5385,-1.45566 2.358,-2.16451c0.82848,-0.71661 1.6814,-1.41708 2.53801,-2.11951c1.71077,-1.40283 2.55782,-2.09964 3.39066,-2.79733c0.82283,-0.68932 1.63008,-1.37271 2.42551,-2.0415c0.77925,-0.6552 1.53986,-1.29564 2.2905,-1.90649c1.43147,-1.16492 2.12465,-1.696 2.79733,-2.19467c0.64317,-0.47681 1.26627,-0.91728 1.8705,-1.31549c0.57074,-0.37614 1.11584,-0.7179 1.64551,-1.0005c0.94537,-0.50441 1.39056,-0.66949 1.80133,-0.80533c0.37839,-0.12512 0.73753,-0.2122 1.07401,-0.27751c0.31436,-0.06102 0.61308,-0.09882 0.894,-0.14249c0.52351,-0.08139 1.00623,-0.19368 1.64766,-0.42001c1.02612,-0.36206 1.84033,-0.49933 2.74167,-0.5c0.82083,-0.00061 1.79791,0.10701 2.64734,-0.05716c0.93007,-0.17975 1.52376,-0.71152 2.47801,-0.9175c0.6835,-0.14754 1.54871,-0.50404 2.22931,-0.82668c0.97391,-0.46167 1.65176,-0.60448 2.37735,-0.79866c0.77039,-0.20618 1.96677,-0.50418 2.76349,-0.6955c0.78265,-0.18794 1.54099,-0.38991 2.98285,-0.58318c0.65768,-0.08817 1.57498,-0.14667 2.655,-0.28799l0.70499,-0.186l0.80002,-0.29466" id="svg_4" stroke-width="2" stroke="#000" fill="none"/>
  <path t="7569,7729,7729,7741,7741,7741,7756,7757,7765,7765,7765,7779,7788,7812" d="m276.5,217.89999c0.44666,-1.836 0.70529,-2.44809 1.48532,-3.39867c0.50101,-0.61053 1.09784,-1.14088 1.91336,-1.71733c0.56836,-0.40173 1.45822,-1.03206 1.96533,-1.69865c0.45645,-0.60004 1.336,-1.17635 2.23599,-1.18535l0.89999,0.02084" id="svg_5" stroke-width="2" stroke="#000" fill="none"/>
  <path t="12983,13178,13191,13191,13204,13204,13218,13219,13233,13234,13241,13256,13257,13269,13269,13289,13301,13338,13365,13384,13389,13389,13402,13414,13430,13430,13437,13448,13463,13464,13480,13480,13485,13485,13497,13497,13513,13513,13513,13522,13522,13522,13534,13559,13559,13559,13572,13572,13584,13609,13621,13621,13633,13645,13645,13662,13662,13670,13670,13681,13682,13695,13695,13695,13695,13712,13712,13719,13719,13719,13731,13731,13732,13745,13745,13745,13762,13762,13762,13762,13769,13781,13781,13781,13794,13794,13811,13818,13830,13830,13846,13861,13867,13880,13904,13916,13928,13953" d="m381.5,159.89999c2.58932,-1.02533 3.26392,-1.45079 3.97067,-1.71599c0.99173,-0.37213 1.77863,-0.27867 2.88651,-0.28401c0.75748,-0.00365 1.80692,0.07883 2.49014,-0.05716c0.92908,-0.18491 1.81775,-0.7838 2.47803,-0.9175c1.00571,-0.20364 1.70251,-0.76993 2.57465,-0.98933c0.86932,-0.2187 1.47574,-0.57515 2.12085,-1.03601c0.69742,-0.49823 1.56848,-0.92712 2.04315,-1.59999c0.51837,-0.73482 0.93652,-1.61879 1.26935,-2.40001c0.32019,-0.75153 0.1738,-1.73033 0.6875,-2.52083c0.43817,-0.6743 0.93073,-1.51021 1.47916,-2.3125c0.46091,-0.67427 1.13672,-1.2348 1.60001,-1.80266c0.65765,-0.80609 1.00043,-1.61935 1.73334,-2.19734c0.61975,-0.48875 1.47931,-0.69678 2.33331,-1.33333c0.56763,-0.4231 1.0871,-1.32422 1.85419,-1.83334c0.76233,-0.50597 1.29428,-0.88649 2.08047,-1.51732c0.77625,-0.62283 1.62262,-0.97643 2.22934,-1.68134c0.55405,-0.64369 1.29733,-0.98999 1.86935,-1.50584c0.7272,-0.65579 1.08121,-1.43904 1.46933,-2.18083c0.4339,-0.82933 1.08841,-1.21953 1.66266,-2.23067c0.34216,-0.60248 0.89825,-1.52963 1.35333,-2.13066c0.67929,-0.89715 0.92148,-1.4405 1.31467,-2.2325c0.37527,-0.7559 0.966,-1.57635 1.71066,-2.13551c0.77023,-0.57835 1.39871,-1.0325 1.98935,-1.596c0.81314,-0.77579 1.38272,-1.40362 2,-1.95333c0.77896,-0.6937 1.40213,-1.0873 2.03598,-1.46133c0.92725,-0.54716 1.7095,-1.02721 2.24316,-1.35383c0.74777,-0.45766 1.76968,-0.80319 2.6875,-1.35417c0.5271,-0.31643 1.17242,-1.02691 1.81183,-1.645c0.60318,-0.58305 1.55359,-0.95641 2.3215,-1.37434c0.84097,-0.4577 1.64777,-0.56422 2.26401,-1.258c0.58463,-0.65817 0.83551,-1.49089 1.48868,-2.03667c0.66507,-0.55573 1.44733,-0.85267 2.24731,-1.2955l0.90134,-0.05717" id="svg_6" stroke-width="2" stroke="#000" fill="none"/>
  <path t="14534,14692,14693,14706,14706,14706,14720,14722,14736,14736,14745,14753,14765,14777,14795,14795,14803,14814,14828,14828,14845,14846,14852,14852,14864,14864,14878,14878,14889,14901,14925,14925,14951,14966,14967,14978,14986,14999,15011,15011,15011,15027,15027,15027,15036,15036,15048,15048,15048,15061,15061,15078,15085,15085,15097,15111,15111,15128,15128,15128,15135,15135,15146,15146,15161,15161,15162,15171,15171,15171,15183,15183,15199,15199,15218,15222,15222,15232,15245,15245,15261,15270,15282,15282,15310,15310,15319,15331,15331,15344,15344,15369,15380,15394" d="m449.5,107.9c2.60449,-0.94733 3.46451,-1.01501 4.42117,-1.22134c0.80087,-0.17273 1.56165,-0.45628 2.6095,-0.69466c0.84677,-0.19263 1.59998,-0.49424 2.48532,-0.8c0.94376,-0.32594 1.784,-0.28391 2.68402,-0.284c0.89999,-0.00008 1.75375,-0.24213 2.5,-0.64733c0.76111,-0.41328 1.71066,-0.35267 2.62131,-0.35267c0.85333,0 1.79468,0 2.56268,0c0.952,0 1.71732,0 2.716,0c0.79999,0 1.79868,0 2.564,0c1.07883,0 1.936,0 2.836,0c0.79999,0 1.63599,0 2.65268,0c0.69464,0 1.71133,0 2.64731,0c0.90134,0 1.86667,0 2.54669,0c0.84,0 1.83817,-0.02109 2.65332,0.02084c0.81747,0.04205 1.81293,0.2684 2.68933,0.55383c0.80911,0.26352 1.6196,0.34747 2.41068,0.50933c1.01132,0.20692 1.75378,0.60414 2.64282,1.2115c0.76688,0.5239 1.51974,0.66374 2.25717,1.22533c0.7774,0.59206 1.23746,1.27415 1.60001,2.02183c0.33551,0.69188 0.51932,1.49497 1.10001,2.48801c0.44144,0.75494 0.9826,1.46622 1.43597,2.18c0.50995,0.80286 1.04068,1.37475 1.53867,2.02533c0.69302,0.90538 1.06961,1.71153 1.3045,2.24316c0.52405,1.18609 1.02252,1.78819 1.39951,2.62083c0.30087,0.66457 0.72931,1.50266 1.42133,2.2c0.49808,0.50191 1.20001,1.19999 1.90002,1.89999c0.5,0.5 1.39221,1.0989 1.71466,2c0.27106,0.7575 0.14658,1.69416 0.43799,2.45267c0.33594,0.87436 0.547,1.7448 0.86884,2.66866c0.24402,0.70045 0.7785,1.51201 1.25769,2.15784l0.46362,0.82083l0.05719,0.90001l0,0.89999" id="svg_7" stroke-width="2" stroke="#000" fill="none"/>
  <path t="16014,16181,16219,16219,16234,16234,16244,16255,16255,16267,16267,16278,16278,16294,16294,16304,16315,16340,16367,16367,16391,16404,16439,16450,16475,16489,16500,16500,16513,16513,16528,16528,16538,16538,16550,16550,16563,16563,16577,16599,16611,16629,16636,16647,16932,16952,17055,17070,17083,17095,17105,17105,17116,17140,17166,17183,17252,17252,17276,17301,17324,17338,17362,17381,17381,17388,17403,17414,17429,17429,17436,17447,17463,17485,17509,17509,17523,17561,17572,17583,17596,17596,17613,17632,17657,17670,17694,17719,17719,17743,17743,17762,17780,17805" d="m514.5,138.89999c0.87866,1.22151 1.1554,2.16708 1.76166,2.70001c0.65924,0.5795 1.39935,0.903 2.35303,1.21599c0.87427,0.28691 1.48718,0.76038 2.37067,1c0.89685,0.24326 1.7171,0.29808 2.49384,0.584c1.00281,0.36916 1.85406,0.30305 2.72083,0.55717c0.87744,0.25725 1.64703,0.77927 2.39996,1.16417c0.76318,0.39017 1.38983,0.96404 1.98401,1.49466c0.60138,0.53703 1.45374,1.02879 2.31604,1.248c0.87311,0.22195 1.74817,0.41875 2.48529,0.752c0.73303,0.33141 1.716,0.28333 2.71466,0.284c0.80005,0.00053 1.80005,0 2.60004,0c0.99982,0 1.77917,0 2.6333,0c0.86218,0 1.78625,-0.00195 2.56671,0.42534c0.82257,0.45036 1.83423,0.32774 2.51599,0.85867c0.62659,0.48795 1.06598,1.15149 1.08398,2.116c0.01678,0.89984 0.33112,2.0528 -0.28534,2.51466c-0.73627,0.55165 -1.89178,-0.02548 -2.69385,0.10617c-0.87946,0.14436 -1.37653,0.95056 -2.22083,0.97916c-0.89948,0.03047 -1.80084,-0.0372 -2.59998,0c-0.91766,0.04272 -1.50555,0.76968 -2.14734,1.35268c-0.57928,0.52623 -1.4093,0.51077 -2.25269,0.93134c-0.66162,0.32993 -1.5,0.71375 -2.39996,0.71599c-0.92084,0.00229 -1.90619,-0.1414 -2.5387,0.03601c-0.94202,0.26422 -1.70093,0.59373 -2.52802,1.13066c-0.69897,0.45377 -1.30341,1.04791 -1.93329,1.408c-0.8642,0.49405 -1.65894,0.84656 -2.49988,1.304c-0.7475,0.4066 -0.93646,1.25821 -1.60468,1.76416c-0.69519,0.52635 -1.55432,0.77847 -2.39532,1.23584c-0.7475,0.40651 -1.26111,1.07819 -2.2215,1.12149c-0.67828,0.03058 -1.65717,0.22118 -2.37415,0.64717l-0.8045,0.33183l-0.90002,0.02083l-0.89996,0" id="svg_8" stroke-width="2" stroke="#000" fill="none"/>
  <path t="19295,19443,19443,19456,19456,19471,19472,19472,19486,19486,19486,19486,19503,19503,19506,19506,19517,19528,19545,19545,19553,19565,19566,19578,19602,19602,19614,19628,19639,19651,19662,19662,19682,19687,19688,19699,19712,19712,19727,19727,19737,19737,19749,19749,19749,19749,19761,19761,19761,19761,19779,19779,19779,19779,19787,19787,19787,19798,19798,19798,19810,19811,19827,19835,19836,19848,19848,19861,19862,19877,19878,19878,19884,19884,19884,19896,19897,19897,19897,19910,19910,19910,19911,19922,19922,19933,19933,19933,19945,19945,19945,19961,19961,19970,19983,19983,19995,19995,20011,20012,20012,20020,20020,20020,20021,20031,20031,20031,20032,20032,20032,20045,20045,20045,20045,20061,20061,20061,20069,20069" d="m512.5,168.89999c-1.836,0.98534 -2.6521,1.08456 -3.60001,1.70984c-0.63907,0.42155 -1.39789,1.12656 -2,1.54201c-0.59793,0.41255 -1.4223,1.06238 -1.99548,1.75349c-0.39963,0.48184 -0.85867,1.27638 -1.65186,2.18033c-0.47134,0.53716 -1.45963,1.03262 -2.04282,1.51434c-0.73572,0.60768 -1.11871,1.42729 -1.54318,2.29999c-0.32086,0.65968 -0.70847,1.4803 -1.36533,2.20001c-0.53348,0.5845 -0.75885,1.51385 -1.51117,2.09549c-0.57748,0.44646 -1.65909,0.66052 -2.29016,1.2045c-0.58975,0.50836 -1.03275,1.29466 -1.70984,1.7955c-0.58682,0.43408 -1.7594,0.55304 -2.39017,1.14717c-0.63013,0.59355 -1.21631,1.23959 -1.89999,1.89067c-0.60684,0.5779 -0.81094,1.50577 -1.02533,2.29199c-0.23679,0.86841 -0.60599,1.63017 -1.14133,2.54134c-0.30859,0.52525 -0.85217,1.36482 -1.18066,1.995c-0.51605,0.98993 -0.78546,1.71632 -1.00601,2.46367c-0.21951,0.74387 -0.48581,2.20732 -0.564,2.888c-0.07346,0.6394 -0.07126,1.57196 -0.52551,2.56517c-0.33405,0.73038 -0.95105,1.28593 -1.53564,2.12151c-0.54102,0.77327 -0.83411,1.39317 -1.31702,2.39549c-0.3577,0.74242 -0.58807,1.66943 -0.87115,2.57117c-0.21198,0.67516 -0.73868,1.65584 -0.82266,2.45866c-0.08948,0.85542 -0.01892,1.79086 -0.23203,2.57484c-0.22733,0.83633 -0.54453,1.47649 -0.69464,2.4865c-0.12628,0.84978 -0.14151,1.80388 -0.30551,2.83467c-0.11685,0.73456 -0.29013,1.48097 -0.483,2.226c-0.28207,1.08957 -0.59695,2.08926 -0.77466,2.711c-0.24371,0.85269 -0.40753,1.86049 -0.54617,2.731c-0.16196,1.01685 -0.51419,1.81993 -0.69067,2.496c-0.25717,0.98521 -0.27234,1.81448 -0.28265,2.63066c-0.01257,0.99725 -0.00134,1.83733 -0.00134,2.8c0,1.05066 0.02191,1.70958 0,2.71733c-0.01801,0.82858 -0.22629,1.7083 -0.42532,2.43866c-0.22769,0.83548 -0.46353,2.02745 -0.522,2.64151c-0.09454,0.99306 -0.12613,1.74359 -0.21933,2.58649c-0.10541,0.9534 -0.25894,1.97597 -0.33334,2.5c-0.14792,1.04193 -0.23706,1.5457 -0.37866,2.9355c-0.08069,0.79187 -0.08435,1.50597 -0.20535,2.46049c-0.15332,1.2095 -0.34131,1.79333 -0.56332,2.64685l-0.23132,1.03549l-0.12134,0.88" id="svg_9" stroke-width="2" stroke="#000" fill="none"/>
  <path t="20709,20882,20884,20913,20913,20914,20914,20914,20928,20928,20928,20928,20928,20928,20928,20928,20928,20930,20930,20930,20930,20930,20930,20930,20930,20931,20965,20966,20966,20966,20967,20970,20970,20971,20971,20971,20971,21009,21010,21029,21030,21030,21030,21030,21044,21044,21044,21060,21066,21066,21066,21078,21078,21094,21095,21095,21095,21103,21104,21104,21116,21117,21117,21128,21128,21128,21144,21144,21144,21152,21152,21152,21165,21165,21178,21178,21178,21194,21195,21202,21202,21213,21228,21238,21239,21239,21251,21263,21263,21263,21278,21278,21278,21289,21289,21289,21289,21289,21289,21300,21300,21300,21300,21312,21312,21312,21313,21329,21329,21329,21329,21337,21337,21349,21349,21362,21363,21377,21378,21387,21387,21398,21398,21411,21411,21411,21411,21428,21429,21435,21435,21435,21436,21436,21448,21448,21448,21448,21462,21462,21462,21462,21484,21484" d="m470.5,262.89999c-1.836,1.42136 -2.45712,1.7608 -3.20065,2.54434c-0.45151,0.4758 -0.89297,1.15753 -1.42801,2.022c-0.31888,0.5152 -1.03989,1.76593 -1.45667,2.50467c-0.45273,0.80249 -0.92731,1.65826 -1.41602,2.55298c-0.50067,0.9166 -0.99988,1.84396 -1.48798,2.76901c-0.47717,0.90436 -1.34766,2.60522 -1.72467,3.37766c-0.34802,0.71307 -0.65897,1.37659 -0.94202,1.992c-0.26215,0.56998 -0.50018,1.10187 -0.72598,1.59601c-0.21164,0.46317 -0.61255,1.31085 -0.81818,1.69867c-0.39392,0.74295 -0.81802,1.44431 -1.25699,2.14801c-0.70526,1.13065 -1.22601,1.95889 -1.48651,2.39099c-0.51834,0.8598 -0.77798,1.27057 -1.20166,2.065c-0.63272,1.18643 -0.9183,2.03824 -1.52133,2.83865c-0.43713,0.5802 -1.0463,1.18579 -1.668,1.86002c-0.31235,0.33871 -1.18613,1.29099 -1.79385,2.11667c-0.45535,0.61865 -1.21844,1.34302 -2.03815,1.85666c-0.52167,0.32687 -1.19394,1.04681 -2.03336,1.42416c-0.76816,0.34531 -1.82889,0.71317 -2.39999,1.30499c-0.42242,0.43774 -0.95847,1.21463 -1.79868,1.96951c-0.55466,0.49832 -1.17862,0.89255 -1.71866,1.73734c-0.45941,0.71866 -0.79706,1.59265 -1.42517,2.30917c-0.64465,0.73538 -1.29782,1.00449 -1.95749,1.92148c-0.52585,0.73099 -0.50003,1.45374 -1.06934,2.39999c-0.38712,0.64343 -0.97061,1.18356 -1.54666,1.99869c-0.53058,0.75076 -1.19934,1.58771 -1.70935,1.97598c-0.6828,0.51981 -1.34116,1.34637 -1.92731,1.9155c-0.6517,0.63275 -1.66714,0.62234 -2.26202,1.32053c-0.58356,0.68488 -1.14786,1.39618 -1.81067,1.78931c-0.68646,0.40717 -1.49188,1.11264 -2.34131,1.43335c-0.83719,0.3161 -1.53989,0.28949 -2.52133,0.73599c-0.5824,0.26495 -1.51532,0.82016 -2.64536,1.26401c-0.40439,0.15884 -1.27405,0.41904 -2.1875,0.64584c-0.46329,0.11502 -1.3981,0.31226 -2.75748,0.62082c-0.86105,0.19543 -1.6817,0.39362 -2.46002,0.60001c-1.09741,0.29102 -1.77762,0.49585 -2.42566,0.69998c-0.93338,0.29404 -1.83704,0.59695 -2.73151,0.90002c-0.58432,0.198 -1.42245,0.49185 -2.41916,0.89865c-0.87762,0.35818 -1.88098,0.72052 -2.66449,0.78052c-0.85196,0.06522 -1.67035,-0.01492 -2.50485,0.30615c-0.89569,0.3446 -1.61542,0.93652 -2.26865,1.41467c-0.71664,0.52457 -1.48517,0.92102 -2.414,1.29999c-0.77899,0.31781 -1.61111,0.59177 -2.14935,0.80002c-1.24332,0.48108 -1.93509,0.82855 -3.01733,1.19998c-0.63181,0.21683 -1.33765,0.40384 -2.08798,0.60001c-0.7803,0.20401 -1.97888,0.49857 -2.77417,0.70001c-0.78403,0.19858 -1.55002,0.39041 -2.63785,0.69998c-0.68173,0.194 -1.625,0.5 -2.47998,0.80002l-1,0.39865l-0.64502,0.28052" id="svg_10" stroke-width="2" stroke="#000" fill="none"/>
  <path t="22496,22680,22680,22691,22692,22706,22719,22720,22720,22720,22734,22735,22735,22746,22746,22764,22764,22764,22779,22780,22796,22796,22796,22801,22801,22813,22830,22830,22838,22839,22839,22839,22850,22851,22851,22862,22862,22863,22863,22878,22878,22878,22887,22887,22887,22899,22899,22912,22928,22937,22961,22961,22978,22978,22986,22986,22998,22998,22998,22998,23011,23011,23011,23011,23011,23027,23027,23027,23027,23035,23036,23036,23036,23047,23047,23061,23061,23061,23072,23072,23084,23084,23096,23096,23111,23111,23121,23121,23132,23132" d="m373.5,338.89999c-1.83334,0.16669 -2.10294,0.88989 -2.86133,1.38934c-0.61154,0.40274 -1.68442,0.57315 -2.47202,0.944c-0.70242,0.33075 -1.46216,0.87421 -1.98398,1.26932c-1.01651,0.76968 -1.64478,1.37268 -2.19601,1.91202c-0.74356,0.72751 -1.28491,1.25327 -2.02933,1.80667c-0.69745,0.51849 -1.46674,1.00632 -2.31451,1.65717c-0.63333,0.48624 -1.28647,1.06403 -1.97882,1.41083c-0.74353,0.37244 -1.75815,0.57819 -2.50684,0.60617c-1.03113,0.03854 -1.97882,0.00449 -2.69882,0.00449c-1.125,0 -1.9155,0 -2.76901,0c-0.59067,0 -1.79114,-0.01511 -2.71017,0.02084c-0.63687,0.02493 -1.64859,0.1304 -2.72733,0.33182c-0.73303,0.13687 -1.43759,0.31949 -2.41849,0.48068c-0.82037,0.13483 -1.79034,0.17465 -2.75452,0.38815c-0.80252,0.1777 -1.59961,0.42181 -2.43582,0.87836c-0.75311,0.41116 -1.65735,0.74774 -2.543,0.91083c-0.83145,0.15311 -1.58734,0.90137 -2.35718,0.98483c-0.89478,0.09702 -1.64734,0.00449 -2.64551,0.00449c-0.86932,0 -1.93066,0 -2.56799,0c-0.70132,0 -1.83832,0 -3.02933,0c-0.79999,0 -1.60001,0 -2.39999,0c-0.80002,0 -1.99985,0 -2.7955,0c-0.78366,0 -1.54733,-0.00107 -2.63785,0c-0.67999,0.00067 -1.63043,-0.03055 -2.47998,0.08533c-1.01151,0.13797 -1.64325,0.49402 -2.68668,0.74802c-0.7876,0.19171 -1.60001,0.16599 -2.60001,0.16666c-0.79999,0.00052 -1.79999,0 -2.60001,0c-0.99982,0 -1.77914,0 -2.77866,0c-0.77399,0 -1.6785,0 -2.62265,0l-0.99869,0l-0.79999,0" id="svg_11" stroke-width="2" stroke="#000" fill="none"/>
  <path t="24216,24377,24377,24390,24391,24391,24401,24401,24402,24413,24413,24428,24428,24428,24438,24438,24450,24450,24462,24477,24477,24478,24487,24488,24488,24500,24500,24500,24511,24511,24511,24527,24527,24537,24537,24538,24548,24548,24561,24561,24561,24577,24577,24577,24586,24587,24587,24587,24587,24598,24598,24598,24599,24599,24599,24611,24612,24612,24612,24612,24628,24629,24629,24629,24635,24635,24635,24635,24648,24648,24662,24662,24662,24662,24672,24672,24672,24684,24685,24685,24685,24696,24696,24696,24696,24712,24712,24712,24712,24722,24722,24722,24722,24733,24733,24733,24733,24733,24745,24746,24746,24761,24761,24761,24771,24783,24783,24794,24795,24811,24832,24844,24861,24893" d="m295.5,354.89999c-2.00983,0 -2.78534,0 -3.83334,0c-0.94131,0 -1.61932,0 -2.58798,0c-0.80402,0 -1.62601,0 -2.65717,0c-0.90067,0 -1.92151,0 -2.7215,0c-0.80002,0 -1.80002,0 -2.60001,0c-0.99869,0 -1.76401,0 -2.716,0c-1.05066,0 -1.73068,0.00055 -2.57068,0c-0.99866,-0.00067 -1.83731,0.01315 -2.71466,-0.08533c-0.90308,-0.10135 -1.79541,-0.32819 -2.64151,-0.61917c-0.79803,-0.27448 -1.70749,-0.72192 -2.35266,-0.93832c-0.98694,-0.33105 -1.82397,-0.30112 -2.8045,-0.57867c-0.82184,-0.23267 -1.40027,-0.57928 -2.39999,-1.07849c-0.60016,-0.29968 -1.59436,-0.81213 -2.42084,-1.20001c-0.66,-0.30975 -1.66327,-0.70734 -2.22583,-0.89999c-0.91098,-0.31195 -1.9184,-0.6058 -2.64133,-0.79999c-0.7677,-0.20621 -1.59309,-0.40717 -2.48399,-0.60001c-0.9597,-0.20773 -1.99542,-0.40192 -2.53334,-0.49551c-1.09354,-0.19025 -1.64226,-0.28156 -2.72667,-0.41916c-1.03316,-0.1311 -1.99716,-0.20389 -2.896,-0.26001c-0.85051,-0.0531 -1.6713,-0.09198 -2.472,-0.19199c-0.80101,-0.10004 -1.58705,-0.27094 -2.74283,-0.48068c-1.08847,-0.19754 -1.76941,-0.28625 -2.7155,-0.33182c-0.57956,-0.02792 -1.85767,-0.02084 -2.54167,-0.02084c-1.16667,0 -1.95717,0 -2.52083,0c-0.88051,0 -2.07918,0 -2.67917,0c-0.90001,0 -2.10028,0.0079 -2.7045,-0.00449c-0.93184,-0.0191 -1.58728,-0.04004 -2.97951,-0.28085c-0.74542,-0.12894 -1.49284,-0.31702 -2.23199,-0.51599c-1.06578,-0.2869 -1.73569,-0.47891 -2.67334,-0.83466c-0.61555,-0.23355 -1.81139,-0.85153 -2.43199,-1.18933c-0.64865,-0.35306 -1.33237,-0.73621 -2.52116,-1.15317c-0.8475,-0.29724 -1.29678,-0.38831 -2.17084,-0.61084c-0.83267,-0.21201 -1.93036,-0.48843 -2.78934,-0.81067c-0.74849,-0.28079 -1.71371,-0.71332 -2.51199,-0.98932c-0.7711,-0.2666 -1.81186,-0.56799 -2.78534,-0.61069c-0.75644,-0.03317 -1.65266,0 -2.51601,0c-0.96317,0 -1.88399,0 -2.7795,0.00452l-0.67917,0.42084l-0.52533,0.59549" id="svg_12" stroke-width="2" stroke="#000" fill="none"/>
  <path t="26140,26285,26285,26285,26297,26297,26297,26313,26313,26313,26313,26313,26320,26321,26321,26321,26321,26332,26332,26332,26332,26332,26332,26346,26346,26346,26346,26346,26346,26361,26361,26361,26361,26361,26361,26361,26361,26361,26370,26370,26370,26370,26370,26370,26371,26371,26382,26382,26382,26382,26382,26394,26394,26394,26394,26394,26394,26412,26412,26412,26419,26419,26419,26419,26431,26431,26444,26445,26445,26460,26461,26461,26461,26461,26469,26469,26469,26469,26469,26480,26480,26480,26480,26480,26480,26494,26494,26494,26494,26494,26494,26494,26495,26510,26510,26510,26511,26511,26511,26511,26511,26517,26517,26517,26518,26518,26518,26518,26529,26530,26530,26530,26530,26543,26544,26544,26544,26544,26554,26555,26555,26566,26567,26567,26578,26578,26594,26594,26691,26704,26912,26961,26987,26987,27002,27002,27003,27003,27003,27003,27012,27012,27012,27012,27012,27012,27027,27027,27028,27028,27028,27028,27034,27035,27035,27035,27046,27046,27046,27046,27060,27077,27245,27267,27268,27283,27284,27300,27300,27300,27310,27310,27318,27342,27367,27383,27384,27384,27399,27399,27399,27404,27404,27415,27428,27429,27429,27446,27446,27453,27464,27478,27478,27478,27494,27494,27502,27502,27514,27527,27551,27562,27563,27578,27578,27588,27588,27600,27600,27611,27611,27628,27628,27637,27638,27649,27649,27661,27661,27662,27678,27699,27699,27711,27735" d="m196.5,341.89999c-2.95717,0.00452 -3.52484,-0.02054 -4.40134,0.08533c-1.20821,0.14594 -1.82991,0.32214 -2.75583,0.73352c-1.03546,0.46005 -1.72948,0.9465 -2.0955,1.19098c-0.75285,0.50284 -1.49191,1.04584 -2.58066,1.82352c-0.68097,0.48642 -1.34558,0.94626 -1.992,1.42801c-0.32951,0.24557 -1.34677,1.06592 -2.06,1.70798c-0.37473,0.33734 -1.1346,1.05249 -1.52533,1.41602c-0.78886,0.73395 -1.57909,1.4603 -2.39467,2.12933c-0.40764,0.33438 -1.27127,0.97473 -1.73868,1.27466c-0.98366,0.6312 -2.11934,1.21765 -2.74182,1.5105c-0.65077,0.30615 -1.33623,0.6008 -2.0475,0.8895c-0.72707,0.2951 -1.47191,0.57858 -2.22751,0.85352c-0.75775,0.27573 -2.27173,0.79285 -3.01717,1.03568c-0.73192,0.23843 -1.45166,0.46329 -2.83867,0.90067c-0.66481,0.20966 -1.30902,0.41122 -1.92599,0.61948c-1.16061,0.39175 -2.2041,0.79651 -3.16,1.19067c-0.45634,0.18817 -1.3302,0.58371 -2.664,1.04401c-0.45091,0.15561 -1.37769,0.41153 -2.29166,0.66666c-0.44467,0.12415 -1.32158,0.30612 -2.37733,0.82135c-0.90126,0.43982 -1.33064,0.91211 -2.33101,1.51199c-0.76009,0.45578 -1.60951,0.75214 -2.14932,0.96533c-1.00153,0.39554 -1.89914,0.79987 -2.68401,1.36801c-0.63113,0.45688 -1.22911,1.08273 -2.33333,1.66666c-0.61633,0.32593 -1.33827,0.54248 -2.08801,0.79199c-0.78093,0.25989 -1.98357,0.68533 -2.78316,1.03635c-0.40868,0.17941 -1.23611,0.5762 -2.08084,1.02499c-0.88626,0.47086 -1.80299,0.99631 -2.27182,1.27951c-0.97,0.58597 -1.4608,0.90601 -1.94734,1.25266c-1.51898,1.08228 -1.9994,1.51965 -2.4955,1.95184c-0.50401,0.43909 -1.00644,0.89459 -2,1.85065c-0.50328,0.48428 -1.00076,0.98059 -2,1.97867c-0.50021,0.49963 -0.99942,0.99924 -1.4955,1.5c-0.49459,0.49924 -1.47034,1.49823 -1.94733,2c-0.47367,0.49826 -1.39484,1.49615 -1.83533,1.99985c-0.86425,0.98822 -1.2679,1.48679 -1.65933,1.97934c-0.38319,0.48218 -1.10786,1.42365 -1.72916,2.35416c-0.58042,0.86926 -0.82201,1.30588 -1.3125,2.125c-0.46758,0.78085 -1.17254,1.88663 -1.7035,2.55499c-0.51768,0.65167 -1.0658,1.23154 -1.548,1.80002c-0.63969,0.75418 -1.08038,1.46933 -1.652,2.28531c-0.57423,0.8197 -1.11182,1.38589 -1.63333,1.91602c-0.72375,0.73569 -1.365,1.2886 -2.13217,1.78534c-0.77947,0.5047 -1.02715,1.26398 -1.3625,2.08932c-0.29356,0.7225 -1.43833,0.8793 -2.29833,0.58368c-0.77583,-0.26669 -1.23957,-1.29849 -1.70984,-2.10703c-0.26691,-0.45889 -0.53349,-0.95535 -1.14733,-1.97867c-0.31661,-0.52783 -0.98306,-1.5672 -1.71783,-2.51797c-0.36024,-0.46613 -0.74024,-0.90897 -1.49066,-1.78403c-0.37212,-0.43393 -1.46331,-1.7485 -1.80367,-2.20633c-0.33967,-0.45691 -0.9763,-1.38214 -1.28,-1.83731c-0.58248,-0.87302 -1.36294,-2.05087 -1.85633,-2.68701c-0.43876,-0.5657 -0.89588,-1.04117 -1.68533,-2.02133c-0.40851,-0.5072 -0.99975,-1.28809 -1.42934,-2.064c-0.51166,-0.92413 -1.4073,-1.34515 -1.50449,-2.12201c-0.09364,-0.7485 1.28767,-0.59149 2.32983,-0.65799c0.66154,-0.04221 1.66029,-0.25803 2.604,-0.51016c0.64513,-0.17236 1.73627,-0.57758 2.4375,-0.95834c0.85896,-0.46643 1.76241,-0.90018 1.5535,-1.82083c-0.20139,-0.88751 -1.0365,-1.23053 -1.679,-1.41467c-0.97655,-0.27991 -1.81183,-0.2738 -2.628,-0.284c-1.22224,-0.01526 -2.02233,-0.00134 -2.93583,-0.00134c-1.0815,0 -1.7535,0 -2.49751,0c-1.10767,0 -1.94167,0 -2.85066,0c-0.94167,0 -1.94324,0.01572 -2.66133,-0.01065c-0.79134,-0.02905 -1.82429,-0.18793 -2.492,-0.41467c-1.09319,-0.37122 -1.836,-0.56393 -2.74667,-0.57468c-0.9,-0.01059 -1.90168,-0.14722 -2.33334,-1c-0.34971,-0.69089 -0.16666,-1.65717 -0.16666,-2.40448c0,-0.99551 0,-1.7955 0,-2.79535c0,-0.77933 -0.01014,-1.7789 0,-2.68417c0.01067,-0.95218 0.09405,-1.76047 0.56934,-2.51465c0.39211,-0.62216 1.23844,-1.46207 1.80533,-1.96533c0.75961,-0.67438 1.46954,-1.00507 2.14133,-1.436c0.87437,-0.56088 1.484,-1.20001 2.084,-1.76401l0.87917,-0.436l0.51017,-0.61066" id="svg_13" stroke-width="2" stroke="#000" fill="none"/>
  <path t="29757,29916,29916,29928,29928,29952,29953,29969,29969,29979,29980,29980,29989,29989,29989,29999,29999,29999,30000,30012,30012,30012,30012,30012,30012,30012,30027,30027,30028,30028,30028,30028,30028,30037,30037,30037,30037,30037,30049,30049,30049,30049,30049,30061,30061,30061,30061,30078,30078,30078,30087,30087,30087,30097,30098,30111,30112,30128,30128,30135,30135,30135,30147,30148,30148,30161,30161,30161,30162,30178,30178,30178,30178,30185,30185,30185,30185,30185,30196,30196,30196,30196,30211,30212,30212,30221,30222,30222,30233,30234,30234,30246,30246,30246,30260,30260,30261,30261,30276,30277,30277,30277,30283,30283,30283,30283,30294,30295,30295,30295,30310,30310,30310,30311,30320,30320,30320,30321,30321,30331,30331,30332,30332,30332,30332,30332,30345,30345,30345,30345,30345,30345,30361,30361,30361,30362,30369,30369,30369,30381,30381,30381,30395,30395,30395,30411,30411,30411,30412,30419,30419,30419,30419,30430,30430,30430,30430,30447,30448,30448,30448" d="m66.5,356.89999c1.836,-1.38931 2.38945,-1.70514 3.39867,-1.91599c0.93385,-0.1951 1.87134,-0.41858 2.354,-0.84567c0.76981,-0.68115 1.24734,-1.23834 2.08067,-2.07166c0.54134,-0.54135 1.06036,-1.04117 1.82383,-1.82834c0.56071,-0.57813 0.95983,-1.01263 1.74683,-2.02634c0.4368,-0.56262 0.89358,-1.20309 1.452,-1.884c0.63234,-0.77103 1.39729,-1.59988 1.8155,-2.03784c0.43371,-0.45419 0.88381,-0.9184 1.842,-1.84198c0.48688,-0.4693 1.48418,-1.38412 1.98617,-1.82635c0.49539,-0.43643 1.47729,-1.26657 1.95867,-1.65933c0.46802,-0.38187 1.36601,-1.09708 2.20833,-1.72916c0.75955,-0.56998 1.47143,-1.07281 2.148,-1.548c0.66743,-0.46878 1.70754,-1.20544 2.438,-1.73801c0.37312,-0.27203 1.11974,-0.8251 1.86333,-1.36331c1.05914,-0.7666 1.71394,-1.23102 2.34234,-1.62152c0.57261,-0.35583 1.61834,-0.82751 2.54166,-1.0625c0.68257,-0.17371 1.69197,-0.55298 2.21467,-0.86133c0.79033,-0.46622 1.66518,-1.09116 2.364,-1.728c0.64461,-0.58746 1.16312,-1.13422 2.0785,-1.71518c0.54472,-0.34573 1.54723,-1.01163 2.14284,-1.52081c0.6045,-0.51678 1.38019,-1.18768 2.02133,-1.53867c0.67385,-0.3689 1.8213,-0.73682 2.48849,-0.94052c0.71079,-0.21701 1.45807,-0.41251 2.52351,-0.86215c0.6941,-0.29291 1.66659,-0.85428 2.31933,-1.23782c1.01388,-0.59573 1.72823,-1.00015 2.47267,-1.38486c0.37312,-0.19281 1.10979,-0.58173 2.55316,-1.18915c0.65902,-0.27734 1.29885,-0.50595 2.22017,-0.82016c0.89925,-0.30667 1.79927,-0.56979 2.32933,-0.83734c1.17924,-0.59525 1.60695,-1.20273 2.02017,-1.76849c0.73061,-1.00034 1.26909,-1.59897 1.65633,-1.99551c0.7883,-0.80725 1.41058,-1.397 1.9955,-2.05716c0.61621,-0.69547 1.20464,-1.49673 1.60001,-2.06366c0.40475,-0.58038 1.00002,-1.47919 1.60001,-2.37918c0.39999,-0.60001 0.79739,-1.20175 1.39999,-2.10001c0.60191,-0.89722 1.00064,-1.49539 1.45717,-2.04282c0.68031,-0.81577 1.49057,-1.50626 2.04283,-1.93634c0.54256,-0.42252 1.57564,-1.22485 2.05634,-1.62085c0.7359,-0.6062 1.27571,-1.03979 2.30833,-1.59998c0.79512,-0.43134 1.25003,-0.60956 2.20332,-1c0.50064,-0.20505 2.09839,-0.80084 2.65334,-1.00018c0.56236,-0.202 1.70482,-0.60828 2.27867,-0.82065c0.57549,-0.21295 1.72342,-0.64767 2.83333,-1.14584c0.54863,-0.24625 1.60164,-0.77936 2.10934,-1.048c0.49594,-0.26242 1.42526,-0.80127 2.724,-1.452c0.75395,-0.37778 1.44911,-0.66528 2.07599,-0.91199c1.088,-0.42819 1.82159,-0.68704 2.44667,-1.05734c1.0506,-0.62241 1.59837,-1.2038 2.21066,-1.71133c0.7847,-0.65042 1.42795,-1.00104 2,-1.46249c0.8446,-0.68134 1.40738,-1.45691 1.8,-2.01151c0.40773,-0.57593 1.19597,-1.78238 1.61067,-2.37866c0.41992,-0.60379 0.85558,-1.21597 1.61067,-2.09985c0.51845,-0.60687 1.07533,-1.18256 1.62599,-1.74298c0.7813,-0.79514 1.4955,-1.49551 1.93184,-1.9155l0.61949,-0.55502" id="svg_14" stroke-width="2" stroke="#000" fill="none"/>
  <path t="31196,31355,31356,31373,31373,31373,31391,31392,31392,31403,31403,31404,31404,31404,31408,31408,31409,31409,31409,31409,31417,31417,31417,31417,31417,31417,31417,31418,31427,31428,31428,31428,31428,31428,31428,31428,31446,31446,31446,31446,31446,31446,31446,31452,31452,31452,31452,31452,31464,31464,31464,31464,31464,31478,31478,31478,31478,31495,31495,31502,31502,31513,31513,31513,31527,31528,31528,31544,31544,31551,31551,31551,31551,31563,31563,31563,31578,31578,31578,31587,31588,31588,31588,31598,31598,31598,31599,31599,31611,31611,31611,31611,31611,31628,31628,31629,31629,31629,31637,31637,31637,31637,31637,31648,31648,31648,31649,31649,31660,31660,31660,31661,31661,31676,31677,31677,31677,31677,31686,31686,31686,31686,31687,31697,31697,31698,31698,31698,31710,31710,31711,31711,31711,31711,31711,31727,31728,31728,31728,31728,31728,31736,31736,31736,31736,31736,31737,31737,31746,31747,31747,31747,31747,31761,31761,31777,31777,31777,31785,31785" d="m182.5,270.89999c2.5955,-1.3045 3.40765,-1.69388 4.11734,-2.48532c0.44762,-0.49918 0.81625,-1.15341 1.65199,-1.91602c0.47278,-0.4314 1.31348,-1.02313 2.064,-1.76532c0.50581,-0.50021 0.95688,-1.08698 1.42801,-1.716c0.51334,-0.68536 1.37924,-1.86234 1.71066,-2.28799c0.70515,-0.90564 1.08835,-1.37277 1.48534,-1.85068c0.40663,-0.4895 1.70691,-1.9809 2.16417,-2.47867c0.46138,-0.50226 0.9341,-1.0015 1.41449,-1.5c0.48328,-0.50151 1.46788,-1.50063 1.96533,-2c0.99741,-1.00125 1.49734,-1.50117 2,-1.99733c0.50168,-0.49518 1.00346,-0.98766 1.5195,-1.461c1.02483,-0.94005 1.5457,-1.39586 2.64584,-2.20833c0.54529,-0.40269 1.1055,-0.77647 2.23734,-1.45067c0.54997,-0.32759 1.09821,-0.62616 1.629,-0.9165c1.46574,-0.80177 2.31465,-1.27832 2.7,-1.5135c0.7298,-0.44542 1.41653,-0.89697 2.43367,-1.61932c0.7202,-0.51146 1.45094,-1.05481 2.172,-1.608c0.35295,-0.2708 1.33885,-1.04633 2.1425,-1.76367c0.46268,-0.41299 1.00079,-1.00656 1.89349,-1.82567c0.49338,-0.4527 1.49504,-1.00446 1.97267,-1.45033c0.70467,-0.65784 1.00385,-1.45865 1.40533,-2.23749c0.5377,-1.04306 1.0583,-1.71465 1.59467,-2.28651c0.61523,-0.65596 1.29524,-1.30946 1.81934,-1.995c0.50751,-0.66383 0.83966,-1.19827 1.43466,-1.98399c0.58461,-0.772 1.19148,-1.45358 1.79866,-2.07817c0.79091,-0.8136 1.18977,-1.22041 1.836,-1.8045c0.91048,-0.82294 1.43199,-1.22719 2.30568,-1.77916c0.60767,-0.38391 1.6208,-0.86499 2.34233,-1.13817c0.73721,-0.27913 1.50719,-0.50691 2.23199,-0.85201c1.09048,-0.5192 1.7415,-1.0379 2.40483,-1.57233c0.69502,-0.55997 1.02989,-0.88589 2.22183,-1.758c0.41898,-0.30655 1.30466,-0.88445 1.75734,-1.15868c0.88824,-0.53809 2.16411,-1.21368 2.55716,-1.399c1.07469,-0.50671 1.7677,-0.77271 2.42551,-1.11066c1.05606,-0.54257 1.77512,-1.04378 2.14267,-1.31467c0.76018,-0.56026 1.50839,-1.18707 2.20801,-1.884c0.70087,-0.69818 1.33878,-1.45027 1.66666,-1.8125c0.64771,-0.71553 1.65897,-1.69714 2.02118,-1.978c0.71237,-0.55237 1.47021,-1.00395 2.16898,-1.49101c0.99457,-0.69325 1.54517,-1.23389 2.06985,-1.77716c0.52866,-0.54739 1.04724,-1.15596 2.10464,-1.85316c0.78043,-0.51459 1.24731,-0.70076 2.20334,-1.11084c0.49933,-0.21419 2.09805,-0.81236 2.65335,-1.0105c0.56204,-0.20055 1.70325,-0.59175 2.27866,-0.77933c0.57394,-0.18709 1.71323,-0.54539 2.83334,-0.85417c0.54401,-0.14996 1.6131,-0.41335 2.14133,-0.53067c1.04898,-0.23299 1.57684,-0.33777 3.19199,-0.636c0.55411,-0.10231 1.68192,-0.30237 2.24802,-0.41066c0.56488,-0.10806 1.67856,-0.33427 2.216,-0.47467c1.53549,-0.40111 2.00006,-0.58678 2.87598,-0.92932c0.80386,-0.31436 1.49741,-0.69194 2.724,-1.01601c0.73776,-0.19493 1.936,-0.336 2.71753,-0.522l0.7905,-0.222l0.92798,-0.25867l0.79169,-0.14583" id="svg_15" stroke-width="2" stroke="#000" fill="none"/>
  <path t="32452,32597,32597,32598,32617,32618,32618,32621,32622,32622,32622,32622,32622,32639,32640,32640,32640,32640,32640,32640,32649,32650,32650,32650,32650,32650,32650,32650,32661,32661,32661,32661,32661,32661,32661,32661,32670,32670,32670,32670,32670,32671,32681,32681,32681,32682,32682,32694,32695,32695,32711,32711,32711,32732,32732,32732,32744,32744,32761,32761,32761,32769,32770,32770,32770,32780,32780,32780,32780,32794,32794,32794,32794,32795,32811,32811,32811,32812,32818,32818,32818,32830,32830,32844,32867,32867,32879,32895,32904,32904,32916,32928,32928,32929,32945,32945,32946,32953,32954,32954,32954,32954,32965,32965,32965,32978,32978,32979,32995,32995" d="m299.5,190.89999c2.39868,-2.40132 3.02539,-2.98608 3.51468,-3.68533c0.67041,-0.95811 0.8573,-1.57401 1.18265,-2.16133c0.74863,-1.35138 1.05206,-1.68782 1.67868,-2.41049c0.33463,-0.38593 1.08627,-1.15942 1.49466,-1.54733c1.27841,-1.21429 1.74567,-1.6017 2.21735,-1.99284c0.95837,-0.79474 1.46909,-1.16872 1.99466,-1.53065c0.53082,-0.36555 2.24567,-1.34941 2.86032,-1.629c0.6228,-0.28331 1.26874,-0.53584 1.92902,-0.77101c0.66711,-0.23759 1.3465,-0.46014 2.73065,-0.86932c1.39453,-0.41225 2.09708,-0.60187 2.79333,-0.80267c0.69073,-0.1992 1.37265,-0.3979 2.0415,-0.60001c0.65512,-0.19795 1.91141,-0.58603 3.0625,-1c0.53806,-0.1935 1.53577,-0.59361 2.45834,-1c0.44702,-0.19691 1.3201,-0.60646 2.20831,-1c0.91174,-0.40398 1.83569,-0.78287 2.29169,-0.95833c0.87161,-0.3354 2.03445,-0.74068 2.97015,-0.93182c0.73474,-0.1501 1.77811,-0.3138 2.38217,-0.54584c0.88486,-0.33992 1.86966,-0.77339 2.41467,-0.95334c0.81683,-0.26968 1.86536,-0.42654 2.75381,-0.6315c1.04028,-0.23997 1.60281,-0.7184 2.25684,-1.12849c0.9021,-0.56566 1.72369,-0.75586 2.61069,-0.86534c0.63873,-0.07884 1.67572,-0.20258 2.41498,-0.338c0.78079,-0.14304 1.59552,-0.32933 2.905,-0.48067c0.91354,-0.10559 1.84793,-0.13408 2.3125,-0.14583c0.91086,-0.02304 2.18753,-0.01416 2.94885,-0.02217c1.00961,-0.01064 1.62036,0.01898 2.65048,-0.22c0.9184,-0.21307 1.505,-0.5766 2.517,-0.7215c0.91159,-0.13051 1.90451,-0.05717 2.88852,-0.05717c0.69064,0 1.63065,0 2.616,0c0.89999,0 1.69998,0 2.57199,0c0.871,0 1.60001,0 2.43701,0c1.19116,0 2.10165,0 2.72699,0c1.33066,0 2.048,0 2.78934,0c0.74933,0 1.49066,0 2.88934,0c0.64932,0 1.58081,0 2.48532,0c0.89099,0 1.728,0 2.66666,0l0.96716,-0.05716" id="svg_16" stroke-width="2" stroke="#000" fill="none"/>
  <path t="36782,36928,36954,36954,36970,36985,36989,36989,37001,37001,37001,37014,37014,37014,37014,37014,37028,37028,37028,37028,37028,37028,37044,37044,37044,37044,37050,37050,37050,37062,37062,37062,37078,37078,37078,37078,37088,37088,37088,37099,37100,37100,37100,37100,37111,37111,37111,37111,37128,37128,37128,37128,37137,37137" d="m323.5,194.89999c0,1.75717 -0.12497,2.67479 0.08533,3.51601c0.22018,0.88071 1.15079,1.30527 1.91467,1.65067c0.71634,0.3239 1.54034,0.74127 2.28265,0.79733c0.88156,0.06657 1.884,0.036 2.60535,0.036c0.76932,0 1.59467,0 2.48401,0c1.47067,0 1.996,0 3.07864,0c0.54935,0 1.64401,0 2.18134,0c1.52469,0 1.99469,0 2.87466,0c0.80002,0 2.16,0 2.98352,0c0.72449,0 1.67648,0 2.46698,0c0.85352,0 2.04285,0 2.94284,0c0.60001,0 1.5,0 2.70267,0c0.61868,0 1.26935,0.00232 2.73068,0c0.83466,-0.00133 1.27295,0.01093 2.16666,-0.04166c0.89606,-0.05272 2.17883,-0.25543 2.92932,-0.52766c0.71185,-0.25822 1.33344,-0.64694 2.57068,-1.26401c0.59143,-0.29497 1.18933,-0.52 2.04285,-0.80499l1.03564,-0.24017l0.90067,-0.10066" id="svg_17" stroke-width="2" stroke="#000" fill="none"/>
  <path t="37990,38161,38173,38173,38191,38191,38191,38203,38203,38203,38215,38215,38215,38215,38215,38222,38222,38222,38222,38231,38231,38232,38232,38244,38245,38261,38261,38261,38261,38261,38269,38270,38270,38270,38270,38280,38280,38280,38280,38281,38281,38281,38294,38294,38294,38294,38294,38294,38294,38310,38310,38310,38311,38311,38311,38318,38318,38318,38318,38318,38318,38330,38330,38330,38331,38331,38331,38343,38343,38343,38343" d="m273.5,221.89999c0.436,1.81467 1.00082,2.6653 1.63599,3.05067c0.85181,0.51682 1.37726,1.00945 2.05069,1.46666c0.96405,0.65454 1.55588,0.89171 2.53217,1.121c1.10147,0.2587 1.94897,0.28046 2.38651,0.30901c0.89429,0.05836 1.79367,0.06407 3.06131,0.21933c0.76611,0.09383 1.46725,0.24899 2.42435,0.53784c0.91504,0.27615 1.80179,0.59981 2.38815,0.77466c0.83188,0.24806 1.83905,0.4294 2.78217,0.54617c1.07309,0.13287 1.7092,0.25941 2.41068,0.39999c0.74918,0.15013 1.52661,0.32419 2.72852,0.45317c0.81088,0.08702 1.6619,0.10587 2.57098,0.117c0.48447,0.00594 2.09302,0.00526 2.68451,0.00316c0.61551,-0.0022 1.90656,-0.01669 2.57599,-0.03467c0.68161,-0.01831 1.37289,-0.03517 2.76801,-0.13066c0.70001,-0.04791 2.08722,-0.18925 2.76801,-0.28c0.67029,-0.08934 1.32681,-0.18539 1.96048,-0.315c1.78036,-0.36415 2.3154,-0.5368 3.3045,-0.89999c0.47385,-0.174 1.37814,-0.57104 2.24835,-1.02501c0.89288,-0.46579 1.80487,-0.99712 2.27582,-1.27049c0.96555,-0.56049 1.45392,-0.85281 1.94733,-1.14734c1.49673,-0.89345 1.99466,-1.19576 2.98203,-1.7865c0.48129,-0.28796 1.40463,-0.83847 1.84198,-1.09467c1.16922,-0.68492 1.81552,-1.045 2.60901,-1.4935l0.65851,-0.4035" id="svg_18" stroke-width="2" stroke="#000" fill="none"/>
  <path t="39357,39531,39531,39554,39554,39554,39572,39572,39572,39572,39577,39577,39577,39577,39589,39589,39589,39589,39589,39589,39589,39599,39599,39599,39599,39599,39599,39599,39610,39610,39610,39610,39611,39611,39611,39627,39627,39627,39627,39627,39627,39635,39635,39636,39636,39647,39647,39647,39647,39663,39663,39663,39664,39664,39664,39680,39680,39680,39680,39680,39680,39680,39681,39681,39686,39687,39687,39687,39687,39687,39687,39687,39688" d="m222.5,254.89999c2.00983,1.2955 2.77382,1.61365 3.83333,1.83334c0.71234,0.14771 1.43216,0.16345 2.5,0.33334c0.63895,0.10165 1.68942,0.34665 2.4185,0.53781c1.08449,0.28436 1.76546,0.50024 2.44417,0.6955c1.06888,0.3075 2.30318,0.60391 2.76866,0.70001c1.00963,0.20847 1.55359,0.30237 2.11867,0.39999c1.18648,0.20499 1.8056,0.30252 3.08334,0.5c0.65446,0.10114 1.9857,0.29761 2.65866,0.38934c0.67438,0.09195 1.34854,0.18173 2.022,0.25351c1.98387,0.2114 2.6308,0.23941 3.26599,0.27182c0.62482,0.03186 1.84497,0.06647 2.44,0.07468c0.58498,0.00809 2.28,0.01065 2.82484,0.01065c1.05566,0 1.56448,0 2.53915,0c0.91068,0 2.13995,0.00894 2.87283,-0.00449c1.02481,-0.01877 1.69687,-0.05099 2.73135,-0.21716c0.73938,-0.11877 1.50543,-0.29935 2.28299,-0.54001c1.20581,-0.3732 2.01291,-0.71005 2.84882,-1.13834c0.457,-0.23416 0.94528,-0.49911 1.97336,-1.21332c1.2298,-0.85434 1.88486,-1.41092 2.59998,-2.00002c0.76352,-0.62895 1.55649,-1.30975 2.3775,-2.0325c0.85248,-0.75044 1.72226,-1.53407 2.60251,-2.3475c1.80139,-1.66466 2.69446,-2.52615 3.59067,-3.388c0.89514,-0.86081 1.78134,-1.72266 2.66101,-2.577l0.86966,-0.84433l0.85767,-0.83034l0.84366,-0.81233" id="svg_19" stroke-width="2" stroke="#000" fill="none"/>
  <path t="40622,40793,40805,40818,40818,40835,40835,40835,40835,40835,40854,40855,40855,40855,40855,40859,40859,40859,40859,40860,40860,40860,40870,40871,40871,40871,40871,40871,40871,40883,40883,40883,40883,40883,40883,40883,40883,40896,40897,40897,40897,40897,40897,40897,40897,40897,40904,40904,40904,40904,40904,40904,40904,40905,40905,40915,40915,40915,40915,40915,40915,40916,40916,40916" d="m205.5,279.89999c1.7,0.99551 2.636,1 3.48801,1c0.79466,0 1.84532,0 2.48399,0c1.0905,0 1.89417,0 2.31599,0c1.33368,0 2.27367,0 3.25368,0c0.50499,0 1.545,0.00064 2.625,0c1.11867,-0.00067 1.69054,-0.00134 2.26933,-0.01065c1.17479,-0.01892 1.76895,-0.03799 2.36533,-0.07468c1.80061,-0.11078 2.40131,-0.19327 3.00317,-0.28082c1.21924,-0.17737 1.83313,-0.30923 2.45267,-0.45267c0.6299,-0.14581 1.91713,-0.49228 3.23216,-0.95584c0.6855,-0.24167 1.38155,-0.52252 2.09399,-0.8295c0.7384,-0.31815 1.49699,-0.66754 2.274,-1.0545c1.65205,-0.82275 2.51054,-1.3006 3.40001,-1.80133c0.92201,-0.51907 1.86519,-1.07367 2.82599,-1.66501c0.98868,-0.60852 1.99446,-1.24936 3.00601,-1.935c2.09229,-1.41818 3.13521,-2.19971 4.19466,-2.992c1.07193,-0.80164 2.14134,-1.62399 3.216,-2.448c1.07466,-0.82401 2.14185,-1.64932 3.216,-2.448c2.10669,-1.56644 3.15842,-2.29208 4.19199,-2.99466c1.00919,-0.686 2.00269,-1.33865 2.96701,-1.974l0.93433,-0.61533l0.90033,-0.59735l0.86234,-0.58133" id="svg_20" stroke-width="2" stroke="#000" fill="none"/>
  <path t="41901,42022,42023,42023,42023,42023,42023,42037,42037,42037,42037,42037,42038,42038,42038,42038,42056,42056,42056,42057,42057,42057,42057,42057,42057,42062,42062,42062,42062,42062,42062,42062,42063,42063,42080,42080,42080,42080,42081,42081,42081,42081,42081,42086,42087,42087,42087,42087,42087,42088,42106,42106,42106,42110,42111,42111,42111,42128,42128,42129,42129,42138,42138,42138,42146,42146,42146,42146,42161,42162,42162,42162,42177,42177,42177,42178,42178,42182,42182,42182,42182,42194,42194,42194,42194,42194,42212,42212,42212,42220,42220,42230,42231,42231,42244,42244,42261,42262,42262,42268,42268,42281,42281,42281,42293,42294,42294,42294,42294,42310,42311,42311,42311,42311,42311,42311,42317,42317,42317,42317,42318,42318,42329,42329,42329,42329,42329,42330,42330,42344,42344,42344,42344,42344,42361,42361,42361,42362,42362,42367,42367,42367,42379,42379,42379,42393,42393,42394,42411,42411,42411,42416,42416,42428,42428,42443,42443,42453,42453,42465,42477" d="m363.5,208.89999c-3.08633,0.66484 -4.03964,1.07634 -4.56534,1.32935c-0.56183,0.27039 -1.15643,0.56146 -2.41068,1.24533c-1.3652,0.74438 -2.06873,1.16583 -2.79599,1.59734c-0.74847,0.44408 -1.51193,0.9086 -2.2905,1.39049c-0.79614,0.49275 -1.60507,1.00145 -2.42551,1.52551c-1.68155,1.07411 -2.53406,1.63168 -3.39334,2.196c-0.8634,0.56702 -1.72424,1.13899 -2.577,1.71599c-0.84592,0.57236 -1.67819,1.1423 -2.487,1.716c-1.56155,1.10767 -2.29263,1.65866 -2.996,2.19734c-0.68088,0.52145 -1.33191,1.0368 -1.9545,1.545c-0.60266,0.49193 -1.17969,0.9761 -1.72949,1.455c-1.04779,0.91264 -1.53406,1.36223 -2.00134,1.80133c-0.45264,0.42535 -0.88391,0.84547 -1.28998,1.2645c-0.39389,0.40646 -0.76834,0.80923 -1.11002,1.2195c-0.65628,0.78804 -0.935,1.19786 -1.20267,1.59868c-0.26089,0.39064 -0.49991,0.78058 -0.94934,1.53065c-0.4198,0.70064 -1.00424,1.64259 -1.62131,2.41068c-0.38943,0.48471 -1.21262,1.41855 -1.59869,1.94667c-0.6004,0.82129 -0.97491,1.40298 -1.43466,2.31465c-0.44424,0.88091 -0.62067,1.50188 -1.05066,2.31467c-0.54596,1.03204 -0.93158,1.4812 -1.57767,2.08084c-0.91797,0.85196 -1.4917,1.20987 -2.05917,1.60449c-0.87476,0.60834 -1.77753,1.20274 -2.38367,1.60001c-0.61453,0.40277 -1.24341,0.81583 -2.26215,1.39999c-0.7124,0.40851 -1.45929,0.80188 -2.24402,1.12801c-0.78134,0.32472 -1.98602,0.65079 -2.78934,0.76216c-0.7973,0.11053 -1.60327,0.12845 -2.79999,0.2765c-0.80002,0.09897 -1.58197,0.25571 -2.328,0.444c-0.70468,0.17786 -1.90884,0.57173 -2.63034,0.88933c-0.64609,0.28439 -1.64166,0.8 -2.24167,1.10001c-1,0.5 -1.79999,0.89999 -2.39999,1.2c-1,0.50002 -1.60001,0.8 -2.60001,1.3c-0.79999,0.39999 -1.40964,0.68134 -2.39999,1.2045c-0.60611,0.32019 -1.42697,0.83145 -2,1.36166c-0.63147,0.58426 -1.40967,1.66116 -1.80267,2.30585c-0.42932,0.70425 -0.62683,1.09775 -1.11166,1.89417c-0.79916,1.31277 -1.12231,1.75958 -1.45633,2.21649c-0.68835,0.94162 -1.05774,1.40784 -1.83832,2.3075c-0.38718,0.44623 -1.17838,1.28998 -1.99234,2.0405c-0.39713,0.36618 -1.21732,1.05127 -1.63467,1.384c-0.84491,0.67358 -1.73074,1.3519 -2.18533,1.70651c-0.93155,0.72672 -1.40198,1.09613 -1.87866,1.45801c-0.94339,0.71622 -1.39905,1.0769 -2.7785,1.978c-0.431,0.28156 -1.28519,0.78204 -2.11084,1.25748c-0.40601,0.2338 -1.6156,0.94449 -2.40799,1.46802c-0.39618,0.26175 -1.15878,0.79968 -1.88834,1.3075c-0.97803,0.68079 -1.81839,1.16629 -2.457,1.62451c-0.71835,0.51544 -1.21393,1.24396 -1.66718,1.78983c-0.69086,0.83203 -1.4382,1.38834 -1.93948,1.75949c-0.91263,0.67575 -1.59906,1.20044 -2.13333,1.72c-0.78,0.75851 -1.36182,1.26535 -1.78401,2.116c-0.37117,0.74783 -0.42133,1.88321 -0.85416,2.47919c-0.58145,0.8006 -1.19383,1.32083 -1.47467,2.22083l-0.0045,0.89999" id="svg_21" stroke-width="2" stroke="#000" fill="none"/>
  <path t="44709,44879,44879,44892,44892,44892,44905,44923,44941,44941,44952,44952,44987,45036" d="m254.5,295.89999c-0.83333,1.33334 -0.93127,2.05621 -1.16667,3c-0.20102,0.80594 -0.49321,1.53302 -0.83333,2.47919c-0.3036,0.8446 -0.83333,1.6875 -1,2.52081c-0.16667,0.83334 -0.61067,1.55334 -1.47917,2l-0.5,0.52084" id="svg_22" stroke-width="2" stroke="#000" fill="none"/>
  <path t="45877,46037,46049,46068,46069,46069,46069,46074,46074,46075,46087,46088,46088,46088,46088,46098,46098,46098,46098,46098,46112,46113,46113,46113,46113,46127,46127,46127,46127,46127,46133,46133,46133,46133,46133,46145,46145,46145,46160,46160,46170,46170,46170,46182,46182,46182,46193,46193,46209,46209,46210,46219,46219,46219,46231,46231,46244,46244,46244,46244,46244,46261,46261,46261,46261,46261,46261,46261,46261,46270,46270,46270,46270,46270,46270,46270,46270,46270,46280,46280,46280,46280,46280,46280,46280,46294,46294,46294,46294,46294,46310,46310,46310,46310,46310,46310,46318,46318,46318,46330,46331,46331,46344,46345,46345,46360,46361,46367,46367,46379,46380,46380,46394,46394,46411,46416,46416,46416,46416,46428,46428,46445,46445,46445,46453,46453,46454,46464,46464,46464,46464,46477,46477,46477,46495,46496,46496,46514,46514,46538,46539,46562,46563,46578,46579,46579,46595,46600,46613,46628,46650,46650,46674,46735,46748,46748,46761,46778,46786,46786,46797,46810,46811,46827,46834,46834,46835,46846,46860,46860,46877,46885,46894,46910,46927,46927,46944,46944,46960,46961,46980,47081" d="m271.5,295.89999c1.05267,-1.69998 1.573,-2.51236 2,-3.33331c0.34338,-0.66019 0.60202,-1.4873 0.79999,-2.06934c0.4068,-1.19595 0.57184,-1.82062 1.01434,-2.69736c0.46811,-0.92749 0.94287,-1.51151 1.45767,-2.09998c0.53561,-0.61227 1.12527,-1.20544 2.02832,-2.09985c0.60507,-0.5993 1.22861,-1.19485 1.914,-1.74298c0.35004,-0.27994 1.51874,-1.05444 2.39551,-1.49551c0.44675,-0.22473 1.37247,-0.62283 1.84201,-0.79999c1.37302,-0.51804 2.26251,-0.77872 3.11215,-1.03635c0.41501,-0.12585 1.24161,-0.34973 2.436,-0.79199c0.80594,-0.29843 1.58987,-0.65744 2.36401,-1.008c0.75119,-0.34015 1.8129,-0.80695 2.46982,-1.06818c0.88187,-0.35068 1.85153,-0.72729 2.50482,-1.15717c0.85422,-0.56207 1.49948,-1.01822 2.12302,-1.29999c0.94733,-0.42807 1.76288,-0.6756 2.5285,-1c0.87924,-0.37253 1.62976,-0.9306 2.33133,-1.62152c0.51843,-0.51053 1.08301,-1.08298 1.87833,-1.87833c0.58951,-0.58951 1.13147,-1.15475 1.91882,-1.91751c0.57043,-0.55261 1.38217,-1.2149 1.93735,-1.65598c0.65298,-0.51877 1.02151,-0.79279 1.75751,-1.45001c1.21188,-1.08221 1.58832,-1.5184 1.99182,-1.94598c0.83972,-0.88977 1.27264,-1.35687 1.73868,-1.81601c0.47919,-0.47211 0.97052,-0.96591 2.12265,-1.84799c0.60532,-0.46341 1.26651,-0.88806 1.94852,-1.30951c0.69266,-0.42804 1.40506,-0.83742 2.11951,-1.24651c0.71121,-0.40723 1.42532,-0.79161 2.76532,-1.61067c0.64038,-0.39142 1.82309,-1.19051 2.37067,-1.58932c0.52869,-0.38506 1.03574,-0.76196 1.95468,-1.52533c0.8511,-0.70703 1.60751,-1.39757 1.96033,-1.73267c0.67957,-0.64548 1.32031,-1.29211 2.21432,-2.31934c0.30481,-0.35023 0.90411,-1.07622 1.45834,-1.83334c0.54025,-0.73802 0.81131,-1.09319 1.39883,-2.17833c0.51773,-0.95624 0.68948,-1.61255 1.30948,-2.655c0.43961,-0.73915 0.87332,-1.11447 1.66669,-2.16667c0.43665,-0.57909 0.70383,-1.24849 1.48798,-1.97849c0.61728,-0.57466 1.50891,-1.02568 2.17868,-1.52151c0.81757,-0.60527 1.53784,-0.97244 2.01599,-1.38533c0.79749,-0.68864 1.07877,-1.53662 1.90533,-2.064c0.83423,-0.53226 1.59039,-0.75745 2.36401,-1.23601c0.53329,-0.32988 1.50879,-0.97081 2.19382,-1.27299c0.99503,-0.43895 1.84756,-0.46268 2.70618,-0.711c0.75443,-0.21819 1.54831,-0.69618 2.12534,-1.01601c1.1846,-0.6566 1.7771,-0.96181 2.68933,-1.27299c0.59286,-0.20224 1.79895,-0.42903 2.68933,-0.51633c0.57416,-0.05629 1.67627,-0.10223 2.564,-0.472c0.61334,-0.25549 1.37393,-1.02885 1.836,-1.728c0.52518,-0.79462 1.05673,-1.4203 1.61069,-2.31067c0.43759,-0.70331 0.78625,-1.52179 1.19998,-2.304c0.38727,-0.73221 0.97626,-1.40381 1.47867,-2.3105c0.41241,-0.74426 0.9118,-1.24437 1.34283,-2.00017c0.38156,-0.6691 1.37888,-1.19618 1.69318,-2.10133c0.3179,-0.91547 -0.13651,-1.89555 0.36932,-2.62933c0.48111,-0.69789 1.33279,-0.92667 2.01068,-1.222c0.86142,-0.37529 1.38739,-1.29999 2.05716,-1.59016c0.87048,-0.37714 1.98172,-0.34467 2.64899,-0.36166c0.71298,-0.01816 1.76138,-0.39423 2.22067,-1.0955c0.422,-0.64436 1.07556,-1.49741 1.97852,-1.81467c0.85275,-0.29962 1.56525,-0.35878 1.96664,-1.08534c0.42688,-0.77269 1.1785,-1.26849 1.63333,-1.88533c0.65845,-0.89296 0.91467,-1.63066 1.17917,-2.59383l0.02084,-0.82083" id="svg_23" stroke-width="2" stroke="#000" fill="none"/>
  <path t="50098,50255,50255,50255,50255,50267,50267,50267,50267,50267,50279,50280,50280,50292,50292,50292,50310,50310,50318,50318,50330,50330,50344,50378,50379,50440,50458,50526,50526,50542,50552,50552,50564,50575,50601,50601,50612,50612,50637,50651" d="m393.5,162.89999c2.97067,0.28667 3.67584,0.43277 4.42133,0.64667c0.78568,0.22543 1.98456,0.66086 2.77417,1.01051c0.78995,0.34979 1.54987,0.7426 1.91916,0.94415c1.07126,0.5847 2.02771,1.1969 2.63867,1.52667c1.06207,0.57326 1.8223,0.65691 2.58502,0.97734c0.83487,0.35074 1.19885,1.16702 1.98297,1.873c0.61777,0.55621 1.50092,0.93335 2.37418,1.01717c0.82159,0.07886 1.78851,0.00449 2.47916,0.00449c1.06818,0 1.92535,0 2.82535,0c0.79999,0 1.75717,0 2.65268,0c0.86331,0 1.82648,0 2.65182,0c1.01682,0 1.6955,0 2.67398,0l0.82019,0l0.90134,0l0.89999,0" id="svg_24" stroke-width="2" stroke="#000" fill="none"/>
  <path t="51685,51844,51845,51845,51845,51864,51864,51864,51864,51864,51870,51870,51870,51870,51870,51882,51882,51882,51891,51892,51892,51909,51909,51909,51917,51917,51929,51929,51941,51942,51942,51958,51958,51958,51966,51966,51966,51978,51979,51979,51991,51991,51991,52008,52103,52115,52130,52188,52200,52212,52212,52212,52227,52227,52243,52243,52250,52250,52300" d="m476.5,230.89999c-2.96933,-0.85599 -3.66519,-1.30266 -4.02084,-1.5625c-0.73914,-0.54001 -1.81812,-1.43118 -2.49384,-2.03749c-0.33093,-0.29694 -0.96777,-0.89665 -1.58081,-1.5c-0.90942,-0.89505 -1.50317,-1.49867 -2.09384,-2.08934c-0.57468,-0.57466 -1.12827,-1.12242 -1.88901,-1.88916c-0.67758,-0.68292 -1.13779,-1.06267 -1.90015,-2.12167c-0.42184,-0.58598 -0.73434,-1.24989 -1.12152,-2.22099c-0.31418,-0.78799 -0.53568,-1.60168 -1,-2.436c-0.44138,-0.79309 -1.13553,-1.61041 -1.37915,-2.16367c-0.41962,-0.95297 -0.46365,-1.7944 -0.60486,-2.66451c-0.16336,-1.00664 -0.4324,-1.83159 -0.56332,-2.41916c-0.26477,-1.18837 -0.31485,-2.08607 -0.37799,-2.6595c-0.11804,-1.07216 -0.42801,-2.00212 -0.62201,-2.68866c-0.27075,-0.95819 -0.33096,-1.76157 -0.34818,-2.53751c-0.02652,-1.19521 0.35419,-2.46817 -0.00449,-2.46817c-0.85834,0 0,1.83701 0,1.63501c0,-0.94601 0,-1.69751 0,-2.494c0,-0.99733 0,-1.87201 0,-2.88251c0,-0.77933 0,-1.77866 0,-2.59883l0,-0.90134" id="svg_25" stroke-width="2" stroke="#000" fill="none"/>
  <path t="53063,53186,53202,53202,53202,53219,53219,53223,53223,53223,53234,53247,53247,53247,53259,53259,53275,53275,53275,53275,53284,53284,53284,53296,53296,53309,53325" d="m456.5,188.89999c0,1.67201 0,2.76935 0,3.52084c0,0.79649 -0.06058,1.79848 0.03601,2.6685c0.11337,1.0211 0.34467,1.63062 0.76532,2.32533c0.54141,0.89417 1.34235,1.52785 2.03467,1.87466c0.74353,0.37245 1.77362,0.55293 2.436,0.636c1.06238,0.13322 2.03333,0.32733 2.728,0.47466c0.69467,0.14734 1.95447,0.40576 2.728,0.464c0.86755,0.06532 1.86749,0.036 2.61484,0.036l0.89999,0l0.95718,0" id="svg_26" stroke-width="2" stroke="#000" fill="none"/>
  <path t="55112,55289,55289,55302,55315,55315,55327,55342,55363,55388,55388,55413,55449,55474,55498,55524,55524,55542,55609,55624,55634,55646,55659,55683,55721,55721,55733,55770,55794,55794,55808,55820,55856,55893,55908,55918,55992,56014,56079,56079,56276,56325,56325,56374,56399,56436,56436,56473,56485,56498,56521,56534,56583,56609,56656,56681,56718,56768,56793,56830,56854,56867,56881,56881,56896,56907,56914,56914,56951,56951,56965,56979,56998,57015,57051,57052" d="m475.5,140.89999c2.59549,-0.35716 3.35379,-0.68814 4.24283,-1.29549c0.76688,-0.5239 1.59171,-0.50789 2.45718,-0.76167c0.87744,-0.25729 1.5856,-0.67438 2.39981,-1.16434c0.72412,-0.43575 0.94925,-1.42711 1.60468,-1.83116c0.77048,-0.47499 1.13193,-1.29439 1.51685,-2.04733c0.39017,-0.76318 0.77151,-1.71567 1.57999,-1.89867c0.87653,-0.19839 1.79868,-0.00134 2.69867,-0.00134c0.89999,0 1.85004,-0.13167 2.60001,0.22134c0.77551,0.36504 1.56641,0.6946 2.29999,1.21466c0.78699,0.55794 1.04538,1.38203 1.62534,2.12801c0.4855,0.62448 0.974,1.23734 0.97467,2.136c0.00067,0.89999 0.09637,1.70625 0.64734,2.35266c0.51517,0.6044 1.25092,1.27005 1.33182,1.96817c0.11026,0.95151 0.0462,1.97955 0.02084,2.77916c-0.02859,0.90137 -0.40985,1.62578 -1.10001,2.29984c-0.57892,0.56543 -1.49994,0.89482 -2.39999,0.90016c-0.89996,0.00533 -1.85016,-0.07304 -2.47467,0.42534c-0.60797,0.48518 -1.42532,0.57399 -2.32532,0.57466c-0.89868,0.00067 -1.43713,0.61174 -2.13602,0.964c-0.86142,0.4342 -1.87982,0.20273 -2.76266,0.03467c-0.75864,-0.14441 -1.42163,-0.74806 -2.09601,-1.05133c-0.83078,-0.3736 -1.25961,-1.28146 -1.62131,-2.14867c-0.27115,-0.65007 -0.47455,-1.65005 -0.88535,-2.31467c-0.5412,-0.87558 -1.29849,-1.36267 -2.07718,-1.70551l-0.12164,-0.87849l-0.1665,-0.90001l-0.48068,-0.7" id="svg_27" stroke-width="2" stroke="#000" fill="none"/>
  <path t="58000,58146,58146,58158,58158,58158,58158,58181,58181,58181,58185,58185,58196,58197,58209,58209,58226,58226,58226,58233,58233,58233,58233,58233,58244,58244,58244,58260,58260,58260,58260,58269,58269,58282,58282,58293,58293,58309,58309,58318,58330,58342,58359,58359,58367,58367,58367,58379,58379,58379,58379,58391,58392,58392,58392,58392,58392,58408,58408,58409,58409,58409,58417,58417,58417,58417,58417,58428,58428,58428,58453,58453" d="m487.5,119.9c-2.01434,0 -2.82132,0 -4,0c-0.60001,0 -1.5,-0.00008 -2.39999,0c-0.89966,0.00008 -1.78476,-0.05215 -2.58566,0.05717c-1.05951,0.14462 -1.73331,0.70296 -2.67151,0.88567c-0.73538,0.14321 -1.74283,0.0571 -2.54285,0.05717c-1.00049,0.00008 -1.86447,-0.00016 -2.65598,0.08533c-1.01141,0.10925 -1.80624,0.26897 -2.66486,0.41467c-0.87805,0.149 -1.3093,0.2422 -2.53616,0.37867c-1.0687,0.11887 -1.72833,0.09764 -2.94299,0.28799c-0.60297,0.09449 -1.48715,0.3314 -2.31467,0.63467c-1.00916,0.36984 -1.61627,0.75649 -2.664,1.07734c-0.75854,0.23228 -1.69672,0.4364 -2.36865,0.82583c-0.93045,0.53925 -1.53979,1.01928 -2.13184,1.7955c-0.55978,0.73392 -1.07278,1.31716 -1.43683,2.07067c-0.36951,0.76483 -0.35089,1.84026 -0.62567,2.47099c-0.32211,0.7394 -0.78195,1.60046 -1.11551,2.27718c-0.366,0.74252 -0.75751,1.54272 -1.34283,2.84782c-0.20322,0.45309 -0.59702,1.38367 -0.77866,1.85867c-0.36133,0.94482 -0.68118,1.8833 -0.888,2.808c-0.19577,0.87534 -0.27243,1.73415 -0.42001,2.556c-0.14606,0.81329 -0.552,2.02393 -0.98032,2.80167c-0.21753,0.39499 -0.71307,1.14914 -1.25168,1.83833c-0.73825,0.94466 -1.21967,1.45183 -1.83466,2.11333l-0.82501,0.83583l-0.48001,0.50067" id="svg_28" stroke-width="2" stroke="#000" fill="none"/>
  <path t="59378,59551,59551,59562,59562,59581,59581,59597,59597,59597,59597,59601,59602,59602,59614,59614,59614,59624,59624,59624,59624,59635,59636,59646,59660,59683,59683,59696,59720,59734,59747,59747,59763,59764,59781,59782,59786,59786" d="m493.5,157.89999c-1.836,0.42534 -2.58655,0.79532 -3.60001,0.94284c-0.79337,0.11548 -1.80402,0.01767 -2.63599,0.09317c-0.93594,0.08493 -1.71902,0.32504 -2.57468,0.53867c-0.58926,0.14711 -1.78812,0.35995 -2.68933,0.4045c-0.59949,0.02963 -1.80011,0.01266 -2.39999,0.02533c-0.90033,0.01901 -2.10294,0.14813 -2.69867,0.27951c-0.88531,0.19524 -1.70676,0.48604 -2.71466,0.63066c-0.83475,0.11978 -1.80133,0.08533 -2.78668,0.08533c-0.89999,0 -1.69998,0 -2.60001,0c-0.89999,0 -1.87204,0.01576 -2.25632,-0.70982c-0.40289,-0.76076 -0.88986,-1.41531 -1.54367,-1.76933c-0.99149,-0.53688 -1.54001,-1.15683 -2.06799,-2.00484l-0.43201,-0.51601" id="svg_29" stroke-width="2" stroke="#000" fill="none"/>
  <path t="61052,61212,61224,61241,61242,61248,61248,61267,61293,61294,61297,61297,61297,61297,61297,61346,61347,61374,61398,61457,61532,61557" d="m513.5,142.89999c0,3.45834 0,4.3045 0,5.16667c0,0.83333 0,1.81183 0,2.632c0,0.9585 0,1.87199 0,2.52c0,1.18132 0,1.93199 0,2.74666c0,0.82266 0,1.59734 0,2.79333c0,0.82333 0,1.74133 0,2.64133l0,0.90001l0,0.89999l0,0.90001" id="svg_30" stroke-width="2" stroke="#000" fill="none"/>
  <path t="62297,62468,62480,62504,62504,62517,62528,62543,62560,62565,62589,62602,62603,62639,62689" d="m514.5,150.89999c1.59998,0.61067 2.21674,1.42618 3,1.83334c0.74384,0.38667 1.52356,0.62709 2.29547,1.114c0.70245,0.44312 1.33496,0.88425 2.20453,1.0735c0.84625,0.18419 1.59998,0.85783 2.29999,1.06317l0.79999,0.49066l0.80005,0.38933" id="svg_31" stroke-width="2" stroke="#000" fill="none"/>
  <path t="67468,67614,67614,67633,67633,67645,67645,67645,67650,67650,67650,67661,67662,67662,67675,67675,67675,67692,67692,67700,67700,67710,67710,67725,67726,67735,67735,67747,67747,67748,67748,67760,67760,67760,67760,67761,67774,67774,67774,67774,67774,67785,67785,67785,67785,67795,67796,67796,67796,67808,67808,67808,67825,67825,67825,67833,67833,67845,67845,67857,67857,67875,67875,67883,67895,67896,67907,67907,67925,67932,67944,67968,67983,68081,68098,68110,68117,68140,68158,68166,68215,68215,68239,68314,68388,68437,68473,68495,68501,68517,68517,68517,68527,68527,68528,68535,68535,68547,68547,68558,68559,68584,68584,68609,68633,68646,68658,68683,68683,68707,68725,68733,68744,68744,68758,68758,68775,68775,68775,68781,68793,68817,68818,68830,68854,68855,68855,68879,68880,68892,68908,68909,68917,68917,68918,68928,68929,68929,68941,68941,68958,68959,68966,68966,68977,68990,69008,69015,69153,69182,69195,69200,69212,69225,69241,69241,69241,69250,69250,69250,69261,69261,69261,69285,69286,69286,69310,69310,69324,69325,69521,69534,69535,69535,69551,69552,69552,69552,69562,69563,69563,69563,69563,69564,69576,69576,69577,69577,69577,69582,69583,69583,69593,69593,69593,69607,69618,69630,69642,69643,69667,69680,69717,69730,69741,69759,69759,69767,69767,69779,69792,69792,69792,69807,69807,69808,69816,69816,69816,69817,69828,69828,69841,69841,69841,69858,69866,69867,69876,69891,69907,69914,69938,69938,69951" d="m355.5,332.89999c-1.82535,1.41068 -2.42395,1.68399 -3.116,2.48535c-0.57928,0.67078 -1.02637,1.53552 -1.54117,2.11017c-0.52942,0.59097 -1.33411,1.25098 -2.14282,1.77914c-0.59375,0.38779 -1.4212,0.92334 -1.98935,1.46133c-0.57611,0.54556 -1.30237,1.58139 -1.73151,2.14319c-0.42401,0.55508 -1.24561,1.13589 -1.95831,1.5c-1.02054,0.52139 -1.46927,1.22241 -2.23517,1.82083c-0.63165,0.49353 -1.49689,0.77856 -2.26483,1.19998c-0.86771,0.47617 -1.52896,1.0372 -2.35419,1.66669c-0.43085,0.32864 -1.21515,0.86594 -1.77567,1.29498c-0.90222,0.69058 -1.49692,1.21729 -2.091,1.77432c-0.60608,0.56824 -1.20349,1.16183 -2.09982,2.06418c-0.59802,0.60202 -1.18433,1.21622 -1.46417,1.53583c-0.56085,0.64056 -1.32819,1.67682 -1.77884,2.41669c-0.45016,0.73904 -0.84055,1.5015 -1.45715,2.58066c-0.39105,0.68442 -0.79034,1.31937 -1.164,1.91998c-0.67117,1.07889 -1.08658,1.78543 -1.42532,2.436c-0.52289,1.0043 -0.74255,1.65817 -1.29602,2.32535c-0.67529,0.81403 -1.53271,1.15872 -1.94666,1.96933c-0.32947,0.6452 -0.71783,1.65714 -1.35333,2.10535c-0.77087,0.5437 -1.40665,1.008 -2.11465,1.71066c-0.70264,0.69733 -1.20001,1.19998 -1.90002,1.89999c-0.59998,0.60001 -1.18582,1.21149 -1.99866,1.716c-0.73636,0.45706 -1.16159,1.13168 -1.82666,1.65866c-0.62622,0.49619 -1.57468,0.42532 -2.47467,0.42532c-0.89999,0 -1.79999,-0.00009 -2.70001,0c-0.89999,0.00009 -1.77216,0.21097 -2.39999,0.57468c-0.76987,0.44595 -1.73132,0.66873 -2.6955,0.42084c-0.71396,-0.18356 -0.95917,-1.56448 -0.26849,-1.9595c0.75455,-0.43155 1.73209,-0.00284 2.60565,-0.05682c0.647,-0.03998 1.64233,-0.26318 2.45834,-0.47919c0.81601,-0.216 1.81885,-0.38666 2.68933,-0.52533c1.01651,-0.16193 1.76364,-0.55173 2.64401,-0.80798c0.77505,-0.22562 1.81934,-0.16669 2.51398,-0.16669c1.01669,0 1.95267,0 2.85269,0c0.89999,0 1.79999,0 2.59998,0c0.90002,0 1.80002,0 2.72086,0c0.80066,0 1.68982,0 2.67917,0c0.79999,0 1.79999,0 2.58932,0c0.72534,0 1.79999,0 2.73151,0c0.80048,0 1.65381,0 2.59515,0c1.05066,0 1.72,0 2.48532,0c0.99417,0 1.91336,0 2.89868,0c0.82166,0 1.74667,0 2.66666,0c0.78601,0 1.60803,-0.00607 2.66669,0c0.93073,0.00534 1.58057,-0.01276 2.56534,0.284c0.78384,0.23621 1.73013,0.58154 2.48532,0.80002c0.96188,0.27826 1.608,0.7453 2.59515,0.89517c0.90042,0.13669 1.21347,0.60138 1.53152,1.41016c0.2854,0.72577 1.42114,0.68256 2.01465,1.18533c0.6337,0.5368 1.50418,0.91794 1.92651,1.72983c0.43509,0.83643 0.77396,1.33923 1.39999,2.10001c0.64352,0.78204 0.99219,1.41586 1.53217,2.1955c0.56982,0.82272 1.13217,1.40454 1.71732,2c0.59399,0.60446 1.17868,1.21182 1.79868,1.74283c0.77588,0.66452 1.55563,1.1745 2.43335,1.49051c0.8609,0.30997 0.92142,1.21442 0,1c-0.71075,-0.16541 -1.29398,-0.59497 -2.03351,-1.37668c-0.66461,-0.70251 -1.04242,-1.34567 -1.48517,-2.03c-0.48865,-0.75528 -1.00165,-1.59418 -1.54001,-2.48801c-0.27618,-0.45856 -0.55658,-0.9198 -1.09067,-1.85599c-0.77292,-1.35486 -1.00168,-1.79239 -1.43732,-2.62534c-0.40405,-0.77255 -0.76773,-1.48151 -1.22501,-2.41449c-0.38147,-0.77835 -0.71887,-1.47833 -0.90033,-2.46384c-0.14285,-0.77582 -0.00433,-1.88644 -0.73199,-2.58301c-0.64328,-0.61578 -1.1893,-1.24207 -1.556,-1.996c-0.3714,-0.76361 -0.51358,-1.56308 -0.84402,-2.38931c-0.31564,-0.78928 -0.7207,-1.37897 -1.06131,-2.21069c-0.29532,-0.72119 -1.29706,-1.07462 -2.04266,-1.59866c-0.70099,-0.49271 -1.55728,-0.79599 -2.42834,-0.80133c-0.729,-0.00446 -1.56601,0 -2.75699,0c-0.60001,0 -1.5,-0.00134 -2.70001,0c-0.59866,0.00067 -1.48456,-0.0293 -2.31467,0.08533c-1.01022,0.1395 -1.87885,0.51675 -2.68533,0.91467c-0.79355,0.39157 -1.48907,0.83923 -2.37466,1.38934c-0.77127,0.4791 -1.71988,0.38098 -2.45599,0.89465c-0.69165,0.48264 -1.36935,0.716 -2.26935,0.716l-0.89999,0l-0.79999,0l-0.90002,0.05716" id="svg_32" stroke-width="2" stroke="#000" fill="none"/>
  <path t="70793,70876,70889,70902,70902,70918,70918,70918,70918,70932,70932,70932,70932,70944,70944,70944,70944,70944,70950,70950,70950,70960,70960,70974,70974,70974,70991,70991,70998,70998,70998,70998,71009,71010,71010,71010,71024,71024,71024,71025,71025,71041,71042,71042,71042,71047,71047,71059,71059,71075,71075,71086,71086,71097,71097,71111,71111,71111,71128,71128,71145,71146,71159,71219,71231,71256,71275,71275,71281,71293,71309,71329,71329,71453,71465,71477,71478,71490,71490,71490,71508,71508,71508,71514,71514,71514,71526,71552,71552,71576,71590,71608,71608,71613,71625,71625,71642,71642,71651,71651,71662,71662,71663,71675,71675,71692,71692,71712,71724,71725,71744,71761,71775,71797,71921,71933,71945,71946,71958,71959,71976,71976,71977,71983,71983,71983,71994,71994,72008,72008,72025,72026,72032,72032,72043,72058,72076,72076,72081,72082,72092,72093,72108,72108,72124,72124,72130,72130,72130,72141,72142,72142,72158,72168" d="m324.5,371.89999c0,-1.69998 -0.14157,-2.72543 0.46799,-3.39999c0.47754,-0.52847 1.58527,-0.80917 2.24002,-1c0.72113,-0.21017 1.49515,-0.40344 2.69199,-0.69983c0.79944,-0.19797 1.59656,-0.39713 2.39999,-0.543c1.1955,-0.21707 1.99805,-0.28357 2.78934,-0.32117c0.77423,-0.0368 1.52533,-0.03534 2.92401,-0.03601c0.63998,-0.00031 1.52505,0.01184 2.56516,-0.00015c0.90085,-0.01041 1.92657,-0.15088 2.52151,-0.35251c0.80743,-0.27365 1.79907,-0.59448 2.63599,-0.63666c0.92953,-0.04684 1.72568,-0.01068 2.61069,-0.01068c0.63998,0 2.03998,0 2.79999,0c0.79999,0 1.63998,0 2.51999,0c0.91602,0 1.84802,0 2.772,0c0.45151,0 1.728,0 2.48935,0c1.00949,0 1.884,0 2.88666,0c0.87466,0 1.89825,-0.10648 2.66449,0.04169c0.8862,0.17136 1.25287,0.93179 2.02084,1.625c0.61322,0.55353 1.28998,1.05734 1.75717,1.74231c0.54736,0.80252 1.06116,1.38705 1.59015,1.93384c0.75742,0.7829 1.39145,1.3819 1.85135,2.14117c0.40479,0.6683 0.61707,1.84796 1.15399,2.46332c0.51578,0.59109 1.25436,0.98114 1.84735,1.62067c0.59973,0.64682 1.19785,1.39532 2.09998,1.43201c0.89929,0.03659 1.74695,0.30826 2.40002,0.64734c0.81348,0.42236 1.36084,-0.29642 1.29099,-1.3045c-0.05215,-0.7529 -0.41943,-1.55334 -1.01184,-2.36365c-0.32324,-0.44211 -0.98349,-1.38861 -1.34317,-2.2045c-0.35754,-0.81104 -0.71381,-1.86334 -1.03598,-2.52802c-0.3746,-0.77283 -0.87741,-1.51102 -1.60001,-2.24667c-0.48529,-0.49405 -1.40985,-0.86557 -2.29999,-1.00449c-0.81897,-0.12781 -1.46829,-0.841 -2.336,-0.98483c-0.83795,-0.13892 -1.76852,-0.01068 -2.76401,-0.01068c-0.80002,0 -1.80002,0 -2.60001,0c-1,0 -1.79999,0 -2.60001,0c-1,0 -1.79999,0 -2.79868,0c-0.76532,0 -1.71597,0 -2.60132,0c-0.79999,0 -1.70001,0 -2.60001,0c-0.89999,0 -2.35001,0.82318 -2.69098,0c-0.03094,-0.07468 0.93268,-0.39542 1.6955,-0.64734c0.97876,-0.32324 1.79547,-0.34732 2.79565,-0.35266c0.82068,-0.00439 1.48517,0 2.48383,0c0.81601,0 1.63202,0 2.85886,0c0.64648,0 1.65698,0 2.43631,0c0.99951,0 1.90485,0 2.84619,0c0.69064,0 1.76398,0 2.58533,0c0.91064,0 1.76398,0 2.70532,0c0.76801,0 1.72,0 2.48532,0c0.99869,0 1.79892,-0.02011 2.80002,0.00134c0.83517,0.01788 1.76834,0.15302 2.55133,0.35132c0.82538,0.20905 1.88068,0.48068 2.80066,0.61136l0.76001,0.03467l0.96582,0.00131l0.92084,0" id="svg_33" stroke-width="2" stroke="#000" fill="none"/>
  <path t="73608,73781,73781,73797,73797,73797,73815,73815,73819,73841,73841,73867,73868,73881,73897,73914,73927,73927,73940,73957,73964,73964,73989,73989,74013,74013,74037,74050,74063,74064,74174,74260,74359,74379,74395,74419,74433,74443,74469,74483,74483,74493,74518,74555,74568,74593,74606,74607,74623,74630,74630,74641,74658,74658,74658,74667,74667,74690,74690,74690,74708,74739,74777,74902,74902,74919,74938,74938,74941,74942,74942,74942,74952,74953,74953,74953,74953,74963,74963,74963,74963,74976,74976,74992,74992,74992,74998,75010,75010,75048,75071,75085,75085,75097,75097,75097,75109,75109,75123,75146,75146,75171,75183,75195,75207,75223,75223,75233,75244,75257,75274,75282,75282,75282,75293,75293,75293,75293,75308,75308,75308,75308,75325,75325,75325,75325,75326,75326,75331,75331,75331,75331,75342,75342,75343,75360,75360,75368,75368,75380,75391,75419,75420,75590,75614,75630,75630,75630,75630,75640,75640,75657,75657,75657,75658,75663,75664,75664,75664,75675,75675,75675,75675,75676,75690,75690,75691,75700,75700,75702,75712,75724,75724,75748,75761,75761,75774,75791,75792,75799,75799,75809,75810,75810,75824,75825,75825,75840,75840,75840,75848,75848,75859,75860,75996,75997,75997,76014,76015,76015,76026,76026,76027,76031,76031,76032,76043,76057,76058,76073,76074,76074,76074,76081,76081,76082,76092,76093,76093,76093,76107,76108,76108,76123,76130,76130,76143,76157,76167,76167,76179,76191,76207,76207,76228,76266,76291,76307,76316,76389,76512,76537,76550,76561,76599,76623,76646,76660,76673,76673,76690,76690,76698,76698,76709,76709,76723,76740,76740,76746,76771,76795,76806,76826,76832,76844,76844,76857,76857,76873,76873,76882,76918,77055,77068,77068,77084,77084,77085,77085,77100,77101,77101,77104,77117,77117,77140,77140,77158,77159,77167,77167,77176,77177,77191,77191,77206,77207,77207,77214,77215,77215,77225,77225,77241,77257,77258,77275,77336,77374,77397,77424,77522,77572,77609,77630,77793,77794" d="m401.5,333.89999c0,2.00983 0,2.78534 0,3.83334c0,0.93066 0.02893,1.56262 -0.00134,2.56534c-0.02856,0.94537 -0.49243,1.77124 -0.832,2.60132c-0.29318,0.71671 -0.1571,1.65274 -0.16666,2.51602c-0.01044,0.9425 -0.68542,1.49896 -0.97467,2.34531c-0.32043,0.93756 -0.71127,1.54208 -0.96817,2.43869c-0.24875,0.86823 -0.05716,1.86667 -0.05716,2.69998c0,0.83334 0,1.75269 0,2.65268c0,0.69467 0.13812,1.72226 -0.00449,2.64734c-0.14359,0.9314 -0.84735,1.4686 -0.99103,2.39999c-0.13721,0.8895 0.11401,2.01276 -0.61514,2.28934c-0.8316,0.31543 -1.78934,0.01065 -2.68933,0.01065c-0.90002,0 -1.80002,0 -2.70001,0c-0.79999,0 -1.70007,-0.01041 -2.60001,0c-0.90018,0.01044 -1.83618,0.26569 -2.27866,1.10001c-0.44275,0.83481 -0.7088,1.49405 -1.12134,2.39999c-0.36401,0.79944 -0.69101,1.39288 -0.98532,2.32535c-0.32098,1.01694 -0.91006,1.50824 -1.53201,2.05865c-0.6347,0.56174 -1.07489,1.32516 -1.58267,2.31583c-0.30173,0.58862 -0.71948,1.30164 -1.28934,2.16418c-0.54425,0.82382 -0.43549,1.78696 -0.77731,2.63599c-0.28751,0.71411 0.10696,0.89459 0.81934,0.28119c0.5683,-0.48935 1.20056,-1.4375 1.46332,-1.96783c0.41611,-0.83984 0.62299,-1.48074 1.05066,-2.48001c0.30884,-0.72162 0.66138,-1.46271 1.04401,-2.20801c0.38272,-0.74545 0.98392,-1.80682 1.38483,-2.46365c0.56122,-0.91949 0.93835,-1.46378 1.51917,-2.47635c0.37708,-0.65744 0.87799,-1.68909 1.18533,-2.28082c0.39072,-0.75226 1.10654,-1.57965 1.53336,-2.40451c0.34805,-0.67264 1.28101,-0.71356 2,-1.16666c0.70502,-0.44431 1.20813,-0.82291 2.16666,-0.83334c0.79993,-0.0087 1.60001,0 2.59549,0c0.91919,0 1.90451,0 2.72583,0c0.85333,0 1.80276,-0.13577 2.7785,0.00018c0.80188,0.11172 1.3046,0.84708 2.10019,1.28381c0.6481,0.35577 1.34406,0.96814 1.96933,1.43201c0.70502,0.52304 1.61526,0.73666 2.27383,1.38434c0.54221,0.53323 1.26031,0.85098 1.97833,1.44232c0.83307,0.68607 1.37094,1.22986 1.97983,1.68933c0.87415,0.65964 1.50406,0.97034 2.47067,1.41867c0.69614,0.32288 1.46732,0.67139 2.29599,1.11868c0.88925,0.47998 1.33466,0.74704 2.22665,1.2825c0.43866,0.26334 1.66296,1.02524 2.38651,1.48648c0.65707,0.41888 1.24652,0.81018 2.29718,1.44034c0.67111,0.40253 1.47348,0.87015 2.16901,1.66949c0.53629,0.61636 1.28827,1.03946 2.04282,1.40002c0.80811,0.38614 1.40991,0.92966 2.00983,1.66165c0.47949,0.58505 1.12338,2.38745 1.62933,1.87134c0.60367,-0.61575 -0.99716,-1.23166 -1.68933,-1.79184c-0.47705,-0.38608 -1.28134,-1.18164 -1.85464,-1.98932c-0.56259,-0.7926 -1.02615,-1.42725 -1.668,-2c-0.47159,-0.42081 -1.35712,-1.00528 -2.02719,-1.40451c-0.70782,-0.42172 -1.46738,-0.81537 -2.5235,-1.56216c-0.69763,-0.49332 -1.32748,-1.05057 -1.91998,-1.608c-0.56729,-0.53369 -1.33551,-1.29364 -2,-1.98935c-0.59457,-0.6225 -1.20694,-1.44867 -1.62134,-2.01465c-0.48816,-0.66672 -1.57727,-0.87122 -2.29199,-1.388c-0.61496,-0.44464 -0.93823,-1.52155 -1.81735,-1.74802c-0.6727,-0.17331 -1.81638,0.07059 -2.61615,-0.30682c-0.73746,-0.34802 -1.35925,-1.04037 -2.14651,-1.3425c-0.89496,-0.34344 -1.70514,-0.39792 -2.52798,-0.42532c-1.05817,-0.03525 -2,-0.01068 -2.67801,-0.01068c-0.96866,0 -1.77267,0 -2.59467,0c-1.03101,0 -1.91101,0 -2.93115,0c-0.82019,0 -1.2355,0 -0.43817,0c0.82199,0 1.71664,0 2.61667,0c0.89999,0 1.79999,0 2.6955,0c0.8685,0 1.93784,0 2.64282,0c0.97501,0 1.83633,0 2.78333,0c0.72,0 1.845,0 2.6355,0c0.85352,0 1.44418,0 2.64417,0c0.91953,0 1.55585,0 2.91986,0c0.72699,0 1.45798,0 2.16898,0c1.26669,0 2.02719,0 2.82184,0c0.98801,0 1.97202,0 2.66266,0c1.06818,0 1.92535,0 2.82535,0c0.79999,0 1.76239,-0.03674 2.5,0.52084c0.77731,0.58759 1.43707,0.96042 2.14282,1.53183c0.73065,0.59158 1.49561,0.62482 2.19052,1.11401c0.715,0.50333 2.19217,1.19861 1.64581,1.8125c-0.31564,0.35464 -0.8877,-0.97281 -1.47916,-1.47919c-0.59442,-0.50891 -1.5,-0.49777 -2.39999,-0.5c-0.89999,-0.00226 -1.74817,-0.38275 -2.48535,-0.716c-0.73303,-0.33139 -1.71597,-0.28333 -2.71466,-0.284c-0.79999,-0.00055 -1.79868,0 -2.564,0c-0.95065,0 -1.836,0 -2.63599,0c-0.90002,0 -1.80002,0 -2.70001,0c-0.89999,0 -1.79999,0 -2.70001,0c-0.90015,0 -1.68533,0 -2.63599,0c-0.76532,0 -1.75949,0 -2.67868,0c-0.96448,0 -2.42291,0.91516 -2.76733,-0.00449c-0.1897,-0.50653 1.11908,-0.58609 2.11536,-1.16217c0.49942,-0.28879 1.12451,-0.88394 1.85065,-1.26401c0.95316,-0.4989 1.80707,-0.48337 2.54666,-0.65201c1.12399,-0.25629 1.73276,-0.95865 2.40533,-1.51733c0.65262,-0.54208 1.3566,-0.97009 2.36401,-1.23331c0.77411,-0.20224 1.83334,-0.16669 2.62534,-0.16669c0.85999,0 1.77917,0 2.776,0c0.61951,0 1.76532,0 2.55133,0c0.82199,0 1.88107,-0.01962 2.59018,0.00452c0.85379,0.02905 1.85303,0.28696 2.62115,0.57016c0.9473,0.34924 1.83685,0.38812 2.63599,0.42532c0.91766,0.04272 1.48523,0.67844 2.116,1.284c0.57288,0.54999 0.96106,1.43298 1.69467,1.70535c0.83426,0.30972 1.68933,0.36331 2.48935,0.88916l0.89999,0.12149l0.79999,0" id="svg_34" stroke-width="2" stroke="#000" fill="none"/>
 </g>
 <g display="none">
  <title>muse_image</title>
  <image xlink:href="http://farm3.static.flickr.com/2243/1561396266_ce111103bb.jpg" id="muse" height="480" width="595" y="0" x="22.5"/>
 </g>
 <g display="none">
  <title>bbox</title>
  <rect stroke="#f00" fill="none" stroke-width="3" height="295.38462" width="455.77" y="83.37469" x="82" id="bbox"/>
 </g>
</svg>
