<svg width="640" height="480" xmlns="http://www.w3.org/2000/svg" xmlns:svg="http://www.w3.org/2000/svg" xmlns:xlink="http://www.w3.org/1999/xlink">
 <!-- Sketchy ANNOTATION
  ImageNet ID: n01532829_2619
  URL: http://farm1.static.flickr.com/48/133930992_0c84677bf2.jpg
  Image Width: 500
  Image Height: 382
  BBox X: 101
  BBox Y: 82
  BBox Width: 177
  BBox Height: 187
  Exposure: 2000ms
  Synset Label: songbird
  Synset ID: n01526521
  Worker Tag: bird on branch
  Sanity Check: 
   Saved
  Comment: 
   {}
  Worker ID: A1VGZ2K3HF66TE
  Assignment ID: 3IOEN3P9S7J0XL1LQ4NGC45NRLN61S
  HIT ID: 31KPKEKW4AD49OZ40AVMKVDKWBJ0BF
  Work Time: 31s
  Worker Score: 0.5000
 END ANNOTATION -->
 <g display="inline">
  <title>Layer 1</title>
  <path t="0,150,152,152,153,153,153,168,168,169,169,169,169,169,169,169,197,198,198,198,198,198,198,198,199,207,208,208,208,208,208,209,232,233,233,233,233,233,249,250,250,250,251,251,306,349,349,364,364,364,365,365,365,365,365,399,399,399,399,400,400,400,400,438,438,438,439,439,439,439,439,447,448,448,448,448,453,483,483,483,484,507,508,520,521,521,521,521" d="m296,139c9.67233,-0.00034 10.29877,0.00261 10.89301,-0.009c1.1489,-0.02246 1.73181,-0.05269 2.33734,-0.10533c2.10641,-0.18314 2.94083,-0.32597 3.84299,-0.45366c0.95288,-0.13486 1.93994,-0.28304 2.94751,-0.43201c1.01242,-0.1497 2.01422,-0.30022 2.99249,-0.43201c1.81863,-0.245 2.63608,-0.32793 3.39066,-0.40132c0.70013,-0.0681 1.3551,-0.12253 1.97101,-0.1875c0.58676,-0.06189 1.15356,-0.12552 1.70099,-0.2325c1.09744,-0.21446 1.64746,-0.40433 2.20801,-0.59734c0.57086,-0.19656 1.7142,-0.63354 2.29068,-0.83734c0.57092,-0.20183 2.25558,-0.66982 2.80399,-0.72617c1.06482,-0.10942 1.59735,-0.06963 2.64667,0.02084c0.52817,0.04553 2.14084,0.23303 2.69482,0.27182c1.10019,0.07703 1.63037,0.09247 2.60251,0.11084c0.7959,0.01505 1.28473,-0.21251 0.51068,0.15649c-0.61893,0.29506 -1.60446,1.40424 -2.11069,1.84618c-0.56177,0.49042 -1.16745,1.01797 -1.806,1.5705c-0.65741,0.56883 -1.32217,1.14244 -1.98599,1.70551c-1.26062,1.06932 -1.84366,1.54796 -2.392,1.99333c-0.51776,0.42053 -1.01538,0.81677 -1.49701,1.19699c-0.9368,0.73953 -1.40948,1.10388 -2.375,1.875c-0.51065,0.40785 -1.57312,1.27515 -2.11731,1.72801c-0.55051,0.45811 -1.10016,0.92229 -1.64401,1.39049c-0.53879,0.46382 -1.5769,1.37616 -2.52667,2.25484c-0.43961,0.40671 -1.21356,1.14589 -1.54132,1.46667c-0.92581,0.90613 -1.14401,1.13333 -1.61069,1.59999c-0.54666,0.54666 -1.15247,1.03828 -2.01599,2.02501c-0.58926,0.67331 -1.09583,1.52933 -1.61682,2.30865l-0.28452,0.42368l-0.57199,0.84534l-0.2695,0.39366" id="svg_1" stroke-width="2" stroke="#000" fill="none"/>
  <path t="884,1079,1080,1080,1080,1080,1080,1080,1080,1080,1097,1098,1098,1161,1161,1161,1161,1161,1166,1166,1166,1166,1171" d="m334,138c-10.5,3.83333 -11.43558,4.17741 -12.34134,4.51466c-0.87857,0.32712 -1.73013,0.64729 -2.5545,0.96451c-0.80093,0.30818 -1.57825,0.6116 -2.3295,0.91949c-1.44507,0.59225 -2.13226,0.8989 -2.80133,1.19867c-0.65091,0.29163 -1.27985,0.58168 -1.88998,0.86099c-0.58984,0.27 -1.70221,0.7901 -2.75,1.20834c-0.95587,0.38155 -1.86136,0.672 -2.29169,0.8125l-0.83264,0.269" id="svg_2" stroke-width="2" stroke="#000" fill="none"/>
  <path t="1497,1813,1830,1832,1832,1832,1832,1882,1882,1882,1882,1882,1882,1896,1896,1896,1896,1896,1896,1896,1901,1902,1902,1902,1902,1902,1928,1928,1928,1929,1963,1964,1964,1964,1964,1970,1970,1970,1970,1971,1971,1971,1971,1981,1981,1982,1982,1982,1982,1982,2015,2015,2015,2015,2016,2016,2032,2032,2033,2033,2033,2034,2034,2034,2034,2051,2052,2053,2053,2054,2064,2064,2065,2065,2065,2065,2104,2105,2105,2105,2106,2106,2106,2114,2114,2115,2115,2115,2116,2116,2131,2132,2132,2148,2197,2198,2198,2198,2214,2283,2284,2284,2289,2290,2290,2290,2291,2299,2315,2316,2316,2316,2316,2349,2349,2350,2350,2350,2363,2364,2364,2365,2365,2365,2365,2366,2384,2385,2385,2385,2386,2386,2387,2388,2410,2411,2412,2412,2413,2413,2414,2414,2414,2433,2433,2434,2434,2434,2435,2435,2436,2453,2454,2454,2454,2455,2455,2455,2456,2456,2484,2484,2485,2485,2486,2486,2486,2487,2487,2492,2493,2494,2494,2495,2495,2496,2497,2497,2515,2516,2516,2517,2517,2518,2518,2519,2519,2530,2533,2534,2535,2535,2536,2536,2537,2537,2548,2549,2550,2550,2551,2551,2552,2553,2553,2580,2581,2582,2583,2583,2584,2585,2586,2586,2598,2599,2599,2600,2600,2601,2602,2602,2603,2632,2633,2634,2634,2635,2635,2636,2636,2636,2643,2644,2645,2646,2647,2648,2649,2664,2665,2666,2666,2667,2667,2667,2697,2699,2699,2700,2701,2701,2703,2707,2708,2709,2710,2731,2768,2769,2770,2771,2781,2799,2800,2801,2802,2802,2834,2835,2836,2836,2837,2848,2850,2851,2852,2852,2853,2854,2855,2856,2866,2867,2868,2869,2869,2870,2871,2900,2901,2901,2902,2903,2903,2904,2915,2916,2918,2919,2920,2921,2922,2932,2933,2934,2934,2935,2935,2936,2936,2937,2948,2949,2950,2951,2951,2952,2953,2954,2979,2980,2980,2981,2982,2983,2998,3000,3000,3001,3002,3003,3004,3005,3013,3015,3015,3017,3018,3019,3019,3020,3021,3030,3032,3033,3033,3034,3035,3036,3037,3038,3047,3048,3050,3051,3052,3053,3054,3055,3056,3081,3082,3083,3084,3085,3086,3087,3091,3097,3105,3107,3107,3108,3109,3110,3112,3113,3114,3119,3121,3123,3124,3125,3126,3128,3129,3131,3149,3151,3153,3154,3155,3156,3157,3158,3158,3182,3184,3185,3186,3187,3188,3189,3190,3191,3197,3199,3200,3201,3202,3203,3204,3206,3207,3230,3232,3233,3234,3235,3236,3237,3238,3239,3246,3248,3249,3251,3252,3254,3261,3263,3265,3272,3273,3274,3275,3277,3279,3280,3281,3282,3288,3290,3292,3293,3295,3296,3298,3299,3302,3319,3320,3321,3323,3324,3325,3326,3327,3328,3345,3347,3349,3350,3352,3354,3355,3356,3356,3364,3366,3367,3368,3370,3372,3374,3375,3377,3401,3403,3404,3405,3406,3407,3407,3408,3409,3428,3434,3435,3438,3439,3440,3441,3443,3446,3456,3458,3459,3461,3463,3465,3466,3468,3469,3482,3484,3485,3487,3488,3490,3491,3492,3493,3514,3516,3517,3519,3522,3523,3524,3525,3527,3547,3549,3550,3552,3553,3555,3556,3557,3558,3581,3583,3585,3586,3587,3588,3589,3590,3591,3598,3600,3601,3603,3605,3606,3608,3630,3632,3634,3635,3636,3637,3638,3640" d="m293,140c-7.672,-6.12134 -8.57416,-6.55652 -9.24832,-6.7715c-0.88007,-0.28062 -1.3689,-0.44998 -2.39169,-0.8325c-1.03064,-0.38545 -1.99191,-0.79678 -2.45914,-0.987c-0.91895,-0.37411 -1.37634,-0.5755 -2.35419,-0.83833c-1.03644,-0.27858 -2.19928,-0.40756 -2.80917,-0.45183c-0.62357,-0.04526 -1.25854,-0.07651 -2.53665,-0.05267c-0.63443,0.01183 -1.86926,0.08434 -3.0275,0.21918c-0.55096,0.06415 -1.59106,0.22986 -2.08002,0.32533c-0.92212,0.18005 -2.1611,0.45592 -2.879,0.70284c-1.01038,0.34752 -1.65793,0.68723 -2.51465,1.45132c-0.64612,0.57625 -0.9285,0.9583 -1.57169,1.73917c-0.34637,0.42052 -1.46011,1.83032 -1.87082,2.33867c-0.42526,0.52635 -0.86563,1.0638 -1.31851,1.608c-0.4581,0.55049 -0.9165,1.10516 -1.85599,2.18134c-0.9088,1.041 -1.36009,1.52568 -1.79468,1.99733c-0.82924,0.89998 -1.22971,1.32523 -1.60533,1.74933c-0.71878,0.81154 -1.65059,2.01512 -1.91333,2.42801c-0.53008,0.83302 -0.76654,1.28909 -1.2175,2.27916c-0.24435,0.53645 -0.7213,1.74644 -0.97316,2.42067c-0.26563,0.71107 -0.5314,1.4523 -0.804,2.2095c-0.27473,0.76314 -0.54665,1.52232 -0.82201,2.2635c-0.26605,0.71614 -1.02573,2.59441 -1.26601,3.11249c-0.43059,0.92844 -0.85152,1.74687 -1.02499,2.15251c-0.53067,1.24083 -0.78595,2.20874 -0.89549,2.72699c-0.22952,1.08586 -0.30142,1.65881 -0.34734,2.242c-0.1404,1.78302 -0.08557,2.38718 -0.0495,2.98784c0.07272,1.21063 0.15082,1.81956 0.21599,2.43466c0.06583,0.62125 0.25259,2.53036 0.29317,3.18466c0.04079,0.65773 0.0719,1.31381 0.10068,2.59601c0.01378,0.61392 0.01857,1.202 0.02083,2.75c0.00116,0.80266 0,1.66666 0,2.11465c0,0.552 0,1.47751 0,2.19785c0,0.70033 0.05426,1.85881 0.22133,2.18567c0.31638,0.61893 0.4642,1.55724 0.612,2.66849c0.10986,0.82605 0.13791,1.67447 0.15601,2.472c0.01555,0.68523 0.01067,1.78267 0.01067,2.64484c0,0.741 0,1.65401 0,2.1525c0,1.03601 0.00493,2.55492 -0.004,3.03067c-0.01741,0.92693 -0.08554,1.85617 -0.1675,2.32916c-0.26843,1.54912 -0.48141,2.1058 -0.68584,2.69217c-0.43639,1.25166 -0.71965,1.8898 -1.01067,2.54134c-0.29625,0.66325 -0.60355,1.33199 -1.29868,2.63733c-0.34619,0.6501 -0.71545,1.2854 -1.095,1.914c-0.38045,0.6301 -1.18246,1.87968 -1.59999,2.50534c-0.42245,0.63304 -1.30429,1.91449 -1.75951,2.5685c-0.46078,0.662 -0.9272,1.32686 -1.39349,1.9935c-0.46471,0.66437 -0.92517,1.3232 -1.3755,1.97549c-0.44165,0.63971 -1.27916,1.87477 -1.66716,2.46767c-0.37726,0.57649 -0.74219,1.14737 -1.09201,1.72351c-0.71124,1.17136 -1.0603,1.79311 -1.41866,2.44266c-0.77469,1.40422 -1.17723,2.18184 -1.60001,3c-0.44,0.85147 -0.88562,1.7332 -1.332,2.6385c-0.45233,0.91737 -0.90056,1.84291 -1.332,2.7735c-0.84627,1.82535 -1.22826,2.7197 -1.59866,3.59334c-0.36253,0.85504 -0.7084,1.6985 -1.04851,2.52899c-0.33589,0.82019 -0.6649,1.63438 -1.00349,2.43901c-0.67586,1.60611 -1.03571,2.40344 -1.39999,3.19865c-0.36273,0.79179 -0.73114,1.57242 -1.09651,2.34151c-0.35864,0.75491 -0.71301,1.49005 -1.0515,2.2065c-0.6398,1.35422 -0.92946,1.99086 -1.2,2.60533c-0.26237,0.59592 -0.511,1.18411 -0.7485,1.77151c-0.23853,0.58994 -0.4725,1.19302 -0.70349,1.8165c-0.49149,1.32657 -0.7403,2.04776 -1.00134,2.80133c-0.27036,0.78043 -0.54282,1.5835 -0.81599,2.40298c-0.27618,0.82852 -0.54971,1.66125 -0.81599,2.49301c-0.522,1.63049 -0.76419,2.42145 -0.99734,3.19199c-0.22678,0.74945 -0.442,1.47943 -0.64499,2.19c-0.19696,0.68945 -0.38341,1.3591 -0.55501,2.01001c-0.32646,1.23831 -0.46719,1.83112 -0.604,2.41199c-0.13617,0.57813 -0.26828,1.16394 -0.40349,1.7655c-0.14081,0.62643 -0.28738,1.28738 -0.4485,1.99051c-0.3604,1.57281 -0.57155,2.45499 -0.8,3.392c-0.23845,0.978 -0.48904,1.98077 -0.7515,2.99249c-0.26157,1.00827 -0.52318,1.99722 -0.79651,2.94751c-0.50166,1.74417 -0.7551,2.50378 -0.99733,3.19333c-0.2226,0.63367 -0.4462,1.2146 -0.66451,1.755c-0.20718,0.51288 -0.41827,1.0025 -0.61949,1.48499c-0.40527,0.97174 -0.60448,1.48166 -0.80133,2.00934c-0.40651,1.0896 -0.60023,1.65143 -0.8,2.216c-0.40048,1.13187 -0.79675,2.24924 -1.00034,2.79352c-0.40225,1.07541 -0.6106,1.6109 -1.07167,2.6825c-0.237,0.55081 -0.48364,1.11539 -1.06133,2.272c-0.6187,1.23877 -0.96877,1.86029 -1.31734,2.48532c-0.34613,0.62064 -0.69102,1.22726 -1.04401,1.8045c-0.95157,1.55615 -1.24347,1.98257 -1.7775,2.67749c-0.57898,0.75342 -0.79196,1.05032 -0.86116,1.366c-0.17813,0.81253 -0.6712,1.33109 -0.96133,1.92267c-0.57755,1.17761 0.12799,1.41068 1.07599,1.41068c0.802,0 1.23601,0 2.14,0c1.35817,0 2.2485,0 2.70668,0c0.97733,0 1.5105,0 3.37199,0c0.72816,0 1.50534,0 2.3205,0c0.84218,0 1.70033,0 2.56351,0c0.85716,0 1.69733,0.00052 3.28267,0c0.72583,-0.00024 1.40675,0.00104 2.0475,-0.01349c0.60596,-0.01376 1.73604,-0.06979 2.26332,-0.15802c1.53618,-0.25705 2.03362,-0.46698 3.02701,-0.89999c0.51215,-0.22324 1.53258,-0.75851 2.05266,-1.04199c0.52927,-0.28848 2.16296,-1.18994 2.73218,-1.48517c0.57944,-0.30054 1.17598,-0.59644 1.79399,-0.88049c0.63264,-0.29077 1.96523,-0.86057 3.41667,-1.35419c0.75964,-0.25833 1.55067,-0.48608 2.358,-0.7095c0.81667,-0.22598 1.64171,-0.43747 2.466,-0.64648c0.8177,-0.20734 1.6264,-0.40012 3.17599,-0.81067c0.73651,-0.19513 1.44237,-0.39709 2.12399,-0.58649c0.65704,-0.18256 1.29004,-0.36194 1.908,-0.50552c1.17403,-0.2728 2.30049,-0.42447 2.84683,-0.444c1.07233,-0.03836 1.60625,0.01834 2.68251,0.06c0.54837,0.02121 2.27322,-0.01315 2.88216,-0.08817c0.63264,-0.07791 1.28487,-0.19553 2.66068,-0.45667c0.72543,-0.1377 1.47444,-0.28983 2.2545,-0.41248c1.63771,-0.25754 2.50502,-0.3299 3.39465,-0.40002c0.90875,-0.07166 1.8335,-0.12436 2.76752,-0.1875c0.9393,-0.06351 1.88016,-0.12448 2.8125,-0.23248c1.83755,-0.21286 2.72632,-0.3985 3.59467,-0.60135c0.85611,-0.20001 1.69138,-0.43594 2.50949,-0.68698c0.80725,-0.24771 1.5965,-0.51425 2.37451,-0.77701c1.52161,-0.51385 2.26553,-0.76172 3,-0.996c0.72125,-0.23004 1.4306,-0.44949 2.12549,-0.66449c0.67978,-0.21033 1.34457,-0.41342 1.99051,-0.61951c1.24045,-0.39575 1.83112,-0.59821 2.40799,-0.80533c0.57349,-0.2059 1.14685,-0.42422 1.7265,-0.65851c0.59775,-0.24161 1.2164,-0.50433 1.86151,-0.79349c1.41397,-0.63379 2.18439,-1.00629 3.00131,-1.40002c0.85715,-0.41315 1.745,-0.85001 2.65802,-1.30649c0.935,-0.46747 1.88351,-0.94803 2.83798,-1.4415c1.9151,-0.99008 2.85907,-1.49225 3.79068,-1.99866c0.92404,-0.50229 1.83478,-1.01163 2.72549,-1.539c0.88397,-0.52338 1.75375,-1.05756 2.59052,-1.629c1.65924,-1.13312 2.43567,-1.76346 3.19864,-2.39734c0.75705,-0.62894 1.48465,-1.27765 2.19,-1.93201c0.69461,-0.64438 1.36246,-1.29218 2.01001,-1.93201c1.24472,-1.22989 1.83188,-1.8248 2.40668,-2.40399c0.56683,-0.57117 1.12906,-1.14301 1.6875,-1.7265c0.5683,-0.59381 1.14676,-1.20972 1.73248,-1.86151c1.25769,-1.39954 1.91461,-2.18002 2.59866,-3.00131c0.71014,-0.8526 1.42883,-1.74023 2.14801,-2.65802c0.72888,-0.93018 1.4519,-1.87476 2.14801,-2.83798c1.37164,-1.89795 1.99445,-2.85214 2.59332,-3.79068c0.58533,-0.9173 1.13553,-1.82706 1.65451,-2.72549c0.50623,-0.87634 0.98355,-1.73984 1.4295,-2.59052c0.85522,-1.63141 1.24036,-2.42648 1.60132,-3.21466c0.35901,-0.78394 0.69485,-1.58661 0.98999,-2.42398c0.30548,-0.86671 0.58569,-1.78986 0.81,-2.78401c0.49728,-2.20386 0.64316,-3.4624 0.80136,-4.8c0.16684,-1.41045 0.2981,-2.88733 0.40948,-4.416c0.1142,-1.56737 0.20508,-3.1636 0.27451,-4.776c0.13882,-3.2233 0.17023,-4.81308 0.20267,-6.37733c0.03183,-1.53409 0.05167,-3.03331 0.06448,-4.49249c0.01242,-1.41415 0.01758,-2.77834 0.0195,-4.08749c0.0036,-2.43333 0.00223,-3.55034 0,-4.60934c-0.00214,-1.013 -0.00674,-1.99202 -0.0195,-2.94899c-0.0126,-0.94704 -0.03098,-1.89618 -0.06448,-2.85901c-0.07016,-2.0164 -0.13379,-3.08911 -0.19867,-4.2c-0.06641,-1.13713 -0.14099,-2.28801 -0.216,-3.44099c-0.07434,-1.14302 -0.15015,-2.26384 -0.216,-3.351c-0.12259,-2.0237 -0.16272,-2.94035 -0.20267,-3.79468c-0.03741,-0.80034 -0.07114,-1.55508 -0.12299,-2.271c-0.04974,-0.6868 -0.10788,-1.35326 -0.21301,-2.00101c-0.21051,-1.2968 -0.40182,-1.94695 -0.59601,-2.60399c-0.19547,-0.66138 -0.41464,-1.31334 -0.62848,-1.9575c-0.20883,-0.62917 -0.41986,-1.23419 -0.5835,-1.82249c-0.2966,-1.06647 -0.36392,-1.55286 -0.40002,-1.99867c-0.03336,-0.41193 -0.02823,-0.79741 -0.01648,-1.158c0.01111,-0.34077 0.03979,-0.66553 0.0285,-0.978c-0.02194,-0.60695 -0.10352,-0.90884 -0.20535,-1.20667c-0.10498,-0.30698 -0.24716,-0.61179 -0.40649,-0.91949c-0.16455,-0.31778 -0.35092,-0.63638 -0.5415,-0.96451c-0.39581,-0.68144 -0.59726,-1.03531 -0.79599,-1.39867c-0.20126,-0.36798 -0.39999,-0.74133 -0.60001,-1.116c-0.20001,-0.37466 -0.39786,-0.74849 -0.60001,-1.116c-0.39584,-0.71964 -0.59821,-1.06357 -0.79999,-1.39867c-0.19824,-0.32924 -0.39886,-0.65007 -0.60001,-0.96451c-0.19888,-0.31088 -0.39941,-0.61671 -0.60001,-0.91949c-0.39886,-0.60208 -0.59851,-0.90242 -0.80267,-1.2c-0.2045,-0.2981 -0.41431,-0.59401 -0.63898,-0.88051c-0.22604,-0.28827 -0.46332,-0.5728 -0.729,-0.83549c-0.54416,-0.53806 -0.86749,-0.76938 -1.19467,-0.99733c-0.32693,-0.22778 -0.66196,-0.43419 -0.99301,-0.6255c-0.31708,-0.18323 -0.621,-0.34555 -0.90298,-0.49049c-0.47043,-0.24181 -0.6561,-0.32625 -0.80667,-0.412c-0.13696,-0.078 -0.26773,-0.16763 -0.3945,-0.285c-0.33365,-0.3089 -1.10419,-1.2083 -1.48666,-1.64549c-0.43753,-0.50014 -0.91501,-1.04634 -1.41751,-1.62151l-0.51248,-0.58717l-0.995,-1.14233l-0.45251,-0.52116" id="svg_3" stroke-width="2" stroke="#000" fill="none"/>
  <path t="4070,4246,4246,4246,4246,4246,4246,4246,4246,4263,4263,4263,4263,4263,4264,4299,4299,4299,4299,4299,4300,4318,4319,4319,4319,4319,4319,4319,4331,4331,4332,4332,4364,4398,4413,4414,4414,4414,4414,4414,4414,4453,4453,4453,4453,4453,4454,4456,4456,4464,4464,4465,4465,4465,4465,4465,4465,4466,4499,4499,4500,4500,4500,4500,4500,4501,4501,4509,4510,4510,4510,4511,4512,4513,4513,4513,4532,4533,4533,4533,4533,4534,4534,4534,4534,4547,4547,4566,4568,4581,4582,4582,4582,4582,4614,4615,4615,4616,4616,4616,4616,4617,4632,4633,4634,4634,4634,4635,4635,4635,4636,4647,4648,4648,4649,4649,4649,4649,4650,4650,4663,4664,4665,4665,4665,4666,4666,4666,4667,4699,4700,4700,4701,4701,4702,4702,4747,4752,4753,4753,4754,4754,4754,4781,4781,4782,4782,4782,4783,4783,4783,4813,4814,4815,4815,4815,4816,4816,4816,4817,4826,4828,4829,4829,4830,4830,4831,4831,4832,4845,4846,4847,4847,4848,4849,4850,4850,4851,4900,4902,4913,4914,4915,4915,4916,4916,4916,4917,4951,4952,4953,4953,4954,4954,4954,4955,4955,4965,4967,4968,4968,4969,4970,4970,4976,4977,4984,4985,4985,4986,4987,4987,4988,4989,4990,5015,5016,5017,5017,5018,5018,5018,5019,5019,5050,5052,5079,5079,5080,5081,5081,5082,5082,5097,5098,5098,5099,5099,5100,5101,5101,5113,5115,5116,5117,5118,5118,5119,5120,5121" d="m314,282c5.2785,7.478 5.71326,8.11163 6.14282,8.72934c0.4198,0.60364 0.83231,1.19025 1.24652,1.75198c0.40228,0.54556 0.76968,1.09653 2.01031,2.4545c0.38568,0.42215 1.1817,1.17474 1.55869,1.54333c0.7326,0.71631 1.14511,1.03268 1.99881,2.26419c0.58612,0.84552 0.78952,1.34613 1.022,1.84c0.48587,1.0322 0.70218,1.59055 1.1875,2.75c0.51593,1.23257 0.78442,1.86365 1.05869,2.496c0.2731,0.62967 0.53705,1.25366 1.09067,2.43198c0.50616,1.07733 0.74994,1.55859 1.21332,2.392c0.53812,0.96786 0.32358,1.92535 0.54535,1.34668c0.39075,-1.01968 1.9216,0.00278 2.42099,-0.01801c1.13025,-0.047 1.74481,-0.11353 2.37866,-0.21066c0.65173,-0.09988 1.98038,-0.38434 3.24835,-0.92065c0.65942,-0.27893 1.31271,-0.64648 1.98148,-1.05902c0.70923,-0.4375 1.44138,-0.94302 2.20651,-1.509c1.70526,-1.26138 2.6188,-2.00842 3.59201,-2.78531c1.01053,-0.8067 2.03842,-1.63898 3.07648,-2.4765c1.03259,-0.83316 2.04376,-1.65259 3.03152,-2.43152c1.81555,-1.43173 2.63486,-2.04514 3.396,-2.59332c0.70261,-0.50604 1.36929,-0.96091 2.00998,-1.371c0.61288,-0.3923 1.21988,-0.75677 1.83002,-1.10101c1.24634,-0.70319 1.91672,-1.04587 2.60266,-1.40799c0.69937,-0.3692 1.40646,-0.73923 2.10901,-1.116c0.69479,-0.37259 1.37427,-0.73874 2.01898,-1.116c1.19876,-0.70148 1.71899,-1.05545 2.19067,-1.39334c0.43237,-0.30972 0.81262,-0.608 1.1445,-0.88651c0.29312,-0.246 0.53851,-0.46872 0.7395,-0.6615c0.28442,-0.27283 0.34067,-0.37659 0.11465,-0.10931c-0.46918,0.55481 -0.82281,1.27942 -1.24716,1.948c-0.51328,0.80869 -0.79865,1.25497 -1.49417,2.13998c-0.73303,0.93274 -1.15536,1.37186 -2.05765,2.24402c-0.47528,0.45941 -0.99203,0.91873 -1.53302,1.40399c-0.57166,0.51276 -1.18634,1.04764 -2.50131,2.26401c-0.7233,0.66907 -1.47321,1.38806 -2.25302,2.13898c-0.8042,0.77438 -1.62152,1.56982 -2.45099,2.37302c-0.83255,0.80615 -1.65613,1.61368 -3.29599,3.15466c-0.78644,0.73901 -1.55756,1.44424 -2.31451,2.11499c-0.73254,0.64914 -1.45169,1.26566 -2.1615,1.845c-0.68671,0.56052 -1.353,1.10287 -2.69067,2.04001c-0.63693,0.4462 -1.27246,0.84717 -1.89148,1.21951c-0.59314,0.35678 -1.1691,0.6799 -1.72052,0.9765c-0.51968,0.27954 -1.01135,0.53061 -1.888,0.97064c-0.38004,0.19073 -0.72266,0.36136 -1.02899,0.5145c-0.27234,0.13617 -0.51266,0.25635 -1.06168,0.53085c-0.35999,0.17999 0.42282,-0.21442 1.13602,-0.56668c0.90247,-0.44574 1.41144,-0.69031 1.952,-0.94131c1.14078,-0.52972 2.33472,-1.04053 2.93701,-1.28317c0.60571,-0.24402 1.22717,-0.47858 2.52399,-0.98334c0.69165,-0.2692 1.42068,-0.55521 2.18701,-0.8775c1.69403,-0.71243 2.61734,-1.14313 3.59467,-1.59601c1.01938,-0.47238 2.06577,-0.96722 3.13498,-1.46399c1.07745,-0.50058 2.15201,-1 3.22501,-1.46399c2.05792,-0.88989 3.04272,-1.26013 3.98535,-1.59067c0.89334,-0.31326 1.74759,-0.58029 2.56049,-0.7995c0.76212,-0.20551 1.48041,-0.37476 2.15549,-0.4845c1.19382,-0.19406 1.72391,-0.20868 2.20135,-0.20667c0.43152,0.0018 0.81985,0.0343 1.164,0.08698c0.30655,0.04694 0.57574,0.10425 0.80399,0.177c0.83511,0.2662 0.09485,0.70831 -0.63733,1.11469c-1.06509,0.59113 -1.70486,0.94464 -2.40268,1.32532c-0.74249,0.40506 -1.52011,0.82495 -2.32349,1.24951c-0.81393,0.43015 -2.43845,1.26263 -3.23151,1.64899c-0.77502,0.37756 -1.54416,0.73709 -2.31299,1.08151c-0.76917,0.34457 -1.5506,0.67941 -2.349,1.00949c-0.81757,0.33801 -2.5459,1.0213 -3.46585,1.37283c-0.95071,0.36328 -1.92804,0.7272 -2.92648,1.08301c-1.00723,0.35892 -2.02045,0.70557 -3.03452,1.02899c-1.0007,0.31915 -2.95132,0.87576 -3.88815,1.10266c-0.90067,0.21814 -1.77069,0.40048 -2.604,0.56702c-0.79407,0.15869 -1.55002,0.29791 -2.26199,0.44098c-0.66931,0.13449 -1.86926,0.41232 -2.39117,0.57751c-0.47937,0.15173 -0.90811,0.31857 -1.28549,0.4935c-0.33875,0.15701 -0.62949,0.31747 -0.87152,0.47549c-0.20685,0.13504 -0.27133,0.70978 0.53018,0.70984c1.09033,0.00009 1.59866,-0.00073 2.16699,0.00449c1.27673,0.01172 1.96509,0.02823 2.67334,0.05267c0.71844,0.02481 2.14557,0.10257 2.83667,0.16434c1.36462,0.12198 2.05508,0.21384 2.76666,0.29935c0.74176,0.08911 1.52292,0.18744 2.35501,0.28049c1.85242,0.20712 2.89032,0.30069 3.99066,0.39868c1.14597,0.10205 2.32132,0.19998 3.50848,0.29999l1.18219,0.10001l1.16016,0.10001l1.12115,0.09998" id="svg_4" stroke-width="2" stroke="#000" fill="none"/>
  <path t="5354,5513,5513,5514,5514,5514,5514,5514,5514,5530,5530,5530,5530,5530,5531,5531,5547,5596,5597,5598,5598,5598,5602,5603,5603,5603,5613,5614,5614,5614,5631,5631,5631,5631,5632,5632,5632,5632,5632,5663,5663,5663,5664,5664,5664,5664,5664,5664,5690,5691,5691,5691,5691,5691,5691,5691,5692,5699,5700,5700,5700,5700,5701,5701,5701,5703,5715,5748,5766,5781,5781,5782,5782,5782,5782,5782,5783,5783,5797,5798,5798,5798,5799,5799,5799,5800,5800,5830,5831,5831,5831,5832,5832,5832,5874,5875,5875,5875,5875,5876,5884,5885,5915,5915,5916,5916,5917,5917,5917,5918,5918,5932,5933,5933,5934,5934,5934,5935,5935,5936,5947,5947,5948,5948,5948,5949,5949,5949,5950,5983,5983,5984,5984,5985,5986,5986,5987,5987,6003,6004,6004,6018,6036,6038,6048,6049,6049,6050,6050,6051,6051,6052,6081,6082,6082,6082,6083,6083,6083,6084,6084,6099,6100,6101,6101,6102,6102,6103,6103,6104,6115,6116,6116,6117,6117,6117,6118,6118,6119,6130,6131,6131,6132,6132,6133,6133,6134,6165,6180,6181,6182,6182,6183,6185,6221,6222,6222,6223,6223,6223,6224,6224,6225,6234,6235,6236,6236,6237,6237,6238,6238,6250,6251,6252,6252,6252,6253,6253,6254,6254" d="m328,261c9,7.33334 9.67279,7.91254 10.29199,8.45868c0.57971,0.51132 1.64279,1.46112 2.15201,1.89865c0.49786,0.42776 0.98535,0.8623 2.056,1.64267c1.12503,0.82001 1.729,1.18066 2.31201,1.54666c0.5611,0.35223 1.5975,0.95053 2.02399,1.22668c1.15015,0.74469 1.49609,1.4718 2.05518,2.04266c0.69131,0.70587 1.07632,1.08005 1.94748,1.67999c0.79834,0.5498 1.94638,0.91751 2.61969,0.89984c0.63583,-0.01666 1.84494,-0.25998 2.46866,-0.36118c1.09363,-0.17746 1.53647,-0.26138 3.073,-0.86801c0.63779,-0.2518 1.31155,-0.5863 2.02951,-0.95248c0.7583,-0.38678 1.5365,-0.81216 2.32648,-1.26752c0.80313,-0.46292 1.60931,-0.93286 3.14401,-1.94666c0.74255,-0.49054 1.45154,-0.99783 2.142,-1.509c0.68558,-0.50757 1.35974,-1.03043 2.034,-1.56299c0.68378,-0.54007 1.37411,-1.10101 2.82401,-2.26135c0.76251,-0.61023 1.54791,-1.23209 2.34451,-1.86298c0.79941,-0.63312 1.59378,-1.26105 2.37149,-1.88101c0.75525,-0.60205 1.48297,-1.17551 2.784,-2.25601c0.57327,-0.4761 1.08328,-0.91647 1.53448,-1.31549c0.39789,-0.35187 0.73764,-0.66229 1.02151,-0.9285c0.23221,-0.21774 0.41,-0.39001 0.3815,-0.36017c-0.6785,0.71011 -1.18921,1.18982 -2.10416,2.10416c-0.38373,0.38345 -0.82883,0.82858 -1.3335,1.32001c-0.54984,0.5354 -1.14185,1.10086 -1.77451,1.67999c-0.65289,0.59769 -1.31403,1.21219 -2.72534,2.33334c-0.68982,0.548 -1.39264,1.04953 -2.091,1.52399c-0.68311,0.46408 -1.36493,0.89661 -2.03699,1.30801c-0.65533,0.40118 -1.30148,0.77838 -2.53867,1.50134c-0.59042,0.34503 -1.16348,0.68002 -2.26135,1.33066c-0.5307,0.31451 -1.05099,0.62476 -2.06934,1.23468c-1.00299,0.60074 -1.50189,0.90002 -2.47116,1.48331c-0.457,0.27502 -1.33536,0.69482 -1.93417,1.17667c-0.31976,0.25729 0.28934,0.04666 1.73602,-0.55865c0.63803,-0.26697 1.35178,-0.55786 2.133,-0.87601c0.84277,-0.3432 1.74203,-0.70724 2.69098,-1.09198c0.99304,-0.40259 2.0249,-0.81915 4.17603,-1.69867c1.10928,-0.45355 2.23145,-0.91547 3.35849,-1.38602c1.12762,-0.47076 2.24704,-0.94412 3.34949,-1.422c1.08322,-0.46951 2.14215,-0.92529 4.12534,-1.85867c0.92892,-0.43719 1.80399,-0.87473 2.634,-1.29599c0.7886,-0.40024 1.53217,-0.78833 2.23801,-1.15201c0.66684,-0.3436 1.28973,-0.68036 2.46133,-1.21866c0.53076,-0.24387 1.03494,-0.44772 1.50601,-0.61951c0.43054,-0.15701 0.82556,-0.28278 1.18198,-0.3765c0.31125,-0.08185 0.57925,-0.16498 0.97867,-0.17065c0.12634,-0.0018 0.36148,0.15512 -0.13065,0.63065c-0.5864,0.56662 -1.05975,0.54849 -2.69351,1.36469c-0.76239,0.38089 -1.61465,0.806 -2.54251,1.26599c-0.98712,0.48938 -2.01935,0.99869 -3.08249,1.51801c-1.07681,0.526 -3.21628,1.55658 -4.25333,2.04434c-1.00964,0.47485 -2.00024,0.93179 -2.97751,1.371c-0.96442,0.43344 -1.9252,0.85406 -2.88751,1.26297c-0.96436,0.40979 -2.93137,1.21191 -3.94116,1.60867c-1.01953,0.4006 -2.04474,0.79288 -3.06598,1.17902c-1.00809,0.38116 -1.99725,0.7496 -2.95801,1.10699c-0.92459,0.34393 -2.63434,0.98007 -3.40384,1.27084c-0.70917,0.26797 -1.35574,0.51541 -1.93948,0.7395c-0.51993,0.19962 -0.9744,0.37537 -1.36353,0.5235c-0.32159,0.12241 -0.75848,0.28784 -0.87698,0.31616c-0.05481,0.01309 -0.06064,-0.00494 -0.0195,-0.03302c0.07089,-0.04837 0.17273,-0.09726 0.40799,-0.22131c0.84082,-0.44336 1.66464,-0.95459 2.36966,-1.34833c0.42206,-0.23572 1.42145,-0.737 2,-0.98935c0.62131,-0.271 2.02209,-0.78647 2.79834,-1.02216c0.81042,-0.24606 1.65567,-0.46835 2.52002,-0.68552c0.87231,-0.21918 1.74686,-0.42447 2.60999,-0.6315c0.84354,-0.20233 2.43109,-0.60056 3.15668,-0.80399c0.68768,-0.19278 1.3421,-0.39133 1.97998,-0.56851c0.62552,-0.17374 1.24408,-0.37753 2.54669,-0.57599c1.4057,-0.21414 2.18625,-0.20248 2.99731,-0.20132c0.8371,0.00119 1.68802,0.04266 2.54102,0.08698l0.84299,0.05435l0.82101,0.06033l0.78699,0.06232" id="svg_5" stroke-width="2" stroke="#000" fill="none"/>
  <path t="6825,7047,7064,7065,7065,7065,7098,7132,7137,7138,7138,7138,7148,7163,7198,7199,7199,7199,7199,7218,7218,7218,7234,7235,7235,7249,7249,7249,7280,7297,7297,7298,7298,7314,7314,7330,7331,7331,7331,7354" d="m266,142c2.46799,7.948 3.16428,8.14577 3.78665,8.08533c0.77792,-0.07555 2.88406,1.1947 2.88,-0.08533c-0.00134,-0.42365 -0.66666,-0.83333 -0.66666,-1.42c0,-1.08 0.06918,-1.81924 0,-2.74667c-0.06268,-0.84032 -1,-0.83333 -1.70667,-0.83333c-0.86667,0 -1.81332,0 -2.29166,0c-1.33502,0 -2.43347,-0.21535 -3.08701,0.108c-0.94644,0.46828 -0.89136,1.47472 -0.91202,2.38133c-0.0235,1.0309 -0.02704,1.74113 -0.00266,2.70534c0.02133,0.84348 0.89813,0.68842 1.41068,0.97766c0.60571,0.34181 1.33841,1.17506 2.38766,1.65617c0.66162,0.30336 1.52933,0.17149 2.30865,0.17149l0.85135,0l0.81131,0l1.10535,0" id="svg_6" stroke-width="2" stroke="#000" fill="none"/>
 </g>
 <g display="none">
  <title>muse_image</title>
  <image xlink:href="http://farm1.static.flickr.com/48/133930992_0c84677bf2.jpg" id="muse" height="480" width="628" y="0" x="6"/>
 </g>
 <g display="none">
  <title>bbox</title>
  <rect stroke="#f00" fill="none" stroke-width="3" height="234.97382" width="222.312" y="103.03665" x="132.856" id="bbox"/>
 </g>
</svg>
