<svg width="640" height="480" xmlns="http://www.w3.org/2000/svg" xmlns:svg="http://www.w3.org/2000/svg" xmlns:xlink="http://www.w3.org/1999/xlink">
 <!-- Sketchy ANNOTATION
  ImageNet ID: n01532829_13524
  URL: http://farm1.static.flickr.com/137/370801891_fbcf37a7d8.jpg
  Image Width: 425
  Image Height: 500
  BBox X: 36
  BBox Y: 111
  BBox Width: 275
  BBox Height: 260
  Exposure: 2000ms
  Synset Label: songbird
  Synset ID: n01526521
  Worker Tag: {}
  Sanity Check: 
   Saved
  Comment: 
   {}
  Worker ID: AQWPC9W9LXMRM
  Assignment ID: 3AMW0RGHOD2BLYQFANKNFB97PKBNP2
  HIT ID: 35XW21VSVGEGN65S0P3084F83XGSLH
  Work Time: 92s
  Worker Score: 0.6429
 END ANNOTATION -->
 <g display="inline">
  <title>Layer 1</title>
  <path t="0,134,150,166,174,174,198,222,230,246,254,254,266,266,283,283,283,301,301,317,317,333,334,334,355,355,367,367,383,384,400,422,422,433,451,452,468,483,519,519,534,534,534,552,552,574,574,617,619,620,634,634,634,655,655,677,678,678,684,684,700,700,716,716,716,733,733,733,751,751,766,766,784,814,821,837,838,851,900,916,916,916,916,1310,1310,1326,1327,1333,1334,1334,1350,1350,1350,1366,1366,1366,1385,1385,1385,1385,1400,1400,1400,1486,1486,1493,1502,1517,1533,1533,1550,1550,1550,1566,1566,1566,1566,1567,1567,1587,1587,1587,1587,1600,1600,1616,1616,1616,1633,1633,1650,1650,1666,1684,1684,1684,1700,1700,1700,1716,1716,1716,1716,1716,1716,1733,1734,1734,1750,1750,1750,1750,1750,1766,1766,1766,1766,1766,1783,1783,1783,1783,1800,1800,1816,1833,1833,1850,1866,1883,1883,1900,1900,1916,1916,1916,1933,1933,1933,1933,1950,1950,1950,1950,1950,1950,1966,1966,1966,1966,1967,1983,1983,1983,1983,1983,2000,2000,2000,2016,2016,2033,2050,2165,2173,2183,2200,2216,2216,2233,2233,2233,2250,2250,2266,2266,2266,2283,2283,2283,2300,2300,2300,2300,2316,2317,2317,2334,2334,2373,2382,2661,2685,2686,2694,2694,2701,2717,2758,2758,2769,2769,2769,2769,2784,2784,2801,2817,2837,2838,2850,2878,2974,3195,3422,3438,3438,3450,3450,3466,3466,3483,3500,3500,3516,3533,3533,3550,3566,3566,3566,3586,3600,3600,3616,3616,3633,3633,3633,3650,3650,3666,3666,3666,3666,3683,3683,3683,3700,3700,3700,3716,3716,3751,3765,3765,3776,3788,3801,3821,3857,3858,3869,3869,3870,3883,3900,3916,3916,3933,3950,3966,3966,3986,3987,4000,4000,4016,4016,4033,4033,4050,4050,4081,4082,4118,4134,4151,4174,4184,4184,4201,4201,4201,4217,4217,4217,4234,4235,4262,4272,4294,4332,4335,4391,4391,4401,4401,4426,4434,4451,4501,4526,4549,4557,4584,4596,4596,4653,4701,4709,4749,4773,4781,4798,4821,4837,4908,4910,5013,5096,5111,5127,5143,5158,5198,5238,5342,5377,5392,5400,5417,5417,5435,5462,5480,5485,5510,5526,5535,5551,5568,5584,5610,5638,5662,5686,5710,5718,5718,5734,5751,5790,5814,5934,5942,5967,5985,5985,5999,6006,6030,6150,6190,6222,6238,6250,6266,6266,6284,6285,6300,6301,6374,6390,6400,6422,6439,6439,6450,6466,6466,6483,6483,6483,6500,6500,6518,6519,6519,6774,6774,6910,6942,6966,6974,6990,6999,7016,7033,7033,7033,7049,7049,7066,7083,7099,7118,7217,7238,7247,7247,7254,7254,7271,7287,7287,7333,7333,7334,7334,7334,7334,7350,7350,7350,7350,7350,7351,7351,7351,7351,7366,7367,7367,7367,7367,7367,7368,7368,7368,7488,7488,7489,7489,7489,7494,7494,7510,7518,7534,7550,7551,7551,7577,7577,7578,7584,7585,7600,7617,7617,7634,7652,7668,7668,7684,7685,7700,7700,7717,7718,7734,7735,7735,7735,7750,7751,7767,7768,7791,7833,7833,7849,7849,7849,7850,7850,7850,7866,7866,7866,7867,7883,7883,7899,7899,7916,7933,7933,7949,7949,7966,7985,7986,7999,8038,8050,8050,8050,8062,8063,8079,8079,8092,8092,8103,8104,8118,8133,8149,8150,8216,8233,8233,8249,8249,8266,8266,8267,8285,8286,8286,8310,8310,8316,8333,8349,8412,8426,8426,8438,8438,8439,8439,8449,8449,8470,8470,8486,8487,8500,8500,8500,8501,8516,8516,8517,8533,8533,8549,8550,8550,8550,8619,8620,8620,8620,8621,8621,8624,8624,8625,8625,8625,8625,8626,8626,8626,8638,8638,8639,8639,8639,8639,8640,8640,8640,8651,8652,8652,8652,8671,8684,8685,8700,8700,8717,8717,8718,8734,8734,8761,8761,8778,8779,8779,8779,8779,8790,8791,8814,8833,8849,8849,8871,8886,8902,8959,9022,9031,9048,9048,9110,9134,9134,9158,9278,9286,9318,9326,9358,9358,9574,9614,9632,9638,9663,9670,9702,9726,9758,9766,9774,9806,9822,9833,9849,9869,9902,9910,9942,9950,9982,9998,10014,10014,10023,10023,10033,10033,10051,10052,10052,10067,10067,10085,10086,10086,10101,10102,10118,10118,10119,10134,10135,10135,10135,10150,10151,10168,10168,10168,10185,10185,10202,10202,10218,10234,10262,10294,10306,10317,10333,10351,10351,10351,10352,10366,10367,10367,10367,10368,10384,10384,10384,10385,10385,10400,10400,10401,10401,10416,10417,10417,10417,10433,10434,10469,10469,10478,10478,10510,10538,10590,10606,10622,10662,10792,10809,10822,10833,10850,10850,10850,10867,10867,10886,11230,11238,11250,11250,11267,11284,11300,11317,11317,11334,11334,11350,11367,11384,11388,11400,11401,11417,11454,11481,11486,11518,11542,11566,11614,11654,11715,11719,11742,11750,11766,11787,11799" d="m190.50569,293.09091c1.79999,0 2.66753,0.0773 3.39999,-0.436c0.79002,-0.55365 1.2529,-1.37152 2.2,-1.55334c0.88393,-0.16971 1.8,-0.00998 2.7,-0.01065c0.90268,-0.00067 1.67764,-0.05933 2.468,-0.28534c0.73933,-0.21143 1.91887,-0.6825 2.57068,-1.11465c0.56277,-0.37311 1.31314,-0.91016 2.06583,-1.30002c0.98865,-0.51208 1.56964,-0.86304 2.5955,-1.13333c0.78557,-0.20697 1.62206,-0.17996 2.59999,-0.52383c0.82277,-0.28931 1.58882,-0.76614 2.37917,-1.12198c0.84319,-0.37961 1.72507,-0.41937 2.54167,-0.54169c0.98744,-0.14792 1.64209,-0.5881 2.59383,-0.89517c0.87569,-0.28253 1.65959,-0.59967 2.3645,-1.08398c0.67424,-0.46323 1.40736,-0.94928 2.20883,-1.08401c1.00182,-0.16843 1.80824,-0.43076 2.35934,-0.56332c1.2583,-0.30264 1.97914,-0.14587 2.931,-0.57416c0.74583,-0.33557 0.96465,-1.40067 1.74049,-1.73035c0.70302,-0.29874 1.71712,-0.46408 2.49583,-0.90948c0.53479,-0.30588 1.44846,-0.97653 2.12401,-1.50269c0.8237,-0.64154 1.47221,-1.09229 2.26266,-1.35065c0.97049,-0.3172 1.77556,-0.25037 2.655,-0.64252c0.64162,-0.2861 1.50494,-0.75122 2.41966,-1.04282c0.64613,-0.20596 1.83534,-0.57684 2.457,-0.89551c0.76329,-0.39127 1.71109,-0.63272 2.46834,-0.78851c1.00868,-0.20755 1.71069,-0.68222 2.63699,-0.85883c0.96741,-0.18445 1.86293,-0.00937 2.76167,-0.05716c0.80339,-0.04272 1.53893,-0.60388 2.22417,-1.16699c0.63914,-0.52524 1.18341,-0.90161 2.1105,-1.55701c0.60974,-0.43103 1.60278,-1.04233 2.26932,-1.28c0.87061,-0.31042 1.65945,-0.54922 2.37466,-1.31766c0.60562,-0.6507 0.89145,-1.37347 1.34283,-2.09952c0.4993,-0.80313 0.82614,-1.37503 1.6785,-2.24548c0.56128,-0.57318 1.26392,-0.96176 2,-1.83334c0.43936,-0.52023 0.78979,-1.17572 1.34283,-2.142c0.49094,-0.85776 0.92526,-1.4729 1.45584,-2.23933c0.52225,-0.75436 0.66776,-1.54259 1.17599,-2.472c0.39975,-0.731 0.96555,-1.20853 1.31067,-2.132c0.27829,-0.74466 0.73087,-1.50696 1.12534,-2.35733c0.36148,-0.77922 0.75732,-1.82353 0.91083,-2.24266c0.33853,-0.92429 0.69415,-1.91667 0.88916,-2.41335c0.38062,-0.96935 0.75632,-1.85381 1.18802,-2.56c0.54031,-0.88387 1.15466,-1.50858 1.716,-2.34132c0.3924,-0.58214 0.87796,-1.60376 1.18533,-2.19551c0.39072,-0.75223 1.02795,-1.63084 1.5,-2.2885c0.5325,-0.74187 0.85623,-1.45584 1.61066,-2.076c0.71768,-0.58997 1.28262,-1.07857 1.728,-1.836c0.59,-1.00337 0.72986,-1.76877 0.948,-2.50133c0.36295,-1.21881 0.76065,-1.95729 0.98035,-2.35617c0.45947,-0.83423 0.97321,-1.64304 1.25165,-2.00917c0.94449,-1.24202 1.46765,-1.61166 2.134,-2.19083c0.72699,-0.63187 1.24576,-1.1908 1.77267,-1.85451c0.56506,-0.71179 1.10425,-1.48732 1.608,-2.29199c0.49481,-0.79037 0.9321,-1.58856 1.35599,-2.364c0.20688,-0.37845 0.80084,-1.47519 1.20935,-2.14799c0.56699,-0.93384 0.91196,-1.49348 1.57983,-2.345c0.58353,-0.74394 1.3768,-1.24062 1.85483,-2.14301c0.34338,-0.64822 0.64822,-1.55182 1.46667,-1.94733c0.8656,-0.4183 1.52054,-0.83444 2.11066,-1.47401c0.49231,-0.53357 1.056,-1.36224 1.63101,-2.07866c0.40619,-0.50607 1.3699,-1.37404 1.91998,-1.69917c0.86981,-0.51411 1.55234,-0.81593 2.55966,-1.56532c0.37332,-0.27773 1.10938,-0.93791 1.47867,-1.298c0.75858,-0.73967 1.12985,-1.12932 2.17868,-2.33717c0.34189,-0.39374 0.98627,-1.18756 1.64667,-1.92833c0.32263,-0.36191 1.32397,-1.36143 2.056,-1.90134c0.7066,-0.52115 1.43723,-0.92586 2.064,-1.368c0.81207,-0.57288 1.30875,-1.23358 1.936,-1.91733c0.71484,-0.77924 1.633,-1.02235 2.00433,-1.78534c0.39651,-0.81471 0.47018,-1.6714 1.41434,-1.7c0.89957,-0.02724 1.79999,0 2.69998,0c0.81433,0 1.76935,0 2.52084,0c0.79651,0 1.79803,-0.04401 2.7045,0.036c0.94669,0.08354 1.7247,0.3266 2.54935,0.53867c1.05545,0.27142 1.77615,0.38788 2.48666,0.41467c1.07129,0.04041 2.04401,0.01067 2.73865,0.01067c0.69467,0 1.957,0 2.728,0c0.86935,0 1.86752,0 2.61484,0c1.02118,0 1.95718,0 2.85718,0c0.90018,0 1.68533,0 2.62534,0c0.69067,0 1.76401,0.0025 2.67465,0c0.81802,-0.00226 1.64313,-0.07481 2.48535,-0.2215c0.72696,-0.1266 1.52066,-0.27519 2.30399,-0.483c1.33618,-0.35449 2.05472,-0.94449 2.91068,-1.21017c0.8634,-0.26799 1.80084,-0.04813 2.60001,-0.08533c0.91766,-0.04271 1.19235,-0.93903 1.90448,-1c0.93494,-0.08005 1.27255,-0.54198 1.29684,-1.48399c0.01782,-0.69131 0.38373,-1.58334 0.71466,-2.40001c0.3656,-0.90219 0.16562,-1.64165 0.30484,-2.616c0.14407,-1.00833 0.58807,-1.66293 0.89517,-2.61467c0.28256,-0.87567 0.64316,-1.49301 1.10483,-2.40616c0.40826,-0.80753 0.89273,-1.25613 1.41116,-1.99518c0.56949,-0.8118 0.47543,-1.81432 0.604,-2.65866c0.14664,-0.96303 0.73663,-1.56738 1.44666,-2.31067c0.50443,-0.52806 1.04581,-1.07631 1.41202,-2.11917c0.21552,-0.61374 0.53595,-1.82326 0.81516,-2.35266c0.45578,-0.86418 0.83707,-1.4296 1.26868,-2.34267c0.41431,-0.87645 0.70026,-1.74963 1.02148,-2.53349c0.3804,-0.9283 0.63528,-1.55147 1.30002,-2.4095c0.45789,-0.59102 1.23953,-1.24982 1.79999,-2.07834c0.43146,-0.63782 1.12982,-1.26115 1.73334,-1.8455c0.6282,-0.60825 1.02304,-1.2328 1.452,-2.036c0.3493,-0.65407 0.90619,-1.56763 1.21466,-2.2765c0.29202,-0.67104 1.06357,-1.37128 1.80002,-1.87799c0.78293,-0.53871 1.23373,-1.38406 2.10001,-1.60684c0.87668,-0.22545 1.77179,0.03767 2.59998,-0.05682c0.99258,-0.11327 1.59326,-0.63968 2.48401,-1.17784c0.66876,-0.40405 1.53653,-0.56993 2.26868,-0.91116c0.98154,-0.45747 1.39749,-1.14639 2.24731,-1.55684c0.74872,-0.36162 1.83334,-0.33333 2.58936,-0.33333c0.91064,0 1.81067,0 2.79999,0c0.896,0 1.711,0 2.58133,0c0.80002,0 1.57101,0 2.43201,0c1.19598,0 2.07651,0 2.64017,0c1.26917,0 2.07449,0 3.00534,0c0.75314,0 1.65182,0 2.55182,0c0.92084,0 1.88535,0 2.61066,0c0.98917,0 1.77576,-0.11996 2.76767,0.00017c0.92038,0.11147 1.33719,0.74422 2.24301,1c0.77469,0.21877 0.62823,1.21252 0.77884,2.09967c0.14471,0.85234 1.25635,0.99133 1.71451,1.70149c0.45786,0.7097 -0.02457,1.75839 0.29599,2.588c0.3064,0.79291 0.62607,1.41245 1.02533,2.17467c0.39722,0.7583 0.75427,1.27589 1.02118,2.136c0.26871,0.86595 1.51468,1.00667 1.90683,1.73601c0.40747,0.75786 0.75266,1.44116 1.02533,2.17467c0.30283,0.81461 0.74194,1.24059 1.39999,1.82533c0.69226,0.61514 0.52039,1.65245 0.61066,2.564c0.08374,0.8457 0.81345,1.33156 1.22134,2.10001c0.345,0.64995 0.97116,1.29596 1.49466,1.98399c0.46686,0.6136 0.65463,1.345 1.16251,2.1375c0.47845,0.74658 0.62869,1.38751 1.06433,2.13567c0.42447,0.72896 0.68491,1.39043 1.03635,2.16367c0.36389,0.8006 0.02081,1.77917 0.02081,2.67917c0,0.90001 0,1.8 0,2.60001c0,0.89999 0.34308,1.87857 -0.02081,2.67917c-0.35144,0.77324 -0.56799,1.34824 -1.03635,2.16367c-0.4664,0.81198 -0.99744,1.46727 -1.5535,1.92116c-0.75284,0.6145 -1.04559,1.12627 -1.41016,1.91518c-0.35629,0.77101 -1.13544,1.07498 -1.92651,1.52533c-0.65863,0.37495 -1.4863,0.89722 -2.37384,1.217c-0.68008,0.24504 -1.32773,0.95467 -1.84683,1.57851c-0.58646,0.7048 -1.34314,1.00902 -2.19598,1.58932c-0.73059,0.49712 -1.37469,1.05586 -1.99316,1.558c-0.70459,0.57207 -1.414,0.8996 -2.39999,1.04817c-0.89008,0.13412 -1.7023,0.01399 -2.64285,0.57384c-0.64526,0.38406 -1.17865,0.97763 -2,1.54666c-0.58557,0.40567 -1.60776,1.04123 -2.1955,1.53217c-0.57626,0.48137 -1.36395,1.18742 -2.20316,1.34917c-0.90359,0.17416 -1.20068,0.804 -1.20135,1.70267c-0.00067,0.90001 0,1.8 0,2.7c0,0.90901 0,1.93333 0,2.60533c0,0.744 0,1.85167 0,2.68567c0,0.90901 0,1.80901 0,2.709c0,0.90001 0,1.79868 0,2.76668c0,0.83333 0,1.5905 0,2.65866c0,0.69067 -0.02087,1.67491 0.00134,2.66267c0.01788,0.79521 0.16443,1.84549 0.28265,2.49199c0.14026,0.76686 0.29581,1.69267 0.36334,2.22917c0.07431,0.59015 0.19177,1.9572 0.23117,2.74066c0.04236,0.84187 0.06754,1.73227 0.08551,2.6595c0.01846,0.95311 0.02682,1.92133 0.03149,2.89351c0.00464,0.96516 0.00449,2.83049 0.00449,3.71066c0,0.84117 0,1.64433 0,2.41049c0,0.73018 0,1.42534 0,2.0865c0,0.62817 0,1.78951 0,2.8295c0,0.47501 0,1.33501 0,2.40001c0,1.004 0.01807,1.85619 0,2.75999c-0.01801,0.90054 -0.46634,1.68895 -1,2.46667c-0.44748,0.65213 -0.76233,1.28877 -1.54266,2.03316c-0.66663,0.63593 -1.22501,0.93973 -2.12399,1.6335c-0.6647,0.51297 -1.04431,1.33885 -1.5,2.16667c-0.40417,0.73427 -1.37112,0.75986 -2.23334,1.02133c-0.7818,0.23709 -1.16882,1.16219 -1.51733,2.09332c-0.25552,0.68271 -0.94772,1.29828 -1.68533,1.68533c-0.79147,0.41534 -1.64175,0.8215 -2.564,1.36667c-0.52087,0.30789 -1.29282,0.84698 -2.064,1.26401c-0.9375,0.50696 -1.68872,0.68851 -2.41751,1.27466c-0.67911,0.54617 -1.30563,1.30212 -1.97684,1.87802c-0.58209,0.49945 -1.58194,1.18082 -1.99634,1.47131c-0.91626,0.64227 -1.40298,0.98221 -1.88797,1.34134c-0.9631,0.7132 -1.84045,1.4202 -2.548,2.11465c-0.31705,0.31119 -0.97195,1.26093 -1.776,1.98935c-0.58691,0.53171 -1.38229,0.7677 -1.96667,1.30133c-0.7413,0.67691 -1.54431,1.26288 -2.17917,1.69867c-0.81,0.55603 -1.03189,1.35028 -1.54166,2c-0.60144,0.7666 -1.25369,1.31561 -2.17917,1.49551c-0.92188,0.1792 -1.79483,0.56174 -2.30002,1.02533c-0.52759,0.48413 -1.34726,1.3775 -1.884,1.77783c-0.73865,0.55093 -1.52322,0.89587 -2.51465,1.40134c-0.58215,0.29678 -1.53827,0.96033 -2.19067,1.36398c-0.76874,0.47565 -1.82803,0.27695 -2.51065,0.87866c-0.51465,0.45364 -1.14587,1.29483 -1.90002,1.724c-0.64871,0.36914 -1.29111,1.15863 -1.81433,1.59052c-0.9249,0.76346 -1.42108,1.10349 -2.23749,1.53299c-0.99811,0.52512 -1.7594,0.51389 -2.46152,0.87784c-0.96835,0.50195 -1.16321,1.51364 -2.08664,1.81067c-0.85703,0.27567 -1.78934,0.02133 -2.75717,0.02133c-0.84818,0 -1.5715,0 -2.62817,0c-0.72534,0 -1.51468,0 -2.30402,0c-1.32449,0 -2.10648,0 -3.04398,0c-0.85202,0 -1.78534,0 -2.53369,0c-0.89731,0 -1.83032,0 -2.52899,0c-0.72266,0 -2.116,0 -2.74667,0c-0.8385,0 -1.89066,0 -2.71982,0c-0.90201,0 -1.84549,0 -2.56949,0c-0.772,0 -1.97043,0.00623 -2.83102,-0.009c-0.48642,-0.00861 -1.6412,-0.05951 -2.33731,-0.10535c-0.79462,-0.05234 -2.73328,-0.21597 -3.89801,-0.32849c-1.27533,-0.1232 -2.63031,-0.26413 -4.035,-0.41849c-1.42532,-0.15662 -2.84048,-0.32013 -4.215,-0.49051c-1.30545,-0.1618 -3.58618,-0.47412 -4.50751,-0.6265c-0.77856,-0.12878 -1.42648,-0.25323 -1.95749,-0.375c-0.43381,-0.09949 -0.78122,-0.19614 -1.0575,-0.285c-0.22354,-0.0719 -0.56161,-0.19794 -0.70752,-0.24017c-0.13422,-0.03888 -0.27438,0.02472 -1.11899,-0.1575c-0.77774,-0.16782 -1.65298,-0.57538 -2.56934,-0.79733c-0.82596,-0.20007 -1.66864,-0.32635 -2.58401,-0.59198c-0.74564,-0.21637 -1.61969,-0.39569 -2.4975,-0.62735c-0.94064,-0.24826 -1.56714,-0.60172 -2.75183,-1.11398c-0.36282,-0.15689 -1.1514,-0.48682 -1.97916,-0.8125c-0.80365,-0.31619 -1.83267,-0.78088 -2.77682,-0.94885c-0.9321,-0.16583 -1.84528,-0.0242 -2.74402,-0.07199c-0.80338,-0.04272 -1.47763,-0.77896 -2.28531,-1c-0.88098,-0.24109 -1.48044,-0.48306 -1.99869,-1.00134c-0.53354,-0.5336 -1.29797,-0.85571 -2.06784,-1.05133c-0.91119,-0.23154 -1.78137,-0.73538 -2.44815,-1.03134c-0.85776,-0.38074 -1.59946,-0.89798 -2.49551,-0.91599c-0.92581,-0.01862 -1.80447,0 -2.7045,0c-0.79999,0 -1.69998,0 -2.59998,0c-0.90002,0 -1.80002,0 -2.70001,0c-0.89999,0 -1.98364,-0.3045 -2.61465,0.284c-0.56967,0.53131 -1.31027,0.45972 -1.96402,0.93735c-0.69904,0.51071 -1.40646,0.63593 -2.06866,1.13132c-0.6925,0.51807 -1.25595,1.19055 -2.15265,1.52585c-0.85065,0.31808 -1.5712,0.40448 -2.12134,1.00015c-0.58826,0.63696 -1.26622,0.99561 -2.08318,1.47852c-0.62946,0.37207 -1.34761,0.95239 -2.10001,1.34283c-0.79033,0.41013 -1.59399,0.80301 -2.59549,1.29999c-0.59912,0.2973 -1.3887,0.68799 -2.40001,0.91733c-0.79274,0.17978 -1.63757,0.36377 -2.38933,0.944c-0.58545,0.45187 -1.26373,1.34625 -1.87199,1.69202c-0.81706,0.46445 -1.88652,0.43445 -2.44768,0.55649c-1.20827,0.26276 -1.79659,0.58203 -2.655,1.0755c-0.55745,0.32047 -1.54527,0.9393 -2.21516,1.29382c-1.01292,0.53607 -1.62073,0.82104 -2.42084,1.22086c-0.99852,0.49893 -1.55449,0.84747 -2.57849,1.17865c-0.80446,0.26019 -1.56172,0.55634 -2.317,1.06866c-0.72752,0.49353 -1.20525,0.92523 -1.90317,1.33667c-0.82281,0.48508 -1.53339,0.75098 -2.30133,1.04935c-0.88443,0.34363 -1.55464,0.70703 -2.25633,1.13281c-1.09837,0.6665 -1.76314,1.215 -2.091,1.491c-0.65974,0.55539 -1.29242,1.16217 -2.31934,2.04285c-0.70857,0.60767 -1.07622,0.90411 -1.83333,1.45834c-0.73804,0.54025 -1.82484,1.2247 -2.51468,1.57233c-0.64178,0.32343 -1.29193,0.54758 -2.48532,1.13599c-0.60667,0.29913 -1.19269,0.6376 -1.98567,1.18066c-0.88782,0.608 -1.45625,1.18585 -2.33566,1.7525c-0.65355,0.42111 -1.66476,0.42889 -2.392,0.98416c-0.69611,0.53149 -0.957,1.46268 -1.64384,1.85886c-0.81456,0.46982 -1.45277,0.72061 -2.16367,1.03632c-0.87668,0.38931 -1.47795,0.63568 -2.18365,1.07352c-0.68277,0.42361 -1.45103,0.96658 -2.1315,1.34732c-0.75362,0.42166 -1.74698,0.92383 -2.328,1.164c-1.05417,0.43576 -1.79733,1.06165 -2.35684,0.89435c-0.90532,-0.27066 -1.31169,-1.22974 -1.47466,-2.15836c-0.15572,-0.88736 -0.54674,-1.6369 -0.88318,-2.40015c-0.32736,-0.74265 -0.58565,-1.71005 -0.83733,-2.41583c-0.33728,-0.94583 -0.77682,-1.72418 -1.11734,-2.65067c-0.23166,-0.63031 -0.16666,-1.66669 -0.16666,-2.52884c0,-0.90451 0,-1.8045 0,-2.7045c0,-0.89999 0,-1.80002 0,-2.69983c0,-0.87485 0,-1.70151 0,-2.60019c0,-0.89999 -0.05299,-1.83478 0.35266,-2.59998c0.44838,-0.84579 0.86867,-1.57867 1.562,-1.98535l0.08534,-0.91467" id="svg_1" stroke-width="2" stroke="#000" fill="none"/>
  <path t="13095,13254,13254,13263,13263,13270,13270,13270,13286,13286,13286,13286,13299,13299,13299,13299,13316,13316,13316,13334,13334,13349,13350,13350,13350,13375,13375,13384,13408,13424,13440,13440,13449,13466,13466,13466,13483,13483,13499,13499,13499,13499,13518,13518,13518,13534,13550,13550,13566,13586,13586,13586,13599,13600,13616,13616,13616,13633,13634,13669,13698,13699,13699,13699,13699,13702,13702,13702,13722,13735,13751,13770,13770,13770,13828,13828,13838,13838,13852,13852,13852,13852,13866,13866,13866,13883,13883,13899,13899,13916,13933,13955,14039,14039,14039,14047,14047,14047,14047,14054,14054,14071,14071,14086,14086,14086,14100,14100,14117,14117,14118,14134,14134,14135,14135,14150,14150,14151,14151,14167,14167,14167,14190,14190,14191,14211,14211,14218,14246,14270,14270,14302,14310,14327,14327,14334,14334,14349,14370,14371,14419,14419,14419,14423,14423,14423,14478" d="m266.50568,261.09091c1.836,-0.01068 2.61166,-0.04922 3.60452,-0.35266c0.86276,-0.26367 1.81567,-0.53799 2.6315,-0.62201c0.57385,-0.05911 1.76706,-0.17761 2.66849,-0.37799c0.61859,-0.13751 1.57629,-0.3956 2.61682,-0.526c0.72888,-0.09134 1.4801,-0.10379 2.22601,-0.17401c1.43442,-0.13501 2.08875,-0.29123 2.97,-0.522c0.95184,-0.24924 1.8071,-0.40536 2.78265,-0.59198c0.55429,-0.10605 1.49835,-0.34076 2.142,-0.48068c1.29883,-0.28235 2.12878,-0.01132 2.922,-0.38867c0.74008,-0.35205 1.298,-0.91382 2.26935,-0.96399c0.86288,-0.04459 1.65182,-0.57368 2.48816,-1.09984c0.6734,-0.42366 1.27435,-0.63943 2.28302,-0.85199c0.84854,-0.17882 1.82526,-0.4753 2.6315,-0.9095c0.58081,-0.31281 1.14499,-0.69868 2.36133,-1.252c0.57248,-0.26042 1.36853,-0.61522 2.43201,-0.80135c0.95981,-0.16798 1.78934,-0.14116 2.49149,-0.60616c0.82397,-0.54567 1.51532,-0.97665 2.08051,-1.3645c0.82233,-0.56432 1.54132,-1.35269 2.39865,-1.78134c0.74991,-0.37494 1.59744,-0.4043 2.24286,-1.03867c0.65247,-0.64131 1.34366,-1.27116 2.25714,-1.79466c0.56961,-0.32645 1.18668,-0.78667 1.86002,-1.25999c0.67334,-0.47334 1.57828,-1.12898 2.35733,-1.55734c0.7775,-0.42751 1.68683,-0.41362 2.57816,-0.68716c0.78653,-0.24138 1.3613,-1.11133 1.99118,-1.39549c0.70468,-0.31792 1.74094,-0.8044 2.46149,-1.3c0.73541,-0.50584 1.50626,-0.92278 2.41852,-1.46667c0.52188,-0.31116 1.34222,-0.84175 1.88065,-1.23782c1.04889,-0.77158 1.5004,-1.181 2.10602,-1.75951c0.83841,-0.80086 1.29965,-1.34241 2.04666,-2.03467c0.58044,-0.5379 1.52209,-0.6487 2.18933,-1.23734c0.69644,-0.6144 0.93951,-1.56975 1.49335,-1.996c0.57889,-0.44556 1.55206,-1.32019 2.06097,-1.92599c0.52927,-0.63004 1.04376,-1.25043 1.55634,-2.142c0.44046,-0.76611 0.35727,-1.77512 0.75601,-2.38533c0.60886,-0.93178 1.31784,-1.06236 1.892,-1.716c0.79919,-0.90985 0.77798,-1.61888 1.07367,-2.59883c0.25446,-0.84329 0.64929,-1.49475 1.26498,-2.4865c0.35114,-0.56561 0.75522,-1.16333 1.20001,-1.8c0.72656,-1.03998 1.26608,-1.75517 1.77167,-2.49251c0.48346,-0.70506 1.08618,-1.67026 1.28568,-2.2515c0.25101,-0.73123 0.25598,-1.936 0.25598,-2.7175c0,-0.7905 -0.3031,-1.99489 0.05719,-2.68567c0.39261,-0.75275 0.87729,-1.38902 0.94299,-2.3445c0.05075,-0.73817 0.85846,-1.24614 1,-2.12167c0.14606,-0.90353 0.66373,-1.4519 1.29532,-2.2045c0.46045,-0.54869 0.53677,-1.55872 0.87119,-2.52882c0.25204,-0.73114 0.84973,-1.49295 1.13333,-2.1765c0.31863,-0.76804 0.69998,-1.8235 1,-2.524l0.39999,-0.74734l0.68933,-0.66817" id="svg_2" stroke-width="2" stroke="#000" fill="none"/>
  <path t="16039,16166,16199,16206,16223,16310,16334,16334,16366,16398,16449,16462,16502,16510,16510,16542,16590,16606,16638,16694,16750,16790,16878,16878,16886,16900,16934,16958,16974,17038,17094,17094,17166,17200,17231,17253,17286,17306,17374" d="m398.50568,151.09091c-1.69998,0 -2.70255,-0.39824 -3.564,0.036c-0.69885,0.35228 -1.35226,1.1183 -1.436,1.964c-0.07883,0.79611 0,1.7 0,2.60001c0,0.89999 -0.13348,1.81062 0.00452,2.7c0.14438,0.93039 0.76508,1.55112 1.6955,1.6955c0.88937,0.138 1.79999,0.0045 2.70001,0.0045c0.89999,0 1.79999,0 2.69998,0c0.89999,0 1.87955,0.46556 2.61469,-0.08533c0.61639,-0.46191 0.29895,-1.7386 0.71066,-2.35068c0.50635,-0.75281 0.57465,-1.664 0.57465,-2.564c0,-0.8 -0.37704,-1.28041 -0.97916,-2c-0.51874,-0.61993 -0.59549,-1.564 -1.30615,-2l-0.91336,0l-0.85849,0" id="svg_3" stroke-width="2" stroke="#000" fill="none"/>
  <path t="18262,18478,18478,18486,18502,18502,18516,18532,18532,18532,18549,18549,18566,18566,18567,18592,18592,18606,18606,18678,18685,18685,18699,18781,18829,18839,18839,18862,18869,18869,18882,18882,18901,18902,18916,18932,18981,19006,19030,19053,19070,19086,19094,19095,19105,19105,19189,19405,19414,19477,19493,19509,19510,19525,19558,19581,19597,19606,19616,19632,19651,19670,19733,19781,19782,19805,19862,19893,19901,19926,19989,20005,20006,20022,20038,20049,20049,20066,20082,20099,20182,20206,20231,20238,20262,20294,20318,20334,20342,20382,20400,20400,20417,20417,20439,20439,20478,20486,20499,20516,20558,20558,20615,20615,20631,20934,20942,20950,20950,20950,20974,20974,20974,21022,21046,21054,21071,21071,21083,21083,21100,21100,21119,21166,21166,21182,21182,21182,21182,21182,21183,21317,21318,21357,21368,21389,21421,21431,21431,21478,21510,21548,21548,21551,21569,21582,21599,21643,21653,21725,21741,21749,22085,22094,22232" d="m423.50568,163.09091c1,0 1.77728,0.12762 2.52084,0.5c0.93762,0.46957 1.65851,0.40341 2.7265,0.5045c0.92938,0.08797 1.57013,0.47531 2.354,0.7115c0.98477,0.29672 1.85583,0.28174 2.82001,0.284c0.80399,0.00188 1.62598,0 2.65698,0c0.88,0 1.755,0 2.61716,0c0.82535,0 1.78851,0 2.65186,0c0.89551,0 1.85266,0 2.75266,0c0.89999,0 1.70001,0 2.53601,0c1.02115,0 1.76849,0 2.76401,0c0.79999,0 1.7998,-0.00006 2.57916,0c0.99915,0.00009 1.4238,0.42621 2.05682,0.98933c0.57629,0.51265 1.50116,0.75761 2.36401,0.97467c0.8735,0.21974 1.80133,0.036 2.76666,0.036c0.83331,0 1.66666,0 2.52881,0c0.90451,0 2.44714,-0.03979 2.24286,0.64734c-0.23334,0.78493 -1.58981,0.34082 -2.42233,0.63666c-0.8826,0.31364 -1.82547,0.55867 -2.46335,1.06866c-0.66339,0.5304 -1.45267,0.64667 -2.35266,0.64734c-0.89868,0.00067 -1.43451,0.61047 -2.12534,0.964c-0.82614,0.42278 -1.91138,-0.10255 -2.67465,0.25732c-0.66559,0.31383 -1.49994,0.77333 -2.40002,0.77867c-0.89996,0.00533 -1.84555,-0.06718 -2.47467,0.42534c-0.62408,0.48857 -1.508,0.57466 -2.31549,0.57466c-0.99515,0 -1.95828,-0.15353 -2.70984,0.16667c-0.78119,0.33282 -1.58328,0.45683 -2.47916,0.85416c-0.71106,0.31535 -1.22534,0.97691 -2.12082,0.97917c-0.90002,0.00226 -1.84454,-0.09546 -2.60001,0.284c-0.86722,0.43559 -1.63351,0.69777 -2.50452,0.716c-0.86008,0.01801 -1.43243,0.76228 -2.358,0.94283c-0.6861,0.13383 -1.79465,0.05659 -2.55215,0.05717c-0.86801,0.00067 -1.61401,0.14603 -2.4335,0.64734c-0.70895,0.4337 -1.68246,0.35724 -2.36249,0.78867c-0.79645,0.50529 -1.37344,1.06215 -2.42267,1.39732c-0.73532,0.23489 -2.60419,-0.77083 -2.60419,0.16667c0,0.5 1.4375,0 2.24817,0c0.87466,0 1.87201,0 2.66852,0c0.7515,0 1.84882,0 2.82083,0c0.89999,0 1.80017,0 2.58533,0c0.95065,0 1.716,0 2.71017,0c0.74731,0 1.76849,0 2.73148,0c0.716,0 1.673,0 2.57703,0c0.51199,0 1.59598,0 2.14398,0c1.048,0 2.323,0 3.13602,0c1.01599,0 2.04898,0.24532 2.73199,-0.284c0.6297,-0.48799 1.23633,-1.07542 1.884,-1.43201c0.86368,-0.47551 1.40854,-1.02739 2.19998,-1.45067c0.74878,-0.40047 1.56308,-0.51355 2.38934,-0.84399c0.78928,-0.31564 1.19296,-1.09343 1.72049,-1.69383c0.66592,-0.75789 1.62885,-0.93808 2.31552,-1.30617c0.72574,-0.38904 1.27914,-0.98483 2.13864,-1.02533l0.43469,-0.68001" id="svg_4" stroke-width="2" stroke="#000" fill="none"/>
  <path t="24791,25023,25071,25079,25079,25087,25087,25087,25103,25103,25103,25103,25115,25115,25115,25115,25132,25132,25132,25149,25149,25282,25320,25320,25332,25332,25332,25332,25332,25349,25349,25365,25439,25447,25447,25447,25535,25535,25535,25538,25549,25549,25565,25615,25631,25631,25631,25639,25639,25639,25639,25639,25639,25651,25651,25651,25651,25651,25651,25719,25719,25727,25727,25743,25751,25751,25751,25765,25765,25766,25831,25848,25848,25895,25895,25926,25926,25965,25965,25986,26000,26000,26000,26015,26016,26016,26134,26134,26137,26149,26150,26165,26166,26182,26182,26207,26207,26207" d="m363.50568,180.09091c0,1.8 0.06992,2.7827 0.88269,2.964c0.78674,0.17549 1.80338,0.05547 2.63815,0.01517c0.88184,-0.04256 1.78391,-0.18205 2.68982,-0.41518c0.62878,-0.16182 1.27463,-0.36551 2.67203,-0.76534c0.73196,-0.20943 1.46848,-0.40245 2.14798,-0.68399c0.94577,-0.39186 1.66788,-0.97334 2.36035,-1.40483c0.97049,-0.60472 1.75488,-0.80023 2.72098,-0.99118c0.50833,-0.10046 0.21777,0.60007 -0.44531,1.61467c-0.42023,0.64299 -0.91275,1.31012 -1.41602,1.98001c-0.4783,0.63664 -1.15427,1.38596 -1.68817,2.12416c-0.52689,0.7285 -0.94595,1.54449 -0.33716,1.5625c0.85764,0.02536 1.54001,-0.00461 2.95267,0.00017c0.65134,0.00221 1.69107,-0.37653 2.45749,0.22133c0.6778,0.52872 0.3645,1.66383 0.3645,2.59317c0,0.85201 0.66528,1.19652 1.34,1.17467c0.94565,-0.03061 2.16061,-0.15117 2.62436,-0.211c1.00406,-0.12953 1.53531,-0.21274 2.63165,-0.425c0.56158,-0.10873 2.2388,-0.51497 2.78183,-0.6745c0.53296,-0.15657 1.5448,-0.48984 2.4675,-0.8175c0.81317,-0.28877 1.83099,-1.13136 2.67599,-0.76799c0.68375,0.29404 0.45776,1.45345 0.04266,2.29199c-0.48938,0.98859 -0.86572,1.62383 -1.16397,2.40001c-0.40237,1.04709 -0.7153,1.74474 -0.96402,2.368c-0.37848,0.94839 0.00146,1.77603 0.78534,1.836c0.97556,0.07463 2.01151,-0.24492 2.608,0.58133c0.39075,0.54128 0.35028,1.65367 0.13467,2.55734c-0.21201,0.88849 0.51282,0.87199 1.09848,0.87199c0.97351,0 1.89612,0.03984 2.89584,-0.02083c0.64108,-0.03891 1.62793,-0.35643 2.38449,-0.62651c1.00992,-0.36055 1.84518,-0.65631 2.41434,-1.05716c0.88028,-0.61998 1.63507,-0.98753 2.64285,-1.21283c0.59418,-0.13283 1.59998,-0.416 2.38931,-0.93333l0.5535,-0.444" id="svg_5" stroke-width="2" stroke="#000" fill="none"/>
  <path t="27986,28074,28087,28087,28099,28115,28132,28150,28150,28166,28166,28182,28207,28207,28207,28207,28262,28347,28356,28356,28365,28382,28382,28407,28431,28455,28455,28838,28855,28878,28902,28910,28910,28919,28934,28950,28966,28986,29000,29000,29021,29021,29094,29095,29095,29110,29142,29174,29190,29191,29200,29243,29299,29299,29299,29315,29398" d="m383.50568,266.09091c0,1.82532 -0.18549,2.86624 0.05719,3.6955c0.25793,0.88135 0.90009,1.5015 0.94281,2.40451c0.04251,0.89899 0,1.78534 0,2.72531c0,0.69067 0,1.71634 0,2.67468c0,0.85349 -0.03323,1.47977 0,2.36267c0.04269,1.1344 0.95728,1.41934 1,2.23749c0.04095,0.78412 0,1.72516 0,2.73318c0,0.75598 0,1.66666 0,2.57733c0,0.91064 -0.15842,1.77768 0.00134,2.70267c0.14468,0.83777 1.19867,0.88666 2.09866,0.88666c0.89999,0 1.70001,0 2.60001,0c0.89999,0 1.79999,0 2.70001,0c0.89999,0 1.80133,-0.00378 2.48532,0c0.96136,0.00534 1.80865,0.05161 2.79733,0.284c0.80338,0.18884 1.59686,0.28384 2.4985,0.66333c0.85059,0.358 0.63538,1.42941 1.04031,2.1525c0.41293,0.73737 1.59155,0.89554 1.77402,1.71899c0.20535,0.92673 0.00449,1.68118 0.00449,2.41318l0,1.09601l0,0.9675" id="svg_6" stroke-width="2" stroke="#000" fill="none"/>
  <path t="30142,30342,30350,30350,30366,30366,30366,30385,30400,30431,30470,30486,30510,30511,30518,30543,30550,30582,30638,30647,30990" d="m385.50568,291.09091c1.64667,0 2.50882,-0.12033 3.40451,0.11432c0.83234,0.21805 1.54315,0.92798 2.11017,1.31769c0.89896,0.61786 1.64111,1.00931 2.13266,1.62067c0.51819,0.64453 0.35266,1.58331 0.35266,2.60001c0,0.69464 0.00174,1.70752 0.5,2.34732c0.4808,0.6174 0.5,1.564 0.5,2.436l0,0.86398l0,0.90002" id="svg_7" stroke-width="2" stroke="#000" fill="none"/>
  <path t="31759,32022,32078,32102,32118,32134,32174,32214,32231,32262,32366,32398,32415,32415,32439,32447,32447,32463,32470,32484,32500" d="m386.50568,294.09091c1.71469,1.08398 2.31766,1.74658 2.91602,2.284c0.63846,0.57343 1.07135,1.23669 1.08398,2.116c0.01285,0.89542 0.72464,1.46783 0.98935,2.17468c0.33185,0.88614 0.01065,1.836 0.01065,2.74664c0,0.67868 0,1.79333 0,2.67868c0,0.79999 -0.05716,1.70001 -0.5,2.5l-0.44733,0.7955l-0.40533,0.65182" id="svg_8" stroke-width="2" stroke="#000" fill="none"/>
  <path t="33703,33798,33814,33814,33822,33822,33839,33839,33839,33848,33848,33848,33848,33867,33886,33886,33902,33902,33918,33950,33958,33974,33990,34006,34016,34032,34048,34110,34478,34502,34526,34542,34598,34598,34606,34631,34655,34678,34678,34696,34726,34758,34782,34782,34790,34791,34799,34823" d="m352.50568,277.09091c0,1.82532 0.00171,2.83334 0,3.62534c-0.00226,1.03632 -0.01514,1.84448 -0.2215,2.79617c-0.1785,0.82312 -0.38635,1.39008 -0.7785,2.57849c-0.19727,0.59778 -0.50836,1.45001 -0.71466,2.22934c-0.29095,1.09912 -0.28534,1.93732 -0.28534,2.77066c0,0.97849 0,1.79868 0,2.70001c0,0.89999 0,1.79999 0,2.69998c0,0.89999 -0.1373,1.88113 0.35269,2.54733c0.50323,0.68423 0.64664,1.44202 0.64731,2.33801c0.00067,0.91333 0.35571,1.68607 1.19867,1.71466c0.88483,0.03003 1.80133,0 2.60135,0c0.89999,0 1.86758,-0.07739 2.60001,0.436c0.78995,0.55374 1.09125,1.35336 1.59998,2.04315c0.4863,0.65936 1.45981,0.92163 2,1.6875c0.44101,0.62524 0.83334,1.66669 1.02533,2.42267l0.40002,0.80002l0.57016,0.66333" id="svg_9" stroke-width="2" stroke="#000" fill="none"/>
  <path t="35630,35814,35822,35862,35878,35894,35910,35918,35932,35948,35983,35999,35999,36023,36054,36054,36078,36086,36098,36127,36134,36148,36169,36182,36199,36199,36215,36248" d="m350.50568,303.09091c-1.69998,0.05716 -2.6741,0.43405 -2.94281,1.29999c-0.26691,0.86011 -0.41931,1.63644 -1.05719,2.20001c-0.58347,0.5155 -0.98761,1.20456 -1,2.10001c-0.01273,0.92099 -0.24081,1.7135 -0.57465,2.57465c-0.3613,0.93204 -0.42535,1.82535 -0.42535,2.62534c0,0.90002 -0.0054,1.80005 0,2.70001c0.00534,0.8894 0.40729,1.59238 1.05267,2.14734c0.582,0.50046 1.46817,0.85266 2.26868,1.23117l0.85333,0.11081l0.93866,0.01202l0.80267,0.28265" id="svg_10" stroke-width="2" stroke="#000" fill="none"/>
  <path t="36934,37110,37110,37118,37142,37142,37169,37182,37190,37231,37254,37286,37302,37366,37382,37390,37390,37414,37414,37430,37469,37482,37498,37549,37605,37605,37648" d="m352.50568,305.09091c1.16669,1 1.65363,1.56042 2.2955,2.29999c0.57861,0.66669 0.63937,1.62354 1.22534,2.17917c0.72556,0.68802 1.46875,1.02066 1.47916,1.87802c0.01144,0.94275 -0.12399,1.85144 0.00018,2.74265c0.11172,0.80188 0.97122,1.26031 0.99982,2.06683c0.02954,0.83282 0,1.81183 0,2.63202c0,0.90134 0.00351,1.99152 -0.7045,2.19684c-0.90314,0.2619 -1.46216,0.83783 -2.2955,1.00449l-0.79999,0l-0.91467,0" id="svg_11" stroke-width="2" stroke="#000" fill="none"/>
  <path t="41214,41278,41278,41278,41286,41286,41310,41321,41321,41343,41343,41350,41350,41368,41368,41368,41368,41368,41382,41382,41382,41382,41382,41382,41382,41382,41398,41398,41398,41398,41398,41398,41415,41415,41415,41415,41415,41415,41430,41431,41431,41431,41431,41431,41431,41431,41449,41449,41449,41464,41464,41481,41481,41497,41497,41498,41517,41517,41517,41517,41531,41531,41558,41558" d="m187.50569,299.09091c2.95267,0 3.5,0.0015 4.31599,0c1.22234,-0.00226 2.06621,0.05325 2.92683,-0.35266c0.81117,-0.3826 1.52274,-0.6759 2.41434,-1c0.75499,-0.27444 1.74994,-0.54022 2.38449,-0.66818c1.30272,-0.2627 1.93048,-0.55746 2.673,-0.82983c0.84642,-0.31046 1.30949,-0.50903 2.952,-0.81598c0.61459,-0.11484 1.26875,-0.17014 1.944,-0.21902c0.69017,-0.04996 2.08797,-0.09592 2.77867,-0.10532c0.67464,-0.00919 1.944,-0.00626 3.07201,-0.01035c0.519,-0.00189 1.49744,-0.00952 2.435,-0.05582c0.46927,-0.02316 1.94724,-0.16211 2.47699,-0.22684c1.12056,-0.13693 1.70958,-0.2196 2.32001,-0.29068c1.27914,-0.1489 2.63971,-0.26346 3.34866,-0.30383c0.72041,-0.04102 1.44527,-0.0672 2.166,-0.08548c0.7086,-0.01797 1.39732,-0.02924 2.68266,-0.03467c1.10933,-0.0047 1.996,-0.00134 2.9635,-0.00134c0.97917,0 1.78249,0.00037 2.63251,-0.284c0.77165,-0.25815 1.67879,-0.55774 2.4705,-0.66785c0.85229,-0.11853 2.05302,-0.35699 2.64149,-0.61615c0.89757,-0.39529 1.44417,-0.72668 2.47966,-1.189l0.88,-0.20135l0.875,-0.04166l0.88,0" id="svg_12" stroke-width="2" stroke="#000" fill="none"/>
  <path t="42406,42486,42502,42502,42511,42511,42518,42518,42518,42518,42534,42534,42534,42534,42547,42548,42568,42568,42581,42581,42598,42598,42598,42598,42614,42614,42614,42615,42615,42615,42631,42631,42631,42631,42631,42631,42649,42649,42649,42649,42667,42667,42667,42682,42682,42698,42698,42715,42715,42715,42731,42731,42731,42731,42731,42731,42731,42748,42748,42748,42769,42782,42798,42798,42817,42831,42831,42848,42879,42894,42902,42902" d="m187.50569,304.09091c1.02083,0.97916 1.97868,1.00381 2.75266,1c0.91354,-0.00452 1.78226,-0.0636 2.89017,-0.44266c0.67825,-0.23206 1.37061,-0.57642 2.10901,-0.85202c1.07147,-0.39993 1.75903,-0.55273 2.7065,-0.68448c0.85303,-0.11862 1.87675,-0.25351 2.5,-0.54169c1.06483,-0.49237 1.63043,-1.15109 2.52834,-1.39517c0.74094,-0.20142 1.68488,-0.23148 2.48399,-0.44565c0.61679,-0.16531 1.30621,-0.39737 2.52934,-0.80499c0.95401,-0.31796 1.46608,-0.48517 2.52083,-0.875c0.54106,-0.19998 1.09879,-0.37619 2.64583,-1.125c0.49715,-0.24063 1.41682,-0.77777 1.85068,-1.048c0.82982,-0.51688 1.57294,-1.05457 2.66116,-1.64233c0.65215,-0.35223 1.29579,-0.61487 2.22017,-0.94034c0.89647,-0.31564 1.77408,-0.61169 2.58699,-0.84549c1.03804,-0.29852 1.78094,-0.35953 2.67151,-0.71436c0.76556,-0.30502 1.53345,-0.76566 2.44699,-1.16367c0.57559,-0.25076 1.728,-0.64948 2.2025,-0.80032c1.05412,-0.33514 1.61798,-0.50076 2.76668,-0.8175c0.56235,-0.15506 1.09885,-0.32782 2.519,-0.6185c1.01208,-0.20715 1.94809,-0.2536 2.77167,-0.66815c0.77203,-0.38861 1.6785,-0.38895 2.43599,-0.66c0.90111,-0.32245 1.31914,-1.22601 2,-1.62933c0.82716,-0.48996 1.70001,-0.78534 2.5,-1.23718l0.8,-0.491l0.40001,-0.578" id="svg_13" stroke-width="2" stroke="#000" fill="none"/>
  <path t="43806,43918,43918,43934,43934,43942,43942,43942,43950,43950,43950,43964,43964,43964,43981,43981,43981,43981,43997,43997,43997,44015,44015,44015,44015,44015,44032,44032,44032,44049,44069,44085,44085,44098,44098,44098,44098,44115,44115,44115,44115,44131,44131,44131,44131,44148,44165,44165,44181,44181,44198,44198,44198,44198,44216,44216,44216,44216,44216,44231,44231,44231,44231,44231,44250,44250,44269,44269,44282,44298,44315,44316,44331,44331,44370,44370,44385,44385,44463,44463,44486,44510,44518,44542,44550,44550,44576,44576,44576,44576,44590,44590,44590,44590,44590,44663,44663,44679" d="m189.50569,310.09091c1.836,-0.02133 2.6523,-0.08542 3.59999,-0.70984c0.63928,-0.4212 1.38335,-1.14905 2,-1.53299c0.7803,-0.48584 1.61339,-0.83282 2.40001,-1.27802c0.61096,-0.34579 1.38664,-0.98367 2.04166,-1.47916c0.7123,-0.53882 1.59604,-0.99124 2.26367,-1.24734c1.03667,-0.39767 1.75211,-0.58643 2.65216,-1.07382c0.82843,-0.44861 1.28375,-0.9375 2.54251,-1.34549c0.73245,-0.2374 1.57657,-0.27795 2.424,-0.384c0.4183,-0.05234 1.93121,-0.35135 2.5,-0.65466c0.7374,-0.39322 1.76154,-0.7692 2.40933,-1.46133c0.61331,-0.6553 0.71298,-1.40817 1.66667,-1.83334c0.8354,-0.37244 1.53169,-0.49173 2.19916,-0.75717c1.28125,-0.50955 1.81354,-0.87766 2.5155,-1.4895c0.48424,-0.42206 1.20229,-1.17859 1.73351,-1.69699c0.78433,-0.76538 1.15543,-1.43018 2.24199,-1.88483c0.91461,-0.38272 1.67325,-0.02252 2.64317,-0.33817c0.73541,-0.23932 1.49771,-0.83847 2.1855,-1.14233c0.83577,-0.36926 1.48601,-0.63226 2.50284,-1.23386c0.75308,-0.44556 1.51814,-0.98083 1.92499,-1.24249c0.83627,-0.53784 1.71013,-1.06735 2.63335,-1.52667c0.90405,-0.4498 1.35088,-0.64209 2.19583,-0.96915c1.04968,-0.40628 2.19809,-0.48865 2.64017,-1.28683c0.35826,-0.64685 0.75824,-1.3447 1.48399,-1.86801c0.78268,-0.56436 1.22954,-1.17981 1.8,-2.04666c0.42238,-0.64182 1.00168,-1.34702 1.68533,-1.60001c0.95117,-0.35199 1.72342,-0.70419 2.51199,-1.11734c0.73785,-0.38657 1.26057,-1.35791 1.95984,-1.74283c0.82747,-0.45551 1.88847,0.08966 2.64284,-0.22382c0.74377,-0.30905 1.534,-0.95868 2.304,-1.23334c0.61838,-0.22058 1.35132,-0.41495 2.65967,-0.70001c0.48447,-0.10556 1.49194,-0.29535 2.48831,-0.5c0.47614,-0.09781 1.71469,-0.39999 2.55768,-0.6955l0.86884,-0.58301" id="svg_14" stroke-width="2" stroke="#000" fill="none"/>
  <path t="46262,46349,46357,46365,46365,46380,46380,46380,46397,46397,46397,46397,46414,46414,46414,46414,46414,46414,46414,46414,46430,46430,46430,46430,46430,46447,46448,46448,46448,46464,46464,46464,46480,46481,46481,46497,46497,46514,46514,46514,46530,46547,46547,46547,46564,46564,46580,46580,46597,46597,46597,46614,46614,46614,46614,46614,46614,46630,46630,46653,46653,46653,46664,46664,46680,46697,46697,46714,46715,46715,46740,46741,46741,46752,46752,46798,46822,46822,46846,46864,46880,46880,46897,46897,46914,46914,46914,46930,46947,46967,46967,46967,47008,47008,47045,47045,47045,47049" d="m339.50568,208.09091c-0.61066,1.564 -1.58322,1.95937 -1.95633,2.70984c-0.30081,0.60503 -0.89679,1.41008 -1.58533,1.81099c-0.7753,0.45143 -1.54861,1.01166 -2.02365,1.5025c-0.53052,0.54816 -1.08646,1.23154 -2.26801,2.31c-0.46213,0.42181 -0.98407,0.83662 -1.53,1.2675c-0.5607,0.44254 -1.13611,0.87912 -1.71002,1.3125c-1.10553,0.83482 -2.10065,1.57762 -2.90134,2.23201c-0.3472,0.28377 -1.2121,1.05443 -1.70398,1.536c-0.74899,0.73328 -1.2601,1.27753 -1.82135,1.77699c-0.79684,0.70912 -1.8093,1.30899 -2.5,1.52084c-0.67804,0.20798 -1.70471,0.55212 -2.45831,1.04166c-0.71082,0.46176 -1.31757,1.27429 -1.79367,1.86317c-0.53348,0.65987 -1.24442,1.13623 -1.98135,1.54666c-0.92902,0.51743 -1.95013,0.88191 -2.41931,1.27917c-0.72189,0.61122 -1.28503,1.31519 -1.97269,1.87949c-0.81537,0.6691 -1.39554,0.91054 -2.37466,1.41068c-0.61353,0.3134 -1.32446,0.68375 -2.5,1.5c-0.36917,0.25633 -1.15347,0.85355 -1.56531,1.16533c-0.82263,0.62276 -1.5625,1.25145 -2.54901,1.84883c-0.6423,0.38895 -1.72089,0.64581 -2.39099,0.8385c-0.74619,0.21457 -1.84641,0.56866 -2.57333,0.63667c-0.91788,0.08588 -1.70172,0.42857 -2.47736,0.812c-0.96237,0.47574 -1.62643,0.60507 -2.30399,0.76266c-1.29944,0.30226 -2.12842,0.33636 -2.78268,0.46133c-0.98795,0.18871 -1.64764,0.7142 -2.49332,1c-0.83908,0.28357 -1.64703,0.68599 -2.30267,1.364c-0.59659,0.61694 -1.40723,0.78227 -2.23599,1.22134c-0.83176,0.44064 -1.45895,1.04568 -2.36783,1.26799c-0.68393,0.16728 -1.76932,-0.01482 -2.41583,0.64217c-0.61542,0.62537 -1.18536,1.5217 -1.87769,1.8685c-0.74353,0.37245 -1.58084,0.45422 -2.36398,0.672c-1.03098,0.2867 -1.58936,0.78934 -2.31467,1.37067l-0.87067,0.50667" id="svg_15" stroke-width="2" stroke="#000" fill="none"/>
  <path t="47926,47990,47998,47998,48015,48031,48047,48048,48048,48064,48065,48081,48081,48098,48098,48114,48114,48145,48148,48148,48157,48157,48169,48169,48183,48199,48216,48216,48232,48249,48265,48282,48282,48282,48319,48319,48334,48334,48374,48374,48381,48406,48430,48437,48469,48488,48488,48524,48541,48542,48549,48564,48596,48605,48629,48638,48655,48655,48673,48687,48700,48714" d="m314.50568,208.09091c0,1.75717 0.22482,2.70772 -0.08533,3.43066c-0.38254,0.89168 -0.7709,1.67451 -1.24799,2.40266c-0.4144,0.63249 -1.28409,0.93741 -2.26218,1.47118c-0.57767,0.31526 -1.40948,0.99806 -1.88367,1.6955c-0.55252,0.81267 -1.03485,1.50667 -1.6875,2.16667c-0.48102,0.48645 -1.16333,1.14883 -1.948,1.66666c-0.66992,0.44211 -1.15945,1.23694 -1.48532,1.89067c-0.46387,0.93057 -1.25378,1.28387 -2,1.88667c-0.76178,0.61539 -1.39047,1.27858 -2.20001,1.388c-0.89377,0.1208 -1.63818,0.40579 -2.11734,1.20132c-0.46524,0.7724 -1.12042,1.30742 -1.68533,1.60001c-0.99063,0.51309 -1.79523,0.90424 -2.59717,1.29984c-0.77731,0.38345 -1.62238,0.81197 -2.49567,0.89566c-0.86456,0.08286 -1.82532,0.00229 -2.7045,0.0045c-0.89551,0.00226 -1.48853,0.59561 -2.30533,0.94733c-0.67911,0.29242 -1.34918,0.81317 -2,1.35268c-0.67908,0.56293 -1.21368,1.44904 -1.90533,1.68933c-0.90161,0.31323 -1.44879,0.64655 -2.19067,1.09467c-0.70529,0.42603 -1.30661,1.24686 -1.99866,1.63066c-0.82449,0.45726 -1.76401,0.32133 -2.1955,0.98984l-0.06168,0.93834" id="svg_16" stroke-width="2" stroke="#000" fill="none"/>
  <path t="54589,54677,54685,54709,54717,54733,54747,54747,54767,54768,54788,54788,54788,54798,54798" d="m438.50568,169.09091c-1.81467,0.01067 -2.52313,0.49185 -3.28531,0.91467c-0.80219,0.44501 -1.76303,0.14957 -2.58667,0.51067c-0.72021,0.31575 -1.73425,0.50906 -2.36401,0.59999c-1.1889,0.17166 -1.97867,0.40001 -2.75415,0.62201l-0.86667,0.23132l-0.85516,0.20534" id="svg_17" stroke-width="20" stroke="#fff" fill="none"/>
  <path t="56374,56461,56461,56477,56477,56484,56484,56497,56497,56513,56530,56530,56530,56547,56547,56547,56572" d="m445.50568,168.09091c-1,1.16667 -1.61523,1.64111 -2.32132,2.10001c-0.66052,0.42929 -1.68015,0.97316 -2.26801,1.5c-0.63684,0.57074 -1.23804,1.0549 -2.04666,1.46132c-0.88528,0.44495 -1.37793,0.9978 -2.05066,1.45601c-0.9584,0.65276 -1.77167,0.94099 -2.45868,1.196l-1.07599,0.28683" id="svg_18" stroke-width="20" stroke="#fff" fill="none"/>
  <path t="59438,59581,59589,59598,59613,59631,59653,59663,59663,59680,59680,59717,59717,59717,59773,59821,59821,59838,59861,59917,59941,59949,60037,60045,60094,60157,60213" d="m423.50568,164.09091c1.70001,0 2.70001,0 3.60001,0c0.89999,0 1.80002,0 2.60135,0c0.96533,0 1.83548,-0.11177 2.7775,0.22133c0.72458,0.25621 1.56082,0.68729 2.27182,0.74268c0.979,0.07628 1.99329,-0.13023 2.84933,0.25732c0.67035,0.3035 1.49994,0.77333 2.39999,0.77867c0.89999,0.00533 1.80002,0 2.70001,0c0.89984,0 1.74734,0 2.60132,0l0.89868,0l0.89999,0" id="svg_19" stroke-width="2" stroke="#000" fill="none"/>
  <path t="61094,61214,61230,61246,61270,61279,61325,61325,61397,61413,61501,61525,61533,61581,61605,61613,61621,61661,61685,61693,61701,61717,61731,61773,61789,61845,61853,61870,61880,61949,61973,61981,61997,62079,62088,62109,62160,62165,62229,62245,62257,62270,62280" d="m427.50568,182.09091c1.70001,0 2.70001,0 3.60001,0c0.89999,0 1.78934,0 2.73334,0c0.6875,0 1.65015,0.10066 2.66666,0c0.8457,-0.08374 1.23773,-0.79269 2.09985,-1.00017c0.84012,-0.20218 1.25604,-0.97054 2.20016,-0.99983c0.89822,-0.02786 1.45096,-0.44725 2.13599,-0.97467c0.65253,-0.5024 1.45065,-1.01642 1.564,-1.85866c0.10883,-0.80873 0.93176,-0.7737 1.71469,-1.252c0.80322,-0.49071 1.51196,-0.65607 2.16397,-1.136c0.69827,-0.51398 1.13632,-1.16624 1.69601,-1.804c0.51746,-0.5896 1.26114,-0.7784 2.12534,-1.03185c0.87741,-0.25732 1.61353,-0.75751 2.46667,-0.94283c0.78308,-0.1701 1.25867,-0.97467 1.83331,-1.5l0.61069,-0.48933l0.95331,-0.04666l0.48868,-0.61134" id="svg_20" stroke-width="2" stroke="#000" fill="none"/>
  <path t="62974,63053,63085,63101,63133,63149,63173,63205,63229,63245,63269,63269,63309,63389,63405,63405,63430,63501,63517,63533,63541,63549,63565,63621,63637,63709,63725,63765,63789,63797,63861,63909,63941,63941,63965,63981,63981" d="m459.50568,167.09091c-1.83331,0.16667 -2.21524,0.9391 -3.09998,1c-0.89789,0.0618 -1.81094,-0.17839 -2.60452,0.05716c-0.87283,0.25906 -1.60172,0.82335 -2.49548,0.94417c-0.80957,0.10944 -1.45792,0.74918 -2.10001,1.29417c-0.75467,0.64056 -1.70001,0.7045 -2.5,0.7045c-0.89999,0 -1.76401,0 -2.72083,0c-0.87918,0 -1.80087,-0.1949 -2.67786,0.00133c-0.80704,0.18057 -1.23679,0.98067 -2.10132,0.99867c-0.89981,0.01874 -1.93216,-0.24425 -2.616,0.284c-0.6275,0.48471 -1.384,0.716 -2.28268,0.716c-0.85397,0 -1.80133,0 -2.60132,0l-0.836,0l-1.01666,0l-0.69467,0" id="svg_21" stroke-width="2" stroke="#000" fill="none"/>
  <path t="65693,66134,66134,66137,66235" d="m433.50568,161.09091c0,1 0,1.8 0,2.7l0,0.94284" id="svg_22" stroke-width="2" stroke="#000" fill="none"/>
  <path t="70109,70149,70173,70197,70205,70213,70213,70229,70230,70246,70247,70333,70333,70413,70493,70597,70621,70621,70725,70725,70733,70757,70765,70779,70796,70796,70813,70829,70846,70893,70901,70913,70942,70949,70973,70997,71029,71037,71069,71085,71101,71101" d="m420.50568,180.09091c1.70001,-0.9955 2.64285,-1 3.52084,-1c0.88983,0 1.80051,0 2.65384,0c0.94131,0 1.70932,0 2.66132,0c0.76535,0 1.75952,0 2.67868,0c0.94366,0 1.8425,0 2.68668,0c0.96533,0 1.79865,0 2.63199,0c0.86215,0 1.78586,0.16522 2.66666,-0.02083c0.84741,-0.17899 1.65054,-0.7319 2.5,-1.14584c0.65225,-0.31784 1.43094,-0.88338 2.02533,-1.40799c0.6434,-0.56789 1.25757,-1.10623 1.89069,-1.70934c0.57413,-0.54689 1.4437,-0.63124 2.05865,-1.14134c0.59927,-0.49709 1.02621,-1.36545 1.82666,-1.57333c0.81647,-0.21204 1.36536,-0.83466 2.21951,-1.02216l0.68451,-0.33633l0.72665,-0.44417" id="svg_23" stroke-width="2" stroke="#000" fill="none"/>
 </g>
 <g display="none">
  <title>muse_image</title>
  <image xlink:href="http://farm1.static.flickr.com/137/370801891_fbcf37a7d8.jpg" id="muse" height="480" width="408" y="0" x="116"/>
 </g>
 <g display="none">
  <title>bbox</title>
  <rect stroke="#f00" fill="none" stroke-width="3" height="249.6" width="264" y="106.56" x="150.56" id="bbox"/>
 </g>
</svg>
