<svg width="640" height="480" xmlns="http://www.w3.org/2000/svg" xmlns:svg="http://www.w3.org/2000/svg" xmlns:xlink="http://www.w3.org/1999/xlink">
 <!-- Sketchy ANNOTATION
  ImageNet ID: n01592084_1380
  URL: http://farm4.static.flickr.com/3123/2464775874_43186209f3.jpg
  Image Width: 500
  Image Height: 400
  BBox X: 18
  BBox Y: 135
  BBox Width: 345
  BBox Height: 235
  Exposure: 2000ms
  Synset Label: songbird
  Synset ID: n01526521
  Worker Tag: Bird
  Sanity Check: 
   Saved
  Comment: 
   {}
  Worker ID: AIH9VLD92GHFH
  Assignment ID: 39N5ACM9HENQWWML9D1IXAENK0ZP9K
  HIT ID: 388FBO7JZRT37SKMB8B43I7YPDAYN1
  Work Time: 77s
  Worker Score: 0.7143
 END ANNOTATION -->
 <g display="inline">
  <title>Layer 1</title>
  <path t="0,147,147,159,160,160,178,178,178,200,200,210,210,210,226,242,243,243,259,259,259,276,276,292,292,293,309,309,309,326,331,342,359,359,360,376,376,392,392,393,409,409,409,426,426,426,442,442,443,443,459,459,460,476,476,476,492,492,493,493,509,509,509,526,526,526,542,542,543,559,559,576,576,576,592,593,609,609,609,626,626,643,643,643,659,659,659,676,676,676,692,693,709,709,709,726,726,726,742,742,761,761,779,779,779,792,793,793,809,809,826,826,842,842,859,859,878,878,892,892,909,909,909,926,926,942,942,943,959,959,960,976,976,977,992,992,993,1009,1009,1009,1010,1026,1026,1026,1042,1042,1043,1059,1059,1060,1077,1077,1093,1093,1094,1109,1109,1127,1127,1143,1144,1159,1159,1176,1176,1192,1192,1209,1209,1226,1227,1242,1243,1259,1260,1260,1277,1277,1278,1292,1310,1310,1327,1327,1328,1342,1342,1359,1359,1376,1376,1392,1393,1393,1409,1409,1410,1426,1426,1442,1459,1460,1460,1476,1492,1492,1493,1509,1509,1526,1542,1542,1559,1559,1576,1609,1609,1642,1643,1726,1726,1759,1792,1792,1809,1842,1843,1859,1859,1876,1897,1898,1908,1908,1908,1926,1926,1942,1959,1959,1992,1992,2025,2026,2042,2042,2078,2079,2110,2125,2126,2376,2393,2408,2409,2410,2426,2427,2442,2442,2443,2475,2476,2477,2492,2493,2525,2542,2542,2592,2641,2675,2692,2692,2708,2709,2725,2726,2742,2742,2758,2759,2775,2776,2792,2792,2810,2811,2826,2826,2827,2842,2843,2858,2908,2909,2925,2926" d="m218,176c1.89467,-1.0625 1.95123,-2.07716 2.44299,-2.85733c0.46835,-0.74303 1.20628,-1.06693 1.95435,-1.91068c0.40808,-0.46028 0.99982,-1.17534 1.43333,-2.26399c0.2972,-0.74634 0.45332,-1.73601 0.66933,-2.468c0.216,-0.73199 0.36272,-1.71312 0.66667,-2.66667c0.22035,-0.69127 0.69315,-1.45546 1.31732,-2.23332c0.49527,-0.61723 1.07562,-1.16916 1.63068,-2c0.51674,-0.7735 0.86566,-1.61041 1.29599,-2.40001c0.33156,-0.60838 0.89125,-1.41718 1.58934,-2.17917c0.50235,-0.54832 1.24283,-1.26366 1.79866,-1.81949c0.612,-0.612 1.36801,-1.36801 1.854,-1.854c0.69467,-0.69467 1.26732,-1.39879 2.00867,-1.93668c0.82451,-0.59824 1.61607,-0.76891 2.33333,-1.16783c0.90089,-0.50107 1.33463,-1.0955 1.81067,-1.64732c0.70857,-0.82138 1.45601,-1.39551 1.98001,-1.7955c1.04799,-0.79999 1.53992,-1.18846 2.19383,-1.8c0.6299,-0.58908 1.22083,-1.2 1.82083,-1.8c0.59999,-0.59999 1.3828,-1.41835 2.01067,-1.98933c0.62965,-0.5726 1.33795,-1.0809 2.1465,-1.45349c0.83661,-0.38553 1.44478,-0.554 2.64149,-0.95717c0.59097,-0.1991 1.4559,-0.47087 2.47983,-0.90018c0.69403,-0.29099 1.34839,-0.61551 2.3215,-1.38382c0.62112,-0.49039 1.16223,-1.08635 2.00134,-1.62933c0.59531,-0.38524 1.76288,-0.73819 2.54684,-0.834c0.78848,-0.09636 1.71848,-0.21935 2.55182,-0.55267c0.83334,-0.33333 1.50439,-0.46574 2.49466,-0.4955c1.0369,-0.03116 1.82758,-0.08325 2.54819,-0.44717c0.73752,-0.37245 1.47375,-0.93983 2.53583,-1.3145c0.67828,-0.23927 1.61249,-0.29271 2.604,-0.52682c0.80316,-0.18965 1.53299,-0.50929 2.51199,-0.65884c0.76645,-0.11708 1.81967,-0.05716 2.62665,-0.05716c0.58136,0 1.77698,0.02484 2.63702,-0.02084c0.77261,-0.04103 1.70447,-0.40933 2.50964,-0.69517c0.77805,-0.27621 1.81732,-0.27866 2.86536,-0.284c0.71399,-0.00363 1.61932,0 2.58783,0c0.79349,0 1.569,0 2.6095,0c0.85199,0 1.80533,0 2.57065,0c0.99869,0 1.79868,0 2.79736,0c0.76532,0 1.71866,0 2.57065,0c0.80002,0 1.81601,0 2.86401,0c0.7095,0 1.56216,0 2.56665,0c0.80002,0 1.80142,-0.02918 2.62085,0.02084c0.66638,0.04068 1.66318,0.26836 2.5,0.47916c0.87912,0.22147 1.77823,0.38596 2.66849,0.47467c0.85284,0.08499 1.90439,0.2049 2.58533,0.472c0.69598,0.27299 1.64487,0.8779 2.46133,1.37866c0.57327,0.35161 1.14673,0.72943 2.36267,1.28934c0.58237,0.26816 1.4487,0.56946 2.48001,0.98517c0.69913,0.28181 1.36288,0.59444 2.3425,0.77899c0.78677,0.14822 1.67978,0.0352 2.6095,0.69051c0.69379,0.48901 1.26749,1.44246 1.80533,1.79466c0.7363,0.48218 1.74948,0.96669 2.36401,1.2c0.97992,0.37202 1.84094,0.24675 2.77847,0.65767c0.68155,0.29872 1.21063,1.26875 1.62152,1.953c0.48737,0.81165 1.0015,1.4646 1.72131,1.92517c0.81824,0.52354 1.75604,0.58284 2.47736,1.06949c0.76581,0.51668 1.02905,1.41211 1.68665,1.94534c0.67331,0.54597 1.72394,0.96825 2.31467,1.29599c0.81345,0.45129 1.60916,1.06178 2.17917,1.58934c0.54578,0.50514 1.26367,1.24283 2.02084,2c0.52084,0.52083 1.16669,1.16666 1.82535,1.82533c0.52197,0.52199 1.28931,1.28934 1.87015,1.87016c0.60901,0.60901 1.1969,1.18288 1.78851,1.78984c0.69907,0.71721 1.37488,1.49802 1.75882,2.11467c0.48584,0.78029 0.8179,1.62244 1.27802,2.37917c0.33655,0.5535 1.19498,1.18042 1.76932,1.71632c0.79785,0.74443 0.84103,1.64912 1.14584,2.54451c0.24084,0.70752 0.97293,1.37219 1.39734,2.25999c0.34555,0.72287 0.08316,1.60915 0.73465,2.52933c0.46216,0.65279 1.33844,1.16151 1.43201,2.13734c0.06287,0.65575 0.1825,1.65831 0.57468,2.42267c0.41702,0.81281 0.65353,1.72922 0.92532,2.41066c0.3887,0.97462 0.52524,1.79416 1.20984,2.2955c0.73401,0.53755 1.84174,0.5645 2.23749,1.40984c0.31351,0.66966 0.56268,1.61157 1.38602,2.12799c0.59927,0.37589 1.61453,0.44435 2.36215,0.81401c0.79742,0.39427 1.80521,0.26076 2.51517,0.42467c1.02942,0.23766 1.55862,0.82346 2.18933,1.22266c0.95718,0.60585 1.76889,0.60773 2.71466,0.70667c0.89575,0.0937 1.61298,0.75908 2.54251,0.94151c0.73517,0.14429 1.74283,0.0571 2.54285,0.05716c0.99982,0.00009 1.82501,-0.13889 2.77847,0.22133c0.66013,0.24939 1.54214,0.76825 2.34283,0.77867c0.85327,0.01109 1.98532,-0.19467 1.98535,0c0.00018,0.84933 -1.59216,-0.12834 -2.53867,0.17067c-0.85175,0.26907 -1.32266,1.15193 -2.311,1.58633c-0.68549,0.3013 -1.56598,0.23849 -2.457,0.243c-0.89099,0.0045 -1.728,0 -2.85699,0c-0.72168,0 -1.66446,-0.03253 -2.62567,0.00133c-0.80893,0.02849 -1.62106,0.47408 -2.16467,1.05135c-0.64279,0.68259 -1.25748,1.27063 -1.34198,2.13266c-0.09067,0.925 -0.15198,1.64815 -0.87201,2.22533c-0.63181,0.50645 -1.37967,1.24321 -1.83417,1.93668c-0.50378,0.76868 -1.06015,1.35034 -1.78717,1.854c-0.80582,0.55826 -1.34021,1.28477 -1.53201,1.97333c-0.2627,0.94302 -0.78735,1.55368 -1.75198,2.02667c-0.70111,0.34377 -1.56836,0.55029 -2.06635,1.45132c-0.43454,0.78625 -0.603,1.71133 -1.16699,2.34734l-0.63599,0.564l-0.84802,0.35068l-0.86331,0.08083" id="svg_1" stroke-width="2" stroke="#000" fill="none"/>
  <path t="3447,3558,3558,3576,3576,3576,3591,3592,3592,3609,3624,3625,3625,3641,3642,3642,3658,3658,3675,3676,3691,3708,3708,3709,3725,3726,3741,3742,3758,3759,3759,3775,3776,3776,3791,3792,3792,3792,3808,3809,3809,3809,3825,3826,3841,3842,3842,3858,3858,3875,3876,3876,3891,3892,3892,3908,3908,3925,3926,3926,3941,3942,3958,3958,3958,3975,3976,3976,3991,3992,3992,3992,4008,4008,4025,4026" d="m318,164c-6.69067,0.916 -7.43103,0.93658 -8.54266,1.22166c-0.7196,0.18454 -1.52637,0.43941 -2.31433,1.09967c-0.52875,0.44305 -1.01163,1.15018 -1.53235,2.064c-0.51828,0.90953 -0.49414,1.63333 -0.672,2.364c-0.27716,1.13853 -1.02225,1.68552 -1.37067,2.21867c-0.61938,0.94775 -0.55731,1.78114 -0.56799,2.69867c-0.01059,0.91194 0,1.875 0,2.87599c0,0.70801 -0.09937,1.45703 0.00266,2.48801c0.08551,0.86418 0.66403,1.67207 1.21869,2.108c0.91025,0.71544 1.58731,0.8228 2.46399,0.85866c1.00052,0.04092 1.85632,0.00267 2.47632,0.00267c1.35968,0 2.091,0 2.83835,0c0.74734,0 1.83334,0 2.83835,0c0.91498,0 1.47498,0 2.70898,0c0.67801,0 1.87567,0.03648 2.66733,-0.02133c0.77899,-0.0569 1.67822,-0.38531 2.2645,-0.9995c0.73489,-0.7699 1.27377,-1.12953 1.811,-1.789c0.69516,-0.8533 0.68661,-1.71031 0.70718,-2.50751c0.02576,-0.99832 0.00266,-1.90799 0.00266,-2.84933c0,-0.78149 0.0502,-1.57314 -0.00034,-2.69066c-0.03598,-0.79575 -0.41943,-1.69995 -0.87167,-2.39334c-0.33261,-0.50996 -1.09723,-1.4538 -1.73248,-1.9395c-0.60446,-0.46217 -1.56345,-0.97444 -2.34369,-1.45799c-0.53186,-0.32961 -1.28247,-0.7825 -2.24649,-1.2375l-0.77332,-0.11166l-1.03735,-0.00717l-0.74399,-0.03149" id="svg_2" stroke-width="2" stroke="#000" fill="none"/>
  <path t="4798,4958,4958,4975,4975,4991,5008,5008,5008,5025,5041,5042,5058" d="m297,170c6.05734,1.82933 6.89648,1.94592 7.83334,2c0.80566,0.04651 1.16663,0.68884 1.388,1.54266c0.25021,0.96516 0.49466,1.68933 0.7215,2.64301l0.05716,0.91451l0,0.78516l0,0.94" id="svg_3" stroke-width="2" stroke="#000" fill="none"/>
  <path t="5747,5925,5925,5941,5942,5942,5957,5957,5957,5975,5975,5975,5991,5991,5991,6008,6024,6025,6041,6041" d="m302,170c5.14133,-0.91066 6.14651,-1.17622 6.75717,-0.33566c0.38705,0.53275 0.21539,1.40852 0.52682,2.65166c0.17432,0.6958 0.49182,1.35799 0.63068,2.36934c0.11398,0.83018 0.08466,1.716 0.08533,2.912c0.00034,0.58133 0,1.38834 0,2.58833c0,0.91451 0,1.69966 0,2.63966l0,0.69067" id="svg_4" stroke-width="2" stroke="#000" fill="none"/>
  <path t="6663,6824,6825,6825,6825,6841,6842,6842,6858,6858,6891,6891,6908,6908,6925,6925,7057,7107,7142,7143,7158,7180,7181,7207,7225,7225,7241,7258,7258,7275,7307,7308,7308,7325,7325,7341,7357,7358,7358,7375,7375,7391,7391,7408,7425,7425,7450,7450,7450,7463,7475,7476,7491,7491,7507,7524,7525,7540,7540,7540,7557,7558,7558,7574,7575,7575,7591,7591,7591,7607,7608,7608,7608,7608,7625,7625,7625,7641,7641,7641,7641,7657,7658,7658,7658,7675,7675,7675,7691,7691,7691,7707,7708,7708,7725,7725,7725,7741,7741,7741,7741,7742,7757,7758,7758,7758,7774,7775,7775,7775,7791,7791,7791,7792,7792,7807,7808,7808,7808,7809,7809,7825,7825,7826,7826,7841,7841,7842,7842,7842,7842,7857,7858,7858,7858,7858,7874,7875,7875,7875,7876,7876,7891,7891,7891,7892,7892,7907,7908,7908,7908,7909,7909,7909,7924,7925,7925,7925,7926,7926,7941,7941,7941,7942,7942,7942,7957,7958,7958,7958,7959,7975,7975,7975,7975,7975,7999,7999,7999,7999,7999,8000,8014,8014,8014,8014,8014,8034,8034,8034,8034,8034,8035,8054,8055,8055,8055,8055,8055,8079,8079,8079,8079,8079,8080,8099,8099,8099,8100,8100,8100,8100,8100,8125,8125,8125,8125,8125,8125,8149,8149,8149,8149,8149,8152,8152,8152,8152,8153,8154,8157,8157,8157,8157,8158,8158,8158,8176,8177,8177,8177,8177,8178,8178,8180,8180,8180,8180,8180,8181,8203,8203,8204,8204,8204,8204,8204,8204,8204,8221,8221,8221,8221,8222,8222,8222,8222,8239,8240,8240,8240,8240,8240,8241,8269,8270,8270,8270,8270,8270,8271,8271,8290,8290,8290,8291,8291,8291,8291,8291,8309,8309,8309,8309,8309,8310,8310,8310,8312,8312,8312,8312,8313,8313,8313,8313,8315,8315,8315,8315,8316,8316,8316,8316,8338,8339,8339,8339,8339,8340,8340,8360,8360,8360,8360,8361,8361,8361,8361,8386,8386,8386,8386,8387,8387,8387,8388,8409,8409,8409,8409,8409,8429,8429,8429,8430,8430,8430,8432,8432,8432,8433,8433,8435,8435,8435,8436,8436" d="m368,205c-0.87851,5.9355 -0.97162,7.09175 -0.98932,7.76801c-0.01642,0.62784 0.01413,1.83032 -0.03152,2.69032c-0.04102,0.77261 -0.41718,1.70174 -0.69516,2.50967c-0.34613,1.00594 -0.17886,1.84824 -0.61734,2.69867c-0.38477,0.74628 -1.22226,1.41388 -1.71481,1.97617c-0.56036,0.63968 -0.94141,1.37782 -0.95184,2.33566c-0.00891,0.82011 0.01184,1.67299 -0.284,2.50549c-0.31363,0.88261 -0.68741,1.7574 -0.716,2.61618c-0.02612,0.78471 0.29132,1.90843 -0.33334,2.5665c-0.61072,0.64339 -1.56091,0.69833 -1.83331,1.66666c-0.18884,0.67122 -0.47968,1.3988 -0.71185,2.52367c-0.17023,0.82478 -0.10107,1.69383 -0.34283,2.68567c-0.1745,0.71585 -0.50662,1.43448 -0.69333,2.48801c-0.14938,0.84299 -0.06219,1.79504 -0.08533,2.48534c-0.03601,1.07515 -0.66953,1.58319 -1.29468,2.29832c-0.56775,0.64949 -0.66663,1.43456 -0.70267,2.41766c-0.03513,0.95753 -0.00259,1.93468 -0.00266,2.76801c-0.00009,0.9785 -0.07828,1.68449 -0.5,2.52083c-0.39874,0.79079 -0.48227,1.68993 -0.50015,2.67934c-0.01483,0.8208 -0.05682,1.49121 -0.28384,2.48517c-0.19217,0.84131 -0.45911,1.71152 -0.59485,2.6145c-0.13318,0.88589 -0.12778,1.78207 -0.564,2.77899c-0.21771,0.49759 -0.81198,1.14346 -1.3905,2.25452c-0.32117,0.61682 -0.53906,1.32544 -0.75598,2.052c-0.2178,0.72952 -0.61578,2.12881 -0.80002,2.78931c-0.181,0.64896 -0.45264,1.99103 -0.52798,2.70801c-0.07681,0.73111 -0.01782,1.48822 -0.41602,2.784c-0.17944,0.58392 -0.72879,1.27795 -1.09866,2.01602c-0.48343,0.96463 -0.53119,1.84018 -0.65067,2.71866c-0.1225,0.90088 -0.33783,1.79294 -0.52798,2.36267c-0.36026,1.07947 -0.8194,1.9968 -1.03217,2.68866c-0.29315,0.95328 -0.3194,1.79739 -0.41852,2.39401c-0.22086,1.3295 -0.49585,2.04224 -0.79999,2.77866c-0.31165,0.75455 -0.67358,1.48322 -1.11716,2.55334c-0.27533,0.66418 -0.51605,1.31647 -0.82019,2.30533c-0.31763,1.03268 -0.49942,1.77502 -0.72217,2.53683c-0.22971,0.78561 -0.63699,1.9827 -0.96317,2.78049c-0.3324,0.81305 -0.53204,1.21304 -0.86331,2.05585c-0.51096,1.29996 -0.63928,1.76172 -0.90002,2.69098c-0.26062,0.9288 -0.35114,1.39874 -0.63666,2.2825c-0.40039,1.23935 -0.7626,1.97235 -1.15765,2.66934c-0.40479,0.71417 -1.12704,1.83209 -1.37952,2.24283c-0.53131,0.86438 -1.06354,1.77496 -1.3175,2.24249c-0.50305,0.92609 -0.94366,1.84167 -1.29333,2.72934c-0.33231,0.84357 -0.44556,1.27322 -0.77332,2.08084c-0.49457,1.21863 -0.94739,2.01596 -1.47733,2.79382c-0.27017,0.39658 -0.87299,1.16287 -1.20535,1.52533c-1.00259,1.09335 -1.76843,1.73801 -2.14798,2.07068c-0.77319,0.6777 -1.1933,0.99872 -2.36401,2.14801c-0.40833,0.40088 -0.81494,0.82144 -1.56799,1.73865c-0.37921,0.46188 -1.0755,1.42776 -1.37601,1.93066c-0.58572,0.98019 -1.00977,1.99377 -1.198,2.49286c-0.36938,0.97943 -0.48477,1.48944 -0.91,2.41916c-0.63998,1.39923 -0.98386,1.81454 -1.64532,2.64932c-0.33499,0.42273 -0.69891,0.82513 -1.42133,1.63467c-0.71494,0.80112 -1.40637,1.59122 -2.02402,2.40134c-0.30127,0.39517 -0.88345,1.17538 -1.52399,2.39999c-0.20538,0.39264 -0.52802,1.20001 -0.83334,2c-0.30533,0.79999 -0.81473,2.01047 -1.27066,2.79999c-0.23425,0.40561 -0.76447,1.20468 -1.33835,2c-0.29037,0.4024 -1.19196,1.59915 -1.48965,2c-0.59293,0.79834 -1.17062,1.59637 -1.44418,2c-0.80621,1.18951 -1.27448,2 -1.50897,2.40002c-0.46899,0.79999 -0.94733,1.60709 -1.21753,2c-0.84106,1.22305 -1.54037,2.00415 -1.90265,2.39999c-0.74002,0.80859 -1.13559,1.20135 -1.53067,1.60001c-1.19345,1.20419 -1.59473,1.60541 -2.41867,2.39999c-0.41766,0.40277 -0.83716,0.8154 -1.74933,1.60001c-0.94894,0.81625 -1.46915,1.20377 -1.99734,1.59998c-1.07687,0.80777 -1.63269,1.19904 -2.18134,1.60001c-0.54602,0.39905 -1.10507,0.77206 -2.60733,1.99985c-0.47729,0.39008 -0.93106,0.78397 -1.75998,1.57932c-0.39536,0.37936 -1.12146,1.12546 -1.75,1.85419c-0.5787,0.67093 -1.07779,1.34518 -1.65601,1.91998c-0.59042,0.58691 -1.75824,1.33475 -2.216,1.564c-0.9743,0.48792 -1.50528,0.69855 -2.03201,0.944c-1.06873,0.49799 -2.1048,1.05847 -2.58664,1.3815c-0.95557,0.64063 -1.39264,1.01776 -2.29333,1.74252c-0.45499,0.36612 -0.88699,0.77554 -2.39218,1.79282c-0.51651,0.34909 -1.06125,0.66617 -1.6185,0.96451c-1.11292,0.59583 -1.68457,0.85257 -2.25601,1.08533c-1.64557,0.67026 -2.19867,0.8132 -3.27866,1.12134c-0.54434,0.1553 -1.10419,0.29105 -2.25867,0.61865c-1.24854,0.35428 -1.91095,0.5712 -2.60001,0.80267c-0.71365,0.23975 -1.44366,0.49857 -2.18698,0.771c-0.75537,0.27686 -1.51584,0.56433 -2.27701,0.86102c-1.51703,0.59131 -2.25966,0.89661 -2.99333,1.19464c-0.72198,0.2933 -1.42996,0.5831 -2.1255,0.86102c-0.67915,0.27136 -1.98468,0.78784 -3.22917,1.20831c-0.58803,0.19867 -1.16382,0.37076 -2.28267,0.68268c-0.54993,0.15332 -1.65785,0.44971 -2.21866,0.61865c-1.16934,0.35229 -1.77811,0.56647 -3.04634,1.04184c-0.6593,0.24713 -1.32715,0.51151 -2.00699,0.77551c-0.68747,0.26697 -1.37711,0.54358 -2.77867,1.048c-0.69777,0.25113 -1.39816,0.48419 -2.0955,0.71399c-1.38268,0.45566 -2.06946,0.67514 -2.74733,0.90533c-0.67281,0.22849 -1.99219,0.70975 -2.636,0.96851c-0.64021,0.25729 -1.90526,0.79648 -2.54199,1.05798c-0.63927,0.26254 -1.28429,0.52435 -1.9485,0.7515c-1.35495,0.46338 -2.07129,0.63516 -2.79868,0.79868c-0.73538,0.16528 -1.4807,0.31076 -2.98132,0.54935c-0.7444,0.11835 -1.48305,0.21597 -2.91734,0.42133c-0.69051,0.09888 -1.36331,0.19724 -2.019,0.3045c-1.27399,0.2084 -1.89378,0.32751 -2.50533,0.45267c-0.60716,0.12424 -2.40987,0.56161 -3.01035,0.72684c-0.60387,0.16614 -1.81902,0.51767 -2.43466,0.69064c-0.6207,0.17438 -1.24429,0.3624 -2.53067,0.65869c-1.3152,0.30292 -1.99434,0.41324 -2.67999,0.53067c-0.69437,0.11893 -1.39969,0.22748 -2.11501,0.33148c-0.72467,0.10538 -2.20483,0.30579 -2.95917,0.40433c-1.51799,0.19827 -2.27231,0.29111 -3.01666,0.37933c-0.72899,0.0864 -1.43793,0.16766 -2.1225,0.2355c-1.27261,0.12613 -2.4001,0.20142 -2.91583,0.23718c-0.96184,0.06668 -1.87186,0.1123 -3.19084,0.3815c-0.45834,0.09354 -1.39037,0.37241 -2.35416,0.66666c-0.48978,0.14954 -1.47311,0.46597 -2.47917,0.66666c-0.9912,0.19769 -1.49025,0.23196 -2.45833,0.3125c-0.9267,0.07709 -2.20834,0.1875 -2.97368,0.30484l-0.71733,0.14133l-0.70132,0.14935l-0.71733,0.14133" id="svg_5" stroke-width="2" stroke="#000" fill="none"/>
  <path t="8829,8957,8957,8974,8974,8975,8991,8991,8991,8991,8991,9007,9007,9007,9008,9024,9025,9025,9040,9041,9041,9057,9057,9057,9074,9075,9075,9090,9091,9091,9091,9112,9112,9112,9125,9125,9125,9139,9140,9140,9140,9157,9157,9157,9157,9175,9176,9176,9190,9191,9191,9191,9207,9207,9208,9208,9208,9224,9225,9225,9225,9240,9241,9241,9241,9241,9242,9272,9273,9273,9273,9273,9303,9303,9303,9304,9335,9335,9335,9335,9365,9365,9365,9365,9367,9367,9367,9367,9367,9369,9369,9369,9369,9369,9371,9371,9371,9371,9371,9399,9399,9399,9399,9399,9399,9401,9401,9401,9401,9401,9429,9429,9430,9430,9430,9431,9431,9431,9431,9432,9432,9460,9460,9460,9460,9460,9460,9462,9462,9462,9462,9462,9463,9463,9463,9491,9491,9491,9491,9491,9491,9491,9493,9493,9493,9493,9493,9493,9494,9521,9522,9522,9522,9522,9522,9522,9522,9549,9549,9549,9549,9549,9549,9550,9578,9578,9578,9578,9578,9578,9578,9579,9606,9607,9607,9607,9607,9607,9607,9607,9609,9609,9609,9609,9609,9609,9610,9610,9611,9611,9611,9611,9612,9612,9612,9612,9613,9613,9614,9614,9614,9614,9614,9614,9644,9644,9644,9644,9644,9645,9645,9645,9646,9647,9647,9647,9647,9647,9647,9648,9648,9678,9678,9678,9679,9679,9679,9679,9679,9679,9681,9681,9681,9682,9682,9682,9682,9682,9711,9712,9712,9712,9712,9712,9712,9713,9713,9715,9715,9715,9715,9715,9715,9716,9716,9716,9746,9746,9746,9746,9747,9747,9747,9747,9747,9749,9749,9749,9749,9750,9750,9750,9750,9780,9780,9780,9780,9781,9781,9781,9781,9783,9783,9783,9784,9784,9784,9784,9784,9784,9813,9813,9814,9814,9814,9814,9816,9816,9816,9816,9817,9817,9817,9818,9818,9857,9857,9857,9858,9858,9858,9858,9858,9860,9861,9861,9861,9861,9862,9862,9862,9864,9864,9864,9865,9865,9865,9865,9909,9909,9909,9909,9910,9910,9910,9910,9912,9913,9913,9913,9913,9914,9914,9914,9945,9945,9946,9946,9946,9946,9947,9947,9975,9975,9976,9976,9976,9976,9977,9977,9977,9979,9979,9979,9980,9980,9980,9980,9980,9981,10012,10013,10013,10013,10013,10014,10014,10014,10014,10016,10017,10017,10017,10017,10018,10018,10018,10018,10049,10050,10050,10050,10051,10051,10051,10051,10052,10055,10055,10055,10056,10056,10056,10056,10057,10057,10085,10086,10086" d="m225,170c-3.54733,-0.94284 -4.22528,-1.0022 -5.42166,-0.99983c-0.82507,0.00163 -1.43013,-0.00836 -2.74501,0.1665c-0.72095,0.09587 -1.46414,0.26048 -2.20799,0.48c-0.74734,0.22055 -1.81271,0.65723 -2.46367,1.006c-0.92856,0.49748 -1.46074,0.88791 -2.47766,1.46201c-0.67494,0.38103 -1.37167,0.67503 -2.36667,1.088c-0.79951,0.33183 -1.61575,0.70164 -2.17467,1.34c-0.56795,0.64868 -0.83751,1.56036 -1.6855,2.3145c-0.64632,0.57478 -1.27751,0.69562 -2.2905,1.30951c-0.73766,0.44704 -1.36026,1.03958 -1.76534,1.43466c-0.80994,0.78993 -1.40059,1.39941 -2.00134,1.99867c-0.80167,0.79967 -1.17914,1.24673 -1.91432,1.74283c-1.07365,0.7245 -1.79439,0.90041 -2.48567,1.17799c-0.6982,0.28036 -1.70372,0.76945 -2.48567,1.48001c-0.49768,0.45224 -1.0331,1.26909 -1.91699,1.74583c-0.59848,0.3228 -1.38536,0.3717 -2.56801,0.82399c-0.71297,0.27266 -1.45224,0.64743 -2.23199,1.032c-0.79897,0.39404 -1.59766,0.79407 -2.38667,1.19734c-0.77631,0.39679 -1.53455,0.78395 -2.58932,1.40016c-0.67471,0.39417 -1.326,0.81377 -1.974,1.257c-1.02148,0.6987 -1.73282,1.22617 -2.10001,1.5c-0.75038,0.5596 -1.49825,1.14293 -1.86333,1.44417c-1.07338,0.88568 -1.72632,1.49983 -2.384,2.07784c-0.64777,0.56929 -0.96071,0.86815 -2.02116,1.59949c-0.71207,0.49107 -1.47295,0.89868 -2.16901,1.37401c-0.99898,0.68219 -1.5462,1.22461 -2.04849,1.76199c-0.71774,0.7679 -1.40843,1.48158 -1.948,1.81734c-0.82758,0.51497 -1.49174,0.74263 -2.48001,1.30133c-0.73174,0.41367 -1.46938,0.92795 -2.24399,1.45201c-0.39386,0.26646 -1.58556,1.05432 -2.388,1.53065c-0.39499,0.23447 -1.1908,0.66708 -1.94417,1.13667c-1.10616,0.6895 -1.7795,1.22519 -2.43184,1.78333c-0.32855,0.28111 -0.96518,0.88324 -1.992,1.76401c-0.70995,0.60896 -1.08209,0.90666 -1.85416,1.47917c-0.77541,0.575 -1.16959,0.85289 -2.37885,1.59966c-0.78439,0.48439 -1.56479,0.93282 -1.92833,1.18251c-0.71382,0.49028 -1.64876,1.36658 -2.17116,2.05299c-0.54208,0.71227 -0.75912,1.1284 -1.35417,1.88834c-0.96606,1.23373 -1.39526,1.60223 -1.80917,1.99733c-0.84874,0.81017 -1.30138,1.19579 -1.73666,1.60001c-1.27901,1.18773 -1.6721,1.58775 -2.39099,2.409c-0.35561,0.40623 -1.02972,1.25912 -1.358,1.70534c-1.03508,1.40694 -1.37389,1.92812 -1.73717,2.455c-0.37241,0.54012 -0.7484,1.09357 -1.52533,2.21599c-0.3927,0.56731 -0.7841,1.13673 -1.58934,2.248c-0.39661,0.54735 -0.79484,1.08293 -1.58933,2.12001c-0.38796,0.50642 -0.7749,0.99982 -1.52534,1.95999c-0.71889,0.91982 -1.06895,1.36192 -1.73267,2.243c-0.3298,0.43782 -0.9808,1.33907 -1.30533,1.81067c-0.33423,0.48569 -1.36994,2.09631 -1.73267,2.685c-0.37297,0.6053 -0.74887,1.22513 -1.13551,1.84801c-0.38802,0.62512 -0.77227,1.24962 -1.1805,1.84801c-1.1667,1.71019 -1.59537,2.2025 -2.00317,2.6895c-0.40164,0.47966 -1.23085,1.40309 -1.65267,1.86333c-0.42751,0.46645 -1.31607,1.42674 -2.22683,2.46983c-0.47209,0.54071 -0.94377,1.0993 -1.416,1.67099c-0.47714,0.57764 -0.95165,1.16397 -1.416,1.76102c-0.926,1.19064 -1.36514,1.79544 -1.79867,2.39734c-0.43079,0.59808 -0.85378,1.19693 -1.67467,2.39999c-0.40838,0.59851 -0.80971,1.19974 -1.61066,2.39999c-0.40019,0.5997 -0.79931,1.19913 -1.2,1.7955c-0.39931,0.5943 -0.7953,1.18692 -1.60001,2.34732c-0.39767,0.57346 -1.19807,1.69193 -1.6,2.23584c-0.3981,0.53873 -0.79951,1.06903 -1.6,2.12134c-0.39976,0.52551 -0.80238,1.0509 -1.2,1.58401c-0.80482,1.07907 -1.60197,2.20087 -2.0045,2.77316c-0.40681,0.57837 -0.81528,1.1644 -1.2315,1.75348c-0.42011,0.5946 -0.84077,1.19702 -1.73067,2.38934c-0.45036,0.60339 -0.91698,1.2016 -1.386,1.8045c-0.94663,1.21689 -1.42495,1.82925 -1.89467,2.45267c-0.47163,0.62595 -1.39117,1.90601 -1.83117,2.56433c-0.44137,0.66037 -0.86784,1.3335 -1.2855,2.0145c-0.41869,0.68268 -0.8271,1.37363 -1.2315,2.06851c-0.40493,0.69577 -1.20467,2.0954 -1.60433,2.79532c-0.399,0.69876 -0.79632,1.39529 -1.1895,2.08951c-0.39048,0.68945 -0.77586,1.37399 -1.1535,2.0535c-0.37302,0.67117 -1.09196,1.98972 -1.43583,2.63583c-0.33878,0.63657 -0.66905,1.26849 -0.996,1.896c-0.32571,0.62515 -0.97617,1.87897 -1.30933,2.50934c-0.67894,1.28464 -1.03712,1.93777 -1.4,2.60266c-0.36845,0.67511 -0.74341,1.35889 -1.116,2.05499c-0.37677,0.70389 -0.75427,1.41653 -1.116,2.14502c-0.73144,1.47305 -1.06763,2.23233 -1.39734,2.99731c-0.33032,0.76642 -0.64436,1.53964 -0.945,2.31601c-0.29934,0.77298 -0.58515,1.5455 -0.855,2.31601c-0.53017,1.51382 -0.76585,2.26221 -1.00401,2.99731c-0.23484,0.72488 -0.4642,1.44128 -0.7035,2.14502c-0.23675,0.69626 -0.47664,1.38489 -0.7485,2.05499c-0.53964,1.33014 -0.86659,1.96872 -1.19733,2.60266c-0.66027,1.26556 -1.01682,1.88171 -1.34666,2.50934c-0.3285,0.62506 -0.673,1.24228 -1.18667,2.54132c-0.25601,0.64743 -0.646,1.99396 -0.824,2.68002c-0.18005,0.69394 -0.34764,1.40112 -0.534,2.11499c-0.18957,0.72617 -0.63183,2.20862 -0.90617,2.95917c-0.27888,0.763 -0.59228,1.52097 -0.9225,2.27249c-0.32817,0.74683 -0.67041,1.47473 -1.0125,2.1825c-0.33134,0.68555 -0.97192,1.95532 -1.53017,3.08817c-0.25838,0.52432 -0.51246,1.02859 -0.94933,2.03735c-0.2193,0.50638 -0.82521,2.16406 -1.02167,2.78433c-0.20642,0.6517 -0.40725,1.33441 -0.621,2.03699c-0.21888,0.71945 -0.44409,1.4502 -0.693,2.181c-0.24976,0.73328 -0.80396,2.16992 -1.1285,2.85333c-0.63776,1.34296 -1.01443,1.97336 -1.378,2.60135c-0.36048,0.62268 -0.73267,1.23166 -1.0965,1.83899c-0.7193,1.20068 -1.06671,1.79968 -1.73,3.00266c-0.33002,0.59854 -0.65189,1.20044 -0.978,1.80002c-0.32656,0.60043 -0.63994,1.21091 -1.696,3c-0.35638,0.60376 -0.73061,1.20044 -1.104,1.79999c-0.37395,0.60046 -0.75322,1.19763 -1.122,1.80002c-1.09761,1.79294 -1.43319,2.39877 -1.76867,2.99866c-0.33318,0.59579 -0.65658,1.19183 -0.984,1.78049c-0.64854,1.16599 -0.96797,1.74545 -1.66667,2.85419c-0.34694,0.55057 -0.7131,1.08792 -1.46933,2.15198c-0.38203,0.53754 -0.77626,1.07489 -1.1685,1.62451c-0.39846,0.55835 -1.60104,2.33231 -2.0035,2.97684c-0.4238,0.67871 -0.85972,1.41116 -1.317,2.20499c-0.49504,0.85934 -1.02151,1.80142 -1.587,2.83502c-1.29606,2.36893 -2.01577,3.72894 -2.792,5.17731c-0.81176,1.51465 -1.64484,3.06973 -2.496,4.63351c-0.84487,1.55222 -1.67186,3.06592 -2.496,4.4985c-1.48227,2.57663 -2.16533,3.64825 -2.79067,4.58798c-0.55742,0.83768 -1.08352,1.57034 -1.5675,2.22601c-0.44297,0.60013 -0.87087,1.14734 -1.2525,1.686c-0.74486,1.05133 -1.07846,1.62451 -1.40933,2.21732c-0.33798,0.60553 -0.65967,1.23282 -0.984,1.86752c-0.32634,0.63864 -0.64506,1.28235 -0.984,1.91248c-0.66778,1.24146 -1.03103,1.82758 -1.4,2.39468c-0.36252,0.55722 -0.73771,1.09195 -1.116,1.6095c-0.37113,0.50775 -0.74621,0.99719 -1.116,1.47449c-0.71516,0.92303 -1.06356,1.36526 -1.396,1.80136c-0.32319,0.42395 -0.63328,0.8381 -0.9255,1.245c-0.28237,0.39319 -0.55025,0.77576 -0.7905,1.155c-0.45118,0.71222 -0.63379,1.06232 -0.8,1.39865c-0.15791,0.31955 -0.29341,0.62906 -0.4095,0.92551c-0.10901,0.27838 -0.19633,0.54367 -0.2745,0.7905l-0.12133,0.43866l-0.04533,0.19052l-0.12133,0.62198" id="svg_6" stroke-width="2" stroke="#000" fill="none"/>
  <path t="10533,10674,10674,10674,10674,10674,10690,10690,10690,10691,10707,10707,10707,10707,10724,10724,10724,10724,10724,10740,10740,10740,10741,10757,10757,10757,10757,10758,10782,10782,10782,10783,10783,10783,10783,10794,10794,10794,10795,10795,10795,10806,10806,10806,10806,10806,10824,10824,10824,10825,10825,10825,10825,10840,10841,10841,10841,10841,10841,10841,10857,10857,10858,10858,10858,10858,10874,10874,10874,10875,10875,10875,10891,10891,10891,10891,10891,10891,10891,10908,10909,10909,10909,10909,10909,10924,10924,10925,10925,10925,10925,10941,10941,10941,10941,10941,10942,10957,10957,10957,10958,10958,10958,10974,10974,10974,10975,10975,10975,10990,10991,10991,10991,10991,10992,11007,11007,11007,11008,11008,11008,11024,11024,11024,11025,11025,11040,11041,11041,11041,11041,11041,11057,11057,11057,11058,11058,11074,11074,11075,11075,11075,11090,11090,11091,11091,11091,11107,11107,11107,11108,11108,11124,11124,11124,11124,11124,11140,11140,11141,11141,11156,11156,11156,11156,11173,11174,11174,11191,11192,11192,11207,11207,11207,11208,11224,11224,11225,11225,11240,11241,11241,11241,11257,11257,11257,11274,11274,11275,11290,11291,11340,11357,11374,11424,11424" d="m188,408c-7.03517,2.20001 -7.55054,2.37924 -8.47067,2.79999c-0.83411,0.38141 -1.57558,0.76871 -2.48666,1.40002c-0.5506,0.38153 -1.27928,1.01886 -1.81067,1.39999c-1.17316,0.84143 -1.90102,1.19522 -2.27367,1.37915c-0.76146,0.37582 -1.95219,0.87234 -2.75833,1.13419c-0.79437,0.25803 -1.59552,0.46426 -2.39999,0.60001c-1.19444,0.20154 -2,0.23398 -2.8,0.28665c-0.8,0.05267 -2.00288,0.14877 -2.80267,0.28665c-0.82204,0.14169 -1.67072,0.3548 -2.11166,0.47501c-1.42369,0.38815 -1.92783,0.56174 -2.9955,0.88651c-0.55115,0.16766 -1.10722,0.34506 -2.242,0.642c-0.56371,0.14752 -2.22549,0.47604 -2.76283,0.5405c-1.04736,0.12564 -1.56453,0.14813 -2.58083,0.2175c-0.50319,0.03433 -2.00551,0.16687 -3.009,0.3045c-0.50661,0.06949 -1.53067,0.22815 -2.05266,0.29468c-1.60722,0.2049 -2.16374,0.24255 -3.3,0.2955c-0.5786,0.02695 -1.1636,0.04138 -2.34734,0.05267c-0.59682,0.00571 -1.7955,0.00449 -2.99417,0.00449c-0.59683,0 -1.19066,0 -2.36533,0c-0.57884,0 -1.15067,0 -2.81467,0c-0.53734,0 -1.59601,0 -2.12134,0c-1.05267,0 -1.584,-0.00165 -3.2215,0.00015c-0.56384,0.00061 -1.71455,0.00809 -2.29934,0.02069c-0.58989,0.0127 -1.78152,0.05063 -2.97916,0.14581c-0.60059,0.04773 -1.80013,0.185 -2.4,0.25867c-0.60012,0.07367 -1.79945,0.22696 -2.4,0.29068c-1.19899,0.12723 -2.39851,0.20212 -2.9955,0.22684c-0.5937,0.02457 -1.76848,0.0488 -2.34733,0.05267c-1.69048,0.01129 -2.23567,0.00449 -3.3,0.00449c-0.52116,0 -1.5465,0 -2.05267,0c-1.5045,0 -2.00467,0 -3.009,0c-1.01633,0 -1.5315,0 -2.58083,0c-1.08133,0 -2.19866,0 -2.76733,0c-0.57266,0 -1.722,0 -2.29466,0c-1.686,0 -2.23117,0 -3.2955,0c-0.52116,0 -1.5465,0 -2.05267,0c-1.5045,0 -2.00467,0 -3.009,0c-1.01633,0 -1.5315,0 -2.58083,0c-1.08133,0 -2.19733,0 -2.76283,0c-0.5665,0 -1.6905,0 -2.242,0c-1.5765,0 -2.5405,0 -3,0c-0.889,0 -1.758,0 -3.0765,0c-0.45483,0 -1.3905,0 -2.35417,0c-0.48983,0 -1.4805,0 -2.979,0c-0.49883,0 -1.4895,0 -2.46416,0c-0.47884,0 -1.86934,0 -2.752,0c-0.85867,0 -1.70934,0 -2.13667,0c-1.314,0 -2.23133,0 -3.17267,0c-0.47467,0 -1.422,0 -2.808,0c-0.88134,0 -1.3095,0 -2.14584,0c-0.81633,0 -2.02083,0 -2.82083,0c-0.8,0 -1.6,0 -2.4,0c-1.19983,0 -1.9955,0 -2.77917,0c-1.1355,0 -2.19933,0 -2.86367,0c-0.9465,0 -1.55583,0 -2.75583,0c-0.8805,0 -1.716,0 -2.71867,0c-0.7035,0 -1.452,0 -2.65333,0c-0.70134,0 -1.45067,0 -2.232,0c-1.19717,0 -1.99283,0 -2.7765,0c-1.1355,0 -2.19933,0 -2.86367,0c-0.9465,0 -1.55615,-0.02524 -2.75583,0.00266c-0.88112,0.02048 -1.76023,0.07098 -2.716,0.56534c-0.70399,0.36414 -1.22935,1.01129 -2.28083,1.31769c-0.72458,0.21115 -1.7685,0.11432 -2.60317,0.11566l-0.75317,0.35132l-0.61617,0.56332l-0.864,0.16803" id="svg_7" stroke-width="2" stroke="#000" fill="none"/>
  <path t="11605,11806,11807,11807,11807,11807,11807,11824,11824,11824,11824,11824,11824,11824,11824,11825,11840,11840,11841,11841,11841,11841,11841,11841,11841,11857,11857,11857,11857,11857,11857,11857,11857,11857,11874,11874,11874,11874,11874,11875,11875,11875,11875,11890,11890,11891,11891,11891,11891,11891,11891,11891,11907,11907,11907,11907,11907,11907,11908,11924,11924,11924,11924,11924,11940,11940,11941,11941,11941" d="m7,434c3.522,-1.76501 4.27524,-2.37997 4.668,-2.73999c0.86082,-0.78909 1.30927,-1.24371 1.78933,-1.72c1.04544,-1.03723 1.60731,-1.60388 2.196,-2.19467c0.60966,-0.61185 1.23456,-1.24149 1.8675,-1.88699c0.64041,-0.65314 1.28171,-1.31146 1.9125,-1.97702c1.24,-1.30838 1.82667,-1.95731 2.396,-2.59732c0.55929,-0.62872 1.1016,-1.2562 1.629,-1.884c0.52326,-0.62289 1.03661,-1.24951 1.539,-1.884c1.01064,-1.27637 1.50317,-1.93719 2.00533,-2.60001c0.5065,-0.66855 1.01556,-1.34375 1.539,-2.01599c0.52722,-0.67709 1.06298,-1.3555 1.629,-2.01599c1.14334,-1.33417 1.76699,-1.96747 2.39734,-2.59866c0.63234,-0.63321 1.28142,-1.25067 1.932,-1.8645c0.6481,-0.61148 1.29885,-1.21194 1.932,-1.81952c1.24295,-1.19275 1.82798,-1.79752 2.39467,-2.396c0.55325,-0.58429 1.0805,-1.1622 1.59,-1.72198c0.49048,-0.53891 0.95525,-1.05911 1.41,-1.54202c0.83139,-0.88284 1.22687,-1.2594 1.60266,-1.60266c0.35312,-0.32257 0.69864,-0.61603 1.029,-0.897c0.63262,-0.53806 1.55731,-1.36063 2.14034,-2.01099c0.60732,-0.67746 0.88994,-1.04434 1.44417,-1.7825c0.80433,-1.07126 1.2745,-1.76285 1.7425,-2.41217l0.476,-0.62534l0.508,-0.60934" id="svg_8" stroke-width="2" stroke="#000" fill="none"/>
  <path t="48091,48203,48206,48206,48206,48206,48222,48222,48222,48222,48222,48237,48237,48237,48237,48237,48237,48237,48237,48256,48256,48256,48256,48256,48256,48272,48272,48272,48272,48272,48272,48286,48286,48286,48286,48286,48286,48286,48287,48301,48302,48302,48302,48302,48302,48303,48303,48319,48319,48319,48319,48320,48320,48320,48335,48335,48336,48336,48337,48337,48352,48352,48352,48352,48352,48353,48369,48369,48369,48369,48370,48370,48385,48385,48385,48390,48390,48390,48390,48401,48401,48401,48401,48401,48402,48419,48419,48420,48420,48420,48435,48436,48436,48436,48436,48436,48452,48452,48452,48452,48452,48453,48469,48469,48469,48470,48470,48470,48485,48485,48485,48486,48486,48486,48486,48502,48502,48503,48503,48503,48503,48503,48519,48519,48519,48520,48520,48520,48520,48535,48535,48535,48536,48536,48536,48537,48551,48552,48552,48552,48553,48553,48553,48553,48554,48569,48569,48569,48570,48570,48570,48570,48570,48571,48585,48585,48586,48586,48586,48586,48587,48587,48587,48601,48602,48602,48602,48603,48603,48603,48603,48604,48628,48629,48629,48629,48629,48629,48629,48630,48630,48655,48655,48655,48656,48656,48656,48656,48656,48656,48658,48658,48658,48658,48659,48659,48659,48659,48659,48687,48688,48688,48688,48688,48688,48689,48689,48689,48691,48691,48691,48691,48691,48692,48692,48692,48692,48714,48714,48714,48714,48715,48715,48715,48715,48715" d="m234,223c-0.87849,6.15717 -0.95265,7.08981 -0.97917,7.97917c-0.02591,0.86876 -0.01718,1.3035 -0.021,2.64265c-0.0027,0.94434 -0.00293,1.43571 -0.03583,2.46085c-0.01721,0.5363 -0.12654,2.25104 -0.18567,2.86c-0.06076,0.62575 -0.22012,1.90872 -0.32001,2.55733c-0.10011,0.65012 -0.20723,1.2973 -0.345,1.93201c-0.39795,1.83336 -0.58803,2.40025 -0.93866,3.49599c-0.17017,0.5318 -0.35791,1.04784 -0.69067,2.06934c-0.32574,0.99997 -0.60262,2.005 -0.86932,3.024c-0.13615,0.52017 -0.25951,1.05544 -0.584,2.14934c-0.34647,1.168 -0.56876,1.77406 -0.8,2.40001c-0.48213,1.30502 -0.75197,1.97079 -1.01601,2.65067c-0.26698,0.68747 -0.54353,1.37711 -1.04799,2.77866c-0.2511,0.69763 -0.48357,1.39703 -0.714,2.091c-0.22824,0.68735 -0.67398,2.03839 -0.90533,2.69467c-0.2274,0.64505 -0.70354,1.88562 -0.96883,2.47131c-0.51549,1.13806 -0.80879,1.67413 -1.09933,2.20135c-0.57251,1.03888 -0.87993,1.53934 -1.47917,2.54166c-0.59808,1.00034 -0.90076,1.49695 -1.47917,2.5c-0.28746,0.4985 -0.58528,0.9888 -1.35416,2.5c-0.2525,0.49628 -0.71361,1.4957 -0.94135,1.98932c-0.44986,0.97504 -0.64676,1.47 -1.392,2.84402c-0.24469,0.45114 -0.78854,1.31973 -1.06932,1.75198c-0.57072,0.8786 -0.88959,1.31146 -1.76401,2.74802c-0.30731,0.50485 -0.60623,1.03058 -1.18933,2.11731c-0.29367,0.5473 -0.57785,1.09708 -1.12534,2.18134c-0.52168,1.03314 -0.99921,1.99841 -1.23267,2.45367c-0.44861,0.87479 -0.66203,1.30215 -1.13667,2.11166c-0.71359,1.21707 -1.00092,1.60339 -1.54132,2.41333c-0.55028,0.82474 -0.85201,1.22897 -1.608,2.556c-0.25578,0.44897 -0.71712,1.38672 -0.95201,1.85867c-0.47319,0.95074 -0.67522,1.45248 -1.54799,2.80801c-0.29349,0.45581 -0.97249,1.31247 -1.33867,1.72c-0.73262,0.81534 -1.12006,1.20374 -2.328,2.28c-0.39455,0.35153 -1.19951,1.01456 -1.60001,1.34131c-0.79903,0.65189 -1.21208,0.9639 -2.39999,1.992c-0.40451,0.3501 -1.20818,1.0914 -1.62134,1.46933c-0.84897,0.77655 -1.28664,1.17596 -1.74933,1.56534c-1.45256,1.22235 -1.99675,1.60129 -2.53917,1.99869c-0.54956,0.40265 -1.11075,0.80032 -1.67549,1.19998c-1.13152,0.80072 -2.24911,1.59848 -2.79317,1.99966c-0.53728,0.39618 -1.06041,0.79669 -2.10068,1.55869c-0.50826,0.37228 -0.99174,0.76611 -2.52083,1.70831c-0.4929,0.30371 -1.00177,0.5723 -2.032,1.104c-0.52937,0.27319 -1.08759,0.53088 -2.224,1.168c-1.25725,0.70486 -1.91035,1.14386 -2.60001,1.59735c-0.71742,0.47174 -1.44975,0.96875 -2.2065,1.46399c-0.76724,0.50214 -1.5412,1.00601 -2.34151,1.46399c-1.57739,0.90265 -2.39133,1.2623 -3.19865,1.59866c-0.80153,0.33395 -1.61734,0.62909 -2.43901,0.9165c-0.82899,0.28998 -1.67552,0.56625 -2.52899,0.87152c-1.76872,0.63263 -2.675,1.00696 -3.59866,1.40399c-0.94345,0.40552 -1.89348,0.83951 -2.8515,1.28699c-0.96599,0.4512 -1.93073,0.91525 -2.8965,1.37701c-1.91545,0.91583 -2.86034,1.362 -3.79868,1.79599c-0.93034,0.4303 -1.85773,0.85141 -2.784,1.2645c-0.92442,0.41226 -1.85143,0.81921 -2.784,1.21951c-1.8802,0.8071 -2.83693,1.20273 -3.80133,1.60132c-0.97125,0.40143 -1.95032,0.80087 -2.9355,1.20001c-0.98949,0.40088 -1.98349,0.80045 -2.9805,1.20001c-1.99832,0.80087 -2.99864,1.19962 -3.99734,1.59998c-0.99697,0.39966 -1.99101,0.79913 -2.98049,1.20001c-0.98518,0.39914 -1.96458,0.79779 -2.9355,1.20001c-1.92049,0.79562 -2.86446,1.19815 -3.79867,1.59998c-0.92579,0.39819 -1.84083,0.79816 -2.745,1.20001c-0.89582,0.39813 -1.78131,0.79712 -2.655,1.20001c-1.72261,0.79434 -2.5659,1.19879 -3.40266,1.59998c-0.8319,0.39883 -1.65867,0.80002 -2.484,1.20001c-0.82533,0.39999 -1.65173,0.80194 -2.484,1.20001c-1.68079,0.80392 -2.53795,1.19919 -3.4,1.60397c-0.86929,0.4082 -1.7443,0.82202 -2.616,1.25851c-0.87769,0.43948 -1.75655,0.89282 -2.616,1.39349c-1.73659,1.01166 -2.56807,1.60016 -3.39867,2.19601c-0.83383,0.59818 -1.64934,1.224 -2.4645,1.84799l-0.81017,0.62399l-0.80617,0.61801l-0.80317,0.60599" id="svg_9" stroke-width="2" stroke="#000" fill="none"/>
  <path t="49077,49235,49235,49252,49252,49252,49252,49252,49268,49269,49269,49269,49285,49285,49285,49285,49285,49301,49302,49302,49302,49319,49319,49319,49319,49335,49335,49335,49351,49352,49368,49369,49385,49385,49418,49501,49502,49518,49535,49535,49559,49559,49559,49572,49572,49572,49594,49614,49614,49635,49635,49753,49753,49769,49769,49785,49785,49785,49785,49802,49802,49802,49818,49819,49819,49819,49835,49835,49835,49835,49852,49853,49853,49853,49868,49869,49869,50068,50069,50084,50101,50102,50102,50118,50119,50119,50119,50134,50135,50135,50151,50152,50152,50152,50169,50169,50170,50170,50372,50372,50373,50373,50384,50384,50400,50400,50400,50435,50451,50451,50452,50468,50469,50469,50469,50469,50484,50485,50485,50485,50485,50486,50501,50502,50502,50502,50502,50518,50519,50519,50519,50534,50535,50535,50535,50536,50651,50668,50669,50669,50669,50684,50685,50685,50685,50685,50686,50701,50701,50702,50702,50702,50718,50719,50719,50719,50720,50734,50735,50735,50735,50768,50769,50818,50819,50834,50835,50835,50851,50852,50852,50852,50852,50852,50853,50868,50869,50869,50869,50869,50870,50892,50892,50892,50892,50892,50892,50893,50906,50906,50906,50907,50907,50907,50919,50919,50919,50919,50934,50935,50935,50935,50936,50951,50952,50952,51084,51100,51100,51101,51118,51119,51119,51119,51134,51135,51135,51135,51136,51151,51152,51152,51152,51153,51168,51169,51169,51169,51170,51170,51170,51170,51189,51189,51189,51189,51189,51190,51190,51201,51201,51201,51202,51202,51202,51217,51218,51218,51218,51218,51234,51235,51252,51253" d="m213,404c-0.91467,4.23199 -0.99466,5.25064 -1,6.33334c-0.00314,0.63733 0,1.33865 0,2.08798c0,0.78134 0,1.97867 0,2.77869c0,0.79999 0,1.59998 0,2.79999c0,0.79999 0,1.60001 0,2.39999c0,0.80002 0,1.99985 0,2.7955c0,0.78366 0,1.91916 0,2.98318c0,0.66864 0,1.64667 0,2.30533c0,1.03699 0,2.12 0,2.81866c0,1.19733 0,2 0,2.86398c0,0.83334 0,1.81183 0,2.63202c0,0.83731 0,1.854 0,2.54865c0,1.01669 -0.00143,1.96167 0,2.62335c0.00226,1.04367 0.01274,1.85309 0.08533,2.43201c0.15065,1.20163 0.43024,2.05148 0.63068,2.82666c0.24605,0.95157 0.23227,1.98099 0.36932,2.74133c0.14566,0.80804 0.40286,1.87442 1.08134,2.52933c0.55545,0.53616 1.69804,0.61411 2.35416,1.04166c0.85883,0.55963 1.4903,1.11368 2,1.47919c0.53238,0.38177 1.56221,1.17413 2.25385,1.77914c0.45355,0.39673 1.38525,1.20892 1.91066,1.60001c0.82513,0.61417 1.41925,0.99988 2.31467,1.60001c0.59871,0.40128 1.49541,1.00064 2.04283,1.45715c0.81577,0.6803 1.27649,1.22165 1.93634,2.022c0.4193,0.50858 1.21083,1.39032 1.81017,1.8595c0.71393,0.5589 1.74167,1.01895 1.79182,1.95151c0.03624,0.67389 -1.12663,0.27127 -1.85316,-0.15149c-0.55122,-0.32077 -1.72157,-0.98608 -2.32666,-1.25333c-0.87173,-0.38501 -1.45284,-0.55933 -2.48016,-0.9855c-0.71283,-0.29572 -1.43217,-0.65466 -2.56401,-1.22134c-0.66768,-0.33429 -1.38187,-0.69205 -2.10899,-1.08301c-1.08739,-0.58466 -1.75876,-0.99985 -2.41217,-1.37415c-0.62154,-0.35605 -1.83005,-0.91122 -2.43333,-1.05334c-0.85385,-0.20117 -1.72206,-0.20007 -2.59734,-0.87784c-0.52089,-0.40335 -1.32657,-1.31207 -2.056,-1.64349c-0.72536,-0.32956 -2.07193,-0.38504 -1.963,-0.86801c0.19446,-0.86209 1.44012,-0.46494 2.547,-0.612c0.83395,-0.11081 1.73857,-0.13425 2.20834,-0.14581c0.96718,-0.0238 2.45833,-0.01883 2.95816,-0.02118c0.9957,-0.00467 1.98006,-0.0314 2.46417,-0.07166c0.95248,-0.07919 2.31718,-0.36166 2.75066,-0.496c0.85501,-0.26501 1.66504,-0.61057 2.48401,-0.86401c1.18887,-0.36792 1.99977,-0.4736 2.80133,-0.52634c0.79893,-0.05255 2,-0.04166 2.79733,-0.04166c0.78134,0 1.53067,0 2.23199,0c1.192,0 1.97067,0 1.13335,0c-0.69867,0 -1.54134,0 -2.496,0c-1.03467,0 -1.57201,0 -2.66667,0c-0.54933,0 -1.632,0 -2.66667,0c-0.96399,0 -1.87199,0 -2.748,0c-0.868,0 -1.752,0 -2.668,0c-0.93199,0 -1.85599,0 -2.3075,0c-1.2765,0 -2.03783,0 -3.04733,0c-0.8745,0 -1.87717,0 -2.75183,0c-1.00967,0 -1.79466,0 -1.25417,0c0.631,0 1.442,0 2.9435,0c0.56416,0 1.15334,0 2.38667,0c0.63416,0 1.27333,0 2.54666,0c1.23334,0 1.82387,0.00409 2.95683,-0.00449c0.54851,-0.00415 1.62485,-0.02408 2.158,-0.05267c1.61987,-0.08688 2.17355,-0.16074 2.73582,-0.22684c1.1422,-0.13431 1.71545,-0.22034 2.86334,-0.36334c0.56841,-0.0708 1.68518,-0.19766 2.76599,-0.26733c0.52467,-0.03381 1.54492,-0.06943 2.52501,-0.08084c0.47498,-0.00552 1.84016,-0.00449 2.7045,-0.00449c0.83633,0 1.65266,0 2.85716,0c0.79866,0 1.58934,0 2.364,0c0.75067,0 2.14799,0 2.77867,0c0.8385,0 1.91466,0.03333 1.91466,0c0,-0.93597 -1.54799,0 -2.57883,0c-1.1145,0 -1.88916,0 -2.67984,0c-1.19882,0 -2.00316,0 -2.81949,0c-0.41518,0 -1.26451,0 -2.601,0c-0.94434,0 -1.4355,0 -2.46085,0c-0.53616,0 -2.25066,0 -2.86017,0c-0.6265,0 -1.91849,0 -2.57799,0c-0.66451,0 -1.33101,0 -1.99651,0c-1.96117,0 -2.59734,0 -3.22549,0c-0.62117,0 -1.84651,0 -2.45267,0c-0.60316,0 -2.40417,0 -3.00183,0c-0.59367,0 -1.761,0 -2.33067,0c-1.10133,0 -2.13867,0 -3.09866,0c-0.88,0 -1.68001,0 -2.40001,0c-1.20267,0 -1.93166,0 -2.97333,0l-0.78934,0" id="svg_10" stroke-width="2" stroke="#000" fill="none"/>
  <path t="51690,51818,51818,51818,51818,51834,51834,51834,51835,51835,51835,51851,51851,51851,51851,51851,51851,51851,51868,51868,51868,51868,51868,51869,51869,51884,51884,51885,51885,51885,51885,51885,51885,51901,51902,51902,51902,51902,51902,51902,51902,51918,51918,51918,51918,51919,51919,51934,51934,51935,51935,51935,51951,51951,51951,51951,51951,51968,51968,51968,51969,51984,51985,51985,52151,52151,52168,52186,52186,52201,52201,52201,52201,52218,52218,52219,52219,52219,52236,52236,52236,52236,52236,52236,52237,52251,52251,52252,52252,52252,52268,52269,52269,52269,52269,52269,52301,52301,52302,52355,52368,52368,52368,52384,52384,52385,52401,52401,52401,52401,52402,52418,52418,52419,52419,52419,52419,52434,52435,52435,52435,52435,52451,52451,52452,52452,52452,52468,52469,52469,52469,52484,52484,52518,52551,52568,52568,52568,52569,52569,52584,52584,52585,52585,52585,52585,52601,52601,52601,52602,52602,52602,52618,52618,52618,52619,52619,52619,52634,52634,52635,52635,52651,52651,52651,52718,52718,52734,52735,52735,52751,52751,52751,52752,52752,52768,52768,52769,52769,52769,52784,52785,52785,52785,52785,52786,52801,52801,52802,52802,52802,52802,52818,52818,52818,52819,52819,52834,52834,52868,52884,52885,52885,52901,52901,52901,52902,52918,52918,52919,52919,52934,52935,52935,52935,52935,52951,52951,52969,52969,52969" d="m253,384c0,4.40018 0,5.2045 0,6.02084c0,0.83633 0,2.14581 0,3.06717c0,0.47815 0,1.47449 0,2.53082c0,0.55316 0,1.71451 0,2.9505c0,0.6405 0,1.29199 0,1.95151c0,0.66449 0,1.99649 0,3.3125c0,0.64532 0,1.28265 0,2.54132c0,0.62534 0,1.25067 0,2.50934c0,1.28265 0,1.9375 0,2.60132c0,0.67184 0,2.03552 0,2.72534c0,0.69385 -0.00017,1.39066 0,2.78934c0.00009,0.69968 -0.00433,1.3974 0.01067,2.77866c0.00739,0.67972 0.02153,1.34946 0.04649,2.00702c0.02444,0.6438 0.15877,2.47192 0.22684,3.04367c0.13097,1.09995 0.21959,1.62848 0.36334,2.66165c0.07042,0.5061 0.24196,2.00821 0.2955,3.00452c0.02652,0.49356 0.0488,1.46844 0.05266,1.94733c0.0112,1.39047 0.0045,2.27182 0.0045,3.12115c0,0.82535 0,1.63467 0,2.83585c0,0.79565 0,1.57932 0,2.34299c0,1.09052 -0.09052,2.09979 0.07201,2.93851c0.16348,0.84366 0.99916,1.40738 1.82266,0.966c0.77663,-0.41626 1.39864,-0.642 2.43867,-0.64734c0.98099,-0.00504 1.70831,0 2.47565,0c1.19101,0 1.99417,0.01236 2.81235,-0.02133c0.85144,-0.03506 1.30148,-0.04376 2.71201,-0.31201c1.04352,-0.19846 1.57663,-0.37143 2.12799,-0.51733c1.1243,-0.29752 1.68753,-0.45676 2.25601,-0.58133c1.65341,-0.3623 2.1954,-0.42065 3.24664,-0.496c1.02396,-0.07339 1.53149,-0.06747 3.03601,-0.07199c0.49966,-0.0015 1.491,0 2.45834,0c0.46967,0 1.371,0 2.59833,0c0.72,0 1.64999,0 2.79965,0c0.35785,0 -0.41882,0 -1.17633,0c-1,0 -1.74249,0 -2.62,0c-1.14584,0 -2.08417,0 -2.59332,0c-1.07333,0 -1.6275,-0.00052 -3.30002,0c-0.54498,0.00018 -1.60519,0.00214 -2.12,0.02133c-1.00058,0.03732 -1.49832,0.02045 -2.88,0.31201c-0.89236,0.18832 -1.73074,0.51709 -2.14581,0.66666c-0.81653,0.29422 -2.01511,0.69794 -2.82083,0.82935c-0.79556,0.12976 -1.59985,0.15771 -2.40002,0.168c-1.1994,0.01541 -1.987,-0.0087 -2.73749,0.0235c-1.00763,0.04324 -1.98776,0.30231 -2.85849,0.69516c-0.83066,0.37479 -1.06274,1.0195 -0.37067,1.61734c0.55579,0.4801 1.32846,0.93036 2.18399,1.41599c0.44418,0.25214 1.81281,0.92496 2.26132,1.108c0.86279,0.35211 1.72394,0.63553 2.57401,0.948c0.43268,0.15903 1.77527,0.72507 2.7045,1.20901c0.4823,0.25116 0.96671,0.52209 1.94733,1.09467c0.49841,0.29102 1.99481,1.19122 2.49286,1.48831c0.49332,0.29425 1.45917,0.86423 1.93066,1.13068c0.89792,0.50745 2.1228,1.14313 2.85767,1.45767c0.66727,0.28561 1.30884,0.49512 2.51382,0.91449c0.87109,0.30316 1.67206,0.26257 2.33551,1.22101c0.4826,0.69714 -0.28683,1.49594 -0.95367,1.60684c-0.84274,0.14014 -2.20322,0.08279 -2.94299,0.06299c-0.7804,-0.0209 -1.6022,-0.09061 -2.02499,-0.16165c-1.34348,-0.22574 -2.27161,-0.53571 -2.74936,-0.69067c-0.97699,-0.31693 -1.45969,-0.51871 -2.96399,-0.97202c-0.99588,-0.30008 -1.50241,-0.41855 -2.52084,-0.64581c-0.51416,-0.11475 -1.56387,-0.32275 -2.64581,-0.52084c-0.5542,-0.10147 -1.68106,-0.29834 -2.24802,-0.38934c-1.12311,-0.18027 -1.67303,-0.2753 -3.25198,-0.444c-0.48917,-0.05228 -1.40701,-0.10254 -2.22919,-0.1875c-0.72525,-0.07495 -1.89282,-0.36075 -2.54166,-0.97916c-0.72792,-0.69379 -1.45767,-0.67609 -1.54167,0.08334c-0.07588,0.6861 -0.02083,1.88733 -0.02083,2.58865c0,0.74933 0.00632,1.5307 -0.00034,2.728c-0.00444,0.80005 -0.00545,1.6041 -0.114,2.39999c-0.16484,1.20865 -0.44113,2.00198 -0.73633,2.77869c-0.28659,0.75403 -0.6539,1.42896 -0.98001,2.65067c-0.19188,0.71881 -0.336,1.77066 -0.59467,2.56l-0.29066,0.72534" id="svg_11" stroke-width="2" stroke="#000" fill="none"/>
 </g>
 <g display="none">
  <title>muse_image</title>
  <image xlink:href="http://farm4.static.flickr.com/3123/2464775874_43186209f3.jpg" id="muse" height="480" width="600" y="0" x="20"/>
 </g>
 <g display="none">
  <title>bbox</title>
  <rect stroke="#f00" fill="none" stroke-width="3" height="282" width="414" y="162" x="41.6" id="bbox"/>
 </g>
</svg>
