<svg width="640" height="480" xmlns="http://www.w3.org/2000/svg" xmlns:svg="http://www.w3.org/2000/svg" xmlns:xlink="http://www.w3.org/1999/xlink">
 <!-- Sketchy ANNOTATION
  ImageNet ID: n01532829_5832
  URL: http://farm4.static.flickr.com/3233/2746991403_b7bff8956c.jpg
  Image Width: 500
  Image Height: 498
  BBox X: 61
  BBox Y: 107
  BBox Width: 112
  BBox Height: 165
  Exposure: 2000ms
  Synset Label: songbird
  Synset ID: n01526521
  Worker Tag: songbird on branch with blue sky
  Sanity Check: 
   Saved
  Comment: 
   {}
  Worker ID: A2HM35CWB7IIFM
  Assignment ID: 3Z7VU45IPYH2LVLWS9KR92YIWZ81ZM
  HIT ID: 33P2GD6NRNSGDR9U4VF0PQVR5MTHKH
  Work Time: 89s
  Worker Score: 0.7857
 END ANNOTATION -->
 <g display="inline">
  <title>Layer 1</title>
  <path t="0,218,228,228,244,258,258,258,263,263,275,288,288,304,304,304,312,322,322,336,372,385,385,409,421,435,452,471,471,485,502,502,507,519,520,535,535,556,556,569,569,569,586,593,606,619,620,636,642,667,682,682,697,697,710,710,719,719,730,753,777,778,802,803,851,851,888,903,919,926,950,962,998,1073,1098,1111,1147,1148,1163,1185,1208,1257,1294,1330" d="m240.5,107.9c-0.05716,-1.75716 -0.25819,-2.71257 -0.7045,-3.29017c-0.59064,-0.7644 -1.63106,-1.1361 -2.12083,-1.57117c-0.71216,-0.63261 -1.33621,-1.4933 -1.97333,-1.852c-0.76826,-0.43253 -1.86301,-0.28667 -2.66301,-0.28667c-0.9595,0 -1.75299,0 -2.5285,0c-1.03915,0 -2.0107,0.0372 -2.80983,0c-0.91763,-0.04272 -1.35431,-0.91626 -2.2,-1c-0.79611,-0.07883 -1.70006,0.01041 -2.60001,0c-0.90018,-0.01042 -1.60632,-0.53528 -2.50017,-0.8785c-0.74152,-0.28473 -1.72516,-0.1215 -2.73315,-0.1215c-0.75601,0 -1.6875,0 -2.65067,0c-0.69067,0 -1.76784,0 -2.48534,0c-1.0405,0 -1.81601,-0.00335 -2.864,0c-0.70502,0.00225 -1.64413,-0.20165 -2.52,0.436c-0.68439,0.49825 -1.00168,1.33608 -1.74651,1.7855c-0.62224,0.37545 -0.89081,1.3968 -1.3255,2.1785c-0.45644,0.82079 -0.90799,1.6 -1.57466,2.1c-0.66667,0.5 -0.99005,1.27938 -1.35716,2.15266c-0.30098,0.71597 -1.0148,1.54003 -1.3575,2.146c-0.48619,0.8597 -1.02057,1.52686 -1.61867,2.20133c-0.43948,0.49561 -1.52376,0.97028 -2.03067,1.4c-0.7747,0.65673 -1.42558,1.25314 -1.61517,2.1c-0.21411,0.95638 -0.79561,1.43661 -1.01633,2.2045c-0.24738,0.86066 -0.0045,1.7955 -0.0045,2.6955c0,0.9 0,1.8 0,2.7c0,0.9 -0.46556,1.87954 0.08533,2.61467c0.46191,0.6164 1.61467,0.3425 2.39384,0.80617l0.46815,0.77467l0.48868,0.6685" id="svg_1" stroke-width="2" stroke="#000" fill="none"/>
  <path t="2229,2473,2473,2486,2509,2521,2546,2557,2570,2570,2586,2586,2594,2606,2620,2620,2635,2644,2656,2668,2685,2705,2719,2736,2754,2768,2791,2802,2821,2821,2828,2840,2852,2870,2870,2877,2889,2889,2902,2902,2919,2919,2927,2938,2938,2962,2962,2975,2987,3011,3012,3024,3024,3036,3053,3062,3072,3072,3086,3102,3110,3111" d="m198.5,127.9c-1,1.16666 -1.42117,1.69855 -2,2.47916c-0.47221,0.63684 -1.10733,1.19453 -1.80133,1.60484c-0.70404,0.41624 -1.01811,1.4279 -1.26001,2.09065c-0.36612,1.00313 -1.16182,1.34105 -1.76933,2.024c-0.60832,0.68385 -1.39125,1.06223 -1.96933,1.60268c-0.61365,0.5737 -0.99692,1.48091 -1.55266,2.146c-0.54578,0.65315 -1.37827,0.90433 -2.03667,1.48866c-0.69321,0.61523 -0.94746,1.41525 -1.58534,1.98933c-0.57872,0.52086 -0.94484,1.25014 -1.46133,1.97467c-0.56,0.78554 -1.35677,1.25243 -1.54317,2.09999c-0.19344,0.87955 -0.52132,1.71881 -0.85416,2.5c-0.32021,0.75154 -0.14551,1.65492 -0.45201,2.48534c-0.27527,0.74579 -0.79324,1.72589 -1.21466,2.49384c-0.47615,0.86769 -1.00343,1.48581 -1.41733,2.22084c-0.44241,0.78569 -1.24146,1.14154 -1.83984,1.89999c-0.47816,0.60606 -0.87292,1.42947 -1.64282,1.88533c-0.71957,0.42607 -1.16582,1.22263 -1.69984,1.99316c-0.43701,0.63055 -0.59946,1.57719 -0.91083,2.41084c-0.28406,0.76051 -1.24306,1.15051 -1.55333,1.79601c-0.43031,0.89523 -0.436,1.91466 -0.436,2.81465l0,0.8" id="svg_2" stroke-width="2" stroke="#000" fill="none"/>
  <path t="4303,4510,4511,4543,4561,4577,4587,4587,4595,4596,4607,4607,4607,4620,4621,4635,4635,4644,4657,4657,4669,4693,4706,4706,4718,4735,4754,4768,4779,4791,4791,4804,4804,4818,4818,4829,4829,4840,4865,4903" d="m169.5,171.89999c-1,1.16667 -1.68317,1.43413 -2.47917,2c-0.60034,0.42677 -1.10307,1.32056 -1.39932,2.10017c-0.28215,0.74251 -0.12094,1.74651 -0.12151,2.5865c-0.00067,0.99733 0.02707,1.81853 -0.08533,2.62933c-0.13965,1.00729 -0.52356,1.60831 -0.79317,2.66249c-0.20538,0.80309 -0.08531,1.65831 -0.12601,2.67418c-0.02789,0.69609 -0.58328,1.63338 -0.87399,2.44733c-0.30547,0.85524 -0.12151,1.7 -0.12151,2.60001c0,0.89999 0,1.79999 0,2.7c0,0.9045 0,1.76666 0,2.59999c0,0.97867 0,1.75267 0,2.65718c0,0.74733 0,1.93832 0,2.68565l0,0.90001l0,0.95717l0,0.89999" id="svg_3" stroke-width="2" stroke="#000" fill="none"/>
  <path t="6070,6254,6266,6279,6279,6314,6351,6377,6392,6392,6409,6409,6420,6420,6424,6424,6436,6437,6452,6452,6452,6469,6474,6485,6509,6535,6535,6552,6572,6572,6585,6603,6603,6609,6609,6620,6637,6637,6645,6645,6658,6682,6706,6731,6731,6744,6744,6755,6768,6786,6793,6794,6805,6805,6819,6819,6819,6842,6843,6843,6843,6858,6858,6858,6858,6859,6859,6870,6870,6870,6870,6870,6879,6879,6879,6891,6891,6903,6903,6920,6928,6928,6928,6939,6954,6954,6970,6970,6976,6977,6989,6989,7003,7003,7003,7020,7020,7020,7020,7020,7025,7025,7025,7037,7037,7038,7038,7052,7052,7053,7053,7062,7062,7062,7074,7074,7074,7087,7087,7087,7103,7103,7112,7112,7124,7136,7152,7161,7161,7197,7334,7360,7372,7387,7387,7395,7395,7395,7406,7406,7406,7420,7420,7420,7436,7436,7436,7443,7444,7467,7467" d="m193.5,147.89999c2.47917,-1.97916 3.30374,-2.3531 4,-3c0.60327,-0.5605 1.39946,-0.98199 2.3,-1c0.90115,-0.01802 1.86667,0 2.52533,0c1.008,0 1.92734,0 2.83183,0c0.74733,0 1.74283,-0.00006 2.54283,0c1,0.00009 1.81621,-0.06445 2.8,0.16667c0.80862,0.18997 1.53334,0.49226 2.47917,0.83333c0.84042,0.30305 1.74152,0.52167 2.39949,1.22151c0.56857,0.60475 0.78439,1.33083 1.41684,2.07849c0.6393,0.75577 0.70383,1.5 0.7045,2.45717c0.00063,0.90001 0,1.64734 0,2.64151c0,0.94415 0,1.84866 0,2.76799c0,0.83333 0,1.81183 0,2.632c0,0.80133 0.15829,1.71727 -0.01067,2.60133c-0.18182,0.95137 -0.79463,1.48276 -1.28934,2.24817c-0.50406,0.77989 -1.30757,1.15903 -1.9955,1.709c-0.73764,0.58972 -0.86784,1.64516 -1.31517,2.27882c-0.48573,0.68806 -0.89203,1.38347 -1.38933,2.364c-0.30617,0.60367 -0.74063,1.46704 -1.32184,2.42184c-0.3349,0.55017 -0.73296,1.14607 -1.19699,1.797c-0.8013,1.12402 -1.11786,1.52849 -1.791,2.382c-0.34834,0.44168 -1.06778,1.31931 -1.442,1.73666c-1.05997,1.18214 -1.41344,1.51286 -2.0865,2.091c-0.60849,0.52269 -1.22241,0.93011 -2.24001,1.77133c-0.6907,0.57098 -1.25215,1.15099 -1.90033,1.77866c-0.63904,0.61882 -1.38632,1.05605 -2.16,1.62151c-0.74026,0.54103 -1.17517,1.42709 -1.72266,1.8c-0.63503,0.43253 -1.51151,0.99083 -2.23868,1.7c-0.60747,0.59244 -1.2045,1.2045 -1.78532,1.78534c-0.59866,0.59866 -1.28934,1.28932 -1.948,1.948c-0.66666,0.66667 -1.35089,1.31683 -1.81934,1.83282c-0.54298,0.5981 -1.19881,1.65941 -1.46333,2.30183c-0.27795,0.67505 -0.4743,1.39566 -0.76801,2.06401c-0.53973,1.22827 -1.14708,1.95685 -1.57767,2.41617c-0.68845,0.73438 -1.49593,1.50424 -2.03833,2.07266c-0.55238,0.57887 -1.3394,1.47432 -1.81467,2.07649c-0.4552,0.57677 -0.81055,1.19012 -1.68533,2.06934c-0.56163,0.56447 -1.22418,0.91449 -2,1.5c-0.61581,0.46475 -1.21313,1.00551 -1.97867,2.03317c-0.42424,0.5695 -0.85295,1.37225 -1.50533,1.91483c-0.64433,0.53589 -1.65089,1.06277 -2.2115,1.58534c-0.72096,0.67203 -0.91162,1.58987 -1.526,2.17867c-0.68074,0.65239 -1.57472,0.78076 -1.76784,1.72133c-0.17693,0.86176 -0.79846,1.32642 -0.97467,0.53867c-0.21233,-0.9492 -0.036,-1.8 -0.036,-2.6815c0,-0.71849 0,-1.50899 0,-2.77449c0,-0.70351 0,-1.45201 0,-2.65067c0,-0.68268 0,-1.38133 0,-2.69867c0,-0.819 0,-1.51201 0,-2.53334l0,-0.8l0,-1l0,-0.78932" id="svg_4" stroke-width="2" stroke="#000" fill="none"/>
  <path t="9129,9299,9311,9334,9334,9348,9348,9363,9363,9363,9377,9378,9387,9388,9388,9395,9396,9408,9408,9408,9420,9420,9420,9437,9437,9445,9456,9456,9456,9469,9485,9505,9505,9519,9519,9535,9542,9554,9555,9555,9568,9568,9585,9585,9592,9603,9603,9619,9619,9629,9629,9641,9641,9652,9668,9668,9678,9678,9689,9702,9702,9718,9726,9814,9842,9875,9924,9949,10083,10084,10097,10113,10113,10129,10129,10139,10156,10156,10156,10169,10169,10185,10186,10353,10367,10368,10378,10378,10378,10388,10389,10389,10402,10402,10418,10418,10418,10426,10426,10426,10426,10437,10438,10438,10452,10452,10452,10469,10475,10475,10487,10501,10501,10518,10525,10525,10549,10549,10562,10562,10562,10573,10573,10585,10586,10603,10604,10604,10611,10734,10759,10770,10770,10770,10787,10794,10794,10806,10806,10807,10819,10835,10835,10844,10844,10856,10868,10869,10886,10886,10893,10905,10905,10905,10918,10919,10919,10935,10935,10941,10941,10941,10953,10953,10968,10968,10985,10985,10991,10991,11002,11003,11018,11028,11041,11055,11056,11181" d="m164.5,200.89999c-1.564,0.61067 -1.86371,1.45543 -2.35716,2.3045c-0.36742,0.6322 -0.9207,1.36948 -1.40001,2.10001c-0.53494,0.81532 -1.11162,1.35632 -1.53299,1.9955c-0.62564,0.94907 -0.65536,1.81683 -0.93134,2.8c-0.1722,0.61348 -0.60773,1.38675 -1.07401,2.4045c-0.28581,0.62386 -0.55728,1.55959 -0.65182,2.34816c-0.0983,0.81982 -0.18834,1.88986 -0.47801,2.81134c-0.20074,0.63858 -0.52124,1.63223 -0.564,2.39999c-0.06024,1.08177 -0.14528,2.01671 -0.44667,2.66135c-0.33092,0.70779 -1.06548,1.47775 -1.48,2.37466c-0.3517,0.761 -0.74832,1.40515 -1,2.28267c-0.26543,0.92546 -0.8553,1.32635 -1.47333,1.97466c-0.67764,0.71086 -0.57704,1.54703 -0.60617,2.53734c-0.03046,1.03557 -0.0233,1.76694 -0.35716,2.658c-0.26474,0.7066 -0.56606,1.7377 -0.81401,2.51399c-0.27309,0.85497 -0.64449,1.67238 -0.85866,2.45866c-0.23579,0.86563 -0.51624,1.59637 -1.17467,2.48933c-0.45483,0.61684 -1.2,1.28534 -1.8,1.88533c-0.60001,0.60001 -1.23958,1.40474 -1.88533,1.71468c-0.87927,0.42201 -1.95219,0.444 -2.59384,0.78532c-0.82182,0.43716 -1.34222,1.17369 -2.1315,1.48933c-0.82626,0.33044 -1.64825,0.43187 -2.48917,0.88934c-0.74736,0.40657 -1.07466,1.26578 -0.81483,1.92133c0.34933,0.88135 1.44019,0.98271 2.26201,1.30984c0.83034,0.33052 1.12764,1.16931 1.95717,1.78482c0.77686,0.57642 1.33925,0.83112 2.09999,1.45717c0.78174,0.64334 1.52373,0.84335 2.26218,1.64816c0.50539,0.55081 1.18631,0.86981 1.74399,0.12802c0.38405,-0.51083 1.0968,-1.51025 1.56851,-2.14885c0.47733,-0.64619 0.85419,-1.66153 0.97017,-2.19383c0.22125,-1.01543 0.5889,-1.85428 1.27199,-2.39999c0.74573,-0.59575 1.40324,-1.02281 1.97867,-1.632c0.83717,-0.88631 1.19635,-1.43877 1.60001,-1.968c0.59464,-0.77962 1.38182,-1.66606 2,-2.12399c0.58371,-0.43239 1.39961,-0.98276 2.17917,-1.6405c0.53534,-0.45169 1.41699,-0.89558 2.342,-1.24234c0.6769,-0.25374 1.33124,-0.93396 1.8455,-1.7785c0.37332,-0.61308 1.46317,-0.93922 1.78065,-1.70532c0.2831,-0.68307 0.9649,-1.44666 1.04817,-2.11351c0.11778,-0.94319 0.00304,-1.702 0.0045,-2.49849c0.00226,-1.22551 -0.04112,-1.88924 0.22133,-2.88268c0.21637,-0.81905 0.62289,-1.79813 0.75334,-2.58932c0.11932,-0.72377 0.24304,-1.92776 0.96817,-2.50166c0.04648,-0.03679 0.05716,1.05899 0.05716,1.79099c0,0.73201 0.06549,1.85672 -0.16667,2.66667c-0.25264,0.88141 -0.71275,1.82707 -0.79733,2.62267c-0.07677,0.72211 0.01949,1.73315 -0.25749,2.532c-0.30725,0.88614 -0.94052,1.61456 -1.3425,2.26801c-0.47867,0.77812 -0.34441,1.74083 -0.472,2.58533c-0.14523,0.96126 -0.7325,1.60716 -0.98933,2.49734c-0.24745,0.85764 -0.42064,1.58382 -0.62201,2.37982c-0.25812,1.02031 -0.29453,1.95178 -0.52199,2.54684c-0.4063,1.06288 -1.05144,1.57388 -1.664,2.40132c-0.43073,0.58182 -0.8484,1.38889 -1.084,2.39868c-0.17694,0.75838 -0.4913,1.62395 -1.26801,2.19066c-0.76201,0.556 -1.44835,1.01651 -1.73199,1.89467c-0.27188,0.84174 -0.6693,1.60873 -1.23201,2.10535c-0.76736,0.67722 -1.28667,1.38531 -2.05066,1.69464l-0.8,0.54935l-0.7,0.21933l-0.77917,0.46817" id="svg_5" stroke-width="2" stroke="#000" fill="none"/>
  <path t="11804,12023,12023,12043,12043,12043,12043,12047,12047,12047,12047,12047,12058,12058,12058,12058,12072,12072,12072,12072,12096,12096,12120,12195,12210,12210,12225,12234,12234,12244,12244,12255,12255,12255,12268,12268,12285,12285,12292,12294,12304,12304,12304,12318,12318,12318,12335,12335,12335,12341,12342,12342,12342,12353,12354,12354,12368,12368,12368,12368,12384,12385,12385,12390,12391,12415,12415,12416,12430,12430" d="m149.5,262.89999c1.65717,2.25183 2.45052,2.76285 3.20016,3.54318c0.4325,0.4502 0.82339,1.01736 1.257,1.62299c0.71402,0.99731 1.2187,1.72369 1.77882,2.44852c0.56522,0.73141 0.8318,1.11047 1.76401,2.052c0.57808,0.58386 1.1806,1.07944 1.8,1.47598c1.16608,0.74652 1.786,1.00491 2.67917,1.31567c0.82503,0.28705 1.83191,0.48895 2.67416,0.53101c0.96021,0.04794 2.07062,0.43634 2.67999,-0.15601c0.52972,-0.51492 0.14378,-1.65894 0.16667,-2.66666c0.01801,-0.79263 0.27165,-1.65829 0.61067,-2.37735c0.47067,-0.99826 0.72023,-1.63766 1.27466,-2.30399c0.67859,-0.81555 1.37122,-1.02606 2.09317,-1.80667c0.57265,-0.61917 0.9868,-1.54062 1.54233,-2.17868c0.6095,-0.70004 1.16167,-1.13049 1.82651,-1.90448c0.66171,-0.77032 1.06923,-1.38187 1.291,-2.05267c0.39534,-1.1958 0.29121,-1.7887 0.4715,-2.64734c0.25499,-1.21448 0.59821,-1.79419 0.89017,-2.39551c0.43604,-0.89804 0.79445,-1.79352 0.93866,-2.71066c0.14801,-0.94125 0.21788,-1.95773 0.34534,-2.672c0.13097,-0.73392 0.33025,-1.4489 0.54933,-2.784c0.1338,-0.81538 0.14824,-1.51212 0.16684,-2.53334c0.01457,-0.80014 0.1665,-1.8 0.42517,-2.59999l0.29066,-0.8l0.22684,-0.9955l0.05266,-0.74733" id="svg_6" stroke-width="2" stroke="#000" fill="none"/>
  <path t="13572,13792,13903,13925,13962,13986,14011,14023,14023,14048,14072,14085" d="m142.5,255.89999c0,1.80002 -0.00298,2.81567 0.80133,2.99869c0.87627,0.1994 1.80672,0.10367 2.7195,-0.0195c0.8177,-0.11035 1.61784,-0.58984 2.30984,-1.17786l0.45467,-0.716l0.91466,-0.08533" id="svg_7" stroke-width="2" stroke="#000" fill="none"/>
  <path t="15216,15387,15398,15398,15412,15412,15429,15442,15442,15442,15455,15455,15460,15460,15471,15471,15472,15472,15486,15487,15487,15502,15502,15509,15509,15520,15520,15520,15535,15535,15552,15558,15558,15569,15585,15585,15602,15607,15630,15631,15644,15655,15655,15669,15687,15693,15694,15694,15704,15730,15730,15842,15866" d="m171.5,259.89999c1.5,-1.5 2.23689,-2.17023 2.7,-2.75717c0.54576,-0.69171 0.91557,-1.63776 1.71066,-2.19215c0.69556,-0.485 1.42142,-0.90492 1.93668,-1.4025c0.77901,-0.75227 1.41118,-1.33536 2.13666,-1.85217c0.69638,-0.49608 1.3802,-1.28137 1.63068,-1.84933c0.41718,-0.94598 0.55856,-1.65312 0.88533,-2.61333c0.28101,-0.82571 0.60114,-1.51146 1.09984,-2.53317c0.38019,-0.77892 0.73715,-1.63266 0.92549,-2.4615c0.20006,-0.88046 0.37372,-1.60371 0.67917,-2.33333c0.44301,-1.0582 1.08376,-1.62114 1.68483,-2.416c0.52881,-0.69931 0.42731,-1.6535 0.89467,-2.42133c0.44319,-0.7281 0.60927,-1.60509 1.23683,-2.14717c0.65231,-0.56346 1.41254,-1.11455 1.47784,-1.90617c0.0773,-0.93689 0.16211,-1.95107 0.50133,-2.59383c0.43532,-0.82484 0.40363,-1.74409 0.66667,-2.6875c0.19006,-0.68164 0.6691,-1.32489 0.8125,-2.33334c0.13855,-0.97441 0.02083,-1.67465 0.02533,-2.73833l0.35266,-0.7045" id="svg_8" stroke-width="2" stroke="#000" fill="none"/>
  <path t="16738,16935,16946,16946,16960,16978,16996,17014,17045,17061,17061,17080,17080,17083,17094,17095,17105,17120,17120,17136,17142,17142,17153,17153,17169,17178,17178,17202,17219,17241,17260,17266,17277,17289,17301,17318,17325,17337,17351,17368,17368,17374,17374,17386,17387,17401,17401,17411,17412,17422,17422,17422,17435,17451,17461,17461,17472,17484,17501,17510,17522,17535,17551,17552,17558,17570,17585,17585,17602,17602,17607,17607,17619,17619,17635,17635,17635,17656,17657,17657,17668,17684,17694,17718,17718,17734,17743,17743,17755,17768,17784,17784,17784,17791,17792,17804,17817,17818,17834,17834,17840,17853,17853,17877,17877,17890,17901,17918,17927,17928,17938,17951,17967,17968,17976,17976,17989,18001,18001,18001,18018,18018,18025,18037,18051,18052,18068" d="m194.5,219.89999c1.75717,0 2.65266,0 3.51601,0c0.96317,0 1.88399,0 2.784,0c0.89999,0 1.80295,0.07277 2.7,0c0.70695,-0.05734 1.20108,-0.78442 1.8,-1.43199c0.66751,-0.72171 1.09018,-1.44916 1.284,-2.08533c0.30786,-1.01053 1.01144,-1.58727 1.616,-2.18268c0.70538,-0.69473 1.46884,-1.12285 2.3,-1.3c0.98122,-0.20915 1.5522,-0.65141 2.3,-1.29549c0.66887,-0.5761 1.49063,-0.8047 2.2,-1.20451c0.87819,-0.49496 1.57758,-0.92607 2.07466,-1.52533c0.5101,-0.61496 0.61412,-1.46643 1.14134,-2.05867c0.53606,-0.60219 1.02869,-1.45374 1.248,-2.31599c0.22096,-0.86874 0.67523,-1.47345 0.97884,-2.31433c0.23659,-0.65526 0.00256,-1.69006 0.09315,-2.48567c0.11505,-1.01036 0.43779,-1.80731 0.964,-2.63333c0.44112,-0.69244 0.86432,-1.49065 1.02533,-2.37733c0.18016,-0.9922 0.36119,-1.60577 0.776,-2.304c0.5276,-0.88811 0.96329,-1.74968 1.36534,-2.48534c0.40195,-0.73547 1.51279,-0.65424 2.3125,-1.02083c0.73074,-0.33498 0.9245,-1.4187 1.7195,-1.89516c0.69206,-0.41476 1.11237,-1.12856 1.51733,-1.884c0.40523,-0.75595 0.84325,-1.55553 1.16266,-2.52133c0.21648,-0.65457 0.38327,-1.63675 0.696,-2.304c0.39246,-0.83737 0.42308,-1.77917 0.42534,-2.776c0.00189,-0.83467 0,-1.76534 0,-2.55133c0,-0.82201 0,-1.88068 0,-2.58568c0,-0.97499 0,-1.94083 0,-2.76166c0,-0.90001 0,-1.80017 0,-2.58534c0,-0.94 0,-1.948 0,-2.81017c0,-0.8045 0,-1.72583 0,-2.63783c0,-0.91733 0,-1.66133 0,-2.696c0,-0.76801 0,-1.72783 0,-2.62784c0,-0.74733 0,-1.7415 0,-2.68565c0,-0.90001 0.09285,-1.7731 -0.08533,-2.54251c-0.22551,-0.97383 -0.39156,-1.73933 -0.91467,-2.573c-0.46709,-0.74438 -1.05798,-1.30298 -1.70534,-1.84166c-0.67802,-0.56421 -1.158,-1.26584 -1.65182,-2c-0.53044,-0.7886 -1.33694,-1.29326 -1.55751,-2.18401c-0.20842,-0.84169 0.00471,-1.78513 -0.252,-2.68266c-0.19841,-0.69368 -0.64774,-1.42827 -1.12883,-2.42883c-0.3571,-0.74271 -0.64734,-1.64734 -0.7045,-2.5045l0,-0.90001l0,-0.79999l0,-0.90001" id="svg_9" stroke-width="2" stroke="#000" fill="none"/>
  <path t="22877,23036,23047,23047,23047,23047,23061,23061,23079,23079,23092,23092,23092,23104,23104,23120,23135,23182,23206,23207,23305,23329,23364,23365,23563,23592,23636,23684,23721,23993,24040,24053,24077,24078,24089,24101,24117,24126,24127,24150,24150,24286,24360,24496,24655,24675,24680,24704,24724,24729,24729,24741,24751,24768,24789,24826,24863,24876,24912,24924,24936,24953,24961,24961,25011,25071,25257,25292,25316,25316,25341,25367,25415,25434,25434,25440,25477,25489,25500,25518,25538,25600,25637,25859,25944,25979,25980,26029,26029,26065,26066,26085,26115,26127,26152,26167,26240,26312" d="m224.5,135.89999c1.09734,-1.672 1.65446,-2.55119 2.0625,-3.00533c0.68159,-0.75859 1.15874,-1.23895 1.96817,-2.024c0.57553,-0.5582 1.44481,-1.19235 2.011,-1.47067c1.10483,-0.54311 1.91005,-0.78036 2.41666,-1c1.0601,-0.45961 1.53285,-1.28812 2.343,-1.49866c0.81642,-0.21216 1.42145,-0.71915 2.19867,-1.168c0.62158,-0.35896 0.93478,-1.36539 1.35266,-2.13334c0.45758,-0.8409 0.64667,-1.5 0.64734,-2.39999c0.00067,-0.9 0,-1.8 0,-2.7c0,-0.9 -0.15044,-1.81269 0.00017,-2.69983c0.1447,-0.85236 1.12387,-1.09325 1.69983,-1.60467c0.73227,-0.65022 1.49698,-1.25278 2.40001,-1.2955c0.89899,-0.04253 1.65823,0.03954 2.55266,-0.0045c0.86607,-0.04264 1.62543,-0.61277 2.54733,-0.91016c0.86038,-0.27755 2.328,0.44267 2.328,-0.08533c0,-0.828 -1.73177,0.08212 -2.62801,-0.00017c-0.91144,-0.08368 -1.69083,-0.49222 -2.37917,-0.99983c-0.69604,-0.51329 -1.32216,-0.99933 -2.22083,-1c-0.90001,-0.00067 -1.71738,-0.08949 -2.32533,-0.57467c-0.6245,-0.49837 -1.59454,-0.42291 -2.37466,-0.85066c-0.82291,-0.45121 -1.55379,-0.8168 -2.3,-1.222c-0.76112,-0.41329 -1.57756,-1.21722 -2.2955,-0.94283c-0.6447,0.24639 -0.0045,1.59016 -0.0045,2.39017c0,0.89999 -0.07741,1.86759 0.436,2.6c0.55376,0.78995 1.41191,1.00886 2.12799,1.62533c0.6098,0.52498 0.4306,1.57468 0.436,2.47467c0.00534,0.88938 0.717,1.37705 0.98933,2.11066c0.30971,0.83426 0.21082,1.98174 1.11067,2.26767c0.85881,0.27289 1.54121,-0.49696 2.09999,-1.36234c0.43295,-0.67051 0.79924,-1.60061 1.40001,-2.06934c0.77748,-0.60661 1.40205,-1.05623 2.10449,-1.49933c0.77191,-0.48692 1.591,-0.89467 2.24283,-1.3l0.5735,-0.6265" id="svg_11" stroke-width="2" stroke="#000" fill="none"/>
  <path t="27591,28043,28167,28190,28202,28226,28327,28362,28387,28435,28460,28484,28659,28690,28705,28778,28816,28840" d="m221.5,110.9c-1.7,0 -2.81564,-0.00297 -2.99867,0.80133c-0.1994,0.87627 -0.35562,1.88245 0.0195,2.67783c0.33267,0.70535 1.49232,0.66381 2.37917,0.51017c0.83218,-0.14417 1.07666,-1.2487 1.76668,-1.82267c0.65335,-0.54346 1.66666,-0.33333 2.11732,-1.08266l0.68001,-0.52l0.03149,-0.8595" id="svg_12" stroke-width="2" stroke="#000" fill="none"/>
  <path t="33913,34035,34046,34046,34079,34083,34098,34119,34143,34157,34168,34183,34204,34217,34234,34234,34242,34254,34267,34283,34316,34351,34403,34404,34425,34437,34463" d="m226.5,125.9c0,1.82533 0,2.83334 0,3.6955c0,0.9045 0,1.80449 0,2.7045c0,0.89999 -0.12399,1.80861 0.00017,2.69983c0.11172,0.80188 0.97124,1.25589 0.99983,2.10017c0.03047,0.89948 -0.17355,1.83824 0.08533,2.59999c0.30176,0.88791 0.90007,1.58028 1.41467,2.2c0.49991,0.60204 0.38855,1.56958 0.85716,2.3c0.5132,0.79991 1.20683,1.3 1.64284,2.17917l0.61067,0.51016l0.88933,0.03151" id="svg_13" stroke-width="20" stroke="#fff" fill="none"/>
  <path t="37792,38037,38076,38091,38091,38110,38133,38157,38210,38233,38259,38260,38319,38345,38392,38602,38663,38689,38689,38723,38759,38785,38809,38809,38833,38858,38870,38870,38907,38943,39009,39027,39027,39031,39031,39065" d="m236.5,126.9c-1.83333,0.16666 -2.43845,0.69687 -2.87866,1.44267c-0.36687,0.62152 -0.84755,1.41367 -1.11067,2.168c-0.29292,0.83977 0.12204,1.79985 -0.01517,2.68933c-0.14368,0.9314 -0.82874,1.47168 -0.991,2.40001c-0.15511,0.88745 -0.62263,1.61034 -0.91917,2.5c-0.28587,0.85764 -0.08533,1.79999 -0.08533,2.59999c0,0.90001 0,1.8 0,2.61067c0,0.91066 0,1.76399 0,2.70399c0,0.98534 0,1.88533 0,2.68533c0,0.90001 -0.08658,1.80579 0.01067,2.61067c0.11212,0.92796 0.48933,1.58932 0.86783,2.56783l0.12018,0.82018l0.00133,0.9585" id="svg_14" stroke-width="2" stroke="#000" fill="none"/>
  <path t="40544,40741,40758,40758,40761,40773,40798,40798,40798,40822,40822,40860,40872,40883,40900,40900,40908,40932,40950,40958,40982,41019,41044,41056,41056,41068,41068,41083,41083,41093,41093,41104,41104,41104,41116,41133,41152,41153,41166,41242,41242,41258,41313,41450,41473,41534,41572,41592,41953,41989,42038,42039,42063,42090,42106,42118,42118,42118,42125,42235,42235,42257,42260,42260,42270,42270,42283,42300,42300,42307,42307,42319,42431,42763,42800,42824,42835,42849,42849,42866,42866,42866,42872,42872,42884,42884,42908,42958,42959,42974,42990,43007,43019,43019,43044,43044,43080,43080,43117,43143,43167,43315,43351,43389,43413,43426,43441,43457,43457,43468,43474,43486,43522,43535,43559,43559,43572,43583,43795,43823,43834,43854,43866,43891,43902,43916,44004,44064,44065,44100,44335,44356,44358,44482,44567,44640,44651,44677,44715,44751,44768,44787,44874,44998,45035,45069,45119,45144,45168,45231,45279,45279,45366,45439,45475" d="m207.5,204.89999c1.75717,0 2.65266,0 3.51601,0c0.96317,0 1.80447,-0.05623 2.81732,0.16667c0.68217,0.15013 1.44614,0.3795 2.33334,0.83333c0.82385,0.42142 1.78772,0.76569 2.28065,1.35718c0.58104,0.6972 0.81512,1.66911 1.10535,2.34283c0.36263,0.84178 0.91866,1.59863 0.94733,2.5c0.02861,0.89937 0.54851,1.46925 0.94284,2.15717c0.47198,0.82336 0.05724,1.80949 0.05716,2.64282c-0.00009,0.97867 -0.00575,1.77138 -0.35716,2.65718c-0.30388,0.76602 -0.78412,1.52446 -1.12201,2.34282c-0.40488,0.98056 -0.41209,1.80692 -0.60483,2.51468c-0.24051,0.88319 -0.67975,1.7524 -1.1375,2.58533c-0.37097,0.67503 -1.1693,1.30934 -1.7785,1.89999c-0.59122,0.57321 -1.41026,1.07445 -2.02533,1.57468c-0.61987,0.50412 -1.64662,0.75345 -2.45384,0.4045c-0.71397,-0.30864 -1.33998,-1.03067 -1.5195,-1.7805c-0.21361,-0.89221 -1.00133,-1.19867 -1.80133,-1.19867c-0.89999,0 -1.83984,-0.03622 -2.61066,0.436c-0.80428,0.49272 -1.39116,1.00885 -2.10535,1.27867c-0.9584,0.36208 -2.02147,0.21471 -2.58665,0.86c-0.28957,0.33061 0.75983,0.42532 1.70399,0.42532c0.99417,0 1.7415,0 2.646,0c0.91934,0 1.75267,0 2.73117,0c0.82016,0 1.72156,0.01067 2.62151,0c0.87935,-0.01042 1.38412,-0.61073 1.39999,-1.5c0.01607,-0.9001 0.55582,-1.72522 1.22133,-2.09999c0.76277,-0.42955 1.57854,-0.80026 2.37868,-1.2c0.79852,-0.39893 1.5284,-0.88246 2.51599,-1.11467c0.75208,-0.17683 1.70998,-0.12106 2.71733,-0.08534c0.80653,0.02861 1.22125,0.70345 1.66667,1.5c0.44926,0.80342 0.66667,1.66667 1,2.5c0.33333,0.83334 0.49466,1.62529 0.5,2.48401c0.00536,0.86331 0,1.88 0,2.716c0,0.89999 -0.45834,2.25833 0,2.25833c0.85834,0 0,-1.75833 0,-2.65834c0,-0.89999 0,-1.8 0,-2.59999c0,-0.90001 -0.162,-1.71675 -0.716,-2.28401c-0.65797,-0.67372 -1.09624,-1.38734 -1.72684,-2.01582c-0.48969,-0.48804 -1.68733,-0.50157 -2.39049,-1.06683c-0.6815,-0.54785 -1.25822,-1.32851 -0.64584,-1.83334c0.65993,-0.54404 1.58347,-0.85013 2.47917,-1c0.83818,-0.14024 1.21339,-1.0201 2.10001,-0.99983c0.91502,0.0209 1.69263,0.65656 1.87917,1.49983c0.19221,0.8689 0.74641,1.37392 1.01016,2.11067c0.29976,0.83736 -0.968,2.76801 0.01067,2.76801c0.18134,0 0,-1.07867 0,-1.97867c0,-0.90001 0.25081,-1.83716 -0.0045,-2.6955c-0.22684,-0.76265 -1.64624,-0.51802 -1.97467,-1.22534c-0.36578,-0.78778 0.49982,-1.46875 1.37917,-1.47917c0.89995,-0.01067 1.87964,-0.20912 2.69984,0.22151c0.64343,0.33783 0.92549,1.3425 1.61617,1.8625l0.45067,0.74933" id="svg_15" stroke-width="2" stroke="#000" fill="none"/>
  <path t="46571,46754,46765,46782,46788,46800,46817,46817,46834,46838,46852,46869,46875,46887,46912,46936,46951,46970,46997,47021,47133,47294,47331,47358,47378,47379,47402,47403,47427,47439,47464,47489,47493,47539,47674,47694,47712,47712,47727,47727,47727,47746,47771,47771,47783,47783,47820,47944,47975,47992,48016,48034,48034,48041,48041,48053,48068,48069,48091,48091,48152,48312,48325,48325,48343,48354,48355,48368,48385,48385,48433,48433,48448,48520,48717,48742,48759,48772,48789,48839,48855,48856,48877,48877,48890,48906,48962,49148,49174,49174,49189,49207,49207,49244,49256,49257,49269,49306,49342,49379,49404,49504,49564,49589,49605,49616,49617,49625,49625,49637,49675,49675,49711,49809,49841,49908,49932,49932,50006,50042" d="m224.5,192.89999c1.8,0 2.72105,-0.16269 3.5,0.02084c0.95531,0.2251 1.39108,1.07756 1.5,1.97916c0.0965,0.79874 0.74695,1.53717 0.964,2.40001c0.21974,0.8735 -0.1138,1.81259 0.03616,2.69983c0.144,0.85202 0.71732,1.30019 1.00433,2.19566c0.24387,0.76085 0.98508,1.22516 0.9955,2.10451c0.01067,0.89993 0.15067,1.81273 -0.00017,2.69983c-0.14471,0.85107 -1.09984,0.90016 -1.99983,0.90016c-0.88533,0 -1.82533,0 -2.51601,0c-0.96317,0 -1.92639,-0.26782 -2.7795,0.0045c-0.82051,0.26192 -1.51149,0.92358 -1.7,1.70001c-0.2034,0.8378 0.85632,1.27748 1.82883,1.29549c0.82787,0.01532 1.70934,0 2.41734,0c0.98132,0 1.96446,0.10619 2.916,-0.16666c0.67456,-0.19342 1.31616,-0.97881 1.916,-1.548c0.58612,-0.55618 1.45399,-1.03435 2.31732,-1.24933c0.86951,-0.21652 1.582,0.41011 1.60001,1.28532c0.01755,0.85315 0,1.79468 0,2.56267c0,0.94135 -0.00061,1.94934 0,2.74133c0.00067,0.85867 -0.05086,1.7652 0.35266,2.61751c0.38377,0.81058 0.64734,0.99016 0.64734,0.23849c0,-0.98134 0,-1.96533 0,-2.65599c0,-1.07268 0,-1.992 0,-2.82535c0,-0.97849 0.41333,-1.8186 -0.05716,-2.64282c-0.46422,-0.81323 -1.30403,-1.23587 -1.23384,-1.35718c0.44624,-0.77121 1.791,-0.00224 2.69099,0c0.90002,0.00226 1.83835,0.11142 2.24284,0.76167c0.49658,0.79831 0.1832,1.77397 0.37799,2.7175c0.179,0.86708 0.91829,1.61472 0.97917,2.52083c0.02315,0.34456 0,-0.51866 0,-1.5c0,-0.82132 0.08598,-1.67871 -0.00133,-2.61465c-0.08366,-0.89676 -0.65425,-1.68312 -1.49867,-1.8645c-0.88016,-0.18906 -1.8,-0.02084 -2.7,-0.02084c-0.90001,0 -2.24072,0.57173 -2.67833,-0.22133c-0.36667,-0.66451 1.07967,-0.77867 2.045,-0.77867c0.83333,0 1.66666,0 2.52882,0c0.94051,0 1.7885,0 2.65184,0c1.01666,0 1.86536,-0.15044 2.7525,0.00017c0.85236,0.1447 1.12149,1.09984 1.61617,1.79984l0.27333,0.8l0.01067,0.89999" id="svg_16" stroke-width="2" stroke="#000" fill="none"/>
 </g>
 <g display="none">
  <title>muse_image</title>
  <image xlink:href="http://farm4.static.flickr.com/3233/2746991403_b7bff8956c.jpg" id="muse" height="480" width="481" y="0" x="79.5"/>
 </g>
 <g display="none">
  <title>bbox</title>
  <rect stroke="#f00" fill="none" stroke-width="3" height="159.03614" width="107.744" y="103.13253" x="138.182" id="bbox"/>
 </g>
</svg>
