<svg width="640" height="480" xmlns="http://www.w3.org/2000/svg" xmlns:svg="http://www.w3.org/2000/svg" xmlns:xlink="http://www.w3.org/1999/xlink">
 <!-- Sketchy ANNOTATION
  ImageNet ID: n01534433_15432
  URL: http://farm3.static.flickr.com/2295/2381944505_1292d190b5.jpg
  Image Width: 500
  Image Height: 333
  BBox X: 33
  BBox Y: 77
  BBox Width: 318
  BBox Height: 214
  Exposure: 2000ms
  Synset Label: songbird
  Synset ID: n01526521
  Worker Tag: cute black bird
  Sanity Check: 
   Saved
  Comment: 
   {}
  Worker ID: A1VGZ2K3HF66TE
  Assignment ID: 3A4TN5196KI0HDV02K34QRD43R1CHL
  HIT ID: 30Z7M1Q8UYKH83ZFP085IZZWXRAA8H
  Work Time: 77s
  Worker Score: 0.7143
 END ANNOTATION -->
 <g display="inline">
  <title>Layer 1</title>
  <path t="0,222,222,223,223,223,223,223,223,271,272,272,272,273,273,273,273,273,285,285,285,286,286,286,286,286,286,305,305,305,306,306,306,306,306,307,318,318,319,319,320,322,322,322,322,335,335,488,490,490,490,518,518,518,518,518,519,536,536,536,536,538,539,539,539,539,554,555,555,555,555,555,556,556,556,579,579,580,588,588,588,589,589,608,608,608,609,609,609,626,626,627,627,627,635,636,636,637,655,692,693,711,713" d="m349,158c11,0 11.87183,0 12.69467,0c0.78482,0 2.28448,0 3.02133,0c0.74283,0 1.50266,0 3.11734,0c0.87366,0 1.78934,0 2.73898,0c0.97568,0 1.96933,0 2.97299,0c1.00568,0 2.00534,0 3.95468,0c0.936,0 1.84799,0 2.742,0c0.88199,0 1.758,0 2.634,0c0.88199,0 1.776,0 3.62399,0c0.96335,0 1.94666,0 2.94,0c0.99332,0 1.97665,0 2.94,0c0.93332,0 1.82666,0 3.45334,0c0.71533,0 1.36267,0 1.944,0c0.51733,0 0.97266,0 1.36798,0c0.33734,0 0.61868,0 1.02133,0c0.216,0 -0.66666,0.16667 -1.50665,0.44667c-0.60001,0.2 -1.31943,0.44177 -2.62466,0.87466c-0.49246,0.16333 -1.55319,0.50673 -2.11868,0.67867c-0.5838,0.17749 -1.17969,0.3782 -3.08331,0.83333c-0.65308,0.15614 -1.32358,0.28622 -2.00851,0.4185c-0.70306,0.13577 -1.42923,0.26772 -2.1795,0.4095c-0.77875,0.14717 -1.59097,0.29416 -3.31198,0.672c-0.91983,0.20195 -1.86609,0.43175 -2.83051,0.67201c-0.9729,0.24237 -1.9407,0.49332 -2.89349,0.74399c-0.92752,0.24402 -1.81693,0.48422 -3.44269,0.91734c-0.71631,0.19084 -1.37122,0.36441 -1.97549,0.5145c-0.55978,0.13902 -1.08536,0.26457 -1.5885,0.3615c-0.96109,0.18513 -1.93518,0.30179 -2.97067,0.37334c-0.53696,0.03709 -1.63208,0.08179 -2.18134,0.10933c-1.08286,0.05431 -2.12088,0.11551 -3.07864,0.26134c-0.89334,0.13602 -1.72549,0.32767 -2.48401,0.60001c-1.08344,0.38901 -1.72461,0.7489 -2.30466,1.0925c-0.73557,0.43573 -1.69534,1.1075 -2.46851,1.68466l-0.521,0.38966l-0.573,0.42567l-0.7995,0.5835" id="svg_1" stroke-width="2" stroke="#000" fill="none"/>
  <path t="1104,1383,1384,1384,1384,1384,1384,1401,1401,1401,1401,1401,1401,1440,1440,1440,1440,1440,1440,1452,1453,1453,1453,1453,1453,1453,1453,1469,1470,1470,1470,1470,1470,1499,1499,1500,1500,1500,1500,1518,1518,1518,1518,1519,1519,1555,1556,1557,1557,1557,1557,1557,1557,1562,1563,1563,1563,1563,1583,1584,1584,1584,1584,1584,1619,1619,1619,1620,1620,1620,1624,1625,1625,1625,1626,1626,1626,1695,1704,1705,1705,1705,1705,1706,1706,1706,1711,1712,1712,1712,1713,1713,1713,1713,1714,1718,1719,1719,1720,1720,1720,1721,1721,1722,1735,1735,1736,1736,1737,1737,1738,1738,1739,1768,1769,1769,1770,1771,1771,1772,1772,1773,1804,1804,1805,1805,1806,1806,1809,1815,1815,1816,1817,1817,1873,1874,1874,1875,1879,1880,1881,1881,1882,1883,1883,1889,1890,1890,1891,1891,1901,1902,1903,1903,1904,1935,1936,1937,1939,1955,1956,1956,1957,1957,1957,1958,1969,1970,1971,1971,1972,1972,2002,2003,2003,2004,2004,2004,2019,2020,2020,2021,2021,2022,2022,2034,2035,2035,2035,2036,2036,2037,2038,2038,2051,2052,2053,2054,2054,2055,2056,2057,2058,2073,2074,2075,2075,2076,2076,2103,2104,2105,2106,2106,2107,2107,2117,2118,2118,2119,2119,2120,2120,2121,2122,2151,2152,2152,2153,2153,2154,2154,2155,2155,2161,2162,2163,2164,2165,2165,2166,2168,2187,2188,2189,2189,2190,2190,2191,2192,2201,2202,2202,2203,2203,2204,2206,2206,2207,2236,2237,2237,2238,2239,2240,2241,2261,2264,2264,2265,2266,2267,2268,2269,2278,2279,2280,2281,2282,2283,2284,2284,2285,2301,2302,2303,2304,2305,2307,2309,2310,2311,2320,2321,2322,2323,2323,2324,2325,2326,2327,2338,2339,2340,2341,2342,2342,2343,2344,2346" d="m350,156c-6.81418,-7.69267 -7.2579,-8.17664 -7.67584,-8.61867c-0.75787,-0.80159 -1.11539,-1.16608 -1.80417,-1.86c-1.03818,-1.04596 -1.40668,-1.40402 -2.14532,-2.15733c-0.37604,-0.38348 -1.12668,-1.16422 -1.49066,-1.56534c-1.07678,-1.18665 -1.40833,-1.59708 -2.06934,-2.43066c-0.33911,-0.42766 -0.6806,-0.87256 -1.384,-1.82399c-0.76907,-1.04028 -1.17273,-1.60809 -1.59866,-2.19334c-0.43674,-0.6001 -0.88025,-1.20712 -1.332,-1.80899c-0.44696,-0.59547 -1.31171,-1.7365 -2.16666,-2.70834c-0.38177,-0.43399 -1.10757,-1.17697 -1.83334,-1.75c-0.68683,-0.54228 -1.06079,-0.77353 -2.24301,-1.50449c-0.86612,-0.53551 -1.32169,-0.80695 -2.27832,-1.3175c-0.48407,-0.25835 -0.96082,-0.54349 -2.47916,-1.11816c-0.49738,-0.18826 -1.52881,-0.47314 -2.06201,-0.58067c-1.10403,-0.22263 -1.69147,-0.29758 -2.9375,-0.39584c-1.34894,-0.10636 -2.05341,-0.11252 -2.76532,-0.13066c-0.71378,-0.0182 -1.42267,-0.02679 -2.11951,-0.0315c-0.67783,-0.00458 -2.52951,-0.0045 -3.07651,-0.0045c-1.01599,0 -1.96799,0 -2.435,0c-1.43701,0 -2.47299,0 -3.01349,0c-0.55151,0 -1.67551,0 -2.242,0c-1.68152,0 -2.22723,-0.01564 -3.2955,0.018c-0.52765,0.01662 -1.58322,0.09824 -2.10535,0.21067c-1.63489,0.35205 -2.17371,0.64658 -2.73267,0.91133c-0.57709,0.27334 -1.73715,0.91969 -2.32532,1.26667c-0.59552,0.35133 -1.18576,0.72167 -2.38934,1.42667c-0.59924,0.35099 -1.21887,0.68513 -2.50665,1.43732c-0.70474,0.41165 -1.45798,0.87146 -2.26501,1.3965c-0.88684,0.57695 -2.90051,1.99208 -4.04099,2.84634c-1.22803,0.91986 -2.50104,1.91136 -3.798,2.9505c-1.31113,1.05048 -2.59833,2.11122 -3.83401,3.16649c-1.18005,1.00777 -3.23325,2.85803 -4.0545,3.67584c-0.71747,0.71445 -1.31497,1.36624 -1.8075,1.959c-0.43134,0.5191 -0.78403,0.99986 -1.08749,1.437c-0.27618,0.3978 -0.76776,1.13455 -1.02716,1.47617c-0.258,0.33977 -0.52927,0.66611 -0.80402,0.9855c-0.27261,0.31694 -0.54968,0.625 -0.82199,0.9315c-0.26904,0.30284 -0.78918,0.90193 -1.03134,1.205c-0.24051,0.30099 -0.47211,0.61057 -0.69598,0.93149c-0.22888,0.32806 -0.45383,0.67406 -0.67801,1.03951c-0.23465,0.38249 -0.71609,1.22736 -0.96866,1.69267c-0.26486,0.48798 -0.53458,0.99666 -1.07867,2.05666c-0.27632,0.53833 -0.54822,1.0779 -1.33333,2.64584c-0.24495,0.4892 -0.69601,1.392 -1.08334,2.16666c-0.30734,0.61467 -0.58333,1.16667 -0.85933,1.71867c-0.492,0.98399 -0.69469,1.38931 -1.39067,2.78133c-0.25465,0.50934 -0.51732,1.03467 -1.05865,2.11734c-0.27467,0.54933 -0.54935,1.09866 -1.09067,2.18134c-0.51733,1.03467 -1.00134,1.9942 -1.21333,2.45366c-0.40001,0.86694 -0.79488,1.68675 -0.97067,2.91434c-0.11342,0.79202 -0.01241,1.58871 0.024,2.364c0.03523,0.75023 -0.04872,1.82878 -0.3,2.49234c-0.26599,0.70241 -0.70239,1.40633 -1.39067,2.64366c-0.2574,0.46274 -0.78503,1.46523 -1.04799,1.99733c-0.26813,0.54257 -0.78433,1.6553 -1.01601,2.22134c-0.45337,1.1077 -0.80457,2.19501 -0.964,2.72417c-0.31168,1.03444 -0.43326,1.55392 -0.77333,2.55583c-0.34259,1.00934 -0.79474,2.00526 -1.04633,2.50133c-0.51137,1.00826 -0.80353,1.50201 -1.09467,2c-0.88054,1.50616 -1.18732,2.00262 -1.8,3.0045c-0.3103,0.50742 -0.62823,1.0192 -0.963,1.53149c-0.68959,1.05533 -1.45746,2.13356 -1.87117,2.6855c-0.42488,0.56683 -0.87233,1.13835 -1.33951,1.71451c-0.47644,0.58759 -0.97169,1.17722 -1.48349,1.76849c-0.51884,0.59943 -1.59813,1.79771 -2.155,2.39517c-0.55913,0.59988 -1.12552,1.19276 -1.69351,1.77899c-0.56303,0.5811 -1.12326,1.15007 -1.67549,1.707c-0.53978,0.54439 -2.0672,2.0708 -2.53784,2.54367c-0.45367,0.45581 -0.89412,0.89404 -1.71466,1.74933c-0.39348,0.41014 -1.49301,1.61932 -1.83667,2.02184c-0.69072,0.80899 -1.03459,1.23442 -1.40399,1.662c-0.79077,0.9153 -1.2282,1.40701 -2.25,2.4375c-0.56645,0.57126 -1.18642,1.1555 -1.84801,1.74899c-0.68231,0.61208 -1.39488,1.21825 -2.136,1.80301c-0.741,0.58466 -1.47513,1.17091 -3.01599,2.11467c-0.73178,0.44821 -1.47415,0.81888 -2.2005,1.15649c-0.70457,0.32748 -1.40343,0.61494 -2.08351,0.89551c-0.66359,0.27376 -1.32587,0.51335 -2.54933,1.11465c-0.59834,0.29407 -1.16798,0.62953 -1.7235,0.9765c-0.55254,0.34511 -1.089,0.711 -2.158,1.442c-0.5345,0.36551 -1.61522,1.08682 -2.17366,1.42683c-0.56291,0.34274 -1.73386,0.99907 -2.34067,1.32133c-0.6185,0.32848 -1.25557,0.65417 -1.9095,0.98399c-1.35976,0.68582 -2.07069,1.03696 -2.79466,1.40001c-0.73438,0.36827 -1.47386,0.74033 -2.21251,1.116c-0.73468,0.37366 -1.45981,0.74451 -2.1675,1.116c-1.35619,0.71191 -1.99162,1.0574 -2.59599,1.40001c-1.14436,0.64873 -1.67883,0.97649 -2.18935,1.30933c-0.98819,0.64427 -1.90569,1.33592 -2.34766,1.69667c-0.90375,0.73769 -1.3577,1.14754 -1.84534,1.56133c-0.51495,0.43697 -1.06458,0.90036 -1.67101,1.37401c-1.35725,1.06006 -2.15092,1.61075 -2.99466,2.196c-0.88416,0.61328 -1.80762,1.23392 -2.75101,1.86749c-0.95259,0.63976 -1.90714,1.27371 -2.84099,1.91249c-1.7901,1.22449 -2.61362,1.81815 -3.388,2.39603c-0.73846,0.55109 -1.43269,1.09293 -2.08351,1.629c-0.62505,0.51486 -1.21655,1.02441 -1.76849,1.539c-1.05875,0.98709 -1.54016,1.49774 -2.00667,2.00665c-0.46217,0.50421 -0.90533,1.02267 -1.32899,1.5585c-0.42712,0.54019 -0.8428,1.10211 -1.239,1.69351c-0.82397,1.22998 -1.20912,1.90506 -1.60133,2.60266c-0.40369,0.71802 -0.79068,1.47067 -1.18051,2.24548l-0.38483,0.79984l-0.37883,0.82385l-0.37184,0.84683" id="svg_2" stroke-width="2" stroke="#000" fill="none"/>
  <path t="2816,3117,3117,3117,3117,3117,3117,3151,3151,3152,3152,3152,3152,3169,3170,3170,3170,3170,3170,3170,3170,3185,3185,3185,3186,3203,3203,3203,3203,3204,3204,3235,3235,3235,3235,3269,3269,3269,3269,3275,3275,3275,3285,3286,3286,3286,3333,3339,3340,3340,3340,3351,3351,3369,3370,3370,3370,3370,3370,3370,3401,3401,3401,3402,3403,3403,3404,3426,3426,3426,3427,3427,3427,3427,3427,3428,3436,3436,3437,3437,3438,3438,3438,3439,3451,3452,3452,3452,3453,3453,3486,3486,3487,3487,3488,3488,3489,3489,3501,3502,3502,3503,3503,3503,3504,3504,3504,3537,3538,3538,3539,3539,3539,3539,3546,3546,3547,3548,3548,3548,3548,3549,3568,3568,3569,3569,3570,3570,3570,3585,3586,3587,3587,3588,3588,3589,3589,3617,3618,3618,3619,3619,3620,3620,3625,3625,3626,3626,3626,3627,3652,3653,3653,3654,3654,3654,3655,3667,3668,3668,3669,3669,3669,3670,3670,3685,3685,3686,3686,3687,3688,3689,3690,3718,3719,3720,3720,3720,3721,3735,3737,3737,3738,3738,3739,3739,3739,3751,3752,3752,3753,3754,3755,3755,3756,3756,3767,3768,3768,3769,3769,3769,3770,3770,3771,3784,3785,3786,3786,3787,3787,3788,3789,3789,3820,3821,3822,3822,3823,3823,3835,3836,3836,3837,3838,3839,3840,3851,3852,3853,3853,3854,3868,3869,3870,3870,3871,3871,3902,3903,3905,3905,3906,3930,3934,3935,3936,3936,3938,3939,3939,3940,3955,3956,3958,3959,3959,3960,3968,3969,3970,3971,3972,3972,3986,3987,3988,3988,3989,3989,4001,4002,4002,4003,4004,4005,4006,4007,4008,4019,4020,4021,4022,4023,4024,4025,4026,4027,4039,4040,4041,4042,4042,4043,4044,4056,4062,4071,4072,4073,4073,4074,4074,4075,4075,4076,4084,4085,4086,4087,4088,4089,4090,4091,4091,4116,4117,4118,4118,4119,4120,4120,4121,4122,4135,4136,4138,4138,4139,4140,4140,4141,4142,4152,4153,4154,4155,4155,4156,4157,4158,4158,4168,4169,4171,4173,4174,4175,4176,4176,4177,4183,4185,4185,4186,4187,4220,4221,4222,4223,4225,4234,4236,4238,4252,4269,4270,4271,4272,4302,4303,4304,4305,4340,4352,4354,4355,4356,4384,4486,4501,4503,4504,4504,4505,4517,4519,4519,4520,4521,4522,4522,4523,4524,4553,4554,4555,4556,4557,4559,4560,4561,4562,4571,4572,4573,4574,4575,4576,4579,4581,4583,4591,4593,4594,4595,4596,4596,4597,4598,4600,4605,4607,4608,4609,4611,4613,4615,4616,4616,4635,4636,4638,4639,4640,4641,4642,4643,4644,4669,4671,4672,4673,4674,4676,4677,4678,4679,4700,4702,4703,4704,4706,4707,4708,4710,4711,4718,4720,4721,4723,4724,4725,4726,4727,4729,4735,4737,4739,4740,4741,4743,4744,4745,4746,4752,4753,4754,4755,4756,4758,4759,4760,4762,4787,4789,4790,4791,4792,4794,4795,4796,4797,4820,4822,4825,4826,4828,4829,4830,4831,4833,4840,4842,4844,4845,4847,4849,4850,4851,4852,4858,4860,4861,4862,4864,4865,4866,4868,4869,4885,4887,4889,4891,4892,4894,4899,4901,4902,4910,4912,4913,4915,4918,4920,4922,4923,4925,4938,4939,4941,4943,4945,4947,4948,4950,4951,4960,4962,4964,4965,4968,4969,4971,4975,4976,4984,4987,4988,4990,4992,4994,4995,4996,4998,5023,5024,5026,5028,5029,5031,5033,5035,5037" d="m353,175c-6.15701,9.44934 -6.61954,10.01056 -7.08566,10.49533c-0.43341,0.45076 -1.28262,1.20776 -1.70532,1.51601c-1.18127,0.86139 -2.01105,1.31067 -2.427,1.536c-0.8587,0.46516 -1.32016,0.69095 -2.32333,1.13667c-1.11899,0.49719 -1.74301,0.73886 -2.392,0.99866c-0.66763,0.26726 -2.02499,0.7966 -2.69336,1.056c-0.64828,0.2516 -1.26962,0.48459 -2.37332,0.92801c-0.89444,0.35933 -1.62729,0.66037 -2.54449,1.13866c-0.96799,0.50476 -1.70929,0.96425 -2.1225,1.20001c-0.87277,0.49797 -1.7843,0.99939 -2.25168,1.22665c-1.34564,0.65431 -1.78864,0.81075 -2.62399,1.09601c-0.77051,0.26312 -2.13034,0.65501 -2.68799,0.87334c-0.75784,0.29669 -1.45831,0.67358 -2.45602,1.284c-0.5636,0.34482 -1.46716,0.93256 -2.47998,1.51466c-0.70535,0.4054 -1.40674,0.76534 -2.02802,1.092c-0.85526,0.44968 -1.10495,1.1358 -1.57867,1.64534c-0.53873,0.57945 -1.14661,1.07837 -1.89066,1.93066c-0.59146,0.67752 -1.00394,1.49794 -1.47467,2.32666c-0.28177,0.49606 -0.58896,1.03328 -1.23199,2.20801c-0.3356,0.61308 -0.67505,1.23036 -1.29599,2.464c-0.29599,0.58803 -0.82889,1.72758 -1.08267,2.28267c-0.25156,0.55025 -0.75183,1.65797 -1.01868,2.21866c-0.55661,1.16951 -0.87265,1.77612 -1.20132,2.40266c-0.33829,0.64485 -0.69214,1.30125 -1.05151,1.97101c-0.36462,0.67958 -0.73672,1.36432 -1.0965,2.06099c-1.07831,2.08815 -1.39899,2.79327 -1.72101,3.48834c-0.31793,0.68629 -0.62201,1.36644 -0.91498,2.037c-0.28696,0.6568 -0.56418,1.29958 -1.08002,2.53867c-0.48392,1.16237 -0.70984,1.72162 -0.91998,2.27199c-0.40948,1.07243 -0.61771,1.59987 -1.08002,3.22801c-0.15683,0.55228 -0.28452,1.12285 -0.56265,2.30133c-0.14523,0.61542 -0.29602,1.25206 -0.47101,1.908c-0.18216,0.68282 -0.62564,2.12657 -0.89716,2.88783c-0.28159,0.78957 -0.59439,1.59125 -0.92252,2.40149c-0.33023,0.81544 -0.67197,1.62323 -1.01248,2.41951c-0.33286,0.7784 -0.96954,2.24762 -1.25769,2.92949c-0.27307,0.64619 -0.53885,1.26048 -0.98065,2.444c-0.21219,0.56844 -0.43661,1.12692 -0.89584,2.87502c-0.15918,0.60599 -0.28568,1.23514 -0.40948,1.8765c-0.12561,0.65067 -0.34787,1.97528 -0.45267,2.642c-0.10455,0.66528 -0.3017,1.98196 -0.40485,2.62683c-0.20309,1.26959 -0.31616,1.89694 -0.44131,2.52133c-0.12552,0.62631 -0.40717,1.89038 -0.79169,3.16666c-0.1983,0.65814 -0.43182,1.31888 -0.67648,1.98602c-0.24728,0.67422 -0.77524,2.02206 -1.04199,2.69464c-0.26523,0.66876 -0.78323,1.98538 -1.02686,2.63086c-0.23901,0.63318 -0.46207,1.25815 -0.92133,2.45932c-0.22217,0.58105 -0.40842,1.16437 -1.16666,2.72916c-0.24097,0.49731 -0.78351,1.42349 -1.06934,1.86136c-0.56113,0.85965 -0.86377,1.26651 -1.76401,2.47198c-0.60217,0.80637 -0.91129,1.21878 -1.58334,2.0625c-0.35712,0.44833 -0.73901,0.91446 -1.15799,1.39349c-1.42291,1.62683 -1.99408,2.19785 -2.57382,2.802c-0.59488,0.6199 -1.20471,1.24298 -1.81952,1.866c-0.61084,0.61899 -1.21423,1.22443 -2.36533,2.37601c-0.53531,0.53552 -1.04318,1.04349 -1.5285,1.52399c-0.46271,0.45813 -0.90634,0.89542 -1.33951,1.30801c-0.823,0.78394 -1.62598,1.50845 -2.43332,2.18399c-0.40021,0.33487 -1.21869,0.98508 -1.63467,1.30936c-0.84766,0.66083 -1.73163,1.34006 -2.186,1.69666c-0.95071,0.74606 -1.4469,1.14487 -1.96133,1.56134c-0.53629,0.43414 -1.09424,0.89078 -1.674,1.37399c-1.24608,1.03857 -1.90681,1.60687 -2.59732,2.19467c-0.71214,0.6062 -1.44063,1.22644 -2.18701,1.84799c-0.75229,0.62646 -1.50822,1.25018 -2.27699,1.84799c-1.50224,1.16815 -2.25575,1.69296 -2.99333,2.19601c-0.71822,0.48984 -1.42941,0.94995 -2.1255,1.39349c-0.67863,0.4324 -1.34599,0.84534 -1.99049,1.25851c-1.24319,0.79697 -1.8309,1.20071 -2.40001,1.60132c-0.55519,0.39081 -1.08955,0.78104 -1.6095,1.16101c-0.5054,0.36935 -0.99327,0.73163 -1.4745,1.07098c-0.91556,0.6456 -1.79692,1.21759 -2.68399,1.69867c-0.44101,0.23917 -1.36679,0.67325 -1.85867,0.86932c-1.59634,0.63629 -2.19675,0.80444 -2.80333,1.00269c-0.61743,0.20178 -1.86658,0.59821 -2.48401,0.79999c-0.60658,0.19824 -1.76096,0.59229 -2.80333,0.99734c-0.48909,0.19006 -1.40154,0.59387 -2.29834,0.88834c-1.30806,0.4295 -1.77419,0.49966 -2.709,0.60001c-0.94469,0.10141 -1.42188,0.10141 -2.36333,0.11166c-1.36342,0.01486 -2.25383,0.00266 -2.71201,0.00266c-0.97733,0 -1.5105,0 -3.37199,0c-0.728,0 -1.504,0 -2.31599,0c-0.836,0 -1.68401,0 -2.53201,0c-0.836,0 -1.64799,0 -3.15199,0c-0.67117,0 -1.28934,0 -2.39467,0c-0.50116,0 -1.4355,0.00049 -2.772,0c-0.45483,-0.00018 -1.39104,0.00449 -2.35416,-0.04166c-0.49022,-0.02347 -1.49141,-0.07465 -2.97968,-0.40167c-0.50789,-0.1116 -1.53377,-0.44379 -2.062,-0.64001c-0.54794,-0.20355 -1.69722,-0.68179 -2.9375,-1.25c-0.66637,-0.30527 -1.35568,-0.63522 -2.067,-0.98099c-0.73138,-0.3555 -1.47566,-0.72537 -2.229,-1.10699c-0.76134,-0.38568 -1.52583,-0.77536 -3.03732,-1.57867c-0.74675,-0.39688 -1.48151,-0.79837 -2.2095,-1.1955c-0.72134,-0.39352 -1.43552,-0.78519 -2.1465,-1.16852c-0.70535,-0.38031 -1.40381,-0.76151 -2.81067,-1.46933c-0.69713,-0.35074 -1.39816,-0.68372 -2.0955,-1.01398c-0.69334,-0.32837 -1.38461,-0.6507 -2.0685,-0.97803c-0.67978,-0.32538 -1.35938,-0.64209 -2.66933,-1.34131c-0.6501,-0.34698 -1.2879,-0.71704 -1.923,-1.09952c-0.64229,-0.38681 -1.2869,-0.79391 -1.94099,-1.21649c-0.67128,-0.43369 -1.35771,-0.88879 -2.80267,-1.85068c-0.76421,-0.50873 -1.55066,-1.03403 -2.358,-1.56299c-0.81664,-0.53506 -1.63922,-1.06644 -2.466,-1.58099c-0.81528,-0.50742 -1.60934,-1.01062 -3.17599,-1.85602c-0.7289,-0.39331 -1.44099,-0.73325 -2.12849,-1.04248c-0.66069,-0.29718 -1.30811,-0.56393 -1.9395,-0.8175c-0.61761,-0.24805 -1.23221,-0.47644 -2.43201,-0.97333c-0.60298,-0.24973 -1.20674,-0.51852 -1.82249,-0.7905c-0.63092,-0.27869 -1.28014,-0.56729 -1.9575,-0.85352c-0.70427,-0.29758 -1.439,-0.61169 -3.05333,-1.18933c-0.86919,-0.311 -1.78377,-0.60239 -2.72551,-0.89099c-0.9556,-0.29285 -1.91934,-0.57089 -2.87849,-0.83701c-0.94121,-0.26114 -1.85529,-0.50937 -3.56267,-0.93866c-0.7701,-0.19363 -1.48681,-0.36542 -2.157,-0.51001c-0.62593,-0.13504 -1.21674,-0.24826 -1.779,-0.32999c-0.53591,-0.07791 -1.05586,-0.17361 -2.56384,-0.15067c-0.49942,0.0076 -1.48918,0.11118 -2.46416,0.20667c-0.47868,0.04688 -1.87108,0.14731 -2.74934,0.08133c-0.84265,-0.06329 -1.63861,-0.22427 -2.4,-0.34802c-1.06285,-0.17273 -2.01823,-0.26065 -2.81067,-0.27817c-1.01043,-0.02234 -1.96265,0.01431 -2.50016,-0.01797c-0.98526,-0.0592 -1.73459,-0.15353 -2.75384,-0.65033c-0.68227,-0.33255 -1.41172,-1.181 -1.96467,-1.39883c-0.80032,-0.31528 -1.69067,0.06265 -2.61617,0.06265c-0.72033,0 -2.21194,1.13965 -2.637,0c-0.18304,-0.49075 0.36449,-1.33069 0.42734,-2.13849c0.07543,-0.96948 0.17639,-1.50354 0.36867,-2.03134c0.62694,-1.72098 1.13351,-2.22278 1.5945,-2.74484c0.4798,-0.54337 1.02936,-1.05682 1.6095,-1.56448c0.59182,-0.51788 1.2139,-1.01526 1.8345,-1.5195c1.22976,-0.99918 1.8214,-1.49963 2.4,-2.00534c0.58042,-0.50729 1.16232,-1.02994 1.7655,-1.5585c0.62476,-0.54749 1.28009,-1.11743 1.9905,-1.69351c1.55706,-1.26263 2.45277,-1.91153 3.396,-2.59998c0.98468,-0.71869 2.00982,-1.44949 3.05099,-2.20651c1.05486,-0.76697 2.11442,-1.53751 3.141,-2.34149c2.00468,-1.56998 2.9193,-2.38519 3.788,-3.19467c0.84415,-0.78662 1.63614,-1.58295 2.3835,-2.38049c0.72852,-0.77744 1.41706,-1.55688 2.0685,-2.33551c1.25972,-1.50568 1.83647,-2.26215 2.408,-2.99866c0.56143,-0.72351 1.10713,-1.44064 1.6485,-2.14502c0.53465,-0.69562 1.06302,-1.3848 1.6035,-2.05499c1.07222,-1.32959 1.63496,-1.96957 2.20667,-2.60533c0.57695,-0.64162 1.17598,-1.27989 1.79399,-1.923c0.63261,-0.65829 1.2914,-1.3266 1.974,-2.013c1.43999,-1.44801 2.20683,-2.20949 2.996,-2.99866c0.80917,-0.80917 1.63333,-1.63333 2.4675,-2.4675c0.83917,-0.83917 1.67834,-1.67834 2.51251,-2.51251c1.63333,-1.63333 2.42415,-2.425 3.20399,-3.20265c0.77484,-0.77266 1.55351,-1.54651 2.34599,-2.32651c0.81015,-0.79738 1.64828,-1.61681 2.526,-2.4615c1.88557,-1.81464 2.91757,-2.78488 4,-3.79866c1.12283,-1.05162 2.28326,-2.12759 3.474,-3.21901c1.20659,-1.10596 2.42531,-2.21384 3.65401,-3.30899c2.42143,-2.15825 3.61508,-3.189 4.78934,-4.18668c1.14586,-0.97354 2.27402,-1.90878 3.39,-2.79599c1.08424,-0.86197 2.14807,-1.6839 3.20999,-2.436c2.01785,-1.42914 3.02322,-2.03448 4,-2.60266c0.94357,-0.54886 1.8759,-1.04544 2.79001,-1.50301c0.88609,-0.44356 1.75778,-0.85022 2.61,-1.233c1.6358,-0.73473 2.43013,-1.06979 3.19865,-1.40666c0.74715,-0.3275 1.47189,-0.64665 2.1705,-0.96451c0.67603,-0.30757 1.32753,-0.60855 1.94551,-0.91949c1.16612,-0.58675 1.6983,-0.89603 2.20799,-1.20534c0.50064,-0.30382 0.98799,-0.62411 1.4715,-0.9585c0.49391,-0.34157 0.9957,-0.70715 1.51651,-1.09351c1.13231,-0.84 1.74774,-1.31026 2.40799,-1.79866c0.69534,-0.51436 1.42734,-1.04742 2.2005,-1.58701c0.80141,-0.55928 1.63593,-1.12686 2.5155,-1.677c1.82295,-1.14018 2.79753,-1.66786 3.78667,-2.19066c0.99193,-0.52426 1.99249,-1.01944 2.9895,-1.4865c0.97511,-0.4568 1.92839,-0.88206 2.85451,-1.26151c1.69977,-0.69641 2.47633,-0.96603 3.2,-1.2c0.67567,-0.21844 1.32155,-0.39844 1.9455,-0.5385c0.60432,-0.13565 1.20541,-0.24121 1.8105,-0.31351c1.24924,-0.14926 1.91579,-0.17351 2.604,-0.20534c0.7058,-0.03264 1.42395,-0.05183 2.14799,-0.0645c0.72395,-0.01266 1.442,-0.01756 2.14799,-0.0195c1.35201,-0.00371 1.98717,-0.00133 2.59334,-0.00133c0.57817,0 1.12933,0 1.6545,0c0.50017,0 0.97633,0 1.4295,0c0.84134,0 1.231,0 1.59866,0c0.34367,0 0.66133,0 0.951,0c0.25967,0 0.48734,0 0.681,0c0.27733,0 0.35899,0 0.41066,0c0.03168,0 0.05334,0 0.07501,0c0.03166,0 0.08333,0 0.16499,0c0.29333,0 0.52202,0.00124 0.80267,-0.00267c0.32469,-0.00452 0.68533,-0.01866 1.07399,-0.039l0.40868,-0.03033l0.42067,-0.04233l0.42465,-0.05634" id="svg_3" stroke-width="2" stroke="#000" fill="none"/>
  <path t="5775,5967,5968,5968,5968,5968,5968,5968,5968,5985,5985,5986,5986,5986,5986,5986,6020,6020,6020,6020,6020,6021,6021,6035,6035,6035,6036,6036,6036,6036,6051,6052,6052,6070,6120,6120,6120,6134,6185,6204,6204,6217,6234,6235,6235,6235,6270,6355,6355,6368,6369,6369,6370,6370,6370,6370,6371,6371,6386,6386,6386,6386,6387,6387,6387,6387,6387,6402,6402,6403,6403,6403,6403,6403,6403,6404,6435,6436,6436,6436,6436,6437,6437,6437,6437,6453,6454,6454,6454,6455,6455,6455,6455,6455,6470,6470,6470,6470,6471,6471,6471,6472,6472,6485,6486,6486,6487,6487,6487,6518,6553,6559,6559,6560,6560,6560,6560,6560,6567,6568,6568,6569,6569,6569,6570,6570,6601,6602,6602,6603,6603,6603,6604,6604,6604,6617,6618,6619,6620,6621,6621,6622,6622,6622,6635,6635,6636,6636,6636,6637,6637,6637,6638,6666,6666,6667,6667,6667,6668,6668,6668,6669,6685,6685,6686,6719,6725,6726,6727,6728,6728,6728,6729,6734,6735,6735,6736,6736,6737,6737,6738,6738,6769,6770,6771,6771,6772,6772,6773,6773,6774,6785,6785,6786,6786,6787,6788,6789,6789,6790,6818,6819,6819,6820,6820,6820,6821,6821,6821,6827,6828,6828,6830,6831,6831,6832,6833,6852,6868,6869,6953,6954,6954,6955,6956,6956,6957,6957,6958,7003,7004,7005,7006,7007,7007,7009,7011,7012,7022,7023,7024,7024,7025,7025,7026,7026,7027,7034,7035,7036,7036,7037,7038,7039,7040,7041,7051,7052,7052,7053,7054,7054,7055,7055,7056,7084,7085,7086,7087,7088,7088,7089,7089,7090,7103,7104,7105,7106,7107,7108,7109,7110,7111,7123,7124,7125,7126,7126,7127,7127,7128,7129,7149,7151,7152,7153,7154,7155,7155,7156,7178,7217,7251,7252,7254,7255,7256,7257,7258,7259,7270,7271,7272,7272,7273,7274,7275,7276,7276,7286,7287,7288,7289,7289,7290,7291,7291,7300,7302,7302,7303,7304" d="m242,317c3.33333,15.83334 3.52336,16.91949 3.65866,17.89334c0.12106,0.87137 0.20561,1.65936 0.25801,2.3775c0.04829,0.66196 0.08066,1.88248 0.08333,3.0625c0.00137,0.60931 0,1.23465 0,2.51733c0,0.64932 0,1.29865 0,1.944c0,1.87198 0,2.46283 0,3.03867c0,1.12665 0,1.6875 0,2.82916c0,0.59082 0,1.83749 0,2.50101c0,1.38098 0,2.08047 0,2.77399c0,0.6785 0,1.33301 0,3.0625c0,0.884 0,1.552 0,2.50266c0,0.164 0,0.90802 0,1.79602c0,1.03467 0,1.80933 0,2.75934c0,0.66599 0,1.69266 0,2.77533c0,0.58533 0,1.28265 0,2.34616c0,1.10983 0.29167,0.8205 0.80034,0.8205c1.53299,0 2.299,0 3.181,0c0.974,0 2.01599,0 3.10199,0c1.106,0 2.20801,0 3.282,0c1.96802,0 2.82071,0.00296 3.58936,-0.004c0.70068,-0.00635 1.34976,-0.01978 1.96198,-0.0585c0.59323,-0.03754 1.18341,-0.09534 1.78201,-0.19351c1.30655,-0.21426 2.03125,-0.40332 2.81067,-0.59866c0.82602,-0.20703 1.68591,-0.44061 2.57401,-0.68698c0.90924,-0.25223 1.82904,-0.51569 2.754,-0.77701c1.82877,-0.51666 2.71948,-0.76233 3.59598,-0.996c0.8652,-0.23065 1.72595,-0.45227 2.58752,-0.66449c0.86511,-0.2131 1.74063,-0.4209 2.63248,-0.61951c1.8446,-0.41077 2.80951,-0.60501 3.79602,-0.79733c0.99884,-0.19473 2.00424,-0.37854 3.009,-0.5415c0.99261,-0.16098 1.9675,-0.30719 2.91898,-0.40649c1.78641,-0.18646 2.61444,-0.20306 3.39069,-0.20132c0.72824,0.00165 1.40985,0.03561 2.04449,0.08698c0.59076,0.04779 1.13651,0.11313 1.6395,0.177c0.88168,0.11197 1.26129,0.16205 1.60266,0.19601c0.30298,0.03012 0.56915,0.05252 0.7995,0.06448c0.5495,0.0285 -0.24982,0.02084 -1.40482,0.02084c-0.448,0 -1.51199,0 -2.116,0c-0.64401,0 -1.32202,-0.00009 -2.02802,0c-2.22733,0.00024 -2.99472,-0.00034 -3.776,0.01349c-0.79742,0.0141 -1.61316,0.04086 -2.448,0.09451c-0.85791,0.05515 -1.7435,0.11389 -3.58133,0.392c-0.96771,0.14642 -1.9599,0.34888 -2.9805,0.56699c-1.05011,0.2244 -2.12372,0.47446 -3.22351,0.729c-1.12387,0.26013 -2.26688,0.54034 -4.62933,1.03735c-1.20663,0.25385 -2.42694,0.48441 -3.64948,0.7005c-1.21353,0.21451 -2.4122,0.40912 -3.58652,0.5835c-1.13873,0.1691 -2.23389,0.32938 -4.26401,0.54932c-0.91476,0.09909 -1.76517,0.16714 -2.55298,0.228c-0.72955,0.05637 -1.40567,0.1012 -2.03101,0.15601c-0.58002,0.05084 -1.12439,0.08047 -2.08267,0.28268c-0.43871,0.09256 -0.84233,0.22513 -1.21049,0.37198c-0.34247,0.1366 -0.64755,0.2879 -0.9135,0.444c-0.23744,0.13937 -0.44789,0.26364 -0.70934,0.51733c-0.08701,0.08441 -0.06021,0.32266 0.72899,0.33334c1.15506,0.01563 1.60434,0 2.67767,0c0.61417,0 1.27335,0 1.9725,0c0.73416,0 2.28751,-0.00098 3.09717,0.00034c0.82767,0.00134 1.67139,0.00482 2.52899,0.021c0.86975,0.01642 1.74966,0.04385 2.63699,0.09299c0.89407,0.0495 2.69196,0.21143 3.59167,0.32834c0.9057,0.11771 1.81744,0.26196 2.742,0.40802c0.9408,0.14862 1.90051,0.30444 2.88599,0.444c1.01184,0.14328 3.13733,0.38086 4.25616,0.46265c1.14655,0.0838 2.31226,0.13925 3.48453,0.19202c1.16806,0.05258 2.32156,0.09628 3.44849,0.15601c1.09045,0.0578 3.1171,0.21536 4.03116,0.33731c0.85132,0.11359 1.63889,0.25507 2.367,0.40802c0.67719,0.14227 1.30164,0.29736 1.88101,0.444c0.53796,0.13614 1.5018,0.37796 1.93784,0.46231c0.40277,0.07791 0.77515,0.13293 1.1145,0.17102c0.30441,0.03415 0.57446,0.05508 0.80847,0.06299c0.6019,0.02036 -0.08722,0.04916 -0.88049,0.17966c-0.97763,0.16083 -1.63461,0.27322 -2.39734,0.39734c-0.85226,0.1387 -1.77951,0.28586 -2.76749,0.43201c-1.03201,0.15265 -2.09384,0.30414 -3.17249,0.43201c-2.13788,0.25342 -3.17764,0.33569 -4.2067,0.39334c-1.03775,0.05814 -2.10672,0.08243 -3.22498,0.0705c-1.18857,-0.01266 -2.4675,-0.06293 -3.85501,-0.15451c-3.18887,-0.21048 -5.01517,-0.40158 -6.97198,-0.59201c-2.04553,-0.19907 -4.1373,-0.41537 -6.2355,-0.62848c-2.06311,-0.20953 -4.04941,-0.41602 -5.9205,-0.5835c-3.22379,-0.28854 -4.50851,-0.36472 -5.57468,-0.39734c-0.8694,-0.02661 -1.5663,-0.021 -2.10899,0.02249c-0.41469,0.03323 -0.72385,0.08362 -0.93901,0.1575c-0.27637,0.09488 -0.36456,0.15012 -0.42133,0.19733c-0.03568,0.02966 -0.02769,0.07401 0.02699,0.10352c0.09576,0.05167 0.25751,0.09091 0.47701,0.1485c0.64655,0.16965 1.08711,0.27344 1.60001,0.40265c0.5811,0.14639 1.22424,0.30975 1.92299,0.49051c0.74927,0.19385 1.54266,0.40125 2.373,0.62549c1.75342,0.47354 2.66095,0.7316 3.58002,0.99469c0.92194,0.26392 1.83633,0.53085 2.7345,0.79648c0.87384,0.25842 1.71335,0.50977 2.50949,0.7515c1.42868,0.43378 2.04404,0.62656 2.59732,0.79736c0.4971,0.15347 0.94464,0.29166 1.3515,0.40948c0.37057,0.1073 0.7128,0.20303 1.0365,0.27451c0.60669,0.13397 0.90826,0.17007 1.20401,0.20267c0.28696,0.03165 0.56253,0.05139 0.82199,0.06448c0.23926,0.01208 1.04559,-0.56781 1.04333,0.02084c-0.00284,0.74799 -1.79337,0.00583 -2.74265,-0.004c-0.57474,-0.00595 -1.20566,-0.02179 -1.884,-0.0585c-0.71909,-0.03891 -1.47137,-0.0921 -2.24402,-0.19351c-1.59427,-0.20923 -2.392,-0.39697 -3.18799,-0.59998c-0.79987,-0.20401 -1.59314,-0.44452 -2.38049,-0.70651c-0.78738,-0.26199 -1.56573,-0.54559 -2.33551,-0.84149c-1.52283,-0.58536 -2.26401,-0.89423 -2.996,-1.19467c-0.71931,-0.29526 -1.42197,-0.58914 -2.106,-0.88049c-0.66528,-0.28336 -1.92807,-0.83093 -3.08333,-1.35419c-0.53546,-0.24252 -1.5015,-0.69598 -2.3125,-1.08331l-0.631,-0.30734" id="svg_4" stroke-width="2" stroke="#000" fill="none"/>
  <path t="7631,7783,7784,7784,7784,7784,7784,7784,7784,7784,7801,7801,7802,7802,7802,7802,7836,7836,7836,7836,7836,7836,7836,7852,7853,7853,7853,7853,7853,7853,7853,7853,7868,7868,7868,7868,7869,7869,7869,7869,7869,7901,7902,7902,7902,7902,7903,7921,7922,7922,7922,7935,8020,8021,8034,8034,8035,8035,8035,8035,8035,8069,8070,8070,8070,8071,8071,8071,8071,8071,8085,8086,8086,8087,8087,8087,8087,8088,8088,8103,8103,8104,8104,8105,8105,8105,8105,8106,8117,8117,8118,8118,8118,8118,8118,8119,8119,8152,8153,8153,8153,8153,8154,8154,8154,8154,8169,8170,8170,8171,8171,8172,8172,8172,8201,8202,8236,8236,8237,8237,8238,8238,8238,8253,8254,8254,8255,8255,8255,8256,8256,8257,8271,8272,8272,8273,8273,8274,8274,8275,8275,8284,8285,8285,8286,8286,8287,8287,8287,8288,8319,8320,8320,8320,8321,8321,8321,8322,8322,8335,8337,8337,8338,8338,8339,8339,8339,8340,8353,8354,8355,8355,8356,8356,8368,8369,8403,8404,8405,8405,8406,8406,8417,8428,8429,8429,8430,8430,8431,8432,8433,8434,8439,8440,8440,8441,8441,8442,8442,8442,8443,8466,8466,8467,8467,8468,8468,8469,8469,8469,8484,8486,8487,8487,8488,8488,8488,8489,8489,8505,8506,8507,8508,8509,8510,8512,8513,8515,8525,8526,8526,8527,8528,8528,8528,8534,8535,8536,8537,8537,8538,8569,8570,8571,8572,8572,8573,8574,8574,8575,8590,8591,8592,8592,8593,8593,8594,8594,8595,8680,8681,8681,8682,8683,8683,8683,8684,8684,8694,8695,8695,8696,8697,8698,8698,8700,8701,8718,8720,8720,8721,8722,8722,8723,8724,8725,8752,8753,8755,8756,8756,8757,8759,8760,8760,8767,8769,8769,8770,8771,8772,8772,8774,8776" d="m250,311c2.83333,8.83334 3.08119,9.67722 3.31334,10.51068c0.2278,0.8179 0.44228,1.6207 0.64499,2.40598c0.19725,0.7641 0.38347,1.50653 0.55501,2.22601c0.47461,1.99075 0.60484,2.60165 0.72499,3.19034c0.22929,1.12347 0.33513,1.66818 0.47501,2.74832c0.14023,1.08289 0.20517,2.20917 0.22951,2.79382c0.02512,0.60336 0.04152,1.22894 0.05266,2.55801c0.00594,0.70947 0.0045,2.23349 0.0045,3.05215c0,0.85068 0,1.72534 0,2.616c0,0.89868 0,1.79736 0,2.68802c0,0.87466 0,2.54401 0,3.32468c0,0.74466 0,1.45731 0,2.142c0,0.66064 0,1.30133 0,1.92599c0,0.61267 0,2.41766 0,3.01532c0,0.59366 0,1.76102 0,2.33069c0,1.10132 0,2.13864 0,3.09598c0,0.86133 -0.15015,1.621 0,2.70935c0.09464,0.68604 0.76801,0.66666 1.99301,0.66666c0.57098,0 1.20798,0 2.63199,0c0.763,0 1.54401,0 2.33099,0c1.54401,0 2.28125,0.00507 3.00134,-0.008c0.71628,-0.01297 1.4425,-0.04318 2.18851,-0.117c0.7836,-0.07755 1.61682,-0.1958 2.50348,-0.38699c2.0289,-0.4375 3.16675,-0.80795 4.392,-1.19333c1.2926,-0.40656 2.62317,-0.85587 3.97952,-1.31552c1.3623,-0.4617 2.70673,-0.92917 4.02448,-1.3605c2.44934,-0.80176 3.55881,-1.12073 4.58801,-1.39331c0.95441,-0.25278 1.85211,-0.46161 2.70001,-0.642c0.80554,-0.17136 1.5835,-0.31708 2.34,-0.46201c1.49368,-0.28613 2.24832,-0.43903 3.00665,-0.60666c0.76004,-0.16803 1.51437,-0.3465 2.25751,-0.53552c0.73019,-0.18573 1.44067,-0.3757 2.1225,-0.58047c1.27792,-0.38379 1.85495,-0.59558 2.39868,-0.79468c0.51358,-0.18805 0.99603,-0.37555 1.45798,-0.5415c0.43948,-0.1579 0.86099,-0.30792 1.27802,-0.40649c0.79831,-0.18872 1.20438,-0.20282 1.59866,-0.20132c0.38434,0.00146 0.75427,0.03571 1.10251,0.08698c0.32516,0.04788 1.27969,0.11667 1.12534,0.45834c-0.28922,0.64023 -1.79404,-0.00235 -2.31052,0.00266c-1.25208,0.01215 -1.98169,0.03455 -2.776,0.06934c-0.85672,0.03754 -1.77377,0.07831 -3.76801,0.26135c-1.07504,0.09869 -2.1926,0.23251 -3.34799,0.38098c-1.18863,0.15274 -2.40244,0.32446 -3.63599,0.50702c-1.24844,0.18475 -2.50449,0.37823 -5.01602,0.77866c-1.2449,0.19849 -2.47754,0.39871 -3.69598,0.60001c-1.20288,0.19873 -2.38763,0.39813 -3.552,0.60001c-1.14297,0.19815 -2.26285,0.39178 -4.41867,0.79999c-1.03558,0.19608 -2.03937,0.39664 -3.0105,0.60001c-0.93951,0.19675 -1.8446,0.3959 -2.7135,0.60001c-0.83475,0.19608 -1.63498,0.3844 -3.10934,0.79999c-0.68289,0.19247 -1.32693,0.39645 -1.9425,0.591c-0.59109,0.1868 -1.1604,0.37152 -1.7175,0.53699c-0.54462,0.16177 -1.08072,0.33035 -2.17331,0.53867c-0.5509,0.10504 -1.10739,0.16898 -1.65451,0.21902c-0.52899,0.0484 -1.03287,0.07602 -1.5015,0.09299c-0.42441,0.01538 -0.79599,0.01999 -1.34399,0.02133c-0.16168,0.0004 -0.285,-0.03165 -0.285,0c0,0.01834 0.07666,0 0.61832,0c0.72452,0 1.88501,0 2.34,0c1.12003,0 1.785,0 2.52002,0c0.80499,0 1.67999,0 3.63998,0c1.0835,0 2.228,0 3.4245,0c1.2395,0 2.513,0 3.81152,0c1.31448,0 2.63599,0 5.26398,0c1.28986,0 2.55869,0 3.80551,0c1.22385,0 2.42368,0 3.59851,0c1.14883,0 2.27066,0 4.42932,0c1.035,0 2.04001,0 3.01501,0c0.94498,0 1.85999,0 2.745,0c0.85498,0 1.67999,0 3.23999,0c0.73532,0 1.44266,0 2.12399,0c0.65735,0 1.29266,0 1.90802,0c0.59732,0 1.17865,0 2.30133,0c0.54398,0 1.07199,0 1.578,0c0.478,0 0.922,0 1.32599,0c0.358,0 0.664,0 1.09601,0c0.11566,0 0.16531,0 0.15298,0c-0.07034,0 -0.19467,-0.00012 -0.85165,0c-1,0.00018 -1.82883,0.00391 -2.29602,0.02133c-1.05115,0.03922 -1.63879,0.08463 -2.26932,0.14932c-1.40472,0.1441 -2.17798,0.26999 -3.00266,0.39734c-0.87534,0.13519 -1.79947,0.28625 -2.77502,0.43201c-1.02444,0.15308 -2.09842,0.3082 -3.22498,0.43201c-2.39703,0.26346 -3.67279,0.33276 -4.98535,0.39865c-1.33978,0.06726 -2.69727,0.11041 -4.06049,0.1485c-1.35812,0.03793 -2.70047,0.06421 -4.0155,0.10352c-2.50562,0.07489 -3.67593,0.13385 -4.78799,0.20132c-1.05661,0.06409 -2.05884,0.13928 -3.009,0.216c-0.90048,0.07272 -1.75247,0.14975 -2.55902,0.216c-1.4823,0.12177 -2.16019,0.15833 -2.78,0.20667c-0.54651,0.04263 -1.01129,0.06915 -1.34848,0.18149c-0.2316,0.07715 -0.34491,0.2612 -0.22351,0.40652c0.54895,0.65714 1.34851,0.82782 2.18533,1.19733c0.9812,0.43326 2.09662,0.8812 3.30899,1.35449c1.2782,0.49899 2.6011,0.99731 3.939,1.4895c2.59964,0.95636 3.81805,1.38791 4.97867,1.79068c1.11148,0.38571 2.18958,0.7464 3.24902,1.07397c1.04465,0.323 2.09225,0.62711 3.159,0.89401c2.20871,0.55264 3.38733,0.77539 4.59866,1.00134c1.23236,0.22989 2.47867,0.43066 3.7215,0.62549l1.22784,0.17984l1.19983,0.16382l1.15881,0.14685" id="svg_5" stroke-width="2" stroke="#000" fill="none"/>
  <path t="9456,9867,9886,9887,9887,9902,9902,9902,9934,9952,9953,9954,9954,9984,10057,10068,10069,10069,10069,10089,10159,10183,10183,10184,10184,10216,10223,10224,10224,10235,10287,10302,10303,10303,10303,10303,10329,10337" d="m300,145c-6.86133,3.888 -6.23691,4.47495 -6.07199,5.308c0.15689,0.79257 0.07199,1.99117 0.07199,2.5695c0,0.93666 0.27777,0.77301 1.10651,0.80817c1.03601,0.04396 1.7674,0.40778 2.38815,0.74899c0.84473,0.46434 -0.00665,0.56534 -0.82233,0.56534c-0.77933,0 -1.63068,0 -2.44199,0c-1.017,0 -0.12619,0 0.87616,0c0.65231,0 1.37265,0 2.38815,0c1.05734,0 2.00934,0 2.65735,0c0.69598,0 2.00705,0.03654 1.63199,-0.108c-0.8179,-0.3152 -1.48532,-0.74266 -2.31467,-1.15733c-0.42767,-0.21384 -1.23898,-0.61949 -2.40265,-1.20132l0.86133,0.43066" id="svg_6" stroke-width="2" stroke="#000" fill="none"/>
  <path t="10791,10951,10952,10952,10952,10952,10952,10952,10953,10953,10969,10970,10970,10970,10970,10970,10985,10985,10986,10986,10986,10986,11019,11019,11019,11020,11020,11020,11035,11035,11035,11036,11037,11037,11037,11037,11038,11051,11051,11052,11052,11068,11069,11069,11069,11070,11109,11110,11110,11110,11110,11111,11121,11121,11122,11122,11122,11122,11123,11137,11138,11138,11139,11155,11156,11156,11157,11186,11201,11202,11202,11203,11219,11303,11320,11321,11321,11321,11322,11322,11323,11323,11323,11372,11372,11373,11373,11373,11373,11373,11374,11374,11403,11403,11404,11404,11404,11405,11407,11407,11408,11416,11419,11419,11420,11420,11421,11421,11421,11422" d="m161,254c-4.83333,7.33334 -5.28371,8.1391 -5.71201,8.96268c-0.42737,0.82178 -0.83284,1.64426 -1.22549,2.45398c-0.38196,0.78763 -0.74097,1.55063 -1.0905,2.27402c-0.63379,1.31171 -0.92114,1.88492 -1.20399,2.39865c-0.5029,0.91342 -0.99982,1.6969 -1.53601,2.388c-0.54649,0.70435 -1.19624,1.41144 -1.89333,2.14801c-0.35692,0.37714 -1.08983,1.12268 -1.45601,1.49066c-1.05989,1.06509 -1.40266,1.40399 -2.08932,2.09067c-0.72665,0.72665 -1.11751,1.11749 -1.53334,1.53333c-0.92667,0.92667 -1.44516,1.44519 -1.99466,1.99469c-0.5715,0.57147 -1.15601,1.15598 -1.74451,1.74448c-0.5835,0.5835 -1.15298,1.15305 -1.69949,1.69952c-1.41412,1.41406 -1.79231,1.80112 -2.46266,2.452c-0.57309,0.55643 -1.68916,1.53946 -2.00168,1.7905c-0.66537,0.53448 -1.38103,1.08551 -2.166,1.569c-1.16624,0.71829 -1.58362,0.88681 -2.4045,1.2045c-0.84142,0.32565 -1.75904,0.60757 -2.2425,0.77332c-1.0463,0.3587 -2.19442,0.79797 -2.7975,1.02835c-0.61159,0.23364 -1.21884,0.48203 -2.43133,0.884c-0.57476,0.19055 -2.12737,0.56097 -2.57517,0.57965c-1.17669,0.04907 -1.87498,-0.14792 -2.90666,-0.29333c-0.70962,-0.10004 -1.75309,-0.24066 -2.608,-0.16531c-0.85945,0.07574 -1.44403,0.677 -2.37733,1.26398c-0.6893,0.4335 -1.77719,1.95303 -2.22,1.12802c-0.40565,-0.75577 1.87205,-0.89322 2.36533,-1.05783c0.57339,-0.19135 1.21683,-0.40652 1.92,-0.64352c0.75351,-0.25397 1.54699,-0.52304 2.37,-0.80548c0.84367,-0.28952 2.55107,-0.88351 3.39633,-1.1875c0.84541,-0.30402 1.69723,-0.61954 2.55901,-0.96301c0.88902,-0.35434 1.80648,-0.74356 2.757,-1.17899c1.00445,-0.46014 3.1749,-1.54971 4.3535,-2.18518c1.24167,-0.66949 2.5172,-1.38849 3.8175,-2.13449c1.31474,-0.7543 2.6208,-1.51996 3.9075,-2.2785c1.25328,-0.73883 3.59212,-2.12616 4.655,-2.75217c0.99713,-0.58728 1.94539,-1.14267 2.8575,-1.67999c0.8929,-0.526 1.78,-1.05334 2.67749,-1.59l0.9225,-0.55667" id="svg_7" stroke-width="2" stroke="#000" fill="none"/>
 </g>
 <g display="none">
  <title>muse_image</title>
  <image xlink:href="http://farm3.static.flickr.com/2295/2381944505_1292d190b5.jpg" id="muse" height="426" width="640" y="27" x="0"/>
 </g>
 <g display="none">
  <title>bbox</title>
  <rect stroke="#f00" fill="none" stroke-width="3" height="273.76577" width="407.04" y="125.5045" x="42.24" id="bbox"/>
 </g>
</svg>
