<svg width="640" height="480" xmlns="http://www.w3.org/2000/svg" xmlns:svg="http://www.w3.org/2000/svg" xmlns:xlink="http://www.w3.org/1999/xlink">
 <!-- Sketchy ANNOTATION
  ImageNet ID: n01532829_2619
  URL: http://farm1.static.flickr.com/48/133930992_0c84677bf2.jpg
  Image Width: 500
  Image Height: 382
  BBox X: 101
  BBox Y: 82
  BBox Width: 177
  BBox Height: 187
  Exposure: 2000ms
  Synset Label: songbird
  Synset ID: n01526521
  Worker Tag: songbird with wet-looking feathers perched on cable
  Sanity Check: 
   Saved
  Comment: 
   {}
  Worker ID: A2HM35CWB7IIFM
  Assignment ID: 3PS7W85Z8Z2OOOFSQUA22KFK9TCT91
  HIT ID: 31KPKEKW4AD49OZ40AVMKVDKWBJ0BF
  Work Time: 133s
  Worker Score: 0.7857
 END ANNOTATION -->
 <g display="inline">
  <title>Layer 1</title>
  <path t="0,174,190,196,209,220,237,237,244,244,244,256,268,268,268,285,285,285,292,293,293,305,305,305,318,319,319,335,354,354,369,391,404,418,440,452,468,468,514,601,638,663,663,675,711,897,910,923,941,946,946,959,959,970,987,1005,1020,1020,1042,1067,1093,1108,1141,1216,1277,1277,1301,1401,1401,1413,1429,1442,1443,1451,1451,1451,1451,1462,1462,1462,1472,1474,1485,1485,1485,1501,1501,1510,1560,1720,1757,1843,1881,1893,1908,1929,2002,2027,2028,2063,2063,2075,2088,2113,2162,2177,2198,2223,2223,2274,2334,2371,2392,2397,2397,2411,2431,2431,2468,2469,2506,2519,2555,2569,2592,2603,2629,2652,2679,2679,2694,2709,2724,2727" d="m320.5,126.9c-1.70001,0 -2.60001,0 -3.5,0c-0.89999,0 -1.80463,0.01494 -2.8215,-0.00017c-0.69955,-0.01039 -1.69891,-0.11281 -2.46783,-0.43583c-0.74878,-0.31454 -1.52692,-1.07924 -2.37732,-1.39734c-0.65054,-0.24333 -1.52594,-0.22311 -2.51868,-0.45066c-0.84116,-0.1928 -1.40942,-0.42114 -2.61465,-0.59451c-0.89487,-0.12872 -1.49997,-0.11617 -2.70001,-0.1215c-0.89551,-0.00398 -1.76401,0 -2.83334,0c-0.70499,0 -1.51859,0.15598 -2.53067,-0.01067c-0.86786,-0.14291 -1.4046,-0.84116 -2.336,-0.98483c-0.8895,-0.13721 -1.79999,-0.0045 -2.69998,-0.0045c-0.89999,0 -1.8573,-0.16369 -2.70001,0.22134c-0.66931,0.3058 -1.5914,0.40789 -2.37915,0.7995c-0.72302,0.35943 -0.75284,1.51331 -0.46368,2.26933c0.34317,0.89728 1.50336,1.045 1.82117,1.93117c0.2562,0.7144 -1.08212,0.69653 -1.97833,0.77882c-0.91144,0.08368 -1.49597,0.69969 -2.384,0.91451c-0.84277,0.20387 -1.88,0.08533 -2.716,0.08533c-0.89999,0 -1.83823,-0.17354 -2.59998,0.08534c-0.88794,0.30177 -1.63913,0.65428 -2.49551,0.91916c-0.76331,0.23608 -2.17325,0.05783 -2.16284,0.9955c0.0051,0.45831 1.51184,-0.55244 2.173,0.08534c0.66382,0.64034 -0.31424,1.5027 -0.68933,2.31467c-0.41013,0.88776 -1.04782,1.57922 -1.54617,2.14166c-0.67755,0.76469 -1.12735,1.47038 -1.5,1.95833c-0.56702,0.74248 -1.35718,1.56186 -1.97916,1.95834c-0.58112,0.37044 -1.62347,0.80698 -2.39999,1.29883c-0.82687,0.52374 -1.39651,1.06068 -1.94284,1.59016c-0.78088,0.75677 -1.09799,1.46672 -1.6825,2.21667c-0.48624,0.6239 -0.57196,1.37383 -1.06,2.15067c-0.46494,0.74005 -1.00336,1.38971 -0.91467,2.28532c0.08374,0.8457 0.75357,1.24812 1.00034,2.09984c0.22415,0.77374 1.26346,0.73048 2.11301,1.1855c0.6976,0.37364 0.88132,1.31462 0.88666,2.21466c0.00534,0.89999 0,1.8 0,2.70001c0,0.89999 0,1.79999 0,2.59999c0,0.90001 0,1.8 0,2.7c0,0.91068 0,1.82133 0,2.67467c0,0.94 0,1.82533 0,2.5825c0,0.89551 -0.00565,1.75885 0,2.722c0.00534,0.91022 0.61066,1.51016 1.5,1.52083c0.88934,0.01068 1.4874,0.52069 1.5,1.40001c0.01291,0.89992 0.33691,1.63126 0.716,2.39999c0.41681,0.84523 0.284,1.8 0.284,2.7l0,0.90001" id="svg_1" stroke-width="2" stroke="#000" fill="none"/>
  <path t="4412,4682,4707,4725,4725,4740,4745,4767,4785,4792,4855,4939,4964,5126,5141,5152,5162,5173,5185,5202,5212,5236,5261,5298,5313,5327,5338,5346,5357,5358,5371,5371,5385,5386,5395,5396,5406,5408,5420,5420,5420,5435" d="m274.5,184.89999c-1,1 -1.74518,1.20761 -2.16666,2c-0.34073,0.64061 -0.90781,1.41026 -1.40802,2.02534c-0.50412,0.61987 -0.61411,1.46643 -1.14133,2.05867c-0.53607,0.60219 -0.82761,1.65721 -1.68399,1.87999c-0.8717,0.22676 -1.88113,-0.10132 -2.54733,0.38867c-0.68423,0.50323 -1.48749,0.40445 -2.34818,0.65182c-0.76788,0.22072 -1.16837,1.12453 -1.75717,1.64284c-0.65057,0.57266 -1.48383,0.7932 -2.24283,1.3c-0.74466,0.49722 -1.33737,1.03691 -2.10449,1.478c-0.72311,0.41577 -1.50983,0.59917 -2.42534,1.01067c-0.71266,0.32033 -1.39975,0.89371 -2.05867,1.364c-0.74944,0.53491 -1.52969,0.88216 -2.51466,1.40134c-0.58618,0.30898 -1.43466,0.96533 -1.95467,1.62401l-0.36,0.69066l-0.28667,0.96317" id="svg_2" stroke-width="2" stroke="#000" fill="none"/>
  <path t="6380,6883,6896,6913,6927,6932,6955,6980,7004,7004,7018,7029,7054,7069,7085,7085,7128,7152,7189,7202,7238,7275,7275,7288,7338,7362,7387,7407,7412,7435,7435,7451,7451,7460,7460,7471,7471,7485,7485,7485,7501,7502,7508,7508,7545" d="m246.5,206.89999c-1.2215,0.87851 -2.37901,0.60832 -2.91467,1.28534c-0.50816,0.64226 -0.52992,1.45386 -1.03265,2.07184c-0.57227,0.70346 -1.08357,1.39481 -1.75267,1.6955c-0.82913,0.3726 -1.08528,1.39604 -1.73601,1.922c-0.73346,0.59282 -1.55446,0.91458 -2.364,1.024c-0.89377,0.1208 -1.62257,0.68683 -2.5,0.94417c-0.86417,0.25345 -1.48558,0.49911 -1.98534,1.25583c-0.40215,0.60892 -1.2003,0.98657 -1.88133,1.63467c-0.63342,0.6028 -1.23497,0.87909 -2.12883,1.17116c-0.76486,0.24991 -0.89441,1.33495 -1.59117,1.71017c-0.86913,0.46806 -1.75511,0.38235 -2.51199,0.85333c-0.81599,0.50777 -1.453,1.06294 -2.22667,1.48267c-0.88275,0.4789 -1.37679,0.99292 -1.976,1.46666c-0.96547,0.76329 -1.56267,1.07201 -2.37717,1.58267l-0.717,0.60001l-0.60001,0.59999" id="svg_3" stroke-width="2" stroke="#000" fill="none"/>
  <path t="8199,8357,8374,8374,8389,8389,8389,8395,8396,8396,8396,8405,8405,8405,8418,8442,8493,8493,8506,8523,8523,8555,8574,8591,8591,8616,8628,8629,8664,8701,8701,8714,8715,8715,8715,8728,8728,8743,8743,8756,8774,8787,8811,8812,8836,8851,8860,8873,8873,8897,8910,8910,8922,8922,8933,8934,8950,8951,8951,8959,8959,8971,8971,8971,8984,9001,9001,9008,9020,9020,9034,9046,9082,9094,9132,9169,9191,9253,9624,9647,9658,9684,9696,9709,9709,9709,9721,9721,9721,9734,9734,9750,9751,9770,9770,9770,9784,9784,9795,9807,9807,9819,9819,9834,9834,9834,9845,9845,9845,9856,9856,9868,9868,9868,9869,9884,9884,9894,9894,9894,9905,9906,9906,9917,9917,9935,9935,9935,9942,9942,9954,9955,9955,9967,9967,9984,9984,9984,9991,9991,10003,10004,10004,10017,10017,10018,10028,10028,10028,10040,10041,10041,10041,10053,10053,10068,10068,10068,10078,10078,10089,10089,10102,10102,10119,10119,10127,10127,10139,10139,10152,10153,10169,10169,10175,10188,10188,10201,10218,10218,10225,10236,10237,10251,10251,10262,10262,10274,10274,10286,10287,10302,10302,10312,10312,10312,10323,10324,10335,10351,10360,10361,10373,10384,10402,10410,10410,10421,10435,10435,10451,10451,10459,10459,10459,10459,10470,10470,10470,10485,10485,10485,10501,10501,10501,10507,10507,10519,10520,10520,10535,10535,10545,10545,10557,10557,10569,10569,10584,10594,10594,10606,10630,10631,10643,10644,10655,10655,10667,10667,10668,10684,10693,10729" d="m215.5,230.89999c-1.82533,0.01068 -2.88319,0.08932 -3.5,0.54167c-0.73691,0.54042 -1.3568,1.27962 -1.84734,1.92c-0.52071,0.67976 -0.89395,1.4938 -1.278,2.313c-0.25467,0.54323 -0.83507,1.55827 -1.37466,2.18367c-0.49504,0.57376 -1.54567,1.30101 -1.87849,2.14166c-0.3343,0.84439 -0.02107,1.71042 -0.1575,2.536c-0.14406,0.8717 -0.72629,1.68129 -0.90685,2.60684c-0.16449,0.84317 0.00674,1.75972 -0.05716,2.55716c-0.0836,1.04335 -0.89877,1.52266 -0.97917,2.22084c-0.12515,1.08687 -0.24335,1.94962 -0.52083,2.54166c-0.42226,0.90096 -0.45465,1.79945 -0.47917,2.45834c-0.03766,1.01198 -0.02083,1.936 -0.02083,2.91666c0,0.89584 -0.05621,1.75851 -0.5,2.5625c-0.44189,0.80054 -0.34648,1.74847 -0.66667,2.5c-0.33284,0.78119 -0.77446,1.53027 -1.25867,2.39999c-0.40562,0.72858 -0.40318,1.63754 -0.65999,2.40002c-0.26881,0.79813 -1.01202,1.52289 -1.41467,2.19998c-0.49673,0.8353 -1.08485,1.45654 -1.37883,2.3215c-0.29208,0.85941 -0.40224,1.71606 -0.9825,2.46783c-0.45189,0.58545 -1.2547,1.32663 -1.76401,1.836c-0.69588,0.69598 -1.39923,1.33823 -1.80533,1.89069c-0.58875,0.80093 -1.16991,1.64035 -1.71867,2.08398c-0.79262,0.64078 -0.95369,1.63864 -1.65199,2.11465c-0.74933,0.51077 -1.26924,1.04898 -2.19867,1.28534c-0.82362,0.20944 -1.23772,0.79272 -2.09984,1.00018c-0.84012,0.20218 -1.87054,0.67999 -1.85849,1.49982c0.01103,0.7504 1.45833,0.50223 2.35832,0.5c0.90903,-0.00226 1.93431,-0.16312 2.60983,-0.35266c0.77666,-0.21793 1.81923,-0.51321 2.533,-0.59018c0.84937,-0.09158 1.86382,0.02237 2.62117,-0.09314c0.97319,-0.14844 1.58456,-0.72986 2.32133,-1.448c0.53255,-0.51907 1.09448,-1.06226 2.10567,-1.75885c0.52629,-0.36255 1.20525,-1.10287 1.63049,-1.85733c0.40039,-0.71039 0.93118,-1.41696 1.41451,-2.07449c0.62576,-0.85135 1.39658,-1.30814 1.96533,-1.70935c0.81625,-0.57581 1.37756,-1.1416 1.99867,-1.63199c0.97314,-0.76831 1.62582,-1.09717 2.56667,-1.48401c0.77809,-0.31992 1.61172,-0.59021 2.14932,-0.79999c1.23578,-0.48218 1.89992,-0.79745 2.68401,-1.36667c0.62257,-0.45197 1.12836,-1.1066 2.2,-1.59067c0.76189,-0.34415 1.45074,-0.32602 2.40001,-0.95251c0.63895,-0.42169 1.38333,-1.14902 2,-1.53299c0.78029,-0.48584 1.63412,-0.79919 2.37917,-1.27798c0.90086,-0.57892 1.36101,-1.3313 1.7735,-1.82651c0.67902,-0.81519 1.45799,-1.242 2.24733,-1.65268c0.78934,-0.41064 1.56192,-0.84134 2.116,-1.48398c0.56038,-0.64996 1.15904,-1.57303 1.92567,-1.97433c0.61447,-0.32166 1.64345,-0.45981 2.47916,-0.54169c0.88029,-0.08624 1.78473,-0.1994 2.67917,-0.436c0.60413,-0.15982 1.80061,-0.56219 2.39867,-0.76398c0.88141,-0.29736 1.72005,-0.59 2.716,-0.99869c0.66728,-0.2738 1.679,-0.68228 2.48534,-0.76532c0.79654,-0.08202 1.8067,0.02281 2.59999,-0.09317c1.01363,-0.14821 1.80157,-0.4958 2.57851,-1.04283c0.64545,-0.45445 1.27025,-1.06146 1.8215,-1.78534c0.55637,-0.73059 0.89949,-1.52084 1.68266,-2.23067c0.46507,-0.42152 1.29955,-1.19763 1.49651,-1.884c0.27805,-0.96893 0.62611,-1.59459 1.32083,-2.29999c0.69464,-0.70532 1.27977,-1.30608 2.09999,-1.67467c0.78281,-0.35178 1.33148,-0.90549 2.10001,-1.5045c0.65201,-0.50821 1.47095,-0.50052 2.50534,-0.52533c0.74445,-0.01785 1.90848,-0.12636 2.57333,-0.60617c0.69525,-0.50174 1.21643,-1.11153 2.18933,-1.30533c0.7226,-0.14394 1.97141,-0.11914 2.56,-0.53067c0.80716,-0.56435 0.98764,-1.48181 1.64267,-1.98401c0.70697,-0.54202 1.85028,-0.31149 2.66501,-0.79066c0.75897,-0.44637 1.57825,-0.89648 2.00714,-1.48317c0.55521,-0.75946 1.13303,-1.00896 1.95718,-1.36749c0.8656,-0.37656 0.97781,-1.39114 1.81067,-1.86667c0.828,-0.47276 1.75015,-0.45659 2.34683,-1.38283c0.40469,-0.6282 0.72272,-1.69682 1.09583,-2.07983c0.63547,-0.65234 1.23694,-0.98189 2.00385,-2.01984c0.55154,-0.74649 0.64746,-1.3925 1.30948,-2.2455c0.58154,-0.74928 1.26535,-1.04517 2.03317,-1.65483c0.61279,-0.48656 1.20074,-1.0408 1.91483,-2.07851c0.39798,-0.57835 0.86414,-1.61134 1.18985,-2.1955c0.42551,-0.76312 1.2092,-1.48343 1.67465,-1.90451c0.83893,-0.75899 0.85693,-1.54701 1.24234,-2.47865c0.28851,-0.69742 1.02261,-1.48315 1.3425,-2.196c0.41077,-0.91534 0.436,-1.82535 0.436,-2.62534c0,-0.836 0,-1.85718 0,-2.60451c0,-0.9955 0,-1.7955 0,-2.7955c0,-0.8 0,-1.8 0,-2.58932c0,-0.72534 0,-1.8 0,-2.71068l0,-0.89999" id="svg_4" stroke-width="2" stroke="#000" fill="none"/>
  <path t="12001,12487,12487,12524,12529,12549,12598,12610,12660,12820,13055,13055,13074,13074,13091,13113,13113,13113,13138,13138,13175,13199,13199,13226,13236,13274,13286,13301,13301,13311,13322,13335,13335,13351,13352,13360,13360,13360,13372,13372,13372,13384,13384,13384,13401,13402,13402,13408,13409,13420,13435,13450,13458,13458,13474,13490,13495,13507,13519,13534,13544,13568,13583" d="m203.5,246.89999c-1,1.16667 -1.53796,1.74387 -2.39999,1.964c-0.95964,0.24507 -1.65381,0.4826 -2.17467,1.06134c-0.57408,0.63786 -1.42751,0.48206 -2.14,1.06c-0.74411,0.60359 -0.2458,1.6729 -0.28984,2.56734c-0.04263,0.86606 -0.53967,1.68994 -0.82883,2.68066c-0.19077,0.65359 -0.10649,1.41757 -0.16684,2.5235c-0.04683,0.85812 -0.78465,1.40613 -1.1665,2.14316c-0.39064,0.75397 -0.92282,1.39182 -1.48067,2.05267c-0.49512,0.58655 -0.89445,1.42761 -1.55133,2.14734c-0.53348,0.5845 -0.79227,1.41812 -1.22667,2.19998c-0.4567,0.82199 -0.68686,1.52933 -1.289,2.25269c-0.46555,0.55927 -1.48981,1.3201 -2.08566,1.73267c-0.60426,0.4184 -1.40959,1.14929 -2,1.86533c-0.40668,0.49323 -1.1796,1.44019 -1.7955,1.93951c-0.55112,0.44684 -1.42519,1.10297 -1.88367,1.83066c-0.35323,0.56061 -0.72464,1.63525 -1.22083,2.26483c-0.58774,0.74576 -1.18291,1.30038 -1.65717,2.01434c-0.52585,0.79163 -1.29535,1.17587 -2.03217,1.67465c-0.66707,0.45157 -1.24149,1.08789 -1.69467,1.82666c-0.42166,0.68738 -1.216,1.14151 -2.11467,1.20001l-0.74866,0.35583l-0.33667,0.84283" id="svg_5" stroke-width="2" stroke="#000" fill="none"/>
  <path t="14051,14221,14234,14258,14258,14282,14282,14307,14322,14368,14392,14417,14441,14441,14444,14444,14457,14479,14479,14493,14493,14506,14522,14528,14539,14550,14568,14577,14588,14613,14613,14637,14637,14811,14826,14841,14841,14857,14857,14861,14861,14871,14908,14946,14959,14982,15008,15008,15057,15072,15090,15090,15093,15129,15167,15191,15326,15350,15351,15375,15387,15387,15401,15418,15436,15498,15516,15534,15534,15585,15733,15758,15772,15772,15773,15786,15786,15786,15786,15794,15794,15794,15794,15805,15805,15819,15820,15836,15836,15843,15843,15853,15869,15885,15891,15904,15904,15919,15936,15936,15941,15952" d="m170.5,288.89999c-1.83333,0.16669 -2.22876,0.83435 -3.10001,1.00034c-0.7077,0.13483 -1.2757,0.87643 -1.7,1.517c-0.56825,0.85788 -1.49132,1.26892 -2.14732,1.83533c-0.59241,0.51151 -1.41406,0.50168 -2.25401,0.93268c-0.61938,0.31781 -1.42911,1.05869 -2.146,1.35751c-0.87697,0.36557 -1.82069,0.52042 -2.478,0.7825c-1.0101,0.40274 -1.66136,0.75974 -2.25867,1.29065c-0.6026,0.53561 -1.52434,0.87314 -1.89067,1.68399c-0.35315,0.78165 -0.50197,1.85938 -1.192,2.43335c-0.65335,0.54346 -1.67035,0.49911 -1.83333,1.1875c-0.22646,0.95648 -1.21513,1.66031 -0.95334,2.54315c0.21518,0.72562 1.45773,0.68115 2.12801,1.04669c0.9744,0.5314 1.55476,1.1123 2.478,1.33664c0.68275,0.16589 1.63338,0.64047 2.44734,0.93118c0.85526,0.30545 2.09436,0.44974 1.61465,1.03751c-0.55003,0.67392 -2.00977,0.93256 -1.653,1.72684c0.32117,0.71503 1.591,0.35715 2.45435,0.35715c0.96317,0 1.88399,0 2.784,0c0.89999,0 1.8,0 2.7,0c0.8,0 1.636,0 2.65266,0c0.69467,0 1.71133,0 2.64734,0c0.89999,0 1.99785,-0.31909 2.616,0.28534c0.62206,0.60825 0.88255,1.37097 1.07333,2.31467c0.17433,0.8623 0.573,1.38959 1.55367,1.39999c0.72896,0.00772 1.56602,0.00836 2.75717,-0.00034c0.60437,-0.00443 1.54196,-0.03738 2.18517,-0.17032c1.04861,-0.21674 2.12024,-0.67636 2.81734,-0.97867c0.64412,-0.27933 1.67929,-0.59286 2.44099,-0.95599c0.78868,-0.37601 1.43365,-1.07733 2.08966,-1.728c0.64848,-0.64319 1.26439,-1.26898 1.86667,-1.86667c0.69736,-0.69202 1.53236,-0.98148 2.216,-1.58401c0.59764,-0.52673 1.30354,-0.97943 1.884,-1.51733c0.72543,-0.67224 1.3,-1.29868 1.89999,-1.89865l0.7,-0.68933l0.70001,-0.48935" id="svg_6" stroke-width="2" stroke="#000" fill="none"/>
  <path t="16987,17219,17233,17233,17244,17245,17256,17268,17268,17285,17294,17294,17318,17343,17367,17380,17393,17403,17417,17417,17428,17428,17439,17440,17452,17452,17467,17467,17477,17478,17489,17514,17527,17539,17556,17571,17576,17576,17588,17588,17600,17600,17617,17624,17624,17636,17636,17661,17661" d="m197.5,302.89999c1.75717,0 2.65717,0 3.4045,0c0.99417,0 1.93834,0 2.83833,0c0.85735,0 1.6425,0 2.5825,0c1.008,0 1.87016,0 2.77467,0c0.89999,0 1.79999,0 2.7,0c0.89999,0 1.8,0 2.7,0c0.75717,0 1.65717,0 2.4045,0c0.9955,0 1.7955,0 2.7955,0c0.8,0 1.8,0 2.58934,0c1.04399,0 1.90616,0 2.81067,0c0.89999,0 1.79999,0 2.7,0c0.89999,0 1.8,0 2.7,0c0.75717,0 1.65717,0 2.4045,0c0.99417,0 1.93834,0 2.84283,0c0.91934,0 1.75267,0 2.73134,0l0.774,0l0.89999,0l0.86334,0" id="svg_7" stroke-width="2" stroke="#000" fill="none"/>
  <path t="18548,18708,18708,18708,18722,18723,18723,18723,18738,18739,18739,18739,18744,18744,18755,18755,18756,18769,18769,18783,18793,18804,18804,18817,18817,18817,18833,18833,18841,18842,18854,18854,18854,18854,18867,18867,18883,18883,18891,18891,18902,18918,18927,18927,18952,18977,18989,19001,19018,19018,19027,19027,19027,19038,19039,19050,19050,19068,19068,19068,19075,19075,19087,19087,19099,19100,19100,19116,19124,19136,19136,19150,19150,19161,19161,19173,19173,19186,19186,19200,19200,19200,19210,19211,19223,19223,19235,19250,19250,19260,19271,19283" d="m242.5,302.89999c2.68666,1.20001 3.53912,1.50806 4.16167,1.70001c1.35435,0.4176 2.091,0.60001 2.83833,0.79999c0.74733,0.20001 1.83376,0.49854 2.51334,0.69867c0.9456,0.27847 1.51167,0.51672 2.80133,0.716c0.65981,0.10196 1.68533,0.08533 2.48532,0.08533c0.80002,0 1.7955,0 2.71469,0c0.96448,0 1.78983,0 2.80682,0c0.69934,0 1.6785,0 2.47849,0c0.80002,0 1.8067,0.05859 2.60001,-0.05716c1.01624,-0.14828 1.82904,-0.57059 2.76666,-0.94284c0.78046,-0.30984 1.32288,-0.51901 2.14935,-0.71466c1.21432,-0.28745 1.87344,-0.26669 2.88382,-0.28549c0.77948,-0.0145 1.82452,-0.15939 2.49567,-0.70435c0.7627,-0.61932 1.39838,-1.23462 2.3045,-1.2955c0.79819,-0.05365 1.70001,0 2.60001,0c0.89999,0 1.81076,0.01337 2.7215,-0.00015c0.69955,-0.01038 1.68326,-0.15222 2.47849,-0.42517c0.80508,-0.27631 1.80603,-0.48358 2.60001,-0.62735c1.00998,-0.18289 1.5766,-0.5282 2.60001,-0.78064c0.78702,-0.19412 1.60062,-0.13541 2.60001,-0.17117c0.80121,-0.02869 1.81128,-0.25433 2.60001,-0.60617c0.81253,-0.36243 1.56918,-0.82794 2.31467,-1.104c0.94321,-0.34927 1.79245,-0.6348 2.48532,-1.28534c0.52634,-0.4942 1.32291,-1.09735 2,-1.5c0.8353,-0.49673 1.45193,-1.09875 2.32132,-1.37866c0.82419,-0.26535 1.76172,-0.47998 2.48853,-0.76868c0.92603,-0.36783 1.71585,-0.31516 2.50748,-0.43665c1.00439,-0.15411 1.86539,-0.48019 2.66116,-1.01584c0.63644,-0.42841 1.54257,-0.87231 2.34268,-0.90033c0.81778,-0.02866 1.65799,-0.49985 2.25351,-1.02518l0.42084,-0.67917" id="svg_8" stroke-width="2" stroke="#000" fill="none"/>
  <path t="19990,20159,20160,20160,20173,20173,20173,20174,20189,20189,20190,20190,20196,20196,20196,20196,20196,20209,20209,20209,20209,20218,20218,20218,20233,20233,20243,20243,20255,20279,20279,20291,20316,20503,20611,20647,20661,20770,20797,20823,20836,20837,20850,20857,20857,20869,20869,20883,20883,20895,20895,20906,20906,20907,20918,20943,20944,20955,20980,20980,21006,21066,21084,21092,21092,21128,21140,21164,21178,21240,21254,21272,21277,21290,21300,21317,21424,21461,21474,21475,21488,21488,21505,21506,21506,21508,21508,21521,21521,21522,21533,21549,21550,21550,21558,21570,21570,21570,21583,21583,21600,21600,21600,21607,21608,21608,21619,21619,21619,21656" d="m320.5,288.89999c2.60449,-1.65717 3.00903,-2.03461 3.68533,-2.60132c0.98062,-0.82172 1.54822,-1.19894 2.05334,-1.67068c0.51196,-0.47812 1.32108,-1.68796 1.58932,-2.41064c0.28333,-0.76334 0.47388,-1.60431 0.672,-2.48401c0.20605,-0.91495 0.40582,-1.84918 0.52084,-2.3125c0.22678,-0.91342 0.62131,-2.19818 0.96317,-2.94882c0.31882,-0.70007 0.70413,-1.30664 1.34933,-2.40533c0.4137,-0.70447 0.80026,-1.33362 1.04532,-2.36652c0.18207,-0.76743 0.21686,-1.888 0.73199,-2.35349c0.73181,-0.66129 1.25061,-1.1759 1.47336,-1.96402c0.24826,-0.87845 0.74911,-1.69415 0.91614,-2.58249c0.14957,-0.79556 1.37885,-1.29184 1.91452,-0.61484c0.50818,0.64227 0.36826,1.76486 1.28534,1.71335c0.81561,-0.04581 1.50113,-0.70206 2.09998,-1.29868c0.70132,-0.6987 1.38776,-1.29486 1.61469,-2.18399c0.17178,-0.67313 0.08533,-1.76785 0.08533,-2.48535c0,-1.0405 0,-1.81601 0,-2.864c0,-0.705 0,-1.67999 0,-2.54134c0,-0.94666 0,-1.79999 0,-2.73999c0,-0.88535 -0.05426,-1.68697 0,-2.58534c0.05725,-0.948 0.9003,-1.43105 1.83334,-1.13333c0.81839,0.26114 1.60577,0.57295 2.46216,0.83783c0.76331,0.23608 1.28,1.28827 2.09384,0.98483c0.79648,-0.29697 1.42874,-0.98361 1.60931,-1.79066c0.19623,-0.87698 -0.00137,-1.8187 0.42667,-2.59866c0.45096,-0.82173 0.94247,-1.35161 1.6745,-1.82167c0.64438,-0.41379 0.86746,-1.43875 0.89569,-2.23999c0.03378,-0.95909 0.00449,-1.76367 0.00449,-2.58568c0,-1.03116 0,-1.93182 0,-2.95267c0,-0.78932 0,-1.51466 0,-2.52083c0,-1.02184 0,-1.72983 0,-2.47383c0,-1.1955 0,-2.172 0,-2.84134c0,-0.76532 0,-1.76849 0,-2.62115c0,-0.96434 0,-1.77884 0,-2.64734c0,-1.19533 0,-1.791 0,-2.6595c0,-1.06934 0,-1.98933 0,-2.74933l0,-0.96584" id="svg_9" stroke-width="2" stroke="#000" fill="none"/>
  <path t="22752,23046,23071,23108,23144,23157,23180" d="m353.5,212.89999c-0.16666,-1.83333 -0.87866,-2.22133 -1.35718,-2.94283l-0.84283,-0.05717l-0.89981,-0.00015l-0.81485,-0.28517" id="svg_10" stroke-width="2" stroke="#000" fill="none"/>
  <path t="23464,23711,23859,23874,23888,23905,23918,23934,23934,23943,23943,23954,23954,23967,23967,23967,23984,23984,23992,23992,24004,24004,24017,24034,24041,24041,24041,24053,24067,24067,24078,24078,24101,24165,24251,24272,24276,24276,24276,24290,24291,24291,24306,24307,24312,24435,24457,24461,24461,24461,24474,24475,24483,24558,24559,24656,24673,24673,24690,24695,24695,24710,24720,24720,24741" d="m349.5,207.89999c1.60001,0.57468 3.02216,1.13541 2.95334,0.42534c-0.08115,-0.83717 -1.10074,-1.1925 -1.52802,-2.06133c-0.40341,-0.8203 -0.30722,-1.59065 -0.71066,-2.48001c-0.31488,-0.69417 -1.06033,-1.52513 -1.27866,-2.13066c-0.41238,-1.14384 -0.36432,-1.97408 -0.48868,-2.7435c-0.16992,-1.05125 -0.67041,-1.68332 -1.24731,-2.31433c-0.51712,-0.56564 -0.99503,-1.59282 -1.5,-2.12617c-0.681,-0.71927 -1.58157,-1.04662 -2.36667,-1.56934c-0.6369,-0.42404 -1.32474,-0.8344 -2.33334,-0.97916c-0.97427,-0.13983 -1.74014,0.11928 -2.61465,-0.30617c-0.77048,-0.37483 -1.30423,-1.36565 -2.08536,-1.62933c-0.85623,-0.28903 -1.21661,-0.09229 -0.25714,-0.08517c0.71854,0.00533 1.52567,-0.02559 2.53564,0.22134c0.92194,0.22542 1.51404,0.59242 2.517,1.07399c0.74292,0.3567 1.73633,1.10945 2.60184,0.70317c0.48862,-0.22935 -0.37332,-0.98407 -1.02267,-1.40933c-0.70108,-0.45914 -1.35431,-1.28706 -1.87015,-1.8795c-0.63354,-0.72763 -1.47339,-1.11372 -1.8685,-1.89517c-0.38498,-0.76144 -0.41879,-1.81485 -0.436,-2.61465c-0.01801,-0.83658 -0.30756,-1.67456 -0.57468,-2.37466c-0.4043,-1.0596 -0.42532,-1.992 -0.44617,-2.8045l-0.26315,-0.8515" id="svg_11" stroke-width="2" stroke="#000" fill="none"/>
  <path t="25358,25652,25653,25713,25749,25834,25852,25884,25901,25922,25934,25950,25958,25958,25970,25971,25985,26000,26007,26019" d="m336.5,176.89999c1,-1 1,-1.79999 1,-2.7c0,-0.89999 -0.08948,-1.71736 -0.57468,-2.32533c-0.49838,-0.6245 -0.42532,-1.57466 -0.42532,-2.47467c0,-0.89999 0.11111,-1.84435 -0.284,-2.70132c-0.33875,-0.73468 -0.69684,-1.62337 -0.71466,-2.31467c-0.02481,-0.96284 -0.00134,-1.884 -0.00134,-2.784l0,-0.90001" id="svg_12" stroke-width="2" stroke="#000" fill="none"/>
  <path t="29402,29634,29659,29683,29701,29720,29744,29757,29769,29782,29805,29843,29868,29888,29888,29905,29929,29953,29978,29979,30015,30040,30054,30112,30225,30310,30310,30347,30446,30459,30483,30483,30507,30569,30643,30667,30728,30743,30790,30791,30827,30863,30888,30888,30925,30926,30950,30972,31011,31011,31047,31065,31084,31121,31182,31231,31256,31442,31578,31594,31614,31614,31649,31675,31735,31760,31774,31784,31847,31897,31944,31969,31994,32019,32045,32045,32057,32072,32087,32093,32105,32129,32129,32165,32165" d="m317.5,141.89999c1.79999,0 2.70001,0 3.60001,0c0.89999,0 1.79999,0 2.69998,0c0.90002,0 1.80441,-0.08868 2.70001,0c0.8457,0.08374 1.21524,0.93912 2.10001,1c0.89786,0.06178 1.69998,0 2.60001,0c0.89999,0 1.82083,0 2.784,0c0.69064,0 1.77081,-0.14267 2.61581,0.00017c0.85202,0.14401 1.26819,0.84903 2.20016,1.00433c0.81747,0.13623 1.21045,0.91147 1.75269,1.63834c0.50638,0.67882 0.93689,1.37784 0.94733,2.33566c0.00781,0.71696 0,1.62151 0,2.5215c0,0.90001 0.18246,2.14224 -0.52084,2.47917c-0.79337,0.38008 -1.69464,0.2887 -2.27914,0.82217c-0.7197,0.65689 -1.50351,1.15927 -2.36667,1.19865c-0.83273,0.03801 -1.78287,0.27435 -2.52884,0.64734c-0.77838,0.38919 -1.77069,0.21735 -2.50452,0.638c-0.68655,0.39355 -1.24719,1.23434 -1.74731,2.01016c-0.44998,0.69804 -0.93158,1.41653 -1.66333,1.69383c-0.89255,0.33824 -1.26797,0.85199 -1.91019,1.48984c-0.64328,0.63893 -1.57916,0.52083 -2.47916,0.52083c-0.79999,0 -1.83588,0.1181 -2.47916,-0.52083c-0.64221,-0.63785 -0.90842,-1.49413 -1.54617,-2.05383c-0.5896,-0.51744 -0.77838,-1.26117 -1.03183,-2.12534c-0.25732,-0.87743 -0.91425,-1.59863 -0.94284,-2.5c-0.02853,-0.89954 0,-1.8 0,-2.59999c0,-0.90001 0,-1.8 0,-2.70001c0,-0.89999 0,-1.80449 0,-2.66666l0,-0.83334l0,-0.97849l0,-0.82018" id="svg_13" stroke-width="2" stroke="#000" fill="none"/>
  <path t="34515,34908,35032,35130,35215,35314,35376,35634,35669,35706,35718,35756,35816,35892,35892,35940,36002" d="m336.5,144.89999c1.79999,0 2.70001,0 3.60001,0c0.89999,0 1.79999,-0.00067 2.69998,0c0.89868,0.00067 1.85703,0.29526 1.69867,1.19867c-0.14279,0.81459 -0.89334,1.27693 -1.35132,2.10133c-0.41235,0.74229 -0.646,1.5 -0.73267,2.41467l-0.74802,0.452" id="svg_14" stroke-width="2" stroke="#000" fill="none"/>
  <path t="37219,37415,37428,37441,37441,37455,37471,37477,37490,37490,37624,37648,37673,37687,37709" d="m320.5,126.9c1.83334,0.16666 2.43845,0.69688 2.87866,1.44267c0.36685,0.62154 0.74643,1.37273 1.41684,1.91451c0.73447,0.59352 0.67914,1.64322 0.7045,2.44283c0.02859,0.90137 0.5,1.7 0.91467,2.40001l0.08548,0.89983l0.28384,0.81616" id="svg_15" stroke-width="2" stroke="#000" fill="none"/>
  <path t="39801,40050,40072,40090,40106,40194,40230,40244,40267,40267,40283,40340,40365,40365,40401,40401,40451,40470,40477,40492,40561,40562,40575,40711,40735,41029,41066,41090,41115,41115,41138,41162,41199,41200,41215,41261,41287,41314,41314,41324,41335,41373,41396,41445,41470,41495,41495,41556,41569,41582,41617,41767,41792,41989,42037,42038,42110,42210,42232,42356,42394,42418,42517,42787,42811,43193,43193,43304,43451,43488,43610,43610,43625" d="m305.5,146.89999c-0.05716,-1.7 -0.46042,-2.52359 -0.94733,-3.29549c-0.44312,-0.70244 -0.86221,-1.35092 -1.48868,-2.09384c-0.53168,-0.63049 -1.56485,-0.57349 -2.36398,-0.61067c-0.91766,-0.04271 -1.41586,-0.93912 -2.36667,-1c-0.65735,-0.04208 -1.66669,0 -2.52884,0c-0.90451,0 -1.71075,0.09637 -2.35718,0.64734c-0.6044,0.51517 -0.92026,1.35312 -0.94733,2.15266c-0.02859,0.84428 -0.83334,1.36667 -1,2.2c-0.16666,0.83334 -1.05017,1.28294 -0.99866,2.20001c0.04581,0.8156 0.6441,1.50084 0.99866,2.29999c0.35529,0.80084 0.92841,1.58748 1.60001,2.06401c0.72565,0.51489 1.33292,1.2049 2.04666,1.42532c0.96127,0.29688 1.70065,0.01067 2.71735,0.01067c0.93597,0 1.836,0 2.73599,0c0.89999,0 1.64517,-0.2076 2.06665,-1c0.34073,-0.64059 0.5343,-1.55507 0.84402,-2.38933c0.27234,-0.73361 0.98398,-1.22128 0.98932,-2.11067c0.0054,-0.89998 0.20209,-1.89311 -0.28534,-2.69865c-0.37778,-0.62434 -1.41467,-0.79909 -2.31467,-0.80135c-0.89999,-0.00224 -1.79999,0 -2.69998,0c-0.90002,0 -1.80441,-0.08868 -2.70001,0c-0.8457,0.08374 -1,1 -1,1.8c0,0.90001 0.05716,1.84283 0.716,2.28401l0.45065,0.91599l0.444,0.56401l0.8685,0.43599" id="svg_16" stroke-width="2" stroke="#000" fill="none"/>
  <path t="48493,48662,48676,48676,48693,48693,48711,48711,48713,48714,48721,48735,48748,48760,48760,48783,48798,48814,48814,48821,48821,48833,48833,48848,48848,48857,48858,48858,48870,48870,48882,48897,48898,48907,48956,48968,48968,48993,48993,49006,49017" d="m211.5,269.89999c0.57466,-1.63599 0.89929,-2.48804 1.02533,-3.21066c0.17328,-0.99344 0.44846,-1.79663 0.97467,-2.62265c0.44112,-0.69244 0.7636,-1.51712 1.02533,-2.30536c0.28186,-0.84885 0.85056,-1.45551 1.41068,-2.26132c0.47,-0.67618 1.14423,-1.19232 1.564,-2.10001c0.36697,-0.79352 0.81436,-1.50575 1.05267,-2.25716c0.28638,-0.90298 0.65086,-1.64915 1.42999,-2.35884c0.61398,-0.55927 1.31619,-1.1936 1.49651,-1.90483c0.245,-0.96638 0.44357,-1.78534 0.82216,-2.57916c0.384,-0.80518 0.80034,-1.55089 1.11467,-2.51466c0.28531,-0.8748 0.83948,-1.4243 1.06317,-2.38535c0.20415,-0.87711 0.41388,-1.64357 0.73683,-2.38533c0.38808,-0.89134 0.28267,-1.63066 0.284,-2.70399l0,-0.91068" id="svg_17" stroke-width="2" stroke="#000" fill="none"/>
  <path t="49992,50150,50161,50161,50174,50185,50185,50210,50234,50249,50268,50272,50272,50283,50298,50308,50308,50320,50320,50320,50331,50332,50332,50349,50349,50357,50357,50357,50369,50369,50369,50381,50399,50399,50406,50469,50488,50504" d="m224.5,261.89999c3.328,-1.39999 3.99966,-2.00034 4.60001,-2.60001c0.59966,-0.599 1.52116,-1.01352 2.11465,-1.48398c0.73856,-0.58545 1.03633,-1.36325 1.72134,-1.89067c0.65251,-0.50238 1.47896,-1.01274 1.56267,-1.82533c0.09222,-0.89528 -0.03273,-1.73752 0.28532,-2.68533c0.2486,-0.74081 0.6033,-1.71361 0.716,-2.53551c0.09099,-0.66359 0.284,-1.66316 0.5,-2.47917c0.216,-0.81599 0.44681,-1.81392 0.48933,-2.72533c0.04388,-0.94037 -0.01953,-1.72939 0.04666,-2.54933c0.08583,-1.06325 0.33434,-1.75739 0.61134,-2.56367c0.34982,-1.01822 0.73874,-1.80002 1.06866,-2.46165c0.42055,-0.84337 0.284,-1.8 0.284,-2.70001l0.01067,-0.89999" id="svg_18" stroke-width="2" stroke="#000" fill="none"/>
  <path t="51442,51600,51611,51611,51625,51626,51626,51643,51643,51643,51659,51659,51659,51663,51663,51671,51671,51684,51698,51715,51722,51722,51734,51748" d="m248.5,248.89999c1.60001,-0.64665 2.1167,-1.31219 2.5,-2.02083c0.52307,-0.96704 0.85896,-1.56049 1.14284,-2.43633c0.30606,-0.94427 0.27643,-1.78093 0.467,-2.59018c0.24837,-1.0547 0.78018,-1.69075 1.18483,-2.34816c0.59621,-0.96861 0.60541,-1.80652 0.92667,-2.58299c0.31886,-0.77066 0.77025,-1.63928 1.20401,-2.42151c0.45479,-0.82014 0.57466,-1.60001 0.57466,-2.39999l0,-0.90001l0,-0.89999" id="svg_19" stroke-width="2" stroke="#000" fill="none"/>
  <path t="55116,55435,55447,55486,55521,55545,55545,55569,55569,55607,55655,55667,55691,55691,55803,55828,55842,55914,55937,55937,55940,55940,55955,55967,55981,55987,55998,56014,56023,56047,56064,56084,56097,56114,56133,56270,56308,56344,56344,56380,56398,56416,56432,56453,56466,56491,56515,56515,56539,56540,56552,56564,56588,56612,56613,56631,56638,56649,56650,56664,56664,56680,56680,56680,56687,56698,56749,56898,56922,56937,56938,56951,56958,56970,56982,56998,56998,57007,57019,57067,57080,57097,57097,57117,57190,57203,57227,57252,57302,57352,57376,57376,57390,57413,57450,57487,57506,57534,57559,57610,57622,57646,57669,57682,57731,57748,57756,57768,57793,57818,57818,57842,57843,57892,57917,57937,57954,57977,58027,58039,58053,58054,58065,58083,58089,58100,58101,58409,58445,58445,58459,58459,58460,58475,58491,58491,58495,58496,58512,58530,58547,58555,58567,58580,58597,58597,58604,58629,58667,58692,58720,58721,58752,58753,58777,58790,58804,58819,58838,58863,58863,59073,59089,59098,59120,59145,59183,59220,59244,59257,59318,59318,59341,59355,59356,59367,59381,59404,59428,59440,59465,59502,59503,59551,59575,59822,59838,59872,59887,59908,59920,59932,59951,59968,59981,59997,60010,60030,60048,60079,60098,60128,60128,60240,60263,60290,60313,60325,60338,60350,60364,60364,60375,60375,60387,60387,60398,60398,60415,60416,60424,60424,60460,60622,60638,60653,60653,60657,60658,60670,60670,60682,60683,60697,60697,60706,60729,60730,60767,60793,60793,60817,60841,60842,60854,60855,60865,60882,60902,60915,60915,60952,61027,61052,61074,61310,61323,61345,61367,61369,61383,61384,61400,61407,61419,61431,61447,61447,61456,61481,61554,61579,61604,61616,61616,61641,61653,61665,61680,61701,61701,61789" d="m253.5,293.89999c1.22133,0.87866 1.97141,1.35571 2,2.20001c0.03047,0.89948 0,1.79999 0,2.55716c0,0.89551 -0.17331,1.77838 0.02083,2.72202c0.17841,0.86722 0.91829,1.61469 0.97917,2.52081c0.05362,0.79822 0.01041,1.70007 0,2.60001c-0.01044,0.90018 -0.4856,1.64282 -0.83333,2.56668c-0.2373,0.63046 -0.35126,1.65726 -0.74133,2.42267c-0.40833,0.80124 -0.35448,1.75909 -0.85068,2.38531c-0.52696,0.66507 -1.35539,1.0289 -1.57333,1.82666c-0.24178,0.88501 -0.93309,0.80573 -1.71599,1.284c-0.80327,0.49069 -1.38972,0.82599 -2.28534,0.91467c-0.8457,0.08374 -1.21523,0.93912 -2.10001,1c-0.89787,0.0618 -1.7,0 -2.59999,0c-0.90001,0 -1.8,0 -2.7,0c-0.90001,0 -1.8,0 -2.70001,0c-0.89999,0 -1.65823,-0.03952 -2.55266,0.00452c-0.86607,0.04263 -1.71159,0.42041 -2.54601,0.9115c-0.74889,0.44077 -1.16873,1.23199 -1.51733,1.884c-0.45306,0.84738 -0.96089,1.62589 -1.22684,2.509c-0.19147,0.6358 -0.05716,1.70081 -0.05716,2.47632c0,1.048 0,1.96799 0,2.728c0,0.96585 0,1.88666 0,2.78668c0,0.89731 0,1.04266 0,0.216c0,-0.86334 -0.00008,-1.88 0,-2.716c0.00009,-0.89984 0.36165,-1.56128 1.09984,-2.02151c0.71715,-0.44711 1.05867,-1.29343 1.61617,-1.86249c0.65904,-0.6727 1.06956,-1.35794 1.56934,-2.11469c0.40215,-0.60892 1.16542,-1.13138 1.88133,-1.63464c0.69524,-0.48874 1.44049,-0.64984 2.11867,-1.08136c0.77504,-0.49316 1.81467,-0.08533 2.71466,-0.08533c0.8,0 1.7,0 2.60001,0c0.89999,0 1.79999,0 2.7,0c0.89999,0 1.80438,-0.08868 2.7,0c0.8457,0.08374 1.54666,0.67035 1.94284,1.35718c0.46985,0.81454 0.72769,1.44968 1.03633,2.16367c0.34894,0.80719 0.02083,1.77917 0.02083,2.68051c0,0.96533 0,1.62399 0,2.63199c0,0.86215 0.34308,1.84525 -0.02083,2.64584c-0.35146,0.77322 -0.5443,1.36227 -1.03633,2.16367c-0.45265,0.73724 -1.4028,0.92203 -2.14418,1.55582c-0.65125,0.55673 -1.58803,0.40604 -2.46533,0.96802c-0.70171,0.44949 -1.2868,1.07602 -2.03333,1.48065c-0.7876,0.42691 -0.19312,0.40768 0.51433,0.2955c0.96849,-0.15356 1.70253,-0.42307 2.41766,-0.74417c0.97986,-0.43997 1.75534,-1.11069 2.52518,-1.19415c0.89029,-0.09653 1.83934,0.35635 2.70116,-0.02533c0.78961,-0.3497 1.383,-0.85779 2.02084,-1.5c0.63895,-0.64331 0.3571,-1.73648 0.74216,-2.57919c0.3058,-0.66928 0.77333,-1.49994 0.77867,-2.39999c0.00534,-0.89996 0,-1.8045 0,-2.66666c0,-0.83334 0.02597,-1.81223 0,-2.63199c-0.02859,-0.90268 -0.48062,-1.71255 -0.94733,-2.49686c-0.39374,-0.66168 -1.17998,-1.11334 -2.05267,-1.53781c-0.65967,-0.32086 -1.6786,-0.87354 -1.19733,-1.16534c0.7673,-0.46524 1.79733,-0.00134 2.69733,-0.00134c0.89999,0 1.79999,0 2.70001,0c0.89999,0 1.97794,-0.33112 2.51465,0.17068c0.65036,0.60806 0.28534,1.80783 0.28534,2.62799c0,0.90134 0,1.80133 0,2.70132c0,0.89999 0.09085,1.80475 -0.00134,2.70001c-0.08368,0.81259 -0.80151,1.45544 -0.98798,2.39999c-0.155,0.78513 -0.94913,1.80652 -0.5387,2.36401c0.5506,0.74789 2.09503,0.28955 2.492,-0.40002c0.42929,-0.74573 0.71893,-1.38174 1.02533,-2.17465c0.32059,-0.82962 0.01068,-1.78934 0.01068,-2.68933c0,-0.89999 0.08868,-1.80441 0,-2.70001c-0.08374,-0.84567 -0.7489,-1.28394 -1.2215,-2.10001c-0.38602,-0.66653 -1.62363,-1.42676 -1.23685,-1.87915c0.62292,-0.72858 1.85834,-0.02151 2.75833,-0.02084c0.89868,0.00067 1.52966,0.32315 1.92136,1.10019c0.35245,0.69919 0.74564,1.55566 0.77417,2.30432c0.03793,0.99478 -0.03885,1.81354 0.22583,2.79532c0.21545,0.79913 0.61862,1.78857 0.83133,2.55286c0.25436,0.91394 0.71213,1.56412 0.89017,2.49014c0.18079,0.9404 0.63135,1.86063 0.97183,1.18652c0.37973,-0.75177 0.08533,-1.82935 0.08533,-2.62933c0,-0.99985 0,-1.77917 0,-2.77869c0,-0.77399 0,-1.67398 0,-2.53732c0,-0.98401 0.00061,-1.80533 0,-2.65866c-0.00067,-0.94 -0.12225,-1.86182 -0.7045,-2.52533c-0.55548,-0.633 -1.38885,-1.23785 -2.18085,-1.29868c-0.93726,-0.07199 -1.63071,0.01093 -2.70398,-0.00134c-0.91086,-0.01041 -1.62012,-0.52716 -2.51068,-0.87848c-0.66068,-0.26062 -1.60001,-0.12152 -2.5,-0.12152c-0.89999,0 -1.84711,0.28226 -2.6955,-0.00449c-0.81163,-0.27432 -0.94438,-1.42947 -0.7,-2.29102c0.22052,-0.77737 0.94879,-1.27081 0.991,-2.05634c0.05431,-1.01071 0.0045,-1.94815 0.0045,-2.84814c0,-0.90002 0,-1.80002 0,-2.60001c0,-0.89999 -0.00533,-1.80005 0,-2.70001c0.00534,-0.90005 0.45297,-1.60718 0.83334,-2.5c0.32019,-0.75153 0.16666,-1.69998 0.16666,-2.60001c0,-0.89999 0,-1.81064 0,-2.72131l0,-0.67868l0,-1.11465" id="svg_20" stroke-width="2" stroke="#000" fill="none"/>
  <path t="62933,63141,63153,63202,63219,63239,63263,63282,63299,63299,63362,63386,63386,63390,63405,63435,63435,63447,63599,63631,63817,63836,63854,63877,63902,63913,63951,63951,64000,64025,64050,64064,64081,64087,64123,64173,64185,64196,64214,64221,64246,64263,64283,64320,64369,64384,64407,64407,64554,64555,64569,64570,64587,64587,64592,64592,64653,64677,64714,64738,64750,64764,64799,64851,64874,64886,64897,64922,64922,64946,64965,65059,65059,65231,65253,65253,65278,65303,65303,65315,65315,65332,65341,65353,65365,65381,65381,65414,65431,65439,65450,65474,65488,65513,65513,65575,65636,65651,65845,65870,65871,65894,65895,65907,65908,65921,65921,65943,65956,66019,66041,66042,66070,66085,66086,66103,66115,66140,66151,66151,66175,66264,66386,66403,66435,66453,66467,66472,66472,66483,66483,66499,66499,66513,66514,66520,66570,66595,66607,66607,66643,66779,67014,67025,67039,67039,67054,67055,67069,67075,67089,67089,67089,67110,67123,67159,67184,67202,67220,67234,67234,67257,67258,67271,67282,67332,67356,67369,67455,67663,67687,67687,67713,67737,67738,67749,67774,67786,67798,67812,67823,67835,67860,67872,67884,67896,67922,67958,67971,67982,67997,68032,68070,68094,68131,68156,68157,68697,68708,68723,69054" d="m290.5,296.89999c0.87851,1.2215 0.75574,2.23218 1.284,2.91602c0.48471,0.6275 0.716,1.384 0.716,2.284c0,0.89999 0,1.79999 0,2.60001c0,0.836 0,1.68399 0,2.54733c0,1.01666 0.18347,2.02942 -0.2215,2.7525c-0.41296,0.73734 -1.56683,0.89969 -1.77716,1.70148c-0.21405,0.81595 -0.80267,1.198 -1.70135,1.19867c-0.89999,0.00067 -1.83472,0.05292 -2.59998,-0.35266c-0.84589,-0.4483 -1.70001,-0.64734 -2.5,-0.64734c-0.90002,0 -1.80005,-0.0054 -2.70001,0c-0.8894,0.00534 -1.57758,0.42606 -2.07468,1.02533c-0.5101,0.61496 -0.42532,1.57468 -0.42532,2.47467c0,0.89999 0.0173,1.81134 -0.5,2.5c-0.47,0.62567 -0.5,1.5 -0.5,2.39999c0,0.90002 0,1.80002 0,2.70001c0,0.89999 -0.54398,2.24399 0,2.24399c0.75748,0 0,-1.74399 0,-2.54398c0,-0.99985 0,-1.77917 0,-2.7785c0,-0.82016 -0.18375,-1.74799 0.03601,-2.62152c0.21704,-0.86279 0.72571,-1.70181 1.24799,-2.31598c0.55594,-0.65375 1.23666,-1.07358 2.116,-1.08401c0.89993,-0.01068 1.80002,0 2.70001,0c0.89999,0 1.6601,0.06802 2.54816,-0.00449c1.02789,-0.08392 1.50452,-0.91043 2.23849,-0.99417c0.93265,-0.10638 2.10458,-0.3793 2.75168,0.11301c0.64853,0.49341 0.36166,1.71899 0.36166,2.51099c0,1.02734 0,1.72202 0,2.73868c0,0.936 0,1.836 0,2.73599c0,0.89999 0.01874,1.7002 0,2.60001c-0.01801,0.86453 -0.703,1.35532 -1.5,1.79999c-0.79849,0.4455 -1.70166,0.44565 -2.60001,0.50018c-0.70386,0.04272 -1.56537,0.46564 -2.28934,0.97449c-0.71533,0.50281 -1.23999,1.02533 -0.40799,1.02533c0.76801,0 1.80603,0.04141 2.54666,-0.03598c1.117,-0.11673 1.83719,-0.5665 2.45068,-1.164c0.60785,-0.59201 1.45099,-1.2189 1.71466,-2c0.28915,-0.85657 0.06146,-1.80038 0.08533,-2.60001c0.02859,-0.95847 0.38153,-1.84109 0.64734,-2.54733c0.33215,-0.88257 0.35266,-1.85266 0.35266,-2.75269c0,-0.89999 0,-1.69998 0,-2.59998c0,-0.90002 -0.14182,-2.17273 0.61066,-2.25336c0.86563,-0.09277 1.2644,1.15799 1.3895,2.05334c0.12665,0.90646 0.66229,1.50235 1.19852,2.384c0.40601,0.66757 0.73398,1.48911 0.79999,2.39999c0.06805,0.93896 0.03177,1.65756 0.50134,2.59518c0.37238,0.74356 0.5,1.62082 0.5,2.52081c0,0.80002 0.39441,1.81323 -0.05716,2.64285c-0.27948,0.51346 0.37097,0.01474 1.05716,-0.64285c0.51053,-0.48926 1.2027,-1.1973 1.79999,-1.79999c0.59204,-0.59738 1.0585,-1.41812 1.36667,-2.36667c0.21866,-0.673 0.25458,-1.48843 0.85867,-2.38666c0.44516,-0.6619 0.99197,-1.24817 0.97467,-2.14667c-0.01733,-0.90057 -0.46979,-1.68661 -1,-2.46667c-0.4281,-0.62979 -0.95117,-1.63873 -1.70001,-1.82434c-0.83975,-0.20813 -1.34396,-0.86325 -2.10132,-1.00766c-0.88278,-0.16833 -1.79868,-0.00134 -2.69867,-0.00134c-0.95834,0 -0.5,0 0.29999,0c0.836,0 1.85269,0 2.54733,0c1.01669,0 1.95267,-0.00009 2.85269,0c0.89981,0.00009 1.61755,0.3605 2.15265,0.94733c0.52734,0.57831 0.40445,1.48749 0.65182,2.34818c0.2207,0.76788 0.98508,1.22516 0.99551,2.10449c0.01068,0.89996 -0.14981,1.81259 0.00015,2.69986c0.14401,0.85202 0.97125,1.25601 0.99985,2.20016c0.02725,0.89957 0,1.79999 0,2.69998c0,0.80002 -0.05716,1.64285 -0.80133,1.99869l-0.89868,0.00131l-0.92932,0" id="svg_21" stroke-width="2" stroke="#000" fill="none"/>
 </g>
 <g display="none">
  <title>muse_image</title>
  <image xlink:href="http://farm1.static.flickr.com/48/133930992_0c84677bf2.jpg" id="muse" height="480" width="628" y="0" x="6"/>
 </g>
 <g display="none">
  <title>bbox</title>
  <rect stroke="#f00" fill="none" stroke-width="3" height="234.97382" width="222.312" y="103.03665" x="132.856" id="bbox"/>
 </g>
</svg>
