<svg width="640" height="480" xmlns="http://www.w3.org/2000/svg" xmlns:svg="http://www.w3.org/2000/svg" xmlns:xlink="http://www.w3.org/1999/xlink">
 <!-- Sketchy ANNOTATION
  ImageNet ID: n01594787_4656
  URL: http://farm3.static.flickr.com/2312/2489835057_e470f5c00e.jpg
  Image Width: 500
  Image Height: 333
  BBox X: 12
  BBox Y: 79
  BBox Width: 406
  BBox Height: 194
  Exposure: 2000ms
  Synset Label: songbird
  Synset ID: n01526521
  Worker Tag: songbird ground
  Sanity Check: 
   Saved
  Comment: 
   {}
  Worker ID: AXD2DZ7U6CK35
  Assignment ID: 3F6KKYWMNB12W1NP5ETSFHSIBULDND
  HIT ID: 38O9DZ0A62N5ZMLNJ6ISS3K7F8S26G
  Work Time: 36s
  Worker Score: 0.5500
 END ANNOTATION -->
 <g display="inline">
  <title>Layer 1</title>
  <path t="0,16,17,17,17,17,17,17,17,17,24,24,24,24,24,24,24,24,24,39,39,39,39,39,39,39,39,56,56,56,56,56,56,72,72,72,72,72,72,72,89,89,89,89,89,89,89,89,106,106,106,106,106,106,106,106,122,122,122,122,122,122,122,122,122,139,139,139,139,139,139,139,139,139,156,156,156,156,156,156,156,156,172,172,172,172,172,172,189,189,189,189,189,189,206,206,206,206,206,206,206,206,222,222,222,222,222,222,222,240,240,240,241,241,241,241,259,259,259,259,259,259,259,259,272,272,272,272,272,272,272,272,273,289,289,289,289,289,289,289,306,306,306,306,322,322,322,322,322,322,339,339,339,339,339,339,356,356,356,356,356,356,357,372,372,372,372,389,389,389,389,389,389,389,406,406,406,406,406,406,406,422,422,422,422,422,422,439,439,439,439,439,439,456,456,456,456,456,472,472,472,472,472,472,472,489,489,489,506,506,506,506,506,522,522,522,522,540,540,540,541,541,556,556,556,556,572,572,572,572,572,589,589,589,589,589,589,589,606,606,606,606,622,622,622,639,640,640,640,656,656,672,672,689,689,706,722,739,756,756,772,773,773,789,789,789,789,806,806,806,822,822,839,839,856,856,872,889,906,906,922,939,959,959,972,972,989,989,989,1008,1008,1008,1022,1022,1039,1039,1039,1056,1056,1056,1072,1072,1072,1072,1091,1091,1091,1106,1106,1106,1106,1106,1124,1124,1124,1124,1141,1141,1141,1158,1158,1158,1173,1174,1174,1191,1208,1208,1208,1224,1224,1224,1241,1241,1241,1258,1258,1258,1258,1258,1274,1274,1274,1291,1291,1291,1291,1308,1308,1324,1324,1324,1354,1355,1355,1361,1361,1372,1372,1391,1391,1391,1427,1427,1432,1440,1440,1440,1456,1456,1474,1474,1474,1489,1489,1489,1508,1508,1524,1524,1524,1541,1541,1558,1558,1558,1573,1590,1591,1610,1610,1626,1654,1676,1676,1693,1710,1726,1743,1743,1760,1760,1776,1776,1793,1793,1810,1826,1826,1843,1843,1860,1860,1876,1876,1876,1889,1910,1910,1911,1926,1926,1942,1943,1959,1959,1974,1974,1974,1993,2007,2007,2026,2026,2043,2060,2076,2076,2093,2110,2126,2143,2160,2176,2176,2193,2210,2210,2222,2222,2243,2243,2260,2276,2276,2276,2293,2310,2310,2326,2327,2343,2360,2376,2376,2393,2416,2444,2617,2636,2660,2676,2676,2696,2712,2728,2745,2745,2762,2774,2774,2790,2806,2806,2806,2822,2905,2924,2940,2941,2957,2974,2974,2989,3006,3006,3022,3022,3039,3056,3056,3057,3076,3093,3093,3106,3106,3126,3126,3142,3160,3161,3176,3176,3176,3193,3210,3210,3226,3226,3243,3243,3258,3258,3258,3276,3276,3277,3291,3310,3310,3326,3326,3343,3343,3360,3376,3391,3391,3420,3443,3460,3460,3749,3770,3777,3789,3789,3806,3822,3822,3839,3839,3856,3857,3872,3872,3889,3906,3906,3922,3922,3923,3939,3939,3956,3956,3957,3972,3972,3989,3989,3990,4006,4006,4006,4007,4022,4022,4039,4040,4040,4056,4056,4072,4072,4072,4095,4095,4111,4111,4111,4126,4127,4127,4143,4143,4143,4143,4160,4161,4161,4161,4173,4173,4173,4189,4189,4189,4190,4226,4226,4227,4243,4244,4244,4244,4244,4260,4260,4261,4261,4261,4276,4276,4277,4293,4293,4294,4310,4310,4310,4311,4326,4326,4326,4327,4343,4343,4343,4343,4360,4360,4361,4361,4377,4378,4378,4378,4378,4379,4379,4394,4394,4394,4395,4408,4408,4409,4409,4409,4427,4427,4427,4428,4428,4443,4443,4443,4444,4444,4459,4459,4460,4460,4476,4477,4477,4477,4477,4493,4494,4494,4494,4494,4495,4495,4495,4509,4509,4510,4510,4510,4511,4511,4526,4526,4527,4527,4543,4544,4544,4544,4545,4559,4559,4560,4560,4560" d="m82,258c28.66666,-6.33333 30.76913,-6.81096 32.68134,-7.256c1.7354,-0.40388 3.3033,-0.77606 4.7145,-1.119c1.2674,-0.308 2.40056,-0.58917 3.4095,-0.849c1.69618,-0.43681 2.40141,-0.63194 3.02666,-0.804c0.55372,-0.15237 1.04362,-0.2907 1.4805,-0.4095c0.39117,-0.10638 0.74557,-0.20258 1.0755,-0.27451c0.60959,-0.1329 0.91222,-0.16913 1.216,-0.20532c0.30922,-0.03685 0.62817,-0.06639 0.9585,-0.1035c0.3457,-0.03883 1.10184,-0.1113 2.40199,-0.42216c1.01433,-0.24252 1.54453,-0.42569 2.09801,-0.59868c1.15318,-0.36043 1.74168,-0.56044 2.9375,-0.95833c0.60027,-0.19972 1.80431,-0.6006 2.41066,-0.8c0.60997,-0.20059 1.22389,-0.40454 2.47467,-0.8c1.27988,-0.40466 1.93576,-0.60081 2.59866,-0.79999c0.66843,-0.20084 1.34151,-0.39946 2.69067,-0.8c0.67274,-0.19972 1.34254,-0.39607 2.65866,-0.8c0.64644,-0.19839 1.28868,-0.39655 2.57333,-0.82133c0.65688,-0.21721 1.32747,-0.44843 2.0175,-0.69299c0.71666,-0.25401 2.24313,-0.81737 3.06117,-1.12834c0.85132,-0.32362 1.72548,-0.66228 2.616,-1.008c0.89882,-0.34894 1.79703,-0.69946 2.688,-1.04401c0.87436,-0.3381 2.5432,-0.97412 3.32466,-1.26233c0.74393,-0.27437 1.45677,-0.53029 2.142,-0.771c0.66013,-0.23189 1.30103,-0.45155 1.92601,-0.66301c0.61237,-0.2072 1.81804,-0.60884 2.41783,-0.80899c0.59888,-0.19984 1.196,-0.39902 1.78949,-0.60001c1.17534,-0.39803 1.75447,-0.59724 2.32533,-0.8c1.6667,-0.59198 2.20123,-0.79678 3.24934,-1.2c0.51578,-0.19843 1.53168,-0.59955 2.03467,-0.8c1.5022,-0.59866 2.00334,-0.80168 2.51033,-1c1.03133,-0.40343 1.55948,-0.6098 2.66167,-1c1.15904,-0.41034 1.7713,-0.60274 2.39867,-0.79999c1.29022,-0.40567 1.95142,-0.60028 2.616,-0.8c0.66643,-0.20027 1.33331,-0.39569 2.64799,-0.8c1.28264,-0.39445 1.90919,-0.59648 2.53067,-0.78934c0.61487,-0.19081 1.22141,-0.38857 2.43466,-0.72533c1.1976,-0.33243 1.79987,-0.4715 3.00584,-0.73267c0.60535,-0.1311 1.21652,-0.25169 1.8315,-0.37801c1.24974,-0.25668 2.53149,-0.5379 3.18584,-0.69633c0.66702,-0.1615 1.34546,-0.33583 2.03549,-0.52499c1.42773,-0.3914 2.1624,-0.612 2.91467,-0.84c1.56323,-0.47377 2.37047,-0.73357 3.192,-0.996c0.82814,-0.26454 1.65463,-0.53207 2.4735,-0.79651c0.8038,-0.25957 1.58502,-0.51303 2.3385,-0.7515c1.3895,-0.43974 2.0159,-0.62837 2.59734,-0.79866c0.54028,-0.15823 1.52161,-0.43237 2.40416,-0.66167c0.41542,-0.10793 1.62372,-0.40506 2.427,-0.61351c0.81743,-0.21213 1.65782,-0.43652 2.96217,-0.86217c0.45671,-0.14903 1.38989,-0.48764 2.35416,-0.83333c0.48953,-0.17551 1.4756,-0.53185 2.47917,-0.83333c0.99805,-0.29984 1.50957,-0.41635 2.54167,-0.6875c0.53062,-0.1394 1.08217,-0.25874 2.79166,-0.8125c0.61244,-0.19839 1.2318,-0.43031 1.85851,-0.66751c1.24796,-0.47234 1.84747,-0.71782 2.43134,-0.93666c1.5383,-0.57658 2.35425,-0.81541 3.03951,-0.9865c0.62688,-0.15651 2.00653,-0.5697 2.42332,-0.74034c0.94864,-0.3884 1.45807,-0.63287 1.99733,-0.87733c1.13478,-0.51442 1.71722,-0.78821 2.91667,-1.29166c0.5975,-0.25079 1.79477,-0.7115 2.38934,-0.93068c0.58908,-0.21715 1.75378,-0.6306 2.32532,-0.83466c1.11929,-0.39961 2.1998,-0.80057 2.72818,-0.99684c1.03589,-0.38478 1.54434,-0.57469 2.05267,-0.74733c1.49838,-0.50885 2.50269,-0.7749 3,-0.9045c0.98276,-0.2561 1.47449,-0.35684 2.41916,-0.63667c1.37375,-0.40694 1.8064,-0.59532 2.68134,-0.952c0.90387,-0.36847 1.36224,-0.59155 2.90399,-1.164c0.56046,-0.20808 1.14523,-0.40614 2.34399,-0.77867c0.59216,-0.18402 1.16943,-0.3587 2.24802,-0.65067c0.90588,-0.24522 1.89047,-0.43481 2.80966,-0.67599c0.77209,-0.20259 1.81839,-0.60341 2.22101,-0.756c0.84888,-0.3217 1.70865,-0.66496 2.93448,-1.11717c0.73105,-0.26968 1.41965,-0.50812 2.091,-0.717c1.01505,-0.3158 2.11087,-0.60257 2.87268,-0.82533c0.78561,-0.22972 1.19031,-0.33836 2.37915,-0.80051c0.80707,-0.31374 1.59576,-0.68861 2.39999,-1.026c1.19388,-0.50084 2.00153,-0.77232 2.40903,-0.89999c0.83032,-0.26015 1.70755,-0.4978 3.12433,-0.91934c0.51016,-0.15178 1.57153,-0.48296 2.11731,-0.64799c0.54889,-0.16599 1.64099,-0.48756 2.18134,-0.616c1.517,-0.36058 2.44427,-0.46329 2.87466,-0.508c0.79932,-0.08304 2.17163,-0.18332 2.98352,-0.4185c0.73724,-0.21356 1.6702,-0.66016 2.46249,-0.93834c0.81589,-0.28647 1.35648,-0.45883 2.59018,-0.65182c0.84882,-0.13278 1.65961,-0.26675 2.43631,-0.55267c1.00281,-0.36916 1.8197,-0.48132 2.72086,-0.5c0.90051,-0.01866 1.65787,-0.54378 2.46664,-0.83333c0.81937,-0.29335 1.84073,-0.31178 2.65466,-0.60268c0.69986,-0.25012 1.50922,-0.57327 2.48401,-0.864c0.69275,-0.2066 1.40027,-0.36703 2.65167,-0.79984c0.77832,-0.26918 1.41852,-0.60838 2.44299,-0.81616c0.79135,-0.16049 1.82349,-0.25002 2.57916,-0.60483c0.88654,-0.41626 1.49713,-0.96307 2.21951,-1.39517c0.74573,-0.44608 1.18741,-1.22235 1.51733,-1.884c0.42056,-0.84335 0.284,-1.836 0.284,-2.68533c0,-0.72533 0,-1.71466 0,-2.51466c0,-1 -0.03781,-1.81618 0.08533,-2.68533c0.14285,-1.00818 0.43973,-1.80844 0.63068,-2.63066c0.23041,-0.9921 0.24969,-1.88602 0.45065,-2.68401c0.20859,-0.82838 0.54465,-1.45439 0.93369,-2.42149c0.32672,-0.81221 0.66824,-1.71114 1.233,-2.57851c0.40311,-0.61908 0.90729,-1.18794 1.41599,-1.728c0.8999,-0.9554 1.43408,-1.48425 2.11316,-2.07733c0.62347,-0.54451 1.5036,-1.2057 1.83484,-1.45601c0.69675,-0.52654 1.41599,-1.06349 2.48102,-1.817c0.65674,-0.46465 1.27466,-0.88826 1.85999,-1.25999c1.03116,-0.65488 1.72681,-1.04587 2.41434,-1.35716c0.95627,-0.43298 1.77573,-0.69629 2.59467,-1.0045c1.03494,-0.38951 1.68668,-0.73878 2.466,-1.01466c0.98712,-0.34943 1.82629,-0.43123 2.74799,-0.72134c0.79633,-0.25066 1.57501,-0.55705 2.51334,-0.96399c0.68021,-0.29498 1.63947,-0.72231 2.47202,-0.98933c0.59506,-0.19086 1.91861,-0.45683 2.63733,-0.52667c0.74017,-0.07191 1.49234,-0.09097 2.23199,-0.168c1.06558,-0.11096 2.04626,-0.34883 2.67334,-0.49066c1.20749,-0.27312 2.10556,-0.37952 2.68982,-0.40451c0.83496,-0.03572 2.07083,0.01099 2.74619,-0.05682c1.20419,-0.12093 1.7247,-0.32661 2.54932,-0.53867c1.05548,-0.27142 1.9888,-0.40367 2.62085,-0.42084c1.00412,-0.02727 1.8045,-0.0045 2.8045,-0.0045c0.79999,0 1.80106,-0.03188 2.59998,0.01067c0.80237,0.04272 1.78546,0.36884 2.54285,0.63667c1.03018,0.3643 1.9957,0.50186 2.66251,0.70982c0.75034,0.23401 1.66132,0.64284 2.49466,1.14284c0.83334,0.5 1.49951,0.82741 2.28534,1.064c1.03613,0.31194 1.76419,0.33887 2.61017,0.48868c1.01529,0.17979 1.80661,0.55371 2.60449,0.94733c0.80212,0.39571 1.39999,0.7 2.39999,1.2c0.80002,0.40001 1.60712,0.78627 2.38934,1.2c0.73221,0.38727 1.46738,0.8853 2.21066,1.60001c0.5097,0.4901 1.12411,1.30304 1.79999,1.71466c0.84247,0.51309 1.40854,1.02872 2.20001,1.45201c0.74878,0.40047 1.55954,0.77 2.02533,1.444c0.50586,0.73198 1.07547,1.48853 1.57468,1.98933c0.70111,0.70337 1.22128,1.27185 1.69998,2.05266c0.41898,0.6834 0.98975,1.59958 1.5,2.146c0.68643,0.73508 1.29736,1.52425 1.70001,2.20134c0.49673,0.83528 1.09805,1.45218 1.37866,2.3215c0.21802,0.67546 0.2627,1.68724 0.54666,2.46783c0.26715,0.73431 0.54242,1.73901 0.79602,2.75349c0.18112,0.72461 0.47528,1.49913 0.65717,2.53551c0.11761,0.67014 0.12149,1.75499 0.12149,2.547c0,0.86133 0,1.62134 0,2.79584c0,0.79349 0,1.569 0,2.60815c0,0.97067 0,1.72784 0,2.62334c0,0.86334 -0.14548,1.83978 0.01068,2.74733c0.14337,0.83316 0.40933,1.58588 1.07333,2.31467c0.5434,0.59639 1.4537,1.03014 2.31598,1.24934c0.87314,0.22197 1.74741,0.40456 2.39999,0.752c0.78683,0.4189 1.70444,0.52914 2.37466,0.89467c0.9744,0.53142 1.55548,1.10931 2.47803,1.33665c0.84866,0.20914 1.7019,0.51799 2.51398,1.05267c0.64365,0.42378 1.39355,0.74194 2.19736,1.39999c0.67654,0.55386 1.23599,1.2 1.836,1.8c0.59998,0.59999 1.25739,1.36105 2.09998,1.74733c0.76862,0.35236 1.17145,0.99942 1.75269,1.69551c0.4935,0.59102 2.22128,0.39365 2.23831,1.3c0.00208,0.10971 -0.92697,0.05716 -1.94366,0.05716c-0.69464,0 -1.71133,0 -2.64731,0c-0.90002,0 -1.80017,0 -2.58536,0c-0.94,0 -1.948,0 -2.70398,0c-0.95233,0 -1.74402,0 -2.66135,0c-0.74399,0 -1.78339,-0.09564 -2.74933,0c-0.8457,0.08374 -0.81427,1.0425 -1.08533,1.8c-0.32245,0.90111 -1.12366,1.39114 -1.71466,2c-0.68982,0.71065 -1.04926,1.52692 -1.22534,2.37466c-0.16827,0.81013 -0.716,1.48677 -1.37466,2.23599c-0.63727,0.72488 -1.04279,1.39194 -1.31467,2.10535c-0.35773,0.93869 -0.66507,1.77193 -1.08667,2.36932c-0.52765,0.74768 -0.83655,1.50691 -1.49866,2.3575c-0.45923,0.58997 -1.20001,1.25719 -1.90134,1.95851c-0.55585,0.55583 -1.28268,1.28265 -1.79868,1.79866c-0.51599,0.51601 -1.24283,1.24283 -2,2c-0.5,0.5 -1.16745,1.24042 -1.75717,1.7c-0.85513,0.66644 -1.48636,0.89082 -2.44284,1.62134c-0.62271,0.4756 -1.17273,1.06218 -1.99982,1.65717c-0.57178,0.41132 -1.35907,0.76215 -2.16418,1.42149c-0.67645,0.55399 -1.24051,1.24629 -1.95731,1.69984c-0.82086,0.51941 -1.70306,0.64452 -2.47736,0.98416c-0.87814,0.38521 -1.30713,1.25616 -2.20132,1.74933c-0.66318,0.36575 -1.21524,1.10577 -2.10001,1.16667c-0.89786,0.0618 -1.81827,-0.05911 -2.37915,0.52083c-0.63034,0.65175 -0.68359,1.73604 -0.2995,2.57918c0.35535,0.78001 0.76096,1.55032 1.06265,2.38399c0.255,0.70464 0.66772,1.62885 0.71466,2.40001c0.05783,0.95032 0.03101,1.73399 0.354,2.7115c0.25204,0.76277 0.62933,1.77864 0.64734,2.726c0.01331,0.6992 0,1.6785 0,2.4785c0,0.8 0,1.8045 0,2.65717c0,0.96417 0,1.76817 0,2.59016c0,1.03116 0,1.93182 0,2.95267c0,0.82132 0,1.51434 0,2.64267c0,0.66266 0.00009,1.35733 0,2.38934c-0.00009,0.92499 0.06271,1.9415 -0.16666,2.96799c-0.13699,0.61307 -0.54449,1.38501 -0.74933,2.39999c-0.15973,0.7915 -0.27408,1.8125 -0.60486,2.60001c-0.2565,0.61066 -0.79108,1.59897 -1.07916,2.23599c-0.41742,0.92297 -0.69534,1.71838 -1,2.53867c-0.39401,1.06091 -0.68478,1.78268 -1.03598,2.45068c-0.50287,0.95645 -0.85492,1.45578 -1.36401,2.2955c-0.35211,0.58078 -0.9928,1.77304 -1.24283,2.37915c-0.36777,0.89151 -0.55646,1.49979 -0.95718,2.70001c-0.20029,0.59991 -0.49933,1.50021 -0.79999,2.39999c-0.29932,0.89572 -0.48471,1.4848 -0.79999,2.31467c-0.38419,1.01123 -0.72949,1.73355 -1.17068,2.54001c-0.55692,1.01797 -0.79572,1.40042 -1.29065,2.23199c-0.5209,0.87518 -0.78418,1.31641 -1.57202,2.57999c-0.4762,0.76373 -0.70749,1.11292 -1.31998,2.07602c-0.36148,0.56839 -0.95245,1.578 -1.34668,2.23648c-0.37439,0.62537 -0.96454,1.44211 -1.54166,2.02084c-0.62204,0.62381 -1.37799,1.20264 -2.19434,1.81067c-0.57339,0.42706 -1.17822,0.85922 -2.064,1.6105c-0.60904,0.51654 -1.18472,1.07648 -1.80002,1.569c-0.87897,0.70358 -1.79608,1.20822 -2.39999,1.48898c-0.89438,0.4158 -1.8045,0.83539 -2.41351,1.1825c-0.65338,0.37241 -1.35135,0.81174 -2.58649,1.505c-0.46155,0.25906 -1.45776,0.78647 -1.97601,1.05869c-0.52374,0.27512 -1.5679,0.81839 -2.07199,1.09067c-1.39307,0.75244 -2.18408,1.22388 -2.55466,1.43732c-0.69962,0.40295 -2.05811,1.09549 -2.78268,1.36267c-0.74493,0.27469 -1.52847,0.49988 -2.31598,0.76801c-0.802,0.27307 -1.6001,0.59665 -2.39868,0.94135c-0.80145,0.34595 -1.58908,0.72003 -2.79999,1.15314c-0.79333,0.28375 -1.19797,0.39297 -2,0.61084c-0.79803,0.21677 -2,0.51065 -2.80002,0.71066c-0.79999,0.19998 -1.59998,0.40002 -2.79999,0.70001c-0.80533,0.20132 -1.64267,0.41064 -2.54401,0.63599c-0.48465,0.12115 -2.1225,0.53122 -2.74149,0.68518c-0.6517,0.16208 -1.32913,0.32925 -2.02652,0.4935c-0.70828,0.16681 -1.42059,0.33411 -2.13449,0.47549c-2.04794,0.40558 -2.68796,0.47485 -3.29617,0.5405c-1.13718,0.12271 -1.6741,0.1467 -2.68665,0.2175c-0.48141,0.03366 -1.85187,0.15714 -2.7135,0.30902c-0.83926,0.14795 -1.6535,0.34396 -2.85718,0.64282c-0.80188,0.1991 -1.61221,0.40503 -2.436,0.63599c-0.422,0.11832 -1.73065,0.53067 -2.64532,0.84802l-0.46234,0.16867l-0.91467,0.34732l-0.87466,0.34732" id="svg_1" stroke-width="2" stroke="#000" fill="none"/>
  <path t="5601,5620,5620,5620,5627,5627,5645,5655,5655,5678,5678,5678,5694,5694,5694,5710,5710,5726,5727,5743,5743,5759,5759,5759,5759,5776,5777,5777,5793,5793,5793,5810,5810,5843,5864,5879,5896,6000,6014,6023,6043,6043,6054,6054,6054,6055,6071,6071,6071,6072,6072,6072,6088,6088,6088,6088,6105,6105,6105,6105,6156,6164,6171,6171,6188,6204,6205,6221,6221,6238,6238,6238,6254,6255,6271,6271,6272,6272,6288,6288,6288,6304,6304,6304,6384,6403,6403,6421,6441,6441,6441,6441,6456,6456,6456,6456,6456,6456,6473,6473,6473,6473,6473,6473,6490,6490,6490,6490,6491,6491,6491,6491,6491,6506,6506,6506,6506,6507,6507,6507,6507,6523,6523,6523,6524,6524,6524,6524,6524,6540,6541,6541,6541,6541,6541,6541,6541,6541,6557,6557,6557,6557,6557,6557,6557,6557,6558,6574,6575,6575,6575,6575,6575,6575,6576,6576,6590,6591,6591,6591,6591,6591,6591,6591,6591,6606,6606,6606,6607,6607,6607,6607,6607,6607,6624,6624,6624,6624,6624,6624,6624,6625,6625,6639,6639,6639,6639,6639,6639,6639,6655,6655,6655,6655,6655,6655,6655,6655,6672,6672,6672,6672,6672,6672,6689,6689,6689,6689,6689,6690,6705,6705,6705,6705,6705,6705,6705,6722,6722,6722,6722,6722,6722,6739,6739,6739,6739,6739,6739,6740,6755,6755,6755,6755,6755,6755,6772,6772,6772,6772,6772,6789,6789,6789,6789,6789,6789,6789,6805,6805,6805,6805,6805,6805,6805,6805,6822,6822,6822,6822,6822,6822,6822,6839,6839,6839,6839,6839,6839,6840,6855,6855,6855,6855,6855,6855,6856,6872,6872,6872,6872,6872,6872,6873,6889,6889,6889,6889,6889,6889,6889,6890,6890,6905,6905,6905,6905,6905,6905,6906,6922,6922,6922,6922,6922,6922,6939,6939,6939,6939,6939,6939,6955,6955,6955,6955,6956,6972,6972,6972,7037,7045,7045" d="m85,257c-3.59734,1.20001 -4.47282,1.46515 -5.22933,1.79999c-0.81735,0.36179 -1.5362,1.0441 -2.40667,1.18933c-0.83784,0.1398 -1.78664,-0.00046 -2.76534,0.29602c-0.63428,0.19214 -1.27483,0.53986 -2.28266,0.91333c-0.8091,0.29984 -1.62559,0.55087 -2.62933,0.71732c-0.83568,0.13855 -1.76938,0.43381 -2.43934,0.73135c-0.87873,0.39026 -1.77102,0.3757 -2.89,0.57416c-0.66602,0.11813 -1.36164,0.28375 -2.052,0.483c-1.27107,0.36682 -2.03164,0.72253 -2.7535,0.93832c-0.95924,0.28674 -1.7725,0.28595 -2.542,0.40985c-1.05107,0.16922 -1.77893,0.78052 -2.70984,0.94284c-0.88752,0.15475 -1.61792,0.59363 -2.4,0.883c-0.85174,0.31512 -1.66332,0.62576 -0.8,1c0.83324,0.36121 1.6124,0.13397 2.66467,0.34299c0.61421,0.12201 1.31821,0.3013 2.106,0.483c1.29526,0.29874 2.21323,0.496 2.682,0.59549c0.94712,0.20099 1.895,0.39847 2.36333,0.5c1.36331,0.29553 2.22352,0.49518 3.04233,0.70001c0.78117,0.1954 1.87775,0.49091 2.55367,0.70001c0.92944,0.28754 1.85365,0.39709 2.66467,1.09549c0.58199,0.50119 -0.32404,1.07306 -0.97667,1.4205c-0.78683,0.41888 -1.67389,0.59836 -2.41067,0.85867c-0.97585,0.34479 -1.8058,0.34613 -2.78933,0.59198c-0.81893,0.20471 -1.59708,0.64059 -2.40133,1.03336c-0.83169,0.40616 -1.76212,0.80859 -2.55583,1.09998c-0.56146,0.20612 -1.44462,0.49866 -2.34267,0.80002c-0.88995,0.29865 -1.74878,0.58517 -2.5335,0.89999c-0.92717,0.37195 -2.71502,0.02429 -2.60417,0.97916c0.05051,0.43509 1.20742,0.16702 2,0.52084c0.90858,0.40561 1.81405,0.44644 2.52083,0.52084c0.78799,0.08295 2.08572,0.30304 2.53817,0.422c0.94104,0.24744 1.89928,0.57816 2.38917,0.74249c0.99057,0.33231 1.98552,0.66205 2.99467,0.92932c0.51083,0.13531 1.57722,0.36853 2.13866,0.47467c0.58389,0.11038 2.52237,0.41284 3.2415,0.51068c0.75153,0.10226 1.52958,0.20071 2.3265,0.29999c0.80875,0.10074 1.62273,0.19946 2.4345,0.30002c0.8029,0.09946 2.35374,0.29819 3.08916,0.39999c0.70992,0.09827 1.3975,0.19894 2.067,0.29999c0.65582,0.099 1.94095,0.30038 2.57867,0.39999c1.28522,0.20074 1.93993,0.30258 2.60533,0.39868c1.3592,0.19629 2.05459,0.284 2.76,0.36533c0.7146,0.0824 1.43889,0.1655 2.92,0.26935c0.75434,0.05289 1.51859,0.08475 2.2905,0.11398c0.77876,0.02948 1.5637,0.05173 2.3535,0.078c0.79386,0.0264 1.59142,0.04532 3.18933,0.14133c0.80109,0.04813 1.60559,0.11578 2.418,0.19052c0.82494,0.0759 1.66541,0.16293 2.526,0.25348c0.88474,0.09308 1.79683,0.19562 3.72266,0.38934c1.01824,0.10245 2.06782,0.20071 3.1395,0.2955c1.08431,0.09592 2.17281,0.18613 3.2565,0.26849c1.06931,0.08127 2.11538,0.1615 4.104,0.26935c0.92558,0.0502 1.80657,0.08438 2.6475,0.1095c0.80576,0.02408 1.58165,0.03821 2.3325,0.04648c0.73082,0.00806 1.44666,0.01001 2.85333,0.01068c0.69984,0.00034 1.39867,0 2.0955,0c0.69383,0 1.38367,0 2.0685,0c0.67883,0 1.35066,-0.00015 2.66933,0c0.64517,0.00009 1.28136,-0.00021 1.9095,0.00449c0.62119,0.00464 1.23642,0.01331 1.84651,0.03152c0.60625,0.0181 1.21066,0.03149 2.41066,0.13065c1.20427,0.09949 1.80904,0.18579 2.42134,0.25867c1.25072,0.1489 1.8924,0.22803 2.54933,0.29068c1.36153,0.12982 2.07162,0.16669 2.79599,0.19867c0.73401,0.03241 1.47325,0.05566 2.94667,0.07465c0.72414,0.00931 1.43333,0.00986 2.78667,0.01068c0.6355,0.0004 1.82855,0.00095 2.392,0.01068c1.07614,0.01859 1.59676,0.01874 3.108,0.15598c0.50108,0.0455 1.50458,0.18549 2.01067,0.25867c1.02548,0.14828 1.54358,0.24924 3.15601,0.40802c0.55382,0.05453 1.68585,0.11377 2.25867,0.13065c1.14911,0.03387 1.722,0.03284 2.29066,0.03467c1.66281,0.00534 2.20139,-0.00278 3.26933,0.01202c0.53554,0.00742 1.62491,0.03912 2.18399,0.07465c1.77498,0.11273 2.39883,0.19714 3.03601,0.26733c0.64549,0.07111 1.29422,0.15121 2.58932,0.29468c0.63713,0.07059 1.87144,0.1944 3.03334,0.26865c0.55292,0.03534 1.60963,0.08139 2.11467,0.10934c0.96962,0.05365 2.3373,0.18869 3.20917,0.32733c0.43408,0.06903 1.30727,0.23715 2.2175,0.36334c0.9619,0.13336 2.00374,0.20413 2.554,0.22684c1.15958,0.04785 1.76997,0.04807 2.39999,0.05267c0.64998,0.00476 2.71933,0.00369 3.44467,0.00583c0.73734,0.00217 1.4827,0.00684 2.23199,0.0195c0.74937,0.01266 1.49495,0.02951 2.23199,0.06448c1.43536,0.06808 2.12596,0.12665 3.45367,0.26733c0.64284,0.06812 1.27249,0.14868 1.89301,0.22202c1.21835,0.14398 2.42087,0.26514 3.02133,0.30383c1.19923,0.07727 1.79991,0.08896 2.39999,0.10065c1.19987,0.02335 1.8,0.02017 3,0.02084c1.2,0.00067 1.8,0 2.39999,0c1.20001,0 1.8,0 2.40001,0c1.80049,0 2.40399,0 3.0135,0c1.24899,0 1.89449,0 2.558,0c0.68449,0 2.12849,0 2.8925,0c0.78799,0 1.59399,0 2.41199,0c0.82401,0 1.64801,0 2.466,0c0.806,0 2.358,0 3.09334,0c1.38866,0 2.04599,0 2.68134,0c0.61533,0 1.79399,-0.0007 2.91666,0c1.08134,0.00067 1.60965,-0.00275 2.64584,0.02084c0.51025,0.0116 1.52205,0.03876 3.02083,0.2005c0.50101,0.05408 1.49992,0.20447 2,0.27866c0.99985,0.14832 1.49686,0.24817 2.9995,0.37851c0.9854,0.08548 1.46832,0.09308 2.3925,0.11081c0.8519,0.01636 2.25201,0.01068 3.0455,0.01068c0.65851,0 1.6445,0 2.23383,0l-0.77667,0" id="svg_2" stroke-width="2" stroke="#000" fill="none"/>
  <path t="7707,7716,7716,7725,7725,7740,7741,7756,7756,7773,7773,7773,7791,7791,7791,7791,7791,7805,7805,7805,7805,7822,7822,7822,7822,7839,7839,7839,7839,7839,7855,7855,7855,7855,7855,7872,7872,7872,7872,7872,7872,7872,7889,7889,7889,7889,7889,7905,7905,7905,7905,7905,7922,7922,7922,7922,7922,7922,7939,7939,7939,7939,7955,7955,7955,7955,7972,7972,7972,7972,7989,7989,7989,7989,7989,8005,8005,8005,8005,8005,8022,8022,8022,8022,8039,8039,8039,8039,8055,8055,8072,8072,8072,8072,8089,8089,8089,8105,8105,8122,8122,8122,8139,8139,8139,8155,8155,8155,8155,8155,8172,8172,8172,8172,8189,8189,8189,8189,8205,8205,8205,8222,8222,8222,8222,8222,8239,8239,8239,8239,8255,8255,8272,8272,8272,8272,8289,8289,8289,8308,8308,8308,8325,8325,8325,8339,8339,8355,8355,8372,8372,8372,8372,8389,8389,8389,8468,8484,8489,8489,8504,8524,8525,8525,8542,8542,8542,8557,8558,8558,8558,8574,8574,8574,8574,8591,8592,8592,8592,8592,8592,8607,8607,8608,8608,8608,8624,8624,8624,8641,8641,8664,8752,8768,8775" d="m171,295c3.944,3.31332 4.39978,3.98376 5,4.83334c0.47128,0.66705 1.09776,1.26892 1.7,1.86667c0.71869,0.71335 1.25856,1.20187 2.07201,1.78531c0.50339,0.36105 1.38609,0.93295 2.39467,1.51468c0.71043,0.40976 1.4519,0.793 2.172,1.20001c0.69583,0.39328 1.62492,0.99173 2.15599,1.39999c0.7652,0.58823 1.25546,1.02695 2.14818,1.60001c0.6545,0.42014 1.37917,0.79785 2.10899,1.19998c1.08324,0.59686 1.76167,1.00293 2.42284,1.38934c0.64824,0.37885 1.29019,0.77206 2.71466,1.328c0.37668,0.147 1.19499,0.40045 2.08667,0.6925c0.48189,0.15784 2.08882,0.73068 2.67599,0.95816c0.60687,0.23511 1.22345,0.48407 2.472,0.98132c0.61774,0.24603 1.21837,0.49796 2.37601,0.91733c1.03912,0.37643 1.99091,0.66516 2.4375,0.79169c0.84697,0.23993 2.0632,0.53885 2.86383,0.74298c0.81007,0.20651 1.63765,0.42474 2.48401,0.68402c0.88457,0.271 1.79947,0.59647 2.73999,0.94c0.47508,0.17352 1.42049,0.52625 1.89067,0.69064c1.35808,0.47485 2.22116,0.73096 3.04233,0.96317c0.7789,0.22025 1.87662,0.51541 2.55634,0.72086c0.96687,0.29227 1.58023,0.50186 2.78568,0.89999c0.60835,0.20093 1.23651,0.41705 2.27032,0.69998c1.16704,0.31937 1.59793,0.40332 2.49068,0.60001c0.92325,0.20343 1.39168,0.29459 2.77199,0.60001c0.88211,0.19519 1.72859,0.39948 2.556,0.564c0.80743,0.16055 2.00989,0.3222 2.80617,0.38333c0.78314,0.06012 1.55174,0.06903 2.63783,0.21933c0.68355,0.0946 1.61969,0.35559 2.48001,0.54935c0.99716,0.22458 1.68655,0.27026 2.85333,0.284c0.79045,0.00931 1.64648,0.01208 2.23466,0.08533c1.20439,0.14996 1.78427,0.35486 2.64149,0.56201c1.03149,0.24927 1.95134,0.27814 2.95717,0.51932c0.82748,0.19843 1.44391,0.54541 2.42184,0.71185c0.82794,0.1409 1.46078,0.11499 2.9115,0.12149c0.83466,0.00375 1.27225,-0.00549 2.16666,0.02084c0.89499,0.02634 2.16962,0.12796 2.92932,0.26315c0.70178,0.12491 1.65491,0.40021 2.57068,0.54935c0.89484,0.14575 1.79993,0.15997 2.39999,0.16531c1.20264,0.01071 1.82285,-0.01315 2.81433,0.0585c1.12143,0.08105 1.9541,0.22421 2.83633,0.36816c0.44955,0.07333 1.34064,0.2467 2.616,0.40802c0.75964,0.09607 1.77069,0.15265 2.36719,0.16217c1.28201,0.02051 1.9747,-0.03174 3.13281,0.17114c0.5238,0.09177 1.34796,0.36057 2.23468,0.54935c0.89307,0.19012 1.7876,0.2619 2.64151,0.27951c1.03561,0.02136 1.95715,0.00449 2.64114,0.00449c1,0 1.81601,0 2.63202,0c1.22684,0 1.87332,0 2.88416,0c0.82068,0 1.96649,0 2.75699,0c0.56369,0 1.44418,0 2.64017,0c0.86102,0 1.63202,0 2.58835,0c0.91434,0 1.81573,-0.04752 2.61432,0c0.96228,0.05725 1.68954,0.56732 2.24167,1.04166c0.64841,0.55707 1.37619,1.16306 2.18369,1.75833c0.54697,0.40323 1.61929,1.18686 2.08932,1.60135c0.68137,0.60089 1.10583,1.03549 1.88568,2.02051c0.42249,0.53366 0.83817,1.14294 1.314,1.797c0.81363,1.11841 1.12634,1.52536 1.79099,2.38651c0.3443,0.44611 1.04559,1.34277 1.38934,1.78931c0.9765,1.26852 1.26462,1.66049 1.79099,2.38651c0.47476,0.65485 1.0921,1.54666 1.71417,2.29718c0.5719,0.68997 1.15155,1.25162 1.7785,1.90015c0.58307,0.60315 1.00082,1.52151 1.02167,2.40018l0,-0.18134l0,-0.9545" id="svg_3" stroke-width="2" stroke="#000" fill="none"/>
  <path t="9295,9308,9316,9316,9324,9340,9355,9355,9371,9371,9371,9371,9388,9388,9388,9404,9404,9404,9421,9439,9439,9455,9471,9488,9504,9521,9538,9538,9554,9554,9571,9571,9588,9588,9604,9604,9604,9621,9621,9638,9638,9654,9654,9654,9654,9672,9672,9688,9688,9688,9704,9704,9705,9721,9721,9721,9739,9739,9739,9755,9755,9755,9832,9832,9853,9872,9872,9872,9889,9889,9889,9905,9927,9942,9955,9955,9975,9975,9975,9989,9989,10008,10008,10022,10043,10071,10092,10105,10125,10125,10139,10139,10139,10155,10155,10155,10176,10176,10176,10192,10192,10192,10192,10205,10205,10222,10222,10222,10222,10239,10239,10239,10255,10255,10255,10272,10272,10272,10289,10289,10305,10305,10305,10322,10322,10339,10355,10355,10372,10389,10405,10405,10422,10439,10463,10472,10489,10505,10523,10543,10560,10560,10575" d="m329,328c0.01068,1.82535 0.18054,2.82602 0.57468,3.58932c0.41473,0.80322 0.85123,1.52991 1.25867,2.41068c0.30798,0.6658 0.38199,1.76559 0.52383,2.36249c0.15686,0.66 0.4194,1.6792 0.74283,2.59467c0.27887,0.78931 0.61954,1.48322 0.99982,2.46402c0.30533,0.78754 0.54526,1.56842 0.81616,2.60815c0.25278,0.97012 0.48315,1.67993 1.08401,2.44983c0.48956,0.62729 1.53473,0.46796 2.29999,0.8735c0.84592,0.4483 1.70001,0.64545 2.45718,0.64734c0.89999,0.00226 1.66336,-0.0043 2.64282,0.284c0.81656,0.24036 1.79587,0.63635 2.60001,0.69516c0.99756,0.07294 1.80908,-0.0354 2.60001,0.10617c1.01892,0.1824 1.57751,0.57684 2.60016,0.79318c0.80893,0.17114 1.96661,0.112 2.7525,0.12598c0.54749,0.00974 1.38095,0.01001 2.59018,0.34818c0.65829,0.18408 1.65353,0.56396 2.478,0.6265c0.66287,0.05026 1.66449,0.02084 2.5,0.02084c0.88049,0 2.07916,0 2.67917,0c0.89999,0 2.09982,0 2.6955,0c0.8685,0 1.93784,0 2.8685,0c0.83466,0 2.57999,0.75751 2.57999,0c0,-0.54532 -1.51151,-0.02478 -2.19067,0.01068c-0.84216,0.04398 -1.8447,0.24704 -2.63248,0.51016c-0.7608,0.25412 -1.69327,0.79529 -2.52084,1.3125c-0.64706,0.40439 -0.00272,1.01038 0.81433,1.21933c0.952,0.24347 1.69974,0.47409 2.50299,0.66333c0.99008,0.23325 1.67828,0.20349 2.68268,0.45065c0.79672,0.19604 1.78012,0.39441 2.5,0.85419c0.62692,0.40042 0.1723,1.58002 -0.70132,1.89383c-0.91205,0.32761 -1.83328,0.0329 -2.79868,0.25198c-0.61679,0.13998 -1.44421,0.54352 -2.42133,0.71185c-0.79681,0.1373 -1.62601,0.11923 -2.6575,0.12149c-0.70651,0.00153 -1.69052,0 -2.56384,0c-1.008,0 -1.70667,0 -2.38934,0c-1.19864,0 -1.94714,0 -3.13464,0c-0.7905,0 -1.64401,0 -2.23468,0c-1.19867,0 -2.09866,0 -2.69867,0c-1.19983,0 -2.08932,0.00006 -2.94284,0c-1.03564,-0.00009 -1.73056,0.06015 -2.55582,-0.08533c-1.02493,-0.18066 -1.62003,-0.56738 -2.82251,-0.79333c-0.78552,-0.14761 -1.60101,-0.05469 -2.43582,-0.34268c-0.88531,-0.30542 -1.66367,-0.76822 -2.62701,-0.77866c-0.69061,-0.00748 -1.75882,0 -2.616,0c-0.89999,0 -1.73441,0.19595 -2.60001,-0.05716c-0.87762,-0.25665 -1.6265,-0.71973 -2.49866,-0.94418c-0.8009,-0.20612 -1.33066,-0.8815 -1.80133,-1.5195c-0.58258,-0.78967 -1,-1.47916 -1.564,-2.07916l-0.41516,-0.89999" id="svg_4" stroke-width="2" stroke="#000" fill="none"/>
  <path t="11679,11693,11693,11693,11693,11693,11693,11693,11693,11693,11701,11701,11701,11701,11702,11702,11702,11702,11702,11722,11722,11722,11722,11722,11722,11722,11722,11722,11739,11739,11739,11739,11739,11739,11739,11755,11755,11755,11755,11755,11772,11772,11772,11789,11789,11789,11789,11805,11805,11805,11805,11822,11822,11822,11822,11839,11839,11839,11839,11855,11855,11855,11872,11872,11872,11872,11889,11889,11889,11889,11905,11905,11905,11905,11905,11922,11922,11922,11922,11939,11939,11939,11956,11956,11956,11956,11972,11972,11972,11972,11989,11989,11989,11989,11989,12005,12005,12005,12005,12022,12022,12022,12022,12022,12039,12039,12039,12039,12039,12039,12055,12055,12055,12055,12055,12072,12072,12072,12072,12072,12072,12089,12089,12089,12089,12089,12105,12105,12105,12105,12105,12105,12122,12122,12122,12122,12122,12122,12139,12139,12139,12139,12155,12155,12155,12156,12156,12172,12172,12172,12172,12173,12189,12189,12189,12190,12190,12190,12205,12205,12205,12205,12222,12222,12222,12240,12240,12240,12240,12255,12256,12256,12272,12272,12272,12272,12289,12289,12289,12290,12290,12305,12305,12305,12305,12323,12323,12323,12323,12339,12339,12340,12340,12355,12355,12355,12355,12356,12372,12372,12372,12389,12389,12389,12405,12405,12422,12422,12439,12439,12455,12455,12475,12475,12475,12489,12489,12489,12490,12505,12505,12505,12505,12522,12522,12522,12539,12539,12540,12540,12555,12555,12572,12572,12573,12589,12589,12589,12605,12605" d="m366,224c3.16666,4.33333 4.20285,5.52902 5.39734,6.88c1.30493,1.47589 2.6933,3.02789 4.1235,4.62c1.43246,1.59459 2.83456,3.14766 4.16849,4.62c2.30878,2.54839 3.22427,3.54947 3.97333,4.37466c0.60449,0.66594 1.08304,1.19223 1.4415,1.60951c0.27118,0.31567 0.47324,0.55339 0.58652,0.7545c0.1666,0.29575 0.19174,0.46219 0.22531,0.62799c0.03528,0.17426 0.0593,0.35992 0.08401,0.55501c0.02597,0.20493 0.04907,0.42053 0.08401,0.64499c0.07492,0.48128 0.13495,0.73563 0.20132,1c0.06921,0.27568 0.14972,0.56029 0.2355,0.85501c0.08884,0.30528 0.48578,1.6232 0.67783,2.34233c0.19751,0.73955 0.38297,1.48729 0.51599,2.23199c0.18903,1.05832 0.25922,2.04767 0.27466,2.67334c0.02985,1.21033 0.01859,2.11563 -0.01016,2.73151c-0.04507,0.96558 -0.1889,2.00278 -0.33633,2.73181c-0.15164,0.74988 -0.32684,1.50052 -0.74298,2.92584c-0.19479,0.66721 -0.38721,1.31464 -0.78519,2.22018c-0.4028,0.91653 -0.75043,1.51083 -1.32532,2.36533c-0.37686,0.56018 -1.1821,1.55722 -1.58932,2c-0.58969,0.64114 -1.39417,1.44254 -2.02133,2.04666c-0.44632,0.4299 -0.93903,0.88705 -1.8215,1.61066c-0.65945,0.54071 -1.37415,1.08389 -2.10901,1.62601c-1.0759,0.7937 -1.43503,1.01956 -2.40149,1.72733c-0.60544,0.44336 -1.18906,0.88031 -1.92535,1.64651c-0.48868,0.50851 -1.11194,1.35236 -1.60532,1.80948c-0.94019,0.87109 -1.5513,1.1095 -2.4205,1.51752c-0.89478,0.42001 -1.50424,0.72275 -2.39551,1.27267c-0.60611,0.37396 -1.49823,0.98181 -2.10132,1.37915c-0.91687,0.60406 -1.54724,1.01471 -2.56534,1.60001c-0.71149,0.40903 -1.45715,0.79236 -1.83334,0.97916c-0.74442,0.36966 -2.1749,1.00909 -2.84732,1.26367c-0.64917,0.24579 -1.30148,0.466 -2.6745,0.85733c-0.74234,0.21158 -1.54102,0.41943 -1.96085,0.53583c-0.89008,0.24673 -2.36032,0.68433 -2.88535,0.84802c-0.53766,0.16763 -1.63177,0.51666 -2.18134,0.69064c-1.08224,0.34265 -2.11496,0.66693 -3.08133,0.93869c-0.45844,0.12891 -1.34366,0.37003 -2.2175,0.52499c-1.31235,0.23276 -2.23566,0.28027 -2.7045,0.30899c-0.94702,0.05798 -1.89526,0.09744 -2.36331,0.13669c-1.36499,0.11447 -2.2373,0.26553 -3.10486,0.43683c-0.89056,0.17584 -1.34637,0.29102 -2.82199,0.57898c-0.52576,0.1026 -1.61807,0.29233 -2.17801,0.37933c-0.56406,0.08765 -1.69485,0.25201 -2.8125,0.35419c-1.07864,0.0986 -1.60504,0.11292 -2.625,0.16666c-0.98004,0.05164 -1.45889,0.04959 -2.82016,0.22134c-0.86737,0.10944 -1.69885,0.289 -2.517,0.42599c-1.20206,0.20126 -2.00421,0.27264 -2.8045,0.32733c-0.79971,0.05466 -1.604,0.07806 -2.80032,0.24683c-0.81195,0.11453 -1.22159,0.2117 -2.07166,0.38916c-0.89929,0.18771 -2.37,0.49194 -2.89468,0.58801c-1.0723,0.19635 -1.61197,0.28387 -2.14667,0.36533c-1.03235,0.15723 -2.4213,0.32632 -3.21515,0.37885c-0.7084,0.04688 -1.66754,0.05127 -2.5715,0.05731c-0.90005,0.00601 -1.80533,0.01987 -2.70001,0.1665c-0.90692,0.14862 -1.79556,0.42828 -2.39999,0.54935c-1.19266,0.23889 -2.09985,0.27017 -2.70001,0.27951c-1.2002,0.01868 -1.80975,-0.00919 -2.772,0.0405c-0.69946,0.03613 -1.87149,0.18008 -2.73334,0.31665c-0.89554,0.14191 -1.34219,0.23386 -2.22665,0.36334c-1.22287,0.17905 -2.30701,0.25433 -2.98267,0.30933c-0.66837,0.05441 -1.70782,0.19077 -2.82132,0.39999c-0.77539,0.14569 -1.56171,0.32025 -2.76401,0.45334c-0.7981,0.08835 -1.60086,0.10977 -2.39999,0.17401c-1.20154,0.09659 -1.99863,0.22437 -2.77869,0.37265c-0.75064,0.14267 -1.44382,0.33765 -2.65198,0.48935c-0.74542,0.0936 -1.45203,0.08466 -2.45334,0.08533c-0.81601,0.00055 -1.63202,0 -2.85886,0c-0.64648,0 -1.65717,0 -2.45715,0c-1,0 -1.83078,0.16373 -2.83334,-0.16666c-0.71698,-0.23627 -1.47031,-0.96902 -2.22916,-1.33334c-0.69443,-0.3334 -1.57845,-0.60645 -2.24733,-0.79999c-1.07256,-0.31036 -1.81007,-0.49106 -2.86867,-0.80002c-0.666,-0.19437 -1.61127,-0.49869 -2.22017,-0.69998c-1.20219,-0.39743 -1.80133,-0.60001 -2.70134,-0.90002c-0.89999,-0.29999 -1.79697,-0.59573 -2.37917,-0.79999c-0.83766,-0.29388 -1.84148,-0.68716 -2.71016,-1.10001c-0.81647,-0.388 -1.6153,-0.81335 -2.26784,-1.10001c-0.95557,-0.41977 -1.75749,-0.69998 -2.533,-1l-0.86665,-0.39999l-0.68584,-0.5" id="svg_5" stroke-width="2" stroke="#000" fill="none"/>
  <path t="13766,13776,13776,13776,13776,13776,13789,13789,13806,13823,13839,13856,13872,13892,13920,13944,13944,13955,13972,13988,14008,14040,14040,14047,14064,14072,14108,14115,14128,14128,14144,14168,14211,14228,14244,14244,14248" d="m397,184c1.07468,0.284 1.53003,0.35474 2.54166,0.5c0.52753,0.07574 1.55637,0.22116 2.82916,0.37866c0.80212,0.09926 1.37863,0.59505 1.63367,1.41684c0.23682,0.76308 0.98508,1.22514 0.99551,2.10449c0.01068,0.89995 0.22104,1.886 -0.2215,2.69984c-0.40372,0.74245 -1.3963,0.89175 -2.1785,1.3255c-0.82016,0.45479 -1.70001,0.57466 -2.60001,0.57466c-0.79999,0 -1.81848,-0.05243 -1.99866,-0.80133c-0.2146,-0.89198 -0.94046,-1.41389 -1.00134,-2.29868c-0.0618,-0.89787 -0.01801,-1.70018 0,-2.59999c0.01801,-0.90054 0.436,-1.68933 1.20001,-2.216l0.79999,-0.25067l0.70001,-0.48067l0.79999,-0.33183" id="svg_6" stroke-width="2" stroke="#000" fill="none"/>
 </g>
 <g display="none">
  <title>muse_image</title>
  <image xlink:href="http://farm3.static.flickr.com/2312/2489835057_e470f5c00e.jpg" id="muse" height="426" width="640" y="27" x="0"/>
 </g>
 <g display="none">
  <title>bbox</title>
  <rect stroke="#f00" fill="none" stroke-width="3" height="248.18018" width="519.68" y="128.06306" x="15.36" id="bbox"/>
 </g>
</svg>
