<svg width="640" height="480" xmlns="http://www.w3.org/2000/svg" xmlns:svg="http://www.w3.org/2000/svg" xmlns:xlink="http://www.w3.org/1999/xlink">
 <!-- Sketchy ANNOTATION
  ImageNet ID: n01592084_1380
  URL: http://farm4.static.flickr.com/3123/2464775874_43186209f3.jpg
  Image Width: 500
  Image Height: 400
  BBox X: 18
  BBox Y: 135
  BBox Width: 345
  BBox Height: 235
  Exposure: 2000ms
  Synset Label: songbird
  Synset ID: n01526521
  Worker Tag: chubby brown bird
  Sanity Check: 
   Saved
  Comment: 
   {}
  Worker ID: A1VGZ2K3HF66TE
  Assignment ID: 3PB5A5BD0V6G505TRXDBP59PNBU7GB
  HIT ID: 388FBO7JZRT37SKMB8B43I7YPDAYN1
  Work Time: 258s
  Worker Score: 0.7143
 END ANNOTATION -->
 <g display="inline">
  <title>Layer 1</title>
  <path t="0,132,133,133,133,133,134,134,134,134,164,165,165,165,165,165,165,166,166,210,211,211,211,212,212,213,214,220,228,229,229,229,229,229,229,230,230,247,247,248,248,248,248,248,249,249,265,266,266,266,267,267,267,267,267,278,279,279,279,279,279,280,280,280,319,319,320,320,320,320,320,321,322,335,336,336,336,336,336,337,337,337,349,350,350,351,351,351,351,352,352,362,362,362,363,363,363,364,364,364,378,379,379,379,379,380,380,380,381,412,413,413,414,414,414,415,415,415,428,429,429,430,432,432,433,433,433,486,487,487,488,489,490,495,495,496,503,504,504,505,505,506,506,506,507,521,522,522,522,523,523,523,524,524,534,538,539,539,540,540,561,562,563" d="m357,202c-0.66666,-10.33333 -0.86359,-11.22105 -1.14532,-12.056c-0.27472,-0.81415 -0.61057,-1.58907 -1.00052,-2.319c-0.38525,-0.72113 -0.82004,-1.41031 -1.31549,-2.049c-0.99268,-1.27971 -1.59192,-1.84665 -2.20532,-2.40668c-0.62827,-0.57358 -1.31647,-1.12219 -2.0625,-1.6485c-0.78043,-0.55055 -1.63083,-1.08798 -2.5575,-1.6035c-2.02393,-1.12595 -3.17889,-1.65001 -4.38934,-2.19333c-1.25317,-0.5625 -2.55276,-1.10089 -3.88651,-1.599c-1.3371,-0.49934 -2.6777,-0.9642 -4.02151,-1.32899c-2.56537,-0.69638 -3.80695,-0.87686 -5.00531,-0.992c-1.17621,-0.11301 -2.36008,-0.12704 -3.55652,-0.054c-1.23495,0.07539 -2.522,0.24197 -3.87149,0.48599c-2.99335,0.54128 -4.64291,0.96127 -6.40399,1.39467c-1.85849,0.45737 -3.79263,0.96956 -5.78702,1.53601c-2.05115,0.58258 -4.13834,1.20557 -6.237,1.896c-4.23596,1.39357 -6.31622,2.18765 -8.37732,2.992c-2.04596,0.79846 -4.05658,1.63199 -6.03149,2.487c-1.9491,0.84383 -3.8562,1.70354 -5.71652,2.577c-3.60614,1.69316 -5.32507,2.55365 -7.00266,3.39867c-1.64407,0.82813 -3.25052,1.6608 -4.82251,2.50349c-1.55466,0.83339 -3.08804,1.67784 -4.5975,2.54851c-3.01959,1.74174 -4.5098,2.66721 -6.00131,3.59866c-1.49115,0.93123 -2.96567,1.87805 -4.422,2.832c-1.44234,0.94479 -2.85799,1.88979 -4.242,2.832c-2.68111,1.82524 -3.96222,2.71954 -5.21068,3.616c-1.24358,0.89294 -2.48248,1.8161 -3.71399,2.802c-1.27298,1.0191 -2.57634,2.11903 -3.89401,3.342c-2.9016,2.69301 -4.4035,4.29723 -5.99199,5.98801c-1.65402,1.76054 -3.3185,3.60086 -4.989,5.4825c-1.67354,1.88506 -3.31105,3.76732 -4.899,5.61749c-2.98552,3.47853 -4.33058,5.08141 -5.58934,6.58401c-1.1844,1.41385 -2.29747,2.75795 -3.345,4.04849c-1.00565,1.23895 -1.97058,2.4467 -2.89499,3.64349c-1.82773,2.36629 -2.71812,3.58301 -3.60934,4.81334c-0.8958,1.23666 -1.77827,2.48769 -2.64149,3.7515c-0.86079,1.26024 -1.70277,2.52348 -2.5065,3.79649c-1.5793,2.50146 -2.29628,3.76004 -3.01067,5.004c-0.71329,1.24203 -1.41768,2.49887 -2.14951,3.76202c-0.74677,1.28894 -1.52101,2.60977 -2.3745,3.94199c-1.81534,2.83359 -2.88193,4.28925 -3.99867,5.79468c-1.15097,1.55157 -2.36186,3.11151 -3.60599,4.67999c-1.25186,1.57825 -2.52065,3.1394 -3.78601,4.67999c-2.45749,2.992 -3.6418,4.41437 -4.79066,5.78799c-1.1129,1.33063 -2.19963,2.61548 -3.2775,3.84451c-1.04903,1.19617 -2.08505,2.35226 -3.1425,3.43951c-2.05484,2.11276 -3.13292,3.07574 -4.22267,4.01865c-1.10226,0.9537 -2.26512,1.8902 -3.489,2.8335c-1.27989,0.98648 -2.65219,1.99759 -4.11899,3.0585c-3.24763,2.34897 -5.06499,3.63123 -6.98134,4.98935c-1.99092,1.41095 -4.03381,2.84906 -6.108,4.28549c-2.06717,1.43158 -4.10526,2.83215 -6.108,4.15051c-3.70691,2.44019 -5.40334,3.46826 -6.97867,4.38397c-1.44882,0.84216 -2.81332,1.56403 -4.08,2.21552l-1.18666,0.57651l-1.11667,0.5105l-1.05666,0.45349" id="svg_1" stroke-width="2" stroke="#000" fill="none"/>
  <path t="1175,1378,1378,1378,1378,1378,1379,1379,1379,1397,1398,1398,1398,1398,1398,1398,1398,1398,1413,1413,1413,1413,1414,1465,1465,1466,1514,1529,1530,1546,1546,1547,1547,1547,1547,1547,1547,1547,1562,1563,1563,1563,1563,1563,1563,1564,1564,1598,1598,1598,1599,1599,1599,1599,1599,1607,1619,1622,1622,1623,1623,1623,1623,1637,1637,1637,1638,1638" d="m354,199c9.45715,0.0005 10.23071,-0.00063 10.99017,0.0135c0.7486,0.01393 1.48959,0.03996 2.22449,0.0945c0.73425,0.05447 1.4747,0.11031 2.952,0.392c0.75827,0.14458 1.51587,0.34622 2.27701,0.5535c0.76157,0.2074 1.51361,0.4295 2.259,0.63451c0.72931,0.20058 1.42773,0.47322 3.43167,0.72617c0.59735,0.07539 1.68454,0.07141 2.15732,0.02333c1.11243,-0.11314 1.68918,-0.07553 2.23334,0.26784c0.77011,0.48593 2.54147,0.61707 2.4165,1.30367c-0.12402,0.68152 -2.10812,0.32458 -2.81949,0.43367c-0.81927,0.12563 -1.72452,0.26373 -2.694,0.40799c-1.0112,0.15045 -2.04233,0.30098 -3.07202,0.444c-1.005,0.13959 -2.85559,0.37547 -3.66315,0.46284c-0.72983,0.07896 -1.39651,0.13969 -2.01151,0.2025c-0.57736,0.05898 -1.1304,0.11943 -1.66949,0.2025c-0.54233,0.08356 -1.68011,0.33147 -2.29767,0.50133c-0.65598,0.18044 -1.33722,0.39352 -2.04752,0.6015c-1.47101,0.43069 -2.22302,0.63972 -2.98666,0.79733c-1.50562,0.31076 -2.25708,0.36456 -2.98932,0.39999c-0.71503,0.03461 -1.41205,0.02774 -2.08652,0.01651c-1.27109,-0.02116 -1.87146,-0.12451 -3.41867,0.08499c-0.45279,0.06131 -1.2735,0.32251 -2.05081,0.59584l-0.78534,0.27333" id="svg_2" stroke-width="2" stroke="#000" fill="none"/>
  <path t="1930,2112,2112,2112,2112,2112,2112,2128,2129,2129,2129,2129,2130,2167,2167,2167,2167,2167,2197,2197,2197,2197,2197,2202,2203,2203,2203,2212,2212,2212,2213,2213,2213,2213,2233,2233,2234,2234,2262,2263,2263,2263,2263,2263,2280,2281,2281,2281,2282,2282,2282,2284,2284,2297,2298,2298,2298,2299,2323,2323,2323,2324,2324,2324,2345,2345,2346,2346,2346,2364,2364,2365,2365,2365,2365,2366,2381,2382,2384,2385,2415,2416,2416,2416,2416,2454,2454,2455" d="m353,203c0.87851,9.67149 0.91891,10.29182 0.94284,10.8705c0.04413,1.06671 0.05405,2.07401 0.05582,2.5775c0.00571,1.61581 0.00134,2.20267 0.00134,2.8055c0,1.22568 0,1.8345 0,2.43134c0,1.6485 0,2.1295 0,2.9955c0,1.149 0,1.88501 0,3.06233c0,0.86267 0,1.308 0,2.20668c0,0.88266 0,2.10832 0,2.85432c0,0.73801 0.00043,1.51601 0,2.86301c-0.00018,0.51866 -0.00269,1.64417 -0.02133,2.23466c-0.03784,1.1978 -0.07111,1.79056 -0.14932,2.36267c-0.2132,1.55942 -0.51123,2.42961 -0.89185,3.17349c-0.36874,0.72063 -1.09839,1.7334 -1.35999,2.08366c-0.54971,0.73608 -1.20691,1.47627 -1.60419,1.8175c-0.85321,0.73285 -1.96591,1.34462 -2.60132,1.618c-0.66867,0.28769 -1.38474,0.53076 -2.12402,0.75c-0.74484,0.22089 -1.49435,0.40714 -2.23199,0.57001c-0.71051,0.15688 -2.58719,0.48302 -3.108,0.55666c-0.92343,0.13055 -1.76111,0.21417 -2.556,0.42c-1.3345,0.34557 -1.80453,0.59595 -2.828,1.01201c-0.52426,0.21313 -1.5585,0.64244 -2.07199,0.79733c-1.37112,0.4136 -2.2048,0.44057 -2.99365,0.37483c-0.83359,-0.06946 -1.27811,-0.18985 -2.86502,-0.31599c-0.61246,-0.04869 -1.25653,-0.0687 -1.91998,-0.08551c-1.3465,-0.03415 -2.01001,-0.03284 -2.65335,-0.03467c-1.71283,-0.00488 -2.19598,-0.00133 -3.06131,-0.00133c-0.77734,0 -2.29202,0 -3.12003,0c-0.42148,0 -1.2345,0 -2.24399,0l-0.94415,0l-0.8385,0l-0.67068,0" id="svg_3" stroke-width="2" stroke="#000" fill="none"/>
  <path t="2729,3161,3162,3178,3178,3178,3178,3178,3179,3179,3194,3195,3195,3195,3195,3196,3196,3213,3214,3214,3214,3214,3246,3246,3246,3247,3247,3278,3279,3279,3279,3279,3279,3279,3279,3285,3286,3286,3286,3287,3287,3287,3294,3295,3295,3295,3296,3296,3331,3331,3332,3332,3332,3332,3351,3351,3352,3352,3352,3352,3353,3362,3363,3363,3363,3363,3364,3364,3394,3395,3395,3395,3396,3396,3413,3414,3414,3414,3415,3415,3452,3453,3455,3455,3456,3456,3456,3480,3481,3481,3482,3483,3483,3517,3518,3518,3518,3519,3524,3524,3525,3525,3526,3526,3526,3527,3527,3545,3546,3546,3547,3547,3548,3548,3548,3549,3562,3563,3564,3565,3565,3566,3567,3568,3581,3582,3583,3583,3583,3584,3584,3584,3615,3616,3616,3617,3617,3625,3626,3626,3627,3627,3627,3628,3706,3707,3707,3708,3708,3708,3709,3709,3741,3741,3742,3742,3743,3743,3744,3745,3746,3761,3762,3762,3763,3764,3764,3765,3765,3765,3771,3772,3772,3772,3773,3773,3773,3774,3774,3779,3780,3780,3781,3781,3782,3782,3783,3783,3813,3814,3814,3815,3816,3816,3818,3818,3819,3828,3829,3830,3831,3832,3833,3833,3834,3834,3846,3847,3847,3848,3849,3849,3852,3852,3853" d="m326,248c-4.29733,7.32533 -4.53494,8.16843 -5.16666,9c-0.26248,0.34552 -1.02188,1.13202 -1.46402,1.58401c-0.4707,0.4812 -0.96695,0.97723 -1.48648,1.4715c-1.53476,1.46011 -2.03802,1.88205 -2.51083,2.28983c-0.45163,0.3895 -1.31223,1.10986 -1.71466,1.45865c-0.7746,0.67133 -1.84183,1.71176 -2.17068,2.08002c-0.65234,0.73047 -1.2439,1.4877 -1.52499,1.86334c-0.80634,1.07761 -1.26773,1.78159 -1.77899,2.43799c-0.53629,0.68854 -0.83063,1.05978 -2.01602,2.14801c-0.46124,0.42343 -0.98718,0.83911 -1.54349,1.272c-0.57825,0.44998 -1.17926,0.90366 -2.43134,1.78931c-0.62466,0.44186 -1.85718,1.27399 -2.44867,1.66235c-0.56992,0.37421 -1.12387,0.7294 -1.66049,1.07098c-1.02444,0.65207 -1.52417,0.95135 -2.91602,1.87201c-0.44766,0.29611 -1.30936,0.89569 -1.73065,1.18933c-0.82507,0.57504 -1.62622,1.13864 -2.436,1.64401c-0.79459,0.49588 -1.61981,0.94418 -2.04166,1.16666c-0.86957,0.45859 -1.32813,0.68576 -2.80133,1.42133c-0.52737,0.26331 -1.06876,0.53671 -2.19867,1.07867c-0.57837,0.2774 -1.16422,0.55441 -1.76102,0.81601c-1.78796,0.78375 -2.39502,1.00125 -2.99283,1.22684c-0.59286,0.22372 -1.7684,0.64673 -2.34732,0.85266c-0.57175,0.2034 -2.23642,0.80258 -2.77185,1.00449c-1.05075,0.39621 -1.56485,0.59906 -2.07465,0.80002c-1.01007,0.39813 -2.0112,0.79871 -3.01202,1.20132c-0.50342,0.20251 -1.52048,0.61719 -2.03467,0.83466c-1.05133,0.44461 -2.13065,0.93069 -2.68533,1.18484c-1.13132,0.51837 -1.70129,0.77893 -2.27866,1.01666c-0.57208,0.23557 -1.70154,0.6904 -2.83334,0.89584c-1.07022,0.19424 -1.6051,0.1629 -2.625,0.14581c-0.49512,-0.0083 -1.46696,-0.12808 -2.82098,0.08536c-0.89876,0.14166 -1.34009,0.33746 -2.29001,0.66748c-0.51314,0.17828 -2.26218,0.7742 -2.93817,0.96783c-0.7173,0.20544 -1.47708,0.40085 -2.27249,0.58951c-0.82292,0.19519 -1.67238,0.37943 -2.5425,0.5535c-0.88321,0.1767 -2.67693,0.49411 -3.57684,0.63583c-0.89476,0.1409 -1.7827,0.26849 -2.65799,0.396c-0.85938,0.12518 -1.69934,0.24643 -2.51401,0.37799c-0.78801,0.12726 -2.26382,0.40616 -2.94299,0.56866c-0.64883,0.15524 -1.26692,0.32825 -1.86301,0.50403c-0.58189,0.1716 -1.15007,0.35577 -1.71899,0.52197c-1.73135,0.50577 -2.34534,0.63519 -2.97034,0.76868c-0.63335,0.13525 -1.91289,0.38208 -2.54666,0.50934c-0.62456,0.12543 -1.24486,0.21634 -2.92267,0.69568c-0.51588,0.1474 -1.48224,0.50201 -2.44,0.78165c-0.47929,0.13992 -2.02335,0.40961 -2.58833,0.43335c-0.58994,0.02481 -1.83301,-0.01221 -2.47734,-0.03601c-0.65433,-0.02417 -1.31781,-0.11908 -3.29166,0c-0.64786,0.03909 -1.28816,0.14645 -1.92751,0.267c-0.64745,0.12207 -1.97211,0.43073 -2.66333,0.58932c-0.71542,0.16412 -2.2415,0.48285 -3.063,0.62283c-0.86247,0.14697 -1.77315,0.28073 -2.73151,0.42752c-1.01065,0.15482 -2.07715,0.31992 -3.19949,0.51749c-1.18578,0.20874 -3.7507,0.73312 -5.13217,1.06168c-1.44803,0.34436 -2.94653,0.7338 -4.491,1.14749c-1.58492,0.42453 -3.19746,0.87283 -4.83299,1.32751c-1.64981,0.45868 -4.95822,1.37537 -6.60268,1.81732c-1.62489,0.43668 -3.22495,0.85712 -4.791,1.2645c-1.5233,0.39627 -2.99733,0.77466 -4.41299,1.13849c-1.34967,0.34686 -3.81953,0.98346 -4.925,1.27585c-1.02251,0.27045 -1.96689,0.52548 -2.838,0.771c-0.80684,0.22742 -1.55333,0.44641 -2.244,0.66299c-0.64526,0.20233 -1.81332,0.60547 -2.3485,0.80902c-0.51682,0.19656 -1.0186,0.401 -1.5195,0.59998c-0.50609,0.20102 -1.02617,0.40509 -1.5735,0.60001c-0.57661,0.20535 -1.86871,0.60666 -2.59917,0.79984c-0.77882,0.20596 -1.60426,0.40045 -2.466,0.58951c-0.88759,0.19473 -1.79662,0.37839 -2.718,0.5535c-0.92395,0.1756 -2.75369,0.49234 -3.644,0.63599c-0.86971,0.14032 -1.72043,0.27042 -2.55,0.40652c-0.81042,0.13297 -1.59999,0.276 -2.37,0.4245l-0.75,0.15948" id="svg_4" stroke-width="2" stroke="#000" fill="none"/>
  <path t="4426,4646,4646,4647,4647,4647,4647,4647,4662,4662,4662,4662,4662,4663,4663,4663,4663,4696,4697,4697,4697,4697,4697,4698,4698,4698,4729,4729,4729,4730,4730,4730,4730,4730,4730,4749,4749,4749,4749,4750,4750,4750,4750,4751,4766,4766,4767,4767,4767,4768,4780,4829,4868,4869,4869,4869,4870,4870,4870,4879,4879,4880,4880,4881,4881,4881,4882,4882,4910,4911,4911,4911,4912,4912,4912,4913,4913,4918,4919,4919,4920,4920,4920,4921,4921,4921,4947,4948,4948,4948,4949,4949,4962,4962,4981,4982,4982,4982,4983,4997,5029,5030,5045,5046,5046,5047,5047,5048,5048,5050,5078,5079,5079,5079,5080,5080,5080,5080,5081,5089,5090,5101,5103,5103,5104,5104,5104,5105,5113,5114,5114,5115,5116,5116,5117,5117,5128,5184,5185,5185,5221,5222,5222,5223,5223,5223,5223,5224,5224,5249,5250,5251,5252,5252,5252,5253,5253,5255,5286,5287,5287,5288,5288,5288,5289,5289,5289,5313,5314,5314,5315,5315,5315,5316,5316,5317,5322,5323,5324,5325,5326,5326,5327,5327,5328,5359,5361,5363,5364,5365,5365,5366,5366,5367,5390,5394,5395,5396,5396,5397,5398,5398,5399,5410,5412,5412,5413,5413,5413,5414,5414,5415,5435,5436,5436,5437,5437,5438,5438,5439,5440,5464,5465,5466,5466,5467,5468,5469,5470,5470,5476,5477,5478,5478,5479,5479,5480,5480,5485,5486,5487,5488,5489,5490,5491,5515,5516,5517,5517,5518,5518,5519" d="m287,287c0.00049,11.42932 -0.00101,12.12808 0.01349,12.77866c0.01376,0.6188 0.08621,1.82492 0.15802,2.44269c0.07574,0.65173 0.32416,2.11285 0.49231,2.94998c0.18216,0.90695 0.39188,1.86755 0.6015,2.87399c0.21609,1.03757 0.43158,2.09439 0.61951,3.16202c0.18668,1.06049 0.46518,3.12479 0.52933,4.10733c0.06192,0.94843 0.07181,1.87482 0.05252,2.784c-0.01913,0.90161 -0.07135,1.8028 -0.1275,2.71201c-0.05716,0.92545 -0.17749,2.85577 -0.21768,3.87399c-0.04129,1.04581 -0.06726,2.10794 -0.08548,3.17401c-0.01807,1.05795 -0.02679,2.09601 -0.03152,3.10199c-0.00455,0.96201 -0.00449,2.70599 -0.00449,3.46716c0,0.68817 0,1.31033 0,1.8735c0,0.51117 0,0.97733 0,1.40552c0,0.39716 0,1.1265 0,1.47098c0,0.33151 0,0.647 0,0.94351c0,0.27451 -0.16321,1.18912 0.34299,0.70715c0.79904,-0.7608 1.37766,-0.68353 2.31567,-1.17917c0.55164,-0.29147 1.15155,-0.62149 1.797,-0.99149c0.69604,-0.39902 2.21426,-1.3194 3.02933,-1.84351c0.85178,-0.5477 1.7204,-1.12863 2.595,-1.737c0.88214,-0.61359 1.75168,-1.24133 2.595,-1.88101c0.8233,-0.62451 2.33209,-1.85504 2.99634,-2.45316c0.6261,-0.56375 1.19778,-1.12122 1.73401,-1.66049c0.51431,-0.51721 1.0004,-1.02756 1.48199,-1.51651c0.47311,-0.48035 1.44043,-1.40601 1.95535,-1.84467c0.51978,-0.44278 1.06046,-0.86719 1.60797,-1.28549c0.54715,-0.41803 1.09943,-0.82437 1.64401,-1.23151c0.53802,-0.40222 1.57529,-1.2005 2.06168,-1.60367c0.47089,-0.39032 0.91327,-0.77612 1.71866,-1.49667c0.68903,-0.61646 1.44833,-1.29233 2.14584,-1.60416c0.80176,-0.35843 1.40298,-0.71298 2.09515,-1.22665c0.72684,-0.53937 2.76596,-0.7706 2.21417,-1.608c-0.47043,-0.7139 -1.2673,0.67526 -2.16351,1.00131c-1.30365,0.47427 -2.09067,0.75845 -2.952,1.06668c-0.92264,0.33017 -1.89539,0.67514 -2.90698,1.0275c-1.03638,0.36099 -3.14032,1.07465 -4.18552,1.41766c-1.03079,0.33829 -2.04715,0.66385 -3.04349,0.9855c-0.97467,0.31467 -1.92514,0.62192 -2.84552,0.93149c-0.8916,0.2999 -2.56891,0.89832 -3.34683,1.20435c-0.74466,0.29294 -1.45059,0.59131 -2.121,0.8895c-0.64218,0.28564 -1.25174,0.57239 -1.83298,0.85352c-0.5574,0.26962 -1.599,0.79047 -2.08868,1.03531c-0.46765,0.23383 -0.91132,0.45569 -1.32898,0.66452c-0.38968,0.19482 -0.74936,0.37466 -1.07703,0.53848c-0.771,0.3855 -1.35666,0.71884 -0.78964,0.71884c0.888,0 2.35199,0 3.33731,0c1.13736,0 2.39868,0 3.75601,0c1.42532,0 2.89066,0 4.36801,0c1.46133,0 4.224,0.00107 5.47665,-0.00034c1.16867,-0.00131 2.26941,-0.0043 3.31799,-0.021c1.01273,-0.01611 2.00565,-0.04401 2.99402,-0.09299c1.00104,-0.04959 3.10254,-0.21338 4.22916,-0.32834c1.17078,-0.11948 2.36664,-0.26022 3.5715,-0.40802c1.19748,-0.14688 2.36929,-0.29886 3.49951,-0.444c1.07114,-0.13754 2.96808,-0.37561 3.76483,-0.46231c0.694,-0.07553 1.2944,-0.13196 1.80899,-0.17102c0.43613,-0.03311 0.80258,-0.05295 1.10699,-0.06299c0.25027,-0.00824 0.62112,-0.01364 0.75385,-0.008c0.09,0.00385 0.12927,0.03229 0.0885,0.06299c-0.10553,0.07947 -0.32861,0.1539 -0.64951,0.27899c-0.44016,0.1716 -1.73837,0.65735 -2.61533,0.98569c-1.0177,0.38104 -2.1572,0.80661 -3.40051,1.26599c-1.32632,0.49005 -2.71774,0.99985 -4.15649,1.51801c-1.46393,0.52722 -4.39792,1.55862 -5.83417,2.04382c-1.40115,0.47336 -2.76956,0.92126 -4.104,1.33951c-1.293,0.40524 -2.54739,0.78156 -3.76199,1.1235c-1.16681,0.32849 -3.36438,0.88763 -4.39084,1.11615c-0.97235,0.21646 -1.89532,0.39911 -2.7645,0.56702c-0.81451,0.15735 -1.57565,0.29645 -2.2785,0.44098c-0.6478,0.13321 -1.77008,0.40973 -2.23566,0.57751c-0.41562,0.14978 -0.77197,0.31409 -1.06052,0.4935c-0.24719,0.15372 -0.44159,0.31134 -0.55649,0.47549c-0.09219,0.13171 -0.09375,0.39041 -0.00519,0.46683c0.10632,0.09174 0.28116,0.13669 0.483,0.17102c0.23294,0.03961 0.49857,0.05386 0.789,0.06299c0.31226,0.0098 0.987,0.009 1.34216,0.009c0.36618,0 0.74435,0 1.13553,0c0.40515,0 0.82532,0 1.71466,0c0.96133,0 2,0 2.54681,0c1.14368,0 1.73853,0 2.34735,0c0.62183,0 2.55515,0 3.21783,0c0.66867,0 1.34134,0 2.01599,0l1.34732,0l0.66867,0" id="svg_5" stroke-width="2" stroke="#000" fill="none"/>
  <path t="5872,6078,6078,6078,6078,6078,6078,6078,6078,6078,6095,6095,6095,6095,6095,6096,6096,6096,6097,6111,6111,6112,6112,6112,6112,6112,6112,6112,6129,6129,6129,6129,6130,6130,6130,6130,6130,6163,6164,6164,6164,6164,6179,6247,6248,6248,6249,6249,6265,6265,6266,6266,6266,6266,6266,6267,6267,6279,6279,6280,6281,6281,6281,6282,6282,6282,6313,6313,6313,6314,6314,6314,6314,6315,6315,6330,6330,6331,6331,6331,6332,6332,6332,6333,6346,6346,6347,6347,6347,6347,6348,6348,6362,6395,6396,6412,6413,6414,6414,6414,6414,6415,6415,6415,6430,6431,6431,6431,6432,6432,6432,6432,6433,6445,6446,6446,6447,6447,6447,6448,6484,6485,6485,6499,6511,6528,6529,6530,6530,6531,6531,6532,6563,6564,6565,6565,6565,6566,6566,6567,6579,6580,6580,6583,6584,6585,6585,6586" d="m294,285c3.83334,9.33334 4.17603,10.11633 4.51868,10.86667c0.33475,0.733 0.67523,1.45435 1.02298,2.17499c0.35355,0.73273 0.7243,1.48386 1.11301,2.26501c0.84311,1.69443 1.31067,2.62094 1.79599,3.60001c0.50439,1.01755 1.01865,2.06476 1.5285,3.13498c0.51285,1.07645 1.0174,2.15152 1.48352,3.22501c0.89322,2.05704 1.25858,3.0441 1.59732,3.98666c0.32257,0.89758 0.60751,1.75974 0.8775,2.58002c0.25665,0.77972 0.49051,1.52393 0.74249,2.22c0.46613,1.28763 0.73254,1.86472 1.00269,2.40399c0.25732,0.51367 0.5282,0.99023 0.79648,1.43851c0.25592,0.42764 0.51425,0.82697 0.7515,1.2135c0.44208,0.72031 0.63278,1.06537 0.79736,1.40134c0.30148,0.61548 0.30139,1.57925 0.93597,2.38132c0.51486,0.65073 1.47357,0.84521 2.22351,1.0455c0.90329,0.24124 1.44653,0.29971 2.64584,0.22916c0.67722,-0.03986 1.39764,-0.18118 2.15698,-0.35699c0.80377,-0.1861 1.63715,-0.42673 2.49899,-0.69901c0.89297,-0.2821 1.80624,-0.59277 3.67734,-1.27731c0.95621,-0.34982 1.91599,-0.7153 2.87701,-1.09052c0.96164,-0.37546 1.91641,-0.75946 2.85901,-1.1535c0.93207,-0.38965 1.85056,-0.7735 3.59732,-1.58932c0.83954,-0.39212 1.6485,-0.79657 2.43301,-1.20901c0.77283,-0.40631 1.52872,-0.82684 2.271,-1.26297c0.74307,-0.43658 1.48639,-0.88486 2.96265,-1.86136c0.75858,-0.50177 1.51227,-1.02841 2.26352,-1.5585c0.74341,-0.52457 1.46591,-1.04529 2.16449,-1.5495c0.66708,-0.48148 1.2894,-0.94214 2.40533,-1.72531c0.46829,-0.32864 0.88193,-0.60721 1.2435,-0.8385c0.30676,-0.19626 0.56674,-0.35312 0.78452,-0.46951c0.17178,-0.0918 0.42975,0.13617 -0.27802,0.57883c-0.4595,0.28738 -1.9166,0.89597 -2.62817,1.22418c-0.82043,0.37845 -1.72879,0.79712 -2.7045,1.245c-1.02127,0.46881 -2.06757,0.9476 -3.1185,1.42499c-1.03308,0.46927 -2.96472,1.33673 -3.82666,1.71567c-0.78751,0.34622 -1.51001,0.65814 -2.17349,0.94202c-0.61087,0.26138 -1.17755,0.50076 -1.70551,0.72598c-0.49738,0.21216 -1.42719,0.61652 -1.87149,0.81784c-0.4357,0.19742 -0.86011,0.39545 -1.27502,0.58951c-0.80017,0.37427 -1.55347,0.74066 -2.62448,1.189c-0.64322,0.26926 -2.33499,0.28079 -2.10217,1.02032c0.22006,0.69901 1.61334,0.00134 2.56134,0.00134c0.5715,0 1.8645,0 2.56799,0c0.72949,0 1.47601,0.00034 2.98401,0c0.74515,-0.00018 1.48135,0.0004 2.2095,-0.009c0.72119,-0.00931 1.4375,-0.01236 2.85266,-0.10532c0.70389,-0.04623 2.10574,-0.21136 2.80383,-0.32819c0.69662,-0.11655 1.38266,-0.25833 2.05798,-0.39749l1.29868,-0.27335l0.61533,-0.12415l0.58734,-0.10919" id="svg_6" stroke-width="2" stroke="#000" fill="none"/>
  <path t="7069,8045,8099,8114,8115,8115,8128,8145,8187,8188,8188,8200,8200,8200,8212,8212,8213,8229,8361,8362,8379,8379,8379,8379,8380,8412,8413,8478,8513,8513,8513,8531,8548,8578,8578,8579,8579,8612,8623,8646,8646,8646,8646,8646,8663,8679,8680,8680,8680,8696,8697,8697,8725" d="m325,194c-3.65866,7.31734 -3.91666,8 -3.11465,8c0.81598,0 1.80951,0.46323 2.77332,0c0.49246,-0.23669 0.35992,-1.41994 0.30933,-2.116c-0.05258,-0.72342 -0.39127,-2.05284 -1.03949,-2.2455c-0.72906,-0.21669 -1.92554,0.22191 -2.806,0.30434c-0.74072,0.06935 -0.79019,0.43175 -0.03915,-0.08867c0.42743,-0.29619 0.80142,-1.4034 1.32281,-2.31384c0.2843,-0.49644 0.56976,-1.00053 1.12601,-1.95734c0.63083,-1.08513 0.74677,-1.14153 0.35352,-0.35432c-0.45334,0.9075 -0.73636,1.47267 -1.18036,2.36067c-0.46231,0.92467 -0.41913,1.52408 0.40118,1.85333c0.65262,0.26193 1.40195,0.49406 2.38815,0.98933c0.93262,0.46837 0.5076,0.16783 0.50534,-0.981c-0.00085,-0.43634 0,-1.407 0,-2.40167c0,-0.89067 0.06818,-1.79195 -0.66666,-1.38266c-0.68887,0.3837 -1.73984,0.32042 -2.45334,0.33066c-1.05759,0.01517 -1.99066,0.00267 -2.68967,0.00267l0.24567,0" id="svg_7" stroke-width="2" stroke="#000" fill="none"/>
 </g>
 <g display="none">
  <title>muse_image</title>
  <image xlink:href="http://farm4.static.flickr.com/3123/2464775874_43186209f3.jpg" id="muse" height="480" width="600" y="0" x="20"/>
 </g>
 <g display="none">
  <title>bbox</title>
  <rect stroke="#f00" fill="none" stroke-width="3" height="282" width="414" y="162" x="41.6" id="bbox"/>
 </g>
</svg>
