<svg width="640" height="480" xmlns="http://www.w3.org/2000/svg" xmlns:svg="http://www.w3.org/2000/svg" xmlns:xlink="http://www.w3.org/1999/xlink">
 <!-- Sketchy ANNOTATION
  ImageNet ID: n01534433_15432
  URL: http://farm3.static.flickr.com/2295/2381944505_1292d190b5.jpg
  Image Width: 500
  Image Height: 333
  BBox X: 33
  BBox Y: 77
  BBox Width: 318
  BBox Height: 214
  Exposure: 2000ms
  Synset Label: songbird
  Synset ID: n01526521
  Worker Tag: Bird
  Sanity Check: 
   Saved
  Comment: 
   {}
  Worker ID: AIH9VLD92GHFH
  Assignment ID: 3WSELTNVR322T7PXI0O2YFQ4F1NAT6
  HIT ID: 30Z7M1Q8UYKH83ZFP085IZZWXRAA8H
  Work Time: 96s
  Worker Score: 0.7143
 END ANNOTATION -->
 <g display="inline">
  <title>Layer 1</title>
  <path t="0,179,181,181,194,194,194,195,210,211,211,211,211,228,234,234,234,245,245,245,261,261,261,277,277,277,294,294,295,310,310,326,376,510,514,526,527,543,544,544,560,560,560,560,576,577,577,593,594,594,610,610,610,610,653,653,653,655,655,661,661,693" d="m344,181c3.60132,0 4.52084,0 5.15717,0c1.36435,0 2.10001,0 2.86368,0c0.78366,0 1.97916,0 2.77914,0c0.80002,0 1.60001,0 2.40002,0c1.19965,0 1.991,0 2.75833,0c0.72733,0 1.99881,0 2.78033,0c0.7095,0 1.94666,0 2.49731,0c0.8685,0 2.06384,0 2.95334,0c0.57468,0 1.64401,0 2.57468,0c0.83466,0 1.83148,0 2.57883,0c1.02118,0 1.96167,0 2.82382,0c0.86401,0 0.45102,-0.01761 -0.28915,0.05716c-1.18277,0.11949 -1.79431,0.24635 -2.64151,0.58951c-1.10208,0.4464 -1.54114,0.85132 -2.23599,1.3325c-0.6738,0.46658 -1.68134,0.87616 -2.52084,1c-0.87708,0.12938 -1.79791,0.18024 -2.66849,0.47816c-0.87698,0.30013 -1.66476,0.85446 -2.358,1.5435c-0.4671,0.46426 -0.81189,1.08923 -1.87384,1.63483c-0.74469,0.38258 -1.61688,0.25497 -2.6095,0.64967c-0.77216,0.30704 -1.45334,0.91333 -2.31665,1.3575l-0.89551,0.3" id="svg_1" stroke-width="2" stroke="#000" fill="none"/>
  <path t="896,1126,1126,1145,1145,1145,1163,1163,1163,1176,1177,1177,1177,1177,1193,1194,1194,1209,1210,1210,1226,1227,1244,1244,1276,1293,1294,1394,1394,1409,1426,1427,1443,1443,1444,1444,1459,1460,1460,1476,1476,1476,1476,1493,1494,1494,1510,1526,1526" d="m352,206c0.33334,0.95334 1.07666,1.01836 2.07867,0.7785c0.94211,-0.22551 1.59842,-0.59766 2.608,-0.9785c0.55637,-0.20988 1.47253,-0.50829 2.47998,-0.8c0.71567,-0.20723 1.46243,-0.39857 2.20801,-0.636c0.74527,-0.23732 2.14145,-0.84137 2.77866,-1.17867c0.60266,-0.31902 1.66772,-0.89565 2.38953,-1.0755c0.84146,-0.20966 1.88025,-0.34285 2.62115,-0.7205c0.84647,-0.43147 1.36072,-1.13037 2.24667,-1.35333c0.88367,-0.22238 1.99261,0.10983 2.47501,-0.74583c0.31949,-0.56673 0.23099,-1.86325 -0.60901,-2.23749c-0.52551,-0.23413 -1.61191,-0.20967 -2.582,-0.40533c-0.69611,-0.14041 -1.38419,-0.32481 -2.65201,-0.52617c-0.78925,-0.12534 -1.56464,-0.17868 -2.68533,-0.56384c-0.6741,-0.23169 -1.35019,-0.5748 -2.052,-0.85199c-1.25021,-0.49377 -2.02267,-0.63333 -2.81732,-0.70267l-0.96716,-0.0235l-0.82535,-0.33183l-0.58084,-0.36334" id="svg_2" stroke-width="2" stroke="#000" fill="none"/>
  <path t="4761,4993,4993,5026,5044,5045,5059,5060,5076,5093,5109,5110,5126,5126,5143,5159,5176,5176,5193,5193,5193,5209,5210,5226,5226,5243,5243,5259,5260,5260,5276,5276,5276,5293,5293,5309,5309,5310,5326,5326,5327,5343,5359,5359,5360,5376,5376,5393,5393,5393,5409,5426,5426,5443,5443,5443,5459,5459,5460,5476,5476,5476,5493,5493,5493,5509,5509,5510,5526,5526,5526,5526,5543,5543,5543,5544,5559,5560,5560,5576,5576,5593,5593,5593,5594,5609,5610,5610,5626,5626,5626,5644,5644,5644,5659,5660,5676,5676,5676,5693,5693,5709,5710,5727,5727,5727,5727,5743,5743,5759,5760,5776,5776,5777,5794,5809,5809,5810,5826,5826,5874,5874,5876,5876,5878,5878,5878,5893,5893,5909,5909,5926,5926,5943,5944,5959,5960,5977,5977,5993,5993,5993,6011,6026,6026,6027,6043,6044,6059,6060,6060,6076,6076,6077,6109,6109,6110,6126,6126" d="m354,178c-4.228,1.82933 -5.14249,1.98933 -6.11465,2c-0.88528,0.00972 -1.64252,0 -2.71069,0c-0.69064,0 -1.65381,0.00017 -2.58533,0c-0.91049,-0.00017 -1.93225,0.12944 -2.41998,-0.56934c-0.46484,-0.66599 -0.49014,-1.97818 -1.26935,-2.30916c-0.83588,-0.35506 -1.72687,-0.13173 -2.668,-0.40817c-0.74371,-0.21846 -1.52826,-0.52238 -2.26266,-1.196c-0.64725,-0.59367 -1.27109,-1.35901 -1.96933,-1.47566c-0.96631,-0.16145 -1.81845,-0.06531 -2.76935,-0.32701c-0.75931,-0.20897 -1.55008,-0.51074 -2.54666,-0.91333c-0.68546,-0.2769 -1.36142,-0.55156 -2.36667,-0.71866c-0.7923,-0.1317 -2.01413,-0.37653 -2.51199,-0.78801c-0.65414,-0.54065 -1.56686,-1.16856 -2.30533,-1.25299c-0.7283,-0.08327 -1.84933,-0.04167 -2.83334,-0.04167c-0.672,0 -1.66132,0 -2.52399,0c-0.948,0 -1.91068,0 -2.64267,0c-0.73199,0 -1.83865,0 -2.8215,0c-0.69934,0 -1.6785,0 -2.48917,0c-0.87466,0 -1.87466,0 -2.71017,0c-0.88049,0 -1.77899,0 -2.66849,0c-0.85352,0 -1.88934,0 -2.58533,0c-0.90933,0 -1.91281,-0.02956 -2.74619,0.04167c-0.58603,0.05008 -1.78705,0.38437 -2.38367,0.66817c-0.94443,0.44925 -1.56528,0.84409 -2.61667,1.26866c-0.71729,0.28966 -1.45947,0.49585 -2.16898,0.717c-1.26956,0.39572 -2.02618,0.72673 -2.70084,0.94734c-0.99423,0.3251 -1.8728,0.34714 -2.60901,0.85716c-0.67624,0.46849 -1.19315,1.27461 -1.68533,1.64799c-0.92728,0.70345 -1.8436,0.73543 -2.54532,1.104c-0.88696,0.4659 -1.1983,1.32094 -1.73734,1.98134c-0.71359,0.8743 -1.53787,1.21263 -2.26401,1.564c-0.80676,0.39038 -1.56372,0.97264 -2.31067,1.524c-0.69922,0.51613 -1.22461,0.82904 -2.12399,1.51199c-0.67529,0.5128 -1.41351,1.2892 -2.00534,1.80267c-0.64047,0.55568 -1.34479,1.00609 -2.07733,1.57466c-0.49054,0.38074 -1.37097,1.13701 -1.79333,1.98933c-0.37793,0.76266 -0.21332,1.69649 -0.79068,2.63333c-0.39276,0.63728 -1.34244,0.79582 -2.01999,1.58801c-0.66986,0.7832 -0.56775,1.58722 -0.672,2.32799c-0.15677,1.11406 -0.62433,1.8394 -0.892,2.73466c-0.20209,0.67596 -0.69672,1.58797 -1.23199,2.17734c-0.57016,0.62779 -0.80692,1.58749 -0.84167,2.33333c-0.04825,1.03493 -0.009,1.888 -0.009,2.84134c0,0.76534 0,1.76401 0,2.564c0,1 0,1.8 0,2.79984c0,0.77934 0,1.77901 0,2.61c0,0.95818 0,1.69017 0,2.42216c0,1.11734 0,2.10133 0,2.77335c0,0.98932 -0.00198,1.85199 0,2.79999c0.00201,0.96268 -0.07324,1.74487 0.25601,2.42667c0.43417,0.89905 1.31671,1.19727 1.97733,1.73601c0.87534,0.71384 1.24582,1.532 1.51483,2.02666l0.73715,1.03334l0.53552,0.4095" id="svg_4" stroke-width="2" stroke="#000" fill="none"/>
  <path t="6437,6592,6593,6609,6626,6626,6642,6643,6658,6659,6659,6692,6725,6742,6775,6792,6808,6809,6825,6825,6842,6842,6843" d="m301,197c0.28534,7.60133 0.37613,8.56815 1.20132,8.91467c0.89349,0.37521 1.62402,0.08533 2.63202,0.08533c0.828,0 1.70932,0 2.66666,0c0.73199,0 1.8497,0.19188 2.69867,-0.00133c0.80429,-0.18304 0.98975,-1.32106 0.44415,-1.9505c-0.58325,-0.67288 -1.00748,-1.25879 -1.96432,-1.80518c-0.63196,-0.36087 -1.6785,-0.243 -2.48917,-0.243l-0.87466,0" id="svg_5" stroke-width="2" stroke="#000" fill="none"/>
  <path t="7327,7558,7558,7558,7575,7575,7592,7593,7608,7609,7642,7642,7642,7658,7659,7692,7708,7709,7725,7742,7742,7758,7775,7775,7792,7808,7808,7825,7825,7825,7842,7858,7858,7875,7875,7892,7893,7893,7908,7908,7925,7925,7941,7941,7942,7958,7958,7975,7975,7975,7992,7992,8008,8008,8025,8025,8042,8042,8043,8058,8059,8059,8059,8075,8075,8092,8092,8092,8092,8108,8109,8109,8109,8125,8125,8126,8142,8142,8142,8143,8158,8159,8159,8159,8159,8159,8175,8175,8175,8192,8192,8192,8193,8193,8208,8208,8209,8209,8209,8209,8225,8225,8225,8226,8226,8242,8242,8243,8243,8243,8243,8258,8259,8259,8259,8259,8260,8275,8275,8275,8276,8276,8276,8276,8292,8292,8292,8293,8293,8293,8308,8309,8309,8309,8309,8309,8310,8310,8325,8325,8326,8326,8326,8327,8342,8342,8343,8343,8343,8344,8358,8359,8360,8360,8360,8360,8381,8381,8381,8381,8381,8381,8381,8381,8400,8400,8400,8400,8400,8401,8401,8414,8415,8415,8415,8415,8415,8428,8428,8428,8429,8429,8429,8429,8446,8446,8446,8446,8446,8446,8447,8463,8463,8464,8464,8464,8464,8464,8464,8479,8479,8479,8479,8480,8480,8480,8492,8493,8493,8493,8493,8493,8493,8508,8509,8509,8509,8510,8510,8510,8525,8525,8526,8526,8526,8526,8527,8527,8546,8546,8546,8546,8546,8546,8546,8547,8565,8565,8565,8565,8565,8566,8566,8566,8585,8585,8585,8585,8586,8586,8586,8603,8604,8604,8604,8604,8605,8605,8605,8622,8622,8622,8622,8623,8623,8623,8639,8639,8640,8640,8640,8640,8641,8641,8657,8657,8657,8657,8657,8658,8658,8658,8674,8674,8674,8674,8674,8675,8675,8726,8726,8727,8727,8727,8727,8727,8728,8744,8744,8744,8745,8745,8745,8745,8745,8746,8767,8767,8768,8768,8768,8768,8768,8769,8769,8790,8791,8791,8791,8791,8792,8792,8792,8792,8812,8812,8812,8812,8813,8813,8813,8814,8814,8816,8816,8816,8817,8817,8817,8817,8818,8818,8821,8821,8822,8822,8822,8822,8823,8823,8823,8848,8848,8848,8848,8849,8849,8849,8849,8850,8852,8852,8852,8853,8853,8853,8853,8854,8854,8875,8875,8875,8876,8876,8876,8876,8876,8877,8878,8879,8879,8879,8879,8880,8880,8880,8880,8900,8900,8900,8901,8901,8901,8901,8902,8902" d="m358,211c-2.74399,4.51199 -2.93378,5.13901 -2.98651,5.98117c-0.06567,1.04886 -0.01349,1.98683 -0.01349,2.78683c0,0.98132 0,1.89867 0,2.73199c0,1.04266 0,1.75067 0,2.49466c0,1.03601 0,1.888 0,2.83067c0,1.008 0,1.76401 0,2.6955c0,0.96317 0,1.65384 0,2.722c0,0.85735 0,1.6425 0,2.5825c0,1.008 -0.00647,1.83603 0.00015,2.71733c0.00534,0.70807 -0.03616,1.73203 0.35251,2.64301c0.37109,0.86977 0.7153,1.59959 1.21533,2.29967c0.3999,0.55988 1.19189,1.49002 1.36002,2.31467c0.1604,0.78682 0.01379,1.80661 0.12915,2.59999c0.14755,1.01472 0.52377,1.57658 0.77618,2.60001c0.19412,0.78702 0.16599,1.60001 0.16666,2.60451c0.00058,0.85266 0,1.81667 0,2.61015c0,0.77551 -0.00476,1.81601 0,2.668c0.00534,0.95337 0.0466,1.7298 0.35266,2.72183c0.19733,0.63965 0.55054,1.81479 0.61133,2.6315c0.04269,0.57364 0.03601,1.76401 0.03601,2.65952c0,0.58365 -0.05258,1.42065 0.009,2.65182c0.034,0.68008 0.31149,1.62546 0.69632,2.41434c0.28522,0.58469 0.79413,1.50616 1.05167,2.55951c0.17535,0.71716 0.21936,1.45746 0.24036,2.50949c0.01849,0.92648 0.00266,1.71866 0.00266,2.73734c0,0.87534 0,1.55533 0,2.31534c0,0.84 0,2.25 0,2.759c0,1.05399 0,1.58698 0,2.63498c0,0.98401 0,2.237 0,2.90302c0,0.849 0,1.953 0,2.59299c0,0.72 0,1.52002 0,2.39999c0,1.46936 0,1.99469 0,3.07733c0,0.54935 0.00006,1.64401 0,2.18134c-0.00018,1.52533 0.01376,2.00049 -0.02133,2.91736c-0.03452,0.90207 -0.12173,1.82373 -0.31201,2.784c-0.20627,1.04102 -0.36877,1.57422 -0.6875,2.66666c-0.16061,0.55051 -0.33813,1.0925 -0.8125,2.66666c-0.14771,0.49017 -0.41437,1.43372 -0.6875,2.35419c-0.13843,0.46643 -0.43488,1.43735 -0.8125,2.47916c-0.41959,1.15759 -0.6713,1.75827 -0.91733,2.37601c-0.24863,0.62427 -0.50775,1.24445 -0.98132,2.47198c-0.44318,1.14874 -0.6329,1.68552 -0.96268,2.694c-0.3125,0.95569 -0.44571,1.43741 -0.77332,2.41c-0.35428,1.05179 -0.56799,1.61487 -1.04184,2.81052c-0.24792,0.62558 -0.51016,1.25867 -0.77551,1.89749c-0.26563,0.63953 -0.53568,1.27179 -1.29315,3.09698c-0.23734,0.57187 -0.46567,1.12817 -0.90067,2.20135c-0.21082,0.52008 -0.61963,1.53894 -1.02084,2.54166c-0.40012,0.99994 -0.60001,1.5 -1,2.5c-0.20001,0.5 -0.59909,1.50037 -1,2.5c-0.40176,1.00171 -0.60471,1.50632 -0.82132,2.01068c-0.44196,1.02911 -0.66241,1.56241 -1.51202,3.15598c-0.29883,0.56049 -0.63287,1.1192 -0.9765,1.686c-0.34836,0.57458 -1.07495,1.72238 -1.44199,2.29468c-0.36496,0.56903 -1.08206,1.68564 -1.42685,2.23099c-0.66974,1.05933 -0.99213,1.57751 -1.32132,2.08002c-0.6452,0.98492 -0.95416,1.47818 -2.02151,2.82031c-0.3541,0.44525 -0.73077,0.87308 -1.49933,1.72134c-0.38739,0.42755 -1.18668,1.27844 -1.97916,2.16666c-0.40317,0.45187 -0.80197,0.91568 -1.60001,1.85867c-0.401,0.47382 -0.79401,0.95444 -1.60001,1.89066c-0.79413,0.92242 -1.19849,1.36423 -2,2.23584c-0.39926,0.43417 -0.80731,0.86246 -1.59998,1.758c-0.40378,0.45621 -1.20508,1.41959 -1.60019,1.93301c-0.81488,1.05896 -1.21005,1.6188 -1.62067,2.17801c-0.41473,0.56479 -0.8306,1.13538 -1.2645,1.6965c-0.86987,1.12494 -1.79507,2.19922 -2.26733,2.72098c-0.46909,0.51825 -0.94534,1.02194 -1.422,1.51501c-0.4707,0.48688 -1.8584,1.88028 -2.30399,2.32516c-0.43707,0.43643 -1.29477,1.28677 -1.72134,1.70065c-0.42407,0.41147 -1.27762,1.22659 -2.16666,2.02084c-0.45181,0.40363 -1.39304,1.20245 -1.88,1.60001c-0.49298,0.40247 -0.99277,0.80945 -2.04001,1.60001c-1.07269,0.80975 -1.63351,1.20184 -2.19867,1.59998c-0.57053,0.40192 -1.14957,0.80164 -1.7355,1.20001c-1.18143,0.80325 -1.78021,1.20044 -2.97916,2c-0.59985,0.40005 -1.19931,0.79971 -1.79999,1.1955c-0.5993,0.39487 -1.19785,0.78708 -1.80002,1.16852c-1.19571,0.75742 -2.39783,1.47311 -3,1.81433c-0.59787,0.33878 -1.1969,0.66595 -1.79999,0.97498c-1.19403,0.61185 -1.79718,0.89127 -2.39999,1.16c-1.19452,0.5325 -2.39935,1.00443 -3,1.23401c-0.59933,0.22906 -1.20166,0.4483 -2.40002,0.90533c-0.6008,0.22913 -1.80118,0.71121 -2.40015,0.96851c-0.60236,0.25873 -1.80923,0.79648 -2.42068,1.05798c-0.61386,0.26254 -1.23019,0.52765 -1.8645,0.7515c-1.91879,0.67715 -2.59705,0.80576 -3.26733,0.95502c-0.67111,0.14944 -1.34644,0.27771 -2.02197,0.39301c-1.33966,0.22864 -2.65884,0.42029 -3.30417,0.52148c-0.63867,0.10016 -1.90686,0.30853 -2.54202,0.42068c-0.64087,0.11316 -1.28973,0.23257 -1.94849,0.3645c-1.3656,0.27353 -2.79858,0.59769 -3.53601,0.76282c-0.74524,0.16687 -1.49393,0.33444 -2.24399,0.49051c-0.74463,0.15494 -1.47897,0.31567 -2.91733,0.52798c-0.68893,0.10168 -1.36276,0.181 -2.67201,0.26135c-0.64001,0.03928 -1.27592,0.05533 -1.9095,0.06299c-1.91838,0.02316 -2.57367,0.009 -3.23984,0.009c-0.67816,0 -1.36932,0 -2.07449,0c-1.45633,0 -2.2095,0.00064 -3.77083,0c-0.8125,-0.00034 -1.6601,-0.00018 -2.55751,-0.01801c-0.96262,-0.01913 -2.00546,-0.0571 -3.1425,-0.12601c-1.24808,-0.07562 -2.62292,-0.16983 -5.79999,-0.52264c-1.83118,-0.20334 -3.79572,-0.46591 -5.862,-0.75751c-2.13644,-0.30148 -4.30589,-0.63074 -6.474,-0.98251c-2.13658,-0.34668 -4.2094,-0.67841 -7.99734,-1.42667c-1.67044,-0.32996 -3.18211,-0.66867 -4.54799,-1.01398c-1.24461,-0.31464 -2.37332,-0.63834 -3.39601,-0.97803c-0.94582,-0.31415 -1.82494,-0.62659 -3.38933,-1.34131c-0.74292,-0.33942 -1.44855,-0.71246 -2.1375,-1.08151c-0.6777,-0.36301 -1.34,-0.7341 -2.0025,-1.09048c-0.65916,-0.35458 -1.31215,-0.72415 -2.69333,-1.328c-0.70268,-0.30719 -1.43535,-0.57101 -2.181,-0.828c-0.75571,-0.26044 -1.52754,-0.5047 -2.30701,-0.75601c-0.78787,-0.25403 -1.58975,-0.49405 -3.17867,-1.08267c-0.80428,-0.29794 -1.60146,-0.63092 -2.39549,-0.98099c-0.79669,-0.35126 -1.58583,-0.7229 -2.36852,-1.10699c-0.78101,-0.38327 -1.55426,-0.77451 -3.06932,-1.57867c-0.74698,-0.39648 -1.48151,-0.79837 -2.2095,-1.1955c-0.72134,-0.39352 -1.43552,-0.78519 -2.1465,-1.16852c-0.70535,-0.38031 -1.40388,-0.76138 -2.81067,-1.46933c-0.69684,-0.35068 -1.39606,-0.68253 -2.0865,-1.01398c-0.68156,-0.32721 -1.35324,-0.64822 -2.00549,-0.97803c-0.63873,-0.32297 -1.27002,-0.62903 -2.408,-1.34131c-0.54465,-0.34091 -1.05046,-0.71207 -1.533,-1.09052c-0.47479,-0.37238 -0.92763,-0.76105 -1.371,-1.1535c-0.44199,-0.39124 -0.87245,-0.79608 -1.76266,-1.58932c-0.45221,-0.40295 -0.91722,-0.80145 -1.386,-1.2045c-0.47255,-0.40628 -0.94925,-0.81415 -1.422,-1.23151c-0.47459,-0.41898 -0.95549,-0.83484 -1.85866,-1.73065c-0.45238,-0.4487 -0.88939,-0.91974 -1.30951,-1.41751c-0.42952,-0.50891 -0.83633,-1.06168 -1.24649,-1.64249l-0.40617,-0.62085l-0.40317,-0.66583" id="svg_6" stroke-width="2" stroke="#000" fill="none"/>
  <path t="9246,9408,9408,9408,9408,9409,9425,9425,9425,9425,9425,9425,9425,9442,9442,9442,9443,9443,9443,9443,9458,9458,9458,9458,9458,9458,9459,9459,9459,9475,9475,9475,9475,9475,9475,9475,9475,9476,9492,9492,9492,9492,9492,9492,9492,9493,9508,9508,9508,9508,9509,9509,9509,9509,9509,9525,9525,9525,9525,9526,9526,9526,9526,9526,9542,9542,9542,9542,9543,9543,9543,9543,9543,9558,9558,9558,9559,9559,9559,9559,9559,9559,9575,9575,9575,9575,9575,9576,9576,9576,9576,9592,9592,9592,9592,9593,9593,9593,9593,9593,9608,9608,9609,9609,9609,9609,9609,9609,9609,9625,9625,9625,9625,9626,9626,9626,9626,9626,9654,9655,9655,9655,9655,9655,9655,9655,9656,9683,9683,9684,9684,9684,9684,9684,9684,9684,9715,9715,9715,9715,9715,9715,9715,9716,9716,9745,9745,9745,9745,9745,9746,9746,9746,9746,9747,9747,9748,9748,9748,9748,9748,9748,9748,9750,9750,9750,9750,9750,9750,9751,9751,9751,9752,9753,9753,9753,9753,9753,9753,9753,9754,9780,9780,9781,9781,9781,9781,9781,9781,9782,9807,9807,9807,9808,9808,9808,9808,9808,9808,9810,9810,9810,9810,9810,9811,9811,9811,9811,9826,9826,9826,9826,9826,9826,9827,9827,9827,9842,9842,9842,9842,9842,9842,9842,9843,9843,9858,9858,9858,9858,9858,9858,9859,9859,9859,9874,9874,9874,9874,9874,9874,9875,9875,9875,9892,9893,9893,9894,9894,9894,9894,9894,9895,9909,9909,9910,9910,9910,9910,9911,9911,9911,9927,9927,9928,9928,9928,9928,9928,9929,9929,9945,9946,9946,9946,9946,9947,9947,9947,9947,9963,9964,9964,9964,9964,9965,9965,9965,9965,9986,9986,9986,9986,9987,9987,9987,9987,9988,10009,10009,10009,10009,10010,10010,10010,10010,10010,10012,10012,10013,10013,10013,10013,10013,10014,10014,10029,10029,10030,10030,10030,10030,10031,10031,10031" d="m260,233c-6.8145,2.42166 -7.6909,2.95326 -8.088,3.24667c-0.78975,0.58354 -1.15248,0.93135 -2.412,1.92c-0.4595,0.36069 -0.9494,0.72285 -1.98666,1.45866c-0.53217,0.3775 -1.07355,0.74902 -1.6125,1.12199c-1.5681,1.08513 -2.05896,1.43086 -2.53551,1.77c-0.93689,0.66675 -1.40575,1.00528 -1.88799,1.34399c-1.01338,0.71176 -2.14304,1.4735 -2.763,1.88167c-0.65196,0.42924 -1.33435,0.8708 -2.037,1.32901c-0.71938,0.46912 -1.44969,0.94679 -2.181,1.437c-0.73271,0.49113 -2.16611,1.48674 -2.85316,1.99083c-0.67424,0.49469 -1.32643,0.993 -1.96051,1.4895c-0.62222,0.48723 -1.22621,0.97359 -1.8165,1.45351c-0.57904,0.47076 -1.69957,1.3904 -2.24466,1.836c-0.53625,0.4384 -1.06609,0.87091 -1.58551,1.30649c-0.51691,0.43347 -1.5376,1.3179 -2.03467,1.784c-1.01395,0.95074 -1.50587,1.46988 -2.00266,2.004c-0.50769,0.54584 -1.01277,1.11707 -1.5195,1.71002c-0.51871,0.60696 -1.03979,1.23718 -1.5645,1.88998c-1.08855,1.35425 -1.63614,2.06949 -2.20134,2.79468c-0.5748,0.73749 -1.15697,1.48508 -1.755,2.23199c-0.60194,0.75177 -1.21071,1.50266 -1.845,2.23199c-1.2617,1.45078 -1.92902,2.13199 -2.60399,2.80133c-0.67805,0.67239 -1.38368,1.33142 -2.11351,1.98752c-0.74611,0.67075 -1.52612,1.34503 -2.3385,2.0325c-1.71796,1.45383 -2.64363,2.21057 -3.59599,3.004c-0.98167,0.81787 -1.98679,1.65802 -3.00301,2.526c-1.03185,0.88132 -2.07031,1.77808 -3.093,2.70599c-2.04881,1.85895 -3.02765,2.82712 -3.99733,3.79599c-0.96767,0.96686 -1.91858,1.94949 -2.868,2.93552c-0.95192,0.98865 -1.90083,1.98801 -2.868,2.9805c-1.95627,2.00751 -2.97102,3.00327 -4.00534,4c-1.04565,1.00766 -2.11667,2.01294 -3.20999,3.0195c-1.10664,1.01883 -2.23653,2.04022 -3.39,3.06448c-2.35292,2.08932 -3.56874,3.13684 -4.79468,4.20001c-1.23674,1.07254 -2.4839,2.14926 -3.73199,3.2355c-1.25056,1.08841 -2.49974,2.17795 -3.73199,3.28049c-2.44479,2.18741 -3.62924,3.29572 -4.804,4.40399c-1.17558,1.10907 -2.34668,2.23593 -3.5265,3.37802c-1.19754,1.15924 -2.41293,2.3468 -3.6615,3.55798c-2.60638,2.52835 -3.98239,3.84515 -5.39867,5.19867c-1.44904,1.38483 -2.92668,2.79193 -4.41901,4.2225c-1.50502,1.44275 -3.01483,2.8927 -4.50899,4.35751c-2.96031,2.90219 -4.38937,4.35391 -5.79201,5.79465c-1.38599,1.42365 -2.74276,2.84549 -4.074,4.2645c-1.3194,1.40637 -2.61755,2.81192 -3.894,4.21951c-2.53237,2.79257 -3.76981,4.19867 -5,5.59732c-1.22112,1.38834 -2.42336,2.77026 -3.606,4.14151c-1.16668,1.35275 -2.30977,2.68893 -3.426,4.0065c-2.16206,2.552 -3.19338,3.79025 -4.19867,4.996c-0.97903,1.17426 -1.92937,2.31998 -2.8545,3.435c-0.9002,1.08496 -1.7748,2.1413 -2.62949,3.16501c-1.63841,1.96243 -2.43012,2.89587 -3.2,3.79999c-0.74583,0.87585 -1.47044,1.72018 -2.1705,2.535c-0.67461,0.78519 -1.32486,1.53897 -1.9455,2.26501c-1.16092,1.35806 -1.69592,1.9942 -2.20267,2.60532c-0.48618,0.5863 -0.95018,1.15561 -1.3935,1.71301c-0.43263,0.54398 -0.85259,1.08261 -1.2585,1.62299c-0.81121,1.07996 -1.20645,1.63776 -1.6,2.20132c-0.39347,0.56348 -0.7762,1.1293 -1.1415,1.6965c-0.35864,0.55685 -0.70073,1.10547 -1.0065,1.65152c-0.57446,1.02588 -0.79859,1.52267 -0.99866,1.99466c-0.18821,0.444 -0.34425,0.86884 -0.474,1.27051c-0.12054,0.37317 -0.21773,0.72244 -0.294,1.0455c-0.13142,0.55667 -0.17081,0.79346 -0.20267,1.00131c-0.02774,0.18094 -0.04544,0.33859 -0.04501,0.474c0.00037,0.11548 0.00892,0.21695 0.04501,0.29401c0.06212,0.13263 0.13312,0.17426 0.208,0.20401c0.09119,0.03625 0.21569,0.05283 0.37199,0.06448c0.19572,0.01459 0.438,0.01767 0.732,0.0195c0.76798,0.00479 1.25216,0.00677 1.8,-0.00934c0.60626,-0.01782 1.26609,-0.05826 1.96799,-0.15598c0.74663,-0.10394 1.53407,-0.25128 2.328,-0.51602c1.702,-0.56757 2.54102,-1.06854 3.39867,-1.60666c0.90531,-0.56802 1.81542,-1.24075 2.7525,-1.98151c0.99023,-0.78275 2.00532,-1.64676 3.0675,-2.5665c2.2946,-1.98688 3.51617,-3.06937 4.796,-4.19067c1.32553,-1.16135 2.68832,-2.35928 4.07401,-3.59698c1.41171,-1.26093 2.83784,-2.54547 4.254,-3.867c2.84655,-2.65631 4.22565,-4.02515 5.6,-5.39865c1.38036,-1.37952 2.75578,-2.78693 4.146,-4.2135c1.41247,-1.4494 2.84608,-2.9335 4.326,-4.43851c3.08116,-3.13336 4.71652,-4.74536 6.396,-6.396c1.71281,-1.68341 3.4586,-3.38269 5.2155,-5.103c1.76445,-1.72769 3.52856,-3.4538 5.2605,-5.19302c3.40157,-3.41589 5.01762,-5.11783 6.60001,-6.79999c1.56525,-1.66394 3.10379,-3.33496 4.6395,-5.00699c1.54298,-1.67996 3.09418,-3.38309 4.68451,-5.09702c3.28336,-3.53851 5.01933,-5.34985 6.79866,-7.19733c1.80862,-1.87793 3.64799,-3.76532 5.496,-5.664c1.84801,-1.89868 3.68968,-3.78387 5.496,-5.664c3.51508,-3.65872 5.1781,-5.44678 6.79333,-7.19067c1.57503,-1.7005 3.10335,-3.37115 4.60649,-4.99948c1.47421,-1.59698 2.92299,-3.16718 4.3815,-4.68451c2.86717,-2.98279 4.33626,-4.40372 5.80133,-5.80133c1.44905,-1.38232 2.90106,-2.72324 4.33801,-4.035c1.4111,-1.28818 2.80438,-2.53738 4.15799,-3.76501c2.59659,-2.35495 3.82002,-3.49164 4.99333,-4.59732c1.13092,-1.06573 2.21017,-2.10046 3.24451,-3.09601c0.99097,-0.95383 1.93367,-1.87009 2.83949,-2.73599c1.67641,-1.60251 2.45866,-2.32669 3.20668,-3.00266c0.7095,-0.64117 1.39403,-1.24121 2.058,-1.80301c0.63751,-0.5394 1.26108,-1.05072 1.87799,-1.53299c1.19717,-0.93588 1.80318,-1.37225 2.40001,-1.80402c0.58586,-0.42383 1.16245,-0.83096 1.722,-1.22549c0.53911,-0.38013 1.05676,-0.74072 1.54199,-1.09052c0.87851,-0.63333 1.2567,-0.92694 1.60001,-1.19864c0.31392,-0.24844 0.59734,-0.48001 0.858,-0.69l0.24066,-0.19l0.22467,-0.17001l0.21266,-0.14999" id="svg_7" stroke-width="2" stroke="#000" fill="none"/>
  <path t="10553,10624,10624,10624,10624,10625,10625,10625,10625,10641,10642,10642,10642,10642,10642,10642,10642,10642,10658,10658,10658,10658,10658,10658,10658,10658,10659,10674,10674,10675,10675,10675,10675,10675,10675,10675,10691,10692,10692,10692,10692,10692,10692,10692,10692,10708,10708,10709,10709,10709,10709,10709,10709,10709,10727,10727,10727,10727,10727,10727,10728,10728,10728,10747,10747,10747,10747,10747,10747,10747,10747,10748,10768,10768,10768,10768,10768,10768,10768,10768,10768,10787,10787,10787,10787,10787,10787,10787,10787,10787,10807,10807,10807,10807,10807,10807,10807,10807,10807,10924,10924,10925,10925,10925,10925,10925,10925,10926,10942,10942,10942,10942,10942,10942,10942,10942,10943,10961,10961,10961,10961,10961,10961,10961,10961,10961,10980,10980,10980,10980,10980,10980,10980,10981,10981,11002,11002,11002,11002,11002,11002,11002,11003,11003,11025,11025,11025,11026,11026,11026,11026,11026,11026,11028,11028,11028,11028,11028,11029,11029,11029,11029,11047,11047,11047,11047,11047,11048,11048,11048,11048,11074,11075,11075,11076,11076,11076,11076,11076,11076,11093,11093,11093,11094,11094,11094,11094,11094,11094,11113,11114,11114,11114,11114,11114,11115,11115,11115,11134,11134,11134,11134,11134,11134,11135,11135,11135,11153,11153,11154,11154,11154,11154,11154,11154,11155,11174,11174,11174,11174,11175,11175,11175,11175,11175,11177,11177,11177,11178,11178,11178,11178,11178,11178,11196,11196,11196,11197,11197,11197,11197,11197,11197,11213,11214,11214,11214,11214,11214,11231,11231,11232,11274,11275,11292,11292,11292,11311,11311,11311,11312,11331,11331,11331,11331,11332,11332,11332,11332,11351,11351,11351,11352,11352,11352,11353,11353,11353,11372,11373,11373,11373,11373,11373,11374,11374,11374,11392,11393,11393,11393,11393,11393,11394,11394,11394,11411,11411,11412,11412,11412,11412,11412,11413,11413,11430,11430,11430,11430,11430,11431,11431,11431,11431,11448,11449,11449,11449,11449,11450,11450,11450,11450" d="m250,276c-6.60133,4.40134 -7.21239,4.80817 -7.836,5.23599c-0.65114,0.44672 -1.33362,0.92661 -2.052,1.452c-0.77252,0.565 -1.60535,1.18115 -3.44533,2.64536c-1.04512,0.8317 -2.15578,1.75018 -3.33301,2.742c-1.24699,1.0506 -2.54619,2.16986 -3.89099,3.35397c-1.39738,1.23041 -2.83894,2.50653 -5.776,5.23734c-1.51761,1.41104 -3.04155,2.87167 -4.58551,4.362c-1.56676,1.51233 -3.14423,3.05411 -4.73849,4.61401c-1.60941,1.57474 -3.22466,3.16882 -6.50934,6.35733c-1.65147,1.60312 -3.31577,3.20026 -4.98149,4.79999c-1.66628,1.60025 -3.33295,3.198 -4.99051,4.80002c-1.65343,1.59802 -3.30565,3.18622 -6.528,6.39999c-1.59747,1.5932 -3.16739,3.198 -4.728,4.79999c-1.55673,1.59799 -3.10429,3.20102 -4.65599,4.80002c-1.55363,1.60101 -3.10408,3.21317 -6.28267,6.39999c-1.60252,1.60669 -3.23213,3.20126 -4.86751,4.79999c-1.63795,1.60126 -3.28079,3.19751 -4.91249,4.80002c-1.62662,1.5975 -3.25456,3.1792 -6.38667,6.39999c-1.54555,1.58929 -3.0459,3.19055 -4.515,4.7865c-1.45087,1.57614 -2.86395,3.14749 -4.245,4.70551c-1.35892,1.53305 -2.68442,3.04819 -5.24001,6.008c-1.23714,1.43283 -2.43974,2.83755 -3.61501,4.20599c-1.14473,1.33289 -2.25813,2.62897 -3.345,3.88202c-1.05319,1.2142 -2.06798,2.39209 -4.03999,4.57864c-0.9292,1.03027 -1.83557,2.00427 -2.71049,2.9295c-0.83589,0.88397 -1.64183,1.71814 -2.4135,2.5065c-0.73209,0.74789 -1.43,1.45001 -2.70934,2.73068c-0.58002,0.58063 -1.12266,1.12265 -1.629,1.629c-0.47233,0.47232 -0.91266,0.91266 -1.323,1.323c-0.38233,0.38232 -0.73878,0.73856 -1.38133,1.38132c-0.29005,0.29013 -0.56088,0.56049 -0.81001,0.81451c-0.23081,0.23538 -0.44207,0.45444 -0.63,0.6615c-0.17192,0.18945 -0.33402,0.35931 -0.56,0.69067c-0.09615,0.14099 -0.16792,0.27713 -0.21,0.405c-0.03714,0.11288 -0.05105,0.22183 -0.03001,0.315c0.01985,0.08792 0.06611,0.18121 0.24001,0.28c0.10293,0.05847 0.23514,0.08542 0.3765,0.10498c0.15081,0.02084 0.31123,0.0249 0.4755,0.01501c0.16688,-0.01004 0.33709,-0.02206 0.648,-0.12c0.14807,-0.04663 0.28452,-0.11481 0.4095,-0.19501c0.12455,-0.07996 0.23973,-0.17654 0.3465,-0.285c0.10979,-0.11154 0.21621,-0.23517 0.41067,-0.51999c0.1039,-0.15219 0.20113,-0.31747 0.3045,-0.48602c0.10596,-0.17279 0.21383,-0.349 0.3315,-0.52197c0.11865,-0.17441 0.23523,-0.35443 0.53066,-0.65869c0.14792,-0.15234 0.31634,-0.28525 0.486,-0.41849c0.17167,-0.1348 0.34967,-0.26617 0.522,-0.40952c0.17509,-0.14563 0.36195,-0.29099 0.65867,-0.672c0.15652,-0.20096 0.28568,-0.43237 0.4095,-0.672c0.12561,-0.24307 0.23728,-0.49423 0.3465,-0.74399c0.10711,-0.24493 0.19868,-0.48776 0.41067,-0.91733c0.09511,-0.19275 0.19646,-0.36404 0.2955,-0.51901c0.09181,-0.14365 0.1838,-0.27258 0.2685,-0.39301c0.07895,-0.11224 0.16129,-0.2128 0.26933,-0.42133c0.05061,-0.09769 0.08488,-0.20102 0.1185,-0.3045c0.0344,-0.1059 0.06657,-0.21722 0.1095,-0.33148c0.04591,-0.12219 0.09573,-0.25687 0.27199,-0.53067c0.10258,-0.15933 0.23386,-0.31915 0.37651,-0.48602c0.14926,-0.17459 0.30997,-0.3483 0.47549,-0.52197c0.16548,-0.17365 0.33156,-0.34177 0.64799,-0.65869c0.14497,-0.1452 0.28049,-0.28088 0.4095,-0.405c0.12038,-0.11581 0.23463,-0.22202 0.34651,-0.315c0.10458,-0.08691 0.20279,-0.17172 0.41066,-0.28c0.09758,-0.05084 0.20171,-0.08524 0.30901,-0.1095c0.1115,-0.02524 0.23251,-0.03854 0.36299,-0.04648c0.14221,-0.00864 0.29868,-0.01001 0.66133,-0.01068c0.21001,-0.0004 0.44,0 0.69,0c0.27,0 0.56,0 0.87,0c0.33,0 0.68001,0 1.44,0c0.40967,0 0.83734,0 1.28101,0c0.45767,0 0.92734,0 1.407,0c0.48767,0 0.98134,0 1.97867,0c0.50017,0 1.00133,0 1.5045,0c0.50616,0 1.01633,0 1.53149,0c0.52116,0 1.04933,-0.00015 2.13068,0c0.55466,0.00009 1.11734,-0.00015 1.68599,0.00449c0.57269,0.00467 1.14743,0.01334 1.722,0.03152c0.57278,0.01813 1.14259,0.03369 2.25867,0.13065c0.54556,0.04739 1.07956,0.11407 1.60051,0.19501c0.50977,0.07919 1.00516,0.1734 1.48349,0.285c0.46538,0.10858 0.91872,0.21695 1.74934,0.51999c0.39429,0.14383 0.76486,0.31012 1.1145,0.48602c0.66333,0.33374 1.2394,0.71713 2.29733,1.32565c0.67732,0.38959 1.29665,0.74905 2.32149,0.93634c0.79039,0.14444 1.80144,0.1145 2.62083,0.06448c0.66638,-0.04068 1.69577,-0.21155 2.58334,-0.625c0.75447,-0.35144 1.16093,-0.63828 2.0625,-1.35416c1.10461,-0.87711 1.6689,-1.44037 2.28799,-2.01599c0.65207,-0.60626 1.32399,-1.24805 2.02051,-1.91101c0.71548,-0.68103 2.18968,-2.07495 2.94632,-2.77316c0.76201,-0.70316 1.53531,-1.40472 2.3145,-2.1105c0.78447,-0.71057 1.57574,-1.42416 2.36852,-2.14648c0.7979,-0.72699 2.39771,-2.20715 3.19516,-2.96402c0.7999,-0.75916 1.5928,-1.52551 2.379,-2.29349c0.78111,-0.763 1.55006,-1.52328 2.30701,-2.27551c0.74438,-0.73975 2.18074,-2.17676 2.87149,-2.86682c0.67325,-0.67258 1.33197,-1.32971 1.98151,-1.97101c0.63948,-0.63138 1.27426,-1.25247 1.9095,-1.86301c0.63275,-0.60812 1.91664,-1.81104 2.57283,-2.40866c0.65848,-0.5997 1.32199,-1.19205 1.983,-1.77899c0.65367,-0.58041 1.29916,-1.1488 1.929,-1.707c0.61282,-0.54312 1.76924,-1.57855 2.30217,-2.07135c0.5083,-0.47 0.98787,-0.92508 1.4355,-1.371c0.42857,-0.42694 0.83032,-0.84616 1.20149,-1.26297c0.35803,-0.40207 0.9994,-1.20551 1.28517,-1.60867c0.27948,-0.39429 0.53688,-0.79166 0.79199,-1.17902c0.25023,-0.37994 0.50134,-0.74933 0.75601,-1.10699l0.26266,-0.34366" id="svg_8" stroke-width="2" stroke="#000" fill="none"/>
  <path t="12015,12124,12124,12124,12124,12124,12124,12124,12125,12125,12141,12141,12141,12141,12142,12142,12142,12142,12142,12157,12158,12158,12158,12158,12158,12158,12158,12158,12178,12178,12178,12178,12178,12178,12179,12179,12179,12193,12193,12194,12194,12194,12194,12194,12194,12194,12208,12208,12208,12208,12208,12208,12208,12208,12208,12224,12224,12224,12224,12224,12224,12224,12224,12225,12242,12242,12242,12491,12491,12607,12607,12624,12641,12641,12642,12657,12658,12658,12658,12658,12659,12675,12675,12675,12675,12675,12675,12695,12695,12695,12695,12695,12714,12714,12714,12715,12715,12734,12734,12734,12734,12757,12757,12841,12841,12858,12858,12859,12877,12877,12877,12877,12877,12894,12894,12894,12894,12894,12910,12910,12911,12911,12911,12927,12927,12928,12928,12944,12944,12944,12960,12960,12974,12993,12993,12993,13012,13012,13029,13045,13045,13060,13060,13060,13075,13075,13075,13075,13090,13091,13107,13108,13108,13108,13123,13124,13140,13141,13141" d="m262,385c6.83334,7.16666 7.48337,7.91794 8.116,8.68799c0.63611,0.77429 1.26227,1.56656 1.884,2.37451c0.629,0.81735 1.25592,1.65393 1.884,2.50949c1.2894,1.75641 1.93961,2.66928 2.59866,3.59866c0.66797,0.94193 1.33603,1.89859 1.99649,2.871c0.66354,0.97693 1.32019,1.96149 1.95151,2.961c1.25433,1.98587 1.83145,2.99341 2.396,3.99069c0.55542,0.98114 1.08261,1.9519 1.59,2.9025c0.49255,0.92282 0.95886,1.81894 1.41,2.67749c0.83783,1.59445 1.22888,2.32028 1.60266,3.00266c0.35495,0.64795 0.69934,1.26498 1.02902,1.86151c0.32098,0.58081 0.63715,1.15195 0.939,1.7265c0.61182,1.16458 0.90433,1.77795 1.20398,2.40399c0.30472,0.6366 0.60733,1.28366 0.91953,1.93201c0.31314,0.6503 0.6272,1.29947 0.96448,1.93201c0.66351,1.24432 1.03036,1.82803 1.39603,2.39465c0.35715,0.55338 0.72131,1.08096 1.077,1.59c0.34302,0.49094 0.6799,0.95642 0.987,1.41c0.56436,0.8335 0.79581,1.22705 0.99866,1.60135c0.18985,0.35031 0.35159,0.68771 0.4935,1.00949c0.13391,0.30368 0.2486,0.5965 0.35849,0.87451c0.3031,0.76691 0.56378,1.48306 1.08936,2.28665c0.54651,0.83557 1.19519,1.30798 1.78131,2.23468c0.42749,0.67584 1.02499,1.15613 1.8765,1.38849c0.74872,0.20432 1.34286,0.40604 2.6235,1.11151c0.73785,0.40646 1.09787,0.67679 1.875,1.20831c0.82306,0.56293 1.23682,0.87329 2.57968,1.75818c0.45993,0.30307 0.92795,0.60123 1.87866,1.17932c0.47299,0.28763 1.4122,0.84229 2.33334,1.35419c0.87775,0.48779 1.72995,0.93201 2.14581,1.14581c0.815,0.41901 2.02167,1.01923 2.81952,1.42084c0.79147,0.39838 1.18463,0.59219 1.94415,1c1.09662,0.58878 1.76727,1.00284 2.41049,1.37866c0.88065,0.51456 1.93668,0.94159 2.58936,1.17068c0.94412,0.33142 1.06308,1.28381 0.534,0.86484c-0.68814,-0.54495 -1.01801,-1.25317 -1.91968,-2.11401c-0.64914,-0.61975 -1.01755,-0.90472 -1.77832,-1.46417c-0.77008,-0.56631 -1.57437,-1.07651 -2.37735,-1.552c-0.7865,-0.46573 -1.56985,-0.90195 -1.94415,-1.13666c-1.10431,-0.69247 -1.7728,-1.23047 -2.43182,-1.76199c-0.65033,-0.52448 -1.276,-1.07486 -2.34634,-1.64252c-0.70294,-0.3728 -1.45163,-0.58862 -2.112,-0.89099c-1.12991,-0.51736 -1.62906,-1.11337 -2.24835,-1.76782c-0.72635,-0.76758 -1.51944,-0.99985 -2.36148,-1.44034c-0.82596,-0.43207 -0.97168,-1.1539 -1.51434,-1.98566c-0.48849,-0.74872 -1.41708,-1.04199 -2.35748,-1.05801c-0.88522,-0.01508 -1.70044,-0.03421 -2.65601,0.004c-0.77258,0.03088 -1.66888,0.17914 -2.52899,0.66016c-0.62228,0.34802 -1.17166,0.8429 -1.92969,1.56918c-0.81693,0.78271 -1.25067,1.27081 -2.104,1.93332c-0.65717,0.51019 -1.20148,0.81281 -1.89865,1.43466c-0.84219,0.75122 -1.22635,1.39868 -1.76801,2.39868l-0.3045,0.59549l-0.45267,0.74734" id="svg_9" stroke-width="2" stroke="#000" fill="none"/>
  <path t="13477,13557,13557,13557,13557,13557,13557,13574,13574,13574,13574,13574,13574,13591,13591,13591,13591,13591,13607,13607,13607,13607,13608,13608,13624,13625,13625,13641,13641,13641,13674,13691,13691,13707,13708,13708,13708,13724,13724,13724,13724,13724,13724,13741,13741,13742,13742,13742,13742,13757,13757,13757,13757,13758,13758,13774,13774,13774,13774,13791,13791,13807,13807,13807,13824,13824,13824,13824,13841,13841,13841,13857,13857,13857,13858,13874,13874,13874,13874,13891,13891,13892,13892" d="m294,446c-5.2785,4.17868 -5.71634,4.51382 -6.564,5.17465c-0.41599,0.32428 -1.23557,0.97314 -1.63467,1.30936c-1.21387,1.02261 -1.6033,1.39786 -2.40134,2.14133c-0.401,0.3736 -1.19635,1.12598 -1.60001,1.49066c-1.18939,1.07452 -1.59802,1.40237 -2.39999,2.05865c-0.39902,0.32654 -1.21237,0.96356 -2.39999,1.992c-0.40378,0.34964 -1.19019,1.0777 -1.56799,1.448c-0.73123,0.71671 -1.09555,1.04532 -1.93201,2.052c-0.66153,0.79614 -1.06857,1.53745 -1.66666,2.33334c-0.45969,0.61172 -0.9288,1.24506 -1.81152,1.75699c-0.4837,0.28052 0.05951,0.0231 1.03418,-0.61432c0.66846,-0.43716 1.38025,-1.00543 1.75751,-1.31332c1.20016,-0.97946 1.58997,-1.34689 2.38651,-2.082c0.40176,-0.37079 1.1973,-1.12491 1.59998,-1.49469c1.19211,-1.09467 1.59656,-1.43549 2.40002,-2.09998c0.39828,-0.32941 1.20258,-0.97488 1.59998,-1.30536c1.20795,-1.00449 1.6012,-1.36685 2.39551,-2.09097c0.3945,-0.35962 1.1611,-1.06772 1.54733,-1.38934c1.07056,-0.89154 1.74515,-1.36401 2.71552,-1.78366c0.56699,-0.24521 1.62192,-0.44946 2.52081,-0.58334c1.02307,-0.1524 1.61472,-0.40408 2.53519,-0.64734c1.11353,-0.29428 1.79047,-0.3071 2.48566,-0.33182c1.03156,-0.03671 1.95734,-0.02084 2.74933,-0.02084c0.75601,0 1.89368,0 2.565,0c1.10699,0 1.88834,0 3.08551,0c0.79565,0 1.57932,0 2.34299,0c1.09052,0 1.77451,0 2.77802,0l0.689,0" id="svg_10" stroke-width="2" stroke="#000" fill="none"/>
  <path t="14136,14274,14274,14274,14291,14291,14291,14291,14291,14291,14307,14307,14307,14308,14308,14308,14324,14324,14324,14324,14324,14341,14341,14341,14341,14357,14357,14374,14374,14374,14391,14407,14407,14424,14457,14457,14474,14523,14524,14557,14573,14574,14591,14591,14591,14607,14607,14607,14624,14624,14624,14624,14625,14641,14641,14641,14641,14641,14657,14657,14657,14658,14658,14674,14674,14674,14675,14773,14773,14791,14791,14807,14807,14807,14808,14824,14824,14824,14824,14825,14825,14840,14841,14841,14841,14857,14857,14857,14858,14874,14874,14874,14874,14891,14907,14907,14924,14924,14924,14941,14941,14992,14992,14994,14994,14994,14994,14996,14996,14996,15007,15007,15007,15024,15025" d="m309,380c1.83334,4.51733 1.93021,5.19159 2.08667,5.86133c0.34781,1.48886 0.55902,1.89059 0.98483,2.7485c0.22662,0.45654 0.75409,1.37943 1.04199,1.84201c0.86734,1.39362 1.18387,1.82837 1.78201,2.69098c0.29263,0.422 0.87784,1.24023 1.41916,2.05585c0.52786,0.79532 1.00583,1.59671 1.44934,2.39066c0.431,0.77155 0.82358,1.53168 1.43567,2.58902c0.3844,0.66406 0.78458,1.26611 1.086,1.85999c0.51691,1.01837 0.61893,1.95737 0.88098,2.96167c0.21057,0.80701 0.62692,1.51999 1.12885,2.24283c0.52972,0.76288 0.70383,1.55716 0.7045,2.51434c0.00064,0.89551 -0.40359,1.8696 0.04166,2.70117c0.39084,0.72995 1.50742,0.55563 2.32236,0.96698c0.77185,0.38962 1.60666,0.57401 2.40665,0.57468c0.771,0.00064 1.63202,0 2.83066,0c0.60934,0 1.55585,0 2.56534,0c0.72,0 1.48001,0 2.28,0c0.84,0 2.17468,0 3.10602,0c0.47266,0 1.422,-0.00012 2.36331,0c1.36252,0.00018 1.79919,-0.01404 2.64801,0.02133c0.82617,0.03442 1.64938,0.09097 2.83566,0.42133c0.80325,0.22369 1.5535,0.57047 2.28601,0.85202c1.26215,0.48511 2.51276,0.22427 2.47665,0.70532c-0.05197,0.69269 -1.80566,0 -2.48566,0c-0.76001,0 -1.60001,0 -3.01001,0c-0.50916,0 -1.5675,0 -2.10666,0c-1.07333,0 -1.5975,0 -3.06,0c-0.84534,0 -1.60266,0 -2.64368,0c-1.02298,0 -1.74033,0 -2.48166,0c-0.74933,0 -2.20801,0 -2.88666,0c-0.92551,0 -1.716,0 -2.67816,0c-0.9765,0 -1.64584,0 -2.80984,0c-0.79999,0 -1.60001,0 -2.60001,0c-0.79999,0 -1.84454,-0.1535 -2.60001,0.14401c-0.88913,0.35016 -1.21231,0.98508 -1.79999,1.87683c-0.40863,0.62006 -0.94696,1.53445 -1.60001,2.10767c-0.55896,0.49063 -1.59982,0.97165 -2.18933,1.28217l-0.72534,0.47467l-0.72815,0.76733l-0.45267,0.69464" id="svg_11" stroke-width="2" stroke="#000" fill="none"/>
 </g>
 <g display="none">
  <title>muse_image</title>
  <image xlink:href="http://farm3.static.flickr.com/2295/2381944505_1292d190b5.jpg" id="muse" height="426" width="640" y="27" x="0"/>
 </g>
 <g display="none">
  <title>bbox</title>
  <rect stroke="#f00" fill="none" stroke-width="3" height="273.76577" width="407.04" y="125.5045" x="42.24" id="bbox"/>
 </g>
</svg>
