<svg width="640" height="480" xmlns="http://www.w3.org/2000/svg" xmlns:svg="http://www.w3.org/2000/svg" xmlns:xlink="http://www.w3.org/1999/xlink">
 <!-- Sketchy ANNOTATION
  ImageNet ID: n01532829_5832
  URL: http://farm4.static.flickr.com/3233/2746991403_b7bff8956c.jpg
  Image Width: 500
  Image Height: 498
  BBox X: 61
  BBox Y: 107
  BBox Width: 112
  BBox Height: 165
  Exposure: 2000ms
  Synset Label: songbird
  Synset ID: n01526521
  Worker Tag: a songbird
  Sanity Check: 
   Saved
  Comment: 
   {}
  Worker ID: AI16JQPI42EKR
  Assignment ID: 3S0TNUHWKTIHTU0LZC49XK2NMLLD8W
  HIT ID: 33P2GD6NRNSGDR9U4VF0PQVR5MTHKH
  Work Time: 161s
  Worker Score: 0.7857
 END ANNOTATION -->
 <g display="inline">
  <title>Layer 1</title>
  <path t="0,312,313,322,334,348,364,380,380,396,413,429,429,448,448,464,464,480,480,496,514,514,514,531,531,545,545,546,563,579,579,579,596,612,612,612,628,628,629,646,646,646,663,663,679,679,679,679,695,695,712,712,728,728,728,746,746,746,763,763,779,779,795,795,812,812,812,830,830,830,845,845,863,879,879,879,895,895,912,912,912,929,929,929,946,946,963,963,963,979,979,979,979,996,996,996,1012,1012,1012,1028,1028,1028,1029,1045,1045,1063,1063,1063,1063,1063,1079,1079,1079,1079,1095,1095,1113,1113,1113,1113,1129,1129,1129,1145,1146,1146,1163,1163,1163,1163,1179,1179,1179,1179,1180,1196,1196,1196,1196,1213,1213,1213,1213,1228,1228,1228,1229,1246,1246,1246,1246,1278,1278,1278,1278,1295,1295,1295,1295,1295,1295,1295,1312,1312,1312,1312,1312,1328,1328,1328,1328,1328,1345,1345,1345,1345,1362,1362,1362,1362,1362,1378,1378,1378,1378,1378,1395,1395,1395,1395,1412,1412,1412,1429,1429,1429,1429,1446,1446,1446,1462,1609" d="m182,150c-1,-1 -1.83444,-1.19595 -2.7,-0.94284c-0.87764,0.25664 -1.60623,0.82336 -2.5,0.94417c-0.80956,0.10942 -1.49963,0.64684 -2.3,0.99867c-0.80414,0.35349 -1.66667,0.83333 -2.5,1c-0.83333,0.16667 -1.59288,0.6716 -2.48399,0.916c-0.67438,0.18495 -1.66356,0.32841 -2.31467,0.88533c-0.7636,0.65314 -1.35687,1.21793 -2.03734,1.59866c-0.75362,0.42168 -1.76402,0.89999 -2.364,1.20001c-0.99985,0.49997 -1.61137,0.76242 -2.31467,1.2c-0.89035,0.55396 -1.63451,1.23125 -2.31067,1.58932c-0.6747,0.3573 -1.70367,0.52539 -2.66133,0.89867c-0.5769,0.22487 -1.22539,0.65324 -2.196,1.48001c-0.54683,0.46579 -1.05667,0.98065 -1.98401,1.89867c-0.52388,0.51862 -1.05888,1.05942 -1.995,1.63783c-0.57201,0.35344 -1.51062,0.85324 -2.2865,1.34816c-0.53494,0.34123 -1.29405,0.84822 -2.0825,1.46201c-0.72842,0.56706 -1.46622,1.06796 -2.17999,1.52133c-0.80287,0.50996 -1.38229,1.02487 -1.98933,1.53867c-0.79097,0.66948 -1.60275,1.16769 -2.31467,1.62399c-0.74742,0.47906 -1.36852,1.00261 -2.138,1.50584c-0.69392,0.45381 -1.44537,1.1931 -1.97267,1.87016c-0.52385,0.67265 -1.22572,1.17805 -1.976,1.70934c-0.81436,0.57666 -1.3824,1.1113 -1.91333,1.632c-0.73453,0.72038 -1.284,1.28265 -2.00616,2.00482c-0.64584,0.64584 -1.27168,1.3326 -1.82651,1.76933c-0.85388,0.67213 -1.58022,0.92264 -2.13667,1.5645c-0.56282,0.64922 -1.04707,1.45503 -1.4945,2.22385c-0.51833,0.89063 -0.82043,1.52002 -1.3215,2.5215c-0.30016,0.59991 -0.80016,1.60033 -1.11066,2.22133c-0.3465,0.69299 -0.91506,1.81911 -1.2375,2.48399c-0.33577,0.69238 -0.69008,1.37207 -1.0185,2.36134c-0.26786,0.80684 -0.35691,1.7635 -0.77617,2.53366c-0.48804,0.89651 -0.98081,1.27699 -1.53567,2.44217c-0.30501,0.6405 -0.47094,1.347 -0.82017,2.30417c-0.37018,1.01459 -0.77222,1.54576 -1.20133,2.72c-0.24065,0.65854 -0.40197,1.45554 -0.6,2.304c-0.10101,0.43277 -0.39226,1.69806 -0.59867,2.45599c-0.27038,0.99281 -0.5532,1.79185 -0.74866,2.77251c-0.16909,0.84833 -0.33328,1.85663 -0.48866,2.49815c-0.16953,0.69994 -0.3483,1.42632 -0.764,2.81601c-0.19216,0.6424 -0.48537,1.53067 -0.8,2.31999c-0.38235,0.95923 -0.72175,1.6689 -1,2.5c-0.32568,0.97278 -0.50315,1.70753 -0.7,2.47568c-0.30489,1.18976 -0.50455,1.98827 -0.68934,2.78033c-0.18042,0.77335 -0.3523,1.52151 -0.48933,2.58932c-0.08556,0.66672 -0.13259,1.64807 -0.20533,2.30533c-0.11512,1.04021 -0.34659,2.15102 -0.49067,2.92667c-0.14669,0.7897 -0.31155,1.98856 -0.37267,2.78484c-0.0601,0.78314 -0.06921,1.55171 -0.21933,2.63783c-0.09466,0.68486 -0.3472,1.6427 -0.48067,2.26218c-0.25847,1.19966 -0.28999,1.82414 -0.414,2.8485c-0.0967,0.79878 -0.26261,1.72478 -0.50667,2.79333c-0.13225,0.57903 -0.28655,1.17372 -0.58133,2.39734c-0.14729,0.61137 -0.32443,1.20714 -0.60767,2.901c-0.0849,0.50769 -0.18368,1.46637 -0.22166,2.36832c-0.01851,0.43945 -0.02133,1.76266 -0.02133,2.67868c0,0.93201 0,1.39648 0,2.3075c0,1.27649 0,2.0405 0,3.08899c0,0.66901 0,1.6875 0,2.4075c0,1.155 0,1.56 0,2.39999c0,1.3345 0,2.26151 0,3.1925c0,0.4595 0,1.3515 0,2.57785c0,0.72867 0,1.72165 0,2.34033c0,1.20398 0,2.1235 0,2.75983c0,1.36401 0,2.091 0,2.82199c0,0.711 0,1.97769 0,2.73819l0,0.79465l0,1.07733l0.08533,0.784" id="svg_1" stroke-width="2" stroke="#000" fill="none"/>
  <path t="2857,3016,3036,3046,3062,3078,3078,3095,3112,3112,3128,3128,3145,3145,3162,3162,3162,3178,3195,3195,3195,3212,3212,3228,3246,3246,3266,3278,3295,3312,3312,3328,3328,3345,3345,3362,3362,3378,3378,3378,3395,3395,3395,3412,3412,3412,3428,3445,3445,3445,3462,3478,3478,3495,3512,3528,3528,3545,3562,3578,3578,3595,3595,3595,3612,3628,3628,3645,3645,3662,3678,3678,3695,3695,3695,3712,3712,3728,3745,3762,3762,3785,3785,3795,3815,3835,3845,3865,3865,3885,3905,3914,3954,3964,3978,3978,3995,4015,4028,4045,4061,4061,4078,4095,4095,4114,4114,4134,4145,4145,4164,4164,4178,4195,4195,4211,4228,4245,4245,4261,4278,4278,4295,4295,4295,4311,4311,4328,4345,4345,4361,4361,4378,4378,4395,4395,4411,4411,4428,4428,4445,4461,4461,4478,4495,4495,4511,4528,4528,4545,4545,4564,4578,4596,4596,4613,4613,4628,4645,4663,4678,4695,4695,4711,4728,4745,4761,4778,4795,4823,4823,4833,4833,4853,4863,4893,4912,4913,4922,4923,4932,4945,4962,4978,4995,5011,5028,5053,5053,5082,5082,5112,5112,5122,5122,5132,5152,5172,5192,5202,5422,5442,5461,5462,5471,5472,5482,5482,5495,5511,5529,5529,5545,5545,5561,5561,5578,5601,5601,5621,5621,5632,5645,5661,5678,5695,5711,5711,5731,5731,5745,5762,5782,5782,5801,5801,5811,5811,5828,5845,5861,5878,5878,5895,5911,5929,5929,5945,5961,5978,5995,6011,6029,6029,6045,6045,6045,6061,6061,6061,6078,6078,6078,6095,6095,6112,6112,6112,6129,6129,6129,6145,6145,6161,6161,6161,6162,6178,6178,6178,6178,6178,6195,6195,6195,6211,6211,6211,6229,6229,6229,6245,6261,6261,6261,6280,6280,6280,6295,6295,6295,6311,6329,6329,6345,6345,6361,6361,6361,6378,6378,6378,6395,6395,6411,6411,6430,6430,6430,6445,6461,6461,6480,6480,6480,6480,6495,6495,6511,6529,6529,6529,6545,6545,6545,6561,6561,6561,6561,6578,6578,6578,6595,6611,6611,6611,6629,6629,6630,6649,6649,6650,6650,6661,6661,6661,6678,6678,6695,6695,6711,6711,6729,6729,6729,6745,6745,6745,6745,6762,6762,6762,6778,6778,6778,6795,6795,6811,6811,6812,6812,6829,6829,6845,6845,6861,6861,6861,6862,6878,6878,6878,6895,6895,6911,6911,6912,6929,6929,6929,6929,6945,6945,6945,6945,6961,6978,6978,6978,6995,6995,7011,7011,7029,7049" d="m182,146c-0.05716,-1.7 -0.6862,-2.42236 -0.94284,-3.3c-0.25311,-0.86555 -0.05716,-1.80017 -0.05716,-2.58533c0,-0.94 0.09273,-1.9577 -0.036,-2.74001c-0.14532,-0.88316 -0.61244,-1.56561 -0.84267,-2.57466c-0.17999,-0.78888 -0.26271,-1.80875 -0.54668,-2.58934c-0.26714,-0.73431 -0.55666,-1.59547 -0.57466,-2.54399c-0.01741,-0.91718 0,-1.66133 0,-2.69601c0,-0.768 0,-1.72783 0,-2.62333c0,-0.86333 0,-1.8265 0,-2.64734c0,-0.89999 -0.09146,-1.8156 0.08533,-2.58533c0.226,-0.98402 0.67921,-1.70599 0.862,-2.71467c0.14389,-0.79398 0.23895,-1.61407 0.5735,-2.4c0.43431,-1.02029 0.79868,-1.59562 1.17917,-2.45717c0.42168,-0.95482 0.62302,-1.48701 0.864,-2.3175c0.30443,-1.04912 0.31859,-1.99773 0.52,-2.73867c0.24408,-0.8979 0.92287,-1.64921 1.31599,-2.312c0.40717,-0.68647 1.11633,-1.4905 1.43333,-2.34133c0.28957,-0.77723 0.69942,-1.57198 1.14134,-2.28c0.48114,-0.77084 0.40529,-1.66065 1.12517,-2.3105c0.67307,-0.60758 1.09381,-1.36647 1.54683,-1.87884c0.63693,-0.72038 1.38208,-1.32451 1.784,-1.88c0.65585,-0.90647 1.13599,-1.68816 1.75467,-2.084c0.78978,-0.50533 1.46777,-1.14634 2.11467,-1.6955c0.75499,-0.64092 1.53389,-0.77566 2.468,-1.2725c0.49384,-0.26266 1.16576,-0.86619 2.26132,-1.26133c0.73953,-0.26673 1.65924,-0.24969 2.4915,-0.67067c0.79021,-0.3997 1.70203,-0.39008 2.59384,-0.784c0.74002,-0.32687 1.50311,-0.70759 2.28532,-1.14133c0.82014,-0.45478 1.70001,-0.57467 2.60001,-0.57467c0.8,0 1.7,0 2.60001,0c0.89999,0 1.80815,-0.11649 2.7,0.0045c0.82135,0.11143 1.46858,0.83173 2.3,0.98483c0.88565,0.16309 1.71791,0.59982 2.5,0.88917c0.85173,0.31512 1.75438,0.13214 2.5,0.73216c0.65523,0.52728 1.27216,1.15743 2.22533,1.36401c0.68341,0.14811 1.52609,0.49547 2.34134,1.02533c0.64153,0.41695 1.69234,0.75143 2.42267,1.02533c0.85088,0.31911 1.42796,1.18301 2.11066,1.6175c0.73213,0.46595 1.76617,0.22186 2.5,0.6425c0.68657,0.39355 1.28702,1.22792 2.00267,1.916c0.46112,0.44336 1.33206,1.13142 2.048,1.61333c0.49332,0.33207 1.62477,0.89572 2.328,1.2c0.84718,0.36656 1.52214,1.08453 2.02133,1.58533c0.70113,0.70338 1.22131,1.27186 1.7,2.05267c0.41896,0.6834 0.95572,1.6461 1.58533,2.146c0.71783,0.56995 1.50691,0.83921 2.3575,1.50134c0.58995,0.45924 1.27226,1.18528 1.85701,1.8c0.55774,0.58633 0.8186,1.4489 1.1855,2.38267c0.26779,0.68152 1.09399,1.2589 1.8145,1.739c0.63728,0.42464 0.75114,1.45188 0.98416,2.29433c0.24368,0.88104 0.82466,1.68459 0.91617,2.58417c0.07993,0.78571 0.40219,1.53323 0.71584,2.41583c0.29584,0.83252 0.284,1.784 0.284,2.684c0,0.9 0,1.8 0,2.60001c0,0.89999 0,1.8 0,2.7c0,0.9 0,1.8 0,2.70134c0,0.96533 0,1.79866 0,2.63199c0,0.86217 0.16522,1.78587 -0.02083,2.66667c-0.17899,0.8474 -0.82347,1.60997 -1.06317,2.38533c-0.23932,0.77412 -0.83362,1.41876 -1.48,2.12933c-0.54753,0.6019 -0.09294,1.66391 -0.45683,2.46451c-0.35146,0.77324 -0.6925,1.29674 -1.05118,2.12083c-0.37926,0.87138 -1.35403,1.0865 -2.04266,1.88399c-0.4129,0.47816 -0.99147,1.49002 -1.38533,2.01601c-0.60959,0.81409 -0.86499,1.60518 -1.59984,2.25717c-0.67819,0.60172 -1.29185,1.14326 -1.87483,1.66817c-0.58917,0.53047 -1.59442,0.91017 -1.90382,1.67467c-0.3407,0.84183 -0.12151,1.78532 -0.12151,2.55716c0,0.94417 0,1.93834 0,2.68567c0,1.02116 -0.04852,1.85847 0.00017,2.75734c0.04271,0.7886 0.47888,1.71753 0.71584,2.50116c0.29515,0.97607 0.20515,1.7453 0.2885,2.646c0.08603,0.92957 0.57802,1.72423 0.82883,2.586c0.24515,0.84233 0.16667,1.76668 0.16667,2.66667c0,0.89999 0,1.8 0,2.7c0,0.90018 0,1.68533 0,2.62534c0,0.69067 0,1.76401 0,2.58533c0,0.91084 0,1.8 0,2.78917c0,0.77934 0,1.77867 0,2.59883c0,0.90134 0,1.80135 0,2.612c0,0.91068 0,1.76401 0,2.70401c0,0.98534 0,1.88533 0,2.68533c0,0.89999 0,1.8 0,2.7c0,0.89999 0,1.70134 0,2.66667c0,0.85416 0.06302,1.83751 -0.02133,2.63333c-0.08578,0.8093 -0.55678,1.59439 -0.97867,2.22083c-0.44275,0.65739 -0.85269,1.65947 -0.97917,2.47917c-0.12543,0.81291 -0.3174,1.81059 -0.59549,2.68933c-0.31847,1.00636 -0.36736,1.62604 -0.50934,2.496c-0.16388,1.00417 -0.39157,1.81232 -0.71733,2.54533c-0.44324,0.99736 -0.98038,1.61694 -1.52017,2.53383c-0.35191,0.59773 -0.70201,1.29665 -1.08299,2.04901c-0.59973,1.18436 -0.7928,1.58728 -1.19101,2.37299c-0.38124,0.75224 -0.69795,1.47186 -1.38316,2.54935c-0.48721,0.76613 -0.92159,1.21893 -1.50533,2.03349c-0.53101,0.74098 -0.88004,1.27242 -1.49451,2.30901c-0.39638,0.66866 -0.80354,1.44684 -1.42149,2.29633c-0.5845,0.80351 -1.01825,1.46342 -1.3,2.08701c-0.4281,0.94746 -0.69173,1.76672 -1,2.58566c-0.3896,1.03499 -0.65648,1.73055 -1.10001,2.466c-0.45673,0.75734 -1.31256,1.40239 -1.76399,2.12267c-0.48853,0.77946 -0.37579,1.6306 -0.879,2.564c-0.35002,0.64926 -0.96729,1.19873 -1.75667,1.99983c-0.57996,0.58858 -1.16705,1.09169 -1.63234,1.91617c-0.412,0.73006 -0.88405,1.53589 -1.35333,2.09467c-0.65678,0.78204 -1.15601,1.59274 -1.61333,2.304c-0.47813,0.74362 -1.22383,1.46457 -1.72217,2.02701c-0.67755,0.76469 -1.13138,1.46399 -1.47917,1.95833c-0.51534,0.73247 -1.32396,1.6279 -1.71333,2.29733c-0.45653,0.7849 -0.84489,1.69919 -1.32834,2.22351c-0.54721,0.59348 -1.36363,1.37537 -1.75833,1.78983c-0.60828,0.6387 -1.40378,1.60782 -1.8,2.142c-0.40387,0.54446 -0.98395,1.37625 -1.59966,2.12567c-0.56454,0.68713 -1.15349,1.21826 -1.69501,2.16901c-0.50414,0.8851 -0.80753,1.4213 -1.51433,2.15717c-0.58118,0.60507 -1.19101,1.1955 -1.791,1.7955c-0.79999,0.79999 -1.39999,1.39999 -2,2c-0.40001,0.39999 -1.19868,1.19864 -1.77917,1.77914c-0.53551,0.53552 -1.36833,1.41885 -1.90483,1.81952c-0.8996,0.67184 -1.53996,0.88531 -2.23199,1.68665c-0.57928,0.67081 -1.03296,1.5296 -1.54117,2.11469c-0.53531,0.61627 -1.34283,1.39999 -1.94284,2c-0.59999,0.60001 -0.99397,1.0061 -1.80133,1.79999c-0.61493,0.60468 -1.26823,1.21988 -2.01984,1.79968c-0.77774,0.59998 -1.28081,0.99713 -2.2455,1.46698c-0.80692,0.39301 -1.68292,0.63931 -2.33867,1.04767c-0.76425,0.47592 -1.29439,0.82584 -2.02399,1.68436c-0.61005,0.71786 -1.02087,1.62802 -1.64267,2.22665c-0.61568,0.59274 -1.34158,1.02661 -2.11334,1.58533c-0.53462,0.38705 -1.53012,1.1871 -1.97867,1.57867c-0.6326,0.55222 -1.45541,1.16119 -2.21516,1.71066c-0.87796,0.63498 -1.24449,1.18484 -1.71815,1.71066c-0.75346,0.83643 -1.34937,1.20016 -2.3235,1.78934c-0.67384,0.40753 -1.65659,0.98526 -2.20717,1.39734c-0.72414,0.54199 -1.26123,1.07178 -2.14667,1.552c-0.77371,0.41965 -1.45055,0.92477 -2.02983,1.4025c-0.78117,0.64423 -1.57468,1.12732 -2.42883,1.64816l-0.64584,0.47916l-0.81633,0.46817l-0.67917,0.478" id="svg_2" stroke-width="2" stroke="#000" fill="none"/>
  <path t="8755,9015,9025,9035,9035,9045,9061,9078,9078,9095,9095,9111,9128,9128,9145,9145,9145,9162,9162,9162,9162,9178,9178,9178,9195,9195,9195,9195,9211,9211,9211,9211,9229,9229,9229,9245,9245,9245,9245,9261,9261,9261,9261,9261,9278,9278,9295,9295,9295,9295,9311,9311,9311,9311,9328,9328,9345,9345,9345,9361,9361,9361,9361,9361,9378,9378,9395,9395,9395,9411,9411,9411,9428,9428,9428,9445,9445,9445,9461,9461,9478,9495,9495,9511,9511,9511,9528,9545,9545,9545,9561,9561,9561,9578,9578,9595,9595,9611,9611,9611,9628,9628,9645,9645,9664,9664,9664,9678,9678,9695,9695,9711,9711,9729,9729,9745,9745,9745,9762,9762,9778,9778,9795,9795,9994,10004,10036,10036,10050,10050,10051,10051,10062,10062,10079,10079,10095,10095,10112,10112,10128,10146,10161,10162,10180,10180,10293,10303,10320,10339,10339,10339,10347,10362,10362,10378,10378,10395,10413,10413,10413,10433,10452,10453,10453,10462,10462,10478,10495,10511,10529,10529,10592,10592,10602,10602,10612,10612,10628,10645,10645,10645,10661,10661,10661,10678,10678,10695,10712,10712,10832,10841,10871,10881,10901,10901,10911,10941,10951,10991,10991,11101,11121,11141,11151,11151,11161,11178,11178,11195,11195,11211,11211,11211,11228,11228,11228,11228,11245,11245,11245,11261,11261,11261,11261,11278,11278,11278,11295,11295,11311,11311,11328,11328,11345,11345,11361,11361,11361,11378,11378,11378,11395,11395,11395,11411,11411,11411,11428,11428,11428,11445,11445,11445,11461,11461,11461,11478,11478,11478,11495,11495,11495,11511,11511,11511,11528,11528,11528,11545,11545,11545,11561,11561,11561,11578,11578,11578,11578,11595,11595,11611,11611,11628,11628,11628,11645,11645,11661,11661,11661,11680,11680,11680,11680,11695,11695,11711,11711,11729,11729,11729,11745,11745,11761,11761,11761,11779,11779,11779,11795,11795,11811,11811,11811,11829,11829,11829,11829,11845,11845,11845,11861,11861,11861,11861,11878,11878,11900,11900,11929,11979,12159" d="m110,294c-1.05267,1.70001 -1.54179,2.48032 -2.19867,3.20001c-0.53348,0.5845 -0.79273,1.41788 -1.22666,2.19998c-0.45586,0.82162 -0.59915,1.50983 -1.01067,2.42535c-0.32032,0.71265 -0.97279,1.53049 -1.564,2.17465c-0.60916,0.6637 -1.10505,1.54092 -1.41067,2.272c-0.229,0.54779 -0.7451,1.73389 -1.07333,2.32666c-0.33047,0.5968 -0.87357,1.43799 -1.34933,2.23468c-0.42316,0.70859 -0.90871,1.62558 -1.33333,2.33331c-0.47863,0.79773 -0.85203,1.35559 -1.43467,2.23468c-0.59647,0.89996 -0.99228,1.4986 -1.39867,2.07782c-0.59079,0.84204 -1.195,1.60385 -1.8,2.2955c-0.39674,0.45355 -1.21398,1.38156 -1.6,1.91333c-0.62302,0.85828 -1.02196,1.51932 -1.6,2.64536c-0.20781,0.40482 -0.59229,1.25995 -0.97916,2.10416c-0.36068,0.78705 -0.84798,1.73392 -1.38483,2.42517c-0.6288,0.80963 -0.84061,1.27621 -1.15684,2.19983c-0.23881,0.69748 -0.62675,1.78006 -0.96183,2.44949c-0.47011,0.93918 -0.88033,1.43472 -1.34933,2.52002c-0.32536,0.7529 -0.61143,1.5108 -1.02934,2.25064c-0.32446,0.5744 -0.98735,1.87814 -1.25333,2.59869c-0.26473,0.71716 -0.44812,1.43057 -0.684,2.064c-0.45133,1.21198 -0.95288,1.83063 -1.40133,2.82532c-0.34003,0.75421 -0.50008,1.33832 -0.9,2.52917c-0.20004,0.59567 -0.47759,1.47284 -0.9,2.53351c-0.28501,0.71567 -0.60491,1.35358 -1.09983,2.36667c-0.29241,0.59857 -0.65965,1.39056 -0.8475,2.39548c-0.13869,0.74188 -0.59377,1.72955 -0.886,2.57117c-0.28547,0.82214 -0.31152,1.84061 -0.51933,2.42883c-0.32924,0.93195 -0.58675,1.7977 -0.814,2.73785c-0.16512,0.68314 -0.42249,1.46024 -0.83334,2.5c-0.28091,0.71094 -0.75418,1.47568 -0.94283,2.41849c-0.1412,0.70569 -0.02935,1.75998 -0.09317,2.53351c-0.08684,1.05255 -0.25569,1.78473 -0.6685,2.55301c-0.51318,0.95511 -1.04613,1.53625 -1.28084,2.50833c-0.14727,0.60992 -0.44705,1.57996 -0.86533,2.37866c-0.43342,0.82761 -0.83823,1.60165 -1.088,2.51733c-0.25044,0.91815 -0.8513,1.36606 -1.26,2.11066c-0.47035,0.8569 -0.57788,1.82816 -0.82217,2.64667c-0.25453,0.85284 -0.69366,1.49994 -1.12849,2.24933c-0.52856,0.91092 -0.78407,1.74435 -1.07201,2.57199c-0.24107,0.69293 -0.61921,1.66693 -0.83133,2.43134c-0.25101,0.90457 -0.46411,1.87848 -0.0685,1.14685c0.38282,-0.70798 0.55365,-1.66827 0.831,-2.25751c0.45853,-0.97418 0.75362,-1.62436 1.40484,-2.586c0.43961,-0.64917 1.28667,-1.29721 1.6,-1.94135c0.42789,-0.87964 0.35352,-1.72296 1.136,-2.47867c0.52212,-0.50424 1.09991,-1.27264 1.58533,-2.04666c0.50112,-0.79904 0.79548,-1.55225 1.564,-2.25598c0.51156,-0.46844 1.67916,-1.0737 1.9955,-0.62433c0.47929,0.68088 0.0045,1.83365 0.0045,2.54166c0,0.74399 0,1.93948 0,2.91599c0,0.65869 0,1.66669 0,2.52884c0,0.84616 0,1.84717 0,2.55518c0,0.74399 0,1.93948 0,2.91599c0,0.66934 0,1.43466 0,2.42883c0,0.91919 -0.1455,1.89694 0.01067,2.8045c0.14336,0.83319 0.52843,1.7887 1.07333,2.31467c0.69029,0.66632 1.6964,0.29022 2.56866,-0.07184c0.71732,-0.29776 1.48164,-0.82117 2.146,-1.44281c0.6313,-0.5907 1.368,-1.36667 1.8585,-1.85718c0.5535,-0.5535 1.35024,-1.33557 1.93384,-1.93832c0.54398,-0.56183 1.08523,-1.41995 1.49166,-2.20319c0.38605,-0.74399 1.26161,-1.26556 1.8965,-1.70132c0.80996,-0.55591 1.46752,-1.75177 1.9355,-1.21466c0.60356,0.69272 0.37504,1.77158 0.73267,2.41467c0.47441,0.85312 0.94182,1.61792 1.23117,2.39999c0.31512,0.85175 0.03432,1.85349 0.73216,2.46399c0.66601,0.58264 1.76485,0.60794 2.58933,0.15067c0.69205,-0.38382 1.2,-1.11465 1.9,-1.81467c0.6,-0.60001 1.23036,-1.18713 1.78533,-1.87067c0.63032,-0.77634 0.9538,-1.29922 1.51917,-2.13834c0.59882,-0.88876 0.9849,-1.49576 1.3955,-2.06967c0.5851,-0.81784 1.39101,-1.68982 2,-2.17065c0.59147,-0.46701 1.41175,-1.18369 1.8,-1.66049c0.61913,-0.76035 0.97526,-1.32785 1.79867,-2.3035c0.3795,-0.44968 1.12928,-1.18707 1.716,-1.80267c0.59457,-0.62384 1.1933,-1.53693 1.48533,-2.09467c0.51412,-0.9819 0.85512,-1.79639 1.4,-2.62268c0.37054,-0.56189 1.01031,-1.32718 1.41067,-2.01334c0.35574,-0.60968 0.90192,-1.58011 1.41467,-2.36798c0.34352,-0.52786 0.98339,-1.4726 1.54933,-2.12399c0.48876,-0.56256 1.29183,-1.3143 1.83601,-1.90802c0.39758,-0.43378 1.19684,-1.43103 1.57866,-1.97867c0.56678,-0.8129 1.05663,-1.60086 1.45351,-2.3175c0.46769,-0.84451 0.84586,-1.6633 1.278,-2.478c0.35514,-0.66953 0.80743,-1.39618 1.29383,-2.2045c0.32882,-0.54645 0.87661,-1.60089 1.13467,-2.53867c0.17258,-0.62717 0.62878,-1.6304 1.05067,-2.25684c0.44273,-0.65738 0.832,-1.66315 1,-2.47916c0.168,-0.81601 0.55307,-1.82703 1.02084,-2.5c0.32006,-0.46048 0.9747,-1.41351 1.35383,-2.23599c0.26247,-0.5694 0.78117,-1.76987 1.108,-2.36133c0.48071,-0.86993 0.90524,-1.34332 1.34801,-2.43335c0.28215,-0.69461 0.53395,-1.62778 0.87383,-2.431c0.40442,-0.95578 0.68097,-1.75876 0.89551,-2.27701c0.46863,-1.13199 0.95317,-1.70505 1.5,-2.58316c0.44496,-0.71454 0.71614,-1.44476 1,-2.32065c0.21213,-0.65454 0.47179,-1.68045 0.7,-2.30417c0.44177,-1.20737 0.90297,-1.7789 1.15182,-2.715c0.20952,-0.78809 0.46411,-1.77429 0.9095,-2.55301c0.30589,-0.53479 1.01788,-1.41888 1.492,-2.12399c0.53404,-0.79422 0.56337,-1.52606 0.81599,-2.34802c0.31519,-1.02548 0.84299,-1.78558 1.12534,-2.3035c0.56079,-1.02872 0.72993,-1.82126 0.99068,-2.78183c0.21608,-0.79602 0.42747,-1.39175 0.71466,-2.39465c0.30898,-1.07898 0.49153,-1.81494 0.7,-2.5235c0.28833,-0.98001 0.57602,-1.81375 0.936,-2.52451c0.49246,-0.97232 1.02277,-1.73172 1.34317,-2.28534c0.46713,-0.80716 0.84932,-1.81384 1,-2.45834c0.23869,-1.02097 0.66817,-1.73715 1,-2.54166l0.03149,-0.89999l0.3465,-0.89999" id="svg_3" stroke-width="2" stroke="#000" fill="none"/>
  <path t="12788,13037,13057,13077,13077,13097,13097,13107,13117,13137,13157,13157,13167,13187,13197,13197,13217,13228,13228,13247,13261,13278,13294,13311,13449,13449" d="m160,306c-1.83333,0.16666 -2.26082,0.79123 -3.10017,1.22134c-0.69685,0.35709 -1.62604,0.49561 -2.33049,0.86267c-0.77632,0.40451 -1.04518,1.47983 -1.86934,1.86331c-0.76669,0.35675 -1.6284,0.54562 -2.34283,1.10535c-0.6312,0.49451 -1.03185,1.31894 -1.8745,1.66199c-0.82976,0.3378 -1.84541,0.42856 -2.46184,0.80618c-0.92805,0.56851 -1.38359,1.29425 -1.96815,1.83182c-0.58224,0.53543 -1.35268,1 -2.15268,1.52585l-0.7,0.12015" id="svg_4" stroke-width="2" stroke="#000" fill="none"/>
  <path t="13976,14075,14085,14095,14116,14135,14136,14145,14185" d="m105,290c-1.64283,-0.29099 -1.93479,0.53204 -2.35267,1.29999c-0.45759,0.84091 -0.64733,1.70001 -0.64733,2.5l-0.05717,0.90002l-0.44283,0.79999" id="svg_5" stroke-width="2" stroke="#000" fill="none"/>
  <path t="15724,15963,15973,15998,16029,16029,16044,16045,16045,16061,16079,16103,16162,16162,16162,16192,16232,16232,16431,16451,16472,16481,16494,16511,16528,16544,16544,16561,16561,16578,16594,16611,16631,16631,16671,16671,16721,16891,16991,17050,17110,17120,17130,17170,17210,17260,17290,17420,17420,17440,17499,17519,17529,17529,17549,17579,17599,17610,17610,17649" d="m152,253c0.05716,-1.7 0.56111,-2.46878 0.94733,-3.3c0.40582,-0.87343 0.81322,-1.4583 1.53667,-2.18399c0.5152,-0.5168 1.10204,-0.96817 1.86934,-1.88c0.58212,-0.69177 0.88263,-1.47136 1.81334,-1.80267c0.67039,-0.23865 1.3938,-0.57619 2.19733,-1.23332c0.67683,-0.55353 1.16914,-1.36111 2.136,-1.57918c0.8676,-0.19568 1.48958,0.49982 1.5,1.37917c0.01067,0.89995 0,1.8 0,2.70001c0,0.89999 0,1.65717 0,2.55266c0,0.86334 0,1.82651 0,2.74733c0,0.90451 0,1.76668 0,2.60001c0,0.9785 -0.01802,1.79884 0,2.7c0.01801,0.90056 0.58812,2.07503 0.98933,1.67867c0.62511,-0.61758 0.25354,-1.81349 0.00616,-2.67416c-0.22072,-0.7679 -0.84688,-1.43567 -1.4315,-2.09383c-0.61624,-0.69377 -1.51778,-0.85281 -2.26399,-1.25801c-0.76112,-0.4133 -1.71051,-0.48538 -2.60001,-0.34816c-0.93138,0.14368 -1.63707,0.47755 -2.34283,1.04817c-0.73106,0.59108 -1.27316,1.23267 -1.57866,2.04733l-0.483,0.59999l-0.6955,0.7" id="svg_6" stroke-width="2" stroke="#000" fill="none"/>
  <path t="18607,18757,18757,19096,19116,19126,19156,19156,19206" d="m152,252c-1,-1 -1.92787,-1.06824 -2.47917,-0.47917c-0.68604,0.73303 -0.52533,1.77917 -0.74216,2.57918l-0.49467,0.7l-0.30933,0.836" id="svg_7" stroke-width="2" stroke="#000" fill="none"/>
  <path t="21025,21154,21174,21198,21212,21212,21212,21228,21228,21245,21245,21261,21261,21277,21277,21294,21294,21311,21311,21311,21311,21327,21327,21344,21344,21344,21362,21362,21362,21377,21377,21394,21422,21422,21482,21482,21482,21492,21522,21542,21632,21642,21681,21701,21722,21741,21741,21762,21777,21794,21811,21811,21827,21827,21844,21861,21861,21877,21894,21911,21911,21927,21944,21944,22091,22151,22171,22200,22512,22532,22590,22630,22630,22650,22690,22720,22959,22960,22970,22979,22995,23011,23027,23027,23049,23061,23079,23109,23109,23119,23159,23159,23209,23308,23478,23478,23488" d="m179,252c0,-1.7 -0.08247,-2.60545 0.02083,-3.54167c0.11197,-1.01471 0.41803,-1.70509 0.62651,-2.45299c0.2874,-1.03098 0.35501,-1.77194 0.70982,-2.66251c0.30502,-0.76558 0.86195,-1.73206 1.12201,-2.32201c0.43416,-0.98492 0.51703,-1.79469 0.88249,-2.6825c0.24771,-0.60175 0.80725,-1.50363 1.2865,-2.291c0.33257,-0.54639 0.87061,-1.3324 1.18251,-2.362c0.25914,-0.85542 0.37328,-1.89195 0.60533,-2.496c0.33992,-0.88484 0.76146,-1.87296 0.96399,-2.40399c0.29631,-0.77693 0.8616,-1.77652 1.24284,-2.47633c0.43219,-0.79335 0.62929,-1.80042 0.96783,-2.51967c0.37482,-0.79633 0.82571,-1.55936 1.10399,-2.304c0.34511,-0.92348 1.01627,-1.33699 1.67467,-1.92134c0.69321,-0.61523 1.20927,-1.74472 1.57468,-1.12799c0.49194,0.83032 0.47833,1.6758 0.86932,2.564c0.28951,0.65764 0.16667,1.60001 0.16667,2.5c0,0.91066 0,1.82133 0,2.67467c0,0.94133 0,1.70934 0,2.65067c0,1.008 0,1.76401 0,2.67467c0,0.91066 0,1.82133 0,2.67467c0,0.94 0,1.82533 0,2.62534c0,0.89999 0,1.8 0,2.7c0,0.89999 0.01059,1.87329 -0.08533,1.69733c-0.39346,-0.72188 -1.03879,-1.50037 -1.71468,-1.91199c-0.84247,-0.51308 -1.55666,-0.89767 -2.116,-1.57068c-0.55602,-0.66901 -0.85182,-1.55981 -1.68401,-1.70399c-0.88684,-0.15364 -1.91493,-0.21271 -2.6955,0.3465c-0.68135,0.48811 -0.82133,1.4236 -1.27916,2.24284c-0.43169,0.77246 -1.05373,1.30971 -1.62401,1.96933c-0.4684,0.54178 -0.57706,1.59772 -0.968,2.43066c-0.36078,0.76869 -0.83333,1.5 -1.19049,2.3l-0.64284,0.7l-0.58566,0.64284l0.47366,0.35583" id="svg_8" stroke-width="2" stroke="#000" fill="none"/>
  <path t="24776,25055,25075,25085,25085,25105,25125,25145,25145,25155,25175,25185,25205,25225,25225,25245,25245,25255,25264,25265,25284,25304,25314,25314,25327,25354,25354,25384,25804,25804,25853,25864,25883,25913,25933,25943,25963,25983,25993,25993,26003,26013,26027,26044,26064,26083,26094,26133,26133,26153,26173,26223,26273,26323" d="m258,120c1.47916,1.5 1.79538,2.37284 2.28534,3.2c0.40332,0.68088 1.27731,1.25436 1.63065,2c0.40695,0.85886 0.69473,1.51627 1.10934,2.4c0.37793,0.80552 1.37939,1.06173 1.89066,1.68667c0.57938,0.70821 0.45663,1.57686 1.08401,2.54666c0.4368,0.6752 0.76373,1.43373 1.2215,2.26668c0.37097,0.67502 1.34656,1.20444 1.65701,2c0.33014,0.84602 -0.27139,1.83032 0.20682,2.61465c0.49005,0.80376 0.914,1.17201 0.91467,2.11067c0.00073,1.008 0.39554,1.9841 -0.03601,2.73866c-0.39502,0.69067 -1.564,0.436 -2.46399,0.436c-0.89999,0 -1.79999,0 -2.70001,0c-0.89999,0 -1.79999,0 -2.59998,0c-0.90002,0 -1.80002,0 -2.70001,0c-0.89999,0 -1.79999,0 -2.70001,0c-0.89999,0 -1.79999,0 -2.59999,0c-0.89999,0 -1.8,0 -2.7,0l-0.89999,0l-0.90001,0" id="svg_9" stroke-width="2" stroke="#000" fill="none"/>
  <path t="27092,27281,27301,27301,27311,27311,27327,27344,27361,27377,27377,27394,27394,27411,27427,27427,27444,27461,27461,27481,27494,27494,27494,27511,27527,27527,27544,27544,27544,27561,27561,27561,27561,27577,27577,27577,27594,27611,27611,27627,27627,27644,27661,27661,27677,27677,27677,27694,27694,27711,27711,27730,27730,27760,27760,27760,27780,27780,27780,27794,27794,27811,27827,27827,27844,27844,27861,27861,27877,27877,27877,27894,27894,27911,27911,27911,27927,27927,27927,27927,27927,27944,27944,27944,27961,27961,27961,27977,27977,27977,27994,27994,27994,28011,28011,28030,28030,28030,28030,28044,28044,28044,28061,28061,28061,28061,28077,28077,28094,28094,28111,28111,28111,28127,28127,28127,28144,28144,28144,28161,28161,28161,28161,28177,28177,28177,28177,28194,28194,28211,28211,28227,28227,28227,28244,28244,28261,28261,28261,28261,28277,28277,28277,28294,28294,28294,28311,28311,28327,28327,28327,28359,28359,28379,28409,28409,28439,28439,28479,28588" d="m177,158c-1.82533,-0.95334 -2.88319,-0.912 -3.47917,-0.47917c-0.80061,0.58145 -1.29222,1.31171 -2.22083,1.47467c-0.88736,0.15572 -1.68661,0.47427 -2.46667,1.0045c-0.62979,0.42809 -1.33983,1.14578 -1.93866,1.64284c-0.63528,0.52731 -1.72792,0.52399 -2.37384,0.85716c-0.9207,0.4749 -1.73798,0.76605 -2.32083,1.30133c-0.62985,0.57843 -1.36255,1.20554 -2.02533,1.59866c-0.68648,0.40717 -1.5475,0.99083 -2.27484,1.70018c-0.5425,0.52907 -1.21405,1.22905 -1.74649,1.73582c-0.60664,0.57741 -1.57184,1.36778 -2.106,1.76401c-0.54448,0.40387 -1.37624,0.98393 -2.12567,1.59966c-0.68713,0.56454 -1.23996,1.11687 -2.16449,1.69501c-0.74194,0.46396 -1.20815,1.15845 -1.75717,1.93866c-0.46062,0.65457 -1.42358,0.95874 -2.10001,1.60966c-0.5188,0.49925 -0.89264,1.56076 -1.2,2.15251c-0.39072,0.75223 -1.02882,1.6302 -1.5,2.2885c-0.53371,0.74565 -0.86243,1.48914 -1.40134,2.23334c-0.52081,0.71921 -1.12854,1.41957 -1.62399,2.144c-0.35551,0.51982 -1.01263,1.56932 -1.4175,2.27699c-0.35054,0.61272 -1.03697,1.52246 -1.40001,2.15717c-0.50409,0.88133 -0.60619,1.80679 -0.96783,2.47917c-0.44583,0.82892 -1.04384,1.41516 -1.58932,2.312c-0.44632,0.73378 -0.79692,1.6812 -1.10001,2.457c-0.29698,0.76019 -0.74448,1.51334 -1.3,2.13234c-0.65907,0.73438 -0.9283,1.51372 -1.21432,2.09467c-0.49608,1.00761 -0.9505,1.71318 -1.42567,2.444c-0.47151,0.72519 -0.97282,1.38397 -1.39583,2.34233c-0.33089,0.74963 -0.47327,1.67174 -0.93217,2.44434c-0.38568,0.64934 -0.95431,1.25241 -1.264,2.28267c-0.23983,0.79784 -0.24045,1.6758 -0.736,2.63066c-0.36509,0.70349 -0.96631,1.24315 -1.32667,2.29433c-0.22088,0.6443 -0.42086,1.73125 -0.67467,2.35901c-0.42222,1.04433 -0.78115,1.72734 -1.264,2.69867c-0.28056,0.56438 -0.67234,1.30122 -1.16666,2.5c-0.21144,0.51276 -0.48862,1.3376 -0.8,2.14932c-0.38469,1.00282 -0.85829,1.80734 -1.0785,2.66284c-0.20919,0.8127 -0.08637,1.79466 -0.16316,2.56284c-0.08659,0.86629 -0.37923,1.76848 -0.80901,2.64766c-0.28442,0.58185 -0.87614,1.62836 -1.035,2.3625c-0.15134,0.69939 -0.10537,1.78157 -0.11884,2.758c-0.0098,0.71112 -0.0056,1.4478 -0.16216,2.5235c-0.14669,1.00786 -0.30207,1.62463 -0.63467,2.39467c-0.42889,0.993 -0.97847,1.63942 -1.17334,2.61867c-0.16533,0.8308 -0.30333,1.83765 -0.52533,2.63251c-0.21033,0.7531 -0.41241,1.73065 -0.60983,2.38333c-0.27827,0.91997 -0.74759,1.8212 -1.0395,2.4975c-0.2894,0.67047 -0.70001,1.86717 -0.82983,2.61916c-0.12098,0.70071 -0.2858,1.711 -0.54167,2.52084c-0.25996,0.82278 -0.69974,1.80585 -0.95833,2.47916c-0.3874,1.0087 -0.44465,1.82944 -0.60484,2.62085c-0.20456,1.01062 -0.60252,1.73077 -0.86333,2.64734c-0.25867,0.90903 -0.478,1.578 -0.886,2.586l-0.156,0.75598l-0.01067,0.91068l0,0.95834" id="svg_10" stroke-width="2" stroke="#000" fill="none"/>
  <path t="30186,30555,30575,30585,30605,30625,30665,30754,30964,30964,30994,31024,31054,31084,31124,31124,31154,31174,31214,31254,31274,31274,31313,31343,31453,31493,31493,31603,31633,31653,31922,31922,31943,32012,32162,32232,32292,32352,32352,32401,32441,32511,32521,32541,32541,32551,32571,32581,32601,32611,32771,32781" d="m218,118c0.05716,-1.7 0.4604,-2.52361 0.94733,-3.2955c0.44312,-0.70244 1.16455,-1.18388 1.70001,-1.75716c0.64001,-0.68523 1.31741,-1.17139 1.95267,-1.522c0.83981,-0.46352 1.38939,0.18533 1.39999,1.07467c0.01073,0.9 0.34651,1.80966 0.80133,2.3c0.66264,0.7144 1.17007,1.49864 1.19867,2.39999c0.02853,0.89955 -0.17355,1.83826 0.08533,2.60001c0.30176,0.88791 1.03026,1.60749 0.91017,2.5c-0.12572,0.93437 -0.74191,1.56157 -1.39549,2.08933c-0.74461,0.60127 -1.70001,0.61066 -2.60001,0.61066c-0.8,0 -1.68819,-0.09962 -2.084,-0.80133c-0.46051,-0.81642 -0.76538,-1.61121 -0.9205,-2.49867c-0.16226,-0.92832 -0.84732,-1.46862 -0.991,-2.39999c-0.13722,-0.88949 -0.05746,-1.83477 0.34816,-2.60001c0.44841,-0.84593 0.56424,-1.64775 1.25801,-2.264c0.65816,-0.58462 1.38933,-0.936 2.03667,-1.48866l0.43666,-0.74866l0.52667,-0.72667l0.77866,0.01067" id="svg_11" stroke-width="2" stroke="#000" fill="none"/>
  <path t="34818,34847,34847,34847,34847,34857,34857,34857,34857,34857,34857,34867,34867,34867,34867,34867,34867,34867,34867,34878,34878,34878,34878,34878,34878,34878,34878,34894,34894,34894,34894,34894,34894,34894,34894,34910,34910,34910,34910,34910,34910,34911,34911,34927,34927,34928,34928,34928,34928,34928,34928,34928,34944,34944,34944,34944,34944,34944,34944,34944,34944,34960,34960,34960,34960,34960,35027,35037,35046,35047,35047,35060,35060,35060,35060,35060,35077,35077,35077,35077,35077,35077,35077,35077,35094,35094,35094,35094,35094,35095,35095,35095,35095,35110,35110,35110,35110,35110,35111,35111,35111,35111,35127,35127,35128,35128,35128,35128,35128,35128,35128,35144,35144,35144,35144,35144,35144,35145,35145,35145,35216,35216,35216,35216,35216,35217,35217,35217,35217,35226,35226,35226,35226,35226,35226,35226,35227,35227,35236,35236,35236,35236,35236,35236,35236,35237,35237,35246,35246,35246,35246,35246,35246,35246,35246,35247,35260,35260,35260,35260,35260,35260,35260,35261,35261,35277,35277,35277,35277,35277,35277,35278,35278,35278,35294,35294,35295,35295,35295,35295,35295,35295,35295,35310,35310,35310,35310,35310,35310,35311,35311,35311,35386,35386,35386,35386,35386,35386,35386,35386,35387,35396,35396,35396,35396,35396,35396,35396,35396,35396,35410,35410,35410,35410,35410,35411,35411,35411,35411,35427,35427,35427,35427,35428,35428,35444,35444,35444,35444,35444,35445,35445,35445,35445,35460,35460,35460,35460,35460,35460,35460,35477,35477,35477,35478,35478,35478,35478,35478,35494,35494,35494,35494,35575,35586,35586,35586,35586,35595,35595,35596,35596,35596,35596,35596,35596,35610,35611,35611,35611,35611,35611,35611,35611,35611,35627,35628,35628,35628,35628,35628,35628,35628,35628,35644,35645,35645,35645,35645,35645,35645,35645,35645,35660,35660,35660,35660,35661,35661,35661,35661,35661,35715,35715,35715,35716,35716,35716,35716,35716,35716,35725,35725,35725,35726,35726,35726,35726,35736,35736,35736,35736,35745,35745,35745,35745,35746,35746,35761,35761,35761,35761,35761,35761,35761,35761,35762,35778,35778,35779,35779,35779,35779,35779,35779,35779,35794,35794,35795,35795,35795,35795,35795,35795,35795,35810,35810,35810,35810,35811,35811,35811,35811,35811,35827,35827,35827,35827,35828,35828,35828,35828,35828,35895,35895,35895,35895,35896,35896,35896,35896,35896,35905,35905,35905,35905,35905,35906,35906,35906,35906,35915,35915,35915,35915,35915,35916,35916,35916,35916,35929,35929,35929,35929,35929,35929,35929,35930,35930,35944,35945,35945,35945,35945,35945,35945,35945,35945,35960,35960,35960,35961,35961,35961,35961,35961,35961,35977,35977,35978,35978,35978,35978,35978,35978,35978,36045,36045,36045,36045,36045,36046,36046,36046,36046,36055,36055,36055,36055,36055,36056,36056,36056,36056,36065,36065,36065,36065,36065,36066,36066,36066,36066,36077,36077,36077,36078,36078,36078,36078,36078,36078,36094,36094,36095,36095,36095,36095,36095,36095,36096,36110,36110,36110,36111,36111,36111,36111,36127,36127,36127,36128,36128,36128,36194,36195,36204,36205,36215,36215,36215,36216,36216,36227,36228,36228,36228,36244,36244,36245,36245,36260,36260,36260,36277,36277,36304,36305,36324,36364,36364" d="m184,224c-3.60266,2.40134 -4.21976,2.81308 -4.87199,3.23599c-0.69699,0.45193 -1.86989,1.18787 -2.30135,1.44934c-0.91696,0.55571 -1.40764,0.83966 -1.92,1.12534c-1.07515,0.59946 -2.23837,1.19263 -2.8495,1.48933c-0.62486,0.30338 -1.26631,0.6015 -1.91849,0.89999c-0.6588,0.30153 -1.99115,0.89859 -2.65601,1.2c-1.31728,0.59718 -1.96188,0.89885 -2.59866,1.20001c-0.63188,0.29884 -1.25858,0.60019 -1.884,0.89999c-1.25249,0.6004 -1.88162,0.90511 -3.16667,1.5c-0.65329,0.30243 -1.31535,0.6001 -1.98149,0.89549c-0.66586,0.29527 -1.3297,0.58675 -2.642,1.14734c-0.63986,0.27333 -1.87659,0.79031 -2.46767,1.03633c-0.57825,0.24068 -1.72502,0.72411 -2.30467,0.98334c-0.59773,0.26732 -1.21785,0.55455 -1.8615,0.8775c-1.41725,0.71111 -2.18486,1.14233 -2.99867,1.59866c-0.85162,0.47752 -1.72623,0.98245 -2.619,1.50301c-0.90457,0.52744 -1.80927,1.06209 -2.709,1.593c-1.74922,1.03218 -2.58362,1.52219 -3.38533,1.99066c-0.76529,0.44719 -1.49231,0.87015 -2.1765,1.27049c-0.63977,0.37434 -1.23273,0.72081 -1.7715,1.0455c-0.91896,0.5538 -1.28822,0.7924 -1.60533,1.00134c-0.27309,0.17995 -1.00766,0.8089 -1.95433,1.00017c-0.823,0.16629 0.13367,0.07077 0.72699,0.03633c0.77538,-0.04501 1.78523,-0.18134 2.59267,-0.34984c0.91228,-0.19037 1.40442,-0.31262 2.41335,-0.68666c1.0921,-0.40486 1.63828,-0.70044 2.83083,-1.32767c0.6673,-0.35097 1.38948,-0.74557 2.1945,-1.155c0.88707,-0.45116 1.86742,-0.95186 4.21866,-1.96001c1.35855,-0.5825 2.84807,-1.15884 4.431,-1.758c1.65166,-0.62517 3.35927,-1.24591 5.097,-1.866c1.74294,-0.62193 3.47305,-1.22873 6.80534,-2.37601c1.56273,-0.53804 3.06657,-1.05092 4.5345,-1.53751c1.4481,-0.48003 2.90103,-0.94803 4.3815,-1.4025c1.52249,-0.46738 3.11052,-0.94656 6.584,-1.89333c1.90822,-0.52011 3.92812,-1.03813 6.03149,-1.5675c2.16193,-0.5441 4.36342,-1.08217 6.58051,-1.6125c2.20724,-0.52798 4.38284,-1.04425 8.55466,-1.98666c1.9482,-0.44009 3.79404,-0.84297 5.532,-1.215c1.62474,-0.34779 3.13419,-0.66241 4.524,-0.94501c1.26489,-0.25719 2.40144,-0.48648 4.27734,-0.84c0.73152,-0.13786 1.33533,-0.24681 1.82399,-0.32401c0.3835,-0.06059 0.67554,-0.10229 0.888,-0.108c0.14397,-0.00386 0.26695,0.00555 0.28801,0.09868c0.01241,0.05487 -0.03792,0.125 -0.0945,0.20399c-0.07196,0.10049 -0.17506,0.21385 -0.30151,0.34801c-0.14966,0.15877 -0.32899,0.33899 -0.77066,0.78133c-0.26447,0.26486 -0.55733,0.55733 -0.87601,0.87601c-0.34267,0.34267 -0.70732,0.70732 -1.092,1.092c-0.40266,0.40266 -0.82133,0.82133 -1.69867,1.69867c-0.455,0.455 -0.92,0.92 -1.39499,1.39499c-0.485,0.485 -0.98001,0.98001 -1.485,1.485c-0.515,0.515 -1.04001,1.04001 -2.12001,2.12001c-0.55466,0.55466 -1.11732,1.11732 -1.68599,1.68599c-0.57268,0.57268 -1.14734,1.14734 -1.722,1.722c-0.57268,0.57268 -1.14117,1.14151 -2.25867,2.25867c-0.54559,0.54543 -1.08385,1.08418 -1.623,1.614c-0.53819,0.52885 -1.0826,1.0556 -1.64101,1.578c-0.56689,0.53033 -1.14661,1.07114 -2.40266,2.14134c-0.65794,0.56059 -1.34546,1.1152 -2.04449,1.668c-0.69699,0.55119 -1.39105,1.08459 -2.0715,1.59599c-0.65263,0.49049 -1.26993,0.95256 -2.384,1.73601c-0.46848,0.32944 -0.88603,0.6097 -1.257,0.84749c-0.3253,0.20851 -0.61653,0.38423 -0.879,0.5325c-0.2357,0.13316 -0.45541,0.24782 -0.864,0.45334c-0.19955,0.10037 -0.39836,0.19928 -0.5955,0.2955c-0.19354,0.09445 -0.38303,0.18506 -0.5685,0.26849c-0.17824,0.08017 -0.34747,0.15958 -0.66933,0.26935c-0.14369,0.04901 -0.27922,0.08423 -0.405,0.10498c-0.11443,0.01889 -0.22049,0.02582 -0.315,0.01501c-0.08577,-0.0098 -0.17325,-0.02304 -0.28,-0.12c-0.0527,-0.04785 -0.08578,-0.11972 -0.10501,-0.19952c-0.02164,-0.08981 -0.02408,-0.19656 -0.015,-0.3165c0.01035,-0.1366 0.03276,-0.29099 0.12001,-0.65065c0.05141,-0.21193 0.19603,-0.71925 0.45833,-1.35417c0.34335,-0.83109 0.5903,-1.31918 1.20833,-2.47917c0.36586,-0.68669 0.78517,-1.42218 1.23001,-2.202c0.46179,-0.80956 0.93741,-1.63091 1.40999,-2.45399c0.46407,-0.80826 0.92,-1.58205 1.69334,-3.01067c0.33224,-0.61375 0.61429,-1.17354 0.86549,-1.68451c0.45113,-0.91765 0.64044,-1.36104 1.10251,-2.21416c0.51219,-0.94568 1.1998,-2.00589 1.58049,-2.57867c0.39389,-0.59264 0.80446,-1.19017 1.2195,-1.78799c0.41064,-0.59149 0.81686,-1.16382 1.90067,-2.71484c0.30797,-0.44073 0.80298,-1.24362 1.494,-2.097c0.61205,-0.75584 1.2032,-0.72879 0.70934,-0.17482c-0.42412,0.47572 -1.06514,1.03401 -1.87199,1.752c-0.99089,0.88177 -1.56041,1.36777 -2.168,1.888c-0.64334,0.55084 -1.32275,1.12549 -2.03551,1.72049c-0.7392,0.61707 -2.29507,1.89328 -3.10583,2.54601c-0.82388,0.6633 -1.66141,1.32858 -2.508,1.9935c-0.84808,0.66609 -1.69749,1.32553 -2.54401,1.97549c-0.83617,0.64201 -2.47034,1.87874 -3.26349,2.46735c-0.77888,0.57802 -1.55635,1.1454 -2.34451,1.7025c-0.79883,0.56462 -1.62494,1.13124 -2.48849,1.7025c-0.90036,0.59561 -2.87314,1.84137 -3.95782,2.50116c-1.13388,0.68973 -2.30946,1.38739 -3.507,2.091c-1.20113,0.70572 -2.39429,1.39796 -3.561,2.073c-1.12396,0.6503 -3.18341,1.83829 -4.089,2.3645c-0.82236,0.47784 -1.56615,0.91272 -2.23799,1.30649c-0.60614,0.35526 -1.15179,0.67636 -1.644,0.96451c-0.4438,0.25983 -1.21127,0.7048 -1.54733,0.89368c-0.30667,0.17236 -0.58769,0.32617 -0.84601,0.46048c-0.23445,0.12189 -0.44951,0.22787 -0.64799,0.3165c-0.18031,0.08051 -0.50256,0.20453 -0.649,0.24402c-0.13383,0.0361 -0.26097,0.0589 -0.375,0.04349c-0.10707,-0.01447 -0.3223,-0.03317 -0.52467,-0.8075c-0.13893,-0.53156 -0.04417,-1.60056 0.13535,-2.40451c0.19809,-0.88712 0.58907,-1.80118 0.81866,-2.271c0.48453,-0.99147 0.78581,-1.48866 1.09467,-1.99998c0.97662,-1.61688 1.34915,-2.16188 1.72,-2.72768c0.38208,-0.58292 0.78438,-1.18118 1.2135,-1.79399c0.44675,-0.63799 0.92229,-1.29774 1.43849,-1.974c1.10968,-1.45372 1.74046,-2.21172 2.408,-3.00801c0.70525,-0.84125 1.46501,-1.71996 2.2785,-2.64299c0.86234,-0.97847 1.78612,-2.00797 2.7735,-3.093c2.1577,-2.37109 3.34395,-3.64987 4.58533,-4.98134c1.27788,-1.37061 2.58432,-2.75682 3.912,-4.134c1.31769,-1.36681 2.61772,-2.69989 3.912,-3.95399c2.39639,-2.32201 3.52686,-3.30545 4.59067,-4.19067c0.98743,-0.82167 1.938,-1.55272 2.8515,-2.20949c0.86433,-0.62143 1.71054,-1.18552 2.5365,-1.71451c1.60208,-1.02606 2.4081,-1.51463 3.20267,-2.00932c0.78377,-0.48796 1.55225,-0.96445 2.30249,-1.42201c0.72313,-0.44104 1.41513,-0.86018 2.0775,-1.24199c1.18767,-0.6846 1.71503,-0.96133 2.19334,-1.19467c0.42215,-0.20593 0.79596,-0.37154 1.125,-0.48c0.272,-0.08966 0.50635,-0.16672 0.67499,-0.12001c0.22479,0.06227 0.24042,0.24287 0.20267,0.40001c-0.04939,0.20561 -0.17551,0.4433 -0.336,0.72c-0.18793,0.32399 -0.42445,0.68193 -0.696,1.08c-0.63069,0.92456 -1.00137,1.43965 -1.39333,1.99466c-0.41501,0.58766 -0.85176,1.20285 -1.3065,1.842c-0.46924,0.65952 -0.95088,1.33476 -1.4415,2.022c-0.99576,1.39484 -1.496,2.09467 -1.996,2.79466c-0.5,0.70001 -1,1.40001 -1.5,2.10001c-0.5,0.7 -1,1.39999 -1.5,2.10001c-1,1.39999 -1.4995,2.10077 -2.00267,2.80133c-0.50549,0.70378 -1.01663,1.41083 -1.539,2.11949c-0.52829,0.71667 -1.06793,1.43999 -1.629,2.16451c-1.15298,1.48888 -1.76942,2.23796 -2.39732,2.99733c-0.63475,0.76765 -1.28143,1.53305 -1.93201,2.29651c-0.6481,0.76054 -1.29486,1.51083 -1.93201,2.2515c-1.23505,1.43568 -1.82489,2.12502 -2.392,2.79199c-0.5442,0.64005 -1.06146,1.25191 -1.55099,1.83151c-0.45979,0.54439 -0.88663,1.05159 -1.28101,1.51649c-0.67612,0.79703 -0.95551,1.12276 -1.19865,1.396c-0.20154,0.22647 -0.36339,0.40651 -0.49951,0.52501c-0.09138,0.07956 -0.17239,0.11066 -0.18449,0.075c-0.06543,-0.1929 0.1012,-0.37573 0.196,-0.59866c0.11607,-0.27295 0.26144,-0.59062 0.42599,-0.95551c0.1848,-0.40977 0.39015,-0.86244 0.606,-1.3605c0.48364,-1.11595 0.73322,-1.73747 0.99733,-2.392c0.27592,-0.68379 0.55836,-1.394 0.85501,-2.1225c0.30331,-0.74486 0.61324,-1.50127 0.94499,-2.25751c0.66649,-1.51932 1.02919,-2.26099 1.39867,-2.99199c0.36627,-0.72467 0.74551,-1.43355 1.1355,-2.1255c0.38477,-0.68272 0.77646,-1.34816 1.18051,-1.99049c0.78474,-1.24754 1.19485,-1.83139 1.59732,-2.40001c0.39331,-0.55568 0.78864,-1.09087 1.18051,-1.6095c0.38284,-0.50668 0.76331,-0.99661 1.1355,-1.4745c0.71797,-0.92186 1.067,-1.36455 1.73267,-2.23984c0.32881,-0.43236 0.97929,-1.30855 1.30533,-1.758c0.33264,-0.45854 1.36859,-1.93198 1.72867,-2.45284c0.36259,-0.52448 0.71719,-1.04919 1.42134,-2.04266c0.32779,-0.46248 0.97977,-1.91724 1.81683,-2.24716c0.42609,-0.16794 0.04056,0.57451 -0.66217,1.63817c-0.23085,0.34941 -0.71484,1.13301 -1.20667,1.985c-0.24881,0.43102 -0.92513,1.69232 -1.28267,2.45866c-0.32443,0.6954 -0.54703,1.39223 -1.30133,2.57066c-0.39827,0.62221 -0.90732,1.18794 -1.416,1.728c-0.8999,0.9554 -1.44058,1.46243 -1.99884,2.02017c-0.73549,0.73483 -1.1702,1.3441 -2.08516,1.9185c-0.70486,0.4425 -1.46667,0.69049 -2.16667,1.33333l-0.60001,0.564" id="svg_12" stroke-width="20" stroke="#fff" fill="none"/>
  <path t="38960,39079,39079,39090,39090,39099,39099,39111,39129,39129,39149,39149,39169,39169,39179,39179,39179,39199,39210,39210,39229,39269,39269,39279,39328,39339,39358,39488,39488,39508,39528,39538,39558,39578,39588,39588,39598,39610,39627,39627,39627,39643,39643,39660,39660,39661,39688,39688,39698,39698,39710,39727,39743,39743,39760,39760,39777,39777,39818,39818,39970" d="m156,270c-1,-1 -1.00491,-1.78043 -0.64284,-2.65268c0.29776,-0.71729 1.02827,-1.53259 1.3575,-2.146c0.48062,-0.89554 0.60521,-1.87393 0.98984,-2.54865c0.45293,-0.79449 1.03081,-1.38245 1.4955,-2.138c0.43394,-0.70557 0.89024,-1.71957 1.2,-2.30402c0.38789,-0.7319 1.11633,-1.52649 1.43333,-2.37733c0.28957,-0.77722 0.60452,-1.5844 1.36534,-2.11867c0.59718,-0.41936 0.43608,-1.51241 0.83733,-2.27866c0.39713,-0.75836 1.22699,-1.22081 1.964,-1.60268c0.75395,-0.39063 1.4998,-0.82518 2.39999,-0.83333c0.89548,-0.0081 1.58194,0.43544 1.60001,1.3045c0.02113,1.01645 -0.09784,1.91454 0.42534,2.63416c0.43973,0.60484 0.55138,1.39523 0.58533,2.31201c0.02759,0.74493 0.33928,1.75366 0.63667,2.55466c0.34834,0.93817 0.31569,1.72028 0.43666,2.51199c0.15344,1.00424 0.57767,1.80899 0.79449,2.66116c0.20441,0.80334 0.12151,1.72153 0.12151,2.6575c0,0.84933 0,1.76852 0,2.76401c0,0.80002 0,1.79984 0,2.57916l0,0.85419l0,0.86215l0,0.96152" id="svg_13" stroke-width="2" stroke="#000" fill="none"/>
  <path t="41307,41445,41465,41477,41495,41495,41514,41535,41535,41544,41564,41584,41584,41604,41624,41664,41933,41953,41973,42013,42023,42043,42043,42083,42123,42173,42173,42233,42253,42303,42323,42363,42363,42383,42562,42582,42582,42602,42632,42652,42672,42672,42683,42712,42732,42732,42772,42782,42972,42982" d="m168,260c0.16667,1.83334 0.85863,2.22449 1.00017,3.10001c0.14607,0.90353 0.75955,1.4393 0.979,2.42084c0.17471,0.78146 -0.16649,1.67297 0.02216,2.5925c0.18222,0.88821 1.33557,1.06366 1.71333,1.68799c0.48743,0.80554 0.39719,1.67621 1.00134,2.28268c0.3316,0.33289 0.284,-0.48401 0.284,-1.384c0,-0.90002 0,-1.80002 0,-2.70001c0,-0.79999 0.03613,-1.7619 -0.52083,-2.5c-0.50224,-0.66559 -0.91693,-1.32404 -1.5045,-2.064c-0.53763,-0.67706 -1.3721,-1.10568 -1.89067,-1.72134c-0.56039,-0.66531 -1.02219,-1.1965 -1.72684,-1.76733c-0.7305,-0.5918 -1.35803,-0.98453 -2.15717,-0.94733c-0.91763,0.04272 -1.20934,0.85593 -1.81067,1.60001c-0.52863,0.65411 -1.26735,1.13193 -1.8685,1.89999c-0.50856,0.64978 -0.84695,1.53665 -1.23683,2.29999c-0.38455,0.7529 -0.30482,1.70001 -0.63666,2.491l-0.60567,0.14651" id="svg_14" stroke-width="2" stroke="#000" fill="none"/>
  <path t="43321,43521,43531,43543,43543,43560,43577,43593,43593,43610,43610,43627,43650,43651,43680,43680,43690,43720,43720,43850,43850,43900,43910,43920,43930,43950,43960,43960,43977,43993,44010,44027,44027,44043,44043,44060,44060,44060,44080,44080,44093,44093,44110,44110,44130,44130,44143,44179,44449,44459,44479,44509,44519,44529,44569,44569,44639,44639,44678,44699,44708,44719,44828,44938,44948,44968,44988,44988,45008,45018,45028,45043,45098" d="m184,249c0,-1.7 0,-2.636 0,-3.48399c0,-0.86334 -0.07027,-1.88307 0.00133,-2.71735c0.08374,-0.9758 0.51683,-1.59123 0.832,-2.63199c0.22372,-0.7388 0.08722,-1.71637 0.52383,-2.47118c0.36612,-0.63293 1.01633,-1.53687 1.44284,-2.2115c0.47142,-0.74568 1.19975,-1.48424 1.7,-1.98399c0.69966,-0.69901 1.26833,-1.35114 2.2,-1.4955c0.8894,-0.13782 1.86261,-0.05116 2.32533,0.60617c0.51216,0.72758 1.07549,1.48853 1.57468,1.98933c0.69662,0.69887 1.04861,1.50754 1.62132,2.27882c0.51636,0.69539 0.70663,1.33919 1.06267,2.23851c0.28786,0.72711 0.63435,1.65173 0.716,2.40349c0.08649,0.79625 0.28923,1.79211 0.57466,2.6685c0.26352,0.80911 0.40733,1.59955 0.42534,2.644c0.01364,0.79189 0,1.81934 0,2.51401c0,1.01666 0.39299,2.04395 -0.00133,2.84999c-0.23628,0.48302 -0.78217,-0.49104 -1.35133,-1.14465c-0.51947,-0.59654 -0.98976,-1.3665 -1.64734,-2.05267c-0.48926,-0.51053 -1.20192,-1.19807 -1.7,-1.7c-0.69202,-0.69734 -0.92079,-1.7888 -1.65717,-2.24284c-0.71802,-0.44272 -1.37996,-0.66888 -2.07884,-1.02116c-0.86142,-0.4342 -1.94077,-0.21945 -2.66383,0.1855c-0.73735,0.41295 -0.8895,1.37851 -0.93616,2.3425l-0.61134,0.48868l-0.35133,0.74866l-0.05849,0.89867" id="svg_15" stroke-width="2" stroke="#000" fill="none"/>
  <path t="46036,46166,46166,46166,46166,46176,46176,46176,46176,46186,46186,46186,46186,46186,46196,46196,46196,46196,46210,46210,46210,46210,46226,46226,46226,46226,46226,46243,46243,46243,46243,46243,46243,46243,46260,46260,46260,46260,46260,46276,46276,46276,46276,46276,46276,46276,46293,46293,46293,46293,46293,46293,46310,46310,46310,46326,46326,46326,46326,46326,46345,46345,46345,46345,46485,46485,46495,46495" d="m119,325c-1.48534,2.96799 -1.82642,3.65588 -2.21067,4.34933c-0.38123,0.68799 -0.99528,1.6037 -1.57866,2.41068c-0.37866,0.52377 -0.77695,1.0712 -1.18951,2.10416c-0.31294,0.78354 -0.52703,1.66174 -0.83099,2.535c-0.15205,0.43683 -0.70821,1.67407 -1.1955,2.38651c-0.47139,0.68918 -1.04124,1.26917 -1.66133,2.21432c-0.57328,0.87381 -0.81472,1.5199 -1.0815,2.15717c-0.42201,1.00803 -0.73325,1.73331 -1.0985,2.50018c-0.39436,0.82803 -0.614,1.26196 -1.32,2.67599c-0.2543,0.50934 -0.78521,1.5679 -1.05867,2.10666c-0.27387,0.53955 -0.81781,1.59973 -1.09067,2.10666c-0.75119,1.39557 -0.99765,1.80273 -1.45866,2.57733c-0.44839,0.75339 -0.91774,1.52328 -1.392,2.37601c-0.52808,0.94949 -0.79107,1.46671 -1.06934,1.99734c-0.57584,1.09805 -0.86554,1.66055 -1.16534,2.22131c-0.88958,1.66388 -1.19318,2.19229 -1.48966,2.70618c-0.562,0.97409 -0.82589,1.42746 -1.33833,2.23251c-0.61479,0.96585 -1.13202,1.63257 -1.576,2.25333c-0.75831,1.06024 -0.96349,1.427 -1.45599,2.20132c-0.52346,0.823 -0.76473,1.25238 -1.57201,2.388c-0.46538,0.65466 -1.14339,1.42242 -1.68,2.09601c-0.62177,0.78046 -1.04,1.42398 -1.45066,1.01334l-0.0315,-0.789" id="svg_16" stroke-width="2" stroke="#000" fill="none"/>
  <path t="46795,46824,46824,46825,46835,46835,46835,46845,46845,46845,46845,46860,46860,46860,46860,46860,46876,46876,46876,46876,46876,46876,46893,46893,46893,46893,46893,46893,46893,46893,46893,46910,46910,46910,46910,46910,46910,46926,46926,46926,46926,46926,46926,46926,46926,46943,46943,46943,46943,46943,46960,46960,46960,46976,46976,46994,47074,47074,47084" d="m106,317c-0.28533,2.68399 -0.50095,3.50711 -0.80133,4.31601c-0.37537,1.0108 -0.71587,1.7066 -1.084,2.45334c-0.43175,0.87576 -0.7748,1.54147 -1.11467,2.27231c-0.35517,0.76373 -0.84893,1.95303 -1.11467,2.75967c-0.26498,0.80435 -0.48192,1.6329 -0.684,2.48401c-0.20885,0.87958 -0.40039,1.80612 -0.62267,2.79333c-0.11841,0.52591 -0.23817,1.07919 -0.54933,2.26401c-0.3487,1.32773 -0.5696,2.04321 -0.79733,2.79199c-0.23486,0.77225 -0.48195,1.55621 -0.732,2.34448c-0.24862,0.78372 -0.49629,1.55249 -0.732,2.2995c-0.43768,1.38705 -0.62653,2.01398 -0.96266,3.14902c-0.15523,0.52417 -0.44987,1.52896 -0.61067,2.02133c-0.50867,1.55743 -0.73517,2.11581 -0.96266,2.703c-0.23511,0.60684 -0.7327,1.84772 -0.98134,2.47198c-0.24603,0.61774 -0.50574,1.21564 -1.10767,2.91135c-0.17924,0.50491 -0.47644,1.4444 -0.72166,2.29666c-0.22364,0.77725 -0.51111,1.84937 -0.72134,2.50183c-0.28615,0.88809 -0.68918,1.83932 -1.08933,2.49417c-0.47659,0.77994 -0.77733,1.672 -1.32667,2.30133l-0.112,-0.60266" id="svg_17" stroke-width="2" stroke="#000" fill="none"/>
 </g>
 <g display="none">
  <title>muse_image</title>
  <image xlink:href="http://farm4.static.flickr.com/3233/2746991403_b7bff8956c.jpg" id="muse" height="480" width="481" y="0" x="79.5"/>
 </g>
 <g display="none">
  <title>bbox</title>
  <rect stroke="#f00" fill="none" stroke-width="3" height="159.03614" width="107.744" y="103.13253" x="138.182" id="bbox"/>
 </g>
</svg>
