<svg width="640" height="480" xmlns="http://www.w3.org/2000/svg" xmlns:svg="http://www.w3.org/2000/svg" xmlns:xlink="http://www.w3.org/1999/xlink">
 <!-- Sketchy ANNOTATION
  ImageNet ID: n01531178_2861
  URL: http://farm4.static.flickr.com/3009/2744072630_e688c5de0e.jpg
  Image Width: 500
  Image Height: 357
  BBox X: 92
  BBox Y: 42
  BBox Width: 257
  BBox Height: 294
  Exposure: 2000ms
  Synset Label: songbird
  Synset ID: n01526521
  Worker Tag: oriole
  Sanity Check: 
   Saved
  Comment: 
   {}
  Worker ID: A3HKR8SW08DOF4
  Assignment ID: 3WMINLGALB3L7QNMWETC95Q0R69CAT
  HIT ID: 32204AGAABCBB5DBE4ULRY3YY5CHGE
  Work Time: 56s
  Worker Score: 0.6667
 END ANNOTATION -->
 <g display="inline">
  <title>Layer 1</title>
  <path t="0,357,616,657,753,777,777,807,817,937,961,961,970,970,985,985,1129,1137,1155,1155,1169,1648,1787,1787,1817,1897,1922,1977,1987,1987,2051,2051,2061,2096,2105,2106,2122,2128,2145,2169,2177,2192,2271,2296,2306,2323,2384,2408,2409,2418,2425,2441,2449,2480" d="m358,166c-2.58932,0 -3.5,-0.0045 -4.39999,0c-0.90002,0.0045 -1.67844,0.4588 -2.10001,1c-0.6669,0.85617 -1.73868,0.55954 -2.33334,1.16667c-0.66354,0.67744 -0.12579,1.72 -0.17734,2.66933c-0.04169,0.76784 -0.23224,1.82506 -0.69382,2.44966c-0.56238,0.76102 -1.2775,1.16046 -1.2955,2.03568c-0.01755,0.85315 0,1.79333 0,2.77867c0,0.89999 0.10101,1.69093 0.5,2.39999c0.49435,0.87854 1.00983,1.49112 1.56134,2.11067c0.51733,0.58115 1.30771,1.06395 2.05331,1.588c0.70099,0.49269 1.32108,1.04341 2.052,1.63466c0.69781,0.56447 1.22983,0.88416 1.83334,1.64584c0.49414,0.62369 1.38171,0.64737 2.05267,1.16817c0.58377,0.45311 1.56653,0.18744 2.44733,0.37349c0.84738,0.17899 1.73233,0.66064 2.41599,1.26317c0.59766,0.52675 1.22238,1.10208 1.884,1.43201c0.84338,0.42056 1.84283,0.34116 2.19553,0.98849l0.06165,0.93834l0.77618,0.52383" id="svg_1" stroke-width="2" stroke="#000" fill="none"/>
  <path t="3416,3603,3613,3657,3707,3737,3745,3761,3793,3793,3801,3833,3857,3857,3867,3907,3917,3945,3961,3977,4027,4049,4089,4097,4097,4113,4157,4227,4227" d="m359,167c0,1.8 0,2.7 0,3.60001c0,0.89999 0,1.79999 0,2.7c0,0.89999 -0.18573,1.74249 0.08533,2.5c0.32245,0.90111 1.26999,1.29761 1.74802,2.2c0.34338,0.64822 0.62708,1.52361 1.11398,2.2955c0.44308,0.70244 0.67047,1.3132 1.07352,2.18367c0.33777,0.72945 1.57727,0.84937 1.89383,1.72083c0.30869,0.84972 0.05826,1.80046 0.08533,2.60001c0.02859,0.84428 0.83334,1.36667 1,2.2l0,0.8" id="svg_2" stroke-width="2" stroke="#000" fill="none"/>
  <path t="5145,5240,5250,5266,5281,5281,5290,5305,5313,5329,5345,5353,5369" d="m354,178c0.5,2.47917 0.8645,3.30855 1.00134,4.2c0.14059,0.91579 0.60938,1.51628 1.02399,2.40001c0.37793,0.80551 1.07449,1.27866 1.88934,1.68533l0.08533,0.91466l0.00015,0.89984l0.22119,0.77882" id="svg_3" stroke-width="2" stroke="#000" fill="none"/>
  <path t="7399,7566,7592,7592,7632,7640,7665,7680,7744,7807,7827,7827,7910,7910,7936,7944,7960,7961,7976,7992,8008,8017,8017,8033,8064,8072,8089,8116,8137,8153,8161,8161,8176,8193,8208,8233,8346,8356,8369,8376,8384,8392,8392,8409,8417,8432,8432,8440,8457,8457,8464,8465,8480,8490,8505,8505,8521,8533,8533,8536,8568,8592,8609,8609,8616,8616,8632,8633,8641,8641,8648,8658,8680,8680,8705,8705,8728,8736,8736,8748,8753,8770,8770,8776,8792,8792,8808,8808,8816,8825,8848,8858,8865,8889,8922,8922,8944,8944,8944,8961,8976,8976,8992,9009,9009,9017,9017,9025,9040,9056,9066,9082,9090,9096,9105,9128,9144,9144,9152,9153,9176,9192,9192,9208,9225,9234,9250,9250,9257,9274,9290,9313,9329,9329,9353,9376,9376,9400,9408,9425,9432,9448,9457,9489,9489,9505,9505,9522,9528,9568,9585,9592,9601,9618,9634,9648,9657,9673,9673,9705,9712,9807,9832,9840,9857,9874,9890,9890,9906,9944,10000,10010,10048,10072,10184,10192,10192,10225,10232,10272,10307,10423,10456,10464,10480,10480,10496,10512,10512,10521,10528,10544,10560,10568,10585,10609,10624,10624,10648,10656,10696,10704,10728,10752,10752,10760,10769,10776,10801,10832,10840,10840,10857,10864,10880,10905,10912,10912,10928,10928,10936,10944,10952,10966,10969,10969,10976,10992,11001,11001,11024,11048,11048,11072,11096,11112,11129,11137,11152,11160,11185,11192,11232,11249,11272,11280,11280,11296,11307,11322,11336,11344,11376,11376,11400,11418,11432,11440,11448,11449,11464,11474,11491,11505,11506,11512,11528,11544,11545,11552,11553,11560,11576,11586,11602,11608,11648,11656,11664,11673,11673,11681,11691,11691,11708,11734,11745,11745,11760,11761,11800,11809,11809,11824,11825,11840,11848,11849,11872,11896,11912,11912,11921,11928,11944,11944,11953,11960,11976,11976,11986,11986,11993,12001,12008,12017,12024,12032,12033,12040,12057,12074,12080,12090,12091,12096,12107,12118,12121,12128,12129,12137,12144,12144,12158,12158,12168,12168,12170,12176,12176,12186,12186,12192,12192,12201,12201,12201,12208,12217,12217,12224,12241,12241,12257,12258,12258,12264,12274,12274,12280,12291,12296,12297,12305,12305,12305,12312,12321,12322,12328,12328,12337,12337,12338,12344,12344,12345,12354,12360,12360,12361,12370,12385,12386,12386,12392,12401,12401,12408,12417,12424,12424,12432,12433,12440,12440,12448,12457,12457,12464,12465,12474,12474,12486,12486,12496,12496,12497,12506,12515,12515,12522,12522,12538,12539,12539,12544,12544,12545,12553,12553,12560,12561,12569,12569,12576,12585,12585,12592,12601,12624,12625,12656,12656,12664,12665,12680,12705,12706,12706,12721,12721,12722,12738,12738,12753,12753,12760,12771,12771,12776,12785,12797,12797,12807,12808,12824" d="m364,164c0,-1.82533 0,-2.83333 0,-3.6955c0,-0.90451 0,-1.8045 0,-2.7045c0,-0.90001 0,-1.8 0,-2.70001c0,-0.89999 0,-1.65717 0,-2.55266c0,-0.86334 -0.0094,-1.81708 -0.61066,-2.40868c-0.6723,-0.6615 -1.15259,-1.25865 -1.33218,-2.18149c-0.1832,-0.94121 0.12421,-1.91066 -0.22382,-2.75717c-0.27591,-0.6711 -0.82068,-1.49985 -0.83334,-2.39999c-0.0126,-0.89543 -0.66617,-1.40875 -0.97916,-2.12083c-0.35397,-0.80537 -0.47382,-1.58636 -0.85419,-2.47917c-0.32019,-0.75154 -0.38266,-1.54802 -1,-2.16667c-0.61765,-0.61894 -0.99146,-1.32002 -1.6875,-1.83333c-0.68832,-0.5076 -1.72253,-0.65527 -2.35782,-1.22133c-0.60101,-0.53549 -1.16589,-1.08972 -1.92133,-1.49467c-0.75598,-0.40524 -1.59232,-0.72821 -2.30002,-1.38383c-0.59363,-0.54996 -1.44531,-0.82776 -2.384,-1.1855c-0.71338,-0.27188 -1.45053,-0.87887 -2.10532,-1.27866c-0.86172,-0.52615 -1.71442,-0.78911 -2.41068,-1.436c-0.60327,-0.5605 -1.41074,-0.96213 -2.32117,-1.00017c-0.81757,-0.03416 -1.45892,-0.66763 -2.19968,-0.979c-0.82083,-0.34502 -1.81735,-0.20666 -2.47916,-0.54167c-0.85767,-0.43416 -1.45193,-1.07794 -2.32132,-1.35783c-0.82419,-0.26534 -1.74265,-0.4986 -2.47736,-0.83733c-0.85699,-0.3951 -1.74158,-0.24204 -2.68533,-0.56799c-0.70828,-0.24461 -1.62857,-0.67206 -2.39999,-0.71467c-0.93991,-0.05192 -1.94934,-0.00134 -2.70532,-0.00134c-0.91068,0 -1.82135,0 -2.73199,0c-0.85333,0 -1.79333,0 -2.67868,0c-0.75717,0 -1.65268,0 -2.51599,0c-0.96317,0 -1.884,-0.00067 -2.784,0c-0.89868,0.00067 -1.48154,0.53443 -2.14667,0.97467c-0.758,0.5017 -1.57697,0.5405 -2.55334,1.02533c-0.59723,0.29655 -1.35281,0.6852 -2.24283,1.2955c-0.76596,0.52524 -1.60718,0.71707 -2.25717,1.22533c-0.76907,0.60136 -1.22223,1.23541 -2.15268,1.77467c-0.67194,0.38943 -1.86084,0.36887 -2.29016,1.06167c-0.49533,0.79932 -0.47366,1.62731 -1.05716,2.14283c-0.63788,0.56357 -0.87997,1.33995 -1.52084,1.97917c-0.64355,0.64192 -1.73331,0.75636 -2.17917,1.2825c-0.69205,0.81664 -0.95517,1.57962 -1.69998,2.18767c-0.66339,0.54158 -1.12451,1.2746 -1.79868,1.88133c-0.67758,0.60982 -0.59219,1.44896 -1.02283,2.26917c-0.33783,0.64343 -1.2276,1.02936 -1.86252,1.61617c-0.69156,0.63914 -0.91599,1.384 -0.91599,2.284c0,0.8 0.01184,1.65149 -0.284,2.48399c-0.31363,0.88261 -0.54489,1.77417 -0.71616,2.61584c-0.1723,0.84676 -0.97125,1.25603 -0.99985,2.20016c-0.02725,0.89958 0,1.80017 0,2.58533c0,0.94 0,1.63068 0,2.70401c0,0.91066 0.00067,1.81065 0,2.71066c-0.00067,0.89867 -0.56885,1.37662 -0.96399,2.136c-0.39917,0.76711 -0.03601,1.76399 -0.03601,2.664c0,0.89999 0,1.7 0,2.59999c0,0.90001 0,1.8 0,2.7c0,0.90001 0,1.8 0,2.70001c0,0.89999 0,1.7 0,2.59999c0,0.90001 0,1.8 0,2.7c0,0.90001 0,1.8 0,2.70001c0,0.89999 0,1.7 0,2.59999c0,0.90001 0,1.8 0,2.7c0,0.90001 0,1.8 0,2.70001c0,0.89999 0.06802,1.66011 -0.00449,2.54816c-0.08392,1.02792 -0.69153,1.52693 -0.99551,2.35184c-0.33109,0.89842 -0.89468,1.4756 -1.35266,2.3c-0.41235,0.74229 -1.004,1.31232 -1.56332,1.98534c-0.55612,0.66916 -0.84827,1.36082 -1.47336,2.11465c-0.5451,0.65733 -1.15744,1.27026 -1.5535,1.95717c-0.47195,0.81854 -0.36404,1.68965 -0.77316,2.44284c-0.43323,0.79752 -1.2088,0.81445 -1.92682,1.25716c-0.73639,0.45404 -0.84753,1.47385 -1.55719,2.14151c-0.57635,0.54225 -1.46924,0.9106 -1.884,1.60266c-0.47644,0.79498 -1.34988,1.09683 -2.11731,1.48267c-0.72281,0.3634 -1.62381,0.68491 -2.31467,0.71468c-1.03705,0.04468 -1.36398,0.84128 -2.00485,1.4805c-0.64355,0.64192 -1.51581,0.84695 -2.27914,1.23683c-0.7529,0.38455 -1.75064,0.21385 -2.68268,0.56934c-0.68417,0.26096 -1.27905,1.08093 -1.73883,1.8145c-0.38596,0.61578 -1.20111,1.05939 -1.8625,1.61617c-0.61678,0.51921 -1.3786,0.95726 -1.89067,1.67332c-0.50861,0.71121 -1.02621,1.40147 -1.82666,1.60934c-0.81645,0.21204 -0.80559,0.93317 -1.284,1.71599c-0.49094,0.80333 -1.38908,1.05499 -2.06401,1.31067c-0.894,0.33867 -1.30002,1.11302 -1.93466,1.69067c-0.64665,0.58859 -1.27765,1.04527 -2.01584,1.50549c-0.71716,0.4471 -0.94923,1.42712 -1.60466,1.83118c-0.77051,0.47499 -1.06064,1.339 -1.58084,2.146c-0.39537,0.61334 -1.55107,0.6794 -2.19383,1.32216c-0.64276,0.64276 -0.70949,1.60716 -1.22533,2.17917c-0.65581,0.7272 -1.60643,1.05176 -2.2955,1.63333c-0.50621,0.42723 -0.90785,1.5865 -1.5,2.125c-0.61792,0.56194 -1.28635,0.92467 -1.50133,1.74034c-0.21024,0.79762 -1.35838,0.71657 -1.97334,1.22667c-0.59926,0.49709 -0.98679,1.29617 -1.73517,1.87016c-0.57919,0.44423 -1.73944,0.50859 -2.48883,0.98984c-0.61401,0.3943 -0.73399,1.49738 -1.248,2.11465c-0.59973,0.72023 -1.65915,0.96118 -2.22,1.60001c-0.52597,0.59908 -0.88672,1.49825 -1.43333,2.32117c-0.42606,0.64143 -1.026,1.3851 -1.7,1.76151c-0.83688,0.46736 -1.53085,1.02527 -1.91466,1.71733c-0.45726,0.82448 -0.2735,1.85149 -0.56934,2.68399c-0.2509,0.70607 -0.35437,1.83025 -1.00134,2.43199c-0.63698,0.59244 -1.52879,0.86011 -1.71016,1.78403c-0.174,0.88632 -0.65765,1.40488 -1.29916,2.05716c-0.63249,0.64313 -0.76167,1.52713 -1.28,2.25751c-0.48572,0.68442 -0.90913,1.49466 -1.37267,2.28082c-0.3918,0.66452 -0.74091,1.35031 -1.13667,2.13651c-0.37538,0.7457 -1.0182,1.3588 -1.416,2.06799c-0.49777,0.88742 -0.88608,1.63837 -1.216,2.29999c-0.42056,0.84338 -0.34088,1.84329 -0.98849,2.25269c-0.77434,0.4895 -1.22321,1.2637 -1.28484,2.12198c-0.06732,0.93768 -0.32523,1.85223 -1.03149,2.32535c-0.79262,0.53094 -1.47871,0.97961 -2.07901,1.60001c-0.56271,0.58154 -0.82776,1.44531 -1.1855,2.384c-0.27188,0.71338 -0.89272,1.44516 -1.27866,2.14133c-0.45079,0.81314 -0.44765,1.82785 -0.87885,2.57434c-0.47707,0.82587 -1.08505,1.21283 -1.92116,1.74966c-0.74556,0.4787 -1.24034,1.22168 -1.552,2.16531c-0.28857,0.87372 -0.73155,1.52045 -1.40517,2.20667c-0.49416,0.50339 -1.17357,1.15945 -1.61749,2.04269c-0.40619,0.8082 -0.47668,1.62613 -1.14534,2.35065c-0.5136,0.55652 -1.59891,0.60223 -2.3205,1.047c-0.82777,0.51019 -1.44846,1.00058 -2.02484,1.75433c-0.60426,0.79019 -1.00298,1.59967 -1.59149,1.98401c-0.79878,0.52164 -1.48172,1.01822 -2.14584,1.66666c-0.67192,0.65604 -1.20734,1.2211 -2.03316,1.81183c-0.7534,0.53891 -1.32646,0.80389 -2.17484,1.42151c-0.8033,0.58481 -1.46828,0.97104 -2.14134,1.39999c-0.88336,0.56299 -1.64653,1.20688 -2.30933,1.60001c-0.68648,0.40717 -1.53812,1.00058 -2.17467,1.60001c-0.59949,0.56454 -1.44112,0.91998 -2.02083,1.52084c-0.60626,0.62839 -1.28738,1.00864 -1.81117,1.96182c-0.41055,0.74713 -0.94113,1.23807 -1.60001,1.60001c-0.80331,0.44125 -1.27167,1.23645 -1.97699,1.61734c-0.97563,0.52686 -1.7831,0.85687 -2.56967,1.39999c-0.67264,0.46448 -1.33354,1.01669 -2.04216,1.39999c-0.96704,0.52307 -1.59409,0.76566 -2.32201,1.20001c-0.92671,0.55298 -1.72641,0.99921 -2.35716,1.40982c-0.71649,0.46643 -1.05051,1.32492 -1.84283,1.86865c-0.67232,0.46136 -1.51402,0.7045 -2.53568,1.12134c-0.689,0.28113 -1.51724,0.62744 -2.517,0.85202c-0.74527,0.16742 -1.54265,0.6001 -1.99384,1.23349c-0.64516,0.9057 -1.03198,1.60117 -1.82132,2.20401c-0.69678,0.53214 -1.68561,0.37854 -2.42001,0.89465c-0.69579,0.48895 -1.28059,1.1514 -1.76933,1.90134c-0.51192,0.78552 -0.99731,1.40665 -1.7,2.11465c-0.49811,0.50189 -1.21936,1.22232 -1.86667,1.86667c-0.48938,0.48715 -1.2074,1.22104 -2.03333,1.81183c-0.58008,0.41492 -1.40323,0.81384 -2.19867,1.22153c-0.76849,0.39389 -1.6026,0.87341 -2.19067,1.39999c-0.74078,0.66333 -1.44756,1.13687 -2.21066,1.48401c-0.85425,0.38858 -1.61179,0.85834 -2.52116,0.91632c-0.81897,0.05222 -1.5095,0.56766 -1.7615,1.43167l-0.528,0.58267" id="svg_4" stroke-width="2" stroke="#000" fill="none"/>
  <path t="14606,14880,14880,14880,14890,14912,14912,14928,15003,15116,15126,15205,15205,15215,15215,15233,15233,15240,15264,15376,15386,15401,15522,15532,15532,15545,15552,15569,15577,15970,15980,15992,16008,16128,16152,16152,16168,16376,16376,16376,16386,16416,16417,16425,16433,16440,16440,16456,16456,16465,16480,16480,16490,16490,16497,16506,16521,16521,16538,16545,16561,16577,16584,16592,16600,16624,16632,16640,16640,16649,16664,16664,16680,16690,16706,16706,16712,16728,16738,16738,16745,16753,16753,16761,16761,16768,16769,16778,16784,16792,16793,16800,16808,16817,16833,16840,16848,16864,16864,16873,16873,16880,16881,16890,16897,16897,16906,16906,16913,16913,16921,16929,16929,16945,16945,16952,16953,16953,16968,16968,16985,16985,16992,16993,17000,17008,17008,17016,17017,17024,17032,17033,17040,17048,17057,17057,17073,17080,17081,17090,17090,17097,17106,17121,17121,17129,17129,17138,17145,17153,17161,17169,17177,17178,17184,17192,17200,17208,17208,17217,17232,17240,17256,17257,17265,17265,17273,17281,17290,17297,17306,17312,17313,17322,17322,17329,17329,17338,17338,17345,17345,17352,17353,17361,17361,17362,17368,17369,17369,17377,17384,17385,17393,17393,17408,17425,17425,17448,17456,17464,17473,17481,17490,17496,17497,17506,17513,17521,17536,17537,17545,17545,17561,17561,17568,17577,17584,17592,17593,17600,17601,17608,17617,17617,17624,17624,17632,17633,17648,17648,17672,17673,17680,17680,17690,17690,17697,17712,17712,17721,17722,17729,17729,17738,17738,17745,17745,17755,17768,17769,17777,17777,17785,17792,17793,17816,17817,17824,17824,17833,17833,17833,17840,17849,17849,17856,17873,17881,17896,17906,17913,17913,17928,17938,17946,17946,17953,17953,17961,17961,17992,17992,18000,18001,18025,18033,18040,18040,18057,18057,18065,18065,18073,18073,18081,18081,18090,18090,18097,18106,18106,18113,18113,18121,18138,18138,18153,18161,18161,18169,18177,18177,18185,18185,18192,18192,18193,18201,18208,18208,18217,18217,18224,18224,18233,18240,18240,18249,18249,18256,18256,18265,18265,18280,18280,18290,18297,18306,18306,18313,18313,18321,18329,18338,18344,18353,18353,18361,18361,18368,18369,18376,18385,18385,18392,18392,18401,18401,18408,18424,18424,18424,18432,18432,18440,18440,18448,18449,18449,18456,18456,18465,18465,18473,18473,18473,18482,18482,18483,18489,18490,18496,18505,18505,18512,18512,18521,18521,18521,18528,18538,18538,18544,18552,18552,18560,18568,18579,18580,18584,18585,18608,18608,18608,18616,18616,18616,18616,18624,18624,18632,18633,18640,18640,18640,18664,18664,18664,18664,18666,18666,18667,18667,18667,18667,18673,18673,18673,18680,18681,18681,18681,18690,18691,18691,18691,18702,18703,18703,18706,18706,18712,18712,18723,18723,18724,18728,18728,18738,18739,18746,18774,18776,18784,18784,18792,18793,18800,18808,18816,18832,18849,18850,18939" d="m348,191c-1.52084,1.47917 -2.35114,1.76154 -3.13867,2.02533c-0.86169,0.28864 -1.46118,1.13191 -2.01065,1.57468c-0.79123,0.63757 -1.28613,1.38199 -2.15067,1.39999c-0.89984,0.01874 -1.81473,-0.0876 -2.58536,0.08533c-0.797,0.17883 -1.50574,0.61781 -2.51199,0.83067c-0.87933,0.186 -1.52979,0.85898 -2.30716,1.0795c-0.86154,0.24438 -1.7955,0.00226 -2.6955,0.0045c-0.89999,0.00226 -1.63126,0.3369 -2.39999,0.716c-0.84525,0.41682 -1.91388,0.14836 -2.58936,0.72c-0.62952,0.53275 -1.15906,1.23332 -1.5535,1.92116c-0.46988,0.81941 0.05078,1.90291 -0.40982,2.59467c-0.46274,0.69501 -0.64508,1.39999 -0.64734,2.291c-0.00241,0.95717 0,1.85735 0,2.6425c0,0.94 0,1.948 0,2.70401c0,0.91066 -0.06244,1.84138 0.22134,2.73199c0.22275,0.69902 0.56631,1.68559 0.83133,2.37416c0.33719,0.87611 0.78424,1.63408 0.97266,2.47917c0.21216,0.95158 0.45468,1.76245 1.02734,2.46817c0.50195,0.61859 0.94733,1.35716 0.94733,2.15717c0,0.89999 0.14532,1.64594 0.716,2.284c0.58292,0.65176 1.04355,1.22968 1.28534,2.11467c0.21793,0.79776 0.8924,1.27533 1.28265,2.00133c0.45947,0.8548 0.72827,1.65025 1.23685,2.3c0.60114,0.76804 1.34012,1.24568 1.8685,1.89999c0.60175,0.74516 0.90036,1.65691 1.258,2.3c0.47443,0.85312 0.93491,1.62053 1.23117,2.40018c0.28214,0.74249 -0.04004,1.7674 0.28815,2.73315c0.237,0.69742 1.13446,1.29979 1.47617,1.92384c0.45428,0.82962 0.37939,1.78641 0.7825,2.60683c0.42746,0.87001 0.87555,1.68683 1.22202,2.336c0.45334,0.84938 0.35266,1.8 0.35266,2.7c0,0.90001 0,1.8 0,2.70001c0,0.89999 0,1.65717 0,2.55716c0,0.74734 0,1.74152 0,2.68567c0,0.89999 0,1.85849 0,2.54251c0,0.95065 0,1.71597 0,2.71014c0,0.91919 0,1.90451 0,2.72601c0,0.88916 0,1.87851 0,2.6785c0,1 0,1.79999 0,2.60001c0,1 0,1.79999 0,2.79868c0,0.76532 0.00436,1.71732 0,2.48532c-0.00534,0.94138 -0.17731,1.94412 -0.5,2.616c-0.39154,0.81519 -0.39224,1.68094 -0.50134,2.61465c-0.11716,1.00266 -0.82843,1.32248 -1.56265,1.91068c-0.60397,0.48386 -0.75467,1.44489 -1.08334,2.32199c-0.3309,0.88303 -0.25983,1.76859 -0.43799,2.53802c-0.22549,0.97385 -0.74417,1.60663 -0.89383,2.59381c-0.13812,0.91098 -0.33188,1.70352 -0.82217,2.40619c-0.52228,0.7485 -0.68152,1.52975 -1.17334,2.46799c-0.35532,0.67786 -1.67194,0.46213 -2.00449,1.16751c-0.37958,0.80508 0.14432,1.82465 -0.05685,2.61783c-0.21872,0.8624 -0.84692,1.44736 -1.32117,2.16132c-0.52585,0.79166 -1.30017,1.16882 -2.03217,1.67468c-0.67398,0.46579 -0.93283,1.35916 -1.61066,2.02533c-0.60626,0.59583 -1.5325,0.74173 -2.29016,1.05267c-0.75479,0.30975 -0.66071,1.51346 -1.3205,1.97266c-0.72632,0.50549 -1.59784,0.82492 -2.48935,0.97501c-0.71042,0.1196 -1.2515,0.90817 -1.78534,1.517c-0.69623,0.79398 -1.31781,1.03015 -2.23065,1.68268c-0.65857,0.47076 -1.34265,1.05728 -2.09467,1.36398c-0.9613,0.39206 -1.80728,0.35095 -2.78934,0.60266c-0.82104,0.21045 -1.42496,0.56091 -2.19983,1.15451c-0.61032,0.46753 -1.25958,1.21759 -2.17484,1.61749c-0.90536,0.3956 -1.65463,0.53448 -2.45868,1.06134c-0.67261,0.44073 -1.46997,0.97141 -2.48798,1c-0.67841,0.01904 -1.8147,-0.33362 -2.55734,0.22134c-0.64426,0.48141 -0.92816,1.44925 -1.64218,1.75781c-0.81705,0.35306 -1.82465,-0.14432 -2.61783,0.05685c-0.8624,0.21872 -1.39801,0.93073 -2.16583,1.31665c-0.88196,0.4433 -1.69638,0.60101 -2.67416,0.64749c-0.77521,0.03683 -1.66245,0.38141 -2.36865,0.64719c-0.88257,0.33215 -1.85269,0.35266 -2.75269,0.35266c-0.89999,0 -1.65717,0 -2.55267,0c-0.86331,0 -1.86334,-0.03604 -2.66882,0.22134c-0.7171,0.22913 -1.67169,0.66336 -2.46783,0.74265c-1.03949,0.10352 -1.836,0.03601 -2.69598,0.03601c-0.91919,0 -1.91907,-0.05453 -2.71469,0.03601c-1.01031,0.11496 -1.75412,0.53711 -2.63333,0.79733c-0.74017,0.21909 -1.6875,0.16666 -2.65067,0.16666c-0.69064,0 -1.76782,0 -2.48532,0c-1.03601,0 -1.7803,-0.02612 -2.88785,0.00015c-0.75812,0.01797 -1.6196,0.30167 -2.31747,0.57452c-0.93097,0.36401 -1.92551,0.42087 -2.71069,0.42532c-0.94003,0.00534 -1.64885,0.04541 -2.59383,0.5c-0.84763,0.40775 -1.49178,0.47968 -2.52617,0.50449c-0.74445,0.01785 -1.84381,0.23654 -2.49466,0.49551c-1.03065,0.41006 -1.75021,0.47812 -2.49466,0.49551c-1.03439,0.02414 -2.00534,0.00449 -2.80534,0.00449c-0.89999,0 -1.8192,-0.16519 -2.7,0.02084c-0.8474,0.17899 -1.59389,0.91827 -2.5,0.97916c-0.7982,0.05362 -1.71146,-0.11438 -2.636,0.03601c-0.87332,0.14206 -1.55249,0.62354 -2.56383,0.8425c-0.76802,0.16629 -1.77884,0.12149 -2.55284,0.12149c-0.9045,0 -1.65182,0 -2.646,0c-0.94417,0 -1.8492,-0.09668 -2.80133,0.00134c-0.81261,0.08365 -1.52763,0.75906 -2.45717,0.9415c-0.73515,0.14429 -1.7415,0.05716 -2.50684,0.05716c-0.95334,0 -1.8056,-0.01968 -2.84134,0.00449c-0.74445,0.01736 -1.67595,0.12936 -2.45299,0.49551c-0.86394,0.4071 -1.70834,0.5 -2.54167,0.5c-0.9785,0 -1.79866,0 -2.636,0c-1.01666,0 -1.71133,0 -2.73866,0c-0.94667,0 -1.8,0 -2.74001,0c-0.88533,0 -1.6425,0 -2.547,0c-0.8,0 -1.75951,0 -2.55299,0c-0.77551,0 -1.97551,0 -2.95201,0c-0.65866,0 -1.66666,0 -2.45866,0c-1.02733,0 -1.73543,-0.15433 -2.73866,0.01068c-0.86914,0.14294 -1.50716,0.76459 -2.472,0.96399c-0.75711,0.15646 -1.75768,0.3959 -2.364,0.60001c-0.99037,0.33337 -1.78088,0.36331 -2.7785,0.42548c-0.82297,0.0513 -1.55945,0.74683 -2.43216,0.96384c-0.88446,0.21991 -1.82504,-0.09482 -2.70401,0.32135c-0.64738,0.30652 -1.18237,1.31207 -2.08533,1.62933c-0.85278,0.29962 -1.52669,0.38257 -2.02167,1.18533c-0.42366,0.6871 -1.26868,1.08923 -1.953,1.5c-0.81157,0.48715 -1.49809,1.10077 -2.34616,1.39999c-0.78326,0.27637 -1.68234,0.56665 -2.45784,1.10001c-0.67351,0.46323 -1.38632,0.93454 -2.16,1.5c-0.74026,0.54105 -1.18762,1.40921 -1.72266,1.81067c-0.64767,0.48596 -1.30559,1.30991 -1.89134,1.87949c-0.65312,0.63507 -1.68919,0.77225 -2.226,1.37384c-0.65596,0.73511 -0.77193,1.67389 -1.6785,2.16901c-0.68144,0.37216 -1.77266,0.39206 -2.32201,0.70865c-0.91702,0.52847 -1.35333,1.33151 -1.83066,1.80566c-0.87151,0.86569 -1.70937,1.11816 -2.18483,1.40533c-1.08392,0.65466 -1.30499,1.39093 -2.10535,2.00452c-0.7847,0.60159 -1.53581,0.86496 -2.10133,1.72815c-0.34174,0.52161 -0.94122,1.53537 -1.45132,2.10568c-0.49927,0.5582 -1.49698,0.91895 -2.18066,1.57565c-0.5179,0.49747 -1.1671,1.07047 -1.83334,1.83334c-0.5244,0.60046 -0.85538,1.47714 -1.63333,1.95184c-0.80127,0.48892 -1.15549,1.09814 -1.7,1.8815c-0.48285,0.69464 -1.15842,1.3418 -1.84666,2.00266c-0.39532,0.37961 -1.31247,1.17398 -1.83734,1.56268c-0.80473,0.59598 -1.35489,0.95804 -2.39417,1.5798c-0.65926,0.39441 -1.50467,1.08997 -2.0085,1.62152c-0.67099,0.70792 -1.47064,0.88922 -2.23199,1.28534c-0.77779,0.40469 -1.48362,0.96716 -2.01467,1.36133c-0.60178,0.44666 -1.74914,1.1795 -2.20267,1.436c-0.9594,0.5426 -1.462,0.80035 -2.45333,1.3075c-0.47372,0.24234 -1.71835,0.88065 -2.688,1.33783c-0.54836,0.25854 -1.65504,0.67505 -2.29067,0.87332c-0.68165,0.21262 -1.75153,0.50122 -2.69866,0.96533c-0.58114,0.28476 -1.28918,0.86676 -2.016,1.34933c-0.97096,0.64468 -1.5401,0.82968 -2.3075,1.1795c-1.0522,0.47964 -1.59058,0.95706 -2.4965,1.50452c-0.73505,0.44418 -1.67906,0.80243 -2.4615,1.09998c-0.53036,0.20169 -1.75825,0.64066 -2.37984,1.10001c-0.72452,0.5354 -1.20578,1.34113 -2.072,1.564c-0.87231,0.22443 -1.80133,0.03601 -2.76666,0.03601c-0.83334,0 -1.66667,0 -2.52884,0c-0.9045,0 -1.83924,-0.05292 -2.6045,0.35266c-0.84589,0.4483 -1.7,0.64734 -2.5,0.64734l-0.89999,0" id="svg_5" stroke-width="2" stroke="#000" fill="none"/>
  <path t="19646,19688,19688,19698,19698,19698,19713,19713,19713,19721,19721,19721,19728,19728,19729,19729,19738,19738,19738,19738,19745,19746,19746,19746,19754,19754,19754,19754,19760,19760,19768,19768,19768,19778,19778,19778,19784,19784,19792,19792,19800,19800,19808,19808,19817,19840,19848,19848,19856,19865,19873,19873,19881,19881,19881,19889,19889,19897,19897,19905,19913,19913,19921,19921,19921,19928,19928,19928,19937,19937,19937,19944,19944,19944" d="m130,345c-0.86133,1.42133 -1.58765,1.92252 -2.116,2.76935c-0.44672,0.716 -0.58051,1.31564 -1.20517,2.30933c-0.45407,0.72232 -1.0617,1.3345 -1.4365,2.3425c-0.28633,0.77008 -0.32029,1.69919 -1.128,2.43616c-0.4666,0.42572 -1.18502,0.58548 -2.149,1.11066c-0.9545,0.52002 -1.46579,1.0322 -1.9445,1.55286c-0.71925,0.78229 -1.43478,1.56635 -1.9735,2.02649c-0.54007,0.4613 -1.39517,1.1051 -2.12566,1.87384c-0.48186,0.50708 -1.06907,1.3219 -1.43501,1.80948c-0.72681,0.96838 -1.28188,1.53671 -2.0295,2.09067c-0.70518,0.52249 -1.23116,0.87173 -2.2905,1.51202c-0.69774,0.42172 -1.35186,0.70844 -2.28266,1.36667c-0.66096,0.46741 -1.4011,0.9527 -2.05867,1.43597c-0.8511,0.62552 -1.14249,1.50375 -1.82533,2.03067c-0.68533,0.52884 -1.45148,0.66437 -2.16666,1.16669c-0.69543,0.48846 -1.7775,0.08777 -2.39734,0.77731c-0.59188,0.65845 -1.00964,1.29501 -1.90216,1.44202c-0.95689,0.15762 -1.74567,0.38281 -2.524,0.59467c-1.0369,0.28223 -1.77088,0.36899 -2.6625,0.70532c-0.70602,0.26633 -1.72243,0.60156 -2.66884,0.64767c-0.69972,0.03409 -1.70005,0.30066 -2.2785,0.7095c-0.62518,0.44186 -1.58754,1.28876 -2.2,1.65417c-0.58867,0.3512 -1.60546,0.82944 -2.22083,1.15683c-0.6691,0.35599 -1.66316,0.96317 -2.47916,1.47916l-0.54733,0.34732" id="svg_6" stroke-width="2" stroke="#000" fill="none"/>
  <path t="21689,22669,22669,22696,22696,22721,22791,22816,22902,22966,22976,22992,23000,23016,23056,23066,23066,23308,23308,23328,23360,23360,23368,23392,23545,23545,23555,23584" d="m339,152c-0.96399,1.28667 -0.99774,1.99916 -1,3.02933c-0.00168,0.76801 0,1.67067 0,2.57068c0,0.89999 -0.33966,1.86403 0.01068,2.78932c0.27615,0.72934 1.38931,0.61067 2.28931,0.61067c0.90002,0 1.80002,0 2.70001,0c0.79999,0 1.71216,-0.20299 1.19733,-0.80133c-0.55157,-0.64105 -1.40433,-1.21683 -1.84015,-1.89867c-0.52667,-0.82399 -0.79318,-1.7 -1.35718,-2.3l-0.564,-0.60001l-0.436,-0.89999l-0.35266,-0.8" id="svg_7" stroke-width="2" stroke="#000" fill="none"/>
  <path t="25151,25571,25728,25728,25832,25832,26200,26200,26208,26232,26319,26344,26360,26376,26376,26400,26409,26440,26456" d="m362,154c0,0.2 0,1.10017 0,1.88533c0,0.94 0.91901,2.515 -0.00015,2.55051c-0.73666,0.02846 -0.67004,-1.4455 -0.97452,-2.2865c-0.28537,-0.78822 -0.96445,-1.36456 -1.02533,-2.24934c-0.0618,-0.89787 0,-1.7 0,-2.59999l0,-0.90001l0,-0.89999l0,-0.89999" id="svg_8" stroke-width="2" stroke="#000" fill="none"/>
  <path t="29199,29232,29232,29240,29248,29248,29248,29256,29256,29256,29256,29264,29264,29273,29274,29281,29281,29281,29290,29290,29290,29297,29297,29297,29297,29306,29306,29306,29313,29313,29322,29322,29322,29329,29330,29338,29338,29338,29338,29346,29346,29353,29354,29362,29362,29362,29369,29369,29369,29378,29385,29393,29393,29409,29409,29417,29425,29425,29425,29425,29441,29449,29449,29449,29457,29457,29457,29465,29465,29465,29465,29473,29473,29473,29481,29481,29490,29490,29497,29497,29497,29507,29513,29522,29522,29530,29530,29538,29538,29546,29546,29553,29553,29553,29562,29562,29569,29569,29569,29578,29578,29578,29585,29585,29585,29601,29601,29601,29609,29609,29609,29617,29617,29617,29625,29633,29633,29641,29641,29649,29657,29665,29673,29673,29681,29681,29690,29690,29690,29697,29697,29697,29706,29707,29707,29707,29707,29713,29713,29713,29722,29722,29722,29722,29723,29729,29730,29731,29731,29731,29731,29738,29738,29738,29738,29747,29747,29747,29747,29747,29755,29755,29755,29755,29763,29764,29764,29769,29770" d="m314,240c-0.01068,2.78934 -0.07053,3.5206 -0.42532,4.38533c-0.39178,0.95482 -0.51273,1.62994 -0.60001,2.436c-0.12778,1.18021 -0.2326,1.78513 -0.49551,2.65784c-0.25421,0.84386 -0.68988,1.82906 -0.95831,2.47916c-0.41827,1.01291 -0.50214,1.70313 -0.52219,2.81233c-0.01392,0.77113 0.01611,1.35052 -0.22049,2.52917c-0.18112,0.90213 -0.3634,1.52991 -1.11151,2.53351c-0.3876,0.51996 -1.17746,1.13333 -1.66132,1.56216c-0.8826,0.78223 -1.36008,1.38937 -1.80267,2.2045c-0.42764,0.7876 -0.83093,1.61975 -1.03601,2.56665c-0.16718,0.77191 -0.03339,1.61182 -0.38834,2.69067c-0.22437,0.68195 -0.95383,1.46973 -1.431,2.1525c-0.35394,0.50644 -0.87674,1.29956 -1.46198,2.3035c-0.37314,0.64008 -0.88535,1.52002 -1.38535,2.18668c-0.5,0.66666 -0.87717,1.35785 -1.38535,2.10132c-0.56265,0.82315 -1.1116,1.3808 -1.63065,1.91336c-0.83246,0.85413 -1.21985,1.64429 -1.65067,2.48532c-0.3403,0.66434 -1.12979,1.30356 -1.63333,1.79999c-0.73651,0.7261 -1.52573,1.3775 -2.20535,1.84818c-0.48929,0.33887 -1.16541,0.94443 -2.18481,1.23752c-0.94489,0.27167 -1.85541,0.10373 -2.49652,0.19965c-1.00858,0.15091 -1.85452,0.43707 -2.47498,0.61917c-1.35852,0.39871 -2.08472,0.5983 -2.8175,0.77466c-0.70932,0.17075 -1.97552,0.42365 -2.74884,0.48483c-0.66168,0.05237 -1.67639,-0.01849 -2.47202,0.07202c-1.0105,0.11496 -1.77682,0.54382 -2.79999,0.79733c-0.77658,0.19241 -1.51468,0.16599 -2.47916,0.16666c-0.93152,0.00064 -1.84216,-0.00061 -2.6955,0c-0.94135,0.00067 -1.72574,0.04367 -2.66135,0.436c-0.5798,0.24313 -1.564,0.76401 -2.36401,1.164c-0.79999,0.39999 -1.62537,0.75885 -2.14282,1.15717c-0.84094,0.64731 -1.22028,1.55313 -2.20016,2c-0.68353,0.31171 -1.57135,0.25613 -2.457,0.40948c-0.89777,0.15543 -1.75945,0.37549 -2.66667,0.83334c-0.71123,0.35895 -1.28159,0.91284 -2.10399,1.48267c-0.75378,0.52228 -1.30592,0.90051 -2.52917,1.27451c-0.58365,0.17844 -1.47487,0.19537 -2.53349,0.40948c-0.71466,0.14456 -1.51262,0.45773 -2.53067,0.80801c-0.84409,0.29044 -1.50087,0.82806 -2.28867,0.96817c-0.85178,0.15149 -1.82651,0.05716 -2.74733,0.05716c-0.90451,0 -1.76668,0 -2.60001,0c-0.97884,0 -1.80992,-0.01147 -2.77066,0.00134c-0.77119,0.01028 -1.63731,0.05267 -2.52951,0.22c-0.91707,0.172 -1.52682,0.40494 -2.8665,0.612c-0.71361,0.11029 -1.45897,0.13702 -2.20799,0.19199c-0.74165,0.05441 -2.14236,0.25397 -2.8,0.39999c-0.65172,0.14471 -1.99091,0.41803 -2.71333,0.492c-0.76831,0.07867 -1.59752,0.12265 -2.48399,0.25201c-0.965,0.14084 -1.99573,0.39462 -2.52884,0.53598c-1.08054,0.28653 -1.60896,0.45731 -2.64583,0.72668c-0.95024,0.24689 -1.79572,0.42355 -2.556,0.496c-1.03821,0.09891 -2.06401,0.07199 -2.78267,0.07199c-0.75067,0 -1.52533,0 -2.31601,0c-1.19849,0 -1.99416,0 -2.77783,0c-1.1355,0 -2.19899,0 -2.85466,0l-0.8835,0l-1.13966,0l-0.834,0" id="svg_9" stroke-width="2" stroke="#000" fill="none"/>
  <path t="30226,30265,30265,30265,30265,30265,30273,30273,30273,30273,30273,30281,30281,30281,30281,30281,30289,30290,30290,30290,30297,30297,30297,30297,30297,30307,30307,30307,30313,30313,30313,30313,30322,30322,30322,30330,30330,30338,30338,30338,30346,30346,30355,30355,30362,30363,30363,30369,30385,30385" d="m264,266c-4.621,2.42133 -5.54556,2.94949 -6.004,3.22534c-0.90247,0.54306 -1.34799,0.79453 -2.496,1.608c-0.65927,0.46716 -1.22125,0.9447 -1.776,1.392c-0.57318,0.46216 -1.5849,1.20065 -2.382,1.72733c-0.4164,0.27512 -1.2718,0.81323 -2.09,1.36334c-0.75748,0.50928 -1.69373,1.22632 -2.23117,1.68399c-0.52585,0.44781 -1.34886,1.17325 -1.98883,1.68268c-0.67712,0.539 -1.37418,1.0661 -2.064,1.54797c-0.91603,0.63989 -1.70169,1.1319 -2.47334,1.46036c-0.81317,0.34613 -1.79948,0.60135 -2.47383,0.82983c-0.66246,0.22446 -1.79497,0.76028 -2.3235,1.3045c-0.62773,0.64636 -1.15298,1.34302 -1.944,1.76398c-0.88939,0.47333 -1.70831,0.69327 -2.49199,1.01068c-0.93663,0.37936 -1.54303,0.91785 -2.42801,1.23334c-0.81973,0.29224 -1.86044,0.26495 -2.612,0.60266c-0.68065,0.30585 -1.27199,1.12799 -1.93117,1.50684l-0.8075,0.05582" id="svg_10" stroke-width="2" stroke="#000" fill="none"/>
 </g>
 <g display="none">
  <title>muse_image</title>
  <image xlink:href="http://farm4.static.flickr.com/3009/2744072630_e688c5de0e.jpg" id="muse" height="456" width="640" y="12" x="0"/>
 </g>
 <g display="none">
  <title>bbox</title>
  <rect stroke="#f00" fill="none" stroke-width="3" height="375.52941" width="328.96" y="65.64706" x="117.76" id="bbox"/>
 </g>
</svg>
