<svg width="640" height="480" xmlns="http://www.w3.org/2000/svg" xmlns:svg="http://www.w3.org/2000/svg" xmlns:xlink="http://www.w3.org/1999/xlink">
 <!-- Sketchy ANNOTATION
  ImageNet ID: n01594787_4905
  URL: http://farm4.static.flickr.com/3112/2542406805_5790d360a7.jpg
  Image Width: 500
  Image Height: 357
  BBox X: 114
  BBox Y: 55
  BBox Width: 281
  BBox Height: 299
  Exposure: 2000ms
  Synset Label: songbird
  Synset ID: n01526521
  Worker Tag: songbird
  Sanity Check: 
   Saved
  Comment: 
   {}
  Worker ID: AQ9ISCTDF9B48
  Assignment ID: 34X6J5FLPTY02K09V27KM9I0LXLJQG
  HIT ID: 3PZDSVZ3J5HN9L62M1NXNT3RUCDN47
  Work Time: 129s
  Worker Score: 0.7857
 END ANNOTATION -->
 <g display="inline">
  <title>Layer 1</title>
  <path t="0,147,147,163,163,163,163,181,181,181,189,189,189,189,189,202,203,203,219,219,236,236,236,253,253,253,269,269,269,269,286,286,286,286,286,303,303,303,319,319,336,336,352,353,353,369,369,369,386,386,403,403,419,419,436,436,453,453,453,469,469,469,486,486,503,503,503,519,519,519,536,536,536,553,553,553,553,569,569,569,585,586,586,586,603,603,619,619,619,636,636,636,636,653,653,653,653,669,669,669,669,669,686,686,686,686,703,703,703,703,719,719,719,719,736,736,736,753,753,753,753,769,769,769,786,786,786,786,803,803,803,819,819,819,819,819,836,836,836,853,853,853,853,853,869,869,869,869,869,886,886,886,886,903,903,903,903,919,919,919,919,936,936,936,953,953,969,969,969,986,986,986,1003,1003,1003,1019,1019,1036,1036,1036,1053,1053,1053,1053,1069,1069,1069,1069,1086,1086,1086,1086,1103,1103,1119,1119,1136,1136,1153,1169,1169,1186,1186,1203,1219,1219,1236,1253,1253,1253,1269,1286,1286,1303,1303,1319,1319,1336,1336,1353,1353,1369,1369,1386,1386,1403,1419,1419,1436,1453,1469,1469,1493,1493,1493,1503,1525,1536,1553,1553,1575,1586,1603,1619,1619,1636,1636,1653,1669,1669,1669,1686,1686,1703,1719,1719,1736,1736,1753,1753,1769,1786,1786,1786,1803,1803,1819,1836,1836,1853,1853,1869,1869,1886,1886,1903,1903,1903,1919,1936,1936,1953,1953,1953,1969,1969,1986,2003,2003,2019,2019,2036,2036,2053,2053,2069,2069,2069,2086,2086,2086,2103,2103,2103,2119,2136,2136,2136,2153,2153,2153,2169,2169,2186,2186,2203,2203,2203,2219,2236,2236,2236,2253,2253,2269,2269,2270,2286,2286,2286,2303,2319,2319,2336,2336,2336,2353,2353,2369,2369,2369,2386,2386,2386,2403,2403,2419,2419,2419,2436,2436,2436,2453,2453,2453,2453,2469,2469,2469,2486,2486,2486,2486,2503,2503,2503,2519,2519,2536,2536,2536,2553,2553,2553,2569,2569,2569,2569,2569,2586,2586,2603,2603,2603,2619,2619,2636,2637,2656,2656,2656,2675,2676,2676,2694,2695,2714,2714,2714,2732,2752,2752,2772,2791,2791,2810,2830,2830,2849,2849,2868,2868,2887,2888,2907,2907,2907,2907,2925,2926,2945,2945,2964,2984,2984,2984,3003,3003,3023,3023,3023,3023,3041,3041,3061,3061,3079,3079,3080,3099,3099,3099,3118,3119,3119,3141,3141,3141,3157,3157,3157,3176,3176,3176,3195,3195,3195,3196,3214,3214,3233,3233,3233,3253,3254,3273,3273,3273,3293,3293,3293,3312,3312,3312,3313,3331,3331,3351,3352,3376,3377,3377,3377,3403,3403,3403,3428,3428,3428,3454,3454,3454,3455,3480,3480,3480,3505,3506,3532,3532,3532,3556,3582,3607,3607,3635,3635,3660,3661,3661,3686,3686,3712,3738,3738,3764,3765,3789,3789,3790,3815,3815,3844,3844,3868,3868,3868,3868,3894,3894,3920,3920,3950,3950,3976,3976,4003,4028,4028,4054,4054,4084" d="m160,422c0.58333,-2.5 1.04326,-2.90802 2.05333,-3.48401c0.62498,-0.35638 1.30573,-0.6925 1.98001,-1.03198c1.19833,-0.60333 1.98491,-0.98959 2.52916,-1.23666c0.93318,-0.42365 1.68916,-0.73218 2.5135,-1.07269c0.84764,-0.35016 1.67461,-0.68454 2.75949,-1.15298c0.59445,-0.25668 1.31044,-0.65579 2.3645,-0.90033c0.78822,-0.18286 1.81035,-0.25864 2.61067,-0.55734c0.65585,-0.24478 1.61548,-0.65198 2.41466,-0.97467c0.82716,-0.33398 1.61934,-0.73969 2.33101,-1.24649c0.75339,-0.53653 1.27718,-0.98135 2.30766,-1.54266c0.77905,-0.42435 1.20946,-0.59531 2.06,-0.96417c0.82159,-0.35629 1.92027,-0.79544 2.75734,-1.20001c0.65533,-0.31674 1.54312,-0.96655 2.20267,-1.43597c0.75322,-0.5361 1.35381,-0.82104 2.28267,-1.20001c0.77896,-0.31781 1.61644,-0.57837 2.66666,-1c0.71101,-0.28546 1.52945,-0.66391 2.28267,-1.20001c0.65955,-0.46942 1.37666,-0.98541 2.05867,-1.39999c0.95387,-0.57986 1.55511,-1.13531 2.31067,-1.60001c0.70554,-0.43393 1.7182,-0.89362 2.32533,-1.21066c0.65018,-0.33954 1.60986,-0.91153 2.40399,-1.40399c0.52357,-0.32468 1.4687,-0.8139 2.26451,-1.18533c0.86235,-0.40247 1.5258,-1.04001 2.12216,-1.51733c0.78009,-0.62439 1.42297,-0.97672 2.084,-1.36667c1.00404,-0.59232 1.55249,-0.93433 2.362,-1.52051c0.79871,-0.57834 1.50104,-1.18954 1.93184,-1.59549c0.62767,-0.59143 1.41176,-1.41092 2.04166,-2c0.65392,-0.61154 1.39368,-1.2092 1.93184,-1.59549c0.81194,-0.58282 1.35796,-0.92819 2.362,-1.52051c0.66103,-0.38995 1.70026,-1.03296 2.28534,-1.54117c0.61627,-0.53531 1.39714,-1.3457 1.80133,-1.74283c0.61519,-0.60443 1.27016,-1.21741 2.02032,-1.80017c0.8105,-0.62964 1.42641,-1.03384 2.065,-1.48517c1.03679,-0.73276 1.39934,-0.99417 2.12801,-1.54001c0.72736,-0.54486 1.4268,-1.07773 2.3425,-1.85315c0.53947,-0.45682 1.24869,-1.12112 1.72549,-1.52017c0.98495,-0.82431 1.55615,-1.20822 2.12801,-1.63733c0.59361,-0.44543 1.49582,-1.17798 2.08482,-1.71667c0.59044,-0.54004 1.14848,-1.09351 2.18301,-2.12582c0.46484,-0.46384 1.11082,-1.11084 1.92149,-1.92151c0.39999,-0.39999 1,-1 1.60001,-1.60001c0.80133,-0.80133 1.42081,-1.42084 1.85716,-1.85715c0.96416,-0.96405 1.49045,-1.49628 2.04283,-2.022c0.54242,-0.51624 1.32172,-1.20358 2.04733,-1.71552c0.66763,-0.47104 1.62756,-1.12909 2.13666,-1.57468c0.55045,-0.48178 1.0928,-1.01382 1.63202,-1.54797c1.00403,-0.99463 1.45865,-1.45734 2.13666,-2.13535c0.71399,-0.71399 1.23636,-1.23041 1.78333,-1.79401c0.57861,-0.59622 1.17703,-1.22995 2.064,-2.27451c0.30408,-0.35809 0.892,-1.10022 1.5,-1.81747c0.59225,-0.69867 1.18582,-1.34348 1.79868,-1.892c0.86111,-0.77072 1.47443,-1.18561 2.23468,-1.936c0.50354,-0.49704 0.92191,-1.0751 1.61932,-1.88068c0.69504,-0.80283 1.22043,-1.28094 2.04733,-1.93182c0.54037,-0.42535 1.34683,-1.00522 2.03833,-1.61633c0.62756,-0.5546 1.39417,-1.15717 1.92001,-1.90451c0.53119,-0.75491 0.51309,-1.56924 0.79633,-2.18668c0.48453,-1.05624 1.01828,-1.5408 1.74451,-2.3035c0.65533,-0.68826 1.33978,-1.34818 1.88348,-1.89249c0.60168,-0.60233 1.33017,-1.29764 1.95068,-2.11734c0.4422,-0.58417 0.77878,-1.2438 1.33331,-2.16666c0.47919,-0.79742 0.85254,-1.35526 1.23785,-1.93784c0.79214,-1.19772 1.1955,-1.7955 1.59549,-2.39551c0.39999,-0.60001 0.99759,-1.50162 1.59549,-2.39099c0.38211,-0.56839 0.90335,-1.35046 1.51917,-2.13968c0.46295,-0.59332 1.07458,-1.45969 1.48535,-2.14398c0.48715,-0.81155 0.97711,-1.40851 1.39999,-2.32535c0.36868,-0.79929 0.8053,-1.38275 1.29999,-2.14816c0.50406,-0.77991 1.3356,-1.27057 1.64734,-2.06168c0.30026,-0.76196 0.51797,-1.64474 1.05267,-2.45682c0.4238,-0.64365 0.83945,-1.32355 1.38934,-2.20801c0.4794,-0.77109 0.45795,-1.67297 0.83215,-2.604c0.28146,-0.70029 0.96771,-1.51172 1.37851,-2.19598c0.4873,-0.81177 1.04016,-1.42355 1.49982,-2.14667c0.41708,-0.65616 0.73843,-1.66754 0.95285,-2.43134c0.25681,-0.91476 0.63657,-1.60492 1.24283,-2.49017c0.52478,-0.76627 0.52081,-1.48346 0.74051,-2.35718c0.2193,-0.87216 0.84378,-1.72131 0.96399,-2.42084c0.16821,-0.97888 0.46002,-1.75552 0.716,-2.49384c0.32938,-0.94995 0.82718,-1.6886 1.16251,-2.58533c0.31808,-0.85065 0.10275,-1.70016 0.12149,-2.60001c0.01801,-0.86453 0.7623,-1.43692 0.94284,-2.36249c0.13382,-0.68613 -0.08481,-1.81586 0.09317,-2.51617c0.22742,-0.89471 1.00653,-1.56497 1.35333,-2.25732c0.37244,-0.74353 0.57431,-1.7583 0.60617,-2.50684c0.04388,-1.03101 0.23279,-1.97568 0.50449,-2.65717c0.38864,-0.97476 0.51715,-1.76529 0.85266,-2.65268c0.26685,-0.70581 0.53336,-1.61148 0.814,-2.51398c0.21307,-0.68521 0.58978,-1.42612 0.78067,-2.42883c0.1738,-0.9129 0.59158,-1.70969 0.93134,-2.50468c0.31894,-0.74626 0.59216,-1.72006 0.83734,-2.50116c0.24658,-0.78552 0.23907,-1.61504 0.50534,-2.59866c0.22134,-0.81772 0.65808,-1.79375 0.74265,-2.58934c0.07675,-0.72209 -0.02075,-1.73485 0.32135,-2.696c0.26654,-0.74892 0.74155,-1.50212 1.104,-2.31467c0.35181,-0.78871 0.57425,-1.79433 0.60617,-2.54283c0.04349,-1.02036 0.38525,-1.80623 0.72049,-2.5425c0.33389,-0.73332 0.32166,-1.7291 0.56799,-2.51334c0.24533,-0.78105 0.63,-1.72037 0.76868,-2.46834c0.16644,-0.8976 0.37131,-1.82289 0.55798,-2.493c0.36591,-1.31343 0.56866,-1.8782 0.88934,-2.59833c0.47003,-1.05553 0.9364,-1.81169 1.21466,-2.55634c0.31448,-0.84161 0.52335,-1.80078 0.78534,-2.52701c0.2308,-0.63983 0.41599,-1.64233 0.5,-2.45833c0.08401,-0.81599 0.28101,-1.81438 0.57468,-2.65334c0.33786,-0.96521 0.48376,-1.82288 0.71066,-2.61467c0.21182,-0.7392 0.51389,-1.46512 1.104,-2.57066c0.44241,-0.82884 0.53815,-1.50557 0.69467,-2.26266c0.21051,-1.01816 0.63464,-1.85014 1.01599,-2.81999c0.20773,-0.52835 0.4812,-1.36064 0.89999,-2.412c0.2829,-0.71016 0.76163,-1.47408 0.94284,-2.414c0.17438,-0.90446 -0.00793,-1.79021 0.22382,-2.75267c0.1976,-0.82068 0.53604,-1.40088 1.03336,-2.39999c0.29892,-0.60054 0.80969,-1.59529 1.19998,-2.41068c0.30771,-0.64287 0.69696,-1.61166 1,-2.40399c0.29703,-0.77666 0.70526,-1.63943 1.10001,-2.28534c0.50677,-0.82922 0.80173,-1.50916 1.10001,-2.28534c0.40237,-1.04709 0.71106,-1.75719 1.10001,-2.66733c0.41193,-0.96388 0.59213,-1.5094 0.93597,-2.358c0.24075,-0.59422 0.84503,-1.79105 1.18936,-2.38933c0.34631,-0.60175 1.02206,-1.79358 1.28931,-2.39867c0.38501,-0.87173 0.55734,-1.45366 0.98535,-2.47984c0.37936,-0.90955 0.69971,-1.52029 1.19998,-2.5215c0.29984,-0.60008 0.80853,-1.59605 1.10001,-2.21066c0.41211,-0.86902 0.80014,-1.87643 1.01068,-2.436c0.34454,-0.91573 0.74765,-1.92375 1.07333,-2.63466c0.33289,-0.72661 0.6745,-1.43018 1.03198,-2.064c0.57315,-1.01616 1.12561,-1.66702 1.58401,-2.59734c0.33987,-0.68976 0.52335,-1.49263 1.10001,-2.48801c0.35483,-0.61249 0.9826,-1.46622 1.43597,-2.17999c0.50998,-0.80287 1.02487,-1.38231 1.53867,-1.98933c0.66949,-0.79099 1.08737,-1.38945 1.52084,-2.2c0.5282,-0.98769 0.80301,-1.60075 1.3045,-2.60001c0.2991,-0.59595 0.58252,-1.43388 1.29999,-2.23833c0.61151,-0.68564 1.45587,-0.91829 1.70001,-1.7825c0.26718,-0.94577 0.65646,-1.45418 1.5,-2c0.74664,-0.48312 1.04788,-1.19986 1.60001,-1.95767c0.55054,-0.75565 1.17221,-1.36165 1.78534,-1.8215c0.74066,-0.55551 1.58377,-0.94469 2.53598,-1.52133c0.53561,-0.32437 1.34961,-0.8593 1.89468,-1.19467c0.99069,-0.60957 1.67059,-0.91837 2.51733,-1.48399c0.7843,-0.52391 1.52338,-0.8508 2.33331,-1.33333c0.72678,-0.43298 1.18286,-1.07904 2.23468,-1.49867c0.59619,-0.23785 1.77521,-0.48109 2.55133,-0.87334c0.55478,-0.28038 1.33392,-0.81003 2.36066,-1.12534c0.82202,-0.25244 1.67682,-0.37238 2.31201,-0.78c0.87927,-0.56425 1.42603,-0.91721 2.14667,-1.18933c1.17822,-0.44492 1.86542,-0.59966 2.54132,-0.76399c1.1824,-0.28748 2.01352,-0.3932 2.73868,-0.52c1.00586,-0.17587 1.96713,-0.42413 2.64716,-0.56333c0.96521,-0.19757 1.79001,-0.31953 2.74902,-0.34817c0.9729,-0.02906 1.78989,0.0144 2.65631,-0.06167c0.89871,-0.07891 1.79755,-0.27866 2.65952,-0.5535c0.55521,-0.17702 1.53433,-0.63546 2.46133,-0.95334c0.92615,-0.31759 1.72192,-0.3983 2.51334,-0.42533c1.11804,-0.03819 1.91199,-0.01067 2.80432,-0.01067c0.729,0 1.56601,0 2.75699,0c0.60001,0 1.5,0 2.70001,0c0.89551,0 1.47916,0 2.31467,0c1.22818,0 1.87466,0 2.8855,0c0.82068,0 1.96649,0 2.75699,0c0.56369,0 1.44421,-0.00865 2.64285,0.00134c0.60007,0.005 1.50748,0.00826 2.69998,0.22c0.60477,0.10738 1.49133,0.39742 2.70001,0.612c0.59653,0.1059 1.51169,0.12872 2.39999,0.336c0.91568,0.21366 1.77954,0.67976 2.328,0.98c0.94012,0.51464 1.77158,0.82207 2.81451,0.85084c0.6973,0.01924 1.47845,-0.09978 2.41583,0.49983c0.65875,0.42139 1.35944,0.94702 2.04166,1.5c0.82907,0.67198 1.5416,0.95335 2.33334,1.33333c0.69247,0.33234 1.3826,0.88026 2.33331,1.33334c0.76834,0.36617 1.57535,0.78709 2.4335,1.21216c0.62408,0.30911 1.40079,0.67482 2.1105,1.3425c0.80759,0.75974 1.18802,1.17735 1.76849,1.75784c0.85416,0.85417 1.39368,1.37614 2.02084,2.02083c0.64517,0.66318 1.17151,1.32985 1.65268,2.00534c0.52731,0.74022 0.88492,1.21072 1.58566,2.18483c0.49039,0.68169 0.61011,1.68715 0.931,2.32584c0.4921,0.97946 1.3902,1.30513 1.72083,2.13666c0.32681,0.82195 0.64896,1.67307 0.94318,2.51401c0.28064,0.80215 0.388,1.81183 0.74133,2.42267l0.42532,0.91066" id="svg_1" stroke-width="2" stroke="#000" fill="none"/>
  <path t="4932,5047,5047,5063,5063,5081,5081,5089,5104,5119,5120,5136,5153,5169,5187,5204,5245,5245,5269,5293,5302,5326,5364,5380,5380,5396,5412,5412,5429,5429,5436,5453,5469,5485,5502,5519,5541,5564,5580,5596,5918,5988,6004,6036,6084,6092,6109,6109,6118,6136,6153,6188,6204,6236,6265,6274,6274,6286,6303,6319,6319,6338,6354,6369,6369,6386,6386,6386,6403,6403,6419,6435,6453,6453,6469,6486,6486,6503,6519,6536" d="m461,155c1.836,-0.964 2.60132,-0.99933 3.60001,-1c0.79999,-0.00053 1.79868,0 2.74283,0c0.89999,0 1.90564,0.15352 2.65717,-0.16667c0.78119,-0.33284 1.49982,-0.82291 2.39999,-0.83333c0.89993,-0.01041 1.80002,0 2.70001,0c0.89999,0 1.69998,0 2.60001,0c0.89999,0 1.8157,-0.1571 2.69998,0.01067c0.94592,0.17946 1.63596,0.72826 2.39999,1.07333c0.76816,0.34695 1.52292,1.01335 2.20001,1.416c0.8353,0.49672 1.50171,0.94189 2.2955,1.44733c0.70056,0.44606 1.16833,1.18169 1.75717,1.70001c0.65054,0.57266 1.34555,0.92497 1.922,1.74199c0.46439,0.6582 1.15582,1.06728 1.74133,1.69467c0.64255,0.68848 1.44431,1.21184 1.28265,2.11467c-0.14539,0.81195 -1.19867,0.80133 -2.09866,0.80133c-0.89999,0 -1.69998,0 -2.60001,0c-0.89999,0 -1.79999,0 -2.69998,0c-0.89999,0 -1.80002,0 -2.70001,0c-0.89999,0 -1.69998,0 -2.60001,0c-0.93597,0 -1.784,0 -2.64731,0c-0.89551,0 -1.85342,-0.03577 -2.75302,0.00017c-0.7157,0.02858 -1.66739,0.28949 -2.4205,0.49983c-0.79483,0.222 -1.79019,0.44785 -2.63248,0.48933c-1.08823,0.0536 -1.94797,-0.03712 -2.84668,0.01067c-0.80338,0.04272 -1.48032,0.54178 -2.20001,1.19867c-0.5845,0.53348 -1.5,0.79683 -2.39999,0.83733l-0.79999,0.38934" id="svg_2" stroke-width="2" stroke="#000" fill="none"/>
  <path t="7316,7386,7386,7401,7420,7444,7453,7469,7486,7503,7503,7518,7519,7535,7552,7553,7573,7573,7597,7597,7613,7613,7629,7630,7637,7637,7653,7653,7669" d="m480,163c-1,-1 -1.79999,-1 -2.70001,-1c-0.89999,0 -1.79999,0 -2.69998,0c-0.89999,0 -1.80002,0 -2.70016,0c-0.78519,0 -1.72519,0 -2.41583,0c-1.10934,0 -1.96933,0 -2.69467,0c-0.98917,0 -1.95477,-0.05116 -2.90533,0.00133c-0.77142,0.0426 -1.52585,0.39362 -2.28851,0.64601c-0.97888,0.32394 -1.81619,0.29236 -2.79532,0.57416c-0.80228,0.2309 -1.63351,0.7785 -2.27933,1.25768l-0.82535,0.46367" id="svg_3" stroke-width="2" stroke="#000" fill="none"/>
  <path t="8401,8452,8452,8452,8452,8452,8467,8467,8467,8487,8502,8502,8525,8742,8742,8742,8758,8781,8781,8796,8868,8868,8892,8892,8909,8932,9018,9053,9053,9077" d="m462,154c-1.0625,1.65266 -1.52756,1.99084 -2.23334,2.51601c-0.96619,0.71892 -1.51596,1.23552 -2.25067,1.96799c-0.51678,0.51521 -1.10199,0.96819 -1.86932,1.88c-0.58231,0.69194 -0.79028,1.46654 -1.49734,2.036c-0.78882,0.6353 -1.60864,1.45258 -1.09216,2.24284c0.431,0.65948 1.6156,0.24043 2.45883,0.44249c0.8981,0.21521 1.65283,0.73749 2.48401,0.91467c0.98105,0.20912 1.40271,0.70648 2,1.47917c0.50104,0.64819 1.39999,0.95683 2.09982,1.62083l0.46417,0.5l0.41516,0.89999" id="svg_4" stroke-width="2" stroke="#000" fill="none"/>
  <path t="12845,13081,13081,13097,13123,13155,13169,13186,13202,13219,13252,13269,13286,13302,13323,13340,13340,13371,13387,13403,13419,13460,13460,13492,13502,13518,13540,13556,13573,13573,13588,13612,13636,13652,13676,13686,13686,13701,13734,13752,13768,13828,14161,14161,14177" d="m472,168c0,1 0,1.8 0,2.7c0,0.90001 0.30988,1.85973 -0.01068,2.68933c-0.3064,0.79291 -0.98706,1.31516 -0.98932,2.21068c-0.00226,0.89999 0,1.79999 0,2.7c0,0.89999 0.04779,1.80127 0,2.7c-0.04272,0.80341 -0.68619,1.42236 -0.94284,2.3c-0.25311,0.86555 -0.05716,1.8 -0.05716,2.7c0,0.8 0.01041,1.70006 0,2.60001c-0.01044,0.90018 -0.54321,1.60329 -0.87851,2.5c-0.31808,0.85063 0.07446,1.73444 -0.17865,2.59999c-0.25665,0.87764 -0.91425,1.59865 -0.94284,2.5c-0.02853,0.89955 0.0372,1.80087 0,2.60001c-0.04272,0.91763 -0.6799,1.48381 -1.284,2.116c-0.55035,0.57596 -1,1.284 -1.54935,2.084l-0.21933,0.7l-0.44733,0.8" id="svg_5" stroke-width="2" stroke="#000" fill="none"/>
  <path t="14653,14719,14719,14735,14768,14785,14785,14801,14802,14818,14836,14852,14868,14885,14886,14901,14901,14918,14919,14935,14956,14956,14972,14988,14988,15004,15004,15018,15036,15052,15052,15076,15076,15092,15092,15108,15108,15118,15135,15151,15169,15169,15188,15188,15204,15205,15219,15236,15236,15252,15252,15269,15269,15286,15286,15302,15302,15319,15319,15336,15352,15352,15369,15386,15386,15402,15402,15419,15419,15436,15436,15436,15452,15452,15452,15469,15469,15486,15486,15486,15502,15502,15519,15519,15519,15536,15536,15536,15552,15552,15569,15569,15569,15586,15586,15586,15602,15602,15602,15602,15619,15619,15619,15636,15636,15636,15652,15652,15652,15652,15669,15669,15669,15686,15686,15686,15686,15702,15702,15702,15702,15720,15720,15720,15736,15736,15736,15752,15752,15769,15769,15769,15786,15786,15802,15802,15802,15819,15819,15819,15836,15836,15836,15852,15852,15852,15852,15869,15869,15886,15886,15902,15902,15919,15919,15936,15936,15936,15952,15952,15969,15969,15986,16002,16002,16019,16019,16036,16052,16069,16069" d="m464,206c0,1.8 -0.1449,2.71707 0.02084,3.5c0.18024,0.85138 0.87616,1.658 0.95831,2.5c0.09503,0.97409 0.02084,1.79866 0.02084,2.60001c0,0.89999 0,1.79999 0,2.7045c0,1.017 0,1.71632 0,2.6955c0,0.78934 0,1.83333 0,2.6955c0,0.82533 0,1.7885 0,2.47917c0,1.07266 0,1.992 0,2.82533c0,0.9785 0,1.79866 0,2.60001c0,0.92082 0,1.88533 0,2.61066c0,0.98933 0,1.78934 0,2.78934c0,0.78934 0,1.83333 0,2.6955c0,0.8045 0.00006,1.7045 0,2.60901c-0.00009,1.01683 0.12366,1.73663 -0.22134,2.67416c-0.30511,0.82913 -0.74628,1.67256 -0.77417,2.36867c-0.04071,1.01585 0.03424,1.9684 -0.08981,2.62334c-0.19888,1.04997 -0.53424,1.76717 -0.74802,2.696c-0.18515,0.80444 -0.11826,1.82275 -0.20267,2.54399c-0.11697,0.99956 -0.5658,1.73567 -0.8425,2.76782c-0.18811,0.70172 -0.12149,1.6575 -0.12149,2.50552c0,0.86331 0,1.89066 0,2.83731c0,0.67868 0.09467,1.67026 -0.05716,2.43134c-0.18643,0.93457 -0.6525,1.64929 -1.14285,2.64868c-0.30319,0.61795 -0.62445,1.27457 -0.99866,2.28265c-0.30029,0.80893 -0.55334,1.62521 -0.71732,2.63068c-0.14188,0.87 -0.28021,1.89499 -0.52002,2.48532c-0.33099,0.81482 -0.81274,1.57898 -1.12799,2.40002c-0.37582,0.97882 -0.41177,1.82434 -0.52002,2.48532c-0.16467,1.00534 -0.41702,1.82175 -0.71732,2.63068c-0.37421,1.00809 -0.69449,1.66519 -1.19867,2.68399c-0.29755,0.60123 -0.69998,1.40002 -1.20132,2.40268c-0.31949,0.63898 -0.68625,1.36688 -1.11984,2.23999c-0.32867,0.66183 -0.68127,1.34735 -0.96899,2.052c-0.50879,1.24609 -0.60135,2.04248 -0.79251,2.90265c-0.22794,1.02563 -0.58481,1.68381 -0.88931,2.17334c-0.75885,1.21994 -1.02853,1.53372 -1.52802,2.2085c-0.48996,0.66187 -1.37033,1.74631 -1.83865,2.34485c-0.56003,0.71576 -0.99274,1.43491 -1.31403,2.043c-0.539,1.02017 -0.87662,1.74594 -1.32599,2.81134c-0.27692,0.65659 -0.47171,1.30408 -0.90533,2.13498c-0.54007,1.03491 -1.12482,1.65863 -1.46332,2.08218c-0.78964,0.9881 -1.12723,1.62155 -1.53668,2.2045c-0.72498,1.03214 -1.3237,1.57388 -1.94934,2.39999c-0.43787,0.57816 -0.8627,1.39841 -1.48798,1.97867c-0.62732,0.58212 -1.53873,1.16666 -1.92603,1.6785c-0.54437,0.71939 -1.06882,1.54721 -1.578,2.14282c-0.51678,0.60449 -1.14938,1.40289 -1.6955,2.22086c-0.44516,0.66672 -1.01276,1.40842 -1.4845,1.92734c-0.73019,0.80325 -1.21454,1.29477 -2.02533,2.08115c-0.57553,0.5582 -1.45972,1.15988 -2.14398,1.57068c-0.81177,0.4873 -1.43402,1.02402 -2.14667,1.50015c-0.66394,0.44357 -1.55124,1.03674 -2.04269,1.72519c-0.47412,0.66418 -0.88931,1.47644 -1.52133,1.97333c-0.87723,0.68967 -1.63544,0.99432 -2.35748,1.49683c-0.76233,0.53052 -1.5267,0.7225 -2.40985,1.05716c-0.7056,0.2674 -1.71133,0.62201 -2.54733,0.93134l-0.79999,0.54935l-0.71466,0.25067" id="svg_6" stroke-width="2" stroke="#000" fill="none"/>
  <path t="18520,18564,18580,18602,18700,18747,18803,18827,18851,18875,18875,18885,18915,18939,18955,18955,18972,18984,18985,19002,19002,19018,19019,19034,19059,19069,19069,19084,19102,19102,19119,19119,19135,19135,19152,19152,19169,19169,19196" d="m158,418c0,2.58932 0,3.5 0,4.39999c0,0.89999 -0.12411,1.80865 0.00017,2.69983c0.1118,0.80176 1.09984,0.90018 1.99983,0.90018c0.8,0 1.7,0 2.60001,0c0.92082,0 1.88399,0 2.57466,0c1.07266,0 1.992,0 2.82533,0c0.83333,0 1.75267,0 2.65266,0c0.69467,0 1.75877,0.10556 2.54733,-0.284c0.87007,-0.42984 1.61055,-0.61447 2.436,-0.75201c0.87314,-0.14548 1.57831,-0.56735 2.56383,-1.064c0.78227,-0.39423 1.60645,-0.94067 2.17484,-1.28934c0.90831,-0.55716 1.62534,-0.58981 2.60384,-0.61081l0.82016,-0.08517l0.80135,-0.48935" id="svg_7" stroke-width="2" stroke="#000" fill="none"/>
  <path t="19757,19819,19835,19852,19869,19869,19869,19884,19901,19902,19918,19934,19951,19952,19968,19968,19985,20002,20002,20052,20108,20148,20148,20156,20549,20587,20603,20619,20644,20644,20667,20685,20702,20719,20739,20739,20752,20768,20769,20784,20785,20802,20802,20818,20819,20835,20835,20852,20852,20869,20869,20885,20885,20885,20902,20902,20919,20919,20919,20919,20935,20935,20935,20952,20952,20952,20969,20969,20969,20985,20985,20985,21002,21002,21019,21019,21034,21052,21052,21052,21069,21069,21069,21085,21085,21085,21102,21102,21118,21135,21135,21135,21135,21152,21152,21169,21169,21169,21185,21185,21185,21185,21202,21202,21219,21219,21219,21219,21235,21235,21235,21252,21252,21252,21269,21269,21269,21269,21285,21285,21285,21285,21285,21302,21302,21302,21319,21319,21319,21335,21335,21352,21352,21352,21369,21369,21369,21369,21385,21385,21385,21402,21419,21419,21435,21435,21452,21469,21469,21485,21502,21519,21535" d="m186,421c0,1.70001 0.07762,2.6684 -0.44667,3.41068c-0.60231,0.85272 -1.24884,1.20108 -1.84349,1.93665c-0.59007,0.72992 -0.92439,1.62277 -1.2845,2.25269c-0.49403,0.8642 -0.76776,1.71381 -1.42534,2.39999c-0.48924,0.51053 -1.20001,1.20001 -1.8,1.79999c-0.60001,0.60001 -1.30112,1.29889 -1.89999,1.90002c-0.59662,0.59888 -1.23912,1.39386 -1.3,2.29999c-0.05363,0.79819 -0.31448,1.38715 -0.83333,2.16666c-0.47089,0.70746 0.04855,1.77246 0.93333,1.83334c0.89787,0.0618 1.7,0 2.59999,0c0.90001,0 1.8,0 2.60451,0c1.01683,0 1.6955,0 2.674,0c1.0215,0 1.77867,0 2.67867,0c0.74733,0 1.74721,0.0545 2.54283,-0.03601c1.01035,-0.11496 1.75499,-0.53534 2.77867,-0.84265c0.75983,-0.22809 1.66566,-0.50891 2.42583,-0.76868c0.78394,-0.26788 1.61052,-0.27939 2.5955,-0.51932c0.81689,-0.19897 1.58897,-0.60428 2.60899,-0.78067c0.65782,-0.11377 1.72812,-0.20099 2.69633,-0.40985c0.69765,-0.15051 1.39771,-0.32108 2.36134,-0.64282c0.83133,-0.27756 1.54053,-0.61823 2.5,-1c0.78021,-0.31046 1.59619,-0.61563 2.66666,-0.83334c0.70786,-0.14398 1.61937,-0.15805 2.58784,-0.16681c0.79352,-0.00717 1.60612,0.073 2.6095,-0.28384c0.75775,-0.2695 1.64362,-0.56433 2.48534,-0.80002c0.89363,-0.25024 1.63562,-0.94275 2.33066,-1.31598c0.60286,-0.32373 1.56816,-0.7186 2.37866,-0.98935c0.81589,-0.27252 1.84988,-0.52518 2.75385,-0.58981c0.61823,-0.04419 1.82771,0.06909 2.53549,-0.10617c0.91112,-0.22559 1.81163,-0.93109 2.49516,-1.21466c0.76805,-0.31863 1.31963,-0.47128 2.533,-1c0.65338,-0.2847 1.46196,-0.69067 2.26784,-1.11069c0.65045,-0.33902 1.61203,-0.90848 2.142,-1.242c0.82413,-0.51862 1.34628,-0.89273 2.36333,-1.46198c0.8951,-0.50101 1.85172,-0.88266 2.63667,-1.18985c0.54807,-0.21448 1.40685,-0.51373 2.362,-1.18082c0.69968,-0.48868 1.07965,-0.92038 1.8855,-1.71469c0.60962,-0.60089 1.24065,-1.21988 1.96651,-1.79999c0.77806,-0.62183 1.36815,-1.01083 1.995,-1.39999c0.99443,-0.61737 1.72192,-0.99829 2.453,-1.39999c0.72493,-0.39832 1.44014,-0.76428 2.34233,-1.39984c0.79344,-0.55893 1.18985,-1.00525 2.043,-1.63351c0.77301,-0.56924 1.40536,-0.85165 2.39999,-1.36798c0.60333,-0.3132 1.61493,-0.94763 2.20001,-1.45584c0.61627,-0.53531 1.39999,-1.34283 1.79999,-1.74283c0.60001,-0.60001 1.20001,-1.20001 1.99869,-1.99869c0.58047,-0.58047 1.116,-1.116 1.84415,-1.84415c0.75717,-0.75717 1.25717,-1.25717 1.95718,-1.95718c0.59998,-0.59998 1.21759,-1.1828 1.89981,-1.89999c0.55774,-0.58633 0.92551,-1.46399 1.51083,-1.92532l0.77869,-0.41068l0.52664,-0.76401" id="svg_8" stroke-width="2" stroke="#000" fill="none"/>
  <path t="22513,22585,22600,22600,22619,22619,22635,22635,22652,22652,22652,22669,22669,22669,22669,22669,22685,22685,22702,22702,22719,22719,22719,22735,22735,22752,22752,22752,22769,22769,22785,22785,22785,22804,22805,22819,22819,22835,22852,22852,22869,22869,22869,22886,22886,22902,22902,22919,22935,22952,22969,22969,22985,22985,22985,23002,23003,23003,23019,23035,23035,23053,23053,23069,23069,23085,23085,23102,23102,23119,23119,23119,23135,23135,23152,23152,23169,23169,23185,23202,23202,23202,23219,23235,23235,23252,23252,23269,23269,23269,23285,23285,23302,23319,23319,23319,23335,23335,23352,23352,23369,23385,23385,23385,23402,23402,23402,23419,23419,23435,23435,23435,23452,23452,23469,23469,23491,23492,23508,23508,23519,23519,23535,23552,23569,23585,23602,23602,23619,23619,23636,23652,23669,23669,23685,23702,23702,23719,23735,23752,23788,23802,23819,23835,23852,23852,23935,23951,23951,23971,24019,24035,24052,24069,24085,24102,24119,24135,24135,24164,24164,24171,24211,24211,24940,24956,24974,25044,25044,25052,25068,25085,25102,25118,25217,25489,25489,25504,25522,25522,25535,25535,25552,25568,25588,25602,25620,25620,25636,25652,25652,25668,25700,25708,25732,25764,25764,25796,25796,25812,25828,25828,25844,25860,25860,25876,25876,25885,25902,25902,25918,25935,25952,25952,25968,25968,25985,26002,26002,26018,26018,26035,26052,26052,26068,26068,26085,26102,26102,26118,26135,26135,26135,26152,26152,26152,26168,26185,26185,26185,26202,26218,26235,26252,26252,26268,26268,26268,26285,26302,26302,26318,26318,26335,26353,26353,26368,26368,26385,26404,26404,26428,26428,26436,26452,26468,26468,26485,26502,26502,26518,26535,26535,26552,26552,26568,26568,26585,26585,26585,26602,26618,26618,26635,26635,26652,26652,26652,26668,26668,26685,26716,26724,26764,26764,26772,26772,26787,26812,26828,26844,26860,26884,26908,26908,26940,26980,26988,26988,27028,27028,27092,27140,27140,27156,27204,27204,27260,27268,27268,27285,27302,27401,27436,27436,27452,27468,27500,27508,27540,27556,27572,27588,27602,27636,27636,27660,27661,27661,27668,27685,27702,27718,27718,27735,27735,27735,27756,27780,27780,27796,27812,27828,27828,27844,27852,27868,27885,27902,27918,27935,27935,27952,27968,27985,27985,28003,28018,28035,28036,28052,28052,28068,28068,28085,28085,28102,28118,28135,28135,28152,28152,28168,28185,28202,28202,28202,28218,28235,28252,28268,28269,28269,28285,28286,28302,28302,28318,28319,28335,28335,28352,28369,28369,28385,28385,28402,28402,28403,28418,28418,28419,28435,28436,28453,28468,28486,28564,28564,28620,28620,28644,28644,28668,28700,28700,29146,29162,29162,29179,29202,29379,29395,29412,29435,29452,29476,29485,29502,29518,29518,29535,29552,29552,29568,29585,29585,29604,29604,29618,29636,29668,29700,29700,29708,29708,29718,29735,29752,29768,29768,29785,29785,29802,29802,29818,29818,29835,29852,29852,29868,29868,29869,29885,29885,29902,29902,29918,29918,29935,29935,29952" d="m286,372c-0.01068,1.82535 -0.18845,2.82288 -0.5,3.5c-0.44635,0.97006 -0.40439,1.67969 -0.50266,2.61734c-0.09052,0.86368 -0.55597,1.66312 -1.05984,2.44516c-0.39334,0.61044 -1.10324,1.60483 -1.61884,2.31885c-0.26187,0.36264 -0.79257,1.06631 -1.25168,1.75165c-0.72772,1.0863 -0.97891,1.84088 -1.28848,2.68851c-0.26099,0.71454 -0.76477,1.68561 -1.1785,2.46783c-0.38727,0.73221 -0.95328,1.42816 -1.39999,2.17999c-0.45691,0.76895 -0.69156,1.55475 -1,2.34799c-0.3894,1.00153 -0.69583,1.66388 -1.20001,2.68268c-0.29755,0.60123 -0.69583,1.4021 -1.10001,2.19983c-0.3959,0.7814 -0.93958,1.60596 -1.37915,2.27933c-0.51654,0.79129 -0.78696,1.74042 -1.2825,2.27802c-0.69452,0.75348 -1.23996,1.24121 -1.75433,1.75882c-0.85071,0.85602 -1.34027,1.33423 -1.87335,2.30936c-0.36621,0.66986 -0.53207,1.69223 -0.96332,2.47464c-0.40991,0.74368 -0.87421,1.44418 -1.534,1.95468c-0.66962,0.51813 -1.12381,1.28009 -1.46066,1.80167c-0.65167,1.00906 -0.9808,1.71869 -1.45135,2.457c-0.55991,0.87851 -1.2023,1.48569 -1.80133,2.08667c-0.70111,0.70337 -1.22128,1.27188 -1.69998,2.05267c-0.41898,0.68338 -0.99158,1.60657 -1.45718,2.09998c-0.70764,0.74994 -1.24283,1.24734 -2.07616,2.08069c-0.54134,0.54132 -1.05066,1.05066 -1.81934,1.81934c-0.52199,0.52197 -1.32584,1.32581 -1.82651,1.82648c-0.72084,0.72086 -1.18442,1.25986 -1.93149,1.92084c-0.72285,0.63956 -1.43355,0.96906 -2.10535,1.39999c-0.87436,0.56088 -1.44745,1.24127 -2.12,1.80002c-0.65263,0.54221 -1.38347,0.90268 -2.364,1.39999c-0.59468,0.30161 -1.38852,0.63657 -2.24283,1.29999c-0.5905,0.45856 -1.24854,1.24146 -2.07867,1.80017c-0.67705,0.45566 -1.29953,0.75977 -2.07716,1.38251c-0.59624,0.47748 -1.44411,1.16415 -2.19067,1.53201c-0.83243,0.41016 -1.57137,1.15808 -2.06783,1.638c-0.547,0.52878 -1.32202,1.21347 -2.14284,1.71133c-0.58609,0.3555 -1.58711,0.86404 -2.2,1.11514c-0.98167,0.40219 -1.84389,0.35849 -2.51466,0.69019c-0.98351,0.48633 -1.30515,1.39447 -2.1425,1.72083c-0.7117,0.27737 -1.7659,0.34286 -2.50684,0.72049c-0.84663,0.43149 -1.56779,1.10233 -2.48416,1.33667c-0.76959,0.19681 -1.34808,0.84512 -2.15317,1.05133c-0.87241,0.22345 -1.6769,0.54562 -2.29884,1.10117c-0.63568,0.56781 -1.56654,0.77838 -2.24716,0.95285c-1.0489,0.26886 -1.75107,0.83841 -2.65266,0.94733c-0.79874,0.0965 -1.4803,0.54181 -2.2,1.19867c-0.58452,0.53348 -1.49904,0.85571 -2.3,1.30133c-0.79906,0.44455 -1.80005,0.33795 -2.44733,0.85266c-0.61913,0.49234 -1.28906,1.10928 -2.05267,1.48068c-0.75391,0.3667 -1.49825,0.72006 -2.32117,1.26666c-0.64143,0.42606 -1.14465,1.27759 -1.90033,1.7785c-0.73909,0.48993 -1.38751,0.62869 -2.13567,1.06433c-0.72896,0.42447 -1.40623,0.51425 -1.92818,1.25583c-0.55011,0.78162 -1.48421,0.81934 -2.36732,1.15399c-0.70563,0.2674 -1.64189,0.46732 -2.44734,0.86868c-0.76717,0.38229 -1.55244,0.82538 -1.95267,1.48315c-0.47978,0.78854 -1.14925,1.49359 -1.64732,1.99551c-0.69202,0.69733 -1.08,1.59677 -1.65266,2.24731c-0.51833,0.58884 -1.2735,0.88101 -1.94284,1.40985c-0.74065,0.58517 -0.36888,1.19699 0.39551,0.76398c0.87726,-0.49695 1.13713,-1.12158 1.89999,-1.78781c0.60046,-0.52438 1.44853,-0.87357 1.94733,-1.62885c0.46109,-0.69818 1.28906,-1.16644 2.05267,-1.53784c0.75391,-0.3667 1.4803,-0.70847 2.2,-1.36533c0.58452,-0.53348 1.49904,-0.85571 2.3,-1.30133c0.79906,-0.44455 1.74969,-0.34357 2.5,-0.66666c0.7124,-0.30676 1.46181,-1.07745 2.17467,-1.39734c0.91534,-0.41074 1.86288,-0.26453 2.62534,-0.52133c0.79813,-0.26883 1.5229,-1.01202 2.2,-1.41467c0.83528,-0.49673 1.44456,-1.04584 2.3,-1.44733c0.8703,-0.40845 1.44589,-0.91486 2.09999,-1.44202c0.74661,-0.60175 1.76804,-0.7739 2.42534,-1.03598c1.0101,-0.40277 1.77032,-0.48151 2.58533,-0.58536c0.92726,-0.11816 1.62439,-0.45465 2.56784,-1.08914c0.63661,-0.42813 1.47194,-0.7674 2.22284,-1.18552c0.74857,-0.41681 1.42754,-1.06253 2.146,-1.35748c0.98932,-0.40616 1.80402,-0.71835 2.45267,-1.07318c0.82283,-0.4501 1.74315,-0.7261 2.46133,-1.13467c0.52423,-0.29825 1.55952,-0.8624 2.49199,-1.08798c0.75185,-0.18188 1.5981,-0.53149 2.41335,-1.06134c0.64154,-0.41696 1.32599,-0.83191 2.42267,-0.98932c0.90196,-0.12946 1.71149,-0.36697 2.41066,-1.01068c0.54231,-0.4993 1.33055,-1.00626 2.00084,-1.29999c0.93288,-0.40878 1.58382,-1.10153 2.33249,-1.53336c0.75655,-0.43634 1.81177,-0.41278 2.36217,-0.87115c0.76088,-0.63367 1.47333,-1.11841 2.3045,-1.2955c0.9812,-0.20905 1.55534,-0.65375 2.41066,-0.97467c0.88339,-0.33145 1.62439,-0.49066 2.56784,-1.12515c0.63661,-0.42813 1.45383,-0.66592 2.3215,-0.90918c0.87619,-0.24567 1.02489,-1.1781 1.89999,-1.82166c0.69902,-0.51407 1.39505,-0.7547 2.3,-1.16934c0.80023,-0.36667 1.36551,-0.83344 2.15717,-1.29999c0.73027,-0.43036 1.74283,-0.90002 2.34283,-1.20001c1,-0.5 1.6149,-0.76566 2.34283,-1.20001c0.92673,-0.55298 1.69083,-1.05447 2.41434,-1.40982c0.77283,-0.37958 1.22803,-0.95602 2.24283,-1.72351c0.57642,-0.43594 1.37772,-0.81244 2.11465,-1.36667c0.61252,-0.46066 1.18237,-1.39743 2.08536,-1.71466c0.85294,-0.29965 1.83267,-0.21091 2.39999,-0.69598c0.7467,-0.63843 1.12421,-1.27737 1.89999,-1.8685c0.73419,-0.55942 1.51495,-0.90842 2.07468,-1.54617c0.51746,-0.5896 1.14313,-1.19742 1.59198,-1.97467c0.35895,-0.62158 1.40115,-0.87604 2.13333,-1.35718c0.79425,-0.52194 1.20001,-1.14282 1.90002,-1.84283c0.59998,-0.59998 1.19998,-1.19998 1.89999,-1.89999c0.60001,-0.60001 1.19998,-1.19998 1.89999,-1.89999c0.60001,-0.60001 1.09763,-1.35532 2,-1.83334c0.64822,-0.34338 1.44852,-0.70688 1.94733,-1.46216c0.46109,-0.69818 1.26816,-0.97235 1.85266,-1.50583c0.7197,-0.65689 1.53912,-1.08939 2.17468,-1.62399c0.64935,-0.5462 1.07999,-1.21866 1.82666,-1.65869c0.70053,-0.41284 1.6524,-0.81775 2.18399,-1.35199c0.67886,-0.68225 1.23212,-1.17172 2.21451,-1.66382c0.58722,-0.29416 1.46722,-0.30112 2.35352,-0.92551c0.68912,-0.48547 0.82828,-1.50485 1.76816,-1.85352c0.66907,-0.2482 1.69974,-0.42249 2.27399,-0.82648c0.77844,-0.54761 1.56555,-1.02219 2.40451,-1.46133c0.75232,-0.3938 1.51447,-0.68027 2.39999,-0.84402c0.83176,-0.15381 1.32269,-0.88089 2.10001,-1.46848c0.73761,-0.55759 1.78113,-0.38351 2.44733,-0.8735c0.68423,-0.50323 1.51886,-0.51202 2.25269,-0.93268c0.68655,-0.39355 1.25735,-1.27582 2.09998,-1.66199c0.76877,-0.35233 1.5174,-0.72699 2.30002,-1.078c0.8205,-0.36798 1.46738,-1.11227 2.03598,-1.57468c0.80536,-0.65494 1.51599,-1.03186 2.48001,-1.31598c0.75409,-0.22226 1.77237,-0.41757 2.31467,-0.88535c0.74426,-0.642 1.52875,-0.91534 2.23599,-1.36533c0.68237,-0.43417 1.1683,-1.28238 1.85068,-1.548c1.04007,-0.40488 1.75983,-0.68091 2.64932,-1.28534c0.62985,-0.42801 1.11584,-0.93188 1.8815,-1.64282c0.56705,-0.52652 1.44293,-0.92154 2.27335,-1.45718c0.67703,-0.43671 1.28625,-0.68738 2.27399,-1.19998c0.75238,-0.39047 1.53851,-0.88138 2.15717,-1.45718c0.75406,-0.70187 1.1713,-1.32629 2.08069,-1.90948c0.60394,-0.3873 1.47098,-0.68582 2.16666,-1.33334c0.64001,-0.5957 1.31223,-1.1167 2.02084,-1.5c0.96704,-0.52307 1.60263,-0.76532 2.37915,-1.25717c0.82687,-0.52374 1.39606,-1.06116 1.94284,-1.59015c0.78152,-0.7561 1.47394,-1.32306 2.25717,-1.67801c0.81042,-0.36728 1.14505,-1.29132 1.73334,-1.97467c0.55463,-0.64426 1.52832,-0.96539 2.14581,-1.5c0.65274,-0.56512 1.22086,-1.20001 1.92084,-1.89999c0.60001,-0.60001 1.15726,-1.24585 1.89999,-1.89551c0.66446,-0.58121 1.50018,-0.72256 2.40002,-0.7045c0.86456,0.01736 1.34396,0.85425 2.10132,0.99866c0.88278,0.16833 1.79868,0.00134 2.69867,0.00134c0.89999,0 1.79999,0 2.70001,0c0.90015,0 1.68533,0 2.62534,0c1.008,0 1.77444,-0.01468 2.58533,-0.42532c0.76639,-0.38812 1.63589,-0.42459 2.56781,-0.79602c0.77475,-0.30881 1.52136,-0.76599 2.42151,-0.77866c0.90442,-0.01273 1.76666,-0.16666 2.60001,-0.5c0.83334,-0.33334 1.70746,-0.53088 2.39999,-0.92532c0.81491,-0.46414 1.75565,-0.38812 2.60001,-0.74133c0.71555,-0.29935 1.49039,-1.02252 2.17465,-1.43335c0.81161,-0.48727 1.41733,-0.99731 2.12534,-1.69998c0.50189,-0.49811 1.20001,-1.20001 1.90134,-1.90134c0.55585,-0.55585 1.28268,-1.28268 1.79868,-1.79868c0.51599,-0.51599 1.24734,-1.24734 1.884,-1.884c0.60001,-0.60001 1.29065,-1.29065 1.94934,-1.94934c0.53067,-0.53067 1.26666,-1.26666 1.76666,-1.76666l0.69998,-0.69998" id="svg_9" stroke-width="2" stroke="#000" fill="none"/>
  <path t="30611,30762,30778,30811,30812,30827,30828,30859,30876,30891,30915,30985,30985,30985,30985" d="m406,340c0.05716,1.70001 0.61188,2.47693 0.87866,3.32132c0.26086,0.82562 0.48834,1.74747 0.83734,2.47736c0.36523,0.76382 0.28177,1.70132 0.284,2.60132c0.00226,0.90451 0.16666,1.76666 0.5,2.60001l0.33334,0.83334l0.16217,0.86215" id="svg_10" stroke-width="2" stroke="#000" fill="none"/>
  <path t="31605,31731,31731,31746,31746,31764,31764,31785,31785,32146,32161" d="m412,338c0.96399,0.32266 0.99933,1.23468 1,2.19467c0.00055,0.77332 0,1.81067 0,2.55466c0,1.10767 0,1.82935 0,2.75067l0.01068,0.89999" id="svg_11" stroke-width="2" stroke="#000" fill="none"/>
  <path t="32660,32922,32938,32963,33011,33019,33019,33035,33052,33068,33068,33085,33101,33118,33135,33135,33203,33211,33251,33251,33315,33355,33379,33379,33396,33412,33412,33443,33499,33499,33531,33601,33601,33617,33637,33651,33735,33751,33780,33796,33804,33818,33835,33851,33868,33868,33916,33916,34031" d="m414,348c1.70001,-0.05716 2.42255,-0.68555 3.29999,-0.94284c0.86548,-0.25378 1.75693,-0.34686 2.40002,-0.7045c0.85312,-0.4744 1.69229,-0.79688 2.39999,-1.45248c0.59363,-0.54996 1.45258,-0.60794 2.28934,-0.91086c0.75119,-0.27194 1.31906,-0.95947 2.12799,-0.98798c0.96124,-0.03384 1.94885,0.13397 2.68268,-0.28668c0.68655,-0.39355 1.26273,-1.26425 2.09998,-1.66199c0.86908,-0.41284 1.57648,-0.80026 2.34818,-1c1.00861,-0.26105 1.36365,-0.90381 1.87268,-1.55267c0.60202,-0.7674 1.27911,-1.30002 1.87915,-1.89999c0.69998,-0.69989 1.25293,-1.4075 2.20001,-1.58932c0.88391,-0.16971 1.79999,-0.01068 2.69998,-0.01068c0.90002,0 1.80441,-0.08868 2.70001,0c0.8457,0.08374 1.31042,0.76437 1.94733,1.35266c0.58722,0.54242 1.25269,1.21667 1.65268,1.83267l0.49982,0.79315l0.543,0.71701l0.33633,0.8045" id="svg_12" stroke-width="2" stroke="#000" fill="none"/>
  <path t="35017,35210,35226,35243,35243,35251,35268,35315,35681,35697,35697,35940,35940,35955,35972,35985,36001,36018,36018,36044,36068,36085,36101,36118,36118,36135,36135,36151,36151" d="m405,354c-0.87851,1.2215 -0.95221,2.10129 -1,3c-0.04272,0.80338 -0.74695,1.5372 -0.96399,2.39999c-0.21973,0.8735 -0.03601,1.80133 -0.03601,2.76666c0,0.65869 -0.01785,1.66687 0,2.52884c0.01801,0.86905 0.84048,1.41852 1.47916,0.78366c0.64468,-0.64081 0.83191,-1.52371 1.23685,-2.27914c0.40524,-0.75598 0.90195,-1.51038 1.19867,-2.40002c0.28604,-0.8576 0.43469,-1.78055 0.936,-2.21066c0.84421,-0.7243 1.08798,-1.41467 1.31598,-2.42267l0.35419,-0.66666" id="svg_13" stroke-width="2" stroke="#000" fill="none"/>
  <path t="36863,37368,37384,37401,37427,37427,37435,37435,37451,37468,37485,37485,37501,37501,37518,37518,37518,37535,37535,37551,37568,37568,37585,37585,37601,37601,37618,37635,37635,37651,37683,37683,37731,37731,37833,37995,38075,38075,38091,38107,38139,38163,38179,38187,38212,38228,38275,38300,38300,38318,38339,38363,38363,38379,38387,38598,38643,38659,38668,38685,38707,38723,38755,38755,38787,38787,38803,38803,38827,38844,38844,38950,39003,39003,39059,39107" d="m411,353c0.87866,-1.22134 1.36118,-1.90054 2.20132,-2.00134c0.97241,-0.11667 1.60068,-0.48724 2.63202,-0.832c0.70673,-0.23624 1.23178,-0.95435 2.02798,-1.13065c0.94968,-0.21027 1.78348,-0.01273 2.62399,-0.32135c0.74625,-0.27402 1.70212,-0.84219 2.51468,-1.19382c0.59155,-0.25598 1.61728,-0.36353 2.51468,-0.60486c0.89349,-0.2403 1.65414,-0.73883 2.48532,-0.91599c0.9812,-0.20914 1.54361,-0.66183 2.3045,-1.2955c0.55042,-0.45837 1.55887,-0.53638 2.52884,-0.87115c0.68701,-0.23712 1.49042,-0.71552 2.33331,-1c0.85794,-0.28955 1.63821,-0.87433 2.3125,-1.3125c0.7905,-0.5137 1.76932,-0.36731 2.52084,-0.6875c0.78122,-0.33282 1.49982,-0.82291 2.39999,-0.83334c0.89993,-0.01041 1.88113,-0.13733 2.54733,0.35266c0.68423,0.50323 1.56964,0.53586 2.05267,1.16818c0.52029,0.68112 1.08932,1.40628 1.564,2.07916c0.51837,0.7348 0.84488,1.52728 1.26935,2.39999c0.32086,0.65967 0.85217,1.42258 1.1095,2.29999c0.25345,0.8642 0.67694,1.86777 1.03632,1.17917c0.40689,-0.7796 0.02084,-1.77914 0.02084,-2.67917c0,-0.89999 0,-1.79999 0,-2.55716c0,-0.89999 0.02869,-1.6478 -0.00134,-2.64151c-0.02856,-0.94537 -0.33334,-1.86383 -0.99866,-2.60132c-0.4639,-0.51419 -0.94733,-1.29999 -1.28534,-2.19867l-0.51599,-0.51599l-0.89868,-0.28085l-0.89999,-0.00449" id="svg_14" stroke-width="2" stroke="#000" fill="none"/>
  <path t="39948,40004,40004,40012,40012,40020,40035,40035,40051,40051,40068,40068,40068,40085,40085,40101,40101,40118,40118,40135,40151,40172,40172,40196,40196,40204,40228,40244,40260,40260,40276,40276,40292,40292,40308,40340,40652,40691,40799,40799,40815,40843,40907,40955,41035,41196,41243,41259,41268,41285,41415,41483,41483,41484,41502,41518,41534,41551,41551,41551,41568,41568,41584,41601,41601,41618,41699,41723,41723,41755,41834,41834,41850,41868,41884,41907,41923,41947,41995,42067,42067,42099,42099,42123,42139,42155,42437,42499,42499,42523,42601" d="m416,351c1,-1 1.75717,-1 2.65268,-1c0.86331,0 1.9129,-0.06003 2.54865,0.56799c0.51639,0.51013 1.29388,1.23358 2.00934,1.48267c1.005,0.34988 1.55884,0.84448 2.18933,1.24402c0.9574,0.60669 1.80365,0.60666 2.716,0.98932c0.67599,0.28354 1.53534,0.68613 2.39999,0.71466c0.96265,0.03177 1.78851,0.00134 2.80533,0.00134c0.67868,0 1.65717,0 2.47736,0c0.90134,0 1.80133,-0.00064 2.72217,0c0.96448,0.00067 1.70755,-0.04156 2.67899,0.22134c0.79892,0.21622 1.62238,0.69058 2.49567,0.77417c0.90039,0.08621 1.81766,-0.13849 2.7045,0.01517c0.83218,0.14417 1.51498,0.97672 1.59866,1.78931c0.09222,0.89529 0.00134,1.80002 0.00134,2.70001c0,0.89999 0.00009,1.79999 0,2.70001c-0.00009,0.89981 -0.21524,1.73911 -1.10001,1.79999c-0.89786,0.0618 -1.60629,-0.22952 -2.06665,-1c-0.4299,-0.71948 -1.39642,-0.68024 -2.22269,-1.01068c-0.78925,-0.31564 -1.31464,-1.00586 -2.15332,-1.43198c-0.72852,-0.37015 -1.41986,-0.91772 -2.31433,-1.31451c-0.70044,-0.3107 -1.53531,-0.68704 -2.24301,-1.34265c-0.59363,-0.54996 -1.43204,-0.83499 -2.19998,-1.25284c-0.84106,-0.45761 -1.58536,-0.64667 -2.52536,-0.64734c-1.008,-0.00073 -1.76398,0 -2.67465,0c-0.89999,0 -1.85016,0.07306 -2.47467,-0.42532c-0.60797,-0.4852 -1.42944,-0.49295 -2.32983,-0.57916c-0.87329,-0.08359 -1.66705,-0.57803 -2.52884,-0.82886c-0.84232,-0.24515 -1.76669,-0.16125 -2.66666,-0.16666c-0.8894,-0.00534 -1.52084,-0.5 -2.20984,-0.94284l-0.8075,-0.05582l-0.96182,-0.00134l-0.92084,0" id="svg_15" stroke-width="2" stroke="#000" fill="none"/>
  <path t="43366,43450,43450,43483,43501,43501,43519,43519" d="m445,365c1.60001,0.57468 2.70316,0.85812 2.97916,1.54166c0.35339,0.87524 0.02084,1.66901 0.021,2.65817l0.02069,0.77933" id="svg_16" stroke-width="2" stroke="#000" fill="none"/>
  <path t="49494,49801,49801,49816,49835,49851,49851,49867,49891,49907,49917,49934,49951,49951,49967,49967,49984,49984,50001,50017,50017,50043,50067,50084,50115,50654,50707,50723,50771,50850,50883,50883,50915,50979,51027,51051,51099,51155,51171,51211,51211,51227,51235,51251,51267,51284,51284,51301,51301,51301,51317,51317,51317,51334,51334,51351,51351,51367,51367,51384,51384,51401,51417,51417,51434,51434,51434,51451,51451,51451,51467,51467,51484,51484,51484,51501,51517,51517,51534,51534,51534,51551,51551,51551,51567,51568,51568,51584,51584,51584,51584,51601,51601,51601,51617,51617,51617,51617,51634,51634,51634,51651,51651,51651,51667,51667,51667,51667,51667,51684,51684,51684,51684,51684,51701,51701,51701,51701,51717,51717,51717,51717,51734,51734,51734,51734,51751,51751,51751,51767,51767,51767,51784,51784,51784,51784,51801,51801,51801,51801,51817,51817,51817,51834,51834,51834,51851,51851,51851,51867,51867,51867,51867,51884,51884,51901,51901,51917,51917,51934,51934,51934,51951,51951,51951,51967,51967,51967,51984,51984,51984,52001,52001,52001,52001,52017,52017,52017,52017,52034,52034,52034,52051,52051,52051,52051,52067,52067,52067,52084,52101,52101,52117,52117,52117,52134,52134,52134,52151,52151,52151,52167,52167,52184,52184,52201,52201,52217,52217,52234,52234,52234,52251,52267,52268,52268,52284,52284,52285,52301,52301,52317,52334,52334,52351,52351,52351,52367,52367,52387,52387,52403,52417,52418,52434,52434,52451,52451,52467,52468,52468,52484,52485,52485,52501,52501,52517,52518,52534,52535,52551,52567,52568,52568,52584,52585,52601,52601,52618,52618,52635,52635,52652,52652,52668,52668,52668,52668,52685,52685,52685,52701,52702,52702,52718,52718,52735,52735,52735,52751,52752,52752,52768,52768,52768,52785,52785,52785,52785,52802,52802,52802,52818,52818,52834,52834,52851,52851,52868,52868,52868,52885,52885,52885,52907,52923,52923,52947,52971,53003,53003,53401,53417,53435,53482,53499,53567,53583,53979" d="m461,203c-1,0.83333 -1.59448,0.41347 -2.5,0c-0.79529,-0.36314 -1.49045,-0.88925 -2.29999,-0.99867c-0.8938,-0.12082 -1.62238,-0.68753 -2.5,-0.94417c-0.8656,-0.25313 -1.84891,0.11282 -2.70001,-0.22383c-0.70264,-0.27792 -1.48267,-0.78136 -2.21066,-0.82266c-0.98764,-0.05603 -1.95334,-0.01067 -2.90399,-0.01067c-0.88535,0 -1.68533,0 -2.58536,0c-0.89999,0 -1.79999,0 -2.69998,0c-0.89999,0 -2.07965,-0.32538 -2.54285,0.35716c-0.47437,0.69901 -0.05716,1.74284 -0.05716,2.64284c0,0.8 0,1.7 0,2.60001c0,0.89999 0,1.79999 0,2.7c0,0.89999 0,1.8 0,2.7c0,0.8 0,1.7 0,2.60001c0,0.89999 0,1.81065 0,2.7215c0,0.88916 0,1.87866 0,2.69933c0,0.66451 0,1.66318 0,2.47917c0,0.81599 0,1.81467 0,2.68933c0,1.01067 0,1.81067 0,2.81067c0,0.78934 0,1.83333 0,2.58934c0,0.93149 0.00006,1.896 0,2.62132c-0.00009,0.9895 0.0126,1.81427 -0.08533,2.47467c-0.14938,1.00749 -0.41571,1.82175 -0.716,2.63066c-0.37424,1.00809 -0.69724,1.66388 -1.19867,2.68401c-0.38824,0.78987 -0.73129,1.50981 -0.97467,2.37466c-0.26505,0.94189 -0.54199,1.64822 -1.02533,2.62534c-0.29742,0.60129 -0.70404,1.39799 -1.10001,2.20016c-0.40411,0.81865 -0.72141,1.47687 -1.10001,2.4865c-0.31815,0.84842 -0.50888,1.4724 -0.79999,2.48001c-0.20633,0.71419 -0.49155,1.81493 -0.70001,2.5235c-0.28833,0.98001 -0.57599,1.81374 -0.93597,2.52449c-0.49246,0.97232 -0.83691,1.47763 -1.38486,2.28534c-0.37524,0.55313 -1.17538,1.5816 -1.57465,2.04285c-0.56345,0.65091 -1.27673,1.43311 -1.77917,2.28915c-0.27231,0.46396 -0.79269,1.66769 -1.11066,2.42133c-0.35147,0.83301 -0.52353,1.27286 -0.91919,2.14584c-0.57809,1.27551 -0.78714,1.66235 -1.19098,2.38651c-0.55728,0.99933 -0.94855,1.59717 -1.38318,2.5145c-0.42514,0.89725 -0.64005,1.53851 -0.90533,2.18515c-0.42688,1.04044 -0.7652,1.77127 -1.13684,2.51468c-0.37564,0.7514 -0.97626,1.83505 -1.3765,2.51334c-0.37857,0.6416 -0.95538,1.49622 -1.26932,2.32001c-0.34891,0.91559 -0.34265,1.62708 -0.55484,2.58817c-0.18158,0.82245 -0.48032,1.68387 -0.7785,2.57849c-0.30179,0.90543 -0.50305,1.52777 -0.88535,2.48532c-0.41672,1.04376 -0.76337,1.76474 -1.11465,2.49384c-0.34348,0.71286 -0.83334,1.6875 -1.24283,2.5065c-0.3465,0.69302 -0.76688,1.50961 -1.15717,2.32501c-0.30771,0.64285 -0.70734,1.60818 -1,2.42532c-0.20517,0.57285 -0.58447,1.76947 -0.90451,2.655c-0.20639,0.57104 -0.50278,1.40295 -1.17816,2.13968c-0.59351,0.6474 -1.22287,1.31024 -1.56799,2.14398c-0.34213,0.82654 -1.04504,1.24335 -1.78268,1.992c-0.61005,0.61914 -0.90674,1.30258 -1.48798,2.25452c-0.3244,0.53131 -0.8295,1.3349 -1.51202,2.24548c-0.4003,0.53406 -1.05032,1.21634 -1.65332,1.82001c-0.55469,0.5553 -1.20001,1.20001 -1.93466,1.93466c-0.53134,0.53134 -1.07867,1.07867 -1.62601,1.62601c-0.78601,0.78601 -1.49551,1.49551 -2.142,2.142c-0.40933,0.40933 -1.2016,1.22159 -1.83151,1.81067c-0.6539,0.61154 -1.39755,1.20395 -1.93182,1.60001c-0.81754,0.60605 -1.38007,0.97952 -2.36066,1.79733c-0.65649,0.54752 -1.21106,1.01434 -2.05069,1.552c-0.74646,0.47803 -1.23859,1.3154 -1.96933,1.884c-0.62106,0.48325 -1.44241,0.70142 -2.33331,1.16666c-0.70621,0.36877 -1.29291,0.89676 -2.10135,1.48401c-0.72458,0.52634 -1.47589,1.01642 -2.26266,1.63065c-0.5932,0.4631 -1.45972,1.07455 -2.14398,1.48535c-0.81177,0.4873 -1.42581,1.03662 -2.14685,1.5c-0.67776,0.43558 -1.6944,0.87045 -2.45715,1.29999c-0.66553,0.37476 -1.15775,1.19678 -1.88568,1.92133c-0.57349,0.57083 -1.11884,0.87396 -2.16901,1.51202c-0.69675,0.42334 -1.35846,0.69849 -2.14514,1.26666c-0.75793,0.54739 -1.23947,1.3291 -2.12186,1.77884c-0.66858,0.34076 -1.66882,0.68716 -2.15033,0.97183c-0.74582,0.44095 -1.78339,0.96909 -2.4975,1.19748c-0.90903,0.29071 -1.59079,0.62671 -2.6265,0.92651c-0.93958,0.27197 -1.7049,0.43134 -2.38284,1.12534c-0.5994,0.61362 -1.30615,1.20816 -2.03848,1.5c-1.03281,0.41159 -1.75064,0.69196 -2.39334,1c-1.01685,0.48737 -1.61038,0.80051 -2.41068,1.19998c-0.79974,0.3992 -1.57919,0.84003 -2.59982,1.07867c-0.76801,0.17957 -1.76563,0.36624 -2.3895,0.69601c-0.81613,0.43143 -1.74921,0.57455 -2.41602,0.7825c-0.75034,0.23401 -1.86148,0.72821 -2.47382,1.14282c-0.85614,0.57971 -1.48044,1.09787 -2.49951,1.37851c-0.7547,0.20782 -1.68481,0.06839 -2.42584,0.17865c-1.01147,0.15048 -1.82507,0.56915 -2.76215,0.94284c-0.78537,0.3132 -1.35324,0.50278 -2.23468,0.79999c-0.89755,0.30264 -1.78021,0.61719 -2.64151,0.84283c-1.02744,0.26917 -1.72073,0.3342 -2.55582,0.35583c-1.00555,0.02606 -1.88202,0.05331 -2.82266,0.444c-0.54739,0.22736 -1.31729,0.78809 -2.41202,1.224c-0.69507,0.27679 -1.40176,0.29782 -2.58817,0.55502c-0.54108,0.11731 -1.40958,0.38062 -2.57849,0.94498c-0.61017,0.29462 -1.18994,0.65768 -2.04285,1.18066c-0.79108,0.48508 -1.49503,0.90503 -2.35266,1.34818c-0.79977,0.41324 -1.55875,0.85095 -2.43784,1.13785c-0.77472,0.25284 -1.6582,0.43845 -2.37732,0.77731c-0.9985,0.47052 -1.57721,0.84824 -2.47467,1.104c-0.97849,0.27887 -1.80588,0.21109 -2.54532,0.36935c-1.12689,0.24121 -1.69647,1.00531 -2.36935,1.47998c-0.7348,0.51837 -1.52731,0.84488 -2.39999,1.26935c-0.75391,0.3667 -1.42215,0.85355 -2.29999,1.1095c-0.95755,0.27921 -1.67468,0.48248 -2.22086,1.03632l-0.87915,0.02084l-0.89551,0.00449l-0.68982,0.42084" id="svg_17" stroke-width="2" stroke="#000" fill="none"/>
  <path t="56995,57232,57247,57283,57283,57291,57307,57339,57339,57395,57686,57686,57752,57850,57865,57891,57907,57917,57939,57940,57956,57972,57972,57987,58035,58035,58051,58083,58100,58123,58123,58139,58139,58150,58150,58167,58184,58184,58226,58242,58258,58274,58290,58306,58323,58354,58355,58367,58384,58400,58400,58417,58417,58434,58450,58467,58484,58500,58500,58523,58594,58650,58651,58904,58920,58954,58994,59002,59066,59090,59090,59106,59162,59178,59202,59202,59218,59290,59298,59362,59434,59466,59507,59567,59567,59727,59831,59831,59846,59846,59866,60247,60298,60299,60314,60378,60402,60402,60443,60517,60517,60555,60588,61057,61134,61171,61187,61259,61259,61275,61291,61508,61508,61524,61524,61571,61587,61603,61617,61635,61667,61667,61707,61723,61815,61831,61866,61884,61884,61900,61923,61923,61946,61963,61987,62051,62180,62180,62330,62345,62364,62364,62384,62400,62417,62435,62435,62467,62491,62507,62555,62555,62579,62603,62635,62842,62857,62875,62884,62885,62901,62917,62987,63112" d="m443,313c1.05267,1.70001 1.54178,2.48032 2.19867,3.20001c0.53348,0.5845 1.04013,1.24609 1.51733,1.884c0.57443,0.76791 0.29684,1.76666 0.80484,2.41599c0.6004,0.76743 1.24747,1.35114 2.17917,1.49551c0.8894,0.13782 1.79999,0.00449 2.69998,0.00449c0.89999,0 1.84848,0.15353 2.60001,-0.16666c0.78122,-0.33282 1.59116,-0.7543 2.20001,-1.40134c0.60449,-0.6424 1.24197,-1.28622 2,-1.716c0.64316,-0.36465 1.49945,-0.76962 2.29999,-1.216c0.80396,-0.4483 1.668,-0.66324 2.32535,-0.92532c1.0101,-0.40277 1.80057,-0.5423 2.65866,-0.57602c0.86444,-0.03397 1.68469,-0.49542 2.51599,-0.832c0.75717,-0.30658 1.70001,-0.16666 2.60001,-0.16666c0.89999,0 1.79999,0 2.69998,0c0.90002,0 1.85428,-0.18329 2.70001,0.16666c0.78464,0.32468 1.56781,0.70938 2.29999,1.19052c0.79425,0.52194 1.27829,1.26544 1.90002,1.84149c0.58047,0.53784 1.63776,0.67807 2.27914,1.32217c0.63977,0.64249 0.33197,1.74847 0.74234,2.57916c0.34116,0.69058 1.34656,1.20444 1.65701,2c0.33014,0.84604 0.17151,1.65955 0.46967,2.54367c0.30164,0.89447 -0.57596,0.68304 -1.22684,0.13498c-0.66226,-0.55762 -1.39066,-0.58978 -2.22134,-1.00015c-0.69058,-0.34116 -1.34238,-1.14426 -1.77866,-1.87833c-0.46588,-0.78387 -1.16589,-1.21124 -1.92133,-1.61618c-0.75598,-0.40524 -1.58173,-0.74039 -2.39868,-1.19998c-0.70264,-0.39529 -1.23679,-1.06601 -2.10132,-1.08401c-0.89984,-0.01874 -1.80017,0.00446 -2.58536,0c-0.94003,-0.00534 -1.99783,-0.08801 -2.59381,-0.52084c-0.8006,-0.58145 -1.33804,-1.15271 -2.12085,-1.50449c-0.82022,-0.36859 -1.40338,-1.20569 -2.10001,-1.61749c-0.81955,-0.4845 -1.71771,0.06055 -2.29999,0.64282c-0.58228,0.58228 -1.07446,1.41025 -1.57468,2.02533c-0.50412,0.61987 -0.27933,1.69742 -0.86133,2.36401c-0.60956,0.69818 -1.3678,1.10989 -2,1.58533c-0.65875,0.49539 -1.59848,0.76758 -2.36398,1.10934c-0.74353,0.33197 -1.50333,0.88739 -2.52133,0.91599c-0.67841,0.01904 -1.69614,-0.17865 -2.47736,0.08533c-0.88953,0.30057 -1.60077,0.89667 -2.50131,0.91467c-0.89984,0.01801 -1.80002,0 -2.70001,0c-0.79999,0 -1.70016,-0.01682 -2.60001,0c-0.96451,0.01801 -1.64221,0.43884 -2.23334,1.16666c-0.56586,0.69669 -0.82028,1.39377 -1.46216,2.13333c-0.57864,0.66669 -0.80469,1.49063 -1.2045,2.20001c-0.49496,0.8782 -1.05344,1.2789 -1.7955,1.85718c-0.7449,0.58051 -0.3851,2.2207 -1.35184,2.22849c-0.58972,0.00476 -0.35266,-1.41101 -0.35266,-2.10165c0,-1.07333 0,-1.98401 0,-2.89468c0,-0.91064 0,-1.58932 0,-2.70398c0,-0.88535 0.22275,-1.60315 1,-2.052c0.62158,-0.35895 1.05005,-1.26425 1.57468,-1.85867c0.56787,-0.6434 1.38165,-0.8855 1.98932,-1.58533c0.58643,-0.67535 0.43539,-1.71066 0.436,-2.564c0.00067,-0.93869 0.284,-1.74133 0.94284,-2.18253l0.05716,-0.94281" id="svg_18" stroke-width="2" stroke="#000" fill="none"/>
  <path t="64687,64843,64843,64859,64876,64906,64930,64954,64986,64986,65002,65018,65034,65050,65074,65106,65122,65170,65186,65218,65316,65354,65604,65642,65733,65733,65794,65818,65818,65834,65858,65874,65890,65900,65917,65934,65934,65970,65970,65994,66010,66018,66050,66075,66075,66091,66115,66171,66203,66234,66364,66364" d="m464,321c1.16666,1 1.69855,1.42117 2.47916,2c0.63684,0.47223 1.35861,0.88217 2,1.52084c0.64307,0.64032 1.0195,1.1817 1.81552,1.53183c0.81406,0.35806 1.32443,1.01721 1.78934,1.74866c0.49716,0.7822 1.31332,1.16418 1.91599,1.69867c0.58252,0.5166 0.9874,1.20459 1,2.10001c0.01266,0.90015 0.54318,1.60327 0.87851,2.5c0.31808,0.85065 -0.02954,1.8613 -0.87851,1.89999c-0.80368,0.03665 -1.6626,-0.61169 -1.91599,-1.48267c-0.22876,-0.78638 -0.54364,-1.63831 -1.13669,-2.16467c-0.64822,-0.57532 -1.49042,-0.77951 -2.33667,-1.32733c-0.63269,-0.40955 -1.17731,-1.22949 -1.79599,-1.62534c-0.78976,-0.50531 -1.55856,-1.05524 -2.11017,-1.69998c-0.64349,-0.75214 -0.92899,-1.55862 -1.8045,-1.70016c-0.90353,-0.14606 -1.43765,-0.76102 -2.39999,-0.979c-0.87799,-0.19888 -1.79999,-0.02084 -2.70001,-0.02084l-0.89999,0l-0.89999,0l-0.79999,0" id="svg_19" stroke-width="2" stroke="#000" fill="none"/>
  <path t="69407,69669,69734,69750,69771,69787,69795,69795,69811,69835,69835,69867,69867,69891,69931,69931,69955,69995,70027,70043,70059,70067,70067,70083,70107,70131,70147,70171,70211,70235,70235,70259,70259,70299,70315,70347,70363,70450,70482,70490,70514,70599" d="m408,161c1.70001,0 2.71979,-0.1571 3.5,0.02083c0.96204,0.21939 1.65897,0.71503 2.5,1.14584c0.66434,0.3403 1.29999,1.13333 2,1.83333c0.5,0.5 1.20001,1.20001 1.79999,1.8c0.60001,0.60001 1.40836,1.2173 1.84283,1.89999c0.46594,0.73213 0.60492,1.73624 0.35269,2.5955c-0.22662,0.77208 -1.21432,1.20499 -1.99551,1.53783c-0.75153,0.32019 -1.70001,0.16667 -2.60001,0.16667c-0.89999,0 -1.79999,0.00066 -2.69998,0c-0.90134,-0.00067 -1.89526,-0.10616 -2.51468,-0.436c-0.90186,-0.48026 -1.18082,-1.26396 -1.18533,-2.164c-0.00449,-0.89998 0.24289,-1.83482 -0.00449,-2.6955c-0.2207,-0.7679 -0.98483,-1.31517 -0.99551,-2.2045l0,-0.89999l0,-0.90001" id="svg_20" stroke-width="2" stroke="#000" fill="none"/>
  <path t="86020,86190,86205,86205,86223,86233,86233,86248,86248,86265,86282,86282,86298,86315,86315,86345,86345,86345,86361,86369,86393,86441,86441,86465,86473,86489,86505,86816,86831,86831,86849,86865,86865,86882,86882,86898,86898,86898,86915,86915,86915,86932,86932,86932,86948,86965,86965,86982,86998,87015,87033,87033,87033,87048,87089,87113,87229,87245,87245,87272" d="m451,139c-1.60001,0.61067 -2.2926,1.3075 -2.79999,1.8c-0.71066,0.68982 -1.52969,1.03635 -2.37466,1.22533c-0.95178,0.21288 -1.4462,0.76682 -2.23602,1.364c-0.69934,0.52875 -1.70367,0.37047 -2.48398,0.96783c-0.73303,0.56117 -1.11774,1.21448 -2.10535,1.47617c-0.77338,0.20493 -1.54517,-0.05421 -2.58932,0.20267c-0.87329,0.21484 -1.61188,0.86682 -2.51068,0.96417c-0.70105,0.07593 -1.43716,0.74678 -2.29999,0.96384c-0.8735,0.21974 -1.81274,-0.11467 -2.69983,0.03616c-0.8511,0.14471 -1.16534,1.37531 -0.61484,1.91583c0.62091,0.60968 1.45752,0.81015 2.19998,1.28534c0.71222,0.45583 1.5296,0.94762 2.11469,1.45583c0.61627,0.53531 1.39313,1.34984 2,1.93834c0.59338,0.57541 1.3884,1.2552 1.99548,1.64732c0.73395,0.47408 1.57257,1.17766 2.40451,1.5905c0.6571,0.32608 1.42255,0.85226 2.29999,1.10951c0.86676,0.2541 1.86984,0.2159 2.52536,0.4825c0.69409,0.2823 1.76398,0.56393 2.67465,0.57466c0.89999,0.0106 1.70001,0.284 2.5,0.83333l0.70001,0.16217l0.89999,0.0045" id="svg_24" stroke-width="2" stroke="#000" fill="none"/>
  <path t="88135,88213,88248,88256,88265,88282,88298,88298,88315,88315,88332,88348,88365,88365,88382,88398,88398,88415,88432,88432,88448,88448,88466,88466,88482,88482,88498,88498,88515,88515,88532,88532,88548,88548,88565,88565,88565,88582,88582,88582,88600,88600,88632,88632,88640,88656,88656,88665,88682,88712,88752,88752,88792" d="m452,164c-0.61066,1.60001 -1.39639,2.23297 -1.83334,3c-0.44424,0.77985 -0.90027,1.32697 -1.5,2c-0.55438,0.62216 -1.36575,1.13007 -1.74933,1.8c-0.46143,0.80594 -1.41522,1.06247 -2.01733,1.64267c-0.62335,0.60066 -1.16031,1.27122 -2,1.77882c-0.65918,0.39848 -1.19998,1.07851 -1.89999,1.7785c-0.60001,0.60001 -1.1163,1.33687 -1.88535,1.71466c-0.88458,0.43456 -1.74222,0.28741 -2.71014,0.6425c-0.77371,0.28383 -1.46503,0.93416 -2.15717,1.28568c-0.84845,0.43089 -1.82953,0.44626 -2.49469,1.0625c-0.56946,0.52759 -1.23608,1.13354 -2.15717,1.34283c-0.79407,0.18042 -1.61368,0.47903 -2.28082,0.75316c-0.99347,0.4082 -1.80984,0.66129 -2.54532,0.99867c-0.98343,0.45114 -1.62637,1.04233 -2.42203,1.4955c-0.67487,0.38437 -1.7605,0.5696 -2.54733,0.98849c-0.65259,0.34744 -1.48511,0.81599 -1.884,1.51733c-0.40738,0.71625 -1.116,1.39734 -1.71597,1.91333l-0.90002,0.33801" id="svg_25" stroke-width="2" stroke="#000" fill="none"/>
  <path t="91755,91829,91829,91829,91829,91864,91864,91864,91881,91881,91881,91881,91898,91898,91898,91898,91915,91915,91915,91931,91931,91931,91948,91948,91965,91965,91981,91981,91998,92015,92015,92031,92031,92048,92065,92065,92065,92081,92081,92098,92098,92115,92131,92131,92148,92148,92165,92165,92181,92181,92198,92198,92215,92215,92215,92231,92231,92248,92248,92265,92265,92281,92281,92298,92298,92315,92315,92331,92331,92332,92332,92349,92349,92349,92365,92365,92365,92381,92398,92398,92415,92431,92431,92448,92448,92465,92481,92481,92481,92498,92515,92515,92531,92531,92531,92548,92577,92577,92609,92609,92625,92625,92649,92689,92745,92753,92753,92769,92801,92825,92825,92841,92849,92865,92881,92881,92898,92915,92915,92937,92937,92953,92965,92981,92981,92998,92998,93015,93031,93048,93048,93065,93065,93081,93082,93098,93115,93276,93276,93292,93329,93337,93349,93367,93382,93383,93399,93399,93416,93433,93449,93624" d="m431,238c0.42532,-1.836 0.79532,-2.58658 0.94284,-3.60001c0.11548,-0.79337 0.05716,-1.80266 0.05716,-2.44167c0,-0.72899 0.00583,-1.92914 -0.01068,-2.63033c-0.01767,-0.74954 -0.04086,-1.535 -0.21082,-2.72768c-0.11325,-0.79485 -0.26978,-1.56683 -0.57983,-2.62965c-0.27301,-0.93576 -0.58432,-1.72211 -0.95584,-2.41884c-0.52921,-0.99245 -0.88226,-1.5089 -1.41748,-2.2905c-0.64297,-0.93896 -1.18018,-1.59816 -1.82535,-2.26134c-0.49307,-0.50684 -1.20001,-1.20001 -1.79999,-1.8c-0.60001,-0.60001 -1.21204,-1.42899 -1.95718,-1.84283c-0.82562,-0.45854 -1.59415,-0.27571 -2.62817,-0.36783c-0.95697,-0.08525 -1.63177,-0.31424 -2.36398,-0.60001c-1.12817,-0.44031 -1.6778,-1.00491 -2.57199,-1.26782c-0.82556,-0.24274 -1.79333,-0.12151 -2.67868,-0.12151c-0.75717,0 -1.65717,0 -2.60132,0c-0.99869,0 -1.79868,0 -2.79868,0c-0.80002,0 -1.80002,0 -2.60001,0c-1,0 -1.79999,0 -2.60001,0c-1,0 -1.79999,0 -2.79868,0c-0.76532,0 -1.71732,0 -2.48532,0c-0.952,0 -1.71793,-0.03056 -2.716,0.0045c-0.80124,0.02815 -1.80527,0.27071 -2.42084,0.51633c-1.15353,0.4603 -1.93506,0.78271 -2.5,0.97917c-0.8786,0.30553 -1.78046,0.59572 -2.66849,0.89999c-0.57562,0.19724 -1.65723,0.57091 -2.564,1c-0.59427,0.28122 -1.41473,1.02049 -2.24667,1.43333c-0.75098,0.37265 -1.48761,0.70052 -2.20132,1.36667c-0.54654,0.51015 -1.42914,1.14403 -2.146,1.44284c-0.87698,0.36557 -1.83337,0.49176 -2.47803,0.79317c-0.70776,0.33092 -1.52429,0.97942 -2.27499,1.664c-0.56116,0.51175 -1.44217,1 -2.13965,1.29999c-0.69751,0.3 -1.49057,0.98965 -2.09335,1.60001c-0.59735,0.60484 -1.52921,0.96439 -2.14581,1.5c-0.75784,0.65831 -0.99167,1.44565 -1.57352,2.14284c-0.49335,0.59114 -1.45248,0.87273 -2.14734,1.55716c-0.50375,0.4962 -1.13461,1.3055 -2,1.716c-0.75745,0.3593 -1.4563,0.88255 -2.39999,1.07333c-0.86227,0.17432 -1.36868,0.71635 -1.96933,1.20934c-0.6955,0.57085 -1.69559,0.68491 -2.59732,0.968c-0.67517,0.21198 -1.65521,0.73976 -2.42267,0.82266c-0.90546,0.09781 -1.86389,-0.10135 -2.612,0.29601c-0.75671,0.40192 -1.42615,1.06595 -2.146,1.3575c-0.98825,0.40025 -1.85269,0.35716 -2.75284,0.35716c-0.78519,0 -1.73584,-0.00174 -2.50116,0c-0.99417,0.00226 -1.94098,0.02315 -2.7627,0.42534c-0.87006,0.42586 -1.63638,0.5493 -2.43597,0.57466c-0.9014,0.02859 -1.62238,0.6862 -2.5,0.94284c-0.8656,0.25313 -1.80002,0.05716 -2.70001,0.05716c-0.75717,0 -1.65268,0 -2.51599,0c-0.96317,0 -1.884,0 -2.784,0l-0.90002,-0.00133" id="svg_26" stroke-width="2" stroke="#000" fill="none"/>
 </g>
 <g display="none">
  <title>muse_image</title>
  <image xlink:href="http://farm4.static.flickr.com/3112/2542406805_5790d360a7.jpg" id="muse" height="456" width="640" y="12" x="0"/>
 </g>
 <g display="none">
  <title>bbox</title>
  <rect stroke="#f00" fill="none" stroke-width="3" height="381.91597" width="359.68" y="82.2521" x="145.92" id="bbox"/>
 </g>
</svg>
