<svg width="640" height="480" xmlns="http://www.w3.org/2000/svg" xmlns:svg="http://www.w3.org/2000/svg" xmlns:xlink="http://www.w3.org/1999/xlink">
 <!-- Sketchy ANNOTATION
  ImageNet ID: n01594787_13577
  URL: http://farm4.static.flickr.com/3190/2832559200_1c4cbe80b3.jpg
  Image Width: 445
  Image Height: 500
  BBox X: 63
  BBox Y: 103
  BBox Width: 273
  BBox Height: 309
  Exposure: 2000ms
  Synset Label: songbird
  Synset ID: n01526521
  Worker Tag: cute brown bird
  Sanity Check: 
   Saved
  Comment: 
   {}
  Worker ID: A1VGZ2K3HF66TE
  Assignment ID: 354GIDR5ZB65CLUOSW3ZPYCM8KB00L
  HIT ID: 3LXX8KJXPW96OCCQ4BJ1JQEC6EUO9H
  Work Time: 53s
  Worker Score: 0.6310
 END ANNOTATION -->
 <g display="inline">
  <title>Layer 1</title>
  <path t="0,211,212,212,212,212,213,230,231,231,231,231,231,232,232,367,367,367,367,367,368,368,368,368,398,398,398,398,398,398,399,399,399,408,408,409,409,409,409,409,409,409,418,419,419,419,419,419,420,420,420,428,428,428,429,429,429,429,429,429,478,478,478,479,479,479,479,479,480,486,487,487,487,487,488,488,494,510,511,511,511,511,544,544,545,545,545,564,565,565,566,566,566,582,582,583,584,584,610,627,628,629,629,647,647,648,670,671,683,684,684,696,709,958,975,976,976,976,992,1027,1028,1047,1048,1048,1048,1048,1049,1058,1059,1059,1060,1060,1061,1075,1076,1076,1076,1077,1077,1077,1109,1110,1110,1111,1111,1111,1112,1136,1137,1137,1140,1141,1141,1141,1142,1142,1152,1153,1154,1157,1157,1158,1158,1158,1159,1166,1167,1168,1169,1169,1173,1201,1202,1202,1214,1215,1215,1220,1223,1224,1225,1225,1226,1233,1261,1362,1363,1364,1365,1391,1392,1392,1393,1398,1399,1399,1400,1405,1405,1406,1406,1425,1426,1426,1427,1427,1427,1443,1444,1445,1446,1446,1447,1459,1460,1460,1461,1462,1462,1491,1492,1492,1519,1530,1531,1532,1532,1542,1724,1760,1761,1762,1763,1780,1783,1783,1784,1785,1792,1836,1837,1837,1838,1838,1858,1859,1866,1866,1874,1880,1881,1882,1882,1883,1897,1898,1899,1900,1900,1901,1932,1933,1933,1934,1936,1944,1945,1945,1946,1947,1948,1949,1976,1977,1978,1978,1979" d="m257,191c6.59332,-7.69299 6.9791,-8.17805 7.33667,-8.62767c0.66165,-0.83199 1.31967,-1.62767 1.68332,-2.02167c0.79825,-0.86485 1.27628,-1.32619 2.35236,-2.30417c0.57004,-0.51808 1.16592,-1.02971 1.77298,-1.5345c0.60236,-0.50087 1.19125,-0.99358 2.35468,-1.84532c0.53403,-0.39096 1.07474,-0.75111 1.659,-1.07851c0.63409,-0.35532 1.37772,-0.70393 2.25299,-1.0695c1.02673,-0.42883 2.25305,-0.89711 5.42136,-2.01866c1.98184,-0.70155 4.20132,-1.45735 6.59399,-2.265c2.50592,-0.84587 5.07101,-1.69841 7.638,-2.535c2.50571,-0.81662 4.88861,-1.60638 9.10132,-2.86667c1.70554,-0.51024 3.15265,-0.9081 4.36652,-1.2045c0.99887,-0.24391 1.81885,-0.41328 2.4855,-0.51149c0.535,-0.07881 0.97186,-0.11 1.64798,-0.11734c0.28983,-0.00314 0.55869,0 0.80551,0c0.22385,0 0.42368,0 0.59851,0c0.14883,0 0.27066,0 0.42932,0c0.03635,0 0.05099,0.00034 0.05099,0c0,-0.00568 -0.00934,0 -0.00299,0c0.02432,0 0.07468,-0.00031 0.28534,0c0.17432,0.00026 0.39481,0.00069 0.65698,0.0135c0.30057,0.01469 0.63559,0.04227 0.99899,0.0945c0.39145,0.05626 0.81235,0.11565 1.67734,0.392c0.45963,0.14685 0.91336,0.34479 1.36353,0.5535c0.44452,0.20609 1.24115,0.68144 1.95914,1.00917c1.15149,0.5256 1.96552,0.71251 2.69284,1.06149c0.88666,0.42545 1.35745,0.66649 2.28583,1.19585c0.87405,0.49838 1.60583,0.98276 2.22,1.46533c0.58835,0.4623 1.15491,0.99312 2.17633,1.8575c0.79666,0.67416 1.23193,1.01982 1.67734,1.37799c0.91248,0.73373 1.37482,1.09933 2.29169,1.8125c0.87259,0.67871 1.67593,1.28989 2.04166,1.5625c0.89359,0.66609 1.68011,1.23529 2.13184,1.83234c0.45285,0.59857 1.01321,1.29329 1.58701,2.013c0.73849,0.92632 1.31247,1.63753 1.74216,2.26418c0.5592,0.81554 1.06943,1.60216 1.35468,2.02533c0.5705,0.84634 0.85721,2.94916 1.73999,2.40266c0.80557,-0.49869 -0.17468,-0.42133 0.23315,0.39433c0.38965,0.77934 0.81534,1.63066 1.22101,2.442c0.44852,0.897 0.27664,0.44487 0.62851,0.489c0.90375,0.11333 1.62463,0.80942 2.09201,1.03867c1.02148,0.50104 1.56281,0.76254 2.11731,1.02133c1.65097,0.77055 2.19189,0.99759 2.72018,1.22867c1.0361,0.45319 1.55173,0.66661 2.55582,1.13667c1.00674,0.47131 2.00317,0.99908 2.50583,1.26866c0.50668,0.27174 1.52997,0.825 2.05267,1.09467c0.52661,0.27168 2.16312,1.03563 2.73218,1.27c0.57962,0.23872 1.79395,0.70364 2.42932,0.944c0.65729,0.24864 1.34213,0.49924 2.78134,1.07199c0.76602,0.30486 1.55417,0.63406 2.36249,0.9765c0.82504,0.34952 1.65872,0.71016 2.4975,1.0755c0.83954,0.36566 1.67279,0.73323 3.30667,1.448c0.78961,0.34543 1.55811,0.68001 2.30551,1.0005c0.7233,0.31015 1.42273,0.60599 2.09851,0.8835c0.64792,0.26607 1.26627,0.52243 2.42932,0.94934c0.53372,0.19591 1.04318,0.37076 2.00266,0.672c0.89935,0.28236 1.34708,0.39079 2.664,0.828c0.92447,0.30692 1.39804,0.48732 2.375,0.875c0.50659,0.20103 1.54797,0.63838 2.625,1.125c0.55505,0.25078 1.65524,0.771 2.18402,1.02666c0.97333,0.4706 1.96176,2.37155 2.52432,1.24417c0.41602,-0.83368 -1.76083,-0.4375 -2.60834,-0.4375c-0.67334,0 -1.38666,0 -2.44598,0c-1.03802,0 -1.79001,0 -2.64603,0c-1.008,0 -1.58167,0 -2.84698,0c-0.67566,0 -1.36932,0 -2.073,0c-0.70566,0 -1.40533,0 -3.39035,0c-0.60965,0 -1.19733,0 -2.32266,0c-0.54565,0 -1.62299,0 -2.70831,0c-1.11734,0 -1.686,0 -2.83334,0c-0.57468,0 -1.14734,0 -2.83334,0c-0.54483,0 -1.60049,0 -2.10931,0c-0.97467,0 -1.88535,0 -3.11368,0c-0.71133,0 -1.57834,0 -2.62582,0c-0.767,0 -1.48199,0 -2.297,0c-1.14752,0 -1.34106,-0.54559 -1.12885,0.108c0.2431,0.74876 -1.20959,1.21272 -1.724,1.79601c-0.58301,0.66109 -1.17935,1.42131 -1.76266,2.25867c-0.29306,0.4207 -0.84094,1.24283 -1.27667,2.00333c-0.56839,0.99205 -0.78906,1.83743 -1.24832,2.668c-0.20029,0.3622 -0.66379,1.15111 -1.11502,2.00333c-0.64047,1.20966 -0.9581,1.93019 -1.20282,2.5585c-0.2883,0.74026 -0.65186,1.75693 -1.22717,2.71133c-0.40573,0.67308 -0.64252,1.05928 -1.20334,1.87418c-0.29663,0.43103 -1.28751,1.69577 -1.6535,2.07533c-0.71451,0.741 -1.49112,1.37138 -1.88916,1.64999c-0.7753,0.54263 -1.98367,1.16542 -2.79834,1.48801c-0.40945,0.16212 -1.26672,0.44557 -2.16165,0.77333c-0.96686,0.35411 -1.99872,0.79829 -2.53467,1.04182c-0.54672,0.24843 -1.64459,0.77432 -2.18933,1.04201c-0.5379,0.26433 -2.06216,1.0265 -2.53333,1.26151l-0.88934,0.43999l-0.82532,0.40001l-0.76935,0.36" id="svg_1" stroke-width="2" stroke="#000" fill="none"/>
  <path t="2382,2591,2592,2592,2592,2592,2592,2592,2608,2609,2609,2609,2609,2609,2609,2609,2643,2643,2644,2644,2644,2644,2644,2644,2644,2659,2659,2659,2659,2660,2660,2660,2660,2660,2694,2695,2695,2695,2695,2695,2695,2696,2696,2703,2703,2703,2703,2704,2704,2704,2704,2704,2726,2727,2727,2727,2727,2728,2728,2728,2728,2743,2744,2744,2744,2745,2745,2745,2745,2745,2759,2760,2761,2761,2762,2763,2765,2765,2766,2779,2780,2780,2781,2781,2781,2782,2782,2782,2810,2811,2811,2811,2811,2812,2812,2812,2813,2826,2827,2827,2828,2828,2828,2828,2829,2829,2860,2860,2860,2861,2861,2861,2862,2862,2862,2868,2870,2870,2870,2871,2871,2871,2872,2873,2893,2894,2894,2895,2895,2895,2896,2896,2896,2927,2928,2928,2928,2929,2929,2930,2930,2930,2936,2937,2937,2938,2938,2939,2939,2940,2941,2959,2959,2960,2960,2961,2962,2962,2962,2963,2975,2976,2977,2977,2977,2978,2978,2979,2979,3027,3076,3077,3077,3078,3080,3081,3081,3083,3088,3089,3089,3090,3091,3091,3092,3092,3093,3108,3109,3110,3111,3111,3112,3113,3114,3114,3135,3136,3136,3137,3137,3137,3138,3139,3139,3145,3146,3146,3146,3147,3147,3148,3148,3148,3158,3160,3160,3161,3162,3163,3164,3165,3165" d="m253,190c-7.16667,9.66667 -7.68465,10.33545 -8.62317,11.46066c-0.41457,0.49702 -0.81723,0.95352 -1.56866,1.832c-0.37361,0.43677 -1.1449,1.37134 -1.55116,1.89301c-0.87872,1.1283 -1.32826,1.73756 -1.79868,2.356c-0.4789,0.62958 -0.9621,1.26611 -1.461,1.89299c-0.98706,1.24025 -1.49623,1.82538 -2.00267,2.40668c-0.51088,0.58638 -1.04016,1.18021 -1.57799,1.80449c-0.56366,0.65428 -1.15533,1.35172 -1.75801,2.11951c-1.34792,1.71718 -2.049,2.72276 -2.79199,3.78934c-0.77393,1.11096 -1.54897,2.26112 -2.325,3.4245c-0.77065,1.1553 -1.51569,2.29031 -2.235,3.3795c-1.30487,1.97585 -1.87897,2.8269 -2.39601,3.59866c-0.47319,0.7063 -0.9122,1.36369 -1.30649,2.00099c-0.3829,0.6189 -0.74956,1.24619 -1.08151,1.91101c-0.72285,1.44774 -1.05194,2.29913 -1.40532,3.21066c-0.37413,0.96504 -0.73871,1.98438 -1.09651,3.045c-0.36638,1.08604 -0.7207,2.19376 -1.0515,3.315c-0.65527,2.22107 -0.93108,3.31691 -1.20267,4.39732c-0.27005,1.0743 -0.52655,2.15471 -0.78749,3.246c-0.26573,1.11137 -0.53494,2.25235 -0.8325,3.42601c-0.63239,2.49432 -1.00641,3.81992 -1.39999,5.19467c-0.40463,1.4133 -0.83104,2.84869 -1.2675,4.29599c-0.43687,1.4487 -0.87788,2.88416 -1.3125,4.29599c-0.83247,2.70428 -1.22348,3.9751 -1.59734,5.19202c-0.35916,1.1691 -0.70596,2.29663 -1.04851,3.38699c-0.33351,1.06161 -0.66333,2.09988 -1.00349,3.117c-0.67282,2.01178 -1.03537,3.00885 -1.40134,4.00534c-0.36537,0.99487 -0.73965,1.98196 -1.116,2.961c-0.373,0.97031 -0.74744,1.92731 -1.116,2.871c-0.71753,1.83722 -1.06148,2.72839 -1.40266,3.60132c-0.33618,0.86008 -0.6722,1.71014 -1.02301,2.54849c-0.35054,0.83768 -0.71271,1.67499 -1.11299,2.50351c-0.81969,1.69662 -1.30278,2.54263 -1.8,3.40134c-0.50534,0.87274 -1.03909,1.74356 -1.58701,2.616c-0.55074,0.87692 -1.11414,1.74768 -1.677,2.616c-1.11365,1.71802 -1.66,2.56177 -2.19466,3.39468c-0.52536,0.81845 -1.03897,1.62198 -1.545,2.40598c-0.49399,0.76535 -0.97583,1.51013 -1.455,2.22601c-0.91208,1.36267 -1.36052,1.99542 -1.8,2.59601c-0.42073,0.57495 -0.83423,1.11533 -1.245,1.61548c-0.38959,0.47437 -0.76869,0.91467 -1.155,1.30051c-0.70009,0.69919 -1.05917,0.96793 -1.40134,1.20532c-0.32272,0.22391 -0.64671,0.41162 -0.96451,0.57751c-0.30769,0.16064 -0.61703,0.30017 -0.91949,0.4425c-0.60275,0.28366 -0.90352,0.43747 -1.2,0.60666c-0.29927,0.17078 -0.5938,0.35544 -0.88051,0.55499c-0.28806,0.20047 -0.56998,0.4126 -0.83549,0.64502c-0.53172,0.46545 -0.76735,0.73062 -0.996,0.99332c-0.22263,0.2558 -0.42433,0.51111 -0.606,0.75751c-0.16745,0.22711 -0.31198,0.43539 -0.42599,0.6225c-0.16412,0.26932 -0.2132,0.35434 -0.20267,0.39999c0.00452,0.01956 0.04419,0.00888 0.08701,-0.02249c0.05647,-0.04138 0.11526,-0.09769 0.177,-0.1575c0.1158,-0.11218 0.15982,-0.15851 0.196,-0.19467c0.02817,-0.02817 0.04933,-0.04932 0.0645,-0.06448c0.01016,-0.01016 0.0152,-0.01831 0.0195,-0.0195c0.67931,-0.18723 1.77356,0.44379 2.29066,0.56665c0.58984,0.14014 1.25082,0.28857 1.98149,0.43201c0.79327,0.15573 1.64893,0.3093 2.5665,0.43201c1.992,0.26642 3.06941,0.33859 4.18935,0.38931c1.15858,0.05246 2.35397,0.06195 3.5775,0.01202c1.25012,-0.05103 2.52368,-0.14752 3.80249,-0.34802c2.60652,-0.40863 3.89938,-0.79205 5.188,-1.19598c1.29446,-0.40576 2.56842,-0.88037 3.82201,-1.39349c1.24522,-0.5097 2.45982,-1.05472 3.642,-1.6185c2.28482,-1.08963 3.35672,-1.65265 4.39867,-2.19067c1.01102,-0.52206 1.98869,-1.0387 2.93849,-1.54501c0.92619,-0.49371 1.82838,-0.98114 2.7135,-1.45499c1.72279,-0.92227 2.56943,-1.36646 3.41068,-1.80533c0.84042,-0.43848 1.6871,-0.8765 2.5425,-1.323c0.87129,-0.4548 1.76358,-0.92178 2.67751,-1.41302c1.93073,-1.03778 2.94655,-1.60596 3.99066,-2.19733c1.06393,-0.60257 2.12801,-1.224 3.186,-1.84799l1.03799,-0.62399l1.006,-0.61801l0.96201,-0.60599" id="svg_2" stroke-width="2" stroke="#000" fill="none"/>
  <path t="3524,3658,3658,3658,3658,3658,3659,3659,3659,3659,3676,3677,3677,3677,3677,3677,3677,3677,3677,3710,3711,3711,3711,3711,3711,3712,3712,3712,3736,3736,3736,3736,3737,3737,3737,3737,3737,3754,3754,3755,3755,3756,3757,3757,3757,3758,3775,3776,3776,3777,3777,3777,3778,3778,3778,3795,3795,3795,3795,3796,3796,3796,3796,3796,3808,3809,3809,3809,3809,3810,3810,3811,3812,3846,3846,3847,3847,3847,3847,3847,3847,3848,3859,3859,3859,3860,3860,3909,3943,3944,3945,3945,3946,3959,3960,3960,3960,3961,3961,3961,3961,3962,3976,3976,3977,3977,3978,3993,3994,3994,3995" d="m339,239c10,9.83333 10.78467,10.76817 11.48801,11.71466c0.68243,0.91835 1.30563,1.84317 1.88699,2.76451c0.57056,0.90421 1.10315,1.81339 1.617,2.7195c1.01825,1.79556 1.50815,2.70099 2.00665,3.60001c0.49716,0.89664 0.99155,1.79016 1.4805,2.68048c0.48572,0.88437 0.96594,1.76245 1.43552,2.6355c0.92313,1.71631 1.36469,2.56415 1.80399,3.40402c0.43805,0.83746 0.87552,1.67831 1.323,2.52298c0.45383,0.85666 0.91959,1.72855 1.41302,2.61301c1.03326,1.85211 1.60657,2.81125 2.19864,3.79868c0.6062,1.01096 1.23264,2.03375 1.86752,3.0675c0.63846,1.03958 1.28082,2.07678 1.91248,3.11249c1.23825,2.03033 1.82602,3.02158 2.39334,3.992c0.55264,0.94531 1.08228,1.86938 1.59,2.77051c0.49222,0.8736 0.96277,1.72217 1.41,2.5455c0.84518,1.55585 1.23233,2.29367 1.604,3.00665c0.3613,0.69305 0.70999,1.375 1.04849,2.052c0.33749,0.67502 0.67172,1.35669 1.00351,2.052c0.68967,1.44531 1.03912,2.21121 1.39999,2.996c0.36612,0.79623 0.7312,1.59637 1.0965,2.3895c0.35873,0.77887 0.70682,1.53497 1.05151,2.25449c0.62839,1.31168 0.92456,1.8797 1.19467,2.39603c0.24567,0.4696 0.47488,0.89389 0.6705,1.28699c0.17871,0.3591 0.34131,0.6918 0.4455,1.017c0.19171,0.59842 0.20551,0.9072 0.20398,1.20267c-0.00146,0.2876 -0.03568,0.56393 -0.08698,0.82199c-0.04785,0.24072 -0.10776,0.45712 -0.177,0.642c-0.1044,0.27875 -0.15164,0.3634 -0.19601,0.40134c-0.02457,0.021 0.16785,-0.18283 -0.26532,-0.45999c-0.78171,-0.50015 -1.62329,0.00302 -2.48666,-0.125c-0.49756,-0.07379 -1.61746,-0.33575 -2.83334,-0.875c-0.67679,-0.30017 -1.3544,-0.6969 -2.04901,-1.12051c-0.71094,-0.43359 -1.41077,-0.89819 -2.103,-1.36349c-0.67706,-0.45508 -1.3143,-0.91431 -2.51465,-1.68265c-0.52118,-0.33359 -1.44586,-0.85965 -2.22919,-1.27084c-0.68024,-0.35709 -1.60416,-0.89584 -2.19882,-1.32782l-0.82199,-0.69302l-0.45468,-0.422" id="svg_3" stroke-width="2" stroke="#000" fill="none"/>
  <path t="4324,4541,4541,4541,4541,4541,4541,4541,4558,4558,4558,4558,4558,4558,4608,4609,4609,4609,4609,4609,4610,4610,4610,4614,4614,4614,4614,4614,4614,4615,4615,4615,4625,4625,4625,4625,4626,4626,4626,4626,4626,4659,4660,4660,4660,4660,4660,4660,4660,4660,4676,4676,4677,4677,4677,4678,4678,4678,4678,4711,4712,4712,4712,4713,4713,4713,4713,4713,4718,4718,4718,4719,4719,4719,4719,4719,4719,4725,4725,4725,4726,4726,4726,4726,4727,4727,4761,4762,4762,4762,4762,4762,4763,4763,4763,4775,4776,4776,4777,4777,4777,4778,4778,4778,4811,4812,4812,4812,4812,4813,4813,4814,4814,4819,4820,4820,4820,4820,4821,4821,4822,4823,4862,4863,4863,4863,4864,4864,4864,4865,4865,4869,4870,4870,4870,4870,4871,4871,4872,4873,4889,4891,4891,4892,4892,4892,4893,4893,4893,4902,4903,4904,4904,4905,4905,4905,4906,4907,4926,4926,4927,4961,4961,4967,4967,4968,4968,4974,5009" d="m223,320c12.16667,7.83334 12.96552,8.34702 13.66267,8.80533c1.15506,0.75934 1.63815,1.078 2.44499,1.67749c0.36726,0.27286 1.41498,1.15948 2.16299,1.83151c0.39767,0.3573 0.80334,0.73831 1.70534,1.49466c0.47649,0.39954 1.51875,1.19852 2.09,1.59134c0.59663,0.41028 1.24106,0.81711 1.938,1.22101c0.74084,0.42935 1.54781,0.85904 2.424,1.293c0.93958,0.46536 3.06906,1.42593 4.26384,1.92783c1.25978,0.52917 2.57541,1.05548 3.92551,1.57651c1.35956,0.52469 2.71646,1.02884 4.05148,1.50449c1.28775,0.4588 3.66168,1.25284 4.71701,1.56934c0.96497,0.2894 1.86258,0.53177 2.70749,0.72751c0.80035,0.18542 1.57874,0.33435 2.3475,0.45749c0.77133,0.12357 2.39221,0.3252 3.26602,0.42233c0.91418,0.10165 1.86075,0.1983 2.83047,0.28952c0.98328,0.09247 1.97177,0.17764 2.95651,0.25348c0.97128,0.0748 2.83932,0.1944 3.72134,0.23569c0.85266,0.03992 1.68759,0.06735 2.51547,0.08548c0.83179,0.01822 1.67868,0.02692 2.55151,0.03152c0.90982,0.00479 2.88449,0.00449 3.96768,0.00449c1.14215,0 2.33231,0 3.55948,0c1.25317,0 2.52133,0 3.79352,0c1.26517,0 3.7305,0.00156 4.91098,-0.00049c1.14352,-0.00198 2.25314,-0.00662 3.33151,-0.03152c1.05066,-0.02426 2.07675,-0.06473 3.0795,-0.1395c0.98538,-0.07346 2.91125,-0.31342 3.85333,-0.49332c0.93683,-0.17889 1.85959,-0.40176 2.7645,-0.66452c0.89896,-0.26105 1.77963,-0.56171 2.63849,-0.8985c0.85196,-0.33408 2.49118,-1.0947 3.27618,-1.51532c0.78046,-0.41818 1.54144,-0.86902 2.29199,-1.33951c0.75488,-0.47318 1.50308,-0.97208 2.25601,-1.48349c0.76443,-0.51923 2.32809,-1.60037 3.13699,-2.15552c0.82309,-0.56485 1.65701,-1.13571 2.487,-1.72498c0.83206,-0.59073 1.6546,-1.1915 2.45099,-1.815c0.78763,-0.61664 2.26401,-1.89377 2.93335,-2.55936c0.65323,-0.64954 1.25659,-1.31589 1.82098,-1.98297c0.54813,-0.64786 1.05472,-1.29562 1.53302,-1.92902c0.46021,-0.60944 1.29849,-1.76736 1.68915,-2.30234c0.37073,-0.50766 0.72427,-0.98868 1.06052,-1.44598c0.3201,-0.43536 0.62576,-0.85037 0.9165,-1.24802c0.27856,-0.38101 0.80182,-1.10239 1.04431,-1.44965c0.23611,-0.33813 0.46216,-0.67343 0.66452,-1.01703c0.20135,-0.34189 0.38489,-0.69696 0.53848,-1.07098c0.15747,-0.38348 0.39468,-1.23129 0.47635,-1.69717c0.08548,-0.48758 0.14221,-0.99826 0.20248,-1.52249c0.0614,-0.53412 0.11896,-1.07446 0.20251,-1.61249c0.08316,-0.53543 0.32318,-1.57254 0.50131,-2.05685c0.1731,-0.47061 0.38095,-0.90732 0.6015,-1.30798c0.20581,-0.3739 0.41711,-0.70258 0.61951,-0.98401c0.17316,-0.24078 0.44031,-0.56241 0.52933,-0.62399c0.04257,-0.02945 0.06689,-0.01028 0.05252,0.02399c-0.02176,0.05179 -0.06741,0.10709 -0.1275,0.13202c-0.05576,0.02313 -0.21143,-0.07739 -0.28201,-0.60901c-0.10483,-0.78943 -0.05716,-1.80835 -0.05716,-2.64835c0,-0.82666 0,-1.52798 0,-2.35733l0,-0.84534l0,-1.29065l0,0.33331" id="svg_4" stroke-width="2" stroke="#000" fill="none"/>
  <path t="5410,5607,5608,5608,5608,5608,5608,5626,5626,5626,5626,5680,5761,5780,5780,5780,5781,5781,5781,5781,5809,5809,5809,5809,5809,5810,5810,5826,5827,5827,5827,5827,5827,5827,5827,5827,5842,5842,5842,5843,5843,5843,5843,5843,5843,5859,5859,5859,5859,5859,5860,5860,5860,5892,5893,5893,5893,5908,5946,5946,5946,5947,5995,5996,6000,6000,6001,6001,6001,6001,6001,6008,6009,6009,6009,6009,6010,6010,6010,6010,6040,6041,6041,6042,6042,6042,6042,6042,6043,6058,6059,6059,6059,6060,6060,6060,6060,6061,6096,6097,6097,6098,6098,6099,6099,6099,6099,6104,6104,6143,6144,6158,6159,6159,6160,6160,6160,6160,6161,6161,6190,6191,6191,6192,6192,6192,6192,6193,6193,6197,6198,6198,6198,6199,6199,6199,6242,6243,6243,6292,6308,6309,6309,6310,6310,6310,6311,6344,6345,6345,6346,6346,6346,6347,6347,6347,6352,6353,6353,6354,6354,6354,6355,6355,6355,6372,6373,6373,6374,6375,6375,6376,6376,6392,6428,6458,6459,6459,6460,6460,6460,6461,6475,6475,6476,6477,6477,6477,6478,6478,6479,6511,6512,6513,6514,6514,6515,6515,6521,6543,6592,6629,6630,6630,6631,6631,6632,6634,6636,6636,6644,6645,6645,6646,6646,6646,6647,6647,6648,6673,6674,6675,6675,6675,6676,6676,6677,6677,6683,6683,6684,6710,6727,6728,6729,6729" d="m265,349c0,9.23499 0,9.94 0,10.61499c0,0.64502 0,1.845 0,2.40002c0,1.48499 0,2.32364 0,3.03433c0,0.80847 0.0032,0.96243 0.68268,1.20667c1.09418,0.39328 1.59409,0.60001 2.16116,0.79749c1.25626,0.4375 1.93094,0.64371 2.62067,0.83133c0.68771,0.18707 2.03326,0.46848 2.672,0.53c1.21591,0.11713 1.81961,0.08902 2.42599,0.10602c1.26736,0.03552 1.95328,0.05154 3.4375,0.3125c0.83328,0.14651 1.70685,0.38065 2.616,0.64349c0.93906,0.27151 1.88583,0.58023 2.832,0.90451c0.93787,0.32144 1.84979,0.64978 3.552,1.28531c0.77216,0.2883 1.49115,0.56271 2.16599,0.82352c0.63983,0.24728 1.25116,0.48776 1.84201,0.72449c0.57983,0.23233 1.15561,0.46576 2.32535,0.952c0.60947,0.25333 1.23203,0.51596 1.86298,0.78152c0.63306,0.26642 1.2616,0.53195 1.88101,0.7905c1.1832,0.49387 2.25412,0.93283 3.17599,1.28934c0.75848,0.2933 1.58331,0.63397 2.37167,1.08182c0.86188,0.48959 1.52792,0.73874 2.22299,1.03949c0.64886,0.28073 1.22668,0.85092 0.47067,0.85068c-1.09082,-0.00034 -1.60287,0.00256 -2.18051,-0.01801c-1.32642,-0.04721 -2.06085,-0.11438 -2.83133,-0.21066c-0.80444,-0.10052 -2.47733,-0.42346 -3.32834,-0.65701c-0.86801,-0.23822 -1.73779,-0.52786 -2.61447,-0.83698c-0.88708,-0.31281 -1.77417,-0.64938 -2.66852,-0.98102c-0.8963,-0.33237 -2.69296,-0.97092 -3.59515,-1.25333c-0.89523,-0.28024 -1.7901,-0.53326 -2.67902,-0.771c-0.87845,-0.23492 -1.74902,-0.45187 -2.60699,-0.66299c-0.84335,-0.20752 -2.48154,-0.60684 -3.27133,-0.80902c-0.77289,-0.19785 -1.52908,-0.39844 -2.271,-0.59998c-0.73077,-0.19849 -1.4509,-0.39923 -2.16299,-0.60001c-0.70654,-0.19922 -2.10895,-0.60022 -2.8075,-0.7995c-0.68945,-0.19669 -1.36075,-0.38791 -2.00552,-0.56851c-0.60825,-0.17038 -1.17142,-0.3262 -1.68149,-0.46048c-0.44601,-0.11743 -1.26688,-0.25894 -1.17316,-0.05286c0.3631,0.7984 1.49731,0.70801 2.392,1.11469c0.60248,0.27383 1.2999,0.59085 2.07748,0.94348c0.84241,0.38202 1.73483,0.7861 2.66251,1.2045c0.94733,0.42728 1.89886,0.85724 3.76001,1.68533c0.87961,0.39139 1.72119,0.76166 2.52448,1.1145c0.76605,0.33649 1.49652,0.65594 2.19153,0.96152c0.66135,0.29077 1.29129,0.56491 2.45065,1.09067c0.53607,0.2431 1.04254,0.47882 1.5195,0.7095c0.45233,0.21878 1.28946,0.62421 2.00583,1.05582c0.9494,0.57202 1.71191,1.14758 2.25134,1.68701c0.6366,0.6366 -0.27667,0.38098 -0.99667,0.14099c-0.95999,-0.32001 -1.53,-0.51001 -2.16,-0.72c-0.69,-0.23001 -1.44012,-0.47968 -3.12,-1.04001c-0.92822,-0.30963 -1.90649,-0.63528 -2.9205,-0.9855c-1.04337,-0.36038 -2.10303,-0.73651 -3.16351,-1.13849c-1.05988,-0.40173 -2.11514,-0.79144 -4.08264,-1.70932c-0.93399,-0.43573 -1.80606,-0.90491 -2.62952,-1.3725c-0.78577,-0.4462 -1.5181,-0.89554 -2.20648,-1.32751c-0.64786,-0.40652 -1.23993,-0.80872 -2.33069,-1.46667c-0.47595,-0.28711 -0.91696,-0.52863 -1.31998,-0.729c-0.35739,-0.17767 -0.67761,-0.31897 -0.96002,-0.42297c-0.2381,-0.08771 -0.74576,0.15952 -0.10083,0.71399c0.79849,0.68652 1.51471,1.21652 1.92618,1.55798c0.45599,0.37839 0.95139,0.79764 1.48199,1.26001c0.57089,0.49747 1.80875,1.61707 2.46967,2.23868c0.68854,0.64761 1.38782,1.32278 2.091,2.01599c0.70618,0.69614 1.40005,1.39468 2.073,2.08801c0.65231,0.67209 1.84259,1.94077 2.36401,2.52365c0.4783,0.5347 0.90326,1.02863 1.27499,1.479c0.32788,0.39728 1.58078,1.25708 1.07465,1.61334c-0.79822,0.56186 -1.32959,-1.22098 -2.37466,-2.00534c-0.4386,-0.32919 -0.94965,-0.71252 -1.5195,-1.15201c-0.62628,-0.483 -1.29651,-1.01035 -1.99649,-1.58398c-0.73318,-0.60086 -1.49573,-1.22107 -2.98401,-2.59735c-0.75482,-0.698 -1.48117,-1.42688 -2.19598,-2.15848c-0.70651,-0.72311 -1.38766,-1.44534 -2.052,-2.14951c-0.64301,-0.68155 -1.24744,-1.34833 -2.41867,-2.52533c-0.52914,-0.53174 -1.03754,-1.00977 -1.52399,-1.43851c-0.45261,-0.39893 -0.88803,-0.7551 -1.30801,-1.06949c-0.3931,-0.29428 -0.76532,-0.57047 -1.50134,-0.992c-0.66458,-0.38065 -1.56281,-1.2323 -2.58167,-0.99051c-0.7428,0.17627 -1.401,0.60001 -2.08499,0.63632l-0.996,0.0195" id="svg_5" stroke-width="2" stroke="#000" fill="none"/>
  <path t="7029,7241,7275,7292,7292,7292,7293,7293,7293,7293,7308,7309,7309,7309,7309,7309,7309,7309,7326,7326,7326,7326,7326,7326,7326,7327,7327,7359,7359,7359,7359,7359,7359,7360,7375,7376,7376,7376,7376,7376,7392,7409,7410,7410,7458,7475,7475,7507,7508,7508,7509,7509,7509,7509,7510,7525,7526,7526,7526,7526,7527,7527,7527,7559,7560,7561,7561,7561,7561,7561,7562,7562,7567,7567,7568,7568,7568,7568,7568,7568,7569,7575,7575,7576,7576,7576,7610,7625,7642,7643,7643,7643,7644,7644,7644,7677,7677,7678,7678,7678,7678,7678,7679,7679,7692,7692,7693,7693,7693,7694,7694,7694,7695,7728,7728,7729,7729,7730,7730,7730,7731,7731,7743,7744,7745,7760,7794,7801,7801,7802,7802,7802,7803,7803,7803,7809,7809,7810,7810,7810,7811,7811,7811,7812,7844,7846,7846,7847,7847,7848,7848,7849,7850,7863,7864,7864,7864,7865,7865,7865,7866,7866,7875,7876,7876,7876,7877,7877,7894,7926,7927,7942,7943,7944,7944,7945,7945,7946,7946,7947,7959,7960,7960,7961,7961,7962,7962,7963,7963,7976,7978,7978,7979,7979,7980,7980,8024,8041,8042,8074,8075,8076,8076,8077,8078,8078,8079,8092,8093,8093,8094,8096,8097,8097,8099,8101" d="m311,343c0,8.13284 0.25415,8.15085 1.16666,8.66666c0.8313,0.46991 1.3287,0.75806 1.87466,1.06668c0.58334,0.32974 1.83191,1.02951 2.48267,1.38666c1.30716,0.71738 1.9541,1.05978 2.59201,1.396c0.63077,0.33243 1.25867,0.65866 1.884,0.98401c0.62534,0.32535 1.88647,0.97937 3.16666,1.66666c0.65594,0.35214 1.31711,0.71646 1.98602,1.08151c0.67242,0.36694 1.34589,0.7337 2.02197,1.09048c0.67123,0.35422 1.33292,0.70978 2.65869,1.328c0.64117,0.29898 1.90784,0.82324 2.53067,1.06134c0.61356,0.23456 1.22412,0.45413 1.83148,0.66299c1.80099,0.61929 2.40353,0.80756 2.99384,1.00635c1.12607,0.37918 1.65494,0.5321 2.55334,0.88834c1.10098,0.43655 1.60486,0.94385 2.44531,1.13965c0.66919,0.15588 1.87894,0.47968 1.70535,0.57468c-0.655,0.35846 -1.56,0.00198 -2.74002,-0.00134c-0.70248,-0.00198 -1.46002,-0.00708 -2.25748,-0.0195c-0.82254,-0.01282 -1.65527,-0.02911 -2.48251,-0.06448c-1.58063,-0.06757 -2.30777,-0.12906 -2.996,-0.20267c-0.66379,-0.07101 -1.31512,-0.15189 -2.616,-0.39468c-0.68076,-0.12704 -1.39337,-0.28336 -2.96799,-0.65067c-0.88379,-0.20618 -1.82431,-0.43475 -2.811,-0.67648c-1.0213,-0.25021 -2.0643,-0.50986 -3.117,-0.77551c-1.0513,-0.26532 -2.08908,-0.52789 -4.07199,-1.048c-0.92551,-0.24277 -1.79965,-0.4787 -2.625,-0.69598c-0.77469,-0.20395 -1.49881,-0.39233 -2.17502,-0.552c-0.62393,-0.14731 -1.19495,-0.29761 -2.19998,-0.41867c-0.4238,-0.05106 -0.80374,-0.06219 -1.134,-0.03299c-0.5358,0.04739 -1.01431,0.4519 -0.30368,0.76166c0.81287,0.35431 1.60168,0.91241 2.10901,1.19101c0.55655,0.30563 1.15353,0.63913 2.48401,1.284c0.70166,0.34009 2.17514,0.97043 2.93317,1.25415c0.76337,0.28571 1.5448,0.54898 2.33548,0.82352c0.80566,0.27975 1.62903,0.56778 2.46152,0.89548c0.85706,0.33737 2.62143,1.14346 3.52298,1.62985c0.92682,0.50003 1.84552,1.04944 2.75552,1.62c0.90302,0.56619 1.77417,1.14346 2.61148,1.70999c0.79858,0.54028 2.22385,1.53094 2.84067,1.95569c0.55258,0.38049 1.04883,0.7196 1.4985,1.017c0.40479,0.26773 0.77515,0.50494 1.12051,0.711c0.32016,0.19104 0.92566,0.52576 1.52615,0.793c0.81445,0.36246 1.75974,0.80215 1.25949,0.88666c-1.1709,0.19781 -1.62659,0.01175 -2.716,-0.01801c-0.63705,-0.0174 -1.32654,-0.05554 -2.05948,-0.12601c-0.77292,-0.07431 -1.58499,-0.14825 -3.24533,-0.52264c-0.86063,-0.19406 -1.72018,-0.4624 -2.58151,-0.76202c-0.87088,-0.30295 -1.73447,-0.64642 -2.59048,-1.01398c-0.85507,-0.36716 -1.69852,-0.74939 -3.328,-1.55734c-0.79373,-0.39355 -1.56522,-0.7977 -2.32352,-1.20001c-0.74969,-0.39774 -1.4892,-0.79956 -2.22449,-1.19998c-0.73373,-0.39957 -1.46515,-0.80536 -2.952,-1.60001c-0.75256,-0.40222 -1.51102,-0.79794 -2.26801,-1.18649c-0.74704,-0.38342 -1.48096,-0.75311 -2.19601,-1.1055c-0.68698,-0.33856 -1.33978,-0.66116 -2.53598,-1.20801c-0.52319,-0.2392 -0.99878,-0.44427 -1.42502,-0.61951c-0.37396,-0.15375 -1.29773,-0.43845 -1.22699,-0.29517c0.42139,0.85349 1.58417,0.92508 2.31866,1.41467c0.49329,0.32883 1.0661,0.71088 1.70551,1.14301c0.69803,0.47174 1.44202,0.97958 2.21851,1.521c0.80389,0.56052 1.62732,1.13046 3.24265,2.336c0.79465,0.59305 1.56107,1.19269 2.30103,1.79099c0.72131,0.58319 1.41135,1.16272 2.06699,1.73703c0.63156,0.55322 1.23636,1.08594 2.29868,2.13864c0.48697,0.48254 0.92407,0.95233 1.31998,1.39651c0.3638,0.40814 0.69818,0.77689 1.20001,1.44199c0.58231,0.77176 0.08276,0.40945 -0.36533,-0.18784c-0.81702,-1.08911 -1.19937,-1.59885 -1.6355,-2.16565c-0.47705,-0.62 -0.99432,-1.27994 -1.55252,-1.965c-0.57999,-0.71176 -1.17209,-1.44592 -2.46664,-2.85333c-0.64423,-0.70041 -1.31436,-1.36838 -1.98602,-2.02802c-0.66971,-0.65771 -1.34732,-1.30533 -2.02197,-1.95599l-0.67267,-0.65466l-0.66867,-0.66266" id="svg_6" stroke-width="2" stroke="#000" fill="none"/>
  <path t="8620,8791,8791,8791,8791,8827,8842,8842,8842,8859,8928,8944,8944,8944,8944,8944,8976,8994,8995,8995,9010,9011,9011,9026,9059,9077,9077,9077,9092,9092,9109,9109,9109,9109,9143,9159,9176,9176,9176,9176,9176,9177,9177,9192,9193,9193,9193,9194,9227,9227,9227,9228,9242,9242,9243,9244,9276,9277,9281,9311,9311,9311,9312,9326,9326,9336,9343,9343,9358,9358,9359,9359,9359,9392,9392,9393,9393,9428,9429,9429,9429,9429,9430,9436,9437,9437,9437,9437,9438,9457,9458,9458,9476,9476,9492,9493,9493,9494,9501,9502,9510,9510,9511,9511,9511,9527,9527,9528,9528,9529,9529,9559,9560,9560,9561,9561,9575,9576,9576,9577,9594,9642,9643,9644,9644,9659,9660,9678,9679,9679,9679,9709,9710,9710,9710,9725,9759,9793,9793,9794,9794,9794,9825,9826,9826,9827,9833,9842,9876,9877,9877,9893,9909,9910,9910,9910,9911,9911,9926,9927,9927,9928" d="m303,176c5.93484,6.592 6.31934,6.99225 7.04935,7.588c0.78839,0.6434 1.55344,0.66219 2.45465,0.49733c0.63928,-0.11694 2.53555,0.89305 2.66718,-0.08533c0.05359,-0.39836 -1.17117,-0.5 -1.8725,-0.85066c-0.82935,-0.41467 -1.67023,-0.8465 -2.06833,-1.03416c-1.09372,-0.51559 -0.49585,0.19995 -0.34467,0.89915c0.17169,0.79399 0.11432,1.98567 0.11432,2.86317c0,0.74249 -0.47214,0.67 0.14401,0.14383c0.75452,-0.64435 1.55734,-0.01297 2.44531,-0.02133c1.19565,-0.01126 1.66507,-0.42442 2.26135,-1.41867c0.41727,-0.69576 0.90427,-1.38478 1.21198,-2.07599c0.35791,-0.80402 -0.34174,-0.61919 -1.396,-1.00534c-0.94559,-0.34634 -1.50464,-0.5574 -2.112,-0.76534c-0.6366,-0.21794 -1.28467,-0.46538 -2.62399,-0.79733c-1.2547,-0.31099 -1.84351,-0.42538 -2.89301,-0.39966c-0.91656,0.02248 -1.7598,0.19829 -2.70432,0.79565c-0.60052,0.37979 -1.1199,0.88953 -1.61002,1.77567c-0.47073,0.8511 -0.63223,1.78865 -0.68167,2.39101c-0.0737,0.89781 -0.05145,2.0934 -0.04166,2.89583c0.009,0.73651 0.67874,0.21996 1.42416,0.42384c0.65189,0.17831 1.31305,0.56589 2.75385,0.93733c0.64291,0.16574 1.65848,0.78802 2.56598,0.235c0.4812,-0.29323 0.25931,-1.70006 0.24533,-2.576c-0.00763,-0.47855 -0.03607,-1.4722 -0.07465,-1.968c-0.10782,-1.38623 -0.23904,-2.19904 -0.51883,-2.90633c-0.27966,-0.70691 -1.04178,-1.72844 -1.73718,-2.42433c-0.37643,-0.37671 -1.23712,-1.10283 -1.70132,-1.45601c-0.47049,-0.35797 -1.95081,-1.33955 -2.457,-1.61783c-0.97922,-0.53831 -1.46793,-0.76886 -2.42834,-1.11417c-0.45288,-0.16283 -1.73932,-0.5132 -2.83966,-0.46234c-0.61124,0.02826 -1.61566,0.41869 -1.76834,1.129c-0.20721,0.96404 -0.57581,1.89026 -0.76532,2.42401c-0.19989,0.5629 -0.60455,1.73537 -0.76266,2.33333c-0.30109,1.13875 -0.46027,2.19467 -0.33868,3.11734c0.05676,0.43089 0.28439,1.31764 1.23602,2.196c0.7114,0.65662 1.22717,0.84572 2.22916,1.22916c0.51132,0.19568 1.56656,0.50017 2.60416,0.60417c0.95895,0.09612 1.86313,0.01682 2.71201,-0.09599c0.82059,-0.10904 2.01971,-0.29527 2.80334,-0.34685c0.73395,-0.04831 1.57632,0.58615 2.58932,-0.05716c0.77859,-0.49446 0.51266,-1.42 0.65399,-2.12666c0.14935,-0.74667 0.79135,-2.12129 0.42001,-2.92801c-0.39798,-0.86459 -1.25912,-1.02267 -1.92868,-1.4245c-0.71957,-0.43184 -1.90942,-0.91376 -2.70999,-0.98083c-0.75073,-0.0629 -2.64056,-0.83829 -2.63733,0.42401c0.00192,0.74593 1.53308,0.70854 2.21201,1.09399c0.79636,0.4521 1.21716,0.70869 2.13998,1.09c1.33191,0.55034 1.77731,0.65181 2.93283,0.78951c0.8287,0.09875 0.47034,0.29259 0.1485,-0.27884c-0.52475,-0.9317 0.04553,-1.66 -0.00266,-2.52266c-0.06259,-1.12041 -0.99802,-1.64001 -1.70801,-1.98666c-0.42032,-0.20522 -1.35037,-0.63855 -1.84799,-0.83734c-0.98822,-0.39476 -2.37918,-0.72549 -3.16351,-0.76984l-0.67633,0.10367l-0.8295,0.41551" id="svg_7" stroke-width="2" stroke="#000" fill="none"/>
 </g>
 <g display="none">
  <title>muse_image</title>
  <image xlink:href="http://farm4.static.flickr.com/3190/2832559200_1c4cbe80b3.jpg" id="muse" height="480" width="427" y="0" x="106.5"/>
 </g>
 <g display="none">
  <title>bbox</title>
  <rect stroke="#f00" fill="none" stroke-width="3" height="296.64" width="261.9573" y="98.88" x="166.95169" id="bbox"/>
 </g>
</svg>
