<svg width="640" height="480" xmlns="http://www.w3.org/2000/svg" xmlns:svg="http://www.w3.org/2000/svg" xmlns:xlink="http://www.w3.org/1999/xlink">
 <!-- Sketchy ANNOTATION
  ImageNet ID: n01532829_1097
  URL: http://farm4.static.flickr.com/3253/2658796793_0bdaf58c24.jpg
  Image Width: 438
  Image Height: 500
  BBox X: 91
  BBox Y: 78
  BBox Width: 331
  BBox Height: 368
  Exposure: 2000ms
  Synset Label: songbird
  Synset ID: n01526521
  Worker Tag: Bird
  Sanity Check: 
   Saved
  Comment: 
   {}
  Worker ID: AIH9VLD92GHFH
  Assignment ID: 31T4R4OBOSG3OOPOPBHSZEOAQ537CB
  HIT ID: 3FCO4VKOZ4DGY2B8V0IL0ITS7M27EM
  Work Time: 43s
  Worker Score: 0.5119
 END ANNOTATION -->
 <g display="inline">
  <title>Layer 1</title>
  <path t="0,178,180,180,193,194,194,208,208,209,226,233,233,233,245,245,245,245,245,260,260,260,261,276,276,277,277,277,293,294,294,294,294,309,310,310,310,310,310,326,326,326,326,327,343,343,344,359,364,364,393,393,393,426,427,459,476,476,493,493,493,509,509,509,510,510,526,526,526,526,543,543,544,544,544,559,560,560,560,560,576,576,576,577,577,593,594,594,595,595,609,610,610,626,626,627,627,643,643,644,644,644,659,660,660,660,676,677,677,678,693,694,694,709,710,710,730,731" d="m187,121c-4.51466,0 -5.164,0 -6.0955,0c-1.20433,0 -1.79999,0 -2.6685,0c-1.06932,0 -2.02133,0 -2.74582,0c-1.13318,0 -1.8045,0 -2.53185,0c-0.76733,0 -1.95839,-0.008 -2.75833,0.00267c-0.80016,0.01067 -1.60594,0.0294 -2.39999,0.168c-1.21211,0.21157 -2,0.53466 -2.8,0.82933c-0.8,0.29467 -1.99489,0.69395 -2.8,0.83067c-0.79587,0.13514 -1.60112,0.17187 -2.39999,0.252c-1.2023,0.1206 -2.00955,0.2717 -2.42134,0.35333c-0.85184,0.16887 -1.74799,0.37199 -2.71199,0.564c-1.03326,0.20581 -1.57083,0.30262 -2.66667,0.47916c-0.54877,0.08841 -1.63049,0.24944 -2.66667,0.35417c-0.95877,0.09691 -1.84235,0.13036 -2.64,0.228c-0.72266,0.08846 -1.92995,0.49651 -2.6725,0.93867c-0.70932,0.42237 -1.43471,0.79557 -2.25682,0.93867c-0.86243,0.15012 -2.06647,0.27066 -2.65501,0.414c-0.84134,0.20491 -2.1301,0.19149 -2.74283,0.7c-0.59378,0.49278 -0.11418,1.69366 0.45267,2.23749c0.62192,0.59665 1.46355,0.65089 2.34734,0.75801c1.00018,0.12122 1.72229,0.22258 2.85466,0.47266c0.78598,0.17357 1.18137,0.27707 2.37917,0.57935c0.80058,0.20204 1.6051,0.40407 2.40001,0.657c1.20825,0.38445 2.00145,0.72345 2.8,1.06816c0.80145,0.34596 1.18933,0.54922 2.39999,1.008c0.79341,0.30066 1.60115,0.5377 2.39999,0.79201c0.80116,0.25504 2.00394,0.68694 2.8,1.03183c0.40205,0.17419 1.20164,0.55013 2,0.94417c1.20235,0.59343 1.99484,0.99553 2.38934,1.188c0.77336,0.37732 1.52225,0.73254 2.924,1.328c0.63861,0.27129 1.3029,0.4521 2.31999,1.21599c0.52017,0.39067 1.16182,1.19345 1.6765,1.66133c0.7865,0.71497 1.45396,1.0497 2.1515,1.35468c0.71852,0.31416 1.48984,0.56017 2.51717,1.19333c0.68919,0.42476 1.28732,0.97444 1.91701,1.452c1.18021,0.89507 1.79315,1.20615 2.38367,1.46367c0.82648,0.36043 1.85463,0.71057 2.52083,1.08334c0.70461,0.39427 1.68266,1.22499 2.21466,1.69833l0.524,0.47333l0.92801,0.78667l0.65067,0.40266" id="svg_1" stroke-width="2" stroke="#000" fill="none"/>
  <path t="1089,1209,1209,1209,1226,1227,1227,1227,1227,1243,1243,1243,1244,1259,1259,1259,1259,1260,1276,1276,1276,1276,1293,1293,1293,1293,1293,1309,1309,1309,1309,1325,1326,1326,1326,1343,1343,1359,1359" d="m143,133c2.056,-0.91467 3.06238,-0.98592 3.81351,-0.9955c1.1864,-0.01515 1.9865,-0.0045 2.7865,-0.0045c0.79999,0 1.59999,-0.00316 2.79999,0.00017c0.80002,0.00223 1.60104,0.00243 2.40001,0.05699c1.20218,0.08211 2.00069,0.22298 2.8,0.36818c0.8007,0.14546 1.59602,0.32332 2.79999,0.45316c0.79796,0.08606 1.5999,0.10735 2.40001,0.117c1.19992,0.0145 2,0.0045 2.8,0.0045c0.79999,0 1.59999,0 2.79982,0c0.79567,0 1.57935,0 2.343,0c1.0905,0 1.77051,0 2.7155,0c0.85501,0 1.85634,0 2.731,0l1.0105,0l0.77934,0" id="svg_2" stroke-width="2" stroke="#000" fill="none"/>
  <path t="1696,1908,1909,1926,1927,1927,1943,1943,1960,1975,1976,1976,1992,1993,2008,2025,2042,2043,2058,2108,2109,2125,2126,2142,2158,2175,2175,2193,2193,2208,2209,2225,2226,2242,2243,2258,2259,2276,2276,2293,2309,2309,2309,2325,2326,2326,2343,2343,2343,2359,2359,2375,2376,2393,2393,2408,2409,2409,2425,2426,2442,2443,2458,2459,2475,2476,2492,2493,2508,2509,2525,2526,2542,2543,2558,2559,2559,2575,2576,2592,2593,2593,2608,2625,2625,2626,2626,2642,2658,2659,2675,2676,2693,2694,2708,2709,2725,2742,2743,2758,2759,2793,2793,2809,2809,2825,2842,2843,2858,2859,2875,2876,2892,2909,2909,2925,2926,2943,2944,2944,2967,2975,2992,2993,3008,3009,3025,3026" d="m184,127c3.66267,-6.68933 3.88362,-7.46987 4.5,-8.16666c0.49028,-0.55424 1.32312,-0.9065 2,-1.66667c0.60422,-0.67857 0.96803,-1.55446 1.5,-2.33333c0.43777,-0.64096 0.83936,-1.39903 1.48267,-1.94801c0.61594,-0.52561 1.41878,-1.17223 1.94267,-1.87067c0.53362,-0.71142 0.68607,-1.42112 1.29066,-2.09733c0.6478,-0.72453 1.35028,-0.77261 2.2625,-1.13867c0.774,-0.3106 1.63963,-0.81035 1.97333,-1.48399c0.45909,-0.9268 1.1071,-1.15519 2.02684,-1.51601c0.686,-0.26912 1.50937,-0.67801 2.23199,-0.80399c0.99341,-0.1732 1.75923,-0.50011 2.76784,-0.8535c0.71091,-0.24909 1.20451,-0.94312 1.90683,-1.55317c0.67297,-0.58457 1.63068,-0.56667 2.5,-0.568c0.948,-0.00146 1.8793,0.0287 2.6665,-0.05717c1.03374,-0.11275 1.71237,-0.40316 2.40083,-0.59016c1.21471,-0.32994 2.02632,-0.34106 2.778,-0.35133c0.96391,-0.01317 1.73734,-0.00134 2.77467,-0.00134c0.74399,0 1.85199,0 2.64532,0c0.892,0 1.60001,0 2.58133,0c0.96268,0 1.73601,0 2.77335,0c0.74399,0 1.85182,-0.00058 2.60933,0c0.87067,0.00067 1.80544,-0.00287 2.78532,0.284c0.61201,0.17917 1.5932,0.60072 2.38934,0.68c1.03947,0.10352 1.84618,0.0591 2.51967,0.74133c0.54539,0.55247 1.22487,1.09387 2.19099,1.27383c0.72678,0.13538 1.68163,0.40154 2.468,0.82217c0.78764,0.4213 1.52383,0.70493 2.26399,0.91334c1.10663,0.3116 2.11351,0.59785 2.76884,0.99516c0.48788,0.2958 1.06459,0.89117 1.92316,1.6435c0.68254,0.59809 1.68524,0.32925 2.576,0.81333c0.70816,0.38485 0.82001,1.50586 1.2045,2.18067c0.45181,0.79301 0.74677,1.63592 1.40533,2.29549c0.5867,0.58759 1.53836,0.51184 2.12851,1.41967c0.41714,0.64166 0.55283,1.61369 0.78699,2.55217c0.21957,0.88002 0.66968,1.52483 0.88934,2.5c0.19547,0.86769 -0.01746,1.64951 0.10666,2.71066c0.08209,0.70184 0.77127,1.31897 1.41068,1.97334c0.62454,0.63915 0.51962,1.69076 0.604,2.412c0.11697,0.99972 0.54382,1.76617 0.79733,2.78933c0.19241,0.7766 0.16599,1.51466 0.16666,2.47917c0.00064,0.93149 0,1.84216 0,2.6955c0,0.94133 0,1.70934 -0.01068,2.66133l-0.07465,0.76534" id="svg_3" stroke-width="2" stroke="#000" fill="none"/>
  <path t="3296,3492,3492,3492,3508,3509,3525,3525,3525,3525,3542,3543,3543,3558,3559,3559,3575,3575,3575,3592,3592,3592,3608,3608,3625,3625,3642,3675,3692,3693,3708,3708,3725,3742,3742,3742,3758,3758,3758,3777,3777,3777,3793,3793,3793,3808,3809,3809,3825,3825,3925,3942,3958,3958,3975,3975,3992,4008,4009,4025,4025,4042,4042,4058,4058,4075,4076,4076,4108,4108,4125,4125" d="m213,132c-7.02783,5.71384 -7.84348,6.30031 -7.90683,7.32483c-0.05016,0.81099 0.76633,1.38602 1.67116,1.55383c0.9222,0.17104 1.6338,0.12456 2.35434,0.20534c1.40147,0.15714 2.04199,0.35588 2.97684,0.56334c0.90149,0.20006 1.79918,0.31441 2.6685,0.342c1.06883,0.03392 1.78333,0.01067 2.68866,0.01067c0.96851,0 1.76199,0 2.53751,0c1.0405,0 1.89409,0.04539 2.83516,-0.01067c0.69347,-0.04131 1.83647,-0.41638 2.11751,-1.29384c0.26357,-0.82288 0.10767,-1.69681 0.05699,-2.674c-0.04271,-0.82346 -0.51752,-1.63626 -1.54283,-1.89999c-0.71086,-0.18285 -1.56598,-0.11925 -2.457,-0.12151c-0.89549,-0.00226 -1.76401,0 -2.83333,0c-0.714,0 -1.61934,0 -2.58817,0c-0.8145,0 -1.68301,0 -2.57851,0c-0.89101,0 -1.728,0 -2.85699,0c-0.72166,0 -1.67101,0 -1.16968,0c1.03201,0 1.776,0 2.69334,0c0.912,0 1.85493,-0.03482 2.6545,0.00034c0.81985,0.03604 1.61383,0.7083 1.66983,1.40866c0.07898,0.98788 0.009,1.791 0.009,2.791c0,0.8 0,1.8 0,2.60001c0,0.8 0,1.8 0,2.59999l0,0.99867l0,0.76534" id="svg_4" stroke-width="2" stroke="#000" fill="none"/>
  <path t="4460,4642,4642,4658,4675,4675,4675,4692,4692,4708,4709,4725,4725,4742,4742,4742,4758,4758,4775,4775,4792,4792,4842" d="m180,158c4.57333,5.77333 4.97333,6.54544 5,7.42134c0.02777,0.91156 -0.00128,1.584 0,2.57332c0.00134,1.03601 0.06146,1.78885 0.56799,2.48933c0.52899,0.73155 1.29123,1.46976 1.41068,2.17734c0.18448,1.09277 -0.00383,1.86456 0.10666,2.65601c0.14061,1.00716 0.4929,1.63953 0.748,2.68266c0.19005,0.77718 0.16667,1.83333 0.16667,2.6955l0,0.82533" id="svg_5" stroke-width="2" stroke="#000" fill="none"/>
  <path t="5195,5292,5293,5293,5293,5308,5308,5308,5308,5308,5325,5325,5325,5325,5342,5342,5343,5344,5358,5358,5358,5358" d="m180,165c2.6355,8.57117 2.84207,9.55972 2.892,9.99466c0.12994,1.132 0.108,2.17201 0.108,2.89067c0,0.75067 -0.00006,1.52533 0,2.31601c0.00009,1.19849 -0.00597,1.99445 0.02083,2.77783c0.02612,0.76407 0.19112,2.2014 0.33183,2.86816c0.13815,0.65466 0.36334,1.63666 0.526,2.67383l0.06866,0.72701l0.05267,0.731l0.084,1.0515" id="svg_6" stroke-width="2" stroke="#000" fill="none"/>
  <path t="5744,5925,5925,5925,5942,5942,5942,5942,5958,5958,5958,5975,5975,5975,5992,5992,6024,6024,6024,6024,6033,6033,6033,6042,6042,6042,6058,6058,6075,6075,6091,6092,6108,6108,6125,6125,6142,6158,6158,6158,6174,6175,6192,6208,6209,6242,6242,6258,6259" d="m258,140c6.37134,5.71384 6.94812,6.3826 7.41666,6.89583c0.884,0.96837 1.59018,1.36455 2.125,1.58334c0.85001,0.34775 1.76617,0.59894 2.64767,0.93149c0.86188,0.32515 1.66925,0.7213 2.349,1.242c0.64038,0.49054 1.39865,1.37534 1.98251,1.82651c0.76367,0.59012 1.49606,0.81914 2.30048,1.15683c0.58325,0.24486 1.78165,0.84067 2.36801,1.18933c0.85995,0.51134 1.63766,1.0192 2.35352,1.4175c0.64096,0.35663 1.64597,0.88054 2.43631,1.23634c0.8432,0.37959 1.68573,0.50754 2.32535,1.23067c0.52045,0.58839 1.17059,1.41777 1.6955,1.76933c0.96274,0.64481 1.58054,1.1024 2.41068,1.50616c0.74841,0.36401 1.42142,0.86893 1.93665,1.3665c0.77765,0.75096 1.44269,1.3858 2.28867,1.67349c0.84012,0.28571 1.53867,0.62134 2.34235,1.29601l0.48001,0.67867l0.375,0.83333l0.21933,0.80501" id="svg_7" stroke-width="2" stroke="#000" fill="none"/>
  <path t="6615,6724,6725,6725,6725,6742,6742,6742,6742,6758,6758,6758,6758,6774,6774,6775,6775,6775,6791,6792,6792,6792,6792,6808,6808,6808,6808,6808,6824,6825,6825,6825,6825,6841,6842,6842,6842,6842,6842,6858,6858,6858,6858,6859,6859,6874,6875,6875,6875,6875,6875,6875,6891,6892,6892,6892,6892,6892,6907,6908,6908,6908,6908,6908,6925,6925,6925,6925,6925,6925,6925,6942,6942,6942,6942,6943,6943,6943,6958,6958,6958,6959,6959,6959,6960,6975,6975,6975,6975,6976,6976,6976,6976,6976,6991,6992,6992,6992,6992,6993,6993,6993,7007,7008,7008,7008,7008,7009,7009,7009,7025,7025,7025,7026,7026,7026,7026,7041,7042,7042,7042,7043,7043,7043,7043,7058,7058,7058,7059,7059,7059,7059,7060,7060,7074,7075,7075,7075,7076,7076,7076,7076,7076,7091,7092,7092,7092,7093,7093,7093,7093,7094,7108,7108,7109,7109,7109,7109,7110,7110,7110,7124,7125,7125,7126,7126,7126,7126,7126,7127,7141,7142,7142,7142,7143,7143,7143,7143,7144,7157,7158,7158,7159,7159,7159,7160,7160,7160,7174,7175,7175,7175,7176,7177,7177,7177,7177,7192,7192,7193,7193,7193,7193,7194,7194,7194,7209,7209,7209,7209,7209,7210,7210,7210,7210,7224,7225,7226,7226,7226,7226,7226,7227,7227,7241,7242,7242,7243,7243,7243,7244,7244,7244,7258,7258,7259,7259,7259,7260,7260,7260,7260,7274,7275,7275,7276,7276" d="m184,181c-2.6355,5.05716 -2.91573,6.13643 -2.968,6.81467c-0.05138,0.66661 -0.032,2.07066 -0.032,2.82133c0,0.77466 0,1.56534 0,2.76399c0,0.8 0,1.60001 0,2.40001c0,1.2 -0.01331,2.00053 0.02133,2.8c0.0347,0.80084 0.09024,1.61494 0.42151,2.79999c0.22705,0.81224 0.57735,1.60027 0.74249,2c0.33072,0.80054 0.79707,1.99896 1.0665,2.8045c0.27263,0.81512 0.54761,1.65668 0.7175,2.08084c0.54057,1.34958 1.03485,2.26793 1.28134,2.73999c0.49634,0.95056 0.7767,1.4066 1.416,2.808c0.20107,0.44075 0.528,1.31401 0.83333,2.16667c0.30533,0.85266 0.43645,1.298 1.04283,2.62167c0.21541,0.47023 0.71921,1.42462 0.978,1.92c0.53246,1.01924 0.81685,1.53551 1.3125,2.625c0.50351,1.10675 0.7141,1.68146 0.94135,2.248c0.45082,1.12392 0.66573,1.68091 0.90933,2.21599c0.70247,1.54294 0.9883,2.00804 1.55199,2.908c0.27846,0.44456 0.87025,1.3083 1.16534,1.744c0.90419,1.33505 1.19797,1.80264 1.80933,2.74266c0.30914,0.47534 0.60896,0.96085 1.27467,1.89067c0.66519,0.92911 1.39754,1.80334 1.77634,2.23134c0.3812,0.43071 1.18346,1.27951 1.59999,1.70532c0.42343,0.43288 1.75967,1.76868 2.22234,2.23134c0.46867,0.46867 0.94133,0.94133 1.416,1.416c0.94733,0.94733 1.41617,1.41583 2.33333,2.33333c0.44543,0.4456 1.31602,1.32106 1.74133,1.76266c0.42737,0.44374 1.28362,1.36609 1.70934,1.85867c0.89461,1.03514 1.33937,1.60786 1.80133,2.19733c0.47375,0.60451 0.94911,1.22522 1.4355,1.84801c0.48828,0.62521 0.97539,1.24889 1.4805,1.84799c0.98274,1.16562 1.48209,1.70483 2.50317,2.685c0.49814,0.47818 1.01358,0.92856 1.53149,1.371c0.51843,0.4429 1.04994,0.87659 2.13068,1.76266c1.11797,0.9166 1.68608,1.38589 2.25867,1.85867c0.57475,0.47455 1.14915,0.94955 1.722,1.422c0.5685,0.46887 1.68558,1.38654 2.23116,1.83118c0.53577,0.43665 1.58528,1.28577 2.10068,1.70065c0.50993,0.41046 1.0159,0.81686 2.52083,2.02084c0.5002,0.40018 1.00076,0.8024 1.509,1.20001c1.02884,0.8049 1.56059,1.20328 2.10533,1.59998c0.55391,0.40338 1.71643,1.20395 2.32883,1.60019c0.62625,0.40521 1.27441,0.80637 1.9395,1.21048c0.67857,0.41229 1.37453,0.82562 2.08351,1.24652c0.72166,0.42844 2.20119,1.30835 2.95515,1.76416c0.76338,0.46152 1.53151,0.93106 2.304,1.40399c0.77484,0.4744 1.549,0.94992 2.32201,1.422c0.76831,0.46924 2.28506,1.3876 3.03134,1.83118c0.7364,0.43771 1.46761,0.86615 2.196,1.28549c0.72429,0.41699 1.44957,0.82733 2.17799,1.23151c0.73022,0.40515 2.21323,1.20593 2.96851,1.60449c0.76074,0.40143 1.52722,0.79962 2.29349,1.20001c0.76471,0.3996 1.52527,0.79767 2.27551,1.19998c0.7417,0.39774 2.17841,1.19669 2.86734,1.60001c0.67773,0.39676 1.34164,0.80002 2.00247,1.20001c0.66086,0.39999 1.3248,0.80322 2.0025,1.19998c0.68893,0.40332 2.1348,1.20523 2.90186,1.60001c0.78757,0.40536 1.60138,0.80273 2.43298,1.20001c0.84302,0.40274 1.69852,0.80035 2.55902,1.19998c0.86215,0.40039 2.57773,1.19849 3.422,1.59985c0.83572,0.39731 1.66016,0.79532 2.47498,1.18948c0.80518,0.3895 1.59958,0.77557 2.38501,1.1535c0.77457,0.37271 2.29419,1.09232 3.04034,1.43585c0.73651,0.33908 1.46844,0.6691 2.19598,0.99597c0.72513,0.32581 1.45108,0.64978 2.17801,0.97803c0.73175,0.33041 2.21432,1.01324 2.96884,1.36832c0.76416,0.35962 1.534,0.72626 2.31448,1.08301c0.7832,0.35797 1.57129,0.70691 2.3685,1.02899c0.79355,0.32059 2.39218,0.87863 3.1955,1.10284c0.79688,0.22241 1.59897,0.40643 2.40002,0.57748c0.79898,0.17059 1.60046,0.32428 2.39999,0.48752c0.80048,0.16342 2.4021,0.52466 3.19949,0.74182c0.79868,0.2175 1.58813,0.45911 2.3685,0.70801c0.77063,0.24579 1.52383,0.49911 2.2605,0.74399c0.71536,0.23779 2.07019,0.67642 2.70718,0.86252c0.60843,0.17773 1.19678,0.33505 1.767,0.48148c0.55515,0.14255 1.1015,0.2753 1.64099,0.40952c0.53784,0.13379 1.62378,0.41571 2.17749,0.57315c0.56229,0.15988 1.12738,0.33017 1.69351,0.50403c0.56485,0.17346 1.1239,0.34955 1.67551,0.52197c0.54041,0.16891 1.57648,0.48602 2.53516,0.76733l0.44684,0.12817l0.82367,0.23633l1.0455,0.31952" id="svg_8" stroke-width="2" stroke="#000" fill="none"/>
  <path t="7594,7725,7725,7725,7725,7741,7742,7742,7742,7742,7742,7742,7757,7758,7758,7758,7758,7758,7758,7758,7774,7774,7774,7774,7775,7775,7775,7791,7792,7792,7792,7792,7792,7792,7792,7808,7808,7808,7808,7808,7808,7808,7809,7809,7824,7825,7825,7825,7825,7825,7825,7825,7825,7841,7841,7842,7842,7842,7843,7843,7843,7843,7857,7858,7858,7858,7858,7858,7858,7859,7859,7874,7874,7875,7875,7875,7875,7875,7875,7875,7891,7891,7891,7891,7891,7891,7891,7892,7892,7907,7908,7908,7908,7908,7909,7909,7909,7909,7924,7924,7925,7925,7925,7925,7925,7925,7925,7944,7944,7944,7945,7945,7945,7945,7945,7945,7962,7962,7962,7962,7962,7962,7963,7963,7963,7978,7978,7978,7978,7979,7979,7979,7979,7979,7995,7995,7995,7996,7996,7996,7996,7996,7996,8011,8011,8011,8012,8012,8012,8012,8012,8012,8026,8026,8026,8027,8027,8027,8027" d="m279,158c3.604,2.11867 4.23602,2.38712 4.90799,2.69733c0.75266,0.34746 2.05856,1.06377 2.548,1.35867c0.51767,0.31192 1.60745,1.00507 2.17599,1.37601c0.58249,0.38004 1.17239,0.77138 2.36801,1.56799c0.59988,0.39969 1.19891,0.79767 1.79099,1.2c1.1705,0.79539 1.73944,1.19664 2.29468,1.60001c0.54608,0.39671 1.59067,1.18849 2.54633,2.00133c0.46747,0.3976 0.91971,0.80676 1.81866,1.63467c0.45587,0.41986 0.91248,0.85472 1.88269,1.73067c0.50729,0.45799 1.58551,1.39948 2.14932,1.89066c0.57986,0.50516 1.17603,1.02382 1.78351,1.56151c0.6232,0.55161 1.90283,1.71196 2.55533,2.32416c0.66623,0.62509 1.33719,1.26978 2.0145,1.929c0.6864,0.66809 1.37543,1.34857 2.06851,2.037c0.69757,0.69289 2.09549,2.091 2.79532,2.79083c0.69885,0.69884 1.39566,1.39566 2.08951,2.08951c0.68982,0.68983 1.37466,1.37466 2.0535,2.0535c0.67184,0.67183 1.99075,1.99025 2.63565,2.63583c0.63641,0.63708 1.26538,1.26764 1.88553,1.896c0.61618,0.62433 1.22708,1.24896 1.83148,1.87801c0.60495,0.62962 1.80679,1.91191 2.40417,2.5685c0.59995,0.65941 1.19308,1.32544 1.77899,1.9935c0.58145,0.66296 1.1507,1.32286 1.707,1.97549c0.54498,0.63937 1.58264,1.87515 2.0715,2.4675c0.47513,0.5757 0.93646,1.1433 1.3815,1.71301c0.44394,0.56831 0.8808,1.14853 1.30951,1.74899c0.43942,0.61549 1.323,1.94417 1.77332,2.66617c0.46857,0.75124 0.93781,1.53708 1.41452,2.3475c0.487,0.8279 0.97461,1.67336 1.46848,2.5275c0.4968,0.85919 1.49368,2.57358 1.99536,3.4175c0.49701,0.83607 0.9949,1.66048 1.48947,2.47501c0.48907,0.80547 0.97501,1.59978 1.45352,2.38499c0.47217,0.77481 1.39185,2.29419 1.83566,3.04018c0.4375,0.73537 0.86526,1.46378 1.28549,2.1855c0.41611,0.71461 0.82584,1.42505 1.23151,2.13148c0.40366,0.7029 1.20392,2.10484 1.60468,2.80434c0.40057,0.69917 0.80194,1.39706 1.21048,2.08951c0.40784,0.69124 0.82126,1.37723 1.24652,2.0535c0.4241,0.67441 1.30493,1.99373 1.76416,2.63583c0.45816,0.64059 0.93021,1.26952 1.40399,1.896c0.47354,0.62619 0.95157,1.24899 1.422,1.87801c0.47092,0.62965 1.39105,1.9106 1.83099,2.5685c0.44009,0.65814 0.86322,1.32501 1.27502,1.9935c0.40817,0.66257 0.80133,1.32323 1.185,1.97549c0.37631,0.63974 1.09418,1.877 1.44016,2.46667c0.33539,0.57164 0.66299,1.12514 0.9855,1.66049c0.31384,0.52097 0.62344,1.02652 0.93149,1.51651c0.30133,0.47931 0.90286,1.40063 1.20416,1.84448c0.29605,0.43613 0.59171,0.85974 0.87903,1.27502c0.28003,0.40475 0.55194,0.79825 0.80698,1.185c0.24622,0.37335 0.68668,1.09195 0.87119,1.44016c0.17664,0.33334 0.32431,0.66434 0.46048,0.9855l0.22534,0.62534l0.16934,0.60934" id="svg_9" stroke-width="2" stroke="#000" fill="none"/>
  <path t="8244,8364,8364,8364,8364,8364,8364,8364,8364,8364,8378,8379,8379,8379,8379,8379,8379,8379,8379,8390,8390,8390,8390,8390,8391,8391,8391,8391,8408,8408,8408,8408,8408,8408,8408,8408,8408,8423,8423,8423,8424,8424,8424,8424,8424,8424,8440,8440,8440,8440,8441,8441,8441,8441,8441,8457,8457,8457,8457,8457,8457,8457,8457,8457,8476,8476,8477,8477,8477,8477,8477,8477,8477,8491,8492,8492,8492,8492,8492,8492,8492,8492,8506,8507,8507,8507,8507,8507,8507,8507,8507,8524,8524,8524,8525,8525,8525,8525,8525,8526,8541,8542,8542,8542,8542,8542,8543,8543,8544,8557,8557,8557,8557,8557,8557,8558,8558,8558,8574,8574,8575,8575,8575,8575,8576,8576,8576,8591,8591,8591,8591,8591,8591,8591,8592,8592,8607,8608,8608,8608,8608,8608,8608,8608,8608,8632,8632,8632,8632,8632,8633,8633,8633,8633,8648,8648,8648,8648,8648,8649,8649,8649,8649,8665,8665,8666,8666,8666,8666,8666,8666,8666,8691,8691,8691,8691,8691,8692,8692,8692,8692,8694,8694,8694,8695,8695,8695,8695,8695,8696,8762,8762,8762,8763,8763,8763,8763,8763,8763,8782,8782,8782,8782,8782,8782,8783,8783,8783,8813,8813,8813,8813,8814,8814,8814,8814,8814,8816,8816,8816,8817,8817,8817,8817,8817,8818,8839,8839,8839,8839,8840,8840,8840,8840,8840,8860,8860,8861,8861,8861,8861,8861,8861,8862,8879,8879,8879,8880,8880,8880,8880,8880,8880,8897,8897,8897,8897,8898,8898,8898,8898,8898,8915,8916,8916,8916,8916,8916,8917,8917,8917,8934,8934,8935,8935,8935,8935,8935,8936,8936,8956,8956,8956,8956,8957,8957,8957,8957,8958,8978,8978,8978,8979,8979,8979,8979,8979,8980,8981,8982,8982,8982,8982,8983,8983,8983,8983" d="m269,177c6.16666,8.5 6.81332,9.24326 7.48532,9.944c0.66385,0.69225 1.34576,1.35327 2.03552,1.9935c0.68497,0.63576 1.38126,1.25177 2.08047,1.85851c1.39389,1.20953 2.09891,1.80408 2.80002,2.40533c0.70322,0.60307 1.40952,1.20911 2.11951,1.81949c0.71533,0.61496 1.43674,1.23586 2.16449,1.8645c1.48218,1.28033 2.23645,1.93529 2.99734,2.59866c0.76614,0.66795 1.53308,1.3401 2.29648,2.01601c0.76062,0.67343 1.51364,1.34444 2.2515,2.01601c1.44116,1.31169 2.12958,1.96014 2.80136,2.60399c0.66553,0.63785 1.32104,1.283 1.96799,1.9425c0.65445,0.66714 1.31149,1.356 1.96799,2.0775c1.37842,1.51489 2.07693,2.34448 2.80536,3.2c0.75165,0.88278 1.51794,1.79509 2.31,2.7225c0.80789,0.94595 1.63113,1.90625 2.48999,2.8575c1.74219,1.92957 2.66351,2.86432 3.59601,3.79333c0.93451,0.93103 1.88834,1.8439 2.8515,2.745c0.96085,0.89891 1.92892,1.78229 2.89648,2.655c1.91193,1.72453 2.86096,2.56541 3.79733,3.40134c0.92795,0.82841 1.84918,1.64951 2.7645,2.46451c0.91003,0.81032 1.81628,1.61641 2.71951,2.41949c1.80121,1.60149 2.70212,2.40045 3.60001,3.20267c0.89777,0.80211 1.79303,1.60672 2.68048,2.41949c0.88724,0.81258 1.76978,1.62996 2.6355,2.46451c1.73099,1.66867 2.56784,2.53311 3.40402,3.40266c0.84119,0.87477 1.67838,1.76836 2.52298,2.6745c0.85675,0.91917 1.7229,1.85861 2.61301,2.80949c1.84033,1.96603 2.80786,2.97243 3.79868,3.99733c1.00748,1.04211 2.03329,2.09204 3.0675,3.15152c1.03912,1.06451 2.08096,2.12839 3.11249,3.1965c2.0386,2.1109 3.02734,3.1579 3.99466,4.19998c0.957,1.03098 1.89481,2.06317 2.80951,3.10352c0.91064,1.03574 1.80704,2.0802 2.6745,3.1485c1.74304,2.14658 2.57098,3.27054 3.40668,4.39999c0.84167,1.13754 1.67526,2.29352 2.52298,3.45151c0.85361,1.16602 1.71265,2.34076 2.61301,3.49649c1.81989,2.33606 2.802,3.46805 3.80002,4.59866c1.00467,1.13815 2.03998,2.26117 3.08698,3.384c1.05167,1.12784 2.1185,2.24908 3.177,3.384c2.12234,2.27554 3.16217,3.43506 4.19733,4.59732c1.03351,1.16043 2.05618,2.32489 3.08401,3.47702c1.02286,1.14655 2.04117,2.28543 3.08401,3.38699c2.06015,2.17618 3.13101,3.19669 4.19733,4.19998c1.05643,0.99399 2.12241,1.95761 3.177,2.91302c1.04407,0.94589 2.08417,1.87515 3.08698,2.823c1.97363,1.86548 2.89661,2.83344 3.79868,3.79865c0.89087,0.95325 1.74844,1.91296 2.59351,2.85751c0.83093,0.92877 1.63892,1.84769 2.4585,2.7225c1.58475,1.69159 2.39691,2.46194 3.20401,3.20132c0.79312,0.72656 1.59753,1.41895 2.39999,2.09702c0.79755,0.67392 1.60367,1.33362 2.39999,2.00699c1.60745,1.35925 2.40335,2.07297 3.19601,2.80133c0.79437,0.72995 1.5744,1.47086 2.34149,2.21249c0.75687,0.73175 1.49222,1.45709 2.20651,2.16751c1.35834,1.35098 1.99094,1.98923 2.59998,2.59601c0.58398,0.58185 1.14667,1.14005 1.69351,1.67398c0.52917,0.51669 1.04572,1.0162 1.5585,1.49402c0.99762,0.92957 1.50201,1.36954 2.00134,1.80267c0.49203,0.42685 0.98093,0.84045 1.461,1.245c0.46927,0.39545 0.92892,0.77811 1.371,1.155c0.84036,0.71643 1.22995,1.06229 1.59732,1.40134c0.35257,0.32541 0.68402,0.64542 0.98999,0.96448c0.29391,0.30649 0.56888,0.60922 0.81,0.91953c0.45721,0.58835 0.63504,0.89771 0.80136,1.19464c0.15778,0.28165 0.29065,0.5527 0.40948,0.80252c0.10635,0.22357 0.18817,0.42261 0.27451,0.57748c0.11115,0.19937 0.17554,0.22949 0.19598,0.20001c0.03445,-0.04968 0.01099,-0.15604 -0.03299,-0.2775c-0.05548,-0.15326 -0.15118,-0.3298 -0.30301,-0.5025c-0.37292,-0.42419 -0.67578,-0.60046 -1.00131,-0.79868c-0.36118,-0.21994 -0.77222,-0.43698 -1.21652,-0.67801c-0.47971,-0.26025 -0.9967,-0.53568 -1.53149,-0.858c-1.16882,-0.70447 -1.76971,-1.13916 -2.39465,-1.59866c-0.65094,-0.47864 -1.31146,-0.99231 -1.99051,-1.52249c-0.69562,-0.54312 -1.39984,-1.1033 -2.12549,-1.6575c-1.47101,-1.12347 -2.2308,-1.66254 -2.99734,-2.19598c-0.7691,-0.53525 -1.5499,-1.05984 -2.33551,-1.58401c-0.78906,-0.52649 -1.58557,-1.0498 -2.38049,-1.58401c-1.60254,-1.0769 -2.401,-1.63434 -3.19867,-2.20264c-0.80237,-0.57166 -1.60239,-1.1568 -2.39999,-1.755c-0.8024,-0.60181 -1.60361,-1.21539 -2.39999,-1.845c-1.60736,-1.27075 -2.40219,-1.93256 -3.20132,-2.60001c-0.80524,-0.67255 -1.61075,-1.35837 -2.41953,-2.05499c-0.81659,-0.70337 -1.6373,-1.41888 -2.46448,-2.14502c-1.68335,-1.47769 -2.53494,-2.23572 -3.40002,-2.99466c-0.87057,-0.76376 -1.74713,-1.52682 -2.6355,-2.27701c-0.88635,-0.74847 -1.77457,-1.48627 -2.68048,-2.18698c-1.7811,-1.37769 -2.69427,-1.99652 -3.59601,-2.60135c-0.88971,-0.59677 -1.78168,-1.16614 -2.66101,-1.73248c-0.87,-0.56033 -1.73541,-1.10977 -2.57098,-1.6875c-1.65369,-1.14337 -2.43509,-1.76715 -3.19867,-2.40402c-0.76083,-0.63458 -1.49539,-1.29489 -2.2095,-1.97098c-0.71124,-0.67334 -1.40213,-1.36172 -2.07449,-2.061c-1.33295,-1.38629 -1.9678,-2.09613 -2.604,-2.79602c-0.63248,-0.6958 -1.25742,-1.39178 -1.884,-2.08047c-0.62411,-0.68597 -1.24689,-1.36914 -1.884,-2.03552c-1.27124,-1.32965 -1.93408,-1.96756 -2.60132,-2.60132c-0.66846,-0.63495 -1.34955,-1.25989 -2.03552,-1.884c-0.68869,-0.62659 -1.38556,-1.25058 -2.08047,-1.884c-1.40253,-1.27844 -2.10135,-1.93521 -2.80002,-2.604c-0.70569,-0.67551 -1.40933,-1.36932 -2.11951,-2.07449l-0.71515,-0.72015l-0.72116,-0.73618l-0.72818,-0.75317" id="svg_10" stroke-width="2" stroke="#000" fill="none"/>
  <path t="9411,9491,9491,9491,9491,9491,9491,9491,9507,9507,9507,9507,9507,9508,9508,9524,9524,9524,9524,9524,9524,9524,9524,9524,9541,9541,9541,9541,9541,9541,9542,9557,9557,9557,9558,9558,9558,9558,9574,9574,9574,9574" d="m326,320c7.47867,0 8.116,0 8.74734,0c1.25266,0 1.87799,0 2.50531,0c0.63135,0 2.569,0 3.23401,0c0.67499,0 1.36002,0 2.05499,0c0.70502,0 1.42001,0 3.625,0c0.75452,0 1.51602,0 2.28152,0c0.76648,0 1.53098,0 2.2905,0c0.7515,0 1.49197,0 2.92798,0c0.69034,0 2.01901,0 2.66135,0c0.63034,0 1.25067,0 2.46933,0c1.20267,0 1.80234,0 2.99365,0c0.58768,0 1.73703,0 2.29468,0c0.54367,0 2.07083,0 2.98651,0l0.82367,0l0.72366,0" id="svg_11" stroke-width="2" stroke="#000" fill="none"/>
  <path t="9898,10007,10007,10007,10007,10007,10007,10007,10007,10008,10024,10024,10024,10024,10024,10024,10024,10024,10024,10041,10041,10041,10041,10042,10042,10042,10042,10042,10057,10058,10058,10058,10058,10058,10058,10058,10058,10074,10074,10074,10074,10074,10074,10074,10075,10075,10091,10091,10091,10091,10091,10092,10092,10093,10093,10107,10107,10107,10108,10108,10108,10108,10108,10108,10124,10124,10124,10124,10124,10125,10125,10125,10125,10143,10143,10143,10143,10143,10143,10143,10143,10144,10161,10162,10162,10162,10162,10162,10162,10162,10162,10182,10183,10183,10183,10183,10183,10183,10183,10183,10200,10200,10200,10200,10200,10201,10201,10201,10201,10219,10219,10219,10219,10219,10219,10219,10220,10220" d="m240,206c2.66667,11.5 3.06839,12.54338 3.53999,13.54266c0.46704,0.98961 0.98331,1.94443 1.52251,2.87401c0.53429,0.92113 1.09464,1.81502 1.6575,2.694c1.10609,1.72731 1.65871,2.56862 2.2,3.40799c0.54037,0.83797 1.08377,1.67924 1.6425,2.52301c0.5679,0.85762 1.15424,1.73053 1.7775,2.61299c1.31114,1.85641 2.04184,2.81332 2.80267,3.80267c0.78603,1.02211 1.60928,2.06349 2.46149,3.12599c0.87177,1.08688 1.7692,2.1888 2.68652,3.306c1.87234,2.28033 2.82895,3.43323 3.79465,4.59201c0.96997,1.16389 1.94678,2.32602 2.93552,3.47699c0.98593,1.14769 1.97415,2.28326 2.9805,3.38701c1.9801,2.17172 2.99094,3.19794 4.00131,4.19598c0.99844,0.98627 2.01019,1.93881 3.039,2.85452c1.02197,0.90961 2.05991,1.79239 3.129,2.62949c2.13766,1.6738 3.26517,2.44107 4.39603,3.20001c1.12756,0.75674 2.2684,1.47876 3.41248,2.1705c1.12936,0.68286 2.25299,1.33328 3.36752,1.9455c2.14322,1.17725 3.18506,1.70233 4.20132,2.19867c0.9899,0.48346 1.97061,0.93286 2.952,1.33499c0.97086,0.39783 1.95032,0.7645 2.952,1.065c2.03363,0.61011 3.10974,0.80875 4.20132,1.004c1.10687,0.19797 2.23239,0.35568 3.36752,0.4935c1.13824,0.13821 2.27805,0.25192 3.41248,0.35849c2.23282,0.20975 3.32349,0.30402 4.39468,0.40268c1.05313,0.09702 2.08917,0.1925 3.1095,0.28049c1.005,0.08664 1.99594,0.16934 2.97449,0.2355c1.92062,0.12985 2.86578,0.16586 3.79733,0.20267c0.91547,0.03616 1.81213,0.06491 2.68652,0.10352c0.84961,0.03751 1.67218,0.07495 2.46149,0.1485c1.4787,0.13776 2.15854,0.26416 2.80133,0.39865c0.61456,0.1286 1.19803,0.28012 1.758,0.43201c0.54135,0.14685 1.06317,0.30301 1.578,0.43201c1.0014,0.25092 1.50424,0.33191 2.004,0.39865c0.496,0.06622 0.99048,0.11029 1.4805,0.1485c0.48465,0.03778 0.96402,0.06473 1.43552,0.10352c0.9194,0.07565 1.36407,0.1348 1.79733,0.20132c0.42242,0.06488 0.83066,0.14133 1.22549,0.216l0.37982,0.07468l0.36383,0.07266l0.34686,0.06866" id="svg_12" stroke-width="2" stroke="#000" fill="none"/>
  <path t="10545,10807,10807,10807,10841,10857,10858,10874,10874,10891,10891,10891,10891,10907,10907,10907,10907,10907,10907,10907,10923,10924,10924,10924,10924,10924,10924,10924,10924,10943,10943,10943,10943,10943,10943,10943,10943,10943,10957,10957,10957,10958,10958,10958,10958,10958,10958,10974,10974,10975,10975,10975,10975,10975,10975,10975,10991,10991,10991,10991,10992,10992,10992,10992,10992,11007,11007,11007,11007,11008,11008,11008,11008,11023,11024,11024,11024,11024,11024,11041,11041,11041,11340,11341,11357,11374,11374,11390,11391,11407,11407,11408,11423,11424,11424,11424,11440,11441,11441,11441,11457,11457,11457,11457,11458,11473,11474,11474,11474,11491,11491,11507,11507,11590,11591,11607,11607,11623,11624,11624,11624,11640,11641,11641,11657,11657,11657,11658,11658,11658,11673,11674,11675,11675,11675,11690,11691,11691,11691,11692,11707,11707,11707,11708,11723,11724,11741,11741,11742,11757,11757,11757,11773,11774,11774,11807,11807,11808,11823,11824,11824,11840,11873,11900,11900,11916,11933,11944,11944,11962,11962,11975,12007,12007,12023,12073,12074,12173,12190,12191,12191,12191,12206,12207,12207,12208,12208,12208,12208,12223,12224,12224,12224,12225,12225,12240,12241,12241,12242,12242,12242,12257,12257,12257,12258,12258,12273,12274,12274,12274,12290,12291,12291,12307,12307,12307,12308,12323,12324,12324,12325,12340,12341,12341,12356,12357,12440,12441,12456,12457,12490,12491,12491,12506" d="m258,296c-4.39267,-5.71384 -4.77438,-6.66351 -5.07867,-7.50934c-0.31169,-0.86636 -1.0793,-1.38794 -1.92133,-1.46982c-0.97395,-0.0947 -1.77585,0.30728 -1.916,1.12448c-0.10707,0.6243 -0.10246,1.40579 -0.168,2.31601c-0.07483,1.03925 -0.19948,2.19772 -0.27766,2.81915c-0.08168,0.64926 -0.17552,1.32437 -0.285,2.0235c-0.23055,1.4722 -0.51767,3.02982 -0.67467,3.83868c-0.16028,0.82578 -0.33076,1.66278 -0.504,2.508c-0.1741,0.84946 -0.35048,1.69843 -0.522,2.54401c-0.1698,0.8371 -0.48799,2.47162 -0.6315,3.26266c-0.14047,0.77429 -0.27168,1.53757 -0.40649,2.29199c-0.13419,0.75092 -0.27153,1.50223 -0.4245,2.25601c-0.15497,0.76361 -0.51819,2.32941 -0.73283,3.13748c-0.21992,0.82797 -0.4619,1.66724 -0.70801,2.51852c-0.24855,0.85971 -0.50224,1.72299 -0.74399,2.59048c-0.24092,0.86453 -0.67963,2.57983 -0.86234,3.42651c-0.17984,0.8334 -0.33374,1.65915 -0.47101,2.47498c-0.13531,0.8042 -0.25293,1.59967 -0.36299,2.38501c-0.10858,0.77469 -0.30785,2.29517 -0.40918,3.04001c-0.10002,0.73514 -0.20161,1.46039 -0.31049,2.17499c-0.10748,0.70544 -0.22104,1.40076 -0.34651,2.08502c-0.12392,0.67578 -0.40454,1.99622 -0.56416,2.63998c-0.15776,0.63623 -0.32907,1.26065 -0.504,1.875c-0.17244,0.60565 -0.35519,1.1983 -0.69067,2.36002c-0.32297,1.11838 -0.60237,2.19745 -0.72232,2.72049c-0.22969,1.0015 -0.33339,1.48044 -0.47501,2.39417c-0.18988,1.2251 -0.26051,2.27832 -0.276,2.87866c-0.02968,1.14984 -0.05374,2.14246 -0.77234,2.28885c-0.87749,0.17877 -1.83966,0.00449 -2.84283,0.00449c-0.63148,0 -1.81699,0 -2.63148,0c-0.57468,0 -1.76401,0 -2.6685,0c-0.61633,0 -1.58084,0 -2.617,0c-0.73567,0 -1.49933,0 -2.283,0c-1.1955,0 -1.99669,-0.01987 -2.7955,0.03201c-0.8019,0.05209 -1.63057,0.14325 -2.7995,0.63199c-0.812,0.33951 -1.5381,0.83585 -2.22899,1.27798c-0.87163,0.5578 -1.72289,0.83902 -2.47168,1.27969c-0.73291,0.43134 -1.48328,1.18262 -1.83733,1.75748c-0.47478,0.7709 0.48668,0.95117 1.58017,0.57819c0.67465,-0.2301 1.35219,-0.56979 2.052,-0.85202c0.96521,-0.38925 1.80676,-0.61118 2.62799,-0.72c1.34085,-0.17767 1.76323,-0.20502 2.69701,-0.33798c1.02226,-0.14554 1.54971,-0.23206 2.61501,-0.36334c1.03085,-0.12704 1.99422,-0.20749 2.89333,-0.24799c0.43016,-0.01938 1.263,-0.03375 2.472,-0.03601c0.8,-0.0015 1.60001,0 2.39999,0c0.8,0 1.99968,0 2.791,0c1.13701,0 1.83846,-0.01538 3.03835,0.00134c0.72917,0.01016 1.78688,0.12106 2.37067,0.36032c0.82761,0.33917 1.60437,0.9545 2.2,1.46368c0.60448,0.51675 1.41278,1.13507 2.2,1.6955c0.61024,0.43445 1.40323,1.24451 1.8,1.72983c0.60495,0.73996 1.36392,1.65625 1.98933,2.06665c0.69038,0.45303 1.90089,0.53067 2.18983,1.22433c0.36192,0.8689 0.05489,1.76559 0.59549,2.47302c0.46719,0.61136 1.21275,1.19943 1.72,1.74249c0.7341,0.78592 0.65601,1.62949 1.058,2.48566c0.42744,0.9104 0.56799,1.64682 0.658,2.57184c0.08389,0.86209 0.90843,1.39825 1.804,1.15332c0.93764,-0.25644 1.13049,-1.06064 1.056,-1.944c-0.06555,-0.77734 -0.35147,-1.6972 -0.72667,-2.76132c-0.20508,-0.5816 -0.44394,-1.17807 -0.7065,-1.78351c-0.53467,-1.23285 -0.82295,-1.83829 -1.4375,-2.97916c-0.29112,-0.54047 -0.89349,-1.53424 -1.18933,-2.00266c-0.57082,-0.90378 -0.88234,-1.32419 -1.644,-2.664c-0.25528,-0.44907 -0.71127,-1.38516 -1.1875,-2.3125c-0.23692,-0.46136 -0.70686,-1.38116 -1.3125,-2.1875c-0.59528,-0.79254 -0.95656,-1.13123 -1.66667,-1.77084c-0.68027,-0.61273 -1.67432,-1.38705 -2.22934,-1.87717c-0.73936,-0.65292 -1.14899,-1.09381 -1.97099,-1.88501c-0.61171,-0.58878 -1.27788,-1.17596 -2.133,-1.46698c-0.9474,-0.32242 -1.68703,-0.30496 -2.4185,-0.32434c-1.08116,-0.02863 -2.091,-0.009 -2.72734,-0.009c-0.91949,0 -2.11949,0 -2.71016,0c-0.8535,0 -1.88918,0 -2.78984,0c-1.02083,0 -2.02148,0.33173 -2.6875,-0.33334c-0.53151,-0.53076 0,-1.66666 0.37651,-2.25766l0.642,-0.69467l0.76149,-0.54498" id="svg_13" stroke-width="2" stroke="#000" fill="none"/>
  <path t="12862,12990,12990,13006,13007,13023,13023,13057,13057,13058,13073,13090,13090,13106,13123,13140,13141,13141,13156,13157,13157,13157,13173,13173,13173,13174,13190,13191,13191,13191,13191,13191,13206,13207,13207,13207,13207,13207,13207,13223,13223,13223,13223,13224,13224,13224,13240,13241,13241,13241,13241,13241,13241,13241,13256,13257,13257,13257,13257,13257,13273,13273,13274,13274,13292,13292,13292,13292,13306,13307,13406,13407,13407,13435,13449,13473,13473,13506,13523,13523,13540,13540,13556,13557,13557,13557,13573,13573,13573,13591,13591,13591,13673,13673,13673,13690,13706,13707,13707,13723,13723,13723,13723,13741,13741,13741,13741,13759,13759,13759,13760,13760,13776,13777,13777,13777,13777,13795,13795,13795,13795,13811,13811,13811,13812,13812,13827,13827,13842,13858,13858,13940,13956,13956,13957,13977,13977,13977,13978,13997,13997,13997,13997,14015,14015,14015,14015,14034,14035,14035,14035,14052,14052,14053,14070,14070,14140,14140,14156,14156,14173,14206,14256,14257,14257" d="m278,300c-5.08032,1.88568 -5.79645,1.98322 -6.76801,2.00134c-0.73212,0.01364 -1.93173,0.09421 -2.57065,0.43466c-0.88416,0.47113 -1.46875,0.99451 -2.17734,1.27866c-1.01517,0.40707 -1.45416,0.99374 -1.48267,1.80267c-0.03384,0.96124 -0.00134,1.90399 -0.00134,2.81601c0,0.93866 0,1.48798 0,2.66666c0,0.90451 0,1.52084 0,2.48532c0,1.03635 0,1.77634 0,2.55634c0,0.82001 0,2.125 0,3.04636c0,0.47815 0,1.47449 0,1.99466c0,1.08932 0,2.25067 0,2.86017c0,1.267 0,1.91849 0,2.578c0,0.66449 0,1.99649 0,3.3125c0,0.64532 0,1.28265 0,2.54132c0,0.62534 0,1.25067 0,1.87799c0,1.914 0,2.56851 0,3.23001c0,0.6655 0,1.332 0,2.65601c0,0.65149 0,1.29199 0,3.11816c0,0.57117 0,1.12433 0,2.18066c0,0.99634 -0.00336,1.47449 0.00015,2.841c0.00223,0.86432 0.00183,1.70172 0.05701,2.517c0.08163,1.2067 0.2182,2.00211 0.36816,2.77249c0.14124,0.72562 0.33029,1.95071 0.56,2.73468c0.2619,0.89386 0.70129,1.9686 1.44669,1.95734c0.71869,-0.01086 0.56799,-1.37466 0.56799,-2.36017c0,-0.78519 0.29193,-1.90903 -0.33334,-2.5665c-0.51465,-0.54117 -1.64566,-0.33334 -2.53366,-0.33334c-0.89734,0 -1.83032,0 -2.52899,0c-0.72266,0 -1.78235,0 -2.75732,0c-0.88501,0 -1.92828,-0.04572 -2.62134,0.02133c-0.91724,0.08875 -1.91605,0.52802 -2.41867,0.82935c-0.69833,0.41867 -0.97437,1.14481 -0.03467,1.14932c0.79048,0.00378 1.39417,-0.00394 2.74933,0.00015c0.73132,0.0022 1.47986,0.00131 2.22601,0.05701c1.08847,0.08127 2.10858,0.28241 2.75266,0.50534c0.66266,0.22937 1.67438,0.75839 2.38535,1.20685c0.75909,0.47882 1.52322,1.01913 1.91916,1.28247c1.18924,0.79099 1.99304,1.26385 2.38651,1.49551c0.76773,0.452 1.53708,0.8504 2.47565,1.61932c0.59271,0.4856 1.07587,1.06622 1.78152,1.93784c0.72241,0.89233 1.22849,1.49838 1.76648,2.07419c0.51828,0.55472 1.01566,1.05099 1.81467,1.85065c0.66141,0.66196 1.41553,1.19836 1.80402,2.13733c0.31879,0.77051 1.40262,1.15387 1.25916,1.83301c-0.14426,0.6828 -1.52191,-0.10461 -2.39249,-0.44266c-0.92944,-0.36087 -1.50381,-0.77243 -2.10001,-1.15967c-0.90588,-0.58841 -1.80002,-1.19736 -2.39999,-1.59735c-0.60001,-0.40002 -1.48407,-1.02582 -2.41068,-1.57864c-0.61514,-0.367 -1.25528,-0.71979 -2.31067,-0.97833c-0.72122,-0.1767 -1.47818,-0.21939 -2.59467,-0.24036c-1.06198,-0.01996 -1.72156,0.04819 -2.60135,-0.03867c-1.14935,-0.11349 -1.74704,-0.58212 -2.82483,-0.8425c-0.66281,-0.16013 -1.61319,-0.02365 -0.93649,-0.20682c1.00748,-0.27267 1.78317,-0.86652 2.64532,-1.24802l0.64801,-0.52798l0.47549,-0.49051" id="svg_14" stroke-width="2" stroke="#000" fill="none"/>
  <path t="15010,15156,15156,15156,15156,15156,15156,15156,15173,15173,15173,15173,15173,15173,15190,15190,15190,15190,15190,15190,15207,15207,15207,15207,15223,15223,15223,15223,15240,15240" d="m260,371c-10.77116,-1.75699 -11.48888,-1.83502 -12.1615,-1.88568c-0.63278,-0.04767 -1.81044,-0.09592 -2.36867,-0.10532c-0.54712,-0.00922 -2.19119,-0.01212 -2.75383,-0.00635c-1.14143,0.01169 -1.7166,0.02939 -2.29066,0.06934c-1.14284,0.07953 -2.26459,0.23575 -3.33734,0.49734c-0.52504,0.12805 -1.52711,0.44687 -2.00533,0.616c-0.91385,0.32318 -2.13779,0.79892 -2.87283,1.0575c-0.68713,0.24173 -1.69168,0.55869 -2.73067,0.85733c-0.71777,0.2063 -1.41667,0.42068 -2.33917,0.78519l-0.80133,0.59732l-0.368,0.65601" id="svg_15" stroke-width="2" stroke="#000" fill="none"/>
 </g>
 <g display="none">
  <title>muse_image</title>
  <image xlink:href="http://farm4.static.flickr.com/3253/2658796793_0bdaf58c24.jpg" id="muse" height="480" width="420" y="0" x="110"/>
 </g>
 <g display="none">
  <title>bbox</title>
  <rect stroke="#f00" fill="none" stroke-width="3" height="353.28" width="317.39726" y="74.88" x="197.26027" id="bbox"/>
 </g>
</svg>
