<svg width="640" height="480" xmlns="http://www.w3.org/2000/svg" xmlns:svg="http://www.w3.org/2000/svg" xmlns:xlink="http://www.w3.org/1999/xlink">
 <!-- Sketchy ANNOTATION
  ImageNet ID: n01530575_10613
  URL: http://farm4.static.flickr.com/3414/3303402439_50fbd68596.jpg
  Image Width: 332
  Image Height: 500
  BBox X: 129
  BBox Y: 207
  BBox Width: 98
  BBox Height: 180
  Exposure: 2000ms
  Synset Label: songbird
  Synset ID: n01526521
  Worker Tag: bird on branch
  Sanity Check: 
   Saved
  Comment: 
   {}
  Worker ID: A1VGZ2K3HF66TE
  Assignment ID: 3F6HPJW4JD05GLYN0Q0YFHE56GL2W6
  HIT ID: 36D1BWBEHN17OP6F6MP9HZHT585M28
  Work Time: 83s
  Worker Score: 0.7143
 END ANNOTATION -->
 <g display="inline">
  <title>Layer 1</title>
  <path t="0,311,312,312,325,326,326,326,326,326,346,346,346,347,378,379,379,394,394,444,444,444,453,469,470,470,479,492,508,508,509,546,593,628,628,668,674,675,675,675,675,680,712,742,743,743,743,743,784,814,815,815,815,825,831,855,855,856,856,879,891,892,892,892,892,931,932,932,952,981,981,981,993,994,1008,1009,1009,1009,1024,1046,1047,1047,1048,1048,1048,1048,1083,1084,1084" d="m318,193c7.02899,-7.68584 7.7807,-8.28288 8.50134,-8.61333c0.83276,-0.38185 1.63022,-0.86017 2.08267,-1.14534c0.97653,-0.61549 1.47208,-0.94862 1.96799,-1.27733c1.3851,-0.91808 2.16092,-1.46341 2.8855,-1.85983c0.63623,-0.34808 1.56354,-0.69107 2.44901,-0.63718c0.81424,0.04956 1.86026,0.48915 2.53616,0.53168c0.99405,0.06255 1.69333,0.00133 2.75684,0.00133c0.99234,0 1.82733,0 2.55783,0c0.85651,0 1.92133,0 2.68933,0c0.992,0 1.68933,0 2.75284,0c0.99167,0 1.07651,0 1.87851,0c0.88397,0 1.90808,0.02496 2.60864,0.83333c0.49081,0.56636 1.02454,1.28226 1.3125,1.64584c0.55402,0.69954 1.22702,1.582 1.17551,1.7115c-0.43295,1.08855 0.98096,1.22725 1.53601,1.92532c0.57297,0.72057 1.35544,1.25294 1.64398,2.21417c0.09674,0.3223 0.37067,1.08049 0.66534,1.66983c0.43201,0.864 0.89529,1.76724 1.17065,2.42667c0.41177,0.9861 0.67511,1.69138 0.97867,2.41066c0.2782,0.65924 0.84,1.75047 0.85068,2.61267c0.00912,0.7366 0,1.63333 0,2.61c0,0.49333 0,1.87483 0,2.6505c0,0.9135 0,1.91451 0,2.79485c0,0.65733 0,1.37866 0,2.66133c0,0.83333 0,1.93983 0,2.59216c0,0.72034 0,1.73582 0,2.72116c0,1.02 0,1.88 0,2.4075c0,1.175 0,1.7925 0,2.41c0,0.60249 0,2.17366 0,2.964l0,0.91049" id="svg_1" stroke-width="2" stroke="#000" fill="none"/>
  <path t="1529,1807,1807,1807,1808,1808,1808,1808,1824,1824,1825,1825,1859,2007,2026,2026,2026,2042,2042,2042,2060,2060,2060,2061,2061,2061,2092,2093,2093,2093,2093,2093,2110,2110,2110,2110,2111,2111,2111,2111,2126,2126,2127,2127,2141" d="m361,221c10.66666,7.16667 11.42941,7.69025 12.116,8.17334c0.6236,0.43878 1.69992,1.21799 2.16266,1.57333c0.83157,0.63861 1.56125,1.24594 2.23068,1.84799c0.61813,0.55592 2.27512,1.16881 1.884,1.79866c-0.36215,0.58318 -1.4639,0.3159 -1.935,0.64835c-0.78302,0.55255 -1.49686,1.21407 -2.26501,1.72633c-0.78061,0.52058 -1.85889,0.76578 -2.73334,0.77733c-0.48428,0.00639 -1.52277,-0.08421 -2.06665,-0.14133c-1.11395,-0.11697 -2.22653,-0.23926 -3.31067,-0.32401c-0.53445,-0.04178 -1.07126,-0.06145 -2.14401,-0.21333c-0.55048,-0.07794 -2.2764,-0.52145 -2.88098,-0.75217c-0.62784,-0.23958 -1.25766,-0.52199 -1.88702,-0.82651c-1.25546,-0.60745 -1.85007,-0.93623 -2.43198,-1.23734c-1.07037,-0.55386 -1.99069,-0.99199 -2.74133,-1.32132l-0.96533,-0.35468l0.27615,0.27718" id="svg_2" stroke-width="2" stroke="#000" fill="none"/>
  <path t="2491,2758,2758,2758,2758,2758,2774,2775,2775,2775,2775,2775" d="m360,230c-5.0575,5.93567 -5.42285,6.35553 -6.16,7.10266c-0.35583,0.36066 -1.08319,1.06483 -2.34,2.06401c-0.45633,0.36278 -0.94534,0.71199 -1.92267,1.416l-0.47318,0.334l-0.86032,0.60199" id="svg_3" stroke-width="2" stroke="#000" fill="none"/>
  <path t="3202,3492,3492,3492,3508,3509,3509,3509,3509,3509,3509,3525,3525,3525,3526,3526,3545,3545,3545,3545,3577,3594,3595,3595,3595,3595,3595,3595,3595,3623,3623,3623,3623,3623,3624,3624,3628,3629,3629,3629,3629,3659,3659,3659,3659,3659,3676,3678,3679,3679,3679,3679,3679,3680,3696,3697,3697,3698,3698,3701,3708,3709,3709,3709,3709,3744,3746,3746,3746,3747,3747,3763,3763,3763,3764,3764,3764,3764,3764,3792,3793,3793,3793,3794,3794,3794,3800,3801,3802,3802,3802,3828,3828,3829,3829,3829,3830,3861,3861,3861,3862,3862,3862,3862,3863,3868,3869,3869,3869,3870,3870,3870,3888,3889,3890,3890,3891,3891,3915,3915,3916,3916,3916,3916,3917,3917,3924,3925,3925,3926,3926,3926,3926,3927,3927,3964,3965,4029,4029,4030,4030,4030,4031,4031,4045,4046,4046,4046,4047,4047,4047,4048,4048" d="m325,194c-7.68616,6.1505 -8.41333,6.996 -8.784,7.50267c-0.62637,0.85616 -1.00476,1.20836 -1.82535,2.08133c-0.45139,0.48018 -0.92245,0.97095 -1.39349,1.4715c-0.46625,0.49547 -1.71765,1.87479 -2.05582,2.28984c-0.60922,0.7478 -1.11447,1.44872 -1.53601,2.136c-0.62872,1.02504 -1.00308,1.74765 -1.34283,2.43533c-0.42053,0.8512 -0.8038,1.82066 -1.39584,2.41666c-0.74219,0.74715 -1.20966,1.20685 -1.72266,1.71201c-0.54727,0.53889 -1.1196,1.09779 -1.7085,1.662c-0.58847,0.5638 -1.73264,1.6292 -2.27084,2.10666c-0.50467,0.44769 -1.44495,1.24329 -1.88132,1.60268c-0.81073,0.66771 -1.2114,0.95787 -2.26169,1.8835c-0.67136,0.59167 -1.29337,1.20872 -1.85999,1.85699c-0.28177,0.32237 -1.05557,1.35553 -1.51349,2.11349c-0.4852,0.80312 -0.70963,1.24794 -1.21753,2.18668c-0.56412,1.0426 -0.87302,1.60699 -1.19864,2.196c-0.68204,1.23369 -1.03354,1.86665 -1.38135,2.50667c-0.34686,0.63832 -0.69394,1.26759 -1.31732,2.50667c-0.29556,0.58749 -0.82034,1.71196 -1.05069,2.25066c-0.43643,1.02066 -0.63928,1.50858 -1.116,2.916c-0.29694,0.87663 -0.41116,1.31036 -0.66666,2.14584c-0.24988,0.81718 -0.65549,2.02536 -0.98666,2.82616c-0.34833,0.84227 -0.55713,1.27705 -0.97501,2.22334c-0.22617,0.51216 -0.71088,1.6356 -0.95917,2.25699c-0.53101,1.32901 -0.7807,2.03427 -1.01666,2.75601c-0.23746,0.72633 -0.45966,1.45694 -0.6225,2.19301c-0.31488,1.42343 -0.37531,2.12088 -0.39999,2.79199c-0.04706,1.27914 0.01477,1.89063 0.06665,2.47998c0.09869,1.1214 0.24112,2.15891 0.30801,3.12402c0.0629,0.90717 0.077,1.78397 0.08084,2.2175c0.01166,1.31845 0.00449,2.24115 0.00449,3.21982c0,0.51535 0,1.608 0,2.18933c0,1.24268 0,1.90683 0,2.59601c0,1.43332 0,2.16751 0,2.90668c0,0.73917 0,1.47333 0,2.90665c0,0.69019 0,1.36136 0,2.65067c0,0.62018 0,1.22534 0,2.39468c0,1.12134 0,2.20532 0,2.73984c0,1.069 0,1.6095 0,2.7175c0,1.164 -0.00436,1.77435 0.004,2.40665c0.01773,1.33887 0.05087,2.04953 0.104,2.78934c0.05551,0.77295 0.11676,1.58337 0.392,3.30133c0.14764,0.92151 0.34787,1.87085 0.56699,2.84402c0.22342,0.99225 0.47086,1.9903 0.729,2.98798c0.25656,0.99164 0.52008,1.96603 1.03735,3.83469c0.24377,0.88065 0.48022,1.7226 0.70499,2.52899c0.21524,0.77228 0.42111,1.51236 0.61499,2.22299c0.1861,0.68207 0.36478,1.33746 0.68002,2.58133c0.15009,0.59225 0.28897,1.18689 0.48148,1.7865c0.20538,0.63968 0.49768,1.31769 0.85052,2.06552l0.44482,0.82983l0.55383,0.92883" id="svg_4" stroke-width="2" stroke="#000" fill="none"/>
  <path t="4498,4741,4741,4741,4741,4741,4741,4741,4741,4758,4758,4758,4758,4758,4758,4774,4775,4775,4776,4776,4810,4810,4810,4810,4825,4825,4825,4826,4826,4826,4860,4861,4861,4861,4867,4868,4868,4868,4868,4868,4912,4914,4914,4914,4915,4919,4919,4920,4920,4920,4925,4926,4926,4926,4927,4959,4960,4960,4960,4962,4977,4977,4978,4978,4978,4978,4978,4992,4993,4993,4994,4994,5009,5009,5010,5010,5045,5045,5046,5046,5046,5076,5077,5077,5083,5091,5092,5092,5093,5142,5292,5293,5293,5309,5310,5326,5327,5327,5327,5328,5328,5329,5344,5344,5344,5345,5345,5345,5376,5377,5377,5378,5396,5396,5397,5397,5397,5397,5398,5410,5410,5411,5411,5412,5412,5425,5426,5426,5427,5427,5458,5459,5460,5460,5461,5478,5479,5479,5479,5480,5480,5481,5512,5513,5514,5514,5514,5523,5524,5524,5524,5525,5542,5542,5543,5543,5558,5579,5592,5594,5594,5595,5642,5725" d="m345,243c4.39966,5.94267 4.80127,6.56557 5.19101,7.20534c0.39163,0.64291 0.77106,1.29256 1.13699,1.944c0.36136,0.64326 0.71759,1.2744 1.33865,2.51733c0.57654,1.15385 0.82034,1.71196 1.05069,2.25066c0.43643,1.02066 0.6409,1.50803 1.116,2.91602c0.29526,0.875 0.53503,1.7164 0.72,2.51999c0.17422,0.75687 0.33932,1.82446 0.3895,2.50299c0.05063,0.68442 0.05472,1.79834 0.05716,2.64368c0.00275,0.952 0.01993,1.97687 0.0625,2.5c0.08496,1.04422 0.07941,1.58676 0.60132,2.93582c0.32159,0.83133 0.86493,1.51761 1.22101,2.26501c0.5239,1.09967 0.5675,1.53976 0.60001,2.409c0.03403,0.9104 -0.05212,1.84235 -0.03418,2.3075c0.05264,1.36505 0.3028,2.23282 0.57019,3.08267c0.26923,0.85559 0.48022,1.26941 0.73615,2.62149c0.17563,0.92801 0.18713,1.41382 0.22168,2.38919c0.03506,0.9902 0.02133,1.98932 0.02133,2.98666c0,0.49365 0,1.461 0,2.38834c0,1.28098 -0.01227,2.05084 0.02133,2.79565c0.0351,0.7782 0.13147,1.64572 0.31201,2.65201c0.21359,1.19061 0.37115,1.83017 0.51733,2.49332c0.14847,0.67352 0.30368,1.34558 0.444,2.01001c0.38586,1.82712 0.48425,2.35321 0.591,3.28198c0.09152,0.79605 0.11298,1.86002 0.11432,2.90286c0.00095,0.73566 0,1.49933 0,2.28299c0,1.1955 0,1.99417 0,2.78482c0,0.77469 0,1.52533 0,2.92136c0,0.62131 0,1.63199 0,2.63733c0,0.9585 0,1.61081 0,2.33115c0,1.0155 0,1.64233 0,2.1875c0,0.74402 -0.0842,1.63544 0,2.66669c0.07224,0.8848 0.66492,1.83432 0.88599,2.21631c0.53848,0.93045 0.85028,1.45392 1.19736,1.992c0.71881,1.11438 1.0733,1.6824 1.91666,2.625c0.75693,0.84598 1.17813,1.17166 1.97916,1.72919c0.37704,0.26242 1.14304,0.68445 2.19983,1.3045c0.68231,0.40033 1.36475,0.83813 2.08801,1.314c1.23657,0.8136 1.69559,1.1308 2.18768,1.45233c1.03903,0.67892 1.58398,1.01749 2.14133,1.34665c0.5574,0.32922 2.23181,1.19989 2.78217,1.42233c1.04578,0.4227 1.56339,0.57062 2.53915,0.86835c0.46332,0.14136 1.76004,0.53809 2.51334,0.88132c0.71899,0.32758 1.38272,0.72754 2.052,1.116c1.03735,0.60211 1.78271,1.00958 2.60068,1.39868c0.43262,0.20581 1.36731,0.61789 2.41666,1c1.14505,0.41696 1.75665,0.59546 2.37601,0.77866c0.62268,0.18417 1.86395,0.51599 2.47198,0.65067c1.14838,0.25433 2.19543,0.40738 3.14401,0.52002c0.44525,0.05286 1.3078,0.09402 2.508,0.384c0.81113,0.19595 1.6059,0.52548 2.39999,0.888c0.80621,0.36804 1.60001,0.77866 2.39468,1.17599c0.76266,0.38132 1.45844,0.73651 2.53867,1.26932c0.76877,0.37918 1.7739,0.7742 2.42548,1.03867c0.72116,0.29269 1.42068,0.58936 2.41235,1.05167l-0.42319,0.24301" id="svg_5" stroke-width="2" stroke="#000" fill="none"/>
  <path t="6069,6225,6225,6225,6225,6225,6242,6242,6242,6293,6298,6298,6299,6308,6308,6325,6325,6325,6326,6365,6477,6496,6496,6496,6497,6525,6545,6546,6546,6546,6559,6578,6578,6578,6578,6578,6610,6610,6727,6744,6745,6745,6776,6812,6827,6828,6828,6828,6828,6860,6861,6861,6898,6908,6908,6908,6909,6924,6945,7026,7026,7026,7027,7058,7092,7114,7114,7126,7126,7127,7149,7149,7150,7150,7175,7194,7263,7263,7263,7264,7264,7279,7279,7279,7314,7344,7345,7345,7345,7358,7376,7391,7392,7392,7392,7393,7393,7393,7426,7426,7427,7427,7427,7428,7428,7442,7443,7444,7444,7445,7445,7445,7458,7475,7543,7549,7550,7550,7551,7551,7552,7552,7560,7560,7561,7561,7562,7562,7562,7563,7592,7593,7594,7594,7609,7625,7625,7626,7626,7627,7657,7675,7677,7693,7694,7695,7695,7695,7696,7725,7725,7726,7726,7726,7727,7733,7734,7734,7735,7761" d="m310,317c1.3215,7.69266 1.64636,8.6235 1.836,9.03067c0.35471,0.7616 0.77811,1.44077 1.36349,2.48999c0.39569,0.70923 1.32736,1.62531 1.30051,2.646c-0.01959,0.74512 -0.46252,1.30032 -0.48932,2.14267c-0.03836,1.20493 0.15762,1.96039 0.65314,2.79718c0.38718,0.65381 0.82755,1.36572 1.22101,2.073c0.54645,0.98233 0.11517,0.87384 0.11517,1.927c0,0.65231 0.03152,1.37314 0,2.38815c-0.03125,1.00681 -0.67227,1.72781 -1.0535,2.32135c-0.43539,0.67783 -0.741,1.42014 -1.41318,2.47998c-0.47302,0.74585 -1.03632,1.21042 -1.69598,1.85602c-0.3569,0.3493 -0.97452,1.16788 -2.004,1.84799c-0.72104,0.47635 -0.40668,0 0.58533,0c0.69733,0 1.75922,-0.82211 2.58133,0c0.15274,0.15274 0,1 0,1.70667c0,0.86667 0,1.81332 0,2.76001c0,1.24698 0.05457,1.89731 0,2.80099c-0.05411,0.89587 -0.66537,1.83792 -1.0535,2.49115c-0.42737,0.71933 -1.70749,1.40961 -1.27985,2.24118c0.13696,0.26636 0.83334,-0.66666 1.39136,-1.41068c0.44199,-0.58932 0.98999,-1.10794 1.57748,-2.10333c0.23901,-0.40497 -0.70563,-0.1377 -1.43149,0.12466c-1.04202,0.37665 -1.75961,0.68585 -2.46533,1.02533c-1.07794,0.51852 -1.70657,0.83676 -2.34668,1.17868c-0.86523,0.46219 -1.29141,1.61282 -0.50632,1.18533c0.83081,-0.45236 0.68246,-1.42316 0.97565,-2.14801c0.32269,-0.79785 0.6452,-1.6073 1.117,-2.68716c0.36664,-0.83917 0.68976,-1.42337 1.09366,-2.34482c0.4006,-0.91397 0.62976,-1.58029 0.92801,-2.29916c0.2912,-0.70181 0.99686,-1.73871 0.74799,-1.38751c-0.61218,0.86383 -1.74219,1.00616 -2.23917,1.28635c-0.539,0.30386 -1.10962,0.62817 -2.32599,1.284c-0.61978,0.33417 -1.84814,0.96573 -2.44,1.25381c-0.5722,0.2785 -1.68295,0.79953 -2.22198,1.06335c-0.53699,0.26282 -1.61774,0.80923 -2.6875,1.47916c-0.56122,0.35147 -1.11862,0.73383 -2.18402,1.54401c-0.50864,0.38681 -1.01849,0.72079 -1.76797,1.448c-0.87265,0.84671 0.01337,0.57663 0.63065,0.08133c0.82941,-0.6655 1.19785,-1.00128 2.104,-1.74268c0.50781,-0.41547 1.04651,-0.84988 1.61099,-1.29599c0.5795,-0.45795 1.77133,-1.3703 2.37234,-1.81299c0.59369,-0.43729 1.18527,-0.85645 2.31732,-1.68002c0.54059,-0.39328 1.06375,-0.76849 1.54202,-1.155c1.27994,-1.03433 1.91486,-1.70163 2.41632,-2.2825c0.56177,-0.6507 1.3515,-1.07104 2.45267,-1.61081c0.38635,-0.18939 1.20517,-0.71664 1.63068,-0.99335c0.81549,-0.53027 1.82397,-1.40601 1.28381,-1.12067c-0.7616,0.40231 -1.34949,1.228 -2.0235,1.90201c-0.388,0.388 -0.802,0.802 -1.68399,1.68399c-0.45599,0.45599 -1.36853,1.36749 -1.81284,1.81299c-0.85666,0.85901 -1.26938,1.27032 -2.03915,2.07501c-0.36618,0.38278 -1.34933,1.48001 -1.63919,1.82449l-0.7395,0.94351l-0.37466,0.52399l-0.38766,0.79218" id="svg_6" stroke-width="2" stroke="#000" fill="none"/>
  <path t="8023,8193,8193,8193,8193,8193,8193,8208,8209,8209,8209,8209,8209,8209,8243,8243,8243,8243,8243,8259,8259,8260,8279,8280,8280,8327,8343,8343,8344,8344,8344,8358,8359,8359,8359,8389,8390,8390,8390,8390,8390,8409,8409,8409,8409,8409,8410,8410,8449,8450,8450,8450,8450,8451,8451,8456,8457,8457,8462,8657,8658,8658,8874,8909,8909,8909,8910,8910,8926,8927,8927,8927,8928,8928,8942,9058,9075,9076,9076,9077,9077,9078,9078,9092,9093,9093,9141,9195,9244,9244,9244,9245,9245,9245,9250,9251,9251,9251,9259,9276,9391,9391,9392" d="m332,307c3.95715,9.67133 4.22726,10.29224 4.49017,10.866c0.48276,1.05353 0.72263,1.54291 0.95801,2.02133c0.71283,1.44882 0.97314,1.95535 1.50449,3.01801c0.27267,0.54532 0.54733,1.09467 1.09467,2.18933c0.26868,0.53732 0.78598,1.57199 1.26599,2.53201c0.43997,0.87997 0.64499,1.29001 1.02502,2.04999c0.64026,1.28036 0.87521,1.82852 1.28699,2.50201c0.64438,1.05396 2.21844,1.55182 1.72,2.16531c-0.23975,0.2951 -0.34534,0.65601 -0.34534,1.36267c0,0.86667 0,1.81332 0,2.29166c0,1.33502 0.08127,2.40799 -0.17999,3.23102c-0.17853,0.56238 -0.91147,1.43021 -1.60583,2.08051c-0.38547,0.36099 -1.2645,1.07938 -1.73666,1.44199c-0.48114,0.36951 -1.97659,1.42838 -2.47751,1.7655c-0.49908,0.33588 -1.50186,1.00079 -2,1.34399c-0.50189,0.34579 -1.02563,0.67596 -2.49951,1.88116c-0.50552,0.41336 -0.99091,0.8541 -1.46848,1.29752c-0.9317,0.86511 -1.36182,1.29614 -1.776,1.70667c-1.09467,1.08499 -1.67551,1.67282 -2.35202,2.34933c-0.73334,0.73334 -0.23999,1.12534 0.37201,1.32932c0.87201,0.29065 1.82935,0.53598 2.55734,0.24133c0.95404,-0.38614 1.35419,-0.54391 2.22,-0.95999c0.96201,-0.46231 1.95197,-1.03156 2.44565,-1.34885c0.98489,-0.633 1.44128,-0.9707 2.285,-1.59915c0.37494,-0.27927 1.60495,-0.95764 1.04935,-0.75867c-1.09839,0.39337 -1.60434,0 -2.66367,0c-0.59369,0 -1.21133,0 -2.46268,0c-0.60568,0 -2.17749,0 -2.9505,0c-0.78452,0 -0.80249,0.0145 -0.24451,-0.42667c0.83359,-0.65909 1.19543,-0.99509 2.06134,-1.72134c0.46875,-0.39316 0.94989,-0.79355 1.89334,-1.60266c0.86966,-0.74585 1.58847,-1.39313 2.17865,-1.91998c0.67697,-0.60434 1.46802,-1.15869 2.33383,-1.32935l0.02084,0.88535l0,0.81598l0,0.59735" id="svg_7" stroke-width="2" stroke="#000" fill="none"/>
  <path t="9691,9840,9841,9841,9841,9841,9841,9841,9841,9858,9858,9858,9858,9858,9858,9892,9892,9893,9893,9893,9893,9893,9910,9910,9910,9910,9910,9911,9911,9911" d="m281,307c2.83334,10.33334 3.07831,11.21365 3.31332,12.056c0.22498,0.80634 0.44086,1.57843 0.64502,2.319c0.19577,0.71011 0.56143,2.04736 0.875,3.29166c0.14853,0.58942 0.41342,1.71579 0.552,2.25067c0.2663,1.02789 0.36679,1.53949 0.948,2.91602c0.19162,0.45386 0.68576,1.32736 0.98132,1.75198c0.62341,0.8956 1.01147,1.33496 1.42932,1.784c1.40448,1.50931 1.9939,2.00421 2.59369,2.53152c0.62143,0.54633 1.28732,1.07831 1.97699,1.61249l0.71765,0.52417l0.74368,0.50916" id="svg_8" stroke-width="2" stroke="#000" fill="none"/>
  <path t="10225,10390,10391,10391,10391,10391,10391,10391,10391,10391,10408,10408,10408,10408,10408,10409,10409,10425,10425,10425,10425,10425,10426,10460,10460,10460,10460,10460,10461,10461,10475,10476,10476,10476,10476,10476,10477,10477,10477,10492,10492,10493,10493,10493,10493,10493,10493,10508,10509,10509,10509,10510,10510,10542,10542,10542,10542,10543,10543,10574,10575,10575,10575,10575,10579,10580,10580,10581,10592,10626,10626,10627,10808,10809,10826,10826,10826,10827,10827,10827,10827,10842,10843,10843,10843,10843,10844,10876,10877,10877,10877,10877,10878,10878,10892,10892,10893,10893,10893,10894,10894,10895,10895,10909,10910,10910,10910,10910,10911,10911,10911,10912,10925,10926,10926,10926,10927,10927,10928,10928,10928" d="m358,359c12.33334,0.5 13.4158,0.6503 14.452,0.85333c0.99954,0.19583 1.95282,0.4252 2.8605,0.66751c0.86694,0.23145 1.68436,0.47607 2.45551,0.71249c1.39993,0.4292 2.02377,0.6272 2.608,0.79468c0.54617,0.15659 1.06009,0.31348 2.04266,0.51465c0.94089,0.19263 1.9137,0.30441 2.952,0.37201c0.54324,0.03537 1.67096,0.0665 2.25067,0.07465c0.58765,0.00824 2.37866,0.01068 2.979,0.01068c0.60233,0 1.82098,0 2.44131,0c0.63034,0 1.27267,0 3.29169,0c0.7095,0 1.436,0 2.17648,0c0.7515,0 1.51102,0 2.27551,0c0.76648,0 1.53198,0.00049 3.048,0c0.74481,-0.00024 1.47913,0.01337 2.90933,-0.03201c0.69513,-0.02206 1.37585,-0.06454 2.03848,-0.1395c0.64822,-0.07333 2.48007,-0.48007 3.04684,-0.68317c0.55777,-0.19986 1.61313,-0.6799 2.11465,-0.94131c0.97656,-0.509 1.88388,-1.05014 2.77469,-1.51468c0.43127,-0.22491 1.2919,-0.64185 2.19247,-0.91333c0.45438,-0.13696 1.93277,-0.33267 2.99103,-0.31799c0.5394,0.00748 1.07748,0.07819 2.13666,0.08398c1.46307,0.00803 2.31735,-0.15076 3.01184,-0.42865c0.59082,-0.23639 1.45728,-1.0773 2.172,-1.11334c0.79849,-0.04025 2.76797,1.12399 2.76797,0c0,-0.672 -1.76083,0 -2.26797,0c-1.17734,0 -1.8255,0 -2.49869,0c-0.68716,0 -1.37732,0 -3.35834,0c-0.60965,0 -1.19733,0 -2.32266,0c-0.54565,0 -1.62299,0 -2.70831,0c-1.12268,0 -1.70401,0 -2.30133,0c-1.25067,0 -1.90802,0 -2.58936,0c-1.44266,0 -2.20685,0.00238 -2.996,-0.004c-0.80917,-0.00653 -1.63364,-0.02066 -2.4675,-0.0585c-0.83951,-0.03809 -1.68054,-0.08929 -2.51248,-0.19351c-1.63864,-0.20526 -2.42719,-0.39545 -3.19733,-0.59998c-0.76306,-0.20267 -1.51062,-0.44455 -2.2485,-0.70651c-0.73819,-0.26205 -1.46979,-0.54904 -2.20352,-0.84149c-1.48553,-0.59207 -2.23801,-0.89838 -3.004,-1.19467c-0.77402,-0.29941 -1.56,-0.59067 -2.35498,-0.88049l-0.80502,-0.28485l-0.81497,-0.27884l-0.82501,-0.27182" id="svg_9" stroke-width="2" stroke="#000" fill="none"/>
  <path t="11786,12375,12862,12877,12877,12877,12877,12927,13026,13027,13028,13042,13043,13043,13059,13142,13175,13176,13176,13199,13208,13208,13208,13208,13225,13259,13280,13281,13281,13281,13281,13292,13329,13329,13329,13329,13342,13343,13343,13361,13410,13426,13427,13427,13427,13443,13461,13492,13493,13493,13493,13525,13631,13632,13632,13632,13661,13808,13827,13827,13829,13844,13910,13928,13929,13929,13929,13941,13964,14012,14029,14029,14029,14030,14030,14076,14076,14077,14095" d="m331,202c7.31732,0 8.17999,0 9.10651,0c0.65231,0 1.73083,0 2.38815,0c0.52618,0 -0.35065,-0.28532 -1.05716,-0.52083c-0.55099,-0.18365 -1.73343,-0.58887 -2.58417,-0.85783c-0.82364,-0.26041 -0.5972,0.20114 0.29068,0.37866c0.97272,0.19449 1.55731,0 2.44531,0c1.2045,0 2.24402,0 2.82935,0c0.69733,0 2.42297,0.93532 2.7525,0c0.1145,-0.32501 -0.67117,-1 -1.02185,-1.70134c-0.41464,-0.82933 -0.76654,-1.71446 -1.21198,-2.424c-0.44427,-0.70766 -1.15973,-0.08334 -1.77136,0.011c-0.74405,0.11478 -1.57861,0.10983 -2.83264,0.11433c-0.75867,0.00272 -1.74402,-0.18039 -2.83334,0c-0.69986,0.11589 -1.164,0.88533 -1.776,1.70134c-0.448,0.59732 -1.51001,0.93663 -1.55249,2.06999c-0.01776,0.47356 1.24823,0.79407 1.94449,1.07933c0.72244,0.29599 2.30988,0.36011 2.00549,1.14934c-0.3436,0.89087 -1.54016,0 -2.60065,0c-0.70035,0 -1.8587,-0.07797 -1.1795,0.17067c0.83429,0.30542 1.35999,0.67999 2.24799,1.12399c0.92468,0.46234 1.06769,0.70534 0.08301,0.70534c-0.77933,0 -1.63068,0 -2.44199,0c-1.05869,0 -0.34467,0 0.36697,0c0.95169,0 1.86234,0 2.35867,0c0.99466,0 1.88535,0 3.04401,0l0.77335,0l0.82498,0l1.06033,0" id="svg_10" stroke-width="2" stroke="#000" fill="none"/>
 </g>
 <g display="none">
  <title>muse_image</title>
  <image xlink:href="http://farm4.static.flickr.com/3414/3303402439_50fbd68596.jpg" id="muse" height="480" width="318" y="0" x="161"/>
 </g>
 <g display="none">
  <title>bbox</title>
  <rect stroke="#f00" fill="none" stroke-width="3" height="172.8" width="93.86747" y="198.72" x="284.56024" id="bbox"/>
 </g>
</svg>
