<svg width="640" height="480" xmlns="http://www.w3.org/2000/svg" xmlns:svg="http://www.w3.org/2000/svg" xmlns:xlink="http://www.w3.org/1999/xlink">
 <!-- Sketchy ANNOTATION
  ImageNet ID: n01530575_10475
  URL: http://farm4.static.flickr.com/3140/3111572852_63079e3962.jpg
  Image Width: 500
  Image Height: 333
  BBox X: 18
  BBox Y: 39
  BBox Width: 431
  BBox Height: 242
  Exposure: 2000ms
  Synset Label: songbird
  Synset ID: n01526521
  Worker Tag: songbird sitting alone
  Sanity Check: 
   Saved
  Comment: 
   {}
  Worker ID: A1P7U2ULSAE7YL
  Assignment ID: 3JV9LGBJWTENQ6XS8JUD0RVKE0HOGW
  HIT ID: 374UMBUHN5POZ2O1CCFRFQL7B7GCTA
  Work Time: 69s
  Worker Score: 0.7857
 END ANNOTATION -->
 <g display="inline">
  <title>Layer 1</title>
  <path t="0,229,237,276,300,333,357,396,421,421,429,445,453,469,485,493,509,517,533,549,557,573,581,589,597,606,629,637,645,653,669,677,701,701,725,749,757,781,781,797,821,821,837,869,893,909,925,925,949,965,975,989,1005,1013,1029,1037,1060,1069,1077,1077,1101,1109,1125,1141,1157,1165,1181,1190,1190,1197,1213,1229,1244,1245,1261,1277,1285,1285,1301,1309,1325,1341,1365,1373,1397,1412,1413,1438,1445,1469,1493,1501,1533,1533,1541,1596,1605,1605,1628,1637,1645,1653,1684,1724,1748,1797,1804,1844,1861,1869,1885,1909,1932,1932,1964,1988,2005,2013,2029,2053,2069,2093,2093,2109,2132,2141,2165,2172,2189,2205,2229,2229,2268,2276,2300,2316,2325,2365,2404,2700,2732,2748,2748,2764,2774,2781,2796,2804,2820,2829,2837,2860,2870,2877,2900,2932,2941,2964,2964,2988,2996,3012,3020,3037,3061,3070,3077,3100,3124,3148,3165,3196" d="m386,162c0,-1.7 0,-2.60001 0,-3.5c0,-0.89999 0,-1.8 0,-2.7c0,-0.90001 -0.02536,-1.8004 0,-2.60001c0.02859,-0.90135 0.54208,-1.64569 1.2955,-2.14732c0.68924,-0.45892 0.71518,-1.442 1.2045,-2.05267c0.48932,-0.61067 0.45087,-1.56615 1.11066,-2.02533c0.72632,-0.50549 1.68066,-0.76093 2.33667,-1.32733c0.59241,-0.51149 1.63614,-0.40829 2.03183,-1.16817c0.4014,-0.77081 0.57169,-1.41928 1.32083,-1.83183c0.83856,-0.46179 1.30899,-1.15457 2.05719,-1.59018c0.73013,-0.42509 1.69974,-0.34686 2.34283,-0.7045c0.85312,-0.47441 1.64624,-0.87444 2.39999,-1.23132c0.85406,-0.40437 1.45233,-0.78441 2.19998,-1.41684c0.75577,-0.6393 1.53455,-0.50787 2.40002,-0.76166c0.87744,-0.25729 1.60852,-0.80731 2.5,-0.94417c0.91577,-0.14058 1.45407,-0.80855 2.39999,-0.98801c0.88428,-0.16777 1.79999,-0.01067 2.69998,-0.01067c0.90002,0 1.80441,0.08868 2.70001,0c0.8457,-0.08374 1.28201,-0.95728 2.10001,-1c0.89877,-0.04694 1.69998,0 2.60001,0c0.89999,0 1.79999,0 2.69998,0c0.89999,0 1.80002,0 2.70001,0c0.89999,0 1.69998,0 2.60001,0c0.89999,0 1.82083,0 2.784,0c0.69064,0 1.75882,0 2.616,0c0.89999,0 1.69998,0 2.60001,0c0.89999,0 1.79999,0 2.69998,0c0.89999,0 1.80002,0 2.70001,0c0.89999,0 1.73441,-0.19597 2.60001,0.05716c0.87762,0.25664 1.5986,0.91425 2.5,0.94284c0.89954,0.02853 1.80084,-0.03719 2.59998,0c0.91766,0.04271 1.42053,0.88577 2.30002,1.00017c0.69925,0.09096 1.56537,0.46564 2.28934,0.9745c0.7153,0.50279 1.31525,1.01247 2.21066,1.02533c0.8793,0.01262 1.33661,0.77478 2.10449,0.9955c0.86069,0.24738 1.7955,0.0045 2.6955,0.0045c0.89999,0 1.80002,0 2.70001,0c0.89999,0 1.69998,0 2.60001,0c0.89999,0 1.79999,0 2.69998,0c0.89999,0 1.80002,0 2.70001,0c0.89999,0 1.69998,0 2.60001,0c0.89999,0 1.79999,0 2.69998,0c0.89999,0 1.80002,0 2.70001,0c0.89999,0 1.69998,0 2.60001,0c0.89999,0 1.79999,0 2.69998,0c0.89999,0 1.80002,0 2.70001,0c0.89999,0 1.89267,0.21318 1.89984,1.10001c0.00571,0.70514 -0.47534,1.55869 -0.97452,2.28932c-0.46219,0.67647 -1.39978,0.91214 -1.90399,1.71051c-0.4866,0.77048 -0.87115,1.52303 -1.64218,1.87933c-0.78891,0.36456 -1.56323,0.43536 -2.1265,1.0735c-0.52554,0.5954 -1.02875,1.35414 -1.70984,1.89465c-0.62024,0.4922 -1.38861,0.91496 -2.04282,1.442c-0.7453,0.60045 -1.83215,0.36644 -2.51599,0.89467c-0.6275,0.48471 -1.28403,0.716 -2.18402,0.716c-0.89999,0 -1.77866,0.22133 -2.18399,0.916l-0.69067,0.50934l-0.54617,0.57466l-0.77914,0.35266" id="svg_1" stroke-width="2" stroke="#000" fill="none"/>
  <path t="3854,3916,3940,3959,3959,3973,3976,3998,4022,4038,4053,4053,4086,4126,4134,4150" d="m470,147c1.2215,-0.87849 2.15347,-0.81866 3,-1.16667c0.67108,-0.27589 1.49982,-0.82291 2.39999,-0.83333c0.89993,-0.01041 1.80002,0 2.70001,0c0.89999,0 1.69998,0 2.60001,0l0.89999,0l0.89999,-0.02083l0.79999,-0.33633" id="svg_2" stroke-width="2" stroke="#000" fill="none"/>
  <path t="4942,5045,5054,5070,5070,5086,5109,5126,5126,5141,5149,5157,5173,5173,5181,5189,5197,5205,5221,5229,5238,5245,5245,5253,5261,5269,5285,5293,5301,5318,5325,5326,5334,5351,5357,5358,5373,5381,5397,5413,5413,5422,5429,5446,5453,5462,5477,5485,5485,5493,5494,5501,5509,5518,5525,5534,5534,5541,5542,5550,5558,5565,5565,5573,5581,5581,5589,5597,5597,5605,5605,5605,5613,5622,5622,5629,5638,5638,5645,5645,5646,5654,5661,5669,5669,5677,5678,5693,5701,5709,5725,5725,5734,5741,5742,5757,5766,5766,5781,5781,5789,5789,5797,5797,5805,5813,5813,5821,5829,5830,5838,5845,5845,5853,5861,5862,5870,5877,5878,5885,5893,5901,5901,5910,5917,5925,5934,5934,5941,5950,5967,5967,5973,5973,5989,5989,5997,5997,6005,6013,6021,6021,6029,6037,6045,6045,6053,6062,6070,6077,6085,6101,6101,6109,6117,6117,6126,6133,6133,6142,6142,6150,6150,6167,6167,6174,6181,6189,6197,6197,6205,6213,6214,6221,6230,6230,6238,6238,6246,6253,6262,6270,6270,6285,6285,6294,6294,6309,6309,6317,6317,6326,6334,6342,6342,6350,6358,6358,6373,6373,6382,6389,6397,6397,6405,6405,6413,6421,6421,6429,6429,6438,6438,6445,6446,6454,6454,6461,6461,6477,6477,6485,6493,6494,6502,6502,6509,6509,6517,6517,6525,6533,6533,6541,6550,6557,6557,6566,6566,6574,6583,6589,6590,6598,6606,6606,6613,6629,6638,6638,6654,6654,6662,6677,6687,6694,6703,6710,6717,6717,6726,6741,6742,6750,6750,6758,6758,6767,6774,6783,6798,6813,6814,6822,6822,6830,6838,6846,6854,6869,6870,6878,6878,6887,6894,6909,6909,6919,6926,6935,6936,6942,6942,6950,6950,6958,6966,6966,6974,6974,6983,7000,7006,7006,7014,7014,7022,7030,7038,7038,7046,7054,7069,7077,7085,7086,7094,7109,7117,7118,7126,7141,7141,7181,7197,7213" d="m473,155c-0.87851,1.2215 -1,2.10001 -1,3c0,0.8 0,1.7 0,2.636c0,0.84799 0,1.71133 0,2.60683c0,0.95717 0,1.85718 0,2.75717c0,0.8 0,1.7 0,2.60001c0,0.89999 0,1.79999 0,2.7c0,0.89999 0,1.8 0,2.7c0,0.8 0,1.7 0,2.60001c0,0.89999 0,1.79999 0,2.7c0,0.89999 0,1.8 0,2.7c0,0.8 0,1.7 0,2.636c0,0.84799 0,1.71133 0,2.60683c0,0.95717 0,1.85718 0,2.75717c0,0.8 0,1.7 0,2.60001c0,0.89999 0,1.79999 0,2.7c0,0.90134 0,1.86667 0,2.52533c0,1.008 0,1.87016 0,2.77467c0,0.89999 0.09546,1.84453 -0.284,2.59999c-0.43558,0.86722 -0.71375,1.55716 -0.716,2.45267c-0.00217,0.86334 0.05841,1.86319 -0.35266,2.64734c-0.44449,0.84792 -0.64426,1.5 -0.64734,2.45717c-0.00287,0.89549 -0.0434,1.77666 -0.42532,2.61749c-0.36847,0.81117 -0.50269,1.66118 -0.74133,2.62534c-0.19955,0.8063 -0.65527,1.49097 -0.79733,2.37466c-0.15036,0.93535 0.04996,1.80406 -0.03735,2.74001c-0.08365,0.89674 -0.64621,1.52048 -1.31982,2.20667c-0.49414,0.50337 -1.31088,1.10519 -1.60684,2.04266c-0.28406,0.89984 -0.16025,1.84157 -0.59283,2.61517c-0.409,0.73141 -1.31488,1.16035 -1.45831,2.04166c-0.15384,0.9453 -0.41565,1.60388 -0.85419,2.3125c-0.45581,0.73653 -0.11963,1.78259 -0.16666,2.66667c-0.04272,0.80341 -0.53384,1.48763 -1.20001,2.20134c-0.51013,0.54654 -1.15115,1.4324 -1.44281,2.20316c-0.29361,0.77592 -0.26392,1.85178 -0.79984,2.57401c-0.44644,0.60165 -1.38586,1.10518 -1.55734,2.0215c-0.14798,0.79082 -0.54181,1.4803 -1.19867,2.2c-0.53348,0.58452 -0.75977,1.43694 -0.80582,2.45267c-0.03156,0.69595 -0.33374,1.60666 -0.99551,2.34734c-0.54865,0.61407 -0.84387,1.46405 -1.28534,2.2c-0.4071,0.67862 -1.30975,1.2429 -1.66199,2.10451c-0.33664,0.82346 -0.42346,1.81311 -1.1525,2.45267c-0.63153,0.55399 -1.24438,1.03329 -2.00018,1.46432c-0.6691,0.38156 -1.39957,1.11316 -1.77866,1.87851c-0.4194,0.84677 -0.75479,1.47839 -1.42133,2.2045c-0.51825,0.56461 -1.05887,1.32635 -1.34283,2.10001c-0.3548,0.96667 -0.16306,2.1532 -0.87802,2.55383c-0.77762,0.43573 -1.84189,0.18488 -2.45831,0.5625c-0.92804,0.56854 -1.50226,1.23495 -1.89951,1.92181c-0.43536,0.75278 -0.75089,1.53424 -1.14667,2.168c-0.46872,0.75058 -0.67276,1.77036 -1.33185,2.33667c-0.68875,0.5918 -1.44312,0.8537 -2.04282,1.45267c-0.70035,0.69949 -1.27991,1.29318 -2.12085,1.60001c-0.94403,0.34445 -1.72873,0.56631 -2.45764,1.32117c-0.435,0.4505 -1.10602,1.22604 -1.73618,1.76151c-0.7413,0.62988 -1.39282,0.71844 -2.17551,1.26999c-0.67645,0.47668 -1.34619,1.10928 -2.10983,1.48068c-0.75391,0.36667 -1.53101,0.65701 -2.19867,1.36667c-0.54224,0.57635 -0.84677,1.5722 -1.51117,2.09998c-0.59229,0.47049 -1.48047,1.09875 -2.17416,1.41467c-0.87939,0.40048 -1.70126,0.68039 -2.40134,1.20132c-0.69815,0.5195 -1.44135,0.83673 -2.19998,1.28268c-0.70013,0.41156 -1.71875,0.65527 -2.49384,0.80133c-1.00604,0.18961 -1.63089,0.63318 -2.34201,1.10001c-0.80109,0.52591 -1.24188,1.37085 -1.96548,1.81467c-0.75366,0.46228 -1.8945,-0.22107 -2.60352,0.4425c-0.59378,0.55573 -0.84009,1.40378 -1.76251,1.58566c-0.84879,0.16736 -1.84906,0.02655 -2.65182,0.40982c-0.89078,0.42529 -1.69531,0.6369 -2.52884,0.64734c-0.86209,0.01077 -1.80264,0 -2.65198,0c-0.72534,0 -1.91336,-0.00055 -2.67868,0c-0.952,0.00067 -1.74475,0.02493 -2.66135,0.436c-0.71292,0.3197 -1.39877,0.89505 -2.05865,1.36398c-0.74854,0.53195 -1.50104,0.92807 -2.51468,1.11469c-0.75626,0.13922 -1.84872,0.07382 -2.76797,0.08533c-0.83353,0.01044 -1.69028,0.12698 -2.45868,0.61066c-0.71994,0.45316 -1.33362,0.98956 -2.35315,1.26785c-0.79968,0.21829 -1.6575,0.12149 -2.67419,0.12149c-0.69464,0 -1.71133,0 -2.65182,0c-0.86215,0 -1.6955,0 -2.67398,0c-0.82019,0 -1.73315,-0.11545 -2.6575,0.03601c-0.871,0.14273 -1.50491,0.5722 -2.25867,1.25949c-0.67667,0.617 -1.45718,0.70224 -2.34818,0.7045c-0.95718,0.00241 -1.85733,0 -2.64252,0c-0.94,0 -1.63065,0 -2.70398,0c-0.91068,0 -1.81067,0 -2.71066,0c-0.90002,0 -1.80002,0 -2.70001,0c-0.79999,0 -1.63669,0.03366 -2.65717,-0.00449c-0.74869,-0.02798 -1.74066,-0.28177 -2.50684,-0.57019c-0.81357,-0.30624 -1.63467,-0.42465 -2.53601,-0.42532c-0.89999,-0.00067 -1.82083,0.02579 -2.60449,-0.35266c-0.88889,-0.42926 -1.69534,-0.6369 -2.67398,-0.64734c-0.71698,-0.00763 -1.64072,0.16519 -2.52151,-0.02084c-0.84738,-0.17899 -1.59387,-0.91827 -2.5,-0.97916c-0.75546,-0.05075 -1.67322,0.11853 -2.51599,-0.08533c-0.88803,-0.21481 -1.681,-0.87195 -2.58417,-0.91467c-0.7843,-0.03708 -1.81787,0.25671 -2.65717,-0.22134c-0.73029,-0.41599 -1.42966,-0.72333 -2.35867,-0.78c-0.77115,-0.04703 -1.69348,-0.465 -2.39999,-0.71466c-0.96567,-0.34125 -1.80252,-0.5123 -2.48401,-0.784c-0.97455,-0.38852 -1.83191,-0.30774 -2.70001,-0.55716c-0.89639,-0.25754 -1.62967,-0.77917 -2.47464,-0.96817c-0.95178,-0.21286 -1.46796,-0.73816 -2.22534,-1.36401c-0.65833,-0.54398 -1.63824,-0.4371 -2.39999,-0.69598c-0.88794,-0.30176 -1.59949,-0.896 -2.5,-0.91467c-0.89984,-0.01868 -1.75085,-0.30084 -2.40002,-0.64734c-0.84937,-0.45334 -1.82101,-0.33521 -2.62115,-0.35281c-0.81808,-0.01801 -1.59277,-0.68475 -2.38867,-0.94269c-0.76999,-0.24954 -1.7485,-0.078 -2.31549,-0.63184l-0.62201,-0.53516" id="svg_3" stroke-width="2" stroke="#000" fill="none"/>
  <path t="8334,8406,8414,8414,8421,8431,8431,8438,8454,8461,8477,8478,8486,8501,8518,8535,8557,8557,8597" d="m387,154c-1.2215,0.87866 -2.21576,1.11649 -2.64282,1.7045c-0.52362,0.72098 -0.55457,1.82971 -0.96783,2.43417c-0.57385,0.83932 -1.37769,1.1821 -1.88934,1.88216c-0.48331,0.66125 -0.14191,1.5759 -0.52084,2.4375c-0.32938,0.74892 -1.3685,0.97768 -1.89514,1.74167l-0.30536,0.90001l-0.42599,0.59999l-0.35266,0.8" id="svg_4" stroke-width="2" stroke="#000" fill="none"/>
  <path t="9325,9461,9478,9485,9493,9502,9510,9518,9525,9541,9541,9565,9573,9582,9589,9598,9605,9613,9630,9630,9637,9638,9646,9654,9663,9663,9670,9670,9678,9693,9694,9709,9710,9725,9726,9733,9742,9751,9758,9758,9766,9789,9790,9801,9806,9817,9821,9830,9830,9838,9838,9847,9847,9854,9854,9863,9863,9870,9870,9878,9878,9886,9886,9893,9894,9902,9902,9910,9910,9918,9926,9926,9934,9934,9942,9942,9950,9950,9958,9958,9967,9967,9974,9974,9984,9984,9984,9984,9990,9990,10001,10001,10006,10006,10016,10022,10022,10030,10030,10037,10038,10046,10046,10053,10054,10063,10063,10070,10070,10070,10079,10079,10086,10094,10094,10102,10117,10125,10125,10134,10141,10150,10150,10157,10158,10166,10166,10173,10173,10182,10189,10189,10199,10199,10205,10213,10213,10221,10221,10229,10229,10237,10237,10245,10245,10253,10253,10262,10269,10279,10279,10293,10293,10309,10309,10317,10317,10325,10325,10325,10349,10357,10357,10373,10373,10382,10382,10397,10416,10416,10421,10431,10431,10437,10453,10462,10462,10469,10469,10470,10478,10486,10495,10501,10501,10509,10517,10533,10541,10541,10565,10581,10589,10605,10613,10621,10632,10637,10909,10917,10934,10950,10957,10965,10973,10973,10981,10982,10989,10989,10997,10997,11005,11005,11015,11016,11016,11021,11021,11021,11031,11032,11032,11037,11037,11045,11045,11061,11061,11069,11085,11085,11101,11111,11111,11126,11134,11141,11150,11157,11166,11173,11182,11182,11189,11197,11197,11205,11215,11221,11229,11237,11237,11248,11253,11265,11269,11270,11278,11285,11286,11294,11294,11302,11311,11318,11318,11325,11326,11334,11350,11350,11357,11366,11366,11382,11398,11398,11405,11413,11413,11430,11437,11437,11445,11453,11453,11462,11469,11477,11485,11494,11501,11501,11511,11517,11533,11541,11549,11549,11557,11566,11573,11582,11582,11589,11589,11605,11605,11613,11621,11637,11649,11649,11653,11661,11669,11669,11677,11685,11685,11701,11710,11717,11717,11727,11733,11741,11750,11757,11757,11766,11766,11773,11782,11789,11798,11798,11805,11805,11815,11815,11821,11821,11829,11829,11845,11845,11853,11864,11865,11869,11880,11880,11885,11885,11894,11901,11910,11910,11910,11917,11927,11927,11927,11933,11941,11941,11941,11950,11957,11957,11966,11966,11973,11974,11974,11981,11982,11990,11990,11990" d="m384,161c-1.70001,0 -2.60001,0 -3.5,0c-0.89999,0 -1.79999,-0.0006 -2.70001,0c-0.99866,0.00067 -1.547,0.53171 -2.36932,0.91467c-0.71313,0.33211 -1.67349,0.08533 -2.63068,0.08533c-0.89999,0 -1.9379,-0.32179 -2.63333,0.16667c-0.71518,0.50232 -1.26666,0.83333 -2.16666,0.83333c-0.75717,0 -1.65274,-0.00934 -2.51599,0c-0.96335,0.01042 -1.7204,0.50328 -2.65067,0.83333c-0.7973,0.28287 -1.66684,0.15018 -2.52884,0.16667c-0.94101,0.01801 -1.79608,0.27174 -2.51517,0.61067c-0.9982,0.47047 -1.53979,0.88435 -2.62268,1.22266c-0.73679,0.23018 -1.66666,0.16667 -2.56665,0.16667c-0.90451,0 -1.77722,-0.11139 -2.57916,0.02083c-0.87976,0.14505 -1.13348,1.21555 -1.7825,1.62201c-0.7944,0.49751 -1.77475,0.64531 -2.405,1.19049c-0.61343,0.53064 -1.14792,1.19356 -1.85419,1.66667c-0.7926,0.53096 -1.43558,1.02448 -2.07932,1.59984c-0.63553,0.56801 -1.59216,0.7299 -2.24716,1.00999c-0.99228,0.42432 -1.31616,1.33492 -2.13669,1.72084c-0.80563,0.37892 -1.78827,0.50214 -2.39999,1.056c-0.62692,0.56763 -1.22498,1.34834 -2.09467,1.87067c-0.60873,0.36559 -1.50055,0.81644 -2.02133,1.24266c-0.82587,0.67592 -1.65598,0.90578 -2.39999,1.436c-0.78574,0.55995 -1.17545,1.18961 -1.90451,1.864c-0.56262,0.52043 -1.3624,0.97627 -2.04282,1.39999c-0.92035,0.5731 -1.53702,1.185 -2.13669,1.784c-0.5163,0.51572 -1.3493,1.34937 -1.88,1.88c-0.7363,0.73622 -1.29602,1.28725 -1.96933,1.80267c-0.66061,0.50572 -1.43695,1.01941 -1.89865,1.43466c-0.83908,0.7547 -1.32013,1.61958 -1.93466,2.23199c-0.59326,0.59123 -1.48792,1.17339 -1.8815,1.86667c-0.45874,0.80807 -1.05185,1.40001 -1.65186,2c-0.71066,0.71066 -1.18533,1.18532 -1.95267,1.95267c-0.52197,0.522 -1.35739,1.29741 -1.82648,1.84734c-0.66818,0.78333 -0.97858,1.52687 -1.52084,2.33333c-0.465,0.69154 -1.01926,1.3222 -1.39999,2.00267c-0.42166,0.75362 -0.80142,1.82199 -1.30002,2.44966c-0.59543,0.74957 -1.61929,0.90233 -2.01465,1.51567c-0.5202,0.80699 -0.8009,1.70381 -1.38535,2.29868c-0.59467,0.60527 -1.39957,1.23465 -1.77866,2c-0.4194,0.84677 -0.76743,1.51244 -1.32135,2.38399c-0.4281,0.67361 -0.87247,1.51811 -1.39999,2.10535c-0.6666,0.74207 -1.20065,1.20999 -1.89999,1.91066c-0.69934,0.70067 -1.22031,1.23447 -1.44733,2.15266c-0.20981,0.84854 -0.48248,1.71698 -1.15268,2.44751c-0.49545,0.54004 -1.06186,1.41029 -1.53598,2.07449c-0.49142,0.68843 -1.33353,1.0226 -2.03067,1.82533c-0.47537,0.54738 -0.57825,1.50452 -0.944,2.17467c-0.53116,0.97325 -1.00598,1.53236 -1.41467,2.42534c-0.37619,0.82196 -0.79755,1.56883 -0.97467,2.39999c-0.20917,0.98138 -0.66916,1.58812 -1.19867,2.48534c-0.41278,0.69942 -0.58313,1.52637 -0.78665,2.304c-0.27866,1.06461 -0.88635,1.55945 -1.53201,2.00932c-0.85007,0.5923 -1.30551,1.37018 -1.48267,2.20134c-0.20914,0.98122 -0.60526,1.5946 -1.29999,2.3c-0.49619,0.5038 -1.31763,1.16563 -1.57852,2.02133c-0.25095,0.82309 -0.07446,1.79459 -0.12149,2.67867c-0.04272,0.80341 -0.65485,1.56516 -0.97467,2.41066c-0.33383,0.88255 -0.47131,1.67055 -1.19199,2.42267c-0.5795,0.60475 -1.15533,1.06212 -1.84802,1.73067c-0.60828,0.58707 -1.50516,0.93698 -2.08514,1.53601c-0.5629,0.58139 -0.89175,1.51779 -1.3255,2.29999c-0.4548,0.82016 -0.41751,1.73785 -0.66,2.39999c-0.32913,0.89871 -1.14761,1.59641 -1.91467,2.03336c-0.77988,0.44424 -0.56573,1.39908 -1.16666,2c-0.60092,0.60092 -1.84222,0.25281 -2.116,1.08133c-0.02689,0.08139 0.88266,0.08533 1.78265,0.08533c0.89999,0 1.79999,0 2.70267,0c0.76801,0 1.80267,0 2.54666,0c1.10785,0 1.86533,0 2.73599,0c0.91919,0 1.91467,0 2.71469,0c1.00015,0 1.82083,0 2.48532,0c1,0 1.83551,0 2.716,0c0.8985,0 1.78799,0 2.64151,0c1.03549,0 1.9155,0 2.93582,0c0.77399,0 1.67401,0 2.53732,0c0.85867,0 1.80533,0 2.65866,0c0.94,0 1.82535,0 2.62534,0c0.90002,0 1.80002,0 2.70001,0c0.89999,0 1.79999,0 2.70001,0c0.89999,0 1.79999,0 2.59998,0c0.95718,0 1.85269,0 2.716,0c0.96317,0 1.784,0 2.68402,0c0.89999,0 1.79999,0 2.59998,0c0.90002,0 1.80002,0 2.72086,0c0.96317,0 1.66226,0.12973 2.72198,-0.00449c0.87732,-0.11111 1.4841,-0.75873 2.40985,-0.93835c0.84927,-0.16479 1.82648,-0.0571 2.65182,-0.05716c1.01682,-0.00009 1.74243,0.13901 2.67398,-0.22134c0.77783,-0.3009 1.55969,-0.72537 2.50552,-1.06265c0.70578,-0.25168 1.6311,-0.62616 2.51599,-0.716c0.80042,-0.08127 1.47751,-0.61966 2.48267,-0.91599c0.63791,-0.18805 1.44565,-0.72498 2.22266,-1.03134c0.6879,-0.27121 1.44897,-0.96893 2.29468,-1.05267c0.79608,-0.07883 1.63742,0.04984 2.64816,-0.00449c0.78552,-0.04221 1.44934,-0.6839 2.15317,-1.07953c0.81711,-0.45929 1.60852,-0.78152 2.49866,-0.92047c0.81897,-0.12784 1.52402,-0.65323 2.40002,-1.04819c0.7229,-0.32593 1.50464,-0.82239 2.39999,-0.94748c0.90646,-0.12665 1.55368,-0.79498 2.39999,-0.979c0.87997,-0.19135 1.62274,-0.43921 2.5,-0.85419c0.71259,-0.3371 1.67255,-0.48666 2.34732,-0.87115c0.793,-0.45183 1.47943,-0.9431 2.35269,-1.34818c0.83145,-0.38568 1.65945,-0.76044 2.39999,-1.16882c0.6745,-0.37196 1.23462,-1.284 2.10001,-1.6945c0.75745,-0.3593 1.45795,-0.83447 2.09998,-1.3795c0.75473,-0.6407 1.5545,-0.71384 2.30002,-1.31517c0.6539,-0.52742 1.43091,-1.14131 2.10001,-1.442c0.8291,-0.37259 1.0864,-1.39462 1.73599,-1.922c0.73355,-0.59554 1.56375,-1.02557 2.064,-1.52533c0.69968,-0.69901 1.32748,-1.14894 2.20001,-1.55267c0.71582,-0.33122 1.05008,-1.25964 1.63333,-1.94733c0.539,-0.63553 1.44055,-1.09346 1.74933,-1.88533c0.2951,-0.75674 0.59827,-1.54558 1.57001,-2.00934c0.65509,-0.31265 1.59976,-0.8085 2.04282,-1.45717c0.51584,-0.75523 1.10416,-1.44716 1.7045,-2.04816c0.69962,-0.70039 1.20001,-1.20001 1.89999,-1.90001c0.70001,-0.70001 1.20001,-1.19998 1.90002,-1.89999c0.59998,-0.59999 1.38998,-1.24211 1.71597,-2.00134c0.39349,-0.91644 0.47849,-1.64761 0.88535,-2.31467c0.54507,-0.89365 1.20554,-1.64653 1.59866,-2.30933c0.40717,-0.68648 1.0463,-1.51631 1.60001,-2.34134c0.42639,-0.63531 0.65723,-1.36826 1,-2.3125c0.30685,-0.84534 0.81418,-1.39793 1.3045,-2.17799c0.46497,-0.73973 1.00262,-1.55511 1.52084,-2.13217c0.50833,-0.56604 1.29065,-1.328 1.92731,-2.02049l0.56885,-0.733l0.5145,-0.71851l0.37466,-0.524" id="svg_5" stroke-width="2" stroke="#000" fill="none"/>
  <path t="12957,13037,13045,13045,13053,13053,13053,13053,13053,13061,13061,13061,13061,13061,13069,13069,13069,13069,13069,13069,13078,13078,13078,13078,13078,13085,13085,13085,13085,13085,13085,13085,13093,13093,13093,13093,13093,13093,13093,13101,13101,13101,13101,13101,13101,13101,13113,13113,13113,13113,13113,13113,13113,13117,13117,13117,13117,13117,13117,13117,13125,13125,13125,13125,13125,13125,13133,13133,13133,13133,13142,13142,13142,13142,13142,13142,13149,13149,13149,13149,13149,13158,13159,13159,13165,13165,13165,13165,13165,13173,13173,13173,13173,13173,13181,13181,13181,13181,13189,13189,13189,13189,13189,13197,13197,13197,13197,13197,13197,13205,13205,13205,13205,13205,13213,13213,13214,13214,13214,13221,13221,13221,13221,13229,13229,13229,13229,13229,13237,13237,13237,13237,13237,13245,13245,13245,13245,13253,13253,13253,13263,13263,13263,13263,13269,13269,13269,13279,13279,13279,13279,13279,13285,13285,13285,13293,13293,13293,13293,13301,13301,13301,13309,13309,13309,13309,13318,13318,13325,13326,13326,13334,13334,13334,13342,13350,13350,13359,13359,13366,13366,13376,13389,13389,13398,13405,13421,13453,13469,13477,13485,13485,13496,13501,13501,13513,13513,13517,13517,13525,13525,13525,13534,13534,13542,13542,13550,13550,13550,13558,13558,13566,13566,13567,13575,13575,13582,13582,13589,13589,13597,13597,13606,13614,13614,13622,13622,13629,13629,13638,13650,13677,13853,13885,13894,13901,13901,13911,13918,13933,13958,13959,13959,13982,13982,14005,14021,14021,14029,14053,14061,14069,14077,14077,14085,14093,14093,14101,14110,14110,14117,14117,14125,14133,14133,14143,14149,14150,14165,14166,14301,14310,14317,14317,14326,14333,14344,14344,14350,14350,14357,14374,14382,14382,14398,14406,14429,14445,14469,14501,14509,14533,14533,14557,14605,14621,14757,14789,14813,14829,14837,14853,14864,14869,14869,14879,14880,14885,14893,14901,14917,14926,15005,15005,15021,15037,15053,15069,15085,15093,15101,15117,15126,15157,15157,15173,15189,15197,15206,15214,15223,15223,15229,15237,15245,15253,15253,15269,15269,15277,15285,15293,15293,15301,15309,15317,15326,15342,15343,15349,15349,15359,15359,15365,15365,15365,15373,15373,15381,15381,15381,15382,15389,15389,15390,15390,15398,15398,15398,15406,15406,15406,15407,15414,15414,15415,15415,15423,15423,15423,15423,15430,15430,15430,15437,15437,15438,15445,15445,15446,15453,15453,15461,15469,15469,15477,15477,15485,15493,15494,15501,15509,15509,15509,15517,15517,15525,15525,15525,15533,15533,15541,15541,15549,15549,15549,15557,15557,15565,15565,15573,15573,15573,15581,15581,15589,15589,15598,15598,15598,15606,15606,15606,15614,15614,15623,15623,15623,15629,15630,15630,15637,15638,15645,15645,15645,15646,15646,15653,15653,15654,15661,15661,15661,15661,15669,15669,15669,15669,15677,15677,15677,15677,15685,15685,15685,15685,15693,15693,15693,15701,15701,15702,15709,15709,15709,15709,15717,15717,15725,15725,15733,15741,15741,15742,15749,15757,15765,15765,15765,15773,15781,15789,15789,15797,15798,15806,15806,15814,15814,15822,15822,15830,15830,15839,15839,15845,15853,15861,15877,15877,15885,15885,15895,15895,15901,15910,15917,15917,15917,15925,15925,15926,15933,15933,15941,15941,15942,15949,15949,15950,15959,15959,15965,15965,15966,15975,15975,15981,15981,15989,15998,16005,16014,16022,16023,16030,16031,16039,16039,16046,16053,16054,16061,16061,16069,16078,16101,16109,16109,16125,16149,16157,16181,16181,16197,16197,16206,16214" d="m270,272c-1.70001,0.11432 -2.26648,0.75488 -2.87149,1.409c-0.58582,0.63336 -1.49451,1.19711 -2.17017,1.61185c-0.71362,0.43802 -1.10693,0.62317 -2.13684,1.401c-0.68533,0.51761 -1.31543,1.12711 -1.91699,1.797c-0.31097,0.34631 -1.20721,1.52206 -1.50583,1.94916c-0.61459,0.87903 -0.90817,1.34018 -1.55585,2.22665c-0.32257,0.4415 -1.35495,1.67197 -1.72949,2.03467c-0.74161,0.71817 -1.55434,1.35703 -1.97501,1.66168c-1.28807,0.93286 -1.75896,1.21054 -2.22366,1.51031c-0.94888,0.61212 -1.43855,0.91483 -2.41917,1.55585c-0.49838,0.32578 -1.50226,1.00018 -2.49417,1.72818c-0.50027,0.36716 -0.99391,0.74655 -1.4805,1.1355c-0.97021,0.77554 -1.4438,1.17105 -2.35416,1.97916c-0.89088,0.79083 -1.31447,1.19952 -1.74133,1.60001c-0.85161,0.79901 -1.27469,1.20358 -1.70934,1.60001c-1.32765,1.21091 -1.79845,1.60379 -2.27766,1.99548c-0.97156,0.79413 -1.48161,1.17316 -2,1.54733c-0.52165,0.37653 -2.15721,1.43951 -2.72101,1.77185c-0.56323,0.332 -1.13171,0.64984 -2.256,1.27466c-0.55136,0.3064 -1.10652,0.58517 -2.61816,1.5105c-0.47588,0.29129 -0.92953,0.5881 -1.78067,1.17932c-0.8013,0.55661 -1.16948,0.84256 -2.24133,1.59952c-0.66989,0.47308 -1.33859,0.92654 -2.03101,1.37399c-1.11806,0.72247 -1.95755,1.23325 -2.39999,1.49551c-0.90707,0.53766 -1.36551,0.80991 -2.3075,1.28247c-0.90677,0.4549 -1.79272,0.80533 -2.62534,1.108c-0.77289,0.28094 -1.52089,0.47552 -2.41451,0.983c-0.81868,0.4649 -1.26361,0.91873 -2.2095,1.845c-0.52475,0.51385 -1.07579,1.07611 -1.71599,1.608c-0.67418,0.56012 -1.43922,1.07907 -2.28401,1.54001c-0.86215,0.47043 -1.31839,0.65256 -2.17082,1.08084c-1.17082,0.58823 -1.80855,1.00607 -2.38651,1.39383c-0.83121,0.55768 -1.76643,1.0712 -2.532,1.32532c-0.84254,0.27966 -1.30421,0.37479 -2.25751,0.58084c-1.48312,0.32056 -1.98729,0.40002 -2.98199,0.60901c-0.49432,0.10385 -1.47377,0.31223 -2.41917,0.58084c-0.92418,0.2626 -1.80959,0.57681 -2.63866,0.96133c-0.8114,0.37634 -1.21228,0.57431 -2.28,1.31998c-0.7016,0.48999 -1.33189,1.05997 -1.992,1.57202c-0.64958,0.50391 -1.68404,1.14694 -2.43184,1.44699c-0.75256,0.30194 -1.54611,0.5101 -2.74283,0.81433c-0.79921,0.20319 -1.60001,0.39999 -2.39999,0.60001c-0.40001,0.10001 -1.60001,0.39999 -2.40001,0.60001c-0.8,0.19998 -1.60001,0.3999 -2.39999,0.59998c-1.19971,0.30005 -1.99541,0.48947 -2.75833,0.72086c-0.73186,0.22198 -2.01044,0.78253 -2.53185,1.13184c-0.74184,0.49701 -1.66823,1.19635 -2.19383,1.46332c-0.80406,0.40839 -1.65067,0.73691 -2.39499,1.20517c-0.73676,0.4635 -1.4599,1.048 -2.42101,1.34549c-0.7343,0.22729 -1.56682,0.27127 -2.388,0.384c-0.77623,0.10657 -1.99397,0.49344 -2.59117,0.97018c-0.59163,0.47229 -1.56657,1.11792 -2.21815,1.33249c-0.69028,0.22729 -1.41638,0.3978 -2.81734,0.56265c-0.64752,0.0762 -1.58644,0.09869 -2.48534,0.25067c-0.90273,0.15262 -1.76918,0.42966 -2.31467,0.63467c-1.2408,0.46634 -1.87401,0.80002 -2.8855,1.29868c-0.61011,0.30078 -1.24858,0.62097 -2.22101,0.99982c-0.78703,0.30661 -1.56841,0.54526 -2.60815,0.81616c-0.97012,0.25278 -1.58076,0.73315 -2.29201,1.18384c-0.65674,0.41614 -1.65065,0.83801 -2.47733,0.89883c-0.95593,0.07031 -1.85403,-0.00519 -2.54868,0.00134c-1.11115,0.01044 -1.58926,0.77481 -2.35716,0.99551c-0.86066,0.24738 -1.80861,-0.13824 -2.6955,0.01517c-0.83345,0.14417 -1.30913,0.90262 -2.12083,1.46848c-0.73392,0.51163 -1.69513,0.42111 -2.45783,0.74234c-0.84082,0.35413 -1.49956,0.9917 -2.232,1.37851c-0.98013,0.51761 -1.5662,0.85333 -2.38933,1.11465c-0.97858,0.31067 -1.81955,0.26596 -2.8,0.57068c-0.61552,0.19128 -1.58993,0.73608 -2.4,1.104c-0.59304,0.26935 -1.6035,0.50354 -2.39999,0.63599c-1.00526,0.16714 -1.80386,0.48743 -2.4,0.776c-1.00216,0.48514 -1.75201,0.88474 -2.516,1.39734c-0.64463,0.43253 -1.54668,0.71509 -2.28851,0.854c-1.0023,0.18768 -1.72778,0.55322 -2.49017,1.24283c-0.67984,0.61496 -1.32689,0.68106 -2.30517,0.70465c-0.96455,0.02328 -1.75058,0.27249 -2.49567,0.64719c-0.87579,0.44043 -1.61485,0.9707 -2.50449,1.26733c-0.85748,0.28592 -1.82009,0.29871 -1.79984,1.18533c0.0209,0.91504 0.69839,1.32117 1.479,1.89999c0.63683,0.47223 1.2096,0.99759 2.00617,1.56934c0.56903,0.40845 1.07406,1.00967 2.11016,1.66901c0.54833,0.34894 1.5797,0.526 2.5045,0.983c0.6597,0.32599 1.49995,0.77332 2.4,0.77866c0.89999,0.00534 1.8,0 2.70133,0c0.684,0 1.624,0 2.632,0c0.86217,0 1.68782,0.02347 2.65067,-0.00134c0.69131,-0.01782 1.77694,-0.33408 2.31467,-0.79999c0.74855,-0.64856 1.51762,-1.12759 2.376,-1.18799c0.93774,-0.06598 1.82533,-0.00879 2.5825,-0.01068c0.89551,-0.00226 1.8441,-0.99594 2.68034,-0.45834c0.40346,0.25937 -0.5635,1.16461 -1.2375,1.54102c-0.83687,0.46735 -1.31554,1.24023 -2.2,1.75067c-0.65186,0.37619 -1.20107,0.95108 -1.8,1.59866c-0.6675,0.72171 -0.80386,1.42502 -1.36666,2.23465c-0.43314,0.62311 -1.29592,1.00659 -1.80801,1.72269c-0.5086,0.71121 -1.03344,1.31519 -1.02533,2.21066c0.00816,0.90021 0.33189,1.72406 1,2.39999c0.57888,0.58566 1.39946,0.98199 2.3,1c0.89981,0.01801 1.97581,-0.24902 2.11466,0.03601c0.34348,0.70508 -0.41467,1.564 -0.41467,2.46399c0,0.89999 0,1.8045 0,2.66666c0,0.83334 0.17305,1.84894 -0.08533,2.63202c-0.25529,0.77371 -0.89666,1.60077 -0.91467,2.50131c-0.01799,0.89984 0,1.80002 0,2.70001c0,0.79999 -0.00297,1.81561 0.80133,1.99866c0.87627,0.1994 1.79867,0.00134 2.69867,0.00134c0.9,0 1.8,0 2.7,0c0.9,0 1.8,0 2.60001,0c0.89999,0 1.81919,0.16519 2.7,-0.02084c0.84739,-0.17899 1.59839,-0.87024 2.5,-0.97916c0.79874,-0.0965 1.42255,-0.68555 2.3,-0.94284c0.86545,-0.25378 1.79138,-0.29083 2.45717,-0.76166c0.71761,-0.50748 1.43048,-0.82663 2.35616,-1.21149c0.81647,-0.33945 1.50221,-0.84424 2.18134,-1.13669c0.8168,-0.35175 1.5336,-0.53464 2.34818,-1.00449c0.68684,-0.39618 1.42415,-0.73721 2.05716,-1.05716c0.7545,-0.38135 1.13094,-1.4238 1.95717,-1.78033c0.71292,-0.30765 1.7534,-0.66095 2.34283,-1.12619c0.61131,-0.48251 1.37833,-1.13678 2.23599,-1.56848c0.90865,-0.45737 1.72404,-0.70786 2.28484,-0.93152c0.88518,-0.35303 1.78833,-0.78464 2.37466,-1.13632c0.88319,-0.52975 1.42424,-0.93781 2.42184,-1.74017c0.47041,-0.37836 1.1526,-0.99875 2.3255,-1.35999c0.65082,-0.20044 1.38342,-0.21017 2.10899,-0.34802c1.44031,-0.27365 2.10152,-0.58929 2.72734,-0.93631c0.62749,-0.34793 1.51924,-0.96072 2.41632,-1.55383c0.58266,-0.38522 1.1369,-0.76465 2.18317,-1.38318c0.68933,-0.4075 1.37968,-0.76443 2.34268,-1.3425c0.80882,-0.48553 1.31509,-0.9024 2.41199,-1.34549c0.68973,-0.27863 1.58859,-0.28928 2.56401,-0.61868c0.75777,-0.25589 1.25089,-1.14154 2.0455,-1.59332c0.65794,-0.37405 1.70576,-0.36328 2.25266,-0.82584c0.75586,-0.63931 1.50146,-1.32019 1.94734,-1.99551c0.49792,-0.75412 0.78342,-1.63556 1.21849,-2.12534c0.6326,-0.71216 1.37172,-1.44354 1.9485,-1.92731c0.71071,-0.59607 1.44611,-1.06528 2.18483,-1.59467c0.86862,-0.6225 1.4588,-1.1369 2.10567,-1.75284c0.56744,-0.54031 1.4371,-1.22855 1.90501,-1.548c0.73596,-0.50247 1.6485,-1.05414 2.47383,-1.33099c0.83099,-0.27875 1.73254,-0.62936 2.52083,-1.02084c0.80109,-0.39783 1.40439,-0.69135 2.39867,-1.20001c0.76878,-0.39331 1.55223,-0.94055 2.26266,-1.39999c0.85092,-0.55026 1.59003,-0.82288 2.3905,-1.04282c1.01564,-0.27905 1.75226,-0.1972 2.4615,-0.52652c0.83005,-0.38541 1.23352,-1.26471 2.0295,-1.80914c0.67302,-0.46036 1.52066,-0.6886 2.53551,-1.12167c0.68336,-0.29163 1.47192,-0.75125 2.17799,-1.55701c0.46642,-0.53226 1.23141,-1.36035 1.797,-1.74283c0.6205,-0.41962 1.31761,-0.78214 1.98001,-1.20001c1.21696,-0.7677 1.70804,-1.18552 2.35767,-1.79999c0.82675,-0.78198 1.20042,-1.22 1.881,-1.80002c0.48654,-0.41464 1.69034,-1.21133 2.38933,-1.58932c0.71706,-0.38779 1.45088,-0.73727 2.51717,-1.18948c0.66124,-0.28043 1.32742,-0.49091 2.22017,-0.99051c0.93205,-0.52161 1.50111,-1.03101 2.08051,-1.53067c0.5679,-0.48978 1.58327,-1.38144 2.06816,-1.68567c0.87827,-0.55106 1.87567,-0.91022 2.40533,-1.11884c0.82466,-0.32483 1.89853,-0.83704 2.59016,-1.34818c0.4485,-0.33145 1.02666,-0.90512 2.05267,-1.59015c0.5537,-0.36969 1.53937,-0.93463 2.09999,-1.45718c0.73201,-0.68228 1.2971,-1.47128 1.7045,-2.11465c0.39293,-0.62054 1.23666,-1.13596 2.01067,-1.62134c0.79907,-0.50113 1.43173,-0.93588 2.10535,-1.36398c0.87155,-0.55392 1.74397,-0.97272 2.48399,-1.36667c0.67827,-0.36108 1.12256,-1.37567 1.636,-1.97202c0.6024,-0.69968 1.6232,-0.77252 2.34267,-1.30399c0.61386,-0.45343 1.21097,-1.17276 2.0005,-1.55734c0.80486,-0.39203 0.88487,-1.37088 1.72617,-1.89017c0.63968,-0.39487 1.17163,-0.94949 1.81549,-1.58899c0.64494,-0.64056 1.66832,-0.82285 2.23634,-1.22534c0.87747,-0.62177 1.62512,-0.94556 2.35748,-1.49551c0.61282,-0.46024 1.25903,-1.23154 2.08536,-1.71732c0.77731,-0.45697 1.14978,-1.01126 1.77066,-1.60001c0.72351,-0.68607 1.56284,-0.92462 2.26132,-1.36667c0.84476,-0.53464 1.35202,-1.349 1.93466,-2.116c0.46667,-0.61435 1.00797,-1.20898 1.83334,-1.83334c0.75858,-0.57379 1.38696,-0.80127 2.24734,-1.47116c0.53531,-0.41678 1.22772,-1.19037 1.7735,-1.6955c0.57001,-0.52756 1.5788,-1.23615 2.14316,-1.58932c0.95779,-0.5994 1.47729,-1.17084 2.23599,-1.80002c0.65732,-0.5451 1.33893,-1.0556 1.95718,-1.55798c0.70569,-0.57343 1.40649,-0.74765 2.29099,-1.35718c0.64682,-0.44574 1.00867,-1.26068 1.45718,-1.98566c0.44809,-0.7243 1.5397,-1.05444 1.89465,-1.70984c0.41766,-0.77124 1.32065,-1.01108 1.97916,-1.5c0.65952,-0.48969 1.44659,-0.90985 2.12067,-1.60001c0.56543,-0.57892 0.72021,-1.50854 1.25735,-2.1955c0.58173,-0.74396 1.71439,-0.79337 2.24283,-1.35117c0.70792,-0.74725 0.96399,-1.52798 1.27866,-2.33167l0.34283,-0.90033" id="svg_6" stroke-width="2" stroke="#000" fill="none"/>
  <path t="16526,16573,16573,16573,16581,16589,16589,16589,16597,16597,16597,16605,16605,16605,16605,16613,16613,16613,16613,16613,16622,16622,16622,16622,16629,16629,16629,16629,16629,16638,16638,16638,16638,16638,16638,16645,16645,16645,16645,16645,16645,16654,16655,16655,16655,16655,16661,16661,16661,16661,16661,16661,16661,16669,16669,16669,16669,16669,16669,16678,16678,16678,16678,16678,16678,16678,16685,16685,16685,16685,16685,16685,16694,16694,16694,16694,16694,16694,16694,16701,16701,16701,16701,16701,16701,16702,16702,16709,16709,16709,16709,16710,16710,16710,16710,16710,16717,16717,16717,16717,16717,16717,16718,16718,16718,16725,16725,16725,16725,16725,16726,16726,16726,16726,16733,16733,16733,16733,16733,16733,16734,16734,16734,16741,16742,16742,16742,16742,16742,16742,16742,16742,16749,16749,16749,16750,16750,16750,16750,16750,16750,16758,16758,16758,16759,16759,16759,16759,16759,16765,16765,16765,16765,16765,16766,16766,16766,16766,16775,16775,16775,16775,16775,16775" d="m282,283c-0.70984,2.00082 -0.9581,2.53079 -1.51733,3.14667c-0.76785,0.84561 -1.60446,1.28235 -2.00351,1.91583c-0.38586,0.61255 -0.95096,1.63168 -1.32584,2.16284c-0.59195,0.83871 -1.31027,1.61859 -1.83731,2.09198c-0.80157,0.71994 -1.41061,1.14984 -2.14935,2.01602c-0.5174,0.60666 -0.93481,1.32156 -1.392,2.01599c-0.45224,0.68692 -1.18079,1.62341 -1.72733,2.14084c-0.53296,0.50461 -1.1297,0.92148 -1.88068,1.67648c-0.76016,0.76425 -1.20547,1.3981 -1.73364,2.05219c-0.28616,0.3544 -1.29401,1.52673 -1.68768,1.94781c-0.40891,0.43741 -1.28305,1.31665 -1.74133,1.74667c-0.45645,0.42831 -1.83084,1.59546 -2.28232,1.92233c-0.84814,0.61407 -1.27527,0.86661 -2.07501,1.36835c-0.76025,0.47696 -1.83395,1.20731 -2.4985,1.75766c-0.33788,0.27982 -1.00703,0.88773 -1.7175,1.52499c-0.76137,0.68292 -1.59952,1.39954 -2.045,1.76599c-0.45583,0.37494 -1.40494,1.12473 -1.89467,1.49469c-0.49161,0.3714 -1.98961,1.43341 -2.491,1.76865c-0.49863,0.3334 -1.50046,0.98331 -2,1.30936c-0.50046,0.32663 -2.00204,1.33844 -2.49983,1.69598c-0.50092,0.3598 -1.49043,1.10278 -1.97934,1.47867c-0.48576,0.37347 -0.96188,0.74963 -2.35416,1.83334c-0.44461,0.34607 -1.31065,1.01251 -1.73067,1.34131c-0.82759,0.64783 -1.24477,0.96249 -2.436,1.992c-0.40474,0.34979 -1.20665,1.09274 -1.61067,1.48001c-0.82977,0.79538 -1.24713,1.21436 -1.67467,1.63998c-0.88264,0.87869 -1.8019,1.80084 -2.28532,2.27051c-0.49518,0.48108 -1.00876,0.96799 -1.548,1.45352c-0.55336,0.49826 -1.12302,1.01047 -2.38133,1.98932c-0.65617,0.51044 -1.35089,1.00348 -2.0625,1.5c-0.72171,0.50354 -1.45833,1 -2.19749,1.5c-0.73917,0.5 -1.48216,0.98746 -2.90668,2c-0.69469,0.49377 -1.3645,0.99622 -2.019,1.49551c-0.64417,0.49142 -1.27272,0.98355 -1.89299,1.46848c-0.6124,0.47876 -1.21228,0.95911 -2.42134,1.86935c-0.59705,0.44949 -1.19989,0.8847 -1.8045,1.314c-0.60472,0.42938 -1.21584,0.85336 -1.8315,1.27798c-0.62067,0.42807 -1.25098,0.85629 -2.53067,1.74133c-0.65567,0.45346 -1.31845,0.91766 -1.99049,1.38602c-0.67862,0.47296 -1.36255,0.94894 -2.0535,1.422c-0.69272,0.47427 -1.38417,0.95129 -2.78934,1.85867c-0.69681,0.44995 -1.39778,0.88367 -2.10001,1.30499c-0.69781,0.41867 -1.39786,0.82382 -2.09999,1.215c-0.69789,0.38882 -1.39407,0.77167 -2.8,1.48001c-0.69693,0.35114 -1.39816,0.68372 -2.0955,1.01398c-0.69334,0.32837 -1.38461,0.6507 -2.0685,0.97803c-0.67978,0.32538 -1.35928,0.64227 -2.66933,1.34131c-0.64989,0.34677 -1.28566,0.71588 -1.9185,1.09052c-0.63516,0.37601 -1.26721,0.76663 -2.558,1.54733c-0.65858,0.39835 -2.02142,1.19919 -2.7325,1.59515c-0.72092,0.40143 -1.45279,0.79367 -2.18701,1.17902c-0.72778,0.38196 -1.44742,0.75049 -2.151,1.10699c-0.68044,0.34479 -1.95265,0.98166 -2.53383,1.27118c-0.54553,0.27176 -1.55249,0.7605 -2.02333,0.98065l-0.90167,0.39633" id="svg_7" stroke-width="2" stroke="#000" fill="none"/>
  <path t="18317,18365,18374,18381,18381,18389,18389,18389,18397,18397,18397,18405,18405,18405,18413,18413,18413,18413,18413,18421,18421,18421,18421,18421,18421,18429,18429,18429,18429,18429,18429,18437,18437,18437,18437,18437,18437,18437,18437,18437,18445,18445,18445,18445,18445,18445,18445,18445,18445,18453,18453,18453,18453,18453,18453,18453,18453,18453,18461,18461,18461,18461,18461,18461,18461,18461,18462,18470,18470,18470,18470,18470,18470,18470,18470,18470,18477,18477,18477,18477,18477,18477,18477,18477,18478,18486,18487,18487,18487,18487,18487,18487,18487,18487,18493,18493,18493,18493,18493,18493,18494,18494,18494,18503,18503,18503,18503,18503,18503,18503,18503,18503" d="m118,369c1,-1 1.6359,-1.3772 2.33334,-1.83334c0.60899,-0.39828 1.69267,-0.26788 2.46667,-0.61331c0.83376,-0.3721 1.59259,-1.04803 2.22083,-1.55334c0.65557,-0.52728 1.3976,-0.98502 2.21516,-1.38535c0.57256,-0.28036 1.77268,-0.93622 2.368,-1.384c0.63754,-0.47955 1.29541,-1.02814 1.6675,-1.28247c1.20204,-0.82166 2.17886,-1.26837 2.69099,-1.48651c0.52124,-0.22202 1.59526,-0.62167 2.13667,-0.80002c1.56126,-0.51431 2.06136,-0.6322 3.009,-0.92697c0.47455,-0.14761 1.45747,-0.48773 1.96866,-0.716c1.78259,-0.79599 2.43353,-1.22012 3.14584,-1.64267c0.75327,-0.44684 1.52725,-0.93164 2.319,-1.43851c0.80563,-0.51575 1.61028,-1.04422 2.409,-1.57349c1.55118,-1.02789 2.28436,-1.52246 2.99733,-1.99335c0.69307,-0.45773 1.37373,-0.90228 2.052,-1.32901c0.67375,-0.42389 1.35327,-0.84082 2.052,-1.23898c1.43846,-0.81964 2.21089,-1.20618 3.004,-1.60535c0.81387,-0.40961 1.65251,-0.81763 2.5065,-1.23898c0.87003,-0.42926 1.75526,-0.86447 2.64149,-1.32901c1.80482,-0.94604 2.6987,-1.46713 3.59467,-1.99734c0.89975,-0.53244 1.79137,-1.08151 2.68051,-1.63199c0.88551,-0.54822 1.76086,-1.09921 2.6355,-1.63199c1.71324,-1.04361 2.56091,-1.53006 3.39999,-1.996c0.82533,-0.45831 1.64679,-0.89432 2.46451,-1.30951c0.80768,-0.4101 1.61317,-0.8031 2.41949,-1.1745c1.59521,-0.7348 2.4006,-1.06818 3.2,-1.40533c0.79626,-0.33585 1.59195,-0.66498 2.38051,-1.00351c0.78613,-0.33749 1.56918,-0.67737 2.33549,-1.04849c1.53003,-0.74097 2.26712,-1.16724 2.99867,-1.59732c0.72849,-0.42828 1.44028,-0.87289 2.14499,-1.3125c0.69528,-0.43372 1.37466,-0.86728 2.05501,-1.26752c1.30995,-0.77066 1.96198,-1.09543 2.59999,-1.39999c0.62212,-0.29697 1.2399,-0.56693 1.845,-0.83249c0.59489,-0.26108 1.1848,-0.51154 1.755,-0.78751c1.12984,-0.54678 1.66953,-0.86887 2.2,-1.20267c0.52963,-0.33328 1.04001,-0.69202 1.545,-1.05151l0.49501,-0.3645l0.485,-0.36649l0.47499,-0.36551" id="svg_8" stroke-width="2" stroke="#000" fill="none"/>
  <path t="20357,20468,20541,20661,20781,20802,20805,20837,20877,20893,20933,20941,20964,21005,21068,21093,21125,21165,21165,21173,21182,21244,21285,21301,21332,21437,21614,21654,21662,21686,21686,21789,21806,21902,21934,21942,21954,22005,22030,22086,22246,22270,22358,22374,22525,22557,22581,22598,22621,22661,22725" d="m452,143c-1.83334,-0.16667 -2.21524,-0.9391 -3.10001,-1c-0.89786,-0.0618 -1.7128,0.17104 -1.89999,1c-0.19958,0.88387 -0.85123,1.33681 -1.42532,1.97467c-0.52087,0.57872 -1.39276,1.01962 -1.57333,1.82666c-0.19623,0.87698 -0.16956,1.81851 0.0195,2.69867c0.18137,0.84442 1.07153,1.43785 1.77914,1.49867c0.89673,0.07709 1.58716,0.31581 2.36667,0.83466c0.70746,0.47089 1.38092,0.61282 2.11868,1.08134c0.69147,0.43912 1.98856,0.53859 2.59317,-0.13617c0.59183,-0.66051 0.12149,-1.7785 0.12149,-2.57851c0,-0.89999 0.0054,-1.80002 0,-2.7c-0.00534,-0.88937 -0.3894,-1.61388 -1.05267,-2.14734c-0.57584,-0.46313 -1.56683,-0.35091 -2.34732,-0.778c-0.82108,-0.4493 -1.82742,-0.18991 -1.59552,0.72084c0.19714,0.77428 0.88858,1.8484 1.64285,1.64284c0.79004,-0.21532 0.35266,-1.63834 0.35266,-2.53835l0,-0.89999l0,-0.89999" id="svg_9" stroke-width="2" stroke="#000" fill="none"/>
  <path t="24438,24542,24550,24565,24574,24589,24613,24629,24630,24637,24654,24663,24670,24679,24686,24709,24725,24726,24734,24741,24750,24757,24766,24782,24790,24797,24813,24829,24829,24853,24853" d="m425,281c0,1.79999 -0.20328,2.47391 -0.83334,3.16666c-0.54559,0.59985 -1.13806,1.18906 -1.16666,2.03336c-0.03046,0.89963 0.09662,1.6915 -0.01068,2.61465c-0.11148,0.95929 -0.85272,1.51138 -1.41464,2.16c-0.50931,0.58792 -0.57468,1.42532 -0.57468,2.32983c0,0.86215 0.09387,1.70001 -0.00015,2.67383c-0.08371,0.86703 -0.7876,1.32813 -1.00119,2.22034c-0.1795,0.74982 -0.98065,1.23679 -0.99866,2.10132c-0.01874,0.89984 0,1.80002 0,2.70001l0,0.75717l0,0.89551l0,0.86331" id="svg_10" stroke-width="2" stroke="#000" fill="none"/>
  <path t="25366,25477,25486,25486,25501,25510,25518,25525,25533,25541,25550,25565,25581,25589,25613,25629,25669,25685,25709,25725,25741,25750,25781,25797,25813,25869,25901,25925,25989,26005,26005,26037,26069,26125" d="m405,297c1.83334,0.16666 2,1 2,1.79999c0,0.90002 0,1.80002 0,2.70001c0,0.89999 -0.07306,1.85016 0.42532,2.47467c0.4852,0.60797 0.57468,1.42532 0.57468,2.32532c0,0.90002 -0.11087,1.80688 0,2.70001c0.1116,0.89911 1.22662,0.74139 1.87866,1.22134c0.69824,0.51398 0.92783,1.45001 1.64218,1.75781c0.89944,0.38754 1.87915,0.02084 2.77914,0.02084c0.90002,0 2.04739,0.38943 2.57852,-0.2215c0.58188,-0.66931 0.12149,-1.7785 0.12149,-2.57849l0,-0.90002l0.03601,-0.89999l0.38931,-0.79999" id="svg_11" stroke-width="2" stroke="#000" fill="none"/>
  <path t="26870,26997,27005,27021,27029,27045,27069,27085,27101,27109,27117,27133,27133,27157,27165,27165,27181,27189,27198,27221,27237,27261,27261,27301,27309,27326,27342,27357,27357,27365,27365,27389,27405,27405,27413,27421,27446,27453,27461,27485,27493,27493,27501,27509,27517,27517,27526" d="m414,311c0,1.79999 -0.01068,2.70007 0,3.60001c0.01044,0.87933 0.5986,1.40909 1.05267,2.10449c0.49487,0.75787 1.40442,1.0741 1.922,1.73151c0.50943,0.64703 1.0545,1.31985 1.72534,1.61667c0.84766,0.37503 1.49808,1.14926 2,1.64734c0.69733,0.69202 1.59369,1.08347 2.24731,1.65265c0.59653,0.51947 1.15988,1.10031 2.05267,1.48068c0.75153,0.32019 1.70001,0.16666 2.60001,0.16666c0.89999,0 1.83075,-0.06244 2.72131,0.22134c0.69904,0.22275 1.77859,0.40866 2.39203,0.86267c0.75815,0.56113 1.24493,1.14993 1.98666,1.56332c0.76367,0.42563 1.5697,0.75455 2.39981,1.23132c0.79022,0.45386 1.32196,0.99033 1.8855,1.55734c0.67734,0.68149 1.44092,0.95782 1.90036,1.86398c0.41037,0.80933 0.33566,1.80002 0.76166,2.40002l0.37799,0.86398" id="svg_12" stroke-width="2" stroke="#000" fill="none"/>
  <path t="28437,28525,28541,28557,28565,28574,28589,28669,28677,28717,28733,28765,28773,28781,28805,28821,28821,28837,28845,28862,28885,28901,28910,28926,28926,28933,28949,28949,28958,28965,28974,28991,28991,28997,28997,29005,29013,29021,29045,29053,29069,29085,29117,29125,29237,29261,29269,29277,29293,29301,29309,29310,29317,29326,29326,29333,29342,29349,29357,29374,29391,29413,29437,29446,29461,29485,29717,29734,29745,29750,29757,29781,29796,29813,29813,29829,29837,29848,29853,29869,29877,29901,29933,30061,30077,30085,30085,30093,30101,30117,30125,30125,30133,30133,30141,30149,30158,30165,30165,30173,30181,30189,30206,30213,30223,30229,30253,30261,30285,30301,30333,30421,30429,30439,30462,30478,30485,30517,30549,30573,30581,30591,30605,30613,30638,30646,30653,30693,30733,30741,30749,30757,30781,30797,30813,30822,30829,30853,30877,30885,30894,30894,30909,30925,30925,30941" d="m413,314c0,1.79999 -0.01068,2.70007 0,3.60001c0.01044,0.87933 0.77481,1.33661 0.99551,2.10449c0.24738,0.86069 0.14859,1.66394 0.65182,2.34818c0.48999,0.6662 0.72409,1.7486 0.31665,2.51132c-0.39014,0.73038 -1.38974,0.84586 -2.06381,1.53601c-0.56543,0.57892 -0.83731,1.65341 -1.60468,1.89551c-0.85489,0.26971 -1.60583,0.62259 -2.49551,0.91916c-0.85764,0.28586 -1.83923,-0.09113 -2.59998,0.17065c-0.77957,0.26825 -1.30798,1.24551 -2,1.62933c-0.82449,0.45728 -1.80942,0.30234 -2.61069,0.71066c-0.76541,0.39008 -1.64722,0.39743 -2.56766,0.79617c-0.63712,0.276 -0.95587,1.34167 -1.63232,1.80383c-0.73065,0.49921 -1.69116,0.73639 -2.30533,1.25867c-0.65375,0.55594 -0.77164,1.29855 -1.0947,2.10535c-0.31598,0.78912 -0.81467,1.75748 -0.11066,1.38931c0.71268,-0.37268 0.99548,-1.32004 1.64218,-1.77866c0.70099,-0.4971 1.65717,-0.78528 2.45831,-1c0.86823,-0.23273 1.49524,-0.76965 2.17017,-1.02533c0.89401,-0.33865 1.3436,-1.16031 1.93469,-1.69067c0.60007,-0.53842 1.3819,-0.9549 1.89066,-1.67334c0.46457,-0.65604 1.52533,-0.61066 2.42532,-0.61066c0.89999,0 1.80002,0 2.69968,0c0.35867,0 -0.61459,-0.20203 -1.39517,0.35718c-0.68137,0.4881 -1.06116,1.25516 -1.62048,1.92816c-0.55612,0.66916 -0.84827,1.36084 -1.47336,2.11465c-0.54507,0.65732 -1.15732,1.27032 -1.5535,1.95718c-0.46982,0.81458 -0.72766,1.44968 -1.03632,2.16367c-0.34894,0.80719 -0.02927,1.84952 0.14981,1.67648c0.65091,-0.62894 1.50034,-0.87854 1.80801,-1.79733c0.2861,-0.85434 0.36377,-1.71381 1.02133,-2.39999c0.5871,-0.61264 1.30377,-1.29623 1.79999,-1.79999c0.68445,-0.69485 0.97845,-1.65729 1.63602,-2.17468c0.64816,-0.50998 1.45224,-0.75058 2.04315,-1.52533c0.55978,-0.73392 0.99643,-1.39471 1.82083,-1.85266c0.74231,-0.41235 1.53336,-0.814 1.70001,-1.64734c0.16666,-0.83334 1.22662,-0.74139 1.87866,-1.22134c0.69824,-0.51398 1.13629,-1.16623 1.69601,-1.80399c0.51746,-0.5896 1.22665,-0.974 2.12534,-0.97467c0.89999,-0.00067 1.79999,0 2.69998,0c0.89999,0 1.89789,-0.15933 2.54733,0.35266c0.61462,0.48453 1.36401,0.63004 2.05267,1.14734c0.62567,0.46997 1.55197,0.21091 2.38934,0.51068c0.73672,0.26373 1.32483,0.59076 2.17465,1.02533c0.69684,0.35632 1.27182,0.7677 2.13602,1.02115c0.87741,0.25732 1.61981,0.7475 2.49866,0.94418c0.75238,0.1684 1.23679,0.98001 2.10132,0.99866c0.89981,0.01941 1.75839,0.28708 2.40002,0.64734c0.77899,0.43738 1.784,0.63666 2.47464,0.92734l0.93869,0.34131" id="svg_13" stroke-width="2" stroke="#000" fill="none"/>
  <path t="32021,32189,32198,32205,32213,32221,32229,32229,32237,32237,32253,32270,32287,32309,32309,32333,32341,32357,32365,32381,32485,32645,32685,32693,32701,32709,32709,32717,32717,32725,32725,32733,32733,32733,32741,32741,32757,32757,32758,32758,32773,32773,32773,32781,32781,32789,32797,32813,33053,33061,33069,33069,33077,33077,33077,33085,33086,33086,33093,33093,33102,33102,33102,33125,33125,33141,33141,33157,33173,33189,33197,33205,33221,33501,33501,33525" d="m428,286c0,1.79999 0,2.70001 0,3.60001c0,0.89999 0.01541,1.70462 -0.00015,2.72131c-0.01041,0.67892 -0.26605,1.63235 -0.64719,2.37418c-0.40143,0.78131 -0.9418,1.62241 -1.23117,2.40451c-0.31512,0.85175 -0.12149,1.69998 -0.12149,2.60001c0,0.89999 0.30991,1.85971 -0.01068,2.68933c-0.3064,0.79291 -0.98706,1.31516 -0.98932,2.21066c-0.00226,0.89999 -0.14139,1.96609 0.54166,2.39999c0.68414,0.4346 1.65216,0.58047 2.43701,1.09982c0.66382,0.43927 1.52173,0.75571 2.23199,0.96152c1.01828,0.29507 1.59222,0.78513 2.13217,1.2905c0.79504,0.74414 1.31851,1.30951 2.20001,2.19101c0.46698,0.46698 0.978,0.978 1.50897,1.50897c0.78152,0.78152 1.48651,1.48651 2.1015,2.1015c0.68002,0.68002 1.48526,1.23944 1.76135,2.04669c0.29248,0.85522 1.28223,1.41629 1.03867,2.21466c-0.13852,0.45407 -1.01865,-0.75888 -1.47418,-1.41467c-0.60144,-0.86591 -1.32166,-1.36505 -1.88367,-1.75266c-0.80487,-0.55508 -1.39304,-1.06418 -2.11017,-1.76334c-0.74124,-0.72266 -1.23798,-1.23666 -1.96933,-1.96802c-0.51599,-0.51599 -1.06375,-1.00174 -1.88,-1.89066c-0.45288,-0.49319 -0.92307,-1.53027 -1.43597,-2.056c-0.67719,-0.69409 -1.8093,-0.40207 -2.49551,-0.92651c-0.75024,-0.57336 -0.92599,-1.52133 -1.8045,-1.64282l-0.89999,0l-0.79999,0.08533l-0.70001,0.43552" id="svg_14" stroke-width="2" stroke="#000" fill="none"/>
  <path t="35557,35652,35669,35685,35685,35693,35693,35701,35709,35717,35725,35733,35741,35749,35781,35789" d="m425,307c-1.60001,0.57468 -2.43185,0.9068 -3.32132,1.2215c-0.69928,0.24741 -1.46375,0.84979 -2.26801,1.3425c-0.77081,0.47223 -1.77039,0.35123 -2.38535,0.86133c-0.59927,0.4971 -1.078,1.22202 -1.82666,1.57333l-0.84149,0.0585l-0.35583,0.74417l-0.08667,0.91333" id="svg_15" stroke-width="2" stroke="#000" fill="none"/>
  <path t="36477,36589,36605,36605" d="m430,285" id="svg_16" stroke-width="2" stroke="#000" fill="none"/>
  <path t="38597,38661,38661,38671,38677,38685,38685,38693,38693,38701,38708,38709,38717,38724,38724,38733,38733,38741,38741,38749,38757,38757,38765,38765,38773,38773,38773,38781,38781,38788,38789,38789,38797,38797,38805,38805,38805,38813,38813,38813,38821,38821,38821,38821,38829,38829,38829,38829,38837,38837,38846,38846,38846,38846,38853,38853,38853,38862,38862,38869,38869,38869,38877,38877,38877,38885,38885,38893,38893,38893,38901,38909,38909,38909,38917,38925,38925,38933,38933,38941,38941,38949,38958,38966,38966,38966,38974,38982,38982,38990,38998,38998,39006,39006,39014,39014,39014,39022,39030,39037,39038,39038,39046,39046,39054,39054,39063,39063,39070,39070,39078,39078,39086,39086,39094,39094,39094,39102,39102,39102,39109,39109,39119,39119,39126,39126,39134,39134,39134,39142,39151,39151,39158,39158,39158,39158,39168,39168,39168,39174,39174,39174,39184,39184,39184,39190,39190,39201,39201,39206,39206,39206,39215,39215" d="m420,214c-1,1 -1.09494,1.7944 -1.5,2.5c-0.45828,0.79831 -0.66666,1.66667 -1,2.5c-0.33334,0.83333 -0.49701,1.6955 -0.5,2.636c-0.00269,0.84799 0.05087,1.75453 -0.35266,2.60683c-0.38379,0.81061 -0.70844,1.54745 -1.21533,2.24117c-0.53262,0.7289 -1.28674,1.4697 -1.423,2.2115c-0.1701,0.92609 -0.254,1.80898 -0.61966,2.47917c-0.53247,0.97594 -1.03531,1.46211 -1.4895,2.368c-0.3465,0.6911 -0.56003,1.52385 -1.22101,2.3145c-0.58075,0.69467 -1.41367,1.28569 -1.61749,1.97884c-0.2197,0.74713 -0.36536,1.79553 -0.823,2.564c-0.4996,0.83894 -1.06714,1.40691 -1.64285,2c-0.7858,0.80954 -1.39548,1.39999 -1.7955,1.8c-0.80002,0.79999 -1.39145,1.42 -2.07199,2c-0.48654,0.41466 -1.36923,1.00177 -2.02432,1.40001c-0.66092,0.40179 -1.67676,0.90157 -2.36768,1.79866c-0.40927,0.53139 -0.98102,1.47644 -1.75116,1.84866c-0.59088,0.28558 -1.30914,0.3763 -2.3205,1.07401c-0.62445,0.4308 -1.07913,1.27299 -1.92151,1.92149c-0.51746,0.39835 -1.55624,0.83282 -2.34283,1.278c-0.61099,0.34578 -1.39999,0.96318 -2,1.47917c-0.60001,0.51599 -1.38538,1.1402 -2.20001,1.58932c-0.98315,0.54205 -1.61136,0.77307 -2.31467,1.21066c-0.89035,0.55396 -1.65659,1.19263 -2.29999,1.60001c-0.62054,0.39291 -1.15137,1.29068 -1.89517,1.89999c-0.58517,0.47934 -1.33813,1.01828 -2.17416,1.41467c-0.72568,0.34409 -1.65942,0.30783 -2.48001,0.71066c-0.87119,0.42767 -1.81668,0.70926 -2.46133,1.01068c-0.70776,0.33093 -1.4505,1.12357 -2.27481,1.4425c-0.74081,0.28662 -1.76529,-0.03363 -2.73318,0.28815c-0.71637,0.23813 -1.4617,0.9866 -2.1875,1.3125c-0.94989,0.42651 -1.76788,0.50165 -2.49384,0.5195c-0.96417,0.02371 -1.90668,-0.00397 -2.81866,0.00134c-0.91739,0.00534 -1.69824,-0.07184 -2.69733,0.284c-0.75763,0.26984 -1.62518,0.68298 -2.37384,0.71152c-0.99347,0.03787 -1.81259,-0.11072 -2.71149,0.28983c-0.69626,0.31024 -1.34262,0.97202 -2.09467,1.27866c-0.96143,0.39203 -1.81003,0.42557 -2.95599,0.436c-0.78598,0.00714 -1.608,0 -2.66669,0c-0.7095,0 -1.56216,0 -2.56534,0c-0.76532,0 -1.71866,0 -2.57065,0c-0.80002,0 -1.81601,0 -2.86401,0c-0.70499,0 -1.505,0 -2.54132,0c-0.94699,0 -1.66699,0 -2.79199,0c-0.7905,0 -1.35419,0 -2.23468,0c-1.19867,0 -1.79868,0 -2.69867,0c-1.19983,0 -1.7955,0 -2.664,0c-1.06934,0 -2,0 -2.83466,0c-1.00134,0 -1.80133,0 -2.80133,0c-0.80002,0 -1.80017,0 -2.62085,0l-0.66449,0l-0.99734,0l-0.79648,0" id="svg_17" stroke-width="2" stroke="#000" fill="none"/>
 </g>
 <g display="none">
  <title>muse_image</title>
  <image xlink:href="http://farm4.static.flickr.com/3140/3111572852_63079e3962.jpg" id="muse" height="426" width="640" y="27" x="0"/>
 </g>
 <g display="none">
  <title>bbox</title>
  <rect stroke="#f00" fill="none" stroke-width="3" height="309.58559" width="551.68" y="76.89189" x="23.04" id="bbox"/>
 </g>
</svg>
