<svg width="640" height="480" xmlns="http://www.w3.org/2000/svg" xmlns:svg="http://www.w3.org/2000/svg" xmlns:xlink="http://www.w3.org/1999/xlink">
 <!-- Sketchy ANNOTATION
  ImageNet ID: n01558993_14707
  URL: http://farm1.static.flickr.com/188/383221536_d77a1bc04a.jpg
  Image Width: 500
  Image Height: 375
  BBox X: 91
  BBox Y: 62
  BBox Width: 251
  BBox Height: 275
  Exposure: 2000ms
  Synset Label: songbird
  Synset ID: n01526521
  Worker Tag: Robin
  Sanity Check: 
   Saved
  Comment: 
   {}
  Worker ID: A1AYFPD1RFW8P5
  Assignment ID: 3Y9N9SS8LYBVSXUFNV9D63UC6YH3DG
  HIT ID: 3PKJ68EHDNWL273CMAFOOBVEQXTHJI
  Work Time: 246s
  Worker Score: 0.7143
 END ANNOTATION -->
 <g display="inline">
  <title>Layer 1</title>
  <path t="0,26,27,27,27,27,49,49,66,81,112,121,153,170,185,217,249,273,312,329,353,385,416,425,456,488,528,537,561,592,609,640,672,704,704,721,745,761,772,793,824,857,865,881,912,969,994,1032" d="m418,85c-2.20667,0.44267 -3.06345,0.70495 -4,1c-0.47339,0.14914 -1.36404,0.49298 -2.77335,0.82933c-0.76608,0.18284 -1.64401,0.26015 -2.25198,0.74534c-0.62448,0.49837 -1.57471,0.41994 -2.47467,0.42533c-0.8894,0.00533 -1.3739,0.72559 -2.11066,0.98933c-0.83737,0.29977 -1.83173,-0.25716 -2.68484,0.01517c-0.8205,0.26192 -1.31509,0.99017 -2.2045,0.9955c-0.89996,0.00539 -1.85019,-0.07304 -2.47467,0.42533c-0.60797,0.48518 -1.48294,0.25243 -2.41467,0.58533c-0.73691,0.2633 -1.24112,0.82092 -2.11066,1.01017c-0.84628,0.18419 -1.59839,0.87024 -2.5,0.97916c-0.79871,0.0965 -1.42236,0.68619 -2.29999,0.94283c-0.8656,0.25312 -1.91589,-0.16534 -2.616,0.34116c-0.69357,0.50178 -1.4057,0.5211 -2.28268,0.71734c-0.80704,0.18058 -1.23734,0.96266 -2.10132,0.99866l-0.89868,0.00134l-0.74866,0.35133" id="svg_1" stroke-width="2" stroke="#000" fill="none"/>
  <path t="2409,2419,2419,2419,2419,2419,2419,2448,2448,2464,2464,2478,2511,2535,2536,2545,2568,2584,2615,2625,2647,2663,2687,2719,2751,2761,2777,2793,2810,2840,2871,2880,2903,2927,2959,2968,2968,3015,3031,3071,3111,3127,3151,3183,3192,3223,3255,3264" d="m417,86c-2.20667,1.10667 -3.06384,1.76267 -3.52667,2.12666c-0.47385,0.37266 -1.40524,1.11626 -1.85333,1.45334c-1.10098,0.8282 -1.88278,1.16586 -2.72,1.64133c-0.74533,0.42329 -1.33572,1.02074 -2.06665,1.612c-0.69781,0.56447 -1.52377,0.59073 -2.3125,1.16666c-0.64029,0.46754 -1.22534,1.05267 -2.02084,1.5c-0.7955,0.44733 -1.44733,0.85267 -2,1.5c-0.55267,0.64733 -1.2045,1.05267 -2,1.5c-0.7955,0.44733 -1.51495,0.88757 -2.07468,1.52533c-0.51746,0.58959 -0.97977,1.39229 -1.64682,1.85317c-0.72952,0.50404 -1.51721,0.56669 -2.13568,1.06883c-0.70459,0.57206 -1.76398,0.66621 -2.35748,1.13667c-0.73856,0.58545 -1.03574,1.36398 -1.72134,1.89067c-0.65363,0.50214 -1.72617,0.59611 -2.39734,1.19199c-0.60632,0.53829 -1.26648,0.8335 -2.08264,1.11733l-0.43668,0.66334l-0.64734,0.55267" id="svg_2" stroke-width="2" stroke="#000" fill="none"/>
  <path t="6431,6431,6431,6441,6471,6511,6543,6559,6575,6599,6599,6631,6663,6679,6695,6727,6751,6791,6823,6847,6879,6879,6888,6919,6943,6975,6975,7007,7031,7055,7079,7095,7127,7127,7159,7199,7231,7247,7271,7295,7311,7368,7368" d="m377,89c5.77335,-0.91467 6.67749,-0.99775 7.60001,-1c0.89999,-0.0022 1.79999,0 2.69998,0c0.90002,0 1.85349,0.18135 2.70001,-0.16666c0.67108,-0.27589 1.49985,-0.82066 2.39999,-0.83334c0.89542,-0.01261 1.40686,-0.67052 2.12085,-0.97916c0.80719,-0.34895 1.77914,-0.02084 2.67917,-0.02084c0.89999,0 1.80084,0.03719 2.59998,0c0.91766,-0.04272 1.41525,-0.93911 2.30002,-1c0.89786,-0.06179 1.69998,0 2.60001,0c0.89999,0 1.79999,0.00225 2.69998,0c0.89999,-0.00225 1.63126,-0.33691 2.39999,-0.716c0.84525,-0.41682 1.80002,-0.284 2.70001,-0.284c0.89999,0 1.79999,0 2.70001,0l0.89999,0l0.89999,0l0.79999,0" id="svg_3" stroke-width="2" stroke="#000" fill="none"/>
  <path t="8609,8619,8619,8619,8619,8619,8640,8640,8647,8679,8703,8727,8743,8752,8783,8823,8855,8871,8879,8895,8927,8943,8975,8991,8991,9008,9023,9039,9055,9063,9088,9095,9121,9121,9127,9143,9160,9176,9193,9193,9210,9225,9226,9243,9260,9279,9279,9295,9311,9326,9343,9360,9360,9375,9393,9410,9410,9431,9431,9443,9463,9463,9476,9493,9510,9525,9543,9543,9560,9583,9599,9599,9615,9631,9647,9660,9675,9695,9711,9726,9743,9767,9776,9799,9815,9839,9847,9860,9879,9895,9920,9935,9951,9960,9976,9999,10015,10042,10047,10063,10076,10093,10114,10114,10145,10161,10180,10180,10197,10212,10229,10245,10273,10292,10311,10344,10383,10423,10423,10462,10503,10543,10599,10646,10647,10695,10727,10751,10863,10863,10871,10942,10991,10991,11015,11023,11063,11087,11087,11104,11127,11143,11143,11167,11183,11193,11278,11278,11319,11367,11375,11391,11407,11431,11431,11443,11460,11476,11476,11493,11510,11511,11526,11527,11559,11559,11586,11587,11587,11587,11616,11616,11617,11617,11645,11646,11646,11646,11673,11674,11674,11702,11703,11703,11732,11732,11762,11762,11762,11792,11792,11792,11821,11821,11821,11851,11851,11851,11881,11881,11881,11881,11910,11910,11910,11910,11910,11940,11941,11941,11941,11941,11941,11970,11970,11970,11970,11970,11998,11999,11999,11999,11999,12027,12028,12028,12028,12056,12057,12057,12057,12057,12094,12094,12094,12094,12119,12119,12119,12147,12147,12147,12147,12177,12177,12177,12206,12207,12207,12207,12236,12236,12237,12237,12266,12266,12266,12267,12267,12297,12298,12298,12298,12298,12298,12327,12327,12328,12328,12328,12328,12356,12356,12357,12357,12357,12384,12385,12385,12385,12385,12385,12414,12415,12415,12415,12416,12445,12445,12445,12445,12474,12474,12474,12475,12475,12475,12504,12504,12504,12505,12505,12533,12533,12533,12534,12562,12562,12563,12563,12563,12592,12592,12593,12593,12593,12593,12623,12624,12624,12624,12624,12624,12625,12625,12653,12653,12653,12654,12654,12684,12684,12684,12685,12685,12714,12714,12714,12714,12715,12715,12742,12742,12743,12743,12743,12743,12773,12774,12774,12774,12774,12804,12804,12805,12805,12805,12834,12834,12834,12835,12865,12866,12866,12866,12866,12895,12895,12896,12896,12924,12924,12924,12925,12954,12954,12955,12955,12984,12985,12985,12985,12985,13014,13014,13015,13015,13044,13045,13045,13045,13045,13075,13076,13076,13076,13076,13106,13107,13107,13107,13136,13136,13137,13137,13137,13168,13168,13168,13200,13200,13201,13201,13229,13230,13230,13230,13261,13262,13262,13291,13292,13524,13552,13582,13582,13613,13613,13614,13648,13649,13649,13649,13678,13679,13679,13679,13708,13709,13709,13739,13739,13740,13769,13769,13769,13770,13801,13801,13802,13831,13832,13832,13863,13864,13864,13864,13892,13892,13893,13893,13923,13924,13924,13925,13925,13925,13953,13954,13954,13954,13954,13955,13955,13984,13985,13985,13985,13986,13986,14016,14016,14017,14017,14017,14017,14046,14047,14047,14048,14048,14076,14077,14077,14077,14078,14078,14078,14079,14107,14108,14108,14108,14109,14109,14109,14110,14110,14138,14138,14139,14139,14139,14140,14140,14140,14141,14169,14169,14170,14170,14170,14171,14171,14171,14200,14201,14201,14201,14202,14202,14232,14232,14232,14233,14233,14261,14262,14262,14262,14263,14263,14264,14293,14293,14294,14294,14295,14295,14296,14296,14296,14326,14327,14327,14328,14328,14329,14329,14356,14357,14357,14357,14358,14359,14359,14388,14388,14389,14389,14390,14390,14419,14420,14420,14420,14421,14421,14421,14450,14451,14451,14451,14452,14452,14452,14481,14482,14482,14483,14483,14483,14484,14484,14512,14513,14513,14513,14514,14542,14543,14543,14544,14544,14575,14575,14576,14576,14577,14606,14607,14607,14607,14608,14608,14637,14637,14638,14638,14639,14639,14667,14668,14668,14669,14669,14699,14700,14700,14701,14701,14701,14730,14730,14731,14731,14731,14732,14760,14761,14761,14762,14762,14792,14793,14793,14793,14794,14794,14823,14824,14824,14824,14825,14825,14854,14855,14856,14856,14857,14889,14889,14890,14890,14890,14891,14920,14921,14921,14922,14922,14923,14952,14952,14953,14953,14954,14983,14983,14984,14984" d="m377,86c-2.20667,-1.5425 -3.0618,-2.00381 -3.52667,-2.24c-0.9436,-0.47941 -1.83578,-0.94875 -2.96582,-1.3955c-0.71738,-0.28361 -1.73965,-0.12027 -2.42349,-0.6485c-0.6275,-0.48471 -1.2966,-0.56622 -2.18384,-0.71617c-0.85202,-0.144 -1.33563,-0.98183 -2.20016,-0.99983c-0.89984,-0.01874 -1.80441,0.08868 -2.70001,0c-0.8457,-0.08374 -1.28235,-0.95728 -2.20001,-1c-0.89902,-0.04185 -1.79999,0 -2.59998,0c-0.90002,0 -1.80002,0 -2.70001,0c-0.89999,0 -1.79999,0 -2.70001,0c-0.89999,0 -1.79999,0 -2.59998,0c-0.90002,0 -1.80002,0 -2.70001,0c-0.8045,0 -1.82132,0 -2.5,0c-0.97849,0 -2,0 -2.79999,0c-0.90002,0 -1.72086,0 -2.68402,0c-0.69064,0 -1.75882,-0.00009 -2.716,0c-0.89981,0.00008 -1.48486,0.45963 -2.24283,0.8785c-0.65707,0.36311 -1.67593,0.03159 -2.65717,0.12167c-0.91144,0.08367 -1.49597,0.69969 -2.384,0.9145c-0.84277,0.20387 -1.81287,-0.06311 -2.616,0.30667c-0.77856,0.35847 -1.52289,0.59534 -2.39999,0.7995c-0.96103,0.22369 -1.65054,0.73189 -2.5,1.14583c-0.65225,0.31785 -1.56781,0.70937 -2.29999,1.19051c-0.79425,0.52193 -1.35254,1.11871 -2.08936,1.6175c-0.66705,0.45155 -1.10358,1.21095 -1.69467,1.74133c-0.60007,0.53841 -1.37857,0.95727 -1.89066,1.67333c-0.50861,0.7112 -1.05765,1.32646 -1.45065,2.01067c-0.46689,0.8128 -1.20236,1.34761 -1.55383,2.12083c-0.36389,0.80059 0.05222,1.82934 -0.44617,2.45383c-0.4852,0.60796 -0.57468,1.42533 -0.57468,2.32533c0,0.89999 0.24426,1.93214 -0.284,2.616c-0.48471,0.62749 -0.716,1.384 -0.716,2.284c0,0.9 0.32181,1.9379 -0.16666,2.63334c-0.50232,0.71519 -0.83334,1.26666 -0.83334,2.16666c0,0.8 0.00073,1.7 0,2.636c-0.00067,0.84666 -0.14603,1.59267 -0.64734,2.41216c-0.43369,0.70894 -0.35266,1.65183 -0.35266,2.55183c0,0.9 0,1.8 0,2.7c0,0.89999 0,1.8 0,2.7c0,0.8 -0.01041,1.70006 0,2.6c0.01044,0.90018 0.50052,1.6188 0.83334,2.4c0.32019,0.75154 -0.24606,1.82343 0.22382,2.64284c0.39444,0.68784 0.90564,1.35803 0.94284,2.15717c0.04272,0.91763 0.91626,1.35431 1,2.2c0.07883,0.79611 0.41122,1.82257 -0.05716,2.64284c-0.46432,0.81317 -0.77469,1.3936 -1.02817,2.15717c-0.25635,0.77217 -0.7901,1.64583 -1.19867,2.39999c-0.35217,0.65009 -0.30121,1.6243 -0.77316,2.44284c-0.39606,0.6869 -0.91577,1.35762 -0.94284,2.15717c-0.02859,0.84428 -0.81281,1.37103 -1,2.2c-0.19958,0.88387 -0.81427,1.3311 -1.22134,2.10001c-0.40103,0.75752 -0.87268,1.48994 -1.48315,2.00983c-0.64359,0.5481 -1.04501,1.44501 -1.59549,2.133c-0.64423,0.80518 -1.21844,1.23926 -1.90002,1.95851c-0.51425,0.54268 -0.99991,1.28613 -1.43597,2.04533c-0.52896,0.92097 -1.0188,1.71205 -1.38486,2.27415c-0.3812,0.58531 -0.97916,1.47917 -1.57916,2.37917c-0.39999,0.60001 -0.79895,1.20071 -1.39999,2.10001c-0.59897,0.89619 -0.98865,1.4874 -1.39999,2.04283c-0.77884,1.05168 -1.19019,1.50928 -1.80002,2.1465c-0.78748,0.82283 -1.39548,1.40617 -1.96399,1.97467c-0.66934,0.66933 -1.21066,1.21068 -2.00266,2.00267c-0.49051,0.49049 -1.04251,1.04547 -1.83334,1.83333c-0.59888,0.59663 -1.16824,1.20392 -2,1.83333c-0.57925,0.43834 -1.4032,0.8559 -2.20016,1.267c-0.61301,0.31621 -1.50043,0.85124 -2.2215,1.4425c-0.55206,0.45268 -1.1076,0.99281 -1.73999,1.509c-0.98624,0.80504 -1.71942,1.27124 -2.47433,1.72284c-0.38272,0.22894 -1.18185,0.65611 -2.36401,1.392c-0.80939,0.50385 -1.20471,0.78391 -2,1.35416c-0.80478,0.57704 -1.20093,0.87927 -2.39984,1.77917c-0.39914,0.29959 -1.19275,0.89581 -1.96417,1.5c-0.38043,0.29796 -1.47452,1.19415 -2.15067,1.79866c-0.65439,0.58505 -0.95816,0.8875 -1.58081,1.44417c-0.89554,0.80064 -1.49863,1.28297 -2.42535,1.95717c-0.63148,0.4594 -1.64687,1.16522 -2.00032,1.42134c-0.72917,0.52835 -1.46397,1.07098 -2.16901,1.62599c-0.98495,0.77538 -1.5352,1.2722 -2.04849,1.70599c-0.70236,0.59357 -1.67776,1.23524 -2.214,1.494c-0.81485,0.39319 -1.8933,0.90096 -2.362,1.23666c-0.68398,0.4899 -1.25671,1.07101 -2.29433,1.76784c-0.64694,0.43445 -1.17099,0.70357 -2.03368,1.291c-0.67007,0.45628 -1.36389,0.96951 -2.052,1.509c-0.98151,0.76952 -1.53862,1.2627 -2.05466,1.72284c-0.75793,0.67584 -1.5795,1.39758 -2.22134,1.91066c-0.69649,0.55676 -1.06937,0.83763 -1.83833,1.41917c-1.18849,0.89882 -1.59422,1.19121 -2.38649,1.79999c-0.39555,0.30396 -1.1835,0.91455 -1.91917,1.58084c-0.73401,0.66478 -1.40396,1.39632 -1.73267,1.76733c-0.65796,0.74268 -1.29782,1.50156 -1.63666,1.86333c-1.01526,1.08395 -1.76935,1.73509 -2.14134,2.06934c-0.75069,0.6745 -1.16074,0.98831 -2.20799,2.14799c-0.35886,0.39738 -1.01328,1.2693 -1.33067,1.71733c-0.6329,0.89337 -0.90807,1.36101 -1.836,2.61601c-0.29254,0.39566 -0.88559,1.12344 -1.47917,1.77083c-0.55453,0.60481 -1.35715,1.39285 -1.83817,1.88116c-0.70793,0.71866 -1.2028,1.23933 -2.01599,2.18134c-0.64424,0.74629 -0.97646,1.16254 -1.328,1.58667c-0.72392,0.8734 -1.07935,1.3221 -2.172,2.58c-0.34154,0.3932 -1.00024,1.11903 -1.625,1.77083c-0.57564,0.60054 -1.37807,1.39279 -1.85767,1.87984c-0.68845,0.69914 -1.14865,1.18225 -1.85068,2.01599c-0.52913,0.62842 -1.07352,1.33342 -1.67999,2.052c-0.31169,0.36931 -1.31471,1.45352 -1.675,1.79367c-0.72946,0.68867 -1.52126,1.36125 -1.925,1.71834c-0.41629,0.36819 -1.72435,1.59845 -2.17433,2.06667c-0.46486,0.48369 -0.92726,0.98994 -1.383,1.51199c-0.9079,1.04002 -1.33241,1.56325 -1.74133,2.07201c-0.76106,0.94688 -1.40526,1.7935 -1.95734,2.55466c-0.50616,0.69786 -0.97562,1.38083 -1.464,2.064c-0.51544,0.72101 -1.06825,1.47012 -1.644,2.24402c-0.29329,0.39423 -1.18933,1.58932 -1.48933,1.98932c-0.60001,0.80002 -1.2,1.60001 -1.5,2c-0.60001,0.80002 -1.20001,1.60001 -1.8,2.39999c-0.60001,0.80002 -0.90002,1.19998 -1.5,2c-0.3,0.40002 -1.20241,1.59808 -1.79549,2.40002c-0.29512,0.39905 -0.87379,1.19635 -1.14734,1.59998c-0.80618,1.18951 -1.27678,1.99591 -1.72118,2.78934c-0.21759,0.38849 -0.61931,1.16034 -1.23599,2.24402c-0.39099,0.68707 -0.82114,1.32397 -1.34283,2.31934c-0.5229,0.99765 -0.78384,1.72739 -1.02116,2.47266c-0.23743,0.74557 -0.424,1.49374 -0.73618,2.55334c-0.1976,0.67065 -0.524,1.65128 -0.78516,2.30533c-0.41725,1.04501 -0.76733,1.76865 -1.11467,2.51599c-0.34734,0.74734 -0.84572,1.82837 -1.11467,2.51599c-0.38223,0.97726 -0.59114,1.63364 -0.88533,2.65067c-0.20729,0.71661 -0.4019,1.46884 -0.60001,2.24402c-0.20193,0.79016 -0.49455,1.99078 -0.7045,2.78934c-0.21071,0.80148 -0.42438,1.61002 -0.86217,2.79999c-0.29698,0.80725 -0.65189,1.59842 -0.8125,2c-0.31874,0.79694 -0.7148,1.99487 -0.8515,2.79999c-0.13513,0.79587 -0.17184,1.60114 -0.252,2.40002c-0.12059,1.20197 -0.26495,2.00201 -0.43816,2.79999c-0.1741,0.80212 -0.48111,1.99951 -0.67784,2.79733c-0.19255,0.78088 -0.38177,1.52734 -0.51599,2.23199c-0.2281,1.19766 -0.27341,1.97049 -0.28401,2.73868c-0.01659,1.20255 -0.00104,1.90445 -0.03732,2.65332c-0.03789,0.78198 -0.17535,1.98004 -0.31667,2.76968c-0.13765,0.76913 -0.33043,1.48868 -0.526,2.76599c-0.1176,0.76801 -0.14957,1.65704 -0.474,2.63849c-0.25214,0.76276 -0.95677,2.04852 -0.21133,2.35785c0.74164,0.30774 1.3532,-0.70969 2.33466,-1.15335c0.75386,-0.34079 1.33746,-0.50262 2.52951,-0.89999c0.60388,-0.20129 1.53415,-0.50552 2.18517,-0.69998c1.03325,-0.30862 1.75931,-0.51028 2.85333,-0.76401c0.6899,-0.16 1.89612,-0.32697 2.6405,-0.45685c0.7083,-0.12357 1.70409,-0.55121 2.54166,-0.97916c0.58224,-0.29749 1.47112,-0.70123 2.37917,-0.89465c0.89339,-0.19031 1.53004,-0.19281 2.69867,-0.67468c0.60915,-0.25119 1.43788,-0.79297 2.23466,-1.26401c0.70854,-0.41888 1.3799,-0.78531 2.58833,-1.26666c0.53497,-0.2131 1.42296,-0.50665 2.065,-0.69998c1.03185,-0.31073 1.77385,-0.50461 2.55501,-0.70001c0.8188,-0.20483 2.12424,-0.50354 3.04633,-0.70001c0.47778,-0.10181 1.47409,-0.30215 1.99467,-0.39999c1.08847,-0.20453 2.25038,-0.4017 2.86,-0.5c1.2621,-0.20352 1.90799,-0.29999 2.55733,-0.39999c0.64934,-0.10001 1.29597,-0.19196 3.16667,-0.5c0.59076,-0.09729 1.71883,-0.29648 2.26132,-0.38934c0.53017,-0.09076 1.55989,-0.28003 3.07201,-0.444c0.49896,-0.05411 1.49545,-0.11481 1.98933,-0.14133c0.97458,-0.05231 1.92868,-0.07953 3.28967,-0.24683c0.44096,-0.0542 1.31749,-0.21188 2.21832,-0.38916c0.46994,-0.09247 2.00223,-0.39188 2.5675,-0.4895c1.21474,-0.20978 1.86456,-0.31009 2.53934,-0.42068c0.69991,-0.11472 1.42422,-0.23312 2.1705,-0.3645c1.55984,-0.2746 2.36853,-0.43347 3.19333,-0.59998c0.83788,-0.16913 1.68318,-0.3483 2.532,-0.53552c0.84987,-0.18744 1.6955,-0.38016 2.532,-0.58047c1.63632,-0.39185 2.42577,-0.59592 3.19734,-0.80002c0.7571,-0.20029 1.49973,-0.40567 2.22899,-0.61951c0.72141,-0.21152 1.43477,-0.42993 2.13901,-0.66449c1.40697,-0.46863 2.10358,-0.7327 2.8,-0.99866c0.69493,-0.26538 1.38205,-0.53961 2.06099,-0.81601c0.67038,-0.27292 1.97044,-0.81738 3.20834,-1.33334c0.58972,-0.24579 1.1611,-0.47867 2.23999,-0.93066c0.51054,-0.2139 1.48082,-0.60895 2.76001,-1.23599c0.39427,-0.19327 1.13426,-0.60144 1.85416,-1.02084c0.74352,-0.43317 1.97771,-1.1485 2.44383,-1.40082c1.00824,-0.54581 1.55392,-0.82516 2.11868,-1.12c0.58456,-0.30518 1.19208,-0.61108 3.08331,-1.625c0.65616,-0.35178 1.31738,-0.71625 1.98151,-1.09052c0.66788,-0.37637 1.33292,-0.76041 1.99051,-1.1535c0.65344,-0.39059 1.30084,-0.77713 2.52798,-1.58932c0.59454,-0.39349 1.17026,-0.78802 2.25067,-1.60001c0.52457,-0.39423 1.03046,-0.79379 1.51651,-1.19998c1.41461,-1.18216 1.84735,-1.59711 2.28082,-2c0.85464,-0.79434 1.26697,-1.19748 2.08084,-2c0.40442,-0.39877 1.20703,-1.19751 2.00317,-2.00134c0.39807,-0.40192 1.18362,-1.21664 1.56534,-1.63467c0.38196,-0.4183 1.47595,-1.72571 1.81467,-2.18549c0.6821,-0.9259 0.99722,-1.41367 1.32132,-1.89935c0.65524,-0.98193 0.97263,-1.48837 1.66666,-2.47916c0.70718,-1.00952 1.08954,-1.50522 1.46933,-2.01068c0.38388,-0.51089 1.17068,-1.54486 1.56534,-2.07465c0.8031,-1.07806 1.20013,-1.63467 1.59735,-2.19733c0.39844,-0.56439 1.18066,-1.69638 1.56534,-2.25601c0.379,-0.55139 0.74469,-1.09619 1.81415,-2.61816c0.332,-0.47247 0.66211,-0.91983 1.25934,-1.78067c0.54962,-0.79224 1.24881,-1.88574 1.59317,-2.57983c0.3269,-0.65894 0.58539,-1.34344 0.85199,-2.052c0.44119,-1.17261 0.77267,-2.04123 0.95334,-2.492c0.37091,-0.92551 0.55615,-1.3959 1.164,-2.772c0.39206,-0.88754 0.60373,-1.31677 1,-2.1875c0.40381,-0.88727 0.61829,-1.34119 1.19983,-2.82182c0.20535,-0.52283 0.59174,-1.60724 0.77933,-2.15733c0.18707,-0.54858 0.54254,-1.62987 0.85419,-2.66667c0.28918,-0.96205 0.54007,-1.87236 0.66666,-2.3125c0.25015,-0.86971 0.66379,-2.18848 0.82132,-2.64233c0.32547,-0.93771 0.6813,-1.89839 0.85333,-2.38916c0.34662,-0.98883 0.67273,-1.9855 0.93869,-2.98933c0.13199,-0.4982 0.35229,-1.49867 0.44,-2c0.17453,-0.99756 0.32928,-2.49973 0.36264,-3c0.06662,-0.9995 0.07242,-1.50067 0.13669,-2.5c0.09656,-1.50122 0.15808,-2.00151 0.3045,-3c0.07346,-0.50082 0.25122,-1.50043 0.34732,-2c0.28876,-1.50131 0.49551,-2.5 0.59549,-3c0.19998,-1 0.30002,-1.5 0.5,-2.5c0.20001,-1 0.39893,-1.99889 0.60001,-2.98933c0.09946,-0.48994 0.29401,-1.45482 0.60001,-2.84399c0.09824,-0.44594 0.29764,-1.32025 0.52084,-2.1875c0.22928,-0.89085 0.35522,-1.35129 0.80048,-2.82184c0.15936,-0.52635 0.50403,-1.608 0.67868,-2.15733c0.17465,-0.54933 0.52335,-1.62978 0.83334,-2.66667c0.2868,-0.95932 0.53351,-1.8475 0.72,-2.67599c0.17258,-0.76662 0.32532,-1.836 0.39398,-2.50467l0.078,-0.978l0.05869,-0.65866" id="svg_4" stroke-width="2" stroke="#000" fill="none"/>
  <path t="16127,16127,16127,16127,16127,16127,16151,16151,16152,16168,16183,16195,16195,16219,16220,16231,16231,16247,16260,16260,16277,16295,16311,16327,16327,16345,16360,16378,16378,16399,16399,16410,16427,16445,16460,16460,16477,16477,16494,16511,16511,16527,16527,16544,16544,16560,16578,16579,16579,16594,16594,16610,16610,16610,16629,16629,16629,16646,16646,16646,16664,16664,16664,16665,16681,16681,16682,16682,16700,16700,16700,16700,16716,16716,16716,16716,16734,16734,16734,16734,16752,16752,16752,16771,16771,16771,16771,16771,16788,16788,16788,16806,16806,16806,16806,16824,16824,16824,16845,16845,16845,16863,16864,16864,16881,16881,16881,16882,16898,16899,16916,16916,16916,16935,16935,16935,16952,16952,16952,16971,16971,16989,16989,16989,17007,17007,17007,17007,17025,17025,17025,17043,17043,17043,17043,17043,17062,17062,17063,17080,17080,17080,17080,17098,17099,17099,17099,17099,17115,17116,17116,17116,17134,17134,17134,17153,17153,17153,17153,17171,17172,17172,17172,17172,17189,17189,17190,17190,17207,17207,17207,17225,17225,17226,17226,17226,17246,17247,17247,17247,17247,17262,17262,17263,17263,17281,17281,17281,17281,17299,17299,17299,17299,17299,17317,17317,17317,17317,17335,17335,17335,17335,17354,17354,17354,17354,17355,17371,17371,17371,17371,17389,17389,17390,17408,17408,17408,17408,17408,17427,17427,17427,17427,17428,17445,17446,17446,17446,17446,17464,17464,17464,17465,17465,17482,17483,17483,17483,17501,17501,17501,17501,17519,17519,17520,17538,17538,17538,17538,17556,17556,17557,17557,17577,17577,17577,17577,17594,17595,17595,17595,17628,17629,17629,17629,17661,17661,17662,17662,17663,17693,17693,17693,17694,17694,17726,17726,17727,17727,17727,17757,17757,17758,17758,17758,17791,17792,17792,17792,17793,17793,17822,17822,17823,17823,17823,17823,17823,17856,17856,17856,17856,17857,17857,17857,17857,17889,17889,17889,17890,17890,17890,17890,17921,17922,17922,17922,17922,17922,17923,17923,17954,17954,17954,17955,17955,17955,17955,17988,17988,17988,17988,17989,17989,17989,18021,18021,18022,18022,18023,18023,18023,18053,18053,18053,18054,18054,18054,18055,18055,18086,18086,18087,18087,18087,18087,18088,18088,18120,18120,18120,18121,18121,18121,18121,18122,18122,18153,18153,18153,18154,18154,18154,18154,18155,18185,18185,18186,18186,18186,18186,18187,18219,18219,18219,18220,18220,18254,18254,18254,18256,18256,18256,18286,18287,18287,18287,18287" d="m384,110c-0.28534,2.62133 -0.35159,3.06881 -0.52084,4.02084c-0.08694,0.48901 -0.23904,1.45514 -0.57898,2.693c-0.2583,0.94063 -0.6778,1.57859 -0.86417,2.65016c-0.1434,0.82446 -0.34384,1.68758 -0.68335,2.39317c-0.41135,0.85486 -0.33911,1.66511 -0.63666,2.6415c-0.23865,0.78312 -0.67328,1.71293 -0.716,2.60133c-0.03842,0.79908 0,1.7 0,2.60001c0,0.92082 0,1.88399 0,2.57466c0,1.06816 0,1.92534 0,2.82533c0,0.75717 0,1.65266 0,2.51601c0,0.96317 -0.13254,1.89447 0.00449,2.784c0.14368,0.93268 0.75873,1.42694 0.93835,2.35266c0.16479,0.8493 0.01578,1.86508 0.2785,2.66867c0.28702,0.87785 0.60645,1.67039 0.86267,2.56267c0.22473,0.78262 0.67108,1.62131 0.89066,2.50133c0.23416,0.93848 0.35019,1.63182 0.63599,2.364c0.4404,1.12819 0.93735,1.69765 1.48935,2.57234c0.43958,0.69653 0.71457,1.35927 1.10001,2.36234c0.31186,0.81154 0.48376,1.36978 0.89999,2.39482c0.28879,0.71117 0.62735,1.42171 1,2.56401c0.21594,0.66199 0.39767,1.37863 0.60001,2.10899c0.39563,1.4281 0.5932,2.09935 0.82083,2.74817c0.34738,0.99017 0.79471,2.02382 1.13184,2.74817c0.34149,0.73373 0.69467,1.44199 1.18066,2.4185c0.28134,0.56531 0.67346,1.3224 0.96533,2.10133c0.44397,1.18489 0.59918,1.88329 0.80133,2.58133c0.19788,0.68327 0.59113,1.88821 0.92084,2.67149c0.22928,0.54469 0.80191,1.84258 1.13184,2.63718c0.17343,0.41768 0.51813,1.26759 0.86331,2.09c0.45743,1.08981 0.85284,1.95253 1.07333,2.45599c0.41989,0.95869 0.71561,1.75145 1.01068,2.60667c0.2034,0.58951 0.60001,1.78934 0.89999,2.68933c0.20001,0.60001 0.60507,1.79814 0.7955,2.39549c0.27612,0.86612 0.55505,1.93532 0.65182,2.65634c0.09494,0.70743 0.20776,1.78378 0.40533,2.74899c0.13922,0.68005 0.34183,1.32779 0.52585,2.43501c0.14935,0.89861 0.12149,1.80716 0.12149,2.53616c0,0.83699 0,2.02783 0,2.91733c0,0.57468 -0.02515,1.89003 0.01068,2.57468c0.04379,0.83684 0.36325,1.83342 0.564,2.47198c0.28967,0.92149 0.38757,1.72034 0.41464,2.57468c0.03769,1.18878 0.01068,2.08482 0.01068,2.6685c0,0.83549 0,2.08167 0,2.85416c0,0.60667 0,1.752 0,2.67734c0,0.49066 0,1.48801 0,2.45334c0,1.25017 0,1.91183 0,2.72932c0,0.97334 0,1.77284 0,2.68933c0,0.68935 0,1.86017 0,2.72717c0,0.911 0,1.3755 0,2.3075c0,1.36084 0,2.21651 0,3.02017c0,0.74367 0.01889,2.02032 -0.01068,2.81183c-0.02829,0.75691 -0.20346,1.8952 -0.3465,2.565c-0.1557,0.7291 -0.34625,1.49493 -0.64282,2.68567c-0.19931,0.80019 -0.40002,1.60001 -0.60001,2.39999c-0.20001,0.8 -0.49704,2.00043 -0.69998,2.791c-0.19714,0.76807 -0.37518,1.50261 -0.70001,2.47568c-0.27884,0.83534 -0.62607,1.57472 -1,2.66667c-0.21655,0.63232 -0.40439,1.34058 -0.63599,2.08798c-0.24277,0.78342 -0.67859,1.98151 -1.01669,2.77869c-0.34055,0.80289 -0.53616,1.19409 -0.86331,2c-0.48361,1.19128 -0.73053,1.98987 -0.96317,2.75833c-0.21985,0.72626 -0.60086,2.00766 -0.94217,2.81232c-0.23672,0.55814 -0.54776,1.16879 -1.12134,2.31451c-0.4614,0.92163 -0.70633,1.40634 -0.95734,1.89398c-0.49139,0.95468 -1.15305,2.1958 -1.53067,2.79819c-0.43311,0.69089 -0.87531,1.25842 -1.45465,2.27866c-0.36557,0.64377 -0.72699,1.37518 -1.116,2.14801c-0.60126,1.19455 -0.79541,1.59634 -1.19867,2.38531c-0.39682,0.77634 -0.78348,1.53485 -1.40002,2.58902c-0.38962,0.66617 -0.77759,1.29614 -1.39999,2.13498c-0.57956,0.7811 -1.2139,1.46066 -1.60001,1.948c-0.83063,1.04846 -1.20236,1.7074 -1.61066,2.40002c-0.42642,0.72336 -0.60953,1.11566 -1.35599,2.172c-0.49478,0.70016 -1.06686,1.34351 -1.64401,1.992c-0.58817,0.66089 -1.19513,1.33649 -1.78934,2.05865c-0.60596,0.73648 -0.8942,1.12067 -1.5,1.86334c-0.89154,1.09296 -1.49622,1.76825 -1.7955,2.091c-0.57895,0.62439 -1.14621,1.20111 -2.18317,2.24033c-0.46814,0.46918 -1.1467,1.14664 -1.60532,1.60532c-0.73721,0.7373 -1.27133,1.26184 -1.79517,1.81601c-0.76202,0.80618 -1.3772,1.57919 -1.87018,2.26401c-0.45508,0.63214 -1.17624,1.45786 -1.92267,2.03598c-0.53723,0.41611 -1.13025,0.80066 -2.02798,1.40002c-0.8996,0.60062 -1.5,1 -2.10001,1.39999c-0.89999,0.60001 -1.5,1 -2.39999,1.60001c-0.60001,0.39999 -1.5,1 -2.10001,1.39999c-0.89999,0.60001 -1.49759,1.00366 -2.40018,1.59982c-0.60272,0.3981 -1.19858,0.82123 -2.18515,1.31485c-1.01547,0.50806 -1.77454,0.73828 -2.55634,0.98532c-0.81818,0.25854 -1.25153,0.36459 -2.57968,0.8215c-0.93613,0.32205 -1.40649,0.50818 -2.35333,0.88916c-0.47394,0.1907 -1.85989,0.78668 -2.73999,1.18802c-0.42874,0.19553 -1.25873,0.59375 -2.08084,0.94415c-1.19641,0.50995 -2.00488,0.77615 -2.409,0.90451c-0.81445,0.2587 -1.6572,0.4913 -2.96216,0.91931c-0.45663,0.14978 -1.39371,0.48978 -2.375,0.83334c-0.50433,0.17657 -1.54037,0.53223 -2.625,0.83334c-0.5528,0.15344 -1.69421,0.41333 -2.28,0.53067c-0.59424,0.11905 -1.81461,0.33386 -2.44,0.43466c-1.27924,0.20618 -1.93457,0.30191 -2.59735,0.40134c-1.34116,0.20117 -2.01602,0.29984 -2.69064,0.39999c-0.6727,0.09985 -1.34164,0.19803 -3.30417,0.49982c-0.63861,0.09821 -1.27249,0.19919 -1.90652,0.28952c-1.27502,0.1817 -1.92377,0.26065 -2.58398,0.32532c-1.36264,0.13348 -2.07315,0.16806 -2.79868,0.20001c-0.73715,0.03247 -1.48257,0.05576 -2.98132,0.07465c-0.7453,0.0094 -1.48267,0.01001 -2.91733,0.01068c-0.69034,0.00034 -1.36267,0 -2.01901,0c-1.27267,0 -1.89301,0 -2.50534,0c-1.80899,0 -2.409,0.00159 -3.009,-0.00134c-1.20001,-0.00586 -1.80014,-0.01477 -2.39999,-0.03467c-1.20035,-0.03983 -2.40051,-0.12534 -3.00015,-0.18533c-1.20547,-0.12064 -1.81049,-0.20428 -2.42068,-0.27866c-0.61511,-0.07498 -1.86328,-0.23026 -3.14581,-0.33334c-0.6543,-0.05258 -1.31848,-0.08701 -2.66934,-0.14133c-0.68475,-0.02753 -1.37476,-0.04874 -2.06851,-0.078c-0.6969,-0.02942 -2.09601,-0.10773 -2.79584,-0.16882c-1.40982,-0.12308 -2.12119,-0.21268 -2.84131,-0.29935c-0.73056,-0.08795 -1.47266,-0.18399 -2.229,-0.28049c-1.56259,-0.19937 -2.37189,-0.29843 -3.19601,-0.39999c-0.83423,-0.10278 -1.67371,-0.20657 -2.51248,-0.31952c-0.83453,-0.11237 -1.65982,-0.22742 -2.4675,-0.3645c-1.55637,-0.26416 -2.29025,-0.4306 -2.99869,-0.59866c-0.6889,-0.16345 -1.35764,-0.34015 -2.013,-0.51599c-1.28595,-0.345 -1.91931,-0.53125 -3.20833,-0.83334c-0.65239,-0.15289 -1.312,-0.28839 -2.62666,-0.53067c-0.64354,-0.11859 -1.27382,-0.22253 -1.88249,-0.33148c-1.65887,-0.29694 -2.58755,-0.50153 -3.009,-0.60449c-0.79573,-0.1944 -1.56439,-0.41837 -2.81517,-0.70001c-0.9503,-0.21399 -1.46216,-0.30179 -2.52083,-0.5c-0.539,-0.10092 -1.61375,-0.29361 -2.64584,-0.5c-0.96387,-0.19275 -1.86133,-0.38934 -2.71199,-0.564l-0.41234,-0.07883" id="svg_5" stroke-width="2" stroke="#000" fill="none"/>
  <path t="39164,39184,39184,39184,39184,39192,39192,39216,39241,39241,39262,39288,39288,39288,39298,39322,39322,39342,39364,39364,39376,39376,39398,39398,39419,39440,39440,39440,39453,39475,39498,39498,39520,39520,39520,39544,39544,39560,39582,39582,39594,39615,39615,39629,39629,39650,39650,39672,39672,39691,39691,39714,39733,39733,39745,39745,39768,39768,39791,39810,39810,39824,39848,39848,39864,39864,39876,39906,39913,39936,39947,39976,40051,40234,40272,40281,40303,40314,40339,40339,40355,40380,40397,40419,40419,40442,40467,40467,40488,40512,40512,40532,40553,40568,40568,40589,40609,40620,40643,40664,40677,40677,40699,40728,40744,40768,40768,40784,40805,40831,40849,40866,40882,40902,40903,40928,40938,40938,40960,40986,40986,40992,41012,41031,41048,41048,41066,41066,41084,41112,41112,41136,41152,41177,41192,41210,41231,41245,41263,41278,41297,41335,41871,41912,41944,41944,41960,41983,42008,42024,42032,42047,42065,42096,42111,42136,42136,42167,42199,42216,42225,42242,42262,42280,42313,42313,42327,42343,42367,42399,42408,42425,42448,42480,42511,42528,42692,42712,42728,42751,42776,42792,42808,42825,42842,42860,42879,42895,42896,42910,42936,42959,42960,42980,43008,43031,43040,43040,43052,43081,43111,43112,43143,43160,43184,43208,43239,43263,43264,43280,43319,43351,43614,43684" d="m269,332c-1.76382,2.64249 -2.35391,3.30045 -2.97916,3.97916c-0.60611,0.65796 -1.36841,1.51102 -1.79669,2.14484c-0.52725,0.78027 -1.35214,1.06467 -1.92416,1.58051c-0.7384,0.66589 -1.30685,1.45804 -1.69998,2.12085c-0.40714,0.68646 -1.00058,1.53812 -1.60001,2.17465c-0.56454,0.59949 -0.9068,1.43185 -1.2215,2.32132c-0.24741,0.69928 -0.73941,1.54477 -1.37851,2.26801c-0.56689,0.64154 -1.23309,1.17981 -1.79999,1.82135c-0.6391,0.72324 -0.97191,1.43173 -1.40001,2.10532c-0.55392,0.87155 -0.9832,1.73853 -1.36667,2.48401c-0.36447,0.70856 -1.15465,1.32132 -1.65866,1.82535c-0.69066,0.69067 -1.4175,1.41748 -1.97333,1.97333c-0.70132,0.70132 -1.39703,1.22687 -1.84418,1.90134c-0.54842,0.82727 -0.94853,1.47165 -1.5425,1.93597c-0.82578,0.64551 -1.19089,1.43787 -1.91467,2.12152c-0.6236,0.58902 -1.17413,1.31277 -1.5,1.96649c-0.46388,0.93057 -1.28603,1.24762 -1.89999,1.81766c-0.72098,0.66937 -0.95157,1.48938 -1.5,2.29169c-0.46091,0.67426 -1.2,1.36667 -1.7,1.86667c-0.7,0.69998 -1.40001,1.39999 -1.90001,1.89999c-0.7,0.69998 -1.40024,1.39975 -1.89999,1.89999c-0.69901,0.69968 -0.96086,1.45407 -1.55267,2.14282c-0.56633,0.65909 -1.34555,0.9295 -1.922,1.74652c-0.46439,0.6582 -1.01945,1.23792 -1.45067,2.01065c-0.45699,0.81891 -0.66335,1.70441 -0.57466,2.60001c0.08374,0.8457 0.77367,1.27008 1.22133,2.10001c0.34933,0.64764 0.60817,1.52002 0.7995,2.39999c0.18401,0.84631 0.89598,1.59451 0.97784,2.29999c0.11053,0.95258 0.38129,1.84174 0.64867,2.54733c0.33466,0.88315 0.66786,1.69501 1.06866,2.45267c0.44934,0.8494 0.72821,1.59232 1.38383,2.30002c0.54996,0.59363 1.02803,1.35614 1.5475,1.95267c0.56917,0.65363 0.90581,1.42123 1.32733,2.34732c0.35533,0.78067 0.47968,1.556 1.10933,2.31467c0.60185,0.72519 0.73466,1.43881 1.08267,2.28534c0.27589,0.67108 0.90778,1.41025 1.40799,2.02533c0.50412,0.61987 0.42293,1.59454 0.85068,2.37466c0.45122,0.82291 0.8121,1.55637 1.222,2.30002c0.43124,0.78241 0.59349,1.61349 0.92732,2.47464c0.36131,0.93204 0.25719,1.86179 0.51067,2.62534c0.25635,0.77219 0.77917,1.50854 0.916,2.40002c0.14058,0.91592 0.71446,1.53696 0.946,2.44815c0.19563,0.76987 0.90906,1.40234 1.05267,2.35184c0.11964,0.79099 0.0347,1.71228 0.42534,2.39999c0.4632,0.81543 0.4639,1.70685 0.57466,2.60001c0.11151,0.89923 0.9572,1.28238 1,2.20001c0.04192,0.89883 0.50836,1.40829 0.94284,2.15717c0.42322,0.72946 -0.34724,1.49008 -1.14284,1.92682c-0.64812,0.35577 -1.49998,0.71375 -2.40001,0.716c-0.89999,0.00223 -1.84239,-0.26785 -2.6955,0.00449c-0.82051,0.26193 -1.33496,0.82712 -2.2045,1.01636c-0.84628,0.18417 -1.59949,0.86075 -2.3,0.97781c-1.03258,0.17255 -1.41522,0.94046 -2.3,1.00134c-0.89787,0.0618 -1.44525,0.4498 -2.18533,0.91467c-0.778,0.48871 -1.67236,0.32031 -2.41466,0.73267c-0.8244,0.45798 -1.3439,1.01447 -2.0045,1.40533c-0.78545,0.46475 -1.64145,0.83002 -2.27017,1.37265c-0.60017,0.51801 -1.34325,1.16382 -2.12534,1.45319c-0.85173,0.31512 -2.14204,0.59854 -1.54283,1.06433c0.66585,0.51758 1.37996,-0.55457 2.07884,-0.90683c0.86142,-0.4342 1.91417,0.03705 2.53867,-0.46133c0.60796,-0.4852 1.46986,-0.47922 2.22533,-0.85867c0.86722,-0.43558 1.73666,-0.31262 2.51466,-0.80133c0.74008,-0.46487 1.28621,-0.87747 2.08534,-0.91467c0.91763,-0.04272 1.41522,-0.93912 2.3,-1c0.89787,-0.0618 1.83641,0.40274 2.61465,-0.08533c0.74043,-0.46436 1.28574,-0.88931 2.08534,-0.91467c0.90135,-0.02859 1.62236,-0.68619 2.5,-0.94284c0.86555,-0.25311 1.80127,-0.00937 2.7,-0.05716c0.80341,-0.04272 1.60001,-0.57468 2.39999,-0.96399l0.90001,-0.03601l0.89867,0.00134l0.73967,0.35132" id="svg_7" stroke-width="2" stroke="#000" fill="none"/>
  <path t="100477,100497,100497,100497,100497,100497,100513,100513,100513,100526,100542,100542,100564,100564,100588,100588,100595,100595,100595,100619,100620,100628,100628,100645,100645,100645,100646,100665,100665,100665,100665,100683,100683,100703,100703,100703,100735,100735,100735,100741,100741,100741,100741,100758,100758,100777,100778,100778,100795,100795,100795,100795,100819,100819,100819,100819,100829,100829,100829,100848,100848,100849,100875,100875,100875,100896,100896,100897,100897,100920,100920,100920,100920,100920,100928,100929,100929,100946,100946,100963,100963,100963,100994,100994,101019,101019" d="m174,327c1.98534,-2.64249 2.70834,-3.30353 3.10133,-3.64001c0.79271,-0.67874 1.56937,-1.29865 2.51266,-2.09549c0.46065,-0.38913 1.181,-1.06015 1.786,-1.66449c0.70039,-0.69962 1.30002,-1.30002 1.90451,-1.90451c0.58083,-0.58084 1.15862,-1.20361 1.90616,-1.87015c0.76735,-0.68417 1.4207,-1.02335 2.13217,-1.578c0.67265,-0.52441 1.08582,-1.28113 1.65717,-2.08069c0.49942,-0.69888 1.33525,-1.33069 2.00983,-1.82831c0.51247,-0.37802 1.09435,-0.74695 2.06834,-1.75952c0.48297,-0.50211 0.91087,-1.02676 1.34982,-1.80948c0.60591,-1.08044 0.79399,-1.76178 1.42534,-2.5387c0.41347,-0.50879 1.17528,-1.25824 1.81334,-2.064c0.54962,-0.69409 0.93904,-1.39731 1.5,-2.33331c0.31105,-0.51901 0.84164,-1.29575 1.26399,-2.064c0.43176,-0.78537 0.63077,-1.59711 1.14,-2.54001c0.27795,-0.51468 0.8373,-1.33902 1.42934,-2.22934c0.39929,-0.60046 0.8,-1.20001 1.39999,-2.10001c0.60001,-0.89999 1.00134,-1.49689 1.38934,-2.08932c0.55734,-0.85101 1.06453,-1.63263 1.45349,-2.358c0.47832,-0.89206 0.85985,-1.87299 1.05717,-2.40533c0.30412,-0.82047 0.68167,-1.88876 1.0045,-2.59467c0.31389,-0.68634 0.86324,-1.61865 1.35266,-2.41882c0.36446,-0.59586 0.77228,-1.23972 1.34283,-2.36719c0.41711,-0.82425 0.60037,-1.26538 0.97917,-2.14581c0.36841,-0.85632 0.84535,-2.02478 1.1355,-2.66351c0.35382,-0.77893 0.90285,-1.67838 1.28532,-2.24268c0.62947,-0.92871 0.91823,-1.61218 1.164,-2.36398c0.29707,-0.90872 0.436,-1.72983 0.72134,-2.73468l0.32533,-0.69064" id="svg_12" stroke-width="2" stroke="#000" fill="none"/>
  <path t="101898,101908,101908,101908,101908,101908,101908,101908,101908,101927,101927,101927,101927,101927,101941,101941,101958,101974,101974,101974,101991,101991,101991,102008,102008,102025,102025,102025,102041,102041,102041,102041,102057,102057,102057,102074,102074,102090,102090,102090,102107,102107,102124,102124,102140,102140,102140,102140,102157,102157,102174,102175,102175,102191,102191,102208,102209,102209,102225,102225,102241,102241,102241,102258,102258,102275,102275,102275,102291,102291,102291,102291,102308,102308,102325,102325,102325,102341,102341,102359,102359,102376,102391,102391,102391,102408,102408,102408,102425,102425,102441,102441,102441,102458,102458" d="m199,320c2.871,-1.10699 3.4758,-1.42056 4.13034,-1.77234c0.69487,-0.37344 1.41223,-0.7677 2.13899,-1.173c0.72456,-0.40405 1.43257,-0.79974 2.73067,-1.55466c0.5721,-0.3327 1.54784,-0.91977 1.96266,-1.17065c0.99561,-0.60214 1.91199,-1.0416 2.61601,-1.34402c0.85687,-0.3681 1.58899,-0.9837 2.25732,-1.396c0.76648,-0.47284 1.57317,-1.06177 2.14317,-1.58932c0.54576,-0.50513 1.29196,-1.23117 1.7735,-1.80984c0.7722,-0.92798 1.07245,-1.45941 1.65182,-2.24197c0.58464,-0.78967 1.18958,-1.49655 1.5955,-1.92734c0.59146,-0.62769 1.42374,-1.39722 1.95833,-2.02084c0.49644,-0.57913 0.88019,-1.61694 1.147,-2.39999c0.28,-0.82175 0.90677,-1.5874 1.412,-2.11469c0.71335,-0.74448 1.30534,-1.35422 1.78717,-2.14697c0.34924,-0.57462 0.86092,-1.50577 1.34366,-2.28653c0.48924,-0.79129 0.83586,-1.25925 1.30118,-2.40115c0.2476,-0.60764 0.75195,-1.6615 1.07149,-2.15067c0.4837,-0.74051 1.15033,-1.49265 1.67467,-2.30533c0.45595,-0.7067 0.67978,-1.45578 1.0045,-2.18933c0.46637,-1.05353 0.95682,-1.64038 1.62117,-2.548c0.50975,-0.69641 0.89418,-1.16663 1.3455,-2.12399c0.37952,-0.80505 0.53691,-1.88217 0.78,-2.60535c0.18626,-0.55414 0.70917,-1.73386 1.036,-2.32532c0.48071,-0.86993 0.91611,-1.33902 1.34801,-2.43469c0.2946,-0.74734 0.43474,-1.74271 0.69016,-2.46799c0.26038,-0.73938 0.7979,-1.677 1.27917,-2.38266c0.51595,-0.75647 0.88136,-1.453 1.17467,-2.492c0.22139,-0.78427 0.55621,-1.66272 0.82666,-2.31201c0.41278,-0.99103 0.69945,-1.80731 0.84151,-2.36066c0.32272,-1.25699 0.30968,-1.96045 0.52383,-3.11932c0.09616,-0.52039 0.33333,-1.31252 0.66666,-2.50002l0.14584,-0.79166" id="svg_13" stroke-width="2" stroke="#000" fill="none"/>
  <path t="103449,103459,103459,103459,103459,103459,103459,103459,103459,103484,103484,103485,103485,103485,103485,103485,103501,103501,103501,103514,103514,103527,103527,103527,103527,103544,103544,103557,103557,103573,103573,103590,103591,103591,103607,103608,103608,103624,103624,103641,103641,103658,103658,103658,103674,103674,103674,103691,103691,103708,103708,103723,103723,103740,103741,103765,103766,103766,103774,103775,103775,103791,103791,103809,103809,103809,103809,103825,103825,103842,103842,103842,103859,103859,103859,103859,103874,103874,103874,103891,103891,103909,103909,103909,103924,103924,103924,103941,103941,103958,103958,103958,103975,103991,103991,103991,104008,104008,104024,104024,104024,104042,104043,104043,104058,104058,104058,104074,104074,104074,104091,104091,104092,104108,104109,104109,104124,104124,104141,104141,104158,104158,104158,104175,104175,104192,104192,104209,104224,104242,104242" d="m241,311c3.09216,-1.54965 3.75902,-1.98819 4.4785,-2.47766c0.76195,-0.51837 1.54385,-1.06183 2.3295,-1.617c0.77669,-0.54886 1.52858,-1.07822 2.85867,-2.07199c0.56444,-0.42172 1.05341,-0.80328 1.476,-1.14752c0.37177,-0.30286 0.97829,-0.8259 1.44667,-1.27914c0.8205,-0.79398 1.38982,-1.38583 1.92532,-1.92136c0.87065,-0.8707 1.29518,-1.29517 2.028,-2.02798c0.70801,-0.70801 1.20667,-1.20667 1.68933,-1.68933c0.79733,-0.79733 1.45901,-1.45901 2.17868,-2.17868c0.47467,-0.47467 1.25903,-1.23093 1.76398,-1.79999c0.68234,-0.76898 1.05106,-1.40344 1.578,-2.18933c0.54663,-0.81525 1.08722,-1.38766 1.59467,-2c0.65015,-0.78448 1.0892,-1.60666 1.65268,-2.43335c0.38269,-0.56146 1.17276,-1.32733 1.65268,-1.82382c0.52878,-0.547 1.21347,-1.32202 1.71133,-2.14282c0.3555,-0.58609 0.86429,-1.58524 1.19998,-2.36401c0.3457,-0.802 0.42761,-1.61169 0.79318,-2.48868c0.29883,-0.71686 0.98376,-1.57196 1.34283,-2.15717c0.56613,-0.92267 0.8035,-1.72534 0.94281,-2.29916c0.28638,-1.1795 0.28323,-2.07587 0.40985,-2.87665c0.16757,-1.05972 0.60904,-1.68018 0.82599,-2.77835c0.11591,-0.58661 0.10565,-1.56522 0.20535,-2.18399c0.19415,-1.20493 0.67023,-1.82901 1.116,-2.82266c0.33862,-0.75482 0.50513,-1.33664 0.89981,-2.52933c0.19827,-0.59915 0.48813,-1.49448 0.61484,-2.10001c0.24872,-1.18839 0.2229,-2.06772 0.36935,-2.82935c0.18921,-0.98399 0.6958,-1.72658 0.86331,-2.78499c0.12674,-0.8008 0.07721,-1.3999 0.33801,-2.58301c0.19217,-0.87169 0.37766,-1.40897 0.91333,-2.43466c0.41284,-0.7905 0.73843,-1.73438 0.78049,-2.468c0.0419,-0.73105 0.01755,-1.84933 0.02084,-2.83333c0.00226,-0.67203 -0.04114,-1.68599 0.22134,-2.524c0.25958,-0.82877 0.68546,-1.68269 0.74265,-2.40401c0.06253,-0.78865 0.00323,-1.81866 0.05685,-2.73866c0.03998,-0.68587 0.26834,-1.68401 0.47916,-2.52083c0.22147,-0.87915 0.40472,-1.77687 0.46399,-2.6685c0.05664,-0.8522 0.03601,-1.88934 0.03601,-2.81067c0,-0.68401 0,-1.68401 0,-2.5c0,-0.81599 0,-1.81467 0,-2.68933c0,-1.01067 0,-1.81067 0,-2.81067c0,-0.8 0,-1.60001 0,-2.60001c0,-0.79999 0,-1.79866 0,-2.564c0,-1.07883 0,-1.936 0,-2.836l-0.05716,-0.75717" id="svg_14" stroke-width="2" stroke="#000" fill="none"/>
  <path t="108479,108489,108489,108489,108489,108523,108523,108577,108577,108617,108634,108675,108713,108729,108766,108808,108849,108881,108918,108952,108971,109008,109008,109049,109080,109112,109161,109187,109217,109234,109264,109264,109281,109312,109344,109376,109393,109417,109449,109457,109482,109506,109537,109599,109599,109609,109633,109649,109732,109732,109793,109825,109844,109889,109949,110186" d="m372,82c-2.336,-1.484 -3.10147,-1.82501 -3.5,-2c-0.78961,-0.3467 -2.12247,-0.9642 -2.75601,-1.35333c-0.75446,-0.4634 -1.54398,-0.646 -2.444,-0.64667c-0.89999,-0.00066 -1.85971,0.30991 -2.68933,-0.01067c-0.79291,-0.30639 -1.31516,-0.98708 -2.21066,-0.98933c-0.89999,-0.00226 -1.79999,0 -2.69998,0c-0.90002,0 -1.80002,0 -2.70001,0c-0.79999,0 -1.70001,0 -2.60001,0c-0.89999,0 -1.79999,0 -2.69998,0c-0.90002,0 -1.80002,0 -2.70001,0c-0.79999,0 -1.70001,0 -2.60001,0c-0.89999,0 -1.79999,0 -2.69998,0c-0.90002,0 -1.80441,-0.08868 -2.70001,0c-0.8457,0.08374 -1.21524,0.93911 -2.10001,1c-0.89786,0.06179 -1.70041,-0.02725 -2.60001,0c-0.94412,0.02859 -1.35181,0.85638 -2.29999,1c-0.79095,0.1198 -1.79691,-0.36315 -2.564,0.036c-0.7594,0.39515 -1.23734,0.96266 -2.13602,0.964l-0.957,0" id="svg_15" stroke-width="20" stroke="#fff" fill="none"/>
  <path t="113015,113059,113059,113122,113122,113202,113257,113335,113535,113545,113565,113594,113606" d="m326,82c-8.12799,-0.65717 -9.08029,-0.45142 -10,-0.16666c-0.78033,0.24161 -1.7265,-0.01707 -2.60001,0.20267c-0.86282,0.21706 -1.59732,0.87866 -1.69098,0.964l0.89099,0l0.89999,-0.02084l0.79999,-0.33183" id="svg_16" stroke-width="20" stroke="#fff" fill="none"/>
  <path t="117792,117869,117869,117869,117869,117897,117897,117920,117982,118024,118056,118074,118128,118185,118249,118281,118297,118360,118401,118409,118434,118472,118521,118521,118552,118584,118639,118680,118681,118712,118744,118769,118777,118793,118817,118833,118864,118888,118921,118929,118940,118961,118984,119016,119016,119040,119057,119081,119097,119120,119145,119168,119192,119205,119225,119264,119297,119313,119313,119344,119361,119384,119401,119432,119464,119496,119513,119513,119544,119576,119616,119648,119665,119689,119720,119752,119776,119800,119864,119879,119944,119953,120032,120075,120145,120170,120232,120253,120332,120435,120462,120532,120569,120682,120762,120818,120948,121192" d="m307,94c1.48267,-2.336 1.81787,-3.10003 1.97916,-3.5c0.31729,-0.78683 0.59811,-2.18923 1,-2.89584c0.42841,-0.75324 1.008,-1.30875 1.02084,-2.20416c0.01263,-0.87933 0.75943,-1.34119 0.99551,-2.1045c0.26486,-0.85639 0.43896,-1.68994 0.92047,-2.49417c0.44522,-0.74362 0.89374,-1.32771 1.36935,-2c0.552,-0.78027 1.32693,-1.15807 2,-1.71733c0.66916,-0.55602 1.42764,-0.70183 2.31467,-1.10933c0.81274,-0.37337 1.64609,-0.77467 2.39999,-1.14133c0.76361,-0.3714 1.49985,-0.82066 2.39999,-0.83334c0.89542,-0.01261 1.41776,-0.68295 2.21066,-0.98933c0.82962,-0.32058 1.78934,-0.01067 2.68933,-0.01067c0.90002,0 1.80441,0.08868 2.70001,0c0.8457,-0.08374 1.21524,-0.93911 2.10001,-1c0.89786,-0.06179 1.69998,0 2.60001,0c0.89999,0 1.79999,0 2.69998,0c0.89999,0 1.80002,0 2.70001,0c0.89999,0 1.50717,-0.48316 2.18533,-0.91467c0.77505,-0.49316 1.81467,-0.08533 2.71466,-0.08533c0.79999,0 1.70001,0 2.60001,0c0.89999,0 1.79999,0 2.69998,0c0.90002,0 1.80002,0 2.70001,0c0.79999,0 1.70001,0 2.60001,0c0.89999,0 1.83481,-0.24287 2.6955,0.0045c0.76788,0.2207 1.22519,0.98287 2.10449,0.9955c0.89542,0.01286 1.65381,0.4466 2.17468,1.02533c0.5741,0.63787 1.35715,0.58163 2.13998,1.06001c0.80325,0.49083 1.13657,1.25146 1.71066,1.88934c0.52087,0.57873 1.28885,0.62679 2.13867,1.06133c0.69684,0.35632 1.11691,1.24686 1.72,1.88c0.54688,0.57413 0.63123,1.44372 1.14133,2.05867c0.4971,0.59927 1.22202,1.078 1.65869,1.74133l0.79431,0.50533" id="svg_17" stroke-width="2" stroke="#000" fill="none"/>
  <path t="122982,123033,123033,123033,123033,123033,123073,123073,123105,123124,123144,123201,123217,123225,123280,123320,123352,123408,123440,123456,123456,123488,123520,123552,123584,123616,123640,123672,123672,123712,123720,123752,123784,123808,123827,123856,123888,123896,123921,123944,123984,124016,124024,124081,124096,124152,124169,124200,124240,124280,124312,124344,124361,124392,124432,124432,124577,124640" d="m344,90c-2.64233,1.10683 -3.30911,1.75678 -3.95834,2.52084c-0.3255,0.38306 -0.96979,1.10185 -1.55566,2.09316c-0.45691,0.77307 -0.72888,1.82084 -0.48151,2.6815c0.2207,0.7679 0.62704,1.30698 1.01636,2.18366c0.3157,0.71089 0.61591,1.32262 1.01517,2.08484c0.39722,0.7583 1.17923,1.37511 2.064,1.436c0.89786,0.06179 1.69998,0 2.60001,0c0.89999,0 1.79999,0 2.69998,0c0.89999,0 1.80167,0.05437 2.70001,-0.00017c0.70386,-0.04272 1.58316,-0.43397 2.37915,-0.99983c0.60034,-0.42677 0.98672,-1.37534 1.39951,-2.09983c0.45111,-0.79179 1.09204,-1.25607 1.12134,-2.20017c0.02786,-0.89823 0.56885,-1.37663 0.96399,-2.13599c0.39917,-0.76711 0.19534,-1.86189 -0.31665,-2.51134c-0.48453,-0.61461 -0.46494,-1.69475 -1.16818,-2.03183c-0.78369,-0.37565 -1.35306,-0.74643 -2.08981,-1.01017c-0.83737,-0.29977 -1.78934,-0.01067 -2.68933,-0.01067c-0.90002,0 -1.80002,0 -2.70001,0l-0.79999,0l-0.90002,0l-0.94281,0.05717" id="svg_18" stroke-width="2" stroke="#000" fill="none"/>
  <path t="151550,151560,151560,151560,151560,151560,151600,151600,151663,151776,151800,151832,151896,151968,151986,152053,152160,152176,152287" d="m240,326c-1.54933,-0.2215 -2.46974,-0.35059 -3.5,-0.52084c-0.52322,-0.08646 -1.55275,-0.15451 -2.64967,-0.57898c-0.76337,-0.29541 -1.461,-0.8895 -2.35033,-0.90018c-0.88933,-0.01068 -1.37393,-0.72559 -2.11067,-0.98932c-0.83736,-0.29974 -1.8685,-0.03152 -2.41466,-0.58536l-0.67917,-0.42084l-0.8595,-0.0405l-0.52,-0.67999" id="svg_19" stroke-width="2" stroke="#000" fill="none"/>
  <path t="162202,162224,162224,162224,162224,162224,162248,162248,162279,162295,162295,162327,162359,162399,162431,162471,162503,162511,162551,162583,162623,162671,162671,162728,162767,162783,162836,162856,162879,162919,162943,162975,163028,163136,163319,163369,163407,163407,163431,163448,163456,163487,163498,163511,163543,163575,163583,163607,163623,163663,163679,163687,163719,163759,163939,163960,163983,163999,164023,164031,164055,164071,164095,164103,164120,164143,164175,164192,164192,164215,164247,164263,164319,164359,164383,164399,164431,164455,164495,164527,164527,164567,164629,164679,164687,164943,164983,165036,165063,165079,165103,165119,165159,165191,165215,165215,165239,165247,165271,165287,165327,165359,165391,165400,165423,165455,165495,165535,165756,165807,165808,165823,165848,165871,165887,165911,165935,165959,165975,165975,166007,166031,166063,166079,166119,166169,166169,166239,166335,166536,166559,166599,166607,166621,166648,166671,166679,166711,166743,166767,166791,166807,166840,166840,166863,166895,166919,166943,166975,166975,166991,167015,167047,167071,167095,167111,167134,167143,167143,167167,167199,167215,167255,167287,167319,167359,167407,167407,167447,167502,167579,167646,167712,167779,167824,167848,167848,167880,168006,168299,168344,168400,168456,168551,168661,168696,168704,168736,168767,168776,168799,168831,168855,168871,168919,168951,168960,169007,169039,169071,169103,169111,169135,169160,169184,169192,169220,169237,169270,169288,169328,169368,169368,169408,169440,169448,169480,169536,169568,169600,169624,169640,169672,169704,169720,169752,169800,169840,169858,169880,169928,169952,169992,169992,170052,170439" d="m254,441c1.07466,0.284 1.53003,0.35474 2.54166,0.5c0.52753,0.07574 1.55527,0.23019 2.82935,0.37851c0.81198,0.09454 1.87747,-0.03204 2.629,0.28815c0.78122,0.33282 1.49982,0.82291 2.39999,0.83334c0.89993,0.01041 1.80002,0 2.70001,0c0.89999,0 1.50717,0.48318 2.18533,0.91467c0.77505,0.49316 1.81467,0.08533 2.71466,0.08533c0.79999,0 1.70001,0 2.60001,0c0.89999,0 1.83481,-0.24289 2.6955,0.00449c0.76788,0.2207 1.22516,0.98508 2.10449,0.99551c0.89993,0.01068 1.80002,0 2.70001,0c0.89999,0 2.00543,-0.2692 1.73334,-1c-0.30801,-0.8273 -1.07526,-1.38489 -1.93317,-1.87866c-0.73746,-0.42444 -1.28241,-0.91064 -2.09885,-1.12268c-0.80045,-0.20789 -1.32202,-0.98602 -2.20132,-0.99866c-0.89542,-0.01285 -1.40686,-0.6705 -2.12085,-0.97916c-0.80719,-0.34894 -1.81302,0.03104 -2.45383,-0.44617c-0.68176,-0.50772 -2.40399,-1.45334 -2.40399,-0.57468c0,0.18134 1.07867,0 1.97867,0c0.89999,0 1.79999,0 2.69998,0c0.90002,0 1.80685,-0.11078 2.70001,0c0.89923,0.11151 1.29404,0.84851 2.20001,1.00134c0.91357,0.15411 1.4541,0.8085 2.39999,0.98798c0.88428,0.16779 1.79999,0.01068 2.69998,0.01068c0.90002,0 1.92493,-0.25626 2.57867,0.22134c0.69907,0.51071 1.32135,0.77866 2.22134,0.77866c0.89999,0 1.83035,-0.39297 2.61465,0.08533c0.80365,0.49008 1.38974,0.82599 2.28534,0.91467c0.8457,0.08374 1.16397,0.35925 0.97916,-0.5c-0.18161,-0.84436 -1.20889,-1.17096 -1.85782,-1.72134c-0.66122,-0.56082 -0.93106,-1.30505 -1.40668,-1.97733c-0.552,-0.78027 -1.51486,-0.78192 -2.41467,-0.80133c-0.86453,-0.01865 -1.34396,-0.85425 -2.10132,-0.99866c-0.88278,-0.16833 -1.79874,0.00824 -2.69867,-0.00134c-0.97931,-0.01044 -1.43661,-0.77481 -2.2045,-0.99551c-0.86069,-0.24738 -2.67416,-0.88315 -2.67416,-0.00449c0,0.37866 1.17865,0 2.07867,0c0.89999,0 1.79999,0 2.69998,0c0.89999,0 1.80002,0 2.70001,0c0.89999,0 1.69998,0 2.60001,0c0.89999,0 1.79999,-0.00223 2.69998,0c0.89999,0.00226 1.63666,0.32614 2.39999,0.716c0.7529,0.38452 1.50092,1.14444 2.20001,0.91333c0.87811,-0.29031 -0.40002,-1.3468 -1.2955,-1.63382c-0.76086,-0.24387 -1.28705,-0.68314 -2.09384,-1.0062c-0.78912,-0.31598 -1.34189,-0.80438 -2.21066,-1.02533c-0.86224,-0.2193 -1.59698,-0.92126 -2.5,-0.96399c-0.89899,-0.04251 -1.60001,-0.05716 -2.39999,-0.5c-0.79999,-0.44284 -1.70001,-0.5 -2.60001,-0.5c-0.89999,0 -1.69998,0 -2.60001,0c-0.89999,0 -1.79999,0 -2.69998,0c-0.89999,0 -1.80002,0 -2.70001,0c-0.89999,0 -1.69998,0 -2.60001,0c-0.89999,0 -1.79999,0 -2.69998,0c-0.89999,0 -1.80002,0 -2.70001,0c-0.89999,0 -1.69998,0 -2.60001,0c-0.89999,0 -1.79999,0 -2.69998,0c-0.89999,0 -1.80002,0 -2.70001,0c-0.89999,0 -1.69998,0 -2.60001,0c-0.89999,0 -2.06866,0.05814 -2.2955,-0.7045c-0.25531,-0.85834 -0.00449,-1.7955 -0.00449,-2.6955c0,-0.89999 0.18054,-1.90067 -0.284,-2.51599c-0.51579,-0.68323 -0.5211,-1.4057 -0.71733,-2.28268c-0.18057,-0.80704 -0.67111,-1.29813 -1.00934,-2.19067c-0.2773,-0.73175 -0.97867,-1.22131 -0.98933,-2.11066c-0.01067,-0.88934 -0.77478,-1.43661 -0.9955,-2.2045c-0.24738,-0.86069 0.28459,-1.84747 -0.01517,-2.68484c-0.26375,-0.73676 -0.97867,-1.22131 -0.98933,-2.11066c-0.01067,-0.88934 -0.75941,-1.44119 -0.9955,-2.2045c-0.26488,-0.85638 -0.59364,-1.61343 -0.883,-2.39551c-0.31512,-0.85175 -0.24579,-1.67743 -0.69617,-2.5c-0.42728,-0.7804 -0.37346,-1.73386 -0.85068,-2.37466c-0.50771,-0.68176 -0.5724,-1.52533 -0.57466,-2.42532c-0.00226,-0.89551 -0.67053,-1.40686 -0.97917,-2.12085c-0.34894,-0.80719 -0.02083,-1.77914 -0.02083,-2.67917c0,-0.89999 0.32179,-1.9379 -0.16667,-2.63333c-0.50232,-0.71518 -0.83333,-1.36667 -0.83333,-2.26666c0,-0.89999 0,-1.69998 0,-2.60001l-0.036,-0.86398" id="svg_20" stroke-width="2" stroke="#000" fill="none"/>
  <path t="174495,174521,174521,174521,174521,174521,174521,174529,174529,174551,174568,174582,174601,174615,174632,174648,174656,174688,174712,174720,174744,174753,174770,174800,174818,174832,174856,174872,174904,174912,174952,174992,174992,175049,175073,175074,175096,175104,175136,175176,175184,175208,175248,175280,175296,175312,175352,175360,175376,175408,175424,175472,175488,175572,175601,175702,175712,175776,175808,175856,176029,176202" d="m266,335c-1.32816,1.10666 -2.11975,1.76425 -2.56265,2.12668c-0.4574,0.37427 -1.37326,1.11682 -1.8187,1.45331c-1.09833,0.82971 -1.98196,1.34946 -2.61865,1.92001c-0.59988,0.5376 -1.41882,0.91647 -1.91599,1.69867c-0.4649,0.73145 -1.13782,1.24792 -1.65868,1.82666c-0.57408,0.63788 -1.10374,1.25989 -1.70934,1.89066c-0.55,0.57288 -1.13054,1.16809 -1.76868,1.73135c-0.5954,0.52554 -1.26495,1.09924 -1.86333,1.63666c-0.63846,0.57343 -1.16653,1.1319 -1.73134,1.76868c-0.62218,0.70148 -1.03632,1.34473 -1.70982,1.89465c-0.7034,0.57434 -1.44321,0.85364 -2.04283,1.45267c-0.70027,0.69958 -1.04541,1.41803 -1.62534,2.164c-0.4855,0.62448 -1.07512,1.22778 -1.47467,1.936c-0.49535,0.87799 -1.07735,1.44119 -1.52533,2.11066c-0.49213,0.73544 -0.74179,1.68661 -1.25867,2.30533c-0.54884,0.65695 -0.64514,1.43246 -1.14134,2.05869c-0.52696,0.66507 -1.35539,1.0289 -1.57333,1.82666c-0.24178,0.88501 -0.68222,1.48151 -1.28532,2.11465c-0.54689,0.57413 -0.63124,1.44373 -1.14134,2.05869c-0.49709,0.59927 -1.222,1.078 -1.62733,1.72983l-0.52199,0.82352" id="svg_21" stroke-width="20" stroke="#fff" fill="none"/>
  <path t="178458,178608,178608,178608,178608,178655,178655,178728,178738,178998,179039,179064" d="m264,334c2.336,0.56799 3.10065,0.85248 3.89868,1.14932c0.76468,0.28442 1.69904,0.69022 2.51797,0.80902c0.97403,0.1413 1.87885,0.04614 2.53668,0.46698l-0.47418,0.55383l-0.97916,0.02084" id="svg_22" stroke-width="20" stroke="#fff" fill="none"/>
  <path t="182628,182680,182720,182720,182795,182898,182944,183001,183064,183064,183128,183195,183247,183311,183311,183367,183428,183455,183496,183519,183551,183612,183663,183703,183728,183759,183807,183847,183887,183945,184007,184047,184047,184111,184183,184247,184296,184422,184695" d="m252,329c5.07132,0.00449 5.96667,0.22058 6.60001,0.57468c0.86124,0.48151 1.79999,0.42465 2.69998,0.42532c0.90002,0.00067 1.65378,0.24213 2.40002,0.64734c0.76111,0.41327 1.71048,0.21994 2.59998,0.35715c0.9314,0.14368 1.46863,0.84735 2.40002,0.99103c0.8895,0.13721 1.66843,0.14859 2.35266,0.65182c0.6662,0.48999 1.64734,0.35266 2.54733,0.35266c0.89999,0 1.83481,-0.24289 2.6955,0.00449c0.76788,0.2207 1.22516,0.98508 2.10449,0.99551c0.89993,0.01068 1.80002,0 2.70001,0c0.89999,0 1.69998,0 2.60001,0c0.89999,0 1.79999,0.02084 2.59998,0.35266l0.80002,0.52585l0.89999,0.12149" id="svg_23" stroke-width="2" stroke="#000" fill="none"/>
  <path t="185970,185994,185994,185994,185994,186009,186009,186040,186057,186072,186096,186112,186128,186159,186168,186192,186264,186264,186303,186335,186343,186383,186415,186447,186471,186495,186503,186535,186567,186575,186607,186647,186664,186712,186720,186743,186759,186799,186807,186839,186879,186919,186959,186959,187016,187056,187095,187119,187137,187191,187231,187247,187287,187327,187335,187375,187407,187439,187487" d="m251,328c-0.85333,2.33466 -1.05069,2.71332 -1.52083,3.47916c-0.46672,0.76028 -1.13167,1.70169 -1.79651,2.3515c-0.63347,0.61914 -0.66536,1.48068 -1.18266,2.16934c-0.46999,0.62567 -0.58948,1.41736 -1.07466,2.02533c-0.49838,0.62451 -0.66737,1.423 -1.14134,2.05869c-0.57324,0.76883 -0.26526,1.71616 -0.284,2.616c-0.01801,0.86453 -0.85425,1.34396 -0.99867,2.10132c-0.16833,0.88278 0.00824,1.79874 -0.00133,2.69867c-0.01042,0.97931 -0.7587,1.44141 -0.9955,2.2045c-0.25502,0.82178 -0.85875,1.33948 -1.00317,2.09683c-0.16833,0.88278 -0.31581,1.58582 -0.83466,2.36533c-0.47089,0.70746 -0.61282,1.38092 -1.08134,2.11868c-0.43912,0.69147 0.23705,1.86847 -0.30666,2.59332c-0.48232,0.64304 -0.61497,1.37863 -1,2.22134c-0.3058,0.66931 -0.77333,1.49994 -0.77867,2.39999c-0.00533,0.89996 0.07304,1.85016 -0.42534,2.47467c-0.48518,0.60797 -0.60771,1.39551 -1.14932,2.05066c-0.47069,0.56937 -0.85985,1.36911 -1.34134,2.17334c-0.44519,0.74362 -1.084,1.30133 -1.65866,1.82666l-0.50934,0.69067" id="svg_24" stroke-width="2" stroke="#000" fill="none"/>
  <path t="189178,189200,189200,189232,189239,189255,189280,189303,189335,189352,189368,189391,189423,189439,189455,189487,189519,189536,189543,189575,189607,189639,189671,189671,189695,189727,189760,189792,189792,189800,189847,189872,189880,189911,189935,189944,189976,189984,190008,190048,190072,190103,190112,190144,190175,190208,190216,190264,190297,190328,190352,190400,190448,190504,190520,190544,190568,190623,190640,190655,190695,190743,190783,190791,190847,190873,190887,190935,190959,191285,191321" d="m268,331c-3.02802,4.85867 -3.72687,5.48822 -3.96399,6.39999c-0.22562,0.86755 -0.6998,1.40982 -1.01517,2.12085c-0.39734,0.89587 -0.45374,1.73035 -0.85419,2.47916c-0.42328,0.79144 -1.12387,1.28238 -1.16666,2.20001c-0.0419,0.89883 -0.50784,1.40863 -0.94284,2.15717c-0.42447,0.73038 0.18707,1.87497 -0.34116,2.55881c-0.48471,0.6275 -0.62512,1.38873 -0.71735,2.28403c-0.08368,0.81259 -0.79379,1.45367 -0.97781,2.29999c-0.19135,0.87997 -0.52136,1.71878 -0.85419,2.5c-0.32019,0.75153 -0.53729,1.42899 -1.04517,2.2215c-0.47844,0.74655 -0.62868,1.38751 -1.06433,2.13568c-0.42445,0.72894 -0.68002,1.39264 -1.03633,2.16367c-0.36456,0.78891 -0.59818,1.42035 -1.04616,2.08981c-0.49213,0.73544 -0.80795,1.60083 -0.97484,2.48917c-0.14949,0.79572 -0.78914,1.28241 -1.00116,2.09885c-0.20787,0.80045 -0.98605,1.32202 -0.99867,2.20132c-0.01286,0.89542 -0.67053,1.40686 -0.97917,2.12085c-0.34894,0.80719 0.17407,1.80084 -0.02216,2.67783c-0.18057,0.80704 -0.98605,1.32202 -0.99867,2.20132c-0.01286,0.89542 -0.67053,1.40686 -0.97917,2.12085c-0.34894,0.80719 -0.03149,1.8685 -0.52083,2.47916c-0.48933,0.61066 -0.62654,1.38171 -1.14734,2.05267c-0.45311,0.58377 -0.40982,1.59015 -1.18599,2.11398l-0.14584,0.29169" id="svg_25" stroke-width="2" stroke="#000" fill="none"/>
  <path t="194361,194371,194371,194371,194371,194391,194391,194415,194415,194423,194437,194455,194471,194495,194519,194520,194536,194552,194583,194607,194639,194656,194671,194695,194719,194735,194767,194783,194807,194839,194863,194871,194903,194920,194951,194975,194975,194983,195000,195016,195063,195103,195104,195112,195136,195152,195207,195240,195328,195376,195440,195448,195519,195704,195704,195775,195784,195815,195855,195887,195904,195927,195936,195952,195976,196007,196015,196031,196057,196082,196087,196111,196127,196159,196167,196183,196200,196223,196239,196264,196271,196303,196335,196375,196399,196416,196433,196487,196512,196543,196583,196623,196623,196663,196703,196751,196807,196878,196878,197160,197192,197215,197248,197264,197296,197296,197327,197344,197360,197400,197424,197440,197487,197496,197528,197536,197556,197576,197600,197664,197823,197858,197872,197890,197912,197936,197947,197966,197986,198007,198027,198046,198064,198083,198103,198103,198127,198159,198191,198207,198231,198248,198248,198287,198351,198814,198848,198879,198879,198895,198927,198959,198967,198992,199007,199007,199031,199047,199074,199087,199111,199143,199159,199159,199171,199200,199231,199231,199263,199279,199311,199335,199351,199375,199376,199407,199431,199463,199495,199535,199567,199567,199583,199717,199767,199767,199914,199959,199991,200023,200031,200071,200103,200111,200143,200175,200207,200255,200263,200287,200319,200335,200359,200391,200510,200551,200551,200572,200590,200590,200610,200631,200689,200702,200726,200726,200751,200807,201007,201071,201079,201111,201127,201151,201191,201199,201223,201248,201272,201303,201303,201327,201423,201531,201541,201575,201639,201791,202441,202518,202519,202663,202719,202751,202751,202791,202856,202911,202977,203016,203047,203079,203095,203095,203127,203159,203191,203200,203239,203279,203327,203367,203432,203495,203543,203584,203661,203661,203834,203917,203952,203978,204008,204040,204080,204112,204152,204184,204200,204240,204272,204312,204352,204352,204392,204432,204464,204496,204520,204536,204568,204592,204592,204616,204648,204680,204712,204760,204827,204872,204904,204904,204943,204984,205023,205055,205103,205311,205376,205791,205791,205824,205855,205880,205904,205904,205920,205935,205960,205976,206007,206008,206032,206040,206055,206074,206095,206114,206134,206152,206153,206174,206193,206213,206214,206232,206251,206270,206292,206292,206312,206328,206352,206384,206400,206416,206432,206447,206466,206488,206512,206528,206544,206568,206592,206592,206624,206640,206656,206680,206695,206720,206759,206792,206792,206800,206816,206872,207641" d="m288,336c-1.76801,2.052 -2.24985,2.67661 -2.74933,3.32401c-0.48187,0.6246 -1.08655,1.43015 -1.70901,2.11349c-0.621,0.68173 -0.9794,1.38654 -1.56699,2.1265c-0.53763,0.67706 -0.5817,1.3678 -1.06,2.15067c-0.49081,0.80334 -1.19965,1.34491 -1.56201,1.98535c-0.46442,0.82077 -1.13339,1.30356 -1.35132,2.10132c-0.24179,0.88501 -0.78833,1.37482 -1.0015,2.29849c-0.18207,0.78891 -0.7594,1.21384 -1.00119,2.09885c-0.21793,0.79776 -0.67111,1.29813 -1.00934,2.19067c-0.27728,0.73175 -0.64557,1.3009 -1.01016,2.08981c-0.35632,0.77103 -0.61481,1.43301 -1.03632,2.16367c-0.46793,0.8111 -1.15454,1.32892 -1.51752,1.95718c-0.48856,0.84564 -0.87469,1.53836 -1.50934,2.116c-0.64667,0.58856 -1.14627,1.24432 -1.56332,1.98401c-0.42004,0.745 -0.87076,1.45883 -1.43668,2.01599c-0.67102,0.66068 -0.65973,1.50891 -1.13733,2.16266c-0.51071,0.69907 -0.62885,1.33392 -0.77881,2.22116c-0.14401,0.85202 -1.21567,1.36429 -0.99536,2.19568c0.20465,0.77234 1.12454,1.16833 1.64285,1.75717c0.57266,0.65057 1.03885,1.36969 1.2955,2.24731c0.25311,0.8656 -0.16534,1.91589 0.34116,2.616c0.50177,0.69357 0.52112,1.4057 0.71735,2.28268c0.18057,0.80704 0.9787,1.23682 0.99866,2.10132c0.02298,0.99527 0.6705,1.50687 0.97916,2.22086c0.34894,0.80719 -0.05222,1.82932 0.44617,2.45383c0.4852,0.60797 0.57266,1.42532 0.57468,2.32532c0.00226,0.99551 0.6705,1.50687 0.97916,2.22086c0.34894,0.80719 0.02075,1.77914 0.02084,2.67917c0.00009,0.89981 0.5484,1.4693 0.94284,2.15717c0.46985,0.8194 0.05716,1.84283 0.05716,2.74283c0,0.89999 -0.01801,1.70016 0,2.60001c0.01801,0.90054 0.58914,1.61789 0.87851,2.39999c0.31512,0.85175 0.55014,1.85324 0.03616,2.61465c-0.45078,0.66776 -1.45239,1.03012 -2.31467,1.24933c-0.87314,0.22195 -1.73837,0.42209 -2.39999,0.75201c-0.84338,0.42056 -1.6008,0.48422 -2.28403,1c-0.61533,0.46454 -1.73859,-0.12723 -2.55881,0.34116c-0.81317,0.46432 -0.96619,1.45004 -1.71436,1.88568c-0.72894,0.42447 -1.57925,0.41928 -2.14282,1.05716c-0.5155,0.5835 -1.08627,1.18329 -1.72116,1.87851c-0.13412,0.14688 0.65921,-0.04132 1.27383,-0.52585c0.64944,-0.51199 1.74423,0.0105 2.51132,-0.38867c0.7594,-0.39514 1.23734,-0.96332 2.13602,-0.96399c0.89999,-0.00067 1.74298,-0.1709 2.40982,-0.64734c0.66354,-0.47406 1.72351,-0.35266 2.58566,-0.35266c0.90451,0 1.8045,0 2.7045,0c0.89999,0 1.84848,0.15353 2.60001,-0.16666c0.78122,-0.33282 1.49982,-0.82291 2.39999,-0.83334c0.89993,-0.01041 1.8573,0.16367 2.70001,-0.22134c0.66931,-0.30579 1.49994,-0.77332 2.39999,-0.77866c0.89996,-0.00534 1.80652,-0.10696 2.70001,0.00134c0.91977,0.11148 1.4541,0.8085 2.39999,0.98798c0.88428,0.16779 1.79999,0.01068 2.69998,0.01068c0.90002,0 1.80002,0 2.70001,0c0.79999,0 1.45148,0.33102 2.16666,0.83334c0.69543,0.48846 1.66776,-0.0293 2.53336,0.22382c0.87762,0.25665 1.5986,0.91425 2.5,0.94284c0.89954,0.02853 1.79999,0 2.59998,0c0.90002,0 1.80005,-0.00534 2.70001,0c0.90005,0.00534 1.60721,0.45297 2.5,0.83334c0.75153,0.32019 1.38712,0.48117 2.16666,1c0.70746,0.47089 1.9025,0.73495 2.548,0.08133c0.55927,-0.56631 -0.62253,-1.29974 -1.13998,-1.88934c-0.55972,-0.63776 -1.37646,-0.66208 -2.13867,-1.06134c-0.7583,-0.39722 -1.23752,-0.94534 -2.13602,-0.96399c-0.90051,-0.01868 -1.69443,-0.43448 -2.49866,-0.91599c-0.74362,-0.44522 -1.29813,-0.75647 -2.19067,-1.0947c-0.73175,-0.27728 -1.82831,-0.99884 -1.52399,-1.70532c0.37839,-0.87845 1.71332,-0.284 2.54932,-0.284c0.84802,0 1.71133,0 2.72803,0c0.93597,0 1.836,0 2.73599,0c0.89999,0 1.60001,0.05716 2.39999,0.5c0.79999,0.44284 2.22299,0.93738 2.43832,0.14734c0.20557,-0.75427 -0.93222,-1.43997 -1.64282,-1.64285c-0.90421,-0.25815 -1.57651,-0.67783 -2.17416,-1.22583c-0.63812,-0.58508 -1.32135,-0.77866 -2.22134,-0.77866c-0.89999,0 -1.69998,0 -2.60001,0c-0.89999,0 -1.85971,0.30991 -2.68933,-0.01068c-0.79291,-0.3064 -1.45102,-0.55981 -2.17465,-1.02533c-0.64294,-0.4136 0.56445,-0.93692 1.36398,-0.96399c0.8443,-0.02859 1.04572,-0.91626 0.20001,-1c-0.79608,-0.07883 -1.70001,0 -2.60001,0c-0.89999,0 -1.79999,0 -2.69998,0c-0.90002,0 -1.80002,0 -2.70001,0c-0.79999,0 -1.70016,-0.01682 -2.60001,0c-0.96451,0.01801 -1.39429,0.81808 -2.20132,0.99866c-0.87698,0.19623 -1.79868,0.00134 -2.69867,0.00134c-0.89999,0 -1.79999,0 -2.70001,0c-0.89999,0 -1.79999,0 -2.59998,0c-0.90002,0 -1.96869,0.05814 -2.19553,-0.7045c-0.25531,-0.85834 -0.00449,-1.7955 -0.00449,-2.6955c0,-0.89999 0,-1.80002 0,-2.70001c0,-0.89999 0.45032,-1.44492 0.91467,-2.18533c0.48807,-0.77826 0.08533,-1.81467 0.08533,-2.71466c0,-0.79999 0,-1.70001 0,-2.60001c0,-0.89999 0,-1.79999 0,-2.69998c0,-0.90002 0,-1.80002 0,-2.70001c0,-0.79999 0,-1.70001 0,-2.60001c0,-0.89999 0,-1.79999 0,-2.69998c0,-0.90002 0,-1.80002 0,-2.70001c0,-0.79999 0,-1.70001 0,-2.60001c0,-0.89999 0,-1.79999 0,-2.69998c0,-0.90002 0,-1.80002 0,-2.70001c0,-0.79999 0.18826,-1.48788 0.83334,-2.16666c0.60284,-0.63434 1.22623,-1.11832 1.86667,-1.48068c0.82077,-0.46442 1.52512,-0.89597 2.17865,-1.57401c0.55862,-0.57953 1.24539,-0.97171 1.82135,-1.48315c0.73227,-0.65021 1.60181,-1.05722 2.21597,-1.5795c0.65375,-0.55594 0.91238,-1.34216 1.44119,-2.01151c0.58545,-0.74103 1.75555,-0.75696 2.20682,-1.31516c0.62268,-0.77026 0.76791,-1.71341 1.436,-2.38934c0.57889,-0.58566 1.51532,-0.86032 2,-1.52084c0.50598,-0.68951 0.77039,-1.62054 1.08401,-2.27914c0.39896,-0.8378 1.4313,-1.06033 1.91599,-1.72086c0.50598,-0.68951 0.67328,-1.70694 1.22134,-2.35782c0.55762,-0.66226 0.63593,-1.40646 1.13132,-2.06866c0.51807,-0.6925 1.06863,-1.31152 1.526,-2.1525c0.40652,-0.7475 0.9118,-1.24438 1.34283,-2.00018c0.38156,-0.6691 1.18997,-1.28583 1.69449,-2.09866c0.45706,-0.73639 1.09897,-1.1889 1.65869,-1.82666c0.51746,-0.5896 1.1705,-1.18225 1.59198,-1.97467c0.34073,-0.64063 0.83334,-1.47916 1.40802,-2.02533l0.50934,-0.69067l0.74933,-0.45065" id="svg_26" stroke-width="2" stroke="#000" fill="none"/>
 </g>
 <g display="none">
  <title>muse_image</title>
  <image xlink:href="http://farm1.static.flickr.com/188/383221536_d77a1bc04a.jpg" id="muse" height="480" width="640" y="0" x="0"/>
 </g>
 <g display="none">
  <title>bbox</title>
  <rect stroke="#f00" fill="none" stroke-width="3" height="352" width="321.28" y="79.36" x="116.48" id="bbox"/>
 </g>
</svg>
