<svg width="640" height="480" xmlns="http://www.w3.org/2000/svg" xmlns:svg="http://www.w3.org/2000/svg" xmlns:xlink="http://www.w3.org/1999/xlink">
 <!-- Sketchy ANNOTATION
  ImageNet ID: n01558993_19761
  URL: http://farm3.static.flickr.com/2139/2424408952_32153d9224.jpg
  Image Width: 500
  Image Height: 396
  BBox X: 89
  BBox Y: 155
  BBox Width: 267
  BBox Height: 151
  Exposure: 2000ms
  Synset Label: songbird
  Synset ID: n01526521
  Worker Tag: black orange songbird
  Sanity Check: 
   Saved
  Comment: 
   {}
  Worker ID: AXD2DZ7U6CK35
  Assignment ID: 3OONKJ5DKCJRZPPHSX2ZZG4NY66OBY
  HIT ID: 3JTPR5MTZSC4XYPZ3TER0TS10D2K53
  Work Time: 52s
  Worker Score: 0.6810
 END ANNOTATION -->
 <g display="inline">
  <title>Layer 1</title>
  <path t="0,12,12,12,12,13,13,13,13,13,18,18,18,18,18,18,26,26,34,42,50,58,58,62,63,70,79,86,86,96,96,102,102,113,113,118,129,129,134,134,138,138,146,154,163,163,170,179,179,182,190,190,198,206,214,214,222,222,230,238,238,246,250,250,258,258,266,274,274,283,283,290,298,306,306,313,318,318,326,334,334,342,342,350,358,358,366,370,370,380,380,386,396,402,413,418,422,431,438,438,446,462,470,470,480,482,490,498,514,522,522,538,542,550,566,582,602,602,618,642,687,875,891,911,919,919,927,936,951,959,959,969,971,987,989,1003,1003,1011,1011,1021,1021,1023,1036,1036,1039,1039,1052,1055,1055,1069,1071,1071,1086,1091,1091,1091,1103,1107,1107,1119,1123,1135,1136,1139,1143,1153,1159,1170,1170,1175,1191,1203,1220,1220,1236,1355,1371,1371,1382,1383,1390,1399,1406,1406,1416,1422,1433,1438,1442,1442,1450,1458,1466,1474,1474,1490,1499,1502,1518,1518,1526,1542,1550,1558,1558,1570,1586,1602,1618,1622,1633,1650,1666,1667,1682,1700,1706,1716,1738,1766,1798" d="m295,204.89999c9,-7.5 9.89334,-8.14326 10.79199,-8.73866c0.87558,-0.58011 1.74011,-1.11719 2.58301,-1.61549c0.80533,-0.4761 1.57806,-0.911 2.31299,-1.30051c1.30518,-0.69174 1.88068,-0.96349 2.39734,-1.20267c0.46091,-0.21336 0.85986,-0.4375 1.87335,-0.7675c1.05502,-0.34352 1.8161,-0.49814 2.64133,-0.94983c0.78043,-0.42717 1.7045,-0.42534 2.56665,-0.42534c0.83334,0 1.81223,0.02597 2.63202,0c0.90268,-0.02859 1.55228,-0.57353 2.52264,-0.87849c0.65454,-0.2057 1.79468,-0.12151 2.56268,-0.12151c0.952,0 1.71732,0 2.71149,0c0.74734,0 1.77917,0 2.72583,0c0.67868,0 1.79468,-0.00436 2.56268,0c0.94138,0.00534 1.65219,0.04128 2.59515,0.5c0.84064,0.40894 1.55493,0.83119 2.32083,1.216c0.78592,0.39488 1.69806,0.17638 2.54733,0.34117c0.92575,0.17963 1.68958,0.67972 2.45267,1.02684c0.85428,0.38858 1.63184,0.82281 2.52133,1.1375c0.69928,0.24739 1.48447,0.81807 2.15784,1.25766c0.79129,0.51654 1.7356,0.78952 2.32083,1.32217c0.62695,0.57062 1.52429,1.06184 2.20001,1.19865c0.98331,0.19908 1.69772,0.70226 2.29999,1.3c0.70264,0.69737 1.30002,1.3 1.90002,1.90001c0.59998,0.59999 1.25739,1.36108 2.09998,1.74733c0.76877,0.3524 1.40115,0.75606 2.10001,1.45267c0.70114,0.69887 1.20001,1.2 1.89999,1.89999c0.70001,0.70001 1.20001,1.2 1.90002,1.90001c0.59998,0.59999 1.19998,1.2 1.89999,1.89999c0.5,0.5 1.19998,1.2 1.89999,1.89999c0.5,0.5 1.31134,1.11914 1.71466,1.8c0.48996,0.82716 0.74576,1.7236 1.23267,2.4955c0.44308,0.70244 0.90366,1.2394 1.06335,2.10451c0.15344,0.83136 0.86661,1.59215 0.98798,2.39999c0.13651,0.90857 0.8728,1.35994 1.00134,2.2c0.12167,0.79529 0.74695,1.53719 0.96399,2.40001c0.21973,0.8735 -0.04611,1.80377 0.03616,2.7c0.08368,0.91144 0.76102,1.43767 0.979,2.39999c0.19888,0.87801 0.02084,1.8 0.02084,2.70001c0,0.89999 0,1.79999 0,2.59999c0,0.90001 -0.0054,1.80002 0,2.7c0.00534,0.88939 0.58603,1.38292 1.29999,1.85718c0.79166,0.52586 1.35736,1.11163 2.08936,1.61749c0.67398,0.46577 0.96378,1.32909 1.61066,2.02533c0.56049,0.60327 1.00726,1.36011 1.57468,2.02534c0.4794,0.56203 0.84033,1.39519 1.52548,2.07466c0.52039,0.51607 1.39023,1.08917 2.07449,1.5c0.81161,0.48727 1.41733,0.99733 2.12534,1.7c0.70264,0.69734 1.20001,1.2 1.90002,1.90001c0.59998,0.59999 1.19998,1.2 1.89999,1.89999c0.60001,0.60001 1.18924,1.21091 1.89999,1.89999c0.59122,0.57321 1.46045,0.89301 2.16666,1.33334c0.70929,0.44226 1.32742,1.14902 1.772,2.03067c0.40692,0.80701 0.89456,1.2757 1.76135,1.68866c0.83679,0.39868 1.50192,0.96875 1.94281,1.64734c0.51477,0.79233 1.19711,1.17999 1.83633,1.82083c0.64194,0.64359 0.62387,1.7178 1.32217,2.19382c0.7493,0.51077 1.54144,0.89819 2.07733,1.50684c0.62308,0.70767 1.00385,1.1553 1.68533,1.80383c0.5607,0.53357 -0.59171,1.12073 -1.26401,0.91751c-0.87527,-0.26456 -1.59863,-0.91418 -2.5,-0.94284c-0.89954,-0.02863 -1.75375,-0.24213 -2.5,-0.64734c-0.76111,-0.41327 -1.69998,-0.35202 -2.59998,-0.35266c-0.90002,-0.00067 -1.75082,-0.30084 -2.40002,-0.64734c-0.84937,-0.45334 -1.83475,-0.29968 -2.59998,-0.70532c-0.84595,-0.44843 -1.47955,-0.76636 -2.30002,-1.22198c-0.78195,-0.43423 -1.52731,-0.83423 -2.39999,-1.25867c-0.75391,-0.36667 -1.42255,-0.85223 -2.29999,-1.10953c-0.86548,-0.25378 -1.75082,-0.358 -2.40002,-0.7045c-0.84937,-0.45334 -1.83472,-0.29974 -2.59998,-0.70532c-0.84589,-0.4483 -1.8381,-0.32526 -2.53336,-0.814c-0.71591,-0.50327 -1.21747,-1.13419 -1.86667,-1.48068c-0.84937,-0.45334 -1.85196,-0.06354 -2.68933,-0.36331c-0.73676,-0.26373 -1.22131,-0.97867 -2.17465,-1.02533l-0.48868,-0.61136" id="svg_1" stroke-width="2" stroke="#000" fill="none"/>
  <path t="3202,3231,3243,3267,3267,3290,3463,3487,3491,3507,3522,3522,3524,3539,3547,3547,3557,3559,3559,3572,3575,3588,3591,3602,3602,3610,3610,3618,3626,3635,3642,3642,3651,3658,3662,3670,3678,3678,3686,3686,3695,3703,3703,3710,3710,3718,3719,3726,3730,3730,3738,3738,3746,3746,3754,3762,3762,3770,3770,3770,3778,3786,3786,3790,3790,3790,3801,3801,3806,3806,3818,3818,3822,3822,3822,3830,3830,3836,3836,3842,3842,3842,3852,3852,3858,3858,3868,3868,3874,3885,3885,3902,3906,3910,3926,3954,3978,4002,4018,4035,4036,4038,4054,4070,4078,4085,4085,4090,4102,4106,4118,4119,4122,4130,4130,4138,4146,4152,4158,4158,4169,4174,4174,4185,4185,4190,4202,4202,4210,4210,4210,4219,4219,4226,4235,4236,4242,4252,4254,4269,4269,4270,4270,4278,4286,4302,4322,4374,4390,4406,4422,4422,4440,4467,4475,4498,4502,4502,4510,4518,4534,4542,4542,4558,4647,4657,4672,4688,4690,4698,4714,4714,4730,4738,4746,4747,4758,4771,4774,4788,4790,4794,4805,4810,4821,4838,4842,4858,4872,4873,4888,4907,5017,5030,5038,5055,5059,5074,5074,5085,5090,5098,5106,5110,5110,5118,5126,5136,5136,5142,5142,5152,5158,5158,5158,5168,5170,5170,5178,5186,5186,5194,5194,5202,5210,5210,5210,5214,5222,5222,5230,5230,5238,5238,5246,5246,5254,5254,5254,5262,5270,5270,5270,5278,5286,5286,5290,5290,5298,5298,5306,5306,5306,5314,5314,5322,5330,5330,5338,5338,5342,5342,5354,5354,5358,5358,5358,5369,5370,5374,5374,5382,5382,5390,5390,5390,5398,5398,5398,5406,5406,5406,5414,5414,5419,5419,5419,5426,5426,5436,5436,5436,5442,5442,5453,5453,5458,5458,5462,5462,5470,5470,5470,5478,5478,5487,5487,5494,5494,5494,5503,5504,5510,5510,5519,5520,5526,5526,5530,5530,5530,5538,5538,5538,5546,5546,5554,5554,5554,5562,5562,5570,5570,5578,5578,5582,5582,5582,5590,5598,5598,5606,5606,5614,5614,5622,5630,5636,5637,5642,5642,5653,5658,5666,5674,5674,5682,5690,5690,5698,5706,5710,5710,5720,5726,5736,5742,5742,5757,5776,5776,5794,5879,5894,5899,5899,5907,5914,5915,5923,5930,5940,5999,6059,6076,6094,6118,6130" d="m295,203.89999c-1.47916,1.5 -1.83093,2.35262 -2.284,3.20001c-0.3486,0.65199 -0.7554,1.67767 -1.51733,1.79866c-0.88928,0.1412 -1.66171,-0.57234 -2.49866,-0.946c-0.77219,-0.34476 -1.47055,-0.89246 -2.40002,-1.04817c-0.80994,-0.13568 -1.77676,-0.3063 -2.47464,-0.57916c-0.93097,-0.364 -1.86359,-0.25179 -2.62534,-0.51067c-0.88794,-0.30176 -1.59949,-0.896 -2.5,-0.91467c-0.89984,-0.01866 -1.75107,-0.30885 -2.45718,-0.64732c-0.85037,-0.40761 -1.59015,-0.35042 -2.60684,-0.35268c-0.93597,-0.00208 -1.88446,0.15353 -2.63599,-0.16666c-0.78122,-0.33282 -1.59995,-0.828 -2.5,-0.83334c-0.89996,-0.00534 -1.72327,0.09637 -2.66666,-0.16666c-0.68167,-0.19006 -1.65521,-0.73985 -2.42267,-0.82266c-0.92621,-0.09993 -1.90198,0.05931 -2.58533,-0.04668c-0.96198,-0.1492 -1.68893,-0.76668 -2.47803,-0.90683c-0.85178,-0.15128 -1.86765,-0.01126 -2.83131,-0.34117c-0.70895,-0.24271 -1.64355,-0.58591 -2.40001,-0.8c-0.78348,-0.22174 -1.62727,-0.64824 -2.49066,-0.89066c-0.94202,-0.2645 -1.62383,-0.60013 -2.62534,-0.85867c-0.77643,-0.20044 -1.5215,-0.23483 -2.5,-0.66667c-0.8275,-0.3652 -1.52075,-0.48305 -2.5,-0.5c-0.79996,-0.01384 -1.61331,-0.03978 -2.60001,-0.35266c-0.81265,-0.25769 -1.79759,-0.59494 -2.59999,-0.63666c-0.9987,-0.05193 -1.81575,0.05183 -2.8,-0.17734c-0.81888,-0.19067 -1.38107,-0.5656 -2.39999,-0.748c-0.79091,-0.14159 -1.8,-0.08534 -2.60001,-0.08534c-1,0 -1.8091,0.05626 -2.60001,-0.08533c-1.01892,-0.1824 -1.78142,-0.64485 -2.79866,-0.82933c-0.75662,-0.13722 -1.71733,-0.08534 -2.48534,-0.08534c-0.94133,0 -1.97156,0.14954 -2.70534,-0.036c-0.87186,-0.22044 -1.62737,-0.77158 -2.5105,-0.96416c-0.84427,-0.18411 -1.25603,-0.97125 -2.20016,-0.99985c-0.89958,-0.02725 -1.8,0 -2.7,0c-0.8,0 -1.70006,-0.01042 -2.60001,0c-0.90018,0.01042 -1.6188,0.50052 -2.39999,0.83334c-0.75154,0.32019 -1.70006,0.15648 -2.60001,0.16666c-0.92101,0.01042 -1.87675,0.30182 -2.57466,0.57468c-0.93097,0.36398 -1.82533,0.42532 -2.62534,0.42532c-0.89999,0 -1.8,0 -2.72083,0c-0.80051,0 -1.65384,0 -2.59517,0c-1.05067,0 -1.70934,0 -2.71733,0c-0.86217,0 -1.70175,-0.02675 -2.65334,0.28401c-0.7735,0.25259 -1.67624,0.58086 -2.4615,0.65883c-0.78799,0.07825 -1.90883,0.05716 -2.74283,0.05716c-0.82983,0 -1.793,0 -2.65634,0c-0.89549,0 -1.85266,0 -2.75267,0c-0.89999,0 -1.65717,0 -2.55266,0c-0.86334,0 -1.82651,0 -2.74733,0c-0.90001,0 -1.80862,-0.12413 -2.69984,0.00017c-0.80174,0.11182 -0.90016,1.09984 -0.90016,1.99983c0,0.8 0.36317,1.79691 -0.036,2.56401c-0.39514,0.75938 -1.22699,1.22081 -1.964,1.60266c-0.75395,0.39063 -1.51723,0.66592 -2.39999,0.84401c-0.94379,0.1904 -1.59047,0.87857 -2.40001,0.98799c-0.89377,0.1208 -1.72359,0.46175 -2.4955,0.94867c-0.70244,0.4431 -1.25529,0.9928 -2.0045,1.40533c-0.8387,0.46182 -1.67412,0.85493 -2.3,1.222c-0.77151,0.45247 -1.6188,0.92584 -2.39999,1.25867c-0.75154,0.32019 -1.7,0.16666 -2.60001,0.16666c-0.89999,0 -1.78932,0.01068 -2.39999,0.5c-0.61067,0.48933 -1.60001,0.5 -2.5,0.5c-0.89999,0 -1.8,0 -2.7,0c-0.90001,0 -1.82771,0.14604 -2.5,-0.05716c-0.87529,-0.26456 -1.61482,-1.11331 -2.49867,-0.9415c-0.80971,0.15739 -0.80133,1.29866 -0.80133,2.19867c0,0.89999 0,1.79999 0,2.59999c0,0.90001 -0.01196,1.82518 0.42534,2.60001c0.4099,0.72629 0.80861,1.55827 1.222,2.3c0.42563,0.76367 0.69508,1.61382 1.35266,2.29999c0.58711,0.61263 1.20265,1.19737 1.8,1.8c0.60268,0.60802 1.20686,1.36255 1.59999,2.02534c0.40717,0.68646 0.99083,1.54749 1.70001,2.27466c0.4937,0.50623 1.2,1.2 1.89999,1.89999c0.5,0.5 1.20265,1.19737 1.8,1.8c0.60268,0.60802 1.20686,1.36255 1.59999,2.02534c0.40717,0.68646 0.99083,1.54749 1.70001,2.27466c0.4937,0.50623 1.23851,1.17345 1.7,1.78534c0.55296,0.73318 0.89174,1.52962 1.68399,2.23067c0.64268,0.56868 1.38857,1.02089 1.88,1.70934c0.47412,0.66418 1.07739,1.51961 1.636,2.34132c0.43324,0.6373 0.74194,1.39355 1.39999,2.19734c0.55388,0.67654 1.23409,1.24838 1.70001,1.95732c0.43266,0.65833 0.86531,1.54062 1.42082,2.17867c0.60951,0.70004 1.3045,1.32535 1.82651,1.84734c0.76733,0.76733 1.34816,1.34818 1.95267,1.95267c0.7,0.7 1.28105,1.31963 1.90134,1.90001c0.66437,0.62164 1.48764,1.05313 2.146,1.55716c0.67229,0.51468 1.06306,1.32321 1.81934,2.07617c0.60532,0.60266 1.24086,0.8562 2.23199,1.36667c0.76772,0.39539 1.57127,0.9115 2.22667,1.39999c0.68723,0.51221 1.39487,0.90121 2.37466,1.39999c0.59962,0.30524 1.42451,0.72391 2.2,1.32135c0.62074,0.47824 1.16687,1.07043 2,1.65717c0.77161,0.54343 1.39973,0.82071 2.40001,1.3215c0.59982,0.30032 1.59999,0.79999 2.39999,1.19998c0.60001,0.30002 1.60001,0.80002 2.2,1.10001c1,0.5 1.60001,0.79999 2.40001,1.20001c1,0.5 1.59822,0.80356 2.59982,1.29984c0.58847,0.2916 1.63916,0.71149 2.42551,0.92548c0.86691,0.23593 1.5864,0.58322 2.37466,0.97467c0.80109,0.39783 1.59335,0.81366 2.39999,1.19867c0.79369,0.37885 1.80092,0.67413 2.60001,0.80133c1.00119,0.15936 1.62238,0.30441 2.34283,0.7045c0.9446,0.52454 1.5202,1.11176 2.49316,1.25952c0.75743,0.11502 1.7706,-0.02209 2.564,0.09314c1.01605,0.14758 1.60043,0.52325 2.76668,0.77618c0.77617,0.16833 1.61876,0.12686 2.66666,0.33334c0.71964,0.14178 1.54671,0.54349 2.36667,0.71182c0.78984,0.16217 1.80106,0.08963 2.60001,0.13217c0.80234,0.04272 1.78734,0.37897 2.59999,0.63666c0.98669,0.3129 1.80011,0.3345 2.8,0.35284c0.80014,0.01468 1.80875,0.1412 2.58934,0.42517c0.73431,0.26712 1.58481,0.55664 2.532,0.57465c0.85318,0.0162 1.81004,-0.08914 2.56267,0.08533c0.97501,0.22601 1.60794,0.74438 2.59517,0.89386c0.92152,0.13953 1.83934,0.24915 2.52083,0.52081c0.97456,0.38852 1.69548,0.49774 2.60001,0.5c0.89999,0.00223 1.81065,0 2.72133,0c0.85333,0 1.79333,0 2.67867,0c0.8,0 1.7,0 2.636,0c0.84799,0 1.71133,0 2.728,0c0.83601,0 1.73601,0 2.636,0c0.79999,0 1.75717,0 2.65268,0c0.86331,0 1.82648,0.00061 2.64731,0c0.90002,-0.00067 1.82605,-0.19086 2.40002,-0.7045c0.73532,-0.65802 1.29901,-1.29648 1.89999,-1.89551c0.69885,-0.69662 1.5491,-0.98578 2.23334,-1.56665c0.66626,-0.56561 1.26666,-0.83334 2.16666,-0.83334l0.87851,0.2215l0.12149,0.87851l0,0.89999" id="svg_2" stroke-width="2" stroke="#000" fill="none"/>
  <path t="7198,7406,7430,7444,7460,7467,7467,7475,7491,7508,7510,7511,7519,7526,7535,7535,7542,7551,7558,7574,7574,7578,7594,7608,7610,7614,7614,7624,7630,7642,7646,7646,7658,7662,7674,7682,7692,7692,7698,7709,7709,7714,7724,7725,7730,7734,7742,7750,7759,7766,7782,7782,7791,7798,7810,7810,7818,7826,7834,7834,7842,7850,7858,7862,7875,7878,7878,7894,7902,7903,7910,7918,7918,7926,7930,7941,7941,7946,7958,7962,7975,7976,7982,7982,7991,7998,8008,8008,8014,8015,8025,8030,8031,8042,8042,8046,8046,8050,8050,8058,8058,8066,8066,8075,8076,8085,8085,8092,8094,8095,8109,8109,8111,8111,8118,8126,8126,8126,8134,8142,8142,8150,8150,8158,8158,8162,8162,8175,8175,8178,8179,8186,8187,8194,8194,8202,8203,8210,8218,8219,8226,8226,8230,8230,8231,8242,8242,8246,8259,8259,8259,8262,8263,8276,8276,8278,8278,8282,8282,8283,8293,8293,8298,8309,8310,8314,8315,8315,8325,8326,8330,8331,8342,8342,8343,8347,8347,8350,8359,8359,8366,8367,8367,8376,8376,8382,8392,8392,8398,8398,8402,8402,8403,8410,8410,8418,8426,8426,8434,8435,8442,8443,8450,8459,8459,8466,8467,8476,8476,8478,8486,8487,8487,8494,8494,8502,8503,8503,8510,8518,8519,8519,8527,8527,8530,8531,8531,8545,8546,8547,8547,8559,8560,8562,8563,8576,8576,8578,8579,8579,8586,8587,8594,8594,8598,8599,8609,8609,8615,8615,8627,8627,8630,8631,8631,8634,8646,8646,8647,8650,8651,8660,8660,8666,8667,8677,8677,8682,8683,8693,8694,8694,8696,8696,8702,8703,8703,8711,8711,8718,8719,8726,8727,8727,8734,8735,8744,8750,8751,8760,8760,8762,8763,8777,8777,8777,8779,8779,8786,8794,8794,8802,8810,8810,8818,8819,8827,8831,8831,8844,8845,8847,8847,8862,8862,8864,8877,8878,8880,8880,8887,8887,8896,8899,8911,8911,8915,8915,8928,8931,8945,8945,8951,8951,8962,8967,8978,8994,8995,8999,9011,9019,9028,9028,9044,9079,9163" d="m376,259.89999c-2.45834,0.52084 -2.97141,1.29865 -3,2.20001c-0.02853,0.89954 0,1.79999 0,2.60001c0,0.89999 0,1.79999 0,2.72083c0,0.96317 0,1.65384 0,2.72198c0,0.85718 0,1.75717 0,2.55719c0,0.89999 -0.24203,1.64835 -0.716,2.284c-0.57324,0.7688 -0.09729,1.74777 -0.34116,2.616c-0.21387,0.76144 -0.8179,1.50464 -0.94299,2.39999c-0.12665,0.90646 -0.80002,1.55261 -0.979,2.39999c-0.18604,0.8808 0.11572,1.85666 -0.30484,2.70001c-0.32993,0.66165 -0.38019,1.58307 -0.75201,2.36398c-0.35233,0.73996 -0.77881,1.34311 -1.13065,2.26935c-0.31134,0.81961 -1.18866,1.26428 -1.66669,2.16666c-0.34338,0.64822 -0.70847,1.48029 -1.36533,2.20001c-0.53348,0.5845 -0.79214,1.41821 -1.22665,2.19998c-0.45535,0.81931 -1.18307,1.33881 -1.53867,2.03601c-0.39301,0.77054 -0.30386,1.77951 -0.83734,2.36401c-0.65686,0.7197 -0.9624,1.46704 -1.42017,2.29999c-0.37097,0.67505 -1.27808,1.23465 -1.65717,2c-0.4194,0.84677 -0.62582,1.68207 -1.12134,2.37918c-0.45932,0.64618 -1.05362,1.22476 -1.5,2.02081c-0.4483,0.79947 -0.69086,1.62604 -1.2045,2.20001c-0.65802,0.73532 -1.39633,1.3992 -1.89551,1.89999c-0.69662,0.69888 -1.1774,1.53806 -1.48401,2.20001c-0.40256,0.86908 -1.02179,1.54016 -1.91599,2.03333c-0.66318,0.36575 -1.00891,1.02292 -1.61066,1.76666c-0.52841,0.65308 -1.53708,0.98184 -2.104,1.48401c-0.76462,0.67725 -0.88062,1.51102 -1.68533,1.89066c-0.88443,0.41724 -1.60001,1.02533 -2.10001,1.52533c-0.70001,0.70001 -1.2251,1.38913 -1.91068,1.88934c-0.83511,0.60931 -1.63696,0.45795 -2.56799,0.83215c-0.70029,0.28146 -1.51172,0.96771 -2.19598,1.37851c-0.81177,0.4873 -1.4209,1.04431 -2.14667,1.49985c-0.82275,0.51639 -1.66754,0.7384 -2.43134,0.95282c-0.91476,0.25681 -1.64038,0.58823 -2.49017,1.24734c-0.59076,0.45822 -1.22833,1.30017 -2.07849,1.57864c-0.82281,0.26953 -1.79721,0.40286 -2.43134,0.82584c-0.73431,0.48978 -1.40204,0.91833 -2.36334,1.21152c-1.03317,0.31509 -1.73126,0.48126 -2.39999,0.88531c-0.89075,0.53818 -1.65067,1.03201 -2.48401,1.19867c-0.83334,0.16669 -1.59207,0.67484 -2.48532,0.91602c-0.70816,0.19119 -1.71716,0.29803 -2.49384,0.58398c-1.00302,0.36926 -1.78214,0.52777 -2.67801,0.85266c-0.75522,0.2739 -1.53824,0.57574 -2.50684,0.63669c-0.95016,0.05978 -1.72162,-0.03467 -2.66135,0.02133c-0.69345,0.04132 -1.62634,0.61969 -2.49615,0.86783c-0.86166,0.24582 -1.87851,0.12149 -2.6785,0.12149c-1,0 -1.80789,-0.04935 -2.60001,0.08533c-0.81137,0.13797 -1.52774,0.61661 -2.51599,0.82935c-1.03052,0.22183 -1.72,0.08359 -2.48532,0.08533c-0.99869,0.00226 -1.81485,-0.00507 -2.79868,0.284c-0.81668,0.23996 -1.79587,0.63638 -2.60001,0.69519c-0.99756,0.07294 -1.80917,-0.03589 -2.60001,0.10614c-1.01453,0.18219 -1.71271,0.6788 -2.64734,0.85751c-0.90469,0.173 -1.7735,0.05716 -2.75266,0.05716c-0.79999,0 -1.60062,-0.03058 -2.60001,0.00452c-0.80124,0.02814 -1.59814,0.2222 -2.39999,0.49548c-0.99774,0.34006 -1.79944,0.48083 -2.60001,0.49869c-0.99524,0.02222 -1.74283,0.00131 -2.77466,0.00131c-0.94684,0 -1.64618,0 -2.62534,0c-0.79999,0 -1.60001,0 -2.78934,0c-0.72534,0 -1.71066,0 -2.69598,0c-0.72534,0 -1.71469,0 -2.51468,0c-1,0 -1.8,0 -2.60001,0c-0.9955,0 -1.74283,0 -2.77466,0c-0.94684,0 -1.64622,0.01041 -2.62534,0c-0.97934,-0.01041 -1.825,-0.1825 -2.58934,-0.57465c-0.81282,-0.41702 -1.72917,-0.65363 -2.41066,-0.92535c-0.97475,-0.38867 -1.76529,-0.51718 -2.65266,-0.85266c-0.70583,-0.26685 -1.61345,-0.52713 -2.51401,-0.814c-0.68745,-0.21899 -1.4348,-0.6344 -2.43333,-1.13333c-0.60008,-0.29984 -1.60724,-0.78589 -2.37917,-1.20001c-0.54088,-0.29016 -1.3638,-0.94431 -2.1875,-1.5c-0.64639,-0.43607 -1.43454,-0.80023 -2.23332,-1.19998c-0.79988,-0.40027 -1.8049,-0.89026 -2.38934,-1.20001c-0.73187,-0.38788 -1.55363,-1.04431 -2.37733,-1.60001c-0.64639,-0.43607 -1.229,-0.71799 -2.23332,-1.19867c-0.79329,-0.37967 -1.60208,-0.62286 -2.57918,-0.80133c-0.85609,-0.15637 -1.53104,-0.53104 -2.34216,-1.32132c-0.51051,-0.49741 -1.00894,-1.04349 -1.79466,-1.79333c-0.62346,-0.595 -1.37436,-1.07452 -2.05867,-1.48535c-0.81175,-0.48734 -1.42598,-1.03699 -2.30933,-1.59998c-0.67308,-0.42899 -1.5587,-0.83484 -2.10535,-1.436c-0.70355,-0.77371 -0.8389,-1.44482 -1.57733,-2.19733c-0.59244,-0.60373 -1.36072,-0.9494 -2.20799,-1.56668c-0.80309,-0.58511 -1.46761,-0.97208 -2.14134,-1.39999c-0.74686,-0.47437 -1.2847,-1.08398 -1.7885,-1.85266c-0.45451,-0.69348 -1.17101,-1.47461 -1.87016,-1.93668c-0.79462,-0.52518 -1.43613,-1.03198 -2.30933,-1.612c-0.67976,-0.45154 -1.36682,-0.95135 -1.89067,-1.62399c-0.5273,-0.67706 -1.26866,-1.44067 -1.836,-1.76401c-0.96722,-0.55124 -1.63766,-0.74155 -2.304,-1.29599c-0.81555,-0.67859 -1.17329,-1.52698 -1.80684,-2.09317c-0.6413,-0.57312 -1.68227,-1.01416 -2.274,-1.3215c-0.75223,-0.39069 -1.66426,-0.98178 -2.20316,-1.5c-0.72493,-0.69711 -1.20425,-1.3649 -1.60133,-2.02533c-0.60446,-1.00534 -0.99083,-1.54749 -1.70018,-2.27484c-0.52907,-0.54251 -1.22116,-1.22116 -1.72516,-1.72516c-0.69067,-0.69067 -1.4175,-1.41751 -1.97333,-1.97333c-0.70135,-0.70135 -1.40546,-1.22137 -1.84418,-1.90134c-0.48532,-0.7522 -0.60616,-1.80231 -0.96783,-2.47467c-0.4458,-0.82877 -1.06956,-1.34457 -1.68483,-2.12985c-0.62671,-0.79987 -0.53065,-1.56085 -0.87117,-2.52881c-0.25052,-0.71213 -0.93066,-1.48959 -1.33333,-2.16669c-0.49672,-0.83527 -1.09312,-1.42422 -1.44733,-2.3045c-0.33208,-0.82532 -0.51761,-1.73022 -1.05267,-2.52881c-0.45464,-0.67853 -1.20703,-1.18484 -1.64284,-1.86667c-0.52667,-0.82401 -0.89938,-1.63693 -1.23582,-2.40018c-0.32735,-0.74261 -0.58565,-1.71002 -0.83734,-2.41583c-0.33728,-0.94583 -0.77336,-1.70929 -1.16266,-2.58417c-0.32993,-0.74146 -0.5237,-1.53323 -0.83734,-2.41583c-0.29584,-0.83252 -0.17705,-1.79053 -0.28532,-2.68399c-0.11148,-0.9198 -0.79762,-1.45624 -0.98801,-2.40002c-0.17809,-0.88275 -0.53784,-1.60944 -0.88916,-2.5c-0.26064,-0.66068 -0.12151,-1.59998 -0.12151,-2.5l0,-0.89999" id="svg_3" stroke-width="2" stroke="#000" fill="none"/>
  <path t="10521,10543,10543,10543,10551,10551,10551,10566,10566,10567,10567,10571,10571,10582,10582,10582,10586,10586,10594,10602,10602,10610,10610,10610,10618,10618,10622,10630,10630,10638,10638,10646,10646,10654,10654,10662,10670,10678,10678,10682,10682,10694,10698,10706,10714,10714,10722,10722,10730,10738,10738,10744,10744,10750,10750,10760,10766,10777,10782,10794,10794,10807,10807,10814,10830,10870,10955,10970,10982,11014,11038,11038,11050,11074,11099,11126,11247,11265,11281,11283,11299,11307,11316,11323,11332,11338,11346,11350,11364,11379,11382,11382,11396,11406,11413,11413,11422,11429,11434,11434,11446,11450,11464,11464,11466,11467,11470,11480,11480,11490,11490,11497,11497,11502,11513,11513,11514,11514,11522,11534,11534,11538,11539,11546,11554,11554,11563,11563,11570,11571,11582,11582,11590,11591,11598,11598,11607,11607,11614,11614,11622,11630,11630,11638,11646,11646,11650,11661,11666,11677,11682,11682,11690,11698,11702,11718,11727,11750,11762,11778,11786,11802,11811,11838,11850,11867,11884,11892,11907,11923,11923,11935,11940,11955,11960,11966,11975,11982,11991,12010,12018,12019,12035,12046,12051,12051,12064,12064,12071,12086,12123,12123,12180" d="m138,215.89999c-7.47116,-2.6355 -8.25479,-2.88327 -9.172,-2.96799c-0.99097,-0.09152 -1.7822,0.0345 -2.81817,-0.08917c-0.87619,-0.1046 -1.5867,-0.63765 -2.49517,-0.8575c-0.70871,-0.17151 -1.71731,-0.03798 -2.51466,-0.10617c-1.0069,-0.08612 -1.78348,-0.45482 -2.6,-0.69516c-0.97946,-0.28831 -1.74283,-0.28175 -2.77467,-0.28401c-0.94684,-0.00206 -1.64617,0 -2.62534,0c-0.8,0 -1.6,0 -2.5955,0c-0.91917,0 -1.9045,0 -2.72601,0c-0.88917,0 -1.87833,0 -2.65766,0c-0.9995,0 -1.77458,0.03975 -2.6735,-0.00449c-0.86607,-0.04262 -1.62543,-0.61278 -2.54733,-0.91017c-0.86054,-0.27759 -1.68533,-0.08534 -2.62534,-0.08534c-0.69067,0 -1.78322,0.16643 -2.67467,-0.02083c-0.85166,-0.17889 -1.65833,-0.8656 -2.32533,-0.94316c-1.00189,-0.11652 -1.86767,-0.09807 -2.58533,-0.46133c-0.90755,-0.45938 -1.59142,-0.50417 -2.70533,-0.576c-0.77098,-0.04973 -1.5174,-0.40103 -2.4,-0.71466c-0.83252,-0.29584 -1.784,-0.28401 -2.684,-0.28401c-0.9,0 -1.8,0 -2.55717,0c-0.8955,0 -1.75883,0 -2.722,0c-0.92084,0 -1.88915,-0.34341 -2.71817,0c-0.1115,0.04619 0.20708,0.85561 0.808,1.60001c0.52768,0.65369 1.24047,1.16832 1.38483,2.10001c0.13781,0.88939 0.00224,1.79999 0.0045,2.7c0.00225,0.89551 0.43554,1.57956 1.4,1.59999c0.89531,0.01897 1.40881,0.66605 2.12083,0.97917c0.79554,0.34985 1.42058,0.77954 2.18366,1.01634c0.82179,0.25504 1.34701,0.82364 2.09683,1.00316c0.89223,0.21361 1.46165,0.78615 2.19867,1.168c0.75395,0.39063 1.56783,0.70937 2.3,1.19051c0.79424,0.52193 1.23434,1.38182 2.1,1.60683c0.87194,0.22664 1.748,0.4034 2.4,0.752c0.84739,0.45306 1.55551,0.84326 2.52133,1.16267c0.65456,0.21648 1.63058,0.39099 2.37417,0.76866c0.80022,0.40643 1.78138,0.65421 2.47916,0.92734c0.93241,0.36497 1.71825,0.48569 2.65067,0.85066c0.69778,0.27313 1.70353,0.47672 2.47916,0.93184c0.63065,0.37006 1.31839,1.00621 2.2115,1.3575c0.8254,0.32466 1.62931,0.67447 2.36933,1.00133c0.89182,0.39391 1.67819,0.27371 2.61467,0.80484c0.87411,0.49574 1.47379,1.02779 2.33334,1.3125c0.77361,0.25624 1.64349,0.46835 2.34133,0.74133c0.93366,0.36522 1.7991,0.49237 2.59333,0.70934c0.9873,0.2697 1.90353,0.52718 2.71117,0.71599c0.84791,0.19823 1.66745,0.66306 2.49934,0.87851c0.80244,0.20782 1.7916,0.14201 2.67416,0.47417c0.70622,0.26579 1.64189,0.46732 2.44734,0.86867c0.76717,0.38228 1.51778,0.77025 2.29999,1.20399c0.82014,0.45477 1.75349,0.39331 2.60001,0.74133c0.67108,0.27589 1.41026,0.90778 2.02533,1.408c0.61987,0.50412 1.59428,0.42339 2.37466,0.85066c0.82257,0.45038 1.70439,0.48598 2.60001,0.57466c0.8457,0.08374 1.34293,0.83751 1.94733,1.35268c0.64641,0.55096 1.45064,0.64742 2.05267,1.14732c0.61975,0.5146 1.49963,0.87071 1.916,1.70001c0.42644,0.84933 0.52449,1.62418 1.10933,2.364c0.53613,0.67822 1.25992,1.11441 1.89067,1.72c0.57286,0.55 1.1378,1.1626 1.65866,1.74133c0.57408,0.63786 1.21016,1.23764 1.59201,1.97466c0.39064,0.75397 0.70935,1.56783 1.19049,2.3c0.52193,0.79425 1.24284,1.3 1.84283,1.90001c0.60001,0.60001 1.27917,1.29999 1.74733,2.10001l0.274,0.79999l0.49467,0.70001l0.33667,0.84283" id="svg_4" stroke-width="2" stroke="#000" fill="none"/>
  <path t="13717,13735,13735,13743,13759,13771,13771,13787,13787,13791,13802,13815,13815,13818,13834,13834,13842,13850,13866,13882,13918,13918,13938,13954,13970,13982,13990,13990,13999,14006,14015,14015,14032,14038,14038,14044,14050,14058,14058,14066,14074,14082,14090,14090,14097,14102,14102,14113,14118,14118,14126,14134,14142,14150,14150,14158,14163,14170,14186,14186,14194,14202,14202,14210,14210,14218,14222,14222,14230,14238,14247,14254,14254,14263,14270,14270,14280,14280,14282,14290,14290,14298,14306,14306,14314,14322,14322,14330,14330,14338,14338,14342,14350,14358,14358,14366,14374,14382,14382,14398,14406,14406,14418,14426,14426,14434,14442,14450,14450,14470,14470,14481,14486,14514,14546,14579,14583,14603,14603,14607,14621,14635,14650,14650,14658,14658,14666,14674,14682,14690,14706,14718,14815,14823,14839,14839,14854,14870,14886,14886,14886,14906,14930,14958,14968,14984,14990,15001,15010,15018,15026,15034,15042,15051,15127,15140,15154,15171,15259,15270,15275,15287,15300,15306,15306,15310,15310,15318,15326,15326,15334,15342,15370,15394,15426,15438,15450,15454,15466,15470,15478,15483,15484,15500,15506,15522,15522,15538,15627,15642,15654,15658,15667,15667,15670,15678,15686,15686,15694,15694,15702,15718,15754,15762" d="m200,316.89999c-0.35266,5.07135 -0.67943,5.80969 -1.02533,6.60001c-0.36246,0.82816 -0.83792,1.72427 -0.97467,2.39999c-0.19901,0.98331 -0.64462,1.69669 -1,2.5c-0.35446,0.80121 -1.08931,1.42712 -1.564,2.10001c-0.51836,0.7348 -0.70384,1.61551 -1.23734,2.20001c-0.65688,0.7197 -0.98561,1.64664 -1.63467,2.17465c-0.7298,0.59366 -1.47896,1.01273 -1.56267,1.82535c-0.09221,0.89526 -0.16866,1.81964 0.0195,2.69998c0.18138,0.84866 1.06848,1.42712 1.54317,2.10001c0.51836,0.7348 0.84488,1.52731 1.26933,2.39999c0.32086,0.65967 0.68224,1.50516 1.36667,2.20001c0.4962,0.50375 1.29539,1.13947 1.716,2c0.41734,0.85385 0.72086,1.5047 1.084,2.29999c0.41347,0.90552 0.73586,1.65897 1.16667,2.5c0.3403,0.66434 1.25951,1.21677 1.66666,2c0.38669,0.74387 0.70847,1.48029 1.36534,2.20001c0.53348,0.5845 0.854,1.5 1.30133,2.29999c0.44733,0.80002 0.81104,1.54456 1.216,2.30002c0.40523,0.75595 0.80136,1.55035 1.2,2.39999c0.4037,0.86044 0.84833,1.44611 1.47333,2.19998c0.54521,0.65762 0.64423,1.50522 0.96783,2.25269c0.38574,0.89099 1.06332,1.51538 1.47617,2.34732c0.37267,0.75098 0.77965,1.58197 1.14134,2.39999c0.34685,0.78448 0.78493,1.62753 1.078,2.30002c0.37752,0.86627 1.08429,1.60187 1.4265,2.29999c0.39854,0.81305 0.48523,1.75125 0.95683,2.39999c0.56726,0.78033 1.25824,1.27951 1.564,2.12085c0.34297,0.94379 0.6089,1.64209 0.916,2.59384c0.28255,0.87567 0.74648,1.48767 1.28267,2.36932c0.40601,0.66757 0.55814,1.53506 0.88533,2.31467c0.36363,0.86639 0.75986,1.66537 1.20134,2.40134c0.40709,0.67862 1.26352,1.26309 1.66199,2.10001c0.41328,0.86801 0.85367,1.50034 1.45267,2.09998c0.69963,0.70041 1.3,1.30002 1.90001,1.90002c0.7,0.69998 1.30667,1.27948 1.67467,2.09998c0.35101,0.78262 0.60718,1.74771 1.10933,2.31467c0.67726,0.76465 1.33717,0.98392 1.916,1.76453c0.47221,0.63681 1.05534,1.22382 1.5,2.02081c0.44551,0.79852 0.5,1.60001 0.5,2.5c0,0.80002 -0.05641,1.70044 -0.5,2.5c-0.44656,0.80493 -0.61736,1.68942 -1.02083,2.5c-0.42836,0.86057 -1.1535,1.39633 -1.42201,2.30002c-0.25685,0.86447 0.1991,1.92493 -0.27849,2.57864c-0.51073,0.6991 -0.31407,2.14246 -1.12683,2.05969c-0.46977,-0.04785 0.54364,-1.14288 1.14816,-1.73834c0.69485,-0.68445 1.4203,-1.05188 2.36667,-1.36667c0.67523,-0.22461 1.33626,-0.65399 2.19733,-1.22266c0.82391,-0.54413 1.74039,-0.69937 2.636,-0.61069c0.8457,0.08374 1.30801,0.76697 1.94733,1.35266c0.58327,0.53433 1.30389,1.0802 2.05267,1.48068c0.79144,0.42328 1.34334,1.00369 1.94733,1.51932c0.6236,0.53238 1.04733,0.03674 1.05267,-0.85266c0.0054,-0.89996 -0.32707,-2.43005 0.5,-2.45831c0.75003,-0.02563 0.38853,1.52789 0.85716,2.25833c0.51318,0.7999 1.24284,1.29999 1.84283,1.89999c0.60001,0.60001 1.31509,1.28528 1.89984,1.89999c0.55774,0.58633 1.02936,1.34909 1.61617,1.98401c0.63914,0.69156 1.49223,0.68338 2.16249,1.13715c0.16472,0.11151 0.12151,-0.82117 0.12151,-1.72116c0,-0.89999 0.09088,-1.80472 -0.00133,-2.69998c-0.08371,-0.81262 -0.79384,-1.45367 -0.97784,-2.30002c-0.19131,-0.87997 -0.36736,-1.80963 -0.82216,-2.29999c-0.66264,-0.71442 -1.40234,-1.78763 -0.67784,-2.17917c0.7735,-0.41803 1.60646,0.38803 2.47917,0.8125c0.65967,0.32083 1.44908,0.77402 2.3045,1.11398c0.82674,0.32858 1.67535,0.60828 2.52884,0.88602c0.7417,0.24136 1.56665,0.59201 2.36667,1.08133l0.89966,0.08533l0.27899,-0.03598" id="svg_5" stroke-width="2" stroke="#000" fill="none"/>
  <path t="16522,16540,16540,16540,16541,16541,16541,16543,16544,16544,16579,16603,16603,16624,16640,16647,16656,16663,16671,16679,16687,16691,16704,16715,16723,16723,16731,16738,16738,16743,16753,16758,16770,16770,16774,16787,16790,16790,16803,16803,16807,16807,16810,16810,16821,16826,16837,16837,16842,16842,16853,16853,16858,16862,16862,16870,16870,16878,16887,16887,16894,16903,16903,16910,16910,16926,16926,16930,16938,16938,16946,16954,16962,16970,16970,16974,16987,16987,16990,16990,17004,17007,17007,17020,17030,17038,17054,17054,17058,17070,17087,17087,17090,17104,17126,17137,17162,17171,17187,17187,17194,17204,17204,17210,17210,17220,17226,17227,17230,17238,17247,17247,17247,17254,17262,17271,17271,17278,17287,17287,17291,17291,17314,17406,17410,17418" d="m209,327.89999c0.21434,1.54968 -0.11537,2.47937 -0.32266,2.99869c-0.43893,1.09964 -0.67848,1.64807 -0.912,2.18399c-0.61552,1.41257 -0.97438,2.11499 -1.308,2.92801c-0.40646,0.99054 -0.45734,1.88931 -0.45734,2.68933c0,0.89999 -0.00957,1.80005 0,2.69998c0.01042,0.97934 0.77478,1.43661 0.9955,2.2045c0.24738,0.86069 0.13104,1.67722 0.65184,2.34818c0.45313,0.58377 0.34082,1.59882 0.63666,2.43134c0.25092,0.70609 0.53508,1.811 0.93733,2.616c0.32892,0.65826 0.76024,1.52344 1.20401,2.29999c0.41379,0.72409 0.80861,1.55829 1.222,2.30002c0.42563,0.76367 0.83827,1.54282 1.18599,2.46667c0.2373,0.63046 0.248,1.72375 0.77734,2.42267c0.51241,0.67654 1.15742,1.28281 1.364,2.23599c0.14812,0.68341 0.59795,1.61655 0.94133,2.37466c0.39221,0.86591 0.81551,1.53946 1.284,2.284c0.42508,0.67554 1.0728,1.58084 1.44284,2.21149c0.45512,0.77563 0.60616,1.80682 0.96783,2.47919c0.4458,0.82877 1.033,1.37442 1.68483,2.12534c0.57866,0.66663 0.75949,1.5184 1.22533,2.22083c0.54608,0.82343 0.93076,1.51019 1.47917,2.3125c0.46092,0.67429 1.2,1.36667 1.7,1.86667c0.7,0.69998 1.5009,1.32211 1.94284,2c0.47845,0.73392 0.8231,1.5361 1.23582,2.39999c0.40733,0.85266 0.77496,1.46042 1.41684,2.20001c0.5786,0.66669 0.7225,1.46951 1.05716,2.35266c0.26738,0.70563 0.51245,1.7605 0.93134,2.54733c0.34744,0.65262 0.76868,1.5 1.216,2.29999c0.44733,0.80002 0.69307,1.62405 1.2045,2.20001c0.65021,0.73227 1.0955,1.54608 1.46217,2.29999c0.3714,0.76361 0.94484,1.37384 1.48067,2.05267c0.45786,0.58005 0.55588,1.42133 1.18599,2.11401c0.54567,0.59985 1.29269,1.02417 1.86667,1.53781c0.73532,0.65802 1.3,1.2955 1.90001,1.89551c0.7,0.70001 1.19966,1.20035 1.89999,1.89999c0.69968,0.69901 1.31906,1.16943 2.10001,1.52533c0.82277,0.37494 1.40686,1.13724 1.79999,1.80002c0.40717,0.68646 0.92287,1.65793 1.8,2.09067c0.75185,0.37091 1.40265,0.69199 2.10001,1.384c0.70267,0.6973 1.22644,1.17456 1.89867,1.89999c0.53789,0.58044 0.854,1.5 1.30133,2.25833l0.4955,-0.16733l0.0045,-0.89102" id="svg_6" stroke-width="2" stroke="#000" fill="none"/>
  <path t="18554,18566,18577,18577,18583,18583,18592,18592,18608,18608,18611,18611,18611,18611,18625,18625,18625,18627,18627,18641,18641,18643,18643,18643,18658,18658,18658,18663,18663,18663,18663,18677,18677,18677,18679,18679,18689,18689,18694,18694,18704,18704,18710,18710,18714,18714,18714,18722,18722,18730,18738,18738,18738,18746,18746,18754,18754,18762,18771,18771,18778,18788,18788,18790,18798,18798,18806,18806,18822,18838,18838,18842,18882,19030,19046,19070,19122,19146,19146,19166,19182,19198,19206,19224,19226,19242,19256,19286,19338,19359,19376,19383,19383,19393,19414,19426,19474,19483,19492,19495,19509,19527,19544,19544,19562,19562,19662,19676,19698,19714,19714,19723,19730,19746,19750,19750,19758,19766,19782,19794,19794,19826,19886,19915,19915,19923,19923,19930,19930,19959,20006,20028,20062,20062,20070,20071,20071,20076,20076,20082,20090,20094,20104,20105,20110,20121,20126,20142,20158,20158,20186,20194,20222,20323,20335,20346,20351,20361,20374,20382,20382,20390,20398,20406,20410,20418,20434,20442,20457,20457,20462" d="m268,348.89999c1.60001,0.64667 2.09409,1.32486 2.5,2c0.59143,0.9837 1.11328,1.57663 1.70001,2.20135c0.51181,0.54495 1.08932,1.47299 1.47198,2.04532c0.62976,0.94193 1.08865,1.44278 1.57867,1.96799c0.73312,0.7858 1.41599,1.45203 2.08798,2.12402c0.54401,0.54398 1.31403,1.314 1.836,1.836c0.65866,0.65869 1.29703,1.34293 1.992,1.82532c0.64511,0.44778 1.45593,0.858 2.23468,1.48535c0.6377,0.5137 1.27289,1.12994 2.01999,1.71466c0.52374,0.40991 1.36121,0.98953 1.89468,1.39999c1.01266,0.77911 1.64774,1.37366 2.19733,1.91467c0.73679,0.72531 1.19534,1.22922 1.79117,2.138c0.33905,0.51712 0.99805,1.35233 1.6955,1.82651c0.81268,0.55252 1.52197,1.01022 2.10016,1.84216c0.45569,0.65567 1.04233,1.54254 1.55252,1.92148c0.66562,0.49438 1.6033,1.04294 2.146,1.55719c0.74063,0.70184 1.36798,1.36667 1.854,1.85266c0.69467,0.69464 1.32581,1.32584 1.93665,1.93668c0.71066,0.71066 1.21066,1.21066 1.91068,1.91064c0.70001,0.70001 1.20001,1.20001 1.89999,1.89999c0.70001,0.70001 1.19998,1.20001 1.89999,1.90002c0.70001,0.70001 1.20001,1.19998 1.90002,1.89999c0.59998,0.60001 1.21759,1.1828 1.89981,1.89999c0.55774,0.58633 1.08591,1.31033 1.54752,1.95267c0.46365,0.64517 -0.23648,1.55566 -1.04733,1.922c-0.78168,0.35315 -1.58813,0.92319 -2.30002,1.02084c-0.89255,0.12244 -1.61035,0.62253 -2.5,0.91916c-0.85745,0.28589 -1.62711,0.43726 -2.15265,1.03265c-0.56326,0.63815 -1.42215,0.98929 -1.64285,1.75717c-0.24738,0.86069 -0.11594,1.86508 0.35269,2.59552c0.51318,0.7999 1.22232,1.30667 2.04282,1.67465c0.78262,0.35101 1.76218,0.5961 2.43335,1.19202c0.60611,0.53815 1.10309,0.47119 1.66666,-0.16669c0.5155,-0.58347 1.17337,-0.95328 2.15268,-1.35715c0.71799,-0.29608 1.3837,-0.96631 2.146,-1.35751c0.8399,-0.43106 1.7796,-0.4035 2.60132,0.15067c0.68271,0.46042 1.00552,1.26239 1.60001,2.04318c0.49628,0.65182 1.39999,0.95682 2,1.52081c0.60001,0.564 1.55954,0.93668 2.02533,1.61069c0.50586,0.73196 1.07388,1.49011 1.57468,1.98932c0.69885,0.69662 1.621,1.76355 2.2785,1.17834c0.50479,-0.44928 0.12149,-1.61435 0.12149,-2.37967c0,-0.99417 -0.00565,-1.91336 0,-2.87784c0.00534,-0.91022 0.52213,-1.5593 1.43201,-1.51016c0.62753,0.03391 1.62018,0.27258 2.56799,0.48932c0.64212,0.14685 1.76331,0.26642 2.56799,0.52533c0.87881,0.28275 1.629,0.93195 2.53201,0.97467c0.89899,0.04251 1.73178,-0.18671 2.60001,0.05716c0.76144,0.21387 1.50464,0.8179 2.39999,0.94302c0.90646,0.12665 1.69083,0.49222 2.37915,0.99982c0.69604,0.51331 1.38297,1.46603 2.16367,0.94284c0.68521,-0.45923 0.72034,-1.73972 0.32117,-2.50684c-0.39514,-0.75937 -1.18451,-1.32175 -2.064,-1.43616c-0.69925,-0.09097 -1.56537,-0.46564 -2.28934,-0.97452c-0.7153,-0.50278 -1.32608,-1.05832 -2.01065,-1.45065c-0.81366,-0.46631 -1.70001,-0.57468 -2.60001,-0.57468l-0.79999,0l-0.90002,-0.05716" id="svg_7" stroke-width="2" stroke="#000" fill="none"/>
  <path t="21263,21282,21283,21283,21284,21294,21302,21302,21302,21310,21310,21318,21326,21326,21334,21342,21350,21359,21375,21375,21386,21402,21402,21410,21410,21414,21430,21441,21441,21446,21462,21462,21475,21475,21486,21486,21492,21498,21508,21508,21514,21525,21530,21541,21546,21546,21550,21558,21566,21575,21575,21582,21591,21592,21594,21602,21610,21610,21618,21626,21634,21642,21650,21650,21662,21675,21675,21678,21686,21694,21694,21702,21710,21718,21718,21727,21730,21742,21746,21746,21758,21762,21770,21778,21792,21798,21798,21814,21842,21859,21866,21882,21979,21996,22003,22003,22013,22015,22030,22032,22044,22082,22135" d="m286,347.89999c1,1.04169 1.14136,2.00876 1.42532,2.78934c0.26715,0.73434 0.54532,1.7381 0.74133,2.54401c0.22525,0.92612 0.50104,1.6561 0.71201,2.52365c0.22742,0.93524 0.73013,1.62091 1,2.46417c0.25314,0.79105 0.6955,1.60309 1.14667,2.28952c0.48602,0.73944 0.76138,1.642 1.14133,2.38931c0.33829,0.66537 1.13333,1.30002 1.83334,2c0.5,0.5 1.11914,1.31137 1.79999,1.71466c0.82718,0.48996 1.70514,0.8009 2.30002,1.38535c0.60529,0.59467 1.29999,1.29999 1.89999,1.89999c0.60001,0.60001 1.33893,1.27313 1.79999,1.88535c0.54868,0.72858 0.81531,1.51761 1.70001,2.09384c0.73801,0.48068 1.28806,1.15405 1.58401,1.82083c0.38074,0.85776 0.77747,1.71371 1.43683,2.19998c0.68979,0.50873 1.56662,0.92844 2.04315,1.60001c0.51489,0.72568 1.02203,1.28293 1.73599,1.75717c0.79166,0.52585 1.28568,1.23602 2.10001,1.61749c0.88556,0.41483 1.32391,0.91528 2.10001,1.50452c0.73822,0.56049 1.64801,0.88821 2.29999,1.23682c0.84741,0.45309 1.67233,0.80902 2.14734,1.5795c0.40408,0.65543 1.27222,0.96796 1.85266,1.50583c0.72543,0.67224 1.29773,1.30099 1.90002,1.89868c0.69733,0.69202 1.45148,1.05078 2.29999,1.46667c0.76248,0.37372 1.53207,0.76804 2.29999,1.18597c0.84097,0.4577 1.47952,0.76642 2.30002,1.22202c0.78195,0.4342 1.5072,0.87827 2.39999,1.25867c0.75153,0.32019 1.70001,0.16666 2.60001,0.16666c0.89999,0 1.84454,-0.09546 2.60001,0.284c0.86719,0.43558 1.71097,0.35101 2.44281,0.77316c0.81116,0.46786 1.49561,0.62033 2.19052,1.10953c0.715,0.50333 1.31522,1.3609 0.88132,2.03198c-0.51895,0.80264 -1.50836,0.89612 -2.21466,1.30133c-0.79312,0.45505 -1.70001,0.5 -2.59982,0.50018l-0.81616,0.28381l-0.52002,0.68002l-0.8595,0.0405" id="svg_8" stroke-width="2" stroke="#000" fill="none"/>
  <path t="23489,23734,23754,23786,23802,23811,23822,23846,23870,23898,23898,23906,23914,23934,23950,23950,23974,23982,24026,24123,24154,24174,24182,24196,24222,24234,24251,24266,24280,24296,24302,24312,24312,24318,24330,24347,24350,24364,24380,24402,24402,24422,24438,24454,24470,24482,24498,24498,24506,24514,24530,24550,24563,24574,24586,24586,24596" d="m337,226.89999c1.79999,0 2.70007,-0.01067 3.60001,0c0.87933,0.01042 1.34119,0.75943 2.10449,0.99551c0.85638,0.26488 1.70432,0.4313 2.39551,1.10449c0.50656,0.49336 1.14081,1.28284 1.89999,1.73334c0.82608,0.4902 1.23029,1.12697 1.64734,1.86667c0.42004,0.74501 1.17075,1.29428 1.35132,2.10133c0.19623,0.87698 0.05453,1.95134 -0.70316,2.19417c-0.8194,0.2626 -1.33948,0.85873 -2.09683,1.00316c-0.88278,0.16833 -1.79868,0.00133 -2.69867,0.00133c-0.89999,0 -1.80652,0.10696 -2.70001,-0.00133c-0.91977,-0.11148 -1.73822,-0.47926 -2.44281,-1.05133c-0.61847,-0.50214 -0.96469,-1.42996 -1.64252,-1.862c-0.77365,-0.49312 -1.56192,-0.48975 -1.99866,-1.28534c-0.35577,-0.6481 -0.71375,-1.49998 -0.716,-2.39999c-0.00226,-0.90001 -0.18307,-1.8959 0.28534,-2.59866c0.53012,-0.79532 1.51465,-0.80067 2.41467,-0.80135c0.89999,-0.00067 1.79999,0 2.69998,0c0.89999,0 1.80002,-0.00133 2.60001,-0.16666l0.70001,-0.53784l0.59549,-0.59549" id="svg_9" stroke-width="2" stroke="#000" fill="none"/>
 </g>
 <g display="none">
  <title>muse_image</title>
  <image xlink:href="http://farm3.static.flickr.com/2139/2424408952_32153d9224.jpg" id="muse" height="480" width="606" y="0" x="17"/>
 </g>
 <g display="none">
  <title>bbox</title>
  <rect stroke="#f00" fill="none" stroke-width="3" height="183.0303" width="323.604" y="187.87879" x="124.868" id="bbox"/>
 </g>
</svg>
