<svg width="640" height="480" xmlns="http://www.w3.org/2000/svg" xmlns:svg="http://www.w3.org/2000/svg" xmlns:xlink="http://www.w3.org/1999/xlink">
 <!-- Sketchy ANNOTATION
  ImageNet ID: n01530575_1153
  URL: http://farm3.static.flickr.com/2389/1560677829_61deeb70f5.jpg
  Image Width: 500
  Image Height: 391
  BBox X: 43
  BBox Y: 79
  BBox Width: 375
  BBox Height: 279
  Exposure: 2000ms
  Synset Label: songbird
  Synset ID: n01526521
  Worker Tag: songbird on top of wood
  Sanity Check: 
   Saved
  Comment: 
   {}
  Worker ID: AXD2DZ7U6CK35
  Assignment ID: 3D8YOU6S9EKG6ISJSSX0N6AK2MJU6M
  HIT ID: 3ZQX1VYFTD56A7TGZJDNJUJ1M8CO8S
  Work Time: 70s
  Worker Score: 0.7857
 END ANNOTATION -->
 <g display="inline">
  <title>Layer 1</title>
  <path t="0,14,14,15,15,28,28,28,39,39,56,56,56,72,72,89,89,89,89,105,106,106,106,106,121,122,122,122,139,139,139,139,156,156,156,172,172,172,172,172,188,189,189,189,189,206,206,206,206,206,206,222,222,222,222,239,239,239,240,256,256,256,272,272,272,272,272,288,289,289,289,306,306,306,306,321,321,322,322,338,339,339,339,339,355,356,356,356,372,372,372,372,389,389,389,389,389,405,405,406,406,406,406,421,422,422,422,438,438,439,439,456,456,456,473,473,473,488,489,489,489,505,506,506,506,506,522,522,522,522,539,539,556,556,556,572,572,589,589,589,605,605,621,621,622,639,639,656,656,672,672,689,705,706,721,722,739,756,776,800,800,1065,1088,1109,1124,1124,1139,1139,1156,1156,1156,1172,1172,1189,1189,1189,1206,1206,1222,1222,1222,1239,1239,1256,1256,1256,1272,1272,1272,1289,1289,1306,1306,1322,1322,1339,1340,1356,1356,1374,1374,1375,1392,1392,1409,1436,1545,1588,1957,1967,1968,1993,2007,2007,2025,2025,2040,2041,2041,2057,2057,2073,2073,2074,2090,2091,2091,2106,2106,2106,2122,2122,2122,2122,2139,2139,2139,2158,2158,2158,2174,2174,2174,2174,2190,2191,2206,2206,2206,2222,2222,2239,2239,2258,2258,2274,2274,2274,2291,2291,2306,2306,2306,2331" d="m266,161c3.07834,-4.39951 3.54102,-5.185 3.95834,-5.9375c0.38248,-0.68964 0.87137,-1.56488 1.40567,-2.37584c0.43173,-0.65526 0.83017,-1.45708 1.13599,-2.18666c0.49069,-1.17062 0.91629,-1.82704 1.29999,-2.38266c0.5274,-0.7637 0.93832,-1.59035 1.52185,-2.53883c0.33368,-0.54237 0.71924,-1.11674 1.19699,-1.68301c0.78058,-0.92522 1.44009,-1.50658 2.14252,-2.08482c0.71365,-0.58748 1.0845,-0.86174 2.172,-1.644c0.67633,-0.4865 1.32965,-0.91731 2.20499,-1.56216c0.80411,-0.59238 1.50165,-1.20888 1.96167,-1.58368c0.67346,-0.54868 1.68149,-1.14835 2.24667,-1.39549c0.90704,-0.39665 1.92316,-0.78496 2.63867,-1.11067c0.75406,-0.34326 1.52579,-0.72438 1.91916,-0.91916c1.19693,-0.59265 1.99838,-0.99377 2.80615,-1.40617c0.82697,-0.4222 1.2515,-0.63741 2.556,-1.356c0.45627,-0.25133 1.38107,-0.78223 1.84802,-1.04799c0.92316,-0.52544 1.36108,-0.80341 2.65198,-1.45201c0.75461,-0.37915 1.45551,-0.67717 2.42435,-1.02433c0.90381,-0.32386 1.80597,-0.60474 2.38815,-0.809c0.83768,-0.29389 1.84036,-0.6994 2.5625,-1.02084c0.814,-0.36232 1.82138,-0.80322 2.62085,-1.13183c0.42358,-0.17411 1.29559,-0.5269 2.17084,-0.86333c1.22104,-0.46935 1.95135,-0.72965 2.625,-0.96317c0.63174,-0.21899 1.83871,-0.63051 2.44617,-0.81634c0.927,-0.28359 1.57504,-0.46123 2.61716,-0.583c1.12061,-0.13094 1.92496,-0.1132 2.34,-0.117c1.30493,-0.01194 2.22101,-0.0045 3.15302,-0.0045c0.46448,0 1.37549,0 2.65198,0c0.76401,0 1.8125,0 2.48151,0c1.01849,0 2.10928,0.00502 2.87268,-0.02084c0.78406,-0.02656 1.98074,-0.13548 2.78183,-0.26316c0.82043,-0.13076 1.23642,-0.23213 2.11166,-0.36333c1.41534,-0.21216 1.92752,-0.24254 2.98651,-0.2955c0.53891,-0.02695 1.61246,-0.04877 2.13666,-0.05267c1.46246,-0.01085 2.30649,-0.0045 3.0545,-0.0045c0.99448,0 1.90799,0 2.80798,0c0.89999,0 1.5,0 2.70001,0c0.89999,0 1.5,0 2.69998,0c0.90002,0 1.5,0 2.70001,0c0.909,0 1.54166,-0.00008 2.57068,0c1.172,0.00008 1.59744,-0.00644 2.47998,0.01067c0.89886,0.01742 1.78726,0.02918 3.00616,0.21083c0.72888,0.10862 1.39056,0.27024 2.25519,0.57983c1.01538,0.36357 1.86121,0.81714 2.68799,1.03201c0.78812,0.20483 1.65094,0.25085 2.60001,0.8765c0.63919,0.42136 1.38333,1.14905 2,1.533c0.78027,0.48584 1.63412,0.79922 2.37915,1.278c0.90088,0.57893 1.29199,1.11989 1.71634,1.88367c0.54144,0.97456 0.7504,1.60873 1.3045,2.42883c0.45728,0.67677 1.20535,1.36137 1.79999,1.96667c0.59476,0.60541 1.06326,1.52428 1.20001,2.2c0.19901,0.98329 0.7951,1.64944 0.97916,2.5c0.19046,0.88017 0.52136,1.7188 0.85419,2.5c0.32019,0.75154 0.39197,1.54369 1.04532,2.22133c0.55838,0.57913 1.28799,0.77867 2.12134,0.77867c0.97882,0 1.80984,0 2.76935,0c0.7515,0 1.54819,-0.01909 2.54532,0.00133c0.87515,0.01791 1.88681,0.21587 2.68533,0.49867c0.6011,0.21289 1.60333,0.46716 2.45715,0.4955c0.96365,0.03198 1.76819,0.00444 2.59018,0.0045c1.03116,0.00009 1.94635,-0.05856 2.95267,0.16667c0.61719,0.13814 1.44531,0.53725 2.42133,0.71199c0.79706,0.1427 1.64087,0.10001 2.65701,0.34267c0.89783,0.2144 1.74411,0.68465 2.547,0.76801c0.85547,0.08881 1.77917,0.01067 2.77466,0.01067c0.80002,0 1.80002,0 2.60001,0c1,0 1.79999,0 2.60001,0c0.99548,0 1.74283,0 2.76401,0c0.836,0 2.01892,-0.39476 2.55066,0.28534c0.56583,0.72368 0.23587,1.85011 0,2.51466c-0.33026,0.93048 -1.01202,1.5229 -1.41467,2.2c-0.49673,0.83528 -0.98557,1.52754 -1.8215,2.10017c-0.67328,0.46121 -1.31082,0.74605 -2.07718,1.38516c-0.60651,0.5058 -1.4473,1.50615 -1.84866,2.11467c-0.39044,0.59196 -0.88242,1.43283 -1.58865,2.18933c-0.54144,0.57999 -1.35516,1.20357 -1.97467,1.58533c-0.63754,0.39287 -1.6156,0.93912 -2.142,1.2825c-0.82999,0.54144 -1.37567,0.92896 -2.36334,1.7415c-0.69281,0.56996 -1.0979,1.00755 -2.1055,1.58c-0.78745,0.44737 -1.40628,0.61053 -2.57849,1.188c-0.60675,0.2989 -1.19269,0.6376 -1.98566,1.18066c-0.88782,0.60802 -1.45905,1.18153 -2.33585,1.75267c-0.67508,0.43973 -1.28625,0.68739 -2.27399,1.2c-0.75238,0.39046 -1.50415,0.92157 -2.15717,1.39999c-0.71555,0.52423 -1.45694,0.90213 -2.44736,1.40001c-0.59933,0.30127 -1.39999,0.7 -2.39999,1.2c-0.60001,0.3 -1.59982,0.8 -2.18933,1.09999l-0.72534,0.40001l-0.83865,0.58932" id="svg_1" stroke-width="2" stroke="#000" fill="none"/>
  <path t="2815,2825,2825,2825,2825,2825,2841,2841,2857,2857,2873,2873,2890,2890,2890,2907,2924,2924,2924,2941,2941,2957,2957,2973,2974,2990,2990,3007,3007,3023,3023,3040,3040,3177,3217" d="m381,166c12.16666,-5.83333 13.65552,-6.41376 14.26218,-6.60434c0.51791,-0.1627 1.70209,-0.31822 2.595,-0.61699c0.79263,-0.26521 1.63086,-0.67802 2.35349,-0.804c0.99359,-0.1732 1.76788,-0.54776 2.78934,-0.808c0.77707,-0.19798 1.56082,-0.15419 2.37466,-0.60268c0.85156,-0.46927 1.43555,-1.02237 2.22665,-1.27866c0.97455,-0.31572 1.79895,-0.2621 2.79868,-0.28667c0.80054,-0.01967 1.80389,-0.20886 2.57916,-0.49867c0.85889,-0.32106 1.66458,-0.47086 2.50616,-0.78534c0.74466,-0.27827 1.70349,-0.83803 2.49384,-1.19383c0.8432,-0.37959 1.61017,-0.54616 2.42084,-0.94617l0.80002,-0.48933" id="svg_2" stroke-width="2" stroke="#000" fill="none"/>
  <path t="4052,4117,4117,4126,4145,4161,4161,4173,4193,4207,4207,4223,4240,4240,4257,4258,4273,4291,4291,4307,4323,4340,4358,4408,4436,4460,4469,4483,4497,4497,4507,4529,4540,4557,4588,4588,4596,4632,4641,4676,4716,4736,4784,4804,4828,5256,5256,5266,5287,5309,5310,5323,5323,5343,5343,5343,5359,5359,5376,5376,5393,5393,5393,5406,5426,5426,5440,5460,5476,5490,5506,5525,5540,5795,5917,5924,5946,5960,5960,5974,5974,5992,5992,6007,6007,6024,6024,6024,6024,6041,6041,6057,6057,6057,6072,6072,6091,6091,6091,6092,6107,6107,6107,6124,6124,6124,6124,6141,6141,6141,6155,6155,6155,6174,6174,6174,6174,6191,6191,6191,6191,6207,6207,6208,6208,6224,6224,6224,6241,6241,6241,6257,6257,6257,6257,6257,6274,6274,6274,6274,6289,6289,6289,6305,6305,6305,6305,6324,6325,6325,6325,6341,6341,6341,6357,6357,6357,6374,6374,6374,6391,6391,6391,6391,6407,6407,6407,6424,6424,6441,6442,6456,6456,6474,6474,6489,6489,6489,6505,6505,6524,6524,6541,6541,6557,6557,6557,6574,6574,6591,6592,6605,6605,6605,6624,6624,6641,6641,6641,6658,6658,6658,6674,6674,6674,6692,6692,6692,6692,6707,6707,6707,6722,6722,6722,6740,6740,6740,6755,6756,6756,6774,6774,6774,6792,6792,6792,6792,6792,6808,6808,6808,6822,6823,6823,6823,6823,6840,6840,6840,6855,6855,6855,6855,6874,6874,6875,6875,6875,6875,6892,6892,6892,6892,6908,6908,6908,6908,6924,6924,6924,6925,6925,6939,6939,6939,6939,6939,6940,6957,6958,6958,6958,6958,6972,6972,6973,6973,6989,6989,6990,6990,6990,7005,7005,7005,7005,7006,7024,7025,7025,7025,7039,7039,7040,7040,7055,7055,7055,7056,7075,7075,7075,7075,7075,7091,7092,7092,7092,7092,7108,7108,7108,7108,7124,7125,7125,7125,7142,7142,7142,7142,7157,7158,7158,7158,7158,7172,7172,7172,7172,7192,7192,7192,7192,7207,7208,7208,7208,7224,7225,7225,7225,7225,7241,7241,7242,7242,7255,7255,7255,7255,7274,7274,7275,7292,7292,7292,7292,7292,7305,7305,7305,7324,7324,7325,7325,7339,7339,7340,7355,7356,7356,7374,7374,7375,7375,7389,7389,7389,7390,7407,7408,7408,7424,7424,7425,7441,7460" d="m383,149c1.276,0.01067 2.26874,-0.37491 2.892,0.436c0.53027,0.68994 -0.2514,1.71632 -0.608,2.364c-0.47549,0.86366 -1.16977,1.42052 -1.28415,2.3c-0.09094,0.69926 -0.64899,1.51009 -1.09967,2.22133c-0.41614,0.65674 -0.65402,1.69899 -0.98419,2.47733c-0.32266,0.76065 -1.24683,1.3093 -1.63065,2.00134c-0.45728,0.82449 -0.48557,1.60078 -1.00134,2.284c-0.46454,0.61536 -0.69522,1.73857 -0.22684,2.55884c0.46432,0.81317 1.37784,1.01173 1.88568,1.70982c0.49664,0.68268 0.99533,1.12997 1.69998,1.70001c0.7309,0.59128 1.53717,0.57051 2.19052,1.114c0.69,0.57396 0.5907,1.52376 1.16666,2.3125c0.46753,0.64027 1.22562,1.06366 1.87866,1.74216c0.55774,0.57947 1.10583,1.19519 1.62134,1.77867c0.56357,0.63788 1.35638,1.0518 1.5,2c0.11981,0.79099 -0.24539,1.43784 -0.83334,2.16667c-0.56351,0.69856 -0.81873,1.44203 -1.36667,2.31866c-0.32532,0.52049 -0.82141,1.50459 -1.18933,2.31467c-0.26935,0.59303 -0.5036,1.60349 -0.63599,2.39999c-0.16708,1.00523 -0.5545,1.77686 -0.80801,2.8c-0.19241,0.7766 -0.0481,1.52432 -0.1875,2.5c-0.14407,1.00833 -0.53937,1.68005 -0.89514,2.61333c-0.29352,0.76996 -1.05542,1.24239 -1.08401,2.08667c-0.03046,0.89949 0.32224,1.93822 -0.16666,2.63333c-0.50241,0.71429 -0.96204,1.34229 -0.83319,2.26651c0.11182,0.80208 1.07001,1.18958 1.479,1.92099c0.43259,0.77361 0.50818,1.61687 0.80484,2.46451c0.25812,0.73753 0.59564,1.71469 0.716,2.53549c0.168,1.14565 0.26498,1.66933 0.52084,2.47917c0.25995,0.82277 0.66876,1.81946 0.97916,2.47917c0.48392,1.02855 0.92963,1.80537 1.14282,2.42082c0.34027,0.9823 0.36411,1.88745 0.69052,2.93333c0.2016,0.64594 0.52774,1.31297 0.81598,2.01601c0.53687,1.30949 0.69443,1.87897 0.86536,2.86533c0.16461,0.94991 0.34637,1.74037 0.56,2.59601c0.14713,0.58925 0.34464,1.78902 0.39999,2.38933c0.08298,0.89957 0.23877,2.10179 0.37799,2.7c0.21011,0.90286 0.49438,2.09828 0.56332,2.70134c0.10489,0.91734 0.09949,1.56094 0.30536,2.92c0.1113,0.73465 0.28802,1.47688 0.42599,2.226c0.19958,1.08359 0.28931,1.76611 0.33182,2.73184c0.04044,0.91881 0.02084,1.82066 0.02084,2.71016c0,0.8535 0,1.88966 0,2.60667c0,0.771 0.00351,2.06819 -0.00449,2.8665c-0.00424,0.42419 -0.00784,1.29916 -0.08084,2.17082c-0.10275,1.22691 -0.26505,1.95285 -0.48935,2.94534c-0.13989,0.619 -0.34378,1.82112 -0.42532,2.72133c-0.05432,0.59985 -0.21497,1.80164 -0.42532,2.71066c-0.14496,0.62637 -0.33484,1.26904 -0.49066,2.67334c-0.082,0.73911 -0.09094,1.49234 -0.16803,2.23199c-0.11105,1.06543 -0.33325,2.04309 -0.52664,2.63733c-0.35529,1.09171 -0.70047,1.78918 -1.08936,2.69934c-0.41183,0.96387 -0.60577,1.50247 -0.89999,2.358c-0.40805,1.18658 -0.59445,1.78989 -0.89999,2.66849c-0.19647,0.56494 -0.58521,1.60605 -1,2.5c-0.28973,0.62436 -0.79996,1.62085 -1.10001,2.22086c-0.49997,0.99982 -0.8512,1.80966 -1.39999,2.63333c-0.36847,0.55301 -1.15881,1.22049 -1.60001,1.83865c-0.58322,0.81714 -0.81573,1.57019 -1.04282,2.32266c-0.30954,1.02573 -0.40436,1.90201 -0.71436,2.66251c-0.31107,0.76315 -0.84283,1.74283 -1.14282,2.34283c-0.5,1 -0.89984,1.80005 -1.20001,2.39999c-0.49976,0.99881 -0.74411,1.6149 -1.39999,2.57867c-0.36969,0.54324 -0.99347,1.34689 -1.42084,2.04218c-0.35892,0.58395 -0.96783,1.37515 -1.47916,1.97916c-0.84106,0.9935 -1.25836,1.59131 -1.58932,2.20001c-0.53638,0.98654 -0.77917,1.62656 -1.29602,2.39999c-0.55618,0.83231 -1.14725,1.41074 -1.71597,2.08533c-0.61154,0.72537 -0.99631,1.26907 -1.59869,2.08932c-0.39841,0.54251 -1.20349,1.53729 -1.58932,2c-0.56055,0.67218 -1.21259,1.63586 -1.57468,2.45068c-0.24112,0.54257 -0.60693,1.62119 -0.94049,2.3175c-0.41705,0.87064 -1.00229,1.6701 -1.53149,2.25714c-0.55347,0.61392 -1.36417,1.40018 -1.76849,1.8045c-0.6315,0.6315 -1.56216,1.56216 -2.0795,2.0795c-0.54135,0.54135 -1.09067,1.09067 -1.63202,1.63202c-0.76266,0.76266 -1.45865,1.45865 -1.90933,1.90933c-0.94131,0.94131 -1.45865,1.45865 -2,2c-0.54932,0.54932 -1.08783,1.09351 -1.85333,1.85315c-0.69342,0.68811 -1.12524,1.13638 -2.08798,1.92151c-0.50906,0.41516 -1.37534,1.02039 -1.995,1.45715c-1.00552,0.70874 -1.72266,1.22641 -2.091,1.49551c-0.74799,0.54648 -1.49371,1.09601 -1.86334,1.36334c-1.05969,0.76639 -1.72433,1.2305 -2.67334,1.87332c-0.60776,0.41168 -1.51343,1.00674 -2.11066,1.41516c-0.60284,0.41223 -1.21829,0.83032 -2.40051,1.81683c-0.62286,0.51974 -0.91641,0.82312 -1.60748,1.35333c-0.7326,0.56204 -1.58154,1.07999 -2.54401,1.54001c-0.50082,0.23938 -1.54788,0.66479 -2.07199,0.87466c-1.02377,0.40994 -1.98416,0.79388 -2.82001,1.20935c-0.75568,0.37561 -1.41611,0.77988 -2.052,1.116c-1.19247,0.63031 -1.8273,0.86612 -2.47601,1.14667c-0.70081,0.30307 -1.87256,0.87805 -2.73782,1.34399c-0.45242,0.24362 -1.3717,0.75134 -1.84201,0.98932c-1.37079,0.6936 -1.8215,0.8757 -2.68649,1.1955c-0.81549,0.30148 -1.61588,0.51865 -2.69501,0.9765c-0.69241,0.29379 -1.65073,0.84637 -2.26215,1.23785c-0.91202,0.58395 -1.49954,1.00192 -2.10452,1.38483c-0.89279,0.56503 -1.79181,1.06223 -2.40131,1.32532c-0.90814,0.392 -1.55261,0.59183 -2.56534,0.88535c-1.09161,0.31638 -1.87567,0.51849 -2.28,0.63599c-0.84143,0.24451 -2.17551,0.68253 -2.63602,0.84802c-0.93405,0.33566 -1.85587,0.69098 -2.3075,0.86331c-1.27612,0.48697 -2.03775,0.7713 -2.73782,1.01669c-0.96112,0.33691 -1.87506,0.62708 -2.772,0.94049c-0.60211,0.21039 -1.51184,0.55722 -2.40033,1.017c-0.61734,0.31946 -1.56625,0.89905 -2.27036,1.27982c-0.75699,0.40939 -1.59402,0.80487 -2.47998,1.18802c-0.44772,0.19363 -1.34042,0.56284 -2.616,1.04401c-0.76059,0.2869 -1.46033,0.5336 -2.112,0.75598c-1.21948,0.41617 -1.82135,0.61069 -2.72134,0.91068c-0.89999,0.29999 -1.80161,0.59641 -2.72134,0.91068c-0.65158,0.22266 -1.35165,0.46848 -2.52133,0.91064c-0.86441,0.32678 -1.30768,0.50479 -2.20667,0.85333c-0.88235,0.3421 -1.71552,0.66364 -2.47998,0.94c-1.02664,0.37115 -1.66144,0.58154 -2.87067,0.98535c-0.59988,0.20032 -1.49994,0.50018 -2.10001,0.69998c-1.20255,0.40039 -1.81833,0.61014 -2.47202,0.80002c-1.45496,0.42264 -1.86874,0.50757 -2.72882,0.6955c-0.87665,0.19156 -1.73262,0.37387 -2.89917,0.53784c-0.93025,0.13074 -1.70395,0.16132 -2.66667,0.16666c-0.79048,0.00439 -1.644,0 -2.23466,0c-1.19867,0 -2.09866,0 -2.69867,0c-1.2,0 -2.09999,0 -2.7,0c-1.2,0 -2.10449,0 -2.72083,0c-0.96451,0 -2.00056,-0.00568 -2.73184,0.00449c-0.74744,0.01041 -1.8692,0.04095 -2.92566,0.21701c-0.66464,0.11075 -1.58525,0.36179 -2.655,0.7785c-0.7123,0.27747 -1.32001,0.564 -2.28134,0.91467l-0.98534,0.08533" id="svg_3" stroke-width="2" stroke="#000" fill="none"/>
  <path t="8695,8721,8738,8752,8769,8788,8806,8806,8832,8842,8857,8873,8889,8905,8922,8939,8939,8955,8955,8972,8972,8972,8989,8989,9005,9005,9023,9023,9023,9039,9039,9039,9055,9055,9055,9055,9072,9072,9072,9072,9089,9089,9089,9089,9089,9105,9105,9105,9105,9105,9122,9122,9122,9139,9139,9139,9139,9155,9155,9155,9155,9172,9172,9172,9172,9172,9189,9189,9189,9189,9189,9205,9205,9205,9205,9221,9221,9221,9239,9240,9259,9259,9259,9274,9274,9274,9274,9291,9291,9291,9291,9307,9307,9307,9307,9324,9324,9324,9341,9341,9341,9355,9355,9355,9371,9372,9372,9372,9391,9391,9391,9391,9407,9407,9407,9424,9424,9424,9441,9441,9441,9455,9455,9455,9474,9474,9474,9491,9491,9491,9491,9507,9507,9507,9507,9524,9524,9524,9539,9539,9539,9557,9557,9557,9574,9574,9574,9574,9574,9591,9591,9591,9607,9607,9624,9844,9860,9876,9890,9911,9911,9924,9924,9940,9940,9955,9955,9974,9974,9991,9991,10007,10007,10024,10024,10024,10039,10039,10039,10060,10060,10061,10072,10072,10093,10093,10093,10093,10093,10093,10110,10111,10111,10111,10122,10122,10122,10122,10144,10144,10144,10145,10155,10155,10155,10155,10177,10177,10177,10177,10177,10178,10178,10194,10194,10194,10194,10194,10210,10210,10210,10210,10211,10227,10227,10227,10227,10228,10228,10228,10239,10239,10239,10239,10239,10258,10258,10258,10258,10258,10272,10272,10272,10272,10272,10293,10293,10293,10293,10293,10293,10310,10310,10311,10311,10322,10322,10322,10344,10344,10344,10345,10360,10360,10360,10361,10377,10377,10377,10377,10389,10389,10389,10389,10389,10405,10405,10405,10422,10422,10422,10422,10444,10444,10444,10445,10460,10460,10460,10472,10472,10472,10489,10489,10489,10505,10505,10505,10522,10522,10522,10544,10544,10544,10560,10560,10572,10572,10589,10589,10589,10589,10610,10610,10622,10642,10642,10660,10661,10677,10677,10694,10694,10695,10709,10722,10744,10745,10755,10755,10772,10772,10794,10794,10805,10805,10822,10822,10839,10839,10855,10855,10877,10892,10892,10915,10916,10935,10975,11000,11000,11024,11044,11044,11060,11087,11106,11107,11125,11142,11142,11142,11155,11155,11178,11178,11240,11254,11275,11292,11292,11308,11309,11325,11325,11325,11342,11342,11342,11355,11355,11355,11355,11355,11375,11375,11375,11375,11392,11392,11392,11405,11405,11405,11405,11425,11425,11425,11425,11442,11442,11442,11458,11458,11458,11472,11472,11472,11472,11492,11492,11492,11493,11493,11493,11508,11508,11508,11522,11522,11522,11522,11542,11542,11543,11558,11558,11559,11559,11575,11575,11575,11575,11591,11591,11591,11592,11608,11608,11608,11622,11622,11622,11642,11642,11642,11658,11658,11658,11658,11675,11675,11692,11692,11693,11705,11705,11725,11742,11779,11803,11822,11842,11842,11858,11858,11872,11872,11872,11892,11892,11893,11893,11908,11908,11908,11925,11925,11926,11926,11942,11942,11942,11958,11958,11958,11959,11976,11976,11976,11976,11992,11992,11993,12008,12008,12008,12022,12022,12022,12022,12023,12042,12042,12042,12056,12056,12056,12072,12072,12072,12089,12089,12089,12089,12090,12108,12108,12109,12109,12125,12125,12126,12126,12142,12142,12143,12155,12155,12156,12156,12156,12174,12174,12174,12175,12175,12192,12192,12193,12193,12193,12193,12205,12205,12205,12206,12206,12225,12225,12226,12226,12242,12243,12243,12243,12255,12255,12255,12255,12256,12272,12272,12272,12272,12289,12289,12289,12290,12305,12305,12305,12325,12325,12326,12326,12326,12339,12339,12339,12358,12358,12359,12359,12375,12375,12376,12392,12392,12393,12393,12393,12408,12409,12409,12422,12422,12423,12443,12443,12443,12443,12455,12455,12456,12472,12472,12472,12473,12489,12489,12490,12490,12508,12509,12509,12525,12526,12526,12541,12541,12542,12542,12555,12555,12556,12556,12575,12576,12576,12593,12593,12593,12609,12609,12609,12622,12622,12643,12644,12644,12687,12695" d="m268,157c0,1.8 0.15707,2.71976 -0.02084,3.5c-0.21939,0.96201 -0.73187,1.65054 -1.14581,2.5c-0.31787,0.65227 -0.82068,1.49985 -0.83334,2.39999c-0.0126,0.89543 -0.6705,1.40686 -0.97916,2.12083c-0.34897,0.80722 0.12482,1.84056 -0.30618,2.68051c-0.31781,0.61938 -1.02264,1.45157 -1.31467,2.00932c-0.51416,0.98204 -0.89944,1.78961 -1.19998,2.38934c-0.49908,0.99596 -0.84625,1.78047 -1.40134,2.51599c-0.50912,0.67462 -1.30365,1.3519 -1.79868,1.92567c-0.53958,0.6254 -0.98941,1.37447 -1.37466,2.18365c-0.38892,0.81689 -0.75494,1.63515 -1.28699,2.32201c-0.54839,0.70796 -1.02579,1.13589 -1.75984,1.87433c-0.53624,0.53944 -1.10788,1.11208 -1.68301,1.74001c-0.90918,0.99265 -1.49689,1.72015 -1.79099,2.091c-0.5892,0.74298 -1.15454,1.48946 -1.93784,2.58066c-0.48582,0.6768 -0.92633,1.3231 -1.356,1.92c-0.40526,0.56297 -1.20448,1.56949 -1.62134,2.02135c-0.63522,0.68857 -1.356,1.392 -1.87334,1.90933c-0.54132,0.54132 -1.09067,1.09067 -2.14932,2.14932c-0.48267,0.48267 -0.94135,0.94135 -1.61934,1.61934c-0.714,0.714 -1.23039,1.23636 -1.79401,1.78333c-0.59621,0.5786 -1.22911,1.17802 -2.27449,2.06384c-0.35783,0.30321 -1.09386,0.88905 -1.8175,1.46417c-0.69234,0.55023 -1.62537,1.30663 -2.147,1.77882c-0.70262,0.63603 -1.10574,1.06181 -1.91432,1.85583c-0.59567,0.58495 -1.17728,1.14749 -2,1.71733c-0.77963,0.53999 -1.60944,1.03928 -2.20451,1.54117c-0.64189,0.5414 -1.55647,1.35031 -2.08083,1.74283c-0.54486,0.40787 -1.41878,1.00058 -2.31467,1.60001c-0.5984,0.40039 -1.20044,0.78452 -2.04283,1.39999c-0.80133,0.58546 -1.50377,1.20084 -1.95717,1.60001c-0.68292,0.60124 -1.41139,1.21362 -2.22533,1.78934c-0.54288,0.38399 -1.60818,1.04367 -2.3175,1.45799c-0.64667,0.37772 -1.47211,0.90163 -2.05717,1.40984c-0.61627,0.53531 -1.41304,1.33025 -2,1.95183c-0.61392,0.65013 -1.02623,1.14418 -1.59999,2.03368c-0.41957,0.65045 -0.78943,1.36353 -1.2,2.052c-0.58507,0.98106 -1.19664,1.79008 -1.76401,2.48399c-0.67065,0.82025 -1.09438,1.41263 -1.42534,2.02133c-0.53639,0.98653 -0.77925,1.62651 -1.29599,2.40001c-0.55505,0.83084 -1.13515,1.38298 -1.63068,2c-0.62799,0.78197 -0.99387,1.44852 -1.45332,2.17065c-0.56027,0.88057 -1.03412,1.53941 -1.5515,2.22934c-0.52458,0.69954 -1.30782,1.6707 -1.79251,2.22934c-0.43581,0.5023 -1.06288,1.13307 -1.66533,1.97066c-0.55757,0.77518 -0.87225,1.42598 -1.50667,2.2c-0.50981,0.62198 -1.12158,1.19449 -1.916,2.00267c-0.6239,0.6347 -1.06776,1.10147 -1.76534,1.93066c-0.52644,0.62578 -1.05098,1.313 -1.608,1.98c-0.53404,0.6395 -1.28894,1.44034 -1.97865,1.98935c-0.57317,0.45627 -1.33054,1.20343 -1.83601,1.836c-0.57558,0.72031 -1.14854,1.47153 -1.84666,1.82532c-0.77136,0.3909 -1.7653,-0.01251 -2.66417,0.03616c-0.7886,0.04272 -1.73854,0.43018 -2.30432,0.70435c-0.99908,0.48416 -1.7374,0.92633 -2.7115,1.21149c-0.75452,0.22086 -1.54599,0.431 -2.2885,0.78851c-1.00085,0.48187 -1.61165,0.73782 -2.57417,1.39551c-0.67491,0.46115 -1.32912,1.02609 -2.063,1.39999c-0.63382,0.32294 -1.64233,0.70001 -2.45833,1c-0.81599,0.29999 -1.81876,0.6911 -2.47917,1c-0.62347,0.29163 -1.62999,0.81372 -2.32883,1.13599c-1.18488,0.54639 -1.5547,0.6889 -2.35451,1.01669c-0.85677,0.35114 -1.7359,0.69662 -2.17082,0.86331c-1.22171,0.46823 -1.95988,0.72318 -2.98134,1.10934c-0.67004,0.25333 -1.70827,0.69247 -2.438,1.02734c-0.74899,0.34372 -1.48767,0.71057 -2.58066,1.18066c-0.67715,0.29123 -1.32787,0.53867 -2.26218,0.86215c-0.90186,0.31226 -1.82071,0.60608 -2.467,0.84616c-0.71208,0.26453 -1.93858,0.78928 -2.40167,1.00101c-1.0007,0.45752 -1.52052,0.71225 -2.59583,1.20667c-0.53819,0.24747 -1.06192,0.51123 -2.597,1.10785c-0.46901,0.18228 -1.37137,0.48035 -2.22166,0.75748c-0.81902,0.26694 -2.02577,0.69742 -2.83034,1.047c-0.41451,0.18011 -1.26459,0.58179 -2.16167,1.02502c-0.96439,0.4765 -1.472,0.73465 -2.53467,1.26599c-0.54533,0.27267 -1.09467,0.54733 -2.18933,1.09467c-0.53734,0.26868 -1.57201,0.78601 -2.53467,1.26733c-0.89867,0.44934 -1.32899,0.66449 -2.16167,1.08084c-1.20899,0.60449 -2.00818,1.00348 -2.4045,1.2045c-0.78468,0.39801 -1.55572,0.785 -2.63783,1.39999c-0.68948,0.39185 -1.35283,0.80936 -2.028,1.23599c-0.70888,0.44794 -1.88093,1.18597 -2.30666,1.448c-0.88184,0.54269 -1.33251,0.81516 -2.22667,1.36334c-0.43758,0.26828 -1.66605,1.02515 -2.3865,1.49551c-0.65993,0.43085 -1.27325,0.82663 -2.2975,1.65717c-0.47858,0.38806 -1.12843,1.02197 -2.088,1.79999c-0.50795,0.41183 -1.06516,0.7912 -1.88067,1.39999c-0.7924,0.59152 -1.49783,1.20248 -2.178,1.80002c-0.45721,0.40167 -1.45837,1.20541 -2.02133,1.61066c-0.59689,0.42969 -1.24472,0.86807 -2.2745,1.61066c-0.73038,0.52667 -1.09759,0.79868 -1.8175,1.35333c-0.69598,0.53622 -1.61395,1.30899 -2.4,1.97867c-0.47327,0.4032 -1.41573,1.10434 -2.2185,1.49402c-0.55569,0.26974 -1.45646,0.61224 -2.34267,1.07397c-0.6045,0.31494 -1.46161,0.85748 -2.01483,1.19467c-0.99679,0.60754 -1.69095,0.97418 -2.36933,1.36801c-1.00855,0.58551 -1.53823,0.94626 -2.36333,1.46332c-0.78308,0.49072 -1.49055,0.90494 -2.34817,1.34818c-0.80015,0.41351 -1.63244,0.81268 -2.28983,1.18985c-1.00995,0.57944 -1.5369,0.94492 -2.362,1.46198c-0.78308,0.49072 -1.50507,0.87149 -2.291,1.34818c-0.79259,0.48074 -1.39495,1.03415 -2.14833,1.50583c-0.74208,0.4646 -1.68561,0.95642 -2.4615,1.45135c-0.53494,0.34122 -1.3062,0.83295 -2.08117,1.46198c-0.68359,0.55487 -1.3181,1.40637 -2.13733,1.71869c-0.79409,0.3027 -1.69026,0.29361 -2.45866,0.77731c-0.72015,0.45331 -1.3949,0.89053 -2.37467,1.38934c-0.59064,0.30069 -1.35269,0.86996 -1.97917,1.47916c-0.60231,0.58569 -1.51389,0.44666 -2.42533,0.578c-1.00959,0.14551 -1.60408,0.41565 -2.57417,1.04266c-0.66852,0.4321 -1.51257,0.77753 -2.196,0.92551c-0.95446,0.2067 -1.5379,0.74564 -2.4825,1.27017c-0.72047,0.40009 -1.5498,0.54214 -2.50684,0.72983c-0.82213,0.16122 -1.45683,0.76682 -2.24667,1.36401c-0.69934,0.52878 -1.58916,0.60022 -2.56783,0.61066c-0.82012,0.00873 -1.40864,0.31451 -2.18817,0.83334c-0.70746,0.47089 -1.68402,0.1795 -2.33333,0.6875c-0.76741,0.6004 -0.95355,1.43515 -1.584,2.19382c-0.60231,0.72479 -0.78205,1.41516 -1.00133,2.08533c-0.31096,0.95035 -0.82147,1.74005 -0.87867,2.46133c-0.06254,0.78864 -0.036,1.81702 -0.036,2.69702c0,1.02014 -0.4179,1.98438 0.05717,2.68448c0.46316,0.68256 1.57883,0.35718 2.6,0.35718c0.74733,0 1.74283,0 2.54283,0c1.00016,0 1.82083,0 2.48533,0c1.00267,0 1.87717,0 2.5335,0c1.1145,0 1.94917,0 2.83183,0c0.89867,0 1.78134,0.00357 3.00633,-0.00015c0.72868,-0.0022 1.40546,0.0239 2.34034,-0.08517c1.21075,-0.14127 1.7986,-0.35715 2.70266,-0.56201c0.8963,-0.20309 1.80382,-0.31204 2.736,-0.34198c0.64907,-0.02084 1.68533,-0.01068 2.41667,-0.01068c1.122,0 1.86333,0 2.92567,0c0.975,0 1.57502,0.00607 2.655,0c0.95205,-0.00534 1.68137,-0.02652 2.80983,-0.2215c0.67909,-0.11734 1.41922,-0.29984 2.223,-0.483c1.30032,-0.2963 1.75373,-0.40149 2.682,-0.591c0.92976,-0.18982 1.84101,-0.35367 2.2825,-0.41916c1.22385,-0.18152 2.29703,-0.25916 2.948,-0.27466c1.22104,-0.02911 1.82133,-0.01068 2.72134,-0.01068c0.9,0 1.80016,0 2.71067,0c0.9465,0 1.95599,0 2.67333,0c0.74133,0 1.49066,0 2.94933,0c0.68266,0 1.34133,0 2.31933,0c1.014,0 1.73,0 2.8265,0c0.71101,0 1.6875,0 2.75951,0c0.7095,0 1.68308,0.01727 2.48666,-0.01068c0.82281,-0.02863 1.85519,-0.20493 2.56,-0.41464c0.72629,-0.21613 1.85588,-0.47052 2.52,-0.51752c1.04243,-0.07376 1.72666,-0.05649 2.924,-0.05716c0.729,-0.0004 1.77067,0 2.57067,0c0.8,0 1.79549,0 2.71466,0c0.9645,0 1.88534,0 2.78534,0c0.89999,0 1.8,0 2.7,0c0.75716,0 1.66345,-0.05298 2.4045,0.05716c1.01279,0.15054 1.63074,0.48096 2.36617,0.74417c1.18895,0.42551 1.88783,0.60025 2.61466,0.76266c0.72935,0.16299 2.12844,0.36432 2.77867,0.39999c0.93063,0.05106 1.836,0.03601 2.736,0.03601c0.9,0 1.50008,-0.01205 2.70133,0.00134c0.91965,0.01025 1.55968,0.02478 2.56534,0.16531c1.09122,0.15247 1.83154,0.34271 2.58066,0.48068c1.08359,0.19958 1.76624,0.28674 2.73184,0.33182c0.61588,0.02875 1.82066,0.02084 2.71016,0.02084c0.8535,0 1.88966,0 2.60667,0c0.771,0 2.06816,0 2.8665,0c0.42416,0 1.2975,0 2.17082,0c1.22351,0 1.94785,0 2.90933,0c1.09067,0 1.80467,0 2.71001,0c0.96916,0 1.80467,0 2.42999,0c1.45067,0 2.28534,0 2.72267,0c0.89467,0 1.78934,0.00113 3.06134,0c0.76266,-0.00067 1.46362,0.02377 2.42433,-0.05716c0.91234,-0.07687 1.81332,-0.28513 2.709,-0.5535c0.60307,-0.18069 1.80032,-0.59247 2.41066,-0.78934c0.94496,-0.30484 1.95491,-0.604 2.67467,-0.80002c0.74956,-0.20413 1.52507,-0.401 2.31601,-0.59998c1.19861,-0.30154 2.00693,-0.50308 2.84033,-0.70001c0.42996,-0.10159 1.3268,-0.311 2.80099,-0.59982c0.52458,-0.10278 1.60741,-0.29327 2.15733,-0.37933c1.09352,-0.17114 1.62984,-0.25708 3.157,-0.39951c0.47176,-0.04401 1.37132,-0.09088 2.22166,-0.14667c0.819,-0.05374 2.0238,-0.18149 2.81683,-0.33185c0.78658,-0.14914 1.5504,-0.33621 2.63783,-0.64282c0.68468,-0.19305 1.66571,-0.50317 2.31934,-0.70001c1.01254,-0.30493 1.73384,-0.49716 2.48334,-0.71066c0.77589,-0.22101 1.57562,-0.44739 2.76382,-0.91064c0.80304,-0.31308 1.57803,-0.68158 2.343,-1.026c1.08865,-0.49014 1.76888,-0.77155 2.41051,-1.01669c0.8828,-0.33728 1.9278,-0.73126 2.64267,-1.04666c0.77335,-0.34122 1.70296,-0.75848 2.45599,-1.07333c0.82288,-0.34406 1.67249,-0.68945 2.09,-0.86331c1.15938,-0.48276 2.08772,-0.90289 2.862,-1.242c0.95869,-0.41986 1.75192,-0.71423 2.31683,-0.91068c0.8786,-0.30554 1.77805,-0.60397 2.68983,-0.89999c0.62447,-0.20273 1.95544,-0.60205 2.672,-0.80002c0.73143,-0.20209 1.46019,-0.38605 2.14801,-0.59998c1.20784,-0.37567 1.94502,-0.70828 2.65199,-1c0.99791,-0.41177 1.83745,-0.70212 2.42184,-0.90002c1.19403,-0.40433 1.79549,-0.60001 2.6955,-0.89999c0.59999,-0.19998 1.8,-0.60001 2.39999,-0.79999c0.90001,-0.29999 1.80197,-0.59421 2.7045,-0.90451c0.61771,-0.21237 1.58733,-0.56573 2.61667,-1.01682c0.73178,-0.32068 1.4593,-0.67606 2.16901,-1.026c0.9783,-0.48239 1.7955,-0.89551 2.48849,-1.242c0.82133,-0.41068 1.63861,-0.8093 2.2785,-1.16785c0.97473,-0.54617 1.5025,-0.89615 2.3535,-1.45349c0.59242,-0.388 1.48549,-0.99506 2.08932,-1.38483c0.89439,-0.5773 1.48709,-0.94513 2.39984,-1.38318c0.87781,-0.4213 1.5022,-0.57733 2.53349,-1.18799c0.74001,-0.43817 1.32764,-1.04453 2.16667,-1.66669c0.58148,-0.43118 1.38354,-0.87308 2.39999,-1.08264c0.79083,-0.16306 1.79984,-0.30551 2.38934,-0.52002l0.72534,-0.36533l0.828,-0.58801l0.03598,-0.63599" id="svg_4" stroke-width="2" stroke="#000" fill="none"/>
  <path t="13642,13651,13651,13651,13651,13651,13651,13651,13651,13658,13658,13658,13658,13658,13658,13658,13675,13675,13691,13691,13691,13691,13705,13706,13706,13723,13723,13738,13739,13739,13756,13756,13756,13773,13773,13773,13789,13789,13789,13805,13806,13806,13822,13823,13823,13823,13839,13839,13839,13839,13855,13856,13856,13856,13873,13873,13873,13873,13873,13889,13889,13889,13889,13889,13906,13906,13906,13906,13922,13922,13922,13922,13922,13938,13938,13938,13938,13938,13938,13955,13955,13955,13955,13972,13972,13972,13973,13988,13988,13988,13988,13988,13988,14005,14005,14005,14005,14022,14022,14022,14038,14038,14038,14038,14055,14055,14055,14055,14072,14072,14072,14072,14088,14088,14088,14088,14105,14105,14105,14122,14122,14122,14122,14138,14138,14138,14155,14353" d="m183,261c3.535,-0.664 4.32666,-0.85199 5.18834,-1.05801c0.91167,-0.21799 1.85292,-0.44373 2.80499,-0.66599c0.94127,-0.21973 1.84985,-0.44077 3.50667,-0.776c0.70493,-0.14264 1.32977,-0.25003 1.881,-0.32849c0.4836,-0.06882 0.90947,-0.13626 1.92168,-0.16751c1.01285,-0.03128 1.92265,-0.004 2.864,-0.004c0.7905,0 1.644,0 2.23466,0c1.19733,0 2.07784,-0.00055 2.91333,0c1.00133,0.00067 1.91788,-0.0083 2.85201,0.16666c0.7939,0.14868 1.5977,0.45456 2.66666,0.66669c0.70854,0.14059 1.39197,0.16132 2.58817,0.16666c0.81448,0.00363 1.38918,0 2.57851,0c0.89549,0 1.76401,0.00333 2.83333,0c0.71852,-0.00226 1.43268,-0.0022 2.5,-0.16666c0.63943,-0.09851 1.68942,-0.34668 2.4185,-0.53784c1.08449,-0.28436 1.76439,-0.49481 2.74817,-0.7955c0.65282,-0.19952 1.66583,-0.50302 2.384,-0.70001c0.74048,-0.20309 1.49445,-0.38641 2.94933,-0.79999c0.68585,-0.19496 1.35393,-0.40498 2.028,-0.636c0.71008,-0.24336 1.88388,-0.67903 2.744,-1.02116c0.89737,-0.35693 1.35153,-0.53693 2.22667,-0.94417c1.23622,-0.57529 1.95622,-0.99768 2.64717,-1.37784c0.66713,-0.36705 1.68118,-0.8708 2.4075,-1.13683c0.75385,-0.27609 1.56157,-0.50427 2.39999,-0.76801c0.8817,-0.27734 1.79784,-0.59859 2.26601,-0.76866c0.94836,-0.34451 1.89314,-0.69894 2.36333,-0.86334c1.35808,-0.47485 2.22116,-0.73096 3.04233,-0.96317c0.7789,-0.22025 1.87679,-0.51489 2.55901,-0.72217c0.6698,-0.20351 1.34808,-0.42345 2.81601,-0.96533c0.41049,-0.15154 1.27206,-0.48581 2.16666,-0.83333c0.44937,-0.17458 1.32785,-0.52715 2.55701,-0.97833c0.72629,-0.2666 1.39008,-0.52589 2.34033,-0.735c1.19135,-0.26216 1.81052,-0.22452 2.70267,-0.3965c0.91055,-0.17552 1.80408,-0.59225 2.39999,-0.911c0.90637,-0.48479 1.793,-0.97475 2.40451,-1.222c0.92139,-0.37253 1.57843,-0.56419 2.61682,-0.85718c0.72968,-0.20589 1.47977,-0.3959 2.22601,-0.59999c1.43332,-0.392 2.09277,-0.60516 2.73181,-0.77917c0.91586,-0.24939 2.12177,-0.44102 2.73151,-0.4955c0.94595,-0.08452 1.95773,-0.18187 2.672,-0.30933c0.73392,-0.13097 1.80322,-0.38739 2.784,-0.54933c0.81146,-0.13399 1.66718,-0.21935 2.57617,-0.51933l0.75717,-0.48067" id="svg_5" stroke-width="2" stroke="#000" fill="none"/>
  <path t="16591,16701,16709,16725,16738,16755,16772,16772,16772,16788,16788,16805,16805,16822,16822,16838,16838,16838,16838,16855,16855,16855,16872,16872,16872,16872,16888,16888,16888,16905,16905,16905,16922,16922,16922,16922,16938,16938,16938,16955,16955,16955,16973,16973,16973,16988,16988,16988,16988,17005,17005,17005,17022,17022,17022,17038,17038,17038,17055,17055,17055,17071,17072,17072,17072,17087,17088,17088,17105,17105,17105,17122,17122,17122,17137,17138,17154,17172,17172,17188,17205,17205,17222,17222,17238,17257,17272,17272,17300,17300,17353,17384,17445,17469,17549,17797,17821,17846,17846,17863,17863,17888,17888,17905,17905,17905,17922,17922,17952,18013,18020,18039,18056,18073,18089,18089,18106,18106,18124,18140,18156,18172,18188,18205,18205,18222,18222,18260,18272,18292,18305,18322,18338,18355,18355,18372,18372,18388,18388,18405,18422,18438,18438,18455,18455,18472,18488" d="m134,353c1.60001,0.57468 2.42516,1.05667 3.02533,1.57468c0.62872,0.54263 1.39418,0.86279 2.14134,1.59198c0.4919,0.48004 1.008,1.008 1.81183,1.81183c0.61084,0.61084 1.18152,1.27222 1.90683,1.8215c0.7381,0.55896 1.3707,0.8201 2.28134,1.36667c0.79439,0.47678 1.34721,0.83514 2.14932,1.43466c0.77654,0.58041 1.43637,1.21652 2.13667,1.74152c0.69312,0.51962 1.50372,0.90628 2.358,1.2825c0.59013,0.25989 1.50075,0.67603 2.368,1.20001c0.55717,0.33664 1.46402,1.04089 2.18134,1.53867c0.6723,0.46652 1.69243,0.84335 2.33733,1.03598c0.69633,0.20798 1.42479,0.38806 2.481,0.70001c0.97833,0.28897 1.58386,0.47684 2.655,0.89999c0.72029,0.28455 1.61263,0.71664 2.58817,1.10001c0.53217,0.20914 1.38864,0.50159 2.57851,0.89999c0.59973,0.20081 1.49998,0.50003 2.10001,0.70001c1.19981,0.39987 1.78867,0.61862 2.664,0.86398c1.0618,0.29764 1.78537,0.33966 2.63148,0.48868c1.01773,0.17926 1.63422,0.49283 2.37517,0.66333c1.18408,0.27246 1.8904,0.25797 2.61467,0.27332c1.44771,0.03067 2.12933,0.01068 2.77867,0.01068c0.9315,0 2.13596,-0.00848 2.73149,0.00449c0.86888,0.01892 1.94435,0.13953 2.87918,0.42084c0.68315,0.2056 1.64557,0.46133 2.43999,0.54935c0.77469,0.08582 1.77585,0.38708 2.58267,0.74133c0.80766,0.35461 1.7007,0.17636 2.55,0.34116c0.92572,0.17963 1.75877,0.80048 2.40984,0.99551c0.90468,0.27103 1.55782,0.72845 2.60683,0.91132c0.92296,0.16089 1.68709,0.34488 2.39317,0.68335c0.85034,0.40762 1.75883,0.35199 2.722,0.35266c0.92082,0.00064 1.82083,0 2.72083,0c0.90001,0 2.03241,-0.43427 2.63333,0.16666c0.60094,0.60092 0.19771,1.59952 0.51933,2.49051c0.27275,0.75562 0.59451,1.74191 0.63667,2.57883c0.04683,0.92953 0.01067,1.71219 0.01067,2.50269c0,1.11832 -0.01077,1.95239 0,2.86133c0.01042,0.87933 0.61063,1.39465 1.5,1.39999c0.89998,0.0054 1.8045,0 2.66667,0c0.83333,0 1.81183,0 2.63199,0c0.90134,0 1.80135,0 2.70134,0c0.89999,0 1.8045,0 2.66667,0c0.83333,0 1.81183,0 2.63199,0c0.90134,0 1.99878,0.00555 2.19684,-0.7045c0.24084,-0.86346 0.62263,-1.60583 0.91917,-2.49551c0.2859,-0.85779 0.08533,-1.68533 0.08533,-2.63599c0,-0.76532 0,-1.75949 0,-2.50684c0,-1.02118 0,-1.96167 0,-2.82382c0,-0.83334 0,-1.81183 0,-2.63202l-0.05716,-0.90134l-0.44284,-0.79999" id="svg_6" stroke-width="2" stroke="#000" fill="none"/>
  <path t="19214,19245,19261,19261,19274,19289,19289,19305,19305,19305,19322,19338,19338,19338,19338,19338,19358,19359,19359,19359,19375,19376,19376,19376,19392,19392,19392,19392,19392,19407,19407,19407,19407,19407,19424,19424,19424,19424,19440,19440,19440,19440,19456,19456,19456,19456,19456,19474,19474,19474,19474,19490,19490,19490,19509,19509,19509,19509,19523,19523,19523,19523,19523,19538,19539,19539,19539,19556,19556,19556,19617,19617,19625" d="m231,389c1.2215,0.87866 2.05836,1.28708 2.7,1.64734c0.77899,0.43738 1.79141,0.62479 2.51067,0.96332c0.79634,0.37482 1.55997,0.82413 2.304,1.104c0.86293,0.32458 1.98769,0.61322 2.54134,0.85468c0.65483,0.28558 1.36983,0.63077 2.14799,0.948c1.18683,0.48383 1.98953,0.73209 2.77518,0.96182c0.76181,0.22275 1.85869,0.50616 2.53683,0.72351c0.99109,0.31766 1.65569,0.57605 2.65067,1.13068c0.73361,0.40894 1.46786,0.91962 1.85416,1.16666c0.78073,0.4993 1.96925,1.18924 2.77783,1.53067c0.78169,0.33008 1.57204,0.56592 2.31599,0.85199c1.07413,0.41302 1.73514,0.7626 2.3645,1.13818c0.62344,0.37201 1.51785,0.9837 2.42535,1.57916c0.61432,0.40308 1.24448,0.81396 2.26215,1.39999c0.71176,0.40985 1.45956,0.79834 2.20801,1.20001c0.74222,0.39835 1.80649,0.99518 2.46368,1.39548c0.62268,0.37927 1.19016,0.7637 2.24033,1.38318c0.6897,0.40683 1.37863,0.76614 2.34317,1.34265c0.54697,0.32693 1.44717,0.88235 2.15015,1.19467c1.15039,0.51108 1.59433,0.60577 2.47867,0.85867c0.89703,0.25653 1.36163,0.3273 2.616,0.79199c0.77347,0.28656 1.45822,0.64569 2.36719,1.18066c0.80634,0.47458 1.509,0.89551 2.36166,1.34818l0.80383,0.40433l0.85666,0.46417l-0.1185,0.41516" id="svg_7" stroke-width="2" stroke="#000" fill="none"/>
  <path t="20234,20249,20249,20249,20249,20257,20257,20257,20273,20273,20289,20289,20289,20289,20305,20305,20305,20305,20305,20322,20322,20322,20338,20338,20338,20338,20355,20355,20355,20372,20372,20372,20372,20372,20388,20388,20388,20405,20405,20422,20422,20422,20438,20438,20438,20455,20455,20472,20472,20488,20488,20504,20505,20505,20523,20523,20539,20539,20556,20556,20572,20572,20588,20588,20588,20605,20605,20623,20623,20639,20639,20656" d="m225,395c7.69234,2.85699 8.61018,3.18423 9.375,3.45834c0.64578,0.23145 1.69952,0.65109 2.38901,0.931c0.83002,0.33694 1.84969,0.51868 2.47198,0.672c1.20941,0.29794 1.72931,0.64664 2.30568,0.98032c0.9511,0.5506 1.97647,1.16412 2.711,1.55383c0.37108,0.19687 1.11589,0.58173 1.86333,0.91919c1.38646,0.62601 2.04633,0.83948 2.63733,1.11066c1.09801,0.50381 1.78976,1.0329 2.472,1.54932c0.45587,0.34506 1.45471,0.95642 2.31635,1.32535c0.61546,0.26352 1.62807,0.65982 2.34099,0.98401c0.73523,0.33432 1.45685,0.68893 2.14801,1.03198c1.20016,0.59567 1.92767,0.9632 2.56665,1.28268c1.00266,0.50134 1.60782,0.79117 2.60269,1.30148c0.80423,0.41254 1.41516,0.76541 2.19998,1.38251c0.61221,0.48135 1.15292,1.06879 2.20001,1.4075c0.77585,0.25098 1.82309,0.34283 2.564,0.72049c0.8468,0.43164 1.46725,1.0466 2.37866,1.48917c0.68808,0.33411 1.44312,0.57919 2.48801,0.81616c0.71231,0.16156 1.63116,0.43134 2.37384,0.78851c0.80048,0.38495 1.60049,0.75375 2.42883,1.2955c0.71146,0.4653 1.49036,1.02301 2.172,1.2955c0.73444,0.29361 1.86005,0.54572 2.60931,0.72983c0.8812,0.21652 1.73267,0.67917 2.5,1.17334l0.68402,0.51599l0.84415,0.33801" id="svg_8" stroke-width="2" stroke="#000" fill="none"/>
  <path t="21209,21269,21285,21285,21300,21306,21323,21339,21860,21869,21885,21885,21893,21893,21907,21907,21923,21923,21940,21940,21957,21957,21973,21974,21990,21990,22007,22023,22041,22065,22085,22085,22125,22144,22161,22177,22190,22190,22207,22223,22223,22240,22240,22257,22257,22257,22257,22273,22273,22273,22290,22290,22290,22290,22290,22307,22308,22308,22323,22340,22340,22357,22357,22373,22373,22392,22405,22444,22460,22471,22488,22488,22505,22505,22505,22521,22521,22538,22538,22538,22555,22555,22555,22571,22571,22571,22589,22589,22589,22605,22605,22605,22605,22621,22621,22638,22638,22638,22638,22655,22655,22655,22671,22671,22671,22689,22689,22793,22805,22822,22840,22840,22856,22856,22856,22856,22872,22872,22872,22889,22889,22889,22889,22889,22907,22907,22907,22923,22923,22923,22939,22939,22939,22956,22956,22956,22956,22972,22972,22972,22973,22973,22990,22990,22990,23006,23006,23006,23006,23023,23024,23024,23039,23039,23039,23039,23057,23057,23057,23104,23112,23123,23140,23140,23156,23156,23156,23172,23172,23172,23189,23189,23189,23206,23206,23206,23222,23222,23222,23239,23239,23239,23239,23256,23256,23256,23272,23272,23272,23272,23289,23289,23306,23306,23306,23322,23322,23339,23339,23339,23356,23356,23356,23372,23372,23389,23389,23406,23406,23422,23422,23439,23456,23472,23472,23489,23508,23532,23720,24020,24045,24056,24072,24088,24105,24105,24105,24121,24121,24138,24155,24171,24188,24205,24221,24238,24276,24288,24307,24321,24321,24338,24338,24360,24380,24388,24405,24405,24421,24438,24438,24455,24455,24471,24471,24488,24488,24488,24505,24521,24521,24538,24560,24600,24600,24612,24621,24638,24655,24672,24688,24688,24705,24705,24764,24772,24789,24805,24805,24821,24821,24838,24838,24855,24855,24855,24871,24871,24871,24888,24905,24905,24905,24921,24921,24921,24938,24938,24955,24955,24971,24972,24972,24988,24988,25005,25005,25005,25021,25021,25038,25038,25055,25055,25071,25071,25088,25088,25105,25105,25105,25121,25138,25138,25155,25171,25171,25188,25205,25221,25221,25238,25264,25271,25304" d="m290,417c1.5,1.5 2.19809,2.20193 2.70001,2.70001c0.69733,0.69202 1.59436,1.0827 2.24731,1.65265c0.58463,0.51028 1.40985,0.64749 2.25269,0.64734c0.90015,-0.00018 1.71194,-0.13434 2.45267,-0.70532c0.54272,-0.41837 1.4664,-1.11609 2.23132,-1.37735c0.77643,-0.26517 1.52417,-0.61456 2.51468,-1.11734c0.58264,-0.29575 1.5303,-0.9783 2.22665,-1.36398c0.81183,-0.44962 1.5975,-0.32608 2.48932,-0.72c0.74005,-0.32687 1.69052,-0.33609 2.52817,-0.77316c0.74771,-0.39017 1.41101,-0.82617 2.19052,-1.1095c0.80737,-0.29346 1.5661,-0.81534 2.46664,-0.83334c0.89984,-0.01801 1.80002,0 2.70001,0c0.79999,0 1.75717,0 2.65717,0c0.74734,0 1.74686,-0.03949 2.57883,0.03601c0.93594,0.08493 1.72421,0.31113 2.57468,0.57465c0.59286,0.18372 1.79279,0.58459 2.39999,0.80002c0.94992,0.33701 1.95908,0.74915 2.672,1.07333c0.73523,0.33432 1.45691,0.68878 2.14801,1.03198c1.19894,0.59543 1.92474,0.93289 2.48132,1.28268c0.88297,0.5549 1.55563,1.33862 2.12399,1.80133c0.8056,0.65585 1.57269,0.94904 2.3425,1.5c0.64191,0.45944 1.41791,1.13293 1.85486,1.89999c0.44424,0.77988 0.60458,1.177 -0.33334,0.97916c-0.85727,-0.18082 -1.45102,-0.82269 -2.26935,-1.17783c-0.73584,-0.31934 -1.53809,-0.5741 -2.54666,-0.716c-0.9035,-0.12714 -1.85083,-0.07251 -2.63666,-0.08981c-0.82239,-0.0181 -1.88657,-0.1409 -2.59467,-0.34818c-0.91376,-0.26746 -1.87155,-0.55307 -2.67801,-0.61133c-0.82047,-0.05927 -1.85349,-0.03601 -2.56,-0.03601c-0.98401,0 -1.85733,0 -2.86533,0c-0.69867,0 -1.38147,-0.01495 -2.57999,0.00134c-0.74869,0.01016 -1.94061,0.14716 -2.7265,0.35583c-0.56732,0.15063 -1.44482,0.4422 -2.34268,0.74283c-0.89014,0.29807 -1.75204,0.57736 -2.77866,1c-0.69193,0.28485 -1.31308,0.60803 -2.32019,1.09866c-0.76239,0.37143 -2.12088,0.30984 -2.05966,0.80133c0.10739,0.86237 1.78,0 2.5,0c1.125,0 1.91644,-0.01529 2.76901,0.03601c0.59164,0.03561 1.79611,0.23108 2.39999,0.41064c0.95618,0.28433 1.9584,0.71463 2.67334,1.03735c0.74387,0.33578 1.48712,0.69839 2.23199,1.03198c1.05746,0.47357 1.7226,0.72623 2.63733,1.07333c1.08029,0.40994 1.80795,0.68146 2.436,1.04666c0.83759,0.48706 1.42004,1.01117 2.01068,1.57468c0.81314,0.77579 1.41037,1.39276 1.82083,1.83099c0.67429,0.71994 1.40332,1.59875 1.93182,2.26367c0.55029,0.69232 0.81555,1.04916 1.36334,1.72668c0.75369,0.93216 1.44296,1.70078 1.87332,2.14667c0.80142,0.83035 1.42099,1.41617 2.01068,2.05731c0.40723,0.44278 1.20554,1.44534 1.59998,2c0.40579,0.57062 1.20096,1.76337 1.59869,2.36267c0.3916,0.59006 0.78308,1.15442 1.43466,2.23468c0.42108,0.69812 0.87515,1.49673 1.36398,2.28c0.47256,0.7572 -0.04947,0.38837 -0.48398,-0.31467c-0.47836,-0.77399 -1.1908,-1.29373 -1.755,-1.81952c-0.63483,-0.59161 -1.36975,-1.19278 -2.18369,-1.76849c-0.54285,-0.38397 -1.60165,-1.05521 -2.3175,-1.45349c-0.64096,-0.35663 -1.65402,-0.86398 -2.26782,-1.15717c-0.6431,-0.30719 -1.60785,-0.70828 -2.42532,-1c-0.86542,-0.30881 -1.76505,-0.59692 -2.65952,-0.89999c-0.58435,-0.198 -1.42392,-0.48828 -2.42181,-0.90002c-0.707,-0.29172 -1.44479,-0.62231 -2.65067,-1c-0.67883,-0.21262 -1.38522,-0.38724 -2.06403,-0.59998c-1.20462,-0.37753 -1.93039,-0.69165 -2.96799,-1.20001c-0.60242,-0.29514 -1.3959,-0.70831 -2.20001,-1.09982c-0.79602,-0.38757 -1.79657,-0.75485 -2.61066,-0.87485c-0.64423,-0.09494 -1.61841,-0.21948 -2.40399,-0.46133c-0.78433,-0.24149 -1.76987,-0.84775 -2.53351,-1.20682c-0.86368,-0.4061 -1.65106,-0.28601 -2.49918,-0.71436c-0.6929,-0.34998 -1.55527,-1.0856 -2.26865,-1.35748c-0.93869,-0.35773 -1.70279,-0.78586 -2.48401,-1.11868c-0.75153,-0.32019 -1.70001,-0.22382 -2.5,-0.66666c-0.79999,-0.44284 -1.78204,-0.81631 -2.55716,-0.44284c-0.78915,0.38025 -0.87823,1.50424 -1.5535,1.96817c-0.74118,0.50925 -1.54486,0.99393 -2.22534,1.37466c-0.7536,0.42166 -1.6142,0.71582 -2.29199,1.20001c-0.8396,0.59976 -1.28851,1.38449 -1.87201,1.89999c-0.63788,0.56357 -0.8808,1.33911 -1.52084,1.97916c-0.64005,0.64005 -1.46115,0.9563 -1.47916,1.82083c-0.01874,0.89984 0.09283,1.81592 -0.08533,2.58536c-0.22549,0.97385 -0.57074,1.65039 -0.91467,2.59381c-0.30521,0.83716 -1.09839,1.41193 -2,1.52084c-0.79871,0.0965 -1.46887,0.55463 -2.20132,1.19867c-0.53433,0.46982 -1.4613,0.7153 -2.20319,0.854c-1.00491,0.18787 -1.79935,0.55023 -2.79532,1.04733c-0.59183,0.29538 -1.35931,0.64154 -2.16418,1.29999c-0.67676,0.55362 -1.22974,1.17715 -2.13599,1.60001c-0.79022,0.36871 -1.23691,1.0369 -1.58401,1.79999c-0.38858,0.85428 -0.89798,1.59946 -0.91599,2.5c-0.01801,0.89984 0,1.80002 0,2.70001c0,0.75717 0.00955,1.65274 0,2.51599c-0.01044,0.94254 -0.81287,1.48251 -0.99551,0.72235c-0.20923,-0.87076 -0.00018,-1.65887 -0.28848,-2.63834c-0.24036,-0.81656 -0.63635,-1.79587 -0.69516,-2.60001c-0.07294,-0.99756 -0.02084,-1.81067 -0.02084,-2.45715c0,-1.22552 0,-2.022 0,-2.7735c0,-0.9595 -0.10547,-1.95035 0.0625,-2.79019c0.12,-0.60001 0.7706,-1.40198 1.45834,-1.95831c0.69296,-0.56055 1.48764,-1.16403 2.22733,-1.71634c0.71548,-0.53424 1.50345,-0.85934 2.23032,-1.62582c0.43665,-0.46045 0.73926,-1.25964 1.44284,-2.05334c0.49695,-0.56058 1.34668,-1.10934 2.07867,-1.62534c0.73199,-0.51599 1.54437,-1.09778 2.07867,-1.58932c0.74759,-0.68774 1.30563,-1.21222 2.07401,-1.71518c0.69373,-0.45407 1.47452,-1.17105 1.93665,-1.87015c0.52527,-0.79465 1.04761,-1.44974 1.73184,-2.14667c0.4942,-0.50336 1.17358,-1.15945 1.61749,-2.04269c0.40619,-0.8082 0.80185,-1.42731 1.08667,-2.27197c0.28329,-0.84012 0.73697,-1.68127 0.91751,-2.60684c0.16449,-0.8432 0.0318,-1.75757 0.05716,-2.55716c0.02859,-0.9014 0.52084,-1.67917 1.2955,-2.14734l0.67917,-0.478" id="svg_9" stroke-width="2" stroke="#000" fill="none"/>
  <path t="26670,26805,26821,26821,26841,26874,26874,26890,26890,26890,26905,26947,27013,27028,27038,27060,27080,27096,27096,27105,27122,27138,27156,27156,27171,27171,27188,27188,27188,27205,27205,27205,27221,27221,27238,27238,27238,27255,27255,27255,27255,27271,27271,27271,27288,27288,27305,27305,27321,27338,27338,27355,27355,27355,27371,27372,27388,27388,27405,27405,27405,27421,27421,27438,27455,27471,27488,27505,27522,27544,27544,27620,27652,27655,27672,27688,27688,27705,27705,27705,27721,27721,27721,27738,27738,27738,27755,27756,27771,27772,27772,27772,27788,27788,27788,27805,27805,27805,27821,27821,27838,27838,27855,27855,27855,27871,27871,27888,27905,27905,27920,27921,27921,27938,27938,27955,27971,27971,27988,28024,28048,28064,28092,28116,28261,28409,28417,28441,28458,28472,28489,28489,28506,28506,28506,28522,28522,28522,28522,28538,28539,28539,28539,28555,28555,28555,28572,28572,28572,28573,28589,28589,28589,28589,28589,28605,28606,28606,28606,28622,28622,28622,28622,28638,28639,28655,28655,28656,28656,28672,28672,28672,28688,28689,28689,28689,28706,28706,28706,28706,28721,28721,28721,28722,28738,28738,28755,28755,28755,28771,28771,28771,28771,28788,28788,28805,28805,28805,28805,28821,28821,28821,28821,28839,28839,28839,28839,28855,28855,28855,28903,28907,28921,28921,28938,28956,28956,28956,28971,28971,28972,28972,28988,28988,28988,28988,29006,29006,29006,29006,29022,29022,29022,29038,29038,29039,29056,29056,29056,29071,29072,29088,29088,29106,29106,29123,29124,29124,29124,29138,29138,29139,29156,29156,29156,29156,29173,29173,29173,29188,29188,29188,29205,29205,29205,29221,29221,29238,29238,29256,29256,29256,29271,29271,29288,29288,29305,29305,29305,29321,29321,29321,29321,29338,29338,29356,29356,29356,29371,29371,29371,29371,29388,29405,29405,29405,29421,29421,29438,29455,29471,29541,29557,29557,29575,29608,29608,29641,29642,29643,29643,29658,29658,29659,29659,29659,29672,29805,29817" d="m307,361c0.00134,0.20001 0.28708,1.05838 0.64734,1.70001c0.43738,0.77899 0.62479,1.79138 0.96332,2.51065c0.37482,0.79633 0.67188,1.65686 1.18933,2.21866c0.70837,0.7691 1.21469,1.40417 1.20001,2.18134c-0.01801,0.95386 -0.63589,1.44882 -1.08401,2.19067c-0.42606,0.70529 -1.21902,1.32278 -1.63065,1.99866c-0.51309,0.84247 -1.04193,1.35687 -1.28534,2.22086c-0.26654,0.94611 -0.60526,1.57376 -1.3045,2.28366c-0.57642,0.58524 -1.18082,1.18082 -1.71634,1.71634c-0.58047,0.58047 -1.39001,1.36761 -1.95831,1.97916c-0.54745,0.58911 -1.1257,1.4072 -1.64618,2.20001c-0.53009,0.80746 -1.02182,1.40936 -1.58533,2c-0.77579,0.81314 -1.38934,1.39999 -1.78934,1.79999c-0.60001,0.60001 -1.41086,1.38846 -1.97916,2c-0.54745,0.58911 -1.1337,1.39981 -1.61017,2.164c-0.50858,0.81567 -1.20844,1.48425 -1.38983,2.35684c-0.19638,0.94455 0.01675,1.70648 -0.24219,2.67917c-0.21793,0.8186 -0.57394,1.38525 -0.7215,2.39999c-0.11536,0.79337 -0.05716,1.80133 -0.05716,2.63599c0,0.93066 0,1.97867 0,2.75418c0,0.86682 -0.01804,1.80734 0,2.70984c0.01801,0.90054 0.61804,1.61035 0.91467,2.5c0.28589,0.85745 0.3483,1.58478 1.08533,1.96664c0.75397,0.39063 1.58865,1.21967 2.47916,0.8125c0.70923,-0.32428 0.479,-1.48047 0.52533,-2.29266c0.04254,-0.74567 0.27274,-1.74182 0.43152,-2.37317c0.25549,-1.01584 0.54059,-1.98892 0.86398,-2.79898c0.28,-0.70135 0.80002,-1.71436 1.10001,-2.31433c0.39999,-0.80002 0.78552,-1.60977 1.23599,-2.436c0.51285,-0.94061 0.84738,-1.44839 1.36401,-2.26401c0.34689,-0.54761 0.97336,-1.58157 1.37466,-2.26401c0.37308,-0.63443 1.10934,-1.63599 1.62534,-2.23599c0.51599,-0.60001 1.11276,-1.39984 1.58932,-2.164c0.50882,-0.81592 0.92627,-1.34116 1.73199,-2.15732c0.50079,-0.50726 1.026,-1.026 1.79333,-1.79333c0.58084,-0.58084 1.28534,-1.28534 1.88535,-1.88535c0.63599,-0.63599 1.32132,-1.32132 1.82535,-1.82535c0.52197,-0.52197 1.28931,-1.28931 1.87015,-1.87015c0.7045,-0.7045 1.32883,-1.50201 2.00452,-1.94733c0.71567,-0.47165 0.95624,-1.04742 1.32083,-1.83633c0.35632,-0.77103 0.54962,-1.4747 1.03632,-2.16367c0.51675,-0.73154 1.4845,0.10858 2.23834,0.59015c0.69989,0.44711 1.22513,1.0444 2.10449,1.05267c0.91348,0.00858 1.65939,-0.06906 2.65466,-0.28534c0.64505,-0.14017 1.34515,-0.31155 2.77869,-0.71466c0.6832,-0.19211 1.3237,-0.4165 2.26215,-0.64282c0.89859,-0.21671 1.80496,-0.29953 2.7045,-0.38251c0.60031,-0.05536 1.80099,-0.26013 2.72086,-0.47467c0.63608,-0.14835 1.64429,-0.34796 2.3645,-0.41599c1.13354,-0.10706 1.92242,-0.10651 3.11465,-0.25067c0.8027,-0.09708 1.59991,-0.25916 2,-0.33334c0.7998,-0.14832 1.99857,-0.349 2.79868,-0.41467c0.78952,-0.06479 1.94415,-0.08307 3.03467,-0.08533c0.67999,-0.0014 1.625,0 2.47998,0c1.00269,0 1.68668,-0.0033 2.85333,0c0.7905,0.00226 1.64648,0.01215 2.23468,0.08533c1.20572,0.14999 1.79327,0.36316 2.69867,0.56201c1.19382,0.26221 1.80737,0.28226 2.73599,0.414c0.65173,0.09244 1.69144,0.36536 2.41666,0.6485c0.75406,0.29437 1.48749,0.65857 2.58069,1.1235c0.99866,0.42471 1.62881,0.63577 2.47998,0.96533c1.00601,0.38953 1.6709,0.69107 2.68668,1.20132c0.60309,0.30295 1.25613,0.60947 2,1.33334c0.64377,0.62646 1.16409,1.43311 1.42932,1.98398c0.46695,0.96976 0.55261,1.91388 0.73734,2.84933c0.15817,0.80103 0.4278,1.67596 0.54935,2.32001c0.19427,1.02936 0.24326,1.76996 0.27332,2.92401c0.0206,0.79044 0.01068,1.98898 0.01068,2.78033c0,0.76733 0,1.49466 0,2.47565c0,1.05069 -0.91791,2.65253 0,2.77084c0.33374,0.04303 0.46744,-1.24661 0.716,-1.95349c0.2999,-0.85284 0.2677,-1.81769 0.29468,-2.75601c0.01581,-0.54968 0.1416,-1.73108 0.34198,-2.63251c0.13751,-0.61859 0.39859,-1.5759 0.52585,-2.61682c0.08911,-0.72873 0.10767,-1.47855 0.117,-2.22601c0.01791,-1.43106 0.00449,-2.09549 0.00449,-3.04199c0,-0.60934 0,-1.81067 0,-2.71066c0,-0.60001 0.01416,-1.80011 -0.01068,-2.68933c-0.01608,-0.57501 -0.08185,-1.66904 -0.42532,-2.564c-0.30212,-0.78726 -0.8197,-1.54544 -1.44934,-2.04535c-0.71783,-0.56995 -1.46094,-0.90289 -2.371,-1.50131c-0.60995,-0.40109 -1.50027,-0.82605 -2.44098,-1.08936c-0.69351,-0.19412 -1.41644,-0.36084 -2.48117,-0.48917c-0.98209,-0.11838 -1.61081,-0.11615 -2.8215,-0.12149c-0.89999,-0.00397 -1.5,0.00052 -2.39999,0c-1.19867,-0.00067 -1.79285,0.03311 -2.64285,-0.05716c-1.04291,-0.11075 -1.94632,-0.48068 -2.64114,-0.65884c-0.98761,-0.25323 -1.81583,-0.27234 -2.63202,-0.28265c-0.99857,-0.0126 -1.87332,-0.00134 -2.884,-0.00134c-0.79999,0 -1.79999,0 -2.59998,0c-0.80002,0 -1.80002,0 -2.60001,0c-1.00134,0 -1.836,0 -2.76666,0c-0.7905,0 -1.64401,0 -2.83334,0c-0.59866,0 -1.47916,0 -2.31467,0c-1.00134,0 -1.91068,0.00269 -2.85199,0c-0.7905,-0.00226 -1.6506,0.01416 -2.83334,-0.16666c-0.60175,-0.09198 -1.45377,-0.35037 -2.22934,-0.54935c-1.10333,-0.28305 -1.93658,-0.45258 -2.60666,-0.70932c-0.76447,-0.29291 -1.75824,-0.54477 -2.67868,-0.57333c-0.96402,-0.02991 -1.88531,-0.00134 -2.78531,-0.00134c-0.90002,0 -1.83786,0.15717 -2.5,-0.08533c-0.89871,-0.32913 -1.40274,-1.11728 -2.01434,-1.729c-0.72861,-0.72876 -1.20453,-1.19614 -1.70651,-1.74817c-0.54086,-0.59482 -1.33151,-1.5918 -1.79117,-2.31885c-0.44955,-0.71106 -0.80533,-1.42133 -1.116,-2.064l-0.46216,-1.17865l-0.39249,-0.79199l-0.17569,-0.58401" id="svg_10" stroke-width="2" stroke="#000" fill="none"/>
  <path t="31506,31649,31805,31813,31841,31874,31874,31874,31892,31892,31892,31892,31892,31892,31922,31922,31922,31939,31939,31939,32085,32093,32124,32124,32158,32158,32159,32191,32191,32191,32191,32224,32224,32224,32241,32241,32241,32273,32306,32306,32325,32326,32352,32377,32384,32405,32413,32421,32441,32454,32473,32489,32505,32521,32521,32538,32538,32554,32571,32588,32604,32621,32638,32654,32654,32671,32688,32705,32705,32721,32738,32738,32754,32771,32788,32804,32821,32821,32838,32838,32854,32873,32888,32888,32904,32925,32938,32939,33045,33065,33073,33088" d="m320,156c-1.08401,1.71466 -1.45834,2 -0.60001,2c0.90451,0 1.76706,0.01561 2.48935,-0.01067c0.80182,-0.02917 1.94476,-0.14993 2.92932,-0.27467c0.54059,-0.0685 1.66104,-0.23221 2.21866,-0.32533c0.54272,-0.09064 1.98529,-0.32437 2.92868,-0.68933c0.66089,-0.25568 1.56833,-0.82111 2.28467,-1.08932c0.73608,-0.27562 1.78479,-0.47224 2.74933,-0.61067c0.84122,-0.12073 1.21576,-0.92847 1.85599,-1.48534c0.66888,-0.5818 1.25613,-0.92123 2.14401,-1.51466c0.8941,-0.5976 1.4751,-0.98555 2.04285,-1.34283c1.02859,-0.64729 1.72232,-1.04132 2.40982,-1.35266c0.95596,-0.43292 1.78406,-0.63484 2.48035,-1.0045c0.95868,-0.50896 1.47714,-1.45508 2.08783,-1.77917c0.9165,-0.4864 1.77783,-0.52016 2.67917,-0.52083c0.89999,-0.00066 2.00391,-0.11508 2.28931,0.61067c0.31805,0.80878 0.81058,1.3812 1.0062,2.09383c0.23727,0.86444 0.62262,1.60582 0.91916,2.4955c0.28589,0.85765 0.08533,1.8 0.08533,2.55717c0,0.89549 0,1.75883 0,2.722c0,0.92082 0.07089,1.86928 -0.42532,2.4955c-0.52698,0.66505 -1.22226,0.98421 -2.22736,1.02983c-0.69592,0.0316 -1.63336,0.58328 -2.44733,0.87399c-0.85526,0.30547 -1.69998,0.12151 -2.53598,0.12151c-1.01669,0 -1.71133,0 -2.72803,0c-0.93597,0 -1.836,0 -2.73599,0c-0.89999,0 -1.65717,0 -2.55267,0c-0.86331,0 -1.86319,0.05846 -2.64731,-0.35266c-0.84796,-0.4446 -1.55518,-0.65584 -2.30002,-1.25801c-0.65329,-0.52814 -1.01361,-1.51044 -1.48401,-2.10399c-0.58533,-0.73859 -0.91583,-1.38518 -0.63199,-2.20134l0.66333,-0.43666" id="svg_11" stroke-width="2" stroke="#000" fill="none"/>
 </g>
 <g display="none">
  <title>muse_image</title>
  <image xlink:href="http://farm3.static.flickr.com/2389/1560677829_61deeb70f5.jpg" id="muse" height="480" width="613" y="0" x="13.5"/>
 </g>
 <g display="none">
  <title>bbox</title>
  <rect stroke="#f00" fill="none" stroke-width="3" height="342.50639" width="459.75" y="96.9821" x="66.218" id="bbox"/>
 </g>
</svg>
