<svg width="640" height="480" xmlns="http://www.w3.org/2000/svg" xmlns:svg="http://www.w3.org/2000/svg" xmlns:xlink="http://www.w3.org/1999/xlink">
 <!-- Sketchy ANNOTATION
  ImageNet ID: n01534433_5527
  URL: http://farm3.static.flickr.com/2372/2254870714_ef71af3474.jpg
  Image Width: 500
  Image Height: 428
  BBox X: 41
  BBox Y: 138
  BBox Width: 354
  BBox Height: 231
  Exposure: 2000ms
  Synset Label: songbird
  Synset ID: n01526521
  Worker Tag: SONGBIRD ON THE TREE
  Sanity Check: 
   Saved
  Comment: 
   {}
  Worker ID: A1E9VI5RSZI31F
  Assignment ID: 3LPW2N6LKT2KNES5N9NVV0WK6CJ5UY
  HIT ID: 38O9DZ0A62N5ZMLNJ6ISS3K7F8T62L
  Work Time: 184s
  Worker Score: 0.7857
 END ANNOTATION -->
 <g display="inline">
  <title>Layer 1</title>
  <path t="0,172,188,188,208,232,248,248,248,265,265,265,282,282,306,306,306,306,325,325,325,325,325,333,333,333,333,350,350,350,366,366,366,383,383,383,398,398,415,415,432,432,448,448,448,465,465,465,482,482,498,498,498,515,515,532,532,533,548,549,565,565,582,582,582,598,598,615,615,632,632,648,665,665,682,698,698,715,715,715,732,732,748,765,782,782,782,798,815,815,832,832,848,865,865,882,908,932,932,1220,1252,1260,1284,1309,1325,1345,1360,1394,1404,1417,1444,1492,1493,1766,1766,1832,1832,1876,1908,1916,1916,1934,1956,2004,2020,2036,2076,2076,2092,2108,2131,2155,2195,2248,2292,2293,2348,2348,2397,2421,2421,2444,2469,2469,2485,2508,2532,2540,2580,2580,2596,2620,2620,2644,2668,2692,2716,2748,2772,2772,2796,2828,2828,2844,2868,2900,2948,2948,2963,2980,3004,3028,3028,3044,3052,3077,3100,3100,3108,3135,3135,3150,3150,3165,3165,3182,3198,3215,3215,3215,3232,3248,3265,3282,3282,3298,3316,3316,3332,3356,3388,3388,3412,3452,3514,3514,3514,3529,3580,3612,3665,3665,3681,3748,3814,3814,3830" d="m194,267c-1.02083,-0.5 -2.00513,-0.50464 -2.71333,-1.08401c-0.62494,-0.51126 -0.82565,-1.43945 -1.45334,-2.08264c-0.65587,-0.67209 -1.22105,-1.20743 -1.81183,-2.03336c-0.41489,-0.58005 -0.81169,-1.4043 -1.326,-2.40448c-0.32616,-0.63428 -0.84988,-1.56998 -1.1835,-2.08084c-0.55441,-0.84897 -0.99716,-1.45099 -1.84532,-2.31467c-0.61131,-0.6225 -0.96703,-0.90146 -1.66667,-1.47917c-0.68982,-0.5696 -1.67432,-1.34535 -2.22934,-1.83549c-0.73936,-0.65294 -1.16631,-1.07619 -1.97049,-1.88533c-0.59294,-0.5966 -1.17889,-1.17274 -1.77884,-2c-0.42206,-0.58197 -0.87897,-1.42049 -1.50533,-2.2c-0.4957,-0.6169 -1.06776,-1.17442 -1.63068,-1.99867c-0.5079,-0.7437 -0.95871,-1.60263 -1.48534,-2.19067c-0.67186,-0.75023 -1.17265,-1.21338 -1.88533,-2.17999c-0.35855,-0.4863 -0.8985,-1.29869 -1.51466,-2.064c-0.57658,-0.71616 -1.09323,-1.38617 -1.97867,-1.92401c-0.60689,-0.36864 -1.52637,-0.79126 -2.02133,-1.28433c-0.53999,-0.53793 -1.21384,-1.57759 -1.62534,-2.12233c-0.64592,-0.85506 -1.40756,-1.31834 -1.976,-1.72c-0.81407,-0.57524 -1.46782,-1.03326 -2.06534,-1.94933c-0.48087,-0.73721 -0.75584,-1.50586 -1.35416,-2.16667c-0.48062,-0.53084 -1.2265,-1.24733 -1.86317,-1.884c-0.59999,-0.59999 -1.29608,-1.28528 -1.94933,-1.94933c-0.63028,-0.6407 -0.9304,-1.43373 -1.38817,-2.26668c-0.37097,-0.67502 -1.1785,-1.29999 -1.7785,-1.89999c-0.636,-0.636 -1.32133,-1.32133 -1.82533,-1.82533c-0.522,-0.522 -1.41579,-1.1956 -1.888,-1.97333c-0.4463,-0.73505 -0.75928,-1.58603 -1.28667,-2.36801c-0.43088,-0.63889 -0.74196,-1.39354 -1.39999,-2.19733c-0.55388,-0.67656 -1.20001,-1.23601 -1.90001,-1.936c-0.5,-0.5 -1.22644,-1.17456 -1.89867,-1.89999c-0.53789,-0.58046 -1.04341,-1.23575 -1.63466,-1.96667c-0.56447,-0.6978 -0.71104,-1.58879 -1.66667,-1.8125c-0.87654,-0.2052 -1.8159,-0.18784 -2.69867,-0.0195c-0.75737,0.14442 -1.21785,0.98315 -1.80133,1.49867c-0.63788,0.56357 -0.8808,1.33914 -1.52083,1.97917c-0.64003,0.64003 -1.35344,1.00839 -1.83633,1.82533c-0.37207,0.62946 -0.9965,1.32201 -1.28567,2.04283c-0.39198,0.97713 0.18054,1.48901 1.04282,1.66333c0.94371,0.19078 1.59216,0.86662 2.40001,0.98801c0.90855,0.13651 1.11575,0.95203 1.81067,1.56532c0.66711,0.58876 1.75197,0.60414 2.22266,1.436c0.41286,0.72964 0.60071,1.67412 1.46667,1.94284c0.86011,0.26691 1.526,0.54221 2.22083,1.05716c0.68863,0.51036 1.47917,1 2.07918,1.60001c0.59999,0.59999 1.2,1.2 1.89999,1.89999c0.60001,0.60001 1.13823,1.27 1.8045,1.7955c0.79787,0.62929 1.79199,0.47208 2.52617,0.98849c0.6904,0.48563 0.99815,1.16817 1.17999,2.116c0.15936,0.83069 0.79037,1.4003 1.48933,2.10001c0.59959,0.60025 0.93776,1.32404 1.52533,2.064c0.53761,0.67705 0.98442,1.2916 1.58534,2.03601c0.52768,0.65367 1.00291,1.52112 1.47333,2.11465c0.58545,0.73866 0.95145,1.42334 1.6205,1.92818c0.75096,0.56664 1.5377,0.79604 2.12883,1.52383c0.56586,0.69669 0.73209,1.48131 1.46667,2.12883c0.6622,0.58372 1.44519,0.91209 1.86667,1.7045c0.34073,0.64059 0.53262,1.55569 0.84399,2.38933c0.28406,0.76051 1.1474,1.20987 1.58934,1.76001c0.63843,0.79475 1.20219,1.4577 1.50983,2.2025c0.33997,0.82309 1.13379,1.157 2.00349,1.84816c0.5676,0.45108 0.84387,1.43829 1.32268,2.21066c0.49696,0.80167 1.00462,1.39276 1.27866,2.10535c0.35339,0.91898 0.96085,1.40347 1.68533,1.92c0.78561,0.56012 1.14909,1.2193 1.90001,1.8595c0.7533,0.64221 1.63062,0.31088 2.41466,0.78983c0.80338,0.49075 1.50371,1.0293 1.92818,1.61917c0.56876,0.79041 0.66231,1.66635 1.52383,2.2955c0.62233,0.45447 1.34332,0.80872 2.19733,1.38934c0.73077,0.49686 1.3849,0.89459 1.8575,1.71066c0.38602,0.66656 1.1785,1.28934 1.87851,1.77866l0.89999,0.28799l0.564,0.444l0.436,0.8685" id="svg_1" stroke-width="2" stroke="#000" fill="none"/>
  <path t="13200,13343,13388,13388,13396,13396,13416,13436,13436,13453,13466,13481,13498,13498,13515,13531,13548,13565,13565,13565,13581,13581,13604,13604,13620,13631,13631,13652,13652,13667,13691,13692,13715,13716,13731,13731,13732,13747,13763,13764,13771,13787,13811,13812,13812,13820,13820,13836,13848,13864,13864,13881,13881,13898,13914,13914,13914,13931,13931,13931,13948,13964,13964,13964,13981,13981,14003,14003,14018,14036,14036,14055,14055,14067,14067,14081,14098,14098,14098,14114,14114,14131,14131,14131,14148,14148,14164,14164,14164,14181,14181,14181,14198,14198,14215,14231,14231,14248,14248,14264,14264,14281,14281,14298,14298,14298,14314,14314,14331,14331,14348,14364,14364,14364,14381,14403,14404,14414,14431,14431,14448,14469,14484,14484,14498,14514,14531" d="m190,261c1.82533,0 2.83333,0 3.62534,0c1.02733,0 1.73558,0.15527 2.73866,-0.01068c0.86816,-0.14365 1.52426,-0.71457 2.11517,-1.48932c0.55977,-0.73392 1.01695,-1.3555 1.72083,-1.78534c0.67538,-0.41245 1.2153,-1.38864 2.10001,-1.6575c0.8642,-0.26265 1.87546,-0.20296 2.536,-0.49316c0.77643,-0.34113 1.5769,-0.73785 2.328,-1.164c0.83125,-0.47163 1.37688,-1.05324 2.136,-1.6955c0.75589,-0.63953 1.48949,-0.67532 2.34816,-1.06166c0.82054,-0.36919 1.23181,-1.26122 1.9225,-1.84151c0.57133,-0.48001 1.63998,-0.62959 2.42934,-0.82216c1.01784,-0.24831 1.57762,-0.70792 2.34283,-1.27383c0.75491,-0.5583 1.65756,-0.67998 2.45717,-0.70534c0.90135,-0.02859 1.58563,-0.49832 2.53333,-1c0.65042,-0.34431 1.44463,-0.53989 2.33334,-1c0.82178,-0.42546 1.63776,-0.89839 2.43333,-1.00017c0.90787,-0.11613 1.49599,-0.69969 2.38399,-0.91451c0.8428,-0.20387 1.90134,-0.08533 2.84933,-0.08533c0.6765,0 1.45201,0 2.5,0c0.92,0 1.68558,0.08699 2.6875,-0.02083c1.03551,-0.11143 1.73499,-0.42519 2.53101,-0.62651c1.02013,-0.258 1.7424,-0.16783 2.78149,-0.51933c0.68846,-0.23289 1.46997,-0.80473 2.48801,-0.83333c0.67839,-0.01906 1.65733,0 2.56267,0c0.94133,0 1.632,0 2.63683,0c1.022,0 1.74051,0 2.53101,0c1.02667,0 1.92734,0 2.94817,0c0.79999,0 1.60001,0 2.60449,0c0.6315,0 1.81683,0 2.62085,0c0.82199,0 1.85315,0 2.53867,0c0.83466,0 1.83148,0 2.75067,0c0.85999,0 1.80664,0 2.65997,0c0.94135,0 1.70935,0 2.66135,0c0.76532,0 1.76849,-0.00008 2.62115,0c0.96402,0.00009 1.76343,-0.04915 2.53302,0.05716c1.05493,0.14572 1.73654,0.66492 2.66251,0.89017c0.8493,0.2066 1.69873,0.52283 2.51398,1.05267c0.64157,0.41696 1.32465,0.83508 2.33334,0.97917c0.97433,0.13918 1.68311,-0.10889 2.74283,0.02533c0.87717,0.1111 1.57455,0.66982 2.35718,1.02083c0.8205,0.368 1.5,1.07451 2.10001,1.61751l0.79999,0.33633l0.88934,0.03149l0.63599,0.564" id="svg_2" stroke-width="2" stroke="#000" fill="none"/>
  <path t="15607,15836,15852,15876,15901,15917,15917,15948,15948,15980,16004,16004,16012,16012,16033,16033,16050,16076,16092,16092,16121,16121,16148,16148,16164,16180,16180,16212,16212,16235,16236,16252,16283,16284,16308,16308,16316,16356,16380,16380,16396,16420,16420,16428,16428,16450,16466,16466,16481,16481,16499,16500,16514,16514,16531,16548,16565,16565,16581,16581,16581,16599,16615,16615,16632,16649,16665,16665,16681,16682,16698,16699,16714,16732,16732,16748,16749,16765,16765,16782,16782,16798,16799,16814,16814,16831,16848,16868,16868,16868,16892,16892,16908,16924,16940,16940,16964,16972,16995,16996,17004,17004,17019,17036,17048,17048,17067,17085,17103,17115,17115,17137,17137,17149,17166,17167,17188,17188,17212,17252,17252,17252,17292,17316,17324,17356,17445" d="m185,268c1.7,-0.99551 2.6192,-1.16519 3.5,-0.97916c0.8474,0.17899 1.60976,0.82419 2.38533,1.06317c0.7784,0.23984 1.61502,0.7413 2.362,1.21149c0.90141,0.56738 1.57951,0.63867 2.586,0.7045c0.75781,0.04956 1.38782,0.7674 1.86667,1.29468c0.69881,0.7695 1.71086,0.68628 2.62134,0.70547c0.8539,0.01801 1.62114,0.29486 2.43134,0.64719c0.86868,0.37775 1.76334,0.35193 2.62199,0.35266c0.94667,0.00082 1.84027,-0.08438 2.74133,0.284c0.67854,0.2774 1.53554,0.68069 2.40001,0.71466c0.85808,0.03372 1.80251,0.22968 2.48399,0.50134c0.97473,0.38855 1.75578,0.42938 2.64816,0.50449c1.02771,0.08649 1.50453,0.91046 2.23851,0.99417c0.93262,0.10635 1.94666,0.00134 2.73866,0.00134c0.85866,0 1.722,0 2.74933,0c0.94667,0 1.62534,0 2.60417,0c0.83099,0 1.78917,0 2.52116,0c1.16667,0 1.95833,0 2.8,0c0.90134,0 1.86667,0 2.72083,0c0.97917,0 1.76851,0 2.49384,0c0.98534,0 1.96933,0 2.66,0c1.06816,0 1.92534,0 2.82533,0c0.75717,0 1.65717,0.00214 2.60133,0c0.99417,-0.00226 1.78503,0.05206 2.64149,-0.35266c0.81088,-0.38318 1.51433,-0.64508 2.41434,-0.64734c0.94417,-0.00235 1.94946,0.05832 2.74283,-0.05716c1.01343,-0.14752 1.55499,-0.51419 2.57867,-0.8215c0.75983,-0.22809 1.66025,-0.50882 2.36865,-0.76868c0.99973,-0.3667 1.87704,-0.25235 2.81934,-0.51932c0.69418,-0.19669 1.42975,-0.64468 2.42883,-1.12885c0.5658,-0.2742 1.51639,-0.6618 2.50452,-0.7045c0.89914,-0.03885 1.69437,-0.09494 2.39999,-0.5c0.79831,-0.45828 1.66666,-0.66666 2.5,-1c0.83334,-0.33334 1.72369,-0.30832 2.60001,-0.53601c0.86566,-0.22491 1.4173,-1.17233 2.10001,-1.60681c0.73212,-0.46594 1.69998,-0.35587 2.59998,-0.35718c0.90134,-0.00134 1.6116,-0.13483 2.35269,-0.70532c0.72183,-0.55569 1.45703,-1.15543 2.44748,-1.29483c0.78207,-0.11008 1.53635,-0.39368 2.41583,-0.71585c0.845,-0.30954 1.65952,-0.60626 2.30936,-1.13467c0.70041,-0.56955 1.53867,-1.07733 2.37332,-1.15067l0.74866,-0.35132l0.57352,-0.6265l0.87915,-0.02084" id="svg_3" stroke-width="2" stroke="#000" fill="none"/>
  <path t="20610,20837,20881,20896,20941,20965,20981,20981,21013,21061,21101,21101,21125,21125,21157,21181,21181,21196,21204,21230,21244,21244,21260,21300,21316,21333,21372,21404,21404,21404,21444,21494,21494,21548,21548,21563,21604,21680,21695" d="m177,248c1.8,0 2.61961,-0.00195 3.39999,0.42534c0.82257,0.45038 1.75429,0.39139 2.60001,0.74133c0.78462,0.32466 1.49982,0.82291 2.41066,0.83333c0.91061,0.01041 1.76401,0 2.70534,0c0.76801,0 1.70934,0 2.71733,0c0.75601,0 1.70142,-0.0529 2.46667,0.35266c0.84589,0.4483 1.7,0.64734 2.5,0.64734c0.89999,0 1.8,0 2.7,0c0.89999,0 1.864,-0.11861 2.66667,0.33333c0.72981,0.4109 1.07013,1.18073 2.08066,1.55234c0.86949,0.31975 1.75267,0.11433 2.586,0.11433c0.86217,0 1.76668,0 2.66667,0l0.89999,0l0.90451,0" id="svg_4" stroke-width="2" stroke="#000" fill="none"/>
  <path t="25025,25161,25161,25176,25196,25196,25214,25231,25231,25231,25247,25269,25347,25347,25445,25445,25653,25653,25792,25844,25868,25868,25892,25923,25932,25947,25964,25981,26012,26012,26052,26052,26076,26092,26108,26132,26155,26164,26204,26204,26212,26228,26268,26276,26284,26315,26315,26324,26340,26388,26437" d="m183,269c-1,0 -1.8,-0.00241 -2.75717,0c-0.89551,0.00226 -1.64935,-0.0755 -2.61749,0.436c-0.8597,0.45419 -1.42525,1.01395 -2.14134,1.27866c-0.93686,0.34634 -1.91472,0.2229 -2.80533,0.50668c-0.69902,0.22275 -1.65105,0.71161 -2.43134,0.77417c-0.89716,0.07193 -1.88768,-0.12143 -2.60066,0.44049c-0.74399,0.58633 -0.61591,1.70828 0.05783,2.20682c0.69427,0.51373 1.7379,0.08932 2.591,0.36166c0.82051,0.26193 1.33524,0.8259 2.2045,1.01636c0.85178,0.18665 1.35704,0.82745 2.15266,1.27466c0.83661,0.47025 1.71083,0.68579 2.64734,0.7045c0.89848,0.01794 1.51045,0.49054 2.136,0.97467c0.7458,0.57718 1.65637,0.96317 2.364,1.02399c0.89668,0.07706 1.81961,-0.00061 2.59999,0.42667c0.82257,0.45038 1.75349,0.39331 2.60001,0.74133c0.6711,0.27591 1.47917,0.83334 2.02533,1.40802l0.67917,0.42084l0.89551,0.0405" id="svg_5" stroke-width="2" stroke="#000" fill="none"/>
  <path t="29726,29828,29828,29844,29867,29899,29907,29923,29939,29955,29979,29979,30003,30012,30019,30043,30059,30067,30067,30099,30099,30107" d="m185,281c1,0 1.8,0 2.7,0c0.90001,0 1.85509,-0.29761 2.68933,0.01068c0.7464,0.27582 0.84084,1.50027 1.71068,1.86783c0.83653,0.35349 1.70018,0.10349 2.59999,0.12149c0.90054,0.01801 1.61032,0.61813 2.5,0.91467c0.85765,0.28589 1.8,0.08533 2.60001,0.25598l0.59999,0.68002l0.40001,0.58133l0.8,0.54666" id="svg_6" stroke-width="2" stroke="#000" fill="none"/>
  <path t="30698,30888,30903,30932,30963,30964,30996,30996,31004,31004,31020,31032,31052,31066,31066,31082,31097,31114,31132,31156,31156,31172,31197,31220,31259,31260,31300,31300,31324,31324,31324,31348,31348,31364,31382,31399,31416,31416,31430,31447,31464,31480,31497,31515,31548,31548,31588,31604,31604,31620,31694,31732,31740,31813,31813,31895,31895,32025,32068,32068" d="m187,281c1.084,1.71466 1.72806,2.3349 2.28534,2.91733c0.67023,0.70044 1.17186,1.13147 1.71466,1.91602c0.46469,0.67166 1.12363,1.47049 1.8,1.88132c0.77614,0.47141 1.21237,1.13693 1.72083,1.78534c0.60126,0.76675 1.31357,1.13437 2.17917,1.55267c0.81845,0.39551 1.06602,1.40131 1.65717,1.89465c0.69719,0.58185 1.5311,0.77792 2.12201,1.55267c0.55977,0.73392 1.0537,1.36963 1.62083,1.94284c0.62958,0.63632 0.97287,1.55945 1.536,2.1825c0.65497,0.72464 1.15578,1.24786 1.76849,1.66483c0.93456,0.63599 1.76936,0.65173 2.57468,1.20984c0.67516,0.4679 1.44659,0.90985 2.12067,1.60001c0.56543,0.57892 0.76772,1.60477 1.51083,1.88931c0.83104,0.31824 1.78238,0.30069 2.26799,1.1105c0.43764,0.7298 1.16997,1.2052 1.82133,1.54752c0.88213,0.46356 1.83282,0.12415 2.59016,0.40982c0.85307,0.32178 1.03841,1.54086 1.90984,1.85751c0.8497,0.30875 1.76433,0.31384 2.436,0.66c0.8121,0.41852 1.71133,0.42084 2.61133,0.42532l0.91934,0l0.8125,0.02084" id="svg_7" stroke-width="2" stroke="#000" fill="none"/>
  <path t="37560,37677,37693,37693,37713,37713,37732,37749,37749,37766,37766,37766,37766,37780,37780,37780,37797,37797,37797,37797,37814,37814,37814,37830,37830,37847,37847,37847,37847,37864,37864,37880,37880,37897,37897,37897,37914,37914,37935,37935,37935,37947,37964,37964,37985,37986,37986,37997,37997,37997,38014,38014,38014,38030,38030,38047,38047,38047,38065,38065,38080,38080,38080,38097,38097,38097,38114,38114,38130,38147,38147,38164,38180,38180,38197,38197,38197,38215,38235,38247,38247,38266,38266,38282,38282,38297,38297,38314,38314,38330,38348,38348,38364,38364,38364,38404,38404,38412,38427,38428,38443,38452,38464,38464" d="m211,248c1.02083,-0.97917 1.97867,-1 2.75267,-1c0.89999,0 1.76334,0 2.74733,0c0.98801,0 1.78267,0 2.83333,0c0.63467,0 1.66667,0 2.36134,0c0.972,0 1.80287,0.0356 2.81067,-0.05716c0.83168,-0.07654 1.79999,-0.2955 2.49466,-0.44284c0.69467,-0.14734 1.95447,-0.40576 2.728,-0.464c0.86757,-0.06532 1.881,-0.036 2.54401,-0.036c1.06133,0 2.02882,0 2.70717,0c0.65833,0 1.96616,0 2.7645,0c0.918,0 1.718,0 2.67767,0c0.80399,0 1.62599,0 2.65717,0c0.90067,0 1.92149,0 2.71083,0c0.72533,0 1.71066,0 2.69733,0c0.76001,0 1.68001,0 2.466,0c0.82201,0 1.88066,0 2.82201,0c0.67799,0 1.64667,0 2.45067,0c0.82199,0 2.08932,0 2.75381,0c1.02084,0 1.82083,0 2.62085,0c1.00449,0 1.85715,0 2.8215,0c0.81448,0 1.68298,0 2.57849,0c0.89099,0 1.728,0 2.85699,0c0.83401,0 1.66385,0 2.62701,0c0.69064,0 1.76334,0 2.68265,0c0.85419,0 1.83334,0 2.62268,0c0.72534,0 1.81528,0.00352 2.51517,0.35266c0.8833,0.44061 1.69638,0.60104 2.67416,0.64751c0.77521,0.03683 1.69373,0.32011 2.36865,0.70433c0.79416,0.45209 1.51599,1.0975 2.30536,1.23834c0.85165,0.15196 1.86322,0.02148 2.66882,0.27849c0.91153,0.2908 1.6759,0.62766 2.47849,0.75334c0.79773,0.12492 1.78625,0.40257 2.54285,0.67267c1.00995,0.36053 1.80518,0.72006 2.45715,1.06866c0.84741,0.45309 1.70001,0.784 2.509,1.23582l0.66168,0.2175" id="svg_8" stroke-width="20" stroke="#fff" fill="none"/>
  <path t="40557,40747,40796,40796,40861,40861,40924,40924,40924,40957,40957,40981,41030,41030,41077,41085,41124,41124,41180,41180,41236,41252,41252,41292,41292,41332,41392,41420,41420,41460,41492,41492,41516,41564,41588,41604,41604,41652,41652,41676,41700,41732,41764,41796,41820,41820,41844,41868,41892,41892,41916,41932,41940,41972,41988,41988,41997,42013,42030,42047,42063,42084,42109,42110,42140,42140,42164,42164,42212,42236,42236,42276,42276,42284,42285,42300,42324,42340,42340,42364,42380,42413,42428,42446,42476,42492,42516,42516,42548,42596,42596,42597,42643,42667,42683,42684,42740,42749,42765,42788,42828,42844,42844,42876,42876,42900,42900,42924,42940,42972,42996,43004,43028,43028,43035,43067,43075,43083,43123,43123,43148,43148,43179,43179,43187,43197,43213,43244,43291,43291,43300,43300,43300,43315,43330,43347,43379,43411,43411,43427,43427,43435,43452,43469,43508,43508,43516,43547,43555,43563,43587,43603,43619,43660,43660,43676,43676,43691,43715,43747,43763,43763,43787,43819,43819,43835,43851,43876,43907,43907,43940,43940,43964,43996,44012,44012,44020,44051,44067,44099,44115,44131,44163,44164,44188,44203,44227,44244,44259,44291,44307,44315,44315,44339,44347,44363,44395,44395,44435,44452,44452,44483,44494,44514,44514,44555,44571,44595,44643,44643,44652,44682,44740,44749,44796,44828,44829,44860,44902,44932,44949,44982,45027,45051,45067,45080,45097,45113,45113,45130,45147,45163,45163,45180,45206,45222,45281,45281,45318,45350,45350,45366,45390,45390,45398,45421,45469,45493,45525,45525,45581,45629,45637,45709,45742,45765,45829,45869,45869,45894,45964,45964,45980,46005,46045" d="m201,256c1.2215,-0.87849 2.14905,-0.84917 2.88533,-1.17067c0.86284,-0.37675 1.2953,-1.05307 2.11467,-1.66266c0.76311,-0.56773 1.3418,-0.86374 2.24733,-1.46217c0.63594,-0.42027 1.61603,-0.53639 2.586,-0.87117c0.68703,-0.23712 1.47522,-0.69781 2.36667,-0.83466c0.91579,-0.14058 1.45622,-0.79762 2.40001,-0.98801c0.88277,-0.17809 1.71382,-0.35309 2.39999,-1.01067c0.51053,-0.48926 1.12411,-1.30304 1.8,-1.71466c0.84247,-0.51308 1.41615,-1.0148 2.2,-1.45201c0.65187,-0.3636 1.18822,-1.32645 2.10001,-1.71182c0.65421,-0.2765 1.59947,-0.17961 2.39999,-0.62151c0.80399,-0.4438 1.67178,-0.4263 2.5,-0.52083c0.99226,-0.11325 1.43062,-0.81184 2.02533,-1.54317c0.45651,-0.56137 1.49039,-0.2789 2.37466,-0.44667c0.94592,-0.17946 1.59045,-0.87859 2.40001,-0.98801c0.89377,-0.1208 1.68028,-0.54312 2.39999,-1.2c0.5845,-0.53348 1.40001,-0.79066 2.3,-0.80133c0.89999,-0.01067 1.71881,-0.50049 2.5,-0.83333c0.75154,-0.32021 1.80124,0.20476 2.564,-0.20267c0.73041,-0.39015 0.86983,-1.63884 1.73601,-1.90685c0.86279,-0.26695 1.86667,-0.05716 2.52533,-0.05716c1.008,0 1.80081,0.03661 2.82733,-0.0045c0.69611,-0.02788 1.66959,-0.5448 2.51401,-0.82883c0.80185,-0.26971 1.66667,-0.16437 2.58598,-0.16667c0.90002,-0.00226 1.63754,0.04466 2.61136,-0.42534c0.77838,-0.37569 1.63599,-0.57466 2.43597,-0.57466c0.90002,0 1.80002,0 2.70001,0c0.89999,0 1.79999,0 2.70001,0c0.89999,0 1.80035,0.02385 2.59998,0c0.95847,-0.02859 1.84113,-0.38155 2.54733,-0.64734c0.88257,-0.33217 1.85269,-0.35266 2.75269,-0.35266c0.89999,0 1.69998,0 2.60001,0c0.89999,0 1.81299,0.14209 2.69998,-0.01067c0.83316,-0.14348 1.60522,-0.80539 2.35718,-1.04201c0.90225,-0.28391 1.60898,-0.62373 2.35748,-1.146c0.70267,-0.4903 1.61221,-0.61536 2.48535,-0.83733c0.86227,-0.21921 1.59698,-0.9213 2.5,-0.964c0.89899,-0.04253 1.72385,0.16132 2.5,-0.036c0.86227,-0.21921 1.60464,-0.83907 2.5,-0.96417c0.90646,-0.12665 1.50232,-0.66229 2.384,-1.1985c0.66754,-0.40599 1.62885,-0.75298 2.39999,-0.8c0.92902,-0.05666 1.67352,-0.26846 2.33734,-0.87999c0.64227,-0.59167 1.23056,-1.20934 1.7995,-1.64217c0.82605,-0.62843 1.24084,-1.38066 1.77783,-1.90984c0.69147,-0.6814 1.60641,-0.66705 2.254,-1.21667c0.64539,-0.54776 1.4437,-0.90825 1.94733,-1.37349c0.85495,-0.78975 1.25171,-1.55516 2.20001,-1.89384c0.8512,-0.304 1.54889,-0.36926 2.02148,-1.18533c0.38602,-0.66653 1.08295,-1.46803 1.87851,-1.77849c0.84604,-0.33014 1.5799,-0.40532 2.18399,-1.03751c0.55035,-0.57596 0.87909,-1.45569 1.716,-1.91733c0.69025,-0.38075 1.64194,-0.5461 2.34732,-0.81401c0.87891,-0.33382 1.4624,-0.87904 1.93802,-1.55133c0.552,-0.78026 1.56488,-0.8136 2.21466,-1.32216c0.76807,-0.60115 1.24536,-1.3405 1.89999,-1.8685c0.74496,-0.60086 1.70065,-0.57677 2.60001,-0.61067c0.75879,-0.02859 1.64017,-0.38411 2.34732,-0.64734c1.00098,-0.3726 1.7645,-0.795 2.65268,-1.18599c0.65765,-0.28951 1.60001,-0.16667 2.5,-0.16667c0.89999,0 1.79999,0 2.70001,0c0.89999,0 1.79999,0 2.59998,0c0.90002,0 1.80002,0 2.70001,0c0.89999,0 1.79999,0 2.70001,0c0.89999,0 1.79999,0 2.59998,0c0.90002,0 1.80002,0 2.72086,0c0.96317,0 1.66229,-0.12982 2.72198,0.0045c0.8772,0.11119 1.40326,0.75984 2.15717,1.38483c0.65744,0.54504 1.63824,0.43712 2.39999,0.696c0.88794,0.30176 1.64133,0.79854 2.40002,1.19867c0.85837,0.45271 1.72351,0.65088 2.27914,1.23683c0.68802,0.72556 0.97287,1.30872 1.92084,1.48984c0.83041,0.15866 1.74347,0.57605 2.31467,1.07333c0.60855,0.52979 0.95859,1.37859 1.67468,1.89067c0.71121,0.50859 1.25464,1.07997 1.69467,1.82666c0.41284,0.70053 0.6821,1.63002 0.92047,2.49417c0.19812,0.71826 1.05908,1.17442 1.59552,1.85384c0.56204,0.71185 1.18558,1.29262 1.68533,2.04933c0.40213,0.60892 1.49289,0.80359 1.71332,1.60266c0.24396,0.8844 0.93921,1.41231 1,2.08534c0.08444,0.93486 -0.02097,1.94695 0.00134,2.80882c0.02084,0.80531 0.63095,1.42352 1.29468,2.0045c0.7103,0.62175 0.70532,1.60001 0.70532,2.5c0,0.90001 0,1.8 0,2.60001c0,0.89999 0,1.8 0,2.7c0,0.89999 0,1.8 0,2.7c0,0.90001 0.01721,1.80019 0,2.60001c-0.01801,0.83658 -0.284,1.68399 -0.64734,2.54733l-0.29999,0.89099l-0.40533,0.709l-0.64734,0.55267" id="svg_9" stroke-width="2" stroke="#000" fill="none"/>
  <path t="49546,49645,49645,49645,49680,49680,49716,49716,49716,49716,49716,49716,49733,49733,49733,49734,49734,49734,49749,49749,49749,49766,49766,49766,49794,49794,49794,49794,49794,49806,49806,49806,49817,49817,49817,49831,49831,49847,49847,49847,49864,49864,49881,49897,49897,49914,49914,49931,49947,49964,49964,49964,49981,49998,49998,50014,50014,50031,50031,50047,50064,50064,50081,50081,50097,50097,50114,50131,50131,50147,50147,50164,50164,50164,50181,50181,50197,50197,50214,50214,50214,50237,50237,50247,50247,50247,50264,50281,50281,50297,50297,50314,50331,50331,50347,50364,50364,50381,50404,50404,50437,50437" d="m327,213c1.75717,-0.11433 2.46896,-0.58636 3.17465,-1.14934c0.78842,-0.62897 1.41281,-0.83553 2.65869,-1.18399c0.37531,-0.10497 1.24765,-0.37756 2.25,-0.6875c0.53381,-0.16507 1.07709,-0.3484 2.75,-0.8125c0.54312,-0.15067 1.595,-0.40935 2.09866,-0.52c0.94757,-0.20819 1.80676,-0.38829 2.90366,-0.52516c0.8645,-0.10788 1.608,-0.11925 2.85233,-0.12151c0.56934,-0.00102 1.53085,0 2.64536,0c0.83331,0 1.70667,0 2.14581,0c0.85834,0 2.35651,0 2.95386,0c1.01065,0 1.98816,0 2.78165,0c0.77551,0 1.81735,0 2.59067,0c0.96402,0 1.71552,0 2.51199,0c1.22101,0 2.02103,-0.00063 2.92551,0c0.9585,0.00067 1.65155,0.06134 2.58252,0.42534c0.69788,0.27286 1.60333,0.60728 2.27197,1.18533c0.72433,0.62622 1.44824,0.80594 2.05069,1.18933c0.91675,0.58342 1.42099,1.4005 2.03732,1.8c0.92883,0.60208 1.55426,1.12852 2.01334,1.88399c0.40576,0.66772 0.70538,1.63165 0.80148,2.61618c0.07672,0.78603 0.31686,1.57407 0.70435,2.24716c0.53717,0.93312 1.11655,1.51476 1.25949,2.478c0.14804,0.99771 0.02917,1.81354 0.32001,2.66c0.25391,0.739 0.63263,1.71104 0.69516,2.53549c0.05026,0.66289 0.02084,1.66183 0.02084,2.45834c0,1.1875 -0.05179,2.05122 0.44266,2.84233c0.47397,0.75832 1.08069,1.2424 1.452,2.2785c0.20914,0.5836 0.52756,1.6145 0.95602,2.18933c0.55551,0.74529 1.02936,1.60486 1.37082,2.532c0.25635,0.69604 0.81808,1.48444 1.25766,2.15784c0.51654,0.79129 0.78433,1.74033 1.32217,2.32083c0.57605,0.62173 1.40277,1.22003 1.84149,1.89999c0.48532,0.7522 0.64252,1.784 0.96783,2.47467l0.48935,0.80367l0.5,0.575" id="svg_10" stroke-width="20" stroke="#fff" fill="none"/>
  <path t="54339,54522,54537,54583,54629,54629,54681,54747,54747,54830,54830,54913,54965" d="m317,213c1.08401,-1.71466 1.7673,-2.14716 2.63599,-2.57466c0.81909,-0.40309 1.72931,-0.38033 2.36401,-0.94617c0.66153,-0.58974 1.18533,-1.07918 2.11465,-1.67784l0.58084,-0.44417l0.8685,-0.38249l0.48868,-0.67917" id="svg_11" stroke-width="20" stroke="#fff" fill="none"/>
  <path t="57339,57458,57514,57514,57514,57574,57630,57630,57728,57804,57925,57925,58027,58077,58125,58180,58247,58247,58314,58358,58358,58382,58478,58526,58526,58574,58582,58621,58696,58778,58778,58778,58831,58878,58901,58902,58902,58934,58974,58990,59029,59029,59053,59093,59093,59133,59157,59173,59205,59222,59253,59277,59277,59285,59304,59333,59342,59350,59365,59389,59413,59437,59469,59493,59501,59541,59541,59557,59589,59645,59678,59709,59779,59812,59812,59828,59860,59908,59980,60013,60037,60053,60077,60146,60146,60182,60245,60253,60349,60360,60421,60511,60543,60605,60605,60664,60696,60725,60843,60843,60894,60963,61013" d="m310,218c0.87866,-1.22166 1.13461,-2.18071 1.436,-2.82533c0.33093,-0.70779 1.13086,-1.44771 1.4425,-2.27467c0.32025,-0.84982 0.39722,-1.69714 1.03882,-2.18399c0.7226,-0.54831 1.51358,-0.6274 2.09735,-1.32668c0.57019,-0.68303 0.66785,-1.76906 1.27066,-2.30533c0.65005,-0.57829 1.41583,-0.78732 2.11465,-1.48399c0.70099,-0.69884 1.24472,-1.29916 1.60001,-2.10001c0.35455,-0.79916 0.78806,-1.63324 1.08401,-2.3c0.38077,-0.85777 0.77863,-1.71214 1.43683,-2.2c0.69009,-0.51149 1.47177,-1.1713 1.87915,-1.81467c0.39291,-0.62053 1.23666,-1.13593 2.01068,-1.62134c0.79904,-0.50111 1.39194,-1.00677 2.10532,-1.27866c0.93869,-0.35774 1.72009,-0.75128 2.58401,-1.164c0.85266,-0.40733 1.4379,-0.86841 2.31067,-1.08534c0.88443,-0.21983 1.76398,-0.036 2.70398,-0.036c0.98535,0 2.03424,0.33708 2.71869,-0.16667c0.65298,-0.48059 1.26666,-0.83333 2.16666,-0.83333c0.79999,0 1.70001,0 2.60001,0c0.89999,0 1.83481,0.24287 2.6955,-0.0045c0.76788,-0.22072 1.31509,-0.99016 2.2045,-0.9955c0.89996,-0.0054 1.79999,0 2.70001,0c0.89999,0 1.79999,0 2.59998,0c0.90002,0 1.80002,0 2.70001,0c0.89999,0 1.80472,-0.0909 2.70001,0.00133c0.81259,0.08371 1.45438,0.79065 2.29999,0.97784c0.95688,0.21182 1.36179,0.7429 1.936,1.41016c0.53796,0.62512 1.71802,0.28799 2.44266,0.832c0.64374,0.48328 1.16589,1.08972 1.92133,1.49467c0.75598,0.40524 1.59445,0.71851 2.39868,1.2c0.74362,0.44519 1.30164,0.74734 2.19067,1.09467c0.74115,0.28955 1.08716,1.22046 1.48932,2.08934c0.30643,0.66202 0.86612,1.43773 1.08533,2.29999c0.22195,0.87315 0.32001,1.8 0.75201,2.40001l0.27951,0.89999l0.00449,0.90001l0,0.89999" id="svg_12" stroke-width="2" stroke="#000" fill="none"/>
  <path t="64549,64722,64722,64765,64781,64797,64829,64838,64853,64893,64893,64917,64941,64973,64989,65013,65045,65077,65077,65101,65101,65125,65157,65157,65181,65213,65213,65236,65237,65269,65269,65309,65309,65333,65863,65901,65901,65941,65965,66005,66062,66129" d="m370,208c1.70001,0 2.70001,0 3.60001,0c0.89999,0 1.79999,0 2.69998,0c0.90002,0 1.80002,0 2.70001,0c0.79999,0 1.70001,0 2.60001,0c0.89999,0 1.79999,0 2.69998,0c0.90002,0 1.70001,0 2.58536,0c0.94,0 1.63065,0 2.61465,0c0.98401,0 1.67465,0 2.74734,0c0.91931,0 1.75266,0 2.73132,0c0.77399,0 1.68475,0.05283 2.42584,-0.05716c1.00867,-0.1497 1.74832,-0.5504 2.71014,-0.85884c0.87619,-0.28098 1.63062,-0.47 1.26401,0.076c-0.55399,0.82507 -1.35333,1.26534 -1.89951,1.81917l-0.97916,0.02083l-0.88934,0.01067" id="svg_13" stroke-width="2" stroke="#000" fill="none"/>
  <path t="67348,67662,67730,67730,67765,67789,67789,67830,67869,67901,67925,67941,67965,67989,67989,68021,68109,68109,68179,68237,68261,68277,68330,68330,68346,68397,68413,68445,68445,68544,68544,68560,68597,68647,68693,68741,68880,68880" d="m401,206c0,1.82533 0.18146,2.86504 -0.05716,3.6955c-0.22089,0.7688 -0.961,1.51154 -1.64285,1.94734c-0.82397,0.52664 -1.67532,0.82306 -2.39981,1.23582c-0.79178,0.45111 -1.29977,0.97749 -2.10019,1.40533c-0.85583,0.45746 -1.56174,0.67633 -2.29999,1.23683c-0.77606,0.58923 -1.26825,1.3147 -2.10001,1.46851c-0.88553,0.16376 -1.63608,0.47661 -2.5,0.88933c-0.85266,0.40733 -1.43765,0.88251 -2.39999,1.10051c-0.87799,0.1989 -1.8017,-0.03354 -2.70132,0.02216c-0.68784,0.04259 -1.60641,0.47006 -2.31467,0.71468c-0.94376,0.32594 -1.884,0.284 -2.784,0.284c-0.90002,0 -1.80002,0 -2.70001,0l-0.79999,0" id="svg_14" stroke-width="2" stroke="#000" fill="none"/>
  <path t="70009,70111,70165,70166,70205,70237,70237,70270,70270,70301,70325,70325,70357,70357,70373,70397,70398,70429,70429,70453,70453,70477,70493,70525,70533,70533,70557,70589,70613,70621,70645,70645,70669,70701" d="m369,213c1.75717,0 2.65268,0 3.51599,0c0.85867,0 1.80533,0 2.65866,0c0.94135,0 1.70935,0 2.6507,0c1.008,0 1.79999,0 2.65866,0c0.86331,0 1.89066,0 2.83731,0c0.67868,0 1.65735,0 2.56268,0c0.94135,0 1.72739,0.40001 2.66934,-0.036c0.75021,-0.34726 1.30862,-0.91383 2.28,-0.964c0.86288,-0.04457 1.58923,-0.68552 2.46664,-0.94284c0.8642,-0.25345 1.61734,-0.34116 2.26801,-0.97316l0.72668,-0.13667l0.72,-0.52199l0.68982,-0.47801" id="svg_15" stroke-width="2" stroke="#000" fill="none"/>
  <path t="73909,74245,74261,74261,74286,74318,74334,74374,74414,74509,74578,74578,74662,74662,74730,74730,74984,74984,75069,75085,75146,75261,75261,75328,75382,75430,75636,75636,75651,75651,75713,75920,75920,75980,76030,76030,76096,76210,76277,76330,76396,76396,76445,76445,76542,76611,76611,76661,76685,76685,76708,76763,76797,76797,76837,76838,76869,76869,76909,76909,76949,76949,76981,77013,77029,77069,77069,77113,77128,77128,77189,77237,77237,77287,77287,77294,77333,77333,77373,77373,77397,77429,77453,77485,77485,77493,77493,77525,77550,77550,77573,77588,77606,77621,77645,77661,77693,77693,77717,77749,77749,77797,77822,77823,77837,77837,77885,77893,77917,77933,77965,77997,78005,78013,78045,78053,78085,78146,78189,78206,78206,78246,78284,78285,78295,78333,78342,78381,78421,78421,78461,78462,78493,78516,78540,78541,78614,78653,78677,78725,78725,78749,78781,78805,78805,78805,78821,78837,78861,78901,78901,78925,78941,78981,78989,78989,78997,79013,79061,79077,79077,79101,79149,79173,79173,79205,79229,79253,79301,79301,79325,79341,79389,79389,79405,79421,79461,79493,79517,79565,79581,79598,79598,79639,79669,79701,79827" d="m382,221c0.91599,0.28534 1.10303,1.23865 1.80133,1.71466c0.7493,0.51079 1.19641,0.98982 1.19867,1.88535c0.00226,0.89999 0,1.79999 0,2.7045c0,1.01683 0,1.6955 0,2.67416c0,0.90533 0,1.84666 0,2.53734c0,0.96317 0,1.88399 0,2.784c0,0.89999 0.04779,1.80127 0,2.7c-0.04272,0.80341 -0.74265,1.53828 -0.96399,2.39999c-0.22421,0.8728 -0.46988,1.71329 -1.05685,2.10001c-0.94357,0.62167 -1.57889,1.07724 -1.95383,1.89999c-0.35587,0.78094 -0.82632,1.40034 -1.52533,2.10001c-0.69968,0.70033 -1.13632,1.27132 -1.89999,1.88933c-0.74368,0.60182 -1.55728,0.89304 -1.60001,1.81067c-0.04184,0.8992 0.04523,1.68694 -0.01068,2.62534c-0.04132,0.69347 -0.61749,1.62698 -0.86783,2.496c-0.23819,0.82686 -0.12149,1.79332 -0.12149,2.67867c0,0.79999 0.16769,1.72607 -0.04166,2.52084c-0.22806,0.86578 -1.07303,1.39914 -1.625,2.3125c-0.37637,0.6228 -0.26337,1.65796 -0.36935,2.34131c-0.1492,0.96198 -0.77878,1.68872 -0.92798,2.6507c-0.10599,0.68335 -0.03104,1.78497 -0.46133,2.57465c-0.44907,0.8241 -0.7012,1.6319 -1.18533,2.20001c-0.63519,0.74533 -1.28531,1.49722 -1.388,2.19998c-0.13943,0.95401 -0.5914,1.66827 -1.00134,2.22086c-0.70578,0.95135 -0.66422,1.87894 -1.16666,2.64581c-0.49475,0.75513 -0.85812,1.24438 -1.26935,2.15869c-0.32047,0.71255 -1.01846,1.4993 -1.44266,2.27448c-0.40857,0.74664 -1.1915,1.18961 -1.60049,1.92102c-0.43259,0.77359 -0.48032,1.73666 -1.04169,2.47916c-0.50293,0.66519 -1.24014,1.14478 -1.8685,1.89999c-0.54617,0.65643 -0.96259,1.42712 -1.55798,1.95267c-0.63815,0.56326 -1.04239,1.32809 -1.62067,1.84735c-0.65631,0.58936 -1.25449,1.26108 -1.71735,2c-0.42007,0.67062 -1.25421,1.29266 -1.81467,2.12115c-0.43146,0.63779 -1.01758,1.40063 -1.69998,1.76151c-0.72043,0.38098 -1.58936,0.892 -2.20001,1.41733c-0.61066,0.52533 -1.44012,0.90332 -1.91599,1.69867c-0.41394,0.69183 -1.06851,1.21783 -1.58401,1.80133c-0.56357,0.63788 -1.20395,1.05362 -2,1.5c-0.79944,0.44827 -1.71951,0.76349 -2.29999,1.30133c-0.62173,0.57605 -1.21078,1.41745 -1.90002,1.84149c-0.82138,0.50534 -1.73541,0.42487 -2.32532,0.93185c-0.58212,0.50027 -1.48541,0.65958 -2.32199,1.12982c-0.79562,0.4472 -1.42151,1.1214 -2.25269,1.28482c-0.88458,0.17392 -1.51904,0.64163 -2.10001,1.30536c-0.62173,0.7103 -1.60471,0.61444 -2.5,0.70667c-0.81259,0.08368 -1.45474,0.78903 -2.29999,0.97781c-0.88974,0.1987 -1.82526,0.45868 -2.32535,0.87152c-0.69617,0.57468 -1.53662,1.11261 -2.47464,1.14932c-0.89932,0.03522 -1.75085,0.30084 -2.40002,0.64734c-0.84937,0.45334 -1.83472,0.29977 -2.59998,0.70532c-0.84592,0.4483 -1.50043,0.61942 -2.40002,0.64734c-0.94409,0.0293 -1.45428,0.91626 -2.29999,1c-0.79608,0.07883 -1.45148,0.33102 -2.16666,0.83334c-0.69543,0.48846 -1.63333,0.16666 -2.53336,0.16666c-0.89999,0 -1.82083,0 -2.784,0c-0.69064,0 -1.75882,0 -2.616,0c-0.89999,0 -1.69998,0 -2.60001,0c-0.89999,0 -1.79999,0 -2.69998,0c-0.89999,0 -1.80002,0 -2.70001,0c-0.89999,0 -1.69998,0 -2.60001,0l-0.89999,0l-0.89999,0l-0.91068,0" id="svg_16" stroke-width="2" stroke="#000" fill="none"/>
  <path t="85935,86167,86182,86205,86237,86261,86277,86329,86345,86345,86373,86413,86445,86445,86461,86502,86525,86525,86542,86596,86629,86629,86685,86685,86741,86757,86789,86797" d="m386,225c0,1.8 0,2.7 0,3.60001c0,0.79999 0,1.7 0,2.59999c0,0.90001 0,1.8 0,2.60001c0,0.89999 0.01184,1.85149 -0.284,2.68399c-0.25092,0.7061 -0.68741,1.7574 -0.716,2.61601c-0.02997,0.89949 0.19125,1.73308 -0.05716,2.59999c-0.25693,0.89658 -0.79208,1.62692 -0.96817,2.47467c-0.16824,0.80997 -0.776,1.53867 -1.61749,1.87801l-0.35269,0.65182l-0.00449,0.89551l-0.03601,0.96399" id="svg_17" stroke-width="20" stroke="#fff" fill="none"/>
  <path t="89233,89874,89874,89909,89962,90106,90178,90361,90361,90459,90459,90459,90512,90557,90612,90662,90662,90677,90717,90749,90789,90789,90805,90877,90926,90926,90994,91376,91376,91476,91576,91621,91653,91728,91728,91782,91861,91877,92039,92078" d="m380,220c1,1 1,1.8 1,2.7c0,0.90001 -0.0979,1.80644 0.01068,2.71066c0.11145,0.92822 0.57068,1.58614 0.82266,2.58934c0.19489,0.77597 0.16599,1.51466 0.16666,2.58934c0.00052,0.81065 0.13657,1.7673 -0.284,2.61066c-0.32993,0.66165 -0.52536,1.52806 -0.75201,2.40001c-0.22501,0.86565 -1.16486,1.4221 -1.60681,2.09999c-0.47849,0.73392 -0.69962,1.61385 -1.35718,2.3c-0.5871,0.61264 -1.35532,1.09761 -1.83334,2c-0.34338,0.64822 -0.85284,1.42236 -1.1095,2.3c-0.25311,0.86555 -0.10495,1.80127 -0.05716,2.7c0.04272,0.80341 0.57468,1.60001 0.97467,2.38933l0.52533,0.61067l0.48932,0.61067l0.01068,0.91016" id="svg_18" stroke-width="2" stroke="#000" fill="none"/>
  <path t="96559,96785,96785,96785,96846,96862,96885,96893,96941,96957,97005,97052,97093,97093,97101,97149,97205,97205,97229,97295,97295,97311,97311,97357,97381,97416,97416,97461,97501,97502,97517,97541,97557,97565,97613,97637,97637,97653,97709,97726,97742,97781,97782,97790,97812,97829,97877,97893,97917,97917,97941,97981,98013,98037,98069,98085,98085,98094,98125,98134,98150,98181,98190,98205,98237,98237,98253,98269,98309,98325,98357,98415,98446,98478,98478,98525,98594,98594,98708,98724" d="m225,310c0.16667,1 0.48247,1.79828 1,2.47916c0.48152,0.63351 1.55972,0.21097 2.38933,0.53152c0.79291,0.3064 1.39783,0.65533 2.17467,1.02533c0.73991,0.35242 1.29796,0.91382 2.26933,0.96399c0.86292,0.04459 1.58902,0.68625 2.46667,0.94284c0.86685,0.25345 1.58846,-0.00958 2.52533,0.06784c1.01653,0.08398 1.63263,0.60754 2.65733,0.9053c0.63864,0.18558 1.37907,0.81088 2.164,1.07333c0.79417,0.26553 1.70999,-0.11383 2.59616,0.01517c0.98674,0.14365 1.52579,0.84735 2.45717,0.99103c0.8895,0.13721 1.83475,-0.04843 2.60001,0.35715c0.8459,0.4483 1.72771,0.50131 2.39999,0.7045c0.87529,0.26456 1.59865,0.91425 2.5,0.94284c0.89955,0.02853 1.8,0 2.59999,0c0.90002,0 1.81921,-0.16519 2.70001,0.02084c0.84738,0.17899 1.59839,0.87024 2.5,0.97916c0.79871,0.0965 1.5372,0.74695 2.39999,0.96399c0.8735,0.21973 1.80002,0.03601 2.70001,0.03601c0.89999,0 1.69998,0 2.60001,0c0.89999,0 1.79999,0 2.69998,0c0.89999,0 1.80002,0 2.70001,0c0.89999,0 1.69998,0 2.60001,0c0.89999,0 1.79999,0 2.69998,0c0.89999,0 1.80002,0 2.70001,0c0.89999,0 1.69998,0 2.53598,0c1.01669,0 1.71133,0 2.72803,0l0.94049,-0.00449" id="svg_19" stroke-width="2" stroke="#000" fill="none"/>
  <path t="101707,101919,102040,102093,102161,102161,102176,102214,102246,102327,102366,102406,102438,102494,102494,102525,102661,102661,102716,102810,102877,102917,102917,102973,102973,103005,103053,103053,103077,103125,103133,103173,103278,103317,103326,103349,103397,103405,103431,103557,103614,103678" d="m336,207c0,-1.7 0.06808,-2.78534 0.86133,-2.964c0.94891,-0.21371 1.93152,-0.40115 2.70267,0c0.75943,0.39507 1.39044,0.87648 2,1.57468c0.58197,0.66658 0.54303,1.69588 0.43466,2.58932c-0.11157,0.9198 -0.70203,1.50113 -1.29865,2.10001c-0.6987,0.70132 -1.23325,1.44324 -2.10001,1.664c-0.86835,0.22118 -1.582,-0.41013 -1.60001,-1.28534c-0.01755,-0.85315 0,-1.79466 0,-2.56267c0,-0.94133 -0.39545,-2.08615 0.05716,-2.75433c0.46368,-0.68456 1.64285,-0.36166 2.54285,-0.36166c0.89999,0 2.04651,-0.18449 2.37915,0.52083c0.37512,0.79539 0.21573,1.80086 0.0195,2.67784c-0.18057,0.80704 -0.99866,1.30133 -1.60931,1.79066l-0.88934,0.01067l-0.88934,-0.01067" id="svg_20" stroke-width="2" stroke="#000" fill="none"/>
  <path t="106568,106709,106749,106757,106757,106789,106814,106837,106877,106893,106893,106901,106901,106917,106934,106945,106989,106996,107021,107028,107045,107062,107062,107078,107079,107095,107095,107112,107112,107128,107145,107162,107162,107178,107178,107195,107195,107212,107212,107229,107245,107245,107262,107262,107278,107295,107295,107312,107312,107328,107328,107345,107345,107362,107362,107378,107378,107395,107395,107395,107412,107413,107429,107429,107445,107446,107446,107462,107463,107478,107478,107495,107512,107512,107512,107528,107545,107562,107578,107596,107596,107613,107613,107629,107656" d="m231,315c1.60001,0.61066 2.42616,1.21674 2.83333,2c0.38667,0.74384 0.70686,1.44852 1.46217,1.94733c0.6982,0.46109 1.04692,1.36649 1.7045,2.05267c0.48924,0.51053 1.33086,1.10794 1.71466,1.79999c0.45728,0.82449 0.43065,1.64594 1.00134,2.28403c0.58293,0.65176 1.2412,1.19836 1.284,2.116c0.04192,0.89883 0.29724,1.5267 1.10001,2.02167c0.68709,0.42365 1.14383,1.24026 1.46399,1.95297c0.41182,0.91675 0.49635,1.71826 0.86134,2.6507c0.27313,0.69775 0.53192,1.6734 0.92732,2.47916c0.43486,0.88614 0.46706,1.56314 0.81401,2.52884c0.24904,0.69318 1.1691,1.28351 1.54799,2.052c0.43129,0.87476 0.34024,1.64279 0.71068,2.48932c0.42078,0.96158 0.42456,1.67191 0.79599,2.60382c0.30879,0.77475 0.73331,1.55688 1.06267,2.50684c0.25598,0.73828 0.57979,1.71698 0.716,2.49384c0.15031,0.85721 0.6716,1.61374 0.916,2.50485c0.18495,0.67435 0.37006,1.6315 0.7885,2.26865c0.59654,0.90833 0.91566,1.4855 1.2955,2.414c0.31697,0.77481 0.54243,1.59903 1,2.5c0.42712,0.84103 0.84108,1.66357 1.02084,2.35419c0.25891,0.99466 0.69363,1.57544 1.33099,2.37915c0.63129,0.79605 0.86713,1.50311 1.64816,2.26666c0.55652,0.54404 0.78647,1.29099 1.33334,2.16669c0.39258,0.6286 1.33765,0.84671 1.64532,1.76666c0.28577,0.85446 0.48483,1.77667 0.90018,2.5c0.50208,0.87433 0.97183,1.29999 1.78781,1.89999l0.32434,0.70001l0.04501,0.89999l0.39999,0.81067" id="svg_21" stroke-width="2" stroke="#000" fill="none"/>
  <path t="108605,108883,108919,108973,109043,109043,109059,109109,109150,109166,109222,109278,109278,109293,109293,109349,109365,109365,109405,109421,109461,109477,109477,109501,109501,109509,109525,109525,109534,109549,109565,109565,109579,109597,109613,109629,109653,109663,109693,109712,109712,109733,109733,109773,109789,109813,109853,109869,109869,109878,109909,109941,109941,109950,109950,109997,110013,110022,110022,110061,110085,110085,110109,110141,110141,110181,110189,110221,110221,110229,110261,110269,110309,110377,110393,110422" d="m240,317c1.7,0.99551 2.55179,1.12827 3.084,1.716c0.65167,0.71967 0.81779,1.50925 1.34134,2.22266c0.47528,0.64764 1.23367,1.1069 1.62733,1.76584c0.48262,0.80786 1.08429,1.59738 1.4265,2.2955c0.39854,0.81305 0.83237,1.38162 1.35416,2.16666c0.47043,0.70776 0.29095,1.61078 0.74133,2.43335c0.42728,0.7804 0.26625,1.81738 0.86801,2.5c0.45364,0.51462 1.4274,0.97412 1.55466,1.78534c0.14569,0.92874 0.16136,1.95218 0.50267,2.59381c0.43716,0.82184 1.14203,1.39267 1.44284,2.23068c0.27347,0.76184 0.14325,1.69141 0.63182,2.31549c0.49252,0.62912 0.4234,1.59427 0.85068,2.37466c0.45038,0.82257 0.50189,1.70297 0.57466,2.60001c0.05734,0.70697 0.8093,1.17526 1.43201,1.79999c0.68405,0.68625 0.51511,1.73474 0.92065,2.5c0.4483,0.84592 0.62198,1.70041 0.64734,2.5c0.02859,0.9014 0.46021,1.57782 1.09982,2.30017c0.56503,0.63815 0.77841,1.56659 0.95285,2.24716c0.26886,1.04892 0.83841,1.75107 0.94733,2.65268c0.0965,0.79871 0.54178,1.48032 1.19867,2.20001c0.53348,0.5845 0.78363,1.45032 1.08533,2.284c0.31873,0.88077 0.60919,1.76358 0.71616,2.616c0.11398,0.90814 0.49225,1.69083 0.99985,2.37915c0.51331,0.69604 1.05267,1.22534 1.5,2.02084l0.44284,0.79999l0.05716,0.90002l0.00015,0.89999" id="svg_22" stroke-width="2" stroke="#000" fill="none"/>
  <path t="110686,110775,110790,110810,110830,110830,110847,110847,110864,110864,110885,110917,110941,110941,110989,111006,111028,111055,111085,111141,111141,111165,111197,111205,111221,111221,111269,111546,111612,111628,111628,111670,111702,111702,111726,111726,111742,111742,111750,111764,111782,111798,111798,111815,111870,111870,111943,111959,112005,112021,112021,112045,112045,112096,112208,112245,112253,112264,112285,112285,112309,112309,112309,112326,112326,112333,112426,112426,112587,112603,112622,112648,112666,112666,112685,112685,112733" d="m265,377c-1.70001,0 -2.66751,-0.07727 -3.39999,0.436c-0.79016,0.55368 -1.32666,1.32202 -2.25717,1.50684c-0.73483,0.14597 -1.74152,0.05716 -2.50684,0.05716c-0.95067,0 -1.936,0 -2.836,0c-0.8,0 -1.7,0 -2.60001,0c-0.89999,0 -1.80815,-0.11658 -2.7,0.00449c-0.82138,0.11151 -1.47284,0.6347 -2.08932,1.39551c-0.60255,0.74359 -0.61067,1.70001 -0.61067,2.60001c0,0.79999 -0.02132,1.70026 0,2.60001c0.02084,0.87988 0.70842,1.37018 1.51733,1.39865c0.98206,0.03458 1.97209,0.04974 2.69333,-0.03467c0.99956,-0.11697 1.74123,-0.54483 2.62267,-0.79733c0.84337,-0.24161 1.78629,-0.1647 2.56667,-0.59198c0.8226,-0.45038 1.60037,-0.55081 2.39999,-0.57468c0.95847,-0.02859 1.84113,-0.38156 2.54733,-0.64734c0.88257,-0.33215 1.85269,-0.35266 2.75269,-0.35266c0.89999,0 1.65823,-0.03955 2.55267,0.00449c0.86603,0.04263 2.1264,0.25757 2.26065,1.19418c0.11234,0.78381 -1.11334,0.80133 -2.01334,0.80133c-0.89999,0 -1.73465,0.07385 -2.668,0.56799c-0.49435,0.26172 -1.16574,0.86621 -2.26132,1.26135c-0.73953,0.26672 -1.48279,0.48642 -2.30402,1.004c-0.58136,0.36639 -1.87604,0.54196 -1.66217,1.46216c0.18011,0.77502 1.30008,0.71527 2.16217,0.7045c0.83353,-0.01044 1.81183,-0.22134 2.52884,-0.64734l0.8045,-0.35266" id="svg_23" stroke-width="2" stroke="#000" fill="none"/>
  <path t="113011,113078,113160,113176,113210,113210,113229,113245,113245,113262,113285,113285,113285,113301,113324,113341,113357,113388,113405,113405,113414,113430,113445,113462,113479,113509,113773,113789,113809,113837,113862,113869,113901,113909,113930,113930,113947,113966,113982,114021,114045,114069,114101,114101,114109,114110,114152,114189,114189,114189,114385,114401,114421,114445,114445,114463,114463,114463,114485,114485,114485,114501,114501,114524,114525,114548,114580,114581,114597,114604,114612,114645,114701,114824,114839,114859,114880,114880,114897,114897,114897,114913,114913,114930,114947,114947,114963,114963,114980,115021,115045,115069,115117,115178,115178,115239,115239,115262,115277,115277,115285,115325,115349,115381,115381,115428,115428,115525,115578,115578" d="m267,373c1.79999,0 2.70001,0 3.52084,0c0.96317,0 1.66229,0.12982 2.72198,-0.00449c0.8772,-0.11118 1.42209,-0.73779 2.16785,-1.39551c0.72385,-0.6384 1.38925,-1.04996 2.10532,-1.31467c0.93686,-0.34634 1.884,-0.28534 2.784,-0.28534c0.90002,0 1.8013,-0.04779 2.70001,0c0.80338,0.04272 1.6539,0.48254 2.38934,0.97467c0.66946,0.44797 1.42874,1.01962 1.60931,1.82666c0.19623,0.87698 0.05948,1.96735 -0.70316,2.19418c-0.85834,0.25531 -1.7955,0.00449 -2.6955,0.00449c-0.89999,0 -1.80002,0 -2.70001,0c-0.89999,0 -1.69998,0 -2.60001,0c-0.89999,0 -1.79999,0 -2.69998,0c-0.89999,0 -1.91595,-0.19714 -2.60001,0.33334c-0.65851,0.51068 -1.12296,1.37848 -1.79999,1.74933c-0.74951,0.41055 -1.37943,1.07166 -2.01468,1.74268c-0.48541,0.51276 -1.40402,1.69305 -0.74933,2.13864c0.71472,0.48645 1.72443,-0.33105 2.37833,-0.61133c0.91302,-0.39133 1.72995,-0.32916 2.58835,-0.43668c0.90039,-0.11276 1.77402,-0.3486 2.58298,-0.56332c1.04257,-0.27673 1.76251,-0.3504 2.66702,-0.35266c0.86331,-0.00214 1.84732,0 2.83133,0c0.69064,0 1.75882,0 2.616,0c0.89999,0 1.56967,0.39746 2.18533,0.91599c0.66522,0.56024 1.37808,1.02313 0.51465,1.08401c-0.8981,0.06335 -1.61432,0 -2.56934,0c-0.7515,0 -1.54797,0 -2.76898,0c-0.80002,0 -1.70901,0 -2.62833,0c-0.83334,0 -1.81183,0 -2.63202,0c-0.90134,0 -1.80133,0 -2.70132,0c-0.89999,0 -1.79999,-0.00009 -2.70001,0c-0.89999,0.00009 -1.83347,0.12466 -2.39999,0.61066c-0.74326,0.63754 -1.11667,1.43576 -1.48401,2.18933c-0.40662,0.83411 -1.42813,1.06265 -1.91599,1.72086c-0.51151,0.69009 -0.87375,1.29984 -1.82535,1.87915c-0.68173,0.41501 -1.41748,0.89551 -2.17465,1.43335l-0.79999,0.16531" id="svg_24" stroke-width="2" stroke="#000" fill="none"/>
  <path t="118711,118823,118823,118869,118901,118925,118925,118925,118949,118949,118949,118965,118965,118980,118996,118997,119011,119028,119045,119061,119061,119078,119078,119095,119111,119141,119141,119149,119165,119181,119205,119205,119221,119221,119228,119255,119255,119270,119270,119300,119300,119317,119317,119333,119345,119373,119373,119390,119406,119437,119438,119447,119477,119488,119501,119517" d="m282,323c0,1 -0.20792,1.83801 0.05716,2.70001c0.28015,0.91104 1.10181,1.47455 1.60001,1.95267c0.73615,0.70648 1.54678,1.31992 2.13217,1.72198c0.73056,0.5018 1.40024,1.06631 1.76401,1.79999c0.50574,1.02002 0.73636,1.88226 1.09399,2.52536c0.4744,0.85312 0.76947,1.71649 1.45248,2.17883c0.7146,0.4837 0.79312,1.35397 1.18417,2.23581c0.32794,0.73956 0.63202,1.55167 1.15201,2.28534c0.55783,0.78708 1.36176,1.25137 1.54315,2.10001c0.18817,0.88034 -0.06665,1.827 0.1875,2.66666c0.26233,0.86667 0.73459,1.76053 1.33334,2.29169c0.70029,0.62125 1.35587,1.1239 1.55267,1.89349c0.23434,0.91638 0.7692,1.51923 1.24731,2.30084c0.41827,0.68381 1.09686,1.52661 1.41467,2.146c0.431,0.83997 0.27838,1.88184 0.99066,2.50131c0.53745,0.46744 1.13187,1.21533 1.30536,2.10001c0.16269,0.82962 0.84116,1.36862 0.98483,2.30002c0.13721,0.8895 0.02533,1.79999 0.36166,2.59549l0.74265,0.58316" id="svg_25" stroke-width="2" stroke="#000" fill="none"/>
  <path t="120321,120518,120549,120573,120582,120597,120597,120621,120629,120654,120677,120693,120717,120717,120757,120774,120774,120797,120845,120861,120894,120894,120913,120913,120945,120945,120961,120978,120995,121013,121045,121045,121069,121101,121149,121183,121184,121197,121269,121294,121376,121376,121392,121461,121461,121559,121626,121626,121724,121724,122029,122077,122109,122109,122141,122157,122165,122165,122197,122213,122253,122253,122301,122325,122325,122378,122453,122469,122517,122517,122536,122569,122706,122722" d="m291,322c0.05716,1.70001 0.68555,2.42255 0.94284,3.29999c0.25378,0.86548 0.25021,1.82407 0.76166,2.40002c0.65021,0.73227 0.97803,1.53137 1.5795,2.21597c0.52335,0.59567 0.55692,1.5014 1.15866,2.18402c0.45364,0.51462 1.43478,0.97586 1.55734,1.89999c0.10519,0.79303 0.0564,1.70044 0.5,2.5c0.44656,0.80493 0.66324,1.668 0.92532,2.32535c0.40277,1.0101 0.54044,1.80063 0.57602,2.65732c0.0336,0.80872 0.79852,1.50507 0.99417,2.22183c0.23605,0.86478 0.4487,1.68781 1.10431,2.39551c0.54996,0.59363 0.72968,1.52002 0.92102,2.39999c0.18402,0.84631 0.85645,1.49216 0.97781,2.29999c0.13651,0.90857 0.94046,1.41525 1.00134,2.30002c0.0618,0.89786 -0.28201,1.78391 0.11432,2.60001c0.36792,0.75757 1.39941,1.04318 1.86484,1.79999c0.46564,0.75717 0.879,1.35211 1.41019,2.32535c0.36572,0.6701 0.45844,1.86539 1.15231,2.15381c0.87039,0.36179 1.80566,0.02084 2.70117,0.02084c0.95718,0 1.8912,0.14651 2.55716,-0.08533c0.88568,-0.30835 1.61017,-0.89667 2.52133,-0.91467c0.85318,-0.01688 1.79333,0 2.67868,0c0.79999,0 1.70001,0 2.60001,0c0.92084,0 1.92648,-0.21112 2.69016,0.05716c0.76733,0.26956 0.70984,1.44284 0.70984,2.34283l-0.00449,0.89999" id="svg_26" stroke-width="2" stroke="#000" fill="none"/>
  <path t="123228,123418,123434,123434,123434,123460,123492,123543,123543,123609,123609,123609,123786,123786,123844,123860,123860,123860,123860,123880,123902,123918,123918,123942,123966,124021,124260,124327,124327,124381,124413,124437,124493,124493,124510,124578,124644,124685,124728,124778,124794,124814,124814,124837,124869,124870,124925,124926,125196,125212,125230,125230,125245,125262,125285,125316,125317,125357,125397,125429,125461,125527,125581,125800,125853,125853,125853,125885,125885,125894,125957,125957,125965,126005,126077,126077,126144,126144,126197,126237,126294,126349,126373,126553,126611,126611,126645,126678,126694,126710,126710,126741,126809,126809,126908,126965,126981,126997,127013,127030,127053,127093,127117,127165,127165,127197,127220,127559,127559,127575,127629,127677,127677,127718,127744,127744,127774,127774,127805,127829,127958" d="m306,362c-1.60001,0.61066 -2.21674,1.42618 -3,1.83334c-0.74384,0.38669 -1.47705,0.68878 -1.95184,1.46664c-0.48898,0.80115 -1.06027,1.27274 -2.04816,1.53336c-0.78378,0.20679 -1.60001,0.16599 -2.59549,0.16666c-0.91919,0.00061 -1.77939,-0.01981 -2.72583,0.00015c-0.85388,0.01801 -1.931,0.15799 -2.39203,0.80118c-0.52859,0.73746 -1.20291,1.35297 -1.28665,2.19867c-0.07883,0.79608 0,1.70001 0,2.60001c0,0.89999 -0.04102,1.75781 0.16666,1.39999c0.37466,-0.64557 1.22974,-1.23294 1.66669,-2c0.44424,-0.77988 1.16666,-1 1.96664,-1c0.90002,0 1.80002,0 2.70001,0c0.89999,0 1.79999,0 2.70001,0c0.89999,0 1.83923,0.17645 2.59998,-0.08533c0.77957,-0.26825 1.36722,-1.15546 1.95718,-1.61469c0.85062,-0.66211 1.58163,-1.01337 2.35617,-1.49731c0.7569,-0.4729 0.69376,0.50912 0.08533,0.91199c-0.82144,0.54388 -1.21106,1.13693 -1.71951,1.78534c-0.60126,0.76675 -1.30713,1.14792 -2.17917,1.55267c-0.83136,0.38589 -1.87384,0.65295 -2.26398,1.38333c-0.40744,0.76273 -0.42929,2.18103 0.32565,2.49783c0.7821,0.32819 1.47064,-0.78787 1.98566,-1.28568c0.77798,-0.75195 1.34818,-1.34366 2.05267,-2.04816c0.60001,-0.60001 1.27655,-1.03534 2.07916,-1.60001c0.61459,-0.4324 1.09277,-1.19595 1.87268,-1.70001c0.76541,-0.49469 1.41342,-1.14514 2.24817,-1.28931c0.88693,-0.1532 1.79999,-0.01068 2.69998,-0.01068c0.90002,0 1.8013,-0.04779 2.70001,0c0.80338,0.04272 1.53827,0.74265 2.39999,0.96399c0.87277,0.22421 1.67865,0.49463 2.10001,1.03601c0.66721,0.85724 1.45377,1.24213 2.20001,1.64734c0.76111,0.41327 1.9465,0.53714 2.27914,-0.16818c0.37512,-0.79538 0.21573,-1.80084 0.0195,-2.67783c-0.18057,-0.80704 -0.83817,-1.31088 -1.35583,-2.10132c-0.52069,-0.79507 -1.17657,-1.44122 -2.04282,-1.664c-0.87671,-0.22546 -1.83072,0.25583 -2.55835,-0.05685c-0.64966,-0.27917 -0.26166,-1.51752 0.52768,-1.89383c0.71011,-0.33853 1.67801,-0.08533 2.59732,-0.08533c0.83334,0 1.81183,0 2.63202,0l0.90134,0l0.89999,0l0.89999,0" id="svg_27" stroke-width="2" stroke="#000" fill="none"/>
 </g>
 <g display="none">
  <title>muse_image</title>
  <image xlink:href="http://farm3.static.flickr.com/2372/2254870714_ef71af3474.jpg" id="muse" height="480" width="560" y="0" x="40"/>
 </g>
 <g display="none">
  <title>bbox</title>
  <rect stroke="#f00" fill="none" stroke-width="3" height="259.06542" width="396.48" y="154.76636" x="85.92" id="bbox"/>
 </g>
</svg>
