<svg width="640" height="480" xmlns="http://www.w3.org/2000/svg" xmlns:svg="http://www.w3.org/2000/svg" xmlns:xlink="http://www.w3.org/1999/xlink">
 <!-- Sketchy ANNOTATION
  ImageNet ID: n01530575_10698
  URL: http://farm4.static.flickr.com/3651/3297827570_7994707e11.jpg
  Image Width: 335
  Image Height: 500
  BBox X: 20
  BBox Y: 131
  BBox Width: 259
  BBox Height: 206
  Exposure: 2000ms
  Synset Label: songbird
  Synset ID: n01526521
  Worker Tag: songbird sitting on tree branch
  Sanity Check: 
   Saved
  Comment: 
   {}
  Worker ID: AXD2DZ7U6CK35
  Assignment ID: 3U5NZHP4LR2JB2447PPAARCB338HPJ
  HIT ID: 3G5RUKN2EC3O6RCE3WJO41E7G4RN93
  Work Time: 41s
  Worker Score: 0.5500
 END ANNOTATION -->
 <g display="inline">
  <title>Layer 1</title>
  <path t="0,14,14,15,15,15,15,15,15,20,20,20,30,31,46,46,47,63,63,63,80,80,80,80,96,96,113,113,130,130,146,146,163,163,163,180,180,180,181,181,196,196,196,213,213,213,213,230,231,247,247,247,264,264,264,280,280,296,296,313,313,331,331,331,346,346,347,363,363,380,380,381,396,396,396,413,430,431,431,447,463,463,481,481,496,496,515,530,551,583,597,619,740,763,783,799,799,815,815,832,847,864,882,882,897,897,914,914,932,932,932,947,947,947,964,981,982,997,997,1014,1014,1136,1144,1153,1166,1181,1197,1215,1215,1232,1232,1247,1247,1264,1282,1282,1297,1297,1315,1315,1333,1333,1333,1347,1347,1364,1364,1383,1383,1423,1424,1424,1431,1459,1475,1499,1514,1532,1547,1565,1565,1565,1581,1581,1631,1632" d="m249,175c5.83333,-10 6.36906,-10.77698 6.90933,-11.48267c0.50732,-0.66267 1.00403,-1.26563 1.48651,-1.80901c0.85706,-0.96524 1.25983,-1.36066 2.21832,-2.32249c0.65137,-0.65363 1.26584,-1.26582 1.86984,-1.86983c0.69064,-0.69066 1.33377,-1.36569 1.90134,-1.89067c0.56885,-0.52617 1.37503,-1.12503 2.15631,-1.62534c0.56021,-0.35873 1.75327,-0.98987 2.35385,-1.24283c0.86176,-0.36296 1.43216,-0.52492 2.41782,-0.95717c0.85205,-0.37366 1.68793,-0.87341 2.276,-1.40001c0.74551,-0.66759 1.26422,-1.25345 2.06784,-1.6955c0.72208,-0.39719 1.7496,-0.60532 2.65085,-0.76584c0.54987,-0.09795 1.55786,-0.37622 2.35449,-0.644c0.8602,-0.28915 1.73358,-0.59952 2.17084,-0.72667c1.21573,-0.35353 2.29343,-0.51561 2.94531,-0.54666c1.22015,-0.05812 2.11685,-0.02133 2.7005,-0.02133c0.83551,0 2.06818,0 2.74619,0c0.94131,0 1.72733,0 2.54932,0c1.05869,0 1.98935,0 2.82401,0c1.00134,0 1.80161,-0.02194 2.80002,0.00133c0.7659,0.01785 1.70511,0.30727 2.41116,0.70317c0.94244,0.52846 1.46774,0.67123 2.24197,1.05267c1.05066,0.51762 1.67896,1.08669 2.28653,1.53299c0.88281,0.64847 1.64682,0.84772 2.431,1.27917c0.7681,0.42261 1.27344,0.79755 2.30899,1.40916c0.66928,0.39531 1.44684,0.80354 2.29633,1.42149c0.8035,0.5845 1.46954,0.96907 2.14133,1.40001c0.87436,0.5609 1.51663,1.17053 1.98401,1.72083c0.64761,0.76251 0.95877,1.50534 1.5,2.3125c0.5253,0.78339 0.98541,1.54692 1.5,2.16667c0.49991,0.60204 0.21094,1.55197 0.51068,2.38933c0.26373,0.73674 1.18933,1.08595 1.82266,1.77734c0.5477,0.59792 1.33331,0.83333 1.992,0.83333c1.008,0 1.89676,-0.18477 2.77466,0.036c0.86285,0.21698 1.59698,0.9213 2.50015,0.964c0.7843,0.03709 1.73584,-0.00172 2.50116,0c1.00317,0.00226 1.86316,0.01881 2.82001,0.22133c0.81152,0.17175 1.61765,0.46712 2.65701,0.65733c0.67065,0.12273 1.44193,0.18924 2.42166,0.62134c0.82758,0.36499 1.52084,0.47917 2.5,0.5c0.97916,0.02083 1.82706,0.17853 2.58932,0.57466c0.79367,0.41246 1.45035,1.18402 0.70618,1.42084c-0.81995,0.26093 -1.37445,0.73466 -2.15683,0.97917c-0.94568,0.29555 -1.60623,0.59515 -2.46017,1.12517c-0.67596,0.41956 -1.68097,0.72052 -2.45715,0.87483c-0.89108,0.17715 -1.5444,0.92339 -2.263,1.0045c-0.95251,0.10751 -1.78912,-0.14288 -2.79169,0.1875c-0.71695,0.23627 -1.46439,0.98253 -2.20831,1.3125c-0.62769,0.27841 -1.64258,0.42316 -2.4375,0.52083c-1.19019,0.14624 -1.81284,0.53836 -2.6875,0.83333c-0.82468,0.27811 -1.86047,0.26498 -2.612,0.60268c-0.68066,0.30585 -1.40616,0.95511 -1.93735,1.64799c-0.46909,0.61189 -0.27359,1.61606 -0.284,2.51601c-0.01044,0.90018 -0.49561,1.63913 -0.83334,2.56667c-0.23691,0.65063 -0.16531,1.51999 -0.16666,2.51599l0,0.79651l0,1.1875l-0.02084,0.77083" id="svg_1" stroke-width="2" stroke="#000" fill="none"/>
  <path t="2602,2608,2608,2624,2624,2643,2643,2651,2664,2664,2679,2697,2713,2714,2714,2729,2729,2729,2730,2730,2747,2747,2747,2764,2764,2764,2764,2780,2780,2780,2780,2797,2797,2797,2797,2813,2813,2814,2814,2829,2830,2830,2830,2847,2847,2847,2847,2847,2847,2864,2864,2864,2864,2880,2880,2880,2880,2880,2880,2897,2897,2897,2897,2897,2914,2914,2914,2914,2914,2930,2930,2930,2930,2930,2947,2947,2947,2947,2947,2964,2964,2964,2964,2964,2980,2980,2980,2980,2980,2980,2980,2997,2997,2997,2997,2997,3014,3014,3014,3014,3014,3030,3030,3030,3030,3030,3030,3030,3047,3047,3047,3047,3064,3064,3064,3064,3064,3080,3080,3080,3080,3080,3097,3097,3097,3097,3114,3114,3114,3114,3130,3130,3130,3147,3147,3147,3165,3165,3182,3182,3197,3214,3229,3230,3247,3247,3264,3264,3264,3280,3280,3280,3297,3297,3297,3313,3313,3314,3329,3329,3330,3330,3346,3346,3346,3347,3363,3363,3363,3364,3382,3382,3382,3382,3396,3396,3396,3397,3397,3397,3415,3415,3416,3416,3429,3430,3430,3430,3430,3448,3449,3449,3449,3464,3464,3464,3464,3464,3479,3480,3480,3480,3480,3498,3498,3499,3499,3499,3513,3514,3514,3514,3529,3530,3530,3548,3548,3549,3549,3565,3565,3566,3566,3581,3581,3581,3581,3598,3598,3599,3614,3614,3614,3615,3632,3632,3632,3632,3632,3632,3646,3647,3647,3647,3665,3665,3666,3681,3681,3696,3697,3715,3732,3732,3749,3766,3780,3797,3813,3829,3830,3848,3849,3864,3864,3880,3927,3979,3995,3995,4013,4030,4030,4047,4047,4047,4064,4064,4064,4064,4064,4080,4080,4080,4080,4080,4080,4096,4097,4097,4097,4097,4097,4113,4113,4114,4114,4129,4130,4130,4130,4147,4147,4147,4147,4164,4164,4164,4164,4164,4180,4180,4180,4180,4180,4196,4197,4197,4197,4197,4213,4214,4214,4214,4214,4229,4230,4230,4230,4230,4230,4246,4247,4247,4247,4247,4247,4264,4264,4264,4264,4265,4265,4280,4280,4280,4280,4280,4281,4297,4297,4297,4297,4313,4314,4314,4314,4330,4330,4330,4330,4347,4347,4347,4364,4364,4364,4380,4380,4380,4380,4380,4397,4397,4397,4414,4414,4414,4431,4431,4431,4447,4447,4447,4447,4463,4464,4464,4464,4480,4480,4497" d="m249,173c-1.0625,-0.233 -1.7807,0.16753 -2.66667,0.83333c-0.67786,0.5094 -1.33299,1.16701 -1.93333,1.76668c-0.59966,0.599 -1.54344,0.98669 -2.11465,1.48399c-0.60852,0.52979 -0.90776,1.55049 -1.60718,2.01633c-0.71759,0.47794 -1.45958,0.85628 -2.32083,1.4425c-0.67017,0.45616 -1.36111,0.9731 -2.052,1.509c-0.3392,0.26311 -1.53712,1.26155 -2.04399,1.71217c-0.47707,0.42412 -1.42126,1.2449 -1.94667,1.63599c-0.82513,0.61418 -1.41878,1.00058 -2.31467,1.60001c-0.5984,0.40039 -1.4874,0.98865 -2.04283,1.39999c-1.05186,0.77899 -1.51251,1.19601 -2.1825,1.836c-0.46431,0.44353 -1.19885,1.18268 -1.72734,1.72118c-0.55032,0.56075 -1.11827,1.12715 -1.88066,2.04283c-0.73734,0.88557 -1.16754,1.52022 -1.61934,2.15717c-0.71538,1.00853 -0.96727,1.36519 -1.5,2.0955c-0.5459,0.74837 -1.09602,1.49368 -1.36333,1.86333c-0.76657,1.06004 -1.2359,1.73277 -1.68401,2.40483c-0.45735,0.68591 -1.16939,1.81082 -1.68401,2.6485c-0.27008,0.43964 -0.81781,1.35043 -1.09067,1.81601c-0.54495,0.92987 -1.06319,1.84554 -1.53999,2.72932c-0.23036,0.427 -0.66714,1.26317 -1.08083,2.08084c-0.6084,1.20255 -0.8045,1.60449 -1.20451,2.4045c-0.39999,0.8 -0.80019,1.5999 -1.39999,2.8c-0.19989,0.39996 -0.60373,1.19611 -0.97917,2c-0.37186,0.79623 -0.86542,1.99612 -1.1355,2.8c-0.13376,0.39815 -0.37074,1.19833 -0.58083,2c-0.31384,1.19759 -0.49672,2.00554 -0.72583,2.82133c-0.23978,0.85379 -0.53511,1.75482 -0.912,2.71199c-0.20175,0.51239 -0.67111,1.57242 -0.91734,2.11734c-0.24841,0.54974 -0.75122,1.64085 -0.98132,2.18134c-0.6456,1.51646 -0.80608,1.99483 -1.10667,2.896c-0.28299,0.84836 -0.52046,1.67818 -0.983,2.87233c-0.15706,0.4055 -0.51953,1.2236 -0.925,2.07167c-0.21214,0.44371 -0.92038,1.86113 -1.1745,2.3705c-0.52779,1.05794 -0.79518,1.59668 -1.058,2.13667c-0.51431,1.05673 -0.77423,1.55746 -1.37782,2.9565c-0.34163,0.79187 -0.61299,1.51881 -0.834,2.20799c-0.32632,1.01762 -0.50815,1.74362 -0.71967,2.50301c-0.22302,0.80066 -0.4593,1.64511 -0.91068,2.97449c-0.15733,0.46335 -0.50224,1.3942 -0.85333,2.3175c-0.17181,0.45184 -0.66272,1.7265 -0.94,2.49066c-0.25304,0.69733 -0.57945,1.66214 -0.88533,2.57068c-0.30315,0.90045 -0.49112,1.5126 -0.88533,2.39999c-0.40587,0.91364 -0.74483,1.50546 -1.28934,2.328c-0.63297,0.95618 -1.10318,1.43546 -1.62399,2.15466c-0.53891,0.7442 -0.83922,1.50955 -1.50134,2.36017c-0.45924,0.58997 -1.261,1.2146 -1.64732,2.05716c-0.35249,0.7688 -0.80325,1.41641 -1.53667,1.90134c-0.68073,0.4501 -1.51451,1.1058 -2.01601,1.81952c-0.40015,0.56946 -0.97337,1.39005 -1.52083,1.97916c-0.56831,0.61157 -1.36763,1.41086 -1.97917,1.97916c-0.58913,0.54745 -1.40031,1.14194 -2.04167,1.54169c-0.72635,0.45273 -1.60579,1.01529 -2.26366,1.48898c-0.69984,0.50391 -1.4019,1.02664 -2.36134,1.82352c-0.57028,0.47366 -1.08476,0.91916 -1.72433,1.61932c-0.63292,0.69287 -1.20729,1.50476 -1.62982,2.04733c-0.43008,0.55228 -1.12643,1.35544 -1.94084,2.05182c-0.56691,0.48477 -1.21278,0.94266 -2.205,1.78152c-0.35938,0.30383 -1.08653,0.97141 -1.45866,1.31732c-0.7504,0.69751 -1.47998,1.39365 -2.20799,2.01599c-0.67168,0.57419 -1.32434,1.07025 -1.95601,1.51202c-1.19888,0.83844 -1.81436,1.21729 -2.41066,1.63199c-0.60381,0.41992 -1.21463,0.85712 -2.10001,1.61066c-0.61032,0.51944 -1.19411,1.08521 -1.8,1.62601c-0.89145,0.79568 -1.49536,1.27869 -2.12132,1.72733c-0.64333,0.46109 -1.34627,0.91422 -2.52133,1.64667c-0.42424,0.26443 -1.30804,0.80392 -1.75734,1.07867c-0.89478,0.54715 -2.16748,1.33206 -2.55701,1.57849c-0.73018,0.46194 -1.40274,0.89853 -2.34033,1.52017c-0.90387,0.59927 -1.50259,0.99493 -2.08183,1.40134c-0.84204,0.59079 -1.61018,1.18784 -2.28484,1.79999c-0.43242,0.39236 -1.2234,1.21307 -1.84499,1.80002c-0.65015,0.61392 -1.14418,1.02625 -2.03368,1.60001c-0.65045,0.41956 -1.36597,0.78537 -2.052,1.19998c-1.27917,0.7731 -1.80018,1.1944 -2.52,1.80002c-0.47108,0.39633 -1.4631,1.20956 -2.02133,1.58932c-0.5672,0.38586 -1.75959,1.05356 -2.36667,1.328c-0.61436,0.27774 -1.62103,0.67294 -2.73067,1.216c-0.41295,0.20209 -1.27237,0.67133 -1.71733,0.91733c-0.89943,0.49728 -1.77374,0.99625 -2.616,1.41599c-0.75477,0.37616 -1.77097,0.79135 -2.36717,1.02435c-1.0449,0.40839 -1.73355,0.702 -2.56483,1.10898c-0.80333,0.39331 -1.59074,0.7608 -2.37984,1.29984c-0.74268,0.50732 -1.55968,0.84689 -2.5055,1.18417c-0.70581,0.25171 -1.75707,0.41537 -2.39467,0.93735c-0.67088,0.54922 -0.96084,1.28821 -1.4785,2.07864c-0.52069,0.79507 -1.18219,1.16287 -1.8415,1.90134c-0.47387,0.53076 -0.76189,1.45038 -0.8,2.31467c-0.04151,0.94171 -1.26757,1.6416 -0.83467,2.31735c0.45843,0.71558 1.63334,0.16666 2.46934,0.16666c1.02567,0 1.82567,0 2.78567,0c0.825,0 1.425,0.00244 2.745,0c0.72134,-0.00134 1.49216,-0.00104 2.316,-0.07199c0.89149,-0.07675 1.85507,-0.24289 2.88533,-0.49869c0.53982,-0.13403 1.63339,-0.4668 2.18134,-0.65067c0.54675,-0.18347 2.11893,-0.77478 2.60767,-0.97849c0.93176,-0.38834 1.80045,-0.78134 2.22167,-0.96417c0.81697,-0.35461 2.01756,-0.82559 2.81683,-1.07883c0.7803,-0.24722 1.55054,-0.44141 2.63783,-0.75717c1.01259,-0.29407 1.65472,-0.49884 2.26216,-0.75717c1.22418,-0.52063 1.81074,-0.89706 2.42534,-1.26367c0.63815,-0.38065 1.64059,-0.98877 2.36449,-1.37784c0.74541,-0.40063 1.51714,-0.78439 2.31601,-1.116c1.18716,-0.49277 2.00047,-0.73178 2.79866,-1.00616c0.40092,-0.13782 1.2254,-0.39813 2.39983,-1.022c0.81476,-0.43283 1.19527,-0.71008 1.96417,-1.24249c0.75642,-0.52377 1.81,-1.30066 2.49234,-1.76199c0.68042,-0.46002 1.40779,-0.91022 1.79832,-1.13666c1.30016,-0.75388 1.79875,-1.00119 2.832,-1.552c0.53421,-0.28479 1.0799,-0.5629 2.14667,-1.16534c1.03987,-0.58725 1.52846,-0.89108 2.45233,-1.49417c0.44467,-0.29028 1.29085,-0.8717 1.70534,-1.14734c1.20282,-0.79987 2.00961,-1.27573 2.81967,-1.74249c0.40979,-0.23615 1.25098,-0.71722 1.67467,-0.98401c1.35054,-0.8504 1.80165,-1.19278 2.72932,-1.88132c0.46671,-0.34641 0.92267,-0.70041 1.81601,-1.38135c0.83476,-0.63626 1.59689,-1.19794 2.28667,-1.69598c0.62492,-0.45123 1.72458,-1.26187 2.19865,-1.67334c0.69696,-0.60489 1.13586,-1.05664 2.10535,-2.01984c0.53088,-0.52747 1.06844,-1.06915 1.62599,-1.569c0.77216,-0.69223 1.50668,-1.18326 2.34816,-1.758c0.81599,-0.55734 1.41588,-1.10016 1.87651,-1.46249c1.0396,-0.81775 1.694,-1.19275 2.37866,-1.58932c0.69666,-0.40353 1.40526,-0.76465 2.30634,-1.39984c0.79326,-0.5592 1.17848,-1.02148 2.24316,-1.77866c0.58841,-0.41846 1.24828,-0.73846 2.22133,-1.12152c0.80766,-0.31796 1.38954,-0.49893 2.57851,-0.89999c0.90027,-0.30368 1.51259,-0.49118 2.39999,-0.88535c0.9138,-0.40588 1.49911,-0.76138 2.36401,-1.28931c0.55299,-0.33755 1.54933,-0.93869 2.19432,-1.28369l1.02,-0.42032" id="svg_2" stroke-width="2" stroke="#000" fill="none"/>
  <path t="6122,6133,6133,6141,6141,6149,6166,6166,6180,6180,6180,6196,6197,6197,6213,6214,6214,6230,6230,6230,6230,6247,6247,6247,6247,6264,6264,6264,6264,6280,6280,6280,6280,6280,6297,6297,6297,6297,6297,6314,6314,6314,6314,6314,6330,6330,6330,6330,6347,6347,6347,6364,6364,6364,6364,6380,6380,6380,6380,6380,6397,6397,6397,6397,6414,6414,6414,6414,6430,6430,6430,6430,6447,6447,6447,6447,6464,6464,6464,6464,6480,6480,6480,6497,6497,6497,6497,6514,6514,6514,6514,6514,6530,6530,6530,6530,6547,6547,6547,6547,6547,6564,6564,6564,6564,6564,6580,6580,6580,6580,6580,6597,6597,6597,6597,6597,6614,6614,6614,6614,6614,6630,6630,6630,6630,6630,6647,6647,6647,6647,6647,6664,6664,6664,6664,6680,6680,6680,6680,6680,6697,6697,6697,6697,6697,6714,6714,6714,6714,6714,6740,6740" d="m277,205c0.94284,2.60001 0.99774,3.39999 1,4.39867c0.00211,0.94417 0,1.84416 0,2.804c0,0.76801 0,1.81166 0,2.61867c0,0.58133 0,1.77867 0,2.67867c0,0.60001 0.01358,1.80026 -0.01068,2.7c-0.01617,0.60033 -0.13254,1.80525 -0.3465,2.7045c-0.14761,0.62038 -0.36142,1.24867 -0.74265,2.61684c-0.20322,0.72928 -0.39505,1.4754 -0.543,2.226c-0.21326,1.08177 -0.27679,1.76971 -0.35718,2.7735c-0.05518,0.68881 -0.15143,1.81483 -0.28665,2.64717c-0.14386,0.88544 -0.34769,1.78471 -0.47501,2.22667c-0.36951,1.28276 -0.71082,2.04376 -1.07434,2.75467c-0.362,0.70795 -0.78412,1.40927 -1.36401,2.59332c-0.20673,0.4221 -0.59851,1.30865 -1,2.20668c-0.19925,0.44565 -0.78741,1.72404 -1.19867,2.47865c-0.37918,0.69572 -0.77899,1.3064 -1.43466,2.40533c-0.42288,0.70879 -0.7775,1.40048 -1.33331,2.33334c-0.31195,0.52354 -0.86249,1.36336 -1.29501,1.93784c-0.68549,0.91049 -1.22015,1.49747 -1.76367,2.09549c-0.54715,0.60199 -1.10721,1.18625 -1.85333,2.09984c-0.47943,0.58704 -0.88782,1.20792 -1.60532,2.01483c-0.70554,0.79346 -1.27017,1.23087 -1.81601,1.68533c-0.81827,0.6813 -1.58719,1.41394 -2.04733,1.95267c-0.4613,0.54007 -1.10388,1.39645 -1.87416,2.12582c-0.51477,0.48743 -1.09218,0.91098 -1.97984,1.52017c-0.89143,0.61179 -1.4986,0.99493 -2.07784,1.40134c-0.84204,0.59079 -1.60342,1.1955 -2.2955,1.79999c-0.68188,0.59558 -1.38597,1.20795 -1.91199,1.60135c-0.84554,0.63239 -1.47816,1.05136 -2.48001,1.76532c-0.71962,0.51282 -1.08125,0.78827 -1.83333,1.3125c-0.74271,0.5177 -1.82483,1.20389 -2.51466,1.55151c-0.64178,0.32343 -1.29137,0.54877 -2.48534,1.13599c-0.61174,0.30087 -1.21898,0.67346 -1.87199,1.04401c-0.6962,0.39505 -1.86642,0.99899 -2.73784,1.38483c-0.4493,0.19894 -1.37119,0.58023 -2.3075,0.91919c-0.91193,0.33014 -1.79724,0.60165 -2.64667,0.85999c-0.82524,0.25098 -1.64027,0.49396 -2.436,0.79199c-0.80597,0.30188 -1.59854,0.66205 -2.39999,1.008c-0.79857,0.3447 -1.9977,0.81152 -2.8045,1.07269c-0.40497,0.1311 -1.23424,0.3692 -2.08084,0.63666c-1.34045,0.42346 -1.79947,0.59781 -2.73999,0.94135c-0.95016,0.34708 -1.41568,0.54037 -2.808,1.008c-0.87619,0.29428 -1.30684,0.40811 -2.125,0.66666c-0.7818,0.24704 -1.88278,0.65042 -2.55768,0.98401c-0.99605,0.49231 -1.61977,0.90024 -2.65067,1.34933c-0.70798,0.30841 -1.46973,0.54007 -2.24399,0.79199c-0.79109,0.25739 -1.9928,0.68839 -2.79384,1.03183c-0.40788,0.1749 -1.23029,0.55618 -2.08084,0.94415c-0.88008,0.40146 -1.7946,0.79752 -2.70799,1.18802c-0.44414,0.18988 -1.2825,0.5535 -2.34,1.04401l-0.90134,0.51999" id="svg_3" stroke-width="2" stroke="#000" fill="none"/>
  <path t="7787,7801,7853,7993,8017,8017,8033,8053,8065,8065,8081,8081,8097,8097,8114,8114,8114,8130,8130,8130,8147,8147,8147,8147,8164,8164,8164,8164,8180,8180,8180,8180,8197,8197,8197,8197,8213,8213,8214,8214,8230,8230,8230,8230,8230,8247,8247,8247,8247,8247,8264,8264,8264,8264,8264,8279,8280,8280,8280,8280,8280,8296,8296,8296,8297,8313,8313,8313,8313,8314,8330,8330,8330,8330,8330,8330,8346,8347,8347,8347,8347,8363,8363,8363,8363,8363,8364,8379,8379,8379,8379,8379,8396,8396,8396,8396,8396,8413,8413,8413,8413,8413,8414,8414,8429,8429,8429,8429,8430,8430,8446,8446,8446,8446,8447,8463,8463,8463,8464,8464,8480,8480,8480,8480,8480,8480,8497,8497,8497,8497,8497,8513,8513,8513,8513,8514,8514,8514,8529,8529,8529,8529,8530,8546,8546,8546,8547,8547,8564,8564,8564,8564,8579,8580,8580,8580,8580,8580,8596,8596,8596,8597,8613,8613,8613,8614,8614,8614,8629,8629,8629,8630,8630,8647,8647,8647,8647,8647,8664,8664,8664,8664,8664,8664,8680,8680,8680,8680,8680,8697,8697,8697,8697,8714,8714,8714,8714,8730,8730,8730,8730,8747,8747,8747,8764,8764,8764" d="m319,188c-1.38934,2.364 -1.95728,3.19698 -2,4.10001c-0.04251,0.89899 0,1.7 0,2.59999c0,0.936 -0.10699,1.79791 0.05716,2.64734c0.17975,0.93005 0.76154,1.51591 0.90683,2.49933c0.12286,0.83168 0.03601,1.83867 0.03601,2.67416c0,0.58368 0,1.77917 0,2.67917c0,0.60001 0,1.8 0,2.7045c0,0.61633 0,1.58084 0,2.61684c0,0.73134 0,1.47867 0,2.59467c0,1.06267 0,1.73134 0,2.70934c0,0.65866 0,1.69617 0,2.43184c0,1.15349 0,1.94417 0,3.14282c0,0.8 0,1.60001 0,2.40001c0,1.2 0,2 0,2.8c0,0.79999 0,1.59999 0,2.80016c0,0.80434 0,1.21051 0,2.03584c0,0.84933 0,2.1855 0,3.12115c0,0.47884 0,1.45351 0,2.44417c0,0.99867 0.00122,1.99736 -0.00449,2.49417c-0.01129,0.98375 -0.04327,1.948 -0.08084,2.41917c-0.10895,1.36627 -0.26013,2.23055 -0.43552,3.0645c-0.17218,0.81882 -0.47635,2.02153 -0.68048,2.82216c-0.20651,0.81007 -0.42984,1.63609 -0.55585,2.05583c-0.39447,1.31412 -0.72461,2.22815 -0.89999,2.69551c-0.35651,0.95004 -0.54382,1.42607 -0.94415,2.36333c-0.58463,1.36876 -0.79712,1.80074 -1.19867,2.65868c-0.39847,0.85138 -0.61133,1.27289 -1.20001,2.59198c-0.40787,0.91388 -0.60034,1.38586 -1,2.33334c-0.2002,0.47461 -0.58765,1.42151 -1.20016,2.77832c-0.1972,0.43683 -0.5925,1.28485 -1.03583,2.07501c-0.43201,0.76999 -0.91647,1.49103 -1.45068,2.16534c-0.54575,0.68887 -1.16406,1.37524 -1.47498,1.74832c-1.0184,1.22195 -1.36273,1.69473 -1.72235,2.185c-0.74771,1.01938 -1.11523,1.54855 -1.49066,2.07199c-0.37192,0.51855 -1.45279,1.98074 -1.80383,2.4115c-0.6535,0.80194 -1.29791,1.50461 -1.61084,1.83252c-0.6041,0.63303 -1.5079,1.53497 -2.11517,2.13199c-0.61337,0.60303 -1.2489,1.20416 -1.58081,1.5c-1.02457,0.91318 -1.76852,1.50308 -2.14001,1.81067c-0.75174,0.62244 -1.50809,1.25674 -2.20801,1.95599c-0.70056,0.69989 -1.34079,1.45914 -1.66666,1.83334c-0.65161,0.74826 -0.95441,1.14572 -2.02151,2.17883c-0.71634,0.69351 -1.11682,1.00381 -1.88916,1.6825c-0.39505,0.34714 -1.59354,1.46796 -1.98917,1.88135c-0.40314,0.42123 -1.19128,1.30643 -1.57932,1.75732c-0.76724,0.89157 -1.1279,1.33859 -1.85419,2.16666c-0.67435,0.76886 -1.32892,1.46298 -1.64581,1.79169c-0.61301,0.63586 -1.51883,1.54367 -2.12085,2.14032c-0.59802,0.59268 -1.18942,1.17706 -1.79999,1.716c-0.88535,0.78146 -1.50681,1.24011 -2.14166,1.70618c-0.67038,0.49213 -1.79282,1.31104 -2.20084,1.62164c-0.86072,0.65524 -1.29611,0.99936 -2.17084,1.67084c-0.42349,0.32507 -1.57507,1.20407 -2.23599,1.63202c-0.57565,0.37274 -1.45984,0.81354 -2.51733,1.22131c-0.41672,0.16071 -1.3515,0.49048 -2.375,0.83334c-0.52826,0.17697 -1.05872,0.35803 -2.625,0.83334c-0.48935,0.1485 -1.41782,0.41397 -2.29169,0.64581c-0.83154,0.22061 -2.0412,0.52271 -2.84433,0.72086c-0.81821,0.20187 -1.23734,0.3074 -2.11166,0.5c-1.4164,0.31201 -1.92787,0.40247 -2.991,0.59998c-0.5451,0.10126 -1.64436,0.29807 -2.18933,0.40002c-1.57307,0.29434 -2.06242,0.39859 -2.9865,0.59549c-0.85658,0.18253 -1.64819,0.37534 -2.75217,0.53784c-0.67902,0.09995 -1.64749,0.15009 -2.26218,0.21933c-1.20894,0.13617 -2.12393,0.38113 -2.77649,0.522c-0.69678,0.15042 -1.86986,0.31253 -2.72884,0.37265c-0.87778,0.06143 -1.74236,0.0575 -2.89917,0.21933c-0.64828,0.0907 -1.4375,0.33334 -2.5,0.66669l-0.78934,0.13065l-0.72533,0.03467" id="svg_4" stroke-width="2" stroke="#000" fill="none"/>
  <path t="9466,9509,9517,9561,9577,9585,9601,9601,9616,9632,9649,9649,9664,9664,9664,9680,9680,9680,9697,9697,9714,9714,9730,9730,9747,9766,9766,9780,9780,9797,9814,9814,9830,9847,9873,9937,9953,9965,9988,9988,10012,10048,10056,10108,10132,10152,10208,10236,10252,10265,10266,10281,10298,10298,10315,10315,10331,10331,10348,10348,10348,10365,10365,10380,10380,10380,10397,10460,10460,10504,10520,10536,10552,10552,10563,10580,10598,10598,10613,10613,10613,10630,10630,10647,10647,10648,10663,10663,10663,10680,10680,10680,10698,10698,10698,10698,10717,10717,10717,10731,10748,10748,10748,10763,10764,10780,10780,10798,10798,10813,10813,10813,10830,10830,10848,10848,10848,10864,10864,10880,10881,10932,10940,10948,10963,10963,10980,10996,10996,11084,11085,11092,11099,11114,11114,11131,11131,11148,11148,11164,11164,11164,11181,11181,11198,11198,11198,11216,11216,11300,11332,11332,11336,11347,11348,11363,11380,11381,11397,11414,11414,11414,11430,11431,11447,11448,11464,11464,11464,11480,11481,11481,11481,11497,11498,11514,11514,11531,11531,11548,11548,11564,11564,11564,11581,11581,11598,11598,11598,11614,11631,11631,11648,11648,11664,11681,11698,11714,11714,11732,11732,11748,11780,11798,11824,11832,11856,11872,11881,11898,11914,11914,11931,11948,11948,11968,11968,11992,11992,12004,12021,12031,12105" d="m198,294c-3.31734,0.436 -3.76712,1.29727 -4.284,1.91599c-0.54884,0.65695 -0.85257,1.44064 -0.43201,2.28403c0.32993,0.66162 0.68181,1.55511 1.15201,2.19998c0.56857,0.77979 1.2,1.23599 1.8855,1.92151c0.5145,0.5145 1.08299,1.08301 1.87833,1.87833c0.58951,0.58951 1.16058,1.12585 1.91484,1.91617c0.59499,0.62344 1.07053,1.3768 1.48534,2.05865c0.57959,0.95273 1.14635,1.47842 1.6955,2.12534c0.64076,0.75482 0.74236,1.60339 1.06166,2.35269c0.30446,0.71448 0.93608,1.59647 1.64284,2.34732c0.47467,0.50427 0.74773,1.33453 1.00133,2.19867c0.24638,0.83951 0.73608,1.36121 1.43468,1.76532c0.7487,0.43311 1.71588,0.39624 2.364,0.75201c0.79559,0.43674 1.37106,1.09674 2.2,1.284c0.88371,0.19965 0.74373,1.22491 1.22133,1.87866c0.51071,0.6991 0.77867,1.32135 0.77867,2.22134c0,0.89999 0,1.69998 0,2.53598c0,1.02118 0,1.76852 0,2.76401c0,0.80002 0,1.80002 0,2.60001c0,1 0,1.79999 0,2.60001c0,1.00449 0,1.85715 0,2.82117c0,0.79349 0,1.569 0,2.60815c0,0.97067 -0.20946,1.80914 0.05716,2.67068c0.26804,0.86615 1.30231,1.1131 2.04285,1.52148c0.67448,0.37195 1.27367,1.21008 2.09999,1.69583c0.77734,0.45697 1.19728,1.23013 1.96667,1.74933c0.59888,0.40414 1.45654,0.34616 2.43333,0.69052c0.82253,0.28995 1.59436,0.75497 2.42082,1.14282c0.66002,0.30975 1.6564,0.71921 2.47917,0.97916c0.80984,0.25586 1.82013,0.42072 2.52083,0.54169c0.75197,0.12982 1.95164,0.53827 2.62984,0.84048c0.70346,0.31348 1.38287,0.65295 2.30617,1.11716c0.76178,0.383 1.56723,0.80322 2.41783,1.42151c0.80373,0.5842 1.45842,1.00558 2.02983,1.30002c0.98923,0.5097 1.7876,0.85687 2.57417,1.39999c0.67264,0.46448 1.33354,1.01669 2.04216,1.39999c0.96704,0.52307 1.57948,0.79938 2.37917,1.20001c0.99905,0.50055 1.66096,0.72495 2.43333,1.46664c0.61497,0.59055 0.84387,1.26044 1.65067,1.948c0.63786,0.54358 1.42038,1.10031 2.2115,1.52817c0.81129,0.43878 1.33627,-0.40915 0.78368,-1.14282c-0.50165,-0.66605 -1.17303,-1.17966 -1.47917,-2.02084c-0.34396,-0.94516 -0.61288,-1.68872 -1,-2.47916c-0.38084,-0.77759 -0.68547,-1.87701 0.10001,-2c0.88916,-0.13922 1.66617,0.03104 2.55716,0.35266c0.7556,0.27277 1.74631,0.54028 2.54285,0.67267c1.00525,0.16708 1.78818,0.5108 2.39999,0.69067c0.98892,0.29074 1.8645,0.29901 2.82117,0.50534c0.80087,0.17273 1.56415,0.44559 2.60815,0.69464c0.76471,0.18243 1.9043,0.69601 1.80402,0.08401c-0.1207,-0.7366 -1.25952,-1.21674 -1.66669,-2c-0.38669,-0.74384 -0.68222,-1.50516 -1.36667,-2.20001c-0.59543,-0.60449 -1.17267,-1.25125 -1.96664,-1.79999c-0.64145,-0.44333 -1.43802,-0.79337 -2.23203,-1.20001c-0.76862,-0.39362 -1.60352,-0.87296 -2.22665,-1.43597c-0.72504,-0.65509 -1.20621,-1.21683 -1.83633,-1.76852c-0.93767,-0.82095 -1.48529,-1.19266 -2.27699,-1.75949c-0.49126,-0.35172 -1.43071,-1.10574 -2.00951,-1.53149c-0.87936,-0.64685 -1.46404,-0.90146 -2.45166,-1.40451c-0.78058,-0.39758 -1.63591,-0.89676 -2.17484,-1.29999c-0.79558,-0.59525 -1.45789,-1.00668 -2.22667,-1.39999c-0.99428,-0.50867 -1.60042,-0.79651 -2.5985,-1.30002c-0.59056,-0.29791 -1.28923,-0.7392 -2.17484,-1.28934c-0.77127,-0.47913 -1.66975,-0.466 -2.60384,-0.832c-0.65703,-0.25745 -1.53584,-0.62625 -2.42149,-0.78934c-0.83142,-0.15311 -1.58734,-0.90137 -2.35718,-0.98483c-0.89029,-0.09653 -1.77837,0.16879 -2.722,-0.02533c-0.8672,-0.17841 -1.67055,-0.56427 -2.35416,-1.14581c-0.66602,-0.56659 -1.14867,-1.2688 -1.16667,-2.13333c-0.01874,-0.89984 0.18134,-1.85349 -0.16667,-2.70001c-0.27589,-0.67108 -0.81532,-1.41016 -0.83333,-2.3215c-0.01756,-0.88898 0,-1.87833 0,-2.65765c0,-0.99933 0,-1.81952 0,-2.72086l0,-0.89999l0,-0.87915l0,-0.87802" id="svg_5" stroke-width="2" stroke="#000" fill="none"/>
 </g>
 <g display="none">
  <title>muse_image</title>
  <image xlink:href="http://farm4.static.flickr.com/3651/3297827570_7994707e11.jpg" id="muse" height="480" width="321" y="0" x="159.5"/>
 </g>
 <g display="none">
  <title>bbox</title>
  <rect stroke="#f00" fill="none" stroke-width="3" height="197.76" width="248.17612" y="125.76" x="178.66418" id="bbox"/>
 </g>
</svg>
