<svg width="640" height="480" xmlns="http://www.w3.org/2000/svg" xmlns:svg="http://www.w3.org/2000/svg" xmlns:xlink="http://www.w3.org/1999/xlink">
 <!-- Sketchy ANNOTATION
  ImageNet ID: n01534433_1271
  URL: http://farm3.static.flickr.com/2242/2116411512_2569313ba9.jpg
  Image Width: 500
  Image Height: 403
  BBox X: 0
  BBox Y: 62
  BBox Width: 416
  BBox Height: 336
  Exposure: 2000ms
  Synset Label: songbird
  Synset ID: n01526521
  Worker Tag: puffy brown bird
  Sanity Check: 
   Saved
  Comment: 
   {}
  Worker ID: A1VGZ2K3HF66TE
  Assignment ID: 3N2BF7Y2VQUDQZ7RF9XITNIGY6RHMX
  HIT ID: 3A9LA2FRWSEMXR813EUPFK3T1V8XHM
  Work Time: 57s
  Worker Score: 0.6786
 END ANNOTATION -->
 <g display="inline">
  <title>Layer 1</title>
  <path t="0,177,177,178,178,178,178,178,196,197,197,197,197,197,197,198,198,228,229,229,229,229,230,230,230,230,240,240,240,240,241,241,241,241,260,260,261,261,273,274,291,292,292,343,443,454,455,455,455,455,455,456,456,464,466,467,467,467,467,467,467,491,492,492,492,494,494,494,495,495,510,510,510,511,531,740,756,757,757,757,757,757,758,758,785,789,789,789,789,790,790,798,799,799,799,800,825,826,826,859,874,875,875,875,909,1005,1023,1023,1024,1024,1024,1025,1040,1041,1041,1042,1042,1042,1043,1075,1076,1077,1078,1078,1079,1079,1090,1091,1092,1092,1092,1093,1093,1094,1094,1120,1121,1121,1122,1122,1122,1123,1123,1124,1128,1129,1129,1130,1158" d="m360,145c7.47916,0 8.12,0 8.76083,0c0.64584,0 1.9725,0 2.66333,0c0.71585,0 2.24249,0.00142 3.06149,-0.0005c0.853,-0.00201 1.73413,-0.00726 2.63702,-0.03149c0.91916,-0.02466 1.84875,-0.06548 2.78098,-0.1395c0.93188,-0.07399 2.76553,-0.31529 3.65283,-0.49234c0.87152,-0.17389 1.71667,-0.38573 2.53952,-0.6015c0.80084,-0.21001 1.57315,-0.42847 2.32349,-0.61949c0.72043,-0.18341 2.07874,-0.46376 2.71585,-0.52968c0.60599,-0.0627 1.18866,-0.07651 1.746,-0.0735c0.53537,0.0029 1.54831,0.05585 2.02933,0.03734c1.37085,-0.05275 2.2254,-0.28046 2.98517,-0.57016c0.97757,-0.37276 1.89066,-0.9196 2.52548,-0.9765c0.99338,-0.08904 1.69467,-0.00267 2.75818,-0.00267c0.99167,0 0.65393,0.06273 -0.51285,0.5c-0.43829,0.16426 -1.51431,0.56438 -2.13333,0.78667c-0.65762,0.23615 -1.3454,0.47705 -2.05499,0.71249c-0.71707,0.23795 -2.14285,0.67545 -2.83585,0.85817c-1.33768,0.35271 -2.00235,0.49254 -2.66333,0.64267c-0.66571,0.1512 -1.34299,0.29977 -2.0325,0.468c-1.44955,0.35367 -2.211,0.5715 -2.99466,0.79866c-0.79739,0.23114 -1.59595,0.47357 -2.3895,0.71251c-0.77844,0.23439 -1.53018,0.46831 -2.25449,0.6675c-1.87158,0.51471 -2.38739,0.62766 -3.26001,0.74533c-0.94562,0.12752 -2.04401,0.108 -1.47635,0.108c1.095,0 2.27509,0.00018 2.97751,0.0135c0.7576,0.01437 1.55551,0.04042 2.3775,0.0945c0.8331,0.05481 1.66934,0.09378 3.23999,0.392c0.7309,0.13876 1.40863,0.34061 2.043,0.5535c0.60294,0.20233 1.69522,0.65019 2.21066,0.83133c1.39865,0.49153 2.29373,0.6169 3.13303,0.58183c0.80264,-0.03352 1.55643,-0.21295 2.62466,-0.34515c0.64957,-0.08038 1.5033,-0.11617 2.65048,-0.12151c1.00485,-0.00467 1.59018,0 2.65067,0c0.70035,0 1.78186,-0.07639 1.30484,0.144c-0.85538,0.3952 -1.49249,0.99672 -1.92249,1.27116c-0.96085,0.61327 -1.48215,0.93265 -2.03134,1.23134c-1.64249,0.89331 -2.2041,1.10172 -2.74615,1.29883c-1.05008,0.38185 -1.58243,0.51889 -2.63669,0.79834c-0.53055,0.14064 -2.17026,0.57587 -2.73932,0.743c-0.58832,0.17279 -1.1973,0.36005 -2.49869,0.76001c-0.69965,0.21503 -1.43558,0.44588 -3.04266,0.92c-0.87238,0.25737 -1.78534,0.51813 -2.72998,0.77249c-0.96204,0.25906 -1.93472,0.50684 -2.91,0.72751c-0.96149,0.21756 -1.89996,0.44145 -3.69333,0.66666c-0.82288,0.10333 -1.60248,0.13873 -2.33401,0.1515c-0.68723,0.01201 -1.33267,-0.00627 -1.93799,-0.0195c-0.56735,-0.01241 -1.10211,-0.06046 -2.06134,0.03467c-0.43741,0.04338 -1.21051,0.2625 -2.12399,0.66l-0.836,0.66933" id="svg_1" stroke-width="2" stroke="#000" fill="none"/>
  <path t="1623,1806,1806,1806,1806,1806,1806,1806,1823,1823,1823,1823,1823,1823,1823,1824,1824,1840,1841,1841,1841,1841,1841,1842,1842,1842,1863,1863,1863,1863,1863,1863,1864,1864,1892,1892,1893,1893,1893,1894,1894,1909,1910,1910,1910,1910,1910,1911,1911,1911,1923,1924,1924,1925,1925,1925,1943,1943,1944,1944,1944,1974,1974,1974,1975,1990,1990,1990,1991,1991,1991,1991,2006,2006,2007,2007,2008,2009,2009,2030,2030,2030,2031,2031,2031,2058,2058,2058,2059,2059,2059,2060,2076,2077,2078,2078,2078,2079,2079,2080,2080,2093,2093,2094,2094,2095,2095,2096,2096,2097,2139,2140,2140,2141,2141,2141,2142,2142,2142,2147,2147,2148,2148,2148,2148,2149,2149,2150,2156,2157,2158,2158,2159,2159,2174,2175,2175,2175,2176,2176,2176,2207,2208,2208,2208,2209,2210,2225,2226,2227,2227,2228,2228,2228,2229,2229,2247,2248,2248,2248,2249,2250,2256,2257,2257,2258,2258,2292,2293,2294,2294,2295,2296,2310,2311,2312,2312,2313,2313,2314,2316,2326,2327,2328,2329,2330,2330,2354,2355,2355,2356,2356,2356,2373,2374,2375,2376,2377,2377,2378,2393,2394,2395,2395,2395,2396,2397,2397,2406,2479,2480,2481,2481,2481,2496,2497,2498,2498,2501,2502,2502,2524,2525,2525,2526,2526,2527,2528,2528,2529,2540,2541,2542,2542,2543,2544,2544,2545,2545,2556,2559,2560,2561,2562,2563,2564,2565,2566,2591,2593,2593,2594,2595,2596,2597,2598,2599,2611,2612,2614,2616,2618,2620,2621,2624,2625,2632,2633,2634,2635,2635,2636,2637,2638,2639,2645,2647,2647,2648,2649,2650,2651,2652,2653,2680,2682,2682,2684,2685,2686,2687,2689,2690,2708,2711,2712,2713,2714,2715,2716,2716,2717,2724,2726,2726,2727,2728,2729,2729,2730,2731,2744,2745,2747,2748,2749,2750,2751,2751,2752" d="m364,143c-0.44333,-8.3575 -0.56329,-9.03569 -0.72333,-9.69917c-0.16,-0.66333 -0.3493,-1.32513 -0.57001,-1.98749c-0.45792,-1.37424 -1.03714,-2.8145 -1.34949,-3.57751c-0.32355,-0.79038 -0.66547,-1.599 -1.01852,-2.4225c-0.35791,-0.83485 -0.72348,-1.67355 -1.09048,-2.5125c-0.36499,-0.83439 -1.08121,-2.46764 -1.42685,-3.2575c-0.33701,-0.77013 -0.66568,-1.52135 -0.99597,-2.25c-0.32245,-0.71132 -0.64502,-1.4028 -0.97803,-2.07c-0.32581,-0.65279 -1.00616,-1.89478 -1.36884,-2.48c-0.3562,-0.57479 -0.72882,-1.12495 -1.11447,-1.65c-0.3782,-0.51494 -0.76309,-1.00998 -1.16852,-1.46999c-1.1629,-1.31945 -1.58813,-1.68938 -2.00082,-2.054c-0.82175,-0.72604 -1.26556,-1.06647 -2.22333,-1.7175c-0.50626,-0.34412 -1.63577,-1.02244 -2.25684,-1.37317c-0.64954,-0.36681 -1.32877,-0.73303 -2.02652,-1.104c-0.70792,-0.37638 -1.42282,-0.74905 -2.13449,-1.12199c-0.70297,-0.36839 -2.05609,-1.08128 -3.29483,-1.76467c-0.57938,-0.31963 -1.12881,-0.63158 -1.65451,-0.9255c-0.97537,-0.54535 -2.26611,-1.23911 -2.66132,-1.41933c-1.06952,-0.48774 -1.75061,-0.71585 -2.42551,-0.85516c-1.03085,-0.21278 -1.7876,-0.24155 -2.60068,-0.26717c-0.89236,-0.02811 -2.41666,-0.02225 -2.98083,-0.02033c-0.58914,0.00201 -1.82288,0.0242 -2.45667,0.062c-0.63965,0.03815 -1.29657,0.01826 -3.14581,0.4375c-0.59766,0.13549 -1.17606,0.32481 -2.26135,0.808c-0.53738,0.23925 -1.0578,0.51148 -2.06934,1.096c-1.00992,0.58359 -2.00171,1.19533 -2.49817,1.496c-0.4942,0.29932 -1.4707,0.89648 -1.94733,1.2c-1.39713,0.88971 -1.8421,1.19251 -2.71799,1.818c-0.44882,0.32052 -0.90744,0.65795 -1.86334,1.41067c-0.51901,0.40868 -1.6442,1.33598 -2.26132,1.85717c-0.65366,0.55203 -1.332,1.1357 -2.02652,1.7475c-0.71121,0.62648 -1.42599,1.26973 -2.13449,1.9275c-0.70615,0.65559 -2.05801,1.96809 -2.68884,2.61733c-0.61172,0.62959 -1.19125,1.2533 -1.746,1.8645c-0.53784,0.59255 -1.05093,1.17442 -1.54797,1.7385c-0.48163,0.54659 -1.40268,1.58671 -1.84933,2.0765c-0.43607,0.47818 -0.87024,0.94459 -1.29602,1.41299c-0.42688,0.4696 -0.85483,0.94844 -1.27798,1.44901c-0.43567,0.51537 -1.31894,1.64339 -1.76849,2.2655c-0.46667,0.64581 -0.92862,1.31989 -1.39352,2.0055c-0.46609,0.68739 -0.92239,1.37308 -1.37549,2.0415c-0.43893,0.64755 -1.2601,1.84714 -2.04184,2.84383c-0.35532,0.45303 -1.06372,1.26547 -1.41867,1.64267c-0.70889,0.75334 -1.48267,1.51466 -1.892,1.924c-0.86267,0.86267 -1.30798,1.308 -1.75732,1.75734c-0.44934,0.44934 -1.33237,1.33165 -2.16666,2.16667c-0.767,0.76765 -1.13589,1.1337 -1.85419,1.875c-0.36755,0.37932 -1.13702,1.19286 -1.97916,2.125c-0.46652,0.51639 -0.95258,1.06882 -1.45801,1.644c-0.51859,0.59015 -1.04169,1.18959 -1.56598,1.78799c-0.51773,0.59093 -1.0192,1.16966 -1.97601,2.23466c-0.83713,0.93179 -1.2402,1.32948 -1.89584,2.125c-0.59552,0.7226 -0.90216,1.0708 -1.46149,2.2845c-0.38937,0.84492 -0.48605,1.32048 -0.79333,2.24251c-0.31128,0.93402 -0.66086,1.85907 -1.11868,2.73466c-0.46985,0.89859 -0.76556,1.33487 -1.28247,2.30417c-0.27298,0.5119 -0.79056,1.63901 -1.02667,2.26117c-0.24561,0.64716 -0.68781,2.01529 -0.90067,2.71466c-0.21246,0.69798 -0.41171,1.39075 -0.61951,2.064c-0.39261,1.27206 -0.79605,2.3994 -1.00134,2.91634c-0.39001,0.98203 -0.60562,1.44662 -1,2.38499c-0.40581,0.96558 -0.80165,2.00204 -0.9865,2.54451c-0.18726,0.54958 -0.52722,1.6707 -0.642,2.242c-0.33549,1.66989 -0.32463,2.22713 -0.31799,3.30449c0.00333,0.53979 0.04971,1.08548 0.03133,2.21068c-0.00961,0.588 -0.1134,1.84126 -0.42484,3.18365c-0.1642,0.70776 -0.3858,1.41713 -0.6225,2.12851c-0.23668,0.71136 -0.492,1.40811 -0.75751,2.0835c-0.50139,1.27541 -0.99222,2.39842 -1.22282,2.91316c-0.43176,0.96373 -0.64981,1.41597 -1.05583,2.30417c-0.40465,0.88518 -0.81133,1.82491 -1.04184,2.34016c-0.25328,0.56616 -0.87888,1.8968 -1.274,2.68468c-0.44826,0.8938 -1.58011,3.03145 -2.27882,4.29483c-0.76743,1.3876 -1.60957,2.86882 -2.52,4.41899c-0.94598,1.61069 -1.93634,3.24916 -2.97,4.88701c-1.03305,1.63687 -3.13548,4.77148 -4.19467,6.22166c-1.0188,1.39488 -2.04079,2.70589 -3.054,3.942c-0.97459,1.189 -1.94292,2.30704 -2.892,3.366c-0.91254,1.01819 -2.67485,2.89909 -3.51115,3.77884c-0.80505,0.84688 -1.58624,1.65987 -2.33551,2.4525c-0.72701,0.76909 -1.43051,1.52199 -2.1015,2.27249c-0.65828,0.73628 -1.90121,2.22231 -2.48517,2.98201c-0.58139,0.75636 -1.13818,1.52638 -1.692,2.29349c-0.55151,0.7639 -1.09608,1.52789 -1.65599,2.27551c-0.5575,0.7444 -1.718,2.18547 -2.33783,2.86665c-0.61899,0.68027 -1.2679,1.33255 -1.9395,1.96051c-0.67216,0.62848 -1.36887,1.23238 -2.08351,1.8165c-0.71608,0.58528 -2.19759,1.70354 -2.95599,2.24567c-0.76559,0.54727 -1.55363,1.08945 -2.35651,1.6485c-0.82614,0.57526 -1.67979,1.1721 -2.55449,1.8105c-0.9135,0.66672 -2.83932,2.15442 -3.85184,2.98965c-1.05444,0.86981 -2.12064,1.78784 -3.19501,2.7345c-1.08234,0.95367 -2.14932,1.91846 -3.19499,2.87851c-1.02095,0.93735 -2.92668,2.72372 -3.79651,3.55185c-0.82208,0.78265 -1.60037,1.53326 -2.3445,2.259c-0.72282,0.70496 -1.42874,1.40189 -2.12849,2.09698c-0.70427,0.69958 -2.15575,2.15076 -2.91983,2.9155c-0.79059,0.79126 -1.60362,1.60605 -2.433,2.44351c-0.84531,0.85355 -1.70039,1.72232 -2.55901,2.6055c-0.86407,0.88882 -2.58144,2.68234 -3.42366,3.58951c-0.8512,0.91681 -1.71214,1.87042 -2.58,2.88898c-0.91605,1.0751 -1.86429,2.24756 -2.85001,3.53702c-1.06863,1.39792 -3.40033,4.66397 -4.68117,6.55515c-1.36925,2.02173 -2.77003,4.16214 -4.1835,6.38251c-1.43102,2.24792 -2.81734,4.51334 -4.1655,6.74249l-1.27716,2.16418" id="svg_2" stroke-width="2" stroke="#000" fill="none"/>
  <path t="3175,3489,3489,3489,3489,3489,3489,3524,3525,3525,3526,3526,3526,3526,3551,3551,3551,3551,3551,3551,3551,3557,3557,3557,3557,3558,3558,3572,3573,3573,3573,3610,3610,3610,3611,3611,3623,3624,3624,3624,3625,3625,3625,3645,3646,3647,3647,3647,3647,3657,3658,3658,3658,3658,3690,3691,3691,3691,3691,3691,3706,3706,3706,3707,3707,3708,3709,3710,3710,3742,3742,3743,3743,3743,3743,3744,3744,3744,3753,3753,3754,3754,3754,3754,3777,3778,3778,3779,3779,3779,3779,3791,3792,3792,3792,3793,3793,3793,3794,3794,3806,3807,3807,3808,3808,3808,3809,3810,3810,3840,3841,3841,3841,3842,3842,3842,3873,3873,3874,3874,3874,3875,3875,3880,3881,3881,3882,3882,3882,3883,3891,3892,3892,3892,3893,3893,3893,3925,3925,3926,3926,3926,3926,3941,3941,3942,3942,3942,3943,3943,3944,3961,3962,3963,3964,3964,3965,3965,3965,3966,3973,3973,3974,3974,3974,3975,3975,3975,3975,3991,3991,3992,3992,3992,3993,3993,3994,3994,4031,4031,4032,4032,4032,4033,4033,4033,4034,4039,4040,4041,4041,4042,4044,4045,4045,4046,4057,4058,4058,4058,4059,4059,4060,4060,4060,4090,4091,4091,4092,4092,4093,4093,4094,4095,4107,4108,4108,4109,4109,4110,4110,4110,4111,4124,4125,4126,4127,4128,4128,4129,4130,4130,4159,4160,4160,4161,4161,4162,4162,4162,4163,4176,4177,4177,4178,4179,4179,4180,4181,4181,4194,4195,4195,4196,4196,4197,4198,4198,4199,4208,4211,4212,4213,4213,4214,4214,4215,4215,4225,4226,4226,4227,4228,4229,4231,4232,4233,4257,4259,4260,4260,4261,4262,4262,4263,4264,4294,4296,4297,4297,4298,4299,4299,4300,4300,4307,4308,4309,4310,4310,4311,4312,4313,4313,4322,4323,4325,4325,4326,4326,4327,4328,4328,4342,4343,4343,4344,4344,4345,4346,4346,4347,4357,4359,4359,4360,4361,4361,4362,4362,4363,4374,4375,4376,4377,4379,4380,4381,4382,4382,4395,4397,4399,4401,4402,4402,4403,4404,4405,4427,4428,4429,4430,4431,4432,4433,4433,4434,4442,4444,4444,4445,4446,4446,4447,4447,4448,4465,4467,4467,4468,4471,4472,4474,4475,4475,4482,4485,4487,4488,4489,4490,4492,4493,4494,4509,4511,4512,4514,4515,4516,4529,4530,4531,4538,4541,4542,4543,4545,4547,4548,4549,4556,4577,4579,4580,4580,4582,4583,4583,4584,4585" d="m371,159c-5.71384,8.1355 -6.06552,8.73975 -6.36682,9.32851c-0.28635,0.55956 -0.76752,1.63458 -0.95801,2.15799c-0.54608,1.50035 -0.65872,2.01257 -0.927,3.02251c-0.13593,0.5117 -0.40628,1.5639 -0.55801,2.10533c-0.15616,0.55728 -0.73087,2.32892 -0.95547,2.95366c-0.22937,0.63794 -0.4718,1.27997 -0.69302,1.93201c-0.43747,1.28952 -0.65305,1.92204 -0.875,3.16667c-0.10455,0.58626 -0.15729,1.71045 -0.13333,2.23999c0.04535,1.00166 0.21167,1.91704 0.34518,3.1505c0.07919,0.73155 0.10974,1.42188 0.12015,2.42551c0.01077,1.03928 0.00134,1.78799 0.00134,2.60066c0,0.89267 0,1.37401 0,2.98083c0,0.58917 0,1.19833 0,2.45667c0,0.63918 0,1.27834 0,1.91251c0,1.82367 0,2.396 0,3.49466c0,0.53033 0,1.563 0,2.06934c0,1.5025 0,2.49817 0,2.992c0,0.97467 0,1.92534 0,2.84399c0,0.88934 0,1.79468 0,2.772c0,0.53317 -0.00043,1.10533 0,2.39467c0.00024,0.7285 -0.00015,1.50806 0.01349,2.3295c0.01419,0.85458 0.04025,1.73349 0.09451,2.6265c0.05469,0.90009 0.0997,1.80344 0.392,3.54401c0.14096,0.83939 0.34268,1.64427 0.5625,2.41949c0.21384,0.75418 0.45456,1.47763 0.69751,2.1765c0.2355,0.67746 0.49503,1.32199 0.90665,2.57068c0.38159,1.15753 0.53482,1.7189 0.77084,2.8125c0.11511,0.53343 0.29083,1.60179 0.39584,2.6875c0.05368,0.55492 0.11551,1.71294 0.14133,2.32266c0.02692,0.6356 0.04303,1.30167 0.10934,2.73866c0.0741,1.60574 0.1337,2.47862 0.20264,3.38934c0.07095,0.93732 0.15451,1.88857 0.255,2.84099c0.09958,0.9436 0.20639,1.86603 0.345,2.75101c0.255,1.6281 0.4274,2.34258 0.59467,2.99867c0.15588,0.61151 0.32544,1.18188 0.47702,1.72949c0.147,0.5311 0.30124,1.05475 0.38699,1.59451c0.27676,1.74191 0.20856,2.40555 0.18765,3.08316c-0.02151,0.69717 -0.07089,1.40598 -0.129,2.11951c-0.11523,1.41525 -0.24109,2.76508 -0.2825,3.40115c-0.03976,0.61063 -0.08893,1.7774 -0.10065,2.34332c-0.02322,1.12155 -0.02017,1.6875 -0.02084,2.85419c-0.0007,1.23599 0,1.8765 0,2.52798c0,0.65952 0,1.99051 0,2.65601c0,1.31601 0,1.961 0,2.59601c0,1.23999 0,1.845 0,2.44c0,1.16 0.00766,2.28006 -0.004,3.36264c-0.00574,0.5314 -0.04474,1.58539 -0.104,2.10934c-0.12018,1.06219 -0.35825,2.15271 -0.75198,3.26266c-0.20743,0.58472 -0.47101,1.17365 -0.76501,1.77451c-0.30573,0.62482 -0.64972,1.26236 -1.035,1.90948c-0.81836,1.37448 -1.29968,2.07382 -1.79468,2.79602c-0.5076,0.7406 -1.0394,1.48505 -1.58698,2.23199c-0.55109,0.75174 -1.11136,1.49719 -1.677,2.23199c-1.10822,1.43967 -1.65649,2.12796 -2.20001,2.79602c-0.53391,0.65622 -1.07077,1.29514 -1.62299,1.90948c-0.54922,0.61102 -1.1127,1.20944 -1.71301,1.77451c-1.22025,1.14859 -1.90326,1.67468 -2.60001,2.20132c-0.70593,0.53357 -1.43878,1.04575 -2.18698,1.54501c-0.75049,0.50079 -1.51199,0.98434 -2.27701,1.45499c-1.50943,0.92862 -2.25912,1.3696 -3.00934,1.80402c-0.75745,0.4386 -1.53891,0.87509 -2.3595,1.3035c-0.858,0.44794 -1.77377,0.90182 -2.7645,1.34848c-2.20193,0.99274 -3.45923,1.4798 -4.79199,1.99734c-1.39349,0.54114 -2.83969,1.07791 -4.31851,1.61249c-1.49051,0.53879 -2.98059,1.06342 -4.45349,1.5675c-2.81406,0.96304 -4.13251,1.39093 -5.384,1.79733c-1.19019,0.38651 -2.32657,0.74832 -3.41251,1.09351c-1.04074,0.33081 -2.0426,0.64609 -3.00751,0.9585c-1.84845,0.59845 -2.73904,0.90317 -3.62265,1.20667c-0.8884,0.30515 -1.79147,0.62027 -2.724,0.939c-0.97144,0.33203 -1.99411,0.67853 -3.08401,1.02902c-2.41187,0.77563 -3.76163,1.17526 -5.18933,1.59598c-1.4856,0.43777 -3.0127,0.87564 -4.56,1.3125c-1.54602,0.43646 -3.07266,0.86084 -4.56,1.26752c-2.77209,0.75797 -4.02475,1.09216 -5.19202,1.396c-1.09348,0.28464 -2.12918,0.54498 -3.12299,0.77399c-0.96097,0.22144 -1.90649,0.42441 -2.853,0.59402c-1.93451,0.34668 -2.95679,0.47238 -4.008,0.60532c-1.07413,0.13583 -2.16534,0.25867 -3.26401,0.384c-1.09866,0.12534 -2.19028,0.24506 -3.26401,0.384c-2.07129,0.26804 -3.05219,0.4342 -4.008,0.59866c-0.94485,0.16257 -1.88986,0.33676 -2.853,0.49649c-0.99155,0.16443 -2.02664,0.32767 -3.12299,0.45151c-2.41481,0.27277 -3.76492,0.33545 -5.19202,0.39868c-1.48627,0.06586 -3.01324,0.10367 -4.56,0.129c-1.54659,0.02533 -3.07332,0.03513 -4.56,0.039c-2.77332,0.00726 -4.02533,0.00266 -5.18933,0.00266c-1.088,0 -2.112,0 -3.084,0c-0.93201,0 -1.836,0 -2.724,0c-1.776,0 -2.68517,0 -3.60934,0c-0.93416,0 -1.87332,0 -2.8125,0c-0.93416,0 -1.85832,0 -2.7675,0c-1.75333,0 -2.59065,0 -3.41199,0c-0.81934,0 -1.65067,0 -2.50801,0c-0.89732,0 -1.84866,0 -2.868,0c-2.29866,0 -3.60001,0 -4.98933,0c-1.45534,0 -2.95467,0 -4.476,0c-1.52133,0 -3.02066,0 -4.476,0c-2.69067,0 -3.88783,0 -4.98801,0c-1.01616,0 -1.96133,0 -2.8485,0c-0.84216,0 -1.65233,0 -2.4435,0c-1.57733,0 -2.38667,0 -3.21201,0c-0.83733,0 -1.68266,0 -2.532,0c-0.84933,0 -1.69467,0 -2.532,0c-1.63467,0 -2.42551,0 -3.20134,0c-0.76582,0 -1.52666,0 -2.28749,0c-0.76584,0 -1.54167,0 -2.3325,0c-1.64667,0 -2.50999,0 -3.39334,0c-0.89333,0 -1.78667,0 -2.67,0c-0.86333,0 -1.69666,0 -2.48999,0c-1.42667,0 -2.04283,0 -2.59601,0c-0.49716,0 -0.94533,0 -1.3515,0c-0.37115,0 -0.71432,0 -1.0365,0c-0.60933,0 -0.90866,0 -1.20399,0c-0.28734,0 -0.56267,0 -0.82201,0c-0.23933,0 -0.45467,0 -0.642,0c-0.27466,0 -0.3555,0 -0.40134,0c-0.01582,0 -0.00665,0 0.02251,0c0.04417,0 0.09833,0 0.1575,0c0.11333,0 0.15849,0 0.19467,0c0.02817,0 0.04933,0 0.0645,0c0.01016,0 0.01633,0 0.0195,0c0.00133,0 0.00066,0 -0.00401,0c-0.01266,0 -0.03732,0 -0.07799,0c-0.06067,0 -0.14534,0 -0.25801,0c-0.32533,0 -0.54399,0 -0.79466,0c-0.27466,0 -0.56534,0 -0.864,0c-0.29866,0 -0.58934,0 -0.864,0c-0.46933,0 -0.65181,0.01224 -0.79466,-0.01334c-0.1152,-0.02063 -0.2119,-0.08594 -0.25801,-0.19501c-0.06114,-0.14462 -0.07072,-0.36313 -0.07799,-0.64499c-0.02094,-0.81308 -0.01056,-1.36197 0.00533,-2.00134c0.01793,-0.72171 0.05855,-1.51767 0.15601,-2.37448c0.10414,-0.91562 0.24979,-1.88315 0.51599,-2.86951c0.56488,-2.09305 1.06679,-3.13538 1.604,-4.19601c0.56038,-1.10638 1.23334,-2.216 1.9425,-3.37198l0.76416,-1.19601l0.81416,-1.242l0.85918,-1.29401" id="svg_3" stroke-width="2" stroke="#000" fill="none"/>
  <path t="5015,5239,5240,5240,5240,5258,5318,5327,5328,5328,5328,5328,5366,5371,5371,5371,5371,5371,5389,5390,5390,5423,5432,5432,5432,5432,5432,5432,5457,5457,5457,5457,5458,5472,5490,5491,5491,5491,5507,5508,5508,5510,5510,5526,5540,5541,5541,5541,5542,5574,5574,5574,5575,5593,5626,5626,5626,5627,5627,5627,5633,5634,5634,5635,5635,5678,5683,5683,5683,5683,5684,5690,5696,5696,5697,5697,5707,5742,5742,5743,5743,5757,5758,5774,5775,5775,5775,5775,5776,5776,5804,5805,5805,5806,5824,5840,5842,5843,5844,5844,5861" d="m307,123c4.39917,7.24933 5.16315,7.91881 5.54666,8.13733c0.9361,0.53336 1.64359,0.94002 1.56766,0.51967c-0.18454,-1.02159 0.58893,-1.76921 0.88568,-2.63617c0.14828,-0.43318 1.42096,-1.36756 0.76266,-2.49016c-0.3985,-0.67957 -1.46906,-0.46733 -2.336,-0.832c-0.94635,-0.39806 -1.39594,-0.68741 -2.76001,-1.03201c-0.71005,-0.17937 -1.90161,-0.33636 -2.125,0.45834c-0.29276,1.04137 0.37891,1.86803 0.40118,2.36166c0.04944,1.09615 0.0488,1.67999 0.05267,2.27333c0.01132,1.73997 0.00449,2.27451 0.00449,3.2415c0,0.811 0.00739,1.70155 0.34134,1.56117c0.82349,-0.34615 1.423,-0.50786 2.17334,-0.54134c0.86069,-0.03841 2.327,-0.02133 2.84531,-0.02133c1.02667,0 1.98129,0.11153 2.76001,0c0.76184,-0.1091 0.50937,-1.00479 0.61868,-1.70799c0.13748,-0.88451 0.43549,-1.84708 0.565,-2.3475c0.37314,-1.44191 0.54825,-2.28176 0.62433,-3.0045c0.08972,-0.85261 0.00143,-1.88859 -1.09467,-1.94c-0.82446,-0.03867 -1.31653,-0.00517 -2.39584,0.0625c-0.56888,0.03567 -1.16513,0.00368 -2.77084,0.4375c-0.48962,0.13228 -1.34714,0.51291 -2,0.97916c-0.75418,0.53861 -0.81711,1.47063 -0.5665,2.41351c0.12317,0.46336 0.30988,1.57813 0.42068,2.19066c0.11447,0.6328 0.33377,1.90974 0.64581,3.08334c0.14059,0.52884 0.36218,1.48782 0.936,2.39999c0.38205,0.6073 0.88266,-0.29854 1.71783,-0.45233c0.69247,-0.12752 1.44568,0.12323 2.57251,-0.11566c0.70541,-0.14955 1.11078,-1.33061 1.45767,-2.27467c0.20505,-0.55803 0.4191,-1.15717 0.62848,-1.7865c0.21338,-0.64134 0.64246,-1.90953 0.85419,-3.10417c0.17615,-0.99382 0.26227,-1.83975 0.06,-2.436c-0.31223,-0.9203 -1.39133,-0.54432 -2.09467,-0.48267c-0.82764,0.07255 -1.67468,0.07467 -2.42401,0.084l-0.43466,0.00134" id="svg_4" stroke-width="2" stroke="#000" fill="none"/>
  <path t="6996,7207,7207,7208,7208,7208,7208,7208,7208,7208,7226,7226,7226,7226,7226,7227,7227,7227,7227,7240,7241,7241,7241,7242,7242,7242,7242,7242,7257,7257,7258,7258,7258,7258,7258,7258,7260,7290,7291,7291,7291,7291,7292,7292,7292,7292,7307,7308,7308,7309,7309,7309,7310,7310,7310,7323,7324,7324,7324,7325,7325,7325,7326,7326,7340,7340,7341,7341,7382,7383,7383,7391,7392,7392,7392,7393,7393,7393,7394,7394,7409,7410,7410,7411,7411,7411,7412,7412,7412,7423,7423,7424,7424,7424,7425,7425,7425,7426,7459,7460,7460,7460,7461,7461,7461,7461,7462,7473,7474,7474,7474,7475,7476,7477,7477,7477,7490,7490,7491,7491,7492,7492,7492,7493,7493,7507,7508,7508,7509,7510,7511,7511,7512,7512" d="m152,310c-6.33333,8.66666 -7.03593,9.46518 -7.776,10.23599c-0.74858,0.77969 -1.53529,1.54886 -2.349,2.32651c-0.83688,0.7998 -1.7141,1.61279 -2.619,2.46149c-1.92572,1.80609 -2.94289,2.78159 -3.99466,3.79733c-1.08226,1.0452 -2.18285,2.11722 -3.30301,3.19952c-1.12784,1.08972 -2.25607,2.17929 -3.39299,3.24448c-2.2205,2.08038 -3.31788,3.05264 -4.38934,3.99069c-1.04001,0.91052 -2.06018,1.78003 -3.051,2.61899c-0.95855,0.81165 -1.89036,1.58911 -2.781,2.349c-1.68307,1.43597 -2.46072,2.12897 -3.19867,2.80133c-0.70625,0.64346 -1.37151,1.26837 -1.9995,1.87051c-0.59725,0.57266 -1.15755,1.12244 -1.6845,1.64548c-0.96357,0.95642 -1.39754,1.39398 -1.80667,1.80536c-0.38817,0.39032 -0.75869,0.76535 -1.113,1.13248c-0.347,0.35956 -0.68826,0.71899 -1.02299,1.08752c-0.69141,0.7612 -1.04091,1.17398 -1.39734,1.59598c-0.35758,0.42334 -0.70515,0.84439 -1.03799,1.254c-0.3151,0.38779 -0.60391,0.74783 -0.858,1.07401c-0.39498,0.50702 -0.52153,0.67813 -0.6,0.79868c-0.04611,0.07083 -0.05556,0.11017 -0.042,0.10651c0.04008,-0.0108 0.08262,-0.06503 0.138,-0.1185c0.11328,-0.10938 0.15717,-0.15585 0.19333,-0.19202c0.02817,-0.02817 0.48117,-0.25198 1.1715,-0.54266c0.53516,-0.22534 2.08074,-0.87543 3.1205,-1.31418c1.20029,-0.50647 2.53104,-1.06989 3.96,-1.68448c1.5011,-0.6456 3.04223,-1.31635 4.59,-2.00851c1.53222,-0.68521 4.41502,-2.02533 5.7075,-2.67166c1.20727,-0.6037 2.33075,-1.2001 3.3825,-1.79849c1.01313,-0.57639 1.98501,-1.16949 2.9325,-1.78052c0.95261,-0.61432 2.88994,-1.94806 3.90634,-2.6705c1.05437,-0.74945 2.13138,-1.53168 3.2265,-2.33698c1.11057,-0.81665 2.22382,-1.64648 3.3345,-2.48102c1.10397,-0.82947 3.25475,-2.46133 4.28932,-3.254c1.01207,-0.77542 2.00458,-1.54233 2.97751,-2.31299c0.96873,-0.76733 1.931,-1.54681 2.8875,-2.349c0.97026,-0.81375 2.93761,-2.54141 3.94083,-3.46533c1.02359,-0.94266 2.04158,-1.91165 3.04501,-2.89502c0.99323,-0.97336 1.95232,-1.94119 2.86499,-2.89499c0.87378,-0.91315 2.42233,-2.61877 3.07634,-3.39551c0.59605,-0.70789 1.11844,-1.37009 1.584,-1.98151c0.42479,-0.55786 0.80098,-1.07724 1.15199,-1.5495c0.32379,-0.43564 0.92937,-1.20453 1.23534,-1.53348c0.28917,-0.31088 0.57843,-0.58487 0.858,-0.82501c0.25554,-0.21951 0.49867,-0.39999 0.714,-0.55499l0.18733,-0.125" id="svg_5" stroke-width="2" stroke="#000" fill="none"/>
  <path t="8220,8390,8390,8390,8391,8391,8391,8391,8391,8391,8408,8408,8408,8408,8408,8408,8408,8408,8409,8441,8442,8442,8442,8442,8442,8442,8442,8442,8476,8477,8477,8477,8477,8477,8477,8478,8478,8518,8518,8518,8518,8519,8523,8523,8523,8523,8530,8531,8531,8531,8531,8531,8532,8532,8532,8542,8543,8557,8598,8599,8599,8599,8600,8600,8600,8619,8624,8625,8625,8625,8625,8625,8625,8626,8634,8635,8635,8635,8635,8636,8637,8638,8638,8643,8644,8644,8644,8644,8645,8645,8645,8645,8656,8656,8657,8657,8657,8657,8657,8658,8658,8696,8696,8697,8697,8697,8697,8697,8698,8698,8707,8707,8708,8708,8708,8708,8723,8764,8764,8789,8790,8790,8790,8792,8792,8793,8794,8795,8821,8821,8822,8822,8822,8823,8823,8823,8823,8829,8830,8830,8831,8831,8831,8831,8832,8832,8853,8854,8854,8855,8855,8856,8856,8857,8858,8871,8872,8873,8873,8873,8874,8874,8874,8875,8888,8889,8889,8890,8890,8891,8924,8924,8948,8948,8949,8950,8951,8952,8952,8962,8963,8963,8964,8964,8964,8965,8965,8965,8975,8975,8976,8977,8977,8978,8978,8979,8980,9009,9010,9010,9011,9011,9011,9012,9012,9012,9023,9024,9025,9026,9026,9027,9027,9028,9029,9059,9060,9061,9062,9062,9063,9064,9064,9065,9072,9073,9074,9074,9075,9075,9076,9076,9091,9092,9125,9126,9126,9127,9127,9127,9128,9128,9129,9135,9136,9136,9137,9138,9138,9139,9140,9141,9155,9156,9156,9157,9158,9158,9159,9160,9160,9193,9194,9194,9195,9196,9197,9198,9199,9200,9207,9208,9209,9210,9211,9212,9220,9221,9223,9230,9231,9232,9233,9234,9235,9237,9238,9239,9259,9260,9261,9262,9263,9263,9264,9289,9291,9293,9293,9294,9295,9295,9296,9301,9303,9303,9304,9305,9306,9306,9307,9308,9321,9323,9323,9324,9325,9325,9326,9326,9327,9354,9356,9356,9358,9358,9359,9360,9361,9361,9367,9368,9369,9370,9371,9372,9373,9374,9392,9425,9443,9445,9445,9446,9447,9448,9450,9451,9457,9458,9459,9460,9461,9461,9462,9463,9464,9473,9474,9475,9476,9477,9477,9478,9479,9480" d="m283,337c0,11.83334 0,12.97867 0,14.116c0,1.13135 0,2.25867 0,3.384c0,1.12534 0,2.25266 0,3.384c0,2.28265 0,3.43683 0,4.59601c0,1.15915 0,2.31332 0,3.45749c0,1.12918 0,2.23834 0,3.32251c0,2.07333 0,3.0545 0,4.00266c0,0.92218 0,1.82535 0,2.71649c0,0.88617 0,1.77435 0,2.67151c0,1.84933 0,2.81284 0,3.79733c0,0.99649 0,1.996 0,2.9895c0,0.97849 0,1.93301 0,2.85449c0,1.70801 0,2.47867 0,3.19333c0,0.66269 0,1.27734 0,1.84802c0,0.53067 0,1.02533 0,1.48798c0,0.84534 0,1.23502 0,1.60269c0,0.34366 0,0.66132 0,0.95099c0,0.25967 0,0.48734 0,0.681c0,0.27734 -0.17252,0.30099 0.02701,-0.01233c0.59866,-0.94016 1.68674,-0.90021 2.12048,-1.11966c0.99927,-0.50555 1.55313,-0.79086 2.13669,-1.09467c0.6098,-0.31744 1.88348,-0.99414 2.53799,-1.35135c0.66953,-0.36542 1.35416,-0.74661 2.05649,-1.146c0.72668,-0.41324 1.47723,-0.8486 2.25452,-1.30801c0.81076,-0.47919 2.5343,-1.52267 3.45233,-2.08798c0.95267,-0.58664 1.92932,-1.19452 2.92648,-1.81201c1.00851,-0.62451 2.02121,-1.2504 3.03452,-1.866c1.0014,-0.60837 2.95059,-1.76306 3.88882,-2.29315c0.9046,-0.51108 1.78561,-0.9902 2.646,-1.43552c0.83243,-0.43085 1.64761,-0.83185 2.448,-1.20151c0.77844,-0.35953 2.30115,-1.00192 3.04883,-1.28433c0.73114,-0.27615 1.45285,-0.52484 2.16452,-0.7395c0.69217,-0.2088 1.37219,-0.38611 2.03848,-0.5235c0.64465,-0.13293 1.88486,-0.29333 2.47568,-0.31616c0.57083,-0.02206 1.12482,-0.00494 1.66049,0.03302c0.52075,0.0369 1.02554,0.09686 1.51651,0.159c0.47836,0.06055 1.39914,0.18094 1.84399,0.22217c0.43115,0.03998 0.8468,0.06891 1.2435,0.08548c1.04507,0.04361 2.20624,-0.06924 2.18701,0.16101c-0.04608,0.55148 -2.0416,0.87521 -2.80801,1.20334c-0.88425,0.37857 -1.86429,0.79752 -2.91901,1.245c-1.10596,0.46921 -2.24191,0.94843 -3.38699,1.42499c-1.12961,0.47012 -3.25958,1.33859 -4.22284,1.71585c-0.89154,0.34915 -1.72653,0.66476 -2.5155,0.95248c-0.75076,0.2738 -1.47806,0.52847 -2.1915,0.77252c-0.7092,0.24261 -2.16443,0.72763 -2.92865,0.98215c-0.78912,0.26282 -1.59814,0.53192 -2.42252,0.80402c-0.83398,0.27524 -1.67297,0.55038 -2.51248,0.82199c-0.83383,0.26974 -2.46701,0.7876 -3.25784,1.03116c-0.77185,0.23773 -1.52832,0.46548 -2.271,0.68552c-0.73001,0.21628 -1.4505,0.42593 -2.16299,0.6315c-0.70615,0.20377 -2.10892,0.60477 -2.80817,0.80417c-0.69409,0.19794 -1.37805,0.39246 -2.04752,0.57898c-0.64886,0.18079 -1.27271,0.35168 -1.86749,0.50702c-0.55859,0.14587 -1.55161,0.38519 -1.97784,0.47131c-0.37659,0.07608 -0.70798,0.13364 -0.996,0.17102c-0.44971,0.05838 -0.48666,0.07199 0.26935,0.07199c1.09134,0 1.60666,0 2.194,0c1.37466,0 2.15399,0 2.98932,0c0.88736,0 2.802,0 3.82135,0c1.05533,0 2.14267,0 3.258,0c1.13934,0 2.29868,0 3.474,0c1.18735,0 3.582,0 4.78168,0c1.19766,0 2.39133,0 3.57898,0c1.17969,0 2.34933,0 3.50702,0c1.14365,0 3.38098,0 4.47098,0c1.07001,0 2.12003,0 3.15002,0c1.00998,0 2,0 2.97,0c0.94998,0 2.78998,-0.00156 3.67966,0.00049c0.86768,0.00198 1.71152,0.0065 2.52899,0.03152c0.78989,0.0242 1.55054,0.06357 2.27701,0.1395c0.69501,0.07263 1.9761,0.31146 2.55066,0.49231c0.54294,0.1709 1.03671,0.37869 1.479,0.6015c0.40482,0.20392 0.75394,0.41586 1.047,0.61951c0.24771,0.17215 0.57495,0.43808 0.63232,0.52933c0.02649,0.04211 -0.00629,0.06674 -0.06598,0.05252c-0.09082,-0.02164 -0.19556,-0.07742 -0.31799,-0.1275c-0.72311,-0.29575 -1.62344,-0.08224 -2.52069,0.16083c-0.60373,0.16354 -1.30795,0.35614 -2.10898,0.5535c-0.88422,0.21786 -1.84714,0.43683 -2.88303,0.63449c-1.09344,0.20865 -2.23962,0.43198 -4.67465,0.64536c-1.26175,0.11057 -2.55191,0.1391 -3.858,0.14249c-1.31802,0.00342 -2.64218,-0.0332 -3.966,-0.08249c-1.31821,-0.04907 -2.62357,-0.12332 -5.17599,-0.22668c-1.23465,-0.04999 -2.4386,-0.08453 -3.6105,-0.1095c-1.13876,-0.02426 -2.24362,-0.03818 -3.31351,-0.04648c-1.03381,-0.008 -2.03067,-0.01001 -3.90933,-0.01068c-0.88098,-0.00031 -1.728,0 -2.547,0c-0.797,0 -1.578,0 -2.349,0c-0.767,0 -1.53598,0 -3.104,0c-0.8085,0 -1.62799,0 -2.44949,0c-0.81448,0 -1.61301,0 -2.38651,0c-0.7395,0 -1.436,0 -2.664,0c-0.5155,0 -0.96399,0 -1.34848,0c-0.32352,0 -0.58902,0 -0.7995,0c-0.15851,0 -0.35062,-0.08401 -0.35202,0c-0.00034,0.02017 0.08163,0.00302 0.18451,0.01801c0.1467,0.02136 0.34866,0.02795 1.18085,0.32333c0.81503,0.28928 1.79971,0.79788 2.36731,1.08734c0.61383,0.31305 1.26663,0.65604 1.96201,1.01398c0.73193,0.37677 1.49408,0.7778 3.13867,1.55734c0.86029,0.40778 1.75052,0.80209 2.65799,1.1955c0.9165,0.39731 1.84137,0.78519 2.76602,1.16852c0.91739,0.38031 1.8248,0.7486 3.57599,1.46933c0.83591,0.34402 1.64377,0.68057 2.4285,1.005c0.76324,0.31555 1.50809,0.62225 2.2395,0.91498c0.71762,0.2872 1.42349,0.57233 2.832,1.08002c0.69766,0.25146 1.39822,0.48404 2.09549,0.71399c0.69339,0.2287 1.38425,0.45087 2.06851,0.67801c0.67944,0.22556 1.35684,0.44211 2.66934,0.94131c0.64697,0.24606 1.27225,0.50967 1.8735,0.77252c0.57333,0.25067 1.10696,0.49551 1.59448,0.72748c0.81689,0.38867 1.42603,0.50607 0.53201,0.33334c-1.14551,-0.22131 -1.60565,0.00885 -2.69519,-0.01349c-0.63693,-0.01306 -1.32614,-0.04163 -2.05948,-0.09451c-0.77246,-0.05573 -1.58057,-0.11053 -3.24533,-0.392c-0.85815,-0.14508 -1.71933,-0.34671 -2.586,-0.56699c-0.87476,-0.22232 -1.74823,-0.47162 -2.62201,-0.729c-0.87357,-0.25732 -1.73907,-0.5303 -3.45868,-1.03735c-0.84357,-0.24875 -1.67661,-0.48264 -2.496,-0.70499c-0.80194,-0.21762 -1.58731,-0.42001 -2.35199,-0.61499l-0.74268,-0.18503l-0.71866,-0.17499" id="svg_6" stroke-width="2" stroke="#000" fill="none"/>
  <path t="9765,9905,9906,9906,9906,9906,9906,9906,9906,9906,9923,9923,9923,9923,9923,9923,9923,9924,9924,9939,9940,9940,9940,9940,9940,9940,9940,9940,9957,9957,9957,9957,9958,9958,9958,9958,9958,9990,9990,9990,9990,9991,9991,9991,9991,9991,10007,10008,10008,10008,10024,10045,10076,10076,10077,10077,10077,10108,10109,10109,10109,10109,10109,10110,10110,10110,10115,10115,10116,10116,10116,10116,10116,10116,10117,10124,10125,10125,10125,10125,10125,10126,10126,10126,10157,10158,10158,10159,10160,10160,10161,10161,10161,10176,10176,10176,10177,10177,10177,10178,10178,10178,10192,10193,10193,10194,10194,10195,10197,10197,10198,10227,10227,10228,10228,10229,10229,10230,10230,10230,10242,10242,10243,10243,10243,10243,10244,10244,10244,10263,10263,10264,10264,10264,10265,10265,10265,10265,10291,10291,10292,10292,10292,10293,10295,10295,10295,10300,10301,10301,10302,10303,10303,10304,10304,10304,10324,10325,10326,10326,10326,10327,10327,10327,10328,10358,10358,10359,10360,10360,10361,10361,10362,10362,10370,10371,10372,10372,10373,10373,10374,10374,10375,10380,10381,10408,10409,10410,10410,10411,10423,10426,10427,10427,10428,10429,10430,10430,10431,10443,10444,10445,10446,10446,10447,10448,10448,10452,10471,10472,10473,10473,10474,10474,10474,10475,10475,10491,10492,10493,10494,10494,10495,10495,10496,10496,10507,10508,10508,10509,10512,10513,10513,10514,10514,10523,10524,10525,10526,10526,10527,10527,10567,10570,10571,10581,10581,10582,10582,10583,10583,10584,10584,10585,10604,10605,10605,10606,10607,10608,10609,10610,10610,10630,10631,10631,10632,10633,10633,10634,10635,10635,10641,10642,10643,10643,10644,10644,10645,10645,10646,10656,10658,10659,10659,10660,10661,10661,10662,10663,10674,10675,10676,10679,10680,10681,10682,10683,10684,10697,10698,10699,10700,10701,10703,10704,10705,10705,10723,10725,10726,10726,10727,10727,10728,10729,10730,10803,10804,10805,10806,10807,10807,10808,10809,10810,10821,10822,10824,10825,10826,10826,10827,10827,10828,10834,10835,10836,10837,10837,10838,10839,10840,10841,10861,10862,10863,10863,10864,10865,10867,10868,10869,10885,10886,10894,10895,10895,10896,10896,10897,10898,10924,10925,10926,10927,10927,10929,10931,10931,10932,10937,10938,10939,10940,10941,10942,10942,10943,10944,10956,10957,10957,10958,10959,10960,10960,10961,10962" d="m302,332c4.66666,7.83334 5.06305,8.57599 5.42932,9.31866c0.36237,0.73474 0.70468,1.4747 1.02902,2.22299c0.32639,0.75308 0.64047,1.52234 0.939,2.31302c0.61893,1.63928 0.90662,2.50827 1.20132,3.39999c0.30106,0.91095 0.59433,1.84155 0.88049,2.78699c0.28854,0.95325 0.56885,1.91324 0.83551,2.87701c0.52896,1.91187 0.76907,2.85843 0.996,3.79599c0.22433,0.92682 0.43054,1.84753 0.60599,2.7645c0.17383,0.90848 0.32703,1.81396 0.42603,2.71951c0.1965,1.79749 0.20236,2.70044 0.20532,3.59467c0.00293,0.88419 -0.02365,1.75333 -0.048,2.60251c-0.02362,0.82416 -0.05807,1.61835 -0.048,2.3775c0.01849,1.39401 0.09857,2.02142 0.20132,2.59998c0.09647,0.54324 0.22751,1.04837 0.36752,1.52252c0.13361,0.45251 0.28467,0.87967 0.41248,1.29749c0.24561,0.80301 0.41684,1.59756 0.49469,2.35333c0.06921,0.67169 -0.0484,1.66132 0.41333,1.45468c0.74118,-0.33173 1.50348,-0.03845 2.42532,-0.21735c0.56927,-0.11047 1.21756,-0.26312 2.73334,-0.784c0.89957,-0.30911 1.86359,-0.70255 2.892,-1.12949c1.08109,-0.44879 2.19196,-0.93161 3.32401,-1.42651c1.13928,-0.49808 2.26544,-1.00494 4.45065,-1.944c1.02438,-0.44022 2.00934,-0.84796 2.95651,-1.242c0.91815,-0.38196 1.81604,-0.754 2.6955,-1.134c0.87488,-0.37802 1.7561,-0.75391 3.51468,-1.62399c0.91507,-0.45276 1.83688,-0.94928 2.772,-1.46249c0.94757,-0.52005 1.89514,-1.0575 2.84399,-1.5975c0.9458,-0.5383 1.87772,-1.08218 3.71732,-2.10666c0.88846,-0.49478 1.76492,-0.96732 2.63251,-1.42352c0.85913,-0.45175 1.72028,-0.89178 2.58749,-1.32449c0.87445,-0.43634 1.76407,-0.87344 3.61334,-1.75198c0.96201,-0.457 1.94571,-0.91537 2.94,-1.3725c0.99237,-0.45624 1.97537,-0.90121 2.94,-1.32751c0.9321,-0.41196 1.82037,-0.80872 3.45334,-1.46667c0.71246,-0.28708 1.35953,-0.52777 1.93948,-0.729c0.50961,-0.17685 0.95483,-0.31793 1.33652,-0.42297c0.315,-0.0867 0.56653,-0.18164 0.89066,-0.18134c0.07114,0.00006 0.08914,0.04184 0.04349,0.07648c-0.08365,0.06345 -0.2294,0.11572 -0.4155,0.17551c-0.22473,0.0722 -0.48904,0.14969 -1.12799,0.24802c-0.36459,0.05612 -0.76816,0.08655 -1.21201,0.13199c-0.49216,0.05038 -1.03909,0.11069 -1.64398,0.20401c-0.67334,0.10388 -1.42398,0.22354 -3.14401,0.664c-0.99814,0.25558 -2.06808,0.58612 -3.20551,0.957c-1.20013,0.39133 -2.44308,0.82718 -3.71851,1.29898c-1.30499,0.48273 -2.62674,0.97992 -5.24265,2.07733c-1.29462,0.54312 -2.56027,1.11115 -3.80551,1.677c-1.22543,0.55685 -2.42331,1.11551 -3.59851,1.659c-1.14847,0.53113 -2.26215,1.06213 -4.42932,1.99734c-1.0307,0.44479 -2.03613,0.84698 -3.00601,1.22849c-0.93152,0.36639 -1.82806,0.70709 -2.68198,1.03952c-0.81339,0.31665 -1.59323,0.60123 -2.97867,1.23199c-0.63199,0.28772 -1.21307,0.59424 -1.76102,0.89551c-0.52667,0.28958 -1.0296,0.58548 -1.52701,0.8685c-0.49329,0.28067 -0.98242,0.57623 -2.04532,1.06934c-0.55692,0.25836 -1.14221,0.48346 -1.73099,0.7005c-0.57932,0.21356 -1.14371,0.40457 -1.677,0.5835c-0.49072,0.16464 -0.93634,0.28867 -1.59201,0.54932c-0.20975,0.08337 -0.35941,0.14471 -0.3945,0.21902c-0.01813,0.03836 0.03915,0.07794 0.1185,0.09299c0.1011,0.01917 0.21735,0.01999 0.44266,0.02133c0.672,0.00397 1.48666,0 2.17334,0c0.92667,0 1.49249,0 2.13333,0c1.52667,0 2.41983,0 3.392,0c1.04016,0 2.13733,0 3.28052,0c1.17816,0 2.38031,0 3.59549,0c2.42532,0 3.61533,0 4.78534,0c1.14999,0 2.28,0 3.38998,0c1.09,0 2.16,0 3.21002,0c2.03998,0 3.03,0 4,0c0.94998,0 1.87997,0 2.78998,0c0.89001,0 1.76001,0 2.61002,0c1.63998,0 2.43048,0 3.20398,0c0.75952,0 1.50803,0 2.2485,0c0.7355,0 1.46902,0 2.20352,0c1.48398,0 2.23715,0 2.98932,0c0.74017,0 1.45734,0 2.1405,0c0.63815,0 1.22034,0 1.7355,0c0.78534,0 1.03732,0 1.20132,0c0.08801,0 0.112,0 0.08401,0c-0.164,0 -0.9545,0.03714 -1.85333,0.22867c-0.51401,0.10953 -1.98004,0.43784 -2.96518,0.65701c-1.1362,0.25281 -2.3945,0.53323 -3.74548,0.83698c-1.41537,0.31821 -2.86572,0.64645 -4.3215,0.98102c-1.43353,0.32947 -4.11502,0.96078 -5.3125,1.25333c-1.10651,0.27032 -2.1377,0.52991 -3.11401,0.771c-0.93768,0.23154 -1.85495,0.4552 -2.772,0.66299c-0.93097,0.21094 -2.91486,0.6153 -3.99899,0.8085c-1.13983,0.20313 -2.32693,0.39435 -3.54901,0.56851c-1.24194,0.17697 -2.49496,0.33374 -3.74698,0.46048c-1.23605,0.12512 -3.62067,0.28433 -4.74734,0.30719c-1.08414,0.02197 -2.13492,0.0047 -3.159,-0.03302c-1.00665,-0.03708 -2.00275,-0.09787 -2.99701,-0.159c-1.0004,-0.06152 -3.05081,-0.18179 -4.11398,-0.22217c-1.08084,-0.04105 -2.16794,-0.0672 -3.24902,-0.08548c-1.06296,-0.01797 -2.09598,-0.02676 -3.08698,-0.03152c-0.93701,-0.00449 -2.60101,-0.00449 -3.30667,-0.00449c-0.61969,0 -1.15735,0 -1.617,0c-0.38568,0 -0.70132,0 -0.95102,0c-0.18765,0 -0.41608,-0.02502 -0.41882,0.00067c-0.00211,0.01962 0.07913,0.0145 0.17252,0.04199c0.12534,0.0369 0.27707,0.09424 0.44247,0.186c0.18878,0.10474 0.58258,0.43344 0.78003,0.65784c0.22333,0.25381 0.45807,0.56186 0.75748,0.8895c0.34467,0.37717 0.76819,0.78897 1.29752,1.2135c0.60934,0.48868 2.23276,1.5285 3.26617,2.07483c1.15512,0.61066 2.45883,1.21759 3.89099,1.83301c1.53687,0.6604 3.19214,1.31262 4.953,1.95898c1.84436,0.677 5.79538,1.98877 7.88,2.62167c2.12338,0.64465 4.2746,1.25638 6.42297,1.854c2.11963,0.58963 4.19238,1.14804 6.18903,1.69199c1.89932,0.51746 5.3096,1.46725 6.77332,1.91086c1.30673,0.39603 2.45688,0.76917 3.45901,1.1145c0.86829,0.29919 1.60397,0.57123 2.21698,0.80847c0.50143,0.19406 1.18988,0.47842 1.39786,0.55634c0.12714,0.04764 0.19366,0.06155 0.19049,0.05252c-0.01727,-0.04916 -0.121,-0.07401 -0.22351,-0.1275c-0.11478,-0.05991 -0.34061,-0.17227 -0.43201,-0.21835c-0.08057,-0.04062 -0.15924,-0.08121 -0.24448,-0.12747c-0.10181,-0.0553 -0.22812,-0.12646 -0.38852,-0.2175c-0.20364,-0.11557 -0.77496,-0.44345 -1.16049,-0.66202c-0.45438,-0.2576 -0.97818,-0.55042 -1.57501,-0.8685c-0.66296,-0.3533 -1.39719,-0.72977 -2.20499,-1.12048c-0.87201,-0.42178 -2.83276,-1.29681 -3.91949,-1.74734c-1.1492,-0.47644 -2.3681,-0.95898 -3.64349,-1.47751c-1.33566,-0.54303 -2.72821,-1.11697 -4.16553,-1.7475c-1.49493,-0.65579 -4.61282,-2.14023 -6.22348,-2.97968c-1.64557,-0.85767 -3.28415,-1.76251 -4.91101,-2.67148c-1.59909,-0.89343 -3.14398,-1.76935 -4.62299,-2.59952l-1.39301,-0.77115" id="svg_7" stroke-width="2" stroke="#000" fill="none"/>
 </g>
 <g display="none">
  <title>muse_image</title>
  <image xlink:href="http://farm3.static.flickr.com/2242/2116411512_2569313ba9.jpg" id="muse" height="480" width="595" y="0" x="22.5"/>
 </g>
 <g display="none">
  <title>bbox</title>
  <rect stroke="#f00" fill="none" stroke-width="3" height="400.19851" width="495.04" y="73.84615" x="22.5" id="bbox"/>
 </g>
</svg>
