<svg width="640" height="480" xmlns="http://www.w3.org/2000/svg" xmlns:svg="http://www.w3.org/2000/svg" xmlns:xlink="http://www.w3.org/1999/xlink">
 <!-- Sketchy ANNOTATION
  ImageNet ID: n01594787_4761
  URL: http://farm3.static.flickr.com/2348/2087814292_de429bc2c6.jpg
  Image Width: 500
  Image Height: 375
  BBox X: 95
  BBox Y: 112
  BBox Width: 242
  BBox Height: 210
  Exposure: 2000ms
  Synset Label: songbird
  Synset ID: n01526521
  Worker Tag: Bird
  Sanity Check: 
   Saved
  Comment: 
   {}
  Worker ID: AIH9VLD92GHFH
  Assignment ID: 34J10VATJFY479G3DKMKA8308VSQIX
  HIT ID: 344M16OZKIF51N3VB7ZAWFFI716EN3
  Work Time: 35s
  Worker Score: 0.5000
 END ANNOTATION -->
 <g display="inline">
  <title>Layer 1</title>
  <path t="0,204,222,222,243,257,257,273,288,319,352,369,369,386,402,402,418,435,435,435,452,452,468,469,485,485,485,502,502,502,519,519,519,535,552,552,569,569,585,602,619,635,652,652,669,686,702,718,735,752,769,769,785,785,802,802,819,819,835,836,836,836,852,852,869,869,885,885,902,902,918,919,935,952,968,969,969,985,985,1002,1002,1018,1019,1035,1035,1052,1052,1069,1069,1085,1085,1102,1102,1119,1119,1135,1152,1152,1169,1185,1185,1202,1219,1219,1235,1252,1269,1285,1286,1302,1319,1335,1352,1369,1386,1402,1419,1419,1435,1452,1469,1469,1486,1486,1486,1502,1519,1535,1554,1554,1569,1585,1602,1619,1635,1636,1669,1686,1752,1786,1819,1836,1853,1870,1886,1903,1903,1936,1953,1986,2003,2020,2037,2037,2053,2053,2070,2086,2086,2103,2103,2120,2136,2153,2153,2170,2170,2170,2186,2186,2203,2220,2236,2236,2253,2253,2269,2286,2303,2303,2319,2320,2336,2353,2369,2386,2386,2403,2403,2419,2420,2436,2453,2469,2470,2486,2486,2503,2519,2536,2536,2720,2721,2739,2740,2754,2755,2755,2772,2772,2772,2787,2788,2804,2804,2804,2819,2820,2820,2836,2853,2869,2870,2886,2903,2920,2920,2936,2953,2953,2970,2970,2986,2987,3003,3003,3004,3004,3020,3020,3020,3036,3037,3037,3037,3053,3053,3053,3053,3070,3070,3070,3070,3086,3087,3087,3103,3103" d="m299,160c0.97916,-2.5 0.99783,-3.48399 1,-4.34734c0.00226,-0.89551 0.32614,-1.68933 0.716,-2.45267c0.38452,-0.7529 0.12497,-1.71608 0.29468,-2.59999c0.18182,-0.94711 0.93668,-1.66183 1.48932,-2.07918c0.73969,-0.55858 1.72189,-0.78177 2.29999,-1.32216c0.62473,-0.58397 1.18542,-1.37466 1.61069,-2.024c0.45914,-0.70108 1.23264,-1.44069 1.79999,-1.76401c0.96719,-0.55116 1.79144,-0.8734 2.62268,-1.41066c0.57977,-0.37474 1.20486,-0.84401 2.22,-1.19867c0.62439,-0.21814 1.64047,-0.47365 2.61331,-0.63466c0.81082,-0.1342 1.67416,-0.05606 2.70801,-0.17734c0.9632,-0.11299 1.59689,-0.57185 2.45868,-0.82266c0.84232,-0.24515 1.78625,-0.16473 2.56665,-0.59201c0.82257,-0.45038 1.70001,-0.57466 2.60001,-0.57466c0.79999,0 1.70001,0 2.60001,0c0.89999,0 1.79999,0 2.69998,0c0.90134,0 1.86667,0 2.52536,0c1.008,0 1.79999,0 2.83182,0c0.74734,0 1.74551,0 2.38449,0c1.29169,0 1.92502,0 2.59836,0c0.9975,0 2.09564,0 2.96399,0c0.88132,0 1.60666,0 2.59583,0c0.96417,0 1.91617,0 2.68417,0c0.94135,0 1.63199,0 2.70532,0c0.832,0 1.74402,0 2.66135,0c0.74399,0 1.78,0 2.63199,0c0.95334,0 1.71866,0 2.71735,0c0.79999,0 1.79868,0 2.564,0c0.95334,0 1.80533,0 2.84134,0c0.74399,0 1.66132,-0.00072 2.60931,0c0.86935,0.00067 1.7988,-0.09456 2.62817,0.35716c0.62485,0.34032 1.25717,1.14284 1.95718,1.84283c0.5,0.5 1.19998,1.2 1.89999,1.90001c0.5,0.5 1.32617,1.11674 1.73334,1.89999c0.38669,0.74385 0.91144,1.53773 1.13065,2.39999c0.22195,0.87315 0.34708,1.64456 0.75201,2.40001c0.40524,0.75597 0.90204,1.51035 1.19867,2.39999c0.28592,0.85748 0.53052,1.53871 1.03265,2.15717c0.57208,0.70459 0.81512,1.66913 1.10535,2.34283c0.36261,0.8418 0.9082,1.6035 0.94733,2.46667c0.0387,0.85353 0.14136,1.84207 0.42532,2.62267c0.26715,0.73431 0.41885,1.70447 0.58536,2.61066c0.15277,0.83148 0.75177,1.6263 1.04199,2.3c0.36261,0.8418 0.91867,1.59865 0.94733,2.5c0.02863,0.89955 0.22058,1.76668 0.57468,2.40001c0.48151,0.86125 0.436,1.78932 0.92532,2.39999c0.48932,0.61067 0.5,1.5 0.5,2.39999c0,0.90001 0,1.8 0,2.70001c0,0.89999 -0.02725,1.70041 0,2.59999c0.02859,0.94414 0.70248,1.35629 1.5,1.8c0.80249,0.44649 1.67175,0.42638 2.5,0.52083c0.99237,0.11317 1.67374,0.68259 2.52084,0.97917c0.78384,0.27444 1.63684,0.62564 2.59381,0.916c0.67401,0.2045 1.5079,0.61743 2.28534,1.06934c0.72311,0.4203 1.15018,1.28317 1.92151,1.993c0.46848,0.43112 1.26492,0.81343 2.27399,0.96451c0.74094,0.11093 1.81595,-0.04842 2.60452,0.34116c0.87006,0.42984 1.55804,0.77257 2.09998,1.42134c0.56549,0.67697 1.30881,1.18176 2.22086,1.31549c0.81647,0.11972 1.63751,0.60104 2.45764,0.85783c0.80688,0.25264 1.55865,0.86836 2.42151,1.08534c0.8779,0.22076 1.76666,0.036 2.60001,0.036c0.97867,0 1.75372,-0.03973 2.65268,0.0045c0.86603,0.04262 1.66577,0.50839 2.54733,0.9115c0.86444,0.39528 1.52795,0.84209 2.45267,1.02684c0.68314,0.13649 1.72226,-0.08095 2.64731,0.06166c0.93143,0.14359 2.19022,0.39949 2.04401,0.9955c-0.18048,0.73569 -1.74533,0 -2.57999,0c-0.93066,0 -1.71667,0 -2.53867,0c-1.05869,0 -1.98935,0 -2.62085,0c-1.00583,0 -1.84048,0 -2.77115,0c-0.78601,0 -1.608,0 -2.66669,0c-0.91998,0 -1.67999,0 -2.75598,0c-0.93152,0 -1.73199,0 -2.58533,0c-0.94,0 -1.92664,-0.04779 -2.82535,0c-0.80338,0.04272 -1.47693,0.61188 -2.32132,0.87866c-0.82562,0.26086 -1.79712,0.40302 -2.43134,0.82584c-0.73685,0.49126 -1.48611,0.91423 -2.414,1.2955c-0.77969,0.32037 -1.62238,0.60693 -2.14935,0.88533c-1.03116,0.54474 -1.67764,1.14305 -2.36798,1.716c-0.73105,0.60674 -1.26669,1.01521 -2.16269,1.59866c-0.63245,0.41183 -1.67404,1.00084 -2.40149,1.40001c-0.73053,0.40085 -1.46265,0.76761 -2.41849,1.39999c-0.57578,0.38092 -1.29846,0.99278 -1.72433,1.39999c-0.82217,0.78613 -1.39835,1.38934 -1.95184,1.94284l-0.77182,0.77316l-0.58084,0.63667" id="svg_1" stroke-width="2" stroke="#000" fill="none"/>
  <path t="3752,3837,3837,3838,3855,3855,3855,3871,3871,3887,3887,3904,3904,3904,3904,3920,3920,3920,3937,3937,3937,3953,3953,3954,3954,3970,3970,3987,3987,3987,4003,4003,4004,4004,4020,4020,4020,4020,4037,4037,4037,4053,4054,4054,4070,4070,4070,4087,4087,4103,4103,4120,4120,4137,4137,4137,4137,4154,4154,4154,4154,4170,4170,4170,4187,4187,4187,4187,4204,4204,4220,4220,4237,4237,4237,4253,4254" d="m349,167c-5.93533,0 -7.08133,0 -7.73199,0c-1.10135,0 -1.81085,-0.00113 -2.66351,0c-1.00317,0.00134 -2.06268,-0.03973 -2.71915,0.57201c-0.60989,0.56834 -0.90231,1.58853 -1.18085,2.38516c-0.19565,0.5596 -0.46927,1.43687 -0.61917,2.64284c-0.07425,0.59741 -0.08307,1.5 -0.08533,2.7c-0.00113,0.59999 0,1.5 0,2.7c0,0.59866 -0.00055,1.47917 0,2.31467c0.00067,1 -0.05908,1.89685 0.22168,2.8855c0.24063,0.84734 0.64005,1.5005 1.10031,2.22101c0.51852,0.81172 0.95383,1.36897 1.53534,1.80949c0.94501,0.71587 1.7926,0.97861 2.64267,1.20683c0.83502,0.2242 1.99829,0.41077 2.64532,0.47717c0.81131,0.08327 2.02133,0.08533 2.80734,0.08533c0.82199,0 1.88068,0 2.59018,0c0.85266,0 1.85715,0.00006 2.65717,0c0.99982,-0.00009 1.85056,0.20004 2.77866,-0.222c0.74225,-0.33752 1.20245,-1.27 1.504,-1.83267c0.52188,-0.97382 0.86282,-1.68388 1.18399,-2.77866c0.19717,-0.67216 0.28934,-1.32921 0.32434,-2.26218c0.04517,-1.20369 0.009,-1.80449 0.009,-2.7045c0,-1.2 0,-1.79866 0,-2.67917c0,-0.83549 0.00693,-1.8342 0,-2.67416c-0.009,-1.0896 -0.31223,-1.70949 -1.13733,-2.04533c-0.85858,-0.34946 -1.50919,-0.44417 -2.80667,-0.716l-0.74249,-0.08083" id="svg_2" stroke-width="2" stroke="#000" fill="none"/>
  <path t="4608,4787,4787,4787,4804,4804,4805,4821,4821,4821,4838,4838,4838,4854,4854,4854" d="m339,171c5.271,4.17833 5.84128,5.14168 5.936,5.75333c0.16559,1.06915 0.064,2.02135 0.064,2.69934c0,1.23134 0,1.77266 0,2.59467c0,1.27 0,1.9735 0,2.722l0,1.19733l0,0.67334l0,0.67334" id="svg_3" stroke-width="2" stroke="#000" fill="none"/>
  <path t="5823,5905,5905,5905,5905,5905,5905,5924,5924,5924,5924,5924,5938,5939,5939,5939" d="m300,159c-6.814,8.57117 -7.2561,9.09158 -7.67133,9.56149c-0.74078,0.83836 -1.09326,1.20403 -1.72333,1.91585c-0.91583,1.03467 -1.21091,1.40123 -1.79468,2.14799c-0.5816,0.74397 -0.85352,1.12199 -1.64401,2.20799l-0.47998,0.67867l-0.44,0.63068l-0.58502,0.8385" id="svg_4" stroke-width="2" stroke="#000" fill="none"/>
  <path t="6466,6591,6591,6591,6591,6592,6592,6607,6607,6607,6607,6608,6608,6626,6627,6627,6642,6642,6642,6642,6655,6655,6656,6674,6674,6689,6738,6772,6789,6789,6807,6822,6822,6839,6855,6872,6872,6872,6889,6889,6905,6905,6905,6922,6922,6922,6938,6938,6938,6955,6955,6955,6972,6972,6972,6972,6972,6988,6988,6988,6988,6988,7005,7005,7005,7005,7005,7022,7022,7022,7022,7038,7038,7038,7038,7038,7038,7038,7055,7055,7055,7055,7055,7055,7055,7072,7072,7072,7072,7072,7072,7072,7072,7088,7088,7088,7088,7088,7089,7089,7089,7105,7105,7105,7105,7105,7105,7105,7105,7105,7122,7122,7122,7122,7122,7122,7122,7122,7138,7138,7138,7139,7139,7139,7139,7139,7139,7155,7155,7155,7155,7156,7156,7156,7156,7156,7173,7173,7173,7173,7173,7173,7173,7173,7173,7188,7188,7188,7189,7189,7189,7189,7189,7189,7205,7205,7205,7205,7205,7205,7205,7205,7206,7222,7222,7222,7222,7222,7222,7222,7222,7222,7238,7238,7238,7239,7239,7239,7239,7239,7239,7255,7255,7255,7255,7255,7255,7255,7255,7255,7272,7272,7272,7272,7272,7272,7272,7272,7272,7288,7288,7289,7289,7289,7289,7289,7289,7289,7308,7308,7308,7308,7309,7309,7309,7309,7309" d="m388,222c-4.61383,9.01401 -4.86752,9.65527 -5.06683,10.27133c-0.18817,0.58163 -0.46985,1.68321 -0.55801,2.21066c-0.25266,1.51128 -0.29337,2.5152 -0.32248,3.009c-0.05704,0.96709 -0.09625,1.8954 -0.13669,2.33833c-0.1123,1.23024 -0.33694,2.3029 -0.52664,2.94934c-0.36093,1.23003 -0.5838,1.8219 -0.88934,2.7005c-0.19644,0.56491 -0.61578,1.59277 -0.97916,2.5c-0.2464,0.61523 -0.49094,1.61508 -0.5195,2.53549c-0.02991,0.96405 0.11523,1.89349 -0.00583,2.78534c-0.11151,0.82138 -0.69894,1.40108 -1.39551,2.09999c-0.69873,0.70108 -1.24554,1.2988 -1.60001,2.10001c-0.35538,0.80331 -0.85556,1.66235 -0.97467,2.336c-0.13461,0.76129 -0.38147,1.76892 -0.72983,2.62115c-0.39432,0.96466 -0.59085,1.49722 -0.89551,2.3175c-0.39401,1.06091 -0.69025,1.77283 -1.10001,2.62085c-0.3909,0.80902 -0.79214,1.62286 -1.18533,2.2045c-0.56168,0.8309 -1.16144,1.43713 -1.57632,1.91434c-0.97198,1.11801 -1.22409,1.45465 -1.77432,2.147c-0.5751,0.72366 -1.15622,1.46371 -1.76401,2.172c-0.59122,0.68896 -1.19598,1.33456 -1.79999,1.95599c-0.59604,0.61322 -1.50073,1.50977 -1.79868,1.81067c-0.59241,0.59827 -1.177,1.18948 -1.716,1.79999c-0.78156,0.88528 -1.23459,1.51016 -1.72699,2.12085c-0.51794,0.64236 -1.45346,1.65088 -1.82266,2.00082c-0.79236,0.75104 -1.23553,1.12216 -2.13168,1.92499c-0.46164,0.41354 -0.94012,0.8222 -1.83734,1.72c-0.90054,0.90115 -1.31604,1.3887 -1.74133,1.86935c-0.42737,0.48303 -1.27579,1.4704 -1.70932,1.96533c-0.8782,1.00256 -1.33289,1.50302 -1.80267,1.99731c-0.95038,0.99991 -1.45111,1.48456 -1.95999,1.96533c-0.51117,0.48294 -1.0271,0.96606 -2.12,1.86935c-0.54846,0.45331 -1.116,0.88757 -2.26935,1.75198c-0.5835,0.43732 -1.17673,0.87326 -1.76849,1.32449c-0.59897,0.45673 -1.79962,1.4187 -2.39532,1.93286c-0.60306,0.52051 -1.1976,1.06055 -1.78952,1.60797c-0.59174,0.54727 -1.17429,1.09906 -1.75348,1.64401c-0.57147,0.53769 -1.68808,1.57474 -2.23602,2.06265c-0.5361,0.47736 -1.07104,0.93964 -1.60648,1.39203c-1.07214,0.90591 -1.62485,1.35559 -2.18402,1.81866c-1.16467,0.96451 -1.77335,1.47559 -2.40399,2.00131c-0.64932,0.54129 -1.31732,1.09534 -2.01001,1.65152c-0.70728,0.5679 -1.43295,1.14044 -2.19,1.6965c-1.54587,1.1355 -2.36508,1.66812 -3.19733,2.19598c-0.83911,0.53223 -1.69791,1.04593 -2.57098,1.54501c-0.87628,0.50095 -1.7637,0.98691 -2.66101,1.45499c-1.79019,0.93387 -2.69577,1.3688 -3.59866,1.80133c-0.90143,0.43179 -1.80795,0.85233 -2.71951,1.2645c-0.91382,0.41318 -1.8349,0.81964 -2.7645,1.21951c-1.87845,0.80801 -2.83566,1.20377 -3.80399,1.60132c-0.98035,0.4025 -1.97736,0.80338 -2.99402,1.20001c-1.034,0.40341 -2.09033,0.8063 -3.17398,1.20001c-2.23798,0.81308 -3.40665,1.20428 -4.60535,1.60132c-1.22992,0.40738 -2.49762,0.81268 -3.80399,1.21951c-1.34427,0.41861 -2.73157,0.84003 -4.164,1.2645c-3.0004,0.88907 -4.5762,1.33722 -6.19333,1.79999c-1.65253,0.4729 -3.33478,0.95035 -5.03851,1.43552c-1.71893,0.4895 -3.4465,0.98083 -5.17349,1.4805c-3.43228,0.99307 -5.12103,1.49771 -6.79202,1.996c-1.65332,0.49304 -3.28856,0.98392 -4.90948,1.461c-1.60442,0.47223 -3.19371,0.9368 -4.77451,1.371c-3.11626,0.85599 -4.66545,1.23422 -6.20667,1.60132c-1.53615,0.36588 -3.07658,0.71143 -4.623,1.04849c-1.55492,0.33893 -3.12535,0.66895 -4.713,1.00351c-3.24536,0.68387 -4.91032,1.03671 -6.60133,1.40399c-1.716,0.37268 -3.4527,0.7569 -5.2065,1.155c-1.77022,0.40186 -3.55249,0.81378 -5.34151,1.245c-3.59903,0.86749 -5.39697,1.33109 -7.196,1.79868c-1.80096,0.46808 -3.60062,0.94836 -5.39999,1.43552c-1.80063,0.48752 -3.60033,0.98248 -5.39999,1.4805c-3.60065,0.99637 -5.39969,1.49634 -7.192,2c-1.78169,0.50067 -3.54401,1.00934 -5.283,1.5195l-1.709,0.51517l-1.673,0.52115l-1.631,0.52817" id="svg_5" stroke-width="2" stroke="#000" fill="none"/>
  <path t="7833,7939,7940,7940,7940,7940,7940,7940,7940,7940,7958,7959,7959,7959,7959,7959,7959,7959,7960,7977,7977,7977,7977,7977,7977,7990,7990,7990,8006,8006,8025,8041,8056,8072,8072,8072,8089,8089,8089,8105,8105,8105,8105,8122,8122,8122,8122,8122,8122,8139,8139,8139,8139,8139,8139,8139,8155,8156,8156,8156,8156,8156,8156,8172,8172,8172,8172,8172,8172,8172,8189,8189,8189,8189,8189,8189,8189,8189,8189,8205,8205,8206,8206,8206,8206,8206,8206,8206,8222,8222,8222,8222,8222,8222,8222,8223,8223,8239,8239,8239,8239,8239,8239,8239,8239,8239,8255,8256,8256,8256,8256,8256,8256,8256,8256,8272,8272,8272,8272,8273,8273,8273,8273,8273,8289,8289,8289,8289,8289,8289,8289,8289,8289,8306,8306,8306,8306,8306,8306,8306,8306,8306,8322,8322,8322,8322,8322,8323,8323,8323,8323,8339,8339,8339,8339,8339,8339,8339,8339,8339" d="m287,180c-14.16666,12.33333 -15.16083,13.1884 -16.064,13.94533c-0.81348,0.68175 -1.55621,1.29057 -2.2485,1.8255c-0.63751,0.4926 -1.24384,0.9397 -1.84351,1.33051c-1.16147,0.75694 -1.78375,1.08232 -2.41068,1.41333c-0.63144,0.33339 -1.2728,0.65038 -1.91248,0.96451c-0.63367,0.31119 -1.26123,0.61061 -1.86752,0.91949c-1.15894,0.59044 -2.1987,1.19427 -2.67731,1.49234c-0.89783,0.55913 -1.29803,0.85286 -2.08669,1.33833c-1.05457,0.64914 -2.03281,1.09683 -2.60666,1.34933c-0.95068,0.4183 -1.72237,0.91992 -2.23,1.71683c-0.41162,0.64621 -1.37659,0.62744 -2.21935,0.87117c-0.70259,0.2032 -1.51384,0.65041 -2.51866,1.03333c-0.54745,0.20863 -1.41917,0.50002 -2.31467,0.8c-0.909,0.30452 -1.54321,0.51648 -2.21434,0.75717c-1.12161,0.40225 -1.96117,0.72231 -2.86833,1.10016c-0.48174,0.20065 -1.48711,0.65419 -2.00533,0.91467c-1.08646,0.54611 -2.19722,1.19394 -2.76466,1.53333c-0.57393,0.34326 -1.14609,0.69673 -1.722,1.04401c-1.13889,0.68675 -2.25577,1.32285 -2.804,1.60767c-0.53458,0.27773 -1.59337,0.77711 -2.12134,1.00133c-1.04758,0.44487 -1.58182,0.64493 -2.66667,1.04167c-1.11778,0.40878 -1.69618,0.60576 -2.28,0.82133c-1.20247,0.44402 -1.81825,0.68521 -2.44,0.94933c-1.28691,0.54666 -1.93707,0.86916 -2.60399,1.20001c-0.68614,0.34039 -1.38747,0.70238 -2.11351,1.071c-0.74994,0.38075 -1.52521,0.77522 -2.3385,1.161c-1.71617,0.81404 -2.64171,1.20192 -3.59999,1.60001c-0.98869,0.41072 -2.01201,0.81866 -3.06151,1.239c-1.07449,0.43033 -2.17371,0.86607 -3.2865,1.32899c-2.28166,0.94917 -3.43387,1.46712 -4.59866,2.00267c-1.18394,0.54437 -2.38065,1.11592 -3.59399,1.70999c-1.23738,0.60585 -2.49457,1.23627 -3.774,1.89c-2.64662,1.35229 -4.00943,2.06638 -5.40001,2.80267c-1.42081,0.75229 -2.86528,1.53157 -4.32599,2.349c-1.48872,0.83311 -2.99666,1.69724 -4.50601,2.619c-3.09677,1.8912 -4.63919,2.93288 -6.2,4.00133c-1.58804,1.0871 -3.18346,2.22408 -4.79399,3.4005c-1.64026,1.19814 -3.29672,2.43834 -4.974,3.7155c-3.45102,2.62775 -5.20908,4.00011 -6.99467,5.39468c-1.80843,1.41238 -3.62764,2.84741 -5.448,4.30649c-1.82768,1.46494 -3.65001,2.94135 -5.448,4.4415c-3.56799,2.97696 -5.29347,4.48779 -6.98801,5.99335c-1.67241,1.4859 -3.30016,2.97263 -4.8765,4.461c-1.54756,1.46118 -3.04605,2.91248 -4.4715,4.371c-2.74528,2.80899 -3.99741,4.21927 -5.20667,5.60397c-1.18527,1.35724 -2.32193,2.72079 -3.42599,4.08752c-1.0986,1.35999 -2.17533,2.73807 -3.246,4.13248c-2.18019,2.83939 -3.28239,4.30954 -4.40533,5.80402c-1.13976,1.51685 -2.28741,3.05786 -3.432,4.62601c-1.15411,1.58118 -2.30606,3.17938 -3.432,4.806c-2.25761,3.26154 -3.33415,4.92599 -4.39333,6.59598c-1.0565,1.66574 -2.07067,3.35068 -3.0705,5.03552l-0.97483,1.68982l-0.94884,1.69385l-0.92183,1.69681" id="svg_6" stroke-width="2" stroke="#000" fill="none"/>
  <path t="8864,8957,8957,8957,8957,8957,8957,8957,8958,8958,8973,8974,8974,8974,8974,8974,8974,8974,8974,8990,8990,8990,8991,8991,8991,8991,8991,8991,9008,9008,9008,9009,9009,9009,9009,9009,9009,9023,9023,9023,9023,9023,9023,9023,9023,9023,9040,9040,9040,9040,9040,9040,9040,9040,9040,9056,9056,9056,9056,9056,9056,9056,9056,9056,9072,9073,9073,9073,9073,9073,9073,9073,9073" d="m290,221c-23.66666,13.83333 -25.7363,15.168 -27.72534,16.51733c-1.95157,1.32391 -3.85352,2.66396 -5.733,4.00349c-1.8752,1.33647 -3.74474,2.69449 -5.64299,4.04851c-3.89067,2.77522 -5.92407,4.18141 -8.02133,5.60533c-2.15131,1.46062 -4.37402,2.93645 -6.66901,4.4295c-2.35558,1.53249 -4.78621,3.08665 -7.299,4.6545c-5.22931,3.26282 -7.9763,4.91409 -10.79466,6.59201c-2.87556,1.71198 -5.81688,3.42715 -8.823,5.12848c-3.04185,1.72153 -6.12833,3.43146 -9.27301,5.0835c-6.32491,3.32275 -9.55318,4.8707 -12.79599,6.39334c-3.25029,1.52615 -6.53986,2.99759 -9.8685,4.41901c-3.34741,1.42941 -6.73872,2.819 -10.1835,4.14899c-6.98355,2.69623 -10.57327,3.94507 -14.192,5.20535c-3.64229,1.26846 -7.31424,2.50391 -10.9995,3.729c-3.68677,1.22559 -7.3741,2.42929 -11.04451,3.63898c-7.27018,2.39606 -10.8491,3.60074 -14.39333,4.79733c-3.5131,1.18607 -6.99533,2.36868 -10.458,3.522c-3.43868,1.14532 -6.85858,2.27609 -10.278,3.34201c-6.79219,2.11731 -10.20078,3.0705 -13.60267,3.99866c-3.38953,0.9248 -6.77868,1.79865 -10.161,2.63852c-3.36705,0.83609 -6.72548,1.63693 -10.071,2.41348c-6.63369,1.53976 -9.92613,2.26932 -13.188,3.00534c-3.2278,0.72833 -6.41467,1.44934 -9.5535,2.16449l-3.08384,0.71017l-3.02183,0.70618l-2.95284,0.70316" id="svg_7" stroke-width="2" stroke="#000" fill="none"/>
  <path t="9754,9857,9857,9857,9857,9857,9857,9857,9857,9857,9874,9874,9874,9874,9874,9874,9874,9874,9874,9891,9891,9891,9891,9891,9891,9891,9891,9891,9909,9909,9909,9909,9909,9909,9909,9909,9909,9924,9924,9924,9924,9924,9924,9925,9925,9925,9940,9940,9940,9940,9940,9940,9940,9940,9940,9956,9956,9956,9956,9956,9957,9957,9957,9957,9973,9973,9973,9973,9973,9973,9973,9973,9973,9990,9990,9990,9990,9990,9990,9990,9990,9990,10009,10009,10009,10009,10010,10010,10010,10010,10010" d="m302,235c-19.16666,12.16667 -20.88959,13.19974 -22.58133,14.17734c-1.65604,0.95695 -3.29999,1.87955 -4.93951,2.78099c-1.63913,0.90123 -3.29797,1.79382 -4.9845,2.69101c-3.49118,1.85722 -5.32327,2.81721 -7.21201,3.80666c-1.94257,1.01761 -3.93918,2.05615 -5.991,3.10651c-2.09749,1.07373 -4.24254,2.16071 -6.44099,3.24149c-4.50758,2.21597 -6.83566,3.30148 -9.20132,4.40268c-2.4073,1.12057 -4.86798,2.24673 -7.37851,3.39749c-2.56546,1.1759 -5.1922,2.37476 -7.87349,3.6225c-5.57071,2.59232 -8.45041,3.97415 -11.38934,5.40002c-2.99347,1.45236 -6.02081,2.94635 -9.0705,4.47748c-3.07169,1.54218 -6.14638,3.10672 -9.20551,4.70251c-6.07741,3.17029 -9.04935,4.78873 -11.99733,6.39334c-2.931,1.5954 -5.84341,3.20105 -8.75549,4.79999c-2.91592,1.60107 -5.84116,3.21085 -8.80051,4.79999c-6.00021,3.22205 -9.08292,4.80603 -12.20267,6.40268c-3.1499,1.61206 -6.33516,3.21771 -9.5385,4.83899c-3.21931,1.62936 -6.45206,3.26025 -9.67349,4.92902c-6.44357,3.33789 -9.62579,5.06342 -12.79334,6.79868c-3.16113,1.73175 -6.30093,3.48795 -9.429,5.2515c-3.1226,1.76047 -6.23167,3.53275 -9.339,5.29648c-6.20067,3.51953 -9.30068,5.26398 -12.4,6.996c-3.09202,1.72797 -6.18038,3.44174 -9.261,5.14502c-3.06871,1.69669 -6.12707,3.38049 -9.171,5.05499c-6.03681,3.32095 -9.02582,4.96509 -11.98933,6.59332c-2.9305,1.61008 -5.82235,3.19635 -8.673,4.7475c-2.79738,1.52216 -5.53739,3.00702 -8.223,4.4325c-5.14322,2.72995 -7.6085,3.99292 -10.00133,5.19601c-2.31768,1.16531 -4.58533,2.25867 -6.7965,3.30899l-2.16617,1.00034l-2.12817,0.95233l-2.09717,0.90634" id="svg_8" stroke-width="2" stroke="#000" fill="none"/>
  <path t="10688,10774,10774,10774,10774,10774,10774,10774,10774,10774,10792,10792,10792,10792,10792,10792,10792,10807,10807,10807,10807,10807,10807,10825,10825,10825,10825,10825" d="m104,311c-7.83334,13.5 -8.35747,14.50256 -8.804,15.43066c-0.40748,0.84695 -0.7584,1.63306 -1.071,2.36099c-0.2898,0.67487 -0.54636,1.31247 -0.801,1.91101c-0.48253,1.13419 -1.00559,2.21454 -1.27666,2.74466c-0.27028,0.52856 -0.82439,1.57678 -1.09467,2.10535c-0.27107,0.53012 -1.03424,2.16711 -1.26867,2.72867c-0.23425,0.5611 -0.67805,1.6795 -0.90933,2.22131c-0.44721,1.04764 -0.94133,1.99734 -1.45733,2.84268l-0.2655,0.38766l-0.531,0.72534l-0.511,0.68533" id="svg_9" stroke-width="2" stroke="#000" fill="none"/>
  <path t="11317,11391,11391,11391,11391,11391,11408,11408,11408,11408,11408,11408,11424,11424,11424,11424,11442,11442,11442,11442,11442,11442,11457,11458,11458,11458,11458,11474,11474,11474,11474,11474,11474,11474,11491,11491,11491,11491,11491,11491,11491,11491,11491,11507,11507,11507,11507,11507,11507,11508,11508,11508,11524,11524,11524,11524,11524,11524,11524,11524,11524,11540,11541,11541,11541,11541,11541,11541,11541,11541,11558,11558,11558,11558,11558,11558,11558,11559,11559,11574,11574,11574,11574,11574,11574,11574,11574,11574,11592,11592,11592,11592,11592,11592,11592,11592,11592" d="m202,354c-7.91434,4.39249 -8.4521,4.61508 -9.47734,4.82001c-0.47748,0.09543 -1.41885,0.16873 -2.85599,0.17999c-0.50916,0.004 -1.5675,0 -2.10667,0c-1.07333,0 -1.5975,0 -3.06,0c-0.84666,0 -1.61333,0 -2.34,0c-1.49333,0 -1.903,0 -2.77434,0c-0.92734,0 -1.89467,0 -2.38834,0c-1.4975,0 -1.99866,0 -3.008,0c-1.02533,0 -1.54649,0 -3.15601,0c-0.55516,0 -1.12132,0 -2.29066,0c-0.60516,0 -1.22533,0 -2.51466,0c-1.36133,0 -2.07117,0 -2.8,0c-0.74683,0 -1.51067,0 -2.2905,0c-0.79483,0 -1.60367,0 -2.42551,0c-1.67867,0 -2.53366,0.00079 -3.39867,-0.00134c-0.875,-0.00217 -1.76003,-0.00693 -2.655,-0.0195c-0.90503,-0.01273 -1.82019,-0.0304 -2.745,-0.06448c-1.88049,-0.06931 -2.83533,-0.13174 -3.8,-0.20132c-0.97534,-0.07034 -1.96042,-0.15558 -2.955,-0.255c-1.00545,-0.10052 -2.02078,-0.21362 -3.045,-0.345c-2.08171,-0.26703 -3.1346,-0.43271 -4.19466,-0.59601c-1.06262,-0.1637 -2.12242,-0.33368 -3.177,-0.49649c-1.04408,-0.16119 -2.07347,-0.32001 -3.08701,-0.45151c-1.95249,-0.25333 -2.88962,-0.33353 -3.79867,-0.39868c-0.88403,-0.06335 -1.74784,-0.10349 -2.5935,-0.129c-0.83037,-0.02505 -1.64899,-0.03516 -2.4585,-0.039c-1.60398,-0.00763 -2.4035,-0.00266 -3.2,-0.00266c-0.7905,0 -1.572,0 -2.3415,0c-0.7545,0 -1.491,0 -2.2065,0c-1.356,0 -1.991,0 -2.596,0c-0.575,0 -1.12,0 -1.635,0l-0.485,0l-0.455,0l-0.425,0" id="svg_10" stroke-width="2" stroke="#000" fill="none"/>
  <path t="11998,12091,12091,12091,12091,12091,12091,12091,12091,12091,12108,12108,12108,12108,12109,12109,12109,12109,12109,12126,12127,12127,12127,12127,12127,12127,12127,12127,12141,12141,12141,12141,12141,12141,12141,12141,12141,12158,12158,12158,12158,12158,12158,12158,12158,12175,12175,12175,12192,12392,12409,12431,12441,12441,12442,12459,12476,12476,12476,12491,12509,12509,12591,12608,12625,12642,12642,12642,12642,12642,12659,12659,12659,12659,12659,12659,12659,12675,12675,12675,12675,12675,12675,12676,12676,12676,12691,12691,12691,12691,12691,12691,12691,12708,12708,12708,12708,12708,12725,12725,12725,12725,12741,12742,12758,12824,12842,12858,12858,12859,12859,12875,12875,12875,12875,12876,12892,12892,12892,12892,12892,12893,12909,12909,12909,12909,12909,12909,12909,12925,12925,12926,12926,12926,12926,12926,12926,12942,12942,12943,12943,12943,12943,12943,12959,12959,12959,12959,12959,12959,12975,12975,12976,12976,12976,12992,12992,12993,12993,12993,12993,13009,13009,13009,13009,13025,13026,13026,13042,13042,13042,13043,13059,13059,13075,13076,13076,13093,13093,13093,13109,13109,13109,13125,13142,13225,13244,13244,13244,13244,13258,13258,13258,13258,13259,13259,13275,13276,13276,13276,13276,13276,13276,13292,13292,13292,13292,13292,13292,13292,13293,13308,13309,13309,13309,13309,13309,13309,13325,13325,13325,13325,13325,13325,13342,13342,13342,13342,13342,13359,13359,13359,13376,13376" d="m192,333c3.66667,7.33334 3.96405,8.14066 4.23334,8.96933c0.27246,0.83838 0.52507,1.6925 0.78749,2.55151c0.26424,0.86499 0.52605,1.73639 0.8325,2.5965c0.61549,1.72742 1.00009,2.56619 1.40134,3.396c0.4015,0.83035 0.8367,1.64331 1.287,2.44501c0.44841,0.79834 0.91319,1.58087 1.377,2.35498c0.91177,1.52176 1.36253,2.26382 1.79466,3.004c0.42784,0.73285 0.84489,1.46533 1.245,2.20352c0.39992,0.73782 0.79036,1.48395 1.155,2.2485c0.7412,1.55408 1.06999,2.37064 1.40001,3.19333c0.33,0.82266 0.6411,1.6449 0.94499,2.45398c0.29607,0.78827 0.57445,1.55148 0.85501,2.27402c0.50993,1.31326 0.75922,1.88284 1,2.396c0.21974,0.46832 0.43626,0.88867 0.64499,1.26749c0.1916,0.34775 0.56477,0.94672 1.02017,1.72418c0.51172,0.87363 0.83902,1.42221 1.41083,2.28568c0.54491,0.82288 0.89992,1.51627 1.81201,1.63733c0.97087,0.12888 1.64761,0.39313 2.31467,0.79999c0.89365,0.54507 1.64653,1.20554 2.30933,1.59866c0.68648,0.40717 1.55696,0.98117 2.17467,1.60001c0.58176,0.58279 0.78795,1.64893 1.52083,1.97916c0.83096,0.37442 1.97917,0.02084 2.53917,0.02084c1.065,0 1.48,0 2.40001,0c1.03999,0 2.19733,0 2.81599,0c0.64267,0 1.30733,0 2.69467,0c0.71866,0 2.196,-0.00052 2.9505,0.00015c0.76149,0.00067 1.52701,0.00235 2.29349,0.01053c0.76454,0.00818 1.52411,0.02161 2.27551,0.04648c0.74063,0.02451 2.17793,0.09415 3.53783,0.22818c0.65393,0.06445 1.29005,0.1456 1.9095,0.2355c1.1978,0.17386 1.77568,0.27399 3.44067,0.57916c0.53421,0.09793 1.56497,0.29764 2.05933,0.39999c0.9446,0.19556 2.23212,0.48911 2.98917,0.70001c0.6828,0.19022 1.58133,0.43716 2.43033,0.89981c0.75345,0.41058 2.16644,0.65439 2.09634,1.47485c-0.05722,0.66959 -1.45334,0.42532 -2.32483,0.42532c-0.69101,0 -1.44202,0 -2.62851,0c-0.80267,0 -1.62134,0 -2.472,0c-0.89867,0 -1.86133,0 -2.89867,0c-0.54367,0 -1.67101,0 -2.25067,0c-1.18134,0 -2.37866,0 -2.97884,0c-1.20433,0 -1.81049,0 -2.42065,0c-0.61517,0 -1.8645,0 -3.14584,0c-0.65466,0 -1.31732,0 -2.65866,0c-0.67467,0 -1.34933,0 -2.022,0c-0.66867,0 -2.63116,0 -3.26733,0c-0.62816,0 -1.24933,0 -2.47467,0c-0.60616,0 -1.20932,0 -3.01033,0c-0.59766,0 -1.19133,0 -2.35866,0c-0.56967,0 -1.67101,0 -2.70834,0c-0.96533,0 -1.88266,0 -2.784,0c-0.45467,0 -1.88266,0 -2.39183,0c-1.05833,0 -1.5975,0 -2.67084,0c-0.52417,0 -1.98666,0 -2.83066,0c-0.748,0 -1.74252,-0.0043 -2.95601,0.00015c-0.60001,0.0022 -1.50688,-0.0166 -2.7,0.1665c-0.60196,0.09238 -1.47969,0.30127 -2.22934,0.63467c-0.9893,0.43997 -1.50455,0.9913 -1.972,1.96802c-0.35252,0.73657 -0.48959,1.32175 -1.12,2.30914c-0.45787,0.71716 -1.06125,1.29056 -1.65717,2.12134c-0.41054,0.57236 -0.84012,1.3013 -1.41083,2.16418c-0.54469,0.82352 -0.85887,1.9921 -0.11067,2.46933c0.4998,0.31882 1.44891,0.0882 2.16,-0.09067c1.32513,-0.33331 1.80115,-0.58398 2.83733,-1.05069c0.54788,-0.24677 1.10161,-0.51819 1.659,-0.80548c1.68611,-0.86908 2.22131,-1.18863 2.76234,-1.48383c1.07465,-0.5863 1.6194,-0.86856 2.17867,-1.13068c0.56613,-0.26535 2.39955,-0.94989 3.06667,-1.129c0.685,-0.1839 1.39278,-0.33499 2.112,-0.47101c0.72282,-0.13669 1.44766,-0.2529 2.166,-0.36301c2.05704,-0.31534 2.69379,-0.40805 3.30333,-0.50766c1.15758,-0.18921 1.71237,-0.28467 2.25867,-0.36533c1.07614,-0.15891 2.16182,-0.28217 3.27867,-0.35068c0.56512,-0.03467 1.69646,-0.06717 2.256,-0.07465c1.09193,-0.01459 2.12801,-0.01068 3.08934,-0.01068c0.88933,0 1.71466,0 2.48399,0c1.06616,0 1.72183,0 2.60533,0l1.13983,0l0.75751,0" id="svg_11" stroke-width="2" stroke="#000" fill="none"/>
  <path t="13783,13859,13859,13859,13859,13859,13859,13859,13877,13877,13877,13877,13877,13877,13877,13877,13892,13892,13892,13892,13892,13892,13892,13892,13909,13909,13909,13909,13909,13909,13925,13925,13925,13942,13942,14025,14025,14043,14058,14075,14075,14092,14092,14092,14092,14109,14109,14109,14109,14109,14109,14126,14126,14126,14126,14126,14126,14126,14126,14142,14142,14142,14142,14142,14143,14143,14159,14159,14159,14159,14159,14159,14159,14159,14176,14176,14176,14176,14176,14176,14176,14192,14192,14192,14192,14193,14193,14193,14209,14209,14209,14209,14209,14226,14226,14226,14226,14226,14242,14243,14243,14259,14259,14309,14309,14325,14325,14343,14343,14343,14343,14358,14359,14359,14359,14375,14376,14376,14376,14376,14376,14393,14393,14393,14393,14393,14393,14410,14410,14410,14410,14410,14410,14426,14426,14427,14427,14427,14443,14443,14443,14443,14443,14443,14460,14460,14460,14460,14460,14460,14460,14477,14477,14477,14477,14477,14477,14477,14493,14493,14493,14493,14493,14494,14494,14510,14510,14510,14510,14510,14510,14526,14526,14526,14526,14527,14543,14543,14543,14543,14543,14559,14560,14560,14560,14560,14577,14577,14577,14578,14578,14578,14593,14593,14594,14594,14610,14610,14610,14627,14627,14708,14709,14709,14709,14709,14727,14727,14727,14727,14727,14728,14728,14728,14742,14742,14742,14742,14742,14743,14743,14743,14743,14759,14759,14760,14760,14760,14760,14760,14760,14760,14776,14776,14777,14777,14777,14777,14777,14777,14777,14793,14793,14793,14793,14793,14793,14794,14810,14810,14810,14810,14810" d="m255,321c1.75699,6.60034 1.8396,7.20181 1.88568,7.80899c0.09348,1.23126 0.09604,1.86295 0.10532,2.50534c0.00946,0.65631 0.009,2.72852 0.009,3.45502c0,0.74048 0,1.49197 0,2.2515c0,0.7645 0,1.53098 0,2.29648c0,1.51602 0,2.26083 0,2.99469c0,0.72183 0,1.43066 0,2.80533c0,0.66382 0,1.31067 0,2.54932c0,1.16 0,1.71002 0,2.75c0,0.96002 0,1.41 0,3.01135c0,0.68933 0,1.60583 0,2.65033c0,0.67499 -0.37747,1.88004 0.05716,2.56c0.39819,0.62296 1.57883,0.36166 2.43085,0.36166c0.79465,0 1.84543,0.00861 2.83084,-0.00449c0.74377,-0.00986 1.5495,-0.02957 2.84781,-0.16217c0.45609,-0.04657 1.39941,-0.18655 1.89069,-0.25867c1.02518,-0.15048 1.55856,-0.25128 3.276,-0.40802c0.60864,-0.05554 1.23566,-0.09113 2.52798,-0.13065c0.65939,-0.02017 1.32401,-0.02686 1.99051,-0.03152c0.6655,-0.00467 2.62698,-0.00449 3.2655,-0.00449c0.63449,0 1.26801,0 2.54401,0c0.6485,0 1.30798,0 2.672,0c0.70932,0 1.43466,0 2.91733,0c0.74933,0 1.49866,0 2.24399,0c0.73734,0 2.172,-0.00055 2.86234,0.00015c0.67233,0.00067 1.97107,0.0079 2.60135,0.02069c0.62039,0.01257 1.23459,0.00803 3.04166,0.14581c0.60046,0.04578 1.20068,0.09946 2.37866,0.29068c0.58154,0.09439 1.71188,0.34509 2.25067,0.51465c1.04779,0.32974 2.01071,0.77615 2.888,1.28934c0.42627,0.24936 1.21661,0.79034 2.31601,1.57202c0.67871,0.48257 1.32468,0.92239 1.884,1.392c0.52567,0.44135 1.34457,1.44186 1.59998,2c0.36652,0.80093 0.60254,1.84924 0.66183,2.733c0.0683,1.01791 -0.12085,1.86374 -0.8725,2.00565c-0.86539,0.16339 -1.74966,0.03601 -2.77866,0.03601c-0.74933,0 -1.53067,0.00314 -2.72818,-0.00015c-0.80432,-0.00223 -1.62155,-0.00397 -2.457,-0.05701c-1.3114,-0.08328 -1.76926,-0.13577 -2.6955,-0.31351c-0.95352,-0.18295 -1.44092,-0.29944 -2.36331,-0.68668c-0.93918,-0.39429 -1.80441,-0.98859 -2.23135,-1.30066c-0.86166,-0.62985 -1.25681,-0.99625 -2.13666,-1.59c-0.86295,-0.58237 -1.79141,-1.02435 -2.75201,-1.34399c-0.48032,-0.15982 -1.46756,-0.39868 -1.96533,-0.504c-1.49606,-0.31656 -2.49866,-0.504 -2.99866,-0.604c-1,-0.20001 -1.49994,-0.30032 -3,-0.60001c-0.50012,-0.09991 -1.50381,-0.29919 -2.01068,-0.38934c-1.02402,-0.18213 -2.07309,-0.34052 -3.15598,-0.444c-0.55414,-0.05295 -1.69037,-0.11383 -2.26935,-0.13065c-1.17444,-0.03412 -1.76849,-0.03287 -2.36533,-0.03467c-1.79883,-0.0054 -2.39999,-0.00134 -3.00317,-0.00134c-1.21634,0 -1.83148,0 -2.45267,0c-0.62817,0 -2.564,0 -3.22549,0c-0.6655,0 -1.332,0 -1.99649,0c-1.311,0 -1.95151,0 -3.1875,0c-1.16269,0 -1.71902,0 -2.79167,0c-0.52034,0 -1.539,-0.00067 -2.54167,0c-0.99733,0.00067 -1.49124,-0.00626 -2.45833,0.02084c-0.92769,0.026 -2.21448,0.11234 -2.97234,0.26849c-0.71518,0.14734 -1.40712,0.38712 -2.052,0.76801c-1.08192,0.63901 -1.77573,1.30792 -2.14267,1.65067c-0.76143,0.71124 -1.13934,1.08984 -2.20799,2.29199c-0.35094,0.39478 -1.01094,1.19434 -1.64584,1.97916c-0.31087,0.38428 -0.90695,1.14624 -1.8205,2.19919c-0.29369,0.3385 -0.8868,0.96793 -1.42833,1.57498c-0.95255,1.06781 -1.37018,1.52084 -1.81467,2.39999c-0.40196,0.79504 -0.61754,2.05869 -0.12401,2.01334c0.76776,-0.07056 0.79285,-1.30637 1.36151,-2.04633c0.32353,-0.42099 1.12735,-1.29889 1.61282,-1.742c1.05901,-0.96658 1.67989,-1.42902 2.31734,-1.91998c0.66113,-0.50919 1.35387,-1.02109 2.067,-1.54501c1.47304,-1.08221 2.22923,-1.63461 2.992,-2.19598c0.76857,-0.56564 1.54013,-1.13364 2.31599,-1.6965c0.7735,-0.56113 1.54362,-1.11633 2.31599,-1.65152c1.51016,-1.04642 2.25908,-1.53143 2.99867,-1.996c0.72484,-0.45532 1.44562,-0.88654 2.16451,-1.28998c0.70656,-0.39651 1.41057,-0.77182 2.11949,-1.11002c1.39044,-0.66333 2.0979,-0.93814 2.79868,-1.19998c0.6907,-0.25809 1.37894,-0.48792 2.061,-0.69c0.66739,-0.19775 1.32465,-0.37207 1.97098,-0.51001c1.23264,-0.26306 1.8266,-0.33633 2.39734,-0.40399c0.54938,-0.06512 1.07986,-0.10992 1.59,-0.1485c0.95975,-0.0726 2.25,-0.1875 3.01401,-0.30884l0.70801,-0.16934l0.67599,-0.22534l0.668,-0.28931" id="svg_12" stroke-width="2" stroke="#000" fill="none"/>
 </g>
 <g display="none">
  <title>muse_image</title>
  <image xlink:href="http://farm3.static.flickr.com/2348/2087814292_de429bc2c6.jpg" id="muse" height="480" width="640" y="0" x="0"/>
 </g>
 <g display="none">
  <title>bbox</title>
  <rect stroke="#f00" fill="none" stroke-width="3" height="268.8" width="309.76" y="143.36" x="121.6" id="bbox"/>
 </g>
</svg>
