<svg width="640" height="480" xmlns="http://www.w3.org/2000/svg" xmlns:svg="http://www.w3.org/2000/svg" xmlns:xlink="http://www.w3.org/1999/xlink">
 <!-- Sketchy ANNOTATION
  ImageNet ID: n01530575_10613
  URL: http://farm4.static.flickr.com/3414/3303402439_50fbd68596.jpg
  Image Width: 332
  Image Height: 500
  BBox X: 129
  BBox Y: 207
  BBox Width: 98
  BBox Height: 180
  Exposure: 2000ms
  Synset Label: songbird
  Synset ID: n01526521
  Worker Tag: song bird sitting on a branch
  Sanity Check: 
   Saved
  Comment: 
   {}
  Worker ID: A1P7U2ULSAE7YL
  Assignment ID: 3DQQ64TANGL18SZT2OBABUMYHX1PWI
  HIT ID: 36D1BWBEHN17OP6F6MP9HZHT585M28
  Work Time: 70s
  Worker Score: 0.7143
 END ANNOTATION -->
 <g display="inline">
  <title>Layer 1</title>
  <path t="0,413,453,485,501,525,589,621,661,661,693,709,741,773,773,781,805,821,845,885,901,909,925,949,957,1045,1053,1061,1085,1093,1133,1173,1173,1197,1237,1237,1277,1309,1317,1325,1342,1349,1373,1381,1397,1421,1445,1453,1477,1501,1517,1533,1549,1565,1573,1589,1597,1629,1645,1661,1701,1709,1717,1733,1757,1765,1781,1789,1797,1813,1829,1845,1869,1893,1893,1917,1933,1941,1949,1957,1965,1981,1997,2021,2045,2069,2077,2078,2093,2109,2117,2133,2149,2157,2173,2197,2229,2237,2261,2285,2309,2309,2317,2341,2349,2373,2413,2413,2445,2453,2469,2493,2493,2501,2525,2533,2541,2565,2573,2589,2605,2605,2621,2645,2645,2669,2677,2693,2703,2709,2717,2733,2741,2757,2765,2781,2789,2789,2797,2821,2829,2845,2861,2877,2877,2909,2933,2965,2965,2973,2989,3005,3053,3085,3101,3117,3125,3133,3141" d="m369.51135,243.09091c-1.69998,0 -2.59998,0 -3.5,0c-0.89999,0 -1.88931,0 -2.78531,0c-0.81467,0 -1.71725,-0.0639 -2.51468,0c-1.04333,0.0836 -1.4245,0.85863 -2.29999,1.00017c-0.90356,0.14607 -1.59042,0.42387 -2.37918,0.99983c-0.64029,0.46753 -1.33478,0.56023 -2.16367,1c-0.61508,0.32632 -1.13788,1.00357 -1.35583,1.80133c-0.24179,0.88499 -0.93311,0.80573 -1.716,1.284c-0.80325,0.49071 -1.38971,0.82599 -2.28534,0.91467c-0.84567,0.08374 -1.23474,0.6304 -1.87866,1.2215c-0.61148,0.56133 -0.8718,1.43648 -1.41681,2.07851c-0.64072,0.75473 -0.82358,1.47954 -1.27917,2.3c-0.4342,0.78195 -0.70584,1.80341 -1.42535,2.23334c-0.77045,0.46036 -1.54666,0.83701 -1.94281,1.52383c-0.46982,0.81458 -0.52167,1.38516 -1.34119,1.64417c-0.76953,0.24319 -0.54269,1.44775 -1.15198,1.97333c-0.71237,0.61447 -1.14911,1.17505 -1.73068,1.85867c-0.56659,0.66599 -1.49939,0.97546 -1.8125,1.6875c-0.34985,0.79553 -0.79553,1.41577 -1.01633,2.18365c-0.23752,0.82605 -0.00247,1.7955 -0.00452,2.65268c-0.00226,0.93832 -0.6705,1.44968 -0.97916,2.16367c-0.34894,0.80719 -0.02075,1.77914 -0.02084,2.67917c-0.00009,0.89981 -0.5484,1.46933 -0.94281,2.15717c-0.46985,0.8194 -0.05719,1.84149 -0.05719,2.6955c0,0.94733 0,1.74731 0,2.64734c0,0.89999 0.28912,1.85196 -0.01065,2.68933c-0.26373,0.73676 -0.98401,1.22125 -0.98935,2.11066c-0.0054,0.89996 0,1.7955 0,2.7215c0,0.87851 0,1.7785 0,2.57849c0,0.90002 0,1.80002 0,2.70001c0,0.89999 0,1.79999 0,2.70001c0,0.89981 0,1.79999 0,2.60132c0,0.89868 -0.00064,1.79868 0,2.71951c0.00067,0.96182 0.02731,1.78946 0.5,2.45831c0.46109,0.65244 0.38858,1.59042 0.85718,2.32083c0.51318,0.79993 1.45746,1.28033 1.64282,2.05719c0.21777,0.91272 0.49612,1.49832 1.20001,1.92816c0.67538,0.41245 1.24722,1.23434 1.74734,2.01016c0.44998,0.69803 1.05026,1.32126 1.75717,1.75717c0.6716,0.41415 1.56253,0.71106 2.39548,1.16882c0.67505,0.37097 1.30002,1.1785 1.89999,1.7785c0.64282,0.64285 1.41809,1.01929 2,1.5c0.6033,0.49838 1.43808,0.66281 2.05267,1.14734c0.64948,0.51202 1.48523,0.61505 2.11667,1.06866c0.72382,0.51999 1.99292,-0.10471 2.664,0.45065c0.69147,0.57224 0.92764,1.36823 1.64584,1.8125c0.59015,0.36505 1.15131,0.85245 2.02081,1.04169c0.84628,0.18417 1.63806,0.75653 2.30002,1.06314c0.86908,0.40256 1.28009,1.30594 2.19998,1.74936c0.64728,0.31201 1.70258,-0.23157 2.56403,0.20267c0.69885,0.35226 1.31448,0.96399 2.1405,0.96399c0.89548,0 1.79547,0 2.6955,0l0.89999,0l0.89999,0" id="svg_1" stroke-width="2" stroke="#000" fill="none"/>
  <path t="4005,4181,4205,4213,4261,4277,4286,4293,4325,4357,4357,4381,4397,4413,4422,4445,4469,4501,4509,4525,4573,4605,4661,4661,4709" d="m368.51135,242.09091c1.70001,0 2.70001,0 3.56403,0c0.87198,0 1.95224,-0.11098 2.43597,0.52083c0.51859,0.67732 1.09711,1.38142 2,1.47917c0.69827,0.07559 1.52802,0.45351 2.2955,0.94733c0.69638,0.44807 0.70459,1.45064 1.2045,2.05267c0.51462,0.61975 0.90384,1.43924 1.69867,1.916c0.69089,0.41443 0.80133,1.28267 0.80133,2.168l0,0.916l0,0.8l0,0.89999" id="svg_2" stroke-width="2" stroke="#000" fill="none"/>
  <path t="5397,5564,5573,5583,5621,5629,5661,5669,5701,5709,5725,5757,5781,5797,5805,5813,5821,5837,6252,6325,6397,6429,6469,6525,6557,6573,6573,6629,6661,6773" d="m381.51135,252.09091c1.61069,0 2.47565,0.11861 3.05267,0.64734c0.69131,0.63344 1.24356,1.13278 1.89468,1.70532c0.63919,0.56206 0.69785,1.34282 1.07349,2.1265c0.3371,0.70325 1.54532,0.47171 2.00452,1.1315c0.50549,0.72632 0.75467,1.6861 1.32733,2.33667c0.51831,0.58881 1.69424,0.90472 1.6265,1.55267c-0.07971,0.76224 -1.47919,0.5 -2.37918,0.5c-0.89999,0 -1.79999,0 -2.69998,0c-0.90002,0 -1.70001,0 -2.60001,0.05716l-0.80002,0.44284l-0.79547,0.44284" id="svg_3" stroke-width="2" stroke="#000" fill="none"/>
  <path t="7262,7372,7445,7461,7517,7565,7605,7724,7757,7757,7787" d="m389.51135,261.09091c-1.69998,0 -2.59998,0 -3.5,0c-0.89999,0 -1.79999,0 -2.79547,0c-0.87119,0 -1.70453,0 -2.50452,0l-0.89999,0" id="svg_4" stroke-width="2" stroke="#000" fill="none"/>
  <path t="11957,12084,12116,12164,12204,12252,12252,12292,12316,12420,12484,12548,12628,12676,12700,12700,12732,12796,12812,12868,12892,12932,12932,12948,12996,13004,13020,13036,13060,13068,13100,13108,13140,13148,13157,13164,13212,13220,13220,13244,13252,13276,13300,13316,13316,13324,13396,13404,13404,13428,13444,13460,13476,13476,13492,13524,13540,13556,13564,13588,13620,13644,13668,13684,13684,13708,13732,13740,13804,13844,13868,13892,13932,13932,13948,13972,14004,14036,14060,14140,14164,14532,14532,14620,14740,14876,14892,15124,15148,15180,15196,15212,15236,15292,15308,15316,15333,15364,15380,15388,15388,15396,15412,15436,15436,15452,15460,15468,15484,15492,15500,15524,15540,15540,15548,15548,15564,15580,15589,15596,15596,15620,15652,15660,15692,15708,15756,15780,15796,15820,15852,15868,15876,15964,15964,16012,16044,16084,16108,16124,16148,16164,16164,16172,16188,16196,16228,16244,16460,16476,16476,16484,16500,16508,16508,16516,16532,16548,16548,16564,16564,16588,16620,16636,16652,16668,16692,16700,16700,16749,16781,16797,16813,16822,16829,16853,16861,16870,17053,17061,17070,17077,17077,17086,17086,17093,17101,17101,17109,17109,17117,17125,17133,17141,17157,17157,17236,17252,17252,17268,17316,17340,17357,17380,17388,17404,17422,17428,17444,17460,17476,17492,17492,17502,17524,17540,17556,17572,17572,17588,17604,17604,17612,17620,17636,17668,17692,17708,17732,17764,17764,17788,17804,17828,17852,17861,17916,17988,18004,18004,18036,18156,18172,18188,18236,18260,18324,18348,18372,18396,18412,18452,18468,18484" d="m384.51135,263.09091c-1,1 -1.44611,1.54761 -1.91464,2.28534c-0.43915,0.69147 -0.08536,1.71466 -0.08536,2.51465c0,0.90002 0,1.80002 0,2.76401c0,0.86133 0,1.79318 0,2.63602c0,0.89999 0,1.79999 0,2.59998c0,0.90002 -0.39731,1.90213 0.03601,2.76401c0.33102,0.65842 1.35632,0.88022 2.064,1.53583c0.59363,0.54996 1.46402,0.88995 2.336,0.90018c0.95334,0.01117 1.25662,0.58057 1.57468,1.38934c0.2854,0.72574 1.62891,0.42944 1.96851,1.1315c0.41772,0.86349 0.71631,1.12436 1.5,1.5c0.70322,0.33707 0.3765,1.55698 0.53149,2.41516c0.14429,0.79895 0.87833,1.28867 1.46851,2.064c0.55905,0.73447 0.96906,1.354 1.82083,1.50449c0.92715,0.16382 1.15411,0.95267 1.784,1.71017c0.60263,0.72473 1.14993,1.24362 1.56332,1.98535c0.42563,0.76367 0.81863,1.53607 1.23135,2.39999c0.40732,0.85266 0.88235,1.43768 1.10049,2.39999c0.19666,0.86758 -0.05804,1.84018 0.44617,2.47467c0.48392,0.60898 0.57465,1.42532 0.57465,2.32532c0,0.90002 0,1.80002 0,2.70001c0,0.79999 0,1.70001 0,2.60001c0,0.87915 0,1.836 0,2.69998c0,0.90002 0,1.80002 0,2.70001c0,0.79999 0,1.70001 0,2.60001c0,0.89999 0,1.79999 0,2.6955c0,0.92599 0,1.8045 0,2.7045c0,0.79999 0.21429,1.7247 0,2.64282c-0.18106,0.77582 -0.68201,1.58905 -1.284,2.27316c-0.51968,0.59058 -0.13544,0.77661 0.67334,1.09467c0.72577,0.28543 0.49631,1.4603 0.96335,1.99384c0.53693,0.6134 1.2569,0.99759 1.69998,1.70001c0.48691,0.77191 0.78375,1.64255 1.16867,2.39551c0.39014,0.76318 1.01746,1.34607 1.49466,1.98398c0.57446,0.76794 0.37726,1.7114 0.784,2.41602c0.45627,0.79044 1.04453,1.29053 1.7955,1.85718c0.66907,0.50482 1.08902,1.2334 1.62051,1.92947c0.5553,0.72723 0.60214,1.50592 0.91733,2.54669c0.22372,0.73877 0.11371,1.70142 0.51935,2.46664c0.44843,0.84595 0.70193,1.81012 1.258,2.26401c0.75284,0.6145 1.37866,1.04666 1.38931,1.936c0.01068,0.88934 0.72562,1.3739 0.98935,2.11066c0.29977,0.83737 0.01065,1.78934 0.01065,2.68933c0,0.90002 0.31909,1.99783 -0.28531,2.616c-0.60825,0.62207 -1.48148,0.93018 -2.31467,1.07333c-0.95016,0.16324 -1.836,0.01068 -2.70001,0.01068c-0.89999,0 -1.80127,0.04779 -2.70001,0c-0.80338,-0.04272 -1.58194,-0.61298 -2.39999,-0.97467c-0.78445,-0.34683 -1.76215,-0.59613 -2.43332,-1.19199c-0.60605,-0.53806 -1.09665,-0.39639 -1.15601,0.35199c-0.08328,1.04977 -0.01068,1.98132 -0.01068,2.81467c0,0.79999 -0.07901,1.6886 -0.5,2.52084c-0.39969,0.79019 -0.39011,1.702 -0.784,2.59381c-0.32684,0.74005 -0.75879,1.54428 -1.4205,1.93802c-0.7843,0.46671 -1.59412,0.91873 -2.49548,0.94733c-0.89954,0.02853 -1.80002,0 -2.60001,0c-0.89999,0 -2.01172,0.0094 -2.1955,-0.7045c-0.22324,-0.86725 -0.00201,-1.7955 -0.00452,-2.77466c-0.00226,-0.8735 -0.71133,-1.40002 -0.98932,-2.1315c-0.32629,-0.85864 -0.57288,-0.63425 -1.03149,0.11066c-0.46634,0.75748 -1.31732,1.01392 -1.80984,1.98267c-0.379,0.74545 -0.73257,1.41888 -1.47382,1.87451c-0.62292,0.3829 -1.58011,0.95166 -2.12619,1.44281c-0.73157,0.65799 -1.41977,1.16995 -2.32648,1.20001c-0.78436,0.026 -1.7196,0.30182 -2.41751,0.57468c-0.93097,0.36398 -1.82535,0.42532 -2.62534,0.42532c-0.89999,0 -1.59485,-0.3031 -2.36667,-0.83334c-0.68729,-0.47217 -0.83334,-0.96799 -0.83334,-1.86667c0,-0.89999 0,-1.79999 0,-2.69998c0,-0.89999 0,-1.80002 0,-2.70001c0,-0.89999 0,-1.69998 0,-2.61465c0,-0.896 0,-1.78534 0,-2.69601c0,-0.91064 0,-1.76401 0,-2.70398c0,-0.88535 0,-1.68533 0,-2.58536c0,-0.89999 0,-1.86398 0,-2.73599c0,-0.86398 0,-1.76401 0,-2.664c0,-0.89999 0,-1.69998 0,-2.60001c0,-0.89999 0,-1.79999 0,-2.69998c0,-0.89551 0,-1.8215 0,-2.70001c0,-0.89999 0.20944,-1.73846 -0.05716,-2.60001c-0.26804,-0.86615 -1.51511,-1.00287 -1.90683,-1.72531c-0.44244,-0.81598 -0.53278,-1.24713 -1.42532,-1.58536c-0.73175,-0.27728 -1.24115,-0.82092 -2.11069,-1.01016c-0.84625,-0.18417 -1.59998,-0.85767 -2.5,-0.97916l-0.83331,-0.16666" id="svg_6" stroke-width="2" stroke="#000" fill="none"/>
  <path t="19349,19468,19484,19484,19500,19509,19517,19524,19533,19550,19566,19588,19588,19732,19796,19828,19852,19868,19900,19948,20004,20012,20044,20068,20100,20116,20164,20252,20420,20452,20460,20468,20492,20596,20596,20644,20684,20724,20796,20820,20940,20956,20980,20996,21012,21044,21172,21188,21197,21206,21220,21228,21228,21260,21396,21429,21444,21452,21460,21476,21500,21516,21556,21724,21732,21732,21740,21748,21772,21804,21844,21900,21940,21948,21980,21980,21988,22028,22060,22060,22076,22100,22116,22164,22188,22244,22284" d="m360.51135,299.09091c1.56403,1.564 2.34799,2.13391 2.716,2.80133c0.45444,0.82416 0.284,1.79868 0.284,2.69867c0,0.89999 0,1.79999 0,2.70001c0,0.89999 0,1.79999 0,2.59998c0,0.84283 -0.46313,1.61298 -0.91599,2.39868c-0.40259,0.69849 -0.89279,1.46738 -1.60483,1.78049c-0.79553,0.34985 -1.11072,0.62332 -1.5,1.5c-0.31567,0.71091 -0.97693,1.22534 -0.97919,2.12085c-0.00226,0.89999 -0.25079,1.83716 0.00452,2.6955c0.22684,0.76263 1.56207,0.95782 1.9595,0.26849c0.48206,-0.83612 0.47833,-1.67581 0.86932,-2.564c0.28949,-0.65765 0.1637,-1.81564 0.96802,-1.99866c0.89056,-0.20267 1.80936,-0.00665 2.69864,-0.00134c0.8894,0.00534 1.48959,0.52066 1.5,1.39999c0.01065,0.89993 -0.15024,1.81268 0.00018,2.69983c0.14404,0.84949 0.97122,0.54431 0.99982,-0.39981c0.02725,-0.8996 0,-1.80002 0,-2.70001c0,-0.79999 -0.01068,-1.70007 0,-2.60001c0.01044,-0.87933 0.61063,-1.39999 1.5,-1.39999c0.8894,0 1.61191,0.4794 2.14734,1.05267c0.64001,0.68524 1.90762,1.59546 1.35251,1.72583c-0.88181,0.20706 -0.82767,-1.21808 -1.56384,-1.80383c-0.67651,-0.53827 -0.98126,-1.42441 -1.72131,-1.88934c-0.77686,-0.48804 -1.46564,-0.53256 -2.15067,-1.06c-0.65253,-0.50238 -1.44131,-1.01749 -1.56268,-1.82532c-0.13654,-0.90857 -0.9176,-1.35431 -1.00134,-2.20001c-0.07883,-0.79608 0,-1.70001 0,-2.60001c0,-0.89999 0,-1.79999 0,-2.6955l0,-0.92599l-0.00015,-0.87851" id="svg_7" stroke-width="2" stroke="#000" fill="none"/>
  <path t="22956,23060,23084,23108,23164,23220,23220,23260,23340,23356,23356,23380,23412,23436,23492,23500,23508,23524,23532,23572,23708,23724,23740,23756,23788,23828,23964,24004,24020,24028,24052,24068,24204,24300,24308,24324,24332,24356,24356,24500,24516,24524,24532,24548,24565,24588,24612,24612,24644,24788,24804,24868,24900,24956,25052,25092,25108,25132,25164,25180,25212,25252,25284,25284,25292,25340" d="m373.51135,299.09091c1.56403,1.564 2,2.28534 2,3.20001c0,0.89999 0.02707,1.80045 0,2.59998c-0.02859,0.8443 -0.91626,1.35431 -1,2.20001c-0.07883,0.79608 0,1.70001 0,2.60001c0,0.96399 0.37332,1.62482 0.83334,2.39999c0.49017,0.82602 0.923,1.31454 1.168,2.19867c0.22028,0.79492 1.4783,1.12668 1.9415,0.44415c0.47437,-0.69901 0.05716,-1.74283 0.05716,-2.64282c0,-0.91602 0.04358,-1.95038 1,-2c0.84869,-0.04404 0.96268,1.00085 1,1.80133c0.04272,0.91632 0.81778,0.96658 1.00018,0.09885c0.16653,-0.79218 0.71677,-0.54971 1.28516,0.01581c0.61679,0.61368 1.21115,1.09866 2.104,1.46268c0.5556,0.22653 0.61066,-0.87866 0.61066,-1.76801c0,-0.96783 0,-1.81067 0,-2.71066c0,-0.89999 0.02725,-1.70041 0,-2.60001c-0.02859,-0.94412 -0.7045,-1.29773 -1.69998,-1.29999c-0.86401,-0.00195 -1.79776,0.32709 -2.68933,-0.01068c-0.72928,-0.27628 -0.61069,-1.38931 -0.61069,-2.28931c0,-0.89868 -0.36893,-1.29822 -0.91464,-1.98535c-0.50943,-0.64145 -0.08536,-1.71466 -0.08536,-2.51465l-0.08533,-0.91467l-0.79315,-0.50684" id="svg_8" stroke-width="2" stroke="#000" fill="none"/>
  <path t="26380,26476,26476,26484,26484,26492,26500,26508,26508,26516,26516,26524,26524,26532,26532,26541,26541,26548,26564,26572,26580,26580,26588,26596,26612,26628,26636,26644,26644,26660,26684,26708" d="m382.51135,337.09091c1.16669,1 1.608,1.60266 2.30002,2.29999c0.49808,0.50192 1.37329,1.11594 1.64282,2.00452c0.25082,0.82684 -0.08444,1.74347 0.27869,2.67416c0.27432,0.70313 1.02277,1.48306 1.3425,2.19598c0.41104,0.91656 0.4353,1.70935 0.43597,2.65067c0.00049,0.69067 -0.07944,1.76779 0.35269,2.53186c0.44803,0.79218 0.64731,1.64282 0.64731,2.44281c0,0.90002 -0.00192,1.81961 0.42535,2.60001c0.45038,0.82257 0.57465,1.70001 0.57465,2.60001c0,0.79999 0,1.64282 0,2.52084l0,0.97916" id="svg_9" stroke-width="2" stroke="#000" fill="none"/>
  <path t="27204,27355,27355,27365,27365,27365,27374,27374,27374,27380,27380,27380,27388,27388,27388,27396,27396,27404,27404,27404,27412,27412,27412,27420,27420,27428,27428,27436,27444,27460" d="m392.51135,339.09091c1.83603,1.41068 2.43387,1.71793 3.19986,2.3215c0.61456,0.48425 1.21979,1.02811 1.91348,2.07983c0.39041,0.59192 0.63779,1.27701 0.80402,2.28265c0.13416,0.81152 0.14673,1.68091 0.65198,2.63068c0.37729,0.70926 1.00067,1.24786 1.67352,2.28534c0.37701,0.58133 0.86398,1.59686 1.15717,2.21066c0.30719,0.6431 0.69696,1.61166 1,2.40399c0.29703,0.77664 0.85129,1.78622 1.164,2.39999c0.42557,0.83524 0.43149,1.73267 0.44666,2.73868l0.42532,0.62134l0.8595,0.38251" id="svg_10" stroke-width="2" stroke="#000" fill="none"/>
  <path t="28212,28307,28316,28324,28340,28340,28356,28356,28364,28364,28380,28404,28428,28444,28452,28452,28460" d="m371.51135,333.09091c1.61069,0 2.51556,-0.1564 3.40002,0.01065c0.9502,0.17947 1.46457,0.8063 2.436,0.95334c0.75748,0.11465 1.75949,0.03601 2.67865,0.03601c0.84933,0 1.78534,0.00006 2.68533,0c0.89999,-0.00009 1.79999,-0.16666 2.44284,-0.7045l0.35715,-0.77466" id="svg_11" stroke-width="2" stroke="#000" fill="none"/>
  <path t="31275,31595,31635,31643,31644,31683,31899,31907,31995,32195,32219,32395" d="m370.51135,249.09091c1,-1 1.91626,-0.84569 2,0c0.07883,0.79611 0.91043,2.38837 0,2.66667c-0.72745,0.22238 -1,-1.02383 -1,-1.95767l0,0l-0.05716,0.93384" id="svg_12" stroke-width="2" stroke="#000" fill="none"/>
  <path t="35045,35116,35125,35132,35132,35140,35148,35156,35165,35182,35182,35182,35188,35188,35196,35205,35212,35212,35228,35236,35244,35244,35252,35253,35260,35268,35268,35276,35284,35284" d="m351.51135,253.09091c-1.69998,0.05716 -2.53098,0.49034 -3.19864,1.2c-0.54227,0.57639 -0.42783,1.60214 -0.83734,2.364c-0.39206,0.7294 -1.49063,0.83636 -1.79733,1.76935c-0.28711,0.87332 -0.03214,1.8046 -0.73468,2.41199c-0.70126,0.60629 -1.42749,0.95914 -1.43201,1.77551c-0.00531,0.96182 0.0007,1.76932 0,2.7645c-0.00067,0.91467 -0.16769,1.71396 -0.61066,2.35065c-0.58936,0.84708 -0.99234,1.52496 -1.30533,2.47867c-0.28693,0.87427 -0.65866,1.48535 -1.08401,2.38535l-0.35715,0.8045l-0.44418,0.58084" id="svg_13" stroke-width="2" stroke="#000" fill="none"/>
  <path t="36133,36188,36196,36204,36220,36220,36237,36237,36244,36253,36260,36269" d="m336.51135,281.09091c0,1.79999 0,2.70001 0,3.52084c0,0.96448 0,1.68982 0,2.67899c0,0.77933 0,1.77866 0,2.80017l0,0.83334l0.716,0.25198" id="svg_14" stroke-width="2" stroke="#000" fill="none"/>
  <path t="38988,39060,39076,39093,39108,39108,39117,39124,39148,39164,39173,39188,39197,39216,39220,39236,39249,39260,39268,39277,39294,39308,39316,39327,39341,39364,39373" d="m381.51135,281.09091c0,1.79999 0,2.70001 0,3.52084c0,0.96317 0,1.65381 0,2.72198c0,0.95718 -0.08868,1.86157 0,2.75717c0.08374,0.8457 0.93912,1.21524 1,2.09982c0.06183,0.89804 0.11795,1.68243 0.57468,2.50018c0.43149,0.77258 0.83984,1.48407 1.478,2.04733c0.5954,0.52551 0.61017,1.50162 1.11401,2.186c0.48074,0.65298 1.186,1.11398 1.80798,1.59198l0.60001,0.60001l0.478,0.62201" id="svg_15" stroke-width="2" stroke="#000" fill="none"/>
  <path t="40565,40604,40613,40620,40636,40636,40644,40652,40660,40660,40668,40684,40700,40708,40708,40748,40756,40772,40780,40788,40788,40796,40804" d="m331.51135,290.09091c1.71469,1.08398 1.56491,1.95914 2.08536,2.71466c0.57877,0.84018 1.51138,0.87982 1.88931,1.68533c0.41461,0.88373 0.90265,1.59216 1.02402,2.39999c0.13654,0.90857 0.85995,1.4245 1.0015,2.30002c0.14606,0.90353 0.78055,1.38428 0.99982,2.25717c0.22971,0.9144 0,1.84283 0,2.74283c0,0.89999 0,1.69998 0,2.60001l0.03601,0.86398" id="svg_16" stroke-width="2" stroke="#000" fill="none"/>
 </g>
 <g display="none">
  <title>muse_image</title>
  <image xlink:href="http://farm4.static.flickr.com/3414/3303402439_50fbd68596.jpg" id="muse" height="480" width="318" y="0" x="161"/>
 </g>
 <g display="none">
  <title>bbox</title>
  <rect stroke="#f00" fill="none" stroke-width="3" height="172.8" width="93.86747" y="198.72" x="284.56024" id="bbox"/>
 </g>
</svg>
