<svg width="640" height="480" xmlns="http://www.w3.org/2000/svg" xmlns:svg="http://www.w3.org/2000/svg" xmlns:xlink="http://www.w3.org/1999/xlink">
 <!-- Sketchy ANNOTATION
  ImageNet ID: n01531178_2861
  URL: http://farm4.static.flickr.com/3009/2744072630_e688c5de0e.jpg
  Image Width: 500
  Image Height: 357
  BBox X: 92
  BBox Y: 42
  BBox Width: 257
  BBox Height: 294
  Exposure: 2000ms
  Synset Label: songbird
  Synset ID: n01526521
  Worker Tag: yellow and black songbird
  Sanity Check: 
   Saved
  Comment: 
   {}
  Worker ID: A1Y3PSVSU557SW
  Assignment ID: 3L4PIM1GQTGQ9AA8UHXN1M7TUZ5YRN
  HIT ID: 32204AGAABCBB5DBE4ULRY3YY5CHGE
  Work Time: 49s
  Worker Score: 0.6417
 END ANNOTATION -->
 <g display="inline">
  <title>Layer 1</title>
  <path t="0,40,41,41,41,41,49,50,50,50,54,55,55,55,55,72,105,105,105,106,106,106,106,106,121,122,122,122,122,123,123,123,123,133,134,134,134,134,135,136,137,137,140,141,141,141,141,142,142,142,143,155,155,155,156,156,156,157,174,175,175,175,175,176,176,176,179,180,180,181,181,181,190,190,194,195,195,195,196,196,199,200,200,200,201,222,224,227,228,228,229,229,229,233,234,234,235,235,236,236,240,241,256,257,257,258,272,272,273,273,274,274,275,289,289,290,290,291,310,311,312,312,323,327,327,328,328,329,332,333,333,334,335,339,343,343,344,344,345,345,349,349,350,350,351,373,376,378,379,380,380,388,389,390,390,391,391,398,399,408,408,409,409,421,422,423,423,438,439,440,440,441,442,455,456,456,471,472,472,473,473,494,495,496,496,497,498,512,512,513,513,517,517,518,519,520,523,523,524,537,538,539,539,540,540,541,541,554,555,555,556,557,557,562,563,564,564,565,566,570,571,572,588,601,603,605,607,608,609,614,614,615,621,625,626,639,643,644,645,650,651,672,690,774,779,780,780,784,789,805,821,822,823,824,824,838,839,840,840,841,845,846,847,848,851,853,854,871,884,885,887,888,889,892,893,894,895,906,910,910,911,912,913,916,917,918,919,920,921,938,939,939,954,955,957,957,959,960,961,971,972,973,974,978,979,982,1004,1104,1105,1106,1121,1123,1133,1134,1135,1135,1140,1141,1141,1154,1156,1160,1161,1161,1165,1165,1166,1167,1168,1169,1188,1189,1192,1193,1194,1195,1196,1197,1200,1201,1203,1204,1205,1221,1222,1226,1227,1228,1231,1235,1237,1238,1239,1240,1241,1244,1246,1254,1255,1256,1260,1261,1262,1263,1264,1268,1270,1271,1272,1289,1290,1305,1306,1307,1308,1309,1310,1311,1315,1316,1317,1318,1321,1325,1326,1330,1331,1332,1333,1333,1334,1337,1341,1342,1343,1344,1345,1346,1355,1356,1416,1417,1419,1420,1421,1422,1423,1428,1429,1430,1431,1432,1433,1434,1436,1437,1442,1443,1444,1445,1446,1447,1448,1450,1451,1455,1457,1458,1459,1461,1462,1463,1464,1465,1476,1477,1478,1480,1481,1482,1483,1484,1485,1491,1493,1494,1495,1496,1497,1498,1500,1511,1512,1513,1514,1516,1517,1522,1523,1525,1526,1527,1532,1533,1534,1539,1541,1542,1543,1544,1546,1547,1548,1549,1554,1556,1557,1558,1560,1561,1562,1563,1565,1571,1572,1574,1575,1576,1577,1588,1590,1592,1608,1610,1611,1612,1613,1621,1623,1624,1625,1627,1628,1637,1639,1640,1642,1654,1656,1657,1659,1671,1672,1674,1676,1677,1688,1690,1691,1692,1707,1709,1713,1715,1716,1721,1741,1773,1775,1776,1793,1795,1800,1801,1806,1856,1859,1874,1876,1880,1882,1896,1897,1899,1906,1909,1921,1925,1927,1928,1930,1935,1937,1938,1940,1942,1948,1949,1962,1964,1965,1967,1972,1974,1975,1977,1978,1980,1984,1986,1988,1989,1991,1992,1994,2004,2006,2011,2012,2014,2015,2017,2019,2021,2023,2026,2031,2032,2034,2035,2038,2044,2046,2048,2056,2058,2059,2061,2062,2064,2069,2071,2073,2074,2076,2077,2082,2084,2086,2091,2093,2094,2096,2098,2099,2101,2103,2104,2109,2111,2113,2114,2116,2118,2120,2121,2123,2128,2130,2132,2133,2135,2137,2138,2140,2142,2150,2152,2154,2159,2161,2173,2175,2176,2178,2180,2181,2186,2188,2190,2191,2193,2194" d="m222,250c-9.16667,14.16666 -9.67348,14.9292 -10.38017,16.05066c-0.43834,0.69559 -0.78123,1.35117 -1.18916,2.37466c-0.29591,0.74246 -0.6199,1.59058 -0.7825,2.04001c-0.49339,1.36377 -0.76875,2.24188 -1.0015,3.056c-0.20645,0.7222 -0.20052,1.39523 -0.70917,2.52032c-0.46671,1.03229 -0.82942,1.28558 -1.38417,2.14633c-0.34326,0.53259 -0.72365,1.14316 -1.14,1.836c-0.46407,0.77225 -0.97488,1.62912 -2.08,3.64267c-0.62698,1.1424 -1.27216,2.37384 -1.9395,3.66901c-0.6888,1.33679 -1.37706,2.70398 -2.0565,4.08301c-0.67352,1.367 -1.33238,2.70438 -2.504,5.24799c-0.53297,1.1571 -1.00876,2.24197 -1.43849,3.25351c-0.39792,0.93665 -0.75244,1.80762 -1.0695,2.6145c-0.29167,0.74225 -0.55162,1.4267 -0.992,2.63199c-0.19173,0.52475 -0.36201,1.00244 -0.5145,1.43402c-0.13678,0.38712 -0.25679,0.73251 -0.3615,1.03799c-0.09158,0.26718 -0.16953,0.4986 -0.29066,0.86133c-0.04575,0.13696 -0.08534,0.25601 -0.123,0.36899c-0.03967,0.11902 -0.08534,0.25601 -0.21068,0.63202c-0.33299,0.99899 -0.49538,1.49234 -0.89999,2.69098c-0.22922,0.67905 -0.47295,1.39197 -0.729,2.12402c-0.25858,0.73926 -0.5112,1.47366 -1.03732,2.85065c-0.23964,0.6272 -0.6965,1.73129 -0.90933,2.21066c-0.3678,0.82843 -0.70741,1.46405 -1.21735,2.55334c-0.30673,0.65524 -0.69978,1.62125 -1.1115,2.55151c-0.23383,0.52835 -0.47697,1.08722 -1.04199,2.22064c-0.28351,0.56873 -0.86356,1.64578 -1.4825,2.55185c-0.2803,0.41034 -0.82512,1.11456 -1.548,1.884c-0.68723,0.73148 -1.19283,1.36966 -1.742,2.19016c-0.54216,0.81 -0.85703,1.27719 -1.19733,1.77533c-0.35832,0.52454 -1.1154,1.62326 -1.91667,2.72919c-0.39609,0.54669 -0.79048,1.07785 -1.55733,2.07733c-0.35741,0.46582 -0.69701,0.89996 -1.30135,1.66132c-0.80046,1.00842 -1.29668,1.76779 -1.71599,2.57068c-0.32173,0.61603 -0.73283,1.35065 -1.28401,2.14801c-0.61732,0.89307 -0.9989,1.336 -1.79483,2.26199c-0.40865,0.47543 -0.83817,0.93683 -1.63133,1.89465c-0.38396,0.46365 -1.08611,1.36456 -1.57649,2.26733c-0.45142,0.83105 -0.58609,1.2691 -0.93501,2.08084c-0.5208,1.21158 -0.96611,2.00833 -1.21799,2.39999c-0.51091,0.79446 -1.07816,1.56104 -1.98567,2.63785c-0.29471,0.34967 -0.89494,1.01428 -1.5,1.64581c-0.59508,0.62109 -1.49998,1.52084 -2.09599,2.11685c-0.57201,0.57199 -1.10139,1.09064 -1.548,1.548c-0.86658,0.88742 -1.35468,1.69012 -1.71201,2.28131c-0.45032,0.74503 -0.97459,1.5929 -1.25749,2.04001c-0.28908,0.45691 -1.1812,1.81586 -1.77301,2.65952c-0.27924,0.39807 -0.79993,1.12463 -1.25749,1.73248c-0.78123,1.03784 -1.52554,1.63892 -1.99733,2.00134c-0.6064,0.46585 -1.31523,1.02985 -2.06401,1.716c-0.81001,0.74225 -1.20387,1.15848 -1.97667,2.01715c-0.38023,0.42249 -1.07625,1.24765 -1.38933,1.63135c-0.95003,1.16425 -1.49379,1.8317 -2.093,2.44131c-0.63277,0.64374 -1.14224,1.15802 -1.65433,1.7395c-0.77664,0.8819 -1.22606,1.50558 -1.72301,2.09601c-0.51353,0.61014 -1.44507,1.51709 -2.21033,2.09732c-0.39929,0.30273 -1.24535,0.86523 -1.672,1.13068c-0.81898,0.50949 -1.91397,1.12552 -2.78934,1.62134c-0.52797,0.29904 -1.62424,0.97791 -2.25734,1.42133c-0.70612,0.49457 -1.07259,0.76883 -1.83833,1.33835c-1.1935,0.88763 -1.59035,1.1915 -2.38651,1.7865c-0.39359,0.29416 -1.16576,0.87225 -1.91917,1.41916c-1.06,0.76947 -1.7366,1.22592 -2.36449,1.70618c-0.62492,0.47797 -1.53223,1.30194 -2.11684,1.94449c-0.29637,0.32574 -0.84732,0.98846 -1.3325,1.61499c-0.83628,1.07993 -1.32441,1.63245 -1.75017,2.01169c-1.08485,0.96634 -1.59708,1.39917 -2.16067,1.88116c-0.6043,0.51682 -1.24047,1.05203 -1.902,1.58548c-0.66249,0.53424 -1.30549,1.07104 -2.592,1.94135c-0.57104,0.38629 -1.11873,0.70587 -2.12267,1.22665c-0.45773,0.23746 -1.37075,0.608 -2.544,1.44c-0.41688,0.29562 -1.19467,1.03586 -1.57867,1.42401c-0.75664,0.76483 -1.0326,1.22644 -2.088,2.07599c-0.7616,0.61307 -1.52802,0.50702 -2.39584,0.9375c-0.95056,0.47153 -1.35802,1.31805 -1.70983,1.65918c-0.7647,0.74149 -1.14632,1.1416 -1.97833,1.81665c-1.05231,0.85376 -1.6459,1.22513 -2.5215,1.39752c-0.87705,0.17267 -1.78614,0.37424 -2.45184,0.59717c-1.02313,0.34262 -1.69868,1.1041 -2.148,1.70132c-0.51432,0.68365 -1.29462,1.4534 -1.90666,1.616c-1.02208,0.27151 -2.12047,-0.16809 -2.58933,0.55466c-0.47736,0.73584 0.37596,1.60742 0.97199,1.98401c0.91881,0.58054 1.88877,0.40176 2.67284,0.798c0.94501,0.47757 1.49946,1.19168 1.88184,1.49399c0.82151,0.64948 1.24285,0.98975 2.508,1.944c0.38831,0.29288 1.10847,0.83044 1.79167,1.27084c0.92523,0.59641 1.83556,1.0553 2.44167,1.30533c0.89153,0.36777 1.49979,0.55646 2.696,0.95584c0.84135,0.28091 1.55627,0.49289 2.552,0.86267c0.96773,0.35938 1.63056,0.64886 2.4145,0.98032c0.41977,0.17749 1.28738,0.53342 2.494,1.15802c0.72437,0.37497 1.34615,0.74805 2.08483,1.22964c0.88788,0.57889 1.74183,1.2395 2.29633,1.64218c0.68347,0.49637 1.0687,0.77319 1.93833,1.33249c0.94849,0.60999 1.98521,1.19464 2.51134,1.48251c0.51924,0.28409 1.51711,0.80722 1.97866,1.04199c1.13185,0.57574 2.0056,1.00061 2.638,1.5795c0.85783,0.78525 1.20267,1.19867 1.621,1.617c0.91666,0.91666 1.395,1.39499 1.87334,1.87332c0.46834,0.46835 1.71228,1.71878 2.06033,2.05768c0.84982,0.82748 1.25686,1.35349 2.34,1.77466c0.73363,0.28528 1.79692,0.35968 2.43466,1.00269c0.58681,0.59167 0.85651,1.65509 1.51851,1.93716c0.81978,0.3493 1.25067,-0.62985 1.64816,-1.77051c0.20827,-0.59763 0.50166,-1.5079 0.75717,-2.10001c0.52516,-1.21701 0.88185,-1.79208 1.222,-2.33749c0.66969,-1.07382 1.14417,-1.70892 1.59016,-2.42249c0.47081,-0.75327 0.82784,-1.40802 1.26399,-2.64001c0.16208,-0.45782 0.41084,-1.44318 0.52,-1.944c0.21133,-0.96957 0.28511,-1.86319 0.56534,-3.052c0.19658,-0.83392 0.74316,-1.83395 0.93866,-2.21201c0.45476,-0.87943 0.70798,-1.36536 1.31334,-2.3475c0.30956,-0.50223 0.96431,-1.47247 1.70934,-2.28448c0.6852,-0.74683 1.04486,-1.05029 1.69583,-1.57501c1.06674,-0.85986 1.58211,-1.29681 2.08867,-1.97116c0.64922,-0.86423 0.90532,-1.2128 1.44899,-1.98898c0.8987,-1.28305 1.18839,-1.74399 1.4825,-2.20352c0.57668,-0.90103 1.09703,-1.75137 1.3325,-2.13998c0.71043,-1.17249 1.17593,-1.92795 1.64217,-2.63867c0.47469,-0.7236 0.85106,-1.30588 1.42934,-2.30933c0.41043,-0.71219 0.79997,-1.46484 1.23599,-2.20801c0.43867,-0.74768 1.17917,-1.80801 1.44534,-2.13602c0.5116,-0.63046 1.2861,-1.38092 1.95483,-2.12598c0.50284,-0.56021 1.02858,-1.5311 1.50383,-2.35535c0.28302,-0.49084 0.58577,-1.02191 1.26666,-2.13867c0.3503,-0.57452 0.69011,-1.15326 1.42667,-2.20267c0.65694,-0.93597 0.98265,-1.33597 1.58334,-2.02081c0.49648,-0.56604 1.368,-1.37463 1.79849,-2.0325c0.4935,-0.75412 0.92352,-1.60825 1.2135,-2.10001c0.64876,-1.10019 1.00975,-1.68271 1.38933,-2.27335c0.38307,-0.5961 1.17279,-1.74701 1.58134,-2.27481c0.76563,-0.98911 1.1469,-1.42468 1.85666,-2.18918c0.59352,-0.63931 1.25883,-1.29053 1.84534,-1.87732c0.78688,-0.78729 1.38431,-1.40109 1.77066,-1.82401c0.46494,-0.50891 1.00667,-1.12592 1.632,-1.8645c0.73003,-0.86224 2.49962,-3.04065 3.55133,-4.37216c1.15131,-1.45758 2.3605,-3.01392 3.606,-4.62601c1.2572,-1.62723 2.49152,-3.23669 3.67801,-4.78799c1.11212,-1.45407 2.99382,-3.92413 3.7175,-4.8735c0.58437,-0.7666 1.05009,-1.37772 1.4205,-1.85852c0.29277,-0.38004 0.53076,-0.68497 0.7365,-0.94049c0.19037,-0.23642 0.61957,-0.75143 0.89333,-1.08017c0.31693,-0.38058 0.67001,-0.80505 1.0515,-1.26599c0.40419,-0.48837 0.82336,-0.9968 1.24951,-1.51801c0.42851,-0.52411 1.25961,-1.5531 1.64833,-2.04367c0.36989,-0.46683 0.71643,-0.91071 1.03949,-1.32898c0.30055,-0.38913 0.57509,-0.74905 0.8235,-1.07703c0.2222,-0.29337 0.5807,-0.77084 0.71667,-0.95267c0.11333,-0.15152 0.21098,-0.28287 0.29849,-0.405c0.08682,-0.12119 0.17834,-0.25266 0.40266,-0.58664c0.55098,-0.82037 1.08646,-1.62759 1.39601,-2.08801c0.32875,-0.48895 1.026,-1.51904 1.38666,-2.04266c0.71039,-1.03137 1.38933,-1.98764 1.70934,-2.43033c0.58488,-0.80911 1.08376,-1.50296 1.67067,-2.26569c0.48967,-0.63635 1.05731,-1.22119 2.16667,-2.33331c0.54657,-0.54794 1.17795,-1.1781 1.86899,-1.88251c0.74112,-0.75546 1.51062,-1.55066 2.283,-2.3775c0.77364,-0.82819 1.54642,-1.63153 2.84801,-3.23999c0.57701,-0.71304 1.06071,-1.39685 1.4805,-2.034c0.38353,-0.58212 0.7085,-1.13181 1.00349,-1.638c0.2719,-0.46655 0.49545,-0.91788 1.01601,-1.66135c0.24159,-0.34506 0.50349,-0.65753 1.04799,-1.20267c0.5125,-0.51309 1.1003,-0.91693 1.81601,-1.98267c0.35176,-0.5238 0.69406,-1.43048 1.136,-2.31467c0.30536,-0.6109 0.88858,-1.54663 1.35216,-2.21432c0.2493,-0.35907 1.12103,-1.53046 1.4505,-1.95233c0.68585,-0.8782 1.04141,-1.3212 1.7825,-2.17084c0.36064,-0.41348 1.41345,-1.51288 2.0865,-2.091c0.60851,-0.52267 1.21312,-0.94138 1.995,-1.5715c0.73109,-0.5892 1.17905,-1.03049 1.936,-1.68533c0.86383,-0.74731 1.53726,-1.27026 1.88133,-1.55066c0.70126,-0.5715 1.41544,-1.1315 2.30617,-2.06366c0.54601,-0.57138 0.97781,-1.16083 1.55516,-1.92969c0.60239,-0.80222 1.11778,-1.4068 2.0305,-1.87067c0.67688,-0.34402 1.60373,-0.36905 2.28601,-1.1955c0.56255,-0.6814 1.02797,-1.26923 1.69232,-1.72534c0.71593,-0.49155 1.48721,-1.12292 2.22734,-1.67465c0.71382,-0.5321 1.46495,-0.75134 2.30249,-1.36584c0.73795,-0.54141 1.36569,-1.45273 2.19667,-1.11899c0.64932,0.2608 1.39496,1.12073 2.18333,1.17767c1.06656,0.07706 1.86987,-0.02383 2.62567,0.05981c1.02866,0.11386 1.63196,0.51801 2.70132,0.82135c0.88226,0.25027 1.67551,0.12149 2.3465,0.12149c0.771,0 2.0625,0 2.97452,0c0.45599,0 1.33798,0 2.13998,0c1.36002,0 2.116,0 2.92535,0c0.98099,0 1.78833,0 2.23199,0c1.46716,0 1.996,0 3.10666,0c0.57983,0 1.78351,0 2.40533,0c1.27866,0 1.93234,0 3.23767,0c0.63565,0 1.24933,0 2.37866,0c0.49966,0 1.92303,0.0705 2.745,-0.108c1.28082,-0.27817 1.74332,-0.55667 2.31332,-0.74533c0.63367,-0.20975 1.31824,-0.43469 2.0415,-0.66751c0.74738,-0.2406 1.50583,-0.48447 2.26651,-0.71249c2.13739,-0.64075 2.78024,-0.79907 3.37817,-0.94781c1.06174,-0.26413 1.94907,-0.4444 2.91782,-0.65219c0.72937,-0.15643 1.42416,-0.42096 2.38351,-0.83099c0.94116,-0.40228 1.48038,-0.63327 2.05399,-0.87732c0.59839,-0.25461 1.83365,-0.77902 3.0625,-1.29169c0.58911,-0.24579 1.15527,-0.48044 2.20801,-0.90933c0.92337,-0.37622 1.35147,-0.48926 2.51968,-1.01566c0.74533,-0.33585 1.21359,-0.68777 2.439,-1.57501c0.60294,-0.43655 1.29633,-0.94269 2.06848,-1.49698c0.8291,-0.59518 1.7001,-1.21454 2.59952,-1.83902c0.90292,-0.62689 1.78687,-1.25195 3.49866,-2.33066c0.76468,-0.48187 1.48663,-0.89575 2.15701,-1.27499c0.6257,-0.35394 1.22107,-0.67801 1.77899,-1.005c0.54004,-0.31653 1.08182,-0.61908 2.064,-1.38666c0.51343,-0.40125 1.00159,-0.86234 1.48199,-1.34402c0.48242,-0.4837 0.93961,-0.98499 1.37399,-1.48798c0.42017,-0.48654 0.82977,-0.9451 1.75784,-2.215c0.46686,-0.63879 0.83353,-1.41626 1.4035,-2.27835c0.36337,-0.54959 1.09048,-1.33615 1.75949,-2.142c0.3822,-0.46036 0.78622,-0.94888 1.2045,-1.45801c0.4274,-0.5202 1.68643,-2.07376 2.07516,-2.56433c0.3699,-0.46683 1.03952,-1.32898 1.61417,-2.07834l0.47067,-0.62131" id="svg_1" stroke-width="2" stroke="#000" fill="none"/>
  <path t="2699,2750,2750,2751,2751,2751,2751,2751,2764,2765,2765,2765,2765,2765,2765,2766,2770,2770,2771,2771,2771,2771,2772,2772,2772,2776,2776,2776,2777,2777,2777,2777,2778,2778,2788,2789,2789,2789,2789,2789,2790,2790,2790,2806,2806,2806,2807,2807,2807,2808,2809,2822,2823,2823,2824,2824,2824,2825,2825,2825,2839,2840,2840,2840,2840,2841,2841,2841,2841,2856,2857,2857,2857,2858,2858,2859,2859,2859,2863,2863,2864,2864,2864,2865,2865,2865,2866,2869,2870,2870,2871,2871,2871,2872,2872,2873,2905,2906,2906,2907,2907,2908,2908,2908,2921,2922,2922,2923,2923,2924,2924,2924,2925,2929,2929,2930,2930,2931,2931,2932,2932,2933,2937,2937,2938,2938,2939,2939,2940,2940,2941,2955,2956,2956,2958,2958,2959,2960,2960,2961,2964,2964,2965,2965,2965,2966,2966,2967,2967,2970,2971,2972,2972,2973,2973,2974,2974,2975,2988,2989,2989,2990" d="m221,250c10,-21.66667 10.54231,-22.8425 10.98134,-23.79201c0.35039,-0.7578 0.62416,-1.35979 1.03467,-2.21866c0.3055,-0.63918 0.86971,-1.76265 1.13066,-2.27867c0.2989,-0.59106 0.6378,-1.25314 1.02,-1.98149c0.4176,-0.79578 0.87476,-1.65388 1.37999,-2.5665c1.10855,-2.0024 1.73514,-3.06969 2.384,-4.17201c0.6591,-1.11971 1.32645,-2.23294 1.98601,-3.32399c0.63651,-1.05292 1.24319,-2.04649 1.806,-2.964c0.94267,-1.5368 1.30405,-2.1256 1.60266,-2.60133c0.24249,-0.38634 0.44519,-0.70128 0.633,-0.95551c0.16753,-0.22679 0.34529,-0.43352 0.543,-0.64049c0.4904,-0.51338 0.82791,-0.83392 1.20934,-1.21735c0.4283,-0.43054 0.89574,-0.90295 1.39351,-1.41299c0.52496,-0.5379 1.06871,-1.09912 1.6185,-1.683c1.1169,-1.18616 1.65848,-1.78951 2.19066,-2.392c0.52782,-0.59753 1.04295,-1.19753 1.545,-1.8c0.49796,-0.59756 0.99849,-1.18582 2.375,-3c0.45177,-0.59541 0.88469,-1.20047 1.32301,-1.8c0.43903,-0.60046 0.88095,-1.20334 1.341,-1.8c0.46527,-0.60341 0.93472,-1.22008 2.00266,-2.39999c0.55283,-0.61079 1.15106,-1.20503 1.767,-1.8045c0.62668,-0.60992 1.27475,-1.21622 1.92902,-1.8315c0.6604,-0.62106 1.33572,-1.23605 2.63733,-2.53067c0.65176,-0.64825 1.28494,-1.31529 1.90948,-1.99049c0.62482,-0.67549 1.23843,-1.3618 1.8465,-2.0535c0.60831,-0.69197 1.2099,-1.39021 2.41068,-2.78934c0.60028,-0.69943 1.19852,-1.39864 1.79999,-2.091c0.59851,-0.68896 1.19699,-1.37004 1.80002,-2.037c0.59705,-0.66035 1.18564,-1.3154 2.39999,-2.53867c0.5921,-0.59644 1.18881,-1.15941 1.77301,-1.69649c0.55997,-0.5148 1.10025,-0.99303 1.61099,-1.4355c0.47137,-0.40837 0.90317,-0.77298 1.616,-1.36801c0.2742,-0.22888 0.51462,-0.42969 0.7515,-0.61949c0.55783,-0.44701 0.94012,-0.73698 1.422,-1.106c0.61002,-0.46713 2.32651,-1.77451 3.47519,-2.64967c1.32065,-1.00616 2.7753,-2.11438 4.32599,-3.29549c1.60864,-1.22522 3.23724,-2.46547 4.84799,-3.69151c1.55457,-1.18329 4.34406,-3.3044 5.51184,-4.19183c1.01489,-0.77126 1.89481,-1.43919 2.6535,-2.02199c0.65881,-0.50607 1.23297,-0.95178 1.7355,-1.356c0.45593,-0.36673 1.27863,-1.06563 1.67581,-1.42216c0.39749,-0.35681 0.784,-0.71693 1.15802,-1.07251c0.3606,-0.34282 0.69934,-0.67265 1.01398,-0.9825c0.28796,-0.28355 0.76111,-0.75841 0.94418,-0.93916c0.15439,-0.15245 0.29391,-0.28619 0.43649,-0.405c0.14969,-0.12471 0.32822,-0.25497 0.54449,-0.405c0.2648,-0.18367 1.00345,-0.67511 1.49634,-1.00351c0.56973,-0.37961 1.2034,-0.80139 1.88852,-1.25549c0.72253,-0.47891 1.47012,-0.97281 2.2305,-1.4715c0.7583,-0.49731 2.22058,-1.44594 2.90131,-1.8795c0.638,-0.40634 1.23505,-0.78102 1.78952,-1.125c0.50925,-0.31593 0.97433,-0.60057 1.39349,-0.855c0.37152,-0.22551 0.97049,-0.58501 1.19785,-0.72134l0.68933,-0.40533l0.67798,-0.381" id="svg_2" stroke-width="2" stroke="#000" fill="none"/>
  <path t="3770,3794,3794,3794,3794,3794,3796,3796,3796,3796,3797,3797,3797,3797,3797,3821,3821,3821,3822,3822,3824,3824,3825,3825,3825,3825,3827,3827,3828,3828,3828,3828,3828,3838,3838,3854,3855,3855,3855,3855,3871,3871,3871,3872,3872,3872,3875,3875,3875,3875,3876,3876,3876,3876,3879,3879,3880,3880,3880,3905,3906,3906,3922,3923,3923,3923,3923,3923,3924,3924,3927,3927,3928,3928,3928,3928,3928,3931,3931,3931,3932,3955,3958,3958,3959,3959,3959,3962,3963,3963,3963,3988,3988,3988,4004,4005,4005,4005,4006,4006,4006,4006,4007,4021,4021,4022,4023,4026,4027,4027,4028,4028,4035,4035,4036,4037,4037,4040,4040,4041,4056,4056,4073,4073,4073,4074,4074,4075,4075,4075,4089,4090,4090,4091,4091,4091,4092,4124,4125,4125,4126,4126,4138,4138,4139,4139,4140,4140,4141,4141,4154,4155,4155,4156,4156,4159,4160,4161,4161,4164,4165,4189,4204,4204,4205,4208,4209,4209,4210,4221,4225,4226,4226,4227,4230,4230,4231,4232,4255,4255,4258,4259,4259,4262,4262,4263,4263,4271,4289,4289,4304,4305,4305,4306,4309,4310,4313,4314,4339,4354,4355,4356,4357,4357,4362,4362,4363,4373,4377,4378,4379,4379,4383,4405,4421,4422,4423,4424,4424,4440,4441,4442,4443,4461,4462,4463,4464,4468,4474,4478,4483,4483,4505,4541,4542,4555,4556,4571,4572,4588,4588,4589,4593,4594,4595,4598,4599,4621,4631,4632,4633,4633,4638,4639,4639,4655,4659,4660,4661,4662,4665,4666,4666,4688,4705,4706,4707,4708,4709,4722,4723,4723,4724,4725,4738,4739,4739,4754,4755,4756,4757,4782,4783,4783,4784,4787,4799,4800,4801,4807,4808,4809,4810,4813,4814,4820,4821,4822,4823,4827,4831,4832,4833,4838,4839,4840,4840,4844,4845,4854,4855,4856,4857,4875,4878,4879,4880,4891,4893,4893,4905,4906,4907,4908,4909,4912,4913,4914,4917,4919,4920,4922,4938,4942,4943,4944,4945,4948,4949,4950,4972,4973,4988,4989,4990,4991,4992,4993,5004,5005,5006,5007,5008,5009,5021,5022,5023,5024,5039,5041,5042,5043,5043,5044,5045,5071,5072,5073,5074,5075,5076,5077,5078,5087,5088,5089,5090,5091,5091,5092,5093,5094,5121,5122,5123,5124,5125,5126,5127,5128,5128" d="m323,128c9.66516,-7.90816 10.09259,-8.22491 10.97916,-9.02084c0.5545,-0.49781 0.86017,-0.81984 1.6875,-1.64583c0.54712,-0.54623 1.17334,-1.17332 1.86002,-1.86c0.72665,-0.72666 1.47333,-1.47333 2.22,-2.22c0.72665,-0.72666 1.41357,-1.41311 2.58667,-2.58667c0.45224,-0.45241 0.8237,-0.81388 1.10849,-1.1175c0.5726,-0.61047 1.05515,-1.38434 1.41684,-1.97717c0.46677,-0.76505 0.73767,-1.20215 1.36917,-2.15166c0.34262,-0.51517 1.10065,-1.59061 1.51431,-2.14083c0.83987,-1.1171 1.27493,-1.65279 1.69534,-2.17534c0.40231,-0.50006 1.13528,-1.39617 1.95551,-2.37566c0.45721,-0.546 1.10358,-1.23197 1.6875,-1.8045c0.52063,-0.51045 1.14429,-1.09805 1.49417,-1.41334c1.15829,-1.04375 1.59799,-1.3963 2.49731,-2.168c0.47073,-0.40393 0.95581,-0.81821 1.43701,-1.2615c1.5116,-1.39246 1.99509,-1.91956 2.487,-2.44917c0.49515,-0.53307 0.97641,-1.07893 1.4415,-1.632c0.45889,-0.54568 0.92282,-1.07143 2.0625,-2.66666c0.34494,-0.48283 0.65637,-0.94827 1.17065,-1.81867c0.43832,-0.74182 0.92017,-1.89852 1.332,-2.43466c0.50772,-0.66096 1.54819,-1.40767 1.98935,-1.79066c0.4913,-0.42654 1.02008,-0.89163 1.5705,-1.3935c0.57104,-0.5207 1.1492,-1.05672 1.70551,-1.6185c1.08292,-1.09355 1.99609,-2.18409 2.39883,-2.71117c0.38504,-0.5039 0.73892,-0.99712 1.358,-1.94733c0.28915,-0.44383 1.05066,-1.67703 1.509,-2.391c0.40134,-0.62517 0.77277,-1.47305 1.58884,-2.30383c0.67538,-0.68758 1.30856,-0.9912 1.93982,-1.50734c0.70642,-0.5776 1.08975,-0.87392 2.11551,-1.9375c0.67313,-0.69795 0.96405,-1.06441 1.50333,-1.74583c0.83444,-1.05438 1.30338,-1.68187 1.87683,-2.1155c1.08319,-0.81907 1.65543,-1.16835 2.28851,-1.6085c0.70184,-0.48794 1.4584,-1.01035 2.25748,-1.551c0.82089,-0.55541 1.65002,-1.11172 2.48251,-1.641c1.57077,-0.99866 2.30249,-1.41543 2.98401,-1.792c0.63171,-0.34906 1.22757,-0.65684 1.78348,-0.942c0.52011,-0.26679 1.01569,-0.50579 1.46851,-0.762c1.25375,-0.70938 1.97012,-1.26537 2.63568,-1.82133c0.32382,-0.27051 0.91547,-0.84502 2.13766,-1.812c0.56149,-0.44425 1.08923,-0.81538 2.04083,-1.44583c0.6149,-0.40738 1.69647,-1.07553 2.13467,-1.34933c0.50711,-0.31687 1.68436,-1.0517 2.33264,-1.45533c0.67307,-0.41905 1.35999,-0.84628 2.05051,-1.2735c1.3446,-0.83187 1.97983,-1.22178 2.58667,-1.59067c0.57751,-0.35106 1.12527,-0.687 2.15466,-1.28c0.4743,-0.27324 1.76178,-0.97937 2.54001,-1.324c0.7374,-0.32655 1.52078,-0.59013 1.94083,-0.7175c1.45023,-0.43975 2.02884,-0.57738 2.6445,-0.73317c1.3136,-0.33239 1.9982,-0.48337 2.68799,-0.62133c0.68329,-0.13666 1.34952,-0.32312 3.2045,-0.43283c0.54263,-0.03209 1.53674,0.01106 2.4075,0.1675c0.79385,0.14262 1.85931,0.46056 2.51703,0.668c0.9183,0.28964 1.48444,0.4771 2.47366,0.89867c0.81354,0.34669 1.71042,0.81977 2.54398,1.372c0.45288,0.30004 1.25751,0.83833 2.14401,1.42933c0.59601,0.39734 1.44421,0.9484 2.14401,1.42933c0.84341,0.57964 1.28598,1.24469 1.74933,1.87867c0.38898,0.53223 0.84964,1.12649 1.74899,1.9915c0.63336,0.6092 1.31119,1.14418 1.93799,1.629c0.92679,0.71687 1.45795,1.2869 1.70633,2.2115c0.15942,0.59349 0.43484,1.63688 0.88,2.69333c0.29022,0.68877 0.62985,1.30985 1.1235,2.09067c0.58334,0.92271 1.37683,1.2565 1.85916,1.79467c0.8071,0.90054 0.73291,1.64143 0.90134,2.60534c0.10928,0.62546 0.52402,1.6155 1.09866,2.28c0.61487,0.711 0.51764,1.63765 0.95483,2.43767c0.46054,0.84275 1.32068,1.09121 2.02252,1.681c0.37595,0.31592 1.17957,0.91837 2.03998,1.944c0.44482,0.53022 0.6221,1.46985 0.875,2.375c0.2514,0.89981 0.67233,1.36937 1.10767,2.293c0.28845,0.61198 0.71414,1.79273 0.86136,2.68267c0.13559,0.81963 0.3454,1.76423 0.51016,2.566c0.0892,0.43412 0.2756,1.33908 0.57898,2.695c0.19257,0.8607 0.39282,1.67729 0.543,2.46c0.20941,1.09155 0.29263,1.77245 0.33633,2.69917c0.03723,0.78986 0.01022,1.74373 0.02084,2.67233c0.01044,0.91118 0.27213,1.66926 0.64734,2.5285c0.25702,0.58859 -0.39471,1.39867 -0.76068,2.12167c-0.44516,0.87942 -0.23453,1.68301 -0.00815,2.5615c0.2236,0.8677 0.1481,1.87991 0.10065,2.72016c-0.04126,0.73069 -0.17978,1.60556 -0.41516,2.59834c-0.16049,0.67685 -0.49731,1.89619 -0.8595,2.484c-0.52942,0.85926 -0.86942,1.54311 -1.06168,2.30016c-0.1622,0.63871 -0.43524,1.69839 -0.74265,2.75384c-0.19019,0.65295 -0.36694,1.54063 -0.8175,2.57c-0.3446,0.78728 -0.80508,1.31579 -1.26801,2.084c-0.34137,0.56647 -0.94061,1.75887 -1.168,2.336c-0.38135,0.96786 -0.6799,1.85897 -1.31116,2.718c-0.40167,0.54662 -0.89801,1.19733 -1.16751,1.55666c-0.57199,0.76266 -1.46735,1.95705 -1.76532,2.35333c-0.58078,0.77243 -1.12579,1.49978 -1.63202,2.148c-0.62204,0.79652 -1.26572,1.53997 -1.73865,2.02267c-0.79575,0.81217 -1.30969,1.31057 -1.88934,1.85467c-0.62537,0.58703 -1.66318,1.47893 -2.02267,1.77733c-0.71262,0.59151 -1.41904,1.13239 -1.97998,1.716c-0.6972,0.7254 -1.07861,1.71909 -1.47601,2.36934c-0.47934,0.78433 -1.06296,1.27338 -1.664,1.77432c-0.84796,0.70674 -1.75262,1.23273 -2.16534,1.96434c-0.52844,0.93677 -0.6853,1.70399 -0.98398,2.45067c-0.28265,0.70667 -0.58401,1.83821 -1.35068,2.29333c-0.7384,0.43835 -1.37326,0.4469 -2.5,1.16666c-0.621,0.3967 -1.1774,0.89647 -1.69199,1.38c-0.96194,0.90393 -1.46271,1.448 -2.164,2.14133c-0.44992,0.44481 -0.96399,0.95482 -1.548,1.464c-1.17252,1.02228 -1.78668,1.44905 -2.396,1.83467c-0.59128,0.37418 -1.80151,0.96068 -2.40002,1.23199c-0.6015,0.27267 -1.81116,0.933 -2.39999,1.38268c-0.612,0.46736 -1.18338,1.00272 -1.79999,1.46399c-0.87747,0.65642 -1.80002,1.10667 -2.39999,1.38268c-1.20001,0.55202 -1.80154,0.85864 -2.36801,1.2c-0.76822,0.46294 -1.7648,1.13612 -2.332,1.68533c-0.57605,0.55779 -1.04166,1.04166 -1.81866,1.81866c-0.75949,0.75951 -1.21649,1.21384 -1.96249,1.96251c-0.62814,0.63039 -1.14264,1.22835 -1.82602,2.04733c-0.31674,0.37958 -1.05081,1.25604 -1.45532,1.73399c-0.41815,0.49408 -0.83569,1.00175 -2.10416,2.4375c-0.38715,0.4382 -1.11447,1.22852 -1.45068,1.592c-0.62531,0.67604 -1.20905,1.29201 -1.96167,2.20801c-0.48672,0.59238 -0.93784,1.22266 -1.48798,1.8c-0.89429,0.93849 -1.68793,1.50729 -2.10901,1.81349c-0.90222,0.6561 -1.39417,0.99153 -1.89468,1.358c-0.52094,0.38142 -1.6131,1.20891 -2.71066,2.18584c-0.57141,0.50862 -1.13019,1.05403 -1.677,1.62599c-0.552,0.57741 -1.09021,1.17476 -1.58698,1.806c-0.98621,1.25317 -1.39963,1.92662 -1.80136,2.59601c-0.39996,0.66643 -0.76962,1.34909 -1.13248,2.03549c-0.36383,0.68826 -0.71542,1.38698 -1.08752,2.08051c-0.75406,1.4055 -1.1734,2.10367 -1.61331,2.81866c-0.46155,0.75015 -0.96667,1.54001 -1.50751,2.3925l-0.58585,0.92751l-0.63583,1.0175l-0.69083,1.1225" id="svg_3" stroke-width="2" stroke="#000" fill="none"/>
  <path t="5913,5938,5939,5939,5939,5939,5956,5961,5962,5965,5965,5991,5995,5995,5996,5996,5996,5999,5999,6023,6041,6041,6041,6044,6044,6057,6123,6124,6124,6127,6128,6139,6147,6147,6148,6148,6151,6151,6151,6173,6173,6187,6188,6188,6188,6191,6192,6192,6192,6205,6206,6221,6221,6222,6222,6222,6222,6223,6223,6223,6239,6240,6240,6240,6240,6241,6241,6241,6241,6245,6246,6246,6246,6247,6247,6250,6250,6251,6251,6271,6272,6289,6290,6290,6290,6290,6291,6291,6295,6295,6296,6296,6296,6307,6307,6311,6311,6311,6312,6312,6313,6315,6316,6316,6317,6338,6338,6355,6356,6356,6357,6357,6357,6358,6358,6359" d="m467,103c22.5,8.33334 23.71951,8.785 24.69601,9.14667c0.7605,0.28167 1.28406,0.66968 2.30798,0.85333c0.836,0.14995 1.54865,-0.1385 2.66266,0.16666c0.81,0.22188 1.41357,0.8618 2.44034,1.276c0.66336,0.26761 1.43201,0.5647 2.24402,0.85201c0.39841,0.14096 1.78482,0.57236 2.54483,0.66367c1.04852,0.12598 1.52686,0.72041 1.97617,1.31767c0.51431,0.68365 1.28946,1.48331 2.08633,1.6615c0.99808,0.22318 1.57626,0.58041 1.27466,1.1205c-0.38623,0.69168 -1.16196,1.70358 -1.94635,1.938c-0.6875,0.20547 -1.71118,0.28678 -2.44531,0.43999c-0.82327,0.17181 -1.68149,0.34887 -2.89783,0.66383c-0.71823,0.18598 -1.34543,0.36095 -2.44351,0.73351c-0.77686,0.26357 -1.60522,0.61436 -2.27682,0.87199c-0.78345,0.30054 -1.6181,0.63754 -2.88983,0.96133c-0.75192,0.19144 -1.42807,0.28144 -2.25284,0.32433c-1.09943,0.05717 -1.75314,0.12241 -3.08051,0.34234c-0.65707,0.10887 -1.41577,0.2359 -2.259,0.37199c-0.90878,0.14668 -1.86557,0.29748 -2.853,0.444c-0.99857,0.14818 -1.98978,0.30142 -3.888,0.51733c-0.86987,0.09895 -1.68628,0.16832 -2.45251,0.219c-0.72049,0.04765 -1.40155,0.07637 -2.04749,0.093c-0.61575,0.01585 -1.20667,0.02 -2.33334,0.02133c-0.54498,0.00064 -1.60498,0 -2.12,0c-1,0 -1.95999,0 -2.88,0c-0.87598,0 -1.68799,0 -2.73349,0c-0.94849,0 -1.8725,0 -2.76651,0c-0.944,0 -1.50598,0 -2.112,0c-1.29599,0 -1.96198,0 -2.62399,0c-1.26401,0 -2.384,0 -3.34399,0c-0.80002,0 -1.44162,-0.04964 -2.52802,0.01067c-0.73865,0.041 -1.82959,0.21246 -2.33466,0.272c-1.15814,0.13652 -1.78592,0.20308 -2.42932,0.256c-1.27768,0.10507 -2.46179,0.14258 -2.98666,0.1185c-0.91019,-0.04176 -1.9198,-0.35832 -2.94519,-0.53534c-0.68185,-0.11771 -2.02963,0.21077 -2.57715,0.32133c-0.63385,0.12799 -1.34,0.27271 -2.103,0.4395c-0.80838,0.17671 -1.64536,0.37468 -2.49902,0.58351l-0.85565,0.22183" id="svg_4" stroke-width="2" stroke="#000" fill="none"/>
  <path t="7025,7056,7056,7056,7056,7056,7056,7056,7057,7057,7059,7059,7059,7059,7059,7059,7059,7060,7060,7090,7091,7091,7091,7091,7091,7096,7096,7097,7097,7097,7097,7097,7097,7098,7101,7101,7101,7101,7101,7102,7102,7102,7103,7123,7123,7124,7124,7124,7124,7125,7125,7125,7129,7129,7130,7130,7130,7130,7131,7131,7131,7135,7137,7138,7138,7138,7138,7139,7139,7139,7159,7159,7159,7160,7160,7160,7161,7161,7161,7172,7172,7173,7173,7174,7174,7174,7175,7175,7188,7189,7189,7189,7190,7190,7190,7191,7191,7196,7196,7197,7197,7197,7198,7198,7199,7199,7203,7204,7204,7205,7205,7206,7206,7206,7207,7221,7221,7222,7222,7222,7223,7223,7224,7225,7228,7228,7229,7229,7230,7230,7230,7231,7231,7234,7234,7235,7236,7237,7237,7238,7238,7239,7255,7256,7256,7257,7257,7258,7258,7259,7259,7262,7262,7263,7263,7264,7264,7265,7265,7266,7268,7269,7270,7270,7271,7271,7272,7272,7273,7276,7276,7277,7277,7278,7278,7279,7279,7280,7305,7306,7306,7307,7307,7308,7308,7309,7309,7322,7323,7324,7324,7325,7326,7326,7327,7339,7340,7340,7341,7341,7342,7345,7346,7346,7347,7347,7348,7348,7352,7352,7353,7354,7354,7355,7355,7356,7372,7373,7374,7374,7375,7379,7380,7381,7381,7382,7383,7384,7384,7385,7390,7391,7392,7393,7393,7394,7395,7396,7396,7405,7406,7407,7408,7409,7410,7411,7411,7412,7416,7417,7418,7419,7422,7424,7425,7426,7427,7434,7437,7438,7439,7440,7441,7442,7443,7444,7452,7454,7455,7456,7457,7458,7459,7460,7461,7465,7466,7467,7468,7469,7471,7472,7473,7474,7479,7480,7481,7482,7483,7484,7485,7486,7487,7492,7493,7494,7495,7496,7497,7498,7499,7500,7505,7507,7508,7509,7510,7511,7512,7513,7513,7517,7518,7574,7575,7576,7577,7578,7578,7579,7583,7584,7585,7586,7587,7588,7589,7590,7591,7594,7595,7597,7598,7598,7599,7600,7601,7602,7606,7607,7608,7609,7610,7610,7612,7613,7613,7625,7627,7628,7629,7630,7631,7632,7633,7634,7638,7639,7640,7642,7647,7648,7649,7650,7651,7656,7657,7658,7659,7660,7661,7662,7663,7664,7667,7669,7670,7672,7673,7674,7676,7677,7678,7681,7682,7683,7684,7685,7687,7688,7689,7690,7694,7695,7696,7697,7698,7699,7700,7701,7702,7709,7711,7712,7713,7714,7715,7716,7717,7720,7724,7725,7726,7728,7729,7730,7731,7732,7733,7740,7741,7742,7743,7744,7746,7747,7748,7749,7754,7756,7757,7758,7759,7760,7761,7763,7764,7773,7774,7776,7777,7778,7779,7781,7782,7783,7788,7790,7791,7792,7793,7794,7795,7797,7798,7803,7804,7805,7807,7809,7810,7811,7812,7813,7828,7830,7831,7832,7833,7834,7837,7838,7839,7844,7845,7846,7847,7849,7850,7851,7853,7855,7861,7863,7864,7865,7867,7868,7870,7872,7873,7880,7881,7883,7884,7885,7887,7889,7890,7891,7896,7897,7898,7899,7901,7902,7904,7905,7906,7911,7913,7914,7915,7916,7918,7919,7920,7922,7926,7928,7929,7930,7931,7933,7934,7935,7937,7942,7944,7945,7946,7948,7949,7950,7951,7953,7970,7972,7973,7974,7976,7977,7978,7980,7981,7986,7988,7989,7990,7992,7993,7995,7996,7997,8002,8004,8005,8006,8008,8009,8011,8012,8013,8018,8020,8021,8022,8024,8025,8027,8028,8030,8034,8035,8038,8040,8042,8044,8046,8047,8049,8057,8059,8060,8062,8063,8065,8066,8067,8069,8074,8076,8077,8079,8080,8082,8083,8084,8086,8091,8093,8094,8095,8097,8098,8100,8101,8103,8108,8110,8111,8113,8114,8115,8117,8119,8121,8125,8127,8129,8130,8132,8134,8136,8138,8140,8145,8147,8149,8150,8152,8153,8155,8157,8158,8163,8165,8167,8168,8170,8172,8173,8175,8176,8181,8183,8185,8187,8188,8190,8191,8193,8195,8202,8204,8206,8208,8210,8211,8213,8215,8216,8221,8223,8225,8227,8229,8230,8232,8234,8235,8241,8243,8245,8247,8248,8250,8252,8253,8255,8260,8262,8264,8266,8268,8270,8277,8279,8281,8286,8288,8291,8293,8295,8296,8298,8300,8301,8308,8310,8312,8314,8315,8317,8319,8321,8322,8327,8329,8331,8332,8334,8336,8337,8339,8341,8345,8347,8349,8351,8353,8354,8356,8358,8360,8364,8366,8368,8370,8371,8373,8375,8377,8379,8383,8385,8387,8389,8391,8393,8394,8396,8398,8402,8404,8406,8408,8410,8412,8413,8415,8417,8422,8424,8426,8427,8429,8431,8433,8435,8436,8441,8443,8445,8447,8449,8450,8452,8454,8456,8460,8462,8464,8466,8468,8470,8472,8473,8475,8480,8482,8484,8486,8488,8489,8491,8493,8495,8500,8502,8504,8505,8507,8509,8511,8513,8515,8520,8527,8529,8532,8533,8536,8538,8540,8541,8546,8549,8550,8552,8554,8556,8558,8560,8562,8567,8570,8572,8574,8575,8577,8579,8581,8583" d="m386,129c-8.66666,12.33333 -9.4545,13.41499 -10.22534,14.45467c-0.74487,1.00462 -1.47021,1.96967 -2.1705,2.89951c-0.67441,0.89548 -1.32599,1.75459 -1.9455,2.58449c-1.16306,1.55807 -1.69562,2.2943 -2.19733,2.99734c-0.47388,0.66405 -0.91208,1.29103 -1.31549,1.8765c-0.37112,0.53862 -0.7045,1.03046 -1.00052,1.4715c-0.47998,0.71512 -0.66119,0.9888 -0.81467,1.22134c-0.13849,0.20984 -0.41562,0.63948 -0.76999,1.21083c-0.8981,1.44797 -1.33237,2.16307 -1.84201,2.99049c-0.57135,0.9276 -1.19565,1.94022 -1.8645,3.02251c-0.70313,1.13773 -1.43198,2.31563 -2.1795,3.5175c-1.50595,2.42126 -2.25131,3.60892 -2.97998,4.76799c-0.70532,1.12192 -1.38358,2.19626 -2.02802,3.21451c-0.60361,0.95374 -1.16177,1.83313 -1.668,2.6295c-0.83163,1.30824 -1.14755,1.80858 -1.41599,2.21999c-0.22992,0.35239 -0.44409,0.66689 -0.66602,0.96301c-0.23389,0.31209 -0.51218,0.6535 -0.84598,1.05299c-0.89917,1.07608 -1.50772,1.78378 -2.20535,2.61333c-0.78186,0.92969 -1.63202,1.94711 -2.53198,3.04201c-0.94553,1.15033 -1.91925,2.34508 -2.892,3.582c-1.95731,2.48885 -2.88104,3.74045 -3.77469,4.96666c-0.86453,1.18628 -1.67676,2.33495 -2.4375,3.43051c-0.7124,1.02594 -1.36023,1.97905 -1.9425,2.84549c-0.95645,1.42323 -1.31427,1.97342 -1.6293,2.43068c-0.28238,0.40985 -0.5676,0.8008 -0.88651,1.20299c-0.3645,0.45969 -0.81918,0.99689 -1.3815,1.653c-1.55096,1.80966 -2.59644,3.00964 -3.79733,4.40134c-1.33344,1.54529 -2.76999,3.21146 -4.27951,4.96651c-1.55585,1.80891 -3.12842,3.63921 -4.68451,5.4615c-2.9653,3.47261 -4.31314,5.0719 -5.57333,6.56532c-1.17877,1.39693 -2.28131,2.70761 -3.3255,3.9315c-0.98398,1.15332 -1.91776,2.24257 -2.83047,3.2565c-1.71481,1.90497 -2.57196,2.77435 -3.40802,3.61333c-0.8111,0.81392 -1.61182,1.58821 -2.38651,2.3385c-0.7493,0.72569 -1.47882,1.42116 -2.1615,2.11351c-1.29102,1.30934 -1.86295,1.96227 -2.396,2.59734c-0.50665,0.60362 -0.96463,1.18983 -1.38,1.7475c-0.38434,0.51598 -0.72269,0.99649 -1.01999,1.4325c-0.48441,0.71037 -0.65845,0.98871 -0.82001,1.21333c-0.14392,0.2001 -0.29523,0.38461 -0.4725,0.5625c-0.20221,0.2029 -0.46317,0.42717 -0.78748,0.69749c-0.89502,0.74603 -1.50272,1.23196 -2.19601,1.80267c-0.7688,0.63287 -1.59399,1.31631 -2.45401,2.04149c-0.88403,0.74542 -1.77258,1.50021 -2.634,2.26651c-1.62857,1.44867 -2.33722,2.13669 -2.97998,2.78134c-0.58984,0.59158 -1.11224,1.14682 -1.57352,1.66049c-0.41434,0.46143 -0.77164,0.88147 -1.07849,1.25549c-0.48828,0.59518 -0.6647,0.82568 -0.81467,1.01068c-0.12479,0.15393 -0.23343,0.2851 -0.336,0.40048c-0.1001,0.11261 -0.20999,0.22766 -0.336,0.3555c-0.32895,0.33371 -0.55035,0.55035 -0.80133,0.80536c-0.27878,0.28323 -0.57703,0.59113 -0.88351,0.92249c-0.31625,0.34192 -0.63348,0.69189 -0.9285,1.0575c-0.56592,0.70132 -0.79266,1.05392 -0.99332,1.39069c-0.18768,0.31497 -0.34335,0.61914 -0.474,0.90598c-0.11966,0.26276 -0.21545,0.50635 -0.29401,0.72601c-0.1272,0.35574 -0.16718,0.49329 -0.20532,0.60266c-0.03067,0.08792 -0.05649,0.15839 -0.08401,0.21301c-0.0235,0.04663 -0.05127,0.08655 -0.08401,0.12299c-0.07938,0.08838 -0.13794,0.13913 -0.19733,0.20267c-0.06332,0.06775 -0.12619,0.13885 -0.177,0.216c-0.04776,0.07251 -0.09363,0.14655 -0.08698,0.216c0.01199,0.12521 0.10782,0.17032 0.20532,0.19598c0.12271,0.03232 0.28027,0.03674 0.465,0.02551c0.21555,-0.01309 0.47302,-0.00873 1.7395,-0.38101c0.39615,-0.11646 1.25427,-0.43777 2.16751,-0.88583c0.48752,-0.2392 1.00949,-0.47568 2.46814,-1.53531c0.51511,-0.37421 1.00885,-0.80624 1.51053,-1.254c0.51483,-0.4595 1.54837,-1.4501 2.07465,-1.97067c1.08524,-1.07339 1.63516,-1.63116 2.19202,-2.18802c0.55283,-0.55283 1.09467,-1.09467 1.6185,-1.6185c0.49881,-0.49881 0.96567,-0.96567 2.10416,-2.10416c0.504,-0.504 1.125,-1.125 1.659,-1.659c0.35699,-0.35699 1.34183,-1.34018 1.9985,-1.99918c0.76349,-0.76617 1.61835,-1.62906 2.54251,-2.58449c0.99112,-1.02467 2.02652,-2.11533 3.08249,-3.26851c1.08423,-1.18404 3.22742,-3.64738 4.2515,-4.90816c1.00784,-1.24077 1.96039,-2.47453 2.862,-3.67801c0.86011,-1.1481 1.65134,-2.24297 2.37601,-3.26399c0.65903,-0.92854 1.7262,-2.47325 2.13684,-3.06151c0.34033,-0.48753 0.63354,-0.90176 0.9165,-1.2585c0.27301,-0.34418 0.57907,-0.68738 0.93448,-1.0605c0.41867,-0.43953 1.57477,-1.59024 2.34052,-2.3595c0.89044,-0.89453 1.88705,-1.90314 2.961,-3.024c1.15247,-1.20279 2.35385,-2.48714 3.573,-3.85201c1.25317,-1.40295 3.71402,-4.34436 4.87799,-5.86299c1.14792,-1.49768 2.22366,-2.99525 3.237,-4.461c0.96832,-1.40062 1.85303,-2.74074 2.66101,-3.993c0.7356,-1.14005 1.92169,-3.03983 2.37766,-3.76567c0.38156,-0.60738 0.71725,-1.13608 1.04401,-1.62c0.33054,-0.48949 0.70703,-1.015 1.15201,-1.62001c0.53592,-0.72868 2.01511,-2.70067 3.00165,-4.0135c1.13864,-1.51526 2.40372,-3.19377 3.77701,-4.99049c1.44186,-1.88643 2.93387,-3.8179 4.461,-5.74651c1.51028,-1.90735 4.43027,-5.46057 5.80368,-7.02682c1.27295,-1.45169 2.49033,-2.76732 3.642,-3.972c1.07416,-1.12358 2.10141,-2.15459 3.06598,-3.12601c0.91278,-0.91925 2.60556,-2.65108 3.37817,-3.50249c0.74854,-0.82489 1.44974,-1.64252 2.1105,-2.44351c0.63538,-0.77022 1.22824,-1.52174 1.7865,-2.2455c0.53094,-0.68835 1.4895,-1.96649 1.9245,-2.54649c0.405,-0.54001 0.78,-1.04001 1.125,-1.5c0.315,-0.42 0.60001,-0.8 0.85501,-1.14c0.22501,-0.3 0.58432,-0.78052 0.72165,-0.96184c0.11609,-0.15327 0.2215,-0.28922 0.33002,-0.4155c0.11475,-0.13351 0.25241,-0.27956 0.41998,-0.45151c0.20554,-0.21092 0.78021,-0.78429 1.16299,-1.16766c0.44125,-0.44193 0.92889,-0.93144 1.44901,-1.4595c0.54395,-0.55225 1.09793,-1.11949 1.647,-1.6935c0.53891,-0.56337 1.52484,-1.62711 1.9465,-2.11067c0.38202,-0.43813 0.71616,-0.84184 1.0065,-1.21049c0.2583,-0.32797 0.47797,-0.62393 0.66449,-0.88651c0.16122,-0.22696 0.40265,-0.59007 0.49451,-0.72549c0.07629,-0.11249 0.14331,-0.20825 0.21301,-0.28799c0.06842,-0.07831 0.15067,-0.15364 0.24899,-0.23401c0.1174,-0.09596 0.44653,-0.34261 0.6655,-0.50549c0.24899,-0.18521 0.51895,-0.38396 0.80551,-0.58051c0.28647,-0.19647 0.56729,-0.38049 0.84149,-0.52649c0.24258,-0.12915 0.64893,-0.26546 0.76001,-0.20001c0.10065,0.05928 0.12732,0.22803 0.10651,0.4185c-0.02646,0.24217 -0.11786,0.52617 -0.2355,0.85049c-0.13354,0.3681 -0.49402,1.20265 -0.70651,1.6665c-0.22733,0.49625 -0.47794,1.02101 -0.75,1.575c-0.28781,0.58609 -0.59824,1.20091 -0.92999,1.845c-0.34818,0.67595 -1.10825,2.11595 -1.5195,2.87885c-0.42468,0.78781 -0.86441,1.59111 -1.31851,2.40149c-0.45688,0.81532 -0.92017,1.62491 -1.3905,2.41951c-0.46173,0.78006 -1.3764,2.25185 -1.82599,2.92833c-0.4267,0.64204 -0.84363,1.23811 -1.2435,1.78951c-0.37137,0.51212 -0.7222,0.97603 -1.0455,1.39349c-0.28891,0.37306 -0.76816,0.96921 -0.94983,1.20067c-0.16483,0.20999 -0.32962,0.4323 -0.51001,0.7005c-0.22708,0.33766 -0.5079,0.78455 -0.87,1.3665c-0.4649,0.74718 -1.76999,2.86949 -2.64465,4.29083c-1.00269,1.62933 -2.10135,3.41466 -3.26401,5.304c-1.19467,1.94133 -2.38934,3.88266 -3.552,5.772c-1.09866,1.78532 -2.97476,4.83678 -3.70068,6.01283c-0.59161,0.95847 -1.07574,1.74129 -1.49399,2.38049c-0.35986,0.54999 -0.7045,1.04225 -1.06201,1.51649c-0.38351,0.50874 -1.38605,1.75946 -2.04382,2.58183c-0.76489,0.9563 -1.62387,2.0305 -2.56351,3.207c-1.00806,1.26216 -2.07101,2.59436 -3.17548,3.981c-1.13425,1.42403 -3.43707,4.32257 -4.57983,5.76584c-1.12387,1.41942 -2.21701,2.80339 -3.27002,4.1385c-1.00366,1.27257 -1.94684,2.4705 -2.82001,3.58049c-0.79349,1.0087 -2.0994,2.67195 -2.59982,3.30734c-0.41837,0.53119 -0.78387,0.99313 -1.12949,1.4175c-0.34802,0.42732 -0.73364,0.88754 -1.1835,1.4175c-0.54062,0.63689 -2.02087,2.36218 -3.00568,3.51218c-1.1366,1.32729 -2.3959,2.79997 -3.74548,4.38899c-1.41687,1.66824 -2.86871,3.38654 -4.3215,5.127c-1.43646,1.7209 -4.12006,4.99658 -5.31119,6.49701c-1.10181,1.38792 -2.10458,2.68501 -3.03,3.88799c-0.85782,1.11511 -1.64908,2.15532 -2.39999,3.11401c-0.7027,0.89713 -2.03137,2.50974 -2.68451,3.22733c-0.62335,0.68484 -1.24164,1.31415 -1.84348,1.896c-0.56952,0.5506 -1.12183,1.05313 -1.64551,1.51801c-0.48846,0.43362 -1.36774,1.19263 -1.74683,1.52917c-0.34344,0.3049 -0.64969,0.58325 -0.92102,0.83548c-0.24121,0.22424 -0.45126,0.42471 -0.633,0.6015c-0.15689,0.15262 -0.39929,0.3942 -0.49017,0.48584c-0.07843,0.07907 -0.15106,0.15399 -0.22348,0.23401c-0.082,0.09061 -0.17767,0.20236 -0.2955,0.34201c-0.14761,0.17496 -0.55676,0.66577 -0.82968,0.99399c-0.31244,0.37576 -0.65344,0.78708 -1.00949,1.224c-0.36432,0.44705 -0.72406,0.89389 -1.06351,1.332c-0.31769,0.41003 -0.82935,1.1106 -0.99167,1.38699c-0.12512,0.21307 -0.20593,0.38293 -0.22348,0.513c-0.01218,0.09018 0.01642,0.16055 0.06448,0.189c0.04831,0.02859 0.16351,0.02701 0.20901,0.02701c0.03848,0 0.073,0 0.10648,0c0.03552,0 0.07602,0 0.12451,0c0.05951,0 0.22351,0.00122 0.33401,-0.00049c0.13351,-0.00204 0.2934,-0.00928 0.48148,-0.03152c0.22107,-0.02612 0.47714,-0.07095 0.7695,-0.1395c0.33591,-0.07874 1.14008,-0.32407 1.61151,-0.49249c0.51273,-0.1832 1.04889,-0.39178 1.599,-0.612c0.55392,-0.22174 1.09644,-0.44696 1.617,-0.66599c0.4874,-0.20508 1.31244,-0.55472 1.62967,-0.69568c0.27194,-0.12085 0.52002,-0.24173 0.75598,-0.39301c0.26419,-0.16934 0.56003,-0.40207 0.918,-0.69901c0.44806,-0.37164 1.6741,-1.43686 2.49585,-2.14932c0.95294,-0.8262 2.01807,-1.75021 3.17551,-2.75699c1.23224,-1.07187 2.51941,-2.19379 3.84149,-3.35101c1.34064,-1.17346 3.99625,-3.51105 5.27499,-4.64867c1.24518,-1.10776 2.4559,-2.19415 3.6315,-3.267c1.15335,-1.05255 2.28003,-2.09708 3.37952,-3.14101c1.08847,-1.03346 3.2128,-3.11877 4.25314,-4.17717c1.03699,-1.05496 2.05362,-2.11617 3.05402,-3.17249c0.98691,-1.04205 1.94952,-2.07317 2.892,-3.0825c0.91885,-0.98402 2.6741,-2.85928 3.51031,-3.737c0.79855,-0.83821 1.56143,-1.6282 2.28302,-2.3685c0.67316,-0.69063 1.298,-1.32466 1.86899,-1.9005c0.51175,-0.51608 1.34824,-1.3503 1.66534,-1.6705c0.26938,-0.27199 0.5101,-0.52092 0.73499,-0.77701c0.24213,-0.27573 0.50854,-0.60655 0.82501,-1.011c0.39063,-0.49921 1.45523,-1.89281 2.16666,-2.82382c0.82196,-1.07564 1.73431,-2.27094 2.715,-3.5625c1.03268,-1.36006 2.09537,-2.76518 3.16501,-4.1925c1.06366,-1.41934 3.07858,-4.14491 3.99017,-5.40733c0.84949,-1.17644 1.62692,-2.27383 2.33551,-3.28951c0.64752,-0.92816 1.22681,-1.77365 1.74149,-2.53349c0.45447,-0.67094 1.17349,-1.75117 1.44699,-2.15868c0.22668,-0.33772 0.42157,-0.62485 0.60751,-0.8745c0.17923,-0.24063 0.37793,-0.48311 0.60748,-0.7485c0.27011,-0.31227 1.01346,-1.13464 1.50519,-1.68365c0.56979,-0.63618 1.20325,-1.34895 1.87799,-2.13451c0.71686,-0.83458 1.45331,-1.71497 2.18399,-2.6385c0.7388,-0.93379 2.12546,-2.83672 2.73718,-3.78915c0.58923,-0.9174 1.11356,-1.8203 1.58548,-2.69101c0.44391,-0.819 0.83032,-1.59494 1.17151,-2.313c0.30768,-0.64754 0.78296,-1.7197 0.96634,-2.127c0.15155,-0.33658 0.28217,-0.62094 0.4155,-0.864c0.12668,-0.23091 0.27533,-0.45837 0.45151,-0.702c0.20599,-0.28482 0.78491,-1.02568 1.16718,-1.51834c0.43915,-0.56596 0.92108,-1.1893 1.42798,-1.85699c0.52454,-0.69093 1.04941,-1.39172 1.55402,-2.091c0.48456,-0.67152 1.31223,-1.88686 1.61765,-2.40816c0.25845,-0.44115 0.45236,-0.8185 0.56702,-1.1355c0.08728,-0.24129 0.13947,-0.43909 0.08099,-0.5415c-0.04062,-0.07114 -0.30316,0.01799 -0.46201,0.15466c-0.20331,0.17494 -0.42157,0.4169 -0.67499,0.69749c-0.2868,0.31755 -0.59805,0.67509 -0.94501,1.05751c-0.37292,0.41106 -1.21106,1.28654 -1.6795,1.7375c-0.48743,0.46924 -1.00546,0.94167 -1.54349,1.42499c-0.55295,0.49673 -1.12451,0.99944 -1.70551,1.515c-0.591,0.52443 -1.7897,1.60156 -2.38651,2.16051c-0.60327,0.56502 -1.20541,1.14766 -1.79999,1.7565c-0.60559,0.6201 -1.20755,1.26941 -1.80002,1.9545c-0.60779,0.70282 -1.80585,2.22925 -2.40082,3.05217c-0.61188,0.84631 -1.21701,1.72867 -1.85251,2.616c-0.64609,0.90208 -1.31223,1.80896 -2.0325,2.688c-0.72647,0.88663 -2.32944,2.56471 -3.22232,3.3255c-0.90598,0.77194 -1.88742,1.49084 -2.91452,2.19449c-1.05649,0.7238 -2.17374,1.42947 -3.32849,2.15851c-1.19589,0.755 -3.72003,2.35869 -5.03232,3.23784c-1.3425,0.89938 -2.68039,1.82681 -4.00052,2.75699c-1.28949,0.90858 -2.51999,1.79285 -3.67648,2.63101c-1.06607,0.77263 -2.83914,2.0735 -3.51935,2.57132c-0.55853,0.40875 -1.0242,0.74875 -1.4295,1.035c-0.36847,0.26022 -0.73358,0.50827 -1.12347,0.765c-0.44064,0.29015 -1.60052,1.03502 -2.36584,1.52701c-0.87735,0.56401 -1.83868,1.18199 -2.85602,1.836c-1.04532,0.672 -2.09064,1.34399 -3.10797,1.998c-0.96133,0.618 -2.60355,1.67473 -3.23886,2.08183c-0.52344,0.33542 -0.96396,0.61647 -1.35449,0.8535c-0.36325,0.22046 -0.73352,0.43268 -1.13849,0.6555c-0.46555,0.25616 -1.70551,0.91649 -2.52551,1.35382c-0.94,0.50134 -1.97,1.05067 -3.06,1.632c-1.12,0.59734 -2.23999,1.19467 -3.32999,1.776c-1.03,0.54933 -2.78976,1.48849 -3.47,1.85049c-0.55978,0.2979 -1.02902,0.54692 -1.44,0.75751c-0.37912,0.19426 -0.75934,0.38139 -1.17001,0.5775c-0.46924,0.22409 -1.70999,0.80251 -2.53,1.18517c-0.94,0.43866 -1.97,0.91934 -3.06,1.42801c-1.12,0.52266 -2.23999,1.04532 -3.32999,1.55399c-1.03,0.48067 -2.78976,1.30252 -3.47,1.61917c-0.55981,0.26059 -1.02911,0.47833 -1.44,0.6615c-0.37918,0.16902 -0.7594,0.33078 -1.17001,0.4995c-0.46933,0.19284 -1.70999,0.68851 -2.53,1.01651c-0.94,0.37599 -1.97,0.78799 -3.06,1.224c-1.12,0.448 -2.23999,0.896 -3.32999,1.332c-1.03,0.412 -2.78958,1.11705 -3.47168,1.38834c-0.57129,0.22722 -1.07208,0.42401 -1.54498,0.597c-0.48044,0.17575 -1.0127,0.35658 -1.63501,0.56099c-0.75092,0.24666 -2.80499,0.903 -4.17166,1.34033c-1.56668,0.50134 -3.28336,1.05067 -5.10001,1.632c-1.86667,0.59734 -3.73334,1.19467 -5.54999,1.776c-1.71667,0.54933 -4.65036,1.487 -5.78033,1.85001c-0.91263,0.29318 -1.6405,0.5267 -2.21101,0.726c-0.45181,0.15782 -0.81383,0.29709 -1.11301,0.438c-0.27942,0.13161 -0.879,0.474 -1.26166,0.69266c-0.43867,0.25067 -0.91934,0.52533 -1.42801,0.81601c-0.52266,0.29866 -1.04532,0.59732 -1.55399,0.888l-0.48067,0.27466" id="svg_5" stroke-width="2" stroke="#000" fill="none"/>
  <path t="8677,8721,8721,8721,8721,8722,8739,8739,8739,8740,8740,8742,8743,8743,8743,8743,8743,8745,8745,8745,8745,8746,8746,8772,8772,8789,8789,8789,8789,8790,8790,8790,8792,8793,8793,8793,8793,8793,8793,8794,8794,8796,8796,8796,8797,8797,8797,8797,8823,8824,8824,8854,8855,8855,8855,8855,8855,8856,8856,8856,8859,8859,8860,8860,8860,8860,8860,8861,8861,8863,8864,8864,8864,8865,8865,8888,8888,8889,8892,8892,8893,8893,8895,8896,8921,8933,8934,8934,8935,8938,8941,8943,8943,8971,8989,8989,9021,9022,9022,9040,9072,9072,9090,9090,9091,9091,9095,9095,9096,9105,9106,9122,9126,9127,9128,9128,9129,9130,9139,9140,9140,9141,9146,9147,9147,9148,9148,9152,9153,9153,9172,9173,9189,9190,9190,9191,9191,9195,9195,9196,9196,9197,9197,9201,9202,9203,9227,9227,9238,9239,9240,9240,9241,9255,9256,9256,9257,9288,9289,9289,9290,9291,9339,9339,9355,9356,9360,9361,9362,9362,9365,9366,9367,9367,9389,9390,9391,9405,9406,9406,9407,9408,9408,9409,9422,9422,9423,9424,9424,9425,9430,9431,9431,9432,9433,9436,9438,9439,9456,9460,9461,9462,9465,9466,9467,9538,9554,9555,9556,9556,9557,9565,9566,9567,9567,9568,9572,9573,9573,9588,9591,9592,9593,9596,9596,9621,9633,9633,9634,9638,9638,9688,9689,9704,9705,9721,9722,9723,9723,9739,9740,9741,9755,9756,9757,9757,9761,9762,9762,9763,9764,9767,9768,9788,9789,9805,9806,9807,9808,9810,9811" d="m369,219c-9.16666,12.83333 -9.69904,13.60123 -10.38016,14.86583c-0.25876,0.48044 -0.54608,1.27686 -0.95319,2.4675c-0.2207,0.64543 -0.53763,1.35616 -0.85199,2.16c-0.34256,0.87595 -0.66251,1.83615 -0.93066,2.87601c-0.13889,0.5386 -0.25775,1.09221 -0.50934,2.21599c-0.12686,0.56662 -0.53616,2.2495 -0.69583,2.79234c-0.15643,0.53185 -0.48471,1.53621 -0.8175,2.43166c-0.28452,0.7655 -0.74301,1.76323 -0.90948,2.6255c-0.17178,0.88985 -0.23712,1.84668 -0.31351,2.418c-0.0835,0.62471 -0.17542,1.2937 -0.285,1.99651c-0.23038,1.47754 -0.51572,2.98492 -0.6745,3.72916c-0.15726,0.73709 -0.3273,1.46429 -0.4935,2.18552c-0.16479,0.71509 -0.32898,1.42429 -0.47549,2.1315c-0.14545,0.70215 -0.39984,2.10196 -0.53918,3.49515c-0.06769,0.67682 -0.10486,1.33441 -0.129,1.9635c-0.04395,1.14532 0.03577,1.65082 -0.04565,3.06451c-0.05429,0.94284 -0.2511,1.59625 -0.496,2.58133c-0.16339,0.65717 -0.35382,1.41553 -0.55801,2.259c-0.21994,0.90851 -0.44611,1.86508 -0.66599,2.853c-0.22214,0.99808 -0.45139,1.98712 -0.776,3.888c-0.14838,0.86896 -0.25192,1.68738 -0.33749,2.457c-0.08078,0.72647 -0.14053,1.41809 -0.20251,2.07901c-0.05975,0.63708 -0.10049,1.25989 -0.29333,2.46399c-0.09628,0.60123 -0.21866,1.19604 -0.51733,2.336c-0.14175,0.54105 -0.44641,1.5202 -0.81598,2.664c-0.2738,0.84741 -0.4173,1.50378 -0.61734,2.70532c-0.06912,0.41513 -0.21973,1.31494 -0.36334,2.23584c-0.19098,1.22473 -0.22293,2.07611 -0.354,2.97885c-0.14227,0.97998 -0.34125,1.4993 -0.60931,2.41464c-0.18088,0.61765 -1.06598,1.61209 -1.26767,2.54419c-0.14972,0.69199 0.69775,1.36935 0.87698,2.37448c0.14282,0.80103 0.00134,1.54266 0.00134,2.58002c0,0.91998 -0.00067,1.67999 0,2.66666c0.00067,0.98666 -0.00467,1.75339 0.16666,2.66666c0.15054,0.80249 0.42776,1.67599 0.54935,2.32001c0.19421,1.02869 0.25726,2.10638 0.27332,2.78c0.02539,1.06644 0.18073,1.91464 0.84402,2.73334c0.57938,0.71509 0.93707,1.12738 1.30399,1.58401c0.7775,0.96759 1.16678,1.46396 1.52802,1.96799c0.97739,1.36368 1.19733,1.79199 1.62265,2.54001c0.56549,0.99448 1.19019,1.92892 1.76535,2.50665c0.61099,0.61374 0.96515,0.88333 1.64581,1.44418c0.9642,0.79453 1.53851,1.2572 2.2175,1.89465c0.7626,0.71594 1.36121,1.2233 2.19067,1.72717c0.67487,0.40994 1.47913,0.914 1.91,1.20334c0.91064,0.61151 1.82162,1.29172 2.26083,1.65317c0.86694,0.71347 1.27051,1.0871 2.03915,1.81747c0.36673,0.34848 1.34933,1.328 1.90933,1.888c0.69,0.69 1.43994,1.44006 1.99301,1.99301c0.66608,0.66592 1.19852,1.20187 1.84283,1.80118c0.34103,0.31723 1.02747,0.97058 2.11584,1.71548c0.64325,0.44022 1.36661,0.70892 2.13498,1.48633c0.8761,0.88638 1.01767,1.38754 1.44,2.29333c0.21405,0.45908 0.50745,1.40109 1.08002,2.48401c0.43164,0.81638 0.03543,1.0444 -0.64001,0.92801c-1.04404,-0.1799 -1.74966,-0.64236 -2.49066,-1.14935c-0.55734,-0.38132 -1.55939,-0.99261 -2.35165,-1.36966c-0.80258,-0.38193 -1.57962,-0.69232 -2.51767,-1.07565c-0.73944,-0.30215 -1.50946,-0.67175 -2.60468,-1.21902c-0.50607,-0.25287 -1.06799,-0.534 -1.67401,-0.83698c-0.638,-0.319 -1.29599,-0.64801 -2.62399,-1.31201c-1.26401,-0.63199 -1.8439,-0.92374 -2.38934,-1.19333c-0.99591,-0.49222 -1.45016,-0.72702 -2.32333,-1.10583c-1.20767,-0.52396 -2.01572,-0.78094 -2.79666,-1.04083c-0.74973,-0.24951 -1.49594,-0.42621 -2.64798,-1.108c-0.50226,-0.29724 -1.09149,-1.12115 -1.99301,-1.56549c-0.85046,-0.41919 -1.51254,-0.34396 -2.42685,-0.7135c-0.87589,-0.354 -2.07016,-0.91818 -2.06415,-1.66901c0.00308,-0.383 1.04169,0.08994 1.83566,0.50217c0.44986,0.23358 1.4028,0.74762 1.87332,1.04199c1.35858,0.84995 1.73077,1.16962 2.3775,1.77301c0.57532,0.53674 1.22672,1.41159 2.30551,1.85748c0.74002,0.30588 1.50024,0.06985 2.53384,0.37033c0.71683,0.2084 1.50137,0.73843 2.11948,1.07101c1.17419,0.63181 1.77341,1.07254 2.49869,1.64801c0.6528,0.51797 1.45767,1.00818 1.89066,1.35199c0.9462,0.75128 1.31363,1.66867 0.56168,1.81467c-0.68195,0.13242 -1.6897,0.03949 -2.52167,-0.03601c-0.93594,-0.08493 -1.72421,-0.31113 -2.57468,-0.57465c-0.59286,-0.18372 -1.78934,-0.58932 -2.38934,-0.78934c-0.89999,-0.29999 -2.09918,-0.70343 -2.70898,-0.89999c-0.63153,-0.20355 -1.65817,-0.51413 -2.8335,-0.79968c-0.42294,-0.10275 -1.29416,-0.30017 -2.17084,-0.42834c-0.83066,-0.12146 -1.93954,-0.21875 -2.75732,-0.01065c-1.03036,0.26221 -1.66617,0.36835 -2.65802,-0.12582c-0.80765,-0.4024 -1.26599,-0.64352 -1.75467,-0.89801l-1.02933,-0.55099l-0.52466,-0.2905" id="svg_6" stroke-width="2" stroke="#000" fill="none"/>
  <path t="10597,10972,10972,10972,10990,10990,10990,10994,10994,10994,10994,10997,10998,11025,11025,11026,11028,11028,11029,11029,11055,11073,11073,11074,11074,11074,11090,11091,11091,11091,11091,11091,11095,11095,11095,11095" d="m419,81c9.22751,7.68483 9.67245,8.4043 10.77084,8.27084c0.84412,-0.10257 0.66663,-1.33333 0.42517,-2.04284c-0.2962,-0.87032 -0.5845,-1.86548 -0.832,-2.50533c-0.2291,-0.59225 -1.00034,-1.54074 -1.79468,-1.71733c-1.05728,-0.23504 -1.87347,-0.50436 -2.68283,-0.48116c-0.89752,0.02573 -1.79233,0.56599 -2.32401,0.99667c-0.73477,0.5952 -1.39307,1.34402 -2.22916,1.8125c-0.7486,0.41945 -1.42822,0.75349 -2.15134,1.24716c-0.39383,0.26888 -1.59085,1.27436 -1.978,1.67284c-0.79156,0.81477 -1.14987,1.26088 -1.496,1.70667c-0.6684,0.86086 -1.44333,2.0965 -1.65067,2.46533l-0.474,0.9705l-0.29401,0.7455" id="svg_7" stroke-width="2" stroke="#000" fill="none"/>
 </g>
 <g display="none">
  <title>muse_image</title>
  <image xlink:href="http://farm4.static.flickr.com/3009/2744072630_e688c5de0e.jpg" id="muse" height="456" width="640" y="12" x="0"/>
 </g>
 <g display="none">
  <title>bbox</title>
  <rect stroke="#f00" fill="none" stroke-width="3" height="375.52941" width="328.96" y="65.64706" x="117.76" id="bbox"/>
 </g>
</svg>
