<?xml version="1.0" ?>
<svg baseProfile="full" height="480" version="1.1" width="640" xmlns="http://www.w3.org/2000/svg" xmlns:ev="http://www.w3.org/2001/xml-events" xmlns:xlink="http://www.w3.org/1999/xlink">
	<defs/>
	<path d="M 247.0,205.0 C 239.521,207.85733 238.88234,208.036 238.24367,208.19467 C 237.60498,208.35335 236.30226000000002,208.64888 235.633,208.80533 C 234.94490000000002,208.96617 233.4986,209.32826 232.7365,209.54283 C 231.95052,209.76413000000002 231.15407000000002,210.00532 230.35601,210.26134000000002 C 229.56106,210.51636000000002 228.78225,210.78041000000002 228.02949999999998,211.05184000000003 C 227.30628,211.31261000000003 225.99597999999997,211.82413000000003 225.42983999999998,212.07801000000003 C 224.45833,212.51366000000004 222.75457999999998,212.57758000000004 223.03466999999998,213.34267000000003 C 223.17423999999997,213.72393000000002 224.25370999999998,213.17412000000002 224.85733,213.57067000000004 C 225.58060999999998,214.04583000000002 226.16214,214.42362000000003 227.16666999999998,215.00001000000003 C 227.88207999999997,215.41050000000004 228.6531,215.80885000000004 229.48265999999998,216.20001000000002 C 229.91666999999998,216.40466 231.33095999999998,217.00615000000002 231.84266,217.19951000000003 C 232.9006,217.59928000000002 233.44418,217.79088000000004 234.54933,218.09201000000004 C 235.09172,218.23979000000006 236.66568,218.51854000000006 237.15716,218.53567000000004 C 238.08959000000002,218.56819000000004 238.97982000000002,218.46327000000005 239.84815,218.34368000000003 C 240.28301,218.28379000000004 241.61950000000002,218.10874000000004 242.52566000000002,218.05717000000004 C 243.3744,218.00886000000006 244.10433,218.00227000000004 245.16667,218.00001000000003 C 245.87317000000002,217.99851000000004 246.85867000000002,218.00001000000003 247.49733,218.00001000000003 L 248.05716,218.00001000000003" fill="none" id="svg_1" stroke="#000" stroke-width="2"/>
</svg>
