<?xml version="1.0" ?>
<svg baseProfile="full" height="480" version="1.1" width="640" xmlns="http://www.w3.org/2000/svg" xmlns:ev="http://www.w3.org/2001/xml-events" xmlns:xlink="http://www.w3.org/1999/xlink">
	<defs/>
	<path d="M 176.51137,150.09091 C 177.51137,151.09091 178.19127,151.37472 178.79537,152.00691 C 179.34573999999998,152.58287 179.77482,153.31045 180.31269999999998,153.89091 C 180.98493,154.61633999999998 181.71839999999997,155.10906 182.15420999999998,155.7909 C 182.68086999999997,156.61489 182.91538999999997,157.52984999999998 183.71003999999996,158.0069 C 184.40231999999997,158.42249 184.61753999999996,159.28618 184.94737999999995,159.90557 C 185.42763999999994,160.80743 186.36706999999996,161.14112 186.51137999999995,162.0909 C 186.63155999999995,162.88182 186.55689999999996,163.79746 187.01137999999995,164.5909 C 187.41576999999995,165.29688000000002 187.51137999999995,166.19091 187.51137999999995,167.0909 C 187.51137999999995,167.89090000000002 187.56758999999994,168.79143 188.01137999999995,169.5909 C 188.45325999999994,170.38692 188.51137999999995,171.3124 188.51137999999995,172.19091 C 188.51137999999995,173.0909 188.49338999999995,173.89109 188.51137999999995,174.7909 C 188.52938999999995,175.69144 189.12950999999995,176.40124 189.42604999999995,177.2909 C 189.71191999999994,178.14855 189.51137999999995,179.0909 189.51137999999995,179.96957 C 189.51137999999995,180.73758 189.43204999999995,181.75508 189.56853999999996,182.43824 C 189.75328999999996,183.36295 190.44922999999994,184.18426 190.51004999999995,184.97623000000002 C 190.58202999999995,185.91347000000002 190.51137999999995,186.60691000000003 190.51137999999995,187.68022000000002 C 190.51137999999995,188.59090000000003 190.51137999999995,189.49089 190.51137999999995,190.39090000000002 C 190.51137999999995,191.29089000000002 190.51137999999995,192.19090000000003 190.51137999999995,193.0909 C 190.51137999999995,193.84807 190.51137999999995,194.74356 190.51137999999995,195.60691 C 190.51137999999995,196.5909 190.51137999999995,197.41224 190.51137999999995,198.26557 C 190.51137999999995,199.20423 190.51137999999995,200.13257 190.51137999999995,200.94424 C 190.51137999999995,201.8509 190.51137999999995,202.75758000000002 190.51137999999995,203.66957000000002 C 190.51137999999995,204.59091 190.51137999999995,205.4909 190.51137999999995,206.39091000000002 C 190.51137999999995,207.29225000000002 190.51137999999995,208.25758000000002 190.51137999999995,208.90557 C 190.51137999999995,209.92158 190.51137999999995,210.73757 190.51137999999995,211.74357 C 190.51137999999995,212.43824 190.51137999999995,213.46557 190.51137999999995,214.41224 C 190.51137999999995,215.26557 190.51137999999995,216.20557 190.51137999999995,217.09091 C 190.51137999999995,217.84808 190.51137999999995,218.74357 190.51137999999995,219.60692 C 190.51137999999995,220.57009 190.51137999999995,221.49091 190.51137999999995,222.39542 C 190.51137999999995,223.25759 190.51137999999995,224.11174 190.51137999999995,225.09092 C 190.51137999999995,225.89092000000002 190.51137999999995,226.69093 190.51137999999995,227.69093 C 190.51137999999995,228.49092000000002 190.51137999999995,229.48959000000002 190.51137999999995,230.25493 C 190.51137999999995,231.2056 190.51137999999995,232.19109 190.51137999999995,232.97626 C 190.51137999999995,233.92693 190.51137999999995,234.69226 190.51137999999995,235.69093999999998 C 190.51137999999995,236.49093 190.51137999999995,237.49093 190.51137999999995,238.29092999999997 C 190.51137999999995,239.29075999999998 190.51137999999995,240.07009999999997 190.51137999999995,241.06942999999998 C 190.51137999999995,241.88958999999997 190.51137999999995,242.72692999999998 190.51137999999995,243.7481 C 190.51137999999995,244.49543 190.51137999999995,245.49093 190.51137999999995,246.29093 C 190.51137999999995,247.29093 190.50452999999996,248.09096 190.51137999999995,249.09093000000001 C 190.51671999999994,249.86966 190.97165999999996,250.62499000000003 191.38986999999995,251.31243 C 191.85089999999994,252.07024 191.51137999999995,252.97626 191.51137999999995,253.91627 C 191.51137999999995,254.92427 191.51137999999995,255.68026 191.51137999999995,256.61178 C 191.51137999999995,257.57495 191.51126999999994,258.26559000000003 191.51137999999995,259.33376 C 191.51146999999995,260.19109 191.58304999999996,260.98127999999997 191.93671999999995,261.92692999999997 C 192.15050999999994,262.49859 192.46170999999995,263.4872 192.50687999999994,264.43377 C 192.54998999999995,265.33729999999997 192.67463999999993,266.25892999999996 192.93671999999995,266.91625 C 193.33947999999995,267.92638 193.33879999999996,268.70049 193.53220999999996,269.59093 C 193.71604999999997,270.43727 194.35393999999997,271.20143 194.59537999999998,271.97628000000003 C 194.89288,272.93102000000005 195.33319999999998,273.58321 195.47537999999997,274.46560000000005 C 195.62608999999998,275.40090000000004 195.42227999999997,276.36181000000005 195.9542,277.06942000000004 C 196.41368999999997,277.68069 197.59157,278.09365 198.0647,278.69094 C 198.62609999999998,279.39968 199.03698999999997,280.13485000000003 199.42604,281.00826 C 199.75259,281.74138 199.51511,282.55871 200.0807,283.48958 C 200.46257,284.11809 201.34469,284.92427 201.87536,285.45493999999997 C 202.51136,286.09092999999996 203.1602,286.65326999999996 203.48603,287.50159999999994 C 203.8243,288.38233999999994 204.07268,289.06934999999993 204.39002,290.06940999999995 C 204.64576,290.87531999999993 204.99215999999998,291.64435999999995 205.82036,292.04276999999996 C 206.80537999999999,292.51662 207.52761999999998,292.77824 207.99053,293.11177 C 209.04906,293.87449999999995 209.43741,294.46232999999995 209.51153,295.41225 C 209.57797,296.26374999999996 209.72274,297.27635999999995 210.27303999999998,297.78643 C 210.9192,298.3854 211.75638999999998,298.59298 212.62469,299.29095 C 213.28603999999999,299.82257 213.42738,300.75729 213.94736999999998,301.49093 C 214.50534999999996,302.27819 215.1409,302.70675 215.71135999999998,303.5736 C 216.13374,304.21545 216.76982999999998,304.80788 217.61151999999998,305.31261 C 218.19806999999997,305.66433 218.83267999999998,306.41225000000003 219.51136,307.09093 C 220.02737,307.60692 220.75001,308.33797000000004 221.31002,308.88961 C 222.0062,309.57537 222.87083,309.90404 223.61137000000002,310.31243 C 224.28585,310.68438000000003 224.85508000000002,311.62188000000003 225.67804,311.92428 C 226.47212000000002,312.21606 227.50316,311.99514 228.26404000000002,312.1481 C 229.18993000000003,312.33426 229.88414000000003,312.94351 230.49054,313.5701 C 231.07118,314.17008000000004 231.90369,314.53516 232.61137000000002,315.19077000000004 C 233.205,315.74073000000004 234.01124000000002,316.07602 234.91136000000003,316.09095 C 235.81129000000004,316.10587000000004 236.56659000000002,316.57056 237.03219000000004,317.09095 C 237.76690000000005,317.91212 238.56336000000005,317.91523 239.48986000000005,318.31245 C 240.15552000000005,318.59782 240.75329000000005,319.47584 241.61120000000005,319.96962 C 242.34866000000005,320.39406 242.79373000000007,321.04823000000005 243.71136000000004,321.09096 C 244.61039000000005,321.1328 245.51136000000005,321.09096 246.31137000000004,321.09096 C 247.21136000000004,321.09096 247.90279000000004,321.30385 248.59537000000003,321.80696 C 249.28386000000003,322.30711 250.33670000000004,322.09096 251.02738000000002,322.09096 C 252.10070000000002,322.09096 252.91547000000003,322.00923 253.81588000000002,322.09544999999997 C 254.68917000000002,322.17904 255.48402000000002,322.66981999999996 256.34470000000005,322.92431 C 257.1187800000001,323.15319 258.16404000000006,323.09096999999997 258.85871000000003,323.09096999999997 C 259.87537000000003,323.09096999999997 260.81138000000004,323.09096999999997 261.71137000000004,323.09096999999997 C 262.61121,323.09096999999997 263.48603,323.09096999999997 264.27305000000007,323.09096999999997 C 265.16856000000007,323.09096999999997 265.91587000000004,323.09096999999997 266.9113900000001,323.09096999999997 C 267.7113800000001,323.09096999999997 268.7112300000001,323.09096999999997 269.6753700000001,323.09096999999997 C 270.6260500000001,323.09096999999997 271.5113700000001,323.09096999999997 272.3113900000001,323.09096999999997 C 273.2113800000001,323.09096999999997 274.1473900000001,323.09096999999997 274.99538000000007,323.09096999999997 C 275.85872000000006,323.09096999999997 276.75423000000006,323.09096999999997 277.7113800000001,323.09096999999997 C 278.61156000000005,323.09096999999997 279.3967100000001,323.09096999999997 280.33672000000007,323.09096999999997 C 281.34472000000005,323.09096999999997 282.10073000000006,323.09096999999997 282.9905600000001,323.09096999999997 C 283.94738000000007,323.09096999999997 284.8113900000001,323.09096999999997 285.71139000000005,323.09096999999997 C 286.61138000000005,323.09096999999997 287.51156000000003,323.10817999999995 288.31140000000005,323.09096999999997 C 289.1479800000001,323.07295999999997 289.98236,322.77428999999995 290.85873000000004,322.44363 C 291.74234,322.11023 292.53323000000006,321.75271 293.22607000000005,321.37496999999996 C 294.01678000000004,320.94388 294.86322000000007,321.09096999999997 295.87539000000004,321.09096999999997 L 296.81139,321.09096999999997" fill="none" id="svg_1" stroke="#000" stroke-width="2"/>
</svg>
