<?xml version="1.0" ?>
<svg baseProfile="full" height="480" version="1.1" width="640" xmlns="http://www.w3.org/2000/svg" xmlns:ev="http://www.w3.org/2001/xml-events" xmlns:xlink="http://www.w3.org/1999/xlink">
	<defs/>
	<path d="M 267.0,123.0 C 267.0,124.8 266.68549,125.38714 266.16666,126.16666 C 265.69577,126.87411999999999 266.39295,127.93034999999999 265.91468,128.71465999999998 C 265.4246,129.51830999999999 265.03666,130.10074999999998 265.00001,130.99999999999997 C 264.97141999999997,131.70174999999998 264.31381999999996,132.42235999999997 264.05717,133.29999999999998 C 263.80406,134.16555 264.00001,135.1 264.00001,135.99999999999997 C 264.00001,136.79999999999998 264.00001,137.69999999999996 264.00001,138.60000999999997 C 264.00001,139.49999999999997 264.00001,140.39999999999998 264.00001,141.30000999999996 C 264.00001,142.19999999999996 264.00001,143.10000999999997 264.00001,144.00000999999995 C 264.00001,144.80000999999996 264.00001,145.70000999999993 264.00001,146.60001999999994 C 264.00001,147.50000999999995 263.73215999999996,148.44240999999994 264.00449999999995,149.29551999999995 C 264.26642999999996,150.11602999999997 264.67099999999994,150.68365999999995 265.02085999999997,151.47918999999996 C 265.33399999999995,152.19120999999996 265.81041,152.73245999999995 266.03603,153.60001999999997 C 266.26113,154.46563999999998 267.20835999999997,155.01731999999998 267.64284,155.70000999999996 C 268.10877999999997,156.43213999999998 268.07192,157.43183999999997 268.57469,158.02533999999997 C 269.11152,158.65903999999998 269.57527,159.46043999999998 269.916,160.20000999999996 C 270.31371,161.06324999999995 270.76427,161.64617999999996 271.38936,162.40000999999995 C 271.93446,163.05733999999995 272.54668000000004,163.67032999999995 272.94286,164.35717999999994 C 273.41271,165.17175999999995 273.53917,165.87574999999995 274.00002,166.52084999999994 C 274.49828,167.21829999999994 275.08748,167.92843999999994 275.56402,168.60002999999995 C 276.07891,169.32567999999995 276.75872000000004,169.94144999999995 276.99554,170.70451999999995 C 277.25058,171.52630999999994 277.81918,172.05153999999993 277.99868,172.80134999999996 C 278.21227,173.69357999999997 278.7466,174.31764999999996 279.28402,174.91601999999995 C 279.85745,175.55447999999996 280.71206,175.87893999999994 280.98933999999997,176.61068999999995 C 281.32757,177.50321999999994 281.63084999999995,178.06257999999994 282.08403999999996,178.80134999999996 C 282.50569999999993,179.48872999999995 283.64403999999996,179.79019999999997 283.97918,180.52084999999997 C 284.34152,181.31079999999997 284.57736,181.94120999999996 285.02535,182.61068999999998 C 285.51748,183.34611999999998 285.74346,184.27856999999997 286.22152,185.09985999999998 C 286.58711999999997,185.72794 287.4418,186.13725999999997 288.08404,186.71603 C 288.73361,187.30139 289.23034,187.96034 289.64736,188.70002 C 290.06739999999996,189.44503 290.65151,190.05013 291.05269,190.70452 C 291.52576999999997,191.4762 292.45729,191.77846 292.97469,192.43603000000002 C 293.48467,193.08419 293.72454,193.88925 294.50002,194.47920000000002 C 295.23772,195.04042 296.21953,195.26353000000003 296.80001,195.80136000000002 C 297.42174,196.37743 298.20196,197.02145000000002 298.64284,197.70003000000003 C 299.15763999999996,198.49236000000002 299.80181,198.63678000000002 300.56401,199.03603000000004 C 301.32234,199.43325000000004 301.67842,200.28528000000003 302.28401,200.91603000000003 C 302.834,201.48889000000003 303.58604,201.88295000000002 304.3,202.35719000000003 C 305.09166,202.88305000000003 305.65254,203.47590000000002 306.38936,203.97470000000004 C 307.05641,204.42625000000004 307.73119,204.85139000000004 308.38936,205.43603000000004 C 309.08312,206.05227000000005 309.11464,207.21839000000006 309.70452,207.64286000000004 C 310.49493,208.21162000000004 311.41775,208.41775000000004 312.00002,209.00002000000003 C 312.58230000000003,209.58230000000003 312.83083,210.60030000000003 313.35720000000003,211.29552000000004 C 313.86312000000004,211.96373000000003 314.84173000000004,212.13477000000003 315.40002000000004,212.85068000000004 C 315.83398000000005,213.40714000000003 316.67703000000006,213.97702000000004 317.30001000000004,214.70536000000004 C 317.76299000000006,215.24664000000004 318.55639,215.91991000000004 319.02535000000006,216.61069000000003 C 319.52511000000004,217.34685000000005 319.92605000000003,218.09087000000002 320.60003000000006,218.56401000000002 C 321.42608000000007,219.14394000000001 322.15728000000007,219.59988 322.60003000000006,220.14935000000003 C 323.23760000000004,220.94059000000001 324.01891000000006,221.3891 324.50002000000006,222.02084000000002 C 324.9954400000001,222.67138000000003 325.27450000000005,223.54850000000002 325.8333600000001,224.16668 C 326.4202100000001,224.81583 327.1280100000001,225.18865000000002 327.7000300000001,225.70451000000003 C 328.42723000000007,226.36030000000002 328.7551800000001,227.30807000000001 329.3333600000001,228.00001000000003 C 329.7526700000001,228.50181000000003 330.5894600000001,229.05479000000003 331.1053600000001,229.70001000000002 C 331.63725000000005,230.36523000000003 332.4005000000001,230.63345 333.24284000000006,231.30002000000002 C 334.0514600000001,231.93990000000002 334.50001000000003,232.50000000000003 335.20002000000005,233.20001000000002 C 335.80000000000007,233.8 336.37367000000006,234.43156000000002 337.20002000000005,234.91734000000002 C 337.97733000000005,235.37429000000003 338.45722000000006,236.04878000000002 339.00001000000003,236.83334000000002 C 339.46470000000005,237.50503000000003 340.10002000000003,238.10002000000003 340.70002000000005,238.70001000000002 C 341.40000000000003,239.39999000000003 342.00001000000003,240.00001000000003 342.60001000000005,240.60002000000003 C 343.30451000000005,241.30452000000002 343.7508,241.76364000000004 344.48532000000006,242.48401000000004 C 345.01626000000005,243.00472000000005 345.5842600000001,243.53981000000005 346.59549000000004,244.24735000000004 C 347.15488000000005,244.63874000000004 347.98386000000005,245.31740000000005 348.50000000000006,246.00002000000003 C 348.88794000000007,246.51308000000003 349.66580000000005,247.24598000000003 350.24667000000005,247.66135000000003 C 351.17337000000003,248.32404000000002 351.68536000000006,248.76651000000004 352.50000000000006,249.50002000000003 C 353.04825000000005,249.99366000000003 353.81931000000003,250.68627000000004 354.54285000000004,251.19019000000003 C 355.17749000000003,251.63219000000004 356.01493000000005,252.14898000000002 356.60001000000005,252.65719000000004 C 357.21628000000004,253.19250000000005 357.99347000000006,254.00666000000004 358.60450000000003,254.60003000000003 C 359.22941000000003,255.20689000000004 359.66993,255.61968000000005 360.684,256.40002000000004 C 361.21745000000004,256.81051 361.7928,257.17660000000006 362.83335000000005,258.00003000000004 C 363.32346000000007,258.38788000000005 363.96104,259.00088000000005 364.59867,259.51471000000004 C 365.37876,260.14334 366.22639000000004,260.58832 367.00001000000003,261.16669 C 367.61793000000006,261.62863000000004 368.20521,262.17755 368.83335000000005,263.00003000000004 C 369.4142800000001,263.76068000000004 369.6869300000001,264.41083000000003 370.48402000000004,265.11603 C 371.12672000000003,265.68466 372.00187000000005,266.30429000000004 372.36402000000004,266.82538 C 372.82972000000007,267.49548 373.47983000000005,268.31342 373.91733000000005,269.20136 C 374.2395000000001,269.85526000000004 374.6976,270.66422 375.35184000000004,271.34736000000004 C 375.96704000000005,271.98972000000003 376.63883000000004,272.59397 376.91733000000005,273.48405 C 377.12802000000005,274.15736000000004 377.54987000000006,275.14109 378.18534000000005,275.58937000000003 C 378.95624000000004,276.13319 379.63212000000004,276.6068 380.20002000000005,277.48405 C 380.63374000000005,278.15403000000003 381.11149000000006,278.97001 381.60001000000005,279.62538 C 382.11219000000006,280.31245 382.4349700000001,281.04304 383.10001000000005,281.97853000000003 C 383.5573800000001,282.62190000000004 384.25122000000005,283.15965000000006 384.79999000000004,283.88539000000003 C 385.35465000000005,284.61891 385.69242,285.40843 386.10001000000005,286.19972 C 386.49274,286.96217 387.3207100000001,287.55424 387.83335000000005,288.33339 C 388.23609000000005,288.94548000000003 388.30134000000004,290.02129 388.70533000000006,290.59554 C 389.2529400000001,291.37398 389.81083000000007,292.12285 390.08268000000004,292.88405 C 390.42213000000004,293.83452 390.69209000000006,294.41927 391.48267000000004,295.1147 C 392.09064000000006,295.64949 392.81549000000007,296.34962 393.33335000000005,297.16670000000005 C 393.66245000000004,297.68599000000006 394.36399000000006,298.33549000000005 395.1146600000001,299.11604000000005 C 395.59726000000006,299.61787000000004 396.1891800000001,300.49043000000006 396.60001000000005,301.17469000000006 C 397.0872800000001,301.9863 397.6436800000001,302.54911000000004 398.29551000000004,303.30003000000005 C 398.87418,303.96669 399.44608000000005,304.54765000000003 399.91468000000003,305.28538000000003 C 400.35380000000004,305.97666000000004 400.33680000000004,306.85127000000006 400.97468000000003,307.42536 C 401.55342,307.94623 401.91953,308.67551000000003 402.43601,309.40003 C 402.99601,310.18558 403.48966,310.79059 404.00001000000003,311.47919 C 404.51496000000003,312.17401 405.05268,312.70453000000003 405.50001000000003,313.50003000000004 C 405.94734000000005,314.29553000000004 406.39845,315.00287000000003 407.02534,315.57471000000004 C 407.58772000000005,316.08771 408.22865,316.76068000000004 408.70002000000005,317.29471000000007 C 409.38633000000004,318.0722400000001 409.94169000000005,318.59006000000005 410.4428500000001,319.32135000000005 C 410.9467900000001,320.05670000000003 411.5409600000001,320.49332000000004 412.24284000000006,321.2473800000001 C 412.81865000000005,321.8660300000001 413.27668000000006,322.6666600000001 413.70002000000005,323.3473600000001 C 414.26929000000007,324.2627000000001 414.8326200000001,324.7684100000001 415.52085000000005,325.5417000000001 C 416.20011000000005,326.3048800000001 416.6573900000001,326.99934000000013 416.97916000000004,327.5000400000001 C 417.44413000000003,328.2235500000001 417.72327,329.31343000000015 418.44284000000005,330.10020000000014 C 418.92532000000006,330.62773000000016 419.85373000000004,331.1504600000001 420.37466000000006,331.82539000000014 C 420.7684300000001,332.3355500000001 421.5322500000001,333.05790000000013 422.13867000000005,333.6253800000001 C 422.81851000000006,334.2615800000001 423.01468000000006,335.17470000000014 423.2839900000001,336.11470000000014 L 423.71600000000007,336.7987200000001 L 424.0526700000001,337.64287000000013 L 424.7044900000001,337.9955600000001" fill="none" id="svg_1" stroke="#000" stroke-width="2"/>
</svg>
