<?xml version="1.0" ?>
<svg baseProfile="full" height="480" version="1.1" width="640" xmlns="http://www.w3.org/2000/svg" xmlns:ev="http://www.w3.org/2001/xml-events" xmlns:xlink="http://www.w3.org/1999/xlink">
	<defs/>
	<path d="M 190.0,128.0 C 189.71466,128.91467 188.89873,129.04779 188.0,129.0 C 187.19659,128.95728 186.42992,128.35715 185.8,127.80133000000001 C 185.03428000000002,127.12569 184.19999,127.00075000000001 183.328,127.00000000000001 C 182.45733,126.99925000000002 181.7373,127.08506000000001 180.768,126.91467000000002 C 179.78825,126.74244000000002 179.13897,126.17827000000001 178.17466,126.03601000000002 C 177.17683,125.88880000000002 176.41064999999998,126.00001000000002 175.49999,126.00001000000002 C 174.6,126.00001000000002 173.69346,126.10697000000002 172.79999,125.99867000000002 C 171.88021,125.88719000000002 171.3459,125.19014000000001 170.39998,125.01067000000002 C 169.5157,124.84290000000001 168.59999,125.00000000000001 167.69998,125.00000000000001 C 166.79999,125.00000000000001 165.87967,124.80989000000001 164.99998000000002,125.00000000000001 C 164.32458000000003,125.14596000000002 164.80232,125.80167000000002 165.49998000000002,126.50000000000001 C 166.19964000000002,127.20033000000001 166.69998,127.70000000000002 167.41064000000003,128.41066 C 167.88531000000003,128.88533 168.64155000000002,129.66971 169.21064000000004,130.17467000000002 C 169.97962000000004,130.85700000000003 170.79710000000003,131.35134000000002 171.34281000000004,131.6955 C 172.26089000000005,132.27451000000002 172.87420000000003,132.75312000000002 173.82531000000003,132.97467 C 174.82467000000003,133.20746 175.44993000000002,133.55838 176.29998000000003,133.94733 C 177.17419000000004,134.34734 177.72553000000002,134.89005 178.41064000000003,135.38933 C 179.24612000000002,135.99822 180.04002000000003,135.8667 180.97865000000002,136.22133 C 181.668,136.48178 182.64814,136.94733 183.43065,137.084 L 184.01465000000002,137.61067" fill="none" id="svg_1" stroke="#000" stroke-width="2"/>
</svg>
