<?xml version="1.0" ?>
<svg baseProfile="full" height="480" version="1.1" width="640" xmlns="http://www.w3.org/2000/svg" xmlns:ev="http://www.w3.org/2001/xml-events" xmlns:xlink="http://www.w3.org/1999/xlink">
	<defs/>
	<path d="M 181.0,195.0 C 189.16667,186.0 189.79062,185.32593 190.38,184.70799 C 190.93411,184.12706 191.46755,183.57810999999998 192.0,183.0625 C 193.05206,182.04372 193.61099,181.54152 194.83333,180.5 C 195.50162,179.93057 196.21680999999998,179.34836 196.95882999999998,178.75101 C 197.71410999999998,178.14299 198.47780999999998,177.53994 199.23733,176.948 C 199.97816999999998,176.37062 200.69088,175.81764 201.99999,174.83333000000002 C 202.56969,174.40499000000003 203.08996,174.02304 203.56598,173.67684000000003 C 204.00468999999998,173.35779000000002 204.41704,173.06304000000003 204.80798,172.78133000000003 C 205.56338,172.23702000000003 206.33266999999998,171.66584000000003 207.17065,171.03334000000004 C 207.61398,170.69873000000004 208.53804,170.01556000000005 209.02131,169.68666000000005 C 209.50541,169.35719000000006 210.99326,168.48520000000005 211.49998,168.26416000000003 C 212.48774,167.83328000000003 212.99925,167.68440000000004 213.99998,167.36000000000004 C 214.49961,167.19804000000005 216.0032,166.67421000000004 216.49998,166.45767000000004 C 217.50674,166.01884000000004 217.99218,165.75284000000005 218.99998,165.32266000000004 C 219.4963,165.11081000000004 220.99659,164.64184000000003 221.50015,164.58583000000004 C 222.50020999999998,164.47459000000003 223.52132999999998,164.55682000000004 224.03598,164.60667000000004 C 225.0865,164.70843000000005 226.16629,164.83810000000003 226.72115,164.87883000000005 C 227.84748,164.96152000000006 228.41549,164.97400000000005 229.53865,165.06134000000006 C 230.09061,165.10426000000007 231.67086999999998,165.31601000000006 232.15715,165.44333000000006 C 233.09949,165.69006000000007 233.98518,166.07126000000005 234.41466,166.29334000000006 C 235.29572,166.74892000000006 236.17374,167.32325000000006 237.08399,167.96933000000007 C 237.55639,168.30464000000006 238.02823,168.65753000000007 238.97466,169.38533000000007 C 239.44878,169.74992000000006 239.91454,170.11920000000006 241.27883,171.17900000000006 C 241.71685,171.51926000000006 242.58765,172.19308000000007 243.02082,172.54167000000007 C 243.91467999999998,173.26100000000008 244.37742999999998,173.64551000000006 245.33332,174.50000000000006 C 245.84637999999998,174.95863000000006 246.36715999999998,175.44328000000004 247.408,176.44400000000005 C 247.91888999999998,176.93520000000004 248.40641,177.41490000000005 248.86598999999998,177.87050000000005 C 250.00266,178.99730000000005 250.47636999999997,179.51833000000005 251.02082,179.97917000000004 C 251.5693,180.44342000000003 252.54928999999998,181.10608000000005 252.98532999999998,181.41867000000005 C 253.95666999999997,182.11504000000005 254.45955999999998,182.47748000000004 254.95065999999997,182.83733000000004 C 255.84358999999998,183.49160000000003 256.55971,183.45261000000005 256.16664999999995,184.12500000000003 C 255.61465999999996,185.06920000000002 257.32707999999997,185.10704000000004 258.10698999999994,185.75433000000004 C 258.5303599999999,186.10571000000004 259.35356999999993,186.83007000000003 260.12532999999996,187.40933000000004 C 260.91157999999996,187.99945000000005 260.21971999999994,187.18130000000005 260.34132999999997,187.17067000000003 C 261.23353999999995,187.09261000000004 261.7564,187.87410000000003 262.51466999999997,188.14934000000002 C 263.36677999999995,188.45865000000003 264.84114999999997,188.76909000000003 265.368,188.82933000000003 C 266.44808,188.95283000000003 266.99980999999997,188.96376000000004 267.54934,188.97867000000002 C 268.63174,189.00803000000002 270.15682,189.00000000000003 270.62798,189.00000000000003 C 271.51732,189.00000000000003 272.34267,189.00000000000003 273.11199,189.00000000000003 C 274.17915999999997,189.00000000000003 275.20666,189.00000000000003 275.93331,189.00000000000003 C 276.73998,189.00000000000003 278.18532,189.00000000000003 278.73598,189.00000000000003 C 279.31066,189.00000000000003 280.49998999999997,189.00000000000003 281.09864999999996,189.00000000000003 C 281.68931999999995,189.00000000000003 283.33351,188.98560000000003 284.25730999999996,189.00400000000002 C 285.04563999999993,189.01970000000003 285.78910999999994,188.95244000000002 286.83333,189.50000000000003 C 287.36262999999997,189.77756000000002 287.94682,190.58914000000001 288.76932999999997,191.06267000000003 C 289.58531,191.53244000000004 290.31379,191.51718000000002 291.38532999999995,191.39333000000002 C 292.12113999999997,191.30828000000002 293.17616,191.0978 294.13196999999997,191.03600000000003 C 294.92296,190.98485000000002 295.89899999999994,190.98079000000004 296.83331999999996,191.33333000000002 C 297.42331999999993,191.55596000000003 298.11994,191.84128 298.83732,192.14934000000002 C 300.00663,192.65146000000001 299.99899999999997,193.00089000000003 299.48798999999997,193.42667000000003 C 298.67154999999997,194.10691000000003 298.29538999999994,194.42554000000004 297.41596999999996,195.13733000000002 C 296.93931999999995,195.52312 296.45723,195.92709000000002 295.44798,196.66533 C 294.51198,197.35001 293.67188999999996,197.88025000000002 292.93998,198.24533000000002 C 292.34898,198.54013000000003 291.23008,198.87578000000002 290.57331,199.34134000000003 C 289.86307,199.84480000000002 289.24219,200.40747000000002 288.52082,200.97917000000004 C 287.82148,201.53343000000004 287.03254000000004,202.08392000000003 286.91465,202.08533000000003 C 286.55262,202.08965000000003 285.86472,203.14083000000002 285.27732,203.71201000000002 C 284.63302999999996,204.33852000000002 284.32694,204.68236000000002 283.33331999999996,205.50000000000003 C 282.53338999999994,206.15825000000004 282.04096,206.48213000000004 280.83331999999996,207.00000000000003 C 280.32901999999996,207.21626000000003 279.11134,207.78600000000003 279.06247999999994,207.47917000000004 C 278.91696999999994,206.56563000000003 279.57062999999994,207.33801000000003 278.8927999999999,207.88617000000005 C 278.2204699999999,208.42987000000005 277.4339099999999,209.10022000000004 277.0186499999999,209.47867000000005 C 276.5880499999999,209.87110000000004 275.32629999999995,211.16074000000006 274.9436399999999,211.62033000000005 C 274.5690099999999,212.07030000000006 273.9046699999999,212.95456000000004 273.3652999999999,213.75867000000005 C 272.93597999999986,214.39872000000005 272.3281899999999,215.16347000000005 271.88479999999987,215.87767000000005 C 271.47436999999985,216.53874000000005 271.0570999999999,217.24785000000006 270.49996999999985,218.16667000000004 C 270.05749999999983,218.89642000000003 269.5778799999998,219.59108000000003 268.89345999999983,220.54899000000003 C 268.58156999999983,220.98551000000003 268.24318999999986,221.46113000000003 267.5208099999998,222.45832000000004 C 267.1636299999998,222.95139000000003 266.6274399999998,223.95255000000003 265.8281199999998,224.70766000000003 C 265.2428499999998,225.26058000000003 264.51152999999977,225.89286000000004 264.2092799999998,226.23065000000003 C 263.5150099999998,227.00657000000004 263.1579199999998,227.45709000000002 261.8332999999998,228.66665000000003 C 261.3915599999998,229.07002000000003 260.93470999999977,229.44065000000003 260.02796999999975,230.08531000000002 C 259.60953999999975,230.38278000000003 258.81937999999974,230.82777000000002 257.70261999999974,231.46664 C 256.81736999999976,231.97308 256.20484999999974,232.50907 255.80428999999975,232.82948000000002 C 255.35959999999974,233.18521 254.36443999999975,233.96025000000003 253.82561999999976,234.35548000000003 C 253.27912999999975,234.75634000000002 252.18032999999977,235.52357000000003 251.08261999999976,236.14532000000003 C 250.55446999999975,236.44447000000002 250.02055999999976,236.71562000000003 248.93860999999976,237.20397000000003 C 248.39302999999975,237.45022000000003 247.83095999999975,237.68213000000003 246.66661999999977,238.16665000000003 C 245.43097999999978,238.68084000000005 244.79228999999978,238.94482000000002 244.13861999999978,239.19331000000003 C 243.48126999999977,239.44320000000002 242.82217999999978,239.69253000000003 242.14810999999978,239.87582000000003 C 240.18574999999979,240.40942000000004 239.52250999999978,240.42900000000003 238.88661999999977,240.45999000000003 C 238.26214999999976,240.49042000000003 237.04161999999977,240.43748000000002 236.44661999999977,240.39331000000004 L 235.86160999999976,240.33916000000005" fill="none" id="svg_1" stroke="#000" stroke-width="2"/>
</svg>
