<?xml version="1.0" ?>
<svg baseProfile="full" height="480" version="1.1" width="640" xmlns="http://www.w3.org/2000/svg" xmlns:ev="http://www.w3.org/2001/xml-events" xmlns:xlink="http://www.w3.org/1999/xlink">
	<defs/>
	<path d="M 244.0,250.0 C 245.83067,243.94267 245.83929,243.06494 246.16667,242.16667 C 246.41888,241.47462000000002 247.29989,240.87396 247.71466,240.20000000000002 C 248.18901,239.42923000000002 248.57683,238.51935000000003 249.02083000000002,237.95833000000002 C 249.52596000000003,237.32007000000002 250.11275,236.31369 250.38533,235.77468000000002 C 250.80283,234.94909 251.30278,234.13644000000002 252.00983000000002,233.45267 C 252.50057,232.97811000000002 253.09964000000002,232.59561000000002 254.07851000000002,231.57868000000002 C 254.56786000000002,231.07030000000003 254.97580000000002,230.49743 255.39550000000003,229.95267 C 256.19364,228.91672 256.77213,228.21668000000003 257.40000000000003,227.66167000000002 C 258.16794000000004,226.98285 258.82569,226.63669000000002 259.45716000000004,226.19017000000002 C 260.44599000000005,225.49098000000004 260.95267000000007,224.99466 261.50001000000003,224.50000000000003 C 262.04734,224.00534000000002 263.07151000000005,223.13286000000002 263.54286,222.80983000000003 C 264.38344,222.23376000000005 265.20442,221.68384000000003 265.8,221.17467000000002 C 266.40449,220.65789 267.18721,219.99988000000002 267.82133,219.62534000000002 C 268.50104999999996,219.22388000000004 269.64268,218.67867 270.30534,218.34734000000003 C 271.00001,218.00000000000003 271.69468,217.65267000000003 272.66667,217.16668000000004 C 273.48567,216.75718000000003 274.17515000000003,216.40353000000005 275.20003,215.90017000000003 C 275.79796000000005,215.60650000000004 276.5851,215.20541000000003 277.60002000000003,215.05717000000004 C 278.39332,214.94129000000004 279.40135000000004,215.00001000000003 280.23601,215.00001000000003 C 281.16667,215.00001000000003 281.94820000000004,215.00001000000003 282.7387,215.00001000000003 C 283.8572,215.00001000000003 284.61468,215.00001000000003 285.65719,215.00001000000003 C 286.40453,215.00001000000003 287.40136,215.00001000000003 288.23602,215.00001000000003 C 289.16668,215.00001000000003 289.95718,215.00001000000003 290.8107,215.00001000000003 C 292.00003,215.00001000000003 292.60314999999997,214.98576000000003 293.54169,215.02084000000002 C 294.21488,215.04600000000002 295.33512,215.15507000000002 296.16803000000004,215.28535000000002 C 297.0527000000001,215.42372000000003 297.95035000000007,215.60611000000003 298.39468000000005,215.70451000000003 C 299.66967000000005,215.98689000000002 300.42758000000003,216.20028000000002 301.43753000000004,216.47918 C 302.03360000000004,216.64379000000002 303.08240000000006,216.85709000000003 304.02087000000006,217.02084000000002 C 304.77261000000004,217.15199 305.6514200000001,217.42242000000002 306.65069000000005,217.86134 C 307.35580000000004,218.17106 308.0335600000001,218.51429000000002 308.95687000000004,218.97851 C 309.71862000000004,219.36151 310.55022,219.74708 311.24285000000003,220.30001 C 312.04873000000003,220.94334999999998 312.60003000000006,221.564 313.38936,221.97467999999998 L 313.95836,222.50000999999997" fill="none" id="svg_1" stroke="#000" stroke-width="2"/>
	<path d="M 244.0,249.0 C 244.0,250.8 244.0,251.7 244.0,252.60001 C 244.0,253.41066 244.0,254.32134 244.0,255.17467 C 244.0,256.11466 244.08868,257.1044 244.0,258.0 C 243.91626,258.8457 243.25905,259.33307 242.64284,259.95184 C 242.0145,260.58279 241.55055000000002,261.05423 241.0,261.83334 C 240.52121,262.51089 239.67444,263.0935 238.97917,263.52084 C 238.39520000000002,263.87979 237.58912,264.47339 237.0,265.02084 C 236.38846,265.58914000000004 235.61261,266.41668000000004 234.95833,267.0 C 234.49616,267.41205 233.36141999999998,268.20688 232.69467,268.60001 C 232.00416,269.00715 231.28546,269.36896 230.33333,270.0 C 229.75942999999998,270.38037 229.05435,270.97055 228.48801,271.51468 C 227.74634,272.22723 227.0093,272.88745 226.2,272.99866 C 225.36299,273.11364999999995 224.99221,273.93902999999995 225.7045,274.0 C 226.59673999999998,274.07635 227.52101,274.01672 228.32134,273.99985 C 229.17524,273.98184 230.07228999999998,273.62689 230.88401,273.284 C 231.62228,272.97213999999997 232.52077,273.07932 233.52084,272.97916 C 234.34221,272.89687999999995 235.25583,272.55399 236.05185,272.35265999999996 C 237.07214,272.09462999999994 237.77339,272.08181999999994 238.59868,271.91597999999993 C 239.61627000000001,271.7115099999999 240.19705,271.3832299999999 241.20001,270.90016999999995 C 241.99769,270.51597999999996 242.58462,270.20268999999996 243.59552,270.0571499999999 C 244.50697,269.9259199999999 245.51775999999998,270.0413699999999 246.32135,269.7786499999999 C 247.1992,269.49162999999993 247.972,269.06218999999993 248.79868,269.0013399999999 C 249.69759,268.9351799999999 250.60003999999998,268.9940199999999 251.56402,268.9999999999999 C 252.42541,269.0053399999999 253.00002,269.5208399999999 253.43603,270.3999899999999 L 254.00002999999998,270.9999999999999 L 254.60003999999998,271.6000099999999" fill="none" id="svg_2" stroke="#000" stroke-width="2"/>
	<path d="M 304.0,218.0 C 307.08551,215.793 307.53928,215.37939 308.01517,214.92767 C 308.51404,214.45414 309.53540000000004,213.45541 310.04651,212.949 C 310.55008000000004,212.45007 311.49945,211.49943000000002 311.93533,211.06483 C 312.72299000000004,210.27949 313.41095,209.59806 313.73199,209.304 C 314.81454,208.31239 315.33169,207.99129 315.97915,207.5 C 317.02892,206.70343 317.40194,206.23117 318.02084,205.47917 C 318.45758,204.94852 319.14703000000003,204.14459000000002 319.68798000000004,203.684 C 320.53332000000006,202.96424 321.21679000000006,202.54418 321.57198000000005,202.31599 C 322.73607000000004,201.56813 323.60668000000004,201.04495 324.0506500000001,200.764 C 324.9520500000001,200.19361 325.4134700000001,199.92165 326.66665000000006,198.99999 C 327.06347000000005,198.70815 327.79467000000005,198.1 328.4999900000001,197.49999 C 329.20531000000005,196.89998 329.5499200000001,196.57589 330.7428200000001,195.69998999999999 C 331.1631400000001,195.39137 332.0604500000001,194.79863999999998 332.52084000000013,194.49999 C 333.45007000000015,193.89724 333.92535000000015,193.612 335.2783200000001,192.70015 C 335.71597000000014,192.40518 336.5540200000001,191.81158000000002 336.95834000000013,191.52081 C 337.7396200000001,190.95895000000002 338.83221000000015,190.16505 339.51733000000013,189.68264000000002 C 340.1842300000001,189.21307000000002 340.86297000000013,188.74091 341.2098300000001,188.49015000000003 C 342.3387100000001,187.67403000000002 343.1676200000001,187.03324000000003 343.6008200000001,186.69465000000002 C 344.0410100000001,186.35059 344.9155800000001,185.65341000000004 345.3374800000001,185.30531000000002 C 346.50630000000007,184.34092 347.1453100000001,183.77064000000001 347.70265000000006,183.27198 C 348.44365000000005,182.60899 349.1584000000001,181.98898000000003 349.9616500000001,181.39547000000002 C 350.53584000000006,180.9712 351.16523000000007,180.54786000000001 352.1666400000001,179.83331 C 352.8865800000001,179.31959 353.2526400000001,179.04731 353.9999800000001,178.49998000000002 C 354.7473200000001,177.95265000000003 355.83100000000013,177.16334000000003 356.5146600000001,176.68531000000002 C 357.1617900000001,176.23283 357.78865000000013,175.80967 358.3986600000001,175.40131000000002 C 359.2988400000001,174.79869000000002 359.8919500000001,174.39901000000003 360.76399000000015,173.83597000000003 C 361.3124500000001,173.48186000000004 362.31746000000015,172.89255000000003 362.95833000000016,172.52080000000004 C 363.83916000000016,172.00986000000003 364.48430000000013,171.50525000000005 365.20000000000016,170.79997000000003 C 365.8043700000002,170.20439000000002 366.31304000000017,169.44519000000003 367.19866000000013,169.08529000000004 C 368.03518000000014,168.74537000000004 368.65685000000013,168.19976000000005 369.49999000000014,168.02079000000003 C 370.38061000000016,167.83387000000005 371.2999800000001,167.99987000000004 372.20000000000016,167.99996000000004 C 373.09999000000016,168.00005000000004 373.95827000000014,168.23391000000004 374.70000000000016,168.64730000000006 C 375.46367000000015,169.07293000000007 376.5109400000002,169.23012000000006 376.87850000000014,170.09997000000007 C 377.23199000000017,170.93650000000008 377.36434000000014,171.91072000000008 376.94283000000013,172.64280000000008 C 376.47558000000015,173.45431000000008 375.99999000000014,173.99996000000007 375.99999000000014,174.7999700000001 C 375.99999000000014,175.6999600000001 375.99999000000014,176.5999700000001 375.99999000000014,177.49997000000008 C 375.99999000000014,178.41063000000008 376.00060000000013,179.32130000000006 375.99999000000014,180.17464000000007 C 375.9993200000001,181.11731000000006 375.9656600000001,181.81549000000007 375.71599000000015,182.76931000000008 C 375.51799000000017,183.52575000000007 375.22652000000016,184.3075800000001 375.08531000000016,185.31597000000008 C 374.95878000000016,186.21955000000008 374.99998000000016,187.1666500000001 374.99998000000016,187.9706500000001 C 374.99998000000016,188.9186500000001 374.99998000000016,189.65731000000008 374.99998000000016,190.96381000000008 C 374.99998000000016,191.45064000000008 374.99998000000016,192.46531000000007 374.99998000000016,192.9791500000001 C 374.99998000000016,193.9848100000001 374.99998000000016,195.3333100000001 374.99998000000016,196.0573100000001 L 374.99998000000016,196.8958100000001 L 374.99998000000016,197.8333100000001 L 374.99998000000016,198.6954800000001" fill="none" id="svg_3" stroke="#000" stroke-width="2"/>
	<path d="M 359.0,200.0 C 364.16666,217.5 364.49664,218.67586 364.772,219.716 C 365.01346,220.62800000000001 365.21402,221.42689000000001 365.375,222.125 C 365.51477,222.73106 365.65833,223.25523 365.87866,224.83566 C 365.9617,225.43115999999998 366.01202,226.45155 366.22149,227.42166 C 366.40139,228.2549 366.61474000000004,228.84546 366.80132000000003,229.48666 C 367.20757000000003,230.88276 367.4023,231.63319 367.56398,232.41066 C 367.72786,233.19872 367.89217,234.39883 367.94283,235.1955 C 367.99260000000004,235.97844 367.99773,236.74283 367.99999,237.83333000000002 C 368.00139,238.51866 367.99999,239.54167 367.99999,240.26700000000002 C 367.99999,241.50000000000003 367.99999,241.96401000000003 367.99999,242.95799000000002 C 367.99999,244.00000000000003 367.99999,244.52400000000003 367.99999,245.54800000000003 C 367.99999,246.50000000000003 367.99999,247.34399000000002 367.99999,248.43750000000003 C 367.99999,249.08650000000003 368.00789000000003,250.30028000000001 367.99550000000005,250.90450000000004 C 367.97640000000007,251.83634000000004 367.9554600000001,252.49178000000003 367.71465000000006,253.88401000000005 C 367.58571000000006,254.62943000000004 367.3975700000001,255.37684000000004 367.1986600000001,256.11600000000004 C 366.91186000000005,257.18177000000003 366.70479000000006,257.84436000000005 366.3999800000001,258.78934000000004 C 366.2031100000001,259.39969 365.80876000000006,260.60684000000003 365.57866000000007,261.22135000000003 C 365.2041500000001,262.22147 364.6720700000001,263.33619000000004 364.4569900000001,263.74268 C 363.99721000000005,264.61158 363.7391600000001,265.05759 363.17867000000007,265.94935 C 362.89657000000005,266.3982 362.0125300000001,267.67670999999996 361.3999800000001,268.42933 C 361.1059400000001,268.7906 360.5067600000001,269.46485 359.8999800000001,270.09101 C 359.0098100000001,271.00962 358.4025400000001,271.60541 357.7786400000001,272.20002 C 357.4609500000001,272.50278 356.8056500000001,273.12543999999997 355.6666400000001,274.00001 C 355.2644800000001,274.30879 354.4053200000001,274.89353 353.97066000000007,275.17868999999996 C 353.1258700000001,275.73292 352.3278400000001,276.21326999999997 351.38515000000007,276.85733999999997 C 350.6824200000001,277.33746999999994 350.04366000000005,277.82469 349.1666400000001,278.33334999999994 C 348.3871600000001,278.78543999999994 347.93065000000007,279.0112699999999 346.9583300000001,279.5000099999999 C 346.4561900000001,279.75238999999993 345.4544200000001,280.24326999999994 344.4999900000001,280.6666699999999 C 343.66298000000006,281.0379799999999 342.9293100000001,281.3173399999999 342.0278200000001,281.6338299999999 L 340.97197000000006,281.9133399999999 L 340.1214800000001,281.7778399999999 L 340.00448000000006,281.0668399999999" fill="none" id="svg_4" stroke="#000" stroke-width="2"/>
	<path d="M 374.0,198.0 C 374.0,199.8 373.64511,200.79263 374.03601,201.564 C 374.3898,202.26211999999998 375.03317,202.8238 375.284,203.76934 C 375.48449999999997,204.52512 375.75211,205.31078 375.91598999999997,206.31467 C 376.02389999999997,206.97571000000002 376.12557999999996,208.01502 376.43600999999995,208.80001000000001 C 376.75939999999997,209.61785 377.26453,210.37785000000002 377.56399999999996,211.27201000000002 C 377.91175,212.31029 377.92056999999994,212.96897 377.97468,213.66134000000002 C 378.05989,214.75131000000002 378.14842,215.83674000000002 378.28400999999997,216.51335000000003 C 378.4745,217.46382000000003 378.70604,218.02702000000002 378.87852,219.07884000000004 C 379.03181,220.01372000000003 378.99933999999996,220.76935000000003 379.00001,221.96802000000005 C 379.00041,222.65068000000005 379.00361,223.34935000000004 379.00001,224.66669000000005 C 378.99775,225.48571000000004 379.04285999999996,226.19619000000006 378.77867,227.20002000000005 C 378.56305999999995,228.01926000000006 378.23179,228.58941000000004 378.05269,229.60453000000004 C 377.90342999999996,230.45060000000004 377.80052,231.42756000000003 377.56401,232.22535000000005 C 377.31822,233.05442000000005 376.9106,234.08326000000005 376.60002,234.76403000000005 C 376.30983,235.40009000000003 375.79999999999995,236.40002000000004 375.40000999999995,237.20002000000005 C 375.00001999999995,238.00002000000006 374.64136999999994,238.82557000000006 374.24283999999994,239.34286000000006 C 373.59574999999995,240.18273000000005 372.69721999999996,240.50865000000005 372.24283999999994,241.32136000000006 C 371.8078699999999,242.09936000000005 371.71466999999996,243.11602000000005 371.2955099999999,243.75270000000006 L 370.7999999999999,244.48270000000005 L 370.2999999999999,245.29020000000006 L 369.6000199999999,245.92803000000006" fill="none" id="svg_5" stroke="#000" stroke-width="2"/>
	<path d="M 376.0,169.0 C 377.10718,166.57167 377.41623,166.08792 378.15866,165.02667 C 378.55832,164.45538 378.97861,163.87797 379.40817,163.30166 C 379.83331,162.73132 380.65655,161.65824 381.42665999999997,160.744 C 381.77218,160.33383 382.40977999999996,159.61845 382.97664999999995,159.03233 C 383.84691999999995,158.13249 384.34935999999993,157.65069 384.96797999999995,157.03199 C 385.54286999999994,156.45702 386.26701999999995,155.73339 386.78532999999993,155.17866 C 387.32328999999993,154.60287 388.0836999999999,153.7039 388.54731999999996,153.1 C 389.00498999999996,152.50381 389.4344,151.8852 390.16664,150.99999 C 390.67161,150.38953 391.22749,149.80198 391.77464,149.19998999999999 C 392.31816,148.60197 393.09324,147.71089999999998 393.54283,147.0955 C 394.21168,146.17992999999998 394.61418,145.52352 395.19980999999996,144.47866 C 395.60636999999997,143.75332 395.79749999999996,143.37869999999998 396.16398,142.62533 C 396.52270999999996,141.88786 397.11811,140.48483 397.37464,139.82532999999998 C 397.62742,139.17547 397.86875,138.50946 398.32163,137.47815999999997 C 398.65064,136.72892 399.03956000000005,135.93646999999999 399.46164000000005,135.08115999999998 C 399.68555000000003,134.62745999999999 400.42130000000003,133.15732999999997 400.68396000000007,132.63199999999998 C 400.9526400000001,132.09465999999998 401.4999700000001,130.99999999999997 401.77463000000006,130.45065999999997 C 402.04730000000006,129.90532999999996 402.83332000000007,128.33331999999996 403.07846000000006,127.84298999999997 C 403.54278000000005,126.91431999999998 403.76398000000006,126.47198999999998 404.18930000000006,125.62131999999997 C 404.59863000000007,124.80265999999997 405.19928000000004,123.59979999999997 405.3999600000001,123.20131999999997 C 405.7985500000001,122.40993999999996 406.1910700000001,121.63117999999997 406.5999700000001,120.88531999999996 C 407.1870700000001,119.81441999999997 407.5984700000001,119.15896999999997 407.9791200000001,118.52082999999996 C 408.34573000000006,117.90622999999997 408.98858000000007,116.70415999999996 409.2473100000001,116.09548999999996 C 409.6405600000001,115.17032999999995 409.8643800000001,114.50615999999995 410.3218000000001,113.47848999999995 C 410.6520900000001,112.73641999999995 411.0466500000001,111.96973999999994 411.51879000000014,111.19548999999995 C 411.76388000000014,110.79359999999996 412.63708000000014,109.59555999999995 412.96795000000014,109.20131999999995 C 413.63949000000014,108.40116999999995 414.00384000000014,108.02432999999995 414.69463000000013,107.25714999999995 C 415.67211000000015,106.17157999999995 415.9680700000001,105.83018999999996 416.48562000000015,105.15714999999996 C 416.96884000000017,104.52876999999995 417.59866000000017,103.60222999999996 418.1997900000002,102.70014999999997 C 418.59634000000017,102.10507999999996 418.9916900000002,101.52874999999996 419.51464000000016,100.68531999999996 C 420.12820000000016,99.69572999999995 420.52752000000015,99.06817999999996 420.8333000000002,98.16664999999996 C 421.1190700000002,97.32416999999997 421.57527000000016,96.53956999999996 421.9159400000002,95.79998999999997 C 422.3135500000002,94.93676999999997 422.7396700000002,94.20837999999996 423.0252800000002,93.36398999999997 C 423.30906000000016,92.52499999999998 423.3964300000002,91.58004999999997 424.29994000000016,91.11432999999997 C 425.10637000000014,90.69863999999997 426.15114000000017,90.82427999999997 426.9999500000002,91.16665999999996 C 427.7469000000002,91.46794999999996 428.53276000000017,92.12613999999996 429.2612700000002,92.38932999999996 C 430.0420300000002,92.67139999999996 431.0755100000002,92.90685999999995 431.76396000000017,92.96398999999995 C 432.59648000000016,93.03306999999995 433.6187600000002,92.86430999999995 434.5146300000002,93.08532999999996 C 435.3971700000002,93.30305999999996 435.9390700000002,94.09383999999996 435.9999500000002,95.02082999999996 C 436.0557400000002,95.87015999999996 436.0286100000002,96.60319999999996 435.9954600000002,97.60448999999996 C 435.9672000000002,98.45831999999996 435.7903500000002,99.42483999999996 435.56394000000023,100.24665999999996 C 435.3979900000002,100.84911999999996 434.9985400000002,102.16626999999997 434.79862000000026,102.88665999999996 C 434.58780000000024,103.64625999999997 434.37269000000026,104.44929999999997 434.1146000000003,105.28665999999997 C 433.8424700000003,106.16953999999997 433.51728000000026,107.08265999999998 433.3517800000003,107.54815999999997 C 433.0207900000003,108.47915999999996 432.6627500000003,109.37721999999997 432.3332900000003,110.66665999999996 C 432.14011000000033,111.42275999999997 432.0742900000003,112.13211999999996 431.9492900000003,112.77865999999996 C 431.7113400000003,114.00948999999996 431.4412300000003,114.60661999999996 430.9791100000003,115.52082999999996 C 430.6555300000003,116.16095999999996 430.14766000000026,117.15951999999996 429.8866100000003,117.88132999999996 C 429.6276400000003,118.59740999999997 429.3616200000003,119.63299999999997 429.1666100000003,120.49999999999996 L 429.0208000000003,121.45833999999996 L 428.9998000000003,122.32116999999997 L 428.96394000000026,123.13866999999996" fill="none" id="svg_6" stroke="#000" stroke-width="2"/>
	<path d="M 437.0,104.0 C 437.0,102.2 437.15491,101.47878 437.83334,100.83334 C 438.43710000000004,100.25895000000001 439.21985,100.08191000000001 439.97882000000004,99.77851000000001 C 440.70837000000006,99.48688000000001 441.53281000000004,98.87386000000001 442.26132000000007,98.61067000000001 C 443.04208000000006,98.32860000000001 444.0817200000001,98.14383000000001 444.9583400000001,98.00001000000002 C 445.83731000000006,97.85580000000002 446.5267600000001,97.25096000000002 447.39999000000006,97.03601000000002 C 448.2744400000001,96.82076000000002 449.1539900000001,97.35645000000002 449.79998000000006,97.71601000000003 C 450.5903200000001,98.15591000000002 451.49651000000006,98.55823000000002 452.0208400000001,99.04167000000002 C 452.6143200000001,99.58889000000002 453.39868000000007,100.39869000000003 453.97915000000006,100.97917000000002 C 454.5146700000001,101.51468000000003 455.2107500000001,102.28776000000002 455.88400000000007,102.79867000000003 C 456.61203000000006,103.35117000000002 457.66098000000005,103.67537000000003 457.9583400000001,104.50000000000003 C 458.2639700000001,105.34754000000002 458.0756800000001,106.30330000000002 457.99865000000005,107.20133000000003 C 457.91497000000004,108.17713000000003 457.5231600000001,108.81836000000003 457.2839900000001,109.60133000000003 C 456.9816800000001,110.59109000000004 456.99270000000007,111.28734000000003 456.66665000000006,112.33333000000003 C 456.46490000000006,112.98052000000003 456.13183000000004,113.65435000000004 455.85067000000004,114.38532000000004 C 455.29867,115.82047000000003 455.15520000000004,116.51110000000004 455.06133000000005,117.15333000000004 C 454.9323600000001,118.03570000000003 454.8128300000001,119.09053000000004 454.47915000000006,119.99999000000004 C 454.22451000000007,120.69402000000004 453.80340000000007,121.69036000000004 453.57867000000005,122.25732000000004 C 453.19595000000004,123.22296000000003 452.67099,124.33557000000003 452.45715000000007,124.74282000000004 C 451.99939000000006,125.61471000000003 451.7401100000001,126.06213000000004 451.2146600000001,126.98532000000004 C 450.94891000000007,127.45223000000004 450.1639700000001,128.83183000000005 449.9216600000001,129.27832000000004 C 449.4564800000001,130.13553000000005 449.03039000000007,130.95293000000004 448.66165000000007,131.73831000000004 C 448.15094000000005,132.82608000000005 447.89026000000007,133.51588000000004 447.6253300000001,134.15332000000004 C 447.25601000000006,135.04198000000002 446.68414000000007,136.08269000000004 446.34731000000005,136.55182000000005 C 445.83361,137.26734000000005 445.14730000000003,138.32506000000004 444.88399000000004,138.96932000000004 C 444.60451000000006,139.65319000000005 444.39339000000007,140.39220000000003 444.11598000000004,141.11733000000004 C 443.70573,142.18972000000005 443.34862000000004,142.85778000000005 442.95833000000005,143.52082000000004 C 442.54900000000004,144.21622000000005 441.83101000000005,145.33189000000004 441.31731,146.16666000000004 C 441.05059,146.60007000000004 440.51964000000004,147.47846000000004 440.26131000000004,147.91332000000003 C 439.76705000000004,148.74532000000002 439.14193000000006,149.83516000000003 438.66133,150.70266000000004 C 438.25105,151.44323000000003 437.84248,152.17243000000005 437.33833000000004,152.96166000000002 C 436.96504000000004,153.54601000000002 436.54506000000003,154.16642000000002 435.83333000000005,155.16666000000004 C 435.31951000000004,155.88878000000003 434.76454000000007,156.63640000000004 434.47914000000003,157.02082000000004 C 433.89665,157.80535000000003 432.99983000000003,158.99987000000004 432.70015,159.39982000000003 C 432.10414000000003,160.19525000000004 431.80858,160.58779000000004 431.23598,161.36399000000003 C 430.68331,162.11318000000003 429.91423,163.17342000000002 429.46166,163.84283000000002 C 429.0346,164.47447000000003 428.62987,165.07882 428.16665,166.00000000000003 C 427.72158,166.88504000000003 427.52203000000003,167.50974000000002 427.11599,168.39999000000003 C 426.70065,169.31067000000004 426.35445,169.91481000000002 425.75332000000003,170.83599000000004 C 425.32467,171.49288000000004 424.83474,172.16769000000005 424.31732000000005,172.88265000000004 C 423.78677000000005,173.61571000000004 423.25320000000005,174.33297000000005 422.76935000000003,175.03066000000004 C 422.13205000000005,175.94961000000004 421.68210000000005,176.74126000000004 421.25183000000004,177.39100000000005 C 420.70434000000006,178.21771000000004 420.17123000000004,178.80692000000005 419.59549000000004,179.39999000000006 C 418.80972,180.20939000000007 418.21268000000003,180.80334000000005 417.79999000000004,181.16400000000007 C 416.82886,182.01265000000006 416.16422000000006,182.31421000000006 415.48532000000006,182.88400000000007 C 414.83612000000005,183.42889000000008 414.4646900000001,184.19336000000007 413.70450000000005,184.89016000000007 C 413.06708000000003,185.47443000000007 412.53617,186.12901000000008 411.9473300000001,186.64733000000007 C 411.2967900000001,187.21999000000008 410.50000000000006,187.49999000000005 409.61066000000005,187.96400000000006 L 408.99866000000003,188.28399000000005 L 408.64734000000004,188.94732000000005" fill="none" id="svg_7" stroke="#000" stroke-width="2"/>
	<path d="M 255.0,271.0 C 254.0,272.0 254.0,272.79999 254.0,273.70001 C 254.0,274.6 254.0,275.47915 254.0,276.44284000000005 C 254.0,277.18533 254.0,278.11865000000006 254.0,278.867 C 254.0,280.05334 254.0,280.68667 254.0,281.35998 C 254.0,282.66665 253.99789,283.48117 254.0,284.33383000000003 C 254.00226,285.24734 254.16861,286.16589000000005 254.42534,286.836 C 254.71822,287.60047000000003 254.90891,288.60602 255.05267,289.40000000000003 C 255.23555000000002,290.40998 255.66053,291.17786 255.87849,292.20002000000005 C 256.04663,292.98859000000004 255.96814,294.00108000000006 256.01068,294.80000000000007 C 256.05339999999995,295.60237000000006 256.25795999999997,296.4116900000001 256.61066,297.20002000000005 C 257.06525,298.21610000000004 257.3624,298.81138000000004 257.79999,299.51469000000003 C 258.35395,300.40504000000004 258.98541,301.17601 259.41067999999996,301.82536000000005 C 259.86981999999995,302.52644000000004 260.5044,303.08946000000003 261.17465999999996,303.62535 C 262.00523,304.28944 262.45746999999994,305.03459000000004 262.88400999999993,305.51601000000005 C 263.58761999999996,306.31017 264.41238999999996,306.68987000000004 265.11599999999993,307.4840300000001 C 265.5425399999999,307.96544000000006 266.1244499999999,308.8923900000001 266.84667999999994,309.36403000000007 C 267.43163999999996,309.74602000000004 268.4202599999999,310.10289000000006 269.22533999999996,310.40001000000007 C 270.04625999999996,310.7029600000001 271.08865,311.07784000000004 271.75332,311.40001000000007 C 272.52615,311.77461000000005 273.22387,312.33144000000004 273.88399999999996,312.80000000000007 C 274.64101999999997,313.3373200000001 275.51111,313.7219400000001 276.33333999999996,314.0000100000001 C 277.29695999999996,314.3259100000001 278.00271,314.4908200000001 278.69467,314.7000200000001 C 279.96218999999996,315.0832300000001 280.49447,315.28059000000013 281.39099,315.7000200000001 C 282.20842999999996,316.0825000000001 282.99971999999997,316.5005300000001 283.59999999999997,316.8000000000001 C 284.59506,317.2964000000001 285.32437,317.70485000000014 286.25181999999995,317.9473400000001 C 286.95844999999997,318.1320900000001 288.01896999999997,318.3566700000001 288.56248999999997,318.5208600000001 C 289.48826999999994,318.8004900000001 290.51955,319.1059400000001 291.24816,319.29552000000007 C 291.97758999999996,319.4853100000001 293.02531999999997,319.74849000000006 293.95684,319.87853000000007 C 294.93319,320.01482000000004 295.83334,320.00002000000006 296.62533,320.00002000000006 C 297.65716000000003,320.00002000000006 298.40450000000004,320.00002000000006 299.39999,320.00002000000006 C 300.20001,320.00002000000006 301.20001,320.00002000000006 302.0,320.00002000000006 C 303.0,320.00002000000006 303.78934,320.00002000000006 304.51468,320.00002000000006 C 305.58933,320.00002000000006 306.5,319.99779000000007 307.39999,320.00002000000006 C 308.29998,320.00228000000004 309.03665,320.3261600000001 309.79998,320.71602000000007 C 310.55288,321.1005400000001 311.49999,321.00002000000006 312.39999,321.00002000000006 C 313.29998,321.00002000000006 314.20001,321.00002000000006 315.1,321.00002000000006 C 315.99999,321.00002000000006 316.79998,321.00002000000006 317.75717000000003,321.00002000000006 C 318.65268000000003,321.00002000000006 319.51599000000004,321.00002000000006 320.47915,321.00002000000006 C 321.3045,321.00002000000006 322.32131,321.00002000000006 322.99999,321.00002000000006 C 323.97866000000005,321.00002000000006 324.88399000000004,321.00002000000006 325.83599000000004,321.00002000000006 C 326.60131,321.00002000000006 327.6,321.00002000000006 328.39999000000006,321.00002000000006 C 329.39868000000007,321.00002000000006 330.16400000000004,321.00002000000006 331.11599000000007,321.00002000000006 C 331.88400000000007,321.00002000000006 332.8359900000001,321.00176000000005 333.60131000000007,321.00002000000006 C 334.59548000000007,320.9977600000001 335.5468400000001,320.98607000000004 336.36401000000006,320.57470000000006 C 337.13623000000007,320.18597000000005 337.89419000000004,319.9394500000001 338.82534000000004,319.57470000000006 C 339.52303000000006,319.30142000000006 340.51766000000003,319.05737000000005 341.32149000000004,318.77853000000005 C 342.04018,318.52923000000004 342.99300000000005,317.98550000000006 343.78932000000003,317.61068000000006 C 344.50859,317.27215000000007 345.40855000000005,317.12612000000007 346.20000000000005,316.71603000000005 C 347.06163000000004,316.26956000000007 347.84996000000007,315.98742000000004 348.49999,315.47918000000004 C 349.2676,314.87899000000004 349.79128000000003,314.26086000000004 350.63598,313.97469000000007 C 351.47607,313.6900800000001 352.20120000000003,313.42983000000004 353.11465000000004,312.80135000000007 C 353.82052000000004,312.3156900000001 354.66635,312.08400000000006 355.39999000000006,311.56401000000005 C 356.18725000000006,311.00603000000007 356.5993900000001,310.34447000000006 357.48400000000004,309.80135000000007 C 358.14983000000007,309.39254000000005 359.17406000000005,309.23897000000005 359.99999,308.8333600000001 C 360.66997000000003,308.5043500000001 361.29998,307.7000300000001 361.79998,307.2000300000001 C 362.49999,306.50002000000006 363.12139,305.69243000000006 363.79998,305.2853600000001 C 364.53594,304.84386000000006 365.39443,304.56554000000006 366.19866,304.0840400000001 C 366.94228000000004,303.63882000000007 367.48147,303.27438000000006 368.29549000000003,302.99554000000006 C 369.11031,302.71643000000006 369.67788,301.9328300000001 370.39998,302.4360300000001 C 371.19158000000004,302.9876700000001 371.59999000000005,303.60003000000006 372.29997000000003,304.3000100000001 C 372.99998000000005,305.0000200000001 373.52598,305.4742700000001 373.95183000000003,306.3045300000001 C 374.38210000000004,307.14343000000014 374.85427000000004,307.8320900000001 375.35182000000003,308.3473500000001 C 376.10411000000005,309.12634000000014 376.73237000000006,309.7286100000001 377.20000000000005,310.4853500000001 C 377.63542000000007,311.1900000000001 378.06688,312.2181100000001 378.39998,312.7786800000001 C 378.94743000000005,313.70001000000013 379.64281000000005,314.0481800000001 379.99999,314.8783500000001 L 379.99999,314.1986900000001" fill="none" id="svg_8" stroke="#000" stroke-width="2"/>
	<path d="M 387.0,303.0 C 384.88666,296.31201 384.36383,295.70071 384.08533,294.79999 C 383.81833,293.93649999999997 383.94077,292.90427 384.61066,292.42533 C 385.33048,291.91065 386.21549,291.73215 386.79999,291.19867999999997 C 387.51968999999997,290.54179 388.37284,290.20462999999995 389.20000999999996,289.71466999999996 C 389.88086,289.31137999999993 390.43154999999996,288.62631999999996 390.91732999999994,287.79999999999995 C 391.37429999999995,287.02268999999995 392.05434999999994,286.49799999999993 392.60265999999996,286.11466999999993 C 393.41982999999993,285.54337999999996 393.97995,284.9757199999999 394.59999999999997,284.48401999999993 C 395.56579,283.7181499999999 396.22682999999995,283.4987299999999 397.11465,282.7986899999999 C 397.74597,282.3008899999999 398.21272999999997,281.5215599999999 398.59999999999997,280.7893499999999 C 399.01372999999995,280.0071199999999 399.45333,279.2231599999999 399.71464999999995,278.4000099999999 C 400.02531999999997,277.4214299999999 399.99314999999996,276.5850999999999 400.22148999999996,275.7999999999999 C 400.46002,274.9798099999999 401.01448999999997,274.0069399999999 401.29549999999995,273.4000099999999 C 401.66191999999995,272.6085999999999 401.9476599999999,271.6023999999999 401.98931999999996,270.7999999999999 C 402.04116999999997,269.8009499999999 401.99999999999994,268.9583599999999 401.99999999999994,268.2293499999999 C 401.99999999999994,267.0320199999999 401.99999999999994,266.3493499999999 401.99999999999994,265.6506799999999 C 401.99999999999994,264.3333599999999 401.99999999999994,263.5143599999999 401.99999999999994,262.82132999999993 C 401.99999999999994,261.79984999999994 401.99999999999994,260.97916999999995 401.99999999999994,260.31467999999995 C 401.99999999999994,259.3133399999999 401.99999999999994,258.45835999999997 401.99999999999994,257.51334999999995 C 401.99999999999994,256.47867999999994 401.99999999999994,255.74733999999995 401.99999999999994,255.00000999999995 C 401.99999999999994,254.25267999999994 401.99999999999994,252.82167999999996 401.99999999999994,252.16167999999993 C 401.99999999999994,251.24668999999994 401.99999999999994,250.16667999999993 401.99999999999994,249.45267999999993 C 401.99999999999994,248.54734999999994 402.01198999999997,247.57810999999992 401.98931999999996,246.75333999999992 C 401.97281,246.15303999999992 401.84274,244.8317399999999 401.71599999999995,244.11600999999993 C 401.58440999999993,243.37288999999993 401.40810999999997,242.62842999999992 401.28398999999996,241.88401999999994 C 401.05162999999993,240.49035999999992 401.04479,239.83417999999995 400.94731999999993,238.90450999999993 C 400.85225999999994,237.99782999999994 400.64259999999996,237.10117999999994 400.42531999999994,236.20000999999993 C 400.28084999999993,235.60076999999993 400.06587999999994,234.40255999999994 400.02083999999996,233.52083999999994 C 399.99206,232.95767999999993 399.99999999999994,231.68534999999994 399.99999999999994,231.02083999999994 C 399.99999999999994,230.00000999999995 399.99999999999994,229.17867999999993 399.99999999999994,228.48567999999995 C 399.99999999999994,227.35733999999994 399.99999999999994,226.69467999999995 399.99999999999994,225.65066999999993 C 399.99999999999994,224.96800999999994 399.99999999999994,223.77200999999994 399.99999999999994,223.06249999999994 C 399.99999999999994,222.02132999999995 399.99999999999994,221.11599999999996 399.99999999999994,220.34282999999994 C 399.99999999999994,219.39865999999992 399.99944999999997,218.39998999999995 399.99999999999994,217.59999999999994 C 400.00066999999996,216.59865999999994 399.95736999999997,215.96928999999994 400.1666599999999,214.83331999999993 C 400.3132099999999,214.03795999999994 400.59786999999994,213.22064999999992 400.80132999999995,212.68399999999994 C 401.27077999999995,211.44568999999993 401.59786999999994,210.80960999999994 401.99999999999994,209.99998999999994 C 402.39788999999996,209.19892999999993 402.7999899999999,208.39999999999995 403.20000999999996,207.59999999999994 C 403.59999999999997,206.80000999999993 404.01451999999995,206.00699999999995 404.38933999999995,205.21065999999993 C 404.72786999999994,204.49140999999995 404.96755999999993,203.47183999999993 405.16664999999995,202.66666999999993 C 405.3985799999999,201.72860999999992 405.68721999999997,200.94139999999993 405.99998999999997,200.16666999999993 C 406.37922999999995,199.2273399999999 406.71184,198.61028999999994 407.19865999999996,197.59999999999994 C 407.48616999999996,197.00333999999992 407.83146999999997,195.99965999999995 407.97466,195.21065999999993 C 408.1642,194.16622999999993 408.62816,193.54767999999993 408.8785,192.67865999999992 C 409.11668999999995,191.8517899999999 408.82158,190.83189999999993 409.16664999999995,189.9999899999999 C 409.4919699999999,189.21562999999992 409.97914999999995,188.4999899999999 409.99998999999997,187.5999999999999 L 409.99998999999997,186.6999899999999" fill="none" id="svg_9" stroke="#000" stroke-width="2"/>
	<path d="M 272.0,240.0 C 269.36465,248.12784 268.7692,249.29398 269.35718,249.94733 C 269.96430000000004,250.62195 270.82401000000004,250.6577 271.70001,251.05267999999998 C 272.42294000000004,251.37864 273.19699,251.95729999999998 274.1,252.00000999999997 C 274.99899000000005,252.04253999999997 275.79998,252.00000999999997 276.70001,252.00000999999997 C 277.6,252.00000999999997 278.56958000000003,252.11145999999997 279.29999000000004,251.64284999999998 C 280.09992000000005,251.12964999999997 280.43009000000006,250.31973 281.00000000000006,249.52084 C 281.4750700000001,248.8549 281.9701800000001,248.29158999999999 281.99866000000003,247.48268 C 282.03324000000003,246.50062 282.21631,245.47168 281.94284000000005,244.70985 C 281.64203000000003,243.87185 280.99701000000005,243.26619 280.56399000000005,242.58935 C 280.05569,241.79482 279.78890000000007,241.01415 278.99999,240.33334 C 278.35811,239.77942 277.35888,239.61847 276.65267,239.35267 C 275.7701,239.0205 274.79998,239.00001 273.89998,239.00001 C 272.99999,239.00001 272.20000000000005,239.08534 271.43599,239.61068 L 271.036,240.4" fill="none" id="svg_10" stroke="#000" stroke-width="2"/>
	<path d="M 379.0,314.0 C 379.716,313.80267 379.99774,314.70001 380.0,315.60001 C 380.00223,316.5 380.0,317.4 380.0,318.29999 C 380.0,319.20000999999996 379.74374,320.22492 380.22134,320.87865999999997 C 380.73205,321.57773 381.0,322.20000999999996 381.0,323.09999999999997 C 381.0,323.99998999999997 380.94409,324.81859999999995 380.47916,325.52083999999996 C 379.93377999999996,326.34457 379.43811,326.97017999999997 379.12134,327.97866 C 378.88361,328.7355 378.67999,329.67253999999997 378.29549999999995,330.34731 C 377.84365999999994,331.14031 377.34761999999995,331.82454 376.94731999999993,332.7 C 376.5585899999999,333.55016 376.13679999999994,334.32427 375.9999899999999,334.99998999999997 C 375.8008899999999,335.98326999999995 375.2365899999999,336.64268999999996 374.6106499999999,337.39997999999997 C 374.0666099999999,338.05818 373.5729899999999,338.75404 373.0481499999999,339.36165 C 372.4658399999999,340.03578 372.1183999999999,340.80052 371.7053199999999,341.34731 C 371.0592899999999,342.20241 370.53228999999993,342.93178 369.9791499999999,343.52083 C 369.3815499999999,344.15720999999996 368.7898199999999,344.56307 367.88533999999987,345.19865999999996 C 367.28706999999986,345.61906999999997 366.23109999999986,345.93238999999994 366.0044799999999,346.70448999999996 C 365.7522499999999,347.56373999999994 366.0374399999999,348.53774 365.7786499999999,349.32131 C 365.4890099999999,350.19829 365.06218999999993,350.97274 365.0013399999999,351.88399 C 364.93862999999993,352.82322999999997 365.0122699999999,353.51604 364.9999999999999,354.58930999999995 C 364.98955999999987,355.50016999999997 364.5552699999999,356.25618 364.2839999999999,356.88532999999995 C 363.8950199999999,357.78752 364.0006699999999,358.6013 363.9999999999999,359.59547 C 363.9993899999999,360.51466 364.0504799999999,361.52076 363.7784999999999,362.32129999999995 C 363.53987999999987,363.02362999999997 362.9237299999999,363.99887999999993 362.4791499999999,364.49997999999994 C 361.7179199999999,365.35797999999994 361.1539199999999,365.81760999999995 360.6526699999999,366.40448999999995 C 359.9931899999999,367.17664999999994 359.54908999999986,368.01802 359.1159899999999,368.51465999999994 C 358.4158899999999,369.3174199999999 357.7549099999999,369.5788099999999 356.7999799999999,370.32147999999995 C 356.1760799999999,370.80670999999995 355.5988699999999,371.40335999999996 354.9999899999999,371.99997999999994 C 354.3988499999999,372.59885999999995 353.7999799999999,373.19998999999996 352.9999899999999,373.99997999999994 C 352.3999799999999,374.59998999999993 351.7999799999999,375.19998999999996 351.3999799999999,375.59998999999993 C 350.6012999999999,376.3986699999999 350.02082999999993,376.9791399999999 349.1666399999999,377.83332999999993 C 348.63596999999993,378.3639999999999 347.95877999999993,378.9634899999999 347.3999799999999,379.63596999999993 C 346.8574999999999,380.2887999999999 346.4821299999999,381.0581199999999 346.0293099999999,381.6866599999999 C 345.4851499999999,382.4419999999999 344.7532799999999,383.2184599999999 344.2506499999999,383.7386599999999 C 343.7717399999999,384.2342999999999 342.96814999999987,385.0268099999999 342.3089699999999,385.69098999999994 C 341.60794999999985,386.3973199999999 341.2524799999999,387.15308999999996 340.8333199999999,387.99997999999994 C 340.4892599999999,388.6951399999999 339.7615099999999,389.4643699999999 339.4359799999999,390.1746299999999 C 339.0763299999999,390.9592999999999 338.6069399999999,391.92898999999994 339.0852999999999,392.7146399999999 C 339.5748599999999,393.5186599999999 340.4138499999999,394.0270499999999 340.9746399999999,393.57465999999994 C 341.6035499999999,393.06730999999996 342.1957699999999,392.42792999999995 342.6999799999999,391.64814999999993 C 343.19582999999994,390.88129999999995 343.7276599999999,390.26548999999994 344.1999799999999,389.51597999999996 C 344.6254899999999,388.84074999999996 345.2212799999999,387.90016999999995 345.6999799999999,387.24733 C 346.22387999999995,386.53288 346.5360099999999,385.78180999999995 347.1001299999999,385.0215 C 347.5842899999999,384.36894 348.49682999999993,383.81737 349.2106299999999,383.364 C 350.0135199999999,382.85405 350.6049799999999,382.35749999999996 351.16396999999995,381.82532999999995 C 351.99285999999995,381.03617999999994 352.52721999999994,380.53421999999995 353.0999699999999,379.67866 C 353.5381999999999,379.02403 353.9646199999999,378.13766999999996 354.49995999999993,377.52081999999996 C 355.1585599999999,376.76194 355.7715999999999,376.36393 356.38929999999993,375.59997999999996 C 356.99152999999995,374.85519999999997 357.0337999999999,373.85986999999994 357.7044599999999,373.35714999999993 C 358.41743999999994,372.82269999999994 359.3458799999999,372.82845999999995 360.1746099999999,372.38931999999994 C 361.00605999999993,371.94873999999993 361.52314999999993,371.2388399999999 362.49995999999993,371.02081999999996 C 363.36799999999994,370.82708999999994 363.9896099999999,371.52063999999996 363.99995999999993,372.41065 C 364.0105499999999,373.32142 364.06312999999994,374.03708 363.83329999999995,374.99996999999996 C 363.63496999999995,375.83086999999995 363.27988999999997,376.4509 362.89994999999993,377.4213 C 362.58707999999996,378.2204 362.31895999999995,379.05487999999997 361.89994999999993,380.07865 C 361.61286999999993,380.78006999999997 361.27915999999993,381.44431 360.89994999999993,382.42163999999997 C 360.5824099999999,383.24005999999997 360.38551999999993,383.84236 359.99995999999993,385.16664 C 359.7921399999999,385.88041999999996 359.60423999999995,386.61582999999996 359.39994999999993,387.33864 C 359.2040599999999,388.03182 358.7879499999999,389.22579 358.52079999999995,389.97914 C 358.27284,390.67836 358.09763999999996,391.68422 357.99995999999993,392.47914 C 357.85371999999995,393.66932999999995 357.45823999999993,394.30875999999995 357.1666199999999,395.33333 C 356.9802199999999,395.98818 357.0052999999999,396.74928 356.99995999999993,397.85697999999996 C 356.99592999999993,398.69098999999994 356.9915699999999,399.84122999999994 357.80128999999994,399.99863999999997 C 358.6851699999999,400.17044999999996 359.40876999999995,399.57316 360.0999699999999,398.89997999999997 C 360.70784999999995,398.30794 361.4092999999999,397.60920999999996 361.99995999999993,396.99998999999997 C 362.57316999999995,396.40876999999995 362.9819499999999,395.58982999999995 362.99995999999993,394.67866999999995 C 363.01683999999995,393.82548999999995 362.93974999999995,392.87431999999995 363.08528999999993,392.03065999999995 C 363.2254299999999,391.21833999999996 363.52672999999993,390.48591999999996 363.7159699999999,389.68267 C 363.9492199999999,388.69259 363.9352999999999,387.78893 364.2216499999999,386.79983 C 364.4666099999999,385.95373 364.8747899999999,385.30752 365.3212899999999,384.57882 C 365.81240999999994,383.77728 366.3281899999999,382.9956 366.97829999999993,382.14300000000003 C 367.4448499999999,381.53115 367.8584599999999,380.78189000000003 368.1666199999999,379.83334 C 368.3852799999999,379.16031000000004 368.7552399999999,378.14242 369.0252899999999,377.41067000000004 C 369.3382499999999,376.56259000000006 369.93907999999993,375.90612000000004 369.99995999999993,374.99999 C 370.05357999999995,374.20180000000005 370.25798999999995,372.72326000000004 370.87846999999994,373.22149 C 371.5701199999999,373.77685 370.9712099999999,374.88607 371.0106399999999,375.85732 C 371.0375299999999,376.51992 371.2179799999999,377.64348 371.3526199999999,378.30983000000003 C 371.4964199999999,379.02156 371.7417199999999,380.11369 371.8786199999999,381.17833 C 371.9632499999999,381.83647 371.9542399999999,382.76500000000004 372.1666099999999,383.83333 C 372.30982999999986,384.55388 372.6977399999999,385.39882 373.10010999999986,386.20015 C 373.51392999999985,387.02431 373.87406999999985,387.69212 374.48395999999985,388.68398 C 374.8191699999999,389.22915 375.1933099999998,389.76323 375.83328999999986,390.83333000000005 C 376.25061999999986,391.53108000000003 376.68109999999984,392.32491000000005 376.9472699999999,393.24733000000003 C 377.2092899999999,394.15538000000004 377.3482699999999,395.68498000000005 377.9790999999999,395.43749 C 378.7592799999999,395.13140000000004 378.4976499999999,393.77999 378.8332899999999,392.99999 C 379.1393499999999,392.28872 378.9630499999999,391.33452 379.0571099999999,390.53832 C 379.17133999999993,389.57143 379.4430999999999,388.77926 379.6472899999999,387.95266 C 379.9007099999999,386.92674999999997 379.9827099999999,386.0209 379.9999499999999,384.99998999999997 C 380.0134699999999,384.20002999999997 380.0485999999999,383.38996999999995 380.2839499999999,382.59864999999996 C 380.5358999999999,381.75150999999994 380.8655799999999,380.83714 380.9427899999999,380.04731999999996 C 381.0228999999999,379.22792 380.9999499999999,378.16664 380.9999499999999,377.24665999999996 C 380.9999499999999,376.48664999999994 380.9999499999999,375.52083 380.9999499999999,374.59999 C 380.9999499999999,373.7 381.0076399999999,372.79863 380.9999499999999,371.83333 C 380.9946099999999,371.16393 380.9702899999999,370.38201 380.6472899999999,369.4045 C 380.39524999999986,368.64171 380.0439299999999,367.63106 379.4999499999999,366.99998999999997 C 378.9915899999999,366.41024 378.2954499999999,365.94732 377.4999499999999,365.49998999999997 C 376.7044499999999,365.05265999999995 376.2476299999999,364.52714999999995 375.9954599999999,363.70448999999996 C 375.7586399999999,362.93190999999996 375.0298499999999,362.29159 375.0012899999999,361.48265999999995 C 374.97104999999993,360.62584999999996 374.9999499999999,359.67866999999995 374.9999499999999,358.8253399999999 C 374.9999499999999,357.8853399999999 374.9999499999999,356.9999899999999 374.9999499999999,356.1146499999999 C 374.9999499999999,355.17464999999993 374.9999499999999,354.4839999999999 374.9999499999999,353.49999999999994 C 374.9999499999999,352.51598999999993 374.9999499999999,351.82534999999996 374.9999499999999,350.7571699999999 C 374.9999499999999,349.8999899999999 374.9999499999999,348.99999999999994 374.9999499999999,348.2000099999999 C 374.9999499999999,347.2999899999999 374.8335099999999,346.38051999999993 375.0207899999999,345.4999999999999 C 375.2021899999999,344.6470899999999 376.01782999999995,343.8437199999999 376.3999399999999,343.1639999999999 C 376.7149399999999,342.60363999999987 377.1999599999999,341.59999999999985 377.5999499999999,340.79998999999987 C 377.9999399999999,339.9999999999999 378.4000899999999,339.2001099999999 378.6999599999999,338.6000099999999 C 379.2002299999999,337.5988199999999 379.5244199999999,336.98953999999986 379.9999499999999,335.8333499999999 C 380.2109199999999,335.3203799999999 380.4873499999999,334.4952499999999 380.7999399999999,333.68399999999986 C 381.1870899999999,332.67920999999984 381.48847999999987,331.98044999999985 381.9706199999999,331.40134999999987 C 382.6939199999999,330.53260999999986 383.5137999999999,330.01657999999986 383.9946099999999,329.60001999999986 C 384.8834599999999,328.82990999999987 385.3947599999999,328.24775999999986 385.7119599999999,327.48532999999986 C 386.09858999999994,326.55597999999986 386.3997299999999,325.7177199999999 386.8012799999999,325.0293399999999 C 387.2507399999999,324.2587999999999 387.4560699999999,323.46402999999987 387.8852899999999,322.76801999999986 C 388.4092199999999,321.91843999999986 389.2517099999999,321.4644299999999 389.9784299999999,320.67850999999985 C 390.4149199999999,320.2064599999998 390.81277999999986,319.40564999999987 391.2954499999999,318.4045199999998 C 391.6533599999999,317.6621799999998 391.8288399999999,316.7418599999998 392.0000999999999,315.90018999999984 C 392.1723999999999,315.05341999999985 392.9720499999999,314.64414999999985 392.9999499999999,313.70002999999986 C 393.0265299999999,312.80039999999985 392.7578199999999,312.0462499999999 392.3526099999999,311.3000099999999 C 391.9393399999999,310.5388999999999 392.0235399999999,309.55552999999986 391.8292899999999,308.94401999999985 C 391.5040899999999,307.92033999999984 391.1426099999999,307.3114199999998 390.8146099999999,306.64002999999985 C 390.1743799999999,305.32953999999984 389.85104999999993,304.78644999999983 389.5415999999999,304.04166999999984 C 389.1168299999999,303.0192999999998 389.1890299999999,302.1667899999998 388.8332899999999,301.16666999999984 C 388.5864299999999,300.47269999999986 387.8012799999999,299.79999999999984 387.2852899999999,299.20002999999986 L 387.00443999999993,298.35719999999986" fill="none" id="svg_11" stroke="#000" stroke-width="2"/>
</svg>
