<?xml version="1.0" ?>
<svg baseProfile="full" height="480" version="1.1" width="640" xmlns="http://www.w3.org/2000/svg" xmlns:ev="http://www.w3.org/2001/xml-events" xmlns:xlink="http://www.w3.org/1999/xlink">
	<defs/>
	<path d="M 143.0,73.0 C 138.48666,73.0 137.84665999999999,73.0 136.96167,73.0 C 135.92133,73.0 135.0,73.0 134.31599,73.0 C 133.31466,73.0 132.47917,73.0 131.59866,73.0 C 130.40133,73.0 129.81067,73.0 128.95717,73.0 C 127.92133,73.0 126.99999999999999,73.0 126.31599999999999,73.0 C 125.31465999999999,73.0 124.47916,73.0 123.59866,73.0 C 122.39865999999999,73.0 121.78932999999999,73.0 120.84282999999999,73.0 C 119.83332999999999,73.0 119.11733,73.0 118.38533,73.0 C 117.30982999999999,73.0 116.33333999999999,73.0 115.50983,73.0 C 114.55183,73.0 113.57833,73.0 112.75332999999999,73.0 C 112.15333,73.0 110.83332999999999,73.0 110.11599,73.0 C 109.37465999999999,73.0 108.62532999999999,73.0 107.884,73.0 C 106.488,73.0 105.85733,73.0 104.772,73.0 C 103.80533000000001,73.0 103.03199000000001,73.0 101.99466000000001,73.0 C 101.25066000000001,73.0 100.33333,73.0 99.42133000000001,73.0 C 98.47916000000001,73.0 97.516,73.0 96.82533000000001,73.0 C 95.75716000000001,73.0 94.89982,72.99554 94.11467,73.0 C 93.17462,73.00533 92.11701000000001,73.08827 91.52084,73.52084 C 90.71918000000001,74.1025 90.25522000000001,74.68138 89.34734,74.95184 C 88.49408,75.20603 87.72028,75.69165000000001 87.3045,76.409 C 86.8591,77.17746000000001 86.61879,78.11721 85.83334,78.66667000000001 C 85.11372,79.17007000000001 84.22419000000001,79.43663000000001 83.98534000000001,80.18534000000001 C 83.69155,81.10628000000001 82.22463,81.13604000000001 82.37067,82.00001000000002 C 82.50934000000001,82.82038000000001 83.97581000000001,81.93383000000001 85.00534,81.64734000000001 C 85.75333,81.43919000000001 86.69462,81.26163000000001 87.47917000000001,80.97917000000001 C 88.36539,80.66011000000002 88.96004,79.94720000000001 89.516,79.56801000000002 C 90.42277,78.94956000000002 91.43074,79.06246000000002 92.32134,78.77867000000002 C 93.02036000000001,78.55593000000002 93.97154,78.06493000000002 94.69551000000001,78.00451000000002 C 95.63276000000002,77.92629000000002 96.48534000000001,78.00001000000003 97.40451000000002,78.00001000000003 C 98.40001000000002,78.00001000000003 99.20000000000002,78.00001000000003 100.20000000000002,78.00001000000003 C 101.00000000000001,78.00001000000003 102.00000000000001,78.00001000000003 102.81067000000002,78.00001000000003 C 103.45717000000002,78.00001000000003 104.42150000000001,78.00001000000003 105.23600000000002,78.00001000000003 C 106.10450000000002,78.00001000000003 107.29984000000002,78.00001000000003 107.89550000000001,78.00001000000003 C 108.76400000000001,78.00001000000003 109.83334,78.00001000000003 110.77467000000001,78.00001000000003 C 111.45267000000001,78.00001000000003 112.42151000000001,78.00001000000003 113.23600000000002,78.00001000000003 C 114.10450000000002,78.00001000000003 115.29967000000002,78.00001000000003 116.17867000000003,78.00001000000003 C 116.72800000000002,78.00001000000003 117.85734000000002,78.00001000000003 118.65067000000002,78.00001000000003 C 119.76800000000001,78.00001000000003 120.50000000000001,78.00001000000003 121.23201000000002,78.00001000000003 C 122.32801000000002,78.00001000000003 123.20267000000001,78.00001000000003 123.97067000000001,78.00001000000003 C 125.00534000000002,78.00001000000003 125.74934000000002,78.00001000000003 126.85718000000001,78.00001000000003 C 127.61468,78.00001000000003 128.48402000000002,77.99558000000003 129.34735,78.00001000000003 C 130.38539,78.00534000000003 131.33523,78.15998000000003 132.00535,78.35268000000003 C 132.75152,78.56725000000003 133.85253,78.91314000000004 134.57868,78.98935000000003 C 135.49644999999998,79.08566000000003 136.1256,79.63978000000003 136.672,80.14935000000003 C 137.44857,80.87356000000003 138.25731,80.90043000000003 138.99466,81.04818000000003 C 140.20430000000002,81.29057000000003 140.88266000000002,81.71602000000003 141.65266,81.94735000000003 L 142.516,82.08402000000002 L 143.47916999999998,82.50002000000002 L 144.19867,82.91602000000002" fill="none" id="svg_1" stroke="#000" stroke-width="2"/>
	<path d="M 84.0,84.0 C 90.69200000000001,83.08533 91.43735,83.01042 92.5,83.0 C 93.36696,82.9915 94.04166,83.0 94.75633,83.0 C 96.17866000000001,83.0 96.84733,83.0 97.5,83.0 C 98.484,83.0 99.52133,83.0 100.25267,83.0 C 101.0,83.0 102.116,82.99667 103.17882999999999,83.00017 C 103.85184,83.00238999999999 104.86264999999999,83.01979 105.56933,83.08534 C 106.74547,83.19442000000001 107.60543,83.35202 108.05066,83.42534 C 108.94954999999999,83.57336000000001 109.82956999999999,83.73545 111.05681999999999,83.87884000000001 C 111.77989999999998,83.96332000000001 112.78224999999999,83.93489000000001 113.83331999999999,84.33335000000001 C 114.58612999999998,84.61874000000002 115.20255999999999,85.19012000000001 115.68397999999999,85.43201 C 116.64702999999999,85.91589 117.52372,85.9569 118.40132,86.08268000000001 C 119.6034,86.25495000000001 120.19771,86.41064000000001 121.04281,86.70451000000001 C 122.09016,87.06872000000001 122.77025,87.43738000000002 123.50981,87.64284 C 124.62474,87.95259 125.30699,87.93661 125.99998000000001,88.02085000000001 C 127.03499000000001,88.14666000000001 127.98806,88.39008000000001 128.72798,88.86135000000002 C 129.4236,89.30440000000002 130.17207,90.02846000000001 130.81065,90.35335000000002 C 131.65367,90.78225000000002 132.68399000000002,90.91602000000002 133.49998000000002,91.00002000000002 C 134.31597000000002,91.08402000000002 135.33107,91.24937000000003 135.99998000000002,91.54168000000001 C 136.70196,91.84845000000001 137.68298000000001,92.48780000000001 138.23597,92.82535000000001 C 139.10088000000002,93.35330000000002 139.98885,93.85877000000002 140.89098,94.23835000000001 C 141.45183,94.47434000000001 142.22472000000002,94.73386 143.34931,94.97469000000001 C 144.32963,95.18463000000001 145.00585,95.367 145.78531,95.57469 C 146.82836,95.85261 147.56853,95.84877 148.39546,96.10985000000001 C 149.44714000000002,96.4419 149.89682000000002,97.12167000000001 150.8333,97.66668000000001 C 151.54016000000001,98.07806000000001 152.41063,98.01068000000001 153.32131,98.22151000000001 L 153.99998000000002,98.52085000000001 L 154.83331,99.00001 L 155.58932000000001,99.56401" fill="none" id="svg_2" stroke="#000" stroke-width="2"/>
	<path d="M 144.0,67.0 C 148.1375,65.6955 148.79202,65.23106 149.54266,64.67867 C 150.24263000000002,64.16355999999999 151.01699000000002,63.682109999999994 151.85716000000002,63.02117 C 152.35243000000003,62.63155 152.89525000000003,62.039989999999996 153.48399000000003,61.232 C 154.01141000000004,60.508179999999996 154.48599000000004,59.74456 155.11467000000005,58.97067 C 155.66980000000004,58.28731 156.30515000000005,57.696149999999996 156.88533000000004,57.11467 C 157.48334000000003,56.515339999999995 158.24623000000003,55.85151 158.66667000000004,55.0 C 159.04077000000004,54.24235 159.00107000000003,53.37381 159.35716000000005,52.4045 C 159.64134000000004,51.630939999999995 160.14660000000006,50.82751 160.75717000000006,50.3045 C 161.43027000000006,49.72793 162.25714000000005,49.400969999999994 162.83333000000005,48.666669999999996 C 163.31912000000005,48.047579999999996 163.50107000000006,47.205529999999996 164.10018000000005,46.14284 C 164.46894000000006,45.48873 165.16668000000004,44.83333 165.82534000000004,44.17467 C 166.34734000000003,43.65267 167.11468000000005,42.88534 167.58935000000005,42.410669999999996 C 168.30451000000005,41.69551 168.87803000000005,41.10724999999999 169.48400000000007,40.51734 C 170.16654000000005,39.85288 170.96352000000007,39.19786 171.66134000000005,38.985339999999994 C 172.52751000000006,38.72154999999999 173.26690000000005,38.579809999999995 174.05184000000006,38.29550999999999 C 175.08623000000006,37.920849999999994 175.74341000000007,37.55187999999999 176.59867000000006,37.28533999999999 C 177.58111000000005,36.97915999999999 178.45077000000006,36.98764999999999 179.40134000000006,36.43067999999999 C 180.06273000000007,36.04314999999999 180.65940000000006,35.43841999999999 181.42118000000005,35.02167999999999 C 182.19114000000005,34.60046999999999 182.97190000000006,34.28012999999999 184.03200000000004,34.08534999999999 C 184.79674000000003,33.94483999999999 185.77138000000005,34.01774999999999 186.54167000000004,33.97917999999999 C 187.40399000000005,33.93599999999999 188.30289000000005,33.79156999999999 189.18933000000004,33.574679999999994 C 190.04596000000004,33.365089999999995 191.07556000000005,33.093149999999994 191.76401000000004,33.03600999999999 C 192.59653000000003,32.96691999999999 193.60001000000005,33.00000999999999 194.40000000000003,33.00000999999999 C 195.40134000000003,33.00000999999999 196.23600000000005,33.00000999999999 197.16668000000004,33.00000999999999 C 197.94817000000003,33.00000999999999 198.99018000000004,33.00000999999999 199.85734000000005,33.00000999999999 C 200.80534000000006,33.00000999999999 201.76802000000006,33.00000999999999 202.50001000000006,33.00000999999999 C 203.23200000000006,33.00000999999999 204.34934000000007,33.00000999999999 205.33334000000005,33.00000999999999 C 206.00535000000005,33.00000999999999 206.99490000000006,32.98062999999999 207.85734000000005,33.000179999999986 C 208.65129000000005,33.01817999999999 209.76835000000005,33.28747999999999 210.52084000000005,33.50000999999999 C 211.05116000000004,33.64978999999999 212.31686000000005,33.90927999999999 213.00001000000006,34.00000999999999 C 214.16827000000006,34.15517999999999 214.94840000000005,34.35187999999999 215.47918000000007,34.50000999999999 C 216.66718000000006,34.83155999999999 217.38139000000007,34.90538999999999 218.33334000000008,35.333339999999986 C 219.04307000000009,35.65240999999999 219.5299200000001,36.04182999999998 220.4026800000001,36.51733999999998 C 221.2884200000001,36.999929999999985 222.18192000000008,37.376139999999985 222.7640200000001,37.553339999999984 C 223.8214800000001,37.87524999999999 224.7737200000001,37.91645999999999 225.59868000000012,38.084009999999985 C 226.6170200000001,38.29083999999998 227.23273000000012,38.599519999999984 228.00002000000012,39.166679999999985 C 228.83883000000012,39.78669999999998 229.20267000000013,40.207999999999984 230.00002000000012,41.00000999999998 C 230.60204000000013,41.59798999999998 231.1985100000001,42.20151999999998 232.00002000000012,43.00000999999998 C 232.59890000000013,43.59663999999998 232.9608700000001,44.02726999999998 234.00002000000012,44.83333999999998 C 234.57514000000012,45.279449999999976 235.27097000000012,45.57339999999998 235.97852000000012,46.54283999999998 C 236.29488000000012,46.97628999999998 236.57267000000013,47.792029999999976 237.00002000000012,48.83333999999998 C 237.2931600000001,49.54760999999998 237.72271000000012,50.42082999999998 238.3213500000001,51.20000999999998 C 238.7987500000001,51.82137999999998 239.39177000000012,52.36687999999998 239.97852000000012,53.20000999999998 C 240.5219300000001,53.97160999999998 240.78054000000012,54.609389999999976 241.3045200000001,55.600009999999976 C 241.62503000000012,56.20594999999997 242.1558700000001,57.00903999999998 242.8253500000001,57.80000999999998 C 243.3391400000001,58.40704999999998 244.0007800000001,59.18626999999998 244.3640200000001,59.80000999999998 C 244.8277300000001,60.58352999999998 245.2540500000001,61.37923999999998 245.56402000000008,62.23600999999998 C 245.8936300000001,63.14706999999998 245.8939300000001,63.95838999999998 246.0613600000001,64.73867999999997 C 246.2642600000001,65.68417999999997 246.91825000000009,66.29407999999998 247.51735000000008,66.96800999999998 C 248.18158000000008,67.71518999999998 248.48929000000007,68.53276999999999 248.6383500000001,69.10900999999998 C 248.9425500000001,70.28493999999998 248.97767000000007,71.17824999999998 248.99551000000008,71.98566999999998 C 249.01477000000008,72.85713999999999 249.0000100000001,73.80533999999999 249.0000100000001,74.76933999999999 C 249.0000100000001,75.52083999999998 249.0000100000001,76.31733999999999 249.0000100000001,77.31466999999998 C 249.0000100000001,78.18932999999998 249.0000100000001,79.19983999999998 249.0000100000001,79.97916999999998 C 249.0000100000001,80.97866999999998 249.0000100000001,81.75267999999998 249.0000100000001,82.65716999999998 L 249.0000100000001,83.40450999999997" fill="none" id="svg_3" stroke="#000" stroke-width="2"/>
	<path d="M 203.0,69.0 C 189.82249,74.71384 189.18666,74.95601 188.53999,75.64533 C 187.97374,76.24893 187.83543,77.3931 188.5,78.0 C 188.97214,78.43116 189.78212,78.62465 190.83333,78.83334 C 191.7655,79.01840000000001 192.45266999999998,78.99775000000001 193.68534,79.0 C 194.236,79.00101 195.10451,79.0 196.29967,79.0 C 197.17866999999998,79.0 197.98567,79.0 198.85733,79.0 C 199.80533,79.0 200.76801,79.0 201.5,79.0 C 202.23199,79.0 203.42552,79.1993 204.2,78.712 C 204.81722,78.32364 205.19503999999998,77.22796000000001 205.52083,76.47917000000001 C 205.75269999999998,75.94621000000001 206.31385999999998,74.91618000000001 206.81466999999998,74.23601000000001 C 207.28337,73.59945 207.89504999999997,72.60952 207.97866999999997,71.80001000000001 C 208.08144999999996,70.80508000000002 207.99999999999997,70.00001000000002 207.99999999999997,69.00001000000002 C 207.99999999999997,68.21068000000001 207.99999999999997,67.48535000000001 207.99999999999997,66.52085000000002 C 207.99999999999997,65.58935000000002 208.21430999999998,64.63042000000003 207.92798999999997,63.86135000000002 C 207.63077999999996,63.06301000000002 206.59099999999998,63.00902000000002 205.60132999999996,63.00002000000002 L 204.83598999999995,63.00002000000002 L 203.88398999999995,63.00002000000002" fill="none" id="svg_4" stroke="#000" stroke-width="2"/>
	<path d="M 203.0,65.0 C 196.23466,67.05067 196.80989,67.74416 197.10533,68.35184 C 197.57829,69.32463 198.42097,69.744 198.757,70.54283 C 199.04338,71.22362 198.99549000000002,72.05180999999999 199.0,73.31466999999999 C 199.00237,73.97916 199.0,74.99999999999999 199.0,75.80000999999999 C 199.0,76.60000999999998 199.00107,77.60000999999998 199.0,78.40000999999998 C 198.99866,79.39866999999998 198.92799,80.16400999999998 198.43066,81.11333999999998 L 197.81465999999998,81.55333999999998 L 196.88531999999998,81.91466999999997" fill="none" id="svg_5" stroke="#000" stroke-width="2"/>
	<path d="M 206.0,66.0 C 200.856,63.256 200.06387,63.03127 199.0,63.0 C 198.20035,62.9765 197.39999,63.0 196.39999,63.0 C 195.6,63.0 194.57887,62.87534 193.83599,63.072 C 192.97085,63.301030000000004 192.57873,64.06098 191.89982,64.9785 C 191.51086,65.50417 190.63708,66.04108 190.02082000000001,66.52083999999999 C 189.27651,67.10028 189.02546,68.0632 188.91732000000002,68.77201 C 188.78437000000002,69.6434 188.57343000000003,70.63973999999999 188.42533000000003,71.31334 C 188.16451000000004,72.49954 188.01458000000002,73.31281 187.99999000000003,74.33333999999999 C 187.99039000000002,75.00528 187.83742000000004,75.80166 188.22165000000004,76.85700999999999 C 188.50816000000003,77.64398999999999 189.32149000000004,78.09983999999999 190.02081000000004,78.47916999999998 L 190.99998000000005,78.83333999999998 L 191.81065000000004,78.96399999999998 L 192.68531000000004,78.99866999999999" fill="none" id="svg_6" stroke="#000" stroke-width="2"/>
	<path d="M 252.0,75.0 C 250.74001,79.51334 250.89558,80.17258 251.36084,81.03833 C 251.79863,81.85296 252.25223,82.53791 252.6955,83.3955 C 253.109,84.1955 253.49262000000002,85.01807 253.88533,85.6 C 254.44382000000002,86.42759 255.12685000000002,86.91315999999999 255.66667,88.0 C 256.03653,88.74467 255.57438000000002,89.62208 256.03601000000003,90.55334 C 256.36627000000004,91.21962 257.41782,91.43925 258.16666000000004,92.16667000000001 C 258.65741,92.64336000000002 259.08954000000006,93.27244000000002 260.11466,93.83067000000001 C 260.94629000000003,94.28355 261.54743,94.55663000000001 262.33335,95.33334 C 262.7699,95.76477000000001 263.49592,96.48500000000001 263.93751,96.99467000000001 C 264.66407,97.83324000000002 264.98274,98.72811000000002 265.44667,99.42134000000001 C 265.83812,100.00626000000001 266.48402,100.76800000000001 267.00001,101.50001000000002 C 267.51599999999996,102.23201000000002 268.21574,102.97502000000001 268.55334999999997,103.68668000000002 C 269.03576999999996,104.70359000000002 268.94291,105.36287000000003 269.02532999999994,106.36001000000002 C 269.08101999999997,107.03359000000002 269.28399999999993,108.22934000000002 269.49999999999994,108.95835000000001 L 269.71599999999995,109.59735" fill="none" id="svg_7" stroke="#000" stroke-width="2"/>
	<path d="M 152.0,112.0 C 152.0,116.516 152.0,117.17467 152.0,118.15266 C 152.0,119.16666 152.0,119.884 152.0,120.62532999999999 C 152.0,121.74731999999999 152.0,122.83332999999999 152.0,123.51598999999999 C 152.0,124.49998999999998 152.0,125.15265999999998 152.0,126.16666 C 152.0,127.24816 152.00005,127.97916 152.0,128.69017 C 151.99991,129.95734 152.02025,130.75186 151.94284,131.50534 C 151.82538,132.64876999999998 151.64364999999998,133.31359999999998 151.5,134.04166999999998 C 151.34877,134.80823999999998 151.15874,135.99919999999997 151.08267,136.79999999999998 C 151.00674,137.59929 150.97442,138.40563999999998 150.83067,139.19998999999999 C 150.61142999999998,140.41136999999998 150.29213,141.20809 150.0,142.04165999999998 C 149.84935,142.47152999999997 149.50873,143.35880999999998 149.243,144.84248999999997 C 149.14972,145.36332999999996 149.06517,146.43965999999998 149.04167999999999,146.97915999999998 C 148.9956,148.03698999999997 149.00134999999997,148.54664999999997 149.00000999999997,149.93598999999998 C 148.99922999999998,150.74199 149.00000999999997,151.49998999999997 149.00000999999997,152.25797999999998 C 149.00000999999997,153.49997999999997 149.00000999999997,154.45465 149.00000999999997,154.96697999999998 C 149.00000999999997,156.04165999999998 149.00000999999997,156.59597999999997 149.00000999999997,157.71865999999997 C 149.00000999999997,158.83330999999998 148.99751999999998,159.91474999999997 149.00900999999996,160.44282999999996 C 149.03155999999996,161.47943999999995 149.03996999999995,161.99296999999996 149.17067999999995,162.99865999999994 C 149.30141999999995,164.00465999999994 149.56297999999995,165.00489999999994 149.71434999999994,165.50898999999995 C 150.02591999999993,166.54652999999996 150.22395999999995,167.07108999999994 150.60266999999993,168.17065999999994 C 151.00278999999992,169.33236999999994 151.20155999999994,169.94253999999995 151.40134999999992,170.57064999999994 C 151.60593999999992,171.21386999999996 152.01928999999993,172.54214999999994 152.23600999999994,173.22131999999993 C 152.45560999999995,173.90948999999995 152.67312999999993,174.60691999999995 153.16668999999993,175.99998999999994 C 153.41552999999993,176.70236999999995 153.68288999999993,177.40281999999993 153.96168999999992,178.10449999999994 C 154.24287999999993,178.81218999999996 154.5385799999999,179.52214999999995 154.8466799999999,180.23597999999996 C 155.1585399999999,180.95850999999996 155.4800299999999,181.68838999999994 156.1666899999999,183.16665999999995 C 156.5181199999999,183.92323999999996 156.8844599999999,184.68707999999995 157.2571899999999,185.46165999999994 C 157.6351299999999,186.24708999999993 158.0211799999999,187.04148999999992 158.4106799999999,187.84664999999993 C 158.8048599999999,188.66147999999993 159.2064299999999,189.48424999999992 160.0000199999999,191.16665999999992 C 160.4025899999999,192.02010999999993 160.8007699999999,192.88363999999993 161.20001999999988,193.75265999999993 C 161.60077999999987,194.62496999999993 161.99963999999989,195.50016999999994 162.40001999999987,196.37464999999995 C 162.79964999999987,197.24749999999995 163.19479999999987,198.11841999999996 164.00002999999987,199.83330999999995 C 164.39744999999988,200.67969999999997 164.79863999999986,201.51531999999995 165.20002999999986,202.34281999999996 C 165.59866999999986,203.16465999999997 165.99921999999987,203.97954999999996 166.40002999999984,204.78931999999995 C 166.79924999999986,205.59587999999994 167.19963999999985,206.39884999999995 168.00003999999984,207.99997999999994 C 168.39999999999984,208.80006999999995 168.80017999999984,209.60057999999992 169.20453999999984,210.39996999999994 C 169.60951999999983,211.20057999999995 170.01851999999982,212.00119999999993 170.43604999999985,212.79997999999995 C 170.85485999999986,213.60121999999996 171.27434999999986,214.40609999999995 172.16671999999986,215.99997999999994 C 172.61617999999984,216.80277999999993 173.08170999999984,217.60033999999993 173.56170999999986,218.39098999999993 C 174.04173999999986,219.18169999999992 174.53545999999986,219.96245999999994 175.04670999999988,220.72797999999995 C 175.55550999999988,221.48983999999996 176.06368999999987,222.24691999999993 177.16671999999988,223.66664999999995 C 177.7101799999999,224.36615999999995 178.2808999999999,225.03467999999995 178.8527099999999,225.69464999999994 C 179.42226999999988,226.35202999999993 180.00158999999988,226.99861999999993 180.5747099999999,227.65063999999995 C 181.1489399999999,228.30394999999996 181.7369099999999,228.95115999999996 182.8333799999999,230.33329999999995 C 183.38958999999988,231.03443999999996 183.92028999999988,231.76720999999995 184.4518799999999,232.50979999999996 C 184.9883499999999,233.25919999999996 185.5186999999999,234.02233999999996 186.0613899999999,234.78530999999995 C 186.6076999999999,235.55335999999994 187.1460799999999,236.33547999999996 188.3333799999999,237.83329999999995 C 188.9316199999999,238.58797999999996 189.5663699999999,239.32104999999996 190.2188799999999,240.04729999999995 C 190.8770099999999,240.77980999999994 191.5594599999999,241.50295999999994 192.2573899999999,242.22528999999994 C 192.9630899999999,242.95566999999994 193.6868899999999,243.68512999999996 195.1667199999999,245.16663999999994 C 195.9212799999999,245.92205999999993 196.6865999999999,246.68676999999994 197.4662199999999,247.45713999999995 C 198.25591999999992,248.23745999999994 199.05973999999992,249.02372999999994 199.88270999999992,249.81063999999995 C 200.7160399999999,250.60744999999994 201.55963999999992,251.41509999999994 203.33337999999992,252.99996999999996 C 204.23643999999993,253.80686999999998 205.16565999999992,254.60146999999995 206.1053799999999,255.39545999999996 C 207.0483099999999,256.19213999999994 207.99937999999992,256.97991999999994 208.9493899999999,257.76397999999995 C 209.8940599999999,258.54360999999994 210.8360299999999,259.3098499999999 212.6667199999999,260.83331999999996 C 213.5591499999999,261.57599999999996 214.43052999999992,262.31350999999995 215.29020999999992,263.03830999999997 C 216.13853999999992,263.75352 216.97717999999992,264.46079999999995 217.8147199999999,265.15329999999994 C 218.6461899999999,265.84079999999994 219.4706799999999,266.52881999999994 221.16672999999992,267.83331999999996 C 222.0161099999999,268.48661 222.88646999999992,269.12140999999997 223.77071999999993,269.75181 C 224.66512999999992,270.38946999999996 225.58176999999992,271.02317 226.51871999999992,271.66132999999996 C 227.47441999999992,272.31224 228.45679999999993,272.9702 230.5000599999999,274.33333 C 231.5642499999999,275.04329 232.6554099999999,275.77034 233.7715599999999,276.50981 C 234.9073899999999,277.26231 236.0612299999999,278.02287 237.2320499999999,278.78532 C 238.4122099999999,279.55384000000004 239.59759999999991,280.32756 242.0000599999999,281.83332 C 243.1968699999999,282.58344 244.39783999999992,283.31699000000003 245.6000699999999,284.03831 C 246.7978699999999,284.75697 247.9978999999999,285.46208 249.2000599999999,286.1533 C 250.39791999999989,286.84205000000003 251.5937499999999,287.52488 254.0000599999999,288.83332 C 255.19744999999992,289.48441 256.4022799999999,290.11939 257.6135499999999,290.74732 C 258.83028999999993,291.37809 260.06114999999994,292.00275 261.30806999999993,292.62531 C 262.57014999999996,293.25544 263.85338999999993,293.8895 266.5000599999999,295.16663 C 267.8630099999999,295.82431 269.2544199999999,296.48593999999997 270.6670499999999,297.15713999999997 C 272.0970699999999,297.83660999999995 273.5419599999999,298.52032999999994 274.9960599999999,299.21063999999996 C 276.4566299999999,299.90399999999994 277.9211999999999,300.59617 280.83339999999987,301.99997999999994 C 282.27992999999987,302.6972799999999 283.7158499999999,303.39905999999996 285.1473999999999,304.0954699999999 C 286.5745199999999,304.7897099999999 287.9986899999999,305.4819799999999 289.4253799999999,306.1639799999999 C 290.8513699999999,306.8456499999999 292.2763599999999,307.53162999999995 295.1667099999999,308.8333199999999 C 296.6185799999999,309.4871899999999 298.0897099999999,310.1215599999999 299.5797299999999,310.7473199999999 C 301.0869899999999,311.38031999999987 302.6230999999999,312.0048899999999 304.19071999999994,312.6253099999999 C 305.78840999999994,313.2576299999999 307.42393999999996,313.8949299999999 310.83338999999995,315.1666299999999 C 312.60477999999995,315.8273399999999 314.42164999999994,316.48593999999986 316.26786999999996,317.1616299999999 C 318.13764999999995,317.8459299999999 320.02277999999995,318.5365999999999 321.90937999999994,319.2466499999999 C 323.7957599999999,319.9566099999999 325.6782099999999,320.6553099999999 329.33338999999995,322.1666299999999 C 331.12044,322.9055199999999 332.86008999999996,323.6768499999999 334.57136999999994,324.43914999999987 C 336.2574399999999,325.1902199999999 337.91429999999997,325.9428999999999 339.55738999999994,326.6666299999999 C 341.17969999999997,327.3811699999999 342.7761699999999,328.10766999999987 346.00004999999993,329.3333199999999 C 347.59092999999996,329.9381499999999 349.1948699999999,330.4703999999999 350.79103999999995,330.9848099999999 C 352.37624999999997,331.4956699999999 353.95921999999996,331.9765099999999 355.52806999999996,332.46530999999993 C 357.08653999999996,332.9508799999999 358.64491999999996,333.4066899999999 361.66670999999997,334.49997999999994 C 363.16475999999994,335.04196999999994 364.62929999999994,335.64313999999996 366.07671,336.24896999999993 C 367.50927,336.8485799999999 368.91497,337.46237999999994 370.30672,338.0519799999999 C 371.67503999999997,338.6316299999999 373.00771,339.2296499999999 375.66670999999997,340.1666299999999 C 376.94822999999997,340.6181999999999 378.22490999999997,340.98748999999987 379.48121999999995,341.3231499999999 C 380.71443999999997,341.6526199999999 381.93702999999994,341.9397299999999 383.14271999999994,342.2186299999999 C 384.3333599999999,342.4940499999999 385.51890999999995,342.7366999999999 387.83338999999995,343.3333199999999 C 388.98160999999993,343.6293099999999 390.11295999999993,343.9619799999999 391.22938999999997,344.3098199999999 C 392.33433999999994,344.6540899999999 393.41819999999996,345.01648999999986 394.48136999999997,345.38531999999987 C 395.52552999999995,345.74755999999985 396.54375,346.1145099999999 398.50005,346.83331999999984 C 399.43572,347.17712999999986 400.34191,347.51324999999986 401.21956,347.8428099999999 C 402.07124,348.1625999999999 402.89681,348.47677999999985 403.69606,348.7893099999999 C 404.4731,349.0931699999999 405.22965999999997,349.3885199999999 406.6667,349.9999699999999 C 407.35913999999997,350.2945899999999 408.02885,350.5971699999999 408.68571,350.8864799999999 C 409.32752999999997,351.1691299999999 409.95838,351.4374699999999 410.57872,351.6919599999999 L 411.19106,351.9284699999999 L 411.79738,352.1439899999999" fill="none" id="svg_8" stroke="#000" stroke-width="2"/>
	<path d="M 261.0,88.0 C 265.40033,91.30033 266.20975,91.90804 266.62134,92.22134 C 267.47351,92.87001 267.91605,93.21215 268.37066999999996,93.57066999999999 C 269.84875999999997,94.73628 270.37341999999995,95.17161999999999 270.91882999999996,95.62334 C 271.48413999999997,96.09156 272.06442999999996,96.58109999999999 272.65736,97.09333 C 273.26817,97.62102999999999 273.89561,98.16502 275.16667,99.33333999999999 C 275.82548,99.93888999999999 276.48787,100.56939 277.15718,101.21883999999999 C 277.83860999999996,101.88002999999999 278.52333,102.56006999999998 279.21067999999997,103.25733999999999 C 279.90702999999996,103.96371999999998 280.60859999999997,104.68117999999998 282.00001999999995,106.16666999999998 C 282.70338999999996,106.91756999999998 283.39851999999996,107.68028999999999 284.09101999999996,108.44366999999998 C 284.77982999999995,109.20295999999999 285.45817999999997,109.95849999999999 286.12800999999996,110.70266999999998 C 286.78551,111.43315999999999 287.42366,112.15054999999998 288.66668,113.49999999999999 C 289.25417,114.13780999999999 289.82644,114.74417999999999 290.38119,115.32399999999998 C 290.91583,115.88279999999999 291.43655,116.41760999999998 291.94268,116.93199999999999 C 292.43291,117.43024999999999 292.91167,117.91098999999998 293.83337,118.83333999999999 C 294.27838,119.27866999999999 294.71469,119.71467 295.14285,120.14282999999999 C 295.56402,120.564 295.97918,120.97916 296.38937,121.38933999999999 C 296.79553,121.79549999999999 297.1987,122.19868 298.00003,122.99999999999999 C 298.39986999999996,123.39982999999998 298.79870999999997,123.79866999999999 299.19552999999996,124.19549999999998 C 299.58935999999994,124.58932999999998 300.36404999999996,125.36399999999998 300.74285999999995,125.74282999999998 C 301.83333999999996,126.83334999999998 302.18145999999996,127.17477999999998 302.82937999999996,127.83382999999998 C 303.41982999999993,128.43442999999996 303.92404999999997,128.98117 304.74402,130.02933 L 304.98654,130.69099999999997" fill="none" id="svg_9" stroke="#000" stroke-width="2"/>
	<path d="M 298.0,127.0 C 302.62183,134.257 303.08081,134.83559 303.56616,135.38567 C 304.05026000000004,135.93433000000002 304.55658,136.46431 305.08267,136.97867 C 305.61294,137.4971 306.15964,138.01181 307.33334,139.0 C 307.93673,139.50803 308.57016000000004,140.00464 309.21432000000004,140.5135 C 309.87149000000005,141.03265 310.54443000000003,141.55904999999998 311.22134000000005,142.108 C 311.91186000000005,142.66798 312.6227400000001,143.23381 314.00000000000006,144.5 C 314.71036000000004,145.15306 315.4039000000001,145.84959 316.09549000000004,146.567 C 316.79465000000005,147.29225 317.48230000000007,148.03883000000002 318.16400000000004,148.79600000000002 C 318.84598000000005,149.55349 319.51663,150.31697000000003 320.83334,151.83332000000001 C 321.4801,152.57816000000003 322.11908,153.31947000000002 322.76083,154.05633 C 323.40576,154.79681 324.06042,155.5435 324.73333,156.29733000000002 C 325.42205,157.06888 326.13140000000004,157.86267 327.66665,159.50000000000003 C 328.48077,160.36827000000002 329.33486,161.25308000000004 330.21066,162.15800000000002 C 331.10019,163.0771 332.00058,163.99945000000002 332.89868,164.92399 C 333.78988000000004,165.84144 334.67264,166.7398 336.33334,168.49999 C 337.11862,169.3323 337.86572,170.14658 338.58484000000004,170.94648999999998 C 339.29099,171.73197 339.98154000000005,172.51873999999998 340.66535000000005,173.31197999999998 C 341.3559,174.11306999999996 342.05381000000006,174.93469 343.50001000000003,176.66665999999998 C 344.26637000000005,177.58442999999997 345.05644,178.54073999999997 345.87602000000004,179.52415999999997 C 346.71773,180.53411999999997 347.58061000000004,181.56481999999997 348.468,182.60665999999998 C 349.3679,183.66319 350.27482000000003,184.73298999999997 352.16667,186.83330999999998 C 353.11461,187.88571 354.08583,188.92203999999998 355.06618000000003,189.96080999999998 C 356.05516000000006,191.00874 357.06331000000006,192.06172999999998 358.08269,193.13331 C 359.11965000000004,194.22338 360.18395000000004,195.32896 362.33336,197.66665 C 363.44942000000003,198.88046 364.57491000000005,200.14007 365.71886,201.43314 C 366.88564,202.75202000000002 368.06395000000003,204.10289 369.25734,205.47864 C 370.46764,206.87387 371.68776,208.29083 374.16667,211.16664 C 375.42122,212.62207 376.68678,214.08693 377.95268,215.57063 C 379.22816,217.06556 380.50595999999996,218.57837 381.77467,220.11863 C 383.05336,221.67101 384.34468000000004,223.23526999999999 386.83336,226.49996 C 388.09328000000005,228.15276 389.31947,229.84814 390.54735000000005,231.55345999999997 C 391.77812000000006,233.26280999999997 392.99651000000006,234.98164999999997 394.22536,236.68796999999998 C 395.44921000000005,238.38730999999999 396.64885000000004,240.08962999999997 399.16667,243.33328999999998 C 400.40419,244.92758999999998 401.67662,246.46615999999997 402.95268,247.97579 C 404.21806,249.47279999999998 405.49809,250.93913999999998 406.77467,252.39328999999998 C 408.04542000000004,253.84081999999998 409.32957,255.26819999999998 411.83336,258.16661999999997 C 413.0855,259.61611 414.32112,261.08507999999995 415.54735000000005,262.57063999999997 C 416.7798,264.06374 418.00475000000006,265.57955 419.22536,267.11861 C 420.45748000000003,268.67217 421.69588000000005,270.24825 424.16667,273.49996 C 425.42793,275.15984 426.68886000000003,276.85531 427.96617000000003,278.57146 C 429.25819,280.30733 430.56026,282.06414 431.88267,283.83196 C 433.21659,285.61516 434.55482,287.4172 437.33335,290.99996 C 438.73438,292.80651 440.16569,294.60262 441.61433,296.39547 C 443.06703,298.19331999999997 444.53782,299.98232 446.02134,301.76397 C 447.50517,303.54600999999997 448.99485,305.32127999999994 452.00001000000003,308.83331 C 453.49613000000005,310.58178 454.99827000000005,312.31615999999997 456.50001000000003,314.04281 C 457.99827000000005,315.76547 459.499,317.47999999999996 461.00001000000003,319.18928999999997 C 462.49903,320.89635 463.99961,322.59898999999996 467.00001000000003,325.99996 C 468.49995,327.70016 470.00050000000005,329.40072 471.5045,331.09997 C 473.00984,332.80071 474.51918,334.50146 476.03602,336.19998 C 477.55549,337.90146 479.07762,339.60699 482.16667,342.99996999999996 C 483.7173,344.70318999999995 485.28090000000003,346.39892999999995 486.84819,348.09096999999997 C 488.41292,349.78024 489.97832,351.4591 491.53868,353.12796 C 493.08934,354.78643999999997 494.6313,356.42870999999997 497.66667,359.66663 C 499.15666,361.25605 500.62446,362.82355 502.06767,364.36765 C 503.48579,365.88489000000004 504.87562,367.37439 506.23469,368.83463 C 507.56294,370.26175 508.85847,371.65369 511.33335,374.33332 C 512.51465,375.61237 513.65552,376.85386 514.75782,378.05781 C 515.82484,379.22322 516.85505,380.35337000000004 517.8493100000001,381.44932 C 518.8113500000001,382.50971 519.7412800000001,383.5363 521.5000100000001,385.49998 C 522.3362500000001,386.4337 523.1402100000001,387.33848 523.9149900000001,388.21049 C 524.6601700000001,389.04917 525.3744000000002,389.85469 526.0600100000001,390.62397 C 526.7144900000002,391.35830999999996 527.3350300000002,392.05921 528.5000100000002,393.33331999999996 C 529.0325400000002,393.91574999999995 529.5390700000002,394.45563 530.0105100000002,394.96232 C 530.4497200000002,395.43433999999996 530.8574300000001,395.87210999999996 531.2240100000001,396.28531999999996 C 531.5608600000002,396.66501999999997 531.8822700000002,397.00433999999996 532.3333200000002,397.66664 C 532.5252800000002,397.94847 532.6687700000002,398.21797 532.7488500000002,398.46767 C 532.8173300000002,398.68117 532.8397300000001,398.88353 532.7773500000002,399.03466 C 532.7196100000002,399.17449 532.5746500000001,399.30944 532.1666900000001,399.33333999999996 C 531.8917900000001,399.34945 531.5656200000001,399.26439999999997 531.2006900000001,399.14883 C 530.7833300000001,399.01666 530.3283100000001,398.82280999999995 529.8386900000002,398.57732999999996 C 529.3002400000001,398.30736999999993 528.7191200000002,397.99539 527.5000100000002,397.16664999999995 C 526.8240500000002,396.70714999999996 526.1334900000002,396.17387999999994 525.4015000000002,395.60515999999996 C 524.6253200000002,395.00206999999995 523.8138500000001,394.35240999999996 522.9520400000001,393.67464999999993 C 522.0450000000001,392.9613299999999 521.0988900000001,392.2025099999999 519.0000100000001,390.66664999999995 C 517.87904,389.84633999999994 516.6928800000001,389.0254499999999 515.4615000000001,388.19014999999996 C 514.1982600000001,387.33327999999995 512.8980200000001,386.47576 511.5720000000001,385.61465 C 510.2324000000001,384.74472 508.8802300000001,383.87808 506.1666700000001,382.16665 C 504.82228000000015,381.31875 503.48027000000013,380.48095 502.13917000000015,379.64367 C 500.79359000000017,378.80358 499.43717000000015,377.95885999999996 498.06669000000016,377.10265 C 496.6755200000002,376.23350999999997 495.25703000000016,375.35003 492.33335000000017,373.49998999999997 C 490.8124500000002,372.53758999999997 489.2566600000002,371.54441999999995 487.6713300000002,370.51948999999996 C 486.0539600000002,369.47383999999994 484.4136100000002,368.40040999999997 482.7573300000002,367.29598 C 481.0789200000002,366.17681 479.38126000000017,365.04452 476.0000100000002,362.66665 C 474.2926700000002,361.46597 472.5914100000002,360.23022000000003 470.8865200000002,358.96768000000003 C 469.1633400000002,357.69162000000006 467.43318000000016,356.38064 465.6920000000002,355.03467 C 463.9240900000002,353.66803 462.1326700000002,352.27008 458.5000100000002,349.33335 C 456.6299800000002,347.82157 454.7443300000002,346.26414 452.8375000000002,344.68032999999997 C 450.9109900000002,343.08016999999995 448.9781900000002,341.4595 447.0400100000002,339.82935 C 445.09985000000023,338.19748 443.1681500000002,336.56356999999997 439.33334000000025,333.33335 C 437.44506000000024,331.74277 435.57980000000026,330.1778 433.75033000000025,328.63233 C 431.95584000000025,327.11643000000004 430.20422000000025,325.62977 428.50933000000026,324.16535000000005 C 426.86233000000027,322.74228000000005 425.26134000000025,321.37021000000004 422.33334000000025,318.66666000000004 C 420.96048000000025,317.39902000000006 419.67907000000025,316.15033000000005 418.45282000000026,314.95118 C 417.27518000000026,313.79957 416.15118000000024,312.68198 415.04935000000023,311.62269000000003 C 413.98398000000026,310.59846000000005 412.9656700000002,309.58399000000003 410.8333500000002,307.83335000000005 C 409.79856000000024,306.98377000000005 408.72919000000024,306.21732000000003 407.66984000000025,305.48585 C 406.63429000000025,304.77082 405.60398000000026,304.10447000000005 404.60536000000025,303.45335 C 403.63832000000025,302.82283 402.68190000000027,302.2465 401.00001000000026,301.00001 C 400.2153100000003,300.41844 399.50361000000026,299.81201999999996 398.8475100000003,299.20450999999997 C 398.21714000000026,298.6208 397.6390700000003,298.02707999999996 397.1000100000003,297.43602 C 396.57755000000026,296.86316999999997 396.0892700000003,296.28871 395.16666000000026,295.16667 C 394.7197000000003,294.62312000000003 394.28531000000027,294.08641 393.8616700000003,293.55717 C 393.4453500000003,293.03706 393.04166000000026,292.52085 392.6466700000003,292.01069 L 392.2616600000003,291.50449000000003 L 391.8866600000003,291.00135000000006" fill="none" id="svg_10" stroke="#000" stroke-width="2"/>
	<path d="M 400.0,337.0 C 408.83334,338.66666 409.67755,338.76456 410.51199,338.82935 C 411.33328,338.89313 412.14248000000003,338.9328 412.9375,338.95835 C 413.71722,338.98337 414.48117,338.99549 416.66666,339.00001 C 417.35699999999997,339.00144 418.02932999999996,339.00001 418.68566999999996,339.00001 C 419.328,339.00001 420.57867999999996,339.00001 421.19100999999995,339.00001 C 421.79732999999993,339.00001 423.60000999999994,339.00001 424.20000999999996,339.00001 C 424.79999,339.00001 425.99999999999994,339.00001 426.59999999999997,339.00001 C 427.20000999999996,339.00001 428.99998999999997,339.00001 429.59914999999995,339.00001 C 430.19332999999995,339.00001 431.34667999999994,339.00001 431.89583999999996,339.00001 L 432.91414999999995,339.00001" fill="none" id="svg_11" stroke="#000" stroke-width="2"/>
</svg>
