<?xml version="1.0" ?>
<svg baseProfile="full" height="480" version="1.1" width="640" xmlns="http://www.w3.org/2000/svg" xmlns:ev="http://www.w3.org/2001/xml-events" xmlns:xlink="http://www.w3.org/1999/xlink">
	<defs/>
	<path d="M 264.0,150.0 C 253.16667,155.5 252.35039,155.93448 251.59866,156.34 C 250.90439999999998,156.71453 249.66938,157.38037 249.11067,157.66001 C 248.59115,157.92002 247.17351,158.52576 246.28534,158.74801 C 245.86007999999998,158.85442 245.01334,158.96528 244.2045,159.15801 C 242.9865,159.44825 242.19446,159.82923 241.45334,160.26533999999998 C 240.76816,160.66851999999997 239.65959,161.15043999999997 239.97917,161.02083 C 240.59207,160.77224999999999 241.54635000000002,161.67363 242.49566000000002,162.05349999999999 C 243.03912000000003,162.27096999999998 243.62051000000002,162.49284999999998 244.23866,162.68801 C 245.51536000000002,163.09109999999998 246.8314,163.35055 247.47934,163.41418 C 248.11989,163.47708 248.76622,163.49904999999998 250.08333000000002,163.43750999999997 C 250.77001,163.40541999999996 251.48108000000002,163.33583 252.22533,163.28000999999998 C 253.83280000000002,163.15944 254.70600000000002,163.11714999999998 255.616,163.08533999999997 C 256.54969,163.0527 257.49463000000003,163.03357999999997 258.4375,163.02083999999996 C 259.3653,163.00829999999996 260.26517,163.00328999999996 261.12399,163.00133999999997 C 262.66665,162.99782999999996 263.328,163.00000999999997 263.91732,163.00000999999997 C 264.44265,163.00000999999997 264.91198,163.00000999999997 266.06399,163.00000999999997 C 266.99998999999997,163.00000999999997 267.88198,163.00000999999997 268.656,163.00000999999997 L 269.16665,163.00000999999997" fill="none" id="svg_1" stroke="#000" stroke-width="2"/>
	<path d="M 264.0,149.0 C 269.5,138.33333 269.93036,137.56802 270.34534,136.87601 C 271.09317000000004,135.62892 271.46006,135.06357 271.80399,134.50534000000002 C 272.14539,133.95122 272.49845,133.39348 273.16666,132.16667 C 273.53058,131.49853000000002 273.88559,130.78276000000002 274.24816999999996,130.04117000000002 C 274.61764999999997,129.28545000000003 274.97934,128.52091000000001 275.33865,127.76267000000003 C 275.6903,127.02058000000002 276.00467,126.29227000000003 276.95732999999996,124.42867000000003 C 277.22472999999997,123.90557000000003 277.47592,123.42259000000003 277.99998999999997,122.58334000000002 C 278.48812,121.80166000000003 279.32964,120.66384000000002 279.643,120.25767000000002 C 280.30654,119.39761000000001 280.66353999999995,118.96323000000002 281.04164999999995,118.54167000000002 C 281.7924699999999,117.70457000000002 282.1382699999999,117.25161000000003 283.40031999999997,116.38534000000003 C 284.17341999999996,115.85469000000003 284.62303999999995,115.70490000000002 285.47198,115.29868000000003 C 286.37246,114.86779000000003 287.33919999999995,114.34254000000003 287.84349999999995,114.01435000000004 C 288.94093999999996,113.30012000000004 289.50230999999997,112.87492000000003 290.10414999999995,112.45835000000004 C 290.72758999999996,112.02683000000003 291.3714499999999,111.58180000000004 292.05864999999994,111.16535000000003 C 293.4819299999999,110.30282000000003 294.25902999999994,109.93207000000004 295.05333999999993,109.57201000000003 C 295.8574499999999,109.20752000000003 296.6838599999999,108.87529000000004 297.5208399999999,108.56251000000003 C 298.3572699999999,108.24993000000003 299.1973799999999,107.96079000000003 300.0333199999999,107.68801000000003 C 301.66325999999987,107.15615000000004 302.4555299999999,106.91824000000004 303.2266499999999,106.68934000000003 C 303.97557999999987,106.46702000000003 304.7048299999999,106.26084000000003 305.4166499999999,106.08334000000004 C 306.1049399999999,105.91172000000003 306.7736799999999,105.75829000000003 307.4266599999999,105.65734000000003 C 308.6619199999999,105.46636000000004 309.25758999999994,105.44535000000003 309.8333399999999,105.45734000000003 C 310.9614199999999,105.48084000000003 311.5243499999999,105.56306000000004 312.6624999999999,105.77067000000002 C 313.2553299999999,105.87881000000003 314.5003899999999,106.16501000000002 315.1638099999999,106.32150000000003 C 315.8510699999999,106.48362000000003 317.2660699999999,106.83304000000003 317.9791499999999,107.02083000000003 C 318.6887799999999,107.20772000000004 319.3869599999999,107.39726000000003 320.0626499999999,107.60133000000003 C 321.3375199999999,107.98638000000004 322.4616999999999,108.39071000000003 322.9668199999999,108.60450000000003 C 323.9043499999999,109.00130000000003 324.34111999999993,109.20293000000002 325.1093399999999,109.68533000000004 C 326.2088299999999,110.37574000000004 326.8621799999999,110.94616000000003 327.4791499999999,111.56250000000004 C 328.1161099999999,112.19883000000004 328.4226899999999,112.55389000000004 329.3011699999999,113.74416000000004 C 329.6181299999999,114.17364000000003 330.2746499999999,115.14666000000004 330.6458399999999,115.68750000000004 L 331.0519999999999,116.27333000000004 L 331.5001499999999,116.90916000000004 L 331.9973399999999,117.59999000000005" fill="none" id="svg_2" stroke="#000" stroke-width="2"/>
	<path d="M 266.0,165.0 C 274.349,175.106 274.79623,175.63016 275.18634,176.07201 C 275.7879,176.75335 276.55199999999996,177.55202 277.22916,178.22918 C 277.84751,178.84751 278.22666,179.22666 278.64585,179.64584000000002 C 279.10001,180.10000000000002 280.09318,181.09352 281.16666,182.16668 C 281.72107,182.72094 282.28116,183.28153 282.84817999999996,183.83918000000003 C 283.41317999999995,184.39486000000002 283.97598999999997,184.94088000000002 284.53866999999997,185.46667000000002 C 285.08709999999996,185.97915000000003 285.61319,186.48120000000003 286.66666,187.33334000000002 C 287.14968999999996,187.72406 288.09256,188.38656000000003 288.56,188.66668 C 289.47428,189.21458 289.956,189.45307000000003 291.5,190.16668 C 292.06201,190.42643 292.65363,190.68642000000003 293.267,190.95268000000002 C 294.53949,191.50502 295.19516,191.77676000000002 295.85632,192.04735000000002 C 296.51782,192.31809 297.83272999999997,192.83493 298.47848,193.07884 C 299.11406999999997,193.31891000000002 300.36517,193.78232000000003 300.97915,194.02084000000002 C 301.59051,194.25834000000003 302.21578,194.46676000000002 303.99999,195.33334000000002 C 304.60708000000005,195.62819000000002 305.20073,195.96435000000002 305.79549000000003,196.30534000000003 C 306.39144000000005,196.64701000000002 306.97914000000003,197.00001000000003 308.14281000000005,197.69468000000003 L 308.71465000000006,198.03201000000004" fill="none" id="svg_3" stroke="#000" stroke-width="2"/>
	<path d="M 307.0,198.0 C 304.14316,205.257 303.95291,205.82448 303.68268,206.92799 C 303.55335,207.45615999999998 303.35532,208.48944 303.288,208.99733 C 303.08930000000004,210.49658 303.07538,211.00357 303.03602,212.032 C 303.01573,212.56233 303.00324,213.6715 303.00135,214.256 C 302.99732,215.5 303.00001,216.85201 303.00001,217.558 C 303.00001,218.27599999999998 303.00001,219.0 303.00001,219.724 C 303.00001,220.44199999999998 303.00001,221.148 303.00001,222.5 C 303.00001,223.74533 303.00001,224.33299 303.00001,225.45833 C 303.00001,226.004 302.99902999999995,227.08132999999998 303.00001,228.16666999999998 C 303.00052999999997,228.72249999999997 303.01649,229.88488999999998 303.06401,230.49999999999997 C 303.11397,231.14676999999998 303.20061,231.82953999999998 303.343,232.54749999999999 C 303.49556,233.31679 303.98634000000004,235.00495999999998 304.32817,235.92766999999998 C 304.6909,236.90679999999998 305.11455,237.90958999999998 305.56267,238.93066 C 306.01485,239.96097999999998 306.48381,240.9761 306.94118000000003,241.96965999999998 C 307.38115000000005,242.92541999999997 308.17232,244.66427 308.49303000000003,245.42831999999999 C 308.78246,246.11785999999998 309.02892,246.75119999999998 309.25203000000005,247.33332 C 309.4594900000001,247.87455999999997 309.65031000000005,248.3884 309.84901,248.87831999999997 C 310.04509,249.36174999999997 310.49394,250.33652999999998 310.76417000000004,250.84282999999996 C 311.04704000000004,251.37276999999997 311.36021000000005,251.91116999999997 311.68669000000006,252.46132999999998 C 312.35533000000004,253.58809999999997 312.7041500000001,254.14891999999998 313.03334000000007,254.71732999999998 C 313.67644000000007,255.82772999999997 314.2354000000001,256.91763 314.50819000000007,257.45183999999995 C 314.7807400000001,257.9856199999999 315.35057000000006,259.06612999999993 315.67683000000005,259.60982999999993 C 316.0156400000001,260.17443999999995 316.8242000000001,261.34056999999996 317.30683000000005,261.9421699999999 C 317.81187000000006,262.5717199999999 318.3620700000001,263.1971099999999 318.93735000000004,263.81866999999994 C 319.51511000000005,264.44287999999995 320.1052,265.0455099999999 320.69385000000005,265.62316999999996 C 321.26135000000005,266.18004999999994 322.32855000000006,267.17211999999995 322.8140000000001,267.59268 C 323.6630600000001,268.32831 324.4196800000001,268.91281 325.0820100000001,269.43465999999995 C 326.00425000000007,270.16130999999996 326.5959900000001,270.68886999999995 327.2106700000001,271.2146599999999 C 327.8306700000001,271.7449899999999 328.4501100000001,272.29302999999993 329.5218300000001,272.85732999999993 C 330.2449400000001,273.23806999999994 330.6562600000001,273.3523599999999 331.4826800000001,273.65065999999996 C 332.37086000000005,273.97124999999994 333.33528000000007,274.32875999999993 334.3693400000001,274.76530999999994 C 334.91084000000006,274.99391999999995 335.4536300000001,275.24916999999994 336.5853400000001,275.6773299999999 C 337.1481800000001,275.8902799999999 337.6986800000001,276.16493999999994 339.3785200000001,276.41414999999995 C 339.9108100000001,276.49312999999995 340.96467000000007,276.47691999999995 341.47917000000007,276.43749999999994 C 342.49730000000005,276.35946999999993 343.99946000000006,276.16024999999996 344.49986000000007,276.12148999999994 C 345.4946100000001,276.0444299999999 345.98915000000005,276.02813999999995 346.96400000000006,276.0106799999999 C 347.91459000000003,275.99364999999995 349.27833000000004,275.99999999999994 349.7133600000001,275.99999999999994 C 350.55336000000005,275.99999999999994 351.35334000000006,275.99999999999994 352.8333600000001,275.99999999999994 C 353.5160100000001,275.99999999999994 354.1746700000001,275.99999999999994 355.1527000000001,275.99999999999994 C 356.1666800000001,275.99999999999994 356.88668000000007,275.99999999999994 357.6466900000001,275.99999999999994 C 358.4466800000001,275.99999999999994 359.28674000000007,276.01195999999993 360.6217000000001,275.99932999999993 C 361.56182000000007,275.9904199999999 362.0502900000001,275.98824999999994 363.04669000000007,275.8559899999999 C 363.5640900000001,275.7873299999999 365.17221000000006,275.3467999999999 365.7215300000001,275.1140199999999 C 366.2914500000001,274.87249999999995 367.4360400000001,274.2560199999999 368.0208800000001,273.9166599999999 L 368.6106900000001,273.55734999999993 L 369.2045300000001,273.18200999999993 L 369.8013600000001,272.7946799999999" fill="none" id="svg_4" stroke="#000" stroke-width="2"/>
	<path d="M 346.0,279.0 C 352.16666,289.83334 352.59607,290.64786 352.97601,291.40268 C 353.32617,292.09833 353.93505999999996,293.35535 354.21866,293.92532 C 354.4895,294.46966 355.32791,296.00341 355.64267,296.50015 C 355.96249,297.00485000000003 356.65183,298.00989000000004 357.0,298.52084 C 357.35049,299.03521 357.74417,299.52829 358.66666,301.16665 C 358.97411999999997,301.7127 359.23974999999996,302.28454 359.49465999999995,302.86617 C 360.01595999999995,304.05562000000003 360.25014999999996,304.68288 360.50533999999993,305.31884 C 360.76748999999995,305.97219 361.3292799999999,307.33511000000004 361.64266999999995,308.04232 C 361.96386999999993,308.76714000000004 362.30292,309.49746000000005 362.65066999999993,310.22933 C 362.99758999999995,310.95949 363.34817999999996,311.67791 363.69467999999995,312.38033 C 364.03088999999994,313.06188000000003 364.95651999999995,314.91298 365.22534999999993,315.45064 C 365.4721799999999,315.94432 365.89584999999994,316.79164000000003 366.3413499999999,317.68267000000003 L 366.6533299999999,318.30666 L 367.02084999999994,319.04165 L 367.29916999999995,319.59832" fill="none" id="svg_5" stroke="#000" stroke-width="2"/>
	<path d="M 371.0,318.0 C 360.5,320.0 359.56335,320.19601 358.65466,320.40268 C 357.76601999999997,320.60477 356.89578,320.81537 356.04165,321.04166 C 355.19442,321.26612 354.35302,321.50379 353.51867,321.77065999999996 C 351.82635,322.31197999999995 350.97717,322.63744999999994 350.11999,322.96799 C 349.25877999999994,323.30008 348.40554,323.64797999999996 347.56248999999997,324.0 C 346.73222999999996,324.34668 345.92405999999994,324.69449 345.14,325.03201 C 343.66649,325.66632000000004 342.98647,325.95813000000004 342.34132,326.22934000000004 C 341.72911,326.48673 341.14432999999997,326.72879000000006 340.58332,326.95834 C 340.04295,327.17944 339.51816,327.39145 339.00532000000004,327.59732 C 337.50166,328.20099000000005 337.00657000000007,328.39072000000004 336.07466000000005,328.77866 C 335.24953000000005,329.12214 333.96873000000005,329.46891 334.31715,329.991 C 334.82542,330.75263 336.16706000000005,329.66814999999997 337.00264000000004,329.42667 C 337.51842000000005,329.27759 338.09615,329.11155 339.41866000000005,328.70667 C 340.16100000000006,328.47941 340.95336000000003,328.23492999999996 342.66665000000006,327.66666 C 343.58733000000007,327.36127 344.54125000000005,327.03155999999996 345.52416000000005,326.68116 C 346.53463000000005,326.32095999999996 347.56417000000005,325.94192999999996 348.60665000000006,325.54267 C 349.66253000000006,325.13828 350.72713000000005,324.72904 352.83333000000005,323.83335 C 353.88146000000006,323.38761 354.91002000000003,322.92154999999997 355.92482000000007,322.46085 C 356.9219800000001,322.00815 357.8944200000001,321.55935999999997 358.8453200000001,321.13334 C 359.7654600000001,320.72110999999995 360.6451600000001,320.30884999999995 362.33333000000005,319.66666999999995 C 363.10814000000005,319.37192999999996 363.85143000000005,319.13264 364.55782000000005,318.93766999999997 C 365.22112000000004,318.7546 365.85219000000006,318.61382 366.44933000000003,318.51469999999995 C 367.00884,318.42184 367.53777,318.34382999999997 368.49999,318.33335999999997 C 368.93493,318.32863 369.34023,318.36069999999995 369.7105,318.41884 C 370.05114000000003,318.47231 370.35909000000004,318.54946 370.62398,318.65737 C 370.86284,318.75466 371.4775,318.84566 371.37065,319.9107 C 371.30788,320.53646000000003 370.52519,321.21038000000004 369.66664000000003,322.16668000000004 C 369.13621,322.75750000000005 368.52144000000004,323.39736000000005 367.84715000000006,324.09118000000007 C 367.1256200000001,324.83358000000004 366.3565500000001,325.60659000000004 365.55064000000004,326.40270000000004 C 364.72361000000006,327.21969 363.8824,328.04683000000006 362.16664000000003,329.66668000000004 C 361.32509000000005,330.46121000000005 360.48585,331.23269000000005 359.65266,331.9902 C 358.82716000000005,332.74072 358.00093000000004,333.48022000000003 357.17463000000004,334.21469 C 356.34821000000005,334.94925 355.51557,335.68225 353.83332,337.16669 C 352.9791,337.92044000000004 352.12153,338.67896 351.2653,339.4347 C 350.41752,340.18296000000004 349.58415,340.91764 348.76933,341.63071 C 347.9821,342.31961 347.23079,342.98111 345.83333000000005,344.16669 C 345.21089000000006,344.69474 344.63561000000004,345.16919 344.11281,345.59619000000004 C 343.64485,345.97839000000005 343.22881,346.31210000000004 342.86931000000004,346.60269000000005 C 342.56520000000006,346.84851000000003 342.30055000000004,347.03277 341.99999,347.33337000000006 C 341.92379000000005,347.40960000000007 341.90532,347.46972000000005 341.93398,347.47586000000007 C 341.99398,347.48868000000004 342.08416,347.43948000000006 342.19198,347.39337000000006 C 342.31359,347.34137000000004 343.02218,346.94842000000006 343.44833,346.4900200000001 C 344.35247,345.5174600000001 344.77118,345.0061300000001 345.28265,344.43469000000005 C 345.85641,343.79370000000006 346.48593,343.09543 347.16665,342.35418000000004 C 347.88314,341.57400000000007 348.63018,340.76833000000005 349.41067,339.9587 C 350.98837,338.32207 351.79546999999997,337.53844000000004 352.59999999999997,336.77202 C 353.39552999999995,336.01415 354.19624999999996,335.27849 354.99998999999997,334.56252 C 355.79628999999994,333.85317000000003 356.59565999999995,333.16103 357.39997999999997,332.48803 C 358.99143999999995,331.15643 359.79850999999996,330.51952 360.59999,329.88403 C 361.39853999999997,329.25085 362.2,328.62536 362.99998,328.00003 C 363.79997,327.37469 364.6024,326.75043 365.39997,326.11602999999997 C 367.00486,324.83948 367.80097,324.18172999999996 368.59199,323.52135999999996 C 369.37495,322.86769999999996 370.13743,322.21907999999996 370.87498,321.58336999999995 C 371.58543,320.97099999999995 372.25867999999997,320.38329999999996 372.88797999999997,319.82536999999996 C 374.00302999999997,318.83678 374.4708,318.40855999999997 374.88397999999995,318.03203999999994 C 375.24375,317.70415999999994 375.55063999999993,317.42119999999994 375.81247999999994,317.1875299999999 C 376.02689999999996,316.99614999999994 376.19211999999993,316.8376799999999 376.33597999999995,316.74801999999994 C 376.4913399999999,316.65118999999993 376.54517999999996,316.68697999999995 376.53729999999996,316.74535999999995 C 376.52371999999997,316.84621999999996 376.45651999999995,316.98864999999995 376.18796999999995,317.35070999999994 C 375.79459999999995,317.8810699999999 374.7947199999999,318.86886999999996 374.36530999999997,319.26269999999994 C 373.89072999999996,319.69793999999996 373.35767999999996,320.16336999999993 372.77083,320.66668999999996 C 372.13248999999996,321.21417999999994 371.43523,321.80026999999995 370.68131999999997,322.43069999999994 C 369.0016,323.83532999999994 368.07221999999996,324.60662999999994 367.09731,325.4187099999999 C 366.08858,326.2589499999999 365.05886,327.1162799999999 364.02083,327.97919999999993 C 362.98821,328.83762999999993 361.9738,329.68030999999996 360.98931,330.4946999999999 C 359.16784,332.0014699999999 358.35078999999996,332.6717599999999 357.596,333.28937999999994 C 356.89608,333.86206999999996 356.24148,334.3949099999999 355.62499,334.89588999999995 C 355.03881,335.37224 354.47396000000003,335.82975999999996 353.92400000000004,336.27738999999997 C 352.83257000000003,337.16578999999996 352.27868,337.62044 351.71999000000005,338.08137999999997 C 351.16033000000004,338.54310999999996 350.60601,339.00329 350.06249,339.45838999999995 C 349.53270000000003,339.90198999999996 349.02266000000003,340.33131 348.54,340.74537999999995 C 347.66393,341.49690999999996 347.28619000000003,341.83419 346.94665000000003,342.13737999999995 C 346.64627,342.40559999999994 346.38806000000005,342.6403399999999 346.16665000000006,342.83338999999995 C 345.9877900000001,342.98936999999995 345.75424000000004,343.13813999999996 345.74133000000006,342.97336999999993 C 345.68890000000005,342.3042699999999 346.4188500000001,341.87808999999993 347.20034000000004,340.6993799999999 C 347.60946,340.0823499999999 348.04516000000007,339.4188899999999 348.51434000000006,338.6713599999999 C 348.77258000000006,338.25988999999987 349.64331000000004,336.8148199999999 349.96933000000007,336.2626999999999 C 350.3103300000001,335.68518999999986 350.6605800000001,335.08758999999986 351.0208400000001,334.4791899999999 C 351.3845800000001,333.8648999999999 351.7345200000001,333.2427399999999 352.8333400000001,331.5000299999999 C 353.1730300000001,330.96129999999994 353.5073500000001,330.45327999999995 354.15332000000006,329.51870999999994 C 354.4555700000001,329.08144999999996 355.0436700000001,328.27453999999994 355.8333400000001,327.16668999999996 C 356.31259000000006,326.49436 357.2988900000001,326.0087 357.1668400000001,325.19037 C 357.1353200000001,324.99494 356.5986900000001,325.53060999999997 356.0533500000001,326.28936999999996 C 355.3131800000001,327.31918999999994 354.9132400000001,327.97153 354.4546900000001,328.68003 C 353.9575300000001,329.44819 353.4290200000001,330.27002999999996 352.85417000000007,331.12504 C 352.25453000000005,332.01689 351.6267200000001,332.93379 350.93867000000006,333.84004 C 349.5326600000001,335.69196999999997 348.74583000000007,336.56489 347.9520100000001,337.42404999999997 C 347.1646300000001,338.27624999999995 346.3598800000001,339.08926999999994 345.5625100000001,339.87503999999996 C 344.7877600000001,340.63852999999995 344.0268000000001,341.35956999999996 343.3080200000001,342.05603999999994 C 341.9950300000001,343.32825999999994 341.4251200000001,343.9085799999999 340.9186800000001,344.45068999999995 C 340.4612200000001,344.94037999999995 340.0651300000001,345.38845999999995 339.7291700000001,345.79168999999996 C 339.44035000000014,346.13833999999997 339.2047300000001,346.43328999999994 339.03468000000015,346.68271 C 338.8230100000001,346.99323 338.79844000000014,347.08865 338.82402000000013,347.09069999999997 C 339.4521600000001,347.14101999999997 339.97200000000015,346.01435 340.50001000000015,345.00003 C 340.86979000000014,344.2897 341.0774000000001,343.84128 341.64585000000017,342.83337 C 341.9691500000002,342.26013 342.33164000000016,341.65191 342.74534000000017,341.02136 C 343.64405000000016,339.65158 344.17918000000014,338.95147000000003 344.74400000000014,338.22937 C 345.33030000000014,337.47983 345.9593600000001,336.72284 346.62501000000015,335.95837 C 347.30857000000015,335.17334 348.0244900000001,334.3836 348.77601000000016,333.59735 C 350.31742000000014,331.98468 351.1380100000002,331.19549 351.96934000000016,330.40402 C 352.80503000000016,329.60843 353.65650000000016,328.82657 354.52085000000017,328.06253 C 355.3805600000002,327.30258 356.24399000000017,326.56194999999997 357.11735000000016,325.85602 C 358.8182800000002,324.48117 359.67344000000014,323.85651 360.52000000000015,323.25604 C 361.35527000000013,322.66357 362.20118000000014,322.09929999999997 363.06251000000015,321.56253 C 363.92790000000014,321.02322 364.81730000000016,320.50097999999997 365.7400000000001,320.00403 C 367.6527800000001,318.97385 368.6817100000001,318.49292 369.7360000000001,318.00537 C 370.8070400000001,317.5101 371.89780000000013,317.03412000000003 373.0000100000001,316.58337 C 374.0952200000001,316.13549 375.18351000000007,315.71212 376.2640200000001,315.34137 C 378.32274000000007,314.63495 379.3110200000001,314.37601 380.25468000000006,314.14005 C 381.15556000000004,313.91477 382.0232000000001,313.72947 382.85417000000007,313.56253999999996 C 383.64860000000004,313.40295999999995 384.41170000000005,313.26685999999995 385.13869000000005,313.12003999999996 C 386.50234000000006,312.84461999999996 387.1363400000001,312.68390999999997 387.74001000000004,312.51872 C 388.3163,312.36100999999996 388.85985000000005,312.19554 389.37502000000006,312.0417 C 389.85985000000005,311.89689 390.3119700000001,311.75473999999997 390.74001000000004,311.65470999999997 C 391.49526000000003,311.47819999999996 391.83504000000005,311.45277999999996 392.14135000000005,311.45473 C 392.41979000000003,311.4565 392.67068000000006,311.49739 392.89587000000006,311.54170999999997 L 393.09603000000004,311.59605999999997 L 393.27218000000005,311.65639 L 393.42535000000004,311.71871" fill="none" id="svg_6" stroke="#000" stroke-width="2"/>
	<path d="M 369.0,276.0 C 376.47934,279.07901 377.12119,279.31909 377.76532,279.55634 C 378.41718,279.79641999999996 379.08401999999995,280.03986 379.76935,280.29733999999996 C 380.48202999999995,280.5651 381.22974,280.84387999999996 382.83335,281.50001 C 383.70862,281.85812999999996 384.61732,282.24902999999995 385.54984,282.65799999999996 C 386.49601,283.07294999999993 387.43882,283.49713999999994 388.36533000000003,283.92402 C 389.26645,284.33921 390.12998000000005,284.73584999999997 391.66666000000004,285.50001 C 392.33045000000004,285.83011999999997 392.91782000000006,286.13932 393.43817,286.42402 C 393.90298,286.67834999999997 394.31406000000004,286.91407 394.67868,287.132 C 395.83832,287.82512 396.5499,288.21028 397.11734,288.55336 C 398.00595000000004,289.09065 398.0,290.13869 398.0,290.72267 C 398.0,291.70369 398.05481,292.66966 397.98199,293.50368 C 397.90990999999997,294.32917999999995 397.69879,294.95860999999996 397.11367,296.08619999999996 C 396.87225,296.55146999999994 396.23916,297.55763999999994 395.87499,298.10416999999995 C 395.49004,298.68186999999995 395.07351,299.27946 394.62398,299.89066999999994 C 393.67888,301.17576999999994 393.16027,301.82428999999996 392.62798000000004,302.48533999999995 C 392.08468000000005,303.16002 391.52041,303.83863999999994 390.93749,304.52085999999997 C 390.34578000000005,305.21335999999997 389.738,305.90828 389.11199000000005,306.60132999999996 C 387.84176,308.00766999999996 387.18087,308.70163999999994 386.51732000000004,309.39734999999996 C 385.85387000000003,310.09297 385.18657,310.77988999999997 384.52083000000005,311.45834999999994 C 383.86254,312.1292199999999 383.21044000000006,312.78628999999995 382.56932000000006,313.42932999999994 C 381.33452000000005,314.66785999999996 380.7441600000001,315.2558399999999 380.17998000000006,315.82001999999994 C 379.64583000000005,316.35416999999995 379.1466500000001,316.8533499999999 378.6874900000001,317.3125099999999 C 378.2733400000001,317.7266599999999 377.9091700000001,318.0908299999999 377.6000000000001,318.3999999999999 C 377.16665000000006,318.83334999999994 377.2019000000001,318.5404999999999 378.0314900000001,317.9865199999999 C 378.54345000000006,317.64462999999995 379.5592000000001,317.3518499999999 380.5091500000001,316.8924999999999 C 381.0785200000001,316.61716999999993 381.6949400000001,316.28315999999995 382.3466700000001,315.88001999999994 C 383.0541600000001,315.44239999999996 383.8199400000001,314.96155999999996 385.33333000000005,313.66666999999995 C 386.16493,312.95511999999997 386.97212,312.13587999999993 387.79183000000006,311.27867 C 388.62700000000007,310.40529 389.43966000000006,309.50197 390.2413200000001,308.60267999999996 C 391.0252900000001,307.72324999999995 391.7585600000001,306.85609999999997 393.1666400000001,305.33335999999997 C 393.7842500000001,304.66542 394.36268000000007,304.08119 394.89616000000007,303.57084999999995 C 395.3726000000001,303.11506999999995 395.80906000000004,302.72517999999997 396.20265000000006,302.39336 C 396.54588000000007,302.10402 396.85060000000004,301.86488999999995 397.33333000000005,301.50001999999995 C 397.5134800000001,301.36384999999996 397.71654000000007,300.84475 397.93599000000006,301.08534999999995 C 398.43919000000005,301.63701999999995 396.67052000000007,302.77241999999995 396.28532000000007,303.28666999999996 C 395.84782000000007,303.87074999999993 395.36235000000005,304.51975999999996 394.83332000000007,305.22916999999995 C 394.2636500000001,305.99312 393.6578400000001,306.8068999999999 393.0213100000001,307.66666999999995 C 391.6649300000001,309.49872999999997 390.9554800000001,310.46232 390.23597000000007,311.45201 C 389.50581000000005,312.45631 388.77625000000006,313.47249 388.06248000000005,314.50001 C 387.35359000000005,315.52052 386.66270000000003,316.53299999999996 386.0239700000001,317.54801 C 384.8062000000001,319.48319 384.2980500000001,320.42990999999995 383.82664000000005,321.33866 C 383.37678000000005,322.20588 382.9762400000001,323.04761 382.60414000000003,323.85416 C 382.24974000000003,324.62235 381.92854000000005,325.3606 381.60664,326.05465999999996 C 381.01115000000004,327.33859999999993 380.70698000000004,327.91695999999996 380.40397,328.45333999999997 C 380.11955,328.95682 379.8361,329.41598999999997 379.56248,329.83333999999996 C 379.31175,330.21581999999995 379.07374,330.55499 378.85597,330.85332999999997 C 378.50361000000004,331.33603 378.36448,331.51401 378.25599,331.65866 C 378.17149,331.77133 378.10923,331.85696 378.25199,331.67599 C 378.60035,331.23437 379.55048,330.0065 379.99732,329.432 C 380.50013,328.78549000000004 381.05198,328.07598 381.64582,327.31249 C 382.27463,326.50399000000004 382.93146,325.65947 383.60932,324.78798 C 385.00001000000003,323.00002 385.70054000000005,322.09938 386.40397,321.19466 C 387.11353,320.28206 387.83213,319.35744 388.56248,318.41664 C 389.30815,317.4561 390.07185,316.47159999999997 390.85597,315.45865999999995 C 392.50075000000004,313.33389999999997 393.36363,312.21512999999993 394.24931000000004,311.06796999999995 C 395.14894000000004,309.90277999999995 396.05415000000005,308.73025999999993 396.95832,307.56247999999994 C 397.85148000000004,306.40894999999995 398.72584,305.2807399999999 399.57731,304.1919699999999 C 401.16328,302.16401999999994 401.88981,301.2492499999999 402.57066000000003,300.4026599999999 C 403.20298,299.6164099999999 403.79518,298.89172999999994 404.35414000000003,298.2291399999999 C 404.87144,297.6159199999999 405.35594000000003,297.0535699999999 405.82265,296.55063999999993 C 406.65401,295.65473999999995 407.05205,295.28183999999993 407.42400000000004,294.9453199999999 C 407.76381000000003,294.63785999999993 408.08532,294.3759799999999 408.37499,294.1458199999999 L 408.63466000000005,293.9506299999999 L 408.86232000000007,293.7894699999999 L 409.0559800000001,293.6613299999999" fill="none" id="svg_7" stroke="#000" stroke-width="2"/>
	<path d="M 334.0,114.0 C 335.75699,122.3565 335.83554,123.02482 335.88568,123.67216 C 335.93395999999996,124.29556000000001 335.98314999999997,125.47058 335.991,126.01950000000001 C 336.01212,127.49988 336.0,128.33733 336.0,129.03867 C 336.0,130.16667999999999 336.45694,130.3427 336.85068,131.18801 C 337.16068,131.85352 337.29575,132.64257999999998 338.0,133.16667999999999 C 338.52304,133.55592 339.54898,134.10789 339.992,134.42001 C 340.48123000000004,134.76469 341.55960000000005,135.50444 342.13067,135.87335 C 342.69998,136.24112 343.23113,136.65439999999998 344.81432,137.39284999999998 C 345.25209,137.59704 346.07421,137.85514999999998 346.82933,138.01867 C 347.56255000000004,138.17745 348.74782000000005,138.42628 349.60081,138.70985 C 350.485,139.00377999999998 351.33891,139.34831 351.74665000000005,139.51735 C 353.15174,140.09986999999998 353.69135000000006,140.43353 354.5008,140.58118 C 355.62678000000005,140.78654999999998 356.30698,140.56754999999998 357.38532000000004,140.48667999999998 C 358.11603,140.43186999999998 359.18647000000004,140.54056999999997 359.86081,140.76251 C 360.57105,140.99625999999998 361.30835,141.36262 362.66663,141.66667999999999 C 363.18079,141.78178999999997 364.31955,141.89996 364.92264,141.96000999999998 C 365.54154,142.02164 366.80637,142.1453 367.43463,142.25332999999998 C 368.67291,142.46624999999997 369.26980000000003,142.62975999999998 370.38113000000004,143.06699999999998 C 370.92416000000003,143.28063999999998 371.94452000000007,143.79245999999998 372.4338,144.05632999999997 C 372.91384,144.31519999999998 374.27526,145.08400999999998 375.1383,145.53831999999997 C 375.55187,145.75604999999996 376.34789,146.16494999999998 377.11331,146.51332999999997 C 378.1716,146.99499999999998 379.18847,147.37765999999996 379.8613,147.66131999999996 C 380.57276,147.96125999999995 381.74488,148.53973999999997 382.17197000000004,148.77064999999996 C 383.08643000000006,149.26506999999995 383.56192000000004,149.54260999999997 384.56614,150.10897999999997 C 385.08772,150.40313999999998 386.16581,151.00149999999996 386.72382000000005,151.30147999999997 C 387.9184,151.94371999999996 388.58619000000004,152.29436999999996 389.31247,152.68747999999997 C 390.11560000000003,153.12218999999996 391.0072,153.61017999999996 391.99597,154.16797999999997 C 394.33908,155.48981999999998 395.70511,156.28708999999998 397.19195,157.17731999999998 C 398.79617,158.13785 400.49172000000004,159.18462999999997 402.24996000000004,160.33330999999998 C 404.08690000000007,161.53340999999998 405.97256000000004,162.80805999999998 407.84795,164.20932 C 411.71712,167.10028 413.57131000000004,168.73130999999998 415.41997000000003,170.38398999999998 C 417.26982000000004,172.03775 419.06050000000005,173.73785999999998 420.81246000000004,175.43748999999997 C 422.53374,177.10736999999997 424.18657,178.76405999999997 425.79995,180.35598999999996 C 428.82546,183.34129999999996 430.24133,184.69238999999996 431.59728,185.94131999999996 C 432.87478,187.11798999999996 434.09948,188.20407999999998 435.2708,189.20831999999996 C 436.37584,190.15573999999995 437.43444,191.03294999999997 438.4493,191.84532999999996 C 440.32354,193.34561999999997 441.21154,194.01701999999997 442.05861,194.65732999999997 C 442.86897,195.26988999999998 443.6534,195.8489 444.41661,196.39582 C 445.15479999999997,196.92479999999998 445.87822,197.43033999999997 446.59461999999996,197.90931999999998 C 447.99278,198.84412999999998 448.69737,199.28207999999998 449.39863999999994,199.71199 C 450.09306999999995,200.13771 450.7866399999999,200.54729999999998 451.47910999999993,200.93748 C 452.1613899999999,201.32192999999998 452.8384199999999,201.68975 453.51462999999995,202.02797999999999 C 454.82501999999994,202.68341999999998 455.47693999999996,202.96242999999998 456.11994999999996,203.23197 C 456.75867999999997,203.49973 457.40568999999994,203.75176 458.06244999999996,203.99998 C 458.73233999999997,204.25315 459.42450999999994,204.50424999999998 460.13996,204.76799 C 461.66742999999997,205.33104 462.48582,205.6421 463.3386,205.96799 C 464.21983,206.30474999999998 465.12199,206.6523 466.04159999999996,206.99999 C 466.96997999999996,207.35099 467.90124999999995,207.70123999999998 468.83459999999997,208.03199 C 470.66207999999995,208.67957 471.55490999999995,208.96233 472.42661,209.22799 C 473.275,209.48653000000002 474.10537999999997,209.7219 474.91659999999996,209.93749 C 475.70545,210.14713 476.47540999999995,210.33894999999998 477.22659999999996,210.51198 C 478.66436999999996,210.84315999999998 479.3563,210.97939 480.02527999999995,211.11598 C 480.67197999999996,211.24803 481.29648999999995,211.37204 481.89579,211.49998 C 482.47117,211.62281 483.02218999999997,211.7422 483.54127,211.88397999999998 C 484.50544,212.14735 484.93791,212.31579999999997 485.34663,212.48263999999998 C 485.73957,212.64302999999998 486.11277,212.81581999999997 486.47911,212.97914999999998 C 486.83943,213.13980999999998 487.19621,213.30266999999998 487.56663,213.43063999999998 C 488.32480999999996,213.69259 488.74064,213.76506999999998 489.16261,213.82931 C 489.58612999999997,213.89379 490.00764,213.93242999999998 490.41661,213.95830999999998 C 490.80504,213.98288999999997 491.16591,213.99329999999998 491.49062,213.99730999999997 C 491.99993,214.00360999999998 492.17113,213.99997999999997 492.28929999999997,213.99997999999997 C 492.36147,213.99997999999997 492.39581,214.00116999999997 492.39581,213.99997999999997 C 492.39581,213.97614999999996 492.33014,213.99997999999997 492.27731,213.99997999999997 C 492.16662,213.99997999999997 492.12146,213.99997999999997 492.08529,213.99997999999997 C 492.05712,213.99997999999997 492.03596999999996,213.99997999999997 492.02081,213.99997999999997 C 492.01065,213.99997999999997 492.00444999999996,213.99997999999997 492.00131,213.99997999999997 C 491.99996999999996,213.99997999999997 491.99996999999996,213.99997999999997 491.99996999999996,213.99997999999997 C 491.99996999999996,213.99997999999997 491.99996999999996,213.99997999999997 491.99996999999996,213.99997999999997 C 491.99996999999996,213.99997999999997 491.99996999999996,213.99997999999997 491.99996999999996,213.99997999999997 C 491.99996999999996,213.99997999999997 491.99996999999996,213.99997999999997 491.99996999999996,213.99997999999997 C 491.99996999999996,213.99997999999997 491.99996999999996,213.99997999999997 491.99996999999996,213.99997999999997 C 491.99996999999996,213.99997999999997 491.99996999999996,213.99997999999997 491.89581,214.06247999999997 C 491.16661999999997,214.49999999999997 490.58374,214.87306999999996 489.80929,215.26531999999997 C 488.92336,215.71403999999998 488.44619,215.98948999999996 486.83331,216.33330999999998 C 486.28476,216.45024999999998 485.13806,216.48555 484.55331,216.46663999999998 C 483.95791,216.44737999999998 482.73849,216.33724999999998 482.11331,216.27998 C 480.83368,216.16276 480.17776000000003,216.11517 479.50662,216.08531 C 478.10049,216.02275 477.35415,216.01865999999998 476.5733,216.01065 C 475.7525,216.00223 474.88662,216.00066 472.99997,215.99998 C 471.97214,215.99961 470.89731,215.99998 469.78848,215.99998 C 468.65863,215.99998 467.52081,215.99998 466.38797,215.99998 C 465.27313,215.99998 464.1893,215.99998 462.16663,215.99998 C 461.25013,215.99998 460.39463,215.99998 459.59113,215.99998 C 458.83063000000004,215.99998 458.10413,215.99998 457.40265,215.99998 C 456.71713,215.99998 456.03864,215.99998 454.66663,215.99998 C 453.95746,215.99998 453.23331,215.99998 452.49915,215.99998 C 451.75998,215.99998 451.02081999999996,215.99998 450.28663,215.99998 C 449.56248,215.99998 448.85331,215.99998 447.49998,215.99998 C 446.86347,215.99998 446.24797,215.99998 445.64448,215.99998 C 445.04399,215.99998 444.43748,215.99998 443.81599,215.99998 C 443.17048,215.99998 442.49198,215.99998 440.99998,215.99998 C 440.17216,215.99998 439.29731,215.99998 438.38847,215.99998 C 437.45866,215.99998 436.52081999999996,215.99998 435.58799,215.99998 L 434.67313,215.99998 L 433.78931,215.99998" fill="none" id="svg_8" stroke="#000" stroke-width="2"/>
	<path d="M 367.0,275.0 C 378.0,271.16666 378.8736,270.82794 379.68668,270.48401 C 380.45520000000005,270.15894000000003 381.17676,269.83243 381.85416000000004,269.5 C 382.50336000000004,269.1814 383.71814000000006,268.53455 384.83335000000005,267.83334 C 385.3848300000001,267.4866 385.92710000000005,267.11798000000005 386.45634000000007,266.71582 C 387.5597000000001,265.87738 388.10411000000005,265.38065 388.6670000000001,264.85251 C 389.2619400000001,264.29431 390.5056800000001,263.00513 391.1636700000001,262.272 C 391.8553500000001,261.50133999999997 392.5525200000001,260.68694999999997 393.2546700000001,259.84799 C 393.96188000000006,259.00296 394.6540800000001,258.15368 395.32767000000007,257.31601 C 395.9793400000001,256.50562 397.16757000000007,255.0007 397.6925100000001,254.329 C 398.17417000000006,253.71267 398.6149300000001,253.14359000000002 399.01999000000006,252.616 C 399.39655000000005,252.12554 399.7471300000001,251.66436000000002 400.07752000000005,251.22701 C 400.39380000000006,250.80834000000002 401.00065000000006,250.00048 401.2996600000001,249.60001 C 401.5979700000001,249.20047 401.8910000000001,248.80001 402.1786900000001,248.4 L 402.7280100000001,247.60001 L 403.2293500000001,246.80001" fill="none" id="svg_9" stroke="#000" stroke-width="2"/>
	<path d="M 402.0,244.0 C 410.35751,247.30034 411.03491,247.59923 411.69916,247.909 C 412.36157000000003,248.21791 413.02222,248.53889999999998 413.68668,248.87199999999999 C 414.36393000000004,249.21151999999998 415.05594,249.56575999999998 416.5,250.33333 C 417.26486,250.73989999999998 418.04871,251.16538 418.84451,251.60083 C 419.64471000000003,252.0387 420.43823000000003,252.47784000000001 421.216,252.91333 C 421.97122,253.3362 422.69479,253.74184 424.0,254.5 C 424.57309,254.83289 425.08884,255.15056 425.5795,255.41499 C 426.469,255.89435999999998 426.89466,256.14144999999996 427.81867,256.33999 C 429.38346,256.67623 430.02421,256.55367 430.67682,256.53298 C 431.35901,256.51137 432.06275,256.46145 432.78134,256.40398 C 434.23651,256.28762 435.66659,256.16555 436.358,256.1205 C 437.03726,256.07625 437.71344,256.03841 438.392,255.97199 C 439.08423,255.90423 439.79752,255.80953 440.534,255.66149000000001 C 441.31266,255.50498000000002 443.00504,255.01391 443.92783,254.67165000000003 C 444.90826999999996,254.30802000000003 445.91452,253.88184000000004 446.94135,253.42665000000002 C 447.98224,252.96524000000002 449.01291,252.48192000000003 450.02683,252.00165 C 451.01157,251.5352 452.83228,250.6644 453.64966000000004,250.28565 C 454.40302,249.93656000000001 455.10459000000003,249.6202 455.75867000000005,249.32265 C 456.37525000000005,249.04218 456.96305000000007,248.77423000000002 457.52567000000005,248.50365000000002 C 458.07770000000005,248.23816000000002 459.16916000000003,247.67110000000002 459.72150000000005,247.35715000000002 C 460.28794000000005,247.03519000000003 460.8581300000001,246.69173 461.43601000000007,246.33866 C 462.0218300000001,245.98075 462.6100200000001,245.61364 463.20450000000005,245.24816 C 463.80069000000003,244.88163 464.99777000000006,244.16274 465.60101000000003,243.82116000000002 C 466.20578,243.47871 466.82489000000004,243.14413000000002 467.46399,242.81466000000003 C 468.12286,242.47500000000002 468.81433000000004,242.13513000000003 469.543,241.79015000000004 C 470.31024,241.42691000000005 471.99909,240.66455000000005 472.92767000000003,240.25750000000005 C 473.90036000000003,239.83111000000005 474.90670000000006,239.39845000000005 475.93066000000005,238.96000000000004 C 476.95803000000006,238.52010000000004 477.97625000000005,238.08721000000003 478.96966000000003,237.66250000000002 C 479.92553000000004,237.25384000000003 481.66781000000003,236.50260000000003 482.42767000000003,236.16450000000003 C 483.11572,235.85836000000003 483.73550000000006,235.57533000000004 484.29068,235.30799000000005 C 484.79334,235.06596000000005 485.24527,234.83678000000003 485.64966,234.61349000000004 C 486.02112,234.40837000000005 486.67935,234.01733000000004 487.22533999999996,233.60400000000004 C 487.91249999999997,233.08380000000005 488.72452,232.82353000000003 487.936,232.97866000000005 C 486.96792,233.16912000000005 486.27587,232.42306000000005 485.80749,232.29465000000005 C 484.65169999999995,231.97780000000006 483.94192,231.83963000000006 483.14416,231.70533000000006 C 482.25531,231.55569000000006 480.16748,231.32182000000006 478.96484,231.24299000000005 C 477.67276,231.15830000000005 476.30733999999995,231.10798000000005 474.88934,231.07200000000006 C 473.43765,231.03517000000005 471.9707,231.01838000000006 470.50784,231.00900000000007 C 469.06802,230.99977000000007 466.33333999999996,231.00000000000009 465.07115999999996,231.00000000000009 C 463.876,231.00000000000009 462.73483,231.00000000000009 461.63466999999997,231.00000000000009 C 460.56249999999994,231.00000000000009 459.50534,231.00000000000009 458.45016,231.00000000000009 C 457.38399999999996,231.00000000000009 455.16665,230.9990400000001 453.99316,231.00034000000008 C 452.77864999999997,231.00168000000008 451.53213,231.0051200000001 450.26266,231.02134000000007 C 448.97909,231.03774000000007 447.69039,231.06474000000006 446.40614999999997,231.11434000000006 C 445.13435999999996,231.16347000000005 442.66573,231.32377000000005 441.48515999999995,231.44268000000005 C 440.3336699999999,231.55868000000007 439.20586,231.70310000000006 438.09065999999996,231.85067000000006 C 436.97883999999993,231.99778000000006 435.86332999999996,232.15463000000005 434.73216999999994,232.29467000000005 C 433.57930999999996,232.43740000000005 431.16731999999996,232.67664000000005 429.89399999999995,232.75701000000007 C 428.58592999999996,232.83958000000007 427.25483999999994,232.89159000000006 425.91596999999996,232.92800000000005 C 424.58347999999995,232.96422000000004 423.27067999999997,232.98154000000005 421.99199,232.99100000000004 C 420.76133999999996,233.00009000000003 418.49998999999997,233.00000000000003 417.49415999999997,233.00000000000003 C 416.57331999999997,233.00000000000003 415.73249999999996,233.00000000000003 414.96666,233.00000000000003 C 414.27083,233.00000000000003 413.64,233.00000000000003 413.06914,233.00000000000003 C 412.55333,233.00000000000003 411.66664000000003,233.00000000000003 411.28649,233.00000000000003 C 410.94533,233.00000000000003 410.64217,233.00000000000003 410.37600000000003,233.00000000000003 C 410.14584,233.00000000000003 409.95065000000005,233.00000000000003 409.78948,233.00000000000003 C 409.66134000000005,233.00000000000003 409.46599000000003,232.96600000000004 409.46599000000003,233.00000000000003 C 409.46599000000003,233.00198000000003 409.51198000000005,233.00000000000003 409.60399,233.00000000000003 C 409.74999,233.00000000000003 409.95598,233.00000000000003 410.22798,233.00000000000003 C 410.57197,233.00000000000003 411.49998,233.00171000000003 412.09416,232.99933000000001 C 412.77333,232.99661 413.5327,232.98842000000002 414.36665,232.95734000000002 C 415.2711,232.92363 416.24095,232.86705 417.26914999999997,232.77134 C 418.35447999999997,232.67031 420.66913999999997,232.34678 421.88581999999997,232.11417 C 423.14271999999994,231.87387 424.42585999999994,231.58294 425.73332,231.26667 C 427.06425,230.94472000000002 428.40711999999996,230.59505000000001 429.76081999999997,230.23917 C 431.12044,229.88173 433.83228999999994,229.16256 435.17848,228.82184 C 436.51362,228.48392 437.84141,228.16016000000002 439.16398,227.85733000000002 C 440.47778999999997,227.55652 441.78772999999995,227.27473 443.09547,227.01883 C 444.39714,226.7641 446.99879,226.32503 448.30116,226.14267 C 449.60819999999995,225.95966 450.93107,225.80183000000002 452.27464,225.65067000000002 C 453.64543,225.49643000000003 455.05213999999995,225.35067 456.50012999999996,225.19468 C 457.99746999999996,225.03338 461.16727,224.67170000000002 462.84863999999993,224.45718 C 464.58331999999996,224.23585 466.35122999999993,223.99424 468.1346499999999,223.73866999999998 C 469.9172099999999,223.48322 471.6792699999999,223.21853 473.4026599999999,222.94816999999998 C 475.07123999999993,222.68640999999997 478.1671899999999,222.16974 479.5629699999999,221.92199999999997 C 480.8578299999999,221.69216999999998 482.0572899999999,221.46868999999998 483.1719799999999,221.26800999999998 C 484.2079899999999,221.08148999999997 485.17340999999993,220.91061999999997 486.0789899999999,220.77600999999999 C 486.92819999999995,220.64977 488.49945999999994,220.48723999999999 489.2349699999999,220.46435 C 489.93970999999993,220.44242 490.6153999999999,220.45895 491.2599899999999,220.49734 C 491.8754999999999,220.53399000000002 492.4602799999999,220.59326000000001 493.0149899999999,220.65634 C 493.5402899999999,220.71608 494.4996699999999,220.83647 494.9349699999999,220.87851 C 495.3396899999999,220.9176 495.7148499999999,220.94513 496.0599699999999,220.96402 C 496.3748799999999,220.98126 496.6599499999999,220.99063 496.9149799999999,220.99551 C 497.1399599999999,220.99981 497.4999699999999,221.00001 497.6354699999999,221.00001 C 497.7439599999999,221.00001 497.8284599999999,221.00001 497.8919699999999,221.00001 C 497.9374699999999,221.00001 497.9679599999999,221.00001 497.9864799999999,221.00001 C 497.99596999999994,221.00001 497.9999699999999,221.00001 497.9981399999999,221.00001 C 497.9852899999999,221.00001 497.95046999999994,221.00001 497.88262999999995,221.00001 C 497.7708099999999,221.00001 497.60396999999995,221.00001 497.37111999999996,221.00001 C 497.06130999999993,221.00001 496.16661999999997,221.00001 495.56346999999994,221.00001 C 494.86128999999994,221.00001 494.0711299999999,221.00001 493.2039699999999,221.00001 C 492.2707999999999,221.00001 491.2826099999999,221.00001 490.2504499999999,221.00001 C 489.1852899999999,221.00001 486.9999599999999,221.00149 485.8984599999999,220.99951000000001 C 484.7879599999999,220.99751 483.6593499999999,220.99205 482.5039599999999,220.96802000000002 C 481.3123399999999,220.94322000000003 480.0754899999999,220.90053000000003 478.7854499999999,220.82852000000003 C 477.4314499999999,220.75294000000002 474.4990399999999,220.50873 472.9077899999999,220.33568000000002 C 471.2416199999999,220.15448000000004 469.5207699999999,219.93842000000004 467.76127999999994,219.70268000000002 C 465.97837999999996,219.46380000000002 464.19148999999993,219.20712 462.41679999999997,218.94368000000003 C 460.67015999999995,218.68440000000004 457.33311999999995,218.16792000000004 455.77311999999995,217.92168000000004 C 454.29176999999993,217.68785000000003 452.88859999999994,217.46289000000004 451.56260999999995,217.24669000000003 C 450.31226999999996,217.04282000000003 449.13706999999994,216.84786000000003 448.0361199999999,216.66168000000002 C 447.00776999999994,216.48778000000001 445.16648999999995,216.16740000000001 444.3506299999999,216.02168000000003 C 443.5984899999999,215.88734000000002 442.9047699999999,215.76075000000003 442.2626199999999,215.64668000000003 C 441.6667599999999,215.54083000000003 441.1110699999999,215.44388000000004 440.5886099999999,215.36168000000004 C 440.0950199999999,215.28403000000003 439.1669799999999,215.16277000000002 438.7221199999999,215.12152000000003 C 438.2909699999999,215.08154000000002 437.87522999999993,215.05463000000003 437.4786199999999,215.03601000000003 C 437.10419999999993,215.01843000000002 436.7546499999999,215.00935000000004 436.4331199999999,215.00452000000004 C 436.1426499999999,215.00016000000005 435.6665799999999,214.99797000000004 435.4871099999999,215.00052000000005 C 435.35059999999993,215.00246000000004 435.23673999999994,214.99034000000006 435.21861999999993,215.03201000000004 C 435.2057699999999,215.06160000000006 435.2932399999999,215.11084000000005 435.41810999999996,215.17151000000004 C 435.60063999999994,215.26018000000005 436.16664999999995,215.49991000000003 436.55114,215.66486000000003 C 437.00268,215.85857000000004 437.51827,216.08014000000003 438.09463,216.32935000000003 C 438.7293,216.60378000000003 439.41864,216.90403000000003 440.16012,217.22785000000005 L 440.95062,217.57468000000006" fill="none" id="svg_10" stroke="#000" stroke-width="2"/>
	<path d="M 293.0,122.0 C 295.19949,129.69167 295.55972,130.60574 295.9375,131.29167 C 296.31763,131.98186 296.6571,131.43730000000002 297.504,131.17067 C 298.12921,130.97382 299.68332000000004,131.85826 300.17118,131.0 C 300.33468999999997,130.71234 300.00001,129.89348999999999 300.00001,128.884 C 300.00001,128.16267 300.00001,126.99999999999999 299.95734999999996,127.05332999999999 C 299.33338999999995,127.83334999999998 298.86469999999997,128.41816 298.30933999999996,129.11598999999998 C 298.02052,129.47890999999998 295.71995,130.23019 296.62534999999997,131.28932999999998 C 296.99393999999995,131.7205 298.16673,131.00596 298.99336,130.99599999999998 C 299.48674,130.99004999999997 300.58406,130.94586999999999 301.16667,130.89199999999997 C 301.76088,130.83703999999997 303.50737000000004,130.52235999999996 304.03468000000004,130.33616999999998 C 305.02156,129.98771999999997 305.84233000000006,129.53521999999998 306.50068000000005,129.11517999999998 C 307.30448000000007,128.60234999999997 307.78178,127.77002999999998 308.11067,127.18399999999998 C 308.49586000000005,126.49764999999998 309.96348,125.84180999999998 309.45335,124.70799999999998 C 309.19899,124.14263999999999 307.66053,124.34734999999998 306.86668,124.13466999999999 C 306.43778999999995,124.01976999999998 305.54713,123.67772999999998 304.16666999999995,123.66666999999998 C 303.27896999999996,123.65954999999998 302.81916999999993,123.78408999999998 301.97916999999995,124.18750999999999 C 301.05243999999993,124.63257999999999 300.60783,125.00527 299.66666999999995,125.83335 C 299.14475999999996,126.29254999999999 298.62934999999993,126.81638 298.10817,127.37234 C 297.57448,127.94163999999999 297.05537,128.53581 296.55866999999995,129.14535 C 296.0697799999999,129.74531000000002 294.8216699999999,131.49307000000002 294.50785999999994,132.03518 C 294.21842999999996,132.53518 293.75031999999993,133.45533 293.52534999999995,134.29601 C 293.33296999999993,135.01491 293.0823899999999,136.35772 293.58534999999995,137.07067 C 294.04112999999995,137.71673 295.17015999999995,137.65623 295.99336999999997,137.93601 C 296.48884999999996,138.10441 297.58165999999994,138.50507000000002 298.16668,138.69867000000002 C 298.75835,138.89447 299.33279,139.18387 301.03451,139.41417 C 301.99475,139.54413000000002 302.81253000000004,139.4375 303.44354,139.33917000000002 L 303.68737999999996,139.00450000000004" fill="none" id="svg_11" stroke="#000" stroke-width="2"/>
</svg>
