<?xml version="1.0" ?>
<svg baseProfile="full" height="480" version="1.1" width="640" xmlns="http://www.w3.org/2000/svg" xmlns:ev="http://www.w3.org/2001/xml-events" xmlns:xlink="http://www.w3.org/1999/xlink">
	<defs/>
	<path d="M 327.0,136.0 C 322.87149,135.05716 321.89966,135.0 321.02933,135.0 C 320.232,135.0 319.25067,135.0 318.33335,135.0 C 317.50001,135.0 316.45734,135.0 315.74934,135.0 C 315.00535,135.0 313.968,135.0 313.03202000000005,135.0 C 312.22935000000007,135.0 311.45835000000005,135.0 310.59733000000006,135.0 C 309.40135000000004,135.0 308.81068000000005,135.0 307.95716000000004,135.0 C 306.684,135.0 306.00001000000003,135.0 304.83335000000005,135.0 C 304.04285000000004,135.0 303.47916000000004,135.0 302.59867,135.0 C 301.40134,135.0 300.81068000000005,135.0 299.95716000000004,135.0 C 298.684,135.0 298.00001000000003,135.0 296.83335000000005,135.0 C 296.04285000000004,135.0 295.47916000000004,134.99951 294.59867,135.0 C 293.40134,135.00067 292.80717000000004,134.96687 291.95716000000004,135.05716 C 290.91444000000007,135.16791 290.04316000000006,135.57823000000002 289.00001000000003,135.83333000000002 C 288.22282,136.02338000000003 286.482,134.99735 286.48268,136.00000000000003 C 286.48302,136.49066000000002 288.00535,136.00000000000003 288.74934,136.00000000000003 C 289.66667,136.00000000000003 290.65068,136.00000000000003 291.54301000000004,136.00000000000003 C 292.27201,136.00000000000003 293.10902000000004,136.00427000000002 294.29966,135.99983000000003 C 294.891,135.99762000000004 295.76707,136.12660000000002 296.857,135.77867000000003 C 297.62247,135.53432000000004 298.41016,135.01800000000003 299.32151000000005,135.00000000000003 C 300.21049000000005,134.98244000000003 301.20002000000005,135.00000000000003 302.00001000000003,135.00000000000003 C 303.00001000000003,135.00000000000003 303.78935,135.00000000000003 304.51469000000003,135.00000000000003 C 305.47917,135.00000000000003 306.42134000000004,135.00000000000003 307.33335000000005,135.00000000000003 C 308.25068000000005,135.00000000000003 308.99467000000004,135.00000000000003 310.0306800000001,135.00000000000003 C 310.74818000000005,135.00000000000003 311.65269000000006,135.00000000000003 312.5160000000001,135.00000000000003 C 313.52085000000005,135.00000000000003 314.5426700000001,135.00000000000003 315.2506800000001,135.00000000000003 C 315.9946700000001,135.00000000000003 317.0293400000001,135.00000000000003 318.0000100000001,135.00000000000003 C 318.75718000000006,135.00000000000003 319.6571800000001,135.00000000000003 320.6013300000001,135.00000000000003 C 321.6045000000001,135.00000000000003 322.2360300000001,134.99225000000004 323.42118000000005,135.00017000000003 C 324.21473000000003,135.00548000000003 325.02732000000003,134.92714000000004 326.0306800000001,135.28400000000002 C 326.78843000000006,135.5535 327.65159000000006,135.96032000000002 328.34733000000006,135.99550000000002 C 329.36305000000004,136.04688000000002 330.08799000000005,136.45189000000002 330.52085000000005,137.02083000000002 C 331.14930000000004,137.84685000000002 331.78876,138.43453000000002 332.5160000000001,138.71333 C 333.5508200000001,139.11006 334.4382700000001,138.91510000000002 335.3213300000001,139.22166 C 336.0301600000001,139.46774000000002 336.8726000000001,140.13690000000003 337.3640200000001,140.82533 C 337.8381400000001,141.48953 338.2493300000001,142.32278 338.9706800000001,142.79866 C 339.7162900000001,143.29054000000002 340.5439800000001,143.44340000000003 341.2320000000001,143.88533 C 342.2589500000001,144.54494 342.5911300000001,145.15683 342.9159900000001,146.11467000000002 C 343.21152000000006,146.98605 343.74601000000007,147.69235 344.6526800000001,147.95183000000003 C 345.3375600000001,148.14783000000003 346.1644300000001,148.53713000000002 346.5893300000001,149.22133000000002 C 347.1716100000001,150.15891000000002 347.3894400000001,151.10562000000002 348.1666600000001,151.66667 C 348.7513200000001,152.08870000000002 349.6318700000001,152.16263 350.2428300000001,153.0625 C 350.6803000000001,153.70685 350.9092100000001,154.73256 351.41068000000007,155.328 C 352.06223000000006,156.10167 352.87980000000005,156.33984 353.5160000000001,156.88533 C 354.32087000000007,157.57542 354.5821900000001,158.21439 355.10035000000005,159.20000000000002 C 355.41700000000003,159.80231 355.92957000000007,160.64328 356.76801000000006,161.39867 C 357.22934000000004,161.8143 358.00840000000005,162.32459 358.8571800000001,162.9785 C 359.4896900000001,163.4658 360.2004700000001,163.9521 360.8146700000001,164.42134 C 361.4705200000001,164.92240999999999 361.89078000000006,166.00522999999998 362.0146800000001,166.74933 C 362.1674200000001,167.66654999999997 362.5754400000001,168.36347999999998 363.2955000000001,168.95182999999997 C 363.9726500000001,169.50513999999998 364.91968000000014,170.97390999999996 364.0000000000001,171.34266999999997 C 363.7750200000001,171.43287999999998 363.1520700000001,170.77255999999997 362.6955000000001,169.93749999999997 C 362.3250200000001,169.25991999999997 361.8683500000001,168.29848999999996 361.3428400000001,167.80532999999997 C 360.63907000000006,167.14490999999998 359.79203000000007,166.46410999999998 359.4000000000001,165.99465999999998 C 358.7873600000001,165.26102999999998 358.4414100000001,164.72440999999998 357.6013200000001,163.968 C 356.8699700000001,163.30951 356.1484400000001,162.67768999999998 355.7481700000001,161.99465999999998 C 355.3187900000001,161.26194999999998 355.1190200000001,160.66855999999999 354.2320000000001,159.96932999999999 C 353.5578100000001,159.43787999999998 352.67777000000007,159.22107 351.9706800000001,158.51466 C 351.32700000000006,157.87159 351.01966000000004,156.98961 350.5893300000001,156.19998999999999 C 350.25779000000006,155.59161999999998 349.5376300000001,154.57929 348.9791600000001,154.02082 C 348.4207200000001,153.46238 347.6116700000001,152.86541 347.0000000000001,152.52082 C 346.0176700000001,151.96740999999997 345.3527800000001,151.75893 344.6000100000001,151.18565999999998 C 343.7392900000001,150.53018999999998 343.4229200000001,149.97387999999998 342.7640100000001,149.28665999999998 C 342.3319700000001,148.83606999999998 341.3269100000001,148.21496 340.5208500000001,148.04165999999998 C 339.7763700000001,147.8816 338.6548800000001,147.58377 338.0000100000001,146.99998999999997 C 337.3093400000001,146.38430999999997 336.67588000000006,145.82017999999997 335.9946700000001,145.35182999999998 C 335.2603600000001,144.84695999999997 334.3519700000001,144.28088999999997 333.6506800000001,144.06132999999997 C 332.6867500000001,143.75952999999998 331.9912300000001,143.62609999999998 331.1787000000001,143.42532999999997 C 330.0071900000001,143.13585999999998 329.4040400000001,143.06399999999996 328.5416800000001,143.02082 C 327.7714200000001,142.98225 326.6391800000001,143.04969999999997 325.6666800000001,142.83332 C 324.9794500000001,142.68041 324.1778800000001,142.42167999999998 323.1666800000001,141.83332 C 322.4223300000001,141.40023 321.7999200000001,140.81724999999997 321.3160300000001,140.56932999999998 C 320.35637000000014,140.07764999999998 319.47716000000014,140.03670999999997 318.5986800000001,139.91732 C 317.6980100000001,139.79491 316.8233500000001,139.56725 316.0143600000001,139.35264999999998 C 314.9705100000001,139.07574999999997 314.1945700000001,139.01439 313.2320100000001,138.99865999999997 C 312.4998600000001,138.98669999999998 311.3293000000001,138.84380999999996 310.65068000000014,138.57464999999996 C 309.66051000000016,138.18188999999995 308.98134000000016,138.11656999999997 308.25069000000013,137.93864999999997 C 307.1124800000001,137.66148999999996 306.69219000000015,136.84198999999995 306.0000200000001,136.33331999999996 C 305.29369000000014,135.81425999999996 304.2320100000001,135.99998999999997 303.5000200000001,135.99998999999997 C 302.7680300000001,135.99998999999997 301.66137000000015,135.99998999999997 300.6785200000001,135.99998999999997 C 299.9791800000001,135.99998999999997 299.0000200000001,135.99998999999997 298.2000300000001,135.99998999999997 C 297.40001000000007,135.99998999999997 296.40001000000007,135.99998999999997 295.6000200000001,135.99998999999997 C 294.6000200000001,135.99998999999997 293.80000000000007,135.99998999999997 292.80000000000007,135.99998999999997 C 292.0000100000001,135.99998999999997 291.0000100000001,135.99998999999997 290.20002000000005,135.99998999999997 C 289.40000000000003,135.99998999999997 288.21049000000005,135.98432999999997 287.48533000000003,135.99998999999997 C 286.52018000000004,136.02082999999996 285.86830000000003,136.62719999999996 285.36402000000004,137.14932999999996 C 284.60831,137.93181999999996 283.76041000000004,137.84814999999998 282.88535,138.28532999999996 C 282.11887,138.66825999999995 281.58936,139.41066999999995 280.83335,140.16665999999995 C 280.34733,140.65266999999994 279.82535,141.17465999999996 279.02152,141.97848999999994 C 278.41068,142.58932999999993 277.66828,143.11885999999993 277.28534,143.88531999999995 C 276.84815000000003,144.76037999999994 276.93179000000003,145.60830999999996 276.14932000000005,146.36398999999994 C 275.62719000000004,146.86822999999995 275.06473000000005,147.53582999999995 274.71600000000007,148.48398999999995 C 274.45733000000007,149.18727999999996 274.08984000000004,150.11510999999996 274.00000000000006,150.99999999999994 C 273.91873000000004,151.80042999999995 273.3519600000001,152.46981999999994 273.08533000000006,153.48398999999995 C 272.90869000000004,154.15584999999996 273.00000000000006,155.25182999999996 273.00000000000006,155.96932999999996 C 273.00000000000006,157.00982999999997 273.00000000000006,157.78533999999996 273.00000000000006,158.83332999999996 C 273.00000000000006,159.54282999999995 273.00000000000006,160.39548999999997 273.00000000000006,161.39866999999995 C 273.00000000000006,162.16400999999996 273.00000000000006,163.24282999999994 273.00000000000006,164.10017999999997 C 273.00000000000006,164.88533999999996 273.00000000000006,165.82533999999995 273.00000000000006,166.83332999999996 C 273.00000000000006,167.58933999999996 273.00000000000006,168.52082999999996 273.00000000000006,169.48399999999995 C 273.00000000000006,170.17466999999996 273.00000000000006,171.24282999999994 273.00000000000006,172.10017999999997 C 273.00000000000006,172.88533999999996 272.97601000000003,173.82562999999996 273.00000000000006,174.83332999999996 C 273.01801000000006,175.58997999999997 273.37595000000005,176.48925999999997 274.20132000000007,176.91732999999996 C 274.84841000000006,177.25294999999997 275.6643000000001,177.69747999999996 276.3473200000001,178.35183999999995 C 276.9894700000001,178.96706999999995 277.40118000000007,179.68372999999994 278.00000000000006,180.47916999999995 C 278.44336000000004,181.06809999999996 279.55887000000007,180.75415999999996 280.29016000000007,181.11432999999997 C 281.04568000000006,181.48642999999996 281.1152000000001,182.79393999999996 281.80133000000006,182.99732999999998 C 282.68106000000006,183.25809999999998 283.2546700000001,183.71599999999998 284.06250000000006,183.94732999999997 L 284.9991800000001,184.05267999999995 L 285.8573300000001,184.22166999999996 L 286.65066000000013,184.64666999999997" fill="none" id="svg_1" stroke="#000" stroke-width="2"/>
	<path d="M 274.0,153.0 C 268.57333,153.0 267.89334,153.0 267.02335,153.0 C 265.96799,153.0 265.19468,153.0 264.23066,153.0 C 263.47916,153.0 262.68269,153.0 261.684,153.0 C 260.77467,153.0 259.83335000000005,153.0 259.04286,153.0 C 258.18934,153.0 257.00001000000003,153.0 256.40269,153.0 C 255.54168,153.0 254.32856,152.93729 253.64001000000002,153.02133 C 252.936,153.10725 251.94723000000002,153.56628 251.32402000000002,153.85066 C 250.35680000000002,154.29201 249.51291,154.70881 248.68668000000002,154.93866 C 247.67975,155.21877 246.99709000000001,155.36092 246.25069000000002,155.57466 C 245.14629000000002,155.89091 244.36995000000002,155.9783 243.51603000000003,156.284 C 242.63415000000003,156.59969999999998 241.64056000000002,156.77784 241.00002000000003,157.33333 C 240.36692000000002,157.88236999999998 239.64528000000004,158.94785 240.08669000000003,159.71332999999998 C 240.48981000000003,160.41241 241.78039000000004,160.25621999999998 242.52085000000002,160.54166999999998 C 243.33077000000003,160.85389999999998 244.08616000000004,161.31115999999997 244.77470000000002,161.82532999999998 C 245.46029000000001,162.33730999999997 246.41226000000003,162.99814999999998 246.95720000000003,163.24282999999997 C 247.79753000000002,163.62014999999997 248.41170000000002,163.76928999999996 249.59737000000004,164.20266999999998 C 250.46646000000004,164.52033999999998 251.08768000000003,164.70728 251.85736000000003,165.5425 C 252.43581000000003,166.17019 252.68075000000002,167.0989 253.54286000000002,167.63566999999998 C 254.19356000000002,168.04080999999996 255.07266,167.94975999999997 256.07818000000003,168.22167 C 256.96337000000005,168.46103 257.67242000000005,169.16415999999998 257.96002000000004,169.82533999999998 C 258.25934000000007,170.51343999999997 259.05646,171.25536 259.76004000000006,171.58935 C 260.6592100000001,172.01614999999998 261.35605000000004,172.39207 262.1666900000001,173.16667999999999 C 262.66361000000006,173.64151999999999 263.17469000000006,174.17468 263.97852000000006,174.97850999999997 C 264.58936000000006,175.58934999999997 265.2013600000001,176.20134999999996 265.75721000000004,176.75717999999998 C 266.48405,177.48399999999998 267.00004000000007,178.00000999999997 267.83338000000003,178.83333999999996 C 268.36405,179.36400999999995 268.91602000000006,180.11217999999997 269.63602000000003,180.56400999999997 C 270.41312000000005,181.05166999999997 271.51078,180.95217999999997 271.88571,181.70984999999996 C 272.24725,182.44045999999997 272.15646000000004,183.43456999999995 272.64737,184.05267999999995 C 273.13861,184.67122999999995 272.88147000000004,185.67320999999995 273.08536000000004,186.51600999999997 C 273.30017000000004,187.40400999999997 273.91602000000006,188.20133999999996 274.08405000000005,188.88532999999995 L 274.45737,189.82532999999995 L 274.97202000000004,190.51599999999996" fill="none" id="svg_2" stroke="#000" stroke-width="2"/>
	<path d="M 274.0,184.0 C 274.0,188.133 274.0,189.16667 274.0,190.0 C 274.0,190.9785 274.0,191.79866 274.0,192.672 C 274.0,193.54267 273.99771,194.25066999999999 274.0,195.232 C 274.00226,196.19469 274.0658,196.97324 274.35266,198.00535 C 274.56058,198.7534 274.89755,199.65797 274.97916000000004,200.50001 C 275.07975000000005,201.53802000000002 274.9972,202.25068000000002 275.00000000000006,202.99467 C 275.00452000000007,204.19021 275.14319000000006,204.90237000000002 275.70532000000003,205.65718 C 276.12915000000004,206.22627 276.79150000000004,207.19127 276.97915,208.00001 C 277.20913,208.99110000000002 277.39547,209.57972 277.716,210.51467 C 278.00293,211.35165 277.98922,212.30456999999998 278.0,213.16667999999999 C 278.01044,214.00020999999998 278.27435,214.94955 278.64734,215.69549999999998 C 279.03652999999997,216.47386999999998 278.91736,217.46249999999998 279.33333999999996,218.16667999999999 C 279.76268999999996,218.8935 280.37578999999994,219.32429 281.11333999999994,220.11468 C 281.73409999999996,220.7799 282.02532999999994,221.63601 282.2879899999999,222.48399999999998 L 282.6826699999999,223.17467" fill="none" id="svg_3" stroke="#000" stroke-width="2"/>
	<path d="M 355.0,167.0 C 357.01883,168.89467 357.86224,169.02678 358.48801,169.168 C 359.53103999999996,169.40338 360.25622999999996,169.7014 361.0,170.02083000000002 C 361.75104,170.34337000000002 362.83087,170.83939 363.51199,171.11467000000002 C 364.43420000000003,171.4874 365.27029000000005,171.72498000000002 366.19467000000003,172.30450000000002 C 366.83871000000005,172.70828000000003 367.54678,173.31587000000002 368.25067,173.83599 C 368.75229,174.20667 369.68854,174.98142 370.19467000000003,175.60000000000002 C 370.67190000000005,176.18324 371.31424000000004,177.02229000000003 372.00534000000005,177.59550000000002 C 372.48718,177.99514000000002 373.26398000000006,178.47456000000003 374.1856700000001,179.24282000000002 C 374.8205300000001,179.77199000000002 375.40537000000006,180.42976000000002 375.9706700000001,180.88532000000004 C 376.7470100000001,181.51096000000004 377.5076000000001,181.98935000000003 378.2319900000001,182.51600000000005 C 379.0393300000001,183.10294000000005 379.59237000000013,183.62231000000006 380.4853200000001,184.20133000000004 C 381.0085100000001,184.54061000000004 382.0086400000001,185.15618000000003 382.6000100000001,185.65265000000005 C 383.2091100000001,186.16402000000005 383.9884100000001,186.85069000000004 384.5954900000001,187.24281000000005 C 385.3294400000001,187.71689000000003 386.2461200000001,188.31163000000004 386.8098500000001,188.75715000000005 C 387.5354400000001,189.33059000000006 388.2558900000001,189.81796000000006 388.9946600000001,190.34731000000005 C 389.8635600000001,190.96988000000005 390.46719000000013,191.53573000000006 391.33334000000013,191.99997000000005 C 391.9836100000001,192.34850000000006 392.8171400000001,192.53307000000004 393.6666500000001,193.16664000000006 C 394.2391000000001,193.59357000000006 394.68740000000014,194.40633000000005 395.1001500000001,195.19997000000006 C 395.5172000000001,196.00188000000006 395.8458500000001,196.63123000000007 396.4853100000001,197.39864000000006 C 396.9908900000001,198.00539000000006 397.9942200000001,198.84174000000004 398.5909900000001,199.24280000000005 C 399.2791600000001,199.70529000000005 399.9013200000001,200.44304000000005 400.3333300000001,201.33330000000004 C 400.6730500000001,202.03337000000005 401.0417300000001,202.52992000000003 401.5173200000001,203.40264000000005 C 401.9999600000001,204.28828000000004 402.3542600000001,205.18273000000005 402.5893100000001,205.72797000000006 C 403.0799700000001,206.86621000000005 403.53471000000013,207.48938000000007 404.16664000000014,208.33330000000007 C 404.66374000000013,208.99716000000006 404.9900000000001,209.50710000000007 405.51597000000015,210.23197000000008 C 406.10233000000017,211.04008000000007 406.71934000000016,211.78554000000008 406.91596000000015,212.76798000000008 C 407.06055000000015,213.49045000000007 406.94724000000014,214.28202000000007 407.35715000000016,215.19014000000007 C 407.69562000000013,215.93997000000007 408.2979500000002,216.66536000000008 408.75714000000016,217.46164000000007 C 409.3132600000002,218.42604000000009 409.67505000000017,218.94223000000008 410.1386400000002,219.81064000000006 C 410.44894000000016,220.39189000000007 410.8464000000002,221.59596000000008 410.93863000000016,222.18930000000006 C 411.07080000000013,223.03958000000006 411.1749300000002,224.09531000000007 411.52081000000015,224.97914000000006 C 411.7686400000002,225.61241000000007 412.28045000000014,226.61388000000005 412.63595000000015,227.19997000000006 C 413.13381000000015,228.02079000000006 413.67663000000016,228.58539000000007 414.1746200000002,229.23597000000007 C 414.8676700000002,230.14137000000005 415.25665000000015,230.95153000000008 415.4791200000002,231.52081000000007 C 415.8200600000002,232.39325000000008 416.2055900000002,233.59643000000005 416.3893100000002,234.18931000000006 C 416.6528300000002,235.03976000000006 416.8715500000002,236.07994000000005 416.9852900000002,236.78532000000007 C 417.1023200000002,237.51106000000007 417.4323100000002,238.64712000000006 417.7098100000002,239.30981000000008 C 418.00955000000016,240.0256300000001 418.36661000000015,240.74534000000008 418.83331000000015,241.8333100000001 C 419.12390000000016,242.51074000000008 419.4832700000002,243.4777200000001 419.69546000000014,244.0954900000001 C 420.1081800000001,245.2970700000001 420.26315000000017,245.9124000000001 420.63595000000015,246.7639900000001 C 421.11468000000013,247.8575600000001 421.4979500000002,248.3051100000001 421.97912000000014,248.99998000000008 C 422.44570000000016,249.67379000000008 422.85528000000016,250.68130000000008 422.97912000000014,251.52081000000007 C 423.10851000000014,252.39789000000007 423.1912800000001,253.30764000000008 423.4359700000001,254.18931000000006 C 423.6752300000001,255.05146000000008 424.0246800000001,255.82357000000007 424.38931000000014,256.78532000000007 C 424.6614000000001,257.5030300000001 424.8829000000001,258.64238000000006 424.95181000000014,259.3098300000001 C 425.0251700000001,260.0204000000001 425.02978000000013,260.7715000000001 425.33331000000015,261.8333300000001 C 425.62899000000016,262.8677500000001 426.0247200000002,263.46791000000013 426.29464000000013,264.0954800000001 C 426.80450000000013,265.28081000000014 426.9186300000001,265.90178000000014 426.9786300000001,266.8359900000001 C 427.0202600000001,267.4842400000001 426.9999600000001,268.88265000000007 426.9999600000001,269.6146500000001 C 426.9999600000001,270.3386500000001 426.9999600000001,271.0306700000001 426.9999600000001,272.2306500000001 C 426.9999600000001,273.2146600000001 426.9999600000001,274.16665000000006 426.9999600000001,274.95715000000007 C 426.9999600000001,275.8106700000001 426.9873900000001,276.4014200000001 427.0013000000001,277.59866000000005 C 427.0115500000001,278.47931000000005 427.0265700000001,279.32815000000005 427.2839500000001,280.31466000000006 C 427.46034000000014,280.99075000000005 427.8809300000001,281.99365000000006 427.9639400000001,282.79998000000006 C 428.0459400000001,283.59655000000004 427.99995000000007,284.6044800000001 427.99995000000007,285.45715000000007 C 427.99995000000007,286.4213200000001 427.99995000000007,287.2253400000001 427.99995000000007,288.04733000000004 C 427.99995000000007,289.07867000000005 427.99995000000007,290.00000000000006 427.99995000000007,290.68399000000005 C 427.99995000000007,291.68268000000006 427.99995000000007,292.47916000000004 427.99995000000007,293.66666000000004 C 427.99995000000007,294.34934000000004 427.99995000000007,295.33335000000005 427.99995000000007,296.27201 C 427.99995000000007,296.82133000000005 427.99995000000007,298.00001000000003 427.99995000000007,298.89551 C 427.99995000000007,299.76401 427.99995000000007,300.31467 427.99995000000007,301.54733 C 427.99995000000007,302.22533999999996 427.99995000000007,303.42151 427.99995000000007,304.23599 C 427.99995000000007,304.81067 428.01448000000005,306.00018 427.9954600000001,306.89099 C 427.9775800000001,307.72839 427.8332900000001,308.66666 427.49995000000007,309.5 C 427.16661000000005,310.33334 427.09199000000007,311.0173 426.9386100000001,311.78534 C 426.7265700000001,312.84711000000004 426.2871500000001,313.54526000000004 425.8146200000001,314.22534 C 425.1625200000001,315.16382000000004 424.7432700000001,315.95154 424.5208000000001,316.52084 C 424.17986000000013,317.39328 423.9283600000001,318.31073000000004 423.57863000000015,319.18933000000004 C 423.34676000000013,319.77185000000003 422.6870000000001,320.85251000000005 422.23195000000015,321.31601000000006 C 421.53011000000015,322.0308800000001 420.91930000000013,322.38248000000004 420.14278000000013,323.42151000000007 C 419.7652200000001,323.9267300000001 419.39717000000013,324.81619000000006 419.1173000000001,325.40134000000006 C 418.5389300000001,326.61060000000003 418.1805000000001,327.20047000000005 417.78930000000014,327.76401000000004 C 417.03137000000015,328.85584000000006 416.6012200000001,329.31711 415.99996000000016,330.00000000000006 C 415.60079000000013,330.45340000000004 414.79223000000013,331.4158300000001 414.39995000000016,331.95715000000007 C 413.78777000000014,332.8019700000001 413.40328000000017,333.4035600000001 412.79979000000014,334.29983000000004 C 412.3976900000001,334.89700000000005 411.78624000000013,335.78295 411.31462000000016,336.31466000000006 C 410.61067000000014,337.10830000000004 410.04280000000017,337.54192000000006 409.2253000000002,338.2253400000001 C 408.68093000000016,338.6804200000001 407.90355000000017,339.4064900000001 407.45711000000017,339.95715000000007 C 406.7828200000002,340.78888000000006 406.40200000000016,341.40179000000006 405.79994000000016,342.29983000000004 C 405.40040000000016,342.89581000000004 404.81025000000017,343.77166000000005 404.39995000000016,344.31466000000006 C 403.8143200000002,345.08968000000004 403.2103700000002,345.78634000000005 402.54280000000017,346.3955000000001 C 401.8542600000002,347.02377000000007 401.0461000000002,347.5925500000001 400.5208000000002,347.9999900000001 C 399.7609400000002,348.5893500000001 399.1368600000002,349.1953900000001 398.49996000000016,349.9999900000001 C 398.02767000000017,350.59661000000006 397.22796000000017,351.39733000000007 396.71731000000017,351.7786500000001 L 396.14263000000017,352.1279800000001" fill="none" id="svg_4" stroke="#000" stroke-width="2"/>
	<path d="M 281.0,196.0 C 273.97183,200.17867 273.37961,200.81767 273.14584,201.5 C 272.81903,202.45398 272.79425000000003,203.52472 272.63833,204.25717 C 272.47497,205.02455 272.26937,205.81547 271.83334,207.0 C 271.53689,207.80534 271.1809,208.58162 270.82534000000004,209.328 C 270.48989000000006,210.03216 269.99590000000006,210.94532 269.64666000000005,211.73866 C 269.33862000000005,212.43846000000002 269.11156000000005,213.42024 269.0253200000001,214.22532 C 268.9373700000001,215.04632 268.7856700000001,216.0807 268.4999900000001,216.97917 C 268.1746100000001,218.00256000000002 268.0146700000001,218.78934 267.8306500000001,219.51466000000002 L 267.2946700000001,220.24282000000002 L 266.5679900000001,220.79865" fill="none" id="svg_5" stroke="#000" stroke-width="2"/>
	<path d="M 283.0,193.0 C 280.94934,194.13867 280.32883,194.71704 280.02084,195.04167 C 279.40329,195.69259000000002 278.57714000000004,196.62472000000002 278.22415,197.49466 C 277.92837000000003,198.22362 277.84884,199.33647000000002 277.712,199.97067 C 277.55980999999997,200.67592000000002 277.35222999999996,201.43516000000002 277.02801,202.20266 C 276.51187,203.42449000000002 275.99609,204.20087 275.74932,204.60000000000002 C 275.25356,205.40179000000003 274.72643,206.17924000000002 274.14266000000003,207.39999000000003 C 273.95434000000006,207.79377000000002 273.65758000000005,208.60266000000004 273.34933,209.39999000000003 C 273.03897,210.20272000000003 272.46936,211.40695000000002 271.99465000000004,212.19549000000004 C 271.75533,212.59301000000002 271.23543,213.35441000000003 270.76800000000003,214.11466000000004 C 270.12167000000005,215.16584000000003 269.79330000000004,215.83893000000003 269.54165,216.49999000000005 C 269.17135,217.47263000000007 268.90676,218.52355000000006 268.69100000000003,219.25716000000006 C 268.46575,220.02303000000006 268.22848000000005,220.82401000000004 267.66665,221.99999000000005 C 267.47207000000003,222.40728000000004 266.99169,223.19558000000006 266.52084,223.99999000000005 C 266.05508000000003,224.79569000000006 265.76965,225.16918000000004 265.36401,226.40032000000005 C 265.10287,227.19291000000004 265.02499,228.04656000000006 264.84201,228.91433000000006 C 264.54086,230.34255000000007 264.34375,230.84550000000007 264.14801,231.36799000000008 C 263.74008,232.45683000000008 263.49619,232.99845000000008 263.276,233.54933000000008 C 262.84448000000003,234.62903000000009 262.4624,235.6578800000001 262.25467000000003,236.6306600000001 C 262.0622,237.53187000000008 261.99637,238.4147000000001 261.95633000000004,238.8481600000001 C 261.83450000000005,240.1667800000001 261.71930000000003,241.0845000000001 261.57468000000006,242.02533000000008 C 261.5016800000001,242.50026000000008 261.3304800000001,243.44453000000007 261.16666000000004,244.83333000000007 C 261.11423,245.27789000000007 261.05268,246.14734000000007 261.00000000000006,247.00000000000009 C 260.9473300000001,247.85266000000007 260.84171000000003,249.16779000000008 260.71600000000007,250.0840000000001 C 260.65161000000006,250.5532800000001 260.49582000000004,251.49936000000008 260.35266000000007,252.44733000000008 C 260.28192000000007,252.91570000000007 260.1081200000001,254.27762000000007 260.05716000000007,255.1428400000001 C 260.0079400000001,255.9785200000001 260.0022600000001,256.7955000000001 260.00000000000006,258.0000000000001 C 259.99850000000004,258.8026700000001 260.00000000000006,259.6213400000001 260.00000000000006,260.4719800000001 C 260.00000000000006,260.91433000000006 260.00000000000006,262.3333400000001 260.00000000000006,263.3680100000001 C 260.00000000000006,263.9053300000001 260.00000000000006,265.00000000000006 260.00000000000006,265.54935000000006 C 260.00000000000006,266.6319900000001 260.00000000000006,267.66666000000004 260.00000000000006,268.62934000000007 C 260.00000000000006,269.5280200000001 260.00000000000006,269.95835000000005 260.00000000000006,270.7909900000001 C 260.00000000000006,272.00000000000006 260.00000000000006,272.7999900000001 260.00000000000006,273.60001000000005 C 260.00000000000006,274.40000000000003 260.00000000000006,275.20002000000005 260.00000000000006,276.40000000000003 C 260.00000000000006,277.20002000000005 260.00000000000006,278.00001000000003 260.00000000000006,278.79999000000004 C 260.00000000000006,280.00000000000006 260.00000000000006,280.79868000000005 260.00000000000006,281.58933 C 260.00000000000006,282.74283 260.00000000000006,283.83335 260.00000000000006,284.516 C 260.00000000000006,285.50001000000003 260.00000000000006,286.15269 260.00000000000006,287.16667 C 260.00000000000006,287.88536 260.00000000000006,289.02086 260.00000000000006,289.80452 C 260.00000000000006,291.00002 259.9961200000001,291.80275 260.01068000000004,292.62135 C 260.01816,293.04173000000003 260.03592000000003,293.91615 260.16666000000004,295.33336 C 260.21372,295.84346000000005 260.35193000000004,296.90544000000006 260.42533000000003,297.45067 C 260.57322000000005,298.54955 260.66749000000004,299.09242 260.83335000000005,300.66667 C 260.88496000000004,301.15642 260.94608000000005,302.08577 261.00001000000003,302.95836 C 261.05149000000006,303.79106 261.14729000000005,305.00316000000004 261.28666000000004,305.8 C 261.42722000000003,306.60365 261.62428000000006,307.40706 261.88667000000004,308.20002 C 262.28761000000003,309.41175 262.47542000000004,309.80442 262.83601000000004,310.60001 C 263.20070000000004,311.40461 263.60084000000006,312.20026 264.20002000000005,313.4 C 264.3998500000001,313.80008999999995 264.80003000000005,314.60001 265.20002000000005,315.4 C 265.60004000000004,316.20002 266.2012700000001,317.3993 266.39869000000004,317.79999 C 266.79218000000003,318.5986 267.18180000000007,319.39243 267.51469000000003,320.20000999999996 C 268.00495,321.38942999999995 268.25212000000005,322.19732 268.47917,322.99999999999994 C 268.70476,323.79741999999993 268.79634,324.20061999999996 269.10017,325.39998999999995 C 269.30293,326.2004099999999 269.50425,327.00508999999994 269.75718,327.79997999999995 C 270.14161,329.00825999999995 270.47453,329.80153999999993 270.82536,330.57866999999993 C 271.16551,331.33217999999994 271.51547999999997,332.02959999999996 271.97868,332.95732999999996 C 272.37422,333.74953999999997 272.75267,334.50532999999996 273.16667,335.33333999999996 C 273.65718,336.31433 273.83601,336.67198999999994 274.21068,337.42132 C 274.60134000000005,338.20266 275.20003,339.39999 275.60002000000003,340.20000999999996 L 276.00001000000003,340.99999999999994 L 276.20002000000005,341.39998999999995 L 276.60001000000005,342.20000999999996" fill="none" id="svg_6" stroke="#000" stroke-width="2"/>
	<path d="M 282.0,349.0 C 284.74399,353.228 284.98398,354.14227 285.0,355.11734 C 285.01138,355.80975 285.0,356.76801 285.0,357.5 C 285.0,358.66666 284.97418,359.47952 285.00134,360.48267 C 285.01913,361.13935 285.64111,361.88223999999997 286.19867000000005,362.57198999999997 C 286.68689000000006,363.17596 286.86633000000006,364.16278 286.94284000000005,364.95714999999996 C 287.02478,365.80797999999993 287.00000000000006,366.99999999999994 287.00000000000006,367.59865999999994 C 287.00000000000006,368.47914999999995 286.97495000000004,369.3150299999999 287.00266000000005,370.31999999999994 C 287.02314000000007,371.0632299999999 287.1496,371.94517999999994 287.44266000000005,373.08565999999996 C 287.55963,373.54088999999993 287.85315,374.52196999999995 288.00000000000006,375.04164999999995 C 288.29971000000006,376.10225999999994 288.4845900000001,376.62438 288.75717000000003,378.1571599999999 C 288.92218,379.0850499999999 288.97986000000003,379.9790899999999 289.01468000000006,380.41466999999994 C 289.08408000000003,381.28252999999995 289.21555000000006,382.62215999999995 289.35266000000007,383.5526699999999 C 289.4223600000001,384.02577999999994 289.5849600000001,384.9731699999999 289.71600000000007,385.91597999999993 C 289.84332000000006,386.83199999999994 289.92651000000006,387.71538999999996 289.9639900000001,388.5746699999999 C 290.0010700000001,389.4248899999999 289.99768000000006,390.2839899999999 290.0001500000001,391.6213299999999 C 290.0010000000001,392.08400999999986 290.0021000000001,393.0255999999999 290.0360100000001,393.9746599999999 C 290.0528900000001,394.44749999999993 290.1516700000001,395.83546999999993 290.2840000000001,396.7133399999999 C 290.4109800000001,397.5556299999999 290.5746800000001,398.3533199999999 290.7160100000001,399.1133299999999 L 290.8785200000001,400.1784899999999 L 290.9640000000001,401.1639899999999 L 290.9893300000001,401.7893299999999" fill="none" id="svg_7" stroke="#000" stroke-width="2"/>
	<path d="M 301.0,400.0 C 300.29468,402.60901 299.73959,403.22473 299.33334,404.33334 C 299.10614000000004,404.95337 299.05517000000003,405.69244000000003 299.02133000000003,406.49334000000005 C 298.98416000000003,407.37273000000005 299.00000000000006,408.33334 299.00000000000006,409.3693200000001 C 299.00000000000006,409.9098200000001 299.00000000000006,411.0208400000001 299.00000000000006,411.5853200000001 C 299.00000000000006,412.7173400000001 299.00000000000006,413.8333400000001 299.00000000000006,414.9159800000001 C 299.00000000000006,415.4473200000001 299.00000000000006,416.4999900000001 299.00000000000006,417.0253200000001 C 299.00000000000006,418.0840100000001 299.00000000000006,419.16665000000006 299.00000000000006,420.2853300000001 C 299.00000000000006,420.8571700000001 299.00000000000006,421.4360000000001 299.00000000000006,422.6106500000001 C 299.00000000000006,423.2044900000001 299.00000000000006,423.8013200000001 299.00000000000006,425.5998200000001 C 299.00000000000006,426.1986700000001 299.00000000000006,426.79550000000006 299.00000000000006,427.97915000000006 C 299.00000000000006,428.56399000000005 299.00000000000006,429.1428200000001 299.00000000000006,430.8333400000001 C 299.00000000000006,431.37851000000006 299.00000000000006,432.4428400000001 299.00000000000006,432.9639900000001 C 299.00000000000006,433.9893200000001 299.00067000000007,434.9986600000001 299.00000000000006,436.00000000000006 C 298.99933000000004,436.99866000000003 299.00586000000004,437.49573000000004 298.97916000000004,438.47916000000004 C 298.95298,439.44318000000004 298.94965,439.91861000000006 298.77866000000006,441.27851000000004 C 298.6695900000001,442.14591 298.4896600000001,442.97736000000003 298.35267000000005,443.79551000000004 C 298.15141000000006,444.99757000000005 298.07362000000006,445.79804 298.03602000000006,446.58933 C 297.99922000000004,447.36356 298.00068000000005,448.11466 298.0000100000001,449.17850000000004 C 297.9994000000001,450.16400000000004 298.0000100000001,451.09549000000004 298.0000100000001,452.00000000000006 C 298.0000100000001,452.89551000000006 298.0000100000001,453.76401000000004 298.0000100000001,454.8333400000001 C 298.0000100000001,455.54284000000007 297.8957900000001,456.40109000000007 298.0013500000001,457.3933400000001 C 298.0850000000001,458.1796900000001 298.4373900000001,457.5998800000001 298.8188500000001,456.8203400000001 C 299.30808000000013,455.8205800000001 299.7692000000001,455.1097100000001 300.27201000000014,454.3320000000001 C 300.54087000000015,453.9161400000001 301.1157000000001,453.0279800000001 301.4026900000001,452.5426600000001 C 302.0143500000001,451.5083300000001 302.60441000000014,450.3453900000001 302.89552000000015,449.7240000000001 C 303.19529000000017,449.0840800000001 303.48481000000015,448.4189800000001 303.76402000000013,447.7320000000001 C 304.04866000000015,447.03165000000007 304.3317700000001,446.3165600000001 304.83336000000014,444.8333500000001 C 305.08754000000016,444.0817300000001 305.31792000000013,443.3175100000001 305.55184000000014,442.5518300000001 C 305.78594000000015,441.7855300000001 306.01604000000015,441.0193000000001 306.26134000000013,440.2613300000001 C 306.50505000000015,439.5082800000001 306.7353400000001,438.7555000000001 307.33336000000014,437.3333500000001 C 307.6268200000001,436.6354700000001 307.96394000000015,435.9629600000001 308.3233500000001,435.3053300000001 C 308.68398000000013,434.6454800000001 309.48833000000013,433.3460100000001 309.9233600000001,432.6946700000001 C 310.3682500000001,432.0285600000001 311.3323900000001,430.66595000000007 311.8427000000001,429.9570000000001 C 312.3670200000001,429.2286100000001 312.9068500000001,428.4867200000001 313.4506700000001,427.7280000000001 C 314.0015400000001,426.9594500000001 314.5534800000001,426.18152000000015 315.0946800000001,425.3909900000001 C 315.6361200000001,424.6001300000001 316.6730800000001,423.0039100000001 317.1570300000001,422.2001600000001 C 317.6357300000001,421.4051500000001 318.0894600000001,420.6065900000001 318.52803000000006,419.8106600000001 C 318.96211000000005,419.0228800000001 319.3795600000001,418.2364400000001 319.79100000000005,417.4571400000001 C 320.1982300000001,416.6857800000001 320.99791000000005,415.1655100000001 321.40001000000007,414.4216500000001 C 321.79793000000006,413.6855400000001 322.1978900000001,412.9604700000001 322.6000200000001,412.24666000000013 C 322.9979100000001,411.54045000000013 323.39778000000007,410.8453500000001 323.80000000000007,410.16164000000015 C 324.19783000000007,409.48537000000016 324.9976300000001,408.16515000000015 325.40019000000007,407.5215000000002 C 325.79899000000006,406.8838700000002 326.2017000000001,406.2553300000002 326.6106700000001,405.63597000000016 C 327.0180800000001,405.0190000000002 327.4360200000001,404.4106600000002 327.85719000000006,403.80449000000016 L 328.28535000000005,403.20131000000015" fill="none" id="svg_8" stroke="#000" stroke-width="2"/>
	<path d="M 337.0,407.0 C 342.93582,402.164 343.73831,401.55914 344.11334,401.276 C 344.84164,400.72616 345.57678,400.15979 346.33334,399.5 C 347.18219000000005,398.7597 347.61352,398.33664 348.07199,397.91333 C 349.01971000000003,397.03824 349.50354000000004,396.59454 350.00265,396.16666 C 350.98934,395.32077 351.49017000000003,394.92895999999996 352.50448,394.20984 C 353.00582,393.8544 353.51794,393.51633 354.55715,392.85184 C 355.08385,392.51505 356.16826,391.83585 356.72114999999997,391.47848999999997 C 357.85146,390.74792999999994 358.41661999999997,390.36688999999996 358.97914999999995,389.97916 C 359.54063999999994,389.59216999999995 360.09666999999996,389.20419999999996 360.63066999999995,388.79868 C 362.17634999999996,387.62487999999996 362.63397,387.20376999999996 363.09016999999994,386.79999 C 363.9857099999999,386.00732999999997 364.41328999999996,385.59851 364.8481699999999,385.20000999999996 C 366.1625599999999,383.99550999999997 366.6205099999999,383.59887 367.0840099999999,383.19866999999994 C 368.0236499999999,382.3873899999999 368.5019199999999,381.98134999999996 368.97466999999995,381.5639999999999 C 369.44927999999993,381.14501999999993 370.83739999999995,379.8372799999999 371.27865999999995,379.3786699999999 C 371.72009999999995,378.91989999999987 372.14840999999996,378.4482799999999 372.99999999999994,377.50000999999986 C 373.42583999999994,377.02582999999987 373.84520999999995,376.54568999999987 374.28399999999993,376.08401999999984 C 375.5993399999999,374.70007999999984 376.08163999999994,374.2814099999998 376.55267999999995,373.8526699999998 C 377.49524999999994,372.9947599999998 377.9765699999999,372.57678999999985 378.44732999999997,372.14734999999985 C 378.91790999999995,371.71808999999985 380.28213999999997,370.38205999999985 380.71466,369.9159999999998 C 381.14648,369.4506999999998 381.56674,368.9770699999998 382.38934,368.0253399999998 C 382.79687,367.5538399999998 383.18353,367.0705099999998 384.40033,365.7215099999998 C 384.79776,365.2808999999998 385.19815,364.8462399999998 386.04166,364.0208599999998 C 386.46659,363.6050899999998 386.89153999999996,363.1771399999998 388.33335,362.0000199999998 C 388.83494,361.5904999999998 389.36591,361.1984799999998 389.90534,360.8045199999998 C 390.44855,360.4077899999998 391.54902000000004,359.6355099999998 392.09467,359.2571899999998 C 392.63166,358.8848799999998 393.67234,358.1746099999998 394.62668,357.4840299999998 C 395.07938,357.1564499999998 395.92420000000004,356.5088399999998 396.30667,356.17466999999976 C 397.04153,355.5326399999998 397.9639,354.48273999999975 398.23599,354.11201999999975 C 398.79394,353.35179999999974 399.35867,352.51734999999974 399.67682,352.08119999999974 L 400.02399,351.62800999999973" fill="none" id="svg_9" stroke="#000" stroke-width="2"/>
	<path d="M 287.0,164.0 C 291.51468,168.57333 292.15604,168.86906 292.78934,168.94667 C 293.99219,169.09407000000002 294.89099,169.0 295.728,169.0 C 296.66666000000004,169.0 297.51184,169.03313 298.54267,168.7785 C 299.26087,168.6011 300.05439,168.40573 300.85685,167.89967000000001 C 301.61207,167.42341000000002 301.90739,166.4598 301.964,165.72799 C 302.02858,164.89291 302.00001,163.70016 302.00001,163.1045 C 302.00001,162.23598 302.00001,161.16666 302.00001,160.21465 C 302.00001,159.49016 302.00001,158.35732000000002 302.00001,157.69466 C 302.00001,156.99999 302.00968,155.96794 301.99985999999996,155.04316 C 301.98941999999994,154.06233 302.01975999999996,152.98638 301.31732999999997,152.44666 C 300.58802,151.8863 299.72842999999995,152.02182000000002 298.89099999999996,152.00449 C 297.70059999999995,151.97985 297.10902,151.99999 296.27200999999997,151.99999 C 295.14268,151.99999 294.34927999999996,151.99045 293.45734,152.00016 C 292.49985,152.01058 291.64215,151.81446 290.81885,152.36166 C 289.956,152.93515 290.0192,153.83541 290.00135,154.60133 C 289.97797,155.60423 290.00001,156.45716 290.00001,157.42117 C 290.00001,158.21465999999998 290.00001,158.99016999999998 290.00001,160.19467 C 290.00001,160.968 289.83946,161.7996 290.10801,162.71333 C 290.35584,163.55659 291.28666,163.89200000000002 291.99917999999997,163.98649 L 293.18566999999996,163.99999 L 293.99999999999994,163.99999 L 294.8143299999999,163.99999" fill="none" id="svg_10" stroke="#000" stroke-width="2"/>
	<path d="M 287.0,151.0 C 292.77335,151.28534 293.58096,151.5752 294.3045,152.30901 C 294.78082,152.79209 295.49997,153.75962 295.81466,154.27201 C 296.31844,155.09228 296.71893,155.98881 296.88567,156.8955 C 296.99205,157.47399 296.99865,158.31467 296.99999,159.54734 C 297.00072,160.22532999999999 296.99999,161.42149999999998 296.99999,162.236 C 296.99999,162.81068 297.04329,164.00171999999998 296.98650000000004,164.89101 C 296.93282000000005,165.7316 296.54738000000003,166.72312 295.92849,167.19468 C 295.46859,167.54510000000002 294.56954,167.92872 293.70034,168.54250000000002 C 293.08919,168.97406 292.56566999999995,169.50797000000003 291.77065,170.14667000000003 C 290.98922,170.77448000000004 290.1375,171.04367000000002 289.23598,171.22133000000002 L 288.32399,171.42534000000003 L 287.67598,171.57466000000002" fill="none" id="svg_11" stroke="#000" stroke-width="2"/>
</svg>
