<?xml version="1.0" ?>
<svg baseProfile="full" height="480" version="1.1" width="640" xmlns="http://www.w3.org/2000/svg" xmlns:ev="http://www.w3.org/2001/xml-events" xmlns:xlink="http://www.w3.org/1999/xlink">
	<defs/>
	<path d="M 232.0,140.0 C 233.81467,139.564 234.53372,138.89949 235.04817,138.35716 C 235.69774999999998,137.67238 236.35501,137.22791999999998 237.09984,136.77849999999998 C 237.72208,136.40303999999998 237.93964,135.25440999999998 238.7045,135.00449999999998 C 239.59835999999999,134.71242999999998 239.87998,134.16004999999998 240.52083,133.52083 C 241.16441999999998,132.87888999999998 242.31181999999998,132.80712 242.71465999999998,132.19867 C 243.25853999999998,131.37723 243.67989999999998,130.71618999999998 244.284,130.084 C 244.83436999999998,129.50804 245.15087,128.60542 246.0,128.16667 C 246.63835,127.83683 247.61987,128.00241 248.39999,127.57467000000001 C 249.2229,127.12346000000001 250.12602,126.80915000000002 250.69999,126.29550000000002 C 251.43531000000002,125.63746000000002 251.92460000000003,124.90710000000001 252.60000000000002,124.43600000000002 C 253.33358,123.92430000000002 254.35664000000003,124.13655000000003 255.19999,123.71601000000003 C 255.86164000000002,123.38608000000002 256.49975,122.73328000000002 257.16665,122.16667000000002 C 257.85064,121.58554000000002 258.55239,121.33703000000003 259.29998,120.70450000000002 C 260.05566,120.06513000000002 260.66961,119.60249000000002 261.28533,119.08400000000002 C 261.95083,118.52361000000002 262.93703,118.51795000000001 263.64281,117.94733000000002 C 264.37389,117.35625000000002 264.95726,117.28199000000002 264.99999,118.09999000000002 C 265.04693000000003,118.99876000000002 264.73702000000003,119.78481000000002 263.99999,120.16666000000002 C 263.24602000000004,120.55729000000002 262.24642,120.92660000000002 262.01067,121.61066000000002 C 261.72069,122.45198000000002 261.53481,123.37574000000002 261.12133,124.09983000000003 C 260.66827,124.89323000000003 259.81652,125.31257000000002 259.34731,125.70983000000003 C 258.62542,126.32104000000002 257.90238999999997,126.88476000000003 257.36165,127.69550000000002 C 256.88274,128.41354 256.29393,128.88185000000001 255.59999,129.44667 C 254.87311,130.03831000000002 254.63092999999998,130.84421 254.19997999999998,131.51601000000002 C 253.63909999999998,132.39037000000002 253.00093999999999,133.00096000000002 252.39997999999997,133.60001000000003 C 251.70110999999997,134.29663000000002 250.74061999999998,134.47666000000004 250.16665999999998,135.16668 C 249.62319999999997,135.82003 249.69763999999998,136.66117000000003 249.08265999999998,137.28535000000002 C 248.50229,137.8744 247.97915999999998,138.47918 247.02165999999997,138.87867000000003 L 246.28665999999996,139.08401000000003 L 245.77865999999995,139.87867000000003 L 245.08398999999994,140.28535000000002" fill="none" id="svg_1" stroke="#000" stroke-width="2"/>
	<path d="M 245.0,124.0 C 243.3,124.0 242.38039,124.00195 241.60001,123.57467 C 240.77743999999998,123.12429999999999 239.9,123.0 239.0,123.0 C 238.2,123.0 237.3,123.0 236.39999,123.0 C 235.47917,123.0 234.516,123.0 233.82533,123.0 C 232.75717,123.0 231.89999,123.0 231.0,123.0 C 230.2,123.0 229.3,123.0 228.39999,123.0 C 227.5,123.0 226.6,123.0 225.69999,123.0 C 224.8,123.0 223.89999,123.0 222.99999000000003,123.0 C 222.19999,123.0 221.57105,123.37071 220.77849000000003,123.8785 C 220.03174000000004,124.35694000000001 218.95894000000004,123.81837 218.19998000000004,124.08533 C 217.43889000000004,124.35304 217.15372000000005,125.51898 216.56398000000004,125.97467 C 215.81773000000004,126.55129000000001 214.90236000000004,126.89329000000001 214.19998000000004,126.99866 C 213.30263000000005,127.13329 212.62837000000005,127.67467 212.28532000000004,128.51733 C 211.91456000000005,129.42807 211.24128000000005,129.94142 211.00448000000003,130.70449 C 210.74946000000003,131.52627999999999 210.14945000000003,131.55065 209.35714000000002,132.05714999999998 C 208.73603000000003,132.4542 209.00954000000002,133.60003999999998 208.99998000000002,134.49998999999997 C 208.98956,135.47932999999998 208.24057000000002,135.94117999999997 208.00448000000003,136.70448999999996 C 207.73960000000002,137.56088999999997 207.54418000000004,138.38205999999997 207.08398000000003,139.19865999999996 C 206.68786000000003,139.90155999999996 205.73336000000003,140.08474999999996 205.28532,140.80131999999995 C 204.78616000000002,141.59963999999994 204.86413000000002,142.46026999999995 204.35264,143.05265999999995 C 203.78623000000002,143.70866999999996 203.25518,144.53770999999995 203.03597000000002,145.39997999999994 C 202.81400000000002,146.27311999999995 202.67385000000002,147.03664999999995 202.28397,147.79998999999995 C 201.89943000000002,148.55286999999996 201.99997000000002,149.49998999999994 201.99997000000002,150.39997999999994 C 201.99997000000002,151.29998999999995 201.99997000000002,152.19997999999995 201.99997000000002,153.09998999999993 C 201.99997000000002,153.99997999999994 201.99997000000002,154.79998999999992 201.99997000000002,155.69997999999993 C 201.99997000000002,156.59998999999993 201.99997000000002,157.49997999999994 201.99997000000002,158.3999799999999 C 201.99997000000002,159.29998999999992 201.99997000000002,160.19997999999993 201.99997000000002,161.0999899999999 C 201.99997000000002,161.9999799999999 201.80402,162.8344299999999 202.05713000000003,163.6999799999999 C 202.31377000000003,164.5776199999999 202.97138000000004,165.2986299999999 202.99997000000002,166.1999799999999 C 203.0285,167.0995299999999 202.99997000000002,167.9999799999999 202.99997000000002,168.7571499999999 C 202.99997000000002,169.6526399999999 202.57491000000002,170.62338999999992 203.03597000000002,171.5533099999999 C 203.38662000000002,172.2605099999999 203.9806,172.8015199999999 203.99997000000002,173.6999799999999 C 204.01862000000003,174.5645299999999 204.85422000000003,175.0439399999999 204.99864000000002,175.8013099999999 C 205.16697000000002,176.68407999999988 204.99801000000002,177.61958999999987 205.42531000000002,178.39996999999988 C 205.87569000000002,179.2225399999999 205.99997000000002,180.09997999999987 205.99997000000002,180.99997999999988 C 205.99997000000002,181.7999799999999 205.99997000000002,182.63597999999988 205.99997000000002,183.65263999999988 C 205.99997000000002,184.34730999999988 205.87874000000002,185.37243999999987 206.00447000000003,186.2999799999999 C 206.11581000000004,187.1213299999999 206.85179000000002,187.7685899999999 206.99547000000004,188.6999699999999 C 207.13269000000005,189.5894699999999 206.99997000000005,190.4999699999999 206.99997000000005,191.39996999999988 C 206.99997000000005,192.2999799999999 206.99997000000005,193.1999699999999 206.99997000000005,194.09997999999987 C 206.99997000000005,194.99996999999988 207.09491000000006,195.79437999999988 207.49997000000005,196.49996999999988 C 207.95825000000005,197.29827999999986 208.17342000000005,198.16402999999988 208.49997000000005,199.02079999999987 C 208.72057000000004,199.59957999999986 208.97008000000005,200.59422999999987 208.99864000000005,201.51463999999987 C 209.02856000000006,202.47868999999986 208.91873000000004,203.43745999999987 209.28396000000006,204.20131999999987 C 209.63294000000008,204.93117999999987 209.98078000000007,205.83539999999988 209.99864000000005,206.60130999999987 C 210.02191000000005,207.59970999999987 209.97803000000005,208.40023999999988 210.00130000000004,209.39863999999986 C 210.01915000000005,210.16454999999985 210.37725000000003,211.06396999999987 210.71598000000003,211.79862999999986 C 211.11109000000002,212.65560999999985 210.99998000000002,213.59997999999987 210.99998000000002,214.49996999999985 C 210.99998000000002,215.39995999999985 210.99998000000002,216.29996999999986 210.99998000000002,217.20130999999984 C 210.99998000000002,218.16663999999983 210.99998000000002,218.82529999999983 210.99998000000002,219.83329999999984 C 210.99998000000002,220.69546999999983 210.99998000000002,221.59997999999985 210.99998000000002,222.49996999999985 C 210.99998000000002,223.39995999999985 210.99998000000002,224.29996999999986 210.99998000000002,225.19996999999984 C 210.99998000000002,226.10014999999984 210.99998000000002,226.88529999999983 210.99998000000002,227.83596999999983 C 210.99998000000002,228.60130999999984 210.99998000000002,229.59547999999984 210.99998000000002,230.34280999999984 C 210.99998000000002,231.36396999999985 210.99998000000002,232.29997999999983 210.99998000000002,233.19996999999984 C 210.99998000000002,234.09997999999985 210.99998000000002,234.99996999999985 210.99998000000002,235.75713999999985 C 210.99998000000002,236.65712999999985 210.99998000000002,237.40445999999986 210.99998000000002,238.39862999999986 C 210.99998000000002,239.34279999999987 210.99998000000002,240.24728999999985 210.99998000000002,241.16663999999986 C 210.99998000000002,241.99996999999985 210.99998000000002,242.97846999999985 210.99998000000002,243.79862999999986 C 210.99998000000002,244.69996999999987 210.99998000000002,245.59997999999987 210.99998000000002,246.49996999999985 C 210.99998000000002,247.39995999999985 210.99998000000002,248.30897999999985 210.99998000000002,248.97063999999986 C 210.99998000000002,250.00530999999987 210.99998000000002,250.74929999999986 210.99998000000002,251.85729999999987 C 210.99998000000002,252.65062999999986 211.03154000000004,253.54383999999988 210.97915000000003,254.49996999999988 C 210.93896000000004,255.23369999999989 210.56999000000002,256.16280999999987 210.28397000000004,256.9679599999999 C 210.00805000000003,257.7447199999999 210.00531000000004,258.7492399999999 209.99997000000005,259.6666299999999 C 209.99468000000005,260.5786199999999 210.01982000000004,261.4108599999999 209.99980000000005,262.3211399999999 C 209.98181000000005,263.1392199999999 209.27376000000004,263.8562999999999 209.01063000000005,264.6106299999999 C 208.71771000000004,265.4504099999999 209.06242000000006,266.4307299999999 208.77864000000005,267.3212899999999 C 208.55589000000006,268.02032999999994 208.09250000000006,268.9743399999999 208.00447000000005,269.69546999999994 C 207.89014000000006,270.63211999999993 207.42619000000005,271.47918999999996 206.99997000000005,271.99996999999996 C 206.32405000000006,272.82583999999997 206.01073000000005,273.58910999999995 205.99997000000005,274.52081 C 205.99072000000004,275.32122999999996 206.10405000000006,276.22326 205.71597000000006,277.11462 C 205.39302000000006,277.85638 204.94558000000006,278.69903 204.49997000000005,279.49997 C 204.05542000000005,280.29901 204.09438000000006,281.10495000000003 203.99997000000005,281.99997 C 203.91415000000003,282.81345000000005 202.97437000000005,283.21579 202.33330000000004,283.99997 C 201.84500000000003,284.59726 202.06053000000003,285.52289 201.99730000000002,286.48398000000003 C 201.94016000000002,287.35260000000005 201.43198,288.11463000000003 200.85063000000002,288.58930000000004 L 200.10980000000004,289.29996000000006" fill="none" id="svg_2" stroke="#000" stroke-width="2"/>
	<path d="M 255.0,136.0 C 255.0,137.82533 254.81447,138.86621 255.05716,139.6955 C 255.31509,140.57686 255.80757,141.21671 256.00015,142.09984 C 256.18426,142.94411 256.98199,143.43544 257.0,144.3 C 257.01874,145.1998 256.81863,146.15349 257.16666,147.0 C 257.44257,147.6711 257.8476,148.51434 258.01068,149.39999 C 258.16379,150.23141 258.91211,150.98631 258.99550999999997,151.69999 C 259.09997,152.59393 258.99999999999994,153.49999000000003 258.99999999999994,154.39999 C 258.99999999999994,155.3045 258.99999999999994,156.32133 258.99999999999994,157.0 C 258.99999999999994,157.9785 258.99999999999994,158.79866 258.99999999999994,159.7 C 258.99999999999994,160.60001 258.99999999999994,161.5 258.99999999999994,162.39999999999998 C 258.99999999999994,163.30001 258.99999999999994,164.20135 258.99999999999994,165.16667999999999 C 258.99999999999994,166.02084 258.99999999999994,167.00000999999997 258.99999999999994,167.80001 C 258.99999999999994,168.60001 258.91286999999994,169.60769 259.05715999999995,170.34284 C 259.23958999999996,171.27237 259.85666,172.10640999999998 260.05267,172.75718 C 260.32671999999997,173.66691 260.71621,174.39877 261.19867,175.4 C 261.48618,175.99668 261.80719,177.00521 261.97467,177.77868 C 262.18823,178.76493000000002 262.85861,179.2245 263.00015,180.10001 C 263.14621,181.00354 263.75546,181.53898999999998 263.97915,182.5 C 264.18331,183.37711 264.40887,184.12729 264.83334,185.0 C 265.15417,185.65967 265.56842,186.48848 266.09982,187.32133 C 266.51800000000003,187.97675999999998 266.71603000000005,188.87202 267.05267000000003,189.69548999999998 C 267.40490000000005,190.55709 268.20410000000004,191.02003 268.64282000000003,191.69998999999999 C 269.12814000000003,192.45218999999997 269.31436,193.47388999999998 269.57467,194.21066 C 269.91946,195.18652 269.92825000000005,196.01462999999998 270.16665,197.0 C 270.31368,197.60771 270.63958,198.38934 271.29998,199.24283 C 271.7575,199.83411999999998 272.60299,200.47022 272.87865,201.3215 C 273.15627,202.17884999999998 273.20974,203.20396 273.42530999999997,203.78932999999998 C 273.81266999999997,204.84115999999997 273.96925999999996,205.62584999999999 274.00133,206.48532999999998 C 274.03569,207.40553999999997 274.11710999999997,208.24965999999998 274.52083,208.95832 C 275.06819,209.91914 275.85427,210.32872999999998 275.99998999999997,211.04165999999998 C 276.19478,211.99465999999998 276.51493999999997,212.75858999999997 276.83333,213.83332 C 277.0526,214.57345999999998 276.93755,215.43071999999998 277.22132999999997,216.32133 C 277.44408,217.02034999999998 277.91166999999996,217.97431 277.99863999999997,218.79865999999998 C 278.09342999999996,219.69689999999997 278.68616999999995,220.42236 278.94282,221.29999999999998 C 279.19593,222.16555 278.75572,223.23216 279.28398,223.916 C 279.76869,224.54349 279.83723,225.25687 280.22132999999997,226.10001 C 280.57667999999995,226.88002 280.99156,227.6178 281.42530999999997,228.4 C 281.88007999999996,229.22014000000001 281.95219999999995,230.10128 281.99998999999997,231.00001 C 282.04270999999994,231.80342000000002 282.55904,232.54505 283.33333,233.33334 C 283.76473,233.77255 284.29652999999996,234.22795 284.93748999999997,235.10900999999998 C 285.55735999999996,235.96108999999998 285.75753,236.59449999999998 285.97914999999995,237.45834 C 286.17632,238.22692999999998 286.71696999999995,239.18205 287.35182999999995,239.74818 C 287.98555999999996,240.31332 288.5380799999999,240.96948 288.87864999999994,241.97851 C 289.14903999999996,242.77958 289.51557999999994,243.50515 290.19999999999993,244.20001 C 290.79542999999995,244.80452 291.4175899999999,245.38284 292.09980999999993,246.10002 C 292.65754999999996,246.68634 292.8299099999999,247.51779 293.01066999999995,248.40001 C 293.20341999999994,249.34067000000002 294.21327999999994,249.51776 294.83332999999993,250.16669000000002 C 295.36002999999994,250.71790000000001 295.32746999999995,251.89366 295.8013199999999,252.43068000000002 C 296.4702999999999,253.18881000000002 297.34858999999994,253.68385000000004 297.64280999999994,254.35185 C 298.02293999999995,255.2149 298.45231999999993,256.08687000000003 298.99998999999997,256.50001000000003 C 299.77137999999997,257.08195 300.13097,257.91273 300.70982999999995,258.65718000000004 C 301.15773999999993,259.23323000000005 301.85887999999994,259.98335000000003 302.24281999999994,260.60002000000003 C 302.72865999999993,261.38032000000004 303.19343999999995,262.40547000000004 303.52083999999996,263.02086 C 303.87683,263.68996000000004 304.47817999999995,264.68648 304.82534,265.21468000000004 C 305.33877,265.99587 305.99187,266.84667 306.47915,267.47918000000004 C 307.11785,268.30825000000004 307.42596000000003,268.83483000000007 307.79998,269.68670000000003 C 308.23168,270.66992000000005 308.47655000000003,271.50210000000004 308.75716,271.9902 C 309.38921,273.0896 310.0335,273.41003 310.83333,274.00003000000004 C 311.58756999999997,274.55640000000005 311.89931,275.45657000000006 312.33333,276.16669 C 312.77013,276.88135 313.39562,277.28791 313.89015,278.24286 C 314.31276,279.0589 314.89,279.72559 315.38933000000003,280.41071 C 315.99813,281.24604 315.68868000000003,282.1756 316.35716,282.8902 C 316.99263,283.56952 317.76817,283.87348 317.97465,284.82538 C 318.12287,285.50873 318.46528,286.35462 318.99998,287.16669 C 319.42378,287.81034 319.74037,288.5615 320.39997,289.36405 C 321.04505,290.14893 321.65565,290.64237 322.09998,291.54288 C 322.44449000000003,292.24109000000004 322.67615,293.06147000000004 323.09998,294.07837 C 323.38413,294.76016 323.82386,295.49777 324.29548,296.24738 C 324.86265,297.1489 324.9773,297.83555 324.99864,298.60135 C 325.02632,299.59519 325.08955000000003,300.58139 325.70531,301.24738 C 326.23232,301.81739000000005 326.92662,302.65662000000003 326.97866,303.24671 C 327.08187,304.41703 326.96907999999996,305.22880000000004 327.05715,306.04737 C 327.16884,307.08552 327.47082,307.74955 327.71599,308.5987 C 328.00104999999996,309.5861 327.9753,310.42127 328.28533,311.39872 C 328.47472,311.99583 329.16683,312.93766000000005 329.47915,313.52088000000003 C 329.99709,314.48807000000005 329.93151,315.25651000000005 330.05267,315.9947 C 330.22467,317.04249000000004 330.75113,317.71900000000005 331.19867,318.48536 C 331.60825,319.18668 331.85393999999997,320.20411 332.0,320.9792 C 332.18961,321.98524 332.66141,322.59276 333.20001,323.48671 C 333.64325,324.22234000000003 334.00561000000005,325.1646 334.29999000000004,325.95271 C 334.50391,326.49861000000004 334.77619000000004,327.32591 335.20001,328.31471000000005 C 335.57892000000004,329.19871000000006 336.02142000000003,329.98997 336.38934,330.80003000000005 C 336.65869,331.39308000000005 336.95269,332.39625000000007 336.99551,333.34288000000004 C 337.03619000000003,334.24196000000006 336.94561000000004,335.20171000000005 337.00015,336.10005 C 337.04287,336.80391000000003 337.66391000000004,337.55192 338.2955,338.30455 C 338.75595,338.85323 338.82611,339.86543 339.16665,340.83339 C 339.41717,341.54552 340.1394,342.30150000000003 340.47915,343.02089 C 340.74667,343.58733 340.97009,344.59428 340.99865,345.51473 C 341.02855999999997,346.47875 340.86468,347.46623999999997 341.28533,348.20006 C 341.67888,348.88661 342.6733,349.41554 342.94283,350.30004 C 343.20614,351.16415 343.14388,351.90465 343.70531,352.65722000000005 C 344.1296,353.22598000000005 344.77269,354.19564 344.97914,354.9792100000001 C 345.24113,355.9735300000001 345.67740999999995,356.54739000000006 345.97465,357.42138000000006 C 346.27473,358.30377000000004 346.35124,359.0162900000001 346.61064,359.82137000000006 C 346.99132,361.00289000000004 347.18460999999996,361.60289000000006 347.49998,362.45839000000007 C 347.78611,363.23464000000007 348.24487999999997,364.29012000000006 348.92866,364.69106000000005 C 349.90637999999996,365.26433000000003 350.72015999999996,365.30257000000006 351.54164,365.52089000000007 C 351.97092999999995,365.63500000000005 352.85288999999995,365.83727000000005 354.05699,366.32121000000006 C 354.79805,366.61906000000005 355.43678,367.0270500000001 356.39732,367.4307100000001 C 357.28220999999996,367.8025700000001 358.20056999999997,367.9167900000001 358.76399,368.08672000000007 C 359.86161999999996,368.4177400000001 360.55976999999996,369.0520200000001 360.97914,369.5417100000001 C 361.62552999999997,370.2965000000001 362.20032999999995,371.0788800000001 362.82129999999995,371.78539000000006 L 363.2719799999999,372.26137000000006 L 363.7706399999999,372.7694000000001" fill="none" id="svg_3" stroke="#000" stroke-width="2"/>
	<path d="M 276.0,250.0 C 276.0,251.8 276.31448,252.38715 276.83334,253.16667 C 277.30423,253.87413 276.98211000000003,254.78607000000002 277.35717,255.64816000000002 C 277.64837,256.3175 278.71416,256.84689000000003 278.98931,257.61065 C 279.29073,258.44741000000005 278.86467999999996,259.46618 279.28533,260.20001 C 279.67888,260.88656000000003 280.67391,261.41531000000003 280.94283,262.29999000000004 C 281.20513,263.16294000000005 281.30083,264.05084000000005 281.64733,264.70001 C 282.10067000000004,265.54938000000004 281.93581,266.59387000000004 282.56798000000003,267.20001 C 283.07732000000004,267.68838 283.83541,268.30789000000004 284.00133000000005,269.20001 C 284.17070000000007,270.11075 284.85161000000005,270.41086 285.5639800000001,271.02533 C 286.17329000000007,271.5509 285.99727000000007,272.62003 286.4253100000001,273.39999 C 286.8762700000001,274.22174 287.54289000000006,274.82113 287.9159700000001,275.56799 C 288.2464100000001,276.22949 288.6845600000001,277.00515 288.9746600000001,277.86132000000003 C 289.2926200000001,278.79971000000006 289.4508900000001,279.50805 289.9473200000001,280.29549000000003 C 290.3935200000001,281.00328 291.4047500000001,281.14568 291.8333400000001,281.99999 C 292.1996400000001,282.73015000000004 292.21600000000007,283.54799 292.8333400000001,284.16665 C 293.4509900000001,284.78561 293.9936200000001,285.40853 294.50000000000006,285.99999 C 295.00891000000007,286.59441000000004 294.94702000000007,287.53478 295.35266000000007,288.29998 C 295.80102000000005,289.14577 296.50723000000005,289.60897 296.94284000000005,290.35717 C 297.36792,291.08729999999997 297.10303000000005,292.23864 297.80133000000006,292.71465 C 298.55063000000007,293.22542 299.0917400000001,293.68477 299.50000000000006,294.54165 C 299.86948000000007,295.31713 299.84665000000007,296.27966 300.10983000000004,296.93749 C 300.51071,297.93944000000005 301.55322000000007,298.0917 301.93866,298.85067000000004 C 302.36862,299.69729 302.88281,300.2893 303.00015,301.1 C 303.13125,302.00582 303.70382,302.67797 304.0,303.52084 C 304.27527,304.30429000000004 304.52875,305.21762 305.19867,305.83065000000005 C 305.87119,306.44607 305.84472999999997,307.29470000000003 306.35266,307.94732000000005 C 306.84671000000003,308.58209000000005 307.1597,309.33532 307.42532,310.25066000000004 C 307.64169,310.9963 307.89895,311.85460000000006 307.99865,312.79732 C 308.09096999999997,313.67018 308.44265,314.54265000000004 308.85067,315.25066000000004 L 309.14932,315.74932 L 309.75717,316.85699 L 310.01468,317.57867" fill="none" id="svg_4" stroke="#000" stroke-width="2"/>
	<path d="M 320.0,344.0 C 320.70984,346.60001 321.21866,347.17413 321.83334,348.0 C 322.26706,348.58273 322.67959,349.4082 323.20266000000004,350.40134 C 323.53173000000004,351.02616 323.95016000000004,351.70172 324.54284,352.42151 C 324.99456000000004,352.97009 325.79434000000003,353.80267000000003 326.31732,354.40134 C 327.09219,355.28836 327.54733,355.9 328.0,356.5 C 328.45267,357.10001 329.16016,358.00565 329.68268,358.59866 C 330.20819,359.19509999999997 330.75406,359.75064 331.23065,360.31466 C 332.05664,361.29223 332.47073,361.97268 333.0,362.99999 C 333.30722,363.59633 333.70001,364.39998 334.10001,365.20000000000005 C 334.5,365.99999 334.99264999999997,367.00374000000005 335.29999,367.59548000000007 C 335.69070999999997,368.34774000000004 336.37194999999997,369.19268000000005 336.71466,369.7986700000001 C 337.20087,370.6583500000001 337.73309,371.3700800000001 338.02083999999996,371.9999900000001 C 338.43489999999997,372.9064200000001 339.32118999999994,372.8602800000001 340.11333999999994,373.5693300000001 C 340.6773999999999,374.0742100000001 340.80690999999996,375.1614900000001 341.1693399999999,375.88400000000007 C 341.59066999999993,376.7239400000001 342.1826499999999,377.17730000000006 342.97847999999993,377.97848000000005 C 343.5872799999999,378.59136000000007 344.2000099999999,379.20001 344.79997999999995,379.79998000000006 C 345.39998999999995,380.39999000000006 346.19035999999994,381.0290800000001 346.64280999999994,381.70000000000005 C 347.17957999999993,382.49593000000004 348.0206799999999,382.72533000000004 348.6666399999999,383.33333000000005 C 349.2093999999999,383.84419 349.6108499999999,384.71984000000003 350.2946599999999,385.04814000000005 C 351.0445399999999,385.40816000000007 351.3530999999999,386.30372000000006 351.9999799999999,386.99998000000005 C 352.5604699999999,387.60325000000006 352.8676599999999,388.70442 353.6106399999999,388.98930000000007 C 354.4220999999999,389.30043000000006 354.99768999999986,389.6121300000001 355.64664999999985,390.0613200000001 C 356.4524999999999,390.61912000000007 357.03058999999985,391.0149600000001 357.51596999999987,391.60264000000006 C 358.29892999999987,392.55064000000004 358.62530999999984,393.12797000000006 359.4839899999999,393.8306400000001 L 360.17462999999987,394.01466000000005 L 361.1133199999999,394.28532000000007" fill="none" id="svg_5" stroke="#000" stroke-width="2"/>
	<path d="M 362.0,370.0 C 363.64816,370.70984 364.47119,371.25189 364.82935,372.11465 C 365.21270999999996,373.03810999999996 365.25903999999997,373.81243 365.97199,374.25466 C 366.82065,374.78109 367.27091,375.29861 367.78534,375.83199 C 368.32761,376.39425 369.08649,377.29339000000004 369.53833000000003,377.89098 C 370.16473,378.71947 370.48999000000003,379.24755 371.25183000000004,380.19915000000003 C 371.79358,380.87585 372.32712000000004,381.50497 373.00983,382.35348000000005 C 373.51624000000004,382.98287000000005 373.98239,383.66482 374.83335,384.33334 C 375.48679,384.84668000000005 376.4368,384.97287 376.89466,385.70984000000004 C 377.34452,386.43399000000005 377.73524,387.21665 378.35184,387.75266000000005 C 379.14939,388.44596000000007 379.47916,389.00000000000006 380.09983,389.97867 L 380.564,390.62534 L 380.91468000000003,391.48401 L 380.98933000000005,392.17465" fill="none" id="svg_6" stroke="#000" stroke-width="2"/>
	<path d="M 223.0,130.0 C 223.0,131.8 222.58789,132.84476 223.07201,133.564 C 223.56612,134.29809 224.51734000000002,133.99933 225.58934,134.0 C 226.5,134.00056 227.39999,134.00067 228.29999999999998,134.0 C 229.19867,133.99933 229.95728999999997,133.71764 229.99999999999997,132.8 C 230.04183999999998,131.90097 229.99999999999997,131.0 229.99999999999997,130.19999 C 229.99999999999997,129.3 230.00940999999997,128.18818000000002 229.29549999999998,128.00449 C 228.39336999999998,127.77237000000001 227.50158999999996,127.89043000000001 226.65265999999997,128.05715 C 225.72594999999995,128.23914000000002 225.06896999999998,129.088 224.47916999999998,129.47916 C 223.59833999999998,130.06334 222.63606,129.86713 222.10983,130.70533 C 221.71013,131.34199 221.29549999999998,132.04816 220.52083,132.52082000000001 L 220.05715999999998,133.29999" fill="none" id="svg_7" stroke="#000" stroke-width="2"/>
	<path d="M 223.0,246.0 C 223.0,247.8 223.0,248.7 223.0,249.52083 C 223.0,250.48399999999998 223.0,251.17467 223.0,252.24283 C 223.0,253.2 223.0,254.10001 223.0,255.0 C 223.0,255.8 223.00194,256.6196 222.57466,257.39999 C 222.12428,258.22256 222.0,259.1 222.0,260.0 C 222.0,260.79999 222.41269,261.82343 221.94284,262.64282 C 221.54842,263.33068999999995 220.85201999999998,263.76687 220.42533999999998,264.63597999999996 C 220.02268999999998,265.45610999999997 220.22858999999997,266.37828999999994 219.99549999999996,267.23833999999994 C 219.77364999999998,268.05690999999996 219.01041999999995,268.52065999999996 218.99999999999997,269.39998999999995 C 218.98932999999997,270.29991999999993 218.99999999999997,271.20000999999996 218.99999999999997,272.09999999999997 C 218.99999999999997,272.99998999999997 219.06800999999996,273.76009999999997 218.99549999999996,274.64815999999996 C 218.91155999999995,275.67605 218.31760999999997,276.28142999999994 217.71599999999995,276.91597999999993 C 217.16872999999995,277.49321999999995 217.00058999999996,278.3213099999999 216.99999999999994,279.17464999999993 C 216.99932999999993,280.1146499999999 216.79571999999993,280.97606999999994 216.42533999999995,281.5999999999999 C 215.96630999999994,282.3732499999999 215.43331999999995,283.2041299999999 214.81466999999995,283.5999999999999 C 214.02502999999996,284.10527999999994 213.35978999999995,284.6991499999999 212.99999999999994,285.4999899999999 C 212.64095999999995,286.2991499999999 212.00002999999995,287.0000199999999 211.47916999999995,287.52082999999993 C 210.67870999999997,288.32120999999995 210.20774999999995,288.85371999999995 209.65265999999994,289.2901499999999 C 208.80330999999995,289.95793999999995 207.93327999999994,290.46955999999994 207.47916999999995,290.9999899999999 C 206.87551999999997,291.7050699999999 205.90847999999994,291.7768099999999 205.10982999999996,292.3526499999999 C 204.44423999999995,292.83253999999994 204.17159999999996,293.6261199999999 203.64282999999995,294.2954899999999 C 203.05749999999995,295.0364599999999 202.12132999999994,295.22147999999993 201.77849999999995,296.09980999999993 L 201.29549999999995,296.64280999999994 L 200.43599999999995,297.02531999999997" fill="none" id="svg_8" stroke="#000" stroke-width="2"/>
	<path d="M 221.0,281.0 C 221.0,284.33865 221.0,285.3215 221.0,286.21066 C 221.0,287.19983 221.0,287.97915 221.0,288.83334 C 221.0,289.69549 221.0,290.6 221.0,291.5 C 221.0,292.39999 220.94812,293.33386 221.42534,293.97467 C 221.93305,294.65643 222.0,295.5 222.0,296.39999 C 222.0,297.29998 221.90936,298.22921 222.17067,298.97067 C 222.46677,299.81088 223.03305,300.48147 223.43201,301.23199 C 223.92771,302.16452 223.97615,303.00036 224.0,303.79998 C 224.02859,304.75845 224.32001,305.67254 224.7045,306.34731 C 225.15634,307.14031 225.65404,307.82641 226.06134,308.63598 C 226.50561,309.51907 227.02393,309.99697000000003 227.83333,310.83334 C 228.35532999999998,311.37274 228.78565999999998,312.17971 229.04166999999998,313.02084 C 229.22170999999997,313.61236 229.84056999999999,314.41171 230.49999999999997,314.97915 C 231.13720999999998,315.52746 231.81972999999996,316.47704 232.49999999999997,316.99999 C 233.19213999999997,317.53206 234.12536999999998,317.49312000000003 234.83748999999997,318.30898 C 235.32347,318.86574 235.55357999999998,319.77794 236.02082,320.49999 C 236.50134999999997,321.24257 237.21438999999998,321.96666000000005 237.63833,322.74816000000004 C 238.01357,323.4399 237.97495,324.44631000000004 238.56933,325.11465000000004 C 239.08615,325.69574000000006 240.13288,326.17959 240.69549,326.70001 C 241.42454,327.37439 242.00096000000002,327.99902000000003 242.6,328.6 C 243.29662,329.29885 243.72871999999998,330.04064 244.08399,330.79998 C 244.4262,331.53139 245.39731,331.96551 245.99999,332.49999 C 246.58250999999998,333.01659 246.87861999999998,333.84130000000005 247.52082,334.47915 C 248.16413,335.1181 249.25728999999998,334.8363 250.1,335.22134 C 250.7693,335.52713 251.60622999999998,335.90811 252.41065,336.01068 C 253.33787,336.12890999999996 253.96386,336.61154 254.97849,336.87851 C 255.78012999999999,337.08942 256.68862,337.07892 257.52083,337.5 C 258.3109,337.89978 259.32057,337.87851 259.83198999999996,338.56934 C 260.32518,339.23551000000003 260.51863999999995,340.21033 261.25730999999996,340.55335 C 262.12028999999995,340.95408000000003 262.96104999999994,340.84000000000003 263.93299999999994,341.05268 C 264.8653099999999,341.25669 265.43229999999994,342.11567 266.02082999999993,342.50001000000003 C 266.81962999999996,343.02165 267.57008999999994,343.60441000000003 268.3999799999999,343.97468000000003 C 269.1837299999999,344.32435000000004 269.7239199999999,344.88993000000005 270.4999899999999,345.47917 C 271.2382399999999,346.03969 272.1259999999999,346.19169 272.7571599999999,346.76167000000004 C 273.3469399999999,347.29429000000005 273.9721899999999,348.04988000000003 274.6013099999999,348.43068000000005 C 275.5401799999999,348.99895000000004 276.40028999999987,348.9745300000001 277.3999899999999,349.00136000000003 C 278.2004699999999,349.02284000000003 279.2096499999999,349.19621 279.7999799999999,349.43602000000004 C 280.6147999999999,349.76701 281.5999999999999,350.30003000000005 282.1999999999999,350.60002000000003 C 283.1997899999999,351.09990000000005 283.7489199999999,351.49995 284.8333299999999,351.83336 C 285.60490999999985,352.07057000000003 286.49802999999986,351.89238 287.3473099999999,352.05718 C 288.2730599999999,352.23681 288.9873899999999,352.91494 289.7999799999999,352.99868000000004 C 290.6315799999999,353.08437000000004 291.6526699999999,353.00002000000006 292.3473099999999,353.00002000000006 C 293.36399999999986,353.00002000000006 294.3044899999999,353.00002000000006 295.1666499999999,353.00002000000006 C 296.0208399999999,353.00002000000006 296.9999899999999,353.00002000000006 297.7999799999999,353.00002000000006 C 298.5999999999999,353.00002000000006 299.5954799999999,353.00396000000006 300.3428299999999,353.00002000000006 C 301.3533599999999,352.9946800000001 301.9321199999999,352.31252000000006 302.7143199999999,352.0571800000001 C 303.56047999999987,351.7809700000001 304.59999999999985,352.00002000000006 305.3999899999999,352.00002000000006 C 306.3986799999999,352.00002000000006 307.1639999999999,352.00002000000006 308.11464999999987,352.00002000000006 C 308.9999999999999,352.00002000000006 309.7999799999999,352.00002000000006 310.70000999999985,352.00002000000006 L 311.59999999999985,352.00002000000006 L 312.49998999999985,352.00002000000006 L 313.41066999999987,352.00002000000006" fill="none" id="svg_10" stroke="#000" stroke-width="2"/>
	<path d="M 247.0,331.0 C 247.0,332.79999 247.0,333.63599 247.0,334.48401 C 247.0,335.34732 247.0,336.36401 247.0,337.29999000000004 C 247.0,338.20001 247.0,339.00000000000006 247.0,339.88535 C 247.0,340.82535 247.0,341.516 247.0,342.58933 C 247.0,343.50001000000003 246.86343,344.35663 247.284,345.20002 C 247.61392999999998,345.86164 247.98095999999998,346.7002 248.0,347.60001 C 248.02042,348.56446 248.79256,349.00043 248.99867,349.80133 C 249.22313,350.67349 249.66285,351.42633 249.91467,352.20001 C 250.19446,353.05966 249.82644,354.03824000000003 250.08532,354.79999000000004 C 250.38708,355.68793000000005 250.98132999999999,356.39948000000004 250.99999,357.29999000000004 C 251.01864,358.19983 251.30083,359.05084000000005 251.64733,359.70001 C 252.10068,360.54938000000004 252.23269000000002,361.53872 251.96799000000001,362.41067000000004 C 251.70972,363.26144000000005 250.95783,363.67843000000005 250.23999,364.13867000000005 C 249.35672,364.70495000000005 248.60724000000002,365.02691000000004 247.97465,365.57467 C 247.32589,366.13644000000005 246.51681,366.60717000000005 246.08531,367.28533000000004 C 245.59215999999998,368.06038000000007 246.00015,369.1 246.16665,369.99999 L 246.64665,370.56399000000005" fill="none" id="svg_11" stroke="#000" stroke-width="2"/>
	<path d="M 251.0,361.0 C 251.0,363.78934 250.9212,364.51941 251.02083,365.52084 C 251.10253999999998,366.34228 251.43874,367.24679000000003 251.64733999999999,367.99466 C 251.93454,369.02432 252.09965999999997,369.7883 252.49999999999997,370.5 C 252.99422999999996,371.37863 253.72571999999997,371.87387 253.98932999999997,372.61066 C 254.29837999999998,373.47446 253.99999999999997,372.9 253.99999999999997,372.0 L 253.99999999999997,371.20001" fill="none" id="svg_12" stroke="#000" stroke-width="2"/>
</svg>
