<?xml version="1.0" ?>
<svg baseProfile="full" height="480" version="1.1" width="640" xmlns="http://www.w3.org/2000/svg" xmlns:ev="http://www.w3.org/2001/xml-events" xmlns:xlink="http://www.w3.org/1999/xlink">
	<defs/>
	<path d="M 332.5,174.89999 C 332.38568,173.19999 331.79654,172.5805 331.091,172.19999 C 330.11297,171.67254000000003 329.48562,171.38522 328.81466,171.10000000000002 C 327.82507,170.67935000000003 327.00897,170.38717000000003 326.18398,170.18533000000002 C 325.19442000000004,169.94322000000003 324.29290000000003,169.95073000000002 323.30016,169.67866 C 322.50194,169.45989 321.67775,168.98837 320.80449,168.90449 C 320.00365,168.82757 319.09999,168.89999 318.2,168.89999 C 317.29998,168.89999 316.39997999999997,168.89999 315.49998999999997,168.89999 C 314.7,168.89999 313.79997999999995,168.89999 312.89997999999997,168.89999 C 311.99998999999997,168.89999 311.09999,168.89999 310.19548,168.89999 C 309.17866,168.89999 308.49998,168.89999 307.52132,168.89999 C 306.61599,168.89999 305.67464,168.89999 304.984,168.89999 C 303.99998999999997,168.89999 303.01597999999996,168.89999 302.32534,168.89999 C 301.25716,168.89999 300.19527,168.71411 299.58401,169.184 C 298.90364999999997,169.70701 298.41591999999997,170.31452 297.85265999999996,170.95266 C 297.32712,171.54806000000002 296.43323,171.99342000000001 295.89998999999995,172.54665 C 295.31731999999994,173.15117 295.05312999999995,174.20983999999999 294.29866999999996,174.73066 C 293.69875999999994,175.14478 292.64984,175.29252 291.984,175.70133 C 291.09938999999997,176.24447 290.52076999999997,176.92249 289.95833,177.42083000000002 C 289.19362,178.09838000000002 288.49367,178.55128000000002 287.75066,179.07465000000002 C 287.26734999999996,179.41509000000002 286.30116999999996,180.1287 285.70266,180.69866000000002 C 285.08610999999996,181.28576 284.47857,182.10193 283.79998,182.54282 C 283.00765,183.05761 282.44732,183.54732 281.66665,184.06665 L 281.216,184.81598" fill="none" id="svg_1" stroke="#000" stroke-width="2"/>
	<path d="M 280.5,186.89999 C 280.5,188.69999 280.5,189.6 280.5,190.5 C 280.5,191.3 280.5,192.2 280.5,193.10001 C 280.5,194.0 280.5,194.9 280.5,195.7 C 280.5,196.60001 280.50958,197.50005 280.5,198.39999999999998 C 280.48956,199.37933999999998 280.09634,200.09299 279.41599,200.61599999999999 C 278.80472000000003,201.08588999999998 277.7735,200.71626999999998 276.90000000000003,200.93600999999998 C 276.03718000000003,201.15306999999999 275.29536,201.77505999999997 274.40000000000003,201.90016999999997 C 273.49354000000005,202.02682 272.90549000000004,202.48653 272.00001000000003,202.89999999999998 C 271.20472,203.26313999999996 270.45747000000006,203.62471999999997 269.70002000000005,203.98400999999998 C 268.83463000000006,204.39451999999997 268.30451000000005,205.10455 267.70002000000005,205.7 C 267.0051700000001,206.38445 266.18018000000006,206.70463999999998 265.30134000000004,206.90133999999998 C 264.54896,207.06973999999997 264.02629,207.64947999999998 263.20451,207.90449999999998 C 262.44142000000005,208.14129999999997 261.89753,208.53153999999998 261.02086,208.92084 C 260.30995,209.23653 259.90422,209.91127 260.50002,210.4 C 261.10503,210.89628000000002 262.00002,210.9 262.90001,210.9 C 263.8,210.9 264.70003,210.9 265.60002000000003,210.9 C 266.50001000000003,210.9 267.10719,211.38317 267.78535000000005,211.81467 C 268.5604000000001,212.30782 269.60066000000006,211.86609 270.50001000000003,211.9 C 271.2588,211.92861 272.13893,212.2875 272.84733000000006,212.54734000000002 C 273.84706000000006,212.91404000000003 274.71259000000003,212.75021 275.59983000000005,212.90017000000003 C 276.45185000000004,213.04418000000004 276.8559000000001,213.87071000000003 277.79999000000004,213.90000000000003 C 278.69824000000006,213.92788000000004 279.40790000000004,214.28509000000003 279.92533000000003,214.87467000000004 C 280.48505000000006,215.51243000000002 281.31809000000004,215.89429000000004 281.49866000000003,216.70135000000005 C 281.69489000000004,217.57833000000005 281.42273,218.56752000000006 281.93601,219.30001000000004 C 282.48966,220.09016000000005 283.16648000000004,220.50040000000004 283.41599,221.38401000000005 C 283.65354,222.22520000000006 283.85718,223.14284000000004 284.5,223.90000000000003 L 285.0,224.40000000000003 L 285.70001,225.10001000000003 L 286.29999000000004,225.70000000000002" fill="none" id="svg_2" stroke="#000" stroke-width="2"/>
	<path d="M 287.5,226.89999 C 287.5,228.69999 287.34293,229.61976 287.52084,230.39999 C 287.74023,231.36201 288.43911,231.99388 288.5,232.89999 C 288.55075,233.65545 288.48502,234.55281 288.5,235.416 C 288.51801,236.45381 289.31808,236.89428999999998 289.49866,237.70134 C 289.69489,238.57832 289.5,239.5 289.5,240.39998999999997 C 289.5,241.29999999999998 289.5,242.19998999999999 289.5,243.10132999999996 C 289.5,244.06665999999996 289.35687,244.76152999999996 289.66666,245.73332999999997 C 289.89304,246.44346999999996 290.41236,247.38719999999998 290.52533,248.14665999999997 C 290.66226,249.06730999999996 290.86261,249.85002999999998 291.07468,250.67465999999996 C 291.3461,251.73012999999997 291.46329000000003,252.43724999999995 291.49552,253.23832999999996 C 291.53718,254.27392999999995 291.72828,255.21850999999995 292.00001,255.89997999999997 C 292.38862,256.87458999999996 292.55267999999995,257.59547999999995 293.00001,258.42082 L 293.37867,259.22148 L 293.52533999999997,260.11064" fill="none" id="svg_3" stroke="#000" stroke-width="2"/>
	<path d="M 294.5,262.89999 C 295.48532,264.73599 295.59509,265.54504000000003 296.20984,266.50451 C 296.63626,267.1701 297.06809,267.5566 297.616,268.58401 C 298.04037999999997,269.37976 298.18685999999997,269.98645 298.82131999999996,270.97850999999997 C 299.27975999999995,271.69530999999995 299.88082999999995,272.27029 300.47866999999997,273.09999999999997 C 300.89892999999995,273.68325 301.35166,274.52534999999995 301.98400999999996,275.29866999999996 C 302.47567999999995,275.89993 303.08581999999996,276.3511 303.85332999999997,277.26399999999995 C 304.43523999999996,277.95613999999995 304.50845,278.75521 305.11064999999996,279.49998999999997 C 305.72835999999995,280.26394 306.38994999999994,280.62275999999997 306.97914999999995,281.39997999999997 C 307.54146999999995,282.14173999999997 307.66664999999995,283.06667 307.99998999999997,283.89997999999997 C 308.33333,284.73332 308.41243999999995,285.55724 308.93598999999995,286.29997 C 309.49195999999995,287.08867 310.1197399999999,287.52356999999995 310.98398999999995,288.10132999999996 C 311.66239999999993,288.55485 312.33496999999994,289.06528999999995 312.87465,289.71464 C 313.38554,290.32935999999995 314.34745999999996,290.83423999999997 314.96166,290.94816 C 316.18563,291.17521 316.72075,291.34299999999996 317.54732,291.54731 C 318.57314,291.80088 319.54821000000004,291.73645999999997 320.33333,292.23330999999996 C 321.12998999999996,292.73745999999994 321.64284,293.63482999999997 322.33599,293.83862999999997 C 323.08312,294.0583 324.10884999999996,294.23742999999996 324.89999,294.60447 C 325.70956,294.98005 326.49945,295.40107 327.1,295.69999 C 328.09908,296.19730000000004 328.88427,296.60880000000003 329.89999,296.81599 C 330.69116,296.97737 331.50155,297.06181 332.31067,297.32533 C 333.18704,297.61076 334.18491,297.82023 335.02084,297.89998 C 335.60421,297.95561000000004 336.80218,298.11186000000004 337.70001,298.32533 C 338.30151,298.46834 339.49777,298.75187 340.09866,298.81465000000003 C 340.97674,298.90639000000004 341.81466,298.89931 342.81332,298.89998 C 343.65331999999995,298.90053 344.74282,298.89998 345.60015,298.89998 C 346.38534,298.89998 347.32561,298.87599 348.33333,298.89998 C 349.08995,298.91799000000003 349.89997999999997,299.33598 350.59999,299.99983000000003 L 351.2,300.54283000000004" fill="none" id="svg_4" stroke="#000" stroke-width="2"/>
	<path d="M 352.5,300.89999 C 354.336,301.32534 355.08722,301.69122 356.10449,301.84283 C 356.73077,301.93618 357.92297,301.86557 358.72534,301.92132 C 359.55060000000003,301.97869 360.60306,302.30501999999996 361.26401000000004,302.76131999999996 C 361.92203000000006,303.21559999999994 362.68628000000007,303.90079 363.29999000000004,304.2640099999999 C 364.08353000000005,304.7277199999999 364.95020000000005,305.01580999999993 365.62799,305.49999999999994 C 366.46759000000003,306.09975999999995 366.86291,306.8355399999999 367.5,307.39998999999995 C 368.12085,307.95003999999994 368.73483,308.65529999999995 369.20001,309.19467 C 369.82123,309.91495 370.60721,310.35292999999996 371.5,310.73334 C 372.25153,311.05353 373.20001,310.9 374.10001,310.9 C 375.02085,310.9 375.82166,310.9 376.74667999999997,310.9 C 377.66666,310.9 378.45716,310.9 379.31068,310.9 C 380.50001,310.9 381.09866999999997,310.9 381.97917,310.9 C 382.81468,310.9 383.81334,310.9 384.65333,310.9 C 385.61600999999996,310.9 386.66667,310.9 387.32536,310.9 C 388.33335999999997,310.9 389.16141999999996,310.90943 390.04267999999996,310.89984999999996 C 391.00016999999997,310.88944 391.78211999999996,310.95203999999995 392.69016999999997,310.54285999999996 C 393.44025999999997,310.20484999999996 394.17396999999994,309.62210999999996 394.90452999999997,309.14284 C 395.72016999999994,308.60771 396.29368999999997,308.03580999999997 397.01435999999995,307.55269 C 397.80540999999994,307.02242 398.46659999999997,306.7802 399.50001999999995,306.40001 C 400.19374999999997,306.14479 401.19651999999996,305.78005 401.98567999999995,305.24284 C 402.47865999999993,304.90724 403.08653999999996,304.28764 403.9026999999999,303.50001 C 404.5334399999999,302.89133999999996 404.9908699999999,302.46655999999996 405.8333599999999,301.9 C 406.7761099999999,301.26603 407.48142999999993,300.9249 408.1375299999999,300.55717 C 409.0030399999999,300.07203 409.8028999999999,299.54792 410.5000199999999,298.9 C 411.05043999999987,298.38842999999997 411.8300099999999,297.72864 412.5053599999999,297.24735 C 412.99757999999986,296.89655 413.7642699999999,296.42449999999997 414.6856899999999,295.65717 C 415.32078999999993,295.12827 415.9000099999999,294.5 416.6000299999999,293.79999 C 417.2000399999999,293.20000999999996 417.7731899999999,292.56109999999995 418.3853699999999,292.10001 C 419.1268599999999,291.54151 419.9821999999999,291.1124 420.66667999999993,290.56668 C 421.48747999999995,289.91226 422.04310999999996,289.33896000000004 422.34669999999994,289.04266 C 422.9897399999999,288.4151 424.02250999999995,287.37899 424.38667999999996,287.01199 C 425.1484,286.24438000000004 425.54382,285.83954 425.94667999999996,285.41732 C 426.79115999999993,284.53228 427.66859999999997,283.56838 428.12152,283.057 C 428.58734,282.53106 429.05841,281.98672 429.53603999999996,281.428 C 430.02212,280.8594 430.5123,280.27996 431.50136999999995,279.09731 C 432.50160999999997,277.90133 432.99990999999994,277.3005 433.49736999999993,276.70266 C 433.99123999999995,276.10918 434.4792099999999,275.52175 434.95836999999995,274.94167 C 435.42855,274.37243 435.88716999999997,273.81550999999996 436.3293699999999,273.27065 C 437.1694599999999,272.23555 437.92851999999993,271.27369999999996 438.28117999999995,270.82331999999997 C 438.93841,269.98402999999996 439.23549999999994,269.58756999999997 439.81202999999994,268.87330999999995 C 440.5689899999999,267.93553999999995 441.2533399999999,267.18267 441.83836999999994,266.56614999999994 L 442.4783499999999,265.9214999999999 L 443.05335999999994,265.3106599999999 L 443.46399999999994,264.4893399999999" fill="none" id="svg_5" stroke="#000" stroke-width="2"/>
	<path d="M 451.5,153.89999 C 449.48566,153.89999 448.67868,153.89999 447.5,153.89999 C 446.89999,153.89999 446.0,153.89991 445.10001,153.89999 C 444.20002,153.90008 443.29782,153.87945 442.4,153.95716000000002 C 441.49674,154.03535000000002 440.59542999999996,154.21603000000002 439.77200999999997,154.51066000000003 C 438.81521999999995,154.85302000000004 438.18841999999995,155.33923000000004 437.33334999999994,155.89999000000003 C 436.6935199999999,156.31961000000004 436.00839999999994,156.73298000000003 435.0000099999999,156.87916000000004 C 434.1865899999999,156.99708000000004 433.2533399999999,156.89735000000005 432.33334999999994,156.89999000000003 C 431.54733999999996,156.90225000000004 430.71441999999996,156.86644000000004 429.6666599999999,157.06666000000004 C 428.94195999999994,157.20515000000003 428.0590899999999,157.60368000000005 427.0786799999999,157.77867000000003 C 426.2815599999999,157.92094000000003 425.43988999999993,157.88753000000003 424.4215099999999,158.12134000000003 C 423.72442999999987,158.28139000000004 422.91604999999987,158.69524000000004 421.8999999999999,158.84284000000002 C 421.1065999999999,158.95809000000003 420.10131999999993,158.89947000000004 419.3359999999999,158.90000000000003 C 418.3853499999999,158.90067000000005 417.4656999999999,159.02476000000004 416.7999899999999,159.60451000000003 C 416.1648899999999,160.15760000000003 415.35644999999994,160.68122000000002 414.6146599999999,161.06934000000004 C 413.7853099999999,161.50325000000004 413.3776299999999,162.12548000000004 412.5215199999999,162.65734000000003 C 411.7423799999999,163.14138000000003 411.1405999999999,163.80169000000004 410.6146599999999,164.41733000000002 C 410.0647299999999,165.06104000000002 409.2908999999999,165.49234 408.2998399999999,166.00017000000003 C 407.6902799999999,166.31252000000003 407.0368399999999,166.64702000000003 406.0783399999999,167.22133000000002 C 405.5348499999999,167.54697000000002 404.66482999999994,168.09714000000002 404.0133399999999,168.41600000000003 C 402.9953999999999,168.91423000000003 402.2501899999999,169.15201000000002 401.4999999999999,169.37917000000002 C 400.7553699999999,169.60465000000002 399.6632999999999,169.88898 398.6616499999999,170.20000000000002 C 398.0394899999999,170.39318000000003 397.1676899999999,170.65564 396.1853299999999,171.10266000000001 C 395.5063399999999,171.41162000000003 394.8535099999999,171.82539000000003 394.10131999999993,172.668 C 393.4791899999999,173.36493000000002 393.1975099999999,173.92593 392.5213299999999,174.757 C 391.90975999999995,175.50865000000002 391.1770899999999,175.99734 390.49999999999994,176.39999 C 389.6646999999999,176.89671 388.98375999999996,177.3934 388.3998399999999,178.22116 C 387.94963999999993,178.85934 387.3528399999999,179.62463 386.49999999999994,179.87915999999998 C 385.68148999999994,180.12345 384.95638999999994,180.56181999999998 384.1954999999999,181.19548999999998 C 383.64507999999995,181.65388 382.6557699999999,181.82747999999998 381.89868999999993,181.98399999999998 C 380.8805299999999,182.19450999999998 380.27005999999994,182.52541 379.33334999999994,182.89998999999997 C 378.55218999999994,183.21236999999996 377.7185099999999,183.48236999999997 376.6666599999999,183.89998999999997 C 375.95233999999994,184.18361 375.32906999999994,184.53063999999998 374.2998399999999,184.77883999999997 C 373.4901799999999,184.97408999999996 372.7832099999999,184.99847999999997 371.8186699999999,185.46932999999999 C 371.0110799999999,185.86356999999998 370.2858599999999,186.35741 369.6625099999999,187.14283999999998 C 369.0998899999999,187.85178 368.33425999999986,188.23614999999998 367.74282999999986,189.00016999999997 C 367.3029799999999,189.56837999999996 367.2743199999999,190.63915999999998 366.6986699999999,191.33067999999997 C 366.1323199999999,192.01098999999996 365.58040999999986,192.61911999999998 365.44732999999985,193.30900999999997 C 365.25451999999984,194.30851999999996 364.88665999999984,195.09869999999998 364.40017999999986,196.10000999999997 C 364.1090399999999,196.69921999999997 363.7510399999999,197.49256999999997 363.55267999999984,198.49099999999996 C 363.38714999999985,199.32410999999996 362.68188999999984,199.89010999999996 362.50134999999983,200.70133999999996 C 362.3061299999998,201.57854999999995 362.5019599999998,202.51960999999997 362.07467999999983,203.29999999999995 C 361.62429999999983,204.12256999999997 361.49999999999983,204.99999999999994 361.49999999999983,205.89998999999995 C 361.49999999999983,206.69998999999996 361.49999999999983,207.59999999999994 361.49999999999983,208.49999999999994 C 361.49999999999983,209.39998999999995 361.49999999999983,210.29999999999995 361.49999999999983,211.19999999999993 C 361.49999999999983,212.10133999999994 361.49999999999983,213.06666999999993 361.49999999999983,213.72533999999993 C 361.49999999999983,214.73333999999994 361.71511999999984,215.44793999999993 362.33333999999985,216.06665999999993 C 362.9523599999998,216.68616999999992 363.67543999999987,217.04576999999992 364.33599999999984,217.33598999999992 C 365.11242999999985,217.67711999999992 365.88268999999985,218.13423999999992 366.6639999999998,218.4639999999999 C 367.59752999999984,218.85800999999992 368.65563999999983,218.7134499999999 369.49999999999983,219.0666599999999 C 370.21554999999984,219.3659899999999 370.79943999999983,220.0419699999999 371.49999999999983,220.3791599999999 C 372.4522699999998,220.8374899999999 373.2986799999998,220.8993199999999 374.20000999999985,220.8999899999999 C 375.13597999999985,220.90067999999988 375.98665999999986,220.8999899999999 376.7466699999998,220.8999899999999 C 377.9213199999998,220.8999899999999 378.72533999999985,220.8999899999999 379.5473299999998,220.8999899999999 C 380.5786699999998,220.8999899999999 381.2746599999998,220.8999899999999 382.1839899999998,220.8999899999999 C 383.18532999999985,220.8999899999999 384.02083999999985,220.8999899999999 384.6044899999998,220.8999899999999 C 385.7998299999998,220.8999899999999 386.6893299999998,220.8999899999999 387.54283999999984,220.8999899999999 C 388.57847999999984,220.8999899999999 389.26399999999984,220.8999899999999 390.0986599999998,220.8999899999999 C 391.0954899999998,220.8999899999999 391.8428299999998,220.8999899999999 392.87465999999984,220.8999899999999 C 393.82131999999984,220.8999899999999 394.6746499999998,220.8999899999999 395.6146499999998,220.8999899999999 C 396.49999999999983,220.8999899999999 397.2571699999998,220.8999899999999 398.16164999999984,220.8999899999999 C 398.96166999999986,220.8999899999999 399.92150999999984,220.8999899999999 400.73598999999984,220.8999899999999 C 401.6044899999998,220.8999899999999 402.80031999999983,220.8999899999999 403.40898999999985,220.8999899999999 C 404.37199999999984,220.8999899999999 405.07066999999984,220.8999899999999 406.2428199999998,220.8999899999999 C 407.10981999999984,220.8999899999999 408.02083999999985,220.8999899999999 408.4853099999998,220.8999899999999 C 409.4173199999998,220.8999899999999 410.7783099999998,220.8999899999999 411.6383299999998,220.8999899999999 C 412.45833999999985,220.8999899999999 413.2383399999998,220.8999899999999 414.33333999999985,220.8999899999999 C 415.0133299999998,220.8999899999999 415.95833999999985,220.8999899999999 416.81331999999986,220.8999899999999 C 417.8146599999999,220.8999899999999 418.68932999999987,220.8999899999999 419.69982999999985,220.8999899999999 C 420.47915999999987,220.8999899999999 421.33333999999985,220.8999899999999 422.2526599999999,220.8999899999999 C 423.1571699999999,220.8999899999999 423.9045199999999,220.8999899999999 424.89999999999986,220.8999899999999 C 425.7000199999999,220.8999899999999 426.6998399999999,220.8999899999999 427.47915999999987,220.8999899999999 C 428.47848999999985,220.8999899999999 429.2986799999999,220.8999899999999 430.2571799999999,220.8999899999999 C 431.1571699999999,220.8999899999999 431.9047599999999,220.9208799999999 432.89999999999986,220.8986599999999 C 433.70056999999986,220.8807899999999 434.72348999999986,220.73396999999989 435.47915999999987,220.3791599999999 C 436.3656999999999,219.9628999999999 437.0238399999999,219.4906999999999 437.79550999999987,218.9481599999999 C 438.41888999999986,218.5098799999999 438.4834099999999,217.5927699999999 438.00000999999986,216.73332999999988 C 437.5266799999999,215.89178999999987 436.97479999999985,215.40370999999988 436.4436699999999,214.90982999999989 C 435.6892099999999,214.20825999999988 434.9730299999999,213.6865499999999 434.10449999999986,213.2089899999999 C 433.31378999999987,212.77423999999988 432.49100999999985,212.4478099999999 431.66665999999987,211.89997999999989 C 430.97262999999987,211.43874999999989 430.3605699999999,210.84916999999987 429.4999999999999,210.42081999999988 C 428.6893899999999,210.01732999999987 427.8909899999999,209.91230999999988 427.1000099999999,209.47464999999988 C 426.28179999999986,209.0219399999999 426.2805199999999,208.5649199999999 427.0186799999999,208.09863999999988 C 427.7661799999999,207.62645999999987 428.4571299999999,207.12111999999988 429.5188299999999,206.9526399999999 C 430.05828999999994,206.8670399999999 430.9913899999999,206.8394699999999 432.0213299999999,206.6786399999999 C 432.7554599999999,206.56399999999988 433.4975599999999,206.38705999999988 434.2473399999999,206.25264999999987 C 435.6741299999999,205.99684999999988 436.3375799999999,205.93843999999987 437.2533199999999,205.91064999999986 C 438.33287999999993,205.87788999999987 439.0498899999999,205.96426999999986 439.8954999999999,205.84280999999987 C 440.91383999999994,205.69653999999989 441.6918299999999,205.33293999999987 442.47847999999993,204.80014999999986 C 443.11366999999996,204.36992999999987 444.03630999999996,203.97293999999985 444.79997999999995,203.54730999999987 C 445.54170999999997,203.13391999999988 446.25343999999996,202.58842999999987 446.78398999999996,201.98398999999986 C 447.33324999999996,201.35822999999985 446.72441999999995,201.15634999999986 446.06798999999995,200.81597999999985 C 445.2627499999999,200.39841999999985 444.6824,199.66785999999985 444.49983999999995,198.80015999999986 C 444.33311999999995,198.00776999999985 443.30470999999994,197.79383999999988 442.68532999999996,197.46398999999985 C 441.78346999999997,196.98371999999986 441.37262,196.04177999999985 442.04164999999995,195.42081999999985 C 442.68388999999996,194.82473999999985 443.7240499999999,194.93566999999985 444.49998999999997,194.73331999999985 C 445.29726,194.52541999999985 445.99818999999997,193.74402999999984 446.60533999999996,193.25714999999985 C 447.35686999999996,192.65449999999984 448.15133,192.41891999999984 448.86166,191.95264999999986 C 449.55913999999996,191.49480999999986 450.61760999999996,191.52919999999986 451.25717,190.80014999999986 C 451.81116,190.16862999999987 452.17031999999995,189.35330999999985 452.85717999999997,188.95714999999987 C 453.67175999999995,188.48732999999987 454.63784999999996,188.23339999999988 453.97916,187.92081999999988 C 453.17501999999996,187.5392299999999 452.17868,187.90058999999988 451.32534999999996,187.89997999999989 C 450.388,187.89930999999987 449.96279999999996,187.45518999999987 450.60015999999996,186.7998199999999 C 451.12847999999997,186.2565899999999 451.80648999999994,185.5623599999999 452.34667999999994,185.0746499999999 C 452.94539999999995,184.5340899999999 453.91051999999996,183.8980899999999 454.72533999999996,183.5359799999999 C 455.26791,183.29485999999991 456.34653,182.9290299999999 457.04283999999996,182.5954899999999 C 457.91347999999994,182.1784399999999 458.72117999999995,181.6015599999999 459.29997999999995,181.0533099999999 C 459.92375999999996,180.4624599999999 460.50068999999996,179.7338699999999 461.1089999999999,178.9428199999999 C 461.54216999999994,178.3795399999999 461.9818599999999,177.7646699999999 462.83332999999993,176.8999699999999 C 463.4454799999999,176.27830999999992 463.80033999999995,175.99850999999992 464.4999899999999,175.4208099999999 C 465.1898099999999,174.8512099999999 466.1837999999999,174.0858499999999 466.7266399999999,173.5839699999999 C 467.4400499999999,172.9244099999999 468.0168599999999,172.2479999999999 468.3319899999999,171.2172999999999 C 468.5699999999999,170.43885999999992 468.5352699999999,169.5876299999999 469.0679799999999,168.87063999999992 C 469.5449699999999,168.22862999999992 470.4427999999999,167.60540999999992 470.4999899999999,166.69996999999992 C 470.5567199999999,165.8019299999999 470.2140999999999,164.94337999999993 469.4426499999999,164.9013099999999 C 468.4467999999999,164.8470199999999 467.8017199999999,164.8916499999999 467.1039999999999,164.93597999999992 C 465.66362999999996,165.02748999999991 464.98403999999994,165.16763999999992 464.06249999999994,165.3999699999999 C 463.51629999999994,165.5376699999999 462.12832999999995,165.7267999999999 462.15731999999997,165.8999699999999 C 462.29398,166.71661999999992 463.90450999999996,165.8999699999999 464.89867999999996,165.8999699999999 C 465.66399999999993,165.8999699999999 466.66277999999994,166.06529999999992 467.49999999999994,165.7333099999999 C 468.2023899999999,165.45478999999992 469.03594999999996,165.1664899999999 469.79015999999996,164.8473099999999 C 470.65880999999996,164.4796999999999 471.21462999999994,163.6075899999999 471.85184,163.1999699999999 C 472.61924,162.70905999999988 473.36981,162.13474999999988 473.49552,161.1999699999999 C 473.61075,160.34310999999988 472.79551,159.9022299999999 471.9,159.89996999999988 C 471.00001,159.89770999999988 470.06924999999995,159.9624199999999 469.17868999999996,159.6786399999999 C 468.47964999999994,159.4558899999999 467.52151999999995,159.02146999999988 466.70133,158.90130999999988 L 465.79999,158.89996999999988 L 464.9,158.89996999999988 L 464.00001,158.89996999999988" fill="none" id="svg_6" stroke="#000" stroke-width="2"/>
	<path d="M 332.5,176.89999 C 332.5,178.65716 332.3176,179.61175 332.67065,180.416 C 333.03549000000004,181.24712 333.90716000000003,181.59909 334.70001,182.0 C 335.49817,182.40361 336.1,182.69998 337.1,183.2 C 337.89999,183.60001 338.70001,184.0 339.49999,184.39999999999998 C 340.1,184.7 341.07702,185.23837999999998 341.84282,185.54283999999998 C 342.72438,185.89332 343.74846,185.74648 344.49999,186.06667 C 345.28121000000004,186.39949 345.9717,187.01051999999999 346.55266,187.54734 C 347.24132000000003,188.18367999999998 347.782,188.85728 348.59999,188.89999999999998 C 349.49876,188.94693999999998 350.30012,188.91729999999998 351.2,188.89999999999998 C 352.13649,188.88198999999997 352.98598,188.61311999999998 353.74665999999996,188.28933999999998 C 354.66585,187.89809999999997 355.45322999999996,187.60162999999997 356.27464,187.30001 C 356.81638999999996,187.10108 357.7985,186.66 358.68931,186.33601 C 359.68415,185.97419 360.54794999999996,186.00402 361.49998,185.56668 C 362.13801,185.27356999999998 362.61821,184.68399 363.47865,184.14252 C 364.218,183.67726 365.00151,183.05817 365.49998,182.35836 C 365.86021,181.85264 366.44538,180.80086 366.87464,180.15736 C 367.34849,179.44702 368.20948,179.14386000000002 369.01597,178.73202 C 369.82658,178.31808 370.18307999999996,177.47480000000002 370.98399,176.78536 C 371.46278,176.3732 372.47395,175.79382999999999 372.99998,175.40001 C 373.81434,174.79035000000002 374.51649,174.39143 375.49998,173.90001 C 376.10188,173.59926000000002 376.94352,173.19222000000002 377.92131,173.02152 C 378.71782,172.88247 379.54735,172.9101 380.57848,172.89986000000002 C 381.26406000000003,172.89305000000002 382.11544000000004,172.87082 383.09548,172.54735000000002 C 383.85833,172.29556000000002 384.87465000000003,171.93602 385.82131,171.90001 L 386.49998999999997,171.90001 L 387.47848,171.90001 L 388.29867,171.90001" fill="none" id="svg_7" stroke="#000" stroke-width="2"/>
	<path d="M 441.5,260.89999 C 444.10001,259.6 444.89798,259.19598 445.70016,258.79998 C 446.51882,258.39587 447.18115,258.08941 448.18267,257.7 C 448.97591,257.39155999999997 449.78621999999996,257.19417 450.68566,256.59999 C 451.34484,256.16453 451.91758999999996,255.51717 452.59981,254.79998999999998 C 453.15755,254.21366999999998 453.3333,253.38288999999997 453.51067,252.49998999999997 C 453.70113,251.55194999999998 454.28063000000003,251.02975999999998 454.47466000000003,250.05331999999996 C 454.63976,249.22247999999996 454.77633000000003,248.21209999999996 454.93599,247.66398999999996 C 455.19023,246.79119999999995 455.60744,245.60241999999997 455.79549000000003,244.99998999999997 C 456.07537,244.10347999999996 456.25750000000005,243.50639999999996 456.41597,242.30131999999998 C 456.5313,241.42437999999999 456.52592000000004,240.57192999999998 456.78398000000004,239.58532999999997 C 456.96080000000006,238.90933999999996 457.34895000000006,237.90258999999998 457.47465000000005,237.09998999999996 C 457.59959000000003,236.30227999999997 457.8406800000001,235.29274999999996 458.11064000000005,234.69997999999995 C 458.57200000000006,233.68685999999997 459.02498,232.91599999999994 459.21464000000003,232.29998999999995 C 459.51777000000004,231.31550999999996 459.49165000000005,230.44279999999995 459.50013,229.47831999999994 C 459.50739,228.65328999999994 459.53025,227.73502999999994 459.66663,226.73331999999994 C 459.76471,226.01310999999993 459.92844,225.27526999999992 460.07465,224.52530999999993 C 460.21906,223.78456999999995 460.42786,222.38753999999994 460.46396000000004,221.74664999999993 C 460.51376000000005,220.86247999999992 460.49997,219.82164999999992 460.49997,218.94163999999992 L 460.49997,217.92131999999992 L 460.49997,217.14731999999992 L 460.50446,216.25180999999992" fill="none" id="svg_8" stroke="#000" stroke-width="2"/>
	<path d="M 461.5,214.89999 C 463.35733,213.51066 464.00797,213.19757 465.14316,213.02133 C 465.8143,212.91714000000002 466.56314000000003,212.90883 467.36618000000004,212.84733 C 468.66785000000004,212.74764 469.58514,212.62014 470.05267000000003,212.53832 C 471.00250000000005,212.37211 471.95047000000005,212.14959 472.41598000000005,212.01333 C 473.78823000000006,211.61164 474.63592000000006,211.25222 475.04266000000007,211.07466 C 475.8214700000001,210.73466 477.1653100000001,210.06398 477.7306500000001,209.78534 C 478.4774200000001,209.41727999999998 479.1769700000001,209.08682 480.1839900000001,208.7 C 480.9955700000001,208.38823 481.82715000000013,208.12673999999998 482.8133200000001,207.7 C 483.46618000000007,207.41747999999998 484.29498000000007,206.84152999999998 485.0000000000001,206.42084 C 485.7845200000001,205.95272 486.5734900000001,206.01161 487.5000000000001,205.56667 C 488.37738000000013,205.14531 488.7203700000001,204.65959999999998 489.6666600000001,203.89999999999998 C 490.1797200000001,203.48816999999997 491.0596700000001,202.87488 491.7188500000001,202.44284999999996 C 492.0705000000001,202.21236999999996 493.2436000000001,201.47926999999996 494.1143300000001,200.93834999999996 C 494.57231000000013,200.65382999999997 495.5227200000001,200.05547999999996 496.0090100000001,199.73834999999997 C 496.5040700000001,199.41549999999998 498.0025700000001,198.38202999999996 498.4986600000001,198.01333999999997 C 498.9982900000001,197.64202999999998 499.5001200000001,197.26632999999998 500.4639900000001,196.45333999999997 C 500.94837000000007,196.04478999999998 501.4328000000001,195.63189999999997 502.3333400000001,194.73333999999997 C 503.2331500000001,193.83549999999997 503.64407000000006,193.35294999999996 504.0639900000001,192.88532999999998 C 504.8917800000001,191.96353 505.2880800000001,191.50294 505.69866000000013,191.06933999999998 C 506.87902000000014,189.82279999999997 507.29043000000013,189.45958 508.10000000000014,188.77201 C 508.49542000000014,188.43618999999998 509.29867000000013,187.8073 509.70001000000013,187.50268 C 510.89566000000013,186.5951 511.68866000000014,186.00729 512.0679900000001,185.71067 C 512.7961400000002,185.1413 513.4880300000001,184.62855 514.2356500000001,183.82151 C 514.8402000000001,183.16888999999998 515.2062300000001,182.47628 515.8214700000001,181.70016999999999 C 516.3075500000001,181.087 516.8703600000001,180.5111 517.90002,179.784 C 518.48193,179.37311 519.1336600000001,179.05774 520.0955200000001,178.24733 C 520.68573,177.75005000000002 521.2525600000001,176.96747 522.0000000000001,176.44167000000002 C 522.7546400000001,175.91079000000002 523.5476100000001,176.05269 524.4786400000002,175.6785 C 525.1789600000002,175.39704 525.9586800000002,174.64273 526.7107000000002,174.336 C 527.6718200000003,173.94397 528.5163600000002,174.03324 529.3333200000002,173.73334000000003 C 530.1856800000002,173.42044 530.7950500000002,172.74672000000004 531.5208200000002,172.42084000000003 C 532.4707100000002,171.99433000000002 533.3089700000002,171.97785000000002 534.0999800000002,171.81600000000003 C 535.1113900000001,171.60906000000003 535.8623700000002,171.22480000000004 536.6146900000002,170.70135000000002 C 537.3180000000002,170.21200000000002 538.6036400000003,170.31446000000003 538.9583200000002,169.4 C 539.1474700000002,168.91242 537.9725400000002,168.83242 537.3901400000002,168.1955 C 536.8196400000002,167.57161000000002 536.1017500000002,167.21509 535.1013200000002,166.98267 C 534.3427800000002,166.80645 533.3369800000003,166.36200000000002 532.9106500000003,165.67867 C 532.4447100000002,164.93178 532.0996800000003,164.10016000000002 531.7999900000002,163.5 C 531.3007800000003,162.50026 530.8700600000002,161.71924 530.6666900000002,160.89999 C 530.4714400000003,160.11328 530.5420600000002,159.29893 530.4954900000002,158.3045 C 530.4523400000003,157.38279 530.0376700000003,156.54344 529.5000100000002,155.73333 C 529.0788700000002,155.09884 528.5523800000002,154.08871 527.8640200000002,153.92132999999998 C 526.8759200000002,153.68106999999998 526.1526600000002,153.89997999999997 525.1253100000002,153.89997999999997 C 524.1785300000003,153.89997999999997 523.4791900000002,153.89352999999997 522.5000000000002,153.89997999999997 C 521.6892700000002,153.90531999999996 520.8054200000003,153.94388999999998 519.8159800000002,154.18531999999996 C 518.9909100000002,154.38662999999997 518.1711400000002,154.67034999999996 517.4215100000002,155.00031999999996 C 516.5034800000002,155.40439999999995 515.8585200000002,155.82988999999995 515.0999800000002,156.66932999999995 C 514.6748700000002,157.13975999999994 514.1180500000002,157.96601999999996 513.5000000000002,158.73332999999994 C 512.9210800000002,159.45202999999995 512.5304600000002,159.86786999999993 511.6666600000002,160.73332999999994 C 511.1417900000002,161.25918999999993 510.0664100000002,162.08175999999995 509.6214900000002,161.45715999999993 C 509.18594000000024,160.84568999999993 509.3547400000002,159.73587999999992 509.6706500000002,159.01599999999993 C 510.0479400000002,158.15620999999993 510.84231000000017,157.54306999999994 511.4788200000002,156.92132999999993 C 512.1514300000002,156.26435999999993 512.8170200000002,155.70944999999992 513.5143400000002,155.25181999999992 C 514.3038900000001,154.73365999999993 514.8790900000001,154.39051999999992 516.0999700000002,154.06799999999993 C 516.6911000000002,153.91183999999993 517.6199300000002,153.86247999999992 518.4999900000003,153.56665999999993 C 519.4263800000002,153.25525999999994 520.0062200000002,152.86826999999994 520.5999700000002,152.49098999999993 C 521.8129800000003,151.72024999999994 522.3954400000002,151.29725999999994 522.9999900000003,150.92082999999994 C 523.5955700000003,150.54997999999995 524.7993700000003,149.92064999999994 525.3909800000002,149.65265999999994 C 526.2275900000002,149.27368999999993 527.2148300000002,148.77971999999994 527.6901700000002,148.23833999999994 C 528.1671000000002,147.69519999999994 528.6620900000001,146.73046999999994 529.1526300000002,145.94733999999994 C 529.4967500000001,145.39795999999993 530.0182900000002,144.58539999999994 530.6160100000002,143.58666999999994 C 531.0015100000002,142.94256999999993 531.3647300000002,142.36625999999995 532.1481800000001,141.64815999999993 C 532.7751900000002,141.07341999999994 533.3525900000002,140.13610999999995 533.4791700000002,139.39998999999995 C 533.6044100000001,138.67140999999995 534.0208000000002,137.79224999999994 534.3784600000001,136.79999999999995 C 534.6193000000002,136.13184999999996 534.6080100000001,135.38512999999995 534.0568000000002,136.22132999999997 C 533.6887600000002,136.77967999999996 533.0790200000001,137.32181999999997 532.0784700000002,137.87833999999998 C 531.2948400000001,138.31420999999997 530.7013900000002,138.51084999999998 529.4999800000002,138.73333999999997 C 528.9058600000002,138.84335999999996 528.0209800000001,138.88836999999998 527.1853400000001,138.89866999999998 C 526.1854000000001,138.91099999999997 525.3106500000001,138.89999999999998 524.29996,138.89999999999998 C 523.4999700000001,138.89999999999998 522.48734,139.02014999999997 521.7212900000001,138.87866999999997 C 520.7957500000001,138.70772999999997 520.69901,137.81534999999997 520.2784800000001,136.92166999999998 C 519.9302100000001,136.18165 518.8973800000001,135.90082999999998 518.4473,135.19549999999998 C 517.95639,134.42613999999998 517.62333,133.54878999999997 517.0746200000001,132.92533999999998 C 516.5602200000001,132.34087999999997 515.8706400000001,131.73914999999997 514.9999700000001,131.92083999999997 C 514.1545100000001,132.09725999999998 514.03677,134.20658999999998 513.2186600000001,133.81333999999998 C 512.8606300000001,133.64123999999998 513.9727500000001,133.03419999999997 514.4493100000001,132.08533999999997 C 514.8687400000001,131.25023 515.6061100000001,131.05910999999998 516.3332800000001,130.56665999999998 C 517.1018300000001,130.04617 517.45694,129.09929999999997 518.2999500000001,128.90266 C 519.1783700000001,128.69774999999998 520.0114400000001,128.41984 520.7954300000001,127.95266 C 521.4483200000001,127.56361 520.9793300000001,126.91041999999999 520.0999300000001,126.89998999999999 C 519.2000300000001,126.88932999999999 518.2999400000001,126.89998999999999 517.3999800000001,126.89998999999999 C 516.4999600000001,126.89998999999999 515.6895900000002,126.79991999999999 514.8639700000001,126.93598999999999 C 513.9896400000001,127.08008999999998 513.2709500000001,127.55371999999998 512.0784500000001,127.77848999999999 C 511.5483000000001,127.87840999999999 510.68932000000007,127.89168 509.4999600000001,127.89998999999999 C 508.5999700000001,127.90628 507.9959000000001,127.87822999999999 507.0999700000001,127.98531999999999 C 505.8930900000001,128.12958999999998 505.2902200000001,128.29607 504.4571200000001,128.66164999999998 C 503.6437700000001,129.01854999999998 502.98327000000006,129.57608 502.1616200000001,130.19015 C 501.4030400000001,130.75708999999998 500.6022300000001,130.94666999999998 499.84280000000007,131.25715 C 499.0799800000001,131.56902 498.09146000000004,132.08167 497.52081000000004,132.39997 C 496.50271000000004,132.96787 495.90237,133.54104999999998 495.17831000000007,133.99998 C 494.4826300000001,134.44091 493.8203700000001,134.71814999999998 492.8146300000001,135.09999 C 491.9847000000001,135.41508 491.39486000000005,135.59814 490.19979000000006,136.00015 C 489.59515000000005,136.20354999999998 488.65990000000005,136.52566 488.01464000000004,136.78531999999998 C 486.97149,137.20508999999998 486.23446000000007,137.55386 485.45830000000007,137.94164999999998 C 484.63414000000006,138.35341999999997 484.20873000000006,138.57841 482.87880000000007,139.32115 C 482.4156700000001,139.57979999999998 481.48613000000006,140.11614999999998 481.02080000000007,140.37914999999998 C 480.1114400000001,140.89309999999998 479.68270000000007,141.15756 478.44295000000005,141.75715999999997 C 477.72173000000004,142.10597999999996 476.71529000000004,142.50118999999998 476.10262000000006,142.78265999999996 C 475.19094000000007,143.20149999999995 474.3131900000001,143.71293999999997 473.77196000000004,144.07464999999996 C 472.81856000000005,144.71180999999996 472.14919000000003,145.24082999999996 471.40013000000005,145.99998999999997 C 470.92094000000003,146.48562999999996 470.49995000000007,147.37915999999996 469.88930000000005,147.88931999999997 L 469.02080000000007,147.92082999999997 L 468.4472800000001,148.54732999999996 L 467.7839500000001,148.98400999999996" fill="none" id="svg_9" stroke="#000" stroke-width="2"/>
	<path d="M 288.5,196.89999 C 288.936,195.08534 289.448,194.09019 290.13599,193.92134000000001 C 291.12806,193.67784 291.92261,193.91115000000002 292.89869,193.616 C 293.68228999999997,193.37905 294.47276,192.96219000000002 295.38401,192.90134 C 296.33389999999997,192.83791 297.10132999999996,192.9 298.0955,192.9 C 298.84284,192.9 299.86402000000004,192.9 300.70002,192.9 C 301.60001,192.9 302.50001,192.9 303.3,192.9 C 304.20002,192.9 305.10002000000003,192.9 306.00001000000003,192.9 C 306.90000000000003,192.9 307.8,192.9 308.70133000000004,192.9 C 309.66666000000004,192.9 310.54557000000005,192.88958 311.18668,192.98534 C 312.19117,193.13538 312.97324000000003,193.42174 313.73066,193.616 C 314.82041,193.89551 315.70002,193.9 316.60001,193.9 C 317.5,193.9 318.29999,193.98534 319.10001,194.51067 L 319.70002,195.09867 L 320.50001,195.73334 L 321.20002,195.89551" fill="none" id="svg_10" stroke="#000" stroke-width="2"/>
	<path d="M 292.5,200.89999 C 292.5,199.19999 292.5,198.3 292.5,197.39999 C 292.5,196.5 292.31552,195.25349 293.02084,194.92083 C 293.81622000000004,194.54570999999999 294.79998,194.89999 295.70001,194.89999 C 296.6,194.89999 297.67999000000003,194.52317 298.33334,195.06666 C 299.02334,195.64062 299.25525000000005,196.43902 299.47915,197.39999 C 299.68108,198.26667 299.9389,198.95759 300.55267,199.54733 C 301.16134,200.13215 301.27893,201.01263 301.78398999999996,201.73066 C 302.26921999999996,202.42048 302.75363,203.46711 302.06398999999993,203.86399 C 301.3143299999999,204.29542 300.4687399999999,204.23688 299.7000099999999,204.61599 C 298.8547599999999,205.03281 297.8999899999999,204.89999 296.9999999999999,204.89999 C 296.0893199999999,204.89999 295.1786799999999,204.90039000000002 294.4999999999999,204.89999 C 293.3853499999999,204.89932 292.4999999999999,204.73333 291.8999899999999,204.28933 L 291.2000099999999,203.6 L 290.7000099999999,203.1" fill="none" id="svg_11" stroke="#000" stroke-width="2"/>
	<path d="M 292.5,228.89999 C 294.29999,228.89999 295.13599,228.89999 295.98666,228.89999 C 296.74667,228.89999 297.92175,228.91729 298.72533999999996,228.88932 C 299.54814999999996,228.86068 300.58757999999995,228.70551 301.27466,228.464 C 301.96265,228.22218 302.91638,227.78666 303.71466,227.51066 C 304.48575,227.24404 305.58664,227.14665 306.5,226.73333 C 307.16104,226.43418 308.08157,225.98534 308.5,225.37915999999998 C 308.98816,224.67191999999997 309.33334,223.73333 309.5,222.89998999999997 C 309.66666,222.06665999999998 310.21664,221.51021999999998 310.97916,220.89998999999997 C 311.60040999999995,220.40279999999998 311.46198,219.36206999999996 311.7215,218.57832999999997 C 311.96662,217.83810999999997 312.32184,217.22125999999997 312.69867,216.21731999999997 C 312.99541999999997,215.42674999999997 313.31528,214.68742999999998 313.46398999999997,213.57199999999997 C 313.59252999999995,212.60768999999996 313.80688999999995,211.85318999999998 314.21599999999995,211.09999999999997 C 314.64922999999993,210.30247999999997 315.20546999999993,209.62657999999996 315.75467,209.09865999999997 C 316.44016,208.43974999999998 317.28439,208.28658999999996 318.33333999999996,208.06665999999996 C 319.03664999999995,207.91919999999996 319.89549999999997,207.84732999999994 320.89867999999996,207.61465999999996 L 321.66399999999993,207.28932999999995 L 322.47847999999993,206.80015999999995 L 323.08931999999993,206.33598999999995" fill="none" id="svg_12" stroke="#000" stroke-width="2"/>
</svg>
