<?xml version="1.0" ?>
<svg baseProfile="full" height="480" version="1.1" width="640" xmlns="http://www.w3.org/2000/svg" xmlns:ev="http://www.w3.org/2001/xml-events" xmlns:xlink="http://www.w3.org/1999/xlink">
	<defs/>
	<path d="M 300.0,204.0 C 299.42532,205.60001 299.10696,206.62061 298.45834,207.0 C 297.60879,207.49692 296.8605,207.69499 295.88534000000004,207.91467 C 295.01763000000005,208.11014 294.24282000000005,208.0 293.34283000000005,208.0 C 292.59549000000004,208.0 291.4045100000001,208.0 290.65716000000003,208.0 C 289.75717000000003,208.0 288.79998,208.0 287.89999000000006,208.0 C 287.00000000000006,208.0 286.2000100000001,208.0 285.36401000000006,208.0 C 284.3473200000001,208.0 283.64596000000006,208.10698 282.6253300000001,207.98933 C 281.6618600000001,207.87828 280.9707000000001,207.52687 280.16665000000006,207.0 C 279.49404000000004,206.55923 278.6235300000001,206.15048 278.0146700000001,205.564 C 277.3214900000001,204.89629 276.7797500000001,204.39785 275.9999900000001,204.0 C 275.2117500000001,203.59782 274.44085000000007,203.25844 273.6359800000001,202.60001 C 272.9592200000001,202.04639 272.4932800000001,201.3671 272.0146700000001,200.60001 C 271.48937000000006,199.75808 270.7550300000001,199.39708 269.9999900000001,198.83333 C 269.3840800000001,198.37348 268.82110000000006,197.84014 268.02166000000005,197.0215 C 267.43554000000006,196.42131 267.07973000000004,195.55916 266.47915000000006,194.97917 C 265.85177000000004,194.37332 265.44680000000005,193.80374 264.7044900000001,193.10983000000002 C 264.06304000000006,192.51022 263.7607000000001,191.68538 263.4999900000001,190.97917 C 263.14177000000007,190.00883000000002 263.3165200000001,189.10271 262.8333300000001,188.33333000000002 C 262.35329000000013,187.56893000000002 261.9999900000001,186.83333000000002 261.9999900000001,186.17467000000002 C 261.9999900000001,185.16667 261.9999900000001,184.37467 261.9999900000001,183.34734000000003 C 261.9999900000001,182.65267000000003 262.0850400000001,181.63175000000004 261.9955000000001,180.69550000000004 C 261.9119700000001,179.82219000000003 261.4397400000001,179.02164000000005 261.1666400000001,178.16668000000004 C 260.9186800000001,177.39037000000005 260.6928900000001,176.52529000000004 260.4253100000001,175.82534000000004 C 260.0218700000001,174.77000000000004 260.0044400000001,173.89982000000003 259.9999900000001,173.11468000000005 C 259.9946500000001,172.17463000000004 259.83922000000007,171.16361000000006 259.4999900000001,170.52084000000005 C 259.06466000000006,169.69600000000005 259.0957800000001,168.79487000000006 258.9996500000001,167.89984000000004 C 258.9138700000001,167.10101000000003 258.2738200000001,166.36438000000004 257.85066000000006,165.82535000000004 C 257.13426000000004,164.91277000000005 257.00133000000005,164.20136000000005 256.99998000000005,163.30002000000005 C 256.99867000000006,162.40001000000004 256.99998000000005,161.47919000000005 256.99998000000005,160.51602000000005 C 256.99998000000005,159.82535000000004 256.99998000000005,158.75268000000005 256.99998000000005,157.83334000000005 C 256.99998000000005,157.00001000000006 256.99998000000005,156.02151000000006 256.99998000000005,155.20135000000005 C 256.99998000000005,154.40000000000003 256.99998000000005,153.47918000000004 256.99998000000005,152.51602000000005 C 256.99998000000005,151.82535000000004 256.99998000000005,150.75719000000007 256.99998000000005,149.90001000000007 C 256.99998000000005,149.00002000000006 256.9826800000001,148.19985000000005 256.99998000000005,147.30002000000007 C 257.01799000000005,146.36350000000007 257.24488,145.49550000000008 257.61064000000005,144.82535000000007 C 258.14180000000005,143.85210000000006 258.60487000000006,143.28752000000006 259.02531000000005,142.40001000000007 C 259.4123900000001,141.58290000000005 260.16252000000003,140.99315000000007 260.82533000000006,140.60002000000006 C 261.5117900000001,140.19285000000005 262.3814500000001,139.59656000000007 262.88398000000007,139.11468000000005 C 263.6679500000001,138.36294000000004 264.1501200000001,137.75709000000006 264.99998000000005,137.33334000000005 C 265.7683200000001,136.95025000000004 266.70515000000006,136.87843000000004 267.6853100000001,136.43202000000005 C 268.24860000000007,136.17546000000004 269.07923000000005,135.63760000000005 269.99998000000005,135.33334000000005 C 270.87635000000006,135.04374000000004 271.48371000000003,135.05270000000004 272.31465000000003,134.91734000000005 C 273.32301,134.75309000000004 274.21806000000004,134.37132000000005 275.16664000000003,134.00001000000006 C 275.96037,133.68931000000006 276.55293,133.47521000000006 277.57197,133.28535000000005 C 278.73377000000005,133.06889000000004 279.16508000000005,133.08050000000006 280.02931,133.02534000000006 C 280.87709,132.97123000000005 281.68675,133.03285000000005 282.86131,132.71601000000007 C 283.65413,132.50214000000005 284.53965,132.08326000000008 285.52083,132.02083000000007 C 286.31593,131.97025000000008 287.31465,132.00000000000009 288.18932,132.00000000000009 C 288.99999,132.00000000000009 289.79998,132.00000000000009 290.6,132.00000000000009 C 291.60449,132.00000000000009 292.45715,132.00000000000009 293.42117,132.00000000000009 C 294.21466000000004,132.00000000000009 295.23065,132.00000000000009 296.19915000000003,132.00000000000009 C 296.86248,132.00000000000009 298.05199000000005,132.00000000000009 298.67599,132.00000000000009 C 299.64199,132.00000000000009 300.73583,132.00000000000009 301.47915,132.00000000000009 C 302.33334,132.00000000000009 303.26132,132.00000000000009 304.05181,132.00000000000009 C 305.07867,132.00000000000009 305.77465,132.00000000000009 306.68397999999996,132.00000000000009 C 307.68267,132.00000000000009 308.47914999999995,131.9964400000001 309.23063999999994,132.00000000000009 C 310.35999999999996,132.00534000000007 311.0558699999999,132.0729800000001 312.0586399999999,132.28534000000008 C 312.7311299999999,132.4277500000001 313.5025799999999,132.6171300000001 314.3746499999999,132.80133000000006 C 315.8400699999999,133.11087000000006 316.3653999999999,133.19945000000007 317.42930999999993,133.39999000000006 C 317.95838999999995,133.49972000000005 318.9818899999999,133.69278000000006 319.46131999999994,133.80000000000007 C 320.71833999999996,134.08114000000006 321.66614999999996,134.37648000000007 322.38196999999997,134.69999000000007 C 323.41713,135.16782000000006 324.02802999999994,135.50797000000006 324.68530999999996,135.88532000000006 C 325.69409999999993,136.46448000000007 326.22436999999996,136.81113000000008 326.99014999999997,137.34733000000006 C 327.86863,137.96243000000007 328.44117,138.53431000000006 329.32162999999997,139.10000000000005 C 330.01459,139.54522000000006 330.6839,139.80691000000004 331.68131,140.19999000000004 C 332.45621,140.50538000000003 333.22916,140.70605000000003 333.92399,141.41065000000003 C 334.59132,142.08739000000003 335.05879,142.65761000000003 335.75999,143.17466000000005 C 336.66194,143.83973000000003 337.31819,144.39088000000004 337.88264000000004,144.79865000000004 C 338.62745,145.33674000000005 339.41685,145.60798000000003 340.24281,146.30449000000004 C 340.85740000000004,146.82275000000004 341.27742,147.66612000000003 341.69999,148.34732000000005 C 342.27018000000004,149.26648000000006 342.83231,149.86401000000006 343.29997000000003,150.65715000000006 C 343.73051000000004,151.38733000000005 344.07856000000004,152.21120000000005 344.49998000000005,152.97916000000006 C 344.97612000000004,153.84684000000007 345.55458000000004,154.48966000000007 345.99998000000005,155.33332000000007 C 346.34358000000003,155.98412000000008 346.53987000000006,156.77795000000006 346.99998000000005,157.66666000000006 C 347.42543000000006,158.48842000000008 347.9451700000001,159.19912000000005 347.99998000000005,160.16666000000006 C 348.04713000000004,160.99892000000006 348.12696000000005,161.85691000000006 348.61064000000005,162.62532000000007 C 349.06380000000007,163.34528000000006 349.60017000000005,163.95892000000006 349.87849000000006,164.97848000000008 C 350.0967800000001,165.7781300000001 349.81156000000004,166.72767000000007 350.0359900000001,167.59999000000008 C 350.2588600000001,168.46620000000007 351.20832000000007,169.0172900000001 351.6428000000001,169.69998000000007 C 352.10874000000007,170.43211000000008 351.8672600000001,171.41049000000007 352.00446000000005,172.29999000000007 C 352.14814000000007,173.23137000000006 352.83323000000007,173.77165000000008 352.9954900000001,174.69998000000007 C 353.1506100000001,175.58745000000008 353.40983000000006,176.42575000000008 354.0999800000001,177.09982000000008 C 354.67890000000006,177.66525000000007 355.70475000000005,177.86754000000008 355.9892900000001,178.61065000000008 C 356.3075300000001,179.44169000000008 356.5431800000001,180.2032700000001 356.8784800000001,181.09998000000007 C 357.1965600000001,181.95061000000007 356.9812300000001,182.80018000000007 356.9999700000001,183.69997000000006 C 357.0179800000001,184.56453000000008 357.6955300000001,185.09484000000006 358.08398000000005,185.80130000000005 C 358.5504700000001,186.64972000000006 358.8770400000001,187.49126000000007 359.02529000000004,188.17464000000007 C 359.23177000000004,189.12651000000008 360.14342000000005,189.58669000000006 360.71462,190.08397000000008 C 361.32317,190.61376000000007 361.60796000000005,191.6026200000001 362.19997,192.1999700000001 C 362.79726,192.80265000000009 363.52227,193.4431500000001 364.29546,193.9473000000001 C 364.99633,194.4043000000001 365.30861,195.1843300000001 365.80129,195.8853000000001 C 366.32534,196.6309200000001 366.66912,197.3245100000001 367.39995,197.94931000000008 C 368.16927,198.6070100000001 368.55199,199.21767000000008 369.09996,199.97847000000007 C 369.56132,200.61900000000009 370.44121,201.21185000000008 370.87862,202.09998000000007 C 371.20092,202.75441000000006 371.48153,203.65453000000008 371.97463,204.38930000000008 C 372.43987,205.08258000000006 373.25792,205.53781000000006 373.56395,206.18531000000007 C 374.0446,207.20226000000008 374.19304,208.12402000000006 374.70444999999995,208.69997000000006 C 375.35468999999995,209.43224000000006 375.84497999999996,210.10973000000007 376.08396999999997,210.88530000000006 C 376.32381,211.66370000000006 376.74998999999997,212.55397000000005 377.29994,213.24280000000005 C 377.94331,214.04865000000004 378.6121,214.47095000000004 378.91594,215.48397000000006 C 379.11683999999997,216.15377000000007 379.37181,217.06649000000004 379.71596,217.79864000000006 C 380.09069,218.59577000000007 379.94664,219.66348000000005 380.05712,220.40447000000006 C 380.20751,221.41334000000006 380.58776,222.17814000000007 381.09978,222.97881000000007 C 381.54445,223.67417000000006 381.89101,224.54126000000008 381.97463,225.26131000000007 C 382.06624,226.05034000000006 382.19619,227.08666000000005 382.49996,227.95830000000007 C 382.80809999999997,228.84249000000005 383.03069,229.70752000000007 383.42528,230.39997000000005 C 383.89052,231.21635000000006 384.14574,232.17544000000007 384.43595999999997,232.83597000000006 C 384.77709,233.61240000000006 385.24877,234.37892000000005 385.56395,235.19997000000006 C 385.93965,236.17862000000005 385.97636,237.00003000000007 385.99994999999996,237.99997000000008 C 386.01904999999994,238.81070000000008 386.04938999999996,239.48172000000008 386.44260999999995,240.42146000000008 C 386.79422999999997,241.2618400000001 387.2351499999999,241.77685000000008 387.66660999999993,242.99997000000008 C 387.87265999999994,243.58414000000008 387.8495899999999,244.48564000000007 388.16660999999993,245.6666400000001 C 388.3594499999999,246.38502000000008 388.8482199999999,247.0359500000001 389.19861999999995,248.0559700000001 C 389.41931999999997,248.6984300000001 389.58576999999997,249.4280400000001 389.71460999999994,250.20396000000008 C 389.9122699999999,251.3943700000001 389.94229999999993,252.18682000000007 389.99994999999996,252.93747000000008 C 390.07728,253.94450000000006 390.32224999999994,254.93579000000008 390.57462999999996,255.71198000000007 C 390.88048,256.6525900000001 390.92756999999995,257.3379300000001 390.96394,258.12266000000005 C 391.00325,258.97013000000004 390.99571,259.83464000000004 391.0001,261.05680000000007 C 391.00271999999995,261.7811300000001 390.96317,262.75385000000006 391.16659999999996,263.83332000000007 C 391.30404999999996,264.56263000000007 391.63967999999994,265.24766000000005 391.83329,266.33332000000007 C 392.0059,267.30118000000004 391.98785999999996,268.0218000000001 392.05262,268.7518100000001 C 392.14871999999997,269.8350600000001 392.34821,270.83940000000007 392.49995,271.45832000000007 C 392.70991000000004,272.31480000000005 392.91844000000003,273.3169900000001 392.99995,274.02082000000007 C 393.08662000000004,274.76902000000007 393.28328,275.9694600000001 393.42527,276.66132000000005 C 393.57392,277.38547000000005 393.76176000000004,278.11158000000006 393.91462,279.5146500000001 C 393.98515000000003,280.1620200000001 393.99769000000003,281.09546000000006 393.99995,282.30014000000006 C 394.00108,282.90448000000004 393.99995,283.83597000000003 393.99995,284.4852900000001 C 393.99995,285.52130000000005 393.99995,286.6253000000001 393.99995,287.3746300000001 C 393.99995,288.1159600000001 393.99995,289.17831000000007 393.99995,290.1532900000001 C 393.99995,290.7533000000001 394.0251,291.8339200000001 393.98927000000003,292.7853100000001 C 393.96196000000003,293.5107700000001 393.78468000000004,294.6444100000001 393.64277000000004,295.3188200000001 C 393.48597000000007,296.06394000000006 393.28922000000006,296.8647500000001 392.99995000000007,298.16663000000005 C 392.79692000000006,299.08036000000004 392.6984100000001,299.54245000000003 392.5207900000001,300.45832000000007 C 392.3513600000001,301.33189000000004 392.1648300000001,302.4997600000001 392.0826200000001,303.14664000000005 C 391.97685000000007,303.97885 391.8773000000001,304.7831800000001 391.43061000000006,305.96930000000003 C 391.1659000000001,306.67221 390.80881000000005,307.38272 390.4826100000001,308.11731000000003 C 390.01310000000007,309.17465000000004 389.7551600000001,309.83759000000003 389.41062000000005,310.7533 C 389.20008000000007,311.31284000000005 388.81028000000003,312.32276 388.3639600000001,313.2613 C 388.12092000000007,313.77238 387.5100500000001,314.96781 387.17460000000005,315.67198 C 386.81904000000003,316.41835000000003 386.62342000000007,316.79747000000003 386.1666000000001,317.99998 C 385.86588000000006,318.79154 385.63166000000007,319.58808 385.41062000000005,320.36399 C 385.19712000000004,321.11347 384.91971000000007,322.18497 384.58927000000006,323.16398 C 384.3766800000001,323.79377 383.84247000000005,325.00491999999997 383.51594000000006,325.59997999999996 C 383.18385000000006,326.20514 382.62818000000004,327.08718999999996 382.16661000000005,327.99996999999996 C 381.86650000000003,328.59340999999995 381.49559000000005,329.52855999999997 381.19011000000006,330.15713999999997 C 380.69307000000003,331.17990999999995 380.23891000000003,331.88505 379.75996000000004,332.60398 C 379.29206000000005,333.30631 378.77320000000003,333.90155999999996 378.25328,334.94797 C 377.90404,335.65085 377.6732,336.50284 377.29011,337.37146 C 376.98432,338.06479 376.62080000000003,338.80276000000003 376.16661000000005,339.99997 C 375.86714000000006,340.78931 375.63917000000004,341.56897000000004 375.41063,342.29196 C 375.20421000000005,342.94491 374.79387,343.94317 374.39995000000005,344.63998000000004 C 373.89177000000007,345.53891000000004 373.58406,346.29559000000006 373.32796,346.89331000000004 C 373.03545,347.57599000000005 372.46645,348.74759000000006 371.99013,349.60080000000005 C 371.74343000000005,350.04269000000005 371.22115,350.91748000000007 370.94814,351.33746 C 370.18468,352.51193 369.69494000000003,353.15329 369.0208,353.95831000000004 C 368.61028,354.44857 367.79174,355.41592 367.39546,355.96612000000005 C 366.97038000000003,356.55627000000004 366.53648000000004,357.21481000000006 365.8333,358.33331000000004 C 365.31127000000004,359.16369000000003 365.05025,359.60266 364.49996,360.47912 C 364.22677,360.91421 363.71276,361.76739000000003 362.92147,362.83547000000004 C 362.47311,363.44066000000004 362.02996,363.94622000000004 361.4013,364.59597 C 360.61132,365.41244 359.98904,366.01104000000004 359.59997,366.45712000000003 C 358.77651,367.40121000000005 358.39196,367.94412000000005 357.83596,368.77462 C 357.47713,369.3106 356.88662,370.31329000000005 356.44662,371.15328000000005 L 356.1213,371.9782900000001 L 355.83331000000004,372.83330000000007 L 355.08398000000005,373.28530000000006" fill="none" id="svg_1" stroke="#000" stroke-width="2"/>
	<path d="M 279.0,210.0 C 279.0,211.75717 279.0,212.65266 279.0,213.51601 C 279.0,214.47917999999999 279.0,215.30451 279.0,216.32134 C 279.0,217.00001 279.0,217.97851 279.0,219.00001 C 279.0,219.80001000000001 279.00195,220.61962 278.57468,221.4 C 278.1243,222.22257000000002 278.18329,223.15429 277.83335,224.00001 C 277.50867,224.78463 277.04870999999997,225.53593 276.77866,226.32134 C 276.47837,227.19475 276.08673,227.97415999999998 276.00135,228.79867 C 275.90241,229.75385 275.61793,230.64092 275.35267,231.34734999999998 C 275.01966,232.23414999999997 275.13065,233.18066 274.97917,233.97919 C 274.79848,234.93175 274.0926,235.46678 273.71602,236.20136 C 273.34697,236.92127 273.27614,237.91951 272.77867000000003,238.75736 C 272.34959000000003,239.48000000000002 272.01045000000005,240.04152 272.00001000000003,241.00002 C 271.98936000000003,241.97913 272.09287,242.84308000000001 271.96400000000006,243.62536 C 271.81871000000007,244.50723 271.23576,245.31707 271.05717000000004,246.24735 C 270.88349000000005,247.15195 271.12223000000006,248.04062000000002 270.77867000000003,248.97869 C 270.52525,249.67065 270.04713000000004,250.48128 270.0045,251.34736 C 269.96025000000003,252.24627 270.00001000000003,253.16670000000002 270.00001000000003,254.02085 C 270.00001000000003,255.00002 270.00001000000003,255.80002 270.00001000000003,256.60003 C 270.00001000000003,257.59551 270.00001000000003,258.34286000000003 270.00001000000003,259.38537 C 270.00001000000003,260.33337 270.00001000000003,261.00537 270.00001000000003,261.99468 C 270.00001000000003,262.85720000000003 270.00001000000003,263.74819 270.00001000000003,264.66167 C 270.00001000000003,265.46169000000003 270.00001000000003,266.42134000000004 270.00001000000003,267.22536 C 270.00001000000003,268.04735000000005 269.88783,269.08828 270.02085000000005,269.93752 C 270.16559000000007,270.86159 270.85892000000007,271.31249 271.20002000000005,272.13869 C 271.56312,273.01821 271.66575000000006,273.71514 272.09983000000005,274.95687 C 272.3683500000001,275.72503 272.62345000000005,276.34035 272.98533000000003,277.38536999999997 C 273.31577000000004,278.33961999999997 273.70713,279.01153 274.02085000000005,279.52086999999995 C 274.51307,280.31999999999994 275.15616000000006,281.29414999999995 275.45835000000005,281.97917999999993 C 275.8972800000001,282.9742099999999 275.88874000000004,283.6186799999999 276.1098400000001,284.45717999999994 C 276.3698800000001,285.44332999999995 276.8559900000001,286.21169999999995 277.1493300000001,286.73869999999994 C 277.76844000000006,287.85099999999994 277.9699500000001,288.62983999999994 278.28535000000005,289.48668999999995 C 278.57093000000003,290.26250999999996 278.99733000000003,291.16772 279.30452,291.95268999999996 C 279.519,292.50075999999996 279.82838000000004,293.35247 280.48268,294.31334999999996 C 280.94081,294.98614 281.49473,295.47975999999994 282.00001000000003,296.52086999999995 C 282.38346,297.31096999999994 282.69273000000004,298.01656999999994 283.18534000000005,298.74935999999997 C 283.8119300000001,299.68145999999996 284.27714000000003,300.17751999999996 284.75266000000005,300.86251999999996 C 285.36078000000003,301.73852999999997 285.66138000000007,302.36932999999993 286.02085000000005,303.06253 C 286.40906000000007,303.81118999999995 287.00004000000007,305.0 287.39869000000004,305.79735999999997 C 287.5955000000001,306.19104 287.97913000000005,306.95836999999995 288.34284,307.6857 C 288.97877,308.9574 289.22968000000003,309.50711 289.66135,310.2507 C 290.30109000000004,311.35275 290.76731,311.97311 291.27201,312.67203 C 291.53989,313.04297 292.10844000000003,313.80945 293.00001000000003,315.00003 C 293.29966,315.40018 293.89765000000006,316.19849 294.18934,316.60004 C 294.76826,317.39698 295.32777000000004,318.19167999999996 295.83335,319.00003 C 296.32624,319.78808999999995 296.75342,320.56795999999997 297.15333,321.29202 C 297.51344,321.94399999999996 298.14475,322.92703 298.58932999999996,323.64004 C 299.13815999999997,324.5202 299.39658,325.26266 299.70001999999994,326.05184 C 300.0953799999999,327.08007000000003 300.44217999999995,327.73284 300.71466999999996,328.51336000000003 C 301.04472,329.45879 300.94690999999995,330.31982000000005 301.16666999999995,331.33337000000006 C 301.31443999999993,332.01480000000004 301.60927,332.74044000000004 301.87868,333.85702000000003 C 302.07851,334.68524 302.43602,335.40002000000004 303.09984,336.10003000000006 L 303.64284,336.70004000000006 L 304.00002,337.50003000000004 L 304.42534,338.40002000000004" fill="none" id="svg_2" stroke="#000" stroke-width="2"/>
	<path d="M 310.0,339.0 C 310.0,340.82535 310.0,341.83334 310.0,342.62534 C 310.0,343.66166 310.0,344.46166999999997 310.0,345.42151 C 310.0,346.23599 310.0,347.10449 310.0,348.0 C 310.0,348.89551 310.0,349.76401 310.0,350.83334 C 310.0,351.55182 310.0,352.26132 310.0,353.33334 C 310.0,354.30984 310.0,355.02084 310.0,355.75183000000004 C 310.0,356.83334 310.0,357.83383000000003 310.0,358.43750000000006 C 310.0,359.66666000000004 310.0,360.3706700000001 310.0,361.13867000000005 C 310.0,362.33734000000004 310.0,363.112 310.0,363.93466000000006 C 310.0,364.74933000000004 310.0,365.8356600000001 310.0,366.70267000000007 C 310.0,367.44367000000005 310.0,368.42133000000007 310.0,369.2253400000001 C 310.0,370.0473300000001 310.0,371.0788300000001 310.0,372.0208400000001 C 310.0,372.76934000000006 310.0,373.6424800000001 310.0,374.6400100000001 C 310.0,375.3133200000001 310.07632,376.50466000000006 309.98932,377.3026700000001 C 309.87656000000004,378.33706000000006 309.4588,379.0292900000001 309.28400000000005,379.6866700000001 C 309.02268000000004,380.6694300000001 309.01154,381.4998100000001 309.00135000000006,382.3160000000001 C 308.98609000000005,383.5382300000001 309.04407000000003,384.3396200000001 308.99552000000006,385.2563400000001 C 308.95310000000006,386.05761000000007 308.72108000000003,387.05489000000006 308.5640000000001,387.6866700000001 C 308.3961800000001,388.3617200000001 308.00473000000005,389.6683300000001 307.8013400000001,390.2306500000001 C 307.4442800000001,391.2176800000001 307.1460400000001,392.16397000000006 307.0526800000001,392.95715000000007 C 306.9524900000001,393.8083500000001 306.96372000000014,394.4103100000001 306.7160100000001,395.5973200000001 C 306.5346700000001,396.4663100000001 306.2548300000001,397.2228100000001 306.0526800000001,398.1946700000001 C 305.8927700000001,398.9635300000001 305.72178000000014,399.7728600000001 305.47916000000015,400.54165000000006 C 305.20664000000016,401.40524000000005 304.88361000000015,402.2948200000001 304.61066000000017,403.2000100000001 C 304.34070000000014,404.09521000000007 304.1493600000002,404.9979800000001 304.0526800000002,405.89999000000006 C 303.98850000000016,406.49887000000007 303.9696400000002,407.4102700000001 303.7133600000002,408.60131000000007 C 303.5808200000002,409.21722000000005 303.2558400000002,410.16436000000004 302.8333600000002,411.16665000000006 C 302.5298300000002,411.8867400000001 302.1826300000002,412.60275000000007 301.8613400000002,413.30267000000003 C 301.5668500000002,413.94421000000006 301.0997400000002,415.13983 300.95186000000024,415.85800000000006 C 300.7657600000002,416.7616300000001 300.57146000000023,417.6886600000001 300.38936000000024,418.35998000000006 C 300.20616000000024,419.03540000000004 299.7868800000002,420.22393000000005 299.52086000000025,420.9583400000001 C 299.14617000000027,421.99279000000007 299.0210100000003,422.7994700000001 299.00136000000026,423.6000000000001 C 298.9766100000003,424.6087300000001 299.00163000000026,425.27731000000006 298.83336000000025,426.3333400000001 C 298.67751000000027,427.3114900000001 298.49477000000024,428.00430000000006 298.29552000000024,428.6946700000001 C 297.9287000000002,429.96573000000006 297.57296000000025,430.7263200000001 297.35720000000026,431.4481800000001 C 297.0704300000003,432.4077400000001 297.04140000000024,433.2375800000001 296.94735000000026,434.1044900000001 C 296.84997000000027,435.00195000000014 296.6513900000003,435.89206000000013 296.42535000000026,436.7279900000001 C 296.1712000000003,437.6678700000001 296.01046000000025,438.4998100000001 296.00003000000027,439.3333400000001 C 295.98828000000026,440.2719400000001 296.00003000000027,441.10901000000007 296.00003000000027,442.00000000000006 C 296.00003000000027,442.89099000000004 296.01785000000024,443.72818000000007 296.00003000000027,444.66666000000004 C 295.98202000000026,445.61518 295.72790000000026,446.49140000000006 295.38937000000027,447.21067000000005 C 295.01455000000027,448.00700000000006 294.55191000000025,448.76575 294.2853700000003,449.51469000000003 C 293.9433000000003,450.47584 294.00003000000027,451.48533000000003 294.00003000000027,452.21067000000005 C 294.00003000000027,453.19984000000005 294.00003000000027,453.97916000000004 294.00003000000027,454.97849 C 294.00003000000027,455.79868000000005 294.1814900000003,456.72596000000004 293.9640200000003,457.60001 C 293.7468900000003,458.47272 293.0786100000003,459.31635 293.0208700000003,460.0 C 292.93850000000026,460.97522 292.9727400000003,461.7991 293.00003000000027,462.70001 C 293.0286200000003,463.64413 293.70456000000024,464.00812 294.60004000000026,464.0 C 295.5002500000003,463.99182 296.41776000000027,463.58228 297.00003000000027,463.0 C 297.5823100000003,462.41772 298.05670000000026,461.57486 298.57471000000027,460.97467 C 299.11734000000024,460.34595 299.43387000000024,459.32519 300.30002000000025,459.05716 C 301.16153000000025,458.79053 302.10132000000027,458.95221000000004 303.00003000000027,459.0 C 303.80341000000027,459.04272 304.3878800000003,459.97192 305.29553000000027,459.93832 C 306.13589000000024,459.90722 306.37976000000026,458.71205999999995 306.8013600000003,458.11465 C 307.32901000000027,457.36697 307.68375000000026,456.64166 308.30002000000025,455.74816 C 308.68985000000026,455.18297 309.20004000000023,454.23199 309.50003000000027,453.49998999999997 C 309.80002000000025,452.768 310.2749000000003,451.7929 310.80002000000025,451.20266 C 311.4691800000002,450.45052 312.07321000000024,449.66177 312.50003000000027,449.02083999999996 C 312.97122000000024,448.31328999999994 313.55441000000025,447.5823 314.22153000000026,447.12148999999994 C 314.95124000000027,446.61742999999996 316.00003000000027,446.99810999999994 316.75721000000027,446.99999999999994 C 317.6527200000003,447.0022599999999 318.5859100000003,446.95235999999994 319.3853800000003,447.45733999999993 C 320.0434900000003,447.87301999999994 320.7693800000003,448.7693499999999 321.2613600000003,449.26132999999993 C 321.7853800000003,449.78534999999994 322.3173600000003,450.3173299999999 323.31336000000033,451.31332999999995 C 323.7533600000003,451.75332999999995 324.3383800000003,452.33834999999993 325.11469000000034,453.11465999999996 C 325.69553000000036,453.6955 326.3407000000003,454.53943 327.16669000000036,454.83334999999994 C 327.9412000000004,455.10891999999996 328.71884000000034,454.6507899999999 329.22171000000037,453.8999999999999 C 329.67090000000036,453.2293199999999 330.45929000000035,452.7500999999999 331.17468000000036,452.4360099999999 C 332.2124300000004,451.9804099999999 333.10003000000034,452.0000099999999 334.0000300000004,452.0000099999999 C 334.80002000000036,452.0000099999999 335.7000400000004,451.99927999999994 336.63602000000037,452.0000099999999 C 337.4853500000004,452.00067999999993 338.22843000000034,451.9584499999999 339.1998600000004,452.2213499999999 C 339.9987800000004,452.43756999999994 341.0168200000004,452.7622999999999 341.7987100000004,453.0840199999999 C 342.55280000000045,453.3942899999999 343.37287000000043,453.7953799999999 344.20005000000043,454.2853399999999 C 344.88090000000045,454.68862999999993 345.39326000000045,455.7471599999999 346.20005000000043,455.9133299999999 C 347.09141000000045,456.0969199999999 347.73710000000045,455.2625699999999 348.20005000000043,454.51467999999994 C 348.6360200000004,453.81035999999995 349.0669300000004,452.78191999999996 349.4000300000004,452.2213499999999 C 349.94748000000044,451.3000199999999 350.45005000000043,450.6708699999999 351.1666900000004,450.1666599999999 C 351.8617600000004,449.6776499999999 352.8853800000004,449.99999999999994 353.8360300000004,449.99999999999994 C 354.60135000000037,449.99999999999994 355.5955200000004,449.99605999999994 356.3428700000004,449.99999999999994 C 357.3534000000004,450.00533999999993 357.8771100000004,450.7169799999999 358.6106900000004,450.98931999999996 C 359.44495000000035,451.29904 360.50110000000035,451.71892999999994 360.94287000000037,451.23299999999995 C 361.4498900000004,450.6752599999999 361.0000300000004,449.47914999999995 361.0000300000004,448.45685 C 361.0000300000004,447.71734999999995 361.0000300000004,446.83383 361.0000300000004,445.83335 C 361.0000300000004,445.11866 361.0000300000004,444.396 361.0000300000004,443.36701 C 361.0000300000004,442.26417 361.0000300000004,441.52085 361.0000300000004,440.45716 C 361.0000300000004,439.73868 361.0000300000004,438.94819 361.0000300000004,437.92152 C 361.0000300000004,437.02085 361.0000300000004,436.00001 361.0000300000004,435.17868999999996 C 361.0000300000004,434.48566999999997 361.0000300000004,433.35733999999997 361.0000300000004,432.69467999999995 C 361.0000300000004,432.00001 361.0000300000004,430.96799999999996 361.0000300000004,430.04285999999996 C 361.0000300000004,429.02085999999997 361.0000300000004,428.31733999999994 361.0000300000004,427.31602 C 361.0000300000004,426.50001 361.0000300000004,425.68399999999997 361.0000300000004,424.68399999999997 C 361.0000300000004,423.77466999999996 361.0000300000004,422.83335 361.0000300000004,422.05183 C 361.0000300000004,421.26133 361.0524600000004,420.13856 360.9640200000004,419.31334 C 360.8475000000004,418.22627 360.6413300000004,417.63883999999996 360.4253500000004,416.64002999999997 C 360.2799300000004,415.96754 360.0867000000004,414.76905999999997 360.0000300000004,414.02085999999997 C 359.9185200000004,413.31703 359.7160300000004,412.31602999999996 359.5000300000004,411.50001999999995 C 359.28403000000037,410.68400999999994 359.0587500000004,409.68461999999994 359.0208700000004,408.97917999999993 C 358.9505000000004,407.66838999999993 359.0092100000004,407.0318199999999 358.9893500000004,406.34935999999993 C 358.9589500000004,405.3047699999999 358.8691700000004,404.32436999999993 358.6428500000004,403.50084999999996 C 358.42364000000043,402.70314999999994 358.1756300000004,402.15322 357.9002000000004,401.13600999999994 C 357.6864900000004,400.34669999999994 357.5086900000004,399.50230999999997 357.3572000000004,398.65800999999993 C 357.14996000000036,397.5028899999999 357.0378300000004,396.57249999999993 357.0107000000004,395.83201999999994 C 356.9728900000004,394.80030999999997 357.0075600000004,393.95527999999996 356.9146900000004,393.22935999999993 C 356.7603000000004,392.02241999999995 356.5672500000004,391.32417999999996 356.35335000000043,390.57868999999994 C 356.1279200000004,389.7930099999999 355.68431000000044,388.59806999999995 355.3518500000004,387.80900999999994 C 355.1880300000004,387.42022 354.6584600000004,386.3325699999999 354.3333600000004,385.33335999999997 C 354.07237000000043,384.5313 354.01070000000044,383.85749999999996 354.0000200000004,382.75266999999997 C 353.9911400000004,381.83338999999995 354.0848900000004,381.14716999999996 353.8333600000004,380.00001 C 353.6978900000004,379.38221 353.2946600000004,378.55494 353.1213500000004,377.57835 C 352.9762400000004,376.76054 353.0114300000004,376.14888 352.8333600000004,374.83335 C 352.7360400000004,374.11436 352.57070000000044,373.38617999999997 352.4253400000004,372.66134999999997 C 352.1593200000004,371.33480999999995 352.0794800000004,370.51081 351.9746900000004,369.82131999999996 C 351.8184100000004,368.79314999999997 351.4201900000004,368.02315999999996 351.1666800000004,366.99999999999994 C 350.9742700000004,366.2234199999999 351.00069000000036,365.48531999999994 351.0000200000004,364.4791599999999 C 350.99947000000043,363.6666599999999 351.0000200000004,362.73867999999993 351.0000200000004,361.9481799999999 C 351.0000200000004,360.9215099999999 351.0000200000004,360.0208399999999 351.0000200000004,359.40133999999995 C 351.0000200000004,358.3999999999999 351.0000200000004,357.60000999999994 351.0000200000004,356.59866999999997 C 351.0000200000004,355.76401 351.0000200000004,354.57883 351.0000200000004,353.78535 C 351.0000200000004,353.00984 351.0000200000004,351.97068 351.0000200000004,351.20268 C 351.0000200000004,350.3 351.0000200000004,349.40001 351.0000200000004,348.50001 L 351.0000200000004,347.60002" fill="none" id="svg_3" stroke="#000" stroke-width="2"/>
	<path d="M 307.0,235.0 C 307.99866,235.88667 307.98843,236.82542 308.0,237.51601 C 308.01801,238.5898 308.55334,239.3545 308.83334,240.16667999999999 C 309.11575000000005,240.98587999999998 309.0,242.00000999999997 309.0,242.82134 C 309.0,243.51433 309.0,244.64318 309.0,245.31884 C 309.0,246.06251 309.0,246.86616999999998 309.0,248.16667999999999 C 309.0,249.08001 309.0,249.99334 309.0,250.43750999999997 C 309.0,251.27584 309.0,252.61433999999997 309.0,253.45833999999996 C 309.0,254.33333999999996 309.0,255.27200999999997 309.0,256.10902 C 309.0,257.00001 309.0,257.89099999999996 309.0,258.72801 C 309.0,259.66667 309.0,260.50001 309.0,261.54267999999996 C 309.0,262.25068999999996 309.0,262.99467999999996 309.0,264.18568999999997 C 309.0,265.10002999999995 309.0,266.00001999999995 309.0,266.80001 C 309.0,267.70002999999997 309.00272,268.62005 308.57468,269.40002 C 308.12372,270.22177 307.66892,270.8143 306.9,271.22137 C 306.14248999999995,271.62239999999997 305.40006,271.99469 304.50001,272.00003 C 303.60004999999995,272.00536999999997 302.58061,272.16141 301.9,271.55737 C 301.25253999999995,270.98275 300.55442,270.36208999999997 300.12149999999997,269.55719 C 299.76588,268.89603 300.17593999999997,267.83297999999996 299.83335,267.00003 C 299.508,266.20894999999996 298.82319,265.50570999999997 298.516,264.94403 C 298.16285,264.29834 297.80702,263.57587 297.48402000000004,262.79602 C 296.99354000000005,261.61179 296.74781,260.81747 296.54167000000007,260.06253 C 296.26817000000005,259.06088 296.08403000000004,258.05602999999996 295.91600000000005,257.20403999999996 L 295.50001000000003,256.50003" fill="none" id="svg_4" stroke="#000" stroke-width="2"/>
	<path d="M 319.0,249.0 C 319.0,251.8 319.0,252.60001 319.0,253.40134 C 319.0,254.23600000000002 319.0,255.42118 319.0,256.21466 C 319.0,256.99017 319.0,258.03200999999996 319.0,258.80532999999997 C 319.0,259.77065999999996 319.0,260.54166 319.0,261.40268 C 319.0,262.29983999999996 319.0,263.18933 319.0,264.04285 C 319.0,265.07867999999996 319.0,265.77466 319.0,266.68399 C 319.0,267.68533 319.0,268.52084 319.0,269.40134 C 319.0,270.29984 319.00006,271.18933 319.0,272.04285 C 318.99991,273.07867999999996 319.04086,273.78037 318.91467,274.68399 C 318.77328,275.69635 318.48434,276.53815 318.35266,277.16165 C 318.14145,278.16165 318.05423,279.24377 318.0,279.95834 C 317.94879,280.63311000000004 317.72235,281.95147000000003 317.38934,282.67599 C 317.00872,283.50405 316.69284,284.35934000000003 316.52084,285.02084 C 316.34524000000005,285.69616 316.12558,286.95739000000003 316.02533,287.71734000000004 C 315.92041,288.5126 315.33774,289.40762 315.08533,290.20001 C 314.81101,291.06125000000003 314.62311,291.78970000000004 314.0,292.33334 C 313.36252,292.88949 312.8671,293.79193000000004 312.0,293.95834 C 311.03818,294.14294 310.20132,294.0 309.29999,294.0 C 308.4,294.0 307.44491999999997,294.29764 306.61066,293.98932 C 305.86429,293.7135 305.51986999999997,292.7551 305.16666,291.83334 C 304.92105,291.19241 304.83065999999997,290.39868 304.29467999999997,289.40451 L 303.85067999999995,288.836" fill="none" id="svg_5" stroke="#000" stroke-width="2"/>
	<path d="M 329.0,273.0 C 329.0,275.60449 329.0,276.45715 329.0,277.42151 C 329.0,278.23599 329.0,279.10449 329.0,280.29984 C 329.0,280.89551 329.0,281.76401000000004 329.0,282.83335 C 329.0,283.78535 329.0,284.50983 329.0,285.64268 C 329.0,286.30534 329.0,287.00001 329.0,288.03202 C 329.0,288.95716 329.0,289.97916 329.0,290.68269 C 329.0,291.68534999999997 329.0,292.52085999999997 329.0,293.40135 C 329.0,294.29967 329.0,295.17868999999996 329.0,295.98566999999997 C 329.0,297.03202999999996 329.01184,297.80542999999994 328.99866,298.76935999999995 C 328.98837999999995,299.52103999999997 329.01847,300.34516999999994 328.64282999999995,301.53833999999995 C 328.44305999999995,302.17283 327.70559999999995,303.05896999999993 327.35718999999995,303.75265999999993 C 326.93137999999993,304.60043999999994 327.15729999999996,305.36117999999993 326.98932999999994,306.3640199999999 C 326.8437599999999,307.2331299999999 326.1778699999999,307.87222999999994 325.70001999999994,308.65268999999995 C 325.28146999999996,309.33630999999997 324.7166199999999,310.25821999999994 324.20001999999994,310.79868999999997 C 323.6078299999999,311.41822999999994 322.85531999999995,312.03983999999997 322.17465999999996,312.38935999999995 C 321.19482999999997,312.89246999999995 320.41074,312.99467999999996 319.50001,313.00001999999995 C 318.60004999999995,313.0053 317.69550999999996,313.00001999999995 316.83335,313.00001999999995 C 315.97916,313.00001999999995 315.00001,313.00001999999995 314.20002,313.00001999999995 C 313.4,313.00001999999995 312.33662,313.14787999999993 311.60001,312.7713499999999 C 310.67823,312.30018999999993 310.39124,311.58588999999995 310.0,310.9583599999999 C 309.59079,310.3020199999999 308.80106,309.0418899999999 308.40451,308.5008399999999 C 308.0217,307.9785299999999 307.42801000000003,307.17106999999993 307.02151000000003,306.13569999999993 C 306.71267000000006,305.3490799999999 306.52084,304.4583599999999 306.41067000000004,304.0040199999999 L 306.20132000000007,303.08134999999993" fill="none" id="svg_6" stroke="#000" stroke-width="2"/>
	<path d="M 331.0,290.0 C 331.0,292.95715 330.99951,293.52084 331.0,294.40134 C 331.00067,295.60001 330.97266,296.20279 331.05716,297.10001 C 331.17075,298.30606 331.33518000000004,298.91303 331.64667000000003,299.836 C 331.86801,300.49191 332.31781,301.52292 332.65268000000003,302.25266 C 332.99640000000005,303.00165 333.36362,303.74021 333.83334,304.83335 C 334.12484,305.51173 334.38119,306.16901 334.69549,307.15269 C 335.01773000000003,308.16117 335.20291000000003,308.88459 335.39999,309.636 C 335.60299,310.40993000000003 335.79867,311.20167000000004 336.1,312.39967 C 336.2991,313.19123 336.48681000000005,313.96211 336.70001,314.68568 C 337.07666,315.96391 337.41275,316.70823 337.64282000000003,317.33384 C 338.01288000000005,318.3401 338.57736000000006,318.9412 339.02533000000005,319.61066 C 339.51746,320.3461 339.79999000000004,321.2461 340.16666000000004,322.0 C 340.53806000000003,322.76364 340.94745000000006,324.1311 341.64734000000004,323.93832 C 342.47534,323.71025999999995 342.26544000000007,322.22528 342.52084,321.5 C 342.78122,320.76062 343.34231,319.82458 343.70001,319.13751 C 344.15555,318.26248000000004 344.32113000000004,317.63934 344.56399000000005,316.60400000000004 C 344.73257000000007,315.88531000000006 344.89471000000003,314.82269 344.94284000000005,314.15268000000003 C 345.01300000000003,313.17606 344.99933000000004,312.51599000000004 345.00000000000006,311.11865000000006 C 345.00034000000005,310.39599000000004 345.00000000000006,309.69732000000005 345.00000000000006,308.50000000000006 C 345.00000000000006,307.6973300000001 345.00000000000006,306.8333400000001 345.00000000000006,306.00000000000006 C 345.00000000000006,305.02151000000003 344.65536000000003,304.09863000000007 345.08533000000006,303.2853400000001 C 345.53900000000004,302.4271600000001 345.97916000000004,301.9791600000001 346.00000000000006,301.0213300000001 L 346.00000000000006,300.1160000000001 L 346.00000000000006,299.1640000000001 L 346.00000000000006,298.3986800000001" fill="none" id="svg_7" stroke="#000" stroke-width="2"/>
	<path d="M 350.0,276.0 C 351.02084,277.0625 351.10864,277.71457 351.56934,278.68399 C 351.96964,279.52630999999997 352.3765,280.03274 352.97867,281.07916 C 353.39182,281.79709 353.64661,282.32489 354.16666000000004,283.66665 C 354.32816,284.08334 354.65766,285.02398 354.836,285.53332 C 355.2117,286.60629 355.40228,287.16162 355.60132,287.72 C 356.19320999999997,289.38055 356.39664,289.91278000000005 356.78934,290.94266000000005 C 356.97818,291.43787000000003 357.34976,292.37854000000004 357.83335,293.66666000000004 C 358.12012,294.43048000000005 358.37366,295.14969 358.62534,295.85068 C 358.883,296.56836 359.32053,297.74298 359.48401,298.168 C 359.82373,299.05127 360.17716,299.94836 360.51599,300.832 C 360.83569,301.66573999999997 361.09259,302.4339 361.47916,303.39584 C 361.78159,304.14843 362.49665,304.80539000000005 363.10001,305.44284000000005 C 363.71533999999997,306.09296000000006 364.07157,307.00293000000005 364.60001,307.58932000000004 C 365.26566,308.32794000000007 365.98713,308.91397000000006 366.75718,308.99551 C 367.64323,309.08932000000004 368.82105,308.88943 368.99101,308.18115 C 369.21248,307.25815 368.98506000000003,306.49991 369.00001000000003,305.33334 C 369.01045000000005,304.52063000000004 369.2393,303.68539000000004 369.50001000000003,302.97915 C 369.85823000000005,302.00881 369.98075000000006,301.18981 369.99867,300.31466 C 370.01915,299.31487 370.00001000000003,298.47915 370.00001000000003,297.8955 C 370.00001000000003,296.70016000000004 370.00001000000003,295.81066000000004 370.00001000000003,295.23598000000004 C 370.00001000000003,293.92131000000006 370.00001000000003,293.22533000000004 370.00001000000003,292.31600000000003 C 370.00001000000003,291.31600000000003 370.00056,290.49999 370.00001000000003,289.68398 C 369.99934,288.68667 369.96400000000006,287.84667 369.71336,286.88533 L 369.23835,286.30449" fill="none" id="svg_8" stroke="#000" stroke-width="2"/>
	<path d="M 343.0,251.0 C 345.24734,255.133 345.76331,255.73332 346.48401,256.48666 C 347.00784,257.03423999999995 347.55695000000003,257.66243999999995 347.97849,258.42116999999996 C 348.40693000000005,259.19231999999994 348.62858,260.02468999999996 349.10016,260.85732999999993 C 349.57196,261.69033999999994 350.16568,262.33404999999993 350.65268000000003,263.0008199999999 C 351.17362,263.7141099999999 351.91641000000004,264.3983999999999 352.55335,265.00398999999993 C 353.11039,265.5336199999999 353.40986000000004,266.4257399999999 354.10001,267.0998199999999 C 354.67893,267.6652499999999 355.51453,268.1506899999999 356.4,267.9893199999999 C 357.35035,267.8160999999999 357.84305,267.1395299999999 358.29551,266.3473199999999 C 358.68066999999996,265.6729099999999 358.98078,264.5832199999999 358.99867,263.7746599999999 C 359.0204,262.79324999999994 359.00001000000003,261.92767999999995 359.00001000000003,261.45199999999994 C 359.00001000000003,260.4546899999999 359.00001000000003,259.44933999999995 359.00001000000003,258.49999999999994 C 359.00001000000003,257.65331999999995 359.00001000000003,256.88665999999995 359.00001000000003,255.79915999999994 C 359.00001000000003,254.66666999999995 359.00001000000003,253.82932999999994 359.00001000000003,253.38565999999994 C 359.00001000000003,252.45831999999996 359.00001000000003,251.49098999999995 359.00001000000003,250.99731999999995 C 359.00001000000003,249.50048999999996 359.00001000000003,248.51348999999993 359.00001000000003,248.03198999999995 C 359.00001000000003,247.10798999999994 359.00657,246.25596999999996 358.99986,245.16432999999995 C 358.99455,244.29727999999994 358.99452,243.54574999999994 358.71602,242.31732999999994 C 358.53356,241.51246999999995 358.28401,240.76932999999994 358.05718,239.81431999999995 L 357.99987000000004,238.90014999999994" fill="none" id="svg_9" stroke="#000" stroke-width="2"/>
	<path d="M 326.0,232.0 C 327.41068,233.836 327.72125,234.43123 328.3215,235.2 C 328.80792,235.82298999999998 329.40338,236.40113 330.20016000000004,237.20016999999999 C 330.80981,237.81153999999998 331.23538,238.23660999999998 332.16665000000006,239.16667999999999 C 332.68234000000007,239.68167999999997 333.2021700000001,240.21748 333.73867000000007,240.70268 C 334.6461100000001,241.52333 335.4933700000001,241.89091 336.29998000000006,242.35267 C 337.03692000000007,242.77454999999998 337.80068000000006,243.03526 338.70000000000005,243.00001 C 339.60219000000006,242.96464 340.3575000000001,242.32003 340.64281000000005,241.64817 C 341.05788000000007,240.67075 340.9999900000001,239.79734 340.9999900000001,239.02933 C 340.9999900000001,237.99017999999998 340.9999900000001,237.21465999999998 340.9999900000001,236.16666999999998 C 340.9999900000001,235.44815999999997 341.0024000000001,234.73865999999998 340.9999900000001,233.66666999999998 C 340.9977300000001,232.67216 340.98678000000007,231.89548 340.9428300000001,231.0195 C 340.91884000000005,230.54111 340.7817300000001,228.93613 340.71465000000006,228.352 C 340.6461100000001,227.75511 340.4830800000001,226.56187 340.3893300000001,225.98399 C 340.2992700000001,225.42888 339.9999900000001,224.0 339.7000000000001,223.03399000000002 L 339.3999800000001,222.39199000000002" fill="none" id="svg_10" stroke="#000" stroke-width="2"/>
	<path d="M 372.0,256.0 C 372.00449,258.60449 372.01883,259.46448 372.22134,260.42133 C 372.39309,261.23285 372.6853,262.03956 372.87884,263.07901000000004 C 373.01153000000005,263.7916 373.07025000000004,264.57779000000005 373.44284000000005,265.8645 C 373.55728000000005,266.2597 373.86331000000007,267.1073 374.18533,268.03201 C 374.35287,268.51312 374.83844000000005,269.99853 374.97866000000005,270.5 C 375.25750000000005,271.49722 375.49813000000006,272.50049 375.62533,273.0 C 375.88024,274.00098 376.15685,275.00317 376.48266,275.99466 C 376.64334,276.48361 376.98269,277.41538 377.29016,278.27133000000003 C 377.67105000000004,279.33175000000006 377.89322000000004,280.07043000000004 378.0,281.00000000000006 C 378.09183,281.79926000000006 378.52145,282.9005700000001 379.39999,282.9533400000001 C 380.34759,283.0102600000001 380.81628,282.1343700000001 380.96399,281.1640000000001 C 381.07929,280.4066100000001 381.0,279.3865000000001 381.0,278.6919800000001 C 381.0,277.49999000000014 381.0,276.7466700000001 381.0,275.9133200000001 C 381.0,275.04000000000013 381.0,274.1666500000001 381.0,272.94231000000013 C 381.0,272.19631000000015 381.0,271.45833000000016 381.0,270.6803200000001 C 381.0,269.33334000000013 381.0,268.81481000000014 381.0,267.69384000000014 C 381.0,267.10934000000015 381.0,266.52084000000013 381.0,265.3678200000001 C 381.0,264.8213100000001 381.0,263.4074900000001 381.0,262.3800000000001 L 381.0,261.6224900000001" fill="none" id="svg_11" stroke="#000" stroke-width="2"/>
	<path d="M 258.0,162.0 C 256.18533,161.04666 255.42499,161.41002 254.71066,161.91733 C 254.05166,162.38535 252.94699,162.56873 252.31333999999998,162.85066 C 251.64033999999998,163.15011 250.98450999999997,163.49 249.77066,163.832 C 249.0506,164.03488 247.98466,164.30965999999998 247.39999,164.70534 C 246.5771,165.26224000000002 245.78842,165.7199 245.04167,165.97917 C 244.08777,166.31036 243.58983,167.15504 242.97917,167.47917 C 242.06248000000002,167.96573 241.22232000000002,167.98738 240.34283000000002,168.36166 C 239.76998000000003,168.60545 238.78770000000003,169.30711 238.21066000000002,169.82533 C 237.64460000000003,170.33368000000002 236.84083,171.07809 236.30450000000002,171.75267 C 235.75158000000002,172.44809999999998 235.45095,173.20871 234.89999000000003,173.9785 C 234.44056000000003,174.62041 233.68527000000003,175.28558 233.00000000000003,176.0 C 232.51009000000002,176.51074 232.19621000000004,177.51161 231.97467000000003,178.13867 C 231.65311000000003,179.04881 231.02518000000003,179.71818 231.76167000000004,180.05266999999998 C 232.62286000000003,180.44379999999998 233.40493000000004,180.70359 234.19999000000004,181.09999999999997 C 235.00044000000005,181.49908999999997 235.61417000000003,181.77284999999998 236.59100000000004,182.29999999999995 C 237.29643000000004,182.68067999999997 237.82092000000003,183.59856999999997 238.57066000000003,183.91466999999994 C 239.34672000000003,184.24187999999995 240.39866000000004,183.99840999999995 241.16400000000004,183.99999999999994 C 242.24733000000003,184.00225999999995 243.16984000000005,184.15873999999994 243.82533000000004,184.42533999999995 C 244.51947000000004,184.70763999999994 245.51835000000003,184.94277999999994 246.48399000000003,185.28399999999993 C 247.19052000000002,185.53365999999994 248.11259000000004,185.95606999999993 248.88400000000004,185.99867999999992 C 249.83455000000004,186.05116999999993 250.60133000000005,186.00000999999992 251.59550000000004,186.00000999999992 C 252.34283000000005,186.00000999999992 253.36399000000006,186.00000999999992 254.30000000000004,186.00000999999992 C 255.19999000000004,186.00000999999992 256.1,186.00000999999992 257.00000000000006,186.00000999999992 C 257.79999000000004,186.00000999999992 258.7000100000001,186.00000999999992 259.60001000000005,186.00000999999992 L 260.50000000000006,186.00000999999992 L 261.39999000000006,186.00000999999992 L 262.29998000000006,186.00000999999992" fill="none" id="svg_12" stroke="#000" stroke-width="2"/>
	<path d="M 233.0,178.0 C 234.82533,178.0 235.83333,178.0 236.6955,178.0 C 237.52083000000002,178.0 238.484,178.0 239.34734,178.0 C 240.24283,178.0 241.2,178.0 242.10018,178.0 C 242.88533999999999,178.0 243.82533999999998,178.0 244.51601,178.0 C 245.58934,178.0 246.5,178.00226 247.4,178.0 C 248.29552,177.99774 248.80686,177.32947 249.52083000000002,177.02083 C 250.32805000000002,176.67188 251.3,177.0 252.20000000000002,177.0 C 253.10001000000003,177.0 254.00000000000003,177.0 254.80001000000001,177.0 C 255.70000000000002,177.0 256.60001,177.0 257.50001000000003,176.97917 L 258.3,176.64734" fill="none" id="svg_13" stroke="#000" stroke-width="2"/>
</svg>
