<?xml version="1.0" ?>
<svg baseProfile="full" height="480" version="1.1" width="640" xmlns="http://www.w3.org/2000/svg" xmlns:ev="http://www.w3.org/2001/xml-events" xmlns:xlink="http://www.w3.org/1999/xlink">
	<defs/>
	<path d="M 288.0,206.0 C 286.39999,205.42534 285.60056,205.01801 284.70001,205.0 C 283.80017000000004,204.98201 282.89999,205.0 282.0,205.0 C 281.20001,205.0 280.29999,205.0 279.39999,205.0 C 278.5,205.0 277.6,205.0 276.70001,205.0 C 275.79999000000004,205.0 274.89999,205.0 274.0,205.0 C 273.20001,205.0 272.29999,205.05716 271.5,205.5 C 270.70001,205.94284 269.74271,205.8363 268.89999,206.22133 C 268.23068,206.52713 267.39999,206.98927 266.5,207.0 C 265.61066,207.0106 264.31879,207.17467 264.34283,208.00017 C 264.36502,208.76142 265.54885,208.94638 266.39999,209.42534 C 267.12671,209.83429 268.0,210.0 268.79998,210.0 C 269.7,210.0 270.44833,210.24203 271.08401,210.716 C 271.85283999999996,211.28924 272.55444,211.41761 273.22148999999996,211.87849 C 273.95100999999994,212.38253 274.71532999999994,212.47732 275.36166,212.94732 C 276.16884999999996,213.5343 277.03902999999997,213.45856999999998 277.83333999999996,213.99999 C 278.49472,214.4508 278.89070999999996,215.3391 279.42531999999994,215.97466 C 279.97151999999994,216.62401 280.8091099999999,216.90751 281.38933999999995,217.43599 C 282.0753399999999,218.06084 282.22148999999996,219.09982 282.70449999999994,219.64282 L 283.6428199999999,220.05266" fill="none" id="svg_1" stroke="#000" stroke-width="2"/>
	<path d="M 288.0,207.0 C 288.87866,205.77867 289.38223,205.21069 290.19867,204.99867 C 290.99912,204.7908 291.44611,204.018 292.32132,204.0 C 293.17447000000004,203.98245 294.18527,204.13609 294.95184,203.64734 C 295.65588,203.19847000000001 296.35183,203.00226 297.24283,203.0 C 298.20001,202.99759 299.10001000000005,203.0 300.0,203.0 C 300.79999,203.0 301.70001,203.0 302.60001,203.0 C 303.5,203.0 304.4,203.0 305.29999,203.0 C 306.20000999999996,203.0 307.10001,203.0 308.0,203.0 C 308.79999,203.0 309.70001,203.0 310.60001,203.0 C 311.5,203.0 312.4,203.0 313.29999,203.0 C 314.20000999999996,203.0 315.10001,203.0 316.0,203.0 C 316.79999,203.0 317.54803,203.21599 318.16666,203.83333 C 318.78562,204.45099 319.43546,204.98136 320.29999,205.0 C 321.19845999999995,205.01938 321.73883,205.60832 322.43600999999995,205.964 C 323.20246,206.35504 323.69262999999995,206.58055 324.01068999999995,207.38932 C 324.29608999999994,208.11507 325.44455999999997,207.90452 326.20001999999994,208.28399 C 327.06720999999993,208.71956999999998 327.91748999999993,208.62856 328.71466999999996,209.08532 C 329.38926,209.47184 330.02609999999993,209.89776 330.97833999999995,210.00016 C 331.84442999999993,210.0933 332.30646999999993,210.78771 333.19867999999997,211.00132 C 333.94849999999997,211.18084 334.44822,211.85419 335.29999999999995,212.00449 C 336.22846999999996,212.16832 336.80030999999997,212.80101 337.40000999999995,213.39998 C 338.10035999999997,214.09947 338.81803999999994,214.44539 339.56400999999994,215.02532 C 340.18848999999994,215.51082 340.79624999999993,216.09269 341.5000099999999,216.49999 C 342.28989999999993,216.95714 343.06024999999994,217.44086 343.5746899999999,218.02532 C 344.12339999999995,218.64875 344.4806299999999,219.51121 344.94733999999994,220.29549 C 345.3410799999999,220.95717 346.34207999999995,221.18851 346.71466999999996,221.88666 C 347.17325999999997,222.74594000000002 347.04051,223.53597000000002 347.50001,224.47916 C 347.90943,225.31954000000002 348.30688999999995,226.04680000000002 348.71601,226.79999 C 349.14923999999996,227.59751 349.83335,228.16666 350.00001,228.99999 C 350.16666999999995,229.83332 350.81343,230.33155 351.22135,231.1 C 351.56635,231.74994999999998 351.98925999999994,232.6 352.00001,233.49999 C 352.01063,234.38932 352.71698999999995,234.87705 352.98933,235.61066 C 353.29905,236.44492 353.43602,237.39998 354.00001,237.99999 C 354.56401,238.6 354.70097,239.55506 355.01068999999995,240.38932 C 355.28302999999994,241.12293 355.9946699999999,241.61062 356.00001,242.49999 C 356.00541,243.39997 355.92121,244.35479 356.42533,244.97466 C 356.92553999999996,245.58973 357.34243999999995,246.31383 358.00001,246.99999 C 358.58711,247.61263 359.4658,248.19738999999998 359.83335,248.99999 C 360.1735,249.74271 359.81626,250.72648 360.03602,251.6 C 360.25306,252.46281 360.7671,253.29728 361.28401,253.91599 C 361.83284000000003,254.57292999999999 361.86833,255.35005999999998 362.22136,256.09999999999997 C 362.58641,256.87550999999996 362.96587,257.75508999999994 363.43602,258.39998999999995 C 364.00432,259.17952999999994 364.79616,259.65514999999994 364.98933,260.59999999999997 C 365.16554,261.46187999999995 365.60269999999997,262.00645999999995 366.05268,262.70448999999996 C 366.5528,263.48031 367.21879,264.01075999999995 367.64283,264.7 C 368.14817,265.52137999999997 367.90199,266.50642999999997 368.01069,267.41066 C 368.12223,268.33855 368.38004,269.10722 369.09983,269.75716 C 369.7728,270.36483 369.8892,271.17710999999997 370.02085,271.97914 C 370.16519999999997,272.85859999999997 370.97135,273.35573 371.00001,274.2 C 371.03056,275.09929 371.36163999999997,275.76128 372.09983,276.22148 C 372.81699,276.66859 372.62043,277.69291999999996 373.03602,278.56397999999996 C 373.38893,279.30366999999995 373.55869,280.09137999999996 374.22151,280.75696999999997 C 374.86458000000005,281.40274999999997 375.92695000000003,281.21668999999997 376.00001000000003,282.16664 C 376.06233000000003,282.977 376.33866,283.76781 376.94734000000005,284.35263999999995 C 377.56111000000004,284.94235999999995 377.99367000000007,285.62751 378.42534000000006,286.39996999999994 C 378.8831600000001,287.2192099999999 379.2339600000001,287.95825999999994 379.64736000000005,288.69998999999996 C 380.07299000000006,289.46365999999995 380.32595000000003,290.33761999999996 381.09984000000003,290.87881999999996 C 381.80699000000004,291.37335999999993 381.89546,292.22988999999995 382.42534,292.93863 C 382.91536,293.59409 383.88612,293.56412 384.66667,294.16663 C 385.23317000000003,294.60395 385.28798,295.48844 385.87868000000003,296.22147 C 386.39952000000005,296.8678 386.75041000000004,297.65799 387.29552,298.29996 C 387.9363,299.05457 388.35558000000003,299.75586 389.14934,300.0253 C 389.91417,300.28491 389.99993,301.29996 390.00002,302.19998000000004 C 390.00011,303.09997000000004 390.16668,303.99997 390.5747,304.59997000000004 L 390.96401000000003,305.39996 L 391.00002,306.29995" fill="none" id="svg_2" stroke="#000" stroke-width="2"/>
	<path d="M 283.0,226.0 C 283.57468,227.60001 283.98199,228.39946 284.0,229.3 C 284.01804,230.20115 284.0,231.16667 284.0,232.02083000000002 C 284.0,233.00000000000003 284.0,233.78934 284.0,234.51467000000002 C 284.0,235.47918 284.0,236.40000000000003 284.0,237.30451000000002 C 284.0,238.32151000000002 284.0,239.02083000000002 284.0,240.00001000000003 C 284.0,240.80001000000004 284.0,241.60002000000003 284.0,242.60002000000003 C 284.0,243.40001000000004 284.00159,244.39868000000004 284.0,245.16402000000002 C 283.99774,246.24285000000003 283.69113,247.05110000000002 283.35266,247.75719 C 282.94504,248.60753 283.00067,249.51602 283.0,250.37468 C 282.99927,251.32135000000002 283.05057,252.17612000000003 282.99866,253.11601000000002 C 282.95606,253.88742000000002 282.52671,254.80707 282.284,255.51602000000003 C 281.9541,256.47969 282.0,257.32133000000005 282.0,258.17467000000005 C 282.0,259.11467000000005 282.09033,260.11534000000006 281.91467,260.88536000000005 C 281.73364,261.67903000000007 281.20611,262.52110000000005 280.7045,263.24284000000006 C 280.17447,264.00550000000004 280.00226,264.75718000000006 280.0,265.65718000000004 C 279.99765,266.60133 280.00394,267.5955 280.0,268.34285000000006 C 279.99466,269.3533800000001 279.36078,269.8734600000001 279.05716,270.71434000000005 C 278.82056,271.36961 279.0,272.3987000000001 279.0,273.34285000000006 C 279.0,274.24736000000007 279.0,275.16667000000007 279.0,276.00002000000006 C 279.0,276.9785100000001 279.0,277.79870000000005 279.0,278.63601000000006 C 279.0,279.4840300000001 279.0,280.34734000000003 279.0,281.37469000000004 C 279.0,282.32135000000005 279.0,283.00003000000004 279.0,283.97851 C 279.0,285.00002 279.0,285.80001000000004 279.0,286.63601000000006 C 279.0,287.4840300000001 279.0,288.34734000000003 279.0,289.36404000000005 C 279.0,290.20135000000005 279.0,291.16668000000004 279.0,292.00003000000004 C 279.0,292.97852000000006 278.81299,293.83054000000004 279.05716,294.70004000000006 C 279.271,295.46148000000005 279.87506,296.20468000000005 280.00015,297.10003000000006 C 280.1268,298.00649000000004 280.80029,298.65261000000004 280.97915,299.50002000000006 C 281.16729,300.3912900000001 280.90841,301.3301600000001 281.036,302.17467000000005 C 281.18123,303.13591 281.79885,303.65196000000003 281.98931,304.60002000000003 C 282.16668,305.48292000000004 282.38051,306.28740000000005 282.80132,306.88536000000005 C 283.33016,307.63682000000006 283.70973999999995,308.39970000000005 284.19865999999996,309.3987000000001 C 284.57145999999995,310.1604200000001 284.77691,311.0167400000001 285.10981999999996,311.7526700000001 C 285.46552999999994,312.5389600000001 286.30402999999995,313.07835000000006 286.75697999999994,313.97850000000005 C 287.14113999999995,314.74199000000004 286.99998999999997,315.6360000000001 286.99998999999997,316.65269000000006 C 286.99998999999997,317.34733000000006 286.74724,318.40022000000005 287.00447999999994,319.29551000000004 C 287.22511999999995,320.06342 287.92891999999995,320.56547000000006 288.22166999999996,321.32133000000005 C 288.566,322.21028000000007 289.15489999999994,322.84803000000005 289.81465999999995,323.36402000000004 C 290.65214999999995,324.01899000000003 290.96709999999996,324.65266 291.28532999999993,325.48533000000003 C 291.5691099999999,326.22791 292.1233399999999,327.18882 292.47914999999995,327.97917 C 292.85875999999996,328.82237000000003 292.64998999999995,329.66969 293.02083999999996,330.47917 C 293.35564999999997,331.20997 294.40880999999996,331.42683 295.09999999999997,332.10002000000003 C 295.70788,332.69206 296.34105999999997,333.27156 296.79997999999995,333.88536000000005 C 297.46238999999997,334.77129 297.89644999999996,335.32246000000004 298.56398999999993,336.01469000000003 C 299.1508099999999,336.62321000000003 299.42680999999993,337.40882000000005 300.0999999999999,338.10002000000003 C 300.6920399999999,338.70790000000005 301.4087799999999,339.39134 301.9999899999999,340.00001000000003 C 302.6091799999999,340.62721000000005 303.0546199999999,341.35099 303.4999899999999,341.97917 C 304.1381399999999,342.87922000000003 305.0062799999999,343.32857 305.3999799999999,343.85069 C 306.0097799999999,344.65938 306.7256299999999,345.00621 307.52082999999993,345.52085999999997 C 308.35029999999995,346.05769 309.03101999999996,346.45158999999995 309.83332999999993,347.00001999999995 C 310.50758999999994,347.46092999999996 311.01813999999996,348.20701999999994 311.69999999999993,348.6428399999999 C 312.5239699999999,349.16950999999995 313.38465999999994,349.4726399999999 314.1666399999999,350.00001999999995 C 314.8055599999999,350.43089999999995 315.5330599999999,350.77626999999995 316.3746499999999,351.40000999999995 C 316.8949399999999,351.78562999999997 317.84165999999993,352.37305999999995 318.5159799999999,352.79999999999995 C 319.2666799999999,353.27527999999995 319.8917399999999,353.87769999999995 320.4826499999999,354.48401999999993 C 321.1474799999999,355.16617999999994 321.7017399999999,356.0035499999999 322.04813999999993,356.69550999999996 C 322.45780999999994,357.51386999999994 323.3470299999999,357.83644 324.09998999999993,358.22135999999995 C 324.8631699999999,358.61152999999996 325.4719999999999,359.19987999999995 326.1666399999999,359.83335999999997 C 326.7657899999999,360.37974999999994 327.3651899999999,360.87131999999997 328.19999999999993,361.00136 C 329.11546999999996,361.14396999999997 329.8155099999999,361.67848 330.59998999999993,362.02535 C 331.4180099999999,362.38701 332.24607999999995,362.80001 332.99997999999994,363.16668 C 333.76361999999995,363.53808 334.49979999999994,363.98958999999996 335.39996999999994,364.00002 C 336.2998999999999,364.01043 337.40112999999997,363.78844 337.87881999999996,364.44268 C 338.39939,365.15563 338.70477999999997,365.93169 339.51730999999995,365.99737 C 340.49704999999994,366.07656 341.31591999999995,366.23464 342.17463,366.5747 C 342.97364,366.89111 343.77592,367.12325 344.59997999999996,367.5747 C 345.38024999999993,368.00216 346.30325999999997,367.92434000000003 347.20129999999995,368.00137 C 348.17709999999994,368.08505 348.9390599999999,368.28265 349.66662999999994,369.00003 C 350.22079999999994,369.54645 350.87145999999996,369.9776 351.6026299999999,369.99868999999995 C 352.7781999999999,370.03255999999993 353.4616099999999,370.38906999999995 354.16662999999994,370.83338 C 354.8855899999999,371.28650999999996 355.79995999999994,371.00003999999996 356.69998999999996,371.00003999999996 C 357.59997999999996,371.00003999999996 358.52081999999996,371.00003999999996 359.48398999999995,371.00003999999996 C 360.1746299999999,371.00003999999996 361.24280999999996,371.00003999999996 362.09998999999993,371.00003999999996 C 362.99997999999994,371.00003999999996 363.7999699999999,371.00003999999996 364.69999999999993,371.00003999999996 C 365.59998999999993,371.00003999999996 366.4999899999999,371.00003999999996 367.3999799999999,371.00003999999996 C 368.2999699999999,371.00003999999996 369.19999999999993,371.00003999999996 370.09998999999993,371.00003999999996 C 370.99997999999994,371.00003999999996 371.7999699999999,371.00003999999996 372.69999999999993,371.00003999999996 C 373.59998999999993,371.00003999999996 374.4999899999999,371.00226999999995 375.3999799999999,371.00003999999996 C 376.2999699999999,370.99778 377.1383499999999,370.61395999999996 377.7999699999999,370.28403999999995 C 378.64334999999994,369.8634799999999 379.59998999999993,370.0001 380.5416399999999,370.00003999999996 C 381.5428299999999,369.99994999999996 382.2645999999999,370.02876 383.0517999999999,369.94287999999995 C 384.0852499999999,369.83014999999995 384.7230599999999,369.48335 385.8333199999999,369.16669999999993 C 386.6095699999999,368.94528999999994 387.5006799999999,369.09198999999995 388.2106399999999,368.9280499999999 C 389.2402699999999,368.69028999999995 389.7932799999999,368.1149699999999 390.4571299999999,367.6481999999999 C 391.3979599999999,366.9866999999999 392.2397799999999,366.6417899999999 392.7746299999999,366.33868999999993 C 393.8655699999999,365.7204299999999 394.3172899999999,365.22802999999993 394.78530999999987,364.71737999999993 L 395.26128999999986,364.14269999999993 L 395.7693199999999,363.51201999999995" fill="none" id="svg_3" stroke="#000" stroke-width="2"/>
	<path d="M 390.0,305.0 C 391.0,306.0 390.59726,306.9364 391.08533,307.71466 C 391.54969,308.45507999999995 391.82645,309.03824 392.08533,309.79999 C 392.38709,310.68793 392.86246,311.49789999999996 393.44266,312.10001 C 394.04334,312.72336 394.73940999999996,313.2454 395.22135,314.10001 C 395.58279999999996,314.74097 395.99113,315.61805 396.42533,316.4 C 396.88093,317.22049999999996 397.23742999999996,317.95633999999995 397.64734999999996,318.70002 C 398.07858999999996,319.48243 398.11878999999993,320.37855 398.61066999999997,321.13868 C 399.10398999999995,321.90107 399.84727,322.40443000000005 400.28400999999997,323.20002 C 400.63978,323.84812 401.04184999999995,324.70618 401.50001,325.50001 C 401.90646999999996,326.20426 402.42179,326.86899999999997 402.98533,327.43600999999995 C 403.66267,328.11749999999995 404.19978,328.5499 404.89018,329.29551 C 405.48219,329.93485 406.33107,330.18683999999996 406.83335999999997,331.00001 C 407.30503999999996,331.76362 408.00086999999996,331.96281 408.79999999999995,332.00001 C 409.71765999999997,332.04272999999995 409.91248999999993,332.95444999999995 410.61066999999997,333.56401 C 411.27727,334.14601 412.35481,333.92122 412.97468,334.42534 C 413.58975999999996,334.92555 414.24043,335.49211 415.16666999999995,335.83336 C 415.96412,336.12715000000003 416.82602999999995,336.18056 417.58933999999994,336.57469000000003 C 418.39255999999995,336.98942000000005 419.30634999999995,337.35014 419.79999999999995,337.80134000000004 C 420.53038,338.46888 421.31632999999994,338.92832000000004 422.17465999999996,338.98933000000005 C 423.11236999999994,339.05598000000003 424.03430999999995,339.12474000000003 424.70001999999994,339.70451 C 425.33511999999996,340.25761 426.0983999999999,340.89109 427.0000099999999,341.00001000000003 C 427.79871999999995,341.09651 428.5051699999999,341.51557 429.20001999999994,342.20002000000005 C 429.80450999999994,342.7954500000001 430.32489999999996,343.52695000000006 431.2013299999999,343.9159900000001 C 432.1129199999999,344.3206200000001 432.83935999999994,344.4290200000001 433.60131999999993,344.8013400000001 C 434.4022799999999,345.1927300000001 435.20922999999993,345.5329100000001 435.9784899999999,346.1001700000001 C 436.6324499999999,346.5824100000001 437.14672999999993,347.5182900000001 437.6000099999999,348.1386800000001 C 438.1414499999999,348.8797100000001 438.9225199999999,349.1188700000001 439.65267999999986,349.7098500000001 C 440.38790999999986,350.3049400000001 440.89394999999985,351.0908600000001 441.6253399999999,351.55336000000005 C 442.4136099999999,352.05180000000007 443.4381799999999,351.98399000000006 444.1146599999999,352.5680100000001 C 444.6827399999999,353.0584600000001 445.3159199999999,353.8568600000001 446.1666599999999,354.16667000000007 C 446.83532999999994,354.4102000000001 447.8119499999999,355.03026000000006 448.4791599999999,355.47917000000007 C 449.17907999999994,355.95009000000005 449.99117999999993,356.3400700000001 450.49999999999994,357.0000100000001 C 451.08986999999996,357.7650900000001 451.81811999999996,358.0541500000001 452.52083999999996,358.5208500000001 C 453.34407999999996,359.0676000000001 454.03911999999997,359.4932300000001 454.60130999999996,359.88535000000013 C 455.63136999999995,360.60376000000014 456.16335,361.1753000000001 456.83333999999996,361.8333500000001 C 457.37413999999995,362.3645400000001 458.16252999999995,363.0068700000001 458.82534,363.4000000000001 C 459.5118,363.8071400000001 460.35717,364.4445900000001 460.96932,364.7999900000001 C 461.96934999999996,365.3805900000001 462.54249999999996,365.4768400000001 463.31730999999996,365.8853500000001 C 464.34525999999994,366.4273100000001 464.96572,366.99216000000007 465.51331999999996,367.5160000000001 C 466.26206999999994,368.2322500000001 466.95450999999997,368.8296000000001 467.76798999999994,369.20002000000005 C 468.48792999999995,369.52784 469.3094899999999,369.6749300000001 470.18564999999995,370.30451000000005 C 470.87064999999996,370.79673 471.27744999999993,371.66614000000004 471.69998999999996,372.34733000000006 C 472.27018,373.26652000000007 472.80848,373.87852000000004 473.29997,374.64817000000005 C 473.70707,375.28568000000007 474.46106999999995,375.8224900000001 475.19998999999996,376.28535000000005 C 475.87060999999994,376.70542000000006 476.44287999999995,377.59510000000006 477.30447999999996,377.94734000000005 C 478.12793999999997,378.28398000000004 478.97989999999993,378.55543000000006 479.83331999999996,378.83336 C 480.67920999999996,379.10881 481.39227999999997,379.44423 482.09997999999996,380.09984000000003 C 482.69361,380.6498 483.59112999999996,380.92098000000004 484.19998999999996,381.56801 C 484.80447999999996,382.21041 485.44134999999994,382.72478 486.29547999999994,383.0045 C 487.0633899999999,383.25600000000003 487.58475999999996,383.8463 488.3518199999999,384.05269 C 489.39334999999994,384.33293 490.0940999999999,384.92876 490.8853299999999,384.99867 C 491.8113199999999,385.08049 492.6215099999999,385.35792 492.9999799999999,386.00001000000003 C 493.5108099999999,386.86662 494.36176999999986,386.8711 495.2428099999999,387.0045 C 496.2291099999999,387.15385000000003 496.7457699999999,387.86232 497.3999799999999,388.38936 C 498.1452799999999,388.98979 499.1012699999999,388.95223 499.9999899999999,389.00002 C 500.8033699999999,389.04274 501.5822299999999,389.61242 502.3999799999999,389.97469 C 503.1846499999999,390.32232 503.72266999999994,390.89159 504.4999899999999,391.47918 C 505.23759999999993,392.03677 506.2484599999999,391.84648999999996 506.9999899999999,392.16668 C 507.78120999999993,392.4995 508.6032599999999,392.99874 509.0526599999999,393.70452 C 509.4741999999999,394.36654 510.3180999999999,394.75695 510.9518299999999,395.3572 C 511.59818999999993,395.96941 512.16631,396.61715 512.9784999999999,396.87868 C 513.78325,397.13779999999997 514.4945499999999,397.55901 515.32133,398.10002 C 515.98051,398.53135999999995 516.7850099999999,399.07126999999997 517.58934,399.56401 C 518.36015,400.03624 519.36143,399.84514 520.09996,400.22151 C 520.78624,400.57127 521.4130700000001,401.38719000000003 522.09984,402.10002000000003 C 522.57317,402.59135000000003 523.07445,403.41026000000005 523.57463,404.02534 C 524.07872,404.64521 523.9999799999999,405.60002000000003 523.9999799999999,406.50001000000003 C 523.9999799999999,407.40000000000003 524.19804,408.3224 523.9986399999999,409.19868 C 523.8155999999999,410.00297 522.69999,410.00001000000003 521.7999699999999,410.00001000000003 C 520.90001,410.00001000000003 519.9999799999999,410.00001000000003 519.19999,410.00001000000003 C 518.2999699999999,410.00001000000003 517.4,410.00001000000003 516.4999799999999,410.00001000000003 C 515.5999599999999,410.00001000000003 514.63853,410.15489 513.9,409.77851000000004 C 513.21372,409.42875000000004 512.66532,408.49451000000005 511.79996,408.08402000000007 C 511.04251,407.7247100000001 510.28531,407.36933000000005 510.22132,408.10001000000005 L 510.64731,408.70002000000005 L 510.98929,409.60001000000005 L 511.02081,410.47916000000004" fill="none" id="svg_4" stroke="#000" stroke-width="2"/>
	<path d="M 512.0,412.0 C 512.0,413.70001 512.31451,414.38718 512.83331,415.16666 C 513.3042,415.87412 513.0,416.79999 513.0,417.70002 C 513.0,418.60001 513.0,419.50001 513.0,420.4 C 513.0,421.29999 513.32538,422.47965 512.64282,422.94284999999996 C 511.94381000000004,423.41722 510.89999,423.00001 510.00000000000006,423.00001 C 509.2000100000001,423.00001 508.29999000000004,423.00001 507.39999000000006,423.00001 C 506.50000000000006,423.00001 505.5628300000001,423.25082999999995 504.7044900000001,422.99552 C 503.9418600000001,422.76868 503.9999900000001,421.60001 503.9999900000001,420.70002 C 503.9999900000001,419.80268 503.82641000000007,419.64286 504.0208300000001,420.50001 C 504.2390900000001,421.46229 504.8910700000001,422.09839999999997 504.9999900000001,423.00001 C 505.0964900000001,423.79872 505.74901000000006,424.53668999999996 505.9639800000001,425.4 C 506.1805000000001,426.26950999999997 505.5262700000001,426.74946 504.7044900000001,427.00449 C 503.9414000000001,427.24131 503.3894000000001,427.99465999999995 502.4999900000001,428.0 C 501.60003000000006,428.0054 500.7000000000001,428.0 499.79998000000006,428.0 C 498.89999000000006,428.0 497.9999900000001,428.0 497.20000000000005,428.0 C 496.29998000000006,428.0 495.39998,428.0 494.49999,428.0 C 493.6,428.0 492.67052,428.04669 492.01467,427.57468 C 491.39641,427.1297 490.63625,426.8371 489.91732,426.284 C 489.22335000000004,425.75013 488.69329,425.21326 487.80132000000003,424.99866 C 487.05242000000004,424.81847999999997 487.16552,423.69717999999995 486.64733,423.05267999999995 C 486.15578,422.44131999999996 485.40578,422.12408999999997 484.6,421.56399999999996 C 483.92385,421.09399999999994 483.39999,420.4 482.70001,419.70001999999994 C 482.20001,419.20001999999994 481.53689,418.4511499999999 480.70001,418.05267999999995 C 479.83197,417.63937999999996 479.19967,417.19900999999993 478.58932000000004,416.58932999999996 C 477.83291,415.83377999999993 477.37573000000003,415.31973999999997 476.82534000000004,414.86132999999995 C 475.92843000000005,414.11431999999996 474.89391000000006,413.94210999999996 474.43600000000004,413.38935 C 473.86837,412.70414 473.75460000000004,411.53141 473.00000000000006,411.16666 C 472.26453000000004,410.81116 471.28513000000004,410.82941 471.00000000000006,410.0 C 470.71445000000006,409.1694 469.87592000000006,408.80698 469.29999000000004,408.2955 C 468.55649000000005,407.63522 467.83747000000005,406.99313 467.17465000000004,406.6 C 466.48819000000003,406.19286 465.63653000000005,405.59942 465.00000000000006,404.99999 C 464.40051000000005,404.43545 463.53659000000005,404.15487 462.79868000000005,403.71334 C 462.17127000000005,403.33791 461.54291000000006,402.48775 460.82535000000007,401.86132000000003 C 460.18939000000006,401.30614 459.2493600000001,401.03844000000004 458.60001000000005,400.56399000000005 C 457.82099000000005,399.99478000000005 457.26389000000006,399.28665000000007 456.35184000000004,399.05267000000003 C 455.58240000000006,398.85528000000005 454.90094000000005,398.31436 454.19867000000005,397.91598000000005 C 453.4819600000001,397.50939000000005 452.88086000000004,396.68862000000007 452.2000100000001,396.28533000000004 C 451.3728300000001,395.79537000000005 450.4948700000001,395.48443000000003 449.89999000000006,394.89998 C 449.29470000000003,394.30531 448.6086700000001,393.5912 448.00000000000006,392.99999 C 447.37280000000004,392.3908 446.6350100000001,391.96544 445.86133000000007,391.39998 C 445.1210700000001,390.85893000000004 444.69293000000005,389.96193000000005 444.12799000000007,389.59999000000005 C 443.42660000000006,389.15062000000006 442.38608000000005,388.71950000000004 441.7999900000001,388.36400000000003 C 440.9791900000001,387.86614000000003 440.4100400000001,387.33553 439.7999900000001,386.82533 C 438.8156800000001,386.00218 438.2015100000001,385.61104 437.5428500000001,385.30449 C 436.5948500000001,384.8633 435.7598900000001,384.62245 434.9526700000001,384.24280999999996 C 434.1506700000001,383.86560999999995 433.45636000000013,383.34830999999997 432.81067000000013,382.82532999999995 C 431.9989900000001,382.16788999999994 431.37949000000015,381.7718899999999 430.54285000000016,381.19013999999993 C 429.81891000000013,380.68677999999994 429.0423900000002,379.9906499999999 428.47916000000015,379.4791399999999 C 427.89505000000014,378.9486799999999 427.00794000000013,378.1565999999999 426.40000000000015,377.68531999999993 C 425.80756000000014,377.22605999999996 425.20194000000015,376.80781999999994 424.60001000000017,376.40131999999994 C 423.70322000000016,375.79572999999993 422.80564000000015,375.22068999999993 422.2720100000002,374.7999699999999 C 421.3034700000002,374.0364199999999 420.8669200000002,373.3584399999999 420.3853500000002,372.8719899999999 C 419.59821000000017,372.07688999999993 418.7707900000002,372.0598299999999 417.7999900000002,371.77847999999994 C 416.9795900000002,371.54071999999996 416.3931600000002,371.2120699999999 415.4045100000002,370.69998999999996 C 414.6518200000002,370.31012999999996 413.9001800000002,369.77865999999995 413.2473400000002,369.29997 C 412.5328900000002,368.77606999999995 411.76342000000017,368.48731999999995 410.8866500000002,367.79997 C 410.3160900000002,367.35267 409.9936800000002,366.4084 409.2954900000002,365.94730999999996 C 408.5402100000002,365.44849999999997 408.2933200000002,364.42810999999995 407.5639800000002,364.03598999999997 C 406.8061400000002,363.62852 405.98503000000017,363.61240999999995 405.4253100000002,362.97465 C 404.90785000000017,362.38505 404.2383300000002,361.94731 403.3473100000002,361.63832 L 402.6526700000002,361.23833 L 401.8853400000002,360.51598 L 401.4106700000002,359.82534000000004" fill="none" id="svg_5" stroke="#000" stroke-width="2"/>
	<path d="M 402.0,346.0 C 403.16934,346.80133 403.85635,347.46414 404.68799,347.71466 C 405.65872,348.00708 406.51969,347.84906 407.14533,348.16934 C 408.06553,348.64041 408.0228,349.66170999999997 408.86133,350.35332999999997 C 409.4386,350.82946999999996 410.52335,350.92675999999994 411.32117,351.22148999999996 C 412.17047,351.53524 412.69680999999997,352.27052999999995 413.16666,352.99998999999997 C 413.64096,353.73637999999994 414.66461999999996,353.88676999999996 415.34731999999997,354.05265999999995 C 416.27059999999994,354.27702999999997 416.87179999999995,354.82096999999993 417.82534999999996,355.39997999999997 C 418.50753999999995,355.81422999999995 419.18938999999995,356.40074 419.88399999999996,356.71464999999995 C 420.78328999999997,357.12104999999997 421.63762999999994,356.97697999999997 422.59549,357.36164999999994 C 423.38208,357.67753999999996 424.07894999999996,358.51365999999996 424.5,358.9791399999999 C 425.259,359.8181899999999 426.08798,359.8332999999999 426.83334,360.33332999999993 C 427.60412,360.85041999999993 428.08865000000003,361.7846799999999 428.75717000000003,362.04813999999993 C 429.63455000000005,362.3938999999999 430.19897000000003,362.7991799999999 431.00000000000006,363.4791399999999 C 431.64639000000005,364.02784999999994 432.51740000000007,363.9881699999999 433.47916000000004,363.99997999999994 C 434.40018000000003,364.01129999999995 435.06244000000004,364.47076999999996 435.60001000000005,365.1492999999999 C 436.16486000000003,365.86227999999994 436.98633000000007,366.03003999999993 438.00534000000005,366.3616399999999 C 438.76294000000007,366.6081599999999 439.71490000000006,367.1197599999999 440.1856700000001,367.6526599999999 C 440.7544000000001,368.29642999999993 441.13434000000007,369.19632999999993 441.8143300000001,369.6954799999999 C 442.4860500000001,370.1885499999999 443.2626600000001,370.39649999999995 444.0518200000001,370.69999999999993 C 445.08008000000007,371.0954499999999 445.97519000000005,371.47068999999993 446.5133400000001,371.79997999999995 C 447.4162300000001,372.35243999999994 447.95044000000007,372.84135999999995 449.0098300000001,373.29997999999995 C 449.77292000000006,373.63032999999996 450.32389000000006,373.78407999999996 451.5383300000001,374.29549 C 452.1567700000001,374.55593 453.1128500000001,374.95167999999995 453.88400000000007,374.99865 C 454.82367000000005,375.0559 455.8833900000001,375.0877 456.47915000000006,375.52084 C 457.28021000000007,376.10324 457.74545000000006,376.8612 458.39999000000006,377.38934 C 459.14624000000003,377.99148 460.19201000000004,378.11322 460.82534000000004,378.44665 C 461.54995,378.82811999999996 462.20992000000007,379.68847 462.66134000000005,380.17465 C 463.47308000000004,381.04889 464.0019500000001,381.26105 464.78533000000004,381.58932 C 465.82345000000004,382.02434999999997 466.5425,382.31106 467.45266000000004,382.70000999999996 C 468.41668000000004,383.11197 468.96386,383.29866999999996 469.84667,383.63597999999996 C 470.48827,383.88113 471.52614,384.31096999999994 472.24816000000004,384.65716 C 472.98437000000007,385.01016 473.71477000000004,385.36589999999995 474.66665000000006,385.99998999999997 C 475.50417000000004,386.55791 476.0858400000001,387.21009999999995 476.8333400000001,387.66664999999995 C 477.6122700000001,388.1423899999999 478.54611000000006,388.43672999999995 479.25067000000007,388.8506699999999 C 479.7518300000001,389.1450999999999 480.83484000000004,389.84953999999993 481.57867000000005,389.97865999999993 C 482.48736,390.13640999999996 483.20327000000003,390.5431699999999 484.1,390.8784999999999 C 484.95065,391.1965799999999 485.61279,391.3428199999999 486.22149,391.87864999999994 C 486.92931000000004,392.5016999999999 487.65624,392.7989099999999 488.6,392.98930999999993 C 489.48275,393.1674099999999 490.28793,393.3797199999999 490.88534000000004,393.8013199999999 C 491.63302000000004,394.3289699999999 492.35659000000004,394.6862999999999 493.24282000000005,395.2954899999999 C 494.00817000000006,395.8216099999999 494.78777,396.1052399999999 495.49999,396.4999899999999 C 496.38561000000004,396.9908299999999 497.29998,397.0089899999999 498.1,397.4426499999999 L 498.49999,397.9999899999999 L 499.09981000000005,398.7571599999999" fill="none" id="svg_6" stroke="#000" stroke-width="2"/>
	<path d="M 506.0,415.0 C 504.29999,415.0 503.39996,415.00528 502.5,415.0 C 501.58926,414.99466 500.67068,414.79611 499.97916,414.47916 C 498.98819,414.02497 498.38595999999995,413.71304999999995 497.54285,413.24282999999997 C 496.56667999999996,412.69843 496.03348,412.33892999999995 495.4375,411.95835 C 494.78076,411.53898 493.66663,410.83338 492.832,410.31467 C 492.39465,410.04285 491.49753,409.48294 491.05066,409.18933 C 490.16306,408.60614 489.32171999999997,408.01453 488.56799,407.39867999999996 C 487.83917,406.80315999999993 487.50128,406.47774999999996 486.79467,405.84282999999994 C 485.66866,404.83107999999993 485.25909,404.47545999999994 484.82665,404.11333999999994 C 483.91175999999996,403.34719999999993 483.41801999999996,402.9565999999999 482.90666999999996,402.55333999999993 C 482.37810999999994,402.13652999999994 481.83095999999995,401.7076399999999 480.66664999999995,400.8333399999999 C 479.43516999999997,399.9086299999999 478.79011999999994,399.4428699999999 478.13866999999993,398.9639899999999 C 477.4791199999999,398.4791899999999 476.8137499999999,397.9905399999999 476.14815999999996,397.4955099999999 C 475.48175,396.99986999999993 474.16484999999994,396.0023199999999 473.52199999999993,395.5003299999999 C 472.8875699999999,395.0049399999999 472.2690099999999,394.5110399999999 471.66799999999995,394.0213299999999 C 471.08172999999994,393.5436399999999 470.51708999999994,393.0738799999999 469.97601,392.6143199999999 C 469.45577999999995,392.1724599999999 468.49611999999996,391.3376199999999 467.65065999999996,390.5666799999999 C 467.25166999999993,390.2028499999999 466.47945999999996,389.4788499999999 466.08800999999994,389.1133399999999 C 465.68514999999996,388.7371499999999 464.33397999999994,387.49926999999985 463.81481999999994,387.03582999999986 C 463.26598999999993,386.54589999999985 462.6922599999999,386.03927999999985 462.10934999999995,385.51333999999986 C 461.51922999999994,384.98092999999983 460.93301999999994,384.44451999999984 460.36782999999997,383.9008499999999 C 459.81708,383.3710599999999 458.81008999999995,382.35244999999986 458.02268,381.3693299999999 C 457.66146999999995,380.9183399999999 457.34531,380.4631699999999 456.74534,379.5853299999999 C 456.44969,379.1527399999999 455.50855,377.8263599999999 455.13569,377.3788499999999 C 454.35075,376.4367999999999 453.90269,375.98532999999986 453.45835,375.5208499999999 L 453.004,375.0613499999999 L 452.08133000000004,374.1693499999999" fill="none" id="svg_7" stroke="#000" stroke-width="2"/>
	<path d="M 319.0,249.0 C 318.0,250.0 317.51468,250.76865 317.02533,251.436 C 316.46417,252.2013 316.14572,252.85388 315.7045,253.65716 C 315.30777,254.37947 315.05237,255.39616 315.01068,256.164 C 314.95907,257.11465 315.0,258.16666 315.0,258.836 C 315.0,259.60132 315.0,260.60001 315.0,261.40000000000003 C 315.0,262.40000000000003 315.0,263.20002000000005 315.0,264.19984000000005 C 315.0,265.1640100000001 315.0,266.11467000000005 315.0,267.00001000000003 C 315.0,267.81434 315.0,268.76936 315.0,269.52085000000005 C 315.0,270.31733 315.0,271.31467000000004 315.0,272.1893400000001 C 315.0,273.19984000000005 315.0,273.97917000000007 315.0,274.9784900000001 C 315.0,275.7986800000001 314.95016,276.63743000000005 315.00449,277.6481700000001 C 315.0467,278.4336900000001 315.78765999999996,279.0609200000001 315.96398999999997,279.8613400000001 C 316.17324999999994,280.8112300000001 315.98952999999995,281.6955700000001 315.99999999999994,282.6000200000001 C 316.01043999999996,283.50020000000006 316.53527999999994,284.2063100000001 316.87850999999995,285.1001700000001 C 317.16324,285.8417200000001 316.91982999999993,286.8630200000001 317.17064999999997,287.60133000000013 C 317.45721,288.44487000000015 318.13649999999996,288.88838000000015 318.66664999999995,289.83336000000014 C 319.1173299999999,290.63670000000013 318.83354999999995,291.61949000000016 319.02083999999996,292.5000200000001 C 319.20223999999996,293.35293000000013 319.85430999999994,293.8539000000001 320.29549999999995,294.6571900000001 C 320.69222999999994,295.37951000000015 320.9465599999999,296.39626000000015 320.98931999999996,297.16403000000014 C 321.04931999999997,298.24130000000014 321.19086,299.12607000000014 321.70449999999994,299.7000400000001 C 322.36251999999996,300.4353600000001 323.0009799999999,300.9990500000001 323.60000999999994,301.6000300000001 C 324.29662999999994,302.2988800000001 324.7558599999999,303.0292000000001 325.05267999999995,303.7000400000001 C 325.42770999999993,304.54770000000013 326.20190999999994,305.1981500000001 326.70001999999994,305.7000400000001 C 327.40268999999995,306.4080500000001 327.9854199999999,307.1760200000001 328.41067999999996,307.8253800000001 C 328.86981999999995,308.5264600000001 329.65097999999995,309.2454500000001 330.17465999999996,309.5893600000001 C 331.11163999999997,310.2046900000001 331.76795,310.63501000000014 332.38935,311.40003000000013 C 332.99368999999996,312.1440500000001 333.31489,313.0256400000001 333.86132999999995,313.40003000000013 C 334.80364999999995,314.0456600000001 335.35543999999993,314.4091500000001 336.10000999999994,315.09986000000015 C 336.6932699999999,315.65021000000013 337.4561499999999,316.12791000000016 338.05267999999995,316.64738000000017 C 338.70631,317.2165600000002 339.47711999999996,317.52214000000015 339.95185,318.30003000000016 C 340.44074,319.1011500000002 341.16627,319.61717000000016 341.97848999999997,319.87870000000015 C 342.78329999999994,320.13786000000016 343.60267,320.60801000000015 344.20001999999994,321.20005000000015 C 344.80267999999995,321.79734000000013 345.37576999999993,322.47581000000014 346.33334999999994,323.0000400000001 C 346.97885999999994,323.3534300000001 347.77627999999993,323.54322000000013 348.6666599999999,324.0000400000001 C 349.36245999999994,324.3570300000001 350.1436499999999,325.0425800000001 350.8359999999999,325.38938000000013 C 351.5795299999999,325.7618200000001 352.6701999999999,325.7030100000001 353.4293199999999,326.0840500000001 C 354.2417299999999,326.4918300000001 354.7737699999999,327.01886000000013 355.6526799999999,327.3527000000001 C 356.3580599999999,327.62061000000006 357.4179099999999,327.8566100000001 358.2013299999999,328.2853800000001 C 358.95294999999993,328.6967600000001 359.6520699999999,329.3096700000001 360.40451999999993,329.7000500000001 C 361.19479999999993,330.1100500000001 361.9726999999999,330.5686400000001 363.0000099999999,330.8333800000001 C 363.7747599999999,331.0330300000001 364.52289999999994,330.8920700000001 365.5000099999999,331.0208800000001 C 366.33807999999993,331.1313800000001 367.21762999999993,331.5287800000001 367.83066999999994,332.19871000000006 C 368.4460899999999,332.8712300000001 369.25730999999996,332.83637000000004 370.1000199999999,333.22138000000007 C 370.7693299999999,333.52717000000007 371.5999599999999,333.9947000000001 372.5000099999999,334.00004000000007 C 373.39996999999994,334.00538000000006 374.3229199999999,333.92649000000006 375.1666699999999,334.16670000000005 C 375.8568299999999,334.36317 376.5863499999999,334.79728000000006 377.6045099999999,334.94288000000006 C 378.4501799999999,335.0638200000001 379.4211899999999,335.00004000000007 380.2146799999999,335.00004000000007 C 380.99018999999987,335.00004000000007 382.2040299999999,334.92561000000006 382.8826799999999,335.08537000000007 C 383.8581399999999,335.31498000000005 384.49156999999985,335.83580000000006 385.5000199999999,335.97920000000005 C 386.4744499999999,336.11775000000006 387.1746699999999,336.00004000000007 388.2428499999999,336.00004000000007 L 389.10002999999995,336.00004000000007 L 390.00001999999995,336.00004000000007 L 390.7571899999999,336.00004000000007" fill="none" id="svg_8" stroke="#000" stroke-width="2"/>
	<path d="M 341.0,260.0 C 338.41068,260.0 337.5,259.99777 336.60001,260.0 C 335.70002,260.00226 334.87009,260.18652 334.29999,260.7045 C 333.55843999999996,261.37824 333.14752,261.94715 332.7045,263.00534 C 332.39905,263.73492 332.09488,264.65726 332.01068,265.57867 C 331.93496999999996,266.40728 332.0,267.32165 332.0,268.04165 C 332.0,269.16665 332.0,269.95266 332.0,270.77465 C 332.0,271.83334 332.0,272.54284 332.0,273.3955 C 332.0,274.39999 331.97437,275.20034000000004 332.00034,276.20000000000005 C 332.02115,277.00078 332.30903,278.01577000000003 332.70533,278.59999000000005 C 333.12434,279.2177300000001 333.73014,280.20882000000006 334.00001000000003,280.97914000000003 C 334.30317,281.84450000000004 334.88728000000003,282.326 335.83335000000005,282.99998000000005 C 336.37986000000006,283.38932000000005 337.00687000000005,284.16252000000003 337.40000000000003,284.82533000000006 C 337.80714000000006,285.5117900000001 338.43952,286.34620000000007 339.00001000000003,287.1666400000001 C 339.44297000000006,287.8150500000001 339.70970000000005,288.4410200000001 340.48533000000003,289.3999800000001 C 340.9911,290.0252900000001 341.39652,290.4080400000001 342.20017,291.1998200000001 C 342.80472000000003,291.7954300000001 343.42136,292.4007800000001 344.42151,292.9786600000001 C 344.94037000000003,293.2784600000001 345.81769,293.6098600000001 346.40134,293.8839900000001 C 347.61408,294.45357000000007 348.20047,294.8194500000001 348.76401,295.2106500000001 C 349.85584,295.9685800000001 350.31119,296.4072400000001 351.02085,296.9999900000001 C 351.50571,297.40499000000005 352.63367,298.21535000000006 353.30532999999997,298.5909900000001 C 353.99118,298.9745700000001 354.67461999999995,299.34145000000007 355.66666,299.6666400000001 C 356.47641,299.9320800000001 357.44822,299.9891800000001 358.42132999999995,300.0001400000001 C 359.22538,300.0091700000001 360.04733999999996,300.0571500000001 361.07833999999997,300.2213300000001 L 361.75332999999995,300.4253100000001 L 362.51333999999997,300.7159900000001 L 363.58932999999996,300.9893100000001" fill="none" id="svg_9" stroke="#000" stroke-width="2"/>
	<path d="M 295.0,209.0 C 293.29999,209.0 292.18439,208.99702 292.00134,209.80133 C 291.80194,210.6776 292.0,211.60001 292.0,212.5 C 292.0,213.39999 291.91522,214.35973 292.42532,214.97467 C 292.92242,215.57393 293.64035,215.79092 294.6,216.036 C 295.46203,216.25614 296.09387000000004,216.93912 296.99999,217.0 C 297.79818,217.05363 298.85567000000003,216.94722 298.99999,216.0 C 299.12047,215.20912 299.01067,214.29994 298.99999,213.39999 C 298.98955,212.52064000000001 298.55062000000004,211.86164 297.91598000000005,211.28399 C 297.2693100000001,210.69539999999998 296.98233000000005,209.83758 296.29550000000006,209.35716 C 295.5466600000001,208.83336 295.00226000000004,209.70448 295.00000000000006,210.6 C 294.9977400000001,211.49999 294.75092000000006,212.43662 295.00449000000003,213.2955 C 295.22559,214.04448 296.03528000000006,213.44386 295.64734000000004,212.70000000000002 C 295.20462000000003,211.85106000000002 294.83334,211.00000000000003 294.38934000000006,210.43601 L 293.5208400000001,210.00001 L 292.97467000000006,209.42535" fill="none" id="svg_10" stroke="#000" stroke-width="2"/>
	<path d="M 285.0,210.0 C 285.0,211.8 284.96399,212.60001 284.57468,213.39999 L 284.08533,214.19999" fill="none" id="svg_11" stroke="#000" stroke-width="2"/>
	<path d="M 296.0,329.0 C 295.02084,330.02084 295.0,330.97849 295.0,331.79868 C 295.0,332.70002 295.0,333.60001 295.0,334.5 C 295.0,335.39999 295.0,336.29999 295.0,337.20001 C 295.0,338.1 295.0,339.0 295.0,339.79999000000004 C 295.0,340.75717000000003 295.0,341.65268000000003 295.0,342.34732 C 295.0,343.36401 295.0,344.29999000000004 295.0,345.20001 C 295.0,346.1 295.0,347.0 295.0,347.79999000000004 C 295.0,348.70001 295.0,349.60001000000005 295.0,350.50000000000006 C 295.0,351.39999000000006 295.0,352.29999000000004 295.0,353.2000100000001 C 295.0,354.1000000000001 294.5596,355.23861000000005 295.16666,355.8333400000001 C 295.84380999999996,356.49673000000007 296.60717999999997,356.48318000000006 297.28533999999996,356.91467000000006 C 298.06039,357.40783000000005 299.10128999999995,357.0477900000001 299.99999999999994,357.00000000000006 C 300.80337999999995,356.9572800000001 301.74120999999997,356.45639000000006 301.96398999999997,355.60001000000005 C 302.19077,354.7283100000001 301.87597999999997,353.79139000000004 302.00014999999996,352.90018000000003 C 302.11186999999995,352.09830000000005 302.97139999999996,351.64429 302.99999999999994,350.79999000000004 C 303.03045999999995,349.90051000000005 302.99999999999994,349.00000000000006 302.99999999999994,348.24283 L 302.99999999999994,347.17465000000004 L 302.99999999999994,346.48401000000007 L 302.99999999999994,345.5208400000001" fill="none" id="svg_12" stroke="#000" stroke-width="2"/>
	<path d="M 299.0,356.0 C 299.0,357.70001 299.00592,358.70004 299.0,359.60001 C 298.99466,360.41074 298.81836,361.34033999999997 298.47916,362.0 C 297.95926,363.01108 297.46966999999995,363.73532 296.60001,363.96399 C 295.72892,364.19302000000005 294.79999,364.0 293.89985,364.0 C 293.11466,364.0 292.17466,364.0 291.16667,364.0 C 290.41069,364.0 289.48701,363.85794 288.60002000000003,364.01068 C 287.76686,364.15414 287.01262,364.91497999999996 286.20003,364.99866 C 285.30474000000004,365.09087999999997 284.32805,364.67190999999997 283.52086,365.02085 C 282.80687,365.3295 282.28377,365.88315 281.36403,366.03602 C 280.49208,366.18095 279.79674,366.56724 278.88536,367.19868 C 278.28432,367.61509 277.40001,367.98933000000005 276.50001,368.00001000000003 C 275.60002,368.01069 274.78047,368.26347000000004 274.20002,368.80134000000004 C 273.47459,369.47358 272.77049,370.01173000000006 272.35719,370.75718000000006 C 271.8972,371.58689000000004 272.03273,372.40510000000006 271.99867,373.3973500000001 C 271.96812,374.2869100000001 271.50001000000003,374.97917000000007 271.01069,375.6106700000001 L 271.00001000000003,376.5000100000001" fill="none" id="svg_13" stroke="#000" stroke-width="2"/>
</svg>
