<?xml version="1.0" ?>
<svg baseProfile="full" height="480" version="1.1" width="640" xmlns="http://www.w3.org/2000/svg" xmlns:ev="http://www.w3.org/2001/xml-events" xmlns:xlink="http://www.w3.org/1999/xlink">
	<defs/>
	<path d="M 209.0,176.0 C 210.0,175.0 210.71782,174.77722 211.16667,174.0 C 211.52563,173.37842 212.49985,173.01268 213.39999,173.0 C 214.29542,172.9874 214.80685,172.32947 215.52082000000001,172.02083 C 216.32804000000002,171.67188 217.29999,172.0 218.19999,172.0 C 219.10000000000002,172.0 220.00001,172.00378 220.75716000000003,172.0 C 221.82537000000002,171.99466 222.54154000000003,171.96957 223.47916000000004,171.5 C 224.22272000000004,171.12762 225.10126000000002,171.04779 225.99999000000003,171.0 C 226.80340000000004,170.95728 227.59754000000004,170.30649 228.48398000000003,170.08533 C 229.15802000000002,169.91716 230.24281000000002,170.0 231.09999000000002,170.0 C 231.99998000000002,170.0 232.75716000000003,170.0 233.82532000000003,170.0 C 234.51599000000004,170.0 235.47916000000004,170.0 236.39998000000003,170.0 C 237.29999000000004,170.0 238.19998000000004,170.0 239.09999000000002,170.0 C 239.99998000000002,170.0 240.79999,170.0 241.69998,170.0 C 242.59999000000002,170.0 243.49998000000002,169.99991 244.41064,170.0 C 245.32115,170.00009 246.19229,169.94106 246.93864,170.42534 C 247.6746,170.90289 248.41735,171.08948 249.02531,171.57466 C 249.64981,172.07304 250.6,171.99466999999999 251.49998,172.0 C 252.40001999999998,172.00534 253.14356999999998,172.39305 253.88531,172.716 C 254.77665000000002,173.10409 255.83335,172.99115 256.5893,173.0 C 257.47931,173.01042 258.04776999999996,173.65532 258.70446999999996,174.05267 C 259.4942,174.53050000000002 260.12359999999995,175.30384 260.79995999999994,175.71466 C 261.57607999999993,176.18608 262.20754999999997,176.74519 262.99996999999996,177.16667 C 263.64055999999994,177.50740000000002 264.70440999999994,177.86767 264.98929,178.61067 C 265.30042,179.42215 265.7926,179.99389 265.99548999999996,180.7045 C 266.25363999999996,181.60873999999998 266.87143999999995,182.15994 266.99997999999994,183.0 C 267.12164999999993,183.79529 267.54178999999993,184.4803 268.19864999999993,185.2 C 268.7321299999999,185.78452 269.33005999999995,186.45075 269.83331999999996,187.16666999999998 C 270.32203,187.86191999999997 270.12426999999997,188.77742999999998 270.57464999999996,189.6 C 271.00192999999996,190.38038 270.99990999999994,191.29999999999998 270.99996999999996,192.19998999999999 C 271.00005999999996,193.1 271.21166999999997,193.97171999999998 271.57464999999996,194.6 C 272.06320999999997,195.44566 272.75939999999997,195.94119 272.99548999999996,196.70449 C 273.26037999999994,197.56089 273.43444999999997,198.39443 273.91596,199.19866 C 274.36118,199.94227999999998 275.04767,200.36026999999999 275.57464999999996,201.02532 C 276.07086999999996,201.65153999999998 276.14529999999996,202.44593 276.71597999999994,203.08399 C 277.29889999999995,203.73575 278.15439999999995,203.67679 278.87863999999996,204.22132 C 279.52149,204.70463999999998 279.80871999999994,205.66619 280.52081999999996,205.97915999999998 C 281.32617999999997,206.33311999999998 282.2512,206.43284999999997 282.99997999999994,206.83332 C 283.79144999999994,207.25661 284.28928999999994,207.88281999999998 285.09998999999993,208.00016 C 286.00580999999994,208.13128 286.65259999999995,208.80017999999998 287.49997999999994,208.97916 C 288.38077999999996,209.16521 289.35660999999993,208.86342000000002 290.19998999999996,209.28398 C 290.86161,209.61391 291.72684999999996,209.81401000000002 292.59997999999996,210.03598000000002 C 293.46225,210.25519000000003 294.25265999999993,210.78671000000003 294.99996999999996,211.16666000000004 C 295.66533999999996,211.50495000000004 296.21182,212.44126000000003 297.09997999999996,212.87865000000002 C 297.7544,213.20093000000003 298.60290999999995,213.67231 299.48398,213.91599000000002 C 300.15792999999996,214.10239 301.03686999999996,214.43575 301.99996999999996,214.83332000000001 C 302.66414999999995,215.10751000000002 303.60000999999994,214.99467 304.49996999999996,214.99999000000003 C 305.40002,215.00533000000001 306.21878,215.50048000000004 306.99996999999996,215.83332000000001 C 307.75149999999996,216.15351 308.81533999999994,215.60168000000002 309.64278999999993,216.05715 C 310.3420699999999,216.44207 310.6732799999999,217.37499 311.5172999999999,217.71465 C 312.33611999999994,218.04416 313.3064799999999,217.89304 314.1999799999999,218.00132 C 315.1198999999999,218.1128 315.73693999999995,218.71578 316.6481299999999,218.94732 C 317.41799999999995,219.14294999999998 317.8777399999999,219.83883 318.5208099999999,220.47916999999998 C 319.1621999999999,221.11782999999997 319.86959999999993,221.53286999999997 320.44280999999995,222.1 C 321.07912999999996,222.72958 321.93691999999993,223.16029 322.58928999999995,223.56399 C 323.37825999999995,224.05223999999998 324.3419099999999,224.13893 325.25064,224.43599999999998 C 326.00244,224.68176999999997 326.89977999999996,225.04323999999997 327.57863999999995,225.59999999999997 C 328.24648999999994,226.14773999999997 328.79991999999993,226.80003999999997 329.49996999999996,227.49998999999997 C 330.09995,228.09986999999998 330.65288999999996,228.80749999999998 331.59997999999996,228.98931999999996 C 332.48389,229.15900999999997 333.43478999999996,228.75710999999995 334.29547999999994,229.00448999999998 C 335.06335999999993,229.22520999999998 335.6261099999999,229.82838999999998 336.29547999999994,230.35714999999996 C 337.03644999999995,230.94247999999996 337.22446999999994,231.85860999999997 338.09997999999996,232.00015999999997 C 339.00350999999995,232.14622999999997 339.68130999999994,232.43670999999998 340.47912999999994,232.99998999999997 C 341.14739999999995,233.47178999999997 341.9872199999999,233.68305999999995 342.75729999999993,234.22148999999996 C 343.33960999999994,234.62863999999996 343.82537999999994,235.47835999999995 344.83331999999996,235.83331999999996 C 345.56900999999993,236.09239999999997 346.35853,236.54185999999996 347.16662999999994,236.83331999999996 C 347.96606999999995,237.12164999999996 348.96359999999993,237.24835999999996 349.5892999999999,237.57464999999996 C 350.48049999999995,238.03939999999997 351.3499499999999,238.31822999999997 351.79995999999994,238.88665999999995 C 352.36773999999997,239.60384999999994 352.63784999999996,240.39222999999996 353.29995999999994,241.24281999999994 C 353.75918999999993,241.83278999999993 354.47454999999997,242.52641999999994 355.1999799999999,243.19865999999993 C 355.78041999999994,243.73652999999993 356.64778999999993,243.98925999999994 357.4852899999999,244.28398999999993 C 358.22237999999993,244.54338999999993 359.2155499999999,244.80350999999993 359.9583099999999,244.99998999999994 C 360.9296499999999,245.25694999999993 361.6625599999999,245.88810999999993 362.2759699999999,245.97465999999994 C 363.1461799999999,246.09744999999995 363.9768399999999,246.67399999999995 364.56929999999994,247.20132999999996 C 365.1324399999999,247.70256999999995 366.0049399999999,248.30255999999994 366.47911999999997,248.99998999999997 C 367.03164,249.81265999999997 367.48299999999995,250.53125999999997 368.32127999999994,251.09999999999997 C 368.97319999999996,251.54228999999998 369.80622999999997,252.03879999999995 370.47911999999997,252.47916999999995 C 371.26653,252.99450999999996 371.87881,253.52367999999996 372.4428,254.10016999999996 C 373.08311999999995,254.75467999999995 373.85078999999996,255.15268999999995 374.37462,255.82532999999995 C 374.9019,256.50237999999996 375.70174,257.17504999999994 376.29012,257.69548999999995 C 377.01326,258.33510999999993 377.18578,259.33818999999994 377.5208,259.99998999999997 C 377.95497,260.85763 378.48299000000003,261.53123999999997 379.32128,262.09999999999997 C 379.9732,262.54229 380.86162,262.96538999999996 381.47912,263.49998999999997 C 382.13204,264.06526999999994 382.62921,264.64277999999996 383.3218,265.32149 C 383.8522,265.84123 384.49902,266.43251 385.33331,266.99998999999997 C 385.95268999999996,267.42128999999994 386.6604,267.76725999999996 387.63748,268.39997999999997 C 388.51937999999996,268.97108999999995 389.11539,269.6158 389.63998,270.16398999999996 C 390.30627,270.86024999999995 391.00960999999995,271.24769999999995 391.7853,271.62531999999993 C 392.31716,271.88422999999995 393.31576,272.47944999999993 393.9583,272.9791399999999 C 394.83672,273.6622799999999 395.63896,273.9744399999999 396.48397,274.28397999999993 C 397.18755,274.5417299999999 398.11462,274.9159699999999 398.99996,275.1666399999999 L 399.64277999999996,275.70447999999993" fill="none" id="svg_1" stroke="#000" stroke-width="2"/>
	<path d="M 210.0,176.0 C 208.17467,176.0 207.16667,176.0 206.37466,176.0 C 205.34733,176.0 204.65266,176.0 203.636,176.0 C 202.7,176.0 201.79999999999998,176.0 200.89999,176.0 C 200.0,176.0 199.19999,176.0 198.3,176.0 C 197.39999,176.0 196.5,176.0 195.58934000000002,176.0 C 194.67866,176.0 194.00000000000003,176.0 192.88533,176.0 C 192.0,176.0 191.20000000000002,176.0 190.3,176.0 C 189.39999,176.0 188.5,176.0 187.60000000000002,176.0 C 186.69999,176.0 185.62480000000002,175.8187 185.62133000000003,176.0 C 185.60332000000002,176.94318 186.99429000000003,176.8181 187.80132000000003,176.99867 C 188.67830000000004,177.19490000000002 189.67856000000003,176.65693000000002 190.47916000000004,177.02083000000002 C 191.25240000000002,177.37229000000002 191.42914000000005,178.36963000000003 192.22148000000004,178.87850000000003 C 192.96773000000005,179.35776000000004 194.11009000000004,179.05462000000003 194.56398000000004,179.61068000000003 C 195.17848000000004,180.36352000000002 195.44934000000003,181.13836000000003 196.08398000000005,181.71601000000004 C 196.73063000000005,182.30460000000005 196.61605000000006,183.20446000000004 197.22148000000004,183.87867000000003 C 197.77608000000004,184.49627000000004 198.65436000000005,184.79198000000002 199.49998000000005,184.97918000000004 C 200.45687000000004,185.19100000000003 200.94140000000004,185.75871000000004 201.70448000000005,185.99551000000005 C 202.52627000000004,186.25053000000005 202.99772000000004,186.70449000000005 202.99998000000005,187.60002000000006 C 203.00224000000006,188.50001000000006 202.73216000000005,189.44241000000005 203.00448000000006,190.29552000000007 C 203.26640000000006,191.11603000000008 203.67095000000006,191.68364000000005 204.02081000000007,192.47919000000007 C 204.33394000000007,193.19121000000007 204.98102000000006,193.7047000000001 204.99998000000008,194.6000200000001 C 205.02041000000008,195.56447000000009 205.81808000000007,195.9943100000001 205.99865000000008,196.8013400000001 C 206.1948800000001,197.6783200000001 205.6718500000001,198.6719600000001 206.0208100000001,199.4791800000001 C 206.3294500000001,200.1931500000001 207.3696900000001,200.4291200000001 207.8784800000001,201.2215000000001 C 208.35765000000012,201.96778000000012 207.9999900000001,203.0000000000001 207.9999900000001,203.8000100000001 C 207.9999900000001,204.7000000000001 208.2002000000001,205.4007900000001 208.71599000000012,206.0840100000001 C 209.18054000000012,206.6993500000001 208.98319000000012,207.7001600000001 208.9999900000001,208.6000200000001 C 209.01800000000011,209.5645100000001 209.8180900000001,209.9943100000001 209.99866000000011,210.8013400000001 C 210.19489000000013,211.6783200000001 209.83177000000012,212.6198500000001 210.02082000000013,213.5000100000001 C 210.20219000000012,214.3444300000001 211.36581000000012,214.5425400000001 211.87849000000014,215.22151000000008 C 212.41291000000015,215.9292700000001 211.83183000000014,217.0364500000001 212.08532000000014,217.80002000000007 C 212.34167000000014,218.57219000000006 212.84769000000014,219.51714000000007 213.43600000000015,219.97469000000007 C 214.17861000000016,220.55224000000007 214.52165000000014,221.22071000000005 215.22149000000016,221.87868000000006 C 215.82626000000016,222.44725000000005 216.65730000000016,222.55733000000006 217.29550000000015,223.30002000000005 C 217.94072000000014,224.05087000000006 218.00934000000015,224.85451000000003 218.61067000000014,225.60002000000006 C 219.13809000000015,226.25389000000007 219.61365000000015,227.12108000000006 220.08400000000015,227.71467000000007 C 220.66933000000014,228.45336000000006 220.88918000000015,229.17715000000007 221.02083000000013,229.97918000000007 C 221.16519000000014,230.85865000000007 221.84726000000012,231.40441000000007 222.28400000000013,232.20001000000008 C 222.63977000000014,232.84813000000008 222.95847000000015,233.63695000000007 223.00450000000012,234.6526800000001 C 223.03604000000013,235.3486300000001 223.45936000000012,236.1859000000001 223.8786600000001,237.1000200000001 C 224.2726300000001,237.9589400000001 224.7469500000001,238.5371800000001 224.9640000000001,239.4000100000001 C 225.18376000000012,240.2735100000001 224.85020000000011,241.2126000000001 225.0001600000001,242.0998500000001 C 225.1441600000001,242.9518700000001 225.8937500000001,243.47401000000008 226.2839900000001,244.20001000000008 C 226.7434600000001,245.05479000000008 227.0517100000001,245.70054000000007 227.4999900000001,246.5000100000001 C 227.9463600000001,247.2960500000001 228.5956000000001,247.8885400000001 228.9473200000001,248.7053500000001 C 229.2397500000001,249.3844700000001 229.85638000000012,250.0505300000001 229.9999900000001,251.0000100000001 C 230.11963000000011,251.79101000000009 230.3144700000001,252.38717000000008 230.8333200000001,253.1666800000001 C 231.3041900000001,253.8741400000001 230.6070000000001,254.9304000000001 231.0853200000001,255.7146700000001 C 231.57549000000012,256.5184100000001 232.12475000000012,257.0343100000001 232.7044900000001,257.7000200000001 C 233.2575800000001,258.33512000000013 233.7774000000001,259.1380700000001 234.0839900000001,259.8000000000001 C 234.4865600000001,260.6691100000001 235.40092000000013,261.0749000000001 235.8333200000001,262.00001000000015 C 236.1792200000001,262.74006000000014 235.9975800000001,263.61988000000014 236.4253300000001,264.40000000000015 C 236.8765500000001,265.2229100000001 237.1930600000001,266.12406000000016 237.70449000000008,266.70002000000017 C 238.35470000000007,267.4322900000002 238.89107000000007,268.09840000000014 238.99999000000008,269.00001000000015 C 239.09649000000007,269.7987200000002 239.5767600000001,270.49101000000013 239.91866000000007,271.48402000000016 C 240.15090000000006,272.15855000000016 240.64232000000007,273.01622000000015 241.28666000000007,273.36402000000015 C 241.97817000000006,273.73731000000015 243.11227000000008,274.12015000000014 243.57867000000007,274.67200000000014 C 244.23365000000007,275.44696000000016 244.29069000000007,276.29657000000014 244.80000000000007,277.14667000000014 C 245.30034000000006,277.98178000000013 246.06357000000006,278.46991000000014 246.60000000000008,279.14933000000013 C 247.16204000000008,279.86118000000016 247.80711000000008,280.3349700000001 248.22149000000007,281.10017000000016 C 248.60980000000006,281.81724000000014 249.24725000000007,282.46043000000014 249.56399000000008,283.1746600000002 C 250.02468000000007,284.2134800000002 250.34004000000007,284.9911900000002 250.99999000000008,285.5000100000002 C 251.7652500000001,286.0900400000002 252.04867000000007,286.7966400000002 252.5693300000001,287.4840200000002 C 253.1281100000001,288.22172000000023 253.8696700000001,288.7999700000002 254.4791700000001,289.5000100000002 C 255.0347000000001,290.1380400000002 255.3785200000001,291.0866500000002 256.0000000000001,291.6666700000002 C 256.60394000000014,292.2303300000002 257.2897900000001,292.71632000000017 257.70001000000013,293.3518500000002 C 258.28119000000015,294.2522400000002 258.58475000000016,295.15004000000016 259.1666500000001,295.8333600000002 C 259.79675000000015,296.5732600000002 260.22646000000015,297.0128300000002 260.99999000000014,297.6666700000002 C 261.6475100000001,298.21400000000017 262.6727500000001,298.31962000000016 263.34731000000016,298.7045100000002 C 264.14068000000015,299.1572100000002 264.7989400000002,299.7997200000002 265.39998000000014,300.4000100000002 C 266.10033000000016,301.0995000000002 266.69878000000017,301.6455500000002 267.49999000000014,302.0000200000002 C 268.30330000000015,302.3554000000002 269.19924000000015,302.7257900000002 269.9791500000001,303.0208600000002 C 270.8071500000001,303.3341500000002 270.94015000000013,304.3636600000002 271.85333000000014,304.8306700000002 C 272.46216000000015,305.1420100000002 273.27932000000015,304.9605800000002 274.32800000000015,305.42534000000023 C 275.14648000000017,305.78807000000023 275.9685000000001,306.21733000000023 276.60000000000014,306.57469000000026 C 277.48278000000016,307.0742300000003 278.3403000000001,307.18172000000027 278.99999000000014,307.52086000000025 C 280.01116000000013,308.04070000000024 280.5703300000001,308.6038400000003 281.39998000000014,308.97469000000024 C 282.1839200000001,309.32512000000025 282.7889900000001,309.89406000000025 283.30449000000016,310.64818000000025 C 283.7477900000002,311.29668000000026 284.66213000000016,311.8532300000003 285.34731000000016,312.04817000000025 C 286.26259000000016,312.30858000000023 286.87105000000014,312.82188000000025 287.65267000000017,313.30000000000024 C 288.33648000000017,313.71827000000025 289.25667000000016,314.28529000000026 289.9999900000002,315.00001000000026 C 290.5096900000002,315.4901200000003 291.1333500000002,316.30064000000027 291.75716000000017,316.64283000000023 C 292.5826900000002,317.09568000000024 293.54589000000016,317.30842000000024 294.16799000000015,317.7160100000002 C 294.9033400000001,318.1977900000002 295.77050000000014,318.4231300000002 296.22149000000013,319.0998300000002 C 296.6901800000001,319.80308000000025 297.7977500000001,319.63477000000023 298.5639900000001,320.03602000000024 C 299.3223500000001,320.43315000000024 299.8852800000001,320.7178100000002 300.7000100000001,321.1143300000002 C 301.45727000000005,321.48286000000024 301.67593000000005,322.6617500000002 302.50000000000006,322.9583500000002 C 303.34772000000004,323.26346000000024 304.29999000000004,323.0000100000002 305.2000100000001,323.0000100000002 C 306.1000000000001,323.0000100000002 307.00085000000007,322.9628100000002 307.7999900000001,323.0000100000002 C 308.7176500000001,323.0427300000002 309.2152400000001,323.9391300000002 310.1000100000001,324.0000100000002 C 310.9978700000001,324.0618100000002 311.7999900000001,324.0000100000002 312.6359900000001,324.0000100000002 C 313.6526800000001,324.0000100000002 314.3473200000001,324.0000100000002 315.3640200000001,324.0000100000002 C 316.2999900000001,324.0000100000002 317.2000200000001,324.0000100000002 318.1000100000001,324.0000100000002 C 319.0000000000001,324.0000100000002 319.83442000000014,323.8040600000002 320.7000200000001,324.0571700000002 C 321.5776400000001,324.3138200000002 322.2986200000001,324.9714200000002 323.2000200000001,325.0000100000002 C 324.0995600000001,325.0285400000002 325.0000100000001,325.0000100000002 325.8000000000001,325.0000100000002 C 326.7000200000001,325.0000100000002 327.60002000000014,325.0000100000002 328.50001000000015,325.0000100000002 C 329.40000000000015,325.0000100000002 330.3000000000001,325.0000100000002 331.20002000000017,325.0000100000002 C 332.10001000000017,325.0000100000002 333.00001000000015,325.0000100000002 333.8000000000002,325.0000100000002 C 334.70002000000017,325.0000100000002 335.6000200000002,325.0000100000002 336.5000100000002,325.0000100000002 C 337.4000000000002,325.0000100000002 338.3000000000002,325.0000100000002 339.2000200000002,325.0000100000002 C 340.1000100000002,325.0000100000002 341.0000100000002,325.0000100000002 341.80000000000024,325.0000100000002 C 342.7000200000002,325.0000100000002 343.60002000000026,325.0000100000002 344.50001000000026,325.0000100000002 C 345.40000000000026,325.0000100000002 346.30000000000024,325.0000100000002 347.2000200000003,325.0000100000002 C 348.1000100000003,325.0000100000002 349.00001000000026,325.0000100000002 349.8000000000003,325.0000100000002 C 350.7000200000003,325.0000100000002 351.6196400000003,325.0019600000002 352.4000100000003,324.5746900000002 C 353.2226100000003,324.1243100000002 354.0382500000003,324.1735700000002 354.8000000000003,323.9146900000002 C 355.6879400000003,323.6129300000002 356.4323200000003,323.23427000000015 357.3000000000003,322.9910100000002 C 358.1762200000003,322.74534000000017 358.2628600000003,321.7179700000002 359.2000200000003,321.1706700000002 C 359.9910400000003,320.7086900000002 361.0277200000003,321.1460700000002 361.7000200000003,320.9428600000002 C 362.5752900000003,320.6783000000002 363.3085400000003,320.1356100000002 364.2000200000003,319.9986800000002 C 365.11582000000027,319.8580200000002 365.70115000000027,319.2966500000002 366.40000000000026,318.60003000000023 C 367.00098000000025,318.0010000000002 367.5848800000003,317.4050800000002 368.40000000000026,317.02535000000023 C 369.28486000000026,316.61315000000025 370.0369000000003,316.2631100000002 370.79999000000026,315.91601000000026 C 371.6542700000003,315.52743000000027 372.4565500000003,315.10070000000024 373.16666000000026,314.66668000000027 C 373.88132000000024,314.22988000000026 374.5159900000003,313.5680200000003 375.24735000000027,313.10986000000025 L 376.16666000000026,312.83337000000023 L 377.0000000000003,312.5000300000002" fill="none" id="svg_2" stroke="#000" stroke-width="2"/>
	<path d="M 272.0,220.0 C 272.0,222.58934 272.0,223.52083 272.0,224.32133 C 272.0,225.17466 272.0,226.11466 272.0,227.10017 C 272.0,227.88532999999998 272.0,228.82532999999998 272.0,229.83332 C 272.0,230.58933 271.92743,231.50369999999998 272.01068,232.42132999999998 C 272.0943,233.34277999999998 272.36093,234.00292 272.57468,234.74931999999998 C 272.8909,235.85354999999998 273.05844,236.68802999999997 273.42533,237.41064999999998 C 273.88593,238.31784999999996 273.92215999999996,239.0373 274.16666,239.99998999999997 C 274.37194999999997,240.80834999999996 274.80938999999995,241.50912999999997 275.38935,242.36398999999997 C 275.88563,243.09549999999996 276.01770999999997,243.91334999999998 276.44665999999995,244.83598999999998 C 276.72067999999996,245.42534999999998 277.32141999999993,246.19960999999998 277.97916,246.97915999999998 C 278.43084999999996,247.51449999999997 278.87375,248.39652999999998 279.22168,249.32148999999998 C 279.49243,250.04130999999998 279.86856,250.61514999999997 280.48267,251.39997999999997 C 281.12021,252.21476999999996 281.68692,252.99302999999998 281.94934,253.78931999999998 C 282.18646,254.50882 282.75281,255.20592999999997 283.35184,255.80980999999997 C 284.03089,256.49436999999995 284.35123,257.25647999999995 284.6955,257.99463999999995 C 285.18206999999995,259.03784999999993 285.69775999999996,259.69321999999994 286.30451,260.30447999999996 C 286.88321,260.88746 287.48401,261.48398 288.17466,262.17463 C 288.83335,262.83331999999996 289.37467000000004,263.37464 290.16666000000004,264.16663 C 290.65268000000003,264.65265 291.18613000000005,265.1633 291.97849,265.97864 C 292.59845,266.61658 293.06531,267.34418 293.52085,267.99996999999996 C 294.12229,268.86587999999995 294.90797,269.27926999999994 295.43067,269.88397 C 296.0153,270.5603 296.10535000000004,271.52716 296.86133,271.94930999999997 C 297.77384,272.45883 298.35346,272.86841 298.79868,273.5173 C 299.3862,274.37359 300.06739,275.13757 300.63599,275.59997 C 301.44135,276.25491 302.15619,276.61593 302.97848999999997,276.87863 C 303.78387999999995,277.13592 304.50064999999995,277.54983 305.32131999999996,278.10013 C 305.98452999999995,278.54483 306.87255999999996,279.13687 307.36400999999995,279.82532 C 307.83813,280.48949999999996 308.25505999999996,281.29956 308.8853399999999,281.79864999999995 C 309.6068699999999,282.36996999999997 310.4072799999999,282.69451999999995 311.39867999999996,283.19998999999996 C 311.98079999999993,283.49676999999997 312.78768999999994,284.06701999999996 313.58931999999993,284.56397 C 314.36168999999995,285.04278999999997 315.21547999999996,285.26783 315.79997999999995,285.80131 C 316.51967999999994,286.4582 317.30348999999995,286.96058 318.16664999999995,286.99998 C 318.99938,287.03797 319.99058999999994,287.20231 320.62532999999996,287.61064 C 321.50124999999997,288.17409 322.19167999999996,288.57358999999997 322.97866,289.09981 C 323.64037,289.54224999999997 324.48127999999997,289.95287 325.34731,289.9955 C 326.24174999999997,290.03954 327.37536,289.73494 327.91597,290.28533 C 328.52559,290.90596999999997 328.73094000000003,291.75813999999997 329.65715,291.94283 C 330.39189,292.08934 331.44655,291.76027 332.28566,292.05715000000004 C 333.12849,292.35534 333.65840000000003,292.99105000000003 334.65715,293.35265000000004 C 335.21788,293.55565 336.19539,293.92836000000005 337.16399,293.98931000000005 C 338.11415,294.04909000000004 338.88399000000004,293.99999 339.83599000000004,293.99999 C 340.60131,293.99999 341.59548000000007,293.99999 342.34283000000005,293.99999 C 343.36401000000006,293.99999 344.29998000000006,293.99993 345.2000100000001,293.99999 C 346.1001600000001,294.00008 346.89416000000006,294.06124 347.6526800000001,294.35265000000004 C 348.5270400000001,294.68856000000005 349.3635000000001,294.98198 350.2999900000001,294.99999 C 351.1998600000001,295.01729 352.1000100000001,294.99999 353.0000000000001,294.99999 C 353.7999900000001,294.99999 354.70001000000013,294.99999 355.6000100000001,294.99999 C 356.5208500000001,294.99999 357.4853200000001,294.99999 358.2106700000001,294.99999 C 359.1998400000001,294.99999 359.9791600000001,294.99999 360.9784900000001,294.99999 C 361.7986800000001,294.99999 362.70002000000005,294.99999 363.60001000000005,294.99999 C 364.52085000000005,294.99999 365.48401000000007,294.99999 366.1746600000001,294.99999 C 367.2473500000001,294.99999 368.1666600000001,294.99999 369.0000100000001,294.99999 C 369.8333500000001,294.99999 370.69551000000007,294.99999 371.6000200000001,294.99999 C 372.5000100000001,294.99999 373.40001000000007,295.00066000000004 374.30000000000007,294.99999 C 375.1986800000001,294.99932 375.82481000000007,294.5133 376.5208600000001,293.99999 C 377.20918000000006,293.49239 378.0933700000001,293.06228000000004 378.8853600000001,293.00133000000005 C 379.6549200000001,292.9421300000001 380.6019400000001,293.03057000000007 381.6000200000001,292.99550000000005 C 382.4012600000001,292.96736000000004 383.3993400000001,292.7177300000001 383.97917000000007,292.49999 C 384.97963000000004,292.12432 385.77479000000005,291.87459 386.6000200000001,291.42531 C 387.3898500000001,290.99529 388.3216700000001,290.99999 389.04167000000007,290.99999 L 390.16667000000007,290.99999 L 390.95268000000004,290.99999 L 391.77467000000007,290.99999" fill="none" id="svg_3" stroke="#000" stroke-width="2"/>
	<path d="M 292.0,231.0 C 292.0,234.33867 292.0,235.32150000000001 292.0,236.21066 C 292.0,237.19998999999999 292.0,238.0 292.0,239.0 C 292.0,239.8 292.0,240.60001 292.0,241.5955 C 292.0,242.34283 291.90927,243.40419999999997 292.284,244.20132999999998 C 292.62815,244.93347999999997 292.84198,245.67607999999998 293.08402,246.516 C 293.33939000000004,247.40222 294.16254000000004,248.00686 294.82535,248.39999 C 295.51181,248.80716 296.34262,249.4248 297.20001,249.91732 C 297.98187,250.36646 298.38659,251.10258 299.0,251.66665999999998 C 299.60806,252.22584999999998 300.27704,252.72450999999998 300.79999,253.51731999999998 C 301.28797,254.25710999999998 301.95419999999996,254.83327999999997 302.76935,255.19997999999998 C 303.5073,255.53195 304.32608,255.77882 305.31467,256.2 C 305.98542,256.48577 307.00705,256.98647 307.60001,257.30449 C 308.41004,257.73894 309.20438,258.31615 309.79999,258.82533 C 310.40448,259.34211 311.19399999999996,259.98765000000003 311.97916,260.47914000000003 C 312.82718,261.00996000000004 313.48969,261.55458000000004 314.33335,261.99998000000005 C 314.98413999999997,262.34358000000003 315.78239,262.53144000000003 316.66666,262.99998000000005 C 317.49404999999996,263.4383700000001 318.06748,264.13749000000007 318.63599,264.59999000000005 C 319.44266,265.25624000000005 320.20959999999997,265.60213000000005 321.0,265.99998000000005 C 321.79892,266.40214000000003 322.59079,266.81907000000007 323.40268,267.19865000000004 C 324.03484999999995,267.49418000000003 324.76342999999997,267.76384 325.96932999999996,267.91597 C 326.65835999999996,268.00291000000004 327.39147999999994,267.9724 328.83333999999996,268.16664000000003 C 329.51851999999997,268.25896 330.1593,268.44603 331.09549,268.64732000000004 C 332.29474,268.90516 332.90384,268.95936000000006 333.83599999999996,268.9893 C 334.48504999999994,269.01014000000004 335.52117999999996,268.99998 336.61465999999996,268.99998 C 337.33865999999995,268.99998 338.03067999999996,268.99998 339.23065999999994,268.99998 C 339.9791599999999,268.99998 341.1666599999999,268.99998 341.96167999999994,268.99998 C 342.54166999999995,268.99998 343.48666999999995,268.99998 344.52100999999993,268.99998 C 345.24366999999995,268.99998 346.3026899999999,268.99998 346.94535999999994,268.99998 C 348.1375299999999,268.99998 348.9666899999999,268.99998 349.7693699999999,268.99998 C 350.7853599999999,268.99998 351.83336999999995,268.99998 352.54286999999994,268.99998 L 353.39552999999995,268.99998" fill="none" id="svg_4" stroke="#000" stroke-width="2"/>
	<path d="M 401.0,278.0 C 402.70001,279.05267 403.56375,279.47592 403.94733,280.29999 C 404.30414,281.06653 404.82386,281.65997999999996 405.70002,282.05267999999995 C 406.43229,282.38086999999996 407.31635,282.92135999999994 408.00001,282.97916 C 408.97508,283.06158999999997 410.06181,283.21533999999997 409.99985999999996,284.09983 C 409.94327999999996,284.90757 408.82456999999994,285.14579 408.16400999999996,285.43601 C 407.38760999999994,285.77714000000003 406.61731999999995,286.23423 405.83601,286.564 C 404.90247999999997,286.95801 403.88514,286.91172 403.11467,287.08533 C 402.32198,287.26395 401.47612,287.69138 400.63599999999997,287.97467 C 399.79132999999996,288.25949 399.01261999999997,288.91498 398.20002999999997,288.99866000000003 C 397.30474,289.09088 396.40000999999995,289.00000000000006 395.50001999999995,289.00000000000006 L 394.60002999999995,289.00000000000006" fill="none" id="svg_5" stroke="#000" stroke-width="2"/>
	<path d="M 410.0,289.0 C 411.70001,289.05716 412.49701,289.5553 413.3215,290.10016 C 414.00238,290.55011 414.62735000000004,290.85217 415.39999,291.48532 C 416.02206,291.99506 416.59408,292.6073 417.39999,293.39868 C 417.99566,293.98361 418.57168,294.55441 419.39999,295.11465000000004 C 419.9815,295.50799000000006 421.00479,295.99066000000005 421.81067,296.41067000000004 C 422.46112,296.74969000000004 423.42267000000004,297.31915000000004 423.95267,297.65267000000006 C 424.77677,298.17129000000006 425.31095,298.52450000000005 426.31467000000004,299.11599000000007 C 426.97586,299.5056400000001 427.62268000000006,299.8536900000001 428.60001000000005,300.65267000000006 C 429.21573000000006,301.15603000000004 429.97495000000004,301.8731900000001 430.60001000000005,302.2383300000001 C 431.37232000000006,302.6894700000001 432.19605000000007,302.92122000000006 433.02085000000005,302.9791400000001 C 434.16404000000006,303.0594300000001 434.96094000000005,302.9698600000001 435.81068000000005,303.0719700000001 C 436.40525,303.1434100000001 437.60960000000006,303.5460900000001 438.1786900000001,303.86131000000006 C 439.0048000000001,304.3188600000001 439.8007600000001,305.0685900000001 440.52085000000005,305.45833000000005 C 441.44297000000006,305.95741000000004 442.0529900000001,305.92040000000003 443.02085000000005,305.99999 C 443.69892000000004,306.05575000000005 444.97199000000006,306.17534 445.7493400000001,306.44665000000003 C 446.5226200000001,306.71652000000006 447.3326200000001,307.16812000000004 447.9693400000001,307.48400000000004 C 448.6605600000001,307.82693000000006 449.3810800000001,308.18398 450.1173500000001,308.51598 C 451.1725300000001,308.99178 452.1563200000001,309.3792 452.7893500000001,309.55333 C 453.98747000000014,309.88289000000003 454.60283000000015,309.89528 455.50001000000015,310.02083 C 456.40336000000013,310.14723 457.3155600000001,310.41179 458.21067000000016,310.872 C 458.84769000000017,311.19951000000003 459.47736000000015,311.61669 460.5213400000002,312.19982 C 461.24726000000015,312.60531 461.9948800000002,312.98989 462.74735000000015,313.34283 C 463.8262100000002,313.84884 464.5155100000002,314.11392 465.16401000000013,314.37466 C 466.09669000000014,314.74966 467.01032000000015,315.14804 467.6000100000001,315.48666000000003 C 468.5169400000001,316.01321 469.1155400000001,316.44229 470.0000000000001,317.16665 C 470.6123700000001,317.66815 471.1924400000001,318.22775 471.8360000000001,318.70266 C 472.4683200000001,319.16929999999996 473.5136400000001,319.66897 474.26618000000013,319.83749 C 475.05546000000015,320.01425 475.92493000000013,320.06631 477.3333500000001,320.33334 C 477.8450400000001,320.43036 478.36997000000014,320.55752 479.4400100000001,320.86132000000003 C 479.9809000000001,321.01488000000006 481.0380300000001,321.35024000000004 481.54667000000006,321.51733 C 482.93726000000004,321.97415 483.73548000000005,322.24923 484.47917000000007,322.47915 C 485.19896000000006,322.70168 486.33278000000007,323.0024 487.16936000000004,323.20132 C 488.06075000000004,323.41326000000004 488.52571000000006,323.50247 489.45186000000007,323.75717000000003 C 490.8412000000001,324.13925 491.7172100000001,324.48099 492.14736000000005,324.65268000000003 C 493.00243000000006,324.99399000000005 493.84942000000007,325.35593000000006 494.28402000000006,325.51599000000004 C 495.61190000000005,326.00500000000005 496.55163000000005,326.24707000000006 497.02535000000006,326.36401000000006 C 497.97262000000006,326.5978400000001 498.9165500000001,326.79623000000004 499.8333600000001,327.00000000000006 C 500.71654000000007,327.19632000000007 501.5722500000001,327.40161000000006 502.42534000000006,327.5640000000001 C 503.28175000000005,327.7270200000001 504.16564000000005,327.8457700000001 505.08269000000007,327.9159900000001 C 506.0138100000001,327.98728000000006 506.93910000000005,328.0189000000001 507.3901900000001,328.05268000000007 C 508.6681700000001,328.14841000000007 509.7866700000001,328.3482400000001 510.45837000000006,328.5000100000001 C 511.09198000000004,328.6431700000001 512.2990400000001,328.8885900000001 513.2000400000001,328.9746800000001 C 513.7994100000001,329.0319600000001 515.0030800000001,329.1522900000001 515.9045100000001,329.3526700000001 C 516.5231000000001,329.4901800000001 517.14957,329.6982200000001 518.5213900000001,329.8786700000001 C 519.2496600000001,329.97446000000014 520.0010700000001,329.9872200000001 520.7473400000001,330.0526800000001 C 521.8351100000001,330.1480800000001 522.8469500000001,330.3546200000001 523.5000300000002,330.50001000000015 C 524.4833700000001,330.71894000000015 525.5206600000001,330.88719000000015 526.2527200000002,330.94734000000017 C 526.9993600000001,331.0087100000002 527.7549800000002,330.9971100000002 529.1785600000002,331.2213600000002 C 529.8474400000001,331.3267400000002 530.4726900000002,331.52986000000016 531.3987100000002,331.7160200000002 C 532.5928600000002,331.9560700000002 533.2079100000002,331.9378500000002 534.1000000000001,332.10985000000016 C 535.0105800000001,332.2853900000002 535.9029200000001,332.6963400000002 536.4792100000001,333.02086000000014 C 537.3260100000001,333.49773000000016 538.2980000000001,334.15160000000014 539.0000200000001,334.45836000000014 C 539.6689700000001,334.75069000000013 540.6852,334.91814000000016 541.52083,335.0000200000001 C 542.4010800000001,335.08629000000013 543.3028700000001,335.2084600000001 544.18935,335.4253400000001 C 545.04598,335.6349300000001 546.0757,335.9078500000001 546.77468,335.96401000000014 C 547.68178,336.03689000000014 548.68368,335.97704000000016 549.47921,336.02086000000014 C 550.23232,336.0623600000001 551.21053,336.32692000000014 552.00002,337.0000200000001 C 552.5385299999999,337.4591600000001 553.3163,337.9289400000001 554.1746999999999,337.98934000000014 C 555.11507,338.05550000000017 555.96962,337.9803400000001 557.00533,338.00451000000015 C 557.74984,338.02187000000015 558.73299,338.0455000000002 559.4583299999999,338.5208700000002 C 560.2995799999999,339.07214000000016 560.7361,339.71337000000017 561.64821,339.9473500000002 C 562.4176199999999,340.1447400000002 562.99867,340.8013500000002 563.00002,341.7000400000002 C 563.00136,342.6000300000002 563.01748,343.5210500000002 562.99984,344.3211900000002 C 562.98183,345.1392700000002 562.3874099999999,345.90572000000014 561.8000099999999,346.5693600000002 C 561.3132499999999,347.1193200000002 560.9286099999999,348.0034100000002 560.3000099999999,348.6955200000002 C 559.7295099999999,349.3236300000002 559.34511,350.2437700000002 558.7785299999999,350.87887000000023 C 558.17837,351.5515400000002 557.66391,352.16577000000024 556.89987,352.75720000000024 C 556.33169,353.1970500000002 555.33822,353.34744000000023 554.59555,353.70453000000026 C 553.79507,354.08939000000026 553.05844,354.5904900000003 552.02151,354.87854000000027 C 551.3215600000001,355.07300000000026 550.3973000000001,355.03036000000026 549.58938,355.42535000000026 C 548.6755,355.87213000000025 548.00021,355.98959000000025 547.02139,356.00003000000027 C 546.11612,356.00967000000026 545.17465,356.00735000000026 544.48404,356.00003000000027 C 543.49985,355.98959000000025 542.5260900000001,355.6857000000003 541.78934,355.42535000000026 C 540.8136900000001,355.08059000000026 539.98062,355.1414400000003 539.16672,354.8333700000003 C 538.34671,354.5229800000003 537.80002,353.8013600000003 537.00003,353.16668000000027 L 536.30002,353.00451000000027" fill="none" id="svg_6" stroke="#000" stroke-width="2"/>
	<path d="M 548.0,357.0 C 548.0,358.70001 548.0,359.70001 548.0,360.60001 C 548.0,361.5 548.0,362.4 548.0,363.29999 C 548.0,364.20000999999996 548.0,365.10001 548.0,366.0 C 548.0,366.79999 547.79669,367.47394 547.16669,368.16666 C 546.6211000000001,368.76653999999996 546.21442,369.44196 545.71466,370.19867 C 545.3125,370.80759 544.29999,370.99773999999996 543.4000199999999,371.0 C 542.4999999999999,371.00226 541.5999699999999,371.0 540.7000099999999,371.0 C 539.7999899999999,371.0 538.8996599999999,371.0 538.18567,371.0 C 537.232,371.0 536.5,371.0 535.33331,371.0 L 534.5416799999999,371.0 L 533.59997,371.0 L 532.70001,370.99551" fill="none" id="svg_7" stroke="#000" stroke-width="2"/>
	<path d="M 539.0,374.0 C 538.0,375.0 537.79236,375.74518 537.0,376.16666 C 536.35944,376.50739 535.48566,376.84756999999996 534.59998,377.01068 C 533.76856,377.16379 532.9737,377.76245 532.29999,378.05267 C 531.45819,378.41528 530.6474,378.8309 529.79999,379.28398999999996 C 529.14801,379.63258999999994 528.29999,379.99773999999996 527.47919,379.99998999999997 C 526.51599,380.00260999999995 525.65265,379.99998999999997 524.75269,379.99998999999997 C 523.8333200000001,379.99998999999997 522.97919,379.99998999999997 522.0,379.99998999999997 C 521.18933,379.99998999999997 520.54285,379.99998999999997 519.31732,379.99998999999997 C 518.52081,379.99998999999997 517.76935,380.00062999999994 516.81433,379.99998999999997 C 515.7986400000001,379.99931999999995 515.1113300000001,379.92393999999996 514.164,379.57466999999997 C 513.39587,379.29146999999995 512.40546,379.04008999999996 511.65716,379.00447999999994 C 510.6155,378.9548899999999 509.65691999999996,378.68352999999996 508.99465,378.29015999999996 C 508.49226999999996,377.99175999999994 507.71776,377.54396999999994 506.81431999999995,376.75264999999996 C 506.27674999999994,376.28175999999996 505.75651999999997,375.2861 505.29197999999997,374.86132 C 504.58952999999997,374.21898999999996 503.63444999999996,374.09788999999995 502.95833,374.02083999999996 C 501.88331999999997,373.89831 500.81496,373.80636 500.15715,373.63832999999994 C 499.19942,373.39369999999997 498.58559,373.1445299999999 497.7,372.67848999999995 C 496.78258,372.19569999999993 496.19811,371.79222999999996 495.59999,371.39867 C 494.6971,370.80455 493.80539999999996,370.20183 493.2,369.83599 C 492.60517999999996,369.47655 491.39849,368.88597999999996 490.79998,368.61465 C 490.19848,368.34198 488.98519,367.68627 488.39999,367.22934 C 487.78372,366.74814 487.1958,366.18298 486.6,365.59731999999997 C 485.69390000000004,364.70665999999994 485.10339000000005,364.10988999999995 484.54165,363.52083999999996 C 484.00897,362.96221999999995 483.32424000000003,362.17333999999994 482.80532,361.45714999999996 C 482.34112,360.81651999999997 481.68487,359.97902999999997 481.22933,359.60131999999993 C 480.48641,358.98531999999994 479.91152,358.61709999999994 478.70016,358.0213299999999 C 478.11375999999996,357.7329399999999 477.22231999999997,357.40194999999994 476.68532999999996,357.11599999999993 C 475.65657999999996,356.5682099999999 475.06233999999995,355.9575499999999 474.40133,355.56933999999995 C 473.44615999999996,355.00839999999994 472.5191,354.95606 471.57867,354.55715999999995 C 471.03125,354.32494999999994 470.22731999999996,353.81139999999994 469.68399,353.4826699999999 C 468.68892999999997,352.88064999999995 467.8288,352.38726999999994 467.0,352.1666599999999 C 466.2131,351.9571899999999 465.35852,351.9017099999999 464.39999,351.2946799999999 C 463.76937,350.8953299999999 463.02649,350.2325499999999 462.21066,350.0719899999999 C 461.18387,349.8699299999999 460.36334,350.0003299999999 459.51333,349.7159999999999 C 458.74166,349.4578499999999 457.83578,349.1484599999999 457.05181,349.0526699999999 C 456.26333,348.9563299999999 455.118,348.8253399999999 454.52083,348.47914999999995 C 453.63655,347.96651999999995 453.00627,347.43416999999994 451.99998999999997,347.16664999999995 C 451.20473,346.95521999999994 450.53454,346.98927999999995 449.57865999999996,346.77849999999995 C 448.76604,346.59929999999997 447.94202999999993,346.32210999999995 446.92164999999994,345.89998999999995 C 446.2390899999999,345.61760999999996 445.5300199999999,345.1301199999999 444.61463999999995,344.61064999999996 C 443.70420999999993,344.09398999999996 442.98267999999996,344.09202999999997 442.21464999999995,343.93864999999994 C 441.1528799999999,343.72660999999994 440.44746999999995,343.3030299999999 439.8106599999999,342.81465999999995 C 438.98713999999995,342.18306999999993 438.43483999999995,341.68263999999994 437.5999999999999,341.36166 C 436.6300899999999,340.98873999999995 435.7574699999999,341.01253999999994 434.8333399999999,340.83333999999996 C 434.0403999999999,340.67956 433.2340999999999,340.38647 432.1666499999999,340.16664999999995 C 431.4664499999999,340.02244999999994 430.56889999999987,340.01201999999995 429.7526499999999,339.29466999999994 C 429.1695199999999,338.78218999999996 428.5252299999999,338.10429999999997 427.7893299999999,338.02131999999995 C 426.80617999999987,337.91044999999997 425.83598999999987,337.99998999999997 424.8839999999999,337.99998999999997 C 424.1159899999999,337.99998999999997 423.1219799999999,338.13311 422.4840099999999,337.82933999999995 C 421.5025999999999,337.36198999999993 421.3187899999999,336.3185399999999 420.3640099999999,336.0213299999999 C 419.5540399999999,335.7691899999999 418.6490699999999,336.0762299999999 417.7526499999999,335.9955099999999 C 416.8228999999999,335.9117999999999 416.0262099999999,335.42500999999993 415.1666499999999,335.1666499999999 C 414.42741999999987,334.9444499999999 413.4935499999999,335.09798999999987 412.5893199999999,334.9893099999999 C 411.66127999999986,334.8777699999999 410.96931999999987,334.52891999999986 410.1666499999999,333.99998999999985 C 409.4708199999999,333.54145999999986 408.7049499999999,332.84672999999987 407.9791499999999,332.5208299999999 C 407.0292599999999,332.09431999999987 406.2112699999999,332.0191199999999 405.4853099999999,332.0013299999999 C 404.4109999999999,331.9749899999999 403.56175999999994,332.0848599999999 402.6786699999999,331.77830999999986 C 401.9698399999999,331.53224999999986 401.1430899999999,330.85191999999984 400.6359799999999,330.1853199999999 C 400.1795299999999,329.5852799999999 399.3838399999999,329.01536999999985 398.5999999999999,328.5746599999999 C 397.7819499999999,328.11469999999986 396.8750899999999,327.8079099999999 396.2999799999999,327.29548999999986 C 395.6711999999999,326.73524999999984 394.8410299999999,326.26414999999986 393.9999899999999,325.8333299999999 C 393.33564999999993,325.49302999999986 392.8012599999999,324.5370999999999 391.9999899999999,324.16663999999986 C 391.2971399999999,323.84168999999986 390.3256699999999,324.12305999999984 389.4839999999999,323.91465999999986 C 388.5932199999999,323.6940799999999 387.89998999999995,322.90015999999986 387.29997999999995,322.35715999999985 L 386.47914999999995,321.9999799999998" fill="none" id="svg_8" stroke="#000" stroke-width="2"/>
	<path d="M 398.0,306.0 C 399.672,306.57468 400.53989,306.9061 401.25067,306.96399 C 401.99286,307.02441000000005 403.20502,306.92136000000005 403.88266,307.08533 C 404.88329999999996,307.32746 405.46808,307.75083 406.42133,308.32117 C 407.23087000000004,308.80555 407.73984,309.21518 408.83335,309.66666 C 409.52872,309.95376999999996 410.28767,310.02686 411.16666,310.66666 C 411.73453,311.07998999999995 412.24042,311.72943 412.88266,312.33466 C 413.55481,312.96808 414.31192,313.54264 415.16934,313.94666 C 416.04175,314.35776 416.52664,314.4628 417.45184,314.80085 C 418.84250000000003,315.30894 419.29135,315.52070000000003 420.14734,316.01884 C 420.58139,316.27143 421.4292,316.85203 421.85265999999996,317.16618 C 423.17904999999996,318.15019 423.61702999999994,318.52781 424.57068,319.25267 C 425.06543,319.62874000000005 425.57937999999996,320.00572 426.11865,320.37468 C 426.67199,320.75328 428.49557,321.84203 429.16433,322.17851 C 429.85024,322.52363 430.56478,322.84788000000003 431.29733,323.16401 C 432.03945999999996,323.48429000000004 432.79535,323.79096000000004 433.55633,324.0955 C 434.31802,324.40031 435.83404,324.99824 436.57833,325.3 C 437.31401999999997,325.59828 438.03908,325.89821 438.75332,326.20002 C 439.4591,326.49824 440.15414,326.79813 440.83833999999996,327.10001 C 441.51415,327.39817 442.83385,327.99887 443.47865999999993,328.29984 C 444.11650999999995,328.59757 444.7448299999999,328.90088000000003 445.9999899999999,329.47916000000004 C 446.6240999999999,329.7667 447.2496499999999,330.04990000000004 447.8839899999999,330.31467000000004 C 449.16077999999993,330.84760000000006 449.81699999999995,331.09162000000003 451.15714999999994,331.54285000000004 C 451.83378999999996,331.77066 452.52009999999996,331.98154000000005 453.21064999999993,332.18933000000004 C 453.90379999999993,332.39789 454.60108999999994,332.59939 455.9999899999999,333.00000000000006 C 456.7002499999999,333.2005300000001 457.4029399999999,333.40036000000003 458.1089999999999,333.60449000000006 C 459.5422299999999,334.0188600000001 460.2723899999999,334.23471000000006 461.0143299999999,334.45715000000007 C 461.7710399999999,334.6840200000001 463.3336699999999,335.16562000000005 464.14298999999994,335.4213200000001 C 464.9709899999999,335.6829200000001 465.8140399999999,335.9534900000001 466.67197999999996,336.2253400000001 C 467.54135999999994,336.5008200000001 468.42047999999994,336.77731000000006 469.30897,337.0473300000001 C 470.20185,337.3186900000001 471.99908999999997,337.8366100000001 472.89997,338.0788200000001 C 473.79911,338.3205800000001 474.70023,338.5509000000001 475.59998,338.7853300000001 C 476.50022,339.0199200000001 477.4014,339.2562200000001 478.29996,339.5098200000001 C 479.20145,339.7642500000001 481.00244,340.3262300000001 481.89997,340.6426600000001 C 482.8025,340.9608700000001 483.70065999999997,341.30358000000007 484.59998,341.6506600000001 C 485.50065,341.9982600000001 486.39863,342.35284000000007 487.29996,342.6946700000001 C 488.19867,343.0355200000001 489.99777,343.6735200000001 490.89948,343.95733000000007 C 491.79382999999996,344.2388200000001 492.68640999999997,344.4949000000001 493.56797,344.74932000000007 C 494.43742,345.0002400000001 495.29404,345.24395000000004 496.12849,345.5053300000001 C 496.94606,345.7614300000001 498.50508,346.3214900000001 499.23548,346.6426600000001 C 499.94912999999997,346.9564700000001 500.63129,347.2999800000001 501.29197,347.6506600000001 C 501.94029,347.99478000000005 502.56732999999997,348.3504900000001 503.18647,348.6946700000001 C 503.79533,349.03314000000006 504.99653,349.6738600000001 505.59979999999996,349.9570000000001 C 506.19534999999996,350.2365100000001 506.79364999999996,350.4901400000001 507.38931999999994,350.7280000000001 C 507.9773599999999,350.96280000000013 508.56341999999995,351.1802100000001 509.14279999999997,351.3909900000001 C 509.71408999999994,351.5988100000001 510.83392999999995,351.9983800000001 511.37829999999997,352.2000100000001 C 511.91387999999995,352.3984000000001 512.439,352.5982900000001 512.95328,352.7999900000001 C 513.4589599999999,352.9983200000001 513.9540099999999,353.1981800000001 514.43833,353.4000000000001 C 514.91404,353.5982400000001 515.8338399999999,353.9988500000001 516.2783,354.1996800000001 C 517.13932,354.5887500000001 517.9484699999999,354.98288000000014 518.7383199999999,355.2856800000001 C 519.82084,355.7006900000001 520.51109,355.8564500000001 521.1639799999999,355.92801000000014 C 522.0920799999999,356.02973000000014 523.2997799999999,356.00000000000017 523.8954899999999,356.00000000000017 C 524.7639599999999,356.00000000000017 525.8332999999999,356.00000000000017 526.7533399999999,356.00000000000017 L 527.5132899999999,356.00000000000017 L 528.4791699999998,356.0208400000002" fill="none" id="svg_9" stroke="#000" stroke-width="2"/>
	<path d="M 227.0,179.0 C 225.16667,179.16667 225.0,180.0 225.0,180.8 C 225.0,181.69999 224.9946,182.60002 225.0,183.5 C 225.00534,184.38937 225.58253,184.68762 226.38933,185.01067 C 227.17847,185.32665 227.70453,186.00837 228.60001,186.0 C 229.47939,185.99179 229.99466,185.38937 230.0,184.5 C 230.0054,183.60002 230.19807,182.6776 229.99867,181.80133 C 229.81564,180.99702000000002 228.8,181.0 227.89999,181.0 C 227.0,181.0 226.06089,181.21523 226.0,182.10001 C 225.9382,182.99788 226.39351,184.26418999999999 226.91467,183.71466 C 227.47833,183.12031000000002 227.0,182.0 226.77867,181.12134 L 226.084,180.71601 L 225.564,180.036" fill="none" id="svg_10" stroke="#000" stroke-width="2"/>
	<path d="M 195.0,178.0 C 196.83333,178.16667 197.23772,178.79269 198.09984,179.00017 C 198.93996,179.20235 199.35587,179.97141 200.3,180.0 C 201.19958,180.02724 202.10000000000002,180.0 203.0,180.0 L 203.83333,180.16667" fill="none" id="svg_11" stroke="#000" stroke-width="2"/>
	<path d="M 281.0,308.0 C 281.99551,309.70001 282.24203,310.44833 282.716,311.08401 C 283.28924,311.85283999999996 283.0,312.79998 283.0,313.70000999999996 C 283.0,314.59999999999997 283.08948,315.41736 283.57468,316.02532999999994 C 284.07306,316.6498399999999 284.0,317.60000999999994 284.0,318.49999999999994 C 284.0,319.39998999999995 283.9827,320.3113399999999 284.5,320.99999999999994 C 284.96997,321.62566999999996 285.0,322.49999999999994 285.0,323.39998999999995 C 285.0,324.29997999999995 285.0,325.20000999999996 285.0,326.09999999999997 C 285.0,326.99998999999997 285.01874,327.80015999999995 285.0,328.70000999999996 C 284.98199,329.56453999999997 284.32251,330.10509999999994 283.91599,330.80132999999995 C 283.4336,331.62749999999994 282.89203000000003,332.33083999999997 282.20002,332.7146599999999 C 281.37552999999997,333.17193999999995 280.39997,332.99459999999993 279.50001,332.99999999999994 C 278.61060999999995,333.00533999999993 278.0634,333.77480999999995 277.29551,333.99550999999997 C 276.43482,334.24289 275.5626,334.06535999999994 274.97468,334.57466999999997 C 274.32606,335.13658999999996 273.76792,335.81777 272.90018999999995,336.00014999999996 C 272.10785999999996,336.16668 271.61493999999993,336.90785999999997 271.02533999999997,337.42531999999994 C 270.38757999999996,337.98503999999997 269.8144,338.48873999999995 269.16666999999995,339.16664999999995 C 268.56260999999995,339.79884999999996 268.02930999999995,340.35588999999993 268.00001,341.29997999999995 C 267.97215,342.19822999999997 267.71601,342.91597999999993 267.03601999999995,343.4359999999999 L 267.00001,344.29997999999995" fill="none" id="svg_12" stroke="#000" stroke-width="2"/>
	<path d="M 279.0,338.0 C 277.17465,338.0 276.16666,338.0 275.3045,338.0 C 274.39999,338.0 273.29577,337.8848 273.01068000000004,338.61066 C 272.68533,339.43897 272.5787,340.25885 272.12134000000003,341.09983 C 271.71482000000003,341.84733 271.21070000000003,342.38224 270.99866000000003,343.19868 C 270.79077,343.99913000000004 270.00000000000006,344.50001000000003 269.42533000000003,345.02534 L 269.00449000000003,345.70451 L 269.00000000000006,346.60002000000003" fill="none" id="svg_13" stroke="#000" stroke-width="2"/>
	<path d="M 293.0,319.0 C 292.00449,320.70001 292.0267,321.63644 291.99866,322.48401 C 291.97006999999996,323.34866 291.54431,324.18652000000003 291.16666,325.0 C 290.81363,325.76038 290.25306,326.5372 290.03601,327.39999 C 289.81627999999995,328.27349 290.15932999999995,329.29788 289.64734,329.94732 C 289.16281,330.56194 289.0,331.29998 289.0,332.20000999999996 C 289.0,333.09999999999997 288.54395,334.27716 289.22168,334.87850999999995 C 289.93435999999997,335.51082999999994 290.836,334.99825999999996 291.60132,334.99999999999994 C 292.59549,335.0022599999999 293.53258999999997,335.04308999999995 294.37467,335.42531999999994 C 295.18591999999995,335.79357999999996 296.04004,335.8666999999999 296.97866999999997,336.22133999999994 C 297.66799999999995,336.48177999999996 298.54116999999997,336.7213699999999 299.29015999999996,337.0526699999999 C 300.17123,337.44240999999994 300.85637999999994,338.0518199999999 300.99999999999994,338.99999999999994 C 301.1198099999999,339.79094999999995 301.3145099999999,340.3871199999999 301.83333999999996,341.1666599999999 C 302.30422999999996,341.87411999999995 302.63658999999996,343.4392399999999 301.77864999999997,343.65701999999993 C 300.90835,343.8779399999999 301.45039999999995,342.12143999999995 300.88568,341.3571799999999 C 300.40569999999997,340.7075799999999 299.47686999999996,340.5080899999999 298.71466,340.08532999999994 C 297.91132,339.63973999999996 296.89999,339.99999999999994 296.0,339.99999999999994 C 295.24283,339.99999999999994 294.34732,339.99999999999994 293.48401,339.99999999999994 C 292.52084,339.99999999999994 291.60001,339.99999999999994 290.70001,339.99999999999994 C 289.79999000000004,339.99999999999994 288.83386,340.21065999999996 288.0,339.83333999999996 C 287.34604,339.53743999999995 287.16544,337.96099999999996 286.42532,338.04666 C 285.58981,338.14336999999995 285.16302,339.33248999999995 285.0,340.02083999999996 C 284.77347,340.97729 284.25046,341.65450999999996 283.7045,342.29997999999995 C 283.06528,343.05574999999993 282.66248,343.72198 282.0,344.33333999999996 C 281.38416,344.90164 281.43274,345.95973999999995 280.94733,346.63832999999994 C 280.39893,347.4050199999999 280.18573000000004,348.04249999999996 279.91468000000003,348.79997999999995 C 279.59223000000003,349.70109999999994 278.68494000000004,350.11693999999994 278.28535000000005,350.79997999999995 C 277.86326,351.52147999999994 278.10697000000005,350.69346999999993 277.99867000000006,349.79997999999995 C 277.8871900000001,348.8802099999999 277.1901700000001,348.34587999999997 277.01069000000007,347.39998999999995 C 276.84290000000004,346.51570999999996 277.0000100000001,345.59999999999997 277.0000100000001,344.70000999999996 C 277.0000100000001,343.79999 277.0000100000001,342.89998999999995 277.0000100000001,341.99999999999994 C 277.0000100000001,341.20000999999996 277.0000100000001,340.2999899999999 277.03602000000006,339.39998999999995 L 277.4253300000001,338.59999999999997" fill="none" id="svg_14" stroke="#000" stroke-width="2"/>
</svg>
