<?xml version="1.0" ?>
<svg baseProfile="full" height="480" version="1.1" width="640" xmlns="http://www.w3.org/2000/svg" xmlns:ev="http://www.w3.org/2001/xml-events" xmlns:xlink="http://www.w3.org/1999/xlink">
	<defs/>
	<path d="M 226.0,132.0 C 223.31467,134.744 222.48056,134.96469 221.59866,134.996 C 220.70087999999998,135.02788 219.81513999999999,134.94708 219.01432,135.05716 C 217.9518,135.20322000000002 217.32694,135.66859000000002 216.49999,136.16667 C 215.65529,136.67543 214.99518,136.99127000000001 214.35799,137.34733 C 213.25563,137.96333 212.56061,138.56677 211.66666,138.83332 C 211.00498000000002,139.03062 210.1722,138.97919 208.99999,139.16665999999998 C 208.39708,139.26307999999997 207.49755,139.48994999999996 206.68532,139.88665999999998 C 205.89557,140.27238999999997 205.26164,140.8712 204.54731999999998,141.29014999999998 C 203.61971999999997,141.83416999999997 202.77267999999998,141.92466 201.95264999999998,142.04816 C 200.91866999999996,142.20389 200.22563999999997,142.41323 199.40131999999997,142.80132 C 198.39104999999998,143.27695 197.75545999999997,143.55036 197.02147999999997,144.32116 C 196.45129999999997,144.91995 195.92943999999997,145.86881 195.24280999999996,145.99098999999998 C 194.36112999999997,146.14788 193.36815999999996,145.55832999999998 192.44664999999998,146.03598999999997 C 191.80621999999997,146.36795999999998 192.06445999999997,147.67654999999996 192.85464,147.91731999999996 C 193.51924,148.11981999999995 194.36236,148.07390999999996 195.31465,148.56798999999995 C 196.01819,148.93300999999994 196.9839,149.71581999999995 197.59999,149.89015999999995 C 198.38460999999998,150.11220999999995 199.39244,150.31083999999996 200.23597999999998,150.57464999999996 C 201.15789999999998,150.86295999999996 201.95429,150.93165999999997 202.77465999999998,151.02531999999997 C 203.83581999999998,151.14645999999996 204.53268999999997,151.38380999999995 205.39548,151.64732999999995 C 206.38961,151.95095999999995 207.20009,151.98214999999996 208.20014999999998,152.00015999999997 C 209.02093999999997,152.01492999999996 209.69267,152.05142999999995 210.68264999999997,152.28398999999996 C 211.48605999999998,152.47270999999995 212.24610999999996,152.65840999999995 213.34931999999998,152.98532999999995 C 214.35001999999997,153.28187999999994 215.00472999999997,153.70633999999995 215.49998999999997,153.99998999999994 C 216.23109999999997,154.43348999999995 217.33732999999998,154.94906999999995 218.32131999999996,155.00015999999994 C 218.99938999999995,155.03535999999994 219.97848999999997,155.22131999999993 220.69547999999995,155.64732999999993 L 221.52080999999995,155.97915999999992" fill="none" id="svg_1" stroke="#000" stroke-width="2"/>
	<path d="M 224.0,127.0 C 227.957,131.83533 228.71063,132.6994 229.17867,133.132 C 229.97179,133.86508 230.63872,134.20007 231.4,134.80983 C 232.24679,135.48807 232.59505000000001,136.00937000000002 233.20000000000002,136.74933000000001 C 233.59677000000002,137.23465000000002 234.36925000000002,138.07704 235.20000000000002,138.57868000000002 C 235.97400000000002,139.04606 236.83306000000002,139.37501000000003 237.4,139.81434000000002 C 238.25507000000002,140.47695000000002 238.60378,140.99911 239.16401000000002,141.74934000000002 C 239.84345000000002,142.65922 240.38979,143.31904000000003 240.79867000000002,143.88267000000002 C 241.45338,144.78518000000003 241.80927000000003,145.59498000000002 242.65267000000003,145.88568 C 243.47568000000004,146.16936 244.45057000000003,146.02890000000002 245.02534000000003,146.57468 C 245.65826000000004,147.17568 245.19335000000004,147.71474 244.23068000000004,147.91735 C 243.48836000000003,148.07358 242.63714000000004,148.07049 241.68402000000003,148.56936 C 240.95788000000005,148.94942999999998 240.34959000000003,149.57773999999998 239.31335000000004,150.11469 C 238.76907000000006,150.39672 237.84153000000003,150.70624 236.83334000000005,151.00002 C 236.12085000000005,151.20763 235.39148000000006,151.38483 234.69734000000005,151.60003 C 233.49158000000006,151.97382000000002 232.67541000000006,152.38514 232.11868000000004,152.88535000000002 C 231.30934000000005,153.61252000000002 230.85403000000005,154.25136 230.00001000000003,154.66669000000002 C 229.24316000000005,155.03476 228.40000000000003,154.99735 227.40451000000004,155.00002 L 226.65718000000004,155.00002 L 225.64668000000003,155.01069" fill="none" id="svg_2" stroke="#000" stroke-width="2"/>
	<path d="M 226.0,132.0 C 226.0,126.06483 226.0,124.92934 226.0,124.304 C 226.0,123.14283 226.0,122.38533 226.0,121.34733 C 226.0,120.65266 225.83629,119.62004 226.009,118.6955 C 226.17816,117.79001 226.85425999999998,117.16793 227.35182999999998,116.65266 C 228.10278999999997,115.87501 228.69832999999997,115.32826 228.99998999999997,114.47916 C 229.27803999999998,113.69654999999999 229.69497999999996,112.86049 229.91465999999997,111.88533 C 230.11012999999997,111.01764 230.17399999999998,110.29446 231.02081999999996,109.97916 C 231.83662999999996,109.67541 232.53441999999995,109.01012999999999 232.83331999999996,108.16666 C 233.09384999999995,107.43145999999999 233.43924999999996,106.58219 234.16665999999995,105.83332999999999 C 234.64332999999996,105.34261 235.34585999999996,104.68906999999999 235.83065999999994,103.88665999999999 C 236.27512999999993,103.151 236.98769999999993,102.96898999999999 238.00532999999993,102.63833 C 238.76303999999993,102.39213 239.70576999999992,101.87232 240.18565999999993,101.35182999999999 C 240.73947999999993,100.75116 241.42405999999994,100.1014 242.32132999999993,99.77865999999999 C 243.01167999999993,99.53033999999998 243.97937999999994,99.12387999999999 244.66132999999994,98.97466999999999 C 245.54355999999993,98.78162999999999 246.28159999999994,98.60005999999998 247.05182999999994,98.23832999999999 C 248.11028999999994,97.74125 248.73834999999994,97.12879 249.45265999999995,96.70983 C 250.38011999999995,96.16584999999999 251.21806999999995,96.08333 251.99016999999995,95.95183 C 252.86189999999996,95.80337 253.62392999999994,95.33103 254.54265999999996,95.12149 C 255.23795999999996,94.96291 256.23198999999994,95.00066 257.19467,94.99999 C 257.96799,94.99946 259.00534,94.99999 259.74933,94.99999 C 260.85733,94.99999 261.65067,94.99999 262.543,94.99999 C 263.272,94.99999 264.10901,94.99999 265.29984,94.99999 C 266.18934,94.99999 266.76401000000004,94.99999 267.83335,94.99999 C 268.77466,94.99999 269.45267,94.99999 270.68399999999997,94.99999 C 271.22535,94.99999 272.04749,94.98258 273.31602,95.00133 C 274.00021999999996,95.01144 275.17535999999996,95.13466 275.94818999999995,95.36166 C 276.48611999999997,95.51966 277.30398999999994,95.80251 278.19467999999995,96.65266 C 278.69607999999994,97.13123 279.30240999999995,97.89059999999999 280.0143499999999,98.23832999999999 C 280.79272999999995,98.61850999999999 281.99844999999993,98.84536999999999 282.59732999999994,98.916 C 283.4564899999999,99.01732 284.73941999999994,99.03513 285.32800999999995,99.44666 C 286.13516999999996,100.01101 286.34982999999994,100.87136 286.88534999999996,101.51599999999999 C 287.42816999999997,102.1694 288.25839999999994,102.60901 288.99999999999994,103.33333999999999 C 289.64449999999994,103.96279999999999 289.96428999999995,104.53078 290.60000999999994,105.23200999999999 C 291.3580099999999,106.06812 292.01696999999996,106.40287 292.83334999999994,107.00000999999999 C 293.51367999999997,107.49763999999999 293.99231999999995,108.33693 294.3089999999999,109.00533999999999 C 294.6634299999999,109.75345999999999 295.3091799999999,110.69866999999999 296.0053499999999,111.19917 C 296.4844499999999,111.54361 297.3235299999999,111.98231 297.8571899999999,112.76433999999999 C 298.44898999999987,113.63156 298.6012399999999,114.40113 298.8826699999999,115.11867 C 299.3013399999999,116.18616 299.6426199999999,116.83694 300.1386799999999,117.71732999999999 C 300.42743999999993,118.22982999999999 300.91955999999993,119.35395999999999 301.1666599999999,120.33332999999999 C 301.33935999999994,121.01781999999999 301.5959199999999,121.81656999999998 301.7160099999999,122.40265999999998 C 301.9593899999999,123.59058999999998 301.9584699999999,124.48438999999998 302.08401999999995,125.31465999999999 C 302.23657999999995,126.32351999999999 302.4781899999999,127.02083999999999 303.16666,127.99998999999998 C 303.60916,128.62931999999998 304.2518,129.1359 304.66666,129.99998999999997 C 305.03531,130.76782999999998 304.99548999999996,131.45712999999998 305.0,132.68264999999997 C 305.00293,133.47915999999998 305.0,134.23064999999997 305.0,135.19015999999996 C 305.0,136.16665999999995 305.0,136.99998999999997 305.0,137.97848999999997 L 305.0,138.79864999999995 L 305.0,139.63598999999996" fill="none" id="svg_3" stroke="#000" stroke-width="2"/>
	<path d="M 260.0,135.0 C 262.60001,138.77133 263.39987,138.991 264.40134,139.0 C 265.02082,139.00557 266.16666,139.0 266.94818,139.0 C 267.73868,139.0 268.85717999999997,139.00058 269.61465,139.0 C 270.484,138.99933 271.45059,139.15326 272.24282,138.63383 C 272.93041,138.18302 273.23046,137.24016999999998 273.47915,136.45832 C 273.74972,135.60769 273.90399,134.70243 273.96398,133.82133 C 274.01885,133.01557 274.28011,131.82173 273.66665,131.0 C 273.26388000000003,130.46046 272.32205,130.22653 271.31732,130.08533 C 270.526,129.97412 269.76935,130.00066999999999 268.65066,130.0 C 267.66665,129.99942 266.98565,130.0 266.17868000000004,130.0 C 265.00000000000006,130.0 264.40070000000003,129.9594 263.54166000000004,130.02083 C 262.32767,130.10764 261.63529000000005,130.39557 260.89984000000004,131.10032999999999 C 260.33414000000005,131.64244 259.82019,132.32412 259.35184000000004,133.00534 C 258.84699000000006,133.73967 258.33335000000005,134.66666999999998 258.04166000000004,135.47916999999998 L 258.00000000000006,136.3215 L 258.00000000000006,137.21066" fill="none" id="svg_4" stroke="#000" stroke-width="2"/>
	<path d="M 225.0,161.0 C 228.028,165.51199 228.35469,166.1295 228.63383,166.98117 C 228.91711999999998,167.84548999999998 229.05266999999998,168.74817 229.35266,169.65266 L 229.64733999999999,170.34733" fill="none" id="svg_5" stroke="#000" stroke-width="2"/>
	<path d="M 232.0,168.0 C 232.0,170.01433 232.0,170.82133 232.0,172.0 C 232.0,172.59866 232.0,173.47917 232.0,174.31467 C 232.0,175.31467 232.0,176.18933 232.0,177.19983000000002 C 232.0,177.97917 232.0,178.97884000000002 232.0,179.80983000000003 C 232.0,180.76801000000003 232.0,181.50000000000003 232.0,182.23199000000002 C 232.0,183.34933000000004 232.0,184.33332000000001 232.0,185.00534000000002 C 232.0,185.99466 232.0,187.032 232.0,187.80533000000003 C 232.0,188.76801000000003 232.0,189.50000000000003 232.0,190.23200000000003 C 232.0,191.34934000000004 232.0,192.33333000000002 232.0,193.00983000000002 C 232.0,193.78534000000002 232.0,195.07866 232.0,195.77468000000002 C 232.0,196.68401000000003 232.0,197.68534000000002 232.0,198.52083000000002 C 232.0,199.10451 232.0,200.30017 232.0,201.21066000000002 C 232.0,201.836 232.0,203.16667 232.0,203.88266000000002 C 232.0,204.61467000000002 232.0,205.33867 232.0,206.66667 C 232.0,207.23199000000002 232.0,208.25067 232.0,209.33333000000002 C 232.0,209.97067 232.0,210.67200000000003 232.0,211.42134000000001 C 232.0,212.20267 232.0,213.39999 232.0,214.20000000000002 C 232.0,215.00000000000003 232.0,215.80001000000001 232.0,217.00000000000003 C 232.0,217.80000000000004 232.0,218.60001000000003 232.0,219.39999000000003 C 232.0,220.19999000000004 232.0,221.39999000000003 232.0,222.19999000000004 C 232.0,222.99999000000005 232.0,223.80000000000004 232.0,224.99999000000005 C 232.0,225.80132000000006 232.0,226.61066000000005 232.0,227.43599000000006 C 232.0,228.28532000000007 232.0,229.62132000000005 232.0,230.55266000000006 C 232.0,231.02532000000005 232.0,231.97466000000006 232.0,232.91599000000005 C 232.0,233.83332000000004 232.0,234.71465000000006 232.0,235.56398000000004 C 232.0,236.38931000000005 232.0,237.19865000000004 232.0,238.40031000000005 C 232.0,239.20898000000005 232.0,240.04165000000006 232.0,240.91432000000006 C 232.0,242.33331000000007 232.0,242.84282000000007 232.0,243.90982000000005 C 232.0,244.46132000000006 232.0,245.02081000000004 232.0,246.15182000000004 C 232.0,246.71731000000005 231.99837,248.37847000000005 232.00133,248.91465000000005 C 232.00713,249.96401000000006 232.00208,250.47999000000004 232.05715999999998,251.49548000000004 C 232.13886999999997,253.00175000000004 232.21500999999998,253.50099000000003 232.35266,254.50448000000003 C 232.42215,255.01109000000002 232.58078999999998,256.03517000000005 232.64733999999999,256.55714 C 232.85224,258.16435 232.88597,258.72090000000003 232.94733,259.85264 C 232.97836999999998,260.42512 232.99474999999998,261.00022 233.05267999999998,262.14732000000004 C 233.08139999999997,262.71614000000005 233.21345999999997,264.37956 233.28667,264.91465000000005 C 233.43055999999999,265.9662900000001 233.52627999999999,266.48258000000004 233.76167999999998,267.4954900000001 C 233.87903999999997,268.0004600000001 234.31743999999998,269.5016500000001 234.48533999999998,270.00263000000007 C 234.82771999999997,271.02411000000006 235.02267999999998,271.54096000000004 235.40449999999998,272.61429000000004 C 235.60229999999999,273.17029 236.00315999999998,274.33228 236.2,274.94263000000007 C 236.60654,276.20322000000004 236.80001,276.8506500000001 237.0,277.4999700000001 C 237.2,278.14929000000006 237.3846,278.7996500000001 238.0,280.66663000000005 C 238.19513,281.25858000000005 238.39371,281.83164000000005 238.8,282.92798000000005 C 238.99696,283.45944000000003 239.19723000000002,283.97974000000005 239.60000000000002,284.99732000000006 C 239.99728000000002,286.00104000000005 240.40092,287.0027800000001 240.60450000000003,287.50898000000007 C 241.01997000000003,288.54197000000005 241.23364000000004,289.0729400000001 241.68533000000002,290.1706300000001 C 242.16418000000002,291.33436000000006 242.42030000000003,291.9435500000001 242.68666000000002,292.57065000000006 C 242.96028,293.21488000000005 243.24307000000002,293.87357000000003 243.54167,294.54163000000005 C 244.15431,295.9123000000001 244.47526000000002,296.60825000000006 245.16667,297.9999700000001 C 245.51576,298.70267000000007 245.882,299.4004500000001 246.25717,300.09546000000006 C 246.63267,300.79111000000006 247.018,301.4807400000001 247.41066,302.16397000000006 C 247.80171,302.84442000000007 248.19435000000001,303.51892000000004 249.0,304.83331000000004 C 249.39673,305.48056 249.79866,306.11633000000006 250.2045,306.74279 C 250.60802999999999,307.36568 251.01785,307.98116 251.43601,308.58929 C 251.85421000000002,309.19751 252.27576000000002,309.80572 253.16668,310.99997 C 253.61686,311.60342 254.5577,312.79874 255.04667,313.38931 C 255.53773,313.98242000000005 256.04218000000003,314.56799 256.56168,315.14279000000005 C 257.08219,315.7187200000001 258.16272000000004,316.83734000000004 258.72150000000005,317.37881000000004 C 259.28141000000005,317.92138000000006 259.85633000000007,318.45275000000004 260.43601000000007,318.98529 C 261.01999000000006,319.52176000000003 261.61271000000005,320.05911000000003 262.20450000000005,320.6098 C 262.80341000000004,321.16708 264.00345000000004,322.32992 264.6003400000001,322.94262000000003 C 265.20621000000006,323.56454 265.8078900000001,324.20632 266.4213200000001,324.85064000000006 C 267.0405500000001,325.50103000000007 267.6665300000001,326.1547800000001 268.3143300000001,326.7946400000001 C 268.96521000000007,327.43752000000006 270.31308000000007,328.6922800000001 271.0604800000001,329.2611300000001 C 271.8892200000001,329.8918700000001 272.9677100000001,330.5381700000001 274.3919900000001,331.1946300000001 C 276.2062000000001,332.0308100000001 278.59057000000007,332.91021000000006 281.6115000000001,333.92012000000005 C 285.34978000000007,335.16985000000005 295.4947700000001,338.1849500000001 302.0400000000001,340.03246000000007 C 309.4142100000001,342.11397000000005 317.42669000000006,344.3063600000001 325.85998000000006,346.57995000000005 C 334.4966100000001,348.90835000000004 343.13680000000005,351.19888000000003 351.57000000000005,353.39745000000005 C 359.57696000000004,355.48491000000007 373.4945900000001,359.02218000000005 379.0425000000001,360.35497000000004 C 383.6356100000001,361.45839000000007 387.3915300000001,362.31392000000005 390.4200000000001,362.91997000000003 C 392.8080300000001,363.39784000000003 394.6763200000001,363.71141000000006 396.1274900000001,363.86495 C 397.2576800000001,363.98452000000003 398.9999900000001,363.99996000000004 399.79998000000006,363.99996000000004 C 400.6000000000001,363.99996000000004 401.39999000000006,363.99996000000004 402.20000000000005,363.99996000000004 C 402.99999,363.99996000000004 403.79998000000006,363.99996000000004 404.59999000000005,363.99996000000004 C 405.39998,363.99996000000004 406.99998000000005,364.00048000000004 407.79997000000003,363.99981 C 408.59999000000005,363.99914 409.40001,363.99746000000005 410.19999,363.98928 C 411.00001000000003,363.9811 411.80006000000003,363.96746 412.59998,363.94280000000003 C 413.40009000000003,363.91814000000005 415.00031,363.83791 415.79947000000004,363.77846000000005 C 416.59635000000003,363.71919 417.38684000000006,363.64641000000006 418.16797,363.56395000000003 C 418.93787000000003,363.48268 419.69232000000005,363.39217 420.42847,363.29546000000005 C 421.14435000000003,363.20140000000004 422.50037000000003,363.00246000000004 423.13581,362.8998 C 423.74705,362.80105000000003 424.33802,362.69832 424.91330999999997,362.58928000000003 C 425.47968999999995,362.48192 426.03999,362.36397000000005 426.60080999999997,362.24278000000004 L 427.16664,362.11461" fill="none" id="svg_6" stroke="#000" stroke-width="2"/>
	<path d="M 310.0,136.0 C 313.31467,139.032 314.01321,139.45804 314.59866,139.968 C 315.45387999999997,140.71295999999998 315.81230999999997,141.2633 316.39999,142.10898999999998 C 317.013,142.99111999999997 317.3894,143.60475999999997 317.79998,144.17865999999998 C 318.38509,144.99652999999998 319.1639,145.90691999999999 319.78933,146.31732999999997 C 320.47973,146.77037999999996 322.43667,147.01541999999998 321.93832000000003,147.59015999999997 C 321.43832000000003,148.16676999999996 321.02160000000003,146.16406999999998 320.14932000000005,146.04665999999997 C 319.23486,145.92356999999998 319.33835000000005,146.99379999999996 319.86133000000007,147.42134 C 320.52378000000004,147.96289 321.1006500000001,148.77746 321.52085000000005,149.5 C 321.95243000000005,150.2421 322.76163,151.04431 323.26133000000004,151.34933 C 324.04026000000005,151.82481 324.86359000000004,152.30278 325.54734,153.00982000000002 C 326.02189000000004,153.50056 326.40470000000005,154.09931000000003 327.42152000000004,155.07865 C 327.93415000000005,155.57239 328.52391000000006,155.99608 329.10450000000003,156.45266 C 330.00477,157.16064 330.60841000000005,157.67506 331.18934,158.23599000000002 C 331.774,158.80050000000003 332.32664,159.39129000000003 333.07902,160.29983000000001 C 333.80772,161.17976000000002 334.26237000000003,161.80180000000001 334.85469,162.31466 C 335.81227,163.14384 336.25465,163.32476 337.11867,163.80666 C 337.58193,164.06504999999999 338.57817,164.6122 339.08934,164.93999 C 340.18324,165.64147 340.72618,166.08025999999998 341.28801,166.53865 C 341.87077,167.01411 342.45664999999997,167.52347 343.06252,168.04165999999998 C 343.682,168.57148999999998 344.30993,169.11482999999998 344.972,169.63465999999997 C 346.31563,170.68963999999997 347.03752,171.16569999999996 347.77067999999997,171.63064999999997 C 348.50892999999996,172.09881999999996 349.26973,172.54267 350.04168,172.97915999999998 C 350.81905,173.41871999999998 351.61003999999997,173.84632999999997 352.4027,174.28266 C 354.00203,175.16299999999998 354.8026,175.61738 355.60003,176.08799 C 356.40267,176.5617 357.20342,177.05201 358.00002,177.56249 C 358.80346000000003,178.07734 359.6064,178.60972 360.40001,179.17199 C 362.0132,180.31494999999998 362.80318,180.93903 363.60133,181.56932999999998 C 364.40757,182.206 365.21092000000004,182.86102999999997 366.02086,183.52082 C 366.83626000000004,184.18504 367.65294,184.85715 368.48534,185.51733 C 370.15819,186.84407 371.01879,187.48298 371.88802,188.11733999999998 C 372.76313999999996,188.75600999999997 373.65609,189.38716 374.56252,190.02083 C 375.4814,190.66319 376.41964,191.30868999999998 377.37203,191.96932999999999 C 379.33501,193.33097999999998 380.34444,194.04054 381.36803,194.77066 C 382.40711999999996,195.51184 383.45304999999996,196.26877 384.50001999999995,197.04166999999998 C 385.55177999999995,197.8181 386.59966,198.60253999999998 387.6320099999999,199.40265999999997 C 389.67659999999995,200.98728999999997 390.6617999999999,201.79476999999997 391.62934999999993,202.60399999999996 C 392.59043999999994,203.40782999999996 393.53397999999993,204.22536999999997 394.4583599999999,205.06249999999994 C 395.3846899999999,205.90140999999994 396.30146999999994,206.76088999999993 397.19733999999994,207.65600999999995 C 399.02158999999995,209.47866999999997 399.9046799999999,210.46040999999994 400.8026899999999,211.45466999999996 C 401.71345999999994,212.46302999999997 402.62101999999993,213.49763999999996 403.54166999999995,214.54167999999996 C 404.47165999999993,215.59630999999996 405.40628999999996,216.66363999999996 406.37067999999994,217.71867999999995 C 408.31720999999993,219.84819999999996 409.3381799999999,220.88314999999994 410.36801999999994,221.91600999999994 C 411.4008299999999,222.95184999999995 412.45065999999997,223.97467999999995 413.5000099999999,225.00000999999995 C 414.5493599999999,226.02533999999994 415.6022099999999,227.04515999999995 416.6319999999999,228.08400999999995 C 418.6817699999999,230.15181999999996 419.6644099999999,231.21515999999994 420.6293399999999,232.28799999999995 C 421.5930899999999,233.35952999999995 422.5346399999999,234.45179999999996 423.4583499999999,235.56250999999995 C 424.3853499999999,236.67714999999995 425.2991399999999,237.81247999999994 426.1973299999999,238.97200999999995 C 428.0165999999999,241.32057999999995 428.9028399999999,242.54088999999996 429.8013299999999,243.76933999999994 C 430.7071799999999,245.00786999999994 431.6102299999999,246.26165999999995 432.5208399999999,247.52083999999994 C 433.4355699999999,248.78566999999993 434.3513499999999,250.05614999999995 435.2853399999999,251.31734999999995 C 437.1549999999999,253.84200999999996 438.1170699999999,255.08170999999996 439.0840199999999,256.3133399999999 C 440.0484099999999,257.54169999999993 441.0228599999999,258.7553299999999 442.0000099999999,259.9583599999999 C 442.97223999999994,261.1553199999999 443.9466299999999,262.3389399999999 444.91599999999994,263.5133499999999 C 446.83194999999995,265.8345199999999 447.77930999999995,266.9773999999999 448.71201999999994,268.1133599999999 C 449.6349599999999,269.2374399999999 450.54477999999995,270.35163999999986 451.4375099999999,271.4583599999999 C 452.31943999999993,272.5516799999999 453.1861399999999,273.63447999999994 454.02802999999994,274.7133599999999 C 455.6764099999999,276.8257899999999 456.4598199999999,277.8759899999999 457.2280099999999,278.9119999999999 C 457.98410999999993,279.9316799999999 458.71872999999994,280.9416599999999 459.4375099999999,281.9375099999999 C 460.1440199999999,282.91635999999994 460.83307999999994,283.8817199999999 461.51199999999994,284.8280099999999 C 462.83188999999993,286.6676999999999 463.4772699999999,287.5578999999999 464.11465999999996,288.4293299999999 C 464.74163999999996,289.28656999999987 465.36322999999993,290.12860999999987 465.97916,290.9583499999999 C 466.58853999999997,291.7792399999999 467.19509999999997,292.5913199999999 467.79868,293.3973499999999 C 468.99921,295.00058999999993 469.60096,295.7987499999999 470.19602,296.5986699999999 C 470.78797,297.3944199999999 471.37183,298.1866199999999 471.93751,298.9791599999999 C 472.49577,299.76132999999993 473.03898,300.5359499999999 473.54402,301.3146699999999 C 474.52046,302.82028999999994 474.94319,303.57427999999993 475.34400999999997,304.3146699999999 C 475.73603999999995,305.03881999999993 476.09720999999996,305.7615399999999 476.43751999999995,306.4791599999999 C 476.77314999999993,307.18691999999993 477.08921999999995,307.89431999999994 477.39601999999996,308.5986699999999 C 478.00539999999995,309.9976899999999 478.29891,310.6999599999999 478.60002999999995,311.3959999999999 C 478.89894999999996,312.0869499999999 479.19719999999995,312.7692899999999 479.50001999999995,313.4374999999999 C 479.79722999999996,314.0932899999999 480.0922699999999,314.7323299999999 480.40000999999995,315.3439899999999 C 480.98536999999993,316.5074699999999 481.2943599999999,317.0381699999999 481.59734,317.5399999999999 C 481.88597999999996,318.0180899999999 482.17497999999995,318.4625199999999 482.45835999999997,318.8749899999999 C 482.72452999999996,319.26240999999993 482.98249999999996,319.6173899999999 483.22936,319.9399899999999 C 483.66114999999996,320.50425999999993 483.85631,320.7359499999999 484.02804,320.9439899999999 C 484.18068999999997,321.12889999999993 484.31822999999997,321.29124999999993 484.43751999999995,321.4374899999999 C 484.54347999999993,321.5673399999999 484.63847999999996,321.6833099999999 484.71202999999997,321.79597999999993 C 484.84178999999995,321.9947399999999 484.88609999999994,322.0974299999999 484.90801,322.19731999999993 C 484.92827,322.2896099999999 484.92348,322.38570999999996 484.87502,322.4583399999999 C 484.82189,322.5379899999999 484.71358,322.6006999999999 484.57201000000003,322.6293299999999 C 484.17302,322.70998999999995 483.89107,322.66466999999994 483.56935000000004,322.62398999999994 C 483.19932000000006,322.5772099999999 482.78581,322.4940199999999 482.33336,322.37499999999994 C 481.83608000000004,322.2441999999999 481.30052,322.07692999999995 480.73735000000005,321.85598999999996 C 479.48695000000004,321.36542 478.83061000000004,321.02185 478.14003,320.65466999999995 C 477.41029000000003,320.26663999999994 476.65642,319.82995999999997 475.87502,319.35416 C 475.0562,318.85555999999997 474.21108,318.31647 473.34002,317.73868 C 471.4916,316.51261 470.53387,315.83875 469.54803,315.14533 C 468.53979,314.43616000000003 467.52162999999996,313.70594 466.50003,312.95835 C 465.47362999999996,312.20727999999997 464.45364,311.44941 463.45203,310.68134 C 461.4914,309.17785999999995 460.56116,308.42492999999996 459.65335,307.68268 C 458.75952,306.95188 457.88439999999997,306.21732000000003 457.02087,305.47916 C 456.15774,304.74134 455.29745,303.99213 454.43335,303.23066 C 452.66315000000003,301.67069 451.75616,300.85725 450.82669000000004,300.02668 C 449.87616,299.17728 448.90622,298.30723 447.91669,297.41666 C 446.90619000000004,296.50723999999997 445.87601,295.57743 444.82669000000004,294.62667999999996 C 442.66525,292.66823999999997 441.55579000000006,291.65749999999997 440.42670000000004,290.62533999999994 C 439.27576000000005,289.57321999999994 438.10511,288.49774999999994 436.91669,287.39584999999994 C 435.70505,286.27243999999996 434.47324000000003,285.12317999999993 433.22669,283.94134999999994 C 430.65955,281.50750999999997 429.35627,280.23644999999993 428.02805,278.94665999999995 C 426.68058,277.63815999999997 425.31971,276.31089 423.93753,274.97916 C 422.54506999999995,273.63755 421.14227,272.29181 419.71204,270.96668 C 416.85013,268.31513 415.38367,267.038 413.92005,265.77201 C 412.46531,264.51371 411.00727,263.28199 409.56254,262.06251000000003 C 408.13395,260.85667 406.71836,259.67298000000005 405.34004,258.48802 C 402.65529,256.17988 401.38209,255.02685 400.14405999999997,253.89068 C 398.93352,252.77972 397.76453999999995,251.67956 396.62505,250.60418 C 395.5139,249.55555 394.43752,248.5277 393.37606,247.54267000000002 C 391.34313,245.65612000000002 390.34893,244.7793 389.36938,243.94401000000002 C 388.41571,243.13078000000002 387.46779999999995,242.35710000000003 386.5209,241.62501000000003 C 385.59161,240.90655000000004 384.66137,240.21862000000004 383.7174,239.57601000000003 C 381.85174,238.30596000000003 380.8832,237.73646000000002 379.92007,237.17200000000003 C 378.96478,236.61216000000002 378.00814,236.08004000000003 377.06256,235.56250000000003 C 376.13480000000004,235.05473000000003 375.22241,234.56949000000003 374.34006,234.08800000000002 C 372.66327,233.17298000000002 371.8848,232.72472000000002 371.14408,232.28934 C 370.43618999999995,231.87326000000002 369.76585,231.46723 369.12507,231.08333000000002 C 368.51518,230.71794000000003 367.93702,230.36781000000002 367.37608,230.05733 C 366.34169,229.48479 365.84669,229.25664 365.37208,229.05733 C 364.92204,228.86833000000001 364.48274,228.71868 364.06257,228.58333000000002 L 363.65742,228.46800000000002 L 363.26625,228.37066000000002 L 362.88808,228.28933" fill="none" id="svg_7" stroke="#000" stroke-width="2"/>
	<path d="M 420.0,354.0 C 428.79285,348.72168 429.37918,348.29071 429.92316,347.86166 C 430.44443,347.45052999999996 430.93207,347.03493999999995 431.89185,346.26165 C 432.36139,345.88334999999995 433.32165999999995,345.14855 434.37066999999996,344.484 C 434.90851,344.14327 435.47076999999996,343.8232 436.04166,343.49998999999997 C 436.62012,343.17247999999995 437.80811,342.52540999999997 439.0,341.83333 C 439.60294,341.48323 440.20245,341.11647 440.8045,340.74280999999996 C 441.41183,340.36585999999994 442.02072000000004,339.97896 442.63598,339.58930999999995 C 443.88509,338.79825999999997 445.16549000000003,337.99805999999995 445.82116,337.60013999999995 C 446.48150000000004,337.19937999999996 447.14755,336.80344999999994 447.81466,336.41065999999995 C 448.47854,336.01978999999994 449.13854,335.63575999999995 449.79015,335.25715999999994 C 450.43053,334.8851199999999 451.66787,334.16874999999993 452.25682,333.8213099999999 C 453.3835,333.1566699999999 453.92076000000003,332.8307699999999 454.43748,332.4999899999999 C 455.44061999999997,331.8578099999999 455.92735,331.5362799999999 456.83332,330.83332999999993 C 457.72898000000004,330.13834999999995 458.13834,329.7563599999999 458.95832,329.0416399999999 C 459.35334,328.69733999999994 460.11332,328.0546399999999 461.17866000000004,327.26413999999994 L 461.8473,326.8624699999999 L 462.49998,326.52082999999993 L 463.15265999999997,326.19913999999994" fill="none" id="svg_8" stroke="#000" stroke-width="2"/>
	<path d="M 311.0,165.0 C 318.0,172.0 318.70001,172.70084 319.40399,173.40266 C 320.113,174.10949 320.83081000000004,174.82254 321.5625,175.54167 C 322.30682,176.27322 323.06882,177.01712 323.85599,177.77066000000002 C 325.49445000000003,179.33914000000001 326.36365,180.14441000000002 327.25733,180.97333000000003 C 328.17496,181.82445000000004 329.11905,182.69290000000004 330.08335000000005,183.58333000000005 C 331.06840000000005,184.49291000000005 332.07343000000003,185.42040000000006 333.0893300000001,186.37334000000004 C 335.1723400000001,188.32730000000004 336.2224500000001,189.34221000000005 337.28800000000007,190.36934000000005 C 338.36680000000007,191.40921000000006 339.45502000000005,192.46376000000006 340.5625100000001,193.52083000000005 C 341.6803400000001,194.58779000000004 342.8107700000001,195.66068000000004 343.97199000000006,196.71733000000003 C 346.31714000000005,198.85129000000003 347.5391900000001,199.88351000000003 348.77067000000005,200.91867000000002 C 350.01054000000005,201.96089 351.2724400000001,202.99548000000001 352.54167000000007,204.04167 C 353.82176000000004,205.09682 355.11653000000007,206.15814 356.40269000000006,207.25467 C 359.01536000000004,209.4821 360.3043600000001,210.65839 361.59602000000007,211.84934 C 362.8914000000001,213.04372 364.16908000000006,214.25355000000002 365.4375100000001,215.45833000000002 C 366.6930600000001,216.65088000000003 367.9234400000001,217.83304 369.14402000000007,218.97734000000003 C 371.4903300000001,221.17703000000003 372.6313600000001,222.19627000000003 373.7386900000001,223.17200000000003 C 374.80714000000006,224.11348000000004 375.84938000000005,225.00930000000002 376.85417000000007,225.87500000000003 C 377.82405000000006,226.71063000000004 378.76454000000007,227.51280000000003 379.65468000000004,228.30800000000002 C 381.34618000000006,229.81909000000002 382.11870000000005,230.57361000000003 382.86,231.312 C 383.58028,232.02942000000002 384.26683,232.74253000000002 384.93751000000003,233.4375 C 385.59349000000003,234.1172 386.23158,234.78879 386.88001,235.42799 C 388.15192,236.68179 388.81635,237.26205 389.48002,237.828 C 390.13477,238.38635 390.79261,238.91823 391.43751000000003,239.4375 C 392.06599000000006,239.94356 392.6815,240.42703 393.26002000000005,240.912 C 394.34407000000004,241.82071000000002 394.81925000000007,242.27319 395.26002000000005,242.71333 C 395.68077000000005,243.13348000000002 396.06669000000005,243.55333000000002 396.43751000000003,243.95833000000002 L 396.79334000000006,244.35333000000003 L 397.13917000000004,244.73832000000002 L 397.48002,245.11332000000002" fill="none" id="svg_9" stroke="#000" stroke-width="2"/>
	<path d="M 355.0,215.0 C 354.08533,220.14667 354.01154,220.97899 354.00134,221.76666 C 353.98578000000003,222.97056 354.0,223.67199 354.0,224.42134000000001 C 354.0,225.20267 354.0119,226.40005000000002 353.991,227.19549 C 353.9704,227.97958 353.96936,228.76303000000001 353.66666,229.83332000000001 C 353.37386999999995,230.86857 352.97538,231.46798 352.70533,232.09550000000002 C 352.1955,233.28024000000002 352.16373,233.89669 351.98533,234.692 C 351.72486,235.85313000000002 350.97580999999997,236.37939 351.16666999999995,237.33333000000002 C 351.30503999999996,238.02493 351.59079999999994,238.84831000000003 352.33335999999997,239.83333000000002 C 352.72657999999996,240.35494000000003 353.27943999999997,240.78928000000002 353.85735,241.26134000000002 C 354.48455,241.77364000000003 355.53096,242.63327 356.25719,243.32334000000003 C 356.64106999999996,243.68809000000002 357.0327,244.07244000000003 357.80451999999997,244.92335000000003 C 358.20759999999996,245.36775000000003 359.00795,246.32723000000001 359.80533999999994,247.37335000000002 C 360.2221799999999,247.92019000000002 360.64111999999994,248.49452000000002 361.08335999999997,249.08334000000002 C 361.54240999999996,249.69456000000002 362.0211,250.32940000000002 362.54134,250.97334 C 363.65065,252.34643 364.28127,253.04812 364.94536,253.77334000000002 C 365.63677,254.52836000000002 366.37221,255.29710000000003 367.14585999999997,256.08335 C 367.94672999999995,256.89725 368.78562999999997,257.72733 369.66135999999995,258.57334 C 371.49192999999997,260.34173999999996 372.4635099999999,261.24372 373.45334999999994,262.17066 C 374.46182999999996,263.11505999999997 375.48798999999997,264.07059 376.52084999999994,265.04166 C 377.56134999999995,266.0199 378.6046799999999,267.00329999999997 379.6333399999999,268.00266 C 381.6776799999999,269.98874 382.66009999999994,270.9975 383.6333399999999,272.0 C 384.60171999999994,272.9975 385.55871999999994,274.00125 386.52084999999994,275.0 C 387.48538999999994,276.00125 388.45446999999996,277.00803 389.45334999999994,278.0 C 391.48380999999995,280.01645 392.56012999999996,281.00458 393.6533299999999,282.00134 C 394.7584299999999,283.00897000000003 395.88681999999994,284.01053 397.02084999999994,285.02084 C 398.16015999999996,286.03585000000004 399.30627999999996,287.04937 400.43332999999996,288.08532 C 402.68094999999994,290.15124000000003 403.76167,291.21664000000004 404.83066999999994,292.28265000000005 C 405.89466999999996,293.34369000000004 406.9386999999999,294.41464 407.97916999999995,295.47915000000006 C 409.01471999999995,296.53863000000007 410.04062999999996,297.59771000000006 411.08268999999996,298.63067000000007 C 413.15180999999995,300.6817300000001 414.21482999999995,301.66296000000006 415.28002,302.62399000000005 C 416.33326999999997,303.57425000000006 417.38903,304.49045000000007 418.43752,305.37500000000006 C 419.46248,306.23972000000003 420.47155,307.06772000000007 421.46001,307.8559900000001 C 423.32531,309.3435100000001 424.21218,310.01700000000005 425.06136000000004,310.66001000000006 C 425.87829000000005,311.27860000000004 426.67550000000006,311.86921000000007 427.45836,312.43751000000003 C 428.22756000000004,312.99586000000005 428.99449000000004,313.54182000000003 429.76534000000004,314.08000000000004 C 431.32961000000006,315.17210000000006 432.14205000000004,315.72255000000007 432.96935,316.28401 C 433.80904000000004,316.8539 434.66060000000004,317.42650000000003 435.52086,318.00001000000003 C 436.38460000000003,318.57585000000006 437.25069,319.14915 438.11736,319.71601000000004 C 439.83104000000003,320.83689000000004 440.678,321.37910000000005 441.51336000000003,321.91468000000003 C 442.33801000000005,322.44340000000005 443.15368,322.96348 443.95837000000006,323.47916000000004 C 444.75369000000006,323.98883000000006 445.54004000000003,324.49292 446.31335000000007,324.99866000000003 C 447.83670000000006,325.99491 448.5791900000001,326.49912 449.31604000000004,326.99866000000003 C 450.04785000000004,327.49478000000005 450.77353000000005,327.99106 451.50003000000004,328.47916000000004 C 452.22421,328.9657 452.94842000000006,329.44953000000004 453.68402000000003,329.91468000000003 C 455.15823000000006,330.84684000000004 455.91928,331.28068 456.67737000000005,331.71467 C 457.42899000000006,332.14497 458.1741400000001,332.56037000000003 458.89588000000003,332.97917 C 459.59675000000004,333.38585 460.27268000000004,333.77867000000003 460.88938,334.19868 C 462.02134,334.96965 462.48246,335.38835 462.88938,335.79869 C 463.27247,336.18498 463.60166000000004,336.58406 463.89588000000003,336.97917 C 464.17881000000006,337.35908 464.42817,337.74422 464.67737000000005,338.11467 C 465.16269000000005,338.83608 465.41699000000006,339.18149999999997 465.68271000000004,339.51201 C 465.94412000000005,339.83716999999996 466.21469,340.14268999999996 466.47919,340.43751999999995 L 466.73871,340.71736999999996 L 466.99021000000005,340.98118999999997 L 467.23069000000004,341.22801999999996" fill="none" id="svg_10" stroke="#000" stroke-width="2"/>
	<path d="M 262.0,132.0 C 266.22665,135.03067 267.08942,135.32886 267.66666,136.16667 C 268.0687,136.7502 268.0,137.83333000000002 268.0,138.66133000000002 C 268.0,139.54266 268.0,140.50000000000003 268.0,141.23199000000002 L 268.0,142.32800000000003" fill="none" id="svg_11" stroke="#000" stroke-width="2"/>
	<path d="M 301.0,306.0 C 299.24283,311.72183 299.15454,312.28671 299.06134,313.45734 C 299.01318,314.06194999999997 298.98726999999997,314.68277 298.95183999999995,315.31885 C 298.8395699999999,317.33371 298.7839599999999,318.04373 298.71065999999996,318.77201 C 298.63543,319.51948000000004 298.54049,320.28397 298.41664999999995,321.06251000000003 C 298.28999999999996,321.85877000000005 298.14064999999994,322.67002 297.94264999999996,323.48802 C 297.53419999999994,325.17534 297.24449999999996,326.02437000000003 296.94533999999993,326.88402 C 296.64192999999995,327.75585 296.3069699999999,328.62706000000003 295.9583399999999,329.50002 C 295.6083299999999,330.37642 295.2433099999999,331.24721 294.8813399999999,332.11602 C 294.16597999999993,333.83308999999997 293.8183199999999,334.67696 293.4879999999999,335.51336 C 293.1627099999999,336.33702999999997 292.8522599999999,337.15151 292.5624899999999,337.95837 C 292.2776399999999,338.75158 292.00819999999993,339.53506 291.7719899999999,340.31335 C 291.3125799999999,341.82724 291.1363999999999,342.57684 290.9706599999999,343.31335 C 290.8078199999999,344.03692 290.6679899999999,344.75262000000004 290.5416399999999,345.45837 C 290.4173699999999,346.15264 290.30765999999994,346.83816 290.2026499999999,347.51336 C 289.9974199999999,348.83297 289.90161999999987,349.47862999999995 289.79865999999987,350.11337 C 289.6972499999999,350.73864 289.59263999999985,351.35396999999995 289.47913999999986,351.95837 C 289.36728999999985,352.55401 289.27619999999985,353.14679 288.8333299999999,354.83337 C 288.68946999999986,355.38131 288.35053999999985,356.43945 288.1746399999999,356.95337 C 287.8316199999999,357.95554 287.6342999999999,358.4321 287.1666399999999,359.83337 C 286.8737599999999,360.7109 286.75031999999993,361.14096 286.52082999999993,361.97918 C 286.29783999999995,362.79372 285.99711999999994,363.99932 285.8013199999999,364.7987 C 285.6078099999999,365.58865 285.4190899999999,366.36083 285.28532999999993,367.11468 C 285.09730999999994,368.17422000000005 285.10417999999993,369.16098 284.8901599999999,369.9812 C 284.6535599999999,370.88794 283.8489599999999,371.35971 283.3333399999999,372.16669 C 282.8646199999999,372.90024 282.72246999999993,373.86121 282.0280099999999,374.08271 C 280.9947499999999,374.41227000000003 280.4185699999999,374.52222 279.51198999999986,374.97202000000004 C 278.45455999999984,375.49668 277.74672999999984,376.00446000000005 277.37465999999984,376.25071 C 276.6240799999998,376.74751000000003 275.90364999999986,377.2667 274.82131999999984,377.85737 C 274.16393999999985,378.21613 273.48501999999985,378.46974 272.5159899999998,378.96803 C 271.4611499999998,379.51045 271.1110499999998,379.76393 270.36400999999984,380.26136 C 269.5855399999998,380.77973000000003 268.80632999999983,381.32941000000005 267.99999999999983,381.83338000000003 C 267.2086499999998,382.32798 266.40941999999984,382.77256000000006 266.02083999999985,383.00004 C 265.25469999999984,383.44853 264.15538999999984,384.15217 263.48799999999983,384.68138 C 262.84617999999983,385.19032 262.33937999999984,385.77562 261.33333999999985,386.50004 C 260.72429999999986,386.93861000000004 260.7294899999998,387.01707 261.76448999999985,386.99955 C 262.70839999999987,386.98356 263.44423999999987,386.94559 264.20399999999984,386.74403 C 265.4256199999998,386.41993 265.81874999999985,386.17381 266.59999999999985,385.68138 C 267.4209799999999,385.16391999999996 267.81636999999984,384.84882999999996 268.99998999999985,383.83339 C 269.40538999999984,383.48561 270.19126999999986,382.7567 270.57865999999984,382.39604 C 271.3285099999998,381.69795000000005 272.0036499999998,381.02354 272.95698999999985,380.26454 C 273.47233999999986,379.85423000000003 274.1724399999998,379.41994 275.1998199999999,378.90022 C 275.78587999999985,378.60374 276.97258999999985,378.42152 277.5533399999999,377.9387 C 278.2413599999999,377.36668 278.1891399999999,376.13023 278.81883999999985,376.00903999999997 C 279.75352999999984,375.82917 280.5533399999999,375.97922 281.40266999999983,376.17069 C 282.31730999999985,376.37687 283.20433999999983,376.84844999999996 283.76399999999984,377.22137999999995 C 284.86479999999983,377.95489999999995 285.30928999999986,378.41443 286.06248999999985,379.02088 C 286.61647999999985,379.46691999999996 287.66380999999984,380.17141999999996 288.0856499999999,380.4217 C 289.0135099999999,380.97218 289.52436999999986,381.24372 290.04163999999986,381.5417 C 291.10721999999987,382.15553 291.65409999999986,382.45808 292.66663999999986,383.1667 C 293.64893999999987,383.85417 294.08570999999984,384.24363 294.9583299999999,384.95839 C 295.37867999999986,385.30269 296.1721399999999,385.98372 296.99998999999985,386.50005 C 297.77543999999983,386.98368999999997 298.58274999999986,387.30413 299.32798999999983,387.64006 C 300.0333099999998,387.95802000000003 300.97697999999986,388.5208 301.49015999999983,389.00539 C 302.2451599999998,389.71837 302.6259299999998,390.30877 303.6826599999998,391.03072 C 304.1902299999998,391.37748999999997 305.0614699999998,391.6527 305.85715999999985,392.32122 C 306.55039999999985,392.90364999999997 307.63748999999984,393.19075999999995 307.9374799999998,393.9584 C 307.95444999999984,394.0018 306.9999799999998,394.00005999999996 306.1893099999998,394.00005999999996 C 305.3146499999998,394.00005999999996 304.3113799999998,394.02777 303.4583199999998,393.9584 C 302.8361299999998,393.9078 301.82501999999977,393.69046 301.1159699999998,393.42938 C 300.3650199999998,393.15288999999996 299.6180799999998,392.79245 298.8839799999998,392.3974 C 297.8108899999998,391.81992 297.14526999999975,391.42969 296.28262999999976,390.80005 C 295.75869999999975,390.41763 294.99487999999974,389.57861 294.49997999999977,389.02091 C 293.70792999999975,388.1283 292.9971999999998,387.75168 292.2506499999998,387.41074000000003 C 291.3363999999998,386.99323000000004 290.52359999999976,386.67624 290.1666399999998,385.83341 C 289.8431799999998,385.06968 289.64496999999983,384.01221000000004 288.6788199999998,384.00055000000003 C 288.0179599999998,383.99258000000003 287.1956999999998,384.65338 287.0208299999998,385.52091 C 286.8785599999998,386.22669 286.5669399999998,387.15366 286.2839799999998,387.88273000000004 C 285.9312899999998,388.79145000000005 286.4613499999998,390.02000000000004 285.9428199999998,390.63841 C 285.4286299999998,391.25166 285.00064999999984,390.11342 284.9999799999998,389.17473 C 284.99924999999985,388.16673000000003 285.03317999999985,387.44658 284.55731999999983,386.45741000000004 C 284.20306999999985,385.72102000000007 283.76068999999984,385.29558000000003 283.24280999999985,384.14308000000005 C 282.92874999999987,383.44417000000004 282.6007799999999,382.46983000000006 281.66663999999986,382.16673000000003 C 281.00635999999986,381.95250000000004 280.14270999999985,382.00648 279.5119799999999,382.00142000000005 C 278.4781999999999,381.99309000000005 277.3426699999999,382.00008 276.51731999999987,382.00008 C 276.0811599999999,382.00008 274.66663999999986,382.00008 273.62665999999984,382.00008 C 273.0766399999998,382.00008 272.50662999999986,382.00008 271.3066499999998,382.00008 C 270.6766499999998,382.00008 270.02664999999985,381.99974000000003 268.6666399999998,382.00008 C 267.9571399999998,382.00026 267.2304499999998,381.99211 265.7386599999998,382.02141 C 264.9790199999998,382.03633 264.2142199999998,382.06505 263.4481599999998,382.1144 C 262.6821699999998,382.16375 261.1650799999998,382.32331999999997 260.4216399999998,382.44326 C 259.6849799999998,382.5621 258.9595699999998,382.71017 258.2466499999998,382.88274 C 257.5394699999998,383.05391000000003 256.8421399999998,383.24315 256.16162999999983,383.46624 C 254.15245999999982,384.1249 253.51944999999984,384.41674 252.88530999999983,384.68542 C 252.25508999999983,384.95245 251.63400999999985,385.23187 251.02080999999984,385.52093 C 249.80049999999983,386.09622 249.20111999999983,386.40103000000005 247.99997999999985,387.00009 C 247.39986999999985,387.29938 246.80637999999985,387.60971 245.59998999999985,388.16809 C 245.00306999999984,388.44437 244.40767999999986,388.71262 243.79998999999984,388.92859 C 242.02045999999984,389.56101 241.40269999999984,389.64862 240.80398999999983,389.74676999999997 C 239.63578999999982,389.93827 239.06216999999984,389.97634999999997 238.50797999999983,390.0401 C 237.45531999999983,390.16122 236.05254999999983,390.4086 235.28048999999984,390.70541 C 234.59188999999984,390.97015 234.02781999999985,391.29476999999997 232.96931999999984,391.82942999999995 L 232.11732999999984,391.99742999999995 L 231.21731999999983,392.02142" fill="none" id="svg_12" stroke="#000" stroke-width="2"/>
	<path d="M 331.0,326.0 C 332.75699,330.62183 332.89468,331.56546 332.92801,332.05734 C 332.99740999999995,333.08157 332.99548,333.6188 333.0,335.33334 C 333.00159,335.94333 333.0,336.57333 333.0,337.89334 C 333.0,338.58334 333.0,339.29333 333.0,340.02334 C 333.0,340.77334 333.0,342.33334 333.0,343.14266000000003 C 333.0,343.96798 333.0,344.80532000000005 333.0,345.65066 C 333.0,346.49999 333.0,347.34933 333.0,348.19467000000003 C 333.0,349.03201 332.99948,350.66665 333.00015,351.45685000000003 C 333.00082000000003,352.228 333.00238,352.98120000000006 333.01068000000004,353.71735 C 333.01880000000006,354.43753000000004 333.03223,355.1428 333.05716,355.83384 C 333.08164,356.51215 333.21771,358.47855 333.284,359.11201 C 333.34909,359.73423 333.49997,360.93751 333.57468,361.51734 C 333.64731,362.08118 333.84192,363.66596 333.91599,364.63199 C 333.95145,365.09436 333.99027,366.00061 334.05268,366.90533999999997 C 334.15128,368.33450999999997 334.21473000000003,368.84301999999997 334.35267,369.89185 C 334.42201,370.41913 334.57496,371.44131999999996 334.64735,371.92316 C 334.83409,373.16654 334.7964,374.2432 335.00035,375.09983 C 335.18693,375.88349 336.16667,376.00001 335.37501000000003,376.00001 C 334.82035,376.00001 333.47828000000004,375.98895999999996 332.74284000000006,376.00901 C 331.9787400000001,376.02985 331.18257000000006,376.05268 330.00001000000003,376.33335 C 329.18760000000003,376.52616 328.39155000000005,376.85681999999997 327.56401000000005,377.14933 C 327.14394000000004,377.2978 325.83720000000005,377.68992000000003 324.91600000000005,377.83067 C 324.44899000000004,377.90202 323.49956000000003,377.97322 322.55269000000004,378.04816999999997 C 321.16594000000003,378.15794 320.71990000000005,378.21007 319.86168000000004,378.35267 C 319.03981000000005,378.48924 318.26631000000003,378.67716 317.16667,378.83335 C 316.17412,378.97434 315.20842,378.73484 314.36433,379.22135 C 313.60188,379.6608 313.92933,380.00001 314.77467,380.00001 C 315.64283,380.00001 316.66136,380.00001 317.38536,380.00001 C 318.11735,380.00001 319.17894,380.01396 320.17467,379.98933 C 320.82567,379.97321999999997 322.16826,379.84275 322.88401999999996,379.71601 C 323.62715,379.58441999999997 324.37224,379.41181 325.11600999999996,379.284 C 326.17520999999994,379.10202 327.15675,379.0575 328.03833999999995,378.94732999999997 C 329.08395999999993,378.81665 329.74911999999995,378.52777 330.59866999999997,378.284 C 331.58133999999995,378.00202 332.34283999999997,378.00144 333.36402,378.0 C 334.19867999999997,377.99884 334.97141,378.36493 335.00001,379.33334 C 335.01997,380.00952 335.00001,380.78534 335.00001,381.83334 C 335.00001,382.78534 335.00001,383.50982000000005 335.00001,384.64282000000003 C 335.00001,385.30984 335.00001,386.02084 335.00001,387.11734 C 335.00001,388.17868 335.00001,388.84732 335.00001,389.82535 C 335.00001,390.48401 335.00001,391.52133000000003 335.00001,392.62534 C 335.00001,393.37467 335.00001,394.116 335.00001,395.17817 C 335.00001,396.14268000000004 335.00001,396.98118 335.00001,397.857 C 335.00001,398.79734 335.00001,399.62534000000005 335.00001,398.94135 C 335.00001,397.94401 335.00001,397.292 335.00001,396.568 C 335.00001,395.00001 335.00001,394.20133 335.00001,393.41067999999996 C 335.00001,392.63598999999994 335.00001,391.88534999999996 335.00001,390.82165999999995 C 335.00001,389.84667999999994 335.00001,389.24667999999997 335.00001,388.16666 C 335.00001,387.22535 335.00001,386.54733999999996 335.00001,385.57883 C 335.00001,384.78533999999996 335.00001,383.76935 335.00001,382.80985 C 335.00001,381.83335 334.7657,380.79742999999996 335.443,380.24302 C 336.06925,379.73039 337.20016999999996,380.00001 338.02085,380.00001 C 338.68534,380.00001 339.68668,380.00001 340.54166,380.00001 C 341.48667,380.00001 342.52151999999995,380.00001 343.25718,380.00001 C 344.02085,380.00001 344.80451,380.00001 346.00001000000003,380.00001 C 346.8,380.00001 347.60002000000003,380.00001 348.40000000000003,380.00001 C 349.20002000000005,380.00001 350.40040000000005,379.98859999999996 351.20450000000005,380.00901 C 352.02124000000003,380.02973 352.86572000000007,380.06831 354.16666000000004,380.33335 C 354.62506,380.42673 355.55902000000003,380.70417 356.52085000000005,381.02085 C 357.01166000000006,381.18244 357.99644000000006,381.5333 359.00001000000003,381.83335 C 359.99406000000005,382.13056 360.49378,382.25019 361.47917,382.47916 C 362.44121,382.7027 362.91566,382.79434999999995 364.27833,383.09983 C 365.13896,383.29276 365.95563999999996,383.49264999999997 366.73834999999997,383.64283 C 367.82989999999995,383.85224 368.51649,383.88303 369.43751,384.02085 C 370.23298,384.13987 371.13883,384.75858 371.74818,385.29467999999997 C 372.43083,385.89529999999996 373.99784,385.83502 373.83467,386.57467999999994 C 373.61149,387.58639999999997 372.23494,386.97259999999994 371.48534,386.98931999999996 C 370.62416,387.00854999999996 369.15718,386.99999999999994 368.6307,386.99999999999994 C 368.0902,386.99999999999994 366.97918,386.99999999999994 366.4147,386.99999999999994 C 365.28267999999997,386.99999999999994 364.16668,386.99999999999994 363.0827,386.99999999999994 C 362.54818,386.99999999999994 361.47918,386.99999999999994 360.93869,386.99999999999994 C 359.83069,386.99999999999994 358.66669,386.99999999999994 358.05753,386.99999999999994 C 357.43334999999996,386.99999999999994 356.16004,386.99999999999994 355.52088,386.99999999999994 C 354.88669,386.99999999999994 353.65335999999996,387.0007299999999 352.50003999999996,386.99999999999994 C 351.45602999999994,386.99932999999993 350.97126,387.00676999999996 350.06253999999996,386.9791599999999 C 349.21313999999995,386.9533399999999 348.00003999999996,386.83334999999994 347.20404999999994,386.71334999999993 L 346.43204999999995,386.5533499999999 L 345.70804999999996,386.3533399999999 L 345.05603999999994,386.1133499999999" fill="none" id="svg_13" stroke="#000" stroke-width="2"/>
	<path d="M 440.0,342.0 C 443.96451,346.39999 444.45215,346.80496 444.9715,347.20001 C 445.50412,347.60516 446.63059,348.40207000000004 447.2135,348.79999000000004 C 447.80255,349.20212000000004 448.99975,350.00037000000003 449.60049000000004,350.40018000000003 C 450.20376000000005,350.80170000000004 450.81265,351.20581000000004 451.432,351.61066000000005 C 452.06161000000003,352.0221900000001 452.70660000000004,352.43821 453.37148,352.85718 C 454.05455,353.28760000000005 455.49831,354.1695 456.26415000000003,354.62116000000003 C 457.05163000000005,355.08558000000005 457.86086,355.55106 458.68667000000005,356.01468000000006 C 459.51919000000004,356.48209 460.35824,356.94193000000007 461.19915000000003,357.39017000000007 C 462.03161000000006,357.8339000000001 463.6646,358.67084000000006 464.45699,359.05683000000005 C 465.22735,359.43207000000007 465.98363,359.78565000000003 466.72799000000003,360.11735000000004 C 467.45638,360.44193000000007 468.17681000000005,360.74726000000004 468.89098,361.03385000000003 C 469.59551,361.31656000000004 470.99874,361.83692 471.7,362.07868 C 472.39876,362.31959 473.09969,362.54825 473.79998,362.77466000000004 C 474.49969,363.00092000000006 475.20058,363.22354 475.89999,363.45267 C 476.60058,363.68219 478.00125,364.16324000000003 478.69967,364.42118 C 479.39858000000004,364.6793 480.09118,364.9477 480.77865,365.21467 C 481.45852,365.47868 482.12704,365.74122 482.78567000000004,365.99018 C 483.4284,366.23313 485.25552000000005,366.86097 485.82666000000006,367.03068 C 486.37561000000005,367.1938 487.41901000000007,367.47090000000003 488.3766800000001,367.74818 C 488.8277900000001,367.8788 490.06293000000005,368.3083 490.78568000000007,368.64817 C 491.4641200000001,368.9672 492.3727200000001,369.50919 493.29917000000006,369.75666 C 494.13068000000004,369.97880000000004 495.2506200000001,369.7728 494.97733000000005,369.10667 C 494.6395600000001,368.28337 493.3351200000001,367.66426 492.91367,367.35667 C 492.45789,367.02406 491.43488,366.30638 490.875,365.91667 C 490.28555,365.50636000000003 489.66641,365.07844 489.02399,364.62669 C 487.66404,363.67039 486.95514000000003,363.1584 486.22534,362.62534999999997 C 485.47073,362.07413999999994 484.69455,361.49796999999995 483.89584,360.89585999999997 C 483.06915000000004,360.27268999999995 482.21728,359.62239 481.34134,358.94136 C 479.49527,357.50606 478.53424,356.73848 477.55066,355.94667 C 476.54886,355.14018 475.54202,354.31728 474.54166,353.47917 C 473.54470999999995,352.64393 472.56433,351.80989 471.62268,350.96669 C 469.81784,349.35051000000004 469.00119,348.54900000000004 468.22534,347.76936 C 467.47537,347.01573 466.76513,346.26521 466.08334,345.52086 C 465.41314,344.78914000000003 464.76349000000005,344.05345000000005 464.12133,343.31734 C 462.82961,341.8366 462.17995,341.0782 461.51733,340.32003 C 460.85296,339.55987 460.18771000000004,338.80456 459.52084,338.06251999999995 C 458.86367,337.33125999999993 458.216,336.61836999999997 457.56933000000004,335.94001999999995 C 456.34490000000005,334.65556999999995 455.74798000000004,334.08173999999997 455.17465000000004,333.54533999999995 C 454.63205000000005,333.03767999999997 454.10754000000003,332.57185999999996 453.60415000000006,332.14585999999997 C 453.13259000000005,331.74677999999994 452.68444000000005,331.38442 452.2586600000001,331.06136 C 451.5068300000001,330.49093 451.16537000000005,330.26286999999996 450.8559800000001,330.05336 C 450.5723200000001,329.86128 450.3080100000001,329.68669 450.0624900000001,329.52085999999997 L 449.8319900000001,329.35999999999996 L 449.6134800000001,329.19917 L 449.4039800000001,329.03333999999995" fill="none" id="svg_14" stroke="#000" stroke-width="2"/>
</svg>
