<?xml version="1.0" ?>
<svg baseProfile="full" height="480" version="1.1" width="640" xmlns="http://www.w3.org/2000/svg" xmlns:ev="http://www.w3.org/2001/xml-events" xmlns:xlink="http://www.w3.org/1999/xlink">
	<defs/>
	<path d="M 389.0,193.0 C 389.0,180.33333 389.0,179.37117 389.0,178.476 C 389.0,177.63483 389.0,176.83467 389.0,176.0625 C 389.0,175.30533 389.0,174.55017 389.0,173.784 C 389.0,172.16667999999999 389.0,171.29317 389.0,170.37867 C 389.0,169.43217 389.0,168.46267 389.0,167.47917999999999 C 389.0,166.49067 389.0,165.50617 389.0,164.53467999999998 C 389.0,162.66667999999999 388.99814,161.78699999999998 389.00266,160.94934999999998 C 389.00693,160.15565999999998 389.01517,159.40779999999998 389.04166,158.70834 C 389.06626,158.05844 389.11431999999996,157.46101 389.17066,156.91734 L 389.33335,156.00001 L 389.70533,155.04751000000002 L 390.14933,154.50001" fill="none" id="svg_1" stroke="#000" stroke-width="2"/>
	<path d="M 403.0,167.0 C 398.0,160.0 397.50241,159.29648 396.98801,158.59467 C 396.46347,157.87908000000002 395.91242,157.15052 395.3125,156.41668 C 394.68472,155.64878000000002 394.00146,154.85624 393.23199,154.05868 C 391.53457,152.29931000000002 390.51403,151.40658000000002 389.43734,150.46134 C 388.3106,149.47216 387.12127,148.47419 385.89584,147.45833000000002 C 384.65066,146.42612000000003 383.38629000000003,145.39862000000002 382.12933000000004,144.36533000000003 C 379.66296000000006,142.33782000000002 378.48495,141.34510000000003 377.34268000000003,140.37601000000004 C 376.23196,139.43372000000002 375.15689000000003,138.51203000000004 374.10415,137.62500000000003 C 373.08083,136.76276000000001 372.0845,135.92596000000003 371.09066,135.14400000000003 C 369.18426,133.64400000000003 368.22585000000004,132.97809000000004 367.28133,132.33467000000005 C 366.34838,131.69914000000006 365.40432000000004,131.09015000000005 364.45833000000005,130.47917000000004 C 363.50298000000004,129.86215000000004 362.52648000000005,129.24187000000003 361.54531000000003,128.57867000000005 C 359.48617,127.18689000000005 358.43191,126.40043000000004 357.35598000000005,125.58266000000005 C 356.26379000000003,124.75250000000004 355.18447000000003,123.89903000000005 354.12499,123.04166000000005 C 353.08855,122.20292000000005 352.09737,121.38198000000006 351.16399,120.59066000000006 C 349.49343,119.17435000000006 348.79232,118.55181000000006 348.16665,117.99866000000006 C 347.60906,117.50569000000006 347.11456,117.06127000000006 346.66665,116.66666000000006 C 346.26113,116.30940000000007 345.88894,115.98174000000006 345.52667,115.69466000000007 C 344.84366,115.15339000000007 344.48214,114.91787000000006 344.12268,114.68933000000007 C 343.77237,114.46661000000007 343.42935,114.26563000000007 343.10416,114.08333000000007 C 342.80654999999996,113.91648000000008 342.53918999999996,113.77470000000008 342.31066999999996,113.65733000000007 C 342.00091999999995,113.49823000000008 341.91900999999996,113.43531000000007 341.90932999999995,113.45466000000008 C 341.89699999999993,113.47932000000007 341.99465999999995,113.49732000000007 342.08333999999996,113.54166000000008 C 342.19197999999994,113.59599000000007 342.31264999999996,113.65632000000008 342.43733999999995,113.71866000000009 C 342.66664999999995,113.83331000000008 342.75697999999994,113.87849000000008 342.82933999999995,113.91466000000008 C 342.8856799999999,113.94282000000008 342.92799999999994,113.96398000000008 342.95833999999996,113.97916000000008 C 342.97866,113.98933000000008 342.99098999999995,113.99549000000007 342.99733999999995,113.99866000000007 C 342.99999999999994,113.99999000000007 343.0020099999999,114.00167000000008 343.01598999999993,114.01333000000007 C 343.43181999999996,114.36022000000007 344.02376999999996,114.85358000000006 344.99999999999994,115.66666000000006 C 345.65835999999996,116.21500000000006 346.42592999999994,116.85453000000007 347.29949999999997,117.56717000000006 C 348.26171999999997,118.35214000000006 349.30837999999994,119.19277000000007 350.43600999999995,120.07066000000006 C 351.62118999999996,120.99337000000006 352.85175,121.95628000000006 355.50001,123.83333000000006 C 356.85263999999995,124.79205000000006 358.23825999999997,125.71343000000006 359.62651,126.61583000000006 C 360.99702,127.50670000000007 362.35179,128.35799000000006 363.67201,129.17333000000005 C 364.93959,129.95617000000004 366.14988,130.68799000000004 368.33336,131.99999000000005 C 369.286,132.57241000000005 370.15749000000005,133.09441000000007 370.96434000000005,133.57949000000005 C 371.72551000000004,134.03710000000004 372.45860000000005,134.47874000000004 373.18135000000007,134.91599000000005 C 373.9126100000001,135.35840000000005 374.6699700000001,135.81763000000004 376.3333600000001,136.83332000000004 C 377.2713800000001,137.40607000000006 378.27400000000006,138.02111000000005 379.3303400000001,138.66332000000006 C 380.4233300000001,139.32781000000006 381.5400000000001,140.00281000000007 382.6693600000001,140.67333000000005 C 383.7913700000001,141.33947000000006 384.8883200000001,141.99853000000004 387.0000200000001,143.16666000000004 C 387.9656900000001,143.70084000000003 388.88042000000013,144.17641000000003 389.7390300000001,144.60965000000004 C 390.5392600000001,145.01346000000004 391.29106000000013,145.37628000000004 391.99202000000014,145.71065000000004 C 392.64378000000016,146.02153000000004 393.25597000000016,146.29721000000004 394.33336000000014,146.83332000000004 C 394.81642000000016,147.07369000000006 395.26061000000016,147.31121000000005 395.67134000000016,147.54282000000003 C 396.05785000000014,147.76078000000004 396.41804000000013,147.97695000000004 396.75734000000017,148.18932000000004 C 397.0833600000002,148.39338000000004 397.39516000000015,148.59794000000005 398.0000200000002,148.99999000000003 C 398.2996100000002,149.19913000000003 398.5944400000002,149.39637000000002 398.88201000000015,149.58649000000003 C 399.1571000000001,149.76836000000003 399.4160400000001,149.93846000000002 399.65603000000016,150.09198000000004 C 399.8708100000002,150.22937000000005 400.0511700000002,150.35803000000004 400.3333700000002,150.49998000000002 C 400.41229000000016,150.53967000000003 400.4697800000002,150.55210000000002 400.4758600000002,150.53298 C 400.4854700000002,150.50278 400.4388400000002,150.4572 400.3933700000002,150.40398000000002 C 400.3407000000002,150.34233000000003 400.2801200000002,150.28121000000002 400.1666900000002,150.16664000000003 C 400.1224100000002,150.12193000000002 400.0979300000002,150.07692000000003 400.2903800000002,150.17596000000003 C 401.1358100000002,150.61109000000002 401.7569900000002,151.05661000000003 402.4791900000002,151.47914000000003 C 403.1777700000002,151.88785000000004 404.1718800000002,152.41447000000002 405.00687000000016,152.56413000000003 L 405.73737000000017,152.88664000000003 L 406.3093600000002,153.15997000000002" fill="none" id="svg_2" stroke="#000" stroke-width="2"/>
	<path d="M 396.0,143.0 C 401.83334,137.5 402.604,136.8326 403.42267,136.14934 C 404.26926,135.4428 405.14486999999997,134.73069999999998 406.04166,134.02083 C 406.94219999999996,133.308 407.84513,132.60728999999998 408.75066999999996,131.93733 C 410.48882999999995,130.65141 411.33185,130.08171000000002 412.13866999999993,129.54266 C 412.90764999999993,129.02890000000002 413.64867999999996,128.55369000000002 414.35414999999995,128.10417 C 415.0233999999999,127.67773000000001 415.6614599999999,127.28077 416.25465999999994,126.89066000000001 C 417.3401099999999,126.17684000000001 417.8170999999999,125.82535000000001 418.2613099999999,125.48666000000001 C 418.68299999999994,125.16514000000001 419.0768299999999,124.84603000000001 419.45832999999993,124.54166000000002 C 419.82883999999996,124.24605000000003 420.1901699999999,123.95324000000002 420.56531999999993,123.68666000000002 C 421.3213599999999,123.14941000000002 422.1698999999999,122.67197000000002 422.63681999999994,122.46616000000002 C 423.6312699999999,122.02782000000002 424.1950499999999,121.85807000000001 424.7948099999999,121.71883000000001 C 426.8157099999999,121.24966 427.6062099999999,121.23392000000001 428.4226499999999,121.17067000000002 C 429.2716499999999,121.10489000000001 430.1478399999999,121.06689000000001 431.0416399999999,121.04166000000002 C 431.94519999999994,121.01616000000003 432.85099999999994,121.00652000000002 433.7506499999999,121.00267000000002 C 435.4999799999999,120.99518000000002 436.3355199999999,120.99647000000002 437.1439899999999,121.00533000000003 C 437.92853999999994,121.01393000000003 438.6925999999999,121.03210000000003 439.43747999999994,121.08333000000003 C 440.16876999999994,121.13363000000003 440.8908799999999,121.20382000000004 441.5959899999999,121.34133000000003 C 443.01053999999993,121.61718000000003 443.7077099999999,121.86898000000002 444.4053199999999,122.15066000000003 C 445.1257799999999,122.44158000000003 445.8516699999999,122.80280000000003 446.5833299999999,123.22916000000004 C 447.3538399999999,123.67817000000004 448.14213999999987,124.19985000000004 448.9413299999999,124.80266000000003 C 450.69718999999986,126.12709000000004 451.5911099999999,126.94227000000004 452.53199999999987,127.78800000000003 C 453.50370999999984,128.66144000000003 454.4729199999999,129.57356000000001 455.43748999999985,130.50000000000003 C 456.39424999999983,131.41895000000002 457.3196599999998,132.32950000000002 458.20799999999986,133.21201000000002 C 459.8366599999999,134.82998000000003 460.55345999999986,135.54676000000003 461.20265999999987,136.21201000000002 C 461.8035199999999,136.82775 462.35823999999985,137.41384000000002 462.8541499999999,138.00000000000003 C 463.3354399999999,138.56892000000002 463.7896399999999,139.15479000000002 464.1906699999999,139.78799000000004 C 465.0460499999999,141.13858000000005 465.4124399999999,141.94473000000005 465.7959899999999,142.79866000000004 C 466.2002299999999,143.69862000000003 466.5807199999999,144.65808000000004 466.9374999999999,145.66667000000004 C 467.3051799999999,146.70610000000005 467.6495099999999,147.78288000000003 467.9439999999999,148.89467000000005 C 468.5429099999999,151.15573000000003 468.74932999999993,152.31993000000006 468.9426599999999,153.49201000000005 C 469.1381899999999,154.67742000000004 469.2925699999999,155.88816000000006 469.41665999999987,157.12501000000006 C 469.5435199999999,158.38958000000005 469.6407199999999,159.68971000000005 469.7106699999999,161.02801000000005 C 469.85721999999987,163.83219000000005 469.8826699999999,165.30558000000005 469.91467999999986,166.81201000000004 C 469.94705999999985,168.33627000000004 469.9664099999999,169.86267000000004 469.97915999999987,171.37501000000003 C 469.9916699999999,172.85733000000002 469.9967099999999,174.29368000000002 469.99865999999986,175.66801000000004 C 470.00219999999985,178.16668000000004 469.9999999999999,179.26385000000005 469.9999999999999,180.26402000000004 C 469.9999999999999,181.18017000000003 469.9999999999999,182.02534000000006 469.9999999999999,182.81251000000003 C 469.9999999999999,183.55468000000002 469.9999999999999,184.26484000000002 469.9999999999999,184.95600000000002 C 469.9999999999999,186.33333000000002 470.00243999999986,187.04252000000002 469.99599999999987,187.76667 C 469.98946999999987,188.50088 469.97560999999985,189.24036 469.9374999999999,189.97918 C 469.8995999999999,190.71377 469.8496399999999,191.44035000000002 469.7439899999999,192.14668 C 469.54055999999986,193.5067 469.3489699999999,194.13958 469.14666999999986,194.74267 C 468.95016999999984,195.32842 468.7192699999999,195.88397 468.47915999999987,196.41668 C 468.2456999999999,196.93462000000002 467.99752999999987,197.42774 467.76666999999986,197.91067 C 467.32702999999987,198.83035 467.1378599999999,199.27578 466.97198999999983,199.70935 C 466.81375999999983,200.12294 466.67926999999986,200.52026 466.56250999999986,200.89584 C 466.45416999999986,201.24437 466.36426999999986,201.56633 466.28799999999984,201.85734 C 466.16348999999985,202.33250999999998 466.12149999999986,202.51402 466.08532999999983,202.65867 C 466.05715999999984,202.77134 466.0360099999998,202.85601 466.0208499999998,202.91668 L 466.01068999999984,202.95734000000002 L 466.00448999999986,202.98200000000003 L 466.0013499999999,202.99466000000004" fill="none" id="svg_3" stroke="#000" stroke-width="2"/>
	<path d="M 442.0,137.0 C 433.21066,137.04266 433.73517,137.64984 433.88568,138.41066 C 434.05895999999996,139.28655 433.73715,140.50378 434.28799,141.06534000000002 C 435.08078,141.87352 435.76892,141.67005000000003 436.83482999999995,142.0535 C 437.43339999999995,142.26883 438.05952999999994,142.48854 438.70530999999994,142.68801000000002 C 439.97840999999994,143.08123000000003 441.16166999999996,143.38433000000003 442.17332999999996,143.45734000000002 C 442.61312,143.48908000000003 443.76145999999994,143.36209000000002 444.39333,143.10933000000003 C 445.32511999999997,142.73659000000004 446.20626,142.17300000000003 446.69198,141.68134000000003 C 447.18618,141.18110000000004 447.677,140.14560000000003 447.82849,139.35550000000003 C 447.97922,138.56937000000005 448.46416999999997,137.33417000000003 447.89583999999996,136.52083000000005 C 447.43152,135.85634000000005 446.58032,135.77364000000006 445.84133999999995,135.27333000000004 C 445.02343999999994,134.71959000000004 444.65066999999993,134.32866000000004 443.33333999999996,133.83333000000005 C 442.59169999999995,133.55448000000004 441.81471999999997,133.55747000000005 441.11333999999994,133.83333000000005 C 440.30861999999996,134.14986000000005 439.03090999999995,135.20111000000006 438.5493399999999,135.62399000000005 C 438.04088999999993,136.07049000000004 437.52971999999994,136.55368000000004 437.0208399999999,137.06250000000006 C 436.5069499999999,137.57634000000004 435.9735699999999,138.07312000000005 434.6666499999999,139.66667000000007 C 434.2737099999999,140.14580000000007 433.92525999999987,140.60811000000007 433.37599999999986,141.46400000000006 C 432.93422999999984,142.15242000000006 432.3931499999999,142.96189000000007 432.97465999999986,142.56266000000005 C 433.90464999999983,141.92417000000006 434.78529999999984,142.02050000000006 435.8333299999999,141.99999000000005 C 436.5518099999999,141.98592000000005 437.2958199999999,141.97591000000006 438.3333299999999,141.49999000000005 C 438.99412999999987,141.19686000000004 439.6591099999999,140.71430000000007 440.34931999999986,140.20398000000006 C 441.04066999999986,139.69284000000005 441.9778899999999,138.94386000000006 442.47663999999986,138.45265000000006 C 443.13602999999983,137.80321000000006 443.7298099999999,136.84823000000006 443.88566999999983,136.04732000000007 C 444.04368999999986,135.23531000000008 443.99998999999985,134.16666000000006 443.99998999999985,133.47066000000007 C 443.99998999999985,132.49999000000005 443.33760999999987,132.86772000000008 442.59382999999985,132.94283000000007 C 441.7404099999998,133.02900000000008 440.61939999999987,133.01046000000008 440.37998999999985,133.68265000000008 C 439.99241999999987,134.77083000000007 439.78037999999987,135.2761600000001 439.53663999999986,135.83483000000007 C 439.00083999999987,137.06287000000006 438.71983999999986,137.70258000000007 438.46333999999985,138.35017000000008 C 438.21333999999985,138.98140000000006 437.7649499999998,140.15487000000007 437.62532999999985,141.16800000000006 C 437.51457999999985,141.97168000000005 437.6306099999999,142.94865000000007 438.04265999999984,143.03600000000006 C 438.86775999999986,143.21091000000007 439.70131999999984,143.00040000000007 440.5893199999998,143.00000000000006 C 441.51399999999984,142.99957000000006 441.9973099999998,142.57335000000006 441.99999999999983,141.58000000000007 C 442.00188999999983,140.87333000000007 442.0495599999998,140.12572000000006 441.99999999999983,138.83333000000007 C 441.9679899999998,137.99816000000007 440.99999999999983,138.00000000000009 440.2973299999998,138.00000000000009 C 439.45867999999984,138.00000000000009 438.5880099999998,138.00000000000009 437.78932999999984,138.00000000000009 C 436.67433999999986,138.00000000000009 436.99931999999984,138.51199000000008 436.99998999999985,139.3276700000001 C 437.00062999999983,140.10700000000008 436.96189999999984,140.9592300000001 436.99998999999985,141.7696700000001 C 437.05210999999986,142.87868000000012 437.8206099999999,142.2680800000001 438.78132999999985,142.1143400000001 C 439.57649999999984,141.9870800000001 440.01719999999983,142.01290000000012 440.92130999999983,142.0026800000001 C 442.27756999999986,141.9873400000001 443.1203199999998,142.00001000000012 443.8749799999998,142.00001000000012 C 444.7719799999998,142.00001000000012 445.0066899999998,141.99072000000012 445.4266499999998,141.40267000000011 C 446.1069499999998,140.45008000000013 446.4239299999998,140.0085000000001 446.7678099999998,139.5133400000001 C 447.52662999999984,138.42069000000012 447.9139599999998,137.8363100000001 448.29380999999984,137.24001000000013 C 448.6699399999998,136.64959000000013 449.3580499999998,135.51212000000012 449.85731999999985,134.46267000000012 C 450.07786999999985,133.99911000000012 450.21562999999986,133.08546000000013 450.70930999999985,132.23068000000012 C 450.90150999999986,131.89789000000013 450.31730999999985,131.99583000000013 449.22880999999984,132.0005200000001 C 448.72398999999984,132.00269000000011 447.5649599999998,132.0250700000001 446.93748999999985,132.06252000000012 C 446.29420999999985,132.1009100000001 445.00218999999987,132.1967100000001 443.8333299999999,132.50002000000012 C 443.2998199999999,132.63846000000012 442.38581999999985,133.08951000000013 441.60413999999986,133.6458500000001 L 441.2533099999999,133.97602000000012 L 440.6066399999999,134.74535000000012" fill="none" id="svg_4" stroke="#000" stroke-width="2"/>
	<path d="M 384.0,220.0 C 376.16666,229.83333 375.4191,230.77611 374.69067,231.71466 C 373.9721,232.64049 373.27160000000003,233.55884 372.60415,234.47917 C 371.94772,235.38432 371.31472,236.2837 370.74267000000003,237.19867000000002 C 369.63033,238.97780000000003 369.17214,239.89363000000003 368.74133,240.80267000000003 C 368.31485,241.70257000000004 367.93362,242.61734000000004 367.58334,243.54167000000004 C 367.23224000000005,244.46811000000005 366.90994,245.41174000000004 366.60534,246.37066000000004 C 365.98351,248.32816000000005 365.69558,249.34322000000003 365.39999,250.38265000000004 C 365.09546,251.45354000000003 364.79361,252.56635000000003 364.5,253.72916000000004 C 364.19333,254.94365000000005 363.88849,256.22100000000006 363.60001,257.57067000000006 C 362.97501,260.4947700000001 362.69193,262.09096000000005 362.40534,263.76000000000005 C 362.10898000000003,265.48595000000006 361.83191000000005,267.25847000000005 361.58335,269.06249 C 361.33314,270.87853 361.10593,272.69527000000005 360.94135,274.49999 C 360.62253,277.99624 360.57114,279.66994 360.54001,281.28264 C 360.50998,282.83876000000004 360.52506,284.34151 360.5625,285.79164000000003 C 360.59866,287.19221000000005 360.66058,288.54433 360.72,289.85066 C 360.83292,292.33336 360.88217000000003,293.51436 360.91467,294.66264 C 360.94641,295.78471 360.96646,296.88795 360.97915,297.97914000000003 C 360.99178,299.06529 360.99676,300.15349000000003 360.99865,301.25065 C 361.00256,303.49998 360.99755,304.66398 361.00399,305.85197 C 361.01052,307.05802 361.0245,308.27619 361.06248999999997,309.49998 C 361.10047999999995,310.72422 361.15135999999995,311.94355 361.256,313.14799 C 361.46065,315.50373 361.65105,316.63752 361.85465999999997,317.74131 C 362.054,318.82194 362.28959999999995,319.87251 362.54164,320.89582 C 362.78844,321.89786000000004 363.05442999999997,322.87266 363.31865,323.82532000000003 C 363.82964,325.66767000000004 364.08022,326.55652000000003 364.31465,327.42929000000004 C 364.54454,328.28519000000006 364.76511999999997,329.12765 364.97914,329.95831000000004 C 365.19041,330.77835000000005 365.39606999999995,331.59082000000006 365.59864999999996,332.39731000000006 C 366.00114999999994,333.9997000000001 366.20014999999995,334.80063000000007 366.40131999999994,335.60532000000006 C 366.60447999999997,336.4179700000001 366.81064999999995,337.2426500000001 367.02082999999993,338.08332000000007 C 367.2359799999999,338.94398000000007 367.4571399999999,339.8286500000001 367.68531999999993,340.74131000000006 C 368.16666999999995,342.66663000000005 368.42115999999993,343.68464000000006 368.68265999999994,344.7306300000001 C 368.9481599999999,345.79264000000006 369.2146399999999,346.85865000000007 369.4791399999999,347.91663000000005 C 369.7386599999999,348.9546500000001 369.9901599999999,349.96064000000007 370.23063999999994,350.92264000000006 C 370.66660999999993,352.66663000000005 370.85795999999993,353.42771000000005 371.02799999999996,354.11731000000003 C 371.18213999999995,354.74240000000003 371.3203,355.31131000000005 371.43747999999994,355.83331000000004 C 371.54538999999994,356.31402 371.6408799999999,356.76272000000006 371.71198999999996,357.18930000000006 C 371.84678999999994,357.9978300000001 371.88208999999995,358.39883000000003 371.91465999999997,358.79330000000004 C 371.94633999999996,359.17718 371.96608,359.54653 371.97914,359.89581000000004 C 371.99125999999995,360.21991 371.99663,360.51413 371.99863999999997,360.77331000000004 C 372.00168999999994,361.16662 371.99210999999997,361.29373000000004 372.00532,361.37597000000005 C 372.01306999999997,361.42419000000007 372.04325,361.44549000000006 372.08331999999996,361.43746000000004 C 372.14561,361.42498000000006 372.22691,361.38338000000005 372.34131999999994,361.36397000000005 C 372.66345999999993,361.30931000000004 372.88681999999994,361.34038000000004 373.14664999999997,361.36528000000004 C 373.44685,361.39406 373.78623999999996,361.43520000000007 374.16664,361.45830000000007 C 374.58632,361.48381000000006 375.04771,361.4992200000001 375.54663999999997,361.4612900000001 C 376.67069,361.37581000000006 377.28941,361.22688000000005 377.94131999999996,361.0546100000001 C 378.63253999999995,360.8719300000001 379.34835999999996,360.6356600000001 380.08331999999996,360.3541100000001 C 380.84741999999994,360.0614200000001 381.62613999999996,359.7272800000001 382.40531,359.33861000000013 C 384.01761,358.53435000000013 384.80636999999996,358.04470000000015 385.60264,357.5399600000001 C 386.41532,357.02482000000015 387.22663,356.46730000000014 388.04164000000003,355.8749500000001 C 388.87749,355.2674700000001 389.72023,354.6223900000001 390.57066000000003,353.9399500000001 C 392.34584,352.5154200000001 393.25221000000005,351.7416500000001 394.17997,350.9199600000001 C 395.15437000000003,350.0569800000001 396.16074000000003,349.1139300000001 397.18748000000005,348.0624500000001 C 398.2886500000001,346.9347300000001 399.43647000000004,345.68028000000015 400.59999000000005,344.25996000000015 C 403.22935000000007,341.05030000000016 404.56441000000007,339.12642000000017 405.98131000000006,337.08262000000013 C 407.4629100000001,334.9454700000001 408.9374000000001,332.70985000000013 410.39583000000005,330.41660000000013 C 411.85613000000006,328.12046000000015 413.26735,325.83216000000016 414.58531000000005,323.57062000000013 C 417.04094000000003,319.35687000000013 418.05955000000006,317.4083000000001 418.97999000000004,315.58396000000016 C 419.84358000000003,313.87229000000013 420.61350000000004,312.2245800000002 421.31248000000005,310.6249500000002 C 421.99324000000007,309.0670000000002 422.62510000000003,307.5086200000002 423.23997,305.93595000000016 C 424.51582,302.67274000000015 425.16484,300.93006000000014 425.84931,299.13062000000014 C 426.55021,297.28806000000014 427.25739,295.41965000000016 427.95832,293.54160000000013 C 428.65473000000003,291.67560000000014 429.33564,289.83847000000014 429.9773,288.04261000000014 C 431.18165,284.6719400000001 431.69974,283.1179300000001 432.17063,281.65730000000013 C 432.61228,280.28740000000016 433.00651,278.9942100000001 433.35413,277.77079000000015 C 433.68207,276.61668000000014 433.97422,275.51914000000016 434.22263,274.46928000000014 C 434.68744,272.5047700000001 434.86283,271.56623000000013 435.02799,270.66130000000015 C 435.18692999999996,269.7904800000002 435.3173,268.95061000000015 435.43746999999996,268.1458000000002 L 435.54263,267.3759600000002 L 435.63379,266.6421300000002 L 435.71198,265.94529000000017" fill="none" id="svg_5" stroke="#000" stroke-width="2"/>
	<path d="M 388.0,192.0 C 377.0,196.66667 376.10989,197.26511 375.30399,197.94934 C 374.49729,198.63425 373.73987,199.39674 373.0,200.20833000000002 C 372.23523,201.04723 371.48126,201.95873000000003 370.69601,202.91733000000002 C 368.99401,204.9951 368.07214,206.12953000000002 367.09201,207.312 C 366.07117,208.54357000000002 365.01315,209.81366 363.9375,211.125 C 362.84109,212.46164 361.73392,213.81865 360.64801,215.20799 C 358.4787,217.98349 357.45648,219.39396 356.45734,220.79865999999998 C 355.46787,222.18973999999997 354.51291,223.58545999999998 353.58335,224.97916999999998 C 352.66227,226.36017999999999 351.76639,227.74007999999998 350.88935,229.11467 C 349.15817999999996,231.82793999999998 348.31885,233.1768 347.48801,234.51601 C 346.66321,235.84548999999998 345.85177999999996,237.17136 345.0625,238.5 C 344.27713,239.82207 343.50616,241.14565 342.772,242.48399 C 341.30795,245.15290000000002 340.63153,246.51744 339.97067,247.89734 C 339.30267,249.29215000000002 338.65906,250.72653000000003 338.04165,252.20833000000002 C 337.40798,253.72917 336.78933,255.31191 336.20266,256.96933 C 334.95808999999997,260.48544000000004 334.39114,262.38977 333.80132,264.35999000000004 C 333.19518,266.38477000000006 332.60639999999995,268.45881 332.02083,270.56250000000006 C 331.43172,272.6788000000001 330.85802,274.79773000000006 330.28533,276.89999000000006 C 329.1683,281.00045000000006 328.62221,282.97073000000006 328.08932,284.88534000000004 C 327.57088999999996,286.74804000000006 327.06369,288.56149000000005 326.58333999999996,290.33334 C 326.11447,292.06286 325.6615,293.75509 325.25731999999994,295.42132000000004 C 324.47173999999995,298.65994000000006 324.1538699999999,300.25457000000006 323.85732999999993,301.82665000000003 C 323.56533999999994,303.37468 323.3102999999999,304.90539 323.0833399999999,306.41665 C 322.8597699999999,307.90545000000003 322.6624699999999,309.37566 322.4893199999999,310.82665000000003 C 322.1506399999999,313.66478 322.0167899999999,315.0577 321.8866599999999,316.43865000000005 C 321.7568099999999,317.8167 321.6408699999999,319.20223000000004 321.54165999999987,320.60415000000006 C 321.4407399999999,322.0302700000001 321.3525999999999,323.49075000000005 321.28665999999987,324.99465000000004 C 321.1475599999999,328.16585000000003 321.1147799999999,329.84902000000005 321.08932999999985,331.58666000000005 C 321.06329999999986,333.36406000000005 321.06799999999987,335.16665000000006 321.0833499999998,336.97915000000006 L 321.1186599999998,338.78665000000007 L 321.1759999999998,340.57416000000006 L 321.2573299999998,342.32666000000006" fill="none" id="svg_6" stroke="#000" stroke-width="2"/>
	<path d="M 466.0,203.0 C 466.0,216.83333 466.0,218.18066 466.0,219.532 C 466.0,220.90134 466.0,222.30268 466.0,223.75 C 466.0,225.25734 466.0,226.83867 466.0,228.508 C 466.0,232.16668 466.00153,234.17901 465.99734,236.30533 C 465.99295,238.52966 465.98336,240.83605 465.95834,243.20833 C 465.93280000000004,245.63072 465.89825,248.08732999999998 465.82934,250.56134 C 465.69177,255.50076 465.57018,257.93567 465.42266,260.33865000000003 C 465.277,262.71139000000005 465.09389,265.05127000000005 464.85415,267.35415 C 464.61761,269.62603 464.34316,271.86395 463.97067,274.05465 C 463.24087,278.34661 462.71609,280.41963999999996 462.17334,282.45466999999996 C 461.63739,284.46416 461.03661999999997,286.42945999999995 460.39584,288.35414999999995 C 459.76306,290.2548499999999 459.09103000000005,292.1156199999999 458.39334,293.93864999999994 C 457.02643,297.5102099999999 456.30447000000004,299.23918999999995 455.59332,300.95597999999995 C 454.88281,302.67118999999997 454.15164,304.39014999999995 453.39584,306.12498999999997 C 452.62506,307.89421999999996 451.8201,309.70365999999996 450.97332,311.56399 C 449.17916,315.5057 448.19729,317.59434999999996 447.17464,319.75732 C 446.1234,321.98073999999997 445.03771,324.24212 443.91664000000003,326.52084 C 442.78972000000005,328.81149000000005 441.65083000000004,331.09155000000004 440.47865,333.32934 C 438.19801,337.68322 437.03312,339.73382 435.88798,341.712 C 434.77708,343.63104 433.66548,345.47436 432.56248000000005,347.24998999999997 C 431.49055000000004,348.97560999999996 430.42536000000007,350.63960999999995 429.37199000000004,352.24798 C 427.34590000000003,355.34161 426.34632000000005,356.81545 425.37199000000004,358.25332 C 424.42189,359.65542 423.48265000000004,361.01333 422.56248000000005,362.33333999999996 L 421.65733000000006,363.61333999999994 L 420.76616000000007,364.8533299999999 L 419.88799000000006,366.05333999999993" fill="none" id="svg_7" stroke="#000" stroke-width="2"/>
	<path d="M 371.0,304.0 C 359.0,314.16666 358.02679,314.99222 357.104,315.78265 C 356.21481,316.54428 355.34951,317.29187 354.5,318.04165 C 353.64551,318.79583 352.77936,319.57263 351.896,320.39065 C 349.98990000000003,322.15582 348.96790000000004,323.14596 347.896,324.19467 C 346.77973000000003,325.28679999999997 345.64182,326.42461999999995 344.5,327.60414999999995 C 343.34567,328.7965899999999 342.20096,330.00365999999997 341.104,331.23866999999996 C 338.97046,333.64070999999996 338.01864,334.84858999999994 337.11199999999997,336.02665999999994 C 336.23290999999995,337.16892999999993 335.41060999999996,338.30283999999995 334.62499999999994,339.4166399999999 C 333.85875999999996,340.5029399999999 333.12893999999994,341.5779599999999 332.4079899999999,342.6266599999999 C 331.0037499999999,344.6692299999999 330.3042899999999,345.6590399999999 329.6039999999999,346.62396999999993 C 328.9171999999999,347.5703199999999 328.23448999999994,348.48718999999994 327.56249999999994,349.37497999999994 C 326.9103999999999,350.23648999999995 326.2732199999999,351.06366999999995 325.6560099999999,351.85596999999996 C 324.50317999999993,353.33582999999993 323.9643299999999,354.0146 323.4533399999999,354.66263999999995 C 322.96264999999994,355.28491999999994 322.4863299999999,355.88773999999995 322.0208399999999,356.47914 C 321.5596599999999,357.06507999999997 321.0979899999999,357.65256999999997 320.6333299999999,358.25064999999995 C 319.6642099999999,359.49808999999993 319.1573799999999,360.16209 318.6400099999999,360.84265999999997 C 318.1207199999999,361.52572999999995 317.6120299999999,362.20032999999995 317.1249999999999,362.85412999999994 C 316.6654399999999,363.47103999999996 316.24401999999986,364.03872999999993 315.8799999999999,364.55062999999996 C 315.3267499999999,365.32867999999996 315.15785999999986,365.57830999999993 315.07997999999986,365.74929999999995 C 315.04121999999984,365.83440999999993 315.0699099999999,365.86722 315.12498999999985,365.8333099999999 C 315.21992999999986,365.7748699999999 315.32286999999985,365.67058999999995 315.43998999999985,365.5573099999999 C 315.66904999999986,365.33577999999994 315.7551799999998,365.2402599999999 315.83463999999987,365.17061999999993 C 315.90162999999984,365.11189999999993 315.96848999999986,365.0662499999999 316.04163999999986,365.0416199999999 C 316.12079999999986,365.0149499999999 316.21952999999985,365.0062799999999 316.3386399999999,365.0026199999999 C 316.6664899999999,364.99254999999994 316.8863399999999,365.0038399999999 317.14265999999986,364.9919699999999 C 317.43345999999985,364.9785099999999 317.75685999999985,364.9473799999999 318.1041499999999,364.8749699999999 C 318.4814399999999,364.7962999999999 318.88621999999987,364.6820099999999 319.29066999999986,364.4879799999999 C 320.1947499999999,364.0542599999999 320.62962999999985,363.6815499999999 321.0839999999999,363.2933099999999 C 321.5615999999999,362.8852299999999 322.02778999999987,362.4291399999999 322.4999899999999,361.9583199999999 C 322.9771899999999,361.4824899999999 323.44078999999994,360.99502999999993 323.91597999999993,360.5332999999999 C 324.8210699999999,359.6538399999999 325.70021999999994,358.93444999999986 326.1203299999999,358.6421599999999 C 326.8617899999999,358.12628999999987 328.0949999999999,357.2509199999999 328.2026699999999,357.6679799999999 C 328.4532199999999,358.6383499999999 326.6615899999999,358.4921099999999 325.8559899999999,358.8359799999999 C 324.9605399999999,359.2182099999999 324.4821799999999,359.4049199999999 322.9999999999999,359.9999799999999 C 322.4993899999999,360.20096999999987 321.47967999999986,360.61728999999985 320.9573399999999,360.8533099999999 C 320.41418999999985,361.0987599999999 319.8389299999999,361.3493399999999 318.6586599999999,362.0266499999999 C 317.3129899999999,362.7988999999999 316.6105599999999,363.3016999999999 315.8613299999999,363.8239799999999 C 315.0763599999999,364.3711599999999 314.2755499999999,364.9562099999999 313.4583499999999,365.5624699999999 C 312.62750999999986,366.1788299999999 311.7966099999999,366.8085299999999 310.96533999999986,367.4359699999999 C 309.33392999999984,368.66737999999987 308.54303999999985,369.2573199999999 307.7706699999999,369.8319699999999 C 307.0143799999999,370.3946499999999 306.27017999999987,370.9468999999999 305.5416699999999,371.4999699999999 C 304.8194999999999,372.0482199999999 304.10318999999987,372.5980799999999 303.4026899999999,373.1679699999999 C 301.9880799999999,374.3188199999999 301.29739999999987,374.9384799999999 300.6053599999999,375.5639699999999 C 299.91471999999993,376.18817999999993 299.2417099999999,376.8175999999999 298.5833599999999,377.4374699999999 C 297.9430699999999,378.0402799999999 297.3315599999999,378.6261899999999 296.7413499999999,379.1759599999999 C 295.6718299999999,380.1722099999999 295.1895599999999,380.59514999999993 294.7479999999999,380.96928999999994 C 294.3535899999999,381.30348999999995 293.99860999999987,381.58955999999995 293.68750999999986,381.83329999999995 C 293.4237199999999,382.0399699999999 293.16595999999987,382.16749999999996 293.0320199999999,382.33729999999997 C 292.92001999999985,382.47929999999997 293.7518399999999,382.10182999999995 294.3386599999999,381.90263999999996 C 295.6527499999999,381.45662999999996 296.2141799999999,381.33622999999994 296.8453399999999,381.14529 C 297.5448899999999,380.93365 298.2965099999999,380.70434 299.0833499999999,380.45831 C 299.8912099999999,380.20572 300.70382999999987,379.94908999999996 301.5013499999999,379.68129999999996 C 303.0034899999999,379.17690999999996 303.6748399999999,378.93416999999994 304.8299899999999,378.47063999999995 C 305.32211999999987,378.27315999999996 306.6057499999999,376.5251099999999 307.0660099999999,377.4669799999999 C 307.4699999999999,378.29369999999994 305.6400199999999,378.25197999999995 305.1466699999999,378.59728999999993 C 303.7858299999999,379.54979999999995 303.1536299999999,379.9923999999999 302.4508399999999,380.48214999999993 C 301.69366999999994,381.0097999999999 300.8965199999999,381.56344999999993 300.0733399999999,382.13064999999995 C 299.2415199999999,382.70376999999996 298.4176999999999,383.27450999999996 296.83334999999994,384.33331999999996 C 296.11065999999994,384.81629 295.43695999999994,385.25476999999995 294.8173299999999,385.65329999999994 C 294.2555299999999,386.01462999999995 293.75024999999994,386.33371999999997 293.3053399999999,386.61331999999993 C 292.9228899999999,386.8536499999999 292.2546799999999,387.0681799999999 292.4386699999999,387.2799799999999 C 293.06162999999987,387.9971099999999 294.1102699999999,386.3382399999999 294.80383999999987,385.9104699999999 C 295.22393999999986,385.6513799999999 296.1991599999999,385.0267099999999 296.7511699999999,384.6578099999999 C 297.3499899999999,384.2575999999999 298.6686799999999,383.3360899999999 299.3853599999999,382.81463999999994 C 300.13813999999985,382.26690999999994 300.9111799999999,381.68994999999995 301.7013399999999,381.09863999999993 C 302.5004999999999,380.5006199999999 303.2976799999999,379.89996999999994 304.0893399999999,379.31064999999995 C 304.8630499999999,378.73465999999996 306.33060999999987,377.66272999999995 307.0138399999999,377.18613999999997 C 307.6548299999999,376.739 308.2645399999999,376.32957 308.8453499999999,375.95466 C 309.3936899999999,375.60075 309.9195999999999,375.27574 310.4248499999999,374.97514 C 310.90769999999986,374.68788 311.8319499999999,374.16404 312.2776899999999,373.92198 C 313.1177199999999,373.46577 313.8381799999999,372.99129 314.5096799999999,372.77598 C 315.4200499999999,372.48408 315.4063799999999,373.28736 315.50000999999986,374.66664000000003 C 315.54413999999986,375.31682 315.65094999999985,376.05495 315.7625199999999,376.87614 C 315.8840999999999,377.77101000000005 316.0208499999999,378.72914000000003 316.1600099999999,379.74266 L 316.2991699999999,380.80214 L 316.4333299999999,381.89867" fill="none" id="svg_8" stroke="#000" stroke-width="2"/>
	<path d="M 405.0,304.0 C 410.33334,319.83334 410.94354,321.60681 411.56668,323.42401 C 412.2019,325.27646 412.84445,327.15716000000003 413.47916000000004,329.0625 C 414.11783,330.97983 414.75064000000003,332.90405 415.34668000000005,334.836 C 416.52606000000003,338.65872 417.04507000000007,340.55405 417.54266000000007,342.42667 C 418.0336000000001,344.27414 418.48858000000007,346.10492 418.91665000000006,347.91666 C 419.3391700000001,349.70498999999995 419.73586000000006,351.47524999999996 420.1106500000001,353.22666 C 420.84618000000006,356.66395 421.1806600000001,358.35571999999996 421.51333000000005,360.02268 C 421.84063000000003,361.66272999999995 422.15493000000004,363.27436 422.4583400000001,364.85416 C 422.75491000000005,366.39838 423.0395200000001,367.90497 423.3133200000001,369.37066999999996 C 423.8355700000001,372.16623 424.07891000000006,373.49332 424.31601000000006,374.78 C 424.54758000000004,376.03661999999997 424.77466000000004,377.27335 425.00000000000006,378.5 C 425.2253400000001,379.72665 425.45230000000004,380.96341 425.68399000000005,382.22 C 426.16589000000005,384.83349000000004 426.42276000000004,386.20566 426.67999000000003,387.61465000000004 C 426.94113000000004,389.04495000000003 427.19906000000003,390.48303000000004 427.43750000000006,391.91665000000006 C 427.67230000000006,393.32842000000005 427.8937700000001,394.70565000000005 428.06000000000006,396.03866000000005 C 428.3664600000001,398.49609000000004 428.4284400000001,399.60510000000005 428.45999000000006,400.6253300000001 C 428.4889800000001,401.56268000000006 428.47629000000006,402.42309000000006 428.43750000000006,403.2083400000001 C 428.4021000000001,403.9245000000001 428.34268000000003,404.57403000000005 428.28000000000003,405.16134000000005 C 428.17264,406.1673200000001 428.11948,406.59182000000004 428.08533000000006,406.96932000000004 C 428.05539000000005,407.30050000000006 428.03452000000004,407.58791 428.02085000000005,407.83333000000005 C 428.00944000000004,408.03859000000006 428.00345000000004,408.20595000000003 428.00135000000006,408.33733000000007 C 427.9987300000001,408.49996000000004 427.99836000000005,408.53438000000006 427.99601000000007,408.52932000000004 C 427.9745000000001,408.48284000000007 427.96873000000005,408.37453000000005 427.9375100000001,408.20834 C 427.8930500000001,407.97177000000005 427.8309100000001,407.65713 427.7440000000001,407.25732 C 427.50657000000007,406.16519 427.3347900000001,405.46432 427.1493300000001,404.66534 C 426.9449800000001,403.78503 426.72843000000006,402.83731 426.52085000000005,401.83334 C 426.30552000000006,400.79199 426.0949800000001,399.72512 425.93735000000004,398.64132 C 425.62671000000006,396.50543 425.57379000000003,395.46581000000003 425.53601000000003,394.46267 C 425.49954,393.49435 425.50137,392.56133 425.50000000000006,391.66665 C 425.49869000000007,390.81201 425.51248000000004,389.99822 425.4639900000001,389.23065 C 425.3755200000001,387.83005 425.2322400000001,387.20297000000005 425.0640000000001,386.62933000000004 C 424.9057400000001,386.08975000000004 424.70551000000006,385.59826000000004 424.50000000000006,385.14584 C 424.30768000000006,384.72241 424.10049000000004,384.34158 423.93600000000004,383.97732 C 423.64871000000005,383.34115 423.57162000000005,383.04537000000005 423.54,382.77334 C 423.51107,382.52450000000005 423.52386,382.2918 423.56249,382.08334 C 423.59801000000004,381.89154 423.65593,381.72131 423.71999000000005,381.57333 C 423.82543000000004,381.32977 423.87297000000007,381.24072 423.91466,381.17999 C 423.93971000000005,381.14349 423.96892,381.14513999999997 423.97914000000003,381.1875 C 423.99940000000004,381.27155 423.99684,381.40915 423.99864,381.60001 C 424.00398,382.16663 423.99998000000005,382.54999 423.99998000000005,382.99335 C 423.99998000000005,383.48667 423.99998000000005,384.01999 423.99998000000005,384.58335 C 423.99998000000005,385.16666 423.99998000000005,385.76002 423.99998000000005,386.35334 C 423.99998000000005,387.50001 423.99998000000005,388.03535 423.99998000000005,388.54267 C 423.99998000000005,389.02398999999997 423.99998000000005,389.48133 423.99998000000005,389.91666 C 423.99998000000005,390.332 423.99998000000005,390.72934 423.99998000000005,391.11066 C 423.99998000000005,391.83335 423.99998000000005,392.17801 423.99998000000005,392.51068 C 423.99998000000005,392.82934 423.99998000000005,393.13199 423.99998000000005,393.41666 C 423.99998000000005,393.68134 423.99998000000005,393.92400999999995 423.99998000000005,394.14266999999995 C 423.99998000000005,394.49999999999994 423.99998000000005,394.6355 423.99998000000005,394.74398999999994 C 423.99998000000005,394.82848999999993 423.95619000000005,394.9251699999999 423.99998000000005,394.93749999999994 C 424.31465000000003,395.0261499999999 424.56797000000006,393.86400999999995 424.85066000000006,393.29867999999993 C 425.2946600000001,392.41067999999996 425.64232000000004,391.2579099999999 426.42399000000006,391.0053499999999 C 427.37428000000006,390.69830999999994 428.15504000000004,390.9974799999999 428.94532000000004,391.1440199999999 C 429.76057000000003,391.2951999999999 430.83515000000006,391.8858399999999 431.41947000000005,392.4241699999999 L 431.89582000000007,393.0625099999999 L 432.27213000000006,393.7608399999999" fill="none" id="svg_9" stroke="#000" stroke-width="2"/>
	<path d="M 327.0,388.0 C 331.33334,399.5 331.84628,400.99088 332.36667,402.55734 C 332.90479,404.17718 333.44295999999997,405.8377 333.97916,407.52084 C 334.51633,409.20706 335.04159999999996,410.88192000000004 335.54666,412.52932000000004 C 336.50777999999997,415.66427000000004 336.93712999999997,417.12701000000004 337.34398999999996,418.51333000000005 C 337.73004,419.8287 338.09200999999996,421.07998000000003 338.43749999999994,422.2708400000001 L 338.76800999999995,423.4066700000001 L 339.08648999999997,424.4924900000001 L 339.39599999999996,425.5333200000001" fill="none" id="svg_10" stroke="#000" stroke-width="2"/>
	<path d="M 405.0,374.0 C 397.16666,383.0 396.19315,384.12753 395.18134,385.30267 C 394.14081,386.51117 393.08380999999997,387.74115 392.02085,388.97915 C 390.96247,390.21182 389.92042,391.42672 388.90534,392.61065 C 386.99982,394.83318 386.12784000000005,395.84914000000003 385.31067,396.80666 C 384.53757,397.71254000000005 383.80283000000003,398.57787 383.10416000000004,399.41665 C 382.42557000000005,400.23132 381.76426000000004,401.03555 381.12268000000006,401.84667 C 379.8219900000001,403.49108 379.17541000000006,404.36187 378.51599000000004,405.25466 C 377.84396000000004,406.16451 377.17230000000006,407.09563 376.50000000000006,408.04165 C 375.82297000000005,408.99432 375.15045000000003,409.9548 374.48401000000007,410.91866 C 373.16226000000006,412.83028 372.5198700000001,413.77855 371.88135000000005,414.72132999999997 C 371.24253000000004,415.66456999999997 370.60288,416.61656 369.95835000000005,417.58333 C 369.30152000000004,418.56856 368.63151000000005,419.58034 367.9453500000001,420.62532 C 366.4968600000001,422.83125 365.7353300000001,424.00569 364.9506600000001,425.21733 C 364.1500000000001,426.45366 363.34406000000007,427.70448 362.5416600000001,428.95833 C 361.7467400000001,430.20049 360.9693900000001,431.42049 360.2226600000001,432.60933 C 358.82788000000005,434.82991 358.2037700000001,435.84676 357.6306800000001,436.80132 C 357.0953700000001,437.69295 356.6120000000001,438.53731 356.1666600000001,439.33333 L 355.7613300000001,440.08931 L 355.3940200000001,440.81133 L 355.0626600000001,441.50533" fill="none" id="svg_11" stroke="#000" stroke-width="2"/>
	<path d="M 398.0,380.0 C 391.16666,385.0 390.28897,385.7247 389.37466,386.51199 C 388.41479,387.3385 387.42773,388.21273 386.41665,389.125 C 385.37963,390.06067 384.33093,391.02301 383.27865,392.008 C 381.15911000000006,393.99197999999996 380.11822,394.9968 379.08666000000005,396.00266 C 378.05822000000006,397.0055 377.04159000000004,398.01639 376.04165000000006,399.04166 C 375.04159000000004,400.06705 374.05142000000006,401.10492 373.08666000000005,402.17066 C 371.14580000000007,404.31467 370.21450000000004,405.43863 369.27999000000005,406.57734 C 368.33272000000005,407.73161 367.3895800000001,408.9224 366.4374900000001,410.14585 C 365.4628200000001,411.39835 364.4746300000001,412.69395 363.4599800000001,414.02933 C 361.3308600000001,416.83148 360.2150500000001,418.3064 359.0666700000001,419.81732 C 357.8984000000001,421.3544 356.7199900000001,422.90533 355.5416500000001,424.45834 L 354.3733200000001,426.00134 L 353.2250000000001,427.52234000000004 L 352.10665000000006,429.00934000000007" fill="none" id="svg_12" stroke="#000" stroke-width="2"/>
	<path d="M 353.0,392.0 C 342.5,402.83334 341.5567,403.87411 340.64932,404.92801 C 339.74199999999996,405.98184 338.84692,407.06451999999996 337.95833999999996,408.1875 C 337.044,409.34305 336.11699999999996,410.55936 335.17733,411.85199 C 333.14342,414.64993 332.08718,416.211 330.97601,417.85199 C 329.81728999999996,419.5632 328.63635,421.3461 327.4375,423.1875 C 326.21359,425.06738 324.98456,426.98325 323.76401,428.92801 C 321.31872999999996,432.82421999999997 320.13851999999997,434.77405 318.97866999999997,436.70532 C 317.83594,438.60808999999995 316.73598999999996,440.48931999999996 315.66666,442.33333999999996 L 314.63732999999996,444.13732999999996 L 313.65200999999996,445.89532999999994 L 312.71466,447.60131999999993" fill="none" id="svg_13" stroke="#000" stroke-width="2"/>
	<path d="M 365.0,418.0 C 360.33334,426.33334 359.71173,427.47101 359.06,428.68533 C 358.37323,429.96496 357.66245,431.30716 356.9375,432.70834 C 356.189,434.15509000000003 355.42941,435.64553 354.67999,437.18133 C 353.14662999999996,440.32363 352.41344999999995,441.93984 351.68667,443.57467 C 350.95336,445.22418000000005 350.23803,446.90045000000003 349.54165,448.60415 C 348.83795,450.3258 348.14828,452.07549 347.48666000000003,453.85867 C 346.13934,457.48999000000003 345.51345000000003,459.36139000000003 344.88800000000003,461.25332000000003 C 344.25775000000004,463.15972000000005 343.64978,465.08434000000005 343.06250000000006,467.02084 C 342.47510000000005,468.95770000000005 341.90826000000004,470.89621 341.37201000000005,472.83334 C 340.31244000000004,476.66092000000003 339.83521,478.55658 339.37067,480.44134 C 338.90656,482.32427 338.47199,484.22399 338.04166000000004,486.14584 L 337.62134000000003,488.10266 L 337.20902,490.1055 L 336.80268,492.16534" fill="none" id="svg_14" stroke="#000" stroke-width="2"/>
	<path d="M 347.0,410.0 C 337.16666,418.16666 336.19653,419.23691 335.27335,420.436 C 334.29132,421.71151 333.31570999999997,423.14621 332.33335,424.75 C 331.25986,426.50253 330.15934,428.47342 329.03333,430.68399 C 326.42856,435.79758 325.09524999999996,438.81317 323.64802,442.04001 C 322.12555999999995,445.4346 320.59497999999996,448.9628 319.06251,452.5625 C 317.52696,456.16949 316.03470999999996,459.73975 314.61201,463.22 C 311.97999,469.65851000000004 310.84507,472.53827 309.82536,475.20001 C 308.87834,477.67203 308.04267999999996,480.01333 307.27085999999997,482.25 L 306.56401,484.42667 L 305.91118,486.58335 L 305.30135,488.76002" fill="none" id="svg_15" stroke="#000" stroke-width="2"/>
</svg>
