<?xml version="1.0" ?>
<svg baseProfile="full" height="480" version="1.1" width="640" xmlns="http://www.w3.org/2000/svg" xmlns:ev="http://www.w3.org/2001/xml-events" xmlns:xlink="http://www.w3.org/1999/xlink">
	<defs/>
	<path d="M 294.0,182.0 C 291.39999,183.2955 290.61578,183.70924 289.59866,183.916 C 288.98602,184.04054 287.82635,184.1402 287.04284,184.36166 C 286.47341,184.52261000000001 285.58498000000003,184.85945 284.70034000000004,185.32116 C 283.80666,185.78759 283.30782000000005,186.20815 282.33334,186.66665999999998 C 281.54565,187.03727999999998 280.5086,187.27210999999997 279.78933,187.61065999999997 C 278.993,187.98547999999997 278.18469,188.35612999999998 277.48531,188.79998999999998 C 276.622,189.34792 276.25979,190.34337 276.88799,190.71464999999998 C 277.59356,191.13163999999998 278.63317,190.99773 279.66665,190.99998999999997 C 280.53466000000003,191.00187999999997 281.00616,190.99998999999997 281.97915,190.99998999999997 C 282.93215,190.99998999999997 284.16665,190.99998999999997 285.01415000000003,190.99998999999997 C 285.79332000000005,190.99998999999997 286.70000000000005,190.99998999999997 287.56249,190.99998999999997 C 288.49999,190.99998999999997 289.36699000000004,190.99998999999997 290.04165,190.99998999999997 C 290.75634,190.99998999999997 292.17849,190.99998999999997 292.84283,190.99998999999997 L 293.78933,190.99998999999997 L 294.39867,190.99998999999997" fill="none" id="svg_1" stroke="#000" stroke-width="2"/>
	<path d="M 279.0,190.0 C 279.10001,188.99983 279.96432,188.77147 280.63599,188.42534 C 281.44812,188.00681 282.34731999999997,188.00226 283.24735,188.0 C 284.16666,187.9977 285.00001,188.0 285.97866999999997,188.0 C 286.75266,188.0 287.65268,188.0 288.51599,188.0 C 289.47916,188.0 290.39999,188.0 291.2955,187.9955 L 291.97467,187.57466 L 292.61066,187.01066" fill="none" id="svg_2" stroke="#000" stroke-width="2"/>
	<path d="M 292.0,182.0 C 292.0,180.164 292.0,179.39867 292.0,178.39999 C 292.0,177.6 291.99765,176.60133 292.0,175.65716 C 292.00226,174.75715 292.32614,173.96333 292.716,173.19999 C 293.10052,172.44709 292.88858,171.43043 293.35717,170.69999 C 293.87035,169.90008 294.59322,169.41433 294.97466,168.60000000000002 C 295.38948999999997,167.71443000000002 296.06768,167.05702000000002 296.47914999999995,166.49999000000003 C 297.08403999999996,165.68113000000002 297.4665499999999,164.96753000000004 298.02531999999997,164.42533000000003 C 298.61418999999995,163.85390000000004 298.61103999999995,162.94540000000003 299.28533,162.16932000000003 C 299.87789,161.48730000000003 300.71119999999996,161.37632000000002 301.52083,160.97916000000004 C 302.33339,160.58057000000002 303.00507999999996,159.96015000000003 303.6013,159.48265000000004 C 304.37895,158.85986000000003 305.18775999999997,158.44673000000003 305.97846999999996,157.90015000000002 C 306.60954,157.46392000000003 307.44521,157.27939000000003 308.29549,156.99549000000002 C 309.12870999999996,156.71729000000002 309.71907,156.08039000000002 310.40898,155.94732000000002 C 311.40849,155.75453000000002 312.2021,155.39361000000002 312.99998,154.99999000000003 C 313.8021,154.60428000000002 314.59650999999997,154.19294000000002 315.39866,153.80132000000003 C 316.16074000000003,153.42926000000003 317.11155,153.04270000000002 317.99998,152.99999000000003 C 318.79904999999997,152.96157000000002 319.82340999999997,153.41268000000002 320.64279999999997,152.94283000000001 C 321.33066999999994,152.54841000000002 321.88663999999994,152.00066 322.83597999999995,151.99999000000003 C 323.6012999999999,151.99946000000003 324.59998999999993,151.99999000000003 325.39997999999997,151.99999000000003 C 326.40132,151.99999000000003 327.23598,151.99999000000003 328.16664,151.99999000000003 C 328.95714,151.99999000000003 329.81064999999995,151.99999000000003 330.40132,151.99999000000003 C 331.59999,151.99999000000003 332.49998,151.99999000000003 333.09999,151.99999000000003 C 334.29997,151.99999000000003 335.2,151.99999000000003 335.79997,151.99999000000003 C 336.99998,151.99999000000003 337.89549,151.99999000000003 338.76399,151.99999000000003 C 339.83333,151.99999000000003 340.53830999999997,151.99999000000003 341.33833,151.99999000000003 C 342.37465,151.99999000000003 343.32164,151.99999000000003 344.04164,151.99999000000003 C 345.16664,151.99999000000003 345.95714,151.99999000000003 346.52083,151.99999000000003 C 347.40132,151.99999000000003 348.6013,151.99999000000003 349.21065,151.99999000000003 C 350.15715,151.99999000000003 351.16667,151.99439000000004 351.88399,152.00132000000002 C 353.00011,152.01211 353.75197,152.01817000000003 354.83333,152.16666 C 355.51848,152.26075 356.48174,152.51233000000002 357.09548,152.70449000000002 C 358.30498,153.08318000000003 358.88595000000004,153.31170000000003 359.72799000000003,153.56399000000002 C 360.8507,153.90039000000002 361.60790000000003,153.97009000000003 362.42132000000004,154.436 C 362.9938,154.76391 364.00958,155.28965 364.74932,155.6 C 365.67214,155.98716 366.27129,156.49734999999998 367.2,156.91599 C 367.96428,157.2605 368.60292,157.67230999999998 369.484,157.91599 C 370.32644,158.14899 371.2593,158.33822 371.99998999999997,158.99999 C 372.61406,159.54864 373.46403999999995,159.84383 374.2,160.28533 C 374.87859,160.69242 375.46752,161.50695 375.94731,162.29549 C 376.34755,162.95327 377.36262,163.16812 377.83333,163.99999 C 378.19457,164.63843 378.48557999999997,165.50829 378.95183,166.29999 C 379.42809,167.10874 380.20667999999995,167.31107 380.83063999999996,168.20133 C 381.24900999999994,168.79825000000002 381.46428,169.81019 381.71599,170.51600000000002 C 382.05327,171.46182000000002 382.29003,172.39301000000003 383.09981,172.87866000000002 C 383.82948999999996,173.31625000000003 383.78493,174.19670000000002 384.22132999999997,174.87883000000002 C 384.68809999999996,175.60841000000002 384.85729,176.24977 385.28533,177.11467000000002 C 385.66537,177.88257000000002 386.41758999999996,178.38283 387.09981,179.10001000000003 C 387.65755,179.68633000000003 387.87602,180.56783000000001 388.35715999999996,181.30001000000001 C 388.87906999999996,182.09425000000002 389.64583,182.55727000000002 390.29547999999994,183.30001000000001 C 390.87665999999996,183.96445000000003 391.24139999999994,184.71964000000003 391.80130999999994,185.16933 C 392.50931999999995,185.73798 392.74954999999994,186.8597 393.02530999999993,187.58934 C 393.35162999999994,188.45282 393.88632999999993,188.88565 394.6526599999999,189.65266 C 395.1744199999999,190.17488 396.0374599999999,190.92785 396.4583199999999,191.47917 C 397.0357099999999,192.23555000000002 397.4676899999999,192.93179 398.0208199999999,193.52083000000002 C 398.6184199999999,194.15721000000002 399.3860499999999,194.65131000000002 400.1146299999999,195.20000000000002 C 400.7268399999999,195.66106000000002 401.3880099999999,196.41217 402.1001299999999,197.10001000000003 C 402.6272599999999,197.60917000000003 403.4903599999999,198.18918000000002 404.17461999999995,198.60001000000003 C 404.9862299999999,199.08730000000003 405.578,199.61174000000003 406.20264,200.20134000000002 C 406.80364999999995,200.76866 407.5329,201.33543 408.25064,201.81467 C 408.98494999999997,202.30497 409.88534,202.68595000000002 410.69097999999997,203.04818 C 411.5361,203.42815 412.35943999999995,203.81312 413.09997999999996,204.2215 C 413.77448,204.59346 414.39996999999994,205.4 415.09997999999996,206.10001 C 415.59997999999996,206.60001 416.27151999999995,207.34105 416.88532,207.80001 C 417.61683,208.34700999999998 418.35409999999996,208.62267 419.36399,208.97467999999998 C 420.20731,209.26862999999997 420.86549,209.83347999999998 421.65714,210.30001 C 422.38743000000005,210.73037 423.21119000000004,211.07859 423.97913000000005,211.50000999999997 C 424.84684000000004,211.97615999999996 425.47147000000007,212.54111999999998 426.32129000000003,213.10001999999997 C 426.97949000000006,213.53289999999998 427.82102000000003,214.01752999999997 428.38532000000004,214.40000999999998 C 429.31403000000006,215.02947999999998 430.00913,215.30176999999998 430.78531000000004,215.60001999999997 C 431.83240000000006,216.00237999999996 432.53049000000004,216.31417999999996 433.15329,216.56400999999997 C 434.1062,216.94625999999997 434.97931000000005,217.14978999999997 435.77063000000004,217.56800999999996 C 436.552,217.98096999999996 437.07947,218.37934999999996 438.30014000000006,218.75751999999997 C 438.8930700000001,218.94120999999998 439.84778000000006,219.04602999999997 440.4852900000001,219.25333999999998 C 441.5451700000001,219.59798999999998 442.25705000000005,220.05535999999998 442.9999700000001,220.52084 C 443.7518600000001,220.99196999999998 444.8240100000001,221.68472 445.51596000000006,222.03068 C 446.16632000000004,222.35584 446.82718000000006,222.61017999999999 447.4839800000001,222.88267 C 448.5242600000001,223.31425 449.25263000000007,223.65267 449.9999700000001,224.00001 C 450.7473100000001,224.34735 451.8287400000001,224.84478000000001 452.83832000000007,225.24284 C 453.45560000000006,225.48622 454.31998000000004,225.78238 455.3159800000001,226.20001 C 456.0047600000001,226.48882999999998 456.6757500000001,226.82120999999998 457.6866500000001,227.20001 C 458.5351300000001,227.51793999999998 459.1591800000001,227.70829999999998 460.1666300000001,228.00001 C 460.8823000000001,228.20724 461.6320200000001,228.38949 462.3746400000001,228.63601 C 463.8477800000001,229.12505 464.5190500000001,229.47576 465.1639800000001,229.82534 C 465.7937100000001,230.16668 466.3803200000001,230.55431000000002 467.5986400000001,231.11468000000002 C 468.1811300000001,231.38259000000002 469.0499900000001,231.67762000000002 470.0786500000001,232.10002000000003 C 470.7797300000001,232.38791000000003 471.4467200000001,232.71469000000002 472.42115000000007,233.10002000000003 C 473.2100000000001,233.41197000000003 474.02384000000006,233.63515000000004 475.03199000000006,234.20001000000002 C 475.67469000000006,234.56012 476.5369600000001,235.11509 477.27198000000004,235.40001 C 477.81705000000005,235.6113 479.00196000000005,235.99422 479.90449000000007,236.30452 C 480.52220000000005,236.51689 481.1636500000001,236.74152999999998 482.1666400000001,237.16669 C 482.8888400000001,237.47280999999998 483.62450000000007,237.82711999999998 484.3746500000001,238.17469 C 485.11516000000006,238.51778 486.17741000000007,238.98032 487.1426600000001,239.36402 C 487.9805500000001,239.69709 488.8341000000001,240.13755 489.57866000000007,240.56402 C 490.3879300000001,241.02755 491.1700900000001,241.32892999999999 491.8466700000001,241.86135 C 492.4648600000001,242.34783 493.41451000000006,242.99226 493.94817000000006,243.24284999999998 C 494.72942000000006,243.60969999999998 495.68654000000004,243.96905999999998 496.47915000000006,244.50001999999998 C 497.1854200000001,244.97312999999997 497.8332500000001,245.40531 498.60131000000007,245.80002 C 499.5875200000001,246.30684 500.41366000000005,246.59953 500.93865000000005,247.40000999999998 C 501.41710000000006,248.12951999999999 501.73308000000003,248.74500999999998 502.65716000000003,249.30002 C 503.38381000000004,249.73647 504.21121000000005,250.0786 504.97915000000006,250.50001999999998 C 505.84686000000005,250.97616999999997 506.5017000000001,251.44190999999998 507.29550000000006,251.94734999999997 C 507.99606000000006,252.39340999999996 508.53873000000004,252.99467999999996 507.89999000000006,253.00001999999998 C 507.00003000000004,253.00752999999997 506.2688600000001,252.91450999999998 505.58932000000004,252.14935999999997 C 505.09097,251.58818999999997 504.32858000000004,251.18017999999998 503.48400000000004,250.91734999999997 C 502.61068000000006,250.64555999999996 501.75390000000004,250.20001999999997 500.99999,249.83334999999997 C 500.23638,249.46194999999997 499.48275,249.16743999999997 498.6,248.98935999999998 C 497.65624,248.79897999999997 497.01165000000003,248.08910999999998 496.18566000000004,248.00453 C 495.23559000000006,247.90724 494.46038000000004,248.04425999999998 493.68267000000003,247.82935999999998 C 492.64669000000004,247.54306999999997 492.0368,246.93537999999998 491.31600000000003,246.56802 C 490.35686000000004,246.07918999999998 489.49566000000004,246.05058 488.68398,245.91735 C 487.67998,245.75257 487.07567,245.39114 486.0215,245.12153 C 485.21840000000003,244.91613 484.364,245.00002 483.34731,245.00002 L 482.65267,245.00002 L 481.63598,245.00002 L 480.70001,245.00002" fill="none" id="svg_3" stroke="#000" stroke-width="2"/>
	<path d="M 293.0,192.0 C 292.94284,193.7 292.4454,194.46887 291.80133,195.20134 C 291.33151,195.73566 291.39529,196.78937 290.83334,197.66666999999998 C 290.38385,198.36840999999998 289.99475,198.92049999999998 289.56399000000005,199.81465999999998 C 289.25317000000007,200.45987999999997 288.39944,200.99016999999998 287.94732000000005,201.70448999999996 C 287.4592200000001,202.47563999999997 287.21551000000005,203.37599999999998 286.77850000000007,204.09982999999997 C 286.34170000000006,204.82330999999996 285.2116700000001,204.99952999999996 285.0013400000001,205.80131999999998 C 284.7872900000001,206.61724999999998 284.0837400000001,207.15429999999998 284.00000000000006,207.99998999999997 C 283.9211700000001,208.79609999999997 284.00000000000006,209.69998999999996 284.00000000000006,210.59999999999997 C 284.00000000000006,211.49998999999997 284.00000000000006,212.39998999999997 284.00000000000006,213.29999999999995 C 284.00000000000006,214.19998999999996 284.00000000000006,215.09999999999997 284.00000000000006,215.99999999999994 C 284.00000000000006,216.79999999999995 284.00000000000006,217.69999999999993 284.00000000000006,218.63599999999994 C 284.00000000000006,219.48398999999995 284.00000000000006,220.34732999999994 284.00000000000006,221.24732999999995 C 284.00000000000006,222.16666999999995 283.80872000000005,223.08756999999994 284.35266000000007,223.89016999999996 C 284.8124400000001,224.56858999999994 284.89303000000007,225.30653999999996 285.0013400000001,226.19999999999996 C 285.11282000000006,227.11976999999996 285.8459400000001,227.76684999999995 285.9893200000001,228.60000999999997 C 286.1454800000001,229.50755999999996 285.9299000000001,230.49131999999997 286.0360100000001,231.17466999999996 C 286.1851800000001,232.13531999999995 286.7002300000001,232.80505999999997 287.0613400000001,233.67199999999997 C 287.4268200000001,234.54942999999997 287.8678300000001,235.24070999999998 288.2946800000001,235.99465999999998 C 288.7768000000001,236.84618999999998 289.0373600000001,237.69713 289.50000000000006,238.49999999999997 C 289.90656000000007,239.20551999999998 290.19308000000007,240.12403999999998 290.70450000000005,240.69999999999996 C 291.35474000000005,241.43226999999996 291.66120000000006,242.25089999999997 292.2853400000001,242.91732999999996 C 292.85059000000007,243.52088999999995 293.5386700000001,243.99810999999997 293.8786600000001,244.97832999999997 C 294.1287500000001,245.69933999999998 294.83697000000006,246.33245999999997 295.00000000000006,247.02082999999996 C 295.2265300000001,247.97732999999997 295.72409000000005,248.67692999999997 296.29999000000004,249.30450999999996 C 296.81815000000006,249.86918999999997 297.37351,250.84137999999996 297.79999000000004,251.51600999999997 C 298.2714,252.26168999999996 299.00000000000006,252.99998999999997 299.52085000000005,253.52082999999996 C 300.16666000000004,254.16665999999995 300.84614000000005,254.81759999999997 301.34733000000006,255.40449999999996 C 302.00669000000005,256.17661 302.3387900000001,256.80505999999997 302.79868000000005,257.51467999999994 C 303.36939000000007,258.39525999999995 303.98056,259.17904999999996 304.40000000000003,259.8146699999999 C 304.97394,260.68441999999993 305.75458000000003,260.9628899999999 306.40000000000003,261.4360099999999 C 307.17805000000004,262.0063499999999 307.42979,262.83044999999987 308.02534,263.5639999999999 C 308.55271000000005,264.2135699999999 309.51985,264.5009799999999 310.09983000000005,265.1000099999999 C 310.66273000000007,265.6813999999999 310.8778500000001,266.6971799999999 311.44666000000007,267.39999999999986 C 312.03629000000006,268.12851999999987 312.84296000000006,268.3710399999999 313.5160000000001,268.79998999999987 C 314.39936000000006,269.36300999999986 315.16255000000007,270.0068699999999 315.8253600000001,270.39999999999986 C 316.5118200000001,270.8071399999999 317.2604800000001,271.2904399999999 317.8840100000001,271.88534999999985 C 318.4972300000001,272.47045999999983 319.1694400000001,273.17990999999984 319.8333500000001,273.8333499999998 C 320.4948500000001,274.48443999999984 321.1625400000001,275.0068699999998 321.8253500000001,275.3999999999998 C 322.51181000000014,275.80713999999983 323.3554400000001,276.4091199999998 324.1000100000001,277.0998299999998 C 324.6932700000001,277.6501799999998 325.5678100000001,277.8760399999998 326.2999900000001,278.3571799999998 C 327.09424000000007,278.8791199999998 327.5797800000001,279.6060799999998 328.4000000000001,279.9746699999998 C 329.1828100000001,280.3264499999998 329.7697500000001,280.8338599999998 330.5416600000001,281.5208399999998 C 331.3048700000001,282.2000699999998 332.0060200000001,282.6583499999998 332.5208500000001,282.9999999999998 C 333.31159000000014,283.52474999999976 334.0833200000001,283.9698499999998 334.9583500000001,284.47915999999975 C 335.8384200000001,284.99136999999973 336.3133900000001,285.47982999999977 337.2013300000001,285.91732999999977 C 337.8552300000001,286.2394999999998 338.6174700000001,286.75948999999974 339.4045200000001,287.29467999999974 C 340.1654500000001,287.81210999999973 341.0155100000001,287.90997999999973 342.0000100000001,288.16665999999975 C 342.8168100000001,288.37963999999977 343.40089000000006,288.70269999999977 344.4000000000001,289.20001999999977 C 345.00056000000006,289.4989399999998 345.9930200000001,290.01452999999975 346.7893400000001,290.38934999999975 C 347.5086100000001,290.72787999999974 348.3747000000001,290.96298999999976 349.3215100000001,291.00015999999977 C 350.2107000000001,291.0350699999998 351.2044400000001,291.21005999999977 351.8213300000001,291.4360099999998 C 352.5192100000001,291.6916299999998 353.6414300000001,292.1042499999998 354.3053400000001,292.2999899999998 C 354.99873000000014,292.5044299999998 356.03984000000014,292.77685999999983 356.9568600000001,293.0998299999998 C 357.7243800000001,293.37014999999985 358.48698000000013,293.8344799999998 359.4791700000001,293.9791599999998 C 360.39061000000015,294.1120599999998 361.3000000000001,293.99999999999983 362.20003000000014,293.99999999999983 C 363.10018000000014,293.99999999999983 363.88851000000017,293.93325999999985 364.82537000000013,294.0106799999998 C 365.84191000000015,294.0946599999998 366.40340000000015,294.6859399999998 367.30001000000016,294.9428399999998 C 368.16824000000014,295.1915899999998 369.16668000000016,294.99999999999983 369.83602000000013,294.99999999999983 C 370.6013400000001,294.99999999999983 371.78936000000016,294.99999999999983 372.5147000000001,294.99999999999983 C 373.4791800000001,294.99999999999983 374.4081600000001,294.88350999999983 375.3000100000001,295.0044899999998 C 376.1215100000001,295.1159099999998 376.7269500000001,295.7632199999998 377.6527000000001,295.9428399999998 C 378.5019700000001,296.1076299999998 379.5208600000001,295.99999999999983 380.3333600000001,295.99999999999983 C 381.2506900000001,295.99999999999983 381.9946800000001,295.99999999999983 383.0293400000001,295.99999999999983 C 384.0000100000001,295.99999999999983 384.8001800000001,295.9819899999998 385.7000200000001,295.99999999999983 C 386.6005600000001,296.01800999999983 387.3550800000001,296.55166999999983 388.1666600000001,296.83333999999985 C 388.9658800000001,297.11073999999985 389.9786700000001,296.99999999999983 390.7526600000001,296.99999999999983 C 391.6526800000001,296.99999999999983 392.51600000000013,296.99999999999983 393.4791600000001,296.99999999999983 C 394.4000000000001,296.99999999999983 395.3065200000001,296.8930399999998 396.2000200000001,297.00133999999986 C 397.11979000000014,297.11281999999983 397.6541200000001,297.80983999999984 398.6000100000001,297.98931999999985 C 399.4842900000001,298.1571099999999 400.4000000000001,297.99999999999983 401.2999900000001,297.99999999999983 C 402.2000100000001,297.99999999999983 403.1000100000001,297.99999999999983 404.0000000000001,297.99999999999983 C 404.7999900000001,297.99999999999983 405.70001000000013,297.99999999999983 406.6000100000001,297.99999999999983 C 407.5000000000001,297.99999999999983 408.4000000000001,297.99999999999983 409.2999900000001,297.99999999999983 C 410.2000100000001,297.99999999999983 411.1000100000001,297.99999999999983 412.0000000000001,297.99999999999983 C 412.7999900000001,297.99999999999983 413.6359900000001,297.99999999999983 414.6526800000001,297.99999999999983 C 415.3473200000001,297.99999999999983 416.36401000000006,297.99999999999983 417.2999900000001,297.99999999999983 C 418.2000100000001,297.99999999999983 419.1003400000001,297.99999999999983 419.8143300000001,297.99999999999983 C 420.7693500000001,297.99999999999983 421.5208400000001,297.99999999999983 422.3173200000001,297.99999999999983 C 423.5383300000001,297.99999999999983 424.3383500000001,297.99999999999983 425.2428300000001,297.99999999999983 C 426.2000100000001,297.99999999999983 427.15564000000006,298.18654999999984 428.00000000000006,297.83333999999985 C 428.71555000000006,297.53398999999985 429.31223000000006,296.88329999999985 430.0208400000001,296.49999999999983 C 430.9878800000001,295.9769299999998 431.6156600000001,295.7355999999998 432.3428300000001,295.2999899999998 C 433.2707200000001,294.7441399999998 433.7217400000001,294.1102599999998 434.5000000000001,293.5208499999998 C 435.2420300000001,292.9588699999998 436.17871000000014,292.86087999999984 436.86801000000014,292.5426699999998 C 437.58975000000015,292.2094799999998 438.50125000000014,291.6688599999998 439.25201000000015,291.2319999999998 C 440.07739000000015,290.7517399999998 440.49868000000015,290.4977499999998 441.34201000000013,290.0053499999998 C 442.4982000000001,289.3302699999998 443.13971000000015,288.9626299999998 443.9375000000001,288.5416699999998 C 444.5925300000001,288.1960299999998 445.6074200000001,287.7216299999998 446.1640000000001,287.4000099999998 C 447.1383300000001,286.8369899999998 447.7259200000001,286.2583499999998 448.4840100000001,285.8013499999998 C 449.1531400000001,285.39796999999976 450.1299100000001,285.1382599999998 450.8840000000001,284.91599999999977 C 451.84802000000013,284.6318799999998 452.50033000000013,284.17469999999975 453.2473400000001,283.70450999999974 C 454.14874000000015,283.13712999999973 454.92288000000013,283.22186999999974 455.83334000000013,282.6666699999997 C 456.4726200000001,282.2768399999997 456.83307000000013,281.4606499999997 457.8360000000001,281.05066999999974 C 458.57276000000013,280.74951999999973 459.4040200000001,280.43433999999974 460.02084000000013,279.9791699999997 C 460.6882600000001,279.4866499999997 461.67752000000013,278.8738799999997 462.4791500000001,278.52085999999974 C 462.9869900000001,278.29719999999975 464.0596200000001,277.83774999999974 464.69100000000014,277.2999999999997 C 465.44967000000014,276.6538199999997 466.1688100000001,276.1771699999997 466.99999000000014,276.00000999999975 C 467.98119000000014,275.79086999999976 468.57021000000015,275.36896999999976 469.30449000000016,274.70001999999977 C 469.87105000000014,274.18387999999976 470.62886000000015,273.65213999999975 471.34731000000016,273.3571899999998 C 472.33666000000017,272.9509999999998 473.3072700000002,272.7980199999998 473.83333000000016,272.00000999999975 C 474.26799000000017,271.34067999999974 474.90041000000014,271.10373999999973 475.60265000000015,270.83066999999977 C 476.65419000000014,270.4217599999998 477.09124000000014,269.7385099999998 477.97847000000013,269.2428399999998 C 478.7488300000001,268.81247999999977 479.6545600000001,268.51843999999977 480.38933000000014,268.0253399999998 C 481.08263000000017,267.5600999999998 481.5400300000001,266.7466799999998 482.18532000000016,266.4360199999998 C 483.0807100000002,266.0049599999998 484.06221000000016,265.7197099999998 484.70000000000016,265.3526799999998 C 485.48162000000013,264.9028499999998 486.31237000000016,264.5456999999998 487.02083000000016,264.0000199999998 C 487.59407000000016,263.5584599999998 488.60317000000015,263.1251099999998 489.39998000000014,262.9518599999998 C 490.40300000000013,262.7337799999998 490.97914000000014,262.4791699999998 491.97847000000013,261.9001899999998 L 492.5893100000001,261.43601999999976" fill="none" id="svg_4" stroke="#000" stroke-width="2"/>
	<path d="M 498.0,254.0 C 499.836,254.0 500.60132,254.0 501.59549,254.0 C 502.51468,254.0 503.42801,254.0 504.31066999999996,254.0 C 505.42950999999994,254.0 505.91598999999997,254.0 507.04801,254.0 C 507.68751,254.0 508.37201999999996,254.0 509.09851999999995,254.0 C 509.8640199999999,254.0 511.50001,254.0 512.3648199999999,254.0 C 513.2586799999999,254.0 514.1804899999998,254.0 515.1293499999999,254.0 C 516.1041999999999,254.0 517.1040199999999,254.0 518.1278199999999,254.0 C 519.1746999999999,254.0 521.3333299999999,254.0 522.4415399999999,254.0 C 523.5586699999999,254.0 524.6738399999999,254.0 525.7760099999999,254.0 C 526.8541999999999,254.0 527.89735,254.0 528.8944799999999,254.0 C 529.83467,254.0 531.50001,254.00056 532.2073499999999,253.99983 C 532.8386999999999,253.99917 533.4080899999999,253.99785 533.9293299999999,253.98933 C 534.41676,253.98136 534.88416,253.96725 535.3453499999999,253.94284 C 535.8148299999999,253.91798 536.8335699999999,253.83553999999998 537.4073599999999,253.77849999999998 C 538.02559,253.71703999999997 538.68153,253.64424999999997 539.36934,253.56399 C 540.0835099999999,253.48065 540.81746,253.3903 541.5653199999999,253.29549999999998 C 542.32148,253.19964 543.83345,253.00072999999998 544.5781999999999,252.89998999999997 C 545.31215,252.80071999999998 546.0339499999999,252.70098 546.7426899999999,252.59999999999997 C 547.4376399999999,252.50096999999997 548.1177499999999,252.40272999999996 548.7811999999999,252.29999999999995 C 550.6679199999999,252.00781999999995 551.2574599999999,251.90169999999995 551.8306999999999,251.79999999999995 C 552.9392799999998,251.60330999999996 553.4791999999999,251.49999999999994 554.5481699999999,251.29999999999995 C 555.08265,251.19998999999996 556.7213899999999,250.89931999999996 557.2853499999999,250.79999999999995 C 557.8570699999999,250.69930999999997 559.0207599999999,250.49965999999995 559.6106699999999,250.39998999999995 C 560.2044799999999,250.29965999999993 562.0000099999999,250.00014999999993 562.5996799999999,249.89998999999995 C 563.1973399999999,249.80014999999995 564.3789199999999,249.60137999999995 564.95832,249.49999999999994 C 566.08619,249.30266999999995 566.6315999999999,249.21120999999994 568.15699,248.89998999999995 C 568.6300699999999,248.80347999999995 569.52888,248.60368999999994 570.3786699999999,248.39998999999995 C 571.19819,248.20354999999995 572.3988099999999,247.89580999999995 573.1954999999999,247.70448999999994 C 573.9781499999999,247.51654999999994 574.7380999999999,247.32769999999994 575.83332,247.16665999999992 C 576.51087,247.06701999999993 577.45814,247.0116299999999 578.31336,247.00131999999994 C 579.3133,246.98924999999994 580.15333,246.99998999999994 581.11469,246.99998999999994 C 582.0,246.99998999999994 582.79999,246.99998999999994 583.70002,246.99998999999994 C 584.59998,246.99998999999994 585.50001,247.00006999999994 586.41065,246.99998999999994 C 587.3214800000001,246.99989999999994 588.22712,247.03659999999994 589.19983,246.77865999999995 C 589.8028,246.61877999999996 590.8218400000001,246.09355999999994 591.58936,246.01064999999994 C 592.49482,245.91283999999993 593.40003,245.99997999999994 594.30451,245.99997999999994 C 595.16669,245.99997999999994 596.0000100000001,245.99997999999994 596.97864,245.99997999999994 C 597.75269,245.99997999999994 598.67316,246.11852999999994 599.51599,245.91464999999994 C 600.40405,245.69983999999994 601.59296,244.97482999999994 601.50665,245.42531999999994 C 601.33099,246.34244999999993 599.98468,245.93802999999994 599.1786500000001,246.02530999999993 C 597.9984700000001,246.15308999999993 597.1030900000001,246.33792999999994 596.54169,246.52080999999993 C 595.7616,246.77490999999992 594.80976,247.3177799999999 594.13752,247.75714999999994 C 593.24708,248.33916999999994 592.63697,248.66043999999994 591.95832,248.99997999999994 C 591.2476899999999,249.35552999999993 590.17365,249.85092999999995 589.1661399999999,250.23830999999993 C 588.56647,250.46886999999992 587.7563499999999,250.65453999999994 586.6719999999999,250.97464999999994 C 585.7846099999999,251.23662999999993 585.21692,251.76849999999993 584.32801,252.02530999999993 C 583.46992,252.27321999999992 582.70417,252.43923999999993 582.1066999999999,252.64664999999994 C 580.6603499999999,253.14876999999993 580.2575199999999,253.32073999999994 579.4037,253.64814999999993 C 578.54152,253.97874999999993 577.7286499999999,254.31623999999994 576.6667,254.66665999999992 C 575.9344,254.9082999999999 575.04622,255.2421099999999 574.3,255.64732999999993 C 573.5388899999999,256.06062999999995 572.5786899999999,255.99698999999993 571.6667,255.9999899999999 C 570.98567,256.0022499999999 570.1707299999999,255.97770999999992 569.00001,256.1666499999999 C 568.09614,256.3125199999999 567.51289,256.49824999999987 566.6853699999999,256.8013199999999 C 565.6749299999999,257.17137999999994 565.0471899999999,257.56706999999994 564.00001,257.83332999999993 C 563.22462,258.03049999999996 562.15699,257.9072699999999 561.3747,258.03599999999994 C 560.4915199999999,258.18131999999997 559.81025,258.65379999999993 558.7995,258.87864999999994 C 557.94977,259.06767999999994 557.14185,259.06922999999995 556.13617,259.2213299999999 C 555.34467,259.3410499999999 554.52118,259.50211999999993 553.71515,259.6473199999999 C 552.66718,259.83609999999993 551.92096,259.9701299999999 551.03467,259.9986399999999 C 549.99524,260.0320599999999 549.25067,259.99997999999994 548.14301,259.99997999999994 C 547.42133,259.99997999999994 546.45832,259.99997999999994 545.45697,259.99997999999994 C 544.72803,259.99997999999994 543.89099,259.99997999999994 543.0,259.99997999999994 C 542.09552,259.99997999999994 541.164,259.9999199999999 540.51465,259.99997999999994 C 539.4788199999999,260.00006999999994 538.75092,259.98142999999993 537.6613199999999,260.0359899999999 C 536.96845,260.0706899999999 535.7675199999999,260.27762999999993 535.02082,260.49997999999994 C 534.3154999999999,260.7099999999999 533.3146999999999,260.93558999999993 532.45832,260.9791399999999 C 531.83894,261.01062999999994 530.4788299999999,260.99997999999994 529.7518399999999,260.99997999999994 C 529.02082,260.99997999999994 528.30982,260.99997999999994 527.0426699999999,260.99997999999994 C 526.2506799999999,260.99997999999994 525.4947,260.99634999999995 524.35737,261.00012999999996 C 523.6946499999999,261.00233 522.64771,261.00473999999997 521.96803,261.08529999999996 C 520.7588,261.22864 519.98524,261.52441999999996 519.43751,261.64730999999995 C 518.14784,261.93664999999993 517.34687,261.95257999999995 516.52082,261.97912999999994 C 515.7153999999999,262.0050099999999 514.6666899999999,261.99987999999996 513.74403,261.99996999999996 C 512.8998499999999,262.00005999999996 512.0984,262.04387999999994 511.16400999999996,262.43596999999994 C 510.58426999999995,262.67925999999994 509.61737999999997,263.23436999999996 508.83601,263.56395999999995 C 507.90123,263.95824999999996 507.11600999999996,263.99929 506.17465999999996,263.99995999999993 C 505.48402,264.00044999999994 504.41067999999996,263.99986999999993 503.47916,263.99995999999993 C 502.6785,264.00004999999993 501.77268,263.96235999999993 500.79999,264.2212999999999 C 499.98139,264.43922999999995 499.40997999999996,264.76438999999993 498.4,264.9472799999999 C 497.60602,265.09104999999994 496.60413,265.29142999999993 495.83599999999996,265.5746299999999 C 494.8887,265.9238699999999 493.99999999999994,265.9999499999999 493.20000999999996,265.9999499999999 L 492.29999,265.9999499999999" fill="none" id="svg_5" stroke="#000" stroke-width="2"/>
	<path d="M 493.0,263.0 C 491.91599,261.28534 491.19867,261.00134 490.29999,261.0 L 489.4,261.0" fill="none" id="svg_6" stroke="#000" stroke-width="2"/>
	<path d="M 368.0,294.0 C 366.39999,294.57468 365.5264,294.83435 364.70001,295.35718 C 364.13485000000003,295.71475000000004 363.5086,296.54148000000004 362.67850000000004,297.10016 C 362.00144000000006,297.55585 361.37818000000004,297.85892 360.60001000000005,298.48401 C 359.9830400000001,298.97962 359.42939000000007,299.55808 358.4045100000001,300.24283 C 357.8509200000001,300.6127 356.8681900000001,301.18076 356.3045000000001,301.70001 C 355.67102000000006,302.28354 355.04016000000007,302.90008 354.2306500000001,303.48401 C 353.74502000000007,303.83432 352.96069000000006,304.36817 351.9211700000001,304.97867 C 351.22278000000006,305.38883000000004 350.4907800000001,305.75388000000004 349.66665000000006,306.16666000000004 C 349.0311500000001,306.48496000000006 348.34094000000005,306.83014000000003 347.61465000000004,307.17466 C 346.88491000000005,307.52082 345.82257000000004,307.98032 344.85733000000005,308.36402000000004 C 344.01947000000007,308.69709000000006 343.16699000000006,309.13941000000005 342.42133000000007,309.564 C 341.62336000000005,310.01838000000004 340.8556300000001,310.39124000000004 340.1146600000001,310.71601000000004 C 339.20286000000004,311.11564000000004 338.5301300000001,311.01130000000006 337.5786800000001,311.22150000000005 C 336.76612000000006,311.40100000000007 335.94477000000006,311.68445 334.92167000000006,312.09983000000005 C 334.24116000000004,312.37611000000004 333.45869000000005,312.63047000000006 332.41068000000007,313.02534 C 331.6711200000001,313.30400000000003 331.1034900000001,313.87571 330.3518400000001,314.65269 C 329.8538200000001,315.16749 329.3103400000001,316.00862 328.9173300000001,316.79869 C 328.5411400000001,317.55501000000004 327.9026500000001,318.32292 327.5000000000001,319.00001000000003 C 327.0032700000001,319.83531000000005 326.32562000000013,320.39628000000005 326.0571600000001,321.3 C 325.7999600000001,322.16575 326.0616500000001,323.17051000000004 325.97916000000015,324.00001000000003 C 325.89545000000015,324.84187000000003 325.2531500000002,325.52729000000005 325.03601000000015,326.40000000000003 C 324.81854000000016,327.27405000000005 324.90036000000015,328.58375 325.43600000000015,328.51734000000005 C 326.31579000000016,328.40830000000005 326.36550000000017,327.15348000000006 326.7999800000002,326.48401000000007 C 327.3769800000002,325.59494000000007 327.9565000000002,325.09668000000005 328.7680000000002,324.51734000000005 C 329.4878500000002,324.00342000000006 330.2416300000002,323.58875000000006 331.1811500000002,323.10984 C 331.9239200000002,322.73121000000003 332.4961200000002,322.14454 333.2000100000002,321.71467 C 333.87536000000017,321.30222000000003 334.5510800000002,320.54707 335.0996700000002,319.90019 C 335.7189900000002,319.1699 335.1902800000002,319.52641 334.71466000000015,320.19868 C 334.16266000000013,320.97895 333.3266600000002,321.28102 332.7786600000002,321.87867 C 332.19358000000017,322.51679 332.00000000000017,323.20002 332.00000000000017,324.10001 C 332.00000000000017,325.0 332.00000000000017,325.45835 332.00000000000017,324.60001 C 332.00000000000017,323.6955 331.8600200000002,322.81437 332.04166000000015,322.0 C 332.27185000000014,320.9679 333.15711000000016,320.67374 333.7571800000002,319.89999 C 334.23026000000016,319.28997 334.6121600000002,318.41766 334.97468000000015,317.6 C 335.3220000000002,316.81658000000004 336.14775000000014,316.41815 336.7146700000001,315.91598000000005 C 337.4792900000001,315.23873000000003 337.65363000000013,314.43957000000006 338.29551000000015,313.70001 C 338.87415000000016,313.03332 339.1543100000001,312.08374000000003 340.00001000000015,312.0 C 340.75349000000017,311.92538 341.6526900000001,312.0 342.51600000000013,312.0 C 343.4791700000001,312.0 344.40000000000015,312.00067 345.3000000000001,312.0 C 346.20134000000013,311.99933 347.16984000000014,311.84128 347.8253600000001,311.57468 C 348.5194800000001,311.29236 349.5892800000001,311.00534 350.4000100000001,311.0 C 351.29997000000014,310.99408 352.2851400000001,311.14273 352.9473400000001,310.64734 C 353.6398400000001,310.12926999999996 354.2428400000001,309.51437 355.1666700000001,309.16666 C 355.79716000000013,308.92936 356.8260300000001,308.81946 357.5893400000001,308.42533 C 358.3925600000001,308.01059999999995 359.2116200000001,307.72785 359.8000000000001,307.19867999999997 C 360.53572000000014,306.537 361.3268900000001,306.15067999999997 362.17466000000013,305.97468 C 362.9847800000001,305.80649999999997 363.8203800000001,305.56135 364.56400000000014,304.97468 C 365.24274000000014,304.43919 365.85560000000015,303.99024 366.6000100000001,303.38935 C 367.2537000000001,302.86167 368.07001000000014,302.30195 368.7000200000001,301.89016999999996 C 369.4076000000001,301.42767999999995 369.8000000000001,300.5679999999999 370.56400000000014,299.98531999999994 L 371.0253300000001,299.38933999999995 L 371.4360100000001,298.61064999999996 L 372.2000200000001,298.08401" fill="none" id="svg_7" stroke="#000" stroke-width="2"/>
	<path d="M 380.0,297.0 C 380.93832,298.70001 380.50793,299.46634 379.89532,299.92868 C 378.86309,300.70772999999997 378.35165,300.98764 377.80801,301.336 C 377.21942,301.71317 376.59265000000005,302.10462 375.9375,302.5 C 375.27136,302.90204 373.94385,303.68689 372.66666,304.33334 C 372.09101,304.62472 371.54510999999997,304.87387 370.53333,305.27734000000004 C 370.06478999999996,305.46417 369.14759,305.76468000000006 367.83335,306.33334 C 367.37412,306.53204 366.4513,307.00555 365.99601,307.27200000000005 C 365.08695,307.80398 364.62299,308.0541400000001 363.50001000000003,309.00000000000006 C 362.82676000000004,309.56708000000003 362.29643000000004,310.18854000000005 361.79600000000005,310.76401000000004 C 361.31779000000006,311.31391 360.32514000000003,312.32782000000003 359.7640200000001,312.76401000000004 C 359.19957000000005,313.20279000000005 358.5964800000001,313.59540000000004 357.4013500000001,314.40000000000003 C 356.8095800000001,314.79838 356.2265500000001,315.18732000000006 355.6853500000001,315.60001000000005 C 354.66701000000006,316.37653000000006 354.0163700000001,316.99543000000006 353.4013500000001,317.60001000000005 C 352.7957300000001,318.1953500000001 352.2104300000001,318.7891000000001 351.6571800000001,319.3428400000001 C 350.8863400000001,320.1143200000001 350.3212400000001,320.8130200000001 349.9746800000001,321.60001000000005 C 349.61036000000007,322.42731000000003 349.0786500000001,323.31635000000006 349.0208500000001,324.00000000000006 C 348.9383900000001,324.97522000000004 348.8759500000001,325.77628000000004 348.4253300000001,326.60001000000005 C 347.9983600000001,327.3805300000001 348.13657000000006,328.35663000000005 347.7160100000001,329.20002000000005 C 347.3860800000001,329.8616400000001 347.1906200000001,330.72810000000004 346.9640000000001,331.60001000000005 C 346.7450100000001,332.44257000000005 345.84129000000013,332.36017000000004 346.0208500000001,331.50000000000006 C 346.19733000000014,330.65454000000005 347.3270900000001,330.36545000000007 347.8333500000001,329.66666000000004 C 348.2483600000001,329.09378000000004 348.1153300000001,327.92734 348.7616600000001,327.30451000000005 C 349.39557000000013,326.69367000000005 350.1894900000001,326.47318000000007 351.11466000000013,326.08268000000004 C 352.0158700000001,325.70228000000003 352.3644800000001,324.87235000000004 353.00001000000015,324.33335000000005 C 353.68766000000016,323.75010000000003 354.42216000000013,323.31312 355.3000000000001,323.05717000000004 C 356.25755000000015,322.77796000000006 356.76341000000014,322.54292000000004 357.2853500000001,321.80134000000004 C 357.8354600000001,321.01972000000006 358.7000200000001,320.94734000000005 359.5000100000001,320.50001000000003 C 360.30000000000007,320.05268 361.2171400000001,319.73396 361.80000000000007,319.19868 C 362.4298800000001,318.62022 363.14470000000006,317.96019 363.82536000000005,317.61067 C 364.80519000000004,317.10756000000003 365.52922000000007,317.08610000000004 366.4826800000001,316.71467 C 367.16496000000006,316.44886 367.7263300000001,315.54765000000003 368.35719000000006,315.05268 C 369.07164000000006,314.49216 369.8003100000001,314.19898 370.50001000000003,313.50001000000003 C 371.10041,312.90025 371.73832000000004,312.27143 372.48402000000004,311.8 C 373.15861000000007,311.37352 374.00578,310.93116000000003 374.69551000000007,310.3 C 375.3214900000001,309.72719 375.7358500000001,308.84105 376.16667000000007,308.00001000000003 C 376.5069700000001,307.33567000000005 377.21675000000005,306.57383000000004 378.0000100000001,306.16667 C 378.74385000000007,305.77998 379.4490800000001,305.39265 380.3045100000001,305.05269 C 381.13123000000013,304.72414 381.9799300000001,304.4446 382.8333500000001,304.16667 C 383.6792400000001,303.89122000000003 384.4263400000001,303.33714000000003 385.2000200000001,303.08534000000003 C 386.0596700000001,302.80555000000004 387.0425200000001,303.18574 387.8000000000001,302.91469 C 388.7011200000001,302.59224 389.0764600000001,301.6024 390.00001000000015,301.16667 C 390.7003300000001,300.83626000000004 391.6526900000001,301.00001000000003 392.51600000000013,301.00001000000003 L 393.4791700000001,300.97917 L 394.3000000000001,300.64735" fill="none" id="svg_8" stroke="#000" stroke-width="2"/>
	<path d="M 327.0,326.0 C 326.42532,327.60001 326.11502,328.46844 325.55716,329.32132 C 325.19855,329.86957 324.4552,330.48975 323.76166,331.24283 C 323.26636,331.78067000000004 322.99240000000003,332.6976 322.55701,333.54285000000004 C 322.17379999999997,334.28678 321.80674,334.80680000000007 321.0,335.83335000000005 C 320.61444,336.32395 320.02084,336.95835000000005 319.48532,337.51334 L 318.65735,338.35334 L 318.5625,338.95835" fill="none" id="svg_9" stroke="#000" stroke-width="2"/>
	<path d="M 330.0,327.0 C 329.96399,329.62534 329.68567,330.47388 329.42532,331.21066 C 329.08056,332.18637 329.13324,333.01635000000005 328.83334,333.83334 C 328.52044,334.6857 327.84674,335.29504000000003 327.52084,336.02084 C 327.09433,336.97073 327.03601000000003,337.78933 327.0,338.83334 L 327.00015,339.65701" fill="none" id="svg_10" stroke="#000" stroke-width="2"/>
	<path d="M 332.0,326.0 C 332.97916,327.02084 332.99808,327.97867 333.0,328.75266 C 333.00226,329.65268 333.07077,330.52182999999997 333.42532,331.38535 C 333.81735,332.34006 333.94732,333.00535 334.05267,333.99466 L 334.22134,334.857 L 334.57467,335.57868 L 335.02084,336.45835" fill="none" id="svg_11" stroke="#000" stroke-width="2"/>
	<path d="M 348.0,329.0 C 349.0,330.02084 349.16257,331.02032 349.61066,331.58932 C 350.22126,332.36471 350.85519999999997,333.10684 351.05268,333.75717 C 351.32917000000003,334.66765999999996 351.73209,335.42614999999995 352.32117,336.20000999999996 C 352.79172,336.81813999999997 353.40836,337.34448 353.832,338.39998999999995 C 354.14092999999997,339.16966999999994 354.44266,340.19982999999996 354.85068,340.78932999999995 L 355.29468,341.34282999999994 L 355.88568000000004,342.2338199999999" fill="none" id="svg_12" stroke="#000" stroke-width="2"/>
	<path d="M 355.0,327.0 C 355.94733,331.133 356.16858,332.16592 356.42532,332.836 C 356.71823,333.60047000000003 356.87085,334.61032 357.05267,335.34284 C 357.31698,336.4076 357.83333999999996,337.16666000000004 358.0,338.00001000000003 L 358.16666,338.83335000000005 L 358.57468,339.5893300000001" fill="none" id="svg_13" stroke="#000" stroke-width="2"/>
	<path d="M 351.0,331.0 C 349.29199,330.08267 348.23212,330.43436 347.642,330.70984 C 346.99561,331.0116 346.32379,331.29559 345.26434,331.97866999999997 C 344.51541000000003,332.46155 343.83932,333.17276 343.34283,333.65268 C 342.79582999999997,334.18145999999996 341.80017,334.97848999999997 341.21066,335.36400999999995 L 340.48532,335.79866999999996 L 339.63599,336.39998999999995" fill="none" id="svg_14" stroke="#000" stroke-width="2"/>
	<path d="M 322.0,176.0 C 323.75717,175.0045 324.67432,174.87692 325.51599,175.08533 C 326.40677,175.3059 327.00097999999997,175.99904 327.59999999999997,176.60001 C 328.29661999999996,177.29888 328.91497,177.9874 328.99864999999994,178.80001 C 329.09083999999996,179.69527 329.14662999999996,180.72332999999998 328.56398999999993,181.38932999999997 C 327.95348999999993,182.08717999999996 326.89998999999995,181.99999999999997 325.9999899999999,181.99999999999997 C 325.19999999999993,181.99999999999997 324.3625699999999,182.04981999999998 323.3518299999999,181.99549999999996 C 322.5663099999999,181.95328999999995 322.00450999999987,181.29552999999996 321.9999899999999,180.39999999999998 C 321.9954699999999,179.50001999999998 321.9999899999999,178.60000999999997 321.9999899999999,177.7 L 321.9999899999999,176.80001" fill="none" id="svg_15" stroke="#000" stroke-width="2"/>
	<path d="M 375.0,180.0 C 372.39999,180.35716 371.59912,180.7027 370.60001,181.2 C 369.99945,181.49892 368.99295,181.98649999999998 368.4,182.30451 C 367.58997,182.73893999999999 366.78704999999997,183.30679999999998 366.20002,183.83599999999998 C 365.5861,184.38944999999998 364.80018,185.19983 364.21067,185.78933999999998 C 363.65717,186.34284 362.99342,186.95342 362.37467,187.66133 C 361.80679999999995,188.31105 361.33481,189.01354999999998 360.97916,189.5625 C 360.38514,190.47937 359.79760999999996,191.5202 359.60001,191.88533 C 359.19513,192.63339000000002 358.79834,193.40982 358.4,194.20134000000002 C 357.79733999999996,195.39890000000003 357.60175,195.80289000000002 357.18933999999996,196.61067000000003 C 356.76715999999993,197.43760000000003 356.32025999999996,198.28840000000002 355.83334999999994,199.16667000000004 C 355.32446999999996,200.08458000000005 355.0518599999999,200.54115000000004 354.5416599999999,201.45833000000005 C 354.2951699999999,201.90146000000004 353.79232999999994,202.71938000000006 353.36416999999994,203.83566000000005 C 353.0381499999999,204.68562000000006 352.96349999999995,205.46859000000003 352.55734999999993,206.42134000000004 C 352.2037699999999,207.25072000000003 351.76053999999993,207.73520000000005 351.33334999999994,208.83333000000005 C 350.98553999999996,209.72742000000005 350.9312499999999,210.51894000000004 350.57467999999994,211.38533000000004 C 350.18188999999995,212.33974000000003 350.03790999999995,213.00891000000004 350.0106799999999,213.78534000000005 C 349.9739699999999,214.83273000000005 349.99999999999994,215.76401000000004 349.99999999999994,216.59866000000005 C 349.99999999999994,217.59550000000004 349.99999999999994,218.34283000000005 349.99999999999994,219.25183000000004 C 349.99999999999994,220.33333000000005 349.99999999999994,221.01433000000003 349.99999999999994,221.82133000000005 C 349.99999999999994,223.00000000000006 349.99999999999994,223.59866000000005 349.99999999999994,224.47917000000004 C 349.99999999999994,225.31466000000003 349.89135999999996,226.33667000000003 350.10799999999995,227.26134000000005 C 350.36837999999995,228.37265000000005 350.84316999999993,228.97455000000005 351.28664999999995,229.65067000000005 C 351.74950999999993,230.35634000000005 352.25055,231.02062000000004 352.85698999999994,231.95701000000005 C 353.19539999999995,232.47952000000006 353.68877999999995,233.39214000000004 354.1001499999999,234.20017000000004 C 354.51857999999993,235.02199000000005 354.8736799999999,235.69237000000004 355.3216499999999,236.42167000000003 C 355.8334899999999,237.25494000000003 356.2417499999999,237.85009000000002 356.68666999999994,238.48667000000003 C 357.41365999999994,239.52682000000004 357.9560199999999,240.25265000000005 358.24666999999994,240.61468000000002 C 358.83534999999995,241.34791 359.45921999999996,242.06135000000003 360.16664999999995,242.66668 C 360.86235999999997,243.262 361.6499299999999,243.75178000000002 362.48265999999995,244.21467 C 362.9150599999999,244.45504000000003 364.33324999999996,245.16686 364.84315999999995,245.4215 C 365.37190999999996,245.68554 366.4822,246.23693 367.06248999999997,246.52083000000002 C 367.65687999999994,246.81163 368.26464,247.10771000000003 368.88798999999995,247.40134 C 370.81651999999997,248.30977000000001 371.48200999999995,248.6001 372.14814999999993,248.8955 C 372.81400999999994,249.19077 373.4786899999999,249.48026 374.1386599999999,249.76402 C 374.7896899999999,250.04390999999998 375.4293399999999,250.31778999999997 377.2566399999999,251.07852 C 377.8262499999999,251.31566 378.3784099999999,251.53874 379.4166399999999,251.97919 C 379.9074799999999,252.18741 380.8398299999999,252.57238999999998 382.0569899999999,253.19985 C 382.79398999999995,253.57978 383.4534999999999,253.98772 384.0909899999999,254.34286 C 384.9932999999999,254.84553 385.9036699999999,255.25758 386.5416399999999,255.4792 C 387.2091199999999,255.71106 388.33298999999994,256.00146 389.17331999999993,256.2027 C 390.09293999999994,256.42291 390.58615999999995,256.53104 391.6232999999999,256.81435999999997 C 392.1749099999999,256.96505999999994 393.3367099999999,257.32381999999996 394.5706599999999,257.76802999999995 C 395.2161099999999,258.00039 395.87137999999993,258.25230999999997 396.5416399999999,258.50001999999995 C 397.2207199999999,258.751 397.90570999999994,259.00444999999996 398.6026399999999,259.23200999999995 C 399.9937199999999,259.68625999999995 400.6951999999999,259.87641999999994 402.0909799999999,260.18567999999993 C 402.7765899999999,260.33759999999995 403.4577999999999,260.46124999999995 404.1279699999999,260.57868999999994 C 404.7851699999999,260.6938599999999 406.6669099999999,260.99848999999995 407.2569699999999,261.1000199999999 C 407.82956999999993,261.19855999999993 408.9282299999999,261.3986999999999 409.4583199999999,261.5000099999999 C 410.4914599999999,261.6974599999999 410.9971699999999,261.8006999999999 412.4996399999999,262.09982999999994 C 412.99725999999987,262.19891999999993 413.9772399999999,262.39709999999997 414.9279799999999,262.56399999999996 C 415.82806999999985,262.72202 416.6651599999999,262.84891 417.7991299999999,262.94732999999997 C 418.5200199999999,263.00989 419.2643699999999,263.03362999999996 420.4999699999999,263.16666 C 421.4536399999999,263.26932 421.9580699999999,263.35208 422.9999699999999,263.5 C 423.5239899999999,263.5744 424.5465699999999,263.72815 425.4999699999999,263.83334 C 426.3468299999999,263.92678 427.1249399999999,263.96173000000005 428.2579699999999,264.05267000000003 C 429.50119999999987,264.15246 429.96490999999986,264.21933 430.9759899999999,264.35266 C 431.5188099999999,264.42425000000003 432.6676399999999,264.57751 433.2706399999999,264.64734000000004 C 433.8889899999999,264.71893000000006 435.1658999999999,264.84622 436.4839899999999,264.91467000000006 C 437.1523599999999,264.94937000000004 437.8252699999999,264.9664900000001 438.4999799999999,264.97915000000006 C 439.1745999999999,264.99181000000004 440.51596999999987,264.99932000000007 441.8333199999999,264.9999900000001 C 442.4781599999999,265.0003300000001 443.1119799999999,264.9999900000001 444.3426599999999,264.9999900000001 C 444.93747999999994,264.9999900000001 445.5173099999999,264.9999900000001 446.6279699999999,264.9999900000001 C 447.6666399999999,264.9999900000001 448.6293099999999,264.9999900000001 449.5279899999999,264.9999900000001 C 450.37863999999985,264.9999900000001 451.19729999999987,264.9999900000001 452.4002999999999,264.9999900000001 C 453.2089899999999,264.9999900000001 454.0416299999999,264.9999900000001 454.4719599999999,264.9999900000001 C 455.3706399999999,264.9999900000001 456.84280999999993,264.9999900000001 457.3692999999999,264.9999900000001 C 458.4613099999999,264.9999900000001 459.0208199999999,264.9999900000001 460.1517999999999,264.9999900000001 C 460.7173199999999,264.9999900000001 461.8333199999999,264.9999900000001 462.9133099999999,264.9999900000001 C 463.4382999999999,264.9999900000001 464.4583199999999,264.9999900000001 465.4382999999999,264.9999900000001 C 465.9133099999999,264.9999900000001 467.2786899999999,265.0060000000001 468.1473099999999,264.9955000000001 C 469.0000599999999,264.9851900000001 469.8548899999999,264.9670600000001 471.1666299999999,264.8333300000001 C 471.62225999999987,264.7868800000001 472.5539899999999,264.6503500000001 473.4999699999999,264.4791400000001 C 473.9753399999999,264.3931100000001 474.9159599999999,264.1986500000001 476.27798999999993,263.9001600000001 L 477.1293099999999,263.7044800000001 L 477.91662999999994,263.5208300000001 L 478.62396999999993,263.3571600000001" fill="none" id="svg_18" stroke="#000" stroke-width="2"/>
</svg>
