<?xml version="1.0" ?>
<svg baseProfile="full" height="480" version="1.1" width="640" xmlns="http://www.w3.org/2000/svg" xmlns:ev="http://www.w3.org/2001/xml-events" xmlns:xlink="http://www.w3.org/1999/xlink">
	<defs/>
	<path d="M 290.0,204.0 C 290.0,205.8 290.0,206.7 290.0,207.60001 C 290.0,208.4 290.00006,209.30001 290.0,210.2 C 289.99991,211.10001 289.75787,211.95377 289.35266,212.7 C 288.93936,213.46112 289.0,214.41065999999998 289.0,215.32134 C 289.0,216.17467 289.0,217.11467 289.0,218.00001 C 289.0,218.80001000000001 289.0,219.70001 289.0,220.60002 C 289.0,221.50001 289.00067,222.40001 289.0,223.30002 C 288.99933,224.19869 288.37219,224.74758 288.02084,225.52085 C 287.65265,226.3312 288.0,227.32136 288.0,228.00002 C 288.0,229.11469 288.0,230.00002 288.0,230.80002000000002 C 288.0,231.70001000000002 288.0,232.60002000000003 288.0,233.50002 C 288.0,234.40001 288.04672,235.32949 287.57468,235.98536000000001 C 287.1297,236.60362 286.77561000000003,237.3204 286.284,238.08270000000002 C 285.86545,238.73169000000001 286.0,239.70002000000002 286.0,240.60003 C 286.0,241.50002 286.0,242.40002 286.0,243.30003 C 286.0,244.20002 286.0,245.10003 286.0,246.00002999999998 C 286.0,246.80003 286.0,247.70002999999997 286.0,248.63602999999998 C 286.0,249.48402 286.0,250.34735999999998 286.0,251.36402999999999 C 286.0,252.20003 285.95221,253.10129999999998 286.0,254.00002999999998 C 286.04272,254.80344 286.74695,255.53722 286.96399,256.40002 C 287.18372000000005,257.27351999999996 286.84067000000005,258.29791 287.35266,258.94735 C 287.83719,259.56197 287.82806,260.37553999999994 288.28534,261.20003999999994 C 288.66916000000003,261.89205999999996 289.51508,262.48531999999994 290.09982,263.10002999999995 C 290.65756000000005,263.6863599999999 291.00631000000004,264.59160999999995 291.7045,265.05269999999996 C 292.45978,265.55150999999995 292.83643,266.34707 293.22135,267.10002999999995 C 293.61152,267.8632099999999 294.09500999999995,268.58879999999994 294.7045,269.10985999999997 C 295.34467,269.65713 295.49451,270.61492999999996 296.0,271.45836999999995 C 296.37863,272.09013999999996 297.60123,271.84346999999997 298.2955,272.3571999999999 C 298.96927,272.8557399999999 299.27545,273.79750999999993 299.91733,274.28401999999994 C 300.64096,274.83253999999994 301.45297,274.84550999999993 302.23834,275.3571999999999 C 302.97226,275.83534999999995 303.21614999999997,276.7294799999999 304.0,277.16667999999993 C 304.65189,277.5302699999999 305.21674,278.42619999999994 306.0,278.83336999999995 C 306.74384,279.22005999999993 307.47421,279.55251999999996 308.39999,279.9746999999999 C 309.18084,280.33080999999993 309.72467,280.8890099999999 310.5,281.4791899999999 C 311.23447,282.0382399999999 311.74976,282.6230499999999 312.52084,282.9791899999999 C 313.31949000000003,283.3480599999999 314.21548,283.2678899999999 314.79998,283.80135999999993 C 315.51968,284.4582499999999 316.29864,284.9713699999999 317.2,285.0000299999999 C 318.09954,285.02865999999995 318.97173,285.21172999999993 319.59999,285.5747099999999 C 320.44563,286.06326999999993 321.00645,286.60272999999995 321.70448,287.05270999999993 C 322.4803,287.5528299999999 323.01075,288.21881999999994 323.69999,288.6428599999999 C 324.52137,289.1481999999999 325.5131,288.8573099999999 326.39997,289.01071999999994 C 327.23344,289.1548899999999 327.72266,289.89160999999996 328.49998,290.47919999999993 C 329.23759,291.03678999999994 330.19999,291.00003999999996 331.09999,291.00003999999996 C 331.99998,291.00003999999996 332.79997,291.00003999999996 333.7,291.00003999999996 C 334.59999,291.00003999999996 335.49998999999997,291.00003999999996 336.39997999999997,291.00003999999996 C 337.29997,291.00003999999996 338.2,291.00003999999996 339.09999,291.00003999999996 C 339.99998,291.00003999999996 340.79997,291.00003999999996 341.7,291.00003999999996 C 342.59999,291.00003999999996 343.49998999999997,291.00003999999996 344.39997999999997,291.00003999999996 C 345.29997,291.00003999999996 346.25728,291.16371 347.09999,290.77869999999996 C 347.7693,290.47290999999996 348.67377999999997,290.33316999999994 349.47914,289.97919999999993 C 350.19124,289.6662099999999 350.70457,289.01264999999995 351.59999,289.00003999999996 C 352.50014,288.98738 353.30373,288.64691999999997 353.99998,288.00003999999996 C 354.60325,287.43954999999994 355.33218999999997,286.95834999999994 356.02531,286.42535999999996 C 356.6587,285.93832999999995 357.59776,285.98745999999994 358.05264999999997,285.29553999999996 C 358.55972999999994,284.52426999999994 359.10229999999996,283.90232 359.69998999999996,283.30002999999994 C 360.39200999999997,282.6026999999999 360.53689999999995,281.60425999999995 361.28531999999996,281.08536999999995 C 361.95834999999994,280.61875999999995 362.85742999999997,280.66876999999994 363.42529999999994,280.02536999999995 C 363.94992999999994,279.43094999999994 364.3616399999999,278.70005 364.8866299999999,278.20005 L 365.8146399999999,277.60004 L 366.43063999999987,277.20005" fill="none" id="svg_1" stroke="#000" stroke-width="2"/>
	<path d="M 288.0,203.0 C 286.29999,201.94733 285.49484,201.48444 284.79999,200.8 C 284.29623999999995,200.30380000000002 283.56640999999996,199.62748000000002 283.08401999999995,198.80133 C 282.67749999999995,198.1051 282.11776999999995,197.61729 281.7785099999999,196.67866 C 281.52636999999993,195.98107000000002 281.0350699999999,195.13793 280.5000099999999,194.52082000000001 C 279.84113999999994,193.76093 279.2999999999999,193.24282000000002 278.8013399999999,192.51600000000002 L 278.35718999999995,191.65266000000003 L 278.0526899999999,190.76167000000004" fill="none" id="svg_2" stroke="#000" stroke-width="2"/>
	<path d="M 274.0,178.0 C 272.24283,178.0 271.28247,177.75322 270.56934,178.08533 C 269.74701,178.4683 269.14139,179.22449 268.99985000000004,180.10001 C 268.85379000000006,181.00354 268.57596000000007,181.69043 268.00000000000006,182.47917999999999 C 267.53247000000005,183.11944999999997 267.00226000000004,183.70449 267.00000000000006,184.60001 C 266.9977400000001,185.5 267.00000000000006,186.4 267.00000000000006,187.30001 C 267.00000000000006,188.2 266.60825000000006,189.3791 267.2853400000001,189.91467999999998 C 267.92777000000007,190.42286 269.00000000000006,190.00000999999997 269.7999900000001,190.00000999999997 C 270.7000100000001,190.00000999999997 271.6000100000001,190.00000999999997 272.5000000000001,190.00000999999997 C 273.3999900000001,190.00000999999997 274.2999900000001,190.00000999999997 275.20001000000013,190.00000999999997 L 276.10000000000014,190.00000999999997 L 276.99999000000014,190.00000999999997 L 277.87850000000014,189.77850999999998" fill="none" id="svg_3" stroke="#000" stroke-width="2"/>
	<path d="M 276.0,184.0 C 274.29999,184.0 273.39999,184.0 272.5,184.0 C 271.60001,184.0 270.61066,184.01067 270.02084,184.52083 L 269.97866000000005,185.38933" fill="none" id="svg_4" stroke="#000" stroke-width="2"/>
	<path d="M 272.0,178.0 C 272.0,176.3 272.0,175.39999 272.0,174.5 C 272.0,173.60001 271.99939,172.7 272.0,171.8 C 272.00067,170.80133 272.33679,170.14874 272.97467,169.57466000000002 C 273.55341,169.05380000000002 273.85165,168.26907000000003 274.436,167.61067000000003 C 275.05123,166.91746000000003 275.90785999999997,166.61493000000002 276.42532,166.02533000000003 C 276.98501,165.38757000000004 277.80615,165.37148000000002 278.56399,164.96400000000003 C 279.29332999999997,164.57186000000002 279.43383,163.32519000000002 280.29998,163.05715000000004 C 281.16152,162.79053000000005 282.10439,163.08867000000004 282.99999,162.99999000000003 C 283.84569000000005,162.91625000000002 284.28200000000004,162.04271000000003 285.1,161.99999000000003 C 285.99877000000004,161.95305000000002 286.80016,162.01798000000002 287.70001,161.99999000000003 C 288.60055,161.98198000000002 289.31033,161.38186000000002 290.20001,161.08532000000002 C 291.05765,160.79945000000004 292.0,160.99999000000003 292.79999000000004,160.99999000000003 C 293.70001,160.99999000000003 294.60001000000005,160.99999000000003 295.50000000000006,160.99999000000003 C 296.39999000000006,160.99999000000003 297.29999000000004,160.99999000000003 298.2000100000001,160.99999000000003 C 299.1000000000001,160.99999000000003 300.00000000000006,160.99999000000003 300.7999900000001,160.99999000000003 C 301.7000100000001,160.99999000000003 302.4483400000001,161.24202000000002 303.08402000000007,161.71599000000003 C 303.85285000000005,162.28923000000003 304.83323000000007,161.80814000000004 305.70002000000005,162.05715000000004 C 306.46500000000003,162.27692000000005 307.01817000000005,163.20702000000003 307.70002000000005,163.64283000000003 C 308.52399,164.16947000000002 309.34626000000003,164.52177000000003 310.10001000000005,164.87865000000002 C 310.95407000000006,165.28302000000002 311.48142000000007,165.80184000000003 312.00000000000006,166.47916000000004 C 312.48373000000004,167.11097000000004 313.43805000000003,167.16277000000002 314.05267000000003,167.64733000000004 C 314.70211000000006,168.15934000000004 315.68820000000005,168.09960000000004 316.08401000000003,168.80132000000003 C 316.54452000000003,169.61774000000003 316.84387000000004,170.46404000000004 317.28533000000004,171.19999000000004 C 317.69243000000006,171.87861000000004 318.51507000000004,172.48528000000005 319.09981000000005,173.10000000000005 C 319.65755000000007,173.68632000000005 319.91600000000005,174.66633000000004 320.43599000000006,175.39999000000006 C 320.9938200000001,176.18707000000006 321.50172000000003,176.78172000000006 321.9999900000001,177.47917000000007 C 322.4608400000001,178.12427000000008 323.3696500000001,178.42914000000007 323.8785000000001,179.22149000000007 C 324.35775000000007,179.96775000000008 324.1265200000001,181.0318800000001 324.6106500000001,181.60000000000008 C 325.2458400000001,182.34536000000008 325.8874400000001,182.9907000000001 325.99865000000005,183.80000000000007 C 326.11364000000003,184.63701000000006 326.81280000000004,185.17103000000006 326.9999900000001,186.00000000000006 C 327.1995700000001,186.88387000000006 327.7912500000001,187.38580000000005 328.3571700000001,187.95183000000006 C 328.9868400000001,188.58161000000007 329.63598000000013,189.18534000000005 330.1666500000001,189.83333000000005 L 330.8253400000001,190.36400000000003 L 331.51598000000007,190.79866000000004" fill="none" id="svg_5" stroke="#000" stroke-width="2"/>
	<path d="M 313.0,207.0 C 313.0,209.58934 312.99774,210.5 313.0,211.39999 C 313.00226,212.29551 313.49612,212.85548 314.20001,213.28534 C 314.87536,213.69779 315.54516,214.48888 316.1,215.32134 C 316.53689,215.97686 316.93417,216.89248999999998 317.52084,217.47917999999999 C 318.10751000000005,218.06582999999998 318.85226,218.35693999999998 319.83334,219.00000999999997 C 320.39102,219.36554999999998 321.3356,219.81694 321.97915,220.00000999999997 C 322.92434000000003,220.26889999999997 323.43383,221.11334999999997 324.02084,221.50000999999997 C 324.96450000000004,222.12160999999998 325.52447,222.73898999999997 326.39999,222.96400999999997 C 327.27691,223.18937999999997 328.23315,223.04744999999997 328.97915,223.54167999999999 C 329.75372,224.05482999999998 329.59585,224.99766 330.22149,225.75717999999998 C 330.78076000000004,226.43612 331.70120000000003,226.64462999999998 332.49999,227.00000999999997 C 333.29671,227.35446999999996 333.62047,228.34712999999996 334.33333000000005,228.83333999999996 C 335.04891000000003,229.32138999999995 336.16274000000004,228.83469999999997 336.99999,229.16667999999996 C 337.70238,229.44519999999994 338.49831,229.84480999999997 339.34731000000005,230.05267999999995 C 340.26464000000004,230.27728999999997 340.98739000000006,230.91496999999995 341.79998000000006,230.99867999999995 C 342.69527000000005,231.09089999999995 343.66091000000006,230.96327999999994 344.4853100000001,231.28666999999996 C 345.2391600000001,231.58239999999995 346.0072200000001,232.15785999999997 346.59548000000007,232.64816999999996 C 347.35229000000004,233.27896999999996 348.1025000000001,233.91173999999995 348.88399000000004,233.99733999999995 C 349.81975000000006,234.09982999999994 350.85509,233.85234999999994 351.58931,234.03600999999995 C 352.47108000000003,234.25658999999996 353.16878,234.82293999999996 353.99999,235.00000999999995 C 354.98134000000005,235.20908999999995 355.58535,235.70195999999996 356.48531,235.91467999999995 C 357.38329000000004,236.12692999999996 358.39867000000004,235.99946999999995 359.16399,236.00000999999995 C 360.11599,236.00067999999996 360.88744,236.07585999999995 361.83599000000004,236.42534999999995 C 362.60418000000004,236.70836999999995 363.59417,236.96729999999997 364.34283000000005,236.99550999999994 C 365.2421800000001,237.02941999999993 366.2000100000001,237.00000999999995 367.10015000000004,237.00000999999995 C 367.88534000000004,237.00000999999995 368.82534000000004,237.00000999999995 369.83333000000005,237.00000999999995 C 370.62532000000004,237.00000999999995 371.48400000000004,237.00000999999995 372.34731000000005,237.00000999999995 C 373.24282000000005,237.00000999999995 374.20000000000005,237.00000999999995 375.1,236.99966999999995 L 375.79998,236.82933999999995" fill="none" id="svg_6" stroke="#000" stroke-width="2"/>
	<path d="M 307.0,214.0 C 307.0,215.8 306.94684,216.63783 307.00266,217.48399 C 307.05996999999996,218.35264 307.61807999999996,219.05702 308.29467999999997,219.69549 C 308.98368,220.34567 308.84509999999995,221.36148 309.2215,222.1 C 309.57126,222.78626 310.52295,223.34669 310.83335,224.16666999999998 C 311.14142,224.98056999999997 311.11298,226.0204 311.43601,226.78933999999998 C 311.75055000000003,227.53808999999998 312.33106000000004,228.22411999999997 312.79999000000004,228.88401 C 313.33194000000003,229.63255999999998 313.72806,230.38504999999998 313.91468000000003,231.39866999999998 C 314.05390000000006,232.15492999999998 313.9238,233.27651999999998 314.17066000000005,233.96932999999999 C 314.47028000000006,234.81019999999998 315.00342000000006,235.51212999999998 315.51734000000005,236.23199 C 316.09669,237.04346999999999 316.73740000000004,237.71359999999999 317.48267000000004,238.19998999999999 C 318.12610000000006,238.61990999999998 318.77414000000005,239.39192999999997 319.33335000000005,239.99999 C 319.8974400000001,240.61338 320.64655000000005,241.17811 321.16801000000004,241.79999 C 321.76234000000005,242.50879 322.59892,242.80754000000002 323.39869000000004,243.19866000000002 C 324.16050000000007,243.57122 325.23689,243.72132000000002 326.00001000000003,244.33332000000001 C 326.51014000000004,244.74244000000002 327.00935000000004,245.65095000000002 327.75718,246.10532 C 328.49351,246.55271000000002 329.11491,247.23612 329.83335,247.66666 C 330.57538,248.11133 331.47098,248.31667000000002 332.34733,248.64733 C 333.23094,248.98073000000002 334.09147,249.23353 334.75718,249.70449000000002 C 335.47617,250.21316000000002 336.21067,250.60000000000002 337.00001000000003,250.99999000000003 C 337.78935,251.39998000000003 338.50889,251.80845000000002 339.36402000000004,252.38932000000003 C 340.09513000000004,252.88593000000003 340.96668000000005,253.22059000000002 341.60001000000005,253.57465000000002 C 342.46128000000004,254.05616 343.44455000000005,253.90451000000002 344.20002000000005,254.28399000000002 C 345.06721000000005,254.71957 345.80021000000005,254.9806 346.70002000000005,254.99999000000003 C 347.56455000000005,255.01864000000003 348.04398000000003,255.85424000000003 348.80134000000004,255.99866000000003 C 349.68412000000006,256.16701 350.60002000000003,255.99999000000003 351.50001000000003,255.99999000000003 C 352.40000000000003,255.99999000000003 353.3,255.99999000000003 354.20002000000005,255.99999000000003 C 355.10001000000005,255.99999000000003 356.00001000000003,255.99999000000003 356.80000000000007,255.99999000000003 C 357.70002000000005,255.99999000000003 358.6000200000001,256.00063 359.5208600000001,255.99999000000003 C 360.4840300000001,255.99932 361.2233100000001,256.10409000000004 362.1146700000001,255.71599000000003 C 362.8564300000001,255.39304000000004 363.7268800000001,255.18596000000002 364.6000200000001,254.96399000000002 C 365.4622900000001,254.74478000000002 366.19700000000006,254.04269000000002 367.1000200000001,253.99999000000003 C 367.9990100000001,253.95746000000003 368.8105300000001,254.10102000000003 369.6360000000001,253.96399000000002 C 370.5079800000001,253.81925 371.2012200000001,253.42976000000002 372.1146700000001,252.80132000000003 C 372.8205400000001,252.31566000000004 373.6663400000001,252.08396000000002 374.4000100000001,251.56398000000004 C 375.1870900000001,251.00613000000004 375.65248000000014,250.20740000000004 376.5000200000001,250.02081000000004 C 377.3691000000001,249.82948000000005 377.9461000000001,249.25580000000005 378.7045200000001,249.00448000000003 C 379.55767000000014,248.72178000000002 380.20003000000014,248.43199000000004 380.70003000000014,247.70532000000003 L 381.3893600000001,247.05064000000002" fill="none" id="svg_7" stroke="#000" stroke-width="2"/>
	<path d="M 333.0,188.0 C 334.79999,188.0 335.70001,188.0 336.60001,188.0 C 337.5,188.0 338.35663,187.86343 339.20002,188.284 C 339.86164,188.61392999999998 340.70008,188.98757999999998 341.60001,189.0 C 342.521,189.01271 343.50229,189.24908 344.17466,189.61067 C 345.00355,190.05641 345.58320000000003,190.69371 346.48402000000004,190.91467 C 347.32615000000004,191.12123 348.27290000000005,190.8972 349.16667000000007,191.16667 C 350.01527000000004,191.42251000000002 350.4683100000001,192.19266000000002 351.1680100000001,192.71466 C 351.8888400000001,193.25243 352.9636300000001,193.24837000000002 353.5893400000001,193.57466000000002 C 354.48054000000013,194.03941000000003 355.3037600000001,194.3531 356.0000200000001,195.00000000000003 C 356.60329000000013,195.56050000000002 357.32827000000015,195.87091000000004 358.32134000000013,196.22150000000002 C 359.0208000000001,196.46843 359.86208000000016,196.96497000000002 360.47918000000016,197.50000000000003 C 361.2376600000002,198.15762000000004 361.8212800000002,198.66725000000002 362.63601000000017,199.06134000000003 C 363.3421000000002,199.40288000000004 364.0046300000002,200.01610000000002 364.51601000000016,200.51733000000002 C 365.37181000000015,201.35614 365.92965000000015,202.08578000000003 366.60002000000014,202.56399000000002 C 367.33610000000016,203.08906000000002 368.0632200000001,203.47021 368.60002000000014,204.14933000000002 C 369.16301000000016,204.86156000000003 370.05958000000015,205.28495 370.70003000000014,205.64733 C 371.5208000000001,206.11175 371.9623300000001,206.76511000000002 372.52086000000014,207.49999 C 373.02541000000014,208.16382 373.71559000000013,208.60808 374.60002000000014,209.02532 C 375.4047400000001,209.40496 375.75178000000017,210.3109 376.33336000000014,210.99999 C 376.7605800000001,211.50619 377.83577000000014,211.99676 378.3746800000001,212.39998 C 379.17024000000015,212.99524 379.9623300000001,213.232 380.6666700000001,213.99999 C 381.2256000000001,214.60943 381.7332300000001,215.37002 382.02086000000014,215.99999 C 382.43398000000013,216.90482 383.3686700000001,216.95313 384.0000200000001,217.52082 C 384.65838000000014,218.1128 385.34453000000013,218.6565 385.9493600000001,219.39998999999997 C 386.4898000000001,220.06430999999998 387.29644000000013,220.46596999999997 387.83068000000014,221.19998999999999 C 388.4080700000001,221.99326 388.41164000000015,222.84794 389.0253500000001,223.56399 C 389.5490000000001,224.17494 390.4459400000001,224.1453 391.08404000000013,224.71599999999998 C 391.73580000000015,225.29892999999998 392.28536000000014,225.91466999999997 393.2000400000001,226.00132 L 394.0000300000001,226.16665999999998 L 394.64285000000007,226.70449 L 395.0253600000001,227.56399" fill="none" id="svg_8" stroke="#000" stroke-width="2"/>
	<path d="M 403.0,234.0 C 401.28534,235.084 400.88068,235.78069 400.42532,236.60001 C 399.99081,237.38179 399.61087,238.14531 399.28399,238.88533 C 398.89007000000004,239.77715 398.91174,240.88298 398.47915,241.47917 C 397.89748000000003,242.28082 397.27969,242.73446 397.05267,243.65266 C 396.84286,244.5012 396.54245,245.35974 396.0,246.16667 C 395.57199,246.80336 395.17816,247.57176 394.17465,247.93866 C 393.51205,248.18091 392.61636,248.44896 392.03067,248.88667 C 391.229,249.48581000000001 390.43487999999996,250.01985000000002 389.77666999999997,250.29016000000001 C 388.69241,250.73544 387.82933999999995,250.82933000000003 386.92801,250.92799000000002 L 386.45833999999996,250.95832000000001 L 385.49098999999995,250.99099" fill="none" id="svg_9" stroke="#000" stroke-width="2"/>
	<path d="M 407.0,236.0 C 408.75717,236.0 409.65717,236.0 410.40451,236.0 C 411.39999,236.0 412.20001,236.0 413.20035,236.0 C 414.04166000000004,236.0 414.77066,236.0 415.96933,236.0 C 416.66135,236.0 417.38535,236.0 418.11734,236.0 C 419.51599,236.0 420.17465,236.0 421.15268000000003,236.0 C 422.16666000000004,236.0 422.88416,236.00653 423.62534000000005,235.98933 C 424.3748800000001,235.97193 425.83609000000007,235.84822 426.51468000000006,235.716 C 427.16693000000004,235.58891 428.08759000000003,235.30685 429.29999000000004,235.12133 C 429.89697,235.02998 430.80622000000005,235.02007 432.00000000000006,234.83332 C 432.6040300000001,234.73883999999998 433.49649000000005,234.48484 434.10001000000005,234.35264999999998 C 435.29380000000003,234.09118999999998 436.20093,234.03520999999998 436.79999000000004,233.97465999999997 C 438.00217000000004,233.85313999999997 438.60498,233.72854999999998 439.52085000000005,233.47915999999998 C 440.1598900000001,233.30514999999997 441.51939000000004,232.89266999999998 442.25266000000005,232.70449 C 442.9980800000001,232.51318999999998 443.74256,232.32745 444.83335000000005,232.16665999999998 C 445.51087000000007,232.06678999999997 446.45820000000003,232.01162999999997 447.31333000000006,232.00132 C 448.31595000000004,231.98922 449.22535000000005,231.99999 450.1666600000001,231.99999 C 450.95267000000007,231.99999 451.7746600000001,231.99999 452.8333500000001,231.99999 C 453.7640100000001,231.99999 454.3955100000001,231.99999 455.4000000000001,231.99999 C 456.2000200000001,231.99999 457.2022800000001,232.0414 458.0208500000001,231.97916 C 459.1725800000001,231.89159 459.9560600000001,231.64307 460.5208500000001,231.49999 C 461.3997000000001,231.27734999999998 462.59901000000013,231.07119 463.2000200000001,231.03599 C 464.0990400000001,230.98333 465.3000000000001,230.99999 465.9000000000001,230.99999 C 466.7999900000001,230.99999 468.0000100000001,230.99999 468.6000100000001,230.99999 C 469.5000000000001,230.99999 470.40003000000013,231.00515 471.2999900000001,230.99982 C 472.2000400000001,230.99448 473.1053800000001,230.98038 474.0000000000001,230.83332 C 474.9025000000001,230.68496 475.7594300000001,230.40617999999998 476.3146700000001,230.28399 C 477.5387300000001,230.01460999999998 478.2253100000001,230.00533 479.42151000000007,229.99999 C 480.2359900000001,229.99636 480.8106700000001,230.00293 482.00000000000006,229.99999 C 482.90900000000005,229.99773 483.54260000000005,229.99381 484.21432000000004,229.94283 C 485.33547000000004,229.85772999999998 486.16729000000004,229.71988 487.04,229.57465 C 487.91396000000003,229.42922 488.74294000000003,229.25681 489.83565000000004,229.12149 C 490.70024000000006,229.01442 491.44365000000005,229.00224 492.68398,228.99998 C 493.22533000000004,228.999 494.04732,228.99998 495.31466,228.99998 C 495.97915,228.99998 496.99999,228.99998 497.79998,228.99998 C 498.6,228.99998 499.60851,229.04098 500.45715,228.94281999999998 C 501.42871,228.83041999999998 502.22073,228.55682 503.04733,228.35263999999998 C 504.07324,228.09923999999998 504.76349,228.01919999999998 505.59866,228.00131 C 506.59979,227.97986999999998 507.39999,227.99998 508.39999,227.99998 C 509.20001,227.99998 510.19983,227.99998 510.97915,227.99998 C 511.97848,227.99998 513.00048,227.97289999999998 513.79998,227.99998 C 514.64428,228.02857 514.99932,228.80131 514.99999,229.69997999999998 C 515.0006000000001,230.52080999999998 515.0021300000001,231.48397999999997 514.99999,232.34731999999997 C 514.99773,233.24732999999998 514.8333,234.16665999999998 514.49999,234.99997999999997 C 514.16668,235.83330999999995 514.42638,236.70473999999996 513.96398,237.56397999999996 C 513.57152,238.29316999999995 512.6163799999999,238.50210999999996 511.66665,238.99997999999997 C 511.01284,239.34271999999996 510.22595,239.61256999999998 509.16665,239.83330999999995 C 508.46316,239.97989999999996 507.58477,239.97981999999996 506.6,240.28531999999996 C 505.98437,240.47629999999995 505.00698,241.01448999999997 504.21066,241.38930999999997 C 503.49139,241.72785999999996 502.61517000000003,241.98197999999996 501.66665,241.99997999999997 C 500.73882000000003,242.01758999999996 499.94817,241.99997999999997 498.92132,241.99997999999997 C 498.22533999999996,241.99997999999997 497.316,241.99997999999997 496.31732,241.99997999999997 C 495.52084,241.99997999999997 494.7641,241.90230999999997 493.66134,242.01064999999997 C 492.82281,242.09302999999997 492.00317,242.58132999999998 490.99998999999997,242.83330999999998 C 490.22402,243.02822999999998 489.46565999999996,242.82576999999998 488.52083,243.02080999999998 C 487.65373,243.19980999999999 486.90611,243.9391 485.99998999999997,243.99998 C 485.2018,244.05361 484.29997999999995,243.99998 483.39997999999997,243.99998 L 482.49998999999997,243.99998" fill="none" id="svg_10" stroke="#000" stroke-width="2"/>
	<path d="M 504.0,243.0 C 505.82535,243.01067 506.97238,242.99585 507.55334,243.61067 C 508.1614,244.25416 508.72558,244.87393 508.98931,245.61067 C 509.28905,246.44803 508.99998999999997,247.39999 508.99998999999997,248.3 C 508.99998999999997,249.19999 509.22303999999997,250.17184 508.83333,251.0 C 508.47646,251.75839 507.47933,251.98958 506.51331999999996,252.0 C 505.75334,252.00819 504.83333,252.0 504.04731999999996,252.0 C 503.22532999999993,252.0 502.16664,252.0 501.22532999999993,252.0 C 500.54731999999996,252.0 499.57865999999996,252.0 498.77464999999995,252.0 C 497.9526599999999,252.0 496.92115999999993,252.0 495.97914999999995,252.0 C 495.23064999999997,252.0 494.03200999999996,252.0 493.34932999999995,252.0 C 492.65065999999996,252.0 491.33333999999996,252.0 490.51433999999995,252.0 L 489.82131999999996,252.0" fill="none" id="svg_11" stroke="#000" stroke-width="2"/>
	<path d="M 504.0,251.0 C 504.0,252.8 504.01068,253.70006 504.0,254.60001 C 503.98956,255.47935999999999 503.44202,255.95064 502.51599,256.284 C 501.81097,256.53781 500.88842999999997,256.95727999999997 500.0,257.0 C 499.24371,257.03635 498.33344,256.92987 497.39868,257.08533 C 496.58807,257.22013 495.85333,257.62754 494.884,257.91599 C 493.84872,258.22406 493.16653,258.46604 492.53833000000003,258.64734000000004 C 491.33743000000004,258.99396 490.52103000000005,258.98837000000003 489.76935000000003,258.99866000000003 C 488.80994000000004,259.01178000000004 487.83335000000005,259.00000000000006 487.00000000000006,259.00000000000006 C 486.02151000000003,259.00000000000006 485.20132000000007,259.00000000000006 484.29999000000004,259.00000000000006 C 483.47916000000004,259.00000000000006 482.51599000000004,259.00000000000006 481.65268000000003,259.00000000000006 C 480.75717000000003,259.00000000000006 479.79999000000004,259.00000000000006 478.89999000000006,259.00000000000006 C 478.00000000000006,259.00000000000006 477.2000100000001,259.00000000000006 476.36401000000006,259.00000000000006 C 475.3473200000001,259.00000000000006 474.6526800000001,259.00000000000006 473.6253300000001,259.00000000000006 C 472.67867000000007,259.00000000000006 471.9999900000001,259.00000000000006 471.0215100000001,259.00000000000006 C 470.0000000000001,259.00000000000006 469.2000100000001,259.00000000000006 468.36401000000006,259.00000000000006 C 467.3473200000001,259.00000000000006 466.6526800000001,259.00000000000006 465.6253300000001,259.00000000000006 C 464.67867000000007,259.00000000000006 463.9999900000001,259.00000000000006 463.0215100000001,259.00000000000006 C 462.0000000000001,259.00000000000006 461.2428200000001,259.00000000000006 460.3473200000001,259.00000000000006 C 459.48401000000007,259.00000000000006 458.50000000000006,259.00000000000006 457.6785000000001,259.00000000000006 C 456.7893400000001,259.00000000000006 455.7999900000001,259.00000000000006 455.0000000000001,259.00000000000006 C 454.0000000000001,259.00000000000006 453.1910400000001,258.90189000000004 452.4853200000001,259.08533000000006 C 451.4692400000001,259.34943000000004 450.6926300000001,259.96741000000003 450.02933000000013,259.99866000000003 C 448.99576000000013,260.04737000000006 448.18344000000013,259.90079000000003 447.3333500000001,260.33335000000005 C 446.5850000000001,260.71412000000004 446.0489000000001,261.82139000000006 445.2428300000001,261.99100000000004 C 444.3664600000001,262.17539000000005 443.47028000000006,261.85828000000004 442.6359900000001,262.01068000000004 C 441.6515500000001,262.19052000000005 441.1363600000001,262.82178000000005 440.17466000000013,262.96399 C 439.1768900000001,263.11154000000005 438.40516000000014,262.91641000000004 437.4583500000001,263.02084 C 436.4435800000001,263.13278 435.7374900000001,263.40518000000003 435.00535000000013,263.70449 C 434.1272700000001,264.06347 433.48441000000014,264.74105000000003 432.57868000000013,264.96398000000005 C 431.69239000000016,265.18212000000005 430.7353900000001,264.97121000000004 429.9481900000001,265.05715000000004 C 428.91459000000015,265.16997000000003 428.22678000000013,265.41561 427.40135000000015,265.80132000000003 C 426.59047000000015,266.18023000000005 425.80314000000016,266.60637 425.00001000000015,266.99999 C 424.1924500000001,267.39577 423.55647000000016,267.70781000000005 422.57868000000013,267.87850000000003 C 421.7821700000001,268.01754000000005 420.9524900000001,267.97982 419.6853400000001,268.00133000000005 C 419.0206700000001,268.01262 417.9952500000001,268.15236000000004 417.2000200000001,268.42531 C 416.39494000000013,268.70162000000005 415.5965300000001,268.89293000000004 414.8000000000001,269.02532 C 413.79475000000014,269.1924 413.02318000000014,269.57982000000004 412.00001000000015,269.83333000000005 C 411.2234300000001,270.02574000000004 410.47569000000016,269.88161 409.50001000000015,270.02083000000005 C 408.49040000000014,270.16490000000005 407.8115300000001,270.65953 406.8001800000001,270.87850000000003 C 406.0321700000001,271.04479000000003 405.0213400000001,270.99807000000004 404.2473500000001,270.99999 C 403.3428400000001,271.00225 402.5954900000001,271.05715000000004 401.6013200000001,271.28399 L 400.8360000000001,271.57467" fill="none" id="svg_12" stroke="#000" stroke-width="2"/>
	<path d="M 397.0,270.0 C 396.0,271.0 395.21393,270.98212 394.35184,271.35718 C 393.6825,271.64838000000003 393.31759999999997,272.56116000000003 392.98931999999996,273.38935000000004 C 392.69611,274.12907 391.76392,274.46595 390.9,274.87867000000006 C 390.04733999999996,275.2859900000001 389.31683999999996,275.43415000000005 388.52085,276.00001000000003 C 387.92051,276.4268 387.62476,277.53471 386.83335,277.83335000000005 C 386.02262,278.1392900000001 384.99665,277.93775000000005 384.22135,278.01069000000007 C 383.32370999999995,278.09513000000004 382.69199,278.7670100000001 382.05267999999995,279.35267000000005 C 381.46942999999993,279.88700000000006 380.74881999999997,280.4329 380.00001,280.83335000000005 C 379.20856999999995,281.25663000000003 378.67688999999996,281.82969 377.89984999999996,282.22135000000003 C 377.20062999999993,282.5738 376.34845999999993,282.96470000000005 375.48401999999993,282.99866000000003 C 374.6259299999999,283.03238000000005 373.68540999999993,283.23929000000004 372.97916999999995,283.50000000000006 C 372.00882999999993,283.8582200000001 371.19098999999994,283.92169000000007 370.40000999999995,284.08401000000003 C 369.39304999999996,284.29064000000005 368.72022999999996,284.71017000000006 368.06136,285.38934000000006 C 367.48429999999996,285.9841600000001 366.59707,285.93097000000006 365.69102999999996,286.00448000000006 C 364.65730999999994,286.08837000000005 363.99415999999997,286.36697000000004 363.21467999999993,286.5746700000001 C 362.1716199999999,286.8525900000001 361.4505199999999,286.90298000000007 360.60450999999995,287.0526700000001 C 359.58790999999997,287.2325400000001 358.98627999999997,287.5382400000001 357.83335999999997,288.0000000000001 C 357.31777,288.2065100000001 356.48798999999997,288.5150500000001 355.59867999999994,288.7146600000001 C 354.70707999999996,288.9147900000001 353.77897999999993,288.9742700000001 353.12800999999996,288.9893200000001 C 351.66704,289.02310000000006 351.25685999999996,289.00000000000006 350.38118,289.00000000000006 C 349.43751999999995,289.00000000000006 348.94266999999996,289.00000000000006 347.912,289.00000000000006 C 346.83335999999997,289.00000000000006 345.71601999999996,289.00000000000006 345.14734999999996,289.00000000000006 C 344.00001,289.00000000000006 343.42533,289.00000000000006 342.85266999999993,289.00000000000006 C 341.16666999999995,289.00000000000006 340.6214999999999,289.00000000000006 339.5571699999999,289.00000000000006 L 339.03601999999995,289.00000000000006 L 338.01068999999995,289.00000000000006 L 337.00134999999995,289.00000000000006" fill="none" id="svg_13" stroke="#000" stroke-width="2"/>
	<path d="M 283.0,232.0 C 283.0,234.58934 283.0,235.52083 283.0,236.32150000000001 C 283.0,237.21066000000002 283.0,238.19999 283.0,239.00000000000003 C 283.0,240.00000000000003 283.0,240.80000000000004 283.0,241.60001000000003 C 283.0,242.60001000000003 282.98068,243.40021000000002 283.00134,244.40267000000003 C 283.01925,245.27251000000004 283.15371000000005,246.33591000000004 283.28665,246.96934000000002 C 283.43252,247.66445000000002 283.61487,248.39654000000002 283.88666,249.11735000000002 C 284.42237,250.53814000000003 284.81925,251.15695000000002 285.17465,251.75334 C 285.82225999999997,252.84003 286.2503,253.53889 286.58932,254.18934000000002 C 287.00933,254.99522000000002 287.39943999999997,255.80029000000002 287.79998,256.60002000000003 C 288.20077,257.40028 288.59823,258.22639000000004 289.16665,259.00001000000003 C 289.62759,259.62733000000003 290.21978,260.22822 290.60131,260.68534000000005 C 291.42126,261.6677000000001 291.78316,262.24775000000005 292.45714000000004,263.0473400000001 C 293.13957000000005,263.8569700000001 293.67562000000004,264.3249600000001 294.22533000000004,264.7640100000001 C 295.03527,265.4108900000001 295.85064000000006,265.9802600000001 296.54283000000004,266.6044900000001 C 296.99071000000004,267.00839000000013 297.61809000000005,267.6698900000001 298.19981,268.4213200000001 C 298.81013,269.20965000000007 299.18293,269.7629000000001 299.83332,270.8333400000001 C 300.25986,271.53537000000006 300.58680000000004,272.2164000000001 301.16663,273.00000000000006 C 301.6276,273.6229900000001 302.20795,274.20267000000007 302.99997,275.00000000000006 C 303.59796,275.60202000000004 304.19998000000004,276.2000100000001 304.99997,277.00000000000006 C 305.39996,277.39999000000006 305.99997,278.00000000000006 306.59998,278.60001000000005 C 307.39997,279.40000000000003 307.99997,280.00000000000006 308.59998,280.60001000000005 C 309.19980000000004,281.1998300000001 309.78907000000004,281.78959000000003 310.34281000000004,282.3428400000001 C 311.11564000000004,283.11500000000007 311.73328000000004,283.72474000000005 312.48398000000003,284.2000200000001 C 313.15830000000005,284.6269600000001 314.13284000000004,285.1796000000001 314.69547000000006,285.7000200000001 C 315.4245000000001,286.3744000000001 315.99805000000003,287.00193000000013 316.5999800000001,287.6000100000001 C 317.3022500000001,288.2977600000001 317.9007000000001,288.6665400000001 318.81464000000005,288.9853200000001 C 319.68363000000005,289.2884200000001 319.68601000000007,290.1938500000001 320.35715000000005,290.8901700000001 C 321.00315000000006,291.56040000000013 321.70905000000005,291.9133600000001 322.52082000000007,292.47916000000015 C 323.25471000000005,292.99067000000014 324.1791100000001,292.90873000000016 325.1146300000001,293.0013500000002 C 326.0109000000001,293.0901000000002 326.5959500000001,293.69987000000015 327.4839800000001,293.91468000000015 C 328.32675000000006,294.11854000000017 329.2428000000001,294.00001000000015 330.1999800000001,294.00001000000015 C 331.0999700000001,294.00001000000015 331.9999700000001,294.00001000000015 332.7571400000001,294.00001000000015 C 333.6526500000001,294.00001000000015 334.5159600000001,294.00001000000015 335.4791200000001,294.00001000000015 C 336.3999600000001,294.00001000000015 337.3044700000001,294.00001000000015 338.1666200000001,294.00001000000015 C 338.9999600000001,294.00001000000015 339.97845000000007,294.00001000000015 340.7986400000001,294.00001000000015 C 341.6359500000001,294.00001000000015 342.6571300000001,294.00001000000015 343.4044700000001,294.00001000000015 C 344.3986400000001,294.00001000000015 345.16396000000015,294.00001000000015 346.11461000000014,294.00001000000015 C 347.0999600000001,294.00001000000015 347.99996000000016,294.00001000000015 348.79994000000016,294.00001000000015 C 349.69996000000015,294.00001000000015 350.5999600000002,294.00001000000015 351.4999500000002,294.00001000000015 C 352.3999400000002,294.00001000000015 353.3533400000002,294.13868000000014 354.1001100000002,293.77851000000015 C 354.8346100000002,293.4242600000002 355.4927500000002,292.81480000000016 356.1746000000002,292.40000000000015 C 357.1273300000002,291.82041000000015 357.64118000000025,291.23975000000013 358.39994000000024,290.61066000000017 C 359.05753000000027,290.06546000000014 359.8941400000002,289.9394300000002 360.8252900000002,289.57468000000017 C 361.52298000000025,289.30140000000017 362.5132200000002,289.07068000000015 363.29993000000024,288.64734000000016 C 364.14316000000025,288.19357000000014 364.77985000000024,288.00742000000014 365.65262000000024,287.64282000000014 C 366.36923000000024,287.34344000000016 367.14841000000024,286.53747000000016 367.99994000000027,286.1666500000001 C 368.7489000000003,285.8405100000001 369.45142000000027,285.6689700000001 370.16660000000024,285.1666500000001 C 370.86203000000023,284.67819000000014 371.78986000000026,285.0266400000001 372.64811000000026,284.64282000000014 C 373.46949000000023,284.27551000000017 373.97685000000024,283.5006700000001 373.99995000000024,282.60000000000014 C 374.0229000000002,281.7047700000001 375.1103000000002,281.14025000000015 374.95329000000027,280.4253200000001 C 374.7812300000003,279.6418400000001 373.33894000000026,280.3489700000001 372.7892900000003,280.61065000000013 C 371.7922800000003,281.0853500000001 371.17186000000027,281.41912000000013 370.4284500000003,281.7571600000001 C 369.5046800000003,282.1772000000001 368.7423800000003,282.4860700000001 367.8813000000003,282.84667000000013 C 367.4164900000003,283.0413400000001 366.4277500000003,283.45818000000014 365.9106300000003,283.6866700000001 C 364.2730900000003,284.4101800000001 363.7117800000003,284.6852400000001 363.1292900000003,284.9481800000001 C 362.5331600000003,285.2172800000001 361.9258900000003,285.50326000000007 360.6239500000003,285.9901700000001 C 359.9471900000003,286.2432500000001 358.50270000000035,286.6781000000001 357.73528000000033,286.8569900000001 C 356.94527000000033,287.0411300000001 356.1251700000003,287.1931400000001 355.28130000000033,287.3280000000001 C 354.4178100000003,287.46600000000007 353.53246000000036,287.5825500000001 352.6292900000003,287.69101000000006 C 351.7110800000003,287.80127000000005 349.8333600000003,288.00052000000005 348.8782800000003,288.10001000000005 C 347.9133400000003,288.2005300000001 346.9383400000003,288.30048000000005 345.9532900000003,288.40000000000003 C 344.9583600000003,288.50049 343.95335000000034,288.6005 342.9382800000003,288.70002000000005 C 341.9133500000003,288.80048000000005 339.8333900000003,289.00089 338.7784600000003,289.09983000000005 C 337.71471000000025,289.19959000000006 336.6429600000003,289.29777000000007 335.56395000000026,289.38935000000004 C 334.4792900000003,289.48142 333.3893000000003,289.564 332.2954600000003,289.64283000000006 L 331.19863000000026,289.71467000000007" fill="none" id="svg_14" stroke="#fff" stroke-width="20"/>
	<path d="M 288.0,229.0 C 288.0,230.75717 288.0,231.65266 288.0,232.51601 C 288.0,233.47917999999999 287.99991,234.4 288.0,235.30001 C 288.00009,236.10001 288.24213,236.95377 288.64734,237.7 C 289.06064,238.46112 288.90598,239.44709999999998 289.35265999999996,240.30001 C 289.74661,241.05223999999998 290.38051999999993,241.63375 290.83333999999996,242.33334 C 291.30791999999997,243.06651 291.33254999999997,244.087 291.64734,244.69550999999998 C 292.09778,245.56620999999998 292.42681999999996,246.40883 293.10001,247.10001999999997 C 293.59336,247.60657999999998 294.42618,248.21675999999997 294.83335,249.00000999999997 C 295.22004,249.74385999999998 295.6305,250.58119999999997 296.19867999999997,251.20000999999996 C 296.73389999999995,251.78290999999996 297.287,252.48784999999995 297.87866999999994,253.22150999999997 C 298.39975999999996,253.86762999999996 298.4481599999999,254.81819999999996 299.0253399999999,255.56400999999997 C 299.5094699999999,256.18956 300.0526799999999,256.70450999999997 300.5000099999999,257.50001 C 300.94733999999994,258.29551 301.50031999999993,258.66333999999995 302.3893499999999,259.01068999999995 C 303.1304999999999,259.30024 303.3531299999999,260.30375 304.0000099999999,261.00001 C 304.56049999999993,261.60328 304.9746799999999,262.38935 305.5000099999999,263.00001 C 306.0253399999999,263.61066999999997 306.4164799999999,264.41882999999996 307.1986799999999,264.916 C 307.9301299999999,265.3809 308.4814899999999,265.72566 309.2955099999999,266.0045 C 310.1103299999999,266.28361 310.4493799999999,267.13838 311.0840199999999,267.71602 C 311.73068999999987,268.30458 312.3310899999999,268.81429 313.1000099999999,269.22136 C 313.8575199999999,269.62239 314.6598899999999,269.95754 315.48266999999987,270.28536 C 316.1629099999999,270.55639 316.73672999999985,271.45485 317.4360099999999,271.97469 C 318.0975099999999,272.46645 318.9904499999999,272.88927 319.7999899999999,272.99868000000004 C 320.6937899999999,273.11947000000004 321.4908199999999,273.53054000000003 322.10000999999994,274.09985000000006 C 322.69125999999994,274.6523700000001 323.62002999999993,274.82953000000003 324.49999999999994,275.02087000000006 C 325.34630999999996,275.20489000000003 326.24312999999995,275.65557000000007 326.87865999999997,276.22137000000004 C 327.479,276.75585 328.29787999999996,276.84069000000005 328.94732,277.35269000000005 C 329.56194,277.83722000000006 330.39999,277.99936 331.29998,278.00003000000004 C 332.19866,278.00070000000005 332.6766,278.56888000000004 333.436,278.96402000000006 C 334.20309,279.3631900000001 335.22326,278.90366000000006 336.16665,279.1666900000001 C 336.84832,279.3567500000001 337.54769,279.62198000000006 338.58932,280.0253600000001 C 339.43231,280.3518100000001 340.09837999999996,280.8911100000001 341.0,281.0000300000001 C 341.79871,281.0965300000001 342.5372,281.7469800000001 343.39999,281.9640200000001 C 344.27349,282.18375000000015 345.20001,282.0000300000001 346.1,282.0000300000001 C 346.99999,282.0000300000001 347.7774,282.1243300000001 348.6,282.5747100000001 C 349.38036,283.0019900000001 350.29998,283.0000300000001 351.20001,283.0000300000001 C 352.1,283.0000300000001 353.0,283.0000300000001 353.79999000000004,283.0000300000001 C 354.70001,283.0000300000001 355.60001000000005,283.0000300000001 356.50000000000006,283.0000300000001 C 357.39999000000006,283.0000300000001 358.29999000000004,283.0000300000001 359.2000100000001,283.0000300000001 C 360.1000000000001,283.0000300000001 361.00000000000006,283.0000300000001 361.7999900000001,283.0000300000001 C 362.7000100000001,283.0000300000001 363.6000100000001,283.0000300000001 364.5000000000001,283.0000300000001 C 365.3999900000001,283.0000300000001 366.2999900000001,283.0000300000001 367.20001000000013,283.0000300000001 C 368.10000000000014,283.0000300000001 369.0000000000001,283.0000300000001 369.79999000000015,283.0000300000001 C 370.70001000000013,283.0000300000001 371.60001000000017,283.0000300000001 372.50000000000017,283.0000300000001 C 373.3999900000002,283.0000300000001 374.29999000000015,283.0000300000001 375.2000100000002,283.0000300000001 C 376.1000000000002,283.0000300000001 377.00018000000017,283.0172400000001 377.7999900000002,283.0000300000001 C 378.63657000000023,282.9820200000001 379.4707400000002,282.6827100000001 380.3473200000002,282.3526900000001 C 381.2352000000002,282.01843000000014 382.1659200000002,281.83145000000013 382.8360000000002,281.5747100000001 C 383.6004700000002,281.2818000000001 384.5941500000002,281.0325000000001 385.3428400000002,281.00452000000007 C 386.3633200000002,280.9663700000001 387.3045100000002,280.9910300000001 388.1666600000002,280.6666900000001 L 388.8360000000002,280.13871000000006 L 389.4045100000002,279.6482000000001" fill="none" id="svg_15" stroke="#000" stroke-width="2"/>
	<path d="M 281.0,173.0 C 280.0,174.0 280.0,174.8 280.0,175.7 C 280.0,176.60001 279.71094,177.55196999999998 280.01068,178.38933 C 280.27441,179.12607 280.98803999999996,179.81442 281.7045,179.9955 C 282.66967999999997,180.23943 283.68378,180.3543 284.47916,179.97916999999998 C 285.18451,179.64649999999997 285.0,178.49999999999997 285.0,177.6 C 285.0,176.69998999999999 285.0,175.79999999999998 285.0,174.89999 C 285.0,174.0 284.84985,173.0 284.0,173.0 C 283.15015,173.0 283.0,174.0 283.0,174.8 C 283.0,175.69999 282.99866,176.63066 282.57468,176.02533000000003 L 281.97467,175.42534000000003" fill="none" id="svg_16" stroke="#000" stroke-width="2"/>
</svg>
