<?xml version="1.0" ?>
<svg baseProfile="full" height="480" version="1.1" width="640" xmlns="http://www.w3.org/2000/svg" xmlns:ev="http://www.w3.org/2001/xml-events" xmlns:xlink="http://www.w3.org/1999/xlink">
	<defs/>
	<path d="M 240.0,152.0 C 240.0,153.8 240.0,154.636 240.0,155.48399 C 240.0,156.34733 240.0,157.37466 240.0,158.32133000000002 C 240.0,159.00000000000003 240.0,159.97866000000002 240.0,160.88400000000001 C 240.0,161.82533 240.0,162.51600000000002 240.0,163.58934000000002 C 240.0,164.39999000000003 240.0,165.39999000000003 240.0,166.3 C 240.0,167.19999 240.0,168.10000000000002 240.0,169.0 C 240.0,169.8 240.0,170.7 240.0,171.60001 C 240.0,172.5 240.01067,173.38933 240.5,174.0 C 240.98933,174.61067 241.0,175.5 241.0,176.39999 C 241.0,177.3 241.0,178.19999 241.0,179.1 C 241.0,179.99999 241.45039,180.54488999999998 241.91467,181.28533 C 242.40339,182.06474999999998 242.0,182.88531999999998 242.0,183.82531999999998 C 242.0,184.83332 242.06207,185.69297999999998 242.42534,186.41064999999998 C 242.88472000000002,187.31819999999996 242.93907000000002,188.00166999999996 243.00017,188.97848999999997 C 243.05164,189.80145999999996 243.61298,190.58195999999995 243.97467,191.39997999999997 C 244.32152,192.18444999999997 244.91496,192.98737999999997 244.99867,193.79998999999998 C 245.09088,194.69525 244.83478,195.61918999999997 245.02083000000002,196.49998999999997 C 245.19982000000002,197.34738999999996 245.78804000000002,198.13322999999997 246.08400000000003,198.79998999999998 C 246.46475000000004,199.65775999999997 247.03008000000003,200.34127999999998 247.57466000000002,201.02532 C 248.03993000000003,201.60972999999998 247.76408000000004,202.71258 248.08533000000003,203.43064999999999 C 248.42630000000003,204.19283 248.91747000000004,204.94875 249.61067000000003,205.56398 C 250.26907000000003,206.14833 251.07757000000004,206.42605999999998 251.57466000000002,207.02531 C 252.08476000000002,207.64027 252.19377000000003,208.48735 252.71600000000004,209.08398 C 253.38836000000003,209.85215 253.59956000000003,210.58801 253.97467000000003,211.39997 C 254.38478000000003,212.28772999999998 255.00000000000003,212.99998 255.50000000000003,213.49998 C 256.20001,214.19997999999998 256.69995,214.70002 257.39999,215.39997 C 258.09997,216.09986 258.70037,216.64197 259.5,216.99998 C 260.29587,217.3563 260.73584,218.15895 261.16666,218.99998 C 261.50696,219.66432 262.29623999999995,220.30378 262.79999,220.79998 C 263.49483999999995,221.48441 264.34594999999996,221.88267000000002 264.97467,222.42532 C 265.57486,222.94333 266.26971,223.40187 267.09982,223.87864 C 267.89004,224.33249999999998 268.3537,224.94608 269.0,225.49998 C 269.61163,226.02417 270.38171,226.45639 271.19867,226.91598 C 271.90130999999997,227.31126999999998 272.474,227.89372999999998 273.20001,228.28397999999999 C 274.05478,228.74344 274.5079,229.32055999999997 275.33334,229.83330999999998 C 276.04541,230.27562999999998 276.78021,230.66745999999998 277.52084,230.97914999999998 C 278.32187000000005,231.31625999999997 278.87390000000005,231.72555999999997 279.61065,231.98931 C 280.44802000000004,232.28906999999998 281.44708,231.90597 282.29998,232.35263999999998 C 283.05221,232.74658999999997 283.80016,232.98201999999998 284.7,232.99998 C 285.63649,233.01867 286.47695,233.30133999999998 287.17464,233.57464 C 288.10582,233.93938999999997 288.94655,234.26353999999998 289.75716,234.64731999999998 C 290.60945,235.05083999999997 291.34731,234.99772 292.37465,234.99997999999997 C 293.32131,235.00205999999997 293.99998999999997,234.99997999999997 294.97846999999996,234.99997999999997 C 295.99997999999994,234.99997999999997 296.75715999999994,234.99997999999997 297.65265999999997,234.99997999999997 C 298.51597,234.99997999999997 299.47914,234.99997999999997 300.30897,234.99997999999997 C 301.33332,234.99997999999997 302.00532,234.99997999999997 302.99464,234.99997999999997 C 303.85716,234.99997999999997 304.74815,234.99997999999997 305.65715,234.99997999999997 C 306.40449,234.99997999999997 307.39867,234.99997999999997 308.34282,234.99997999999997 C 309.24281,234.99997999999997 310.20131000000003,234.99997999999997 310.88533,234.99997999999997 C 311.82533,234.99997999999997 312.83333,234.99997999999997 313.69548000000003,234.99997999999997 C 314.59999000000005,234.99997999999997 315.49998000000005,234.99997999999997 316.39998,234.99997999999997 C 317.29997000000003,234.99997999999997 318.20000000000005,234.99997999999997 319.09999000000005,234.99997999999997 C 319.99998000000005,234.99997999999997 320.79997000000003,234.99997999999997 321.70000000000005,234.99997999999997 C 322.59999000000005,234.99997999999997 323.49999,234.99997999999997 324.39998,234.99997999999997 C 325.29997000000003,234.99997999999997 326.20000000000005,234.99997999999997 327.09999000000005,234.99997999999997 C 327.99998000000005,234.99997999999997 328.79997000000003,234.99997999999997 329.70000000000005,234.99997999999997 C 330.59999000000005,234.99997999999997 331.51299000000006,235.14206999999996 332.39998,234.98930999999996 C 333.23314000000005,234.84582999999995 333.98628,234.08780999999996 334.70000000000005,234.00447999999997 C 335.62966000000006,233.89592999999996 336.49803,234.10760999999997 337.34731000000005,233.94281999999998 C 338.27306000000004,233.76318999999998 339.09465000000006,233.08453999999998 339.79998000000006,233.00131 C 340.69570000000004,232.89560999999998 341.4803100000001,232.45819999999998 342.20000000000005,231.80131 C 342.78450000000004,231.26783 343.63655000000006,231.03202 344.48400000000004,230.99865 C 345.34844000000004,230.96461 346.20907000000005,230.58787 347.09981000000005,230.12132 C 347.8535600000001,229.72653 348.33126000000004,229.14251 348.97466000000003,228.57464 C 349.56905,228.05003 350.25405,227.56974 351.1,227.12115 C 351.76956,226.76611 352.25771000000003,226.02244 352.99999,225.33331 C 353.60540000000003,224.77125 354.19549,224.21035 354.79998,223.56797 C 355.40887,222.92092 356.32406000000003,222.6681 356.99999,221.99998 C 357.58565000000004,221.42109 357.97579,220.61163 358.49999,219.99998 C 359.05388000000005,219.35368 359.76607,219.03892 360.49999,218.47915 C 361.27474,217.88824 361.71465,217.19998 362.05266,216.35714000000002 L 362.83333,215.83331 L 363.22132999999997,215.12132000000003" fill="none" id="svg_1" stroke="#000" stroke-width="2"/>
	<path d="M 233.0,115.0 C 231.3,115.0 230.29742,114.6018 229.436,115.036 C 228.73712,115.38827 228.06822,115.60701 227.28533000000002,116.08533 C 226.48199000000002,116.57615 225.86309000000003,117.03627 225.35715000000002,117.70448999999999 C 224.83078,118.3997 224.70996000000002,119.39300999999999 223.90015000000002,119.87866 C 223.17052000000004,120.31622999999999 222.99999000000003,121.09998999999999 222.99999000000003,121.99999 C 222.99999000000003,122.79999 222.62929000000003,123.42894 222.12150000000003,124.22149 C 221.64306000000002,124.96823 221.97291,126.00045 221.99999000000003,126.8 C 222.02858000000003,127.64428 222.80132000000003,127.99933 223.69999,128.0 C 224.60000000000002,128.00067 225.49999000000003,128.0 226.39999,128.0 C 227.3,128.0 228.19999,128.0 229.1,128.0 C 229.99999,128.0 230.79999999999998,128.0 231.69998999999999,128.0 C 232.6,128.0 233.47915999999998,127.97916 234.05266999999998,127.35267 L 234.71599999999998,126.916" fill="none" id="svg_2" stroke="#000" stroke-width="2"/>
	<path d="M 227.0,125.0 C 228.0,124.0 228.54758,123.55386 229.28534,123.08533 C 229.97681,122.6462 231.0,123.0 231.87866,122.77866 L 232.28534,122.08533" fill="none" id="svg_3" stroke="#000" stroke-width="2"/>
	<path d="M 233.0,115.0 C 233.0,114.19867 232.98959,113.29994 233.0,112.4 C 233.01042,111.49982 233.42131,110.74113000000001 233.87866,109.90017 C 234.28518,109.15267 234.78728999999998,108.61726 235.00133,107.80133000000001 C 235.21166,106.99953000000001 236.31181999999998,106.80712000000001 236.71466,106.19867 C 237.25854,105.37721 237.67891,104.71526 238.28400000000002,104.084 C 238.83786,103.50619 239.46993000000003,102.93644 240.14934000000002,102.4 C 240.86119000000002,101.83796000000001 241.40441,101.15273 242.20000000000002,100.71600000000001 C 242.84812000000002,100.36023 243.48564000000002,99.81477000000001 244.16667,99.16666000000001 C 244.80009,98.56386 245.35588,98.02929 246.3,98.00000000000001 C 247.19824,97.97212000000002 247.84562000000003,97.65810000000002 248.42534,97.02533000000001 C 248.96176,96.43981000000001 249.81476,96.32984 250.66667,95.83334 C 251.30922,95.45886 252.02066000000002,95.01043000000001 252.9785,95.0 C 253.79861,94.99108 254.70006,95.01067 255.60001,95.0 C 256.47934,94.98958 256.99273999999997,94.18517 257.76166,94.0045 C 258.62906,93.80069999999999 259.51599,94.0 260.47916,94.0 C 261.4,94.0 262.29999,94.0 263.20002,94.0 C 264.10001,94.0 265.00001,94.0 265.8,94.0 C 266.70002,94.0 267.52086,94.0 268.48402,94.0 C 269.34733,94.0 270.24284,94.0 271.20002,94.0 C 272.10001,94.0 273.00047,93.97292 273.8,94.0 C 274.6443,94.0286 275.28285,94.68091 275.916,95.284 C 276.49013,95.83088000000001 277.30473,95.90912 278.20002999999997,96.00134 C 279.01261999999997,96.08503 279.65369999999996,96.79516 280.50001999999995,96.97917 C 281.37998999999996,97.17049999999999 282.23641,97.46194 283.00001999999995,97.83333999999999 C 283.75392999999997,98.20000999999999 284.65391999999997,98.48254999999999 285.38935999999995,98.97466999999999 C 286.05881999999997,99.42264999999999 286.61060999999995,99.99466999999999 287.50001999999995,99.99999999999999 C 288.39997999999997,100.00538999999999 289.35481999999996,99.92121999999999 289.97468999999995,100.42532999999999 C 290.58976999999993,100.92554999999999 291.44850999999994,101.39621999999999 291.87868,102.09982999999998 C 292.35432999999995,102.87782999999999 293.05251,103.29656999999999 293.80001,103.71599999999998 C 294.55993,104.14240999999998 295.2369,104.75350999999998 295.70002999999997,105.29466999999998 C 296.31339999999994,106.01137999999999 297.12904999999995,106.46383999999998 297.64736,107.05266999999998 C 298.22002,107.70323999999998 298.41942,108.54797999999998 298.97469,109.38933999999998 C 299.3806,110.00438999999997 300.64226,109.81753999999998 300.97918,110.52083999999998 C 301.35928,111.31422999999998 301.453,112.10719999999998 301.83337,112.99999999999997 C 302.15356,113.75153999999998 301.63687,114.79688999999998 302.03604,115.56399999999996 C 302.43118000000004,116.32336999999997 302.60696,116.93181999999996 303.08536000000004,117.71466999999997 C 303.57620000000003,118.51789999999997 304.56888000000004,118.67662999999997 304.96402000000006,119.43599999999996 C 305.3631900000001,120.20310999999997 305.00003000000004,121.19999999999996 305.00003000000004,122.09999999999997 C 305.00003000000004,122.99999999999997 305.45035,123.54491999999996 305.91470000000004,124.28532999999996 C 306.40277000000003,125.06357999999996 306.00003000000004,126.09999999999997 306.00003000000004,126.99999999999996 C 306.00003000000004,127.79999999999995 306.00003000000004,128.69999999999996 306.00003000000004,129.60000999999997 C 306.00003000000004,130.49999999999997 306.00003000000004,131.39999999999998 306.00452,132.29550999999998 L 306.42536,132.97467999999998 L 306.97919,133.52083999999996" fill="none" id="svg_4" stroke="#000" stroke-width="2"/>
	<path d="M 305.0,121.0 C 306.79999,121.0 307.70001,121.0 308.60001,121.0 C 309.5,121.0 310.30463,120.9846 311.32132,121.00017 C 312.00024,121.01056 312.95367,121.26619 313.69550000000004,121.64733 C 314.47681000000006,122.04876 315.34626000000003,122.52177999999999 316.10001000000005,122.87867 C 316.95407000000006,123.28304 317.55188000000004,123.66393 318.30451000000005,124.2955 C 318.8532200000001,124.75595 319.82615000000004,124.94626000000001 320.83335000000005,125.0 C 321.63923000000005,125.04299 322.04621000000003,125.77636 322.7098500000001,126.3 C 323.4554600000001,126.88832 324.2257200000001,127.32883 324.88401000000005,127.8 C 325.62968000000006,128.33372 326.35661000000005,128.68628999999999 327.24284000000006,129.2955 C 328.00819000000007,129.82161 328.84999000000005,130.01259000000002 329.50001000000003,130.52083000000002 C 330.26762,131.12103000000002 330.9148,131.50990000000002 331.64283,132.05268 C 332.32179,132.55888000000002 333.11021,132.79731 333.89017,133.35267000000002 C 334.5586,133.82861000000003 334.92847,134.60702 335.568,135.20001000000002 C 336.21482,135.79976000000002 336.81968,136.51631000000003 337.43601,136.97468 C 338.19272,137.53745 339.19871,137.53202000000002 339.83335,138.16668 C 340.46799,138.80132 340.70328,139.64555000000001 341.50001,140.00001 C 342.29881,140.35539 343.15898,140.73587 344.00001,141.16668 C 344.66434999999996,141.50698000000003 345.33894,142.27314 345.79999999999995,142.88534 C 346.34871,143.61393 346.62308999999993,144.38435 347.41068999999993,144.94935 C 348.25235999999995,145.55314 348.85596999999996,145.84387 349.3473399999999,146.40901000000002 C 350.16831999999994,147.35325000000003 350.25767999999994,148.19684000000004 351.1000299999999,148.75702 C 351.8762799999999,149.27324000000002 352.8369999999999,148.79553 353.7000399999999,149.05718000000002 C 354.5849299999999,149.32544000000001 355.1903999999999,150.02910000000003 355.6428499999999,150.70002000000002 C 356.1796199999999,151.49596000000003 357.0284699999999,151.71723000000003 357.6666799999999,152.33335000000002 C 358.19639999999987,152.84473000000003 358.4177499999999,153.78097000000002 359.2013499999999,154.28669000000002 C 359.8156699999999,154.68317000000002 360.47508999999985,155.49488000000002 361.0208699999999,156.00002000000003 C 361.5908799999999,156.52758000000003 362.4305699999999,157.07111000000003 363.1640299999999,157.62536000000003 C 364.0188899999999,158.27134000000004 364.3162799999999,158.87251000000003 364.88402999999994,159.51603000000003 C 365.58174999999994,160.30686000000003 366.40621999999996,160.60418000000004 366.93868999999995,161.40002000000004 C 367.49062999999995,162.22497000000004 367.72579999999994,162.88761000000005 368.5000299999999,163.47920000000005 C 369.2383699999999,164.04333000000005 370.1132799999999,164.43393000000006 370.5000299999999,165.02086000000006 C 371.12179999999995,165.96446000000006 371.6039399999999,166.63979000000006 372.48403999999994,166.91736000000006 C 373.15685999999994,167.12956000000005 374.1144699999999,167.57065000000006 374.6253699999999,168.18537000000006 C 375.1650399999999,168.83472000000006 375.9309999999999,169.23247000000006 376.6666899999999,170.00004000000007 C 377.2051999999999,170.56190000000007 378.0726999999999,170.69283000000007 378.7573599999999,171.44288000000006 C 379.29559999999987,172.03251000000006 379.4381799999999,172.98359000000005 380.0000399999999,173.47921000000005 C 380.8241699999999,174.20618000000005 381.3769299999999,174.78974000000005 382.0000399999999,175.33337000000006 C 382.6375499999999,175.88954000000007 383.1442699999999,176.73664000000005 384.0208799999999,176.97921000000005 C 384.9817299999999,177.24509000000006 385.6911399999999,177.20547000000005 386.4293599999999,177.80137000000005 C 387.1188399999999,178.35793000000004 387.83298999999994,178.64021000000005 388.66669999999993,179.16671000000005 C 389.3505399999999,179.59856000000005 389.8331999999999,180.45374000000004 390.51737999999995,180.71470000000005 C 391.4494199999999,181.07018000000005 392.4445999999999,180.90457000000006 393.20005999999995,181.28404000000006 C 394.06724999999994,181.71962000000005 394.55448999999993,182.41766000000007 395.22153999999995,182.87854000000007 C 395.9510599999999,183.38258000000008 396.66934999999995,183.54846000000006 397.3572199999999,183.94289000000006 C 398.1766199999999,184.41274000000007 399.61249999999995,183.89434000000006 399.5280599999999,184.42539000000005 C 399.39017999999993,185.29244000000006 397.7861199999999,185.11786000000004 397.3572199999999,185.70455000000004 C 396.80200999999994,186.46401000000003 396.29608999999994,187.05369000000005 395.5000399999999,187.50005000000004 C 394.7005999999999,187.94834000000003 393.9088499999999,188.23400000000004 393.2428699999999,188.70455000000004 C 392.5241499999999,189.21235000000004 391.81058999999993,189.64083000000005 390.80020999999994,189.87871000000004 C 390.03247999999996,190.05947000000003 388.97973999999994,190.16262000000003 388.41070999999994,190.61072000000004 C 387.63534999999996,191.22133000000005 387.00958999999995,191.88930000000005 386.2000499999999,191.99872000000005 C 385.3062499999999,192.11954000000006 384.5369299999999,192.57363000000004 383.7000499999999,192.94737000000003 C 382.9278599999999,193.29222000000004 382.2305099999999,193.83410000000003 381.58935999999994,194.40004000000005 C 380.86575999999997,195.03874000000005 380.1576299999999,195.37195000000006 379.48403999999994,195.80005000000006 C 378.6124899999999,196.35397000000006 377.80227999999994,196.95221000000006 377.11468999999994,196.99872000000005 C 376.18740999999994,197.06145000000004 375.47576999999995,197.49063000000004 374.7133799999999,197.91472000000005 C 373.9407399999999,198.34451000000004 372.9520599999999,197.85842000000005 372.0213599999999,198.22154000000003 C 371.3182299999999,198.49588000000003 370.5324699999999,199.23559000000003 369.97917999999993,199.47922000000003 C 369.0262399999999,199.89882000000003 368.2005499999999,199.97902000000002 367.4000199999999,199.99872000000002 C 366.4092999999999,200.02309000000002 365.6777599999999,200.23845000000003 364.8320299999999,200.71605000000002 C 364.0493199999999,201.15805000000003 363.0418699999999,201.26180000000002 362.37468999999993,201.57471 C 361.53853999999995,201.96688 360.65270999999996,201.99718000000001 359.75719999999995,202.00005000000002 C 358.79735999999997,202.00313000000003 358.02236999999997,202.05939 357.23202,202.28539 C 356.49269999999996,202.4968 355.33968999999996,203.01116000000002 354.66137,203.38938000000002 C 353.84078,203.84695000000002 353.1491,203.94593 352.31334999999996,204.08405000000002 C 351.31105999999994,204.24970000000002 350.52696999999995,204.52257000000003 349.76937,204.71605000000002 C 348.66927,204.99701000000002 347.83337,205.00005000000002 346.97918,205.00005000000002 C 346.00002,205.00005000000002 345.20004,205.00005000000002 344.40002,205.00005000000002 C 343.39101999999997,205.00005000000002 342.72801999999996,205.00005000000002 341.66668,205.00005000000002 C 340.6947,205.00005000000002 340.00002,205.00005000000002 339.30535,205.00005000000002 C 338.04301999999996,205.00005000000002 337.27202,205.00005000000002 336.4027,205.00005000000002 C 335.39553,205.00005000000002 334.54287,205.00005000000002 333.57869,205.00005000000002 C 332.77467,205.00005000000002 331.95268,205.00005000000002 330.92152,205.00005000000002 C 330.02085,205.00005000000002 329.00001,205.00005000000002 328.20002,205.00005000000002 C 327.4,205.00005000000002 326.40452,205.00005000000002 325.65717,205.00005000000002 C 324.75266,205.00005000000002 323.83335,205.00005000000002 323.0,205.00005000000002 C 322.02151,205.00005000000002 321.20132,205.00005000000002 320.29999,205.00005000000002 C 319.36402,205.00005000000002 318.51599,205.00005000000002 317.65268,205.00005000000002 C 316.75717,205.00005000000002 315.79999,205.00005000000002 314.89999,205.00005000000002 C 314.0,205.00005000000002 313.20001,205.00005000000002 312.29998,205.00005000000002 C 311.39999,205.00005000000002 310.49999,205.00229000000002 309.6,205.00005000000002 C 308.70001,204.99779 307.86163000000005,204.61397000000002 307.20001,204.28405 C 306.35663,203.86349 305.39999,204.00005000000002 304.5,204.00005000000002 C 303.58932,204.00005000000002 302.65451,204.16521 301.86133,203.96405000000001 C 300.99893000000003,203.74535 300.46512,203.14905000000002 299.60001,202.98938 C 298.76862,202.83594000000002 297.99479,202.18399000000002 297.24282999999997,201.94737 C 296.34058,201.66346000000001 295.6337,201.32335 294.75717,200.70454 C 294.18843999999996,200.30304 293.1644,200.12114 292.52083999999996,199.47921 C 291.87996999999996,198.83999 291.52626999999995,198.25056 290.70448999999996,197.99554 C 289.9414,197.75874000000002 289.40577999999994,197.12414 288.59999999999997,196.56404 C 287.92384999999996,196.09404 287.36044,195.3676 286.67882999999995,194.67871 C 286.18270999999993,194.17729 285.61827999999997,193.45232 285.06134,192.64670999999998 C 284.61251999999996,191.99750999999998 284.05688,191.40860999999998 283.43201,190.7987 C 282.77729,190.15966 282.18653,189.51124 281.98532,188.82537 C 281.66959,187.749 281.1077,187.27909 280.52084,186.50003999999998 C 279.96215,185.75835999999998 280.13064,184.81939 279.97915,184.02086999999997 C 279.79846,183.06830999999997 279.14449,182.50391999999997 278.71465,181.80003999999997 C 278.3022,181.12465999999998 277.32604000000003,180.58473999999995 277.05715,179.70002999999997 C 276.79449,178.83582999999996 276.86537999999996,177.81931999999998 276.56399,177.17469999999997 C 276.23305999999997,176.46690999999998 275.40866,175.73293999999999 275.08531999999997,174.80003999999997 C 274.82183,174.03985999999998 275.12316,173.18461999999997 274.94282999999996,172.24286999999995 C 274.76548999999994,171.31670999999994 274.23512999999997,170.68324999999996 274.05715,169.75720999999996 C 273.87615,168.81549999999996 273.69912,167.94920999999997 273.35265,167.30003999999997 C 272.89930999999996,166.45065999999997 272.99998999999997,165.50003999999996 272.99998999999997,164.60003999999998 C 272.99998999999997,163.70002999999997 272.99998999999997,162.79868999999997 272.99998999999997,162.11469999999997 C 272.99998999999997,161.17469999999997 272.99998999999997,160.16669999999996 272.99998999999997,159.30452999999997 C 272.99998999999997,158.40001999999998 272.99998999999997,157.50002999999998 272.99998999999997,156.60002999999998 C 272.99998999999997,155.70001999999997 272.99998999999997,154.80002999999996 272.99998999999997,153.90001999999998 C 272.99998999999997,153.00002999999998 272.99998999999997,152.20002 272.99998999999997,151.30003 C 272.99998999999997,150.40001999999998 272.94707,149.46527999999998 273.35265,148.70002 C 273.80095,147.85412 273.6064,147.06942 274.08531999999997,146.28536 C 274.57597999999996,145.48208 274.74278999999996,144.77442 275.22133999999994,144.12136 C 275.7352599999999,143.42001000000002 276.3673999999999,142.85203 276.71599999999995,142.20002000000002 C 277.16905999999994,141.35264000000004 277.50096999999994,140.48017000000002 278.09999999999997,139.90018000000003 C 278.68138999999996,139.33728000000002 279.63597999999996,138.97469000000004 280.484,138.71468000000004 L 281.17463999999995,138.38935000000004 L 281.97865999999993,137.90002000000004 L 282.6253299999999,137.40002000000004" fill="none" id="svg_5" stroke="#000" stroke-width="2"/>
	<path d="M 235.0,131.0 C 235.0,132.8 235.31448,133.38716 235.83333,134.16667 C 236.30419999999998,134.87413 236.0,135.8 236.0,136.70000000000002 C 236.0,137.60001000000003 235.99776,138.50000000000003 236.0,139.4 C 236.00226,140.30002000000002 236.284,141.20000000000002 236.716,141.80001000000001 L 236.99550000000002,142.70000000000002 L 237.00000000000003,143.60001000000003" fill="none" id="svg_6" stroke="#000" stroke-width="2"/>
	<path d="M 377.0,197.0 C 378.82535,197.42534 379.49197,197.82951 380.47916,197.97917 C 381.39014,198.11728000000002 382.38239,198.29349000000002 382.83335,199.0 C 383.25825,199.66566 384.06632,199.85529 384.97849,200.22133 C 385.75251000000003,200.53194 386.53595,200.9513 387.32132,201.22133 C 388.19473,201.52161999999998 388.99216,201.82626 389.884,202.084 C 390.67175000000003,202.31166 391.39877,202.71622 392.39999,203.19867 C 392.99667,203.48619 394.00033,203.83148 394.78933,203.97467 C 395.83379,204.16423 396.48568,204.60365000000002 397.33334,204.83333 C 398.23785000000004,205.07842 399.05182,204.99774 400.07834,205.0 C 400.75333,205.00148 401.83334,205.0 402.62534000000005,205.0 C 403.48533000000003,205.0 404.40479000000005,204.97816 405.39869000000004,205.00133 C 406.16459000000003,205.01918 407.08317000000005,205.34882 407.75266000000005,205.64733999999999 C 408.62302000000005,206.03542 409.41663000000005,206.00556999999998 410.40268000000003,206.284 C 411.28482,206.53307999999998 412.3317,206.84725 412.96799000000004,206.916 C 413.64923000000005,206.98961 414.70246000000003,206.99915 415.66666000000004,207.16667 C 416.49945,207.31137 417.21015000000006,207.62193000000002 418.16666000000004,208.0 C 418.94907000000006,208.30925 419.78150000000005,208.58238 420.83335000000005,209.0 C 421.54767000000004,209.28362 422.16489000000007,209.65742 423.20035000000007,209.87849 C 424.0289900000001,210.0554 424.77078000000006,209.98471 425.9706700000001,210.00267 C 426.6721800000001,210.01317 427.4270900000001,210.03392 428.2026600000001,210.17067 C 429.4115200000001,210.38382000000001 430.1937200000001,210.69833 430.9583400000001,211.0 C 431.6883200000001,211.28801 432.65292000000005,211.72676 433.4856500000001,211.88567 C 434.38094000000007,212.05651 435.39999000000006,212.0 436.2000100000001,212.0 C 437.2000100000001,212.0 438.00000000000006,212.0 439.00000000000006,212.0 C 439.79999000000004,212.0 440.60001000000005,212.0 441.60001000000005,212.0 C 442.40000000000003,212.0 443.40439000000003,211.94548 444.20002000000005,212.036 C 445.21052000000003,212.15096 445.7833600000001,212.47605000000001 446.60001000000005,212.71601 C 447.58384000000007,213.00507000000002 448.40058000000005,212.96712000000002 449.39734000000004,213.00133000000002 C 450.28690000000006,213.03186000000002 450.91531000000003,213.68221000000003 451.71433,213.94284000000002 C 452.37665000000004,214.15887 453.60755,213.91342000000003 454.34284,214.05716 C 455.27671000000004,214.23973 455.86234,214.82176 456.82535,214.96401 C 457.82315,215.11139 458.6258,214.97295 459.48401,215.00133 C 460.34866,215.02992 461.16992,215.49376 462.0,215.83333 C 462.71671,216.12651 463.82544,215.98801999999998 464.51599,216.0 C 465.55379999999997,216.01801 466.00356999999997,216.78073 466.80133,216.99867 C 467.68634000000003,217.24045 467.53458,217.98092 468.08533,218.71466 C 468.54773,219.3307 470.0,219.15018 470.0,220.0 C 470.0,220.84982 469.26129,221.44519 468.64282,221.94733 C 467.93823,222.5194 467.23137999999994,222.85183 466.29999,222.9955 C 465.41049,223.13271 464.5,223.0 463.58932999999996,223.0 C 462.6785,223.0 461.97907,223.01514 460.79999,222.99983 C 459.99978999999996,222.98944 458.99494,222.84897 458.4,222.64734 C 457.59256999999997,222.3737 456.60242,222.05232 455.79999,222.01067 C 454.80127,221.95884 454.0,222.0 453.0,222.0 C 452.21066,222.0 451.16666,222.0 450.37466,222.0 C 449.51333,222.0 448.75329,222.00769 447.57882,221.99983 C 446.78527,221.99452 445.98269,222.04936 445.14282000000003,221.77867 C 444.34729000000004,221.52226000000002 443.51724,221.04704 442.59549000000004,221.0045 C 441.60236000000003,220.95866 440.83456000000007,221.05116 439.884,220.99867 C 439.11258000000004,220.95607 438.19052,220.53364 437.48401,220.28399000000002 C 436.51834,219.94276000000002 435.6854,219.76072000000002 434.97916000000004,219.49999000000003 C 434.00882,219.14177000000004 433.19117000000006,219.07738000000003 432.40000000000003,218.91599000000002 C 431.38428000000005,218.70879000000002 430.60111000000006,218.29326000000003 429.79984,217.89998000000003 C 428.98026000000004,217.49771000000004 428.31467000000004,217.19998000000004 427.31601,216.80132000000003 L 426.5,216.52082000000004 L 425.95267,216.35715000000005" fill="none" id="svg_7" stroke="#000" stroke-width="2"/>
	<path d="M 362.0,211.0 C 364.78934,211.0 365.5228,210.89279 366.5,211.02083 C 367.33829,211.13065999999998 368.14377,211.67432 368.97849,211.8785 C 369.97776000000005,212.12292 370.69455000000005,212.02299 371.54285000000004,212.44268 C 372.28342000000004,212.80906 373.01801000000006,213.37852999999998 374.07834,213.75718 C 374.73657000000003,213.99224 375.56342,213.98388 376.5,214.52084 C 377.21225,214.92918 377.85735999999997,215.37783 378.60132,215.88533999999999 C 379.42519999999996,216.44737999999998 379.95484,217.04649999999998 380.60001,217.43067 C 381.54911,217.99579 382.46482,218.00991 383.42151,218.2215 C 384.2439,218.4034 384.81198,218.60667999999998 386.0,219.0 C 386.59799,219.19798 387.47482,219.46066 388.22934,219.8 C 389.21893,220.24508 389.95624,220.7691 390.76935,220.91600000000003 C 391.51349,221.05043000000003 392.3436,220.98579000000004 393.55181999999996,221.36166000000003 C 394.28191999999996,221.58879000000002 395.33333999999996,222.16667000000004 395.96799,222.48399000000003 C 396.65067,222.82533000000004 397.34931,223.17471000000003 398.03202,223.51600000000005 C 398.95698,223.97839000000005 399.70155,224.42545000000004 400.59733,224.71333000000004 C 401.57759,225.02835000000005 402.41798,224.98568000000003 403.40135,225.28534000000005 C 404.03531999999996,225.47852000000006 405.16501999999997,226.00430000000006 405.68399999999997,226.20000000000005 C 406.49751,226.50676000000004 407.31998999999996,226.79023000000004 408.31467999999995,227.19867000000005 C 408.98188999999996,227.47264000000004 410.00034999999997,227.83148000000006 410.78934999999996,227.97467000000006 C 411.83380999999997,228.16423000000006 412.47092999999995,228.56447000000006 413.32132999999993,229.09984000000006 C 413.97928999999993,229.51407000000006 414.8390599999999,229.81116000000006 415.6253499999999,230.02533000000005 C 416.4909799999999,230.26112000000006 417.2032899999999,230.56722000000005 418.11466999999993,231.19867000000005 C 418.71570999999994,231.61510000000004 419.6566899999999,231.96553000000006 420.48401999999993,232.28534000000005 C 421.1960899999999,232.56061000000005 421.9096199999999,233.21484000000004 422.7526699999999,233.64284000000004 C 423.59604999999993,234.07100000000003 424.4578699999999,234.05359000000004 425.0506699999999,234.61067000000003 C 425.74335999999994,235.26159000000004 426.3400099999999,235.68187000000003 427.3746799999999,235.97467000000003 C 428.1588299999999,236.19658000000004 429.02537999999987,236.47922000000003 429.8333599999999,237.00000000000003 C 430.52341999999993,237.44478000000004 431.31632999999994,237.92831000000004 432.17466999999994,237.98933000000002 C 433.1123799999999,238.05598000000003 433.96458999999993,238.22807000000003 434.6359999999999,238.57466000000002 C 435.44828999999993,238.99397000000002 436.3811799999999,238.96567000000002 437.2473599999999,239.35266000000001 C 437.9166399999999,239.65167000000002 438.8653999999999,239.82614 439.8333599999999,240.16667 C 440.54545999999993,240.41719 441.2950599999999,241.15329 442.0208599999999,241.47917 C 442.9707499999999,241.90567000000001 443.5987999999999,241.96683000000002 444.4000099999999,241.99550000000002 C 445.3993999999999,242.03127000000003 446.2169699999999,241.96063 447.2000299999999,242.22133000000002 C 448.01884999999993,242.43848000000003 448.9937599999999,242.87943 449.7893499999999,242.96401000000003 C 450.5114599999999,243.04078000000004 451.5208599999999,243.00001000000003 452.5426799999999,243.00001000000003 C 453.2506899999999,243.00001000000003 453.9946799999999,243.00001000000003 455.1856899999999,243.00001000000003 C 456.1001799999999,243.00001000000003 456.8853699999999,243.00001000000003 457.8253699999999,243.00001000000003 C 458.5160099999999,243.00001000000003 459.5893499999999,243.00001000000003 460.5000199999999,243.00001000000003 C 461.4000099999999,243.00001000000003 462.3000099999999,243.00001000000003 463.2000299999999,243.00001000000003 C 464.1000199999999,243.00001000000003 465.2239899999999,243.42571000000004 465.8333599999999,242.83334000000002 C 466.36304999999993,242.31842000000003 466.0000199999999,241.17468000000002 466.0000199999999,240.16668 C 466.0000199999999,239.41067 466.0022499999999,238.50001 466.0000199999999,237.60001000000003 C 465.9977599999999,236.69999 465.6139399999999,235.86165000000003 465.2840199999999,235.20000000000002 C 464.86345999999986,234.35665000000003 464.97832999999986,233.31986 464.13869999999986,233.02533000000003 C 463.2037599999999,232.69736000000003 462.53572999999983,232.46301000000003 461.80001999999985,231.80133000000004 C 461.2116399999999,231.27216000000004 460.36172999999985,231.04280000000003 459.58935999999983,230.56399000000005 C 458.7877199999998,230.06704000000005 458.1576299999998,229.62809000000004 457.4840399999998,229.19999000000004 C 456.6124899999998,228.64607000000004 455.8022799999998,228.04774000000003 455.1146899999998,228.00132000000005 C 454.16610999999983,227.93728000000004 453.37658999999985,227.98574000000005 452.40002999999984,227.64283000000006 C 451.57714999999985,227.35389000000006 450.8183999999998,226.85871000000006 450.00003999999984,226.52082000000007 C 449.0194799999998,226.11594000000008 448.21130999999986,226.01916000000008 447.48535999999984,226.00132000000008 C 446.5211899999998,225.9776200000001 445.5692799999998,226.06245000000007 444.6787199999998,225.7786600000001 C 443.9796799999998,225.5559100000001 442.85776999999985,225.41332000000008 442.1666999999998,224.8333200000001 C 441.5456699999998,224.3121000000001 440.9000399999998,223.9999900000001 440.00003999999984,223.9999900000001 L 439.24286999999987,223.9999900000001 L 438.3518799999999,223.9954900000001 L 437.3333899999999,223.8333200000001" fill="none" id="svg_8" stroke="#000" stroke-width="2"/>
	<path d="M 468.0,225.0 C 469.60001,225.57466 470.70258,225.85393 470.97916,226.52083 C 471.35434,227.42551 471.0,228.39999999999998 471.0,229.29999999999998 C 471.0,230.19998999999999 471.16422,231.14047 470.91467,231.79999999999998 C 470.58654,232.66716999999997 469.6,232.96399999999997 468.70001,232.99999999999997 L 467.79999000000004,232.99999999999997" fill="none" id="svg_9" stroke="#000" stroke-width="2"/>
	<path d="M 237.0,144.0 C 237.0,145.8 237.0,146.7 237.0,147.60001 C 237.0,148.5 236.78253,149.42794 237.0045,150.29551 C 237.1882,151.0135 238.19867000000002,151.28535 238.83333000000002,152.00001 L 239.08400000000003,152.71467" fill="none" id="svg_10" stroke="#000" stroke-width="2"/>
	<path d="M 235.0,114.0 C 235.0,115.8 235.0,116.7 235.0,117.6 C 235.0,118.5 235.0,119.39999999999999 235.0,120.3 C 235.0,121.19999 235.0,122.1 235.0,123.0 C 235.0,123.8 235.0,124.7 235.036,125.564 L 235.64734,126.05265999999999" fill="none" id="svg_11" stroke="#000" stroke-width="2"/>
	<path d="M 246.0,109.0 C 246.0,110.8 246.0,111.7 246.0,112.6 C 246.0,113.5 245.905,114.40581999999999 246.00133,115.19999999999999 C 246.11289,116.11975999999999 246.44917999999998,116.96497999999998 247.05268,117.64282999999999 C 247.54549,118.19635 248.60001,117.99999999999999 249.50001,117.99999999999999 C 250.4,117.99999999999999 251.32241,118.19806999999999 252.19868,117.99865999999999 C 253.00298999999998,117.81562999999998 253.00001,116.69998999999999 253.00001,115.79999999999998 C 253.00001,114.89999999999998 253.00001,113.99999999999999 253.00001,113.19998999999999 C 253.00001,112.29999999999998 253.32814,111.32804999999999 252.97918,110.52082999999999 C 252.67054000000002,109.80684999999998 252.47007000000002,109.13580999999999 251.94285000000002,108.35716 C 251.48037000000002,107.67414 250.30001000000001,107.99999 249.40000000000003,107.99999 C 248.50001000000003,107.99999 247.35792000000004,107.81757999999999 247.02083000000005,108.52083 C 246.64519000000004,109.30452 246.47109000000003,109.88846000000001 247.09984000000006,110.00016000000001 C 247.95062000000004,110.15131000000001 248.35573000000005,110.97082 249.20000000000005,110.99999000000001 C 250.19808000000003,111.03447000000001 250.95739000000003,111.28234 251.00000000000006,112.19999000000001 C 251.04175000000006,113.09885000000001 250.78477000000007,113.93910000000001 249.89999000000006,113.99999000000001 C 249.00212000000005,114.06178000000001 248.16667000000007,113.83333000000002 248.00000000000006,112.99999000000001 L 248.00000000000006,112.19999000000001 L 248.00000000000006,111.30000000000001 L 248.00000000000006,110.4" fill="none" id="svg_12" stroke="#000" stroke-width="2"/>
	<path d="M 316.0,228.0 C 314.7785,228.87866 313.94818,229.30728 313.24283,229.64734 C 312.39212000000003,230.0575 311.62583,229.98169000000001 310.75266000000005,230.35266000000001 C 309.79786000000007,230.75830000000002 309.14316,230.98064000000002 308.22800000000007,230.99867 C 307.3575200000001,231.01582 306.34934000000004,231.0 305.65067000000005,231.0 C 304.96799000000004,231.0 303.76935000000003,231.0 303.02085000000005,231.0 C 301.83335000000005,231.0 301.04285000000004,231.0 300.1893400000001,231.0 C 299.5986700000001,231.0 298.4013500000001,231.0 297.52085000000005,231.0 C 296.68534000000005,231.0 295.68534000000005,231.0 294.81068000000005,231.0 C 293.80000000000007,231.0 293.00001000000003,231.0 292.00001000000003,231.0 C 291.21067000000005,231.0 290.48533000000003,231.0 289.52085000000005,231.0 C 288.60001000000005,231.0 287.4311000000001,230.74538 287.03602000000006,231.436 C 286.6066400000001,232.18661 287.0000100000001,233.19999 287.0000100000001,234.1 C 287.0000100000001,234.99999 287.0000100000001,235.88532 287.0000100000001,236.83598999999998 C 287.0000100000001,237.60133 287.0000100000001,238.5955 287.0000100000001,239.34283 C 287.0000100000001,240.36399 287.0000100000001,241.19998999999999 287.0000100000001,242.1 C 287.0000100000001,242.99999 287.0000100000001,243.79999999999998 287.0000100000001,244.69998999999999 C 287.0000100000001,245.6 286.9550300000001,246.57044 287.4426700000001,247.32133 C 287.92097000000007,248.05784 288.6501600000001,248.42573 288.9583600000001,249.47916999999998 C 289.2145200000001,250.35479999999998 289.7787000000001,250.7377 290.4320200000001,251.08399999999997 C 291.20463000000007,251.49354999999997 291.4758700000001,252.56385999999998 292.30000000000007,252.94732999999997 C 293.06669000000005,253.30407999999997 293.80000000000007,253.71600999999995 294.6000200000001,254.02532999999997 L 295.38936000000007,254.43600999999998 L 295.91600000000005,255.19867 L 296.3526800000001,255.94733" fill="none" id="svg_13" stroke="#fff" stroke-width="20"/>
	<path d="M 277.0,229.0 C 279.58932,229.98933 280.41068,230.0 281.32132,230.0 C 282.17465000000004,230.0 283.16806,229.82161 284.0,230.16667 C 284.78436,230.49200000000002 285.43356,231.155 286.05267,231.64734 C 286.69995,232.16208 287.70000999999996,232.0 288.59999999999997,232.0 C 289.49998999999997,232.0 290.46617999999995,231.86469 291.20000999999996,232.28534 C 291.88656,232.67888 292.51967999999994,233.44720999999998 293.29549999999995,233.94733 C 293.99355999999995,234.39732999999998 294.58254999999997,234.68762999999998 295.38933999999995,235.01067 C 296.17846,235.32665 296.38787999999994,236.31122 297.16664999999995,236.83333000000002 C 297.87254999999993,237.30657000000002 298.54524999999995,237.44982000000002 299.28532999999993,237.91467000000003 C 300.06334999999996,238.40336000000002 300.95768999999996,238.23498000000004 301.69999999999993,238.64734000000004 C 302.52439999999996,239.10530000000006 303.20005999999995,239.47521000000003 303.83332999999993,240.16667000000004 C 304.38093999999995,240.76459000000003 305.37897999999996,240.60831000000005 305.9146599999999,241.28534000000005 C 306.4228099999999,241.92760000000004 306.3260399999999,242.86342000000005 306.9746599999999,243.42534000000003 C 307.5625799999999,243.93465000000003 308.3435599999999,244.06696000000002 309.0253199999999,244.57466000000002 C 309.6661299999999,245.05188 310.5999999999999,245.00000000000003 311.4999899999999,245.00000000000003 C 312.3999799999999,245.00000000000003 313.3614399999999,245.15489000000002 314.0999999999999,244.77850000000004 C 314.7862799999999,244.42875000000004 315.3724899999999,243.56639000000004 316.1986599999999,243.08400000000003 C 316.8948599999999,242.67749000000003 317.6634399999999,242.19006000000005 317.9791499999999,241.47917000000004 C 318.3684599999999,240.60248000000004 318.6954599999999,240.35483000000005 319.4791499999999,239.97917000000004 C 320.1823999999999,239.64209000000005 320.09636999999987,238.59373000000005 320.6473299999999,237.94732000000005 C 321.1624999999999,237.34292000000005 321.8786499999999,236.77850000000004 322.1666499999999,235.99999000000005 L 322.7044899999999,235.29999000000007 L 323.2954899999999,234.69998000000007" fill="none" id="svg_14" stroke="#000" stroke-width="2"/>
	<path d="M 312.0,243.0 C 312.0,244.0 311.60706,244.93036 312.08533,245.71466 C 312.57541,246.51831 312.74375,247.22491000000002 313.22135,247.87866 C 313.73206,248.57773 314.00001,249.19998999999999 314.00001,250.1 C 314.00001,250.99999 314.02725999999996,251.80041 314.00001,252.69998999999999 C 313.97141999999997,253.64413 313.05476,253.58289 312.35719,254.05714999999998 C 311.67503,254.52091 312.36317,255.79688 311.964,256.56399 C 311.56886,257.32339 310.78477,257.93910999999997 309.9,257.99998999999997 C 309.00214,258.06179 308.20002,257.99998999999997 307.36402,257.99998999999997 C 306.51599999999996,257.99998999999997 305.65269,257.99998999999997 304.63599,257.99998999999997 C 303.70002,257.99998999999997 302.75644,257.85826999999995 302.0,258.16664999999995 C 301.30029,258.45189999999997 300.28244,258.73402999999996 299.56934,259.0840099999999 C 298.819,259.45226999999994 298.19867,259.9993199999999 297.29999000000004,259.99999999999994 C 296.40000000000003,260.00066999999996 295.56259000000006,260.0653699999999 294.97467000000006,260.57467999999994 C 294.32605000000007,261.13659999999993 293.71805000000006,261.75024999999994 293.00000000000006,262.1666599999999 C 292.27493000000004,262.58712999999995 291.88950000000006,263.4717099999999 291.35266000000007,264.0526799999999 C 290.71634000000006,264.7413099999999 290.5416600000001,265.0000099999999 291.50000000000006,265.0000099999999 C 292.39999000000006,265.0000099999999 293.30457000000007,265.0107799999999 294.16666000000004,265.0000099999999 C 295.00019000000003,264.9895699999999 296.02033000000006,264.8374399999999 296.58933,264.3893499999999 C 297.36472000000003,263.77874999999995 297.99045,263.1107599999999 298.79999000000004,263.00134999999995 C 299.69379000000004,262.88055999999995 300.42237000000006,262.31381999999996 301.29999000000004,262.0571699999999 C 302.16559,261.80405999999994 303.10001000000005,262.0000099999999 304.00000000000006,262.0000099999999 C 304.79999000000004,262.0000099999999 305.45148000000006,261.6689899999999 306.16666000000004,261.1666699999999 C 306.86209,260.6782099999999 307.80042000000003,260.9727599999999 308.70002000000005,261.0000099999999 C 309.64414000000005,261.0285999999999 309.9993400000001,261.8013399999999 310.00001000000003,262.70001999999994 C 310.00068000000005,263.60000999999994 310.00001000000003,264.5000099999999 310.00001000000003,265.3999999999999 C 310.00001000000003,266.2999899999999 310.00001000000003,267.20001999999994 310.00001000000003,268.10000999999994 C 310.00001000000003,268.99999999999994 309.5828,269.94381999999996 310.05717000000004,270.64282999999995 C 310.52037,271.32535999999993 311.85353000000003,271.04486999999995 311.99867000000006,271.8013399999999 C 312.16801000000004,272.68393999999995 312.0000100000001,273.65701999999993 312.0000100000001,272.7999999999999 C 312.0000100000001,271.9000099999999 312.0000100000001,271.0000099999999 312.0000100000001,270.2000199999999 C 312.0000100000001,269.2999999999999 311.9946100000001,268.3999699999999 312.0000100000001,267.50000999999986 C 312.0053500000001,266.61060999999984 312.72602000000006,266.1262599999999 312.9893300000001,265.38934999999987 C 313.3222500000001,264.45761999999985 312.8434600000001,263.3987799999999 313.3571900000001,262.70450999999986 C 313.8557300000001,262.03073999999987 314.8000000000001,262.0006799999999 315.7000200000001,262.00000999999986 C 316.6000100000001,261.99933999999985 317.5000100000001,262.00000999999986 318.4000000000001,262.00000999999986 C 319.2999900000001,262.00000999999986 320.2000200000001,262.00000999999986 321.1000100000001,262.00000999999986 C 322.0000000000001,262.00000999999986 322.7571800000001,262.00000999999986 323.6526800000001,262.00000999999986 C 324.5159900000001,262.00000999999986 325.4791600000001,262.00000999999986 326.3999900000001,262.00000999999986 C 327.2999800000001,262.00000999999986 328.7229900000001,262.4373899999999 328.9383200000001,261.64734999999985 C 329.1438900000001,260.8930799999998 328.0119000000001,260.18573999999984 327.2955000000001,260.00449999999984 C 326.42734000000013,259.7848599999998 325.5000000000001,260.00000999999986 324.60000000000014,260.00000999999986 C 323.70001000000013,260.00000999999986 322.7999800000001,260.00000999999986 321.8999900000001,260.00000999999986 C 321.0000000000001,260.00000999999986 320.0696400000001,260.39297999999985 319.28534000000013,259.91467999999986 C 318.4816900000001,259.4245999999999 317.62091000000015,259.39175999999986 317.0853300000001,258.71466999999984 C 316.57715000000013,258.07223999999985 316.82645000000014,256.96176999999983 317.0853300000001,256.2000199999998 C 317.3870900000001,255.31207999999984 317.9826700000001,254.60055999999983 318.0000000000001,253.69999999999982 C 318.0173000000001,252.8014999999998 317.39233000000013,252.26081999999982 317.0360100000001,251.56399999999982 C 316.60147000000006,250.71418999999983 316.5534100000001,249.94619999999983 315.9746700000001,249.42533999999984 C 315.3367900000001,248.85125999999983 314.6024800000001,248.33036999999985 314.0840100000001,247.71465999999984 C 313.5236200000001,247.04915999999983 313.2839900000001,246.19999999999985 313.0106800000001,245.39998999999983 L 312.9639900000001,244.43599999999984" fill="none" id="svg_15" stroke="#000" stroke-width="2"/>
	<path d="M 302.0,240.0 C 304.16666,240.83333 304.72903,241.29579 305.2215,242.09984 C 305.60107999999997,242.71956 306.75342,242.93712 306.99552,243.7045 C 307.26523,244.55939 307.61814,245.31032 307.91468,246.2 C 308.20056999999997,247.05765 307.96281,248.00087 308.00001,248.80001 C 308.04272999999995,249.71764 308.96130999999997,250.15105 309.00001,251.00000999999997 C 309.03666,251.80371999999997 308.5308,252.66302999999996 308.02533999999997,253.38933999999998 C 307.56613999999996,254.04915999999997 306.60002,254.00000999999997 305.70002,254.00000999999997 C 304.8,254.00000999999997 303.9,254.00000999999997 303.00001,254.00000999999997 C 302.20002,254.00000999999997 301.29999999999995,254.00000999999997 300.4,254.00000999999997 C 299.50001,254.00000999999997 298.60001,254.00000999999997 297.70002,254.00000999999997 C 296.8,254.00000999999997 295.9,254.00000999999997 295.00001,254.00000999999997 C 294.20002,254.00000999999997 293.23762,253.96325 292.50001,254.52083999999996 C 291.7227,255.10843999999997 291.23071999999996,255.82996999999997 290.4,255.98934999999997 C 289.45214999999996,256.17118999999997 288.53024999999997,256.67704999999995 288.76252,256.99553 C 289.30381,257.73769 290.15269,256.08507 290.88667,256.00136 C 291.81932,255.89498999999998 292.83335999999997,256.00001999999995 293.58934,256.00001999999995 C 294.50002,256.00001999999995 295.40001,256.00001999999995 296.3,256.00001999999995 C 297.20002,256.00001999999995 298.10002000000003,256.00001999999995 299.00001000000003,256.00001999999995 L 299.8,256.00001999999995 L 300.70002,256.00001999999995 L 301.60001,256.00001999999995" fill="none" id="svg_16" stroke="#000" stroke-width="2"/>
	<path d="M 367.0,214.0 C 365.328,215.02533 364.44333,215.18036 363.52084,215.52083 C 362.84158,215.77152999999998 362.20309000000003,216.61518999999998 361.29016,216.94284 C 360.68387,217.16043 359.62506,216.86189 358.70001,217.00449999999998 C 357.76858000000004,217.14808999999997 357.20001,217.71599999999998 356.29999000000004,218.05266999999998 L 355.52085000000005,218.52082" fill="none" id="svg_17" stroke="#000" stroke-width="2"/>
</svg>
