<?xml version="1.0" ?>
<svg baseProfile="full" height="480" version="1.1" width="640" xmlns="http://www.w3.org/2000/svg" xmlns:ev="http://www.w3.org/2001/xml-events" xmlns:xlink="http://www.w3.org/1999/xlink">
	<defs/>
	<path d="M 480.5,147.89999 C 478.79999,147.84283 477.9537,147.34228000000002 477.52933,146.92801 C 476.71906,146.13706 476.21735,145.61734 475.64267,145.04266 C 475.01199,144.412 474.33334,143.73335 473.616,143.01600000000002 C 473.24735,142.64733 472.5,141.9 471.75266,141.15266000000003 C 471.38401,140.78399000000002 470.32059,139.72224000000003 469.98533,139.38400000000001 C 469.33421,138.72711 468.70257999999995,138.08204 468.10132999999996,137.41600000000003 C 467.49173999999994,136.74072000000004 466.89862999999997,136.02190000000002 466.32133,135.29600000000002 C 465.76811,134.60041 465.2852,133.9429 464.64302,133.16450000000003 C 464.05476,132.45147000000003 463.39768999999995,131.80230000000003 462.79999999999995,131.19999000000004 C 462.10797999999994,130.50265000000005 461.64987999999994,129.79571000000004 461.50001,128.89999000000003 C 461.35978,128.06181000000004 460.54272999999995,127.61801000000003 460.50001,126.80000000000003 C 460.45306999999997,125.90123000000003 460.50001,125.01467000000002 460.50001,124.06400000000002 C 460.50001,123.29866000000003 460.52869999999996,122.29297000000003 460.464,121.66400000000002 C 460.34126,120.47040000000001 460.06312,119.66688000000002 459.92533,119.08933000000002 C 459.64286,117.90542000000002 459.56287,117.30133000000002 459.52085,116.40000000000002 C 459.47892,115.50076000000001 459.50001,114.60016000000002 459.50001,113.71067000000002 C 459.50001,112.85717000000002 459.50001,111.82167000000003 459.50001,110.94167000000002 C 459.50001,109.92134000000001 459.50001,109.14734000000001 459.50001,108.24734000000002 C 459.50001,107.38401000000002 459.50001,106.42084000000003 459.50001,105.50000000000003 C 459.50001,104.60000000000002 459.50001,103.70000000000003 459.50001,102.80000000000003 C 459.50001,101.90000000000002 459.08232,101.34562000000003 458.62149999999997,100.67850000000003 C 458.11744,99.94880000000003 458.87681,98.72001000000003 458.33335,98.06666000000003 C 457.75938,97.37664000000002 456.71036,97.40598000000003 456.02085,96.90000000000003 C 455.36033,96.41530000000003 455.09281,95.44922000000004 454.33335,94.90000000000003 C 453.70438,94.44514000000004 452.93073,94.06214000000003 452.25266,93.24734000000004 C 451.8404,92.75195000000004 451.20685,91.87934000000004 450.47916,91.42084000000004 C 449.91855,91.06762000000005 448.89997,90.60006000000004 448.10001,90.20001000000003 C 447.29996,89.79990000000004 446.48178,89.40761000000003 445.9,89.01468000000004 C 445.07352,88.45646000000004 444.59882,87.81072000000005 443.66666,87.23335000000004 C 442.95914,86.79513000000004 442.14966,86.38259000000005 441.29999,85.98401000000004 C 440.43958,85.58039000000004 439.84458,85.09698000000004 438.9,84.91068000000004 C 438.10438,84.75376000000004 437.18539999999996,84.66073000000004 436.47916,84.40001000000004 C 435.50881999999996,84.04179000000003 434.70056999999997,83.91922000000004 433.9,83.90135000000004 C 432.90024,83.87903000000004 432.10001,83.90001000000004 431.10001,83.90001000000004 C 430.29999,83.90001000000004 429.29999,83.90001000000004 428.5,83.90001000000004 C 427.5,83.90001000000004 426.70001,83.90001000000004 425.89999,83.90001000000004 C 424.90451,83.90001000000004 423.98532,83.90001000000004 423.12533,83.90001000000004 C 422.17867,83.90001000000004 421.32534000000004,83.90001000000004 420.384,83.90001000000004 C 419.61599,83.90001000000004 418.664,83.90001000000004 417.89868,83.90001000000004 L 416.90451,83.90451000000003 L 415.98532,83.98534000000004 L 415.13599,84.33600000000004" fill="none" id="svg_1" stroke="#000" stroke-width="2"/>
	<path d="M 422.5,89.9 C 420.664,89.9 419.89764,89.94134000000001 418.90451,89.89550000000001 C 417.98276000000004,89.85296000000001 417.17776000000003,89.35069000000001 416.33334,89.06667000000002 C 415.53149,88.79696000000001 414.47522000000004,89.09937000000002 413.70132,88.81467000000002 C 412.83013,88.49418000000001 412.63967,87.38471000000003 411.97915,86.90000000000002 C 411.28964,86.39402000000003 410.36675,86.11195000000002 409.70001,85.81600000000002 C 408.84222,85.43525000000001 408.00479,85.03472000000002 407.39984000000004,84.45717000000002 C 406.73755000000006,83.82488000000002 406.21283000000005,82.87076000000002 405.67465000000004,82.54667000000002 C 404.71823000000006,81.97071000000003 403.89129,81.91174000000002 403.1,81.47467000000002 C 402.27947,81.02147000000002 401.64877,80.56320000000002 401.07467,79.92533000000002 C 400.5538,79.34660000000002 399.83819000000005,78.85611000000002 399.44732000000005,78.19550000000001 C 398.98257000000007,77.41005000000001 398.63555,76.59144 398.49865000000005,75.70000000000002 C 398.35809000000006,74.78455000000001 397.5837900000001,74.21992000000002 397.4999900000001,75.00016000000002 C 397.41613000000007,75.78083000000002 397.4999900000001,76.72533000000003 397.4999900000001,77.73333000000002 C 397.4999900000001,78.59550000000003 397.4999900000001,79.39999000000002 397.4999900000001,80.30000000000003 C 397.4999900000001,81.20000000000003 397.4999900000001,82.10000000000002 397.4999900000001,83.00000000000003 C 397.4999900000001,83.90000000000003 397.6242900000001,84.67743000000003 398.0746700000001,85.50000000000003 C 398.5019500000001,86.28039000000003 398.4481100000001,87.23386000000002 398.92532000000006,87.87467000000002 C 399.43304000000006,88.55644000000002 399.4977400000001,89.40000000000002 399.50000000000006,90.30000000000003 C 399.50226000000004,91.19551000000003 400.17050000000006,91.70686000000002 400.47916000000004,92.42083000000002 C 400.82813000000004,93.22804000000002 400.50000000000006,94.20000000000002 400.50000000000006,95.09999000000002 C 400.50000000000006,95.99999000000003 400.50000000000006,96.89999000000002 400.50000000000006,97.70000000000002 C 400.50000000000006,98.59999000000002 400.50000000000006,99.50000000000001 400.50000000000006,100.40000000000002 C 400.50000000000006,101.30000000000003 400.50000000000006,102.20450000000002 400.50000000000006,103.06666000000001 C 400.50000000000006,103.90000000000002 400.50000000000006,104.87850000000002 400.50000000000006,105.69866000000002 C 400.50000000000006,106.59999000000002 400.10269000000005,107.60211000000002 400.53601000000003,108.46400000000001 C 400.867,109.12239000000001 401.91882000000004,109.31646 402.41598000000005,110.09867000000001 C 402.88088000000005,110.83013000000001 403.32977000000005,111.35197000000001 403.51068000000004,112.30000000000001 C 403.66937,113.13166000000001 404.26880000000006,113.77237000000001 404.47467000000006,114.72533000000001 C 404.62234000000007,115.40883000000001 405.12491000000006,116.32312000000002 405.4473300000001,117.20900000000002 C 405.6784100000001,117.84390000000002 405.8302000000001,118.91509000000002 406.11066000000005,119.64934000000002 C 406.46625000000006,120.58027000000003 406.88935000000004,121.22801000000003 407.41468000000003,122.10000000000002 L 407.50001000000003,123.00000000000003" fill="none" id="svg_2" stroke="#000" stroke-width="2"/>
	<path d="M 407.5,124.9 C 407.5,126.65716 407.5,127.55266 407.5,128.416 C 407.5,129.27467 407.59143,130.23013 407.46399,131.07466 C 407.31873,132.03721 406.77762,132.63103999999998 406.55267000000003,133.55267 C 406.34543,134.40182000000001 405.88272000000006,135.1781 405.58532,136.1 C 405.30776000000003,136.96036999999998 405.52535,137.90037999999998 405.49999,138.69998999999999 C 405.4714,139.60136 404.83471000000003,140.32567999999998 404.58532,141.10133 C 404.28872,142.02392 404.49999,142.89999 404.49999,143.87849 C 404.49999,144.5955 404.49999,145.53599 404.49999,146.38533 C 404.49999,147.30450000000002 404.49999,148.29868000000002 404.49999,149.06400000000002 C 404.49999,150.01467000000002 404.49999,150.90000000000003 404.49999,151.78534000000002 C 404.49999,152.72534000000002 404.49999,153.41600000000003 404.49999,154.39999000000003 C 404.49999,155.38400000000004 404.49999,156.07466000000002 404.49999,157.14733000000004 C 404.49999,158.06666000000004 404.49999,158.89999000000003 404.49999,159.87865000000005 C 404.49999,160.65265000000005 404.49550000000005,161.55266000000006 404.41466,162.41599000000005 L 404.07466000000005,163.26400000000004" fill="none" id="svg_3" stroke="#000" stroke-width="2"/>
	<path d="M 403.5,260.89999 C 403.216,264.15332 403.14572,264.56222 403.0,265.42083 C 402.85098,266.29888 402.65744,267.56573000000003 402.58401,268.32934 C 402.51689999999996,269.02725 402.49453,269.99853 402.27864999999997,271.19982 C 402.17076999999995,271.80019 401.88061,272.65416999999997 401.66664999999995,273.73332999999997 C 401.52791999999994,274.43316 401.5006599999999,275.41331999999994 401.49998999999997,276.26399999999995 C 401.49926,277.19999999999993 401.49998999999997,278.09999999999997 401.49998999999997,278.99998999999997 C 401.49998999999997,279.89997999999997 401.49998999999997,280.7 401.49998999999997,281.59999999999997 C 401.49998999999997,282.53599999999994 401.49998999999997,283.38399999999996 401.49998999999997,284.24733999999995 C 401.49998999999997,285.14732999999995 401.49998999999997,286.06667999999996 401.49998999999997,286.92082999999997 C 401.49998999999997,287.89998999999995 401.44163999999995,288.7095 401.58531999999997,289.49998999999997 C 401.76989,290.51530999999994 402.14827999999994,291.28193999999996 402.70000999999996,292.01466999999997 C 403.24728,292.74150999999995 403.91759999999994,293.28279999999995 404.59981999999997,293.99998999999997 C 405.15756,294.58631999999994 405.37924,295.46605 405.86166,296.20448999999996 C 406.28988,296.85994999999997 407.12915,297.57444999999996 407.67465,298.03865999999994 C 408.44705,298.69597999999996 409.34893999999997,298.91096999999996 410.0,299.4208299999999 C 410.76788,300.02217999999993 411.36133,300.64537999999993 411.88934,301.2999799999999 C 412.4902,302.0449399999999 412.32998,303.0488799999999 412.66665,303.8999899999999 C 412.9446,304.6026599999999 413.39929,305.3880599999999 413.52532,306.1106499999999 C 413.6986,307.1040899999999 413.97378000000003,307.9073099999999 414.49999,308.7333299999999 C 414.94109000000003,309.4257399999999 415.42891000000003,310.21629999999993 415.48931000000005,311.0746699999999 C 415.55529000000007,312.01240999999993 415.50014000000004,312.9998399999999 415.72134000000005,313.7786499999999 L 416.44284000000005,314.2571699999999 L 416.50134,315.09865999999994" fill="none" id="svg_4" stroke="#000" stroke-width="2"/>
	<path d="M 417.5,305.89999 C 417.5,307.57199 417.5,308.67065 417.5,309.44168 C 417.5,310.009 417.5,311.19983 417.5,312.08932000000004 C 417.5,312.94284000000005 417.5,313.97851 417.5,314.66400000000004 C 417.5,315.49866000000003 417.5,316.50000000000006 417.5,317.29999000000004 C 417.5,318.29868000000005 417.5,319.24283 417.5,320.14282000000003 C 417.5,321.1 417.53665,322.00073000000003 417.5,322.89999 C 417.47141,323.60174 416.86862,324.37106 416.62149,325.22149 C 416.37146,326.08193 416.52917,327.1014 416.47916,327.92083 C 416.43847999999997,328.58721 416.23501999999996,329.59017 415.97916,330.39999 C 415.71921,331.22277 415.27945,332.20584 415.02085,332.87918 C 414.63346,333.88785 414.57572,334.70853 414.41599,335.5 C 414.21116,336.51498 413.85428,337.08112 413.62134000000003,338.09982 C 413.44553,338.86871 413.3414,339.92517000000004 412.7955,340.59549000000004 C 412.26163,341.25101000000006 411.82764000000003,342.12857 411.27865,342.77866000000006 C 410.71765000000005,343.44297000000006 410.23651,344.11951000000005 409.69866,344.70002000000005 C 409.11236,345.33283000000006 408.34545,346.07935000000003 407.84283,346.54816000000005 C 407.30199999999996,347.05262000000005 406.2929,347.63694000000004 405.5,347.92084000000006 C 404.8942,348.13776000000007 404.08777,348.74994000000004 403.4375,349.48334000000006 C 402.92187,350.0648800000001 402.66721,350.41254000000004 401.63599,351.42133000000007 C 401.25632,351.79273000000006 400.42359,352.52488000000005 400.0,352.9000000000001 C 399.15717,353.6464000000001 398.71533,353.9796800000001 397.66434,355.0786800000001 C 397.04465,355.7266900000001 396.53603999999996,356.3958800000001 396.05634,357.05268000000007 C 395.81583,357.38196000000005 395.08572999999996,358.42625000000004 394.54733999999996,359.1436800000001 C 394.00703,359.8636800000001 393.48932999999994,360.5676900000001 392.66666,361.4000000000001 C 392.20504999999997,361.8670100000001 391.49042,362.3428100000001 390.90134,362.8666700000001 C 390.05451,363.6197800000001 389.68821,364.14609000000013 389.15717,364.9518400000001 C 388.49271,365.96005000000014 388.17667,366.68988000000013 387.74735,367.2383400000001 C 387.09049,368.0774800000001 386.26621,368.3959000000001 385.668,369.1000000000001 C 385.05673,369.81948000000006 384.34528,370.2924100000001 383.83334,371.0666700000001 C 383.35321000000005,371.7928100000001 383.14608000000004,372.6523600000001 382.55267000000003,373.2526400000001 C 382.00116,373.8105000000001 381.34958000000006,374.3456600000001 380.85266,374.9526500000001 C 380.35229000000004,375.56386000000015 380.37875,376.57384000000013 380.58533,377.4160000000001 C 380.80631,378.3167900000001 381.49839,379.0676400000001 381.91068,379.7359800000001 C 382.38352000000003,380.5024600000001 382.95423,381.3315000000001 383.54166000000004,381.8791700000001 C 384.15485,382.4508300000001 384.91169,382.9001400000001 385.74668,383.2746500000001 C 386.34000000000003,383.54076000000015 387.66975,384.0598400000001 388.38267,384.3839900000001 C 389.1179,384.7183100000001 389.83949,385.0730200000001 390.53068,385.4160000000001 C 391.45826,385.8763000000001 392.23170000000005,386.2794000000001 392.94819,386.5954700000001 C 393.91221,387.0207600000001 394.70759000000004,387.3121400000001 395.49018,387.5428300000001 C 396.51957,387.8462700000001 397.50001000000003,388.0501500000001 397.50001000000003,388.8999800000001 C 397.50001000000003,389.7498300000001 396.58543000000003,389.9179900000001 395.66401,390.3466700000001 C 395.07472,390.6208400000001 394.26634,391.18554000000006 393.52085,391.9208300000001 C 392.95856,392.47546000000006 392.38666,393.2986700000001 392.04166,393.8791700000001 L 391.62149,394.8785000000001 L 391.50133999999997,395.6986600000001" fill="none" id="svg_5" stroke="#000" stroke-width="2"/>
	<path d="M 391.5,396.89999 C 389.89999,397.47467 389.03485,397.7424 388.29733,398.18798 C 387.60411999999997,398.60679999999996 386.95193,399.43841 386.48564999999996,399.92332999999996 C 385.95250999999996,400.47776999999996 385.36638999999997,401.10402 384.49998999999997,402.23332999999997 C 384.19109,402.63597999999996 383.59905,403.50469 383.29997999999995,403.95064999999994 C 382.69810999999993,404.8480799999999 382.42479999999995,405.31258999999994 381.49998999999997,406.56667999999996 C 381.20788,406.96279999999996 380.60891,407.68951 380.02083,408.35833999999994 C 379.46132,408.99468999999993 378.65855999999997,409.89358999999996 378.18532,410.4986599999999 C 377.72811,411.0832499999999 377.12349,411.9577399999999 376.49998999999997,412.73333999999994 C 375.92179999999996,413.45257999999995 375.52608,413.86349999999993 374.66664999999995,414.73333999999994 C 374.13917999999995,415.26717999999994 373.4587599999999,415.86349999999993 372.89998999999995,416.5360099999999 C 372.3578499999999,417.1885099999999 371.94823999999994,418.1067799999999 371.3998399999999,418.8786599999999 C 371.01183999999995,419.42473999999993 370.17867999999993,420.2213399999999 369.67464999999993,420.7253399999999 C 369.15264999999994,421.2473099999999 368.42168999999996,422.0588999999999 367.74733999999995,422.5954899999999 C 367.05296999999996,423.1480399999999 366.08061999999995,423.28863999999993 365.61430999999993,424.2000099999999 C 365.20158999999995,425.0066199999999 364.8882699999999,425.6371099999999 364.53599999999994,426.3359999999999 C 364.10179999999997,427.1974199999999 364.36833999999993,428.2500599999999 364.72132999999997,428.9999999999999 C 365.08637999999996,429.77553999999986 365.34653999999995,430.62279999999987 365.93598999999995,431.28933999999987 C 366.55021999999997,431.98388999999986 367.59998999999993,431.89999999999986 368.49998999999997,431.89999999999986 C 369.29997999999995,431.89999999999986 370.13597999999996,431.89999999999986 371.15716,431.89999999999986 C 371.9045,431.89999999999986 372.90655,431.97891999999985 373.664,431.86401999999987 C 374.63827,431.71621999999985 375.28891,431.15274999999986 376.268,430.7000199999999 C 376.98605,430.3679899999999 377.78738,430.19378999999986 378.68566,429.6000099999999 C 379.34472,429.1643699999999 379.79702,428.3025899999999 380.7,427.9853199999999 C 381.55294,427.68563999999986 382.47008,427.6854499999999 383.09999,427.3253499999999 C 383.96419,426.8312999999999 384.74226,426.4128699999999 385.66664,426.0666799999999 C 386.3073,425.8267499999999 387.11629,425.86626999999993 388.10898999999995,425.54284999999993 C 388.78388999999993,425.32296999999994 389.8306999999999,424.89147999999994 390.46930999999995,424.70001999999994 C 391.51672999999994,424.38598999999994 392.25415999999996,424.20834999999994 393.33331999999996,423.8999999999999 C 394.01483999999994,423.7052699999999 394.96191999999996,423.4101299999999 395.53830999999997,423.20001999999994 C 396.58549,422.81827999999996 397.27094999999997,422.4915199999999 397.95264999999995,422.20001999999994 C 398.91642999999993,421.78790999999995 399.73459999999994,421.49594999999994 400.60446999999994,421.20001999999994 C 401.4985699999999,420.89584999999994 402.40011999999996,420.62442999999996 403.2279699999999,420.29999999999995 C 404.1779499999999,419.92771999999997 404.8451899999999,419.51874999999995 405.4999699999999,418.90000999999995 C 406.0353099999999,418.39411999999993 406.8296799999999,417.58658999999994 407.3253199999999,417.06400999999994 C 407.8564199999999,416.5040399999999 408.4660399999999,415.69159999999994 408.9999699999999,414.9208499999999 C 409.3752099999999,414.37918999999994 410.2348599999999,413.7345399999999 410.7901299999999,413.0901899999999 C 411.35750999999993,412.4317999999999 411.4507099999999,411.3749799999999 411.5826399999999,410.58267999999987 C 411.7495699999999,409.5800599999999 411.9608099999999,408.90603999999985 412.4999699999999,408.0666899999999 C 413.0097399999999,407.27310999999986 413.4202299999999,406.4591799999999 414.0208099999999,405.8791899999999 C 414.64818999999994,405.2733199999999 415.0465699999999,404.69662999999986 415.7954699999999,404.0098399999999 C 416.4327399999999,403.4254299999999 417.0649699999999,402.96805999999987 417.9839799999999,402.6146699999999 C 418.69652999999994,402.34064999999987 419.46996999999993,401.7885899999999 420.1253099999999,401.2999999999999 C 420.8122599999999,400.7878499999999 421.7330399999999,400.3942399999999 422.33062999999987,399.7013399999999 C 422.8845899999999,399.0590399999999 423.69997999999987,398.9000099999999 424.59997999999985,398.9000099999999 C 425.49996999999985,398.9000099999999 426.2999599999998,398.9000099999999 427.13595999999984,398.9000099999999 C 428.15713999999986,398.9000099999999 428.90447999999986,398.9000099999999 429.90130999999985,398.9000099999999 C 430.73596999999984,398.9000099999999 431.6666299999998,398.9000099999999 432.45263999999986,398.9000099999999 C 433.2746299999999,398.9000099999999 434.33331999999984,398.9000099999999 435.25329999999985,398.9000099999999 C 436.0133099999999,398.9000099999999 436.99996999999985,398.9000099999999 437.82128999999986,398.9000099999999 C 438.6746199999999,398.9000099999999 439.6146199999999,398.9000099999999 440.59997999999985,398.9000099999999 C 441.49996999999985,398.9000099999999 442.2999599999998,398.9000099999999 443.19998999999984,398.9000099999999 C 444.02081999999984,398.9000099999999 444.9852999999998,398.9000699999999 445.71063999999984,398.9000099999999 C 446.69998999999984,398.8999199999999 447.5157199999998,398.9625399999999 448.4999799999998,398.7333499999999 C 449.3188299999998,398.5426799999999 450.09000999999984,398.1355699999999 451.0999899999998,397.95267999999993 C 451.8939699999998,397.8089099999999 452.8986699999998,397.6160099999999 453.66398999999984,397.32535999999993 L 454.47846999999985,397.0215299999999 L 455.29865999999987,396.9013499999999 L 456.1999999999999,396.9000099999999" fill="none" id="svg_6" stroke="#000" stroke-width="2"/>
	<path d="M 441.5,396.89999 C 443.20001,396.89999 444.20001,396.89999 445.10001,396.89999 C 446.0,396.89999 446.9,396.89999 447.79999,396.89999 C 448.70000999999996,396.89999 449.60001,396.89999 450.5,396.89999 L 451.29999,396.89999" fill="none" id="svg_7" stroke="#000" stroke-width="2"/>
	<path d="M 452.5,396.89999 C 452.92532,395.07467 453.15891,394.36529 453.5,393.42083 C 453.80688,392.57113000000004 454.35278,391.95278 454.69867,391.12667000000005 C 455.02972,390.33599000000004 455.18179,389.68264000000005 455.33334,388.56667000000004 C 455.44659,387.73278000000005 455.47619000000003,386.82723000000004 455.56134000000003,385.87865000000005 C 455.60513000000003,385.39052000000004 455.82086000000004,383.8970800000001 455.94299,383.40016 C 456.1893,382.39802000000003 456.53524,381.41841000000005 456.72134,380.93599 C 457.09002,379.98033 457.49054,379.0623 457.89999,378.18797 C 458.29098,377.35304 458.47543,376.94874 458.89999,376.21882 C 459.65719,374.917 460.07672,374.38795 460.73599,373.72132 C 461.16784,373.28463999999997 462.18005,372.49769 462.71466000000004,372.11063 C 463.48639000000003,371.55188000000004 464.34988000000004,370.91227000000003 464.97916000000004,370.42081 C 465.65894000000003,369.8899 466.33326000000005,369.49469 467.10132000000004,369.09998 C 468.0875300000001,368.59317000000004 468.90888000000007,368.30268 469.39017000000007,367.59998 C 469.94599000000005,366.78846000000004 470.2358100000001,366.02045000000004 470.4518500000001,365.24732 C 470.6914700000001,364.38984 471.2357200000001,363.6839 471.8518400000001,363.14731 C 472.6501500000001,362.45206 473.0155400000001,361.87445 473.5000000000001,360.73331 C 473.7179000000001,360.22003 474.0138200000001,359.35559 474.2571700000001,358.73831 C 474.65521000000007,357.72873 474.9852000000001,357.0152 475.32535000000007,356.26398 C 475.6758700000001,355.48987 476.04654000000005,354.70999 476.4783300000001,353.50031 C 476.75833000000006,352.71586 476.9787300000001,351.94639 477.1383300000001,351.21430000000004 C 477.4139300000001,349.95017 477.4807400000001,349.17249000000004 477.4986500000001,348.30265 C 477.51931000000013,347.30018 477.49999000000014,346.49998000000005 477.49999000000014,345.50132 C 477.49999000000014,344.73597 477.49999000000014,343.78532 477.49999000000014,342.89997 L 477.58532000000014,342.09998 L 478.07467000000014,341.29996 L 478.46398000000016,340.49997" fill="none" id="svg_8" stroke="#000" stroke-width="2"/>
	<path d="M 478.5,338.89999 C 480.0,337.37918 480.65326,336.60495000000003 480.97916,335.87918 C 481.40569999999997,334.92926 481.40033,334.28049000000004 481.60983999999996,333.38568000000004 C 481.87820999999997,332.23947000000004 482.21162,331.57101000000006 482.58334999999994,330.81668 C 482.78695999999997,330.40347 483.26187999999996,329.51987 483.83334999999994,328.56668 C 484.45822999999996,327.52444 484.81112999999993,326.99252 485.1719999999999,326.44934 C 485.53838999999994,325.89783 485.9044199999999,325.33826 486.7026699999999,324.26800000000003 C 487.4836499999999,323.22094000000004 487.8959099999999,322.74011 488.2959899999999,322.27200000000005 C 489.0611599999999,321.37677 489.4452799999999,320.9691700000001 490.1285099999999,320.16617 C 490.44765999999987,319.79108 491.2592199999999,318.73529 491.80266999999986,317.75733 C 492.11785999999984,317.19016000000005 492.62435999999985,316.18909 493.32533999999987,315.56135 C 493.8195699999999,315.11875 494.62721999999985,314.42448 495.0893199999999,313.72535 C 495.6144399999999,312.93089 496.1436699999999,312.35093 496.7954999999999,311.60001 C 497.3741699999999,310.93335 497.4993299999999,310.10001 497.4999999999999,309.20002 C 497.50063999999986,308.35835 497.4843099999999,307.35679 497.51067999999987,306.63868 C 497.53972999999985,305.84736000000004 497.6871599999999,304.80949000000004 498.02083999999985,303.90000000000003 C 498.27547999999985,303.20597000000004 498.70732999999984,302.21592000000004 498.89998999999983,301.65333000000004 C 499.21193999999986,300.74235000000004 499.5066199999998,299.73515000000003 499.6986699999998,299.016 C 499.89617999999984,298.27647 500.11046999999985,297.53315000000003 500.33333999999985,296.06669 C 500.43624999999986,295.3896 500.48631999999986,294.44184 500.49550999999985,293.86167 C 500.51576999999986,292.58417000000003 500.49999999999983,291.9 500.49999999999983,291.21601 C 500.49999999999983,289.94732999999997 500.49999999999983,289.4 500.49999999999983,288.58402 C 500.49999999999983,287.36167 500.49999999999983,286.56168 500.49999999999983,285.65268000000003 C 500.49999999999983,284.73334000000006 500.49999999999983,283.89999000000006 500.49999999999983,282.92117 C 500.49999999999983,282.09018000000003 500.49999999999983,281.13067 500.49999999999983,280.37918 C 500.49999999999983,279.58267 500.49999999999983,278.58401000000003 500.49999999999983,277.67468 C 500.49999999999983,276.73333 500.49999999999983,275.93384000000003 500.49999999999983,275.01733 C 500.49999999999983,274.32800000000003 500.49999999999983,273.15716000000003 500.49999999999983,272.29016 C 500.49999999999983,271.37918 500.4999399999998,270.91467 500.49999999999983,269.98266 C 500.50008999999983,268.62167 500.4935899999998,267.76138000000003 500.52083999999985,266.94167 C 500.54677999999984,266.16123999999996 500.64839999999987,265.06325 500.78398999999985,264.38665 C 500.97447999999986,263.43620999999996 501.21590999999984,262.87413999999995 501.41466999999983,261.58666 C 501.5135799999998,260.94603 501.50014999999985,259.9215 501.58531999999985,259.10134 L 502.07466999999986,258.29998" fill="none" id="svg_9" stroke="#000" stroke-width="2"/>
	<path d="M 428.5,224.89999 C 427.07867,224.03866 426.58759,223.29538 425.73065,222.78666 C 425.01959000000005,222.36454 424.19253000000003,222.12949 423.18533,221.98533 C 422.31634,221.86094 421.29998,221.89999 420.5,221.89999 C 419.5,221.89999 418.6933,221.98918 417.98532,221.81466 C 417.09704,221.59571 416.30301000000003,220.94271 415.39999,220.89999 C 414.501,220.85746 413.70001,220.89999 412.79998,220.89999 C 411.89999,220.89999 410.93923,220.85463000000001 410.47466000000003,221.51066 C 409.96590000000003,222.2291 409.11855,222.5977 408.55266,223.25717 C 407.96166,223.94595 407.65358,224.66813 407.51067,225.53599 C 407.34472,226.54364999999999 407.49999,227.3045 407.49999,228.3 C 407.49999,229.10000000000002 407.61794000000003,230.11218000000002 407.47915,230.85833000000002 C 407.29748,231.83495000000002 406.54693000000003,232.46630000000002 406.50448,233.25182 C 406.45638,234.14154000000002 406.49999,235.10000000000002 406.49999,235.99999 C 406.49999,236.89998 406.49508000000003,237.68039 406.85717000000005,238.55266 C 407.15493000000004,239.26996 407.92049000000003,240.06804 408.3333400000001,240.89998 C 408.65942000000007,241.55708 409.04019000000005,242.34851 409.79550000000006,242.84732 C 410.49368000000004,243.30841 410.68683000000004,244.23102 411.50000000000006,244.73332 C 412.2636100000001,245.20499999999998 412.8315400000001,245.71340999999998 413.60001000000005,246.12132 C 414.2499700000001,246.46634 416.03360000000004,245.97191999999998 416.02802,246.89998 C 416.02427,247.5278 414.76215,246.5381 414.47468000000003,245.75066 C 414.17121000000003,244.91942 413.64988000000005,244.36495000000002 413.48933000000005,243.49999 C 413.33519000000007,242.66961 412.3509,242.31418 411.66667000000007,241.73333 C 411.00041000000004,241.16773 410.11708000000004,241.29476 409.5853400000001,240.61466 C 409.0195100000001,239.89096999999998 409.45222000000007,238.79872999999998 409.5000100000001,237.89998 C 409.54273000000006,237.09659 410.0546100000001,236.43111 410.6986800000001,235.69866 C 411.1685000000001,235.16436 411.2904500000001,234.18964 411.66935000000007,233.38398999999998 C 412.0552400000001,232.56348999999997 412.96589000000006,232.23958 413.39018000000004,231.24731999999997 C 413.67027,230.59228999999996 413.77067000000005,229.54480999999998 414.59984000000003,229.02131999999997 C 415.31926000000004,228.56710999999999 415.18096,227.60218999999998 415.78536,226.98399999999998 C 416.39336000000003,226.36212999999998 417.18227,225.89458 416.30001000000004,225.90132999999997 C 415.48315,225.90756999999996 414.70223000000004,226.55557999999996 414.52087000000006,227.39998999999997 C 414.3318100000001,228.28015999999997 414.63659000000007,229.25662999999997 414.21603000000005,230.09999999999997 C 413.88610000000006,230.76163999999997 413.50228000000004,231.59997999999996 413.50003000000004,232.49998999999997 C 413.49780000000004,233.39997999999997 413.49936,234.29998999999998 413.50003000000004,235.19998999999996 C 413.50070000000005,236.09999999999997 413.80731000000003,236.95183999999995 414.14737,237.65715999999995 C 414.55753000000004,238.50786999999994 414.45279000000005,239.28973999999994 414.92535000000004,240.26399999999995 C 415.30258000000003,241.04165999999995 415.06576,242.13238999999996 415.66668000000004,242.73332999999997 C 416.2676,243.33426999999998 417.30001000000004,242.90013999999996 418.20004000000006,242.89998999999997 C 419.15704000000005,242.89981999999998 418.3351400000001,242.49356999999998 418.02087000000006,241.85832999999997 C 417.56784000000005,240.94255999999996 417.51803000000007,240.11113999999998 417.50003000000004,239.06665999999996 C 417.487,238.31076999999996 417.50003000000004,237.39998999999995 417.50003000000004,236.49998999999997 C 417.50003000000004,235.59999999999997 417.29089000000005,234.62034999999997 417.72153000000003,233.80015999999998 C 418.05936,233.15672999999998 419.31171,232.89467 419.49555000000004,233.60449999999997 C 419.72007,234.47139999999996 419.50004,235.39998999999997 419.50004,236.29999999999998 C 419.50004,237.19998999999999 419.31117,238.16931 419.72154,238.99999999999997 C 420.0627,239.69057999999998 420.87669,240.34554999999997 421.6667,240.89998999999997 C 422.29001999999997,241.33745999999996 422.78254,241.83190999999997 423.5482,242.54282999999998 C 424.11525,243.06932999999998 424.92222,243.58678999999998 425.80003,243.84283 C 426.66441,244.09497 427.47215,243.54414 427.50004,242.6 C 427.52662000000004,241.70039 427.26609,240.94172 426.8527,240.19998999999999 C 426.42707,239.4363 425.95683,238.69671 425.62153,237.79999999999998 C 425.30345,236.94934999999998 425.50004,236.14282999999998 425.50004,235.24282999999997 C 425.50004,234.49549999999996 425.50004,233.49999999999997 425.50004,232.69999999999996 C 425.50004,231.69999999999996 425.48939,230.89993999999996 425.50004,229.89999999999995 C 425.51048000000003,228.92067999999995 425.6667,228.06666999999996 426.07472,227.31067999999996 L 426.47471,226.51067999999995 L 427.00004,225.90000999999995" fill="none" id="svg_10" stroke="#000" stroke-width="2"/>
	<path d="M 458.5,221.89999 C 460.32535,221.89999 461.33334,221.89999 462.1955,221.89999 C 463.02085,221.89999 463.98400999999996,221.89566 464.84731999999997,221.89999 C 465.74285999999995,221.90449 466.56638,222.37042 467.04166,222.92083 C 467.78305,223.77946 468.50583,224.13271 469.21335,224.48933 C 470.00577,224.88873999999998 470.3707,225.73721 471.02085,226.37915999999998 C 471.66602,227.0162 472.80472,226.71410999999998 473.41599,227.184 C 474.09635000000003,227.70701 474.42847,228.50701 475.06800000000004,229.1 C 475.71482000000003,229.69975 476.34711000000004,230.21950999999999 476.66666000000004,231.06665999999998 C 476.97950000000003,231.89595999999997 477.63007000000005,232.59908 478.29999000000004,232.98265999999998 C 479.10593000000006,233.44411999999997 479.49405,234.27317 480.00000000000006,234.89998999999997 C 480.50934000000007,235.53101999999998 480.50000000000006,236.384 480.50000000000006,237.24732999999998 C 480.50000000000006,238.27467 480.50000000000006,239.22132999999997 480.50000000000006,239.89998999999997 C 480.50000000000006,240.87865999999997 480.50000000000006,241.65265999999997 480.50000000000006,242.72533999999996 C 480.50000000000006,243.41599999999997 480.50000000000006,244.39998999999997 480.50000000000006,245.38399999999996 C 480.50000000000006,246.07465999999997 480.64267000000007,247.15480999999997 480.49985000000004,247.99982999999995 C 480.35584000000006,248.85184999999996 479.69684000000007,249.57920999999993 478.97916000000004,249.87915999999996 C 478.17783000000003,250.21407999999997 477.53226,249.19171999999995 477.50449000000003,248.54816999999997 C 477.46039,247.52626999999998 477.50000000000006,246.57866999999996 477.50000000000006,245.72533999999996 C 477.50000000000006,244.78533999999996 477.50000000000006,243.89998999999997 477.50000000000006,243.09999999999997 C 477.50000000000006,242.19998999999996 477.66522000000003,241.28079999999997 477.47916000000004,240.39998999999997 C 477.30017000000004,239.55261 476.87366000000003,238.38008999999997 476.50000000000006,238.44165999999998 C 475.5544100000001,238.59744999999998 476.50000000000006,240.29999999999998 476.50000000000006,241.19998999999999 C 476.50000000000006,242.1 476.68655000000007,243.05562999999998 476.3333400000001,243.89998999999997 C 476.0339900000001,244.61554999999998 475.35809000000006,245.19946 475.0208400000001,245.89998999999997 C 474.5624000000001,246.85230999999996 474.3811600000001,247.67836999999997 473.92532000000006,248.49999999999997 C 473.4913900000001,249.28211999999996 473.32382000000007,250.24868999999998 472.50000000000006,250.73333999999997 C 471.8472300000001,251.11735999999996 471.58752000000004,251.85444999999996 470.88934000000006,252.46400999999997 C 470.22274000000004,253.04599999999996 469.1886600000001,252.88269999999997 468.50000000000006,253.39999999999998 C 467.87433000000004,253.86998999999997 466.96527000000003,253.84709999999998 466.2000100000001,254.25267999999997 C 465.3544600000001,254.70082999999997 464.8995300000001,254.52904999999998 465.50000000000006,253.89999999999998 C 466.08588000000003,253.28622 466.70184000000006,252.69919 467.25717000000003,252.14283999999998 C 467.98468,251.414 468.54437,250.89146999999997 469.01599000000004,250.21334 C 469.68014000000005,249.25836999999999 469.86792,248.67622999999998 470.19549000000006,247.85267 C 470.60488000000004,246.82343 470.89355000000006,246.13289999999998 471.29998000000006,245.30133999999998 C 471.69247000000007,244.49828999999997 472.1308200000001,243.75813 472.41598000000005,242.78401 C 472.63684000000006,242.02951 472.89532,241.05157 473.30133000000006,240.38402 C 473.8375500000001,239.50234999999998 474.43912000000006,238.80614 474.50000000000006,237.90000999999998 C 474.5536200000001,237.10181999999998 474.45514000000003,236.04647999999997 473.69867000000005,235.90134999999998 C 472.81607,235.73201999999998 471.78400000000005,235.91942999999998 471.44733,236.66168 C 471.05896,237.51787 470.73511,238.21679 470.55716,239.14284999999998 C 470.37595,240.08586999999997 470.39383000000004,241.09528999999998 470.064,241.71466999999998 C 469.58371,242.61652999999998 468.77274,242.97366 468.52533,243.76135 C 468.22845,244.70659999999998 467.8349,245.36543 467.11066,245.87467999999998 C 466.44049,246.34591999999998 465.95679,247.1033 465.62149,248.00001999999998 C 465.30341,248.85064999999997 465.21716,249.58093999999997 464.58401,250.18402999999998 C 464.00987999999995,250.73090999999997 463.24312999999995,250.73726999999997 462.39999,251.12135999999998 C 461.61999000000003,251.47669 460.86407,251.89468 460.01599,251.90001999999998 C 459.15271,251.90544999999997 458.13599,251.90001999999998 457.29999,251.90001999999998 C 456.40033,251.90001999999998 456.20319,252.24544999999998 456.97916,251.87919 C 457.68438999999995,251.54631999999998 457.38858,250.33044999999998 457.85717999999997,249.60003 C 458.37035999999995,248.80010000000001 459.17254999999994,248.3012 459.41598999999997,247.41335 C 459.61902,246.67286000000001 459.63897999999995,245.72608 459.85717999999997,244.95185 C 460.08236999999997,244.15284 460.51712,243.24348 460.97916,242.44169 C 461.46090999999996,241.60568999999998 461.5,240.73336 461.5,239.90001999999998 C 461.5,238.92153 461.5,238.10135999999997 461.5,237.20002 C 461.5,236.30003 461.50226,235.40001999999998 461.5,234.50002 C 461.49774,233.60451 460.8295,233.09317000000001 460.52084,232.37919 C 460.17187,231.57197 460.59134,230.57184999999998 460.33334,229.73336 C 460.07266000000004,228.88621 459.27081000000004,228.31708 458.66665,227.73336 C 458.03814,227.12609 457.29998,226.90002 456.39999,226.90002 C 455.5,226.90002 454.69983,226.88128 453.79998,226.90002 C 452.93545,226.91803000000002 452.50225,227.60452 452.49999,228.50003 C 452.49767,229.42804 452.4522,228.79877000000002 452.49999,227.90002 C 452.54271,227.09663 452.89873,226.33326000000002 453.45183000000003,225.60453 C 453.98049000000003,224.90798 454.73543,224.76344 455.54814000000005,224.25269 C 456.22035000000005,223.83025 457.15266,223.90001 458.01597000000004,223.90001 L 458.95832,223.87918000000002 L 459.52531,223.32535000000001" fill="none" id="svg_11" stroke="#000" stroke-width="2"/>
	<path d="M 402.5,146.89999 C 400.79999,146.89999 399.78787,146.48332 398.936,146.936 C 398.20477,147.32458 398.0241,148.46380000000002 397.20000999999996,148.84733 C 396.43316,149.20422 395.75536999999997,149.62341 395.01732999999996,150.1 C 394.37188,150.51681 393.73706,151.26745 393.21333999999996,152.10133 C 392.82448999999997,152.7205 392.00512,153.37506 391.49998999999997,153.92083 C 390.97243,154.49084 390.32511999999997,155.26646 389.94665,156.06399 C 389.5104,156.98320999999999 389.37347,157.93187999999998 388.88934,158.49999 C 388.25415,159.24535 387.8793,160.02094 387.33334,160.73333 C 386.82641,161.39478 386.58352,162.11471 386.07467,162.83866 C 385.57186,163.55399 384.70745000000005,163.90043 384.50134,164.70133 C 384.27688,165.57348000000002 383.95291000000003,166.2761 383.66665,167.23333000000002 C 383.4703,167.8899 383.51504,168.68537000000003 383.49984,169.97866000000002 C 383.49166,170.67469000000003 383.44421,171.59031000000002 383.216,172.58399000000003 C 383.09079,173.12928000000002 382.79736,173.93647000000004 382.62149,174.97832000000002 C 382.47406,175.85170000000002 382.59351,176.89131000000003 382.44284,177.65265000000002 C 382.25894,178.58191000000002 381.71637,179.21452000000002 381.53601,180.26399000000004 C 381.37735,181.18713000000002 381.5,182.10132000000004 381.5,182.78532000000004 C 381.5,183.72532000000004 381.5,184.73332000000005 381.5,185.59549000000004 C 381.5,186.42082000000005 381.5,187.38399000000004 381.5,188.24731000000003 C 381.5,189.14732000000004 381.5,190.06665000000004 381.5,190.92082000000002 C 381.5,191.89998000000003 381.5,192.69998 381.5,193.49998000000002 C 381.5,194.50448000000003 381.5,195.13598000000002 381.5,196.32131 C 381.5,197.12531 381.5,197.94732000000002 381.5,198.97848000000002 C 381.5,199.66398 381.5,200.49865000000003 381.5,201.49998000000002 C 381.5,202.29998000000003 381.5,203.29866 381.5,204.24281000000002 C 381.5,205.14282000000003 381.5,206.09999000000002 381.5,206.99998000000002 C 381.5,207.89997000000002 381.5,208.69998 381.5,209.53598000000002 C 381.5,210.38531000000003 381.5,211.30449000000002 381.5,212.30132000000003 C 381.5,213.13599000000002 381.5,214.06666000000004 381.5,214.86615000000003 C 381.5,215.78265000000005 381.5,216.47198000000003 381.5,217.64282000000003 C 381.5,218.50982000000002 381.5,218.96132000000003 381.5,219.88531000000003 C 381.5,220.81732000000002 381.5,222.17831000000004 381.5,223.03831000000002 C 381.5,223.45332000000002 381.5,224.63832000000002 381.5,225.73332000000002 C 381.5,226.41466000000003 381.5,227.37915 381.5,227.99548000000001 C 381.5,229.19981 381.5,230.08932000000001 381.5,230.66398 C 381.5,231.73332000000002 381.47705,232.67779000000002 381.55716,233.35264 C 381.673,234.32827 381.94318,235.12071 382.14734,235.94732000000002 C 382.40079,236.97340000000003 382.48843,237.89977000000002 382.49866,238.58398000000003 C 382.51360999999997,239.58522000000002 382.49951,240.42082000000002 382.5,241.30131000000003 C 382.50067,242.50265000000002 382.49435,243.12216000000004 382.53601,243.77198000000004 C 382.62991,245.23614000000003 382.7822,246.07116000000005 382.85717999999997,246.51430000000005 C 383.01428,247.44277000000005 383.20370999999994,248.40912000000006 383.30132999999995,248.90264000000005 C 383.59758999999997,250.40029000000004 383.69841999999994,250.89896000000005 383.89998999999995,251.88930000000005 C 384.09844999999996,252.86429000000004 384.1923499999999,253.34448000000006 384.49999999999994,254.73331000000005 C 384.69515999999993,255.61440000000005 384.7951699999999,256.03949000000006 384.99999999999994,256.8583100000001 C 385.19539999999995,257.6394700000001 385.5941199999999,259.08011000000005 385.7999899999999,259.73831000000007 C 385.9944499999999,260.3600800000001 386.28460999999993,261.21960000000007 386.69866999999994,262.21332000000007 C 387.05099999999993,263.0588400000001 387.4529099999999,264.01392000000004 387.4955099999999,264.70981000000006 C 387.5539799999999,265.6648600000001 387.2241499999999,266.73703000000006 387.7214899999999,267.5356500000001 C 388.1080899999999,268.1564100000001 389.0639899999999,268.5106600000001 389.4746599999999,269.2999600000001 L 389.7839899999999,270.09998000000013 L 390.3333399999999,270.8999700000001" fill="none" id="svg_12" stroke="#000" stroke-width="2"/>
	<path d="M 473.5,141.89999 C 473.55716,140.19999 473.93405,139.22584 474.79999,138.95716000000002 C 475.66141,138.68989000000002 476.62406,138.70692000000003 477.20000999999996,138.19549 C 477.93228,137.54528000000002 478.59335,136.96215 479.38534,136.90133 C 480.32259999999997,136.82935 481.33907999999997,136.83231 482.16134,136.936 C 483.05508,137.0487 483.7669,137.32006 484.55181,137.6045 C 485.58610999999996,137.97932 486.31910999999997,138.21877 487.01333,138.78533 C 487.83361,139.45475 488.04748,140.10315999999997 488.70001,141.016 C 489.17077,141.67457 489.68918,142.39039 490.1,143.07465 C 490.58727000000005,143.88626 491.24636000000004,144.55309 491.7955,145.19998999999999 C 492.43628,145.95483 492.51935000000003,146.81168 492.85718,147.54817 C 493.2323,148.36601 494.09699,148.79812 494.70001,149.46932999999999 C 495.19089,150.01569999999998 495.68133,151.03402999999997 496.25717000000003,151.65266 C 496.80292000000003,152.23899 497.50000000000006,152.89999 498.01599000000004,153.416 C 498.74734000000007,154.14735 499.39438000000007,154.77383 499.98401000000007,155.38667 C 500.5094000000001,155.93277 501.0726900000001,156.55472 501.6146600000001,157.58267 C 502.02317000000005,158.35751000000002 502.22355000000005,159.17314000000002 502.7013300000001,159.93066000000002 C 503.1855200000001,160.69833000000003 504.0062900000001,161.36435000000003 504.4791600000001,161.92083000000002 C 504.9553600000001,162.48124 505.3849800000001,163.51135000000002 505.5506600000001,164.17199000000002 C 505.8178100000001,165.23734000000002 506.0459600000001,165.87740000000002 506.52084000000013,166.87916 C 506.8364800000001,167.54501000000002 507.3406900000001,168.39526 507.85333000000014,169.20266 C 508.21863000000013,169.77801 508.3322400000001,170.76324 508.6666500000001,171.73333 C 508.91869000000014,172.46448999999998 509.5267900000001,173.22225 509.7955000000001,173.90983 C 510.0942400000001,174.67419 510.3774100000001,175.72814 510.46399000000014,176.65333 C 510.53488000000016,177.41081 510.4538900000001,178.41931000000002 510.72150000000016,179.22149000000002 C 510.96225000000015,179.94311000000002 511.50000000000017,180.89999000000003 511.90000000000015,181.69999 C 512.2000200000001,182.3 512.7280900000002,183.2871 512.9791900000001,183.89999 C 513.3813500000001,184.88165 513.4782700000002,185.72082 513.4954900000001,186.41433 C 513.5234400000002,187.54266 513.4853600000001,188.21505000000002 513.5360200000001,189.32133000000002 C 513.5717900000001,190.10339000000002 513.7124700000002,191.30134 513.8526700000001,192.09550000000002 C 513.9912800000001,192.88075 514.1736500000001,193.63867000000002 514.3333200000001,194.73333000000002 C 514.4323800000001,195.41248000000002 514.48341,196.38081000000003 514.5526800000001,196.99549000000002 C 514.6888500000001,198.20409 514.8659700000002,198.79682000000003 515.0746500000001,199.69999 C 515.3510200000002,200.89603000000002 515.4371400000001,201.49867 515.4791900000001,202.39999 C 515.5211200000001,203.29924 515.5000000000001,204.19999 515.5000000000001,205.1 C 515.5000000000001,205.99999 515.5000000000001,206.89999 515.5000000000001,207.79999999999998 C 515.5000000000001,208.69998999999999 515.5000000000001,209.29999999999998 515.5000000000001,210.49999999999997 C 515.5000000000001,211.39998999999997 515.5000000000001,211.99999999999997 515.5000000000001,213.20015999999998 C 515.5000000000001,214.11066999999997 515.5000000000001,214.736 515.5000000000001,216.06665999999998 C 515.5000000000001,216.78399 515.5000000000001,217.52532 515.5000000000001,218.27467 C 515.5000000000001,219.016 515.5000000000001,220.416 515.5000000000001,221.07466 C 515.5000000000001,221.72534 515.5000000000001,223.06665999999998 515.5000000000001,223.78267 C 515.5000000000001,224.51466 515.5000000000001,225.23865999999998 515.5000000000001,226.56667 C 515.5000000000001,227.38566999999998 515.5000000000001,228.07868 515.5000000000001,229.10018 C 515.5000000000001,229.92084 515.5000000000001,231.06667 515.5000000000001,231.84817999999999 C 515.5000000000001,232.63868 515.5000000000001,233.56667 515.5000000000001,234.47867 C 515.5000000000001,235.42084 515.5000000000001,236.384 515.5000000000001,237.07466 C 515.5000000000001,238.01466 515.5045200000001,239.00018 515.5000000000001,239.78534 C 515.4946300000001,240.71471 515.0397900000002,241.43411 514.6215200000001,242.12151 C 514.1604600000002,242.87914 514.2578700000001,243.85378 513.8526600000001,244.60001 C 513.4393900000001,245.36112 513.5000000000001,246.30001 513.5000000000001,247.2045 C 513.5000000000001,248.06667 513.7281500000001,249.01451 513.1428200000001,249.79466 C 512.5887400000001,250.53312 512.1097400000001,251.05798 511.33334000000013,251.56665999999998 C 510.58889000000016,252.05442 509.5450700000001,252.17188 508.83865000000014,252.47465999999997 C 507.98178000000013,252.84191999999996 507.24933000000016,252.87464999999997 506.26800000000014,252.98399999999998 L 505.3098400000001,253.25266 L 504.6173400000001,253.61598999999998" fill="none" id="svg_13" stroke="#000" stroke-width="2"/>
	<path d="M 489.5,173.89999 C 490.07468,175.572 490.39255,176.44131000000002 490.47467,177.17199 C 490.56857,178.00736 490.70798,179.20335 490.85718,179.8045 C 491.08972,180.74145 491.30924000000005,181.38307999999998 491.60001000000005,182.42149999999998 C 491.8055800000001,183.15561999999997 492.0015900000001,183.92042999999998 492.20002000000005,184.70449 C 492.50242000000003,185.89937999999998 492.68568000000005,186.70355999999998 492.92133000000007,187.48933 C 493.1552500000001,188.26924 493.40915000000007,189.05011 494.04300000000006,190.07883999999999 C 494.47400000000005,190.77835 495.04300000000006,191.41971999999998 495.60901000000007,192.10983 C 495.9033800000001,192.46875 496.80579000000006,193.63945999999999 497.10132000000004,194.07333 C 497.72257,194.98533 498.02396000000005,195.48143 498.33600000000007,195.99333 C 498.9918800000001,197.06935 499.6681500000001,198.23247999999998 500.0211800000001,198.84317 C 500.38419000000005,199.47110999999998 500.7522600000001,200.11658999999997 501.1146600000001,200.78267 C 501.4833100000001,201.46025 501.84562000000005,202.15393 502.19016000000005,202.86616999999998 C 502.53772000000004,203.58462999999998 503.17661000000004,205.06292 503.45685000000003,205.82168 C 503.73804,206.58305 503.98987000000005,207.35911 504.21735,208.14667999999998 C 504.44626,208.93918999999997 504.64991000000003,209.74501999999998 504.83384,210.56166999999996 C 505.0193,211.38505999999995 505.33802000000003,213.06589999999997 505.47849,213.92067999999998 C 505.61936000000003,214.77791999999997 505.74485000000004,215.63438999999997 505.86402000000004,216.48268 C 505.98115,217.3164 506.08866000000006,218.13076999999998 506.19550000000004,218.91868 C 506.29804,219.67477 506.49668,221.06722 506.59983000000005,221.69235 C 506.69556000000006,222.27253000000002 506.89146000000005,223.30896 507.0640000000001,224.21068 C 507.2165300000001,225.00766 507.3938300000001,226.07703999999998 507.4428500000001,226.73836 C 507.5105400000001,227.65203 507.5000100000001,228.73336 507.5000100000001,229.66402 C 507.5000100000001,230.49868999999998 507.4139500000001,231.50748 507.5571700000001,232.24285 C 507.7398800000001,233.18107 508.2836700000001,233.85552 508.4146800000001,234.66802 C 508.5713600000001,235.63964 508.4314300000001,236.57123 508.5208500000001,237.40001 C 508.6347700000001,238.45583000000002 508.9461100000001,239.15581 509.14735000000013,239.95184 C 509.4053500000001,240.97244 509.47831000000014,241.68486000000001 509.49553000000014,242.40985 C 509.5224200000001,243.54271 509.5000200000001,244.21435 509.5000200000001,245.32135 C 509.5000200000001,246.10268 509.5000200000001,247.30002 509.5000200000001,248.10002 C 509.5000200000001,248.90001 509.5000200000001,249.70001 509.5000200000001,250.90001 C 509.5000200000001,251.69869 509.5000200000001,252.48935 509.5000200000001,253.26402000000002 C 509.5000200000001,254.01468000000003 509.5000200000001,255.07852000000003 509.5000200000001,256.06401 C 509.5000200000001,256.68935 509.5059700000001,257.90004 509.4986800000001,258.49867 C 509.4879400000001,259.37935 509.5095100000001,260.23854 509.2133700000001,261.21467 C 508.9387700000001,262.11979 508.34383000000014,262.90864 507.8473400000001,263.50001000000003 C 507.3359900000001,264.10908 506.6338700000001,264.87919000000005 506.1360100000001,265.70002000000005 C 505.7805400000001,266.28611000000006 505.3000100000001,267.30000000000007 505.0000200000001,267.90000000000003 C 504.5000200000001,268.90000000000003 504.1409800000001,269.48133 503.85720000000015,270.35718 C 503.5511700000001,271.30173 503.53207000000015,272.14728 503.4746900000001,272.74668 C 503.3481600000001,274.06818000000004 503.2138000000001,274.78895 503.0747000000001,275.56800000000004 C 502.9229100000001,276.41825000000006 502.8210100000001,276.87247 502.6666800000001,278.40000000000003 C 502.6098300000001,278.96277000000003 502.5571800000001,280.15351000000004 502.5360300000001,280.76533000000006 L 502.5208600000001,281.37919000000005 L 502.50450000000006,282.5848500000001 L 502.5013600000001,283.16267000000005" fill="none" id="svg_14" stroke="#000" stroke-width="2"/>
	<path d="M 396.5,177.89999 C 395.52084,178.96249 395.50067,179.58799 395.5,180.85266000000001 C 395.49969,181.39999 395.5,182.216 395.5,183.44284000000002 C 395.5,184.2955 395.52808,185.30296 395.47916,185.92084000000003 C 395.38797,187.0723 395.14658,187.84796000000003 394.92533,188.63867000000002 C 394.66574999999995,189.56640000000002 394.51043999999996,190.35817000000003 394.50001,191.3 C 394.48999999999995,192.20443 394.57361999999995,193.07177000000001 394.47916999999995,193.89999 C 394.36598,194.89239 393.69987,195.54837 393.52085999999997,196.39999 C 393.33567999999997,197.28099 393.55226,198.2196 393.33335999999997,199.23333 C 393.18528999999995,199.91912 392.87852999999996,200.67487 392.66666999999995,201.73333 C 392.52576999999997,202.43726 392.50226999999995,203.29549 392.50001,204.29999999999998 C 392.49821,205.1 392.50001,206.09983999999997 392.50001,206.87915999999998 C 392.50001,207.87848999999997 392.50001,208.69866 392.50001,209.6 C 392.50001,210.49999 392.50001,211.39999 392.50001,212.31065999999998 C 392.50001,213.22132 392.50001,214.07465 392.50001,215.016 C 392.50001,215.78399 392.50001,216.736 392.50001,217.50132 C 392.50001,218.50449 392.50001,219.35715 392.50001,220.3215 C 392.50001,221.136 392.49778,222.00449999999998 392.50001,222.89998999999997 C 392.50226999999995,223.79550999999998 392.46198999999996,224.67566999999997 392.66666999999995,225.73332999999997 C 392.8070799999999,226.45884999999996 393.12516999999997,227.11946999999998 393.50001,228.06665999999996 C 393.80746999999997,228.84354999999996 394.11066999999997,229.62657999999996 394.37867,230.75716999999995 C 394.55662,231.50792999999996 394.74424,232.40490999999994 395.11066,233.07465999999994 C 395.6435,234.04860999999994 396.25122,234.60411999999994 396.98267,235.10132999999993 C 397.63349,235.54372999999993 398.20556999999997,236.24089999999993 398.55066,237.07465999999994 C 398.89282,237.90134999999995 399.62225,238.33074999999994 400.33334,239.23333999999994 C 400.82418,239.85633999999993 400.96371000000005,240.43937999999994 401.384,241.21732999999995 C 401.93863,242.24396999999993 402.53048,242.91340999999994 402.90451,243.40982999999994 C 403.51602,244.22150999999994 403.90863,244.86783999999994 404.31067,245.58266999999995 C 404.7439,246.35292999999996 405.17972000000003,247.19110999999995 405.66666000000004,248.06665999999996 C 406.17942000000005,248.98863999999995 406.45475000000005,249.45857999999996 407.02085000000005,250.42082999999997 C 407.30945,250.91137999999998 407.9011300000001,251.90144999999995 408.50001000000003,252.89998999999997 C 408.79972000000004,253.39972999999998 409.39500000000004,254.39130999999998 409.68934,254.87865999999997 C 410.26304,255.82859999999997 410.53785,256.28875999999997 411.33335,257.56667999999996 C 411.57682,257.95779 412.03959,258.68039 412.45835,259.33748999999995 C 413.01499,260.21092999999996 413.60578,261.2206699999999 414.00001,261.87917999999996 C 414.3744,262.50451999999996 414.98402,263.29999 415.50001,263.89998999999995 C 416.01599999999996,264.49999999999994 416.73643,265.49947999999995 417.08932999999996,266.06398999999993 C 417.68789999999996,267.0215099999999 418.11425999999994,267.60808999999995 418.52532999999994,268.4999899999999 C 418.89968999999996,269.31227999999993 419.03396999999995,270.3001299999999 419.78533999999996,270.8146599999999 C 420.54330999999996,271.3336999999999 421.63402999999994,270.7534699999999 422.29999,270.9853099999999 C 423.18566999999996,271.2936299999999 423.92089999999996,271.8767899999999 424.83335,271.8999799999999 C 425.77177,271.9238099999999 426.32871,271.8811199999999 427.50001,272.06666999999993 C 428.40769,272.21043999999995 428.99424,272.4256199999999 429.9,272.61598999999995 C 430.79501999999997,272.80412999999993 431.70173,272.85686999999996 432.60001,272.95266 C 433.50208,273.04884999999996 434.39411,273.25826 435.26401,273.47466 C 436.33164,273.74021999999997 437.04944,273.80327 437.89551,273.95266 C 438.90933,274.13167999999996 439.664,274.47466 440.47849,274.7785 L 441.29868000000005,274.89868" fill="none" id="svg_15" stroke="#000" stroke-width="2"/>
	<path d="M 426.5,90.9 C 427.5,89.9 428.04758,89.45386 428.78534,88.98533 C 429.47681,88.5462 430.5,88.9 431.25717000000003,88.9 C 432.32535,88.9 433.01605,88.88997 433.97915,88.9 C 434.9793,88.91042 435.17098,89.58362000000001 435.52084,90.37916 C 435.83398,91.09118 436.49774,91.60449 436.5,92.49999 C 436.50226,93.39999 436.25711,94.33483 436.50449,95.19548999999999 C 436.72519,95.96338999999999 437.55087999999995,96.69734999999999 436.79551,96.89549 C 435.88644999999997,97.13392999999999 435.44468,96.19699 435.00001,95.39998999999999 C 434.55447999999996,94.60146999999999 434.66371,93.64269999999999 434.27867,92.79999 C 433.97288,92.13068999999999 433.5107,91.29999 433.50001,90.39998999999999 L 433.48933,89.51064999999998 L 432.97917,88.92081999999998 L 432.11067,88.88931999999998" fill="none" id="svg_16" stroke="#000" stroke-width="2"/>
	<path d="M 401.5,97.9 C 403.33334,98.06666 403.71524,98.83911 404.60001,98.9 C 405.49787,98.96179000000001 406.29999,98.9 407.20002,98.9 C 408.10001,98.9 409.00001,98.9 409.9,98.9 C 410.79999,98.9 411.8028,98.73448 412.44732999999997,99.25267000000001 C 413.05868999999996,99.7442 413.49774999999994,100.49017 413.49999999999994,99.80000000000001 C 413.50292999999994,98.90001000000001 413.49999999999994,98.10000000000001 413.49999999999994,97.14283000000002 C 413.49999999999994,96.24733000000002 413.49999999999994,95.38400000000001 413.49999999999994,94.42083000000002 C 413.49999999999994,93.59999000000002 413.49999999999994,92.70000000000002 413.49999999999994,91.80000000000003 L 413.49999999999994,90.90000000000002 L 413.49999999999994,90.10000000000002" fill="none" id="svg_17" stroke="#000" stroke-width="2"/>
	<path d="M 408.5,148.89999 C 409.07468,147.3 409.48199,146.50053 409.5,145.6 C 409.51801,144.70016999999999 409.5,143.79999999999998 409.5,142.89999 C 409.5,142.1 409.6633,140.77244 410.37866,141.12133 C 411.16018,141.50249 411.72189000000003,142.16093 412.29999000000004,142.70133 C 412.92472000000004,143.2853 413.50687000000005,144.06254 413.90000000000003,144.72533 C 414.30717000000004,145.41179000000002 414.86619,146.32097000000002 415.66666000000004,146.89998000000003 C 416.28369000000004,147.3463 417.16138,147.90289 417.54816000000005,148.59999000000002 C 417.99393000000003,149.40338000000003 418.26374000000004,150.16705000000002 418.72150000000005,150.99998000000002 C 419.09247000000005,151.67501000000001 419.80445000000003,152.46804000000003 420.60001000000005,152.77848000000003 C 421.44605000000007,153.10862000000003 422.33847000000003,153.10943000000003 423.20002000000005,152.84281000000004 C 424.06617000000006,152.57477000000003 424.27375000000006,151.57264000000004 424.50135000000006,150.70132000000004 C 424.7098500000001,149.90322000000003 425.70002000000005,149.89997000000002 426.60001000000005,149.89997000000002 C 427.50000000000006,149.89997000000002 428.27744000000007,150.02427000000003 429.10001000000005,150.47465000000003 C 429.88041000000004,150.90193000000002 430.79999000000004,150.89997000000002 431.70002000000005,150.89997000000002 C 432.60001000000005,150.89997000000002 433.72398000000004,151.32567000000003 434.33335000000005,150.73331000000002 C 434.86304000000007,150.21839000000003 434.49830000000003,149.06397 434.50001000000003,148.29865 C 434.50227,147.29998 434.48805000000004,146.48171000000002 434.78401,145.50130000000001 C 435.02058,144.71756000000002 435.06807000000003,143.49916000000002 435.78535000000005,142.98531000000003 C 436.45124000000004,142.50827000000004 437.50038000000006,142.87610000000004 438.30000000000007,142.89997000000002 C 439.25847000000005,142.92856000000003 440.1618500000001,143.24728000000002 440.90452000000005,143.60448000000002 C 441.70518000000004,143.98957000000001 442.51808000000005,144.39260000000002 443.10002000000003,144.78531 C 443.92760000000004,145.34380000000002 444.42213000000004,146.00910000000002 445.50001000000003,146.56664 C 446.06358000000006,146.85814000000002 447.01469000000003,146.89864 448.00001000000003,146.89997 C 448.82133000000005,146.90108 449.67872000000006,146.98595 450.61466,146.89864 C 451.51142,146.81499 452.29621000000003,146.24054 452.48932,145.29998 C 452.66626,144.43822 453.27481,143.96337 453.49552,143.19547 C 453.7429,142.33481 453.19526,141.34221 453.51069,140.51064 C 453.78727000000003,139.78148 454.90000000000003,139.89997 455.8,139.89997 C 456.70134,139.89997 457.66667,139.89997 458.34669,139.89997 C 459.18669,139.89997 460.18269000000004,139.89997 460.97917,139.89997 C 462.16667,139.89997 462.95836,139.89997 463.8,139.89997 C 464.70002,139.89997 465.60002000000003,139.89997 466.50001000000003,139.89997 L 467.3,139.89997 L 468.20002,139.89997 L 469.10001,139.89997" fill="none" id="svg_18" stroke="#000" stroke-width="2"/>
</svg>
