<?xml version="1.0" ?>
<svg baseProfile="full" height="480" version="1.1" width="640" xmlns="http://www.w3.org/2000/svg" xmlns:ev="http://www.w3.org/2001/xml-events" xmlns:xlink="http://www.w3.org/1999/xlink">
	<defs/>
	<path d="M 263.0,192.0 C 263.05716,190.3 263.53763,189.54753 264.2955,189.05267 C 264.9909,188.5986 265.40365,187.80702 266.08401,187.28399000000002 C 266.69527999999997,186.81410000000002 267.66958,186.88957000000002 268.08401,186.19866000000002 C 268.56075999999996,185.40386 269.44131,185.11613000000003 270.20000999999996,184.71599 C 271.05837999999994,184.26328 271.92351999999994,184.06511 272.47914999999995,183.47916 C 273.16716999999994,182.7536 273.4354799999999,182.01799 274.39998999999995,181.99999 C 275.29982999999993,181.98319 276.30065999999994,182.18053 276.91597999999993,181.71599 C 277.5992099999999,181.2002 278.29997999999995,180.99999 279.2000099999999,180.99999 C 280.0999999999999,180.99999 280.9999999999999,180.99999 281.7999899999999,180.99999 C 282.7000099999999,180.99999 283.60000999999994,180.99999 284.49999999999994,180.99999 C 285.39998999999995,180.99999 286.2999899999999,180.99999 287.20000999999996,180.99999 C 288.09999999999997,180.99999 288.99999999999994,180.99999 289.79999,180.99999 C 290.70000999999996,180.99999 291.60001,180.99999 292.5,180.99999 C 293.39999,180.99999 294.29999,180.99999 295.20001,180.99999 C 296.1,180.99999 297.0,180.99999 297.79999000000004,180.99999 C 298.70001,180.99999 299.44834000000003,181.24202 300.08402,181.71599 C 300.85285,182.28923 301.79401,182.09558 302.50001000000003,182.49999 C 303.29344000000003,182.95447 304.28114000000005,182.86266 304.94734000000005,183.35264999999998 C 305.63157000000007,183.8559 306.4662000000001,183.86467 307.20003,184.28533 C 307.88658000000004,184.67887 308.45742,185.56107 309.30001000000004,185.94732 C 310.06878000000006,186.29971999999998 310.63717,186.77527999999998 311.40002000000004,187.38932 C 312.14556000000005,187.98945 313.22494000000006,187.74372 313.87869000000006,188.22132 C 314.57779000000005,188.73202999999998 315.2897300000001,188.85121999999998 315.9473500000001,189.35264999999998 C 316.6242000000001,189.86874999999998 317.0931300000001,190.49369 317.7160300000001,191.08398999999997 C 318.4207100000001,191.75181999999998 319.0979000000001,191.81500999999997 319.8901900000001,192.35264999999998 C 320.6260900000001,192.85201999999998 320.9412200000001,193.75939999999997 321.70452000000006,193.99549 C 322.56090000000006,194.26037 323.50939000000005,194.36589999999998 323.9160100000001,195.19998999999999 C 324.2833800000001,195.95358 324.7098000000001,196.63127999999998 325.50002000000006,196.99999 C 326.40627000000006,197.42284 326.92388000000005,198.09398 327.60003000000006,198.56399 C 328.40582000000006,199.12409 329.00207000000006,199.60954999999998 329.70452000000006,200.05266999999998 C 330.47643000000005,200.53958999999998 331.2986700000001,200.97132999999997 332.2000300000001,200.99999999999997 C 333.0993800000001,201.02860999999996 333.7220300000001,201.33750999999998 334.3333600000001,201.99999999999997 C 334.9016600000001,202.61585999999997 335.82256000000007,202.90500999999998 336.6253500000001,202.98932999999997 C 337.6426800000001,203.09618999999998 338.3547500000001,203.19165999999996 339.1053600000001,203.64732999999995 C 339.8059800000001,204.07266999999996 340.8629600000001,203.82600999999997 341.69551000000007,204.05714999999995 C 342.4705600000001,204.27232999999995 343.3167000000001,204.92120999999995 344.0208600000001,204.97915999999995 C 344.9969300000001,205.05949999999996 345.9119700000001,204.68511999999996 346.7571900000001,205.22131999999996 C 347.49385000000007,205.68864999999997 348.18065000000007,205.86934999999997 348.97917000000007,206.02081999999996 C 349.9317500000001,206.20150999999996 350.4740100000001,206.89373999999995 351.2000300000001,207.28398999999996 C 352.05480000000006,207.74344999999997 352.7932300000001,208.09559999999996 353.50002000000006,208.49998999999997 C 354.2971100000001,208.95603999999997 355.34035000000006,208.85636999999997 356.13869000000005,209.03598999999997 C 356.93428000000006,209.21498999999997 357.55080000000004,209.94015999999996 358.30001000000004,210.35265999999996 C 359.13885000000005,210.81449999999995 359.76955000000004,211.01799999999994 360.65270000000004,211.35265999999996 C 361.35830000000004,211.62003999999996 362.40859000000006,211.87389999999996 363.20003,212.28399999999996 C 364.06166,212.73045999999997 364.69908000000004,213.05438999999996 365.50002,213.49999999999997 C 366.29906,213.94454999999996 367.3796,213.75321999999997 367.94735000000003,214.35715999999996 C 368.56850000000003,215.01789999999997 368.77441000000005,215.82312999999996 369.70004,215.99549999999996 C 370.6289,216.16845999999995 371.15393,216.76739999999995 372.02087,216.99999999999997 C 372.82196,217.21493999999998 373.6011,217.64713999999998 374.32135,218.09983999999997 C 374.97961,218.51359999999997 375.98843,218.83997999999997 376.75269,219.05267999999998 C 377.66666,219.30703999999997 378.35486,219.62489999999997 379.36404999999996,219.97467999999998 C 380.20672999999994,220.26674999999997 380.70917,220.91329 381.52088,221.47917999999999 C 382.25464,221.99072999999999 383.18561,221.94174999999998 383.94937999999996,222.42534999999998 C 384.61648999999994,222.84776 385.45984999999996,223.05300999999997 386.05069999999995,223.61067999999997 C 386.74432999999993,224.26533999999998 387.36918,224.67488999999998 388.2428699999999,225.29550999999998 C 388.8104399999999,225.69867999999997 389.76181999999994,225.96031999999997 390.5000399999999,226.52084 C 391.2775999999999,227.11122 391.7383499999999,227.72857 392.4840499999999,228.20001 C 393.1586699999999,228.62651 394.1327899999999,229.17972999999998 394.69553999999994,229.70001 C 395.32093999999995,230.27821 395.96347999999995,231.04129999999998 396.63602999999995,231.60002 C 397.28849999999994,232.14206 397.97409999999996,232.54976 398.9785299999999,232.87868 C 399.78205999999994,233.1418 400.50519999999995,233.51557 401.2000599999999,234.20001 C 401.8045499999999,234.79545 402.3737099999999,235.43156 403.2000599999999,235.91734 C 403.9773699999999,236.37429 404.4432499999999,237.05867 405.0000499999999,237.83334 C 405.4748699999999,238.49397 406.3497799999999,238.76569999999998 407.13871999999986,239.02534 C 407.9973899999999,239.30795 408.65562999999986,239.6694 409.4320499999999,240.08401 C 410.2034099999999,240.49592 410.50995999999986,241.54368 411.3212099999999,242.10002 C 411.9562499999999,242.53552 412.4268299999999,243.20325 413.1666999999999,243.83334 C 413.85001999999986,244.41528 414.5604699999999,244.65365 415.3000299999999,245.29550999999998 C 415.9667199999999,245.87411999999998 416.7906599999999,246.10019999999997 417.5000399999999,246.50000999999997 C 418.3782399999999,246.99496999999997 419.0000399999999,247.50000999999997 419.6106999999999,248.02533999999997 L 420.3893899999999,248.43601999999998 L 420.91602999999986,249.19868" fill="none" id="svg_1" stroke="#000" stroke-width="2"/>
	<path d="M 263.0,188.0 C 262.83334,189.83333 262.22632,190.27007 261.77866,191.10001 C 261.42933,191.74764 261.33313,192.6738 260.97916,193.47917999999999 C 260.66616999999997,194.19125999999997 260.01284999999996,194.70458 260.0,195.60001 C 259.98737,196.47933 259.35266,197.05268 259.00134,197.80133 L 259.0,198.70000000000002 L 258.96399,199.56400000000002 L 258.28400000000005,200.08400000000003" fill="none" id="svg_2" stroke="#000" stroke-width="2"/>
	<path d="M 258.0,201.0 C 256.16666,201.16667 255.72993,201.77367 254.89999,202.22133 C 254.25235,202.57066 253.3766,202.98163 252.6,203.42534 C 251.87596,203.83902 250.79554,203.61607 250.12133,204.2215 C 249.50373,204.77609999999999 249.44268,205.65731 248.69999,206.29550999999998 C 247.94914,206.94072999999997 247.05224,206.91690999999997 246.436,207.61067999999997 C 245.85137,208.26883999999998 244.84931,208.95881999999997 245.06166000000002,209.64734999999996 C 245.30298000000002,210.42984999999996 246.42894,210.37070999999997 247.22150000000002,210.87850999999995 C 247.96825,211.35694999999996 249.00046000000003,210.97292999999996 249.80001000000001,211.00001999999995 C 250.64429,211.02860999999996 251.16668,211.83334999999994 252.00001,212.00001999999995 C 252.83334,212.16668999999996 253.28237000000001,212.95730999999995 254.20001,213.00001999999995 C 255.09904,213.04185999999996 256.00001,213.00001999999995 256.8,213.00001999999995 C 257.70002,213.00001999999995 258.56401,213.03601999999995 259.08403,213.71601999999996 L 259.80134999999996,213.99868999999995" fill="none" id="svg_3" stroke="#000" stroke-width="2"/>
	<path d="M 251.0,209.0 C 253.62534,209.0 254.48399,209.0 255.34734,209.0 L 256.24283,209.0 L 257.20001,209.0 L 258.1,209.0" fill="none" id="svg_4" stroke="#000" stroke-width="2"/>
	<path d="M 259.0,215.0 C 260.564,215.61067 261.04419,216.43616 261.57468,217.02533 C 262.09958,217.60831 262.87146,218.15994 263.0,219.0 C 263.12167,219.79529 263.74252,220.53831 263.96399,221.39999 C 264.1872,222.2684 264.62030000000004,222.7494 265.29468,223.05267 C 266.12546000000003,223.42627000000002 266.52741000000003,224.34573 266.91599,225.19999 C 267.26313000000005,225.96311 267.44816000000003,226.81818 268.02533,227.56399000000002 C 268.50946,228.18954000000002 268.98062,228.80154000000002 269.0,229.69999 C 269.01865,230.56454000000002 269.73016,231.07894000000002 269.97467,231.86132 C 270.2702,232.80700000000002 270.47925,233.64465 270.97467,234.38932 C 271.42084,235.06 271.60147,235.71418 272.03601,236.56399 C 272.39232999999996,237.26081 272.60702,237.93177 273.08533,238.71465999999998 C 273.57614,239.51799999999997 274.12653,240.03188999999998 274.61066,240.60000999999997 C 275.24585,241.34536999999997 275.78983,242.13246999999996 276.08402,242.80000999999996 C 276.42392,243.57129999999995 277.06424,244.34428999999994 277.50001000000003,244.97917999999996 C 278.05592,245.78914999999995 278.91325,246.28549999999996 279.00016000000005,247.10017999999997 C 279.08396000000005,247.88548999999998 279.3202600000001,248.90010999999996 279.80134000000004,249.43066999999996 C 280.50245000000007,250.20388999999997 280.81507000000005,250.73124999999996 281.03602000000006,251.60000999999997 C 281.25532000000004,252.46224999999998 281.6982500000001,253.38081999999997 282.35719000000006,253.94732999999997 C 283.0448400000001,254.53851999999998 283.64824000000004,254.82920999999996 284.05269000000004,255.69999999999996 C 284.43877000000003,256.53128 284.81313000000006,257.35947 285.22151,258.10000999999994 C 285.59346000000005,258.77450999999996 286.50551,259.33462999999995 286.916,260.20001999999994 C 287.27528,260.95746999999994 287.64546,261.7008399999999 288.00001,262.5000099999999 C 288.3553,263.3008499999999 289.00034999999997,263.9996699999999 289.60002,264.6000199999999 C 290.19901999999996,265.1996899999999 290.69807,266.07001999999994 291.10985,266.7000299999999 C 291.57234,267.4076099999999 292.43163,267.8003399999999 293.00002,268.5000199999999 C 293.56896,269.2003699999999 294.22875,269.5376199999999 295.11467,270.2000299999999 C 295.72847,270.6589499999999 296.50551,271.3346399999999 296.916,272.2000299999999 C 297.27528,272.9574799999999 297.78523,273.50391999999994 298.47917,274.0000199999999 C 299.16554,274.4906799999999 299.68138,275.3543299999999 300.35185,275.64283999999986 C 301.3303,276.06385999999986 302.14802000000003,276.36741999999987 302.8,276.71601999999984 C 303.64741000000004,277.1691099999998 304.42576,277.40986999999984 305.09984000000003,278.10001999999986 C 305.66527,278.67893999999984 306.01653000000005,279.66504999999984 306.85069000000004,279.97467999999986 C 307.63655000000006,280.2663699999999 308.14293000000004,280.8311899999999 308.85069000000004,281.39999999999986 C 309.64015000000006,282.0344899999999 310.09727000000004,282.6875699999999 310.80134000000004,283.08401999999984 C 311.61811000000006,283.54391999999984 312.44062,283.73477999999983 313.29551000000004,284.00448999999986 C 314.06287000000003,284.24658999999986 314.14570000000003,285.40475999999984 315.00001000000003,285.8333499999999 C 315.73017000000004,286.1996499999999 316.38713,286.3145199999999 317.16667,286.8333499999999 C 317.87413000000004,287.3042399999999 318.85472,287.01022999999986 319.60002000000003,287.6106599999999 C 320.25423,288.1376999999999 320.77138,288.83254999999986 321.70003,288.9955199999999 C 322.58739,289.1512499999999 323.35555000000005,289.5592399999999 324.32134,289.8786699999999 C 324.97591,290.0951599999999 325.95369,290.2662099999999 326.69552000000004,290.6473499999999 C 327.47683000000006,291.0487799999999 328.30377000000004,291.3531299999999 329.00002000000006,292.0000099999999 C 329.6032900000001,292.56049999999993 330.41256000000004,292.84937999999994 331.30001000000004,293.0044999999999 C 332.22835000000003,293.1667599999999 332.79134000000005,293.7405199999999 333.63601000000006,294.0253399999999 C 334.47613000000007,294.30862999999994 335.31728000000004,294.7623099999999 336.24285000000003,294.9428499999999 C 337.08605000000006,295.1073399999999 338.03579,294.8338399999999 338.80001000000004,295.0853399999999 C 339.72015000000005,295.3881399999999 340.48128,295.9470299999999 341.17467000000005,295.98932999999994 C 342.24098000000004,296.05438999999996 343.05693,296.28970999999996 343.70003,296.64734999999996 C 344.55315,297.12174999999996 345.31035,297.61810999999994 346.20003,297.91468 C 347.05767000000003,298.20054 348.00048000000004,297.97294 348.80001000000004,298.00001 C 349.64431,298.0286 350.15432000000004,298.91627 351.00002000000006,299.00001 C 351.7961000000001,299.07883999999996 352.7000300000001,299.00001 353.60003000000006,299.00001 C 354.50002000000006,299.00001 355.40002000000004,299.00001 356.30001000000004,299.00001 C 357.20003,299.00001 358.10003000000006,299.00001 359.00002000000006,299.00001 C 359.80001000000004,299.00001 360.75719000000004,299.00001 361.65270000000004,299.00001 C 362.34734000000003,299.00001 363.36403,299.00001 364.30001000000004,299.00001 C 365.20003,299.00001 366.10003000000006,299.00001 367.00002000000006,299.00001 C 367.80001000000004,299.00001 368.77013000000005,298.9795 369.65270000000004,298.64734999999996 C 370.35891000000004,298.38156999999995 371.24157,298.02869999999996 372.20003,298.00001 C 373.09944,297.97308999999996 373.68352000000004,297.53779 374.44301,297.12149999999997 C 375.13243,296.74359999999996 376.19985,297.00007 376.97917,297.00001 C 377.97868,296.99992 378.78187,297.01892999999995 379.64818,296.64282999999995 C 380.31774,296.35214999999994 380.84691000000004,295.28583999999995 381.61067,295.01068999999995 C 382.44743000000005,294.70926999999995 383.40001,295.00001 384.3,295.00001 C 385.20002,295.00001 386.23216,295.24424 386.916,294.71601 C 387.5435,294.2313 388.3,294.0001 389.20002999999997,294.00001 C 390.09984,293.99992 390.72905,293.70419999999996 391.22150999999997,292.90018999999995 C 391.60108999999994,292.28047 392.67380999999995,292.33313999999996 393.47916999999995,291.97916999999995 C 394.19127,291.66617999999994 394.50064999999995,290.73326 395.16666999999995,290.16666999999995 C 395.85029,289.58509999999995 396.55240999999995,289.33705 397.29999999999995,288.70450999999997 C 398.05564999999996,288.06514 398.60749999999996,287.51734999999996 399.28534999999994,287.08534 C 400.06015999999994,286.59157 401.0595799999999,286.71504 401.70001999999994,286.35267 C 402.5207899999999,285.88824999999997 402.88080999999994,285.16089999999997 403.52084999999994,284.52085 C 404.1608999999999,283.8808 404.76339999999993,283.54291 405.28534999999994,282.80134 C 405.83545999999996,282.01972 406.72650999999996,281.99100999999996 407.52084999999994,281.47916999999995 C 408.35128999999995,280.94406999999995 408.9791599999999,280.50001 409.75717999999995,279.90000999999995 L 410.0826799999999,279.20002999999997 L 410.5416599999999,278.47916999999995" fill="none" id="svg_5" stroke="#000" stroke-width="2"/>
	<path d="M 309.0,215.0 C 309.0,216.75717 309.0,217.65717 309.0,218.4045 C 309.0,219.39867 309.0,220.34284000000002 309.0,221.25184000000002 C 309.0,221.96934000000002 309.0,223.00535000000002 309.0,223.74934000000002 C 309.0,224.85717000000002 309.0,225.61468000000002 309.0,226.48535 C 309.0,227.40451000000002 308.92136,228.40652 309.03601,229.16402000000002 C 309.18303999999995,230.13544000000002 309.73971,230.79030000000003 310.02533,231.63602000000003 C 310.30911,232.47635000000002 310.56146,233.20734000000004 311.20001,234.11602000000002 C 311.66546,234.77837000000002 312.18927,235.49035 312.6,236.17469000000003 C 313.08718000000005,236.98640000000003 313.69924000000003,237.73396000000002 313.91732,238.48536000000001 C 314.17907,239.38725000000002 314.40105,240.23264 315.02084,240.97920000000002 C 315.4873,241.54106000000002 316.28775,242.21077000000002 316.79867,242.88403000000002 C 317.35116,243.61206 317.61599,244.40193000000002 318.49999,244.97920000000002 C 319.24242000000004,245.46403 319.78386,245.89767000000003 320.30898,246.65269 C 320.79949,247.35792 321.5349,247.99288 322.25066000000004,248.37469000000002 C 322.98696000000007,248.76745000000003 323.88417000000004,249.29757 324.47915000000006,250.00003 C 324.90252000000004,250.49988000000002 325.72091000000006,251.16661000000002 326.29015000000004,251.7527 C 326.92427000000004,252.40562 326.97197000000006,253.44594 327.56932000000006,254.1147 C 328.0873900000001,254.69469 329.09981000000005,255.22133 329.75264000000004,255.70003 C 330.46709000000004,256.22391 331.21169000000003,256.54492 331.97847,257.10004 C 332.73579,257.64829 333.21187000000003,258.44129 334.09999,258.8787 C 334.75441,259.20099999999996 335.60265,259.60801 336.20131,260.20135999999997 C 336.75962999999996,260.75469999999996 337.46540999999996,261.50275 337.99998999999997,261.97918999999996 C 338.80647999999997,262.698 339.65678999999994,262.90551999999997 340.41067,263.44668999999993 C 341.25874999999996,264.0554899999999 341.62404999999995,264.6805499999999 342.17465,265.13870999999995 C 343.07129,265.8847999999999 344.00747,265.93319999999994 344.81433,266.05719999999997 C 345.78353999999996,266.20613 346.51687999999996,266.48029999999994 347.23199,266.80136999999996 C 348.21184999999997,267.24130999999994 348.78878,267.73884 349.63598,268.02536999999995 C 350.47622,268.30954999999994 351.20120000000003,268.57023 352.11465000000004,269.19870999999995 C 352.82052000000004,269.68436999999994 353.63656000000003,269.96799999999996 354.48400000000004,270.0013799999999 C 355.34844000000004,270.03543999999994 356.16991,270.49380999999994 356.99999,270.8333799999999 C 357.7167,271.1265599999999 358.78347,270.6341599999999 359.66665,271.1666899999999 C 360.3803,271.59701999999993 360.88665000000003,271.9993599999999 361.82534,272.0000299999999 C 362.83333999999996,272.0007599999999 363.69549,272.0000299999999 364.49998999999997,272.0000299999999 C 365.39997999999997,272.0000299999999 366.29997999999995,272.0000299999999 367.2,272.0000299999999 C 368.09999,272.0000299999999 368.99998999999997,272.0000299999999 369.88533,272.0000299999999 C 370.82533,272.0000299999999 371.51598,272.0000299999999 372.58931,272.0000299999999 C 373.39998,272.0000299999999 374.30449,272.0000299999999 375.3213,272.0000299999999 C 375.99998,272.0000299999999 376.97847,272.0000299999999 377.79866,272.0000299999999 C 378.7,272.0000299999999 379.59999,272.0000299999999 380.52083,272.0000299999999 C 381.484,272.0000299999999 382.17464,272.0000299999999 383.24280999999996,272.0000299999999 C 384.10013999999995,272.0000299999999 384.88532999999995,272.0000299999999 385.82532999999995,272.0000299999999 C 386.83332999999993,272.0000299999999 387.69548,272.0000299999999 388.49997999999994,272.0000299999999 C 389.39996999999994,272.0000299999999 390.2999699999999,272.0001199999999 391.19998999999996,272.0000299999999 C 392.09997999999996,271.9999399999999 392.95374,271.75789999999995 393.69998999999996,271.35268999999994 C 394.46109999999993,270.9394199999999 395.35220999999996,270.9444899999999 396.02530999999993,270.4253499999999 C 396.61679999999996,269.9691399999999 397.6526599999999,270.0000299999999 398.34729999999996,270.0000299999999 C 399.36398999999994,270.0000299999999 400.30469999999997,270.09090999999995 401.19998999999996,269.9986899999999 C 402.01257999999996,269.9150099999999 402.65437,269.2080699999999 403.49997999999994,269.0208799999999 C 404.45685999999995,268.80905999999993 405.02530999999993,268.4253599999999 405.71597999999994,267.91601999999995 L 406.16662999999994,267.16668999999996 L 406.99996999999996,266.83338 L 407.69998,266.35269999999997" fill="none" id="svg_6" stroke="#000" stroke-width="2"/>
	<path d="M 425.0,261.0 C 427.08267,261.80133 427.49036,262.61346 428.48401,262.91599 C 429.15292,263.11966 430.14667000000003,263.24543 430.79868,263.80134000000004 C 431.45597,264.36176000000006 432.32797999999997,265.01234000000005 433.00534999999996,265.3 C 433.74371999999994,265.61357000000004 434.68537,265.97014 435.33865999999995,266.40001 C 436.19287999999995,266.96208 436.81089,267.45631000000003 437.60131999999993,267.71468 C 438.57183999999995,268.03191 439.3829399999999,267.95198 440.2428299999999,268.35267999999996 C 441.1544199999999,268.77745 441.7655699999999,269.14802999999995 442.63598999999994,269.57469999999995 C 443.4574599999999,269.9773799999999 444.21075999999994,269.98229 445.20016999999996,270.00017999999994 C 446.02097,270.01500999999996 447.17022999999995,270.1522499999999 447.94818999999995,270.35268999999994 C 448.48178999999993,270.4901699999999 449.65790999999996,270.89574999999996 450.47916999999995,270.97918999999996 C 451.31726999999995,271.06433 452.20862999999997,270.93134 453.11734999999993,271.28403 C 453.84640999999993,271.56699 454.76773999999995,271.93769 455.52084999999994,271.97918999999996 C 456.31634999999994,272.02300999999994 457.3193099999999,271.93951999999996 458.18933999999996,272.03603999999996 C 459.21043,272.14931999999993 459.95190999999994,272.58074999999997 460.83334999999994,272.83336999999995 C 461.64331999999996,273.06551999999994 462.54284999999993,273.0000299999999 463.26132999999993,273.0000299999999 C 464.05182999999994,273.0000299999999 465.3146699999999,273.0000299999999 465.9791599999999,273.0000299999999 C 466.99999999999994,273.0000299999999 467.8162299999999,272.9617599999999 468.68533999999994,273.0853599999999 C 469.69497999999993,273.22894999999994 470.52218999999997,273.5166299999999 471.1044999999999,273.7045299999999 C 472.3031699999999,274.0913099999999 472.9055899999999,274.31121999999993 473.8720199999999,274.6000399999999 C 474.5683099999999,274.80810999999994 475.7421099999999,275.1038499999999 476.1706699999999,275.1986999999999 C 477.07017999999994,275.3977999999999 478.0200999999999,275.5721099999999 478.5090199999999,275.6428499999999 C 479.9966599999999,275.8580599999999 480.9997699999999,275.9197099999999 481.5000199999999,275.9428699999999 C 482.4995899999999,275.9891699999999 482.9999899999999,275.9935599999999 484.0000199999999,275.9986899999999 C 485.4998399999999,276.0063499999999 485.99867999999987,276.0000299999999 486.9893399999999,276.0000299999999 C 487.47917999999993,276.0000299999999 488.44285999999994,275.9989599999999 489.8333599999999,276.0000299999999 C 490.71467999999993,276.00069999999994 491.5644999999999,275.9982599999999 492.3893599999999,276.0360399999999 C 493.1993299999999,276.0731499999999 494.4010799999999,276.2162799999999 494.8013499999999,276.2853699999999 C 495.6125699999999,276.42541999999986 496.4359299999999,276.6110799999999 497.2853599999999,276.8013599999999 C 498.6213899999999,277.10064999999986 499.08485999999994,277.20238999999987 500.0360299999999,277.40001999999987 C 501.0102099999999,277.6024399999999 501.5043799999999,277.70061999999984 503.00001999999995,278.00002999999987 C 503.49965,278.10003999999986 504.4901899999999,278.2998299999999 505.45835999999997,278.47918999999985 C 505.92762999999997,278.5661299999999 506.82601,278.74212999999986 508.05701999999997,278.8785399999999 C 508.78407,278.9591099999999 509.77863999999994,278.9946899999999 511.00001,279.00002999999987 C 511.59733,279.00264999999985 512.45832,279.00002999999987 513.22932,279.00002999999987 C 514.34932,279.00002999999987 515.3333200000001,279.00002999999987 516.00984,279.00002999999987 C 516.7853500000001,279.00002999999987 518.0793600000001,278.97487999999987 518.76399,279.01070999999985 C 519.6009,279.05449999999985 520.59364,279.37059999999985 521.2000300000001,279.57470999999987 C 522.1903900000001,279.90807999999987 522.9790200000001,279.9895999999999 523.9786600000001,280.00002999999987 C 524.8839300000001,280.0094599999999 525.8253400000001,280.00002999999987 526.51601,280.00002999999987 L 527.58937,280.00002999999987 L 528.50001,280.00002999999987" fill="none" id="svg_7" stroke="#000" stroke-width="2"/>
	<path d="M 411.0,280.0 C 413.78934,280.02133 414.5795,280.09174 415.25183,280.70984 C 415.87802,281.28551999999996 416.52124,282.02191 417.25066999999996,282.35332999999997 C 417.97601,282.68289 419.08474999999993,282.75753999999995 419.99999999999994,283.16664999999995 C 420.61718999999994,283.4425299999999 421.49508999999995,284.17540999999994 422.05465999999996,284.4839999999999 C 422.69186999999994,284.8354099999999 423.39101999999997,285.1853899999999 424.11866,285.5159799999999 C 425.17152,285.9943099999999 426.16904,286.3624499999999 426.78934,286.6253199999999 C 428.01038,287.1428099999999 428.60443,287.4799599999999 429.21067,287.8359799999999 C 429.83927,288.2051199999999 430.47648,288.6169199999999 431.52119,289.1996599999999 C 432.24223,289.6018499999999 432.96736,289.9852699999999 433.69016999999997,290.2856599999999 C 434.93839999999994,290.8044299999999 435.73456999999996,290.9034899999999 436.59734,291.0826599999999 C 437.40885999999995,291.2511799999999 438.22139,291.63465999999994 439.16668,291.83332999999993 C 439.94827,291.99760999999995 440.81701,291.97962999999993 442.00002,292.1666399999999 C 442.60415,292.2621299999999 443.502,292.5144199999999 444.10003,292.70447999999993 C 445.30401,293.0871399999999 446.1917,293.3933799999999 446.76403,293.59998999999993 C 447.83790999999997,293.9876499999999 448.53249,294.3365299999999 449.22535999999997,294.56397999999996 C 450.40022999999997,294.94962999999996 451.22072,294.92848 451.99019,295.05265999999995 C 453.04404999999997,295.2226999999999 453.62599,295.65867999999995 454.54285999999996,296.09998999999993 C 455.2444,296.4376699999999 456.05756999999994,296.6855299999999 457.07849999999996,297.09980999999993 C 457.76804,297.3796299999999 458.59149999999994,297.74546999999995 459.40135,297.91730999999993 C 460.2299,298.09311999999994 461.17967,298.30713999999995 461.94818999999995,298.7052999999999 C 462.75320999999997,299.1223499999999 463.65335999999996,299.7021299999999 464.33865999999995,299.9386399999999 C 465.3055499999999,300.2723199999999 466.0292999999999,300.5411799999999 466.68667999999997,300.7159799999999 C 467.66943999999995,300.9772999999999 468.49981999999994,300.9884399999999 469.31600999999995,300.9986299999999 C 470.54723999999993,301.01400999999987 471.22533999999996,300.9999699999999 472.1666599999999,300.9999699999999 C 472.95715999999993,300.9999699999999 473.8106699999999,300.9999699999999 474.99999999999994,300.9999699999999 C 475.60000999999994,300.9999699999999 476.49999999999994,300.9999699999999 477.39998999999995,300.9999699999999 C 478.29997999999995,300.9999699999999 479.20000999999996,300.9999699999999 480.09999999999997,300.9999699999999 C 480.99998999999997,300.9999699999999 481.89549999999997,300.9999699999999 482.76399999999995,300.9999699999999 C 483.83333999999996,300.9999699999999 484.55156999999997,300.9548699999999 485.45266,301.0571299999999 C 486.42904,301.16793999999993 487.23116,301.4450999999999 488.10447999999997,301.6473099999999 C 488.99553,301.85363999999987 489.89928,301.9590499999999 490.79997999999995,301.98928999999987 C 491.39970999999997,302.0094299999999 492.59865999999994,301.99996999999985 493.47914999999995,301.99996999999985 C 494.04283999999996,301.99996999999985 495.316,301.99996999999985 495.99998999999997,301.99996999999985 C 497.16664999999995,301.99996999999985 497.95266,301.99996999999985 498.77464999999995,301.99996999999985 C 499.83333999999996,301.99996999999985 500.53831999999994,301.99996999999985 501.33833999999996,301.99996999999985 C 502.37465999999995,301.99996999999985 503.32165,301.99996999999985 504.04164999999995,301.99996999999985 C 505.16664999999995,301.99996999999985 505.95714999999996,301.99996999999985 506.8106599999999,301.99996999999985 C 507.4013299999999,301.99996999999985 508.5986499999999,301.99996999999985 509.47914999999995,301.99996999999985 C 510.04283999999996,301.99996999999985 511.31465999999995,301.99996999999985 511.97914999999995,301.99996999999985 C 512.9999899999999,301.99996999999985 513.7999799999999,301.99996999999985 514.59997,301.99996999999985 C 515.59551,301.99996999999985 516.51464,301.99996999999985 517.38531,301.99996999999985 C 518.33331,301.99996999999985 519.25067,301.99996999999985 519.99469,301.99996999999985 C 521.02936,301.99996999999985 522.0,301.99996999999985 522.79999,301.99996999999985 C 523.70001,301.99996999999985 524.68378,302.35427999999985 525.47919,301.9791299999998 C 526.18451,301.6464899999998 526.29761,300.4448899999998 525.98932,299.61062999999984 C 525.7135000000001,298.86425999999983 524.62634,298.69799999999987 524.12134,297.9001499999998 C 523.63428,297.13064999999983 522.8987400000001,297.0477599999998 522.0,296.99996999999985 C 521.19659,296.9572499999999 520.43634,296.34969999999987 519.79865,295.80129999999986 C 519.14905,295.24267999999984 518.1645599999999,295.01915999999983 517.39869,295.0013099999999 C 516.40028,294.9780299999999 515.59998,294.99996999999985 514.5987,294.99996999999985 C 513.7639800000001,294.99996999999985 512.83332,294.99996999999985 512.04285,294.99996999999985 C 511.18933000000004,294.99996999999985 510.59867,294.99996999999985 509.40000000000003,294.99996999999985 C 508.50001000000003,294.99996999999985 507.90000000000003,294.99996999999985 506.70002000000005,294.99996999999985 C 505.80000000000007,294.99996999999985 505.20002000000005,294.99996999999985 504.00001000000003,294.99996999999985 C 503.0955,294.99996999999985 502.47917,294.99996999999985 501.51469000000003,294.99996999999985 C 500.47868000000005,294.99996999999985 499.74736,294.99996999999985 499.00001000000003,294.99996999999985 C 497.88401000000005,294.99996999999985 496.82151000000005,294.99996999999985 496.15718000000004,294.99996999999985 C 495.21068,294.99996999999985 494.60133,294.99996999999985 493.40269000000006,294.99996999999985 C 492.54167000000007,294.99996999999985 491.77067000000005,294.99996999999985 490.67201000000006,294.99996999999985 L 489.7000300000001,294.99996999999985" fill="none" id="svg_8" stroke="#000" stroke-width="2"/>
	<path d="M 517.0,279.0 C 517.0,280.79999 517.00055,281.70001 517.0,282.52084 C 516.99933,283.48401 517.23175,284.29614000000004 516.64282,285.23834 C 516.17859,285.98111 515.1657700000001,285.88027999999997 514.52081,286.52084 C 513.87695,287.16034 513.42749,287.91299000000004 512.74267,288.02533 C 511.57748,288.21643 511.03697999999997,288.35248 510.15331,288.61066 C 509.51232,288.79795 508.48195,289.11194 507.38534,289.38935 C 506.66332,289.572 505.97631,289.76234 504.76934,289.91468 C 504.02398,290.00876999999997 503.31731,289.99866 502.04284,290.00001 L 501.47915,290.00001 L 500.59866,290.00001" fill="none" id="svg_9" stroke="#000" stroke-width="2"/>
	<path d="M 528.0,280.0 C 528.87866,281.22134 529.61023,281.73788 529.96399,282.436 C 530.3548599999999,283.20732999999996 530.0,284.20000999999996 530.0,285.09999999999997 C 530.0,285.99998999999997 530.04333,286.90783 529.4375,287.49998999999997 C 528.78046,288.14219999999995 527.73865,288.39997999999997 527.21466,288.59999999999997 C 526.16669,288.99998999999997 525.46735,289.35378 524.49017,289.64282 C 523.67962,289.88257 522.6771200000001,289.95358 521.91668,289.97914999999995 C 521.07696,290.00737999999996 520.6266400000001,289.99931999999995 519.1568500000001,289.99998999999997 C 518.6279800000001,290.00023 517.51732,289.99998999999997 516.93749,289.99998999999997 C 515.73382,289.99998999999997 515.11199,289.99998999999997 513.8333,289.99998999999997 C 513.179,289.99998999999997 512.51866,289.99998999999997 511.196,289.99998999999997 C 510.54164000000003,289.99998999999997 509.89732000000004,289.99998999999997 509.26698000000005,289.99998999999997 C 507.49998000000005,289.99998999999997 506.96409000000006,289.99361 505.96248,290.00447999999994 C 505.02074000000005,290.01469999999995 504.55885,290.01805999999993 503.63332,290.08531999999997 C 502.15496,290.19273999999996 501.63198,290.28398999999996 500.54934000000003,290.42531999999994 L 499.99999,290.49999999999994 L 498.90532,290.64733999999993 L 498.368,290.71599999999995" fill="none" id="svg_11" stroke="#000" stroke-width="2"/>
	<path d="M 267.0,193.0 C 267.0,194.8 266.60663,195.81339 267.03601,196.564 C 267.43109,197.25463 268.76867999999996,197.05816 268.99550999999997,196.29550999999998 C 269.25082,195.43715999999998 268.99999999999994,194.50000999999997 268.99999999999994,193.60000999999997 C 268.99999999999994,192.69999999999996 268.84929999999997,191.78727999999998 269.00014999999996,190.90016999999997 C 269.14485999999994,190.04907999999998 270.09999999999997,190.00000999999997 270.99999999999994,190.00000999999997 C 271.7999899999999,190.00000999999997 272.85937999999993,189.52957999999998 273.6428199999999,190.05716999999999 C 274.3270199999999,190.51791999999998 274.0103999999999,191.70006999999998 273.99999999999994,192.60001999999997 C 273.9895599999999,193.50019999999998 273.57869999999997,194.25887999999998 273.1213399999999,195.09984999999998 C 272.7148199999999,195.84732999999997 272.1857299999999,196.33110999999997 271.77865999999995,197.10001999999997 C 271.37762999999995,197.85753999999997 271.00714999999997,198.81569999999996 270.19866999999994,198.99868999999998 C 269.32213999999993,199.19706999999997 268.3999599999999,199.00542 267.49999999999994,199.00001999999998 C 266.6105999999999,198.99468 265.8861099999999,198.61059999999998 265.35265999999996,197.94734999999997 C 264.88948999999997,197.37150999999997 264.99999999999994,196.40001999999998 264.99999999999994,195.50001999999998 L 264.99999999999994,194.60002999999998 L 265.0106799999999,193.61069999999998" fill="none" id="svg_12" stroke="#000" stroke-width="2"/>
	<path d="M 257.0,200.0 C 258.564,200.61067 258.83109,201.47603 259.36166,202.3045 C 259.78389999999996,202.96382 260.48397,203.48399999999998 261.17465,204.17466 C 261.83333999999996,204.83334 262.3966,205.36688999999998 262.88399999999996,205.96931999999998 C 263.51180999999997,206.74531 264.01769999999993,207.47758 264.43065999999993,208.23198 C 264.93895999999995,209.16055 265.22786999999994,209.96463 265.5746699999999,210.63599 C 265.9936199999999,211.44704 266.1358899999999,212.23167999999998 266.6473299999999,213.04816 C 267.0687799999999,213.72098 266.9999899999999,214.65715 266.9999899999999,215.40448 L 266.9986499999999,216.39732 L 266.9428299999999,217.28564" fill="none" id="svg_13" stroke="#000" stroke-width="2"/>
	<path d="M 325.0,291.0 C 326.0,292.0 326.44608,292.54761 326.91467,293.28534 C 327.35379,293.97662 327.5484,294.66931 327.94284,295.35718 C 328.41269,296.17658 328.0,297.20001 328.0,298.10001000000005 C 328.0,299.00000000000006 328.44614,299.54758000000004 328.91467,300.2853400000001 C 329.35379,300.97681000000006 329.0,302.00000000000006 329.0,302.7999900000001 C 329.0,303.7000100000001 329.31451,304.3871200000001 329.83334,305.1666600000001 C 330.30423,305.8741200000001 330.08532,306.7999900000001 330.52084,307.4791600000001 L 331.39999,307.9746700000001 L 332.20001,308.2840000000001" fill="none" id="svg_14" stroke="#000" stroke-width="2"/>
	<path d="M 337.0,295.0 C 335.83334,296.0 335.25305,296.5372 335.03601,297.39999 C 334.81627999999995,298.27349 335.0,299.20001 335.0,300.1 C 335.0,300.99999 335.0,301.79998 335.0,302.70001 C 335.0,303.6 335.0,304.5 335.0,305.39999 C 335.0,306.29998 334.99866,307.20001 334.77866,308.1 L 334.284,308.79998 L 333.97467,309.6" fill="none" id="svg_15" stroke="#000" stroke-width="2"/>
	<path d="M 328.0,307.0 C 328.87851,308.2215 329.0,309.10001 329.0,310.0 C 329.0,310.79999 328.90039,311.6882 328.19867,312.08401 C 327.38223,312.54452 326.55866,312.88385 325.79999,313.28398999999996 C 324.94162,313.73671999999993 324.29999,314.05267 323.5,314.49998999999997 C 322.70001,314.94732 321.86163,315.38606999999996 321.20001,315.71599 C 320.35663,316.13655 319.39999,315.99998999999997 318.5,315.99998999999997 C 317.60001,315.99998999999997 316.70001,315.99998999999997 315.79999,315.99998999999997 C 314.9,315.99998999999997 313.99960999999996,315.97463 313.20000999999996,315.99998999999997 C 312.29860999999994,316.02858 311.47641,316.46040999999997 310.70449999999994,316.94732 C 310.0020799999999,317.3904 309.4492199999999,317.94018 308.70000999999996,318.35265 C 307.86136,318.81437999999997 306.82946999999996,318.67687 306.28533999999996,319.17064 C 305.63582999999994,319.76003 305.53808999999995,320.71711999999997 304.90032999999994,321.22132999999997 C 304.21590999999995,321.76243999999997 305.24355999999995,322.11954999999995 305.88534999999996,321.82932999999997 C 306.73749,321.44395 307.28713999999997,320.6067 308.11465999999996,320.16932999999995 C 308.95187999999996,319.72682999999995 309.81820999999997,319.55183999999997 310.56399999999996,318.97466 C 311.18954999999994,318.49053 311.67121,317.71702999999997 312.22135,317.12132999999994 C 312.80958,316.48439999999994 313.43546,316.0179999999999 314.29999,315.99998999999997 C 315.19982999999996,315.98125 316.10001,315.99998999999997 317.0,315.99998999999997 C 317.79999,315.99998999999997 318.75717,315.99998999999997 319.65268,315.99998999999997 L 320.51599,315.99998999999997 L 321.47916,315.99998999999997" fill="none" id="svg_16" stroke="#000" stroke-width="2"/>
	<path d="M 325.0,316.0 C 326.79999,316.0 327.63599,316.0 328.48401,316.0 C 329.34732,316.0 330.36401,316.0 331.29999000000004,316.0 C 332.20001,316.0 333.10001000000005,316.0 334.00000000000006,316.0 C 334.79999000000004,316.0 335.70004000000006,315.99408 336.60001000000005,316.0 C 337.41074000000003,316.00534 338.36280000000005,316.14316 338.97916000000004,316.52084 C 339.90876000000003,317.09045000000003 340.32856000000004,318.00628 340.85068,318.39999 C 341.65937,319.00979 342.28598,319.48718 342.87866,320.22149 C 343.39999,320.86743 343.66,321.7481 344.29999000000004,322.2955 C 345.05225,322.93893 346.43604000000005,323.37897 346.63068000000004,322.71466 C 346.87027000000006,321.89694 345.87824000000006,321.14029 345.13868,320.60001 C 344.51826,320.14676 343.56321,319.65549 343.12135,318.90018 C 342.69172000000003,318.1658 341.72047000000003,318.32315 341.12135,317.77851 C 340.42357,317.14417 340.35185,316.23807 339.60002000000003,315.61066 C 338.94435000000004,315.06347999999997 337.96519,315.16327 337.20003,314.91468 C 336.40911,314.65772 335.51601000000005,314.08533 334.82537,314.01068999999995 L 333.75719000000004,314.00001" fill="none" id="svg_17" stroke="#000" stroke-width="2"/>
	<path d="M 333.0,308.0 C 333.0,309.79999 332.84293,310.71976 333.02084,311.5 C 333.24023,312.46201 333.53686000000005,313.39587 334.28534,313.91467 C 334.95856000000003,314.38131 336.0,314.0 336.88535,314.0 C 337.82535,314.0 338.516,314.0 339.58933,314.0 C 340.40000000000003,314.0 341.29999000000004,314.0 342.20002,314.0 C 343.10001,314.0 344.00086,313.9628 344.8,314.0 C 345.71766,314.04272 346.21525,314.93912 347.10002000000003,315.0 C 347.99788,315.0618 348.81288,315.17102 349.00001000000003,316.0 C 349.19947,316.8837 349.35990000000004,317.16104 348.50001000000003,316.97916 C 347.65269,316.79992999999996 346.90000000000003,316.12149 346.00001000000003,316.0 L 345.16667,315.83334 L 344.71467,315.08401000000003" fill="none" id="svg_18" stroke="#000" stroke-width="2"/>
	<path d="M 337.0,299.0 C 337.0,300.82535 337.0,301.83334 337.0,302.6955 C 337.0,303.60001 336.87988,304.39414 336.42532,305.02533 C 335.9758,305.64954 337.00039,305.97464 337.79998,306.0 C 338.70138000000003,306.02859 339.33651000000003,306.54858 340.20132,306.91599 C 341.11926,307.30597 341.96527000000003,307.25702 342.66665,308.0 C 343.23431,308.60132 343.85558000000003,309.00977 344.6,309.61066 C 345.25369,310.13833999999997 345.99999,310.83335 346.70001,311.05268 L 347.5,311.50001000000003" fill="none" id="svg_19" stroke="#000" stroke-width="2"/>
	<path d="M 318.0,220.0 C 318.0,221.75717 318.0,222.65717 318.0,223.4045 C 318.0,224.4 318.0,225.20000000000002 318.0,226.20000000000002 C 318.0,227.00000000000003 317.96814,228.00106000000002 318.01068,228.80001000000001 C 318.05339999999995,229.60235 318.38876,230.58762000000002 318.64734,231.4 C 318.96188,232.38825 318.9281,233.05025 319.33333999999996,234.16668 C 319.52754999999996,234.70170000000002 320.02452999999997,235.51188000000002 320.40898999999996,236.04734000000002 C 321.16704999999996,237.10314000000002 321.80485999999996,237.77039000000002 322.20000999999996,238.22533 C 323.01009999999997,239.15799 323.40115,239.68547 323.81066999999996,240.23600000000002 C 324.45687999999996,241.10473000000002 325.15585,242.00956000000002 325.68532999999996,242.59867000000003 C 326.22515999999996,243.19927 326.79817999999995,243.77770000000004 327.40133,244.31467000000004 C 328.28222,245.09893000000002 328.8952,245.54952000000003 329.49998999999997,245.97918000000004 C 330.09535999999997,246.40212000000005 331.00786,246.98850000000004 331.89549999999997,247.60452000000004 C 332.48449,248.01327000000003 333.08000999999996,248.41784000000004 333.83333999999996,249.16668000000004 C 334.58642,249.91529000000006 334.98742,250.51066000000003 335.45266,251.04734000000005 C 336.14822,251.84969000000004 336.94872,252.55395000000004 337.52083999999996,252.97918000000004 C 338.09621999999996,253.40684000000005 338.99841,254.00239000000005 339.89549999999997,254.59551000000005 C 340.47814,254.98072000000005 341.03441999999995,255.35677000000004 342.07847999999996,255.97867000000005 C 342.75863,256.38382000000007 343.41889999999995,256.72147000000007 344.39997999999997,257.48267000000004 C 345.01527999999996,257.96009000000004 345.54380999999995,258.58316 346.59999,258.88569000000007 C 347.37568999999996,259.1078600000001 348.40294,258.97193000000004 349.02083,259.02085000000005 C 350.17229,259.11204000000004 350.95931,259.34992000000005 351.52083,259.52085000000005 C 352.40486,259.78995000000003 353.59691,260.20866000000007 354.2,260.38935000000004 C 355.09566,260.65772000000004 355.99773,260.85310000000004 356.9135,260.94733 C 357.56121,261.01398 358.27333,261.0344 359.49999,261.16666000000004 C 360.45632,261.26978 360.96682000000004,261.35392 362.04165,261.50000000000006 C 362.59591,261.57532000000003 363.717,261.73273000000006 364.83334,261.8333400000001 C 365.91598000000005,261.93090000000007 366.45184,261.9428400000001 367.52084,261.97915000000006 L 368.06134000000003,261.98931000000005 L 369.16934000000003,261.99865000000005" fill="none" id="svg_21" stroke="#000" stroke-width="2"/>
</svg>
