<?xml version="1.0" ?>
<svg baseProfile="full" height="480" version="1.1" width="640" xmlns="http://www.w3.org/2000/svg" xmlns:ev="http://www.w3.org/2001/xml-events" xmlns:xlink="http://www.w3.org/1999/xlink">
	<defs/>
	<path d="M 250.0,217.0 C 247.66667,229.66667 247.36095,231.08511 247.03334,232.528 C 246.70265,233.98447 246.36101000000002,235.43758 246.02083000000002,236.875 C 245.68764000000002,238.2829 245.35976000000002,239.64569 245.05333000000002,240.952 C 244.495,243.33216 244.25765,244.38468 244.05867,245.35601 C 243.87381000000002,246.25849 243.71797,247.11303 243.60417,247.93751 C 243.49286,248.74388 243.41087000000002,249.55425 243.37466,250.38401 C 243.2969,252.16546 243.33673000000002,253.14999999999998 243.36933000000002,254.19200999999998 C 243.40345000000002,255.28239 243.45925000000003,256.40945999999997 243.52082000000001,257.56251 C 243.58321,258.73078 243.65473,259.90268999999995 243.71732,261.068 C 243.83896000000001,263.33304999999996 243.87717,264.4156 243.92266,265.47067999999996 C 243.96754,266.51194 244.01675,267.55288999999993 244.10416,268.60416 C 244.19381,269.68235 244.31292000000002,270.80057 244.51065,271.96268 C 244.94412,274.51013 245.31566,275.89524 245.70798,277.35468 C 246.11616999999998,278.87314 246.57643,280.41965 247.06249,281.97916 C 247.54845,283.53839 248.04987,285.07074 248.55199,286.55866 C 249.48953999999998,289.33689 249.92989,290.58709999999996 250.34931999999998,291.74534 C 250.74065,292.82597 251.12229999999997,293.83451 251.52080999999998,294.77085 C 251.90027999999998,295.66242 252.29064999999997,296.51121 252.73731999999998,297.30134 C 253.61910999999998,298.86122 254.17454999999998,299.58714 254.73998999999998,300.31468 C 255.31286999999998,301.05177000000003 255.92791999999997,301.76881000000003 256.56248,302.47917 C 257.20124,303.1942 257.86084999999997,303.89549 258.51997,304.59868 C 259.83339,305.99996 260.47841,306.7021 261.12797,307.40401 C 261.78608,308.11513 262.4633,308.83931 263.18748,309.56252 C 263.94172,310.31572 264.75129,311.0898 265.65199,311.85601 C 267.63258,313.54089000000005 268.8062,314.37344 270.03999,315.24801 C 271.31935,316.15487 272.64985,317.04928 273.99998,317.93752 C 275.34324,318.82125 276.6724,319.67193000000003 277.95997,320.49202 C 280.33167,322.00264000000004 281.38294,322.67708000000005 282.36265,323.28535000000005 C 283.27857,323.8540100000001 284.15858,324.3805300000001 285.04164,324.83335000000005 C 285.91637,325.28190000000006 286.82869,325.6934600000001 287.81064999999995,326.02134000000007 C 289.97559999999993,326.74424000000005 291.25361,326.9749800000001 292.61731999999995,327.2240100000001 C 294.06001,327.4874700000001 295.57672999999994,327.7018800000001 297.14581999999996,327.8750100000001 C 298.74618999999996,328.0515800000001 300.36679999999996,328.1894000000001 301.98929999999996,328.2560200000001 C 305.16489999999993,328.3863900000001 306.69184999999993,328.3308200000001 308.16263999999995,328.2600200000001 C 309.57899,328.1918400000001 310.9358,328.0778600000001 312.22914,327.9375100000001 C 313.45984999999996,327.8039700000001 314.62129,327.64677000000006 315.71065,327.4800200000001 C 317.66877999999997,327.1803100000001 318.52858,327.02384000000006 319.31865,326.8840100000001 C 320.04759,326.7549800000001 320.72334,326.6288800000001 321.35414,326.5000100000001 C 321.95133999999996,326.3780000000001 322.52254,326.25297000000006 323.07466,326.1160100000001 C 324.16945,325.8444300000001 324.72188,325.6806200000001 325.28398,325.5160000000001 C 325.85321999999996,325.3492800000001 326.42530999999997,325.1746600000001 326.99998,325.0000100000001 L 327.57466,324.8253600000001 L 328.14732,324.6526900000001 L 328.71598,324.4840200000001" fill="none" id="svg_1" stroke="#000" stroke-width="2"/>
	<path d="M 254.0,223.0 C 250.26466,217.064 249.83971,216.27103 249.58333,215.5 C 249.33492999999999,214.75294 249.15256,213.5011 249.08533,212.548 C 249.04967,212.04248 249.01815,211.00004 249.01067,210.47599 C 248.99607,209.45204999999999 249.0,208.06432 249.0,207.26699 C 249.0,206.54165999999998 249.0,205.85632999999999 249.0,204.83332 C 249.0,203.76532999999998 249.0,203.08332 249.0,202.22531999999998 C 249.0,200.99998999999997 249.0,200.18399999999997 249.0,199.49998999999997 C 249.0,198.81597999999997 249.00395,197.66978999999998 249.0,197.33331999999996 C 248.991,196.56666999999996 248.97049,195.88369999999995 248.77133,195.12481999999997 C 248.42515,193.80572999999998 248.14609000000002,193.35900999999998 247.56683,192.45181999999997 C 247.26193,191.97430999999997 246.52929,191.05420999999998 246.12483,190.60981999999996 C 245.71724,190.16198999999995 244.85034000000002,189.31234999999995 243.91333,188.56931999999995 C 243.44658,188.19918999999996 242.4603,187.51783999999995 241.95334,187.18531999999996 C 241.44031,186.84879999999995 240.91007,186.52244999999996 239.27733,185.47781999999995 C 238.70418,185.11111999999994 238.11134,184.72480999999996 237.48934,184.32132999999996 C 236.83335,183.89580999999995 236.13788,183.44447999999997 235.39535,182.96681999999996 C 234.60192,182.45642999999995 232.83398,181.33229999999995 231.85101,180.71481999999995 C 230.81535,180.06424999999996 229.74028,179.39390999999995 228.64401,178.70932999999994 C 227.54162,178.02090999999993 226.44856000000001,177.33858999999993 225.38301,176.66782999999992 C 224.35792,176.0225499999999 222.49846000000002,174.83570999999992 221.69285000000002,174.30732999999992 C 220.96125000000004,173.82748999999993 220.29664000000002,173.38113999999993 219.68134000000003,172.96932999999993 C 219.10430000000002,172.58312999999993 218.55399000000003,172.21425999999994 218.01185000000004,171.86532999999991 C 217.47263000000004,171.51827999999992 216.33549000000005,170.8295599999999 215.71435000000002,170.4784999999999 C 215.06358000000003,170.11069999999992 214.38088000000002,169.7418399999999 213.67735000000002,169.36399999999992 C 212.95889000000003,168.9781499999999 212.22850000000003,168.59090999999992 211.49635,168.19549999999992 C 210.76449,167.80023999999992 209.33134,167.00343999999993 208.64319,166.60032999999993 C 207.97005000000001,166.20600999999994 207.31845,165.80966999999993 206.68268,165.42133999999993 C 206.06212,165.04230999999993 205.45874,164.66967999999994 204.86618,164.31432999999993 C 204.28935,163.96840999999992 203.16936,163.32825999999991 202.62234,163.04332999999994 C 202.09454,162.76840999999993 201.58126000000001,162.51991999999993 201.08935,162.29332999999994 C 200.62646999999998,162.08009999999993 200.19145,161.89150999999995 199.79034,161.72331999999994 C 199.42869,161.57167999999996 198.49668,161.66501999999994 198.28583999999998,161.11432999999994 C 198.17216,160.81743999999995 199.42656999999997,160.41313999999994 200.23334999999997,160.17066999999994 C 200.70470999999998,160.02900999999994 201.80567999999997,159.79539999999994 202.43334999999996,159.73865999999995 C 203.82949999999997,159.61246999999995 204.60778999999997,159.67165999999995 205.42000999999996,159.74132999999995 C 206.26474999999996,159.81377999999995 207.12827999999996,159.93428999999995 208.00000999999997,160.08332999999996 C 208.87506999999997,160.23293999999996 209.73909999999998,160.40737999999996 210.58001,160.60532999999995 C 212.17153,160.97995999999995 212.89484,161.19263999999995 213.57333999999997,161.40265999999994 C 214.21647,161.60172999999995 214.82528999999997,161.80798999999993 215.39582999999996,162.04166999999995 C 216.48818999999997,162.48903999999996 217.00915999999995,162.74324999999996 217.99999999999997,163.33332999999996 C 219.01699999999997,163.93897999999996 219.49941999999996,164.30167999999995 219.99999999999997,164.63999999999996 C 220.99883999999997,165.31505999999996 221.48955999999998,165.65505999999996 221.99999999999997,165.94666999999995 C 223.47182999999998,166.78750999999994 223.99520999999996,166.96396999999996 225.01066999999998,167.31333999999995 C 225.51791999999998,167.48786999999996 226.56008999999997,167.79177999999996 227.08532999999997,167.96665999999996 C 228.72981999999996,168.51417999999995 229.27708999999996,168.75970999999996 229.82116999999997,168.99633999999998 C 230.85888999999997,169.44764999999998 232.00428999999997,171.67419999999998 232.66666999999995,170.33332999999996 C 232.71949999999995,170.22639999999996 232.34299999999996,169.99999999999997 233.32766999999996,169.99999999999997 C 234.10699999999994,169.99999999999997 234.95832999999996,170.00019999999998 235.76966999999996,169.99999999999997 C 236.82999999999996,169.99973999999997 237.40412999999995,169.71964999999997 238.45599999999996,169.33616999999998 C 239.00351999999995,169.13654999999997 239.63089999999997,168.94294999999997 240.30400999999995,168.73467 C 241.69374999999994,168.30464999999998 242.36600999999996,168.10801 242.99200999999994,167.93734 C 244.33921999999993,167.57003 245.33589999999992,167.50874000000002 245.88000999999994,167.344 C 246.67060999999995,167.10464 247.61515999999995,166.77304999999998 248.12167999999994,166.58651 C 249.67242999999993,166.01539 250.16008999999994,165.80543 251.10366999999994,165.3955 C 251.57186999999993,165.1921 252.52134999999993,164.76104 253.01966999999993,164.54284 C 254.66239999999993,163.82351 255.28376999999995,163.57517 255.93600999999992,163.32002 C 256.60907999999995,163.05671 257.2990199999999,162.79994 258.0000099999999,162.56251 C 258.6964499999999,162.32662 259.37024999999994,162.03356 261.33334999999994,161.66668 C 261.90945999999997,161.55901 262.96737999999993,161.50878 263.44534999999996,161.53335 C 264.32321999999994,161.57845 265.1038,161.7656 266.51867999999996,161.91468 C 267.19406,161.98585 267.89730999999995,161.99363 268.65466999999995,161.99868 C 269.96396999999996,162.00742 270.95800999999994,162.00001 271.47601999999995,162.00001 C 272.52398999999997,162.00001 273.042,161.99656000000002 274.50001,162.00001 C 275.344,162.00201 276.10269999999997,161.96620000000001 276.76802,162.10801 C 278.03245,162.37753 278.61143,162.8411 279.21067999999997,163.29734000000002 C 279.84705999999994,163.78185000000002 280.46297,164.35014 281.52167999999995,165.079 C 282.2469899999999,165.57834 282.65326999999996,165.78565 283.4466699999999,166.29734000000002 C 284.29383999999993,166.8437 285.17319999999995,167.49201000000002 285.62116999999995,167.86417000000003 C 286.56217999999996,168.64595000000003 287.01710999999995,169.08409000000003 287.47916999999995,169.52083000000002 C 287.94111,169.95744000000002 288.83241,170.83158000000003 289.66666999999995,171.66667 C 290.43094999999994,172.43173000000002 290.80173999999994,172.78453000000002 291.45835999999997,173.52083000000002 C 292.10718999999995,174.2484 292.43433999999996,174.62863000000002 293.29999999999995,175.96466 C 293.61366,176.44876000000002 293.91248999999993,176.96931 294.50001,178.08333000000002 C 294.80656,178.66458000000003 295.10382999999996,179.26882 295.4,179.88933000000003 C 296.00788,181.16295000000002 296.30543,181.81832000000003 296.59466999999995,182.48134000000002 C 297.16943999999995,183.79878000000002 297.42520999999994,184.45522000000003 297.6560099999999,185.10266000000001 C 297.8796699999999,185.73009000000002 298.1499099999999,186.32864 298.41500999999994,188.03616000000002 C 298.49413999999996,188.54582000000002 298.51998999999995,189.53466000000003 298.5733399999999,190.51199000000003 L 298.6250099999999,191.01516000000004" fill="none" id="svg_2" stroke="#000" stroke-width="2"/>
	<path d="M 300.0,187.0 C 309.23532,187.0 309.94266,187.0 310.62399,187.0 C 311.28134,187.0 311.91665,187.0 313.12933,187.0 C 313.71065999999996,187.0 315.37832,187.0 315.91333,187.0 C 316.95333999999997,187.0 317.45833999999996,187.0 318.43832,187.0 C 319.83333999999996,187.0 320.28157999999996,186.96147 321.16533999999996,187.03149 C 322.08754999999996,187.10456 322.59282999999994,187.18704 323.62532999999996,187.59733 C 324.86638999999997,188.09049 325.51311999999996,188.54023 326.22265,188.99333 C 326.979,189.47633 327.75097,190.01581 328.54165,190.58333 C 329.34841,191.1624 330.15063,191.76048 330.95065,192.35333 C 332.4993,193.50093999999999 333.23452,194.03677 333.94265,194.54533 C 334.62322,195.03408000000002 335.2824,195.5012 335.91665,195.95832000000001 C 336.53304,196.40256000000002 337.13427,196.83718000000002 337.71066,197.28132000000002 C 338.8432,198.15402000000003 339.38272,198.61686000000003 339.91467,199.08666000000002 C 340.44708,199.55687000000003 340.96768,200.04284 341.47915,200.54166000000004 C 341.99304,201.04285000000004 342.49987,201.55751000000004 342.99865,202.08666000000002 C 344.00887,203.15836000000002 344.5035,203.71920000000003 345.00133999999997,204.29065000000003 C 345.50793,204.87216000000004 346.01518999999996,205.47501000000003 346.52083999999996,206.10416000000004 C 347.04067999999995,206.75093000000004 347.56526999999994,207.42717000000005 348.08531999999997,208.14266000000003 C 349.18397999999996,209.65423000000004 349.72578999999996,210.48191000000003 350.27998999999994,211.33466000000004 C 350.8442299999999,212.20287000000005 351.39772999999997,213.08799000000005 351.93748999999997,213.97916000000004 C 352.47103,214.86003000000002 352.9829,215.72814000000002 353.45998,216.57866000000004 C 354.34657999999996,218.15930000000003 354.71828,218.89041000000003 355.05998999999997,219.57332000000005 C 355.37969,220.21224000000007 355.66805,220.81934000000004 355.93748999999997,221.39581000000004 C 356.19465999999994,221.94603000000004 356.43568999999997,222.47912000000005 356.67997999999994,222.99331000000004 C 357.15980999999994,224.00324000000003 357.41856999999993,224.50128000000004 357.68397999999996,224.99865000000003 C 357.94991,225.49696000000003 358.22398999999996,225.99007000000003 358.49998999999997,226.47915000000003 C 359.04467,227.44431000000003 359.32606999999996,227.90907000000004 360.07865999999996,229.27899000000002 C 360.31922999999995,229.7169 360.78047,230.59309000000002 361.22532999999993,231.49731000000003 C 361.4556799999999,231.96550000000002 361.69276999999994,232.45065000000002 362.42130999999995,234.06431000000003 C 362.68717999999996,234.65321000000003 362.95432999999997,235.26626000000005 363.22532999999993,235.89732000000004 C 363.5016999999999,236.54092000000003 364.0507999999999,237.85492000000005 364.3159999999999,238.51864000000003 C 364.8401999999999,239.83058000000003 365.0807099999999,240.47765000000004 365.3146599999999,241.11465000000004 C 365.5450399999999,241.74200000000005 365.9803399999999,242.97874000000004 366.1893199999999,243.58932000000004 C 366.3966599999999,244.19508000000005 366.60255999999987,244.79734000000005 367.1994799999999,246.59965000000005 C 367.3972899999999,247.19688000000005 367.5937699999999,247.78877000000006 367.7679899999999,248.37864000000005 C 368.1062199999999,249.52387000000004 368.30509999999987,250.07438000000005 368.4999799999999,251.66665000000006 C 368.5598199999999,252.15550000000007 368.54215999999985,253.10804000000007 368.5208199999999,254.06248000000005 C 368.5097099999999,254.55860000000004 368.4959199999999,255.62912000000006 368.6666299999999,256.83332000000007 C 368.76263999999986,257.51051000000007 368.9312199999999,258.22355000000005 369.1241499999999,258.9678100000001 C 369.3242499999999,259.7397200000001 369.5573499999999,260.5224100000001 369.8066499999999,261.3093000000001 C 370.0556999999999,262.0954600000001 370.31302999999986,262.86774000000014 370.8333199999999,264.3333200000001 C 371.0754199999999,265.01530000000014 371.5447499999999,266.27683000000013 371.7746299999999,266.8666500000001 C 371.9974999999999,267.43846000000013 372.4489199999999,268.5407500000001 372.6839599999999,269.0799700000001 C 373.1590899999999,270.1699400000001 373.6811499999999,271.2800400000001 373.9436299999999,271.8391600000001 C 374.20381999999995,272.3933900000001 374.71010999999993,273.4633700000001 374.93297999999993,273.9758200000001 C 375.51973999999996,275.3249100000001 375.75118999999995,276.0617300000001 375.9239799999999,276.6879800000001 C 376.1624399999999,277.5522700000001 376.48439999999994,278.5075000000001 376.8506499999999,279.2479800000001 C 377.2485699999999,280.0524800000001 377.7119799999999,280.8032500000001 378.0626299999999,281.4920000000001 C 378.5775199999999,282.50335000000007 378.9969299999999,283.1691200000001 379.5093199999999,283.7933300000001 C 380.1906199999999,284.6233200000001 380.58231999999987,285.0841900000001 380.9919899999999,285.5666800000001 C 381.4116099999999,286.06088000000005 382.6647799999999,287.5016800000001 383.05732999999987,287.9358200000001 C 383.4302499999999,288.34827000000007 384.1460099999999,289.1165100000001 384.8506599999999,289.8399900000001 C 385.2036599999999,290.20242000000013 386.3328399999999,291.3338300000001 386.7433299999999,291.74301000000014 C 387.1728299999999,292.17114000000015 388.0911099999999,293.07431000000014 388.5833299999999,293.54166000000015 C 389.0910499999999,294.02372000000014 389.6180899999999,294.5149000000001 390.17332999999985,295.00266000000016 C 391.32264999999984,296.01230000000015 391.93946999999986,296.50428000000016 392.57066999999984,296.99866000000014 C 393.2108099999998,297.50003000000015 393.86909999999983,297.99332000000015 394.54164999999983,298.47916000000015 C 395.2184399999998,298.9680500000002 395.90529999999984,299.44831000000016 396.6026499999998,299.91468000000015 C 397.9927299999998,300.8443100000001 398.6981999999998,301.28141000000016 399.3999799999998,301.7146700000001 C 400.0982199999998,302.1457300000001 400.7988799999998,302.56587000000013 401.4999899999998,302.9791700000001 C 402.1988999999998,303.3911900000001 402.8994299999998,303.79646000000014 403.5999999999998,304.19868000000014 C 404.9989299999998,305.0018700000001 405.7019899999998,305.3995800000001 406.4093299999998,305.8080200000001 C 407.1323499999998,306.2255300000001 407.87657999999976,306.6608300000001 408.6458399999998,307.1250100000001 C 409.4540099999998,307.61268000000007 410.3041699999998,308.1367600000001 411.1973199999998,308.7120200000001 C 413.1756199999998,309.98619000000014 414.25154999999984,310.7247200000001 415.3866499999998,311.50535000000013 C 416.5666699999998,312.31690000000015 417.7686699999998,313.1598300000001 418.9791499999998,314.0208500000001 C 420.18867999999975,314.8811700000001 421.3773999999998,315.7367600000001 422.5266699999998,316.5813400000001 C 424.6727299999998,318.1584300000001 425.6306699999998,318.89003000000014 426.5213299999998,319.57600000000014 C 427.3582099999998,320.22056000000015 428.1452299999998,320.83982000000015 428.8958399999998,321.43751000000015 C 429.6238699999998,322.01719000000014 430.3351099999998,322.5923300000001 431.0453199999998,323.16401000000013 C 432.4992099999998,324.3343600000001 433.2632499999998,324.9438300000001 434.0533499999998,325.56800000000015 C 434.8615799999998,326.2065200000002 435.6857399999998,326.85187000000013 436.52084999999977,327.50001000000015 C 437.35904999999974,328.1505500000001 438.19751999999977,328.79682000000014 439.03332999999975,329.43202000000014 C 440.66348999999974,330.6708800000001 441.45697999999976,331.25883000000016 442.23599999999976,331.83467000000013 C 443.00732999999974,332.4048300000001 443.78113999999977,332.97099000000014 444.56250999999975,333.5416700000001 C 445.3584699999997,334.1230000000001 446.1774999999997,334.71876000000015 447.0239999999998,335.33867000000015 C 448.83478999999977,336.66472000000016 449.8075399999998,337.38435000000015 450.8200199999998,338.13735000000014 C 451.86423999999977,338.91396000000015 452.92786999999976,339.7104400000001 454.00000999999975,340.52086000000014 C 455.07452999999975,341.33309000000014 456.13943999999975,342.14293000000015 457.1799999999997,342.9493600000001 C 459.17199999999974,344.4931500000001 460.0948599999997,345.23241000000013 460.9719899999997,345.94402000000014 C 461.8120799999997,346.62557000000015 462.6119699999997,347.2889000000001 463.37500999999975,347.9375200000001 C 464.11322999999976,348.5650200000001 464.82410999999973,349.1823000000001 465.50800999999973,349.79601000000014 C 466.8407099999997,350.9918700000001 467.47956999999974,351.6003000000001 468.1226999999997,352.20269000000013 C 468.76991999999973,352.80895000000015 469.4248899999997,353.42477000000014 470.1041799999997,354.04168000000016 C 470.8021499999997,354.67556000000013 471.5301399999997,355.32433000000015 472.3106899999997,355.97070000000014 C 473.98234999999966,357.3549800000001 474.9231199999997,358.0482500000001 475.90135999999967,358.76269000000013 C 476.90239999999966,359.49377000000015 477.9276099999997,360.21255000000014 478.95836999999966,360.91668000000016 C 479.9730199999997,361.60983000000016 480.9660599999997,362.27163000000013 481.92534999999964,362.89068000000015 C 483.66014999999965,364.01019000000014 484.42626999999965,364.47412000000014 485.11736999999965,364.88937000000016 C 485.7411199999996,365.26419000000016 486.31157999999965,365.5954600000002 486.83336999999966,365.8958700000002 C 487.3142699999997,366.17276000000015 487.7661099999997,366.4266600000002 488.1893599999997,366.6773600000002 C 489.0040899999997,367.15990000000016 489.4008799999997,367.41805000000016 489.7920199999997,367.6800200000002 C 490.1748899999997,367.9364600000002 490.5377499999997,368.1910100000002 490.8750299999997,368.4375300000002 C 491.1856099999997,368.6645200000002 491.4613599999997,368.87054000000023 491.6880199999997,369.0600300000002 C 492.0062899999997,369.3260800000002 492.0969599999997,369.40888000000024 492.09603999999973,369.4627100000002 C 492.09560999999974,369.48789000000016 492.0475499999997,369.49039000000016 492.00002999999975,369.4791900000002 C 491.95141999999976,369.4677500000002 491.90828999999974,369.4391200000002 491.9040199999998,369.4506900000002 C 491.8666399999998,369.5519500000002 492.1283499999998,369.5641800000002 492.30669999999975,369.6533600000002 C 492.52501999999976,369.76252000000017 492.7733699999998,369.88673000000017 493.04168999999973,370.0208800000002 C 493.3200399999997,370.1600700000002 493.59835999999973,370.2992000000002 493.86669999999975,370.4333600000002 C 494.3333699999998,370.6667000000002 494.51403999999974,370.7570300000002 494.65868999999975,370.8293900000002 C 494.77135999999973,370.8857300000002 494.8560199999998,370.9280500000002 494.91668999999973,370.95839000000024 C 494.95736999999974,370.97871000000026 494.9820299999997,370.99107000000026 494.9946899999997,370.9973900000002 C 495.0000299999997,371.0000500000002 494.8125299999997,371.0005000000002 493.5000299999997,371.0000500000002 C 493.0068699999997,370.9998700000002 492.4346299999997,371.00148000000024 491.7945199999997,370.9910500000002 C 490.3539999999997,370.9675800000002 489.5756499999997,370.9345900000002 488.7738599999997,370.8857300000002 C 487.95827999999966,370.83605000000017 486.3318699999997,370.6769300000002 485.5420199999997,370.5568700000002 C 484.7610799999997,370.43816000000015 483.9859899999997,370.2875500000002 483.2080399999997,370.11739000000017 C 482.4152499999997,369.94399000000016 481.6049199999997,369.74456000000015 480.7660199999997,369.53389000000016 C 479.8901999999997,369.31395000000015 478.0002099999997,368.83263000000017 476.9715299999997,368.57820000000015 C 475.8922099999997,368.3112600000002 474.76962999999967,368.0375500000001 473.6160299999997,367.74272000000013 C 472.4365899999997,367.44127000000015 471.24166999999966,367.12562000000014 470.04452999999967,366.7812000000001 C 468.84561999999966,366.4362900000001 466.49594999999965,365.67790000000014 465.36419999999964,365.25737000000015 C 464.24920999999966,364.84306000000015 463.16106999999965,364.3982100000002 462.08669999999967,363.94939000000016 C 461.01940999999965,363.5035300000002 459.96178999999967,363.0464400000002 458.89919999999967,362.60540000000015 C 457.8351399999997,362.16375000000016 455.6700399999997,361.32369000000017 454.55770999999964,360.94289000000015 C 453.4379899999997,360.5595900000001 452.30465999999967,360.20678000000015 451.17068999999964,359.86138000000017 C 450.04263999999966,359.5177800000002 448.92160999999965,359.1889600000002 447.81970999999965,358.85189000000014 C 446.73764999999963,358.52090000000015 444.66336999999965,357.84246000000013 443.6846999999996,357.47839000000016 C 442.72735999999963,357.1222500000002 441.7915399999996,356.74121000000014 440.85870999999963,356.35339000000016 C 439.9154999999996,355.96124000000015 438.95614999999964,355.5499800000002 437.96069999999963,355.1383900000002 C 436.9241699999996,354.7098300000002 434.66928999999965,353.82626000000016 433.42871999999966,353.37872000000016 C 432.12540999999965,352.90854000000013 430.76199999999966,352.44354000000016 429.35470999999967,351.97473000000014 C 427.91799999999967,351.49612000000013 426.45910999999967,351.02417000000014 424.99270999999965,350.5527300000001 C 423.53109999999964,350.0828500000001 420.66665999999964,349.16680000000014 419.28637999999967,348.7220400000001 C 417.9439999999997,348.2894800000001 416.6388599999997,347.8670300000001 415.36535999999967,347.4680400000001 C 414.1261599999997,347.0798000000001 412.9169299999997,346.7109300000001 411.7323599999997,346.3760600000001 C 410.5781499999997,346.0498000000001 408.3355399999997,345.4898300000001 407.2431899999997,345.2642100000001 C 406.1740399999997,345.0433800000001 405.1194699999997,344.85894000000013 404.0826999999997,344.6867300000001 C 403.0631099999997,344.5173600000001 402.0567899999997,344.36355000000015 401.0661899999997,344.1992100000001 C 400.08745999999974,344.0368600000001 398.1641799999997,343.67770000000013 397.2208499999997,343.4563800000001 C 396.2773699999997,343.2350100000001 395.3357799999997,342.97899000000007 394.3933699999997,342.68538000000007 C 393.4338999999997,342.38646000000006 392.4627399999997,342.04512000000005 391.4758599999997,341.66237000000007 C 390.4558099999997,341.26677000000007 388.3300799999997,340.3404100000001 387.2145399999997,339.8145600000001 C 386.0592399999997,339.26997000000006 384.8836699999997,338.68727000000007 383.6880199999997,338.0880600000001 C 382.4779699999997,337.4816100000001 381.2662399999997,336.8636000000001 380.0535299999997,336.2535600000001 C 378.8515999999997,335.6489500000001 376.5026599999997,334.4944400000001 375.36486999999966,333.9645600000001 C 374.26122999999967,333.4505800000001 373.18179999999967,332.96874000000014 372.12936999999965,332.50805000000014 C 371.1053799999996,332.05981000000014 370.10388999999964,331.63241000000016 369.12786999999963,331.21356000000014 C 368.1745299999996,330.80441000000013 366.33184999999963,330.00345000000016 365.44335999999964,329.60022000000015 C 364.57183999999967,329.20471000000015 363.72225999999966,328.80685000000017 362.89336999999966,328.41074000000015 C 362.0822999999997,328.0231400000001 361.29277999999965,327.63721000000015 360.52336999999966,327.25724000000014 C 359.77278999999965,326.88654000000014 358.33375999999964,326.1659300000001 357.64235999999966,325.8215700000001 C 356.9657499999997,325.48459000000014 356.29790999999966,325.1540000000001 355.6293599999997,324.8360700000001 C 354.95989999999966,324.5176800000001 354.27962999999966,324.2055800000001 353.58034999999967,323.9045800000001 C 352.86360999999965,323.59608000000014 351.3352299999997,322.9949400000001 350.51503999999966,322.70023000000015 C 349.66856999999965,322.39609000000013 348.79897999999963,322.10276000000016 347.92003999999963,321.81073000000015 C 347.04228999999964,321.51910000000015 346.17293999999964,321.23737000000017 345.3250399999996,320.95721000000015 C 344.5062499999996,320.68667000000016 342.9985899999996,320.1705900000001 342.3291899999996,319.9220500000001 C 341.7120299999996,319.69292000000013 341.14797999999956,319.46957000000015 340.6267099999996,319.2680600000001 C 340.1462699999996,319.0823300000001 339.7025199999996,318.9112800000001 339.28420999999963,318.7760600000001 C 338.8955699999996,318.6504500000001 338.1677899999996,318.4872700000001 337.8221999999996,318.46438000000006 C 337.4912699999996,318.44247000000007 337.1741899999996,318.45846000000006 336.8786899999996,318.4974000000001 C 336.6030199999996,318.5337200000001 336.3546999999996,318.5960600000001 336.1332099999996,318.6564000000001 L 335.94268999999963,318.7187200000001" fill="none" id="svg_3" stroke="#000" stroke-width="2"/>
	<path d="M 281.0,247.0 C 284.83334,254.83333 285.17966,255.57806 285.51599,256.31467 C 285.8483,257.04242 286.17053,257.7659 286.82535,259.18933 C 287.15064,259.89644999999996 287.47226,260.60443 288.16666000000004,262.0 C 288.51661,262.70331 288.88526,263.40723 289.28418000000005,264.10901 C 289.69180000000006,264.82605 290.1351,265.54883 290.62668,266.272 C 291.13648,267.02197 291.67923,267.79937 293.0,269.33333999999996 C 293.71048,270.15849999999995 294.50177,270.97414999999995 295.3295,271.80531999999994 C 296.17764,272.6569999999999 297.06009,273.50255999999996 297.956,274.34932999999995 C 298.85309,275.19722999999993 299.75654000000003,276.02718999999996 301.50001000000003,277.66664999999995 C 302.33769,278.45433999999995 303.14405000000005,279.22661999999997 303.92851,279.97664999999995 C 304.69203000000005,280.70662999999996 305.43532,281.4189999999999 306.16801000000004,282.10664999999995 C 306.88438,282.77894999999995 307.58177000000006,283.4429799999999 309.00001000000003,284.66664999999995 C 309.69316000000003,285.26469999999995 310.39512,285.83293999999995 311.10002000000003,286.37666999999993 C 311.79524000000004,286.91291999999993 312.49528000000004,287.4234799999999 313.20003,287.9066699999999 C 313.89540000000005,288.3834499999999 314.58678000000003,288.8491399999999 316.00002,289.6666499999999 C 316.69466,290.0684699999999 317.40465,290.4387099999999 318.12703,290.7946699999999 C 318.8607,291.1561799999999 319.62288,291.5048099999999 320.416,291.85066999999987 C 321.24086,292.2103499999999 322.10957,292.5740299999999 324.00001,293.33333999999985 C 325.02687,293.74578999999983 326.10443999999995,294.16899999999987 327.22049999999996,294.60082999999986 C 328.36177,295.0424199999999 329.51956999999993,295.4825999999999 330.68399999999997,295.91332999999986 C 331.83991,296.34090999999984 332.97531999999995,296.7643699999999 335.16666999999995,297.4999999999999 C 336.18976999999995,297.8434399999999 337.17103,298.1493199999999 338.11418,298.4194899999999 C 339.01784,298.6783399999999 339.89369,298.90526999999986 340.74669,299.0959999999999 C 341.57552,299.2813299999999 342.38921,299.45479999999986 344.00002,299.6666499999999 C 344.79821,299.7716299999999 345.59957,299.8363299999999 346.40001,299.8856699999999 C 347.19963,299.9349899999999 347.99992000000003,299.9623299999999 348.8,299.9786599999999 C 349.59996,299.99498999999986 350.40001,299.9986499999999 352.00001000000003,299.99998999999985 C 352.80100000000004,300.00065999999987 353.60801000000004,299.99998999999985 354.42701000000005,299.99998999999985 C 355.2640200000001,299.99998999999985 356.12501000000003,299.99998999999985 357.0160000000001,299.99998999999985 C 357.9430000000001,299.99998999999985 358.9120000000001,299.99998999999985 361.0000100000001,299.99998999999985 C 362.1278500000001,299.99998999999985 363.30268000000007,299.99998999999985 364.5115200000001,299.99998999999985 C 365.74135000000007,299.99998999999985 366.97917000000007,299.99998999999985 368.21202000000005,299.99998999999985 C 369.42683000000005,299.99998999999985 370.61067,299.99998999999985 372.83336,299.99998999999985 C 373.84969,299.99998999999985 374.80400000000003,299.99998999999985 375.70436,299.99998999999985 C 376.55867,299.99998999999985 377.37501000000003,299.99998999999985 378.16136,299.99998999999985 C 378.92567,299.99998999999985 379.67601,299.99998999999985 381.16667,299.99998999999985 C 381.921,299.99998999999985 382.68135,299.99998999999985 383.44368000000003,299.99998999999985 C 384.20403000000005,299.99998999999985 384.95836,299.99998999999985 385.70268000000004,299.99998999999985 C 386.43303000000003,299.99998999999985 387.14534000000003,299.99998999999985 388.50001000000003,299.99998999999985 C 389.13584000000003,299.99998999999985 389.74668,299.99998999999985 390.33750000000003,299.99998999999985 C 390.91334000000006,299.99998999999985 391.47916000000004,299.99998999999985 392.04001000000005,299.99998999999985 C 392.60083000000003,299.99998999999985 393.16666000000004,299.99998999999985 394.3333400000001,299.99998999999985 C 394.9428400000001,299.99998999999985 395.5693300000001,299.99998999999985 396.2098400000001,299.99998999999985 C 396.8613300000001,299.99998999999985 397.5208400000001,299.99998999999985 398.1853300000001,299.99998999999985 C 398.85183000000006,299.99998999999985 399.5173300000001,299.99998999999985 400.8333400000001,299.99998999999985 C 401.47717000000006,299.99998999999985 402.1040000000001,299.99998999999985 402.70684000000006,299.99998999999985 C 403.2786500000001,299.99998999999985 403.8124900000001,299.99998999999985 404.30132000000003,299.99998999999985 C 404.73815,299.99998999999985 405.11599,299.99998999999985 405.66665,299.99998999999985 C 405.829,299.99998999999985 405.92532,299.99998999999985 405.96966,299.99998999999985 C 405.97601,299.99998999999985 405.95833999999996,299.99998999999985 405.93066,299.99998999999985 C 405.90701,299.99998999999985 405.90133,299.99998999999985 406.0,299.99998999999985 C 406.12833,299.99998999999985 406.30667,299.99998999999985 406.52499,299.99998999999985 C 406.77334,299.99998999999985 407.04165,299.99998999999985 407.32,299.99998999999985 C 408.33334,299.99998999999985 408.89584,299.99998999999985 407.89248,299.99998999999985 C 407.21416999999997,299.99998999999985 406.39583999999996,299.99998999999985 405.47749999999996,299.99998999999985 C 404.99334,299.99998999999985 403.49949999999995,299.99998999999985 402.99598999999995,299.99998999999985 C 401.9679699999999,299.99998999999985 401.43748999999997,299.99998999999985 400.32847999999996,299.99998999999985 C 399.74397999999997,299.99998999999985 398.49998999999997,299.99998999999985 397.14266,299.99998999999985 C 396.424,299.99998999999985 395.68133,299.99998999999985 394.91665,299.99998999999985 C 394.13198,299.99998999999985 393.32934,299.99998999999985 392.51067,299.99998999999985 C 390.83333,299.99998999999985 389.97799,299.99998999999985 389.11065,299.99998999999985 C 388.22933,299.99998999999985 387.33199,299.99998999999985 386.41665,299.99998999999985 C 385.48132,299.99998999999985 384.52398,299.99998999999985 383.54266,299.99998999999985 C 381.5,299.99998999999985 380.43350000000004,300.00230999999985 379.32800000000003,299.99598999999984 C 378.17447000000004,299.98942999999986 376.96383000000003,299.9741999999998 375.68750000000006,299.93748999999985 C 374.33578000000006,299.89857999999987 372.89975000000004,299.8414799999999 371.37201000000005,299.74397999999985 C 367.99805000000003,299.52867999999984 366.14325,299.34443999999985 364.19333000000006,299.14265999999986 C 362.1714800000001,298.9334299999999 360.10535000000004,298.6914899999999 358.0208400000001,298.4166499999999 C 355.9386300000001,298.1421099999999 353.8856200000001,297.8507299999999 351.8933400000001,297.5106699999999 C 348.1596100000001,296.8733699999999 346.4744600000001,296.4962399999999 344.9039900000001,296.1106499999999 C 343.42084000000006,295.7465099999999 342.0202900000001,295.3478599999999 340.68750000000006,294.9166499999999 C 339.3895600000001,294.4967299999999 338.12430000000006,294.0381399999999 336.87601000000006,293.5426599999999 C 334.3217200000001,292.5288099999999 333.01184000000006,291.9413099999999 331.6626600000001,291.3426799999999 C 330.28211000000005,290.7301299999999 328.88461000000007,290.0884699999999 327.4791600000001,289.4166499999999 C 326.0618900000001,288.7391899999999 324.6464600000001,288.0429299999999 323.25067000000007,287.31065999999987 C 320.4857800000001,285.86012999999986 319.1584200000001,285.0892899999999 317.85998000000006,284.3119999999999 C 316.5783600000001,283.5447899999999 315.3318100000001,282.7548699999999 314.1249900000001,281.9374899999999 C 312.93178000000006,281.1293199999999 311.7697700000001,280.3008299999999 310.6599900000001,279.4279999999999 C 308.4692900000001,277.7050099999999 307.45458000000013,276.7678099999999 306.4573200000001,275.8293399999999 C 305.4658600000001,274.89632999999986 304.51866000000007,273.9279999999999 303.5833300000001,272.9583399999999 L 302.6679900000001,271.97865999999993 L 301.7706500000001,270.99098999999995 L 300.8893300000001,269.99733999999995" fill="none" id="svg_4" stroke="#000" stroke-width="2"/>
	<path d="M 274.0,179.0 C 273.54965,172.62917 272.819,172.01497 272.35867,171.82666 C 271.38733,171.42931000000002 270.83041000000003,171.34413 269.16665,171.16667 C 268.62325,171.10872 267.57073,171.05504000000002 267.06799,171.05733 C 266.11831,171.06166000000002 265.22265,171.05825000000002 264.16482,171.44268 C 263.29095,171.76024999999998 262.33969,172.29977 262.04165,173.10417999999999 C 261.67223,174.10127 261.99752,174.99084 262.01348,175.47767 C 262.04836,176.54223 262.04958,177.10423 262.25600000000003,178.18267 C 262.44661,179.1784 262.79625000000004,180.02866 263.35067000000004,180.63067 C 263.91573000000005,181.24424000000002 264.73562000000004,181.69744 265.66665000000006,182.16668 C 266.72805000000005,182.70162000000002 267.3167700000001,182.94618000000003 267.92266000000006,183.19334 C 268.5387800000001,183.44467 269.1553600000001,183.71969 270.4346500000001,184.06001 C 271.6541900000001,184.38443 272.25515000000007,184.45469 273.3766700000001,184.47584 C 273.9066700000001,184.48583 274.9070000000001,184.39591000000001 275.8266500000001,184.28001 C 277.0567500000001,184.12497 277.7701300000001,184.09109 278.6346600000001,184.01068 C 279.5038300000001,183.92982 279.7845600000001,182.89232 280.1106400000001,182.21869 C 280.49907000000013,181.41625000000002 280.7591100000001,181.00482 281.06398000000013,180.07868000000002 C 281.5021200000001,178.7477 281.5358700000001,178.27866000000003 281.41331000000014,177.44669000000002 C 281.29313000000013,176.63088000000002 280.93193000000014,175.81971000000001 280.01399000000015,174.82219 C 279.68492000000015,174.46459000000002 278.8790700000001,173.83687 277.95732000000015,173.35468 C 277.49266000000017,173.11159 276.00337000000013,172.6418 275.49965000000014,172.58585 C 274.4952900000001,172.47429 273.97743000000014,172.51769 272.92799000000014,172.60669 C 272.3849300000001,172.65274 270.66688000000016,172.83675 270.05781000000013,172.87901 C 269.43623000000014,172.92215 268.1808600000001,172.99036999999998 267.5624800000001,173.04167999999999 C 266.9581700000001,173.09184 265.7996000000001,173.17149999999998 264.8333200000001,173.50000999999997 C 264.00233000000014,173.78252999999998 263.33741000000015,174.21783999999997 262.73682000000014,174.94200999999998 C 262.03351000000015,175.79004999999998 261.97873000000016,176.83405 262.00931000000014,177.42534999999998 C 262.04788000000013,178.17119999999997 262.16641000000016,179.05487 262.59729000000016,179.92134 C 263.07602000000014,180.884 263.50656000000015,181.32948 264.49564000000015,182.12034999999997 C 265.0196300000002,182.53932999999998 265.61564000000016,182.89277999999996 266.2386500000002,183.20934999999997 C 266.8654200000002,183.52781999999996 267.4939300000002,183.90175999999997 269.4781500000002,184.29267999999996 C 270.1051900000002,184.41621999999995 270.7343500000002,184.45293999999996 271.9374700000002,184.41668999999996 C 272.5180400000002,184.39918999999995 273.07977000000017,184.32118999999997 274.66663000000017,184.16668999999996 C 275.6272000000002,184.07316999999995 276.0839300000002,184.06796999999997 276.9374700000002,183.95834999999997 C 277.7370300000002,183.85566999999998 278.8679200000002,183.55848999999998 279.51065000000017,183.13868999999997 C 280.1727900000002,182.70620999999997 280.76480000000015,182.06828999999996 281.14264000000014,181.25468999999998 C 281.78378000000015,179.87413999999998 281.76306000000017,179.26387999999997 281.81497000000013,178.68034999999998 C 281.92337000000015,177.46168999999998 281.87494000000015,176.82811999999998 281.81497000000013,176.19635999999997 C 281.7549100000001,175.56375999999997 281.35162000000014,173.73779999999996 281.14129000000014,173.17601999999997 C 280.93542000000014,172.62611999999996 280.41992000000016,171.60835999999998 280.09597000000014,171.16534999999996 C 279.4700800000001,170.30938999999995 278.70928000000015,169.59051999999997 277.8253100000001,169.14535999999995 C 276.9321200000001,168.69555999999994 276.40203000000014,168.59426999999997 275.31945000000013,168.48951999999994 C 274.7433100000001,168.43377999999996 273.49819000000014,168.48376999999994 272.8364500000001,168.56434999999993 C 271.4509200000001,168.73307999999994 270.75460000000015,168.89095999999992 270.0624600000001,169.04168999999993 C 269.3825600000001,169.18974999999992 268.7271300000001,169.34773999999993 268.1079600000001,169.51867999999993 C 266.5232400000001,169.95619999999994 265.3584200000001,169.72979999999993 264.7984500000001,170.58117999999993 C 264.47615000000013,171.07122999999993 264.91176000000013,171.79714999999993 265.0172900000001,172.64134999999993 C 265.0778400000001,173.12573999999992 265.2445800000001,174.18530999999993 265.4252800000001,174.72401999999994 C 265.9941600000001,176.42004999999995 266.4098100000001,176.91931999999994 266.7767800000001,177.42485999999994 C 267.1447300000001,177.93173999999993 267.9731000000001,178.85381999999993 268.4081300000001,179.26685999999995 C 268.8282000000001,179.66567999999995 270.0561100000001,180.61368999999996 270.7631100000001,181.06235999999996 L 271.5986200000001,181.48535999999996 L 271.9986100000001,181.41469999999995" fill="none" id="svg_5" stroke="#000" stroke-width="2"/>
	<path d="M 238.0,197.0 C 246.0,197.5 246.80392,197.65201 247.60533,197.86 C 248.42154000000002,198.07184 249.24614,198.32992000000002 250.08333000000002,198.625 C 250.94773,198.92966 251.83277,199.27519 252.74133,199.66 C 254.6756,200.47921 255.68736,200.96002 256.73599,201.45466 C 257.81277,201.96256 258.90332,202.49334 260.0,203.04166999999998 C 261.10068,203.59198999999998 262.19272,204.14988999999997 263.26401,204.71866999999997 C 265.34,205.82088999999996 266.31552,206.37487 267.25601,206.91199999999998 C 268.16415,207.43066 269.03467,207.94266999999996 269.875,208.43749999999997 L 270.68533,208.91732999999996 L 271.46768000000003,209.38116999999997 L 272.22400000000005,209.82800999999998" fill="none" id="svg_7" stroke="#fff" stroke-width="20"/>
	<path d="M 239.0,190.0 C 247.5,195.66667 248.23541,196.15924 248.95334,196.632 C 249.65877,197.09654 250.36391,197.55375 251.08333,198.0 C 251.81722,198.4552 252.58158,198.91434 253.39333,199.368 C 255.15582999999998,200.353 256.14718999999997,200.84644 257.18667999999997,201.36667 C 258.26212,201.90491 259.36614999999995,202.44106 260.47916,202.97917 C 261.58615,203.51439000000002 262.67575,204.03425000000001 263.72666,204.54666 C 265.66958999999997,205.494 266.52949,205.93280000000001 267.31867,206.34267 C 268.04841,206.72167 268.72236,207.08193 269.35416,207.41667999999999 C 269.95034999999996,207.73256999999998 270.51786,208.03596 271.07468,208.31068 C 272.16034,208.84632 272.71946,209.08264 273.28266,209.31467999999998 C 273.84650000000005,209.54698 274.41468000000003,209.76402 274.97916000000004,209.97919 L 275.53867,210.18935 L 276.09018000000003,210.39551 L 276.63068000000004,210.59868" fill="none" id="svg_8" stroke="#fff" stroke-width="20"/>
	<path d="M 242.0,198.0 C 253.5,208.83333 254.52612,209.66135 255.53999,210.40134 C 256.50668,211.10689 257.45514,211.74486000000002 258.375,212.33333000000002 C 259.25543,212.89656000000002 260.11429,213.41252000000003 260.94,213.90534000000002 C 262.49865,214.83558000000002 263.23694,215.27643000000003 263.94534,215.71467 C 264.63424,216.14083000000002 265.30267,216.56400000000002 265.95833999999996,216.97918 L 266.604,217.38934 L 267.24365,217.79551 L 267.88135,218.19868" fill="none" id="svg_9" stroke="#fff" stroke-width="20"/>
	<path d="M 242.0,185.0 C 238.70033,192.69983 238.40063,193.39781 238.10899,194.0955 C 237.81932,194.78849 237.53744,195.47752 237.27200000000002,196.164 C 237.01014,196.84123 236.74009,197.50491 236.33333000000002,198.83333 C 235.94242000000003,200.10998999999998 235.81059000000002,200.75464 235.68266000000003,201.396 C 235.55420000000004,202.04007 235.42990000000003,202.69419 235.28799000000004,204.05468 C 235.13752000000002,205.49725999999998 235.11723000000003,206.26366 235.08532000000002,207.05067 C 235.05279000000002,207.85334 235.03352000000004,208.66529 235.02082000000001,209.47917999999999 C 235.00820000000002,210.28796999999997 235.00326,211.08485 235.00132000000002,211.86267999999998 C 234.99766000000002,213.33334 234.99647000000002,214.01405 235.00266000000002,214.65866999999997 C 235.01417,215.85609999999997 235.01966000000002,216.41840999999997 235.11432000000002,217.48199999999997 C 235.16005,217.99571999999998 235.42995000000002,219.50326999999996 235.57199000000003,219.99733999999998 C 235.85641000000004,220.98659999999998 236.02124000000003,221.4774 236.46616000000003,222.38567999999998 C 237.10843000000003,223.69684999999998 237.40006000000002,224.07228999999998 237.94365000000002,224.77218999999997 C 238.43964000000003,225.41079999999997 239.14432000000002,226.14234999999996 239.89198000000002,226.89201999999997 C 240.49917000000002,227.50082999999998 241.05798000000001,228.05801999999997 241.72398,228.72401999999997 L 242.14798000000002,229.14801999999997" fill="none" id="svg_10" stroke="#000" stroke-width="2"/>
	<path d="M 250.0,221.0 C 247.66667,211.5 247.56467,210.66542 247.53999,209.856 C 247.49284,208.3087 247.55707999999998,207.56215 247.60666999999998,206.832 C 247.6555,206.11311 247.73129999999998,205.40488 247.83332,204.0 C 247.88412,203.30055 247.91959,202.60152 247.94283,201.9045 C 247.98893999999999,200.52112000000002 247.98932,199.836 247.99549,199.15717 L 247.99866,198.48534" fill="none" id="svg_11" stroke="#000" stroke-width="2"/>
	<path d="M 218.0,211.0 C 233.16667,211.0 234.49333000000001,211.0 235.78,211.0 C 237.03667000000002,211.0 238.27333,211.0 239.5,211.0 C 240.72667,211.0 241.96333,211.0 243.22,211.0 C 245.83333,211.0 247.209,211.0 248.63867,211.0 C 250.12633,211.0 251.67598999999998,211.0 253.29166999999998,211.0 C 254.97733999999997,211.0 256.73699999999997,211.0 258.57466999999997,211.0 C 262.49998999999997,211.0 264.59216,210.99683 266.75732,211.00534 C 268.97850999999997,211.01407 271.23867,211.04265999999998 273.52084,211.08333 L 275.80801,211.14399999999998 L 278.08316,211.22866999999997 L 280.32935000000003,211.34133999999997" fill="none" id="svg_12" stroke="#fff" stroke-width="20"/>
	<path d="M 223.0,214.0 C 239.0,211.5 240.82631,211.35199 242.696,211.256 C 244.5884,211.15883 246.48784,211.10076 248.375,211.0625 C 250.23186,211.02486 252.04099,211.00984 253.784,211.004 C 256.99997,210.99322999999998 258.443,210.99906 259.784,211.00133 C 261.04098999999997,211.00347 262.23203,211.00797 263.375,211.02083 C 264.48804,211.03336 265.58914,211.05170999999999 266.69601,211.08533 C 269.00036,211.15532 270.22738,211.21744 271.49734,211.28667 C 272.79373,211.35735 274.09866,211.44666999999998 275.39584,211.54166999999998 L 276.668,211.64666999999997 L 277.89816,211.76167999999998 L 279.06933000000004,211.88667999999998" fill="none" id="svg_13" stroke="#fff" stroke-width="20"/>
	<path d="M 220.0,200.0 C 229.83333,200.0 230.77853,199.99661 231.71466,200.00534 C 232.64288000000002,200.01398999999998 233.5645,200.03252999999998 234.47917,200.08333 C 235.38994000000002,200.13391 236.2989,200.20407 237.19867000000002,200.34134 C 239.00821000000002,200.6174 239.90511,200.87262 240.80933000000002,201.14267 C 241.73575000000002,201.41934 242.67658000000003,201.74941 243.64583000000002,202.10417 C 244.65401000000003,202.47319000000002 245.69853,202.87948 246.79733000000002,203.29066 C 249.16321000000002,204.17599 250.4472,204.62524 251.78267000000002,205.08132 C 253.14919000000003,205.54801 254.53415,206.00556 255.91667,206.45832000000001 C 257.27814,206.9042 258.6033,207.33099 259.87066,207.74532000000002 C 262.16784,208.49636 263.16506,208.83298000000002 264.06667,209.14533000000003 C 264.89,209.43056000000004 265.64666,209.70266000000004 266.35415,209.95832000000004 L 267.02667,210.20399000000003 L 267.67917,210.44366000000002 L 268.32666,210.68133000000003" fill="none" id="svg_14" stroke="#fff" stroke-width="20"/>
	<path d="M 227.0,199.0 C 241.33333,199.0 242.61488,198.99483 243.86533,199.008 C 245.09391,199.02094 246.31017,199.04924 247.52083,199.125 C 248.73836,199.20119 249.97252,199.31129 251.22133,199.51199 C 253.84487,199.93364 255.21132,200.30992 256.61466,200.712 C 258.05103,201.12356 259.48401,201.61598999999998 260.91666000000004,202.12499 L 262.32935000000003,202.66398999999998 L 263.70801000000006,203.22698999999997 L 265.0386700000001,203.80798" fill="none" id="svg_15" stroke="#fff" stroke-width="20"/>
	<path d="M 220.0,194.0 C 230.11484,194.0005 230.8654,193.99934 231.59383,194.0135 C 232.30944,194.02742 233.02141,194.05416 233.73734,194.108 C 234.46853,194.16299 235.22608,194.22650000000002 236.83333,194.5 C 237.70971999999998,194.64912 238.62445,194.84877 239.56784,195.08949 C 240.54073,195.33775 241.52083,195.64583000000002 242.50933999999998,195.976 L 243.49383999999998,196.34217 L 244.46533999999997,196.74534" fill="none" id="svg_16" stroke="#fff" stroke-width="20"/>
	<path d="M 220.0,224.0 C 237.0,221.16667 238.24333000000001,220.92361 239.38400000000001,220.68933 C 240.4413,220.47217 241.43065,220.26094 242.37500000000003,220.08333000000002 C 243.28674000000004,219.91185000000002 244.18643000000003,219.75437000000002 245.09599000000003,219.65734 C 246.99571000000003,219.45469 248.02862000000002,219.45359 249.10933000000003,219.45467 C 250.23406000000003,219.45579999999998 251.39485000000002,219.4928 252.58333000000002,219.54167999999999 C 253.79221,219.59139 255.01256,219.65860999999998 256.23734,219.71867999999998 C 258.66645,219.83783999999997 259.85755,219.88240999999996 261.03467,219.91467999999998 C 262.20358,219.94671999999997 263.37067,219.96400999999997 264.54166,219.97917999999999 L 265.72265999999996,219.98934 L 266.91967999999997,219.9955 L 268.13867,219.99867" fill="none" id="svg_17" stroke="#fff" stroke-width="20"/>
	<path d="M 229.0,181.0 C 223.83333,191.0 223.47087,191.75824 222.99033,193.166 C 222.77396,193.79987 222.60831,194.41309 222.48934,195.008 C 222.2596,196.15667000000002 222.1596,197.33284 222.12151,197.94284000000002 C 222.04245,199.20900000000003 222.03347,199.86127000000002 222.02083,200.52083000000002 C 222.00809999999998,201.18529 222.00066999999999,202.51734000000002 222.0,203.83333000000002 C 221.99968,204.47817 222.0,205.11200000000002 222.0,206.34267000000003 C 222.0,206.93750000000003 222.0,207.51734000000002 222.0,208.62801000000002 C 222.0,209.66668 222.0,210.62667000000002 222.0,211.50667 C 222.0,212.30667000000003 222.0,213.02667000000002 222.0,214.22667 C 222.0,215.10667 222.0679,216.02078 222.68266,216.59467 C 223.31595,217.18586000000002 224.27861,217.99363 224.84832,218.48217 C 225.46516,219.0111 226.122,219.56615 226.81333,220.13067 C 227.51862,220.70658 228.22268,221.29162000000002 229.66666,222.33334000000002 C 230.34833,222.82512000000003 231.02056000000002,223.26280000000003 231.66765,223.66685 C 232.28211000000002,224.05053 232.87421,224.39718000000002 233.43465,224.72134 C 233.96158,225.02609999999999 234.48021,225.27102 235.71448,226.07867 C 236.3989,226.52651999999998 236.9744,227.00612999999998 237.55348,227.45268 C 238.49237,228.17667999999998 239.25221000000002,228.68779999999998 239.66699,228.95268 C 240.5366,229.50800999999998 240.99075,229.78369999999998 241.91864999999999,230.31600999999998 C 243.26997999999998,231.09121999999996 243.70664,231.31068 244.49998,231.73200999999997 L 245.17332,232.08133999999998 L 246.00531999999998,232.50267999999997 L 245.11431,232.05716999999996" fill="none" id="svg_18" stroke="#000" stroke-width="2"/>
	<path d="M 283.0,338.0 C 283.0,329.86716 283.00571,330.2287 282.99866,331.15201 C 282.9935,331.82938 282.96594999999996,332.73075 282.94284,333.27533 C 282.91687,333.88809 282.83594,335.33353 282.77832,336.17099 C 282.71616,337.07486 282.64218,338.03067000000004 282.55334,339.02399 C 282.46227999999996,340.04203 282.35937,341.07004 282.23834,342.09299000000004 C 282.11926,343.09940000000006 281.84121,345.00144000000006 281.67897999999997,345.87116000000003 C 281.52608999999995,346.69074 281.35684,347.46161 281.19600999999994,348.19468 C 281.04213999999996,348.89597 280.88954999999993,349.5705 280.76698999999996,350.23017 C 280.64703,350.87595 280.48790999999994,352.16611 280.46398,352.82166 C 280.43971999999997,353.48633 280.45519,354.16175 280.476,354.84668 C 280.49712,355.54175 280.53002,356.24655 280.54198,356.96166999999997 C 280.55413000000004,357.68658 280.51165000000003,359.16772 280.43581,359.92199999999997 C 280.35854,360.69061999999997 280.24092,361.47121999999996 280.11333,362.26800999999995 C 279.98268,363.08392999999995 279.83574000000004,363.91799999999995 279.70082,364.7760099999999 C 279.56233000000003,365.6566899999999 279.3235,367.49911999999995 279.243,368.46417999999994 C 279.16057,369.4525499999999 279.10817,370.46225999999996 279.07198,371.48666999999995 C 279.03544999999997,372.52063999999996 279.01836,373.55996999999996 279.00899,374.5991599999999 C 278.99967999999996,375.63330999999994 278.99998999999997,377.6666599999999 278.99998999999997,378.65750999999995 C 278.99998999999997,379.6333399999999 278.99998999999997,380.5991599999999 278.99998999999997,381.5600099999999 C 278.99998999999997,382.5208599999999 278.99998999999997,383.4866799999999 278.99998999999997,384.4625099999999 C 278.99998999999997,385.4533499999999 278.99998999999997,387.5000199999999 278.99998999999997,388.5636799999999 C 278.99998999999997,389.64933999999994 278.99998999999997,390.74900999999994 278.99998999999997,391.8546999999999 C 278.99998999999997,392.95836999999995 278.99998999999997,394.05202999999995 278.99998999999997,395.12767999999994 C 278.99998999999997,396.17735999999996 278.99998999999997,398.16667999999993 278.99998999999997,399.09184999999997 C 278.99998999999997,399.96801 278.99998999999997,400.79619999999994 278.99998999999997,401.57734999999997 C 278.99998999999997,402.31251999999995 278.99998999999997,403.00266999999997 278.99998999999997,403.64885 L 278.99998999999997,404.25203" fill="none" id="svg_19" stroke="#000" stroke-width="2"/>
	<path d="M 287.0,322.0 C 287.0,332.0 287.0,333.22733 287.0,334.49866 C 287.0,335.79801 287.0,337.10934999999995 287.0,338.41666 C 287.0,339.70401 287.0,340.95533 287.0,342.15466999999995 C 287.0,344.33334999999994 287.0,345.28515999999996 287.0,346.14802 C 287.0,346.93284 287.0,347.65067999999997 287.0,348.31251 C 287.0,348.92933 287.0,349.51219 287.0,350.072 C 287.0,351.16667 287.0,351.72083 287.0,352.28001 C 287.0,352.83918 287.0,353.39335 287.0,353.93751000000003 C 287.0,354.46668000000005 287.0,354.97584 287.0,355.46000000000004 C 287.0,356.33335000000005 287.0,357.05601 287.0,357.87501000000003 C 287.0,358.88569 286.49271,359.18525000000005 285.66949,359.44218 C 284.82107,359.70698 284.29452,359.85997000000003 283.01198999999997,360.04133 C 282.26153,360.14744 281.42276,360.23655 279.49999999999994,360.16667 C 278.4061899999999,360.12691 277.24199999999996,359.98778 276.02599999999995,359.81419 C 274.76976999999994,359.63487 273.4977099999999,359.4073 272.22799999999995,359.14668 C 270.97162,358.88881 269.74616,358.62959 267.49999999999994,358.00001000000003 C 266.48778999999996,357.71629 265.55745999999994,357.40727000000004 264.68749999999994,357.10002000000003 C 263.85750999999993,356.80690000000004 263.06249999999994,356.50001000000003 262.2799999999999,356.20003 C 261.4974999999999,355.90001 260.7078299999999,355.57744 258.99999999999994,355.00002 C 258.07589999999993,354.68758 257.09533999999996,354.39641 256.07949999999994,354.09551 C 255.03802999999994,353.78701 253.97810999999993,353.48278 252.91599999999994,353.16402 C 251.85775999999993,352.84641999999997 250.80640999999994,352.5494 248.83332999999993,351.83335999999997 C 247.90092999999993,351.49498 247.01977999999994,351.12260999999995 246.17232999999993,350.74735999999996 C 245.34513999999993,350.38109 244.54186999999993,349.99958999999996 243.74532999999994,349.62534999999997 C 242.95119999999994,349.25224 242.16124999999994,348.85914999999994 240.49999999999994,348.16666999999995 C 239.64177999999995,347.80890999999997 238.75422999999995,347.48175999999995 237.85549999999995,347.16617999999994 C 236.95815999999994,346.85108999999994 236.06373999999994,346.55857999999995 235.18400999999994,346.28266999999994 C 234.33068999999995,346.01502999999997 233.50945999999993,345.7669199999999 231.99999999999994,345.3333599999999 C 231.33063999999993,345.14109999999994 230.72051999999994,344.9714499999999 230.16999999999993,344.8233499999999 C 229.68044999999992,344.6916699999999 229.25072999999992,344.5803099999999 228.88000999999994,344.4933599999999 C 228.57060999999993,344.4207899999999 228.32249999999993,344.3320699999999 228.00000999999995,344.33335999999986 C 227.92804999999996,344.33362999999986 227.90320999999994,344.37379999999985 227.93401999999995,344.40983999999986 C 227.98569999999995,344.47035999999986 228.08233999999996,344.52259999999984 228.19201999999996,344.58534999999983 C 228.31161999999995,344.65376999999984 228.40492999999995,344.8061799999998 228.91717999999995,344.9428599999998 C 229.57398999999995,345.1181199999998 230.55097999999995,344.9882999999998 231.50468999999995,345.0180199999998 C 232.06295999999995,345.0354199999998 232.67062999999996,345.0511599999998 233.98867999999996,345.2286799999998 C 234.69721999999996,345.32410999999985 236.17110999999997,345.65198999999984 236.92184999999995,345.88599999999985 C 237.69285999999994,346.12635999999986 238.46931999999995,346.42093999999986 239.25735999999995,346.74399999999986 C 240.06581999999995,347.07541999999984 240.88346999999996,347.4408999999999 241.71884999999995,347.81800999999984 C 242.57284999999996,348.20353999999986 244.33198999999993,349.00309999999985 245.24284999999995,349.40000999999984 C 246.16798999999995,349.80314999999985 247.10925999999995,350.20142999999985 248.06135999999995,350.60001999999986 C 249.02024999999995,351.00144999999986 249.98542999999995,351.39981999999986 250.95184999999995,351.79999999999984 C 251.91742999999994,352.1998399999998 253.83421999999996,352.99796999999984 254.77852999999996,353.40018999999984 C 255.71555999999995,353.79929999999985 256.6441,354.20169999999985 257.56401999999997,354.61066999999986 C 258.48042999999996,355.0180799999999 259.39099,355.4325699999999 260.29553,355.85718999999983 C 261.20032,356.28189999999984 263.00174,357.1632799999998 263.8992,357.62100999999984 C 264.7951,358.0779499999998 265.6785,358.54184999999984 266.54669,359.0040099999998 C 267.39682,359.4565599999998 268.22024,359.9022899999998 269.01419,360.3330199999998 C 269.77356,360.7449799999998 271.16611,361.5011099999998 271.79152999999997,361.8349999999998 C 272.36479999999995,362.14102999999983 272.88678,362.4158099999998 273.35600999999997,362.66000999999983 C 273.77049999999997,362.87570999999986 274.13048999999995,363.0604599999998 274.43453,363.2149999999998 C 274.68117,363.3403699999998 274.99998999999997,363.5000599999998 275.07134,363.5356799999998 C 275.09069,363.5453199999998 275.06902,363.5267999999998 274.80803000000003,363.40399999999977 C 273.90324000000004,362.97827999999976 273.14668,363.00000999999975 272.33336,363.00000999999975 C 271.14803,363.00000999999975 270.43285000000003,363.00000999999975 269.65068,363.00000999999975 C 268.81251000000003,363.00000999999975 267.92934,363.00000999999975 267.01219000000003,363.00000999999975 C 266.07200000000006,363.00000999999975 264.16667,363.00000999999975 263.22035000000005,363.00000999999975 C 262.27601000000004,363.00000999999975 261.32567000000006,363.00000999999975 260.36134000000004,363.00000999999975 C 259.37501000000003,363.00000999999975 258.35868000000005,363.00000999999975 257.30433000000005,363.00000999999975 C 256.20402000000007,363.00000999999975 253.83334000000005,363.00000999999975 252.55117000000004,363.00000999999975 C 251.21601000000004,363.00000999999975 249.84484000000003,363.00000999999975 248.45467000000005,363.00000999999975 C 247.06250000000006,363.00000999999975 245.68534000000005,363.00000999999975 244.34017000000006,363.00000999999975 C 243.04401000000007,363.00000999999975 240.66668000000007,363.00000999999975 239.61533000000006,363.00000999999975 C 238.65601000000007,363.00000999999975 237.78067000000004,363.00000999999975 236.98134000000005,363.00000999999975 C 236.25000000000006,363.00000999999975 235.57868000000005,363.00000999999975 234.95934000000005,363.00000999999975 C 234.38401000000005,363.00000999999975 233.33333000000005,363.00000999999975 232.84400000000005,363.00000999999975 C 232.37867000000006,363.00000999999975 231.94134000000005,363.00000999999975 231.53600000000006,363.00000999999975 C 231.16668000000007,363.00000999999975 230.83733000000007,363.00000999999975 230.55201000000005,363.00000999999975 C 230.31467000000006,363.00000999999975 230.00001000000006,363.00000999999975 229.92968000000005,363.00000999999975 C 229.91734000000005,363.00000999999975 229.96101000000004,363.00000999999975 230.20834000000005,363.00000999999975 C 230.94935000000004,363.00000999999975 232.08635000000004,363.00000999999975 233.03769000000005,363.00000999999975 C 233.56535000000005,363.00000999999975 234.71468000000004,363.00000999999975 235.33235000000005,363.00000999999975 C 235.97601000000006,363.00000999999975 237.33334000000005,363.00000999999975 238.04318000000004,363.00000999999975 C 238.77202000000003,363.00000999999975 239.51884000000004,363.00000999999975 240.28268000000003,363.00000999999975 C 241.06251000000003,363.00000999999975 241.85734000000002,363.00000999999975 242.66618000000003,363.00000999999975 C 243.48802000000003,363.00000999999975 245.16668,363.00000999999975 246.02168000000003,363.00000999999975 C 246.88669000000004,363.00000999999975 247.76169000000004,363.00000999999975 248.64668000000003,363.00000999999975 C 249.54168000000004,363.00000999999975 250.44668000000004,363.00000999999975 251.36168000000004,363.00000999999975 C 252.28668000000005,363.00000999999975 254.16669000000005,363.00000999999975 255.12302000000003,363.00000999999975 C 256.09734000000003,363.00000999999975 257.09768,363.00000999999975 258.13201000000004,363.00000999999975 C 259.20836,363.00000999999975 260.33468000000005,363.00000999999975 261.51903000000004,363.00000999999975 C 262.76937000000004,363.00000999999975 265.50002000000006,363.00000999999975 266.99101,363.00000999999975 C 268.54802,363.00000999999975 270.14702,363.00000999999975 271.76402,363.00000999999975 C 273.37501000000003,363.00000999999975 274.95601,363.00000999999975 276.48301000000004,363.00000999999975 L 277.93202,363.00000999999975" fill="none" id="svg_20" stroke="#000" stroke-width="2"/>
	<path d="M 307.0,323.0 C 307.0,334.83334 306.99829,335.97818 307.00266,337.112 C 307.00699,338.23383 307.01612,339.3428 307.04166,340.4375 C 307.06687,341.51746 307.10076999999995,342.582 307.17066,343.62799 C 307.30698,345.66858 307.43451,346.65781 307.56934,347.62668 C 307.70169,348.57782000000003 307.85712,349.50739000000004 308.02085,350.41666000000004 C 308.18122,351.30744000000004 308.35267,352.17652000000004 308.51734,353.02668000000006 C 308.83494,354.66636000000005 308.97971,355.45634000000007 309.116,356.22535000000005 C 309.24834999999996,356.97199000000006 309.37241,357.69642000000005 309.5,358.39585000000005 C 309.62317,359.07108000000005 309.74301,359.72163000000006 309.884,360.34135000000003 C 310.14859,361.50425 310.31433000000004,362.03706000000005 310.48266,362.53868000000006 C 310.64175,363.0127100000001 310.81036,363.45113000000003 310.97915,363.85417000000007 C 311.13473,364.22569000000004 311.40823,364.5077300000001 311.82934,365.6640100000001 C 312.06637,366.31486000000007 311.99999,367.4061700000001 311.99999,367.97917000000007 C 311.99999,369.16667000000007 311.33254000000005,369.8324100000001 310.84798,370.22667000000007 C 310.16954,370.7786700000001 309.75878,371.1165900000001 309.26934,371.45335000000006 C 308.13168,372.2361000000001 306.67293,373.01347000000004 305.82766,373.40001000000007 C 304.92116999999996,373.81453000000005 303.93703,374.2089700000001 302.89065,374.6000200000001 C 301.79513,375.00941000000006 300.64453,375.4055600000001 299.44966999999997,375.80000000000007 C 298.22051,376.20576000000005 295.66731999999996,377.00221000000005 294.35731999999996,377.40001000000007 C 293.03266999999994,377.80223000000007 291.69480999999996,378.20058000000006 290.34932,378.6000200000001 C 289.00014,379.00056000000006 287.65031,379.39891000000006 286.30530999999996,379.80000000000007 C 284.96763,380.1989300000001 282.33259,380.9976300000001 281.0438,381.39967000000007 C 279.77659,381.7949900000001 278.53648,382.18998000000005 277.32532,382.57869000000005 C 276.14547999999996,382.9573500000001 275.00144,383.32838000000004 273.89480999999995,383.68568000000005 C 272.82944,384.02967000000007 270.83404999999993,384.66899000000006 269.90698999999995,384.95701 C 269.02331999999996,385.23155 268.17322999999993,385.48884000000004 267.34797,385.72801000000004 C 266.54251999999997,385.96144000000004 265.74625,386.1822 264.95097,386.391 C 264.15155999999996,386.60087000000004 262.50047,387.00218 261.63664,387.20002 C 260.75383,387.40223 259.85972,387.59892 258.96666,387.8 C 258.08308,387.99894 257.21882999999997,388.19526 256.38664,388.40001 C 255.59219,388.59548 254.16346,388.99043 253.55131,389.19951000000003 C 253.00099,389.38747 252.51942,389.57927 252.10531,389.76802000000004 C 251.74708,389.93132 251.45149,390.08668000000006 251.21731,390.22850000000005 C 251.03341,390.33986000000004 250.79366,390.49593000000004 250.80964,390.53535000000005 C 250.82284,390.56788000000006 250.94447,390.52461000000005 251.11865,390.48133000000007 C 251.37521,390.41758000000004 251.72056,390.3287400000001 252.16565,390.22935000000007 C 252.7151,390.1066400000001 254.16591,389.82887000000005 255.07799,389.6786900000001 C 256.09648,389.5110000000001 257.20235,389.34535000000005 258.372,389.1746600000001 C 259.58303,388.99793000000005 260.81463,388.8250500000001 262.04400000000004,388.65269000000006 C 263.24929000000003,388.4837100000001 265.50045000000006,388.16978000000006 266.50750000000005,388.02085000000005 C 267.4404200000001,387.88288000000006 268.31387000000007,387.74683000000005 269.1400100000001,387.59333000000004 C 269.93890000000005,387.44489000000004 270.7224700000001,387.27650000000006 271.50250000000005,387.07584 C 272.30264000000005,386.87003000000004 274.0023800000001,386.34015000000005 274.92816000000005,386.01450000000006 C 275.90790000000004,385.66986 276.92148000000003,385.28736000000004 277.96268000000003,384.88800000000003 C 279.02185000000003,384.48175000000003 280.08362000000005,384.06430000000006 281.14118,383.6535 C 282.18094,383.24963 284.16456,382.49411000000003 285.09202000000005,382.16501 C 285.96739,381.8544 286.79817,381.57678 287.58802000000003,381.34 C 288.33106000000004,381.11724999999996 289.03623000000005,380.92904999999996 289.706,380.78501 C 290.33521,380.6497 291.4993,380.48731 292.03483,380.46433 C 292.53831,380.44272 293.01121,380.45826 293.44935,380.49735000000004 C 293.85496,380.53354 294.22488999999996,380.59131 294.55784,380.65635000000003 C 294.85554,380.71449 295.33335,380.83335000000005 295.51402,380.87852000000004 C 295.65867000000003,380.91468000000003 295.77134,380.94285 295.856,380.96400000000006 C 295.91667,380.97917000000007 295.95735,380.98936000000003 295.98201,380.99552000000006 C 295.99467,380.99869000000007 296.00002,381.00001000000003 295.99901,381.0016800000001 C 295.99202,381.0133400000001 295.6574,381.5718700000001 295.00002,382.6666600000001 C 294.66988000000003,383.2164600000001 294.28002,383.8656700000001 293.82103,384.6076700000001 C 293.30171,385.4472100000001 292.71318,386.3781500000001 292.04802,387.3946600000001 C 291.32094,388.5057700000001 290.52974,389.7103900000001 288.66667,392.3333500000001 C 287.64067,393.7778400000001 286.53450000000004,395.2691700000001 285.38319,396.7988300000001 C 284.21324000000004,398.3532700000001 283.02525,399.89926000000014 281.83866,401.4173300000001 C 280.68275,402.8961500000001 279.57328,404.3143600000001 277.50001000000003,406.8333500000001 C 276.60038000000003,407.92637000000013 275.77217,408.8956400000001 275.01451000000003,409.7613300000001 C 274.32777000000004,410.5459700000001 273.68928000000005,411.2516300000001 273.09602,411.8973500000001 C 272.54216,412.5001900000001 272.00602000000003,413.06254000000007 271.00001000000003,414.16667000000007 C 270.49818000000005,414.71745000000004 270.00752000000006,415.27308000000005 269.53150000000005,415.8211800000001 C 269.0729400000001,416.3491600000001 268.64423000000005,416.85280000000006 268.2520200000001,417.3226800000001 C 267.8987200000001,417.7459600000001 267.58661000000006,418.1104300000001 267.1666600000001,418.6666700000001 C 267.0470900000001,418.8250600000001 266.9793100000001,418.9190200000001 266.9911800000001,418.9246700000001 C 267.0525500000001,418.9538800000001 267.1086400000001,418.7524000000001 267.2026700000001,418.5707000000001 C 267.3229700000001,418.33825000000013 267.4726000000001,418.0579700000001 267.66666000000015,417.3333600000001 C 267.7780500000001,416.9174700000001 267.83924000000013,416.4478900000001 267.92166000000014,415.9353500000001 C 268.01248000000015,415.37056000000007 268.1134000000001,414.7475100000001 268.2666600000002,414.0693500000001 C 268.43561000000017,413.3217000000001 268.6252400000002,412.4916800000001 269.3333400000002,410.6666700000001 C 269.7413000000002,409.61522000000014 270.27319000000017,408.5092300000001 270.8708200000002,407.33818000000014 C 271.5057700000002,406.09398000000016 272.2189600000002,404.8066200000001 272.9933500000002,403.4786800000001 C 273.7969700000002,402.1006600000001 274.6420300000002,400.6881500000001 276.50000000000017,397.8333600000001 C 277.45178000000016,396.3709600000001 278.44748000000016,394.9149900000001 279.4670100000002,393.4608600000001 C 280.49014000000017,392.0016000000001 281.5349100000002,390.5575100000001 282.5960100000002,389.13335000000006 C 283.6496600000002,387.7191700000001 284.6980000000002,386.32354000000004 286.8333500000002,383.66668000000004 C 287.8692400000002,382.37780000000004 288.9123600000002,381.13342000000006 289.9608500000002,379.92419000000007 C 290.9990900000002,378.72677000000004 292.0546900000002,377.55523000000005 293.1333400000002,376.40670000000006 C 294.2163800000002,375.25350000000003 295.3191000000002,374.0985600000001 297.6666700000002,371.83337000000006 C 298.8738500000002,370.66854000000006 300.1256200000002,369.51992000000007 301.3881700000002,368.3743600000001 C 302.6443300000002,367.23462000000006 303.89473000000015,366.1237500000001 305.1186700000002,365.0413500000001 C 306.30242000000015,363.9944700000001 307.44383000000016,363.00333000000006 309.5000200000002,361.1666900000001 C 310.40938000000017,360.35440000000006 311.23098000000016,359.6015700000001 311.9855200000002,358.9181900000001 C 312.6750600000002,358.2936800000001 313.3125200000002,357.7291900000001 313.9040100000002,357.21870000000007 L 314.4595200000002,356.76020000000005 L 314.98802000000023,356.3507200000001" fill="none" id="svg_21" stroke="#000" stroke-width="2"/>
</svg>
