<?xml version="1.0" ?>
<svg baseProfile="full" height="480" version="1.1" width="640" xmlns="http://www.w3.org/2000/svg" xmlns:ev="http://www.w3.org/2001/xml-events" xmlns:xlink="http://www.w3.org/1999/xlink">
	<defs/>
	<path d="M 198.0,212.0 C 199.84665999999999,210.60001 200.45428,210.2818 201.42134,209.89999 C 202.21950999999999,209.58487 203.05303999999998,209.31456 203.83333,209.0 C 204.78195,208.61757 205.44808999999998,208.28873 206.42134,207.89983 C 207.22165999999999,207.58004 207.81315999999998,207.43467 208.83333,206.83333000000002 C 209.57419,206.39664000000002 210.16367,205.79242000000002 211.0,205.16667 C 211.57867,204.7337 212.34283,204.30450000000002 213.11467,203.8 L 213.79865999999998,203.19999" fill="none" id="svg_1" stroke="#000" stroke-width="2"/>
	<path d="M 196.0,213.0 C 197.82533,212.46133 198.82191,212.90601 199.58934,212.98933 C 200.41655,213.07914 201.33383,212.97807 202.26134,213.01066 C 203.05272,213.03846000000001 204.09505,213.17468 204.75332999999998,213.436 C 205.53707999999997,213.74713 206.33387,214.52203 207.33333,214.83332000000001 C 207.99257,215.03864000000002 208.82134,215.02532000000002 210.0,215.16666 L 210.60001,215.28398 L 211.5,215.49998000000002 L 212.10001,215.64732000000004" fill="none" id="svg_2" stroke="#000" stroke-width="2"/>
</svg>
