<?xml version="1.0" ?>
<svg baseProfile="full" height="480" version="1.1" width="640" xmlns="http://www.w3.org/2000/svg" xmlns:ev="http://www.w3.org/2001/xml-events" xmlns:xlink="http://www.w3.org/1999/xlink">
	<defs/>
	<path d="M 225.0,182.0 C 216.87199,184.85699 215.85359,185.28041 215.336,185.69099 C 214.52933000000002,186.33088 213.83745000000002,187.00686 213.17467000000002,187.39999 C 212.48819000000003,187.80716 211.62720000000002,188.39079 211.00000000000003,189.0 C 210.39133000000004,189.5912 209.65939000000003,190.2719 209.20000000000002,190.88533 C 208.64875,191.62143 208.30715,192.40813 207.89983,193.20000000000002 C 207.48639,194.00376000000003 207.14087,194.62030000000001 206.51734000000002,195.39867 C 205.88712,196.18538 205.28925,196.81539 204.98534,197.62534000000002 C 204.66919000000001,198.46788000000004 204.23575,199.31705000000002 204.05716,200.24733000000003 C 203.8835,201.15193000000002 204.03465,201.85193000000004 203.91467,202.68666000000005 C 203.77017,203.69195000000005 203.47748,204.47307000000004 203.28399,205.23067000000003 C 203.00303,206.33078000000003 203.05265,207.16959000000003 202.97916999999998,208.02083000000005 C 202.89403,209.00713000000005 202.53302999999997,209.78609000000006 202.28399,210.60001000000005 C 202.04309999999998,211.38730000000007 202.03538999999998,212.37699000000006 201.64732999999998,213.24733000000006 C 201.34881,213.91686000000007 201.04197,214.82556000000005 200.99998999999997,215.83333000000007 C 200.96847999999997,216.58954000000008 200.57316999999998,217.40882000000008 199.89997999999997,218.10001000000008 C 199.40661999999998,218.6065700000001 198.72808999999998,219.34061000000008 198.11465999999996,219.80001000000007 C 197.37855999999996,220.35126000000008 196.59594999999996,220.70090000000008 195.59999999999997,221.20000000000007 C 195.00026999999997,221.50055000000006 193.99998999999997,222.00000000000009 193.39998999999997,222.30001000000007 C 192.59999999999997,222.70000000000007 191.57678999999996,223.16033000000007 191.02082,223.52084000000008 C 190.12233999999998,224.1034400000001 189.73033999999998,224.89352000000008 189.20132999999998,225.43068000000008 C 188.50555999999997,226.13716000000008 187.23925999999997,226.28603000000007 187.08666,227.19869000000008 C 186.96412,227.93157000000008 188.19998999999999,228.0000200000001 189.1,228.0000200000001 C 189.99999,228.0000200000001 190.79999999999998,228.0000200000001 191.69998999999999,228.0000200000001 C 192.6,228.0000200000001 193.49999,228.0000200000001 194.39998999999997,228.0000200000001 C 195.29999999999998,228.0000200000001 196.19998999999999,228.0000200000001 197.09999999999997,228.0000200000001 C 197.99998999999997,228.0000200000001 198.91624999999996,228.1543200000001 198.99998999999997,229.0000200000001 C 199.07881999999998,229.7961300000001 198.98957999999996,230.7000800000001 198.99998999999997,231.6000300000001 C 199.01040999999998,232.5002100000001 199.54316999999998,233.20333000000008 199.87847999999997,234.1000300000001 C 200.19655999999998,234.95066000000008 199.97057999999996,235.7578200000001 200.00448999999998,236.6571900000001 C 200.03269999999998,237.4058500000001 200.30543999999998,238.3925400000001 200.57464999999996,239.2000200000001 C 200.90522999999996,240.19155000000012 200.92275999999995,241.0160000000001 201.16665999999995,242.00002000000012 C 201.37216999999995,242.82917000000012 201.72555999999994,243.44881000000012 202.09982999999994,244.4213600000001 C 202.40674999999993,245.21886000000012 202.67949999999993,246.0396500000001 202.87881999999993,247.07853000000011 C 203.00953999999993,247.7598300000001 203.11106999999993,248.6303500000001 203.56797999999992,249.40136000000012 C 203.95301999999992,250.05109000000013 204.53358999999992,250.65058000000013 204.8306599999999,251.68403000000012 C 205.0597999999999,252.48115000000013 205.0169699999999,253.33158000000012 205.2853299999999,254.31736000000012 C 205.5475999999999,255.28078000000014 205.8181799999999,255.7638600000001 206.2013299999999,256.96935000000013 C 206.4203199999999,257.65838000000014 206.6135599999999,258.3933900000001 206.8853199999999,259.11736000000013 C 207.2884399999999,260.1913000000001 207.6394699999999,260.84603000000016 208.1746599999999,261.7533500000001 C 208.5078499999999,262.31823000000014 209.1246599999999,263.3093200000001 209.4791599999999,263.9791800000001 C 210.01521999999989,264.9921200000001 210.3044899999999,265.6090300000001 210.75715999999989,266.5143700000001 C 211.1666599999999,267.3333700000001 211.47929999999988,267.9711600000001 211.8359899999999,268.6506900000001 C 212.2044399999999,269.3526600000001 212.5544699999999,270.0646000000001 213.3999899999999,271.2306800000001 C 213.7795699999999,271.7541500000001 214.4165599999999,272.4346900000001 214.9999999999999,273.1666800000001 C 215.6225099999999,273.9476900000001 216.0203699999999,274.5419900000001 216.45716999999988,275.1616800000001 C 217.16593999999986,276.1672000000001 217.68330999999986,276.8845500000001 218.22532999999987,277.6253600000001 C 218.49964999999986,278.0003000000001 219.05375999999987,278.7427600000001 219.83332999999988,279.8333700000001 C 220.31734999999986,280.5105200000001 220.76118999999989,281.1481900000001 221.15333999999987,281.7533500000001 C 221.84736999999987,282.8243900000001 222.08937999999986,283.3307400000001 222.62533999999988,284.1893500000001 C 223.14150999999987,285.0162500000001 223.64717999999988,285.6093900000001 224.21066999999988,286.2000300000001 C 224.98645999999988,287.01317000000006 225.60000999999988,287.6000200000001 226.0000099999999,288.00002000000006 C 226.6000199999999,288.60003000000006 227.39513999999988,289.40923000000004 228.0416799999999,290.0208600000001 C 228.5089699999999,290.4629100000001 229.3284499999999,291.17275000000006 229.9693399999999,291.68401000000006 C 230.6561699999999,292.23192000000006 231.38234999999992,292.7787400000001 232.1173499999999,293.31603000000007 C 232.8304699999999,293.83733000000007 233.51253999999992,294.3178000000001 234.1640099999999,294.76403000000005 C 235.0924799999999,295.39999000000006 236.00125999999992,295.99816000000004 236.5986699999999,296.40002000000004 C 237.19056999999992,296.79818000000006 238.0568199999999,297.38205000000005 238.8333299999999,298.00003000000004 C 239.56080999999992,298.57898000000006 239.96812999999992,299.02261000000004 240.68400999999992,299.51471000000004 C 241.64747999999992,300.177 242.2464899999999,300.37515 243.1616699999999,300.75269000000003 C 244.16645999999992,301.16718000000003 244.8848099999999,301.4823 245.6253399999999,301.82538000000005 C 246.3754899999999,302.17291000000006 247.10827999999992,302.53418000000005 248.1786699999999,302.97852000000006 C 248.8427499999999,303.25419000000005 249.4951399999999,303.49460000000005 250.4839999999999,303.7987100000001 C 251.51699999999988,304.1163700000001 252.2666099999999,304.30295000000007 253.0625099999999,304.5208800000001 C 253.91931999999989,304.7555000000001 254.37480999999988,304.8760400000001 255.8425099999999,305.3213600000001 C 256.3677199999999,305.4807200000001 257.4403499999999,305.8243500000001 257.9791699999999,306.00004000000007 C 259.0381899999999,306.34535000000005 259.5463699999999,306.5169200000001 260.9356799999999,306.9785300000001 C 261.73282999999986,307.2433900000001 262.45657999999986,307.4848500000001 263.1436899999999,307.6955400000001 C 264.16413999999986,308.0084400000001 264.8837999999999,308.2008800000001 265.62534999999986,308.4000400000001 C 266.74701999999985,308.7013100000001 267.8328999999999,309.0016300000001 268.51734999999985,309.1987200000001 C 269.1848899999998,309.3909500000001 269.8515199999998,309.6247100000001 271.33335999999986,309.8333900000001 C 272.1625799999999,309.9501800000001 272.60087999999985,309.9467600000001 273.47916999999984,310.0000500000001 C 274.3375399999998,310.0521100000001 275.51407999999986,310.1077800000001 276.42850999999985,310.35723000000013 C 277.18268999999987,310.5629500000001 278.00000999999986,311.0000500000001 278.78934999999984,311.38940000000014 L 279.51468999999986,311.7147200000001 L 280.47916999999984,311.9792200000001 L 281.45835999999986,311.95841000000013" fill="none" id="svg_1" stroke="#000" stroke-width="2"/>
	<path d="M 221.0,182.0 C 223.58934,181.01067 224.513,181.14209 225.39999,180.98933 C 226.23314,180.84584999999998 226.99481,180.14747 227.67199,179.97467 C 228.53689,179.75397 229.25451999999999,179.54878 230.05183,179.35266000000001 C 231.30527999999998,179.04433 231.97902,179.01042 233.0,179.00000000000003 C 233.79996,178.99184000000002 234.60001,179.00000000000003 235.5955,179.00000000000003 C 236.51466,179.00000000000003 237.38532999999998,179.00000000000003 238.33332,179.00000000000003 C 239.25065999999998,179.00000000000003 239.99464999999998,179.00000000000003 241.03065999999998,179.00000000000003 C 241.74815999999998,179.00000000000003 242.66165999999998,179.00000000000003 243.46166,179.00000000000003 C 244.42132999999998,179.00000000000003 245.22531999999998,179.00000000000003 246.04731999999998,179.00000000000003 C 247.31332999999998,179.00000000000003 247.95832,179.00000000000003 248.97898999999998,179.00000000000003 C 249.86699,179.00000000000003 250.76414999999997,179.00000000000003 251.68665,179.00000000000003 C 252.35998999999998,179.00000000000003 253.03332999999998,179.00000000000003 254.22798999999998,179.00000000000003 C 255.14265999999998,179.00000000000003 256.11733,179.00000000000003 256.96932,179.00000000000003 C 257.76934,179.00000000000003 258.52083,179.00000000000003 259.31730999999996,179.00000000000003 C 260.54283,179.00000000000003 261.39574,178.97891000000004 262.39997999999997,179.00133000000002 C 263.20054999999996,179.0192 264.20964,179.19620000000003 264.79997,179.43601 C 265.61478999999997,179.76702 266.60724999999996,180.27868 267.16398,180.60001 C 268.13797999999997,181.16217 268.72938,181.72298 269.65265999999997,181.94733 C 270.33536999999995,182.11321999999998 271.37275,182.42627 271.99998,183.0 C 272.64512,183.59013 273.32289,184.09735 273.99998,184.5 C 274.83528,184.99672 275.54078,185.47662 276.0998,186.32133 C 276.52888,186.96968999999999 276.78394000000003,188.00835999999998 277.05265,188.69548999999998 C 277.38789,189.55276999999998 277.76511000000005,190.39166999999998 278.28532,191.19866 C 278.68068,191.81199999999998 279.72685,191.81402 280.59999,192.03599 C 281.46226,192.2552 282.19929,192.95533 282.97066,192.99867 C 283.77074,193.04362 284.5649,192.99241 285.48799,193.08532 C 286.52486000000005,193.18967 287.25160000000005,193.34242 287.97914000000003,193.52082 C 289.03612000000004,193.78000999999998 289.96049000000005,194.0904 290.71733,194.38932 C 291.51598,194.70475 292.52885,194.90203 293.30449,195.35715 C 293.93514,195.72718999999998 294.67402999999996,196.27774 295.4045,196.75716 C 296.21972,197.29218 296.79643999999996,197.81794 297.51466999999997,198.51599 C 298.25474999999994,199.23526999999999 298.74388999999996,199.70862 299.65266999999994,200.30449 C 300.16975999999994,200.64353999999997 301.0049599999999,201.30255 301.47914999999995,201.99999 C 302.03166999999996,202.81266 302.51402999999993,203.50664 303.16664999999995,204.16666 C 303.65214999999995,204.65766000000002 304.37642999999997,205.38443 305.19981999999993,205.97849 C 305.77104999999995,206.3906 306.55830999999995,206.74177 307.3853399999999,207.42132999999998 C 308.0047899999999,207.93032999999997 308.53667999999993,208.54895 309.26131999999996,209.25065999999998 C 309.78096999999997,209.75385999999997 310.28560999999996,210.27328999999997 311.31465999999995,211.03065999999998 C 311.96031999999997,211.50585999999998 312.61909999999995,211.85634 313.39998999999995,212.48397999999997 C 314.01680999999996,212.97974999999997 314.57527999999996,213.55103999999997 315.59999999999997,214.24731999999997 C 316.18654999999995,214.64585999999997 317.01491999999996,215.14894999999999 317.59999999999997,215.65715999999998 C 318.21626999999995,216.19247 318.99998999999997,216.99998999999997 319.60448999999994,217.60449999999997 C 320.23598999999996,218.23599999999996 320.68532999999996,218.68533999999997 321.4213199999999,219.42132999999998 C 321.9526599999999,219.95265999999998 322.4999899999999,220.49999 323.04732999999993,221.04731999999998 C 324.07848999999993,222.07849 324.54283999999996,222.54281999999998 325.1893299999999,223.18931999999998 C 325.99999999999994,223.99998999999997 326.4108599999999,224.38844999999998 326.9791599999999,224.99998999999997 C 327.52660999999995,225.58911999999998 328.2358699999999,226.59979999999996 328.5893299999999,227.16398999999996 C 329.1895799999999,228.12211999999997 329.7571799999999,228.69547999999995 330.4826699999999,229.19998999999996 L 331.1386799999999,229.59999999999997 L 331.89017999999993,230.29549999999998 L 332.42533999999995,230.96399999999997" fill="none" id="svg_2" stroke="#000" stroke-width="2"/>
</svg>
