<?xml version="1.0" ?>
<svg baseProfile="full" height="480" version="1.1" width="640" xmlns="http://www.w3.org/2000/svg" xmlns:ev="http://www.w3.org/2001/xml-events" xmlns:xlink="http://www.w3.org/1999/xlink">
	<defs/>
	<path d="M 242.0,153.0 C 241.08533,148.48666 241.02217,147.84705 241.0045,146.96167 C 240.98375000000001,145.92152 241.00046,145.0 241.0,144.31599 C 240.99933,143.31733 241.12027,142.49482 240.83333,141.33332 C 240.65823999999998,140.6246 240.15545999999998,139.66853999999998 240.04817,138.99016999999998 C 239.92583,138.21657999999996 239.71751,137.13725999999997 239.29016,136.45717 C 238.86317,135.77765 238.11765999999997,135.03019999999998 237.64666999999997,134.21066 C 237.24317999999997,133.50859 237.14877999999996,132.57905 236.71333999999996,131.79733 C 236.33647999999997,131.12077 235.67625999999996,130.45904 235.17466999999996,129.74933 C 234.65012999999996,129.00713 233.95916999999997,128.1864 233.54166999999995,127.52083999999999 C 233.04142999999996,126.72336999999999 233.04924999999994,125.69864999999999 232.33599999999996,125.02149999999999 C 231.81144999999995,124.52350999999999 230.89889999999997,124.48955 230.16250999999997,123.6955 C 229.48620999999997,122.96625 229.32342999999997,122.30739 228.59100999999998,121.65266 C 227.83655,120.97824 227.20673,120.62339 226.39999999999998,120.20133 C 225.60643999999996,119.78614999999999 224.77282999999997,119.40285 224.00000999999997,118.83333 C 223.38123999999996,118.37733 222.83334999999997,117.828 222.02150999999998,117.02149 C 221.40865999999997,116.41267 220.86496999999997,115.68879 220.18568,115.35716 C 219.29388,114.92178999999999 218.42726,115.17863 217.33334,114.66664999999999 C 216.74836,114.39286999999999 216.26548,113.55136999999999 215.23201,113.16931999999998 C 214.53145,112.91033999999999 213.73938,113.00361999999998 212.80985,112.64731999999998 C 211.79357000000002,112.25775999999998 211.16456000000002,112.02089999999998 210.39869000000002,112.00131999999998 C 209.40032000000002,111.97579999999998 208.58178,112.01192999999998 207.60136000000003,111.71598999999998 C 206.81761000000003,111.47940999999997 205.83972000000003,111.19065999999998 205.11602000000002,110.83064999999998 C 204.27370000000002,110.41162999999997 203.87002,109.69369999999998 202.80003000000002,109.24297999999997 C 202.03978,108.92273999999998 201.00003,108.99997999999998 200.20002000000002,108.99997999999998 C 199.40002,108.99997999999998 198.40002,108.99997999999998 197.60003000000003,108.99997999999998 C 196.60003000000003,108.99997999999998 195.80003000000002,108.99997999999998 194.80019000000004,108.99997999999998 C 194.02085000000005,108.99997999999998 193.16669000000005,108.99997999999998 192.33869000000004,108.99997999999998 C 191.23202000000003,108.99997999999998 190.50002000000003,108.99997999999998 189.76803000000004,108.99997999999998 C 188.65069000000003,108.99997999999998 187.66670000000005,108.99997999999998 186.99468000000005,108.99997999999998 C 186.25069000000005,108.99997999999998 185.14303000000004,108.99997999999998 184.30903000000004,108.99997999999998 C 183.36402000000004,108.99997999999998 182.51469000000003,108.99997999999998 181.59553000000002,108.99997999999998 C 180.60003000000003,108.99997999999998 179.80003000000002,108.99997999999998 178.80020000000002,108.99997999999998 C 178.02086000000003,108.99997999999998 177.16670000000002,108.99997999999998 176.30453000000003,108.99997999999998 C 175.36402000000004,108.99997999999998 174.51603000000003,108.99997999999998 173.65269000000004,108.99997999999998 C 172.63603000000003,108.99997999999998 171.79838000000004,108.97586999999999 170.83335000000002,108.99997999999998 C 169.99924000000001,109.02081999999999 169.11054000000001,109.28231999999998 168.63602000000003,109.86131999999998 C 168.13721000000004,110.46995999999997 167.66625000000002,111.51807999999998 166.67868000000004,111.87864999999998 C 166.03107000000006,112.11509999999998 164.94241000000005,112.12605999999998 164.41067000000004,112.64664999999998 C 163.67070000000004,113.37110999999997 163.43293000000003,114.17349999999998 163.08268000000004,115.11464999999998 C 162.82844000000003,115.79781999999999 162.16653000000005,116.45617999999999 161.16668000000004,116.83331999999999 C 160.42785000000003,117.11200999999998 159.72884000000005,117.53239999999998 159.35717000000005,118.35181999999999 C 158.96937000000005,119.20678999999998 158.43369000000004,119.95302 157.64817000000005,119.99547999999999 C 156.75846000000004,120.04356999999999 155.79867000000004,119.99997999999998 154.83334000000005,119.99997999999998 C 154.17468000000005,119.99997999999998 153.16668000000004,119.99997999999998 152.33868000000004,119.99997999999998 C 151.45735000000005,119.99997999999998 150.50001000000003,119.99997999999998 149.76802000000004,119.99997999999998 C 148.80534000000003,119.99997999999998 148.03175000000005,120.01887999999998 146.99019000000004,119.99547999999999 C 146.21423000000004,119.97804999999998 145.16081000000005,119.85458999999999 144.45268000000004,119.64730999999999 C 143.53894000000005,119.37984999999999 142.57741000000004,119.13135999999999 141.78535000000005,119.01463999999999 C 141.00830000000005,118.90013999999998 140.13092000000006,118.56996999999998 139.50001000000006,117.97913999999999 C 138.65049000000005,117.18357999999999 137.99723000000006,116.75156999999999 137.25068000000007,116.41063999999999 C 136.33643000000006,115.99313 135.68766000000008,115.52759999999999 135.03201000000007,115.28529999999999 C 134.02978000000007,114.91493 133.17628000000008,115.05775 132.16668000000007,114.66663 C 131.41399000000007,114.37504 130.78895000000006,113.79398 130.31600000000006,113.48263 C 129.34212000000005,112.84151 128.48220000000006,112.51245 127.89551000000006,112.30446 C 126.70606000000006,111.88279 126.08760000000005,111.73676 125.23601000000006,111.36396 C 124.14244000000006,110.88522 123.69015000000006,110.50561 122.97917000000007,109.99996 C 122.23831000000007,109.47306 121.36606000000006,108.99759 120.69018000000007,108.76163 C 119.98751000000007,108.51630999999999 118.88663000000007,108.25887999999999 117.82134000000006,108.12129 C 117.15469000000006,108.03519 116.17325000000007,107.98882 115.51600000000006,107.91596 C 114.47627000000006,107.80069999999999 113.38760000000006,107.58059 112.69734000000007,107.35329 C 112.04574000000007,107.13873 111.07104000000007,106.49761 110.52084000000006,106.02079 C 109.69223000000007,105.3027 108.98715000000007,105.09977 108.17867000000007,104.98529 C 107.00198000000007,104.81868 106.39230000000006,104.74969 105.54167000000007,104.47912000000001 C 104.75983000000006,104.23043000000001 103.87146000000007,103.60591000000001 103.00001000000007,103.16662000000001 C 102.28022000000007,102.80378 101.53099000000007,102.41368000000001 100.82534000000007,101.85063000000001 C 100.03768000000007,101.22213 98.91601000000007,100.39552 98.37067000000008,101.17063 C 97.96099000000008,101.75293 98.93635000000008,102.64129 99.76800000000007,103.39996000000001 C 100.23112000000008,103.82245 101.03975000000007,104.35300000000001 101.66667000000007,104.99996 C 102.38328000000007,105.73948 102.58829000000007,106.42274 103.30900000000007,107.2428 C 103.75687000000006,107.75239 104.77629000000007,108.18294 105.50000000000007,108.52080000000001 C 106.24096000000007,108.86672000000002 107.00726000000007,109.50695 107.65067000000008,110.17463000000001 C 108.30891000000008,110.85771000000001 109.00277000000008,111.24836 109.74934000000007,111.58930000000001 C 110.66358000000008,112.00680000000001 111.34638000000008,112.41452000000001 111.96801000000008,112.88530000000002 C 112.76690000000008,113.49033000000001 113.54063000000008,114.02235000000002 114.10901000000008,114.40447000000002 C 114.99838000000008,115.00239000000002 115.60962000000008,115.38273000000002 116.45834000000008,115.99997000000002 C 116.99363000000008,116.38926000000002 117.88701000000007,117.17704000000002 118.32801000000008,117.78930000000003 C 118.83295000000008,118.49031000000002 119.38036000000008,119.42149000000002 119.97067000000008,119.79864000000002 C 120.72340000000008,120.27955000000001 121.54245000000009,120.44577000000002 122.23201000000009,120.88530000000002 C 123.27011000000009,121.54701000000001 123.5833000000001,122.25252000000002 124.33334000000009,122.83331000000001 C 124.95251000000009,123.31276000000001 126.10689000000009,123.49360000000001 126.7453300000001,124.20131 C 127.2558000000001,124.76715 127.33042000000009,125.91718 127.88666000000009,126.43064000000001 C 128.5430100000001,127.03652000000001 129.58775000000009,126.94466000000001 130.3639900000001,127.43597000000001 C 131.2015900000001,127.96612000000002 131.7438300000001,128.68433000000002 132.6481500000001,128.95180000000002 C 133.2821500000001,129.13932000000003 133.6761800000001,129.97966000000002 134.2213200000001,130.75714000000002 C 134.7223100000001,131.47166 135.3067200000001,132.05208000000002 135.6473300000001,132.75714000000002 C 136.0562700000001,133.60368000000003 136.1111100000001,134.40541000000002 136.7159900000001,135.08264000000003 C 137.3634100000001,135.80749000000003 138.2987700000001,135.60377000000003 138.88565000000008,136.35713 C 139.40929000000008,137.02931 139.1632400000001,138.168 139.42532000000008,138.8253 C 139.82808000000009,139.8354 139.9946400000001,140.58926 139.99998000000008,141.5208 C 140.00549000000007,142.48395000000002 139.99998000000008,143.17464 139.99998000000008,144.24280000000002 C 139.99998000000008,145.10015 139.99998000000008,145.88530000000003 139.99998000000008,146.82530000000003 C 139.99998000000008,147.83330000000004 139.99998000000008,148.58931000000004 139.99998000000008,149.52080000000004 C 139.99998000000008,150.48397000000003 139.99998000000008,151.17464000000004 139.99998000000008,152.25180000000003 C 139.99998000000008,152.96930000000003 139.99998000000008,154.00531000000004 139.99998000000008,154.74930000000003 C 139.99998000000008,155.66664000000003 139.99998000000008,156.57865000000004 139.99998000000008,157.52080000000004 C 139.99998000000008,158.48397000000003 139.99998000000008,159.17464000000004 139.99998000000008,160.24280000000005 C 139.99998000000008,161.10015000000004 139.9332200000001,161.88843000000006 140.01065000000008,162.82530000000006 C 140.0946500000001,163.84183000000004 140.6845800000001,164.40414000000007 140.9428200000001,165.30447000000007 C 141.1810600000001,166.13504000000006 140.8334600000001,167.11409000000006 141.4426500000001,167.97847000000007 C 141.8742400000001,168.59085000000007 142.8670700000001,169.07082000000008 142.9909700000001,169.75714000000008 C 143.1500900000001,170.63849000000008 142.9461500000001,171.58800000000008 143.4359800000001,172.36397000000008 C 143.96523000000008,173.20241000000007 144.6307400000001,173.64125000000007 145.3213100000001,174.32114000000007 C 145.9949100000001,174.98433000000006 146.59446000000008,175.31386000000006 147.4583000000001,175.97914000000006 C 148.0652000000001,176.44655000000006 148.3465800000001,177.31845000000007 148.88664000000009,177.88530000000006 C 149.6323500000001,178.66797000000005 150.09669000000008,179.25598000000005 150.97847000000007,179.75714000000005 C 151.74562000000006,180.19314000000006 152.48845000000009,180.56839000000005 153.32130000000006,181.09981000000005 C 153.97673000000006,181.51801000000006 155.16691000000006,181.59827000000004 155.71330000000006,182.16930000000005 C 156.32083000000006,182.80422000000004 156.27551000000005,183.90282000000005 157.16664000000006,183.99997000000005 C 157.97462000000004,184.08806000000004 158.67770000000004,184.44176000000004 159.35713000000007,184.94730000000004 C 160.08627000000007,185.48983000000004 160.90082000000007,185.66727000000003 161.81463000000008,185.98531000000006 C 162.68383000000009,186.28782000000007 162.7848400000001,187.10942000000006 163.3526200000001,187.89014000000006 C 163.83524000000008,188.55376000000007 164.45368000000008,189.15454000000005 165.1097900000001,189.64731000000006 C 165.76090000000008,190.13632000000007 166.71166000000008,190.46091000000007 167.0146200000001,191.14931000000007 C 167.37303000000009,191.96370000000007 167.97913000000008,192.52080000000007 168.0207800000001,193.47914000000006 L 168.54162000000008,193.97914000000006 L 169.48394000000008,193.99997000000005 L 170.34728000000007,193.99997000000005" fill="none" id="svg_1" stroke="#000" stroke-width="2"/>
	<path d="M 153.0,188.0 C 156.03067,190.68266 156.42372,191.51169 156.88266,192.23067 C 157.42072,193.07358 158.18092,193.33017 158.75716999999997,194.32151 C 159.12589999999997,194.95585 159.13730999999999,196.01035 159.43599999999998,196.81068 C 159.68076999999997,197.46652999999998 160.11332,198.41638999999998 160.38931999999997,199.21466999999998 C 160.65593999999996,199.98576999999997 160.84857999999997,201.05244 161.10981999999996,201.80533999999997 C 161.37501999999995,202.56960999999998 161.87357999999995,203.23746999999997 162.29464999999996,203.99466999999999 C 162.86066999999997,205.01252 162.92512999999997,205.80354 163.03597999999997,206.67200999999997 C 163.14867999999996,207.55501999999998 163.44311999999996,208.24559999999997 163.64731999999998,208.99466999999999 C 163.97122,210.1828 163.99930999999998,210.88267 163.99997999999997,211.83601 C 164.00050999999996,212.60135 163.99944999999997,213.60002 163.99997999999997,214.40000999999998 C 164.00064999999998,215.40000999999998 163.96060999999997,216.21696999999998 164.22130999999996,217.20001 C 164.43845999999996,218.01886 164.88094999999996,218.99367999999998 164.96398999999997,219.80002 C 165.04600999999997,220.59655999999998 164.99998999999997,221.60002 164.99998999999997,222.40000999999998 C 164.99998999999997,223.40000999999998 164.97435999999996,224.20035 165.00032999999996,225.20001 C 165.02113999999997,226.00081 165.30901999999998,227.01577999999998 165.70532999999998,227.60002 C 166.12433999999996,228.21773 166.81691999999998,229.18649 166.92798999999997,229.81068 C 167.08170999999996,230.67453 166.97698999999997,231.68364 167.02081999999996,232.47917999999999 C 167.06231999999997,233.23228999999998 167.49685999999997,234.32055 167.71599999999995,234.96801 C 168.05922999999996,235.98211999999998 167.99335999999994,236.82129999999998 167.99866999999995,237.40267 C 168.00959999999995,238.5973 167.94922999999994,239.4677 168.08531999999994,240.22935 C 168.26149999999993,241.21540000000002 168.75906999999995,241.95919 168.95181999999994,243.00984 C 169.09314999999995,243.7802 169.28247999999994,244.86275 169.70982999999995,245.54283999999998 C 170.13681999999994,246.22235999999998 170.87317999999996,246.97494999999998 171.23831999999996,247.60001 C 171.68947999999995,248.3723 171.87961999999996,249.20003 171.99998999999997,250.02083 C 172.16799999999998,251.16647999999998 172.34361999999996,251.96323999999998 172.54165999999998,252.52083 C 172.85816999999997,253.41197 173.31955,254.30114999999998 173.82531999999998,255.21066 C 174.17342999999997,255.83667 174.55315,256.46951 174.97848999999997,257.52118 C 175.26852999999997,258.23831 175.47425999999996,258.98065 175.69548999999998,259.69016 C 176.09140999999997,260.95994 176.38564999999997,261.75144 176.75716999999997,262.44819 C 177.28653999999997,263.44096 177.65436999999997,263.95896 178.02082999999996,264.52085 C 178.59695999999997,265.40421 179.19718999999995,266.30173 179.60000999999997,266.89551 C 179.99723999999998,267.48105 180.58268999999996,268.32858 181.19999999999996,269.07868 C 181.78391999999997,269.78821 182.41688999999997,270.43882 182.99999999999997,271.16666000000004 C 183.61825999999996,271.93839 183.99219999999997,272.5058 184.39998999999997,273.04734 C 185.18514999999996,274.09003 185.60680999999997,274.54136 186.19998999999999,275.22535 C 187.00936,276.15861 187.40542,276.68372 187.81065999999998,277.24667999999997 C 188.24032999999997,277.84356999999994 188.67820999999998,278.49177 189.42147999999997,279.52133999999995 C 189.95209999999997,280.25632999999993 190.51813999999996,281.00208 190.81065999999998,281.37467 C 191.396,282.12021 192.29290999999998,283.18467 192.89548,283.83835 C 193.4726,284.46445 193.76130999999998,284.75597999999997 194.83332,285.83335 C 195.31477999999998,286.31721 195.77467,286.77466 196.45265999999998,287.45267 C 197.16664999999998,288.16666000000004 197.68901999999997,288.68308 198.23599,289.24668 C 198.81459999999998,289.84290000000004 199.41777,290.47263000000004 200.29983,291.52134 C 200.90695,292.24317 201.19509,292.62095 201.76399999999998,293.37467000000004 C 202.32034,294.11176000000006 202.83576,294.83164000000005 203.31598999999997,295.516 C 203.77701999999996,296.17301000000003 204.22212999999996,296.82758 204.68399999999997,297.48402000000004 C 205.41627999999997,298.5247600000001 205.94778999999997,299.25184 206.49998999999997,299.97917000000007 C 207.04255999999998,300.69380000000007 207.28688999999997,301.05559000000005 208.31732999999997,302.2306700000001 C 208.77273999999997,302.75002000000006 209.24376999999998,303.2348500000001 210.33331999999996,304.16667000000007 C 210.63818999999995,304.42741000000007 211.31619999999995,304.9593300000001 212.04165999999995,305.54167000000007 C 212.81097999999994,306.1591900000001 213.21439999999996,306.4732200000001 214.40031999999994,307.52153000000004 C 214.80673999999993,307.88078 215.62030999999993,308.63713 216.04165999999995,309.02086 C 216.47094999999996,309.41182000000003 217.35995999999994,310.21443000000005 218.33331999999996,311.00002 C 218.83720999999997,311.4067 219.36506999999995,311.80269 219.90532999999996,312.19552 C 220.99416999999997,312.98724 221.54898999999997,313.36453 222.09465999999998,313.74285 C 222.63165999999998,314.11516 224.15730999999997,315.17791 224.62932999999998,315.51336 C 225.52862,316.15245999999996 225.95444999999998,316.46398 226.79099999999997,317.03835 C 227.19545999999997,317.31606 228.39867999999996,318.08106999999995 229.19999999999996,318.55183999999997 C 229.59936999999996,318.78646 230.41248999999996,319.24217999999996 231.19999999999996,319.76937 C 232.01338999999996,320.3139 232.80364999999995,320.96511 233.19999999999996,321.30987 C 234.00753999999995,322.01229 234.39597999999995,322.38977 235.19999999999996,323.11737 C 235.99604999999997,323.83777 236.79830999999996,324.5202 237.20899999999995,324.84286 C 238.03304999999995,325.49028999999996 238.46073999999996,325.80632999999995 239.37066999999993,326.39871 C 240.32188999999994,327.01797 241.36584999999994,327.60132 241.90533999999994,327.89101999999997 C 242.44853999999995,328.18271 243.54733999999993,328.73229999999995 244.09466999999995,328.98569 C 244.63008999999994,329.23355 246.15563999999995,329.86203 246.63200999999995,330.03204999999997 C 247.54617999999996,330.35833999999994 248.45274999999995,330.64475 248.90533999999994,330.80537 C 250.34014999999994,331.31459 250.84501999999995,331.5377 251.90983999999995,332.00538 C 252.46247999999994,332.24812000000003 253.01716999999994,332.50849 254.15183999999994,332.9947 C 254.71554999999992,333.23625000000004 255.82847999999993,333.68138000000005 256.91466999999994,334.03205 C 257.44057999999995,334.20185000000004 258.48049999999995,334.49558 258.98931999999996,334.65070000000003 C 260.00136999999995,334.9592 261.0069,335.31781 262.00133999999997,335.76804000000004 C 262.50811,335.99750000000006 263.00753999999995,336.25721000000004 264.03601,336.74936 C 264.55559999999997,336.99799 266.16351,337.67612 266.7215,337.85703 C 267.28235,338.03888 268.43485,338.33332 269.02085,338.45838000000003 C 269.60956,338.58402 270.80106,338.79893000000004 272.00001,339.00004 C 272.59970999999996,339.10063 273.79524,339.29722000000004 274.38935,339.38938 C 274.97891999999996,339.48084 276.14191,339.65052000000003 276.71466999999996,339.7147 C 278.37649999999996,339.90094999999997 278.91718,339.91853 279.45185,339.94737 C 280.52061,340.00502 281.06192999999996,340.01542 282.16934999999995,340.08405999999997 C 283.33404999999993,340.15623 283.94325,340.21601999999996 285.20532999999995,340.35270999999995 C 285.85098999999997,340.42262999999997 286.49981999999994,340.50160999999997 287.14932999999996,340.57472999999993 C 288.43168,340.71910999999994 289.66639,340.8371199999999 290.25717999999995,340.87889999999993 C 291.38969,340.9590099999999 291.9394899999999,340.97453999999993 293.01469,341.06139999999994 C 293.54862999999995,341.1045199999999 295.16803999999996,341.3266899999999 295.72150999999997,341.44271999999995 C 296.28682,341.56121999999993 297.43586999999997,341.85131999999993 298.02085999999997,342.00005999999996 C 298.61051999999995,342.14998999999995 299.79648999999995,342.45836999999995 301.00001999999995,342.66671999999994 C 301.59754999999996,342.77016999999995 302.79060999999996,342.8915099999999 303.37868,342.92806999999993 C 303.95802999999995,342.9640799999999 305.08565,342.9937699999999 305.62935,342.99740999999995 C 307.157,343.00765999999993 308.08567999999997,343.00006999999994 308.95835999999997,343.00006999999994 C 309.791,343.00006999999994 311.00001999999995,343.00006999999994 311.79735,343.00006999999994 C 312.57869,343.00006999999994 313.32802,343.00006999999994 314.02934,343.00006999999994 C 315.22935,343.00006999999994 315.95835999999997,343.00006999999994 317.00001,343.00006999999994 L 317.81068,343.00006999999994 L 318.68534,343.00006999999994" fill="none" id="svg_2" stroke="#000" stroke-width="2"/>
</svg>
