<?xml version="1.0" ?>
<svg baseProfile="full" height="480" version="1.1" width="640" xmlns="http://www.w3.org/2000/svg" xmlns:ev="http://www.w3.org/2001/xml-events" xmlns:xlink="http://www.w3.org/1999/xlink">
	<defs/>
	<path d="M 358.0,143.66666 C 356.77866,144.54551 356.15009,145.11577 355.97467,145.85201 C 355.75101,146.79075 355.13858,147.41195000000002 354.61066,148.06667000000002 C 354.01017,148.81141000000002 353.55805,149.45224000000002 352.80133,149.95200000000003 C 352.19241,150.35415000000003 351.89893,151.33217000000002 351.0,151.66666000000004 C 350.17685,151.97295000000003 349.7103,152.72358000000003 349.35266,153.36667000000003 C 348.87826,154.21979000000002 348.56027,155.06316000000004 347.90018000000003,155.76666000000003 C 347.43335,156.26419000000004 347.11591000000004,157.13569000000004 346.55701000000005,157.98816000000002 C 346.1897000000001,158.54839 345.58860000000004,159.06877000000003 344.80033000000003,159.86650000000003 C 344.21958,160.45424000000003 343.61066000000005,160.94794000000002 343.10984,161.90950000000004 C 342.6854,162.72441000000003 342.06181000000004,163.14850000000004 341.35718,163.71933000000004 C 340.62668,164.31111000000004 340.2511,164.95061000000004 339.77851000000004,165.76666000000003 C 339.39249000000007,166.43321000000003 338.16971000000007,167.20190000000002 338.56251000000003,167.64583000000002 C 339.17332000000005,168.33612000000002 340.17466,167.66741000000002 341.24284000000006,167.66666 C 342.20002000000005,167.66599 342.96434000000005,167.43814 343.6360000000001,167.092 C 344.4481300000001,166.67347 345.34733000000006,166.66892 346.37468000000007,166.66666 C 347.3215200000001,166.66458 348.0208600000001,166.66666 349.00002000000006,166.66666 C 349.78936000000004,166.66666 350.83358000000004,166.67577 351.5240100000001,166.65599 C 352.1296300000001,166.63864 353.0787900000001,166.58289 354.50002000000006,166.5 C 355.4200900000001,166.44633 356.46001000000007,166.38283 357.59002000000004,166.314 C 358.78002000000004,166.24151 360.00002000000006,166.16657999999998 361.22002000000003,166.09199999999998 C 362.41002000000003,166.01925999999997 363.53994000000006,165.94892 365.50002,165.83333 C 366.27767,165.78748 366.92128,165.75105 367.44701000000003,165.72383 C 367.87066000000004,165.7019 368.20833000000005,165.68628999999999 368.47603000000004,165.67734 C 368.68965000000003,165.6702 369.48403,165.66810999999998 370.17467000000005,165.66665999999998 C 371.24285000000003,165.66441999999998 372.10002000000003,165.44532999999998 372.70003,165.01933999999997 L 373.60002000000003,164.67733999999996 L 374.52803,164.66665999999995" fill="none" id="svg_1" stroke="#000" stroke-width="2"/>
	<path d="M 342.0,164.66666 C 343.71466,164.49601 343.85992,163.56386 344.33334,162.83333000000002 C 344.74044000000004,162.20513000000003 345.83575,161.66989 346.37466,161.26666000000003 C 347.17022000000003,160.67140000000003 347.83258,160.26004000000003 348.60131,159.86667000000003 C 349.39651000000003,159.45978000000002 350.2,159.06668000000002 351.2,158.56667000000002 C 351.79998,158.26667 352.60347,157.87355000000002 353.39867,157.46666000000002 C 354.16740999999996,157.07329000000001 355.00338,156.59525000000002 355.69548,155.96666000000002 C 356.32361999999995,155.39616 357.13441,154.86862000000002 357.75716,154.55682000000002 C 358.72103,154.07423000000003 359.17199,153.47862 359.83333,152.83332000000001 C 360.47658,152.20568 361.34703,151.83024 362.09999,151.44532 C 362.86316999999997,151.05517 363.72685,150.85262 364.59999,150.63065 C 365.46226,150.41144 366.33702,150.01848 366.87883,149.22399000000001 C 367.29001999999997,148.62101 367.56932,147.83732 368.35182,147.67565000000002 L 369.35332,147.65598000000003 L 369.95333,147.09198000000004" fill="none" id="svg_2" stroke="#000" stroke-width="2"/>
</svg>
