<?xml version="1.0" ?>
<svg baseProfile="full" height="480" version="1.1" width="640" xmlns="http://www.w3.org/2000/svg" xmlns:ev="http://www.w3.org/2001/xml-events" xmlns:xlink="http://www.w3.org/1999/xlink">
	<defs/>
	<path d="M 480.5,147.89999 C 478.79999,147.84283 477.9537,147.34228000000002 477.52933,146.92801 C 476.71906,146.13706 476.21735,145.61734 475.64267,145.04266 C 475.01199,144.412 474.33334,143.73335 473.616,143.01600000000002 C 473.24735,142.64733 472.5,141.9 471.75266,141.15266000000003 C 471.38401,140.78399000000002 470.32059,139.72224000000003 469.98533,139.38400000000001 C 469.33421,138.72711 468.70257999999995,138.08204 468.10132999999996,137.41600000000003 C 467.49173999999994,136.74072000000004 466.89862999999997,136.02190000000002 466.32133,135.29600000000002 C 465.76811,134.60041 465.2852,133.9429 464.64302,133.16450000000003 C 464.05476,132.45147000000003 463.39768999999995,131.80230000000003 462.79999999999995,131.19999000000004 C 462.10797999999994,130.50265000000005 461.64987999999994,129.79571000000004 461.50001,128.89999000000003 C 461.35978,128.06181000000004 460.54272999999995,127.61801000000003 460.50001,126.80000000000003 C 460.45306999999997,125.90123000000003 460.50001,125.01467000000002 460.50001,124.06400000000002 C 460.50001,123.29866000000003 460.52869999999996,122.29297000000003 460.464,121.66400000000002 C 460.34126,120.47040000000001 460.06312,119.66688000000002 459.92533,119.08933000000002 C 459.64286,117.90542000000002 459.56287,117.30133000000002 459.52085,116.40000000000002 C 459.47892,115.50076000000001 459.50001,114.60016000000002 459.50001,113.71067000000002 C 459.50001,112.85717000000002 459.50001,111.82167000000003 459.50001,110.94167000000002 C 459.50001,109.92134000000001 459.50001,109.14734000000001 459.50001,108.24734000000002 C 459.50001,107.38401000000002 459.50001,106.42084000000003 459.50001,105.50000000000003 C 459.50001,104.60000000000002 459.50001,103.70000000000003 459.50001,102.80000000000003 C 459.50001,101.90000000000002 459.08232,101.34562000000003 458.62149999999997,100.67850000000003 C 458.11744,99.94880000000003 458.87681,98.72001000000003 458.33335,98.06666000000003 C 457.75938,97.37664000000002 456.71036,97.40598000000003 456.02085,96.90000000000003 C 455.36033,96.41530000000003 455.09281,95.44922000000004 454.33335,94.90000000000003 C 453.70438,94.44514000000004 452.93073,94.06214000000003 452.25266,93.24734000000004 C 451.8404,92.75195000000004 451.20685,91.87934000000004 450.47916,91.42084000000004 C 449.91855,91.06762000000005 448.89997,90.60006000000004 448.10001,90.20001000000003 C 447.29996,89.79990000000004 446.48178,89.40761000000003 445.9,89.01468000000004 C 445.07352,88.45646000000004 444.59882,87.81072000000005 443.66666,87.23335000000004 C 442.95914,86.79513000000004 442.14966,86.38259000000005 441.29999,85.98401000000004 C 440.43958,85.58039000000004 439.84458,85.09698000000004 438.9,84.91068000000004 C 438.10438,84.75376000000004 437.18539999999996,84.66073000000004 436.47916,84.40001000000004 C 435.50881999999996,84.04179000000003 434.70056999999997,83.91922000000004 433.9,83.90135000000004 C 432.90024,83.87903000000004 432.10001,83.90001000000004 431.10001,83.90001000000004 C 430.29999,83.90001000000004 429.29999,83.90001000000004 428.5,83.90001000000004 C 427.5,83.90001000000004 426.70001,83.90001000000004 425.89999,83.90001000000004 C 424.90451,83.90001000000004 423.98532,83.90001000000004 423.12533,83.90001000000004 C 422.17867,83.90001000000004 421.32534000000004,83.90001000000004 420.384,83.90001000000004 C 419.61599,83.90001000000004 418.664,83.90001000000004 417.89868,83.90001000000004 L 416.90451,83.90451000000003 L 415.98532,83.98534000000004 L 415.13599,84.33600000000004" fill="none" id="svg_1" stroke="#000" stroke-width="2"/>
	<path d="M 422.5,89.9 C 420.664,89.9 419.89764,89.94134000000001 418.90451,89.89550000000001 C 417.98276000000004,89.85296000000001 417.17776000000003,89.35069000000001 416.33334,89.06667000000002 C 415.53149,88.79696000000001 414.47522000000004,89.09937000000002 413.70132,88.81467000000002 C 412.83013,88.49418000000001 412.63967,87.38471000000003 411.97915,86.90000000000002 C 411.28964,86.39402000000003 410.36675,86.11195000000002 409.70001,85.81600000000002 C 408.84222,85.43525000000001 408.00479,85.03472000000002 407.39984000000004,84.45717000000002 C 406.73755000000006,83.82488000000002 406.21283000000005,82.87076000000002 405.67465000000004,82.54667000000002 C 404.71823000000006,81.97071000000003 403.89129,81.91174000000002 403.1,81.47467000000002 C 402.27947,81.02147000000002 401.64877,80.56320000000002 401.07467,79.92533000000002 C 400.5538,79.34660000000002 399.83819000000005,78.85611000000002 399.44732000000005,78.19550000000001 C 398.98257000000007,77.41005000000001 398.63555,76.59144 398.49865000000005,75.70000000000002 C 398.35809000000006,74.78455000000001 397.5837900000001,74.21992000000002 397.4999900000001,75.00016000000002 C 397.41613000000007,75.78083000000002 397.4999900000001,76.72533000000003 397.4999900000001,77.73333000000002 C 397.4999900000001,78.59550000000003 397.4999900000001,79.39999000000002 397.4999900000001,80.30000000000003 C 397.4999900000001,81.20000000000003 397.4999900000001,82.10000000000002 397.4999900000001,83.00000000000003 C 397.4999900000001,83.90000000000003 397.6242900000001,84.67743000000003 398.0746700000001,85.50000000000003 C 398.5019500000001,86.28039000000003 398.4481100000001,87.23386000000002 398.92532000000006,87.87467000000002 C 399.43304000000006,88.55644000000002 399.4977400000001,89.40000000000002 399.50000000000006,90.30000000000003 C 399.50226000000004,91.19551000000003 400.17050000000006,91.70686000000002 400.47916000000004,92.42083000000002 C 400.82813000000004,93.22804000000002 400.50000000000006,94.20000000000002 400.50000000000006,95.09999000000002 C 400.50000000000006,95.99999000000003 400.50000000000006,96.89999000000002 400.50000000000006,97.70000000000002 C 400.50000000000006,98.59999000000002 400.50000000000006,99.50000000000001 400.50000000000006,100.40000000000002 C 400.50000000000006,101.30000000000003 400.50000000000006,102.20450000000002 400.50000000000006,103.06666000000001 C 400.50000000000006,103.90000000000002 400.50000000000006,104.87850000000002 400.50000000000006,105.69866000000002 C 400.50000000000006,106.59999000000002 400.10269000000005,107.60211000000002 400.53601000000003,108.46400000000001 C 400.867,109.12239000000001 401.91882000000004,109.31646 402.41598000000005,110.09867000000001 C 402.88088000000005,110.83013000000001 403.32977000000005,111.35197000000001 403.51068000000004,112.30000000000001 C 403.66937,113.13166000000001 404.26880000000006,113.77237000000001 404.47467000000006,114.72533000000001 C 404.62234000000007,115.40883000000001 405.12491000000006,116.32312000000002 405.4473300000001,117.20900000000002 C 405.6784100000001,117.84390000000002 405.8302000000001,118.91509000000002 406.11066000000005,119.64934000000002 C 406.46625000000006,120.58027000000003 406.88935000000004,121.22801000000003 407.41468000000003,122.10000000000002 L 407.50001000000003,123.00000000000003" fill="none" id="svg_2" stroke="#000" stroke-width="2"/>
</svg>
