<?xml version="1.0" ?>
<svg baseProfile="full" height="480" version="1.1" width="640" xmlns="http://www.w3.org/2000/svg" xmlns:ev="http://www.w3.org/2001/xml-events" xmlns:xlink="http://www.w3.org/1999/xlink">
	<defs/>
	<path d="M 171.0,168.0 C 171.35716,164.46617 171.70334,163.71762 172.38933,163.06134 C 172.99898,162.4781 173.44286,161.7762 173.97467,161.01466 C 174.44949,160.33472999999998 174.74686,159.52499 175.32133,158.57881999999998 C 175.6444,158.04672999999997 176.16392,157.25369999999998 176.516,156.76932999999997 C 177.22163,155.79856999999996 177.79836,155.20236999999997 178.49999,154.49999999999997 C 179.09975,153.89957999999996 179.72857,153.26168999999996 180.19998999999999,152.51600999999997 C 180.6265,151.84136999999996 181.06883,150.99421999999996 181.69998999999999,150.30450999999996 C 182.28142999999997,149.66911999999996 182.95981999999998,149.09991999999997 183.76933,148.51600999999997 C 184.25499,148.16569999999996 185.03975,147.63256999999996 186.0785,147.02149999999997 C 186.75637,146.62273999999996 187.40131,146.31591999999998 188.39999,145.79865999999998 C 189.0036,145.48602 189.62407,145.14505 190.6,144.34733999999997 C 191.21574999999999,143.84402999999998 191.97941,143.13461999999998 192.5955,142.76167999999998 C 193.32063,142.32271999999998 194.27261,142.10761 194.96932999999999,141.83067999999997 C 195.79996,141.50052999999997 196.49698999999998,140.95282999999998 197.31733999999997,140.56799999999998 C 198.28971999999996,140.11184999999998 198.99571999999998,140.09536999999997 199.99999999999997,139.83334 C 200.80700999999996,139.62277 201.51412999999997,139.1979 202.38532999999998,138.60002 C 202.96895999999998,138.19949 203.75981,137.76953 204.54166999999998,137.52084 C 205.39228999999997,137.25029 206.59767,137.07161 207.18932999999998,137.03601 C 208.04187,136.98471 209.07865999999999,137.00001 209.99999999999997,137.00001 C 210.68400999999997,137.00001 211.68665999999996,137.00001 212.54166999999998,137.00001 C 213.48665999999997,137.00001 214.52115999999998,137.00001 215.24817,137.00001 C 215.97916999999998,137.00001 217.03067,137.00001 217.95734,137.00001 C 218.74933,137.00001 219.50534,137.00001 220.64266999999998,137.00001 C 221.65067,137.00001 222.34933999999998,137.00001 223.03199999999998,137.00001 C 224.23199999999997,137.00001 224.99999999999997,137.00001 225.76800999999998,137.00001 C 226.96800999999996,137.00001 227.65066999999996,137.00001 228.34933999999998,137.00001 C 229.66667999999999,137.00001 230.49017999999998,137.00001 231.21466999999998,137.00001 C 232.16667999999999,137.00001 232.95268,137.00001 233.77468,137.00001 C 234.83333,137.00001 235.77379,136.93766 236.59867,137.08534 C 237.62002,137.26819 238.20042,137.60983 239.20016999999999,138.10002 C 239.81092999999998,138.39949000000001 240.68000999999998,138.81357 241.68400999999997,139.20001 C 242.22256999999996,139.40732 243.05999999999997,139.66881999999998 244.07833999999997,140.10019 C 244.76246999999998,140.38998 245.58633999999998,140.82204 246.24282999999997,141.65268 C 246.75693999999996,142.30319 247.18458999999996,143.1335 247.67199999999997,143.66135 C 248.51260999999997,144.57172 249.00982999999997,145.00985 249.52082999999996,145.52085 C 250.05183999999997,146.05186 250.84109999999995,146.82572 251.53832999999997,147.54285 C 252.16033999999996,148.18262 252.85615999999996,148.98505999999998 253.24282999999997,149.60002 C 253.61162999999996,150.18657 254.07564999999997,151.21339 254.52082999999996,152.00001 C 254.86660999999995,152.611 255.48373999999995,153.40274 256.02084999999994,154.02084 C 256.5995899999999,154.68686 257.20474999999993,155.41786 257.7999899999999,156.22534 C 258.20321999999993,156.77233999999999 258.5785199999999,157.33359 259.3986799999999,158.31467999999998 C 259.9645999999999,158.99164 260.3943199999999,159.35795 261.1159999999999,160.40134999999998 C 261.53060999999985,161.00078 261.87325999999985,161.69187999999997 262.4840099999999,162.68401999999998 C 262.8194899999999,163.22898999999998 263.3558999999999,164.04210999999998 263.8333399999999,164.83333999999996 C 264.2641299999999,165.54720999999995 264.6800199999999,166.27397999999997 265.0546499999999,166.76933999999997 C 265.73326999999995,167.66661999999997 266.3590899999999,168.30031999999997 266.97914999999995,169.00000999999997 C 267.59041999999994,169.68977999999998 267.86265999999995,170.03200999999999 268.65999999999997,171.22668 L 268.99334,172.10667999999998 L 269.35265,172.89016999999998" fill="none" id="svg_1" stroke="#000" stroke-width="2"/>
	<path d="M 172.0,168.0 C 168.81433,170.23833 167.95947,170.72899 167.2,171.084 C 166.37743999999998,171.46851 165.69262999999998,171.80191 164.80132999999998,172.00133 C 163.99428999999998,172.18189999999998 163.52599999999998,172.89376 162.79999999999998,173.284 C 161.94521999999998,173.74347 161.45236999999997,174.44608 160.71465999999998,174.91468 C 160.02335999999997,175.3538 159.13031999999998,175.32070000000002 158.57466,175.97468 C 158.08052999999998,176.55622 158.28996,177.39312 159.09984,177.87867 C 159.82961,178.31619 160.39169,178.90044 160.97467,179.42535 C 161.56384,179.95582000000002 162.31793,180.58915000000002 163.10001,180.87851 C 163.95174,181.19363 164.80001,180.9976 165.75718,181.00002 C 166.65269,181.00228 167.54806,181.01436 168.36401,181.42536 C 169.13594,181.81418000000002 170.00088,181.96282000000002 170.80001000000001,182.00002 C 171.71764000000002,182.04273 172.23209000000003,182.81769 173.09985,183.00019 C 173.89203,183.1668 173.75576,184.23218 174.28401,184.91602 C 174.76872,185.54352 175.00001,186.30002 175.00001,187.20002 C 175.00001,188.10003 174.90852,189.01256999999998 175.05717,189.75719 C 175.24179,190.68193000000002 175.62562000000003,191.3546 175.97468,192.36402 C 176.26600000000002,193.20646000000002 176.84448,193.76848 176.98934,194.63602 C 177.15681,195.6389 176.95576,196.38745 177.35267,197.24285 C 177.77600999999999,198.15517 177.99934,198.88535000000002 178.00001,199.83602 C 178.00054,200.60136 178.00001,201.60003 178.00001,202.40001999999998 C 178.00001,203.40001999999998 178.00001,204.20002 178.00001,205.19985999999997 C 178.00001,205.97919999999996 178.00001,206.97869999999998 178.00001,207.75269999999998 C 178.00001,208.65268999999998 178.00001,209.51603999999998 178.00001,210.50002999999998 C 178.00001,211.32152999999997 178.00001,212.21068999999997 178.00001,213.19985999999997 C 178.00001,213.97919999999996 178.00193000000002,214.97869999999998 178.00001,215.75269999999998 C 177.99775,216.65720999999996 178.00433,217.42055999999997 177.71601,218.40001999999998 C 177.47565,219.21654999999998 177.12719,220.20093999999997 177.00001,221.00002999999998 C 176.84066,222.00122 176.5464,222.79030999999998 176.35267,223.40001999999998 C 176.03884,224.38778 176.00535,225.23596999999998 176.00001,226.1667 C 175.99548000000001,226.95718 176.00134,227.8107 176.00001,229.00002999999998 C 175.99934,229.59736999999998 176.12712,230.48557999999997 175.83334,231.6667 C 175.65954,232.36548 175.14093,233.16217999999998 175.00001,234.0417 C 174.8971,234.68393999999998 174.71601,235.68402999999998 174.50001,236.50002999999998 C 174.28401,237.31601999999998 174.11334,238.31885999999997 173.97468,239.18936 C 173.81274000000002,240.20604 173.46388000000002,240.98823 173.28401,241.60004 C 172.99325,242.58898000000002 172.98501,243.46456 172.77868,244.42121 C 172.60595,245.22208 172.31213,245.9806 172.08401,247.03203 C 171.91751,247.79949 171.71601,248.76803999999998 171.50001,249.50002999999998 C 171.28401,250.23201999999998 171.08792,251.35573999999997 170.83334,252.1667 C 170.56453,253.02302 170.16667999999999,253.83336 170.00450999999998,254.69552 L 170.00000999999997,255.60002999999998 L 169.97917999999999,256.50001999999995" fill="none" id="svg_2" stroke="#000" stroke-width="2"/>
</svg>
