<?xml version="1.0" ?>
<svg baseProfile="full" height="480" version="1.1" width="640" xmlns="http://www.w3.org/2000/svg" xmlns:ev="http://www.w3.org/2001/xml-events" xmlns:xlink="http://www.w3.org/1999/xlink">
	<defs/>
	<path d="M 391.0,173.89999 C 389.29999,173.89999 388.61285,173.58551 387.83334,173.06666 C 387.12588,172.59577000000002 386.45471000000003,172.45025 385.71466000000004,171.98533 C 384.93780000000004,171.49728000000002 384.23874000000006,171.53837000000001 383.77850000000007,170.80016 C 383.33139000000006,170.083 382.6152600000001,169.58861000000002 381.8333400000001,169.06665 C 381.1264900000001,168.59482 380.38772000000006,168.54326 379.7146600000001,167.98399 C 379.0455000000001,167.42797000000002 378.2334300000001,167.04829 377.3571800000001,166.90448 C 376.49072000000007,166.76228 375.6564400000001,166.83302 374.97467000000006,166.32532 C 374.3338600000001,165.84810000000002 373.53021000000007,165.78026 372.91598000000005,165.18399 C 372.56683000000004,164.84503 373.35717000000005,164.89998 374.29998000000006,164.89998 C 375.20000000000005,164.89998 376.1534700000001,164.71863 376.9999900000001,165.06665 C 377.6710700000001,165.34254 378.55507000000006,165.60094 379.3893300000001,165.91066 C 380.1229100000001,166.18300000000002 380.6106400000001,166.88931 381.4791400000001,166.92082000000002 L 382.05266000000006,167.54732 L 382.71599000000003,167.984" fill="none" id="svg_1" stroke="#000" stroke-width="2"/>
	<path d="M 375.0,168.89999 C 376.70001,168.95716000000002 377.54919,169.40617 378.10001,170.22132 C 378.54108,170.87404999999998 379.0,171.73333 379.5,172.39999 C 380.0,173.06666 380.52496,173.90429 380.71466,174.50132 C 381.02385999999996,175.47441999999998 380.94500999999997,176.48669999999998 381.436,177.26399999999998 C 381.96533,178.10195 382.50172999999995,178.68171999999998 383.0,179.37915999999998 C 383.46088,180.02426999999997 384.05267,180.60449999999997 384.5,181.39998999999997 C 384.94733,182.19548999999998 385.42532,182.87465999999998 386.0,183.39998999999997 L 386.61066,183.92532999999997 L 387.38935,184.33598999999998 L 387.91598999999997,185.09865" fill="none" id="svg_2" stroke="#000" stroke-width="2"/>
</svg>
