<?xml version="1.0" ?>
<svg baseProfile="full" height="480" version="1.1" width="640" xmlns="http://www.w3.org/2000/svg" xmlns:ev="http://www.w3.org/2001/xml-events" xmlns:xlink="http://www.w3.org/1999/xlink">
	<defs/>
	<path d="M 193.0,114.0 C 191.328,114.98933 190.457,115.0 189.45833,115.0 C 188.89101,115.0 187.70016999999999,115.0 186.81067,115.0 C 185.95717,115.0 184.92132999999998,115.0 184.22532999999999,115.0 C 183.31599999999997,115.0 182.31466999999998,115.0 181.47917999999999,115.0 C 180.8955,115.0 179.70033999999998,115.0 178.82134,115.0 C 178.01433,115.0 176.96801,114.99947 176.19468,115.0 C 175.232,115.00067 174.47294,114.87738 173.33334,115.16666 C 172.64505,115.34137999999999 171.80249999999998,115.95609999999999 171.11468,115.99865999999999 C 170.17648,116.05671999999998 169.00579,115.61811999999999 168.36167,116.11432999999998 C 167.71944,116.60907999999998 168.0389,117.93178999999998 168.56251,118.47915999999998 C 169.20558,119.15140999999998 170.02508,119.29490999999997 170.85734,119.67198999999998 C 171.49295999999998,119.95997999999997 172.52615,120.53512999999998 173.25268,121.00532999999999 C 174.00508,121.49225999999999 174.36392,121.76626999999999 175.11601,122.23199999999999 C 176.16422999999998,122.88110999999998 177.17266999999998,123.34346999999998 177.82535,123.61466999999999 C 178.48200999999997,123.88752 179.52158999999997,124.32025999999999 180.24819,124.64817 C 180.9796,124.97825999999999 181.66407999999998,125.36824999999999 182.95702,125.75716 C 183.71552,125.98532 184.39103,126.04816 185.39869,126.28399 L 186.16403,126.57466000000001 L 187.11336,126.91599000000001" fill="none" id="svg_1" stroke="#000" stroke-width="2"/>
	<path d="M 218.0,106.0 C 210.52901,106.0 209.416,105.99949 208.627,106.0 C 207.60001,106.00067 206.78592,105.96812 206.0,106.16666 C 205.20116,106.36846999999999 204.36963,107.02551 203.91333,107.636 C 203.37685,108.35377 202.69795,108.79370999999999 202.058,109.34733 C 201.21854,110.07355 200.57707,110.64955 200.084,111.28666 C 199.52399,112.01028 199.54202,112.89587 199.23833,113.74749 C 199.10848,114.11163 198.67639,115.52715 198.51734,116.10266 C 198.34926,116.71078 198.01916,117.97874 197.86132999999998,118.61199 C 197.70820999999998,119.22642 197.31556999999998,120.82979 197.17066999999997,121.60532 C 197.02355999999997,122.39266 196.99999999999997,123.33332 196.99999999999997,124.25065000000001 C 196.99999999999997,124.99465000000001 196.99999999999997,126.03198 196.99999999999997,126.80532000000001 C 196.99999999999997,127.76932000000001 196.99999999999997,128.52081 196.99999999999997,129.31732 C 196.99999999999997,130.31598 196.99457999999998,131.22531999999998 196.99999999999997,132.16665 C 197.00449999999998,132.94819 196.85177999999996,133.8377 197.44266999999996,134.85714000000002 C 197.86148999999997,135.5797 198.72327999999996,136.14603000000002 198.93865999999997,136.82531 C 199.25100999999998,137.81045 199.56406999999996,138.4968 199.99999999999997,139.33331 C 200.33906999999996,139.98394000000002 200.43807999999999,140.90065 201.32149999999996,141.63582000000002 C 201.92032999999995,142.13416000000004 203.03215999999995,142.2872 203.59549999999996,142.71433000000002 C 204.20247999999995,143.17454 204.78957999999997,144.03293000000002 205.38532999999995,144.77866000000003 C 205.93104999999994,145.46175000000002 206.76511999999997,145.84563000000003 207.49999999999994,145.97916000000004 C 208.66259999999994,146.19042000000005 209.33866999999995,146.43599000000003 210.16666999999995,146.99999000000003 L 210.82532999999995,147.38932000000003 L 211.51599999999996,147.71465000000003" fill="none" id="svg_2" stroke="#000" stroke-width="2"/>
</svg>
