<?xml version="1.0" ?>
<svg baseProfile="full" height="480" version="1.1" width="640" xmlns="http://www.w3.org/2000/svg" xmlns:ev="http://www.w3.org/2001/xml-events" xmlns:xlink="http://www.w3.org/1999/xlink">
	<defs/>
	<path d="M 220.0,161.0 C 243.33333,153.5 245.05098,153.06992 246.632,152.76801 C 248.07238,152.49296 249.40072,152.30530000000002 250.625,152.1875 C 251.75581,152.07869 252.8134,152.02945 253.808,152.01199 C 255.66643,151.97937 256.55701,151.99827 257.42932,152.00267 C 258.28567000000004,152.00699 259.12814000000003,152.01615999999999 259.95834,152.04166999999998 C 260.77884,152.06688999999997 261.59198000000004,152.10168 262.39734000000004,152.17066999999997 C 264.00235000000004,152.30814999999998 264.80136000000005,152.43326999999996 265.59732,152.57332999999997 C 266.39282000000003,152.71329999999998 267.18133,152.88268999999997 267.95834,153.08331999999996 C 268.73080000000004,153.28277999999995 269.49176,153.50583999999995 270.22934000000004,153.77331999999996 C 271.67947000000004,154.29922999999997 272.36337000000003,154.63166999999996 273.03201,154.97598999999997 C 273.70092,155.32043999999996 274.35605000000004,155.70419999999996 275.0,156.12498999999997 C 275.65768,156.55476999999996 276.31448,157.02590999999998 276.96799,157.54399999999998 C 278.35318,158.64210999999997 279.04834,159.27940999999998 279.76532,159.94132 C 280.50259,160.62195 281.23684999999995,161.33664 281.95833999999996,162.08332 C 282.68498999999997,162.83533 283.39615,163.60458999999997 284.06134,164.40533 C 285.36481,165.97438 285.92434999999995,166.79241 286.45734,167.59599 C 286.97718,168.37973 287.4516,169.16438 287.89585,169.9375 C 288.32743,170.68854 288.72581,171.42798 289.10935,172.144 C 289.83518,173.49901 290.17814,174.13568 290.512,174.74533 C 290.83381,175.33301 291.14655,175.90062 291.43751,176.45833 C 291.72114,177.00203 291.99368999999996,177.5381 292.22801,178.08132999999998 C 292.69165999999996,179.15623999999997 292.86415,179.71905999999998 293.03067999999996,180.28266999999997 C 293.19714999999997,180.84614999999997 293.33865999999995,181.41466999999997 293.47916999999995,181.97916999999995 L 293.61466999999993,182.53865999999996 L 293.74817999999993,183.09015999999997 L 293.88266999999996,183.63065999999998" fill="none" id="svg_1" stroke="#000" stroke-width="2"/>
	<path d="M 237.0,174.0 C 226.83333,168.66667 226.0103,168.27962 225.22667,167.94133 C 224.48842000000002,167.62263 223.78474,167.33124999999998 222.45334000000003,166.84267 C 221.82468000000003,166.61196999999999 221.20700000000002,166.40433 220.00000000000003,166.0 C 218.79500000000002,165.59633 218.18163000000004,165.39212 217.55733000000004,165.17867 C 216.91628000000003,164.95948 216.25537000000003,164.72974000000002 215.57134000000005,164.48568 C 214.85802000000004,164.23116 213.33277000000004,163.66816 212.51450000000006,163.35734 C 211.66210000000007,163.03355 210.78495000000007,162.69441999999998 209.88800000000006,162.34933999999998 C 208.97928000000007,161.99972999999997 208.06610000000006,161.64863999999997 207.15350000000007,161.30532999999997 C 206.25142000000005,160.96598999999998 204.50152000000006,160.32886999999997 203.66549000000006,160.04349999999997 C 202.86544000000006,159.77039999999997 202.10012000000006,159.52243999999996 201.37199000000007,159.30399999999997 C 200.68899000000008,159.09909999999996 200.04980000000006,158.92199999999997 199.45649000000006,158.78049999999996 C 198.91755000000006,158.65197999999995 197.97213000000005,158.23645999999997 197.05199000000005,158.46698999999995 C 196.25666000000004,158.66624999999996 197.08329000000003,159.14583999999996 197.34133000000006,159.59732999999994 C 197.88628000000006,160.55084999999994 198.43665000000004,161.50975999999994 198.76533000000006,162.07332999999994 C 199.12390000000005,162.68813999999995 199.51287000000005,163.34772999999996 199.93232000000006,164.04582999999994 C 200.37412000000006,164.78111999999993 201.33089000000007,166.33484999999993 201.84283000000005,167.14265999999995 C 202.36686000000006,167.96955999999994 202.90795000000006,168.80653999999996 203.46133000000006,169.65065999999996 C 204.01893000000007,170.50122999999996 204.58381000000006,171.35033999999996 205.15184000000005,172.19466999999997 C 205.71584000000004,173.033 206.83212000000006,174.66749 207.37817000000004,175.45649999999998 C 207.91082000000003,176.22614 208.43284000000003,176.97286999999997 208.94267000000005,177.69599999999997 C 209.43654000000004,178.39649999999997 209.91653000000005,179.07122999999996 210.38116000000005,179.71949999999998 C 210.82724000000005,180.34188999999998 211.66593000000006,181.50053999999997 212.05683000000005,182.03517 C 212.42728000000005,182.54184 212.78002000000004,183.02035 213.11733000000004,183.47066999999998 C 213.43641000000005,183.89663 213.74106000000003,184.29724 214.03382000000005,184.67216 C 214.31049000000004,185.0265 214.83332000000004,185.66666999999998 215.31199000000004,186.22665999999998 L 215.93749000000003,186.91665999999998 L 216.66666000000004,187.66665999999998" fill="none" id="svg_2" stroke="#000" stroke-width="2"/>
</svg>
