<?xml version="1.0" ?>
<svg baseProfile="full" height="480" version="1.1" width="640" xmlns="http://www.w3.org/2000/svg" xmlns:ev="http://www.w3.org/2001/xml-events" xmlns:xlink="http://www.w3.org/1999/xlink">
	<defs/>
	<path d="M 272.0,116.0 C 273.2215,115.1215 274.23215,115.24423 274.91599,114.716 C 275.54349,114.23128999999999 276.35019,114.07302999999999 276.97468000000003,113.57467 C 277.58265000000006,113.08949 278.43482000000006,113.24288 279.29551000000004,112.99549999999999 C 280.06339,112.7748 280.52070000000003,112.01042 281.50001000000003,111.99999999999999 C 282.39994,111.99042999999999 283.35005,112.13166999999999 284.10002000000003,111.77865999999999 C 284.87553,111.41362 285.59996,111.00532999999999 286.50001000000003,110.99999999999999 C 287.39997000000005,110.99466999999999 288.30653,111.10695999999999 289.20002000000005,110.99865999999999 C 290.1197900000001,110.88717999999999 290.65409000000005,110.19012999999998 291.60001000000005,110.01065999999999 C 292.48429000000004,109.84288 293.44455000000005,110.09546999999999 294.20002000000005,109.716 C 295.06721000000005,109.28040999999999 295.80000000000007,109.00067 296.70002000000005,109.0 C 297.60001000000005,108.99934 298.53474000000006,109.05289 299.30000000000007,108.64733 C 300.14592000000005,108.19903 300.80000000000007,108.00067 301.70002000000005,108.0 C 302.60001000000005,107.99934 303.50001000000003,108.0 304.40000000000003,108.0 C 305.29999000000004,108.0 306.25690000000003,108.16277 307.10001000000005,107.77866 C 307.88001,107.42332 308.59995000000004,107.00533 309.50000000000006,107.0 C 310.3999600000001,106.99467 311.29999000000004,107.0 312.2000100000001,107.0 C 313.1000000000001,107.0 314.00000000000006,107.0 314.7999900000001,107.0 C 315.7000100000001,107.0 316.6000100000001,107.0 317.5000000000001,107.0 C 318.3999900000001,107.0 319.33386000000013,106.94812 319.9746700000001,107.42533 C 320.6564300000001,107.93304 321.5000000000001,108.0 322.3999900000001,108.0 C 323.2999800000001,108.0 324.3006600000001,107.81946 324.9159800000001,108.284 C 325.5992100000001,108.79979 326.2999800000001,108.99992 327.2000100000001,109.0 C 328.0998200000001,109.00008 328.66931000000005,109.54841 329.3571800000001,109.94283 C 330.17658000000006,110.41268 331.2978800000001,109.84066 331.9473300000001,110.35267 C 332.5619500000001,110.83721 333.2999900000001,110.99992 334.20002000000005,111.0 C 335.09983000000005,111.00008 335.66932,111.54841 336.35719000000006,111.94283 C 337.17659000000003,112.41268 338.24849000000006,111.84648 339.00001000000003,112.16666000000001 C 339.78123000000005,112.49948 340.49986,112.98732000000001 341.40000000000003,113.00000000000001 C 342.29990000000004,113.01266000000001 343.13837,113.38608000000002 343.79999000000004,113.71600000000001 C 344.64337000000006,114.13656 345.67859000000004,113.65695000000001 346.47916000000004,114.02083 C 347.25241000000005,114.37229 347.80133000000006,114.99932 348.70002000000005,114.99999 C 349.60001000000005,115.00066 350.41737000000006,115.08948 351.02534,115.57466 C 351.64982000000003,116.07302999999999 352.70259000000004,115.60179 353.56401000000005,116.03599 C 354.26289,116.38826 354.91219000000007,116.63564 355.64284000000004,117.05715 C 356.45394000000005,117.52507999999999 356.82714000000004,118.35190999999999 357.35268,118.94731999999999 C 357.91594000000003,119.58546 358.45665,120.13045999999999 359.08403000000004,120.71598999999999 C 359.77251000000007,121.35851 360.44746000000004,121.75079999999998 360.97469000000007,122.43597999999999 C 361.47765000000004,123.08962999999999 361.80095000000006,123.80036999999999 362.50002000000006,124.49998 C 363.09969000000007,125.10014 363.93825000000004,125.47979 364.64284000000004,126.05265 C 365.26097000000004,126.55521 365.66970000000003,127.39742 366.28536,127.91598 C 366.95070000000004,128.47637 367.46148000000005,128.95516 368.05269000000004,129.64282 C 368.61919000000006,130.30174 369.55754,130.40515 370.38936000000007,130.97465 C 371.05403000000007,131.42971 371.44939000000005,132.13833 372.08403000000004,132.71598 C 372.7307,133.30457 373.33681,133.85123000000002 373.97469000000007,134.42532 C 374.55343000000005,134.94618 375.0501300000001,135.65147 375.70452000000006,136.05265 C 376.47619000000003,136.52572 376.89074000000005,137.33909 377.42535000000004,137.97465 C 377.97155000000004,138.624 378.78076000000004,139.00355 378.99868000000004,139.80131 C 379.24047,140.6863 379.81283,141.17102 380.00002000000006,141.99998 C 380.1996000000001,142.88385 380.88671000000005,143.30657 381.42534000000006,143.97465 C 381.92699000000005,144.59684 381.29552000000007,144.99772 380.40001000000007,144.99998 C 379.50002000000006,145.00224 378.6000200000001,144.99998 377.7000300000001,144.99998 C 376.8000100000001,144.99998 375.84654000000006,145.18132 375.00002000000006,144.83330999999998 C 374.32894000000005,144.55741999999998 373.60058000000004,144.01798999999997 372.7000300000001,143.99998 C 371.8001900000001,143.98199 370.90001000000007,143.99998 370.00002000000006,143.99998 C 369.2000300000001,143.99998 368.27196000000004,144.18983 367.40001000000007,143.96398 C 366.4469200000001,143.71711 366.10130000000004,143.69011999999998 366.80135000000007,144.08398 C 367.6182800000001,144.54359 368.40990000000005,144.86547 369.30001000000004,145.00448 C 370.11901000000006,145.13238 370.63753,145.77482 371.40002000000004,146.38931 C 372.14581000000004,146.99034 372.95831000000004,147.23393 373.70004000000006,147.64732 C 374.46371000000005,148.07295000000002 375.26974000000007,148.40187 376.09985000000006,148.87864000000002 C 376.89007000000004,149.3325 377.44198000000006,149.78556000000003 378.1987000000001,150.28532 C 378.8076200000001,150.68747000000002 379.2255600000001,151.54191 379.87869000000006,152.22131000000002 C 380.43609000000004,152.80111000000002 380.98343000000006,153.41746 381.50003000000004,153.99998000000002 C 382.03451,154.60266000000001 382.44424000000004,155.39230000000003 383.09985000000006,156.09999000000002 C 383.64981000000006,156.69362 384.11053000000004,157.47169000000002 384.6473700000001,158.05266000000003 C 385.2836900000001,158.74129000000002 386.0877100000001,159.21750000000003 385.9998800000001,160.09982000000002 C 385.9145200000001,160.95717000000002 385.1912900000001,160.33378000000002 384.4791900000001,160.02081 C 383.67383000000007,159.66685 382.89283000000006,159.54704 382.0000300000001,159.16665 C 381.2485000000001,158.84646 380.6128800000001,158.68549000000002 379.8333700000001,158.16665 C 379.1259100000001,157.69576 378.3928500000001,157.51681 377.71469000000013,157.08531 C 376.9396400000001,156.59215999999998 375.89563000000015,156.91129999999998 375.00003000000015,156.99998 C 374.15433000000013,157.08372 374.00003000000015,157.99998 374.00003000000015,158.79998 C 374.00003000000015,159.69997 374.16202000000015,160.51673 374.71603000000016,161.08398 C 375.37402000000014,161.7577 375.85125000000016,162.33679 376.42535000000015,162.97465 C 376.94622000000015,163.55337 377.47525000000013,164.20005 378.16668000000016,164.83330999999998 C 378.7646100000002,165.38092999999998 378.7557600000002,166.23214 379.28402000000017,166.91598 C 379.7687300000002,167.54346999999999 379.9269600000002,168.35014999999999 380.42535000000015,168.97465 C 380.91055000000017,169.58261 380.99936000000014,170.39997 381.00003000000015,171.29998 C 381.00070000000017,172.19997 381.3009000000001,173.0508 381.64737000000014,173.69997 C 382.10071000000016,174.54935 382.00003000000015,175.49997000000002 382.00003000000015,176.39997 C 382.00003000000015,177.29998 381.8760100000002,178.20857999999998 382.00018000000017,179.09981 C 382.11190000000016,179.90169 382.97143000000017,180.35567999999998 383.00003000000015,181.19996999999998 C 383.03049000000016,182.09945999999997 382.96283000000017,183.00083999999998 383.00003000000015,183.79997999999998 C 383.0427500000001,184.71760999999998 383.93915000000015,185.21519999999998 384.00003000000015,186.09998 C 384.06183000000016,186.99785 383.59729000000016,187.93639 384.08536000000015,188.71463 C 384.54972000000015,189.45506 384.96283000000017,190.00084 385.00003000000015,190.79997 C 385.0427500000001,191.7176 385.93915000000015,192.21519 386.00003000000015,193.09997 C 386.06183000000016,193.99784000000002 386.16669000000013,194.83329 386.91470000000015,195.2853 L 387.00018000000017,196.09980000000002 L 387.28402000000017,196.91596" fill="none" id="svg_1" stroke="#000" stroke-width="2"/>
	<path d="M 253.0,142.0 C 252.83333,143.83333 252.0609,144.21523 252.0,145.10001 C 251.9382,145.99788 252.0,146.80001 252.0,147.7 C 252.0,148.60001 252.0,149.5 252.0,150.39999999999998 C 252.0,151.30001 252.0,152.2 252.0,153.10000999999997 C 252.0,153.99999999999997 251.97276,154.80041999999997 252.0,155.69999999999996 C 252.02859,156.64413999999996 252.85638,157.05180999999996 253.0,157.99999999999997 C 253.11981,158.79098999999997 252.6451,159.79262999999997 253.036,160.56399999999996 C 253.38979,161.26211999999995 253.97214,161.80175999999997 254.0,162.69999999999996 C 254.0293,163.64411999999996 254.85638,164.05180999999996 255.0,164.99999999999997 C 255.11981,165.79098999999997 255.0347,166.71227999999996 255.42534,167.39998999999997 C 255.88852,168.2154 255.75575,169.23215999999996 256.284,169.91599999999997 C 256.76871,170.54348999999996 256.92694,171.35016999999996 257.42533,171.97466999999997 C 257.91053,172.58262999999997 258.06696,173.34354999999996 258.57468,174.02532999999997 C 259.05188,174.66613999999996 259.13742,175.45310999999998 259.71601,176.08399999999997 C 260.35251999999997,176.77805999999998 260.81428,177.33109999999996 261.22135,178.10000999999997 C 261.62237999999996,178.85752999999997 262.15851,179.51495999999997 262.71601,180.08399999999997 C 263.37507,180.75668 263.90787,181.38506999999998 264.42533,181.97466999999997 C 264.98501999999996,182.61242999999996 265.48875,183.18560999999997 266.16666,183.83332999999996 C 266.79889,184.43738999999997 267.36213,184.93642999999997 268.0,185.49999999999997 C 268.5835,186.01551999999998 269.21463,186.54876999999996 269.83334,187.16666999999998 C 270.45254,187.78504999999998 271.12603,188.19083999999998 271.70001,188.7045 C 272.43533,189.36252 273.1,190.10001 273.6,190.60001 C 274.29998,191.30001 274.94784000000004,192.06115 275.49999,192.47917999999999 C 276.23589000000004,193.03634 277.05379000000005,193.44662 277.57467,194.02533999999997 C 278.14877,194.66319999999996 278.6784,195.28525999999997 279.28399,195.91600999999997 C 279.83398,196.48886999999996 280.57189,196.94487999999998 281.02532,197.61067999999997 C 281.52083000000005,198.33829999999998 282.29677000000004,198.78000999999998 282.94732000000005,199.35266999999996 C 283.53616000000005,199.87099999999995 283.63152,200.60248999999996 284.02084,201.47917999999996 C 284.33654,202.19006999999996 285.21505,202.54837999999995 285.83334,203.16667999999996 C 286.45163,203.78497999999996 286.93643000000003,204.36212999999995 287.5,205.00000999999995 C 288.0155,205.58348999999995 288.54285,206.22560999999996 289.22134,206.87866999999994 C 289.80078,207.43638999999993 290.4165,207.98448999999994 291.0,208.50000999999995 C 291.63788,209.06357999999994 292.20642,209.56186999999994 292.87866,210.22133999999994 C 293.49670000000003,210.82762999999994 294.28970000000004,210.85123999999993 294.94732000000005,211.35266999999993 C 295.62417000000005,211.86876999999993 295.64520000000005,212.69548999999992 296.02084,213.47917999999993 C 296.35791,214.18239999999992 297.47561,214.11860999999993 298.05267000000003,214.64734999999993 C 298.74398,215.28078999999994 299.31115000000005,215.76358999999994 299.94732000000005,216.35266999999993 C 300.52291,216.88565999999994 300.98931000000005,217.61067999999995 300.99999,218.50000999999992 C 301.01067,219.38933999999992 301.72558000000004,219.87393999999992 301.98931000000005,220.61067999999992 C 302.28905000000003,221.4480399999999 302.06695,222.3435599999999 302.57467,223.02533999999991 C 303.05187,223.6661499999999 302.67187,224.67195999999993 303.02084,225.47917999999993 C 303.32949,226.19314999999992 303.99551,226.70450999999994 304.0,227.60000999999994 L 304.03601,228.56399999999994" fill="none" id="svg_2" stroke="#000" stroke-width="2"/>
</svg>
