<?xml version="1.0" ?>
<svg baseProfile="full" height="480" version="1.1" width="640" xmlns="http://www.w3.org/2000/svg" xmlns:ev="http://www.w3.org/2001/xml-events" xmlns:xlink="http://www.w3.org/1999/xlink">
	<defs/>
	<path d="M 275.0,189.0 C 274.42532,189.79333 274.27377,188.767 273.66666,188.0 C 273.25672,187.4821 272.32761,186.83585 272.04001,186.17467 C 271.74069,185.48657 270.93656,184.76744 270.276,184.41065999999998 C 269.3562,183.91384999999997 268.97378000000003,183.29222 268.33584,182.45734 C 267.96514,181.97222 267.24194,181.24875 266.76666,180.76800999999998 C 265.9739,179.96612999999996 265.29242,179.26304999999996 264.79867,178.51600999999997 C 264.34869000000003,177.83520999999996 263.69573,176.99812999999997 263.17465000000004,176.63600999999997 C 262.50455000000005,176.17030999999997 261.62387000000007,175.57777999999996 261.03067000000004,175.11467999999996 C 260.24390000000005,174.50044999999997 259.49545000000006,174.00638999999995 259.00534000000005,173.65266999999997 C 257.96081000000004,172.89881999999997 257.43704,172.39425999999997 256.69101000000006,171.69549999999998 C 256.19586000000004,171.23171 255.23264000000006,170.51511 254.74933000000007,170.17467 C 254.00632000000007,169.65127999999999 253.16765000000007,168.98766999999998 252.50000000000009,168.52083 C 251.69466000000008,167.9577 251.0035200000001,167.67851 250.2506700000001,167.43600999999998 C 249.1544300000001,167.08290999999997 248.3443900000001,167.00323999999998 247.5146600000001,166.43201 C 246.9479500000001,166.04185999999999 246.4455100000001,165.4477 245.39999000000012,165.10984 C 244.62405000000012,164.85908999999998 243.6039500000001,164.70901999999998 242.83599000000012,164.42534999999998 C 241.88848000000013,164.07536 241.0351900000001,163.77239999999998 240.36399000000011,163.42534999999998 C 239.5515500000001,163.00527999999997 238.56180000000012,163.01602999999997 237.88532000000012,162.43202 C 237.31722000000013,161.94156999999998 236.69361000000012,161.1006 236.02932000000013,160.91734 C 234.99851000000012,160.63296 234.26368000000014,160.37373 233.33332000000013,160.16667999999999 C 232.39551000000012,159.95799 231.51600000000013,160.00216999999998 230.65266000000014,160.00000999999997 C 229.75715000000014,159.99774999999997 228.94917000000015,159.69061999999997 228.24282000000014,159.35266999999996 C 227.38833000000014,158.94383999999997 226.59551000000013,159.00226999999995 225.60000000000014,159.00000999999997 C 224.80000000000013,158.99818999999997 223.80016000000015,159.00000999999997 222.83599000000012,159.00000999999997 C 221.88532000000012,159.00000999999997 220.9999900000001,159.00000999999997 220.18566000000013,159.00000999999997 C 219.22933000000012,159.00000999999997 218.45832000000013,159.00000999999997 217.5973300000001,159.00000999999997 C 216.70033000000012,159.00000999999997 215.8213300000001,159.00000999999997 215.0143200000001,159.00000999999997 C 213.97066000000012,159.00000999999997 212.9999900000001,159.00000999999997 212.2428200000001,159.00000999999997 C 211.3428300000001,159.00000999999997 210.5955000000001,159.00000999999997 209.6000000000001,159.00000999999997 C 208.8000000000001,159.00000999999997 207.80016000000012,159.00000999999997 206.8359900000001,159.00000999999997 C 205.8853200000001,159.00000999999997 204.99999000000008,159.00000999999997 204.1999900000001,159.00000999999997 C 203.3639900000001,159.00000999999997 202.3337900000001,158.91087999999996 201.6526600000001,159.05716999999999 C 200.5954900000001,159.28421999999998 199.90628000000012,159.93337999999997 199.1146700000001,159.99867999999998 C 198.1777800000001,160.07598 197.35593000000011,159.87945 196.5208300000001,160.54167999999999 C 195.7400100000001,161.16088 195.51711000000012,161.99844 195.1666700000001,162.83334 C 194.8294000000001,163.63684999999998 193.9385400000001,163.96264 193.2400000000001,163.98935 C 192.1439200000001,164.03127 191.3563900000001,164.05068 190.8901600000001,164.76169000000002 C 190.4207200000001,165.47760000000002 189.8173500000001,166.17734000000002 189.1666600000001,166.83335000000002 C 188.63816000000008,167.36619000000002 187.8998100000001,168.10020000000003 187.3639900000001,168.63602000000003 C 186.6786600000001,169.32135000000002 186.17359000000008,169.82428000000004 185.4839900000001,170.51602000000003 C 184.76054000000008,171.24171 184.5628800000001,171.96768000000003 183.91600000000008,172.71467 C 183.40247000000008,173.30769 182.46782000000007,173.52055000000001 181.8613300000001,174.18534000000002 C 181.1834400000001,174.92840000000004 180.92720000000008,175.68249000000003 180.50000000000009,176.52083000000002 C 180.0979800000001,177.30979000000002 180.00510000000008,178.17462 180.00000000000009,179.11467000000002 C 179.9946600000001,180.10016000000002 180.11584000000008,180.81371000000001 180.85333000000008,181.48399 C 181.47767000000007,182.05145000000002 182.0276000000001,182.31056 183.0293200000001,183.11467000000002 C 183.5954800000001,183.56915 184.3045000000001,184.30450000000002 184.8853200000001,184.88533 C 185.4839800000001,185.48399 186.1746600000001,186.17467000000002 186.8333200000001,186.83333000000002 C 187.3639900000001,187.364 188.1001700000001,188.10018000000002 188.6359900000001,188.63600000000002 C 189.3213200000001,189.32133000000002 189.82425000000012,189.82640000000004 190.5159900000001,190.51600000000002 C 191.2416800000001,191.23945000000003 191.9176900000001,191.49978000000002 192.7146400000001,192.08399000000003 C 193.4983500000001,192.65848000000003 194.2369600000001,192.76989000000003 194.83065000000008,193.56798000000003 C 195.28338000000008,194.17658000000003 195.54264000000006,195.08480000000003 194.83331000000007,194.66666000000004 C 194.29826000000006,194.35126000000002 193.78666000000007,193.78135000000003 192.99998000000008,192.99999000000003 C 192.3979300000001,192.40203000000002 191.80300000000008,191.79696 190.99998000000008,190.99999000000003 C 190.40222000000009,190.40673000000004 189.86412000000007,189.76163000000003 188.99998000000008,189.33332000000001 C 188.24290000000008,188.95808000000002 187.37971000000007,188.98261000000002 186.39997000000008,188.64283 C 185.7845800000001,188.42941 184.79073000000008,187.91708 184.1999700000001,187.58933 C 183.38654000000008,187.13805 182.6086500000001,186.50860999999998 182.0208000000001,186.02082 C 181.1770000000001,185.32065999999998 180.4763700000001,185.10569999999998 179.69547000000009,184.64282999999998 C 178.7703400000001,184.09445999999997 178.2000600000001,183.55006999999998 177.48397000000008,183.28533 C 176.5471100000001,182.93896999999998 175.58932000000007,182.99999 174.6786400000001,182.99999 C 173.99997000000008,182.99999 172.8853100000001,182.99999 171.99997000000008,182.99999 C 171.24280000000007,182.99999 170.34280000000007,182.99999 169.59547000000006,182.99999 C 168.59863000000007,182.99999 167.76397000000006,182.99999 166.83329000000006,182.99999 C 166.04279000000005,182.99999 165.18929000000006,182.99999 163.99996000000007,182.99999 C 163.10447000000008,182.99999 162.52079000000006,182.99846 161.68529000000007,182.99999 C 160.44812000000007,183.00225 159.73363000000006,183.00005 158.66663000000005,183.16666 C 158.02691000000004,183.26654000000002 157.31415000000004,183.39048 156.24813000000006,183.81882000000002 C 155.13685000000007,184.26535 154.48193000000006,184.76381 154.15263000000007,185.00083 C 153.49588000000008,185.47353 152.55513000000008,186.24024 151.47863000000007,186.63566 C 150.76759000000007,186.89684 150.00001000000006,186.95867 149.25263000000007,187.04366 C 148.16669000000007,187.16716 147.15653000000006,187.33896 146.54163000000005,187.52082 C 145.67873000000006,187.77602 144.69176000000004,188.21848 143.99996000000004,188.47915999999998 C 143.32302000000004,188.73425999999998 142.30904000000004,188.86655 141.52079000000003,189.02082 C 140.31573000000003,189.25668 139.87325000000004,189.77267999999998 139.25179000000003,190.29465 C 138.42544000000004,190.98873 137.63772000000003,191.16172999999998 136.91729000000004,191.71598999999998 C 136.22335000000004,192.24988 136.49352000000005,192.88088999999997 137.28663000000003,192.96398999999997 C 137.99593000000004,193.03829999999996 139.18563000000003,192.99998999999997 139.99996000000004,192.99998999999997 C 140.81429000000006,192.99998999999997 141.77196000000004,192.99998999999997 142.56246000000004,192.99998999999997 C 143.16613000000004,192.99998999999997 144.52152000000004,192.98867999999996 145.25263000000004,193.00898999999995 C 146.00039000000004,193.02975999999995 146.76758000000004,193.03060999999997 147.83329000000003,193.33331999999996 C 148.86416000000003,193.62611999999996 149.43984000000003,194.03862999999996 150.31330000000003,194.43199999999996 C 151.29714,194.87506999999997 152.00266000000002,194.96269999999996 152.68397000000002,195.08266999999995 C 153.68986,195.25978999999995 154.51455,195.52722999999995 155.40130000000002,195.71599999999995 C 156.29437000000001,195.90610999999996 157.18890000000002,195.97782999999995 158.04279000000002,195.99549999999996 C 159.07825000000003,196.01693999999998 159.99390000000002,195.94038999999995 160.99996000000002,196.16666999999995 C 161.61281000000002,196.30451999999994 162.38854,196.69391999999996 163.40130000000002,196.91732999999996 C 164.22840000000002,197.09977999999995 165.17860000000002,197.30915999999996 165.94813000000002,197.70533999999998 C 166.48806000000002,197.98331 167.19364000000002,198.52227 168.33863000000002,198.93865999999997 C 169.14574000000002,199.23217999999997 169.81794000000002,199.47814999999997 170.60129000000003,199.71599999999998 C 171.58638000000005,200.01511999999997 172.46636000000004,200.00656999999998 173.42145000000002,200.22165999999999 C 174.24581000000003,200.40731 174.83052000000004,200.60333 175.99996000000002,201.16666999999998 C 176.60982,201.46045999999998 177.46706,202.00213 178.04279000000002,202.29016 C 179.05896,202.79852 179.77794000000003,202.91906999999998 180.68396,203.08266999999998 C 181.68675000000002,203.26375 182.49672,203.47757 183.23062000000002,203.80132999999998 C 184.22175000000001,204.23856999999998 184.78873000000002,204.70951999999997 185.76796000000002,204.91733 C 186.49114000000003,205.0708 187.70531000000003,205.28417 188.19012,205.70534 C 188.80281,206.23758 189.6645,206.84484 190.34729000000002,207.04817 C 191.38655000000003,207.35768 192.09367,207.9333 192.88528000000002,207.99867 C 193.81153000000003,208.07516 194.44209000000004,208.67878000000002 195.22128000000004,208.87817 C 195.92990000000003,209.05951000000002 195.99461000000002,207.77871000000002 195.99995000000004,206.8 C 196.00431000000003,206.00001 195.99995000000004,205.0 195.99995000000004,204.18933 C 195.99995000000004,203.31467 195.99995000000004,202.31734 195.99995000000004,201.52083000000002 C 195.99995000000004,200.76933000000002 196.01481000000004,199.66121 195.99978000000004,198.67867 C 195.98939000000004,197.99978000000002 195.77862000000005,197.0215 195.35261000000006,196.30451000000002 L 195.02078000000006,195.47918" fill="none" id="svg_1" stroke="#000" stroke-width="2"/>
	<path d="M 216.0,187.0 C 216.80133,185.00267 217.636,185.0 218.65717,185.0 C 219.4045,185.0 220.4,184.99986 221.20000000000002,185.0 C 222.19983000000002,185.00017 223.07886000000002,184.83794 223.83333000000002,185.33333 C 224.61,185.84329 224.73532000000003,186.8644 225.05268,187.69549999999998 C 225.34035,188.44888999999998 225.92231,189.31626999999997 225.97918,189.99999999999997 C 226.07159000000001,191.11101999999997 226.09712000000002,192.01368999999997 225.94285000000002,192.75716999999997 C 225.75126000000003,193.68055999999999 225.25398,194.42949999999996 224.45735000000002,194.75699999999998 C 223.55255000000002,195.12897999999998 222.76802,194.99864999999997 221.65068000000002,194.99999999999997 C 220.66669000000002,195.00116999999997 219.99467,194.99999999999997 219.25069000000002,194.99999999999997 C 218.14302,194.99999999999997 217.30902000000003,194.99999999999997 216.36402,194.99999999999997 C 215.51603,194.99999999999997 214.59841,195.29734999999997 213.76169000000002,194.99099999999999 C 212.93694000000002,194.68901 213.00228,193.64817 213.00002,192.636 C 212.99816,191.79865999999998 213.00002,190.83333 213.00002,190.0 C 213.00002,189.16667 213.11661,188.22002 213.85335,187.80133 C 214.48284,187.44359 215.65817,187.10455000000002 216.50002,187.02083000000002 C 217.32952,186.93834 218.26136,187.00000000000003 219.05185,187.00000000000003 C 220.07852,187.00000000000003 220.76402,187.00000000000003 221.59868,187.00000000000003 C 222.60002,187.00000000000003 223.40001,187.00000000000003 224.40135,187.00000000000003 C 225.23601000000002,187.00000000000003 226.16698,186.98253000000003 226.94818,187.00450000000004 C 227.99110000000002,187.03384000000003 228.84216,187.25760000000002 229.65068,187.57466000000002 C 230.52801,187.91872000000004 231.26268,187.89601000000002 232.23201,188.08400000000003 C 233.2132,188.27428000000003 233.7886,188.71668000000003 234.77202,188.91733000000002 C 235.55316,189.07671000000002 236.48802,189.16933000000003 237.52152,189.44267000000002 L 238.25719,189.70533000000003 L 239.02085,189.99999000000003 L 239.80453,190.29465000000002" fill="none" id="svg_2" stroke="#000" stroke-width="2"/>
</svg>
