<?xml version="1.0" ?>
<svg baseProfile="full" height="480" version="1.1" width="640" xmlns="http://www.w3.org/2000/svg" xmlns:ev="http://www.w3.org/2001/xml-events" xmlns:xlink="http://www.w3.org/1999/xlink">
	<defs/>
	<path d="M 194.0,190.0 C 195.82533,190.0 196.83333,190.0 197.6955,190.0 C 198.60001,190.0 199.41738,189.91052 200.02533,189.42534 C 200.64983,188.92696 201.60001,189.0 202.5,189.0 C 203.39999,189.0 204.3,189.0 205.20134,189.0 C 206.16666999999998,189.0 207.0,189.0 207.83333,189.0 C 208.69549999999998,189.0 209.636,189.0 210.48399999999998,189.0 L 211.34733999999997,189.0" fill="none" id="svg_1" stroke="#000" stroke-width="2"/>
	<path d="M 193.0,189.0 C 193.0,190.8 193.1402,191.76126 194.067,191.94284 C 194.78386,192.08329999999998 195.83333000000002,192.0 196.53833,192.0 C 197.51334,192.0 198.364,191.99931 199.3,192.0 C 200.19999,192.00067 201.05082000000002,192.30084 201.69999,192.64734 C 202.54937,193.10069000000001 203.55508,192.70238 204.38932000000003,193.01067 C 205.13572000000002,193.28649000000001 205.26568000000003,194.43618 206.10000000000002,194.87867 C 206.93481000000003,195.32142 207.60000000000002,195.57467 208.49999000000003,196.00001 L 209.29999000000004,196.35267 L 209.99999000000003,196.83334" fill="none" id="svg_2" stroke="#000" stroke-width="2"/>
</svg>
