<?xml version="1.0" ?>
<svg baseProfile="full" height="480" version="1.1" width="640" xmlns="http://www.w3.org/2000/svg" xmlns:ev="http://www.w3.org/2001/xml-events" xmlns:xlink="http://www.w3.org/1999/xlink">
	<defs/>
	<path d="M 278.51135,192.09091 C 277.51135,193.11174 277.23703,194.04046 276.86404,194.78641000000002 C 276.47485,195.56479000000002 276.44442,196.43447 275.9367,197.11624 C 275.4595,197.75705 275.60481999999996,198.76929 275.08601999999996,199.48024 C 274.57179999999994,200.18491 273.57225999999997,200.30614 273.51133999999996,201.19092 C 273.44953999999996,202.08879000000002 273.28182,202.7972 272.51133999999996,203.25759 C 271.79186,203.68751 271.81206,204.64660999999998 271.50068999999996,205.48024999999998 C 271.21662999999995,206.24076 270.31023,206.65953 269.91137,207.27625999999998 C 269.31102999999996,208.20450999999997 269.10600999999997,208.93644999999998 268.48602,209.65491999999998 C 267.95288,210.27272999999997 266.83459,210.01702999999998 266.11136,210.52692999999996 C 265.32291,211.08280999999997 264.86664,211.79007999999996 264.51135,212.59092999999996 C 264.1568,213.39008999999996 263.57225999999997,214.18446999999995 263.51135,215.06559999999996 C 263.45434,215.89028999999996 263.51189999999997,216.79092999999997 263.51135,217.61175999999995 C 263.51068,218.57359999999994 263.42761,219.36282999999995 262.9367,220.10559999999995 C 262.49114,220.77972999999994 262.51379,221.71080999999995 262.08601999999996,222.49092999999996 C 261.63482,223.31383999999997 261.20408999999995,224.14276999999996 260.86404,224.84810999999996 C 260.45387999999997,225.69879999999995 260.55816,226.47800999999995 260.15869,227.33376999999996 C 259.73330999999996,228.24497999999997 259.51135,229.09093999999996 259.51135,229.89093999999997 C 259.51135,230.79092999999997 259.51135,231.69093999999998 259.51135,232.61176999999998 C 259.51135,233.41227999999998 259.51135,234.26560999999998 259.51135,235.20560999999998 C 259.51135,236.19095 259.51135,237.09094 259.51135,237.89093999999997 C 259.51135,238.79092999999997 259.51135,239.69093999999998 259.51135,240.61176999999998 C 259.51135,241.41227999999998 259.51135,242.26560999999998 259.51135,243.20693999999997 C 259.51135,244.25760999999997 259.51135,244.92693999999997 259.51135,245.69227999999998 C 259.51135,246.68644999999998 259.51123,247.60560999999998 259.51135,248.59095 C 259.51144,249.41212 259.43264999999997,250.30617999999998 260.01135,251.04927999999998 C 260.43622,251.59485999999998 260.51135,252.39094999999998 260.51135,253.29228999999998 C 260.51135,254.25761999999997 260.47107,255.09193 260.51135,255.92427999999998 C 260.55406999999997,256.80735 261.32916,257.32300999999995 261.51153,258.19077 C 261.67806,258.9831 262.42271999999997,259.473 262.9367,260.06561999999997 C 263.45601999999997,260.66441 263.46295,261.58036 263.54735999999997,262.30161 C 263.66432999999995,263.30118 264.07408999999996,264.04852999999997 264.39003999999994,265.06942999999995 C 264.60817999999995,265.77425999999997 264.99300999999997,266.64254999999997 265.81136999999995,267.03826999999995 C 266.67574999999994,267.45624 267.14606,267.92657999999994 267.56402999999995,268.7909599999999 C 267.95971999999995,269.60928999999993 268.85842999999994,269.92736999999994 269.61135999999993,270.3122899999999 C 270.37456999999995,270.7024599999999 271.1777399999999,271.0068999999999 271.91137999999995,271.5269499999999 C 272.69848999999994,272.0848999999999 273.11135999999993,272.6909199999999 273.81136999999995,273.3909299999999 C 274.51138,274.09093999999993 275.00023999999996,274.6361099999999 275.83269999999993,275.19094999999993 C 276.4881899999999,275.62783999999994 277.3415799999999,276.09511999999995 278.01134999999994,276.59093999999993 C 278.82875999999993,277.1960699999999 279.6270099999999,277.44676999999996 280.2685199999999,278.19075999999995 C 280.8171299999999,278.82698999999997 281.2671799999999,279.57235 281.9540399999999,279.96959999999996 C 282.7067899999999,280.40495999999996 283.4151299999999,280.76104 283.9473599999999,281.10158999999993 C 284.7300699999999,281.6024099999999 285.5538999999999,281.81560999999994 286.3113699999999,282.17491999999993 C 287.1767299999999,282.5854099999999 287.6262499999999,283.4307799999999 288.3966999999999,283.8055999999999 C 289.2712099999999,284.2310499999999 290.1230199999999,283.69033999999994 291.0646999999999,284.1269499999999 C 291.8146999999999,284.4746999999999 292.3621899999999,285.0513299999999 293.3420399999999,285.09093999999993 C 294.1581399999999,285.1239299999999 294.9846799999999,285.4187599999999 295.7940399999999,285.66561999999993 C 296.82900999999987,285.9812599999999 297.4828799999999,286.0129999999999 298.1940299999999,286.06560999999994 C 298.9682299999999,286.1228899999999 299.80266999999986,286.1461499999999 301.13234999999986,286.3124399999999 C 302.0577299999999,286.42815999999993 302.5181499999999,286.5132499999999 303.41402999999985,286.7015999999999 C 304.25951999999984,286.8793599999999 305.66082999999986,287.2798199999999 306.21401999999983,287.4909399999999 C 306.9609399999998,287.7759999999999 307.93163999999985,288.1938199999999 308.73668999999984,288.4909399999999 C 309.55760999999984,288.7938899999999 310.58586999999983,289.2003799999999 311.27535999999986,289.4802899999999 C 312.1054099999999,289.8172699999999 312.9103699999999,290.0391299999999 313.74737999999985,290.0802699999999 C 314.9314899999998,290.1384699999999 315.46853999999985,290.0909499999999 316.32202999999987,290.0909499999999 C 317.51135999999985,290.0909499999999 318.4118999999999,290.08215999999993 319.01135999999985,290.1117899999999 C 319.91260999999986,290.1563499999999 321.1109099999999,290.3662499999999 321.69003999999984,290.5162699999999 C 322.50027999999986,290.7261699999999 323.53790999999984,291.0482499999999 324.51135999999985,291.0909499999999 C 325.26779999999985,291.1241199999999 326.16403999999983,291.0909499999999 327.0273799999999,291.0909499999999 C 327.99054999999987,291.0909499999999 328.9113799999999,291.0909499999999 329.8113799999999,291.0909499999999 C 330.7113699999999,291.0909499999999 331.61136999999985,291.0909499999999 332.51135999999985,291.0909499999999 L 333.39004999999986,291.0909499999999 L 334.2158899999999,291.0909499999999 L 335.15420999999986,291.0909499999999" fill="none" id="svg_1" stroke="#000" stroke-width="2"/>
	<path d="M 288.51135,167.09091 C 287.51135,168.09091 286.83047,168.37378 286.22735,169.00691 C 285.68047,169.58101 285.7691,170.65817 285.08602,171.05491 C 284.34279000000004,171.48658 283.53008,171.51574 283.51134,172.44807 C 283.49443,173.28941 283.02217,173.90243 282.5367,174.52691000000002 C 281.95677,175.27288000000001 281.44365,176.03387 281.03218,176.59091 C 280.42732,177.40977 279.78587,177.96487000000002 279.52202,178.70158 C 279.22917,179.51928 278.82994,179.93785 278.52202,180.70158 C 278.18944,181.52645 278.51134,182.4909 278.51134,183.39091000000002 C 278.51134,184.29090000000002 278.51134,185.19091000000003 278.51134,186.09091 L 278.67803000000004,186.92424 L 279.39004000000006,187.31224" fill="none" id="svg_2" stroke="#000" stroke-width="2"/>
	<path d="M 291.51135,168.09091 C 293.07538,167.51625 293.69186,166.63299 294.51135,166.25758000000002 C 295.25406,165.91734000000002 296.21136,166.09091 297.11136,166.09091 C 298.01135,166.09091 298.9462,165.84804 299.80686,166.09541000000002 C 300.57473999999996,166.31613000000002 301.03204999999997,167.07829 301.91137999999995,167.09091 C 302.80677,167.10377 303.53265999999996,167.47297 304.08602999999994,168.11624 C 304.64568999999995,168.76681 305.29330999999996,169.20801 306.11135999999993,169.66557 C 306.88366999999994,170.09755 307.3853199999999,170.81639 308.1220399999999,171.08024 C 308.9397599999999,171.37309 309.9094899999999,171.13201 310.5367099999999,171.66557 C 311.13420999999994,172.17384 311.6780399999999,172.92424 312.51134999999994,173.09091 C 313.34468999999996,173.25758000000002 313.18816999999996,174.24533 313.73268999999993,174.96957 C 314.21602999999993,175.61242000000001 314.9864999999999,175.83575000000002 315.80684999999994,176.09541000000002 C 316.57399999999996,176.33822 316.97328999999996,177.3273 317.34468999999996,178.09091 C 317.71135999999996,178.84483 318.12202999999994,179.65491 318.90068999999994,180.05491 L 319.51134999999994,180.37624 L 319.51134999999994,181.2909" fill="none" id="svg_3" stroke="#000" stroke-width="2"/>
	<path d="M 302.51135,184.09091 C 303.73269,184.96957 304.4172,185.47778 304.9367,186.06558 C 305.45180999999997,186.6484 305.39626,187.79484000000002 306.12203,188.08024 C 306.93081,188.39829 307.11280999999997,188.80509 307.54735,189.6549 C 307.90367,190.35172 308.14702,191.00308 308.56853,191.73374 C 309.03646000000003,192.54484000000002 309.18898,193.24470000000002 309.73268,193.96956 C 310.21498,194.61258 310.51134,195.29089 310.51134,196.1909 C 310.51134,197.09089 310.51134,197.8909 310.51134,198.79089 C 310.51134,199.65489 309.95842000000005,200.20810999999998 309.22603000000004,199.80689999999998 C 308.43547,199.37383 307.96608000000003,198.64113999999998 307.22603000000004,198.17621999999997 C 306.44917000000004,197.68817999999996 305.75502000000006,197.77634999999998 305.51003000000003,196.89221999999998 C 305.28975,196.0973 304.03063000000003,196.41917999999998 303.56853,195.73823 C 303.04454,194.96606 303.07537,194.12688999999997 302.21135,194.09088999999997 L 301.3127,194.08955999999998 L 300.56401,193.73372999999998" fill="none" id="svg_4" stroke="#000" stroke-width="2"/>
	<path d="M 299.51135,189.09091 C 301.21136,190.08641 302.1542,190.20524 302.47537,190.95224000000002 L 302.51135,191.92424000000003 L 302.56854,192.72925000000004" fill="none" id="svg_5" stroke="#000" stroke-width="2"/>
	<path d="M 302.51135,186.09091 C 300.67804,186.25758000000002 300.69295999999997,187.13196000000002 300.42602,187.89091000000002 C 300.15832,188.65200000000002 298.86415999999997,188.87419000000003 298.53219,189.59091 C 298.17184000000003,190.36893 298.51135,191.39091000000002 298.51135,192.29091 L 298.51153,193.19092" fill="none" id="svg_6" stroke="#000" stroke-width="2"/>
	<path d="M 291.51135,180.09091 C 289.81137,180.09091 289.03735,180.29410000000001 288.34469,180.92424 C 287.74496,181.46985 287.51135,182.19092 287.51135,183.09091 C 287.51135,183.89091000000002 287.56417999999996,184.94659000000001 288.51135,185.09091 C 289.30224,185.21141 290.1542,185.03374 290.51004,184.28958 L 290.51135,183.39091 L 290.51135,182.49089999999998 L 290.51135,181.59090999999998" fill="none" id="svg_7" stroke="#000" stroke-width="2"/>
	<path d="M 306.51135,180.09091 C 306.51135,181.09091 306.51135,181.89091000000002 306.51135,182.79091 C 306.51135,183.69092 306.44439,184.85224 307.12203999999997,185.08025 C 307.96497,185.36388 308.90551999999997,185.211 309.53670999999997,185.66558 C 310.16089,186.1151 310.11841,185.15914 310.59671,184.37626 C 311.08730999999995,183.57322 311.12915,183.30161 310.31271,183.08959000000002 C 309.51223,182.88172 309.01135,182.09092 308.48602,181.51626000000002 L 307.80685,181.03825 L 307.01135,180.59092 L 306.21136,180.14808000000002" fill="none" id="svg_8" stroke="#000" stroke-width="2"/>
	<path d="M 321.51135,188.09091 C 321.67804,189.92424 322.74377,189.65664 323.34469,190.25758000000002 C 323.94561,190.85850000000002 323.42977,192.03976000000003 324.12203,192.65490000000003 C 324.78008,193.23965000000004 325.49871,193.61158000000003 325.51134,194.49090000000004 C 325.52419000000003,195.38633000000004 325.93669,196.06558000000004 326.50069,196.70158000000004 L 326.51134,197.59091000000004 L 326.51134,198.49090000000004 L 326.51134,199.38641000000004" fill="none" id="svg_9" stroke="#000" stroke-width="2"/>
	<path d="M 324.51135,191.09091 C 325.51135,190.25758000000002 326.04901,190.85208 327.01135,191.07008000000002 C 327.88937,191.26898000000003 328.81137,191.09082 329.71136,191.09091 C 330.6112,191.091 331.27496,191.40205 331.86404,192.03824 C 332.397,192.61383 333.27004999999997,193.03233 333.50685999999996,193.79541 C 333.76189999999997,194.6172 334.21532999999994,195.14455 335.01134999999994,195.59091 C 335.8108199999999,196.03921 336.55297999999993,196.40745 337.31136999999995,196.80691000000002 C 338.10004,197.22232000000002 339.00296,197.36265 339.72204999999997,197.70158 C 340.72024999999996,198.17205 341.28094999999996,198.52841 342.02603999999997,198.80557000000002 C 343.04215,199.18355000000003 343.57649,199.87861 344.37271999999996,200.05491 C 345.32237,200.26518000000002 346.23810999999995,200.09425000000002 346.92204,200.52691000000002 C 347.71913,201.03117 348.60826,201.46003000000002 349.17805,202.09091 C 349.73231,202.70457000000002 350.66029,202.75377 351.34470999999996,203.25758000000002 C 351.99791,203.73841000000002 352.58153,204.38031 352.99055,205.11174000000003 C 353.42314,205.88533000000004 353.43147,206.88380000000004 354.05305,207.59091000000004 C 354.58149,208.19206000000003 355.53285,208.55675000000002 356.34470999999996,209.09091000000004 C 356.90174999999994,209.45743000000004 357.82804999999996,210.01213000000004 358.53220999999996,210.07008000000005 C 359.50827999999996,210.15042000000005 360.47132999999997,209.70713000000003 361.26854,210.31240000000005 C 361.96912999999995,210.84432000000007 361.95952,211.90909000000005 362.53673,212.65490000000005 C 363.02085999999997,213.28043000000005 363.47243,213.85699000000005 364.03220999999996,214.59090000000006 C 364.62427999999994,215.36713000000006 365.25651,215.80883000000006 365.99402999999995,216.29090000000005 C 366.78903999999994,216.81054000000006 367.34729999999996,217.65449000000004 368.07938999999993,218.00690000000006 C 368.87244999999996,218.38866000000007 369.1460399999999,218.89353000000006 369.5473799999999,219.65489000000005 C 369.94654999999995,220.41215000000005 370.6880099999999,220.78642000000005 371.51136999999994,221.09089000000006 C 372.40549999999996,221.42152000000007 372.30906999999996,222.39021000000005 372.7328999999999,223.19073000000006 C 373.0729599999999,223.83300000000006 374.1619799999999,224.11289000000005 374.4860399999999,224.94155000000006 C 374.8282299999999,225.81653000000006 375.62412999999987,226.14333000000008 376.0753999999999,226.70156000000006 C 376.6980799999999,227.47179000000006 376.9879099999999,228.32201000000006 377.39006999999987,229.19089000000005 C 377.69646999999986,229.85291000000007 378.05559999999986,230.82987000000006 378.91139999999984,231.05489000000006 C 379.77830999999986,231.28284000000005 380.3654099999998,231.53913000000006 380.51588999999984,232.39089000000007 C 380.67967999999985,233.31806000000006 381.55247999999983,233.45595000000006 382.22605999999985,234.17489000000006 C 382.84772999999984,234.83842000000007 382.8819399999999,235.52081000000007 383.38987999999983,236.31239000000005 C 383.86884999999984,237.05882000000005 383.56599999999986,238.20100000000005 384.12205999999986,238.65489000000005 C 384.87489999999985,239.26939000000004 385.36305999999985,239.82182000000006 385.94737999999984,240.48022000000006 C 386.56260999999984,241.17343000000005 387.37480999999985,241.41694000000007 387.93672999999984,242.06556000000006 C 388.44603999999987,242.65345000000005 388.41737999999987,243.53797000000006 388.86406999999986,244.39089000000007 C 389.2580199999999,245.14310000000006 389.30132999999984,245.92949000000007 389.56856999999985,246.79088000000007 C 389.83724999999987,247.65685000000008 391.08333999999985,247.79750000000007 391.47539999999987,248.52689000000007 C 391.88491999999985,249.28875000000008 391.97380999999984,250.17124000000007 392.3447199999999,250.92421000000007 C 392.7118799999999,251.66959000000008 392.4638599999999,252.64450000000008 392.86406999999986,253.39088000000007 C 393.31642999999985,254.23455000000007 394.01921999999985,254.69952000000006 394.45421999999985,255.44804000000008 C 394.87868999999984,256.1784300000001 394.2671799999998,257.32299000000006 394.79540999999983,258.0068600000001 C 395.28011999999984,258.6343600000001 395.32964999999984,259.5499500000001 395.9473899999998,260.0655500000001 C 396.5805699999998,260.5940200000001 397.4006099999998,260.81540000000007 397.9905699999998,261.5908800000001 C 398.5517899999998,262.3285800000001 398.8265999999998,263.1332100000001 399.22738999999984,263.89087000000006 C 399.67672999999985,264.74027000000007 399.96578999999986,265.47373000000005 400.42873999999983,266.29089000000005 C 400.8731999999998,267.07541000000003 401.7316299999998,267.38775000000004 402.2683999999998,268.19070000000005 C 402.7607999999998,268.92727 402.14473999999984,269.94143 402.6780699999998,270.75753000000003 C 403.09322999999983,271.39278 404.1333899999998,271.67998000000006 404.7113999999998,272.29220000000004 C 405.3360299999998,272.95382000000006 405.7928499999998,273.75457000000006 406.2113999999998,274.43820000000005 C 406.6892399999998,275.21869000000004 407.1658999999998,275.91708000000006 407.5727299999998,276.7268700000001 C 408.0161799999998,277.6095900000001 408.6000399999998,278.0271000000001 409.1780799999998,278.9242300000001 C 409.63733999999977,279.63700000000006 410.2492499999998,280.35807000000005 410.8632299999998,280.8480600000001 C 411.5224699999998,281.3741800000001 412.01138999999984,282.1117300000001 412.3953999999998,282.6922100000001 L 413.1685899999998,283.6953800000001 L 413.53223999999983,284.11173000000014 L 414.11274999999983,284.77622000000014" fill="none" id="svg_10" stroke="#000" stroke-width="2"/>
	<path d="M 360.51135,265.09091 C 361.36337,267.4909 362.06784,268.03515 362.65936,268.69092 C 363.32721,269.43128 363.49637,270.51932 364.2167,270.98557 C 364.86846,271.40740999999997 365.27667,272.04697 365.84469,272.92426 C 366.25567,273.55903 367.09677,273.91593 367.75421,274.7436 C 368.14389,275.23417 368.68667,276.22776 369.21136,276.78642 C 369.89132,277.51039000000003 370.69287,277.86747 371.51135,278.11177000000004 C 372.36419,278.36632000000003 372.8352,278.99510000000004 373.39535,279.60826000000003 C 374.10839,280.38881000000003 374.89929,280.79762000000005 375.91137000000003,281.00691 C 376.70208,281.17042 377.72103000000004,281.28712 378.31136000000004,281.52693 C 379.12615000000005,281.85792 379.89437000000004,282.32438 380.67534000000006,282.65492 C 381.61052000000007,283.0507 382.41618000000005,283.23143 383.17302000000007,283.80076 C 383.77547000000004,284.25395000000003 384.65895000000006,284.96339 385.45952000000005,285.32926000000003 C 386.23348000000004,285.68296000000004 387.16927000000004,285.98664 387.99053000000004,286.07007000000004 C 388.82863000000003,286.15521000000007 389.74706000000003,285.96008000000006 390.62603,286.37625 C 391.27343,286.68277 391.89404,287.50754 392.7087,288.00558 C 392.85656,288.09597 392.12441,287.57928 391.31002,287.17358 C 390.65755,286.84854 389.84911,286.39138 389.33669000000003,285.90557 C 388.51717,285.12859000000003 387.92205,284.50155 387.31136000000004,283.89089 C 386.71135000000004,283.29091 386.02605000000005,282.5758 385.41137000000003,281.99108 C 384.82504000000006,281.43334 383.89779000000004,281.2452 383.03219,281.09090000000003 C 382.19152,280.94103 381.21118,279.71617000000003 381.79937,279.46157000000005 C 382.5418,279.14022000000006 383.27242,280.30425 383.99053000000004,280.57006000000007 C 385.00387000000006,280.9451200000001 385.76970000000006,281.1569100000001 386.57836000000003,281.4525700000001 C 387.31350000000003,281.7213700000001 388.3709,282.2216400000001 389.05419,282.7480700000001 C 389.72838,283.2675100000001 390.11071,283.6915500000001 390.91002000000003,284.4895600000001 C 391.49101,285.0695800000001 392.31239000000005,285.9600200000001 392.89668,286.4549200000001 C 393.45219000000003,286.9254400000001 394.27778,287.2983000000001 395.03218,287.59091000000006 C 395.8257,287.89868000000007 396.87633,288.19842000000006 397.62868,288.69092000000006 C 398.40785,289.20096000000007 398.86852,290.03375000000005 399.71135,290.09091000000006 L 400.61118999999997,290.0910600000001 L 401.42735,290.3749000000001" fill="none" id="svg_11" stroke="#000" stroke-width="2"/>
	<path d="M 333.51135,288.09091 C 334.51135,287.09091 335.23099,287.33233 335.68068999999997,287.89224 C 336.24935,288.60025 337.33401,288.98959 338.03218999999996,289.07007 C 339.04768999999993,289.18714 339.77599,289.06214 340.56319999999994,289.14806999999996 C 341.59694999999994,289.26091999999994 342.50991999999997,289.61526 343.1953699999999,289.89223999999996 C 344.19463999999994,290.29605 344.7459099999999,290.49517999999995 345.6158699999999,290.79091999999997 C 346.8091999999999,291.19658999999996 347.4000499999999,291.40954 348.2753499999999,291.6549 C 349.3371499999999,291.95254 350.0608699999999,291.99377 350.9068499999999,292.14358 C 351.9221699999999,292.32338999999996 352.5115599999999,292.61129 353.5113399999999,293.09091 C 354.3221899999999,293.47989 354.9548199999999,293.79938 355.9328499999999,293.96942 C 356.7397299999999,294.10971 357.61585999999994,294.08865000000003 358.5113399999999,294.09091 C 359.4068499999999,294.09317 360.2753499999999,294.09091 361.3446799999999,294.09091 C 362.0496999999999,294.09091 363.03034999999994,294.00213 363.88602999999995,294.10156 C 364.84937999999994,294.2135 365.51133999999996,294.59091 366.48984999999993,294.96942 L 367.3100099999999,295.08957000000004" fill="none" id="svg_12" stroke="#000" stroke-width="2"/>
	<path d="M 349.51135,281.09091 C 351.3367,281.10156 352.3551,281.23807 353.03219,281.61175000000003 C 353.85803000000004,282.06750000000005 354.52828,282.38919000000004 355.3327,282.72689 C 355.91595,282.97173000000004 357.11917,283.56683000000004 357.72204,283.93758 C 358.35436,284.32643 359.00230999999997,284.7697 360.03271,285.51241000000005 C 360.76809000000003,286.04247000000004 361.14205,286.31997000000007 361.88604000000004,286.90157000000005 C 362.63281000000006,287.48534000000006 363.69006,288.39052000000004 364.02737,288.68822000000006 C 364.68606,289.26955000000004 365.31100000000004,289.85460000000006 365.99536,290.32024000000007 C 366.99805,291.00246000000004 367.76718,291.28893000000005 368.53219,291.5909000000001 C 369.31451000000004,291.8996800000001 370.51675,292.41426000000007 370.91104,292.6337500000001 C 371.71387,293.0806800000001 372.48102,293.5965500000001 373.19702,294.14272000000005 C 374.19427,294.90343000000007 374.74069000000003,295.40423000000004 375.23938,295.84423000000004 C 375.90236999999996,296.42922000000004 376.70538,297.07857 377.49054,297.57006 C 378.33853,298.10088 378.99054,298.57006 379.71002,299.00423 L 380.45419,298.73372" fill="none" id="svg_13" stroke="#000" stroke-width="2"/>
	<path d="M 392.51135,288.09091 C 393.51135,288.25757 394.21182,288.73721 395.01135,289.09091 C 395.81631,289.44702 396.38357,289.91305 397.16402999999997,290.3909 C 397.84767999999997,290.80948 398.73803999999996,291.41837 399.39534999999995,291.8909 C 400.14192999999995,292.42758 400.92979999999994,292.77959999999996 401.62602999999996,293.57358 C 402.15986999999996,294.18241 402.80690999999996,294.79569 403.51133999999996,295.42426 C 404.01536999999996,295.874 404.42882,296.68692 405.28068999999994,297.20557 C 405.99409999999995,297.6399 406.8395299999999,297.86368000000004 407.82469999999995,298.29093 C 408.47731999999996,298.57395 409.34157999999996,299.0951 410.01134999999994,299.59092 C 410.82894999999996,300.19621 411.58379999999994,300.52778 412.34468999999996,301.25757999999996 C 412.80791999999997,301.70188999999993 413.22954999999996,302.52124999999995 413.83284999999995,303.29094 C 414.32045999999997,303.91301 414.91475999999994,304.49201999999997 415.71120999999994,305.29076 C 416.2998599999999,305.88109 416.84523999999993,306.44282999999996 417.49001999999996,307.06942 C 418.12796,307.68935 419.02935999999994,308.23805999999996 419.65002,308.69093999999996 C 420.38919,309.23031 420.89644999999996,309.99882999999994 421.48602,310.51625999999993 C 422.12378,311.07597999999996 422.50567,311.71809999999994 422.9367,312.49092999999993 C 423.39259999999996,313.30833999999993 423.15096,314.06233999999995 422.18987,314.09093999999993 C 421.49082999999996,314.11171999999993 420.51133999999996,314.09093999999993 419.72204,314.09093999999993 C 418.67803,314.09093999999993 417.81585,314.09151999999995 416.99053,314.09093999999993 C 416.02601999999996,314.0902699999999 415.27855,314.14809999999994 414.3117,313.86943999999994 C 413.52801,313.64357999999993 412.96966,312.75066999999996 412.17803,312.25758999999994 C 411.5815,311.8860399999999 410.53213,312.1294199999999 409.51133999999996,312.09092999999996 C 408.75257999999997,312.06233999999995 407.87244999999996,311.70345 407.16401999999994,311.44359 C 406.16432999999995,311.07689 405.3113599999999,311.09092999999996 404.41135999999995,311.09092999999996 C 403.51133999999996,311.09092999999996 402.75312999999994,311.13048 401.85868999999997,311.08644 C 400.99262999999996,311.04381 400.18983999999995,310.53166 399.18987,310.21225999999996 C 398.51372,309.99628999999993 397.49093,309.97794999999996 396.72204,309.65491999999995 C 395.97329,309.3403799999999 395.15627,308.66465999999997 394.62737,308.2909399999999 C 393.72767999999996,307.6552299999999 392.97677,307.5071899999999 392.22735,306.80558999999994 C 391.56933,306.1895599999999 391.37609,305.64500999999996 391.52203000000003,306.49091999999996 C 391.66577,307.32404999999994 392.32742,308.09613999999993 392.56402,308.8481 C 392.84793,309.75034999999997 393.18063,310.46214 393.71136,311.20693 C 394.18118000000004,311.86617 394.7319,312.79607 395.21136,313.38109 C 395.81127000000004,314.11307999999997 396.39428000000004,314.67695999999995 396.86853,315.39092 C 397.39438,316.18258 398.11136000000005,316.69094 398.71136,317.2896 L 399.51135,317.92427000000004 L 400.21136,318.20076000000006" fill="none" id="svg_14" stroke="#000" stroke-width="2"/>
	<path d="M 348.51135,290.09091 C 350.15954,290.80075 350.84128,291.41604 351.34335,292.20556 C 351.88930999999997,293.06410999999997 352.41742,293.46963 353.11404,294.06158 C 353.74426,294.59713 354.31451,295.34262 354.67535,295.87624999999997 C 355.37188,296.90637 355.69509,297.68050999999997 356.17269,298.24422999999996 C 356.95312,299.16542999999996 357.76527999999996,299.44766 358.50603,299.78640999999993 C 359.37242000000003,300.18261999999993 359.99803,300.6038499999999 360.67803000000004,301.25756999999993 C 361.34414000000004,301.89791999999994 361.83849000000004,302.4121399999999 362.7542,302.98556999999994 C 363.49584000000004,303.44998999999996 363.94948000000005,304.18499999999995 364.67803000000004,304.92425999999995 C 365.26592000000005,305.5207899999999 365.9417,305.88987 366.51134,306.5909199999999 C 367.08034000000004,307.2912099999999 367.72560000000004,307.64825999999994 368.62737000000004,308.29092999999995 C 369.28661000000005,308.76075 369.97335000000004,309.33459999999997 370.68602000000004,309.65491 C 371.60155000000003,310.06640999999996 372.54564000000005,310.21563999999995 373.21135000000004,310.79540999999995 C 373.85124,311.35268999999994 374.37071000000003,311.93375 375.17302000000007,312.39089999999993 C 375.95015000000006,312.83370999999994 376.93367000000006,313.1878699999999 377.72603000000004,313.49090999999993 C 378.50267,313.78793999999994 379.34438000000006,314.23034999999993 380.09001000000006,314.6549099999999 C 380.88801000000007,315.10928999999993 381.73033000000004,315.3525699999999 382.42735000000005,316.0068999999999 C 383.05098000000004,316.5923499999999 383.70942,317.29284999999993 384.21135000000004,317.7909299999999 C 384.90871000000004,318.4829499999999 385.77251,318.9044199999999 386.42870000000005,319.3749099999999 C 387.16585000000003,319.9034399999999 387.80602000000005,320.1435899999999 388.5260200000001,320.6655899999999 L 389.21587000000005,321.0864299999999 L 390.1113500000001,321.09091999999987" fill="none" id="svg_15" stroke="#000" stroke-width="2"/>
	<path d="M 309.51135,248.09091 C 311.22604,248.26158 311.50094,249.11157 311.51135,250.06924 C 311.52063,250.92419 311.15017,251.89183 311.54735999999997,252.6549 C 311.94259,253.41424 312.71977999999996,253.93057 312.45419,254.7909 C 312.18672999999995,255.65725 311.17226999999997,255.98162 310.53670999999997,256.51623 C 309.88735999999994,257.06243 309.51709,257.90899 308.71002,258.08956 C 307.83304,258.28579 306.83941,257.76278 306.03219,258.11175000000003 C 305.3182,258.42040000000003 304.80685,259.08865000000003 303.86852,259.09091 C 302.99053,259.09302 302.11135,259.09091 301.21135,259.09091 C 300.31136,259.09091 299.41008,259.04312 298.51133999999996,259.09091 C 297.70795999999996,259.13363 296.84835,259.56009 296.12202999999994,260.06558 C 295.4622099999999,260.52478 295.75422999999995,261.52572000000004 295.50685999999996,262.38641 C 295.28615999999994,263.15429 294.52705999999995,263.72375 294.08601999999996,264.4909 C 293.6704,265.21383000000003 293.47414,266.09176 293.51133999999996,266.89089 C 293.55405999999994,267.80855 294.45045999999996,267.87566000000004 294.51133999999996,266.9909 C 294.57313999999997,266.09304000000003 294.79423999999995,265.41 295.42735999999996,264.80691 C 296.00149,264.26003000000003 296.81136,264.09091 297.71135999999996,264.09091 C 298.61134999999996,264.09091 299.51134999999994,264.09091 300.31136999999995,264.09091 C 301.21135999999996,264.09091 302.11135999999993,264.09091 302.99053999999995,264.09091 C 303.86852999999996,264.09091 304.8330399999999,264.2858 305.71001999999993,264.08957 C 306.51708999999994,263.909 306.9468099999999,263.10891999999996 307.81136999999995,263.09091 C 308.71117999999996,263.07217 309.61135999999993,263.09091 310.51134999999994,263.09091 C 311.31136999999995,263.09091 312.33394999999996,262.67969 313.15419999999995,263.14807 C 313.96736999999996,263.61239 314.12035999999995,264.59814 314.86851999999993,265.03375 C 315.5986499999999,265.45886 316.56217999999996,265.39175 317.2113499999999,265.73825 C 318.06071999999995,266.19159 319.06330999999994,265.80179 319.9006799999999,266.10156 C 320.6374399999999,266.36529 321.35480999999993,267.09359 321.5100199999999,266.28958 C 321.6806999999999,265.40549 320.8258499999999,264.66833 320.56851999999986,263.79092 C 320.3150699999999,262.92672000000005 320.13232999999985,262.28167 319.54733999999985,261.66558000000003 C 319.06707999999986,261.15978 318.52176999999983,260.57024 318.5113299999999,259.69091000000003 C 318.5006499999999,258.79098000000005 318.5113299999999,257.89089 318.5113299999999,256.9909 C 318.5113299999999,256.09091 318.5113299999999,255.29090000000002 318.5113299999999,254.39091000000002 C 318.5113299999999,253.4909 318.5113299999999,252.59091 318.5006799999999,251.70158 L 318.0113299999999,251.09091" fill="none" id="svg_16" stroke="#000" stroke-width="2"/>
	<path d="M 324.51135,247.09091 C 325.91137,249.45491 326.53276999999997,250.29288 327.21136,250.73375000000001 C 328.00372,251.24854000000002 328.11807,251.90920000000003 328.54736,252.65491 C 328.94433000000004,253.34449 330.11136000000005,253.09091 331.01135000000005,253.09091 C 331.91137000000003,253.09091 332.80685000000005,253.09091 333.73288,253.09091 C 334.61136000000005,253.09091 335.51221000000004,253.05371 336.31137,253.09091 C 337.22903,253.13362 337.79755,253.76834 338.42737,254.37491 C 339.00211,254.92842 339.19962,255.73671 339.59537,256.52292 C 339.97074,257.26862 340.61182,257.88272 341.01136,258.59091 C 341.50669000000005,259.4689 342.63523000000004,259.97879 342.44971000000004,260.73825 C 342.27622,261.44846 340.91138000000007,261.09155 339.99054000000007,261.09091 C 339.02869000000004,261.09024 338.21420000000006,261.04339 337.4967000000001,260.51623 C 336.8576900000001,260.04675000000003 336.3570500000001,259.17465 335.5113500000001,259.09091 C 334.7152700000001,259.01208 333.6510900000001,258.64441 332.8640400000001,259.14807 C 332.2449300000001,259.54425000000003 332.5057300000001,260.87894 331.6780400000001,261.09091 C 330.8875400000001,261.29333 330.3570600000001,262.00717000000003 329.5113500000001,262.09091 C 328.7152700000001,262.16974 327.8112200000001,262.10773 326.9113700000001,262.09091 C 325.9468300000001,262.0729 325.5136000000001,261.44357 325.5113500000001,260.57007 C 325.5088200000001,259.59091 325.5113500000001,258.69092 325.5113500000001,257.79093 C 325.5113500000001,256.89091 325.6000300000001,255.98653000000002 325.5113500000001,255.09092 C 325.42761000000013,254.24523000000002 324.73770000000013,253.82085 324.2900400000001,252.99091 C 323.94074000000006,252.34327000000002 323.4867600000001,251.56354000000002 323.0113500000001,251.07009000000002 C 322.47964000000013,250.51816000000002 322.4905400000001,249.61175000000003 321.8640400000001,249.03824000000003 L 321.5158600000001,248.38642000000004" fill="none" id="svg_17" stroke="#000" stroke-width="2"/>
	<path d="M 304.51135,241.09091 C 305.51135,241.09091 306.31137,241.09091 307.21136,241.09091 C 308.11135,241.09091 309.01135,241.08865 309.91137000000003,241.09091 C 310.81136000000004,241.09317000000001 311.71136,241.37491 312.31136000000004,241.80691000000002 L 313.22603000000004,242.08958" fill="none" id="svg_18" stroke="#000" stroke-width="2"/>
	<path d="M 320.51135,236.09091 C 318.75421,236.20524 318.02737,236.66025000000002 317.3367,237.27624 L 316.67804,237.92423 L 316.05304,238.57007 L 315.59671000000003,239.2909" fill="none" id="svg_19" stroke="#000" stroke-width="2"/>
	<path d="M 277.51135,222.09091 C 277.51135,224.88025000000002 277.51135,225.60557 277.51135,226.57008000000002 C 277.51135,227.4909 277.31646,228.41259000000002 277.51269,229.28958000000003 C 277.69329000000005,230.09662000000003 278.50100000000003,230.59073000000004 278.51135,231.45257000000004 C 278.52286,232.41233000000003 278.5784,233.12892000000005 278.34469,234.09091000000004 C 278.14779,234.90135000000004 277.76614,235.64822000000004 277.1007,236.46557000000004 C 276.66112000000004,237.00549000000004 275.86977,237.76061000000004 275.30068,238.26557000000005 C 274.5317,238.94790000000006 273.9056,239.31721000000005 273.16854,239.78640000000004 C 272.25078,240.37061000000006 271.77965,240.82369000000006 270.84969,241.39541000000006 C 270.27688,241.74755000000005 269.33165,242.23751000000004 268.56768,242.74807000000004 C 268.04375,243.09821000000005 267.36602,243.69224000000006 266.7647,244.48957000000004 L 266.47137,245.25491000000005" fill="none" id="svg_20" stroke="#000" stroke-width="2"/>
	<path d="M 279.51135,198.09091 C 279.51135,199.89091000000002 279.50534,200.79092 279.51135,201.69092 C 279.51669,202.49097 279.95099,203.34937 280.22735,203.97624000000002 C 280.61648,204.85893000000002 280.81503,205.75430000000003 281.42736,206.37491000000003 C 282.03008,206.98578000000003 282.39388,207.67685000000003 282.86404000000005,208.38642000000002 C 283.39248000000003,209.18397000000002 284.09280000000007,209.7306 284.90069000000005,210.05492 C 285.70919000000004,210.37949 286.37734000000006,210.90578000000002 287.33669000000003,211.05492 C 288.02004000000005,211.16115000000002 288.94158000000004,211.25284000000002 289.56402,211.73825000000002 C 290.21618,212.24684000000002 291.21136,212.09091 292.07537,212.12691 L 292.59536,212.80692000000002 L 293.4587,213.09092 L 294.22735,213.17625" fill="none" id="svg_21" stroke="#000" stroke-width="2"/>
</svg>
