<?xml version="1.0" ?>
<svg baseProfile="full" height="480" version="1.1" width="640" xmlns="http://www.w3.org/2000/svg" xmlns:ev="http://www.w3.org/2001/xml-events" xmlns:xlink="http://www.w3.org/1999/xlink">
	<defs/>
	<path d="M 299.0,346.0 C 297.29999,346.0 296.39062,346.11179 295.47916,345.97916 C 294.48983999999996,345.83520999999996 293.80859999999996,345.35352 292.80017,345.12134 C 292.03155,344.94437 291.17706,344.81345 290.41067,344.42533 C 289.59979,344.01469 288.67082999999997,344.07003999999995 287.95833999999996,343.95835 C 286.81017999999995,343.77836 286.31674,343.42799 285.47914999999995,343.00001 C 284.89694,342.70252 283.70604999999995,342.21252999999996 282.8213099999999,342.06134999999995 C 282.01857999999993,341.92416999999995 281.13359999999994,341.79645999999997 280.34932999999995,341.3893499999999 C 279.44624999999996,340.9205999999999 278.74868,340.5770599999999 277.94818,340.3571799999999 C 276.93251999999995,340.07821999999993 276.19928,340.2034599999999 275.16666,339.83334999999994 C 274.44662999999997,339.57525999999996 273.84463999999997,338.82165999999995 273.164,338.17465999999996 C 272.60461,337.64291999999995 271.80764999999997,337.00987 271.21065999999996,336.63598999999994 C 270.49398999999994,336.1871699999999 269.65254999999996,335.56228999999996 268.83333999999996,334.99999999999994 C 268.17378999999994,334.54729999999995 267.51158999999996,334.21959999999996 266.57867,333.45714999999996 C 266.03094,333.00951999999995 265.49673,332.48250999999993 264.95266,331.94818 C 264.16186,331.17150999999996 263.45284,330.44775 262.97915,330.0 C 262.49490000000003,329.54227 261.35848,328.57724 261.03201,328.31601 C 260.35171,327.77167000000003 259.6455,327.23178 258.96798,326.68399 C 258.03582,325.9303 257.50515,325.46686 256.82131000000004,324.81067 C 255.98864000000003,324.01166 255.60000000000005,323.60001 254.99999000000003,323.0 C 254.39998000000003,322.39999 253.59145000000004,321.60684 252.99999000000003,320.97916 C 252.59406,320.54837 251.79725000000002,319.58045 251.39548000000002,319.04285 C 250.75989,318.19239 250.33205,317.58414 249.57849000000002,316.69982999999996 C 249.05470000000003,316.08513999999997 248.47830000000002,315.47995 248.18931,315.164 C 247.59687,314.51628999999997 246.69657,313.48143999999996 246.09999000000002,312.74734 C 245.79826000000003,312.37606 245.20595000000003,311.62045 244.59999000000002,310.884 C 244.00580000000002,310.16183 243.40390000000002,309.48553000000004 242.82132000000001,308.84668 C 242.27316000000002,308.24561 241.73250000000002,307.71605999999997 240.96799000000001,306.68399 C 240.47467,306.01804 240.05182000000002,305.30011 239.45732,304.57867 C 239.00926,304.03494 238.23932000000002,303.23523 237.76799,302.68399 C 237.12714,301.93444999999997 236.65822,301.2272 236.25182,300.54733 C 235.67406,299.58078 235.33008,299.04141 234.78933,298.11734 C 234.38915,297.43347 233.99415000000002,296.66943000000003 233.59866,295.832 C 233.18316,294.95221 233.00361,294.48767 232.54283,293.60535 C 231.86859,292.3143 231.59096,291.93396 231.05183,291.20984 C 230.53235999999998,290.51212 229.94807,289.89026 229.33332,288.83333999999996 C 228.92857999999998,288.13748 228.65523,287.36922999999996 228.42132999999998,286.58932 C 228.18567,285.80355 227.90695999999997,284.59828999999996 227.69547999999998,283.80449999999996 C 227.48620999999997,283.01892 227.28428999999997,282.24069 226.83330999999998,281.16664999999995 C 226.54232,280.47365999999994 226.17113999999998,279.8379499999999 225.82530999999997,279.21065999999996 C 225.15988999999996,278.00368999999995 224.85284999999996,277.41222999999997 224.54164999999998,276.49999999999994 C 224.33938999999998,275.90713999999997 224.11380999999997,274.70098999999993 224.05264999999997,274.10448999999994 C 223.96370999999996,273.23702999999995 223.87925999999996,272.15227999999996 223.56396999999998,271.22533999999996 C 223.32914,270.53493999999995 222.87767999999997,269.58586999999994 222.61065,268.75332 C 222.41979,268.15826 222.23282999999998,267.51986 222.08531,266.11733 C 222.00856,265.38768999999996 222.00688,264.66137 221.99998,263.33333 C 221.99705,262.76799 221.99745,261.74474 221.83330999999998,260.66664 C 221.73577999999998,260.02597999999995 221.56798999999998,259.32926999999995 221.42531999999997,258.57865999999996 C 221.27704999999997,257.79859999999996 221.10808999999998,256.6013 221.05713999999998,255.80898999999997 C 221.00784,255.04236999999998 221.00064999999998,253.97065999999995 220.99997999999997,253.04264999999995 C 220.99941999999996,252.25065999999995 220.99997999999997,251.23197999999996 220.99997999999997,250.35714999999996 C 220.99997999999997,249.33865999999995 220.99997999999997,248.61465999999996 220.99997999999997,247.88264999999996 C 220.99997999999997,246.82165999999995 220.99997999999997,245.84664999999995 220.99997999999997,244.96165999999997 C 220.99997999999997,243.92131999999998 220.99997999999997,243.22531999999995 220.99997999999997,242.31597999999997 C 220.99997999999997,241.31464999999997 220.99997999999997,240.47915999999998 220.99997999999997,239.89547999999996 C 220.99997999999997,238.69997999999995 220.99997999999997,237.79998999999995 220.99997999999997,237.19997999999995 C 220.99997999999997,235.99997999999997 220.99997999999997,235.09998999999996 220.99997999999997,234.49997999999997 C 220.99997999999997,233.59998999999996 220.98309999999998,232.39641999999998 221.02130999999997,231.77864999999997 C 221.08287999999996,230.78319999999997 221.32004999999998,229.66280999999998 221.56796999999997,228.83330999999998 C 221.69836999999998,228.39701999999997 222.00898999999998,227.52385999999998 222.29464,226.66249 C 222.67882999999998,225.50395 222.83476,224.85675 222.97914999999998,224.06248 C 223.17213999999998,223.00096 223.43739999999997,222.18989 223.70448,221.54281 C 224.10227999999998,220.57902 224.41028,219.7425 224.63598,219.11732 C 224.8849,218.42782 225.31779999999998,217.25613 225.65264,216.39915000000002 C 225.99636999999998,215.51939000000002 226.16924,215.08442000000002 226.51597999999998,214.25331000000003 C 226.97141,213.16168000000002 227.31658,212.29202000000004 227.79862999999997,211.48932000000002 C 228.26060999999999,210.72005000000001 228.77913999999998,210.20642 229.48263999999998,209.23198000000002 C 229.82554999999996,208.75700000000003 230.38897999999998,208.05116 230.83064999999996,206.96932 C 231.11403999999996,206.2752 231.32815999999997,205.32427 231.64663999999996,204.78933 C 232.25922999999997,203.7604 232.83982999999995,203.21232 233.34730999999996,202.6 C 233.99761999999996,201.81535 234.34449999999995,201.17999 234.88397999999995,200.39999 C 235.45173999999994,199.57908 236.07997999999995,199.09298 236.66664999999995,198.16667 C 237.07545999999994,197.52119000000002 237.31398999999996,196.65547 237.70981999999995,195.99466 C 238.16353999999995,195.2372 238.83138999999994,194.33180000000002 239.36397999999994,193.66133000000002 C 239.79708999999994,193.11610000000002 240.24362999999994,192.30363000000003 240.75714999999994,191.65266000000003 C 241.41173999999995,190.82286000000002 242.21631999999994,190.47096000000002 242.97847999999993,189.89982000000003 C 243.62871999999993,189.41256000000004 244.18919999999994,188.50965000000002 244.59998999999993,187.82533000000004 C 245.08715999999993,187.01376000000005 245.41361999999992,186.31962000000004 245.99997999999994,185.52083000000005 C 246.46910999999994,184.88173000000003 247.24217999999993,184.56113000000005 247.83330999999993,183.83333000000005 C 248.3991699999999,183.13664000000006 248.69983999999994,182.40401000000006 248.91464999999994,181.51601000000005 C 249.11851999999993,180.67321000000004 248.99997999999994,179.75718000000006 248.99997999999994,178.80001000000004 C 248.99997999999994,177.90000000000003 248.99997999999994,177.00001000000003 248.99997999999994,176.20000000000005 C 248.99997999999994,175.30001000000004 248.99997999999994,174.40000000000003 248.99997999999994,173.50000000000006 C 248.99997999999994,172.60001000000005 248.99997999999994,171.70000000000005 248.99997999999994,170.79733000000004 C 248.99997999999994,170.02932000000004 248.99997999999994,168.99017000000003 248.99997999999994,168.21466000000004 C 248.99997999999994,167.16667000000004 248.99997999999994,166.46167000000003 248.99997999999994,165.66167000000004 C 248.99997999999994,164.62534000000005 248.99997999999994,163.67850000000004 248.99997999999994,162.97917000000004 C 248.99997999999994,161.80017000000004 248.99997999999994,161.02083000000005 248.99997999999994,160.16667000000004 C 248.99997999999994,159.33867000000004 248.99997999999994,158.45733000000004 248.99997999999994,157.50000000000003 C 248.99997999999994,156.76801000000003 248.99997999999994,155.66133000000002 248.99997999999994,154.83333000000002 C 248.99997999999994,153.97917 248.99997999999994,153.00000000000003 248.99997999999994,152.20000000000002 C 248.99997999999994,151.4 248.99944999999994,150.4 248.99997999999994,149.60001000000003 C 249.00064999999995,148.60001000000003 248.95660999999993,147.78199000000004 249.22130999999993,146.80017000000004 C 249.43675999999994,146.00104000000005 249.81186999999994,145.16116000000002 250.02530999999993,144.37466000000003 C 250.26051999999993,143.50795000000002 250.64841999999993,142.80905000000004 250.87863999999993,141.80000000000004 C 251.05862999999994,141.01112000000003 251.15237999999994,139.99524000000005 251.42531999999994,139.19999000000004 C 251.70162999999994,138.39492000000004 251.92801999999995,137.39716000000004 252.02530999999993,136.80000000000004 C 252.18916999999993,135.79420000000005 252.51242999999994,134.99594000000005 252.99997999999994,134.00000000000003 C 253.29492999999994,133.39749000000003 253.69580999999994,132.59790000000004 254.09998999999993,131.80017000000004 C 254.49590999999992,131.01875000000004 255.00422999999992,130.16983000000005 255.49997999999994,129.50000000000003 C 256.10516999999993,128.68231000000003 256.50159999999994,127.98000000000003 256.7999699999999,127.39867000000002 C 257.31177999999994,126.40144000000002 257.6110099999999,125.74541000000002 258.33332999999993,125.00000000000003 C 258.96494999999993,124.34821000000002 259.5359399999999,123.99172000000003 260.40266999999994,123.40000000000003 C 261.29383999999993,122.79159000000003 261.89338999999995,122.40803000000004 262.45832999999993,122.02083000000003 C 263.2326499999999,121.49014000000003 264.19578999999993,120.76824000000003 264.6909999999999,120.30449000000003 C 265.4260799999999,119.61610000000003 266.15550999999994,118.98074000000003 266.8359899999999,118.59999000000003 C 267.58958999999993,118.17833000000003 268.39998999999995,117.80000000000004 269.19999999999993,117.39999000000003 C 269.9999899999999,117.00000000000003 270.77683999999994,116.54666000000003 271.59998999999993,116.28532000000003 C 272.57856999999996,115.97464000000002 273.4123399999999,115.99791000000003 274.19999999999993,115.77865000000003 C 275.01609999999994,115.55148000000003 275.9936399999999,115.11901000000003 276.79997999999995,115.03599000000003 C 277.5965499999999,114.95397000000003 278.6065899999999,115.05807000000003 279.39998999999995,114.94282000000003 C 280.41603999999995,114.79523000000003 280.99974999999995,114.41629000000003 282.16664999999995,114.16665000000003 C 282.94267999999994,114.00063000000003 283.77461999999997,114.00532000000003 284.83333999999996,113.99999000000004 C 285.54283999999996,113.99642000000004 286.39549999999997,113.99999000000004 287.39998999999995,113.99999000000004 C 288.20000999999996,113.99999000000004 289.2001599999999,113.99999000000004 290.02083999999996,113.99999000000004 C 290.68532999999996,113.99999000000004 291.68667,113.99999000000004 292.54164999999995,113.99999000000004 C 293.48666,113.99999000000004 294.5211699999999,113.99999000000004 295.2481599999999,113.99999000000004 C 295.97914999999995,113.99999000000004 297.03065999999995,113.99999000000004 297.9574799999999,113.99999000000004 C 298.75999999999993,113.99999000000004 299.5624899999999,113.99999000000004 300.86430999999993,113.99999000000004 C 301.6669799999999,113.99999000000004 302.09730999999994,113.99999000000004 302.99598999999995,113.99999000000004 C 303.91865999999993,113.99999000000004 305.27822,113.99363000000004 306.1338099999999,114.00449000000003 C 306.9375799999999,114.01469000000003 307.68940999999995,113.99869000000004 308.66664999999995,114.16665000000003 C 309.49105,114.30834000000003 310.34529999999995,114.68675000000003 311.11598999999995,115.19866000000003 C 311.76262999999994,115.62816000000004 312.66411999999997,115.93005000000004 313.46165999999994,116.05266000000003 C 314.42472999999995,116.20071000000003 315.2323799999999,116.41532000000004 316.04731999999996,116.70449000000004 C 317.08815,117.07382000000004 317.76685999999995,117.39404000000003 318.39549999999997,117.69999000000004 C 319.40333999999996,118.19049000000004 320.20135,118.54372000000004 320.97866,119.10016000000005 C 321.66155,119.58900000000004 322.30996,120.33302000000005 322.82534,120.81466000000005 C 323.50149,121.44655000000004 324.42077,121.86603000000005 325.16665,122.33333000000005 C 325.88909,122.78595000000004 326.37527,123.39084000000004 327.19982,123.97849000000005 C 327.95414999999997,124.51609000000005 328.85708,124.97030000000005 329.364,125.39999000000005 C 330.13881,126.05675000000005 330.74717999999996,126.65658000000005 331.29549,127.29999000000005 C 331.93760999999995,128.05350000000004 332.12559999999996,128.77591000000004 332.57466,129.59999000000005 C 333.00496,130.38965000000005 332.90797,131.33021000000005 333.03598999999997,132.17465000000004 C 333.18195999999995,133.13743000000005 333.74454999999995,133.72711000000004 334.19865,134.48398000000003 C 334.60062999999997,135.15399000000002 334.97139,136.24138000000002 334.99998,137.09999000000002 C 335.02995,137.99948 334.93196,138.76010000000002 335.00446999999997,139.64815000000002 C 335.08838999999995,140.67607 335.88444,141.15805 335.99998,141.99999000000003 C 336.10322,142.75226000000004 336.38746,143.63889000000003 336.64732,144.34733000000003 C 337.01401999999996,145.34704000000002 336.99998,146.30000000000004 336.99998,147.19999 C 336.99998,148.10000000000002 337.02533999999997,149.00039 336.99998,149.8 C 336.97139,150.70135000000002 336.31443,151.42256 336.05714,152.3 C 335.80336,153.16545000000002 335.75785,153.95376000000002 335.35264,154.69999 C 334.93934,155.46111000000002 335.094,156.44709 334.64732000000004,157.3 C 334.25337,158.05223 333.87651000000005,158.77710000000002 333.42530000000005,159.60000000000002 C 332.99757000000005,160.38012000000003 333.08170000000007,161.32528000000002 332.83332000000007,162.16667 C 332.63184000000007,162.84917000000002 332.1446000000001,163.48138 331.61063000000007,164.37466 C 331.0638800000001,165.28936000000002 331.1500900000001,166.04657 330.7786300000001,166.9785 C 330.46985000000006,167.75323 330.0104100000001,168.49982 329.9999700000001,169.39999 C 329.9895600000001,170.29994 329.8501600000001,171.21258 330.0001200000001,172.09983 C 330.1441300000001,172.95185 330.8139000000001,173.42385 331.2853100000001,174.19998999999999 C 331.69614000000007,174.87636999999998 332.5610400000001,175.45738999999998 332.9473000000001,176.29999999999998 C 333.2996900000001,177.06875 333.6397400000001,177.77209 334.3999700000001,178.38931999999997 C 335.1426800000001,178.99234999999996 335.7904400000001,179.34419999999997 336.2214700000001,180.09999999999997 C 336.6030300000001,180.76907999999997 337.33460000000014,181.50548999999995 338.1999900000001,181.91598999999997 C 338.95744000000013,182.27528999999996 339.6412100000001,182.61859999999996 340.1999900000001,183.48397999999997 C 340.63294000000013,184.15447999999998 341.0345800000001,185.04288999999997 341.6359600000001,185.58932999999996 C 342.41074000000015,186.29331999999997 343.0550900000001,186.47163999999995 343.99997000000013,187.16665999999995 C 344.62424000000016,187.62585999999996 345.20264000000014,188.20797999999996 345.99997000000013,188.99998999999994 C 346.4026500000001,189.39997999999994 347.02081000000015,190.02081999999993 347.68530000000015,190.68531999999993 C 348.42114000000015,191.42115999999993 348.94815000000017,191.94814999999994 349.47912000000014,192.47915999999992 C 350.23062000000016,193.23066999999992 350.8229000000001,193.89454999999992 351.47912000000014,194.45831999999993 C 352.2823100000001,195.14836999999994 353.0191600000001,195.50319999999994 353.60128000000014,195.79998999999992 C 354.59267000000017,196.30546999999993 355.36654000000016,196.66506999999993 356.11596000000014,197.19997999999993 C 356.77487000000013,197.67026999999993 357.66384000000016,198.28113999999994 358.3472800000001,198.69997999999993 C 359.13073000000014,199.18007999999992 359.65023000000014,199.65046999999993 360.5426200000001,200.32148999999993 C 361.2421400000001,200.84747999999993 361.8063500000001,201.1488099999999 362.6666100000001,201.99998999999994 C 363.2302400000001,202.55766999999994 363.5292500000001,203.24671999999995 364.3212700000001,203.97848999999994 C 364.94072000000006,204.55081999999993 365.8619200000001,204.96528999999992 366.49995000000007,205.52081999999993 C 367.19999000000007,206.13031999999993 367.6733500000001,206.63830999999993 368.17460000000005,207.21064999999993 C 369.01450000000006,208.16970999999992 369.35362000000003,208.81373999999994 369.75260000000003,209.39997999999994 C 370.44947,210.42394999999993 370.99494000000004,211.00858999999994 371.60126,211.51464999999993 C 372.36655,212.15337999999994 373.36637,212.39344999999994 373.82929,213.19997999999993 C 374.28541,213.99465999999993 374.04801000000003,214.80492999999993 374.70978,215.65264999999994 C 375.14429,216.20922999999993 376.01001,216.95005999999995 376.4791,217.49998999999994 C 377.14728,218.28331999999995 377.45768000000004,219.02685999999994 377.99994000000004,219.83331999999993 C 378.46494,220.52485999999993 379.03977000000003,221.14468999999994 379.38928000000004,221.82531999999992 C 379.89242,222.8051499999999 380.00296000000003,223.66059999999993 380.44259000000005,224.32148999999993 C 380.93789000000004,225.06605999999994 381.54568000000006,225.55642999999992 381.8901000000001,226.59548999999993 C 382.1304600000001,227.32053999999994 382.51754000000005,228.31457999999992 382.8785900000001,229.09998999999993 C 383.2732700000001,229.95856999999992 383.69979000000006,230.59597999999994 383.91460000000006,231.48397999999995 C 384.11849000000007,232.32677999999996 383.9143900000001,233.29764999999995 384.42525000000006,233.97465999999994 C 384.90267000000006,234.60734999999994 384.9299500000001,235.49127999999993 385.03594000000004,236.17465999999993 C 385.18514000000005,237.13659999999993 385.81685000000004,237.86326999999994 385.96392000000003,238.83598999999992 C 386.07845000000003,239.59349999999992 385.99993,240.59549999999993 385.99993,241.34282999999994 C 385.99993,242.37465999999995 385.99993,243.32166999999993 385.99993,244.04166999999993 C 385.99993,245.16666999999993 385.99993,245.94815999999992 385.99993,246.73865999999992 C 385.99993,247.66666999999993 385.99993,248.61466999999993 385.99993,249.48532999999992 C 385.99993,250.21065999999993 385.99993,251.19981999999993 385.99993,252.16399999999993 C 385.99993,253.11599999999993 385.99993,253.88399999999993 385.99993,254.83599999999993 C 385.99993,255.60133999999994 385.99993,256.60000999999994 385.99993,257.3999999999999 C 385.99993,258.3999999999999 385.99993,259.20001999999994 385.99993,260.20001999999994 C 385.99993,261.0000099999999 385.99993,262.0000099999999 385.99993,262.7893399999999 C 385.99993,263.51467999999994 385.99993,264.49999999999994 385.99993,265.48666999999995 C 385.99993,266.24667999999997 385.99993,267.1666599999999 385.99993,267.95266999999996 C 385.99993,268.77466 385.99993,269.83334999999994 385.99993,270.77466 C 385.99993,271.45266999999996 385.99993,272.68534 385.99993,273.23598999999996 C 385.99993,274.10448999999994 385.99993,275.29965 385.99993,276.17868 C 385.99993,276.98566 386.0006,277.85733 385.99993,278.80532999999997 C 385.99926,279.76935 386.02498,280.52590999999995 385.9146,281.31732 C 385.77394,282.3258 385.42089,282.98025 385.16658,284.16665 C 385.00011,284.94323 385.03975,285.78542 384.83327,286.83334 C 384.69145000000003,287.55298000000005 384.3636,288.17279 384.12108,289.20016000000004 C 383.92973,290.01077000000004 383.88347,290.70809 383.43193,291.68399000000005 C 383.04420000000005,292.52194000000003 382.60182000000003,293.00693000000007 382.24293,294.07834 C 381.95619,294.93433000000005 382.15409,296.01782000000003 381.8856,296.75266000000005 C 381.58985,297.56208000000004 380.74885,298.15268000000003 380.33326,299.00000000000006 C 379.96560999999997,299.74957000000006 379.95939,300.53403000000003 379.49992,301.47916000000004 C 379.08946,302.32346 378.87291,303.1843 378.56392,303.82535 C 378.06239,304.86585 377.59486,305.35431 377.08394,306.19867 C 376.63322999999997,306.94354 376.05082999999996,307.56653 376.00441,308.35184 C 375.94530000000003,309.35172 375.47292,309.81512999999995 374.69994,310.36167 C 374.10796000000005,310.78022 373.65206,311.62888 373.35711000000003,312.34733 C 372.95092000000005,313.33668 372.59106,314.1273 372.16659000000004,315.00001 C 371.84573000000006,315.65968 371.49993000000006,316.50001 371.05709,317.29999999999995 L 370.99859000000004,318.19867999999997" fill="none" id="svg_1" stroke="#000" stroke-width="2"/>
	<path d="M 298.0,348.0 C 299.5,349.5 300.23672,350.17038 300.70001,350.75717 C 301.25128,351.45538 301.55539000000005,352.10427999999996 302.14132,352.85733 C 302.94811,353.89423 303.33453000000003,354.25464 303.71517,354.65799 C 304.51501,355.50554999999997 304.93267,355.92596 305.74932,356.74798999999996 C 306.49819,357.50179999999995 307.144,358.14401999999995 307.69198,358.69199 C 308.3865,359.38651 308.9938,360.00631999999996 309.609,360.6045 C 310.26545999999996,361.24280999999996 310.75865999999996,361.69980999999996 311.64266,362.421 C 312.29661999999996,362.95450999999997 312.98350999999997,363.48344 313.69466,363.93302 C 314.6458,364.53431 315.49797,364.83152 316.25066,365.07599 C 316.7704,365.24481 317.97567,365.83963 318.64,366.28665 C 319.32286,366.74612 319.95207,367.22653 320.73598,367.85718 C 321.32813999999996,368.33356000000003 322.04096999999996,368.90137000000004 323.05599,369.48667 C 323.70122000000003,369.85871000000003 324.4345,370.24232 324.81350000000003,370.46168 C 326.00799,371.15303 326.80285000000003,371.68312 327.20449,371.95716 C 328.02395,372.5163 328.85509,373.10751999999997 329.28533000000004,373.40134 C 330.61498000000006,374.30939 331.08330000000007,374.60114 331.55266000000006,374.9 C 332.4985500000001,375.50226 332.9782000000001,375.79447 333.9159700000001,376.4 C 334.83684000000005,376.9946 335.71681000000007,377.59882 336.1473200000001,377.9 C 337.0016300000001,378.49766 337.4214600000001,378.80555 338.2839800000001,379.4 C 339.1627600000001,380.00568 340.0877500000001,380.6038 340.5706600000001,380.90452 C 341.06639000000007,381.21324 342.11723000000006,381.83848 342.6759800000001,382.15718 C 343.2558400000001,382.48789999999997 344.4992200000001,383.16810999999996 345.1636500000001,383.52135 C 345.8485600000001,383.88549 346.54964000000007,384.25147999999996 347.2546500000001,384.62534999999997 C 347.9589700000001,384.99881999999997 348.6575400000001,385.36478999999997 349.32765000000006,385.74735999999996 C 351.18239000000005,386.80622999999997 351.69838000000004,387.17085 352.17732000000007,387.51469 C 353.06221000000005,388.15 353.45405000000005,388.48469 354.2489800000001,389.09549999999996 C 354.6471700000001,389.40146999999996 355.96031000000005,390.30661999999995 356.4546700000001,390.60002 C 357.48915000000005,391.214 358.0409700000001,391.50122999999996 358.59600000000006,391.79999999999995 C 359.15566000000007,392.10126999999994 360.8344000000001,392.99808999999993 361.3785000000001,393.29999999999995 C 361.9157300000001,393.59812999999997 362.9646200000001,394.19892999999996 363.47915000000006,394.50001 C 363.9899500000001,394.79889999999995 364.99886000000004,395.39964 365.9999900000001,396.00001 C 366.49993000000006,396.29981 367.4963900000001,396.89856999999995 367.9893100000001,397.20002 C 368.9657200000001,397.79716 369.4454000000001,398.09602 369.9146600000001,398.4 C 371.2862100000001,399.28843 371.7173000000001,399.59812 372.5746600000001,400.20002 C 373.4266200000001,400.79813 373.84489000000013,401.11143 375.1666400000001,402.00001 C 375.61919000000006,402.30427 376.08708000000007,402.60411 377.0573300000001,403.22135 C 377.56200000000007,403.54242999999997 378.0864400000001,403.86616 379.1719800000001,404.57068 C 380.33742000000007,405.32705999999996 380.94340000000005,405.74268 381.5733200000001,406.16934 C 382.22341000000006,406.60967999999997 382.8914700000001,407.06417999999996 383.5833300000001,407.52083999999996 C 384.2914300000001,407.98821999999996 385.01769000000013,408.46106 385.7733300000001,408.91731999999996 C 387.3219800000001,409.85238 388.1393900000001,410.28389999999996 388.9653200000001,410.71333999999996 C 389.79341000000005,411.14394 390.62831000000006,411.55544 391.4583300000001,411.95833999999996 C 392.2763200000001,412.3554 393.0816800000001,412.73549999999994 393.8613100000001,413.11333999999994 C 395.3359200000001,413.8279999999999 396.0153300000001,414.1760499999999 396.6599900000001,414.51332999999994 C 397.2769900000001,414.83613999999994 397.8662300000001,415.1541399999999 398.4374900000001,415.45833999999996 C 398.9929100000001,415.75411999999994 399.5358800000001,416.04485999999997 400.0799800000001,416.31332 C 401.16030000000006,416.84637 401.7171900000001,417.08975 402.8616600000001,417.54733 C 403.4444200000001,417.78033 404.0414100000001,418.00067 404.6466600000001,418.22533999999996 C 405.8861300000001,418.68539 407.1678100000001,419.16373 407.8213100000001,419.42166 C 408.4851900000001,419.68368 409.1543200000001,419.95781999999997 409.8253400000001,420.24667 C 410.5016700000001,420.53781 411.1769300000001,420.84179 411.8473100000001,421.16165 C 412.5183300000001,421.48181 414.4807000000001,422.51779 415.1159900000001,422.884 C 415.74938000000014,423.24911000000003 416.3746600000001,423.62533 416.99999000000014,424.0 C 417.62533000000013,424.37466 418.24926000000016,424.75323 418.88399000000015,425.116 C 420.15993000000014,425.84522 420.81987000000015,426.18204 421.48531000000014,426.51734 C 422.15554000000014,426.85508 423.52202000000017,427.51844 424.21065000000016,427.86133 C 424.90572000000014,428.20743 425.61260000000016,428.54901 426.99999000000014,429.33335 C 427.70556000000016,429.73225 428.3993100000001,430.16352 429.09099000000015,430.60084 C 429.78063000000014,431.03688 430.45781000000017,431.47999 431.12798000000015,431.91334 C 431.78515000000016,432.3383 432.41814000000016,432.76533 433.6666500000002,433.50001000000003 C 434.2520700000002,433.84449 434.8270200000002,434.15248 435.39016000000015,434.43302000000006 C 436.4723700000001,434.97217000000006 437.01482000000016,435.2036800000001 438.08266000000015,435.68134000000003 C 439.16680000000014,436.16629000000006 439.72213000000016,436.41962 440.28398000000016,436.684 C 441.42695000000015,437.22184000000004 441.9997700000002,437.50044 442.57466000000016,437.77467 C 443.14714000000015,438.04777 444.83174000000014,438.83693 445.37831000000017,439.07835 C 446.4352900000002,439.54524 446.95174000000014,439.75731 447.45833000000016,439.95835 C 448.4352900000002,440.34605 449.83190000000013,440.83783999999997 450.27815000000015,440.97834 C 451.13115000000016,441.24693 451.93312000000014,441.47742 452.68113000000017,441.63834 C 453.9504200000002,441.91141000000005 454.75813000000016,441.87711 455.5973000000002,442.16935 C 456.4425500000002,442.46369 457.0946800000002,443.25428 457.8333200000002,443.66666000000004 C 458.6059000000002,444.098 459.54386000000017,443.96845 460.49998000000016,444.02085000000005 C 461.23371000000014,444.06104000000005 462.21806000000015,444.31568000000004 462.79731000000015,444.80134000000004 C 463.54545000000013,445.4286 464.31458000000015,446.16944000000007 465.19865000000016,445.99867000000006 C 466.01252000000017,445.84144000000003 466.36756000000014,444.83983000000006 466.64732000000015,444.18568000000005 C 467.03828000000016,443.27150000000006 466.98823000000016,442.43766000000005 466.99864000000014,441.51200000000006 C 467.01027000000016,440.47889000000004 466.99028000000015,439.75138000000004 467.02083000000016,439.02085000000005 C 467.06487000000016,437.9682700000001 467.17317000000014,437.02790000000005 467.4359900000002,436.2720100000001 C 467.7456500000002,435.3813200000001 468.2487300000002,434.6210400000001 468.5639800000002,433.7999900000001 C 468.9397700000002,432.82132000000007 468.92931000000016,431.98563000000007 469.1666400000002,431.0000000000001 C 469.3140100000002,430.3879700000001 469.6963000000002,429.5959200000001 470.2000000000002,428.6013200000001 C 470.4952300000002,428.0184000000001 471.1568800000002,427.0609500000001 471.56398000000024,426.4106800000001 C 472.04619000000025,425.6404200000001 472.38872000000026,424.86261000000013 472.8333300000002,424.0000000000001 C 473.20265000000023,423.2835100000001 473.5204900000002,422.4678000000001 474.1853200000002,421.8613300000001 C 474.92851000000024,421.1833800000001 475.6389900000002,421.0255500000001 476.4840000000002,420.7160100000001 C 477.3634900000002,420.39384000000007 478.24599000000023,420.0286000000001 479.16665000000023,420.0000100000001 C 480.02044000000024,419.9734900000001 480.99999000000025,420.0000100000001 481.79998000000023,420.0000100000001 C 482.60000000000025,420.0000100000001 483.60000000000025,420.0000100000001 484.39999000000023,420.0000100000001 C 485.39999000000023,420.0000100000001 486.20001000000025,420.0000100000001 487.20001000000025,420.0000100000001 C 488.0000000000002,420.0000100000001 489.0000000000002,420.0000100000001 489.79999000000026,420.0000100000001 C 490.6000100000003,420.0000100000001 491.6044900000003,420.00004000000007 492.23599000000024,420.0000100000001 C 493.42117000000025,419.9999200000001 494.22067000000027,420.0498500000001 494.99017000000026,419.9428500000001 C 496.0426900000003,419.7965200000001 496.8246400000003,419.34931000000006 496.98932000000025,418.4000000000001 C 497.14322000000027,417.5127300000001 496.39938000000024,416.84370000000007 495.85068000000024,416.4000000000001 C 495.05319000000026,415.7551600000001 494.6921400000002,414.8120800000001 494.1386700000002,414.1746600000001 C 493.6690700000002,413.63380000000006 492.88400000000024,412.88401000000005 492.37466000000023,412.3746700000001 C 491.6786800000002,411.6786900000001 491.17572000000024,411.1735900000001 490.4840000000002,410.48401000000007 C 489.75378000000023,409.75604000000004 489.1258800000002,409.1858500000001 488.3428300000002,408.6955000000001 C 487.7960200000002,408.3530900000001 486.7788000000002,407.7020000000001 486.21066000000025,407.1640100000001 C 485.6345500000002,406.61845000000005 485.03021000000024,405.7934400000001 484.60400000000027,405.1893400000001 C 484.1428800000003,404.53578000000005 483.51291000000026,403.81916000000007 482.9453400000003,403.3160200000001 C 482.31656000000027,402.7585900000001 481.60916000000026,402.2183900000001 480.88134000000025,401.6840000000001 C 479.8290300000003,400.91136000000006 479.15960000000024,400.46006000000006 478.54165000000023,400.0208500000001 C 477.95971000000026,399.6072100000001 476.9183900000002,398.80378000000013 476.45715000000024,398.4045200000001 C 475.80624000000023,397.8410700000001 475.0132400000002,397.1466500000001 474.39550000000025,396.7526600000001 C 473.55984000000024,396.2197000000001 472.82897000000025,395.8402800000001 472.04284000000024,395.3428400000001 C 471.4759800000002,394.9841400000001 470.59808000000027,394.39954000000006 469.6998200000002,393.7998400000001 C 469.0950800000002,393.3960900000001 468.4766100000002,392.98282000000006 467.8428300000002,392.5428500000001 C 466.82925000000023,391.8392100000001 466.1155000000002,391.3166800000001 465.37466000000023,390.7746600000001 C 464.99975000000023,390.5003400000001 464.25677000000024,389.9469300000001 463.16665000000023,389.1666600000001 C 462.48919000000024,388.6817700000001 461.84356000000025,388.24036000000007 461.2466700000002,387.8106700000001 C 460.68371000000025,387.4054300000001 459.6828900000002,386.6012600000001 459.0000000000002,386.00000000000006 C 458.54660000000024,385.60083000000003 457.5855100000002,384.7908300000001 457.0473300000002,384.4045100000001 C 456.23541000000023,383.8217200000001 455.68680000000023,383.4806200000001 454.6839900000002,382.8826600000001 C 454.00189000000023,382.4759500000001 453.29410000000024,382.0577700000001 452.5788300000002,381.4571500000001 C 451.7591000000002,380.7688000000001 451.24250000000023,380.2314700000001 450.7693500000002,379.68267000000014 C 449.9351500000002,378.71511000000015 449.5700700000002,378.00228000000016 449.1173400000002,377.48666000000014 C 448.41751000000016,376.68960000000015 447.6159700000002,376.35635000000013 446.8853500000002,375.7999800000001 C 446.1614700000002,375.2487400000001 445.60001000000017,374.60000000000014 444.9000000000002,373.8999900000001 L 444.2999900000002,373.2999800000001 L 443.7000100000002,372.70449000000013" fill="none" id="svg_2" stroke="#000" stroke-width="2"/>
	<path d="M 377.0,309.0 C 378.81467,309.436 379.51584,310.11801 380.04816,310.64282 C 380.63412999999997,311.22051999999996 381.66184,311.34731999999997 382.40451,311.7045 C 383.20499,312.08945 384.01321,312.44589 384.83334,313.0 C 385.5101,313.45724 386.1856,314.22052 386.67199,314.63599 C 387.51479,315.3559 388.27071,315.83789 388.82131,316.21067 C 389.40133,316.60334 390.30888999999996,317.18667999999997 391.17867,317.79999 C 391.73403,318.19158999999996 392.67836,318.98978 393.20366,319.60449 C 393.73470000000003,320.22589 394.10683,320.72366 394.98564,321.42132 C 395.69533,321.98474 396.11854,322.23174 396.97066,322.77465 C 397.83052000000004,323.3225 398.66872,323.83007000000003 399.42931,324.31466 C 400.12989999999996,324.76101 400.77929,325.18835 401.39733,325.59866 C 402.30144,326.19891 403.23199,326.82132 403.90798,327.272 C 404.27151000000003,327.51434 405.49987,328.33355 405.96432,328.64282 C 406.9667,329.3103 407.49697,329.66188999999997 408.04165,330.02083999999996 C 408.59564,330.38591999999994 409.15164,330.75911999999994 410.83334,331.83333999999996 C 411.37716,332.18071999999995 411.91037,332.5227 412.97467,333.15331999999995 C 413.49728,333.46297999999996 414.02005,333.76333999999997 414.55267,334.03833 C 416.15133,334.86370999999997 416.71887,335.08358999999996 417.28134,335.31467 C 418.39987,335.77419999999995 418.95999,335.97492 420.03299,336.39551 C 420.54611,336.59665 421.9389,337.19351 422.34533999999996,337.4 C 423.10891999999996,337.78790999999995 423.80197,338.20344 424.48132999999996,338.60001 C 425.51813,339.20527 426.25052999999997,339.59571 426.97916,340.0 C 427.69250999999997,340.39581 428.68377999999996,340.9772 429.49017999999995,341.60001 C 429.99014999999997,341.98618 430.66934999999995,342.61679 431.42166999999995,343.20017 C 432.2327399999999,343.82911 432.84806,344.23404 433.48666999999995,344.68534 C 434.52359999999993,345.41816 434.88449999999995,345.68333 435.62533999999994,346.22535 C 436.3751899999999,346.77396 437.10964999999993,347.32496 438.17849999999993,348.07835 C 438.83895999999993,348.5439 439.46951999999993,348.97444 440.0954899999999,349.33836 C 440.9868799999999,349.85661000000005 441.9031099999999,350.25077000000005 442.5208399999999,350.50001000000003 C 443.15575999999993,350.75617000000005 444.16973999999993,351.15983000000006 444.88265999999993,351.48402000000004 C 445.61788999999993,351.81834000000003 446.3396899999999,352.17256000000003 447.6666599999999,352.83335000000005 C 448.23245999999995,353.11512000000005 448.9999699999999,353.50004000000007 449.76800999999995,353.88401000000005 C 450.6434699999999,354.32169000000005 451.32626999999997,354.66486000000003 452.1041599999999,355.04166000000004 C 452.9787599999999,355.46531000000004 453.4565799999999,355.69129000000004 454.49999999999994,356.16666000000004 C 455.64968999999996,356.69043000000005 456.2586099999999,356.95578000000006 456.87600999999995,357.23600000000005 C 457.50060999999994,357.51948000000004 458.13287999999994,357.79261 459.3479899999999,358.40134000000006 C 460.50875999999994,358.98285000000004 461.0392099999999,359.2945900000001 461.54799999999994,359.60001000000005 C 462.53027,360.18967000000004 462.99587999999994,360.50663000000003 463.95799999999997,361.10001000000005 C 464.44991,361.40339000000006 465.49244999999996,362.01471000000004 466.65065999999996,362.5973200000001 C 467.24971999999997,362.8986500000001 467.86385999999993,363.1819500000001 468.47914999999995,363.4583400000001 C 469.08656999999994,363.73120000000006 470.25985,364.23629000000005 471.33333999999996,364.66665000000006 C 472.25627999999995,365.03665000000007 473.05922999999996,365.33056000000005 473.75731999999994,365.61465000000004 C 474.39769999999993,365.87527000000006 475.30422999999996,366.31381000000005 476.20000999999996,366.82534000000004 C 476.80287999999996,367.16961000000003 477.38498,367.54693000000003 478.59865999999994,368.11599000000007 C 479.1824899999999,368.38973000000004 480.07537999999994,368.6970100000001 481.07881999999995,369.32131000000004 C 481.56917999999996,369.62639 482.21998999999994,370.24718 483.33333999999996,370.83333000000005 C 483.94917999999996,371.15755000000007 484.66213999999997,371.37236000000007 485.38534,371.62532000000004 C 486.11816,371.88167000000004 487.18721999999997,372.30498000000006 487.84731999999997,372.65715000000006 C 488.83880999999997,373.1861400000001 489.47592,373.61555000000004 490.52133,374.19981000000007 C 491.24715999999995,374.6054500000001 491.62131,374.79750000000007 492.37466,375.1639800000001 C 493.11212,375.5227100000001 494.51181,376.1185700000001 495.15332,376.3639900000001 C 495.75192,376.5929900000001 496.83218,377.0027500000001 497.54285,377.2954800000001 C 498.39414,377.6461300000001 499.40692,377.8688400000001 500.164,378.0253100000001 C 501.12883999999997,378.22471000000013 502.77328,378.1339800000001 502.62933,378.9999800000001 C 502.49334,379.81810000000013 500.89984,378.9999800000001 500.11465,378.9999800000001 C 499.17465,378.9999800000001 498.16665,378.9999800000001 497.45833999999996,378.9999800000001 C 496.49999999999994,378.9999800000001 495.63750999999996,378.9999800000001 494.97914999999995,378.9999800000001 C 493.96666999999997,378.9999800000001 492.768,378.9999800000001 491.99998999999997,378.9999800000001 C 491.23197999999996,378.9999800000001 490.35697999999996,378.9999800000001 489.32798999999994,378.9999800000001 C 488.57865999999996,378.9999800000001 487.79731999999996,378.9999800000001 486.6001499999999,378.9999800000001 C 485.8044999999999,378.9999800000001 485.02082999999993,378.9999800000001 484.25715999999994,378.9999800000001 C 483.1666399999999,378.9999800000001 482.15714999999994,378.9999800000001 481.52082999999993,378.9999800000001 C 480.6012999999999,378.9999800000001 479.70014999999995,378.9999800000001 478.8106599999999,378.9999800000001 C 477.9571399999999,378.9999800000001 476.9213199999999,378.9999800000001 475.9999899999999,378.9999800000001 C 475.3159999999999,378.9999800000001 474.3146599999999,378.9999800000001 473.4791499999999,378.9999800000001 C 472.5986599999999,378.9999800000001 471.70033999999987,378.9999800000001 470.82130999999987,378.9999800000001 C 470.01432999999986,378.9999800000001 468.8098399999999,378.9999800000001 468.11732999999987,378.9999800000001 C 467.17463999999984,378.9999800000001 466.1666499999999,378.9999800000001 465.37464999999986,378.9999800000001 C 464.5146599999999,378.9999800000001 463.59547999999984,378.9999800000001 462.5999899999999,378.9999800000001 C 461.79996999999986,378.9999800000001 460.80014999999986,378.9999800000001 460.0208299999999,378.9999800000001 C 459.0214999999999,378.9999800000001 458.3044899999999,378.9999800000001 457.39997999999986,378.9999800000001 L 456.49998999999985,378.9999800000001 L 455.59999999999985,378.9999800000001 L 454.61064999999985,379.0106600000001" fill="none" id="svg_3" stroke="#000" stroke-width="2"/>
</svg>
