<?xml version="1.0" ?>
<svg baseProfile="full" height="480" version="1.1" width="640" xmlns="http://www.w3.org/2000/svg" xmlns:ev="http://www.w3.org/2001/xml-events" xmlns:xlink="http://www.w3.org/1999/xlink">
	<defs/>
	<path d="M 264.0,150.0 C 253.16667,155.5 252.35039,155.93448 251.59866,156.34 C 250.90439999999998,156.71453 249.66938,157.38037 249.11067,157.66001 C 248.59115,157.92002 247.17351,158.52576 246.28534,158.74801 C 245.86007999999998,158.85442 245.01334,158.96528 244.2045,159.15801 C 242.9865,159.44825 242.19446,159.82923 241.45334,160.26533999999998 C 240.76816,160.66851999999997 239.65959,161.15043999999997 239.97917,161.02083 C 240.59207,160.77224999999999 241.54635000000002,161.67363 242.49566000000002,162.05349999999999 C 243.03912000000003,162.27096999999998 243.62051000000002,162.49284999999998 244.23866,162.68801 C 245.51536000000002,163.09109999999998 246.8314,163.35055 247.47934,163.41418 C 248.11989,163.47708 248.76622,163.49904999999998 250.08333000000002,163.43750999999997 C 250.77001,163.40541999999996 251.48108000000002,163.33583 252.22533,163.28000999999998 C 253.83280000000002,163.15944 254.70600000000002,163.11714999999998 255.616,163.08533999999997 C 256.54969,163.0527 257.49463000000003,163.03357999999997 258.4375,163.02083999999996 C 259.3653,163.00829999999996 260.26517,163.00328999999996 261.12399,163.00133999999997 C 262.66665,162.99782999999996 263.328,163.00000999999997 263.91732,163.00000999999997 C 264.44265,163.00000999999997 264.91198,163.00000999999997 266.06399,163.00000999999997 C 266.99998999999997,163.00000999999997 267.88198,163.00000999999997 268.656,163.00000999999997 L 269.16665,163.00000999999997" fill="none" id="svg_1" stroke="#000" stroke-width="2"/>
	<path d="M 264.0,149.0 C 269.5,138.33333 269.93036,137.56802 270.34534,136.87601 C 271.09317000000004,135.62892 271.46006,135.06357 271.80399,134.50534000000002 C 272.14539,133.95122 272.49845,133.39348 273.16666,132.16667 C 273.53058,131.49853000000002 273.88559,130.78276000000002 274.24816999999996,130.04117000000002 C 274.61764999999997,129.28545000000003 274.97934,128.52091000000001 275.33865,127.76267000000003 C 275.6903,127.02058000000002 276.00467,126.29227000000003 276.95732999999996,124.42867000000003 C 277.22472999999997,123.90557000000003 277.47592,123.42259000000003 277.99998999999997,122.58334000000002 C 278.48812,121.80166000000003 279.32964,120.66384000000002 279.643,120.25767000000002 C 280.30654,119.39761000000001 280.66353999999995,118.96323000000002 281.04164999999995,118.54167000000002 C 281.7924699999999,117.70457000000002 282.1382699999999,117.25161000000003 283.40031999999997,116.38534000000003 C 284.17341999999996,115.85469000000003 284.62303999999995,115.70490000000002 285.47198,115.29868000000003 C 286.37246,114.86779000000003 287.33919999999995,114.34254000000003 287.84349999999995,114.01435000000004 C 288.94093999999996,113.30012000000004 289.50230999999997,112.87492000000003 290.10414999999995,112.45835000000004 C 290.72758999999996,112.02683000000003 291.3714499999999,111.58180000000004 292.05864999999994,111.16535000000003 C 293.4819299999999,110.30282000000003 294.25902999999994,109.93207000000004 295.05333999999993,109.57201000000003 C 295.8574499999999,109.20752000000003 296.6838599999999,108.87529000000004 297.5208399999999,108.56251000000003 C 298.3572699999999,108.24993000000003 299.1973799999999,107.96079000000003 300.0333199999999,107.68801000000003 C 301.66325999999987,107.15615000000004 302.4555299999999,106.91824000000004 303.2266499999999,106.68934000000003 C 303.97557999999987,106.46702000000003 304.7048299999999,106.26084000000003 305.4166499999999,106.08334000000004 C 306.1049399999999,105.91172000000003 306.7736799999999,105.75829000000003 307.4266599999999,105.65734000000003 C 308.6619199999999,105.46636000000004 309.25758999999994,105.44535000000003 309.8333399999999,105.45734000000003 C 310.9614199999999,105.48084000000003 311.5243499999999,105.56306000000004 312.6624999999999,105.77067000000002 C 313.2553299999999,105.87881000000003 314.5003899999999,106.16501000000002 315.1638099999999,106.32150000000003 C 315.8510699999999,106.48362000000003 317.2660699999999,106.83304000000003 317.9791499999999,107.02083000000003 C 318.6887799999999,107.20772000000004 319.3869599999999,107.39726000000003 320.0626499999999,107.60133000000003 C 321.3375199999999,107.98638000000004 322.4616999999999,108.39071000000003 322.9668199999999,108.60450000000003 C 323.9043499999999,109.00130000000003 324.34111999999993,109.20293000000002 325.1093399999999,109.68533000000004 C 326.2088299999999,110.37574000000004 326.8621799999999,110.94616000000003 327.4791499999999,111.56250000000004 C 328.1161099999999,112.19883000000004 328.4226899999999,112.55389000000004 329.3011699999999,113.74416000000004 C 329.6181299999999,114.17364000000003 330.2746499999999,115.14666000000004 330.6458399999999,115.68750000000004 L 331.0519999999999,116.27333000000004 L 331.5001499999999,116.90916000000004 L 331.9973399999999,117.59999000000005" fill="none" id="svg_2" stroke="#000" stroke-width="2"/>
	<path d="M 266.0,165.0 C 274.349,175.106 274.79623,175.63016 275.18634,176.07201 C 275.7879,176.75335 276.55199999999996,177.55202 277.22916,178.22918 C 277.84751,178.84751 278.22666,179.22666 278.64585,179.64584000000002 C 279.10001,180.10000000000002 280.09318,181.09352 281.16666,182.16668 C 281.72107,182.72094 282.28116,183.28153 282.84817999999996,183.83918000000003 C 283.41317999999995,184.39486000000002 283.97598999999997,184.94088000000002 284.53866999999997,185.46667000000002 C 285.08709999999996,185.97915000000003 285.61319,186.48120000000003 286.66666,187.33334000000002 C 287.14968999999996,187.72406 288.09256,188.38656000000003 288.56,188.66668 C 289.47428,189.21458 289.956,189.45307000000003 291.5,190.16668 C 292.06201,190.42643 292.65363,190.68642000000003 293.267,190.95268000000002 C 294.53949,191.50502 295.19516,191.77676000000002 295.85632,192.04735000000002 C 296.51782,192.31809 297.83272999999997,192.83493 298.47848,193.07884 C 299.11406999999997,193.31891000000002 300.36517,193.78232000000003 300.97915,194.02084000000002 C 301.59051,194.25834000000003 302.21578,194.46676000000002 303.99999,195.33334000000002 C 304.60708000000005,195.62819000000002 305.20073,195.96435000000002 305.79549000000003,196.30534000000003 C 306.39144000000005,196.64701000000002 306.97914000000003,197.00001000000003 308.14281000000005,197.69468000000003 L 308.71465000000006,198.03201000000004" fill="none" id="svg_3" stroke="#000" stroke-width="2"/>
</svg>
