<?xml version="1.0" ?>
<svg baseProfile="full" height="480" version="1.1" width="640" xmlns="http://www.w3.org/2000/svg" xmlns:ev="http://www.w3.org/2001/xml-events" xmlns:xlink="http://www.w3.org/1999/xlink">
	<defs/>
	<path d="M 225.0,168.0 C 212.16667,169.83333 210.70515,170.10661 210.13417,170.23833 C 209.22665,170.44768 208.554,170.69333 207.35683,170.87883 C 206.68526,170.98289 205.93448,170.99680999999998 205.13384,171.10983 C 203.82723,171.29429 202.91630999999998,171.56179999999998 202.45632999999998,171.70983999999999 C 201.53670999999997,172.00582999999997 200.66260999999997,172.34132 199.49999999999997,172.83333 C 198.85215999999997,173.10747999999998 198.05753999999996,173.50882 197.31865999999997,173.71332999999998 C 196.33379999999997,173.98593 195.48778999999996,173.90357999999998 194.76932999999997,174.16932 C 193.74587999999997,174.54788 193.27976999999996,175.42677 192.77883999999997,176.22165999999999 C 192.36245999999997,176.88237999999998 192.41341999999997,177.88541999999998 192.82332999999997,178.34733 C 193.63045999999997,179.25683 194.52704999999997,179.39405 195.14665999999997,179.79865 C 196.02022999999997,180.36908 196.28575999999998,181.10998 197.10714999999996,181.44298 C 197.77677999999997,181.71445 198.56794999999997,182.02931 199.40815999999995,182.40898 C 200.67516999999995,182.98151000000001 201.05958999999996,183.19458 201.78115999999994,183.59099 C 202.74638999999993,184.12125 203.27480999999995,184.53903 204.31197999999995,184.82932 C 205.25818999999996,185.09413999999998 206.15870999999996,185.03566 207.10714999999996,185.22132 C 207.77686999999997,185.35242 208.56065999999996,185.5109 209.40815999999995,185.64732999999998 C 210.66415999999995,185.84951999999998 211.42446999999996,185.92817999999997 212.09597999999994,185.96399999999997 C 213.14039999999994,186.01970999999998 214.07754999999995,186.03116999999997 214.85198999999994,186.28398999999996 C 215.72576999999995,186.56923999999995 216.63076999999996,186.90124999999995 217.42264999999995,187.08398999999997 C 218.41913999999994,187.31395999999998 219.16959999999995,187.43458999999996 220.01731999999996,187.61065999999997 C 220.46546999999995,187.70373999999995 221.83321999999995,188.00037999999998 222.71464999999995,188.19865999999996 C 223.56388999999996,188.38969999999995 224.38589999999994,188.58363999999997 225.19865999999996,188.71464999999995 C 226.39517999999995,188.90751999999995 227.18647999999996,188.94282999999996 227.93748999999997,188.97915999999995 L 228.62847999999997,188.99548999999996 L 229.73531999999997,188.99998999999997 L 230.62931999999998,188.99998999999997" fill="none" id="svg_1" stroke="#000" stroke-width="2"/>
	<path d="M 236.0,168.0 C 241.33333,152.66667 241.69786,151.7366 242.05733,150.964 C 242.62055,149.75349 242.89182,149.31001 243.32483000000002,148.61483 C 243.97269000000003,147.57475000000002 244.37013000000002,146.762 244.62534000000002,146.18932 C 245.15725000000003,144.99575000000002 245.47332000000003,144.39846 245.81467000000004,143.83199000000002 C 246.27759000000003,143.06377 246.90369000000004,142.14451000000003 247.33867000000004,141.49199000000002 C 247.88553000000005,140.67166 248.41585000000003,139.87544000000003 248.71201000000005,139.42665000000002 C 249.33611000000005,138.48093000000003 249.64924000000005,138.00340000000003 249.94935000000004,137.53332000000003 C 250.74258000000003,136.29089000000002 251.26231000000004,135.35447000000002 251.62934000000004,134.73231000000004 C 252.14316000000005,133.86134000000004 252.83424000000005,133.33444000000003 253.42400000000004,132.85998000000004 C 254.15979000000004,132.26805000000004 254.56534000000005,131.94090000000003 255.40818000000004,131.23915000000002 C 255.83746000000005,130.88173000000003 257.05872000000005,129.82445 257.42533000000003,129.48932000000002 C 258.10013000000004,128.87247000000002 258.58695000000006,128.22412000000003 259.50001000000003,127.49999000000003 C 260.21519,126.93278000000002 261.10807000000005,127.01301000000002 261.79035000000005,126.98649000000003 C 262.6258,126.95403000000003 263.5835900000001,126.84942000000004 264.09202000000005,126.74399000000003 C 265.73585,126.40311000000003 266.28120000000007,126.15804000000003 266.83018000000004,125.94199000000002 C 267.90373000000005,125.51950000000002 268.39833000000004,125.28362000000001 269.28935,124.85199000000001 C 270.4984,124.26630000000002 271.20167000000004,124.01324000000001 272.14268000000004,123.99866000000002 C 272.75468000000006,123.98917000000002 273.87571,123.94989000000001 274.29069000000004,123.91466000000001 C 275.62361000000004,123.80149000000002 276.55680000000007,123.64909000000002 277.03602000000006,123.58533000000001 C 278.0099600000001,123.45575000000001 279.0007100000001,123.33277000000001 280.0000100000001,123.33333000000002 C 281.0047100000001,123.33390000000001 281.5151200000001,123.40164000000001 282.5625100000001,123.54166000000002 C 283.1089300000001,123.61471000000002 284.2553200000001,123.80721000000003 285.5000100000001,124.00000000000003 C 286.1634600000001,124.10276000000003 286.85102000000006,124.20043000000003 287.5535100000001,124.30900000000003 C 288.2657000000001,124.41907000000002 289.68986000000007,124.66323000000003 290.38484000000005,124.81433000000003 C 291.06459000000007,124.96211000000002 292.34093000000007,125.31346000000002 292.91334000000006,125.54250000000003 C 293.96855000000005,125.96470000000004 294.84056000000004,126.46785000000003 295.2133600000001,126.71333000000003 C 296.3564600000001,127.46602000000003 296.9221600000001,127.94178000000002 297.5920200000001,128.25200000000004 C 298.5384600000001,128.69029000000003 299.4847200000001,129.07521000000003 300.0093500000001,129.32933000000003 C 300.5652600000001,129.59859000000003 301.1606000000001,129.85571000000002 302.2680200000001,130.57466000000002 C 303.36500000000007,131.28682000000003 303.8452000000001,131.71184000000002 304.6578500000001,132.59183000000002 C 305.0393800000001,133.00498000000002 305.6579400000001,133.83560000000003 305.9105100000001,134.22316 C 306.6624600000001,135.37698 307.0529400000001,136.02982 307.5080100000001,136.50534000000002 C 308.31175000000013,137.3452 308.71599000000015,137.70315000000002 309.5733500000001,138.616 C 310.0468600000001,139.12017 310.52730000000014,139.65789 310.9983400000001,140.22701 C 311.4741400000001,140.80192 312.3517600000001,141.9887 312.7136700000001,142.59900000000002 C 313.39778000000007,143.7527 313.6452500000001,144.33141 313.8750200000001,144.87500000000003 C 314.28676000000013,145.84915000000004 314.5736300000001,147.03918000000002 314.9600100000001,147.82666000000003 C 315.39989000000014,148.72316000000004 315.8647600000001,149.13475000000003 316.28667000000013,149.75467000000003 C 316.77336000000014,150.46977000000004 317.27077000000014,151.27313000000004 317.6666700000001,152.16667000000004 C 318.06654000000015,153.06923000000003 318.3173400000001,154.03599000000003 318.43751000000015,154.52083000000005 L 318.63383000000016,155.50450000000004 L 318.71202000000017,156.00133000000002" fill="none" id="svg_2" stroke="#000" stroke-width="2"/>
	<path d="M 233.0,202.0 C 223.0,212.66667 222.4222,213.40715 222.02266,214.12 C 221.36058,215.30127000000002 221.18326,215.86547000000002 220.99683,216.87833 C 220.90882,217.35649 220.78137999999998,218.84317000000001 220.71600999999998,219.36934 C 220.58026999999998,220.46205 220.49507999999997,221.0202 220.35267,222.15184 C 220.28154999999998,222.71703 220.15249,223.83235 220.08534,224.908 C 220.02278,225.90992 220.01364,226.37489 220.00451,227.20967 C 219.98946,228.58525 220.03323,229.27096 220.16668,230.5 C 220.22022,230.99312 220.3538,232.20088 220.42535,232.892 C 220.50122000000002,233.62488 220.57692,234.38779 220.64735000000002,235.16901 C 220.71829000000002,235.95579999999998 220.83697,237.49979 220.87851,238.2345 C 220.91815,238.93582 220.94962,239.60132 220.97919000000002,240.8125 C 220.99236000000002,241.35194 220.90398000000002,242.28787 221.00902000000002,243.69299 C 221.06455000000003,244.43574 221.33333000000002,245.33333000000002 221.56801000000002,246.27200000000002 C 221.70535,246.82133000000002 221.85069000000001,247.40266000000003 222.14935000000003,248.59733000000003 C 222.29467000000002,249.17866000000004 222.64235000000002,250.67340000000002 222.83868000000004,251.33599000000004 C 223.07519000000005,252.13416000000004 223.38902000000004,252.76537000000005 223.59468000000004,253.18400000000003 C 224.16077000000004,254.33625000000004 224.54935000000003,255.09866000000002 224.98802000000003,255.97599000000002 C 225.46869000000004,256.93734 225.97735000000003,257.95467 226.50001000000003,258.99999 C 227.02267000000003,260.04531000000003 227.53134000000003,261.06264000000004 228.01200000000003,262.02398000000005 C 228.83333000000002,263.66665000000006 229.14980000000003,264.30077000000006 229.40934000000004,264.8173100000001 C 229.62191000000004,265.2403800000001 229.79943000000003,265.59298000000007 229.95834000000005,265.8958300000001 C 230.25085000000004,266.4533300000001 230.83281000000005,267.5002900000001 231.10751000000005,267.9930000000001 C 231.42605000000006,268.5643200000001 231.78369000000004,269.2022000000001 232.18000000000004,269.89199000000013 C 232.60191000000003,270.6263000000001 233.04922000000005,271.3904900000001 233.52251000000004,272.16900000000015 C 234.00251000000003,272.95852000000014 234.99428000000003,274.50393000000014 235.49967000000004,275.2355000000002 C 235.99178000000003,275.9478700000002 236.48928000000004,276.6297900000002 236.97867000000005,277.29199000000017 C 237.45665000000005,277.93875000000014 237.93042000000005,278.5661900000002 238.38567000000006,279.18649000000016 C 238.83171000000007,279.79425000000015 239.67225000000005,280.99640000000016 240.05750000000006,281.6001600000002 C 240.43888000000007,282.1978200000002 240.80005000000006,282.80399000000017 241.16001000000006,283.4106800000002 C 241.52172000000004,284.0203300000002 241.88282000000007,284.6383400000002 242.26250000000005,285.2571800000002 C 242.64942000000005,285.8877600000002 243.49346000000006,287.17136000000016 243.96434000000005,287.82133000000016 C 244.44798000000006,288.48890000000017 244.96321000000006,289.15568000000013 245.49733000000006,289.82536000000016 C 246.03786000000005,290.5030600000002 246.59442000000007,291.17598000000015 247.15633000000005,291.84733000000017 C 247.71711000000005,292.5173100000002 248.83232000000007,293.83421000000016 249.37917000000004,294.4783400000002 C 249.91900000000004,295.11420000000015 250.45557000000005,295.74305000000015 251.00667000000004,296.3533400000002 C 251.55728000000005,296.9631100000002 252.12483000000003,297.56208000000015 252.72417000000004,298.1383400000002 C 253.33152000000004,298.7223200000002 254.65865000000005,299.8440900000002 255.38584000000003,300.37867000000017 C 256.13196000000005,300.92713000000015 256.92081,301.45255000000014 257.73334000000006,301.97468000000015 C 258.55912000000006,302.50532000000015 259.40689000000003,303.02500000000015 260.26084000000003,303.5526800000001 C 261.12022,304.0836900000001 262.83665,305.1616600000001 263.67716,305.72050000000013 C 264.5073,306.27244000000013 265.30897,306.8271300000001 266.07868,307.37202000000013 C 266.81458000000003,307.89296000000013 267.50245,308.3931700000001 268.13816,308.86152000000016 C 268.71702000000005,309.28797000000014 269.66502,310.00224000000014 270.03150000000005,310.27268000000015 C 270.34394000000003,310.5032400000002 270.63337000000007,310.70817000000017 270.93601000000007,310.89066000000014 C 271.26682000000005,311.09015000000016 271.66904000000005,311.29920000000016 272.1645000000001,311.54468000000014 C 272.77940000000007,311.84934000000015 274.49885000000006,312.66913000000017 275.6530300000001,313.21451000000013 C 277.0026400000001,313.8522400000001 278.53676000000013,314.56766000000016 280.2520300000001,315.32800000000015 C 282.1204400000001,316.15622000000013 284.1411300000001,317.0158700000001 286.3090100000001,317.87350000000015 C 288.5889200000001,318.77548000000013 293.4928500000001,320.52255000000014 296.08852000000013,321.33432000000016 C 298.72097000000014,322.15759000000014 301.37587000000013,322.91037000000017 304.00402000000014,323.6173400000002 C 306.55907000000013,324.3046600000002 309.01601000000016,324.9159900000002 311.32552000000015,325.4863300000002 L 313.4520200000002,325.9986600000002" fill="none" id="svg_3" stroke="#000" stroke-width="2"/>
</svg>
