<?xml version="1.0" ?>
<svg baseProfile="full" height="480" version="1.1" width="640" xmlns="http://www.w3.org/2000/svg" xmlns:ev="http://www.w3.org/2001/xml-events" xmlns:xlink="http://www.w3.org/1999/xlink">
	<defs/>
	<path d="M 331.0,161.0 C 329.91599,159.28534 329.25046,158.68503 328.716,158.084 C 328.14151,157.43793 327.62433,156.85576 327.16665,156.0 C 326.74337,155.20856 326.22631,154.72993 325.77865,153.89999 C 325.42932,153.25236 324.86276000000004,152.55824 324.28399,151.916 C 323.69863000000004,151.26642999999999 323.17288,150.64807 322.64733,150.05267 C 322.08407,149.41453 321.36907,149.1705 320.49999,148.97917 C 319.65246,148.79259000000002 319.07155,147.91252 318.39998,147.436 C 317.6743,146.92111 317.12132,146.28730000000002 316.38933000000003,146.01066 C 315.46285,145.66052 314.62465000000003,145.5341 313.90016,145.12133 C 313.10838,144.67022 312.65584,144.04252 311.99998000000005,143.49999 C 311.39701,143.00121 310.49998000000005,143.00225 309.59999000000005,142.99999 C 308.70448000000005,142.99773 308.19350000000003,142.3286 307.47914000000003,142.02082 C 306.5797,141.63329 305.59999000000005,142.00064999999998 304.70000000000005,141.99999 C 303.79998000000006,141.99931999999998 303.04622000000006,141.75786 302.29998000000006,141.35264999999998 C 301.5388700000001,140.93937 300.6000000000001,140.99999 299.70000000000005,140.99999 C 298.79998000000006,140.99999 297.89998,140.99999 296.99999,140.99999 C 296.20000000000005,140.99999 295.29998,140.99999 294.39998,140.99999 C 293.49999,140.99999 292.59999000000005,140.99999 291.70000000000005,140.99999 C 290.79998000000006,140.99999 289.89998,140.99999 288.99999,140.99999 C 288.20000000000005,140.99999 287.29998,140.99999 286.39998,140.99999 C 285.49999,140.99999 284.59999000000005,140.99999 283.70000000000005,140.99999 C 282.79998000000006,140.99999 281.89998,140.99999 280.99999,140.99999 C 280.20000000000005,140.99999 279.17656000000005,140.5873 278.35717000000005,141.05715 C 277.6693000000001,141.45157 276.99999,141.99808000000002 276.24282000000005,141.99999 C 275.34731000000005,142.00225 274.45611,142.02268 273.6359800000001,142.42533 C 272.7668700000001,142.85201 272.26119000000006,143.60839 271.56399000000005,143.964 C 270.79348000000005,144.35699 269.85040000000004,144.37957 269.11465000000004,144.716 C 268.38974,145.04748 267.49478000000005,145.32643000000002 266.83334,145.83332000000001 C 266.12094,146.37928000000002 265.44763,146.663 264.70001,147.29549 C 263.94421,147.93491 263.21924,148.11682 262.39999,148.57465 C 261.62753,149.00634 261.12109,149.71202 260.38934,149.98932 C 259.49679000000003,150.32755 259.10989,150.82994 258.47915,151.47915999999998 C 257.91723,152.05752999999999 257.2366,152.45707 256.71465,153.19866 C 256.16454,153.98026 255.23707000000002,154.07032999999998 254.99999,154.99999 C 254.79,155.82345999999998 254.23031,156.30553 253.64733,156.94732 C 253.12108,157.52664 253.27025,158.33865 252.99549000000002,159.2955 C 252.77497000000002,160.06344 252.02082000000001,160.52083000000002 251.98933000000002,161.38933 L 251.50000000000003,162.0" fill="none" id="svg_1" stroke="#000" stroke-width="2"/>
	<path d="M 259.0,162.0 C 257.39999,162.57466 256.59824,162.93474 255.68649,163.0045 C 254.94178,163.06148000000002 253.94531999999998,163.2747 253.32399999999998,163.436 C 252.35356,163.68795 251.25973,164.09115 250.56249,164.47917 C 249.79462,164.90649000000002 248.94043,165.28496 248.29999,165.64734 C 247.47920000000002,166.11176 247.03853,166.72151000000002 246.29015,167.2955 C 245.71096,167.73973 244.62578000000002,167.86082000000002 243.69999,168.0045 C 242.88093,168.13161 242.01902,168.43165000000002 241.35716000000002,169.05267 C 240.75267000000002,169.61985 241.05758000000003,170.64212 241.80133000000004,171.084 C 242.50040000000004,171.49933000000001 243.38933000000003,171.97467 244.00000000000003,172.5 C 244.61067000000003,173.02533 245.43924000000004,173.40385 245.91600000000003,174.19867 C 246.33043000000004,174.88956 247.25729,174.83629 248.10001000000003,175.22133 C 248.76931000000002,175.52713 249.53026000000003,175.94113 250.40000000000003,176.42534 C 251.12858000000003,176.83096 252.00088000000002,176.96280000000002 252.80001000000004,177.0 C 253.71764000000005,177.04271 254.23208000000005,177.81778 255.09985000000003,178.00017 C 255.89215000000004,178.1667 256.35572,178.97141 257.20002000000005,179.0 C 258.09950000000003,179.03047 259.00001000000003,179.0 259.80000000000007,179.0 C 260.70002000000005,179.0 261.6000200000001,179.0 262.5000100000001,179.0 L 263.4000000000001,179.0 L 264.2999900000001,179.0" fill="none" id="svg_2" stroke="#000" stroke-width="2"/>
	<path d="M 244.0,171.0 C 245.8,171.0 246.7,171.0 247.60001,171.0 C 248.42134,171.0 249.33333,171.0 250.25068,171.0 C 250.99466999999999,171.0 252.02934,171.0 253.00000999999997,171.0 C 253.80001,171.0 254.70000999999996,171.0 255.60001999999997,171.0 C 256.50001,171.0 257.40000999999995,171.0 258.29999999999995,171.0 C 259.20001999999994,171.0 260.10002,171.0 261.00001,171.0 L 261.79999999999995,171.0 L 262.70001999999994,171.0" fill="none" id="svg_4" stroke="#000" stroke-width="2"/>
</svg>
