<?xml version="1.0" ?>
<svg baseProfile="full" height="480" version="1.1" width="640" xmlns="http://www.w3.org/2000/svg" xmlns:ev="http://www.w3.org/2001/xml-events" xmlns:xlink="http://www.w3.org/1999/xlink">
	<defs/>
	<path d="M 272.0,182.0 C 270.17465,182.0 269.16666,182.0 268.37466,182.0 C 267.51068,182.0 266.68133,182.0 265.5,182.0 C 264.74268,182.0 263.88135,182.0 263.41666,182.0 C 262.42931999999996,182.0 261.91067999999996,182.0 260.27866,182.0 C 259.71601,182.0 258.57468,182.0 258.0,182.0 C 257.42532,182.0 256.284,181.99931 255.16667,182.0 C 254.08667,182.00067 253.56143,181.99377 252.54167,182.02083 C 251.56132000000002,182.04684999999998 251.08278,182.05071999999998 249.72133000000002,182.22133 C 248.84961,182.33057 248.00096000000002,182.50565 247.14734,182.64733999999999 C 246.71646,182.71885999999998 245.37921,182.89319999999998 244.43834,182.94284 C 243.45902,182.99451 242.95337,182.99336 241.91333,182.99866999999998 C 240.83334,183.00417999999996 239.72,182.99999999999997 239.16083,182.99999999999997 C 238.60668,182.99999999999997 237.53334,182.99999999999997 236.54,182.99999999999997 C 235.66667999999999,182.99999999999997 234.62417,182.99999999999997 233.80668,182.99999999999997 C 232.83334,182.99999999999997 232.04734,182.99999999999997 231.22534,182.99999999999997 C 230.16669,182.99999999999997 228.93829,182.45101999999997 228.33334,183.16666999999998 C 227.90296999999998,183.67578999999998 229.09259,183.98297 229.77334,184.16932999999997 C 230.98685999999998,184.50152999999997 231.64033999999998,184.84989 232.31334999999999,185.14933999999997 C 232.94699999999997,185.43127999999996 234.14335,185.90643999999998 234.91517,186.04816999999997 C 235.98193999999998,186.24405999999996 236.72474,186.35431999999997 237.56250999999997,186.52082999999996 C 238.00697999999997,186.60915999999997 238.92166999999998,186.79388999999995 240.27850999999998,187.10000999999997 C 241.14392999999998,187.29525999999996 241.97932999999998,187.49935999999997 242.38932999999997,187.60000999999997 C 243.19897999999998,187.79875999999996 244.40018999999998,188.09857999999997 245.19549999999998,188.30000999999996 C 245.97954,188.49858999999995 246.74778999999998,188.68260999999995 248.17817,189.10000999999997 C 248.83622,189.29203999999996 249.4585,189.44962999999996 250.22800999999998,189.80000999999996 C 251.36373999999998,190.31714999999997 252.09338,190.93785999999994 252.88533999999999,190.99867999999995 C 253.82258,191.07065999999995 254.62341999999998,190.57493999999994 255.55334,191.03599999999994 C 256.26054,191.38664999999995 256.83448,191.80839999999995 257.70002,192.05715999999995 C 258.59641,192.31478999999996 259.32133,192.87848999999994 260.17466,192.98932999999997 L 261.11335,193.00131999999996" fill="none" id="svg_1" stroke="#000" stroke-width="2"/>
	<path d="M 245.0,184.0 C 246.0,184.0 246.8,184.0 247.7,184.0 C 248.60001,184.0 249.53773999999999,183.96252 250.32134,184.22133 C 251.19834,184.51097 252.11158999999998,184.95729 253.00001,185.0 C 253.8134,185.03911 254.77017,184.98073 255.52084,185.02083 C 256.3188,185.06346 257.32704,185.25298999999998 257.97917,185.52083 C 259.02232000000004,185.94928 259.78435,186.43017999999998 260.40001,186.64283999999998 C 261.3795,186.98118999999997 262.2,186.99465999999998 263.19985,186.99999999999997 C 263.97918000000004,187.00414999999998 265.1354,186.66721999999996 265.87868000000003,187.22132999999997 C 266.52312,187.70174999999998 267.20003,187.99999999999997 268.10018,188.00016999999997 L 268.88537,188.08532999999997" fill="none" id="svg_2" stroke="#000" stroke-width="2"/>
	<path d="M 267.0,186.0 C 267.85068,183.636 268.49557,183.24391 269.01468,182.39999 C 269.48581,181.63408 269.7569,180.68187 270.35717999999997,180.04817 C 270.96954999999997,179.40172 271.45721999999995,178.95123 271.99999999999994,178.16667 C 272.46468999999996,177.49498 273.11083999999994,176.67431000000002 273.7999899999999,176.28534000000002 C 274.5663199999999,175.85280000000003 275.65716999999995,176.00000000000003 276.4045099999999,176.00000000000003 C 277.3999899999999,176.00000000000003 278.2000999999999,176.01283000000004 279.2000099999999,175.99983000000003 C 280.0002099999999,175.98944000000003 281.0087599999999,175.85863000000003 281.7893299999999,175.57466000000002 C 282.52366999999987,175.30752 283.4789699999999,175.01042 284.3999899999999,175.00000000000003 C 285.2999199999999,174.98982000000004 286.20265999999987,175.00000000000003 286.97066999999987,175.00000000000003 C 287.77065999999985,175.00000000000003 288.5416499999999,175.00000000000003 289.40267999999986,175.00000000000003 C 290.5986599999999,175.00000000000003 291.47915999999987,175.00000000000003 292.0428499999999,175.00000000000003 C 293.3133299999999,175.00000000000003 294.1533199999999,175.00000000000003 294.97848999999985,175.00000000000003 C 295.99999999999983,175.00000000000003 296.79998999999987,175.00000000000003 297.7000199999998,175.00000000000003 C 298.5208499999998,175.00000000000003 299.4840199999998,175.00000000000003 300.34732999999983,175.00000000000003 C 301.24283999999983,175.00000000000003 302.2026799999998,175.00000000000003 302.97067999999985,175.00000000000003 C 303.76800999999983,175.00000000000003 304.74963999999983,174.97650000000002 305.66665999999987,175.00000000000003 C 306.47994999999986,175.02084000000002 307.31777999999986,175.44702000000004 307.9999999999999,176.00000000000003 C 308.8290699999999,176.67198000000002 309.54766999999987,176.85649000000004 310.29998999999987,177.35716000000002 C 311.09118999999987,177.88371 311.6003699999999,178.66647000000003 312.48400999999984,178.91600000000003 C 313.15691999999984,179.10603000000003 314.1125499999998,179.29050000000004 314.88399999999984,179.80133000000004 C 315.64479999999986,180.30511000000004 316.34117999999984,180.65524000000005 316.94933999999984,181.39999000000003 C 317.49096999999983,182.06327000000002 318.17748999999986,182.58538000000004 319.1159999999998,182.91732000000002 C 319.8780199999998,183.18684000000002 320.6622299999998,183.69955000000002 321.1746499999998,184.18533000000002 C 321.9941099999998,184.96219000000002 322.5676899999998,185.59784000000002 323.39998999999983,185.97467000000003 C 324.1806599999998,186.32812000000004 324.7558599999998,187.02917000000002 325.0526699999998,187.70000000000005 C 325.4277299999998,188.54766000000004 326.2000099999998,189.20000000000005 326.7000099999998,189.70000000000005 C 327.3999899999998,190.40000000000003 328.1789499999998,191.03681000000006 328.5639899999998,191.60001000000005 C 329.1284099999998,192.42556000000005 329.4764999999998,193.23113000000006 329.8786599999998,194.10001000000005 C 330.1850899999998,194.76203000000007 330.6129699999998,195.58197000000004 330.9746699999998,196.40000000000006 C 331.3214999999998,197.18447000000006 331.8333399999998,198.00001000000006 331.9986599999998,198.80001000000007 L 331.99999999999983,199.70000000000007 L 332.0360099999998,200.60001000000008" fill="none" id="svg_3" stroke="#000" stroke-width="2"/>
</svg>
