<?xml version="1.0" ?>
<svg baseProfile="full" height="480" version="1.1" width="640" xmlns="http://www.w3.org/2000/svg" xmlns:ev="http://www.w3.org/2001/xml-events" xmlns:xlink="http://www.w3.org/1999/xlink">
	<defs/>
	<path d="M 215.0,206.0 C 215.16667,205.16667 215.95728,204.718 216.0,203.89999 C 216.04694,203.00122 216.48206,202.39158 216.91467,201.71333 C 217.39012,200.96792000000002 216.80871,199.91241000000002 217.35266000000001,199.10983000000002 C 217.81245,198.43141000000003 217.96059000000002,197.67146000000002 218.50000000000003,197.00000000000003 C 218.98761000000002,196.39301000000003 219.80179000000004,196.36327000000003 220.56400000000002,195.96400000000003 C 221.32232000000002,195.56678000000002 222.0808,195.55923 222.83333000000002,194.83332000000001 C 223.44498000000002,194.24332 223.2076,193.25480000000002 224.00000000000003,192.83332000000001 C 224.64059000000003,192.49259 225.52063000000004,192.01041 226.32133000000002,191.99999000000003 C 227.17459000000002,191.98890000000003 228.22555000000003,192.19326000000004 228.94732000000002,191.64733000000004 C 229.57153000000002,191.17519000000004 230.3,190.99999000000003 231.19999,190.99999000000003 C 232.10017000000002,190.99999000000003 232.88532,190.99999000000003 233.82533,190.99999000000003 C 234.83333000000002,190.99999000000003 235.62533000000002,190.99999000000003 236.48399,190.99999000000003 C 237.34733,190.99999000000003 238.37466,190.99999000000003 239.32133000000002,190.99999000000003 C 240.00000000000003,190.99999000000003 240.97850000000003,190.99999000000003 241.79866,190.99999000000003 C 242.70000000000002,190.99999000000003 243.60001000000003,190.99999000000003 244.5,190.99999000000003 C 245.39999,190.99999000000003 246.3,190.99999000000003 247.2,190.99999000000003 C 248.10001,190.99999000000003 249.0,190.99999000000003 249.80001,190.99999000000003 C 250.75717999999998,190.99999000000003 251.65266999999997,190.99999000000003 252.51601,190.99999000000003 C 253.364,190.99999000000003 254.30001,190.99999000000003 255.2,190.99999000000003 C 256.10016,190.99999000000003 256.88849,190.93323000000004 257.82535,191.01066000000003 C 258.84189000000003,191.09466000000003 259.45233,191.62814000000003 260.32132,191.87849000000003 C 261.14819,192.11671000000004 262.12408,191.86416000000003 263.09982,192.00016000000002 C 263.90191000000004,192.11196 264.28943000000004,193.07015 265.02084,193.47916000000004 C 265.79443000000003,193.91175000000004 266.69558,193.98702000000003 267.6,193.99999000000003 C 268.4793,194.01259000000002 268.93661000000003,194.77477000000002 269.70449,194.99549000000002 C 270.56518,195.24287 271.60928,194.83271000000002 272.29549000000003,195.35715000000002 C 273.04573000000005,195.93054 273.22448,196.85861000000003 274.09999000000005,197.00016000000002 C 275.00352000000004,197.14623000000003 275.59489,197.72079000000002 276.44282000000004,198.22132000000002 C 277.15092000000004,198.63932000000003 278.09059,198.66721 278.87882,199.22132000000002 C 279.58729,199.71935000000002 280.31788,199.79851000000002 280.93863000000005,200.436 C 281.60556,201.12091 282.16238000000004,201.58134 282.87863000000004,202.22132000000002 C 283.47839000000005,202.75719 283.80969000000005,203.52637000000001 284.28531000000004,204.19866000000002 C 284.83731000000006,204.97892000000002 285.69904,205.05437 286.49997,205.49999000000003 C 287.29901,205.94454000000002 288.422,205.77373000000003 288.87863000000004,206.44266000000002 C 289.36889,207.16086 289.55505000000005,208.03119 290.06131000000005,208.61066000000002 C 290.68198000000007,209.32106000000002 291.25366,209.73799000000002 291.97913000000005,210.47916000000004 C 292.54435000000007,211.05661000000003 293.10947000000004,211.67005000000003 293.8013000000001,212.08399000000003 C 294.59665000000007,212.55987000000002 294.84384000000006,213.46404000000004 295.2853100000001,214.19999000000004 C 295.6924100000001,214.87861000000004 296.4745500000001,215.52642000000003 297.1999800000001,216.19866000000005 C 297.7804200000001,216.73653000000004 298.7222000000001,216.84722000000005 299.3893100000001,217.43600000000004 C 300.08420000000007,218.04930000000004 300.3783800000001,218.89320000000004 301.1666200000001,219.16667000000004 C 302.0220900000001,219.46345000000005 302.8616300000001,219.96541000000005 303.4791200000001,220.50000000000003 C 304.1318600000001,221.06512000000004 304.6999800000001,221.70000000000002 305.3999600000001,222.39999000000003 C 305.9999700000001,223.00000000000003 306.7388600000001,223.53437000000002 306.9639600000001,224.39999000000003 C 307.1895800000001,225.26756000000003 307.4465600000001,226.05380000000002 308.0253000000001,226.57466000000002 C 308.66318000000007,227.14874000000003 309.28375000000005,227.67990000000003 309.9159600000001,228.28400000000002 C 310.4919500000001,228.83437 311.1345600000001,229.39423000000002 311.9999700000001,229.83333000000002 C 312.6753500000001,230.17601000000002 313.11707000000007,230.78192 313.5746500000001,231.60001000000003 C 314.00660000000005,232.37230000000002 314.6024500000001,232.63153000000003 315.47913000000005,233.02083000000002 C 316.19004000000007,233.33650000000003 316.67005000000006,234.10948000000002 317.08399000000003,234.80133 C 317.55985000000004,235.59666 318.43909,235.73962 319.29548000000005,236.0045 C 320.05879000000004,236.24058 320.54444000000007,236.92633 321.48264000000006,237.00267 C 322.29514000000006,237.06879 322.93122000000005,237.70483 322.99732000000006,238.51733 C 323.07364000000007,239.45551999999998 323.49289000000005,240.18562 324.0839900000001,240.71599999999998 C 324.6840600000001,241.25441999999998 325.5604000000001,241.65363999999997 326.2999600000001,242.29549999999998 C 326.96665000000013,242.87410999999997 327.9169000000001,242.94117999999997 328.4791300000001,243.52083 C 329.11200000000014,244.17333 329.3497400000001,245.15775 329.7159800000001,245.79999999999998 C 330.2026100000001,246.65338999999997 330.78516000000013,247.20024999999998 331.4319800000001,247.79999999999998 C 332.0715100000001,248.39298999999997 332.79984000000013,248.99857999999998 332.9986300000001,249.80132999999998 C 333.1908300000001,250.57743999999997 333.4253000000001,251.39998999999997 333.9159600000001,252.2 L 334.2213200000001,253.10001 L 334.6473100000001,253.7" fill="none" id="svg_1" stroke="#000" stroke-width="2"/>
	<path d="M 215.0,205.0 C 213.77867,205.87866 213.21176,206.38249 212.99867,207.19867 C 212.78825,208.00464 211.93677,208.47018 211.39999,209.14934 C 210.83822,209.86012 210.2516,210.2199 209.716,210.916 C 209.23248,211.54442 209.20216000000002,212.31987 208.66667,213.0 C 208.14079,213.66792 207.07084,213.89951 206.54167,214.5 C 205.92177,215.20345 205.80711000000002,216.31181 205.19867000000002,216.71466 C 204.37723000000003,217.25854 203.32483000000002,217.44502 203.08667000000003,218.28400000000002 C 202.87790000000004,219.01943000000003 204.30000000000004,219.00000000000003 205.20000000000002,219.00000000000003 C 206.10001000000003,219.00000000000003 207.13790000000003,218.67822000000004 207.83333000000002,219.16667000000004 C 208.54851000000002,219.66899000000004 209.20000000000002,220.00000000000003 210.10001000000003,220.00000000000003 C 211.00000000000003,220.00000000000003 211.83333000000002,220.00000000000003 212.05716000000004,220.64734000000004 L 212.80133000000004,220.99867000000003 L 213.70000000000005,221.00000000000003" fill="none" id="svg_2" stroke="#000" stroke-width="2"/>
	<path d="M 216.0,210.0 C 216.0,211.8 216.0,212.7 216.0,213.60001 L 216.0,214.4 L 216.01067,215.38933 L 216.52083000000002,215.97917" fill="none" id="svg_3" stroke="#000" stroke-width="2"/>
</svg>
