<?xml version="1.0" ?>
<svg baseProfile="full" height="480" version="1.1" width="640" xmlns="http://www.w3.org/2000/svg" xmlns:ev="http://www.w3.org/2001/xml-events" xmlns:xlink="http://www.w3.org/1999/xlink">
	<defs/>
	<path d="M 194.0,190.0 C 195.82533,190.0 196.83333,190.0 197.6955,190.0 C 198.60001,190.0 199.41738,189.91052 200.02533,189.42534 C 200.64983,188.92696 201.60001,189.0 202.5,189.0 C 203.39999,189.0 204.3,189.0 205.20134,189.0 C 206.16666999999998,189.0 207.0,189.0 207.83333,189.0 C 208.69549999999998,189.0 209.636,189.0 210.48399999999998,189.0 L 211.34733999999997,189.0" fill="none" id="svg_1" stroke="#000" stroke-width="2"/>
	<path d="M 193.0,189.0 C 193.0,190.8 193.1402,191.76126 194.067,191.94284 C 194.78386,192.08329999999998 195.83333000000002,192.0 196.53833,192.0 C 197.51334,192.0 198.364,191.99931 199.3,192.0 C 200.19999,192.00067 201.05082000000002,192.30084 201.69999,192.64734 C 202.54937,193.10069000000001 203.55508,192.70238 204.38932000000003,193.01067 C 205.13572000000002,193.28649000000001 205.26568000000003,194.43618 206.10000000000002,194.87867 C 206.93481000000003,195.32142 207.60000000000002,195.57467 208.49999000000003,196.00001 L 209.29999000000004,196.35267 L 209.99999000000003,196.83334" fill="none" id="svg_2" stroke="#000" stroke-width="2"/>
	<path d="M 213.0,188.0 C 214.0,187.0 214.75107,186.56215 215.28534,185.80133 C 215.7047,185.20415 216.45076,184.66994 217.16666999999998,184.16667 C 217.86191,183.67795 218.83696999999998,184.20447000000001 219.7,183.94284000000002 C 220.58489,183.67458000000002 221.11344,182.67889000000002 221.80001,182.28534000000002 C 222.53384,181.86470000000003 223.51572,182.15711000000002 224.39999999999998,181.98933000000002 C 225.34591999999998,181.80987000000002 226.00521999999998,181.18394000000004 226.75717999999998,180.94732000000002 C 227.65939999999998,180.66341000000003 228.3576,180.31074 229.24283999999997,179.70449000000002 C 230.00910999999996,179.17971000000003 230.75716999999997,179.00225000000003 231.65717999999998,178.99999000000003 C 232.40451,178.99813000000003 233.39867999999998,179.00159000000002 234.16402,178.99999000000003 C 235.24285,178.99773000000002 236.03669,178.67386000000002 236.80002,178.28399000000002 C 237.5529,177.89945000000003 238.53475999999998,178.05290000000002 239.30002,177.64733 C 240.14591,177.19903000000002 241.00001999999998,176.99999 241.80002,176.99999 C 242.70001,176.99999 243.61921999999998,177.16521 244.50001999999998,176.97916 C 245.34741999999997,176.80017 246.09390999999997,176.06087 247.00001999999998,175.99999 C 247.79822,175.94636 248.63601999999997,175.99999 249.65267999999998,175.99999 C 250.34734999999998,175.99999 251.36400999999998,175.99999 252.30001999999996,175.99999 C 253.20000999999996,175.99999 254.10001999999997,175.99999 255.00001999999995,175.99999 C 255.80001999999996,175.99999 256.70002999999997,175.99999 257.60002999999995,175.99999 C 258.50001999999995,175.99999 259.4000199999999,175.99999 260.30000999999993,175.99999 C 261.2000299999999,175.99999 262.10002999999995,175.99999 263.00001999999995,175.99999 C 263.80000999999993,175.99999 264.72712999999993,175.81386 265.60002999999995,176.03599 C 266.4761,176.25892 267.1491899999999,177.03123 267.82536999999996,177.38932 C 268.50005,177.7466 269.49877,177.95725 270.30452999999994,178.35265 C 271.19066999999995,178.78751 272.15755999999993,178.69088000000002 272.8306799999999,179.28533000000002 C 273.5079599999999,179.88344 273.64827999999994,180.76180000000002 274.4000199999999,181.38932000000003 C 275.05556999999993,181.93655000000004 275.8586399999999,182.22448000000003 276.00017999999994,183.10000000000002 C 276.1462399999999,184.00353 276.8018799999999,184.48142 277.47917999999993,184.99999000000003 C 278.1109899999999,185.48372000000003 278.1441299999999,186.36844000000002 278.64735999999994,187.05266000000003 C 279.1373499999999,187.71886000000003 278.63685999999996,188.79688000000004 279.0360299999999,189.56398000000004 C 279.43116999999995,190.32336000000004 279.8037299999999,190.83582000000004 280.0571799999999,191.69998000000004 C 280.3144999999999,192.57741000000004 280.8364499999999,193.34704000000005 281.2213599999999,194.09999000000005 C 281.6115299999999,194.86317000000005 281.9977599999999,195.69997000000004 282.0000199999999,196.59999000000005 C 282.0022499999999,197.49998000000005 282.0000199999999,198.39998000000006 282.0000199999999,199.29999000000004 C 282.0000199999999,200.20133000000004 282.0000199999999,200.88532000000004 282.0000199999999,201.82532000000003 C 282.0000199999999,202.83332000000004 282.0000199999999,203.69548000000003 282.0000199999999,204.59999000000002 C 282.0000199999999,205.49998000000002 282.0000199999999,206.39998000000003 282.0000199999999,207.29999 C 282.0000199999999,208.19998 282.0000199999999,209.09999000000002 282.0000199999999,209.99999 C 282.0000199999999,210.79999 282.0000199999999,211.69998999999999 282.0000199999999,212.52082 C 282.0000199999999,213.48398999999998 282.00065999999987,214.34733 282.0000199999999,215.24282 C 281.9993499999999,216.19866 281.4330599999999,216.67759999999998 281.03602999999987,217.436 C 280.63279999999986,218.20628000000002 280.83335999999986,219.16667 280.5000199999999,220.0 C 280.1666799999999,220.83333 280.0143299999999,221.74011 280.8188699999999,222.05267 C 281.72978999999987,222.40657000000002 282.5165899999999,222.48092 283.23201999999986,222.80133 C 284.2159399999999,223.24197 284.86958999999985,223.7679 285.82536999999985,223.97467 C 286.50880999999987,224.12253 287.47996999999987,224.49863 288.19868999999983,224.916 C 288.94816999999983,225.35124 289.4355699999998,225.97957 290.40000999999984,226.0 C 291.29532999999986,226.01897 291.8757499999998,226.53915 292.52085999999986,227.0 C 293.2182799999999,227.49823 293.92713999999984,228.08931 294.60001999999986,228.564 C 295.33481999999987,229.08236 296.14426999999984,229.37565999999998 297.00000999999986,229.83333 C 297.7914499999999,230.25662 298.11185999999987,230.87627999999998 298.87201999999985,231.39999999999998 C 299.55795999999987,231.87257999999997 300.38297999999986,232.23358999999996 301.16400999999985,232.56399999999996 C 302.09650999999985,232.95848999999995 302.75079999999986,233.44746999999995 303.43600999999984,233.97467999999998 C 304.08966999999984,234.47761999999997 304.72393999999986,234.88994999999997 305.50000999999986,235.47917999999999 C 306.23825999999985,236.03967999999998 307.13031999999987,236.18676 307.79999999999984,236.80133999999998 C 308.41895999999986,237.36934999999997 308.71198999999984,238.42659999999998 309.44284999999985,238.87866999999997 C 310.08652999999987,239.27679999999998 311.11649999999986,239.28460999999996 311.7526599999999,239.70450999999997 C 312.65335999999985,240.29898999999997 313.3822999999999,240.65003999999996 314.1146599999999,241.20000999999996 C 314.7274799999999,241.66022999999996 315.3880399999999,242.41217999999995 316.1001599999999,243.10001999999997 C 316.6272899999999,243.60917999999998 317.4796499999999,244.21038999999996 318.0208399999999,244.50000999999997 C 318.9901999999999,245.01877999999996 319.8103599999999,245.36401999999998 320.5146799999999,245.80001 C 321.26256999999987,246.26298 321.7259499999999,247.18536999999998 322.16933999999986,247.80001 C 322.70516999999984,248.54279 323.61794999999984,248.68023 324.35332999999986,249.39999999999998 C 324.97887999999983,250.01225999999997 325.12178999999986,250.85971999999998 325.86132999999984,251.39999999999998 C 326.48174999999986,251.85324999999997 327.31976999999983,252.50596 328.16665999999987,252.83333 C 328.94442999999984,253.13398999999998 329.64303999999987,253.49065 330.0481599999999,254.29466 C 330.4224599999999,255.03754999999998 331.3037399999999,255.35309999999998 331.9999999999999,256.0 C 332.6032699999999,256.56049 333.5702799999999,256.92261 333.9999999999999,257.52084 C 334.5725099999999,258.31787 335.0876499999999,258.92831 335.5639999999999,259.6 C 336.1371199999999,260.40817000000004 336.7309599999999,260.85525 337.51733999999993,261.08401000000003 C 338.38830999999993,261.33740000000006 338.76458999999994,262.26437000000004 339.1666599999999,263.00000000000006 C 339.5686399999999,263.7354700000001 340.60851999999994,263.82007000000004 341.2955099999999,264.3571800000001 C 342.03937999999994,264.93878000000007 342.3519399999999,265.8271200000001 342.9473299999999,266.35266000000007 C 343.5854799999999,266.9159200000001 344.1929999999999,267.40362000000005 344.7160099999999,268.0840100000001 C 345.1858899999999,268.6952800000001 345.1708699999999,269.7140800000001 346.0000099999999,270.0000000000001 C 346.82956999999993,270.2860700000001 346.88861999999995,271.1772200000001 347.02084999999994,271.9791600000001 C 347.16589999999997,272.85892000000007 348.12799999999993,273.1886600000001 348.70001999999994,273.7045000000001 C 349.4272199999999,274.36029000000013 349.87613999999996,275.21237000000013 350.08401999999995,275.88535000000013 C 350.38024999999993,276.8444000000001 350.80969999999996,277.51026000000013 351.38935,278.36402000000015 C 351.88575,279.09516000000013 351.82354999999995,280.03925000000015 352.08533,280.79999000000015 C 352.35358,281.57956000000013 353.33084,282.10797000000014 353.71466,282.79999000000015 C 354.17194,283.6244800000002 353.99805,284.61963000000014 354.42532,285.40000000000015 C 354.8757,286.22260000000017 354.82998,287.14890000000014 355.16665,288.00001000000015 C 355.4446,288.7026500000001 355.84478,289.4983300000001 356.05267,290.34733000000017 C 356.27727999999996,291.26466000000016 356.84359,291.9973200000002 357.05267,292.8143400000002 C 357.29596,293.76502000000016 357.51635,294.4953700000002 357.71599999999995,295.2320000000002 C 357.97301999999996,296.1801800000002 358.3619699999999,296.9653400000002 358.99999999999994,297.5208500000002 C 359.70000999999996,298.13035000000025 359.9791599999999,298.99934000000025 359.99999999999994,299.97849000000025 C 360.01745999999997,300.7985000000003 359.99999999999994,301.7000200000002 359.99999999999994,302.6000100000002 C 359.99999999999994,303.5000000000002 359.99999999999994,304.4000000000002 359.99999999999994,305.2999900000002 C 359.99999999999994,306.2000100000002 359.99999999999994,307.1001600000002 359.99999999999994,307.8853500000002 C 359.99999999999994,308.8253500000002 359.99999999999994,309.5160000000002 359.99999999999994,310.5893300000002 L 360.02083999999996,311.4791600000002" fill="none" id="svg_3" stroke="#000" stroke-width="2"/>
</svg>
