<?xml version="1.0" ?>
<svg baseProfile="full" height="480" version="1.1" width="640" xmlns="http://www.w3.org/2000/svg" xmlns:ev="http://www.w3.org/2001/xml-events" xmlns:xlink="http://www.w3.org/1999/xlink">
	<defs/>
	<path d="M 294.0,182.0 C 291.39999,183.2955 290.61578,183.70924 289.59866,183.916 C 288.98602,184.04054 287.82635,184.1402 287.04284,184.36166 C 286.47341,184.52261000000001 285.58498000000003,184.85945 284.70034000000004,185.32116 C 283.80666,185.78759 283.30782000000005,186.20815 282.33334,186.66665999999998 C 281.54565,187.03727999999998 280.5086,187.27210999999997 279.78933,187.61065999999997 C 278.993,187.98547999999997 278.18469,188.35612999999998 277.48531,188.79998999999998 C 276.622,189.34792 276.25979,190.34337 276.88799,190.71464999999998 C 277.59356,191.13163999999998 278.63317,190.99773 279.66665,190.99998999999997 C 280.53466000000003,191.00187999999997 281.00616,190.99998999999997 281.97915,190.99998999999997 C 282.93215,190.99998999999997 284.16665,190.99998999999997 285.01415000000003,190.99998999999997 C 285.79332000000005,190.99998999999997 286.70000000000005,190.99998999999997 287.56249,190.99998999999997 C 288.49999,190.99998999999997 289.36699000000004,190.99998999999997 290.04165,190.99998999999997 C 290.75634,190.99998999999997 292.17849,190.99998999999997 292.84283,190.99998999999997 L 293.78933,190.99998999999997 L 294.39867,190.99998999999997" fill="none" id="svg_1" stroke="#000" stroke-width="2"/>
	<path d="M 279.0,190.0 C 279.10001,188.99983 279.96432,188.77147 280.63599,188.42534 C 281.44812,188.00681 282.34731999999997,188.00226 283.24735,188.0 C 284.16666,187.9977 285.00001,188.0 285.97866999999997,188.0 C 286.75266,188.0 287.65268,188.0 288.51599,188.0 C 289.47916,188.0 290.39999,188.0 291.2955,187.9955 L 291.97467,187.57466 L 292.61066,187.01066" fill="none" id="svg_2" stroke="#000" stroke-width="2"/>
	<path d="M 292.0,182.0 C 292.0,180.164 292.0,179.39867 292.0,178.39999 C 292.0,177.6 291.99765,176.60133 292.0,175.65716 C 292.00226,174.75715 292.32614,173.96333 292.716,173.19999 C 293.10052,172.44709 292.88858,171.43043 293.35717,170.69999 C 293.87035,169.90008 294.59322,169.41433 294.97466,168.60000000000002 C 295.38948999999997,167.71443000000002 296.06768,167.05702000000002 296.47914999999995,166.49999000000003 C 297.08403999999996,165.68113000000002 297.4665499999999,164.96753000000004 298.02531999999997,164.42533000000003 C 298.61418999999995,163.85390000000004 298.61103999999995,162.94540000000003 299.28533,162.16932000000003 C 299.87789,161.48730000000003 300.71119999999996,161.37632000000002 301.52083,160.97916000000004 C 302.33339,160.58057000000002 303.00507999999996,159.96015000000003 303.6013,159.48265000000004 C 304.37895,158.85986000000003 305.18775999999997,158.44673000000003 305.97846999999996,157.90015000000002 C 306.60954,157.46392000000003 307.44521,157.27939000000003 308.29549,156.99549000000002 C 309.12870999999996,156.71729000000002 309.71907,156.08039000000002 310.40898,155.94732000000002 C 311.40849,155.75453000000002 312.2021,155.39361000000002 312.99998,154.99999000000003 C 313.8021,154.60428000000002 314.59650999999997,154.19294000000002 315.39866,153.80132000000003 C 316.16074000000003,153.42926000000003 317.11155,153.04270000000002 317.99998,152.99999000000003 C 318.79904999999997,152.96157000000002 319.82340999999997,153.41268000000002 320.64279999999997,152.94283000000001 C 321.33066999999994,152.54841000000002 321.88663999999994,152.00066 322.83597999999995,151.99999000000003 C 323.6012999999999,151.99946000000003 324.59998999999993,151.99999000000003 325.39997999999997,151.99999000000003 C 326.40132,151.99999000000003 327.23598,151.99999000000003 328.16664,151.99999000000003 C 328.95714,151.99999000000003 329.81064999999995,151.99999000000003 330.40132,151.99999000000003 C 331.59999,151.99999000000003 332.49998,151.99999000000003 333.09999,151.99999000000003 C 334.29997,151.99999000000003 335.2,151.99999000000003 335.79997,151.99999000000003 C 336.99998,151.99999000000003 337.89549,151.99999000000003 338.76399,151.99999000000003 C 339.83333,151.99999000000003 340.53830999999997,151.99999000000003 341.33833,151.99999000000003 C 342.37465,151.99999000000003 343.32164,151.99999000000003 344.04164,151.99999000000003 C 345.16664,151.99999000000003 345.95714,151.99999000000003 346.52083,151.99999000000003 C 347.40132,151.99999000000003 348.6013,151.99999000000003 349.21065,151.99999000000003 C 350.15715,151.99999000000003 351.16667,151.99439000000004 351.88399,152.00132000000002 C 353.00011,152.01211 353.75197,152.01817000000003 354.83333,152.16666 C 355.51848,152.26075 356.48174,152.51233000000002 357.09548,152.70449000000002 C 358.30498,153.08318000000003 358.88595000000004,153.31170000000003 359.72799000000003,153.56399000000002 C 360.8507,153.90039000000002 361.60790000000003,153.97009000000003 362.42132000000004,154.436 C 362.9938,154.76391 364.00958,155.28965 364.74932,155.6 C 365.67214,155.98716 366.27129,156.49734999999998 367.2,156.91599 C 367.96428,157.2605 368.60292,157.67230999999998 369.484,157.91599 C 370.32644,158.14899 371.2593,158.33822 371.99998999999997,158.99999 C 372.61406,159.54864 373.46403999999995,159.84383 374.2,160.28533 C 374.87859,160.69242 375.46752,161.50695 375.94731,162.29549 C 376.34755,162.95327 377.36262,163.16812 377.83333,163.99999 C 378.19457,164.63843 378.48557999999997,165.50829 378.95183,166.29999 C 379.42809,167.10874 380.20667999999995,167.31107 380.83063999999996,168.20133 C 381.24900999999994,168.79825000000002 381.46428,169.81019 381.71599,170.51600000000002 C 382.05327,171.46182000000002 382.29003,172.39301000000003 383.09981,172.87866000000002 C 383.82948999999996,173.31625000000003 383.78493,174.19670000000002 384.22132999999997,174.87883000000002 C 384.68809999999996,175.60841000000002 384.85729,176.24977 385.28533,177.11467000000002 C 385.66537,177.88257000000002 386.41758999999996,178.38283 387.09981,179.10001000000003 C 387.65755,179.68633000000003 387.87602,180.56783000000001 388.35715999999996,181.30001000000001 C 388.87906999999996,182.09425000000002 389.64583,182.55727000000002 390.29547999999994,183.30001000000001 C 390.87665999999996,183.96445000000003 391.24139999999994,184.71964000000003 391.80130999999994,185.16933 C 392.50931999999995,185.73798 392.74954999999994,186.8597 393.02530999999993,187.58934 C 393.35162999999994,188.45282 393.88632999999993,188.88565 394.6526599999999,189.65266 C 395.1744199999999,190.17488 396.0374599999999,190.92785 396.4583199999999,191.47917 C 397.0357099999999,192.23555000000002 397.4676899999999,192.93179 398.0208199999999,193.52083000000002 C 398.6184199999999,194.15721000000002 399.3860499999999,194.65131000000002 400.1146299999999,195.20000000000002 C 400.7268399999999,195.66106000000002 401.3880099999999,196.41217 402.1001299999999,197.10001000000003 C 402.6272599999999,197.60917000000003 403.4903599999999,198.18918000000002 404.17461999999995,198.60001000000003 C 404.9862299999999,199.08730000000003 405.578,199.61174000000003 406.20264,200.20134000000002 C 406.80364999999995,200.76866 407.5329,201.33543 408.25064,201.81467 C 408.98494999999997,202.30497 409.88534,202.68595000000002 410.69097999999997,203.04818 C 411.5361,203.42815 412.35943999999995,203.81312 413.09997999999996,204.2215 C 413.77448,204.59346 414.39996999999994,205.4 415.09997999999996,206.10001 C 415.59997999999996,206.60001 416.27151999999995,207.34105 416.88532,207.80001 C 417.61683,208.34700999999998 418.35409999999996,208.62267 419.36399,208.97467999999998 C 420.20731,209.26862999999997 420.86549,209.83347999999998 421.65714,210.30001 C 422.38743000000005,210.73037 423.21119000000004,211.07859 423.97913000000005,211.50000999999997 C 424.84684000000004,211.97615999999996 425.47147000000007,212.54111999999998 426.32129000000003,213.10001999999997 C 426.97949000000006,213.53289999999998 427.82102000000003,214.01752999999997 428.38532000000004,214.40000999999998 C 429.31403000000006,215.02947999999998 430.00913,215.30176999999998 430.78531000000004,215.60001999999997 C 431.83240000000006,216.00237999999996 432.53049000000004,216.31417999999996 433.15329,216.56400999999997 C 434.1062,216.94625999999997 434.97931000000005,217.14978999999997 435.77063000000004,217.56800999999996 C 436.552,217.98096999999996 437.07947,218.37934999999996 438.30014000000006,218.75751999999997 C 438.8930700000001,218.94120999999998 439.84778000000006,219.04602999999997 440.4852900000001,219.25333999999998 C 441.5451700000001,219.59798999999998 442.25705000000005,220.05535999999998 442.9999700000001,220.52084 C 443.7518600000001,220.99196999999998 444.8240100000001,221.68472 445.51596000000006,222.03068 C 446.16632000000004,222.35584 446.82718000000006,222.61017999999999 447.4839800000001,222.88267 C 448.5242600000001,223.31425 449.25263000000007,223.65267 449.9999700000001,224.00001 C 450.7473100000001,224.34735 451.8287400000001,224.84478000000001 452.83832000000007,225.24284 C 453.45560000000006,225.48622 454.31998000000004,225.78238 455.3159800000001,226.20001 C 456.0047600000001,226.48882999999998 456.6757500000001,226.82120999999998 457.6866500000001,227.20001 C 458.5351300000001,227.51793999999998 459.1591800000001,227.70829999999998 460.1666300000001,228.00001 C 460.8823000000001,228.20724 461.6320200000001,228.38949 462.3746400000001,228.63601 C 463.8477800000001,229.12505 464.5190500000001,229.47576 465.1639800000001,229.82534 C 465.7937100000001,230.16668 466.3803200000001,230.55431000000002 467.5986400000001,231.11468000000002 C 468.1811300000001,231.38259000000002 469.0499900000001,231.67762000000002 470.0786500000001,232.10002000000003 C 470.7797300000001,232.38791000000003 471.4467200000001,232.71469000000002 472.42115000000007,233.10002000000003 C 473.2100000000001,233.41197000000003 474.02384000000006,233.63515000000004 475.03199000000006,234.20001000000002 C 475.67469000000006,234.56012 476.5369600000001,235.11509 477.27198000000004,235.40001 C 477.81705000000005,235.6113 479.00196000000005,235.99422 479.90449000000007,236.30452 C 480.52220000000005,236.51689 481.1636500000001,236.74152999999998 482.1666400000001,237.16669 C 482.8888400000001,237.47280999999998 483.62450000000007,237.82711999999998 484.3746500000001,238.17469 C 485.11516000000006,238.51778 486.17741000000007,238.98032 487.1426600000001,239.36402 C 487.9805500000001,239.69709 488.8341000000001,240.13755 489.57866000000007,240.56402 C 490.3879300000001,241.02755 491.1700900000001,241.32892999999999 491.8466700000001,241.86135 C 492.4648600000001,242.34783 493.41451000000006,242.99226 493.94817000000006,243.24284999999998 C 494.72942000000006,243.60969999999998 495.68654000000004,243.96905999999998 496.47915000000006,244.50001999999998 C 497.1854200000001,244.97312999999997 497.8332500000001,245.40531 498.60131000000007,245.80002 C 499.5875200000001,246.30684 500.41366000000005,246.59953 500.93865000000005,247.40000999999998 C 501.41710000000006,248.12951999999999 501.73308000000003,248.74500999999998 502.65716000000003,249.30002 C 503.38381000000004,249.73647 504.21121000000005,250.0786 504.97915000000006,250.50001999999998 C 505.84686000000005,250.97616999999997 506.5017000000001,251.44190999999998 507.29550000000006,251.94734999999997 C 507.99606000000006,252.39340999999996 508.53873000000004,252.99467999999996 507.89999000000006,253.00001999999998 C 507.00003000000004,253.00752999999997 506.2688600000001,252.91450999999998 505.58932000000004,252.14935999999997 C 505.09097,251.58818999999997 504.32858000000004,251.18017999999998 503.48400000000004,250.91734999999997 C 502.61068000000006,250.64555999999996 501.75390000000004,250.20001999999997 500.99999,249.83334999999997 C 500.23638,249.46194999999997 499.48275,249.16743999999997 498.6,248.98935999999998 C 497.65624,248.79897999999997 497.01165000000003,248.08910999999998 496.18566000000004,248.00453 C 495.23559000000006,247.90724 494.46038000000004,248.04425999999998 493.68267000000003,247.82935999999998 C 492.64669000000004,247.54306999999997 492.0368,246.93537999999998 491.31600000000003,246.56802 C 490.35686000000004,246.07918999999998 489.49566000000004,246.05058 488.68398,245.91735 C 487.67998,245.75257 487.07567,245.39114 486.0215,245.12153 C 485.21840000000003,244.91613 484.364,245.00002 483.34731,245.00002 L 482.65267,245.00002 L 481.63598,245.00002 L 480.70001,245.00002" fill="none" id="svg_3" stroke="#000" stroke-width="2"/>
</svg>
