<?xml version="1.0" ?>
<svg baseProfile="full" height="480" version="1.1" width="640" xmlns="http://www.w3.org/2000/svg" xmlns:ev="http://www.w3.org/2001/xml-events" xmlns:xlink="http://www.w3.org/1999/xlink">
	<defs/>
	<path d="M 208.0,123.0 C 209.52083,122.91666 209.86227,122.29635 210.48801,121.31467 C 210.84439,120.75554000000001 211.26012,120.16989000000001 211.77201,119.59867000000001 C 212.60714,118.66673000000002 213.3079,118.09838 214.00001,117.47917000000001 C 214.35066,117.16546000000001 215.07488,116.55143000000001 215.95718,115.47884 C 216.24514,115.12876 216.73396,114.38221 217.21466999999998,113.66134000000001 C 217.67816,112.9663 218.40362,112.02424 218.95718,111.50984000000001 C 219.50381,111.00188000000001 220.41526,110.33394000000001 221.30017999999998,109.5785 C 221.91438,109.05418 222.20920999999998,108.76241 222.83601,108.18933000000001 C 223.48385,107.59701000000001 224.51909999999998,106.69689000000001 225.25717999999998,106.09550000000002 C 225.63478999999998,105.78782000000001 226.41342999999998,105.16737000000002 226.80450999999996,104.84284000000001 C 228.00860999999998,103.84363 228.40487999999996,103.48446000000001 229.19099999999997,102.75184000000002 C 229.58128999999997,102.38812000000001 230.32995999999997,101.66331000000001 231.02933,100.96934000000002 C 231.66845999999998,100.33515000000001 232.23066999999998,99.76935000000002 232.97916999999998,99.02085000000001 C 233.44815999999997,98.55185000000002 234.41893,97.57574000000001 234.96166999999997,97.04285000000002 C 235.53876999999997,96.47622000000001 235.83783999999997,96.17965000000001 236.48665999999997,95.59868000000002 C 237.50734999999997,94.68472000000001 238.24428999999998,94.10528000000002 238.60399999999998,93.81069000000002 C 239.30389,93.23750000000003 240.00241999999997,92.73936000000002 240.94666999999998,91.68402000000002 C 241.33822999999998,91.24641000000001 241.76887,90.52202000000001 242.54265999999998,89.57886000000002 C 242.98746999999997,89.03669000000002 243.49557,88.51653000000002 244.23199,87.76936000000002 C 244.85311,87.13918000000002 245.6273,86.41719000000002 245.91732,85.51736000000002 C 246.12333999999998,84.87812000000002 246.81486999999998,83.78645000000003 247.432,84.17336000000003 C 248.25918,84.69196000000004 247.68838,85.85498000000003 247.13867,86.38536000000003 C 246.50661,86.99519000000004 245.85876,87.75705000000004 245.52083,88.52087000000003 C 245.17362,89.30568000000002 244.82617,90.32864000000004 244.47916999999998,90.97920000000003 C 244.1409,91.61340000000004 243.52661999999998,92.41093000000004 242.97916999999998,93.00004000000004 C 242.41085999999999,93.61160000000004 241.59143999999998,94.39321000000004 240.99999999999997,95.02088000000005 C 240.59405999999998,95.45168000000005 239.79999999999998,96.42120000000004 239.39998999999997,96.94821000000005 C 238.79997999999998,97.73871000000004 238.44959999999998,98.28351000000005 237.59999999999997,99.03204000000005 C 236.84119999999996,99.70060000000005 235.98413999999997,100.31936000000005 235.60132999999996,100.76804000000006 C 234.99494999999996,101.47875000000006 234.50046999999995,102.24365000000006 233.88532999999995,103.03071000000006 C 233.42188999999996,103.62367000000006 232.81066999999996,104.49272000000006 232.47916999999995,105.02088000000006 C 231.85559999999995,106.01437000000006 231.30501999999996,106.57082000000007 230.86132999999995,107.23604000000006 C 230.26759999999996,108.12621000000006 230.11225999999996,108.94859000000005 229.98533999999995,109.73871000000005 C 229.83618999999996,110.66717000000006 229.45170999999996,111.51286000000006 229.02799999999996,111.96804000000006 C 228.25841999999997,112.79478000000006 227.72542999999996,113.24406000000006 227.28666999999996,113.82137000000006 C 226.42921999999996,114.94959000000006 226.21819999999997,115.58916000000006 226.04166999999995,116.45837000000006 C 225.88628999999995,117.22350000000006 225.61928999999995,118.18164000000006 225.19866999999996,118.96804000000006 C 224.77736999999996,119.75568000000005 224.49538999999996,120.49234000000006 224.28533999999996,121.23204000000005 C 223.97693999999996,122.31803000000005 223.54044999999996,123.07779000000005 222.81466999999995,123.63604000000005 C 222.15077999999994,124.14668000000005 221.65200999999996,124.83571000000005 221.20133999999996,125.51604000000005 C 220.63062999999997,126.37760000000004 220.37954999999997,127.34716000000004 219.66666999999995,127.83338000000005 C 218.95108999999997,128.32144000000005 217.88532999999995,128.00004000000004 216.99999999999994,128.00004000000004 C 216.24282999999994,128.00004000000004 215.17466999999994,128.00004000000004 214.48398999999995,128.00004000000004 C 213.47916999999995,128.00004000000004 212.45687999999996,128.01672000000005 211.74932999999996,127.98937000000004 C 211.00443999999996,127.96058000000004 210.00501999999994,127.64829000000003 209.20266999999996,127.28403000000003 C 208.35789999999994,126.90052000000003 207.45733999999996,126.77870000000003 206.74932999999996,126.57470000000004 L 206.00533999999996,126.35270000000004" fill="none" id="svg_1" stroke="#000" stroke-width="2"/>
	<path d="M 213.0,115.0 C 207.85733,112.256 207.0847,112.03127 206.0215,112.0 C 205.30481,111.97893 204.39999,112.0 203.47917,112.0 C 202.51466000000002,112.0 201.78900000000002,111.97464 200.8,112.00034 C 199.9992,112.02114999999999 198.97096000000002,112.29092 198.40449,112.70984 C 197.61235000000002,113.29565 197.02149,113.97851 196.41065,114.58933999999999 C 195.69549,115.30449999999999 195.24282,115.75716999999999 194.51465000000002,116.48534 C 193.97916,117.02083999999999 193.38580000000002,117.58873 192.60265,118.40001 C 192.03215,118.99098 191.47991000000002,119.56259 191.10532,120.60001 C 190.82436,121.37812 190.58016,122.21674 190.13866000000002,122.80001 C 189.51426,123.62492 188.84575,124.37624 188.54166,124.97917 C 188.0533,125.94743 187.99288,126.82213 187.71332,127.768 C 187.49362000000002,128.51135 187.18082,129.28702 186.51732,130.032 C 186.06352,130.54152000000002 185.27797,131.31739000000002 185.10982,132.00534000000002 C 184.87195000000003,132.97855 184.79645000000002,133.86639000000002 184.38932000000003,134.65066000000002 C 183.92059000000003,135.55357 183.58457,136.24229000000003 183.35715000000002,136.99465 C 183.04666000000003,138.0218 182.92731,138.82387 182.43199,139.76932 C 182.16867000000002,140.27194 181.61,141.01403 181.24298000000002,142.07864999999998 C 181.00938000000002,142.75623 181.00265000000002,143.68399999999997 180.99998000000002,144.68265 L 180.99998000000002,145.47916 L 180.99998000000002,146.23066" fill="none" id="svg_2" stroke="#000" stroke-width="2"/>
	<path d="M 213.0,115.0 C 206.40767,111.486 205.39841,111.08738 204.67967,111.018 C 203.63006,110.91668 202.67849999999999,111.0 201.97916999999998,111.0 C 200.99999999999997,111.0 200.2,111.0 199.39998999999997,111.0 C 198.40448999999998,111.0 197.48532999999998,110.99738 196.52082,111.0 C 195.69097,111.00225 194.65795,111.13882 193.99464999999998,111.36166 C 193.23942999999997,111.6154 192.30461999999997,112.13816 191.65066,112.82533 C 191.17282999999998,113.32741999999999 190.47697,114.01889999999999 189.72798999999998,114.36399999999999 C 188.91035999999997,114.74072999999999 187.99245999999997,114.97878999999999 187.10898999999998,115.30449999999999 C 186.26430999999997,115.6159 185.69727999999998,115.80114999999999 184.80531999999997,116.65266999999999 C 184.30397999999997,117.13127999999999 183.46135999999996,117.98578999999998 182.99464999999998,118.25183999999999 C 182.25687,118.67241999999999 181.29342999999997,119.30382999999999 180.80531999999997,120.00533999999999 C 180.30691999999996,120.72162999999999 180.11374999999995,121.32314 179.23198999999997,122.032 C 178.55484999999996,122.57636 177.67110999999997,122.88194 176.97066999999996,123.768 C 176.61865999999995,124.21327 176.38790999999995,125.03736 175.79865999999996,126.032 C 175.41327999999996,126.68251 174.67289999999994,127.53878999999999 174.34733999999995,128.00983 C 173.81582999999995,128.77885999999998 173.15899999999993,129.82891999999998 172.88532999999995,130.31467 C 172.39684999999994,131.18169 172.00001999999995,132.0 171.58933999999996,132.82134000000002 C 171.24283999999997,133.51433000000003 170.83333999999996,134.33333000000002 170.51600999999997,134.96801000000002 C 170.00001999999998,136.00001000000003 169.65222999999997,136.69445000000002 169.16667999999996,137.66668 C 168.88507999999996,138.23054000000002 168.49246999999997,138.96714 168.00000999999995,140.16668 C 167.78906999999995,140.68047 167.48515999999995,141.51206000000002 167.28534999999994,142.40134 C 167.08510999999993,143.29250000000002 167.08502999999993,144.20259000000001 166.89017999999993,145.04283 C 166.64438999999993,146.10269 166.10279999999992,146.74637 165.70534999999992,147.45267 C 165.17896999999994,148.38809 165.05124999999992,149.2238 165.02133999999992,149.77468000000002 C 164.9506499999999,151.07677 164.9893399999999,151.76401 164.91467999999992,152.59867000000003 L 164.64734999999993,153.59551000000002 L 164.35266999999993,154.34284000000002 L 164.05267999999992,155.23833000000002" fill="none" id="svg_3" stroke="#000" stroke-width="2"/>
</svg>
