<?xml version="1.0" ?>
<svg baseProfile="full" height="480" version="1.1" width="640" xmlns="http://www.w3.org/2000/svg" xmlns:ev="http://www.w3.org/2001/xml-events" xmlns:xlink="http://www.w3.org/1999/xlink">
	<defs/>
	<path d="M 252.0,158.0 C 239.16667,158.0 238.15082999999998,158.0 237.2,158.0 C 236.30918,158.0 235.47332999999998,158.0 234.6875,158.0 C 233.94667,158.0 233.24583,158.0 232.58,158.0 C 230.74283000000003,158.0 230.16932,158.0 229.06134,158.0 C 228.52083,158.0 227.45183,158.0 226.91733,158.0 C 225.27966999999998,158.0 224.724,158.0 223.63867,158.0 C 223.125,158.0 221.02418,156.75687 220.95032999999998,158.0 C 220.93989,158.1756 222.00068,158.16269 222.70932999999997,158.28667 C 223.59554999999997,158.4417 224.59294999999997,158.64237999999997 225.11266999999998,158.76167999999998 C 225.63833999999997,158.88234999999997 227.16159,159.30911999999998 228.09015999999997,159.65266999999997 C 228.54088999999996,159.81942999999998 229.40962999999996,160.18774999999997 230.28265999999996,160.51600999999997 C 231.16179999999997,160.84657999999996 232.08247999999998,161.12574999999995 233.03598999999997,161.36399999999998 C 233.51944999999998,161.48479999999998 234.50417999999996,161.69701999999998 235.00131999999996,161.79865999999998 C 236.49855999999997,162.10476999999997 237.48768999999996,162.29915999999997 237.96798999999996,162.41065999999998 C 238.89442999999997,162.62572999999998 239.77464999999995,162.81527999999997 240.83514999999997,163.32116999999997 C 241.43951999999996,163.60946999999996 242.10595999999998,164.54919999999996 242.98132999999996,164.92799999999997 C 243.76603999999995,165.26756999999998 244.75882999999996,165.00000999999997 245.47915999999995,165.00000999999997 L 246.17948999999996,165.00000999999997 L 247.37197999999995,165.00000999999997" fill="none" id="svg_1" stroke="#000" stroke-width="2"/>
	<path d="M 253.0,156.0 C 263.16666,145.33333 263.98404,144.56165 264.77734,143.88266 C 265.51941,143.24754 266.24401,142.677 266.95833999999996,142.16666999999998 C 267.64712,141.67459999999997 268.34142999999995,141.22324999999998 269.04934,140.81067 C 270.4851,139.97388999999998 271.26101,139.5938 272.05465,139.20399999999998 C 272.86366999999996,138.80665 273.69381,138.42388999999997 274.54165,138.06250999999997 C 275.39254,137.69982 276.25063,137.35541999999998 277.11865,137.05601 C 278.82269,136.46821 279.67639,136.25433999999998 280.51733,136.05468 C 281.34954,135.85709 282.18435,135.69208999999998 283.02084,135.54167999999999 C 283.86038,135.39072 284.70993000000004,135.25700999999998 285.56933000000004,135.11867999999998 C 287.33355000000006,134.83469999999997 288.24252,134.67914 289.16665000000006,134.51867 C 290.10085000000004,134.35646999999997 291.03927000000004,134.19151 291.97915000000006,134.04167999999999 C 292.91262000000006,133.89288 293.8356600000001,133.75110999999998 294.74667000000005,133.65466999999998 C 296.49704,133.46939999999998 297.33603000000005,133.45057999999997 298.14801000000006,133.45866999999998 C 298.94226000000003,133.46657 299.72528000000005,133.517 300.50000000000006,133.60417999999999 C 301.27750000000003,133.69165999999998 302.0604200000001,133.81538999999998 302.85199000000006,133.97467999999998 C 304.50543000000005,134.30739999999997 305.3667300000001,134.53588 306.25732000000005,134.77600999999999 C 307.17819000000003,135.02429999999998 308.12204,135.30429999999998 309.0833400000001,135.62500999999997 C 310.07159000000007,135.95471999999998 311.0786700000001,136.31816999999998 312.0893200000001,136.74400999999997 C 314.1839900000001,137.62658999999996 315.2270500000001,138.17381999999998 316.2786500000001,138.74000999999998 C 317.3412400000001,139.31211 318.3887900000001,139.92336999999998 319.41665000000006,140.56249999999997 C 320.43682000000007,141.19683999999998 321.42825000000005,141.84713999999997 322.37466000000006,142.51999999999998 C 324.18539000000004,143.80738 324.9998100000001,144.46997 325.7733400000001,145.11733999999998 C 326.5213300000001,145.74335 327.22726000000006,146.37767 327.8958400000001,147.02083 C 328.55392000000006,147.65389 329.1864300000001,148.30160999999998 329.7933300000001,148.96932999999999 C 331.0182400000001,150.31697 331.60379000000006,151.03929 332.1973200000001,151.76800999999998 C 332.7951300000001,152.50196999999997 333.3786600000001,153.25068 333.9583400000001,153.99999999999997 L 334.52801000000005,154.74932999999996 L 335.0856600000001,155.49465999999995 L 335.6293300000001,156.23199999999994" fill="none" id="svg_2" stroke="#000" stroke-width="2"/>
	<path d="M 245.0,175.0 C 245.66417,185.5495 245.83163,186.21071 246.0625,186.79984 C 246.48196,187.87023 246.76387,188.32323 247.23334,189.19068 C 247.67029,189.99804999999998 248.06319,190.79253 248.31734,191.63200999999998 C 248.57942,192.49772 248.67136,192.96707999999998 248.83333,194.50000999999997 C 248.89282,195.06305999999998 248.95383999999999,196.26717999999997 248.99599999999998,196.89734999999996 C 249.03911999999997,197.54184999999995 249.05371999999997,198.20192999999995 249.25466999999998,199.51866999999996 C 249.45644,200.84071999999995 249.65507999999997,201.48097999999996 249.85065999999998,202.11333999999997 C 250.04483,202.74108999999996 250.48304999999996,203.95699999999997 250.688,204.55333999999996 C 250.88861999999997,205.13704999999996 251.35788,206.83025999999995 251.41416999999998,207.37883999999997 C 251.5239,208.44798999999998 251.48298999999997,208.98657999999998 251.39333,210.06134999999998 C 251.34751,210.61060999999998 251.25173999999998,211.16702999999998 251.12151,212.94350999999997 C 251.07529,213.57401999999996 251.05391,214.22775 251.036,214.90401999999997 C 251.01746,215.60410999999996 251.00663,216.32932999999997 251.00133,217.85868999999997 C 250.99564999999998,219.49999999999997 251.0,220.36384999999996 251.0,221.25068999999996 C 251.0,222.15351999999996 251.0,223.06535999999997 251.0,223.97918999999996 C 251.0,224.88801999999995 251.0,225.78484999999995 251.0,226.66268999999997 C 251.0,228.33333999999996 250.9982,229.11402999999996 251.00267,229.85868999999997 C 251.00696,230.57136999999997 251.01587,231.25620999999995 251.04166999999998,231.91668999999996 C 251.06670999999997,232.55756999999997 251.10134999999997,233.18334999999996 251.17066999999997,233.79467999999997 C 251.30771,235.00318999999996 251.41591999999997,235.60744999999997 251.72782999999998,236.81800999999996 C 251.88976999999997,237.44652999999997 252.09653999999998,238.08599999999996 252.32932999999997,238.74401999999995 C 252.57255999999998,239.43154999999996 252.84292999999997,240.14805999999996 253.49999999999997,241.66668999999996 C 253.85567999999998,242.48873999999995 254.24918999999997,243.33529999999996 254.66250999999997,244.20167999999995 C 255.08248999999998,245.08203999999995 255.51673999999997,245.96041999999994 255.96000999999998,246.82667999999995 C 256.39518,247.67707999999996 256.81701999999996,248.50248999999997 257.66666,250.00001999999995 C 258.05001999999996,250.67571999999996 258.42724999999996,251.29502999999994 258.79467999999997,251.87051999999994 C 259.14480999999995,252.41891999999993 259.49726,252.93943999999993 259.85067999999995,253.44401999999994 C 260.20260999999994,253.94644999999994 260.56838999999997,254.44773999999992 261.33334999999994,255.50001999999995 C 261.74337999999995,256.06404999999995 262.17010999999997,256.65473999999995 262.6188399999999,257.26252999999997 C 263.0807199999999,257.88811 263.55819999999994,258.52421999999996 264.05734999999993,259.16002 C 264.5618399999999,259.8026 265.0656199999999,260.45329 266.1666599999999,261.66666999999995 C 266.7120999999999,262.26773999999995 267.2890999999999,262.84349 267.8976799999999,263.40367 C 268.52368999999993,263.97987 269.20138999999995,264.55046 269.9346699999999,265.12269 C 270.7117399999999,265.72909999999996 271.55578999999994,266.35859 273.5000099999999,267.66666999999995 C 274.5845699999999,268.39637999999997 275.7538899999999,269.1381099999999 276.9740099999999,269.90617 C 278.2258099999999,270.69419 279.4993399999999,271.48024 280.7720099999999,272.26268 C 282.0253699999999,273.03325 283.2471399999999,273.77353999999997 285.5000099999999,275.16667 C 286.5089499999999,275.79057 287.4398299999999,276.3763 288.3125099999999,276.92317 C 289.13983999999994,277.44163000000003 289.9357099999999,277.94044 290.72000999999995,278.41868000000005 C 291.50073999999995,278.89475000000004 292.29205999999994,279.37806000000006 294.0000099999999,280.33335000000005 C 294.9239599999999,280.85013000000004 295.90347999999994,281.3702200000001 296.9205099999999,281.90085000000005 C 297.9607899999999,282.4436400000001 299.01944999999995,282.98197000000005 300.0840199999999,283.51334 C 301.1397799999999,284.04032 302.1772799999999,284.55515 304.1666599999999,285.5 C 305.0923199999999,285.93964 305.9837399999999,286.35202 306.8591599999999,286.733 C 307.7238099999999,287.10928 308.6007699999999,287.46731 309.5066499999999,287.80398 C 310.44573999999994,288.15301000000005 311.4390199999999,288.50659 313.66664999999995,289.16665 C 314.91020999999995,289.53515 316.24602999999996,289.88897000000003 317.65364999999997,290.24365 C 319.11535,290.61194 320.62316,290.96664 322.16265,291.30267 C 323.71452999999997,291.64137999999997 325.26617,291.97844999999995 328.33333,292.5 C 329.8112,292.75131 331.25606,292.95273 332.66683,293.12399 C 334.04415,293.2912 335.39516000000003,293.4248 336.72133,293.53201 C 338.02422,293.63733 339.30861000000004,293.72619000000003 341.83333000000005,293.83334 C 343.07836000000003,293.88617 344.31593000000004,293.91815 345.54732000000007,293.94284000000005 C 346.77458000000007,293.96744000000007 347.9999900000001,293.98114000000004 349.22533000000004,293.98932 C 350.45266000000004,293.9975 351.68398,293.99933000000004 354.16664000000003,294.0 C 355.42198,294.00034 356.68931000000003,294.0 357.97066,294.0 C 359.26799,294.0 360.58333,294.0 361.91866,294.0 L 363.27599,294.0 L 364.65734,294.0" fill="none" id="svg_3" stroke="#000" stroke-width="2"/>
</svg>
