<?xml version="1.0" ?>
<svg baseProfile="full" height="480" version="1.1" width="640" xmlns="http://www.w3.org/2000/svg" xmlns:ev="http://www.w3.org/2001/xml-events" xmlns:xlink="http://www.w3.org/1999/xlink">
	<defs/>
	<path d="M 303.0,204.0 C 306.51401,212.12801 306.93723,213.10258 307.0,214.0 C 307.03537,214.50554 306.8403,213.66469 306.57468,212.74933 C 306.35831,212.00367999999997 306.14807,211.13737999999998 305.94733,210.19466999999997 C 305.74073000000004,209.22444 305.48621,208.46674999999996 305.23835,207.94815999999997 C 304.73399,206.89291999999998 304.14112,206.23767999999998 303.65269,205.49016999999998 C 303.12965,204.68965999999998 302.86772,204.03677 302.636,203.33866999999998 C 302.27696000000003,202.25692999999998 302.00963,201.16375999999997 301.79869,200.48665999999997 C 301.5984,199.84375999999997 301.30348000000004,198.92641999999998 300.67869,197.92131999999998 C 300.37568000000005,197.43385999999998 299.76042,196.81691999999998 299.16667,195.83332 C 298.70454,195.06772999999998 298.50068,194.4649 298.20134,193.51333 C 297.87791000000004,192.4853 297.70464000000004,191.74462 297.47917,190.99999 C 297.25203,190.24982 296.85136,189.15796 296.516,188.48665 C 296.19184,187.83778999999998 295.64152,186.96839 295.16667,186.16666 C 294.74724000000003,185.45845 294.28935,184.55352000000002 293.89985,183.57849000000002 C 293.68717000000004,183.04607000000001 293.38285,182.18101000000001 293.11466,181.59865000000002 C 292.55472000000003,180.38274 292.17566,179.81003 291.65268000000003,178.95716000000002 C 291.16760000000005,178.16608000000002 290.7363,177.46293000000003 290.41068,176.77466 C 289.97144000000003,175.8463 289.70786000000004,175.03792 289.36402000000004,174.18932 C 289.12327000000005,173.5951 288.52128000000005,172.40039000000002 288.18534000000005,171.82132000000001 C 287.71531000000004,171.01111 287.20847000000003,170.15300000000002 286.98533000000003,169.34932 C 286.74033000000003,168.46704 286.60096000000004,167.73491 286.29551000000004,167.00533000000001 C 285.85133,165.94439000000003 285.34895000000006,165.36072000000001 284.67869,164.45733 C 284.33961,164.00028 283.84965,163.23272 283.16667,162.33332000000001 C 282.65388,161.65804000000003 281.88765,161.08414000000002 281.43602,160.36399 C 280.94795,159.58572 281.12297,158.6992 280.43068,157.88532 C 279.9268,157.29297 278.95757,156.96496000000002 278.41069,156.36399 C 277.70756,155.59133 277.48003,154.70124 276.67885,154.24282 C 275.93492000000003,153.81716 275.21221,153.55059 274.55718,152.89982 C 274.05004,152.39597 273.16503,151.83468 272.62536,151.18533 C 272.11447,150.57061 271.32971,150.17654 270.48403,149.91732 C 269.5906,149.64346999999998 268.66997000000003,149.14524 267.99468,149.05266999999998 C 267.25356,148.95105999999998 266.15160000000003,148.76059999999998 265.42135,148.42533999999998 C 264.48953,147.99750999999998 263.65341,148.14636 262.82537,147.92799999999997 C 261.96917,147.70219999999998 261.58846,146.83819999999997 260.66668000000004,146.33332999999996 C 260.04678000000007,145.99380999999997 259.00539000000003,146.00449999999995 257.9707,145.99999999999997 C 257.20269,145.99665999999996 256.32803,145.99999999999997 255.45736000000002,145.99999999999997 C 254.50002000000003,145.99999999999997 253.76803,145.99999999999997 252.65069000000003,145.99999999999997 C 251.66670000000002,145.99999999999997 250.99468000000002,145.99999999999997 250.25070000000002,145.99999999999997 C 249.14287000000002,145.99999999999997 248.25186000000002,145.99999999999997 247.34286000000003,145.99999999999997 C 246.59553000000002,145.99999999999997 245.60003000000003,145.99999999999997 244.80003000000002,145.99999999999997 C 243.80003000000002,145.99999999999997 243.00003,145.99999999999997 242.00003,145.99999999999997 C 241.20003,145.99999999999997 240.40002,145.99999999999997 239.40002,145.99999999999997 C 238.60003,145.99999999999997 237.60003,145.99999999999997 236.80003000000002,145.99999999999997 C 235.80020000000002,145.99999999999997 235.01561,145.89802999999998 234.02153,146.00033999999997 C 233.18826,146.08608999999996 232.68216,146.94082999999998 232.1147,147.43200999999996 C 231.44189,148.01437999999996 230.33588,148.16833999999997 229.91736,148.80132999999995 C 229.4404,149.52273999999994 228.66597000000002,150.16567999999995 227.99919,150.65265999999994 C 227.28592,151.17359999999994 226.44456,151.79733999999993 226.0417,152.47916999999995 C 225.57541,153.26834999999994 225.15635,153.85965999999996 224.70453,154.65265999999994 C 224.32004,155.32747999999995 224.1505,156.54195999999993 223.43204,156.91599999999994 C 222.65131,157.32244999999995 222.05361,157.67193999999995 221.71469,158.48266999999993 C 221.36378,159.32206999999994 220.35896,159.76417999999993 220.02086,160.52082999999993 C 219.66612,161.31469999999993 219.30504,161.65278999999992 218.56802,162.16932999999995 C 217.86569,162.66155999999995 217.83987,163.83672999999993 217.50002999999998,164.47916999999995 C 217.06106999999997,165.30898999999997 216.83335999999997,166.16666999999995 216.50002999999998,166.99999999999994 C 216.1667,167.83332999999993 215.9091,168.68352999999993 215.14936999999998,168.97466999999995 C 214.18973999999997,169.34240999999994 213.64431999999996,169.97139999999996 212.79868999999997,169.99999999999994 C 211.83390999999997,170.03261999999995 211.00002999999995,169.99999999999994 210.16669999999996,169.99999999999994 C 209.30452999999997,169.99999999999994 208.36402999999996,169.99999999999994 207.51602999999997,169.99999999999994 C 206.65268999999998,169.99999999999994 205.63602999999998,169.99999999999994 204.79735999999997,169.99999999999994 C 204.02934999999997,169.99999999999994 202.99468999999996,169.99999999999994 202.25069999999997,169.99999999999994 C 201.14269999999996,169.99999999999994 200.34935999999996,169.99999999999994 199.45736999999997,169.99999999999994 C 198.74935999999997,169.99999999999994 197.76803999999996,169.99999999999994 196.81435999999997,169.99999999999994 C 195.89969999999997,169.99999999999994 195.18569999999997,169.99999999999994 194.22936999999996,169.99999999999994 C 193.45835999999997,169.99999999999994 192.59736999999996,169.99999999999994 191.40136999999996,169.99999999999994 C 190.81069999999997,169.99999999999994 189.95719999999994,169.99999999999994 188.92135999999996,169.99999999999994 C 188.00002999999995,169.99999999999994 187.31602999999996,169.99999999999994 186.31469999999996,169.99999999999994 C 185.47920999999997,169.99999999999994 184.59869999999995,169.99999999999994 183.40136999999996,169.99999999999994 C 182.81069999999997,169.99999999999994 181.95719999999994,169.99999999999994 180.92152999999996,169.99999999999994 C 180.02085999999997,169.99999999999994 179.00003999999996,169.99999999999994 178.20002999999997,169.99999999999994 C 177.40002999999996,169.99999999999994 176.39552999999998,169.99999999999994 175.54285999999996,169.99999999999994 C 174.57853999999998,169.99999999999994 173.76403999999997,169.99999999999994 172.89551999999998,169.99999999999994 C 172.00002999999998,169.99999999999994 171.10902,169.99999999999994 170.27202999999997,169.99999999999994 C 169.14269999999996,169.99999999999994 168.34935999999996,169.99999999999994 167.45735999999997,169.99999999999994 C 166.74934999999996,169.99999999999994 165.76802999999995,169.99999999999994 164.81434999999996,169.99999999999994 C 163.90034999999997,169.99999999999994 163.60812999999996,169.98688999999993 164.54318999999995,170.44283999999993 C 165.03348999999994,170.68190999999993 165.84694999999996,171.20591999999994 166.48802999999995,171.51732999999993 C 167.50572999999994,172.01167999999993 168.24612999999997,172.24930999999992 168.97919999999996,172.47916999999993 C 170.02782999999997,172.80796999999993 170.96958999999995,173.07064999999992 171.73868999999996,173.41065999999992 C 172.46086999999997,173.72991999999994 173.42069999999995,174.32267999999993 173.95719999999997,174.6526599999999 C 174.80938999999998,175.1767999999999 175.39072999999996,175.5372399999999 176.29986999999997,175.9788299999999 C 177.17956999999998,176.4061199999999 177.82572999999996,176.5719199999999 178.83335999999997,177.3333199999999 C 179.35158999999996,177.7249199999999 179.97530999999998,178.5238099999999 180.45269999999996,178.9946499999999 C 181.37612999999996,179.90542999999988 181.94270999999998,180.2187899999999 182.81069999999997,180.5786599999999 C 183.39251999999996,180.8198899999999 184.60389999999998,181.1839899999999 185.17869999999996,181.4106499999999 C 185.99572999999995,181.7328199999999 186.92292999999995,182.2698399999999 187.45835999999997,183.0208199999999 C 187.84861999999998,183.5681799999999 188.19115999999997,184.67979999999991 188.75719999999998,185.2856499999999 C 189.37721,185.94928999999988 190.49423,185.9699499999999 190.93868999999998,186.8613199999999 C 191.23838999999998,187.4623599999999 191.45498999999998,188.5846299999999 192.30452999999997,188.9473199999999 C 193.12271999999996,189.2966199999999 193.88336999999999,189.36667999999992 194.51602999999997,189.8866699999999 C 195.32927999999998,190.5550799999999 195.57228999999998,191.4599999999999 196.41067999999999,191.93865999999989 C 197.23875999999998,192.41141999999988 197.99185999999997,192.52180999999987 198.97834999999998,192.87865999999988 C 199.82673999999997,193.1855599999999 200.21770999999998,193.9147799999999 201.16669,193.9999999999999 C 201.97699,194.07276999999988 202.6948,194.46863999999988 203.01468,195.14933999999988 C 203.42355,196.01939999999988 204.01357,196.59185999999988 204.70451,197.0526799999999 C 205.46666,197.56096999999988 205.71536,198.3758499999999 206.06135,199.1386799999999 C 206.41561000000002,199.9197499999999 207.52432000000002,200.00314999999992 208.04818,200.7045099999999 C 208.5303,201.3499899999999 209.03985,202.14470999999992 209.38934,202.82533999999993 C 209.89247,203.80516999999992 209.72839,204.64332999999993 210.04168,205.50000999999992 C 210.34284000000002,206.32352999999992 211.33939,206.51346999999993 211.83068,207.48399999999992 C 212.15349,208.12170999999992 212.34771,209.07837999999992 212.71601,209.79866999999993 C 213.16543000000001,210.67758999999992 213.7828,211.34915999999993 214.02083000000002,212.02083999999994 C 214.37039000000001,213.00719999999993 215.16422000000003,213.32085999999993 215.75717000000003,214.10018999999994 C 216.19227000000004,214.67203999999995 216.38748000000004,215.63891999999993 216.64734000000004,216.34734999999995 C 217.01404000000005,217.34705999999994 217.00000000000003,218.30451999999994 217.00000000000003,219.16668999999996 C 217.00000000000003,220.00001999999995 216.65211000000002,221.13050999999996 217.16667000000004,221.83334999999997 C 217.64584000000005,222.48784999999998 218.13431000000003,222.91243999999998 218.70534000000004,223.65268999999998 C 219.26175000000003,224.37399999999997 219.91435000000004,225.10368999999997 220.00000000000003,226.10019999999997 C 220.06723000000002,226.88246999999998 219.98842000000002,227.82544999999996 220.00000000000003,228.51602999999997 C 220.01801000000003,229.58981999999997 220.40411000000003,230.27142999999998 221.00000000000003,231.16669999999996 C 221.42393000000004,231.80362999999997 221.55585000000002,232.58185999999995 222.02083000000002,233.47919999999996 C 222.43768000000003,234.28365999999997 223.31755,234.52460999999997 223.83200000000002,235.48401999999996 C 224.17436000000004,236.12247999999997 224.44299,236.97852999999995 225.04167,237.47919999999996 L 226.0,238.00002999999995 L 226.8,238.41068999999996 L 227.39999,238.75719999999995" fill="none" id="svg_1" stroke="#000" stroke-width="2"/>
	<path d="M 242.0,176.0 C 237.43066,177.76933 237.00429,178.55782 237.26266,179.31734 C 237.63523,180.41252 238.49871000000002,180.97057 238.99916000000002,181.28118 C 239.99264000000002,181.89780000000002 240.80530000000002,181.9955 241.76933000000002,182.00001 C 242.52081,182.00352 243.31733000000003,182.00001 244.31599000000003,182.00001 C 245.22532000000004,182.00001 246.16684000000004,182.01234 246.95716000000002,181.99551 C 247.81104000000002,181.97732 249.00457000000003,181.85443 249.59733000000003,181.71466999999998 C 250.46612000000002,181.50984 251.35078000000001,181.37959999999998 252.18116000000003,180.69099999999997 C 252.83414000000005,180.14950999999996 252.93813000000003,179.23094999999998 252.97916000000004,178.45832999999996 C 253.02483000000004,177.59832999999995 252.99999000000003,176.40266999999997 252.99999000000003,175.54166999999995 C 252.99999000000003,174.77065999999996 253.00165,173.80532999999994 252.99999000000003,173.03199999999995 C 252.99773000000002,171.99017999999995 253.03913000000003,171.20252999999997 252.83332000000001,170.16666999999995 C 252.68993,169.44495999999995 252.28489000000002,168.56998999999996 251.67849,167.80033999999995 C 251.19914,167.19192999999996 250.66438000000002,166.56246999999996 249.59866000000002,166.17066999999994 C 249.00474000000003,165.95232999999993 247.83332000000001,165.99999999999994 247.04283000000004,165.99999999999994 C 246.18933000000004,165.99999999999994 245.59866000000002,165.99999999999994 244.40266000000003,165.99999999999994 C 243.54167000000004,165.99999999999994 242.77066000000002,165.99999999999994 241.67199000000002,165.99999999999994 C 240.79865,165.99999999999994 239.83332000000001,165.99999999999994 238.99999000000003,165.99999999999994 C 238.16666000000004,165.99999999999994 237.18871000000001,166.40227999999993 237.56249000000003,166.99999999999994 C 238.13080000000002,167.90879999999996 238.99932,167.97915999999995 239.97849000000002,167.99999999999994 C 240.79847,168.01745999999994 241.68058000000002,167.99947999999995 242.54265,168.22149999999993 C 243.25907,168.40598999999995 244.05828,168.58952999999994 245.03066,169.20266999999993 C 245.6644,169.60227999999992 246.34406,170.5280199999999 246.81466,171.27200999999994 C 247.15559,171.81099999999995 247.70191,172.99150999999995 247.82932,173.59733999999995 C 248.0085,174.44929999999994 247.99865,175.22933999999995 247.99999,176.32800999999995 C 248.00106,177.20134999999996 248.11861,178.18116999999995 247.95832,179.00000999999995 C 247.78869999999998,179.86644999999996 247.13866,180.35333999999995 246.16665999999998,180.83333999999994 L 245.41064999999998,180.98934999999994" fill="none" id="svg_2" stroke="#000" stroke-width="2"/>
	<path d="M 305.0,211.0 C 309.86133,214.028 310.60019,214.63608 311.54251,214.87883 C 312.22577,215.05483999999998 313.32635,214.99704 313.83301,215.70534 C 314.42502,216.53299 314.7732,217.01634 315.65268,217.35266000000001 C 316.35745,217.62218000000001 317.36449999999996,217.96120000000002 318.0,218.50000000000003 C 318.55161,218.96768000000003 319.48401,218.99564000000004 320.34732,219.00000000000003 C 321.23837000000003,219.00450000000004 321.74643000000003,219.62164000000004 322.05267000000003,220.29466000000002 C 322.45022000000006,221.16836000000004 323.14111,221.83644 324.02084,221.97917 C 324.96634,222.13257000000002 325.68460000000005,222.07811 326.52084,222.5 C 327.31152000000003,222.8989 328.255,222.92479 328.97882000000004,223.44267 C 329.61108,223.89505 330.31796,224.71936 331.00082000000003,224.89015999999998 C 331.92233000000004,225.12066 332.71533000000005,225.43196999999998 333.28534,226.19866 C 333.72073,226.78426 334.63947,226.92274999999998 335.65268000000003,227.00898999999998 C 336.35272000000003,227.06857999999997 337.19507000000004,227.74528999999998 337.69550000000004,228.29465 C 338.33298,228.99447999999998 338.87977000000006,229.72573 339.64667000000003,229.98932 C 340.43735000000004,230.26108 341.22867,230.14601 342.04816000000005,230.64731999999998 C 342.75711000000007,231.08101999999997 343.68653000000006,230.99441 344.48401000000007,231.56931999999998 C 345.04019000000005,231.97027999999997 345.79453000000007,232.87613 346.36401000000006,233.35331999999997 C 347.0571300000001,233.93409999999997 347.88534000000004,233.99931999999995 348.82534000000004,233.99998999999997 C 349.83334,234.00070999999997 350.59975000000003,234.01466999999997 351.41067000000004,234.42532999999997 C 352.17706000000004,234.81343999999999 353.22219,234.75958999999997 353.83065000000005,235.56932999999998 C 354.21685,236.08328999999998 354.22259,237.42969999999997 354.99999,237.83332 C 355.68722,238.19012999999998 356.67321000000004,237.88145999999998 357.51598,238.08532 C 358.40401,238.30013 359.23922,238.83183 359.88533,239.16932 C 360.71498,239.60268 361.27507,240.41734 362.11732,240.83067 C 362.76893,241.15045 363.7747,241.26541 364.49998,241.52083 C 365.23936,241.78121 366.1967,242.30176 366.80531,242.75717 C 367.7726,243.48099 368.26924,243.82512 369.0518,244.40449 C 369.84147,244.98913000000002 370.54658,245.60082 370.99998,245.99999 C 371.68287,246.60123 372.41581,247.20708 373.21464,247.78933 C 373.73521,248.16876000000002 374.70484,248.78983 375.33862999999997,249.38532 C 375.92029999999994,249.93183000000002 376.47509999999994,250.77926 376.85731,251.26133000000002 C 377.49769,252.06904 378.31946999999997,252.85212 378.96797,253.31599000000003 C 379.63692,253.79448000000002 380.36854,254.19792000000004 381.032,254.68400000000003 C 381.98638,255.38323000000003 382.50084,255.94807000000003 382.97914,256.52084 C 383.45905999999997,257.09558000000004 384.15583999999996,258.00955000000005 384.68532,258.59866 C 385.22515,259.19925 385.7983,259.77758 386.40132,260.31466 C 387.28203,261.09905 387.92332,261.51531 388.72798,262.26132 C 389.25139,262.74658 389.8716,263.63559000000004 390.19914,264.30533 C 390.53547,264.99304 390.77073,265.76148 391.49998,266.66666000000004 C 391.99449,267.28049000000004 392.67643,267.72736000000003 393.32399,268.17868000000004 C 394.50077999999996,268.99884000000003 394.9709,269.38129000000004 395.47914,270.02084 C 395.9919,270.66607000000005 396.76036,271.69369 397.27198999999996,272.22534 C 397.81068999999997,272.78509 398.38834999999995,273.33316 399.29981999999995,274.07867000000005 C 399.88649,274.55853 400.49665999999996,274.97903 401.04283,275.45266000000004 C 402.11433,276.38183000000004 402.55852,276.95019 402.97914,277.54165000000006 C 403.41193999999996,278.15026000000006 404.00496,279.16390000000007 404.39997999999997,279.88400000000007 C 404.8051,280.6225600000001 405.19286,281.3785700000001 405.59999,282.11599000000007 C 406.18986,283.18441000000007 406.59752,283.8518000000001 407.02083,284.4999900000001 C 407.45011999999997,285.1573100000001 408.1653,286.16762000000006 408.68266,286.88265000000007 C 408.94749,287.24865000000005 409.48533,287.9747500000001 409.99016,288.6901500000001 C 410.6751,289.6607600000001 411.19371,290.49523000000005 411.49999,290.9999900000001 C 411.96654,291.7688800000001 412.53872,292.64571000000007 413.00982000000005,293.3098300000001 C 413.51641000000006,294.0239700000001 414.05291000000005,294.7510200000001 414.31732000000005,295.1173300000001 C 415.08169000000004,296.17635000000007 415.54986,296.8426700000001 415.97915000000006,297.4999900000001 C 416.4024600000001,298.1481800000001 417.0065900000001,299.1630100000001 417.39999000000006,299.8853400000001 C 417.8068200000001,300.6322900000001 418.20169000000004,301.4098200000001 418.6000000000001,302.2013200000001 C 419.2025700000001,303.3987100000001 419.3999600000001,303.7999800000001 419.79998000000006,304.60000000000014 C 420.19997000000006,305.3999900000001 420.60195000000004,306.19903000000016 421.19982000000005,307.4001700000001 C 421.39931000000007,307.8009900000001 421.80364000000003,308.60430000000014 422.16399000000007,309.4360000000001 C 422.52929000000006,310.2791400000001 422.84584000000007,311.1628700000001 423.1173300000001,312.0866700000001 C 423.3983400000001,313.0429400000001 423.5112500000001,313.5444300000001 423.8098300000001,314.5616800000001 C 423.9643700000001,315.08814000000007 424.3218200000001,316.1712100000001 424.7666500000001,317.2840000000001 C 424.9949200000001,317.8550400000001 425.25011000000006,318.4212100000001 425.7133400000001,319.5746800000001 C 425.9425300000001,320.1453600000001 426.2178600000001,320.6966900000001 426.63567000000006,322.3788500000001 C 426.76815000000005,322.9121800000001 426.90947000000006,323.9846500000001 426.95833000000005,324.5208500000001 C 427.05748000000006,325.6086800000001 427.06877000000003,326.1703300000001 427.16664000000003,327.3333500000001 C 427.27064,328.5691900000001 427.35188000000005,329.2054200000001 427.42531,329.8506800000001 C 427.49922000000004,330.5000900000001 427.65132,331.79425000000015 427.71599000000003,332.4320100000001 C 427.84108000000003,333.6659000000001 427.88533,334.2573000000001 427.94731,335.4036600000001 C 427.97795,335.9704900000001 428.02531,337.1226800000001 428.05266,337.7196700000001 L 428.084,338.3386600000001" fill="none" id="svg_3" stroke="#000" stroke-width="2"/>
</svg>
