<?xml version="1.0" ?>
<svg baseProfile="full" height="480" version="1.1" width="640" xmlns="http://www.w3.org/2000/svg" xmlns:ev="http://www.w3.org/2001/xml-events" xmlns:xlink="http://www.w3.org/1999/xlink">
	<defs/>
	<path d="M 305.0,165.0 C 306.60001,165.61067 307.42618,166.21675 307.83334,167.0 C 308.22003,167.74385 308.56125000000003,168.46872 308.94732000000005,169.3 C 309.35177000000004,170.17079 310.02056000000005,170.38482000000002 310.71465000000006,171.084 C 311.25820000000004,171.63153 311.37063000000006,172.42897 311.8785000000001,173.2215 C 312.3570200000001,173.96822 312.2109600000001,174.97216 312.5746700000001,175.60001 C 313.02062000000006,176.36986 312.9999900000001,177.30001 312.9999900000001,178.2 C 312.9999900000001,179.10001 312.9999900000001,180.0 312.9999900000001,180.80001 C 312.9999900000001,181.7 312.9999900000001,182.60001 312.9999900000001,183.50000999999997 C 312.9999900000001,184.39999999999998 312.9893100000001,185.38933999999998 312.4999900000001,186.00000999999997 C 312.01067000000006,186.61067999999997 312.1420500000001,187.51300999999998 311.9893100000001,188.39999999999998 C 311.8458500000001,189.23314999999997 311.2577700000001,190.03448999999998 310.9159800000001,190.80001 C 310.5840100000001,191.54353999999998 310.1042700000001,192.30431 309.9986500000001,193.20135 C 309.8841200000001,194.17401999999998 309.7174000000001,194.93911 308.99999000000014,195.66667999999999 C 308.4535700000001,196.22082999999998 308.06496000000016,196.86284999999998 307.99999000000014,197.83334 C 307.9409400000001,198.7155 307.21032000000014,199.34581 306.99999000000014,200.00001 C 306.7069300000001,200.91154 306.17141000000015,201.45222 305.98931000000016,202.4 C 305.82995000000017,203.22941 304.96908000000013,203.75199 304.2999800000002,204.05268 C 303.4708800000002,204.42527 303.11150000000015,205.34098 302.5746700000002,205.97468 C 302.0718900000002,206.56819000000002 301.9280900000002,207.43183000000002 301.42532000000017,208.02534 C 300.88849000000016,208.65904 300.53958000000017,209.52362 300.05267000000015,210.29551 C 299.60959000000014,210.99795 299.05981000000014,211.55079 298.64734000000016,212.30001000000001 C 298.18564000000015,213.13866000000002 298.3768000000002,214.17998 297.83334000000013,214.83334000000002 C 297.25937000000016,215.52337000000003 296.4178400000001,215.60202 296.0000000000001,216.50001000000003 C 295.63116000000014,217.29269000000002 295.21194000000014,218.13325000000003 294.91599000000014,218.80001000000004 C 294.53522000000015,219.65778000000003 294.0253300000001,220.38933000000003 293.5000000000001,221.00001000000003 C 292.9746700000001,221.61068000000003 292.4825700000001,222.35035000000002 292.0840100000001,223.20001000000002 C 291.6803200000001,224.06059000000002 291.2419100000001,224.72796000000002 291.0571500000001,225.65268000000003 C 290.9206400000001,226.33585000000002 291.0206500000001,227.37491000000003 290.9998400000001,228.32118000000003 C 290.9818300000001,229.13928 290.38235000000014,229.83749000000003 290.08532000000014,230.56935000000001 C 289.78948000000014,231.29826000000003 289.99999000000014,232.36401 289.99999000000014,233.30002000000002 C 289.99999000000014,234.20001000000002 289.99999000000014,235.10002000000003 289.99999000000014,236.00002 C 289.99999000000014,236.80002000000002 290.18145000000015,237.72594 289.96398000000016,238.60003 C 289.74685000000017,239.47271 289.10299000000015,240.15803 289.02083000000016,241.00002 C 288.92580000000015,241.97411 288.99999000000014,242.79868000000002 288.99999000000014,243.70002 C 288.99999000000014,244.60003 288.9999300000001,245.50002 288.99999000000014,246.41067999999999 C 289.00008000000014,247.32136 288.9143300000001,248.21286999999998 289.22133000000014,248.97851999999997 C 289.5317200000001,249.75260999999998 289.99465000000015,250.59998 289.99999000000014,251.50001999999998 C 290.00533000000013,252.39999999999998 289.86834000000016,253.35008999999997 290.22133000000014,254.10002999999998 C 290.58638000000013,254.87553999999997 290.99773000000016,255.70000999999996 290.99999000000014,256.60002999999995 C 291.00222000000014,257.50001999999995 290.9993200000001,258.4000199999999 290.99999000000014,259.30000999999993 C 291.00066000000015,260.19868999999994 291.56884000000014,260.67662999999993 291.96398000000016,261.4360299999999 C 292.3631500000002,262.2031199999999 291.89434000000017,263.2259199999999 292.1666500000002,264.16667999999993 C 292.3617800000002,264.8407499999999 293.1454400000002,265.48283999999995 293.7146500000002,266.08269999999993 C 294.27083000000016,266.6688199999999 294.63045000000017,267.5812399999999 295.1986600000002,268.20003999999994 C 295.73388000000017,268.78292999999996 296.0543700000002,269.69908999999996 296.4999900000002,270.5000299999999 C 296.9445400000002,271.2990699999999 296.9178700000002,272.2038299999999 297.0001400000002,273.1000399999999 C 297.08382000000023,274.01147999999995 297.5844000000002,274.5955199999999 297.9999900000002,275.5000299999999 C 298.36577000000017,276.29610999999994 299.0325800000002,276.9705799999999 299.4999900000002,277.52086999999995 C 300.1475400000002,278.28322999999995 300.3649800000002,279.10518999999994 301.0998100000002,279.75719999999995 C 301.7780000000002,280.35894999999994 302.4474400000002,280.75082 302.9746600000002,281.43602999999996 C 303.4775900000002,282.08968999999996 303.8013200000002,282.80001 304.4999900000002,283.50003 C 305.1986600000002,284.20004 305.6735400000002,284.81723 306.0253200000002,285.60004 C 306.3939100000002,286.42026 307.1901500000002,287.02927 307.64281000000017,287.70005 C 308.1272500000002,288.41787999999997 308.9176800000002,288.62012 309.66664000000014,289.33338 C 310.21352000000013,289.85418999999996 310.16160000000013,291.02108999999996 310.61064000000016,291.58936 C 311.2244400000002,292.36618 311.72420000000017,292.88807 312.49998000000016,293.47919 C 313.2341700000002,294.03861 313.8394900000002,294.50959 314.3571600000002,295.30002 C 314.8778500000002,296.09509 315.49998000000016,296.50003000000004 316.1999900000002,297.20004 C 316.7999700000002,297.80002 317.4114500000002,298.38586 317.9159600000002,299.1987 C 318.3730200000002,299.93508999999995 318.86374000000023,300.54663 319.5693100000002,301.20004 C 320.1081900000002,301.69909 320.9257600000002,302.17758 321.6954700000002,302.64285 C 322.45618000000024,303.10269 323.2004700000002,303.56903 323.59998000000024,304.18536 C 324.20206000000024,305.11419 324.74231000000026,305.71756 325.48264000000023,306.20004 C 326.12635000000023,306.61957 326.6641600000002,307.57791 327.43598000000026,307.96402 C 328.20933000000025,308.35089 329.30002000000025,307.83798 329.94730000000027,308.35269 C 330.56641000000025,308.84503 331.40342000000027,309.28055 331.83332000000024,310.00003 C 332.2936800000002,310.77051 333.03822000000025,310.82648 333.7999600000002,311.08536 C 334.68790000000024,311.38712 335.44132000000025,311.88388 336.1999800000002,312.28403 C 337.0583500000002,312.73675999999995 337.6564300000002,313.29697 338.2214600000002,313.87888 C 338.8494500000002,314.52561 339.34152000000023,315.15882 340.0999700000002,315.75721 C 340.7060200000002,316.23536 341.5371300000002,316.74705 342.3999600000002,316.96403 C 343.2778600000002,317.18478999999996 344.17172000000016,316.92643 344.9999700000002,317.02088 C 345.9923400000002,317.13406999999995 346.5289900000002,317.75521999999995 347.4999700000002,317.97918999999996 C 348.36710000000016,318.1792 348.9337800000002,318.68249999999995 349.7142900000002,318.94286999999997 C 350.3751500000002,319.16333 351.5954500000002,319.00003 352.3428000000002,319.00003 C 353.2427900000002,319.00003 354.22323000000017,318.90366 355.1666200000002,319.16668999999996 C 355.8482900000002,319.35675 356.49291000000017,319.83218999999997 357.5892900000002,319.98934999999994 C 358.47067000000015,320.11569 358.93658000000016,320.7748399999999 359.70446000000015,320.9955499999999 C 360.56515000000013,321.24292999999994 361.53472000000016,320.94708999999995 362.29995000000014,321.3526999999999 C 363.14590000000015,321.80108999999993 363.9721000000001,322.21100999999993 364.59997000000016,322.5747199999999 C 365.36981000000014,323.0206699999999 366.38931000000014,323.0107199999999 366.99996000000016,323.5000399999999 C 367.61062000000015,323.9893599999999 368.55193000000014,323.7109499999999 369.38930000000016,324.0107199999999 C 370.12602000000015,324.2744499999999 370.6106100000002,324.9894199999999 371.49996000000016,325.0000399999999 C 372.39995000000016,325.0107799999999 373.21874000000014,325.5005599999999 373.99996000000016,325.8333799999999 C 374.75149000000016,326.15356999999995 375.6999700000002,325.99929999999995 376.63595000000015,326.0000399999999 C 377.48528000000016,326.0007099999999 378.41787000000016,326.0020499999999 379.1997900000002,326.2213799999999 C 379.99667000000017,326.4449199999999 380.9719200000002,326.9378399999999 381.7986400000002,326.9986899999999 C 382.69754000000023,327.0648499999999 383.5208100000002,327.0000299999999 384.4839700000002,327.0000299999999 C 385.34728000000024,327.0000299999999 386.24731000000025,327.0000299999999 387.16662000000025,327.0000299999999 C 387.99996000000027,327.0000299999999 388.97863000000024,327.0000299999999 389.75262000000026,327.0000299999999 C 390.65264000000025,327.0000299999999 391.5159600000003,327.0000299999999 392.47912000000025,327.0000299999999 C 393.39996000000025,327.0000299999999 394.29995000000025,327.0000299999999 395.19998000000027,327.0000299999999 C 396.09997000000027,327.0000299999999 396.99997000000025,327.0000299999999 397.7999600000003,327.0000299999999 C 398.69998000000027,327.0000299999999 399.5999800000003,327.0000299999999 400.4999700000003,327.0000299999999 L 401.3999600000003,327.0000299999999 L 402.2999500000003,327.0000299999999 L 403.1999700000003,327.0000299999999" fill="none" id="svg_1" stroke="#000" stroke-width="2"/>
	<path d="M 308.0,169.0 C 307.0,167.83333 306.57883,167.30144 306.0,166.52083 C 305.52777,165.884 304.78494,165.45163 304.16666,164.83333 C 303.54837,164.21502999999998 303.04251,163.65587 302.5,163.0 C 302.00122,162.39702 302.14206,161.487 301.98932,160.60001 C 301.84586,159.76686 301.16666000000004,159.0 301.00134,158.2 L 301.0,157.30001 L 300.96399,156.43600999999998 L 300.28400000000005,155.91600999999997" fill="none" id="svg_2" stroke="#000" stroke-width="2"/>
	<path d="M 305.0,132.0 C 303.29999,132.0 302.39999,132.0 301.5,132.0 C 300.60001,132.0 299.70001,131.9994 298.79999,132.0 C 297.80133,132.00067 297.32232999999997,132.56679 296.56399999999996,132.964 C 295.80179,133.36325 295.19352,133.67138 294.47916,133.97917 C 293.57971999999995,134.3667 292.59182999999996,133.88341 291.70002,134.0045 C 290.87882,134.11601000000002 290.17005,134.7706 290.01069,135.6 C 289.82859,136.54778 289.61213000000004,137.31121 288.83335,137.83332 C 288.12745,138.30656 287.1872,138.17102999999997 287.00001,138.99999 C 286.80042999999995,139.88386 286.13660999999996,140.32604 285.57469,140.97466 C 285.06537999999995,141.56255 284.74919,142.43714 285.00449999999995,143.29549 C 285.23133999999993,144.05814 286.43483,143.75711 287.29551999999995,144.00449 C 288.06339999999994,144.22521 288.58604999999994,144.88291 289.30000999999993,145.35715 C 290.0916699999999,145.88300999999998 290.6525499999999,146.47585999999998 291.38936999999993,146.97466 C 292.05641999999995,147.42621 292.51805999999993,148.15888 293.0840399999999,148.71599 C 293.7551499999999,149.3766 294.3917199999999,149.90042 294.9746999999999,150.42533 C 295.56386999999995,150.95582 296.3753699999999,151.46589 297.09984999999995,151.87865 C 297.89162999999996,152.32976 298.40004999999996,152.71747 299.2955299999999,153.00449 C 300.0563899999999,153.24836 300.52086999999995,153.97916 301.4000199999999,153.99999 L 302.2955299999999,153.99549" fill="none" id="svg_3" stroke="#000" stroke-width="2"/>
</svg>
