<?xml version="1.0" ?>
<svg baseProfile="full" height="480" version="1.1" width="640" xmlns="http://www.w3.org/2000/svg" xmlns:ev="http://www.w3.org/2001/xml-events" xmlns:xlink="http://www.w3.org/1999/xlink">
	<defs/>
	<path d="M 193.0,111.0 C 191.95833,110.02084 191.0,110.0 190.2,110.0 C 189.39999999999998,110.0 188.39999999999998,110.0 187.60001,110.0 C 186.59734,110.0 185.728,110.0 184.66667999999999,110.0 C 184.03200999999999,110.0 183.00000999999997,110.0 182.30533999999997,110.0 C 181.33333999999996,110.0 180.51883999999998,110.0 179.48801999999998,110.0 C 178.63600999999997,110.0 177.69544999999997,110.01026 176.83333999999996,110.0 C 175.95815999999996,109.98958 175.30669999999998,109.94556 174.31600999999998,109.716 C 173.4937,109.52546 172.69328,109.22989 171.68667999999997,109.08533 C 170.85192999999995,108.96545 169.75268999999997,109.0 168.83334999999997,109.0 C 168.00001999999998,109.0 167.16668999999996,109.0 166.30452999999997,109.0 C 165.40001999999998,109.0 164.47919999999996,109.0 163.51602999999997,109.0 C 162.82535999999996,109.0 161.75719999999998,109.0 160.90001999999998,109.0 C 160.00002999999998,109.0 159.06091999999998,109.21523 159.00002999999998,110.1 C 158.93822999999998,110.99788 158.96254,111.76293 159.52085999999997,112.5 C 160.11033999999998,113.27821 160.74515999999997,113.71793 161.48269999999997,114.2 C 162.27769999999995,114.71964 162.83596999999997,115.56359 163.56802999999996,115.916 C 164.36111999999997,116.29778 165.05075999999997,116.64296 165.80136999999996,117.084 C 166.50244999999995,117.49593 167.35264999999995,117.83093000000001 168.20003999999997,118.284 C 168.85204999999996,118.63260000000001 169.82434999999998,118.5852 170.64287999999996,119.05717 C 171.32976999999997,119.45323 171.85562999999996,120.00975 172.60004999999995,120.61067 C 173.25373999999996,121.13835 174.02756999999994,121.7596 174.70003999999994,122.05266999999999 C 175.56630999999993,122.43019999999999 176.31317999999993,123.11497999999999 177.02086999999995,123.49999999999999 C 177.59485999999995,123.81228999999999 178.61269999999993,124.26948999999999 179.34287999999995,124.69999999999999 C 180.13602999999995,125.16763999999999 180.72336999999996,125.74600999999998 181.48403999999996,126.19866999999999 C 182.31837999999996,126.69518 183.24286999999995,126.94733 184.10004999999995,127.22134 L 184.70003999999994,127.64733 L 185.60004999999995,127.98933" fill="none" id="svg_2" stroke="#000" stroke-width="2"/>
	<path d="M 161.0,113.0 C 162.0,112.0 162.72946,112.21616 163.16667,113.0 C 163.53027,113.65187 164.21675000000002,114.42618 165.0,114.83334 C 165.74385,115.22002 166.4803,115.54180000000001 167.2,116.19867 C 167.78452,116.73216000000001 168.69997999999998,116.99775000000001 169.60001,117.0 C 170.5,117.00225 171.38933,117.01067 172.0,117.5 C 172.61067,117.98933 173.6192,117.83479 174.5,118.02084 C 175.3474,118.19983 175.99046,118.88925 176.8,118.99867 C 177.69377,119.11947 178.42236,119.68619000000001 179.3,119.94284 C 180.16555000000002,120.19595000000001 181.10000000000002,120.00001 182.0,120.00001 C 182.8,120.00001 183.7,120.00001 184.60001,120.00001 L 185.5,120.00001" fill="none" id="svg_3" stroke="#000" stroke-width="2"/>
	<path d="M 193.0,113.0 C 193.05716,111.3 193.54179,110.51971 194.19867,109.8 C 194.73215,109.21549 194.96554999999998,108.3433 195.28534,107.51599999999999 C 195.56061,106.80389999999998 196.18169,105.86905999999999 196.7,105.30449999999999 C 197.37679,104.56732999999998 198.00687,103.83746 198.39999999999998,103.17466999999999 C 198.80716999999999,102.48819999999999 199.34446999999997,101.56311 200.09983999999997,101.12132999999999 C 200.83431999999996,100.69176999999999 201.34797999999998,100.04640999999998 201.98533999999998,99.57466999999998 C 202.70016999999999,99.04558999999999 203.32037999999997,98.77561999999999 204.08267999999998,98.28399999999998 C 204.73166999999998,97.86545999999998 205.82258,98.41121999999997 206.64284999999998,97.94283999999998 C 207.45602,97.47850999999997 207.68312999999998,96.60194999999997 208.35716999999997,96.05266999999998 C 209.06169999999997,95.47853999999998 209.86487999999997,95.19727999999998 210.65266999999997,95.05716999999997 C 211.50444999999996,94.90568999999996 212.55120999999997,95.11842999999998 213.30001,94.64282999999998 C 214.10225999999997,94.13328999999997 214.53456999999997,93.25871999999997 215.41066999999998,93.03599999999997 C 216.29395999999997,92.81144999999998 217.17468,92.99999999999997 218.11468,92.99999999999997 C 219.00001,92.99999999999997 219.75718,92.99999999999997 220.65717999999998,92.99999999999997 C 221.60135,92.99999999999997 222.60451999999998,92.99999999999997 223.23601,92.99999999999997 C 224.42119,92.99999999999997 225.21468,92.99999999999997 225.99018999999998,92.99999999999997 C 227.03069,92.99999999999997 227.74819,92.99999999999997 228.65267999999998,92.99999999999997 C 229.51601999999997,92.99999999999997 230.50001999999998,92.99999999999997 231.48667999999998,92.99999999999997 C 232.24668999999997,92.99999999999997 233.16669,92.99999999999997 233.95717999999997,92.99999999999997 C 234.81067999999996,92.99999999999997 236.00000999999997,92.99999999999997 236.59734999999998,92.99999999999997 C 237.45833999999996,92.99999999999997 238.66669,92.99999999999997 239.47919,92.99999999999997 C 240.32135,92.99999999999997 241.17469,92.99999999999997 242.11602,92.99999999999997 C 242.88403,92.99999999999997 243.82536,92.99999999999997 244.83335,92.99999999999997 C 245.62536,92.99999999999997 246.48402,92.99999999999997 247.34736,92.99999999999997 C 248.36402,92.99999999999997 249.20002,92.99999999999997 250.1002,92.99999999999997 C 250.88536,92.99999999999997 251.84474,92.94810999999997 252.60136,93.08532999999997 C 253.6186,93.26981999999997 254.38145,93.73016999999997 255.39869,93.91465999999997 C 256.15533,94.05187999999997 257.1314,93.91087999999996 257.88403,94.08532999999997 C 258.85904,94.31132999999997 259.51355,94.72466999999997 260.50003,94.99999999999997 C 261.31955,95.22871999999997 262.02365,95.51520999999997 263.00003,95.99999999999997 C 263.60625999999996,96.30100999999998 264.46628,96.74191999999996 265.4212,97.32132999999997 C 265.9534,97.64423999999997 266.74633,98.16391999999998 267.23068,98.51598999999997 C 268.20144,99.22163999999998 268.75958,99.83987999999998 269.52087,100.49998999999997 C 270.13794,101.03504999999997 270.9779,101.53653999999997 271.83337,101.83332999999998 C 272.62161,102.10679999999998 273.15817,102.61581999999997 273.80136,103.16932999999997 C 274.49493,103.76618999999998 274.68017,104.61798999999998 275.40002,105.35332999999997 C 276.01225999999997,105.97874999999998 277.07101,106.08940999999997 277.60003,106.64665999999997 C 278.30981,107.39428999999997 278.57098,108.23283999999997 279.16668,108.83332999999998 C 279.75655,109.42792999999998 280.65056999999996,110.00900999999998 281.04818,110.69998999999997 C 281.50271,111.48988999999997 282.4544,111.76567999999997 282.94735000000003,112.35715999999996 C 283.52840000000003,113.05435999999996 283.75588000000005,114.02915999999996 284.0527,114.69998999999997 C 284.42776000000003,115.54764999999998 285.25805,116.15951999999997 285.70004,116.81431999999997 C 286.16494,117.50303999999997 286.3753,118.26109999999997 286.70004,118.99465999999997 C 287.16641,120.04816999999997 287.65582,120.63577999999997 288.32119,121.54281999999996 C 288.65838,122.00250999999996 289.22283,122.74700999999996 289.66668,123.83331999999996 C 289.95016,124.52714999999996 290.04449,125.47605999999996 290.44268,126.42114999999995 C 290.67132,126.96377999999996 291.22024,127.70253999999996 291.66668,128.66665999999995 C 292.04064,129.47427999999996 292.15596999999997,130.33639999999994 292.3572,131.01431999999994 C 292.59792,131.82521999999994 293.00532999999996,132.99826999999993 293.19869,133.59999999999994 C 293.48711,134.49748999999994 293.69423,135.09102999999993 293.87868,136.29965999999993 C 294.01207,137.17375999999993 293.91634,138.02562999999992 294.28535999999997,139.03198999999992 C 294.52599,139.68825999999993 295.12892999999997,140.53241999999992 295.38935999999995,141.28265999999994 C 295.58631999999994,141.85005999999993 295.84977999999995,143.16497999999993 295.91468999999995,143.88264999999993 C 295.98076,144.61332999999993 295.99103999999994,145.33863999999994 296.00001999999995,146.66665999999992 C 296.00553999999994,147.4856599999999 295.99397999999997,148.40644999999992 296.22151999999994,149.19998999999993 C 296.45692999999994,150.02107999999993 297.02070999999995,150.99031999999994 297.2955299999999,151.60449999999992 C 297.6715699999999,152.44488999999993 297.88668999999993,153.42022999999992 297.9746999999999,154.21464999999992 C 298.06051999999994,154.9893399999999 298.33199999999994,156.00514999999993 298.6473699999999,156.6909799999999 C 299.0531299999999,157.5733699999999 299.0208699999999,158.4999899999999 299.3526899999999,159.29998999999992 L 299.8785399999999,160.09998999999993 L 300.00002999999987,160.99997999999994" fill="none" id="svg_4" stroke="#000" stroke-width="2"/>
</svg>
