<?xml version="1.0" ?>
<svg baseProfile="full" height="480" version="1.1" width="640" xmlns="http://www.w3.org/2000/svg" xmlns:ev="http://www.w3.org/2001/xml-events" xmlns:xlink="http://www.w3.org/1999/xlink">
	<defs/>
	<path d="M 264.0,150.0 C 253.16667,155.5 252.35039,155.93448 251.59866,156.34 C 250.90439999999998,156.71453 249.66938,157.38037 249.11067,157.66001 C 248.59115,157.92002 247.17351,158.52576 246.28534,158.74801 C 245.86007999999998,158.85442 245.01334,158.96528 244.2045,159.15801 C 242.9865,159.44825 242.19446,159.82923 241.45334,160.26533999999998 C 240.76816,160.66851999999997 239.65959,161.15043999999997 239.97917,161.02083 C 240.59207,160.77224999999999 241.54635000000002,161.67363 242.49566000000002,162.05349999999999 C 243.03912000000003,162.27096999999998 243.62051000000002,162.49284999999998 244.23866,162.68801 C 245.51536000000002,163.09109999999998 246.8314,163.35055 247.47934,163.41418 C 248.11989,163.47708 248.76622,163.49904999999998 250.08333000000002,163.43750999999997 C 250.77001,163.40541999999996 251.48108000000002,163.33583 252.22533,163.28000999999998 C 253.83280000000002,163.15944 254.70600000000002,163.11714999999998 255.616,163.08533999999997 C 256.54969,163.0527 257.49463000000003,163.03357999999997 258.4375,163.02083999999996 C 259.3653,163.00829999999996 260.26517,163.00328999999996 261.12399,163.00133999999997 C 262.66665,162.99782999999996 263.328,163.00000999999997 263.91732,163.00000999999997 C 264.44265,163.00000999999997 264.91198,163.00000999999997 266.06399,163.00000999999997 C 266.99998999999997,163.00000999999997 267.88198,163.00000999999997 268.656,163.00000999999997 L 269.16665,163.00000999999997" fill="none" id="svg_1" stroke="#000" stroke-width="2"/>
	<path d="M 264.0,149.0 C 269.5,138.33333 269.93036,137.56802 270.34534,136.87601 C 271.09317000000004,135.62892 271.46006,135.06357 271.80399,134.50534000000002 C 272.14539,133.95122 272.49845,133.39348 273.16666,132.16667 C 273.53058,131.49853000000002 273.88559,130.78276000000002 274.24816999999996,130.04117000000002 C 274.61764999999997,129.28545000000003 274.97934,128.52091000000001 275.33865,127.76267000000003 C 275.6903,127.02058000000002 276.00467,126.29227000000003 276.95732999999996,124.42867000000003 C 277.22472999999997,123.90557000000003 277.47592,123.42259000000003 277.99998999999997,122.58334000000002 C 278.48812,121.80166000000003 279.32964,120.66384000000002 279.643,120.25767000000002 C 280.30654,119.39761000000001 280.66353999999995,118.96323000000002 281.04164999999995,118.54167000000002 C 281.7924699999999,117.70457000000002 282.1382699999999,117.25161000000003 283.40031999999997,116.38534000000003 C 284.17341999999996,115.85469000000003 284.62303999999995,115.70490000000002 285.47198,115.29868000000003 C 286.37246,114.86779000000003 287.33919999999995,114.34254000000003 287.84349999999995,114.01435000000004 C 288.94093999999996,113.30012000000004 289.50230999999997,112.87492000000003 290.10414999999995,112.45835000000004 C 290.72758999999996,112.02683000000003 291.3714499999999,111.58180000000004 292.05864999999994,111.16535000000003 C 293.4819299999999,110.30282000000003 294.25902999999994,109.93207000000004 295.05333999999993,109.57201000000003 C 295.8574499999999,109.20752000000003 296.6838599999999,108.87529000000004 297.5208399999999,108.56251000000003 C 298.3572699999999,108.24993000000003 299.1973799999999,107.96079000000003 300.0333199999999,107.68801000000003 C 301.66325999999987,107.15615000000004 302.4555299999999,106.91824000000004 303.2266499999999,106.68934000000003 C 303.97557999999987,106.46702000000003 304.7048299999999,106.26084000000003 305.4166499999999,106.08334000000004 C 306.1049399999999,105.91172000000003 306.7736799999999,105.75829000000003 307.4266599999999,105.65734000000003 C 308.6619199999999,105.46636000000004 309.25758999999994,105.44535000000003 309.8333399999999,105.45734000000003 C 310.9614199999999,105.48084000000003 311.5243499999999,105.56306000000004 312.6624999999999,105.77067000000002 C 313.2553299999999,105.87881000000003 314.5003899999999,106.16501000000002 315.1638099999999,106.32150000000003 C 315.8510699999999,106.48362000000003 317.2660699999999,106.83304000000003 317.9791499999999,107.02083000000003 C 318.6887799999999,107.20772000000004 319.3869599999999,107.39726000000003 320.0626499999999,107.60133000000003 C 321.3375199999999,107.98638000000004 322.4616999999999,108.39071000000003 322.9668199999999,108.60450000000003 C 323.9043499999999,109.00130000000003 324.34111999999993,109.20293000000002 325.1093399999999,109.68533000000004 C 326.2088299999999,110.37574000000004 326.8621799999999,110.94616000000003 327.4791499999999,111.56250000000004 C 328.1161099999999,112.19883000000004 328.4226899999999,112.55389000000004 329.3011699999999,113.74416000000004 C 329.6181299999999,114.17364000000003 330.2746499999999,115.14666000000004 330.6458399999999,115.68750000000004 L 331.0519999999999,116.27333000000004 L 331.5001499999999,116.90916000000004 L 331.9973399999999,117.59999000000005" fill="none" id="svg_2" stroke="#000" stroke-width="2"/>
	<path d="M 266.0,165.0 C 274.349,175.106 274.79623,175.63016 275.18634,176.07201 C 275.7879,176.75335 276.55199999999996,177.55202 277.22916,178.22918 C 277.84751,178.84751 278.22666,179.22666 278.64585,179.64584000000002 C 279.10001,180.10000000000002 280.09318,181.09352 281.16666,182.16668 C 281.72107,182.72094 282.28116,183.28153 282.84817999999996,183.83918000000003 C 283.41317999999995,184.39486000000002 283.97598999999997,184.94088000000002 284.53866999999997,185.46667000000002 C 285.08709999999996,185.97915000000003 285.61319,186.48120000000003 286.66666,187.33334000000002 C 287.14968999999996,187.72406 288.09256,188.38656000000003 288.56,188.66668 C 289.47428,189.21458 289.956,189.45307000000003 291.5,190.16668 C 292.06201,190.42643 292.65363,190.68642000000003 293.267,190.95268000000002 C 294.53949,191.50502 295.19516,191.77676000000002 295.85632,192.04735000000002 C 296.51782,192.31809 297.83272999999997,192.83493 298.47848,193.07884 C 299.11406999999997,193.31891000000002 300.36517,193.78232000000003 300.97915,194.02084000000002 C 301.59051,194.25834000000003 302.21578,194.46676000000002 303.99999,195.33334000000002 C 304.60708000000005,195.62819000000002 305.20073,195.96435000000002 305.79549000000003,196.30534000000003 C 306.39144000000005,196.64701000000002 306.97914000000003,197.00001000000003 308.14281000000005,197.69468000000003 L 308.71465000000006,198.03201000000004" fill="none" id="svg_3" stroke="#000" stroke-width="2"/>
	<path d="M 307.0,198.0 C 304.14316,205.257 303.95291,205.82448 303.68268,206.92799 C 303.55335,207.45615999999998 303.35532,208.48944 303.288,208.99733 C 303.08930000000004,210.49658 303.07538,211.00357 303.03602,212.032 C 303.01573,212.56233 303.00324,213.6715 303.00135,214.256 C 302.99732,215.5 303.00001,216.85201 303.00001,217.558 C 303.00001,218.27599999999998 303.00001,219.0 303.00001,219.724 C 303.00001,220.44199999999998 303.00001,221.148 303.00001,222.5 C 303.00001,223.74533 303.00001,224.33299 303.00001,225.45833 C 303.00001,226.004 302.99902999999995,227.08132999999998 303.00001,228.16666999999998 C 303.00052999999997,228.72249999999997 303.01649,229.88488999999998 303.06401,230.49999999999997 C 303.11397,231.14676999999998 303.20061,231.82953999999998 303.343,232.54749999999999 C 303.49556,233.31679 303.98634000000004,235.00495999999998 304.32817,235.92766999999998 C 304.6909,236.90679999999998 305.11455,237.90958999999998 305.56267,238.93066 C 306.01485,239.96097999999998 306.48381,240.9761 306.94118000000003,241.96965999999998 C 307.38115000000005,242.92541999999997 308.17232,244.66427 308.49303000000003,245.42831999999999 C 308.78246,246.11785999999998 309.02892,246.75119999999998 309.25203000000005,247.33332 C 309.4594900000001,247.87455999999997 309.65031000000005,248.3884 309.84901,248.87831999999997 C 310.04509,249.36174999999997 310.49394,250.33652999999998 310.76417000000004,250.84282999999996 C 311.04704000000004,251.37276999999997 311.36021000000005,251.91116999999997 311.68669000000006,252.46132999999998 C 312.35533000000004,253.58809999999997 312.7041500000001,254.14891999999998 313.03334000000007,254.71732999999998 C 313.67644000000007,255.82772999999997 314.2354000000001,256.91763 314.50819000000007,257.45183999999995 C 314.7807400000001,257.9856199999999 315.35057000000006,259.06612999999993 315.67683000000005,259.60982999999993 C 316.0156400000001,260.17443999999995 316.8242000000001,261.34056999999996 317.30683000000005,261.9421699999999 C 317.81187000000006,262.5717199999999 318.3620700000001,263.1971099999999 318.93735000000004,263.81866999999994 C 319.51511000000005,264.44287999999995 320.1052,265.0455099999999 320.69385000000005,265.62316999999996 C 321.26135000000005,266.18004999999994 322.32855000000006,267.17211999999995 322.8140000000001,267.59268 C 323.6630600000001,268.32831 324.4196800000001,268.91281 325.0820100000001,269.43465999999995 C 326.00425000000007,270.16130999999996 326.5959900000001,270.68886999999995 327.2106700000001,271.2146599999999 C 327.8306700000001,271.7449899999999 328.4501100000001,272.29302999999993 329.5218300000001,272.85732999999993 C 330.2449400000001,273.23806999999994 330.6562600000001,273.3523599999999 331.4826800000001,273.65065999999996 C 332.37086000000005,273.97124999999994 333.33528000000007,274.32875999999993 334.3693400000001,274.76530999999994 C 334.91084000000006,274.99391999999995 335.4536300000001,275.24916999999994 336.5853400000001,275.6773299999999 C 337.1481800000001,275.8902799999999 337.6986800000001,276.16493999999994 339.3785200000001,276.41414999999995 C 339.9108100000001,276.49312999999995 340.96467000000007,276.47691999999995 341.47917000000007,276.43749999999994 C 342.49730000000005,276.35946999999993 343.99946000000006,276.16024999999996 344.49986000000007,276.12148999999994 C 345.4946100000001,276.0444299999999 345.98915000000005,276.02813999999995 346.96400000000006,276.0106799999999 C 347.91459000000003,275.99364999999995 349.27833000000004,275.99999999999994 349.7133600000001,275.99999999999994 C 350.55336000000005,275.99999999999994 351.35334000000006,275.99999999999994 352.8333600000001,275.99999999999994 C 353.5160100000001,275.99999999999994 354.1746700000001,275.99999999999994 355.1527000000001,275.99999999999994 C 356.1666800000001,275.99999999999994 356.88668000000007,275.99999999999994 357.6466900000001,275.99999999999994 C 358.4466800000001,275.99999999999994 359.28674000000007,276.01195999999993 360.6217000000001,275.99932999999993 C 361.56182000000007,275.9904199999999 362.0502900000001,275.98824999999994 363.04669000000007,275.8559899999999 C 363.5640900000001,275.7873299999999 365.17221000000006,275.3467999999999 365.7215300000001,275.1140199999999 C 366.2914500000001,274.87249999999995 367.4360400000001,274.2560199999999 368.0208800000001,273.9166599999999 L 368.6106900000001,273.55734999999993 L 369.2045300000001,273.18200999999993 L 369.8013600000001,272.7946799999999" fill="none" id="svg_4" stroke="#000" stroke-width="2"/>
</svg>
