<?xml version="1.0" ?>
<svg baseProfile="full" height="480" version="1.1" width="640" xmlns="http://www.w3.org/2000/svg" xmlns:ev="http://www.w3.org/2001/xml-events" xmlns:xlink="http://www.w3.org/1999/xlink">
	<defs/>
	<path d="M 250.0,192.0 C 251.0,192.0 251.80019,192.01799 252.7,192.0 C 253.60054,191.98199 254.31034,191.38187 255.2,191.08533 C 256.05764999999997,190.79946 257.0,191.0 257.79999,191.0 C 258.70000999999996,191.0 259.67859,191.34305 260.47916,190.97917 C 261.25241,190.62771 261.70301,189.94467 262.5,189.5 C 263.29849,189.05449 264.29788,189.15935 264.94733,188.64734 C 265.56195,188.16278000000003 266.40000000000003,188.0 267.29999000000004,188.0 C 268.20001,188.0 269.10440000000006,188.08868 270.00000000000006,188.0 C 270.8457000000001,187.91626 271.21524000000005,187.0609 272.10001000000005,187.0 C 272.99787000000003,186.9382 273.79999000000004,187.0 274.70002000000005,187.0 C 275.60001000000005,187.0 276.69932000000006,187.11327 276.98933000000005,186.38933 C 277.34425000000005,185.50331 277.7046,185.01261 278.60002000000003,185.0 C 279.50017,184.98732 280.20946000000004,184.47282 281.10002000000003,184.12151 C 281.76070000000004,183.86087 282.42900000000003,183.62938 283.22151,183.12151 C 283.96824000000004,182.64298 284.97175000000004,182.7883 285.60002000000003,182.42534 C 286.44566000000003,181.93678 286.94365000000005,181.24837 287.70451,181.0045 C 288.59999000000005,180.71748 289.0706,180.23636000000002 290.00001000000003,180.0 C 290.82365000000004,179.79054 291.27009000000004,179.22633 292.10002000000003,178.77867 C 292.74766000000005,178.42934 293.6234,178.01837 294.40001,177.57466 C 295.12404000000004,177.16098 296.15444,177.32319999999999 296.87868000000003,176.77867 C 297.52153000000004,176.29535 297.80687,175.32947000000001 298.52086,175.02083000000002 C 299.32805,174.67189000000002 300.35664,175.13657 301.20003,174.71601 C 301.86165000000005,174.38608000000002 302.70003,174.00226 303.60002000000003,174.00001 C 304.50001000000003,173.99777 305.40001,174.00001 306.3,174.00001 C 307.20002,174.00001 308.10002000000003,174.00001 309.00001000000003,174.00001 C 309.8,174.00001 310.70002000000005,174.00001 311.60002000000003,174.00001 C 312.50001000000003,174.00001 313.44456,173.90454 314.20003,174.28401 C 315.06722,174.71958999999998 315.55446,175.41763 316.22151,175.87851 C 316.95119,176.38265 318.03349000000003,176.12471 318.60002000000003,176.61069 C 319.34328000000005,177.24825 319.47667,178.25939 320.16667,178.83335 C 320.82002,179.37684 321.60753,179.48266 322.28535,179.91469 C 323.05899999999997,180.40781 323.73789999999997,180.61023 324.43602,180.96402 C 325.20734999999996,181.35490000000001 326.25691,180.83725 327.10002,181.22134 C 327.88001999999994,181.57668999999999 328.51496999999995,182.1585 329.08403,182.71601 C 329.75673,183.37504 330.33680999999996,183.85126000000002 330.97469,184.42535 C 331.55343,184.94621 331.9934,185.62771 332.42534,186.40001 C 332.88292,187.21809000000002 333.44197,187.78560000000002 334.19869,188.28536 C 334.80761,188.68751 334.8781,189.83643 335.52086,190.47919 C 336.16359,191.12194 337.23866000000004,191.10303 337.71468000000004,191.80134999999999 C 338.22548000000006,192.55066 338.72948,193.21617999999998 339.16668000000004,194.00001999999998 C 339.53027000000003,194.65191 340.39642000000003,195.23298999999997 340.83337000000006,196.00001999999998 C 341.27761000000004,196.77987 341.85864000000004,197.22450999999998 342.00018000000006,198.10002999999998 C 342.14624000000003,199.00355999999996 342.4940500000001,199.78966999999997 343.00003000000004,200.47919999999996 C 343.48471000000006,201.13970999999995 344.59805000000006,201.32859999999997 344.91470000000004,202.20002999999997 C 345.22339000000005,203.04957999999996 345.29583,203.72904999999997 346.09985000000006,204.22152999999997 C 346.71957000000003,204.60110999999998 346.65200000000004,205.68053999999998 347.02087000000006,206.47920999999997 C 347.37701000000004,207.25027999999998 348.36969000000005,207.42917999999997 348.87854000000004,208.22152999999997 C 349.35779,208.96778999999998 349.21173000000005,209.97175999999996 349.57471000000004,210.60003999999998 C 350.06327000000005,211.4457 350.67124,212.01946999999998 350.97470000000004,212.8507 C 351.26221000000004,213.63815 351.85864000000004,214.22453 352.00018000000006,215.10003999999998 C 352.14624000000003,216.00356999999997 352.60800000000006,216.60269999999997 353.3000200000001,217.30003999999997 C 353.7981000000001,217.80195999999998 354.6745900000001,218.41513999999998 354.9428700000001,219.30003999999997 C 355.2045000000001,220.16305999999997 354.8134800000001,221.15567999999996 355.1666900000001,222.00003999999996 C 355.4660400000001,222.71559999999997 356.1892700000001,223.49037999999996 356.6000400000001,224.17470999999995 C 357.0871900000001,224.98627999999994 357.59217000000007,225.57572999999994 357.9747000000001,226.40003999999996 C 358.3880900000001,227.29084999999995 358.8221700000001,227.87223999999995 359.3000200000001,228.65270999999996 C 359.7186000000001,229.33635999999996 360.3906300000001,230.18360999999996 360.8333800000001,231.00004999999996 C 361.1921400000001,231.66165999999996 361.7999900000001,232.18473999999995 362.4320400000001,232.80004999999997 C 363.1411800000001,233.49041999999997 363.5218200000001,234.34627999999998 363.8787000000001,235.10004999999998 C 364.2830600000001,235.95411 364.6677600000001,236.60424999999998 364.9160200000001,237.48270999999997 C 365.13877000000014,238.27082999999996 365.7309300000001,238.84417999999997 366.38938000000013,239.43604999999997 C 367.07892000000015,240.05587999999997 366.80186000000015,241.16062999999997 367.16669000000013,242.00004999999996 C 367.46424000000013,242.68460999999996 368.3038100000001,243.29629999999995 368.80002000000013,243.80004999999997 C 369.48447000000016,244.49489999999997 369.8644400000001,245.30860999999996 370.0013700000001,246.20003999999997 C 370.14203000000015,247.11566999999997 370.8278500000001,247.43964999999997 371.56402000000014,248.02536999999998 C 372.24056000000013,248.56364 372.8590600000001,249.22807999999998 373.08404000000013,249.88671 C 373.40808000000015,250.83538 373.8096000000001,251.51038 374.38937000000016,252.36404 C 374.88598000000013,253.09527 375.1218200000002,253.85975 375.86135000000013,254.40004 C 376.48177000000015,254.85329 377.3829300000001,255.40202 377.88402000000013,255.88538 C 378.66576000000015,256.63942 379.17467000000016,257.1747 379.9785000000001,257.97853 C 380.4791700000001,258.4792 381.2000300000001,259.20005999999995 381.8000000000001,259.80003 C 382.4000100000001,260.40004 383.10002000000014,261.10005 383.7000200000001,261.70005 C 384.3000000000001,262.30003 385.0929000000001,262.92465999999996 385.56400000000014,263.60004 C 386.0756900000001,264.33362 385.86832000000015,265.35006999999996 386.22135000000014,266.10004 C 386.58640000000014,266.87555 386.53733000000017,267.75766 387.0720000000001,268.56403 C 387.5585100000001,269.29773 388.5584200000001,269.26621 389.22135000000014,269.8787 C 389.85999000000015,270.46876 390.26349000000016,271.21954999999997 390.80134000000015,271.80003 C 391.37739000000016,272.42176 392.2041100000001,273.02006 392.6428300000002,273.70005 C 393.1281500000002,274.45225 393.2073100000002,275.52759999999995 393.61066000000017,276.13871 C 394.1108100000002,276.89649000000003 395.23310000000015,276.75654000000003 396.00000000000017,277.33338 C 396.5242600000002,277.72772999999995 396.7494800000002,278.85978 397.02533000000017,279.58936 C 397.34335000000016,280.43052 398.29675000000015,280.78003 398.9473300000002,281.3527 C 399.5361700000002,281.87101 399.8829400000002,282.58607 400.3571800000002,283.30003000000005 C 400.8830300000002,284.09169 401.6000100000002,284.60005000000007 402.2999900000002,285.2955400000001 L 403.0000000000002,285.8333800000001" fill="none" id="svg_1" stroke="#000" stroke-width="2"/>
	<path d="M 253.0,193.0 C 254.8,193.0 255.7,193.0 256.60001,193.0 C 257.5,193.0 258.4,193.0 259.29999,193.0 C 260.20000999999996,193.0 261.23830999999996,192.72589 261.87865999999997,193.22133 C 262.51439999999997,193.71321 263.20000999999996,194.0 264.09999999999997,194.0 C 264.99998999999997,194.0 265.79997999999995,194.0 266.70000999999996,194.0 C 267.59999999999997,194.0 268.49999999999994,193.99774 269.39998999999995,194.0 C 270.29549999999995,194.00226 270.80647999999997,194.67139 271.52083999999996,194.97917 C 272.42028,195.3667 273.39998999999995,195.0 274.29997999999995,195.0 C 275.19999999999993,195.0 276.09999999999997,195.0 276.99998999999997,195.0 C 277.79997999999995,195.0 278.70005999999995,194.98933 279.59999999999997,195.0 C 280.47932999999995,195.01042 281.08311999999995,195.62636 280.99864999999994,194.8 C 280.91554999999994,193.98733000000001 280.20802999999995,193.34561000000002 280.02083999999996,192.5 C 279.80902,191.54311 279.42531999999994,190.97467 279.00447999999994,190.2955 L 278.99998999999997,189.39999 L 278.99998999999997,188.5 L 278.99998999999997,187.60001" fill="none" id="svg_2" stroke="#000" stroke-width="2"/>
	<path d="M 282.0,196.0 C 282.16666,197.83333 282.79269,198.23773 283.00015,199.09984 C 283.20233,199.93997 283.71747,200.40001 284.00448,201.2955 C 284.24835,202.05636 284.98736,202.52067 284.99999,203.39999 C 285.01284000000004,204.29542 285.38756,205.01495 286.02532,205.57466 C 286.61492000000004,206.09212 286.98061,206.80154 286.99999,207.7 C 287.01864,208.56455 287.81914,209.05151999999998 287.99865,209.80132999999998 C 288.21224,210.69356 288.76357,211.31113999999997 289.35265,211.94732999999997 C 289.88563999999997,212.52291999999997 290.75869,212.94141999999997 290.9955,213.70449999999997 C 291.25054,214.52628999999996 291.45165,215.32999999999996 292.16664,215.83332999999996 C 292.86159,216.32252999999997 293.78477,216.26298999999997 294.16664,216.99999999999997 C 294.55726999999996,217.75396999999998 294.62345999999997,218.58327999999997 295.02083,219.47916999999998 C 295.33619999999996,220.19019999999998 295.81038,220.73243999999997 296.036,221.6 C 296.2611,222.46562 297.20833,223.0173 297.64281,223.69998999999999 C 298.10875,224.43212 297.99999,225.39998999999997 297.99999,226.29999999999998 C 297.99999,227.19998999999999 297.99999,228.1 297.99999,228.99999999999997 C 297.99999,229.79999999999998 297.99999,230.69999999999996 297.99999,231.60000999999997 C 297.99999,232.49999999999997 297.88347000000005,233.40815999999998 298.00448,234.30000999999996 C 298.1159,235.12135999999995 298.85183,235.76861999999997 298.99551,236.69999999999996 C 299.13272,237.58949999999996 299.0,238.49999999999997 299.0,239.39999999999995 C 299.0,240.30000999999996 298.82248,241.29837999999995 299.284,241.91600999999994 C 299.80033,242.60696999999993 299.90842,243.33017999999996 300.03601,244.17467999999994 C 300.18124,245.13593999999995 300.84585,245.76558999999995 300.98931999999996,246.60001999999994 C 301.14185,247.48705999999996 300.90453999999994,248.44454999999994 301.284,249.20000999999993 C 301.71958,250.06722999999994 301.99933,250.80001999999993 302.0,251.70000999999993 C 302.00067,252.60001999999994 302.10477,253.39920999999993 302.64734,254.05268999999993 C 303.13766999999996,254.64324999999994 303.68552,255.42257999999993 303.94284,256.29999999999995 C 304.19629,257.16419999999994 304.61172,257.73713 304.96398999999997,258.4360199999999 C 305.39818999999994,259.29743999999994 304.92693999999995,260.35016999999993 305.42531999999994,260.97468999999995 C 305.91051999999996,261.58266 305.75710999999995,262.43483 306.00447999999994,263.29551999999995 C 306.22517999999997,264.06339999999994 306.63151999999997,264.60249999999996 307.02083999999996,265.47916999999995 C 307.33653999999996,266.19007999999997 307.99773999999996,266.70450999999997 307.99999999999994,267.63599999999997 C 308.00203999999997,268.48402 307.71193999999997,269.39264999999995 308.0106799999999,270.35335 C 308.2368799999999,271.08077 309.2531699999999,271.54012 309.56398999999993,272.18534999999997 C 309.99474999999995,273.07951999999995 310.54839999999996,273.66932999999995 310.94283999999993,274.35718999999995 C 311.41268999999994,275.1765899999999 310.84646999999995,276.24848999999995 311.1666599999999,277.0000099999999 C 311.49947999999995,277.78122999999994 311.9858099999999,278.61914999999993 312.61065999999994,279.0253399999999 C 313.3487599999999,279.5051399999999 313.85452999999995,280.21942999999993 314.1666599999999,281.1666699999999 C 314.3924599999999,281.8519099999999 314.7941899999999,282.6049299999999 315.20001999999994,283.3986999999999 C 315.59311999999994,284.1675899999999 316.1943099999999,284.9159099999999 316.64282999999995,285.6955099999999 C 317.07766999999996,286.4513399999999 317.07190999999995,287.4318399999999 317.57467999999994,288.0253399999999 C 318.11148,288.6590399999999 318.50097999999997,289.5198499999999 319.10000999999994,290.09982999999994 C 319.68139999999994,290.66272999999995 320.76888999999994,290.93240999999995 320.99551999999994,291.7045099999999 C 321.24774999999994,292.5637599999999 321.1047699999999,293.3992099999999 321.64733999999993,294.0526899999999 C 322.1376699999999,294.64323999999993 322.46041999999994,295.5236099999999 322.9473299999999,296.29551999999995 C 323.3904099999999,296.99793999999997 324.1557999999999,297.44132999999994 324.64733999999993,298.0526899999999 C 325.16552999999993,298.6971899999999 325.0524299999999,299.8184999999999 325.80132999999995,299.99866999999995 C 326.69329999999997,300.21326999999997 327.23208999999997,300.81778999999995 328.09981999999997,301.00016999999997 C 328.89214999999996,301.1667 329.38223,301.78932 330.19867,302.00136 C 330.99912,302.20925 331.42606,303.07759 332.02533,303.57469 C 332.64029,304.08479 333.51679,304.16197 334.08402,304.71601999999996 C 334.75776,305.37409999999994 335.11783,306.21394 335.7045,306.64284 C 336.46396,307.19804999999997 337.00356999999997,307.78074999999995 337.80133,307.99867 C 338.68634000000003,308.24046 339.21524,308.93913 340.10001,309.00001000000003 C 340.99787,309.06181000000004 341.75718,309.00001000000003 342.64817,309.0045 L 343.43067,309.08534000000003 L 344.16801000000004,309.71602 L 345.04167,309.97917" fill="none" id="svg_3" stroke="#000" stroke-width="2"/>
	<path d="M 342.0,307.0 C 343.70001,307.99551 344.44833,308.24203 345.08401,308.716 C 345.85283999999996,309.28924 346.54756999999995,309.44613 347.28533,309.91467 C 347.97679999999997,310.35379 349.03823,309.82644 349.79998,310.08532 C 350.68792,310.38708 351.39944,310.98199 352.29998,310.99999 C 353.19982,311.01800000000003 354.23214,310.75576 354.91598,311.28399 C 355.54348,311.7687 356.29998,311.99999 357.20132,311.99999 C 357.88534,311.99999 358.82534,311.99999 359.83334,311.99999 C 360.69549,311.99999 361.6,311.99999 362.5,311.99999 C 363.39999,311.99999 364.29999,311.99999 365.20001,311.99999 C 366.1,311.99999 367.0,311.99999 367.79999000000004,311.99999 C 368.70001,311.99999 369.60001000000005,311.99999 370.50000000000006,311.99999 C 371.39999000000006,311.99999 372.29999000000004,311.99999 373.2000100000001,311.99999 C 374.1000000000001,311.99999 375.00000000000006,311.99999 375.7999900000001,311.99999 C 376.7000100000001,311.99999 377.6251500000001,311.98809 378.4000000000001,312.42531 C 379.1262600000001,312.8351 380.00040000000007,312.97463000000005 380.7999900000001,312.99999 C 381.7013900000001,313.02858000000003 382.52359000000007,313.46041 383.2955000000001,313.94732000000005 C 383.99792000000014,314.39040000000006 384.6024800000001,314.63152 385.4791500000001,315.02084 C 386.19006000000013,315.33654 386.67297000000013,315.95236 387.4826600000001,316.28534 C 388.3240900000001,316.63138000000004 388.8327600000001,317.51175 389.52084000000013,318.0 C 390.2183200000001,318.49493 391.13388000000015,318.79913 391.75717000000014,319.10983 C 392.71963000000017,319.58963 393.07834000000014,320.30404 393.97848000000016,320.75699 C 394.74197000000015,321.14115 395.66958000000017,321.11044 396.08401000000015,321.80132999999995 C 396.56076000000013,322.59612999999996 397.44134000000014,322.88384999999994 398.20001000000013,323.28399999999993 C 399.0583800000001,323.7367299999999 399.75805000000014,324.05654999999996 400.29999000000015,324.70532999999995 C 400.86548000000016,325.38229999999993 401.66391000000016,325.91095999999993 402.40000000000015,326.43600999999995 C 403.07038000000017,326.91421999999994 403.59333000000015,327.57809999999995 404.50001000000015,328.00001 C 405.29432000000014,328.36963999999995 405.9997700000001,329.00025 406.50001000000015,329.50001 C 407.20100000000014,330.20036 407.7196500000002,330.76108999999997 408.65718000000015,331.29551 C 409.19163000000015,331.60017 410.2200500000001,331.79447 410.9791700000002,332.02085 C 412.0186300000002,332.33085 412.32628000000017,333.15711 413.1000200000002,333.75718 C 413.7100400000002,334.23026 414.6026800000002,334.60798 415.3000000000002,335.3 C 415.80192000000017,335.79808 416.53956000000017,336.49269000000004 417.1000200000002,337.32118 C 417.5314800000002,337.95897 418.2202300000002,338.41264 418.8333600000002,339.16667 C 419.3143500000002,339.75819 419.31984000000017,340.90053 419.8013500000002,341.43068 C 420.46657000000016,342.1631 421.3923200000002,342.44423 422.1000300000002,343.09984 C 422.6936600000002,343.64979999999997 423.5321000000002,343.93474 424.30001000000016,344.35267999999996 C 425.1409800000002,344.81037999999995 425.8510400000002,345.01215999999994 426.5208700000002,345.54168 C 427.3974600000002,346.23467 427.82516000000015,346.82559 428.3473500000002,347.34734 C 429.1143500000002,348.1137 429.8719500000002,348.38737999999995 430.5640200000002,349.06136 C 431.2014700000002,349.68215 431.2075100000002,350.78792 431.8866800000002,351.08268999999996 C 432.7975700000002,351.47804999999994 433.3229600000002,351.89750999999995 434.0147000000002,352.56400999999994 C 434.6234600000002,353.1505599999999 435.5007200000002,353.54929999999996 436.16668000000016,354.0000099999999 C 436.95675000000017,354.53473999999994 437.4664500000002,355.1951699999999 438.1680200000002,355.7146699999999 C 438.9066400000002,356.2616099999999 440.0055700000002,356.1500599999999 440.80001000000016,356.4253299999999 C 441.40450000000016,356.6347999999999 442.42922000000016,356.8034399999999 443.16402000000016,357.0613499999999 C 444.1816000000002,357.4184999999999 444.51284000000015,358.3097299999999 445.3213400000002,358.7571799999999 C 446.1012200000002,359.18878999999987 447.1468700000002,359.2439999999999 447.6955200000002,359.7045099999999 C 448.4596200000002,360.34586999999993 449.1625600000002,361.0068799999999 449.8253700000002,361.4000099999999 C 450.5118300000002,361.8071499999999 451.2935100000002,362.5172599999999 452.1001800000002,362.8786799999999 C 452.8408400000002,363.2105299999999 453.6813600000002,363.30540999999994 454.5160100000002,363.8013499999999 C 455.27159000000023,364.2503199999999 456.1987200000002,364.5320299999999 456.8333600000002,365.1666799999999 C 457.4680000000002,365.80131999999986 457.6117100000002,366.6626199999999 458.4826800000002,366.91600999999986 C 459.2690600000002,367.1447699999999 459.95326000000017,367.72011999999984 460.7098500000002,368.29552999999987 C 461.2908400000002,368.7373899999999 462.4131900000002,368.8651399999999 463.20002000000017,369.2840199999999 C 463.85261000000014,369.6314599999999 464.72688000000016,369.8140799999999 465.60001000000017,370.03602999999987 C 466.4622800000002,370.25523999999984 467.25998000000016,370.7727199999999 468.00000000000017,371.1666799999999 C 468.67825000000016,371.5277599999999 469.1358000000002,372.5264499999999 469.60001000000017,373.13869999999986 C 470.22049000000015,373.95705999999984 471.05692000000016,374.28972999999985 471.70002000000017,374.64736999999985 C 472.55314000000016,375.12176999999986 473.3815700000002,375.4567299999999 474.19868000000014,375.91601999999983 C 474.9025100000001,376.3116499999998 475.58241000000015,376.85531999999984 476.3518500000001,377.0527099999998 C 477.26390000000015,377.2866899999998 477.72169000000014,377.89138999999983 478.50001000000015,378.47918999999985 C 479.23789000000016,379.03643999999986 480.20133000000015,379.00002999999987 481.1666700000001,379.00002999999987 C 481.8253600000001,379.00002999999987 482.83336000000014,379.00002999999987 483.6955100000001,379.0571899999999 L 484.50001000000015,379.50002999999987 L 485.3000000000001,379.94286999999986" fill="none" id="svg_4" stroke="#000" stroke-width="2"/>
</svg>
