<?xml version="1.0" ?>
<svg baseProfile="full" height="480" version="1.1" width="640" xmlns="http://www.w3.org/2000/svg" xmlns:ev="http://www.w3.org/2001/xml-events" xmlns:xlink="http://www.w3.org/1999/xlink">
	<defs/>
	<path d="M 175.0,124.0 C 171.65067,124.0 170.66667,124.0 169.98567,124.0 C 169.17866,124.0 168.0,124.0 167.10451,124.0 C 166.52083000000002,124.0 165.68534,124.0 164.45267,124.0 C 163.77468000000002,124.0 162.57851000000002,124.0 161.76401,124.0 C 161.18933,124.0 160.0,124.0 159.109,124.0 C 158.27201000000002,124.0 157.33333000000002,124.0 156.47918,124.0 C 155.50001,124.0 154.64201000000003,124.0 154.00001,124.0 C 153.05201,124.0 152.05468,124.0 151.25634,124.0 C 150.34734,124.0 149.48379,123.97952 148.52084,124.0 C 147.54101,124.02084 147.34950999999998,124.74435 147.80268999999998,125.51733 C 148.24828,126.27738000000001 148.95817999999997,126.77856 150.01433999999998,126.94733000000001 C 150.81494999999998,127.07527 151.41615999999996,127.01617 152.59867999999997,127.28666000000001 C 153.49229999999997,127.49107000000001 154.08181999999996,127.69489000000002 155.07867999999996,128.32133000000002 C 155.80625999999995,128.77856000000003 156.42489999999995,129.39089 157.16668999999996,129.83332000000001 C 157.93128999999996,130.28936000000002 158.80901999999995,130.59411 159.40134999999995,130.79865 C 160.59539999999996,131.21097 161.21032999999994,131.3629 162.04283999999996,131.75716 C 163.10878999999994,132.26197 163.56088999999994,132.63675 164.18933999999996,133.21065 C 165.02484999999996,133.97364 165.56956999999997,134.61986 166.16400999999996,135.12798999999998 C 166.94661999999997,135.79698 167.68536999999995,136.00057999999999 168.54266999999996,136.44281999999998 C 169.27357999999995,136.81985999999998 170.01576999999995,137.32376 170.85699999999997,137.97848 C 171.47448999999997,138.45907 172.10017999999997,139.09982 172.75717999999998,139.64282 L 173.65266999999997,139.94282 L 174.51600999999997,139.99865" fill="none" id="svg_1" stroke="#000" stroke-width="2"/>
	<path d="M 173.0,127.0 C 173.0,128.82533 173.0,129.83333 173.0,130.6955 C 173.0,131.52083000000002 173.0,132.484 173.0,133.34734 C 173.0,134.24283 173.0,135.20134000000002 173.0,135.88533 L 173.0,136.82533" fill="none" id="svg_2" stroke="#000" stroke-width="2"/>
	<path d="M 168.0,127.0 C 174.37083,120.629 175.06796,120.13478 175.61583,119.327 C 176.1171,118.58793 176.69919,118.01643 177.48266999999998,117.43066 C 178.02014999999997,117.02881000000001 178.65453,116.16095 179.01467,115.41066000000001 C 179.41204,114.58281000000001 179.78394,113.82161 180.00001,113.02083 C 180.23405,112.15339 181.16804,111.83675000000001 181.82534,111.57466000000001 C 182.83544,111.17190000000001 183.65804,111.08779000000001 184.41067,110.55333 C 185.26188000000002,109.94885000000001 185.65264000000002,109.3473 186.17468000000002,108.82533000000001 C 186.97847000000002,108.02162000000001 187.52133000000003,107.26467000000001 188.41067,107.036 C 189.29351,106.809 190.03895,107.07082 191.00001,106.83333 C 191.82284,106.63000000000001 192.42456,106.27122 193.4,105.51733 C 194.0162,105.04108000000001 194.54383,104.41685 195.60001,104.11433 C 196.37571,103.89215 197.40438,104.05449999999999 198.2,103.96399 C 199.21068,103.84902 199.79447,103.52038999999999 200.68534,103.28398999999999 C 201.66849,103.02309999999999 202.48833,103.05995999999999 203.23067,102.91599 C 204.21311,102.72546 204.9536,102.20291999999999 206.00983,102.05716 C 206.77944,101.95094999999999 207.83333,101.99999 208.54734,101.99999 C 209.45266999999998,101.99999 210.42265,102.0239 211.24668,101.97865999999999 C 211.84790999999998,101.94565999999999 213.17254,101.68383999999999 213.88401,101.43198999999998 C 214.63192999999998,101.16722999999999 215.36558,100.82552999999999 216.11599999999999,100.56798999999998 C 217.16678,100.20737999999999 218.15201,100.05261999999998 218.75332999999998,100.02131999999997 C 219.83208,99.96517999999998 220.76400999999998,99.99998999999997 221.59866999999997,99.99998999999997 C 222.60000999999997,99.99998999999997 223.39999999999998,99.99998999999997 224.40133999999998,99.99998999999997 C 225.02083,99.99998999999997 226.16667999999999,99.99998999999997 226.94816999999998,99.99998999999997 C 227.73866999999998,99.99998999999997 228.87730999999997,99.88111999999997 229.65066999999996,100.07198999999997 C 230.58883999999998,100.30353999999997 231.26974999999996,100.86517999999997 231.82133999999996,101.18531999999998 C 232.40032999999997,101.52137999999998 233.59512999999995,102.12322999999998 234.18933999999996,102.36398999999997 C 235.03795999999997,102.70781999999997 236.09436999999997,103.06824999999998 236.77467999999996,103.42131999999997 C 237.47023999999996,103.78230999999997 238.42332999999996,104.54053999999996 238.95717999999997,105.00531999999997 C 239.52278999999996,105.49775999999997 240.06860999999998,106.04536999999996 241.00000999999997,106.66664999999998 C 241.86482999999998,107.24351999999998 242.51245999999998,107.44498999999998 243.31467999999998,107.96798999999997 C 244.11550999999997,108.49008999999997 244.53960999999998,109.01244999999997 245.22534,109.74931999999997 C 245.67895,110.23674999999997 246.67920999999998,111.04286999999997 247.23601,111.34931999999996 C 248.09538999999998,111.82230999999996 249.01576,112.31250999999996 249.59601,112.76797999999997 C 250.18474,113.23010999999997 250.99526,113.94316999999997 251.50002,114.66664999999996 C 252.0338,115.43169999999996 252.20389,116.32928999999996 252.52085,117.02081999999996 C 252.97505999999998,118.01180999999995 253.38935,118.79998999999995 253.64285999999998,119.39998999999996 L 253.91469999999998,120.39998999999996 L 253.98935999999998,121.19998999999996" fill="none" id="svg_4" stroke="#000" stroke-width="2"/>
	<path d="M 172.0,143.0 C 174.744,148.14267 174.96873,148.9153 175.0,149.9785 C 175.02107,150.69519 175.0,151.60001 175.0,152.52083 C 175.0,153.48399999999998 174.8703,154.18312 175.0045,155.24283 C 175.1156,156.12016 175.76321000000002,156.72695 175.94284000000002,157.65267 C 176.10763000000003,158.50197 176.00000000000003,159.47918 176.00000000000003,160.30451 C 176.00000000000003,161.32134 175.88254000000003,162.00709999999998 176.00017000000003,162.97834 C 176.11164000000002,163.8987 176.95729000000003,164.28358 177.00000000000003,165.16668 C 177.04025000000001,165.99903 177.00000000000003,166.97851 177.00000000000003,167.79867000000002 C 177.00000000000003,168.63601000000003 176.74187000000003,169.75645000000003 177.17067000000003,170.43067000000002 C 177.62618000000003,171.14689 178.87738000000002,171.19680000000002 179.00000000000003,172.10018000000002 C 179.10559000000003,172.87820000000002 178.98842000000002,173.82543 179.00000000000003,174.51601000000002 C 179.01801000000003,175.58980000000003 179.55165000000002,176.35509000000002 179.83333000000002,177.16668 C 180.11072000000001,177.9659 180.00000000000003,178.97851 180.00000000000003,179.79867000000002 C 180.00000000000003,180.63601000000003 179.89236000000002,181.49804 180.05716000000004,182.34735 C 180.23679000000004,183.27307000000002 180.93510000000003,184.09334 180.99550000000005,184.81435000000002 C 181.07532000000006,185.76735000000002 181.00000000000006,186.54169000000002 181.00000000000006,187.40268000000003 C 181.00000000000006,188.59735000000003 180.99699000000007,189.17868000000004 181.00000000000006,189.98569000000003 C 181.00450000000006,191.19472000000005 181.13919000000007,191.98447000000004 181.56934000000007,192.76935000000003 C 181.99067000000008,193.53816000000003 182.37961000000007,194.03542000000004 182.97834000000006,195.07868000000002 C 183.37186000000005,195.76438000000002 183.69973000000007,196.43949 183.87867000000006,197.42151 C 184.02569000000005,198.22836 184.00689000000006,199.11188 184.22134000000005,200.29985000000002 C 184.32969000000006,200.90012000000002 184.61380000000005,201.75531 184.83334000000005,202.83334000000002 C 184.97776000000005,203.54255000000003 185.04847000000004,204.47599000000002 185.44285000000005,205.42167000000003 C 185.67472000000004,205.97767000000005 186.20445000000004,206.83712000000003 186.51734000000005,207.48667000000003 C 187.00895000000006,208.50722000000002 187.25202000000004,209.24984000000003 187.47918000000004,210.00001000000003 C 187.70466000000005,210.74462000000003 187.97921000000005,211.83987000000002 188.30451000000005,212.83834000000004 C 188.50792000000004,213.46268000000003 188.83378000000005,214.34602000000004 189.48534000000004,215.31734000000006 C 189.81112000000005,215.80300000000005 190.43081000000004,216.49144000000007 191.00000000000003,217.33333000000005 C 191.42122000000003,217.95635000000004 191.80367000000004,218.66548000000006 192.23599000000002,219.38533000000004 C 192.67822,220.12166000000005 193.40924,221.18867000000003 193.95717000000002,221.84734000000003 C 194.50868000000003,222.51030000000003 194.81639,222.82026000000002 195.40134000000003,223.48400000000004 C 196.30878000000004,224.51369000000003 196.89957000000004,225.25405000000003 197.18933000000004,225.63601000000003 C 197.77228000000005,226.40446000000003 198.32825000000005,227.19270000000003 198.83333000000005,228.00001000000003 C 199.32948000000005,228.79306000000003 199.77596000000005,229.60998000000004 200.00000000000006,230.02084000000002 C 200.45528000000004,230.85576000000003 201.16342000000006,232.16853000000003 201.42166000000006,232.62135 C 201.95499000000007,233.55653 202.24113000000006,234.02884 202.54167000000007,234.50001 C 203.15051000000005,235.45454 203.45482000000007,235.94081 204.52167000000006,237.27851 C 204.87628000000007,237.72315 205.64284000000006,238.56768000000002 206.04167000000007,238.97918 C 206.44284000000007,239.39307000000002 207.27977000000007,240.20632 208.16667000000007,241.00001 C 208.61802000000006,241.40393 209.55594000000008,242.20147 210.03599000000006,242.60002 C 210.51959000000005,243.00149 211.00909000000004,243.40196 212.00132000000005,244.20001 C 212.99842000000004,245.00198 213.49899000000005,245.4017 214.00266000000005,245.80002 C 215.01862000000006,246.60345999999998 215.53953000000004,247.00286 216.07200000000006,247.40000999999998 C 216.61218000000005,247.80291999999997 217.15899000000005,248.21725999999998 218.33332000000007,249.00001999999998 C 219.55874000000009,249.81683999999998 220.21191000000007,250.19959999999998 220.87199000000007,250.58935999999997 C 221.53924000000006,250.98333999999997 222.21917000000008,251.36796999999996 222.90899000000007,251.74284999999998 C 223.60052000000007,252.11865999999998 224.99822000000006,252.83697999999998 225.70033000000006,253.17869 C 226.40091000000007,253.51966 227.10792000000006,253.84967999999998 227.82133000000007,254.17469 C 228.54060000000007,254.50236999999998 229.27160000000006,254.82626 230.01432000000008,255.15269 C 230.7702600000001,255.48493000000002 232.33315000000007,256.16705 233.1430000000001,256.52121 C 233.97050000000007,256.88309 234.8130600000001,257.25119 235.67199000000008,257.61469 C 236.5404000000001,257.98221 237.41908000000006,258.34445999999997 238.30900000000008,258.69019 C 239.2004300000001,259.0365 240.99763000000007,259.67413999999997 241.90016000000008,259.95736999999997 C 242.7990200000001,260.23943999999995 243.70384000000007,260.49706999999995 244.61067000000008,260.74935999999997 C 245.5201700000001,261.00240999999994 246.43678000000008,261.24792999999994 247.35716000000008,261.50536999999997 C 248.28613000000007,261.76523 250.16877000000008,262.32692999999995 251.12083000000007,262.6427 C 252.08216000000007,262.96155 253.04040000000006,263.30197 253.99333000000007,263.6507 C 254.93873000000008,263.99667999999997 255.86693000000008,264.34869999999995 256.77585000000005,264.69471 C 257.6602500000001,265.03138 259.33237,265.66935 260.1145,265.95704 C 260.86175000000003,266.23191 261.58362,266.4893 262.28799000000004,266.72804 C 262.97796000000005,266.9619 263.66412,267.18269000000004 264.35348000000005,267.39103 C 265.04946000000007,267.60139 266.49932000000007,268.00266 267.26434000000006,268.2002 C 268.05395000000004,268.40409 268.86706000000004,268.60428 269.69732000000005,268.8107 C 270.54171,269.02063 271.39678000000004,269.23297 272.25634,269.45718 C 273.11944,269.68231 274.83498000000003,270.16131 275.67849,270.42154 C 276.51635,270.68002 277.34408,270.95355 278.16399,271.23602 C 278.98040000000003,271.51727 279.79,271.8089 280.59548,272.10452 C 281.39934,272.39955999999995 282.9999,273.00023999999996 283.79934000000003,273.29967999999997 C 284.59457000000003,273.59756 285.38165000000004,273.89196999999996 286.15731000000005,274.17870999999997 C 286.91631000000007,274.45928999999995 287.65536000000003,274.72983 288.37133000000006,274.98569 C 289.05804000000006,275.23107999999996 290.33211000000006,275.6705 290.91433000000006,275.85688 C 291.46020000000004,276.03162 291.97884000000005,276.18681 292.4773200000001,276.31736 C 292.95693000000006,276.44297 293.4281000000001,276.54914 293.8963300000001,276.63386 C 294.36419000000006,276.71852 295.3329800000001,276.83784 295.8423400000001,276.87870000000004 C 296.3649800000001,276.92060000000004 296.8962600000001,276.94828 297.4293200000001,276.97471 C 297.9583100000001,277.00096 298.47748000000007,277.02265 298.9803500000001,277.05271 C 299.4614900000001,277.08146 300.7141800000001,277.22138 301.3758300000001,277.35269999999997 L 302.1933300000001,277.57471999999996" fill="none" id="svg_5" stroke="#000" stroke-width="2"/>
</svg>
