<?xml version="1.0" ?>
<svg baseProfile="full" height="480" version="1.1" width="640" xmlns="http://www.w3.org/2000/svg" xmlns:ev="http://www.w3.org/2001/xml-events" xmlns:xlink="http://www.w3.org/1999/xlink">
	<defs/>
	<path d="M 214.0,137.0 C 211.39999,136.05716 210.60001,136.00226 209.59866,136.0 C 208.76399999999998,135.99812 207.57882,136.0 206.78534,136.0 C 206.00983,136.0 204.968,136.0 204.19467,136.0 C 203.23199,136.0 202.5,136.0 201.768,136.0 C 200.65066,136.0 199.66667,136.0 198.99465,136.0 C 198.00533000000001,136.0 196.97066,136.0 196.20266,136.0 C 195.328,136.0 194.45733,136.0 193.49999,136.0 C 192.768,136.0 191.80532,136.0 191.03199,136.0 C 189.99465,136.0 189.25066,136.0 188.14283,136.0 C 187.38532,136.0 186.34733,136.0 185.65266,136.0 C 184.636,136.0 183.69549,136.0 182.83332,136.0 C 181.99999,136.0 180.48265999999998,135.46083 180.48265999999998,136.0 C 180.48265999999998,136.83884 182.21066,136.0 183.19998999999999,136.0 C 183.99999,136.0 184.99999,136.0 185.78932999999998,136.0 C 186.51466,136.0 187.58933,135.99992 188.41064999999998,136.0 C 189.32133,136.00009 190.22331999999997,135.8959 191.11466,136.284 C 191.85639999999998,136.60694999999998 192.63691999999998,136.95847 193.65265,137.00449999999998 C 194.3486,137.03603999999999 195.15573,137.53265 196.10016,137.87848999999997 C 196.84601999999998,138.15161999999998 197.99768,137.72034999999997 198.66665999999998,138.33331999999996 C 199.20950999999997,138.83072999999996 199.35921,139.87153999999995 200.20132999999998,140.00131999999996 C 201.16929,140.15048999999996 201.80198,140.48855999999998 202.83332,140.83331999999996 C 203.54004999999998,141.06955999999997 204.15571,141.61862999999997 204.80131999999998,142.16931999999997 C 205.50283,142.76767999999998 205.82458999999997,143.58530999999996 206.48397999999997,144.11331999999996 C 207.12321999999998,144.62518999999995 208.33414999999997,144.81318999999996 208.94731,145.35264999999995 C 209.54264999999998,145.87643999999995 209.73179,146.81237999999996 210.16931,147.43199999999996 C 210.66402,148.13258999999996 211.88339,148.08768999999995 212.47915,148.52081999999996 C 213.28173,149.10432999999995 213.75053,149.76385999999997 214.48397,150.48265999999995 C 214.9954,150.98387999999994 215.93484,151.50769999999994 216.55331,152.01465999999996 C 217.23349000000002,152.57219999999995 217.76474000000002,152.93009999999995 218.64814,153.00449999999995 C 219.67583000000002,153.09105999999994 219.99990000000003,153.45832999999996 219.99998000000002,152.58933999999996 C 220.00007000000002,151.67865999999995 219.93128000000002,150.79136999999997 220.28398,149.88265999999996 C 220.56694000000002,149.15362999999996 220.91598000000002,148.23198999999997 220.99998000000002,147.49999999999997 C 221.08398000000003,146.76800999999998 221.57881000000003,145.74349999999998 221.87847000000002,144.89982999999998 C 222.14432000000002,144.15133999999998 221.99998000000002,143.17467 221.99998000000002,142.48399999999998 C 221.99998000000002,141.41066999999998 222.01901,140.58915 221.99981000000002,139.67866999999998 C 221.98182000000003,138.82476999999997 221.84768000000003,137.73944999999998 221.19865000000001,137.28667 C 220.46783000000002,136.77684 219.50842,136.7282 218.78932,136.38932999999997 C 217.79083,135.91878999999997 217.21196,135.54169999999996 216.31465,135.28533999999996 C 215.33609,135.00576999999996 214.48831,135.09496999999996 213.76932,134.83066999999997 C 212.73773,134.45145999999997 212.25181999999998,133.70532999999998 211.51599,133.17066999999997 L 210.65265,133.009" fill="none" id="svg_1" stroke="#000" stroke-width="2"/>
	<path d="M 212.0,146.0 C 207.48801,147.82933 206.85898,147.95636 206.01883,147.991 C 204.80632,148.04099000000002 204.032,148.0 203.232,148.0 C 202.25068,148.0 201.32879,147.9314 200.50001,148.02083 C 199.44438,148.13474 198.7534,148.43941999999998 198.00535,148.64733999999999 C 196.97324999999998,148.93420999999998 196.19457,148.98559999999998 195.232,149.00133 C 194.49984,149.01328999999998 193.32926,149.15618 192.65067,149.42534 C 191.66049999999998,149.81810000000002 190.98134,149.88345 190.25068,150.06134 C 189.11214999999999,150.33852 188.73973999999998,150.96315 188.03200999999999,151.43201 C 187.08664,152.05830999999998 186.22892,151.91654 185.33334,152.16666999999998 C 184.4689,152.40811 183.67203999999998,152.87896999999998 182.74934,152.96399999999997 C 182.00781999999998,153.03233999999998 180.97068,152.99999999999997 180.20268,152.99999999999997 C 179.32801999999998,152.99999999999997 178.23105999999999,152.97892999999996 177.50000999999997,153.02082999999996 C 176.76637999999997,153.06287999999995 175.86571999999998,153.48867999999996 174.83333999999996,153.83332999999996 C 174.08919999999998,154.08173999999997 174.12557999999996,153.93244999999996 175.00000999999997,154.33332999999996 C 175.64523999999997,154.62913999999995 176.18195999999998,155.26157999999995 177.16667999999999,155.66666999999995 C 177.91724,155.97542999999996 178.73852,155.98932999999997 179.85734,155.99999999999994 C 180.65063999999998,156.00756999999993 181.54267,155.99999999999994 182.50001,155.99999999999994 C 183.232,155.99999999999994 184.34934,155.99999999999994 185.33334,155.99999999999994 C 186.00535,155.99999999999994 186.7499,155.96470999999994 187.85717,156.00016999999994 C 188.74953,156.02874999999995 189.47388,156.31440999999995 190.21067,156.57465999999994 C 191.18652,156.91935999999993 191.99993,156.98291999999995 193.00001,156.99999999999994 C 193.79997,157.01365999999993 194.61332000000002,157.03975999999994 195.60002,157.35265999999993 C 196.41267,157.61036999999993 197.42283,157.82233999999994 198.16402,158.06133999999992 C 199.01996,158.33733999999993 199.4108,159.36945999999992 200.20269,159.8293299999999 C 200.88253,160.22413999999992 201.76802999999998,159.99999999999991 202.74935,159.99999999999991 C 203.66669,159.99999999999991 204.59017,160.01236999999992 205.41067999999999,160.42533999999992 C 206.17803999999998,160.81155999999993 206.99984999999998,160.98957999999993 207.97851999999997,160.99999999999991 C 208.79862999999997,161.00872999999993 209.47241999999997,161.24106999999992 210.16934999999998,161.71599999999992 C 210.90585,162.21788999999993 211.97851999999997,161.99999999999991 212.79868,161.99999999999991 C 213.63602,161.99999999999991 214.66716,162.0934399999999 215.34735999999998,161.9428399999999 C 216.39691,161.7104499999999 216.93787999999998,160.9066299999999 216.99869999999999,160.1146699999999 C 217.07067999999998,159.1774299999999 217.00002999999998,158.1666699999999 217.00002999999998,157.4106599999999 C 217.00002999999998,156.4791699999999 217.00002999999998,155.51600999999988 217.00002999999998,154.8253299999999 L 217.00002999999998,153.8826599999999 L 217.00002999999998,153.0306699999999" fill="none" id="svg_2" stroke="#000" stroke-width="2"/>
	<path d="M 218.0,138.0 C 218.0,134.46167 217.74739,133.62463 218.02133,132.636 C 218.24783,131.81857 219.30133,131.47325 219.75717,130.67866 C 220.11249,130.05929 220.26718,129.04682 220.64734,128.30450000000002 C 221.0791,127.46143000000002 221.69919000000002,127.01643000000001 222.48267,126.43066000000002 C 223.02015,126.02881000000002 223.50119,125.05972000000001 224.01467000000002,124.44666000000002 C 224.56147,123.79381000000002 225.58117000000001,123.50269000000003 225.87884000000003,122.67883000000002 C 226.16346000000001,121.89105000000002 226.57655000000003,121.19376000000003 227.35185,120.95183000000002 C 228.25209,120.67092000000001 228.99998000000002,119.99996000000002 229.52084000000002,119.47916000000002 C 230.3213,118.67878000000002 230.79202,118.14595000000003 231.34735000000003,117.70983000000003 C 232.19215000000003,117.04638000000003 232.84692000000004,116.41115000000002 233.54169000000005,116.00000000000003 C 234.23917000000006,115.58723000000003 235.17148000000006,115.41674000000003 235.97852000000003,115.12117000000003 C 236.79554000000005,114.82194000000004 237.43517000000003,114.15946000000004 237.71468000000004,113.48267000000004 C 238.13170000000005,112.47293000000005 238.73209000000006,112.14857000000003 239.51735000000005,111.91600000000004 C 240.52216000000004,111.61842000000004 241.22321000000005,111.13823000000004 241.97069000000005,110.83067000000004 C 242.79508000000004,110.49147000000004 243.48154000000005,109.96703000000004 244.23201000000006,109.56801000000004 C 245.17337000000006,109.06749000000005 245.97086000000007,108.92832000000004 246.77068000000006,108.71601000000004 C 247.54458000000005,108.51059000000004 248.39568000000006,108.23599000000004 249.59736000000007,108.08534000000004 C 250.17625000000007,108.01276000000004 251.23615000000007,108.10947000000004 252.18569000000008,107.99550000000005 C 253.11886000000007,107.88349000000005 253.72765000000007,107.23960000000005 254.65719000000007,107.05717000000006 C 255.39234000000008,106.91288000000006 256.4000200000001,107.00000000000006 257.20004000000006,107.00000000000006 C 258.20004000000006,107.00000000000006 259.00003000000004,107.00000000000006 260.00003000000004,107.00000000000006 C 260.80002,107.00000000000006 261.60275,107.06512000000005 262.59552,106.99100000000006 C 263.34814,106.93480000000005 264.18277,106.22055000000006 264.80988,105.70533000000006 C 265.47937,105.15528000000006 266.24894,105.03872000000005 267.23203,105.00267000000007 C 268.19407,104.96739000000007 268.96802,105.00000000000007 270.00986,105.00000000000007 C 270.78537,105.00000000000007 271.83405,105.02689000000007 272.53836,104.99550000000008 C 273.51575,104.95193000000008 274.32169,104.44895000000008 275.16669,104.16667000000008 C 275.98859000000004,103.89211000000009 277.00003000000004,104.00001000000009 277.8107,104.00001000000009 C 278.45718,104.00001000000009 279.68271,104.00001000000009 280.47919,104.00001000000009 C 281.23069000000004,104.00001000000009 282.19471000000004,104.00001000000009 282.96802,104.00001000000009 C 284.01438,104.00001000000009 284.82135000000005,104.00001000000009 286.00003000000004,104.00001000000009 C 286.59869000000003,104.00001000000009 287.47919,104.00001000000009 288.3147,104.00001000000009 C 289.31604000000004,104.00001000000009 290.22538000000003,104.00001000000009 291.16669,104.00001000000009 C 291.94821,104.00001000000009 292.73871,104.00001000000009 293.85736,104.00001000000009 C 294.65069000000005,104.00001000000009 295.54391000000004,103.96846000000009 296.50003000000004,104.0208500000001 C 297.23376,104.0610500000001 298.20886,104.34086000000009 298.80536000000006,104.7616800000001 C 299.56189000000006,105.2954100000001 300.24570000000006,105.8643600000001 301.10904000000005,106.29018000000009 C 301.97653,106.71805000000009 302.89081000000004,106.8651800000001 303.69202000000007,107.0146700000001 C 304.6418500000001,107.1918900000001 305.32328000000007,107.89892000000009 306.0625300000001,107.9791700000001 C 307.1604300000001,108.0983500000001 307.9507700000001,107.9650200000001 308.7387100000001,108.03601000000009 C 309.6720600000001,108.1201000000001 310.47019000000006,108.58744000000009 311.3333800000001,108.83334000000009 C 311.9896300000001,109.02029000000009 313.0687900000001,108.9598700000001 313.85721000000007,109.44267000000009 C 314.56943000000007,109.8788000000001 315.1428900000001,110.7348500000001 315.83603000000005,110.93867000000009 C 316.5831600000001,111.15836000000009 317.60892000000007,111.33741000000009 318.4000300000001,111.70450000000008 C 319.20963000000006,112.08017000000008 320.02015000000006,112.48963000000008 320.6000400000001,112.88533000000008 C 321.6389500000001,113.59425000000009 322.1401400000001,114.24318000000008 323.0000300000001,114.66666000000008 C 323.7490200000001,115.03553000000008 324.5979600000001,114.93291000000008 325.4791900000001,115.52083000000007 C 326.1855800000001,115.99211000000007 326.7975200000001,116.71010000000007 327.7680400000001,116.91733000000008 C 328.4910300000001,117.07170000000008 329.3332600000001,117.01998000000007 330.1901900000001,117.70983000000008 C 330.68671000000006,118.10954000000008 331.30259000000007,119.00499000000008 332.0000300000001,119.47916000000008 C 332.8127100000001,120.03168000000008 333.5162700000001,120.49340000000008 334.1001900000001,121.32116000000008 C 334.5503900000001,121.95933000000008 335.1428800000001,122.73484000000008 335.8360300000001,122.93866000000008 C 336.58316000000013,123.15835000000008 337.6237800000001,123.30191000000008 338.3428700000001,123.70449000000008 C 339.28995000000015,124.23473000000008 339.74720000000013,124.76275000000008 340.4840400000001,125.48266000000008 C 340.9962500000001,125.98307000000008 341.8938900000001,126.56560000000007 342.5893600000001,127.05066000000008 C 343.3896200000001,127.60881000000008 343.5937500000001,128.2523300000001 344.3213500000001,129.19999000000007 C 344.79858000000013,129.82153000000008 345.3818400000001,130.37394000000006 345.9785200000001,131.19965000000008 C 346.51093000000014,131.93641000000008 347.0255800000001,132.63033000000007 347.63602000000014,133.08666000000008 C 348.35382000000016,133.62325000000007 348.82465000000013,134.28719000000007 349.3473500000001,134.99915000000007 C 349.97763000000015,135.85764000000006 350.4739100000001,136.46347000000006 351.2013500000001,137.20133000000007 C 351.7532300000001,137.76110000000006 352.48403000000013,138.48398000000006 353.0000300000001,138.99999000000008 C 353.5160200000001,139.51600000000008 354.3142700000001,140.20180000000008 354.7987100000001,140.9693200000001 C 355.2761300000001,141.7256800000001 355.4562400000001,142.5359100000001 355.8853800000001,143.2319800000001 C 356.4082100000001,144.0800200000001 357.35016000000013,144.4109400000001 357.8902000000001,145.3089900000001 C 358.2453300000001,145.89954000000012 358.35214000000013,147.0159300000001 358.6106900000001,147.8213200000001 C 358.7977000000001,148.4038400000001 359.2023600000001,149.5961300000001 359.3893800000001,150.1786500000001 C 359.64792000000006,150.98404000000008 359.69227000000006,152.1607800000001 360.3333800000001,152.99998000000008 C 360.73435000000006,153.52485000000007 361.7233000000001,154.14602000000008 361.9387000000001,154.8253100000001 C 362.2510500000001,155.81043000000008 362.6053600000001,156.43023000000008 362.9473700000001,157.3044800000001 C 363.2714700000001,158.13297000000009 363.5365100000001,159.0085100000001 363.7160500000001,159.6013100000001 C 364.0134700000001,160.5834000000001 364.0078900000001,161.4533900000001 364.5680400000001,162.39864000000009 C 364.9369400000001,163.0211700000001 365.7946300000001,163.79216000000008 365.9583900000001,164.5208000000001 C 366.18263000000013,165.5186000000001 365.9538400000001,166.2564000000001 366.0572100000001,166.9946300000001 C 366.2040900000001,168.0436400000001 366.74038000000013,168.78873000000007 367.0253800000001,169.6359700000001 C 367.3084600000001,170.4774900000001 367.6612400000001,171.1880900000001 367.8785600000001,172.1999700000001 C 368.0478700000001,172.9883000000001 368.0000500000001,173.9999700000001 368.0000500000001,174.78931000000009 C 368.0000500000001,175.8333000000001 367.8538400000001,176.60709000000008 368.0417100000001,177.5416400000001 C 368.2079700000001,178.3687700000001 368.7145300000001,178.99991000000009 369.14938000000006,179.7493000000001 C 369.6779400000001,180.6602200000001 369.9715500000001,181.49953000000008 370.00021000000004,182.5426300000001 C 370.01965,183.2504500000001 369.94271000000003,184.02647000000007 370.28405000000004,185.03196000000008 C 370.55871,185.84104000000008 370.93716000000006,186.76634000000007 370.97921,187.49996000000007 C 371.02111,188.23101000000008 371.00005000000004,189.33863000000008 371.00005000000004,190.32146000000006 C 371.00005000000004,191.02079000000006 371.00005000000004,191.99996000000007 371.00005000000004,192.79996000000006 C 371.00005000000004,193.59996000000007 370.94185000000004,194.60657000000006 371.05721000000005,195.39995000000005 C 371.2047600000001,196.41467000000006 371.65896000000004,197.17815000000004 371.87856000000005,198.19979000000004 C 372.04369,198.96805000000003 372.00005000000004,199.97846000000004 372.00005000000004,200.79862000000003 L 372.00005000000004,201.63596000000004" fill="none" id="svg_3" stroke="#000" stroke-width="2"/>
	<path d="M 201.0,170.0 C 203.892,172.38533 204.0,173.33333 204.0,174.25067 C 204.0,174.99466 203.98421,176.02949 204.0,176.79733000000002 C 204.01801,177.67254000000003 204.21957,178.54318 204.5,179.50000000000003 C 204.71466,180.23239000000004 204.9592,181.18935000000002 205.0,182.16667000000004 C 205.03477,182.99953000000005 205.0401,183.93054000000004 205.64667,184.58934000000005 C 206.21977,185.21179000000004 207.19303,185.35812000000004 207.75701,186.32133000000005 C 208.11469,186.93222000000006 207.66776000000002,188.13497000000004 208.22133,188.87866000000005 C 208.70168999999999,189.52398000000005 209.0,190.16667000000007 209.0,191.00000000000006 C 209.0,191.97850000000005 209.0,192.79866000000007 209.0,193.63600000000005 C 209.0,194.65266000000005 209.0,195.34733000000006 209.0,196.36400000000006 C 209.0,197.30451000000005 209.0,198.16667000000007 209.0,199.00000000000006 C 209.0,199.97850000000005 209.0,200.79866000000007 209.0,201.67200000000005 C 209.0,202.54267000000004 209.0,203.50000000000006 209.0,204.23200000000006 C 209.0,205.32801000000006 209.0,206.20267000000007 209.0,206.97068000000004 C 209.0,208.00535000000005 209.0,208.74934000000005 209.0,209.66668000000004 C 209.0,210.61468000000005 209.0,211.48400000000004 209.0,212.34734000000003 C 209.0,213.24283000000003 209.0,214.20134000000004 209.0,215.16668000000004 C 209.0,215.82534000000004 209.0,216.83334000000005 209.0,217.69550000000004 C 209.0,218.52083000000005 209.0,219.48400000000004 209.0,220.34734000000003 C 209.0,221.24283000000003 209.0,222.20134000000004 209.0,223.16668000000004 C 209.0,223.82534000000004 209.0,224.83334000000005 209.0,225.69550000000004 C 209.0,226.52083000000005 209.0,227.48400000000004 209.0,228.34734000000003 C 209.0,229.24283000000003 209.07489,230.21509000000003 208.91467,230.88533000000004 C 208.68228,231.85754000000003 208.16464,232.49112000000005 208.02083,233.47917000000004 C 207.88663,234.40118000000004 208.00121,235.32133000000005 208.0,236.17467000000005 C 207.99866,237.11467000000005 207.65063,237.98056000000005 207.14934,238.41066000000004 C 206.30509,239.13499000000004 206.03602999999998,239.82341000000002 206.0,240.83333000000005 C 205.96927,241.69495000000003 206.0,242.54167000000004 206.0,243.54267000000004 C 206.0,244.25068000000005 206.0,244.99467000000004 206.0,246.19018000000005 C 206.0,246.88267000000005 206.13719,247.85966000000005 205.83333,248.83334000000005 C 205.60571,249.56269000000006 205.14443,250.33018000000004 205.02533,251.25068000000005 C 204.92934,251.99256000000005 204.64969,253.00419000000005 204.35266,253.80534000000006 C 204.00531999999998,254.74214000000006 204.01152,255.49983000000006 204.00133,256.23201000000006 C 203.98578,257.34923000000003 204.01197,258.3335400000001 203.9955,259.00536000000005 C 203.97725,259.74981 203.74233999999998,260.84215000000006 203.42534,261.6506800000001 C 203.08138,262.5280000000001 203.01935,263.2502300000001 203.00133,264.23201000000006 C 202.98368,265.19453000000004 203.0,265.9680000000001 203.0,267.00536000000005 C 203.0,267.74935000000005 203.00018,268.66668000000004 203.0,269.6506800000001 C 202.99983,270.5426800000001 203.08478,271.2718000000001 202.88567,271.9946700000001 C 202.58565000000002,273.0838700000001 201.59171,273.3883200000001 201.11434,274.3090000000001 C 200.80546,274.9047300000001 201.00001,276.0053500000001 201.00001,276.7493400000001 C 201.00001,277.8573400000001 201.00001,278.6506800000001 201.00001,279.5428600000001 C 201.00001,280.2613400000001 201.00001,281.05183000000005 201.00001,282.3160200000001 C 201.00001,283.0000100000001 201.00001,284.16667000000007 201.00001,284.9571600000001 C 201.00001,285.8106800000001 201.00001,286.4013400000001 201.00001,287.5986700000001 C 201.00001,288.4791600000001 201.00001,289.0428500000001 201.00001,290.3160200000001 C 201.00001,291.0000100000001 201.00001,292.16667000000007 201.00001,292.9571600000001 C 201.00001,293.8106800000001 201.00001,294.4013400000001 201.00001,295.5986700000001 C 201.00001,296.4791600000001 201.00001,297.0428500000001 201.00001,298.3146700000001 C 201.00001,298.9791600000001 201.00001,300.0000000000001 201.00001,300.7999900000001 C 201.00001,301.6000100000001 201.00001,302.6044900000001 201.00001,303.4571600000001 C 201.00001,304.4216700000001 201.00001,305.2466800000001 201.00001,306.1616600000001 C 201.00001,307.1666600000001 201.00001,307.8840100000001 201.00001,308.6253400000001 C 201.00001,309.7473500000001 201.00001,310.8333500000001 201.00001,311.5133400000001 C 201.00001,312.4583500000001 201.00001,313.0383300000001 201.00001,314.3173300000001 C 201.00001,315.0208500000001 200.98516,315.7694800000001 201.00268,316.9693400000001 C 201.01278,317.6615400000001 201.01972,318.3943300000001 201.17068,319.1173500000001 C 201.46792,320.5410300000001 201.85975,321.1754600000001 202.18534,321.8253600000001 C 202.51572,322.4848400000001 202.99505,323.5157900000001 203.24284,324.2571800000001 C 203.49623,325.0153600000001 203.69792,325.8039000000001 204.00001,327.00001000000015 C 204.20162,327.7982900000001 204.39701,328.5901000000001 204.60002,329.36402000000015 C 204.79712,330.11542000000014 205.07545,331.18659000000014 205.41067,332.15333000000015 C 205.62065,332.7588900000002 206.14517,333.8485200000002 206.65718,334.55183000000017 C 207.00648,335.03166000000016 207.63228,335.7489400000002 208.19968,336.6428300000002 C 208.61412,337.29575000000017 208.9887,338.00800000000015 209.28568,338.7518400000002 C 209.71087,339.8167500000002 209.88959000000003,340.8491900000002 210.02085000000002,341.5000100000002 C 210.15290000000002,342.1547000000002 210.65479000000002,343.5262600000002 210.85335000000003,343.8826700000002 C 211.26737000000003,344.6257700000002 211.76253000000003,345.3369500000002 212.23335000000003,346.0306800000002 C 212.86072000000004,346.9550600000002 213.33996000000002,347.7550800000002 213.80534000000003,348.5053500000002 C 214.32298000000003,349.33988000000016 214.76648000000003,349.9737000000002 215.27201000000002,350.67201000000017 C 215.81684,351.42460000000017 216.10845000000003,351.8094300000002 217.00001000000003,353.00001000000015 C 217.59831000000003,353.79896000000014 217.89720000000003,354.1942500000001 218.47918000000004,354.9791700000001 C 219.04449000000005,355.7416200000001 219.32302000000004,356.1087200000001 220.07851000000005,357.17869000000013 C 220.54805000000005,357.84367000000015 220.98908000000006,358.49378000000013 221.39550000000006,359.1526900000001 C 222.01525000000007,360.1574200000001 222.40166000000005,360.8831300000001 222.80001000000004,361.62535000000014 C 223.20168000000004,362.37379000000016 223.57886000000005,363.12825000000015 224.20034000000004,364.1783600000001 C 224.59571000000005,364.84642000000014 225.00872000000004,365.4868600000001 225.51434000000003,366.0383500000001 C 226.28569000000005,366.8796900000001 226.96376000000004,367.3224400000001 227.65068000000002,367.7746800000001 C 228.34511000000003,368.2318600000001 229.07902,368.6286500000001 229.95702000000003,369.4216800000001 C 230.51783000000003,369.9282400000001 230.99036000000004,370.5208000000001 231.59736000000004,371.4866800000001 C 232.23452000000003,372.5005700000001 232.39701000000005,372.8864300000001 232.81069000000005,373.6253500000001 C 233.23160000000004,374.37718000000007 233.64562000000006,375.1446700000001 234.42151000000004,376.17836000000005 C 234.93179000000003,376.85820000000007 235.50478000000004,377.47499000000005 236.10452000000004,378.03835000000004 C 236.97732000000005,378.8582 237.60379000000003,379.31096 238.18934000000004,379.78536 C 238.76914000000005,380.25509000000005 239.36016000000004,380.73159000000004 240.07884000000004,381.64284000000004 C 240.58520000000004,382.28490000000005 240.99870000000004,383.03615 241.50984000000005,383.75185000000005 C 242.29986000000005,384.85805000000005 242.62585000000004,385.19640000000004 243.31434000000004,385.84734000000003 C 244.02445000000003,386.51873 244.42387000000005,386.82238 245.20268000000004,387.48403 C 246.00262000000004,388.16363 246.80125000000004,388.88268 247.20001000000005,389.25268 C 248.00253000000004,389.99734 248.39396000000005,390.38125 249.20001000000005,391.11602 C 249.99411000000003,391.8399 250.79878000000005,392.51751 251.20001000000005,392.84734 C 251.99757000000005,393.50300999999996 252.40584000000004,393.81834999999995 253.20001000000005,394.48402999999996 C 254.00599000000005,395.15959999999995 254.80002000000005,395.88267999999994 255.20001000000005,396.24818999999997 C 256.00000000000006,396.97918 256.38585000000006,397.3554 257.20003,398.03069 C 257.98665000000005,398.68313 258.79405,399.23797 259.58934000000005,399.7387 C 259.97694000000007,399.98275 260.76723000000004,400.4125 261.83336,401.16668 C 262.53414000000004,401.66244 263.18416,402.23739 263.86134000000004,402.81068999999997 C 264.20924,403.10522 265.32380000000006,404.01363 266.16935000000007,404.59734 C 266.6050200000001,404.89808999999997 267.04978000000006,405.19863 267.9853300000001,405.72801999999996 C 268.90638000000007,406.24922999999995 269.82508000000007,406.68742999999995 270.7160100000001,407.03068999999994 C 271.5672400000001,407.35865999999993 272.0003700000001,407.47801999999996 272.8526700000001,407.7481899999999 C 274.1672500000001,408.1649099999999 274.6275100000001,408.3062999999999 275.5616800000001,408.6661899999999 C 276.5481000000001,409.0461899999999 277.0514600000001,409.2725099999999 277.5616800000001,409.51884999999993 C 279.18250000000006,410.30137999999994 279.7235100000001,410.6394199999999 280.2853400000001,410.9693499999999 C 280.8592500000001,411.3063899999999 282.0207200000001,412.0210499999999 282.61066000000005,412.3853699999999 C 283.20438000000007,412.7520399999999 283.79550000000006,413.1272499999999 285.00000000000006,413.8333699999999 C 285.5971400000001,414.1834399999999 286.19601000000006,414.5221199999999 287.39999000000006,415.1640299999999 C 287.99804000000006,415.4828799999999 288.5993900000001,415.79052999999993 289.2000100000001,416.0955199999999 C 289.7994100000001,416.3998699999999 291.5996100000001,417.3006599999999 292.2000100000001,417.5986899999999 C 292.7995900000001,417.8963299999999 293.39844000000005,418.1926199999999 294.00000000000006,418.47917999999993 C 295.19693000000007,419.04936999999995 295.79489000000007,419.32667999999995 297.00000000000006,419.83336999999995 C 297.59769000000006,420.08467999999993 298.19934000000006,420.32131999999996 299.41068000000007,420.77467999999993 C 300.0198700000001,421.00267999999994 300.63678000000004,421.2231999999999 301.25718000000006,421.4526899999999 C 303.16917000000007,422.1599999999999 303.82246000000004,422.4208299999999 304.4906700000001,422.6853599999999 C 305.17545000000007,422.9564499999999 305.87788000000006,423.2380599999999 306.6041600000001,423.5208699999999 C 307.3538500000001,423.81279999999987 308.1306500000001,424.1115099999999 308.9426600000001,424.4013599999999 C 310.6614400000001,425.0148899999999 311.5841100000001,425.3043799999999 312.5373300000001,425.5986899999999 C 313.51377000000014,425.90016999999995 314.5111500000001,426.19231999999994 315.5208500000001,426.47917999999993 C 316.5338500000001,426.7669899999999 317.5458700000001,427.04527999999993 318.5493500000001,427.3146899999999 C 320.49875000000014,427.8380699999999 321.43540000000013,428.07960999999995 322.34534000000014,428.3146899999999 C 323.2327300000001,428.5439399999999 324.10236000000015,428.7651899999999 324.9583500000001,428.97917999999993 C 325.8037200000001,429.1905099999999 326.6432600000001,429.39726999999993 327.4813300000001,429.5986899999999 C 329.1658400000001,430.00353999999993 330.02109000000013,430.2016899999999 330.88535000000013,430.39870999999994 C 331.7567500000001,430.59734999999995 332.6353800000001,430.79222999999996 333.5208500000001,430.97917999999993 C 334.41007000000013,431.16691999999995 335.3033200000001,431.34910999999994 336.2013300000001,431.51469999999995 C 337.9977500000001,431.8459399999999 338.8997200000001,431.98268999999993 339.8026800000001,432.11467999999996 C 340.70841000000013,432.24706999999995 341.62098000000015,432.36706 342.54166000000015,432.47918 C 343.47162000000014,432.59243 344.41407000000015,432.69802 345.37067000000013,432.7987 C 347.33280000000013,433.00518 348.34272000000016,433.09979 349.36801000000014,433.20135 C 350.40536000000014,433.30413 351.45093000000014,433.40823 352.5000000000001,433.52087 C 353.5496200000001,433.63354 354.59561000000014,433.74972 355.6319900000001,433.88537 C 357.6686400000001,434.15197 358.65701000000007,434.31719000000004 359.6239900000001,434.48269000000005 C 360.5683300000001,434.6443100000001 361.4853800000001,434.81442000000004 362.3750000000001,434.97918000000004 C 363.2347400000001,435.13842000000005 364.0611900000001,435.29687000000007 364.85599000000013,435.43069 C 366.3313000000001,435.6791 367.01419000000016,435.76309000000003 367.66535000000016,435.83068000000003 C 368.29328000000015,435.89587 368.9091500000002,435.94131000000004 369.52085000000017,435.97918000000004 C 370.13718000000017,436.01736000000005 370.76795000000016,436.04601 371.4213300000002,436.08270000000005 C 372.83362000000017,436.16198 373.60697000000016,436.21966000000003 374.4213300000002,436.28402000000006 C 375.2679800000002,436.35091000000006 376.1373000000002,436.4255600000001 377.02085000000017,436.50002000000006 C 377.9093100000002,436.57491000000005 378.7935600000002,436.6510200000001 379.66535000000016,436.71602000000007 C 381.3328300000002,436.84035000000006 382.11402000000015,436.88191000000006 382.85999000000015,436.91469000000006 C 383.57572000000016,436.94612000000006 384.2666100000001,436.96639000000005 384.93750000000017,436.97917000000007 C 385.5932900000002,436.99165000000005 386.2391700000002,436.99678000000006 386.88000000000017,436.99867000000006 C 388.1666500000002,437.00248000000005 388.82165000000015,437.0000100000001 389.48666000000014,437.0000100000001 C 390.1616500000001,437.0000100000001 390.84668000000016,437.0000100000001 391.5416500000001,437.0000100000001 C 392.2466700000001,437.0000100000001 392.9616600000001,437.0000100000001 393.6866700000001,437.0000100000001 C 395.1666500000001,437.0000100000001 395.92117000000013,437.0000100000001 396.6826700000001,437.0000100000001 C 397.44817000000006,437.0000100000001 398.21465000000006,437.0000100000001 398.97915000000006,437.0000100000001 C 399.73867000000007,437.0000100000001 400.49017000000003,437.0000100000001 401.2306500000001,437.0000100000001 C 402.66665000000006,437.0000100000001 403.3571800000001,437.0000100000001 404.0306700000001,437.0000100000001 C 404.6901500000001,437.0000100000001 405.3386500000001,437.0000100000001 405.9791600000001,437.0000100000001 C 406.6146600000001,437.0000100000001 407.2481700000001,437.0000100000001 407.8826600000001,437.0000100000001 C 409.1666600000001,437.0000100000001 409.8216600000001,437.0000100000001 410.4866600000001,437.0000100000001 C 411.16165000000007,437.0000100000001 411.8466800000001,437.0000100000001 412.54165000000006,437.0000100000001 C 413.24667000000005,437.0000100000001 413.96166000000005,437.0000100000001 414.68667000000005,437.0000100000001 C 416.16665000000006,437.0000100000001 416.92150000000004,437.0000100000001 417.68533,437.0000100000001 C 418.45715,437.0000100000001 419.23599,437.0000100000001 420.02084,437.0000100000001 C 420.81067,437.0000100000001 421.60449,437.0000100000001 422.40133000000003,437.0000100000001 C 423.99999,437.0000100000001 424.79949000000005,437.00083000000006 425.596,436.99867000000006 C 426.3865,436.9965000000001 427.16802,436.99199000000004 427.93749,436.97917000000007 C 428.69204,436.9666000000001 429.42882000000003,436.9502100000001 430.144,436.91469000000006 C 431.50075,436.84731000000005 432.13677,436.78526000000005 432.74797,436.71202000000005 C 433.34285,436.6407300000001 433.92537,436.54991000000007 434.49998,436.43751000000003 C 435.07743,436.32456 435.66029,436.18992000000003 436.25199,436.02803000000006 C 437.50516,435.6851300000001 438.16558999999995,435.46083000000004 438.85465,435.22935000000007 C 439.56829999999997,434.98960000000005 440.29831,434.7307800000001 441.04163,434.45835000000005 C 441.797,434.18149000000005 442.55747,433.89402000000007 443.31864,433.59733000000006 C 444.83567,433.00602000000003 445.57868,432.70072000000005 446.31464,432.40135000000004 C 447.04303,432.10505000000006 447.76346,431.80940000000004 448.47913,431.52086 C 449.18879,431.23473 449.89356,430.95210000000003 450.59864,430.68535 C 451.99622,430.1566 452.69855,429.91881 453.39597,429.68535 C 454.08558,429.45448000000005 454.76849999999996,429.23763 456.09198,428.81069 C 456.7287,428.60528000000005 457.35042999999996,428.41952000000003 458.49996999999996,428.00002 C 459.54742,427.61779 460.02441,427.41564 460.89581,427.02086 C 461.67669,426.66707 462.66661999999997,426.16667 463.48562,425.75719000000004 L 464.17864,425.41069000000005" fill="none" id="svg_5" stroke="#000" stroke-width="2"/>
</svg>
