<?xml version="1.0" ?>
<svg baseProfile="full" height="480" version="1.1" width="640" xmlns="http://www.w3.org/2000/svg" xmlns:ev="http://www.w3.org/2001/xml-events" xmlns:xlink="http://www.w3.org/1999/xlink">
	<defs/>
	<path d="M 199.0,247.0 C 200.7,246.0045 201.60002,246.0054 202.5,246.0 C 203.38937,245.99466 203.98363,245.35826 204.85867,245.08267 C 205.57656999999998,244.85658 206.23731999999998,244.93286 207.33333,244.66667 C 208.17658,244.46187 209.05564999999999,244.14059 209.94933999999998,243.77867 C 210.39726,243.59727 211.6734,243.01259000000002 212.42798999999997,242.60133000000002 C 213.12372999999997,242.22216000000003 213.73512999999997,241.82359000000002 214.83331999999996,241.16667 C 215.31276999999997,240.87988 216.21597999999994,240.38855 217.16665999999995,240.0 C 217.94541999999996,239.68172 218.50443999999996,239.51184 219.31597999999994,239.2 C 220.31904999999995,238.81456 221.18300999999994,238.446 221.97864999999993,237.89999999999998 C 222.65262999999993,237.43747999999997 223.33037999999993,236.91427 224.02080999999993,236.47917999999999 C 225.01317999999992,235.85380999999998 225.58042999999992,235.33383999999998 226.16397999999992,234.86133999999998 C 226.95891999999992,234.21767999999997 227.78090999999992,234.02399999999997 228.64813999999993,233.64284999999998 C 229.31637999999992,233.34914999999998 229.81253999999993,232.52980999999997 230.35713999999993,231.70001 C 230.72409999999994,231.14087999999998 231.49896999999993,230.46974 232.32113999999993,229.89983999999998 C 232.96299999999994,229.45492 233.72460999999993,228.85284 233.97913999999992,228.00000999999997 C 234.22342999999992,227.18152999999998 234.5869099999999,226.39885999999998 235.3999599999999,226.02533999999997 C 236.1786899999999,225.66759999999996 236.7258599999999,224.95802999999998 237.0839699999999,224.20000999999996 C 237.4412199999999,223.44380999999996 238.3180399999999,222.89290999999997 238.8679699999999,222.57868999999997 C 239.5710599999999,222.17695999999998 240.5027999999999,221.67150999999996 241.2519699999999,221.23067999999998 C 242.07911999999988,220.74398999999997 242.50829999999988,220.49217 243.3419699999999,219.94817999999998 C 244.5119499999999,219.18471999999997 245.1491899999999,218.69307999999998 245.6919799999999,218.24668999999997 C 246.39331999999987,217.66988999999998 247.1967399999999,217.01639999999998 247.7999799999999,216.62534999999997 C 248.5957699999999,216.10946999999996 249.3886599999999,215.50335999999996 249.99997999999988,215.02083999999996 C 250.58939999999987,214.55560999999997 251.5909799999999,214.10983999999996 252.42931999999988,213.91733999999997 L 253.04815999999988,213.35266999999996 L 253.83331999999987,212.83333999999996" fill="none" id="svg_1" stroke="#000" stroke-width="2"/>
	<path d="M 200.0,248.0 C 201.8,248.0 202.7,248.0 203.60001,248.0 C 204.4,248.0 205.3201,247.94553 206.33333,248.16667 C 207.02419999999998,248.31746 207.8217,248.60956000000002 208.40267,248.80133 C 209.59943,249.19638 210.47462,249.49579 211.04284,249.64284 C 212.07115000000002,249.90895 212.99513000000002,249.92156 214.00001,250.16667 C 214.80699,250.36352000000002 215.53335,250.65895 216.47918,251.0 C 217.3196,251.30304 218.00523,251.81606 218.75718,252.05267 C 219.6594,252.33658 220.35760000000002,252.68925000000002 221.24284,253.2955 C 222.00911,253.82028 222.92796,254.06732 223.47918,253.47917 C 224.16573000000002,252.74661 224.00001,251.8 224.00001,250.89999 C 224.00001,250.0 223.98202,249.19981 224.00001,248.3 C 224.01802,247.39946 224.47262,246.61531000000002 225.00001,245.83333000000002 C 225.43089,245.19444000000001 225.81932,244.49709000000001 226.38934,243.63600000000002 C 226.93475,242.81210000000002 227.03546,241.86200000000002 227.70451,241.35716000000002 C 228.45547,240.79052000000001 229.01742,240.28355000000002 229.76168,239.94732000000002 C 230.61976,239.55967 231.36632,239.32331000000002 232.24284,238.70449000000002 C 232.81155,238.30299000000002 233.76129,238.03904000000003 234.50001,237.47916 C 235.16455,236.97553000000002 235.81722,236.32643000000002 236.60002,235.97466 C 237.42024,235.60607 238.02212,234.79909 238.70001,234.35715 C 239.43393,233.87868 240.39306,233.70998 240.87868,232.90015 C 241.3163,232.17037 242.05957,231.71502999999998 242.70001,231.35264999999998 C 243.52079999999998,230.88823 243.96724,230.24102 244.43601999999998,229.59999 C 245.00548999999998,228.82129 245.82404999999997,228.56222 246.56401,227.97465 C 247.24106,227.43704 247.70631,226.77044 248.16669,225.99998 C 248.59661,225.28047999999998 249.49987,225.01265999999998 250.40000999999998,224.99998 C 251.29543999999999,224.98738 251.97468999999998,224.57464 252.52084,224.02080999999998 L 253.47917999999999,223.97914999999998" fill="none" id="svg_2" stroke="#000" stroke-width="2"/>
	<path d="M 213.0,251.0 C 213.80133,248.91733 214.48029,248.45821 215.2,247.80133 C 215.78449999999998,247.26785 216.83559,247.12111000000002 217.47916999999998,246.47917 C 218.12001999999998,245.83995000000002 218.42386,245.18608 219.2,244.71466 C 219.87637999999998,244.30385 220.37699999999998,243.06448 221.29549999999998,243.06166000000002 C 222.05237999999997,243.05934000000002 221.62434,244.14426000000003 221.16666999999998,245.00000000000003 C 220.74338999999998,245.79144000000002 220.18180999999998,246.35994000000002 219.64733999999999,246.94733000000002 C 219.11051999999998,247.53730000000002 218.77849999999998,248.32117000000002 218.38932999999997,249.13868000000002 L 217.80001,249.82934000000003 L 216.89999999999998,250.00018000000003 L 216.2,250.08534000000003" fill="none" id="svg_3" stroke="#000" stroke-width="2"/>
	<path d="M 245.0,214.0 C 243.3,213.94284 242.54753,213.46239 242.05267,212.7045 C 241.59861,212.0091 240.80700000000002,211.59637999999998 240.28399000000002,210.916 C 239.81410000000002,210.30472 239.99999000000003,209.29999999999998 239.99999000000003,208.39999 C 239.99999000000003,207.5 239.99999000000003,206.6 239.99999000000003,205.69999 C 239.99999000000003,204.8 239.91131000000001,203.89561 239.99999000000003,202.99999000000003 C 240.08373000000003,202.15429000000003 241.07125000000002,201.91085000000004 241.60000000000002,201.35332000000002 C 242.30885000000004,200.60590000000002 242.53768000000002,199.78302000000002 243.10000000000002,199.02165000000002 C 243.55270000000002,198.40872000000002 244.56315000000004,198.06578000000002 245.02532000000002,197.38931000000002 C 245.52451000000002,196.65866000000003 245.76478000000003,195.70076000000003 246.28399000000002,195.08398000000003 C 246.84077000000002,194.42259 247.25919000000002,193.77647000000002 247.80132,193.19998000000004 C 248.489,192.46872000000005 249.3229,191.90263000000004 249.99999,191.49998000000005 C 250.83527,191.00325000000004 251.3445,190.53004000000004 252.33332,189.99998000000005 C 252.98193999999998,189.65228000000005 253.78521999999998,189.47387000000006 254.66665999999998,188.99998000000005 C 255.47590999999997,188.56489000000005 255.72086,187.70782000000005 256.22166999999996,186.90014000000005 C 256.62523,186.24932000000004 257.72621999999996,186.28306000000006 258.43064999999996,185.91598000000005 C 259.20696,185.51145000000005 259.50614999999993,184.45079000000004 260.32131,183.89997000000005 C 260.97405,183.45891000000006 261.86161999999996,183.03454000000005 262.47915,182.49998000000005 C 263.13201,181.93482000000006 263.73831,181.27142000000006 264.484,180.79998000000006 C 265.15862,180.37348000000006 266.0021,179.92750000000007 266.58932,179.39997000000005 C 267.33139,178.73336000000006 268.0,177.99999000000005 268.52083999999996,177.47915000000006 C 269.16664999999995,176.83332000000007 269.81762,176.15389000000005 270.40450999999996,175.65264000000005 C 271.17647999999997,174.99332000000004 272.05193999999995,174.62855000000005 272.66666,173.99998000000005 C 273.27704,173.37585000000004 273.91098,173.19511000000006 274.83335,172.83331000000004 C 275.62083,172.52443000000005 275.84211,171.47216000000003 276.57069,170.79998000000003 C 277.13206,170.28207000000003 278.00001000000003,169.99998000000002 278.8,169.59998000000004 C 279.40001,169.29998000000003 280.38292,168.76622000000003 281.16401,168.43598000000006 C 282.09773,168.04122000000007 283.03193000000005,167.87346000000005 283.60001,167.38930000000005 C 284.35019,166.74997000000005 284.87964,166.19116000000005 285.64817,165.69997000000004 C 286.28553,165.29262000000003 286.92676,164.38492000000002 287.71433,164.04815000000005 C 288.36936000000003,163.76804000000004 289.40000000000003,163.43198000000004 290.00001000000003,162.99998000000005 C 290.60002000000003,162.56797000000006 291.66825000000006,162.31808000000004 292.42933000000005,161.91731000000004 C 293.24204000000003,161.48935000000003 293.68092000000007,160.64464000000004 294.35185000000007,160.35714000000004 C 295.3402500000001,159.93363000000005 296.31849000000005,159.77168000000003 297.0000100000001,159.49998000000005 C 297.9745600000001,159.11146000000005 298.69551000000007,159.00224000000006 299.6000200000001,158.99998000000005 C 300.5000100000001,158.99774000000005 301.4213400000001,158.99998000000005 302.3333600000001,158.99998000000005 C 303.2613400000001,158.99998000000005 304.0518400000001,158.99998000000005 305.0785100000001,158.99998000000005 C 305.7640300000001,158.99998000000005 306.5986800000001,158.99998000000005 307.5955100000001,158.99998000000005 C 308.5147000000001,158.99998000000005 309.3640300000001,158.99998000000005 310.3000100000001,158.99998000000005 C 311.2000300000001,158.99998000000005 312.1000300000001,158.99998000000005 313.0000200000001,158.99998000000005 L 313.8000100000001,158.99998000000005" fill="none" id="svg_5" stroke="#000" stroke-width="2"/>
</svg>
