<?xml version="1.0" ?>
<svg baseProfile="full" height="480" version="1.1" width="640" xmlns="http://www.w3.org/2000/svg" xmlns:ev="http://www.w3.org/2001/xml-events" xmlns:xlink="http://www.w3.org/1999/xlink">
	<defs/>
	<path d="M 263.0,212.0 C 254.42867,218.37167 253.9133,218.7002 252.99466,219.22667 C 252.58507,219.46140000000003 251.78372000000002,219.86 250.66667,220.66667 C 250.24586000000002,220.97055 249.39068,221.71988000000002 248.94934,222.13333 C 248.49586,222.55813 247.60057,223.45634 247.168,223.92 C 246.32396,224.82468 245.56773,225.70879 245.22333,226.13834 C 244.57265,226.94988 244.26813,227.33669 243.77333000000002,228.11333 C 243.10858000000002,229.15676 242.79188000000002,229.81839 242.45734000000002,230.68133999999998 C 242.09169000000003,231.62448999999998 242.33402,232.18586999999997 243.14534,232.56799999999998 C 243.77057,232.86247999999998 244.54024,233.18542 245.46133,233.43201 C 246.48996,233.70739 247.654,233.83689999999999 248.26699,233.88567 C 248.89677,233.93578 249.54145,233.96837 250.85632999999999,233.991 C 251.51859,234.00240000000002 252.83332,234.00205000000003 253.47832,233.99967 C 254.73833,233.99502 255.35366,233.98711 255.95832,233.95833000000002 C 257.13921,233.90213000000003 257.71972,233.86843000000002 258.83333999999996,233.66667 C 259.91952,233.46989000000002 260.4364,233.30324000000002 261.43749999999994,233.0 C 262.38363999999996,232.71341 262.8279999999999,232.56799 264.05648999999994,232.243 L 265.0960099999999,232.07201 L 265.9194999999999,232.00901000000002 L 266.89199999999994,232.00001000000003" fill="none" id="svg_1" stroke="#000" stroke-width="2"/>
	<path d="M 253.0,215.0 C 253.0,204.67149 253.0,204.07866 253.0,203.056 C 253.0,202.17734000000002 253.0,201.35466000000002 253.0,200.5 C 253.0,199.548 253.0,198.524 253.0,198.0 C 253.0,196.95799 253.0,196.452 253.0,195.06433 C 253.0,194.26700000000002 252.99966,193.54167 253.0,192.51866 C 253.00034,191.47850000000003 252.98067,190.73871 253.08333,189.97917 C 253.1901,189.18931 253.63394,187.97969 254.14266999999998,187.196 C 254.41604999999998,186.77487 255.10224999999997,185.93588 255.47867,185.49201 C 255.87317,185.02679999999998 257.16971,183.50244999999998 257.62149,182.93600999999998 C 258.08847,182.35052 258.55673,181.74168999999998 259.03601,181.124 C 259.52042,180.49969 260.0068,179.87288999999998 260.50449,179.25799999999998 C 260.9975,178.64888 261.99311,177.49348999999998 262.50016,176.96434 C 262.99473,176.44823 263.49824,175.96016 264.01069,175.49733 C 265.02381,174.58231 265.55589000000003,174.15477 266.08534000000003,173.71867 C 267.16408,172.83015 267.7216,172.37898 268.28401,171.916 C 268.85295,171.44765 269.42515000000003,170.97446 270.57469000000003,170.02533 C 271.14726,169.55257 271.71467,169.08235 272.83336,168.16667 C 273.37822000000006,167.72069000000002 273.91582000000005,167.28343 274.45186,166.85716000000002 C 274.98384,166.43411000000003 276.05873,165.60710000000003 276.60985,165.20450000000002 C 277.16673,164.79770000000002 278.33077,163.99605000000003 278.94267,163.60018000000002 C 279.56541000000004,163.1973 280.20390000000003,162.80216000000001 280.85069000000004,162.41067 C 281.49861000000004,162.01849 282.14845,161.6345 283.43202,160.88534 C 284.66582,160.16523 285.25667000000004,159.82054000000002 285.83201,159.48667 C 286.39402,159.16054 287.49751000000003,158.53693 288.05067,158.24668 C 288.60289,157.95692 289.14903000000004,157.64097999999998 290.94285,156.922 C 291.56318000000005,156.67337 292.20701,156.46135 292.86134000000004,156.26801 C 293.51814,156.07393 294.17650000000003,155.86872 295.51735,155.65734 C 296.82655,155.45095 297.47878000000003,155.44877 298.11736,155.45467 C 299.38604000000004,155.46639 300.02108000000004,155.53906999999998 300.66137000000003,155.596 C 301.31011,155.65369 303.33306000000005,155.83819 304.04253000000006,155.8785 C 304.76641000000006,155.91964000000002 305.50075000000004,155.94584 306.24001000000004,155.96401 C 306.97912,155.98217 307.71337000000005,155.9908 308.43752000000006,155.9955 C 309.14669000000004,156.00011 311.13585000000006,156.0 311.74669000000006,156.0 C 312.33751000000007,156.0 313.47917000000007,156.0 314.0400200000001,156.0 C 315.16667000000007,156.0 316.3333500000001,155.99808 316.9428500000001,156.00034 C 318.20988000000006,156.00502 318.8615200000001,156.01645 319.52085000000005,156.04167999999999 C 320.18555000000003,156.06709999999998 320.85929000000004,156.05512 322.83335000000005,156.33334 C 323.48423,156.42507999999998 324.13953000000004,156.5693 324.81483000000003,156.75485 C 325.53874,156.95375 326.31663000000003,157.21824 327.16535000000005,157.54535 C 328.11497,157.91133000000002 329.17258000000004,158.3519 331.66666000000004,159.50002 C 333.14615000000003,160.18108 334.74341000000004,160.95313000000002 336.43366000000003,161.77852000000001 C 338.18613000000005,162.63431000000003 339.96042000000006,163.51672000000002 341.72266,164.40802000000002 C 343.44504,165.27916000000002 345.09598,166.10933000000003 348.0,167.66669000000002 C 349.21851,168.32015 350.27576,168.91487 351.198,169.45618000000002 C 352.01937999999996,169.93828000000002 352.75210999999996,170.39255000000003 353.42400999999995,170.82268000000002 C 354.06401999999997,171.23239 354.68377999999996,171.65186000000003 355.99999999999994,172.50002 C 356.72616999999997,172.96796 357.50744999999995,173.45557 358.32949999999994,173.96702000000002 C 359.1834099999999,174.49829000000003 360.06301999999994,175.04087 360.95599999999996,175.59602 C 361.85601999999994,176.15553 362.75802999999996,176.70933000000002 364.50001,177.83336 C 365.33793,178.37402 366.14326,178.90997 366.91501999999997,179.44287 C 367.66319,179.95947 368.37955999999997,180.47313 369.06001,180.98936 C 369.71948999999995,181.48968 370.35969,181.97636 371.50001,183.00003 C 372.04510999999997,183.48936 372.54877999999997,183.99409 373.02851,184.49553 C 373.49671,184.98491 373.93942999999996,185.47751 374.36802,185.96404 C 374.7884,186.44123000000002 375.19001000000003,186.92002000000002 376.00001,187.83336 C 376.39759,188.28166 376.80213,188.72046 377.21351,189.15636 C 377.63011,189.59781 378.06144,190.04274 378.508,190.49736000000001 C 378.9704,190.96811000000002 379.45590999999996,191.4548 380.5,192.50003 C 381.06378,193.06442 381.65283,193.65256000000002 382.25351,194.26703 C 382.86755,194.89519 383.48392,195.53731000000002 384.08801,196.19603 C 384.6896,196.85202 385.29100999999997,197.49611000000002 386.33334,198.83336 C 386.82785,199.46777 387.26584,200.10817 387.67584,200.73387 C 388.07235,201.33902 388.43756,201.93748 388.79332999999997,202.51736 C 389.13921999999997,203.08114 389.45831,203.64271 390.16664999999995,204.6667 C 390.51091999999994,205.16438 390.87929999999994,205.63318999999998 391.25264999999996,206.08569 C 391.62075,206.53184 391.99855999999994,206.95965 392.37465999999995,207.37869 C 392.7459099999999,207.79231000000001 393.1230699999999,208.1911 393.83333999999996,209.00003 C 394.18219,209.39732 394.51863999999995,209.80054 394.84731999999997,210.20903 C 395.17733999999996,210.61922 395.50222999999994,211.04004 395.82534999999996,211.47203000000002 C 396.15493999999995,211.91267000000002 396.48788999999994,212.36795 397.16666,213.33336000000003 C 397.52387,213.84143000000003 397.88626,214.37059000000002 398.26617999999996,214.90987000000004 C 398.65558,215.46262000000004 399.05792999999994,216.02430000000004 399.48267,216.58536000000004 C 399.91422,217.15540000000004 400.34961,217.73706000000004 401.33335,218.83336000000003 C 401.83155,219.38857000000002 402.36356,219.91794000000002 402.90534,220.43837000000002 C 403.44626000000005,220.95798000000002 403.99839000000003,221.46014000000002 404.54935,221.95337 C 405.09308,222.44014 405.63663,222.90817 406.66666,223.83336 C 407.15988999999996,224.2764 407.63489,224.71715 408.10366999999997,225.15187 C 408.57088999999996,225.58514 409.04004,226.02261000000001 409.52268,226.46136 C 410.01801,226.91168000000002 410.52982,227.37982000000002 411.66666,228.33335000000002 C 412.28028,228.84804000000003 412.93188999999995,229.36715000000004 413.60166,229.89635 C 414.27857,230.43119000000002 414.95822999999996,230.95850000000002 415.62667999999996,231.47736 C 416.27486999999996,231.9805 416.89870999999994,232.45456000000001 417.99999999999994,233.33335 C 418.47384999999997,233.71144999999999 418.89354999999995,234.05952 419.27050999999994,234.38036 C 419.61742999999996,234.67566 419.93783999999994,234.95798 420.24398999999994,235.22935999999999 C 420.54479999999995,235.49600999999998 420.8444799999999,235.76941 421.49999999999994,236.33335 C 421.8623999999999,236.64512 422.25374999999997,236.97047 422.66698999999994,237.30984999999998 C 423.0963699999999,237.66250999999997 423.54067999999995,238.02208 423.9959999999999,238.38535 C 424.91667999999993,239.11986 425.83208999999994,239.83498 426.2791699999999,240.17884999999998 C 427.1583499999999,240.85506999999998 427.6023499999999,241.19129999999998 428.5333199999999,241.86135 C 429.0219099999999,242.213 429.5356099999999,242.57589 430.6666499999999,243.33335 C 431.2829499999999,243.74608 431.9348099999999,244.16854 432.6106499999999,244.60085 C 433.3001299999999,245.04189 433.9988599999999,245.48104 434.6986599999999,245.91335 C 435.3881999999999,246.33933000000002 436.0585499999999,246.75594 437.33332999999993,247.50002 C 438.4552499999999,248.15487000000002 438.9776499999999,248.43427 439.9374899999999,248.97919000000002 C 440.3942199999999,249.23848 441.2903999999999,249.75074 442.1666499999999,250.33335000000002 C 443.0980199999999,250.95260000000002 443.5615799999999,251.30997000000002 444.0466499999999,251.66135000000003 C 445.0464699999999,252.38561 445.5575399999999,252.75785000000002 446.0866599999999,253.11736000000002 C 447.15843999999987,253.84559000000002 447.7160899999999,254.19025000000002 448.88414999999986,254.86086000000003 C 449.4966699999999,255.21251000000004 450.1454699999999,255.56318000000002 450.82664999999986,255.93335000000002 C 451.54710999999986,256.32488 452.31663999999984,256.73399 453.99998999999985,257.66667 C 454.92951999999985,258.18168000000003 455.9012999999999,258.73341 456.90699999999987,259.30168000000003 C 457.93061999999986,259.88008 458.95689999999985,260.46092000000004 459.9759999999999,261.02669000000003 C 460.9682499999999,261.57753 461.91352999999987,262.11635 463.66663999999986,263.00002 C 464.42383999999987,263.3817 465.12162999999987,263.69878 465.76514999999984,263.97503 C 466.36316999999985,264.23174 466.9376399999998,264.458 467.49463999999983,264.68002 C 468.04996999999986,264.90133000000003 468.62399999999985,265.11541 469.83331999999984,265.66668 C 470.5115999999998,265.97587999999996 471.2249199999998,266.33556 471.97229999999985,266.72418 C 472.75037999999984,267.12874999999997 473.54352999999986,267.55914 474.34531999999984,268.00668 C 475.15290999999985,268.45746 475.95621999999986,268.91061 477.4999799999998,269.83337 C 478.2383499999998,270.27472 478.9491699999998,270.71411 479.6329799999998,271.16085 C 480.3064999999998,271.60087999999996 480.9641299999998,272.05465 481.6039899999998,272.53335 C 482.2495899999998,273.01632 482.9028199999998,273.51601999999997 484.1666399999998,274.66668 C 484.8328699999998,275.27324999999996 485.4884199999998,275.93438 486.1526599999998,276.61967999999996 C 486.8298499999998,277.31831999999997 487.5015099999998,278.04026999999996 488.1746299999998,278.77067999999997 C 488.8488199999998,279.50228 489.5108099999998,280.23945999999995 490.8333199999998,281.66668 C 491.4753199999998,282.35952 492.1116999999998,283.02846999999997 492.7247999999998,283.69018 C 493.3236499999998,284.33651 493.8958199999998,284.97918 494.4453199999998,285.61468 L 494.9667999999998,286.24819 L 495.4573099999998,286.88268000000005" fill="none" id="svg_2" stroke="#000" stroke-width="2"/>
	<path d="M 270.0,236.0 C 274.17117,247.429 274.30771,248.12354 274.36151,248.76967 C 274.41189,249.37482 274.37668,250.53101999999998 274.33017,251.107 C 274.28217,251.70176 274.15964,252.99961 274.12201,253.72851 C 274.08182,254.50765 274.06185999999997,255.32952 274.06799,256.184 C 274.07428,257.06263 274.10659,257.95686 274.17599,258.85551000000004 C 274.2453,259.75303 274.48468,261.50315000000006 274.66433,262.33567000000005 C 274.83978,263.14869000000004 275.05856,263.9355800000001 275.29733,264.70267000000007 C 275.53335,265.4609700000001 275.7948,266.2044400000001 276.05633,266.94367000000005 C 276.31747,267.68177000000003 276.83901000000003,269.16483000000005 277.07833,269.92133000000007 C 277.31905,270.68219000000005 277.5432,271.45133000000004 277.75332,272.22535000000005 C 277.96324999999996,272.99870000000004 278.15765,273.77363 278.33833999999996,274.5473400000001 C 278.51762999999994,275.3150100000001 278.83622999999994,276.8328000000001 278.97880999999995,277.5791700000001 C 279.12022999999994,278.3194700000001 279.25172999999995,279.0608600000001 279.38532999999995,279.8066800000001 C 279.52073999999993,280.56254000000007 279.6584,281.3339000000001 279.80983,282.1241800000001 C 279.96628999999996,282.9405900000001 280.32856999999996,284.6677600000001 280.54283,285.5848400000001 C 280.76442,286.5331700000001 281.00557,287.4982600000001 281.26131,288.4693300000001 C 281.51659,289.4386300000001 281.78069,290.3920000000001 282.05181,291.3178400000001 C 282.31286,292.2093200000001 282.8279,293.8352400000001 283.07833,294.5496500000001 C 283.30834,295.2057800000001 283.53609,295.8051700000001 283.75332,296.3586700000001 C 283.95626,296.8758200000001 284.15925999999996,297.35901000000007 284.33833999999996,297.82565000000005 C 284.85045999999994,299.16021000000006 284.98808999999994,299.61868000000004 285.24733999999995,300.55267000000003 C 285.50954999999993,301.4974 285.60515999999996,301.98043 285.88399999999996,302.91598000000005 C 286.29293999999993,304.2879300000001 286.46327999999994,304.73107000000005 286.88933999999995,305.58532 C 287.1103499999999,306.02844000000005 287.67620999999997,306.92053000000004 288.02800999999994,307.36932 C 288.80296999999996,308.35791 289.8191499999999,309.37317 290.38133999999997,309.90084 C 290.96300999999994,310.4468 291.57802999999996,310.98553000000004 292.21734,311.51333 C 292.86003999999997,312.04394 293.50505999999996,312.56945 294.83333999999996,313.49998999999997 C 295.47103999999996,313.94674 296.11247999999995,314.35108999999994 296.74733999999995,314.73299 C 297.3712699999999,315.10832999999997 297.9985,315.46105 298.62532999999996,315.80397 C 299.25118,316.14637999999997 299.88604,316.47751999999997 301.16664999999995,317.16664 C 301.82185999999996,317.51923999999997 302.48118999999997,317.88050999999996 303.13915,318.24814999999995 C 304.43983999999995,318.97493 305.06742999999994,319.33728999999994 305.67582999999996,319.69013999999993 C 306.26075999999995,320.0293699999999 307.33317999999997,320.66691999999995 308.26798999999994,321.2319799999999 C 308.70273999999995,321.4947699999999 309.55582999999996,322.0123099999999 310.48215999999996,322.5053299999999 C 310.98844999999994,322.7747699999999 312.16455999999994,323.3379399999999 312.85031999999995,323.6426599999999 C 313.59378999999996,323.97300999999993 314.39372,324.3100799999999 315.24130999999994,324.6506599999999 C 316.12298999999996,325.0049399999999 317.03653999999995,325.3550699999999 317.97430999999995,325.6946699999999 C 318.92190999999997,326.0378099999999 320.8307899999999,326.6750199999999 321.77829999999994,326.9565099999999 C 322.71091999999993,327.2335799999999 323.6358399999999,327.48250999999993 324.5533199999999,327.69600999999994 C 325.4559999999999,327.90605999999997 326.35128999999995,328.08318999999995 327.23831999999993,328.21950999999996 C 328.1115199999999,328.35369999999995 329.8328599999999,328.513 330.67947999999996,328.53567 C 331.52241,328.55825 332.37005999999997,328.53952 333.22796999999997,328.50264999999996 C 334.10443,328.46498999999994 335.00527999999997,328.40373999999997 335.93847999999997,328.34364999999997 C 336.91062,328.28105999999997 338.99978999999996,328.16146 340.12728999999996,328.12147999999996 C 341.29846,328.07994999999994 342.49789999999996,328.05418999999995 343.70928999999995,328.03599999999994 C 344.91659999999996,328.01786999999996 346.10396999999995,328.00920999999994 347.25530999999995,328.00447999999994 C 348.35463999999996,327.99995999999993 350.3333099999999,327.99998999999997 351.18612999999993,327.99998999999997 C 351.9559699999999,327.99998999999997 352.65978999999993,327.99998999999997 353.31463999999994,327.99998999999997 C 353.93746999999996,327.99998999999997 354.54528999999997,327.99998999999997 355.15515999999997,327.99998999999997 C 355.78396999999995,327.99998999999997 357.16662999999994,327.99998999999997 357.94980999999996,327.99998999999997 C 358.79196999999994,327.99998999999997 359.68213999999995,327.99998999999997 360.60932999999994,327.99998999999997 C 361.56248999999997,327.99998999999997 362.53065999999995,327.99998999999997 363.50281999999993,327.99998999999997 C 364.4679699999999,327.99998999999997 366.33332999999993,327.99998999999997 367.2149799999999,327.99998999999997 C 368.0666599999999,327.99998999999997 368.89832999999993,327.99998999999997 369.7199799999999,327.99998999999997 C 370.5416399999999,327.99998999999997 371.3732999999999,327.99998999999997 372.2249799999999,327.99998999999997 C 373.1066299999999,327.99998999999997 374.9999699999999,327.99998999999997 376.02780999999993,327.99998999999997 C 377.10263999999995,327.99998999999997 378.21145999999993,327.99998999999997 379.34131999999994,327.99998999999997 C 380.4791399999999,327.99998999999997 381.61197999999996,327.99998999999997 382.7268199999999,327.99998999999997 C 383.8106499999999,327.99998999999997 385.83332999999993,327.99998999999997 386.7494899999999,327.99998999999997 C 387.60263999999995,327.99998999999997 388.3998199999999,327.99998999999997 389.14798999999994,327.99998999999997 C 389.8541399999999,327.99998999999997 390.52530999999993,327.99998999999997 391.16846999999996,327.99998999999997 C 391.79065999999995,327.99998999999997 392.99997999999994,328.00149 393.60013999999995,327.99949999999995 C 394.20131,327.99748999999997 394.80469999999997,327.99235999999996 395.41065999999995,327.96797999999995 C 396.02109999999993,327.94341 396.63706999999994,327.90187999999995 397.25715999999994,327.82847999999996 C 397.88658999999996,327.75398999999993 399.1691799999999,327.50981999999993 399.82231999999993,327.33582999999993 C 400.49476999999996,327.15671999999995 401.17988999999994,326.9382799999999 401.88933999999995,326.7133299999999 C 402.62526999999994,326.47995999999995 403.38851999999997,326.2327399999999 404.19032999999996,326.00080999999994 C 405.02586999999994,325.75910999999996 406.83101999999997,325.32108999999997 407.80613999999997,325.14313999999996 C 408.81377,324.95926999999995 409.84882999999996,324.81104999999997 410.89464,324.68265999999994 C 411.93656999999996,324.55472999999995 412.96488999999997,324.45252999999997 413.96517,324.3661599999999 C 414.92361,324.2833999999999 416.66659,324.16565999999995 417.42834,324.1209799999999 C 418.11993,324.0804199999999 418.75201,324.0482899999999 419.33333999999996,324.0039799999999 C 419.87532999999996,323.9626599999999 420.38811999999996,323.9123099999999 420.87832,323.8329899999999 C 421.36159999999995,323.7547999999999 422.33581,323.5074299999999 422.84297999999995,323.3361599999999 C 423.3733399999999,323.1570499999999 423.91389999999996,322.9453799999999 424.47198,322.7346599999999 C 425.04121999999995,322.5196899999999 425.61825,322.30252999999993 426.20901,322.1151499999999 C 426.79974,321.92779999999993 427.99791999999997,321.6492399999999 428.60033999999996,321.5858199999999 C 429.20107999999993,321.5225899999999 429.8092,321.5143499999999 430.42132,321.5332999999999 C 431.04204999999996,321.5525299999999 431.67213999999996,321.60476999999986 432.31433,321.6607999999999 C 432.97085,321.7180799999999 434.33304,321.8382299999999 435.04285,321.87847999999985 C 435.76908,321.91967999999986 436.50973999999997,321.94588999999985 437.26133,321.9639599999999 C 438.02079,321.9822399999999 438.78535,321.99081999999987 439.55183,321.9954799999999 C 440.31732999999997,322.00014999999985 441.83335,321.99996999999985 442.57835,321.99996999999985 C 443.31334,321.99996999999985 444.03834,321.99996999999985 444.75334,321.99996999999985 C 445.45835999999997,321.99996999999985 446.15333,321.99996999999985 446.83835999999997,321.99996999999985 C 447.51334999999995,321.99996999999985 448.83335999999997,321.99996999999985 449.47819,321.99996999999985 C 450.11201,321.99996999999985 450.73384,321.99996999999985 451.34269,321.99996999999985 C 451.93751000000003,321.99996999999985 452.51734,321.99996999999985 453.08118,321.99996999999985 C 453.62799,321.99996999999985 454.66666000000004,321.99996999999985 455.1575,321.99996999999985 C 456.09915,321.99996999999985 457.02084,321.99996999999985 457.96249,321.99996999999985 C 458.45333,321.99996999999985 460.06466,321.99996999999985 460.65734,321.99996999999985 C 461.27599,321.99996999999985 461.91866,321.99996999999985 463.268,321.99996999999985 C 463.97067,321.99996999999985 464.68933,322.00030999999984 466.16664999999995,321.99996999999985 C 466.92184,321.99978999999985 467.68800999999996,322.00020999999987 468.46614999999997,321.99096999999983 C 469.25735,321.9815699999998 470.06271,321.96389999999985 470.88264999999996,321.9279799999998 C 471.71910999999994,321.8913299999998 472.57442,321.85387999999983 474.33332999999993,321.6666299999998 C 475.24409999999995,321.56967999999983 476.1689599999999,321.43548999999985 477.1053299999999,321.2856499999998 C 478.05164999999994,321.1342199999998 479.00080999999994,320.9625299999998 479.94931999999994,320.7786299999998 C 480.89545999999996,320.5951899999998 481.83356999999995,320.4045199999998 483.6666399999999,319.9999699999998 C 484.5571099999999,319.8034699999998 485.4246999999999,319.6029699999998 486.2676499999999,319.3999599999998 C 487.0860099999999,319.20287999999977 487.8760799999999,319.0040599999998 488.6346499999999,318.7999499999998 C 489.3633799999999,318.6038699999998 490.0617999999999,318.4181099999998 491.3333199999999,317.9999599999998 C 491.9167899999999,317.8080999999998 492.4612199999999,317.6049999999998 492.9713199999999,317.3954699999998 C 493.4584999999999,317.1953399999998 493.9208399999999,316.9875099999998 494.35730999999987,316.7639699999998 C 495.2030999999999,316.3307699999998 496.4021999999999,315.5822099999998 496.79865999999987,315.3159699999998 C 497.5941599999999,314.78175999999985 498.36408999999986,314.2254199999998 498.74280999999985,313.95262999999983 C 499.83356999999984,313.1669499999998 500.51419999999985,312.6793799999998 501.18530999999984,312.22529999999983 C 501.85821999999985,311.77000999999984 502.5667799999998,311.31190999999984 503.74197999999984,310.57896999999986 C 504.16174999999987,310.31718999999987 505.01162999999985,309.80174999999986 505.8052999999998,309.29728999999986 C 506.4938399999998,308.85963999999984 507.14928999999984,308.30994999999984 506.9999699999998,307.71412999999984 C 506.8002299999998,306.91709999999983 507.0103199999998,306.2123599999998 506.9374699999998,305.39579999999984 C 506.8552899999998,304.47468999999984 506.5133399999998,302.99534999999986 506.3349599999998,302.50010999999984 C 506.1534699999998,301.99622999999985 505.6777899999998,300.99983999999984 505.3749699999998,300.52079999999984 C 504.7508599999998,299.53349999999983 504.36968999999976,299.0572099999998 503.4999699999998,298.1666099999998 C 503.0492299999998,297.70505999999983 501.9995399999998,296.81791999999984 501.4172999999998,296.3506299999998 C 500.79437999999976,295.8506899999998 500.1143199999998,295.3246899999998 499.3862899999998,294.7471099999998 C 498.5968599999998,294.1208299999998 496.82906999999983,292.6715799999998 495.8506499999998,291.82895999999977 C 494.8074399999998,290.93054999999976 493.7284899999998,289.9727299999998 492.6226499999998,288.97595999999976 C 491.4970999999998,287.96145999999976 490.3753099999998,286.93277999999975 489.2686499999998,285.90695999999974 C 488.1860099999998,284.9033899999997 486.1652899999998,283.0013499999997 485.2499699999998,282.12860999999975 C 484.3920599999998,281.31058999999976 483.5863999999998,280.53418999999974 482.8199799999998,279.79462999999976 C 482.0830699999998,279.08353999999974 481.3676499999998,278.39090999999974 480.6599799999998,277.71262999999976 C 479.9542899999998,277.03623999999974 478.5017499999998,275.66471999999976 477.7359699999998,274.95743999999974 C 476.9497799999998,274.23133999999976 476.1433199999998,273.49762999999973 475.3239799999998,272.75995999999975 C 474.5013199999998,272.01929999999976 473.6759699999998,271.28659999999974 472.85797999999977,270.5624499999997 L 472.0519799999998,269.85327999999976" fill="none" id="svg_3" stroke="#000" stroke-width="2"/>
	<path d="M 296.0,190.0 C 303.31732,191.82933 304.0,191.82001 304.0,190.89349 C 304.0,190.24116 304.01782,189.16243 304.0,188.50534000000002 C 303.98425,187.92419 303.40375,187.65544000000003 302.45016,187.11484000000002 C 302.00847999999996,186.86444 300.99322,186.30435000000003 300.4375,186.02083000000002 C 299.87189,185.73226000000003 298.75446,185.15299000000002 297.66666,184.83333000000002 C 296.76171999999997,184.56742000000003 295.90209999999996,184.28566 295.14667,184.66533 C 294.4412,185.01988 294.85312,186.16495 294.91468,186.98534 C 294.9874,187.95453 294.98535999999996,188.45824000000002 294.99552,189.41701 C 295.00699,190.49996000000002 295.53596,190.82718 296.32868,191.12818000000001 C 297.16614000000004,191.44617000000002 297.58878000000004,191.77412 298.59202000000005,192.28400000000002 C 299.10972000000004,192.54711000000003 300.66026000000005,193.19489000000002 301.15635000000003,193.29267000000002 C 302.05897000000004,193.47059000000002 302.88465,193.47329000000002 303.85600000000005,193.27868 C 304.80192000000005,193.08917 305.33757,192.57592 305.8851700000001,191.89350000000002 C 306.4076600000001,191.24236000000002 306.98273000000006,190.52363000000003 307.53217000000006,189.8205 C 308.1708100000001,189.00324 307.91706000000005,188.4948 307.00000000000006,188.16668 C 306.0684800000001,187.83337 305.5623800000001,187.53477 304.99466000000007,187.27334000000002 C 304.3967600000001,186.99801000000002 303.13828000000007,186.44038 302.47733000000005,186.22001000000003 C 301.18097000000006,185.78777000000002 300.52454000000006,185.68084000000002 299.88666000000006,185.62534000000002 C 298.6500900000001,185.51777 298.04102000000006,185.57372 297.44666000000007,185.61734 C 296.28513000000004,185.70258 295.16694000000007,185.83707 294.0880200000001,185.91867000000002 C 293.5662900000001,185.95813 292.5607700000001,186.02837000000002 292.0826800000001,186.09734000000003 C 291.1679800000001,186.22931000000003 289.9088200000001,186.60891000000004 289.2323400000001,187.07151000000002 C 288.58769000000007,187.51235000000003 287.9055600000001,188.0311 287.5858600000001,189.30001000000001 C 287.36561000000006,190.17422000000002 287.6443000000001,190.79351000000003 287.8333600000001,192.00001 C 287.9702600000001,192.87365 287.8065700000001,193.83656 288.1458600000001,193.93751 C 289.2828200000001,194.27578 289.54784000000006,193.22465 290.4956800000001,193.10084 C 291.0400800000001,193.02972 292.2394800000001,192.91975 292.87434000000013,192.8375 C 293.5248800000001,192.75323 294.8435500000001,192.53499 296.1040200000001,192.14934 C 296.7122400000001,191.96323999999998 297.2854500000001,191.75066999999999 298.3013500000001,191.31199999999998 C 298.74123000000014,191.12205999999998 299.77327000000014,190.44590999999997 299.90685000000013,189.77201 C 300.10506000000015,188.7721 300.77077000000014,188.18215 301.0653600000001,187.504 C 301.4151500000001,186.69872999999998 300.6043600000001,186.99774 299.4510100000001,187.0 C 299.0147000000001,187.00085 298.04403000000013,187.0 297.0493700000001,187.0 C 296.5830300000001,187.0 295.1653700000001,187.0 295.9583700000001,187.0 C 296.8333700000001,187.0 297.7588500000001,187.0 298.4791800000001,187.0 L 299.1795300000001,187.0 L 300.3720300000001,187.0" fill="none" id="svg_4" stroke="#000" stroke-width="2"/>
	<path d="M 357.0,334.0 C 361.33334,345.33334 361.86258,346.75018 362.06683,347.34634 C 362.25005999999996,347.88107 362.56255999999996,348.82962 362.70932,349.72799 C 362.94595,351.17629 362.91724,351.73875999999996 362.95633,352.31966 C 363.03861,353.54186 363.08831999999995,354.17171 363.16699,354.80367 C 363.24569,355.43584 363.65378,357.26021000000003 363.85068,357.82799 C 364.0437,358.38463 364.48502,359.43511 364.68799,359.94264 C 365.07385,360.90758 365.43201,362.27689999999996 365.46268000000003,362.71464 C 365.52204000000006,363.56226999999996 365.41986,364.38978 365.45066,365.19865 C 365.49656000000004,366.40464 365.75651000000005,367.2064 366.02085000000005,368.02081999999996 C 366.29298000000006,368.85919999999993 366.67994000000004,370.16418999999996 366.75700000000006,370.62112999999994 C 366.91264000000007,371.5439799999999 366.9637000000001,372.47891999999996 366.97868000000005,372.93862999999993 C 367.00773000000004,373.83034999999995 367.00001000000003,375.05630999999994 367.00001000000003,376.0852999999999 C 367.00001000000003,376.8623099999999 367.00001000000003,377.1249699999999 367.00001000000003,378.1064799999999 C 367.00001000000003,378.7587899999999 367.00001000000003,379.47912999999994 367.00001000000003,380.4946299999999 C 367.00001000000003,381.1214599999999 366.48966,381.1756299999999 365.67066000000005,381.4426299999999 C 364.8496200000001,381.7102999999999 363.83488000000006,382.0059199999999 363.26401000000004,382.14929999999987 C 362.66022000000004,382.30093999999985 362.02765000000005,382.4718399999999 360.66666000000004,382.6666299999999 C 359.23606,382.8713999999999 358.49051000000003,382.8917899999999 357.73868000000004,382.9279799999999 C 356.97943000000004,382.9645099999999 356.21469,382.9816299999999 355.44818000000004,382.9909699999999 C 354.68271000000004,383.0003099999999 353.16666000000004,382.9999699999999 352.42132000000004,382.9999699999999 C 351.68398,382.9999699999999 350.95266000000004,382.9999699999999 350.22534,382.9999699999999 C 349.5,382.9999699999999 348.04733000000004,382.9999699999999 347.31601,382.9999699999999 C 345.83334,382.9999699999999 345.07834,382.9999699999999 344.31332000000003,382.9999699999999 C 343.53833000000003,382.9999699999999 342.75332000000003,382.9999699999999 341.95834,382.9999699999999 C 341.15332,382.9999699999999 340.33834,382.9999699999999 339.51333,382.9999699999999 C 337.83334,382.9999699999999 336.97915,382.9982899999999 336.11999,383.0026299999999 C 335.26083,383.0069599999999 334.40652,383.0160299999999 333.56248999999997,383.0416299999999 C 332.73314,383.0667799999999 331.92292999999995,383.0993099999999 331.14,383.1706299999999 C 329.6638,383.30511999999993 328.98436,383.4329899999999 328.34398,383.5679699999999 C 327.73566999999997,383.6961699999999 326.62498999999997,383.9999799999999 326.11464,384.14929999999987 L 325.17598,384.4319799999999" fill="none" id="svg_5" stroke="#000" stroke-width="2"/>
</svg>
