<?xml version="1.0" ?>
<svg baseProfile="full" height="480" version="1.1" width="640" xmlns="http://www.w3.org/2000/svg" xmlns:ev="http://www.w3.org/2001/xml-events" xmlns:xlink="http://www.w3.org/1999/xlink">
	<defs/>
	<path d="M 226.0,231.0 C 225.0,230.0 225.21616,229.27054 226.0,228.83333 C 226.65187,228.46973 227.42618,227.78324999999998 227.83333,227.0 C 228.22,226.25615 228.66652,225.52783 229.38933,225.02533 C 230.06201000000001,224.55766 230.34946,223.69284 231.0,223.0 C 231.4942,222.47366 232.09735,221.67709 232.5,221.0 C 232.99673,220.16472 233.51357,219.53374 234.2,218.79866 C 234.71026999999998,218.25223000000003 235.28104,217.33606 235.7,216.65266000000003 C 236.17867999999999,215.87185000000002 236.69887,215.30337000000003 237.41065999999998,214.58934000000002 C 237.88457999999997,214.11392 238.65716999999998,213.34283000000002 239.21066,212.78934 C 240.0,212.0 240.5955,211.4045 241.164,210.836 C 241.83333,210.16667 242.36399999999998,209.63600000000002 243.1,208.9 C 243.6,208.4 244.29289,207.69283000000001 244.99999,207.00001 C 245.51569,206.49473 246.34423999999999,205.93572 246.97916,205.50001 C 247.78926,204.94406 248.32872,204.14575 249.04166,204.00001 C 249.99466,203.80519 250.94808,203.76831 251.66666,203.00001 C 252.21122,202.41778 252.40677,201.51855 253.33332000000001,201.00001 C 253.97553000000002,200.6406 254.77795,200.46012 255.66666,200.00001 C 256.48845,199.57455000000002 257.20531,199.09567 257.97066,198.91601 C 258.77095,198.72816 259.74056,198.39193 260.66664000000003,198.16668 C 261.47258000000005,197.97067 262.31093000000004,197.74921 263.04164000000003,197.50001 C 264.15217,197.12127 264.94728000000003,197.03848 265.73866000000004,197.01068 C 266.66612000000003,196.97809 267.57866,197.00001 268.49998000000005,197.00001 C 269.39997000000005,197.00001 270.35005000000007,197.13169 271.09999000000005,196.77868 C 271.87550000000005,196.41364000000002 272.59993000000003,196.00535000000002 273.49998000000005,196.00001 C 274.3999400000001,195.99468000000002 275.29997000000003,196.00001 276.19999000000007,196.00001 C 277.10014000000007,196.00001 277.8853200000001,196.00001 278.82533000000006,196.00001 C 279.83333000000005,196.00001 280.58934000000005,195.99455 281.49998000000005,196.00001 C 282.3893800000001,196.00535 282.99620000000004,196.61898 283.70448000000005,197.05268 C 284.38545000000005,197.46964 285.35042000000004,197.7636 286.13865000000004,198.02534 C 286.98750000000007,198.3072 287.58601000000004,198.88293 288.29997000000003,199.35717 C 289.09163,199.88303 289.59999000000005,200.6 290.19999,201.2 C 290.79997000000003,201.79998999999998 291.41758,202.38282999999998 292.0998,203.10001 C 292.65754000000004,203.68633 293.03724,204.5503 293.61063,205.06134 C 294.31961,205.69324 294.69010000000003,206.42175 295.48264,207.11467 C 296.09223000000003,207.64763 296.71201,208.28914 297.28397,208.916 C 297.87104,209.55942 298.22821,210.31853999999998 298.49997,211.0 C 298.88855,211.97444 299.1358,212.62097 299.99997,213.16667 C 300.60687,213.54993000000002 300.82748000000004,214.47793000000001 301.35715000000005,215.3 C 301.87189000000006,216.09890000000001 302.54938000000004,216.46284 302.94730000000004,217.3 C 303.35981000000004,218.16784 303.44489000000004,218.96394 304.08399000000003,219.71466 C 304.65128000000004,220.381 305.23392,220.95827 305.64731,221.70000000000002 C 306.07294,222.46369 306.35309,223.30376 306.99997,224.00000000000003 C 307.56046000000003,224.60327000000004 307.73474000000004,225.44061000000002 308.00446,226.29550000000003 C 308.24656,227.06288000000004 309.31656,227.33916000000002 309.79996,227.80133000000004 C 310.50424,228.47467000000003 310.79535,229.37285000000003 311.28531,230.20000000000005 C 311.68863,230.88088000000005 312.33950999999996,231.49532000000005 313.19998,231.91600000000005 C 314.05383,232.33343000000005 314.70110999999997,232.70337000000006 315.39995999999996,233.39999000000006 C 316.00093999999996,233.99903000000006 316.54860999999994,234.65620000000007 317.30447,235.29550000000006 C 317.85138,235.75805000000005 318.86334,235.83188000000007 319.83331,236.16667000000007 C 320.52029,236.40379000000007 321.30426,236.89569000000006 322.20129,237.00133000000008 C 323.17395,237.11586000000008 323.80559999999997,237.47756000000007 324.51595999999995,237.71601000000007 C 325.56597999999997,238.06847000000008 326.44704999999993,237.90600000000006 327.29995999999994,238.35267000000007 C 328.05218999999994,238.74662000000006 328.82327999999995,239.01853000000008 329.76797999999997,239.28535000000008 C 330.50796999999994,239.49435000000008 331.24935999999997,239.7689900000001 332.19012999999995,240.2955100000001 C 332.89651999999995,240.6908300000001 333.82467999999994,240.98092000000008 334.51597,240.9986800000001 C 335.58894,241.0262500000001 336.42927,240.9421600000001 337.32148,241.22134000000008 C 338.03996,241.44615000000007 338.99363,241.88099000000008 339.79997000000003,241.9640200000001 C 340.59654,242.0460500000001 341.59547000000003,242.0000200000001 342.34282,242.0000200000001 C 343.36400000000003,242.0000200000001 344.31960000000004,241.9478000000001 345.33333,242.1666900000001 C 346.01912,242.3147600000001 346.77565,242.6176800000001 347.83333,242.8333500000001 C 348.53307,242.97603000000012 349.36482,242.9859200000001 350.37465,243.4253600000001 C 351.19154,243.7808400000001 351.99983,243.9896000000001 352.97864999999996,244.0000200000001 C 353.75260999999995,244.0082600000001 354.66162999999995,243.9999400000001 355.46164999999996,244.0000200000001 C 356.42114999999995,244.0001100000001 357.22061999999994,243.9504000000001 357.99014999999997,244.0571800000001 C 359.04526,244.2035900000001 359.71502999999996,244.7580200000001 360.48663999999997,245.1986900000001 C 361.21887999999996,245.61689000000013 362.16254,245.86812000000012 362.94816,245.9428600000001 C 363.98679999999996,246.0416800000001 364.88966,245.8190300000001 365.69099,246.0571800000001 C 366.60218,246.3279800000001 367.30186,247.1369800000001 367.99998,247.4791900000001 C 368.81302999999997,247.8777300000001 369.62614,247.9606500000001 370.65715,248.0045200000001 C 371.40569,248.0363700000001 372.40895,248.2636600000001 372.99998,248.5208500000001 C 374.01676,248.96329000000011 374.76950999999997,249.4376700000001 375.51466,249.7146800000001 C 376.36638,250.0313000000001 377.33741,250.1527100000001 378.00981,250.3571800000001 C 378.79042000000004,250.59456000000011 379.83217,251.00279000000012 380.54283000000004,251.29552000000012 C 381.39412000000004,251.64618000000013 382.39616000000007,251.94767000000013 383.16398000000004,251.98935000000012 C 384.11329000000006,252.04088000000013 385.12382,251.89984000000013 385.81431000000003,252.11435000000012 C 386.82569,252.4285400000001 387.26362000000006,252.87592000000012 388.10899000000006,253.35185000000013 C 388.9915000000001,253.84871000000012 389.89076000000006,254.24338000000012 390.45832000000007,254.47918000000013 C 391.2290100000001,254.79939000000013 392.2541300000001,255.24001000000013 392.7973100000001,255.88534000000013 C 393.3912400000001,256.59095000000013 393.7506800000001,257.42927000000014 394.5426400000001,257.97849000000014 C 395.20512000000014,258.4379000000001 396.0345800000001,258.6206100000001 397.0306500000001,259.2000200000001 C 397.6425000000001,259.5559500000001 398.4754700000001,260.2216900000001 399.0416400000001,260.5000100000001 C 400.1464700000001,261.0431000000001 400.6779000000001,261.2126300000001 401.4791400000001,261.47917000000007 C 402.2264200000001,261.7277700000001 403.3723300000001,261.9438600000001 404.0533300000001,262.16936000000004 C 405.0769200000001,262.50826000000006 405.69673000000006,262.86260000000004 406.39598000000007,263.18535 C 407.11806000000007,263.51863000000003 408.17503000000005,263.98696 409.15330000000006,264.36403 C 409.7513200000001,264.59453 410.83619000000004,264.99330000000003 411.54731000000004,265.3 C 412.22813,265.59361 413.16706000000005,265.99891 413.95713000000006,266.30452 C 414.81110000000007,266.63481 415.4184000000001,266.85231000000005 416.5973000000001,267.48268 C 417.18766000000005,267.79835 417.9475800000001,268.36949000000004 418.8573100000001,268.75719000000004 C 419.6246100000001,269.08419000000004 420.5469500000001,269.20815000000005 421.2613000000001,269.43602000000004 C 422.05668000000014,269.68974000000003 423.08012000000014,270.09666000000004 423.77464000000015,270.40001000000007 C 424.45408000000015,270.69676000000004 425.42024000000015,271.10289000000006 426.2253200000001,271.40001000000007 C 427.0462400000001,271.7029600000001 428.09086000000013,272.07417000000004 428.76399000000015,272.41069000000005 C 429.40828000000016,272.7327700000001 430.38868000000014,273.49666 430.99998000000016,273.97917000000007 C 431.5894000000002,274.44441000000006 432.40571000000017,274.8159300000001 433.2359700000002,275.0506700000001 C 434.1719100000002,275.3153200000001 434.9474600000002,275.7065800000001 435.73866000000015,276.1493300000001 C 436.66581000000014,276.6681300000001 437.35866000000016,276.8765900000001 438.3218200000002,277.2216900000001 C 439.08137000000016,277.4938200000001 439.77211000000017,277.88639000000006 440.64299000000017,278.3215100000001 C 441.3144100000002,278.6569600000001 442.04164000000014,279.0208500000001 442.8089800000002,279.4045200000001 C 443.9999900000002,280.0000100000001 444.3982100000002,280.2022500000001 445.1864800000002,280.5910100000001 C 445.9363000000002,280.9607900000001 446.9346500000002,281.4534100000001 447.9479900000002,281.8333500000001 C 448.6697300000002,282.1039800000001 449.5056700000002,282.49128000000013 450.05334000000016,282.8533400000001 C 450.69348000000014,283.27656000000013 451.35412000000014,283.7684700000001 452.0333200000002,284.2333400000001 C 453.2179500000002,285.0441900000001 453.95135000000016,285.4358900000001 454.5119900000002,285.79734000000013 C 455.40893000000017,286.3756500000001 455.9573000000002,286.9017700000001 456.76934000000017,287.48402000000016 C 457.51018000000016,288.01521000000014 458.0397300000002,288.3674100000002 459.0784800000002,288.97850000000017 C 459.7563700000002,289.3772700000002 460.4035200000002,289.67992000000015 461.3999800000002,290.2013400000002 C 462.2066800000002,290.6234600000002 463.0086200000002,291.1562000000002 463.5999900000002,291.6526900000002 C 464.2090600000002,292.16404000000017 464.99583000000024,292.8394000000002 465.5909900000002,293.2428400000002 C 466.4236000000002,293.8072300000002 466.9211600000002,294.55445000000014 467.6106400000002,295.0253400000002 C 468.3376300000002,295.5218300000002 469.1989000000002,296.3838900000002 468.6248300000002,296.9563400000002 C 468.2024700000002,297.3775100000002 467.0134700000002,297.6632200000002 466.2713100000002,298.0625100000002 C 465.8556900000002,298.2861400000002 464.9623500000002,298.7703000000002 464.4819700000002,298.9991900000002 C 463.01465000000024,299.69835000000023 462.50684000000024,299.8762000000002 461.5179800000002,300.1856800000002 C 460.5888100000002,300.4764800000002 460.1251300000002,300.5174100000002 458.66663000000017,301.0000100000002 C 458.1294300000002,301.1777700000002 457.35602000000017,301.6481100000002 456.4999700000002,302.0000100000002 C 455.6514300000002,302.3488300000002 454.9581900000002,302.4995500000002 454.2436200000002,302.7000200000002 C 452.8212000000002,303.09910000000025 452.1560300000002,303.2965500000002 451.5208100000002,303.5000100000002 C 450.59967000000023,303.7950200000002 449.6999800000002,304.0999900000002 448.7999500000002,304.4000000000002 C 448.1999700000002,304.6000100000002 446.9999600000002,305.0000100000002 446.3999600000002,305.2000200000002 C 445.4999700000002,305.5000100000002 444.8985600000002,305.6958100000002 443.7003100000002,306.1000100000002 C 442.8202400000002,306.3968900000002 442.2368400000002,306.5272000000002 441.1427800000002,307.0998300000002 C 440.49730000000017,307.4376600000002 439.6794600000002,307.8858400000002 438.9583000000002,308.0000100000002 C 437.8350100000002,308.1778400000002 437.05199000000016,308.35343000000023 436.26128000000017,308.5746900000002 C 435.3335500000002,308.83427000000023 434.5208000000002,308.9791700000002 433.51595000000015,309.0000100000002 L 432.8253100000002,309.0000100000002 L 431.7571300000002,309.0000100000002" fill="none" id="svg_1" stroke="#000" stroke-width="2"/>
	<path d="M 448.0,305.0 C 449.83334,305.16666 450.10709,305.88455 450.88266,306.39999 C 451.42911,306.76315 452.42233,307.09695 453.21466,307.39999 C 453.99133,307.69702 455.02945,308.2124 455.5625,308.52084 C 456.21622,308.89911 457.20477,309.32824 458.08133,309.65716000000003 C 458.56793,309.83975000000004 459.61762,310.20986000000005 460.16533999999996,310.40450000000004 C 461.83419,310.99758 462.37953999999996,311.19960000000003 462.92132,311.40133000000003 C 464.01775999999995,311.80956000000003 464.58279,312.02233 465.16934,312.23599 C 465.78076,312.45871 467.83252,313.16919 468.6065,313.42117 C 469.41781,313.68533 470.25826,313.94992 471.11599,314.21466000000004 C 471.97860000000003,314.4809 472.83691,314.74008000000003 473.6795,314.99017000000003 C 474.49426,315.23199000000005 475.99954,315.66830000000004 476.67132000000004,315.85699000000005 C 477.29025,316.03085000000004 477.86541000000005,316.18795000000006 478.40533000000005,316.32800000000003 C 478.91610000000003,316.46051000000006 479.88485000000003,316.70282000000003 481.33334,317.00000000000006 C 481.84268000000003,317.10449000000006 482.37539000000004,317.19891000000007 483.50399000000004,317.42133000000007 C 484.10455,317.5396800000001 484.73116000000005,317.66388000000006 485.38049000000007,317.8143400000001 C 487.50631000000004,318.3068600000001 488.26461000000006,318.5388000000001 489.04800000000006,318.76801000000006 C 489.84567000000004,319.0014100000001 490.64471000000003,319.24851000000007 491.43750000000006,319.50000000000006 C 492.2166700000001,319.74719000000005 492.9708600000001,319.99356000000006 493.69199000000003,320.23199000000005 C 495.00068000000005,320.66467000000006 495.57120000000003,320.8585800000001 496.57502000000005,321.1901500000001 C 497.0264700000001,321.33929000000006 497.8788200000001,321.6184600000001 498.73335000000003,321.88265000000007 C 499.66539,322.17080000000004 500.73713000000004,322.4847000000001 501.31517,322.65267000000006 C 501.91179,322.82604000000003 503.13451000000003,323.17534000000006 503.74651,323.34731000000005 C 504.34917,323.51665 506.03472,323.98079000000007 506.54268,324.1133300000001 C 507.48015000000004,324.3579000000001 508.32832,324.57250000000005 509.11067,324.7133400000001 C 510.17460000000005,324.9048400000001 510.85643000000005,324.94601000000006 511.89735,325.0253200000001 C 512.6547400000001,325.08303000000006 513.50105,325.15868000000006 514.45869,325.2853300000001 C 515.5305900000001,325.4270800000001 516.1042,325.5206200000001 516.7039900000001,325.6106500000001 C 517.3278900000001,325.7042800000001 519.3332,326.00094000000007 520.0423700000001,326.1000000000001 C 520.7652100000001,326.2009800000001 521.4964100000001,326.29971000000006 522.2293200000001,326.39999000000006 C 522.9583800000001,326.4997200000001 523.6778700000001,326.59610000000004 524.3803200000001,326.7000100000001 C 526.3349700000001,326.9891600000001 526.9146200000001,327.09762000000006 527.4600300000001,327.19867000000005 C 528.4674200000001,327.38528 529.3908200000001,327.5796500000001 530.2800400000001,327.71466000000004 C 531.1644400000001,327.84894 532.0808200000001,327.9263 533.0040400000001,327.96399 C 533.9022900000001,328.00064000000003 534.3330200000001,327.99774 535.8353400000002,328.0 C 536.6813500000002,328.00125 537.3293600000002,328.0 538.3640300000002,328.0 C 539.3000000000002,328.0 540.2126600000001,327.84973 541.0998700000002,328.00015 C 541.9493000000002,328.14416 541.6374100000003,328.88571 540.6955100000002,329.00448 C 539.8250900000003,329.11425 539.1417400000003,329.4252 538.3133700000002,329.88665 C 537.5675800000001,330.30212 536.7788200000002,330.84249 536.1893500000002,331.13865999999996 C 535.0266300000002,331.72285999999997 534.4052900000003,331.84673 533.5417100000002,331.97914 C 532.7727900000002,332.09702999999996 531.8014800000002,332.37102 531.0803500000002,332.76164 C 530.0219400000002,333.33497 529.2867100000002,333.65254 528.8880300000002,333.81465 C 528.0689400000002,334.14772 527.2673000000002,334.49375999999995 525.8573900000002,334.83063999999996 C 525.0907900000002,335.01381 524.1719000000003,335.17728999999997 523.5000300000003,335.49997999999994 C 522.6844800000002,335.8916699999999 521.7469800000002,335.9886599999999 520.8333400000002,336.1666399999999 C 520.0405500000003,336.3210899999999 519.2347700000003,336.6168699999999 518.1667100000002,336.83332999999993 C 517.4667600000002,336.9751799999999 516.6090300000002,336.92625999999996 515.7527100000002,337.3571599999999 C 515.0592900000003,337.70609999999994 514.3694100000002,338.3594799999999 513.5955400000003,338.6427999999999 C 512.6277100000002,338.9971699999999 511.8360500000002,338.9946399999999 510.7526800000003,338.99997999999994 C 509.8333700000003,339.00449999999995 508.96853000000027,338.8969199999999 508.16668000000027,339.1666399999999 C 507.32226000000026,339.4506699999999 506.5173600000003,339.9480099999999 505.7893600000003,339.9892999999999 C 504.8017200000003,340.0453299999999 504.0208700000003,339.9999799999999 502.88537000000025,339.9999799999999 C 502.00002000000023,339.9999799999999 501.18569000000025,339.9999799999999 500.23068000000023,339.9999799999999 C 499.4791800000002,339.9999799999999 498.6827100000002,339.9999799999999 497.68670000000026,339.9999799999999 C 496.8467000000003,339.9999799999999 495.8840300000003,339.9999799999999 495.1160200000003,339.9999799999999 C 494.1640200000003,339.9999799999999 493.3987000000003,339.9999799999999 492.40002000000027,339.9999799999999 C 491.6000300000003,339.9999799999999 490.6013400000003,339.9999799999999 489.65719000000024,339.9999799999999 C 488.75720000000024,339.9999799999999 487.79736000000025,339.9999799999999 487.02935000000025,339.9999799999999 C 485.99468000000024,339.9999799999999 485.25069000000025,339.9999799999999 484.33337000000023,339.9999799999999 C 483.38537000000025,339.9999799999999 482.5133600000002,339.9999799999999 481.75335000000024,339.9999799999999 C 480.83337000000023,339.9999799999999 480.0428700000002,339.9999799999999 479.1893500000002,339.9999799999999 C 478.00002000000023,339.9999799999999 477.10903000000025,339.9999799999999 476.5416800000002,339.9999799999999 C 475.33337000000023,339.9999799999999 474.6400400000002,339.9999799999999 473.50002000000023,339.9999799999999 C 472.9453600000002,339.9999799999999 471.95836000000025,339.9999799999999 471.24367000000024,339.9999799999999 C 470.16667000000024,339.9999799999999 469.16167000000024,339.9999799999999 468.54167000000024,339.9999799999999 C 467.6866900000002,339.9999799999999 466.44819000000024,339.9999799999999 465.73869000000025,339.9999799999999 C 464.66667000000024,339.9999799999999 464.03068000000025,339.9999799999999 462.97917000000024,339.9999799999999 C 462.2481800000002,339.9999799999999 461.16667000000024,339.9999799999999 460.48668000000026,339.9999799999999 C 459.54167000000024,339.9999799999999 458.6866900000003,339.9999799999999 457.6840100000003,339.9999799999999 C 456.7746800000003,339.9999799999999 455.8333600000003,339.9999799999999 455.0473500000003,339.9999799999999 C 454.22536000000025,339.9999799999999 453.1666700000003,339.9999799999999 452.4571700000003,339.9999799999999 C 451.6045100000003,339.9999799999999 450.6000200000003,339.9999799999999 449.8000000000003,339.9999799999999 C 448.8000000000003,339.9999799999999 447.9999800000003,340.0067499999999 447.0000100000003,339.9999799999999 C 446.2106100000003,339.9946399999999 445.11683000000033,339.9119699999999 444.52085000000034,339.47913999999986 C 443.72025000000036,338.89768999999984 443.22877000000034,338.16663999999986 442.2999900000003,338.00446999999986 C 441.3771100000003,337.84333999999984 440.5257900000003,337.6810399999999 439.75333000000035,337.42530999999985 C 438.8461000000003,337.1249599999999 438.0456900000003,337.06831999999986 437.22535000000033,336.97465999999986 C 436.1641600000003,336.85353999999984 435.4637800000003,336.61067999999983 434.54734000000036,336.35264999999987 C 433.5884200000004,336.08268999999984 432.75367000000034,336.0257799999999 432.1533300000004,336.0106699999999 C 430.83372000000037,335.9774999999999 430.1173500000004,335.9999899999999 429.3853600000004,335.9999899999999 C 428.6613600000004,335.9999899999999 427.33336000000037,335.9999899999999 426.5143600000004,335.9999899999999 C 425.8213400000004,335.9999899999999 424.8001900000004,335.9999899999999 424.0208600000004,335.9999899999999 C 422.88536000000045,335.9999899999999 422.0000200000004,335.9999899999999 421.2000300000004,335.9999899999999 C 420.30001000000044,335.9999899999999 419.4791700000004,335.9999899999999 418.51601000000045,335.9999899999999 C 417.65270000000044,335.9999899999999 416.7526700000004,335.9999899999999 415.8333600000004,335.9999899999999 C 415.0000200000004,335.9999899999999 414.0212000000004,335.9994099999999 413.1901700000004,335.9999899999999 C 412.2293500000004,336.0006599999999 411.4553100000004,335.9882699999999 410.59734000000043,336.0853199999999 C 409.6958500000004,336.18727999999993 408.8223500000004,336.42903999999993 408.0143600000004,336.6473299999999 C 407.1439100000004,336.8824999999999 406.2495300000004,336.9425299999999 405.3383700000004,337.00898999999987 C 404.5335900000004,337.06770999999986 403.5778400000004,337.44160999999986 402.7533500000004,337.8506599999999 C 402.1529800000004,338.1485399999999 401.5333800000004,338.5043799999999 400.4790300000004,338.7571499999999 C 399.41119000000043,339.0131599999999 398.6919800000004,338.9754099999999 398.0546800000004,339.0826499999999 C 396.85693000000043,339.2841899999999 396.29409000000044,339.91278999999986 395.47918000000044,340.4791299999999 C 394.7444100000004,340.9897799999999 393.7722100000004,340.9528799999999 392.80001000000044,341.2214699999999 C 392.18584000000044,341.3911499999999 391.40481000000045,341.8110699999999 390.4045300000004,342.2954799999999 C 389.83867000000043,342.5695299999999 388.87816000000043,342.8944499999999 388.03069000000045,343.08398999999986 C 387.22722000000044,343.26370999999983 386.25887000000046,343.60568999999987 385.3333600000004,343.83331999999984 C 384.5477500000004,344.02655999999985 383.7689100000004,344.47647999999987 382.9000100000004,344.87863999999985 C 382.2379900000004,345.1850699999998 381.5153400000004,345.57443999999987 380.6781800000004,346.09997999999985 C 379.9652600000004,346.54754999999983 379.23513000000037,346.82147999999984 378.3575300000004,347.09979999999985 C 377.3674200000004,347.41379999999987 376.6926400000004,347.59170999999986 375.5000200000004,347.83331999999984 C 374.7115400000004,347.99304999999987 373.9583900000004,348.31653999999986 373.2000300000004,348.71597999999983 C 372.4113600000004,349.13138999999984 371.51403000000045,349.28686999999985 370.75334000000043,349.61062999999984 C 369.8341500000004,350.0018699999998 369.0530800000004,350.3137199999998 368.2253600000004,350.56396999999987 C 367.6874900000004,350.72656999999987 366.4477400000004,350.87039999999985 365.6616700000004,351.05264999999986 C 364.7319800000004,351.26822999999985 364.07415000000043,352.09994999999986 363.4583600000004,352.4791299999999 C 362.54067000000043,353.0442199999999 361.74980000000045,352.97762999999986 361.00536000000045,352.9954899999999 C 359.96828000000045,353.0203599999999 359.1859600000005,353.0229299999999 358.23067000000043,353.2853199999999 C 357.4712700000004,353.4939099999999 356.67861000000045,353.7912099999999 355.6853500000004,354.1986499999999 C 355.0180500000004,354.47238999999985 354.0063900000004,354.88223999999985 353.18935000000045,354.96396999999985 C 352.31835000000046,355.05109999999985 351.31469000000044,354.9999799999998 350.47918000000044,354.9999799999998 C 349.89553000000046,354.9999799999998 348.7003700000004,354.9999799999998 347.8213400000004,354.9999799999998 C 347.0143600000004,354.9999799999998 345.9611400000004,354.94019999999983 345.19469000000043,355.05713999999983 C 344.2144000000004,355.20673999999985 343.4626600000004,355.51773999999983 342.89101000000045,355.6473199999998 C 341.70797000000044,355.91547999999983 340.81108000000046,355.97788999999983 339.9571700000005,355.9954999999998 C 338.9218900000005,356.01685999999984 338.24669000000046,355.9999899999998 337.16667000000047,355.9999899999998 C 336.37468000000047,355.9999899999998 335.5146900000005,355.9999899999998 334.59550000000047,355.9999899999998 C 333.6013300000005,355.9999899999998 332.83601000000044,355.9999899999998 331.8826700000005,355.9999899999998 C 331.0306800000005,355.9999899999998 330.22935000000047,355.9999899999998 329.45835000000045,355.9999899999998 C 328.59733000000045,355.9999899999998 327.40269000000046,355.9999899999998 326.54166000000043,355.9999899999998 C 325.7706600000004,355.9999899999998 324.81433000000044,355.9999899999998 323.89966000000044,355.9999899999998 C 323.0293300000004,355.9999899999998 322.2320000000004,355.9999899999998 321.2506700000004,355.9999899999998 C 320.3333400000004,355.9999899999998 319.4999700000004,356.0072199999998 318.4566600000004,355.9998399999998 C 317.7066000000004,355.99452999999977 317.1035400000004,355.99473999999975 315.6666500000004,355.8333399999998 C 315.2564300000004,355.7872599999998 314.3969100000004,355.6544799999998 313.5208400000004,355.4791499999998 C 312.66015000000044,355.3069099999998 311.4958500000004,355.01301999999976 310.85598000000044,354.8013199999998 C 310.05697000000043,354.5369799999998 309.00259000000045,354.1510199999998 308.20000000000044,354.0253199999998 C 307.40227000000044,353.9003799999998 306.39272000000045,353.6593499999998 305.79998000000046,353.3893299999998 C 304.7869800000005,352.9278699999998 303.99239000000046,352.5456699999998 303.16665000000046,351.9999899999998 C 302.49575000000044,351.5566299999998 301.79177000000044,351.1481199999998 300.89965000000046,350.9994999999998 C 300.17544000000044,350.8788599999998 299.22787000000045,350.1454399999998 298.7173400000005,349.7026599999998 C 298.1425400000005,349.20415999999983 297.5379000000005,348.6447699999998 296.47881000000046,347.92164999999983 C 295.76833000000045,347.4365399999998 295.39153000000044,347.23521999999986 294.66134000000045,346.84666999999985 C 293.34420000000046,346.1458299999998 292.76437000000044,345.89353999999986 292.0208400000005,345.49998999999985 C 291.3124700000005,345.12501999999984 290.31277000000046,344.51759999999985 289.76400000000046,344.16398999999984 C 289.18734000000046,343.79240999999985 287.9993800000005,343.00092999999987 287.40267000000046,342.60130999999984 C 286.82070000000044,342.2115699999998 285.9935500000005,341.6847099999998 285.1430000000005,341.02150999999986 C 284.52593000000047,340.54033999999984 283.8998700000005,339.8998099999999 283.36401000000046,339.36400999999984 C 282.6787100000005,338.67879999999985 282.0427200000005,337.9667299999998 281.48401000000047,337.5693299999998 C 280.58078000000046,336.9268699999998 279.6759400000005,336.6680799999998 279.00000000000045,335.9999899999998 C 278.41434000000044,335.4210999999998 278.10489000000047,334.5408499999998 277.66666000000043,333.8333299999998 C 277.21427000000045,333.1029199999998 276.5851200000004,332.6012999999998 275.80033000000043,331.7999699999998 C 275.21693000000045,331.2042999999998 274.6117600000004,330.6521699999998 274.2428300000004,329.8003099999998 C 273.92868000000044,329.0749399999998 273.42627000000044,328.2398499999998 273.0853300000004,327.4306499999998 C 272.77991000000037,326.7056999999998 273.0466900000004,325.7405299999998 272.9146800000004,325.0306599999998 C 272.7180600000004,323.9733799999998 272.4108700000004,323.2064099999998 272.0000100000004,322.1666499999998 C 271.71910000000037,321.4557099999998 271.28462000000036,320.88783999999976 271.0571700000004,319.7526499999998 C 270.87623000000036,318.8495099999998 271.0523200000004,318.1552099999998 270.9146800000004,317.3986799999998 C 270.73041000000035,316.38582999999977 270.3748900000004,315.6497799999998 270.02534000000037,314.6359799999998 C 269.73439000000036,313.7921099999998 269.1830500000004,313.1353999999998 269.03602000000035,312.1639999999998 C 268.92137000000037,311.40651999999983 269.05873000000037,310.3933099999998 268.94285000000036,309.5999999999998 C 268.79460000000034,308.5850799999998 268.4822200000004,307.9985299999998 268.0000100000004,306.9999899999998 C 267.61311000000035,306.1988099999998 267.29124000000036,305.6157099999998 267.08402000000035,304.5999999999998 C 266.92261000000036,303.8088299999998 266.78980000000035,302.7960799999998 266.5000100000004,302.0208399999998 C 266.1789300000004,301.1619499999998 266.01267000000036,300.3622999999998 265.7160100000004,299.51467999999977 C 265.45789000000036,298.7771299999998 265.0794400000004,297.8044399999998 265.0208500000004,297.0208399999998 C 264.9463000000004,296.02406999999977 265.0733700000004,295.1951899999998 264.9640000000004,294.3279999999998 C 264.8526100000004,293.4448199999998 264.4803900000004,292.5055199999998 264.2840100000004,291.7679999999998 C 264.0317800000004,290.8207299999998 264.1700300000004,289.8510999999998 263.8333600000004,288.9999899999998 C 263.55541000000045,288.2973499999998 263.0468900000004,287.5187299999998 263.0045000000004,286.6526699999998 C 262.9548200000004,285.6371699999998 263.00001000000043,284.7999799999998 263.00001000000043,283.8999799999998 C 263.00001000000043,282.9999899999998 263.00001000000043,282.1999999999998 263.00001000000043,281.2999699999998 C 263.00001000000043,280.3999799999998 263.00001000000043,279.4999799999998 263.00001000000043,278.5893099999998 C 263.00001000000043,277.6784799999998 263.00001000000043,276.7893199999998 263.00001000000043,275.8001599999998 C 263.00001000000043,275.02082999999976 263.00001000000043,274.0214999999998 263.00001000000043,273.30448999999976 C 263.00001000000043,272.39997999999974 262.83720000000045,271.56193999999977 262.35267000000044,270.94730999999973 C 261.8406800000004,270.2978699999997 261.88957000000045,269.3303999999997 261.1986800000004,268.91596999999973 C 260.4038800000004,268.43921999999975 260.1327900000004,267.5495499999997 259.7146700000004,266.79865999999976 C 259.29783000000043,266.05005999999975 258.7189700000004,265.33603999999974 258.3000000000004,264.65265999999974 C 257.8213000000004,263.8718699999997 257.2682300000004,263.1232399999997 256.50001000000043,262.52081999999973 C 255.85160000000042,262.01236999999975 255.25018000000043,261.3771399999997 254.47918000000044,261.02081999999973 C 253.69029000000043,260.6562299999997 253.17168000000044,260.37378999999976 252.64285000000044,259.70446999999973 C 252.05728000000045,258.9633499999997 251.09666000000044,258.96209999999974 250.34735000000043,258.6427899999997 C 249.63286000000042,258.3383499999997 248.83197000000044,257.57946999999973 248.00001000000043,257.1666199999997 C 247.24903000000043,256.79396999999966 246.54005000000043,256.4350799999997 245.79867000000044,255.80128999999968 C 245.14742000000044,255.2445399999997 244.32057000000043,255.1304799999997 243.59551000000044,254.8901299999997 C 242.55645000000044,254.5456799999997 242.09208000000044,253.89691999999968 241.16668000000044,253.3332899999997 C 240.45588000000043,252.9003699999997 239.61828000000045,252.5435599999997 238.80134000000044,252.0839599999997 C 238.09869000000043,251.68866999999972 237.56455000000042,251.0186099999997 236.70001000000045,250.9999599999997 C 235.80156000000045,250.9805799999997 235.18609000000043,250.5760999999997 234.71467000000044,249.79995999999971 C 234.30386000000044,249.12357999999972 233.49230000000043,248.5336499999997 232.70451000000043,248.0526299999997 C 232.05059000000043,247.6533699999997 232.07306000000042,246.6497799999997 231.57467000000042,246.0252899999997 C 231.0894900000004,245.4173299999997 231.00068000000041,244.5999699999997 231.00001000000043,243.6999599999997 C 230.99934000000042,242.80263999999968 230.56617000000043,242.4649399999997 229.80134000000044,242.9159599999997 C 229.05477000000045,243.3561899999997 228.46510000000043,243.8507399999997 227.60002000000043,244.0106299999997 C 226.76578000000043,244.1648199999997 226.21188000000043,244.7586799999997 225.23201000000043,245.1986299999997 C 224.51689000000042,245.5197099999997 223.78607000000042,245.8146899999997 222.67201000000043,245.9639699999997 C 221.80562000000043,246.08005999999972 220.83017000000044,246.1586999999997 220.17468000000042,246.4252999999997 C 219.48054000000042,246.7075999999997 218.50125000000043,246.95721999999972 217.6955100000004,247.35261999999972 C 216.80936000000042,247.7874799999997 216.0000100000004,247.9791299999997 215.0215100000004,248.00012999999973 L 214.3045100000004,248.05711999999974 L 213.5000100000004,248.49995999999973 L 212.7000100000004,248.94279999999972" fill="none" id="svg_2" stroke="#000" stroke-width="2"/>
	<path d="M 229.0,203.0 C 227.60001,203.88266 227.18149,204.68079 226.80133,205.68266 C 226.60084,206.21103 226.34192000000002,206.98628 226.08267,208.03334 C 225.87810000000002,208.8596 225.55394,209.76321000000002 225.29466,210.37601 C 224.99608999999998,211.08168 224.63794,211.85320000000002 224.33333,213.16667 C 224.12375,214.07039 224.09556999999998,214.53784000000002 224.04166999999998,215.4375 C 223.99149999999997,216.27496 223.99999999999997,217.61433 223.99999999999997,218.45833 C 223.99999999999997,219.33333 224.00698999999997,220.2731 223.96399999999997,220.82134 C 223.87129999999996,222.00359 223.64290999999997,222.90346 223.49999999999997,223.52083 C 223.27707999999998,224.48377 223.11368999999996,225.52031 223.05266999999998,226.24366999999998 C 222.99244,226.95773999999997 223.01781999999997,227.97123999999997 222.71465999999998,228.94933999999998 C 222.46918999999997,229.74132999999998 221.98198999999997,230.66163999999998 221.80132999999998,231.34133999999997 C 221.58939999999998,232.13863999999998 221.42730999999998,233.04130999999998 221.35715999999996,233.51800999999998 C 221.13962999999995,234.99627999999998 221.08061999999995,235.99575999999996 221.05715999999995,236.48649999999998 C 221.01169999999996,237.43711 221.00225999999995,238.32850999999997 220.99999999999994,239.49999999999997 C 220.99875999999995,240.14666999999997 220.99999999999994,240.97916999999998 220.99999999999994,241.76665999999997 C 220.99999999999994,242.97066999999998 220.99999999999994,243.67198999999997 220.99999999999994,244.42134 C 220.99999999999994,245.20266999999998 220.99999999999994,246.3995 220.99999999999994,247.18649 C 220.99999999999994,248.292 220.99999999999994,248.944 220.99999999999994,250.142 C 220.99999999999994,250.858 220.99999999999994,251.76416 220.99999999999994,252.68666 C 220.99999999999994,253.35999999999999 220.99999999999994,254.66666999999998 220.99999999999994,255.48567 C 220.99999999999994,256.17868 221.04735999999994,257.20267 220.97916999999995,258.0 C 220.89304999999996,259.0069 220.56255999999996,259.81006 220.29549999999995,260.45715 C 219.89800999999994,261.42028 219.58725999999996,262.20739000000003 219.35715999999994,262.99017000000003 C 219.05422999999993,264.02069000000006 218.99999999999994,265.00000000000006 218.99999999999994,265.79998000000006 L 218.99999999999994,266.70000000000005" fill="none" id="svg_3" stroke="#fff" stroke-width="20"/>
	<path d="M 226.0,234.0 C 226.0,235.8 226.0,236.7 226.0,237.60001 C 226.0,238.41066 226.0,239.32134 226.0,240.17467 C 226.0,241.11467 226.0,242.10001 226.0,243.0 C 226.0,243.8 225.97328,244.63646 226.00133,245.48399 C 226.02993999999998,246.34866 226.53266,247.15574 226.8785,248.10017 C 227.15163,248.84602999999998 226.90868,249.84413999999998 227.08533,250.516 C 227.35199,251.53016 227.97133,252.29863999999998 228.0,253.19998999999999 C 228.02863,254.09954 228.08533,254.79999999999998 228.61067,255.6 L 229.19867,256.20001" fill="none" id="svg_4" stroke="#fff" stroke-width="20"/>
	<path d="M 237.0,215.0 C 235.39999,215.57466 234.56384,216.04419 233.97467,216.57466 C 233.39169,217.09956 233.19627,217.83583 232.94284,218.7 C 232.68552,219.57744 232.02866999999998,220.29864999999998 232.0,221.2 C 231.97139,222.09938 231.56279,222.65445 231.05267,223.36166999999998 C 230.56457,224.03837 230.41748,224.97155999999998 230.16667,225.83333 C 229.92152000000002,226.67566 230.16522,227.61919999999998 229.97917,228.5 C 229.80018,229.3474 229.08504000000002,229.9874 229.00133000000002,230.8 C 228.90912000000003,231.69526000000002 229.00000000000003,232.60000000000002 229.00000000000003,233.5 C 229.00000000000003,234.39999 228.99992000000003,235.3 229.00000000000003,236.2 C 229.00009000000003,237.10001 229.16734000000002,237.99953 229.61067000000003,238.636 C 230.20090000000002,239.48337 230.53769000000003,240.21696 231.10000000000002,240.97833 C 231.55270000000002,241.59126 232.71351,241.86427 232.98933000000002,242.61067 C 233.29762000000002,243.44491 232.90454000000003,244.44453 233.28399000000002,245.19998999999999 C 233.71957,246.06718999999998 233.99932,246.79999999999998 233.99999000000003,247.69998999999999 C 234.00066000000004,248.6 234.02082000000001,249.49999 234.35715000000002,250.29999999999998 L 234.99999000000003,250.99999999999997 L 235.60000000000002,251.56399999999996 L 236.39999000000003,251.96400999999997" fill="none" id="svg_5" stroke="#000" stroke-width="2"/>
</svg>
