<?xml version="1.0" ?>
<svg baseProfile="full" height="480" version="1.1" width="640" xmlns="http://www.w3.org/2000/svg" xmlns:ev="http://www.w3.org/2001/xml-events" xmlns:xlink="http://www.w3.org/1999/xlink">
	<defs/>
	<path d="M 158.0,157.0 C 155.028,157.0 154.31734,157.0 153.54266,157.0 C 152.71200000000002,157.0 151.37832,157.0 150.43834,157.0 C 149.95334,157.0 148.95334,157.0 148.43834,157.0 C 146.83333000000002,157.0 146.27882000000002,157.0038 145.15184000000002,156.9955 C 144.58531000000002,156.99133 144.02043000000003,156.98993 142.90984000000003,156.94284 C 142.36910000000003,156.91991 140.84008000000003,156.79719 139.91434000000004,156.64283999999998 C 139.03855000000004,156.49679999999998 138.61992000000004,156.39530999999997 137.80268000000004,156.19866999999996 C 136.59803000000005,155.90879999999996 135.80389000000002,155.70244999999997 135.02083000000005,155.49999999999997 C 134.25655000000003,155.30239999999998 132.81987000000004,154.90586999999996 132.16167000000004,154.69999999999996 C 131.53992000000005,154.50552999999996 130.68039000000005,154.21539999999996 129.68666000000005,153.80132999999995 C 128.84112000000005,153.44901999999996 127.42857000000005,153.52260999999996 127.51466000000005,153.01066999999995 C 127.61977000000005,152.38569999999996 129.34173000000004,153.28326999999996 130.14399000000006,153.43600999999995 C 130.58353000000005,153.51968999999994 131.51815000000005,153.70376999999996 132.99999000000005,154.00000999999995 C 133.49987000000004,154.09993999999995 134.49633000000006,154.30069999999995 134.98932000000005,154.41066999999995 C 135.96570000000006,154.62846999999996 136.92186000000004,154.86278999999996 137.83331000000004,155.16667999999996 C 138.72357000000005,155.46350999999996 139.57585000000003,155.83327999999995 139.99998000000005,156.02083999999996 C 140.85510000000005,156.39899999999997 142.16578000000004,157.00199999999995 142.62132000000005,157.20000999999996 C 143.55090000000004,157.60407999999995 144.50029000000006,157.99927999999997 144.97465000000005,158.20000999999996 C 145.91659000000004,158.59857999999997 146.83691000000005,158.99218999999997 147.71331000000006,159.40000999999995 C 148.55683000000008,159.79252999999994 148.96386000000007,159.98936999999995 149.73830000000007,160.40000999999995 C 150.84142000000006,160.98493999999994 151.51870000000005,161.39350999999996 152.16397000000006,161.80001999999996 C 153.10145000000006,162.39060999999995 153.99934000000007,163.00095999999996 154.59863000000007,163.39867999999996 C 155.18869000000007,163.79027999999997 156.03622000000007,164.35361999999995 156.83329000000006,164.83333999999996 C 157.53712000000007,165.25693999999996 158.42245000000005,165.71631999999997 159.19979000000006,166.32134999999997 C 159.81184000000007,166.79770999999997 160.32683000000006,167.36376999999996 161.11596000000006,168.11467999999996 C 161.74027000000007,168.70876999999996 162.47842000000006,169.21274999999997 163.21063000000007,169.60001999999997 C 163.99286000000006,170.01374999999996 164.81906000000006,170.37954999999997 165.39996000000008,170.75718999999998 C 166.43553000000009,171.43039 166.9791400000001,172.00001999999998 167.51463000000007,172.51601999999997 L 168.24279000000007,173.24283999999997 L 168.79862000000006,173.79866999999996" fill="none" id="svg_1" stroke="#000" stroke-width="2"/>
	<path d="M 147.0,151.0 C 154.4785,152.75684 155.11375,152.84023 155.74283,152.88116 C 156.97785,152.96152999999998 157.58965,152.95512 158.1955,152.93383 C 160.00168000000002,152.8704 160.60064,152.78416 161.20000000000002,152.71465 C 162.40137000000001,152.57532 163.00029,152.48111 163.60001000000003,152.38932 C 164.20031000000003,152.29745 166.00003000000004,152.00014 166.59967000000003,151.89999 C 167.19736000000003,151.80015 168.37891000000002,151.60138 168.95833000000002,151.5 C 170.08614000000003,151.30267 170.63173,151.21194 172.15666000000002,150.89999 C 172.62742000000003,150.80368 173.50932,150.61036000000001 174.30667000000003,150.39999 C 175.02920000000003,150.20935 176.22658,149.7977 176.93750000000003,149.52082000000001 C 177.97646000000003,149.11619000000002 179.21381000000002,148.37157000000002 179.54401000000001,149.17066000000003 C 179.86715,149.95264000000003 178.49265000000003,150.43796000000003 177.66668,150.99999000000003 C 177.04398,151.42370000000003 176.32681000000002,151.80855000000003 175.57868000000002,152.23598 C 174.79607000000001,152.68311 173.99276000000003,153.15564 173.20000000000002,153.68532000000002 C 172.39246000000003,154.22487 171.99684000000002,154.51651 171.20000000000002,155.10449000000003 C 169.9952,155.99350000000004 169.59883000000002,156.29783000000003 168.80901000000003,156.89548000000002 C 168.04021000000003,157.47722000000002 167.66556000000003,157.75589000000002 166.97068000000002,158.31465000000003 C 166.03420000000003,159.06767000000002 165.26722,159.75897000000003 164.82134000000002,160.18931000000003 C 163.99099,160.99073000000004 163.4045,161.59999000000005 162.836,162.19998000000004 L 162.16667,162.99998000000005 L 161.75717,163.59548000000004 L 161.3045,164.34281000000004" fill="none" id="svg_2" stroke="#000" stroke-width="2"/>
	<path d="M 172.0,149.0 C 180.3495,141.75034 180.79306,141.38284 181.548,140.84134 C 182.35842,140.26004 183.22969,139.71005 183.78933,139.15334000000001 C 184.37592,138.56981000000002 184.86562,137.84934 185.24282,137.04734000000002 C 185.62247,136.2401 185.98782,135.16141000000002 186.29999,134.45718000000002 C 186.58882,133.80561000000003 187.0726,132.78482000000002 187.41065,132.21067000000002 C 187.85045,131.46369 188.65377,130.75887000000003 189.34733,130.30451000000002 C 190.11456,129.80189000000001 190.67489,129.18392000000003 191.02532,128.40000000000003 C 191.39618,127.57037000000004 192.00686,126.83746000000004 192.39998,126.17467000000003 C 192.80715,125.48820000000003 193.4395,124.65378000000004 193.99999,123.83334000000004 C 194.44295,123.18493000000004 194.70221,122.55282000000004 195.48533,121.60134000000004 C 195.98721,120.99155000000003 196.57278,120.44533000000004 197.39999,119.88534000000004 C 197.98135,119.49178000000005 199.0,119.00001000000005 199.8,118.60001000000004 C 200.39999,118.30001000000004 201.38922000000002,117.78090000000005 201.97917,117.52085000000004 C 202.96411,117.08668000000004 203.76131,116.97224000000004 204.65716,116.64735000000003 C 205.41235,116.37346000000004 206.41299,116.14209000000002 207.19999,115.93869000000004 C 208.01809,115.72726000000003 208.76919,115.10439000000004 209.39999,114.70535000000004 C 210.3583,114.09913000000005 210.99934,114.02086000000004 212.0,114.00002000000003 C 212.83182,113.98270000000004 213.5715,114.00002000000003 214.864,114.00002000000003 C 215.65801,114.00002000000003 216.5,114.00002000000003 216.924,114.00002000000003 C 217.74801,114.00002000000003 219.14534,114.00002000000003 219.95833000000002,114.00002000000003 C 220.68134,114.00002000000003 221.68666000000002,114.00002000000003 222.54167,114.00002000000003 C 223.48666,114.00002000000003 224.52133,114.00002000000003 225.25267000000002,114.00002000000003 C 226.00000000000003,114.00002000000003 226.74733000000003,114.00002000000003 228.17866000000004,114.00002000000003 C 228.84733000000003,114.00002000000003 229.82533000000004,114.00002000000003 230.48399000000003,114.00002000000003 C 231.52133000000003,114.00002000000003 232.25267000000002,114.00002000000003 233.37466000000003,114.00002000000003 C 234.11599000000004,114.00002000000003 235.17883000000003,114.00002000000003 235.85183000000004,114.00002000000003 C 236.86132000000003,114.00002000000003 237.56934000000004,113.99429000000003 238.74265000000003,114.00036000000003 C 239.60535000000002,114.00482000000002 240.50077000000002,114.03183000000003 240.94933000000003,114.07202000000002 C 241.83394000000004,114.15129000000002 243.06994000000003,114.41069000000002 243.79015000000004,114.71435000000002 C 244.49303000000003,115.01071000000003 245.14336000000003,115.41734000000002 246.16666000000004,116.00002000000002 C 246.87937000000002,116.40584000000003 247.61856000000003,116.79303000000002 248.33866000000003,117.20002000000002 C 249.03451000000004,117.59330000000003 250.23772000000002,118.39120000000003 250.73865000000004,118.80003000000002 C 251.45853000000002,119.38754000000002 252.16506000000004,120.00212000000002 252.95265000000003,120.60453000000003 C 253.49887000000004,121.02232000000002 254.08459000000002,121.41797000000003 254.83331000000004,122.16669000000003 C 255.58204000000003,122.91542000000003 255.97581000000005,123.50259000000003 256.39549000000005,124.04736000000003 C 257.19380000000007,125.08361000000002 257.59596000000005,125.55538000000003 258.23597000000007,126.22536000000002 C 258.67948000000007,126.68965000000003 259.6916300000001,127.67940000000003 260.22532000000007,128.24670000000003 C 260.78272000000004,128.83918000000003 261.3364000000001,129.47163000000003 261.83332000000007,130.16670000000002 C 262.33573000000007,130.86943000000002 262.7684100000001,131.62288 263.1893100000001,132.37469000000002 C 263.6030100000001,133.11360000000002 264.2007500000001,134.17813 264.5954700000001,134.84736 C 264.9800800000001,135.49947 265.3816000000001,136.13482000000002 265.83332000000007,137.16670000000002 C 266.14301000000006,137.87413 266.3733900000001,138.63643000000002 266.62531000000007,139.41069000000002 C 266.88270000000006,140.20178 267.31455000000005,141.40285000000003 267.65265000000005,142.20003000000003 C 267.99320000000006,143.00295000000003 268.35355000000004,143.79746000000003 268.51596000000006,144.20003000000003 C 268.9971300000001,145.39282000000003 269.25452000000007,146.20122000000003 269.47913000000005,147.02086000000003 C 269.70743000000004,147.85401000000002 270.0018400000001,149.16631000000004 270.0998000000001,149.62120000000002 C 270.29926000000006,150.54739 270.47913000000005,151.47920000000002 270.6428000000001,152.39020000000002 L 270.7146400000001,152.83071" fill="none" id="svg_3" stroke="#000" stroke-width="2"/>
	<path d="M 219.0,147.0 C 223.85867,150.65601 224.81911,150.97784 225.38933,150.12801 C 225.83496,149.46383999999998 225.94782,148.60241 225.98934,147.80001 C 226.04099,146.80163 226.15308,145.63620999999998 225.42934,145.17067999999998 C 224.71129,144.70879999999997 223.60001,144.99987 222.80001,145.00000999999997 C 221.80034999999998,145.00017999999997 220.80510999999998,144.74817999999996 220.243,145.44333999999998 C 219.69068,146.1264 220.0,147.33333999999996 220.0,147.96934 L 220.0,148.66134 L 220.0,149.75184" fill="none" id="svg_4" stroke="#000" stroke-width="2"/>
	<path d="M 272.0,162.0 C 274.85718,169.69234 275.17722,170.61467 275.47916,171.375 C 275.73719,172.02481 276.30078,173.09384 276.65268,173.53833 C 277.3103,174.36902 277.97751,174.97948 278.58932999999996,175.58934 C 279.29885999999993,176.29663 280.00001,176.83333 280.79999,176.99867 L 281.70000999999996,177.0 L 282.59999999999997,177.0" fill="none" id="svg_5" stroke="#000" stroke-width="2"/>
</svg>
