<?xml version="1.0" ?>
<svg baseProfile="full" height="480" version="1.1" width="640" xmlns="http://www.w3.org/2000/svg" xmlns:ev="http://www.w3.org/2001/xml-events" xmlns:xlink="http://www.w3.org/1999/xlink">
	<defs/>
	<path d="M 226.0,205.0 C 229.028,199.856 229.39934,199.33952 229.71201,198.40401 C 230.04061,197.42083 229.98785999999998,196.73931 230.33333,195.83333 C 230.64171,195.02461 231.21043999999998,194.29285 231.66666999999998,193.33333 C 231.98224,192.66968 232.14919999999998,191.66146999999998 232.35716,190.99465999999998 C 232.59117,190.24430999999998 233.07488999999998,189.12537999999998 233.52083,188.49999999999997 C 234.13294,187.64158999999998 234.66886,186.99810999999997 234.97916999999998,186.45832999999996 C 235.46371,185.61549999999997 235.78746999999998,184.70605999999995 235.93865999999997,183.82133999999996 C 236.07583999999997,183.01857999999996 236.31867999999997,181.98313999999996 236.57465999999997,181.34933999999996 C 236.92756999999997,180.47552999999996 236.94252999999998,179.49108999999996 237.08399999999997,178.76800999999995 C 237.27588999999998,177.78713999999994 237.75847,177.04148999999995 237.91732999999996,176.23066999999995 C 238.11462999999998,175.22364999999994 238.06445999999997,174.63389999999995 238.56933999999995,173.68533999999994 C 238.94679999999997,172.97615999999994 239.58944999999994,172.44951999999995 240.23832999999996,171.39999999999995 C 240.59469999999996,170.82360999999995 240.92123999999995,169.80395999999996 240.97916999999995,168.97917999999996 C 241.05945999999994,167.83595999999994 240.99205999999995,167.04233999999997 241.02082999999996,166.47917999999996 C 241.06586999999996,165.59746999999996 241.27531999999997,164.40048999999996 241.42533999999995,163.82133999999996 C 241.63523999999995,163.01109999999997 241.96879999999996,161.80676999999997 241.99866999999995,161.03199999999995 C 242.02948999999995,160.23257999999996 241.90076999999994,159.18345999999994 242.33332999999996,158.33332999999996 C 242.71409999999997,157.58498999999995 243.56393999999997,157.28034999999997 244.01466999999997,156.36399999999995 C 244.40794999999997,155.56446999999994 244.64843999999997,154.80904999999996 244.87866999999997,153.79999999999995 C 245.05865999999997,153.01111999999995 245.14137999999997,151.99124999999995 245.42534999999998,151.21065999999996 C 245.69249,150.47634999999997 245.98939,149.52101999999996 246.00000999999997,148.69548999999995 C 246.01308999999998,147.67874999999995 245.87430999999998,146.86975999999996 246.50000999999997,146.16666999999995 C 247.12497999999997,145.46437999999995 248.16072999999997,145.54580999999996 248.74400999999997,144.79732999999996 C 249.24084999999997,144.15976999999995 248.93646999999999,142.99286999999995 249.03599999999997,142.28665999999996 C 249.18411999999998,141.23566999999994 249.87898999999996,140.69662999999994 250.16932999999997,140.02798999999996 C 250.52367999999998,139.21194999999997 250.95594999999997,138.46723999999995 251.51733999999996,137.85331999999997 C 252.28331999999997,137.01566999999997 253.18846999999997,136.69698999999997 253.75717999999995,136.29548999999997 C 254.63368999999994,135.67666999999997 255.38025999999994,135.43974999999998 256.24283999999994,135.04815999999997 C 257.14261999999997,134.63969999999998 257.44614999999993,133.87362999999996 258.33335999999997,133.16665999999998 C 258.94881,132.67623999999998 259.52900999999997,132.58145 260.66666999999995,131.99998999999997 C 261.35819999999995,131.64653999999996 262.18149999999997,131.22344999999996 263.00001,130.97915999999998 C 263.85285,130.72463 264.20426,129.99447999999998 265.00001,129.33332 C 265.58207,128.84971 266.54344,128.78128999999998 267.25068,128.57465 C 268.23307,128.28762999999998 269.18919,128.03649 270.16667,127.99999 C 270.825,127.9754 271.88457,127.91253 272.50001000000003,127.45833 C 273.4112,126.78586 273.79145000000005,126.12631 274.40452000000005,125.70983000000001 C 275.34001000000006,125.07429 276.16889000000003,125.09759000000001 277.1146600000001,124.99866000000002 C 278.0104100000001,124.90496000000002 278.6458800000001,124.33637000000002 279.54267000000004,124.12133000000001 C 280.23746000000006,123.95473000000001 281.26539,124.01485000000001 282.19016000000005,123.64733000000001 C 282.91691000000003,123.3585 283.82486000000006,123.01800000000001 284.83335000000005,123.00000000000001 C 285.58921000000004,122.98650000000002 286.52085000000005,123.00000000000001 287.48533000000003,123.00000000000001 C 288.21067000000005,123.00000000000001 289.20002000000005,123.00000000000001 290.00001000000003,123.00000000000001 C 291.00001000000003,123.00000000000001 291.78935,123.00000000000001 292.83335000000005,123.00000000000001 C 293.52085000000005,123.00000000000001 294.54267000000004,123.00000000000001 295.25068000000005,123.00000000000001 C 296.232,123.00000000000001 297.19468000000006,123.00000000000001 297.968,123.00000000000001 C 299.00984,123.00000000000001 299.78535,123.00000000000001 300.83336,123.00000000000001 C 301.54286,123.00000000000001 302.39552000000003,123.00000000000001 303.3987,123.00000000000001 C 304.16402,123.00000000000001 305.16912,122.83051000000002 306.10018,123.22134000000001 C 306.82216,123.52442 307.66872,123.87077000000001 308.34734000000003,124.05267 C 309.39092000000005,124.33239 309.78399,125.17839000000001 310.00002,125.97917000000001 C 310.23406,126.84661000000001 311.16802,127.16324000000002 311.82537,127.42534 C 312.83547000000004,127.82809 313.66033000000004,127.95705000000001 314.02535,128.64668 C 314.51958,129.58041 314.67254,130.43614 315.48269,130.83069 C 316.23455,131.19684 317.00646,131.61498 317.42535,132.41068 C 317.82552999999996,133.17087 317.66420999999997,134.18281000000002 318.28668,134.83069 C 318.9393,135.50995 319.86358,135.37261 320.83337,136.00002 C 321.50854,136.43683000000001 322.49279,136.62017 322.94287,137.36168 C 323.44171,138.18353000000002 322.83349000000004,139.11414000000002 323.44269,139.97852 C 323.8743,140.59092 324.87012000000004,141.07415 324.99738,141.88535000000002 C 325.1431,142.81409000000002 325.04023,143.53675 325.50004,144.47919000000002 C 325.90821,145.31578000000002 326.57374,145.80718000000002 326.91471,146.56935000000001 C 327.23597,147.28743 327.00004,148.36401 327.00004,149.30452000000002 C 327.00004,150.16669000000002 327.00004,151.00002000000003 327.00004,151.97852000000003 L 327.00004,152.79868000000002" fill="none" id="svg_1" stroke="#000" stroke-width="2"/>
	<path d="M 313.0,168.0 C 311.60416,168.4375 312.35416,168.16165 313.31467,167.51733 C 314.00354,167.05523 314.54258,166.41690999999997 315.60001,166.11433 C 316.37577,165.89235 317.40439,166.05453 318.20002,165.964 C 319.21033,165.84904 319.75864,165.48507 320.83335,165.16667 C 321.57346,164.94740000000002 322.42136,164.99470000000002 323.33335,165.0 C 324.25074,165.00534 325.05048,164.88062 326.03202,165.28799 C 326.70977999999997,165.56929 327.3249,166.34199 328.01435,167.00534000000002 C 328.53538,167.50664 329.07232999999997,168.04626000000002 330.00001,168.66667 C 330.86415,169.24460000000002 331.51248999999996,169.44494 332.31467999999995,169.96800000000002 C 333.1153699999999,170.49006000000003 333.75965999999994,171.25442 334.18933999999996,171.74933000000001 C 334.99191999999994,172.67375 335.61313999999993,173.17789000000002 336.20001999999994,173.65067000000002 C 337.0189899999999,174.31043000000003 337.42788999999993,174.74558000000002 337.95834999999994,175.50000000000003 C 338.4589899999999,176.21204000000003 338.7960299999999,177.25349000000003 339.25332999999995,177.88266000000002 C 339.75278,178.56979 340.52572999999995,178.99332 341.23333999999994,179.51601000000002 C 342.03362999999996,180.10717000000002 343.27865999999995,180.83783000000003 342.93832999999995,181.64284000000004 C 342.66140999999993,182.29784000000004 341.22982999999994,182.01927000000003 340.47916,181.97917000000004 C 339.68122,181.93654000000004 338.67690999999996,181.73427000000004 338.0,181.47917000000004 C 337.30823,181.21849000000003 336.30695,180.81302000000005 335.45834,180.45833000000005 C 334.83343,180.19713000000004 333.82397000000003,179.68173000000004 333.11865,179.23200000000006 C 332.38592,178.76478000000006 331.69125,178.25867000000005 331.05465,177.76801000000006 C 330.2564,177.15276000000006 329.54037,176.49584000000007 328.66665,175.83333000000007 C 327.99999,175.32784000000007 327.46884,174.98223000000007 326.89098,174.6526700000001 C 325.7203,173.98502000000008 325.11803000000003,173.7214700000001 324.23598000000004,173.44668000000007 C 323.18062000000003,173.11788000000007 322.44933000000003,173.07824000000008 321.54732,172.94734000000008 C 320.57442000000003,172.80614000000008 319.78829,172.5640500000001 319.00981,172.35267000000007 C 317.97307,172.07115000000007 317.25181000000003,172.00451000000007 316.3473,171.99101000000007 L 315.48399,171.8293400000001 L 314.75715,171.29467000000008 L 314.2013,170.56800000000007" fill="none" id="svg_2" stroke="#000" stroke-width="2"/>
	<path d="M 327.0,169.0 C 328.82935,165.11467 328.94415,164.36488 328.97867,163.58934 C 329.01383000000004,162.79922 329.01215,161.6001 328.99100000000004,160.80901 C 328.97046000000006,160.04125 329.01224,159.27475 328.55735000000004,158.04267 C 328.35020000000003,157.4816 327.74485000000004,156.79380999999998 327.33335000000005,155.66667999999999 C 327.10798000000005,155.04939 327.08637000000004,154.33297 326.89466000000004,153.24818 C 326.70231000000007,152.15979 326.45344000000006,151.4736 326.12800000000004,150.83601 C 325.80235000000005,150.19801999999999 325.00569,148.99615 324.60002000000003,148.40401999999997 C 324.20552000000004,147.82820999999998 323.60002000000003,147.07151999999996 322.80034,146.36434999999997 L 322.04167,146.04168999999996" fill="none" id="svg_3" stroke="#000" stroke-width="2"/>
	<path d="M 319.0,182.0 C 317.07199,185.34933 317.0,186.33333 317.0,187.00534 C 317.0,187.99465999999998 317.0,188.85733 317.0,189.80533 C 317.0,190.76801 317.00705,191.50003 317.0,192.232 C 316.98932,193.33883 316.67773,194.17553 316.14932,194.82534 C 315.57977,195.52575000000002 315.10983,196.25184000000002 314.83333999999996,197.33334000000002 L 314.64282,198.00535000000002 L 314.38933999999995,198.74934000000002" fill="none" id="svg_4" stroke="#000" stroke-width="2"/>
	<path d="M 322.0,185.0 C 318.34134,189.51199 318.08844,190.13618 318.01801,190.98117 C 317.93073,192.02852 318.0,192.80533 318.0,193.768 C 318.0,194.49999 318.0,195.66667 318.0,196.49999 C 318.0,197.33332 318.0,198.26133 318.0,199.05182 C 318.0,200.07849 318.0,200.76398999999998 318.0,201.59865 C 318.0,202.59999 318.0,203.39998 318.0,204.39865 C 318.0,205.34282000000002 318.0,206.24731 318.0,207.16666 C 318.0,207.99999 318.0,208.97849 318.0,209.79865 L 318.0,210.63599000000002 L 318.0,211.65265000000002 L 318.0,212.34732000000002" fill="none" id="svg_5" stroke="#000" stroke-width="2"/>
</svg>
