<?xml version="1.0" ?>
<svg baseProfile="full" height="480" version="1.1" width="640" xmlns="http://www.w3.org/2000/svg" xmlns:ev="http://www.w3.org/2001/xml-events" xmlns:xlink="http://www.w3.org/1999/xlink">
	<defs/>
	<path d="M 225.0,183.0 C 224.18117,184.991 223.22829,184.9584 222.5,185.04167 C 221.76154,185.1261 220.8631,185.77177 220.19467,186.29466000000002 C 219.50889,186.83111000000002 218.72719,186.93261 217.891,187.04817000000003 C 216.69894,187.21290000000002 216.09577,187.32899000000003 215.23599,187.61067000000003 C 214.15455,187.96495000000002 213.47646999999998,188.34729000000002 212.60450999999998,188.64284000000004 C 211.61828999999997,188.97711000000004 210.94859999999997,188.88854000000003 209.99999999999997,189.33333000000005 C 209.13741999999996,189.73779000000005 208.65517999999997,190.40709000000004 207.80016999999998,190.75701000000004 C 207.05522,191.06188000000003 206.02060999999998,190.96194000000003 205.20134,191.00001000000003 C 204.28235999999998,191.04272000000003 204.3261,191.87010000000004 205.08333,192.00001000000003 C 205.76842,192.11755000000002 206.96947,192.28335000000004 207.66133,192.42535000000004 C 208.38547,192.57399000000004 209.11359,192.74408000000003 210.51601,192.91734000000002 C 211.17318,192.99853000000002 212.165,193.05983000000003 213.16667999999999,193.33334000000002 C 213.89477,193.53215000000003 214.62311999999997,193.85630000000003 215.37466999999998,194.14935000000003 C 216.11387,194.43757000000002 217.17337999999998,194.78912000000003 218.17467,194.93867000000003 C 218.82256999999998,195.03544000000002 219.48946999999998,195.04779000000002 220.88134,195.28401000000002 C 221.60732,195.40722000000002 222.29667,195.60423000000003 223.50001,195.83334000000002 C 224.28855000000001,195.98347 225.20135,196.00001000000003 226.16668,196.00001000000003 C 226.82534,196.00001000000003 227.83334000000002,196.00001000000003 228.6955,196.05717000000004 L 229.41066,196.42535000000004 L 230.32134000000002,196.87884000000003 L 231.00001000000003,197.02084000000002" fill="none" id="svg_1" stroke="#000" stroke-width="2"/>
	<path d="M 222.0,180.0 C 226.228,179.71333 227.21504,179.43759 227.83333,178.83333 C 228.43348999999998,178.24678 228.63569999999999,177.45830999999998 229.02533,176.41065999999998 C 229.2995,175.67347999999998 229.89702,174.84199999999998 229.97917,173.99999999999997 C 230.07422,173.02590999999998 229.99852,172.30449999999996 230.0,171.36399999999998 C 230.00134,170.51600999999997 229.98343,169.55830999999998 230.56799,168.88532999999998 C 231.17804,168.18301 231.89857,167.57591 232.22133000000002,166.67865999999998 C 232.46965000000003,165.98830999999998 232.72856000000002,165.13298999999998 233.05267000000003,164.3045 C 233.39468000000002,163.43025 233.71534000000003,162.62416 234.06134000000003,161.86131999999998 C 234.41560000000004,161.08024999999998 235.22954000000004,160.85922999999997 236.04817000000003,160.35264999999998 C 236.75488,159.91532999999998 237.65149000000002,160.01182999999997 238.48399000000003,159.71598999999998 C 239.36660000000003,159.40234999999998 240.33946000000003,159.19819999999999 241.00000000000003,158.66665999999998 C 241.66922000000002,158.12812999999997 242.31554000000003,157.26835999999997 243.00534000000002,157.11432 C 243.73709000000002,156.95091 244.85733000000002,156.99999 245.65066000000002,156.99999 C 246.54299,156.99999 247.27200000000002,156.99999 248.10899,156.99999 C 249.29983000000001,156.99999 250.18933,156.99999 250.764,156.99999 C 251.83332000000001,156.99999 252.764,156.99999 253.59866000000002,156.99999 C 254.60000000000002,156.99999 255.39999000000003,156.99999 256.40133000000003,156.99999 C 257.23599,156.99999 258.16665,156.99999 258.94817,156.99999 C 259.73867,156.99999 260.85732,156.99999 261.65065,156.99999 C 262.54265,156.99999 263.49998,156.99999 264.23197999999996,156.99999 C 265.19014,156.99999 266.16664,156.99999 266.99998999999997,156.99999 C 267.97848,156.99999 268.83507,156.81742 269.63597999999996,157.072 C 270.57397,157.37014 271.00262,158.04295 271.60130999999996,158.51733000000002 C 272.56309999999996,159.27943000000002 273.20894999999996,159.51092000000003 273.89915999999994,160.30450000000002 C 274.58879999999994,161.09742000000003 275.0587699999999,161.65765000000002 275.52082999999993,162.00000000000003 C 276.2276799999999,162.52370000000002 277.1988099999999,163.22870000000003 277.79731999999996,163.79866000000004 C 278.42479,164.39618000000004 279.17274999999995,165.16071000000005 279.65266999999994,165.65717000000004 C 280.1814499999999,166.20417000000003 280.88758999999993,166.96724000000003 281.35331999999994,167.80001000000004 C 281.67753999999996,168.37975000000003 281.9503399999999,169.39629000000005 281.99549999999994,170.34284000000005 C 282.03840999999994,171.24186000000006 282.30884999999995,172.05109000000004 282.6473199999999,172.75718000000006 C 283.05493999999993,173.60752000000005 282.7226399999999,174.56936000000007 283.0416399999999,175.47918000000007 C 283.33728999999994,176.32247000000007 284.1493099999999,176.63601000000008 284.8293299999999,177.48400000000007 L 284.9786499999999,178.17467000000008 L 284.9999799999999,179.11734000000007 L 284.9999799999999,179.96933000000007" fill="none" id="svg_2" stroke="#000" stroke-width="2"/>
	<path d="M 258.0,185.0 C 251.944,187.11467 251.23866,187.18805 250.576,187.79866 C 249.83738,188.47928000000002 250.0,189.48399 250.0,190.34734 C 250.0,191.24283 249.86244,192.27176 250.256,192.88533 C 250.71311,193.59798 251.53238,194.04048 252.40401,194.43066000000002 C 253.27421999999999,194.82020000000003 254.18773,194.95576000000003 255.04283,194.99099 C 256.07764000000003,195.03364000000002 256.76401,194.99999 257.59866,194.99999 C 258.6,194.99999 259.39999,194.99999 260.39999,194.99999 C 261.20001,194.99999 262.23239,195.18252999999999 262.95834,194.95832 C 263.93136000000004,194.65779999999998 263.99548000000004,193.64819 264.0,192.74815999999998 C 264.0054,191.66667999999999 264.0,190.99464999999998 264.0,190.25065999999998 C 264.0,189.14298999999997 264.00146,188.30899 264.0,187.36398999999997 C 263.99866,186.51599999999996 263.88568,185.65265999999997 263.43201,184.88531999999998 L 262.85068,184.41064999999998 L 262.10984,183.70448999999996" fill="none" id="svg_3" stroke="#000" stroke-width="2"/>
	<path d="M 253.0,185.0 C 256.77133,187.60001 256.991,188.39987 257.0,189.39867 C 257.0069,190.16397 257.0,191.11467000000002 257.0,192.0 L 256.94284,192.75717" fill="none" id="svg_4" stroke="#000" stroke-width="2"/>
	<path d="M 222.0,195.0 C 226.228,198.944 226.95255,199.41446 227.51199,199.79601 C 228.37803,200.38665 228.85473,201.33005 228.94732,202.00535 C 229.04892999999998,202.74648 229.16473,203.88899 229.54166999999998,204.50001 C 230.08857999999998,205.38655 230.67092999999997,205.99082 231.13867,206.74934 C 231.69423,207.65026 231.96397,208.33670999999998 232.0,209.32135 C 232.0312,210.17412 231.8347,211.1628 232.16667,212.00002 C 232.44519,212.70243 232.94803000000002,213.4827 232.98933000000002,214.21068 C 233.04536000000002,215.19832 233.00000000000003,216.16402 233.00000000000003,217.11601 C 233.00000000000003,217.88402 233.00000000000003,218.82535 233.00000000000003,219.83334 C 233.00000000000003,220.52084 233.00000000000003,221.54268 233.00000000000003,222.25068 C 233.00000000000003,222.99466999999999 233.00000000000003,224.19467999999998 233.00000000000003,224.96801 C 233.00000000000003,226.00535 233.00000000000003,226.74934 233.00000000000003,227.66667999999999 C 233.00000000000003,228.57868 233.00000000000003,229.52084 233.00000000000003,230.32151 C 233.00000000000003,231.21067 233.00000000000003,232.20016999999999 233.00000000000003,233.02084 C 233.00000000000003,233.68535 233.00000000000003,234.68535 233.00000000000003,235.52084 C 233.00000000000003,236.40134999999998 233.00000000000003,237.59735 233.00000000000003,238.17867999999999 C 233.00000000000003,238.98568999999998 233.00000000000003,240.19468999999998 233.00000000000003,240.96802 C 233.00000000000003,242.00984 233.00000000000003,242.78536 233.00000000000003,243.83335 C 233.00000000000003,244.54735 233.00000000000003,245.45269 233.00000000000003,246.42152 C 233.00000000000003,247.23602 233.00000000000003,248.10452999999998 233.00000000000003,249.00002999999998 C 233.00000000000003,249.89551999999998 233.00000000000003,250.76404 233.00000000000003,251.83335999999997 C 233.00000000000003,252.54735999999997 233.00000000000003,253.45269999999996 233.00000000000003,254.42152999999996 C 233.00000000000003,255.23602999999997 233.00000000000003,256.10452999999995 233.00000000000003,257.00003999999996 C 233.00000000000003,257.89102999999994 232.98827000000003,258.7281 233.00000000000003,259.66669999999993 C 233.01042000000004,260.50022999999993 233.19464000000002,261.55191999999994 233.44667000000004,262.26136999999994 C 233.73154000000005,263.06321999999994 234.15254000000004,263.84315999999995 234.65266000000003,264.55186999999995 C 235.16052000000002,265.27156999999994 235.58958,265.73545999999993 236.11467000000002,266.97072 C 236.40585000000002,267.65572 236.59522,268.41981999999996 236.79866,269.20270999999997 C 237.10916,270.39759999999995 237.29246,271.19895999999994 237.52083000000002,271.9792 C 237.74538,272.74640999999997 238.15207,273.84038 238.484,274.51603 C 238.8111,275.18186000000003 239.19941,275.81315 239.51601000000002,276.48405 C 240.16637000000003,277.86216 240.37168000000003,278.63383000000005 240.58934000000002,279.41072 C 240.69939000000002,279.80348000000004 240.99252,281.00197000000003 241.20267,281.80003000000005 C 241.41385000000002,282.60206000000005 241.63721,283.41389000000004 241.97068000000002,284.20005000000003 C 242.48985000000002,285.42399000000006 243.00848000000002,286.20390000000003 243.27201000000002,286.60004000000004 C 243.8095,287.40802 244.10451000000003,287.80338000000006 245.00001000000003,289.00003000000004 C 245.59835000000004,289.79962000000006 245.88850000000002,290.20416000000006 246.52084000000002,290.95837000000006 C 247.14174000000003,291.69891000000007 247.44123000000002,292.0811100000001 248.52118000000002,292.95718000000005 C 249.22125000000003,293.52511000000004 249.98093000000003,293.97656000000006 250.33868,294.2146900000001 C 251.03410000000002,294.6776100000001 252.24946,295.67023000000006 252.73867,296.2467000000001 C 253.23423000000003,296.8306500000001 253.67680000000001,297.49090000000007 254.42184,298.5215400000001 C 254.68594000000002,298.88687000000004 255.24676,299.64468000000005 255.88267,300.4107000000001 C 256.21342,300.8091100000001 257.32929,302.00421000000006 257.74284,302.4000200000001 C 258.16526,302.8043500000001 259.06028,303.6012500000001 259.52086,304.0000300000001 C 259.98427000000004,304.4012800000001 260.92302,305.1936000000001 261.83336,306.0000300000001 C 262.28133,306.39688000000007 263.14427,307.19855000000007 263.56401000000005,307.6000400000001 C 263.98061000000007,307.9985400000001 264.7961900000001,308.7993500000001 265.1986800000001,309.2000500000001 C 266.4021400000001,310.39805000000007 266.80009000000007,310.8012800000001 267.2045100000001,311.2000500000001 C 268.0183800000001,312.0025700000001 268.4286600000001,312.4079100000001 269.2853500000001,313.2000500000001 C 270.1592500000001,314.0081200000001 270.6141200000001,314.4092500000001 271.5661700000001,315.2000500000001 C 272.05344000000014,315.60480000000007 272.55961000000013,316.0038500000001 273.0826800000001,316.4000300000001 C 273.6159100000001,316.8039300000001 275.3307600000001,318.0040000000001 275.9426700000001,318.39988000000005 C 276.5654100000001,318.80277000000007 277.2039000000001,319.19788000000005 277.8506900000001,319.58936000000006 C 278.4986100000001,319.98154000000005 279.1488200000001,320.36490000000003 279.7946900000001,320.74286000000006 C 280.4315300000001,321.11554000000007 281.6661800000001,321.83420000000007 282.2573400000001,322.17838000000006 C 283.3937200000001,322.8400000000001 283.9459400000001,323.15961000000004 284.5000200000001,323.45838000000003 C 285.59874000000013,324.05085 286.1586200000001,324.33497000000006 287.33336000000014,324.83338000000003 C 287.9380400000001,325.08991000000003 288.56587000000013,325.32206 289.85069000000016,325.77469 C 290.4989400000002,326.00308 291.15043000000014,326.22232 291.7946900000002,326.4527 C 292.4331200000002,326.681 294.25917000000015,327.41764 294.8333600000002,327.68271 C 295.4008300000002,327.94467 295.9539000000002,328.228 297.0866900000002,328.73870999999997 C 297.6595400000002,328.99697999999995 298.2413500000002,329.2666 299.5000200000002,329.66668999999996 C 300.15911000000017,329.87618999999995 301.5793400000002,330.19631999999996 302.32937000000015,330.33869 C 303.10299000000015,330.48553999999996 303.90380000000016,330.616 304.72787000000017,330.74821 C 305.57449000000014,330.88403999999997 307.33374000000015,331.1645 308.24237000000016,331.32120999999995 C 309.1657700000002,331.48047999999994 310.09625000000017,331.6488499999999 311.02936000000017,331.81470999999993 C 311.9582500000002,331.9798399999999 312.87674000000015,332.1423499999999 313.7803700000002,332.2901999999999 C 314.66080000000017,332.43423999999993 316.33259000000015,332.6738999999999 317.11420000000015,332.75702999999993 C 317.85932000000014,332.83624999999995 318.57556000000017,332.89124999999996 319.2667000000001,332.9280499999999 C 319.93726000000015,332.9637599999999 320.5933000000001,332.98166999999995 321.23920000000015,332.99103999999994 C 321.88001000000014,333.00031999999993 323.16669000000013,332.99951999999996 323.82120000000015,333.00019999999995 C 324.48270000000014,333.00086999999996 325.1482300000001,333.0025499999999 325.81470000000013,333.01072999999997 C 326.4792200000001,333.01890999999995 327.1395000000001,333.01827 328.4307000000001,333.08538 C 329.66770000000014,333.14968 330.25803000000013,333.21047 331.3767100000001,333.35271 C 331.9073800000001,333.42018 332.9067100000001,333.57473 333.8266900000001,333.71605 L 335.0567000000001,333.87856 L 335.7767000000001,333.94289 L 336.7066900000001,333.98936999999995" fill="none" id="svg_5" stroke="#000" stroke-width="2"/>
</svg>
