<?xml version="1.0" ?>
<svg baseProfile="full" height="480" version="1.1" width="640" xmlns="http://www.w3.org/2000/svg" xmlns:ev="http://www.w3.org/2001/xml-events" xmlns:xlink="http://www.w3.org/1999/xlink">
	<defs/>
	<path d="M 244.0,250.0 C 245.83067,243.94267 245.83929,243.06494 246.16667,242.16667 C 246.41888,241.47462000000002 247.29989,240.87396 247.71466,240.20000000000002 C 248.18901,239.42923000000002 248.57683,238.51935000000003 249.02083000000002,237.95833000000002 C 249.52596000000003,237.32007000000002 250.11275,236.31369 250.38533,235.77468000000002 C 250.80283,234.94909 251.30278,234.13644000000002 252.00983000000002,233.45267 C 252.50057,232.97811000000002 253.09964000000002,232.59561000000002 254.07851000000002,231.57868000000002 C 254.56786000000002,231.07030000000003 254.97580000000002,230.49743 255.39550000000003,229.95267 C 256.19364,228.91672 256.77213,228.21668000000003 257.40000000000003,227.66167000000002 C 258.16794000000004,226.98285 258.82569,226.63669000000002 259.45716000000004,226.19017000000002 C 260.44599000000005,225.49098000000004 260.95267000000007,224.99466 261.50001000000003,224.50000000000003 C 262.04734,224.00534000000002 263.07151000000005,223.13286000000002 263.54286,222.80983000000003 C 264.38344,222.23376000000005 265.20442,221.68384000000003 265.8,221.17467000000002 C 266.40449,220.65789 267.18721,219.99988000000002 267.82133,219.62534000000002 C 268.50104999999996,219.22388000000004 269.64268,218.67867 270.30534,218.34734000000003 C 271.00001,218.00000000000003 271.69468,217.65267000000003 272.66667,217.16668000000004 C 273.48567,216.75718000000003 274.17515000000003,216.40353000000005 275.20003,215.90017000000003 C 275.79796000000005,215.60650000000004 276.5851,215.20541000000003 277.60002000000003,215.05717000000004 C 278.39332,214.94129000000004 279.40135000000004,215.00001000000003 280.23601,215.00001000000003 C 281.16667,215.00001000000003 281.94820000000004,215.00001000000003 282.7387,215.00001000000003 C 283.8572,215.00001000000003 284.61468,215.00001000000003 285.65719,215.00001000000003 C 286.40453,215.00001000000003 287.40136,215.00001000000003 288.23602,215.00001000000003 C 289.16668,215.00001000000003 289.95718,215.00001000000003 290.8107,215.00001000000003 C 292.00003,215.00001000000003 292.60314999999997,214.98576000000003 293.54169,215.02084000000002 C 294.21488,215.04600000000002 295.33512,215.15507000000002 296.16803000000004,215.28535000000002 C 297.0527000000001,215.42372000000003 297.95035000000007,215.60611000000003 298.39468000000005,215.70451000000003 C 299.66967000000005,215.98689000000002 300.42758000000003,216.20028000000002 301.43753000000004,216.47918 C 302.03360000000004,216.64379000000002 303.08240000000006,216.85709000000003 304.02087000000006,217.02084000000002 C 304.77261000000004,217.15199 305.6514200000001,217.42242000000002 306.65069000000005,217.86134 C 307.35580000000004,218.17106 308.0335600000001,218.51429000000002 308.95687000000004,218.97851 C 309.71862000000004,219.36151 310.55022,219.74708 311.24285000000003,220.30001 C 312.04873000000003,220.94334999999998 312.60003000000006,221.564 313.38936,221.97467999999998 L 313.95836,222.50000999999997" fill="none" id="svg_1" stroke="#000" stroke-width="2"/>
	<path d="M 244.0,249.0 C 244.0,250.8 244.0,251.7 244.0,252.60001 C 244.0,253.41066 244.0,254.32134 244.0,255.17467 C 244.0,256.11466 244.08868,257.1044 244.0,258.0 C 243.91626,258.8457 243.25905,259.33307 242.64284,259.95184 C 242.0145,260.58279 241.55055000000002,261.05423 241.0,261.83334 C 240.52121,262.51089 239.67444,263.0935 238.97917,263.52084 C 238.39520000000002,263.87979 237.58912,264.47339 237.0,265.02084 C 236.38846,265.58914000000004 235.61261,266.41668000000004 234.95833,267.0 C 234.49616,267.41205 233.36141999999998,268.20688 232.69467,268.60001 C 232.00416,269.00715 231.28546,269.36896 230.33333,270.0 C 229.75942999999998,270.38037 229.05435,270.97055 228.48801,271.51468 C 227.74634,272.22723 227.0093,272.88745 226.2,272.99866 C 225.36299,273.11364999999995 224.99221,273.93902999999995 225.7045,274.0 C 226.59673999999998,274.07635 227.52101,274.01672 228.32134,273.99985 C 229.17524,273.98184 230.07228999999998,273.62689 230.88401,273.284 C 231.62228,272.97213999999997 232.52077,273.07932 233.52084,272.97916 C 234.34221,272.89687999999995 235.25583,272.55399 236.05185,272.35265999999996 C 237.07214,272.09462999999994 237.77339,272.08181999999994 238.59868,271.91597999999993 C 239.61627000000001,271.7115099999999 240.19705,271.3832299999999 241.20001,270.90016999999995 C 241.99769,270.51597999999996 242.58462,270.20268999999996 243.59552,270.0571499999999 C 244.50697,269.9259199999999 245.51775999999998,270.0413699999999 246.32135,269.7786499999999 C 247.1992,269.49162999999993 247.972,269.06218999999993 248.79868,269.0013399999999 C 249.69759,268.9351799999999 250.60003999999998,268.9940199999999 251.56402,268.9999999999999 C 252.42541,269.0053399999999 253.00002,269.5208399999999 253.43603,270.3999899999999 L 254.00002999999998,270.9999999999999 L 254.60003999999998,271.6000099999999" fill="none" id="svg_2" stroke="#000" stroke-width="2"/>
	<path d="M 304.0,218.0 C 307.08551,215.793 307.53928,215.37939 308.01517,214.92767 C 308.51404,214.45414 309.53540000000004,213.45541 310.04651,212.949 C 310.55008000000004,212.45007 311.49945,211.49943000000002 311.93533,211.06483 C 312.72299000000004,210.27949 313.41095,209.59806 313.73199,209.304 C 314.81454,208.31239 315.33169,207.99129 315.97915,207.5 C 317.02892,206.70343 317.40194,206.23117 318.02084,205.47917 C 318.45758,204.94852 319.14703000000003,204.14459000000002 319.68798000000004,203.684 C 320.53332000000006,202.96424 321.21679000000006,202.54418 321.57198000000005,202.31599 C 322.73607000000004,201.56813 323.60668000000004,201.04495 324.0506500000001,200.764 C 324.9520500000001,200.19361 325.4134700000001,199.92165 326.66665000000006,198.99999 C 327.06347000000005,198.70815 327.79467000000005,198.1 328.4999900000001,197.49999 C 329.20531000000005,196.89998 329.5499200000001,196.57589 330.7428200000001,195.69998999999999 C 331.1631400000001,195.39137 332.0604500000001,194.79863999999998 332.52084000000013,194.49999 C 333.45007000000015,193.89724 333.92535000000015,193.612 335.2783200000001,192.70015 C 335.71597000000014,192.40518 336.5540200000001,191.81158000000002 336.95834000000013,191.52081 C 337.7396200000001,190.95895000000002 338.83221000000015,190.16505 339.51733000000013,189.68264000000002 C 340.1842300000001,189.21307000000002 340.86297000000013,188.74091 341.2098300000001,188.49015000000003 C 342.3387100000001,187.67403000000002 343.1676200000001,187.03324000000003 343.6008200000001,186.69465000000002 C 344.0410100000001,186.35059 344.9155800000001,185.65341000000004 345.3374800000001,185.30531000000002 C 346.50630000000007,184.34092 347.1453100000001,183.77064000000001 347.70265000000006,183.27198 C 348.44365000000005,182.60899 349.1584000000001,181.98898000000003 349.9616500000001,181.39547000000002 C 350.53584000000006,180.9712 351.16523000000007,180.54786000000001 352.1666400000001,179.83331 C 352.8865800000001,179.31959 353.2526400000001,179.04731 353.9999800000001,178.49998000000002 C 354.7473200000001,177.95265000000003 355.83100000000013,177.16334000000003 356.5146600000001,176.68531000000002 C 357.1617900000001,176.23283 357.78865000000013,175.80967 358.3986600000001,175.40131000000002 C 359.2988400000001,174.79869000000002 359.8919500000001,174.39901000000003 360.76399000000015,173.83597000000003 C 361.3124500000001,173.48186000000004 362.31746000000015,172.89255000000003 362.95833000000016,172.52080000000004 C 363.83916000000016,172.00986000000003 364.48430000000013,171.50525000000005 365.20000000000016,170.79997000000003 C 365.8043700000002,170.20439000000002 366.31304000000017,169.44519000000003 367.19866000000013,169.08529000000004 C 368.03518000000014,168.74537000000004 368.65685000000013,168.19976000000005 369.49999000000014,168.02079000000003 C 370.38061000000016,167.83387000000005 371.2999800000001,167.99987000000004 372.20000000000016,167.99996000000004 C 373.09999000000016,168.00005000000004 373.95827000000014,168.23391000000004 374.70000000000016,168.64730000000006 C 375.46367000000015,169.07293000000007 376.5109400000002,169.23012000000006 376.87850000000014,170.09997000000007 C 377.23199000000017,170.93650000000008 377.36434000000014,171.91072000000008 376.94283000000013,172.64280000000008 C 376.47558000000015,173.45431000000008 375.99999000000014,173.99996000000007 375.99999000000014,174.7999700000001 C 375.99999000000014,175.6999600000001 375.99999000000014,176.5999700000001 375.99999000000014,177.49997000000008 C 375.99999000000014,178.41063000000008 376.00060000000013,179.32130000000006 375.99999000000014,180.17464000000007 C 375.9993200000001,181.11731000000006 375.9656600000001,181.81549000000007 375.71599000000015,182.76931000000008 C 375.51799000000017,183.52575000000007 375.22652000000016,184.3075800000001 375.08531000000016,185.31597000000008 C 374.95878000000016,186.21955000000008 374.99998000000016,187.1666500000001 374.99998000000016,187.9706500000001 C 374.99998000000016,188.9186500000001 374.99998000000016,189.65731000000008 374.99998000000016,190.96381000000008 C 374.99998000000016,191.45064000000008 374.99998000000016,192.46531000000007 374.99998000000016,192.9791500000001 C 374.99998000000016,193.9848100000001 374.99998000000016,195.3333100000001 374.99998000000016,196.0573100000001 L 374.99998000000016,196.8958100000001 L 374.99998000000016,197.8333100000001 L 374.99998000000016,198.6954800000001" fill="none" id="svg_3" stroke="#000" stroke-width="2"/>
	<path d="M 359.0,200.0 C 364.16666,217.5 364.49664,218.67586 364.772,219.716 C 365.01346,220.62800000000001 365.21402,221.42689000000001 365.375,222.125 C 365.51477,222.73106 365.65833,223.25523 365.87866,224.83566 C 365.9617,225.43115999999998 366.01202,226.45155 366.22149,227.42166 C 366.40139,228.2549 366.61474000000004,228.84546 366.80132000000003,229.48666 C 367.20757000000003,230.88276 367.4023,231.63319 367.56398,232.41066 C 367.72786,233.19872 367.89217,234.39883 367.94283,235.1955 C 367.99260000000004,235.97844 367.99773,236.74283 367.99999,237.83333000000002 C 368.00139,238.51866 367.99999,239.54167 367.99999,240.26700000000002 C 367.99999,241.50000000000003 367.99999,241.96401000000003 367.99999,242.95799000000002 C 367.99999,244.00000000000003 367.99999,244.52400000000003 367.99999,245.54800000000003 C 367.99999,246.50000000000003 367.99999,247.34399000000002 367.99999,248.43750000000003 C 367.99999,249.08650000000003 368.00789000000003,250.30028000000001 367.99550000000005,250.90450000000004 C 367.97640000000007,251.83634000000004 367.9554600000001,252.49178000000003 367.71465000000006,253.88401000000005 C 367.58571000000006,254.62943000000004 367.3975700000001,255.37684000000004 367.1986600000001,256.11600000000004 C 366.91186000000005,257.18177000000003 366.70479000000006,257.84436000000005 366.3999800000001,258.78934000000004 C 366.2031100000001,259.39969 365.80876000000006,260.60684000000003 365.57866000000007,261.22135000000003 C 365.2041500000001,262.22147 364.6720700000001,263.33619000000004 364.4569900000001,263.74268 C 363.99721000000005,264.61158 363.7391600000001,265.05759 363.17867000000007,265.94935 C 362.89657000000005,266.3982 362.0125300000001,267.67670999999996 361.3999800000001,268.42933 C 361.1059400000001,268.7906 360.5067600000001,269.46485 359.8999800000001,270.09101 C 359.0098100000001,271.00962 358.4025400000001,271.60541 357.7786400000001,272.20002 C 357.4609500000001,272.50278 356.8056500000001,273.12543999999997 355.6666400000001,274.00001 C 355.2644800000001,274.30879 354.4053200000001,274.89353 353.97066000000007,275.17868999999996 C 353.1258700000001,275.73292 352.3278400000001,276.21326999999997 351.38515000000007,276.85733999999997 C 350.6824200000001,277.33746999999994 350.04366000000005,277.82469 349.1666400000001,278.33334999999994 C 348.3871600000001,278.78543999999994 347.93065000000007,279.0112699999999 346.9583300000001,279.5000099999999 C 346.4561900000001,279.75238999999993 345.4544200000001,280.24326999999994 344.4999900000001,280.6666699999999 C 343.66298000000006,281.0379799999999 342.9293100000001,281.3173399999999 342.0278200000001,281.6338299999999 L 340.97197000000006,281.9133399999999 L 340.1214800000001,281.7778399999999 L 340.00448000000006,281.0668399999999" fill="none" id="svg_4" stroke="#000" stroke-width="2"/>
	<path d="M 374.0,198.0 C 374.0,199.8 373.64511,200.79263 374.03601,201.564 C 374.3898,202.26211999999998 375.03317,202.8238 375.284,203.76934 C 375.48449999999997,204.52512 375.75211,205.31078 375.91598999999997,206.31467 C 376.02389999999997,206.97571000000002 376.12557999999996,208.01502 376.43600999999995,208.80001000000001 C 376.75939999999997,209.61785 377.26453,210.37785000000002 377.56399999999996,211.27201000000002 C 377.91175,212.31029 377.92056999999994,212.96897 377.97468,213.66134000000002 C 378.05989,214.75131000000002 378.14842,215.83674000000002 378.28400999999997,216.51335000000003 C 378.4745,217.46382000000003 378.70604,218.02702000000002 378.87852,219.07884000000004 C 379.03181,220.01372000000003 378.99933999999996,220.76935000000003 379.00001,221.96802000000005 C 379.00041,222.65068000000005 379.00361,223.34935000000004 379.00001,224.66669000000005 C 378.99775,225.48571000000004 379.04285999999996,226.19619000000006 378.77867,227.20002000000005 C 378.56305999999995,228.01926000000006 378.23179,228.58941000000004 378.05269,229.60453000000004 C 377.90342999999996,230.45060000000004 377.80052,231.42756000000003 377.56401,232.22535000000005 C 377.31822,233.05442000000005 376.9106,234.08326000000005 376.60002,234.76403000000005 C 376.30983,235.40009000000003 375.79999999999995,236.40002000000004 375.40000999999995,237.20002000000005 C 375.00001999999995,238.00002000000006 374.64136999999994,238.82557000000006 374.24283999999994,239.34286000000006 C 373.59574999999995,240.18273000000005 372.69721999999996,240.50865000000005 372.24283999999994,241.32136000000006 C 371.8078699999999,242.09936000000005 371.71466999999996,243.11602000000005 371.2955099999999,243.75270000000006 L 370.7999999999999,244.48270000000005 L 370.2999999999999,245.29020000000006 L 369.6000199999999,245.92803000000006" fill="none" id="svg_5" stroke="#000" stroke-width="2"/>
	<path d="M 376.0,169.0 C 377.10718,166.57167 377.41623,166.08792 378.15866,165.02667 C 378.55832,164.45538 378.97861,163.87797 379.40817,163.30166 C 379.83331,162.73132 380.65655,161.65824 381.42665999999997,160.744 C 381.77218,160.33383 382.40977999999996,159.61845 382.97664999999995,159.03233 C 383.84691999999995,158.13249 384.34935999999993,157.65069 384.96797999999995,157.03199 C 385.54286999999994,156.45702 386.26701999999995,155.73339 386.78532999999993,155.17866 C 387.32328999999993,154.60287 388.0836999999999,153.7039 388.54731999999996,153.1 C 389.00498999999996,152.50381 389.4344,151.8852 390.16664,150.99999 C 390.67161,150.38953 391.22749,149.80198 391.77464,149.19998999999999 C 392.31816,148.60197 393.09324,147.71089999999998 393.54283,147.0955 C 394.21168,146.17992999999998 394.61418,145.52352 395.19980999999996,144.47866 C 395.60636999999997,143.75332 395.79749999999996,143.37869999999998 396.16398,142.62533 C 396.52270999999996,141.88786 397.11811,140.48483 397.37464,139.82532999999998 C 397.62742,139.17547 397.86875,138.50946 398.32163,137.47815999999997 C 398.65064,136.72892 399.03956000000005,135.93646999999999 399.46164000000005,135.08115999999998 C 399.68555000000003,134.62745999999999 400.42130000000003,133.15732999999997 400.68396000000007,132.63199999999998 C 400.9526400000001,132.09465999999998 401.4999700000001,130.99999999999997 401.77463000000006,130.45065999999997 C 402.04730000000006,129.90532999999996 402.83332000000007,128.33331999999996 403.07846000000006,127.84298999999997 C 403.54278000000005,126.91431999999998 403.76398000000006,126.47198999999998 404.18930000000006,125.62131999999997 C 404.59863000000007,124.80265999999997 405.19928000000004,123.59979999999997 405.3999600000001,123.20131999999997 C 405.7985500000001,122.40993999999996 406.1910700000001,121.63117999999997 406.5999700000001,120.88531999999996 C 407.1870700000001,119.81441999999997 407.5984700000001,119.15896999999997 407.9791200000001,118.52082999999996 C 408.34573000000006,117.90622999999997 408.98858000000007,116.70415999999996 409.2473100000001,116.09548999999996 C 409.6405600000001,115.17032999999995 409.8643800000001,114.50615999999995 410.3218000000001,113.47848999999995 C 410.6520900000001,112.73641999999995 411.0466500000001,111.96973999999994 411.51879000000014,111.19548999999995 C 411.76388000000014,110.79359999999996 412.63708000000014,109.59555999999995 412.96795000000014,109.20131999999995 C 413.63949000000014,108.40116999999995 414.00384000000014,108.02432999999995 414.69463000000013,107.25714999999995 C 415.67211000000015,106.17157999999995 415.9680700000001,105.83018999999996 416.48562000000015,105.15714999999996 C 416.96884000000017,104.52876999999995 417.59866000000017,103.60222999999996 418.1997900000002,102.70014999999997 C 418.59634000000017,102.10507999999996 418.9916900000002,101.52874999999996 419.51464000000016,100.68531999999996 C 420.12820000000016,99.69572999999995 420.52752000000015,99.06817999999996 420.8333000000002,98.16664999999996 C 421.1190700000002,97.32416999999997 421.57527000000016,96.53956999999996 421.9159400000002,95.79998999999997 C 422.3135500000002,94.93676999999997 422.7396700000002,94.20837999999996 423.0252800000002,93.36398999999997 C 423.30906000000016,92.52499999999998 423.3964300000002,91.58004999999997 424.29994000000016,91.11432999999997 C 425.10637000000014,90.69863999999997 426.15114000000017,90.82427999999997 426.9999500000002,91.16665999999996 C 427.7469000000002,91.46794999999996 428.53276000000017,92.12613999999996 429.2612700000002,92.38932999999996 C 430.0420300000002,92.67139999999996 431.0755100000002,92.90685999999995 431.76396000000017,92.96398999999995 C 432.59648000000016,93.03306999999995 433.6187600000002,92.86430999999995 434.5146300000002,93.08532999999996 C 435.3971700000002,93.30305999999996 435.9390700000002,94.09383999999996 435.9999500000002,95.02082999999996 C 436.0557400000002,95.87015999999996 436.0286100000002,96.60319999999996 435.9954600000002,97.60448999999996 C 435.9672000000002,98.45831999999996 435.7903500000002,99.42483999999996 435.56394000000023,100.24665999999996 C 435.3979900000002,100.84911999999996 434.9985400000002,102.16626999999997 434.79862000000026,102.88665999999996 C 434.58780000000024,103.64625999999997 434.37269000000026,104.44929999999997 434.1146000000003,105.28665999999997 C 433.8424700000003,106.16953999999997 433.51728000000026,107.08265999999998 433.3517800000003,107.54815999999997 C 433.0207900000003,108.47915999999996 432.6627500000003,109.37721999999997 432.3332900000003,110.66665999999996 C 432.14011000000033,111.42275999999997 432.0742900000003,112.13211999999996 431.9492900000003,112.77865999999996 C 431.7113400000003,114.00948999999996 431.4412300000003,114.60661999999996 430.9791100000003,115.52082999999996 C 430.6555300000003,116.16095999999996 430.14766000000026,117.15951999999996 429.8866100000003,117.88132999999996 C 429.6276400000003,118.59740999999997 429.3616200000003,119.63299999999997 429.1666100000003,120.49999999999996 L 429.0208000000003,121.45833999999996 L 428.9998000000003,122.32116999999997 L 428.96394000000026,123.13866999999996" fill="none" id="svg_6" stroke="#000" stroke-width="2"/>
</svg>
