<?xml version="1.0" ?>
<svg baseProfile="full" height="480" version="1.1" width="640" xmlns="http://www.w3.org/2000/svg" xmlns:ev="http://www.w3.org/2001/xml-events" xmlns:xlink="http://www.w3.org/1999/xlink">
	<defs/>
	<path d="M 220.0,161.0 C 243.33333,153.5 245.05098,153.06992 246.632,152.76801 C 248.07238,152.49296 249.40072,152.30530000000002 250.625,152.1875 C 251.75581,152.07869 252.8134,152.02945 253.808,152.01199 C 255.66643,151.97937 256.55701,151.99827 257.42932,152.00267 C 258.28567000000004,152.00699 259.12814000000003,152.01615999999999 259.95834,152.04166999999998 C 260.77884,152.06688999999997 261.59198000000004,152.10168 262.39734000000004,152.17066999999997 C 264.00235000000004,152.30814999999998 264.80136000000005,152.43326999999996 265.59732,152.57332999999997 C 266.39282000000003,152.71329999999998 267.18133,152.88268999999997 267.95834,153.08331999999996 C 268.73080000000004,153.28277999999995 269.49176,153.50583999999995 270.22934000000004,153.77331999999996 C 271.67947000000004,154.29922999999997 272.36337000000003,154.63166999999996 273.03201,154.97598999999997 C 273.70092,155.32043999999996 274.35605000000004,155.70419999999996 275.0,156.12498999999997 C 275.65768,156.55476999999996 276.31448,157.02590999999998 276.96799,157.54399999999998 C 278.35318,158.64210999999997 279.04834,159.27940999999998 279.76532,159.94132 C 280.50259,160.62195 281.23684999999995,161.33664 281.95833999999996,162.08332 C 282.68498999999997,162.83533 283.39615,163.60458999999997 284.06134,164.40533 C 285.36481,165.97438 285.92434999999995,166.79241 286.45734,167.59599 C 286.97718,168.37973 287.4516,169.16438 287.89585,169.9375 C 288.32743,170.68854 288.72581,171.42798 289.10935,172.144 C 289.83518,173.49901 290.17814,174.13568 290.512,174.74533 C 290.83381,175.33301 291.14655,175.90062 291.43751,176.45833 C 291.72114,177.00203 291.99368999999996,177.5381 292.22801,178.08132999999998 C 292.69165999999996,179.15623999999997 292.86415,179.71905999999998 293.03067999999996,180.28266999999997 C 293.19714999999997,180.84614999999997 293.33865999999995,181.41466999999997 293.47916999999995,181.97916999999995 L 293.61466999999993,182.53865999999996 L 293.74817999999993,183.09015999999997 L 293.88266999999996,183.63065999999998" fill="none" id="svg_1" stroke="#000" stroke-width="2"/>
	<path d="M 237.0,174.0 C 226.83333,168.66667 226.0103,168.27962 225.22667,167.94133 C 224.48842000000002,167.62263 223.78474,167.33124999999998 222.45334000000003,166.84267 C 221.82468000000003,166.61196999999999 221.20700000000002,166.40433 220.00000000000003,166.0 C 218.79500000000002,165.59633 218.18163000000004,165.39212 217.55733000000004,165.17867 C 216.91628000000003,164.95948 216.25537000000003,164.72974000000002 215.57134000000005,164.48568 C 214.85802000000004,164.23116 213.33277000000004,163.66816 212.51450000000006,163.35734 C 211.66210000000007,163.03355 210.78495000000007,162.69441999999998 209.88800000000006,162.34933999999998 C 208.97928000000007,161.99972999999997 208.06610000000006,161.64863999999997 207.15350000000007,161.30532999999997 C 206.25142000000005,160.96598999999998 204.50152000000006,160.32886999999997 203.66549000000006,160.04349999999997 C 202.86544000000006,159.77039999999997 202.10012000000006,159.52243999999996 201.37199000000007,159.30399999999997 C 200.68899000000008,159.09909999999996 200.04980000000006,158.92199999999997 199.45649000000006,158.78049999999996 C 198.91755000000006,158.65197999999995 197.97213000000005,158.23645999999997 197.05199000000005,158.46698999999995 C 196.25666000000004,158.66624999999996 197.08329000000003,159.14583999999996 197.34133000000006,159.59732999999994 C 197.88628000000006,160.55084999999994 198.43665000000004,161.50975999999994 198.76533000000006,162.07332999999994 C 199.12390000000005,162.68813999999995 199.51287000000005,163.34772999999996 199.93232000000006,164.04582999999994 C 200.37412000000006,164.78111999999993 201.33089000000007,166.33484999999993 201.84283000000005,167.14265999999995 C 202.36686000000006,167.96955999999994 202.90795000000006,168.80653999999996 203.46133000000006,169.65065999999996 C 204.01893000000007,170.50122999999996 204.58381000000006,171.35033999999996 205.15184000000005,172.19466999999997 C 205.71584000000004,173.033 206.83212000000006,174.66749 207.37817000000004,175.45649999999998 C 207.91082000000003,176.22614 208.43284000000003,176.97286999999997 208.94267000000005,177.69599999999997 C 209.43654000000004,178.39649999999997 209.91653000000005,179.07122999999996 210.38116000000005,179.71949999999998 C 210.82724000000005,180.34188999999998 211.66593000000006,181.50053999999997 212.05683000000005,182.03517 C 212.42728000000005,182.54184 212.78002000000004,183.02035 213.11733000000004,183.47066999999998 C 213.43641000000005,183.89663 213.74106000000003,184.29724 214.03382000000005,184.67216 C 214.31049000000004,185.0265 214.83332000000004,185.66666999999998 215.31199000000004,186.22665999999998 L 215.93749000000003,186.91665999999998 L 216.66666000000004,187.66665999999998" fill="none" id="svg_2" stroke="#000" stroke-width="2"/>
	<path d="M 198.0,158.0 C 204.1575,165.69333 204.62947,166.18398 205.09917,166.63667 C 205.55628,167.07724000000002 206.48816,167.92503000000002 206.96249999999998,168.36332000000002 C 207.45489999999998,168.81832000000003 208.50417,169.82925 209.06399999999996,170.40699 C 209.65643999999998,171.01838 210.26080999999996,171.66978 210.87600999999995,172.348 C 211.50286999999994,173.03907 212.12592999999995,173.74363000000002 212.74200999999996,174.45100000000002 C 213.34993999999998,175.14900000000003 214.50140999999996,176.49881000000002 215.03517999999997,177.13516 C 215.54268999999996,177.74020000000002 216.02099999999996,178.31828000000002 216.47067999999996,178.87066000000002 C 216.89724999999996,179.39466000000002 217.29600999999997,179.89599 217.67216999999997,180.37216 L 218.02532999999997,180.82533" fill="none" id="svg_3" stroke="#000" stroke-width="2"/>
	<path d="M 211.0,192.0 C 211.66434,202.77066 211.83868,203.49068 212.067,204.14799 C 212.28238000000002,204.76806 212.51590000000002,205.34667 213.05633,206.35867 C 213.30686,206.82782 214.07556,208.05888 214.54283,208.78565999999998 C 214.97644,209.46007999999998 215.3929,210.09273 216.0,210.99999999999997 C 216.40494,211.60515999999998 216.83626,212.24564999999998 217.38,212.90799999999996 C 218.00737999999998,213.67224999999996 218.82917,214.50426999999996 219.30783,214.96465999999995 C 219.82488999999998,215.46198999999996 220.39201,215.97916999999995 221.00133,216.51865999999995 C 221.64287,217.08667999999994 222.32533999999998,217.66799999999995 223.03683999999998,218.27065999999996 L 223.77732999999998,218.88932999999997" fill="none" id="svg_4" stroke="#000" stroke-width="2"/>
	<path d="M 236.0,231.0 C 236.0,242.0 236.0,242.871 236.0,243.688 C 236.0,245.184 236.0,245.875 236.0,246.53599 C 236.0,247.173 235.99803,248.99999 236.00067,249.60099 C 236.00334,250.208 235.99382000000003,250.82844 236.08333000000002,252.12499 C 236.13111,252.81699 236.21143,253.54572 236.34134000000003,254.31199 C 236.62868000000003,256.00686 236.87824000000003,256.93063 237.13867000000002,257.90933 C 237.41189000000003,258.93609000000004 237.72079000000002,259.99521 238.04167,261.08334 C 238.36876,262.19253000000003 238.70929,263.31100000000004 239.03467,264.43734 C 239.67778,266.66348 239.96086,267.75594 240.232,268.82800000000003 C 240.49813,269.88028 240.74756,270.91775 241.00001,271.93750000000006 C 241.24894,272.94308000000007 241.49372,273.9370400000001 241.76802,274.91199000000006 C 242.31042,276.83994000000007 242.63464000000002,277.78147000000007 242.97069000000002,278.71466000000004 C 243.30602000000002,279.64587000000006 243.66686,280.56610000000006 244.04169000000002,281.47916000000004 C 244.41622,282.39148000000006 244.80646000000002,283.29663000000005 245.20269000000002,284.19867000000005 C 245.99491,286.00226000000004 246.39924000000002,286.90149 246.80535,287.80667000000005 C 247.21654,288.72317000000004 247.63932,289.65488000000005 248.08335,290.60416000000004 C 248.54056,291.58161 249.02146,292.58945000000006 249.54136,293.62668 C 250.65131,295.84113 251.27958,297.0119 251.94935999999998,298.22934000000004 C 252.64794999999998,299.49915000000004 253.39763,300.80756 254.20835,302.14584 C 255.04798,303.53186 255.94117,304.95019 256.91735,306.37732 C 258.95888,309.36191 260.1155,310.85352 261.31603,312.36667 C 262.54229000000004,313.91223 263.83422,315.45212 265.18752,316.97916 C 266.55816,318.52572999999995 267.97719,320.05854 269.46401000000003,321.54666 C 272.45766000000003,324.54294 274.05120000000005,325.94744999999995 275.64403000000004,327.332 C 277.21944,328.70142 278.80303000000004,330.00729 280.37502000000006,331.25 C 281.8993700000001,332.45502 283.38790000000006,333.58728 284.8360200000001,334.62799 C 287.48003000000006,336.52814 288.7003400000001,337.31714 289.8360200000001,338.03332 C 290.8928700000001,338.69979 291.9028800000001,339.2958 292.87502000000006,339.83334 C 293.80721000000005,340.34881 294.72756000000004,340.82364 295.64403000000004,341.27334 C 297.49318000000005,342.18072 298.46318,342.62405 299.45601000000005,343.08267 C 300.4701400000001,343.55111 301.50591000000003,344.01947 302.56252000000006,344.47915 C 303.6299000000001,344.94351 304.7091300000001,345.40118 305.80401000000006,345.83065 C 307.9914800000001,346.68874 309.0977700000001,347.06478 310.2026900000001,347.42931 C 311.3064800000001,347.79345 312.4213500000001,348.12798 313.5416800000001,348.45833 L 314.6720200000001,348.77864 L 315.8143500000001,349.09099 L 316.9706900000001,349.39732999999995" fill="none" id="svg_5" stroke="#000" stroke-width="2"/>
	<path d="M 293.0,194.0 C 301.7995,194.0 302.59601,194.0 303.38651,194.0 C 304.168,194.0 304.9375,194.0 305.69199,194.0 C 306.4285,194.0 307.14401999999995,193.99965 308.5,194.0 C 309.13568,194.00017 310.33319,194.00208 310.90268,194.02133 C 312.00455,194.05859 312.55123999999995,194.06422 314.16666,194.33333000000002 C 314.72547,194.42642 315.29972,194.54982 316.48931999999996,194.91467000000003 C 317.12945999999994,195.11100000000002 317.79375999999996,195.35751000000002 318.49033,195.63766000000004 C 319.23139,195.93571000000003 320.83585,196.66152000000005 321.70651999999995,197.08532000000005 C 322.62130999999994,197.53059000000005 323.55985,198.00872000000004 324.51599999999996,198.50132000000005 C 325.48017,198.99804000000006 326.43692999999996,199.49946000000006 327.37949,199.98933000000005 C 328.29427999999996,200.46476000000004 329.99832999999995,201.33671000000004 330.77117999999996,201.71434000000005 C 331.48778999999996,202.06448000000006 332.16128999999995,202.38077000000004 332.79467999999997,202.67734000000004 C 333.39565999999996,202.95874000000003 333.97342,203.22634000000005 334.53018,203.49634000000003 C 335.07876,203.76239000000004 336.16927999999996,204.32868000000002 336.72134,204.64284000000004 C 337.28670999999997,204.96459000000004 337.85415,205.30741000000003 338.42532,205.66133000000002 C 339.00152,206.01839 339.57504,206.38476000000003 340.14734,206.75183 C 340.71637,207.11679 341.83322,207.83353000000002 342.37885,208.17917 C 342.91721,208.5202 343.98798,209.2027 344.52085,209.5625 C 345.06409,209.92931 345.61683,210.31494 346.16935,210.74001 C 347.34858,211.64722 347.94709,212.18110000000001 348.56934,212.74001 C 349.21427,213.31929000000002 349.86387,213.9307 350.52085,214.5625 C 351.1879,215.20399 351.85309,215.85959 352.51734,216.52 C 353.83582,217.83085 354.47834,218.47833 355.11334999999997,219.11332000000002 C 355.73834999999997,219.73832000000002 356.35333999999995,220.35333000000003 356.95835,220.95832000000001 C 357.55335,221.55332 358.13833999999997,222.13833000000002 358.71335,222.71332 C 359.83335,223.83332000000001 360.37851,224.37848 360.91467,224.91466 C 361.44284,225.44283 361.96399,225.96399 362.47915,226.47916 C 362.98931,226.98932000000002 363.49551,227.49550000000002 363.99865,227.99866 C 364.99996,229.0 365.50213,229.49886 366.00133999999997,230.00666 C 366.50649999999996,230.52051 367.01543999999996,231.04896000000002 367.52083999999996,231.60416 C 368.04094999999995,232.17553 368.56811,232.77695 369.08531999999997,233.42665 C 370.19035999999994,234.81476 370.72664999999995,235.60318 371.28398999999996,236.42132 C 371.85814999999997,237.26411000000002 372.42645,238.13656 372.99998999999997,239.02081 C 373.57583,239.90857 374.14207999999996,240.79727 374.71599,241.66531 C 375.82322999999997,243.34002 376.37388999999996,244.11689 376.91197,244.85731 C 377.42973,245.56980000000001 377.94133,246.24632000000003 378.43748,246.89581 C 378.91606,247.52227000000002 379.38456,248.12222 379.82797999999997,248.70932000000002 C 380.67319,249.82840000000002 381.0619,250.37617000000003 381.43197999999995,250.92131 C 381.79922999999997,251.46225 382.15365999999995,252.01463 382.49996999999996,252.58331 C 382.85515999999996,253.16659 383.21011,253.77861000000001 383.56795999999997,254.42532 C 384.34383999999994,255.82754 384.74382999999995,256.6056 385.16661999999997,257.41731 C 385.6022,258.25358 386.03990999999996,259.10535999999996 386.47911999999997,259.95833 C 386.91322999999994,260.80135 387.33464999999995,261.6238 387.74663999999996,262.40932 C 388.4949,263.83601999999996 388.83322,264.45133999999996 389.14528999999993,265.00664 C 389.43074999999993,265.51457 389.7019899999999,265.98039 389.9583099999999,266.41664000000003 C 390.20336999999995,266.83369000000005 390.4460399999999,267.23857000000004 390.6812999999999,267.64665 C 391.1716299999999,268.49711 391.6854499999999,269.45253 391.9526299999999,269.96248 C 392.2268299999999,270.48586 392.7752299999999,271.55968 393.0472999999999,272.09914000000003 C 393.31655999999987,272.63301 394.0801999999999,274.15728 394.3172899999999,274.63732000000005 C 394.7881199999999,275.59063000000003 395.0270399999999,276.08047000000005 395.5097899999999,277.13399000000004 C 395.7726999999999,277.70775000000003 396.3350799999999,278.99925 396.6426299999999,279.72798000000006 C 396.9698099999999,280.5031900000001 397.30568999999986,281.31584000000004 397.65062999999986,282.15199000000007 C 398.0003599999999,282.99980000000005 398.34843999999987,283.8483100000001 398.6946399999999,284.68397000000004 C 399.0311599999999,285.49632 399.6638799999999,287.00117000000006 399.95729999999986,287.67149000000006 C 400.22942999999987,288.29310000000004 400.49156999999985,288.8719300000001 400.74928999999986,289.4159700000001 C 400.9970299999999,289.9388900000001 401.50221999999985,290.9460900000001 401.7679699999999,291.4479800000001 C 402.3268399999999,292.5034300000001 402.96733999999987,293.6525400000001 403.3142999999999,294.2534900000001 C 403.66863999999987,294.8672600000001 404.03600999999986,295.48268000000013 404.4212899999999,296.0879900000001 C 404.8034299999999,296.6883900000001 405.1464799999999,297.3076600000001 406.40080999999986,298.8151300000001 C 406.7897599999999,299.28257000000013 407.21443999999985,299.71113000000014 408.10411999999985,300.56247000000013 C 408.5757399999998,301.0137600000001 409.08992999999987,301.47781000000015 409.62663999999984,301.99197000000015 C 410.84269999999987,303.15689000000015 411.51036999999985,303.84558000000015 412.2173099999998,304.5892900000002 C 412.9585799999998,305.36911000000015 413.70930999999985,306.18435000000017 414.4583099999998,307.02081000000015 C 415.2053199999998,307.85504000000014 415.9306599999998,308.68145000000015 416.6093099999998,309.49731000000014 C 417.84871999999984,310.9873000000001 418.3557099999998,311.66662000000014 418.80528999999984,312.28796000000017 C 419.21419999999983,312.85308000000015 419.57118999999983,313.3827200000002 419.89580999999987,313.8749700000002 C 420.19905999999986,314.3348100000002 420.4766499999999,314.77713000000017 420.76128999999986,315.19196000000017 C 421.32137999999986,316.00827000000015 421.63781999999986,316.40412000000015 421.97063999999983,316.7986500000002 C 422.3091099999998,317.1999000000002 423.0364999999998,317.9842600000002 423.42128999999983,318.3639900000002 C 424.1924999999998,319.1250400000002 424.99519999999984,319.83894000000015 425.8012899999998,320.5173100000002 C 426.20210999999983,320.8546200000002 427.0221799999998,321.5191700000002 427.43595999999985,321.8613000000002 C 428.28812999999985,322.5658900000002 429.1704599999999,323.3291000000002 429.6211099999999,323.7428000000002 C 430.55613999999986,324.6011400000002 431.0146299999999,325.0613100000002 431.4791099999999,325.52082000000024 L 431.93860999999987,325.9853000000002 L 432.39011999999985,326.4518200000002" fill="none" id="svg_6" stroke="#000" stroke-width="2"/>
</svg>
