<?xml version="1.0" ?>
<svg baseProfile="full" height="480" version="1.1" width="640" xmlns="http://www.w3.org/2000/svg" xmlns:ev="http://www.w3.org/2001/xml-events" xmlns:xlink="http://www.w3.org/1999/xlink">
	<defs/>
	<path d="M 267.0,189.0 C 266.0,190.0 266.35672,190.61227 266.91599,191.28534 C 267.47202000000004,191.9545 267.61783,192.71296999999998 268.02533,193.60001 C 268.39871,194.41277 268.79996,195.24609999999998 269.16666,196.0 C 269.53806,196.76361 269.83258,197.51723 270.01068,198.39999 C 270.20108,199.34376 270.74222,200.03448 271.08401,200.8 C 271.41598,201.54353 271.86553,202.40986 272.00448,203.3 C 272.13232,204.11895 272.83621,204.76858000000001 272.98931,205.60000000000002 C 273.1524,206.48565000000002 273.5432,207.20329 273.8785,208.10000000000002 C 274.19658,208.95063000000002 273.97274,209.80041000000003 273.99998999999997,210.69999 C 274.02858,211.64413000000002 274.71599,212.08399 274.99998999999997,212.99999000000003 L 274.99998999999997,213.79999000000004 L 274.99998999999997,214.69998000000004" fill="none" id="svg_1" stroke="#000" stroke-width="2"/>
	<path d="M 267.0,189.0 C 265.29999,189.0 264.39999,189.0 263.5,189.0 C 262.60001,189.0 261.60202,189.00009 261.0,189.5 C 260.38028,190.0146 259.6077,190.44421 258.89999,191.09984 C 258.30636,191.6498 257.43216,191.87604 256.70001,192.35716 C 255.90576000000001,192.8791 255.42174000000003,193.62261999999998 254.8,194.19867 C 254.21949,194.73650999999998 253.45808000000002,195.22550999999999 252.77867,195.87866 C 252.19887,196.43605 251.58348,196.98448 251.0,197.5 C 250.36212,198.06357 250.1192,198.83914 249.47917,199.47917 C 248.83914000000001,200.1192 248.20947,200.54454 247.64284,201.2955 C 247.138,201.96455 246.3201,202.28381000000002 245.71601,202.916 C 245.16564000000002,203.49196 244.59113000000002,204.1273 244.16668,205.0 C 243.84583,205.65967 243.42635,206.46306 243.05268,207.3 C 242.70794,208.07216000000003 242.34229000000002,208.82402000000002 241.94733000000002,209.69999 C 241.62137,210.42292 241.211,211.25362 240.77867000000003,212.10000000000002 C 240.44394000000003,212.75530000000003 240.00888000000003,213.61804000000004 239.57466000000002,214.39999000000003 C 239.11905000000002,215.22046000000003 238.76968000000002,215.96031000000002 238.35266000000001,216.69999000000004 C 237.93262000000001,217.44502000000006 237.33819000000003,218.04389000000003 236.94733000000002,218.70449000000005 C 236.48258,219.48994000000005 236.16907000000003,220.35261000000006 235.71601,221.19999000000004 C 235.36741,221.85200000000003 234.73328,222.49976000000004 234.16668,223.16666000000004 C 233.58555,223.85065000000003 233.37209000000001,224.96575000000004 234.00001,224.83332000000004 C 234.83087,224.65807000000004 235.56307,224.31975000000006 236.38934,223.98933000000005 C 237.17862,223.67369000000005 237.7045,223.00225000000006 238.60002,223.00000000000006 C 239.50001,222.99774000000005 240.40001,223.00000000000006 241.30002,223.00000000000006 C 242.20001,223.00000000000006 243.10128999999998,223.04779000000005 244.00001999999998,223.00000000000006 C 244.80343,222.95728000000005 245.47695,222.38812000000004 246.32134999999997,222.12134000000006 C 247.14696999999995,221.86049000000006 248.14904999999996,221.75731000000005 248.79867999999996,221.19867000000005 C 249.43635999999995,220.65030000000004 250.25364999999996,220.21100000000004 251.10002999999998,219.77867000000006 C 251.75533,219.44394000000005 252.62341999999998,219.01837000000006 253.40001999999998,218.57466000000005 C 254.12406,218.16098000000005 255.15382,218.32237000000006 255.87868999999998,217.77867000000006 C 256.52173,217.29635000000007 257.29791,217.15935000000007 257.94735,216.64734000000007 C 258.56197,216.16278000000008 259.35664999999995,216.13657000000006 260.20003999999994,215.71600000000007 C 260.86166,215.38607000000007 261.69908999999996,214.94561000000007 262.5000299999999,214.50000000000006 C 263.2990699999999,214.05545000000006 264.20003999999994,214.00000000000006 265.1000399999999,214.00000000000006 C 266.0000299999999,214.00000000000006 266.5476099999999,213.55385000000007 267.28536999999994,213.08533000000006 C 267.9768399999999,212.64621000000005 269.15383999999995,213.32238000000007 269.87868999999995,212.77867000000006 C 270.52172999999993,212.29635000000007 271.20003999999994,212.00000000000006 272.09984999999995,211.99983000000006 L 272.87868999999995,211.77867000000006 L 273.35720999999995,211.05716000000007 L 274.1987,210.99867000000006" fill="none" id="svg_2" stroke="#000" stroke-width="2"/>
	<path d="M 236.0,225.0 C 236.57466,223.39999 237.04419,222.56384 237.57466,221.97467 C 238.09956,221.39169 238.54762,220.55392 239.28534,220.08533 C 239.97664,219.64621 240.76128,219.63835 241.2215,218.90016 C 241.6686,218.183 242.66634,218.08397 243.4,217.56399 C 244.18708,217.00614 244.69916,216.35528 245.50001,215.99999 C 246.29919,215.64545 247.15055,215.24725999999998 248.00001,214.83332 C 248.65226,214.51548 249.42518,213.94333999999998 250.02534,213.42532999999997 C 250.65406,212.88267999999997 251.52362,212.53958999999998 252.29551,212.05265999999997 C 252.99795,211.60953999999998 253.55084,211.05988999999997 254.30001000000001,210.64732999999998 C 255.13856,210.18554999999998 255.68366,209.60259 256.35718,209.05265999999997 C 257.06058,208.47832999999997 257.74631000000005,208.13833999999997 258.40000000000003,207.61065999999997 C 259.14442,207.00973999999997 259.73789000000005,206.38976999999997 260.43601,206.03597999999997 C 261.20734,205.64509999999996 262.28513000000004,206.14271999999997 262.94733,205.64731999999998 C 263.63983,205.12924999999998 264.25885,204.57867 265.09983,204.12131999999997 C 265.84733,203.71479999999997 266.28535,203.08530999999996 267.19868,202.99864999999997 L 267.94734,202.64731999999998 L 268.43602,202.03597999999997 L 269.38936,201.98931999999996" fill="none" id="svg_3" stroke="#000" stroke-width="2"/>
	<path d="M 296.0,191.0 C 296.05716,189.3 296.46042,188.47639 296.94733,187.7045 C 297.39041000000003,187.00206 297.94626,186.45108 298.42533000000003,185.60001 C 298.83436,184.87337 299.28202000000005,184.04273 300.10001000000005,184.0 C 300.99878000000007,183.95306 301.60688000000005,183.51634 302.2853400000001,183.08533 C 303.0606400000001,182.59279 304.2183500000001,183.11461 304.6428200000001,183.7045 C 305.2115800000001,184.49492 305.5891400000001,185.31792 305.87851000000006,186.10001 C 306.19363000000004,186.95174 306.00000000000006,187.80001 306.00000000000006,188.7 C 306.00000000000006,189.60001 305.88138000000004,190.47563 305.35266000000007,191.05267999999998 C 304.71924000000007,191.74398 303.99914000000007,191.96282 303.2000100000001,192.00000999999997 C 302.28235000000006,192.04271999999997 301.78476000000006,192.93910999999997 300.89999000000006,193.00000999999997 C 300.0021300000001,193.06180999999998 299.2051400000001,192.90591999999998 298.50000000000006,192.50000999999997 C 297.7056600000001,192.04272999999998 296.79999000000004,191.71466999999998 296.2000100000001,191.19867999999997 L 295.50000000000006,190.52083999999996 L 294.80133000000006,190.08400999999998" fill="none" id="svg_4" stroke="#000" stroke-width="2"/>
	<path d="M 264.0,191.0 C 264.87866,189.7785 265.19101,188.87411 265.7045,188.3 C 266.26804,187.6699 267.08747,187.07158 267.564,186.39999 C 268.07889,185.67434 268.47941000000003,184.88812000000001 269.05268,184.35266000000001 C 269.73789,183.71265000000002 270.21171,183.02827000000002 270.57468,182.39999 C 271.06324,181.55433 271.44937,180.86164 272.08402,180.28399 C 272.73069,179.69539999999998 273.3368,179.14873999999998 273.97468000000003,178.57465 C 274.55342,178.05379 275.15891000000005,177.48194999999998 275.71601000000004,176.91599 C 276.37665000000004,176.24486 276.85746000000006,175.66872 277.42533000000003,175.02532 C 277.94996000000003,174.43093 278.28998,173.60685999999998 279.09983000000005,173.12133 C 279.8296,172.6838 280.40443000000005,172.15275 281.20002000000005,171.716 C 281.84812000000005,171.36023 282.66926000000007,170.89073000000002 283.08402000000007,170.19867000000002 C 283.5604600000001,169.40369 284.38837000000007,169.02419000000003 285.0000100000001,168.50000000000003 C 285.6463100000001,167.94611000000003 286.1281800000001,167.36443000000003 287.0000100000001,166.83333000000002 C 287.6374600000001,166.44501000000002 288.2329800000001,165.60362 289.0000100000001,165.16667 C 289.7798900000001,164.72241 290.28395000000006,164.2511 291.1000200000001,163.7785 C 291.7665800000001,163.39248 292.3346700000001,162.50042000000002 293.1000200000001,162.12133 C 293.9467900000001,161.70191 294.6904400000001,161.57594 295.47917000000007,160.99999 C 296.11946000000006,160.53246 296.7324700000001,160.18961 297.6000200000001,159.96399 C 298.4656500000001,159.73888 299.0221400000001,158.79909 299.7000300000001,158.35715 C 300.4339500000001,157.87869999999998 301.2361000000001,157.53404999999998 302.1000200000001,157.12133 C 302.9526800000001,156.714 303.5604400000001,156.34635 304.30000000000007,155.70449 C 304.9666900000001,155.12588 305.55446000000006,154.58237 306.2215100000001,154.1215 C 306.95103000000006,153.61746 307.6702700000001,153.45320999999998 308.35719000000006,153.05715 C 309.17570000000006,152.58521000000002 310.03666000000004,152.67386000000002 310.80000000000007,152.28399000000002 C 311.5529000000001,151.89944000000003 312.43806000000006,151.83721000000003 313.05269000000004,151.35265 C 313.70213000000007,150.84064 314.45149000000004,150.66898 315.16667000000007,150.16666 C 315.86210000000005,149.6782 316.80000000000007,149.99999 317.7000300000001,149.99999 C 318.6000200000001,149.99999 319.50002000000006,149.99999 320.40001000000007,149.99999 C 321.30000000000007,149.99999 322.2000300000001,149.99999 323.1000200000001,149.99999 C 324.0000100000001,149.99999 324.80018000000007,150.01798 325.7000300000001,149.99999 C 326.60057000000006,149.98198 327.3103500000001,149.38186 328.2000300000001,149.08532 C 329.0576700000001,148.79945 330.00002000000006,148.99999 330.8000100000001,148.99999 C 331.7000300000001,148.99999 332.6000300000001,148.99999 333.5000200000001,148.99999 C 334.4000100000001,148.99999 335.3217100000001,148.80509 336.1986900000001,149.00132 C 337.0057300000001,149.18188999999998 337.4355700000001,149.97958 338.4000100000001,149.99999 C 339.2998200000001,150.01903 340.03667000000013,150.32612 340.8000000000001,150.71599 C 341.55290000000014,151.10054 342.4602800000001,151.13584 343.0526900000001,151.64733 C 343.7087000000001,152.21374 344.4683700000001,152.56199 345.3000000000001,152.94732000000002 C 346.17189000000013,153.35131 346.9560700000001,153.45425000000003 347.7146700000001,154.08399000000003 C 348.43983000000014,154.68596000000002 348.76127000000014,155.36164000000002 349.22151000000014,156.09983000000003 C 349.66862000000015,156.81698000000003 350.64863000000014,157.04906000000003 351.05269000000015,157.70449000000002 C 351.52770000000015,158.47498000000002 352.37285000000014,158.79536000000002 353.20003000000014,159.28533000000002 C 353.88088000000016,159.68864000000002 354.4000100000001,160.39998000000003 355.10002000000014,161.10000000000002 C 355.70003000000014,161.69999 356.31026000000014,162.28988 357.00001000000015,162.99999000000003 C 357.60920000000016,163.62719 358.14192000000014,164.29946000000004 358.4791700000001,164.99999000000003 C 358.9376100000001,165.95231 359.01188000000013,166.84913000000003 359.52086000000014,167.49999000000003 C 360.1216900000001,168.26829000000004 360.86073000000016,168.74587000000002 361.3893600000001,169.39998000000003 C 361.9906800000001,170.14404000000002 362.42391000000015,170.81391000000002 363.20003000000014,171.28533000000002 C 363.87639000000013,171.69614 364.4176200000001,172.38282 365.09984000000014,173.10000000000002 C 365.65758000000017,173.68632000000002 365.87605000000013,174.56782 366.3571900000001,175.3 C 366.8791000000001,176.09424 367.64586000000014,176.55726 368.2955100000001,177.3 C 368.8766900000001,177.96444000000002 369.05268000000007,178.69999 369.5000100000001,179.5 C 369.9473400000001,180.3 370.36741000000006,181.14799 370.7160100000001,181.8 C 371.1690700000001,182.64738 371.5736500000001,183.46306 371.9473300000001,184.3 C 372.2920900000001,185.07216000000003 372.6785000000001,185.81553000000002 373.02533000000005,186.60000000000002 C 373.38702000000006,187.41802 373.79996000000006,188.24609 374.16666000000004,188.99999000000003 C 374.53806000000003,189.76360000000003 374.83258000000006,190.51722000000004 375.01068000000004,191.39998000000003 C 375.20108000000005,192.34375000000003 375.73395000000005,193.03822000000002 376.08401000000003,193.79999000000004 C 376.42855000000003,194.54972000000004 377.31134000000003,195.11911000000003 377.71466000000004,195.79999000000004 C 378.20462000000003,196.62714000000003 378.68552000000005,197.42256000000003 378.94284000000005,198.29999000000004 C 379.19629000000003,199.16416000000004 379.6083100000001,199.73883000000004 379.96399,200.43599000000003 C 380.35501000000005,201.20245000000003 380.71665,201.87717000000004 380.98932,202.61066000000002 C 381.29215,203.42527 381.75165000000004,203.94362 381.99552,204.70449000000002 C 382.28254,205.59998000000002 382.83335,206.16666 383.16666,206.99999000000003 L 383.57468,207.60000000000002 L 383.97467,208.39999000000003 L 384.35266,209.29100000000003" fill="none" id="svg_5" stroke="#000" stroke-width="2"/>
	<path d="M 274.0,217.0 C 274.61066,215.436 275.39944,215.01733 276.29999,215.0 C 277.19986,214.98268 278.04681999999997,215.30687 278.79999,215.716 C 279.59751,216.14923000000002 280.10514,216.67749 280.80133,217.084 C 281.6275,217.56639 282.20001,218.20001 282.79999,218.8 C 283.5,219.50001 284.10233,220.0977 284.70000999999996,220.69999 C 285.39203,221.39733 285.71097,222.17217000000002 286.16664999999995,222.99999000000003 C 286.57081999999997,223.73426000000003 287.56312999999994,223.93419000000003 288.02531999999997,224.61066000000002 C 288.5245,225.34130000000002 288.78898999999996,226.25362 289.22132999999997,227.09999000000002 C 289.55604999999997,227.75529000000003 289.94102999999996,228.53029 290.42530999999997,229.39998000000003 C 290.83104,230.12862000000004 291.22056999999995,230.96666000000002 291.57466,231.59999000000002 C 292.05617,232.46124000000003 291.93754,233.43071000000003 292.22132999999997,234.32132000000001 C 292.44408,235.02034 292.78394999999995,236.00835 293.05265999999995,236.69548 C 293.38789999999995,237.55276 293.77687,238.32651 294.00132999999994,239.19865000000001 C 294.20744999999994,239.99954000000002 294.85474999999997,240.4481 295.0044699999999,241.29998 C 295.1676199999999,242.22816 295.8518199999999,242.76859000000002 295.99549999999994,243.69997 C 296.1327099999999,244.58947 295.84290999999996,245.51569 296.01066999999995,246.39997 C 296.19013999999993,247.34589 296.74220999999994,248.03446 297.08399999999995,248.79998 C 297.41596999999996,249.54351 297.98130999999995,250.39945 297.99998999999997,251.29998 C 298.01863999999995,252.19845 298.56685,252.67764 298.96398,253.43598 C 299.36523,254.20223000000001 299.38607,255.13833 299.71599,255.79998 C 300.13655,256.64335 299.83479,257.61918000000003 300.02083,258.49998 C 300.19982,259.34736 300.90224,260.09709 300.99998999999997,260.99998 C 301.07557999999995,261.69825 301.56217999999996,262.46824 301.94732,263.29997 C 302.35161999999997,264.17307999999997 302.80273,264.86485 302.94283,265.65265999999997 C 303.09429,266.50440999999995 302.94155,267.51584999999994 303.35265000000004,268.29997 C 303.79723,269.14793 304.2076,269.97409999999996 304.57467,270.59999 C 305.02715,271.37149999999997 305.50051,272.21876 305.83334,272.99998 C 306.15353000000005,273.75151 306.0,274.69999 306.05716,275.64279999999997 L 306.716,276.08399" fill="none" id="svg_6" stroke="#000" stroke-width="2"/>
</svg>
