<?xml version="1.0" ?>
<svg baseProfile="full" height="480" version="1.1" width="640" xmlns="http://www.w3.org/2000/svg" xmlns:ev="http://www.w3.org/2001/xml-events" xmlns:xlink="http://www.w3.org/1999/xlink">
	<defs/>
	<path d="M 331.0,161.0 C 329.91599,159.28534 329.25046,158.68503 328.716,158.084 C 328.14151,157.43793 327.62433,156.85576 327.16665,156.0 C 326.74337,155.20856 326.22631,154.72993 325.77865,153.89999 C 325.42932,153.25236 324.86276000000004,152.55824 324.28399,151.916 C 323.69863000000004,151.26642999999999 323.17288,150.64807 322.64733,150.05267 C 322.08407,149.41453 321.36907,149.1705 320.49999,148.97917 C 319.65246,148.79259000000002 319.07155,147.91252 318.39998,147.436 C 317.6743,146.92111 317.12132,146.28730000000002 316.38933000000003,146.01066 C 315.46285,145.66052 314.62465000000003,145.5341 313.90016,145.12133 C 313.10838,144.67022 312.65584,144.04252 311.99998000000005,143.49999 C 311.39701,143.00121 310.49998000000005,143.00225 309.59999000000005,142.99999 C 308.70448000000005,142.99773 308.19350000000003,142.3286 307.47914000000003,142.02082 C 306.5797,141.63329 305.59999000000005,142.00064999999998 304.70000000000005,141.99999 C 303.79998000000006,141.99931999999998 303.04622000000006,141.75786 302.29998000000006,141.35264999999998 C 301.5388700000001,140.93937 300.6000000000001,140.99999 299.70000000000005,140.99999 C 298.79998000000006,140.99999 297.89998,140.99999 296.99999,140.99999 C 296.20000000000005,140.99999 295.29998,140.99999 294.39998,140.99999 C 293.49999,140.99999 292.59999000000005,140.99999 291.70000000000005,140.99999 C 290.79998000000006,140.99999 289.89998,140.99999 288.99999,140.99999 C 288.20000000000005,140.99999 287.29998,140.99999 286.39998,140.99999 C 285.49999,140.99999 284.59999000000005,140.99999 283.70000000000005,140.99999 C 282.79998000000006,140.99999 281.89998,140.99999 280.99999,140.99999 C 280.20000000000005,140.99999 279.17656000000005,140.5873 278.35717000000005,141.05715 C 277.6693000000001,141.45157 276.99999,141.99808000000002 276.24282000000005,141.99999 C 275.34731000000005,142.00225 274.45611,142.02268 273.6359800000001,142.42533 C 272.7668700000001,142.85201 272.26119000000006,143.60839 271.56399000000005,143.964 C 270.79348000000005,144.35699 269.85040000000004,144.37957 269.11465000000004,144.716 C 268.38974,145.04748 267.49478000000005,145.32643000000002 266.83334,145.83332000000001 C 266.12094,146.37928000000002 265.44763,146.663 264.70001,147.29549 C 263.94421,147.93491 263.21924,148.11682 262.39999,148.57465 C 261.62753,149.00634 261.12109,149.71202 260.38934,149.98932 C 259.49679000000003,150.32755 259.10989,150.82994 258.47915,151.47915999999998 C 257.91723,152.05752999999999 257.2366,152.45707 256.71465,153.19866 C 256.16454,153.98026 255.23707000000002,154.07032999999998 254.99999,154.99999 C 254.79,155.82345999999998 254.23031,156.30553 253.64733,156.94732 C 253.12108,157.52664 253.27025,158.33865 252.99549000000002,159.2955 C 252.77497000000002,160.06344 252.02082000000001,160.52083000000002 251.98933000000002,161.38933 L 251.50000000000003,162.0" fill="none" id="svg_1" stroke="#000" stroke-width="2"/>
	<path d="M 259.0,162.0 C 257.39999,162.57466 256.59824,162.93474 255.68649,163.0045 C 254.94178,163.06148000000002 253.94531999999998,163.2747 253.32399999999998,163.436 C 252.35356,163.68795 251.25973,164.09115 250.56249,164.47917 C 249.79462,164.90649000000002 248.94043,165.28496 248.29999,165.64734 C 247.47920000000002,166.11176 247.03853,166.72151000000002 246.29015,167.2955 C 245.71096,167.73973 244.62578000000002,167.86082000000002 243.69999,168.0045 C 242.88093,168.13161 242.01902,168.43165000000002 241.35716000000002,169.05267 C 240.75267000000002,169.61985 241.05758000000003,170.64212 241.80133000000004,171.084 C 242.50040000000004,171.49933000000001 243.38933000000003,171.97467 244.00000000000003,172.5 C 244.61067000000003,173.02533 245.43924000000004,173.40385 245.91600000000003,174.19867 C 246.33043000000004,174.88956 247.25729,174.83629 248.10001000000003,175.22133 C 248.76931000000002,175.52713 249.53026000000003,175.94113 250.40000000000003,176.42534 C 251.12858000000003,176.83096 252.00088000000002,176.96280000000002 252.80001000000004,177.0 C 253.71764000000005,177.04271 254.23208000000005,177.81778 255.09985000000003,178.00017 C 255.89215000000004,178.1667 256.35572,178.97141 257.20002000000005,179.0 C 258.09950000000003,179.03047 259.00001000000003,179.0 259.80000000000007,179.0 C 260.70002000000005,179.0 261.6000200000001,179.0 262.5000100000001,179.0 L 263.4000000000001,179.0 L 264.2999900000001,179.0" fill="none" id="svg_2" stroke="#000" stroke-width="2"/>
	<path d="M 244.0,171.0 C 245.8,171.0 246.7,171.0 247.60001,171.0 C 248.42134,171.0 249.33333,171.0 250.25068,171.0 C 250.99466999999999,171.0 252.02934,171.0 253.00000999999997,171.0 C 253.80001,171.0 254.70000999999996,171.0 255.60001999999997,171.0 C 256.50001,171.0 257.40000999999995,171.0 258.29999999999995,171.0 C 259.20001999999994,171.0 260.10002,171.0 261.00001,171.0 L 261.79999999999995,171.0 L 262.70001999999994,171.0" fill="none" id="svg_4" stroke="#000" stroke-width="2"/>
	<path d="M 290.0,157.0 C 288.29999,157.0 287.20984,157.00323 287.00134,157.80133 C 286.77374000000003,158.67265 286.31381000000005,159.42236 286.05716,160.3 C 285.80405,161.16555000000002 286.0,162.10000000000002 286.0,163.0 C 286.0,163.8 285.60663,164.81339 286.03601,165.564 C 286.43109,166.25463 287.60001,166.0 288.5,166.0 C 289.39999,166.0 290.29999,166.0 291.20001,166.0 C 292.1,166.0 293.00085,166.03719 293.79999000000004,166.0 C 294.71765000000005,165.95729 294.99933000000004,165.19867 295.00000000000006,164.3 C 295.00067000000007,163.39999 295.00000000000006,162.5 295.00000000000006,161.60000000000002 C 295.00000000000006,160.69999 295.14877000000007,159.71031000000002 294.64734000000004,159.05267000000003 C 294.13126000000005,158.37581000000003 293.38934000000006,158.01066000000003 292.52084,157.97917000000004 L 291.94732000000005,157.35266000000004 L 291.29550000000006,157.00450000000004 L 290.39999000000006,157.00000000000003" fill="none" id="svg_6" stroke="#000" stroke-width="2"/>
	<path d="M 261.0,183.0 C 261.0,184.8 260.84293,185.71976 261.02084,186.5 C 261.24023,187.46201 261.93911,188.09389 262.0,189.0 C 262.05362,189.7982 261.58728,190.82343 262.05716,191.64284 C 262.4516,192.33068 262.97464,193.0004 263.0,193.80001000000001 C 263.02859,194.70136000000002 263.66287,195.42635 263.91467,196.20000000000002 C 264.19449,197.05965 264.0,198.00000000000003 264.0,198.80001000000001 C 264.0,199.70000000000002 264.0,200.60001000000003 264.0,201.50001 C 264.0,202.4 264.0,203.30001000000001 264.0,204.20001 L 264.0,205.10002" fill="none" id="svg_7" stroke="#000" stroke-width="2"/>
	<path d="M 264.0,207.0 C 264.0,208.8 264.00592,209.70001 264.0,210.60001 C 263.99466,211.41071 263.76071,212.31462 263.5,213.02083 C 263.14178,213.99116999999998 263.01801,214.78887 263.0,215.83333 C 262.98697,216.58924 263.0,217.5 263.0,218.39999999999998 C 263.0,219.30001 263.0,220.2 263.0,221.10000999999997 C 263.0,221.99999999999997 263.0,222.80000999999996 263.0,223.69999999999996 C 263.0,224.60000999999997 263.0,225.49999999999997 263.0,226.39999999999995 C 263.0,227.30000999999996 263.0,228.19999999999996 263.0,229.10000999999994 C 263.0,229.99999999999994 262.99759,230.80000999999993 263.0,231.75717999999995 C 263.00226,232.65268999999995 262.95532,233.39021999999994 263.42532,234.36400999999995 C 263.80102,235.14241999999996 263.9628,236.00087999999994 264.0,236.80000999999996 C 264.04272,237.71763999999996 264.93912,238.21522999999996 265.0,239.10000999999997 C 265.0618,239.99787999999998 265.09561,240.79402999999996 265.5,241.49999999999997 C 265.9545,242.29343999999998 265.67416,243.48035999999996 266.35718,243.94283999999996 C 267.13584000000003,244.47005999999996 267.74945,244.47370999999995 268.00449000000003,245.29549999999995 C 268.24131000000006,246.05857999999995 268.63153000000005,246.60247999999996 269.02085000000005,247.47916999999995 C 269.33655000000005,248.19005999999996 269.8104000000001,248.73243999999994 270.03602000000006,249.59999999999997 C 270.26112000000006,250.46561999999997 271.20835000000005,251.01729999999998 271.64283000000006,251.69998999999996 C 272.10877000000005,252.43211999999997 272.0333600000001,253.36990999999995 272.57468000000006,254.02531999999997 C 273.0742200000001,254.63015999999996 273.87146000000007,255.15992999999997 274.00000000000006,255.99998999999997 C 274.12167000000005,256.79524999999995 274.5417800000001,257.48031 275.19867000000005,258.2 C 275.73215000000005,258.7845 276.33008000000007,259.45072999999996 276.8333400000001,260.16664 C 277.3220800000001,260.86188999999996 277.3974300000001,261.66968999999995 277.9159800000001,262.28531999999996 C 278.4763700000001,262.95065999999997 278.9821100000001,263.43152999999995 279.6428200000001,264.05264999999997 C 280.2467600000001,264.62043 280.21600000000007,265.54798 280.8333400000001,266.16663 C 281.4509900000001,266.78559 281.94610000000006,267.35367 282.50000000000006,267.99997 C 283.0241700000001,268.6116 283.45639000000006,269.38168 283.9159900000001,270.19864 C 284.31128000000007,270.90128 284.87626000000006,271.53839 285.52085000000005,271.99997 C 286.2144200000001,272.49661000000003 286.72336000000007,273.16547 287.16666000000004,273.99997 C 287.50339,274.63388000000003 288.70444000000003,274.86765 288.98932,275.61063 C 289.30045,276.42209 289.73093,276.8516 290.38934,277.43598000000003 C 291.08252,278.05121 291.44195,278.78556000000003 292.19867,279.28531000000004 C 292.80759,279.68747 293.10001,280.68509000000006 293.80133,281.08399000000003 C 294.51758,281.49137 295.1955,282.20453000000003 295.79999,282.79996000000006 C 296.49483999999995,283.4844100000001 297.22028,283.85184000000004 298.16666,284.16663000000005 C 298.84191999999996,284.39124000000004 299.50289999999995,284.82065000000006 300.36402,285.38932000000005 C 301.18793,285.93342000000007 302.22492,285.74372000000005 302.87867,286.22132000000005 C 303.57774,286.73203000000007 304.2573,286.83631 305.10001,287.22132000000005 C 305.76932,287.52711000000005 306.564,288.02531000000005 307.08402,288.71598000000006 L 307.83335,289.16663000000005 L 308.284,289.91596000000004 L 308.97467,290.42530000000005" fill="none" id="svg_8" stroke="#000" stroke-width="2"/>
</svg>
