<?xml version="1.0" ?>
<svg baseProfile="full" height="480" version="1.1" width="640" xmlns="http://www.w3.org/2000/svg" xmlns:ev="http://www.w3.org/2001/xml-events" xmlns:xlink="http://www.w3.org/1999/xlink">
	<defs/>
	<path d="M 175.0,124.0 C 171.65067,124.0 170.66667,124.0 169.98567,124.0 C 169.17866,124.0 168.0,124.0 167.10451,124.0 C 166.52083000000002,124.0 165.68534,124.0 164.45267,124.0 C 163.77468000000002,124.0 162.57851000000002,124.0 161.76401,124.0 C 161.18933,124.0 160.0,124.0 159.109,124.0 C 158.27201000000002,124.0 157.33333000000002,124.0 156.47918,124.0 C 155.50001,124.0 154.64201000000003,124.0 154.00001,124.0 C 153.05201,124.0 152.05468,124.0 151.25634,124.0 C 150.34734,124.0 149.48379,123.97952 148.52084,124.0 C 147.54101,124.02084 147.34950999999998,124.74435 147.80268999999998,125.51733 C 148.24828,126.27738000000001 148.95817999999997,126.77856 150.01433999999998,126.94733000000001 C 150.81494999999998,127.07527 151.41615999999996,127.01617 152.59867999999997,127.28666000000001 C 153.49229999999997,127.49107000000001 154.08181999999996,127.69489000000002 155.07867999999996,128.32133000000002 C 155.80625999999995,128.77856000000003 156.42489999999995,129.39089 157.16668999999996,129.83332000000001 C 157.93128999999996,130.28936000000002 158.80901999999995,130.59411 159.40134999999995,130.79865 C 160.59539999999996,131.21097 161.21032999999994,131.3629 162.04283999999996,131.75716 C 163.10878999999994,132.26197 163.56088999999994,132.63675 164.18933999999996,133.21065 C 165.02484999999996,133.97364 165.56956999999997,134.61986 166.16400999999996,135.12798999999998 C 166.94661999999997,135.79698 167.68536999999995,136.00057999999999 168.54266999999996,136.44281999999998 C 169.27357999999995,136.81985999999998 170.01576999999995,137.32376 170.85699999999997,137.97848 C 171.47448999999997,138.45907 172.10017999999997,139.09982 172.75717999999998,139.64282 L 173.65266999999997,139.94282 L 174.51600999999997,139.99865" fill="none" id="svg_1" stroke="#000" stroke-width="2"/>
	<path d="M 173.0,127.0 C 173.0,128.82533 173.0,129.83333 173.0,130.6955 C 173.0,131.52083000000002 173.0,132.484 173.0,133.34734 C 173.0,134.24283 173.0,135.20134000000002 173.0,135.88533 L 173.0,136.82533" fill="none" id="svg_2" stroke="#000" stroke-width="2"/>
	<path d="M 168.0,127.0 C 174.37083,120.629 175.06796,120.13478 175.61583,119.327 C 176.1171,118.58793 176.69919,118.01643 177.48266999999998,117.43066 C 178.02014999999997,117.02881000000001 178.65453,116.16095 179.01467,115.41066000000001 C 179.41204,114.58281000000001 179.78394,113.82161 180.00001,113.02083 C 180.23405,112.15339 181.16804,111.83675000000001 181.82534,111.57466000000001 C 182.83544,111.17190000000001 183.65804,111.08779000000001 184.41067,110.55333 C 185.26188000000002,109.94885000000001 185.65264000000002,109.3473 186.17468000000002,108.82533000000001 C 186.97847000000002,108.02162000000001 187.52133000000003,107.26467000000001 188.41067,107.036 C 189.29351,106.809 190.03895,107.07082 191.00001,106.83333 C 191.82284,106.63000000000001 192.42456,106.27122 193.4,105.51733 C 194.0162,105.04108000000001 194.54383,104.41685 195.60001,104.11433 C 196.37571,103.89215 197.40438,104.05449999999999 198.2,103.96399 C 199.21068,103.84902 199.79447,103.52038999999999 200.68534,103.28398999999999 C 201.66849,103.02309999999999 202.48833,103.05995999999999 203.23067,102.91599 C 204.21311,102.72546 204.9536,102.20291999999999 206.00983,102.05716 C 206.77944,101.95094999999999 207.83333,101.99999 208.54734,101.99999 C 209.45266999999998,101.99999 210.42265,102.0239 211.24668,101.97865999999999 C 211.84790999999998,101.94565999999999 213.17254,101.68383999999999 213.88401,101.43198999999998 C 214.63192999999998,101.16722999999999 215.36558,100.82552999999999 216.11599999999999,100.56798999999998 C 217.16678,100.20737999999999 218.15201,100.05261999999998 218.75332999999998,100.02131999999997 C 219.83208,99.96517999999998 220.76400999999998,99.99998999999997 221.59866999999997,99.99998999999997 C 222.60000999999997,99.99998999999997 223.39999999999998,99.99998999999997 224.40133999999998,99.99998999999997 C 225.02083,99.99998999999997 226.16667999999999,99.99998999999997 226.94816999999998,99.99998999999997 C 227.73866999999998,99.99998999999997 228.87730999999997,99.88111999999997 229.65066999999996,100.07198999999997 C 230.58883999999998,100.30353999999997 231.26974999999996,100.86517999999997 231.82133999999996,101.18531999999998 C 232.40032999999997,101.52137999999998 233.59512999999995,102.12322999999998 234.18933999999996,102.36398999999997 C 235.03795999999997,102.70781999999997 236.09436999999997,103.06824999999998 236.77467999999996,103.42131999999997 C 237.47023999999996,103.78230999999997 238.42332999999996,104.54053999999996 238.95717999999997,105.00531999999997 C 239.52278999999996,105.49775999999997 240.06860999999998,106.04536999999996 241.00000999999997,106.66664999999998 C 241.86482999999998,107.24351999999998 242.51245999999998,107.44498999999998 243.31467999999998,107.96798999999997 C 244.11550999999997,108.49008999999997 244.53960999999998,109.01244999999997 245.22534,109.74931999999997 C 245.67895,110.23674999999997 246.67920999999998,111.04286999999997 247.23601,111.34931999999996 C 248.09538999999998,111.82230999999996 249.01576,112.31250999999996 249.59601,112.76797999999997 C 250.18474,113.23010999999997 250.99526,113.94316999999997 251.50002,114.66664999999996 C 252.0338,115.43169999999996 252.20389,116.32928999999996 252.52085,117.02081999999996 C 252.97505999999998,118.01180999999995 253.38935,118.79998999999995 253.64285999999998,119.39998999999996 L 253.91469999999998,120.39998999999996 L 253.98935999999998,121.19998999999996" fill="none" id="svg_4" stroke="#000" stroke-width="2"/>
	<path d="M 172.0,143.0 C 174.744,148.14267 174.96873,148.9153 175.0,149.9785 C 175.02107,150.69519 175.0,151.60001 175.0,152.52083 C 175.0,153.48399999999998 174.8703,154.18312 175.0045,155.24283 C 175.1156,156.12016 175.76321000000002,156.72695 175.94284000000002,157.65267 C 176.10763000000003,158.50197 176.00000000000003,159.47918 176.00000000000003,160.30451 C 176.00000000000003,161.32134 175.88254000000003,162.00709999999998 176.00017000000003,162.97834 C 176.11164000000002,163.8987 176.95729000000003,164.28358 177.00000000000003,165.16668 C 177.04025000000001,165.99903 177.00000000000003,166.97851 177.00000000000003,167.79867000000002 C 177.00000000000003,168.63601000000003 176.74187000000003,169.75645000000003 177.17067000000003,170.43067000000002 C 177.62618000000003,171.14689 178.87738000000002,171.19680000000002 179.00000000000003,172.10018000000002 C 179.10559000000003,172.87820000000002 178.98842000000002,173.82543 179.00000000000003,174.51601000000002 C 179.01801000000003,175.58980000000003 179.55165000000002,176.35509000000002 179.83333000000002,177.16668 C 180.11072000000001,177.9659 180.00000000000003,178.97851 180.00000000000003,179.79867000000002 C 180.00000000000003,180.63601000000003 179.89236000000002,181.49804 180.05716000000004,182.34735 C 180.23679000000004,183.27307000000002 180.93510000000003,184.09334 180.99550000000005,184.81435000000002 C 181.07532000000006,185.76735000000002 181.00000000000006,186.54169000000002 181.00000000000006,187.40268000000003 C 181.00000000000006,188.59735000000003 180.99699000000007,189.17868000000004 181.00000000000006,189.98569000000003 C 181.00450000000006,191.19472000000005 181.13919000000007,191.98447000000004 181.56934000000007,192.76935000000003 C 181.99067000000008,193.53816000000003 182.37961000000007,194.03542000000004 182.97834000000006,195.07868000000002 C 183.37186000000005,195.76438000000002 183.69973000000007,196.43949 183.87867000000006,197.42151 C 184.02569000000005,198.22836 184.00689000000006,199.11188 184.22134000000005,200.29985000000002 C 184.32969000000006,200.90012000000002 184.61380000000005,201.75531 184.83334000000005,202.83334000000002 C 184.97776000000005,203.54255000000003 185.04847000000004,204.47599000000002 185.44285000000005,205.42167000000003 C 185.67472000000004,205.97767000000005 186.20445000000004,206.83712000000003 186.51734000000005,207.48667000000003 C 187.00895000000006,208.50722000000002 187.25202000000004,209.24984000000003 187.47918000000004,210.00001000000003 C 187.70466000000005,210.74462000000003 187.97921000000005,211.83987000000002 188.30451000000005,212.83834000000004 C 188.50792000000004,213.46268000000003 188.83378000000005,214.34602000000004 189.48534000000004,215.31734000000006 C 189.81112000000005,215.80300000000005 190.43081000000004,216.49144000000007 191.00000000000003,217.33333000000005 C 191.42122000000003,217.95635000000004 191.80367000000004,218.66548000000006 192.23599000000002,219.38533000000004 C 192.67822,220.12166000000005 193.40924,221.18867000000003 193.95717000000002,221.84734000000003 C 194.50868000000003,222.51030000000003 194.81639,222.82026000000002 195.40134000000003,223.48400000000004 C 196.30878000000004,224.51369000000003 196.89957000000004,225.25405000000003 197.18933000000004,225.63601000000003 C 197.77228000000005,226.40446000000003 198.32825000000005,227.19270000000003 198.83333000000005,228.00001000000003 C 199.32948000000005,228.79306000000003 199.77596000000005,229.60998000000004 200.00000000000006,230.02084000000002 C 200.45528000000004,230.85576000000003 201.16342000000006,232.16853000000003 201.42166000000006,232.62135 C 201.95499000000007,233.55653 202.24113000000006,234.02884 202.54167000000007,234.50001 C 203.15051000000005,235.45454 203.45482000000007,235.94081 204.52167000000006,237.27851 C 204.87628000000007,237.72315 205.64284000000006,238.56768000000002 206.04167000000007,238.97918 C 206.44284000000007,239.39307000000002 207.27977000000007,240.20632 208.16667000000007,241.00001 C 208.61802000000006,241.40393 209.55594000000008,242.20147 210.03599000000006,242.60002 C 210.51959000000005,243.00149 211.00909000000004,243.40196 212.00132000000005,244.20001 C 212.99842000000004,245.00198 213.49899000000005,245.4017 214.00266000000005,245.80002 C 215.01862000000006,246.60345999999998 215.53953000000004,247.00286 216.07200000000006,247.40000999999998 C 216.61218000000005,247.80291999999997 217.15899000000005,248.21725999999998 218.33332000000007,249.00001999999998 C 219.55874000000009,249.81683999999998 220.21191000000007,250.19959999999998 220.87199000000007,250.58935999999997 C 221.53924000000006,250.98333999999997 222.21917000000008,251.36796999999996 222.90899000000007,251.74284999999998 C 223.60052000000007,252.11865999999998 224.99822000000006,252.83697999999998 225.70033000000006,253.17869 C 226.40091000000007,253.51966 227.10792000000006,253.84967999999998 227.82133000000007,254.17469 C 228.54060000000007,254.50236999999998 229.27160000000006,254.82626 230.01432000000008,255.15269 C 230.7702600000001,255.48493000000002 232.33315000000007,256.16705 233.1430000000001,256.52121 C 233.97050000000007,256.88309 234.8130600000001,257.25119 235.67199000000008,257.61469 C 236.5404000000001,257.98221 237.41908000000006,258.34445999999997 238.30900000000008,258.69019 C 239.2004300000001,259.0365 240.99763000000007,259.67413999999997 241.90016000000008,259.95736999999997 C 242.7990200000001,260.23943999999995 243.70384000000007,260.49706999999995 244.61067000000008,260.74935999999997 C 245.5201700000001,261.00240999999994 246.43678000000008,261.24792999999994 247.35716000000008,261.50536999999997 C 248.28613000000007,261.76523 250.16877000000008,262.32692999999995 251.12083000000007,262.6427 C 252.08216000000007,262.96155 253.04040000000006,263.30197 253.99333000000007,263.6507 C 254.93873000000008,263.99667999999997 255.86693000000008,264.34869999999995 256.77585000000005,264.69471 C 257.6602500000001,265.03138 259.33237,265.66935 260.1145,265.95704 C 260.86175000000003,266.23191 261.58362,266.4893 262.28799000000004,266.72804 C 262.97796000000005,266.9619 263.66412,267.18269000000004 264.35348000000005,267.39103 C 265.04946000000007,267.60139 266.49932000000007,268.00266 267.26434000000006,268.2002 C 268.05395000000004,268.40409 268.86706000000004,268.60428 269.69732000000005,268.8107 C 270.54171,269.02063 271.39678000000004,269.23297 272.25634,269.45718 C 273.11944,269.68231 274.83498000000003,270.16131 275.67849,270.42154 C 276.51635,270.68002 277.34408,270.95355 278.16399,271.23602 C 278.98040000000003,271.51727 279.79,271.8089 280.59548,272.10452 C 281.39934,272.39955999999995 282.9999,273.00023999999996 283.79934000000003,273.29967999999997 C 284.59457000000003,273.59756 285.38165000000004,273.89196999999996 286.15731000000005,274.17870999999997 C 286.91631000000007,274.45928999999995 287.65536000000003,274.72983 288.37133000000006,274.98569 C 289.05804000000006,275.23107999999996 290.33211000000006,275.6705 290.91433000000006,275.85688 C 291.46020000000004,276.03162 291.97884000000005,276.18681 292.4773200000001,276.31736 C 292.95693000000006,276.44297 293.4281000000001,276.54914 293.8963300000001,276.63386 C 294.36419000000006,276.71852 295.3329800000001,276.83784 295.8423400000001,276.87870000000004 C 296.3649800000001,276.92060000000004 296.8962600000001,276.94828 297.4293200000001,276.97471 C 297.9583100000001,277.00096 298.47748000000007,277.02265 298.9803500000001,277.05271 C 299.4614900000001,277.08146 300.7141800000001,277.22138 301.3758300000001,277.35269999999997 L 302.1933300000001,277.57471999999996" fill="none" id="svg_5" stroke="#000" stroke-width="2"/>
	<path d="M 257.0,123.0 C 262.05701,124.543 262.80347,124.99238 263.45834,125.54166 C 264.1094,126.08775999999999 265.00402,126.99601999999999 265.59866,127.60132999999999 C 266.19339,128.20671 266.49868,128.50404 267.04284,129.15715999999998 C 267.86355000000003,130.14225 268.31707,130.88197999999997 268.77465,131.61466 C 269.2264,132.338 269.63522,133.07165999999998 270.42116,133.95716 C 270.91872,134.51774999999998 271.5208,134.93714 272.23064,135.68265 C 272.8984,136.38396 273.33059,137.21340999999998 273.57866,137.73865 C 274.10582,138.85474000000002 274.53197,139.50905 274.97066,139.96799000000001 C 275.75112,140.78447000000003 276.25066,141.25066 276.99465000000004,141.99465 C 277.66665000000006,142.66666 278.33895,143.33835000000002 278.88265,143.88265 C 279.48299000000003,144.48365 280.23888,145.10665 280.75716,145.97832000000002 C 281.16799,146.66927 281.85451,147.22959000000003 282.084,147.88666000000003 C 282.41252000000003,148.82727000000003 282.83263,149.54508000000004 283.81465000000003,149.93865000000002 C 284.63331000000005,150.26674000000003 285.39735,150.66974000000002 285.91597,151.28533000000002 C 286.47673000000003,151.95095 286.66307,152.66132000000002 287.54298,153.32149 C 288.25669,153.85698000000002 288.82072,154.21154 289.40266,154.60132000000002 C 290.29872,155.20151 291.19432,155.79119000000003 291.72798,156.23598 C 292.24516,156.66701 293.0695,157.66588000000002 293.45833,158.52082000000001 C 293.71846,159.09278 294.07975999999996,160.30732 294.30897999999996,160.89100000000002 C 294.64248,161.74018 295.30656999999997,162.70127000000002 295.76664999999997,163.02932 C 296.44379999999995,163.51215000000002 297.63081999999997,163.91219 297.95833,164.54166 C 298.43608,165.45986000000002 298.38289,166.28101 298.76164,166.99465 C 299.2437,167.90288 300.06764,168.42844 300.43065,168.96799000000001 C 301.06398,169.90934000000001 300.87065,170.78617000000003 301.22148000000004,171.85715000000002 C 301.43635000000006,172.51314000000002 302.07493000000005,173.33818000000002 302.54164000000003,174.02082000000001 C 302.94905000000006,174.61669 303.76881000000003,175.40484 304.27199,175.82133000000002 C 304.81932,176.27439 305.43068,176.74273000000002 306.30031,177.64300000000003 C 306.92989,178.29476000000003 307.53908,179.04391000000004 307.872,179.42134000000004 C 308.56536,180.20738000000006 309.32635,181.00728000000004 309.74334,181.39999000000003 C 310.60909,182.21536000000003 311.08758,182.60711000000003 311.58333999999996,183.00000000000003 C 312.61166,183.81494000000004 313.16445999999996,184.21304000000003 314.33333999999996,185.00000000000003 C 314.93832,185.40730000000002 315.56976,185.80331000000004 316.20984,186.21350000000004 C 316.86179,186.63130000000004 317.52466,187.05685000000003 318.18532999999996,187.50799000000004 C 318.85576999999995,187.96580000000003 319.54269,188.42478000000003 320.83333999999996,189.49999000000003 C 321.49181999999996,190.04854000000003 322.12008,190.64777000000004 322.74281999999994,191.26249 C 323.36952999999994,191.88113 323.98018999999994,192.51983 324.58931999999993,193.16000000000003 C 325.19652999999994,193.79817000000003 325.7857899999999,194.44600000000003 326.99999999999994,195.66667000000004 C 327.59392999999994,196.26376000000005 328.19936999999993,196.83542000000003 328.80449999999996,197.39917000000003 C 329.40871999999996,197.96210000000002 330.02194,198.51964000000004 330.63597999999996,199.08667000000003 C 331.25825999999995,199.66130000000004 331.89851999999996,200.23991000000004 333.16664999999995,201.50000000000003 C 333.82827,202.15741000000003 334.48738999999995,202.85150000000002 335.15266999999994,203.56700000000004 C 335.82878999999997,204.29414000000003 336.50203999999997,205.03985000000003 337.17463999999995,205.79600000000005 C 337.84934999999996,206.55451000000005 338.51753999999994,207.31732000000005 339.83332999999993,208.83332000000004 C 340.4792299999999,209.57751000000005 341.1133899999999,210.31307000000004 341.7428099999999,211.03382000000005 C 342.3627699999999,211.74372000000005 342.9762399999999,212.44012000000004 343.5893099999999,213.11733000000004 C 344.1926099999999,213.78376000000003 344.7843199999999,214.44205000000005 345.9999899999999,215.66666000000004 C 346.5932199999999,216.26427000000004 347.1986299999999,216.83489000000003 347.80448999999993,217.39466000000004 C 348.40800999999993,217.95223000000004 349.02048999999994,218.50037000000003 349.63596999999993,219.05065000000005 C 350.25681999999995,219.60570000000004 350.89206999999993,220.16062000000005 352.1666399999999,221.33332000000004 C 352.82499999999993,221.93905000000004 353.4863699999999,222.56821000000005 354.1571499999999,223.20983000000004 C 354.83704999999986,223.86019000000005 355.5203699999999,224.52131000000003 356.2106499999999,225.18532000000005 C 356.9040399999999,225.85231000000005 357.5948099999999,226.52428000000003 358.99998999999985,227.83331000000004 C 359.69627999999983,228.48195000000004 360.39628999999985,229.11433000000005 361.0864799999999,229.74281000000005 C 361.7682999999999,230.36366000000004 362.4407599999999,230.97567000000004 363.09199999999987,231.58932000000004 C 363.73170999999985,232.19207000000003 364.36683999999985,232.77706000000003 365.49998999999985,233.99998000000005 C 366.04634999999985,234.58963000000006 366.54902999999985,235.19255000000004 367.01948999999985,235.79548000000005 C 367.47825999999986,236.38345000000007 367.90278999999987,236.97444000000004 368.2959799999999,237.56397000000004 C 368.6790099999999,238.13831000000005 369.04228999999987,238.70507000000003 369.6666499999999,239.83330000000004 C 369.9658699999999,240.37401000000003 370.2340299999999,240.91497000000004 370.5036599999999,241.44281000000004 C 370.77001999999993,241.96429000000003 371.0347599999999,242.48300000000003 371.3226599999999,242.98930000000004 C 371.6127599999999,243.49945000000005 371.90489999999994,244.02407000000005 372.66664999999995,244.99997000000005 C 373.06798999999995,245.51415000000006 373.53258999999997,246.00453000000005 374.01066999999995,246.50447000000005 C 374.49787999999995,247.01396000000005 375.00355999999994,247.51735000000005 375.49864999999994,248.03596000000005 C 375.99290999999994,248.55371000000005 376.5052999999999,249.05332000000004 377.33333999999996,250.16664000000006 C 377.73476999999997,250.70639000000006 378.06994,251.27719000000005 378.37582,251.84813000000005 C 378.67654,252.40946000000005 378.94014999999996,252.97794000000005 379.19331999999997,253.53864000000004 C 379.44178999999997,254.08896000000004 379.65914,254.64069000000003 380.16664999999995,255.66665000000003 C 380.4115499999999,256.16172000000006 380.67819,256.63105 380.95714999999996,257.07664000000005 C 381.2290899999999,257.51103000000006 381.49074999999993,257.9407100000001 382.10448999999994,258.67665000000005 C 382.95946999999995,259.70186000000007 383.29583999999994,259.96184000000005 384.1893299999999,260.74931000000004 C 384.7614699999999,261.25355 385.36373999999995,261.72746000000006 386.07848999999993,262.6428 C 386.5786999999999,263.28339 386.9829699999999,264.01865000000004 387.39550999999994,264.75181000000003 C 387.60056,265.11625000000004 388.39733999999993,266.51197 388.77865999999995,267.14265000000006 L 389.12798999999995,267.71733000000006" fill="none" id="svg_6" stroke="#000" stroke-width="2"/>
	<path d="M 274.0,213.0 C 288.66666,215.16667 289.83173,215.40724 290.91733,215.68933 C 291.94638,215.95673000000002 292.91745,216.25246 293.83335,216.58333000000002 C 294.72022,216.90372000000002 295.57365,217.25582000000003 296.38935,217.65734 C 298.02024,218.46012000000002 298.80476,218.95693 299.60132999999996,219.45467 C 300.40925,219.95952 301.21219999999994,220.49508 302.02085999999997,221.04167999999999 C 302.83756999999997,221.59373 303.65407,222.16092999999998 304.48533999999995,222.71867999999998 C 306.16047999999995,223.84264 307.01930999999996,224.38294 307.8880199999999,224.91732999999996 C 308.7636599999999,225.45597999999995 309.65653999999995,225.98673999999997 310.56251999999995,226.52082999999996 C 311.48182999999995,227.06277999999998 312.42018999999993,227.60752999999997 313.37202999999994,228.16932999999997 C 315.3361699999999,229.32859999999997 316.3439199999999,229.94010999999998 317.3653499999999,230.56799999999998 C 318.39793999999995,231.20277 319.4307799999999,231.84839999999997 320.45836999999995,232.50000999999997 C 321.47878999999995,233.14708999999996 322.48256999999995,233.79129999999998 323.46135999999996,234.43201999999997 C 325.33761,235.66022999999996 326.21602999999993,236.25487999999996 327.06136999999995,236.83200999999997 C 327.88201999999995,237.39227999999997 328.67904999999996,237.94696999999996 329.45836999999995,238.50000999999997 C 330.23103999999995,239.04831999999996 330.99846999999994,239.60249 331.76534999999996,240.16800999999998 C 333.33770999999996,241.32748999999998 334.14419999999996,241.94183999999998 334.97201999999993,242.57201999999998 C 335.8199199999999,243.21748 336.68350999999996,243.88163999999998 337.56253999999996,244.56250999999997 C 338.4582,245.25627999999998 339.36713999999995,245.96504 340.28802999999994,246.68800999999996 C 342.16851999999994,248.16432999999995 343.11999999999995,248.92276999999996 344.0853599999999,249.67999999999995 C 345.0556699999999,250.44110999999995 346.0315299999999,251.19934999999995 347.0208799999999,251.93750999999995 C 348.00625999999994,252.67268999999996 348.9929599999999,253.39301999999995 350.0013799999999,254.06000999999995 C 351.97793999999993,255.36736999999994 352.99420999999995,255.92485999999994 353.99868999999995,256.4613499999999 C 354.99004999999994,256.9907999999999 355.98785999999996,257.4804499999999 356.97918999999996,257.9583599999999 C 357.96252999999996,258.4324199999999 358.94704999999993,258.8877999999999 359.91470999999996,259.3653399999999 C 361.84182999999996,260.3163899999999 362.78302999999994,260.8347899999999 363.71338999999995,261.3706799999999 C 364.6431099999999,261.9061999999999 365.5570799999999,262.4661399999999 366.45838999999995,263.0416699999999 C 367.35709999999995,263.61554999999987 368.24195999999995,264.2037799999999 369.1133899999999,264.80268999999987 C 370.84052999999994,265.9896699999999 371.67878999999994,266.5995999999999 372.5160399999999,267.1973399999999 C 373.3474299999999,267.7909099999999 374.17234999999994,268.3820599999999 375.00004999999993,268.95835999999986 C 375.82307999999995,269.5313899999999 376.64552999999995,270.09681999999987 377.48405999999994,270.6293499999999 C 379.1526999999999,271.68903999999986 380.01655999999997,272.16532999999987 380.8827099999999,272.6266899999999 C 381.7436699999999,273.0853099999999 382.61128999999994,273.5139599999999 383.4792099999999,273.9166699999999 C 384.33537999999993,274.3139199999999 385.1864499999999,274.6857999999999 386.0307199999999,275.0266899999999 C 387.6596599999999,275.68436999999994 388.45591999999994,275.9595799999999 389.22669999999994,276.2320099999999 C 389.9759399999999,276.4968399999999 390.7078399999999,276.7461399999999 391.41669999999993,277.0000199999999 C 392.1078299999999,277.2475499999999 392.7826099999999,277.4911999999999 393.42670999999996,277.7680299999999 C 394.67875,278.3061199999999 395.26203999999996,278.6345199999999 395.8307,278.9693499999999 C 396.39511999999996,279.3016899999999 396.94061999999997,279.6584999999999 397.4792,280.0208599999999 C 398.01668,280.3824899999999 398.5453,280.75614999999993 399.08272,281.1173599999999 C 400.16094,281.8420299999999 400.71822,282.1826699999999 401.28005,282.5120099999999 C 401.83663,282.8382999999999 402.39193,283.1454299999999 402.93755000000004,283.4375199999999 C 403.46532,283.7200199999999 403.97515000000004,283.9826599999999 404.46004000000005,284.2280199999999 C 405.3320800000001,284.6692999999999 405.71401000000003,284.8574799999999 406.06005000000005,285.0293499999999 C 406.37566000000004,285.1861199999999 406.66613000000007,285.3292199999999 406.93755000000004,285.4583699999999 C 407.1928300000001,285.5798299999999 407.43813000000006,285.6935999999999 407.68004,285.7973599999999 C 408.16454000000004,286.0051499999999 408.41966,286.1032399999999 408.68138000000005,286.1946999999999 C 408.9424,286.2859199999999 409.20213000000007,286.3662399999999 409.45839000000007,286.4166799999999 C 409.70119000000005,286.4644699999999 409.93691000000007,286.5008799999999 410.14537000000007,286.45869999999985 C 410.5140800000001,286.3841199999998 410.6545900000001,286.22450999999984 410.7373800000001,286.05336999999986 C 410.8294800000001,285.8629999999999 410.8557300000001,285.6125099999999 410.83339000000007,285.33336999999983 C 410.8076000000001,285.0111999999998 410.7196200000001,284.64662999999985 410.5693800000001,284.25334999999984 C 410.2110100000001,283.31520999999987 409.9016200000001,282.80778999999984 409.5667200000001,282.2560399999998 C 409.2023700000001,281.6557599999998 408.7754300000001,281.02831999999984 408.2917000000001,280.3750299999998 C 407.7759200000001,279.6784399999998 407.2040500000001,278.9571799999998 406.5667200000001,278.2240299999998 C 405.1928500000001,276.6435599999998 404.3988700000001,275.8508599999998 403.57337000000007,275.0306999999998 C 402.72071000000005,274.1835599999998 401.82450000000006,273.3338599999998 400.8958800000001,272.4791899999998 C 399.9512100000001,271.6097399999998 398.9820900000001,270.74297999999976 397.9933800000001,269.8826899999998 C 396.00913000000014,268.1561899999998 395.0029900000001,267.3182999999998 394.0000300000001,266.4880399999998 C 393.0029600000001,265.6626599999998 392.0036900000001,264.8527299999998 391.0000300000001,264.0625299999998 C 390.0036600000001,263.2780799999998 389.0066800000001,262.5098899999998 388.0000300000001,261.7720299999998 C 386.0129700000001,260.3155499999998 385.0039400000001,259.6378399999998 384.0026900000001,258.9720099999998 C 383.0125500000001,258.31355999999977 382.0233500000001,257.6795599999998 381.0416900000001,257.0625299999998 C 380.07398000000006,256.45424999999983 379.1148400000001,255.8653699999998 378.1706900000001,255.28801999999982 C 376.3343600000001,254.16510999999983 375.4428500000001,253.62254999999982 374.57337000000007,253.0866999999998 C 373.72285000000005,252.5625299999998 372.8928000000001,252.04760999999982 372.0833800000001,251.54169999999982 C 371.29282000000006,251.04758999999981 370.5224400000001,250.56316999999981 369.7733800000001,250.0866999999998 C 368.3315500000001,249.16955999999982 367.6429500000001,248.7218199999998 366.9707100000001,248.2866999999998 C 366.3142800000001,247.8618199999998 365.6720300000001,247.4466999999998 365.04169000000013,247.0416999999998 L 364.4213600000001,246.64669999999978 L 363.8090200000001,246.2617099999998 L 363.2027000000001,245.8867099999998" fill="none" id="svg_7" stroke="#000" stroke-width="2"/>
</svg>
