<?xml version="1.0" ?>
<svg baseProfile="full" height="480" version="1.1" width="640" xmlns="http://www.w3.org/2000/svg" xmlns:ev="http://www.w3.org/2001/xml-events" xmlns:xlink="http://www.w3.org/1999/xlink">
	<defs/>
	<path d="M 271.0,133.0 C 270.55334,129.66133 270.125,129.10548 269.34732,128.35184 C 268.83295000000004,127.85337000000001 267.92367,127.39732000000001 267.20132,126.83200000000001 C 266.47222,126.26138 266.31448,125.58353000000001 265.79867,124.60000000000001 C 265.37582000000003,123.79370000000002 264.85046,122.9856 264.34732,122.40450000000001 C 263.84213,121.82104000000001 263.02133000000003,121.02133 262.5,120.50000000000001 C 261.83334,119.83334000000002 261.15518,119.16141000000002 260.78934,118.75333000000002 C 259.98014,117.85076000000002 259.58103,117.33213000000002 259.04166,116.52083000000002 C 258.55062999999996,115.78227000000001 258.26840999999996,114.70249000000001 257.66666,113.99999000000001 C 257.23575,113.49692000000002 256.14295,113.02965000000002 255.63600999999997,112.59999 C 254.86105999999998,111.94318000000001 254.38025999999996,111.3764 253.51600999999997,110.79866000000001 C 252.83756999999997,110.34512000000001 252.02494999999996,109.67590000000001 251.62533999999997,109.18533000000001 C 251.12052999999997,108.56561 250.15246999999997,108.06614 249.53832999999997,107.95183 C 248.31551999999996,107.72423 247.76922999999996,107.60665 247.00982999999997,107.2955 C 245.94341999999997,106.85855000000001 245.28225999999995,106.25177000000001 244.51466999999997,105.80133000000001 C 243.81422999999998,105.39030000000001 242.79593999999997,105.146 242.02082999999996,105.00000000000001 C 241.01481999999996,104.81050000000002 240.40816999999996,104.32430000000001 239.51466999999997,104.08400000000002 C 238.61728999999997,103.84267000000001 237.80163999999996,103.77330000000002 236.97917999999996,103.50000000000001 C 236.31608999999995,103.27966000000002 235.31907999999996,103.05410000000002 234.26134999999996,103.01067000000002 C 233.33405999999997,102.97259000000003 232.52083999999996,103.00000000000001 231.51467999999997,103.00000000000001 C 230.78934999999996,103.00000000000001 229.80018999999996,103.00000000000001 229.02083999999996,103.00000000000001 C 228.02133999999995,103.00000000000001 227.24733999999995,103.00000000000001 226.34284999999997,103.00000000000001 C 225.59551999999996,103.00000000000001 224.60001999999997,103.00000000000001 223.80001999999996,103.00000000000001 C 222.80001999999996,103.00000000000001 222.00001999999995,103.00000000000001 221.00001999999995,103.00000000000001 C 220.02084999999994,103.00000000000001 219.16094999999996,102.93230000000001 218.33868999999996,103.03600000000002 C 217.44511999999995,103.14869000000002 216.73510999999996,103.39943000000001 216.00535999999997,103.70450000000001 C 214.94744999999998,104.14675000000001 214.21095999999997,104.73800000000001 213.36401999999995,105.02533000000001 C 212.52490999999995,105.31000000000002 211.68835999999996,105.52950000000001 211.16801999999996,106.48400000000001 C 210.82125999999997,107.12008000000002 210.56921999999994,107.99233000000001 209.97918999999996,108.50000000000001 C 209.18249999999995,109.18549000000002 208.72259999999997,109.88596000000001 208.20135999999997,110.43066000000002 C 207.50085999999996,111.16269000000001 206.68106999999998,111.70375000000001 206.30001999999996,112.40899000000002 C 205.87856999999997,113.18903000000002 205.49203999999997,114.02805000000002 205.11468999999997,114.68533000000002 C 204.53552999999997,115.69411000000002 204.18881999999996,116.22437000000002 203.65267999999998,116.99016000000002 C 203.03768999999997,117.86859000000001 202.43036999999998,118.43224000000002 202.12118999999998,119.32133000000002 C 201.89344999999997,119.97622000000001 201.56921999999997,120.99233000000002 200.97919,121.50000000000001 C 200.18249999999998,122.18549000000002 199.58259999999999,122.79554000000002 199.28669,123.51600000000002 C 198.94956,124.33682000000002 198.59115,125.12730000000002 198.16669,126.00000000000001 C 197.80001,126.75391000000002 197.45821999999998,127.48029000000001 196.80134999999999,128.20000000000002 C 196.26787,128.7845 196.04154999999997,129.63694 195.99552,130.65267000000003 C 195.96398,131.34862000000004 195.65098,132.24981000000002 195.00002,133.00001000000003 C 194.44291,133.64205000000004 194.25283000000002,134.53030000000004 193.94735,135.29017000000005 C 193.63664,136.06306000000004 192.43093,136.33552000000006 192.12153,137.10001000000005 C 191.78083,137.94184000000004 192.02726,138.80042000000006 192.00002,139.70000000000005 C 191.97143,140.64414000000005 191.2372,140.95844000000005 190.34736,141.00450000000004 C 189.48141,141.04933000000003 188.65045,141.47301000000004 187.83335,142.00000000000003 C 187.18262,142.41969000000003 186.4134,142.79245000000003 185.40452,142.94284000000002 C 184.66351999999998,143.0533 183.73587999999998,142.93693000000002 182.6667,143.16667 C 181.97958,143.31431 181.20691,143.59035 180.1667,144.0 C 179.45157999999998,144.28163 178.83159,144.64128 177.80003,144.87866 C 177.01148999999998,145.06011999999998 175.99714,145.1578 175.18936,145.42534 C 174.54046,145.64024 173.5798,145.88841 172.7747,145.97467 C 171.9537,146.06264000000002 170.91932,146.21434 170.02085,146.5 C 168.99746,146.82538 168.39666,146.96709 167.54285,146.9955 C 166.57935999999998,147.02756 165.77285999999998,146.90981 164.76934999999997,147.08533 C 163.79246999999998,147.25618 162.97372999999996,147.76245 162.30001999999996,148.05268 C 161.45821999999995,148.41531 160.42425999999995,148.7046 160.03600999999995,149.43601 C 159.63064999999995,150.19967 160.23475999999994,151.25506000000001 160.76168999999996,151.70000000000002 C 161.59002999999996,152.39948 162.25463999999997,152.62244 163.16668999999996,153.16667 C 163.96885999999995,153.64534 164.53802999999996,154.02681 165.16168999999996,154.40449 C 166.16092999999995,155.00962 166.88644999999997,155.39698 167.62535999999997,155.81066 C 168.37717999999998,156.23157 169.13015,156.66491000000002 169.83334999999997,157.16666 C 170.53061999999997,157.66417 171.17106999999996,158.22963000000001 171.82534999999996,158.77466 C 172.48040999999995,159.32033 173.51018999999997,160.09654 174.25268999999994,160.53832 C 174.98940999999994,160.97666 175.36672999999993,161.17019 176.11601999999993,161.51333 C 177.50068999999993,162.14747 178.16905999999994,162.36244 178.78935999999993,162.62533 C 180.01040999999992,163.14282 180.60145999999992,163.48148999999998 181.20001999999994,163.82532999999998 C 182.10219999999993,164.34357999999997 182.99586999999994,164.84229999999997 183.59868999999995,165.11598999999998 C 184.47336999999996,165.51309999999998 185.34021999999996,165.84215999999998 186.07836999999995,166.32116 C 186.77978999999996,166.77631 187.47655999999995,167.49824999999998 188.38535999999996,167.94933 C 189.30152999999996,168.40407 190.01084999999998,168.70128 190.50002999999995,169.02082000000001 C 191.24053999999995,169.50452 192.12356999999994,170.33153000000001 192.79735999999994,170.71332 C 193.54660999999993,171.13787000000002 194.35036999999994,171.51743000000002 195.20001999999994,171.91599000000002 C 196.06044999999995,172.3196 196.65631999999994,172.79854000000003 197.60002999999995,172.98932000000002 C 198.46231999999995,173.16364000000002 199.05269999999996,173.64732 199.70451999999995,173.99548000000001 L 200.60002999999995,173.99998000000002" fill="none" id="svg_1" stroke="#000" stroke-width="2"/>
	<path d="M 193.0,146.0 C 197.62134,146.0005 198.55397,145.99272 199.5,146.0625 C 199.97556,146.09758 200.94278,146.17548 202.27867,146.66434 C 202.72658,146.82825 203.57892,147.29015 204.42534,147.79601000000002 C 204.85486,148.05271000000002 206.16240000000002,148.84144000000003 206.62134,149.07834000000003 C 207.54436,149.55480000000003 208.01877000000002,149.76929 208.97467,150.15334000000001 C 209.90984,150.52906000000002 210.83163,150.83866 211.71333,151.116 C 212.55175000000003,151.37973000000002 213.36165000000003,151.6021 214.11332000000002,151.88401000000002 C 215.19160000000002,152.28840000000002 215.84733000000003,152.65267000000003 216.49999000000003,153.00001000000003 C 217.15265000000002,153.34735000000003 218.15940000000003,153.85258000000005 218.88265,154.11468000000002 C 219.96903,154.50837 220.69848000000002,154.67001000000002 221.66666,155.00001000000003 C 222.48424,155.27868000000004 223.53867,155.52671000000004 223.92798000000002,156.40000000000003 C 224.25665,157.13727000000003 224.01973,158.05628000000004 223.99599,159.05468000000005 C 223.9807,159.69776000000005 224.04410000000001,160.44642000000005 223.49999,161.83334000000005 C 223.21923,162.54898000000006 222.7094,163.17903000000004 222.16799,163.78935000000004 C 221.61338,164.41455000000005 221.00199,165.00203000000005 220.39998,165.59868000000003 C 219.80197,166.19136000000003 219.21054,166.77574000000004 218.59999,167.31468000000004 C 217.71527,168.09562000000003 217.11233,168.54294000000004 216.27199,169.15335000000005 C 215.77263,169.51608000000004 214.81431999999998,170.24284000000006 214.20264999999998,170.79867000000004 L 213.49997999999997,171.50001000000003" fill="none" id="svg_2" stroke="#000" stroke-width="2"/>
	<path d="M 174.0,154.0 C 179.50034,154.87866 180.50894,154.94864 181.02133,154.97467 C 182.07187000000002,155.02803 182.6158,155.03247 184.33333000000002,155.16667 C 184.94327,155.21432000000001 185.56850000000003,155.28103000000002 186.20534,155.35716000000002 C 187.50109,155.51207000000002 188.14965,155.60861000000003 188.79466,155.70450000000002 C 189.43231,155.79929 191.25710999999998,156.09842000000003 191.828,156.20000000000002 C 192.38144,156.29846 193.43831,156.49597000000003 194.43383,156.70000000000002 C 194.91239,156.79807000000002 196.27814,157.09989000000002 197.13383,157.2955 C 197.93748,157.47922 198.68115999999998,157.64284 199.66666999999998,157.83333000000002 L 200.48566999999997,157.95183000000003 L 201.39099999999996,158.10983000000002" fill="none" id="svg_3" stroke="#000" stroke-width="2"/>
	<path d="M 237.0,136.0 C 239.815,135.2955 239.15776,134.76384 238.4375,134.52083 C 237.60953,134.24147 236.40233,134.0716 235.81067,134.036 C 234.95812999999998,133.9847 233.92148999999998,134.0 233.02083,134.0 C 232.0,134.0 231.21000999999998,133.96301 230.16666999999998,134.0 C 229.36013999999997,134.02859 229.00225999999998,134.76166 228.99999999999997,135.66167 C 228.99799999999996,136.46167 229.00016999999997,137.42101 229.01066999999998,138.20399999999998 L 229.08532999999997,139.14534999999998 L 229.46800999999996,139.90266999999997" fill="none" id="svg_4" stroke="#000" stroke-width="2"/>
	<path d="M 231.0,140.0 C 235.228,145.48801 235.92941,145.96724 236.83333,146.0 C 237.69682,146.0313 238.52722,145.58095 238.83333,144.5 C 238.98606999999998,143.9606 238.98584,142.95845 238.9955,142.24367 C 239.01005999999998,141.16677 239.0,140.15717 239.0,139.52083000000002 C 239.0,138.60134000000002 239.0,137.70017 239.0,136.81067000000002 C 239.0,135.95717000000002 238.99983,134.92149 238.97917,134.02083000000002 L 238.83333000000002,133.00000000000003 L 238.63834000000003,132.40450000000004 L 238.23833000000002,131.65717000000004" fill="none" id="svg_5" stroke="#000" stroke-width="2"/>
	<path d="M 274.0,134.0 C 280.06,137.66 280.66367,137.88066 281.43918,138.03917 C 282.41788,138.23921 283.23236,138.41541 284.04733000000004,138.70450000000002 C 285.08828000000005,139.07376000000002 285.75866,139.43712000000002 286.45266000000004,139.64284000000004 C 287.66067000000004,140.00092000000004 288.4884,139.93959000000004 289.23064000000005,140.08400000000003 C 290.2087000000001,140.27429000000004 290.86730000000006,140.78209000000004 291.8466700000001,140.97467000000003 C 292.45495000000005,141.09427000000002 293.6872200000001,141.27016000000003 294.21465000000006,141.43600000000004 C 294.99755000000005,141.68217000000004 295.9831700000001,142.28660000000002 296.74816000000004,142.64283000000003 C 297.61977,143.04871000000003 298.46166000000005,142.99773000000002 299.42132000000004,142.99999000000003 C 300.22534,143.00188000000003 301.04733000000004,142.99999000000003 302.07867000000005,142.99999000000003 C 303.00000000000006,142.99999000000003 303.68405000000007,142.98922000000002 304.68667000000005,143.00132000000002 C 305.5418,143.01163000000003 306.16693000000004,143.01812 307.52133000000003,143.22132000000002 C 308.25613000000004,143.33156000000002 308.99820000000005,143.50936000000002 309.74734,143.64733 C 310.83093,143.8469 311.84307,143.94462000000001 312.47915,143.99999 C 313.39901000000003,144.08008 314.30764,144.19132 315.18932,144.43599 C 316.05147,144.67526 317.07149,145.11839 317.78533,145.38931 C 318.50295,145.66165999999998 319.64239,145.8829 320.30984,145.95181 C 321.02041,146.02517 321.78216000000003,145.99955 323.17868,146.44298 C 323.86645,146.66136 324.50281,147.03675 325.15268,147.40898 C 326.17107999999996,147.99231 326.88275,148.40486 327.63599,148.79999 C 328.40805,149.205 329.20121,149.60025000000002 330.0,149.99999 C 330.79987,150.40024 331.60001,150.79999 332.39999,151.19998999999999 C 332.79998,151.39998999999997 334.0,151.99999 334.79998,152.39998999999997 C 335.6,152.79999999999998 336.39999,153.19998999999999 336.79998,153.39998999999997 C 337.99999,153.99999999999997 338.79998,154.39998999999997 339.6,154.79999999999998 C 340.39999,155.19998999999999 340.80038,155.39917999999997 341.99999,155.99999999999997 C 342.80025,156.40079999999998 343.60164000000003,156.80755999999997 343.99999,157.02082999999996 C 344.80333,157.45092999999997 346.00567,158.15803999999997 346.79998,158.68533999999997 C 347.20293,158.95282999999998 348.00234,159.51761999999997 348.79998,160.10450999999998 C 349.20119,160.39971999999997 350.3987,161.30181 350.80132000000003,161.59866999999997 C 351.60775,162.19328999999996 352.43029,162.77284999999998 352.85717000000005,163.04283999999998 C 354.14989,163.86043999999998 354.61773000000005,164.08547 355.5481500000001,164.54734 C 356.01299000000006,164.7781 356.9437200000001,165.21554999999998 357.3901600000001,165.45266999999998 C 358.6818800000001,166.13871999999998 359.4450000000001,166.666 360.1279800000001,167.236 C 360.7944800000001,167.79224 361.0938600000001,168.10162 361.9999900000001,169.00001 C 362.6032300000001,169.59809 363.20504000000005,170.20591000000002 363.8359900000001,170.80001000000001 C 364.4796400000001,171.40607000000003 365.1621900000001,172.00536000000002 365.8853400000001,172.60134000000002 C 366.6314300000001,173.21624000000003 367.0237100000001,173.51733000000002 367.8045000000001,174.15717 C 368.2027800000001,174.48356 369.40368000000007,175.51767 369.79998000000006,175.88668 C 370.60757000000007,176.63862 371.00738000000007,177.03454000000002 371.79998000000006,177.86167 C 372.2037900000001,178.28307 373.00756000000007,179.16016 373.7986700000001,180.08533 C 374.19934000000006,180.5539 374.59774000000004,181.02936 375.36401000000006,182.01067 C 375.74707000000006,182.50122000000002 376.1275300000001,182.99218 376.8333400000001,184.0 C 377.5274600000001,184.99117 377.8458800000001,185.49806 378.1640000000001,186.0 C 378.7953800000001,186.99619 379.0973200000001,187.49889 380.0000000000001,189.0 C 380.3004500000001,189.49963 380.6027800000001,189.99759 381.1893300000001,191.0 C 381.4812000000001,191.49881 381.7764900000001,191.99323 382.3146700000001,193.0 C 382.8457400000001,193.99347 383.3206800000001,195.00002 383.5428500000001,195.509 C 383.9913400000001,196.53644 384.1961700000001,197.06946 384.3955100000001,197.61433 C 385.02158000000014,199.32559 385.2015700000001,199.94254999999998 385.4013400000001,200.57066 C 385.6059300000001,201.21388000000002 385.80677000000014,201.87323 386.2360000000001,203.22133 C 386.4551500000001,203.90964 386.6736200000001,204.60675 387.1666600000001,206.0 C 387.4151000000001,206.7021 387.6821900000001,207.39967 387.9436700000001,208.10001 C 388.2048700000001,208.79969 388.4646400000001,209.49784 388.7026700000001,210.2 C 388.93927000000014,210.89791 389.2216800000001,211.58362 389.63584000000014,213.7 C 389.7719500000001,214.39552999999998 389.8424400000001,215.09948999999997 389.9133400000001,215.80001 C 389.9841100000001,216.49952 390.0317500000001,217.20076999999998 390.1008400000001,217.89999999999998 C 390.3085400000001,220.00259999999997 390.4361100000001,220.70125 390.5693500000001,221.39999999999998 C 390.7030800000001,222.10133999999996 390.8589900000001,222.80056 391.0208600000001,223.50000999999997 C 391.1830000000001,224.20055999999997 391.3575000000001,224.89869 391.5173500000001,225.60001999999997 C 391.9952200000001,227.69655999999998 392.1187000000001,228.40174999999996 392.23836000000006,229.10900999999998 C 392.35872000000006,229.82046999999997 392.46398000000005,230.54099 392.55336000000005,231.27202 C 392.6440600000001,232.01367 392.72972000000004,232.7695 392.83336,234.33335 C 392.88698000000005,235.14251 392.91838,235.97057 392.94286000000005,236.81435 C 392.96776000000006,237.67191 392.98119,238.54167999999999 392.98934,239.42136 C 392.99758,240.30901 392.99935000000005,241.20269 393.00002,243.00002 C 393.00036,243.90001 393.00002,244.80002000000002 393.00002,245.70002 C 393.00002,246.60003 393.00002,247.50002 393.00002,248.40001999999998 C 393.00002,249.30003 393.00002,250.20002 393.00002,252.00002999999998 C 393.00002,252.90001999999998 393.00002,253.80003 393.00002,254.70002999999997 C 393.00002,255.60003999999998 393.00002,256.50003 393.00002,257.40002999999996 C 393.00002,258.30001999999996 393.00002,259.20005 393.00002,261.00003999999996 C 393.00002,261.90021999999993 393.00002,262.80136999999996 393.00002,263.70453999999995 C 393.00002,264.61069999999995 393.00002,265.52088999999995 393.00002,266.43604999999997 C 393.00002,267.35722 393.00002,268.28538 393.00002,270.1667 C 393.00002,271.12172 393.00002,272.08671 393.00002,273.06172 C 393.00002,274.04670999999996 393.00002,275.0417 393.00002,276.04670999999996 C 393.00002,277.06172 393.00002,278.08671999999996 393.00002,280.16670999999997 C 393.00002,281.22139999999996 393.00002,282.28405 393.00002,283.35270999999995 C 393.00002,284.42536999999993 393.00002,285.50004999999993 393.00002,286.57472999999993 L 393.00002,287.6473899999999 L 393.00002,288.71604999999994" fill="none" id="svg_6" stroke="#000" stroke-width="2"/>
	<path d="M 201.0,193.0 C 201.87917,197.62151 201.94231,198.5593 202.0625,199.52083 C 202.12389,200.01192999999998 202.27727,201.02408 202.66667,202.0 C 203.07690000000002,203.02811 203.41696000000002,203.50757 203.744,204.0 C 204.4189,205.01619 204.81491,205.50241 205.20533,206.0 C 205.9938,207.0049 206.8,208.0 207.19999,208.5 C 207.60000000000002,209.0 207.99999000000003,209.5 208.8,210.5 C 209.19999,211.0 209.99951000000001,212.0004 210.39999,212.49983 C 211.19902,213.49627 211.59802,213.99095 212.0,214.47917 C 212.7961,215.44607000000002 213.19287,215.92093 214.0,216.83333000000002 C 214.39685,217.28194000000002 215.20743,218.15335000000002 215.62134,218.58533000000003 C 216.04009,219.02236000000002 216.9137,219.91048000000004 217.37067,220.36934000000002 C 218.33199,221.33467000000002 218.84313999999998,221.84236 219.368,222.36934000000002 C 219.90583,222.90935000000002 220.45192,223.46011000000001 221.0,224.02083000000002 C 221.55058,224.58411 222.09814,225.14856000000003 222.632,225.71733 C 223.67350000000002,226.82695 224.63208,227.91344 225.09016,228.44284 C 225.54007,228.9628 225.97824,229.47995999999998 226.41467,229.98933 C 227.28082,231.00024 228.16424,232.00222 228.6215,232.5 C 229.08288,233.00226 229.55496,233.50211 230.03599,234.0 C 231.00625,235.00427 231.50387,235.50063 232.00132,236.0 C 232.99873,237.00125 233.49999,237.5 233.99999,238.0 C 234.49999,238.5 234.99999,239.0 235.99999,240.0 C 236.49999,240.5 236.99991,241.00008 237.99999,242.0 C 238.50011,242.50005 239.00057,243.00075 239.50449,243.5 C 240.00991,244.00075 241.03432,245.00174 241.55715,245.5 C 242.08365,246.00175 243.16442,247.0025 243.72149000000002,247.49983 C 244.28309000000002,248.0012 244.85493000000002,248.49812 245.436,248.98933 C 246.01860000000002,249.48182 246.60836,249.96687 247.20449000000002,250.44284 C 247.79903000000002,250.91754 248.99604000000002,251.83871 249.60017000000002,252.27832999999998 C 250.79676,253.14907 251.40760000000003,253.55795999999998 252.02082000000001,253.95832 C 252.63297000000003,254.35798 253.25230000000002,254.74659999999997 253.88532,255.11332 C 255.15709,255.85008 255.81914,256.18249 256.48266,256.51466999999997 C 257.14617,256.84684999999996 257.81405,257.16526999999996 259.13867,257.78932999999995 C 259.78985,258.0961199999999 260.43594,258.38795999999996 261.66665,258.99998999999997 C 262.25958,259.29485 262.83386,259.59182 263.928,260.2 C 264.46056,260.49602 264.98076,260.79643999999996 265.99734,261.39997999999997 C 267.00207,261.99650999999994 267.49737,262.30454999999995 268.50448,262.89549 C 269.0093,263.19169 270.03378,263.76817 270.55715,264.04283 C 271.08311999999995,264.31886 272.71923,265.0843 273.28664,265.31331 C 273.85924,265.54439 274.44088,265.77104 275.64666,266.15331 C 276.25884,266.3474 276.88158,266.53425999999996 278.16665,266.83333 C 279.47918,267.13878 280.15283,267.25104999999996 280.82534,267.38533 C 281.50014,267.52007000000003 282.17778999999996,267.64775000000003 282.84731,267.80983000000003 C 284.84353,268.29305000000005 285.48082,268.53569000000005 286.11333,268.76799000000005 C 286.74089000000004,268.9984600000001 287.35414000000003,269.24870000000004 288.55333,269.74931000000004 C 289.13872000000003,269.99369 289.70366,270.25776 290.83333,270.66664000000003 C 291.90734,271.05537000000004 292.44512,271.19832 293.49998999999997,271.47914000000003 C 294.02425,271.61870000000005 295.08687,271.87190000000004 296.16664999999995,272.16664000000003 C 297.28844999999995,272.47285000000005 297.8571099999999,272.65291 298.4359999999999,272.82533 C 299.61049999999994,273.17515000000003 300.2031199999999,273.35228 300.8013299999999,273.51597 C 301.9973099999999,273.84326999999996 303.2005599999999,274.11825999999996 303.8044999999999,274.24280999999996 C 304.4099399999999,274.36765999999994 305.6356499999999,274.59131999999994 306.2571699999999,274.69548 C 306.8850099999999,274.80069999999995 308.1665599999999,275.00066 308.82116999999994,275.09999 C 310.1479499999999,275.30131 310.81472999999994,275.39961 311.4791599999999,275.49998 C 312.1387399999999,275.59962 312.7915999999999,275.69123 314.6666599999999,275.99998 C 315.25729999999993,276.09724 316.38159999999993,276.29777 316.91732999999994,276.39997 C 317.9434799999999,276.59574 318.43557999999996,276.69205 319.83334999999994,276.99998 C 320.71847999999994,277.19496 321.15133999999995,277.3021 322.02084999999994,277.49998 C 322.90933999999993,277.70219 324.33291999999994,278.00215 324.84283999999997,278.09999 C 325.90896999999995,278.30451999999997 326.46124999999995,278.40049999999997 327.02084999999994,278.49998 C 328.15164999999996,278.70103 328.71820999999994,278.79521 330.3785199999999,279.09999 C 330.91495999999995,279.19847 331.9641199999999,279.39931 332.4791699999999,279.49998 C 333.4957699999999,279.69867999999997 333.9984599999999,279.8011 335.4998599999999,280.0998 C 335.99860999999987,280.19901000000004 336.9881099999999,280.39622 337.9639999999999,280.56397000000004 C 338.4422699999999,280.64618 339.8323799999999,280.84440000000006 340.71600999999987,280.91596000000004 C 341.5738899999999,280.98542000000003 342.42566999999985,281.02048 342.8526699999999,281.05265 C 344.1678899999999,281.15177000000006 345.08542999999986,281.27677000000006 346.02533999999986,281.43598000000003 C 346.5007699999999,281.51652 347.44888999999984,281.69724 348.8333499999999,281.99998000000005 C 349.2791799999999,282.0974800000001 350.1453299999999,282.30509000000006 351.00000999999986,282.47914000000003 C 351.8507799999999,282.65239 353.16602999999986,282.84022000000004 353.62149999999986,282.87849000000006 C 354.55609999999984,282.9570100000001 355.52078999999986,282.9819100000001 356.01068999999984,282.98930000000007 C 357.0012899999998,283.00425000000007 358.50000999999986,282.99998000000005 359.00000999999986,282.99998000000005 C 360.00000999999986,282.99998000000005 360.50000999999986,282.99998000000005 361.50000999999986,282.99998000000005 C 363.00000999999986,282.99998000000005 363.5001599999999,282.99998000000005 364.50449999999984,282.99998000000005 C 365.0106999999998,282.99998000000005 366.03601999999984,282.99998000000005 366.5571699999998,282.99998000000005 C 368.16666999999984,282.99998000000005 368.7213499999998,282.99998000000005 369.8526699999998,282.99998000000005 C 370.4253299999998,282.99998000000005 371.5746899999998,282.99998000000005 372.14734999999985,282.99998000000005 C 372.71600999999987,282.99998000000005 374.37851999999987,282.99998000000005 374.91467999999986,282.99998000000005 C 375.9639999999999,282.99998000000005 376.47915999999987,282.99998000000005 377.4955199999999,282.99998000000005 C 379.00000999999986,282.99998000000005 379.50000999999986,282.99998000000005 380.50000999999986,282.99998000000005 C 381.00000999999986,282.99998000000005 382.00000999999986,282.99998000000005 383.00000999999986,282.99998000000005 C 384.00000999999986,282.99998000000005 385.0013499999999,282.99998000000005 385.50449999999984,282.99998000000005 C 386.52085999999986,282.99998000000005 387.03601999999984,282.99998000000005 388.08533999999986,282.99998000000005 C 389.16666999999984,282.99998000000005 390.28665999999987,282.99998000000005 390.86167999999986,282.99998000000005 C 392.04166999999984,282.99998000000005 392.6466799999999,282.99998000000005 393.26166999999987,282.99998000000005 C 393.88666999999987,282.99998000000005 395.8215099999999,282.99998000000005 396.48532999999986,282.99998000000005 C 397.15716999999984,282.99998000000005 397.8360099999999,282.99998000000005 398.5208499999999,282.99998000000005 L 399.9045199999999,282.99998000000005 L 400.6013299999999,282.99998000000005" fill="none" id="svg_7" stroke="#000" stroke-width="2"/>
	<path d="M 272.0,187.0 C 273.76501,196.01416 274.04306,196.66924 274.38501,197.27582999999998 C 274.72348,197.87627999999998 275.11325000000005,198.44646999999998 275.54001,198.99333 C 275.97327,199.54852 277.49555,201.17125 278.06452,201.72133 C 278.65143,202.28876 279.26804000000004,202.85654 279.908,203.42534 C 280.559,204.00397 281.2292,204.57803 281.91352,205.14734 C 282.6012,205.71941 283.99738,206.83672 284.70017,207.37833 C 285.39875,207.91671 286.10142,208.44258 286.81067,208.95334 C 287.51779,209.46257 288.23261,209.95842 288.95715,210.43834 C 289.68197000000004,210.91844 291.16293,211.83969000000002 291.92233,212.2785 C 292.68829,212.72111 293.4758,213.15036 294.28933,213.56399000000002 C 295.12112,213.98690000000002 295.98702000000003,214.39744000000002 296.89031,214.7955 C 297.82433,215.20709 299.83074,216.00706 300.907,216.39982 C 302.02000999999996,216.80598 303.17082,217.19995 304.34798,217.58933000000002 C 305.54015,217.98368000000002 306.74459,218.36632000000003 307.95098,218.74282000000002 C 309.14992,219.11700000000002 311.49966,219.83445000000003 312.63582,220.17832 C 313.74632,220.51443 314.83653000000004,220.84162 315.91332,221.15333 C 316.9782,221.46159 318.03859,221.7586 319.10082,222.03832 C 320.16527,222.31862 322.33193,222.8398 323.44283,223.07833 C 324.56792,223.31991 325.70882,223.54385 326.86132000000003,223.75332 C 328.01983,223.96388 329.18456000000003,224.15814 330.35183,224.33833 C 331.51659,224.51814000000002 333.83279,224.83786 334.97881,224.97833 C 336.11678,225.11783 337.25133,225.24338 338.38533,225.35333 C 339.52034000000003,225.46338 340.66093,225.55867 341.80983000000003,225.63833 C 342.96895,225.71871 345.33318,225.83804 346.5425,225.87849 C 347.7665,225.91943 349.00075000000004,225.94583 350.23998,225.964 C 351.47912,225.98216 352.71334,225.99081 353.93749,225.99549 C 355.14666,226.00012999999998 357.49999,225.99999 358.63534000000004,225.99999 C 359.74267000000003,225.99999 360.82400000000007,225.99999 361.88134,225.99999 C 362.91665,225.99999 363.932,225.99999 364.92931000000004,225.99999 C 365.91066000000006,225.99999 367.83333000000005,225.99999 368.77816000000007,225.99999 C 369.71200000000005,225.99999 370.6338100000001,225.99999 371.54266000000007,225.99999 C 372.43750000000006,225.99999 373.31732000000005,225.99999 374.18115000000006,225.99999 C 375.02801000000005,225.99999 376.66665000000006,225.99999 377.45651000000004,225.99999 C 378.22534,225.99999 378.97217000000006,225.99999 379.69601000000006,225.99999 C 380.3958400000001,225.99999 381.07067000000006,225.99999 381.71951000000007,225.99999 C 382.34134000000006,225.99999 383.50000000000006,225.99999 384.0353400000001,225.99999 C 384.54266000000007,225.99999 385.0239900000001,225.99999 385.4813200000001,225.99999 C 385.9166500000001,225.99999 386.3320000000001,225.99999 386.7293400000001,225.99999 C 387.1106600000001,225.99999 387.8333400000001,225.99999 388.1783500000001,225.99999 C 388.5133400000001,225.99999 388.8383500000001,225.99999 389.1533300000001,225.99999 C 389.4583500000001,225.99999 389.7533400000001,225.99999 390.0383400000001,225.99999 L 390.3133300000001,225.99999" fill="none" id="svg_8" stroke="#000" stroke-width="2"/>
</svg>
