<?xml version="1.0" ?>
<svg baseProfile="full" height="480" version="1.1" width="640" xmlns="http://www.w3.org/2000/svg" xmlns:ev="http://www.w3.org/2001/xml-events" xmlns:xlink="http://www.w3.org/1999/xlink">
	<defs/>
	<path d="M 226.0,205.0 C 229.028,199.856 229.39934,199.33952 229.71201,198.40401 C 230.04061,197.42083 229.98785999999998,196.73931 230.33333,195.83333 C 230.64171,195.02461 231.21043999999998,194.29285 231.66666999999998,193.33333 C 231.98224,192.66968 232.14919999999998,191.66146999999998 232.35716,190.99465999999998 C 232.59117,190.24430999999998 233.07488999999998,189.12537999999998 233.52083,188.49999999999997 C 234.13294,187.64158999999998 234.66886,186.99810999999997 234.97916999999998,186.45832999999996 C 235.46371,185.61549999999997 235.78746999999998,184.70605999999995 235.93865999999997,183.82133999999996 C 236.07583999999997,183.01857999999996 236.31867999999997,181.98313999999996 236.57465999999997,181.34933999999996 C 236.92756999999997,180.47552999999996 236.94252999999998,179.49108999999996 237.08399999999997,178.76800999999995 C 237.27588999999998,177.78713999999994 237.75847,177.04148999999995 237.91732999999996,176.23066999999995 C 238.11462999999998,175.22364999999994 238.06445999999997,174.63389999999995 238.56933999999995,173.68533999999994 C 238.94679999999997,172.97615999999994 239.58944999999994,172.44951999999995 240.23832999999996,171.39999999999995 C 240.59469999999996,170.82360999999995 240.92123999999995,169.80395999999996 240.97916999999995,168.97917999999996 C 241.05945999999994,167.83595999999994 240.99205999999995,167.04233999999997 241.02082999999996,166.47917999999996 C 241.06586999999996,165.59746999999996 241.27531999999997,164.40048999999996 241.42533999999995,163.82133999999996 C 241.63523999999995,163.01109999999997 241.96879999999996,161.80676999999997 241.99866999999995,161.03199999999995 C 242.02948999999995,160.23257999999996 241.90076999999994,159.18345999999994 242.33332999999996,158.33332999999996 C 242.71409999999997,157.58498999999995 243.56393999999997,157.28034999999997 244.01466999999997,156.36399999999995 C 244.40794999999997,155.56446999999994 244.64843999999997,154.80904999999996 244.87866999999997,153.79999999999995 C 245.05865999999997,153.01111999999995 245.14137999999997,151.99124999999995 245.42534999999998,151.21065999999996 C 245.69249,150.47634999999997 245.98939,149.52101999999996 246.00000999999997,148.69548999999995 C 246.01308999999998,147.67874999999995 245.87430999999998,146.86975999999996 246.50000999999997,146.16666999999995 C 247.12497999999997,145.46437999999995 248.16072999999997,145.54580999999996 248.74400999999997,144.79732999999996 C 249.24084999999997,144.15976999999995 248.93646999999999,142.99286999999995 249.03599999999997,142.28665999999996 C 249.18411999999998,141.23566999999994 249.87898999999996,140.69662999999994 250.16932999999997,140.02798999999996 C 250.52367999999998,139.21194999999997 250.95594999999997,138.46723999999995 251.51733999999996,137.85331999999997 C 252.28331999999997,137.01566999999997 253.18846999999997,136.69698999999997 253.75717999999995,136.29548999999997 C 254.63368999999994,135.67666999999997 255.38025999999994,135.43974999999998 256.24283999999994,135.04815999999997 C 257.14261999999997,134.63969999999998 257.44614999999993,133.87362999999996 258.33335999999997,133.16665999999998 C 258.94881,132.67623999999998 259.52900999999997,132.58145 260.66666999999995,131.99998999999997 C 261.35819999999995,131.64653999999996 262.18149999999997,131.22344999999996 263.00001,130.97915999999998 C 263.85285,130.72463 264.20426,129.99447999999998 265.00001,129.33332 C 265.58207,128.84971 266.54344,128.78128999999998 267.25068,128.57465 C 268.23307,128.28762999999998 269.18919,128.03649 270.16667,127.99999 C 270.825,127.9754 271.88457,127.91253 272.50001000000003,127.45833 C 273.4112,126.78586 273.79145000000005,126.12631 274.40452000000005,125.70983000000001 C 275.34001000000006,125.07429 276.16889000000003,125.09759000000001 277.1146600000001,124.99866000000002 C 278.0104100000001,124.90496000000002 278.6458800000001,124.33637000000002 279.54267000000004,124.12133000000001 C 280.23746000000006,123.95473000000001 281.26539,124.01485000000001 282.19016000000005,123.64733000000001 C 282.91691000000003,123.3585 283.82486000000006,123.01800000000001 284.83335000000005,123.00000000000001 C 285.58921000000004,122.98650000000002 286.52085000000005,123.00000000000001 287.48533000000003,123.00000000000001 C 288.21067000000005,123.00000000000001 289.20002000000005,123.00000000000001 290.00001000000003,123.00000000000001 C 291.00001000000003,123.00000000000001 291.78935,123.00000000000001 292.83335000000005,123.00000000000001 C 293.52085000000005,123.00000000000001 294.54267000000004,123.00000000000001 295.25068000000005,123.00000000000001 C 296.232,123.00000000000001 297.19468000000006,123.00000000000001 297.968,123.00000000000001 C 299.00984,123.00000000000001 299.78535,123.00000000000001 300.83336,123.00000000000001 C 301.54286,123.00000000000001 302.39552000000003,123.00000000000001 303.3987,123.00000000000001 C 304.16402,123.00000000000001 305.16912,122.83051000000002 306.10018,123.22134000000001 C 306.82216,123.52442 307.66872,123.87077000000001 308.34734000000003,124.05267 C 309.39092000000005,124.33239 309.78399,125.17839000000001 310.00002,125.97917000000001 C 310.23406,126.84661000000001 311.16802,127.16324000000002 311.82537,127.42534 C 312.83547000000004,127.82809 313.66033000000004,127.95705000000001 314.02535,128.64668 C 314.51958,129.58041 314.67254,130.43614 315.48269,130.83069 C 316.23455,131.19684 317.00646,131.61498 317.42535,132.41068 C 317.82552999999996,133.17087 317.66420999999997,134.18281000000002 318.28668,134.83069 C 318.9393,135.50995 319.86358,135.37261 320.83337,136.00002 C 321.50854,136.43683000000001 322.49279,136.62017 322.94287,137.36168 C 323.44171,138.18353000000002 322.83349000000004,139.11414000000002 323.44269,139.97852 C 323.8743,140.59092 324.87012000000004,141.07415 324.99738,141.88535000000002 C 325.1431,142.81409000000002 325.04023,143.53675 325.50004,144.47919000000002 C 325.90821,145.31578000000002 326.57374,145.80718000000002 326.91471,146.56935000000001 C 327.23597,147.28743 327.00004,148.36401 327.00004,149.30452000000002 C 327.00004,150.16669000000002 327.00004,151.00002000000003 327.00004,151.97852000000003 L 327.00004,152.79868000000002" fill="none" id="svg_1" stroke="#000" stroke-width="2"/>
	<path d="M 313.0,168.0 C 311.60416,168.4375 312.35416,168.16165 313.31467,167.51733 C 314.00354,167.05523 314.54258,166.41690999999997 315.60001,166.11433 C 316.37577,165.89235 317.40439,166.05453 318.20002,165.964 C 319.21033,165.84904 319.75864,165.48507 320.83335,165.16667 C 321.57346,164.94740000000002 322.42136,164.99470000000002 323.33335,165.0 C 324.25074,165.00534 325.05048,164.88062 326.03202,165.28799 C 326.70977999999997,165.56929 327.3249,166.34199 328.01435,167.00534000000002 C 328.53538,167.50664 329.07232999999997,168.04626000000002 330.00001,168.66667 C 330.86415,169.24460000000002 331.51248999999996,169.44494 332.31467999999995,169.96800000000002 C 333.1153699999999,170.49006000000003 333.75965999999994,171.25442 334.18933999999996,171.74933000000001 C 334.99191999999994,172.67375 335.61313999999993,173.17789000000002 336.20001999999994,173.65067000000002 C 337.0189899999999,174.31043000000003 337.42788999999993,174.74558000000002 337.95834999999994,175.50000000000003 C 338.4589899999999,176.21204000000003 338.7960299999999,177.25349000000003 339.25332999999995,177.88266000000002 C 339.75278,178.56979 340.52572999999995,178.99332 341.23333999999994,179.51601000000002 C 342.03362999999996,180.10717000000002 343.27865999999995,180.83783000000003 342.93832999999995,181.64284000000004 C 342.66140999999993,182.29784000000004 341.22982999999994,182.01927000000003 340.47916,181.97917000000004 C 339.68122,181.93654000000004 338.67690999999996,181.73427000000004 338.0,181.47917000000004 C 337.30823,181.21849000000003 336.30695,180.81302000000005 335.45834,180.45833000000005 C 334.83343,180.19713000000004 333.82397000000003,179.68173000000004 333.11865,179.23200000000006 C 332.38592,178.76478000000006 331.69125,178.25867000000005 331.05465,177.76801000000006 C 330.2564,177.15276000000006 329.54037,176.49584000000007 328.66665,175.83333000000007 C 327.99999,175.32784000000007 327.46884,174.98223000000007 326.89098,174.6526700000001 C 325.7203,173.98502000000008 325.11803000000003,173.7214700000001 324.23598000000004,173.44668000000007 C 323.18062000000003,173.11788000000007 322.44933000000003,173.07824000000008 321.54732,172.94734000000008 C 320.57442000000003,172.80614000000008 319.78829,172.5640500000001 319.00981,172.35267000000007 C 317.97307,172.07115000000007 317.25181000000003,172.00451000000007 316.3473,171.99101000000007 L 315.48399,171.8293400000001 L 314.75715,171.29467000000008 L 314.2013,170.56800000000007" fill="none" id="svg_2" stroke="#000" stroke-width="2"/>
	<path d="M 327.0,169.0 C 328.82935,165.11467 328.94415,164.36488 328.97867,163.58934 C 329.01383000000004,162.79922 329.01215,161.6001 328.99100000000004,160.80901 C 328.97046000000006,160.04125 329.01224,159.27475 328.55735000000004,158.04267 C 328.35020000000003,157.4816 327.74485000000004,156.79380999999998 327.33335000000005,155.66667999999999 C 327.10798000000005,155.04939 327.08637000000004,154.33297 326.89466000000004,153.24818 C 326.70231000000007,152.15979 326.45344000000006,151.4736 326.12800000000004,150.83601 C 325.80235000000005,150.19801999999999 325.00569,148.99615 324.60002000000003,148.40401999999997 C 324.20552000000004,147.82820999999998 323.60002000000003,147.07151999999996 322.80034,146.36434999999997 L 322.04167,146.04168999999996" fill="none" id="svg_3" stroke="#000" stroke-width="2"/>
	<path d="M 319.0,182.0 C 317.07199,185.34933 317.0,186.33333 317.0,187.00534 C 317.0,187.99465999999998 317.0,188.85733 317.0,189.80533 C 317.0,190.76801 317.00705,191.50003 317.0,192.232 C 316.98932,193.33883 316.67773,194.17553 316.14932,194.82534 C 315.57977,195.52575000000002 315.10983,196.25184000000002 314.83333999999996,197.33334000000002 L 314.64282,198.00535000000002 L 314.38933999999995,198.74934000000002" fill="none" id="svg_4" stroke="#000" stroke-width="2"/>
	<path d="M 322.0,185.0 C 318.34134,189.51199 318.08844,190.13618 318.01801,190.98117 C 317.93073,192.02852 318.0,192.80533 318.0,193.768 C 318.0,194.49999 318.0,195.66667 318.0,196.49999 C 318.0,197.33332 318.0,198.26133 318.0,199.05182 C 318.0,200.07849 318.0,200.76398999999998 318.0,201.59865 C 318.0,202.59999 318.0,203.39998 318.0,204.39865 C 318.0,205.34282000000002 318.0,206.24731 318.0,207.16666 C 318.0,207.99999 318.0,208.97849 318.0,209.79865 L 318.0,210.63599000000002 L 318.0,211.65265000000002 L 318.0,212.34732000000002" fill="none" id="svg_5" stroke="#000" stroke-width="2"/>
	<path d="M 275.0,162.0 C 278.59732,163.82933 279.45746,163.98438 280.22934,163.99733 C 281.328,164.01576 282.16891999999996,163.59612 282.56399999999996,162.81467 C 282.94897999999995,162.05321 282.99933,161.20134000000002 282.99999999999994,160.24283 C 283.0006399999999,159.34734 283.40673999999996,158.37152 282.95833999999996,157.54167 C 282.56426999999996,156.81233 281.59099999999995,157.00226 280.59999999999997,157.0 C 279.79997999999995,156.99818 278.79997999999995,157.0 277.99998999999997,157.0 C 276.99998999999997,157.0 275.98247,156.73437 275.33333,157.5 C 274.79726,158.13226 275.0045,158.99913 274.99998999999997,160.02933 C 274.99575,160.99999 275.33333,161.83333 276.04164999999995,162.02083 L 276.99998999999997,162.33333 L 277.60447999999997,162.70533999999998 L 278.23598,163.14933999999997" fill="none" id="svg_6" stroke="#000" stroke-width="2"/>
	<path d="M 325.0,193.0 C 323.11432,197.133 322.94629,198.17055 323.02133,198.836 C 323.1087,199.61086 323.72164999999995,200.59578000000002 324.18532999999996,201.23599000000002 C 324.85051999999996,202.15446000000003 325.13388,202.67569 325.47914999999995,203.50000000000003 C 325.8177099999999,204.30827000000002 326.15892999999994,205.33885000000004 326.54164999999995,205.97917000000004 C 326.92824999999993,206.62599000000003 327.7653399999999,207.40323000000004 328.2506599999999,207.80000000000004 C 328.9906199999999,208.40495000000004 329.8851199999999,209.17929000000004 330.3493199999999,209.82133000000005 C 330.8353699999999,210.49359000000004 331.3255499999999,211.33876000000004 331.77064999999993,211.96932000000004 C 332.2634499999999,212.66744000000003 332.8170099999999,213.38874000000004 333.1089999999999,213.75182000000004 C 333.98716999999994,214.84375000000003 334.60038999999995,215.51192000000003 335.1786699999999,216.16399000000004 C 335.7309499999999,216.78672000000003 336.2745899999999,217.36876000000004 336.8571699999999,218.29982000000004 C 337.21913999999987,218.87831000000003 337.5903499999999,219.77649000000005 337.8826499999999,220.31465000000003 C 338.4413399999999,221.34326000000001 339.0420399999999,222.02046000000004 339.4616599999999,222.50981000000002 C 340.1673199999999,223.33273000000003 340.6963399999999,223.96049000000002 341.2146499999999,224.67198000000002 C 341.75306999999987,225.41105000000002 342.0440599999999,225.77995 342.6666499999999,226.99998000000002 C 343.0674999999999,227.78552000000002 343.3510699999999,228.62071000000003 343.6506599999999,229.47198000000003 C 343.8062399999999,229.91400000000004 344.3280599999999,231.33551000000003 344.5426599999999,231.84265000000002 C 344.9942899999999,232.91005 345.2511299999999,233.45044000000001 345.4999999999999,233.99998000000002 C 345.9955699999999,235.09423 346.2603499999999,235.62066000000002 346.8571799999999,237.15698000000003 C 347.0393999999999,237.62602000000004 347.3375299999999,238.52835000000005 347.6146599999999,239.37864000000002 C 347.8815999999999,240.19766 348.1564399999999,241.00411000000003 348.4840099999999,241.79998 C 348.8150599999999,242.60429 349.1889099999999,243.39405 349.5159899999999,244.19997 C 349.9996899999999,245.39174 350.24282999999986,246.20447000000001 350.3640099999999,246.61065000000002 L 350.5893199999999,247.43598000000003 L 350.79866999999985,248.28531000000004" fill="none" id="svg_7" stroke="#000" stroke-width="2"/>
	<path d="M 225.0,194.0 C 222.256,200.06 222.06546,200.66264 222.0135,201.43916 C 221.93022,202.68395999999998 222.01574,203.24839 221.94284,204.16165999999998 C 221.86239999999998,205.16940999999997 221.73722999999998,205.88774999999998 221.47916999999998,206.97915999999998 C 221.31020999999998,207.69378999999998 220.99936,208.66643 220.7045,209.49464999999998 C 220.43543,210.25044999999997 220.1561,211.33200999999997 220.08267,211.96931999999998 C 219.96173000000002,213.01896 219.95976000000002,213.76858 219.66667,214.83332 C 219.47529,215.52850999999998 219.14076,216.16509 218.64816000000002,217.0955 C 218.16870000000003,218.00107999999997 217.87330000000003,218.59377999999998 217.52083000000002,219.47916999999998 C 217.18999000000002,220.31024 216.81656,221.32464 216.47917,221.99999999999997 C 216.1328,222.69335999999998 215.51431000000002,223.68644999999998 215.16400000000002,224.24666999999997 C 214.78897,224.84642999999997 214.38618000000002,225.47952999999995 213.8,226.52132999999998 C 213.39123,227.24779999999998 213.00497000000001,228.00267999999997 212.60000000000002,228.74732999999998 C 212.00724000000002,229.83729999999997 211.59716000000003,230.51009999999997 211.22132000000002,231.15334 C 210.70678,232.03396999999998 210.27584000000002,232.81858999999997 210.06133000000003,233.77468 C 209.91099000000003,234.4448 209.78063000000003,235.42199 209.57465000000002,236.236 C 209.35474000000002,237.10504999999998 209.15006000000002,237.99804999999998 209.05266000000003,238.8955 C 208.95859000000004,239.76243 208.85521000000003,240.83941 208.64733000000004,241.54734 C 208.44631000000004,242.23184999999998 208.10361000000003,243.41984 208.05715000000004,243.96168 C 207.98144000000005,244.84466 208.00788000000003,246.16676 207.99732000000003,246.88134 C 207.98664000000002,247.60417999999999 208.10985000000002,248.35744 207.66666000000004,249.50001 C 207.39832000000004,250.19178 206.58327000000003,250.80549 206.24298000000005,251.76434 C 206.03688000000005,252.3451 206.01289000000006,253.39584 206.00265000000005,254.11868 C 205.98764000000006,255.17857 205.99998000000005,256.17466 205.99998000000005,256.82536 C 205.99998000000005,257.48402 205.99998000000005,258.88536 205.99998000000005,259.63599999999997 C 205.99998000000005,260.41069 205.99998000000005,261.20133999999996 205.99998000000005,262.40000999999995 C 205.99998000000005,263.20002999999997 205.99998000000005,264.00001999999995 205.99998000000005,264.79999999999995 C 205.99998000000005,266.00001 205.99998000000005,266.79868999999997 205.99998000000005,267.58933999999994 C 205.99998000000005,268.36402999999996 205.99998000000005,269.11466999999993 205.99998000000005,270.17850999999996 C 205.99998000000005,271.16400999999996 205.99998000000005,271.78934999999996 205.99998000000005,273.00001 C 205.99998000000005,273.9 205.99998000000005,274.50001 205.99998000000005,275.4 C 205.99998000000005,276.60132 205.99998000000005,277.21067 205.99998000000005,278.15716999999995 C 205.99998000000005,279.16666 205.96809000000005,279.88575 206.04165000000006,280.99999999999994 C 206.09112000000007,281.74923999999993 206.30471000000006,282.84389999999996 206.56931000000006,283.51598999999993 C 206.83326000000005,284.18639999999994 207.38704000000007,285.13668999999993 207.83330000000007,286.1666599999999 C 208.13915000000006,286.8725299999999 208.36687000000006,287.61376999999993 208.58931000000007,288.33865999999995 C 208.80141000000006,289.02982 209.17253000000008,290.24600999999996 209.54164000000006,291.00001 C 209.79411000000005,291.51572999999996 210.54338000000007,292.6425 211.00531000000007,293.31433999999996 C 211.25104000000007,293.67172999999997 211.77776000000006,294.40446 212.23196000000007,295.20268 C 212.90002000000007,296.37669 213.19638000000006,297.19935 213.34930000000008,297.60002 C 213.6541100000001,298.39869999999996 213.9217800000001,299.22324999999995 214.5426300000001,300.40000999999995 C 214.9738700000001,301.21738999999997 215.2564700000001,301.59641999999997 215.7493000000001,302.40000999999995 C 216.2377600000001,303.1964899999999 216.86353000000008,304.39719999999994 217.0319700000001,304.79868999999997 C 217.36156000000008,305.5843 217.6151800000001,306.38001999999994 217.9679700000001,307.11467 C 218.4915400000001,308.20491 219.0026400000001,308.85692 219.5416400000001,309.50002 C 220.09714000000008,310.1628 221.0036900000001,311.16356 221.2998000000001,311.52153 C 221.9031200000001,312.2509 222.4835800000001,313.01765 222.76397000000009,313.41069 C 223.3235600000001,314.19505 224.0816100000001,315.39824 224.31596000000008,315.8 C 224.78061000000008,316.59657 225.21641000000008,317.40516 225.68397000000007,318.20002 C 226.15769000000006,319.00535 226.67637000000008,319.80496999999997 227.23596000000006,320.58933 C 227.51636000000005,320.98237 228.08691000000007,321.75751 228.99997000000008,322.83335 C 229.58748000000008,323.52561 229.90114000000008,323.84229 230.4791400000001,324.50001 C 231.04843000000008,325.14777999999995 231.8425000000001,326.16053 232.31731000000008,326.88266999999996 C 232.79464000000007,327.60862 232.98651000000007,328.00400999999994 233.50980000000007,328.69016999999997 C 234.28441000000007,329.70588999999995 234.95896000000008,330.24823999999995 235.67197000000007,330.74933999999996 C 236.40961000000007,331.26773999999995 236.83615000000006,331.46756999999997 237.99997000000008,332.33334999999994 C 238.81996000000007,332.9433399999999 239.20441000000008,333.3048799999999 239.99997000000008,334.02084999999994 C 240.40222000000009,334.38284999999996 240.78441000000007,334.7693499999999 241.99997000000008,335.83334999999994 C 242.79002000000008,336.52487999999994 243.19263000000007,336.84793999999994 243.99997000000008,337.45834999999994 C 244.3964100000001,337.7580899999999 245.1877800000001,338.3327699999999 246.39996000000008,339.07867999999996 C 246.79609000000008,339.32241999999997 247.60167000000007,339.77167 248.39996000000008,340.22534999999993 C 249.20169000000007,340.6809799999999 250.00721000000007,341.1556499999999 250.7999700000001,341.68533999999994 C 251.60751000000008,342.22488999999996 252.0023500000001,342.51757999999995 252.7999700000001,343.1044999999999 C 253.20117000000008,343.3997299999999 254.3980400000001,344.30243999999993 255.1999600000001,344.8955199999999 C 255.59901000000008,345.1906599999999 256.3924200000001,345.77512999999993 257.1999800000001,346.3146799999999 C 257.9927400000001,346.8443399999999 258.7959000000001,347.3219999999999 259.5999700000001,347.7640199999999 C 259.9979800000001,347.9827999999999 260.7990400000001,348.3973199999999 261.9999600000001,349.0000099999999 C 262.7993400000001,349.40118999999993 263.5999700000001,349.7999999999999 263.9999600000001,350.0000099999999 C 264.7999500000001,350.3999999999999 265.9980400000001,351.00391999999994 266.8052900000001,351.3999999999999 C 267.2169700000001,351.6019999999999 268.07775000000015,352.0134299999999 269.0286200000001,352.3999999999999 C 269.5384200000001,352.60723999999993 270.6632600000001,353.0108399999999 271.9359700000001,353.3999999999999 C 272.6088800000001,353.60574999999994 273.3013000000001,353.7999899999999 273.99997000000013,354.0000099999999 C 274.6986400000001,354.20001999999994 275.3919100000001,354.39145999999994 276.06397000000015,354.6000199999999 C 277.92161000000016,355.1764999999999 278.46244000000013,355.3937499999999 278.97580000000016,355.6000199999999 C 279.94226000000015,355.9883299999999 280.8385900000002,356.40122999999994 281.27997000000016,356.6000199999999 C 282.62012000000016,357.2035699999999 283.08344000000017,357.4101999999999 284.05731000000014,357.7893499999999 C 284.5601800000001,357.9851199999999 285.61600000000016,358.3521199999999 286.1719600000001,358.5146899999999 C 287.3278100000001,358.8526999999999 288.5715300000001,359.1194599999999 289.2188000000001,359.2518399999999 C 289.8821900000001,359.3875199999999 290.5629500000001,359.5184099999999 291.2572800000001,359.6613599999999 C 291.96663000000007,359.8073899999999 292.6934100000001,359.9478599999999 294.1666100000001,360.3333599999999 C 294.9244200000001,360.53165999999993 295.6861100000001,360.7653999999999 296.4571100000001,361.00535999999994 C 297.2367700000001,361.24803999999995 298.0200400000001,361.50239999999997 298.8106300000001,361.74934999999994 C 299.6037200000001,361.9970599999999 300.39458000000013,362.2575299999999 301.9999600000001,362.66667999999993 C 302.7966500000001,362.8697399999999 303.5973700000001,363.0358499999999 304.3954700000001,363.1856899999999 C 305.1881000000001,363.3344899999999 305.9786000000001,363.4618399999999 306.7639700000001,363.5786999999999 C 307.5422900000001,363.6944799999999 308.3147200000001,363.7966899999999 309.8333100000001,364.0000299999999 C 310.5788200000001,364.09984999999995 311.3180200000001,364.1961999999999 312.7853100000001,364.41070999999994 C 313.5212100000001,364.51827999999995 314.2616900000001,364.6335199999999 315.0098000000001,364.75720999999993 C 315.7697500000001,364.8828499999999 317.3337400000001,365.16443999999996 318.1428000000001,365.3213599999999 C 318.9697700000001,365.4817599999999 319.8098500000001,365.65253999999993 320.6613200000001,365.8253899999999 C 321.5208500000001,365.9998599999999 322.3849500000001,366.1765299999999 323.2518000000001,366.3473599999999 C 324.1169400000001,366.5178599999999 325.8325800000001,366.8376899999999 326.67880000000014,366.9783699999999 C 327.51660000000015,367.1176499999999 328.3511300000001,367.2434199999999 329.18530000000015,367.3533699999999 C 330.0201700000002,367.4634199999999 330.86078000000015,367.55880999999994 331.7098100000002,367.63836999999995 C 332.5688200000002,367.71887999999996 334.3331000000002,367.83816999999993 335.2426500000002,367.87853999999993 C 336.1677600000002,367.9195899999999 337.1052600000002,367.9458899999999 338.0506300000002,367.96401999999995 C 338.99991000000017,367.98220999999995 339.9493100000002,367.99087999999995 340.8946200000002,367.99553999999995 C 341.8319700000002,368.00017999999994 343.6666200000002,368.0000299999999 344.5567900000002,368.0000299999999 C 345.4279800000002,368.0000299999999 346.2811200000002,368.0000299999999 347.1173100000002,368.0000299999999 C 347.9374700000002,368.0000299999999 348.7426500000002,368.0000299999999 349.5338100000002,368.0000299999999 C 350.3119800000002,368.0000299999999 351.8333100000002,368.0000299999999 352.5786400000002,368.0000299999999 C 353.3159800000002,368.0000299999999 354.0473000000002,368.0000299999999 354.7746200000002,368.0000299999999 C 355.4999600000002,368.0000299999999 356.2253000000002,368.0000299999999 356.95263000000017,368.0000299999999 C 357.68395000000015,368.0000299999999 359.1666200000002,368.0000299999999 359.92147000000017,368.0000299999999 C 360.6852900000002,368.0000299999999 361.45711000000017,368.0000299999999 362.2359500000002,368.0000299999999 C 363.0208000000002,368.0000299999999 363.8106300000002,368.0000299999999 364.60445000000016,368.0000299999999 C 365.40129000000013,368.0000299999999 366.99996000000016,368.0000299999999 367.79979000000014,368.0000299999999 C 368.59862000000015,368.0000299999999 369.3954600000001,368.0000299999999 370.18929000000014,368.0000299999999 C 370.97912000000014,368.0000299999999 371.76397000000014,368.0000299999999 372.54281000000015,368.0000299999999 C 373.31463000000014,368.0000299999999 374.83331000000015,368.0000299999999 375.5783000000001,368.0000299999999 C 376.3132900000001,368.0000299999999 377.03829000000013,368.0000299999999 377.7532900000001,368.0000299999999 C 378.4583100000001,368.0000299999999 379.1532800000001,368.0000299999999 379.8383100000001,368.0000299999999 C 380.5133000000001,368.0000299999999 381.8333100000001,368.0000299999999 382.47845000000007,368.0000299999999 C 383.11462000000006,368.0000299999999 383.74279000000007,368.0000299999999 384.3639800000001,368.0000299999999 C 384.9791200000001,368.0000299999999 385.58929000000006,368.0000299999999 386.7986400000001,368.0000299999999 C 387.9999600000001,368.0000299999999 388.5993000000001,368.0000299999999 389.7819800000001,368.0000299999999 C 390.35730000000007,368.0000299999999 391.45596000000006,368.0000299999999 391.9713100000001,368.0000299999999 C 393.3333100000001,368.0000299999999 394.06131000000005,367.9986899999999 394.9583100000001,367.9791899999999 L 395.7652900000001,367.9147099999999" fill="none" id="svg_8" stroke="#000" stroke-width="2"/>
</svg>
