<?xml version="1.0" ?>
<svg baseProfile="full" height="480" version="1.1" width="640" xmlns="http://www.w3.org/2000/svg" xmlns:ev="http://www.w3.org/2001/xml-events" xmlns:xlink="http://www.w3.org/1999/xlink">
	<defs/>
	<path d="M 199.0,247.0 C 200.7,246.0045 201.60002,246.0054 202.5,246.0 C 203.38937,245.99466 203.98363,245.35826 204.85867,245.08267 C 205.57656999999998,244.85658 206.23731999999998,244.93286 207.33333,244.66667 C 208.17658,244.46187 209.05564999999999,244.14059 209.94933999999998,243.77867 C 210.39726,243.59727 211.6734,243.01259000000002 212.42798999999997,242.60133000000002 C 213.12372999999997,242.22216000000003 213.73512999999997,241.82359000000002 214.83331999999996,241.16667 C 215.31276999999997,240.87988 216.21597999999994,240.38855 217.16665999999995,240.0 C 217.94541999999996,239.68172 218.50443999999996,239.51184 219.31597999999994,239.2 C 220.31904999999995,238.81456 221.18300999999994,238.446 221.97864999999993,237.89999999999998 C 222.65262999999993,237.43747999999997 223.33037999999993,236.91427 224.02080999999993,236.47917999999999 C 225.01317999999992,235.85380999999998 225.58042999999992,235.33383999999998 226.16397999999992,234.86133999999998 C 226.95891999999992,234.21767999999997 227.78090999999992,234.02399999999997 228.64813999999993,233.64284999999998 C 229.31637999999992,233.34914999999998 229.81253999999993,232.52980999999997 230.35713999999993,231.70001 C 230.72409999999994,231.14087999999998 231.49896999999993,230.46974 232.32113999999993,229.89983999999998 C 232.96299999999994,229.45492 233.72460999999993,228.85284 233.97913999999992,228.00000999999997 C 234.22342999999992,227.18152999999998 234.5869099999999,226.39885999999998 235.3999599999999,226.02533999999997 C 236.1786899999999,225.66759999999996 236.7258599999999,224.95802999999998 237.0839699999999,224.20000999999996 C 237.4412199999999,223.44380999999996 238.3180399999999,222.89290999999997 238.8679699999999,222.57868999999997 C 239.5710599999999,222.17695999999998 240.5027999999999,221.67150999999996 241.2519699999999,221.23067999999998 C 242.07911999999988,220.74398999999997 242.50829999999988,220.49217 243.3419699999999,219.94817999999998 C 244.5119499999999,219.18471999999997 245.1491899999999,218.69307999999998 245.6919799999999,218.24668999999997 C 246.39331999999987,217.66988999999998 247.1967399999999,217.01639999999998 247.7999799999999,216.62534999999997 C 248.5957699999999,216.10946999999996 249.3886599999999,215.50335999999996 249.99997999999988,215.02083999999996 C 250.58939999999987,214.55560999999997 251.5909799999999,214.10983999999996 252.42931999999988,213.91733999999997 L 253.04815999999988,213.35266999999996 L 253.83331999999987,212.83333999999996" fill="none" id="svg_1" stroke="#000" stroke-width="2"/>
	<path d="M 200.0,248.0 C 201.8,248.0 202.7,248.0 203.60001,248.0 C 204.4,248.0 205.3201,247.94553 206.33333,248.16667 C 207.02419999999998,248.31746 207.8217,248.60956000000002 208.40267,248.80133 C 209.59943,249.19638 210.47462,249.49579 211.04284,249.64284 C 212.07115000000002,249.90895 212.99513000000002,249.92156 214.00001,250.16667 C 214.80699,250.36352000000002 215.53335,250.65895 216.47918,251.0 C 217.3196,251.30304 218.00523,251.81606 218.75718,252.05267 C 219.6594,252.33658 220.35760000000002,252.68925000000002 221.24284,253.2955 C 222.00911,253.82028 222.92796,254.06732 223.47918,253.47917 C 224.16573000000002,252.74661 224.00001,251.8 224.00001,250.89999 C 224.00001,250.0 223.98202,249.19981 224.00001,248.3 C 224.01802,247.39946 224.47262,246.61531000000002 225.00001,245.83333000000002 C 225.43089,245.19444000000001 225.81932,244.49709000000001 226.38934,243.63600000000002 C 226.93475,242.81210000000002 227.03546,241.86200000000002 227.70451,241.35716000000002 C 228.45547,240.79052000000001 229.01742,240.28355000000002 229.76168,239.94732000000002 C 230.61976,239.55967 231.36632,239.32331000000002 232.24284,238.70449000000002 C 232.81155,238.30299000000002 233.76129,238.03904000000003 234.50001,237.47916 C 235.16455,236.97553000000002 235.81722,236.32643000000002 236.60002,235.97466 C 237.42024,235.60607 238.02212,234.79909 238.70001,234.35715 C 239.43393,233.87868 240.39306,233.70998 240.87868,232.90015 C 241.3163,232.17037 242.05957,231.71502999999998 242.70001,231.35264999999998 C 243.52079999999998,230.88823 243.96724,230.24102 244.43601999999998,229.59999 C 245.00548999999998,228.82129 245.82404999999997,228.56222 246.56401,227.97465 C 247.24106,227.43704 247.70631,226.77044 248.16669,225.99998 C 248.59661,225.28047999999998 249.49987,225.01265999999998 250.40000999999998,224.99998 C 251.29543999999999,224.98738 251.97468999999998,224.57464 252.52084,224.02080999999998 L 253.47917999999999,223.97914999999998" fill="none" id="svg_2" stroke="#000" stroke-width="2"/>
	<path d="M 213.0,251.0 C 213.80133,248.91733 214.48029,248.45821 215.2,247.80133 C 215.78449999999998,247.26785 216.83559,247.12111000000002 217.47916999999998,246.47917 C 218.12001999999998,245.83995000000002 218.42386,245.18608 219.2,244.71466 C 219.87637999999998,244.30385 220.37699999999998,243.06448 221.29549999999998,243.06166000000002 C 222.05237999999997,243.05934000000002 221.62434,244.14426000000003 221.16666999999998,245.00000000000003 C 220.74338999999998,245.79144000000002 220.18180999999998,246.35994000000002 219.64733999999999,246.94733000000002 C 219.11051999999998,247.53730000000002 218.77849999999998,248.32117000000002 218.38932999999997,249.13868000000002 L 217.80001,249.82934000000003 L 216.89999999999998,250.00018000000003 L 216.2,250.08534000000003" fill="none" id="svg_3" stroke="#000" stroke-width="2"/>
	<path d="M 245.0,214.0 C 243.3,213.94284 242.54753,213.46239 242.05267,212.7045 C 241.59861,212.0091 240.80700000000002,211.59637999999998 240.28399000000002,210.916 C 239.81410000000002,210.30472 239.99999000000003,209.29999999999998 239.99999000000003,208.39999 C 239.99999000000003,207.5 239.99999000000003,206.6 239.99999000000003,205.69999 C 239.99999000000003,204.8 239.91131000000001,203.89561 239.99999000000003,202.99999000000003 C 240.08373000000003,202.15429000000003 241.07125000000002,201.91085000000004 241.60000000000002,201.35332000000002 C 242.30885000000004,200.60590000000002 242.53768000000002,199.78302000000002 243.10000000000002,199.02165000000002 C 243.55270000000002,198.40872000000002 244.56315000000004,198.06578000000002 245.02532000000002,197.38931000000002 C 245.52451000000002,196.65866000000003 245.76478000000003,195.70076000000003 246.28399000000002,195.08398000000003 C 246.84077000000002,194.42259 247.25919000000002,193.77647000000002 247.80132,193.19998000000004 C 248.489,192.46872000000005 249.3229,191.90263000000004 249.99999,191.49998000000005 C 250.83527,191.00325000000004 251.3445,190.53004000000004 252.33332,189.99998000000005 C 252.98193999999998,189.65228000000005 253.78521999999998,189.47387000000006 254.66665999999998,188.99998000000005 C 255.47590999999997,188.56489000000005 255.72086,187.70782000000005 256.22166999999996,186.90014000000005 C 256.62523,186.24932000000004 257.72621999999996,186.28306000000006 258.43064999999996,185.91598000000005 C 259.20696,185.51145000000005 259.50614999999993,184.45079000000004 260.32131,183.89997000000005 C 260.97405,183.45891000000006 261.86161999999996,183.03454000000005 262.47915,182.49998000000005 C 263.13201,181.93482000000006 263.73831,181.27142000000006 264.484,180.79998000000006 C 265.15862,180.37348000000006 266.0021,179.92750000000007 266.58932,179.39997000000005 C 267.33139,178.73336000000006 268.0,177.99999000000005 268.52083999999996,177.47915000000006 C 269.16664999999995,176.83332000000007 269.81762,176.15389000000005 270.40450999999996,175.65264000000005 C 271.17647999999997,174.99332000000004 272.05193999999995,174.62855000000005 272.66666,173.99998000000005 C 273.27704,173.37585000000004 273.91098,173.19511000000006 274.83335,172.83331000000004 C 275.62083,172.52443000000005 275.84211,171.47216000000003 276.57069,170.79998000000003 C 277.13206,170.28207000000003 278.00001000000003,169.99998000000002 278.8,169.59998000000004 C 279.40001,169.29998000000003 280.38292,168.76622000000003 281.16401,168.43598000000006 C 282.09773,168.04122000000007 283.03193000000005,167.87346000000005 283.60001,167.38930000000005 C 284.35019,166.74997000000005 284.87964,166.19116000000005 285.64817,165.69997000000004 C 286.28553,165.29262000000003 286.92676,164.38492000000002 287.71433,164.04815000000005 C 288.36936000000003,163.76804000000004 289.40000000000003,163.43198000000004 290.00001000000003,162.99998000000005 C 290.60002000000003,162.56797000000006 291.66825000000006,162.31808000000004 292.42933000000005,161.91731000000004 C 293.24204000000003,161.48935000000003 293.68092000000007,160.64464000000004 294.35185000000007,160.35714000000004 C 295.3402500000001,159.93363000000005 296.31849000000005,159.77168000000003 297.0000100000001,159.49998000000005 C 297.9745600000001,159.11146000000005 298.69551000000007,159.00224000000006 299.6000200000001,158.99998000000005 C 300.5000100000001,158.99774000000005 301.4213400000001,158.99998000000005 302.3333600000001,158.99998000000005 C 303.2613400000001,158.99998000000005 304.0518400000001,158.99998000000005 305.0785100000001,158.99998000000005 C 305.7640300000001,158.99998000000005 306.5986800000001,158.99998000000005 307.5955100000001,158.99998000000005 C 308.5147000000001,158.99998000000005 309.3640300000001,158.99998000000005 310.3000100000001,158.99998000000005 C 311.2000300000001,158.99998000000005 312.1000300000001,158.99998000000005 313.0000200000001,158.99998000000005 L 313.8000100000001,158.99998000000005" fill="none" id="svg_5" stroke="#000" stroke-width="2"/>
	<path d="M 315.0,159.0 C 316.83334,158.83333 317.0,158.0 317.0,157.2 C 317.0,156.36399999999998 317.27029,155.27103 316.91467,154.56933999999998 C 316.53717,153.82447 315.35098,153.99510999999998 314.51468,154.284 C 313.77609,154.53914 312.78854,154.81986 312.04166,155.0 C 311.14984,155.21509 310.52599999999995,155.89375 309.79999,156.284 C 308.94522,156.74346 308.30093999999997,157.05438999999998 307.5,157.5 C 306.70096,157.94455 305.69995,157.83792 305.05267,158.35266 C 304.43356,158.845 303.59117999999995,159.94151 303.03601,159.528 C 302.30005,158.97983 303.63201999999995,158.0878 304.02533,157.35333 C 304.43924,156.58041 304.54153,155.77829 305.20001,154.88533 C 305.65484000000004,154.26851000000002 306.40933,153.60921000000002 307.0,153.0 C 307.57321,152.40878 307.77652,151.48621 308.35718,150.7045 C 308.85697000000005,150.03168 309.63379000000003,149.61948999999998 310.33335000000005,149.16666999999998 C 311.0665000000001,148.69208999999998 312.1468300000001,148.75594999999998 312.69550000000004,148.29549999999998 C 313.44812,147.66391999999996 314.20798,147.14126 315.00000000000006,146.99999999999997 C 315.89203000000003,146.84089999999998 316.56885000000005,146.32337999999996 316.9639900000001,145.56399999999996 C 317.3631600000001,144.79688999999996 317.00000000000006,143.80000999999996 317.00000000000006,142.89999999999998 C 317.00000000000006,142.00000999999997 316.98199000000005,141.19982 317.00000000000006,140.30001 C 317.01801000000006,139.39946999999998 317.4268200000001,138.59118999999998 318.10001000000005,137.89999999999998 C 318.5933600000001,137.39343999999997 319.22474000000005,136.54788999999997 320.16666000000004,136.16667999999999 C 320.79114000000004,135.91394999999997 321.82395,135.81540999999999 322.58933,135.42534999999998 C 323.3906,135.01700999999997 324.35007,135.13169 325.10001,134.77867999999998 C 325.87552,134.41364 326.59995,134.00535 327.5,134.00000999999997 C 328.39996,133.99468 329.29999,134.00000999999997 330.20001,134.00000999999997 C 331.1,134.00000999999997 332.0,134.00000999999997 332.79999000000004,134.00000999999997 C 333.70001,134.00000999999997 334.60941,133.88805999999997 335.52085000000005,134.02083999999996 C 336.50889000000006,134.16478999999995 337.13950000000006,134.69499999999996 338.1146600000001,134.91467999999998 C 338.98237000000006,135.11014999999998 339.85019000000005,135.01346999999998 340.5000100000001,135.52083999999996 C 341.2680500000001,136.12050999999997 341.8279800000001,136.64792999999997 342.7000200000001,137.05268999999996 C 343.5313800000001,137.43856999999994 344.3594700000001,137.81312999999994 345.1000100000001,138.22150999999997 C 345.77451000000013,138.59346999999997 346.43299000000013,139.37287999999995 346.91599000000014,140.19867999999997 C 347.32334000000014,140.89513999999997 348.16669000000013,141.15572999999998 348.7000200000001,141.76167999999996 C 349.2804300000001,142.42112999999995 349.5345500000001,143.21982999999994 350.2000200000001,144.11467999999996 C 350.6573600000001,144.72964999999996 351.5680600000001,145.30444999999997 351.8785200000001,146.10001999999997 C 352.20866000000007,146.94603999999998 351.9951300000001,147.78041999999996 352.3571900000001,148.65267999999998 C 352.6549500000001,149.36999999999998 353.3301800000001,150.22475999999997 353.8000000000001,150.88401999999996 C 354.3307600000001,151.62878999999995 354.77888000000013,152.31402999999997 354.9640000000001,153.36401999999995 C 355.1092900000001,154.18808999999996 355.0000100000001,155.10002999999995 355.0000100000001,156.00001999999995 C 355.0000100000001,156.80001999999996 355.0000100000001,157.70001999999994 355.0000100000001,158.60002999999995 C 355.0000100000001,159.50001999999995 355.0000100000001,160.40001999999996 355.0000100000001,161.30002999999994 C 355.0000100000001,162.20001999999994 355.0000100000001,163.10002999999995 355.0000100000001,164.00002999999992 C 355.0000100000001,164.75719999999993 355.0000100000001,165.65268999999992 355.0000100000001,166.51603999999992 C 355.0000100000001,167.4792099999999 355.0940300000001,168.44712999999993 354.6473500000001,169.3000399999999 C 354.25340000000006,170.0522699999999 353.8809300000001,170.7795799999999 353.4253300000001,171.60003999999992 C 352.9911300000001,172.3819799999999 352.55768000000006,173.11183999999992 352.1666600000001,174.00002999999992 C 351.8771400000001,174.6576699999999 351.8380200000001,175.51677999999993 351.2840000000001,176.08402999999993 C 350.6260100000001,176.75774999999993 350.0286000000001,177.35573999999994 350.0000000000001,178.20002999999994 C 349.9695400000001,179.09951999999993 350.09149000000014,180.01257999999993 349.9428400000001,180.75719999999995 C 349.7582400000001,181.68193999999997 349.2163700000001,182.31456999999995 349.0360100000001,183.36402999999996 C 348.8773500000001,184.28718999999995 349.0000000000001,185.20002999999997 349.0000000000001,186.10003999999995 C 349.0000000000001,187.00002999999995 349.0000000000001,187.80003999999994 349.0000000000001,188.70002999999994 C 349.0000000000001,189.60003999999995 349.0529200000001,190.53477999999996 348.6473400000001,191.30003999999994 C 348.1990400000001,192.14593999999994 348.0279200000001,192.80046999999993 348.0000000000001,193.70002999999994 C 347.97070000000014,194.64414999999994 347.0892300000001,195.15321999999995 347.00134000000014,195.88670999999994 C 346.88968000000017,196.81877999999995 346.8413400000001,197.83754999999994 346.5000000000001,198.47920999999994 C 346.0628400000001,199.30102999999994 345.3279400000001,199.81102999999993 345.02084000000013,200.54170999999994 C 344.6556400000001,201.41063999999994 345.1297300000001,202.18315999999993 344.99551000000014,203.24286999999993 C 344.88440000000014,204.12004999999994 344.26010000000014,204.79158999999993 343.9746700000001,205.63603999999992 C 343.69064000000014,206.47629999999992 343.42950000000013,207.20054999999994 342.9001800000001,207.97853999999992 C 342.3942600000001,208.72215999999992 342.0653400000001,209.53215999999992 341.6473400000001,210.3000399999999 C 341.1895500000001,211.14103999999992 340.8782100000001,211.8597499999999 340.1386700000001,212.4000299999999 C 339.5182500000001,212.8532799999999 338.5761100000001,213.3641299999999 338.0000000000001,214.1667099999999 C 337.5506300000001,214.79272999999992 337.2580600000001,215.5602499999999 336.6000100000001,216.3640399999999 C 336.0461200000001,217.0405799999999 335.4245600000001,217.6256499999999 334.6955000000001,218.3000399999999 C 334.1328800000001,218.82046999999991 333.3340800000001,219.2778799999999 332.6526800000001,219.7000299999999 C 331.7384600000001,220.26640999999992 331.0108300000001,220.8906599999999 330.2999900000001,220.99552999999992 C 329.3653000000001,221.13343999999992 329.1208200000001,221.84080999999992 328.4791600000001,222.4791999999999 C 327.8320300000001,223.12302999999991 326.8333500000001,223.1666999999999 326.0000000000001,223.5000299999999 C 325.1666600000001,223.83335999999989 324.53302000000014,224.2378399999999 323.83066000000014,224.7160299999999 C 323.0939700000001,225.2175999999999 321.98328000000015,224.8235699999999 321.20133000000015,225.0853499999999 C 320.40165000000013,225.3530799999999 319.70057000000014,226.1419599999999 319.00001000000015,226.4791899999999 C 318.04771000000017,226.9376099999999 317.30397000000016,227.0517299999999 316.50001000000015,227.5000199999999 C 315.69947000000013,227.9463899999999 314.90882000000016,228.23396999999989 314.2428400000002,228.7045199999999 C 313.52412000000015,229.2123199999999 312.81392000000017,229.65551999999988 311.8000000000002,229.8785199999999 C 311.01252000000017,230.0517099999999 309.9975100000002,229.9468799999999 309.2106800000002,230.0106899999999 C 308.1585300000002,230.0960199999999 307.5476900000002,230.6281699999999 306.6787000000002,230.8785199999999 C 305.85183000000023,231.1167399999999 304.8319600000002,230.8216399999999 304.00002000000023,231.1666999999999 C 303.21566000000024,231.49202999999991 302.50017000000025,231.9873599999999 301.60003000000023,232.0000299999999 C 300.70013000000023,232.0126899999999 299.85644000000025,232.39307999999988 299.11468000000025,232.7160299999999 C 298.22332000000023,233.1041099999999 297.48403000000025,232.9986999999999 296.52087000000023,233.0000299999999 L 295.60003000000023,233.0000299999999 L 294.70004000000023,233.0000299999999" fill="none" id="svg_6" stroke="#000" stroke-width="2"/>
	<path d="M 251.0,223.0 C 252.0,224.0 252.83444,223.80405 253.7,224.05716 C 254.57764,224.31380000000001 255.30204999999998,224.91701 256.20133,225.00133000000002 C 256.88748999999996,225.06568000000001 257.84846,225.39534000000003 258.51599999999996,225.80133000000004 C 259.39768,226.33754000000005 260.09387999999996,226.93912000000003 261.00001,227.00000000000003 C 261.79819999999995,227.05363000000003 262.45149,227.33101000000002 263.16666999999995,227.83333000000002 C 263.86209999999994,228.32179000000002 264.79999999999995,228.00000000000003 265.70002999999997,228.00000000000003 C 266.63599999999997,228.00000000000003 267.48402999999996,228.00000000000003 268.34734,228.00000000000003 C 269.36402999999996,228.00000000000003 270.20002999999997,228.00000000000003 271.10002999999995,228.00000000000003 C 272.00001999999995,228.00000000000003 272.80000999999993,228.00000000000003 273.70003999999994,228.00000000000003 C 274.60002999999995,228.00000000000003 275.52086999999995,228.00000000000003 276.48403999999994,228.00000000000003 C 277.1746799999999,228.00000000000003 278.24285999999995,228.00000000000003 279.1000399999999,228.00000000000003 C 280.0000299999999,228.00000000000003 280.9304199999999,227.60695000000004 281.7146899999999,228.08533000000003 C 282.51830999999993,228.57552000000004 282.7388299999999,229.60840000000002 283.4360299999999,229.96401000000003 C 284.2065399999999,230.35700000000003 285.1523699999999,230.35943000000003 285.80000999999993,230.71601000000004 C 286.6636899999999,231.19152000000005 287.20854999999995,231.74338000000003 288.00001999999995,232.16668000000004 C 288.74879999999996,232.56715000000005 289.50001999999995,232.97918000000004 290.40000999999995,233.00001000000003 L 291.29999999999995,233.00001000000003" fill="none" id="svg_7" stroke="#000" stroke-width="2"/>
	<path d="M 293.0,233.0 C 294.16666,234.0 294.65363,234.56042 295.2955,235.3 C 295.87411000000003,235.96669 295.81021,236.83256 296.05716,237.69999 C 296.27765,238.47456000000003 297.00687,239.16253 297.39999,239.82533 C 297.80716,240.51181 298.3908,241.37283000000002 299.1,242.1 C 299.69244000000003,242.70747 300.21185,243.44126 301.1,243.87866 C 301.75442000000004,244.20094 302.57006,244.64285 303.20001,245.19867 C 303.96573,245.8743 304.68789000000004,246.09843999999998 305.08401000000003,246.80132999999998 C 305.54422000000005,247.61792999999997 305.97467000000006,248.38932999999997 306.57467,249.02532999999997 L 307.05267000000003,249.64733999999996" fill="none" id="svg_8" stroke="#000" stroke-width="2"/>
	<path d="M 303.0,234.0 C 304.16666,235.0 304.63538,235.619 305.10001,236.32117 C 305.62882,237.12033 306.25901,237.71524 307.0,238.16666999999998 C 307.71576,238.60273999999998 308.0,239.49999999999997 308.35266,240.29999999999998 L 308.87866,241.09983999999997 L 309.22134,241.87865999999997 L 309.94284,242.35715999999996" fill="none" id="svg_9" stroke="#000" stroke-width="2"/>
</svg>
