<?xml version="1.0" ?>
<svg baseProfile="full" height="480" version="1.1" width="640" xmlns="http://www.w3.org/2000/svg" xmlns:ev="http://www.w3.org/2001/xml-events" xmlns:xlink="http://www.w3.org/1999/xlink">
	<defs/>
	<path d="M 287.5,115.9 C 285.79999,115.9 284.89999,115.9 284.0,115.9 C 283.07867,115.9 282.16666,115.9 281.24933,115.9 C 280.50534,115.9 279.46933,115.9 278.61734,115.9 C 277.67465,115.9 276.98401,115.9 275.91067000000004,115.9 C 275.1,115.9 274.20001,115.9 273.29998000000006,115.9 C 272.39999000000006,115.9 271.4999900000001,115.9 270.70000000000005,115.9 C 269.79998000000006,115.9 268.88115000000005,115.73652 267.99999,115.92084000000001 C 267.14412000000004,116.09986 266.54366000000005,116.69596000000001 265.49465000000004,116.84284000000001 C 264.75640000000004,116.94621000000001 263.64281000000005,116.90001000000001 262.88534000000004,116.90001000000001 C 261.84732,116.90001000000001 261.15267000000006,116.90001000000001 260.13598,116.90001000000001 C 259.20001,116.90001000000001 258.29138,116.77601000000001 257.40017,116.90018 C 256.59829,117.01190000000001 256.11776,117.68931 255.30132,117.90135000000001 C 254.50087,118.10923000000001 253.99668,118.55576 253.11066,118.91068000000001 C 252.38672,119.20067000000002 252.49931999999998,120.30002000000002 252.49999,121.20002000000001 C 252.50066,122.09869 252.88506,122.80791 253.47466,123.32535000000001 C 254.1124,123.88505000000002 254.56264,124.66295000000001 255.26166,124.95268000000002 C 256.13018,125.31266000000001 256.81487,125.68362000000002 257.87465000000003,125.86401000000002 C 258.80858,126.02297000000002 259.55751000000004,125.73481000000002 260.47847,126.12151000000001 C 261.27556000000004,126.45621000000001 261.68141,127.40953000000002 262.59999,127.77852000000001 C 263.4427,128.11704 264.17842,128.18524000000002 264.78398,128.81601 C 265.33396999999997,129.38889 266.07472,129.60788 266.88933,129.91069000000002 C 267.62282,130.18335000000002 268.21416,130.50146 269.06397999999996,130.93602 C 269.76081999999997,131.29234000000002 270.29524,131.9944 270.99997999999994,132.40001 C 271.79779999999994,132.85919 272.6666399999999,133.06668000000002 273.49997999999994,133.40001 C 274.33331999999996,133.73335 275.1843099999999,133.99979000000002 275.5839899999999,134.70136000000002 C 275.9918899999999,135.4173 276.6999899999999,136.09868000000003 277.29995999999994,136.61469000000002 L 278.21462999999994,136.98403000000002 L 278.66662999999994,137.73336" fill="none" id="svg_1" stroke="#000" stroke-width="2"/>
	<path d="M 279.5,115.9 C 279.5,114.10000000000001 279.49472,113.29999000000001 279.5,112.4 C 279.50534,111.48929000000001 279.72827,110.58147000000001 280.0,109.9 C 280.38861,108.92541 280.62323,108.12407 281.07468,107.30000000000001 C 281.50214,106.51971000000002 281.42417,105.57644 281.66666,104.73333000000001 C 281.86228,104.05326000000001 282.05755999999997,102.93322 282.55267999999995,102.26166 C 283.01102,101.63999000000001 283.92254999999994,101.21446 284.79999,100.95716 C 285.66546999999997,100.70338 286.6221,100.70474 287.20000999999996,100.19549 C 287.94046,99.54299 288.67821999999995,99.11548 289.47914999999995,98.89999 C 290.34633999999994,98.66667 290.77397999999994,97.83409 291.14732999999995,97.19999 C 291.63340999999997,96.37439 292.52440999999993,96.26646 293.25715999999994,95.67849 C 293.9432299999999,95.12798 293.92402999999996,94.20957 294.49998999999997,93.42081999999999 C 294.96752,92.78053999999999 295.55796999999995,92.13865999999999 296.20530999999994,91.59997999999999 C 296.88334999999995,91.03575999999998 297.44755999999995,90.22608999999999 298.14665999999994,89.87464999999999 C 298.93001999999996,89.48083999999999 299.7072999999999,89.33852999999999 300.61598999999995,88.69997999999998 C 301.27833999999996,88.23453999999998 301.97230999999994,87.67145999999998 302.74666999999994,87.29997999999998 C 303.6511499999999,86.86606999999998 304.45241999999996,86.58929999999998 305.02083999999996,86.42080999999997 C 305.89471,86.16177999999998 307.09740999999997,85.98486999999997 307.67868,85.92529999999998 C 308.72952,85.81759999999998 309.71808,85.58429999999998 310.29733,85.09863999999997 C 311.04546999999997,84.47136999999998 311.84704,84.06355999999998 312.59999999999997,83.67862999999997 C 313.36317999999994,83.28846999999998 314.11803999999995,82.90884999999997 314.89998999999995,82.47463999999997 C 315.7204899999999,82.01901999999997 316.4465599999999,81.63640999999997 317.25717,81.25263999999997 C 318.10945999999996,80.84911999999997 318.84731999999997,80.90221999999997 319.87465999999995,80.89996999999997 C 320.82131999999996,80.89788999999996 321.49999999999994,80.89996999999997 322.6146499999999,80.89996999999997 C 323.49999999999994,80.89996999999997 324.29997999999995,80.89996999999997 325.2000099999999,80.89996999999997 L 326.0999999999999,80.89996999999997" fill="none" id="svg_2" stroke="#000" stroke-width="2"/>
	<path d="M 327.5,80.9 C 330.02084,80.9 331.04266,80.9 331.75067,80.9 C 332.49466,80.9 333.68567,80.9 334.6,80.9 C 335.49999,80.9 336.29998,80.9 337.20001,80.9 C 338.1,80.9 339.0,80.9 339.89999,80.9 C 340.79998,80.9 341.75729,80.73631 342.6,81.12134 C 343.26931,81.42714000000001 344.01772,81.86202 344.8045,82.25267000000001 C 345.68859000000003,82.69166000000001 346.57962000000003,82.76001000000001 347.33334,83.23334000000001 C 347.96743000000004,83.63156000000001 348.64602,84.62329000000001 349.32534000000004,84.83867000000001 C 350.31048000000004,85.15101000000001 350.97167,85.42888 351.70132000000007,86.10000000000001 C 352.25158000000005,86.60613000000001 353.0545900000001,86.99917 353.79016000000007,87.60000000000001 C 354.5348200000001,88.20827000000001 354.9699100000001,88.96356000000002 355.64932000000005,89.50000000000001 C 356.3611700000001,90.06204000000001 356.83111,90.71427000000001 357.6,91.12134000000002 C 358.35751000000005,91.52238000000001 359.15243000000004,91.94672000000001 359.55267000000003,92.60450000000002 C 360.03247000000005,93.39304000000001 360.62362,94.20386000000002 361.29998000000006,94.61467000000002 C 362.07610000000005,95.08609000000001 362.47393000000005,95.78741000000002 363.04165000000006,96.40000000000002 C 363.71038000000004,97.12159000000003 364.53225000000003,97.34981000000002 365.3333400000001,97.90000000000002 C 366.0307000000001,98.37895000000002 366.66665000000006,99.06666000000001 367.1571600000001,99.55717000000001 C 367.7106600000001,100.11067000000001 368.5069800000001,100.89315000000002 369.09548000000007,101.50000000000001 C 369.67089000000004,102.09338000000001 370.35766000000007,102.88415000000002 370.74734000000007,103.50900000000001 C 371.15118000000007,104.15658000000002 371.66372000000007,105.23481000000001 371.98532000000006,105.86800000000001 C 372.33285000000006,106.55227000000001 372.68777000000006,107.26295 373.10132000000004,107.93200000000002 C 373.85767000000004,109.15565000000002 374.29923,109.61987000000002 374.84284,110.29100000000001 C 375.49042000000003,111.09048000000001 375.98658,111.89611000000001 376.29868000000005,112.50000000000001 C 376.81226000000004,113.49375000000002 377.10532000000006,114.09737000000001 377.59983000000005,115.09984000000001 C 377.98328000000004,115.87715000000001 378.33335000000005,116.73334000000001 378.52534,117.48934000000001 L 378.92533000000003,118.30001000000001" fill="none" id="svg_3" stroke="#000" stroke-width="2"/>
	<path d="M 379.5,119.9 C 379.94666,121.74666 380.24716,122.37027 380.82166,123.32184000000001 C 381.15336,123.87126 381.7475,124.78214000000001 381.96167,125.11884 C 382.66943000000003,126.23158000000001 383.18546000000003,127.06845000000001 383.45267,127.50984000000001 C 384.00305000000003,128.41901000000001 384.28031,128.88207 384.81601,129.81734 C 385.33887,130.7302 385.82059,131.61292 386.26401,132.47467 C 386.48208999999997,132.8985 386.90625,133.74779 387.5,135.06667000000002 C 387.70386,135.51952000000003 388.10095,136.44976000000003 388.31067,136.91468 C 388.72894,137.8419 389.15537,138.74865 389.66666000000004,139.56667000000002 C 390.15473000000003,140.34752 390.71668000000005,141.02639000000002 391.23868000000004,141.67867 C 391.73258000000004,142.29581000000002 392.38529000000005,143.18509 392.82800000000003,144.07868000000002 C 393.09607000000005,144.61974 393.47296000000006,145.58394 394.00000000000006,146.37917000000002 C 394.57117000000005,147.24102000000002 395.04398000000003,147.87534000000002 395.3333400000001,148.73334000000003 C 395.5826100000001,149.47243000000003 396.0174200000001,150.25035000000003 396.4159800000001,151.10001000000003 C 396.8196700000001,151.96058000000002 397.2580800000001,152.62795000000003 397.4428400000001,153.55268000000004 C 397.5793500000001,154.23583000000005 397.5000000000001,155.27468000000005 397.5000000000001,156.22150000000005 C 397.5000000000001,156.92084000000006 397.5000000000001,157.90000000000006 397.5000000000001,158.71067000000005 C 397.5000000000001,159.58535000000006 397.5000000000001,160.58401000000006 397.5000000000001,161.40000000000006 L 397.5000000000001,162.21601000000007 L 397.5000000000001,163.21334000000007 L 397.5000000000001,164.05334000000008" fill="none" id="svg_4" stroke="#000" stroke-width="2"/>
	<path d="M 406.5,165.89999 C 405.61334,164.81599 404.84158,164.53527 404.03833,164.19549 C 403.08243,163.79115000000002 402.28051999999997,163.49104 401.72533999999996,163.33599 C 400.4335,162.97521 399.72686999999996,162.98055000000002 398.90133,162.81599 C 397.88885,162.61416 397.18728,162.13589 396.25264999999996,161.95716 C 395.34795999999994,161.78415999999999 394.49998999999997,161.89998999999997 393.52151,161.89998999999997 C 392.80449999999996,161.89998999999997 391.89999,161.89998999999997 391.0,161.89998999999997 C 390.10001,161.89998999999997 389.1955,161.89998999999997 388.1785,161.89998999999997 C 387.47916,161.89998999999997 386.5,161.89998999999997 385.70000999999996,161.89998999999997 C 384.89998999999995,161.89998999999997 383.90450999999996,161.89998999999997 382.98531999999994,161.89998999999997 C 382.02083999999996,161.89998999999997 381.19548999999995,161.89998999999997 380.17867999999993,161.89998999999997 C 379.49999999999994,161.89998999999997 378.52111999999994,161.87401999999997 377.70131999999995,161.89998999999997 C 376.79860999999994,161.92857999999998 375.99162999999993,162.38548999999998 375.20000999999996,162.85182999999998 C 374.39135999999996,163.32817999999997 373.93609,163.88973 373.62134,164.87864999999996 C 373.38074,165.63459999999998 373.18298999999996,166.57423999999997 372.79549999999995,167.24731999999997 C 372.25832999999994,168.18045999999998 371.76574999999997,168.77862999999996 371.51467999999994,169.73599999999996 C 371.31499999999994,170.49737999999996 370.9589199999999,171.32179999999997 370.4791599999999,171.87915999999996 C 369.7100899999999,172.77261999999996 369.1238399999999,173.27316999999996 368.61599999999993,173.78398999999996 C 367.84957999999995,174.55492999999996 367.23351999999994,175.04140999999996 366.74267999999995,176.09965999999997 C 366.4075399999999,176.82225999999997 366.04437999999993,177.62678999999997 365.31467,177.95065999999997 C 364.50595,178.30960999999996 364.04449999999997,178.93646999999996 363.5,179.73332999999997 C 363.02042,180.43521999999996 362.4798,181.22478999999996 362.20001,181.91432999999998 C 361.87631000000005,182.71211999999997 361.49826,183.89942 361.29999000000004,184.50131999999996 C 360.99738,185.41995999999997 360.79120000000006,186.05458999999996 360.50000000000006,187.06665999999996 C 360.29373000000004,187.78355999999997 360.09808000000004,188.53549999999996 359.89999000000006,189.31065999999996 C 359.69806000000005,190.10081999999994 359.39447000000007,191.29861999999994 359.2044900000001,192.09999999999997 C 359.0151600000001,192.89865999999998 358.82351000000006,193.69511999999997 358.66665000000006,194.89998999999997 C 358.5630100000001,195.69606999999996 358.52816000000007,196.48911999999999 358.51067000000006,197.26399999999998 C 358.4937300000001,198.01451999999998 358.4999900000001,199.41466999999997 358.4999900000001,200.06399 C 358.4999900000001,200.99549 358.4999900000001,201.89999 358.4999900000001,202.7955 C 358.4999900000001,203.66400000000002 358.4999900000001,204.73334 358.4999900000001,205.44734 C 358.4999900000001,206.35266 358.4827200000001,207.32174 358.51067000000006,208.12533 C 358.5393000000001,208.94814 358.7216700000001,209.97833 359.04165000000006,210.85833 L 359.3866500000001,211.41332 L 360.1526700000001,212.14733 L 360.8473100000001,212.65266" fill="none" id="svg_5" stroke="#000" stroke-width="2"/>
	<path d="M 362.5,214.89999 C 363.02084,217.39999 363.61499,218.21315 364.0,218.92083 C 364.31229,219.4948 364.8045,220.509 365.13599,221.17199 C 365.66666,222.23333 365.97928,222.87112 366.336,223.55067 C 366.70447,224.25262 367.06088,224.95945 367.70017,225.85716 C 368.27543000000003,226.66495999999998 368.73124,227.11935 369.66666000000004,228.06665999999998 C 370.18140000000005,228.58792999999997 370.73142,229.13026 371.27466000000004,229.71066 C 371.82218000000006,230.29560999999998 372.58454000000006,231.19516 373.04285000000004,231.7955 C 373.48505000000006,232.37472 374.07859,233.23089000000002 374.70017000000007,233.97867 C 375.29197000000005,234.69063 375.73453000000006,235.1268 376.6666600000001,236.06667 C 377.1818600000001,236.58615999999998 377.7277000000001,237.12438999999998 378.2386800000001,237.71067 C 378.74378000000013,238.29014999999998 379.3788500000001,239.18845 379.8386600000001,240.08935 C 380.1284900000001,240.65717999999998 380.6391700000001,241.753 381.1526900000001,242.44285 C 381.6488400000001,243.10936999999998 382.34599000000014,243.89147 382.7473600000001,244.50001 C 383.13780000000014,245.09199 383.82469000000015,246.09744 384.3253600000001,246.71067 C 384.8508700000001,247.3543 385.3594800000001,248.05353 385.7473600000001,248.85717 C 386.1531200000001,249.69782 386.35500000000013,250.31605 386.82167000000015,251.20033999999998 C 387.31645000000015,252.13792999999998 387.7467800000002,252.77194999999998 388.18669000000017,253.47068 C 388.66679000000016,254.23326999999998 389.1840000000002,255.06886 389.4571700000002,255.50535 C 390.0181100000002,256.40171 390.2916400000002,256.86238 390.9013500000002,257.73199999999997 C 391.7738500000002,258.97641999999996 392.0806700000002,259.35369999999995 392.7426900000002,260.03866999999997 C 393.4196300000002,260.73907999999994 393.8030500000002,261.08277 395.1666700000002,262.06669 C 395.6764400000002,262.43452 396.2364900000002,262.78748 396.8196900000002,263.15269 C 397.4204600000002,263.52891 398.04039000000023,263.90214000000003 398.6706700000002,264.27467 C 399.9321400000002,265.02028 401.1670100000002,265.73277 401.7570000000002,266.0785 C 402.3296900000002,266.4141 402.8863600000002,266.74171 403.95835000000017,267.37919 C 404.4790100000002,267.68879 404.9911900000002,267.99522 406.50001000000015,268.9 C 406.99958000000015,269.19959 407.49549000000013,269.49823999999995 408.46800000000013,270.07867999999996 C 408.9372700000001,270.35876999999994 409.82411000000013,270.89331999999996 411.00001000000015,271.56668999999994 C 411.64295000000016,271.9348499999999 412.46165000000013,272.37332999999995 412.94367000000017,272.64816999999994 C 413.9282000000002,273.2094799999999 414.72364000000016,273.72806999999995 415.27466000000015,274.07467999999994 C 416.3300800000002,274.73855999999995 417.04560000000015,275.13024999999993 417.6533200000002,275.48934999999994 C 418.4889800000002,275.98311999999993 419.12442000000016,276.53695999999997 419.8213200000002,277.22115999999994 C 420.32468000000017,277.71532999999994 421.0269800000002,278.31310999999994 421.8640100000002,278.84932999999995 C 422.6104700000002,279.32753999999994 422.9768000000002,279.99916999999994 423.8333400000002,280.89998999999995 C 424.2417300000002,281.32948999999996 425.0374100000002,281.90608999999995 425.6090100000002,282.29997999999995 C 426.4935300000002,282.90950999999995 427.1115100000002,283.28822999999994 428.0208400000002,283.94166999999993 C 428.6645500000002,284.40421999999995 429.0028000000002,284.65025999999995 430.0213300000002,285.54283999999996 C 430.7657500000002,286.19517999999994 431.1285400000002,286.55803999999995 431.87466000000023,287.28532999999993 C 432.24896000000024,287.65016999999995 433.3294600000002,288.73725999999994 434.01733000000024,289.41331999999994 C 434.34997000000027,289.74024999999995 434.99713000000025,290.38771999999994 435.70983000000024,290.93830999999994 C 436.79900000000026,291.77973999999995 437.23516000000023,291.99271999999996 438.10534000000024,292.44282999999996 C 438.54696000000024,292.67125 439.45391000000023,293.07957999999996 440.33199000000025,293.49864999999994 C 441.5635600000002,294.0864199999999 441.93688000000026,294.2870699999999 442.62798000000026,294.69999999999993 C 443.60198000000025,295.28196999999994 444.49749000000025,295.90376999999995 445.09865000000025,296.29731999999996 C 445.68691000000024,296.68238999999994 446.50832000000025,297.27027999999996 447.57814000000025,297.65714999999994 C 448.22594000000026,297.8913999999999 449.25731000000025,298.12131999999997 449.8333300000003,298.73331999999994 L 450.6493100000003,298.9253099999999" fill="none" id="svg_6" stroke="#000" stroke-width="2"/>
	<path d="M 399.5,162.89999 C 401.336,162.92134000000001 402.15421,162.98277000000002 403.10449,163.61433 C 403.77896,164.06257 404.16876,164.52391 405.18667,165.30133 C 405.73794,165.72235 406.34808,166.13402000000002 406.98666,166.58534 C 408.02346,167.31811 408.74944999999997,167.85093 409.11465,168.12533 C 409.84121,168.67123999999998 410.54534,169.1985 411.457,169.97849 C 412.24091,170.64919 412.68133,171.08664 413.5,171.89998 C 414.10196,172.49802 414.7002,173.09982 415.10001,173.49999 C 415.89768,174.29833 416.5661,174.80025 417.16666,175.73333 C 417.64304,176.47346 417.94701999999995,177.21777 418.5,177.89999 C 419.172,178.72905 419.39841,179.47239 420.06799,180.1 C 420.71158,180.70323 421.33767,181.39388 421.94265,181.99999 C 422.55419,182.61267999999998 423.23394,183.14789 423.66665,183.89998 C 424.06402,184.59064 424.82131,185.22131 425.32534,185.72532999999999 C 426.01597999999996,186.41597 426.77871,187.11733999999998 427.19549,187.65265 C 427.86538,188.51305 428.08602,189.14722 428.8215,190.09999 C 429.30447000000004,190.72565 429.90451,191.29999999999998 430.5,191.89998 C 431.10001,192.5045 431.7244,193.11556 432.5,194.06665 C 432.91327,194.57344 433.2912,195.13181 433.89999,195.94733000000002 C 434.49151,196.73972000000003 435.07199,197.46695000000003 435.70001,198.05332 C 436.46744,198.76986000000002 437.1745,199.049 437.78567000000004,199.65265000000002 C 438.43383000000006,200.29282000000003 438.55633000000006,201.18428000000003 439.07467,201.91466000000003 C 439.56039000000004,202.59908000000001 440.18618000000004,203.32234000000003 440.44283,204.19998000000004 C 440.69594,205.06555000000003 440.34282,206.03782000000004 440.58532,206.69998000000004 C 440.91445000000004,207.59868000000003 442.44778,208.23547000000005 442.08117000000004,208.84282000000005 C 441.61367000000007,209.61731000000003 440.45834,208.89998000000006 439.33334,208.89998000000006 C 438.55182,208.89998000000006 437.76132,208.89998000000006 436.64282000000003,208.89998000000006 C 435.88534000000004,208.89998000000006 435.01599000000004,208.89998000000006 434.15268000000003,208.89998000000006 C 433.25717000000003,208.89998000000006 432.29999000000004,208.89998000000006 431.39999000000006,208.89998000000006 C 430.50000000000006,208.89998000000006 429.7815800000001,209.34615000000005 430.66665000000006,209.73332000000005 C 431.30505000000005,210.01259000000005 432.21502000000004,210.00511000000006 433.1853300000001,210.47198000000006 C 433.75506000000007,210.74612000000005 434.33688000000006,211.12402000000006 435.50000000000006,212.06665000000007 C 436.11707000000007,212.56673000000006 436.40082000000007,212.86226000000008 437.04166000000004,213.39998000000006 C 437.706,213.95741000000007 438.82492,214.74816000000007 439.66666000000004,215.21599000000006 C 440.09665,215.45499000000007 440.98194,215.89470000000006 441.41333000000003,216.12532000000007 C 442.2522,216.57378000000008 443.36032000000006,217.29488000000006 443.92850000000004,217.85265000000007 C 444.46189000000004,218.37626000000006 445.07749000000007,219.23102000000006 445.70001,219.97849000000008 C 446.28299000000004,220.67849000000007 446.90002000000004,221.29548000000008 447.5,221.89998000000008 C 448.09552,222.49997000000008 448.71075,223.06310000000008 449.33334,223.89998000000008 C 449.89752000000004,224.65836000000007 450.17736,225.4265800000001 450.47467,226.2639900000001 C 450.81241,227.21525000000008 451.08508,228.0497000000001 451.66666,228.7333200000001 C 452.23325,229.3993400000001 453.12302,229.6497500000001 453.47916,230.4208200000001 C 453.84803,231.21948000000012 453.784,232.0999900000001 454.33335,232.8999800000001 L 454.55268,233.5999900000001 L 455.00001000000003,234.3999800000001 L 455.44285,235.19998000000012" fill="none" id="svg_7" stroke="#000" stroke-width="2"/>
	<path d="M 452.5,237.89999 C 453.60983,239.6 454.20407,240.21836 454.909,240.6 C 455.88514,241.12846 456.59238,241.3348 457.33335,242.23333 C 457.84339,242.85183 457.98618,243.47724 458.55466,244.30267 C 459.2038,245.24521000000001 459.86728,245.81321 460.19733,246.132 C 460.89658000000003,246.80738 461.3068,247.12904 462.33335,248.39999 C 462.69697,248.85019 463.34891,249.86792 463.66401,250.40800000000002 C 463.98539,250.95890000000003 464.29398000000003,251.52957 464.5955,252.11349 C 465.51423,253.89273 465.79985,254.49966 466.09867,255.09733 C 466.39551,255.69099 466.68934,256.27865 467.26401000000004,257.428 C 467.54285000000004,257.98565 467.81543000000005,258.52895 468.57834,260.05681 C 468.81357,260.52788 469.25894000000005,261.41463 469.65332,262.24266 C 470.01855,263.00951 470.48474,264.07585 470.74283,264.73833 C 471.09799000000004,265.64998 471.28385000000003,266.21938 471.69867000000005,267.21334 C 472.05145000000005,268.05868000000004 472.36176000000006,269.0299 472.58402000000007,269.78399 C 472.86814000000004,270.74801 473.30124000000006,271.41607 473.7955100000001,272.14282000000003 C 474.3785500000001,273.00009000000006 474.5601000000001,273.71557 475.1106700000001,274.53601000000003 C 475.5798500000001,275.23517000000004 476.1002000000001,275.85895000000005 476.3785200000001,276.87851 C 476.5968100000001,277.67816 476.5000100000001,278.60001 476.5000100000001,279.5 C 476.5000100000001,280.39999 476.3834900000001,281.30814 476.50450000000006,282.20001 C 476.6159200000001,283.02133000000003 477.3518200000001,283.66864000000004 477.4955300000001,284.6 C 477.6306000000001,285.47531000000004 477.3069900000001,284.77590000000004 476.79552000000007,284.20001 C 476.1352100000001,283.45654 475.5074000000001,282.72873000000004 475.1000200000001,282.08532 C 474.7071100000001,281.46478 473.8836800000001,280.91567000000003 473.1000200000001,280.47466000000003 C 472.2831300000001,280.01494 471.5290700000001,279.54400000000004 471.5000100000001,279.70266000000004 C 471.3383600000001,280.58532 471.4857300000001,281.55239000000006 471.7853500000001,282.38665000000003 C 472.0647700000001,283.16470000000004 472.5173400000001,284.06039000000004 472.7955100000001,284.85265000000004 C 473.0819800000001,285.66857000000005 473.2126500000001,286.21639000000005 473.4518500000001,287.43831000000006 C 473.6085300000001,288.2386000000001 474.1165500000001,288.96538000000004 474.6493300000001,289.5253200000001 C 475.4043700000001,290.3188400000001 475.40339000000006,291.07952000000006 475.50135000000006,292.0146700000001 C 475.5951600000001,292.91039000000006 476.19682000000006,293.5804700000001 476.50001000000003,294.4208300000001 C 476.84080000000006,295.3653800000001 477.19502000000006,296.03951000000006 477.41468000000003,297.0146700000001 C 477.61015000000003,297.8823500000001 477.50001000000003,298.7000000000001 477.50001000000003,299.6000000000001 C 477.50001000000003,300.4999900000001 477.50001000000003,301.39999000000006 477.50001000000003,302.29998000000006 C 477.50001000000003,303.20000000000005 477.78086,304.14501000000007 477.49986,304.99966000000006 C 477.30955,305.5785200000001 476.33531,305.05636000000004 475.47917,304.89999000000006 C 474.50209,304.72152000000006 473.89512,304.54379000000006 473.04286,304.19549000000006 C 472.07774,303.8010500000001 471.24534,303.4914800000001 470.61735000000004,303.29998000000006 C 469.93080000000003,303.0906300000001 468.75926000000004,302.7924100000001 467.89918000000006,302.6044800000001 C 467.0225300000001,302.4129200000001 466.58930000000004,302.3207300000001 465.75334000000004,302.1853200000001 C 464.36122000000006,301.9598300000001 463.58351000000005,301.9104200000001 462.52153000000004,301.8999800000001 C 461.70137000000005,301.8919200000001 460.86403,301.8999800000001 459.84734000000003,301.8999800000001 C 459.15270000000004,301.8999800000001 458.13601000000006,301.8999800000001 457.20003,301.8999800000001 L 456.30001000000004,301.8999800000001" fill="none" id="svg_8" stroke="#000" stroke-width="2"/>
	<path d="M 282.5,145.89999 C 287.11383,157.542 287.33316,158.0883 287.74533,158.86799 C 288.18402000000003,159.69787 288.50763,160.51579999999998 289.16666000000004,161.56665999999998 C 289.60099,162.25922999999997 289.91004000000004,162.61113999999998 290.50000000000006,163.39998999999997 C 290.79834000000005,163.79891999999998 291.44284000000005,164.51502999999997 292.1600000000001,165.75733999999997 C 292.5879800000001,166.49871999999996 293.0483700000001,167.11503999999996 293.66665000000006,167.73333999999997 C 294.28494000000006,168.35163999999997 295.10909000000004,168.80535999999998 294.8786600000001,168.28933999999998 C 294.5418700000001,167.53518999999997 293.7000100000001,167.10000999999997 293.00000000000006,166.39999999999998 C 292.39999000000006,165.80001 291.79999000000004,165.2 291.11066000000005,164.50000999999997 L 290.62134000000003,163.80017999999998" fill="none" id="svg_9" stroke="#000" stroke-width="2"/>
</svg>
