<?xml version="1.0" ?>
<svg baseProfile="full" height="480" version="1.1" width="640" xmlns="http://www.w3.org/2000/svg" xmlns:ev="http://www.w3.org/2001/xml-events" xmlns:xlink="http://www.w3.org/1999/xlink">
	<defs/>
	<path d="M 171.0,168.0 C 171.35716,164.46617 171.70334,163.71762 172.38933,163.06134 C 172.99898,162.4781 173.44286,161.7762 173.97467,161.01466 C 174.44949,160.33472999999998 174.74686,159.52499 175.32133,158.57881999999998 C 175.6444,158.04672999999997 176.16392,157.25369999999998 176.516,156.76932999999997 C 177.22163,155.79856999999996 177.79836,155.20236999999997 178.49999,154.49999999999997 C 179.09975,153.89957999999996 179.72857,153.26168999999996 180.19998999999999,152.51600999999997 C 180.6265,151.84136999999996 181.06883,150.99421999999996 181.69998999999999,150.30450999999996 C 182.28142999999997,149.66911999999996 182.95981999999998,149.09991999999997 183.76933,148.51600999999997 C 184.25499,148.16569999999996 185.03975,147.63256999999996 186.0785,147.02149999999997 C 186.75637,146.62273999999996 187.40131,146.31591999999998 188.39999,145.79865999999998 C 189.0036,145.48602 189.62407,145.14505 190.6,144.34733999999997 C 191.21574999999999,143.84402999999998 191.97941,143.13461999999998 192.5955,142.76167999999998 C 193.32063,142.32271999999998 194.27261,142.10761 194.96932999999999,141.83067999999997 C 195.79996,141.50052999999997 196.49698999999998,140.95282999999998 197.31733999999997,140.56799999999998 C 198.28971999999996,140.11184999999998 198.99571999999998,140.09536999999997 199.99999999999997,139.83334 C 200.80700999999996,139.62277 201.51412999999997,139.1979 202.38532999999998,138.60002 C 202.96895999999998,138.19949 203.75981,137.76953 204.54166999999998,137.52084 C 205.39228999999997,137.25029 206.59767,137.07161 207.18932999999998,137.03601 C 208.04187,136.98471 209.07865999999999,137.00001 209.99999999999997,137.00001 C 210.68400999999997,137.00001 211.68665999999996,137.00001 212.54166999999998,137.00001 C 213.48665999999997,137.00001 214.52115999999998,137.00001 215.24817,137.00001 C 215.97916999999998,137.00001 217.03067,137.00001 217.95734,137.00001 C 218.74933,137.00001 219.50534,137.00001 220.64266999999998,137.00001 C 221.65067,137.00001 222.34933999999998,137.00001 223.03199999999998,137.00001 C 224.23199999999997,137.00001 224.99999999999997,137.00001 225.76800999999998,137.00001 C 226.96800999999996,137.00001 227.65066999999996,137.00001 228.34933999999998,137.00001 C 229.66667999999999,137.00001 230.49017999999998,137.00001 231.21466999999998,137.00001 C 232.16667999999999,137.00001 232.95268,137.00001 233.77468,137.00001 C 234.83333,137.00001 235.77379,136.93766 236.59867,137.08534 C 237.62002,137.26819 238.20042,137.60983 239.20016999999999,138.10002 C 239.81092999999998,138.39949000000001 240.68000999999998,138.81357 241.68400999999997,139.20001 C 242.22256999999996,139.40732 243.05999999999997,139.66881999999998 244.07833999999997,140.10019 C 244.76246999999998,140.38998 245.58633999999998,140.82204 246.24282999999997,141.65268 C 246.75693999999996,142.30319 247.18458999999996,143.1335 247.67199999999997,143.66135 C 248.51260999999997,144.57172 249.00982999999997,145.00985 249.52082999999996,145.52085 C 250.05183999999997,146.05186 250.84109999999995,146.82572 251.53832999999997,147.54285 C 252.16033999999996,148.18262 252.85615999999996,148.98505999999998 253.24282999999997,149.60002 C 253.61162999999996,150.18657 254.07564999999997,151.21339 254.52082999999996,152.00001 C 254.86660999999995,152.611 255.48373999999995,153.40274 256.02084999999994,154.02084 C 256.5995899999999,154.68686 257.20474999999993,155.41786 257.7999899999999,156.22534 C 258.20321999999993,156.77233999999999 258.5785199999999,157.33359 259.3986799999999,158.31467999999998 C 259.9645999999999,158.99164 260.3943199999999,159.35795 261.1159999999999,160.40134999999998 C 261.53060999999985,161.00078 261.87325999999985,161.69187999999997 262.4840099999999,162.68401999999998 C 262.8194899999999,163.22898999999998 263.3558999999999,164.04210999999998 263.8333399999999,164.83333999999996 C 264.2641299999999,165.54720999999995 264.6800199999999,166.27397999999997 265.0546499999999,166.76933999999997 C 265.73326999999995,167.66661999999997 266.3590899999999,168.30031999999997 266.97914999999995,169.00000999999997 C 267.59041999999994,169.68977999999998 267.86265999999995,170.03200999999999 268.65999999999997,171.22668 L 268.99334,172.10667999999998 L 269.35265,172.89016999999998" fill="none" id="svg_1" stroke="#000" stroke-width="2"/>
	<path d="M 172.0,168.0 C 168.81433,170.23833 167.95947,170.72899 167.2,171.084 C 166.37743999999998,171.46851 165.69262999999998,171.80191 164.80132999999998,172.00133 C 163.99428999999998,172.18189999999998 163.52599999999998,172.89376 162.79999999999998,173.284 C 161.94521999999998,173.74347 161.45236999999997,174.44608 160.71465999999998,174.91468 C 160.02335999999997,175.3538 159.13031999999998,175.32070000000002 158.57466,175.97468 C 158.08052999999998,176.55622 158.28996,177.39312 159.09984,177.87867 C 159.82961,178.31619 160.39169,178.90044 160.97467,179.42535 C 161.56384,179.95582000000002 162.31793,180.58915000000002 163.10001,180.87851 C 163.95174,181.19363 164.80001,180.9976 165.75718,181.00002 C 166.65269,181.00228 167.54806,181.01436 168.36401,181.42536 C 169.13594,181.81418000000002 170.00088,181.96282000000002 170.80001000000001,182.00002 C 171.71764000000002,182.04273 172.23209000000003,182.81769 173.09985,183.00019 C 173.89203,183.1668 173.75576,184.23218 174.28401,184.91602 C 174.76872,185.54352 175.00001,186.30002 175.00001,187.20002 C 175.00001,188.10003 174.90852,189.01256999999998 175.05717,189.75719 C 175.24179,190.68193000000002 175.62562000000003,191.3546 175.97468,192.36402 C 176.26600000000002,193.20646000000002 176.84448,193.76848 176.98934,194.63602 C 177.15681,195.6389 176.95576,196.38745 177.35267,197.24285 C 177.77600999999999,198.15517 177.99934,198.88535000000002 178.00001,199.83602 C 178.00054,200.60136 178.00001,201.60003 178.00001,202.40001999999998 C 178.00001,203.40001999999998 178.00001,204.20002 178.00001,205.19985999999997 C 178.00001,205.97919999999996 178.00001,206.97869999999998 178.00001,207.75269999999998 C 178.00001,208.65268999999998 178.00001,209.51603999999998 178.00001,210.50002999999998 C 178.00001,211.32152999999997 178.00001,212.21068999999997 178.00001,213.19985999999997 C 178.00001,213.97919999999996 178.00193000000002,214.97869999999998 178.00001,215.75269999999998 C 177.99775,216.65720999999996 178.00433,217.42055999999997 177.71601,218.40001999999998 C 177.47565,219.21654999999998 177.12719,220.20093999999997 177.00001,221.00002999999998 C 176.84066,222.00122 176.5464,222.79030999999998 176.35267,223.40001999999998 C 176.03884,224.38778 176.00535,225.23596999999998 176.00001,226.1667 C 175.99548000000001,226.95718 176.00134,227.8107 176.00001,229.00002999999998 C 175.99934,229.59736999999998 176.12712,230.48557999999997 175.83334,231.6667 C 175.65954,232.36548 175.14093,233.16217999999998 175.00001,234.0417 C 174.8971,234.68393999999998 174.71601,235.68402999999998 174.50001,236.50002999999998 C 174.28401,237.31601999999998 174.11334,238.31885999999997 173.97468,239.18936 C 173.81274000000002,240.20604 173.46388000000002,240.98823 173.28401,241.60004 C 172.99325,242.58898000000002 172.98501,243.46456 172.77868,244.42121 C 172.60595,245.22208 172.31213,245.9806 172.08401,247.03203 C 171.91751,247.79949 171.71601,248.76803999999998 171.50001,249.50002999999998 C 171.28401,250.23201999999998 171.08792,251.35573999999997 170.83334,252.1667 C 170.56453,253.02302 170.16667999999999,253.83336 170.00450999999998,254.69552 L 170.00000999999997,255.60002999999998 L 169.97917999999999,256.50001999999995" fill="none" id="svg_2" stroke="#000" stroke-width="2"/>
	<path d="M 171.0,256.0 C 171.66417,258.42801 172.06044,259.41684 172.28667,259.952 C 172.51871,260.50088999999997 172.99257,261.5871 173.23334,262.09601 C 173.84029999999998,263.37897 174.42757,264.12393 174.83333,265.0 C 175.14163,265.66565 175.4708,266.41568 175.88666999999998,267.056 C 176.52175999999997,268.03380999999996 176.84129,268.71143 177.17466,269.46799 C 177.53331999999997,270.28192 177.84913,271.16195999999997 178.11466,272.08133 C 178.37985999999998,272.99957 178.47358,273.45975 178.69548999999998,274.33301 C 178.99253,275.50192 179.27695999999997,276.43827 179.59999999999997,277.168 C 179.97369999999998,278.01215 180.39865999999998,278.81723 180.75716999999997,279.45715 C 181.30324999999996,280.43185 181.66332999999997,280.95071 182.17466999999996,281.81067 C 182.52332999999996,282.39703000000003 183.11477999999997,283.59921 183.37466999999995,284.18933000000004 C 183.75090999999995,285.04364000000004 184.13757999999996,285.85422000000005 184.65716999999995,286.54733000000004 C 185.18215999999995,287.24765 185.62025999999994,287.66916000000003 186.39999999999995,288.68399000000005 C 186.81010999999995,289.21774000000005 187.38293999999996,290.0606700000001 188.00000999999995,290.8333400000001 C 188.58414999999994,291.5647900000001 189.02800999999994,291.99923000000007 189.60001999999994,292.76934000000006 C 190.23178999999993,293.61996000000005 190.60001999999994,294.30532000000005 191.00000999999995,294.9999900000001 C 191.39999999999995,295.69466000000006 191.98038999999994,296.6811100000001 192.39999999999995,297.22933000000006 C 192.97387999999995,297.97909000000004 193.59932999999995,298.59798000000006 194.39999999999995,299.3999800000001 C 194.79966999999994,299.8003100000001 195.39997999999994,300.3999800000001 196.19999999999996,301.2000000000001 C 196.79998999999995,301.7999800000001 197.39790999999997,302.4020900000001 198.20033999999995,303.2001500000001 C 198.60794999999996,303.6055500000001 199.26478999999995,304.2441300000001 199.77066999999997,304.6853200000001 C 200.63063999999997,305.4353500000001 201.30533999999997,305.9526500000001 202.00000999999997,306.4999900000001 C 202.69467999999998,307.04732000000007 203.67096999999998,307.8283600000001 204.23067999999998,308.31466000000006 C 204.74263999999997,308.75948000000005 205.43404999999998,309.41271000000006 206.16667999999999,309.9999900000001 C 206.93822999999998,310.6184600000001 207.50578,310.99221000000006 208.04734,311.3999800000001 C 209.09016,312.1851700000001 209.54147,312.6124700000001 210.26134,313.2000000000001 C 210.76227,313.6088100000001 211.96318,314.4047400000001 212.64,314.7893200000001 C 213.30995,315.1700300000001 213.97545,315.46922000000006 214.94666999999998,316.1159800000001 C 215.66272999999998,316.5928200000001 216.32834,317.1736300000001 217.01432999999997,317.6571500000001 C 217.53791999999999,318.02620000000013 218.40255999999997,318.6014600000001 219.30001,319.2000000000001 C 219.89991999999998,319.6001200000001 220.50000999999997,319.9999900000001 221.39999999999998,320.5999900000001 C 222.30001,321.2000000000001 222.89999999999998,321.5999900000001 223.50000999999997,321.9999800000001 C 224.10001999999997,322.3999700000001 225.30279,323.1960600000001 225.89999999999998,323.6044700000001 C 226.50283,324.0167300000001 227.11575999999997,324.4376000000001 228.00000999999997,325.1666300000001 C 228.60983,325.6694100000001 229.18294999999998,326.2217400000001 229.76402,326.7386500000001 C 230.82187,327.6796900000001 231.30557,328.0469700000001 232.00000999999997,328.4791300000001 C 232.67426999999998,328.89872000000014 233.68755999999996,329.4818500000001 234.23599999999996,329.8359700000001 C 235.10805999999997,330.39902000000006 235.99937999999997,331.00092000000006 236.59866999999997,331.3986500000001 C 237.18870999999996,331.79025000000007 238.03090999999998,332.3626700000001 239.07850999999997,332.97845000000007 C 239.75652999999997,333.37698000000006 240.39808999999997,333.6903300000001 241.40133999999998,334.2012900000001 C 242.02245999999997,334.5176400000001 242.69563999999997,334.8685000000001 243.68400999999997,335.4852900000001 C 244.23118999999997,335.82675000000006 245.06278999999998,336.38461000000007 245.83332999999996,336.9999700000001 C 246.56702999999996,337.58591000000007 247.01575999999997,338.0265500000001 247.50982999999997,338.4571200000001 C 248.63131999999996,339.43448000000006 248.96687999999997,339.6853900000001 249.65066999999996,340.2253100000001 C 250.34819999999996,340.77609000000007 251.04382999999996,341.3018500000001 251.95683999999997,342.0783100000001 C 252.48817999999997,342.5301800000001 253.13736999999998,343.1587200000001 253.97883999999996,343.9786400000001 C 254.51745999999997,344.5034500000001 255.33116999999996,345.1696200000001 256.00982999999997,345.6571400000001 C 256.51923,346.0230800000001 257.33593999999994,346.57837000000006 258.07849,347.2001400000001 C 258.78229,347.7894600000001 259.21704,348.2125600000001 260.0,349.1666300000001 C 260.41367,349.67072000000013 260.97379,350.4830100000001 261.34283,350.9901500000001 C 262.10495,352.0374200000001 262.59454,352.62250000000006 263.3215,353.0999800000001 C 263.99487,353.5422700000001 265.0104,353.98032000000006 265.79999000000004,354.4106500000001 C 266.40839000000005,354.7422200000001 267.19742,355.3246200000001 267.81067,355.8253200000001 C 268.45429,356.3508000000001 269.42117,356.9783000000001 270.21466000000004,357.3533000000001 L 270.73868000000004,357.5533100000001 L 271.85684000000003,357.8786300000001 L 272.71200000000005,358.0839800000001" fill="none" id="svg_3" stroke="#000" stroke-width="2"/>
	<path d="M 209.0,229.0 C 209.94284,233.12849 209.81673,234.15428 210.16667,235.0 C 210.49133,235.78462 210.93049000000002,236.53441 211.35716000000002,237.30901 C 211.74165000000002,238.00705 212.19999,238.76801 212.50000000000003,239.5 C 212.80000000000004,240.23199 213.30202000000003,241.19652 213.75717000000003,241.80533 C 214.48007000000004,242.77228 214.83615000000003,243.25429 215.34733000000003,244.05184 C 215.84393000000003,244.82664 216.23994000000002,245.5515 216.75266000000002,246.45267 C 217.16080000000002,247.17003000000003 217.65310000000002,247.96305 218.04166,248.52083000000002 C 218.45269000000002,249.11086000000003 219.16213000000002,250.00392000000002 219.68265,250.60001000000003 C 220.21009,251.20401000000004 220.80724999999998,251.74996000000002 221.66666,253.00000000000003 C 222.06359,253.57736000000003 222.31401,254.20160000000004 222.74816,255.04283000000004 C 223.29113,256.09491 223.6527,256.55099 224.21065000000002,257.22534 C 224.99378000000002,258.17184000000003 225.40653,258.68063 225.79999,259.23599 C 226.41022,260.09732 226.99909,261.00061 227.40132,261.60132 C 227.80974,262.21127 228.23193,262.83880999999997 228.68532,263.48532 C 229.41484,264.52557 229.94269,265.2514 230.49999,265.95834 C 231.03782,266.64059000000003 231.81395,267.52188 232.31466,267.94534000000004 C 232.95565,268.48742000000004 233.62934,268.84271000000007 234.39866,269.48532000000006 C 235.00482,269.9916400000001 235.84596000000002,270.9914800000001 236.24732,271.60001000000005 C 236.63778,272.19199000000003 237.1422,273.02103000000005 237.66166,273.60001000000005 C 238.22129,274.22376 239.16187000000002,275.00629000000004 239.68400000000003,275.40000000000003 C 240.49269000000004,276.00980000000004 241.06159000000002,276.38175 241.83332000000001,277.00001000000003 C 242.56118,277.58314 243.2168,278.21000000000004 243.68400000000003,278.60002000000003 C 244.66787000000002,279.4214 245.23281000000003,279.80461 245.81066,280.20003 C 246.99357,281.00948000000005 247.5969,281.40135000000004 248.18932,281.78935 C 249.04032,282.34669 249.82697000000002,282.84456 250.54282,283.24284 C 251.18380000000002,283.59947 252.21337,284.07566 252.99999,284.52086 C 253.61097,284.86665000000005 254.38663,285.5045 255.04166,286.00002 C 255.75394,286.53884 256.63607,286.99572 257.30532,287.24285000000003 C 257.99363999999997,287.49703000000005 259.03938999999997,287.77691000000004 259.95733,288.10003000000006 C 260.75619,288.38122000000004 261.49627000000004,288.7268000000001 262.64282000000003,289.10003000000006 C 263.30496000000005,289.31558000000007 264.02118,289.49874000000005 264.75183000000004,289.70004000000006 C 265.83386,289.99814000000003 266.84393000000006,290.29657000000003 267.47916000000004,290.50003000000004 C 268.4003,290.79504000000003 269.30426000000006,291.08807 270.20002000000005,291.41071000000005 C 270.8029900000001,291.62790000000007 272.00385000000006,292.15952000000004 272.6040100000001,292.48536000000007 C 273.2361200000001,292.82853000000006 273.89805000000007,293.2303600000001 274.6560100000001,293.60136000000006 C 275.9481200000001,294.23381000000006 276.4513000000001,294.40409000000005 276.9625000000001,294.59553000000005 C 278.0167600000001,294.99034000000006 278.5571400000001,295.17298000000005 279.6333400000001,295.51472000000007 C 280.6639800000001,295.84199000000007 281.6282100000001,296.11885000000007 282.5280200000001,296.3640500000001 C 282.9578000000001,296.48118000000005 283.7907200000001,296.69657000000007 285.00000000000006,297.00004000000007 C 285.79980000000006,297.2007500000001 286.60001000000005,297.40006000000005 287.39999000000006,297.60005000000007 C 288.2000100000001,297.8000600000001 289.40145000000007,298.09459000000004 290.2000100000001,298.30455000000006 C 291.0014900000001,298.51527000000004 291.80847000000006,298.7331700000001 293.00000000000006,299.16670000000005 C 293.40335000000005,299.31346 294.20944000000003,299.65620000000007 295.04166000000004,300.02089000000007 C 295.9148,300.40352000000007 296.36350000000004,300.61931000000004 297.84269000000006,301.19988000000006 C 298.3655800000001,301.40511000000004 299.44990000000007,301.7916200000001 300.0000100000001,301.9792100000001 C 300.5485900000001,302.1662800000001 301.6298000000001,302.52193000000005 302.66667000000007,302.8334000000001 C 303.63002000000006,303.1227700000001 304.09468000000004,303.2474000000001 305.0000100000001,303.5000600000001 C 305.9053400000001,303.75272000000007 307.3337800000001,304.1653100000001 307.84269000000006,304.3213800000001 C 308.36848000000003,304.4826300000001 309.45060000000007,304.8255600000001 310.0000100000001,305.0000600000001 C 311.09458000000006,305.34769000000006 311.6288600000001,305.5265500000001 313.1570200000001,305.9785500000001 C 313.6283900000001,306.1179500000001 314.5270800000001,306.3677100000001 315.3786700000001,306.5893900000001 C 316.1964200000001,306.8022500000001 317.39863000000014,307.1055900000001 318.2000200000001,307.2955700000001 C 318.9987000000001,307.4849000000001 319.7960300000001,307.6697200000001 321.0000100000001,307.83341000000013 C 321.3989100000001,307.88764000000015 322.2000200000001,307.94739000000015 323.0000100000001,308.0000700000001 C 323.80000000000007,308.0527400000001 325.0021200000001,308.1533000000001 325.8040000000001,308.2854100000001 C 326.63441000000006,308.42222000000015 327.5070300000001,308.61567000000014 328.4560100000001,308.8014000000001 C 329.49898000000013,309.0055000000001 330.0634600000001,309.1033700000001 331.2580100000001,309.3000600000001 C 331.87575000000015,309.4017800000001 332.5004100000001,309.4976900000001 333.74202000000014,309.70008000000007 C 334.34819000000016,309.79890000000006 335.50105000000013,309.99464000000006 336.54402000000016,310.19874000000004 C 337.49299000000013,310.38447 337.93480000000017,310.494 338.78651000000013,310.64289 C 339.9965300000001,310.85444 340.79936000000015,310.92670000000004 341.60002000000014,310.96406 C 342.39955000000015,311.00135 343.20003000000014,310.99623 344.4000100000001,311.00022 C 345.20003000000014,311.00288 346.00105000000013,311.00266 346.8000000000001,311.05723 C 348.0022100000001,311.13932 348.8007000000001,311.28019 349.60002000000014,311.42539 C 350.4007100000001,311.57087 351.19600000000014,311.74924 352.40034000000014,311.87858 C 353.2069500000001,311.96519 354.0415800000001,311.98438 354.9143500000001,311.99558 C 355.3706500000001,312.00144 356.8426900000001,312.00007 357.3680200000001,312.00007 C 358.45066000000014,312.00007 359.0000100000001,312.00007 360.0946700000001,312.00007 C 360.63199000000014,312.00007 362.1570800000001,311.99369 363.0856700000001,312.00455999999997 C 363.9584400000001,312.01478 364.7938000000001,312.02970999999997 366.0000100000001,312.16673 C 366.40098000000006,312.21229 367.1953200000001,312.35371 368.3640200000001,312.57475 C 369.1145400000001,312.71668999999997 370.1783500000001,312.88743 370.8608500000001,312.9474 C 371.5617800000001,313.00901 372.3257500000001,313.0355 373.66667000000007,313.16673000000003 C 374.7387800000001,313.27165 375.3156000000001,313.35411000000005 375.9120000000001,313.43608 C 377.13560000000007,313.60426 377.7473000000001,313.69978 378.3493500000001,313.80141 C 380.0380100000001,314.08646999999996 380.54485000000005,314.20124999999996 381.5026700000001,314.38942 C 382.40355000000005,314.56642 382.8391600000001,314.67735 384.16667000000007,314.83342 C 385.08418000000006,314.9413 386.0469500000001,314.98158 386.54167000000007,315.02092 C 387.5623300000001,315.10206999999997 388.09501000000006,315.12358 389.72102000000007,315.44292 C 390.2846800000001,315.55361 390.84706000000006,315.69802000000004 391.9583600000001,316.02092 C 392.50441000000006,316.17958 393.5456700000001,316.51643 394.50002000000006,316.83342 C 395.34432000000004,317.11385 396.0920300000001,317.36409 397.0865100000001,317.69557 C 398.00002000000006,318.00007 398.9000200000001,318.30006 399.50002000000006,318.50007 C 400.40001000000007,318.80006 401.3038200000001,319.0882 402.17870000000005,319.40006 C 402.98967000000005,319.68912 403.85701000000006,320.09989 404.57869000000005,320.56406 L 405.37868000000003,320.96405" fill="none" id="svg_4" stroke="#000" stroke-width="2"/>
	<path d="M 270.0,173.0 C 271.60001,173.57466 272.58157,173.91463 273.0,174.52083 C 273.48816,175.22808999999998 273.8591,176.16181999999998 273.97467,176.84667 C 274.11563,177.68194 274.27801,178.68431999999999 274.5,179.47917999999999 C 274.71033,180.23227999999997 274.84586,181.3852 275.28534,182.20135 C 275.61539000000005,182.8143 276.30801,183.6529 276.60001,184.21067 C 277.11405,185.19253 277.53412,185.95841 277.83335,186.83334 C 278.10334,187.62279999999998 278.67121,188.283 279.22135,188.87867 C 279.80960999999996,189.51562 280.52414999999996,189.8849 281.20133,190.568 C 281.71238,191.08350000000002 282.31241,191.79098000000002 283.21067,192.01467000000002 C 284.19147,192.25892000000002 284.83244,192.39226000000002 285.60001,192.88668 C 286.44092,193.42834000000002 287.01072,194.03266000000002 287.68534,194.60134000000002 C 288.41065,195.21274000000003 288.94416,195.60802 289.77466,196.16401000000002 C 290.31064,196.52282000000002 291.32578,197.10125000000002 292.0,197.52084000000002 C 292.69443,197.95300000000003 293.68784,198.76657000000003 294.23599,199.26135000000002 C 294.81332000000003,199.78244 295.38766000000004,200.33378000000002 296.29983000000004,201.07867000000002 C 296.8869,201.55807000000001 297.49661000000003,201.97911000000002 298.04284000000007,202.45268000000002 C 299.11422000000005,203.38151000000002 299.5424100000001,203.94853 299.97915000000006,204.47918 C 300.59805000000006,205.23118000000002 301.3936100000001,206.04241000000002 302.0208400000001,206.50001 C 302.6774300000001,206.97903 303.4260500000001,207.53767 303.95715000000007,208.00984 C 304.5257500000001,208.51536 305.0866700000001,209.07274999999998 306.00000000000006,209.83334 C 306.88766000000004,210.57255 307.5242600000001,211.01642999999999 308.15717000000006,211.50984 C 308.4871300000001,211.76706 309.5250300000001,212.63861 310.25266000000005,213.30534 C 310.62726000000004,213.64859 311.37171000000006,214.35258 311.74735000000004,214.69468 C 312.82493000000005,215.67602 313.51133000000004,216.23499 314.16401,216.73867 C 314.78617,217.21880000000002 315.41462,217.66366000000002 316.30018,218.42167 C 316.91587,218.94869 317.52339,219.53909000000002 318.15717,220.16168000000002 C 318.48664,220.48533 319.52134,221.52136000000002 320.25266,222.25268000000003 C 320.62534,222.62535000000003 321.37467,223.37467000000004 321.74735,223.74734000000004 C 322.83335,224.83332000000004 323.1753,225.18157000000005 323.84283999999997,225.83834000000004 C 324.47614,226.46142000000003 325.07786,227.05886000000004 326.00001,227.83334000000005 C 326.58905999999996,228.32805000000005 327.19620999999995,228.76944000000006 327.79999999999995,229.18934000000004 C 328.39630999999997,229.60406000000003 329.60605999999996,230.39585000000005 330.21067999999997,230.82134000000005 C 330.84105,231.26496000000006 331.49989999999997,231.75365000000005 332.52119999999996,232.64267000000004 C 332.88802,232.96198000000004 333.61634999999995,233.64891000000003 333.97918,234.00000000000003 C 334.6935,234.69124000000002 335.66897,235.66440000000003 336.22936,236.23067000000003 C 336.73006,236.73664000000002 337.4067,237.43515000000002 338.00002,238.16667000000004 C 338.41247,238.67520000000005 339.00429,239.51362000000003 339.45717,240.04733000000004 C 340.14226,240.85470000000004 340.94774,241.54908000000003 341.50002,241.97917000000004 C 342.04259,242.40170000000003 343.08230000000003,243.19581000000005 343.54735,243.60000000000005 C 344.2307,244.19390000000004 345.16149,245.00681000000006 345.68669,245.40133000000006 C 346.24129,245.81793000000005 346.84807,246.23402000000007 347.48668,246.68533000000005 C 348.52360999999996,247.41815000000005 349.25279,247.95248000000004 350.00002,248.50000000000006 C 350.37475,248.77458000000004 351.11406,249.31874000000005 352.17836,250.07866000000007 C 352.83714,250.54904000000008 353.47859,250.97521000000006 354.03835,251.45267000000007 C 355.11983,252.37519000000006 355.54735,252.95267000000007 356.00002,253.50000000000006 C 356.45269,254.04733000000004 357.41463,255.08675000000005 357.95717,255.55183000000005 C 358.51390000000004,256.0290800000001 359.13432,256.47854000000007 360.00002,257.3333400000001 C 360.62084,257.94632000000007 361.19124,258.64911000000006 361.47918,259.00000000000006 C 362.04665,259.6915900000001 362.82455,260.6743200000001 363.31469,261.22934000000004 C 363.96761,261.96872 364.60265,262.59338 365.40002,263.40134000000006 C 365.80203,263.80869000000007 366.41995,264.44095000000004 367.20036999999996,265.42151000000007 C 367.61992999999995,265.94867000000005 368.02437999999995,266.5353100000001 368.51437,267.10449000000006 C 369.30611999999996,268.02420000000006 369.96457,268.6039400000001 370.65069,269.2000100000001 C 370.99829,269.5020100000001 371.7265,270.0668300000001 372.66668,271.00000000000006 C 373.24980999999997,271.5787700000001 373.73091999999997,272.18707000000006 374.1787,272.76401000000004 C 375.00539,273.8292 375.39083,274.32572000000005 376.02085999999997,275.00000000000006 C 376.45009,275.45938000000007 377.41895999999997,276.42426000000006 377.96169,276.95715000000007 C 378.53880999999996,277.52380000000005 379.15797999999995,278.1085800000001 379.48668,278.4013300000001 C 380.50989999999996,279.3126800000001 381.24708999999996,279.8968700000001 381.97916999999995,280.47915000000006 C 382.3381499999999,280.7646700000001 383.04506,281.2975400000001 383.95700999999997,282.07848000000007 C 384.74064,282.74953000000005 385.18134,283.1866300000001 386.00001,283.9999900000001 C 386.60648999999995,284.6025000000001 387.23596999999995,285.2360100000001 387.68534,285.6853200000001 C 388.42164,286.42153000000013 388.95718999999997,286.9617800000001 389.54166,287.5208300000001 C 390.15698999999995,288.1093900000001 391.16263,289.0048400000001 391.88401,289.5999900000001 C 392.25061999999997,289.9024500000001 393.00199,290.4975100000001 393.74735,291.0999900000001 C 394.11697999999996,291.3987600000001 395.18464,292.2929200000001 395.83835,292.8954900000001 C 396.46445,293.4726100000001 397.03891,294.0422500000001 397.83335,294.8333300000001 C 398.31635,295.3142900000001 398.98966,295.9907100000001 399.45267,296.3954900000001 C 400.40073,297.2243200000001 400.96472,297.5890900000001 401.77466000000004,298.2359700000001 C 402.32437000000004,298.6750300000001 403.09754000000004,299.40525000000014 403.53833000000003,299.95264000000014 C 404.18219000000005,300.75220000000013 404.51852,301.31287000000015 405.11734,302.31598000000014 C 405.52438,302.9978600000001 405.94452,303.70395000000013 406.54285,304.42130000000014 C 407.23348999999996,305.24933000000016 407.78324,305.77671000000015 408.31732999999997,306.31598000000014 C 409.07538999999997,307.08142000000015 409.77738,307.7425200000001 410.33835999999997,308.39548000000013 C 411.00830999999994,309.1752700000001 411.31384999999995,309.8360900000001 411.88401,310.51465000000013 C 412.43107,311.1657100000001 413.23521,311.5911600000001 414.00001,312.1666300000001 C 414.61647,312.6305000000001 415.21945999999997,313.1674800000001 415.9785,314.1998000000001 C 416.39576999999997,314.7673000000001 416.74788,315.5524000000001 417.3,316.2428000000001 C 417.94404000000003,317.0481300000001 418.60002000000003,317.5639700000001 419.40001,317.9639600000001 L 420.3,317.9999700000001 L 421.20002,317.99863000000005" fill="none" id="svg_5" stroke="#000" stroke-width="2"/>
	<path d="M 392.0,319.0 C 394.33334,320.83334 394.87411,321.43234 395.47333,322.12799 C 396.12946,322.88971000000004 396.81552,323.70886 397.52085,324.5625 C 398.23557,325.42749 398.93885,326.28973 399.61334999999997,327.13199 C 400.83883999999995,328.66225999999995 401.35132999999996,329.32642 401.80267999999995,329.91598999999997 C 402.20147999999995,330.43692999999996 402.54855999999995,330.90094 402.85416,331.31249999999994 C 403.12582999999995,331.67830999999995 403.34949,332.02172999999993 404.0,332.83333999999996 C 404.58328,333.56105999999994 405.20981,334.21698 405.60001,334.68398999999994 C 406.42234,335.6681499999999 406.80689,336.2387999999999 407.236,336.81066999999996 C 407.68143,337.4043 408.41107999999997,338.30968999999993 408.96168,338.89998999999995 C 409.53089,339.51021999999995 410.14887,340.11449999999996 411.16667,340.99999999999994 C 411.5175,341.30523999999997 412.26155,341.91054999999994 413.06251000000003,342.52083999999996 C 413.48030000000006,342.83916999999997 414.36915000000005,343.48938 415.33335000000005,344.16664999999995 C 415.84135000000003,344.52345999999994 416.36698000000007,344.8874799999999 417.46134000000006,345.62532999999996 C 418.01966000000004,346.00176 418.58454000000006,346.37584999999996 419.1518300000001,346.74733999999995 C 419.71659000000005,347.11717999999996 421.37781000000007,348.17958999999996 421.9146800000001,348.51466999999997 C 422.44218000000006,348.84389 423.4788000000001,349.47975999999994 423.9893300000001,349.78932999999995 C 424.4951600000001,350.09605999999997 426.0001600000001,350.99974999999995 426.4998600000001,351.29997999999995 C 426.99882000000014,351.59975 427.9904300000001,352.19819999999993 428.4791700000001,352.49998999999997 C 429.44505000000015,353.09642999999994 429.92027000000013,353.39153 430.83336000000014,353.99998999999997 C 431.72151000000014,354.59182 432.14736000000016,354.89997999999997 433.0000200000001,355.49998999999997 C 433.85268000000013,356.09999999999997 434.2769100000001,356.41062999999997 435.6216900000001,357.30030999999997 C 436.0842800000001,357.60634 436.5636200000001,357.90601999999996 437.5416700000001,358.54164 C 438.0476800000001,358.87046999999995 438.5768600000001,359.19289 440.1666700000001,360.33333 C 440.7266100000001,360.735 441.2837000000001,361.1653 441.8481900000001,361.60082 C 442.4157300000001,362.03866 442.9774300000001,362.4814 443.5386800000001,362.91332 C 444.6273000000001,363.75106 445.6622500000001,364.50658 446.1568400000001,364.83565 C 447.0731300000001,365.4453 447.5197200000001,365.69874999999996 448.3426900000001,366.204 C 449.1142700000001,366.67769 450.18272000000013,367.41601 450.51469000000014,367.68398 C 451.17253000000017,368.21496 451.78285000000017,368.78206 452.39869000000016,369.31600000000003 C 453.29069000000015,370.08935 453.89225000000016,370.55379000000005 454.8000000000002,371.18932 C 455.3950000000002,371.60588 456.30278000000015,372.19606 456.9000100000002,372.60448 C 457.5028500000002,373.01671000000005 458.41643000000016,373.6657 459.3003400000002,374.42183 C 459.92082000000016,374.95262 460.2254800000002,375.25307 460.87203000000017,375.88265 C 461.5752200000002,376.56737000000004 462.33336000000014,377.33333 463.1680200000002,378.16799000000003 C 463.60537000000016,378.60534 464.05068000000017,379.05065 464.5000200000002,379.49999 C 465.3946700000002,380.39464000000004 465.8316500000002,380.83236000000005 466.66668000000016,381.66665 C 467.4290100000002,382.42834 467.78005000000013,382.78698 468.4583700000002,383.43749 C 469.08587000000017,384.03927000000004 469.99411000000015,384.84081000000003 470.6000300000002,385.31600000000003 C 471.19430000000017,385.78203 471.8223500000002,386.19753000000003 473.0000200000002,387.16665 C 473.61467000000016,387.67245 473.90981000000016,387.96081 474.54168000000016,388.54165 C 475.21517000000017,389.16073 476.33196000000015,390.16827 476.7427000000002,390.52133 C 477.16659000000016,390.88568 478.0508700000002,391.62512 478.5000200000002,392.0 C 479.3950100000002,392.74695 479.84270000000015,393.10382 481.05703000000017,394.1785 C 481.43267000000014,394.51096 482.1311000000002,395.1608 482.7786800000002,395.78934 C 483.0925200000002,396.09396999999996 483.99807000000015,397.00196 484.60269000000017,397.60132 C 485.21939000000015,398.21268 485.86893000000015,398.83936 486.21435000000014,399.15717 C 487.32345000000015,400.17756 487.7384900000001,400.52622 488.60537000000016,401.24817 C 489.04855000000015,401.61725 489.94701000000015,402.34168 490.39468000000016,402.69016 C 491.66006000000016,403.67521 492.05517000000015,403.95929 492.78119000000015,404.48566 C 493.43604000000016,404.96042 494.05344000000014,405.36634 495.07871000000017,406.20002 C 495.5567700000002,406.58875 496.20664000000016,407.2226 497.1666900000002,408.00001 C 497.6757200000002,408.41220999999996 498.2317800000002,408.80618999999996 499.1045300000002,409.4 C 499.9957300000002,410.00635 500.5992200000002,410.39590999999996 501.17872000000017,410.78934 C 501.98832000000016,411.33898999999997 502.85688000000016,411.978 503.5427000000002,412.48132999999996 L 503.9583800000002,411.95834999999994" fill="none" id="svg_6" stroke="#000" stroke-width="2"/>
	<path d="M 422.0,319.0 C 423.16666,320.0 423.65363,320.56042 424.2955,321.29999 C 424.87414,321.96668 425.04199,322.82761 425.54165,323.54166 C 426.11996,324.36807999999996 426.65222,325.00568 426.99999,325.5 C 427.51531,326.23248 428.09594000000004,327.04898 428.75265,327.74817 C 429.46548,328.50714 430.04162,329.04169 430.46166,329.46167 C 431.42141,330.42126 431.94759,330.95853000000005 432.52083,331.47916000000004 C 433.09508,332.00071 433.9894,332.68460000000005 434.59864999999996,333.03202000000005 C 435.46486,333.52595 436.10706999999996,333.72254000000004 437.07865999999996,334.54285000000004 C 437.58417999999995,334.96967000000006 437.97639999999996,335.54175000000004 438.68397999999996,336.31733 C 439.39829999999995,337.10029000000003 439.94735,337.55582000000004 440.52083,337.97916000000004 C 441.38698,338.61856000000006 442.29997,339.20002000000005 442.89997999999997,339.60001000000005 C 443.49998999999997,340.00000000000006 444.40092999999996,340.59858 445.30030999999997,341.20035000000007 C 445.90961999999996,341.6080300000001 446.54621999999995,342.03519000000006 447.21430999999995,342.5143500000001 C 448.34117,343.3225200000001 448.74544,343.6388600000001 449.60081999999994,344.3053400000001 C 450.04151999999993,344.64872000000014 450.9155799999999,345.3465700000001 451.3374799999999,345.6946800000001 C 452.5062999999999,346.6590700000001 452.83771999999993,346.95469000000014 453.7026499999999,347.7280100000001 C 454.2052099999999,348.1773500000001 454.6630399999999,348.62074000000007 455.6853199999999,349.4000100000001 C 456.2265799999999,349.8126100000001 456.8096199999999,350.2015500000001 457.99998999999985,351.0000200000001 C 458.59947999999986,351.40212000000014 459.20561999999984,351.80288000000013 459.79997999999983,352.23601000000014 C 460.40580999999986,352.6774800000001 461.30717999999985,353.4139300000001 461.9044999999998,353.96169000000015 C 462.5282499999998,354.5336800000002 463.15815999999984,355.1606600000001 464.16664999999983,356.16668000000016 C 464.5216899999998,356.52084000000013 465.25102999999984,357.2498400000002 465.62532999999985,357.61468000000013 C 466.37144999999987,358.3419700000001 466.7280499999998,358.7120600000001 467.83333999999985,359.66668000000016 C 468.50194999999985,360.24413000000015 469.1594499999999,360.73107000000016 469.75331999999986,361.21468000000016 C 470.31923999999987,361.67553000000015 471.32030999999984,362.68041000000017 471.77464999999984,363.22536000000014 C 472.2296699999998,363.77111000000014 472.6406499999998,364.3613800000001 473.6866699999998,365.3173400000001 C 474.2253999999998,365.8096800000001 474.8543899999998,366.2517600000001 475.4866599999998,366.7693700000001 C 476.5343599999998,367.6270400000001 476.88609999999983,367.9657200000001 477.6253299999998,368.6506900000001 C 478.00105999999977,368.9988700000001 478.7326599999998,369.7113600000001 479.8333399999998,370.6666800000001 C 480.1738899999998,370.9622400000001 480.8360899999998,371.4886700000001 481.4583399999998,371.9583700000001 C 482.3102399999998,372.60144000000014 483.0847699999998,373.1937800000001 483.7959899999998,373.8213500000001 C 484.3014799999998,374.2673900000001 484.8476599999998,374.77890000000014 485.8641699999998,375.6427000000001 C 486.25067999999976,375.9711600000001 487.0852099999998,376.6525300000001 487.52084999999977,377.0000300000001 C 488.39627999999976,377.6983600000001 488.82382999999976,378.0447700000001 490.05682999999976,378.95688000000007 C 490.77569999999974,379.48868000000004 491.4319799999998,379.9459500000001 492.03384999999975,380.3338600000001 C 492.82623999999976,380.8445700000001 493.55151999999975,381.23996000000005 494.4526699999997,381.75268000000005 C 495.17001999999974,382.16082000000006 495.9585299999997,382.6485200000001 496.4999999999997,383.02087000000006 C 497.3251299999997,383.58828000000005 498.0825799999997,384.19552000000004 498.7746599999997,384.80001000000004 C 499.4565399999997,385.39559 500.1606499999997,386.00793000000004 500.6866799999997,386.40136000000007 C 501.5321999999997,387.03371000000004 502.1655599999997,387.45168000000007 503.1666599999997,388.16668000000004 C 503.8854999999997,388.68008000000003 504.2518299999997,388.94781000000006 504.9791599999997,389.50002000000006 C 505.6937899999997,390.0425900000001 506.6709299999997,390.82839000000007 507.2306599999997,391.31469000000004 C 507.74264999999974,391.75951000000003 508.4340599999997,392.41274000000004 509.1666599999997,393.00002000000006 C 509.9382099999997,393.61852000000005 510.5100099999997,393.98665000000005 511.3160099999997,394.60003000000006 C 512.0882599999998,395.1877400000001 512.7880299999997,395.79980000000006 513.1893299999997,396.2720300000001 C 514.0541999999997,397.2897000000001 514.4034399999997,397.9660300000001 514.7999899999998,398.6506900000001 C 515.2034899999998,399.3473500000001 515.5608499999997,400.0586500000001 516.2000099999998,400.9570300000001 C 516.7663599999998,401.7530500000001 517.1946399999998,402.1839900000001 517.9999999999998,403.0000300000001 C 518.5960099999998,403.6039700000001 519.2006799999998,404.1993700000001 519.9999999999998,405.0000300000001 C 520.3989899999998,405.3996900000001 521.0090899999998,405.9746100000001 521.5146499999997,406.6000400000001 C 522.3001699999998,407.5718700000001 522.6542399999997,408.2764900000001 522.9693599999997,408.7706900000001 C 523.5305199999997,409.65079000000014 524.0020699999997,410.3148200000001 524.5416899999997,411.0000300000001 C 525.0965599999997,411.7046500000001 525.9874299999997,412.6803600000001 526.5986999999997,413.2306800000001 C 527.1776799999997,413.7519200000001 527.7792999999997,414.19726000000014 528.3146399999997,414.6827100000001 C 529.1018099999997,415.3964900000001 529.7671499999997,416.2229600000001 530.1893299999997,416.7746900000001 C 530.6018099999997,417.31369000000007 531.3875699999998,418.3235200000001 531.9791899999997,418.9583800000001 C 532.5049499999997,419.5225900000001 533.2470099999997,420.2387100000001 533.7986499999997,420.7987100000001 C 534.4844399999997,421.49491000000006 534.8884899999997,422.3410100000001 535.4253599999997,422.9747000000001 C 535.9281699999997,423.5682100000001 536.1126799999997,424.5185200000001 535.4791899999997,425.0000300000001 C 534.7982799999996,425.51758000000007 533.8410699999997,425.7358700000001 532.9999999999997,426.1666900000001 C 532.3356899999997,426.5069900000001 531.7604399999997,427.40476000000007 531.1146899999997,427.7146900000001 C 530.2354199999996,428.1367200000001 529.1636399999996,428.16080000000005 528.5208199999996,428.5000300000001 C 527.6959899999996,428.9353300000001 526.7986499999996,429.0000300000001 525.8333199999996,429.0000300000001 C 525.0000099999996,429.0000300000001 524.1663299999996,429.02600000000007 523.3045099999996,429.0000300000001 C 522.3558999999996,428.9714400000001 521.8989899999996,428.3155200000001 521.1986799999996,427.9160200000001 C 520.3414399999996,427.4269800000001 519.6770699999996,426.9026800000001 519.0000099999996,426.5000300000001 C 518.1647399999996,426.0033000000001 517.4080299999996,425.40271000000007 516.7999999999996,424.8000200000001 C 516.1973999999996,424.20270000000005 515.5878399999996,423.6119700000001 514.9000399999996,422.8998700000001 C 514.3908799999997,422.3727400000001 513.8108699999997,421.5096400000001 513.4000399999996,420.82538000000005 C 512.9127999999996,420.0137700000001 512.4027299999997,419.40805000000006 511.70002999999963,418.70004000000006 C 511.0026699999996,417.9974000000001 510.5000199999996,417.50003000000004 509.80000999999965,416.8000200000001 C 509.20002999999963,416.20004000000006 508.60002999999966,415.6000400000001 507.89985999999965,414.8998700000001 C 507.3640299999997,414.3640400000001 506.66129999999964,413.6952800000001 506.02085999999963,413.0000300000001 C 505.55631999999963,412.4957300000001 505.02085999999963,411.5416900000001 504.4253399999996,410.9747000000001 L 503.9473399999996,410.3526900000001 L 503.1986799999996,409.9160100000001" fill="none" id="svg_7" stroke="#000" stroke-width="2"/>
	<path d="M 271.0,357.0 C 272.70001,357.05716 273.5083,357.4856 274.29999,357.95184 C 275.10891999999996,358.42825 275.43231,359.09988 276.16666,359.83334 C 276.77103,360.43698 277.40313999999995,360.69821 278.4,361.20001 C 279.19892,361.60217 279.99528,362.0097 280.81068,362.39999 C 281.45353,362.7077 282.42027,363.10287 283.22535,363.39999 C 284.04627,363.70294 284.84103999999996,363.98257 285.76402,364.39999 C 286.40104,364.68808 287.40678,365.18484 287.97917,365.5 C 288.8462,365.97739 289.59199,366.59732 290.20003,367.20001 C 290.80266,367.79733000000004 291.65102,368.41888 291.91469,369.20001 C 292.20381000000003,370.05655 292.17357,371.03824000000003 291.91469,371.79999000000004 C 291.61293,372.68793000000005 291.15618,373.46405000000004 290.71468,374.20001 C 290.30761,374.8786 289.50863,375.54147 288.67852,376.10016 C 288.00146,376.55585 287.37212,376.85153 286.59869,377.48667 C 285.9559,378.01453 285.31435999999997,378.68635 284.57869999999997,379.42133 C 284.04711,379.95243 283.50003,380.5 282.95268999999996,381.04734 C 282.16668,381.83335 281.45717999999994,382.54285000000004 281.02086999999995,382.97916000000004 C 280.40135999999995,383.59867 279.6199,384.42218 278.97917999999993,384.97916000000004 C 278.33510999999993,385.53907000000004 277.58388999999994,385.98941 276.77467999999993,386.37467000000004 C 275.95778999999993,386.76359 275.13951999999995,387.12964000000005 274.4526899999999,387.66166000000004 C 273.7447099999999,388.21006000000006 273.3153599999999,388.68601000000007 272.57884999999993,389.42118000000005 C 271.78462999999994,390.21394000000004 271.2615599999999,390.73890000000006 270.7693699999999,391.23066000000006 C 269.9696899999999,392.02967000000007 269.4098399999999,392.61442000000005 268.51469999999995,393.20133000000004 C 267.80754999999994,393.66498 266.97935999999993,394.14255 266.40901999999994,394.65268000000003 C 265.8508499999999,395.15192 265.2529799999999,396.15155000000004 264.91734999999994,396.79868000000005 C 264.48927999999995,397.62406000000004 263.50483999999994,397.79596000000004 262.80134999999996,398.28534 C 262.01670999999993,398.83115000000004 261.84572,399.91626 261.00001999999995,400.0 C 260.20393999999993,400.07883 259.30000999999993,400.0 258.40000999999995,400.0 C 257.45835999999997,400.0 256.66666999999995,400.0 255.71734999999995,400.0 C 255.14268999999996,400.0 253.83334999999997,400.0 253.11601999999996,400.0 C 252.37468999999996,400.0 251.62535999999997,399.99857 250.16668999999996,400.0 C 249.48534999999995,400.00067 248.83317999999997,399.97086 247.90450999999996,400.05716 C 246.69391999999996,400.16965 246.09765999999996,400.36185 245.16401999999997,400.57468 C 244.51609999999997,400.72239 243.48013999999998,400.89511 242.75184999999996,400.94284 C 241.66268999999997,401.01419 240.96922999999995,400.98398 239.77067999999997,401.00133999999997 C 239.04150999999996,401.01189999999997 237.99525999999997,401.15236999999996 237.20001999999997,401.42531999999994 C 236.39493999999996,401.70162999999997 235.60100999999997,401.9481799999999 234.76402999999996,401.98931999999996 C 233.58006999999995,402.04751999999996 232.77469999999997,401.99999999999994 232.22534999999996,401.99999999999994 C 230.92134999999996,401.99999999999994 230.22534999999996,401.99938999999995 229.31601999999995,401.99999999999994 C 228.31601999999995,402.00066999999996 227.49484999999996,401.97313999999994 226.68402999999995,402.08532999999994 C 225.67410999999996,402.22506999999996 225.01083999999994,402.53783999999996 224.31601999999995,402.7160099999999 C 223.32842999999994,402.9692399999999 222.50017999999994,402.9869799999999 221.68402999999995,402.9986599999999 C 220.45279999999994,403.0162999999999 219.76439999999994,402.9787599999999 218.57869999999994,403.22149999999993 C 218.04144999999994,403.3314899999999 217.21530999999993,403.58437999999995 216.16669999999993,403.99999999999994 C 215.45442999999995,404.28231999999997 214.62262999999993,404.64403999999996 213.88535999999993,405.20000999999996 C 213.15891999999994,405.74782999999996 212.60003999999992,406.39998999999995 211.89985999999993,407.10015999999996 C 211.36402999999993,407.63598999999994 210.67031999999995,408.31341999999995 210.17469999999994,408.83599999999996 C 209.64356999999995,409.39599999999996 208.84580999999994,410.37624999999997 208.54169999999993,410.97916 C 208.05336999999994,411.94727 207.98287999999994,412.76529 207.64736999999994,413.65268 C 207.38051999999993,414.35848999999996 206.75823999999994,415.72488 207.43603999999993,415.95333999999997 C 208.30604999999994,416.24658 209.00003999999993,414.99999999999994 209.50003999999993,414.49999999999994 C 210.20003999999992,413.7999899999999 210.74699999999993,413.1397099999999 211.4213799999999,412.60000999999994 C 212.2737099999999,411.91790999999995 213.0091899999999,411.69827999999995 213.78537999999992,411.3999999999999 C 214.83246999999992,410.9976299999999 215.5466299999999,410.7079799999999 216.1893699999999,410.3999999999999 C 217.20630999999992,409.9127299999999 217.78770999999992,409.54043999999993 218.68536999999992,409.28534999999994 C 219.6650899999999,409.00693999999993 220.49986999999993,409.0121899999999 221.31602999999993,409.00134999999995 C 222.31593999999993,408.98806999999994 223.00959999999992,409.04193999999995 224.16670999999994,408.83334999999994 C 224.96159999999995,408.69003999999995 225.49241999999992,408.46887999999996 226.31602999999993,408.28399999999993 C 227.53337999999994,408.0107499999999 228.18946999999991,408.01800999999995 229.20019999999994,407.9998499999999 C 230.02098999999993,407.9851099999999 231.16972999999993,407.8456799999999 231.95269999999994,407.64733999999993 C 232.77808999999993,407.43825999999996 233.30479999999994,407.2116699999999 234.53835999999993,407.05715999999995 C 235.33387999999994,406.95751999999993 236.24741999999992,407.01095999999995 237.16669999999993,406.99999999999994 C 238.04187999999994,406.9895599999999 238.69333999999992,406.94555999999994 239.68402999999992,406.71599999999995 C 240.5063399999999,406.52545 241.30650999999992,406.22817999999995 242.31468999999993,406.08531999999997 C 243.18384999999992,405.96218 244.20265999999992,405.95262999999994 245.00001999999992,406.02083999999996 C 246.00691999999992,406.10695999999996 246.78610999999992,406.46694999999994 247.60002999999992,406.71599999999995 C 248.38731999999993,406.95690999999994 249.36787999999993,406.98540999999994 250.2518499999999,407.35265999999996 C 250.9945599999999,407.66121999999996 251.7705299999999,407.89545 252.7493499999999,408.02532999999994 C 253.6694499999999,408.14739999999995 254.46016999999992,408.5493799999999 255.1666899999999,408.99999999999994 C 255.8195399999999,409.41637999999995 256.5911399999999,409.76381999999995 257.6000199999999,409.94732999999997 C 258.3938999999999,410.09171 259.42997999999994,410.22637999999995 260.2000299999999,410.64667 C 261.0375199999999,411.10378999999995 261.5929999999999,411.66085999999996 262.2000299999999,412.17465 C 262.99101999999993,412.84414 263.5897999999999,413.26138 264.4000099999999,413.69549 C 265.3867699999999,414.22421 266.0603199999999,414.42562 266.8333599999999,415.16665 C 267.4596699999999,415.76702 267.76591999999994,416.44735000000003 268.5426799999999,417.20001 C 268.9819199999999,417.62561 269.80430999999993,418.14105 270.6666699999999,419.0 C 271.2284399999999,419.55954 271.5451799999999,420.22989 272.3213299999999,420.97882 C 272.7872999999999,421.42847 273.59494999999987,421.91591999999997 274.1146599999999,422.76935 C 274.5491099999999,423.48269999999997 274.7780799999999,424.32586999999995 275.2000199999999,425.31467 C 275.4861499999999,425.98523 275.79971999999987,426.59882 276.2999999999999,427.60001 C 276.6998099999999,428.40012 277.1121299999999,429.19437 277.5000099999999,430.02085 C 277.8097599999999,430.68085 278.21262999999993,431.67792 278.4791699999999,432.47916 C 278.7277699999999,433.22643999999997 278.8189499999999,434.20196999999996 279.0001699999999,435.09983 C 279.17063999999993,435.9444 279.9074599999999,435.53324 280.2840099999999,434.79868 C 280.6530899999999,434.07874 280.92707999999993,433.15567 281.0840299999999,432.39869 C 281.29423999999995,431.3849 281.61677999999995,430.80296 282.0998399999999,429.8 C 282.4840299999999,429.00233000000003 282.7945999999999,428.41493 282.94285999999994,427.40001 C 283.05873999999994,426.60671 283.00001999999995,425.60002000000003 283.00001999999995,424.8 C 283.00001999999995,423.8 283.00669999999997,422.99998 283.00001999999995,422.00001000000003 C 282.99467999999996,421.19996000000003 282.98600999999996,420.37782000000004 282.6428399999999,419.40000000000003 C 282.35401999999993,418.57706 281.87666999999993,417.81119 281.5208599999999,417.02085000000005 C 281.1412499999999,416.17765 280.9483199999999,415.3039600000001 280.5000199999999,414.50001000000003 C 280.0536399999999,413.69947 279.8996199999999,412.75752000000006 279.1986899999999,412.28535000000005 C 278.48793999999987,411.80656000000005 277.50038999999987,411.62928000000005 277.0840399999999,410.80000000000007 C 276.6575899999999,409.95067000000006 276.5594999999999,409.17582000000004 275.9746999999999,408.43602000000004 C 275.4385699999999,407.75780000000003 274.87398999999994,407.22301000000004 274.4253499999999,406.40001000000007 C 274.0063099999999,405.63133000000005 274.5508099999999,405.0598300000001 275.30000999999993,404.6473500000001 C 276.1386599999999,404.1856200000001 277.1800099999999,404.3768400000001 277.83336999999995,403.83335000000005 C 278.52336999999994,403.2593800000001 278.70415999999994,402.35636000000005 279.5000299999999,402.00001000000003 C 280.29964999999993,401.64201 280.9705799999999,400.96739 281.52086999999995,400.50001000000003 C 282.2833499999999,399.85240000000005 283.03105999999997,399.54844 283.83336999999995,399.00001000000003 C 284.50762999999995,398.5391 285.19737999999995,397.79734 285.80000999999993,397.20002000000005 C 286.4080399999999,396.59733000000006 287.1491899999999,395.96876000000003 287.8253699999999,395.61066000000005 C 288.5000199999999,395.25339 289.65602999999993,395.08585000000005 290.4000199999999,394.5640000000001 C 291.0741799999999,394.0911300000001 291.5943299999999,393.4240200000001 292.5000299999999,393.00000000000006 C 293.2951299999999,392.62775000000005 293.8215899999999,392.12698000000006 294.3000199999999,391.3473200000001 C 294.7192699999999,390.6641200000001 295.2857699999999,389.7440200000001 295.8000199999999,389.20132000000007 C 296.4815999999999,388.4820500000001 297.2000399999999,387.79998000000006 297.7000399999999,387.29998000000006 C 298.4106999999999,386.58932000000004 298.89562999999987,386.1247200000001 299.6527099999999,385.34283000000005 C 300.1819499999999,384.7962600000001 300.8541899999999,384.01361 301.3640399999999,383.2106600000001 C 301.70986999999985,382.6660100000001 302.29158999999987,381.74075000000005 302.7571999999999,381.24734000000007 C 303.4648399999999,380.4974000000001 304.0000299999999,380.00000000000006 304.8333699999999,379.16665000000006 C 305.3640399999999,378.6359800000001 306.1008299999999,377.90078000000005 306.6000299999999,377.39999000000006 C 307.2966499999999,376.70114000000007 307.6207199999999,375.87905000000006 308.1666799999999,375.16665000000006 C 308.6736099999999,374.50521000000003 308.8929699999999,373.7671700000001 309.2840199999999,372.88534000000004 C 309.6119599999999,372.14578000000006 309.9829599999999,371.17373000000003 310.7045199999999,371.00448000000006 C 311.5768999999999,370.7998600000001 312.31279999999987,371.61163000000005 313.2026899999999,371.91467000000006 C 313.9340399999999,372.16369000000003 315.0098499999999,372.00000000000006 315.7853599999999,372.00000000000006 C 316.8333599999999,372.00000000000006 317.54286999999994,372.00000000000006 318.3955299999999,372.00000000000006 C 319.4013599999999,372.00000000000006 320.2360099999999,372.00000000000006 321.1666799999999,372.00000000000006 C 321.95268999999985,372.00000000000006 322.7746799999999,372.00000000000006 323.8333699999999,372.00000000000006 C 324.7746799999999,372.00000000000006 325.4526899999999,372.00000000000006 326.4213499999999,372.00000000000006 C 327.2253699999999,372.00000000000006 328.0473599999999,372.00000000000006 329.0785199999999,372.00000000000006 C 329.9791899999999,372.00000000000006 331.0010999999999,372.03186000000005 331.8000199999999,371.9893200000001 C 332.6023899999999,371.9466000000001 333.5899999999999,371.61847000000006 334.4000299999999,371.35266000000007 C 335.1914099999999,371.09296000000006 336.0207599999999,371.0137000000001 337.1666899999999,371.00000000000006 C 337.9526699999999,370.99060000000003 338.7865299999999,371.03833000000003 339.8333799999999,370.8333400000001 C 340.55004999999994,370.6930200000001 341.3637099999999,370.3331600000001 342.1160299999999,369.79998000000006 C 342.7765199999999,369.3319000000001 343.4782699999999,368.78686000000005 344.2106999999999,368.39999000000006 C 345.1912299999999,367.8820800000001 345.8213599999999,367.58932000000004 346.5143799999999,367.24282000000005 C 347.6427099999999,366.67867000000007 348.3053699999999,366.34731000000005 349.0000399999999,365.99999 C 349.6947099999999,365.65267 350.6698399999999,365.17284 351.4902099999999,364.75265 C 352.2175399999999,364.38012000000003 353.1697399999999,363.83828 353.68536999999986,363.51467 C 354.52594999999985,362.98714 355.1047399999999,362.59579 356.00003999999984,361.99999 C 356.59882999999985,361.60152000000005 357.4751699999998,361.01452 358.04288999999983,360.65716000000003 C 359.07135999999986,360.00979 359.77887999999984,359.64907000000005 360.39554999999984,359.24734 C 361.22089999999986,358.70968 361.9829799999998,358.0039 362.51471999999984,357.484 C 363.2572099999998,356.75804999999997 363.79904999999985,356.23310999999995 364.54288999999983,355.67848999999995 C 365.2513299999998,355.15025999999995 365.8039099999998,354.81334999999996 366.83338999999984,353.99998999999997 C 367.3238099999998,353.61253999999997 367.96079999999984,352.99879999999996 368.5987099999998,352.48530999999997 C 369.3785299999998,351.85762 370.20005999999984,351.41065999999995 371.0000499999998,350.99998999999997 C 371.8000399999998,350.58930999999995 372.4366599999998,350.29064 373.39872999999983,349.51597999999996 C 374.0036499999998,349.02888999999993 374.4982499999998,348.467 375.25187999999986,347.75263999999993 C 375.79823999999985,347.23475999999994 376.54096999999985,346.67621999999994 377.25071999999983,346.17463999999995 C 377.9929099999998,345.65009999999995 378.84992999999986,345.01228999999995 379.47920999999985,344.52082999999993 C 380.15898999999985,343.9899199999999 381.0255099999998,343.5401799999999 381.83339999999987,342.9999899999999 C 382.5018899999999,342.5529999999999 383.1970499999999,342.0427099999999 384.10005999999987,341.9999899999999 C 384.9990499999999,341.9574799999999 385.80449999999985,342.0607199999999 386.7080599999999,341.96397999999994 C 387.7745899999999,341.84980999999993 388.37034999999986,341.64167999999995 389.0625499999999,341.4999899999999 C 389.8123399999999,341.3465199999999 390.99861999999985,341.1509899999999 391.79872999999986,341.0853199999999 C 392.58824999999985,341.0205299999999 393.3640399999999,341.0067999999999 394.83339999999987,340.9999899999999 C 395.51338999999984,340.99684999999994 396.4613899999999,341.0118299999999 397.0383899999999,340.9428299999999 C 398.3281499999999,340.7885599999999 399.0113199999999,340.4634599999999 399.7694099999999,340.2839899999999 C 400.6338199999999,340.0793399999999 401.6504799999999,340.0281299999999 402.3493999999999,340.0106699999999 C 403.0319299999999,339.9936399999999 404.2280599999999,339.9999899999999 405.1427299999999,339.9999899999999 L 406.1147099999999,339.9999899999999 L 407.0000599999999,339.9999899999999" fill="none" id="svg_8" stroke="#000" stroke-width="2"/>
	<path d="M 284.0,381.0 C 283.38934,379.436 282.55682,379.11505 281.70001,378.64734 C 280.95468,378.24048 280.24283,378.00226 279.34283,378.0 C 278.39868,377.99765 277.39999,378.0 276.59999999999997,378.0 C 275.59865999999994,378.0 274.97914999999995,378.0 273.83333999999996,378.0 C 273.03833,378.0 272.15331999999995,378.0 271.51332999999994,378.0 C 270.47880999999995,378.0 269.75181999999995,378.0 268.66133999999994,378.0 C 267.9693199999999,378.0 266.76829999999995,377.9769 266.02083999999996,378.02084 C 265.31557999999995,378.06231 264.30983999999995,378.26498000000004 263.49999999999994,378.52084 C 262.6772199999999,378.78079 261.68053999999995,379.18963 261.02083999999996,379.5 C 259.99227999999994,379.98392 259.39977999999996,380.29956 258.59999999999997,380.70001 C 257.60240999999996,381.19949 256.84274,381.30697000000004 256.16934,382.20001 C 255.64691999999997,382.89282000000003 255.33226999999997,383.60418000000004 255.08399999999997,384.48266 C 254.86124999999998,385.27078 254.34299999999996,386.00006 255.2,385.99999 C 256.09983,385.9999 256.76871,385.60415 257.33335,384.99999 C 257.91727,384.3752 258.99741,384.15102 259.79999,384.02532 C 260.59772,383.90038000000004 261.39594,383.70864 262.164,383.42531 C 263.11401,383.07488 263.97378,382.93294000000003 264.768,382.71599000000003 C 265.7553,382.44631000000004 266.65788999999995,382.10420000000005 267.47914999999995,382.02083000000005 C 268.31724999999994,381.93575000000004 269.17464999999993,381.99999 270.11598999999995,381.99999 C 271.16664999999995,381.99999 271.8253399999999,381.99999 272.83333999999996,381.99999 C 273.62532999999996,381.99999 274.65268,381.99999 275.34731999999997,381.99999 L 276.36400999999995,381.99999 L 277.29997999999995,381.99999 L 278.19999999999993,381.99999" fill="none" id="svg_9" stroke="#000" stroke-width="2"/>
	<path d="M 296.0,393.0 C 302.14966,400.47101 302.65433,401.23743 302.875,401.875 C 303.25516,402.97327 303.46002,403.77637 303.716,404.51468 C 304.04538,405.46463 304.38095,406.28708 304.80133,406.88535 C 305.32605,407.63215 305.76913,408.50171 305.97467,409.396 C 306.12421,410.04673 306.28714,411.05399 306.42532,411.69733 C 306.65252,412.75525000000005 306.84433,413.8321 306.91598,414.51334 C 307.01522,415.45688 307.02572,416.32676000000004 307.28399,417.31467000000004 C 307.46072000000004,417.99066000000005 307.8847,418.99320000000006 307.96398,419.78934000000004 C 308.0675,420.82883000000004 307.99998999999997,421.62534000000005 307.99998999999997,422.48267000000004 C 307.99998999999997,423.29017000000005 307.89128999999997,423.70801000000006 308.00133,422.79999000000004 C 308.11280999999997,421.88022 308.80016,421.34622 308.97914,420.47916000000004 C 309.17418,419.53434000000004 308.96617,418.77369000000004 309.22132999999997,417.79984 C 309.441,416.96143 309.77497999999997,416.32462000000004 309.91465999999997,415.31601 C 310.02696,414.50519 309.99931999999995,413.68399 309.99998999999997,412.45715 C 310.00035999999994,411.81067 309.99998999999997,410.79998 309.99998999999997,410.0 C 309.99998999999997,409.0 309.99998999999997,408.21066 309.99998999999997,407.16666 C 309.99998999999997,406.33866 309.99998999999997,405.45734 309.99998999999997,404.5 C 309.99998999999997,403.76801 310.09675999999996,402.78751 309.83333,401.83334 C 309.64501,401.15121000000005 309.15819,400.16864000000004 308.99998999999997,399.47915 C 308.76613,398.45995 308.55397999999997,397.7442 308.35265,396.94817 C 308.09461999999996,395.92803 308.13169999999997,395.00591000000003 307.83333,394.16665 C 307.54558,393.3572 307.01799,392.60055 306.99998999999997,391.70001 C 306.98197999999996,390.80017000000004 306.99998999999997,389.89999 306.99998999999997,389.0 C 306.99998999999997,388.20001 307.05449,387.29849 307.49998999999997,386.5 C 307.94465999999994,385.703 308.56089999999995,385.10828 309.09999999999997,384.33551 C 309.50622,383.7532 309.69937,382.88629 309.99998999999997,382.0 C 310.30382,381.10428 310.46763999999996,380.49557 310.88534,379.68533 C 311.41836,378.65139000000005 311.94692,377.99981 312.51599,377.57199 C 313.38858,376.91598000000005 313.98931999999996,376.38934 314.02083999999996,375.52084 L 314.57466999999997,374.97467 L 315.08401,374.284" fill="none" id="svg_10" stroke="#000" stroke-width="2"/>
</svg>
