<?xml version="1.0" ?>
<svg baseProfile="full" height="480" version="1.1" width="640" xmlns="http://www.w3.org/2000/svg" xmlns:ev="http://www.w3.org/2001/xml-events" xmlns:xlink="http://www.w3.org/1999/xlink">
	<defs/>
	<path d="M 355.0,95.0 C 350.48666,95.0 349.84668,95.00014 348.96167,95.0 C 347.92117,94.99983 346.96909000000005,95.0071 346.23065,94.82933 C 345.34106,94.61516999999999 344.68832000000003,94.28801 343.95834,94.0 C 343.19372000000004,93.69833 342.00518,93.30551 341.19867,93.16933 C 340.39356,93.03339 339.56314,92.99537000000001 338.71466,92.91733 C 337.37710999999996,92.79431000000001 336.91418,92.72559000000001 335.97467,92.56400000000001 C 335.02338000000003,92.40037000000001 334.55060000000003,92.30510000000001 333.16666,92.00000000000001 C 332.28128,91.80480000000001 331.414,91.59196000000001 330.97916,91.47916000000001 C 330.08878,91.24820000000001 328.66593,90.83577000000001 328.15765999999996,90.67866000000001 C 327.10209,90.35238000000001 326.56913,90.17932 325.52268,89.82533000000001 C 325.0189,89.65490000000001 323.66605,89.16824000000001 322.93867,88.88666 C 322.32215,88.64800000000001 321.51518,88.29807000000001 320.35719,88.12149000000001 C 319.69474,88.02048 318.6147,88.00651 317.88267,88.00133000000001 C 316.82136,87.99382000000001 316.15180000000004,88.01630000000002 315.17466,87.96399000000001 C 314.51508,87.92868000000001 313.47645,87.79186000000001 312.396,87.57466000000001 C 311.69556,87.43386000000001 311.03241,87.37672 309.86701,87.04816000000001 C 308.80652,86.74919000000001 308.37452,86.26101000000001 307.65269,85.70533 C 306.9116,85.13483000000001 305.77601,84.87549 305.77601,85.0 C 305.77601,85.69467 307.68763,84.98365 308.24667999999997,85.02133 C 309.16427999999996,85.08318000000001 310.17373999999995,85.31285000000001 310.88401,85.56933000000001 C 311.63343,85.83994000000001 312.37275,86.18964000000001 313.116,86.51733 C 314.176,86.98466 315.17181999999997,87.37236 315.82534999999996,87.58933 C 316.48125999999996,87.8071 317.52261999999996,88.09622 318.63598999999994,88.41066000000001 C 319.0212399999999,88.51946000000001 319.8148499999999,88.72813000000001 320.99999999999994,89.16666000000001 C 321.80483999999996,89.46446 322.5815999999999,89.81908000000001 323.3279999999999,90.17466 C 324.0321599999999,90.51012 325.22759999999994,91.12096 325.73867999999993,91.36399 C 326.67724999999996,91.8103 327.68706999999995,92.19684 328.23598999999996,92.41066000000001 C 329.10729999999995,92.75005 330.00978999999995,93.14903000000001 330.89550999999994,93.65266000000001 C 331.48592999999994,93.98838 332.03,94.36892000000002 333.07867999999996,94.97850000000001 C 333.76651999999996,95.37833 334.44812999999994,95.70656000000001 335.42117999999994,96.10017 C 336.21106999999995,96.41969 337.0684299999999,96.65211000000001 337.8569999999999,97.32117000000001 C 338.5367199999999,97.89787000000001 338.97534999999993,98.72015 339.7571799999999,99.04817000000001 C 340.6293999999999,99.41411000000001 341.4106199999999,99.49457000000001 342.3533399999999,99.97468 C 343.0372999999999,100.32302 343.59384999999986,100.93615000000001 344.3211699999999,101.44284 C 345.0397999999999,101.94347 345.2913499999999,102.61379000000001 345.97915999999987,103.45834 C 346.51507999999984,104.11641 347.52740999999986,104.38264000000001 347.8788499999999,105.32134 C 348.1219499999999,105.97069 348.4315499999999,106.99116000000001 348.9999999999999,107.47917000000001 C 349.7430099999999,108.11703000000001 350.01549999999986,108.76895 350.3526599999999,109.65267000000001 C 350.6216399999999,110.35769000000002 350.9746699999999,111.36400000000002 351.2866499999999,112.20134000000002 L 351.7616599999999,112.75717000000002" fill="none" id="svg_1" stroke="#000" stroke-width="2"/>
</svg>
