<?xml version="1.0" ?>
<svg baseProfile="full" height="480" version="1.1" width="640" xmlns="http://www.w3.org/2000/svg" xmlns:ev="http://www.w3.org/2001/xml-events" xmlns:xlink="http://www.w3.org/1999/xlink">
	<defs/>
	<path d="M 220.0,161.0 C 243.33333,153.5 245.05098,153.06992 246.632,152.76801 C 248.07238,152.49296 249.40072,152.30530000000002 250.625,152.1875 C 251.75581,152.07869 252.8134,152.02945 253.808,152.01199 C 255.66643,151.97937 256.55701,151.99827 257.42932,152.00267 C 258.28567000000004,152.00699 259.12814000000003,152.01615999999999 259.95834,152.04166999999998 C 260.77884,152.06688999999997 261.59198000000004,152.10168 262.39734000000004,152.17066999999997 C 264.00235000000004,152.30814999999998 264.80136000000005,152.43326999999996 265.59732,152.57332999999997 C 266.39282000000003,152.71329999999998 267.18133,152.88268999999997 267.95834,153.08331999999996 C 268.73080000000004,153.28277999999995 269.49176,153.50583999999995 270.22934000000004,153.77331999999996 C 271.67947000000004,154.29922999999997 272.36337000000003,154.63166999999996 273.03201,154.97598999999997 C 273.70092,155.32043999999996 274.35605000000004,155.70419999999996 275.0,156.12498999999997 C 275.65768,156.55476999999996 276.31448,157.02590999999998 276.96799,157.54399999999998 C 278.35318,158.64210999999997 279.04834,159.27940999999998 279.76532,159.94132 C 280.50259,160.62195 281.23684999999995,161.33664 281.95833999999996,162.08332 C 282.68498999999997,162.83533 283.39615,163.60458999999997 284.06134,164.40533 C 285.36481,165.97438 285.92434999999995,166.79241 286.45734,167.59599 C 286.97718,168.37973 287.4516,169.16438 287.89585,169.9375 C 288.32743,170.68854 288.72581,171.42798 289.10935,172.144 C 289.83518,173.49901 290.17814,174.13568 290.512,174.74533 C 290.83381,175.33301 291.14655,175.90062 291.43751,176.45833 C 291.72114,177.00203 291.99368999999996,177.5381 292.22801,178.08132999999998 C 292.69165999999996,179.15623999999997 292.86415,179.71905999999998 293.03067999999996,180.28266999999997 C 293.19714999999997,180.84614999999997 293.33865999999995,181.41466999999997 293.47916999999995,181.97916999999995 L 293.61466999999993,182.53865999999996 L 293.74817999999993,183.09015999999997 L 293.88266999999996,183.63065999999998" fill="none" id="svg_1" stroke="#000" stroke-width="2"/>
</svg>
