<?xml version="1.0" ?>
<svg baseProfile="full" height="480" version="1.1" width="640" xmlns="http://www.w3.org/2000/svg" xmlns:ev="http://www.w3.org/2001/xml-events" xmlns:xlink="http://www.w3.org/1999/xlink">
	<defs/>
	<path d="M 278.5,176.0 C 281.46933,176.57066 282.16681,176.86092 282.88535,177.22133 C 283.62311,177.59136999999998 284.67984,178.19687 285.33384,178.591 C 285.93906,178.95575 286.69798000000003,179.49806 287.69917,179.89467000000002 C 288.34623,180.15099 289.26633999999996,180.43756000000002 290.17600999999996,180.85066000000003 C 290.8257,181.14569000000003 291.42323,181.50216000000003 292.63300999999996,181.89017000000004 C 293.36881999999997,182.12616000000003 294.33912999999995,182.42954000000003 295.10132999999996,182.80133000000004 C 295.90201999999994,183.19191000000004 296.62686999999994,183.68886000000003 297.61467,183.91467000000003 C 298.48174,184.11288000000002 299.51003,184.50407000000004 300.21468,183.91467000000003 C 300.78463,183.43792000000002 299.85758999999996,182.38560000000004 299.39986,181.67833000000002 C 298.9468,180.97826 298.62559999999996,180.3067 298.01601,179.31599000000003 C 297.68065,178.77095000000003 297.1418,177.95930000000004 296.66668,177.16667000000004 C 296.24748999999997,176.46739000000005 295.89797,175.59117000000003 295.19552,174.75717000000003 C 294.67761,174.14227000000002 293.79489,173.77946000000003 293.20986,173.30000000000004 C 292.47787,172.70009000000005 292.04925,171.84149000000005 291.39019,171.35266000000004 C 290.73968,170.87015000000005 289.82308,170.73070000000004 289.33337,170.00000000000006 C 288.86673,169.30376000000007 288.00003,169.00000000000006 287.20004,168.64734000000007 L 286.40002,168.12134000000006 L 285.50003,167.83333000000005 L 284.90002,167.38933000000006" fill="none" id="svg_11" stroke="#000" stroke-width="2"/>
</svg>
