<?xml version="1.0" ?>
<svg baseProfile="full" height="480" version="1.1" width="640" xmlns="http://www.w3.org/2000/svg" xmlns:ev="http://www.w3.org/2001/xml-events" xmlns:xlink="http://www.w3.org/1999/xlink">
	<defs/>
	<path d="M 272.0,310.66666 C 271.16666,312.0 270.1929,312.81757 270.58533,313.59466999999995 C 270.77506,313.97036999999995 271.80017,313.68463999999994 272.70002,313.66666 C 273.60056,313.64865 274.38157,313.18937 275.16666,312.66666 C 275.80356,312.24262 276.4914,311.83222 277.5,311.6875 C 278.47824,311.54715 279.28705,311.66214 280.33334,311.5 C 280.97525,311.40054 281.68301,311.23215 282.45733,311.056 C 283.28835000000004,310.86694 284.62063,310.56503 285.08132,310.46799 C 286.00326,310.27378 286.90066,310.09098 287.74532,309.952 C 288.83360999999996,309.77292 289.72512,309.70331 290.558,309.61399 C 291.50145,309.51282 292.2534,309.38322 293.08666,309.24134 C 293.96007,309.0926 294.8305,308.92758999999995 296.05681,308.78799999999995 C 296.77970999999997,308.7057199999999 297.44286,308.71088 298.312,308.58268 C 299.32216,308.43366 300.12059,307.97900999999996 301.11599,307.75199 C 301.86922,307.58020999999997 302.82598,307.70237 303.83334,307.66666 C 304.63986,307.63806999999997 305.16665,306.83335 305.87832000000003,306.44534999999996 L 305.64282000000003,305.72382" fill="none" id="svg_11" stroke="#000" stroke-width="2"/>
</svg>
