<?xml version="1.0" ?>
<svg baseProfile="full" height="480" version="1.1" width="640" xmlns="http://www.w3.org/2000/svg" xmlns:ev="http://www.w3.org/2001/xml-events" xmlns:xlink="http://www.w3.org/1999/xlink">
	<defs/>
	<path d="M 228.0,173.0 C 229.10083,177.84351 229.1891,178.37865 229.45334,179.504 C 229.5948,180.10645 229.76862,180.73305 229.98584,181.38049999999998 C 230.21475,182.06279999999998 230.821,183.50617 231.20749999999998,184.26432999999997 C 231.61380999999997,185.06135999999998 232.07806999999997,185.87167999999997 232.57999999999998,186.69732999999997 C 233.09624,187.54653999999996 233.64863,188.39912999999996 234.2225,189.25633999999997 C 234.80194,190.12185999999997 235.9973,191.83525999999998 236.60017,192.67833999999996 C 237.19865,193.51526999999996 237.80078999999998,194.34110999999996 238.41065999999998,195.15334999999996 C 239.01715,195.96109999999996 239.63141,196.75698999999997 240.25716999999997,197.53833999999995 C 240.88078,198.31700999999995 242.16101999999998,199.83833999999996 242.82232999999997,200.57883999999996 C 243.48637999999997,201.32241999999997 244.17358999999996,202.05777999999995 244.88932999999997,202.78534999999997 C 245.61884999999998,203.52693999999997 246.38476999999997,204.26770999999997 247.19033999999996,205.00983999999997 C 248.02195999999995,205.77594999999997 249.82856999999996,207.33910999999998 250.80683999999997,208.14234999999996 C 251.81644999999997,208.97132999999997 252.86423999999997,209.80096999999998 253.93732999999997,210.62934999999996 C 255.01724,211.46300999999997 256.10634999999996,212.28141999999997 257.19385,213.08034999999995 C 258.26239,213.86534999999995 260.32981,215.33844999999997 261.31482,216.01401999999996 C 262.26196,216.66361999999995 263.18892999999997,217.27909999999997 264.10935,217.85601999999997 C 265.01609,218.42435999999998 265.93213000000003,218.96671999999998 266.86783,219.48200999999997 C 267.81613000000004,220.00422999999998 269.82932000000005,221.00878999999998 270.90717,221.49967999999998 C 272.0199,222.00644 273.17386,222.49821999999998 274.35868,222.97868 C 275.55958,223.46565999999999 276.779,223.93434 278.00819,224.38568 C 279.23368,224.83568 281.66441000000003,225.67361 282.85752,226.05669 C 284.03117000000003,226.43351 285.19657,226.786 286.35999000000004,227.10669000000001 C 287.51832,227.42598 288.68668,227.70668 289.86249000000004,227.97669000000002 L 291.05335,228.22669000000002" fill="none" id="svg_12" stroke="#000" stroke-width="2"/>
</svg>
