<?xml version="1.0" ?>
<svg baseProfile="full" height="480" version="1.1" width="640" xmlns="http://www.w3.org/2000/svg" xmlns:ev="http://www.w3.org/2001/xml-events" xmlns:xlink="http://www.w3.org/1999/xlink">
	<defs/>
	<path d="M 237.5,184.89999 C 236.44733,183.19999 235.87082,182.42831 235.62151,181.57867 C 235.37923,180.75298999999998 235.5,179.78534 235.5,178.89999 C 235.5,178.14283 235.49086,177.24728 235.5,176.38400000000001 C 235.51042,175.39982 235.74083,174.58648000000002 236.07466,173.72534000000002 C 236.43597,172.79332000000002 236.47290999999998,171.89953000000003 236.5,171.10000000000002 C 236.52859,170.25572000000003 237.33583,170.09628000000004 238.2,169.84283000000002 C 239.07743,169.58549000000002 239.84706,169.06358000000003 240.60001,168.67866 C 241.36321,168.28851 242.17195999999998,167.90533000000002 243.043,167.89999 C 243.77199000000002,167.89552 244.60899,167.89999 245.79984000000002,167.89999 C 246.39550000000003,167.89999 247.26401,167.89999 248.33333000000002,167.89999 C 249.26401,167.89999 250.09867000000003,167.89999 251.09551000000002,167.89999 C 251.84284000000002,167.89999 252.86707,167.97026 253.70134000000002,167.89866 C 254.67714,167.81492 255.43909000000002,167.61738 256.16666000000004,166.89999 C 256.72083000000003,166.35357 257.37149000000005,165.91056 258.50000000000006,165.89999 C 259.31070000000005,165.89239 259.96475000000004,165.91749000000002 260.92184000000003,166.1215 C 261.76547000000005,166.30132 262.37841000000003,166.52683 263.83334,166.89999 C 264.24170000000004,167.00471 265.11154000000005,167.19748 266.02084,167.42083 C 266.95364,167.64997 267.42947000000004,167.74912 268.77832,168.22115 C 269.64676000000003,168.52506 270.05048,168.72187 270.85333,169.03865 C 271.61068,169.33748 273.00982000000005,169.7556 273.65332,169.82799 C 274.535,169.92717 275.57849,169.89998 276.47916000000004,169.89998 C 277.09867,169.89998 278.10672000000005,169.84117 278.90000000000003,169.95715 C 279.91364000000004,170.10536000000002 280.69831000000005,170.45855 281.61600000000004,171.09999000000002 C 282.14682000000005,171.47101 282.97232,172.12851 283.74668,172.49998000000002 C 284.65116,172.93388000000002 285.45286000000004,173.19944 286.00001000000003,173.39997000000002 C 286.81632,173.69916000000003 287.82066000000003,174.08715000000004 288.68934,174.49998000000002 C 289.50581,174.88800000000003 290.29517000000004,175.33316000000002 290.95716,175.54281000000003 C 291.90339,175.84249000000003 292.72492,175.87788000000003 293.54733999999996,175.89549000000002 C 294.57827999999995,175.91757 295.4958,175.83227000000002 296.50001,176.06665 C 297.30890999999997,176.25543000000002 298.01469,176.61598 298.97916999999995,176.87915 L 299.90000999999995,176.89998" fill="none" id="svg_11" stroke="#000" stroke-width="2"/>
</svg>
