<?xml version="1.0" ?>
<svg baseProfile="full" height="480" version="1.1" width="640" xmlns="http://www.w3.org/2000/svg" xmlns:ev="http://www.w3.org/2001/xml-events" xmlns:xlink="http://www.w3.org/1999/xlink">
	<defs/>
	<path d="M 142.0,153.0 C 141.5,142.33333 142.13269,140.85817 142.619,140.27083 C 143.1002,139.68965 143.69044,139.20238999999998 144.332,138.79334 C 144.98074,138.37969 145.67952,138.01815 147.16666999999998,137.50001 C 147.91335999999998,137.23986 148.68283999999997,137.04531 149.45717,136.87152 C 150.23366,136.69723 151.01984,136.55636 151.81067,136.43202 C 152.60356,136.30736 153.40111,136.20219 155.0,136.00001 C 155.79939,135.89894 156.59627,135.80075 157.38651,135.69551 C 158.16827999999998,135.59140000000002 158.93819,135.48355 159.69200999999998,135.36401 C 160.42918999999998,135.24711000000002 161.15067,135.14508 162.50000999999997,134.83334000000002 C 163.74680999999998,134.54528000000002 164.31642999999997,134.35643000000002 164.86001,134.18535000000003 C 165.8627,133.86977000000002 166.72642,133.51967000000002 167.83534,133.24301000000003 C 168.67279,133.03407 169.51068,133.00268000000003 170.50001,133.00001000000003 L 171.32134,132.99984000000003 L 172.17467,132.96401000000003" fill="none" id="svg_11" stroke="#000" stroke-width="2"/>
</svg>
