<?xml version="1.0" ?>
<svg baseProfile="full" height="480" version="1.1" width="640" xmlns="http://www.w3.org/2000/svg" xmlns:ev="http://www.w3.org/2001/xml-events" xmlns:xlink="http://www.w3.org/1999/xlink">
	<defs/>
	<path d="M 417.0,245.0 C 418.75699,253.13567 418.8385,253.74452 418.88568,254.33299 C 418.97583,255.45705999999998 418.98668999999995,256.00387 418.99733999999995,257.08133 C 419.00807999999995,258.16659999999996 418.99999999999994,259.28799999999995 418.99999999999994,259.86618 C 418.99999999999994,260.45734 418.99999999999994,261.68268 418.99999999999994,262.31885 C 418.99999999999994,262.97199 418.99999999999994,264.33335 418.99999999999994,265.04267 C 418.99999999999994,266.50534999999996 418.99999999999994,267.25068 418.99999999999994,268.00001 C 418.99999999999994,268.74933999999996 418.99999999999994,269.49467 418.99999999999994,270.23199999999997 C 418.99999999999994,271.66666 418.99999999999994,272.35717999999997 418.99999999999994,273.03067999999996 C 418.99999999999994,274.33865999999995 418.99999999999994,274.97916999999995 418.99999999999994,275.61465999999996 C 418.99999999999994,276.24816999999996 418.99999999999994,278.16666 418.99999999999994,278.82116999999994 C 418.99999999999994,279.4826699999999 418.99999999999994,280.14816999999994 418.99999999999994,280.8146699999999 C 418.99999999999994,282.1386799999999 418.99999999999994,282.7901599999999 418.99999999999994,283.4306699999999 C 418.99999999999994,285.2568399999999 418.99999999999994,285.8280099999999 418.99999999999994,286.3811699999999 C 418.99999999999994,287.43750999999986 418.99999999999994,288.43383999999986 418.99999999999994,288.9119899999999 C 418.99999999999994,290.2783199999999 418.99999999999994,291.1383399999999 418.99999999999994,291.9583499999999 C 418.99999999999994,292.73834999999985 418.99999999999994,293.8333499999999 418.99999999999994,294.8338399999999 C 418.99999999999994,295.4375099999999 418.99999999999994,296.6666599999999 418.99999999999994,297.4583499999999 C 418.99999999999994,298.3045099999999 418.99999999999994,299.3215099999999 418.99999999999994,300.0208499999999 C 418.99999999999994,301.00000999999986 419.00014999999996,301.8213299999999 418.99999999999994,302.51434999999987 C 418.9997599999999,303.6433499999999 419.01104999999995,304.32531999999986 418.93749999999994,305.0833499999999 C 418.85570999999993,305.92642999999987 418.51354999999995,307.33792999999986 418.33550999999994,307.8426899999999 C 417.95699999999994,308.9158399999999 417.70086999999995,309.4548699999999 417.43749999999994,310.0000099999999 C 416.90435999999994,311.10349999999994 416.61306999999994,311.6420099999999 415.99999999999994,312.6666699999999 C 415.41738999999995,313.6404599999999 415.1037299999999,314.0896699999999 414.52083999999996,314.9791699999999 C 414.23562,315.4144399999999 413.66472999999996,316.2709199999999 413.16664999999995,317.1666699999999 C 412.6628999999999,318.0726099999999 412.45147,318.5521099999999 411.99998999999997,319.5000099999999 C 411.77403999999996,319.9744099999999 411.34538999999995,320.9322899999999 410.57899999999995,322.2783299999999 C 410.32814999999994,322.71890999999994 409.79313999999994,323.55157999999994 409.54164999999995,323.95834999999994 C 409.06152,324.7349899999999 408.44112999999993,325.81564999999995 408.16698999999994,326.83383999999995 C 408.00667999999996,327.42918 407.75579999999997,328.19095999999996 407.58531999999997,329.31732999999997 C 407.49873999999994,329.88935 408.34581999999995,329.34454999999997 408.76933999999994,328.85999 C 409.2765999999999,328.27967 409.79152999999997,327.59790999999996 410.31730999999996,326.88000999999997 C 411.08781999999997,325.82797999999997 411.54731999999996,325.15268 411.99998999999997,324.50001 C 412.45266,323.84733 413.16529999999995,322.83238 413.68267,322.11735 C 413.9475,321.75135 414.48533999999995,321.02524999999997 414.99017,320.30985 C 415.67510999999996,319.33923999999996 416.17562999999996,318.50525 416.61465,317.82131999999996 C 417.14923,316.98855999999995 417.64241999999996,316.39492999999993 418.17465,315.83599999999996 C 418.96341,315.00768999999997 419.71855999999997,314.47281 419.94284,315.13318 C 420.18304,315.84042 420.0,317.16666 420.0,317.88666 C 420.0,318.64667000000003 420.0,319.44666 420.0,320.28665 C 420.0,321.62134000000003 420.0,322.08401000000003 420.0,323.02533 C 420.0,323.97467 420.0,324.44733 420.0,325.83334 C 420.0,326.716 420.0,327.57467 420.0,328.42532 C 420.0,329.28399 420.0,330.16665 420.0,331.08401 C 420.0,332.02531999999997 420.0,332.97467 420.0,333.44732 C 420.0,334.83333999999996 420.0,335.712 420.0,336.54266 C 420.0,337.31732 420.0,338.02801 420.0,339.22799000000003 C 420.0,340.14266000000003 420.0,340.97765000000004 420.0,340.99233000000004 L 420.0,340.20931 L 420.0,339.51067 L 420.0,338.708" fill="none" id="svg_11" stroke="#000" stroke-width="2"/>
</svg>
