<?xml version="1.0" ?>
<svg baseProfile="full" height="480" version="1.1" width="640" xmlns="http://www.w3.org/2000/svg" xmlns:ev="http://www.w3.org/2001/xml-events" xmlns:xlink="http://www.w3.org/1999/xlink">
	<defs/>
	<path d="M 277.0,267.0 C 275.24301,272.93567 275.08267,273.73071 275.02133,274.80399 C 274.98265999999995,275.48047 275.0,276.52182 275.0,277.26618 C 275.0,278.06251000000003 275.0,278.91883 275.0,280.33335 C 275.0,280.84235 275.0,281.89634 275.0,282.42933 C 275.0,283.47733 275.0,284.46134 275.0,285.71418 C 275.0,286.37583 275.0,287.19334 275.0,288.16666 C 275.0,288.94818 275.05539,289.74005 274.99985,290.85684999999995 C 274.95716,291.71518999999995 274.11334,291.99933999999996 273.164,292.00001 C 272.39868,292.00055999999995 271.39099,292.00001 270.728,292.00001 C 269.66666000000004,292.00001 268.69467000000003,292.00001 268.0,292.00001 C 267.30533,292.00001 266.04285,292.00001 265.26132,292.00001 C 264.55182,292.00001 263.31732,292.00001 262.52084,292.00001 C 261.76934,292.00001 260.50375,291.87408999999997 260.08267,292.568 C 259.69269,293.21067 258.90756,293.76499 258.944,294.00001 C 259.04529,294.65353999999996 260.60449,294.00001 261.45715,294.00001 C 262.42166000000003,294.00001 263.24667,294.00001 264.16165,294.00001 C 265.16665,294.00001 265.88486,294.01865999999995 266.62533,293.97868 C 267.74954,293.91798 268.84313000000003,293.69337 269.51467,293.43202 C 270.17464,293.17518 271.06994000000003,292.63585 271.99999,292.33336 C 272.88085,292.04689 273.49938000000003,292.02318 274.39998,292.00267 C 275.59969,291.97536 276.20000000000005,292.00001000000003 277.09999000000005,292.00001000000003 C 278.29964000000007,292.00001000000003 278.89098000000007,291.99989000000005 279.72798000000006,292.00001000000003 C 280.85731000000004,292.00019000000003 281.68111000000005,292.00593000000003 282.54265000000004,292.44300000000004 C 283.28093,292.81754000000006 283.81188000000003,293.15317000000005 284.66664000000003,294.00001000000003 C 285.23024000000004,294.55836000000005 285.67421,295.40882000000005 286.10033000000004,296.19984000000005 C 286.52510000000007,296.98832000000004 286.97066000000007,297.51469000000003 287.76799000000005,298.11335 L 288.49998000000005,298.45835000000005 L 289.66664000000003,298.83335000000005 L 290.43748000000005,299.00001000000003" fill="none" id="svg_11" stroke="#000" stroke-width="2"/>
</svg>
