<?xml version="1.0" ?>
<svg baseProfile="full" height="480" version="1.1" width="640" xmlns="http://www.w3.org/2000/svg" xmlns:ev="http://www.w3.org/2001/xml-events" xmlns:xlink="http://www.w3.org/1999/xlink">
	<defs/>
	<path d="M 234.5,209.89999 C 233.29866,212.584 233.01924,213.41909 232.61467,214.216 C 232.21661,215.00007000000002 231.63835,215.71402 231.21732999999998,216.26933 C 230.72287999999998,216.92149 229.85444999999999,218.20475 229.53333999999998,218.72 C 229.19597,219.26135 228.85734999999997,219.82512 228.52083,220.39999 C 227.85726,221.53361 227.54431,222.07501 226.76467,223.49234 C 226.37144999999998,224.20718000000002 225.99935,224.74271000000002 225.66667999999999,225.73334000000003 C 225.40724999999998,226.50588000000002 225.25509,227.40453000000002 224.88933999999998,228.07466000000002 C 224.35816999999997,229.04790000000003 223.82050999999998,229.71319000000003 223.47467999999998,230.50000000000003 C 223.11093999999997,231.32758000000004 222.73387999999997,232.08340000000004 222.50000999999997,232.87917000000002 C 222.22456999999997,233.81641000000002 221.64522999999997,234.34810000000002 221.49550999999997,235.20000000000002 C 221.33237999999997,236.12818000000001 220.75784999999996,236.69078000000002 220.47467999999998,237.53600000000003 C 220.19379999999998,238.37435000000002 219.86597999999998,239.41376000000002 220.62866999999997,239.78568000000004 C 221.27585999999997,240.10128000000003 222.50000999999997,239.90000000000003 223.40449999999998,239.90000000000003 C 224.02083,239.90000000000003 224.98533999999998,239.90296000000004 226.02166999999997,239.89985000000004 C 226.76168999999996,239.89762000000005 227.54253999999997,239.89533000000003 228.36166999999998,239.84284000000005 C 229.66858999999997,239.75908000000004 230.58303999999998,239.61844000000005 231.04817999999997,239.54734000000005 C 231.97993999999997,239.40490000000005 232.88696999999996,239.22919000000005 234.16667999999999,239.06667000000004 C 234.9277,238.97002000000003 235.62997,238.94648000000004 236.59100999999998,238.84734000000003 C 237.5023,238.75333000000003 238.40458999999998,238.58397000000002 239.22799999999998,238.28934000000004 C 240.18479999999997,237.94696000000005 240.89568999999997,237.55620000000005 241.37866999999997,236.80017000000004 C 241.86925999999997,236.03223000000003 242.44610999999998,235.54629000000003 243.00000999999997,234.89999000000003 C 243.52419999999998,234.28834000000003 243.92683999999997,233.49118000000004 244.60001999999997,232.80000000000004 C 245.09337999999997,232.29345000000004 245.79551999999998,231.60000000000005 246.33333999999996,230.89999000000003 L 246.49867999999995,230.10000000000002 L 246.58532999999994,229.18533000000002 L 247.30132999999995,228.81599000000003" fill="none" id="svg_13" stroke="#000" stroke-width="2"/>
</svg>
