<?xml version="1.0" ?>
<svg baseProfile="full" height="480" version="1.1" width="640" xmlns="http://www.w3.org/2000/svg" xmlns:ev="http://www.w3.org/2001/xml-events" xmlns:xlink="http://www.w3.org/1999/xlink">
	<defs/>
	<path d="M 293.0,122.0 C 295.19949,129.69167 295.55972,130.60574 295.9375,131.29167 C 296.31763,131.98186 296.6571,131.43730000000002 297.504,131.17067 C 298.12921,130.97382 299.68332000000004,131.85826 300.17118,131.0 C 300.33468999999997,130.71234 300.00001,129.89348999999999 300.00001,128.884 C 300.00001,128.16267 300.00001,126.99999999999999 299.95734999999996,127.05332999999999 C 299.33338999999995,127.83334999999998 298.86469999999997,128.41816 298.30933999999996,129.11598999999998 C 298.02052,129.47890999999998 295.71995,130.23019 296.62534999999997,131.28932999999998 C 296.99393999999995,131.7205 298.16673,131.00596 298.99336,130.99599999999998 C 299.48674,130.99004999999997 300.58406,130.94586999999999 301.16667,130.89199999999997 C 301.76088,130.83703999999997 303.50737000000004,130.52235999999996 304.03468000000004,130.33616999999998 C 305.02156,129.98771999999997 305.84233000000006,129.53521999999998 306.50068000000005,129.11517999999998 C 307.30448000000007,128.60234999999997 307.78178,127.77002999999998 308.11067,127.18399999999998 C 308.49586000000005,126.49764999999998 309.96348,125.84180999999998 309.45335,124.70799999999998 C 309.19899,124.14263999999999 307.66053,124.34734999999998 306.86668,124.13466999999999 C 306.43778999999995,124.01976999999998 305.54713,123.67772999999998 304.16666999999995,123.66666999999998 C 303.27896999999996,123.65954999999998 302.81916999999993,123.78408999999998 301.97916999999995,124.18750999999999 C 301.05243999999993,124.63257999999999 300.60783,125.00527 299.66666999999995,125.83335 C 299.14475999999996,126.29254999999999 298.62934999999993,126.81638 298.10817,127.37234 C 297.57448,127.94163999999999 297.05537,128.53581 296.55866999999995,129.14535 C 296.0697799999999,129.74531000000002 294.8216699999999,131.49307000000002 294.50785999999994,132.03518 C 294.21842999999996,132.53518 293.75031999999993,133.45533 293.52534999999995,134.29601 C 293.33296999999993,135.01491 293.0823899999999,136.35772 293.58534999999995,137.07067 C 294.04112999999995,137.71673 295.17015999999995,137.65623 295.99336999999997,137.93601 C 296.48884999999996,138.10441 297.58165999999994,138.50507000000002 298.16668,138.69867000000002 C 298.75835,138.89447 299.33279,139.18387 301.03451,139.41417 C 301.99475,139.54413000000002 302.81253000000004,139.4375 303.44354,139.33917000000002 L 303.68737999999996,139.00450000000004" fill="none" id="svg_11" stroke="#000" stroke-width="2"/>
</svg>
