<?xml version="1.0" ?>
<svg baseProfile="full" height="480" version="1.1" width="640" xmlns="http://www.w3.org/2000/svg" xmlns:ev="http://www.w3.org/2001/xml-events" xmlns:xlink="http://www.w3.org/1999/xlink">
	<defs/>
	<path d="M 287.0,151.0 C 292.77335,151.28534 293.58096,151.5752 294.3045,152.30901 C 294.78082,152.79209 295.49997,153.75962 295.81466,154.27201 C 296.31844,155.09228 296.71893,155.98881 296.88567,156.8955 C 296.99205,157.47399 296.99865,158.31467 296.99999,159.54734 C 297.00072,160.22532999999999 296.99999,161.42149999999998 296.99999,162.236 C 296.99999,162.81068 297.04329,164.00171999999998 296.98650000000004,164.89101 C 296.93282000000005,165.7316 296.54738000000003,166.72312 295.92849,167.19468 C 295.46859,167.54510000000002 294.56954,167.92872 293.70034,168.54250000000002 C 293.08919,168.97406 292.56566999999995,169.50797000000003 291.77065,170.14667000000003 C 290.98922,170.77448000000004 290.1375,171.04367000000002 289.23598,171.22133000000002 L 288.32399,171.42534000000003 L 287.67598,171.57466000000002" fill="none" id="svg_11" stroke="#000" stroke-width="2"/>
</svg>
