<?xml version="1.0" ?>
<svg baseProfile="full" height="480" version="1.1" width="640" xmlns="http://www.w3.org/2000/svg" xmlns:ev="http://www.w3.org/2001/xml-events" xmlns:xlink="http://www.w3.org/1999/xlink">
	<defs/>
	<path d="M 307.0,403.0 C 307.0,404.70001 307.00601,405.70004 307.0,406.60001 C 306.99466,407.40006 306.49948,408.21878 306.16666,409.0 C 305.84646999999995,409.75153 306.18841999999995,410.72769 305.96398999999997,411.60001 C 305.74111999999997,412.46622 304.90112,413.10114 304.29999,413.70002 C 303.69662999999997,414.30111999999997 303.11755999999997,414.80445 302.35184,415.3 C 301.57227,415.80455 301.07169,416.52705000000003 300.57468,417.40001 C 300.16202,418.12486 299.84455,418.81584000000004 299.14933,419.41069 C 298.57908000000003,419.89860999999996 298.03602,420.82344 298.00001000000003,421.83335999999997 C 297.97306000000003,422.58885 298.00001000000003,423.50001999999995 298.00001000000003,424.40000999999995 C 298.00001000000003,425.29999999999995 298.08213,426.20381 297.99986,427.10002 C 297.91618,428.01146 297.36348000000004,428.61854 296.8,429.48267999999996 C 296.38032,430.12627 295.8,430.83066999999994 295.00001000000003,431.16666999999995 L 294.24284000000006,431.64734999999996" fill="none" id="svg_11" stroke="#000" stroke-width="2"/>
</svg>
