<?xml version="1.0" ?>
<svg baseProfile="full" height="480" version="1.1" width="640" xmlns="http://www.w3.org/2000/svg" xmlns:ev="http://www.w3.org/2001/xml-events" xmlns:xlink="http://www.w3.org/1999/xlink">
	<defs/>
	<path d="M 220.0,113.0 C 221.8,113.0 222.7,113.0 223.60001,113.0 C 224.4,113.0 225.30001,113.0 226.2,113.0 C 227.10001,113.0 228.0,113.0 228.80001,113.0 C 229.7,113.0 230.60001,113.0 231.50000999999997,113.0 C 232.39999999999998,113.0 233.30655999999996,112.89297 234.20000999999996,113.00134 C 235.11980999999997,113.1129 235.70111999999997,113.70338 236.40000999999995,114.40001 C 237.10114999999996,115.09889 237.64585999999994,115.55726999999999 238.29551999999995,116.30001 C 238.87669999999994,116.96445 238.99934999999996,117.80001 239.00001999999995,118.7 C 239.00068999999996,119.60000000000001 239.31217999999996,120.56060000000001 238.98934999999994,121.38934 C 238.71195999999995,122.10144000000001 237.43091999999996,121.6645 237.12151999999995,120.90001000000001 C 236.78081999999995,120.05817 236.68503999999996,119.25044000000001 236.08400999999995,118.71601000000001 C 235.43793999999994,118.14152000000001 234.89281999999994,117.54705000000001 234.00000999999995,117.16667000000001 C 233.24846999999994,116.84648000000001 232.27351999999993,117.18375000000002 231.39999999999995,116.96400000000001 C 230.53718999999995,116.74694000000001 229.90628999999996,116.06665000000001 229.11467999999994,116.00134000000001 C 228.17778999999993,115.92405000000001 227.16327999999993,115.83986000000002 226.52083999999994,115.50000000000001 C 225.69101999999992,115.06104000000002 224.78761999999995,114.92374000000001 224.02083999999994,114.47916000000001 C 223.18184999999994,113.99273000000001 222.84778999999995,113.08088000000001 222.11333999999994,113.00133000000001 C 221.18009999999992,112.90026 220.05925999999994,113.02265000000001 219.54167999999993,113.52083 C 218.87787999999992,114.15976 219.05794999999992,115.32560000000001 218.97917999999993,115.99999 C 218.86329999999992,116.99208 218.19867999999994,117.64923999999999 218.02083999999994,118.52083 C 217.82851999999994,119.46343 217.82326999999992,120.57817 218.61067999999995,120.97866 C 219.40425999999994,121.38229000000001 220.20946999999995,121.52718 221.10000999999994,121.87849 C 221.76069999999993,122.13912 222.72648999999993,121.81624 223.60000999999994,122.03599 C 224.46281999999994,122.25305 225.19697999999994,122.95727 226.10000999999994,122.99999 C 226.99899999999994,123.04252 227.80041999999995,123.02723 228.69999999999993,122.99999 C 229.64413999999994,122.9714 230.05180999999993,122.14361 230.99999999999994,121.99999 C 231.79098999999994,121.88019 232.83585999999994,122.1181 233.47916999999995,121.47914999999999 C 234.12136999999996,120.84129999999999 234.35715999999996,120.05264999999999 235.19999999999996,119.71464999999999 L 235.80000999999996,119.19864999999999 L 236.47917999999996,118.49997999999998" fill="none" id="svg_13" stroke="#000" stroke-width="2"/>
</svg>
