<?xml version="1.0" ?>
<svg baseProfile="full" height="480" version="1.1" width="640" xmlns="http://www.w3.org/2000/svg" xmlns:ev="http://www.w3.org/2001/xml-events" xmlns:xlink="http://www.w3.org/1999/xlink">
	<defs/>
	<path d="M 450.51135,336.09091 C 452.34469,336.25757 452.72661999999997,337.03003 453.61136,337.09091 C 454.50921999999997,337.15271 455.29178,337.08603 456.16402999999997,337.44809000000004 C 456.88134999999994,337.74585 457.69867,338.49628 458.39534999999995,338.80557000000005 C 459.30421999999993,339.20910000000003 459.97301999999996,339.08865000000003 461.19536999999997,339.09091000000006 C 462.01135,339.0924100000001 462.55882999999994,339.0730000000001 463.82601999999997,339.0922500000001 C 464.49075,339.1023500000001 465.51421999999997,339.2486800000001 466.32201999999995,339.51623000000006 C 466.97092,339.73113000000006 468.19555999999994,340.02020000000005 468.74736999999993,340.0549000000001 C 469.6147399999999,340.1094300000001 470.8111799999999,340.09091000000006 471.70070999999996,340.09091000000006 C 472.27536,340.09091000000006 473.34468999999996,340.09091000000006 474.27536,340.09091000000006 C 475.11005,340.09091000000006 476.11136,340.09091000000006 476.91137999999995,340.09091000000006 C 477.91403999999994,340.09091000000006 478.55303999999995,340.09091000000006 479.84469999999993,340.09091000000006 C 480.47802999999993,340.09091000000006 481.15136999999993,340.09091000000006 482.14886999999993,340.09091000000006 C 483.2468599999999,340.09091000000006 484.07937999999996,340.09085000000005 484.92202999999995,340.09091000000006 C 485.83270999999996,340.09100000000007 486.73467999999997,339.98681000000005 487.62603999999993,340.37491000000006 C 488.36776999999995,340.6978500000001 489.21136999999993,341.08643000000006 490.11135999999993,341.09091000000006 L 491.01134999999994,341.09091000000006 L 491.9113699999999,341.09091000000006 L 492.80684999999994,341.09091000000006" fill="none" id="svg_11" stroke="#000" stroke-width="2"/>
</svg>
