<?xml version="1.0" ?>
<svg baseProfile="full" height="480" version="1.1" width="640" xmlns="http://www.w3.org/2000/svg" xmlns:ev="http://www.w3.org/2001/xml-events" xmlns:xlink="http://www.w3.org/1999/xlink">
	<defs/>
	<path d="M 370.46667,312.78333 C 374.43066000000005,312.78351 375.42471,312.78467 375.94265,312.79400999999996 C 376.99078000000003,312.81289999999996 377.51312,312.79209 378.96667,312.95001999999994 C 379.81283,313.04193999999995 380.57348,313.16177999999996 381.49600000000004,313.54501999999997 C 382.32736000000006,313.89036 383.01660000000004,314.44293999999996 383.72799000000003,314.99398999999994 C 384.23464,315.38641999999993 385.10525,315.99020999999993 385.77200000000005,316.38332999999994 C 386.46252000000004,316.79046999999997 387.19503000000003,317.13250999999997 388.4234900000001,317.98314999999997 C 388.9635600000001,318.35711 389.61133000000007,318.94527999999997 390.2999900000001,319.61665999999997 C 390.8535800000001,320.15635999999995 391.4203800000001,320.68877 392.2413400000001,321.26998 C 393.05592000000007,321.84666999999996 393.74448000000007,322.24958999999996 394.1253400000001,322.46999 C 395.4218500000001,323.22026 395.91590000000014,323.47408 396.9533400000001,323.99797 C 397.48541000000006,324.26665 398.01929000000007,324.53844000000004 399.10001000000005,325.01399000000004 C 400.12656000000004,325.46571000000006 401.0957700000001,325.81856000000005 401.55683000000005,325.97349 C 402.44294,326.27128000000005 403.31919000000005,326.51795000000004 404.63334000000003,326.94999 C 405.08958,327.09998 406.01957000000004,327.43543 406.49201000000005,327.60865 C 407.44175000000007,327.95689 408.37925000000007,328.30933 409.29999000000004,328.61665 C 410.17554,328.90886 411.01398000000006,329.14402 411.78400000000005,329.40864 C 412.49921000000006,329.65443 413.7018800000001,330.25736 414.19468000000006,330.59797 C 414.8658500000001,331.06187 415.86469000000005,331.62278 416.66666000000004,331.79798 C 417.66449000000006,332.01597 418.29267000000004,332.20078 419.15201,332.66999 C 419.90222,333.07963 420.69028000000003,333.61136999999997 421.24133,333.95797999999996 C 422.29672,334.62185999999997 423.03494,334.98580999999996 423.61999000000003,335.40862999999996 C 424.49533,336.04123 424.80383,336.67416 425.52133000000003,337.38463999999993 C 426.18124000000006,338.0380799999999 426.83487,338.3933399999999 427.52917,338.80412999999993 C 428.2767,339.24641999999994 429.4696,339.94542999999993 429.86666,340.2047999999999 C 430.67269000000005,340.7313199999999 431.46798,341.3023299999999 431.86666,341.5939599999999 C 432.6693,342.1810299999999 433.46667,342.7832899999999 434.26665,343.3832999999999 C 435.06667000000004,343.9833099999999 435.46666000000005,344.2832899999999 436.26665,344.8832999999999 C 436.66664000000003,345.1832899999999 437.86931000000004,346.0794099999999 438.65764,346.6832899999999 C 439.0468,346.98138999999986 439.81374,347.5617099999999 440.49599,348.1832899999999 C 441.45131,349.0537099999999 441.95995,349.6726999999999 442.42498,350.26247999999987 C 442.86495,350.82045999999985 443.65835,351.86876999999987 444.06216,352.3216199999999 C 444.61959,352.9467099999999 445.47671,353.7333899999999 445.94583,354.2832899999999 C 446.6141,355.0666499999999 446.93909,355.8211299999999 447.35199,356.29930999999993 C 448.04062,357.0967999999999 448.97852,357.5254499999999 449.44583,358.2832899999999 C 449.91025,359.0364299999999 450.39511,359.87074999999993 451.06668,360.34728999999993 C 451.79233,360.8621799999999 452.35974000000004,361.9272199999999 453.11401,361.72164999999995 C 453.90408,361.50631999999996 453.46112,360.09676999999994 454.03601000000003,359.29931999999997 C 454.43695,358.74314 455.32736000000006,357.97553 455.83066,357.40862999999996 C 456.50501,356.64901999999995 456.81574,355.91134999999997 457.35199,355.2673 C 457.89432,354.61593 458.67407000000003,354.18759 459.66666,353.68329 C 460.26471,353.37943 461.07016,352.99021 461.86533,352.58331 C 462.6341,352.18991 463.44516,351.68347 464.16216999999995,351.14047 L 464.9874899999999,350.78328999999997" fill="none" id="svg_11" stroke="#000" stroke-width="2"/>
</svg>
