<?xml version="1.0" ?>
<svg baseProfile="full" height="480" version="1.1" width="640" xmlns="http://www.w3.org/2000/svg" xmlns:ev="http://www.w3.org/2001/xml-events" xmlns:xlink="http://www.w3.org/1999/xlink">
	<defs/>
	<path d="M 251.51137,144.09091 C 251.51137,142.39091000000002 251.51349,141.4712 251.08603,140.69092 C 250.63458,139.86685 250.36557,138.91545 250.07536,138.25492 C 249.73423,137.47849 249.33746,136.67804999999998 248.91136,135.92692 C 248.43983,135.09571 247.81784,134.41555 247.51137,133.57009 C 247.16959,132.62723 247.05129,131.88308 246.48604,131.07625 C 245.99176,130.37073999999998 245.35808,129.79585 245.0322,129.07009 C 244.60568999999998,128.12019999999998 244.68784,127.26209999999999 244.3447,126.25757999999999 C 244.10976,125.56983 243.71598,124.71806999999998 243.22602999999998,123.89090999999999 C 242.82271999999998,123.21002999999999 242.11136,122.69091999999999 241.41152999999997,121.99108 C 240.79670999999996,121.37625 240.15420999999998,120.73374 239.51136999999997,120.09091 C 238.91135999999997,119.49091 238.15606999999997,118.99328 237.67803999999998,118.09091 C 237.33463999999998,117.44269 236.93777999999998,116.62782 236.56402999999997,115.79091 C 236.21919999999997,115.01874 235.76414999999997,114.23035999999999 235.11137999999997,113.70157999999999 C 234.36741999999998,113.09893 233.66146999999998,112.64182 233.48603999999997,111.90557999999999 C 233.26235999999997,110.96683999999999 232.71067999999997,110.29160999999999 232.11137999999997,109.69090999999999 C 231.41211999999996,108.99000999999998 230.86993999999996,108.48272999999999 230.31002999999995,107.60425 C 229.83945999999995,106.86594 229.35207999999994,105.91963 229.02602999999996,105.40692 C 228.50228999999996,104.58333 228.12749999999997,104.02752 227.51136999999997,103.25758 C 226.93476999999996,102.53704 226.34736999999998,101.93758000000001 225.53286999999997,101.11225 L 225.03219999999996,100.59092" fill="none" id="svg_14" stroke="#fff" stroke-width="20"/>
</svg>
