<?xml version="1.0" ?>
<svg baseProfile="full" height="480" version="1.1" width="640" xmlns="http://www.w3.org/2000/svg" xmlns:ev="http://www.w3.org/2001/xml-events" xmlns:xlink="http://www.w3.org/1999/xlink">
	<defs/>
	<path d="M 319.5,387.0 C 320.55267,388.70001 321.08133,389.39197 321.7955,389.95184 C 322.48367,390.49133 322.55237,391.29489 323.07467,392.01468 C 323.58373,392.71622 324.43911,393.21524 324.49999,394.10001 C 324.56179000000003,394.99787 324.49999,395.79999 324.49999,396.70002 C 324.49999,397.60001 324.49999,398.50001 324.49999,399.4 C 324.49999,400.29999 324.62401,401.20862 324.49984,402.09983 C 324.38812,402.90171 323.62878,403.36524 323.49865,404.20002 C 323.35598,405.11533 322.84057,405.79621 321.89999,405.98933 C 321.03827,406.16627 320.5119,406.81428 319.7955,406.99553 C 318.92734,407.21517 318.0,406.99516 317.1,407.00001999999995 C 316.11062000000004,407.00535999999994 315.44619,407.44660999999996 314.92532,408.02534999999995 C 314.35122,408.66322999999994 313.69824,408.97216 312.79998,409.00001999999995 C 311.85589,409.0293199999999 311.86434,409.91218999999995 311.44283,410.6428399999999 C 310.9749,411.45393999999993 310.13723,411.81510999999995 309.55266,412.3526799999999 C 308.97042,412.8881099999999 308.24156,413.4196699999999 307.49999,413.8333599999999 C 306.66112000000004,414.3013199999999 306.25786000000005,414.95377999999994 305.85265000000004,415.7000299999999 C 305.43938,416.4611399999999 305.30812000000003,417.6626199999999 306.02083000000005,417.9791699999999 C 306.89684000000005,418.3682699999999 307.23561000000007,417.2202299999999 307.58400000000006,416.5680099999999 C 308.07842000000005,415.6424099999999 308.5481700000001,414.88193999999993 309.11064000000005,414.4360199999999 C 309.87974,413.8263099999999 310.90813,414.11652999999995 311.79997000000003,413.9955299999999 C 312.62132,413.8841099999999 313.43821,413.51938999999993 314.1428,412.94733999999994 C 314.76127,412.44519999999994 315.50324,411.47544999999997 315.06397000000004,411.4719999999999 C 314.14994,411.46482999999995 313.87043000000006,412.6158299999999 313.29996000000006,413.4826799999999 C 312.87760000000003,414.1244999999999 312.1447800000001,414.7798599999999 311.39997000000005,415.2215099999999 C 310.7374300000001,415.6143599999999 309.98096000000004,416.3482199999999 309.66663000000005,417.1666699999999 C 309.36927000000003,417.9409599999999 309.07685000000004,418.7705199999999 308.40015000000005,419.2215099999999 C 307.6969,419.6901999999999 307.18857,420.3847499999999 306.66663000000005,421.1666699999999 C 306.19480000000004,421.87351999999987 306.70856000000003,423.0943399999999 307.4999700000001,422.8333599999999 C 308.2088300000001,422.5995999999999 308.78922000000006,421.6891299999999 309.4999700000001,421.0000199999999 C 310.0911900000001,420.4268099999999 310.9098200000001,420.1344799999999 311.79996000000006,419.9955299999999 C 312.61893000000003,419.8676899999999 313.26682000000005,419.15415999999993 314.0999800000001,419.01069999999993 C 314.9869700000001,418.85795999999993 316.20389000000006,419.1150999999999 316.4892900000001,418.38935999999995 C 316.8073700000001,417.58057999999994 316.95661000000007,416.86954999999995 317.5839900000001,416.28400999999997 C 318.2724700000001,415.64149 318.8136300000001,415.24046 319.69864000000007,414.99866999999995 C 320.49640000000005,414.7807399999999 320.9755600000001,414.10529999999994 321.79996000000006,413.64734999999996 C 322.54227000000003,413.23499999999996 323.2877500000001,412.89475999999996 323.9999700000001,412.50001 C 324.8855900000001,412.00917 325.79996000000006,412.00001 326.6999800000001,412.00001 C 327.5999700000001,412.00001 328.4999700000001,412.00001 329.2999600000001,412.00001 C 330.1999800000001,412.00001 330.9007600000001,412.20023999999995 331.5839900000001,412.71601 C 332.19932000000006,413.18055 333.2000500000001,412.9896 334.0999800000001,413.00001 C 335.00016000000005,413.01045 335.73606000000007,413.46594999999996 336.5999800000001,413.87867 C 337.4526400000001,414.28599 338.1329100000001,414.62705 337.6973000000001,414.19733 C 337.0056500000001,413.51505000000003 336.16086000000007,413.10929000000004 335.5253000000001,412.57468 C 334.87595000000005,412.02848 334.5327200000001,411.24106 334.0639700000001,410.60001 C 333.4944800000001,409.82117 332.8552600000001,409.2389 332.0999800000001,408.61066 C 331.44342000000006,408.06455 330.2675500000001,408.43426999999997 329.66663000000005,407.83335 C 329.0657100000001,407.23243 329.4999700000001,406.20002 329.4999700000001,405.29999 C 329.4999700000001,404.4 329.4999700000001,403.5 329.4999700000001,402.60001 C 329.4999700000001,401.70002 329.4999700000001,400.79999 329.4999700000001,399.9 C 329.4999700000001,399.00001 329.01679000000007,398.39283 328.5853000000001,397.71466999999996 C 328.0921400000001,396.93961999999993 328.2982200000001,395.81672 328.6706300000001,395.20001999999994 C 329.13941000000005,394.4237099999999 330.16663000000005,394.0000099999999 330.49097000000006,393.29999999999995 L 330.53598000000005,392.40000999999995 L 330.93597000000005,391.61066999999997" fill="none" id="svg_11" stroke="#000" stroke-width="2"/>
</svg>
