<?xml version="1.0" ?>
<svg baseProfile="full" height="480" version="1.1" width="640" xmlns="http://www.w3.org/2000/svg" xmlns:ev="http://www.w3.org/2001/xml-events" xmlns:xlink="http://www.w3.org/1999/xlink">
	<defs/>
	<path d="M 450.0,296.0 C 449.42532,294.39999 449.0795,293.42679 448.47916,293.0 C 447.68316999999996,292.43414 446.69460999999995,292.39191 446.08401999999995,291.71466 C 445.50152999999995,291.06856999999997 445.06064,290.51959 444.35717999999997,289.94732999999997 C 443.7392,289.44458 443.21808,288.88291 442.4,288.42533 C 441.62769,287.99334999999996 440.84421,287.55868999999996 440.35267,286.94732999999997 C 439.83448,286.30283 439.78443,285.45156999999995 439.16667,284.83334999999994 C 438.54811,284.21432999999996 437.87202,283.81134999999995 437.3,283.2955099999999 C 436.57280000000003,282.6397199999999 436.31749,281.76861999999994 435.71602,281.0840199999999 C 435.19267,280.4883499999999 434.99553000000003,279.7044999999999 434.56401,279.0360199999999 L 433.70450999999997,278.9955199999999 L 433.03601999999995,278.5639999999999" fill="none" id="svg_14" stroke="#000" stroke-width="2"/>
</svg>
