<?xml version="1.0" ?>
<svg baseProfile="full" height="480" version="1.1" width="640" xmlns="http://www.w3.org/2000/svg" xmlns:ev="http://www.w3.org/2001/xml-events" xmlns:xlink="http://www.w3.org/1999/xlink">
	<defs/>
	<path d="M 366.0,305.0 C 366.88116,306.70001 366.25558,307.25906 365.64816,307.75717 C 364.83047,308.42769999999996 364.50659,309.06735 363.94534000000004,309.60132 C 363.01812000000007,310.48343 362.30554000000006,310.80505999999997 361.60400000000004,311.20000999999996 C 360.88424000000003,311.60522 359.82064,312.19911999999994 359.14816,312.59999999999997 C 358.47863,312.99911 357.80078000000003,313.42033999999995 356.66665,313.99998999999997 C 356.26132,314.20714 355.40408,314.59642999999994 354.54165,314.97914999999995 C 353.72006,315.34373999999997 352.65771,315.81737999999996 351.92416000000003,316.23833999999994 C 351.25232000000005,316.62389999999994 350.49697000000003,316.86162999999993 349.71734000000004,317.0973199999999 C 348.64025000000004,317.4229099999999 348.0278,317.8529999999999 347.31732000000005,318.2866499999999 C 346.54242000000005,318.7596399999999 346.16424000000006,319.0621299999999 344.8333400000001,319.6666499999999 C 343.9331900000001,320.07551999999987 343.44412000000005,320.19871999999987 342.47915000000006,320.4999899999999 C 341.9899500000001,320.6527299999999 340.9872700000001,320.9382199999999 339.9999900000001,321.33332999999993 C 338.98604000000006,321.73911999999996 338.4933400000001,322.00553999999994 337.47915000000006,322.52082999999993 C 336.96288000000004,322.78315999999995 336.45657000000006,323.08070999999995 334.8333400000001,323.83332999999993 C 334.28332000000006,324.08836999999994 333.72039000000007,324.3224399999999 332.5853200000001,324.7639899999999 C 332.02233000000007,324.9830099999999 331.45907000000005,325.1833299999999 330.3693200000001,325.5986499999999 C 329.33114000000006,325.9943099999999 328.3736200000001,326.3949799999999 327.92782000000005,326.5909899999999 C 327.1022300000001,326.9539999999999 326.41427000000004,327.3753799999999 325.2644900000001,327.75697999999994 C 324.33499000000006,328.06544999999994 323.39999000000006,327.99998999999997 322.5208400000001,328.02082999999993 L 321.9386600000001,328.57465999999994 L 321.1386700000001,328.97464999999994 L 320.4826600000001,329.0839899999999" fill="none" id="svg_12" stroke="#000" stroke-width="2"/>
</svg>
