<?xml version="1.0" ?>
<svg baseProfile="full" height="480" version="1.1" width="640" xmlns="http://www.w3.org/2000/svg" xmlns:ev="http://www.w3.org/2001/xml-events" xmlns:xlink="http://www.w3.org/1999/xlink">
	<defs/>
	<path d="M 316.0,137.0 C 316.0,128.86717 316.0,129.256 316.0,130.07150000000001 C 316.0,130.83200000000002 316.0,132.00000000000003 316.0,132.87750000000003 C 316.0,133.61999000000003 316.63638,133.26530000000002 315.9375,133.10417000000004 C 315.10889,132.91315000000003 315.14709,134.41734000000005 314.73468,135.11600000000004 C 314.30969000000005,135.83597000000003 313.57196000000005,137.00588000000005 313.66083000000003,137.67317000000006 C 313.76724,138.47207000000006 313.96808000000004,139.56653000000006 313.97916000000004,139.97917000000007 C 314.00998000000004,141.12642000000008 314.04581,141.61758000000006 314.88535,141.24299000000008 C 315.6467,140.9033000000001 316.32145,141.23509000000007 317.51401000000004,140.99999000000008 C 318.20548,140.86367000000007 318.71424,139.93584000000007 319.18534000000005,139.2039800000001 C 319.5204800000001,138.6833300000001 320.55939000000006,137.78839000000008 320.51734000000005,136.91866000000007 C 320.49247,136.40412000000006 319.32618,136.35062000000008 318.65735000000006,136.06266000000008 C 317.8359700000001,135.7090100000001 317.4038100000001,135.46050000000008 316.4248400000001,135.05349000000007 C 315.91330000000005,134.84083000000007 314.2820200000001,134.34759000000005 313.71866000000006,134.25599000000005 C 312.60098000000005,134.07427000000004 312.0420500000001,134.05456000000007 311.49735000000004,134.03199000000006 C 310.45521,133.98881000000006 309.06162000000006,133.94363000000007 308.29401,134.02250000000006 C 307.40274,134.11407000000005 306.73874,134.84264000000007 306.87683000000004,135.75883000000007 C 306.9877,136.49440000000007 306.99084000000005,137.39582000000007 307.836,138.29466000000008 C 308.2959,138.7837700000001 309.42346000000003,139.22079000000008 309.77683,139.46333000000007 C 310.56128,140.00177000000008 311.39438,140.56266000000008 311.836,140.78000000000006 C 313.02417,141.36473000000007 313.79013000000003,141.48323000000005 314.77866,141.38266000000004 C 315.40281,141.31917000000004 316.59452,141.06137000000004 317.4375,141.02083000000005 C 318.49896,140.96979000000005 319.17798,140.71800000000005 319.66382,139.89267000000004 C 320.05878,139.22176000000005 320.49129999999997,138.42230000000004 320.68799,137.98267000000004 C 321.08762,137.08942000000005 321.44119,135.72437000000005 321.45999,135.29201000000003 C 321.51065,134.12589000000003 321.76761,133.09009000000003 320.85416,132.54167000000004 C 320.39499,132.26599000000004 319.22681,132.44635000000005 318.16515999999996,132.23750000000004 C 317.56415,132.11926000000005 316.93767999999994,131.97833000000003 316.29467999999997,131.83999000000003 C 315.01635999999996,131.56498000000002 313.83630999999997,131.31402000000003 312.83335,131.17066000000003 C 312.03538,131.05660000000003 311.23611999999997,130.88729000000004 311.18134,131.17998000000003 C 311.03164999999996,131.97997000000004 311.90513,132.75713000000002 311.95835,133.47916000000004 C 312.00986,134.17836000000003 312.00156,135.17266000000004 312.59733,135.25733000000002 C 313.6219,135.40294000000003 313.98506,135.85128000000003 314.956,136.26533000000003 C 315.45820000000003,136.47949000000003 316.84879,138.30799000000005 317.50001000000003,137.33332000000004 C 317.63093000000003,137.13735000000005 317.34312000000006,136.57395000000005 317.88517,135.89349000000004 C 318.40534,135.24049000000005 318.98273,134.52362000000005 319.53217,133.82049000000004 C 320.17081,133.00323000000003 320.08951,132.86585000000002 319.77832,133.66467000000003 C 319.52728,134.30909000000003 319.2515,135.17611000000002 318.83334,136.16667000000004 C 318.52823,136.88943000000003 318.19601,137.63600000000005 317.89734000000004,138.41066000000004 L 317.65466000000004,139.20134000000004" fill="none" id="svg_12" stroke="#000" stroke-width="2"/>
</svg>
