<?xml version="1.0" ?>
<svg baseProfile="full" height="480" version="1.1" width="640" xmlns="http://www.w3.org/2000/svg" xmlns:ev="http://www.w3.org/2001/xml-events" xmlns:xlink="http://www.w3.org/1999/xlink">
	<defs/>
	<path d="M 236.0,174.0 C 251.0,179.0 252.46971,179.48196 252.98,179.666 C 253.88568999999998,179.99264 254.60050999999999,180.54019 255.14934,181.18533 C 255.79657,181.94615 255.77597,182.85913 254.92849999999999,183.3045 C 254.19412,183.69044 253.58165,183.85701 252.70049999999998,184.32116 C 251.81670999999997,184.78672 251.14997999999997,185.43498 250.24933,185.82932 C 249.61480999999998,186.10715 248.57369,185.98475 247.83067,186.03199 C 246.98098,186.08602000000002 246.06228,186.20145 245.16667,186.49999 C 244.27104,186.79854 243.46683000000002,187.25741 242.75467,187.72399 C 242.1319,188.13200999999998 241.23247,188.87479 240.336,189.22132 C 239.73428,189.45390999999998 238.77313,189.55759 237.96001,190.06133 C 237.14237,190.56788 236.81449,191.0707 236.13367000000002,191.35183 C 234.70656000000002,191.94114000000002 234.03124000000003,191.98676 233.33068000000003,192.11332000000002 C 232.58922000000004,192.24726 231.81867000000003,192.35333000000003 231.04168000000004,192.45832000000001 L 230.27468000000005,192.55332 L 229.53567000000004,192.63833000000002" fill="none" id="svg_12" stroke="#000" stroke-width="2"/>
</svg>
