<?xml version="1.0" ?>
<svg baseProfile="full" height="480" version="1.1" width="640" xmlns="http://www.w3.org/2000/svg" xmlns:ev="http://www.w3.org/2001/xml-events" xmlns:xlink="http://www.w3.org/1999/xlink">
	<defs/>
	<path d="M 469.0,308.0 C 467.29999,308.0 466.36401,308.0 465.51468,308.0 C 464.59549,308.0 463.60132,308.0 462.836,308.0 C 461.88266,308.0 461.03067,308.0 460.232,308.0 C 459.25068000000005,308.0 458.33335000000005,308.0 457.47916000000004,308.0 C 456.50000000000006,308.0 455.63752000000005,308.0 454.97916000000004,308.0 C 453.96668000000005,308.0 453.04209000000003,308.02542 452.26133000000004,307.98932 C 451.31541000000004,307.94559000000004 450.31104000000005,307.72720000000004 449.47916000000004,307.47916000000004 C 448.89283000000006,307.30432 447.69928000000004,306.90259000000003 447.10450000000003,306.70002000000005 C 446.23469000000006,306.4037900000001 445.16380000000004,306.00672000000003 444.45268000000004,305.70002000000005 C 443.77186000000006,305.40641000000005 442.84089000000006,304.97898000000004 442.04286,304.70451 C 441.19676000000004,304.41352 440.60673,304.22892 439.40001,304.08534000000003 C 438.50404000000003,303.97874 437.90001,304.00227 436.70018,304.00001000000003 C 435.81068,303.99836000000005 435.23600999999996,304.00001000000003 434.16667,304.00001000000003 C 433.22536,304.00001000000003 432.54735,304.00001000000003 431.31602000000004,304.00001000000003 C 430.50001000000003,304.00001000000003 429.95268000000004,304.00001000000003 428.68269000000004,304.00001000000003 L 427.97917,304.00001000000003 L 427.23067000000003,304.00001000000003" fill="none" id="svg_12" stroke="#000" stroke-width="2"/>
</svg>
