<?xml version="1.0" ?>
<svg baseProfile="full" height="480" version="1.1" width="640" xmlns="http://www.w3.org/2000/svg" xmlns:ev="http://www.w3.org/2001/xml-events" xmlns:xlink="http://www.w3.org/1999/xlink">
	<defs/>
	<path d="M 297.5,306.0 C 299.31467,306.01068 300.22876,306.2298 300.50015,307.09982 C 300.75747,307.92471 301.4714,308.35571000000004 301.5,309.20001 C 301.53046,310.09949 301.5,311.0 301.5,311.79999000000004 C 301.5,312.70001 301.5,313.60001000000005 301.5,314.50000000000006 C 301.5,315.39999000000006 301.5,316.29999000000004 301.5,317.20132000000007 C 301.5,318.16665000000006 301.5,319.00000000000006 301.5,319.97848000000005 C 301.5,320.69549000000006 301.5,321.6 301.5,322.49999 C 301.5,323.39998 301.5,324.29998 301.5,325.20000000000005 C 301.5,326.09999000000005 301.5,326.99999 301.5,327.79998000000006 C 301.5,328.70000000000005 301.50958,329.60006000000004 301.5,330.4999900000001 C 301.48956,331.4793000000001 300.8894,331.9946500000001 300.0,331.9999900000001 C 299.10004,332.0053900000001 298.04047,331.8178300000001 297.52533,332.43599000000006 C 296.99765,333.0692000000001 296.58502,333.9873800000001 296.50133999999997,334.7999700000001 C 296.40912,335.6952600000001 296.49999999999994,336.5999900000001 296.49999999999994,337.4999800000001 C 296.49999999999994,338.3999700000001 296.4894699999999,339.3045500000001 296.49999999999994,340.1666400000001 C 296.51043999999996,341.0210100000001 296.59829999999994,342.0271100000001 296.9359999999999,342.7786400000001 C 297.24184999999994,343.4592700000001 298.2534099999999,343.9276600000001 298.4955099999999,344.7044800000001 C 298.7621999999999,345.56031000000013 298.9253199999999,346.3573100000001 299.44283999999993,345.8803200000001 L 299.4893199999999,345.2293200000001" fill="none" id="svg_12" stroke="#000" stroke-width="2"/>
</svg>
