<?xml version="1.0" ?>
<svg baseProfile="full" height="480" version="1.1" width="640" xmlns="http://www.w3.org/2000/svg" xmlns:ev="http://www.w3.org/2001/xml-events" xmlns:xlink="http://www.w3.org/1999/xlink">
	<defs/>
	<path d="M 282.0,173.0 C 282.22183,181.57817 282.28079,182.31282 282.36618,183.03383 C 282.45025999999996,183.74353 282.55322,184.43921 282.68268,185.11733999999998 C 282.80976,185.78296999999998 283.32273,187.67055 283.543,188.25733999999997 C 283.76025,188.83600999999996 284.26801,189.95131999999998 284.54166,190.49999999999997 C 284.81728999999996,191.05266999999998 285.12548999999996,191.59693999999996 286.0,193.33332999999996 C 286.30545,193.93978999999996 286.60129,194.56617999999997 286.89099,195.20533999999995 C 287.18268,195.84885999999995 287.46518,196.49720999999994 287.728,197.14933999999994 C 288.24277,198.42666999999994 288.67285,199.66470999999993 288.85733,200.25683999999993 C 289.20645,201.37756999999993 289.33948,201.92027999999993 289.65066,202.94267999999994 C 289.80059,203.43530999999993 290.32141,204.83912999999993 290.54266,205.27833999999993 C 290.98199,206.15049999999994 291.49945,206.95867999999993 291.74933,207.35333999999992 C 292.23093,208.11400999999992 292.87781,209.16827999999992 293.328,210.14267999999993 C 293.59094,210.71182999999994 293.95775999999995,211.69461999999993 294.52083999999996,212.50000999999992 C 294.86073999999996,212.98616999999993 295.48400999999996,213.76801999999992 295.99999999999994,214.50000999999992 C 296.51598999999993,215.2319999999999 297.05166999999994,216.10324999999992 297.66134999999997,216.5786799999999 C 298.46936,217.2087799999999 299.29067999999995,217.4158799999999 299.85733,217.7079999999999 C 300.49759,218.0380499999999 301.52942,218.7562499999999 302.27966,219.38049999999993 C 302.69325999999995,219.72464999999994 303.58853,220.50651999999994 304.09033,220.92782999999991 C 304.62573,221.37736999999993 305.82983,222.33801999999991 306.50784,222.84333999999993 C 307.22564,223.37832999999992 307.99327999999997,223.92553999999993 308.80133,224.49332999999993 C 309.64423,225.08562999999992 310.52533,225.69333999999992 311.43683,226.32332999999994 C 312.37732,226.97333999999995 314.33441,228.33180999999993 315.34317,229.04299999999995 C 316.37311,229.76911999999996 317.41898,230.51412999999994 318.48267,231.27199999999996 C 319.56266,232.04146999999998 320.65659,232.82237999999995 321.76617999999996,233.60898999999995 C 322.88723999999996,234.40372999999994 325.16558999999995,236.00153999999995 326.32133,236.80016999999995 C 327.48295,237.60286999999994 328.6533,238.40360999999996 329.82536,239.21065999999996 C 331.00061999999997,240.01992999999996 332.17698,240.83271999999997 333.34733,241.65715999999995 C 334.51832,242.48204999999996 336.83689,244.16193999999996 337.97849,245.02132999999995 C 339.1182,245.87929999999994 340.24445000000003,246.75057999999996 341.36402000000004,247.62532999999996 C 342.48078000000004,248.49791999999997 343.58893000000006,249.37515999999997 344.69550000000004,250.24731999999997 C 345.79828000000003,251.11648999999997 347.99723000000006,252.83694999999997 349.09967000000006,253.67781999999997 C 350.1945800000001,254.51294999999996 351.28708000000006,255.33015999999998 352.3786600000001,256.12132999999994 C 353.4545300000001,256.90111999999993 354.5229500000001,257.65281999999996 355.5856600000001,258.36680999999993 C 356.6244200000001,259.0646899999999 358.66125000000005,260.34266999999994 359.65933000000007,260.9154899999999 C 360.64276000000007,261.4799099999999 361.64648000000005,262.0160499999999 362.6773400000001,262.5519999999999 C 363.7477400000001,263.1085199999999 364.88346000000007,263.6798099999999 366.09134000000006,264.2965099999999 C 367.39285000000007,264.9610299999999 370.33600000000007,266.4950599999999 371.9978300000001,267.3918499999999 C 373.7722100000001,268.34939999999995 375.61685000000006,269.36587999999995 377.5013400000001,270.41732999999994 C 379.3978900000001,271.47549999999995 381.2673300000001,272.5324999999999 383.07684000000006,273.56884999999994 C 384.7992500000001,274.55529999999993 387.83612000000005,276.32867999999996 389.09100000000007,277.08450999999997 C 390.1770900000001,277.73864999999995 391.10229000000004,278.31174 391.88400000000007,278.80801999999994 C 392.54330000000004,279.2265699999999 393.08938000000006,279.58523999999994 393.54300000000006,279.8835199999999 C 393.91873000000004,280.1305899999999 394.49732000000006,280.5047699999999 394.73499000000004,280.6353499999999 C 394.93781,280.7467999999999 395.11286,280.8297499999999 395.26001,280.8813499999999 C 395.37354000000005,280.92113999999987 395.46317000000005,280.9479399999999 395.51501,280.9293199999999 C 395.54437,280.9187899999999 395.50225,280.8305999999999 395.4345,280.7774999999999 C 395.33901000000003,280.7026699999999 395.20113000000003,280.61639999999994 395.02801,280.49999999999994 C 394.81203999999997,280.35482999999994 394.55029,280.17571999999996 394.24349,279.95250999999996 C 393.88195,279.68944999999997 392.99792,279.00253 392.46984000000003,278.57016 C 391.8763,278.08417 391.22503000000006,277.53503 390.50933000000003,276.93066 C 389.72866000000005,276.27142 388.88482000000005,275.55502 387.97283000000004,274.78717 C 386.99554000000006,273.96429 384.8341300000001,272.16568 383.64998,271.19232 C 382.40749000000005,270.17099 381.1111,269.11235999999997 379.77998,268.00934 C 378.41435,266.87775 377.02790000000005,265.71695 375.64000000000004,264.52033 C 374.24120000000005,263.31434 371.49135000000007,260.84247 370.16499000000005,259.57902 C 368.85136000000006,258.32765 367.57878000000005,257.06245 366.33998,255.79602000000003 C 365.11885,254.54765000000003 363.93642,253.30067000000003 362.78499000000005,252.06702 C 361.65648000000004,250.85793 359.50005000000004,248.49996000000002 358.46465000000006,247.36519 C 357.4573900000001,246.26129 356.4786000000001,245.18712000000002 355.51867000000004,244.15068000000002 C 354.58584,243.14351000000002 353.67321000000004,242.17097 352.77065000000005,241.24219000000002 C 351.89437000000004,240.34044000000003 350.17351,238.65917000000002 349.32198000000005,237.88636000000002 C 348.49593000000004,237.13667000000004 347.6749500000001,236.43253 346.86800000000005,235.76536000000002 C 346.08745000000005,235.12 345.32045000000005,234.51237 344.5759800000001,233.93235 C 343.85906000000006,233.37380000000002 342.49908000000005,232.33454 341.8646500000001,231.84303000000003 C 341.2564300000001,231.37182 340.6746200000001,230.91610000000003 340.1186500000001,230.47203000000002 C 339.5820000000001,230.04338 339.06616000000014,229.62357000000003 338.5706800000001,229.20903 C 338.0875300000001,228.80482 337.1644000000001,228.00252 336.72183000000007,227.6002 C 336.2857600000001,227.20381 335.86374000000006,226.80703 335.45733000000007,226.41069 C 335.06011000000007,226.02329999999998 334.6826700000001,225.63602999999998 334.3188400000001,225.25719999999998 L 333.9719800000001,224.88536" fill="none" id="svg_12" stroke="#000" stroke-width="2"/>
</svg>
