<?xml version="1.0" ?>
<svg baseProfile="full" height="480" version="1.1" width="640" xmlns="http://www.w3.org/2000/svg" xmlns:ev="http://www.w3.org/2001/xml-events" xmlns:xlink="http://www.w3.org/1999/xlink">
	<defs/>
	<path d="M 367.5,131.89999 C 365.79999,131.89999 364.8804,131.89805 364.10001,132.32533 C 363.27744,132.77571 362.4,132.89999 361.5,132.89999 C 360.70001,132.89999 360.07108,133.27072 359.2785,133.7785 C 358.53173,134.25694000000001 357.5,133.89999 356.70001,133.89999 C 355.79999000000004,133.89999 354.89996,133.89459 354.0,133.89999 C 353.1106,133.90533 352.6261,134.62558 351.88934,134.88932 C 351.05197,135.18908 350.1,134.89999 349.20001,134.89999 C 348.29999000000004,134.89999 347.39999,134.89999 346.5,134.89999 C 345.70001,134.89999 344.79999,134.89999 343.89999,134.89999 C 343.0,134.89999 342.07385,134.82949 342.5,135.06666 C 343.1272,135.41572000000002 343.57446,136.31025000000002 344.07468,136.92533 C 344.5788,137.5452 344.10181,138.60258 344.53601,139.464 C 344.88827,140.16287 345.48062,140.70155 345.5,141.6 C 345.51865,142.46455 346.04837,143.11503 346.66666,143.73333 C 347.28495,144.35163 347.90002999999996,144.61747 348.79551,144.90448999999998 C 349.55636999999996,145.14835999999997 350.05079,145.84018999999998 350.79999999999995,146.25267 C 351.6386499999999,146.71439 352.63840999999996,146.57747 353.33335999999997,147.06667 C 354.04835999999995,147.57 354.47141999999997,148.25588 354.50001999999995,149.2 C 354.52717999999993,150.09693 354.50001999999995,150.27866999999998 354.50001999999995,149.39999999999998 C 354.50001999999995,148.50000999999997 354.47077999999993,147.57952999999998 355.00001999999995,146.89999999999998 C 355.49497999999994,146.26447 355.90370999999993,145.46047 356.69868999999994,144.98400999999998 C 357.39073999999994,144.56924999999998 357.82615999999996,143.86334 358.21601999999996,143.10001 C 358.60053999999997,142.34711 358.50001999999995,141.4 358.50001999999995,140.5 C 358.50001999999995,139.52133 358.50001999999995,139.70267 358.50001999999995,140.60001 C 358.50001999999995,141.5 358.65711999999996,142.41571 358.48933999999997,143.30001 C 358.30987,144.24591999999998 357.91493999999994,145.04971999999998 357.33335999999997,145.73334 C 356.76676999999995,146.39936 355.87233,146.64762 355.52085999999997,147.42084 C 355.15696999999994,148.22144 355.66770999999994,149.21604 355.49866999999995,150.09867 C 355.35355999999996,150.85641 354.26136999999994,151.00304 353.78534999999994,151.70135 C 353.27457999999996,152.45066 352.71741999999995,152.78125 351.8999999999999,152.32533999999998 C 351.1271699999999,151.89431 350.5126399999999,151.37932999999998 350.5000099999999,150.50000999999997 C 350.4871599999999,149.60458999999997 350.11243999999994,148.88504999999998 349.4746799999999,148.32533999999998 C 348.8850799999999,147.8079 348.50134999999995,147.09866999999997 348.4146799999999,146.18534 L 347.6666599999999,145.73334 L 347.49999999999994,144.9 L 347.49999999999994,144.10001" fill="none" id="svg_12" stroke="#000" stroke-width="2"/>
</svg>
