<?xml version="1.0" ?>
<svg baseProfile="full" height="480" version="1.1" width="640" xmlns="http://www.w3.org/2000/svg" xmlns:ev="http://www.w3.org/2001/xml-events" xmlns:xlink="http://www.w3.org/1999/xlink">
	<defs/>
	<path d="M 504.0,251.0 C 504.0,252.8 504.01068,253.70006 504.0,254.60001 C 503.98956,255.47935999999999 503.44202,255.95064 502.51599,256.284 C 501.81097,256.53781 500.88842999999997,256.95727999999997 500.0,257.0 C 499.24371,257.03635 498.33344,256.92987 497.39868,257.08533 C 496.58807,257.22013 495.85333,257.62754 494.884,257.91599 C 493.84872,258.22406 493.16653,258.46604 492.53833000000003,258.64734000000004 C 491.33743000000004,258.99396 490.52103000000005,258.98837000000003 489.76935000000003,258.99866000000003 C 488.80994000000004,259.01178000000004 487.83335000000005,259.00000000000006 487.00000000000006,259.00000000000006 C 486.02151000000003,259.00000000000006 485.20132000000007,259.00000000000006 484.29999000000004,259.00000000000006 C 483.47916000000004,259.00000000000006 482.51599000000004,259.00000000000006 481.65268000000003,259.00000000000006 C 480.75717000000003,259.00000000000006 479.79999000000004,259.00000000000006 478.89999000000006,259.00000000000006 C 478.00000000000006,259.00000000000006 477.2000100000001,259.00000000000006 476.36401000000006,259.00000000000006 C 475.3473200000001,259.00000000000006 474.6526800000001,259.00000000000006 473.6253300000001,259.00000000000006 C 472.67867000000007,259.00000000000006 471.9999900000001,259.00000000000006 471.0215100000001,259.00000000000006 C 470.0000000000001,259.00000000000006 469.2000100000001,259.00000000000006 468.36401000000006,259.00000000000006 C 467.3473200000001,259.00000000000006 466.6526800000001,259.00000000000006 465.6253300000001,259.00000000000006 C 464.67867000000007,259.00000000000006 463.9999900000001,259.00000000000006 463.0215100000001,259.00000000000006 C 462.0000000000001,259.00000000000006 461.2428200000001,259.00000000000006 460.3473200000001,259.00000000000006 C 459.48401000000007,259.00000000000006 458.50000000000006,259.00000000000006 457.6785000000001,259.00000000000006 C 456.7893400000001,259.00000000000006 455.7999900000001,259.00000000000006 455.0000000000001,259.00000000000006 C 454.0000000000001,259.00000000000006 453.1910400000001,258.90189000000004 452.4853200000001,259.08533000000006 C 451.4692400000001,259.34943000000004 450.6926300000001,259.96741000000003 450.02933000000013,259.99866000000003 C 448.99576000000013,260.04737000000006 448.18344000000013,259.90079000000003 447.3333500000001,260.33335000000005 C 446.5850000000001,260.71412000000004 446.0489000000001,261.82139000000006 445.2428300000001,261.99100000000004 C 444.3664600000001,262.17539000000005 443.47028000000006,261.85828000000004 442.6359900000001,262.01068000000004 C 441.6515500000001,262.19052000000005 441.1363600000001,262.82178000000005 440.17466000000013,262.96399 C 439.1768900000001,263.11154000000005 438.40516000000014,262.91641000000004 437.4583500000001,263.02084 C 436.4435800000001,263.13278 435.7374900000001,263.40518000000003 435.00535000000013,263.70449 C 434.1272700000001,264.06347 433.48441000000014,264.74105000000003 432.57868000000013,264.96398000000005 C 431.69239000000016,265.18212000000005 430.7353900000001,264.97121000000004 429.9481900000001,265.05715000000004 C 428.91459000000015,265.16997000000003 428.22678000000013,265.41561 427.40135000000015,265.80132000000003 C 426.59047000000015,266.18023000000005 425.80314000000016,266.60637 425.00001000000015,266.99999 C 424.1924500000001,267.39577 423.55647000000016,267.70781000000005 422.57868000000013,267.87850000000003 C 421.7821700000001,268.01754000000005 420.9524900000001,267.97982 419.6853400000001,268.00133000000005 C 419.0206700000001,268.01262 417.9952500000001,268.15236000000004 417.2000200000001,268.42531 C 416.39494000000013,268.70162000000005 415.5965300000001,268.89293000000004 414.8000000000001,269.02532 C 413.79475000000014,269.1924 413.02318000000014,269.57982000000004 412.00001000000015,269.83333000000005 C 411.2234300000001,270.02574000000004 410.47569000000016,269.88161 409.50001000000015,270.02083000000005 C 408.49040000000014,270.16490000000005 407.8115300000001,270.65953 406.8001800000001,270.87850000000003 C 406.0321700000001,271.04479000000003 405.0213400000001,270.99807000000004 404.2473500000001,270.99999 C 403.3428400000001,271.00225 402.5954900000001,271.05715000000004 401.6013200000001,271.28399 L 400.8360000000001,271.57467" fill="none" id="svg_12" stroke="#000" stroke-width="2"/>
</svg>
