<?xml version="1.0" ?>
<svg baseProfile="full" height="480" version="1.1" width="640" xmlns="http://www.w3.org/2000/svg" xmlns:ev="http://www.w3.org/2001/xml-events" xmlns:xlink="http://www.w3.org/1999/xlink">
	<defs/>
	<path d="M 398.0,380.0 C 391.16666,385.0 390.28897,385.7247 389.37466,386.51199 C 388.41479,387.3385 387.42773,388.21273 386.41665,389.125 C 385.37963,390.06067 384.33093,391.02301 383.27865,392.008 C 381.15911000000006,393.99197999999996 380.11822,394.9968 379.08666000000005,396.00266 C 378.05822000000006,397.0055 377.04159000000004,398.01639 376.04165000000006,399.04166 C 375.04159000000004,400.06705 374.05142000000006,401.10492 373.08666000000005,402.17066 C 371.14580000000007,404.31467 370.21450000000004,405.43863 369.27999000000005,406.57734 C 368.33272000000005,407.73161 367.3895800000001,408.9224 366.4374900000001,410.14585 C 365.4628200000001,411.39835 364.4746300000001,412.69395 363.4599800000001,414.02933 C 361.3308600000001,416.83148 360.2150500000001,418.3064 359.0666700000001,419.81732 C 357.8984000000001,421.3544 356.7199900000001,422.90533 355.5416500000001,424.45834 L 354.3733200000001,426.00134 L 353.2250000000001,427.52234000000004 L 352.10665000000006,429.00934000000007" fill="none" id="svg_12" stroke="#000" stroke-width="2"/>
</svg>
