<?xml version="1.0" ?>
<svg baseProfile="full" height="480" version="1.1" width="640" xmlns="http://www.w3.org/2000/svg" xmlns:ev="http://www.w3.org/2001/xml-events" xmlns:xlink="http://www.w3.org/1999/xlink">
	<defs/>
	<path d="M 301.0,306.0 C 299.24283,311.72183 299.15454,312.28671 299.06134,313.45734 C 299.01318,314.06194999999997 298.98726999999997,314.68277 298.95183999999995,315.31885 C 298.8395699999999,317.33371 298.7839599999999,318.04373 298.71065999999996,318.77201 C 298.63543,319.51948000000004 298.54049,320.28397 298.41664999999995,321.06251000000003 C 298.28999999999996,321.85877000000005 298.14064999999994,322.67002 297.94264999999996,323.48802 C 297.53419999999994,325.17534 297.24449999999996,326.02437000000003 296.94533999999993,326.88402 C 296.64192999999995,327.75585 296.3069699999999,328.62706000000003 295.9583399999999,329.50002 C 295.6083299999999,330.37642 295.2433099999999,331.24721 294.8813399999999,332.11602 C 294.16597999999993,333.83308999999997 293.8183199999999,334.67696 293.4879999999999,335.51336 C 293.1627099999999,336.33702999999997 292.8522599999999,337.15151 292.5624899999999,337.95837 C 292.2776399999999,338.75158 292.00819999999993,339.53506 291.7719899999999,340.31335 C 291.3125799999999,341.82724 291.1363999999999,342.57684 290.9706599999999,343.31335 C 290.8078199999999,344.03692 290.6679899999999,344.75262000000004 290.5416399999999,345.45837 C 290.4173699999999,346.15264 290.30765999999994,346.83816 290.2026499999999,347.51336 C 289.9974199999999,348.83297 289.90161999999987,349.47862999999995 289.79865999999987,350.11337 C 289.6972499999999,350.73864 289.59263999999985,351.35396999999995 289.47913999999986,351.95837 C 289.36728999999985,352.55401 289.27619999999985,353.14679 288.8333299999999,354.83337 C 288.68946999999986,355.38131 288.35053999999985,356.43945 288.1746399999999,356.95337 C 287.8316199999999,357.95554 287.6342999999999,358.4321 287.1666399999999,359.83337 C 286.8737599999999,360.7109 286.75031999999993,361.14096 286.52082999999993,361.97918 C 286.29783999999995,362.79372 285.99711999999994,363.99932 285.8013199999999,364.7987 C 285.6078099999999,365.58865 285.4190899999999,366.36083 285.28532999999993,367.11468 C 285.09730999999994,368.17422000000005 285.10417999999993,369.16098 284.8901599999999,369.9812 C 284.6535599999999,370.88794 283.8489599999999,371.35971 283.3333399999999,372.16669 C 282.8646199999999,372.90024 282.72246999999993,373.86121 282.0280099999999,374.08271 C 280.9947499999999,374.41227000000003 280.4185699999999,374.52222 279.51198999999986,374.97202000000004 C 278.45455999999984,375.49668 277.74672999999984,376.00446000000005 277.37465999999984,376.25071 C 276.6240799999998,376.74751000000003 275.90364999999986,377.2667 274.82131999999984,377.85737 C 274.16393999999985,378.21613 273.48501999999985,378.46974 272.5159899999998,378.96803 C 271.4611499999998,379.51045 271.1110499999998,379.76393 270.36400999999984,380.26136 C 269.5855399999998,380.77973000000003 268.80632999999983,381.32941000000005 267.99999999999983,381.83338000000003 C 267.2086499999998,382.32798 266.40941999999984,382.77256000000006 266.02083999999985,383.00004 C 265.25469999999984,383.44853 264.15538999999984,384.15217 263.48799999999983,384.68138 C 262.84617999999983,385.19032 262.33937999999984,385.77562 261.33333999999985,386.50004 C 260.72429999999986,386.93861000000004 260.7294899999998,387.01707 261.76448999999985,386.99955 C 262.70839999999987,386.98356 263.44423999999987,386.94559 264.20399999999984,386.74403 C 265.4256199999998,386.41993 265.81874999999985,386.17381 266.59999999999985,385.68138 C 267.4209799999999,385.16391999999996 267.81636999999984,384.84882999999996 268.99998999999985,383.83339 C 269.40538999999984,383.48561 270.19126999999986,382.7567 270.57865999999984,382.39604 C 271.3285099999998,381.69795000000005 272.0036499999998,381.02354 272.95698999999985,380.26454 C 273.47233999999986,379.85423000000003 274.1724399999998,379.41994 275.1998199999999,378.90022 C 275.78587999999985,378.60374 276.97258999999985,378.42152 277.5533399999999,377.9387 C 278.2413599999999,377.36668 278.1891399999999,376.13023 278.81883999999985,376.00903999999997 C 279.75352999999984,375.82917 280.5533399999999,375.97922 281.40266999999983,376.17069 C 282.31730999999985,376.37687 283.20433999999983,376.84844999999996 283.76399999999984,377.22137999999995 C 284.86479999999983,377.95489999999995 285.30928999999986,378.41443 286.06248999999985,379.02088 C 286.61647999999985,379.46691999999996 287.66380999999984,380.17141999999996 288.0856499999999,380.4217 C 289.0135099999999,380.97218 289.52436999999986,381.24372 290.04163999999986,381.5417 C 291.10721999999987,382.15553 291.65409999999986,382.45808 292.66663999999986,383.1667 C 293.64893999999987,383.85417 294.08570999999984,384.24363 294.9583299999999,384.95839 C 295.37867999999986,385.30269 296.1721399999999,385.98372 296.99998999999985,386.50005 C 297.77543999999983,386.98368999999997 298.58274999999986,387.30413 299.32798999999983,387.64006 C 300.0333099999998,387.95802000000003 300.97697999999986,388.5208 301.49015999999983,389.00539 C 302.2451599999998,389.71837 302.6259299999998,390.30877 303.6826599999998,391.03072 C 304.1902299999998,391.37748999999997 305.0614699999998,391.6527 305.85715999999985,392.32122 C 306.55039999999985,392.90364999999997 307.63748999999984,393.19075999999995 307.9374799999998,393.9584 C 307.95444999999984,394.0018 306.9999799999998,394.00005999999996 306.1893099999998,394.00005999999996 C 305.3146499999998,394.00005999999996 304.3113799999998,394.02777 303.4583199999998,393.9584 C 302.8361299999998,393.9078 301.82501999999977,393.69046 301.1159699999998,393.42938 C 300.3650199999998,393.15288999999996 299.6180799999998,392.79245 298.8839799999998,392.3974 C 297.8108899999998,391.81992 297.14526999999975,391.42969 296.28262999999976,390.80005 C 295.75869999999975,390.41763 294.99487999999974,389.57861 294.49997999999977,389.02091 C 293.70792999999975,388.1283 292.9971999999998,387.75168 292.2506499999998,387.41074000000003 C 291.3363999999998,386.99323000000004 290.52359999999976,386.67624 290.1666399999998,385.83341 C 289.8431799999998,385.06968 289.64496999999983,384.01221000000004 288.6788199999998,384.00055000000003 C 288.0179599999998,383.99258000000003 287.1956999999998,384.65338 287.0208299999998,385.52091 C 286.8785599999998,386.22669 286.5669399999998,387.15366 286.2839799999998,387.88273000000004 C 285.9312899999998,388.79145000000005 286.4613499999998,390.02000000000004 285.9428199999998,390.63841 C 285.4286299999998,391.25166 285.00064999999984,390.11342 284.9999799999998,389.17473 C 284.99924999999985,388.16673000000003 285.03317999999985,387.44658 284.55731999999983,386.45741000000004 C 284.20306999999985,385.72102000000007 283.76068999999984,385.29558000000003 283.24280999999985,384.14308000000005 C 282.92874999999987,383.44417000000004 282.6007799999999,382.46983000000006 281.66663999999986,382.16673000000003 C 281.00635999999986,381.95250000000004 280.14270999999985,382.00648 279.5119799999999,382.00142000000005 C 278.4781999999999,381.99309000000005 277.3426699999999,382.00008 276.51731999999987,382.00008 C 276.0811599999999,382.00008 274.66663999999986,382.00008 273.62665999999984,382.00008 C 273.0766399999998,382.00008 272.50662999999986,382.00008 271.3066499999998,382.00008 C 270.6766499999998,382.00008 270.02664999999985,381.99974000000003 268.6666399999998,382.00008 C 267.9571399999998,382.00026 267.2304499999998,381.99211 265.7386599999998,382.02141 C 264.9790199999998,382.03633 264.2142199999998,382.06505 263.4481599999998,382.1144 C 262.6821699999998,382.16375 261.1650799999998,382.32331999999997 260.4216399999998,382.44326 C 259.6849799999998,382.5621 258.9595699999998,382.71017 258.2466499999998,382.88274 C 257.5394699999998,383.05391000000003 256.8421399999998,383.24315 256.16162999999983,383.46624 C 254.15245999999982,384.1249 253.51944999999984,384.41674 252.88530999999983,384.68542 C 252.25508999999983,384.95245 251.63400999999985,385.23187 251.02080999999984,385.52093 C 249.80049999999983,386.09622 249.20111999999983,386.40103000000005 247.99997999999985,387.00009 C 247.39986999999985,387.29938 246.80637999999985,387.60971 245.59998999999985,388.16809 C 245.00306999999984,388.44437 244.40767999999986,388.71262 243.79998999999984,388.92859 C 242.02045999999984,389.56101 241.40269999999984,389.64862 240.80398999999983,389.74676999999997 C 239.63578999999982,389.93827 239.06216999999984,389.97634999999997 238.50797999999983,390.0401 C 237.45531999999983,390.16122 236.05254999999983,390.4086 235.28048999999984,390.70541 C 234.59188999999984,390.97015 234.02781999999985,391.29476999999997 232.96931999999984,391.82942999999995 L 232.11732999999984,391.99742999999995 L 231.21731999999983,392.02142" fill="none" id="svg_12" stroke="#000" stroke-width="2"/>
</svg>
