<?xml version="1.0" ?>
<svg baseProfile="full" height="480" version="1.1" width="640" xmlns="http://www.w3.org/2000/svg" xmlns:ev="http://www.w3.org/2001/xml-events" xmlns:xlink="http://www.w3.org/1999/xlink">
	<defs/>
	<path d="M 332.5,270.89999 C 330.74283,270.89999 329.84283,270.89999 329.09549,270.89999 C 328.10132,270.89999 327.15717,270.89999 326.25717,270.89999 C 325.29999,270.89999 324.39925999999997,270.86334 323.5,270.89999 C 322.79825,270.92858 321.97638,271.36038 321.2045,271.84732 C 320.50205,272.29044000000005 319.81079,272.55853 319.02085,272.92084 C 318.29017,273.25598 318.04362,274.28171 317.58402,275.09866999999997 C 317.1887,275.80134 316.60627,276.37399999999997 316.21601,277.10001 C 315.75654,277.95477999999997 315.50534999999996,278.57196 315.50001,279.67066 C 315.49625999999995,280.44169 315.50001,281.00901 315.50001,282.19968 C 315.50001,283.07868 315.50001,283.88568 315.50001,284.93067 C 315.50001,285.78266 315.50001,286.72535000000005 315.50001,287.41602 C 315.50001,288.48935 315.43757,289.33075 315.72135,290.22135000000003 C 315.94406999999995,290.92036 316.25681,291.91907000000003 316.58401999999995,292.69868 C 316.94766999999996,293.56507000000005 317.28613999999993,294.55299 318.02084999999994,294.87919000000005 C 318.80493999999993,295.22730000000007 318.83642999999995,294.32826000000006 318.20449999999994,293.60002000000003 C 317.62594999999993,292.93327000000005 317.50066999999996,292.10002000000003 317.49999999999994,291.26402 C 317.49932999999993,290.41603000000003 317.49999999999994,289.55269000000004 317.49999999999994,288.53602 C 317.49999999999994,287.60002000000003 317.44561999999996,286.69837 317.50014999999996,285.8 C 317.54286999999994,285.09614 317.96581999999995,284.23463000000004 318.47466999999995,283.51069 C 318.97747999999996,282.79536 319.13674999999995,282.09821 319.5360099999999,281.33601 C 319.9332299999999,280.57770999999997 320.49999999999994,280.38266999999996 320.49999999999994,281.38401 C 320.49999999999994,282.07468 320.49999999999994,283.14283 320.49999999999994,284.00001 C 320.49999999999994,284.9 320.49999999999994,285.70002 320.49999999999994,286.60002 C 320.49999999999994,287.50001 320.49999999999994,288.40000999999995 320.49999999999994,289.29999999999995 C 320.49999999999994,290.20001999999994 320.26192999999995,291.33997999999997 320.94283999999993,291.77851999999996 C 321.5739699999999,292.18501 322.7972699999999,291.75068999999996 323.60000999999994,292.12134999999995 C 324.26806999999997,292.42981999999995 325.0999499999999,292.90006999999997 325.99999999999994,292.90000999999995 C 326.88939999999997,292.89994999999993 327.50890999999996,292.35718999999995 327.14733999999993,291.59550999999993 C 326.7240299999999,290.7037899999999 326.6058699999999,290.04783999999995 326.3333399999999,288.90000999999995 C 326.1892399999999,288.29301999999996 325.7164299999999,287.58979999999997 325.5360099999999,286.5360299999999 C 325.37792999999994,285.61277999999993 325.4923099999999,284.6986599999999 325.49999999999994,283.73335999999995 C 325.50533999999993,283.06395999999995 325.47905999999995,282.26350999999994 325.85265999999996,281.31352999999996 C 326.23043999999993,280.35286999999994 326.50756999999993,281.10139999999996 326.49999999999994,282.06669999999997 C 326.49465999999995,282.74674999999996 326.44555999999994,283.59333999999996 326.21599999999995,284.58403 C 326.02545,285.40632999999997 325.72817999999995,286.20653 325.58531999999997,287.21468 C 325.46218,288.08385 325.49998999999997,288.90001 325.49998999999997,289.87919999999997 C 325.49998999999997,290.73335999999995 325.10445,291.70946 325.53599999999994,292.46401 C 325.93101999999993,293.15468 327.15144999999995,292.88816999999995 327.9839999999999,293.18401 C 328.6900499999999,293.43493 329.9064899999999,294.22829 330.4428299999999,293.53835 C 330.9381299999999,292.90119999999996 330.4999899999999,291.90000999999995 330.4999899999999,290.92152999999996 C 330.4999899999999,290.10137 330.4999899999999,289.14284 330.4999899999999,288.24737 C 330.4999899999999,287.38403 330.4999899999999,286.53604 330.4999899999999,285.60003 C 330.4999899999999,284.70004 330.38911999999993,283.79315 330.4999899999999,282.90002 C 330.6115899999999,282.00093999999996 331.5999999999999,281.90002 332.4999899999999,281.90002 C 333.2999799999999,281.90002 334.2000599999999,281.91067 335.0999999999999,281.90002 C 335.9793299999999,281.88961 336.4946499999999,281.28942 336.4999899999999,280.40002 C 336.5053899999999,279.50005999999996 336.4999899999999,278.60003 336.4999899999999,277.70004 L 336.4998399999999,276.80002" fill="none" id="svg_13" stroke="#000" stroke-width="2"/>
</svg>
