<?xml version="1.0" ?>
<svg baseProfile="full" height="480" version="1.1" width="640" xmlns="http://www.w3.org/2000/svg" xmlns:ev="http://www.w3.org/2001/xml-events" xmlns:xlink="http://www.w3.org/1999/xlink">
	<defs/>
	<path d="M 307.0,317.0 C 306.98932,318.82535 306.86517,319.85114 306.45834,320.54166 C 305.87756,321.52743999999996 305.50460000000004,322.06417999999996 305.12133,322.79334 C 304.89303,323.2277 304.36629,324.2706 304.05733,324.88666 C 303.33211,326.33274 302.91411,327.17099 302.46265999999997,328.07599 C 301.98445,329.03463999999997 301.48701,330.03418 300.97914,331.0625 C 300.46434,332.10486 299.95057999999995,333.14877 299.45063999999996,334.18399 C 298.49442999999997,336.16397 298.06348999999994,337.09113 297.65734,337.96667 C 297.27488999999997,338.79113 296.92004,339.56732 296.58333,340.29165 C 296.26927,340.96728 295.97826,341.59545 295.68932,342.16665 C 295.17998,343.17352 294.92693,343.59597 294.68666,343.97466000000003 C 294.46645,344.32174000000003 294.24815,344.63173 294.04164000000003,344.91665 C 293.84807,345.18368 293.42872000000006,345.64626 292.88533,346.68533 C 292.60521,347.22101000000004 292.30382000000003,348.10424 291.99998,349.0 C 291.6948,349.89975 291.50883,350.5126 291.11463,351.39999 C 290.70862,352.31399 290.35434999999995,352.90719 289.78931,353.79998 C 289.40641,354.40496 288.79813,355.29852 288.40448,355.8955 C 287.83306999999996,356.76208 287.45633,357.29787000000005 286.88662999999997,358.31332000000003 C 286.42267,359.14032000000003 286.22324,360.01681 285.89014,360.75265 C 285.53348,361.54052 284.77698,362.18118000000004 284.16663,362.99999 C 283.73398,363.58037 283.29657,364.38415000000003 283.08399,365.39867000000004 C 282.92544999999996,366.15532 282.63296999999994,367.06877000000003 282.28396999999995,367.79866000000004 C 281.91873999999996,368.56248000000005 281.99996999999996,369.49998000000005 281.9892899999999,370.38933000000003 L 281.4252899999999,371.02532 L 281.0044499999999,371.70449" fill="none" id="svg_14" stroke="#fff" stroke-width="20"/>
</svg>
