<?xml version="1.0" ?>
<svg baseProfile="full" height="480" version="1.1" width="640" xmlns="http://www.w3.org/2000/svg" xmlns:ev="http://www.w3.org/2001/xml-events" xmlns:xlink="http://www.w3.org/1999/xlink">
	<defs/>
	<path d="M 311.0,270.0 C 311.0,271.79999 311.00601,272.70004 311.0,273.60001 C 310.99466,274.40006 310.49948,275.21878 310.16666,276.0 C 309.84646999999995,276.75153 310.0,277.70001 310.0,278.60001 C 310.0,279.5 310.0,280.4 310.0,281.29999 C 310.0,282.20000999999996 310.0,283.10001 310.0,284.0 C 310.0,284.79999 310.0,285.70001 310.0,286.60001 C 310.0,287.5 310.0,288.4 310.0,289.29999 C 310.0,290.20000999999996 310.0,291.10001 310.0,292.0 C 310.0,292.79999 310.0,293.70001 310.0,294.60001 C 310.0,295.5 310.0,296.4 310.0,297.29999 C 310.0,298.20000999999996 310.0,299.10001 310.0,300.0 C 310.0,300.79999 310.0,301.70001 310.0,302.60001 C 310.0,303.5 310.06696,304.34357 310.57468,305.02533 C 311.05188,305.66614 310.9946,306.60004 311.0,307.5 C 311.00534,308.3894 311.71698,308.87708 311.98932,309.61066 C 312.29904000000005,310.44491999999997 312.46594000000005,311.23609 312.87866,312.10001 C 313.28598000000005,312.95267 313.42407000000003,313.69043 314.0,314.47916 C 314.46753,315.11945 314.58734,315.82824999999997 315.05716,316.64283 C 315.45334,317.32969 316.47662,318.24171 316.94284,317.64283 C 317.46179,316.97623 317.0,315.9 317.0,315.00001000000003 C 317.0,314.20002000000005 317.0,313.3 317.0,312.40000000000003 C 317.0,311.50001000000003 316.90454,310.55546000000004 317.284,309.79999000000004 C 317.71958,308.93280000000004 317.98133,308.19983 318.0,307.29999000000004 C 318.01868,306.39948000000004 318.6181,305.68967000000004 318.91467,304.79999000000004 C 319.20053,303.94235000000003 318.83185,302.96356000000003 319.08532,302.20001 C 319.34167,301.42782 319.97134,300.70135000000005 319.99999,299.79999000000004 C 320.02858000000003,298.90064 320.14004,297.40589000000006 320.96398000000005,297.58533000000006 C 321.20721000000003,297.63831000000005 321.74694000000005,298.53720000000004 321.96398000000005,299.40000000000003 C 322.1837100000001,300.2735 321.99999,301.20002000000005 321.99999,302.10001000000005 C 321.99999,303.00000000000006 321.80404000000004,303.8344200000001 322.05715000000004,304.70002000000005 C 322.3138,305.57764000000003 322.9714,306.29862 322.99999,307.20002000000005 C 323.02852,308.0997100000001 322.99999,308.8853500000001 322.99999,309.82536000000005 C 322.99999,310.83336 322.99547,311.61009000000007 323.42531,312.40001000000007 C 323.87355,313.22377000000006 323.82997,314.14891000000006 324.16664000000003,315.00002000000006 C 324.44459,315.70266000000004 324.84477000000004,316.49834000000004 325.05266,317.3473400000001 C 325.27727,318.2646700000001 325.76244,319.0263300000001 326.05266,319.7000300000001 C 326.41527,320.5418000000001 326.85649,321.3393700000001 327.28398,322.2013400000001 C 327.64342,322.92613000000006 327.89937,323.6653600000001 328.084,324.6013300000001 C 328.24309,325.40785000000005 328.60756,326.1528400000001 328.91597,327.1146700000001 C 329.19695,327.9908600000001 329.75044,328.6579700000001 330.29549000000003,329.3000000000001 C 330.93621,330.0547300000001 331.2076,330.9741300000001 331.57466000000005,331.60002000000014 C 332.02714000000003,332.3715300000001 332.46193000000005,333.23637000000014 332.83333000000005,334.00001000000015 C 333.20000000000005,334.75392000000016 333.51555,335.50517000000013 334.20000000000005,336.20002000000017 C 334.79543000000007,336.80451000000016 335.67519000000004,337.7291900000002 335.99550000000005,337.2909900000002 C 336.52129,336.5716600000002 335.99999,335.50000000000017 335.99999,334.60001000000017 C 335.99999,333.70002000000017 335.99999,332.79999000000015 335.99999,331.90000000000015 C 335.99999,331.00001000000015 335.98198,330.19984000000017 335.99999,329.29999000000015 C 336.01800000000003,328.3994500000002 336.61809000000005,327.68967000000015 336.91466,326.79999000000015 C 337.20052000000004,325.94235000000015 336.85393000000005,324.97229000000016 337.05715000000004,324.29999000000015 C 337.32171000000005,323.42472000000015 337.77688000000006,322.67349000000013 338.00133000000005,321.8013300000002 C 338.20745000000005,321.00043000000016 338.69374000000005,320.4198900000002 339.01067000000006,319.61066000000017 C 339.28432000000004,318.9118700000002 339.99410000000006,319.62726000000015 340.4253100000001,320.40000000000015 C 340.8823100000001,321.21894000000015 340.95220000000006,322.1012900000001 340.9999900000001,323.00001000000015 C 341.04271000000006,323.80339000000015 341.7469400000001,324.53721000000013 341.9639800000001,325.40000000000015 C 342.18371000000013,326.2735000000001 341.8363200000001,327.25730000000016 342.2213300000001,328.10001000000017 C 342.5271200000001,328.76932000000016 342.8294800000001,329.62003000000016 343.0208300000001,330.50000000000017 C 343.2048500000001,331.3463100000002 343.73689000000013,332.0369000000002 344.0840000000001,332.79999000000015 C 344.4725800000001,333.65427000000017 344.84935000000013,334.41254000000015 345.00447000000014,335.29999000000015 C 345.16673000000014,336.22833000000014 345.48204000000015,336.93704000000014 346.0526600000001,337.64282000000014 C 346.6437500000001,338.37390000000016 347.2145600000001,338.97009000000014 347.5746600000001,339.60000000000014 C 348.0687100000001,340.4642000000001 348.4212800000001,341.25884000000013 348.8786500000001,342.09982000000014 C 349.2851700000001,342.84732000000014 349.79045000000013,343.3442000000001 350.2214800000001,344.10000000000014 C 350.6030400000001,344.76910000000015 351.3828000000001,345.41760000000016 352.0999900000001,346.09982000000014 C 352.6863200000001,346.65756000000016 353.3917700000001,347.0894700000001 354.0526600000001,347.64734000000016 C 354.6392100000001,348.14246000000014 355.5235800000001,348.46042000000017 356.29549000000014,348.94733000000014 C 356.99791000000016,349.39041000000014 357.60247000000015,349.6315300000001 358.47914000000014,350.0208500000001 C 359.19005000000016,350.3365500000001 359.85420000000016,350.95350000000013 359.99864000000014,350.1986800000001 C 360.16752000000014,349.3160200000001 359.99998000000016,348.4000000000001 359.99998000000016,347.5000100000001 C 359.99998000000016,346.6000200000001 359.99998000000016,345.7000200000001 359.99998000000016,344.80000000000007 C 359.99998000000016,343.90001000000007 359.99998000000016,343.0000100000001 359.99998000000016,342.20002000000005 C 359.99998000000016,341.30000000000007 360.24452000000014,340.20094000000006 360.7159800000002,340.80268000000007 C 361.3070400000002,341.55714000000006 361.4344600000002,342.39445000000006 361.91596000000015,343.1986800000001 C 362.36118000000016,343.9423000000001 362.83948000000015,344.5095600000001 363.35715000000016,345.30000000000007 C 363.87784000000016,346.0950700000001 364.49997000000013,346.5000100000001 365.19998000000015,347.20002000000005 C 365.79996000000017,347.80000000000007 366.39996000000014,348.40000000000003 367.09997000000016,349.10001000000005 C 367.69998000000015,349.70002000000005 368.28921000000014,350.31089000000003 368.99996000000016,351.00000000000006 C 369.5911800000002,351.5732100000001 370.38930000000016,351.97467000000006 370.99996000000016,352.50000000000006 C 371.61062000000015,353.02533000000005 372.3503000000002,353.51740000000007 373.1999700000002,353.9159900000001 C 374.0603800000002,354.3196200000001 374.8241500000002,354.4405300000001 375.5639500000002,355.02533000000005 C 376.2421700000002,355.56146000000007 376.8012900000002,355.99933000000004 377.6999700000002,356.00000000000006 C 378.5999600000002,356.00067000000007 379.5346900000002,355.94711000000007 380.2999500000002,356.35266000000007 C 381.1458700000002,356.8009600000001 381.9999600000002,357.00000000000006 382.7999500000002,356.91467000000006 L 383.4791200000002,356.47915000000006" fill="none" id="svg_13" stroke="#000" stroke-width="2"/>
</svg>
