<?xml version="1.0" ?>
<svg baseProfile="full" height="480" version="1.1" width="640" xmlns="http://www.w3.org/2000/svg" xmlns:ev="http://www.w3.org/2001/xml-events" xmlns:xlink="http://www.w3.org/1999/xlink">
	<defs/>
	<path d="M 263.0,305.0 C 258.60733,312.04285 258.40897,312.76636 258.28134,313.50983 C 258.1528,314.25867 258.07632,315.02027000000004 258.01733,315.78534 C 257.95828,316.5513 257.9331,317.31805 257.83334,318.83334 C 257.78430000000003,319.57855 257.71884,320.31244000000004 257.64282000000003,321.03384 C 257.56808,321.74313 257.39206,323.11773 257.2955,323.78115 C 257.20129000000003,324.4284 257.00226,325.66704000000004 256.80133,326.82799 C 256.70557,327.38133 256.51776,328.43697 256.43600000000004,328.94264 C 256.27941000000004,329.91102 256.11126,331.2776 256.05715000000004,332.13831999999996 C 256.03109000000006,332.55305 256.00225000000006,333.73832999999996 255.99999000000003,334.83333 C 255.99860000000004,335.51198 255.99999000000003,336.43748999999997 255.99999000000003,337.22798 C 255.99999000000003,338.18565 256.23617,339.43733 255.55666000000002,339.87849 C 255.01328,340.23127 253.66660000000002,339.99302 253.02666000000002,340.00264 C 252.30649000000003,340.01347 251.50353,340.04729 250.62665,340.17064 C 249.66246,340.30629 248.62461000000002,340.56453 248.07665,340.71882999999997 C 246.91211,341.04673999999994 246.30573,341.25453999999996 245.67666,341.46614 C 245.02569,341.6851 243.66627,342.16554 242.95699,342.42149 C 242.22893,342.68422 241.4854,342.95643 240.72798999999998,343.23597 C 239.95806,343.52012 239.17853999999997,343.81031 238.39099999999996,344.10447 C 237.59720999999996,344.40098 235.99959999999996,344.99894 235.20015999999995,345.3003 C 234.40093999999996,345.6016 233.60286999999997,345.90485 232.81065999999996,346.22132 C 232.01915999999994,346.53751 231.23278999999997,346.86481 230.45715999999996,347.2143 C 229.68206999999995,347.56351 228.16197999999997,348.32489999999996 227.42147999999995,348.7428 C 226.68053999999995,349.16095 225.95449999999994,349.60559 225.23597999999996,350.06131 C 224.51812999999996,350.5166 223.81043999999994,350.98496 223.10449999999994,351.45180999999997 C 222.40111999999993,351.91695999999996 221.00122999999994,352.83525999999995 220.30064999999993,353.27862 C 219.60653999999994,353.71789 218.91610999999995,354.14434 218.24264999999994,354.57464 C 217.58146999999994,354.99706 216.93827999999993,355.4172 216.32864999999995,355.85262 C 215.73567999999995,356.27614 214.65594999999996,357.15554 214.18615999999994,357.62096 C 213.73203999999996,358.07085 213.32310999999996,358.53554 212.95464999999996,359.00396 C 212.25937999999996,359.88781 211.99581999999995,360.34756 211.16665999999995,361.49996 C 210.69816999999995,362.15108 210.26144999999994,362.69497 209.66165999999996,363.32930999999996 C 208.90492999999995,364.12962999999996 207.98704999999995,364.59148999999996 208.34265999999997,364.02664 C 208.94542999999996,363.06921 209.76265999999995,362.71387 210.12498999999997,362.43746999999996 C 210.92648999999997,361.82608 211.37057999999996,361.50424 212.84281999999996,360.47864 C 213.36739999999995,360.11319 213.90903999999995,359.74616 214.46131999999997,359.37464 C 215.02001999999996,358.99879 216.15063999999998,358.2508 216.71731999999997,357.88398 C 217.83099999999996,357.16303 218.37568999999996,356.81739 219.43832999999998,356.16163 C 219.95206,355.84461 220.45556,355.53694 221.43832999999998,354.96165 C 221.91198999999997,354.68440000000004 223.27659999999997,353.91810000000004 223.71464999999998,353.68666 C 224.5604,353.23979 225.38252999999997,352.83098 226.19866,352.48665 C 226.99365999999998,352.15123 227.79300999999998,351.87209 228.57865999999999,351.64665 C 229.32413999999997,351.43275 230.6635,351.13957000000005 231.48566,351.05714 C 232.17675,350.98783000000003 233.19982,350.99998 234.16398999999998,350.99998 C 235.11598999999998,350.99998 235.88398999999998,350.99998 236.84664999999998,350.99998 C 237.46166,350.99998 238.68995999999999,350.977 239.25733,351.03199 C 240.22436,351.12571 241.34468999999999,351.47456 242.16932,351.85865 C 242.6164,352.06690000000003 243.52593,352.59635000000003 243.98533,352.90397 C 244.45721,353.21992 245.83962,354.32658000000004 246.2785,354.74281 C 246.72113000000002,355.16261000000003 247.56662,356.05897000000004 247.97917,356.52083000000005 C 248.39197000000001,356.98296000000005 249.19259000000002,357.92265000000003 250.0,358.83333000000005 C 250.39703,359.28114000000005 251.19849,360.14424 251.60001,360.5639800000001 C 251.99851,360.9805800000001 252.79932,361.7961600000001 253.2,362.1986500000001 C 254.39763,363.4016800000001 254.79735,363.7973100000001 255.57868,364.5786500000001 C 255.95833,364.95832000000007 256.68567,365.6856400000001 257.02933,366.0293000000001 C 257.95685000000003,366.9568200000001 258.71735,367.7173200000001 259.14267,368.1426400000001 C 259.97849,368.9784600000001 260.47916000000004,369.4791300000001 261.20001,370.19864000000007 L 261.79999000000004,370.71463000000006" fill="none" id="svg_13" stroke="#000" stroke-width="2"/>
</svg>
