<?xml version="1.0" ?>
<svg baseProfile="full" height="480" version="1.1" width="640" xmlns="http://www.w3.org/2000/svg" xmlns:ev="http://www.w3.org/2001/xml-events" xmlns:xlink="http://www.w3.org/1999/xlink">
	<defs/>
	<path d="M 236.5,296.66666 C 236.5,297.66666 236.5,298.58268 236.5,299.37116 C 236.5,300.26667 236.5,301.16666 236.5,302.056 C 236.5,303.02383 236.71584,304.0145 236.14734,304.60949999999997 C 235.6414,305.13901 235.57958000000002,305.8689 235.5,306.75066999999996 C 235.41632,307.67792 234.68021,308.25399999999996 234.5,309.10934 C 234.35432,309.80084 234.64706,310.90056999999996 234.49983,311.76651 C 234.35512,312.61758 233.40016,312.66666 232.47467,312.66666 C 231.69867,312.66666 230.78534,312.66666 229.88933,312.66666 C 228.93601,312.66666 227.95404,312.47889 227.2045,313.02384 C 226.5266,313.5167 226.34569,314.58292 225.5,314.66666 C 224.58978,314.75678 223.90767,315.65524999999997 224.33333,315.5 C 225.13987999999998,315.20584 225.54084999999998,314.92435 226.33333,314.66666 C 227.14175999999998,314.40378 227.9426,313.95840999999996 228.50017,313.44534999999996 C 229.09253,312.90027999999995 229.87702,313.03085999999996 230.5,312.50001 C 231.10934,311.98078 231.84828,311.88298 232.44283,311.31401 C 232.97149,310.80809 233.68248,310.95573 233.27867999999998,311.76652 C 232.92686999999998,312.47288000000003 231.78831999999997,312.56303 231.51066999999998,313.27735 C 231.16488999999999,314.16697 230.72408,314.4882 230.07466999999997,315.10267 C 229.41646999999998,315.72547 229.13098999999997,316.26481 228.58533999999997,316.952 C 228.07607999999996,317.59336 228.86011999999997,318.81174 229.59984999999998,318.44516 C 230.35707999999997,318.06991999999997 230.57370999999998,317.1196 231.07466999999997,316.63068 C 231.66283999999996,316.05667 232.09520999999998,315.24753 232.50000999999997,314.5 C 232.88182999999998,313.79492 233.81691999999998,313.63699 234.33333999999996,312.83334 C 234.74881999999997,312.18679000000003 235.35619999999997,311.71917 235.50000999999997,312.61401 C 235.63551999999999,313.45715 235.50000999999997,314.30951 235.50000999999997,315.27734 C 235.50000999999997,316.14583999999996 235.50000999999997,317.02383 235.50000999999997,317.96215 C 235.50000999999997,318.49999 235.50000999999997,317.56683 235.50000999999997,316.71932 C 235.50000999999997,315.86532 235.48841,315.02376 235.50000999999997,314.05599 C 235.51042999999999,313.18731 236.25941999999998,312.72545 236.49550999999997,311.96215 C 236.76038999999997,311.1058 236.93239999999997,310.27093 237.41600999999997,309.46798 C 237.85915999999997,308.73220000000003 238.48199999999997,309.10214 238.50000999999997,310.05599 C 238.51691999999997,310.95183000000003 238.27748999999997,311.88256 238.78400999999997,312.58266000000003 C 239.28579999999997,313.2762 239.50000999999997,313.96215 239.50000999999997,314.88814 C 239.50000999999997,315.7665 239.50000999999997,316.66216000000003 239.50000999999997,315.86531 C 239.50000999999997,314.95198000000005 239.50000999999997,314.05598000000003 239.50000999999997,313.18748000000005 C 239.50000999999997,312.2306300000001 239.62247999999997,311.27177000000006 239.07466999999997,310.70265000000006 C 238.59180999999998,310.2010000000001 238.50000999999997,309.3711400000001 238.50000999999997,308.49998000000005 L 238.50000999999997,307.56681000000003 L 238.50000999999997,306.70264000000003" fill="none" id="svg_13" stroke="#000" stroke-width="2"/>
</svg>
