<?xml version="1.0" ?>
<svg baseProfile="full" height="480" version="1.1" width="640" xmlns="http://www.w3.org/2000/svg" xmlns:ev="http://www.w3.org/2001/xml-events" xmlns:xlink="http://www.w3.org/1999/xlink">
	<defs/>
	<path d="M 331.0,326.0 C 332.75699,330.62183 332.89468,331.56546 332.92801,332.05734 C 332.99740999999995,333.08157 332.99548,333.6188 333.0,335.33334 C 333.00159,335.94333 333.0,336.57333 333.0,337.89334 C 333.0,338.58334 333.0,339.29333 333.0,340.02334 C 333.0,340.77334 333.0,342.33334 333.0,343.14266000000003 C 333.0,343.96798 333.0,344.80532000000005 333.0,345.65066 C 333.0,346.49999 333.0,347.34933 333.0,348.19467000000003 C 333.0,349.03201 332.99948,350.66665 333.00015,351.45685000000003 C 333.00082000000003,352.228 333.00238,352.98120000000006 333.01068000000004,353.71735 C 333.01880000000006,354.43753000000004 333.03223,355.1428 333.05716,355.83384 C 333.08164,356.51215 333.21771,358.47855 333.284,359.11201 C 333.34909,359.73423 333.49997,360.93751 333.57468,361.51734 C 333.64731,362.08118 333.84192,363.66596 333.91599,364.63199 C 333.95145,365.09436 333.99027,366.00061 334.05268,366.90533999999997 C 334.15128,368.33450999999997 334.21473000000003,368.84301999999997 334.35267,369.89185 C 334.42201,370.41913 334.57496,371.44131999999996 334.64735,371.92316 C 334.83409,373.16654 334.7964,374.2432 335.00035,375.09983 C 335.18693,375.88349 336.16667,376.00001 335.37501000000003,376.00001 C 334.82035,376.00001 333.47828000000004,375.98895999999996 332.74284000000006,376.00901 C 331.9787400000001,376.02985 331.18257000000006,376.05268 330.00001000000003,376.33335 C 329.18760000000003,376.52616 328.39155000000005,376.85681999999997 327.56401000000005,377.14933 C 327.14394000000004,377.2978 325.83720000000005,377.68992000000003 324.91600000000005,377.83067 C 324.44899000000004,377.90202 323.49956000000003,377.97322 322.55269000000004,378.04816999999997 C 321.16594000000003,378.15794 320.71990000000005,378.21007 319.86168000000004,378.35267 C 319.03981000000005,378.48924 318.26631000000003,378.67716 317.16667,378.83335 C 316.17412,378.97434 315.20842,378.73484 314.36433,379.22135 C 313.60188,379.6608 313.92933,380.00001 314.77467,380.00001 C 315.64283,380.00001 316.66136,380.00001 317.38536,380.00001 C 318.11735,380.00001 319.17894,380.01396 320.17467,379.98933 C 320.82567,379.97321999999997 322.16826,379.84275 322.88401999999996,379.71601 C 323.62715,379.58441999999997 324.37224,379.41181 325.11600999999996,379.284 C 326.17520999999994,379.10202 327.15675,379.0575 328.03833999999995,378.94732999999997 C 329.08395999999993,378.81665 329.74911999999995,378.52777 330.59866999999997,378.284 C 331.58133999999995,378.00202 332.34283999999997,378.00144 333.36402,378.0 C 334.19867999999997,377.99884 334.97141,378.36493 335.00001,379.33334 C 335.01997,380.00952 335.00001,380.78534 335.00001,381.83334 C 335.00001,382.78534 335.00001,383.50982000000005 335.00001,384.64282000000003 C 335.00001,385.30984 335.00001,386.02084 335.00001,387.11734 C 335.00001,388.17868 335.00001,388.84732 335.00001,389.82535 C 335.00001,390.48401 335.00001,391.52133000000003 335.00001,392.62534 C 335.00001,393.37467 335.00001,394.116 335.00001,395.17817 C 335.00001,396.14268000000004 335.00001,396.98118 335.00001,397.857 C 335.00001,398.79734 335.00001,399.62534000000005 335.00001,398.94135 C 335.00001,397.94401 335.00001,397.292 335.00001,396.568 C 335.00001,395.00001 335.00001,394.20133 335.00001,393.41067999999996 C 335.00001,392.63598999999994 335.00001,391.88534999999996 335.00001,390.82165999999995 C 335.00001,389.84667999999994 335.00001,389.24667999999997 335.00001,388.16666 C 335.00001,387.22535 335.00001,386.54733999999996 335.00001,385.57883 C 335.00001,384.78533999999996 335.00001,383.76935 335.00001,382.80985 C 335.00001,381.83335 334.7657,380.79742999999996 335.443,380.24302 C 336.06925,379.73039 337.20016999999996,380.00001 338.02085,380.00001 C 338.68534,380.00001 339.68668,380.00001 340.54166,380.00001 C 341.48667,380.00001 342.52151999999995,380.00001 343.25718,380.00001 C 344.02085,380.00001 344.80451,380.00001 346.00001000000003,380.00001 C 346.8,380.00001 347.60002000000003,380.00001 348.40000000000003,380.00001 C 349.20002000000005,380.00001 350.40040000000005,379.98859999999996 351.20450000000005,380.00901 C 352.02124000000003,380.02973 352.86572000000007,380.06831 354.16666000000004,380.33335 C 354.62506,380.42673 355.55902000000003,380.70417 356.52085000000005,381.02085 C 357.01166000000006,381.18244 357.99644000000006,381.5333 359.00001000000003,381.83335 C 359.99406000000005,382.13056 360.49378,382.25019 361.47917,382.47916 C 362.44121,382.7027 362.91566,382.79434999999995 364.27833,383.09983 C 365.13896,383.29276 365.95563999999996,383.49264999999997 366.73834999999997,383.64283 C 367.82989999999995,383.85224 368.51649,383.88303 369.43751,384.02085 C 370.23298,384.13987 371.13883,384.75858 371.74818,385.29467999999997 C 372.43083,385.89529999999996 373.99784,385.83502 373.83467,386.57467999999994 C 373.61149,387.58639999999997 372.23494,386.97259999999994 371.48534,386.98931999999996 C 370.62416,387.00854999999996 369.15718,386.99999999999994 368.6307,386.99999999999994 C 368.0902,386.99999999999994 366.97918,386.99999999999994 366.4147,386.99999999999994 C 365.28267999999997,386.99999999999994 364.16668,386.99999999999994 363.0827,386.99999999999994 C 362.54818,386.99999999999994 361.47918,386.99999999999994 360.93869,386.99999999999994 C 359.83069,386.99999999999994 358.66669,386.99999999999994 358.05753,386.99999999999994 C 357.43334999999996,386.99999999999994 356.16004,386.99999999999994 355.52088,386.99999999999994 C 354.88669,386.99999999999994 353.65335999999996,387.0007299999999 352.50003999999996,386.99999999999994 C 351.45602999999994,386.99932999999993 350.97126,387.00676999999996 350.06253999999996,386.9791599999999 C 349.21313999999995,386.9533399999999 348.00003999999996,386.83334999999994 347.20404999999994,386.71334999999993 L 346.43204999999995,386.5533499999999 L 345.70804999999996,386.3533399999999 L 345.05603999999994,386.1133499999999" fill="none" id="svg_13" stroke="#000" stroke-width="2"/>
</svg>
