<?xml version="1.0" ?>
<svg baseProfile="full" height="480" version="1.1" width="640" xmlns="http://www.w3.org/2000/svg" xmlns:ev="http://www.w3.org/2001/xml-events" xmlns:xlink="http://www.w3.org/1999/xlink">
	<defs/>
	<path d="M 397.0,270.0 C 396.0,271.0 395.21393,270.98212 394.35184,271.35718 C 393.6825,271.64838000000003 393.31759999999997,272.56116000000003 392.98931999999996,273.38935000000004 C 392.69611,274.12907 391.76392,274.46595 390.9,274.87867000000006 C 390.04733999999996,275.2859900000001 389.31683999999996,275.43415000000005 388.52085,276.00001000000003 C 387.92051,276.4268 387.62476,277.53471 386.83335,277.83335000000005 C 386.02262,278.1392900000001 384.99665,277.93775000000005 384.22135,278.01069000000007 C 383.32370999999995,278.09513000000004 382.69199,278.7670100000001 382.05267999999995,279.35267000000005 C 381.46942999999993,279.88700000000006 380.74881999999997,280.4329 380.00001,280.83335000000005 C 379.20856999999995,281.25663000000003 378.67688999999996,281.82969 377.89984999999996,282.22135000000003 C 377.20062999999993,282.5738 376.34845999999993,282.96470000000005 375.48401999999993,282.99866000000003 C 374.6259299999999,283.03238000000005 373.68540999999993,283.23929000000004 372.97916999999995,283.50000000000006 C 372.00882999999993,283.8582200000001 371.19098999999994,283.92169000000007 370.40000999999995,284.08401000000003 C 369.39304999999996,284.29064000000005 368.72022999999996,284.71017000000006 368.06136,285.38934000000006 C 367.48429999999996,285.9841600000001 366.59707,285.93097000000006 365.69102999999996,286.00448000000006 C 364.65730999999994,286.08837000000005 363.99415999999997,286.36697000000004 363.21467999999993,286.5746700000001 C 362.1716199999999,286.8525900000001 361.4505199999999,286.90298000000007 360.60450999999995,287.0526700000001 C 359.58790999999997,287.2325400000001 358.98627999999997,287.5382400000001 357.83335999999997,288.0000000000001 C 357.31777,288.2065100000001 356.48798999999997,288.5150500000001 355.59867999999994,288.7146600000001 C 354.70707999999996,288.9147900000001 353.77897999999993,288.9742700000001 353.12800999999996,288.9893200000001 C 351.66704,289.02310000000006 351.25685999999996,289.00000000000006 350.38118,289.00000000000006 C 349.43751999999995,289.00000000000006 348.94266999999996,289.00000000000006 347.912,289.00000000000006 C 346.83335999999997,289.00000000000006 345.71601999999996,289.00000000000006 345.14734999999996,289.00000000000006 C 344.00001,289.00000000000006 343.42533,289.00000000000006 342.85266999999993,289.00000000000006 C 341.16666999999995,289.00000000000006 340.6214999999999,289.00000000000006 339.5571699999999,289.00000000000006 L 339.03601999999995,289.00000000000006 L 338.01068999999995,289.00000000000006 L 337.00134999999995,289.00000000000006" fill="none" id="svg_13" stroke="#000" stroke-width="2"/>
</svg>
