<?xml version="1.0" ?>
<svg baseProfile="full" height="480" version="1.1" width="640" xmlns="http://www.w3.org/2000/svg" xmlns:ev="http://www.w3.org/2001/xml-events" xmlns:xlink="http://www.w3.org/1999/xlink">
	<defs/>
	<path d="M 233.0,178.0 C 234.82533,178.0 235.83333,178.0 236.6955,178.0 C 237.52083000000002,178.0 238.484,178.0 239.34734,178.0 C 240.24283,178.0 241.2,178.0 242.10018,178.0 C 242.88533999999999,178.0 243.82533999999998,178.0 244.51601,178.0 C 245.58934,178.0 246.5,178.00226 247.4,178.0 C 248.29552,177.99774 248.80686,177.32947 249.52083000000002,177.02083 C 250.32805000000002,176.67188 251.3,177.0 252.20000000000002,177.0 C 253.10001000000003,177.0 254.00000000000003,177.0 254.80001000000001,177.0 C 255.70000000000002,177.0 256.60001,177.0 257.50001000000003,176.97917 L 258.3,176.64734" fill="none" id="svg_13" stroke="#000" stroke-width="2"/>
</svg>
