<?xml version="1.0" ?>
<svg baseProfile="full" height="480" version="1.1" width="640" xmlns="http://www.w3.org/2000/svg" xmlns:ev="http://www.w3.org/2001/xml-events" xmlns:xlink="http://www.w3.org/1999/xlink">
	<defs/>
	<path d="M 285.0,276.0 C 281.48532,281.72183 281.31717,282.28436 281.10132,283.45734 C 280.99027,284.06079 280.90485,284.68378 280.78934,285.31885 C 280.67035,285.97318 280.12433,288.04642 279.86133,288.76935 C 279.59058,289.51363999999995 279.28067,290.26273 278.95835,291.02085 C 278.6327,291.78678 278.2913,292.54966 277.96533999999997,293.31732999999997 C 277.3234,294.82917 277.03684,295.57642 276.77067,296.31602 C 276.50825,297.04517999999996 276.26744,297.77322999999996 276.04167,298.50001 C 275.81679,299.22395 275.60545,299.95167 275.40269,300.68399999999997 C 274.99275,302.16468 274.79899,302.92069 274.60133,303.68134 C 274.40333000000004,304.44336 274.20951,305.20371 274.02086,305.95835 C 273.83486000000005,306.7024 273.65517000000006,307.43253 273.48534,308.14533 C 273.16283,309.49909 272.88402,310.74534 272.75267,311.33301 C 272.62535,311.90268 272.37956,313.00516 272.24736,313.54367 C 271.84804,315.17032 271.68126,315.72153000000003 271.51735,316.28000000000003 C 271.19017,317.39478 271.01640000000003,317.93619 270.70985,318.97583000000003 C 270.56727,319.45938 270.22486000000004,320.71069000000006 270.06135,321.65601000000004 C 269.89948,322.59177000000005 269.7082,323.39576000000005 269.42533000000003,324.16401 C 269.07563000000005,325.11384000000004 269.00068000000005,325.96934000000005 269.00001000000003,327.00535 C 268.99952,327.74934 269.18644,328.69346 268.96400000000006,329.57868 C 268.74717000000004,330.44153 267.94548000000003,330.28925000000004 267.14268000000004,330.08533 C 266.43623,329.90589 265.51069000000007,330.00067 264.47850000000005,330.0 C 263.74284000000006,329.99951 262.97917000000007,330.0 262.19551000000007,330.0 C 261.0000100000001,330.0 260.1986800000001,330.0 259.38936000000007,330.0 C 258.56401000000005,330.0 257.71468000000004,330.0 256.3786800000001,330.0 C 255.44734000000008,330.0 254.9746900000001,330.0 254.0253500000001,330.0 C 253.0840200000001,330.0 252.1666900000001,330.0 251.28669000000008,330.0 C 250.44669000000007,330.0 249.6466900000001,330.0 248.88670000000008,330.0 C 247.48536000000007,330.0 246.83603000000008,330.0 245.90452000000008,330.0 C 245.00002000000006,330.0 243.16670000000008,329.03516 243.16670000000008,330.0 C 243.16670000000008,330.71735 244.58270000000007,330.0 245.4653600000001,330.0 C 246.5000300000001,330.0 247.65202000000008,330.0 248.2580200000001,330.0 C 248.8760300000001,330.0 250.12402000000012,330.0 250.7420300000001,330.0 C 251.3480300000001,330.0 253.0356900000001,330.0 253.5453600000001,330.0 C 254.5027000000001,330.0 255.4040300000001,330.0 256.2813700000001,330.0 C 257.1666800000001,330.0 258.0840400000001,330.0 259.0253600000001,330.0 C 259.5000300000001,330.0 260.4473600000001,330.0 261.8333700000001,330.0 C 262.71469000000013,330.0 263.56402000000014,330.0 264.3893700000001,330.0 C 265.1987000000001,330.0 266.4000200000001,330.0 267.2000400000001,330.0 C 268.0000300000001,330.0 268.80002000000013,329.99701 270.0000300000001,330.0 C 270.8000200000001,330.00201 271.6028100000001,330.00696 272.4000200000001,330.108 C 272.8018100000001,330.15893 274.0164100000001,330.46512 274.8000100000001,330.85467 C 275.6187400000001,331.26168 276.3997100000001,331.79647 276.8000100000001,332.05633 C 277.9991100000001,332.83477 278.7993700000001,333.31622 279.1955200000001,333.55181 C 279.9804900000001,334.01864 280.7785600000001,334.46456 281.8333700000001,335.33333 C 282.1911300000001,335.62798 282.8550400000001,336.29564 283.4583700000001,337.02083 C 284.0551700000001,337.73818 284.31796000000014,338.11403 285.07852000000014,339.17815 C 285.54571000000016,339.83181 285.93326000000013,340.47573 286.59869000000015,341.22799000000003 C 287.34954000000016,342.07684000000006 288.06170000000014,342.38766000000004 288.8333700000002,343.16665000000006 C 289.4239800000002,343.76284000000004 290.5540100000002,344.69290000000007 289.9583700000002,345.4374900000001 C 289.6197500000002,345.8608000000001 288.5044500000002,344.6609400000001 287.9453700000002,344.2319800000001 C 287.3077100000002,343.74275000000006 286.6088500000002,343.24342000000007 286.2436800000002,343.0053300000001 C 285.1802900000002,342.31200000000007 284.1527100000002,341.80532000000005 283.5000300000002,341.4999900000001 C 282.84735000000023,341.19466000000006 281.8284000000002,340.6747900000001 281.1133700000002,340.2319800000001 C 280.3479300000002,339.75795000000005 279.9745500000002,339.4721200000001 279.1383600000002,339.0053300000001 C 277.8567100000002,338.28985000000006 277.3862800000002,338.12072000000006 276.4473500000002,337.8098300000001 C 275.5071000000002,337.4985200000001 275.0222400000002,337.39607000000007 274.0840400000002,337.1173300000001 C 273.1635100000002,336.8438300000001 272.28222000000017,336.5267500000001 271.4466800000002,336.17464000000007 C 270.64227000000017,335.83565000000004 269.89398000000017,335.4668500000001 268.8218600000002,335.02166000000005 C 268.17046000000016,334.75115000000005 267.2974800000002,334.3904600000001 266.3333700000002,334.16665000000006 C 265.43206000000015,333.95742000000007 264.5893500000002,333.9999900000001 263.6781900000002,333.9999900000001 C 262.9375300000002,333.9999900000001 262.2279900000002,333.99270000000007 261.0293600000002,334.0013300000001 C 260.32801000000023,334.0064000000001 259.5772100000002,334.0163400000001 258.7973700000002,334.0853100000001 C 257.59681000000023,334.1914800000001 256.7917500000002,334.3452600000001 255.97921000000022,334.5416400000001 C 255.13862000000023,334.7448000000001 253.83149000000023,335.1612400000001 253.3785300000002,335.32182000000006 C 252.43883000000022,335.6549800000001 251.9565300000002,335.8405000000001 250.9893700000002,336.2826400000001 C 250.4915200000002,336.51024000000007 248.9963300000002,337.3274400000001 248.5002000000002,337.6426600000001 C 247.9975400000002,337.9620300000001 247.0098400000002,338.64947000000006 246.5208600000002,338.9999900000001 C 246.0351700000002,339.3481300000001 245.0964100000002,340.0483000000001 244.1667000000002,340.66665000000006 C 243.2954500000002,341.2461200000001 242.8590400000002,341.49334000000005 242.0208600000002,341.97915000000006 C 241.2063200000002,342.45126000000005 239.9974100000002,343.16256000000004 239.6003600000002,343.4211700000001 C 238.80368000000018,343.9400600000001 238.0417100000002,344.47915000000006 237.6720300000002,344.73867000000007 L 236.9707100000002,345.23064000000005 L 235.7720400000002,346.0280000000001 L 235.0625400000002,346.43748000000005" fill="none" id="svg_13" stroke="#000" stroke-width="2"/>
</svg>
