<?xml version="1.0" ?>
<svg baseProfile="full" height="480" version="1.1" width="640" xmlns="http://www.w3.org/2000/svg" xmlns:ev="http://www.w3.org/2001/xml-events" xmlns:xlink="http://www.w3.org/1999/xlink">
	<defs/>
	<path d="M 242.0,219.0 C 240.3,219.0 239.39999,219.0 238.5,219.0 C 237.57867,219.0 236.66611,219.02328 235.74933,218.98933 C 235.00439999999998,218.96174 233.99314999999999,218.66456 233.25182999999998,218.35266 C 232.38,217.98585 231.39818,217.81973 231.56249999999997,216.97916999999998 C 231.73954999999998,216.07351999999997 232.47936999999996,215.46329999999998 233.32149999999996,214.89998999999997 C 233.99112999999997,214.45206999999996 234.58766999999995,214.17131999999998 235.60449999999994,213.70448999999996 C 236.22810999999996,213.41818999999995 237.41926999999995,213.09680999999998 238.23597999999996,213.03598999999997 C 238.80961999999997,212.99327999999997 239.99998999999997,212.99998999999997 240.89997999999994,212.99998999999997 C 241.49998999999994,212.99998999999997 242.39997999999994,212.99998999999997 243.59998999999993,212.99998999999997 C 244.19997999999993,212.99998999999997 245.09998999999993,212.99998999999997 246.29998999999992,212.99998999999997 C 246.8999799999999,212.99998999999997 247.79998999999992,212.99864999999997 248.9999899999999,212.99998999999997 C 249.59465999999992,213.00065999999998 251.1708399999999,212.49565999999996 251.45864999999992,213.28532999999996 C 251.7494399999999,214.08316999999997 250.46462999999991,214.74122999999997 249.57865999999993,214.96399999999997 C 248.69349999999991,215.18655999999996 247.72797999999992,214.99999999999997 247.17864999999992,214.99999999999997 C 245.9999799999999,214.99999999999997 245.0999899999999,214.99999999999997 244.19997999999993,214.99999999999997 C 243.59998999999993,214.99999999999997 242.3999799999999,214.99999999999997 241.49997999999994,214.99999999999997 C 240.89996999999994,214.99999999999997 239.69997999999993,214.99999999999997 238.79997999999995,214.99999999999997 L 238.19996999999995,214.99999999999997" fill="none" id="svg_13" stroke="#000" stroke-width="2"/>
</svg>
