<?xml version="1.0" ?>
<svg baseProfile="full" height="480" version="1.1" width="640" xmlns="http://www.w3.org/2000/svg" xmlns:ev="http://www.w3.org/2001/xml-events" xmlns:xlink="http://www.w3.org/1999/xlink">
	<defs/>
	<path d="M 229.0,127.0 C 228.0,127.0 227.04649,126.91284 226.436,127.61066 C 225.85334,128.27667 226.0,129.29999999999998 226.0,130.19998999999999 C 226.0,131.1 226.0,131.99999 226.0,132.79999999999998 C 226.0,133.69998999999999 225.94907,134.74564999999998 226.7045,134.9955 C 227.59731,135.29076999999998 228.20641,135.56185 228.87866,136.22133 C 229.49669,136.82761 230.19998999999999,137.0 231.1,137.0 C 231.99999,137.0 232.80041,137.02724 233.69998999999999,137.0 C 234.64413,136.97141 235.3697,136.57089 235.87849,135.7785 C 236.35766,135.03222 236.0,134.0 236.0,133.19999 C 236.0,132.3 236.0,131.39999 236.0,130.49999000000003 C 236.0,129.60000000000002 236.19807,128.67759000000004 235.99867,127.80132000000003 C 235.81564,126.99702000000003 234.8,126.99999000000004 233.89999,126.99999000000004 C 233.0,126.99999000000004 232.39282,126.51683000000004 231.71466,126.08532000000004 C 230.93962000000002,125.59217000000004 229.65257,125.61054000000004 229.12151,126.22148000000004 C 228.53981,126.89068000000005 229.33156,127.81340000000004 230.10001,128.22131000000005 C 230.74996,128.56633000000005 231.76888,128.93240000000006 231.9955,129.70448000000005 C 232.24773,130.56375000000006 232.00224,131.49998000000005 232.0,132.39998000000006 C 231.99774,133.30000000000007 231.823,134.33688000000006 231.19867,134.71465000000006 C 230.39312999999999,135.20206000000007 229.3324,135.07740000000007 228.60001,134.56398000000007 C 227.81005,134.01022000000006 227.20221,133.34865000000008 227.02083,132.49998000000008 C 226.83266999999998,131.61962000000008 226.80193,130.6775800000001 227.00133,129.8013100000001 C 227.18436,128.9970000000001 228.28969,128.8512100000001 228.94733,129.3526400000001 C 229.62419,129.8687400000001 229.98934,130.6106500000001 230.0,131.5279800000001 L 230.0,130.9003100000001 L 230.0,130.54165000000012" fill="none" id="svg_14" stroke="#000" stroke-width="2"/>
</svg>
