<?xml version="1.0" ?>
<svg baseProfile="full" height="480" version="1.1" width="640" xmlns="http://www.w3.org/2000/svg" xmlns:ev="http://www.w3.org/2001/xml-events" xmlns:xlink="http://www.w3.org/1999/xlink">
	<defs/>
	<path d="M 322.0,312.0 C 321.12149,319.04315 321.08157,319.77188 321.05716,320.51883 C 321.0322,321.28252999999995 321.0188,322.06246999999996 321.01068000000004,322.85733 C 321.00241000000005,323.66614 321.00116,324.48801 321.00000000000006,326.16666 C 320.99942000000004,327.02151999999995 321.00046000000003,327.88541 320.98651000000007,328.75718 C 320.97247000000004,329.63609 320.94632000000007,330.52134 320.89200000000005,331.41068 C 320.8373700000001,332.30509 320.78504000000004,333.20737 320.50000000000006,335.0 C 320.35645000000005,335.90283 320.15518000000003,336.79672 319.93750000000006,337.68201 C 319.72177000000005,338.55944999999997 319.48242000000005,339.41760999999997 319.23999000000003,340.25602 C 319.004,341.07223999999997 318.75671000000006,341.85580999999996 318.33334,343.33335 C 318.13858000000005,344.01306999999997 317.96631,344.65998 317.81884,345.28034 C 317.67721,345.87604000000005 317.55599,346.45719 317.45733,347.02933 C 317.35973,347.59528 317.26724,348.16336 317.16665,349.33335 C 317.06078,350.56501 317.04916000000003,351.2009 317.01467,351.84 C 316.98015000000004,352.47922 316.90349000000003,353.73895999999996 316.83065000000005,354.34668 C 316.69198000000006,355.50333 316.44183000000004,356.54555999999997 316.29467000000005,357.02398999999997 C 316.01830000000007,357.92249 315.64596000000006,358.71108999999996 315.3333400000001,359.83335 C 315.0620400000001,360.80729 315.30786000000006,361.92734 315.00000000000006,361.91666 C 313.96930000000003,361.88092 315.00189000000006,360.0 315.00000000000006,359.24282999999997 C 314.9977400000001,358.35184 314.8811600000001,357.23623999999995 314.18115000000006,356.95183999999995 C 313.27148000000005,356.58223999999996 312.44137000000006,356.48317999999995 311.83383000000003,356.35265999999996 C 310.8389,356.13890999999995 309.74325000000005,356.04696999999993 308.97915000000006,356.02083999999996 C 308.19576000000006,355.99404999999996 306.9999900000001,355.99999999999994 306.1986600000001,355.99999999999994 C 305.3893300000001,355.99999999999994 304.56399000000005,355.99999999999994 304.14281000000005,355.99999999999994 C 302.83333000000005,355.99999999999994 301.9159700000001,355.99999999999994 300.97466000000003,355.99999999999994 C 300.49999,355.99999999999994 299.55266,355.99999999999994 298.16665,355.99999999999994 C 297.28665,355.99999999999994 296.44665,355.99999999999994 295.64666,355.99999999999994 C 294.88665,355.99999999999994 293.82183,355.99999999999994 293.16616,355.99999999999994 C 292.28265,355.99999999999994 291.00847999999996,356.1360199999999 291.00765,355.9998499999999 C 291.00283,355.21676999999994 292.49047,355.9803799999999 293.29198,355.9146799999999 C 294.62416,355.8054899999999 295.08937000000003,355.7288299999999 296.04665,355.5533499999999 C 297.04973,355.3694799999999 297.56334,355.24520999999993 298.08666,355.1133499999999 C 299.72688999999997,354.7000799999999 300.28475,354.5185299999999 301.42530999999997,354.1746599999999 C 302.00037999999995,354.0012899999999 302.57230999999996,353.8174199999999 303.71599,353.48401999999993 C 304.8311,353.1589199999999 305.37566,353.01059999999995 306.43831,352.7616699999999 C 306.9521,352.6413099999999 307.95064,352.4296099999999 308.91332,352.2866599999999 C 309.83108,352.15036999999995 310.70998,352.0725499999999 311.532,352.03601999999995 C 312.62336999999997,351.98752999999994 313.49998999999997,351.99963999999994 314.45833,352.00001 C 315.32067,352.00034999999997 316.28508,352.27133999999995 315.97330999999997,353.14133999999996 C 315.73765,353.79898999999995 315.15184,354.44649 314.59331,355.20534 C 314.00541999999996,356.00405 313.39937,356.79762999999997 313.109,357.20002999999997 C 312.53512,357.99535 312.00120999999996,358.79231999999996 311.77065,359.20002999999997 C 311.10402,360.37883 310.80877,361.19685999999996 310.49998999999997,361.97916999999995 C 310.19802,362.74418 309.69129999999996,363.84973999999994 309.23064,364.51599999999996 C 308.76308,365.19221 308.204,365.8169 307.68267,366.48402 C 307.15574999999995,367.15831 306.67821,367.87834 306.23598,368.61467 C 305.80367,369.33452 305.44036,370.05724 304.79998,370.95702 C 304.23351,371.75295 303.60006,372.39107 302.80032,373.19985 C 302.40902,373.59554 301.62875,374.28902000000005 301.17065,375.11202000000003 C 301.00973000000005,375.40108000000004 301.43695,374.45339 301.71432000000004,373.98119 C 302.21063000000004,373.13631000000004 302.61724000000004,372.52031000000005 303.19982000000005,371.47869000000003 C 303.60570000000007,370.75298000000004 303.98989000000006,370.00515 304.34283000000005,369.25268000000005 C 304.84884000000005,368.17382000000003 305.11886000000004,367.48831000000007 305.36401000000006,366.84670000000006 C 305.70132000000007,365.96389000000005 306.0741500000001,364.90914000000004 306.41067000000004,364.2360100000001 C 306.73275000000007,363.59172000000007 307.33087000000006,362.80788000000007 307.81466000000006,362.2000300000001 C 308.44344000000007,361.4100200000001 308.64132000000006,360.5334700000001 309.0481500000001,359.7143400000001 C 309.44518000000005,358.9149600000001 310.5166300000001,358.9329700000001 311.16665000000006,359.6666700000001 C 311.7701400000001,360.3478200000001 312.02834000000007,361.1004800000001 312.40450000000004,361.87517000000014 C 312.60534000000007,362.2887700000001 313.20144000000005,363.6207400000001 313.39998,364.08403000000015 C 313.80287000000004,365.0240900000002 314.19805,365.97551000000016 314.39998,366.44734000000017 C 314.99425,367.83583000000016 315.19692000000003,368.2801000000002 315.59999000000005,369.1473500000002 C 315.99696000000006,370.0014100000002 316.20610000000005,370.42253000000017 316.59999000000005,371.2840100000002 C 317.2094900000001,372.6170500000002 317.40141000000006,373.0834200000002 317.79997000000003,374.0253400000002 C 318.00068000000005,374.4997100000002 318.39036000000004,375.4515500000002 318.99998000000005,376.8333500000002 C 319.19691000000006,377.2797000000002 319.59388000000007,378.1413300000002 319.99998000000005,378.9583500000002 C 320.19703000000004,379.35480000000024 320.58528000000007,380.1217700000002 321.19966000000005,381.17817000000025 C 321.76521,382.15061000000026 322.12797000000006,382.71735000000024 322.66664000000003,383.66666000000026 L 322.95833000000005,384.47916000000026" fill="none" id="svg_14" stroke="#000" stroke-width="2"/>
</svg>
