<?xml version="1.0" ?>
<svg baseProfile="full" height="480" version="1.1" width="640" xmlns="http://www.w3.org/2000/svg" xmlns:ev="http://www.w3.org/2001/xml-events" xmlns:xlink="http://www.w3.org/1999/xlink">
	<defs/>
	<path d="M 515.5,389.89999 C 517.20001,389.95715 518.02802,390.35351 518.79547,390.84732 C 519.49188,391.29541 519.38849,392.41696 520.02081,392.89999 C 520.70196,393.42031000000003 521.58392,393.83093 522.06402,394.5 C 522.58563,395.22696 523.08239,395.75531 523.8518,395.95267 C 524.76391,396.18665 525.41522,397.01334 526.13598,397.46399 C 526.9140600000001,397.95050000000003 527.67462,397.89465 528.74731,397.89999 C 529.6666799999999,397.90457 530.52081,397.89999 531.5,397.89999 C 532.29999,397.89999 533.09998,397.89999 534.09552,397.89999 C 534.8428299999999,397.89999 535.8845799999999,398.08297 536.69867,397.89868 C 537.50714,397.71567 537.8673699999999,396.75201000000004 538.216,396.1 C 538.6690600000001,395.25262000000004 539.07196,394.38714000000004 539.5,393.56667000000004 C 539.84229,392.91054 540.08032,392.10692000000006 540.5,391.06667000000004 C 540.78668,390.35613000000006 541.16388,389.53722000000005 541.70001,388.78399 C 542.16943,388.12447000000003 542.6116900000001,387.35543 543.20001,386.60983000000004 C 543.7236300000001,385.94619000000006 544.4820500000001,385.46454000000006 544.5,384.59549000000004 C 544.521,383.57904 544.69812,382.80777000000006 544.14734,382.00983 C 543.67267,381.32215 542.93335,380.69583 542.3146399999999,380.29999000000004 C 541.52478,379.79465000000005 540.9050299999999,379.25397000000004 540.01465,378.70001 C 539.31134,378.26242 538.50415,377.89154 537.6680299999999,377.48935 C 536.93207,377.13535 536.0008499999999,376.73135 535.2453599999999,376.41467 C 534.4035599999999,376.0618 533.9572699999999,375.88165 533.0436399999999,375.49551 C 532.5808099999998,375.29992000000004 531.2195399999998,374.70425 530.3571799999999,374.29998 C 529.9349999999998,374.10207 529.1097999999998,373.70171 528.3013299999999,373.29998 C 527.0990599999999,372.70257 526.3076199999999,372.3027 525.9213299999999,372.1 C 525.1691899999998,371.70529000000005 524.4259099999999,371.36312000000004 523.2719799999999,370.49865 C 522.7614199999998,370.11614 522.1081599999999,369.47918 521.5213699999998,368.47881 C 521.2220499999999,367.96859 520.9849899999998,367.08748 520.3333199999998,366.23333 C 519.7625799999998,365.48525 519.0866799999999,365.21508 518.3839799999998,364.41601 C 517.8173299999999,363.77160000000003 517.1641299999999,362.93899000000005 516.6853699999998,362.52532 C 515.8051199999998,361.76479 515.5947299999998,361.05694 515.4173599999998,360.29867 C 515.1821299999998,359.29324 514.7972999999998,358.49996 514.1786499999998,357.92132000000004 C 513.5536499999998,357.33673000000005 512.6462399999998,356.74960000000004 512.1253099999998,356.07467 C 511.73153999999977,355.56451000000004 511.0279299999998,354.76153000000005 510.2533299999998,354.27465 C 509.3495799999998,353.70663 508.8215699999998,353.40209 507.95834999999977,352.89999 C 507.3440599999998,352.54269 506.34005999999977,352.04892 505.61599999999976,351.78534 C 504.88104999999973,351.51779 504.1252199999998,351.3111 503.38400999999976,351.10135 C 502.32132999999976,350.80063 501.33505999999977,350.50299 500.71066999999977,350.29999000000004 C 499.49811999999974,349.90576000000004 498.89886999999976,349.70719 498.02084999999977,349.40000000000003 C 497.18292999999977,349.10685 496.18124999999975,348.7089 495.52084999999977,348.40000000000003 C 494.89737999999977,348.10834000000006 493.8896499999998,347.60645000000005 493.26400999999976,347.26401000000004 C 492.3242499999998,346.74964000000006 491.5345799999998,346.26135000000005 491.02084999999977,345.85834000000006 C 490.24167999999975,345.24707000000006 489.60730999999976,344.49848000000003 489.16134999999974,343.66400000000004 C 488.86086999999975,343.10174000000006 488.34423999999973,341.89410000000004 488.01598999999976,341.30133000000006 C 487.68551999999977,340.7045300000001 487.14135999999974,339.86401000000006 486.66665999999975,339.0666800000001 C 486.24246999999974,338.3541600000001 485.87298999999973,337.6395300000001 485.33334999999977,336.5666800000001 C 485.0136799999998,335.93115000000006 484.66858999999977,335.2363000000001 484.28933999999975,334.51468000000006 C 483.9033199999998,333.78018000000003 483.30923999999976,332.71600000000007 482.89999999999975,332.0616800000001 C 482.50875999999977,331.4361300000001 481.9176399999997,330.5725100000001 481.29998999999975,329.82135000000005 C 480.71636999999976,329.11157000000003 480.27880999999974,328.69229000000007 479.4999999999998,327.73334000000006 C 479.0872199999998,327.2250700000001 478.49572999999975,326.3863600000001 478.04284999999976,325.85266000000007 C 477.35775999999976,325.04532000000006 476.55718999999976,324.3485100000001 475.9999999999998,323.9416800000001 C 475.4618799999998,323.5487700000001 474.4097299999998,322.94040000000007 473.7359899999998,322.51468000000006 C 473.09273999999976,322.1082200000001 472.28890999999976,321.36688000000004 471.7106599999998,320.6600000000001 C 471.3284599999998,320.1927500000001 470.5222099999998,319.2627500000001 469.8746599999998,318.8600100000001 C 469.01848999999976,318.3274800000001 468.5208399999998,317.8583300000001 468.06932999999975,317.2973300000001 L 467.61430999999976,316.3045000000001 L 467.5026499999998,315.3853400000001" fill="none" id="svg_14" stroke="#000" stroke-width="2"/>
</svg>
