<?xml version="1.0" ?>
<svg baseProfile="full" height="480" version="1.1" width="640" xmlns="http://www.w3.org/2000/svg" xmlns:ev="http://www.w3.org/2001/xml-events" xmlns:xlink="http://www.w3.org/1999/xlink">
	<defs/>
	<path d="M 397.5,302.89999 C 400.18668,304.66934 400.74036,305.1687 401.34668,305.68533 C 401.98013,306.22509 403.01715,306.98498 403.74817,307.44732000000005 C 404.11267000000004,307.67785000000003 404.85922,308.0957 405.53067000000004,308.58401000000003 C 406.48801000000003,309.28024000000005 407.22845000000007,310.10583 407.64267000000007,310.63867000000005 C 408.35269000000005,311.55197000000004 408.85483000000005,312.23681000000005 409.50000000000006,312.89999000000006 C 409.99307000000005,313.40683000000007 410.70270000000005,314.09735000000006 411.29999000000004,314.7000100000001 C 411.89200000000005,315.2973600000001 412.24344,316.17856000000006 412.72150000000005,316.9998500000001 C 413.0871,317.6279300000001 414.16864000000004,317.9706400000001 414.90000000000003,317.4639900000001 C 415.69309000000004,316.9145500000001 416.10041,316.2335500000001 416.98401,315.98401000000007 C 417.82517,315.74646000000007 418.70508,315.4604500000001 419.384,315.18399000000005 C 420.2951,314.81296000000003 421.10132,314.9006600000001 422.1,314.89999000000006 C 422.89999,314.8994400000001 423.89868,314.89999000000006 424.66400000000004,314.89999000000006 C 425.74283,314.89999000000006 426.6,314.89999000000006 427.50000000000006,314.89999000000006 C 428.29999000000004,314.89999000000006 429.2000100000001,314.89999000000006 430.10001000000005,314.89999000000006 C 431.00000000000006,314.89999000000006 431.90000000000003,314.89999000000006 432.79999000000004,314.89999000000006 C 433.70001,314.89999000000006 434.60016,314.89556000000005 435.38535,314.89999000000006 C 436.33603,314.90533000000005 437.11799,314.92965000000004 438.09549000000004,315.2526500000001 C 438.85828000000004,315.5046900000001 439.80054000000007,315.7144100000001 440.70001,316.18399000000005 C 441.35541,316.52612000000005 442.22687,316.71402000000006 443.1,316.93600000000004 C 443.96227000000005,317.15521 444.79727,317.66711000000004 445.41598000000005,318.18399000000005 C 446.07296,318.73285000000004 446.83294000000006,318.84936000000005 447.47467000000006,319.32535000000007 C 448.11661000000004,319.80149000000006 448.4977400000001,319.1955000000001 448.50000000000006,318.2999900000001 C 448.50226000000004,317.4000000000001 448.50000000000006,316.4893500000001 448.50000000000006,315.5784900000001 C 448.50000000000006,314.8791800000001 448.50000000000006,313.8999900000001 448.50000000000006,313.1106600000001 C 448.50000000000006,312.06668000000013 448.48929000000004,311.2044400000001 448.50000000000006,310.2999900000001 C 448.5104400000001,309.4206600000001 449.13101000000006,308.9068600000001 449.89999000000006,309.32535000000007 C 450.72531000000004,309.7744800000001 451.66589000000005,310.0686400000001 452.33599000000004,310.32535000000007 C 453.10046000000006,310.6182300000001 454.10839000000004,310.77884000000006 454.84283000000005,310.95267000000007 C 455.77157000000005,311.17246000000006 456.3710300000001,311.72190000000006 457.15267000000006,312.2000100000001 C 457.83645000000007,312.6182800000001 458.68816000000004,313.3034300000001 459.38399000000004,313.6146500000001 C 460.27294000000006,314.0122600000001 461.33333000000005,313.8999900000001 462.08931,313.8999900000001 C 462.99999,313.8999900000001 463.89998,313.8999900000001 464.79997000000003,313.8999900000001 C 465.69999,313.8999900000001 466.60685,314.0109200000001 467.49998000000005,313.8999900000001 C 468.39912000000004,313.78833000000014 468.49931000000004,313.0133300000001 468.49998000000005,312.07467000000014 C 468.50071,311.06667000000016 468.49662000000006,310.1732700000001 468.0639800000001,309.48934000000014 C 467.5597400000001,308.6922500000001 467.1591900000001,308.02102000000014 466.61464000000007,307.38399000000015 C 465.92787000000004,306.58061000000015 465.11852000000005,306.25295000000017 464.38533000000007,305.70000000000016 C 463.77342000000004,305.23851000000013 463.12730000000005,304.44872000000015 462.33333000000005,303.89998000000014 C 461.69188,303.45665000000014 460.90227000000004,303.09270000000015 460.10130000000004,302.70131000000015 C 459.33934000000005,302.3290000000001 458.37797000000006,302.0062100000001 457.53065000000004,301.81600000000014 C 456.72697000000005,301.6355800000001 455.98283000000004,301.42037000000016 455.26799000000005,301.09865000000013 C 454.2830000000001,300.6553500000001 453.62547000000006,300.0872400000001 452.8428200000001,299.5954800000001 C 452.10298000000006,299.13064000000014 451.28771000000006,298.5928900000001 450.7106500000001,298.07467000000014 C 450.1445800000001,297.56631000000016 449.3408400000001,296.82189000000017 448.8044900000001,296.1473300000001 C 448.2515400000001,295.45190000000014 447.9654400000001,294.6802000000001 447.2999700000001,293.7853300000001 C 446.8426300000001,293.1703400000001 446.0004100000001,292.5653300000001 445.6213200000001,291.7999800000001 C 445.2019200000001,290.9532100000001 444.8369300000001,290.3476500000001 444.2044800000001,289.60000000000014 C 443.5651700000001,288.84423000000015 443.7826700000001,288.01595000000015 443.3856600000001,287.20001000000013 C 443.0171900000001,286.44269000000014 442.0041900000001,286.14279000000016 441.4853000000001,285.29999000000015 C 441.01386000000014,284.5342400000001 440.7212300000001,283.75516000000016 440.33064000000013,283.01468000000017 C 439.8944500000001,282.18775000000016 439.3894500000001,281.6475500000002 438.3839800000001,281.0679900000002 C 437.7837000000001,280.7219800000002 436.8480900000001,280.1839300000002 436.2893100000001,279.71466000000015 C 435.5072700000001,279.05789000000016 434.9044800000001,278.65716000000015 434.15714000000014,278.20450000000017 L 433.25715000000014,277.60449000000017 L 432.49998000000016,277.0666800000002 L 431.79997000000014,276.9045100000002" fill="none" id="svg_14" stroke="#000" stroke-width="2"/>
</svg>
