<?xml version="1.0" ?>
<svg baseProfile="full" height="480" version="1.1" width="640" xmlns="http://www.w3.org/2000/svg" xmlns:ev="http://www.w3.org/2001/xml-events" xmlns:xlink="http://www.w3.org/1999/xlink">
	<defs/>
	<path d="M 394.0,302.0 C 391.14249,307.7215 390.96194,308.284 390.64001,309.436 C 390.47674,310.02016999999995 390.32910000000004,310.61557 390.13751,311.20448999999996 C 389.54809,313.01635 389.24460000000005,313.60533999999996 388.94134,314.20530999999994 C 388.62915000000004,314.82295999999997 388.27542,315.44544999999994 387.89584,316.08332999999993 C 387.50094,316.7469299999999 387.07257000000004,317.4289099999999 386.62533,318.1413099999999 C 385.66747000000004,319.6671599999999 385.15844000000004,320.48639999999995 384.62667000000005,321.3359799999999 C 384.07848000000007,322.21179999999987 383.51354000000003,323.1058799999999 382.91665000000006,323.9999799999999 C 382.31359000000003,324.90332999999987 381.6959800000001,325.80399999999986 381.0266700000001,326.66397999999987 C 379.70416000000006,328.3631999999999 378.9669200000001,329.1247299999999 378.2279900000001,329.8652999999999 C 377.49108000000007,330.6038599999999 376.7194800000001,331.3116499999999 375.9374900000001,332.0208199999999 C 375.14483000000007,332.7396899999999 374.32506000000006,333.4583799999999 373.5119800000001,334.2213199999999 C 371.8148400000001,335.81381999999985 370.9727000000001,336.70141999999987 370.1146400000001,337.6213099999999 C 369.23689000000013,338.5623199999999 368.36400000000015,339.5372999999999 367.47914000000014,340.5208199999999 L 366.5893100000001,341.5093099999999 L 365.69548000000015,342.49380999999994 L 364.79866000000015,343.46530999999993" fill="none" id="svg_14" stroke="#000" stroke-width="2"/>
</svg>
