<?xml version="1.0" ?>
<svg baseProfile="full" height="480" version="1.1" width="640" xmlns="http://www.w3.org/2000/svg" xmlns:ev="http://www.w3.org/2001/xml-events" xmlns:xlink="http://www.w3.org/1999/xlink">
	<defs/>
	<path d="M 302.0,215.0 C 303.16666,216.0 303.66391,216.5519 304.2955,217.3045 C 304.75595,217.85317999999998 304.94626,218.82612 305.0,219.83332 C 305.043,220.63921 305.83643,221.14109 305.97916,222.02082 C 306.13254,222.96618999999998 306.37073,223.42806 306.87851,224.22149 C 307.35651,224.96835 307.50787,225.60861 307.94284,226.35716 C 308.36795,227.08873 308.0,228.16666999999998 308.0,229.0 C 308.0,229.9785 307.81754,230.72154 308.03601,231.60001 C 308.25305,232.47272 308.92136,233.31635 308.97916,234.0 C 309.06158999999997,234.97508 309.48319,235.60718 309.91468,236.28534 C 310.40781,237.06037999999998 310.00001,238.10001 310.00001,239.0 C 310.00001,239.8 310.39338,240.81339 309.964,241.564 C 309.56892,242.25463 308.33244,242.07737 307.60002,241.564 C 306.80992,241.01023 306.45093999999995,240.34468999999999 305.70002999999997,239.7045 C 304.94672999999995,239.06229 304.1996,239.02791 303.30001,239.0 C 302.35591999999997,238.97072 301.83337,238.16667 301.00002,238.0 L 300.16668,237.83333 L 299.71468,237.08533" fill="none" id="svg_14" stroke="#000" stroke-width="2"/>
</svg>
