<?xml version="1.0" ?>
<svg baseProfile="full" height="480" version="1.1" width="640" xmlns="http://www.w3.org/2000/svg" xmlns:ev="http://www.w3.org/2001/xml-events" xmlns:xlink="http://www.w3.org/1999/xlink">
	<defs/>
	<path d="M 396.0,322.0 C 395.16666,332.83334 395.08261,334.40259 395.05716,335.09982 C 395.03351000000004,335.74789000000004 395.01602,336.35409000000004 395.00449000000003,337.4685 C 394.99909,337.99063 395.00000000000006,339.50033 395.00000000000006,340.509 C 395.00000000000006,341.02133000000003 395.00000000000006,342.07199 395.00000000000006,342.61432 C 395.00000000000006,343.17066 394.99924000000004,344.94333 395.0013400000001,345.57333 C 395.0035400000001,346.22332 395.00308000000007,346.89349 395.0360100000001,348.29333 C 395.0531900000001,349.02343 395.0730000000001,349.77404 395.1666600000001,351.33334 C 395.2153100000001,352.14306000000005 395.2821100000001,352.96841 395.3616700000001,353.80532 C 395.4420800000001,354.65111 395.53651000000013,355.50063 395.64667000000014,356.34933 C 395.75650000000013,357.19534 395.86719000000016,358.03546 396.16666000000015,359.66665 C 396.31208000000015,360.45864 396.48008000000016,361.22921 396.6571700000001,361.98116 C 396.8308500000001,362.71855999999997 397.0171600000001,363.4385 397.2106700000001,364.14266 C 397.4008900000001,364.83482999999995 397.5960500000001,365.5136 398.0000100000001,366.83333 C 398.1977600000001,367.47945 398.3915800000001,368.11974 398.8213300000001,369.37465 C 399.0361400000001,370.00190999999995 399.2667000000001,370.62739999999997 399.5143500000001,371.25264 C 399.7653000000001,371.88615 400.3266700000001,373.16985 400.6428300000001,373.82164 C 401.2960900000001,375.16838 401.66142000000013,375.84663 402.0208500000001,376.54164000000003 C 402.3854100000001,377.24663000000004 402.7577900000001,377.95869000000005 403.1173500000001,378.68666 C 403.8454400000001,380.16072 404.1826600000001,380.91975 404.5160000000001,381.68532 C 404.8513300000001,382.4554 405.1755500000001,383.23561 405.5000100000001,384.02083 C 405.8262400000001,384.81029 406.1489100000001,385.60607 406.4840200000001,386.40132 C 407.1590400000001,388.00322 407.5191500000001,388.80073 407.8826700000001,389.59865 C 408.24613000000005,390.39644000000004 408.61579000000006,391.1888 408.97917000000007,391.97914000000003 C 409.3398000000001,392.76347000000004 409.6974900000001,393.53966 410.0306800000001,394.31465000000003 C 410.6810100000001,395.82725000000005 410.9607000000001,396.57689000000005 411.2320000000001,397.31199000000004 C 411.4979600000001,398.03260000000006 411.74689000000006,398.74354000000005 412.0000100000001,399.43748000000005 C 412.2483000000001,400.11821000000003 412.4916800000001,400.7868500000001 412.7680200000001,401.42799 C 413.3069300000001,402.67836 413.6335900000001,403.26219000000003 413.9693400000001,403.82798 C 414.3008200000001,404.38660000000004 414.6560800000001,404.92100000000005 415.0208500000001,405.43748000000005 C 415.3801900000001,405.94630000000006 416.1179300000001,406.9115100000001 416.8333500000001,407.83332000000007 C 417.17878000000013,408.2784200000001 417.8451000000001,409.14564000000007 418.16401000000013,409.5746500000001 C 418.7938300000001,410.4219700000001 419.1088300000001,410.84357000000006 420.00001000000015,412.16663000000005 C 420.30409000000014,412.6180800000001 420.8928300000001,413.54438000000005 421.16801000000015,414.0146500000001 C 421.7044500000002,414.9314600000001 422.18281000000013,415.81516000000005 422.50001000000015,416.66663000000005 C 422.77867000000015,417.41462000000007 422.96128000000016,418.41526000000005 422.9960100000001,419.22663000000006 C 423.0426700000001,420.3164100000001 423.6125300000001,420.92798000000005 423.41666000000015,420.37498000000005 C 423.17691000000013,419.69807000000003 422.45948000000016,418.79127000000005 421.97666000000015,417.92314000000005 C 421.7082300000001,417.44047000000006 421.43552000000017,416.92570000000006 420.77668000000017,415.89183 C 420.4363200000002,415.35774000000004 419.67902000000015,414.32274 419.2571800000002,413.84267000000006 C 418.4143500000002,412.88353000000006 417.93989000000016,412.44939000000005 417.47916000000015,411.9999900000001 C 417.01590000000016,411.54809000000006 416.06266000000016,410.6505900000001 415.16666000000015,409.66665000000006 C 414.71112000000016,409.16641000000004 414.28052000000014,408.6344500000001 413.85718000000014,408.09017000000006 C 413.43112000000013,407.5424100000001 412.60990000000015,406.41521000000006 412.20450000000017,405.84817000000004 C 411.80057000000016,405.2832 411.00134000000014,404.16564000000005 410.6001600000002,403.62115000000006 C 410.2026700000002,403.08169000000004 409.4078700000002,402.0167200000001 409.0208400000002,401.47915000000006 C 408.6331400000002,400.94067000000007 408.2442000000002,400.39858000000004 407.8853400000002,399.83065000000005 C 406.7806300000002,398.08230000000003 406.4806500000002,397.43307000000004 406.1481600000002,396.79467000000005 C 405.8126200000002,396.15038000000004 405.4831200000002,395.4979200000001 405.13867000000016,394.85067000000004 C 404.7941000000002,394.20321 404.46243000000015,393.54775000000006 403.6666500000002,392.33334 C 403.27279000000016,391.73227 402.39684000000017,390.60357000000005 401.9493300000002,390.05066 C 401.5021900000002,389.4982 401.0462800000002,388.95282 400.6053400000002,388.39465 C 400.1636000000002,387.83545000000004 399.3198500000002,386.67508000000004 398.9428300000002,386.05734 C 398.1822400000002,384.81109000000004 397.8593600000002,384.15036000000003 397.52083000000016,383.5 C 397.18337000000014,382.85168 396.85900000000015,382.20151 396.51732000000015,381.56799 C 395.84731000000016,380.32571 395.4931500000001,379.73376 394.7518200000002,378.61883 C 394.39223000000015,378.07803 394.0212000000002,377.56222 393.66134000000017,377.05734 C 392.97006000000016,376.08749 392.3225600000002,375.17346000000003 391.76934000000017,374.28534 C 391.5046300000002,373.86038 391.0230000000002,373.01959 390.55181000000016,372.2045 C 390.31838000000016,371.80072 389.58782000000014,370.59378 389.0428400000002,369.80451 C 388.76867000000016,369.40742 388.20223000000016,368.62565 387.59866000000017,367.88535 C 386.7187200000002,366.8061 386.4029800000002,366.48383 385.8106700000002,365.836 C 385.2375800000002,365.2092 384.66422000000017,364.61881 383.9218500000002,363.70035 C 383.4525500000002,363.11975 382.8826700000002,362.27201 382.33335000000017,361.33335 L 382.05067000000014,360.68268" fill="none" id="svg_14" stroke="#000" stroke-width="2"/>
</svg>
