<?xml version="1.0" ?>
<svg baseProfile="full" height="480" version="1.1" width="640" xmlns="http://www.w3.org/2000/svg" xmlns:ev="http://www.w3.org/2001/xml-events" xmlns:xlink="http://www.w3.org/1999/xlink">
	<defs/>
	<path d="M 353.0,298.0 C 353.0,299.79999 353.0,300.70001 353.0,301.60001 C 353.0,302.5 353.0,303.4 353.0,304.29999 C 353.0,305.20000999999996 353.0,306.10001 353.0,307.0 C 353.0,307.79999 352.84293,308.71976 353.02084,309.5 C 353.24023,310.46201 353.93911,311.09387 354.0,312.0 C 354.05362,312.79819 353.98959,313.70007 354.0,314.60001 C 354.01044,315.50019 354.54318,316.20328 354.87851,317.10001 C 355.19659,317.95065999999997 355.0,318.79999 355.0,319.70002 C 355.0,320.60001 354.94702,321.5348 355.35266,322.3 C 355.80102,323.14579000000003 356.29581,323.72905000000003 357.09982,324.22151 C 357.71954,324.60109 357.91763000000003,325.66521 358.43600000000004,326.40001 C 358.91067000000004,327.07289000000003 359.63409,327.61241 360.1,328.32134 C 360.53268,328.97967 361.07284000000004,330.00179 361.6,330.58935 C 362.17172000000005,331.22659000000004 362.79998,331.80001000000004 363.47915,332.50003000000004 L 363.94732,333.30002" fill="none" id="svg_14" stroke="#000" stroke-width="2"/>
</svg>
