<?xml version="1.0" ?>
<svg baseProfile="full" height="480" version="1.1" width="640" xmlns="http://www.w3.org/2000/svg" xmlns:ev="http://www.w3.org/2001/xml-events" xmlns:xlink="http://www.w3.org/1999/xlink">
	<defs/>
	<path d="M 351.78333,190.5 C 353.48334,190.61433 353.96634,191.32196 354.66868,191.93201 C 355.34165,192.51657 356.3076,192.39153 357.28333,192.52085 C 358.12134,192.63192 359.07743,192.96635 359.61402,193.7 C 360.12626,194.40035999999998 360.34069999999997,195.15725999999998 361.08335,195.79549999999998 C 361.83408,196.44066999999998 362.64689,196.72652999999997 362.86735,197.38666999999998 C 363.1869,198.34355 363.54362,199.09204999999997 363.73069,200.0955 C 363.86903,200.83742999999998 364.21738,201.70736 364.49933999999996,202.384 C 364.87089,203.27562999999998 365.18033999999994,204.12421999999998 365.66232999999994,204.94267 C 366.03766999999993,205.57998 366.4396699999999,206.28834 367.2833299999999,206.47916999999998 C 368.2756999999999,206.70363999999998 368.85385999999994,207.22940999999997 369.6446899999999,207.47466999999997 C 370.5909799999999,207.76815999999997 371.3452199999999,208.14058999999997 371.9833399999999,208.69866999999996 C 372.7520199999999,209.37092999999996 373.5413799999999,209.55654999999996 374.0833499999999,210.20533999999998 C 374.6488399999999,210.8823 375.22528999999986,211.65929999999997 375.9503499999999,212.14733999999999 C 376.5611599999999,212.55847 377.6914099999999,212.27396 378.4190099999999,212.94267 C 379.0057399999999,213.48192 379.2231199999999,214.53825 379.8086599999999,215.07467 C 380.4414099999999,215.65437 381.0674499999999,216.17614 381.7833299999999,216.83334 C 382.2729499999999,217.28282 382.5807199999999,218.08723 382.7261699999999,219.0955 C 382.8576699999999,220.00691999999998 382.71890999999994,220.89455999999998 383.0046699999999,221.8215 C 383.2264699999999,222.54091 383.5905199999999,223.50519999999997 383.7579999999999,224.27866999999998 C 383.9715599999999,225.26509 384.5211499999999,225.86190999999997 384.8086599999999,226.64933999999997 C 385.1121599999999,227.48057999999997 385.7414299999999,228.11452999999997 386.4931699999999,228.45184999999998 C 387.2561699999999,228.7942 388.1001599999999,229.16716999999997 388.4216699999999,229.85183999999998 C 388.8750099999999,230.81727999999998 389.1775599999999,231.63456999999997 389.6166799999999,232.49999999999997 C 389.9593599999999,233.17539999999997 390.48020999999994,233.93847999999997 391.2260199999999,234.37867999999997 C 391.84753999999987,234.74552999999997 392.7416799999999,235.02084999999997 392.7940099999999,235.88934999999998 L 393.2833299999999,236.50000999999997 L 393.7726799999999,237.11067999999997 L 393.80416999999994,238.02084999999997" fill="none" id="svg_16" stroke="#000" stroke-width="2"/>
</svg>
