<?xml version="1.0" ?>
<svg baseProfile="full" height="480" version="1.1" width="640" xmlns="http://www.w3.org/2000/svg" xmlns:ev="http://www.w3.org/2001/xml-events" xmlns:xlink="http://www.w3.org/1999/xlink">
	<defs/>
	<path d="M 248.51137,323.09091 C 248.67804,324.92425000000003 249.35323,325.32461 249.67804,326.25757 C 249.91071000000002,326.92587 250.35574,327.58218999999997 250.50070000000002,328.68023999999997 C 250.60681000000002,329.48400999999996 250.33105000000003,330.72869999999995 251.03219,331.07007 C 251.81397,331.45072 252.46465,331.65722999999997 252.50686000000002,332.44275 C 252.56118,333.45349 252.51136000000002,334.3909 252.51136000000002,335.29093 C 252.51136000000002,336.19092 252.51136000000002,337.09092 252.51136000000002,337.89091 C 252.51136000000002,338.79093 252.51136000000002,339.69093000000004 252.51136000000002,340.57008 C 252.51136000000002,341.52693 252.51136000000002,342.39091 252.51136000000002,343.29094000000003 C 252.51136000000002,344.19093000000004 252.54855000000003,345.09178 252.51136000000002,345.89092000000005 C 252.46865000000003,346.80858000000006 251.96607000000003,347.54067000000003 251.22602000000003,348.00561000000005 C 250.44916000000003,348.49365000000006 249.83474000000004,348.65978000000007 249.07535000000004,349.05493000000007 C 248.30824000000004,349.4541000000001 247.21347000000003,348.9316100000001 246.56401000000005,349.44360000000006 C 245.94940000000005,349.92813000000007 245.04353000000006,349.9525100000001 244.31268000000006,350.37494000000004 C 243.53068000000005,350.82694000000004 242.80685000000005,351.09094000000005 241.91134000000005,351.09094000000005 C 241.01135000000005,351.09094000000005 240.10067000000006,351.09094000000005 239.19001000000006,351.09094000000005 C 238.33668000000006,351.09094000000005 237.39668000000006,351.09094000000005 236.51134000000005,351.09094000000005 C 235.71134000000004,351.09094000000005 234.81134000000006,351.09094000000005 233.94734000000005,351.09094000000005 C 232.99051000000006,351.09094000000005 232.11134000000004,351.09094000000005 231.21133000000006,351.09094000000005 C 230.31266000000005,351.09094000000005 229.29930000000007,350.82638000000003 228.63267000000005,351.31228000000004 C 227.93002000000004,351.82443000000006 227.35900000000004,352.45037 226.71133000000006,352.80694000000005 C 225.84767000000005,353.28243000000003 225.51200000000006,353.89227000000005 225.51133000000007,354.79095000000007 C 225.51066000000006,355.69094000000007 225.17672000000007,356.66064000000006 225.52200000000008,357.48028000000005 C 225.83165000000008,358.21533000000005 226.50561000000008,357.27285000000006 227.31266000000008,357.0922800000001 C 228.18964000000008,356.89605000000006 229.11134000000007,357.09094000000005 230.01133000000007,357.09094000000005 C 230.91132000000007,357.09094000000005 231.81133000000008,357.09094000000005 232.71000000000006,357.09094000000005 C 233.59533000000008,357.09094000000005 234.18066000000007,356.54254000000003 234.86849000000007,356.14810000000006 C 235.68790000000007,355.67822000000007 236.71132000000006,356.09094000000005 237.61133000000007,356.09094000000005 C 238.51132000000007,356.09094000000005 239.31153000000006,356.10968 240.21132000000006,356.09094000000005 C 241.07588000000007,356.07293000000004 241.55528000000007,355.23669000000007 242.31265000000005,355.0922800000001 C 243.20982000000004,354.9212300000001 244.12199000000004,355.09094000000005 245.01132000000004,355.09094000000005 C 245.91131000000004,355.09094000000005 246.81132000000005,355.09094000000005 247.71132000000003,355.09094000000005 C 248.61133000000004,355.09094000000005 249.51132000000004,355.09094000000005 250.26849000000004,355.09094000000005 C 251.16398000000004,355.09094000000005 252.02732000000003,355.09094000000005 253.06465000000003,355.09094000000005 C 253.94733000000002,355.09094000000005 254.81785000000002,354.98398000000003 255.71132000000003,355.0922800000001 C 256.63109000000003,355.20376000000005 257.16542000000004,355.90078000000005 258.11131,356.08026000000007 C 258.99559,356.2480500000001 259.97749,355.95563000000004 260.71132,356.37628000000007 C 261.39787,356.76983000000007 261.96867,357.65207000000004 262.81133,358.03827000000007 C 263.58007,358.39056000000005 264.38039,358.67795000000007 265.11132,359.1522800000001 C 265.9092,359.67007000000007 266.04656,360.6713500000001 267.03216,361.04928000000007 C 267.78045,361.3362400000001 268.83569,360.99163000000004 269.40599999999995,361.7962600000001 C 269.8549699999999,362.4296800000001 270.37569999999994,362.9859600000001 271.34466,363.0909400000001 C 272.10391,363.1731800000001 272.70162,363.9475100000001 273.01131999999996,364.5909400000001 C 273.49620999999996,365.5983600000001 274.17508,365.9935000000001 274.91133999999994,366.5269400000001 C 275.6923499999999,367.0928300000001 276.3661399999999,367.7605200000001 276.51131999999996,366.9909300000001 C 276.67815999999993,366.1065300000001 276.51131999999996,365.2909500000001 276.51131999999996,364.3909200000001 C 276.51131999999996,363.4909300000001 276.51195999999993,362.5909300000001 276.51131999999996,361.7015900000001 C 276.51064999999994,360.8069400000001 275.84526999999997,360.2821300000001 275.53216,359.5700900000001 C 275.18231,358.7745600000001 274.90209,358.4743000000001 274.03216,358.0700900000001 C 273.34927,357.7528000000001 273.67028,356.4638900000001 273.15416999999997,355.7954300000001 C 272.57707999999997,355.04799000000014 271.47207,355.2673800000001 270.71133,355.00560000000013 C 269.93176,354.7373500000001 269.37823,353.7898100000001 268.75417999999996,353.4481000000001 C 267.92456,352.99382000000014 266.96799,353.0682200000001 266.14734,352.6656000000001 C 265.27768,352.2389300000001 264.28641,352.3472100000001 263.63266,351.8695800000001 C 262.93361999999996,351.3588700000001 262.22033999999996,351.0909200000001 262.22033999999996,351.0909200000001 C 263.11132999999995,351.0909200000001 264.01133,351.0909200000001 264.91134999999997,351.0909200000001 C 265.81582999999995,351.0909200000001 266.67801,351.0909200000001 267.51133,351.0909200000001 C 268.48985,351.0909200000001 269.31001,351.0909200000001 270.21134,351.0909200000001 C 271.11133,351.0909200000001 271.98697,350.9723000000001 272.564,350.4435800000001 C 273.25531,349.8101600000001 273.72303,349.1191800000001 274.086,348.4909100000001 C 274.57456,347.6452700000001 275.40610000000004,347.1098400000001 275.45401000000004,346.2402400000001 C 275.50140000000005,345.3801600000001 274.48883000000006,345.16120000000006 273.53284,345.0907600000001 C 272.71051,345.0301500000001 272.00186,344.5123300000001 271.17801000000003,344.0909100000001 C 270.29080000000005,343.63708000000014 269.53101000000004,343.38733000000013 268.65433,343.2124000000001 C 267.72467,343.0269100000001 266.81134000000003,343.0909100000001 265.91135,343.0909100000001 C 265.01133000000004,343.0909100000001 264.08814,343.3334000000001 263.22733000000005,343.0895700000001 C 262.44761000000005,342.8687100000001 261.77936000000005,342.2150000000001 261.51584,341.4435700000001 C 261.22675000000004,340.59726000000006 261.51132,339.60690000000005 261.51132,338.9162300000001 C 261.51132,337.8480800000001 261.51132,336.9909100000001 261.51132,336.0909100000001 C 261.51132,335.29092000000014 261.51132,334.3909000000001 261.51132,333.4909000000001 C 261.51132,332.5909100000001 261.51132,331.70156000000014 261.51132,330.73373000000015 C 261.51132,329.89090000000016 261.51132,328.9909000000001 261.51132,328.0909100000002 C 261.51132,327.2909200000002 261.51132,326.39090000000016 261.45416,325.4480900000002 L 260.79535,325.0069000000002" fill="none" id="svg_18" stroke="#000" stroke-width="2"/>
</svg>
