<?xml version="1.0" ?>
<svg baseProfile="full" height="480" version="1.1" width="640" xmlns="http://www.w3.org/2000/svg" xmlns:ev="http://www.w3.org/2001/xml-events" xmlns:xlink="http://www.w3.org/1999/xlink">
	<defs/>
	<path d="M 277.0,261.89999 C 275.29999,261.89999 274.39999,261.89999 273.5,261.89999 C 272.60001,261.89999 271.70001,261.89999 270.79999,261.89999 C 269.9,261.89999 268.80334999999997,262.11505 268.12116,261.67868 C 267.39164,261.21204 266.81473,260.90533 265.88534999999996,260.89999 C 264.89987999999994,260.89431 264.11465999999996,260.89999 263.17465999999996,260.89999 C 262.48402,260.89999 261.41067999999996,260.89999 260.50001,260.89999 C 259.60002,260.89999 258.54048,260.71786000000003 258.02533999999997,261.33599 C 257.49766,261.9692 257.42924,263.06216 256.83335,263.73332999999997 C 256.29505,264.33964999999995 256.18134,265.05346 255.83333,265.89998999999995 C 255.55743999999999,266.57106999999996 255.12399,267.46782999999994 254.64283999999998,268.20000999999996 C 254.12090999999998,268.99422999999996 253.52412999999999,269.55251999999996 253.02532999999997,270.28932999999995 C 252.57377999999997,270.95637999999997 252.10633999999996,271.51906999999994 251.97916999999998,272.42082999999997 C 251.86391999999998,273.23803 251.44401,274.11062 250.89998999999997,274.8785 C 250.44365999999997,275.52259999999995 249.53423999999998,276.0974 249.16666999999998,276.89997999999997 C 248.82650999999998,277.64272 248.94284,278.59999 248.49999999999997,279.39997999999997 C 248.05715999999998,280.2 248.15351999999996,281.14844999999997 247.83332999999996,281.89997999999997 C 247.50048999999996,282.68116999999995 246.84499999999997,283.33353999999997 246.35265999999996,283.95264999999995 C 245.83791999999997,284.59993 245.94283999999996,285.59998999999993 245.49999999999997,286.39997999999997 C 245.05715999999998,287.2 244.99999999999997,287.99998999999997 244.99999999999997,288.89997999999997 L 244.77866999999998,289.77864 L 244.08532999999997,290.18532 L 243.99999999999997,291.09999" fill="none" id="svg_21" stroke="#000" stroke-width="2"/>
</svg>
