<?xml version="1.0" ?>
<svg baseProfile="full" height="480" version="1.1" width="640" xmlns="http://www.w3.org/2000/svg" xmlns:ev="http://www.w3.org/2001/xml-events" xmlns:xlink="http://www.w3.org/1999/xlink">
	<defs/>
	<path d="M 281.5,307.0 C 281.5,308.79999 281.5,309.70001 281.5,310.60001 C 281.5,311.5 281.5,312.4 281.5,313.29999 C 281.5,314.20000999999996 281.22589,315.23830999999996 281.72134,315.87865999999997 C 282.21322,316.51437 282.5,317.20000999999996 282.5,318.09999999999997 C 282.5,318.99998999999997 282.5,319.75717 282.5,320.65266999999994 C 282.5,321.51597999999996 282.20401,322.53230999999994 282.51068,323.3893299999999 C 282.77432,324.1260899999999 283.4953,324.6105799999999 283.5,325.52082999999993 C 283.50497,326.4826499999999 283.68137,327.5873899999999 282.88934,327.97864999999996 C 282.09176,328.37265999999994 281.1,327.99997999999994 280.20001,327.99997999999994 C 279.29999000000004,327.99997999999994 278.39999,327.99997999999994 277.5,327.99997999999994 C 276.70001,327.99997999999994 275.79999,327.99997999999994 274.89999,327.99997999999994 C 274.0,327.99997999999994 272.9815,327.88733999999994 272.5,328.52081999999996 C 271.98248,329.20169999999996 271.62149,330.09997999999996 271.5,330.99997999999994 L 271.66666,331.83331999999996 L 272.38666,331.99862999999993" fill="none" id="svg_15" stroke="#000" stroke-width="2"/>
</svg>
