<?xml version="1.0" ?>
<svg baseProfile="full" height="480" version="1.1" width="640" xmlns="http://www.w3.org/2000/svg" xmlns:ev="http://www.w3.org/2001/xml-events" xmlns:xlink="http://www.w3.org/1999/xlink">
	<defs/>
	<path d="M 287.0,213.0 C 287.0,215.78934 287.0,216.51466 287.0,217.47917 C 287.0,218.39999 287.0,219.3 287.0,220.20000000000002 C 287.0,221.10001000000003 287.0,222.00000000000003 287.0,222.80001000000001 C 287.0,223.70000000000002 287.32394,224.67017 286.97916,225.47918 C 286.63061999999996,226.29694 286.01801,226.86083000000002 286.0,227.83334000000002 C 285.98599,228.58923000000001 286.00226,229.50001000000003 286.0,230.40001 C 285.99774,231.29553 285.27441,231.87395 285.01068,232.61069 C 284.71094,233.44805 285.0,234.40001 285.0,235.30002000000002 C 285.0,236.20001000000002 284.81863,237.15351 285.16666,238.00002 C 285.44257,238.67112 286.05005,239.43096 286.57468,240.02535 C 287.14255,240.66875000000002 287.95444,240.9125 288.564,241.61069 C 289.14597000000003,242.27727000000002 288.74643000000003,243.56705 289.43601,243.96402 C 290.18174,244.39331 290.79053,244.54454 291.35718,245.29552 C 291.862,245.96457 292.68509,246.18058000000002 293.02085000000005,247.02085000000002 C 293.40913000000006,247.99251000000004 293.99427000000003,248.52235000000002 294.83335000000005,248.83335000000002 C 295.6913200000001,249.15136 296.28098000000006,249.67956000000004 297.00001000000003,250.33335000000002 C 297.48539000000005,250.77470000000002 297.74949000000004,251.85976000000002 298.02534,252.58936000000003 C 298.34336,253.43049000000002 299.26435000000004,253.76464 300.00001000000003,254.16669000000002 C 300.73548000000005,254.56865000000002 301.15501,255.43357 301.64735,256.05269000000004 C 302.16206,256.69997000000006 302.21559,257.54845000000006 302.83335,258.16667000000007 C 303.45191,258.78569000000005 304.128,259.18867000000006 304.70002,259.7045100000001 C 305.42722,260.3603000000001 305.76481,261.2992400000001 306.284,261.9160000000001 C 306.84078999999997,262.5774100000001 307.16812,263.3626600000001 308.0,263.8333600000001 C 308.63846,264.1946000000001 309.50516,264.51558000000006 310.20001,265.2000300000001 C 310.70376000000005,265.6962500000001 311.29703,266.5975200000001 312.20001,266.91469000000006 C 313.05295,267.2142800000001 314.0,267.00002000000006 314.79999000000004,267.00002000000006 C 315.63599000000005,267.00002000000006 316.65268000000003,266.99636000000004 317.34732,267.00002000000006 C 318.36404000000005,267.00536000000005 319.10721,267.45299000000006 320.0,267.8333600000001 C 320.75153,268.1535500000001 321.70001,268.00002000000006 322.60001,268.00002000000006 C 323.5,268.00002000000006 324.30451,268.00002000000006 325.32132,268.00002000000006 C 326.0,268.00002000000006 326.97849,268.00002000000006 328.0,268.00002000000006 C 328.79999,268.00002000000006 329.70001,268.00002000000006 330.60001,268.00002000000006 L 331.5,268.00002000000006 L 332.39999,268.00002000000006" fill="none" id="svg_15" stroke="#000" stroke-width="2"/>
</svg>
