<?xml version="1.0" ?>
<svg baseProfile="full" height="480" version="1.1" width="640" xmlns="http://www.w3.org/2000/svg" xmlns:ev="http://www.w3.org/2001/xml-events" xmlns:xlink="http://www.w3.org/1999/xlink">
	<defs/>
	<path d="M 347.0,307.0 C 347.0,308.79999 347.00195,309.61963 346.57468,310.39999 C 346.1243,311.22259 346.18329,312.15426 345.83335,313.0 C 345.50867,313.78464 345.06528,314.53207 344.64735,315.29999 C 344.18965000000003,316.14096 343.87654000000003,316.77709999999996 343.42533000000003,317.60001 C 342.99760000000003,318.38013 343.19807000000003,319.32239 342.99866000000003,320.19867 C 342.81562,321.00296 341.63855,320.84508999999997 340.90000000000003,321.2215 C 340.21372,321.57126 339.49451000000005,322.33463 339.08402,323.20002 C 338.72474,323.95747 338.30015000000003,324.59599 338.08533,325.48402 C 337.88147,326.32678999999996 338.0,327.36402 338.0,328.20002 C 338.0,329.10001 338.0,330.00001 338.0,330.8 C 338.0,331.70002 337.99704,332.81563 338.80133,332.99867 C 339.67761,333.19807000000003 340.76868,333.05815 340.99551,332.29551 C 341.25082000000003,331.43717 340.99774,330.50001 341.0,329.60001 C 341.00226,328.7045 341.67334,328.17847 341.98932,327.38935 C 342.31238,326.58256 342.62726000000004,326.0059 343.40000000000003,325.57468 C 344.21894000000003,325.11768 345.22492000000005,325.25626 345.87867000000006,324.77866 C 346.57774000000006,324.26795 347.47965000000005,323.67466 347.9428500000001,324.35718 C 348.4172200000001,325.05619 348.0000100000001,326.10001000000005 348.0000100000001,327.0 C 348.0000100000001,327.79999 347.52958000000007,328.85938 348.0571700000001,329.64282 C 348.5179200000001,330.32701999999995 349.8134000000001,330.39336999999995 350.5640100000001,329.96398999999997 C 351.2546500000001,329.56890999999996 351.0000100000001,328.39998999999995 351.0000100000001,327.49999999999994 C 351.0000100000001,326.60000999999994 351.0000100000001,325.70000999999996 351.0000100000001,324.7999899999999 C 351.0000100000001,323.8999999999999 351.4342800000001,322.7675799999999 350.8333500000001,322.1666599999999 C 350.23243000000014,321.56573999999995 349.06965000000014,322.3929799999999 348.2853500000001,321.9146799999999 C 347.4817000000001,321.42459999999994 346.8956100000001,321.08868999999993 346.0000100000001,321.0000099999999 C 345.15431000000007,320.91626999999994 345.0000100000001,320.0000099999999 345.0000100000001,319.20001999999994 C 345.0000100000001,318.29999999999995 344.9976000000001,317.38012999999995 345.4253300000001,316.60000999999994 C 345.87653000000006,315.77709999999996 346.1920800000001,314.8750999999999 346.7045000000001,314.2999899999999 C 347.26474000000013,313.6712099999999 347.8501300000001,312.89568999999995 348.0000000000001,311.99999999999994 C 348.1402300000001,311.16179999999997 348.9146700000001,310.7146599999999 349.0000000000001,309.89998999999995 L 349.0000000000001,308.99999999999994 L 349.2213400000001,308.1213399999999" fill="none" id="svg_19" stroke="#000" stroke-width="2"/>
</svg>
