<?xml version="1.0" ?>
<svg baseProfile="full" height="480" version="1.1" width="640" xmlns="http://www.w3.org/2000/svg" xmlns:ev="http://www.w3.org/2001/xml-events" xmlns:xlink="http://www.w3.org/1999/xlink">
	<defs/>
	<path d="M 148.0,230.0 C 145.3645,240.77133 145.24738,241.48964 145.17149,242.166 C 145.09985,242.80447 145.04768,243.41615 145.0135,244.58733 C 144.99671999999998,245.16251 145.0,246.94268 145.0,247.568 C 145.0,248.20534 145.0,248.85067 145.0,250.14934000000002 C 145.0,250.79466000000002 145.0,251.43201000000002 145.0,252.66667 C 145.0,253.83333000000002 145.0,254.39917 145.0,255.52083000000002 C 145.0,256.08667 144.9993,256.66251 145.0,258.5 C 145.00026,259.16434 144.99974,259.85474 145.0135,260.56699 C 145.02760999999998,261.29742999999996 145.0538,262.04224 145.108,262.79598999999996 C 145.16272,263.55700999999993 145.21242,264.32631999999995 145.5,265.83333999999996 C 145.64311,266.58324999999996 146.06651,268.05501999999996 146.31866,268.78533999999996 C 146.57377,269.52419999999995 146.86314,270.26331 147.17067,271.00982999999997 C 147.48439,271.77139999999997 148.16605,273.33361999999994 148.5215,274.14282999999995 C 148.88469,274.96960999999993 149.25616,275.81030999999996 149.636,276.66134999999997 C 150.0198,277.5213 150.40923999999998,278.38599 150.8045,279.25183 C 151.19992,280.11798 151.99801,281.83429 152.40016,282.67868 C 152.79938,283.51694 153.2025,284.3483 153.61067,285.17465 C 154.01883,286.00097 154.43403,286.82635 154.85716,287.65268 C 155.28337,288.48501999999996 156.16469,290.16772999999995 156.62181999999999,291.02182 C 157.08598999999998,291.88907 157.56378999999998,292.76749 158.05731999999998,293.65735 C 158.56007999999997,294.56384 159.07998999999998,295.48419 159.61882999999997,296.41882 C 160.16928,297.37359 161.33040999999997,299.33511 161.94315999999998,300.34297999999995 C 162.56904999999998,301.37245999999993 163.21582999999998,302.41621999999995 163.88266,303.47198 C 164.55947999999998,304.54357 165.25734,305.62133 165.96616999999998,306.70901 L 166.688,307.80267" fill="none" id="svg_16" stroke="#000" stroke-width="2"/>
</svg>
