<?xml version="1.0" ?>
<svg baseProfile="full" height="480" version="1.1" width="640" xmlns="http://www.w3.org/2000/svg" xmlns:ev="http://www.w3.org/2001/xml-events" xmlns:xlink="http://www.w3.org/1999/xlink">
	<defs/>
	<path d="M 348.5,142.89999 C 349.7215,142.0215 350.60001,141.89999 351.5,141.89999 C 352.29999,141.89999 353.16959,141.78956 353.58401,141.09866 C 354.06075999999996,140.30386 355.01372999999995,140.03851 355.5,139.37915999999998 C 356.00873,138.68934 356.42462,137.80709 357.10001,137.33598999999998 C 357.83359,136.8243 358.9491,136.72669 359.47467,137.33598999999998 C 360.08914,138.04835999999997 360.75937,138.37663999999998 361.33334,139.06665999999998 C 361.8768,139.72000999999997 361.10702000000003,140.83034999999998 361.58532,141.61466 C 362.0754,142.41831 362.49999,142.99999 362.49999,143.89998 C 362.49999,144.69998 362.45015,145.53743 362.50448,146.54816 C 362.54669,147.3337 363.77889,148.15651 363.2785,148.77849 C 362.72256,149.46948 361.5,148.89998 360.70001,148.89998 C 359.79999000000004,148.89998 358.88016000000005,149.06819 358.0,148.87915 C 357.15558,148.69778000000002 356.72964,147.75862 356.41599,147.09999000000002 C 356.01703000000003,146.26221 355.11973,145.91458000000003 354.5,145.39998000000003 C 353.89798,144.90007000000003 352.936,144.86398000000003 352.44733,144.25266000000002 L 351.66666000000004,143.73333000000002 L 351.50000000000006,142.89999000000003" fill="none" id="svg_16" stroke="#000" stroke-width="2"/>
</svg>
