<?xml version="1.0" ?>
<svg baseProfile="full" height="480" version="1.1" width="640" xmlns="http://www.w3.org/2000/svg" xmlns:ev="http://www.w3.org/2001/xml-events" xmlns:xlink="http://www.w3.org/1999/xlink">
	<defs/>
	<path d="M 267.0,296.0 C 265.328,296.07199 264.45123,296.43286 263.73868,296.86133 C 262.94140999999996,297.34076 262.17807,297.85388 261.46166999999997,298.23834 C 260.67355,298.66128 259.72986,298.90643 258.94534,299.16934 C 257.92129,299.51250999999996 257.28137,299.87206999999995 256.53201,300.22134 C 256.12933000000004,300.40902 254.83450000000002,301.00271 253.91732000000002,301.39999 C 253.45242000000002,301.60138 252.51972,301.99746 252.06133000000003,302.20001 C 251.16713000000001,302.59509 249.93732000000003,303.18936 249.21882000000002,303.59549000000004 C 248.55699,303.96957000000003 247.97851000000003,304.36359000000004 246.92166000000003,304.97833 C 246.25421000000003,305.36657 245.33404000000004,305.39966000000004 244.44667000000004,306.02533000000005 C 243.75772000000003,306.51111000000003 243.51215000000005,307.53510000000006 242.79733000000004,307.9186700000001 C 242.05867000000003,308.3150300000001 241.22494000000003,308.8456100000001 240.74933000000004,309.28665000000007 C 239.99396000000004,309.9870900000001 239.33333000000005,310.66665000000006 238.67200000000005,311.3280000000001 C 238.00000000000006,312.0000000000001 237.51792000000006,312.5184300000001 236.79866000000004,313.2000100000001 C 236.25598000000005,313.7142600000001 235.27228000000005,314.2087700000001 234.70984000000004,314.7571700000001 C 234.06131000000005,315.3894900000001 234.07373000000004,316.3988900000001 233.64284000000004,317.24734000000007 C 233.29132000000004,317.93948000000006 232.70450000000002,318.65267000000006 232.35716000000002,319.3473200000001 L 232.02533000000003,320.36401000000006 L 231.71466000000004,321.2000100000001 L 231.19867000000005,321.7999900000001" fill="none" id="svg_19" stroke="#000" stroke-width="2"/>
</svg>
