<?xml version="1.0" ?>
<svg baseProfile="full" height="480" version="1.1" width="640" xmlns="http://www.w3.org/2000/svg" xmlns:ev="http://www.w3.org/2001/xml-events" xmlns:xlink="http://www.w3.org/1999/xlink">
	<defs/>
	<path d="M 280.0,324.0 C 279.94284,325.70001 279.54651,326.52802 279.05267,327.2955 C 278.60461,327.99185 277.61064999999996,328.01068 277.0,328.5 C 276.38934,328.98932 275.5,328.99777 274.60001,329.0 C 273.70002,329.00226 272.96875,329.33691 272.20002,329.716 C 271.35477,330.13284 270.38081,329.83480000000003 269.50001,330.02084 C 268.65263,330.19983 267.90763,330.93783 267.20002,330.99865 C 266.30329,331.07574 265.39997,330.99465 264.50001,330.99999 C 263.59995999999995,331.00533 262.74237999999997,331.44143 262.11465999999996,331.71599000000003 C 261.21200999999996,332.11080000000004 260.38214999999997,332.02895 259.40451999999993,332.35265000000004 C 258.64188999999993,332.60515000000004 257.7076199999999,332.87291000000005 257.0253399999999,333.42531 C 256.36585999999994,333.95925 255.93744999999993,334.63082 255.1986799999999,335.084 C 254.51129999999992,335.50566 254.1836999999999,336.49318 253.7160099999999,337.00133 C 253.1794299999999,337.58431 253.5561599999999,338.0353 254.3000099999999,337.64733 C 255.1487999999999,337.20464 255.7387199999999,336.5548 256.3571799999999,336.05266 C 257.0617699999999,335.48061 257.9639299999999,335.5551 258.7146599999999,334.91597 C 259.3809799999999,334.34871000000004 260.0003999999999,334.02534 260.7999899999999,333.99998 C 261.70138999999995,333.97139 262.42254999999994,333.31443 263.2999899999999,333.05714 C 264.1654699999999,332.80336 265.05083999999994,332.69914 265.7000099999999,332.35264 C 266.5493799999999,331.8993 267.4999999999999,331.99998 268.3999899999999,331.99998 C 269.2999799999999,331.99998 270.2000099999999,331.99998 271.0999999999999,331.99998 C 271.9999899999999,331.99998 272.4738399999999,331.6999 271.6106499999999,332.01066 C 270.8468299999999,332.28565 270.4001399999999,333.15723999999994 269.8506699999999,333.59997999999996 C 269.0594099999999,334.23754999999994 268.5645399999999,334.98132999999996 267.69999999999993,334.99996999999996 C 266.80152999999996,335.01935 266.06355999999994,335.36208999999997 265.4999899999999,335.99996999999996 C 264.98448999999994,336.58347 264.3299199999999,337.10947 263.91597999999993,337.80129999999997 C 263.4401199999999,338.59664999999995 262.2672999999999,338.67316 262.28532999999993,338.99996999999996 C 262.33570999999995,339.91324 264.1012799999999,339.04776 264.9999899999999,338.99996999999996 C 265.8033699999999,338.95725 266.65388999999993,338.51743 267.3893299999999,338.02529999999996 C 268.05878999999993,337.57732999999996 268.6276699999999,337.00661999999994 269.3999799999999,336.57464999999996 C 270.2180599999999,336.11706999999996 270.73786999999993,335.38976999999994 271.4359899999999,335.03597999999994 C 272.20731999999987,334.64507999999995 273.1999999999999,334.99996999999996 274.0999899999999,334.99996999999996 C 274.9999799999999,334.99996999999996 275.60715999999985,334.51678999999996 276.2853199999999,334.08529999999996 C 277.0603699999999,333.59214 278.0999899999999,333.99996999999996 278.9999799999999,333.99996999999996 C 279.79996999999986,333.99996999999996 280.6999899999999,333.99996999999996 281.5999899999999,333.99996999999996 C 282.4999799999999,333.99996999999996 283.39997999999986,333.99996999999996 284.29996999999986,333.99996999999996 C 285.19998999999984,333.99996999999996 286.0999899999999,333.99996999999996 286.9999799999999,333.99996999999996 C 287.79996999999986,333.99996999999996 288.6999899999999,333.99996999999996 289.5999899999999,333.99996999999996 C 290.4999799999999,333.99996999999996 291.3979599999999,334.00005999999996 291.9999799999999,334.49996999999996 C 292.61969999999985,335.01455999999996 293.3103099999999,335.61807 294.1999899999999,335.91463999999996 C 295.0573199999999,336.20041 295.5576299999999,335.83108 294.9159599999999,335.28396 C 294.3024699999999,334.76088999999996 293.4180999999999,334.38674 292.5999799999999,334.02529 C 291.8142699999999,333.67814999999996 291.1207899999999,333.26072999999997 290.1853099999999,333.02529 C 289.3383599999999,332.81212 288.6944299999999,332.23028 288.0526499999999,331.6473 C 287.4733299999999,331.12104999999997 286.68011999999993,331.21074999999996 285.7786299999999,330.99980999999997 C 284.9947899999999,330.81642999999997 284.9999699999999,329.69996999999995 284.9999699999999,328.79994999999997 C 284.9999699999999,327.89995999999996 285.0270399999999,326.99949999999995 284.9999699999999,326.19996999999995 C 284.9713799999999,325.35567 284.1666299999999,324.83329999999995 283.7159699999999,324.08396999999997 L 283.05263999999994,323.64277999999996 L 282.7159699999999,322.79994999999997 L 282.2839599999999,322.19996999999995" fill="none" id="svg_17" stroke="#000" stroke-width="2"/>
</svg>
