<?xml version="1.0" ?>
<svg baseProfile="full" height="480" version="1.1" width="640" xmlns="http://www.w3.org/2000/svg" xmlns:ev="http://www.w3.org/2001/xml-events" xmlns:xlink="http://www.w3.org/1999/xlink">
	<defs/>
	<path d="M 220.0,184.0 C 219.0,184.33333 218.49875,184.81763 218.16667,185.83333 C 217.92679,186.56705 218.05119000000002,187.54242 217.7785,188.32134 C 217.46859,189.20655 216.82121,189.92874999999998 216.436,190.62534 C 215.98715,191.43699999999998 216.00225,192.34732 216.0,193.24733 C 215.9977,194.16667 216.0,195.0 216.0,195.97867 C 216.0,196.75267 216.0,197.66167 216.0,198.46167 C 216.0,199.42134 216.0,200.22532999999999 216.0,201.04733 C 216.0,202.07898999999998 216.0,203.04166999999998 216.0,203.85466 C 216.0,204.864 216.0,205.658 216.0,206.5 C 216.0,207.342 216.0,208.5 216.0,209.14534 C 216.0,209.95833000000002 216.0,211.16667 216.0,211.95267 C 216.0,212.77468000000002 215.98038,213.83373 216.0045,214.54283 C 216.03355000000002,215.39662 216.26364,216.40896 216.52083000000002,217.0 C 216.96327000000002,218.01678 217.4,218.8 217.70000000000002,219.39999 C 218.20134000000002,220.40266 218.52079,221.0417 218.88533,221.77066 C 219.32144000000002,222.6427 219.64943000000002,223.30943 220.02083000000002,224.0 C 220.39672000000002,224.69891 221.17780000000002,225.97488 221.60451,226.48567 C 222.2056,227.20518 222.67224000000002,227.61387 223.68267,228.39999 C 224.208,228.80871 225.03126,229.35664 225.66668,230.0 C 226.22416,230.56444 226.68678000000003,231.40218 227.1005,232.2005 C 227.42867,232.83374 227.85325,233.58414000000002 228.50001,234.5 C 229.03965,235.26416 229.36158,235.66681 230.04168,236.52083 C 230.39321,236.96224999999998 231.10955,237.84123 231.83334000000002,238.66666999999998 C 232.50627000000003,239.43410999999998 232.82682000000003,239.79300999999998 233.47918,240.41666999999998 C 234.08111000000002,240.99210999999997 234.98241000000002,241.69799999999998 235.89550000000003,242.19017 C 236.46882000000002,242.49921 237.34058000000002,242.84035 238.07851000000002,243.32133 C 238.79129000000003,243.78592999999998 239.36855000000003,244.38324999999998 240.20000000000002,244.97866 C 240.97635000000002,245.53461 241.62123000000003,245.8567 242.40134,246.48533 C 243.03894,246.99912 243.67185,247.61831 244.42166,248.20016 C 245.23250000000002,248.82936 245.84805,249.23402000000002 246.48666,249.68533000000002 C 247.52359,250.41815000000003 247.88452,250.68330000000003 248.62533,251.22532 C 249.37518,251.77395 250.11157,252.32218 251.17865999999998,253.07850000000002 C 251.51462999999998,253.31661000000003 252.49378,253.98907000000003 253.15265999999997,254.39549000000002 C 254.15741999999997,255.01526 254.88623999999996,255.40101 255.25716999999997,255.60899000000003 C 256.02275999999995,256.03827 256.82876,256.48001000000005 258.0,257.33334 C 258.40848,257.63095000000004 259.19495,258.30093 259.57867,258.65066 C 260.33587,259.34078 260.68734,259.69299 261.66665,260.66665 C 262.23296,261.22967 262.99221,261.98766 263.50533,262.44817 C 264.32119,263.18038 264.96309,263.68898 265.65065000000004,264.21465 C 266.34447000000006,264.74508000000003 267.02052000000003,265.24791 267.95699,265.85717 C 268.71892,266.35287 269.41829,266.71145 270.20000000000005,267.32149 C 270.82308000000006,267.80776 271.40111,268.40337 272.20000000000005,269.2 C 272.60057000000006,269.59941 273.20000000000005,270.2 273.99999,270.99998999999997 C 274.60448,271.60447999999997 275.23598000000004,272.23598 275.68532000000005,272.68532 C 276.42150000000004,273.4215 276.95714000000004,273.95714 277.52083000000005,274.52083 C 278.10448,275.10447999999997 278.99999,275.99998999999997 279.59865,276.59864999999996 C 280.18932,277.18931999999995 280.76399000000004,277.76399 281.31465000000003,278.31465 C 282.07847000000004,279.07847 282.76399000000004,279.76399 283.18931000000003,280.18931 C 283.99998000000005,280.99998 284.60032,281.61368999999996 285.27198000000004,282.23596999999995 C 285.76438,282.69214999999997 286.63959000000006,283.42474999999996 287.30082000000004,283.94816 C 287.97624,284.48283 288.64368,284.98233999999997 289.49998000000005,285.66664 C 290.14219,286.17981999999995 290.78138000000007,286.72841 291.5433100000001,287.10033 C 292.27643000000006,287.45817999999997 293.23264000000006,287.79479 294.33332000000007,288.33333 C 294.74628000000007,288.53539 295.6056900000001,289.00466 296.05064000000004,289.25066 C 296.95008000000007,289.74793999999997 297.82454000000007,290.24656999999996 298.66664000000003,290.66665 C 299.42287000000005,291.04388 300.13411,291.32455 301.09099000000003,291.74816 C 302.00603,292.15324999999996 302.90438000000006,292.64997999999997 303.49999,293.02083 C 304.10454000000004,293.39726 304.99367,294.00969 305.8955,294.59099 C 306.47515000000004,294.96461999999997 307.00765,295.37215 308.07848,295.75730999999996 C 308.95623,296.07300999999995 310.0172,296.30699 310.60448,296.70982 C 311.25637,297.15695999999997 312.15731,297.85114999999996 312.68532000000005,298.11598 C 313.50725000000006,298.52821 314.12316000000004,298.71492 315.29982000000007,299.32129999999995 C 315.9057200000001,299.63355999999993 316.7612200000001,300.17918 317.3146500000001,300.5159699999999 C 318.3097100000001,301.12152999999995 318.9499600000001,301.55011999999994 319.9999800000001,301.8333199999999 C 320.7843100000001,302.0448699999999 321.6175300000001,302.0261299999999 322.6044700000001,302.3571499999999 C 323.24961000000013,302.5735499999999 324.1603500000001,303.0173099999999 324.9526500000001,303.29546999999985 C 325.76854000000014,303.58193999999986 326.8290500000001,303.8658399999999 327.5428300000001,303.94280999999984 C 328.3922000000001,304.03438999999986 329.4065100000001,303.92132999999984 330.1639800000001,304.0359799999998 C 331.1353900000001,304.1830099999998 331.7673100000001,304.85180999999983 332.69999000000007,304.9954799999998 C 333.58952000000005,305.1324999999998 334.53773000000007,304.9625199999998 335.32130000000006,305.2213099999998 C 336.19828000000007,305.5109499999998 336.9784700000001,305.8784799999998 337.79866000000004,305.9986199999998 L 338.70000000000005,305.9999599999998 L 339.59999000000005,305.9999599999998" fill="none" id="svg_18" stroke="#000" stroke-width="2"/>
</svg>
