<?xml version="1.0" ?>
<svg baseProfile="full" height="480" version="1.1" width="640" xmlns="http://www.w3.org/2000/svg" xmlns:ev="http://www.w3.org/2001/xml-events" xmlns:xlink="http://www.w3.org/1999/xlink">
	<defs/>
	<path d="M 204.5,164.89999 C 205.5,163.89999 205.60608,163.11189000000002 206.0,162.39999 C 206.49025,161.51402000000002 206.5,160.6 206.5,159.69999 C 206.5,158.79983000000001 206.5,158.01466000000002 206.5,157.07465000000002 C 206.5,156.38399 206.43755,155.13729 207.2045,154.90448 C 208.06142,154.64438 209.0,154.89998 209.9,154.89998 C 210.80001000000001,154.89998 211.70000000000002,154.89998 212.60001,154.89998 C 213.5,154.89998 214.3385,154.69055 215.2,154.95715 C 216.06617,155.2252 216.47133,156.19862 216.5,157.09999000000002 C 216.52863,157.99953000000002 216.7117,158.87172 217.07466,159.49998000000002 C 217.56323,160.34565000000003 218.04291,160.83297000000002 217.55267,161.25265000000002 C 216.90745,161.805 216.06517,161.6571 215.20449,161.90447 C 214.43659,162.12519 213.89750999999998,162.5315 213.02082,162.92081000000002 C 212.30992999999998,163.2365 211.79548999999997,163.89548000000002 210.89998999999997,163.89997000000002 L 209.99999999999997,163.89997000000002 L 209.10000999999997,163.89997000000002 L 208.19999999999996,163.89997000000002" fill="none" id="svg_18" stroke="#000" stroke-width="2"/>
</svg>
