<?xml version="1.0" ?>
<svg baseProfile="full" height="480" version="1.1" width="640" xmlns="http://www.w3.org/2000/svg" xmlns:ev="http://www.w3.org/2001/xml-events" xmlns:xlink="http://www.w3.org/1999/xlink">
	<defs/>
	<path d="M 258.5,175.89999 C 259.38666,174.90133 260.32535,174.89999 261.01599,174.89999 C 262.08932,174.89999 263.0,174.89999 263.89999,174.89999 C 264.79998,174.89999 265.70001,174.89999 266.6,174.89999 C 267.49999,174.89999 268.25717000000003,174.89999 269.15267,174.89999 C 270.01598,174.89999 270.97915,174.89999 271.89998,174.89999 C 272.79997000000003,174.89999 273.80003000000005,174.73794 274.44731,175.25267 C 275.06642,175.74499 275.71876000000003,176.40051 276.49998,176.73334 C 277.25151,177.05353 278.20094,176.95544999999998 278.99998,177.4 C 279.80093999999997,177.84562 280.62995,178.08649 281.19999,178.60451 C 281.93031,179.26818 282.26508,180.08371 282.49998,180.87917000000002 C 282.7783,181.82164 283.56669,182.36956 284.02082,182.9 C 284.62446,183.60508000000002 285.58796,183.73331000000002 286.33332,184.23334 C 287.1041,184.75043 287.47605,185.6184 288.25715,185.94817 C 289.12989000000005,186.31664 289.88566000000003,186.54963 290.61463000000003,187.10001 C 291.34077,187.64827 291.9943,188.38839 292.69864,188.816 C 293.44144,189.26697000000001 293.88605,190.03837000000001 294.21597,190.7 C 294.63653000000005,191.54336999999998 294.59662000000003,192.49247 295.20446000000004,193.00984 C 295.84576000000004,193.55569 296.25991000000005,194.39137 297.09997000000004,194.91467 C 297.86740000000003,195.39273 298.59710000000007,195.82167 299.06396000000007,196.5 C 299.63095000000004,197.32379 299.96191000000005,198.13638 300.33331000000004,198.89999 C 300.70001,199.6539 301.04980000000006,200.40063 301.60013000000004,201.22132 C 302.04483000000005,201.8845 302.66257,202.73819999999998 303.32532000000003,203.28533 C 303.84415,203.71365999999998 304.47977000000003,204.44210999999999 304.88532000000004,205.15066 C 305.31083,205.89407999999997 306.01841,206.79576999999998 306.76130000000006,207.23865999999998 C 307.2700300000001,207.54193999999998 308.3719300000001,208.01581 309.0383100000001,208.56166 C 309.69493000000006,209.09951999999998 310.0710200000001,209.55402999999998 310.6146300000001,210.58266999999998 C 311.0239000000001,211.35710999999998 311.2049600000001,212.18603 311.7999600000001,213.08566 C 312.2357800000001,213.74461 312.9543800000001,214.46259999999998 313.6999800000001,214.81599 C 314.5586800000001,215.22299 315.1138000000001,215.61744 315.5253000000001,216.5 C 315.90933000000007,217.32362 316.5312200000001,218.04916 316.8893100000001,218.72534 C 317.2466100000001,219.40000999999998 317.43680000000006,220.45114999999998 318.0679600000001,221.10266 C 318.5878300000001,221.63927999999999 319.2968400000001,222.43395999999998 319.4386300000001,223.16133 C 319.5913400000001,223.94462 319.67493000000013,224.99533 320.0208100000001,225.87915999999998 C 320.2686400000001,226.51244999999997 320.7694400000001,227.51263999999998 321.1999800000001,228.24282 C 321.6676300000001,229.03597 322.1999800000001,229.65266 322.69864000000007,230.38398999999998 L 323.06397000000004,231.07465 L 323.44282000000004,232.14283 L 323.49998000000005,232.99999" fill="none" id="svg_17" stroke="#000" stroke-width="2"/>
</svg>
