<?xml version="1.0" ?>
<svg baseProfile="full" height="480" version="1.1" width="640" xmlns="http://www.w3.org/2000/svg" xmlns:ev="http://www.w3.org/2001/xml-events" xmlns:xlink="http://www.w3.org/1999/xlink">
	<defs/>
	<path d="M 294.01334,371.02252 C 291.05616000000003,370.44133999999997 290.47599,370.54341999999997 289.612,370.91051999999996 C 288.69403,371.30053 287.82657,371.83547999999996 287.28534,372.19719999999995 C 286.33194000000003,372.83437999999995 285.73804,373.50740999999994 284.84665,373.85585999999995 C 284.19769,374.10952 283.29404,374.11897999999997 282.336,374.59184999999997 C 281.82092,374.84608999999995 280.85452000000004,375.67947 281.39734,376.39718 C 281.81064,376.94365999999997 282.85739,377.48177 282.98132,378.1972 C 283.16681,379.26788 283.01333,379.94668 283.01333,381.00836 C 283.01333,381.7467 283.01333,382.58502 283.01333,383.48337 C 283.01333,383.94253999999995 282.99978,385.30044999999996 283.02233,386.14284999999995 C 283.04253,386.89795 283.00378,388.37059999999997 284.03414000000004,388.37667999999996 C 284.63112,388.38018999999997 285.13805,387.25759999999997 285.51333000000005,386.50167999999996 C 285.90652000000006,385.70968999999997 286.49453000000005,384.70440999999994 287.01333000000005,384.02252 C 287.35882000000004,383.56845 287.83087000000006,382.49408 288.3666600000001,381.87185 C 288.7886900000001,381.38177 288.9844300000001,382.29965 289.0026500000001,383.07186 C 289.0127800000001,383.50127000000003 289.01333000000005,384.85586 289.01333000000005,385.73586 C 289.01333000000005,386.57586 289.01333000000005,387.37584 289.01333000000005,388.13585 C 289.01333000000005,389.53719 289.01333000000005,390.18651 289.01333000000005,391.118 C 289.01333000000005,392.02251 289.01333000000005,392.9225 289.01333000000005,393.8225 C 289.01333000000005,394.42251 289.01333000000005,395.61718 289.01333000000005,396.43917 C 289.01333000000005,397.43636 289.01333000000005,396.70068 289.01333000000005,395.96001 C 289.01333000000005,394.68917 289.00115000000005,394.05263 289.03466000000003,393.36116 C 289.06979,392.63624999999996 289.31652,391.17796 289.58266000000003,390.50782999999996 C 289.84545,389.84614999999997 290.22982,389.24934999999994 290.84664000000004,388.02250999999995 C 291.14458,387.42992 291.50359000000003,386.51829999999995 291.76598,385.92249999999996 C 292.16527,385.01588 292.66747000000004,384.13035999999994 292.99248,383.54335 C 293.4525,382.71250999999995 293.88835,381.71205 293.97164,381.00165999999996 C 294.05892,380.25728 294.00307,379.0569 294.02398,378.39316999999994 C 294.05395,377.44150999999994 294.24923,376.12012999999996 294.89999,376.11316999999997 C 295.89776,376.10251999999997 296.5549,376.94795 296.84399,377.79184999999995 C 297.09225000000004,378.51651999999996 297.01797,379.35972 297.36599,380.56082999999995 C 297.54794,381.18881999999996 297.85699,382.16519999999997 298.18264,382.99182999999994 C 298.51092,383.82510999999994 299.04348,384.5588199999999 299.36517,385.13150999999993 C 299.86116999999996,386.0145099999999 299.74215,387.5676699999999 300.65166999999997,387.72232999999994 C 301.0762,387.79449999999997 301.00670999999994,386.51187999999996 301.01198999999997,385.72781999999995 C 301.01784999999995,384.8558699999999 301.01333,383.93850999999995 301.01333,382.9971699999999 C 301.01333,382.0478299999999 301.01333,381.5751699999999 301.01333,380.1891599999999 C 301.01333,379.3064999999999 301.01333,378.4478299999999 301.01333,377.5971799999999 C 301.01333,377.1698399999999 301.01333,375.8558499999999 301.01333,374.9398299999999 C 301.01333,374.0078199999999 301.01333,373.5433499999999 301.01333,372.6323299999999 C 301.01333,371.3558399999999 301.01599,370.5958299999999 301.05499,369.6058399999999 L 301.18399,368.7958399999999 L 301.58133,367.98782999999986 L 302.16265999999996,367.29983999999985" fill="none" id="svg_23" stroke="#000" stroke-width="2"/>
</svg>
