<?xml version="1.0" ?>
<svg baseProfile="full" height="480" version="1.1" width="640" xmlns="http://www.w3.org/2000/svg" xmlns:ev="http://www.w3.org/2001/xml-events" xmlns:xlink="http://www.w3.org/1999/xlink">
	<defs/>
	<path d="M 408.5,148.89999 C 409.07468,147.3 409.48199,146.50053 409.5,145.6 C 409.51801,144.70016999999999 409.5,143.79999999999998 409.5,142.89999 C 409.5,142.1 409.6633,140.77244 410.37866,141.12133 C 411.16018,141.50249 411.72189000000003,142.16093 412.29999000000004,142.70133 C 412.92472000000004,143.2853 413.50687000000005,144.06254 413.90000000000003,144.72533 C 414.30717000000004,145.41179000000002 414.86619,146.32097000000002 415.66666000000004,146.89998000000003 C 416.28369000000004,147.3463 417.16138,147.90289 417.54816000000005,148.59999000000002 C 417.99393000000003,149.40338000000003 418.26374000000004,150.16705000000002 418.72150000000005,150.99998000000002 C 419.09247000000005,151.67501000000001 419.80445000000003,152.46804000000003 420.60001000000005,152.77848000000003 C 421.44605000000007,153.10862000000003 422.33847000000003,153.10943000000003 423.20002000000005,152.84281000000004 C 424.06617000000006,152.57477000000003 424.27375000000006,151.57264000000004 424.50135000000006,150.70132000000004 C 424.7098500000001,149.90322000000003 425.70002000000005,149.89997000000002 426.60001000000005,149.89997000000002 C 427.50000000000006,149.89997000000002 428.27744000000007,150.02427000000003 429.10001000000005,150.47465000000003 C 429.88041000000004,150.90193000000002 430.79999000000004,150.89997000000002 431.70002000000005,150.89997000000002 C 432.60001000000005,150.89997000000002 433.72398000000004,151.32567000000003 434.33335000000005,150.73331000000002 C 434.86304000000007,150.21839000000003 434.49830000000003,149.06397 434.50001000000003,148.29865 C 434.50227,147.29998 434.48805000000004,146.48171000000002 434.78401,145.50130000000001 C 435.02058,144.71756000000002 435.06807000000003,143.49916000000002 435.78535000000005,142.98531000000003 C 436.45124000000004,142.50827000000004 437.50038000000006,142.87610000000004 438.30000000000007,142.89997000000002 C 439.25847000000005,142.92856000000003 440.1618500000001,143.24728000000002 440.90452000000005,143.60448000000002 C 441.70518000000004,143.98957000000001 442.51808000000005,144.39260000000002 443.10002000000003,144.78531 C 443.92760000000004,145.34380000000002 444.42213000000004,146.00910000000002 445.50001000000003,146.56664 C 446.06358000000006,146.85814000000002 447.01469000000003,146.89864 448.00001000000003,146.89997 C 448.82133000000005,146.90108 449.67872000000006,146.98595 450.61466,146.89864 C 451.51142,146.81499 452.29621000000003,146.24054 452.48932,145.29998 C 452.66626,144.43822 453.27481,143.96337 453.49552,143.19547 C 453.7429,142.33481 453.19526,141.34221 453.51069,140.51064 C 453.78727000000003,139.78148 454.90000000000003,139.89997 455.8,139.89997 C 456.70134,139.89997 457.66667,139.89997 458.34669,139.89997 C 459.18669,139.89997 460.18269000000004,139.89997 460.97917,139.89997 C 462.16667,139.89997 462.95836,139.89997 463.8,139.89997 C 464.70002,139.89997 465.60002000000003,139.89997 466.50001000000003,139.89997 L 467.3,139.89997 L 468.20002,139.89997 L 469.10001,139.89997" fill="none" id="svg_18" stroke="#000" stroke-width="2"/>
</svg>
