<?xml version="1.0" ?>
<svg baseProfile="full" height="480" version="1.1" width="640" xmlns="http://www.w3.org/2000/svg" xmlns:ev="http://www.w3.org/2001/xml-events" xmlns:xlink="http://www.w3.org/1999/xlink">
	<defs/>
	<path d="M 357.0,165.66666 C 357.02133,163.83066 357.07224,163.00508000000002 357.71432,162.06667000000002 C 358.15792,161.41837 358.99725,160.66388 359.40267,160.26534 C 360.03737,159.64144000000002 360.50298,159.1962 361.33333,158.5 C 361.96092,157.9738 362.65233,157.43935 363.38533,156.92799 C 364.10866,156.42337 365.17223,155.7967 365.84282,155.4765 C 366.4735,155.17537 367.41042000000004,154.80736 368.29964,154.3455 C 368.89931,154.03403999999998 369.68706000000003,153.44751 370.66664000000003,153.0 C 371.45186,152.6413 372.3213,152.66666 373.17464,152.66666 C 374.11464,152.66666 375.10439,152.75534000000002 375.99999,152.66666 C 376.84569000000005,152.58292 377.32317,151.76061 378.18532000000005,151.67734000000002 C 379.1104,151.58798000000002 380.34715000000006,151.13628000000003 380.83333000000005,151.83333000000002 C 381.26723000000004,152.45542 380.12978000000004,153.11220000000003 379.99550000000005,153.96666000000002 C 379.86684,154.78552000000002 379.13872000000003,155.41328000000001 378.61064000000005,156.06667000000002 C 378.00883000000005,156.81130000000002 377.51918000000006,157.42006 376.85066000000006,157.69201 C 375.9616500000001,158.05364 376.00291000000004,159.15067000000002 375.99998000000005,159.84133 C 375.99546000000004,160.90503999999999 375.46833000000004,161.33256 374.7053,161.77651 C 373.97465,162.20164 374.12653,163.30776 373.56397000000004,164.02001 C 372.97635,164.76398 371.89997000000005,164.66666 370.99997,164.66666 C 370.19998000000004,164.66666 369.29996,164.66666 368.39996,164.66666 C 367.49997,164.66666 366.59997000000004,164.66666 365.69998000000004,164.66666 L 364.79996000000006,164.66666 L 363.89981000000006,164.66666 L 363.11462000000006,164.66666" fill="none" id="svg_18" stroke="#fff" stroke-width="20"/>
</svg>
