<?xml version="1.0" ?>
<svg baseProfile="full" height="480" version="1.1" width="640" xmlns="http://www.w3.org/2000/svg" xmlns:ev="http://www.w3.org/2001/xml-events" xmlns:xlink="http://www.w3.org/1999/xlink">
	<defs/>
	<path d="M 429.0,265.0 C 430.836,266.39999 431.40103,266.70697 432.40134,267.20001 C 433.01874,267.5043 434.16568,268.00253000000004 434.69333,268.20401000000004 C 435.64411,268.56708000000003 436.02911,268.70187000000004 436.91333000000003,269.05600000000004 C 438.00305000000003,269.49243 438.62851,269.76358000000005 439.30667000000005,270.052 C 440.02518000000003,270.35757 440.77261000000004,270.67776000000003 441.54166000000004,271.0 C 442.31925,271.32581 443.09546000000006,271.64932 443.86667000000006,271.948 C 445.32803000000007,272.51394999999997 446.00836000000004,272.75342 447.26685000000003,273.12851 C 447.84296000000006,273.30023 448.92063,273.57105 449.42484,273.68649 C 450.83143,274.00854 451.71195,274.19888 452.13382,274.2955 C 452.93741,274.47955 454.02802,274.71466 454.95667000000003,274.87866 L 455.91666000000004,275.0 L 456.75699000000003,275.2215" fill="none" id="svg_21" stroke="#000" stroke-width="2"/>
</svg>
