<?xml version="1.0" ?>
<svg baseProfile="full" height="480" version="1.1" width="640" xmlns="http://www.w3.org/2000/svg" xmlns:ev="http://www.w3.org/2001/xml-events" xmlns:xlink="http://www.w3.org/1999/xlink">
	<defs/>
	<path d="M 385.0,402.0 C 384.94284,403.70001 384.31448,404.42258 384.05716,405.29999 C 383.80371,406.16418999999996 383.37232,406.74762 383.02084,407.52085 C 382.65695,408.32142 383.07879,409.3548 382.57467,409.97468 C 382.07446000000004,410.58975999999996 381.53405000000004,411.23609 381.12133,412.10002 C 380.71401,412.95268 380.3987,413.58725999999996 380.02532,414.40000999999995 C 379.61782,415.28702999999996 379.1227,415.99216999999993 379.00133,416.79999999999995 C 378.86482,417.70856999999995 378.2152,418.26297999999997 377.83333,419.00001 C 377.4427,419.75397999999996 377.31975,420.56309 376.98931,421.38935 C 376.67367,422.17859999999996 376.00448,422.70450999999997 375.99998999999997,423.60001 L 375.99998999999997,424.5 L 375.98931,425.38934" fill="none" id="svg_18" stroke="#000" stroke-width="2"/>
</svg>
