<?xml version="1.0" ?>
<svg baseProfile="full" height="480" version="1.1" width="640" xmlns="http://www.w3.org/2000/svg" xmlns:ev="http://www.w3.org/2001/xml-events" xmlns:xlink="http://www.w3.org/1999/xlink">
	<defs/>
	<path d="M 324.0,221.0 C 330.37851,225.17849999999999 330.91382,225.51607 331.44284,225.84283 C 332.47748,226.4819 332.98892,226.79 333.49550999999997,227.0955 C 334.99877999999995,228.00200999999998 335.49999999999994,228.29999999999998 335.99999999999994,228.6 C 336.99999999999994,229.19998999999999 337.49999999999994,229.50001 338.49999999999994,230.1 C 338.99999999999994,230.39999 339.9991099999999,231.00146999999998 340.99733999999995,231.59733 C 341.49056999999993,231.89173 342.4565099999999,232.46153 342.92799999999994,232.72799 C 343.82591999999994,233.23545000000001 344.6616399999999,233.67735000000002 345.4346499999999,234.03333 C 346.1660299999999,234.37015 346.9275399999999,234.67595 347.7386699999999,235.05332 C 348.6724499999999,235.48775 349.7350999999999,236.04986000000002 350.3061399999999,236.35349000000002 C 350.8910699999999,236.66451000000004 351.4791399999999,236.97916000000004 352.63215999999994,237.58483 L 353.17866999999995,237.86266" fill="none" id="svg_19" stroke="#000" stroke-width="2"/>
</svg>
