<?xml version="1.0" ?>
<svg baseProfile="full" height="480" version="1.1" width="640" xmlns="http://www.w3.org/2000/svg" xmlns:ev="http://www.w3.org/2001/xml-events" xmlns:xlink="http://www.w3.org/1999/xlink">
	<defs/>
	<path d="M 365.0,305.0 C 365.0,306.79999 365.0,307.70001 365.0,308.60001 C 365.0,309.5 365.0,310.4 365.0,311.29999 C 365.0,312.20000999999996 365.0,313.10001 365.0,314.0 C 365.0,314.79999 365.0,315.70001 365.0,316.60001 C 365.0,317.5 365.0,318.4 365.0,319.29999 C 365.0,320.20000999999996 364.72589,321.23830999999996 365.22134,321.87865999999997 C 365.71322,322.51437 365.84066,323.29787999999996 366.35266,323.94732 C 366.83719,324.56194 366.99933,325.39999 367.0,326.29998 C 367.00067,327.19866 367.31454,327.75634 368.19867,328.00133 C 368.99359,328.22161 368.85019,329.21256999999997 369.00015,330.09981 C 369.14416,330.95183 369.74981,331.62282 370.52084,331.97914 C 371.30975,332.34373 371.97915,332.52083 372.01068000000004,333.38933 L 372.57468000000006,334.02531999999997 L 372.99552000000006,334.70448999999996 L 373.03602000000006,335.56399" fill="none" id="svg_20" stroke="#000" stroke-width="2"/>
</svg>
