<?xml version="1.0" ?>
<svg baseProfile="full" height="480" version="1.1" width="640" xmlns="http://www.w3.org/2000/svg" xmlns:ev="http://www.w3.org/2001/xml-events" xmlns:xlink="http://www.w3.org/1999/xlink">
	<defs/>
	<path d="M 420.5,233.89999 C 421.36133,235.31067000000002 422.09048,235.72253 422.74734,236.56166 C 423.17666,237.11011 423.65548,238.07374 424.15716000000003,238.85266 C 424.51299000000006,239.40512999999999 424.88409,239.96341999999999 425.70001,240.97899999999998 C 426.28555,241.70782 426.72445000000005,242.18058 427.1,242.75466999999998 C 427.74304,243.73763999999997 428.10861,244.56768999999997 428.49999,245.46248999999997 C 428.70452,245.93004999999997 429.10079,246.90367999999998 429.49999,247.89998999999997 C 429.89947,248.89700999999997 430.09676,249.39049999999997 430.47915,250.35832999999997 C 430.66461,250.82774999999998 431.02163,251.72671999999997 431.47848,252.95682999999997 C 431.74691,253.67964999999998 431.96587999999997,254.34244999999996 432.29867,255.21199999999996 C 432.68469,256.22063999999995 432.99307,256.88258999999994 433.49999,257.89998999999995 C 433.89461,258.6920099999999 434.1852,259.2527999999999 434.79549000000003,260.14282 C 435.32073,260.90878 435.51259000000005,261.75 436.02083000000005,262.39998999999995 C 436.62102000000004,263.16759999999994 437.21465000000006,263.70000999999996 437.58400000000006,264.6146499999999 L 438.33333000000005,265.0666799999999 L 438.78533000000004,265.8146699999999" fill="none" id="svg_19" stroke="#000" stroke-width="2"/>
</svg>
