<?xml version="1.0" ?>
<svg baseProfile="full" height="480" version="1.1" width="640" xmlns="http://www.w3.org/2000/svg" xmlns:ev="http://www.w3.org/2001/xml-events" xmlns:xlink="http://www.w3.org/1999/xlink">
	<defs/>
	<path d="M 296.0,429.0 C 298.62534,429.0 299.48401,429.0 300.34732,429.0 C 301.25183000000004,429.0 301.96933,429.0 303.01434,429.0 C 303.82132,429.0 305.0,429.0 305.6,429.0 C 306.49999,429.0 307.39999,429.0 308.29998,429.0 C 309.2,429.0 310.1,429.0 310.99999,429.0 C 311.89098,429.0 312.72799000000003,429.0 313.66665,429.0 C 314.61465,429.0 315.484,429.0 316.34731,429.0 C 317.24733,429.0 318.16665,429.0 318.99998999999997,429.0 C 319.97866,429.0 320.75264999999996,429.0 321.65266999999994,429.0 C 322.51597999999996,429.0 323.47914999999995,429.0 324.39997999999997,429.0 L 325.29549,429.00449 L 325.97466,429.42533" fill="none" id="svg_19" stroke="#000" stroke-width="2"/>
</svg>
