<?xml version="1.0" ?>
<svg baseProfile="full" height="480" version="1.1" width="640" xmlns="http://www.w3.org/2000/svg" xmlns:ev="http://www.w3.org/2001/xml-events" xmlns:xlink="http://www.w3.org/1999/xlink">
	<defs/>
	<path d="M 361.0,360.0 C 361.99866,360.88666 362.0,361.82535 362.0,362.51599 C 362.0,363.58932 362.0,364.42132 362.0,365.33333999999996 C 362.0,366.25066999999996 362.0,366.99465999999995 362.0,368.02932 C 362.0,368.99998999999997 362.0,369.79998 362.0,370.7 C 362.0,371.59999 362.0,372.49998999999997 362.0,373.39997999999997 C 362.0,374.29997 362.0,375.2 362.0,376.09999 C 362.0,376.99998 361.98987,377.71287 361.7785,378.76414 C 361.65756,379.36561 361.40439000000003,380.36439 361.19867,381.03331 C 360.82822,382.23792999999995 360.47937,382.94453 360.28534,383.59731 C 359.99359000000004,384.57878999999997 360.00272,385.51466999999997 360.0,386.364 C 359.99701,387.29549 359.5,387.99998999999997 359.01068,388.61064 L 358.97916,389.49998" fill="none" id="svg_20" stroke="#000" stroke-width="2"/>
</svg>
