<?xml version="1.0" ?>
<svg baseProfile="full" height="480" version="1.1" width="640" xmlns="http://www.w3.org/2000/svg" xmlns:ev="http://www.w3.org/2001/xml-events" xmlns:xlink="http://www.w3.org/1999/xlink">
	<defs/>
	<path d="M 271.5,270.0 C 270.5,271.0 270.5,271.75717 270.5,272.65268 C 270.5,273.51599 270.5,274.47916 270.5,275.39999 C 270.5,276.3045 270.57361,277.17175 270.47916,278.0 C 270.36597,278.99237 269.74463,279.52899 269.52085,280.5 C 269.31861,281.37753 269.11127,282.13739 268.66666,283.0 C 268.29733999999996,283.71649 267.94070999999997,284.49814 267.4375,285.04166 C 266.82709,285.70095999999995 266.07883,286.42118 265.55182,286.94818 C 265.02084,287.47916 264.26935000000003,288.23064999999997 263.47067000000004,289.02932999999996 C 262.92132000000004,289.57867999999996 262.37588000000005,290.30303999999995 261.70001,290.71466 C 260.85754000000003,291.22774999999996 261.09335000000004,292.09735 260.41467,292.71466 C 260.22134,292.89052999999996 260.81543,292.30953999999997 261.5,291.5 C 262.08206,290.81165 262.70337,290.4534 263.39017,289.7045 C 263.97458,289.06723 264.32837,288.37384 264.85718,287.7045 C 265.44263,286.96347 266.47412,286.79239 267.10001000000005,286.42533 C 267.87152000000003,285.97285 268.82087000000007,285.66483 269.50000000000006,285.00001 C 269.99487000000005,284.51554 270.46747000000005,283.62071 270.50000000000006,283.80267999999995 C 270.66132000000005,284.70507999999995 271.15607000000006,285.50921999999997 271.63867000000005,286.05334999999997 C 272.21033000000006,286.69784999999996 272.8695000000001,287.36111999999997 273.20367000000005,287.69915999999995 C 274.16336000000007,288.66995 274.73910000000006,289.2186899999999 275.43750000000006,289.95834999999994 C 275.84033000000005,290.3849599999999 276.61847000000006,291.3963099999999 276.97916000000004,291.9791599999999 C 277.50562,292.8298999999999 278.03928,293.47268999999994 278.59983000000005,294.3210199999999 C 279.00870000000003,294.9397899999999 279.5239,295.3078999999999 279.2133600000001,294.51467999999994 C 278.91816000000006,293.76061999999996 278.35701000000006,292.97964999999994 277.6746600000001,292.21065999999996 C 277.1697200000001,291.6416 276.59818000000007,290.92736999999994 275.91068000000007,290.44665 C 275.0947300000001,289.87611999999996 274.49793000000005,289.39041 273.7955100000001,288.94732 C 273.0236000000001,288.46040999999997 272.1487500000001,288.12338 271.5253400000001,287.57466999999997 C 270.9408700000001,287.06023999999996 270.45787000000007,286.33522999999997 269.7955100000001,285.94732 C 269.0324500000001,285.50041999999996 268.50227000000007,285.76617 268.5000100000001,286.65267 C 268.4978100000001,287.51598 268.5000100000001,288.38534 268.5000100000001,289.33333 C 268.5000100000001,290.26131 268.5000100000001,291.05181 268.5000100000001,292.07833 C 268.5000100000001,292.95833 268.5676100000001,293.83904 268.4640000000001,294.66134 C 268.3513900000001,295.5552 268.0463100000001,296.26498 267.8526700000001,297.109 C 267.5814600000001,298.29116 267.5379700000001,298.89013 267.5106900000001,299.72799 C 267.4739800000001,300.85643999999996 267.44285000000013,301.691 267.00001000000015,302.43748999999997 L 266.5360200000001,302.08131999999995 L 266.5013500000001,301.3106599999999" fill="none" id="svg_23" stroke="#000" stroke-width="2"/>
</svg>
