<?xml version="1.0" ?>
<svg baseProfile="full" height="480" version="1.1" width="640" xmlns="http://www.w3.org/2000/svg" xmlns:ev="http://www.w3.org/2001/xml-events" xmlns:xlink="http://www.w3.org/1999/xlink">
	<defs/>
	<path d="M 277.51135,222.09091 C 277.51135,224.88025000000002 277.51135,225.60557 277.51135,226.57008000000002 C 277.51135,227.4909 277.31646,228.41259000000002 277.51269,229.28958000000003 C 277.69329000000005,230.09662000000003 278.50100000000003,230.59073000000004 278.51135,231.45257000000004 C 278.52286,232.41233000000003 278.5784,233.12892000000005 278.34469,234.09091000000004 C 278.14779,234.90135000000004 277.76614,235.64822000000004 277.1007,236.46557000000004 C 276.66112000000004,237.00549000000004 275.86977,237.76061000000004 275.30068,238.26557000000005 C 274.5317,238.94790000000006 273.9056,239.31721000000005 273.16854,239.78640000000004 C 272.25078,240.37061000000006 271.77965,240.82369000000006 270.84969,241.39541000000006 C 270.27688,241.74755000000005 269.33165,242.23751000000004 268.56768,242.74807000000004 C 268.04375,243.09821000000005 267.36602,243.69224000000006 266.7647,244.48957000000004 L 266.47137,245.25491000000005" fill="none" id="svg_20" stroke="#000" stroke-width="2"/>
</svg>
