<?xml version="1.0" ?>
<svg baseProfile="full" height="480" version="1.1" width="640" xmlns="http://www.w3.org/2000/svg" xmlns:ev="http://www.w3.org/2001/xml-events" xmlns:xlink="http://www.w3.org/1999/xlink">
	<defs/>
	<path d="M 342.0,164.66666 C 343.71466,164.49601 343.85992,163.56386 344.33334,162.83333000000002 C 344.74044000000004,162.20513000000003 345.83575,161.66989 346.37466,161.26666000000003 C 347.17022000000003,160.67140000000003 347.83258,160.26004000000003 348.60131,159.86667000000003 C 349.39651000000003,159.45978000000002 350.2,159.06668000000002 351.2,158.56667000000002 C 351.79998,158.26667 352.60347,157.87355000000002 353.39867,157.46666000000002 C 354.16740999999996,157.07329000000001 355.00338,156.59525000000002 355.69548,155.96666000000002 C 356.32361999999995,155.39616 357.13441,154.86862000000002 357.75716,154.55682000000002 C 358.72103,154.07423000000003 359.17199,153.47862 359.83333,152.83332000000001 C 360.47658,152.20568 361.34703,151.83024 362.09999,151.44532 C 362.86316999999997,151.05517 363.72685,150.85262 364.59999,150.63065 C 365.46226,150.41144 366.33702,150.01848 366.87883,149.22399000000001 C 367.29001999999997,148.62101 367.56932,147.83732 368.35182,147.67565000000002 L 369.35332,147.65598000000003 L 369.95333,147.09198000000004" fill="none" id="svg_2" stroke="#000" stroke-width="2"/>
</svg>
