<?xml version="1.0" ?>
<svg baseProfile="full" height="480" version="1.1" width="640" xmlns="http://www.w3.org/2000/svg" xmlns:ev="http://www.w3.org/2001/xml-events" xmlns:xlink="http://www.w3.org/1999/xlink">
	<defs/>
	<path d="M 173.0,150.0 C 168.17999,148.57867 168.0,147.66667 168.0,146.99466 C 168.0,146.25067 167.93687,145.13727 168.036,144.34934 C 168.14975,143.44503 168.41895,142.71703000000002 168.76168,141.89101000000002 C 169.13676,140.98700000000002 169.64788000000001,140.10163000000003 170.00001,139.52083000000002 C 170.50912,138.68111000000002 170.92384,137.88532 171.52084,137.04167 C 171.93304,136.4592 172.76801999999998,135.88400000000001 173.50001,135.5 C 174.232,135.116 175.00727,134.49303 175.65068,133.82533 C 176.30891,133.14226000000002 177.00195,132.73895000000002 177.78535,132.41066 C 178.82344999999998,131.97562000000002 179.56127,131.72922 180.18934,131.364 C 181.02694,130.87694 181.59296999999998,130.33913 182.20001,129.82533 C 182.99097999999998,129.15585000000002 183.78870999999998,128.59042 184.45718,128.36166 C 185.39746,128.03988 186.23826,128.04739 187.10451999999998,127.94733 C 188.30374999999998,127.80879999999999 188.91679,127.69649 189.76402,127.35333 C 190.8661,126.90694 191.30514,126.50201 192.00000999999997,126.02083 C 192.67380999999997,125.55424000000001 193.67955999999998,125.12499 194.52083999999996,125.04166000000001 C 195.39791999999997,124.95478000000001 196.30026999999995,125.01878 197.18933999999996,124.98933000000001 C 198.04362999999995,124.96103000000001 199.08119999999997,124.78710000000001 199.77467999999996,124.57466000000001 C 200.68747999999997,124.29505 201.68119999999996,124.06346 202.47917999999996,124.02083 C 203.22984999999997,123.98073000000001 204.19467999999995,123.99999 204.96800999999996,123.99999 C 206.00982999999997,123.99999 206.78534999999997,123.99999 207.83333999999996,123.99999 C 208.77468999999996,123.99999 209.45267999999996,123.99999 210.42117999999996,123.99999 C 211.21466999999996,123.99999 211.99017999999995,123.99999 213.19467999999998,123.99999 C 213.96800999999996,123.99999 215.00534999999996,123.99999 215.74934,123.99999 C 216.66667999999999,123.99999 217.50001,123.99999 218.54267,123.99999 C 219.25068,123.99999 219.99641,123.93978 221.19467999999998,124.00448999999999 C 221.97108999999998,124.04641999999998 222.76611999999997,124.29042999999999 223.74934,124.57466 C 224.66495999999998,124.83935 225.52507,124.96078 226.33334,125.33332999999999 C 227.04004,125.65905999999998 227.81417,126.19820999999999 228.40268,126.51732999999999 C 229.28932,126.99812999999999 230.18634,127.34590999999999 230.98569,127.69549999999998 C 231.86624,128.08058999999997 232.50962,128.53167 233.33335,129.33333 C 233.77456,129.76271 234.24486,130.2686 235.05186,130.99465999999998 C 235.81808,131.68403999999998 236.56295,132.16743999999997 237.18936,132.65067 C 238.02849999999998,133.29801999999998 238.60898,134.0 238.9792,134.52083 C 239.53528,135.30311999999998 239.98961,136.0724 240.36402999999999,136.76400999999998 C 240.81205999999997,137.59157 241.23366,138.38294 241.56402999999997,139.164 C 241.96008999999998,140.10039999999998 242.13447999999997,140.98778 242.56936999999996,141.768 C 242.98808999999997,142.51922 243.34133999999997,143.00248 244.11469999999997,144.03199 C 244.58303999999998,144.65546 245.09832999999998,145.54363 245.41068999999996,146.26133000000002 C 245.75512999999995,147.05273000000003 246.15497999999997,147.84136 246.64818999999997,148.54733000000002 C 247.12744999999998,149.23332000000002 247.71488999999997,150.15446000000003 247.89018999999996,150.94816000000003 C 248.06277999999998,151.72956000000002 248.16668999999996,152.66667000000004 248.50001999999995,153.49999000000003 C 248.83334999999994,154.33332000000001 248.97433999999996,155.28229000000002 248.98934999999994,155.85732000000002 C 249.02350999999996,157.16626000000002 249.00001999999995,157.88132000000002 249.00001999999995,158.60399 C 249.00001999999995,159.63298 249.00001999999995,160.49999 249.00001999999995,161.45831 C 249.00001999999995,162.32148 249.00001999999995,163.21064 249.00001999999995,164.19998 C 249.00001999999995,164.99998000000002 248.96488999999994,166.00123000000002 249.01068999999995,166.78932 C 249.05298999999997,167.51726 249.50001999999995,168.47915 249.94285999999997,169.30899 L 249.99868999999995,169.97065999999998" fill="none" id="svg_2" stroke="#000" stroke-width="2"/>
</svg>
