<?xml version="1.0" ?>
<svg baseProfile="full" height="480" version="1.1" width="640" xmlns="http://www.w3.org/2000/svg" xmlns:ev="http://www.w3.org/2001/xml-events" xmlns:xlink="http://www.w3.org/1999/xlink">
	<defs/>
	<path d="M 298.0,348.0 C 299.5,349.5 300.23672,350.17038 300.70001,350.75717 C 301.25128,351.45538 301.55539000000005,352.10427999999996 302.14132,352.85733 C 302.94811,353.89423 303.33453000000003,354.25464 303.71517,354.65799 C 304.51501,355.50554999999997 304.93267,355.92596 305.74932,356.74798999999996 C 306.49819,357.50179999999995 307.144,358.14401999999995 307.69198,358.69199 C 308.3865,359.38651 308.9938,360.00631999999996 309.609,360.6045 C 310.26545999999996,361.24280999999996 310.75865999999996,361.69980999999996 311.64266,362.421 C 312.29661999999996,362.95450999999997 312.98350999999997,363.48344 313.69466,363.93302 C 314.6458,364.53431 315.49797,364.83152 316.25066,365.07599 C 316.7704,365.24481 317.97567,365.83963 318.64,366.28665 C 319.32286,366.74612 319.95207,367.22653 320.73598,367.85718 C 321.32813999999996,368.33356000000003 322.04096999999996,368.90137000000004 323.05599,369.48667 C 323.70122000000003,369.85871000000003 324.4345,370.24232 324.81350000000003,370.46168 C 326.00799,371.15303 326.80285000000003,371.68312 327.20449,371.95716 C 328.02395,372.5163 328.85509,373.10751999999997 329.28533000000004,373.40134 C 330.61498000000006,374.30939 331.08330000000007,374.60114 331.55266000000006,374.9 C 332.4985500000001,375.50226 332.9782000000001,375.79447 333.9159700000001,376.4 C 334.83684000000005,376.9946 335.71681000000007,377.59882 336.1473200000001,377.9 C 337.0016300000001,378.49766 337.4214600000001,378.80555 338.2839800000001,379.4 C 339.1627600000001,380.00568 340.0877500000001,380.6038 340.5706600000001,380.90452 C 341.06639000000007,381.21324 342.11723000000006,381.83848 342.6759800000001,382.15718 C 343.2558400000001,382.48789999999997 344.4992200000001,383.16810999999996 345.1636500000001,383.52135 C 345.8485600000001,383.88549 346.54964000000007,384.25147999999996 347.2546500000001,384.62534999999997 C 347.9589700000001,384.99881999999997 348.6575400000001,385.36478999999997 349.32765000000006,385.74735999999996 C 351.18239000000005,386.80622999999997 351.69838000000004,387.17085 352.17732000000007,387.51469 C 353.06221000000005,388.15 353.45405000000005,388.48469 354.2489800000001,389.09549999999996 C 354.6471700000001,389.40146999999996 355.96031000000005,390.30661999999995 356.4546700000001,390.60002 C 357.48915000000005,391.214 358.0409700000001,391.50122999999996 358.59600000000006,391.79999999999995 C 359.15566000000007,392.10126999999994 360.8344000000001,392.99808999999993 361.3785000000001,393.29999999999995 C 361.9157300000001,393.59812999999997 362.9646200000001,394.19892999999996 363.47915000000006,394.50001 C 363.9899500000001,394.79889999999995 364.99886000000004,395.39964 365.9999900000001,396.00001 C 366.49993000000006,396.29981 367.4963900000001,396.89856999999995 367.9893100000001,397.20002 C 368.9657200000001,397.79716 369.4454000000001,398.09602 369.9146600000001,398.4 C 371.2862100000001,399.28843 371.7173000000001,399.59812 372.5746600000001,400.20002 C 373.4266200000001,400.79813 373.84489000000013,401.11143 375.1666400000001,402.00001 C 375.61919000000006,402.30427 376.08708000000007,402.60411 377.0573300000001,403.22135 C 377.56200000000007,403.54242999999997 378.0864400000001,403.86616 379.1719800000001,404.57068 C 380.33742000000007,405.32705999999996 380.94340000000005,405.74268 381.5733200000001,406.16934 C 382.22341000000006,406.60967999999997 382.8914700000001,407.06417999999996 383.5833300000001,407.52083999999996 C 384.2914300000001,407.98821999999996 385.01769000000013,408.46106 385.7733300000001,408.91731999999996 C 387.3219800000001,409.85238 388.1393900000001,410.28389999999996 388.9653200000001,410.71333999999996 C 389.79341000000005,411.14394 390.62831000000006,411.55544 391.4583300000001,411.95833999999996 C 392.2763200000001,412.3554 393.0816800000001,412.73549999999994 393.8613100000001,413.11333999999994 C 395.3359200000001,413.8279999999999 396.0153300000001,414.1760499999999 396.6599900000001,414.51332999999994 C 397.2769900000001,414.83613999999994 397.8662300000001,415.1541399999999 398.4374900000001,415.45833999999996 C 398.9929100000001,415.75411999999994 399.5358800000001,416.04485999999997 400.0799800000001,416.31332 C 401.16030000000006,416.84637 401.7171900000001,417.08975 402.8616600000001,417.54733 C 403.4444200000001,417.78033 404.0414100000001,418.00067 404.6466600000001,418.22533999999996 C 405.8861300000001,418.68539 407.1678100000001,419.16373 407.8213100000001,419.42166 C 408.4851900000001,419.68368 409.1543200000001,419.95781999999997 409.8253400000001,420.24667 C 410.5016700000001,420.53781 411.1769300000001,420.84179 411.8473100000001,421.16165 C 412.5183300000001,421.48181 414.4807000000001,422.51779 415.1159900000001,422.884 C 415.74938000000014,423.24911000000003 416.3746600000001,423.62533 416.99999000000014,424.0 C 417.62533000000013,424.37466 418.24926000000016,424.75323 418.88399000000015,425.116 C 420.15993000000014,425.84522 420.81987000000015,426.18204 421.48531000000014,426.51734 C 422.15554000000014,426.85508 423.52202000000017,427.51844 424.21065000000016,427.86133 C 424.90572000000014,428.20743 425.61260000000016,428.54901 426.99999000000014,429.33335 C 427.70556000000016,429.73225 428.3993100000001,430.16352 429.09099000000015,430.60084 C 429.78063000000014,431.03688 430.45781000000017,431.47999 431.12798000000015,431.91334 C 431.78515000000016,432.3383 432.41814000000016,432.76533 433.6666500000002,433.50001000000003 C 434.2520700000002,433.84449 434.8270200000002,434.15248 435.39016000000015,434.43302000000006 C 436.4723700000001,434.97217000000006 437.01482000000016,435.2036800000001 438.08266000000015,435.68134000000003 C 439.16680000000014,436.16629000000006 439.72213000000016,436.41962 440.28398000000016,436.684 C 441.42695000000015,437.22184000000004 441.9997700000002,437.50044 442.57466000000016,437.77467 C 443.14714000000015,438.04777 444.83174000000014,438.83693 445.37831000000017,439.07835 C 446.4352900000002,439.54524 446.95174000000014,439.75731 447.45833000000016,439.95835 C 448.4352900000002,440.34605 449.83190000000013,440.83783999999997 450.27815000000015,440.97834 C 451.13115000000016,441.24693 451.93312000000014,441.47742 452.68113000000017,441.63834 C 453.9504200000002,441.91141000000005 454.75813000000016,441.87711 455.5973000000002,442.16935 C 456.4425500000002,442.46369 457.0946800000002,443.25428 457.8333200000002,443.66666000000004 C 458.6059000000002,444.098 459.54386000000017,443.96845 460.49998000000016,444.02085000000005 C 461.23371000000014,444.06104000000005 462.21806000000015,444.31568000000004 462.79731000000015,444.80134000000004 C 463.54545000000013,445.4286 464.31458000000015,446.16944000000007 465.19865000000016,445.99867000000006 C 466.01252000000017,445.84144000000003 466.36756000000014,444.83983000000006 466.64732000000015,444.18568000000005 C 467.03828000000016,443.27150000000006 466.98823000000016,442.43766000000005 466.99864000000014,441.51200000000006 C 467.01027000000016,440.47889000000004 466.99028000000015,439.75138000000004 467.02083000000016,439.02085000000005 C 467.06487000000016,437.9682700000001 467.17317000000014,437.02790000000005 467.4359900000002,436.2720100000001 C 467.7456500000002,435.3813200000001 468.2487300000002,434.6210400000001 468.5639800000002,433.7999900000001 C 468.9397700000002,432.82132000000007 468.92931000000016,431.98563000000007 469.1666400000002,431.0000000000001 C 469.3140100000002,430.3879700000001 469.6963000000002,429.5959200000001 470.2000000000002,428.6013200000001 C 470.4952300000002,428.0184000000001 471.1568800000002,427.0609500000001 471.56398000000024,426.4106800000001 C 472.04619000000025,425.6404200000001 472.38872000000026,424.86261000000013 472.8333300000002,424.0000000000001 C 473.20265000000023,423.2835100000001 473.5204900000002,422.4678000000001 474.1853200000002,421.8613300000001 C 474.92851000000024,421.1833800000001 475.6389900000002,421.0255500000001 476.4840000000002,420.7160100000001 C 477.3634900000002,420.39384000000007 478.24599000000023,420.0286000000001 479.16665000000023,420.0000100000001 C 480.02044000000024,419.9734900000001 480.99999000000025,420.0000100000001 481.79998000000023,420.0000100000001 C 482.60000000000025,420.0000100000001 483.60000000000025,420.0000100000001 484.39999000000023,420.0000100000001 C 485.39999000000023,420.0000100000001 486.20001000000025,420.0000100000001 487.20001000000025,420.0000100000001 C 488.0000000000002,420.0000100000001 489.0000000000002,420.0000100000001 489.79999000000026,420.0000100000001 C 490.6000100000003,420.0000100000001 491.6044900000003,420.00004000000007 492.23599000000024,420.0000100000001 C 493.42117000000025,419.9999200000001 494.22067000000027,420.0498500000001 494.99017000000026,419.9428500000001 C 496.0426900000003,419.7965200000001 496.8246400000003,419.34931000000006 496.98932000000025,418.4000000000001 C 497.14322000000027,417.5127300000001 496.39938000000024,416.84370000000007 495.85068000000024,416.4000000000001 C 495.05319000000026,415.7551600000001 494.6921400000002,414.8120800000001 494.1386700000002,414.1746600000001 C 493.6690700000002,413.63380000000006 492.88400000000024,412.88401000000005 492.37466000000023,412.3746700000001 C 491.6786800000002,411.6786900000001 491.17572000000024,411.1735900000001 490.4840000000002,410.48401000000007 C 489.75378000000023,409.75604000000004 489.1258800000002,409.1858500000001 488.3428300000002,408.6955000000001 C 487.7960200000002,408.3530900000001 486.7788000000002,407.7020000000001 486.21066000000025,407.1640100000001 C 485.6345500000002,406.61845000000005 485.03021000000024,405.7934400000001 484.60400000000027,405.1893400000001 C 484.1428800000003,404.53578000000005 483.51291000000026,403.81916000000007 482.9453400000003,403.3160200000001 C 482.31656000000027,402.7585900000001 481.60916000000026,402.2183900000001 480.88134000000025,401.6840000000001 C 479.8290300000003,400.91136000000006 479.15960000000024,400.46006000000006 478.54165000000023,400.0208500000001 C 477.95971000000026,399.6072100000001 476.9183900000002,398.80378000000013 476.45715000000024,398.4045200000001 C 475.80624000000023,397.8410700000001 475.0132400000002,397.1466500000001 474.39550000000025,396.7526600000001 C 473.55984000000024,396.2197000000001 472.82897000000025,395.8402800000001 472.04284000000024,395.3428400000001 C 471.4759800000002,394.9841400000001 470.59808000000027,394.39954000000006 469.6998200000002,393.7998400000001 C 469.0950800000002,393.3960900000001 468.4766100000002,392.98282000000006 467.8428300000002,392.5428500000001 C 466.82925000000023,391.8392100000001 466.1155000000002,391.3166800000001 465.37466000000023,390.7746600000001 C 464.99975000000023,390.5003400000001 464.25677000000024,389.9469300000001 463.16665000000023,389.1666600000001 C 462.48919000000024,388.6817700000001 461.84356000000025,388.24036000000007 461.2466700000002,387.8106700000001 C 460.68371000000025,387.4054300000001 459.6828900000002,386.6012600000001 459.0000000000002,386.00000000000006 C 458.54660000000024,385.60083000000003 457.5855100000002,384.7908300000001 457.0473300000002,384.4045100000001 C 456.23541000000023,383.8217200000001 455.68680000000023,383.4806200000001 454.6839900000002,382.8826600000001 C 454.00189000000023,382.4759500000001 453.29410000000024,382.0577700000001 452.5788300000002,381.4571500000001 C 451.7591000000002,380.7688000000001 451.24250000000023,380.2314700000001 450.7693500000002,379.68267000000014 C 449.9351500000002,378.71511000000015 449.5700700000002,378.00228000000016 449.1173400000002,377.48666000000014 C 448.41751000000016,376.68960000000015 447.6159700000002,376.35635000000013 446.8853500000002,375.7999800000001 C 446.1614700000002,375.2487400000001 445.60001000000017,374.60000000000014 444.9000000000002,373.8999900000001 L 444.2999900000002,373.2999800000001 L 443.7000100000002,372.70449000000013" fill="none" id="svg_2" stroke="#000" stroke-width="2"/>
</svg>
