<?xml version="1.0" ?>
<svg baseProfile="full" height="480" version="1.1" width="640" xmlns="http://www.w3.org/2000/svg" xmlns:ev="http://www.w3.org/2001/xml-events" xmlns:xlink="http://www.w3.org/1999/xlink">
	<defs/>
	<path d="M 167.0,152.0 C 167.0,153.8 167.0,154.7 167.0,155.60001 C 167.0,156.5 167.0,157.4 167.0,158.30001 C 167.0,159.10018 167.0,159.88533999999999 167.0,160.83601 C 167.0,161.60135 167.0,162.60002 167.0,163.40000999999998 C 167.0,164.40000999999998 166.98717,165.2001 167.00017,166.20001 C 167.01056,167.00020999999998 167.11299,168.02041 167.43601,168.78934999999998 C 167.75055,169.5381 168.52399,170.29050999999998 168.87867,171.10034 C 169.1735,171.77351 169.26542,172.77472999999998 169.52084,173.50000999999997 C 169.78122,174.23940999999996 170.31728999999999,175.17802999999998 170.80001,175.88266999999996 C 171.31888999999998,176.64008999999996 171.6863,177.35660999999996 172.29550999999998,178.24283999999997 C 172.82162999999997,179.00818999999998 172.97958999999997,179.78560999999996 173.35716999999997,180.64816999999996 C 173.64987999999997,181.31683999999996 174.56762999999998,181.90625999999997 175.00000999999997,182.52083999999996 C 175.56467999999998,183.32344999999995 175.99904999999998,184.00096999999997 176.60001999999997,184.60001999999997 C 177.29888999999997,185.29663999999997 178.14972999999998,185.58511 178.83333999999996,186.16668999999996 C 179.49933999999996,186.73327999999995 179.81151999999997,187.48919999999995 180.43601999999996,187.97468999999995 C 181.18198999999996,188.55461999999994 182.00025999999997,188.99977999999996 182.50001999999995,189.50001999999995 C 183.19902999999994,190.19967999999994 183.83168999999995,190.77156999999994 183.99551999999994,191.70001999999994 C 184.14581999999993,192.55180999999993 184.74372999999994,193.14032999999995 184.94734999999994,194.06251999999995 C 185.09866999999994,194.74784999999994 185.23044999999993,195.85317999999995 185.50001999999995,196.47918999999996 C 185.93063999999995,197.47918999999996 185.95555999999996,198.22710999999995 186.22151999999994,199.20017999999996 C 186.39212999999995,199.82436999999996 186.81688999999994,200.67928999999995 187.20001999999994,201.68534999999997 C 187.40851999999992,202.23284999999998 187.70326999999995,203.10343999999998 188.09985999999995,204.29984999999996 C 188.29713999999996,204.89496999999997 188.60876999999994,205.75373999999996 188.83334999999994,206.83333999999996 C 188.98166999999995,207.54628999999997 189.00352999999993,208.27770999999996 189.33334999999994,209.33333999999996 C 189.53578999999993,209.98128999999997 189.86093999999994,210.66678999999996 190.22134999999994,211.38533999999996 C 190.59140999999994,212.12311999999994 191.19239999999994,213.18314999999996 191.60002999999995,213.84283999999997 C 192.18909999999994,214.79617999999996 192.59970999999996,215.39888999999997 193.20001999999994,216.30000999999996 C 193.59981999999994,216.90013999999996 194.00003999999993,217.50000999999995 194.60002999999995,218.39999999999995 C 195.20003999999994,219.30000999999996 195.60002999999995,219.89999999999995 196.00001999999995,220.50000999999995 C 196.40000999999995,221.10001999999994 197.19610999999995,222.30276999999995 197.60452999999995,222.89999999999995 C 198.01675999999995,223.50280999999995 198.43750999999995,224.11587999999995 199.16668999999996,225.00000999999995 C 199.67194999999995,225.61263999999994 200.23759999999996,226.20920999999996 200.81068999999997,226.83600999999996 C 201.40300999999997,227.48383999999996 202.30111999999997,228.52025999999995 202.60002999999998,228.88266999999996 C 203.20224999999996,229.61284999999995 203.79336999999998,230.34445999999997 204.10002999999998,230.69017999999997 C 204.98123999999999,231.68365999999997 205.58569999999997,232.24710999999996 206.20001999999997,232.72800999999998 C 207.08024999999998,233.41707 208.00313999999997,233.99541 208.59868999999998,234.40134999999998 C 209.19249999999997,234.8061 209.81305999999998,235.18250999999998 210.83334999999997,236.16669 C 211.34459999999996,236.65983999999997 211.78489999999996,237.24589999999998 212.29734999999997,237.81069 C 212.84304999999998,238.41212 213.85972999999996,239.30563999999998 214.25201999999996,239.60003 C 215.06729999999996,240.21183 215.92981999999995,240.79211 216.34201999999996,241.10003 C 217.51698999999996,241.97776000000002 218.15698999999995,242.58793 218.70268999999996,243.18935 C 219.21513999999996,243.75413999999998 219.65028999999996,244.34606 220.42135999999996,245.07853 C 220.93295999999995,245.56451 221.78056999999995,246.18169 222.31600999999998,246.59869 C 223.32999999999998,247.38836 223.79548999999997,247.82194 224.29734999999997,248.27203 C 224.85409999999996,248.77134 225.86236999999997,249.64468 226.65801999999996,250.30536 C 227.07515999999995,250.65173000000001 227.92534999999995,251.34773 228.34200999999996,251.6947 C 229.50379999999996,252.66218 229.83774999999997,252.95469 230.70267999999996,253.72803000000002 C 231.20520999999997,254.17734000000002 232.15914999999995,255.01003000000003 232.68534999999997,255.39870000000002 C 233.22842999999997,255.79984000000002 234.08977999999996,256.37079 235.00001999999998,256.83338000000003 C 235.58969999999997,257.13306000000006 236.48188,257.47227000000004 237.31468999999998,257.79871 C 238.32066999999998,258.19303 239.02264,258.51722 239.76935999999998,258.88538000000005 C 240.64498999999998,259.31708000000003 241.30798,259.65659000000005 242.02085999999997,260.00003000000004 C 242.74996999999996,260.35132000000004 243.82917999999998,260.84372 244.51469999999998,261.11468 C 245.47358999999997,261.49371 246.09551,261.69561000000004 247.29986999999997,262.10003 C 247.89550999999997,262.30004 248.77221999999998,262.57882 249.83335999999997,263.00002 C 250.55318999999997,263.28573 251.21607999999998,263.62261 252.16669999999996,264.00002 C 252.95891999999995,264.31453 253.55292999999998,264.52495 254.57202999999996,264.71468 C 255.73509999999996,264.9312 256.17540999999994,264.92803 257.11467999999996,264.96401 C 258.16490999999996,265.00426 258.73769999999996,264.99679 259.34401999999994,264.99868 C 260.66667999999993,265.00277 261.38485,265.00002 262.1320099999999,265.00002 C 263.6693599999999,265.00002 264.43751999999995,265.00002 265.19069999999994,265.00002 C 265.91786999999994,265.00002 266.6080299999999,265.00002 267.83336999999995,265.00002 C 268.8066999999999,265.00002 269.58000999999996,265.00002 270.5400399999999,265.00002 C 271.5000299999999,265.00002 272.2587899999999,265.00533 273.1293599999999,264.98934 C 274.10417999999993,264.97146000000004 274.6294199999999,264.96474 276.3333699999999,264.83336 C 276.9431699999999,264.78633 277.56725999999986,264.71929 278.20085999999986,264.64284000000004 C 279.48033999999984,264.48848000000004 280.11418999999984,264.39464000000004 280.7375099999999,264.29552 C 282.50245999999987,264.01491 283.0377999999999,263.90993000000003 284.0330099999999,263.69551 C 284.5037099999999,263.5941 285.40794999999986,263.37749 286.2813599999999,263.11467 C 287.1708899999999,262.847 288.0855299999999,262.51649 289.03602999999987,262.17467 C 289.52094999999986,262.00025999999997 290.50218999999987,261.64574 291.00135999999986,261.48403 C 292.49354999999986,261.00063 292.99888999999985,260.87514000000004 294.0106999999999,260.63601 C 294.51966999999985,260.51571 295.55662999999987,260.30169 296.0853499999999,260.20135 C 297.7191999999999,259.89126 298.2804199999999,259.80224 299.3933599999999,259.60003 C 299.93772999999993,259.50112 300.9774699999999,259.30752 301.4600099999999,259.20004 C 302.7183699999999,258.91974 303.6392699999999,258.59405 304.5093599999999,258.28537 C 305.3477999999999,257.98792 305.8781999999999,257.33536 305.9375199999999,256.41669 L 305.8811799999999,255.82936" fill="none" id="svg_2" stroke="#000" stroke-width="2"/>
</svg>
