<?xml version="1.0" ?>
<svg baseProfile="full" height="480" version="1.1" width="640" xmlns="http://www.w3.org/2000/svg" xmlns:ev="http://www.w3.org/2001/xml-events" xmlns:xlink="http://www.w3.org/1999/xlink">
	<defs/>
	<path d="M 215.0,205.0 C 213.77867,205.87866 213.21176,206.38249 212.99867,207.19867 C 212.78825,208.00464 211.93677,208.47018 211.39999,209.14934 C 210.83822,209.86012 210.2516,210.2199 209.716,210.916 C 209.23248,211.54442 209.20216000000002,212.31987 208.66667,213.0 C 208.14079,213.66792 207.07084,213.89951 206.54167,214.5 C 205.92177,215.20345 205.80711000000002,216.31181 205.19867000000002,216.71466 C 204.37723000000003,217.25854 203.32483000000002,217.44502 203.08667000000003,218.28400000000002 C 202.87790000000004,219.01943000000003 204.30000000000004,219.00000000000003 205.20000000000002,219.00000000000003 C 206.10001000000003,219.00000000000003 207.13790000000003,218.67822000000004 207.83333000000002,219.16667000000004 C 208.54851000000002,219.66899000000004 209.20000000000002,220.00000000000003 210.10001000000003,220.00000000000003 C 211.00000000000003,220.00000000000003 211.83333000000002,220.00000000000003 212.05716000000004,220.64734000000004 L 212.80133000000004,220.99867000000003 L 213.70000000000005,221.00000000000003" fill="none" id="svg_2" stroke="#000" stroke-width="2"/>
</svg>
