<?xml version="1.0" ?>
<svg baseProfile="full" height="480" version="1.1" width="640" xmlns="http://www.w3.org/2000/svg" xmlns:ev="http://www.w3.org/2001/xml-events" xmlns:xlink="http://www.w3.org/1999/xlink">
	<defs/>
	<path d="M 262.0,250.0 C 263.79999,250.0 264.70001,250.0 265.60001,250.0 C 266.5,250.0 267.35663,250.13657 268.20002,249.716 C 268.86164,249.38607000000002 269.72688,249.18597 270.60001,248.964 C 271.46228,248.74479 272.19698999999997,248.0427 273.10001,248.0 C 273.999,247.95747 274.83307,248.19127 275.70002,247.94284 C 276.59659999999997,247.68590999999998 277.32691,247.15072999999998 278.17466,246.97467 C 278.98496,246.8064 279.72712,246.25543 280.48402000000004,245.80133 C 281.15400000000005,245.39937 282.11287000000004,245.04831000000001 282.88401000000005,245.00133 C 283.82368,244.94409 284.85691,244.87451 285.50001000000003,244.47916999999998 C 286.35609000000005,243.95288999999997 287.00001000000003,243.52083 287.97850000000005,243.12133999999998 L 288.69551000000007,242.94732999999997 L 289.5000100000001,242.49999999999997" fill="none" id="svg_2" stroke="#000" stroke-width="2"/>
</svg>
