<?xml version="1.0" ?>
<svg baseProfile="full" height="480" version="1.1" width="640" xmlns="http://www.w3.org/2000/svg" xmlns:ev="http://www.w3.org/2001/xml-events" xmlns:xlink="http://www.w3.org/1999/xlink">
	<defs/>
	<path d="M 295.0,247.0 C 293.36401,247.57466 292.4603,247.72473 291.70984,248.05267 C 290.87185999999997,248.41885000000002 290.45779999999996,249.33691000000002 290.12134,250.10017000000002 C 289.79398,250.84278000000003 289.56967,251.83871000000002 289.29549999999995,252.40449 C 288.81134,253.40357 288.31111999999996,254.12686000000002 288.08532999999994,255.11466000000001 C 287.8871199999999,255.98173000000003 287.99999999999994,256.75716 287.99999999999994,257.65716000000003 C 287.99999999999994,258.40450000000004 287.99999999999994,259.39868 287.99999999999994,260.34283000000005 C 287.99999999999994,261.25183000000004 287.99999999999994,261.96933000000007 287.99999999999994,263.00534000000005 C 287.99999999999994,263.74933000000004 287.99999999999994,264.85733000000005 287.99999999999994,265.6506600000001 C 287.99999999999994,266.54284000000007 287.99956999999995,267.26132000000007 287.99999999999994,268.05181000000005 C 288.00066999999996,269.31466000000006 287.92632999999995,269.99718000000007 288.1666599999999,270.99999 C 288.36889999999994,271.84383 288.75832999999994,272.51598 289.1666599999999,273.33333000000005 C 289.6532299999999,274.30730000000005 290.0052799999999,275.00881000000004 290.4045099999999,275.69466000000006 C 290.9779399999999,276.67983000000004 291.3760699999999,277.24709000000007 291.9791599999999,277.9374900000001 C 292.4958499999999,278.5289800000001 293.2890699999999,279.20974000000007 293.79867999999993,279.8839900000001 C 294.35803999999996,280.6240700000001 294.6189299999999,281.2567000000001 295.1666599999999,282.1666400000001 C 295.64251999999993,282.9571700000001 295.97466999999995,283.51720000000006 296.60131999999993,284.2306400000001 C 297.34917999999993,285.0821100000001 298.0461399999999,285.4907100000001 298.6853299999999,286.05333000000013 C 299.4533699999999,286.72939000000014 299.9574899999999,287.35848000000016 300.4999999999999,288.0208300000001 C 301.0522799999999,288.6951200000001 301.2884799999999,289.0568700000001 302.31466999999986,290.2279800000001 C 302.75250999999986,290.7276400000001 303.3665799999999,291.37166000000013 304.1996799999999,291.97847000000013 C 304.9344199999999,292.51366000000013 305.58706999999987,293.0566900000001 306.1053499999999,293.7000000000001 C 306.6437099999999,294.3682100000001 307.45767999999987,294.7209400000001 308.4215099999999,295.0999900000001 C 309.2292499999999,295.41768000000013 309.8103999999999,295.6007800000001 310.9999999999999,295.9999800000001 C 311.5971999999999,296.2003900000001 312.4754599999999,296.4592400000001 313.22933999999987,296.7999700000001 C 314.21999999999986,297.2477200000001 314.7818599999999,297.74815000000007 315.76934999999986,298.19999000000007 C 316.50512999999984,298.5366600000001 317.05962999999986,298.6804900000001 318.07867999999985,299.0999800000001 C 319.00744999999984,299.48233000000005 319.67944999999986,299.8115000000001 320.68667999999985,300.20130000000006 C 321.2442399999999,300.41706000000005 322.16763999999984,300.7427400000001 323.16665999999987,301.16663000000005 C 323.88711999999987,301.4723200000001 324.61120999999986,301.82245000000006 325.3386599999999,302.13865000000004 C 326.0274999999999,302.43806000000006 327.2280899999999,302.85258000000005 328.0000099999999,302.97913000000005 C 328.76474999999994,303.10450000000003 329.9701599999999,303.27585000000005 330.6506799999999,303.43598000000003 C 331.35169999999994,303.60093 332.0464899999999,303.76026 333.2293499999999,304.19999 C 333.9682699999999,304.47468000000003 334.9903399999999,305.02067 335.6044999999999,305.29548 C 336.44488999999993,305.67152 337.4202699999999,305.8917 338.2466799999999,305.97465 C 338.84579999999994,306.0348 340.1685199999999,306.1558 340.8813499999999,306.28398 C 341.6060799999999,306.41432 342.29888999999986,306.59288 343.4999999999999,306.83333 C 344.3215899999999,306.99782 345.05831999999987,307.15376 346.05599999999987,307.56798 C 346.71233999999987,307.84047 347.4206199999999,308.18262999999996 348.20400999999987,308.43199 C 349.38482999999985,308.80788 350.1939399999999,308.90517 350.97915999999987,308.95833 C 351.74178999999987,309.00997 352.8335299999999,308.98491 353.8383499999999,309.00446999999997 C 354.7536899999999,309.02228999999994 355.32873999999987,309.02207999999996 356.5473299999999,309.35265 C 357.23586999999986,309.53942 358.1628699999999,309.86485999999996 358.94817999999987,309.94282999999996 C 359.73616999999985,310.02108 360.87127999999984,309.88933 361.74816999999985,310.05715 C 362.68694999999985,310.23684 363.3878799999998,310.71504999999996 364.19982999999985,310.8785 C 365.1512799999999,311.07003 366.11733999999984,310.99998999999997 366.80984999999987,310.99998999999997 C 367.7706699999999,310.99998999999997 368.54165999999987,310.99998999999997 369.40267999999986,310.99998999999997 C 370.59731999999985,310.99998999999997 371.1786799999999,310.99998999999997 371.9856599999999,310.99998999999997 C 373.19466999999986,310.99998999999997 373.9679899999999,310.99998999999997 375.01434999999987,310.99998999999997 C 375.8213299999999,310.99998999999997 376.4026899999999,310.99998999999997 377.5973299999999,310.99998999999997 C 378.4583499999999,310.99998999999997 379.2293499999999,310.99998999999997 380.1946799999999,310.99998999999997 C 380.9679999999999,310.99998999999997 382.0098399999999,310.99998999999997 382.7853499999999,310.99998999999997 C 383.8333499999999,310.99998999999997 384.7692099999999,310.96392 385.39551999999986,311.05715 C 386.41406999999987,311.20878999999996 387.1775299999999,311.66216 388.2001799999999,311.8785 C 389.00910999999985,312.04963999999995 389.68534999999986,311.99931999999995 390.68268999999987,311.99998999999997 C 391.47916999999984,312.00053999999994 392.66666999999984,311.99998999999997 393.47916999999984,311.99998999999997 C 394.3216699999998,311.99998999999997 395.24668999999983,311.99998999999997 396.16666999999984,311.99998999999997 C 396.9526799999998,311.99998999999997 397.77466999999984,311.99998999999997 398.83335999999986,311.99998999999997 C 399.5473499999999,311.99998999999997 400.4526799999999,311.99998999999997 401.42167999999987,311.99998999999997 C 402.2466899999999,311.99998999999997 403.16166999999984,311.99998999999997 404.1666799999999,311.99998999999997 C 404.8813699999999,311.99998999999997 405.60402999999985,311.99998999999997 406.6330199999999,311.99998999999997 C 407.7358599999999,311.99998999999997 408.4791799999999,311.99998999999997 409.5431799999999,311.99998999999997 C 410.2826799999999,311.99998999999997 411.1661999999999,311.99998999999997 412.1666799999999,311.99998999999997 C 412.8813699999999,311.99998999999997 413.60402999999985,311.99998999999997 414.6330199999999,311.99998999999997 C 415.7358599999999,311.99998999999997 416.4791799999999,311.99998999999997 417.5430199999999,311.99998999999997 C 418.2720199999999,311.99998999999997 419.1090299999999,311.99998999999997 420.2996699999999,311.99998999999997 C 420.8910099999999,311.99998999999997 421.72800999999987,311.99998999999997 422.8570099999999,311.99998999999997 C 423.69101999999987,311.99998999999997 424.6000199999999,311.99998999999997 425.5000199999999,311.99998999999997 C 426.3090099999999,311.99998999999997 427.3333599999999,311.99998999999997 428.0098499999999,311.99998999999997 C 428.7853599999999,311.99998999999997 429.8333699999999,311.99998999999997 430.76402999999993,311.99998999999997 C 431.5986899999999,311.99998999999997 432.6066199999999,312.05809999999997 433.4000199999999,311.94282999999996 C 434.41606999999993,311.79522 434.99986999999993,311.41673999999995 436.16667999999993,311.16664999999995 C 436.9383199999999,311.00123999999994 437.7386399999999,311.00532999999996 438.66667999999993,310.99998999999997 C 439.47917999999993,310.99532 440.4840299999999,310.99998999999997 441.1746799999999,310.99998999999997 C 442.2428599999999,310.99998999999997 443.1001899999999,310.99998999999997 443.8853699999999,310.99998999999997 C 444.8253699999999,310.99998999999997 445.8333699999999,310.99998999999997 446.69551999999993,310.99998999999997 C 447.50001999999995,310.99998999999997 448.44710999999995,311.09398 449.30000999999993,310.64732999999995 C 450.0522699999999,310.25337999999994 450.80000999999993,310.00066 451.7000299999999,309.99998999999997 C 452.6000199999999,309.99931999999995 453.5000199999999,309.99998999999997 454.4000099999999,309.99998999999997 L 455.2955199999999,309.9955 L 455.9213399999999,309.55333" fill="none" id="svg_3" stroke="#000" stroke-width="2"/>
</svg>
