<?xml version="1.0" ?>
<svg baseProfile="full" height="480" version="1.1" width="640" xmlns="http://www.w3.org/2000/svg" xmlns:ev="http://www.w3.org/2001/xml-events" xmlns:xlink="http://www.w3.org/1999/xlink">
	<defs/>
	<path d="M 213.0,158.0 C 216.028,153.14 216.64708,152.4436 216.916,151.51733 C 217.14435,150.73083 217.56647999999998,150.08855999999997 218.48266999999998,149.71465999999998 C 219.16063,149.43796999999998 219.84951999999998,148.67387 220.35267,148.04816999999997 C 220.87584999999999,147.39754999999997 220.87426,146.50936999999996 221.64668,145.98532999999998 C 222.37455,145.49150999999998 223.16993,145.41141999999996 224.24284,145.05266999999998 C 225.09655,144.76720999999998 225.63867,144.35600999999997 226.32135,143.67865999999998 C 227.00267,143.00266999999997 227.51602,142.48398999999998 228.24284,141.75716999999997 C 228.79867,141.20134 229.51934,140.47766 230.16668,139.83332999999996 C 230.65156000000002,139.35070999999996 231.28573,138.60955999999996 232.11468000000002,138.16932999999997 C 232.95100000000002,137.72517999999997 233.60298000000003,137.32768999999996 234.484,137.08399999999997 C 235.32647,136.85097999999996 236.16993000000002,136.50623999999996 237.00001,136.16666999999998 C 237.7167,135.87348999999998 238.65718,135.99999999999997 239.60134,135.99999999999997 C 240.60001,135.99999999999997 241.4,135.99999999999997 242.4,135.99999999999997 C 243.20000000000002,135.99999999999997 244.20000000000002,135.99999999999997 245.00001,135.99999999999997 C 246.00001,135.99999999999997 246.78935,135.99999999999997 247.51467,135.99999999999997 C 248.52083,135.99999999999997 249.54267,135.99999999999997 250.25068,135.99999999999997 C 250.99466999999999,135.99999999999997 252.02934,135.99999999999997 253.00000999999997,135.99999999999997 C 253.75717999999998,135.99999999999997 254.65717999999998,135.99999999999997 255.60133999999996,135.99999999999997 C 256.60000999999994,135.99999999999997 257.4,135.99999999999997 258.4,135.99999999999997 C 259.20002,135.99999999999997 260.20266999999996,135.95263999999997 261.00001,136.02082999999996 C 262.00690999999995,136.10694999999996 262.6233,136.30273999999997 263.34283999999997,136.70449999999997 C 264.2938,137.23548999999997 264.80206999999996,137.76742999999996 265.54267,138.32149999999996 C 266.24345,138.84578999999997 267.03846,139.35845999999995 267.66666,139.99999999999997 C 268.38140999999996,140.72994999999997 268.78362999999996,141.44649999999996 269.52085,142.02082999999996 C 270.15522,142.51504999999997 270.63364,143.07337999999996 271.17466,143.72399999999996 C 271.95179,144.65853999999996 272.83805,144.86690999999996 273.38935000000004,145.45733999999996 C 274.05961,146.17515999999995 273.90421000000003,147.01089999999996 274.05268,147.99465999999995 C 274.18384000000003,148.86371999999994 274.63853,149.62253999999996 275.32133,150.32133999999996 C 275.81946999999997,150.83114999999995 276.54383,151.48938999999996 277.23834999999997,152.24282999999997 C 277.73389,152.78042999999997 277.99467,153.67194999999998 278.00001,154.54266999999996 C 278.00586999999996,155.49998999999997 277.73492999999996,156.27214999999995 278.03202,157.33867999999995 C 278.28724,158.25488999999996 279.06834,158.63977999999994 279.72400999999996,159.17467999999997 C 280.51270999999997,159.81807999999998 280.94867999999997,160.52338999999998 281.16666999999995,161.33333999999996 C 281.41437999999994,162.25369999999995 281.70597999999995,162.98105999999996 281.87852,163.85700999999997 C 282.06174999999996,164.78712 282.00001,165.67200999999997 282.00001,166.54267999999996 C 282.00001,167.50001999999995 282.00001,168.23200999999997 282.00001,169.19468999999995 C 282.00001,169.96801999999994 282.00001,171.00535999999994 282.00001,171.74934999999996 C 282.00001,172.85734999999997 282.00001,173.65068999999997 282.00001,174.54301999999996 C 282.00001,175.27201999999997 282.00001,176.10900999999996 282.00001,177.29968999999997 C 282.00001,178.17868999999996 282.00001,178.98568999999998 282.00001,179.85701999999998 L 282.00001,180.79735999999997 L 282.00001,181.63602999999998" fill="none" id="svg_2" stroke="#000" stroke-width="2"/>
</svg>
