<?xml version="1.0" ?>
<svg baseProfile="full" height="480" version="1.1" width="640" xmlns="http://www.w3.org/2000/svg" xmlns:ev="http://www.w3.org/2001/xml-events" xmlns:xlink="http://www.w3.org/1999/xlink">
	<defs/>
	<path d="M 253.0,215.0 C 253.0,204.67149 253.0,204.07866 253.0,203.056 C 253.0,202.17734000000002 253.0,201.35466000000002 253.0,200.5 C 253.0,199.548 253.0,198.524 253.0,198.0 C 253.0,196.95799 253.0,196.452 253.0,195.06433 C 253.0,194.26700000000002 252.99966,193.54167 253.0,192.51866 C 253.00034,191.47850000000003 252.98067,190.73871 253.08333,189.97917 C 253.1901,189.18931 253.63394,187.97969 254.14266999999998,187.196 C 254.41604999999998,186.77487 255.10224999999997,185.93588 255.47867,185.49201 C 255.87317,185.02679999999998 257.16971,183.50244999999998 257.62149,182.93600999999998 C 258.08847,182.35052 258.55673,181.74168999999998 259.03601,181.124 C 259.52042,180.49969 260.0068,179.87288999999998 260.50449,179.25799999999998 C 260.9975,178.64888 261.99311,177.49348999999998 262.50016,176.96434 C 262.99473,176.44823 263.49824,175.96016 264.01069,175.49733 C 265.02381,174.58231 265.55589000000003,174.15477 266.08534000000003,173.71867 C 267.16408,172.83015 267.7216,172.37898 268.28401,171.916 C 268.85295,171.44765 269.42515000000003,170.97446 270.57469000000003,170.02533 C 271.14726,169.55257 271.71467,169.08235 272.83336,168.16667 C 273.37822000000006,167.72069000000002 273.91582000000005,167.28343 274.45186,166.85716000000002 C 274.98384,166.43411000000003 276.05873,165.60710000000003 276.60985,165.20450000000002 C 277.16673,164.79770000000002 278.33077,163.99605000000003 278.94267,163.60018000000002 C 279.56541000000004,163.1973 280.20390000000003,162.80216000000001 280.85069000000004,162.41067 C 281.49861000000004,162.01849 282.14845,161.6345 283.43202,160.88534 C 284.66582,160.16523 285.25667000000004,159.82054000000002 285.83201,159.48667 C 286.39402,159.16054 287.49751000000003,158.53693 288.05067,158.24668 C 288.60289,157.95692 289.14903000000004,157.64097999999998 290.94285,156.922 C 291.56318000000005,156.67337 292.20701,156.46135 292.86134000000004,156.26801 C 293.51814,156.07393 294.17650000000003,155.86872 295.51735,155.65734 C 296.82655,155.45095 297.47878000000003,155.44877 298.11736,155.45467 C 299.38604000000004,155.46639 300.02108000000004,155.53906999999998 300.66137000000003,155.596 C 301.31011,155.65369 303.33306000000005,155.83819 304.04253000000006,155.8785 C 304.76641000000006,155.91964000000002 305.50075000000004,155.94584 306.24001000000004,155.96401 C 306.97912,155.98217 307.71337000000005,155.9908 308.43752000000006,155.9955 C 309.14669000000004,156.00011 311.13585000000006,156.0 311.74669000000006,156.0 C 312.33751000000007,156.0 313.47917000000007,156.0 314.0400200000001,156.0 C 315.16667000000007,156.0 316.3333500000001,155.99808 316.9428500000001,156.00034 C 318.20988000000006,156.00502 318.8615200000001,156.01645 319.52085000000005,156.04167999999999 C 320.18555000000003,156.06709999999998 320.85929000000004,156.05512 322.83335000000005,156.33334 C 323.48423,156.42507999999998 324.13953000000004,156.5693 324.81483000000003,156.75485 C 325.53874,156.95375 326.31663000000003,157.21824 327.16535000000005,157.54535 C 328.11497,157.91133000000002 329.17258000000004,158.3519 331.66666000000004,159.50002 C 333.14615000000003,160.18108 334.74341000000004,160.95313000000002 336.43366000000003,161.77852000000001 C 338.18613000000005,162.63431000000003 339.96042000000006,163.51672000000002 341.72266,164.40802000000002 C 343.44504,165.27916000000002 345.09598,166.10933000000003 348.0,167.66669000000002 C 349.21851,168.32015 350.27576,168.91487 351.198,169.45618000000002 C 352.01937999999996,169.93828000000002 352.75210999999996,170.39255000000003 353.42400999999995,170.82268000000002 C 354.06401999999997,171.23239 354.68377999999996,171.65186000000003 355.99999999999994,172.50002 C 356.72616999999997,172.96796 357.50744999999995,173.45557 358.32949999999994,173.96702000000002 C 359.1834099999999,174.49829000000003 360.06301999999994,175.04087 360.95599999999996,175.59602 C 361.85601999999994,176.15553 362.75802999999996,176.70933000000002 364.50001,177.83336 C 365.33793,178.37402 366.14326,178.90997 366.91501999999997,179.44287 C 367.66319,179.95947 368.37955999999997,180.47313 369.06001,180.98936 C 369.71948999999995,181.48968 370.35969,181.97636 371.50001,183.00003 C 372.04510999999997,183.48936 372.54877999999997,183.99409 373.02851,184.49553 C 373.49671,184.98491 373.93942999999996,185.47751 374.36802,185.96404 C 374.7884,186.44123000000002 375.19001000000003,186.92002000000002 376.00001,187.83336 C 376.39759,188.28166 376.80213,188.72046 377.21351,189.15636 C 377.63011,189.59781 378.06144,190.04274 378.508,190.49736000000001 C 378.9704,190.96811000000002 379.45590999999996,191.4548 380.5,192.50003 C 381.06378,193.06442 381.65283,193.65256000000002 382.25351,194.26703 C 382.86755,194.89519 383.48392,195.53731000000002 384.08801,196.19603 C 384.6896,196.85202 385.29100999999997,197.49611000000002 386.33334,198.83336 C 386.82785,199.46777 387.26584,200.10817 387.67584,200.73387 C 388.07235,201.33902 388.43756,201.93748 388.79332999999997,202.51736 C 389.13921999999997,203.08114 389.45831,203.64271 390.16664999999995,204.6667 C 390.51091999999994,205.16438 390.87929999999994,205.63318999999998 391.25264999999996,206.08569 C 391.62075,206.53184 391.99855999999994,206.95965 392.37465999999995,207.37869 C 392.7459099999999,207.79231000000001 393.1230699999999,208.1911 393.83333999999996,209.00003 C 394.18219,209.39732 394.51863999999995,209.80054 394.84731999999997,210.20903 C 395.17733999999996,210.61922 395.50222999999994,211.04004 395.82534999999996,211.47203000000002 C 396.15493999999995,211.91267000000002 396.48788999999994,212.36795 397.16666,213.33336000000003 C 397.52387,213.84143000000003 397.88626,214.37059000000002 398.26617999999996,214.90987000000004 C 398.65558,215.46262000000004 399.05792999999994,216.02430000000004 399.48267,216.58536000000004 C 399.91422,217.15540000000004 400.34961,217.73706000000004 401.33335,218.83336000000003 C 401.83155,219.38857000000002 402.36356,219.91794000000002 402.90534,220.43837000000002 C 403.44626000000005,220.95798000000002 403.99839000000003,221.46014000000002 404.54935,221.95337 C 405.09308,222.44014 405.63663,222.90817 406.66666,223.83336 C 407.15988999999996,224.2764 407.63489,224.71715 408.10366999999997,225.15187 C 408.57088999999996,225.58514 409.04004,226.02261000000001 409.52268,226.46136 C 410.01801,226.91168000000002 410.52982,227.37982000000002 411.66666,228.33335000000002 C 412.28028,228.84804000000003 412.93188999999995,229.36715000000004 413.60166,229.89635 C 414.27857,230.43119000000002 414.95822999999996,230.95850000000002 415.62667999999996,231.47736 C 416.27486999999996,231.9805 416.89870999999994,232.45456000000001 417.99999999999994,233.33335 C 418.47384999999997,233.71144999999999 418.89354999999995,234.05952 419.27050999999994,234.38036 C 419.61742999999996,234.67566 419.93783999999994,234.95798 420.24398999999994,235.22935999999999 C 420.54479999999995,235.49600999999998 420.8444799999999,235.76941 421.49999999999994,236.33335 C 421.8623999999999,236.64512 422.25374999999997,236.97047 422.66698999999994,237.30984999999998 C 423.0963699999999,237.66250999999997 423.54067999999995,238.02208 423.9959999999999,238.38535 C 424.91667999999993,239.11986 425.83208999999994,239.83498 426.2791699999999,240.17884999999998 C 427.1583499999999,240.85506999999998 427.6023499999999,241.19129999999998 428.5333199999999,241.86135 C 429.0219099999999,242.213 429.5356099999999,242.57589 430.6666499999999,243.33335 C 431.2829499999999,243.74608 431.9348099999999,244.16854 432.6106499999999,244.60085 C 433.3001299999999,245.04189 433.9988599999999,245.48104 434.6986599999999,245.91335 C 435.3881999999999,246.33933000000002 436.0585499999999,246.75594 437.33332999999993,247.50002 C 438.4552499999999,248.15487000000002 438.9776499999999,248.43427 439.9374899999999,248.97919000000002 C 440.3942199999999,249.23848 441.2903999999999,249.75074 442.1666499999999,250.33335000000002 C 443.0980199999999,250.95260000000002 443.5615799999999,251.30997000000002 444.0466499999999,251.66135000000003 C 445.0464699999999,252.38561 445.5575399999999,252.75785000000002 446.0866599999999,253.11736000000002 C 447.15843999999987,253.84559000000002 447.7160899999999,254.19025000000002 448.88414999999986,254.86086000000003 C 449.4966699999999,255.21251000000004 450.1454699999999,255.56318000000002 450.82664999999986,255.93335000000002 C 451.54710999999986,256.32488 452.31663999999984,256.73399 453.99998999999985,257.66667 C 454.92951999999985,258.18168000000003 455.9012999999999,258.73341 456.90699999999987,259.30168000000003 C 457.93061999999986,259.88008 458.95689999999985,260.46092000000004 459.9759999999999,261.02669000000003 C 460.9682499999999,261.57753 461.91352999999987,262.11635 463.66663999999986,263.00002 C 464.42383999999987,263.3817 465.12162999999987,263.69878 465.76514999999984,263.97503 C 466.36316999999985,264.23174 466.9376399999998,264.458 467.49463999999983,264.68002 C 468.04996999999986,264.90133000000003 468.62399999999985,265.11541 469.83331999999984,265.66668 C 470.5115999999998,265.97587999999996 471.2249199999998,266.33556 471.97229999999985,266.72418 C 472.75037999999984,267.12874999999997 473.54352999999986,267.55914 474.34531999999984,268.00668 C 475.15290999999985,268.45746 475.95621999999986,268.91061 477.4999799999998,269.83337 C 478.2383499999998,270.27472 478.9491699999998,270.71411 479.6329799999998,271.16085 C 480.3064999999998,271.60087999999996 480.9641299999998,272.05465 481.6039899999998,272.53335 C 482.2495899999998,273.01632 482.9028199999998,273.51601999999997 484.1666399999998,274.66668 C 484.8328699999998,275.27324999999996 485.4884199999998,275.93438 486.1526599999998,276.61967999999996 C 486.8298499999998,277.31831999999997 487.5015099999998,278.04026999999996 488.1746299999998,278.77067999999997 C 488.8488199999998,279.50228 489.5108099999998,280.23945999999995 490.8333199999998,281.66668 C 491.4753199999998,282.35952 492.1116999999998,283.02846999999997 492.7247999999998,283.69018 C 493.3236499999998,284.33651 493.8958199999998,284.97918 494.4453199999998,285.61468 L 494.9667999999998,286.24819 L 495.4573099999998,286.88268000000005" fill="none" id="svg_2" stroke="#000" stroke-width="2"/>
</svg>
