<?xml version="1.0" ?>
<svg baseProfile="full" height="480" version="1.1" width="640" xmlns="http://www.w3.org/2000/svg" xmlns:ev="http://www.w3.org/2001/xml-events" xmlns:xlink="http://www.w3.org/1999/xlink">
	<defs/>
	<path d="M 376.5,132.89999 C 379.10001,132.89999 380.10071,132.86723 381.09549,132.90449 C 381.84418,132.93254000000002 382.76964999999996,133.22685 383.5,133.89999 C 384.01996,134.37921 384.81253,135.01843 385.21466,135.69999 C 385.66785,136.46812000000003 385.81667999999996,137.37096000000003 386.14734,138.24732 C 386.48073999999997,139.13093 386.7897,139.9569 387.14734,140.6 C 387.62174,141.45311999999998 388.02179,142.24624 388.37865999999997,142.99999 C 388.78304999999995,143.85404 389.16772,144.50419 389.41598,145.38267 C 389.63873,146.17078999999998 390.16499999999996,146.89747 390.8045,147.60532999999998 C 391.30267000000003,148.15673999999999 392.02243000000004,148.63175999999999 392.84732,149.00534 C 393.66415,149.37527 394.0325,150.12529999999998 394.70132,151.01601 C 395.10339,151.55143999999999 395.82132,152.22132 396.5,152.9 C 397.01599,153.41601 397.74756,154.14712 398.25266,154.65267 C 398.98301,155.38369 399.59226,155.81838 400.16666,156.73334 C 400.60916,157.4382 400.97565,158.29694 401.30133,158.87067 C 401.87234,159.87658 402.00595,160.43961 402.29999,161.30267999999998 C 402.70694,162.49720999999997 402.91913,163.09214999999998 403.14282,164.00000999999997 C 403.36287999999996,164.89323 403.45907,165.79932999999997 403.48931999999996,166.70000999999996 C 403.50946,167.29975999999996 403.49999999999994,168.49868999999995 403.49999999999994,169.37917999999996 C 403.49999999999994,170.21466999999996 403.49941999999993,171.21334999999996 403.49999999999994,172.05333999999996 C 403.50066999999996,173.01466999999997 403.72808999999995,173.86455999999995 404.07467999999994,174.53600999999998 C 404.49398999999994,175.34828 404.55267999999995,176.24733999999998 404.85265999999996,177.14284999999998 L 405.33333999999996,177.90000999999998 L 405.58401,178.70001 L 406.0,179.42085" fill="none" id="svg_2" stroke="#000" stroke-width="2"/>
</svg>
