<?xml version="1.0" ?>
<svg baseProfile="full" height="480" version="1.1" width="640" xmlns="http://www.w3.org/2000/svg" xmlns:ev="http://www.w3.org/2001/xml-events" xmlns:xlink="http://www.w3.org/1999/xlink">
	<defs/>
	<path d="M 282.0,188.0 C 285.328,187.036 286.36807,187.12576 287.16666,186.66667 C 287.89133,186.25006000000002 288.29575,185.65191000000002 288.89016999999996,184.76167 C 289.3616099999999,184.05562 290.21957999999995,183.73387 290.75717,183.23832000000002 C 291.51061999999996,182.54382 292.01254,182.01234000000002 292.83333999999996,181.16666 C 293.36150999999995,180.62249 293.73571,180.03565 293.95633,178.99465 C 294.11330999999996,178.25387 294.4437,177.2647 295.0625,176.81432 C 295.70981,176.3432 296.9397,175.99442000000002 297.45834,175.45832000000001 C 298.12530000000004,174.76891 298.2658,173.97617000000002 298.63598,173.25066 C 299.11764,172.30666000000002 299.83605,171.66140000000001 300.40450000000004,171.25182 C 301.20009000000005,170.67859 301.80690000000004,170.17122 302.39998,169.59549 C 303.2094,168.80974 303.81172000000004,168.21989000000002 304.34282,167.59999000000002 C 305.00774,166.82388000000003 305.34844000000004,166.17210000000003 305.80983000000003,165.59999000000002 C 306.49089000000004,164.75549 307.25899000000004,164.21016000000003 307.74931000000004,163.79999 C 308.6829,163.01903000000001 309.15208,162.36753000000002 309.65065000000004,161.83599 C 310.47700000000003,160.95498 311.25386000000003,160.6431 311.99464000000006,160.30450000000002 C 312.86116000000004,159.90843 313.4625700000001,159.40457 314.54283000000004,159.12117 C 315.24538,158.93686 316.0518,158.89017 317.07881000000003,158.55733 L 317.78532,158.14934 L 318.50981,157.70534" fill="none" id="svg_2" stroke="#000" stroke-width="2"/>
</svg>
