<?xml version="1.0" ?>
<svg baseProfile="full" height="480" version="1.1" width="640" xmlns="http://www.w3.org/2000/svg" xmlns:ev="http://www.w3.org/2001/xml-events" xmlns:xlink="http://www.w3.org/1999/xlink">
	<defs/>
	<path d="M 259.0,162.0 C 257.39999,162.57466 256.59824,162.93474 255.68649,163.0045 C 254.94178,163.06148000000002 253.94531999999998,163.2747 253.32399999999998,163.436 C 252.35356,163.68795 251.25973,164.09115 250.56249,164.47917 C 249.79462,164.90649000000002 248.94043,165.28496 248.29999,165.64734 C 247.47920000000002,166.11176 247.03853,166.72151000000002 246.29015,167.2955 C 245.71096,167.73973 244.62578000000002,167.86082000000002 243.69999,168.0045 C 242.88093,168.13161 242.01902,168.43165000000002 241.35716000000002,169.05267 C 240.75267000000002,169.61985 241.05758000000003,170.64212 241.80133000000004,171.084 C 242.50040000000004,171.49933000000001 243.38933000000003,171.97467 244.00000000000003,172.5 C 244.61067000000003,173.02533 245.43924000000004,173.40385 245.91600000000003,174.19867 C 246.33043000000004,174.88956 247.25729,174.83629 248.10001000000003,175.22133 C 248.76931000000002,175.52713 249.53026000000003,175.94113 250.40000000000003,176.42534 C 251.12858000000003,176.83096 252.00088000000002,176.96280000000002 252.80001000000004,177.0 C 253.71764000000005,177.04271 254.23208000000005,177.81778 255.09985000000003,178.00017 C 255.89215000000004,178.1667 256.35572,178.97141 257.20002000000005,179.0 C 258.09950000000003,179.03047 259.00001000000003,179.0 259.80000000000007,179.0 C 260.70002000000005,179.0 261.6000200000001,179.0 262.5000100000001,179.0 L 263.4000000000001,179.0 L 264.2999900000001,179.0" fill="none" id="svg_2" stroke="#000" stroke-width="2"/>
</svg>
