<?xml version="1.0" ?>
<svg baseProfile="full" height="480" version="1.1" width="640" xmlns="http://www.w3.org/2000/svg" xmlns:ev="http://www.w3.org/2001/xml-events" xmlns:xlink="http://www.w3.org/1999/xlink">
	<defs/>
	<path d="M 223.51137,143.09091 C 222.51137,142.09091 222.51137,141.21225 222.51137,140.38641 C 222.51137,139.52691000000002 221.99054,139.09091 221.11138,139.09091 C 220.21137,139.09091 219.31137999999999,139.09091 218.41137,139.09091 C 217.51138,139.09091 216.71137000000002,139.09091 215.81138,139.09091 C 214.91137,139.09091 214.03221000000002,139.09091 213.15421,139.09091 C 212.21137000000002,139.09091 211.30277,138.9669 210.41153,139.09108 C 209.60967,139.2028 209.13423,140.00797 208.5367,140.51625 C 207.90947,141.04979 206.95687,140.89156000000003 206.21587,141.44807 C 205.46083,142.01513 205.24053999999998,142.86094 204.51137,143.25758 C 203.80626,143.64112 203.51137,143.57008 203.51137,142.61174 C 203.51137,141.73825 204.07117,141.35345 204.47537,140.65491 C 204.90631,139.91014 205.04384,139.21036 205.51137,138.57009 C 206.08733,137.78135 206.19121,136.85714 206.79537,136.17492 C 207.32187,135.58038 208.22805,135.21374999999998 208.50071,134.48024999999998 C 208.80352,133.66564 209.02940999999998,132.93202 209.59538,132.37491999999997 C 210.26651,131.71428999999998 210.86851000000001,131.14766999999998 211.71005,131.09091999999998 C 212.56401,131.03332999999998 213.22596,130.56204 213.93672,130.08024999999998 C 214.61835000000002,129.61822999999998 215.21586000000002,129.09317 216.11139,129.09091999999998 C 217.01138,129.08865999999998 217.91138,129.09091999999998 218.81139,129.09091999999998 L 219.71138,129.09091999999998" fill="none" id="svg_2" stroke="#000" stroke-width="2"/>
</svg>
