<?xml version="1.0" ?>
<svg baseProfile="full" height="480" version="1.1" width="640" xmlns="http://www.w3.org/2000/svg" xmlns:ev="http://www.w3.org/2001/xml-events" xmlns:xlink="http://www.w3.org/1999/xlink">
	<defs/>
	<path d="M 244.0,249.0 C 244.0,250.8 244.0,251.7 244.0,252.60001 C 244.0,253.41066 244.0,254.32134 244.0,255.17467 C 244.0,256.11466 244.08868,257.1044 244.0,258.0 C 243.91626,258.8457 243.25905,259.33307 242.64284,259.95184 C 242.0145,260.58279 241.55055000000002,261.05423 241.0,261.83334 C 240.52121,262.51089 239.67444,263.0935 238.97917,263.52084 C 238.39520000000002,263.87979 237.58912,264.47339 237.0,265.02084 C 236.38846,265.58914000000004 235.61261,266.41668000000004 234.95833,267.0 C 234.49616,267.41205 233.36141999999998,268.20688 232.69467,268.60001 C 232.00416,269.00715 231.28546,269.36896 230.33333,270.0 C 229.75942999999998,270.38037 229.05435,270.97055 228.48801,271.51468 C 227.74634,272.22723 227.0093,272.88745 226.2,272.99866 C 225.36299,273.11364999999995 224.99221,273.93902999999995 225.7045,274.0 C 226.59673999999998,274.07635 227.52101,274.01672 228.32134,273.99985 C 229.17524,273.98184 230.07228999999998,273.62689 230.88401,273.284 C 231.62228,272.97213999999997 232.52077,273.07932 233.52084,272.97916 C 234.34221,272.89687999999995 235.25583,272.55399 236.05185,272.35265999999996 C 237.07214,272.09462999999994 237.77339,272.08181999999994 238.59868,271.91597999999993 C 239.61627000000001,271.7115099999999 240.19705,271.3832299999999 241.20001,270.90016999999995 C 241.99769,270.51597999999996 242.58462,270.20268999999996 243.59552,270.0571499999999 C 244.50697,269.9259199999999 245.51775999999998,270.0413699999999 246.32135,269.7786499999999 C 247.1992,269.49162999999993 247.972,269.06218999999993 248.79868,269.0013399999999 C 249.69759,268.9351799999999 250.60003999999998,268.9940199999999 251.56402,268.9999999999999 C 252.42541,269.0053399999999 253.00002,269.5208399999999 253.43603,270.3999899999999 L 254.00002999999998,270.9999999999999 L 254.60003999999998,271.6000099999999" fill="none" id="svg_2" stroke="#000" stroke-width="2"/>
</svg>
