<?xml version="1.0" ?>
<svg baseProfile="full" height="480" version="1.1" width="640" xmlns="http://www.w3.org/2000/svg" xmlns:ev="http://www.w3.org/2001/xml-events" xmlns:xlink="http://www.w3.org/1999/xlink">
	<defs/>
	<path d="M 147.0,151.0 C 154.4785,152.75684 155.11375,152.84023 155.74283,152.88116 C 156.97785,152.96152999999998 157.58965,152.95512 158.1955,152.93383 C 160.00168000000002,152.8704 160.60064,152.78416 161.20000000000002,152.71465 C 162.40137000000001,152.57532 163.00029,152.48111 163.60001000000003,152.38932 C 164.20031000000003,152.29745 166.00003000000004,152.00014 166.59967000000003,151.89999 C 167.19736000000003,151.80015 168.37891000000002,151.60138 168.95833000000002,151.5 C 170.08614000000003,151.30267 170.63173,151.21194 172.15666000000002,150.89999 C 172.62742000000003,150.80368 173.50932,150.61036000000001 174.30667000000003,150.39999 C 175.02920000000003,150.20935 176.22658,149.7977 176.93750000000003,149.52082000000001 C 177.97646000000003,149.11619000000002 179.21381000000002,148.37157000000002 179.54401000000001,149.17066000000003 C 179.86715,149.95264000000003 178.49265000000003,150.43796000000003 177.66668,150.99999000000003 C 177.04398,151.42370000000003 176.32681000000002,151.80855000000003 175.57868000000002,152.23598 C 174.79607000000001,152.68311 173.99276000000003,153.15564 173.20000000000002,153.68532000000002 C 172.39246000000003,154.22487 171.99684000000002,154.51651 171.20000000000002,155.10449000000003 C 169.9952,155.99350000000004 169.59883000000002,156.29783000000003 168.80901000000003,156.89548000000002 C 168.04021000000003,157.47722000000002 167.66556000000003,157.75589000000002 166.97068000000002,158.31465000000003 C 166.03420000000003,159.06767000000002 165.26722,159.75897000000003 164.82134000000002,160.18931000000003 C 163.99099,160.99073000000004 163.4045,161.59999000000005 162.836,162.19998000000004 L 162.16667,162.99998000000005 L 161.75717,163.59548000000004 L 161.3045,164.34281000000004" fill="none" id="svg_2" stroke="#000" stroke-width="2"/>
</svg>
