<?xml version="1.0" ?>
<svg baseProfile="full" height="480" version="1.1" width="640" xmlns="http://www.w3.org/2000/svg" xmlns:ev="http://www.w3.org/2001/xml-events" xmlns:xlink="http://www.w3.org/1999/xlink">
	<defs/>
	<path d="M 173.0,238.0 C 173.10001,238.2215 173.70108,238.70341 174.39999,239.39999 C 175.10109,240.09875 175.69999,240.64283 176.5,241.0 C 177.3,241.35716 177.92586,242.09111 178.60001,242.564 C 179.34398,243.08585 180.31853,243.22826 181.0,243.5 C 181.97459,243.88863 182.68356,244.07544 183.52083,244.5 C 184.3105,244.90044 185.18303,244.95419 185.97916999999998,245.5 C 186.61487,245.93582 187.47548999999998,245.92413 188.29999999999998,246.35266 C 189.14941,246.79414 189.9391,247.21522 189.99999999999997,248.1 C 190.06179999999998,248.99787 189.90589999999997,249.79487 189.49999999999997,250.49999 C 189.04271999999997,251.29435 188.63259999999997,252.14798 188.28399999999996,252.79999 C 187.83093999999997,253.64737 187.38880999999995,254.47714000000002 187.12133999999998,255.32149 C 186.90699999999998,255.99814 186.84759999999997,257.00475 186.57465999999997,257.79998 C 186.29834999999997,258.60506 186.03676999999996,259.60332 186.01065999999997,260.23598 C 185.96178999999998,261.42037 185.99998999999997,262.22533 185.99998999999997,263.04731999999996 C 185.99998999999997,264.07847999999996 185.99998999999997,264.76399 185.99998999999997,265.59864999999996 C 185.99998999999997,266.60447999999997 185.99998999999997,267.45714 185.99998999999997,268.42130999999995 C 185.99998999999997,269.22532999999993 185.99998999999997,270.04731999999996 185.99998999999997,271.07865999999996 C 185.99998999999997,271.99998999999997 185.99998999999997,272.68397999999996 185.99998999999997,273.68665999999996 C 185.99998999999997,274.54164 185.99697999999998,275.48664999999994 186.00015999999997,276.52115999999995 C 186.00238999999996,277.24814999999995 185.97636999999997,277.98279999999994 186.08531999999997,279.03065 C 186.18214999999998,279.96191999999996 186.40872999999996,280.73994 186.80131999999998,281.59729999999996 C 187.17443999999998,282.41214999999994 187.60211999999999,283.19892 187.99998999999997,283.99997999999994 C 188.40211999999997,284.8095799999999 188.71408999999997,285.4513999999999 189.10015999999996,286.42148999999995 C 189.42248999999995,287.23136999999997 189.73116999999996,288.11679999999996 190.16665999999995,288.99997999999994 C 190.46761999999995,289.61035999999996 191.02387999999996,290.5189899999999 191.40447999999995,291.15714999999994 C 192.00483999999994,292.16376999999994 192.40330999999995,292.88016999999996 192.78931999999995,293.61463999999995 C 193.16857999999993,294.3362599999999 193.51491999999996,295.03052999999994 193.97847999999993,295.95698999999996 C 194.36420999999993,296.72785999999996 194.70160999999993,297.38793 195.19997999999993,298.40133 C 195.50373999999994,299.01901 195.81432999999993,299.67971 196.19997999999993,300.68397999999996 C 196.51163999999991,301.49558999999994 196.77854999999994,302.32484999999997 197.19997999999993,303.31465999999995 C 197.48558999999992,303.98546999999996 197.99263999999994,305.00374999999997 198.29998999999992,305.59547999999995 C 198.6907099999999,306.34770999999995 199.32818999999992,307.23945999999995 199.7571599999999,307.86698999999993 C 200.35523999999992,308.74189999999993 200.6566799999999,309.36036999999993 200.9999899999999,310.02082999999993 C 201.35145999999992,310.6970099999999 201.9709799999999,311.9609499999999 202.24731999999992,312.48563999999993 C 202.61517999999992,313.18409999999994 203.3161499999999,314.20438999999993 203.82531999999992,314.7999699999999 C 204.34209999999993,315.4044599999999 204.9725799999999,316.2039299999999 205.37464999999992,316.7893199999999 C 205.87644999999992,317.51987999999994 206.6714499999999,318.2331699999999 207.21064999999993,318.6613299999999 C 208.02245999999994,319.3059799999999 208.59834999999993,320.00666999999993 208.99998999999994,320.4999799999999 C 209.59754999999993,321.23395999999985 210.38372999999993,322.0502699999999 210.97915999999995,322.4583199999999 C 211.81345999999996,323.0300699999999 212.46789999999996,323.5465799999999 213.32148999999995,324.0999799999999 C 213.99747999999997,324.5382399999999 214.59463999999994,324.8135999999999 215.59548999999996,325.2954799999999 C 216.33799999999997,325.6529899999999 217.25699999999995,325.9224299999999 217.96931999999995,326.08398999999986 C 219.01419999999996,326.32095999999984 219.77778999999995,326.54940999999985 220.66665999999995,326.9999799999999 C 221.36419999999995,327.3535599999999 222.13931999999994,328.05219999999986 222.84664999999995,328.3893199999999 C 223.65980999999996,328.7768599999999 224.68398999999997,328.91595999999987 225.49998999999997,328.9999799999999 C 226.31597999999997,329.08398999999986 227.31478999999996,329.2835199999999 227.97915999999998,329.4999799999999 C 229.00021999999998,329.8326499999999 229.78893999999997,329.97330999999986 230.51465,329.99863999999985 C 231.52044999999998,330.03376999999983 232.54253,330.22232999999983 233.26131999999998,330.42530999999985 C 234.05149999999998,330.6484199999999 235.07554,330.90684999999985 235.76398999999998,330.9639799999999 C 236.59650999999997,331.0330699999999 237.61713999999998,330.8711499999999 238.51465,331.08531999999985 C 239.40453,331.29765999999984 240.19751,331.9560799999999 240.88531999999998,331.9986499999998 C 241.82351999999997,332.05668999999983 242.83332,331.99998999999985 243.69548999999998,331.99998999999985 C 244.59999999999997,331.99998999999985 245.49998999999997,331.99998999999985 246.39998999999997,331.99998999999985 C 247.30449999999996,331.99998999999985 248.16666999999998,331.99998999999985 248.99999999999997,331.99998999999985 C 249.97849999999997,331.99998999999985 250.83040999999997,332.1867599999999 251.69999999999996,331.94282999999984 C 252.48449999999997,331.72279999999984 253.32795999999996,330.98765999999983 254.00533999999996,330.6999999999998 C 254.74372999999997,330.3864299999998 255.70815999999996,330.0616599999998 256.328,329.5999899999998 C 257.16366,328.97754999999984 257.65135999999995,328.20221999999984 258.5,328.0208299999998 C 259.38034,327.8326599999998 260.30652,327.8930199999998 261.20001,328.0013299999998 C 262.11978000000005,328.1128099999998 262.65411,328.8098299999998 263.6,328.9893099999998 C 264.48428,329.15709999999984 265.46618,329.13530999999983 266.20001,328.71464999999984 C 266.88656000000003,328.32109999999983 267.4151,327.3254299999998 268.29999000000004,327.0571499999998 C 269.16303000000005,326.7954899999998 270.10001000000005,326.9999899999998 271.00000000000006,326.9999899999998 C 271.75717000000003,326.9999899999998 272.65268000000003,326.9999899999998 273.51599000000004,326.9999899999998 L 274.47916000000004,326.9999899999998 L 275.45835000000005,326.9999899999998" fill="none" id="svg_2" stroke="#000" stroke-width="2"/>
</svg>
