<?xml version="1.0" ?>
<svg baseProfile="full" height="480" version="1.1" width="640" xmlns="http://www.w3.org/2000/svg" xmlns:ev="http://www.w3.org/2001/xml-events" xmlns:xlink="http://www.w3.org/1999/xlink">
	<defs/>
	<path d="M 216.0,193.0 C 218.68666,192.08533 219.54153,192.01169 220.48666,192.00133 C 221.5216,191.98999 222.26167,192.0 223.04167,192.0 C 223.86166,192.0 225.16667,192.0 226.08667,192.0 C 226.56166,192.0 227.54167,192.0 228.04666,192.0 C 229.08667,192.0 230.16667,192.0 231.284,192.0 C 231.85266,192.0 233.0,192.0 233.57466,192.0 C 234.14733999999999,192.0 235.83333,192.0 236.37849,192.0 C 237.44284,192.0 237.964,192.0 238.98933,192.0 C 239.99867,192.0 241.0,192.0 242.00132,192.0 C 242.50449,192.0 243.52082,192.0 244.03599,192.0 C 245.08532,192.0 246.16667,192.0 247.28399,192.0 C 247.85264999999998,192.0 248.99999,192.0 249.57465,192.0 C 250.14732999999998,192.0 251.83332,192.0 252.37848,192.0 C 253.44283,192.0 253.96399,192.0 254.98932,192.0 C 255.99866,192.0 256.99998999999997,192.0 257.99863999999997,192.0 C 258.4955,192.0 259.47914,192.0 260.44282,192.0 C 260.91465,192.0 262.27882,192.0 263.1518,192.0 C 264.02081999999996,192.0 264.90979999999996,192.0 265.36929999999995,192.0 C 266.84295999999995,192.0 267.37064,192.0 268.47195999999997,192.0 C 269.04162999999994,192.0 270.20899,192.0 270.80264999999997,192.0 C 271.99998,192.0 273.1973,191.9998 273.79096,192.0045 C 274.37863999999996,192.00915 275.52839,192.0273 276.08564,192.05716 C 277.66816,192.14198000000002 278.15986000000004,192.20395000000002 279.09016,192.35716000000002 C 279.98207,192.50406 280.84764,192.70689000000002 282.16664000000003,193.00000000000003 C 282.62114,193.10100000000003 283.55415000000005,193.29810000000003 284.49998000000005,193.52083000000002 C 284.97541000000007,193.63278000000003 285.92625000000004,193.85439000000002 287.27882000000005,194.32134000000002 C 287.72093000000007,194.47396000000003 288.58323000000007,194.83057000000002 289.46132000000006,195.17467000000002 C 289.90877000000006,195.35001000000003 291.33083000000005,195.84243 291.84297000000004,195.97850000000003 C 292.90944,196.26186 293.47032,196.37256000000002 294.62132,196.58934000000002 C 295.20820000000003,196.69987000000003 295.80262000000005,196.79887000000002 296.99998000000005,197.00000000000003 C 298.19996000000003,197.20155000000003 298.80055000000004,197.30135000000004 299.39997000000005,197.41066000000004 C 300.60114000000004,197.62970000000004 301.2017900000001,197.74899000000005 301.79996000000006,197.88533000000004 C 303.60559000000006,198.29689000000005 304.20020000000005,198.48004000000003 304.7954700000001,198.65717000000004 C 305.98230000000007,199.01030000000003 306.5647900000001,199.20824000000005 307.1427900000001,199.40450000000004 C 307.7154500000001,199.59894000000003 309.3796700000001,200.19790000000003 309.9173000000001,200.40134000000003 C 310.98700000000014,200.80614000000003 311.5215200000001,201.01909000000003 312.0613100000001,201.23600000000005 C 313.1707500000001,201.68179000000003 314.3334700000001,202.16631000000004 314.9428100000001,202.42135000000005 C 315.5694600000001,202.68363000000005 316.20883000000015,202.95498000000003 317.5208100000001,203.50001000000006 C 318.1848100000001,203.77586000000005 318.8505800000001,204.05039000000005 319.5173000000001,204.31600000000006 C 320.8309300000001,204.83935000000005 321.4779600000001,205.07915000000006 322.1119700000001,205.31600000000006 C 323.3422900000001,205.77563000000006 323.9398800000001,205.99393000000006 324.5173000000001,206.22533000000007 C 325.63272000000006,206.67232000000007 326.67160000000007,207.15731000000008 327.1574700000001,207.42150000000007 C 328.1092200000001,207.93902000000006 328.5594200000001,208.23688000000007 329.4866300000001,208.81068000000008 C 329.9621900000001,209.10498000000007 331.4971300000001,210.00541000000007 332.0641400000001,210.29985000000008 C 332.65041000000014,210.60428000000007 333.26012000000014,210.9005300000001 333.8866200000001,211.18935000000008 C 335.1553000000001,211.77423000000007 335.7981800000001,212.04503000000008 336.4332800000001,212.31469000000007 C 337.6648200000001,212.83759000000006 338.25774000000007,213.07677000000007 339.3856400000001,213.54736000000008 C 339.92836000000005,213.77379000000008 340.46181000000007,213.99208000000007 341.4909600000001,214.45269000000008 C 341.9990800000001,214.68012000000007 343.5019200000001,215.41865000000007 344.0026200000001,215.68668000000008 C 344.5106200000001,215.95862000000008 345.5422900000001,216.54055000000008 346.0719600000001,216.84668000000008 C 346.6149600000001,217.16052000000008 348.3331600000001,218.16695000000007 348.9424700000001,218.52135000000007 C 349.5664900000001,218.88430000000008 350.2012300000001,219.25194000000008 350.83996000000013,219.62535000000008 C 351.47955000000013,219.99927000000008 352.11440000000016,220.37283000000008 352.73745000000014,220.7473400000001 C 353.34774000000016,221.1141900000001 355.03671000000014,222.17674000000008 355.54528000000016,222.5133500000001 C 356.0339900000002,222.8368100000001 356.95586000000014,223.4620500000001 357.4039500000002,223.7533400000001 C 358.2766000000002,224.3206300000001 359.1604500000002,224.8452100000001 360.0866300000002,225.3173500000001 C 360.5585800000002,225.5579400000001 361.5428100000002,226.01834000000008 362.0466200000002,226.26135000000008 C 363.0891300000002,226.76419000000007 364.1692400000002,227.32869000000008 364.7213000000002,227.64285000000007 C 365.2866700000002,227.96460000000008 366.4264100000002,228.65956000000006 366.9999600000002,229.02084000000008 C 367.5757700000002,229.38354000000007 368.1467200000002,229.75273000000007 368.7159600000002,230.11735000000007 C 370.37664000000024,231.18110000000007 370.91313000000025,231.51490000000007 371.43828000000025,231.84284000000008 C 372.45802000000026,232.47964000000007 372.95516000000026,232.78641000000007 373.43828000000025,233.09551000000008 C 374.83876000000026,233.99154000000007 375.27901000000026,234.29928000000007 376.1472900000002,234.89550000000008 C 376.57481000000024,235.1890600000001 377.42027000000024,235.7718600000001 377.8526100000002,236.0428400000001 C 379.1519600000002,236.8571900000001 380.0825000000002,237.3189900000001 380.5526200000002,237.5473400000001 C 381.49705000000023,238.0060500000001 381.9818200000002,238.2108400000001 382.91593000000023,238.68401000000011 C 383.84064000000023,239.15242000000012 384.7206500000002,239.68143000000012 385.1517700000002,239.9616700000001 C 386.02775000000025,240.5311100000001 386.46140000000025,240.8465000000001 387.3692700000002,241.48666000000011 C 388.3334100000002,242.16650000000013 388.8414400000002,242.5230700000001 389.9052800000002,243.2526700000001 C 390.4499900000002,243.6262400000001 391.0001300000002,243.99974000000012 391.54929000000016,244.37466000000012 C 392.09479000000016,244.74707000000012 393.66709000000014,245.83265000000011 394.15711000000016,246.17833000000013 C 394.63108000000017,246.51268000000013 395.5360200000002,247.15711000000013 395.9791000000002,247.45833000000013 C 396.8431400000002,248.04573000000013 398.1635500000002,248.83907000000013 398.6212800000002,249.07883000000012 C 399.5466000000002,249.56351000000012 400.0299100000002,249.7762300000001 400.9746100000002,250.26134000000013 C 401.4496500000002,250.50527000000014 402.8411000000002,251.32236000000015 403.2784400000002,251.64284000000012 C 404.15906000000024,252.28815000000012 404.5669200000002,252.65790000000013 404.9790900000002,253.02083000000013 C 405.8014800000002,253.74501000000012 406.1864900000002,254.13121000000012 407.3999300000002,255.17867000000012 C 407.7960200000002,255.5205900000001 408.6009200000002,256.1734700000001 409.3999300000002,256.8253500000001 C 409.8004100000002,257.15207000000015 411.0021900000002,258.1641300000001 411.4001100000002,258.52133000000015 C 412.2090700000002,259.24753000000015 412.6085500000002,259.62756000000013 413.02078000000023,260.00000000000017 C 413.85302000000024,260.7518900000002 414.2638500000002,261.1435200000002 415.6210900000002,262.17868000000016 C 416.0756200000002,262.52536000000015 417.0154400000002,263.17346000000015 417.4790900000002,263.50000000000017 C 417.9394200000002,263.82419000000016 418.8550100000002,264.45514000000014 419.6665900000002,265.16666000000015 C 420.4553200000002,265.85813000000013 420.7990700000002,266.24918000000014 421.4790900000002,267.02085000000017 C 421.8191500000002,267.4067400000002 422.4674600000002,268.21461000000016 423.5214500000002,269.3998500000002 C 423.88018000000017,269.8032600000002 424.2495700000002,270.2029200000002 425.0207800000002,270.9791700000002 C 425.40686000000017,271.3677800000002 426.1921100000002,272.1249500000002 426.99994000000015,272.8333600000002 C 427.78848000000016,273.5248600000002 428.58023000000014,274.1621000000002 428.9582800000002,274.4791700000002 C 429.68872000000016,275.0918100000002 430.6820000000002,275.9858800000002 431.23193000000015,276.6013300000002 C 431.7645200000002,277.1973700000002 432.2479500000002,277.8381200000002 432.50528000000014,278.1571800000002 C 433.32492000000013,279.1734800000002 433.96774000000016,279.8867600000002 434.30978000000016,280.2571900000002 C 435.01764000000014,281.0237900000002 435.39163000000013,281.4048600000002 436.11728000000016,282.2013400000002 C 436.83966000000015,282.9942500000002 437.51831000000016,283.79805000000016 438.17459000000014,284.6000200000002 C 438.50113000000016,284.9990400000002 439.14838000000015,285.8035400000002 439.48395000000016,286.2000300000002 C 440.50867000000017,287.4108100000002 440.87760000000014,287.8060500000002 441.63593000000014,288.5893400000002 C 442.01697000000013,288.98293000000024 442.79950000000014,289.7482100000002 443.20127000000014,290.1146700000002 C 444.38554000000016,291.1948400000002 444.8007000000001,291.5164600000002 445.59995000000015,292.1853500000002 C 446.0003100000001,292.5204000000002 446.8075900000002,293.2014900000002 447.19996000000015,293.5693500000002 C 448.42442000000017,294.7173000000002 448.80363000000017,295.1660300000002 449.19996000000015,295.6098500000002 C 450.00752000000017,296.5141500000002 450.3996700000001,296.9855500000002 450.79994000000016,297.45186000000024 C 451.19969000000015,297.91756000000026 452.3978700000002,299.28029000000026 452.7986300000002,299.7146800000002 C 453.5855000000002,300.56752000000023 453.98030000000017,300.9780800000002 454.36397000000017,301.38936000000024 C 455.11693000000014,302.19652000000025 455.8434300000002,302.99150000000026 456.51329000000015,303.80135000000024 C 456.84337000000016,304.20040000000023 457.47319000000016,305.01073000000025 458.03828000000016,305.85720000000026 C 458.32081000000017,306.2804200000003 459.08540000000016,307.61846000000025 459.31596000000013,308.0880300000003 C 459.7885900000001,309.05062000000027 460.00264000000016,309.56136000000026 460.22529000000014,310.0826900000003 C 460.68952000000013,311.1696300000003 461.1656600000001,312.3337600000003 461.42146000000014,312.9426800000003 C 461.68431000000015,313.56841000000026 462.23387000000014,314.85162000000025 462.52079000000015,315.5000200000003 C 462.80854000000016,316.1502600000003 463.09946000000014,316.7970200000003 463.40128000000016,317.4320300000003 C 463.99030000000016,318.67132000000026 464.59736000000015,319.8306500000003 464.89093000000014,320.3901900000003 C 465.17871000000014,320.9386500000003 465.47464000000014,321.4712400000003 465.98560000000015,322.5481800000003 C 466.23740000000015,323.0789100000003 466.68757000000016,324.1600300000003 467.03196000000014,325.2840200000003 C 467.2052400000001,325.8495400000003 467.49784000000017,327.00057000000027 467.65061000000014,327.5747000000003 C 467.80317000000014,328.1479400000003 468.32462000000015,329.8367800000003 468.54261000000014,330.3783500000003 C 468.75938000000014,330.9168900000003 469.24839000000014,331.95446000000027 469.4999500000001,332.4583700000003 C 469.9902800000001,333.4405200000003 470.2736600000001,333.8950200000003 470.8572800000001,335.27887000000027 C 471.2209600000001,336.1412100000003 471.34928000000014,336.58536000000026 471.65061000000014,337.4613700000003 L 471.96793000000014,338.36936000000026" fill="none" id="svg_2" stroke="#000" stroke-width="2"/>
</svg>
