<?xml version="1.0" ?>
<svg baseProfile="full" height="480" version="1.1" width="640" xmlns="http://www.w3.org/2000/svg" xmlns:ev="http://www.w3.org/2001/xml-events" xmlns:xlink="http://www.w3.org/1999/xlink">
	<defs/>
	<path d="M 261.0,150.0 C 270.01382,154.83566 270.65668,155.14679 271.26685,155.433 C 271.8447,155.70404 272.92499,156.19647 273.42483999999996,156.44367 C 274.84403,157.14548 275.28925,157.40529 276.14734,157.96618 C 276.58017,158.24911 277.43161,158.87484 277.85265999999996,159.21884 C 279.18697999999995,160.30891 279.62291999999997,160.74095 280.08401,161.16801 C 280.55429,161.60359 281.49948,162.50058 281.97467,162.94935 C 282.44681,163.39523 282.90137,163.84844 284.27866,165.05734 C 284.71149,165.43724 285.14676000000003,165.79538000000002 286.0,166.50001 C 286.42505,166.85102 287.29132,167.55964 288.16666,168.33334 C 288.62521999999996,168.73865999999998 289.55514999999997,169.6118 290.02533,170.07201999999998 C 290.50253,170.53911 290.97977,171.01645 291.44733,171.50902 C 292.84882000000005,172.98549 293.27988000000005,173.4988 293.71601000000004,173.99868999999998 C 294.14854,174.49445999999998 294.56931000000003,174.99407999999997 295.42533000000003,175.96401999999998 C 295.85001000000005,176.44521999999998 296.26615000000004,176.93218999999996 297.16666000000004,177.83333999999996 C 298.06653000000006,178.73384999999996 298.55173,179.14839999999995 299.02533000000005,179.57466999999997 C 299.49905000000007,180.00105999999997 300.4521500000001,180.84749999999997 300.9159900000001,181.28400999999997 C 301.8430800000001,182.15645999999995 302.29007000000007,182.61064999999996 303.1383400000001,183.55268999999996 C 303.5592400000001,184.02010999999996 303.9650000000001,184.49456999999995 304.7383500000001,185.44733999999997 C 305.11662000000007,185.91336999999996 305.83393000000007,186.83287999999996 306.5146900000001,187.71334999999996 C 306.8431200000001,188.13813999999996 307.4748000000001,188.96180999999996 308.0955000000001,189.73833999999997 C 308.39659000000006,190.11502999999996 309.29597000000007,191.18230999999997 309.9000000000001,191.84734999999998 C 310.4960700000001,192.50361999999998 310.8080500000001,192.81811 311.4000000000001,193.48400999999998 C 312.31254000000007,194.51050999999998 312.9020400000001,195.25556999999998 313.2000200000001,195.63601999999997 C 313.8041800000001,196.40742999999998 314.1007800000001,196.80395999999996 315.0000100000001,198.00001999999998 C 315.5991900000001,198.79697 315.89204000000007,199.19366999999997 316.47917000000007,199.95834999999997 C 317.03956000000005,200.68823999999998 317.8327500000001,201.66722999999996 318.31468000000007,202.23335999999998 C 318.76344000000006,202.76050999999998 319.24241000000006,203.25285999999997 320.0000100000001,204.50001999999998 C 320.2158900000001,204.85537999999997 320.6047200000001,205.66917999999998 321.04167000000007,206.54169 C 321.2697600000001,206.99714999999998 321.73710000000005,207.94021999999998 322.3333600000001,208.83335 C 322.9362300000001,209.73637 323.2972600000001,210.14945 324.0208600000001,210.95835 C 324.3792000000001,211.35894 325.1174200000001,212.11329 325.8333600000001,212.83335 C 326.5134100000001,213.51729 327.1671300000001,214.17336 327.7533400000001,214.86135 C 328.0453300000001,215.20403 328.8510600000001,216.32339 329.31468000000007,217.16801999999998 C 329.55205000000007,217.60044 329.97947000000005,218.49988 330.3955200000001,219.39469 C 330.5988300000001,219.83195 331.1841900000001,221.06653 331.6090200000001,221.79468 C 332.0260100000001,222.50939 332.5038300000001,223.21308 333.3333500000001,224.33335 C 333.6388300000001,224.7459 334.3069200000001,225.61317 334.6506700000001,226.07202999999998 C 335.0016200000001,226.54048999999998 335.7027900000001,227.50356 336.0320200000001,228.00268999999997 C 336.6829000000001,228.98948999999996 337.2374000000001,229.99595999999997 337.4856600000001,230.50001999999998 C 337.97437000000014,231.49229999999997 338.1855200000001,231.99718 338.5973200000001,233.00001999999998 C 339.00680000000006,233.99723999999998 339.3996600000001,235.00053999999997 339.61349000000007,235.49551999999997 C 339.8276600000001,235.99124999999998 340.2877500000001,236.97575999999998 340.57150000000007,237.44285999999997 C 341.43957000000006,238.87184999999997 341.84747000000004,239.29402999999996 342.6579900000001,240.14285999999996 C 343.0677800000001,240.57200999999995 343.5049100000001,240.97413999999995 344.3420100000001,241.79551999999995 C 344.75040000000007,242.19624999999996 345.8486000000001,243.39063999999996 346.1440100000001,243.80268999999996 C 346.7180200000001,244.60331999999997 346.9670400000001,245.02711999999997 347.38650000000007,245.91434999999996 C 348.0472700000001,247.31195999999994 348.2026000000001,247.84169999999995 348.39999000000006,248.36800999999997 C 348.80529000000007,249.44869999999997 348.99670000000003,250.00121999999996 349.39999000000006,251.09467999999998 C 349.5983800000001,251.63260999999997 349.9931900000001,252.66951999999998 350.39868000000007,253.63067999999998 C 350.7829000000001,254.54143 350.9967000000001,254.97205 351.34283000000005,255.84817999999999 C 351.85974000000004,257.15654 351.98275000000007,257.6202 352.25183000000004,258.55269 C 352.52484000000004,259.49886 352.62295000000006,259.98811 352.96933,260.916 C 353.48642,262.30125 353.75995,262.72276 354.26132,263.58534 C 354.51608,264.02365999999995 355.06271000000004,264.90369999999996 355.31732,265.36933999999997 C 356.11285,266.82435999999996 356.32147,267.36469999999997 356.53833,267.90534999999994 C 356.97481999999997,268.9935499999999 357.16476,269.54563999999993 357.51333999999997,270.63199999999995 C 357.84423999999996,271.66324999999995 358.11704,272.63168999999994 358.24735,273.0946799999999 C 358.50201999999996,273.9994299999999 358.74994,274.90613999999994 358.88401,275.3680299999999 C 359.31281,276.84525999999994 359.47919,277.3700399999999 359.83601,278.45066999999995 C 360.01774,279.00104999999996 360.40004,280.09632999999997 360.60132999999996,280.6320099999999 C 360.99137999999994,281.6699699999999 361.39700999999997,282.6333199999999 361.79999999999995,283.5493699999999 C 361.99854999999997,284.00065999999987 362.40497999999997,284.9032499999999 362.60002,285.3680299999999 C 363.21614,286.83631999999994 363.39775,287.3712599999999 363.82133,288.4613499999999 C 364.03913,289.0218699999999 364.24271999999996,289.5987099999999 364.77067,290.7173599999999 C 365.30412,291.84763999999996 365.63301,292.3848999999999 365.97068,292.91599999999994 C 366.65205000000003,293.98761999999994 367.03953,294.50156999999996 367.42133,295.0253399999999 C 367.80686000000003,295.55423999999994 368.21366,296.0760299999999 369.40000000000003,297.7213499999999 C 369.80375000000004,298.28131999999994 370.20048,298.85232999999994 370.60001000000005,299.4253299999999 C 371.00049000000007,299.9996699999999 371.39429000000007,300.57870999999994 372.20002000000005,301.7160099999999 C 372.99442000000005,302.8373499999999 373.39854,303.3797399999999 373.80000000000007,303.9159899999999 C 374.1985900000001,304.44839999999994 375.00050000000005,305.4996399999999 375.40001000000007,306.0253299999999 C 375.8004900000001,306.55230999999986 376.2063100000001,307.0793799999999 377.00002000000006,308.16665999999987 C 377.4032200000001,308.71902999999986 378.20049000000006,309.8523299999999 378.60003000000006,310.42532999999986 C 379.0005100000001,310.99966999999987 379.39907000000005,311.57534999999984 379.80001000000004,312.14734999999985 C 380.19909000000007,312.71668999999986 381.39767000000006,314.38101999999986 381.80401000000006,314.91733999999985 C 382.2106600000001,315.4540499999999 382.6287500000001,315.98798999999985 383.06252000000006,316.52085999999986 C 383.50469000000004,317.06406999999984 383.96666000000005,317.61408999999986 384.45601000000005,318.16935999999987 C 385.48982000000007,319.34242999999987 386.06288000000006,319.9442299999999 386.65334000000007,320.5706999999999 C 387.26119000000006,321.21562999999986 387.8878700000001,321.8708999999999 388.5208600000001,322.5416799999999 C 389.1612100000001,323.2202399999999 389.80525000000006,323.9034999999999 390.4333400000001,324.60267999999985 C 391.6788500000001,325.98918999999984 392.2609200000001,326.6967999999998 392.8306800000001,327.39869999999985 C 393.3938800000001,328.09251999999987 393.9390200000001,328.78907999999984 394.4791800000001,329.47916999999984 C 395.0150400000001,330.16373999999985 395.5428400000001,330.84714999999983 396.0827000000001,331.51468999999986 C 397.1561300000001,332.84195999999986 397.7182900000001,333.4816999999999 398.2853700000001,334.1173499999999 C 398.8539700000001,334.75473999999986 399.43594000000013,335.3854499999999 400.0208700000001,336.0208499999999 C 400.6105900000001,336.66143999999986 401.20935000000014,337.3055199999999 401.8013600000001,337.9693399999999 C 403.0099500000001,339.32455999999985 403.6034800000001,340.04028999999986 404.2013500000001,340.7706699999999 C 404.8078900000001,341.5116099999999 405.4115900000001,342.27130999999986 406.0208700000001,343.0416699999999 C 406.6369300000001,343.8205999999999 407.2546000000001,344.61106999999987 407.88537000000014,345.4026899999999 C 409.16146000000015,347.0041899999999 409.81973000000016,347.8019499999999 410.4866900000001,348.6026699999999 C 411.1596900000001,349.41064999999986 411.84628000000015,350.2217199999999 412.5416800000001,351.0416699999999 C 413.2462400000001,351.8723899999999 413.9634300000001,352.7128699999999 414.6867000000001,353.5706899999999 C 416.1702800000001,355.3303299999999 416.9208300000001,356.2436599999999 417.6893600000001,357.1680099999999 C 418.46951000000007,358.10635999999994 419.26236000000006,359.0555799999999 420.08337000000006,360.0000099999999 C 420.91299000000004,360.9543599999999 421.7607100000001,361.9093099999999 422.65738000000005,362.8320099999999 C 424.46954000000005,364.6967899999999 425.45569000000006,365.56695999999994 426.45471000000003,366.42932999999994 C 427.45843,367.29574999999994 428.49301,368.1335199999999 429.54169,368.95834999999994 C 430.59171000000003,369.78421999999995 431.65607,370.59140999999994 432.71869000000004,371.39734999999996 C 434.8328,373.00079999999997 435.88031000000007,373.79807999999997 436.91602000000006,374.60132999999996 C 437.94898000000006,375.40245 438.97593000000006,376.20914999999997 440.00003000000004,377.02085999999997 C 441.02658,377.83448999999996 442.0538,378.65583999999996 443.08404,379.48533999999995 C 445.16888,381.16396 446.22189000000003,382.0210799999999 447.28536,382.88535999999993 C 448.35756000000003,383.75672999999995 449.43624,384.6357299999999 450.52086,385.5208599999999 C 451.61089000000004,386.41041999999993 452.70464000000004,387.3043699999999 453.80135,388.2013399999999 C 456.00026,389.9997399999999 457.09929,390.9009599999999 458.20134,391.7986899999999 C 459.30363,392.6966099999999 460.40849000000003,393.5920599999999 461.52086,394.4791699999999 C 462.63384,395.3667699999999 463.75188,396.2497699999999 464.88536000000005,397.1146699999999 C 467.15608000000003,398.8473099999999 468.31813000000005,399.68259999999987 469.4826800000001,400.5133499999999 C 470.6451600000001,401.3425999999999 471.8131200000001,402.1555899999999 472.97917000000007,402.9583599999999 C 474.13716000000005,403.7555699999999 475.29024000000004,404.5382199999999 476.43068000000005,405.3133399999999 C 478.66683000000006,406.83314999999993 479.75838000000005,407.5764899999999 480.82802000000004,408.3160299999999 C 481.88268000000005,409.0451899999999 482.91991,409.7711099999999 483.93752000000006,410.5000199999999 C 484.9452100000001,411.22181999999987 485.93944000000005,411.9452699999999 486.91201000000007,412.6840099999999 C 488.84460000000007,414.1519999999999 489.78161000000006,414.9170399999999 490.7120300000001,415.6826999999999 C 491.6372600000001,416.4440799999999 492.5446400000001,417.2123899999999 493.43752000000006,417.9791799999999 C 494.3192900000001,418.73643999999985 495.1815700000001,419.48973999999987 496.0280400000001,420.2306799999999 C 497.6674700000001,421.6657699999999 498.45580000000007,422.3573599999999 499.2253700000001,423.0253599999999 C 499.97149000000013,423.67299999999994 500.6951300000001,424.2970899999999 501.3958700000001,424.89586999999995 C 502.0698200000001,425.47173999999995 502.7177400000001,426.0216899999999 503.3413700000001,426.54134999999997 C 504.4967000000001,427.50406 505.0342700000001,427.93649 505.5413500000001,428.34270999999995 C 506.0186800000001,428.72509999999994 506.47064000000006,429.08144999999996 506.89587000000006,429.41667999999993 C 507.29596000000004,429.7321099999999 507.6737600000001,430.02739999999994 508.02536000000003,430.3106899999999 C 508.66959,430.8297899999999 508.95834,431.0766799999999 509.22803000000005,431.3133499999999 C 509.48261,431.5367699999999 509.71738000000005,431.7533499999999 509.93753000000004,431.9583699999999 L 510.14270000000005,432.1533499999999 L 510.3338600000001,432.33837999999986 L 510.51202000000006,432.51336999999984" fill="none" id="svg_2" stroke="#000" stroke-width="2"/>
</svg>
