<?xml version="1.0" ?>
<svg baseProfile="full" height="480" version="1.1" width="640" xmlns="http://www.w3.org/2000/svg" xmlns:ev="http://www.w3.org/2001/xml-events" xmlns:xlink="http://www.w3.org/1999/xlink">
	<defs/>
	<path d="M 180.0,127.0 C 180.07201,129.62534 180.44702,130.31778 181.0,131.0 C 181.67198,131.82904 181.91695,132.51044 182.35266,133.3 C 182.81519999999998,134.1382 182.67748999999998,135.13841000000002 183.16666999999998,135.83333000000002 C 183.67,136.54836000000003 184.34412999999998,136.95748 184.99999999999997,137.50000000000003 C 185.60297999999997,137.99878000000004 186.53475999999998,137.94704000000002 187.29999999999998,138.35266000000001 C 188.14594999999997,138.80107 188.97173999999998,139.2117 189.6,139.57466000000002 C 190.44567,140.06323000000003 191.11186999999998,140.47938000000002 191.64732999999998,141.05267000000003 C 192.28732999999997,141.73788000000005 193.03345,142.12469000000004 193.6,142.61067000000003 C 194.34323999999998,143.24823000000004 194.58553,144.14934000000002 195.16666999999998,144.83333000000002 C 195.73326999999998,145.50023000000002 196.18865999999997,146.12799 196.7045,146.70000000000002 C 197.36031,147.42720000000003 198.2,147.91600000000003 199.0,148.16667 L 199.64284,148.70450000000002" fill="none" id="svg_2" stroke="#000" stroke-width="2"/>
</svg>
