<?xml version="1.0" ?>
<svg baseProfile="full" height="480" version="1.1" width="640" xmlns="http://www.w3.org/2000/svg" xmlns:ev="http://www.w3.org/2001/xml-events" xmlns:xlink="http://www.w3.org/1999/xlink">
	<defs/>
	<path d="M 299.5,333.89999 C 297.74283,333.89999 296.84283,333.89999 296.09549,333.89999 C 295.10132,333.89999 294.15717,333.89999 293.25717,333.89999 C 292.39984,333.89999 291.61465,333.89999 290.67465,333.89999 C 289.66665,333.89999 288.78463999999997,333.74194 288.0,333.92083 C 287.03796,334.14016000000004 286.26624,334.57983 285.58401,335.18398 C 284.98947,335.71047000000004 284.79213999999996,336.47472000000005 284.48931,337.28933 C 284.21664,338.02282 283.51568,338.56045 283.21599,339.384 C 282.95975999999996,340.08819 282.54267999999996,341.0119 282.49998999999997,342.0 C 282.46113999999994,342.89914 282.49998999999997,343.70001 282.49998999999997,344.60001 C 282.49998999999997,345.5 282.38478999999995,346.60425 283.11064999999996,346.88935 C 283.93895999999995,347.21466999999996 284.70327,347.44318 285.59999999999997,347.77851 C 286.45064999999994,348.09659 287.29997999999995,347.9 288.20000999999996,347.9 C 289.09999999999997,347.9 290.02083999999996,347.9 290.82131999999996,347.9 C 291.67465,347.9 292.61465,347.9 293.60000999999994,347.9 C 294.49999999999994,347.9 296.12798999999995,348.72799999999995 296.12798999999995,347.9 C 296.12798999999995,346.95068999999995 294.49999999999994,347.9 293.52151,347.9 C 292.5,347.9 291.70000999999996,347.9 290.79998,347.9 C 289.89999,347.9 289.06258,347.83466 288.47466000000003,347.32534999999996 C 287.82604000000003,346.76342999999997 287.50066000000004,346.09866999999997 287.49999,345.20000999999996 C 287.49932,344.29999 287.34096000000005,343.38390999999996 287.51067,342.49999999999994 C 287.69249,341.5529199999999 288.22451,341.01079999999996 288.99999,340.42083999999994 C 289.73769000000004,339.85961999999995 290.71547000000004,339.63213999999994 291.29998,339.0986699999999 C 292.01968,338.44177999999994 292.71728,338.0389499999999 293.66665,337.73333999999994 C 294.34972,337.51345999999995 295.08682,337.1068399999999 296.09548,336.95715999999993 C 296.83657,336.84716999999995 297.86400000000003,336.8999999999999 298.79998,336.8999999999999 C 299.69732,336.8999999999999 299.75951,336.76260999999994 299.11065,337.3359999999999 C 298.41531000000003,337.9504699999999 298.19112,338.9510799999999 297.85265000000004,339.6571699999999 C 297.44503000000003,340.5075099999999 297.50066000000004,341.4160199999999 297.49999,342.26400999999987 C 297.49926000000005,343.20000999999985 297.49999,344.1000099999999 297.49999,344.9999999999999 C 297.49999,345.8999899999999 297.76296,346.6848099999999 298.49999,347.0666799999999 C 299.25396,347.4573099999999 299.99981,347.8895899999999 300.89998,347.8999899999999 C 301.79991,347.91039999999987 302.78810000000004,347.9936199999999 302.79097,347.8999899999999 C 302.81956,346.9648699999999 301.50224000000003,347.1954899999999 301.49998,346.2999799999999 C 301.49772,345.3999899999999 301.49998,344.4999899999999 301.49998,343.5999999999999 C 301.49998,342.7000099999999 301.27693,341.7281399999999 301.66664,340.8999899999999 C 302.02351,340.14159999999987 302.9998,339.9104299999999 303.89997999999997,339.8999899999999 C 304.79990999999995,339.8895799999999 305.75728,339.73631999999986 306.59999,340.1213299999999 C 307.2693,340.4271199999999 308.10255,340.8991599999999 308.55266,341.6044799999999 C 309.0436,342.3738299999999 309.3766,343.2512399999999 309.92531,343.8746499999999 C 310.43974000000003,344.4591199999999 311.22316,344.4842699999999 312.06398,344.9359899999999 C 312.7126,345.2844399999999 312.54381,344.6989299999999 312.49983000000003,343.7996699999999 C 312.45711000000006,342.9261999999999 312.23454000000004,342.12525999999986 311.97914000000003,341.39997999999986 C 311.71876000000003,340.6605999999999 311.11876,339.55472999999984 310.49998000000005,338.89997999999986 C 310.01432000000005,338.38602999999983 309.3758700000001,337.59693999999985 308.69999000000007,337.1853199999999 C 307.8575200000001,336.6722299999999 307.8324400000001,336.06297999999987 308.52082000000007,335.89997999999986 C 309.4772700000001,335.67350999999985 310.1519200000001,335.1010899999999 311.0999800000001,334.91065999999984 C 311.9828800000001,334.7333199999998 312.7187800000001,334.39948999999984 313.4999700000001,334.0666699999998 C 314.2515000000001,333.7464799999998 315.0121200000001,333.5842499999998 315.8333100000001,333.0666699999998 C 316.4146700000001,332.7002799999998 317.2809400000001,332.4189999999998 318.0208100000001,331.8999799999998 C 318.7209400000001,331.4088299999998 319.6065000000001,331.0438099999998 320.2571400000001,330.8473099999998 C 321.1626000000001,330.57383999999985 321.8923000000001,330.2580499999998 322.7473100000001,329.59547999999984 C 323.2835600000001,329.1799199999998 323.97503000000006,328.40513999999985 324.5208100000001,327.89997999999986 C 325.0907900000001,327.37241999999986 326.0664900000001,326.60209999999984 326.8428000000001,326.26163999999983 C 327.7155700000001,325.8788599999998 328.4911500000001,325.55994999999984 328.99997000000013,324.89997999999986 C 329.58984000000015,324.13486999999986 330.44955000000016,323.9857299999999 331.06397000000015,323.28931999999986 C 331.6526200000001,322.62207999999987 331.90885000000014,321.77268999999984 332.3333200000001,320.89997999999986 C 332.65415000000013,320.24030999999985 333.01557000000014,319.39481999999987 333.6999900000001,318.6999999999999 C 334.1962100000001,318.19624999999985 334.83460000000014,317.3945199999999 335.6999900000001,316.98399999999987 C 336.45744000000013,316.6246899999999 337.1397200000001,316.1267599999999 337.8044800000001,315.60447999999985 C 338.6035200000001,314.97672999999986 339.5943100000001,315.1293499999999 340.3306300000001,314.61598999999984 C 341.0276500000001,314.13005999999984 341.6666300000001,313.73332999999985 342.4999700000001,313.39998999999983 C 343.3333100000001,313.06667999999985 344.19556000000006,312.9129599999998 345.0999800000001,312.89998999999983 C 345.9792800000001,312.8873899999998 346.5020200000001,312.29042999999984 347.2044700000001,311.84731999999985 C 347.9763500000001,311.36037999999985 348.9577700000001,311.12194999999986 349.4746400000001,310.46398999999985 C 349.98383000000007,309.8158599999999 350.4149500000001,308.9125999999998 350.4986300000001,308.1000099999998 C 350.5908200000001,307.2047499999998 350.49997000000013,306.2999899999998 350.49997000000013,305.3999999999998 C 350.49997000000013,304.5000099999998 350.50006000000013,303.6000099999998 350.49997000000013,302.7000199999998 C 350.49988000000013,301.80017999999984 350.27548000000013,301.0413899999998 349.39996000000014,300.89984999999984 C 348.49643000000015,300.75378999999987 348.09054000000015,300.19260999999983 347.49997000000013,299.42084999999986 C 347.00211000000013,298.7702199999999 346.07422000000014,298.4901199999999 345.4001500000001,297.79999999999984 C 344.8347200000001,297.22110999999984 344.53275000000014,296.37885999999986 344.4986300000001,295.41468999999984 C 344.47293000000013,294.68897999999984 344.3099400000001,293.6875499999998 343.9791300000001,292.90000999999984 C 343.7226300000001,292.28934999999984 343.1692200000001,291.31455999999986 342.9359800000001,290.70002999999986 C 342.5640000000001,289.71995999999984 342.5104100000001,288.90015999999986 342.4999800000001,287.90000999999984 C 342.4917400000001,287.11069999999984 342.4999800000001,286.06669999999986 342.4428200000001,285.20450999999986 L 342.0746600000001,284.50000999999986 L 341.5853100000001,283.7000199999999" fill="none" id="svg_2" stroke="#000" stroke-width="2"/>
</svg>
