<?xml version="1.0" ?>
<svg baseProfile="full" height="480" version="1.1" width="640" xmlns="http://www.w3.org/2000/svg" xmlns:ev="http://www.w3.org/2001/xml-events" xmlns:xlink="http://www.w3.org/1999/xlink">
	<defs/>
	<path d="M 160.0,122.0 C 159.964,121.62133 159.38196,122.31036 159.08533,123.2 C 158.79937,124.05764 158.93903,124.81581 158.38933,125.636 C 157.92037,126.33574999999999 157.48227,127.03371 157.2,127.68666999999999 C 156.77427999999998,128.6714 156.49400999999997,129.47127999999998 156.28534,130.23067 C 155.98654,131.31809 155.80711,132.31182 155.19867,132.71466 C 154.37723,133.25854 153.97347,133.80173000000002 154.0,134.70000000000002 C 154.02789,135.64415000000002 154.61284,136.34282000000002 155.2215,136.87867000000003 C 155.92932,137.50181000000003 156.64615,137.76427000000004 157.4,138.38934000000003 C 158.05749,138.93449000000004 159.03269,139.12562000000003 159.60001,139.61068000000003 C 160.34671,140.24912000000003 160.80034,140.79968000000002 161.5,141.50001000000003 C 162.19901,142.19967000000003 162.48125,142.93708000000004 163.05267,143.64285000000004 C 163.64425,144.37350000000004 164.0,145.00001000000003 164.0,145.80002000000005 C 164.0,146.70001000000005 164.0,147.63602000000006 164.0,148.48535000000004 C 164.0,149.21068000000005 164.0,150.20035000000004 164.0,151.04169000000005 C 164.0,151.77068000000006 164.0,152.96802000000005 164.0,153.65068000000005 C 164.0,154.34935000000004 164.0,155.66669000000005 164.0,156.48569000000006 C 164.0,157.39102000000005 164.0,158.20001000000005 164.0,159.00002000000006 C 164.0,160.00002000000006 164.0,160.82135000000005 164.0,161.77068000000006 C 164.0,162.64269000000004 164.0,163.65068000000005 164.0,164.34935000000004 C 164.0,165.03201000000004 164.0,166.23068000000004 164.0,166.97919000000005 C 164.0,168.16669000000005 164.0,168.95719000000005 164.0,169.81069000000005 C 164.0,170.40136000000004 164.0,171.59868000000006 164.0,172.47919000000005 C 164.0,173.31468000000004 164.0,174.31601000000003 164.0,175.00002000000003 C 164.0,176.16669000000005 164.0,176.95269000000005 164.0,177.77469000000002 C 164.0,178.83334000000002 164.0,179.53835 164.0,180.33835000000002 C 164.0,181.38535000000002 164.0,182.33335000000002 164.0,183.00536000000002 C 164.0,183.99468000000002 164.0,185.03069000000002 164.0,185.74819000000002 C 164.0,186.65269000000004 164.0,187.51603000000003 164.0,188.47919000000002 C 164.0,189.40001 163.8765,190.39589 164.42534,190.96402 C 164.9117,191.46747 165.3674,192.14801 165.716,192.80002000000002 C 166.16906,193.6474 166.68559000000002,194.42256 166.94284000000002,195.30002000000002 C 167.19694,196.16676 167.03123000000002,196.90746000000001 167.44667,197.84668000000002 C 167.72618,198.47861000000003 168.31915,199.42271000000002 168.65266000000003,199.95268000000002 C 169.17129000000003,200.77682000000001 169.54110000000003,201.3014 170.11467000000002,202.31601 C 170.49609,202.99072 171.00606000000002,204.1644 171.20000000000002,204.68535 C 171.50972000000002,205.51729 171.79573000000002,206.40279 172.10033,207.30052 C 172.41690000000003,208.23353 172.66233000000003,208.91195000000002 172.97068000000002,209.65602 C 173.32236,210.50465000000003 173.76807000000002,211.45528000000002 174.00983000000002,211.96701000000002 C 174.51816000000002,213.04295000000002 174.78614000000002,213.59563000000003 175.05184000000003,214.15634000000003 C 175.31814000000003,214.71831000000003 176.08062000000004,216.37741000000003 176.31467000000004,216.91334000000003 C 176.76810000000003,217.95158000000004 176.97797000000003,218.45886000000004 177.39550000000003,219.43835000000004 C 177.59808000000004,219.91358000000005 178.19846000000004,221.27938000000003 178.40000000000003,221.71601000000004 C 178.79699000000002,222.57607000000004 179.20450000000002,223.42325000000005 179.60001000000003,224.28400000000005 C 180.00463000000002,225.16457000000005 180.40000000000003,226.08268000000004 180.60001000000003,226.54818000000006 C 181.00002000000003,227.47918000000007 181.39368000000002,228.39309000000006 181.60001000000003,228.83068000000006 C 182.18232000000003,230.06567000000007 182.59557000000004,230.79276000000004 183.00000000000003,231.47918000000007 C 183.39568000000003,232.15073000000007 184.00363000000002,233.16467000000006 184.40134000000003,233.88534000000007 C 184.81446000000003,234.63394000000008 185.23130000000003,235.41334000000006 185.45717000000002,235.80451000000008 C 186.15233,237.00840000000008 186.68196000000003,237.8023100000001 186.95717000000002,238.20000000000007 C 187.51405000000003,239.00473000000008 188.10362,239.80066000000008 188.40134000000003,240.20000000000007 C 189.29769000000005,241.40232000000006 189.90804000000003,242.20974000000007 190.22133000000002,242.62134000000006 C 190.87000000000003,243.47353000000007 191.21217000000001,243.91603000000006 191.57066000000003,244.37067000000005 C 192.73549000000003,245.84789000000004 193.16566000000003,246.36615000000003 193.60083000000003,246.89634000000004 C 194.03899000000004,247.43017000000003 194.47760000000002,247.95966000000004 194.91333000000003,248.47735000000003 C 195.74368000000004,249.46388000000002 196.48860000000002,250.34367000000003 197.14934000000002,251.06135000000003 C 197.72489000000002,251.68650000000002 198.29959000000002,252.24418000000003 198.93733000000003,252.76534000000004 C 199.65314000000004,253.35030000000003 200.53699000000003,253.97040000000004 201.01967000000002,254.30533000000003 C 201.52094000000002,254.65317000000002 202.56912000000003,255.35172000000003 203.10367000000002,255.69467000000003 C 203.63317000000004,256.03439000000003 205.15506000000002,256.96008 205.62801000000002,257.22934000000004 C 206.51406000000003,257.73380000000003 206.93927000000002,257.95511000000005 207.73384000000001,258.39099000000004 C 208.8358,258.99551 209.52188,259.3901 210.16400000000002,259.8106700000001 C 210.79664000000002,260.2250400000001 211.41243000000003,260.66879000000006 212.30034,261.42151000000007 C 212.91879,261.9458000000001 213.53021,262.53433000000007 214.21434,263.10449000000006 C 215.31530999999998,264.02206000000007 215.7372,264.3081900000001 216.60983,264.89999000000006 C 217.05847999999997,265.20425000000006 217.98621999999997,265.79861000000005 218.45183,266.1000000000001 C 219.83597,266.9959400000001 220.28536,267.2903100000001 221.13834,267.9045000000001 C 221.55683,268.2058600000001 222.36141,268.8265600000001 222.73833,269.1571600000001 C 223.85799,270.1392200000001 224.51873999999998,270.88040000000007 224.84284,271.2526500000001 C 225.48737,271.99295000000006 225.78359,272.3794200000001 226.39866999999998,273.11599000000007 C 227.29218999999998,274.18597000000005 227.91116999999997,274.8585100000001 228.23199999999997,275.19601000000006 C 228.90315999999996,275.90197000000006 229.27037999999996,276.26812000000007 230.50000999999997,277.50000000000006 C 230.96375999999998,277.9646000000001 231.45334999999997,278.4533400000001 231.96249999999998,278.96249000000006 C 232.48666999999998,279.4866600000001 233.02083,280.0208400000001 233.55999999999997,280.5599900000001 C 234.09917,281.0991400000001 235.66665999999998,282.66665000000006 236.15682999999999,283.1568200000001 C 236.62801,283.6279800000001 237.08115999999998,284.0811700000001 237.51733,284.5173200000001 C 238.34267999999997,285.3426700000001 238.73381999999998,285.7338100000001 239.83332,286.8333300000001 C 240.51730999999998,287.5173200000001 240.85182999999998,287.8518200000001 241.52082,288.5208300000001 C 242.20981999999998,289.2098300000001 242.56856,289.5700900000001 243.74265,290.7424800000001 C 244.16771,291.1669200000001 244.6037,291.6024700000001 245.05065,292.04000000000013 C 245.94611,292.91662000000014 246.38949,293.3431000000001 246.83199,293.7466700000001 C 248.04303,294.8511600000001 248.78338,295.43594000000013 249.45832,295.95834000000013 C 250.08889,296.4464100000001 251.00777,297.1578000000001 251.6,297.68533000000014 C 252.20811,298.22702000000015 252.80115999999998,298.8094800000001 253.1,299.1044900000001 C 254.00352999999998,299.9964300000001 254.59998,300.60000000000014 255.19998999999999,301.20001000000013 C 255.79997999999998,301.79999000000015 256.39684,302.4031400000001 257.30032,303.29999000000015 C 257.90689,303.90213000000017 258.21084,304.2116100000002 258.87201,304.79999000000015 C 259.55996999999996,305.41223000000014 260.74008,306.30368000000016 261.168,306.60001000000017 C 262.04544,307.20765000000017 262.50314000000003,307.4953300000002 263.39465,308.10001000000017 C 263.83355,308.3977100000002 265.06112,309.2951100000002 265.43066,309.60001000000017 C 266.14648,310.1906500000002 266.81115,310.80393000000015 267.48266,311.40000000000015 C 268.16311,312.00400000000013 268.87856,312.60557000000017 269.62533,313.18934000000013 C 270.36932,313.7709400000001 270.74227,314.04984000000013 271.83334,314.8333500000001 C 272.51156000000003,315.3203800000001 273.1687,315.7681900000001 273.78933,316.2253500000001 C 274.40340000000003,316.6776500000001 275.30392,317.4169400000001 275.89999,317.9526800000001 C 276.50402,318.4955900000001 277.08398,319.0660800000001 278.0,319.8333600000001 C 278.59253,320.3296700000001 279.22067,320.7863000000001 279.87201,321.2613400000001 C 280.56995,321.77037000000007 281.74435,322.64067000000006 282.168,322.9693500000001 C 283.05417,323.6568500000001 283.50198,324.01842000000005 283.94934,324.3853700000001 C 284.83594,325.11257000000006 285.67181,325.82763000000006 286.42932,326.51470000000006 C 286.78815000000003,326.84017000000006 287.46161,327.47582000000006 288.091,328.09551000000005 C 289.00479,328.99520000000007 289.6,329.60003000000006 290.20001,330.20003 C 290.79999000000004,330.80001000000004 291.09851000000003,331.10152000000005 292.0,332.00002 C 292.60434,332.60235 293.2326,333.22216000000003 293.944,333.83602 C 294.32339,334.16341 295.66345,335.17141000000004 296.18549,335.52135000000004 C 296.73401,335.88903000000005 297.31394,336.25463 297.91199,336.62535 C 298.51963,337.002 299.74808,337.74477 300.34934,338.11601 C 301.50309,338.82838000000004 302.04096,339.17042000000004 303.02851,339.84285 C 303.4946,340.16023 304.36939,340.78749 304.78650999999996,341.09551 C 306.00404,341.99459 306.40131999999994,342.29805999999996 307.19550999999996,342.90001 C 307.59006999999997,343.19905 308.37242,343.78966 309.11466999999993,344.40001 C 310.1913599999999,345.28536 310.5173499999999,345.60283 311.19602999999995,346.21068 C 311.89597999999995,346.83757 312.25031999999993,347.1779 313.50001999999995,348.16667 C 313.95802999999995,348.52904 314.44984999999997,348.88704 315.4760299999999,349.62535 C 315.99891999999994,350.00154000000003 316.5271199999999,350.37041000000005 317.04200999999995,350.74736 C 318.50895999999995,351.82127 318.95023999999995,352.16161 319.72849999999994,352.84734000000003 C 320.45154999999994,353.48442000000006 320.78290999999996,353.81148 321.39600999999993,354.48403 C 322.32282999999995,355.50072 322.60160999999994,355.88030000000003 323.18933999999996,356.61468 C 323.76691999999997,357.33636 324.30057999999997,358.04251 325.07834999999994,358.95687000000004 C 325.53024999999997,359.48818000000006 326.1533299999999,360.14269 326.83334999999994,360.83337000000006 L 327.45834999999994,361.41668000000004 L 327.96399999999994,361.10268" fill="none" id="svg_2" stroke="#000" stroke-width="2"/>
</svg>
