<?xml version="1.0" ?>
<svg baseProfile="full" height="480" version="1.1" width="640" xmlns="http://www.w3.org/2000/svg" xmlns:ev="http://www.w3.org/2001/xml-events" xmlns:xlink="http://www.w3.org/1999/xlink">
	<defs/>
	<path d="M 260.5,270.66666 C 260.32849,268.96668 259.65167,268.43951999999996 258.89584,268.16666 C 258.27978,267.94424999999995 257.16696,267.66540999999995 256.32132,267.46268 C 255.36433000000002,267.23325 254.83212,267.10882999999995 254.26267,266.95867999999996 C 252.98253000000003,266.62112999999994 251.49894,266.16995 250.67101000000002,265.9025 C 249.78685000000002,265.61688999999996 248.85729000000003,265.30332 247.88401000000002,264.98001 C 246.8753,264.64495999999997 245.83753000000002,264.30185 244.77300000000002,263.9675 C 243.69353000000004,263.62845 241.50217000000004,262.99167 240.40084000000002,262.70984 C 239.30877,262.43039 238.22373000000002,262.17987 237.15334000000001,261.94934 C 236.10535000000002,261.72363 235.0806,261.52084 234.08584000000002,261.33282 C 233.12724000000003,261.15164000000004 231.33346000000003,260.83261000000005 230.50817,260.68832000000003 C 229.73212,260.55264000000005 229.00403,260.42715000000004 228.32267000000002,260.31332000000003 C 227.68769,260.20724 227.09762,260.11157000000003 226.55117,260.02832 C 226.04826000000003,259.95169 225.16697000000002,259.83087 224.78634000000002,259.78818 C 224.44425,259.74979 224.13767,259.72385 223.86533000000003,259.70267 L 223.62500000000003,259.6875 L 223.41467000000003,259.67734 L 222.75866000000002,259.66666000000004" fill="none" id="svg_22" stroke="#000" stroke-width="2"/>
</svg>
