<?xml version="1.0" ?>
<svg baseProfile="full" height="480" version="1.1" width="640" xmlns="http://www.w3.org/2000/svg" xmlns:ev="http://www.w3.org/2001/xml-events" xmlns:xlink="http://www.w3.org/1999/xlink">
	<defs/>
	<path d="M 556.0,438.0 C 555.03601,439.836 555.00067,440.60132 555.0,441.59549 C 554.99939,442.51468 555.04846,443.55051 554.55731,444.32131999999996 C 554.2088600000001,444.86815999999993 553.36743,445.42706 553.0720200000001,446.36400999999995 C 552.7896700000001,447.25963999999993 552.7365100000001,448.21950999999996 552.1986700000001,448.79997999999995 C 551.6225600000001,449.42170999999996 550.9323700000001,450.13728999999995 550.3640100000001,450.59999999999997 C 549.5584100000001,451.25584999999995 548.8015100000001,451.56359 548.0214800000001,452.09981999999997 C 547.2803300000002,452.60931 546.4321900000001,452.87602999999996 545.7000100000001,453.35716999999994 C 544.9057600000001,453.8791099999999 544.4646600000001,454.74119999999994 543.5786700000001,454.96397999999994 C 542.6935400000001,455.1865399999999 541.9881500000001,454.97218999999996 541.2146600000001,455.03599999999994 C 540.1621700000001,455.12284999999997 539.2160600000001,455.43974999999995 538.4901700000001,455.70448999999996 C 537.6682100000002,456.00426 536.6970800000001,456.30492 536.0000000000001,456.47914999999995 C 535.3076200000002,456.65221999999994 534.0455900000001,456.90575999999993 533.2719700000001,456.96397999999994 C 532.4044200000001,457.02928999999995 531.3955100000002,456.9999899999999 530.7639700000001,456.9999899999999 C 529.5786700000001,456.9999899999999 528.7746500000001,456.9999899999999 527.9526300000001,456.9999899999999 C 526.9213200000002,456.9999899999999 526.2253400000001,456.9999899999999 525.3159700000001,456.9999899999999 C 524.3146300000001,456.9999899999999 523.4791800000002,456.9999899999999 522.8955000000001,456.9999899999999 C 521.69964,456.9999899999999 520.7786800000001,456.9999899999999 520.1279800000001,456.9999899999999 C 519.4293100000001,456.9999899999999 518.2569500000001,457.00535999999994 517.3856700000001,456.99549999999994 C 516.4582400000002,456.98499999999996 515.9774100000001,456.98383999999993 514.9973000000001,456.9146599999999 C 513.4977300000002,456.8088299999999 512.9997400000001,456.7248399999999 512.0106700000001,456.5639799999999 C 511.51998000000015,456.4841799999999 510.5546500000001,456.3070499999999 509.1666500000001,455.9999799999999 C 508.2836800000001,455.8046399999999 507.8509800000001,455.7122599999999 507.02084000000013,455.4583199999999 C 506.1978100000001,455.2065499999999 504.9922500000001,454.6806099999999 504.1986700000001,454.2319699999999 C 503.7914100000001,454.0017499999999 502.98599000000013,453.4882299999999 502.1428200000001,453.00531999999987 C 501.7180200000001,452.76202999999987 500.3840300000001,452.1268699999999 499.4428400000001,451.80530999999985 C 498.9666400000001,451.64261999999985 497.9864500000001,451.3581399999998 497.4955100000001,451.19464999999985 C 495.9907800000001,450.69354999999985 495.4901700000001,450.47781999999984 494.50900000000007,449.9856399999999 C 494.01599000000004,449.73832999999985 493.0651500000001,449.1892499999999 492.6143200000001,448.89096999999987 C 491.3129600000001,448.0300399999999 490.9305100000001,447.71445999999986 490.2098400000001,447.09546999999986 C 489.5085800000001,446.49313999999987 489.1811500000001,446.1682499999999 488.5173400000001,445.5146599999999 C 487.4712300000001,444.4846599999999 487.1117000000001,444.10825999999986 486.3213300000001,443.3319799999999 C 485.8971100000001,442.9153499999999 485.4466700000001,442.47992999999985 484.9668400000001,442.02396999999985 C 484.4587500000001,441.5411799999998 483.3343600000001,440.4988799999999 482.7148600000001,439.93598999999983 C 482.0664200000001,439.3468199999998 481.3932700000001,438.74262999999985 480.7093400000001,438.12397999999985 C 480.0202500000001,437.50065999999987 479.3350100000001,436.87852999999984 478.6678700000001,436.25797999999986 C 478.0190700000001,435.65445999999986 476.8283300000001,434.50489999999985 476.3073700000001,433.96430999999984 C 475.8206100000001,433.4592099999998 475.37729000000013,432.97053999999986 474.9693600000001,432.49732999999986 C 474.5794400000001,432.04499999999985 473.86432000000013,431.1571499999999 473.52136000000013,430.7186399999999 C 472.4751900000001,429.3809599999999 472.1154800000001,428.9129799999999 471.73837000000015,428.44281999999987 C 470.9626700000002,427.4756899999999 470.55551000000014,426.9874999999999 470.13836000000015,426.49548999999985 C 469.71554000000015,425.99679999999984 468.3812800000002,424.49786999999986 467.91601000000014,424.00262999999984 C 467.4499500000001,423.50653999999986 466.97723000000013,423.0187999999998 466.5000200000001,422.5416299999998 C 466.02782000000013,422.0694599999998 465.0923400000001,421.1614399999998 464.1666800000001,420.33331999999984 C 463.7256100000001,419.93872999999985 462.8645900000001,419.21518999999984 462.4466800000001,418.88263999999987 C 461.65215000000006,418.2503799999999 460.8924200000001,417.6799399999999 459.8216800000001,416.92163999999985 C 459.16516000000007,416.45669999999984 458.5470200000001,416.03335999999985 457.9616900000001,415.66162999999983 C 456.9307100000001,415.00680999999986 456.23894000000007,414.63028999999983 455.60451000000006,414.30447999999984 C 454.6045700000001,413.79098999999985 454.00075000000004,413.49847999999986 453.00002000000006,412.9999799999998 C 452.39599000000004,412.6990799999998 451.5491200000001,412.28455999999983 450.57885000000005,411.8999699999998 C 449.79025000000007,411.5873799999998 448.97991,411.3593199999998 448.14285000000007,410.8999699999998 C 447.49457000000007,410.5442299999998 446.7049800000001,409.84671999999983 445.97918000000004,409.52081999999984 C 445.02929000000006,409.09430999999984 444.19064000000003,409.11755999999986 443.48534000000006,408.91595999999987 C 442.47542000000004,408.62728999999985 441.70137000000005,408.02862999999985 440.80001000000004,407.99996999999985 C 439.90066,407.97137999999984 439.39138,407.49212999999986 438.64284000000004,407.05712999999986 C 437.91246,406.6326599999999 436.88320000000004,407.0966799999999 436.11467000000005,406.91463999999985 C 435.13838000000004,406.68340999999987 434.48399000000006,406.19869999999986 433.75719000000004,405.70446999999984 C 432.89995000000005,405.12151999999986 432.19939000000005,405.0339099999998 431.30001000000004,404.99996999999985 C 430.32604000000003,404.96322999999984 429.45391000000006,404.56322999999986 428.74935000000005,404.14928999999984 C 428.24819,403.85485999999986 427.15304000000003,403.20842999999985 426.34936000000005,402.98528999999985 C 425.46691000000004,402.74028999999985 424.73315,402.57982999999984 423.9482100000001,402.29546999999985 C 422.91379000000006,401.9207099999999 422.23291000000006,401.60640999999987 421.4013700000001,401.19997999999987 C 420.5983000000001,400.80748999999986 419.8426200000001,400.41765999999984 418.8840400000001,400.08263999999986 C 418.12101000000007,399.8159499999999 417.36957000000007,399.25914999999986 416.7893700000001,398.85064999999986 C 415.84015000000005,398.18231999999983 415.0204800000001,398.04907999999983 414.1666900000001,397.99996999999985 C 413.30408000000006,397.95034999999984 412.55802000000006,397.37343999999985 411.6910400000001,397.0526399999998 C 411.0573700000001,396.81816999999984 409.9946900000001,396.64730999999983 409.2507000000001,396.42528999999985 L 408.3333700000001,396.16661999999985 L 407.42135000000013,395.9746299999999" fill="none" id="svg_22" stroke="#000" stroke-width="2"/>
</svg>
