<?xml version="1.0" ?>
<svg baseProfile="full" height="480" version="1.1" width="640" xmlns="http://www.w3.org/2000/svg" xmlns:ev="http://www.w3.org/2001/xml-events" xmlns:xlink="http://www.w3.org/1999/xlink">
	<defs/>
	<path d="M 354.0,355.0 C 351.39999,355.0 350.60001,355.0 349.40451,355.0 C 348.65717,355.0 347.74817,355.0 346.66666000000004,355.0 C 345.99466,355.0 345.25067,355.0 344.14301000000006,355.0 C 343.3090000000001,355.0 342.40000000000003,355.0 341.50000000000006,355.0 C 340.60001000000005,355.0 339.7000100000001,355.0 338.79999000000004,355.0 C 337.90000000000003,355.0 336.99915000000004,354.9628 336.20001,355.0 C 335.28235,355.04272 335.16873000000004,355.80493 335.86133,356.43201 C 336.34955,356.87403 337.00849,357.7519 337.36402,358.676 C 337.61039,359.31631999999996 337.66355,360.01529 338.30451,361.133 C 338.68264999999997,361.79238999999995 339.48801,362.48801 340.06251,363.0625 C 340.51883999999995,363.51883 341.33335,364.33334 341.96668,364.96667 C 342.64002,365.64001 342.97916,365.97915 343.63752,366.63751 C 344.50001,367.5 345.133,368.13299 345.60401,368.60400000000004 C 346.32151,369.3215 346.83597000000003,369.83603000000005 347.40452,370.40451 C 348.19981,371.19971000000004 348.73492999999996,371.84497 349.51469,372.42932 C 350.30436,373.02109 350.91733999999997,373.57068000000004 351.06134999999995,374.22134 L 351.44284999999996,375.19983 L 351.86134,375.78934000000004 L 352.51734999999996,376.51468000000006" fill="none" id="svg_25" stroke="#000" stroke-width="2"/>
</svg>
