<?xml version="1.0" ?>
<svg baseProfile="full" height="480" version="1.1" width="640" xmlns="http://www.w3.org/2000/svg" xmlns:ev="http://www.w3.org/2001/xml-events" xmlns:xlink="http://www.w3.org/1999/xlink">
	<defs/>
	<path d="M 326.78333,168.5 C 327.66202,167.27867 328.12967,166.54416 328.76867999999996,166.07468 C 329.48617999999993,165.54752 330.30065999999994,165.50067 331.26251999999994,165.5 C 332.08334999999994,165.49942 332.9833499999999,165.5 333.8833399999999,165.5 C 334.7833299999999,165.5 335.58334999999994,165.5 336.4833499999999,165.5 C 337.4193499999999,165.5 338.9765799999999,164.72298 339.0446899999999,165.50134 C 339.1268699999999,166.44037 337.3372899999999,166.04764 336.8686999999999,166.78534 C 336.4295799999999,167.47664 336.23667999999986,168.17034999999998 335.8405299999999,168.85718 C 335.3706799999999,169.67174 335.30964999999986,170.24947 334.4878399999999,170.5045 C 333.7247499999999,170.7413 333.1121699999999,171.51944 332.8086699999999,172.35068 C 332.5211599999999,173.13811 331.7833399999999,173.50383000000002 331.0261999999999,173.5 C 330.1351499999999,173.4955 329.1203199999999,173.4352 328.8250299999999,172.47917 C 328.5421899999999,171.56343 328.69801999999993,170.78667000000002 327.9045299999999,170.2785 L 327.4500299999999,169.5 L 326.7625299999999,169.0" fill="none" id="svg_25" stroke="#000" stroke-width="2"/>
</svg>
