<?xml version="1.0" ?>
<svg baseProfile="full" height="480" version="1.1" width="640" xmlns="http://www.w3.org/2000/svg" xmlns:ev="http://www.w3.org/2001/xml-events" xmlns:xlink="http://www.w3.org/1999/xlink">
	<defs/>
	<path d="M 328.0,220.0 C 330.00983,221.89467 330.82254,221.9377 331.83334,222.33333 C 332.58868,222.62897999999998 333.24646,223.20928999999998 333.76934,223.51734 C 334.62044,224.01873999999998 335.66213,224.37237 336.38534,224.62534 C 337.11816,224.88166999999999 338.18343999999996,225.31543 338.88784,225.67067 C 339.69131,226.07587 340.14767,226.32199 340.66717,226.576 C 341.25018,226.86108 342.66494,227.50402 343.51333,227.86399 C 344.43813,228.25639 345.42629,228.6589 346.45333,229.076 C 347.49962999999997,229.50091 348.54744999999997,229.92208 349.57333,230.34198999999998 C 350.56076,230.74614999999997 352.33569,231.49475999999999 353.08499,231.83514999999997 C 353.74878,232.13668999999996 354.3291,232.41792999999998 354.83999,232.67065999999997 C 355.29232,232.89442999999997 355.68838,233.10650999999996 356.05499,233.27215999999996 C 356.98819,233.69381999999996 357.59952,233.82763999999995 358.47914999999995,233.99998999999997 C 359.3154799999999,234.16384999999997 360.32701999999995,234.55305999999996 360.99998999999997,235.02081999999996 C 361.46047,235.34088999999994 362.40313,236.02006999999995 363.22533,236.35331999999997 C 364.03159999999997,236.68011999999996 365.07804999999996,236.88169999999997 365.764,236.97465999999997 C 366.59817,237.08769999999998 367.62051,237.30773999999997 368.34283,237.70448999999996 C 369.14610999999996,238.14569999999998 369.81410999999997,238.67741999999996 370.59999999999997,239.02531999999997 C 371.41787,239.38737999999998 372.20000999999996,239.91598999999997 373.09999999999997,240.22131999999996 L 373.70000999999996,240.64732999999995 L 374.56249999999994,241.04165999999995" fill="none" id="svg_29" stroke="#000" stroke-width="2"/>
</svg>
