<?xml version="1.0" ?>
<svg baseProfile="full" height="480" version="1.1" width="640" xmlns="http://www.w3.org/2000/svg" xmlns:ev="http://www.w3.org/2001/xml-events" xmlns:xlink="http://www.w3.org/1999/xlink">
	<defs/>
	<path d="M 289.5,288.89999 C 289.5,290.70001 289.50491,291.54904 289.216,292.38534 C 288.96084,293.1239 288.64602,294.10406 288.5,294.87917999999996 C 288.31049,295.88518999999997 287.80054,296.48589999999996 287.58533,297.38399999999996 C 287.38327,298.22725999999994 287.59937,299.27007999999995 287.49866,300.09999999999997 C 287.38705999999996,301.01977 286.73575,301.54616999999996 286.11066,302.29997999999995 C 285.56556,302.95732999999996 284.9516,303.5693299999999 284.55716,304.25715999999994 C 284.08728,305.0765599999999 284.66367,306.15727999999996 284.27866,306.99998999999997 C 283.97287,307.66929999999996 283.50534,308.49992999999995 283.5,309.39997999999997 C 283.49466,310.29994 283.75467,311.46891999999997 283.064,311.864 C 282.31339,312.29337999999996 281.29999000000004,311.89997999999997 280.40000000000003,311.89997999999997 C 279.50001000000003,311.89997999999997 278.70908000000003,311.79897 278.00001000000003,311.39997999999997 C 277.12147000000004,310.90563 276.62025000000006,310.17424 275.85334000000006,309.91065999999995 C 275.06138000000004,309.6384699999999 274.10044000000005,309.96863999999994 273.25266000000005,309.5428299999999 C 272.55893000000003,309.19440999999995 271.87253000000004,308.5486899999999 271.15268000000003,308.2571499999999 C 270.16443000000004,307.8569099999999 269.20001,307.9000599999999 268.29999000000004,307.8999699999999 C 267.40000000000003,307.8998799999999 266.52588000000003,307.6923899999999 265.90000000000003,307.32531999999986 C 265.12849000000006,306.8728399999999 264.2812,306.39947999999987 263.50001000000003,306.06664999999987 C 262.74848000000003,305.74645999999984 261.8,305.84279999999984 261.00001000000003,305.39995999999985 C 260.20002000000005,304.95711999999986 259.02037,305.22533999999985 258.55717000000004,304.54280999999986 C 258.0828,303.8437999999999 258.54780000000005,302.79866999999985 258.50001000000003,301.89995999999985 C 258.45729000000006,301.09657999999985 257.96653000000003,300.27742999999987 257.51469000000003,299.49996999999985 C 257.09452000000005,298.77703999999983 256.25682,298.39229999999986 255.66801000000004,297.69997999999987 C 255.05635000000004,296.9807999999999 254.36883000000003,296.53582999999986 253.74284000000003,295.8001399999999 C 253.19845000000004,295.1603399999999 252.49961000000002,294.9253199999999 251.70001000000002,294.8999599999999 C 250.79866,294.8713699999999 250.03695000000002,294.3262899999999 249.20001000000002,293.9526299999999 C 248.42785,293.60789999999986 247.73138000000003,293.0481499999999 246.80002000000002,292.9044699999999 C 245.91052000000002,292.7672599999999 245.00002,292.8999499999999 244.10002000000003,292.8999499999999 C 243.20001000000002,292.8999499999999 242.28381000000002,292.82047999999986 241.61468000000002,292.9852799999999 C 240.6502,293.2228299999999 239.81887000000003,293.5872399999999 239.50901000000002,294.59996999999987 C 239.26868000000002,295.3853999999999 239.25095000000002,296.40224999999987 238.88934,297.0746399999999 C 238.44363,297.90337999999986 237.70225,298.54820999999987 237.52084,299.4207999999999 C 237.32473,300.3640399999999 237.60411,301.12327999999985 237.21602,302.0146399999999 C 236.89307,302.7563699999999 236.49185,303.59999999999985 236.50001999999998,304.4999599999999 C 236.50817999999998,305.4001699999999 236.79,306.2930499999999 237.59985999999998,306.7786199999999 C 238.32962999999998,307.21614999999986 239.10204,308.0826999999999 239.46402999999998,307.4639499999999 C 239.95113999999998,306.63130999999987 239.40364999999997,305.6766899999999 239.6667,304.7332999999999 C 239.85675999999998,304.05165999999986 240.39799,303.0771399999999 240.48936,302.3106299999999 C 240.59968,301.3851499999999 240.61882,300.5214499999999 241.1107,299.7612799999999 C 241.60402000000002,298.9988899999999 242.28932,298.51774999999986 242.50136,297.7012799999999 C 242.70923000000002,296.90082999999987 243.37088,296.16559999999987 244.1107,295.91062999999986 C 244.93185,295.62760999999983 245.49533,296.51057999999983 245.50003,297.42078999999984 C 245.505,298.38395999999983 245.60413,299.1232699999998 245.21603000000002,300.01462999999984 C 244.89308000000003,300.75635999999986 244.50228,301.59995999999984 244.50003,302.49994999999984 C 244.49779,303.39993999999984 244.49936,304.2999399999998 244.50003,305.19995999999986 C 244.50070000000002,306.09994999999986 244.78499000000002,306.95950999999985 245.14737000000002,307.59994999999986 C 245.61179,308.42071999999985 246.10188000000002,309.0657699999999 246.66670000000002,309.73327999999987 C 247.27212000000003,310.4487599999999 247.35315000000003,311.2737799999999 248.06936000000002,311.72927999999985 C 248.74358,312.15804999999983 249.91146,311.79436999999984 250.70002000000002,312.18392999999986 C 251.57009000000002,312.6137699999999 252.41102000000004,312.53493999999984 253.14286,312.9570899999999 C 253.954,313.42494999999985 253.65418000000003,313.64830999999987 253.06669000000002,313.09859999999986 C 252.36646000000002,312.4434199999999 252.06115000000003,311.6577399999999 251.33335000000002,311.0666199999999 C 250.63666000000003,310.5007599999999 249.85204000000002,310.33452999999986 249.20452000000003,309.59994999999986 C 248.62080000000003,308.93771999999984 248.50069000000002,308.09994999999986 248.50002000000003,307.19995999999986 C 248.49935000000002,306.2999399999999 248.49776000000003,305.39993999999984 248.50002000000003,304.49994999999984 C 248.50228000000004,303.60443999999984 248.93546000000003,302.91794999999985 249.80002000000005,302.89993999999984 C 250.69982000000005,302.88119999999986 251.65428000000006,302.7166799999998 252.50002000000003,303.06662999999986 C 253.28464000000002,303.3912799999999 254.05509000000004,303.60092999999983 254.88935000000004,303.9106199999999 C 255.62296000000003,304.18295999999987 256.01812,305.0587799999999 256.58404,305.61593999999985 C 257.25506,306.27661999999987 257.50003000000004,306.99993999999987 257.50003000000004,307.89993999999984 C 257.50003000000004,308.69995999999986 257.31631000000004,309.62643999999983 257.53604,310.49994999999984 C 257.75308,311.36273999999986 258.45730000000003,312.0969299999998 258.50003000000004,312.99994999999984 C 258.54254000000003,313.89893999999987 257.67071000000004,315.52927999999986 258.50003000000004,315.52927999999986 C 259.32935000000003,315.52927999999986 258.38925000000006,313.79309999999987 258.50003000000004,312.8999499999999 C 258.61154000000005,312.0007199999999 259.25421000000006,311.5847899999999 259.50137000000007,310.7012799999999 C 259.7241200000001,309.9050499999999 260.82135000000005,309.8999499999999 261.50003000000004,309.8999499999999 C 262.47852000000006,309.8999499999999 263.29871,309.8999499999999 264.17203000000006,309.8999499999999 C 265.26804000000004,309.8999499999999 266.00003000000004,309.89637999999985 266.73203000000007,309.8999499999999 C 267.8280700000001,309.90528999999987 268.81183000000004,310.0928499999999 269.21470000000005,310.7012799999999 C 269.75858000000005,311.5227199999999 270.28196,312.01704999999987 271.10005000000007,312.4746299999999 C 271.87236000000007,312.9066099999999 272.3739500000001,313.62556999999987 273.11070000000007,313.8892999999999 C 273.9480700000001,314.1890699999999 274.93815000000006,313.8231099999999 275.80455000000006,314.2526099999999 C 276.41838000000007,314.55689999999987 277.44621000000006,314.5814699999999 278.2572200000001,315.1212899999999 C 278.98345000000006,315.6046899999999 279.66670000000005,315.8999499999999 280.52089000000007,315.8999499999999 C 281.50005000000004,315.8999499999999 282.28938000000005,315.8999499999999 283.01473000000004,315.8999499999999 C 284.08938000000006,315.8999499999999 285.03893000000005,315.8393399999999 285.80004,316.2526099999999 C 286.54629,316.6578199999999 287.30044000000004,316.9265299999999 288.20006,316.8999499999999 C 289.14418,316.87205999999986 289.31301,316.06678999999986 289.55721,315.1999699999999 C 289.77169,314.4386799999999 290.28905,313.6463199999999 290.72139,312.7999499999999 C 291.05611,312.14467999999994 291.48936,311.2999499999999 291.50005,310.3999599999999 C 291.51072999999997,309.4999699999999 291.90891999999997,308.7726699999999 292.33339,307.8999599999999 C 292.70006,307.1460499999999 293.01564,306.3948299999999 293.70006,305.6999799999999 C 294.29549000000003,305.09545999999995 295.09749,304.6029299999999 295.41472,303.6999799999999 C 295.71443,302.84685999999994 295.56138999999996,302.00560999999993 295.92537,301.07463999999993 C 296.19822999999997,300.37672999999995 296.41526999999996,299.4163499999999 296.50453,298.5954499999999 C 296.59935,297.7233199999999 297.0814,296.9031599999999 297.33339,295.89994999999993 C 297.52828,295.12397999999996 297.49938000000003,294.3852999999999 297.50005,293.42078999999995 C 297.50068999999996,292.49994999999996 297.50005,291.59995999999995 297.50005,290.69996 L 297.50005,289.79994" fill="none" id="svg_3" stroke="#000" stroke-width="2"/>
</svg>
