<?xml version="1.0" ?>
<svg baseProfile="full" height="480" version="1.1" width="640" xmlns="http://www.w3.org/2000/svg" xmlns:ev="http://www.w3.org/2001/xml-events" xmlns:xlink="http://www.w3.org/1999/xlink">
	<defs/>
	<path d="M 258.0,201.0 C 256.16666,201.16667 255.72993,201.77367 254.89999,202.22133 C 254.25235,202.57066 253.3766,202.98163 252.6,203.42534 C 251.87596,203.83902 250.79554,203.61607 250.12133,204.2215 C 249.50373,204.77609999999999 249.44268,205.65731 248.69999,206.29550999999998 C 247.94914,206.94072999999997 247.05224,206.91690999999997 246.436,207.61067999999997 C 245.85137,208.26883999999998 244.84931,208.95881999999997 245.06166000000002,209.64734999999996 C 245.30298000000002,210.42984999999996 246.42894,210.37070999999997 247.22150000000002,210.87850999999995 C 247.96825,211.35694999999996 249.00046000000003,210.97292999999996 249.80001000000001,211.00001999999995 C 250.64429,211.02860999999996 251.16668,211.83334999999994 252.00001,212.00001999999995 C 252.83334,212.16668999999996 253.28237000000001,212.95730999999995 254.20001,213.00001999999995 C 255.09904,213.04185999999996 256.00001,213.00001999999995 256.8,213.00001999999995 C 257.70002,213.00001999999995 258.56401,213.03601999999995 259.08403,213.71601999999996 L 259.80134999999996,213.99868999999995" fill="none" id="svg_3" stroke="#000" stroke-width="2"/>
</svg>
