<?xml version="1.0" ?>
<svg baseProfile="full" height="480" version="1.1" width="640" xmlns="http://www.w3.org/2000/svg" xmlns:ev="http://www.w3.org/2001/xml-events" xmlns:xlink="http://www.w3.org/1999/xlink">
	<defs/>
	<path d="M 274.0,178.0 C 272.24283,178.0 271.28247,177.75322 270.56934,178.08533 C 269.74701,178.4683 269.14139,179.22449 268.99985000000004,180.10001 C 268.85379000000006,181.00354 268.57596000000007,181.69043 268.00000000000006,182.47917999999999 C 267.53247000000005,183.11944999999997 267.00226000000004,183.70449 267.00000000000006,184.60001 C 266.9977400000001,185.5 267.00000000000006,186.4 267.00000000000006,187.30001 C 267.00000000000006,188.2 266.60825000000006,189.3791 267.2853400000001,189.91467999999998 C 267.92777000000007,190.42286 269.00000000000006,190.00000999999997 269.7999900000001,190.00000999999997 C 270.7000100000001,190.00000999999997 271.6000100000001,190.00000999999997 272.5000000000001,190.00000999999997 C 273.3999900000001,190.00000999999997 274.2999900000001,190.00000999999997 275.20001000000013,190.00000999999997 L 276.10000000000014,190.00000999999997 L 276.99999000000014,190.00000999999997 L 277.87850000000014,189.77850999999998" fill="none" id="svg_3" stroke="#000" stroke-width="2"/>
</svg>
