<?xml version="1.0" ?>
<svg baseProfile="full" height="480" version="1.1" width="640" xmlns="http://www.w3.org/2000/svg" xmlns:ev="http://www.w3.org/2001/xml-events" xmlns:xlink="http://www.w3.org/1999/xlink">
	<defs/>
	<path d="M 392.0,246.0 C 392.0,244.3 391.55881,243.27437 392.03601,242.436 C 392.4296,241.74452 393.67755,242.34077000000002 394.47916,241.97917 C 395.21195,241.64863 395.36591,240.49063 396.20002,240.084 C 396.95359,239.71663 397.65369,239.20483000000002 398.50001,239.02083 C 399.37998,238.8295 400.21882,238.49951 401.00001,238.16666999999998 C 401.75154,237.84647999999999 402.70002,237.99999999999997 403.60002,237.99999999999997 C 404.50001,237.99999999999997 405.40000999999995,237.99999999999997 406.29999999999995,237.99999999999997 C 407.20001999999994,237.99999999999997 408.10002,237.99999999999997 409.00001,237.99999999999997 C 409.79999999999995,237.99999999999997 410.70007999999996,237.98958999999996 411.60002,237.99999999999997 C 412.50019999999995,238.01041999999998 413.20329,238.54317999999998 414.10002,238.87848999999997 C 414.95066999999995,239.19656999999998 415.70631,239.22954999999996 416.16666999999995,239.99999999999997 C 416.59659999999997,240.71949999999998 417.5320899999999,240.93473999999998 418.29999999999995,241.35265999999996 C 419.14097,241.81034999999997 419.8545,242.00933999999995 420.60002,242.61066999999997 C 421.25392,243.13808999999998 422.12116999999995,243.61353999999997 422.71466999999996,244.08399999999997 C 423.45322999999996,244.66944999999998 423.81199,245.48856999999998 424.43600999999995,245.97466999999997 C 425.17816999999997,246.55279999999996 425.58511999999996,247.14971999999997 426.16666,247.83332999999996 C 426.73325,248.49934999999996 427.54062,248.82227999999995 427.91598999999997,249.56798999999995 C 428.31174,250.35419999999996 428.47326999999996,251.19663999999995 429.16666,251.83332999999996 C 429.76398,252.38180999999997 430.19302999999996,253.12408999999997 430.7045,253.69999999999996 C 431.36478,254.44347999999997 432.03125,255.14916999999997 432.38934,255.82533999999995 C 432.74664,256.50001 432.81170000000003,257.59092 433.35717,258.29551 C 433.9352,259.04215 434.93398,259.21403 434.99865,259.88667 C 435.08749,260.8105 435.49191,261.52313999999996 435.91467,262.28535 C 436.36026,263.08869 436.0,264.10002 436.0,265.00001 C 436.0,265.79999999999995 436.0,266.70002 436.0,267.60002 C 436.0,268.50001 435.75711,269.43483 436.00449,270.29551999999995 C 436.22519,271.06339999999994 436.98956999999996,271.52070999999995 437.0,272.50001999999995 C 437.00958,273.39994999999993 437.0,274.30000999999993 437.0,275.20002999999997 C 437.0,276.10002 437.0,277.00001999999995 437.0,277.80001 C 437.0,278.70002999999997 437.0,279.60003 437.0,280.50002 C 437.0,281.40001 437.16699,282.31591000000003 436.99866,283.19869 C 436.85425,283.95604 436.25055,284.47374 435.99552,285.29552 C 435.7587,286.05861 435.1933,286.54366 434.97916,287.50002 C 434.78954999999996,288.34685 434.0,289.00002 433.5,289.50002 L 432.79999,290.19869 L 432.20000999999996,290.71468 L 431.36400999999995,290.98933999999997" fill="none" id="svg_4" stroke="#000" stroke-width="2"/>
</svg>
