<?xml version="1.0" ?>
<svg baseProfile="full" height="480" version="1.1" width="640" xmlns="http://www.w3.org/2000/svg" xmlns:ev="http://www.w3.org/2001/xml-events" xmlns:xlink="http://www.w3.org/1999/xlink">
	<defs/>
	<path d="M 229.0,183.0 C 232.0925,182.12151 232.75984,182.08121 233.4875,182.05716 C 234.25985,182.03163 235.06248000000002,182.01883 235.88000000000002,182.01067 C 236.69747,182.00251 237.50000000000003,182.00068000000002 239.00000000000003,182.0 C 239.67084000000003,181.99971 240.85249000000002,182.0 241.37334000000004,182.0 C 242.30001000000004,182.0 243.10668000000004,182.0 244.51734000000005,182.0 C 245.18534000000005,182.0 245.86133000000004,182.0 247.33333000000005,182.0 C 247.74333000000004,182.0 248.62334000000004,182.0 249.58333000000005,182.0 C 250.09334000000004,182.0 251.17334000000005,181.99985 252.33333000000005,182.0 C 252.94267000000005,182.00009 254.20535000000004,182.00253 254.85066000000003,182.01067 C 255.50003000000004,182.01885000000001 256.15011000000004,182.01847 257.432,182.08533 C 258.66766,182.14978 259.25875,182.20755 260.38567,182.35717 C 260.92894,182.42929999999998 261.97924,182.60754 262.49099,182.70451 C 264.00176,182.99076 264.5013,183.09318 265.49551,183.30452 C 266.48065,183.51391999999998 266.97094000000004,183.61087 267.91467,183.88535 C 269.28994,184.28533 269.72381,184.47146999999998 270.58532,184.84668 C 271.46822000000003,185.23121999999998 271.91116000000005,185.45898 273.33334,186.16669 C 273.84317000000004,186.42038 274.36801,186.68401999999998 275.45065,187.22534 C 276.0,187.50000999999997 276.54934,187.77469 277.63199,188.31600999999998 C 278.66666,188.83333999999996 279.63039999999995,189.31389 280.08565999999996,189.54734999999997 C 280.96045,189.99595999999997 281.79479999999995,190.44610999999998 282.19731999999993,190.68401999999998 C 283.4116399999999,191.40173 284.19704999999993,191.95046999999997 284.58931999999993,192.22534 C 285.3670899999999,192.77032 286.1117499999999,193.32004999999998 287.17848999999995,194.07867 C 287.84105999999997,194.54986 288.48711,194.98937999999998 289.09547999999995,195.45268 C 290.01225999999997,196.15086 290.60591999999997,196.67898 291.19999999999993,197.23601 C 291.80607999999995,197.80426 292.3999799999999,198.40134999999998 292.9999899999999,199.00002 C 293.6039899999999,199.60268 294.2284399999999,200.22504 294.9079799999999,200.87201000000002 C 295.26963999999987,201.21634000000003 296.4985599999999,202.33496000000002 296.9641599999999,202.74268 C 297.45182999999986,203.16973000000002 297.95936999999986,203.60906 299.0208299999999,204.50002 C 299.5583999999999,204.95124 300.09769999999986,205.39644 300.63331999999986,205.83202 C 301.66389999999984,206.67009 302.62861999999984,207.42987 303.0811699999999,207.79018 C 303.5179399999999,208.13791 304.3575099999999,208.79799 305.1119899999999,209.48268 C 305.8481399999999,210.15072999999998 306.5198299999999,210.88194 306.8473099999999,211.25718999999998 C 307.5078299999999,212.01406999999998 307.81797999999986,212.41687 308.48399999999987,213.20136 C 309.51024999999987,214.41016 309.8862799999999,214.80315 310.2571599999999,215.21352 C 311.0228199999999,216.06072999999998 311.42014999999986,216.50012999999998 311.8044899999999,216.97152 C 313.0307499999999,218.47547 313.4040699999999,219.06126 313.79996999999986,219.65202 C 314.2042099999999,220.25522999999998 314.5999899999999,220.87603 314.9999799999999,221.50002999999998 C 315.3999699999999,222.12401999999997 315.7895599999999,222.74903999999998 316.1999899999999,223.34803999999997 C 317.3703099999999,225.05601999999996 317.7927899999999,225.54774999999998 318.1909899999999,226.02853999999996 C 318.94977999999986,226.94468999999995 319.34152999999986,227.35675999999995 320.0293099999999,228.19603999999995 C 320.6796099999999,228.98958999999996 321.2382599999999,229.79793999999995 321.4901599999999,230.20903999999996 C 321.9946199999999,231.03241999999995 322.4503699999999,231.91325999999995 322.6826599999999,232.37070999999995 C 323.4283599999999,233.83913999999996 323.6839699999999,234.36803999999995 323.9526499999999,234.90537999999995 C 324.4999799999999,236.00004999999996 324.7746399999999,236.54937999999996 325.0473199999999,237.09470999999996 C 325.8333299999999,238.66671999999997 326.0817999999999,239.15532999999996 326.5383199999999,240.08570999999998 C 326.75495999999987,240.52723999999998 327.1718999999999,241.37076999999996 327.5133299999999,242.19736999999998 C 328.00554999999986,243.38904999999997 328.2494099999999,244.19356999999997 328.4791499999999,244.97921999999997 C 328.7018999999999,245.74102999999997 328.9955099999999,246.83471999999998 329.2000099999999,247.51470999999998 C 329.3956899999999,248.16536 329.7000099999999,249.09554999999997 329.9999999999999,250.00005 C 330.29998999999987,250.90455 330.5095499999999,251.51796 330.79998999999987,252.48539 C 331.1100499999999,253.5182 331.3027999999999,254.24644 331.47915999999987,254.97923 C 331.6498799999999,255.68857 331.90576999999985,256.95453 331.96398999999985,257.72806 C 332.02929999999986,258.59561 331.99999999999983,259.60007 331.99999999999983,260.40006000000005 C 331.99999999999983,261.39875000000006 331.99999999999983,262.16407000000004 331.99999999999983,263.11472000000003 C 331.99999999999983,264.10022000000004 331.99999999999983,264.88541000000004 331.99999999999983,265.83606000000003 C 331.99999999999983,266.60138 331.99999999999983,267.60007 331.99999999999983,268.40006000000005 C 331.99999999999983,269.39875000000006 331.99999999999983,270.16407000000004 331.99999999999983,271.11741000000006 C 331.99999999999983,271.96940000000006 332.0506599999998,272.7713100000001 331.96398999999985,273.74940000000004 C 331.88219999999984,274.67237000000006 331.31573999999983,275.38520000000005 331.05715999999984,276.30458000000004 C 330.82320999999985,277.13634 331.05929999999984,278.03624 330.83333999999985,279.00008 C 330.64144999999985,279.81865000000005 330.26378999999986,280.38042 330.08531999999985,281.39876000000004 C 329.92174999999986,282.33214000000004 330.01118999999983,283.24748000000005 329.99998999999985,284.16673000000003 C 329.98954999999984,285.02110000000005 329.85862999999983,286.00883000000005 329.57466999999986,286.78941000000003 C 329.30751999999984,287.52375 329.01799999999986,288.36357000000004 328.99998999999985,289.30458000000004 C 328.9834799999999,290.16658000000007 328.99998999999985,291.00008 328.99998999999985,291.97856 C 328.99998999999985,292.79875000000004 328.99998999999985,293.67207 328.99998999999985,294.54274000000004 C 328.99998999999985,295.50008 329.63618999999983,296.4485 328.9893099999999,297.30675 C 328.6689699999999,297.73177000000004 327.8325399999999,296.75963 327.2428199999999,296.30007 C 326.3876899999999,295.63363 325.7601799999999,295.40438 324.7999799999999,294.67892 C 324.1801399999999,294.21063 323.6533699999999,293.60327 322.7999799999999,293.24292 C 322.0351499999999,292.91998 321.0038399999999,292.82101 320.2213399999999,292.58542 C 319.3374599999999,292.31934 319.1936899999999,293.12369 319.6466599999999,293.63608 C 320.28377999999987,294.35675 320.86381999999986,294.81606999999997 321.3473099999999,295.46175999999997 C 322.03584999999987,296.38131999999996 322.3758699999999,297.23157 322.5893099999999,297.81075999999996 C 323.0243699999999,298.99138999999997 323.18601999999987,299.60567999999995 323.5208299999999,300.50008999999994 C 323.74689999999987,301.10402999999997 324.31608999999986,302.30339999999995 324.6571499999999,302.90908999999994 C 325.0152099999999,303.5449499999999 325.42856999999987,304.2019399999999 325.9999799999999,305.33343999999994 C 326.4177699999999,306.16067999999996 326.6035899999999,306.60833999999994 326.9999799999999,307.52093999999994 C 327.40366999999986,308.45034999999996 327.5890599999999,308.92227999999994 328.1998099999999,310.2784199999999 C 328.5885399999999,311.1415799999999 328.7916099999999,311.5523799999999 329.1639799999999,312.35342999999995 C 329.51681999999994,313.11242999999996 329.97378999999995,314.18042999999994 330.37463999999994,315.1534199999999 C 330.62231999999995,315.75467999999995 331.15405999999996,316.84192999999993 331.4839799999999,317.3174199999999 C 331.98135999999994,318.0342199999999 332.5645199999999,318.7454299999999 332.9784599999999,319.6429199999999 C 333.2789699999999,320.2944699999999 333.48288999999994,321.0198399999999 333.79864999999995,322.1174399999999 C 334.10360999999995,323.17755999999986 334.29650999999996,323.84402999999986 334.49996999999996,324.4792599999999 C 334.79497999999995,325.4003999999999 335.08800999999994,326.3043599999999 335.41065,327.2001199999999 C 335.62784,327.80308999999994 336.15619,329.0057499999999 336.4853,329.60142999999994 C 336.82529999999997,330.21678999999995 337.41792,331.14949999999993 337.99998,332.16676999999993 C 338.40815,332.8801199999999 338.79389,333.63386999999994 338.97914,334.02095999999995 C 339.35209999999995,334.8002599999999 339.84290999999996,335.9967899999999 340.11598,336.79878999999994 C 340.38410999999996,337.58629999999994 340.60359,338.3719699999999 340.88399,339.11476999999996 C 341.29017999999996,340.19073 341.63945,340.84612 342.17464,341.75343999999996 C 342.50783,342.31831999999997 343.11599,343.31611999999996 343.49999,344.00010999999995 C 343.88399000000004,344.68409999999994 344.48641000000003,345.6839499999999 344.82534000000004,346.23609999999996 C 345.17715000000004,346.80924999999996 345.84951000000007,347.99278 346.11465000000004,348.60011 C 346.50314000000003,349.48999999999995 346.69497,350.10029 347.10015000000004,351.30026999999995 C 347.30422000000004,351.90469999999993 347.62572000000006,352.84012999999993 347.88534000000004,353.48542 C 348.30483000000004,354.52804999999995 348.64871000000005,355.25016 348.99999,355.97925999999995 C 349.34347,356.69211999999993 349.83333000000005,357.66675999999995 350.24282000000005,358.48575999999997 C 350.58932000000004,359.17877999999996 351.08291,360.20935999999995 351.41067000000004,360.80008999999995 C 351.86199000000005,361.61350999999996 352.49468,362.39270999999997 352.99999,363.02094999999997 C 353.52727000000004,363.6765 354.01412000000005,364.40531999999996 354.35332000000005,365.21477 C 354.67266000000006,365.97679 355.05339000000004,367.02715 354.99999,368.00011 C 354.95339,368.84868 354.10778000000005,369.06874 353.34282,369.35277 C 352.58971,369.6324 351.59651,369.89308 350.79997000000003,370.02544 C 349.79439,370.19252 348.96855000000005,370.53823 348.22932000000003,370.71611 C 347.36692000000005,370.92363 346.34956000000005,370.97197 345.65065000000004,370.98943 C 344.96812000000006,371.00646 343.76320000000004,371.09517000000005 342.85732,370.96410000000003 C 341.86324,370.82027000000005 341.27065,370.27016000000003 340.34282,370.05278000000004 C 339.60799000000003,369.8806 338.57002,369.77373000000006 337.79997000000003,369.35344000000003 C 336.96248,368.89632000000006 336.39949,368.33257000000003 335.72798,367.78944 C 335.23546,367.39109 334.36506,366.78727000000003 333.35997,366.21077 C 332.69156999999996,365.82741000000004 332.01923999999997,365.53874 331.05598,364.88545000000005 C 330.40711999999996,364.44539000000003 329.79997,363.80009000000007 329.19998999999996,363.20012 L 328.52081999999996,362.50011 L 328.05264999999997,361.69112 L 327.91596,361.02944" fill="none" id="svg_3" stroke="#000" stroke-width="2"/>
</svg>
