<?xml version="1.0" ?>
<svg baseProfile="full" height="480" version="1.1" width="640" xmlns="http://www.w3.org/2000/svg" xmlns:ev="http://www.w3.org/2001/xml-events" xmlns:xlink="http://www.w3.org/1999/xlink">
	<defs/>
	<path d="M 384.5,297.89999 C 386.50983,297.89999 387.28537,297.89392 388.33334,297.89999 C 389.25338,297.90533 390.05975,297.88791 390.87466,298.33599 C 391.72665,298.80447 392.30175,299.34502 393.01599,299.61465 C 394.06137,300.0093 394.90878,300.32678 395.5,300.89999 C 396.10922,301.49066 396.79623,302.20379 397.29999,302.70001 C 397.99483999999995,303.38446000000005 398.8721,303.69681 399.70133,304.18667 C 400.33085,304.55859 400.97506999999996,305.39486 401.52085,305.89999 C 402.09086,306.42755 402.93052,306.97113 403.66401,307.52533 C 404.5192,308.17151 404.85377,308.7738 405.36701,309.3045 C 406.20051,310.16632000000004 406.85578,310.50726000000003 407.52085,310.87918 C 408.19259999999997,311.25482 409.16666,311.73334 409.98566,312.14282000000003 C 410.67868,312.48935 411.71121999999997,312.97857000000005 412.47916,313.39999 C 413.34686999999997,313.87616 413.95297999999997,314.4956 414.82117,314.77865 C 415.61081,315.03610000000003 416.28015,315.56765 417.02085,315.87917000000004 C 417.83176,316.2202300000001 418.60721,316.35292000000004 419.50001,316.73333 C 420.25154,317.05352000000005 421.14682999999997,316.90148000000005 421.98666999999995,317.18398 C 422.7579099999999,317.44341000000003 423.66284999999993,317.76558 424.45266999999996,317.84282 C 425.2720699999999,317.92293 426.33334999999994,317.89998 427.27466,317.89998 C 427.95266999999996,317.89998 428.92150999999996,317.89998 429.73598999999996,317.89998 C 430.60448999999994,317.89998 431.79999,317.89998 432.39998999999995,317.89998 C 433.29997999999995,317.89998 434.49999999999994,317.89998 435.09865999999994,317.89998 C 435.97914999999995,317.89998 436.81465999999995,317.89998 437.81465999999995,317.89998 C 438.68931999999995,317.89998 439.69981999999993,317.89998 440.47914999999995,317.89998 C 441.47865999999993,317.89998 442.38399999999996,317.89998 443.1571599999999,317.89998 C 444.1013099999999,317.89998 445.0999999999999,317.89998 445.89998999999995,317.89998 C 446.90133,317.89998 447.52083999999996,317.89998 448.66664999999995,317.89998 C 449.45714999999996,317.89998 450.3106599999999,317.89998 450.90133,317.89998 C 452.10130999999996,317.89998 453.02083999999996,317.90001 453.65716,317.89998 C 455.02133,317.89989 455.75291999999996,317.9055 456.49998999999997,317.87917000000004 C 457.24775999999997,317.85283000000004 458.34069,317.76876000000004 459.33833999999996,317.54284000000007 C 459.96374,317.40121000000005 460.81332,317.09866000000005 461.81465999999995,316.70132000000007 L 462.47914999999995,316.4208300000001" fill="none" id="svg_3" stroke="#000" stroke-width="2"/>
</svg>
