<?xml version="1.0" ?>
<svg baseProfile="full" height="480" version="1.1" width="640" xmlns="http://www.w3.org/2000/svg" xmlns:ev="http://www.w3.org/2001/xml-events" xmlns:xlink="http://www.w3.org/1999/xlink">
	<defs/>
	<path d="M 270.0,236.0 C 274.17117,247.429 274.30771,248.12354 274.36151,248.76967 C 274.41189,249.37482 274.37668,250.53101999999998 274.33017,251.107 C 274.28217,251.70176 274.15964,252.99961 274.12201,253.72851 C 274.08182,254.50765 274.06185999999997,255.32952 274.06799,256.184 C 274.07428,257.06263 274.10659,257.95686 274.17599,258.85551000000004 C 274.2453,259.75303 274.48468,261.50315000000006 274.66433,262.33567000000005 C 274.83978,263.14869000000004 275.05856,263.9355800000001 275.29733,264.70267000000007 C 275.53335,265.4609700000001 275.7948,266.2044400000001 276.05633,266.94367000000005 C 276.31747,267.68177000000003 276.83901000000003,269.16483000000005 277.07833,269.92133000000007 C 277.31905,270.68219000000005 277.5432,271.45133000000004 277.75332,272.22535000000005 C 277.96324999999996,272.99870000000004 278.15765,273.77363 278.33833999999996,274.5473400000001 C 278.51762999999994,275.3150100000001 278.83622999999994,276.8328000000001 278.97880999999995,277.5791700000001 C 279.12022999999994,278.3194700000001 279.25172999999995,279.0608600000001 279.38532999999995,279.8066800000001 C 279.52073999999993,280.56254000000007 279.6584,281.3339000000001 279.80983,282.1241800000001 C 279.96628999999996,282.9405900000001 280.32856999999996,284.6677600000001 280.54283,285.5848400000001 C 280.76442,286.5331700000001 281.00557,287.4982600000001 281.26131,288.4693300000001 C 281.51659,289.4386300000001 281.78069,290.3920000000001 282.05181,291.3178400000001 C 282.31286,292.2093200000001 282.8279,293.8352400000001 283.07833,294.5496500000001 C 283.30834,295.2057800000001 283.53609,295.8051700000001 283.75332,296.3586700000001 C 283.95626,296.8758200000001 284.15925999999996,297.35901000000007 284.33833999999996,297.82565000000005 C 284.85045999999994,299.16021000000006 284.98808999999994,299.61868000000004 285.24733999999995,300.55267000000003 C 285.50954999999993,301.4974 285.60515999999996,301.98043 285.88399999999996,302.91598000000005 C 286.29293999999993,304.2879300000001 286.46327999999994,304.73107000000005 286.88933999999995,305.58532 C 287.1103499999999,306.02844000000005 287.67620999999997,306.92053000000004 288.02800999999994,307.36932 C 288.80296999999996,308.35791 289.8191499999999,309.37317 290.38133999999997,309.90084 C 290.96300999999994,310.4468 291.57802999999996,310.98553000000004 292.21734,311.51333 C 292.86003999999997,312.04394 293.50505999999996,312.56945 294.83333999999996,313.49998999999997 C 295.47103999999996,313.94674 296.11247999999995,314.35108999999994 296.74733999999995,314.73299 C 297.3712699999999,315.10832999999997 297.9985,315.46105 298.62532999999996,315.80397 C 299.25118,316.14637999999997 299.88604,316.47751999999997 301.16664999999995,317.16664 C 301.82185999999996,317.51923999999997 302.48118999999997,317.88050999999996 303.13915,318.24814999999995 C 304.43983999999995,318.97493 305.06742999999994,319.33728999999994 305.67582999999996,319.69013999999993 C 306.26075999999995,320.0293699999999 307.33317999999997,320.66691999999995 308.26798999999994,321.2319799999999 C 308.70273999999995,321.4947699999999 309.55582999999996,322.0123099999999 310.48215999999996,322.5053299999999 C 310.98844999999994,322.7747699999999 312.16455999999994,323.3379399999999 312.85031999999995,323.6426599999999 C 313.59378999999996,323.97300999999993 314.39372,324.3100799999999 315.24130999999994,324.6506599999999 C 316.12298999999996,325.0049399999999 317.03653999999995,325.3550699999999 317.97430999999995,325.6946699999999 C 318.92190999999997,326.0378099999999 320.8307899999999,326.6750199999999 321.77829999999994,326.9565099999999 C 322.71091999999993,327.2335799999999 323.6358399999999,327.48250999999993 324.5533199999999,327.69600999999994 C 325.4559999999999,327.90605999999997 326.35128999999995,328.08318999999995 327.23831999999993,328.21950999999996 C 328.1115199999999,328.35369999999995 329.8328599999999,328.513 330.67947999999996,328.53567 C 331.52241,328.55825 332.37005999999997,328.53952 333.22796999999997,328.50264999999996 C 334.10443,328.46498999999994 335.00527999999997,328.40373999999997 335.93847999999997,328.34364999999997 C 336.91062,328.28105999999997 338.99978999999996,328.16146 340.12728999999996,328.12147999999996 C 341.29846,328.07994999999994 342.49789999999996,328.05418999999995 343.70928999999995,328.03599999999994 C 344.91659999999996,328.01786999999996 346.10396999999995,328.00920999999994 347.25530999999995,328.00447999999994 C 348.35463999999996,327.99995999999993 350.3333099999999,327.99998999999997 351.18612999999993,327.99998999999997 C 351.9559699999999,327.99998999999997 352.65978999999993,327.99998999999997 353.31463999999994,327.99998999999997 C 353.93746999999996,327.99998999999997 354.54528999999997,327.99998999999997 355.15515999999997,327.99998999999997 C 355.78396999999995,327.99998999999997 357.16662999999994,327.99998999999997 357.94980999999996,327.99998999999997 C 358.79196999999994,327.99998999999997 359.68213999999995,327.99998999999997 360.60932999999994,327.99998999999997 C 361.56248999999997,327.99998999999997 362.53065999999995,327.99998999999997 363.50281999999993,327.99998999999997 C 364.4679699999999,327.99998999999997 366.33332999999993,327.99998999999997 367.2149799999999,327.99998999999997 C 368.0666599999999,327.99998999999997 368.89832999999993,327.99998999999997 369.7199799999999,327.99998999999997 C 370.5416399999999,327.99998999999997 371.3732999999999,327.99998999999997 372.2249799999999,327.99998999999997 C 373.1066299999999,327.99998999999997 374.9999699999999,327.99998999999997 376.02780999999993,327.99998999999997 C 377.10263999999995,327.99998999999997 378.21145999999993,327.99998999999997 379.34131999999994,327.99998999999997 C 380.4791399999999,327.99998999999997 381.61197999999996,327.99998999999997 382.7268199999999,327.99998999999997 C 383.8106499999999,327.99998999999997 385.83332999999993,327.99998999999997 386.7494899999999,327.99998999999997 C 387.60263999999995,327.99998999999997 388.3998199999999,327.99998999999997 389.14798999999994,327.99998999999997 C 389.8541399999999,327.99998999999997 390.52530999999993,327.99998999999997 391.16846999999996,327.99998999999997 C 391.79065999999995,327.99998999999997 392.99997999999994,328.00149 393.60013999999995,327.99949999999995 C 394.20131,327.99748999999997 394.80469999999997,327.99235999999996 395.41065999999995,327.96797999999995 C 396.02109999999993,327.94341 396.63706999999994,327.90187999999995 397.25715999999994,327.82847999999996 C 397.88658999999996,327.75398999999993 399.1691799999999,327.50981999999993 399.82231999999993,327.33582999999993 C 400.49476999999996,327.15671999999995 401.17988999999994,326.9382799999999 401.88933999999995,326.7133299999999 C 402.62526999999994,326.47995999999995 403.38851999999997,326.2327399999999 404.19032999999996,326.00080999999994 C 405.02586999999994,325.75910999999996 406.83101999999997,325.32108999999997 407.80613999999997,325.14313999999996 C 408.81377,324.95926999999995 409.84882999999996,324.81104999999997 410.89464,324.68265999999994 C 411.93656999999996,324.55472999999995 412.96488999999997,324.45252999999997 413.96517,324.3661599999999 C 414.92361,324.2833999999999 416.66659,324.16565999999995 417.42834,324.1209799999999 C 418.11993,324.0804199999999 418.75201,324.0482899999999 419.33333999999996,324.0039799999999 C 419.87532999999996,323.9626599999999 420.38811999999996,323.9123099999999 420.87832,323.8329899999999 C 421.36159999999995,323.7547999999999 422.33581,323.5074299999999 422.84297999999995,323.3361599999999 C 423.3733399999999,323.1570499999999 423.91389999999996,322.9453799999999 424.47198,322.7346599999999 C 425.04121999999995,322.5196899999999 425.61825,322.30252999999993 426.20901,322.1151499999999 C 426.79974,321.92779999999993 427.99791999999997,321.6492399999999 428.60033999999996,321.5858199999999 C 429.20107999999993,321.5225899999999 429.8092,321.5143499999999 430.42132,321.5332999999999 C 431.04204999999996,321.5525299999999 431.67213999999996,321.60476999999986 432.31433,321.6607999999999 C 432.97085,321.7180799999999 434.33304,321.8382299999999 435.04285,321.87847999999985 C 435.76908,321.91967999999986 436.50973999999997,321.94588999999985 437.26133,321.9639599999999 C 438.02079,321.9822399999999 438.78535,321.99081999999987 439.55183,321.9954799999999 C 440.31732999999997,322.00014999999985 441.83335,321.99996999999985 442.57835,321.99996999999985 C 443.31334,321.99996999999985 444.03834,321.99996999999985 444.75334,321.99996999999985 C 445.45835999999997,321.99996999999985 446.15333,321.99996999999985 446.83835999999997,321.99996999999985 C 447.51334999999995,321.99996999999985 448.83335999999997,321.99996999999985 449.47819,321.99996999999985 C 450.11201,321.99996999999985 450.73384,321.99996999999985 451.34269,321.99996999999985 C 451.93751000000003,321.99996999999985 452.51734,321.99996999999985 453.08118,321.99996999999985 C 453.62799,321.99996999999985 454.66666000000004,321.99996999999985 455.1575,321.99996999999985 C 456.09915,321.99996999999985 457.02084,321.99996999999985 457.96249,321.99996999999985 C 458.45333,321.99996999999985 460.06466,321.99996999999985 460.65734,321.99996999999985 C 461.27599,321.99996999999985 461.91866,321.99996999999985 463.268,321.99996999999985 C 463.97067,321.99996999999985 464.68933,322.00030999999984 466.16664999999995,321.99996999999985 C 466.92184,321.99978999999985 467.68800999999996,322.00020999999987 468.46614999999997,321.99096999999983 C 469.25735,321.9815699999998 470.06271,321.96389999999985 470.88264999999996,321.9279799999998 C 471.71910999999994,321.8913299999998 472.57442,321.85387999999983 474.33332999999993,321.6666299999998 C 475.24409999999995,321.56967999999983 476.1689599999999,321.43548999999985 477.1053299999999,321.2856499999998 C 478.05164999999994,321.1342199999998 479.00080999999994,320.9625299999998 479.94931999999994,320.7786299999998 C 480.89545999999996,320.5951899999998 481.83356999999995,320.4045199999998 483.6666399999999,319.9999699999998 C 484.5571099999999,319.8034699999998 485.4246999999999,319.6029699999998 486.2676499999999,319.3999599999998 C 487.0860099999999,319.20287999999977 487.8760799999999,319.0040599999998 488.6346499999999,318.7999499999998 C 489.3633799999999,318.6038699999998 490.0617999999999,318.4181099999998 491.3333199999999,317.9999599999998 C 491.9167899999999,317.8080999999998 492.4612199999999,317.6049999999998 492.9713199999999,317.3954699999998 C 493.4584999999999,317.1953399999998 493.9208399999999,316.9875099999998 494.35730999999987,316.7639699999998 C 495.2030999999999,316.3307699999998 496.4021999999999,315.5822099999998 496.79865999999987,315.3159699999998 C 497.5941599999999,314.78175999999985 498.36408999999986,314.2254199999998 498.74280999999985,313.95262999999983 C 499.83356999999984,313.1669499999998 500.51419999999985,312.6793799999998 501.18530999999984,312.22529999999983 C 501.85821999999985,311.77000999999984 502.5667799999998,311.31190999999984 503.74197999999984,310.57896999999986 C 504.16174999999987,310.31718999999987 505.01162999999985,309.80174999999986 505.8052999999998,309.29728999999986 C 506.4938399999998,308.85963999999984 507.14928999999984,308.30994999999984 506.9999699999998,307.71412999999984 C 506.8002299999998,306.91709999999983 507.0103199999998,306.2123599999998 506.9374699999998,305.39579999999984 C 506.8552899999998,304.47468999999984 506.5133399999998,302.99534999999986 506.3349599999998,302.50010999999984 C 506.1534699999998,301.99622999999985 505.6777899999998,300.99983999999984 505.3749699999998,300.52079999999984 C 504.7508599999998,299.53349999999983 504.36968999999976,299.0572099999998 503.4999699999998,298.1666099999998 C 503.0492299999998,297.70505999999983 501.9995399999998,296.81791999999984 501.4172999999998,296.3506299999998 C 500.79437999999976,295.8506899999998 500.1143199999998,295.3246899999998 499.3862899999998,294.7471099999998 C 498.5968599999998,294.1208299999998 496.82906999999983,292.6715799999998 495.8506499999998,291.82895999999977 C 494.8074399999998,290.93054999999976 493.7284899999998,289.9727299999998 492.6226499999998,288.97595999999976 C 491.4970999999998,287.96145999999976 490.3753099999998,286.93277999999975 489.2686499999998,285.90695999999974 C 488.1860099999998,284.9033899999997 486.1652899999998,283.0013499999997 485.2499699999998,282.12860999999975 C 484.3920599999998,281.31058999999976 483.5863999999998,280.53418999999974 482.8199799999998,279.79462999999976 C 482.0830699999998,279.08353999999974 481.3676499999998,278.39090999999974 480.6599799999998,277.71262999999976 C 479.9542899999998,277.03623999999974 478.5017499999998,275.66471999999976 477.7359699999998,274.95743999999974 C 476.9497799999998,274.23133999999976 476.1433199999998,273.49762999999973 475.3239799999998,272.75995999999975 C 474.5013199999998,272.01929999999976 473.6759699999998,271.28659999999974 472.85797999999977,270.5624499999997 L 472.0519799999998,269.85327999999976" fill="none" id="svg_3" stroke="#000" stroke-width="2"/>
</svg>
