<?xml version="1.0" ?>
<svg baseProfile="full" height="480" version="1.1" width="640" xmlns="http://www.w3.org/2000/svg" xmlns:ev="http://www.w3.org/2001/xml-events" xmlns:xlink="http://www.w3.org/1999/xlink">
	<defs/>
	<path d="M 151.5,173.0 C 150.58667,173.88667 150.89435,174.64204 151.14734,175.4045 C 151.47177000000002,176.38225 151.38661000000002,177.28039 152.06934,178.116 C 152.57506,178.73497 153.5019,179.30428 153.864,179.82534 C 154.32971,180.49548000000001 154.90265,181.36149 155.60018,182.10033 C 156.13807,182.67006 156.67982,183.32412000000002 157.14817,184.00534000000002 C 157.65302,184.73967000000002 158.16667999999999,185.66667 158.46000999999998,186.36 C 158.75332999999998,187.05333000000002 159.34602999999998,188.05946 159.79734,188.68666000000002 C 160.28673999999998,189.36677000000003 160.80566,190.04420000000002 161.57851,190.95717000000002 C 162.03524,191.49671 162.49287999999999,191.96735 163.09867,192.68266000000003 C 163.71415,193.40942000000004 164.28461,194.22679000000002 164.7,194.73866000000004 C 165.47206,195.69005000000004 166.13244999999998,196.15210000000005 166.664,196.65066000000004 C 167.54536,197.47735000000006 167.74472999999998,198.01797000000005 168.16133,198.82133000000005 C 168.46419,199.40536000000006 169.25932,200.60586000000004 169.75066999999999,201.18933000000004 C 170.24077,201.77132000000003 170.77936,202.27865000000003 171.53067,203.31599000000003 C 172.01045,203.97844000000003 172.3696,204.69194000000002 172.82166999999998,205.42149000000003 C 173.33208,206.24521000000004 173.73343999999997,206.82075000000003 174.18666,207.40133000000003 C 174.9007,208.31602000000004 175.44245999999998,208.89640000000003 175.97916999999998,209.45832000000004 C 176.72281999999998,210.23690000000005 177.39276999999998,210.82581000000005 177.97916999999998,211.52082000000004 C 178.40999999999997,212.03146000000004 178.98466,213.05369000000005 179.33599999999998,213.68665000000004 C 179.70996,214.36039000000005 180.05115999999998,215.06838000000005 180.89866999999998,216.22799000000003 C 181.26815,216.73353000000003 181.84058,217.33607000000003 182.61599999999999,218.11599000000004 C 183.12385999999998,218.62679000000003 183.83196999999998,219.31129000000004 184.32533999999998,219.83599000000004 C 185.03152999999998,220.58703000000003 185.63458999999997,221.38833000000002 185.97917999999999,221.99999000000003 C 186.53259,222.98234000000002 186.79048999999998,223.61947000000004 187.17200999999997,224.27199000000002 C 187.80318999999997,225.35152000000002 188.26287999999997,225.97269000000003 188.76134999999996,226.65065 C 189.27867999999995,227.35426 189.53302999999997,227.71008 190.33333999999996,228.66666 C 191.02239999999998,229.49025 191.60530999999997,230.17072000000002 192.33333999999996,230.66666 C 193.04808999999997,231.15357 193.70799999999997,231.84978 194.00000999999997,232.52082000000001 C 194.30849999999998,233.2297 194.77805999999998,234.21271000000002 195.25717999999998,234.74816 C 195.94749,235.51961 196.52826999999996,235.99688 197.01600999999997,236.60132000000002 C 197.78938999999997,237.55972000000003 198.02444999999997,238.20896000000002 198.69999999999996,239.11466000000001 C 199.15821999999997,239.72898 199.80000999999996,240.29999 200.49999999999997,240.99999000000003 C 201.04166999999998,241.54166000000004 201.83585999999997,242.33080000000004 202.26800999999998,242.76932000000002 C 203.00435,243.51654000000002 203.52424999999997,244.02732000000003 204.16667999999999,244.83332000000001 C 204.71625999999998,245.52282000000002 205.08006999999998,246.21400000000003 205.66667999999999,246.99999000000003 C 206.12641,247.61599000000004 206.66055999999998,248.17817000000002 207.47868,248.97849000000002 C 208.11457,249.60055000000003 208.82557,250.09348000000003 209.52084,250.52082000000001 C 210.10481,250.87975 211.10423,251.66291 211.54167999999999,252.02082000000001 C 212.26292999999998,252.61092000000002 213.13859,253.20686 213.80533999999997,253.60000000000002 C 214.49584999999996,254.00715000000002 215.21642999999997,254.36611000000002 216.16667999999999,254.99999000000003 C 217.01513,255.56595000000002 217.46899,256.02666000000005 218.26800999999998,256.51467 C 219.11329999999998,257.03094000000004 219.81513999999999,257.24966 220.54167999999999,257.52083000000005 C 221.30987,257.8075400000001 222.51144,258.31297000000006 223.29601,258.76665 C 224.07993,259.21993000000003 224.43227,259.48714 225.1285,259.93749 C 226.22773,260.64852 227.00089,260.93075000000005 227.83333,261.33333000000005 C 228.53031,261.67040000000003 229.28214,262.1905100000001 229.81734,262.51732000000004 C 230.81148,263.12435000000005 231.50846,263.50984000000005 232.26934,263.79866000000004 C 233.45075,264.24709 234.14706,264.40449000000007 234.84934,264.56398 C 236.16054000000003,264.86177000000004 236.73331000000002,264.90431 237.75068000000002,265.02531 C 238.83488000000003,265.15425 239.46754,265.27988999999997 240.14001000000002,265.4253 C 241.13884000000002,265.64127 242.23144000000002,265.91956 242.97918,265.97913 C 243.8309,266.04697 244.76464,265.97129 245.55184000000003,266.05713 C 246.58559000000002,266.16988999999995 247.25983000000002,266.47666 248.18401000000003,266.71596999999997 C 249.17125000000004,266.97162 250.00489000000002,266.96151 250.81600000000003,267.08398 C 251.82567000000003,267.23645 252.50945000000004,267.54425 253.26934000000003,267.71596999999997 C 254.45960000000002,267.98494999999997 255.19311000000002,267.97238 255.99334000000002,267.98929 C 256.87318,268.00788 257.83335,267.99759 258.86533000000003,268.00131 C 259.39634,268.00323 260.45853000000005,268.01541 260.97733000000005,268.03598 C 261.96180000000004,268.07504 263.22028000000006,268.19299 263.87134000000003,268.35263 C 264.89380000000006,268.60332999999997 265.69605,268.9212 266.52085000000005,268.97913 C 267.66404000000006,269.05942 268.45716000000004,268.99997 269.31068000000005,268.99997 C 269.90135000000004,268.99997 271.09733000000006,268.99997 271.95835000000005,268.99997 C 272.72935000000007,268.99997 273.69916000000006,268.99997 274.5533500000001,268.99997 C 275.5560100000001,268.99997 276.20801000000006,268.99997 276.9320100000001,268.99997 C 277.7040100000001,268.99997 278.8995100000001,268.99997 280.0680000000001,268.99997 C 280.7920000000001,268.99997 281.4440100000001,268.99997 282.6330000000001,268.99997 C 283.6666600000001,268.99997 284.3466800000001,268.99997 285.1866800000001,268.99997 C 286.18268000000006,268.99997 286.9791600000001,268.99997 287.73066000000006,268.99997 C 288.83866000000006,268.99997 289.82133000000005,268.99997 290.6746600000001,268.99997 C 291.6146600000001,268.99997 292.5001900000001,269.01648 293.30000000000007,268.99997 C 294.1725600000001,268.98196 295.0469800000001,268.79184000000004 295.76133000000004,268.56397000000004 C 296.55671000000007,268.31025000000005 297.57453000000004,267.89054000000004 298.26402,267.61063 C 299.09404,267.27369 300.10743,267.0741 300.95717,266.94730000000004 C 301.92513,266.80283000000003 302.72823,266.60032000000007 303.49019000000004,266.29548000000005 C 304.37489000000005,265.94154000000003 305.07945000000007,265.33167000000003 305.98534000000006,265.08399000000003 C 306.6928900000001,264.89051 307.70394000000005,264.78977000000003 308.47918000000004,264.49998000000005 C 309.33807,264.17890000000006 310.20062,264.07533000000006 311.04168000000004,263.97914000000003 C 312.05599000000007,263.86314000000004 312.76486000000006,263.60036 313.49468,263.29549000000003 C 314.55382000000003,262.85305000000005 315.21911,262.25930000000005 315.98403,262.08532 C 316.82952,261.89303 317.86403,261.99999 318.80001000000004,261.99999 C 319.70135000000005,261.99999 320.38851000000005,262.06673 321.32537,261.98931000000005 C 322.34191000000004,261.90533000000005 322.98702000000003,261.40108000000004 323.83337,261.16665000000006 C 324.73797,260.91607000000005 325.56503,261.01394000000005 326.57837,260.7786500000001 C 327.26523000000003,260.6191700000001 328.33646,260.1785200000001 329.00003,259.9999900000001 C 329.99026,259.7336000000001 330.69144,259.3535100000001 331.69986,259.12133000000006 C 332.46848,258.9443600000001 333.35693,258.87295000000006 334.12537,258.38934000000006 C 334.84546,257.9361200000001 335.49436,257.43649000000005 336.50003,257.16665000000006 C 337.27454,256.9588600000001 338.35693,256.8744700000001 339.00003,256.47915000000006 C 339.85641,255.95271000000005 340.33444,255.57314000000005 341.18671,255.19999000000007 C 342.17218,254.76852000000008 342.73456,254.59576000000007 343.60453,254.30000000000007 C 344.79774000000003,253.89435000000006 345.38697,253.69149000000007 346.22803,253.43600000000006 C 347.16242,253.15216000000007 348.11502,253.02545000000006 348.98535,252.99867000000006 C 349.71117999999996,252.97633000000005 350.70788,252.79880000000006 351.52087,252.47917000000007 C 352.19213,252.21527000000006 353.18402,251.80000000000007 354.00003,251.50000000000006 C 354.81604,251.20000000000005 355.80980999999997,250.79305000000005 356.45837,250.52083000000005 C 357.32876,250.15550000000005 358.12533,250.00534000000005 359.15719,250.00000000000006 C 359.90453,249.99614000000005 360.89871,250.00053000000005 361.66403,250.00000000000006 C 362.61737000000005,249.99933000000004 363.47409000000005,249.93282000000005 364.27203000000003,249.71466000000007 C 365.06765,249.49715000000006 365.98556,249.18993000000006 367.02102,248.90016000000006 C 367.742,248.69839000000005 368.45419000000004,248.50262000000006 369.44537,248.28534000000005 C 370.44152,248.06696000000005 371.24368000000004,248.00226000000004 372.15719,248.00000000000006 C 372.90453,247.99815000000007 373.94659,248.23972000000006 374.7857,247.94284000000005 C 375.62850000000003,247.64467000000005 376.14669000000004,246.97467000000006 376.98403,246.71600000000004 L 377.84734000000003,246.35266000000004" fill="none" id="svg_3" stroke="#000" stroke-width="2"/>
</svg>
