<?xml version="1.0" ?>
<svg baseProfile="full" height="480" version="1.1" width="640" xmlns="http://www.w3.org/2000/svg" xmlns:ev="http://www.w3.org/2001/xml-events" xmlns:xlink="http://www.w3.org/1999/xlink">
	<defs/>
	<path d="M 225.46667,172.78333 C 225.46667,174.78867 225.44056,175.53298 225.46681999999998,176.64051 C 225.48478999999998,177.39864 225.78596,178.25332 226.11398999999997,179.13067 C 226.44572999999997,180.01795 226.46666999999997,180.95001000000002 226.46666999999997,181.78333 C 226.46666999999997,182.76183 226.46666999999997,183.47884000000002 226.46666999999997,184.38334 C 226.46666999999997,185.28333 226.46666999999997,186.18334000000002 226.46666999999997,187.08334 C 226.46666999999997,187.98201 226.46666999999997,188.95001 226.46666999999997,189.67001 C 226.46666999999997,190.63002 226.46666999999997,191.47001 226.46666999999997,192.46868999999998 C 226.46666999999997,193.30417999999997 226.46666999999997,193.88785 226.46666999999997,195.08317999999997 C 226.46666999999997,195.97268999999997 226.46666999999997,196.82618999999997 226.46666999999997,197.86184999999998 C 226.46666999999997,198.54734999999997 226.46666999999997,199.38201999999998 226.46666999999997,200.37884999999997 C 226.46666999999997,201.29801999999998 226.38057999999995,202.18457999999998 225.89198999999996,202.80868999999998 C 225.39947999999995,203.43783 225.47206999999997,204.38336999999999 225.46666999999997,205.28334999999998 C 225.46132999999998,206.17273999999998 224.78157999999996,206.71577 224.52382999999998,207.49318999999997 C 224.26909999999998,208.26148999999998 224.46666999999997,209.26251999999997 224.46666999999997,210.18335999999996 C 224.46666999999997,211.08785999999998 224.54025999999996,211.95512999999997 224.44582999999997,212.78334999999996 C 224.33263999999997,213.77591999999996 223.79096999999996,214.37517999999994 223.55066999999997,215.26868999999996 C 223.30933999999996,216.16608999999997 223.17549999999997,217.18082999999996 222.96666999999997,217.78334999999996 C 222.62145999999996,218.77931999999996 222.48467999999997,219.57222999999996 222.46666999999997,220.61668999999995 C 222.45363999999998,221.37257999999994 222.62376999999998,222.29905999999994 222.45598999999996,223.18335999999994 C 222.27651999999995,224.12926999999993 221.57741999999996,224.77380999999994 221.46799999999996,225.58334999999994 C 221.34719999999996,226.47712999999993 220.78176999999997,227.20648999999995 220.52382999999995,228.08784999999995 C 220.28113999999994,228.91712999999996 220.46666999999994,229.78334999999996 220.46666999999994,230.76184999999995 C 220.46666999999994,231.58202999999995 220.46666999999994,232.48335999999995 220.46666999999994,233.30418999999995 C 220.46666999999994,234.26867999999996 220.46666999999994,234.99401999999995 220.46666999999994,235.98335999999995 C 220.46666999999994,236.78334999999996 220.46666999999994,237.78334999999996 220.46666999999994,238.57267999999993 C 220.46666999999994,239.61668999999995 220.46666999999994,240.47884999999994 220.46666999999994,241.30418999999995 C 220.46666999999994,242.26602999999994 220.46666999999994,243.07351999999995 220.46666999999994,244.07135999999994 C 220.46666999999994,244.75534999999994 220.46666999999994,245.79768999999993 220.46666999999994,246.60468999999995 C 220.46666999999994,247.78335999999996 220.46666999999994,248.38468999999995 220.46666999999994,249.30419999999995 C 220.46666999999994,249.94053999999994 220.46098999999992,251.30475999999996 220.47115999999994,252.03602999999995 C 220.48154999999994,252.78346999999997 220.47767999999994,253.53634999999994 220.63332999999994,254.61669999999995 C 220.78046999999995,255.63788999999994 220.98523999999995,256.28399999999993 221.17116999999993,256.93603999999993 C 221.56174999999993,258.3057299999999 221.76700999999994,259.02581999999995 221.94582999999994,259.7416999999999 C 222.11406999999994,260.4152199999999 222.34549999999993,261.5188599999999 222.57650999999996,262.46984999999995 L 223.17199999999997,263.08338 L 223.76133999999996,263.48337 L 224.46667999999997,264.28335999999996" fill="none" id="svg_3" stroke="#000" stroke-width="2"/>
</svg>
