<?xml version="1.0" ?>
<svg baseProfile="full" height="480" version="1.1" width="640" xmlns="http://www.w3.org/2000/svg" xmlns:ev="http://www.w3.org/2001/xml-events" xmlns:xlink="http://www.w3.org/1999/xlink">
	<defs/>
	<path d="M 377.0,309.0 C 378.81467,309.436 379.51584,310.11801 380.04816,310.64282 C 380.63412999999997,311.22051999999996 381.66184,311.34731999999997 382.40451,311.7045 C 383.20499,312.08945 384.01321,312.44589 384.83334,313.0 C 385.5101,313.45724 386.1856,314.22052 386.67199,314.63599 C 387.51479,315.3559 388.27071,315.83789 388.82131,316.21067 C 389.40133,316.60334 390.30888999999996,317.18667999999997 391.17867,317.79999 C 391.73403,318.19158999999996 392.67836,318.98978 393.20366,319.60449 C 393.73470000000003,320.22589 394.10683,320.72366 394.98564,321.42132 C 395.69533,321.98474 396.11854,322.23174 396.97066,322.77465 C 397.83052000000004,323.3225 398.66872,323.83007000000003 399.42931,324.31466 C 400.12989999999996,324.76101 400.77929,325.18835 401.39733,325.59866 C 402.30144,326.19891 403.23199,326.82132 403.90798,327.272 C 404.27151000000003,327.51434 405.49987,328.33355 405.96432,328.64282 C 406.9667,329.3103 407.49697,329.66188999999997 408.04165,330.02083999999996 C 408.59564,330.38591999999994 409.15164,330.75911999999994 410.83334,331.83333999999996 C 411.37716,332.18071999999995 411.91037,332.5227 412.97467,333.15331999999995 C 413.49728,333.46297999999996 414.02005,333.76333999999997 414.55267,334.03833 C 416.15133,334.86370999999997 416.71887,335.08358999999996 417.28134,335.31467 C 418.39987,335.77419999999995 418.95999,335.97492 420.03299,336.39551 C 420.54611,336.59665 421.9389,337.19351 422.34533999999996,337.4 C 423.10891999999996,337.78790999999995 423.80197,338.20344 424.48132999999996,338.60001 C 425.51813,339.20527 426.25052999999997,339.59571 426.97916,340.0 C 427.69250999999997,340.39581 428.68377999999996,340.9772 429.49017999999995,341.60001 C 429.99014999999997,341.98618 430.66934999999995,342.61679 431.42166999999995,343.20017 C 432.2327399999999,343.82911 432.84806,344.23404 433.48666999999995,344.68534 C 434.52359999999993,345.41816 434.88449999999995,345.68333 435.62533999999994,346.22535 C 436.3751899999999,346.77396 437.10964999999993,347.32496 438.17849999999993,348.07835 C 438.83895999999993,348.5439 439.46951999999993,348.97444 440.0954899999999,349.33836 C 440.9868799999999,349.85661000000005 441.9031099999999,350.25077000000005 442.5208399999999,350.50001000000003 C 443.15575999999993,350.75617000000005 444.16973999999993,351.15983000000006 444.88265999999993,351.48402000000004 C 445.61788999999993,351.81834000000003 446.3396899999999,352.17256000000003 447.6666599999999,352.83335000000005 C 448.23245999999995,353.11512000000005 448.9999699999999,353.50004000000007 449.76800999999995,353.88401000000005 C 450.6434699999999,354.32169000000005 451.32626999999997,354.66486000000003 452.1041599999999,355.04166000000004 C 452.9787599999999,355.46531000000004 453.4565799999999,355.69129000000004 454.49999999999994,356.16666000000004 C 455.64968999999996,356.69043000000005 456.2586099999999,356.95578000000006 456.87600999999995,357.23600000000005 C 457.50060999999994,357.51948000000004 458.13287999999994,357.79261 459.3479899999999,358.40134000000006 C 460.50875999999994,358.98285000000004 461.0392099999999,359.2945900000001 461.54799999999994,359.60001000000005 C 462.53027,360.18967000000004 462.99587999999994,360.50663000000003 463.95799999999997,361.10001000000005 C 464.44991,361.40339000000006 465.49244999999996,362.01471000000004 466.65065999999996,362.5973200000001 C 467.24971999999997,362.8986500000001 467.86385999999993,363.1819500000001 468.47914999999995,363.4583400000001 C 469.08656999999994,363.73120000000006 470.25985,364.23629000000005 471.33333999999996,364.66665000000006 C 472.25627999999995,365.03665000000007 473.05922999999996,365.33056000000005 473.75731999999994,365.61465000000004 C 474.39769999999993,365.87527000000006 475.30422999999996,366.31381000000005 476.20000999999996,366.82534000000004 C 476.80287999999996,367.16961000000003 477.38498,367.54693000000003 478.59865999999994,368.11599000000007 C 479.1824899999999,368.38973000000004 480.07537999999994,368.6970100000001 481.07881999999995,369.32131000000004 C 481.56917999999996,369.62639 482.21998999999994,370.24718 483.33333999999996,370.83333000000005 C 483.94917999999996,371.15755000000007 484.66213999999997,371.37236000000007 485.38534,371.62532000000004 C 486.11816,371.88167000000004 487.18721999999997,372.30498000000006 487.84731999999997,372.65715000000006 C 488.83880999999997,373.1861400000001 489.47592,373.61555000000004 490.52133,374.19981000000007 C 491.24715999999995,374.6054500000001 491.62131,374.79750000000007 492.37466,375.1639800000001 C 493.11212,375.5227100000001 494.51181,376.1185700000001 495.15332,376.3639900000001 C 495.75192,376.5929900000001 496.83218,377.0027500000001 497.54285,377.2954800000001 C 498.39414,377.6461300000001 499.40692,377.8688400000001 500.164,378.0253100000001 C 501.12883999999997,378.22471000000013 502.77328,378.1339800000001 502.62933,378.9999800000001 C 502.49334,379.81810000000013 500.89984,378.9999800000001 500.11465,378.9999800000001 C 499.17465,378.9999800000001 498.16665,378.9999800000001 497.45833999999996,378.9999800000001 C 496.49999999999994,378.9999800000001 495.63750999999996,378.9999800000001 494.97914999999995,378.9999800000001 C 493.96666999999997,378.9999800000001 492.768,378.9999800000001 491.99998999999997,378.9999800000001 C 491.23197999999996,378.9999800000001 490.35697999999996,378.9999800000001 489.32798999999994,378.9999800000001 C 488.57865999999996,378.9999800000001 487.79731999999996,378.9999800000001 486.6001499999999,378.9999800000001 C 485.8044999999999,378.9999800000001 485.02082999999993,378.9999800000001 484.25715999999994,378.9999800000001 C 483.1666399999999,378.9999800000001 482.15714999999994,378.9999800000001 481.52082999999993,378.9999800000001 C 480.6012999999999,378.9999800000001 479.70014999999995,378.9999800000001 478.8106599999999,378.9999800000001 C 477.9571399999999,378.9999800000001 476.9213199999999,378.9999800000001 475.9999899999999,378.9999800000001 C 475.3159999999999,378.9999800000001 474.3146599999999,378.9999800000001 473.4791499999999,378.9999800000001 C 472.5986599999999,378.9999800000001 471.70033999999987,378.9999800000001 470.82130999999987,378.9999800000001 C 470.01432999999986,378.9999800000001 468.8098399999999,378.9999800000001 468.11732999999987,378.9999800000001 C 467.17463999999984,378.9999800000001 466.1666499999999,378.9999800000001 465.37464999999986,378.9999800000001 C 464.5146599999999,378.9999800000001 463.59547999999984,378.9999800000001 462.5999899999999,378.9999800000001 C 461.79996999999986,378.9999800000001 460.80014999999986,378.9999800000001 460.0208299999999,378.9999800000001 C 459.0214999999999,378.9999800000001 458.3044899999999,378.9999800000001 457.39997999999986,378.9999800000001 L 456.49998999999985,378.9999800000001 L 455.59999999999985,378.9999800000001 L 454.61064999999985,379.0106600000001" fill="none" id="svg_3" stroke="#000" stroke-width="2"/>
</svg>
