<?xml version="1.0" ?>
<svg baseProfile="full" height="480" version="1.1" width="640" xmlns="http://www.w3.org/2000/svg" xmlns:ev="http://www.w3.org/2001/xml-events" xmlns:xlink="http://www.w3.org/1999/xlink">
	<defs/>
	<path d="M 327.0,299.0 C 346.0,299.0 347.21234,299.0 348.25867,299.0 C 349.15301999999997,299.0 349.90934,299.0 350.54166,299.0 C 351.49033,299.0 352.52973,299.07309 353.5,298.83334 C 354.09314,298.68676000000005 354.90152,298.38043000000005 355.57468,298.19867 C 356.73862,297.88437 357.60685,297.70157 358.5,297.47916 C 358.9501,297.36706999999996 359.84988,297.16199 361.05716,296.67884 C 361.80234,296.38061999999996 362.46344,295.98449999999997 363.14816,295.70984999999996 C 364.49429000000003,295.16983999999997 365.25155,295.09995999999995 366.0,295.02084999999994 C 366.74637,294.94195999999994 367.84009,294.8661599999999 368.84283,294.64282999999995 C 369.48416,294.50001 370.09433,294.29193999999995 371.29998,293.9001799999999 C 372.19915000000003,293.60799999999995 372.78973,293.3854399999999 373.99999,293.1666599999999 C 374.596,293.0589299999999 375.50283,293.0262199999999 376.39998,292.9159899999999 C 377.30379000000005,292.8049699999999 378.20763000000005,292.56137999999993 378.83598,292.4253299999999 C 380.16084,292.1384999999999 380.88365,292.07974999999993 381.62532,292.0253399999999 C 382.37433999999996,291.9703799999999 383.12581,291.97525999999993 384.51466,291.7146699999999 C 385.16981,291.5917499999999 386.0959,291.2968499999999 386.99998,291.0000099999999 C 387.89592,290.70584999999994 388.47074,290.48880999999994 389.31465,290.28534999999994 C 390.30757,290.04596999999995 391.23253,290.0163099999999 392.16664,289.83334999999994 C 392.96034,289.67788999999993 393.78418999999997,289.41443999999996 394.83333,289.0000099999999 C 395.54976,288.7169899999999 396.18703,288.39532999999994 397.20033,287.8999999999999 C 397.8199,287.5971399999999 398.50514,287.2730499999999 399.64265,286.8999999999999 C 400.30036,286.6842999999999 401.00468,286.5157799999999 402.03199,286.20001999999994 C 402.96131,285.91437999999994 403.69828,285.5595799999999 404.51197,285.28534999999994 C 405.48121000000003,284.95868999999993 406.48399,284.99857999999995 407.17463000000004,285.0000099999999 C 408.25181000000003,285.0022699999999 408.97477000000003,285.0646499999999 409.77064,285.28534999999994 C 410.5475,285.50076999999993 411.4022,285.80267999999995 412.30015000000003,286.1000199999999 C 413.21018000000004,286.4013499999999 413.83225000000004,286.6125899999999 415.16664000000003,287.0000099999999 C 415.88341,287.2081099999999 416.63856000000004,287.4019899999999 417.41066,287.6359999999999 C 418.20406,287.8764499999999 419.40199,288.3166599999999 419.79997000000003,288.4853299999999 C 420.60420000000005,288.82620999999995 421.40162000000004,289.2073099999999 422.19999,289.6013299999999 C 423.40247,290.1947699999999 423.79682,290.4051899999999 424.59998,290.7893499999999 C 425.39689000000004,291.1705099999999 426.19019000000003,291.5408499999999 427.4003,291.9788299999999 C 428.20288,292.2693299999999 428.6236,292.3783699999999 429.47196,292.6613599999999 C 430.37314000000003,292.96195999999986 431.33732000000003,293.3239599999999 432.36799,293.76801999999986 C 432.90745000000004,294.00043999999986 433.44981,294.25248999999985 434.54933,294.74933999999985 C 435.09425,294.9955899999998 436.66395,295.67374999999987 437.15681,295.85700999999983 C 438.07634,296.19892999999985 438.93669,296.46103999999985 439.34266,296.5786899999998 C 440.83051,297.0098699999998 441.51872000000003,297.19291999999984 442.17463000000004,297.4106899999998 C 442.82816,297.6276699999998 444.16850000000005,298.16245999999984 444.88798,298.48533999999984 C 445.65937,298.83149999999983 446.05818000000005,299.03062999999986 446.91880000000003,299.40452999999985 C 448.32645,300.01606999999984 448.84168000000005,300.20262999999983 449.36799,300.40000999999984 C 450.44865000000004,300.80530999999985 451.00120000000004,300.9967199999998 452.09464,301.40000999999984 C 452.63257000000004,301.59839999999986 453.67240000000004,301.98643999999985 454.62797,302.40000999999984 C 455.5229,302.78733999999986 455.94441,302.98652999999985 456.73380000000003,303.40000999999984 C 457.84336,303.98121999999984 458.52234000000004,304.39677999999986 459.19599000000005,304.82133999999985 C 459.90125000000006,305.26585999999986 460.65482000000003,305.7703799999999 461.49998000000005,306.33335999999986 C 462.45219000000003,306.9676699999999 462.95799000000005,307.30533999999983 463.47599,307.65067999999985 C 464.52396000000005,308.34934999999984 465.04197000000005,308.69468999999987 465.54798000000005,309.03202999999985 C 466.93546000000003,309.95701999999983 467.34397000000007,310.2293599999999 468.09199000000007,310.72800999999987 C 468.7679800000001,311.17868999999985 469.3933200000001,311.60132999999985 470.6013000000001,312.4000099999999 C 471.2093300000001,312.8020199999999 471.8306100000001,313.2088799999999 472.4853000000001,313.6000199999999 C 473.5130700000001,314.2140299999999 474.2526300000001,314.6000199999999 474.9999800000001,315.0000099999999 C 475.7473200000001,315.3999999999999 476.8387600000001,315.9909199999999 477.51332000000014,316.3999999999999 C 478.1586100000001,316.79135999999994 478.7642700000001,317.1850999999999 479.3133100000001,317.60000999999994 C 480.3358300000001,318.37274999999994 480.98259000000013,318.99645999999996 481.3954900000001,319.3999999999999 C 482.2066500000001,320.1927599999999 482.7528500000001,320.82159999999993 483.34282000000013,321.2856799999999 C 484.1949300000001,321.9559699999999 485.11574000000013,323.0678799999999 485.91466000000014,322.6293399999999 C 486.64665000000014,322.2275199999999 485.9752100000001,320.8324999999999 486.0106700000001,320.1533299999999 C 486.0546500000001,319.31116999999995 486.2863700000001,318.31528999999995 486.49999000000014,317.47916999999995 C 486.64901000000015,316.89594999999997 486.88857000000013,315.70102999999995 486.97466000000014,314.79999999999995 C 487.03194000000013,314.20059999999995 487.15227000000016,312.99692999999996 487.35265000000015,312.09549999999996 C 487.4901600000002,311.47691 487.75097000000017,310.51956999999993 487.87850000000014,309.47882999999996 C 487.96728000000013,308.7544 487.98607000000015,308.02097 487.99550000000016,307.30985 C 488.01232000000016,306.0431 488.00194000000016,305.27200999999997 487.99999000000014,304.40268 C 487.99773000000016,303.39999 488.0119500000001,302.58176 487.71599000000015,301.60132 C 487.4794200000002,300.81759999999997 487.0840000000002,299.88534999999996 486.83333000000016,299.0 L 486.35332000000017,298.436 L 485.5146700000002,298.08531999999997 L 484.7893300000002,298.01066999999995" fill="none" id="svg_3" stroke="#000" stroke-width="2"/>
</svg>
