<?xml version="1.0" ?>
<svg baseProfile="full" height="480" version="1.1" width="640" xmlns="http://www.w3.org/2000/svg" xmlns:ev="http://www.w3.org/2001/xml-events" xmlns:xlink="http://www.w3.org/1999/xlink">
	<defs/>
	<path d="M 219.0,157.0 C 219.66417,151.50067 220.05206,150.51294000000001 220.28667,150.04266 C 220.74005,149.13377 220.97039999999998,148.71003000000002 221.66666999999998,147.66667 C 222.16543,146.91926 223.02752999999998,146.24040000000002 223.7,145.94732000000002 C 224.56626,145.56979 225.31083999999998,144.88017000000002 225.84667,144.60000000000002 C 226.67114999999998,144.16891 227.67848999999998,143.78472000000002 228.50000999999997,143.52082000000001 C 229.04390999999998,143.34609 230.31268999999998,143.05991 230.97917999999999,143.02082000000001 C 231.99847,142.96104000000003 232.81619999999998,143.03794000000002 233.68534,142.91466000000003 C 234.69218999999998,142.77185000000003 235.47423,142.48200000000003 236.23067,142.28398 C 237.18448,142.0343 238.16667,141.99998000000002 238.84667000000002,141.99998000000002 C 239.68667000000002,141.99998000000002 240.68609,141.98053000000002 241.52083000000002,142.02081 C 242.40267000000003,142.06337000000002 243.30162,142.21495000000002 244.21066000000002,142.42532 C 244.83702000000002,142.57026 246.16533,142.84584 246.88266000000002,142.91598 C 247.61353000000003,142.98744 248.34981000000002,142.94429 249.66667,143.16665 C 250.49579,143.30665 251.18280000000001,143.60204000000002 252.0,143.99998 C 252.80415,144.39155 253.60001,144.79998 254.39999,145.19997999999998 C 255.19999,145.59999 255.98745,146.02686999999997 256.79998,146.38931 C 257.58871,146.74113 258.41686,146.84347 259.2,147.06132 C 260.23098,147.34811 260.80433999999997,147.84507 261.51466999999997,148.51731 C 262.26354,149.22605000000001 262.73684,149.71964 263.65716,150.30448 C 264.20169,150.65052 265.21295,151.30677 265.79997999999995,151.83597 C 266.41389999999996,152.38942 266.99998999999997,152.99999 267.59547999999995,153.59548 C 268.16398999999996,154.16398 268.95002999999997,155.01008000000002 269.49998999999997,155.47915 C 270.28358999999995,156.14752000000001 271.04668,156.51205000000002 271.68667,156.88531 C 272.69207,157.47167000000002 273.23332999999997,157.8245 273.77465,158.21064 C 274.84972,158.97753 275.32522,159.38569 275.95834,159.97915 C 276.85046,160.81539 277.33822000000004,161.41224 278.16665,161.99998 C 278.79974,162.44912 279.56289,162.84172999999998 280.11599,163.48397 C 280.67602,164.13422 281.31734,164.98383 281.99999,165.49998 C 282.51305,165.8879 283.24138000000005,166.65357 283.69549,167.34732 C 284.19842,168.11569 284.87811,168.73064 285.47915,169.49998 C 285.98782,170.15108999999998 286.16323,171.16800999999998 286.42532,171.82531 C 286.82809,172.83541 286.99466,173.62527 287.0,174.48397 C 287.00537,175.3473 286.90814,176.30247 287.42532,176.97465 C 287.89962,177.59114 288.0,178.39997 288.0,179.29998 C 288.0,180.19997 288.0,181.09998000000002 288.0,181.99998 C 288.0,182.79998 288.01193,183.72720999999999 288.52084,184.52080999999998 C 289.05429000000004,185.35263999999998 289.50265,186.01943999999997 289.79998,186.60132 C 290.30907,187.59766 290.58639,188.23585999999997 291.32165,189.20031999999998 C 291.81466,189.84702 292.25244,190.26697 292.68667,190.77065 C 293.43115,191.63415999999998 293.95457999999996,192.30047 294.47915,192.99999 C 294.99655,193.68993 295.67416000000003,194.66187 296.03201,195.23198 C 296.51013,195.99371 296.95202,196.77868999999998 297.543,197.64266 C 298.00211,198.31385 298.53079,199.00901000000002 299.10901,199.69466 C 299.39734,200.03656 300.29123,200.96692 300.89551,201.49016 C 301.47113,201.98859000000002 302.34784,202.64983 303.07849,203.42148 C 303.56592,203.93625 303.98947,204.51366000000002 304.59866,205.40132 C 305.21045,206.29275 305.59359,206.89992 306.0,207.47916 C 306.59079,208.3212 307.18738,209.09044 307.82132,209.78533000000002 C 308.26312,210.26960000000003 308.77033,210.76967000000002 309.64282000000003,211.64283 C 310.30957,212.31008 310.66134000000005,212.66132 311.38534000000004,213.38532 C 312.11733000000004,214.11733 312.83334,214.83332000000001 313.51467,215.51465000000002 C 314.16399,216.16399 314.47915,216.47916 315.09548,217.09549 C 315.99999,217.99999000000003 316.6,218.59998000000002 317.2,219.19998 C 317.79998,219.79997 318.39997999999997,220.39998 318.99998999999997,220.99998000000002 C 319.59999999999997,221.59999000000002 320.2,222.19999 320.79997999999995,222.79998000000003 C 321.39998999999995,223.39999000000003 322.30049999999994,224.30047000000005 322.91351,224.91347000000005 C 323.23199,225.23197000000005 323.90799,225.90798000000004 324.65599999999995,226.65598000000006 C 325.49998999999997,227.49997000000005 325.96428999999995,227.96351000000007 326.45064999999994,228.45197000000005 C 326.95397999999994,228.95748000000003 327.46987999999993,229.47156000000004 328.48799999999994,230.52398000000005 C 328.98704999999995,231.03983000000005 329.47703999999993,231.53504000000004 330.33333999999996,232.49998000000005 C 331.07257,233.33299000000005 331.38005999999996,233.72515000000004 331.93749999999994,234.43748000000005 C 332.44301999999993,235.08348000000004 333.15993999999995,236.00584000000006 333.68398999999994,236.59999000000005 C 334.21853999999996,237.20604000000006 334.78408999999994,237.79163000000005 335.31600999999995,238.39998000000006 C 336.09261999999995,239.28816000000006 336.55202999999995,239.90106000000006 336.99999999999994,240.52081000000007 C 337.45748999999995,241.15370000000007 338.16634999999997,242.16687000000007 338.68398999999994,242.88531000000006 C 339.2250399999999,243.63621000000006 339.51104999999995,244.01321000000007 340.04732999999993,244.80448000000007 C 340.85002999999995,245.98884000000007 341.08541999999994,246.39649000000006 341.5518199999999,247.20898000000008 C 342.0275899999999,248.0378100000001 342.2543999999999,248.4759300000001 342.7693499999999,249.37065000000007 C 343.32589999999993,250.33765000000008 343.9679299999999,251.37022000000007 344.3098499999999,251.90982000000008 C 344.65991999999994,252.4622300000001 345.02066999999994,253.02093000000008 345.3853499999999,253.58531000000008 C 346.1169799999999,254.71756000000008 346.8348699999999,255.83235000000008 347.17867999999993,256.37898000000007 C 347.51751999999993,256.91771000000006 348.1768199999999,257.9947000000001 348.49999999999994,258.5416400000001 C 348.8275499999999,259.0959900000001 349.1561899999999,259.6650200000001 349.48400999999996,260.2546500000001 C 350.17407,261.4958900000001 350.88427999999993,262.8505100000001 351.25265999999993,263.5534800000001 C 351.6256199999999,264.2651500000001 351.99826999999993,264.9800500000001 352.3746699999999,265.6879700000001 C 352.7456399999999,266.3857200000001 353.10189999999994,267.0706900000001 353.83334999999994,268.3333300000001 C 354.1719999999999,268.9179600000001 354.51007999999996,269.4629400000001 354.84283999999997,269.9758200000001 C 355.47049999999996,270.9431700000001 355.79209,271.3914400000001 356.39869,272.2799900000001 C 357.00275,273.1647900000001 357.60185,274.0849800000001 357.90452,274.5571500000001 C 358.52189,275.5201600000001 358.8318,276.0134500000001 359.15718,276.5044800000001 C 360.15385,278.00857000000013 360.51863,278.5022500000001 360.88536,279.00134000000014 C 361.63016999999996,280.01498000000015 362.02101,280.52072000000015 362.41069,281.03601000000015 C 362.80469999999997,281.55704000000014 363.21479999999997,282.07553000000013 364.39952,283.72101000000015 C 364.80057999999997,284.27808000000016 365.18925,284.84180000000015 365.56801,285.40399000000014 C 365.94023000000004,285.95651000000015 366.63484,287.02914000000015 366.94402,287.5453200000001 C 367.51171000000005,288.49310000000014 367.95598,289.3357600000001 368.29201,290.0706800000001 C 368.70119,290.9656100000001 369.20003,292.0293300000001 369.60002000000003,292.5786800000001 L 370.29552,293.2999900000001 L 370.83336,294.0000000000001 L 370.91335000000004,294.7999900000001" fill="none" id="svg_3" stroke="#000" stroke-width="2"/>
</svg>
