<?xml version="1.0" ?>
<svg baseProfile="full" height="480" version="1.1" width="640" xmlns="http://www.w3.org/2000/svg" xmlns:ev="http://www.w3.org/2001/xml-events" xmlns:xlink="http://www.w3.org/1999/xlink">
	<defs/>
	<path d="M 116.0,74.0 C 117.0,73.0 117.44598,72.45232 117.91467,71.71467 C 118.35388,71.02341 118.43705,70.07108 119.18534,70.01067 C 120.11041,69.93599 120.80803,69.62123000000001 121.43599999999999,69.01467000000001 C 122.01598,68.45447000000001 122.54078999999999,67.77409000000002 123.1,67.02167000000001 C 123.55453999999999,66.41009000000001 124.60853999999999,66.17993000000001 125.29549999999999,65.64283000000002 C 126.03938999999998,65.06123000000002 126.26297999999998,64.21519000000002 126.99999999999999,63.83333000000002 C 127.75394999999999,63.442700000000016 128.49982,63.01042000000002 129.39998999999997,63.00000000000002 C 130.29993999999996,62.98959000000002 131.27962999999997,63.20913000000002 132.09982999999997,62.77850000000002 C 132.74325999999996,62.44068000000002 132.93239999999997,61.23106000000002 133.70448999999996,61.00450000000002 C 134.59831999999997,60.74223000000002 135.53413999999995,61.23197000000002 136.29014999999995,60.94283000000002 C 137.18742999999995,60.59966000000002 137.80151999999995,60.01863000000002 138.69998999999996,60.00000000000002 C 139.60051999999996,59.98133000000002 140.31790999999996,59.410850000000025 141.09999999999997,59.12150000000002 C 141.95172999999997,58.80638000000002 142.79999999999995,59.00000000000002 143.69998999999996,59.00000000000002 C 144.59999999999997,59.00000000000002 145.49998999999997,59.00000000000002 146.39998999999995,59.00000000000002 C 147.29999999999995,59.00000000000002 148.25728999999995,59.16370000000002 149.09999999999994,58.77867000000002 C 149.76929999999993,58.47287000000002 150.59994999999995,58.00534000000002 151.49998999999994,58.00000000000002 C 152.39996999999994,57.99467000000002 153.29998999999995,57.999920000000024 154.19998999999993,58.00000000000002 C 155.09982999999994,58.00008000000002 155.67073999999994,58.54594000000002 156.35715999999994,58.94283000000002 C 157.08847999999995,59.36569000000002 158.10683999999995,58.88926000000002 158.99999999999994,59.00000000000002 C 159.89937999999995,59.11152000000002 160.44384999999994,59.87422000000002 161.22132999999994,60.02533000000002 C 162.20092999999994,60.215730000000015 162.95414999999994,60.573090000000015 163.83332999999993,60.83333000000002 C 164.57351999999995,61.052430000000015 165.52084999999994,60.97421000000002 166.30450999999994,61.352660000000014 C 167.19337999999993,61.78193000000002 168.00088999999994,61.95370000000001 168.97866999999994,62.000160000000015 C 169.75388999999993,62.03700000000001 170.64170999999993,62.37994000000001 171.34733999999995,62.64733000000002 C 172.23046999999994,62.98198000000002 173.04681999999994,63.306860000000015 173.80000999999996,63.71599000000002 C 174.59752999999995,64.14921000000002 175.15431999999996,64.91625000000002 176.00000999999995,64.99999000000003 C 176.79611999999995,65.07882000000002 177.79689999999994,64.63682000000003 178.56400999999994,65.03599000000003 C 179.32338999999993,65.43114000000003 179.77826999999994,66.12369000000002 180.60001999999994,66.57466000000002 C 181.37998999999994,67.00270000000002 182.34845999999993,66.92913000000003 182.97467999999995,67.42532000000003 C 183.63972999999996,67.95228000000003 184.05948999999995,68.63586000000002 184.80133999999995,69.08399000000003 C 185.50664999999995,69.51004000000003 186.20270999999997,70.19730000000003 186.80000999999996,70.79999000000002 C 187.39201999999995,71.39734000000003 187.69822999999997,72.38082000000003 188.35716999999997,72.94732000000002 C 189.04481999999996,73.53852000000002 189.44659999999996,73.99135000000003 190.10983999999996,74.64282000000001 C 190.68895999999995,75.21165000000002 191.83902999999995,75.28335000000001 192.00017999999997,76.09999000000002 C 192.17736999999997,76.99795000000002 192.56542999999996,77.64796000000003 193.30001999999996,78.29549000000002 C 193.96221999999997,78.87922000000002 194.93128999999996,78.60530000000001 195.71467999999996,79.08532000000001 C 196.43786999999995,79.52846000000001 196.87374999999997,80.38033000000001 197.51734999999996,80.79999000000001 C 198.38145999999998,81.36344000000001 199.23142999999996,81.68252000000001 199.91601999999997,82.28398000000001 C 200.51167999999998,82.80731000000002 201.45889999999997,82.81839000000001 201.97468999999998,83.43598000000001 C 202.50257,84.06806000000002 203.19869999999997,84.53201000000001 203.83334999999997,85.16665000000002 C 204.46800999999996,85.80130000000001 204.74696999999998,86.53716000000001 204.96402999999998,87.39999000000002 C 205.18376999999998,88.27349000000002 204.91789999999997,89.20375000000001 205.00018999999998,90.09999000000002 C 205.08386999999996,91.01143000000002 205.66307999999998,91.55232000000002 206.29551999999998,92.29999000000002 C 206.9348,93.05576000000002 206.99694,93.80000000000003 207.00001999999998,94.75715000000002 C 207.00288999999998,95.64816000000002 207.25392999999997,96.30206000000003 207.71602,97.08265000000003 C 208.2052,97.90900000000003 208.09563,98.79400000000003 208.50001999999998,99.49999000000003 C 208.95449999999997,100.29343000000003 208.80413,101.45398000000003 209.35717999999997,101.94732000000002 C 210.03390999999996,102.55099000000001 210.91210999999998,102.98630000000001 210.99551999999997,103.69998000000002 C 211.09997999999996,104.59391000000002 210.63331999999997,105.57969000000003 211.02084999999997,106.47915000000002 C 211.32863999999998,107.19351000000002 211.99775999999997,107.70448000000002 212.00001999999998,108.59998000000002 C 212.00227999999998,109.49998000000002 211.75714999999997,110.43482000000002 212.00451999999999,111.29548000000001 C 212.22523999999999,112.06337 212.63154999999998,112.60246000000001 213.02085,113.47914000000002 C 213.33653999999999,114.19004000000001 213.99776,114.70447000000001 214.00002,115.59997000000001 C 214.00228,116.49997000000002 214.00011,117.39794000000002 214.50002,117.99997000000002 C 215.01462,118.61971000000001 215.43453,119.39441000000002 215.91602,120.19864000000001 C 216.36123,120.94226 216.82955,121.45199000000001 217.01069,122.39997000000001 C 217.16935,123.23035000000002 217.61363,124.12108 218.08402,124.71464000000002 C 218.66935,125.45322000000002 218.74282000000002,126.22557000000002 219.22135,126.87864000000002 C 219.73528,127.58001000000002 220.3861,128.13832000000002 220.71602000000001,128.79997000000003 C 221.13657,129.64332000000002 220.65695000000002,130.67854000000003 221.02084000000002,131.47914000000003 C 221.37230000000002,132.25238000000002 221.99551000000002,132.70447000000004 222.05717,133.64281000000003 L 222.80134,133.99864000000002 L 223.64285,134.05713000000003" fill="none" id="svg_3" stroke="#000" stroke-width="2"/>
</svg>
