<?xml version="1.0" ?>
<svg baseProfile="full" height="480" version="1.1" width="640" xmlns="http://www.w3.org/2000/svg" xmlns:ev="http://www.w3.org/2001/xml-events" xmlns:xlink="http://www.w3.org/1999/xlink">
	<defs/>
	<path d="M 192.0,213.0 C 194.82851,216.54283 194.98399,217.18895 195.0,218.19983 C 195.01233,218.97907999999998 194.96193,219.97939 195.0,220.79865999999998 C 195.04271,221.71764 196.16507000000001,221.683 196.71466,222.17066999999997 C 197.3759,222.75742999999997 197.49361000000002,223.63721999999999 198.29466000000002,224.04816999999997 C 199.01961000000003,224.42006999999998 199.00000000000003,225.41065999999998 199.00000000000003,226.32132999999996 C 199.00000000000003,227.17465999999996 199.18979000000002,228.52808999999996 198.43066000000002,228.62665999999996 C 197.74229000000003,228.71604999999997 197.11952000000002,227.69287999999995 196.75717000000003,226.98566999999997 C 196.35670000000002,226.20403999999996 195.99640000000002,225.00118999999998 195.80133000000004,224.40132999999997 C 195.51555000000005,223.52252 195.25851000000003,222.69037999999998 195.08267000000004,221.68265999999997 C 194.96043000000003,220.98216999999997 194.87066000000004,220.21662999999998 194.43200000000004,219.03066999999996 C 194.17268000000004,218.32958999999997 193.82432000000006,217.62429999999995 193.56799000000004,216.88265999999996 C 193.20564000000005,215.83428999999995 192.85350000000003,215.13688999999997 193.12333000000004,214.07599999999996 C 193.35343000000003,213.17134999999996 194.37563000000003,212.80438999999996 195.24282000000005,213.00899999999996 C 196.17800000000005,213.22963999999996 196.43876000000006,214.09343999999996 197.16666000000006,214.83332999999996 C 197.76458000000005,215.44108999999997 198.43607000000006,215.66978999999995 199.11466000000007,216.48533999999995 C 199.66910000000007,217.15167999999994 199.96114000000009,218.02145999999996 200.41065000000006,218.78933999999995 C 200.84856000000005,219.53742999999994 201.51429000000007,220.07375999999996 202.13866000000007,220.58933999999996 C 202.92891000000006,221.24189999999996 202.85892000000007,221.16353999999995 202.28565000000006,220.69098999999997 C 201.62281000000007,220.14459999999997 200.79040000000006,219.46535999999998 200.19999000000007,218.74931999999998 C 199.79331000000008,218.25608999999997 199.02811000000008,217.29916999999998 198.40449000000007,216.81431999999998 C 197.85888000000006,216.39012999999997 196.83859000000007,215.84472999999997 196.41065000000006,215.36398999999997 C 195.71853000000007,214.58644999999999 195.19845000000007,213.72592999999998 195.01066000000006,214.20665999999997 C 194.67976000000004,215.05368999999996 195.13099000000005,215.91328999999996 195.71433000000005,216.66165999999998 C 196.19024000000005,217.27220999999997 197.00725000000006,218.16112999999999 197.39866000000004,218.68265999999997 C 197.99027000000004,219.47095999999996 198.33560000000003,219.99552999999997 198.97833000000003,220.85715999999996 C 199.54696000000004,221.61945999999998 199.73677000000004,222.53455999999997 200.05267000000003,223.29015999999996 C 200.39711000000003,224.11400999999995 200.99661000000003,224.70449999999997 201.00000000000003,225.52082999999996 C 201.00400000000002,226.48399999999995 200.98694000000003,227.43865999999997 201.56799000000004,228.11466999999996 C 202.05720000000005,228.68383999999998 202.86277000000004,229.31376999999995 203.16667000000004,230.16666999999995 C 203.40417000000005,230.83324999999996 203.90652000000003,231.82184999999996 203.98933000000005,232.58933999999996 C 204.08926000000005,233.51551999999995 203.92942000000005,234.49137999999996 204.03599000000006,235.17466999999996 C 204.18586000000005,236.13555999999997 204.82090000000005,236.78008999999997 205.41065000000006,237.42133999999996 C 205.90211000000005,237.95569999999995 206.48398000000006,238.76799999999997 206.99999000000005,239.49999999999997 C 207.51600000000005,240.23198999999997 208.15728000000004,241.00152999999997 208.58933000000005,241.65066999999996 C 209.15908000000005,242.50668999999996 209.38471000000004,243.29020999999997 209.81432000000004,244.10899999999995 C 210.29342000000003,245.02208999999996 210.76700000000002,245.60211999999996 211.25066000000004,246.21066999999996 C 211.74829000000003,246.83680999999996 212.28917000000004,247.45289999999997 212.85732000000004,248.52116999999996 C 213.23365000000004,249.22877999999994 213.46830000000006,249.99363999999994 213.80532000000005,250.69017999999994 C 214.28883000000005,251.68945999999994 215.00521000000006,252.50435999999993 215.54166000000006,253.00000999999995 C 216.09969000000007,253.51558999999995 217.01340000000008,254.32098999999994 217.59865000000008,254.97067999999996 C 217.90257000000008,255.30807999999996 218.4904300000001,256.03351999999995 219.0428200000001,256.80899999999997 C 219.32038000000009,257.19865 220.0776600000001,258.40054999999995 220.55182000000008,259.19550999999996 C 221.01967000000008,259.97986999999995 221.22719000000006,260.38829 221.76932000000008,261.11466999999993 C 222.59273000000007,262.21790999999996 223.30693000000008,262.8504499999999 223.66132000000007,263.17466999999994 C 224.37954000000008,263.8317399999999 224.78209000000007,264.12132999999994 225.83332000000007,265.16666999999995 C 226.53687000000008,265.86628999999994 226.85516000000007,266.25516999999996 227.49999000000008,267.04166999999995 C 227.8293500000001,267.44339999999994 228.4822900000001,268.28797999999995 229.1666600000001,269.16666999999995 C 229.8822200000001,270.08539999999994 230.2525400000001,270.5527799999999 230.6253200000001,271.02533999999997 C 231.3743900000001,271.97488999999996 231.7483100000001,272.44656999999995 232.1159800000001,272.916 C 233.18168000000009,274.27663 233.5171200000001,274.71751 234.1853200000001,275.58534 C 234.5207100000001,276.02094999999997 234.8577400000001,276.46414999999996 235.5693200000001,277.36933999999997 C 236.32951000000008,278.33635 236.73932000000008,278.84614999999997 237.1733200000001,279.36933999999997 C 238.0849700000001,280.46833999999996 238.5784300000001,281.02531999999997 239.0933200000001,281.58534 C 239.61837000000008,282.15641999999997 240.15309000000008,282.73877999999996 241.3333100000001,283.83335999999997 C 241.9330600000001,284.3896 242.5669500000001,284.92091 243.2188100000001,285.44286 C 243.87761000000012,285.97035999999997 244.5591400000001,286.48375 245.2573200000001,286.98933999999997 C 245.9627900000001,287.50019999999995 246.6827400000001,288.00645999999995 248.16665000000012,289.00001999999995 C 248.91883000000013,289.50364999999994 249.68296000000012,290.00105999999994 250.45715000000013,290.49101999999993 C 251.23362000000012,290.98240999999996 252.01767000000012,291.46370999999994 252.81065000000012,291.9280299999999 C 253.60139000000012,292.3910399999999 254.3896800000001,292.8519799999999 255.99998000000014,293.66667999999993 C 256.79405000000014,294.0684099999999 257.59574000000015,294.43416999999994 258.39097000000015,294.7901799999999 C 259.17713000000015,295.1421399999999 259.9589300000002,295.4777999999999 260.7279800000002,295.8146899999999 C 261.4862200000002,296.14683999999994 262.2396400000002,296.4614499999999 263.6666400000002,297.16667999999993 C 264.3631700000002,297.51091999999994 265.0370600000002,297.8831399999999 265.7126600000002,298.2481899999999 C 266.3917400000002,298.6151299999999 267.0790500000002,298.98777999999993 267.7946600000002,299.3386699999999 C 268.5296800000002,299.6990799999999 269.2920000000002,300.0787499999999 270.99998000000016,300.6666699999999 C 271.91990000000015,300.9833199999999 272.90574000000015,301.2395499999999 273.9294800000002,301.49018999999987 C 274.98179000000016,301.74784999999986 276.06214000000017,301.9807299999999 277.15598000000017,302.2146799999999 C 278.2551300000002,302.44975999999986 279.3567600000002,302.6618499999999 281.4999700000002,303.1666799999999 C 282.5377200000002,303.41112999999984 283.54361000000017,303.6791299999999 284.5239600000002,303.9481999999999 C 285.4822400000002,304.21119999999985 286.4162300000002,304.4805499999999 287.33197000000024,304.7386999999999 C 288.22894000000025,304.9915399999999 289.10507000000024,305.2532599999999 290.83331000000027,305.6666799999999 C 291.67590000000024,305.8682499999999 292.5137600000003,306.0353899999999 293.3428000000003,306.1901799999999 C 294.1631100000003,306.3433499999999 294.97900000000027,306.4798199999999 295.7893000000003,306.6146799999999 C 296.5953600000003,306.7488399999999 297.4008700000003,306.87038999999993 298.9999600000003,307.16667999999993 C 299.80144000000035,307.31517999999994 300.6029000000003,307.4827199999999 301.4089600000003,307.6526999999999 C 302.2215800000003,307.8240599999999 303.04116000000033,308.00215999999995 303.8719700000003,308.17466999999994 C 304.7138300000003,308.34950999999995 305.5675600000003,308.53367999999995 307.3333000000003,308.8333599999999 C 308.2411400000003,308.98743999999994 309.1672500000003,309.1187599999999 310.1053000000003,309.2383599999999 C 311.0499400000003,309.3587799999999 311.9999500000003,309.4583599999999 312.9492900000003,309.5533599999999 L 313.8946000000003,309.6383499999999 L 314.8319500000003,309.7133599999999" fill="none" id="svg_3" stroke="#000" stroke-width="2"/>
</svg>
