<?xml version="1.0" ?>
<svg baseProfile="full" height="480" version="1.1" width="640" xmlns="http://www.w3.org/2000/svg" xmlns:ev="http://www.w3.org/2001/xml-events" xmlns:xlink="http://www.w3.org/1999/xlink">
	<defs/>
	<path d="M 251.0,104.0 C 253.57333,111.75467 254.21997,111.1918 255.15199,111.072 C 255.84416000000002,110.98303 257.0,111.0 256.9685,111.01350000000001 C 256.40267,111.25599000000001 255.45118,111.66425000000001 254.54032,112.05350000000001 C 254.04409,112.26556000000001 253.05025,112.69023000000001 252.58298000000002,112.88484000000001 C 251.29520000000002,113.42116000000001 251.11029000000002,114.23591000000002 250.83216000000002,114.81601 C 250.49938,115.51007 248.92858,116.20432000000001 249.53767000000002,117.37051000000001 C 249.91087000000002,118.08505000000001 251.02626,117.75120000000001 251.82133000000002,118.23201000000002 C 252.41191,118.58915000000002 253.30288000000002,119.19399000000001 254.14666000000003,119.76801000000002 C 254.81715000000003,120.22414000000002 254.20547000000002,120.83259000000002 254.04266,119.94668000000001 C 253.8621,118.96424000000002 255.1353,118.58184000000001 255.69067,117.88401000000002 C 255.97949,117.52110000000002 258.27353,116.77536000000002 257.37466,115.71067000000002 C 256.9711,115.23266000000002 255.89349,116.00001000000002 255.24116,116.00001000000002 C 254.52082000000001,116.00001000000002 253.40223,115.67105000000002 252.912,116.00534000000002 C 252.12823,116.53981000000002 252.23022,117.38264000000002 251.92267,118.29867000000002 C 251.58342000000002,119.30911000000002 252.1216,119.95413000000002 252.776,119.99467000000001 C 253.96040000000002,120.06805000000001 254.64607,120.25275000000002 255.466,120.00000000000001 C 255.85412,119.88036000000001 255.7039,118.85101000000002 256.04165,118.00000000000001 C 256.27957,117.40054000000002 256.98266,116.20039000000001 256.65701,116.00000000000001 C 255.81823,115.48387000000001 254.88850000000002,116.00000000000001 254.02083000000002,116.00000000000001 C 253.17317000000003,116.00000000000001 252.06891000000002,116.08474000000001 252.05333000000002,115.96800000000002 C 251.93303000000003,115.06636000000002 253.41867000000002,115.14933000000002 254.116,114.73466000000002 L 254.83733,114.31199000000002 L 255.49466,113.93733000000002 L 256.16666000000004,113.83333000000002" fill="none" id="svg_3" stroke="#000" stroke-width="2"/>
</svg>
