<?xml version="1.0" ?>
<svg baseProfile="full" height="480" version="1.1" width="640" xmlns="http://www.w3.org/2000/svg" xmlns:ev="http://www.w3.org/2001/xml-events" xmlns:xlink="http://www.w3.org/1999/xlink">
	<defs/>
	<path d="M 333.5,294.0 C 334.11066,295.60001 334.83893,296.27313 335.29999,296.88535 C 335.84866999999997,297.61393000000004 336.11338,298.40595 337.0,298.97916000000004 C 337.74142,299.4585 338.80017,299.45472 339.37851,300.22150000000005 C 339.91245,300.92945000000003 339.77344,301.76526000000007 340.5,302.16666000000004 C 341.27271,302.59354 341.77036,303.34265000000005 342.38535,303.79999000000004 C 343.28022000000004,304.46546000000006 344.02079000000003,304.79300000000006 344.74283,305.29550000000006 C 345.50516000000005,305.8260200000001 346.35449,306.0093100000001 347.10001000000005,306.61066000000005 C 347.75537,307.1392900000001 348.2222300000001,307.75626000000005 349.15268000000003,308.29550000000006 C 349.82462000000004,308.6849000000001 350.75186,308.85760000000005 351.70001,309.0013400000001 C 352.61621,309.1402300000001 353.10687,309.6550000000001 353.98532,310.2000100000001 C 354.68918,310.6366900000001 355.5,311.00000000000006 356.29999,311.39999000000006 C 357.10001,311.79998000000006 357.91290999999995,312.1738900000001 358.664,312.6000000000001 C 359.49539,313.0716500000001 360.08513999999997,313.6623200000001 360.98532,314.1986600000001 C 361.68301,314.61437000000006 362.49319,314.88470000000007 363.28934,314.96398000000005 C 364.32883,315.06750000000005 364.89142,315.30361000000005 365.66666,315.83333000000005 C 366.27661,316.25011000000006 367.32534999999996,315.99999 368.33335,315.99999 C 369.08933,315.99999 370.00001,315.99999 370.9,315.99999 C 371.80451,315.99999 372.66956,315.94735000000003 373.52085,316.02083000000005 C 374.50715,316.10597000000007 375.2732,316.46938000000006 376.01469,316.71599000000003 C 376.98242999999997,317.03783000000004 377.82167,316.99999 378.74667999999997,316.99999 C 379.66666,316.99999 380.45266999999996,316.99999 381.27466,316.99999 C 382.33335,316.99999 383.26401,316.99956000000003 383.89551,316.99999 C 384.9,317.00066000000004 385.71805,316.95666 386.69983,317.22133 C 387.49893000000003,317.43678 388.47293,317.93007 389.19733,317.9893 C 390.26050000000004,318.07624000000004 390.85898000000003,317.98213000000004 391.82401000000004,318.03599 C 392.44898000000006,318.07087 393.60077000000007,318.42832000000004 394.38135000000005,318.71598 C 395.30686000000003,319.05704000000003 396.10132000000004,318.99931 397.10001000000005,318.99998 C 397.90000000000003,319.00052999999997 398.90000000000003,318.99998 399.70002000000005,318.99998 C 400.69984000000005,318.99998 401.47984,318.96333 402.47868000000005,319.00013 C 403.25422000000003,319.02872 404.16179000000005,319.34739 404.90452000000005,319.70448 C 405.70497000000006,320.08934 406.44160000000005,320.59044 407.47849,320.87849 C 408.17847,321.07295 409.10001,320.99998 410.0,320.99998 C 410.89999,320.99998 411.79999,320.99992 412.70001,320.99998 C 413.60016,321.00007 414.41,321.02522 415.32535,321.43598 C 416.03818,321.75586999999996 416.79349,322.51721999999995 417.60016,322.87863999999996 C 418.34082,323.21048999999994 419.17993,323.30774999999994 420.01599000000004,323.80130999999994 C 420.77930000000003,324.2518999999999 421.45724000000007,324.77081999999996 422.26935000000003,324.9159599999999 C 423.27527000000003,325.0957699999999 424.34906,325.1158499999999 425.03833000000003,325.35714999999993 C 425.86151,325.64532999999994 426.59952000000004,326.22167999999994 427.25265,326.6999799999999 C 427.96682000000004,327.22295999999994 428.66488000000004,327.5912799999999 429.61465000000004,327.91594999999995 C 430.59075,328.24965999999995 431.20471000000003,328.63683999999995 432.00000000000006,328.99995999999993 C 432.9055200000001,329.41340999999994 433.59387000000004,329.93907999999993 434.50000000000006,329.99995999999993 C 435.29819000000003,330.05357999999995 435.98846000000003,330.28791999999993 436.72150000000005,330.87861999999996 C 437.36783,331.39946 438.15259000000003,331.80024999999995 439.00000000000006,331.97910999999993 C 439.8912700000001,332.1672499999999 440.84497000000005,331.8368699999999 441.63867000000005,332.03595999999993 C 442.51095000000004,332.25476999999995 443.20862000000005,332.96494999999993 444.0173300000001,332.9986099999999 C 444.8633700000001,333.0338299999999 445.73239000000007,333.4701999999999 446.50000000000006,333.83329999999995 C 447.21259000000003,334.17036999999993 448.1385200000001,334.38850999999994 448.8473200000001,334.6473 C 449.8571500000001,335.01601 450.82132000000007,334.99996 451.50000000000006,334.99996 C 452.4784900000001,334.99996 453.29886000000005,334.98192 454.2000100000001,334.99996 C 455.10055000000006,335.01797 455.8103300000001,335.61809 456.7000100000001,335.91463 C 457.5578000000001,336.20054999999996 458.3853400000001,335.99996 459.33600000000007,335.99996 C 460.10132000000004,335.99996 461.10001000000005,335.99996 461.9000000000001,335.99996 C 462.9000000000001,335.99996 463.7000200000001,335.99996 464.6998400000001,335.99996 C 465.4791700000001,335.99996 466.4785000000001,335.99996 467.29869000000014,335.99996 C 468.20003000000014,335.99996 469.16759000000013,335.9226 469.9000100000001,336.43595999999997 C 470.6901100000001,336.98972999999995 471.05544000000015,337.64820999999995 471.8090100000001,338.29994 C 472.43630000000013,338.84245 473.26064000000014,339.21873 474.0000200000001,339.47911 C 474.7253000000001,339.73451 475.8612900000001,339.89763 476.82152000000013,340.22145 C 477.5423500000001,340.46452 478.50377000000015,340.9926 479.09551000000016,341.29994 C 479.84777000000014,341.69066 480.5432000000002,342.32844 481.38402000000013,342.71461 C 482.2715000000001,343.1222 483.04134000000016,343.02961 483.9791700000001,343.49995 C 484.7225500000001,343.87275 485.6068600000001,343.88914 486.50001000000015,343.99995 C 487.39891000000017,344.11146 487.11778000000015,344.78926 486.30134000000015,345.00129000000004 C 485.50089000000014,345.20918000000006 485.00321000000014,345.67240000000004 484.11067000000014,346.01063000000005 C 483.37892000000016,346.28791000000007 482.8695500000001,346.83152000000007 482.00001000000015,347.02079000000003 C 481.15376000000015,347.20496 480.34947000000017,347.75266000000005 479.50001000000015,348.1666 C 478.8477300000001,348.48447000000004 478.05683000000016,348.88489000000004 477.20002000000017,349.3526 C 476.45469000000014,349.75946 475.7428400000002,349.99768 474.84733000000017,349.99994 C 473.98402000000016,350.00210999999996 473.02085000000017,349.99994 472.10002000000014,349.99994 C 471.20003000000014,349.99994 470.3000000000001,349.99994 469.4000100000001,349.99994 C 468.5000200000001,349.99994 467.6656000000001,350.19588999999996 466.8000000000001,349.94277999999997 C 465.92238000000015,349.68613 465.1590400000001,349.11141999999995 464.52534000000014,348.57462 C 463.93183000000016,348.07184 463.10002000000014,348.00061 462.20002000000017,347.99994 C 461.30134000000015,347.99926999999997 460.6928500000002,347.42624 459.9306700000002,347.08527 C 459.2125900000002,346.76401 458.1252200000002,347.01428999999996 457.1786900000002,346.99978999999996 C 456.4997700000002,346.98938 455.5096500000002,346.79724 454.8746700000002,346.38928999999996 C 453.99912000000023,345.82672999999994 453.3629800000002,345.31064999999995 452.3853500000002,345.08527 C 451.51862000000017,344.88547 450.69959000000017,345.0272 449.7999900000002,344.99994 C 448.8558700000002,344.97135 448.4051200000002,344.30438 447.6986700000002,343.91593 C 446.8502800000002,343.44944 446.0187100000002,343.04706 445.1526800000002,343.00443 C 444.2537200000002,342.96018000000004 443.3282500000002,343.07355 442.5000000000002,342.9791 C 441.50763000000023,342.86591000000004 440.97232000000025,342.2388 440.0000000000002,342.02079000000003 C 439.1215800000002,341.82383000000004 438.1841700000002,342.16666000000004 437.30133000000023,341.9986 C 436.5426900000002,341.85419 435.93231000000026,341.05164 435.27866000000023,341.01062 C 434.3020400000002,340.94937000000004 433.3065200000002,341.06409 432.52118000000024,340.77859 C 431.64352000000025,340.45956 430.73081000000025,340.06417 429.95834000000025,340.02078 C 429.39166000000023,339.98895 428.20001000000025,339.99994 427.29998000000023,339.99994 C 426.7000000000002,339.99994 425.49990000000025,340.00995 424.60000000000025,339.99545 C 423.99984000000023,339.98578 423.09304000000026,339.95294 421.89868000000024,339.71594 C 421.28512000000023,339.59416999999996 420.34869000000026,339.31741 419.33334000000025,339.16659 C 418.61792000000025,339.06032999999996 417.86401000000023,339.03594 417.08932000000027,339.01061 L 416.29867000000024,339.00127" fill="none" id="svg_3" stroke="#000" stroke-width="2"/>
</svg>
