<?xml version="1.0" ?>
<svg baseProfile="full" height="480" version="1.1" width="640" xmlns="http://www.w3.org/2000/svg" xmlns:ev="http://www.w3.org/2001/xml-events" xmlns:xlink="http://www.w3.org/1999/xlink">
	<defs/>
	<path d="M 287.5,226.89999 C 287.5,228.69999 287.34293,229.61976 287.52084,230.39999 C 287.74023,231.36201 288.43911,231.99388 288.5,232.89999 C 288.55075,233.65545 288.48502,234.55281 288.5,235.416 C 288.51801,236.45381 289.31808,236.89428999999998 289.49866,237.70134 C 289.69489,238.57832 289.5,239.5 289.5,240.39998999999997 C 289.5,241.29999999999998 289.5,242.19998999999999 289.5,243.10132999999996 C 289.5,244.06665999999996 289.35687,244.76152999999996 289.66666,245.73332999999997 C 289.89304,246.44346999999996 290.41236,247.38719999999998 290.52533,248.14665999999997 C 290.66226,249.06730999999996 290.86261,249.85002999999998 291.07468,250.67465999999996 C 291.3461,251.73012999999997 291.46329000000003,252.43724999999995 291.49552,253.23832999999996 C 291.53718,254.27392999999995 291.72828,255.21850999999995 292.00001,255.89997999999997 C 292.38862,256.87458999999996 292.55267999999995,257.59547999999995 293.00001,258.42082 L 293.37867,259.22148 L 293.52533999999997,260.11064" fill="none" id="svg_3" stroke="#000" stroke-width="2"/>
</svg>
