<?xml version="1.0" ?>
<svg baseProfile="full" height="480" version="1.1" width="640" xmlns="http://www.w3.org/2000/svg" xmlns:ev="http://www.w3.org/2001/xml-events" xmlns:xlink="http://www.w3.org/1999/xlink">
	<defs/>
	<path d="M 355.0,111.0 C 355.0,113.00533 355.0,113.74934 355.0,114.85733 C 355.0,115.65066 355.0,116.54266 355.0,117.5 C 355.0,118.232 355.0,119.19466 355.0,119.968 C 355.0,121.00533 355.02493,121.74962000000001 354.99985,122.85733 C 354.98188,123.65127000000001 354.78130999999996,124.54343 354.57468,125.25066000000001 C 354.28766,126.23307000000001 354.11985,127.21851000000001 353.83066,127.96800000000002 C 353.50891,128.80191000000002 352.96695,129.48147000000003 352.56800000000004,130.23199000000002 C 352.07227000000006,131.16450000000003 352.05454000000003,132.10681000000002 351.94285,132.81433 C 351.78996,133.78262 351.50001000000003,134.5 351.28401,135.23199000000002 L 351.02534,136.31733000000003 L 350.50001000000003,136.99999000000003 L 350.02085000000005,137.54166000000004" fill="none" id="svg_4" stroke="#000" stroke-width="2"/>
</svg>
