<?xml version="1.0" ?>
<svg baseProfile="full" height="480" version="1.1" width="640" xmlns="http://www.w3.org/2000/svg" xmlns:ev="http://www.w3.org/2001/xml-events" xmlns:xlink="http://www.w3.org/1999/xlink">
	<defs/>
	<path d="M 221.0,116.0 C 227.15666,123.028 227.59578,123.39505 228.50666999999999,123.712 C 229.28609999999998,123.98321 230.02736,124.03877 231.22799999999998,123.99733 C 232.14475,123.96569000000001 233.02624999999998,123.59394 233.49999999999997,122.9375 C 233.92951999999997,122.34234 234.50240999999997,121.32306 234.81466999999998,120.74267 C 235.32288999999997,119.79806 235.68102,118.66957000000001 235.75700999999998,118.25717 C 235.91583999999997,117.39519 235.96832999999998,116.47947 235.99099999999999,115.54817 C 236.00233999999998,115.08276 235.99999999999997,113.72184 235.99999999999997,112.86617 C 235.99999999999997,112.0625 235.99999999999997,111.31884 235.99999999999997,110.04299999999999 C 235.99999999999997,109.27199999999999 236.17272999999997,108.38435 235.98198999999997,107.40899999999999 C 235.80954999999997,106.52717999999999 234.86296999999996,106.13931 234.25598999999997,106.07199999999999 C 233.18671999999998,105.95342999999998 231.99998999999997,105.99999999999999 231.20265999999998,105.99999999999999 C 230.42132999999998,105.99999999999999 229.67199,105.99999999999999 228.97066999999998,105.99999999999999 C 227.76799999999997,105.99999999999999 226.99999999999997,105.99999999999999 226.23199,105.99999999999999 C 225.03199,105.99999999999999 224.34933,105.99999999999999 223.65066,105.99999999999999 C 222.33332,105.99999999999999 221.50419,105.89126999999999 220.66616,106.05716999999999 C 219.72853999999998,106.24278999999999 219.22077,106.95822999999999 219.08532,107.77066999999998 C 218.95808,108.53381999999998 219.00065999999998,109.40266999999999 218.99999,110.59866999999998 C 218.99967,111.18933999999999 218.99999,112.04283999999998 218.99999,113.31600999999998 C 218.99999,114.00000999999997 218.98107,115.16710999999998 219.00898999999998,115.95267999999997 C 219.02847999999997,116.50063999999998 219.02499999999998,117.38826999999998 219.57465,118.31333999999997 C 220.00092999999998,119.03075999999997 220.83326,119.57274999999997 221.86449,119.97850999999997 C 222.6547,120.28942999999997 223.10503,120.37653999999998 224.03198999999998,120.58933999999996 C 225.00105999999997,120.81180999999997 225.99943,121.00287999999996 227.00132,121.19867999999997 C 227.50422,121.29694999999997 228.52082,121.47916999999997 229.03599,121.56400999999997 L 230.08532,121.71467999999997" fill="none" id="svg_3" stroke="#000" stroke-width="2"/>
</svg>
