<?xml version="1.0" ?>
<svg baseProfile="full" height="480" version="1.1" width="640" xmlns="http://www.w3.org/2000/svg" xmlns:ev="http://www.w3.org/2001/xml-events" xmlns:xlink="http://www.w3.org/1999/xlink">
	<defs/>
	<path d="M 229.0,245.0 C 235.16667,253.33333 235.98267,254.65764000000001 236.32317,255.28033 C 236.64772,255.87387999999999 236.94037,256.45694 237.21868,257.02932 C 237.76971,258.16258999999997 238.3305,259.33477 238.64268,259.94282999999996 C 238.9651,260.57081999999997 239.30543,261.20976999999993 239.65068000000002,261.86132 C 240.00012,262.52076999999997 240.36554,263.17715 241.03201,264.51732999999996 C 241.68258,265.82555999999994 241.96028,266.47691999999995 242.23201,267.11199999999997 C 242.49754000000001,267.73260999999997 242.73712,268.34795999999994 243.25069,269.51732999999996 C 243.49947,270.08379999999994 243.70304,270.66704999999996 244.64319,272.15730999999994 C 244.9513,272.6456799999999 245.30455,273.1065899999999 246.06252,273.9999899999999 C 246.45014,274.4568699999999 246.87285,274.8992799999999 248.16669000000002,276.33332999999993 C 248.62505000000002,276.84135999999995 249.09272,277.37641999999994 249.58869,277.9278099999999 C 250.10863,278.5058399999999 250.66146,279.1091799999999 251.26269000000002,279.7293199999999 C 251.8992,280.3858399999999 252.57711000000003,281.08246999999994 254.16670000000002,282.49997999999994 C 255.0379,283.27689999999996 255.98478000000003,284.05499999999995 256.9732,284.8489799999999 C 257.98339000000004,285.6604699999999 259.01797000000005,286.4621399999999 260.05868000000004,287.25199999999995 C 261.08566,288.03144999999995 262.09182000000004,288.78489999999994 264.00003000000004,290.16664 C 264.86887,290.79576 265.68750000000006,291.37665999999996 266.46603000000005,291.90965 C 267.2023300000001,292.41374 267.91244000000006,292.88179 268.60803000000004,293.31065 C 269.28329,293.72697 269.95056000000005,294.13142 271.33337000000006,294.83332 C 272.03704000000005,295.19050000000004 272.76831000000004,295.52012 273.51437000000004,295.84281000000004 C 274.26965000000007,296.1695 275.04046000000005,296.48224000000005 275.82135000000005,296.78931000000006 C 276.60782000000006,297.0985800000001 277.40234000000004,297.3996000000001 279.00003000000004,297.9999700000001 C 279.80051000000003,298.3007800000001 280.60562000000004,298.60199000000006 281.41803000000004,298.90897000000007 C 282.24295000000006,299.2206800000001 283.08383000000003,299.5404700000001 283.94403000000005,299.87198000000006 C 284.82916000000006,300.2131100000001 285.74313000000006,300.5661600000001 287.6666900000001,301.33331000000004 C 288.6866500000001,301.74008000000003 289.73807000000005,302.16824 290.8197100000001,302.60080000000005 C 291.9220400000001,303.04163000000005 293.0397700000001,303.48416000000003 294.1706900000001,303.91330000000005 C 295.3018200000001,304.34250000000003 296.4247500000001,304.7768300000001 298.6666900000001,305.4999700000001 C 299.7517700000001,305.8499800000001 300.82187000000005,306.15082000000007 301.8677100000001,306.4239800000001 C 302.8833400000001,306.6892700000001 303.8738400000001,306.9219700000001 304.8346900000001,307.1319600000001 C 305.7612600000001,307.3344700000001 306.6550000000001,307.5160200000001 308.3333800000001,307.8333100000001 C 309.1135900000001,307.9808000000001 309.8582500000001,308.1159000000001 310.5713600000001,308.23831000000007 C 311.2556300000001,308.35577000000006 311.9161500000001,308.4621600000001 312.5573800000001,308.55331000000007 C 313.18153000000007,308.6420600000001 313.79334000000006,308.7279000000001 315.00004000000007,308.83331000000004 C 315.6002900000001,308.88574000000006 316.20655000000005,308.91839000000004 316.8225500000001,308.94281000000007 C 317.4532300000001,308.96780000000007 318.10417000000007,308.98123000000004 318.7800400000001,308.98929000000004 C 319.4858500000001,308.99768000000006 320.2267000000001,308.99930000000006 321.8333800000001,308.99997 C 322.70704000000006,309.00034 323.6227200000001,308.99997 324.5723600000001,308.99997 C 325.5480400000001,308.99997 326.54169000000013,308.99997 327.5453500000001,308.99997 C 328.5510300000001,308.99997 329.5506900000001,308.99997 331.5000300000001,308.99997 C 332.4353600000001,308.99997 333.34271000000007,308.99997 334.2240300000001,308.99997 C 335.0813600000001,308.99997 335.9166900000001,308.99997 336.73203000000007,308.99997 C 337.52936000000005,308.99997 338.31070000000005,308.99997 339.8333800000001,308.99997 C 340.57819000000006,308.99997 341.3120500000001,308.99997 342.03388000000007,308.99997 C 342.74271000000005,308.99997 343.43754000000007,308.99997 344.1173800000001,308.99997 C 344.78120000000007,308.99997 345.4280500000001,308.99997 346.6667000000001,308.99997 C 347.2577000000001,308.99997 347.8347000000001,308.99997 348.40370000000013,308.99997 C 348.97072000000014,308.99997 349.5417000000001,308.99997 350.12272000000013,308.99997 C 350.7197000000001,308.99997 351.33869000000016,308.99997 352.6667000000001,308.99997 C 353.3857200000001,308.99997 354.1387200000001,308.99997 354.9197200000001,308.99997 C 355.7227000000001,308.99997 356.5417000000001,308.99997 357.3707100000001,308.99997 C 358.2037200000001,308.99997 359.0347100000001,308.99997 360.6667000000001,308.99997 C 361.4568900000001,308.99997 362.2280400000001,308.99997 362.9812100000001,308.99997 C 363.7173900000001,308.99997 364.43754000000007,308.99997 365.1427100000001,308.99997 C 365.8338700000001,308.99997 366.5120300000001,308.99982 367.8333800000001,308.99997 C 368.4791900000001,309.00006 369.1200300000001,308.99982 369.76087000000007,309.00446 C 370.4067100000001,309.00912999999997 371.0626000000001,309.01813 371.7333700000001,309.03598 C 372.4242900000001,309.05435 373.1406600000001,309.07465 374.6666900000001,309.16663 C 375.4869100000001,309.21607 376.34580000000005,309.28333 377.24219000000005,309.36615 C 378.17649000000006,309.45248 379.14658000000003,309.55679 380.15070000000003,309.68265 C 381.19031,309.81296000000003 382.26471000000004,309.95169000000004 384.50003000000004,310.33332 C 385.66440000000006,310.53211 386.84112000000005,310.76264000000003 388.01752000000005,311.00532000000004 C 389.18112,311.24537000000004 390.31366,311.49510000000004 391.4000300000001,311.74931000000004 C 392.4286200000001,311.99 393.38590000000005,312.21074000000004 395.00004000000007,312.66664000000003 C 395.64466000000004,312.84871000000004 396.1810100000001,313.02095 396.61854000000005,313.19014000000004 C 396.98191,313.33064 397.2765600000001,313.46965000000006 397.50804000000005,313.61464000000007 C 397.70845,313.74016000000006 397.8726300000001,313.87926000000004 398.16670000000005,314.1666400000001 C 398.32283000000007,314.31923000000006 398.48137,314.48131000000006 398.64372000000003,314.64366000000007 C 398.80403,314.80397000000005 398.95839,314.95833000000005 399.1027,315.10264000000006 C 399.23304,315.23298000000005 399.34538000000003,315.3453200000001 399.50004,315.49998000000005 C 399.53572,315.53566000000006 399.32697,315.6949000000001 399.03605,315.03599 C 398.72099,314.32243000000005 399.00354999999996,313.89063000000004 398.99955,312.12113000000005 C 398.99769,311.29597000000007 398.99165,310.3747000000001 398.96803,309.37464000000006 C 398.94294,308.31232000000006 398.90208,307.20469 398.82853,306.07014000000004 C 398.75419,304.92329000000007 398.51746,302.66383 398.33521,301.58616000000006 C 398.15824000000003,300.53965000000005 397.93537000000003,299.52900000000005 397.67069000000004,298.55464000000006 C 397.41132000000005,297.59981000000005 397.10935000000006,296.6737800000001 396.77219,295.7751600000001 C 396.43845000000005,294.88560000000007 395.67749000000003,293.1613000000001 395.25620000000004,292.32130000000006 C 394.83347000000003,291.47850000000005 394.37525000000005,290.6454300000001 393.8747,289.82533000000006 C 393.36634000000004,288.99244000000004 392.81089000000003,288.16575000000006 392.20521,287.3473000000001 C 391.58311000000003,286.50666000000007 390.17716,284.82371000000006 389.39305,283.97947000000005 C 388.588,283.11268000000007 387.73646,282.26060000000007 386.85203,281.42799 C 385.96705000000003,280.59483 385.0547,279.80531 384.14903000000004,279.03849 L 383.24937000000006,278.31065" fill="none" id="svg_4" stroke="#000" stroke-width="2"/>
</svg>
