<?xml version="1.0" ?>
<svg baseProfile="full" height="480" version="1.1" width="640" xmlns="http://www.w3.org/2000/svg" xmlns:ev="http://www.w3.org/2001/xml-events" xmlns:xlink="http://www.w3.org/1999/xlink">
	<defs/>
	<path d="M 196.0,152.0 C 197.22133,152.87866 197.87123,153.36522 198.00133,154.2 C 198.144,155.1155 198.76433,155.64609 199.38933,156.39999999999998 C 199.93436,157.05745999999996 199.67763,158.1538 200.22133,158.87866999999997 C 200.70364999999998,159.52168999999998 201.0,160.19999999999996 201.0,161.10000999999997 C 201.0,161.99999999999997 201.0,162.80000999999996 201.0,163.69999999999996 C 201.0,164.60000999999997 201.0,165.52082999999996 201.0,166.32133999999996 C 201.0,167.17466999999996 201.0,168.11466999999996 201.0,169.10000999999997 C 201.0,169.99999999999997 201.0,170.80000999999996 201.0,171.69999999999996 C 201.0,172.60000999999997 201.0,173.49999999999997 201.0,174.39999999999995 C 201.0,175.30000999999996 201.08212,176.20376999999996 200.99983,177.10000999999994 C 200.91615000000002,178.01144999999994 200.25305,178.53716999999995 200.03599,179.39999999999995 C 199.81623,180.27349999999996 199.99999,181.19999999999996 199.99999,182.10000999999994 C 199.99999,182.99999999999994 200.19594,183.83444999999995 199.94283,184.69999999999993 C 199.68618999999998,185.57763999999995 199.02857999999998,186.29864999999992 198.99999,187.19999999999993 C 198.97146,188.09954999999994 199.03719,189.00086999999994 198.99999,189.80000999999993 C 198.95728,190.71763999999993 198.06089,191.21522999999993 197.99999,192.10000999999994 C 197.93819,192.99787999999995 198.36435,193.91075999999995 197.94283,194.64283999999995 C 197.47558999999998,195.45432999999994 196.99999,195.99999999999994 196.99999,196.80000999999996 C 196.99999,197.69999999999996 196.99999,198.60000999999997 196.99999,199.50000999999995 C 196.99999,200.39999999999995 196.99999,201.30000999999996 196.99999,202.20000999999993 C 196.99999,203.10001999999994 196.99999,204.00000999999995 196.99999,204.80001999999993 C 196.99999,205.70000999999993 196.99999,206.60001999999994 196.99999,207.50001999999992 C 196.99999,208.40000999999992 196.99999,209.30001999999993 196.99999,210.2000199999999 C 196.99999,211.10002999999992 196.99999,212.00001999999992 196.99999,212.8000299999999 C 196.99999,213.7000199999999 196.99999,214.60002999999992 196.99999,215.5208599999999 C 196.99999,216.4853699999999 196.98696,217.21078999999992 197.00016,218.19985999999992 C 197.01055,218.9793999999999 197.27435,219.9495699999999 197.64732999999998,220.6955299999999 C 198.03653999999997,221.4738999999999 198.07104999999999,222.3429899999999 198.57465,223.0613699999999 C 199.00176,223.6706199999999 199.42757,224.4397399999999 199.87848,225.2215299999999 C 200.3216,225.98978999999989 200.12653,227.0319199999999 200.61066,227.6000399999999 C 201.24582,228.3453899999999 201.74219,229.0345199999999 202.08399,229.80003999999988 C 202.41598,230.54356999999987 202.86437,231.30859999999987 203.00132,232.20002999999988 C 203.14198,233.11567999999988 203.96072999999998,233.4800599999999 204.56399,234.0613699999999 C 205.20802999999998,234.6820099999999 204.65373,235.9394099999999 205.05714999999998,236.6383699999999 C 205.45477999999997,237.32726999999988 205.97290999999998,238.0004899999999 205.99998999999997,238.80003999999988 C 206.02857999999998,239.64431999999988 206.70628999999997,240.22956999999988 207.16665999999998,241.00003999999987 C 207.59658,241.71953999999988 208.48225999999997,241.99710999999988 209.06132999999997,242.61070999999987 C 209.70880999999997,243.29677999999987 210.55419999999998,243.53521999999987 210.92797999999996,244.41069999999988 C 211.28660999999997,245.25070999999988 210.91132999999996,246.2124899999999 211.42531999999997,246.93869999999987 C 211.89789999999996,247.60638999999986 212.42676999999998,248.40881999999988 212.99997999999997,249.00003999999987 C 213.59062999999998,249.60924999999986 214.46573999999995,250.19745999999986 214.83330999999995,251.00003999999987 C 215.17345999999995,251.74275999999986 215.10114999999996,252.68547999999987 215.80130999999994,253.08403999999987 C 216.51739999999995,253.49167999999986 217.20532999999995,254.19472999999988 217.79997999999995,254.80003999999988 C 218.39470999999995,255.40542999999988 218.78535999999994,256.3435699999999 219.02530999999996,257.1387099999999 C 219.26329999999996,257.9273799999999 219.69045999999997,258.6447199999999 220.08397999999997,259.4320399999999 C 220.43512999999996,260.1345899999999 221.42574999999997,260.40987999999993 222.09981999999997,261.1000399999999 C 222.66524999999996,261.6789599999999 222.65422999999996,262.6794799999999 223.02080999999995,263.4791899999999 C 223.35578999999996,264.2099599999999 224.40879999999996,264.4268499999999 225.09998999999996,265.1000399999999 C 225.60654999999997,265.59338999999994 226.30365999999995,266.29635999999994 226.79998999999995,266.8000199999999 C 227.50526999999994,267.51571999999993 228.09733999999995,268.3229399999999 228.49998999999994,269.0000299999999 C 228.99670999999995,269.83532999999994 229.47517999999994,270.5041799999999 230.09999999999994,271.09984999999995 C 230.77432999999994,271.74272999999994 231.48979999999995,272.1853899999999 232.08398999999994,272.71602999999993 C 232.68531999999993,273.2530499999999 233.57005999999996,273.64287999999993 234.19998999999996,274.1986999999999 C 234.96570999999994,274.8743599999999 235.83557999999996,274.87893999999994 236.47915999999995,275.52086999999995 C 237.11999999999995,276.16008999999997 237.43543999999994,276.98137999999994 238.29998999999995,277.0000299999999 C 239.19843999999995,277.01940999999994 239.82476999999994,277.48671999999993 240.52081999999996,278.0000299999999 C 241.20915999999997,278.50762999999995 242.13804999999996,278.7774299999999 242.79998999999995,279.0840399999999 C 243.66906999999995,279.4865999999999 244.11631999999994,280.3369099999999 244.88531999999995,280.7146899999999 C 245.76991999999996,281.1492599999999 246.62754999999996,281.0021399999999 247.59548999999996,281.3572099999999 C 248.36916999999997,281.6410199999999 249.13088999999997,282.1817899999999 249.69547999999995,282.7000399999999 C 250.42159999999996,283.3665699999999 251.25266999999994,283.7867399999999 251.99997999999994,284.1666799999999 C 252.66533999999993,284.50496999999984 253.21794999999995,285.4291299999999 254.10030999999995,285.8788699999999 C 254.76889999999995,286.2196599999999 255.76915999999994,286.5660299999999 256.25064999999995,286.8506999999999 C 256.99646999999993,287.2916499999999 258.14465999999993,287.6307899999999 258.83331999999996,288.16667999999993 C 259.491,288.6784599999999 260.21574,288.9149699999999 260.93863999999996,289.4253499999999 C 261.59506999999996,289.8887899999999 262.55911999999995,289.95580999999993 263.02531,290.61067999999995 C 263.5442,291.33958999999993 264.16252,292.00688999999994 264.82533,292.4000199999999 C 265.51179,292.80715999999995 266.4449,293.3398399999999 266.87883,294.10002999999995 C 267.25453,294.75822999999997 267.8755,295.37764999999996 268.51732,295.80000999999993 C 269.38417,296.37047999999993 270.01729,297.20836999999995 270.7,297.6428399999999 C 271.43212,298.1087799999999 272.38933,298.01069999999993 272.99998999999997,298.50001999999995 C 273.61064999999996,298.98933999999997 274.71383,298.86439999999993 275.38933,299.4360199999999 C 276.01885,299.96872999999994 276.30643999999995,300.7877699999999 277.19865999999996,301.0013599999999 C 277.94847999999996,301.18085999999994 278.49611,301.8554899999999 279.2,302.2853599999999 C 279.87534999999997,302.6978099999999 280.45742,303.5609899999999 281.29998,303.9473499999999 C 282.06878,304.2998599999999 282.71685,304.7505099999999 283.29998,305.64818999999994 C 283.71206,306.28252999999995 284.55938000000003,306.79231999999996 284.97466000000003,307.44667999999996 C 285.46175000000005,308.21416999999997 285.51134,309.02556999999996 285.99999,310.00001999999995 C 286.39239000000003,310.78252 286.76064,311.48729 287.6,312.01469999999995 C 288.35760000000005,312.4907099999999 288.75079,313.15151 289.16665,314.00001999999995 C 289.54037,314.76252999999997 289.93469,315.53211999999996 290.35265,316.30000999999993 C 290.81032,317.14082999999994 291.28193999999996,317.75026999999994 291.99998999999997,318.16667999999993 C 292.72506,318.58714999999995 292.91274,319.5447299999999 293.35717,320.30452999999994 C 293.90014,321.2328099999999 294.29546,321.89690999999993 294.79998,322.43068999999997 C 295.51766,323.19003 295.5888,323.82744999999994 296.05715,324.64284999999995 C 296.52355,325.45485999999994 297.01966999999996,325.91292999999996 297.35717,326.64818999999994 C 297.73254,327.46590999999995 298.76147,327.91979999999995 298.98931,328.6466899999999 C 299.2889,329.60243999999994 299.22515,330.3198499999999 299.71599,331.0826899999999 C 300.13387,331.7320999999999 300.17064,332.7146799999999 300.99998999999997,333.0000199999999 C 301.82933999999995,333.2853599999999 301.99998999999997,334.1000299999999 301.99998999999997,335.0000199999999 C 301.99998999999997,335.8000099999999 301.81627,336.7265199999999 302.03599999999994,337.6000299999999 C 302.25303999999994,338.4628199999999 302.78623999999996,339.2913399999999 303.3526499999999,339.9473499999999 C 303.8641199999999,340.5397299999999 304.01066999999995,341.38936999999993 304.4999899999999,342.0000199999999 C 304.98930999999993,342.6106799999999 304.8815199999999,343.7127599999999 305.6106499999999,343.9893399999999 C 306.4422199999999,344.3047999999999 307.4791499999999,343.97917999999993 307.98930999999993,343.3893599999999 L 307.9999899999999,342.5000199999999 L 307.9999899999999,341.6000299999999" fill="none" id="svg_4" stroke="#000" stroke-width="2"/>
</svg>
