<?xml version="1.0" ?>
<svg baseProfile="full" height="480" version="1.1" width="640" xmlns="http://www.w3.org/2000/svg" xmlns:ev="http://www.w3.org/2001/xml-events" xmlns:xlink="http://www.w3.org/1999/xlink">
	<defs/>
	<path d="M 301.0,340.0 C 305.66666,348.5 306.05795,349.2355 306.43201,349.94666 C 307.15052,351.31269000000003 307.49845,351.97999 307.85068,352.64002 C 308.20377,353.30167 308.55915,353.97168999999997 309.33335,355.33335 C 309.73807,356.04517 310.16617,356.76777 310.60535,357.50083 C 311.04883,358.24109 311.49921,358.97965 311.94934,359.71335 C 312.39389,360.43796 312.83359,361.14569 313.66666,362.5 C 314.05706999999995,363.1347 314.42792,363.73904 314.76766999999995,364.31949 C 315.08901999999995,364.86852999999996 315.43143,365.36965999999995 315.86233999999996,366.37215999999995 C 316.40635,367.63771999999994 316.5261,368.42662999999993 316.46667999999994,369.08532999999994 C 316.37789999999995,370.06979999999993 315.98400999999996,370.00533999999993 315.31399999999996,370.22866999999997 C 313.99999999999994,370.66666 313.34333,370.88599 312.58532999999994,371.13732999999996 C 311.74569999999994,371.41571 310.84313999999995,371.71340999999995 309.89584999999994,372.02083999999996 C 308.92447999999996,372.33608999999996 307.94760999999994,372.65108999999995 306.98132999999996,372.94933999999995 C 305.16928999999993,373.50861 304.35101999999995,373.74001999999996 303.59201999999993,373.94533999999993 C 302.88327999999996,374.1370799999999 302.21005999999994,374.3057799999999 301.5625099999999,374.4583399999999 C 300.93137999999993,374.6070199999999 300.3030499999999,374.7445899999999 299.6680099999999,374.8813399999999 C 298.33377999999993,375.1686299999999 297.61414999999994,375.32060999999993 296.8613399999999,375.4853099999999 C 296.0801199999999,375.6562399999999 295.27707999999996,375.8347099999999 294.4583599999999,376.02082999999993 C 293.6290399999999,376.2093699999999 292.79563999999993,376.40156999999994 291.9653499999999,376.6012999999999 C 290.33195999999987,376.9942099999999 289.54255999999987,377.19931999999994 288.76801999999986,377.39865999999995 C 288.00522999999987,377.59497999999996 287.25126999999986,377.79166999999995 286.50000999999986,377.97912999999994 C 285.74991999999986,378.1663199999999 284.99640999999986,378.3507399999999 284.23199999999986,378.51464999999996 C 282.67004999999983,378.84957999999995 281.8586799999999,378.98267 281.0373299999999,379.11463 C 280.2133599999999,379.24701999999996 279.3921599999999,379.36505999999997 278.5833499999999,379.47913 C 277.7948399999999,379.59034 277.03341999999986,379.69144 276.3093299999999,379.79865 C 274.99890999999985,379.99268 274.42831999999987,380.0922 273.91866999999985,380.19864 C 273.06658999999985,380.37662 272.0113499999998,380.78244 272.30816999999985,380.99548 C 272.95159999999987,381.4573 273.90591999999987,380.7149 274.36266999999987,380.57329999999996 C 275.6673299999999,380.16882 276.54332999999986,379.89174999999994 277.56264999999985,379.57595999999995 C 278.7052899999999,379.22195999999997 279.9538499999999,378.83861999999993 281.29164999999983,378.43746999999996 C 282.69780999999983,378.01581 284.15544999999986,377.58408 285.65065999999985,377.16396999999995 C 288.66231999999985,376.31774999999993 290.1535299999998,375.93639999999994 291.61598999999984,375.57595999999995 C 293.03895999999986,375.22524999999996 294.4194899999998,374.90615999999994 295.74998999999985,374.62496999999996 C 297.01698999999985,374.35720999999995 298.21635999999984,374.11959999999993 299.3439799999999,373.94397 C 301.32862999999986,373.63482999999997 302.18345999999985,373.57189999999997 302.93998999999985,373.53997999999996 C 303.60542999999984,373.51189999999997 304.1874599999999,373.52200999999997 304.68748999999985,373.56246999999996 C 305.1142199999999,373.59702 305.47145999999987,373.65047999999996 305.7599999999999,373.71997 C 306.1704299999999,373.81879 306.3015599999999,373.86471 306.3706599999999,373.91998 C 306.41240999999985,373.95337 306.4032499999999,374.01059000000004 306.3541499999999,374.06247 C 306.2809399999999,374.13980000000004 306.1600599999999,374.22046 306.0226699999999,374.33997 C 305.6581399999999,374.65711 305.4546499999999,374.88430999999997 304.9721599999999,375.42865 C 304.3936099999999,376.08136 304.0898399999999,376.46143 303.3413299999999,377.20529 C 302.52046999999993,378.02109 301.5369799999999,378.8132 301.00148999999993,379.24048 C 300.42903999999993,379.69727 299.80907999999994,380.18332 299.15199999999993,380.72397 C 298.4397799999999,381.31 297.6627399999999,381.94492 295.9999899999999,383.49997 C 295.0597699999999,384.3793 294.0924299999999,385.35376 293.0839999999999,386.37848 C 292.0442999999999,387.435 290.9998599999999,388.52069 289.9519799999999,389.60797 C 288.91584999999986,390.68301 287.9177999999999,391.74301 285.9999799999999,393.66662 C 285.1353599999999,394.53387000000004 284.3185799999999,395.32031 283.54746999999986,396.03362000000004 C 282.83149999999983,396.69594000000006 282.15064999999987,397.29732 281.4999799999999,397.84264 C 280.8886199999999,398.35503 280.3032899999999,398.83205000000004 279.16663999999986,399.66661 C 278.62665999999984,400.06306 278.09153999999984,400.42995 277.57065999999986,400.77663 C 277.07007999999985,401.10982 276.58481999999987,401.41899 276.1186299999999,401.70662 C 275.67737999999986,401.97887 275.25943999999987,402.2303 274.4999799999999,402.66661 C 274.1664199999999,402.85823 273.8634699999999,403.02571 273.59848999999986,403.17662 C 273.3715599999999,403.30586 273.18375999999984,403.41109 273.0479799999999,403.50661 C 272.95373999999987,403.57289000000003 272.9079299999999,403.653 272.9999799999999,403.66661000000005 C 273.53427999999985,403.74562000000003 274.3969499999999,403.39546000000007 275.0372999999999,403.19728000000003 C 276.2489099999999,402.82228000000003 276.8180299999999,402.54976000000005 277.4306399999999,402.14796 C 278.21554999999995,401.63316000000003 279.1687999999999,400.83589 279.7504599999999,400.34962 C 280.3997499999999,399.80683 281.1005599999999,399.20481 281.8519599999999,398.5586 C 282.6462699999999,397.87549 283.4736599999999,397.16016 284.3314799999999,396.42560000000003 C 285.2082799999999,395.67478000000006 286.99739999999986,394.16348000000005 287.8996299999999,393.42194 C 288.7947699999999,392.68619 289.6881099999999,391.96695 290.57864999999987,391.26795 C 291.4555099999999,390.57968999999997 292.32464999999985,389.91416 293.18563999999986,389.27594999999997 C 294.02608999999984,388.65292999999997 295.66326999999984,387.49494 296.4568199999999,386.96446 C 297.22472999999985,386.45108999999997 297.9793099999999,385.96851999999996 298.71731999999986,385.50795 C 299.4356999999999,385.05962 300.14239999999984,384.63155 300.83380999999986,384.21346 C 301.51172999999983,383.80355 302.83417999999983,383.00136 303.47815999999983,382.60045 C 304.11282999999986,382.20534000000004 304.7330699999998,381.81227 305.34265999999985,381.43196 C 305.9367799999998,381.06129 306.5148399999999,380.70378 307.08114999999987,380.37144 C 307.6256099999999,380.05192 308.66305999999986,379.49235 309.1559799999999,379.26478000000003 C 309.6180799999999,379.05143000000004 310.0563999999999,378.87431000000004 310.4639599999999,378.72929000000005 C 310.8313899999999,378.59855000000005 311.1611299999999,378.49815000000007 311.4479699999999,378.42778000000004 C 311.6841799999999,378.36983000000004 312.0352499999999,378.37086000000005 311.5158099999999,378.82329000000004 C 310.87334999999985,379.38289000000003 310.02114999999986,380.03298000000007 309.7213199999999,380.3253 C 309.0368099999999,380.99269000000004 308.6580899999999,381.38673 307.3333199999999,382.8333 C 306.8107099999999,383.40398 306.2597099999999,384.0237 305.6758199999999,384.67678 C 305.06637999999987,385.35839 304.4382699999999,386.06316 303.79330999999985,386.7813 C 303.1399299999998,387.50883999999996 302.48614999999984,388.24163 301.1666299999998,389.66661 C 300.5249699999998,390.35957 299.8893199999998,391.02797 299.2706299999998,391.68111 C 298.6679699999998,392.31728 298.0808399999998,392.93516999999997 297.5186499999998,393.54262 C 296.9735799999998,394.13155 296.43893999999983,394.69655 295.4999699999998,395.8333 C 295.0558499999998,396.37099 294.6524099999998,396.90837 294.2759699999998,397.43379 C 293.9138799999998,397.93922 293.5833099999998,398.43745 293.2679699999998,398.91728 L 292.97063999999983,399.38112 L 292.68929999999983,399.82796" fill="none" id="svg_4" stroke="#000" stroke-width="2"/>
</svg>
