<?xml version="1.0" ?>
<svg baseProfile="full" height="480" version="1.1" width="640" xmlns="http://www.w3.org/2000/svg" xmlns:ev="http://www.w3.org/2001/xml-events" xmlns:xlink="http://www.w3.org/1999/xlink">
	<defs/>
	<path d="M 292.0,194.0 C 292.0,195.8 292.0,196.7 292.0,197.60001 C 292.0,198.4 292.0,199.30001 292.0,200.2 C 292.0,201.10001 292.0,202.0 292.0,202.80001 C 292.0,203.7 292.0,204.63601 292.0,205.48399999999998 C 292.0,206.34733999999997 292.0,207.36399999999998 292.0,208.30001 C 292.0,209.2 292.0,210.10001 292.0,210.80001 C 292.0,211.80001 292.0,212.7 292.0,213.60001 C 292.0,214.4 292.0,215.30001 292.0,216.2 C 292.0,217.10001 292.0,218.0 292.0,218.80001 C 292.0,219.7 292.0,220.60001 292.0,221.50000999999997 C 292.0,222.39999999999998 292.0,223.30001 292.0,224.20000999999996 C 292.0,225.10001999999997 292.0,226.00000999999997 292.0,226.80001999999996 C 292.0,227.70000999999996 292.0,228.60001999999997 292.0,229.50001999999995 C 292.0,230.40000999999995 292.0,231.30001999999996 292.0,232.20001999999994 C 292.0,233.10002999999995 292.0,234.00001999999995 292.0,234.80002999999994 C 292.0,235.70001999999994 292.0,236.60002999999995 292.0,237.50002999999992 C 292.0,238.40001999999993 292.0,239.30002999999994 292.0,240.2000299999999 C 292.0,241.10003999999992 292.0,242.00002999999992 292.0,242.8000399999999 C 292.0,243.70802999999992 292.0,244.7640399999999 292.0,245.3580399999999 C 292.0,246.3240399999999 291.91013,246.9517899999999 292.00449,248.1330299999999 C 292.08779999999996,249.1760299999999 292.48578,249.8029499999999 292.83335,250.8333599999999 C 293.10001,251.62394999999992 293.7045,251.99552999999992 294.64283,252.0571899999999 L 294.99866000000003,252.8013599999999 L 295.05716,253.6428699999999" fill="none" id="svg_4" stroke="#000" stroke-width="2"/>
</svg>
