<?xml version="1.0" ?>
<svg baseProfile="full" height="480" version="1.1" width="640" xmlns="http://www.w3.org/2000/svg" xmlns:ev="http://www.w3.org/2001/xml-events" xmlns:xlink="http://www.w3.org/1999/xlink">
	<defs/>
	<path d="M 319.0,157.0 C 321.85782,151.7215 322.18927,150.84891 322.5625,150.02083 C 322.74933,149.60631999999998 323.15518,148.74156 324.20685,147.60001 C 324.59713999999997,147.17636 325.06296,146.79416 326.02085,146.0 C 326.5069,145.59703 327.00642,145.21436 327.46533999999997,144.8 C 328.75077,143.63943 329.07422999999994,143.21264000000002 329.67735,142.42134000000001 C 330.24153,141.68114000000003 330.71232,140.91748 331.64302,140.04283 C 331.95405999999997,139.75055 332.66582,139.25146 333.42134,138.78534000000002 C 334.19646,138.30711000000002 335.00853,137.84619 335.79868999999997,137.31467 C 336.59815999999995,136.77689 336.98949,136.49242 337.74283999999994,135.8955 C 338.84882999999996,135.01919 339.5158799999999,134.40118999999999 339.84732999999994,134.10451 C 340.49976999999996,133.52054 341.12552999999997,132.92104 342.16666999999995,132.16667 C 342.86530999999997,131.66046 343.61530999999997,131.23707000000002 344.33867,130.81067000000002 C 345.0313,130.40238000000002 345.96360999999996,129.80826000000002 346.49467999999996,129.39999 C 347.25987999999995,128.81175 347.74911,128.37143 348.64336,127.79983 C 349.30996,127.37376 350.08122999999995,126.97503 350.92335999999995,126.54283 C 351.37220999999994,126.31246 352.84315999999995,125.58005 353.3653499999999,125.31466999999999 C 353.8971499999999,125.04441 354.96120999999994,124.48416999999999 355.47734999999994,124.18933 C 355.98317999999995,123.90038 357.3545199999999,123.02486999999999 358.0613599999999,122.40266 C 358.6971299999999,121.84303 359.1977099999999,121.23586 359.7653399999999,120.77065999999999 C 360.6000599999999,120.08658999999999 361.31150999999994,119.79848999999999 362.04167999999993,119.49999 C 362.80610999999993,119.18746999999999 364.00819999999993,118.68136 364.8026999999999,118.23066 C 365.2134099999999,117.99768 366.0395199999999,117.47557 366.4720099999999,117.21466 C 367.3662399999999,116.67520999999999 368.3253699999999,116.14907 369.3680399999999,115.68531999999999 C 369.9014299999999,115.44809 370.9995999999999,115.01973999999998 371.54937999999987,114.81065999999998 C 372.09429999999986,114.60341999999999 373.66848999999985,114.00435999999999 374.1571999999999,113.79998999999998 C 375.0937499999999,113.40833999999998 375.5393999999999,113.20151999999997 376.4147099999999,112.79998999999998 C 377.2833899999999,112.40150999999997 378.1620199999999,111.98902999999999 379.0840499999999,111.60265999999999 C 380.0207599999999,111.21013999999998 380.4944199999999,111.02491999999998 381.4473599999999,110.71431999999999 C 381.9134199999999,110.56241999999999 383.2773199999999,110.23381999999998 384.1473699999999,110.10081999999998 C 384.9987799999999,109.97065999999998 385.8701499999999,109.89933999999998 387.1666899999999,109.49998999999998 C 387.62862999999993,109.35770999999998 388.5536499999999,108.94405999999998 389.0253599999999,108.72398999999999 C 389.9766499999999,108.28015999999998 390.4191599999999,107.98205999999999 391.83336999999995,107.49998999999998 C 392.69994999999994,107.20459999999999 393.56535999999994,107.08303999999998 394.38936999999993,106.92398999999999 C 394.79619999999994,106.84546999999999 396.0133599999999,106.52888999999999 396.80000999999993,106.14799 C 397.6149499999999,105.7534 398.3932699999999,105.26312999999999 398.80000999999993,105.05798999999999 C 399.9816199999999,104.46202999999998 400.7951299999999,104.22729999999999 401.60002999999995,104.09732999999999 C 402.39610999999996,103.96878999999998 403.20405999999997,103.94962999999998 404.4000199999999,103.77849999999998 C 405.2032699999999,103.66355999999998 406.00148999999993,103.48545999999997 406.80000999999993,103.29549999999998 C 408.0023099999999,103.00946999999998 408.80198999999993,102.80610999999998 409.60002999999995,102.58932999999998 C 410.40208999999993,102.37145999999997 411.2084899999999,102.13722999999997 412.4000199999999,101.67865999999998 C 412.80299999999994,101.52356999999998 413.59856999999994,101.17127999999998 414.4000199999999,100.82532999999998 C 415.19859999999994,100.48062999999998 416.3962699999999,100.01038999999997 417.19551999999993,99.75715999999998 C 417.97581999999994,99.50993999999999 418.7450799999999,99.31239999999998 419.83336999999995,98.99999999999999 C 420.51744999999994,98.80362999999998 421.18242999999995,98.61043999999998 422.15270999999996,98.24283999999999 C 423.17531999999994,97.85540999999999 423.88494999999995,97.52083999999999 424.61468999999994,97.17466999999999 C 425.34097999999994,96.83013 426.0284199999999,96.47939 426.9573699999999,96.02149999999999 C 427.7474399999999,95.63206999999998 428.49477999999993,95.27337999999999 429.64269999999993,94.90016999999999 C 430.2997699999999,94.68652999999999 430.99639999999994,94.50460999999999 431.69469999999995,94.35716999999998 C 432.95153999999997,94.09180999999998 433.75832999999994,94.06038999999998 434.50536999999997,93.89016999999998 C 435.66134999999997,93.62677999999998 436.3212,93.29088999999999 437.06253,92.95833999999998 C 437.86877,92.59666999999997 438.28375,92.38767999999997 439.62203999999997,91.79966999999998 C 440.56771999999995,91.38415999999998 441.06802,91.17866999999998 441.58336999999995,90.95833999999998 L 442.67601999999994,90.48566999999998 L 443.2573499999999,90.22933999999998" fill="none" id="svg_4" stroke="#000" stroke-width="2"/>
</svg>
