<?xml version="1.0" ?>
<svg baseProfile="full" height="480" version="1.1" width="640" xmlns="http://www.w3.org/2000/svg" xmlns:ev="http://www.w3.org/2001/xml-events" xmlns:xlink="http://www.w3.org/1999/xlink">
	<defs/>
	<path d="M 287.0,254.0 C 287.0,255.75717 287.0,256.65268 287.0,257.51599 C 287.0,258.47916 287.0,259.39999 287.0,260.20132 C 287.0,261.16665 287.0,262.0 287.0,262.97848 C 287.0,263.79867 287.0,264.70000999999996 287.0,265.59999999999997 C 287.0,266.49998999999997 287.00009,267.39998999999995 287.0,268.29997999999995 C 286.99991,269.09999999999997 286.91068,270.0710399999999 286.35333,270.59999999999997 C 285.60693000000003,271.30836999999997 284.78546,271.52608999999995 284.10983000000004,272.29549999999995 C 283.58249000000006,272.8960599999999 282.94619000000006,273.44658999999996 282.42532000000006,274.02532999999994 C 281.85122000000007,274.66320999999994 281.1018000000001,275.32271999999995 281.0208400000001,276.02083999999996 C 280.9104900000001,276.97234999999995 280.87594000000007,277.77626999999995 280.42532000000006,278.59999999999997 C 279.9983500000001,279.38052 280.07306000000005,280.35015 279.5746700000001,280.97466 C 279.08947000000006,281.58263 278.9999900000001,282.39997999999997 278.9999900000001,283.30449 C 278.9999900000001,284.32131 278.9999900000001,284.99998999999997 278.9999900000001,285.97846999999996 C 278.9999900000001,286.79866 278.9999900000001,287.69999999999993 278.9999900000001,288.59998999999993 C 278.9999900000001,289.49997999999994 278.9999900000001,290.3999799999999 278.9999900000001,291.2999699999999 C 278.9999900000001,292.1999899999999 278.9999900000001,293.09998999999993 278.9999900000001,293.99997999999994 C 278.9999900000001,294.88532999999995 278.9999900000001,295.83597999999995 278.9999900000001,296.6012999999999 C 278.9999900000001,297.5954699999999 278.9991700000001,298.3428199999999 278.9999900000001,299.3639999999999 C 279.0006600000001,300.19999999999993 279.3261300000001,301.0366399999999 279.7159900000001,301.7999699999999 C 280.1005100000001,302.5528699999999 280.1047500000001,303.39917999999994 280.64733000000007,304.0526599999999 C 281.13766000000004,304.6432099999999 281.60879000000006,305.4778899999999 281.87865000000005,306.3211499999999 C 282.13179,307.11219999999986 282.4338900000001,308.04471999999987 283.02532,308.5746599999999 C 283.64385000000004,309.1288899999999 284.45244,309.53760999999986 284.94732000000005,310.29548999999986 C 285.40139000000005,310.99088999999987 285.82833000000005,311.62617999999986 286.35717000000005,312.29548999999986 C 286.94271000000003,313.03657999999984 287.90337000000005,313.03785999999985 288.65267000000006,313.3571699999999 C 289.36715000000004,313.6616099999999 290.2247500000001,314.33015999999986 290.88399000000004,314.7999799999999 C 291.62877000000003,315.3307399999999 292.42388000000005,315.4663899999999 293.35332000000005,315.9746599999999 C 294.0843100000001,316.3744099999999 294.61058,316.9946499999999 295.49999,316.9999899999999 C 296.39995000000005,317.0053899999999 297.30651,316.8930299999999 298.20000000000005,317.00132999999994 C 299.1197700000001,317.1128099999999 299.68062000000003,317.6963999999999 300.52083000000005,317.9999899999999 C 301.46678,318.3417899999999 302.21065000000004,318.6106499999999 302.99999,318.9999899999999 C 303.78933,319.3893299999999 304.53319000000005,319.65818999999993 305.47915,319.9999899999999 C 306.31936,320.3035799999999 307.09387,320.9391099999999 307.99999,320.9999899999999 C 308.79818,321.05360999999994 309.70000000000005,321.0571499999999 310.49999,321.4999899999999 C 311.29998,321.9428299999999 312.20000000000005,321.9999899999999 313.1,321.9999899999999 C 313.99999,321.9999899999999 314.79351,322.0964299999999 315.49999,322.4999899999999 C 316.29738000000003,322.9554999999999 317.32149000000004,322.9999899999999 318.02083000000005,322.9999899999999 C 318.99999,322.9999899999999 319.82677000000007,322.8486499999999 320.83333000000005,323.1666499999999 C 321.54405,323.3911699999999 322.32396000000006,323.8643999999999 323.21065000000004,324.0253199999999 C 324.20302000000004,324.2054299999999 324.78331000000003,324.4760299999999 325.59999000000005,324.7159899999999 C 326.58382000000006,325.0050499999999 327.39998,324.99772999999993 328.39998,324.9999899999999 C 329.20000000000005,325.0017899999999 330.19982000000005,324.9999899999999 330.97914000000003,324.9999899999999 C 331.97847,324.9999899999999 332.79866000000004,324.9999899999999 333.75716000000006,324.9999899999999 C 334.65267000000006,324.9999899999999 335.51598000000007,324.9999899999999 336.47914000000003,324.9999899999999 C 337.29997000000003,324.9999899999999 338.20131000000003,324.9999899999999 339.16664000000003,324.9999899999999 C 339.99998000000005,324.9999899999999 340.99132000000003,324.90647999999993 341.75264000000004,325.0571499999999 C 342.68190000000004,325.2410499999999 343.31664000000006,325.76548999999994 344.24281,325.9428299999999 C 345.18458000000004,326.1231599999999 346.10014,325.9999899999999 346.88533,325.9999899999999 C 347.82533,325.9999899999999 348.83339,325.9913499999999 349.58931,325.9999899999999 C 350.50017,326.01042999999993 351.20628,326.5352699999999 352.10014,326.8784999999999 C 352.84169,327.16322999999994 353.82533,326.9999899999999 354.51597000000004,326.9999899999999 C 355.49998000000005,326.9999899999999 356.48399000000006,326.9999899999999 357.3473,326.9999899999999 C 358.24281,326.9999899999999 359.2013,326.9999899999999 359.88532000000004,326.9999899999999 C 360.82532000000003,326.9999899999999 361.83332,326.9999899999999 362.62531,326.9999899999999 C 363.48398000000003,326.9999899999999 364.34729,326.9999899999999 365.36399,326.9999899999999 C 366.29996,326.9999899999999 367.2013,326.9999899999999 367.88532,326.9999899999999 C 368.82532,326.9999899999999 369.83331999999996,326.9999899999999 370.69547,326.9999899999999 C 371.59998,326.9999899999999 372.49997,326.9999899999999 373.39997,326.9999899999999 C 374.30448,326.9999899999999 375.16663,326.9999899999999 376.02082,326.9999899999999 C 376.99998,326.9999899999999 377.78931,326.9999899999999 378.51466,326.9999899999999 C 379.58931,326.9999899999999 380.49998,326.9999899999999 381.39997,326.9999899999999 C 382.20264,326.9999899999999 382.97065,326.9999899999999 384.0098,326.9999899999999 C 384.78531,326.9999899999999 385.83331999999996,326.9999899999999 386.5383,326.9999899999999 C 387.51331,326.9999899999999 388.47913,326.9999899999999 389.39995999999996,326.9999899999999 C 390.29994999999997,326.9999899999999 391.19998,326.9999899999999 392.09997,326.9999899999999 C 392.99996,326.9999899999999 393.79994999999997,326.9999899999999 394.69998,326.9999899999999 C 395.59997,326.9999899999999 396.41064,326.9999899999999 397.32129,326.9999899999999 C 398.17462,326.9999899999999 399.11597,326.9999899999999 399.88397,326.9999899999999 C 400.82532,326.9999899999999 401.83331,326.9999899999999 402.6253,326.9999899999999 C 403.48397,326.9999899999999 404.35397,326.8931199999999 405.37462999999997,327.0106699999999 C 406.33806999999996,327.12162999999987 406.97988999999995,327.5554099999999 407.83331,327.8333299999999 C 408.6792,328.10877999999985 409.46306999999996,328.5735299999999 410.29994999999997,328.9473099999999 C 411.07197999999994,329.2920999999999 411.43742999999995,329.9765499999999 412.05263999999994,330.6428099999999 C 412.5898399999999,331.2245999999999 413.67427999999995,330.8769099999999 414.51595999999995,331.0853099999999 C 415.40673999999996,331.30588999999986 416.03283999999996,332.1913899999999 416.63595999999995,332.5639799999999 C 417.41812999999996,333.0471599999999 418.40448,333.0526599999999 419.39730999999995,333.2826399999999 L 420.12796,333.5386499999999" fill="none" id="svg_4" stroke="#000" stroke-width="2"/>
</svg>
