<?xml version="1.0" ?>
<svg baseProfile="full" height="480" version="1.1" width="640" xmlns="http://www.w3.org/2000/svg" xmlns:ev="http://www.w3.org/2001/xml-events" xmlns:xlink="http://www.w3.org/1999/xlink">
	<defs/>
	<path d="M 322.0,352.0 C 322.0,359.479 322.0,360.11865 322.0,360.75635 C 322.0,361.396 322.0,362.69733 322.0,363.36701 C 322.0,364.05466 322.0,365.50001 322.0,366.26349 C 322.0,367.04801 322.0,367.84451 322.0,368.64401 C 322.0,369.4375 322.0,370.216 322.0,370.97049 C 322.0,371.69199 322.0,373.57034 322.0,374.539 C 322.0,375.29166 321.99121,376.03222999999997 321.85599,376.108 C 321.04630000000003,376.5618 320.55564000000004,377.08539 319.79166000000004,377.54165 C 319.34763000000004,377.80682 318.29697000000004,378.35586 317.00000000000006,378.83334 C 316.2782000000001,379.09909000000005 315.48956000000004,379.32318000000004 314.65250000000003,379.53384 C 313.77622,379.75439 312.85602000000006,379.94769 311.90000000000003,380.11734 C 310.91764,380.29166000000004 309.90995000000004,380.45822000000004 307.83335000000005,380.66666000000004 C 306.78062000000006,380.77234000000004 305.7203400000001,380.83625000000006 304.66083000000003,380.88568000000004 C 303.60697000000005,380.93487000000005 302.56256,380.96222000000006 301.53333000000003,380.97867 C 300.52424,380.99478000000005 299.54001000000005,380.99832000000004 297.66666000000004,381.0 C 296.78635,381.00079 295.94397000000004,380.99939 295.13767,381.009 C 294.3653,381.01822000000004 293.62467000000004,381.03482 292.91468000000003,381.07199 C 292.23197000000005,381.10773 291.57127,381.13797000000005 290.33335000000005,381.33334 C 289.7396600000001,381.42703 289.1643700000001,381.56396 288.59635000000003,381.70532000000003 C 288.02833000000004,381.84668000000005 287.45930000000004,382.00369 286.87733000000003,382.14932000000005 C 286.28129,382.29846000000003 285.66673000000003,382.46484000000004 284.33335000000005,382.66665000000006 C 283.61744000000004,382.77502000000004 282.86701000000005,382.83630000000005 282.09833000000003,382.89465000000007 C 281.32031,382.9537000000001 280.54148000000004,382.99728000000005 279.77335000000005,383.05066000000005 C 279.02481000000006,383.10269000000005 278.30075000000005,383.12656000000004 277.00000000000006,383.3333400000001 C 276.42667000000006,383.4245000000001 275.9186700000001,383.56799000000007 275.06934000000007,383.8506700000001 L 274.4440000000001,384.1493200000001 L 273.8768300000001,384.8856800000001" fill="none" id="svg_4" stroke="#000" stroke-width="2"/>
</svg>
