<?xml version="1.0" ?>
<svg baseProfile="full" height="480" version="1.1" width="640" xmlns="http://www.w3.org/2000/svg" xmlns:ev="http://www.w3.org/2001/xml-events" xmlns:xlink="http://www.w3.org/1999/xlink">
	<defs/>
	<path d="M 256.0,166.0 C 257.42532,164.744 258.18048,164.93942 259.01733,165.31467 C 259.47180000000003,165.51845 260.84008,166.32383000000002 261.27899,166.64284 C 262.17047,167.29082 262.59418,167.66361 263.04165,168.02083000000002 C 263.96325,168.75655 264.43142,169.15254000000002 265.49999,169.83333000000002 C 266.63128,170.55408000000003 267.26513,170.85092000000003 267.89733,171.17467000000002 C 268.53979000000004,171.50366000000002 269.19659,171.82415000000003 269.85631,172.15267000000003 C 270.51927,172.48281000000003 271.83599,173.16190000000003 272.47865,173.52134000000004 C 273.11866000000003,173.87928000000005 274.37465000000003,174.62534000000005 274.99998,175.00001000000003 C 275.62532,175.37467000000004 276.24925,175.75323000000003 276.88398,176.11601000000005 C 278.15992,176.84524000000005 278.81870000000004,177.18353000000005 279.48399,177.51335000000006 C 280.1501,177.84357000000006 280.82347,178.15753000000007 281.49998,178.45834000000005 C 282.1728,178.75750000000005 283.51270999999997,179.32167000000004 284.83332,179.83334000000005 C 285.4766,180.08258000000004 286.11152000000004,180.31590000000006 286.73380000000003,180.54284000000004 C 287.93662,180.98153000000005 288.51874000000004,181.18548000000004 289.08115000000004,181.39550000000003 C 290.67075000000006,181.98911000000004 291.15952000000004,182.19483000000002 292.09464,182.60001000000003 C 292.55042000000003,182.79749000000004 293.447,183.20844000000002 294.36799,183.60001000000003 C 295.3296,184.00885000000002 296.3675,184.40129000000002 296.90531000000004,184.60001000000003 C 297.45014000000003,184.80132000000003 298.54981000000004,185.19869000000003 299.09464,185.40000000000003 C 299.63245,185.59872000000004 301.15851000000004,186.19665000000003 302.09015000000005,186.59551000000005 C 302.53931000000006,186.78780000000006 303.40814000000006,187.18055000000004 304.28262000000007,187.51467000000005 C 305.1604300000001,187.85006000000004 306.0814200000001,188.12452000000005 307.0253000000001,188.36400000000006 C 307.4987500000001,188.48412000000008 308.4481200000001,188.69180000000006 309.8333100000001,189.00000000000006 C 310.2789000000001,189.09914000000006 311.1525200000001,189.29068000000007 311.9999700000001,189.54167000000007 C 312.8583100000001,189.79588000000007 313.30133000000006,189.93165000000008 314.62180000000006,190.54300000000006 C 315.5795600000001,190.98642000000007 316.0576500000001,191.27136000000007 316.5624700000001,191.54167000000007 C 317.61951000000005,192.10766000000007 318.1667800000001,192.41287000000005 319.3333100000001,193.00000000000006 C 319.9403000000001,193.30551000000006 320.5693900000001,193.60403000000005 321.8719800000001,194.21066000000005 C 322.54099000000014,194.52221000000006 323.2221100000001,194.83429000000004 323.9089700000001,195.15716000000003 C 324.6034600000001,195.48361000000003 326.00177000000014,196.16311000000005 326.70032000000015,196.52166000000003 C 327.40448000000015,196.88309000000004 328.1101400000002,197.25950000000003 328.82129000000015,197.64666000000003 C 329.5428200000001,198.03948000000003 330.27243000000016,198.44584000000003 331.01431000000014,198.86166000000003 C 331.77108000000015,199.28582000000003 333.33307000000013,200.16708000000003 334.14297000000016,200.62150000000003 C 334.9703900000002,201.08575000000002 335.8141400000002,201.55741000000003 336.6719600000002,202.03599000000003 C 337.5414700000002,202.52108000000004 338.4212300000002,203.01080000000002 339.3089500000002,203.50450000000004 C 340.2025700000002,204.00146000000004 342.00011000000023,204.99971000000002 342.90062000000023,205.50050000000005 C 343.8054400000002,206.00370000000004 344.71858000000026,206.51237000000003 345.64262000000025,207.03199000000004 C 346.58393000000024,207.56133000000003 347.54499000000027,208.10618000000002 348.52861000000024,208.67149000000003 C 349.54234000000025,209.25412000000003 351.66820000000024,210.49734000000004 352.78630000000027,211.16499000000005 C 353.94560000000024,211.85725000000005 355.13985000000025,212.58137000000005 356.36528000000027,213.33999000000006 C 357.6272700000003,214.12126000000006 358.91759000000025,214.93539000000007 360.2322800000003,215.78500000000005 C 361.57899000000026,216.65530000000004 364.3362800000003,218.49566000000004 365.7431100000003,219.46434000000005 C 367.17499000000026,220.45026000000004 368.6194200000003,221.46608000000006 370.0826200000003,222.49733000000006 C 371.56309000000033,223.54076000000006 373.0556100000003,224.59837000000007 374.5661100000003,225.65633000000005 C 376.08628000000033,226.72107000000005 379.1632800000003,228.83829000000006 380.7207700000003,229.87818000000004 C 382.2766500000003,230.91698000000005 383.8373800000003,231.93651000000006 385.3932900000003,232.94268000000005 C 386.9357400000003,233.94015000000005 388.4663800000003,234.91772000000006 389.9757800000003,235.88117000000005 C 391.45970000000034,236.82837000000006 394.33522000000033,238.66370000000006 395.7139400000003,239.55750000000006 C 397.06050000000033,240.43044000000006 398.37507000000033,241.29355000000007 399.65596000000033,242.16001000000006 C 400.92036000000036,243.01531000000006 402.16289000000035,243.87888000000007 403.3819400000003,244.76250000000005 C 404.60026000000033,245.64559000000006 407.0058400000003,247.49271000000005 408.1992900000003,248.46350000000004 C 409.4005800000003,249.44069000000005 410.5838400000003,250.44228000000004 411.7572700000003,251.44400000000005 C 412.9184900000003,252.43530000000004 414.05366000000026,253.41869000000005 415.1712700000003,254.37050000000005 C 416.25638000000026,255.29463000000004 418.32786000000027,257.00696000000005 419.3141200000003,257.77182000000005 C 420.2548200000003,258.50134 421.1754800000003,259.17990000000003 422.0666200000003,259.83734000000004 C 422.9371300000003,260.47955 423.79828000000026,261.10947000000004 424.63910000000027,261.75882 C 425.4850500000003,262.41214 427.1760000000003,263.82309000000004 428.0211200000003,264.60751 C 428.8924300000003,265.41623 429.7560100000003,266.27823 430.6146000000003,267.17999 C 431.48722000000026,268.09648999999996 432.3454300000003,269.04738999999995 433.19010000000026,270.02248999999995 C 434.0375100000003,271.00073 435.6732500000003,272.99477999999993 436.45679000000024,274.00048999999996 C 437.23459000000025,274.99884 437.98923000000025,276.00765999999993 438.7172900000002,277.03200999999996 C 439.44562000000025,278.05672999999996 440.15192000000025,279.10202 440.8337800000002,280.17150999999996 C 441.5214000000002,281.25005999999996 442.8411700000002,283.49566999999996 443.4787700000002,284.66416 C 444.1253200000002,285.849 444.75303000000025,287.06187 445.3852900000002,288.28666 C 446.0220700000002,289.52020999999996 446.65595000000025,290.76283 447.30979000000025,291.99917999999997 C 447.96396000000027,293.23618 449.32249000000024,295.67315999999994 450.04261000000025,296.85632999999996 C 450.75730000000027,298.03054999999995 451.49732000000023,299.17301 452.25062000000025,300.28534999999994 C 452.99217000000027,301.3803199999999 453.74369000000024,302.43875999999995 454.49461000000025,303.46234999999996 C 455.22651000000025,304.46 456.66520000000025,306.33444999999995 457.35612000000026,307.21417999999994 C 458.02125000000024,308.0610699999999 458.6685000000003,308.87170999999995 459.2746100000003,309.6666599999999 C 459.8593300000003,310.4335699999999 460.4119700000003,311.1844499999999 460.90513000000027,311.9391799999999 C 461.3837100000003,312.6715999999999 462.1875400000003,314.1579599999999 462.4924400000003,314.9215099999999 C 462.7942600000003,315.6773099999999 463.02894000000026,316.4533999999999 463.21995000000027,317.2359899999999 C 463.41065000000026,318.0173599999999 463.5541500000003,318.8094799999999 463.6774400000003,319.6044899999999 C 463.80085000000025,320.4002099999999 463.9982700000003,322.00020999999987 464.1004400000003,322.7994999999999 C 464.20228000000026,323.5962199999999 464.3066200000003,324.3875699999999 464.43195000000026,325.1679999999999 C 464.55570000000023,325.9385999999999 464.70795000000027,326.6919899999999 464.87143000000026,327.4284999999999 L 465.05594000000025,328.1440199999999" fill="none" id="svg_4" stroke="#000" stroke-width="2"/>
</svg>
