<?xml version="1.0" ?>
<svg baseProfile="full" height="480" version="1.1" width="640" xmlns="http://www.w3.org/2000/svg" xmlns:ev="http://www.w3.org/2001/xml-events" xmlns:xlink="http://www.w3.org/1999/xlink">
	<defs/>
	<path d="M 307.0,198.0 C 304.14316,205.257 303.95291,205.82448 303.68268,206.92799 C 303.55335,207.45615999999998 303.35532,208.48944 303.288,208.99733 C 303.08930000000004,210.49658 303.07538,211.00357 303.03602,212.032 C 303.01573,212.56233 303.00324,213.6715 303.00135,214.256 C 302.99732,215.5 303.00001,216.85201 303.00001,217.558 C 303.00001,218.27599999999998 303.00001,219.0 303.00001,219.724 C 303.00001,220.44199999999998 303.00001,221.148 303.00001,222.5 C 303.00001,223.74533 303.00001,224.33299 303.00001,225.45833 C 303.00001,226.004 302.99902999999995,227.08132999999998 303.00001,228.16666999999998 C 303.00052999999997,228.72249999999997 303.01649,229.88488999999998 303.06401,230.49999999999997 C 303.11397,231.14676999999998 303.20061,231.82953999999998 303.343,232.54749999999999 C 303.49556,233.31679 303.98634000000004,235.00495999999998 304.32817,235.92766999999998 C 304.6909,236.90679999999998 305.11455,237.90958999999998 305.56267,238.93066 C 306.01485,239.96097999999998 306.48381,240.9761 306.94118000000003,241.96965999999998 C 307.38115000000005,242.92541999999997 308.17232,244.66427 308.49303000000003,245.42831999999999 C 308.78246,246.11785999999998 309.02892,246.75119999999998 309.25203000000005,247.33332 C 309.4594900000001,247.87455999999997 309.65031000000005,248.3884 309.84901,248.87831999999997 C 310.04509,249.36174999999997 310.49394,250.33652999999998 310.76417000000004,250.84282999999996 C 311.04704000000004,251.37276999999997 311.36021000000005,251.91116999999997 311.68669000000006,252.46132999999998 C 312.35533000000004,253.58809999999997 312.7041500000001,254.14891999999998 313.03334000000007,254.71732999999998 C 313.67644000000007,255.82772999999997 314.2354000000001,256.91763 314.50819000000007,257.45183999999995 C 314.7807400000001,257.9856199999999 315.35057000000006,259.06612999999993 315.67683000000005,259.60982999999993 C 316.0156400000001,260.17443999999995 316.8242000000001,261.34056999999996 317.30683000000005,261.9421699999999 C 317.81187000000006,262.5717199999999 318.3620700000001,263.1971099999999 318.93735000000004,263.81866999999994 C 319.51511000000005,264.44287999999995 320.1052,265.0455099999999 320.69385000000005,265.62316999999996 C 321.26135000000005,266.18004999999994 322.32855000000006,267.17211999999995 322.8140000000001,267.59268 C 323.6630600000001,268.32831 324.4196800000001,268.91281 325.0820100000001,269.43465999999995 C 326.00425000000007,270.16130999999996 326.5959900000001,270.68886999999995 327.2106700000001,271.2146599999999 C 327.8306700000001,271.7449899999999 328.4501100000001,272.29302999999993 329.5218300000001,272.85732999999993 C 330.2449400000001,273.23806999999994 330.6562600000001,273.3523599999999 331.4826800000001,273.65065999999996 C 332.37086000000005,273.97124999999994 333.33528000000007,274.32875999999993 334.3693400000001,274.76530999999994 C 334.91084000000006,274.99391999999995 335.4536300000001,275.24916999999994 336.5853400000001,275.6773299999999 C 337.1481800000001,275.8902799999999 337.6986800000001,276.16493999999994 339.3785200000001,276.41414999999995 C 339.9108100000001,276.49312999999995 340.96467000000007,276.47691999999995 341.47917000000007,276.43749999999994 C 342.49730000000005,276.35946999999993 343.99946000000006,276.16024999999996 344.49986000000007,276.12148999999994 C 345.4946100000001,276.0444299999999 345.98915000000005,276.02813999999995 346.96400000000006,276.0106799999999 C 347.91459000000003,275.99364999999995 349.27833000000004,275.99999999999994 349.7133600000001,275.99999999999994 C 350.55336000000005,275.99999999999994 351.35334000000006,275.99999999999994 352.8333600000001,275.99999999999994 C 353.5160100000001,275.99999999999994 354.1746700000001,275.99999999999994 355.1527000000001,275.99999999999994 C 356.1666800000001,275.99999999999994 356.88668000000007,275.99999999999994 357.6466900000001,275.99999999999994 C 358.4466800000001,275.99999999999994 359.28674000000007,276.01195999999993 360.6217000000001,275.99932999999993 C 361.56182000000007,275.9904199999999 362.0502900000001,275.98824999999994 363.04669000000007,275.8559899999999 C 363.5640900000001,275.7873299999999 365.17221000000006,275.3467999999999 365.7215300000001,275.1140199999999 C 366.2914500000001,274.87249999999995 367.4360400000001,274.2560199999999 368.0208800000001,273.9166599999999 L 368.6106900000001,273.55734999999993 L 369.2045300000001,273.18200999999993 L 369.8013600000001,272.7946799999999" fill="none" id="svg_4" stroke="#000" stroke-width="2"/>
</svg>
