<?xml version="1.0" ?>
<svg baseProfile="full" height="480" version="1.1" width="640" xmlns="http://www.w3.org/2000/svg" xmlns:ev="http://www.w3.org/2001/xml-events" xmlns:xlink="http://www.w3.org/1999/xlink">
	<defs/>
	<path d="M 203.0,69.0 C 189.82249,74.71384 189.18666,74.95601 188.53999,75.64533 C 187.97374,76.24893 187.83543,77.3931 188.5,78.0 C 188.97214,78.43116 189.78212,78.62465 190.83333,78.83334 C 191.7655,79.01840000000001 192.45266999999998,78.99775000000001 193.68534,79.0 C 194.236,79.00101 195.10451,79.0 196.29967,79.0 C 197.17866999999998,79.0 197.98567,79.0 198.85733,79.0 C 199.80533,79.0 200.76801,79.0 201.5,79.0 C 202.23199,79.0 203.42552,79.1993 204.2,78.712 C 204.81722,78.32364 205.19503999999998,77.22796000000001 205.52083,76.47917000000001 C 205.75269999999998,75.94621000000001 206.31385999999998,74.91618000000001 206.81466999999998,74.23601000000001 C 207.28337,73.59945 207.89504999999997,72.60952 207.97866999999997,71.80001000000001 C 208.08144999999996,70.80508000000002 207.99999999999997,70.00001000000002 207.99999999999997,69.00001000000002 C 207.99999999999997,68.21068000000001 207.99999999999997,67.48535000000001 207.99999999999997,66.52085000000002 C 207.99999999999997,65.58935000000002 208.21430999999998,64.63042000000003 207.92798999999997,63.86135000000002 C 207.63077999999996,63.06301000000002 206.59099999999998,63.00902000000002 205.60132999999996,63.00002000000002 L 204.83598999999995,63.00002000000002 L 203.88398999999995,63.00002000000002" fill="none" id="svg_4" stroke="#000" stroke-width="2"/>
</svg>
