<?xml version="1.0" ?>
<svg baseProfile="full" height="480" version="1.1" width="640" xmlns="http://www.w3.org/2000/svg" xmlns:ev="http://www.w3.org/2001/xml-events" xmlns:xlink="http://www.w3.org/1999/xlink">
	<defs/>
	<path d="M 296.0,190.0 C 303.31732,191.82933 304.0,191.82001 304.0,190.89349 C 304.0,190.24116 304.01782,189.16243 304.0,188.50534000000002 C 303.98425,187.92419 303.40375,187.65544000000003 302.45016,187.11484000000002 C 302.00847999999996,186.86444 300.99322,186.30435000000003 300.4375,186.02083000000002 C 299.87189,185.73226000000003 298.75446,185.15299000000002 297.66666,184.83333000000002 C 296.76171999999997,184.56742000000003 295.90209999999996,184.28566 295.14667,184.66533 C 294.4412,185.01988 294.85312,186.16495 294.91468,186.98534 C 294.9874,187.95453 294.98535999999996,188.45824000000002 294.99552,189.41701 C 295.00699,190.49996000000002 295.53596,190.82718 296.32868,191.12818000000001 C 297.16614000000004,191.44617000000002 297.58878000000004,191.77412 298.59202000000005,192.28400000000002 C 299.10972000000004,192.54711000000003 300.66026000000005,193.19489000000002 301.15635000000003,193.29267000000002 C 302.05897000000004,193.47059000000002 302.88465,193.47329000000002 303.85600000000005,193.27868 C 304.80192000000005,193.08917 305.33757,192.57592 305.8851700000001,191.89350000000002 C 306.4076600000001,191.24236000000002 306.98273000000006,190.52363000000003 307.53217000000006,189.8205 C 308.1708100000001,189.00324 307.91706000000005,188.4948 307.00000000000006,188.16668 C 306.0684800000001,187.83337 305.5623800000001,187.53477 304.99466000000007,187.27334000000002 C 304.3967600000001,186.99801000000002 303.13828000000007,186.44038 302.47733000000005,186.22001000000003 C 301.18097000000006,185.78777000000002 300.52454000000006,185.68084000000002 299.88666000000006,185.62534000000002 C 298.6500900000001,185.51777 298.04102000000006,185.57372 297.44666000000007,185.61734 C 296.28513000000004,185.70258 295.16694000000007,185.83707 294.0880200000001,185.91867000000002 C 293.5662900000001,185.95813 292.5607700000001,186.02837000000002 292.0826800000001,186.09734000000003 C 291.1679800000001,186.22931000000003 289.9088200000001,186.60891000000004 289.2323400000001,187.07151000000002 C 288.58769000000007,187.51235000000003 287.9055600000001,188.0311 287.5858600000001,189.30001000000001 C 287.36561000000006,190.17422000000002 287.6443000000001,190.79351000000003 287.8333600000001,192.00001 C 287.9702600000001,192.87365 287.8065700000001,193.83656 288.1458600000001,193.93751 C 289.2828200000001,194.27578 289.54784000000006,193.22465 290.4956800000001,193.10084 C 291.0400800000001,193.02972 292.2394800000001,192.91975 292.87434000000013,192.8375 C 293.5248800000001,192.75323 294.8435500000001,192.53499 296.1040200000001,192.14934 C 296.7122400000001,191.96323999999998 297.2854500000001,191.75066999999999 298.3013500000001,191.31199999999998 C 298.74123000000014,191.12205999999998 299.77327000000014,190.44590999999997 299.90685000000013,189.77201 C 300.10506000000015,188.7721 300.77077000000014,188.18215 301.0653600000001,187.504 C 301.4151500000001,186.69872999999998 300.6043600000001,186.99774 299.4510100000001,187.0 C 299.0147000000001,187.00085 298.04403000000013,187.0 297.0493700000001,187.0 C 296.5830300000001,187.0 295.1653700000001,187.0 295.9583700000001,187.0 C 296.8333700000001,187.0 297.7588500000001,187.0 298.4791800000001,187.0 L 299.1795300000001,187.0 L 300.3720300000001,187.0" fill="none" id="svg_4" stroke="#000" stroke-width="2"/>
</svg>
