<?xml version="1.0" ?>
<svg baseProfile="full" height="480" version="1.1" width="640" xmlns="http://www.w3.org/2000/svg" xmlns:ev="http://www.w3.org/2001/xml-events" xmlns:xlink="http://www.w3.org/1999/xlink">
	<defs/>
	<path d="M 437.0,269.0 C 438.70001,269.0 439.61963,268.99805 440.39999,269.42532 C 441.22259,269.8757 442.16058,269.80182 443.0,270.16665 C 443.68457,270.4642 444.21674,271.42617 445.0,271.83334 C 445.74384,272.22003 446.60797,272.58929 446.97467,273.39999 C 447.32889,274.18304 447.80966,274.87997 448.29999,275.64816 C 448.70696999999996,276.28576000000004 449.59909,276.81796 450.2955,277.35717 C 450.95822,277.87029 451.26297,278.78478 452.0,279.16665 C 452.75397,279.55728 453.69977,279.8695 453.98932,280.61065 C 454.33667,281.49969000000004 454.75897000000003,281.96722 455.40000000000003,282.43600000000004 C 456.17869,283.00546 456.42979,283.83044 457.02534,284.56399000000005 C 457.55271000000005,285.21356000000003 458.40882000000005,285.42681000000005 459.10002000000003,286.1 C 459.70790000000005,286.69204 460.44264000000004,287.36559 460.87868000000003,288.09982 C 461.34490000000005,288.88488 461.99129000000005,289.33999 462.50002,290.0 C 463.0898,290.76517 463.837,291.33249 464.00002,292.02084 C 464.22655000000003,292.97729000000004 464.65871,293.74475 465.30001,294.2955 C 466.05096,294.9404 466.78481,295.26297 467.16668,296.0 C 467.55731,296.75397 468.15502,297.43356 468.64736,298.05267 C 469.16206999999997,298.69995 469.05718,299.70000999999996 469.50002,300.5 C 469.94286,301.29999 469.81948,302.30066 470.28402,302.91599 C 470.7998,303.59922 470.99993,304.29999000000004 471.00002,305.20002 C 471.00011,306.10001 471.22332,306.96519 471.5747,307.60001 C 472.06176,308.47995 471.80712,309.35305999999997 472.03603,310.13868 C 472.30744999999996,311.07023000000004 473.29552,311.35719 473.87852999999996,312.10001 L 474.00001999999995,313.0 L 474.08534999999995,313.79999" fill="none" id="svg_5" stroke="#000" stroke-width="2"/>
</svg>
