<?xml version="1.0" ?>
<svg baseProfile="full" height="480" version="1.1" width="640" xmlns="http://www.w3.org/2000/svg" xmlns:ev="http://www.w3.org/2001/xml-events" xmlns:xlink="http://www.w3.org/1999/xlink">
	<defs/>
	<path d="M 307.0,235.0 C 307.99866,235.88667 307.98843,236.82542 308.0,237.51601 C 308.01801,238.5898 308.55334,239.3545 308.83334,240.16667999999999 C 309.11575000000005,240.98587999999998 309.0,242.00000999999997 309.0,242.82134 C 309.0,243.51433 309.0,244.64318 309.0,245.31884 C 309.0,246.06251 309.0,246.86616999999998 309.0,248.16667999999999 C 309.0,249.08001 309.0,249.99334 309.0,250.43750999999997 C 309.0,251.27584 309.0,252.61433999999997 309.0,253.45833999999996 C 309.0,254.33333999999996 309.0,255.27200999999997 309.0,256.10902 C 309.0,257.00001 309.0,257.89099999999996 309.0,258.72801 C 309.0,259.66667 309.0,260.50001 309.0,261.54267999999996 C 309.0,262.25068999999996 309.0,262.99467999999996 309.0,264.18568999999997 C 309.0,265.10002999999995 309.0,266.00001999999995 309.0,266.80001 C 309.0,267.70002999999997 309.00272,268.62005 308.57468,269.40002 C 308.12372,270.22177 307.66892,270.8143 306.9,271.22137 C 306.14248999999995,271.62239999999997 305.40006,271.99469 304.50001,272.00003 C 303.60004999999995,272.00536999999997 302.58061,272.16141 301.9,271.55737 C 301.25253999999995,270.98275 300.55442,270.36208999999997 300.12149999999997,269.55719 C 299.76588,268.89603 300.17593999999997,267.83297999999996 299.83335,267.00003 C 299.508,266.20894999999996 298.82319,265.50570999999997 298.516,264.94403 C 298.16285,264.29834 297.80702,263.57587 297.48402000000004,262.79602 C 296.99354000000005,261.61179 296.74781,260.81747 296.54167000000007,260.06253 C 296.26817000000005,259.06088 296.08403000000004,258.05602999999996 295.91600000000005,257.20403999999996 L 295.50001000000003,256.50003" fill="none" id="svg_4" stroke="#000" stroke-width="2"/>
</svg>
