<?xml version="1.0" ?>
<svg baseProfile="full" height="480" version="1.1" width="640" xmlns="http://www.w3.org/2000/svg" xmlns:ev="http://www.w3.org/2001/xml-events" xmlns:xlink="http://www.w3.org/1999/xlink">
	<defs/>
	<path d="M 403.5,260.89999 C 403.216,264.15332 403.14572,264.56222 403.0,265.42083 C 402.85098,266.29888 402.65744,267.56573000000003 402.58401,268.32934 C 402.51689999999996,269.02725 402.49453,269.99853 402.27864999999997,271.19982 C 402.17076999999995,271.80019 401.88061,272.65416999999997 401.66664999999995,273.73332999999997 C 401.52791999999994,274.43316 401.5006599999999,275.41331999999994 401.49998999999997,276.26399999999995 C 401.49926,277.19999999999993 401.49998999999997,278.09999999999997 401.49998999999997,278.99998999999997 C 401.49998999999997,279.89997999999997 401.49998999999997,280.7 401.49998999999997,281.59999999999997 C 401.49998999999997,282.53599999999994 401.49998999999997,283.38399999999996 401.49998999999997,284.24733999999995 C 401.49998999999997,285.14732999999995 401.49998999999997,286.06667999999996 401.49998999999997,286.92082999999997 C 401.49998999999997,287.89998999999995 401.44163999999995,288.7095 401.58531999999997,289.49998999999997 C 401.76989,290.51530999999994 402.14827999999994,291.28193999999996 402.70000999999996,292.01466999999997 C 403.24728,292.74150999999995 403.91759999999994,293.28279999999995 404.59981999999997,293.99998999999997 C 405.15756,294.58631999999994 405.37924,295.46605 405.86166,296.20448999999996 C 406.28988,296.85994999999997 407.12915,297.57444999999996 407.67465,298.03865999999994 C 408.44705,298.69597999999996 409.34893999999997,298.91096999999996 410.0,299.4208299999999 C 410.76788,300.02217999999993 411.36133,300.64537999999993 411.88934,301.2999799999999 C 412.4902,302.0449399999999 412.32998,303.0488799999999 412.66665,303.8999899999999 C 412.9446,304.6026599999999 413.39929,305.3880599999999 413.52532,306.1106499999999 C 413.6986,307.1040899999999 413.97378000000003,307.9073099999999 414.49999,308.7333299999999 C 414.94109000000003,309.4257399999999 415.42891000000003,310.21629999999993 415.48931000000005,311.0746699999999 C 415.55529000000007,312.01240999999993 415.50014000000004,312.9998399999999 415.72134000000005,313.7786499999999 L 416.44284000000005,314.2571699999999 L 416.50134,315.09865999999994" fill="none" id="svg_4" stroke="#000" stroke-width="2"/>
</svg>
