<?xml version="1.0" ?>
<svg baseProfile="full" height="480" version="1.1" width="640" xmlns="http://www.w3.org/2000/svg" xmlns:ev="http://www.w3.org/2001/xml-events" xmlns:xlink="http://www.w3.org/1999/xlink">
	<defs/>
	<path d="M 178.0,154.0 C 178.0,155.0 178.0,155.75717 178.0,156.65266 C 178.0,157.516 177.9977,158.47917 178.0,159.39999 C 178.00226,160.30001000000001 178.35942,161.15232 178.716,161.8 C 179.19149000000002,162.66366000000002 179.82838,163.16841000000002 180.084,163.88667 C 180.41888,164.82765 180.65703,165.5354 181.0,166.47917 C 181.30576,167.32051 182.0,168.0 182.5,168.5 C 183.2,169.2 183.8,169.8 184.39999,170.39999 C 185.1,171.1 185.65658,171.74719 186.3,172.2955 C 187.05349,172.93762 187.97216,173.21097 188.60000000000002,173.57466 C 189.36985,174.02062999999998 190.39312,173.79793 191.19866000000002,174.28534 C 191.82299,174.6631 192.2255,175.54192 192.87865000000002,176.22133 C 193.43604000000002,176.80113 193.98198000000002,177.43544 193.99999000000003,178.29999999999998 C 194.01873000000003,179.19979999999998 193.99999000000003,180.10017 193.99999000000003,180.88532999999998 C 193.99999000000003,181.82532999999998 193.99999000000003,182.83333 193.99999000000003,183.62534 C 193.99999000000003,184.48399999999998 194.22373000000002,185.37706 193.99549000000002,186.23833 C 193.77585000000002,187.06710999999999 193.11207000000002,187.72245999999998 192.94732000000002,188.35183999999998 C 192.67165000000003,189.40496 192.10297000000003,190.15801 192.02082000000001,190.99999999999997 C 191.92577000000003,191.97408999999996 192.01022,192.69555999999997 191.99999000000003,193.60000999999997 C 191.98957000000001,194.52101999999996 191.69819000000004,195.47677999999996 191.42533000000003,196.17466999999996 C 191.06133000000003,197.10564999999997 190.99999000000003,197.99999999999997 190.99999000000003,198.80000999999996 C 190.99999000000003,199.69999999999996 191.10222000000002,200.60803999999996 190.97916000000004,201.52083999999996 C 190.86890000000002,202.33867999999995 190.32567000000003,203.14377999999996 190.12149000000002,203.97850999999997 C 189.87707000000003,204.97774999999996 189.99998000000002,205.80000999999996 189.99998000000002,206.70000999999996 C 189.99998000000002,207.60001999999997 189.99998000000002,208.50000999999997 189.99998000000002,209.40000999999995 C 189.99998000000002,210.30001999999996 189.99998000000002,211.10018999999994 189.99998000000002,211.88534999999996 C 189.99998000000002,212.82534999999996 189.99998000000002,213.83334999999997 189.99998000000002,214.69551999999996 C 189.99998000000002,215.60002999999995 189.93753,216.43075999999996 190.22131000000002,217.32135999999997 C 190.44406,218.02037999999996 190.75889,219.01820999999998 191.08398000000003,219.79868999999997 C 191.40850000000003,220.57781999999997 192.14192000000003,221.29947999999996 192.47915000000003,222.00002999999995 C 192.93759000000003,222.95234999999994 193.05189000000004,223.69594999999995 193.49998000000002,224.50002999999995 C 193.95105,225.30945999999994 194.14184000000003,225.98504999999994 194.56797000000003,226.76803999999996 C 194.97428000000002,227.51460999999995 195.44527000000002,228.22572999999997 195.89465000000004,229.19019999999995 C 196.34677000000005,230.16054999999994 196.73024000000004,230.64566999999994 197.18531000000004,231.24669999999995 C 197.86459000000005,232.14383999999995 198.24143000000004,232.94879999999995 198.58932000000004,233.73868999999993 C 198.99836000000005,234.66741999999994 199.41461000000004,235.34633999999994 199.88531000000003,235.96802999999994 C 200.48910000000004,236.76551999999995 201.00743000000003,237.51604999999995 201.34732000000002,238.05185999999995 C 201.99293000000003,239.06961999999996 202.35088000000002,239.77889999999994 202.75265000000002,240.39551999999995 C 203.2906,241.22110999999995 203.82363,241.82456999999994 204.46165000000002,242.40001999999996 C 205.38943000000003,243.23680999999996 205.94751000000002,243.61008999999996 206.52081,243.97919999999996 C 207.38731,244.53707999999997 208.29316,244.99427999999997 209.18931,245.36402999999996 C 209.75993,245.59946999999997 210.83923000000001,245.98638999999994 211.54281,246.30002999999996 C 212.40302,246.68349999999995 213.21841,247.06793999999996 214.02081,247.54169999999996 C 214.70192,247.94382999999996 215.42167,248.54300999999995 215.96615,249.00984999999997 C 216.56233,249.52101999999996 217.19145,250.09239999999997 218.33331,250.83334999999997 C 218.73356,251.09306999999995 219.60179000000002,251.55014999999997 220.49998000000002,251.97918999999996 C 220.94760000000002,252.19299999999996 221.84388,252.57501999999997 223.05714000000003,253.19984999999997 C 223.79768000000004,253.58122999999998 224.47042000000002,253.99572999999998 225.14814000000004,254.34285999999997 C 226.15430000000003,254.85820999999999 226.88004000000004,255.12669999999997 227.62531000000004,255.36401999999998 C 228.37090000000003,255.60144999999997 229.12041000000005,255.78343999999998 230.17847000000003,256.10017999999997 C 231.16834000000003,256.39651 231.80986000000004,256.59139 232.99997000000002,257.16668 C 233.61002000000002,257.46157 234.18993000000003,257.82436 235.04280000000003,258.34734 C 235.83388000000002,258.83241999999996 236.55147000000002,259.23997999999995 237.45264000000003,259.75266999999997 C 238.17002000000002,260.16080999999997 238.95850000000004,260.64851 239.49997000000002,261.02085999999997 C 240.32510000000002,261.58826999999997 241.07726000000002,262.20185999999995 241.78531,262.79999999999995 C 242.26027000000002,263.20124999999996 243.32338000000001,264.01631 243.97064,264.39868999999993 C 244.66182,264.8070199999999 245.41417,265.1803699999999 246.20263,265.5146899999999 C 246.99316,265.84989999999993 247.79771,266.1147899999999 248.57864,266.3746799999999 C 249.32837,266.6241899999999 250.67979,267.1442999999999 251.23196000000002,267.4840199999999 C 252.02,267.96884999999986 252.46753,268.4208199999999 253.64264000000003,268.9784999999999 C 254.28717000000003,269.2843799999999 255.00087000000002,269.47629999999987 255.69464000000002,269.6955099999999 C 256.9588,270.0949499999999 257.75140000000005,270.3857299999999 258.44815,270.7571899999999 C 259.44089,271.28642999999994 259.95068,271.6633499999999 260.81064,272.17466999999994 C 261.397,272.52332999999993 262.29141,272.99906999999996 263.19998,273.36402999999996 C 263.79467999999997,273.60292 264.99996999999996,274.00001999999995 265.59997,274.20002999999997 C 266.49996,274.50001999999995 267.10125,274.69617999999997 268.29994999999997,275.10017999999997 C 268.90059999999994,275.3026 269.80882999999994,275.61562 270.39995999999996,275.88536999999997 C 271.62105999999994,276.44258999999994 272.20622999999995,276.83333999999996 272.83595999999994,277.17467999999997 C 273.48088999999993,277.52425999999997 274.5183599999999,277.98645 275.61461999999995,278.37469 C 276.33681999999993,278.63049 277.05995999999993,278.82662 277.9572999999999,279.32135 C 278.7794099999999,279.7746 279.21037999999993,280.24591 280.3333099999999,280.83337 C 280.95107999999993,281.15655 281.6715699999999,281.37585 282.42128999999994,281.62536 C 283.20222999999993,281.88525 284.40358999999995,282.31237 285.19545999999997,282.6527 C 285.98299999999995,282.99114 286.73623,283.36233 287.83331,283.83335999999997 C 288.51336,284.12534999999997 289.18469,284.37629999999996 289.86129,284.62534999999997 C 290.56869,284.88572999999997 291.7438,285.31784999999996 292.60079,285.65268999999995 C 293.48052,285.99643999999995 293.91549000000003,286.16931999999997 294.74663000000004,286.51599999999996 C 295.83858000000004,286.97146999999995 296.69802000000004,287.37451999999996 297.44362000000007,287.6955 C 298.41564000000005,288.11395999999996 299.24129000000005,288.39752999999996 299.8106200000001,288.63599 C 301.0118500000001,289.13912999999997 301.6013900000001,289.48151 302.1999600000001,289.82535 C 303.10212000000007,290.34357 303.9926200000001,290.84952000000004 304.5999500000001,291.11466 C 305.4898400000001,291.50315 306.1001300000001,291.69498 307.3001100000001,292.10016 C 307.90454000000005,292.30423 308.83997000000005,292.62576 309.4852600000001,292.88535 C 310.5282000000001,293.30491 311.2554300000001,293.65638 312.0207800000001,294.0 C 312.8027600000001,294.3511 313.9966100000001,294.84293 314.7986100000001,295.116 C 315.5861200000001,295.38412999999997 316.3718200000001,295.60348999999997 317.11459000000013,295.88401 C 318.19061000000016,296.29037999999997 318.8533600000001,296.6381 319.4582800000001,297.04166 C 320.05398000000014,297.43906 321.0871300000001,298.41393999999997 321.54727000000014,298.95266999999996 C 322.00857000000013,299.49273999999997 322.39923000000016,300.10024999999996 323.4216000000001,301.07848999999993 C 323.9361900000001,301.5708599999999 324.53140000000013,301.99474999999995 325.1615900000001,302.39550999999994 C 326.1512100000001,303.02486999999996 326.8855000000001,303.40337999999997 327.6466100000001,303.81066999999996 C 328.44544000000013,304.23815999999994 328.8661500000001,304.44884999999994 330.16660000000013,305.16666 C 330.62272000000013,305.41843 331.54911000000016,305.95092999999997 332.01462000000015,306.22535 C 332.9406500000002,306.77121999999997 333.3941100000001,307.04087 334.66660000000013,307.83335 C 335.42902000000015,308.30817 336.09952000000015,308.75428 336.7066100000001,309.11735 C 337.65586000000013,309.68504 338.52845000000013,309.91673 339.3212600000001,310.44266999999996 C 340.0530700000001,310.92814 340.49414000000013,311.47227 341.47910000000013,311.97916999999995 C 342.2879400000001,312.39543 342.8783300000001,312.89374999999995 343.4839500000001,313.48267999999996 C 344.1668400000001,314.14673999999997 344.9969500000001,314.71986 345.6252800000001,315.05066999999997 C 346.51294000000007,315.51802 347.0010400000001,316.01973 347.8332900000001,316.83335 C 348.3753400000001,317.36329 349.1515600000001,318.02677 349.8466300000001,318.4 C 350.44947000000013,318.72373 351.4222800000001,319.09695999999997 352.2146100000001,319.4 C 352.99128000000013,319.69703 354.0581200000001,320.16315 354.5786200000001,320.60001 C 355.3461100000001,321.24418 356.22095000000013,322.36356 356.87846000000013,321.77832 C 357.3832200000001,321.32904 356.9999500000001,320.17465 356.9999500000001,319.16666000000004 C 356.9999500000001,318.30451000000005 357.3280400000001,317.32804000000004 356.9791100000001,316.52085000000005 C 356.6704600000001,315.80686000000003 355.94463000000013,315.297 355.4999500000001,314.50001000000003 C 355.05445000000014,313.70152 355.0748400000001,312.78495000000004 354.9146200000001,312.11466 C 354.6822600000001,311.14243 354.3683600000001,310.45377 353.97910000000013,309.50001000000003 C 353.6301300000001,308.64494 352.95984000000016,307.99510000000004 352.48261000000014,307.39869000000004 C 351.85950000000014,306.61997 351.51520000000016,306.00291000000004 350.99994000000015,305.00001000000003 C 350.5955500000002,304.21290000000005 350.36337000000015,303.61149 349.6999500000002,302.75718 C 349.2413900000002,302.16666 348.4578200000002,301.50907 347.8996000000002,300.67817 C 347.5514200000002,300.15995000000004 347.2055700000002,299.468 346.4571000000002,298.35719 C 346.0021100000002,297.68193 345.7393300000002,297.33815 345.2146100000002,296.61467 C 344.68333000000024,295.88216 343.9155100000002,294.82542 343.4571000000002,294.15269 C 343.0150200000002,293.50392 342.5896400000002,292.856 341.9999500000002,291.83335 C 341.5881800000002,291.11927 341.18928000000017,290.35334 340.97911000000016,289.95835 C 340.54280000000017,289.13833999999997 339.83623000000017,287.8317 339.57844000000017,287.37885 C 339.0487800000002,286.4484 338.7733900000002,285.97937 338.18928000000017,285.06135 C 337.9001000000002,284.60685 337.00584000000015,283.32878 336.70011000000017,282.943 C 336.11555000000016,282.20538999999997 335.5169700000002,281.54505 334.95710000000014,280.909 C 334.16114000000016,280.00476 333.6774100000001,279.40583 333.23594000000014,278.79999 C 332.80280000000016,278.20563 332.00089000000014,276.99939 331.6012700000001,276.40268 C 331.2115300000001,275.82070999999996 330.6720100000001,275.00336 330.1666100000001,274.33333999999996 C 329.5592200000001,273.52806999999996 329.2430600000001,272.69338999999997 328.6666100000001,271.99999999999994 C 328.1257800000001,271.34945999999997 327.2766900000001,270.85396999999995 327.0612900000001,270.17464999999993 C 326.7489400000001,269.1895099999999 326.4731200000001,268.4856499999999 325.6786300000001,267.67882999999995 C 325.1837000000001,267.17620999999997 324.63884000000013,266.72986 323.76161000000013,266.10982999999993 C 323.01311000000015,265.58080999999993 322.82994000000014,264.6406799999999 321.9999500000001,264.16664999999995 C 321.52800000000013,263.89708999999993 322.33021000000014,263.90767999999997 323.1746000000001,264.03599999999994 C 324.13481000000013,264.1818999999999 324.4440100000001,264.99314999999996 325.1097800000001,265.64280999999994 C 325.6977300000001,266.21653999999995 326.8831600000001,266.08930999999995 327.4999500000001,266.5416399999999 C 328.2368300000001,267.0820499999999 328.8175200000001,267.84613999999993 329.40446000000014,268.3472999999999 C 330.17652000000015,269.0065399999999 330.75224000000014,269.4438899999999 331.83329000000015,269.8333199999999 C 332.53434000000016,270.0858799999999 333.09342000000015,270.6980999999999 333.80128000000013,271.0839899999999 C 334.53099000000014,271.48178999999993 335.4911300000001,271.8776299999999 336.1746000000001,272.0252999999999 C 337.1275400000001,272.2311699999999 337.8268500000001,272.6483499999999 338.6999600000001,273.0526399999999 C 339.5316900000001,273.4377699999999 340.29856000000007,273.97136999999987 341.1999600000001,273.9999699999999 C 342.0995000000001,274.0284999999999 342.99995000000007,273.9999699999999 343.7999400000001,273.9999699999999 C 344.6359400000001,273.9999699999999 345.7125400000001,274.2358999999999 346.4306200000001,273.9146399999999 C 347.1928000000001,273.5736699999999 347.91622000000007,272.8456699999999 347.9999600000001,271.9999699999999 C 348.0787900000001,271.2038899999999 348.0580700000001,270.3004799999999 348.4999600000001,269.4999699999999 C 348.9437500000001,268.6959799999999 348.9999600000001,267.8333099999999 348.9999600000001,266.9999699999999 C 348.9999600000001,266.0214799999999 348.9999600000001,265.2012899999999 348.9999600000001,264.2999599999999 C 348.9999600000001,263.3639899999999 349.1095200000001,262.50155999999987 348.9428000000001,261.6526499999999 C 348.7607900000001,260.72591999999986 348.15188000000006,260.2437799999999 347.4999600000001,259.4791299999999 C 346.8508200000001,258.7177499999999 346.4967600000001,257.98077999999987 346.1999700000001,257.3986599999999 C 345.6899300000001,256.3982899999999 345.3823400000001,255.7532699999999 344.8333000000001,254.8333099999999 C 344.3584800000001,254.0377299999999 343.99819000000014,253.4860699999999 343.3986400000001,252.6839899999999 C 342.8182900000001,251.9075799999999 342.19436000000013,251.2498799999999 341.65712000000013,250.6044899999999 C 341.00118000000015,249.81644999999992 340.6227900000001,249.2069799999999 340.2012800000001,248.3999799999999 C 339.7869100000001,247.60665999999992 339.3999500000001,246.79998999999992 338.9999600000001,245.9999899999999 C 338.5999700000001,245.1999899999999 338.3164000000001,244.5915899999999 337.7986400000001,243.5999999999999 C 337.3772500000001,242.7929299999999 336.8427700000001,241.99222999999992 336.3518000000001,241.4044899999999 C 335.87045000000006,240.8282299999999 335.2315900000001,240.0254499999999 334.9518100000001,239.2473199999999 C 334.6298500000001,238.35186999999988 334.3590700000001,237.6069199999999 333.6999800000001,236.75715999999989 C 333.2417600000001,236.1663999999999 332.4388700000001,235.54260999999988 332.0526400000001,234.69998999999987 C 331.70019000000013,233.93107999999987 331.27908000000014,233.25374999999988 330.79995000000014,232.51732999999987 C 330.28198000000015,231.72122999999988 329.34490000000017,231.24188999999987 329.02081000000015,230.47916999999987 C 328.68112000000013,229.67978999999985 329.43033000000014,229.11345999999986 330.05264000000017,229.64733999999987 C 330.76428000000016,230.25785999999988 331.0578600000002,231.10609999999988 331.61062000000015,231.56399999999988 C 332.29583000000014,232.1316299999999 333.25118000000015,232.43286999999987 333.99996000000016,232.83332999999988 C 334.79143000000016,233.25661999999988 335.13253000000014,233.0671599999999 334.8333000000002,232.16666999999987 C 334.60411000000016,231.47695999999988 334.08367000000015,230.67513999999986 333.8306100000002,229.94399999999987 C 333.4791700000002,228.92853999999988 333.1418600000002,228.31177999999989 332.8146200000002,227.63999999999987 C 332.4858500000002,226.96506999999988 331.8935100000002,225.76433999999986 331.49995000000024,225.02082999999988 C 331.12501000000026,224.31246999999988 330.68119000000024,223.57705999999988 330.1746000000002,222.77467999999988 C 329.8270700000002,222.2242199999999 329.1605600000002,221.1701399999999 328.7526000000002,220.45266999999987 C 328.3689000000002,219.77787999999987 327.8382000000002,218.83025999999987 327.5146200000002,218.31466999999986 C 326.9870900000002,217.47410999999985 326.5954300000002,216.89549999999986 325.9999400000002,215.99999999999986 C 325.4044500000002,215.10450999999986 325.0144400000002,214.52486999999985 324.6571100000002,213.95716999999985 C 324.00986000000023,212.92885999999984 323.6696500000002,212.22636999999986 323.2012700000002,211.48666999999986 C 322.6392900000002,210.59916999999987 321.9930800000002,209.83746999999985 321.5999500000002,209.17466999999985 C 321.1927800000002,208.48818999999986 320.6999600000002,207.75266999999985 320.1999600000002,207.11599999999984 L 319.7044500000002,206.34733999999983 L 319.2852900000002,205.48399999999984 L 318.9999500000002,204.54167999999984" fill="none" id="svg_4" stroke="#000" stroke-width="2"/>
</svg>
