<?xml version="1.0" ?>
<svg baseProfile="full" height="480" version="1.1" width="640" xmlns="http://www.w3.org/2000/svg" xmlns:ev="http://www.w3.org/2001/xml-events" xmlns:xlink="http://www.w3.org/1999/xlink">
	<defs/>
	<path d="M 192.0,303.0 C 194.66667,306.83334 195.31451,307.86194 196.03999,309.02802 C 196.82793999999998,310.29453 197.65332999999998,311.63068000000004 198.5,313.0 C 199.34665999999999,314.36932 200.17105,315.70612 200.96001,316.97198 C 202.32936,319.16911999999996 202.88161000000002,320.03668 203.34667000000002,320.74931999999995 C 203.72558,321.32994999999994 204.03580000000002,321.79097999999993 204.29168,322.14582999999993 C 204.49011000000002,322.4210099999999 204.65075000000002,322.6272399999999 204.78668000000002,322.77732999999995 C 204.99368,323.00587999999993 205.10019000000003,323.10013999999995 205.20135000000002,323.2013099999999 C 205.30451000000002,323.30448999999993 205.41136000000003,323.40998999999994 205.88534,323.8853299999999 C 206.65829000000002,324.6605099999999 207.22195000000002,325.2368899999999 207.60134000000002,325.6866599999999 C 208.42640000000003,326.66471999999993 208.80689,327.2387799999999 209.23600000000002,327.8106499999999 C 209.68143,328.4042799999999 210.41392000000002,329.3074799999999 210.96618,329.9089799999999 C 211.55418,330.54938999999985 212.21815,331.21497999999985 212.57201,331.57065999999986 C 213.74025,332.74487999999985 214.1679,333.1667899999999 214.60083,333.60532999999987 C 215.48164,334.49753999999984 215.91794000000002,334.94495999999987 216.33749,335.39463999999987 C 217.51306,336.65458999999987 217.84031000000002,337.05329999999987 218.4375,337.7856599999999 C 218.98329,338.45499999999987 219.47415,339.1161699999999 220.33333,339.9999799999999 C 220.63343999999998,340.3086999999999 221.29486,340.89819999999986 221.97916999999998,341.4583199999999 C 222.63188,341.9925899999999 223.48641999999998,342.6838399999999 224.14649999999997,343.1901299999999 C 224.90018999999998,343.76821999999987 225.66317999999998,344.17410999999987 226.33866999999998,344.4852999999999 C 227.11872999999997,344.84463999999986 227.97507,345.20105999999987 228.83467,345.60129999999987 C 229.67104999999998,345.9906999999999 230.43165,346.3945399999999 231.128,346.78931999999986 C 232.09425,347.3371099999999 232.99394999999998,347.8465699999999 233.60133,348.11597999999987 C 234.51219999999998,348.52002999999985 235.16313,348.7383599999999 236.16666999999998,349.16663999999986 C 236.89246999999997,349.47638999999987 237.65866999999997,349.84391999999986 238.48265999999998,350.24665999999985 C 238.91955,350.46018999999984 240.33273999999997,351.16779999999983 240.84248999999997,351.4209799999999 C 241.89962999999997,351.9460299999999 242.43757999999997,352.20918999999986 242.97915999999998,352.4583299999999 C 244.03289999999998,352.9430999999999 244.52352,353.21659999999986 245.93565999999998,353.63547999999986 C 246.72214,353.8687899999999 247.45712999999998,353.9585999999999 248.14364999999998,353.98648999999983 C 249.52024999999998,354.0423999999998 250.25266,353.9999799999998 250.99998999999997,353.9999799999998 C 251.74731999999997,353.9999799999998 252.83331999999996,353.9999799999998 253.84281999999996,353.9999799999998 C 254.47915999999995,353.9999799999998 255.39864999999995,353.9999799999998 256.6013,353.9999799999998 C 257.21063999999996,353.9999799999998 258.15715,353.99902999999983 259.16664,353.9999799999998 C 259.88532999999995,354.00064999999984 260.63642999999996,353.9991899999998 261.41065999999995,354.0359899999998 C 262.20194999999995,354.0735899999998 263.40128999999996,354.2135399999998 264.19999999999993,354.3526399999998 C 265.00138999999996,354.4921999999998 265.79563999999993,354.67786999999976 266.9999899999999,354.8333199999998 C 267.7976299999999,354.9362599999998 268.6002699999999,354.9706499999998 269.3999799999999,355.02530999999976 C 270.20026999999993,355.07999999999976 271.4023299999999,355.20911999999976 272.20447999999993,355.35715999999974 C 273.02323999999993,355.50824999999975 273.85633999999993,355.70819999999975 275.1666399999999,355.9999799999997 C 275.6207099999999,356.1010799999997 276.5424599999999,356.3015199999997 277.45832999999993,356.4791399999997 C 278.3318999999999,356.64856999999967 279.4982799999999,356.84824999999967 280.14530999999994,356.9146599999997 C 280.95661999999993,356.9979099999997 282.1666399999999,356.9999899999997 282.96165999999994,356.9999899999997 C 283.54164999999995,356.9999899999997 284.48664999999994,357.0030099999997 285.5211699999999,356.99983999999966 C 286.2481599999999,356.99760999999967 287.34169999999995,356.9961199999997 288.03065999999995,356.91466999999966 C 289.23725999999994,356.77199999999965 289.94841999999994,356.46804999999966 290.59730999999994,356.2839899999997 C 291.5872999999999,356.0032299999997 292.41581999999994,356.0074399999997 293.3999799999999,355.71599999999967 C 294.21613999999994,355.4742999999997 295.19553999999994,355.07942999999966 295.9791399999999,355.0208399999997 C 296.97608999999994,354.9462899999997 297.75263999999993,354.99999999999966 298.6526599999999,354.99999999999966 C 299.5159699999999,354.99999999999966 300.5354699999999,354.69524999999965 301.3893199999999,355.01067999999964 C 302.13574999999986,355.28640999999965 302.47647999999987,356.23110999999966 302.8786399999999,357.0999999999996 C 303.1850699999999,357.7620199999996 303.5405399999999,358.52190999999965 304.3211399999999,359.32130999999964 C 304.8139699999999,359.82600999999966 305.4293199999999,360.2686999999996 305.8901399999999,361.24733999999967 C 306.2991099999999,362.1158699999997 306.4291999999999,362.8392599999997 306.8012999999999,363.60130999999967 C 307.2954999999999,364.61342999999965 307.6368399999999,365.27156999999966 308.1666299999999,366.3333399999997 C 308.4844999999999,366.97038999999967 308.83447999999987,367.6678099999997 309.17462999999987,368.4213199999997 C 309.52545999999984,369.1984499999997 309.98172999999986,370.3987999999997 310.11597999999987,370.7986699999997 C 310.38074999999986,371.58730999999966 310.5980999999999,372.37395999999967 310.88398999999987,373.1146499999997 C 311.4324799999999,374.5356399999997 311.8249699999999,375.1642099999997 312.1746399999999,375.7893299999997 C 312.5156099999999,376.3988899999997 313.1269999999999,377.59501999999975 313.3639999999999,378.20000999999974 C 313.7138499999999,379.09301999999974 313.9971499999999,380.00093999999973 314.30448999999993,380.90898999999973 C 314.51884999999993,381.54231999999973 314.7493799999999,382.21718999999973 315.1666399999999,383.33333999999974 C 315.4794799999999,384.17018999999976 315.8326599999999,385.0520299999997 316.02082999999993,385.4999999999997 C 316.3978399999999,386.3974899999997 316.99488999999994,387.6693099999997 317.19999999999993,388.0571599999997 C 317.5903799999999,388.7953199999997 318.0021499999999,389.47787999999974 318.3999799999999,390.14815999999973 C 319.0032799999999,391.16469999999975 319.4048299999999,391.88277999999974 319.7999699999999,392.63597999999973 C 320.2049999999999,393.4080699999997 320.6009299999999,394.20085999999975 321.1999899999999,395.4001699999997 C 321.4002799999999,395.80116999999973 321.8045699999999,396.60841999999974 322.1999899999999,397.4359999999997 C 322.6047099999999,398.2830799999997 323.0056799999999,399.1642099999997 323.3986599999999,400.0840099999997 C 323.5983699999999,400.5514499999997 323.9863099999999,401.4972799999997 324.3428099999999,402.4473199999997 C 324.5181899999999,402.9146699999997 324.9831599999999,404.27727999999973 325.2473199999999,405.1473299999997 C 325.3768699999999,405.5739999999997 325.6151799999999,406.4284299999997 325.8839799999999,407.28398999999973 C 326.3056699999999,408.62620999999973 326.4735199999999,409.0871799999997 326.8359799999999,410.01466999999974 C 327.19889999999987,410.94331999999974 327.3758099999999,411.40391999999974 327.9999799999999,412.6666499999997 C 328.3813299999999,413.4381299999997 328.7915099999999,414.12669999999974 329.16397999999987,414.77864999999974 C 329.51675999999986,415.3961399999997 330.13223999999985,416.59132999999974 330.35330999999985,417.18932999999976 C 330.66531999999984,418.03334999999976 330.87848999999983,419.07799999999975 330.9791299999998,419.91665999999975 L 330.99996999999985,420.33199999999977" fill="none" id="svg_4" stroke="#000" stroke-width="2"/>
</svg>
