<?xml version="1.0" ?>
<svg baseProfile="full" height="480" version="1.1" width="640" xmlns="http://www.w3.org/2000/svg" xmlns:ev="http://www.w3.org/2001/xml-events" xmlns:xlink="http://www.w3.org/1999/xlink">
	<defs/>
	<path d="M 335.0,133.0 C 336.79999,133.0 337.63599,133.0 338.48401,133.0 C 339.34732,133.0 340.36401,133.0 341.29999000000004,133.0 C 342.10016,133.0 342.88535,133.0 343.82535,133.0 C 344.83335,133.0 345.62577,132.97458 346.48532,133.00133 C 347.40576,133.02997 348.39746,133.29116 349.0,133.5 C 349.99597,133.84521 350.78983,133.95219 351.83334,134.0 C 352.56292,134.03342 353.66824,134.32887 354.33734000000004,134.56799 C 355.11386000000005,134.84550000000002 355.93198000000007,135.15719 356.34650000000005,135.29466000000002 C 357.82645,135.78543000000002 358.43427,135.85844000000003 359.38651000000004,136.04817000000003 C 360.40732,136.25155000000004 361.00147000000004,136.51779000000002 362.00000000000006,137.00000000000003 C 362.80118000000004,137.38690000000003 363.38599000000005,137.70044000000001 364.39734000000004,137.91600000000003 C 365.2764,138.10336000000004 365.95120000000003,138.6048 366.66434000000004,139.32150000000001 C 367.03409000000005,139.69310000000002 367.80255000000005,140.20204 368.31867000000005,140.60133000000002 C 369.32776000000007,141.38202 369.96079000000003,142.0012 370.59867,142.51466000000002 C 371.37849,143.14238000000003 371.99854000000005,143.48198000000002 373.00001000000003,144.00000000000003 C 373.77754000000004,144.40218000000002 374.32151000000005,144.89629000000002 375.01469000000003,145.56400000000002 C 375.62355,146.15049000000002 376.56523000000004,146.47263 376.91600000000005,147.20000000000002 C 377.32881000000003,148.05606000000003 378.30876000000006,148.72829000000002 377.93834000000004,149.64284 C 377.66310000000004,150.32242 376.37801,150.17807000000002 375.50002000000006,149.97917 C 374.5376800000001,149.76117000000002 373.9061500000001,149.06088 373.00002000000006,149.0 C 372.2018300000001,148.94637 371.30001000000004,149.0 370.40001000000007,149.0 C 369.50002000000006,149.0 368.6000200000001,149.0 367.7000300000001,149.0 C 366.8000100000001,149.0 365.8998600000001,149.0 365.1146700000001,149.0 C 364.1746700000001,149.0 363.1666700000001,149.0 362.4106900000001,149.0 C 361.4791700000001,149.0 360.5160100000001,149.0 359.8253600000001,149.0 C 358.7526700000001,149.0 357.8333600000001,149.0 357.0000100000001,149.0 C 356.16667000000007,149.0 355.24671000000006,148.97044 354.3428400000001,149.0045 C 353.5941800000001,149.03271 352.60755000000006,149.31085000000002 351.7640100000001,149.57466 C 350.8421000000001,149.86297 350.0495000000001,149.92648 349.2613200000001,150.02533 C 348.32992000000013,150.14213999999998 347.52453000000014,150.56632 346.6666500000001,151.0 C 346.0115000000001,151.33119 345.2689100000001,151.63736 344.14282000000014,151.87849 C 343.39425000000017,152.03878 342.34732000000014,151.99632 341.65268000000015,152.0 C 340.64664000000016,152.00534 339.97916000000015,152.5 339.2856800000001,152.94733 L 338.59101000000015,153.05267999999998" fill="none" id="svg_4" stroke="#000" stroke-width="2"/>
</svg>
