<?xml version="1.0" ?>
<svg baseProfile="full" height="480" version="1.1" width="640" xmlns="http://www.w3.org/2000/svg" xmlns:ev="http://www.w3.org/2001/xml-events" xmlns:xlink="http://www.w3.org/1999/xlink">
	<defs/>
	<path d="M 390.0,305.0 C 391.0,306.0 390.59726,306.9364 391.08533,307.71466 C 391.54969,308.45507999999995 391.82645,309.03824 392.08533,309.79999 C 392.38709,310.68793 392.86246,311.49789999999996 393.44266,312.10001 C 394.04334,312.72336 394.73940999999996,313.2454 395.22135,314.10001 C 395.58279999999996,314.74097 395.99113,315.61805 396.42533,316.4 C 396.88093,317.22049999999996 397.23742999999996,317.95633999999995 397.64734999999996,318.70002 C 398.07858999999996,319.48243 398.11878999999993,320.37855 398.61066999999997,321.13868 C 399.10398999999995,321.90107 399.84727,322.40443000000005 400.28400999999997,323.20002 C 400.63978,323.84812 401.04184999999995,324.70618 401.50001,325.50001 C 401.90646999999996,326.20426 402.42179,326.86899999999997 402.98533,327.43600999999995 C 403.66267,328.11749999999995 404.19978,328.5499 404.89018,329.29551 C 405.48219,329.93485 406.33107,330.18683999999996 406.83335999999997,331.00001 C 407.30503999999996,331.76362 408.00086999999996,331.96281 408.79999999999995,332.00001 C 409.71765999999997,332.04272999999995 409.91248999999993,332.95444999999995 410.61066999999997,333.56401 C 411.27727,334.14601 412.35481,333.92122 412.97468,334.42534 C 413.58975999999996,334.92555 414.24043,335.49211 415.16666999999995,335.83336 C 415.96412,336.12715000000003 416.82602999999995,336.18056 417.58933999999994,336.57469000000003 C 418.39255999999995,336.98942000000005 419.30634999999995,337.35014 419.79999999999995,337.80134000000004 C 420.53038,338.46888 421.31632999999994,338.92832000000004 422.17465999999996,338.98933000000005 C 423.11236999999994,339.05598000000003 424.03430999999995,339.12474000000003 424.70001999999994,339.70451 C 425.33511999999996,340.25761 426.0983999999999,340.89109 427.0000099999999,341.00001000000003 C 427.79871999999995,341.09651 428.5051699999999,341.51557 429.20001999999994,342.20002000000005 C 429.80450999999994,342.7954500000001 430.32489999999996,343.52695000000006 431.2013299999999,343.9159900000001 C 432.1129199999999,344.3206200000001 432.83935999999994,344.4290200000001 433.60131999999993,344.8013400000001 C 434.4022799999999,345.1927300000001 435.20922999999993,345.5329100000001 435.9784899999999,346.1001700000001 C 436.6324499999999,346.5824100000001 437.14672999999993,347.5182900000001 437.6000099999999,348.1386800000001 C 438.1414499999999,348.8797100000001 438.9225199999999,349.1188700000001 439.65267999999986,349.7098500000001 C 440.38790999999986,350.3049400000001 440.89394999999985,351.0908600000001 441.6253399999999,351.55336000000005 C 442.4136099999999,352.05180000000007 443.4381799999999,351.98399000000006 444.1146599999999,352.5680100000001 C 444.6827399999999,353.0584600000001 445.3159199999999,353.8568600000001 446.1666599999999,354.16667000000007 C 446.83532999999994,354.4102000000001 447.8119499999999,355.03026000000006 448.4791599999999,355.47917000000007 C 449.17907999999994,355.95009000000005 449.99117999999993,356.3400700000001 450.49999999999994,357.0000100000001 C 451.08986999999996,357.7650900000001 451.81811999999996,358.0541500000001 452.52083999999996,358.5208500000001 C 453.34407999999996,359.0676000000001 454.03911999999997,359.4932300000001 454.60130999999996,359.88535000000013 C 455.63136999999995,360.60376000000014 456.16335,361.1753000000001 456.83333999999996,361.8333500000001 C 457.37413999999995,362.3645400000001 458.16252999999995,363.0068700000001 458.82534,363.4000000000001 C 459.5118,363.8071400000001 460.35717,364.4445900000001 460.96932,364.7999900000001 C 461.96934999999996,365.3805900000001 462.54249999999996,365.4768400000001 463.31730999999996,365.8853500000001 C 464.34525999999994,366.4273100000001 464.96572,366.99216000000007 465.51331999999996,367.5160000000001 C 466.26206999999994,368.2322500000001 466.95450999999997,368.8296000000001 467.76798999999994,369.20002000000005 C 468.48792999999995,369.52784 469.3094899999999,369.6749300000001 470.18564999999995,370.30451000000005 C 470.87064999999996,370.79673 471.27744999999993,371.66614000000004 471.69998999999996,372.34733000000006 C 472.27018,373.26652000000007 472.80848,373.87852000000004 473.29997,374.64817000000005 C 473.70707,375.28568000000007 474.46106999999995,375.8224900000001 475.19998999999996,376.28535000000005 C 475.87060999999994,376.70542000000006 476.44287999999995,377.59510000000006 477.30447999999996,377.94734000000005 C 478.12793999999997,378.28398000000004 478.97989999999993,378.55543000000006 479.83331999999996,378.83336 C 480.67920999999996,379.10881 481.39227999999997,379.44423 482.09997999999996,380.09984000000003 C 482.69361,380.6498 483.59112999999996,380.92098000000004 484.19998999999996,381.56801 C 484.80447999999996,382.21041 485.44134999999994,382.72478 486.29547999999994,383.0045 C 487.0633899999999,383.25600000000003 487.58475999999996,383.8463 488.3518199999999,384.05269 C 489.39334999999994,384.33293 490.0940999999999,384.92876 490.8853299999999,384.99867 C 491.8113199999999,385.08049 492.6215099999999,385.35792 492.9999799999999,386.00001000000003 C 493.5108099999999,386.86662 494.36176999999986,386.8711 495.2428099999999,387.0045 C 496.2291099999999,387.15385000000003 496.7457699999999,387.86232 497.3999799999999,388.38936 C 498.1452799999999,388.98979 499.1012699999999,388.95223 499.9999899999999,389.00002 C 500.8033699999999,389.04274 501.5822299999999,389.61242 502.3999799999999,389.97469 C 503.1846499999999,390.32232 503.72266999999994,390.89159 504.4999899999999,391.47918 C 505.23759999999993,392.03677 506.2484599999999,391.84648999999996 506.9999899999999,392.16668 C 507.78120999999993,392.4995 508.6032599999999,392.99874 509.0526599999999,393.70452 C 509.4741999999999,394.36654 510.3180999999999,394.75695 510.9518299999999,395.3572 C 511.59818999999993,395.96941 512.16631,396.61715 512.9784999999999,396.87868 C 513.78325,397.13779999999997 514.4945499999999,397.55901 515.32133,398.10002 C 515.98051,398.53135999999995 516.7850099999999,399.07126999999997 517.58934,399.56401 C 518.36015,400.03624 519.36143,399.84514 520.09996,400.22151 C 520.78624,400.57127 521.4130700000001,401.38719000000003 522.09984,402.10002000000003 C 522.57317,402.59135000000003 523.07445,403.41026000000005 523.57463,404.02534 C 524.07872,404.64521 523.9999799999999,405.60002000000003 523.9999799999999,406.50001000000003 C 523.9999799999999,407.40000000000003 524.19804,408.3224 523.9986399999999,409.19868 C 523.8155999999999,410.00297 522.69999,410.00001000000003 521.7999699999999,410.00001000000003 C 520.90001,410.00001000000003 519.9999799999999,410.00001000000003 519.19999,410.00001000000003 C 518.2999699999999,410.00001000000003 517.4,410.00001000000003 516.4999799999999,410.00001000000003 C 515.5999599999999,410.00001000000003 514.63853,410.15489 513.9,409.77851000000004 C 513.21372,409.42875000000004 512.66532,408.49451000000005 511.79996,408.08402000000007 C 511.04251,407.7247100000001 510.28531,407.36933000000005 510.22132,408.10001000000005 L 510.64731,408.70002000000005 L 510.98929,409.60001000000005 L 511.02081,410.47916000000004" fill="none" id="svg_4" stroke="#000" stroke-width="2"/>
</svg>
