<?xml version="1.0" ?>
<svg baseProfile="full" height="480" version="1.1" width="640" xmlns="http://www.w3.org/2000/svg" xmlns:ev="http://www.w3.org/2001/xml-events" xmlns:xlink="http://www.w3.org/1999/xlink">
	<defs/>
	<path d="M 308.0,298.0 C 308.0,299.79999 308.00058,300.70001 308.0,301.52084 C 307.99933,302.48532 308.04156,303.22839000000005 307.77866,304.19983 C 307.56244,304.99875000000003 307.08799,305.82221000000004 307.00449,306.69550000000004 C 306.91431,307.63852 306.74683,308.54508000000004 305.9,308.87851000000006 C 305.05499999999995,309.21121000000005 304.20002,308.99759000000006 303.24282999999997,309.00000000000006 C 302.34731999999997,309.00226000000004 301.62850999999995,308.9950600000001 300.61465999999996,309.42532000000006 C 300.01417,309.68014000000005 298.98873999999995,309.93423000000007 298.21466999999996,310.02533000000005 C 297.16443999999996,310.14893000000006 296.46680999999995,310.36694000000006 295.66166,310.64734000000004 C 294.75367,310.96353000000005 293.66569,311.16312000000005 292.99018,311.35266 C 292.21351,311.57062 291.16862000000003,311.84625 290.45716,311.94733 C 289.60654,312.06815 288.58871999999997,312.25882 287.79999,312.61066 C 286.98746,312.97309 286.18996999999996,313.36457 285.48532,313.79999 C 284.72858,314.26761 284.10858,314.87802 283.51599,315.48532 C 282.81649999999996,316.20215 282.15402,316.99148 281.75264999999996,317.60001 C 281.36220999999995,318.19199 280.69286999999997,319.21228 280.17465,319.78934 C 279.66632,320.35537999999997 278.78274,321.03542999999996 278.36166,321.6955 C 277.89178,322.4321 277.85907,323.86481 278.61064999999996,323.95333999999997 C 279.51336,324.05965999999995 280.04186,323.16128999999995 281.05334,322.79999 C 281.67879999999997,322.57657 282.36888999999996,322.42798 283.66665,322.0 C 284.23617,321.81219 284.99252,321.48007 285.76800000000003,321.20001 C 286.95730000000003,320.77051 287.64831000000004,320.60095 288.34933,320.43600000000004 C 289.02984000000004,320.27587000000005 290.22735,320.05300000000005 291.17868,320.01068000000004 C 292.19921999999997,319.96527000000003 293.02083999999996,320.00000000000006 293.68532999999996,320.00000000000006 C 294.68398999999994,320.00000000000006 295.49999999999994,320.00000000000006 296.31600999999995,320.00000000000006 C 297.31600999999995,320.00000000000006 298.22533999999996,320.00000000000006 299.1666599999999,320.00000000000006 C 299.9616699999999,320.00000000000006 300.84667999999994,319.99969000000004 301.48666999999995,320.00000000000006 C 302.88266999999996,320.00067000000007 303.61524,319.99759000000006 304.33865999999995,320.03601000000003 C 305.03146999999996,320.07281000000006 306.22986,320.28671 306.9791599999999,320.50000000000006 C 308.16543999999993,320.83768000000003 308.9504999999999,320.9264800000001 309.73867999999993,321.02533000000005 C 310.6700799999999,321.14212000000003 311.4612399999999,321.54764000000006 312.1666599999999,322.00000000000006 C 312.83077999999995,322.42587000000003 313.6850599999999,322.8040500000001 314.68267999999995,323.20132000000007 C 315.21380999999997,323.4128400000001 316.08700999999996,323.63522000000006 317.03066999999993,324.4840000000001 C 317.53896999999995,324.9411800000001 318.1453199999999,325.8600400000001 318.65716999999995,326.2473400000001 C 319.3765599999999,326.79171000000014 320.21295999999995,327.30679000000015 320.7999899999999,327.8359900000001 C 321.41390999999993,328.3894600000001 322.2000099999999,329.2000000000001 322.7999899999999,329.7999800000001 C 323.3999999999999,330.3999900000001 324.0069899999999,330.9931300000001 324.5954899999999,331.60000000000014 C 325.1708999999999,332.19338000000016 325.86614999999995,332.97918000000016 326.36400999999995,333.7999800000001 C 326.71950999999996,334.38607000000013 327.18166999999994,335.4085300000001 327.49999999999994,335.9791500000001 C 328.06768999999997,336.99679000000015 328.7679099999999,337.6354900000001 328.99999999999994,336.99999000000014 C 329.27440999999993,336.2485600000001 329.00591999999995,335.29995000000014 328.99999999999994,334.39998000000014 C 328.99465999999995,333.58925000000016 328.79610999999994,332.67067000000014 328.4791599999999,331.97914000000014 C 328.02496999999994,330.98817000000014 327.70019999999994,330.39989000000014 327.2999899999999,329.59999000000016 C 326.7989199999999,328.59853000000015 326.4918199999999,327.9720300000002 326.1146599999999,327.31465000000014 C 325.5352199999999,326.30470000000014 325.1697399999999,325.77775000000014 324.6526799999999,324.9526500000001 C 324.1619599999999,324.16957000000014 323.78698999999995,323.4440100000001 323.3044999999999,322.6616300000001 C 322.7301899999999,321.7303300000001 322.2374499999999,321.25260000000014 321.51598999999993,320.5146600000001 C 320.9961199999999,319.9829200000001 320.4645999999999,319.4129100000001 319.88265999999993,318.5999900000001 C 319.31951999999995,317.8133100000001 318.6806899999999,316.9841100000001 318.23198999999994,316.6013000000001 C 317.52129999999994,315.9949200000001 316.7599399999999,315.4958900000001 315.9706699999999,314.8866400000001 C 315.30202999999995,314.3705300000001 314.0616999999999,314.0709700000001 314.06166999999994,313.2954800000001 C 314.0616099999999,312.3872200000001 314.90156999999994,311.7940200000001 315.0840099999999,311.0293100000001 C 315.33305999999993,309.9853000000001 315.5746699999999,309.21464000000014 315.8333399999999,308.16664000000014 L 315.94731999999993,307.46165000000013 L 316.0526699999999,306.6616300000001 L 316.3526599999999,305.75715000000014" fill="none" id="svg_4" stroke="#000" stroke-width="2"/>
</svg>
