<?xml version="1.0" ?>
<svg baseProfile="full" height="480" version="1.1" width="640" xmlns="http://www.w3.org/2000/svg" xmlns:ev="http://www.w3.org/2001/xml-events" xmlns:xlink="http://www.w3.org/1999/xlink">
	<defs/>
	<path d="M 254.0,128.0 C 254.0,129.8 253.6066,130.81339 254.036,131.564 C 254.43110000000001,132.25464 255.60804,131.89779 256.52085,132.02083 C 257.33884,132.13109 257.99927,132.57186 259.00001,132.83333 C 259.80814999999996,133.04448 260.5308,133.05848999999998 261.64302,133.44284 C 262.32588,133.67882 263.03792,134.02971 263.80901,134.35183999999998 C 264.99437,134.84703 265.79595,135.12355 266.58934,135.36399999999998 C 267.36147,135.59801 268.11726,135.78965999999997 269.179,136.10017999999997 C 269.85805,136.29876999999996 270.54233999999997,136.51876999999996 271.26700999999997,136.75717999999998 C 272.50116999999995,137.16319 273.45383999999996,137.48394 273.96250999999995,137.65716999999998 C 275.02187,138.01791999999998 275.56177999999994,138.20584999999997 276.09916999999996,138.40449999999998 C 277.67195,138.98592 278.16297999999995,139.19104 279.13068999999996,139.62249999999997 C 279.63701,139.84823999999998 280.73932999999994,140.37867999999997 281.36267999999995,140.68583999999998 C 282.05139999999994,141.02521 283.66684999999995,141.83297 284.61301999999995,142.30667 C 285.63755999999995,142.81960999999998 286.71849,143.36178 287.83200999999997,143.92667 C 288.95914999999997,144.49845 290.07642999999996,145.07003 291.15900999999997,145.63668 C 292.19098999999994,146.17684 294.00404,147.15975 294.74201999999997,147.59234 C 295.37955999999997,147.96606 295.91767999999996,148.30418 296.36803,148.60934 C 296.75322,148.87036 297.07354,149.10868 297.34603,149.32034000000002 C 297.58540999999997,149.50627000000003 297.99688,149.83777 298.20002999999997,149.97851000000003 C 298.59412999999995,150.25155000000004 299.3991,150.69731000000002 300.20036999999996,151.10018000000002 C 301.04072999999994,151.52273000000002 301.77122999999995,151.88425000000004 302.64284,152.32151000000002 C 303.31028999999995,152.65633000000003 304.02473999999995,153.01356 304.75185,153.4045 C 305.83925,153.98917 306.51707999999996,154.39823 307.17467,154.80001000000001 C 307.82643,155.19825 308.47753,155.6114 309.52153,156.20017 C 310.25273,156.61254000000002 311.02387999999996,157.01545000000002 311.80451999999997,157.45717000000002 C 312.20289999999994,157.6826 313.40434,158.41469 314.19550999999996,158.95267 C 314.59162999999995,159.22202000000001 315.36326999999994,159.77574 316.11466999999993,160.316 C 317.1772899999999,161.08002 317.8404099999999,161.53995 318.4583599999999,161.97918 C 319.0402699999999,162.39280000000002 320.0859799999999,163.19148 320.5428599999999,163.60001000000003 C 321.2003299999999,164.18793000000002 322.0051399999999,164.99495000000002 322.5954999999999,165.60001000000003 C 322.9825499999999,165.99672000000004 323.5440199999999,166.57914000000002 324.2518399999999,167.60451000000003 C 324.6794199999999,168.22391000000005 325.3239499999999,169.17475000000005 325.7680099999999,169.68267000000003 C 326.24081999999987,170.22346000000002 326.7486299999999,170.73936000000003 327.66665999999987,171.66668000000004 C 328.18527999999986,172.19056000000003 328.79922999999985,172.88142000000005 329.3045099999999,173.65267000000003 C 329.7588899999999,174.34623000000002 330.49081999999987,175.10705000000002 331.00000999999986,175.50001000000003 C 331.84488999999985,176.15202000000002 332.3236499999999,176.86607000000004 332.8840099999999,177.51602000000003 C 333.4380899999999,178.15866000000003 334.2109099999999,178.58890000000002 335.2000199999999,179.10019000000003 C 335.80014999999986,179.41040000000004 336.6262599999999,179.85185 337.39999999999986,180.48535000000004 C 338.0222499999999,180.99483000000004 338.6003499999999,181.60101000000003 339.1998399999999,182.19984000000005 C 339.78967999999986,182.78903000000005 340.51468999999986,183.51466000000005 341.2473599999999,184.24734000000007 C 341.7526699999999,184.75268000000005 342.4774599999999,185.49507000000006 343.0416699999999,186.02084000000008 C 343.6765299999999,186.61245000000008 344.4211899999999,187.20001000000008 344.9481899999999,187.6000200000001 C 345.7386899999999,188.20001000000008 346.2799499999999,188.55353000000008 347.0333299999999,189.4013500000001 C 347.5569799999999,189.9906300000001 348.0160599999999,190.72339000000008 348.7695099999999,191.42468000000008 C 349.47354999999993,192.0799800000001 350.0242699999999,192.44389000000007 350.6875099999999,192.91668000000007 C 351.50742999999994,193.50115000000008 352.52539999999993,194.19532000000007 353.7640199999999,195.02267000000006 C 356.9919599999999,197.17880000000005 359.0391399999999,198.50695000000007 361.3213299999999,199.99601000000007 C 363.7833699999999,201.60239000000007 366.3699399999999,203.28246000000007 369.0208499999999,205.00001000000006 C 371.6752699999999,206.71981000000005 374.2759799999999,208.40118000000007 376.7653299999999,210.00401000000005 C 381.1645899999999,212.83658000000005 382.97485999999986,213.99299000000005 384.5213399999999,214.97601000000006 C 385.8277099999999,215.80639000000005 386.9226199999999,216.49690000000007 387.8333499999999,217.06251000000006 C 388.5815499999999,217.52717000000007 389.1961399999999,217.90332000000006 389.7053299999999,218.20400000000006 C 390.4971399999999,218.67158000000006 390.8349399999999,218.85807000000005 391.1440199999999,219.02933000000007 C 391.42795999999987,219.18665000000007 391.6915399999999,219.32884000000007 391.9375099999999,219.45833000000007 C 392.16757999999993,219.57947000000007 392.3862699999999,219.69148000000007 392.5960199999999,219.79733000000007 C 392.9995199999999,220.00094000000007 393.2006599999999,220.10069000000007 393.4066899999999,220.20266000000007 C 393.6223299999999,220.30938000000006 393.8529799999999,220.42208000000008 394.1041699999999,220.54166000000006 C 394.3796199999999,220.67281000000006 394.6852599999999,220.81560000000007 395.0266899999999,220.97066000000007 C 395.8319899999999,221.33635000000007 396.3068699999999,221.54352000000006 396.8240199999999,221.76932000000008 C 397.3765099999999,222.01056000000008 397.9584499999999,222.2619200000001 398.5625099999999,222.52082000000007 C 399.1810999999999,222.78594000000007 399.8077799999999,223.05279000000007 400.4360099999999,223.31733000000008 C 401.66586999999987,223.83520000000007 402.2567499999999,224.07911000000007 402.8293499999999,224.3146600000001 C 403.3854399999999,224.54342000000008 403.9278599999999,224.76441000000008 404.45834999999994,224.9791700000001 C 404.97851999999995,225.18974000000009 405.49090999999993,225.3957000000001 405.9973499999999,225.5986600000001 C 406.99981999999994,226.0004200000001 407.5000999999999,226.2010000000001 408.0039999999999,226.39999000000012 C 408.5130899999999,226.60102000000012 409.0310999999999,226.80243000000013 409.5624999999999,227.0000000000001 C 410.1070899999999,227.20248000000012 410.6696799999999,227.4054400000001 411.2560099999999,227.6000100000001 C 412.4962099999999,228.0115500000001 413.1630499999999,228.2030800000001 413.8519899999999,228.39867000000012 C 414.5570699999999,228.5988500000001 415.2753899999999,228.79169000000013 415.9999999999999,228.97918000000013 C 416.7233899999999,229.16636000000014 417.44137999999987,229.34541000000013 418.1480099999999,229.51467000000014 C 419.49883999999986,229.83823000000012 420.1353499999999,229.98005000000015 420.7453299999999,230.11468000000013 C 421.3326699999999,230.24432000000013 421.9023699999999,230.36544000000015 422.4583399999999,230.47918000000013 C 423.00371999999993,230.59075000000013 423.5433599999999,230.69715000000014 424.0813299999999,230.79867000000013 C 425.1660499999999,231.00335000000013 425.7228399999999,231.09956000000014 426.2946799999999,231.20400000000012 C 426.8888599999999,231.31252000000012 427.5113199999999,231.42884000000012 428.1666599999999,231.56251000000012 C 428.86337999999995,231.70463000000012 429.60635999999994,231.86448000000013 430.39868999999993,232.05601000000013 C 432.1705399999999,232.48431000000014 433.14984999999996,232.76045000000013 434.1839999999999,233.05201000000014 C 435.2561999999999,233.35430000000014 436.34595999999993,233.67393000000013 437.4375099999999,234.00001000000015 C 438.5152999999999,234.32197000000014 439.56033999999994,234.64047000000014 440.5560099999999,234.94801000000015 C 442.3342099999999,235.49725000000015 443.0848199999999,235.73549000000014 443.7453399999999,235.94268000000017 C 444.3237999999999,236.12412000000018 444.8288399999999,236.28298000000018 445.2708499999999,236.41668000000016 C 445.6569299999999,236.53346000000016 445.9964699999999,236.63470000000015 446.30133999999987,236.71067000000016 C 446.83112999999986,236.84269000000018 447.0780099999999,236.88093000000018 447.3133299999999,236.91601000000017 C 447.5380299999999,236.94950000000017 447.7534199999999,236.97404000000017 447.9583499999999,237.00001000000017 C 448.15341999999987,237.02473000000018 448.3396699999999,237.04609000000016 448.51333999999986,237.08401000000018 C 448.83624999999984,237.1545200000002 448.97817999999984,237.22134000000017 449.5173399999999,237.57467000000017 L 449.1120099999999,237.99868000000018 L 448.1640099999999,238.00001000000017 L 447.39868999999993,238.00001000000017" fill="none" id="svg_4" stroke="#000" stroke-width="2"/>
</svg>
