<?xml version="1.0" ?>
<svg baseProfile="full" height="480" version="1.1" width="640" xmlns="http://www.w3.org/2000/svg" xmlns:ev="http://www.w3.org/2001/xml-events" xmlns:xlink="http://www.w3.org/1999/xlink">
	<defs/>
	<path d="M 258.0,115.0 C 256.29999,115.0 255.39999,115.0 254.5,115.0 C 253.60001,115.0 252.7,115.0 251.8,115.0 C 250.89999,115.0 250.0,115.0 249.19999,115.0 C 248.3,115.0 247.39999,115.0 246.49999000000003,115.0 C 245.60000000000002,115.0 244.69999,115.0 243.79999000000004,115.0 C 242.89998000000003,115.0 241.99999000000003,115.0 241.19998000000004,115.0 C 240.29999000000004,115.0 239.61282000000003,115.3145 238.83331000000004,115.83334 C 238.12585000000004,116.30421000000001 237.06959000000003,115.60702 236.28532000000004,116.08534 C 235.48159000000004,116.57552 234.86642000000003,117.03882 234.35714000000004,117.7045 C 233.83883000000003,118.38201 233.28579000000005,118.60146999999999 232.43598000000006,119.036 C 231.73916000000006,119.39232 231.45235000000005,120.44606 230.71464000000006,120.91466 C 230.02334000000005,121.35378 229.21298000000007,121.30660999999999 228.99865000000005,122.19866 C 228.81841000000006,122.94882 227.76133000000004,123.10302 227.28532000000004,123.80132 C 226.77453000000006,124.55063 226.25479000000004,125.20758000000001 225.83331000000004,125.99999 C 225.49258000000003,126.64058 224.94993000000005,127.43092 224.42532000000003,128.02532 C 223.85745000000003,128.66872 223.08372000000003,129.15429 222.99998000000002,129.99999 C 222.92115,130.7961 222.58229000000003,131.55438999999998 222.12149000000002,132.22149 C 221.61743,132.9512 222.17354000000003,134.03824999999998 221.91466000000003,134.79999999999998 C 221.61290000000002,135.68791 221.26036000000002,136.4391 220.99549000000002,137.29549999999998 C 220.75941000000003,138.05880999999997 220.31237000000002,138.58252999999996 219.98933000000002,139.38932999999997 C 219.67335000000003,140.17846999999998 219.00225000000003,140.70448999999996 219.00000000000003,141.60000999999997 C 218.99774000000002,142.49999999999997 219.11649000000003,143.40815999999998 218.99550000000002,144.30000999999996 C 218.88408,145.12135999999995 218.15415000000002,145.76686999999995 218.01067000000003,146.60000999999997 C 217.85791000000003,147.48699999999997 218.32224000000002,148.45762999999997 217.98934000000003,149.38932999999997 C 217.72605000000001,150.12623999999997 217.00535000000002,150.61063 217.00001000000003,151.49999999999997 C 216.99461000000002,152.39997999999997 217.00010000000003,153.29999999999998 217.00001000000003,154.19999999999996 C 216.99992000000003,155.09983999999997 216.45159000000004,155.66932999999997 216.05717000000004,156.35716999999997 C 215.58729000000005,157.17657999999997 216.18057000000005,158.30066999999997 215.71601000000004,158.91600999999997 C 215.20022000000003,159.59921999999997 215.00001000000003,160.30000999999996 215.00001000000003,161.20000999999996 C 215.00001000000003,162.10001999999997 215.00001000000003,163.00000999999997 215.00001000000003,163.80001999999996 C 215.00001000000003,164.70000999999996 215.34307000000004,165.67858999999996 214.97918000000004,166.47918999999996 C 214.62772000000004,167.25242999999995 214.00068000000005,167.80134999999996 214.00001000000003,168.70001999999997 C 213.99934000000002,169.60002999999998 214.00001000000003,170.50001999999998 214.00001000000003,171.40001999999996 C 214.00001000000003,172.30002999999996 214.18057000000005,173.30068999999995 213.71601000000004,173.91602999999995 C 213.20022000000003,174.59923999999995 213.00001000000003,175.30002999999994 213.00001000000003,176.20002999999994 C 213.00001000000003,177.10003999999995 213.00001000000003,178.00002999999995 213.00001000000003,178.80003999999994 C 213.00001000000003,179.70002999999994 213.00001000000003,180.60003999999995 213.00001000000003,181.50003999999993 C 213.00001000000003,182.40002999999993 213.13656000000003,183.35667999999993 212.71601000000004,184.20003999999992 C 212.38608000000005,184.86168999999992 212.01267000000004,185.7001199999999 212.00001000000003,186.60004999999992 C 211.98735000000002,187.50019999999992 211.47283000000004,188.20949999999993 211.12152000000003,189.10004999999992 C 210.86088000000004,189.7607399999999 211.00001000000003,190.70003999999992 211.00001000000003,191.60004999999992 C 211.00001000000003,192.50003999999993 211.00204000000002,193.40003999999993 211.00001000000003,194.3000499999999 C 210.99775000000002,195.2955599999999 210.42631000000003,195.8072099999999 210.08534000000003,196.5693799999999 C 209.76410000000004,197.2874599999999 210.00001000000003,198.3747099999999 210.00001000000003,199.32137999999992 C 210.00001000000003,200.00004999999993 210.04702000000003,201.11596999999992 210.00001000000003,202.00004999999993 C 209.95729000000003,202.80345999999994 209.31381000000002,203.42240999999993 209.05717000000004,204.30004999999994 C 208.80406000000005,205.16559999999996 209.00001000000003,206.10004999999995 209.00001000000003,207.00004999999993 C 209.00001000000003,207.80004999999994 209.00001000000003,208.70004999999992 209.00001000000003,209.60005999999993 C 209.00001000000003,210.50004999999993 209.13273000000004,211.41055999999992 208.99551000000002,212.30005999999992 C 208.85183000000004,213.2314399999999 208.14819000000003,213.76866999999993 208.00451,214.70004999999992 C 207.86729,215.58954999999992 208.00001,216.50004999999993 207.98934,217.38937999999993 L 207.42534,218.02537999999993 L 207.0045,218.70454999999993 L 207.0,219.60005999999993" fill="none" id="svg_4" stroke="#000" stroke-width="2"/>
</svg>
