<?xml version="1.0" ?>
<svg baseProfile="full" height="480" version="1.1" width="640" xmlns="http://www.w3.org/2000/svg" xmlns:ev="http://www.w3.org/2001/xml-events" xmlns:xlink="http://www.w3.org/1999/xlink">
	<defs/>
	<path d="M 292.0,231.0 C 292.0,234.33867 292.0,235.32150000000001 292.0,236.21066 C 292.0,237.19998999999999 292.0,238.0 292.0,239.0 C 292.0,239.8 292.0,240.60001 292.0,241.5955 C 292.0,242.34283 291.90927,243.40419999999997 292.284,244.20132999999998 C 292.62815,244.93347999999997 292.84198,245.67607999999998 293.08402,246.516 C 293.33939000000004,247.40222 294.16254000000004,248.00686 294.82535,248.39999 C 295.51181,248.80716 296.34262,249.4248 297.20001,249.91732 C 297.98187,250.36646 298.38659,251.10258 299.0,251.66665999999998 C 299.60806,252.22584999999998 300.27704,252.72450999999998 300.79999,253.51731999999998 C 301.28797,254.25710999999998 301.95419999999996,254.83327999999997 302.76935,255.19997999999998 C 303.5073,255.53195 304.32608,255.77882 305.31467,256.2 C 305.98542,256.48577 307.00705,256.98647 307.60001,257.30449 C 308.41004,257.73894 309.20438,258.31615 309.79999,258.82533 C 310.40448,259.34211 311.19399999999996,259.98765000000003 311.97916,260.47914000000003 C 312.82718,261.00996000000004 313.48969,261.55458000000004 314.33335,261.99998000000005 C 314.98413999999997,262.34358000000003 315.78239,262.53144000000003 316.66666,262.99998000000005 C 317.49404999999996,263.4383700000001 318.06748,264.13749000000007 318.63599,264.59999000000005 C 319.44266,265.25624000000005 320.20959999999997,265.60213000000005 321.0,265.99998000000005 C 321.79892,266.40214000000003 322.59079,266.81907000000007 323.40268,267.19865000000004 C 324.03484999999995,267.49418000000003 324.76342999999997,267.76384 325.96932999999996,267.91597 C 326.65835999999996,268.00291000000004 327.39147999999994,267.9724 328.83333999999996,268.16664000000003 C 329.51851999999997,268.25896 330.1593,268.44603 331.09549,268.64732000000004 C 332.29474,268.90516 332.90384,268.95936000000006 333.83599999999996,268.9893 C 334.48504999999994,269.01014000000004 335.52117999999996,268.99998 336.61465999999996,268.99998 C 337.33865999999995,268.99998 338.03067999999996,268.99998 339.23065999999994,268.99998 C 339.9791599999999,268.99998 341.1666599999999,268.99998 341.96167999999994,268.99998 C 342.54166999999995,268.99998 343.48666999999995,268.99998 344.52100999999993,268.99998 C 345.24366999999995,268.99998 346.3026899999999,268.99998 346.94535999999994,268.99998 C 348.1375299999999,268.99998 348.9666899999999,268.99998 349.7693699999999,268.99998 C 350.7853599999999,268.99998 351.83336999999995,268.99998 352.54286999999994,268.99998 L 353.39552999999995,268.99998" fill="none" id="svg_4" stroke="#000" stroke-width="2"/>
</svg>
