<?xml version="1.0" ?>
<svg baseProfile="full" height="480" version="1.1" width="640" xmlns="http://www.w3.org/2000/svg" xmlns:ev="http://www.w3.org/2001/xml-events" xmlns:xlink="http://www.w3.org/1999/xlink">
	<defs/>
	<path d="M 149.0,229.0 C 153.66667,237.5 154.05733,238.235 154.78566,239.61951 C 155.12816,240.27059 155.45639,240.89686999999998 155.77867,241.49600999999998 C 156.08914000000001,242.07318999999998 156.37628,242.63795 157.30017,244.15818 C 157.59468,244.64278 158.21429,245.60044 158.52083000000002,246.10417999999999 C 158.83980000000003,246.62838 159.20407000000003,247.16789999999997 160.16667,249.16667999999999 C 160.53953,249.94090999999997 160.88756,250.78733 161.24817000000002,251.67317999999997 C 161.61974,252.58595999999997 161.98134000000002,253.52000999999998 162.33867,254.45866999999998 C 162.69232,255.38769 163.02792,256.29838 163.66667,258.00001 C 163.95625,258.77146 164.22798,259.49014999999997 164.49916000000002,260.15702 C 164.75496,260.78607999999997 165.01189000000002,261.37934 165.28667000000002,261.93601 C 165.55388000000002,262.47733 165.82392000000002,263.01151 166.50000000000003,264.00001000000003 C 166.84927000000002,264.51069 167.24965000000003,265.00437000000005 167.66251000000003,265.5045 C 168.08295000000004,266.01381000000003 168.52388000000002,266.51826 168.96001000000004,267.03602 C 169.83953000000005,268.08015 170.67475000000005,269.16108 171.05716000000004,269.72169 C 171.43881000000005,270.2812 171.79729000000003,270.85749000000004 172.13867000000005,271.44667000000004 C 172.82918000000004,272.63838000000004 173.14836000000005,273.26155000000006 173.48266000000004,273.88667000000004 C 174.16708000000003,275.16646000000003 174.51855000000003,275.82316000000003 174.88799000000003,276.48402000000004 C 175.26284000000004,277.15455000000003 175.65188000000003,277.82866000000007 176.06249000000003,278.50001000000003 C 176.47718000000003,279.17805000000004 176.90726000000004,279.85533000000004 177.37198000000004,280.516 C 178.31024000000005,281.84989 178.83518000000004,282.48554 179.37465000000003,283.11466 C 179.91950000000003,283.75007 180.49651000000003,284.3714 181.10416000000004,284.97916000000004 C 181.72182000000004,285.59693000000004 182.37088000000003,286.20645 183.05866000000003,286.79868000000005 C 184.48052000000004,288.0229800000001 185.26046000000002,288.6042800000001 186.05065000000002,289.19867000000005 C 186.85010000000003,289.8000200000001 187.66500000000002,290.38977000000006 188.47916,290.97916000000004 C 189.28766000000002,291.56443 190.08953,292.13648000000006 190.86266,292.71466000000004 C 192.34241,293.82129000000003 193.01868000000002,294.37402000000003 193.66399,294.91733000000005 C 194.29329,295.44718000000006 194.89989,295.98395000000005 195.49999000000003,296.52085000000005 C 196.10256000000004,297.0599700000001 196.70752000000002,297.61335 197.33599000000004,298.16935000000007 C 198.66012000000003,299.34080000000006 199.38277000000005,299.9463600000001 200.13999000000004,300.56800000000004 C 200.92101000000005,301.20917000000003 201.73052000000004,301.85429000000005 202.56249000000005,302.50001000000003 C 203.40383000000006,303.15299000000005 204.25644000000005,303.80064000000004 205.11999000000006,304.43202 C 206.82476000000005,305.67848000000004 207.67665000000005,306.25963 208.51333000000005,306.83067 C 209.33668000000006,307.39259 210.15374000000006,307.93806 210.95832000000004,308.47917 C 211.75371000000004,309.01408000000004 212.54255000000003,309.5421 213.31333000000004,310.08269 C 214.84180000000003,311.15468000000004 215.58025000000004,311.71895 216.31599000000003,312.28136 C 217.04892000000004,312.8416 217.77224000000004,313.40721 218.50000000000003,313.95836 C 219.22293000000002,314.50585 219.94281000000004,315.04738000000003 220.68401000000003,315.54534 C 222.14777000000004,316.52877 222.91669000000002,316.94710000000003 223.69333000000003,317.34801 C 224.47844000000003,317.75327999999996 225.29724000000004,318.1303 226.14583000000002,318.50002 C 227.02385,318.88256 227.94724000000002,319.25866 228.91333000000003,319.65203 C 230.99944000000002,320.50143 232.12820000000002,320.96340000000004 233.30400000000003,321.45068000000003 C 234.51620000000003,321.95303 235.75113000000002,322.46750000000003 237.00000000000003,322.97918000000004 C 238.24713000000003,323.49017000000003 239.48062000000002,323.99349000000007 240.69600000000003,324.46270000000004 C 242.99374000000003,325.34975000000003 244.06786000000002,325.72515000000004 245.09334,326.05468 C 246.07149,326.36898 247.02295,326.63964000000004 247.95833000000002,326.85418000000004 C 248.87660000000002,327.06478000000004 249.79857,327.23547 250.73334000000003,327.33868000000007 C 252.66167000000002,327.55160000000006 253.68529000000004,327.54654000000005 254.73600000000002,327.54535000000004 C 255.81075,327.54413000000005 256.90156,327.50769 258.00001000000003,327.45837000000006 C 259.09892,327.40902000000006 260.18925,327.34231000000005 261.26402,327.28137000000004 C 263.33320000000003,327.16403 264.31535,327.12118000000004 265.26936,327.08002000000005 C 266.20735,327.03952000000004 267.14177,327.00009000000006 268.08336,326.93753000000004 C 269.04582000000005,326.87357000000003 270.0414,326.79282000000006 271.07735,326.66003000000006 C 273.33840000000004,326.3702400000001 274.57390000000004,326.12475000000006 275.88002,325.8560100000001 C 277.25078,325.5739700000001 278.66927,325.2450800000001 280.12502,324.87502000000006 C 281.61611,324.4959600000001 283.12667,324.0844000000001 284.64003,323.62401000000006 C 287.67705,322.7001200000001 289.16002000000003,322.16731000000004 290.62401,321.6306900000001 C 292.07137,321.10017000000005 293.48836,320.54613000000006 294.87502,319.97917000000007 C 296.23772,319.42201000000006 297.56554,318.85539000000006 298.85601,318.28267000000005 C 301.33953,317.18047000000007 302.51379000000003,316.62129000000004 303.66003,316.0906800000001 C 304.77548,315.57432000000006 305.8667,315.07869000000005 306.93753,314.60417000000007 L 307.99338,314.15468000000004 L 309.03919,313.73317000000003 L 310.08002000000005,313.34270000000004" fill="none" id="svg_4" stroke="#000" stroke-width="2"/>
</svg>
