<?xml version="1.0" ?>
<svg baseProfile="full" height="480" version="1.1" width="640" xmlns="http://www.w3.org/2000/svg" xmlns:ev="http://www.w3.org/2001/xml-events" xmlns:xlink="http://www.w3.org/1999/xlink">
	<defs/>
	<path d="M 218.0,195.0 C 224.81366,205.7635 225.23793,206.28008 225.66234,206.67117 C 226.34725,207.30232999999998 227.26019,207.72252 228.19017,208.29999999999998 C 228.77342,208.66217999999998 229.47232,209.22852999999998 230.24667,209.6 C 231.15117,210.03391 231.95361,210.32366 232.84665999999999,210.56399 C 233.48155999999997,210.73484 234.52085,210.88795 235.26166999999998,210.94732 C 236.04094999999998,211.00977 236.8643,211.0256 238.16666999999998,211.16666999999998 C 239.08625999999998,211.26628 239.5544,211.34749 240.49999999999997,211.52083 C 241.44915999999998,211.69481 241.91775999999996,211.79343999999998 243.27849999999998,212.10001 C 244.14397999999997,212.295 244.97955,212.49842999999998 245.79549999999998,212.7 C 247.00057999999999,212.99768 247.80198,213.19389999999999 248.59999999999997,213.41065999999998 C 249.40204999999997,213.62851999999998 249.80995999999996,213.72904999999997 250.99998999999997,214.16666999999998 C 251.81123999999997,214.46498999999997 252.62805999999998,214.83536999999998 253.50798999999998,215.17467 C 253.96948999999998,215.35262 255.49821999999998,215.84043 256.06433,215.9785 C 256.65292,216.12207 257.89676,216.36724999999998 258.54166,216.47917 C 259.19547,216.59263 259.85623999999996,216.69613 260.51867999999996,216.79866 C 262.47802999999993,217.1019 263.11346999999995,217.19922000000003 263.73834999999997,217.3 C 264.35346,217.39921 265.55366,217.59828000000002 266.13833999999997,217.69999 C 267.83423,217.995 268.37872999999996,218.09893000000002 268.91468,218.19999 C 269.96439,218.39791000000002 270.98942,218.59954000000002 271.49552,218.69999 C 273.00028,218.99864000000002 273.50007,219.10224000000002 274.51349,219.3 C 275.0318,219.40114 276.10769999999997,219.60174 276.67151,219.69999 C 277.25571,219.80180000000001 279.16382,220.10125000000002 279.85199,220.19999 C 280.55783,220.30128000000002 281.276,220.39999 282.0,220.49999000000003 C 282.724,220.60000000000002 283.44244,220.69680000000002 284.14801,220.79999000000004 C 286.13684,221.09085000000005 286.74399,221.19867000000005 287.32849,221.29549000000003 C 288.4375,221.47919000000002 288.96596999999997,221.57833000000002 289.996,221.71465000000003 C 290.99825999999996,221.84729000000004 291.99978,221.91999000000004 293.0,221.97466000000003 C 293.49991,222.00199000000003 294.50049,222.04546000000002 295.0,222.08399000000003 C 296.50232,222.19987000000003 297.51389,222.35456000000002 298.03201,222.43600000000004 C 299.10885,222.60527000000005 299.67123000000004,222.70619000000005 300.25601,222.80133000000004 C 301.49942,223.00362000000004 302.85299,223.20110000000003 303.5625,223.29550000000003 C 304.28632,223.39181000000002 305.02051,223.48213000000004 305.76001,223.56399000000005 C 306.49884000000003,223.64579000000003 307.23239,223.72685000000004 308.66666000000004,223.83332000000004 C 309.35645000000005,223.88453000000004 310.68113000000005,223.94801000000004 311.31733,223.97466000000006 C 311.93748000000005,224.00065000000006 313.13416,224.04703000000006 313.71201,224.08399000000006 C 314.83411,224.15575000000007 315.9151,224.28083000000007 316.44284000000005,224.35265000000007 C 317.48001000000005,224.49379000000008 318.49460000000005,224.65435000000008 318.99866000000003,224.71599000000006 C 320.49793000000005,224.89937000000006 321.00223000000005,224.92447000000007 322.02133000000003,224.96399000000005 C 322.54147000000006,224.98416000000006 323.61432,224.99686000000005 324.17065,224.99866000000006 C 325.94265,225.00438000000005 326.56799,224.99999000000005 327.20532000000003,224.99999000000005 C 327.85068,224.99999000000005 329.14932000000005,224.99999000000005 329.79468,224.99999000000005 C 330.43201000000005,224.99999000000005 331.66666000000004,224.99733000000006 332.82935000000003,225.00132000000005 C 333.38569,225.00323000000006 334.45853000000005,225.01582000000005 334.97867,225.03599000000006 C 335.99777,225.07551000000007 337.00153,225.15431000000007 337.99866000000003,225.28399000000005 C 338.99100000000004,225.41305000000006 339.47782,225.50903000000005 340.44284000000005,225.64733000000004 C 341.83154,225.84635000000003 342.27762000000007,225.89185000000003 343.14282000000003,225.94283000000004 C 343.97848000000005,225.99207000000004 344.7955,225.99674000000005 346.00000000000006,225.99999000000005 C 346.79868000000005,226.00214000000005 347.59033000000005,225.98897000000005 348.36401000000006,226.03599000000006 C 349.8364200000001,226.12547000000006 350.52063000000004,226.27680000000007 351.19601000000006,226.43600000000006 C 351.89947000000006,226.60182000000006 352.6502300000001,226.82139000000006 353.9641700000001,227.09983000000005 C 354.95938000000007,227.31074000000007 355.4859600000001,227.39359000000005 356.0208400000001,227.47916000000006 C 357.0978100000001,227.65145000000007 357.6304600000001,227.74382000000006 359.1571600000001,227.87848000000005 C 360.08877000000007,227.96065000000004 360.9790900000001,227.98189000000005 361.4146700000001,227.98932000000005 C 362.28259000000014,228.00412000000006 363.6214900000001,227.99999000000005 364.5571600000001,227.99999000000005 C 365.03601000000015,227.99999000000005 366.01068000000015,227.99999000000005 367.00134000000014,227.99999000000005 C 368.0000000000001,227.99999000000005 369.00265000000013,227.99999000000005 369.5090000000001,227.99999000000005 C 370.5416500000001,227.99999000000005 371.07199000000014,227.99999000000005 372.17065000000014,227.99999000000005 C 373.33334000000013,227.99999000000005 374.56668000000013,227.99985000000007 375.2008300000001,228.00449000000006 C 375.8399900000001,228.00917000000007 376.4795200000001,228.00991000000005 377.7374800000001,228.05715000000006 C 378.34689000000014,228.08004000000005 379.5021900000001,228.14849000000007 380.54531000000014,228.28399000000007 C 381.5049700000001,228.40865000000008 381.95653000000016,228.51118000000008 382.84365000000014,228.64733000000007 C 384.16421000000014,228.85001000000005 385.08639000000016,228.91993000000008 385.56167000000016,228.94283000000007 C 386.54119000000014,228.99003000000008 387.0466200000002,228.99335000000008 388.08666000000017,228.99866000000006 C 389.1666500000002,229.00417000000004 390.2826400000002,228.99999000000005 390.84817000000015,228.99999000000005 C 391.9791500000002,228.99999000000005 392.53866000000016,228.99999000000005 393.6306700000002,228.99999000000005 C 394.6666500000002,228.99999000000005 395.6279800000002,228.99999000000005 396.5173300000002,228.99999000000005 C 397.3426800000002,228.99999000000005 398.1120000000002,228.99999000000005 399.1786800000002,228.99999000000005 C 399.8473200000002,228.99999000000005 400.8253500000002,228.99968000000004 401.48401000000024,228.99999000000005 C 402.88800000000026,229.00066000000007 403.65759000000025,229.00332000000006 404.4826700000002,229.03599000000006 C 404.9190100000002,229.05326000000005 406.3341700000002,229.15963000000005 407.3693300000002,229.28399000000005 C 407.9102800000002,229.34898000000004 408.46100000000024,229.42785000000003 409.5853300000002,229.57465000000005 C 410.1516800000002,229.64859000000004 411.83289000000025,229.83933000000005 412.37833000000023,229.87848000000005 C 413.43756000000025,229.95451000000006 413.95319000000023,229.97029000000006 414.95334000000025,229.98932000000005 C 415.43826000000024,229.99854000000005 416.83338000000026,229.99576000000005 417.7133500000003,230.00131000000005 C 418.5533800000003,230.00662000000005 419.3552300000003,230.01237000000003 420.1133400000003,230.08531000000005 C 421.1820700000003,230.18814000000006 422.15158000000025,230.43239000000005 423.03833000000026,230.64732000000004 C 423.83185000000026,230.83964000000003 424.77304000000026,230.91989000000004 425.5986600000003,231.08398000000003 C 426.6155400000003,231.28608000000003 427.17819000000026,231.65885000000003 428.1998300000003,231.87847000000002 C 428.9680800000003,232.04362000000003 430.2578700000003,232.46703000000002 430.8785100000003,231.77848000000003 C 431.47229000000027,231.11971000000003 431.0000000000003,229.99998000000002 431.0000000000003,229.19997000000004 C 431.0000000000003,228.36397000000002 431.0533100000003,227.33648000000002 430.9428400000003,226.59548000000004 C 430.79245000000026,225.58661000000004 430.4470200000003,224.79841000000005 429.8999900000003,224.02147000000005 C 429.4455200000003,223.37602000000004 428.7281100000003,222.65938000000006 428.11465000000027,222.19997000000006 C 427.37857000000025,221.64872000000005 426.59594000000027,221.29908000000006 425.7999800000003,220.89997000000005 C 425.0004500000003,220.49908000000005 424.4135400000003,220.17153000000005 423.3955000000003,219.70447000000004 C 422.7718100000003,219.41832000000005 421.5811100000003,219.09424000000004 420.7746500000003,219.03597000000005 C 419.9541800000003,218.97669000000005 418.92132000000026,218.99997000000005 418.22533000000027,218.99997000000005 C 417.31600000000026,218.99997000000005 416.3133100000003,218.99997000000005 415.4583300000003,218.99997000000005 C 414.83833000000027,218.99997000000005 413.8333300000003,218.99997000000005 412.7518200000003,218.99997000000005 C 412.0208300000003,218.99997000000005 411.3098300000003,218.99997000000005 410.0431400000003,218.99997000000005 C 409.2826400000003,218.99997000000005 408.48799000000025,218.99997000000005 407.4466400000003,218.99997000000005 L 406.5639800000003,218.98930000000004" fill="none" id="svg_4" stroke="#000" stroke-width="2"/>
</svg>
