<?xml version="1.0" ?>
<svg baseProfile="full" height="480" version="1.1" width="640" xmlns="http://www.w3.org/2000/svg" xmlns:ev="http://www.w3.org/2001/xml-events" xmlns:xlink="http://www.w3.org/1999/xlink">
	<defs/>
	<path d="M 278.41,168.66 C 279.28866000000005,169.88133 280.02020000000005,170.39788 280.37399000000005,171.096 C 280.76489000000004,171.86736 280.41,172.85999 280.41,173.76 C 280.41,174.65999 280.41,175.45999999999998 280.41,176.35998999999998 C 280.41,177.26 280.41,178.15999 280.41,179.05998999999997 C 280.41,179.96449999999996 280.51373,180.99272999999997 280.38916,181.63916999999998 C 280.20569,182.5912 279.44559,183.10664999999997 279.40985,183.98149999999998 C 279.37353,184.87063999999998 279.1998,185.86389999999997 278.91,186.63916999999998 C 278.58896000000004,187.49802999999997 278.41021,188.32469999999998 277.84201,189.14532999999997 C 277.45035,189.71098999999998 276.82602,190.20541999999998 276.52432,191.25999999999996 C 276.30237,192.03576999999996 276.48657,193.07173999999995 276.33801,193.89598999999995 C 276.16653,194.84733999999995 275.70276,195.61163999999997 275.41,196.15999999999997 C 274.97516,196.97447999999997 274.51565000000005,197.96602999999996 274.43133,198.84932999999998 C 274.33529,199.85547999999997 274.53726,200.68071999999998 274.18865,201.63867 C 273.93664,202.33113999999998 273.45711,203.14126 273.41447999999997,204.00734 C 273.37044,204.90176 273.41164,205.86267 273.40999,206.63068 C 273.40773,207.66983000000002 273.44219,208.45613 273.24333,209.49334000000002 C 273.10438,210.21798 272.76283,210.86923000000002 272.53132,212.08135000000001 C 272.43083,212.60758 272.46305,213.44814000000002 272.24333,214.49334000000002 C 272.04399,215.44149000000002 271.68397,216.04522000000003 271.21132,217.06268000000003 C 270.91731,217.69558000000004 270.64613,218.42344000000003 270.494,219.62935000000002 C 270.40706,220.31838000000002 270.40776000000005,221.04758 270.32597000000004,221.77736000000002 C 270.16887,223.17902 270.00422000000003,223.82309 269.70549000000005,224.69835 C 269.34611000000007,225.75131000000002 268.97334000000006,226.39479 268.69533000000007,227.17336 C 268.3499300000001,228.14063000000002 268.16469000000006,228.97329 267.90999000000005,229.72252 C 267.67128,230.42471 267.48305000000005,231.62724 267.446,232.31069 C 267.40813,233.00879 267.40999000000005,234.3267 267.40999000000005,235.1412 C 267.40999000000005,235.99385999999998 267.40999000000005,236.90286 267.40999000000005,237.8627 C 267.40999000000005,238.63071 267.40999000000005,239.66537 267.40999000000005,240.40936 C 267.40999000000005,241.3267 267.40999000000005,242.2747 267.40999000000005,243.14401999999998 C 267.40999000000005,244.00735999999998 267.40999000000005,244.90284999999997 267.40999000000005,245.86269 C 267.40999000000005,246.6307 267.40999000000005,247.66536 267.40999000000005,248.40935 C 267.40999000000005,249.32668999999999 267.321,250.2446 267.42067000000003,251.07067999999998 C 267.53264,251.99866999999998 268.02153000000004,252.62389 268.28850000000006,253.63851999999997 C 268.49941000000007,254.44015999999996 268.40999000000005,255.33201999999997 268.40999000000005,256.20268 C 268.40999000000005,257.16002 268.24980000000005,257.90535 268.42067000000003,258.98802 C 268.56331,259.89192 269.1458,260.53956 269.36183000000005,261.3127 C 269.6014200000001,262.17015000000004 270.19154000000003,262.83013 270.70466000000005,263.41268 C 271.4204500000001,264.2253 271.36775000000006,265.0906 271.69532000000004,266.05736 C 271.95200000000006,266.81487000000004 272.85557000000006,267.29796 273.28849,268.10286 C 273.64411,268.76402 273.22099000000003,269.83757 273.63132,270.76003000000003 C 273.93039,271.43236 274.32761,272.32522 274.84598,273.06002 C 275.32065,273.73290000000003 276.1597,274.19582 276.38913,275.16003 C 276.5976,276.03613 276.77737,276.80804 277.12598,277.46002 C 277.57907,278.30743 277.95206,279.10571 278.70548,279.60735999999997 C 279.39472,280.06627999999995 279.38736,280.97281 279.8353,281.64534999999995 C 280.32828,282.38551999999993 280.48285000000004,283.1024699999999 281.11447000000004,283.76537999999994 C 281.69980000000004,284.37969999999996 282.04343000000006,285.06051999999994 282.70996,285.9028599999999 C 283.34982,286.71147999999994 283.95938,287.12285999999995 284.3573,287.96001999999993 C 284.76984,288.8279099999999 285.05865,289.48815999999994 285.46265,290.3600399999999 C 285.848,291.19166999999993 286.22309,292.0194899999999 286.63147,292.7600299999999 C 287.00342,293.43452999999994 287.79278999999997,294.07762999999994 288.50998,294.7598499999999 C 289.09630999999996,295.31758999999994 290.11440999999996,295.5276999999999 290.39929,296.2706799999999 C 290.71042,297.0821399999999 291.04147,297.4868699999999 291.90997,297.6808699999999 C 292.77823,297.8748399999999 293.33447,298.5410099999999 294.07662999999997,299.1600299999999 C 294.74224999999996,299.7151799999999 295.50937,300.3278499999999 295.90997,300.63918999999987 C 296.69554999999997,301.24971999999985 297.72253,302.02941999999985 298.26864,302.3200399999999 C 299.17431,302.8019999999999 299.91512,303.1755999999999 300.60998,303.8600499999999 C 301.11373000000003,304.3562699999999 301.79708,305.1118199999999 302.38064,305.4600299999999 C 303.36578000000003,306.0478599999999 304.14947,306.2600499999999 305.07662000000005,306.4933899999999 C 305.86120000000005,306.6908399999999 306.7137000000001,307.01316999999995 307.40996000000007,307.6600499999999 C 308.0132300000001,308.2205399999999 308.85314000000005,308.5449999999999 309.70995000000005,309.0127099999999 C 310.4552800000001,309.4195699999999 311.29400000000004,309.3773599999999 312.10997000000003,309.7743699999999 C 312.86726000000004,310.1428399999999 313.12456000000003,311.2281099999999 313.93080000000003,311.63920999999993 C 314.67586000000006,312.01908999999995 315.56410000000005,312.29777999999993 316.52595,312.5760399999999 C 317.28117000000003,312.7945199999999 318.04518,313.0573299999999 318.92594,313.37605999999994 C 319.75962000000004,313.6777599999999 320.56168,314.05076999999994 321.38062,314.37605999999994 C 322.14551,314.67985999999996 322.93061,314.64851999999996 323.72727000000003,314.6587099999999 C 324.95719,314.6744299999999 325.63529000000005,314.66004999999996 326.83127,314.66004999999996 C 327.63529,314.66004999999996 328.45731,314.65220999999997 329.48844,314.6602 C 330.17402000000004,314.66551 331.02198000000004,314.6996 332.00995,315.01270999999997 C 332.82263,315.27027999999996 333.81171,315.57304 334.43079,315.66004999999996 C 335.5774,315.82117999999997 336.36603,316.00618 336.90995,316.18089 C 337.73148,316.44478 338.71252999999996,316.88446999999996 339.56327,317.22404 C 340.51484,317.60386 341.29395,317.65937 342.2353,317.66004 C 343.2433,317.66076999999996 343.99928,317.66004 344.90995,317.66004 C 345.80994,317.66004 346.70993999999996,317.66004 347.60996,317.66004 C 348.50995,317.66004 349.40995,317.65815 350.16712,317.66004 C 351.06711,317.66229999999996 351.83256,317.64887 352.80863,317.94404 C 353.59226,318.18100999999996 354.52335,318.61735 355.5766,318.66004 C 356.23474,318.68671 357.24329,318.66004 358.03528,318.66004 C 359.06262,318.66004 359.77069,318.50570999999997 360.77396,318.67071999999996 C 361.64306999999997,318.81365999999997 362.27988,319.44229999999993 363.25663,319.63471 C 363.86485,319.75451999999996 365.09454999999997,319.94174999999996 365.63529,320.08536 C 366.4582,320.3039 367.4881,320.54273 368.40995,320.66004 C 369.09357,320.74705 370.09936999999996,320.93134 370.93079,321.18088 C 371.81589,321.44651 372.70697,321.76862 373.59928,322.04938 C 374.17222000000004,322.22968 375.24100000000004,322.50962 376.18461,322.63471 C 376.86118000000005,322.7244 377.83396000000005,322.87061 378.62461,323.08536 C 379.40308000000005,323.29681999999997 380.44648,323.55255 381.21528,323.71270999999996 C 382.18455,323.91463999999996 382.89527,324.21648999999996 384.07661,324.49337999999995 C 384.86036,324.67706999999996 385.70994,324.6600399999999 386.60997000000003,324.6600399999999 C 387.50996000000004,324.6600399999999 388.44478000000004,324.82330999999994 389.20995000000005,324.5747099999999 C 390.0008700000001,324.31774999999993 390.89116000000007,323.71154999999993 391.58461000000005,323.6707199999999 C 392.6555000000001,323.6076699999999 393.5766100000001,323.6600399999999 394.2459600000001,323.6600399999999 C 395.40996000000007,323.6600399999999 396.2099500000001,323.66070999999994 397.00997000000007,323.6600399999999 C 397.81396000000007,323.6593699999999 398.72130000000004,323.65133999999995 399.90996000000007,323.49337999999995 C 400.6631300000001,323.39327999999995 401.4753600000001,323.2350799999999 402.29796000000005,323.0853599999999 C 403.07268000000005,322.94436999999994 404.01912000000004,322.72622999999993 404.9673,322.6707199999999 C 405.81917000000004,322.6208499999999 406.77303,322.8027399999999 407.38911,323.1808799999999 C 408.31651,323.7500899999999 408.24855,324.70281999999986 408.52427,325.4172099999999 C 408.91151,326.4205099999999 409.5926,326.8373499999999 410.24329,327.4933799999999 C 410.90723,328.1627499999999 411.5766,328.82668999999987 412.06263,329.3127199999999 C 412.75727,330.0073599999999 413.38938,330.6375799999999 413.99928,331.2493699999999 C 414.71559,331.9679099999999 415.17851,332.4657999999999 415.89528,333.42804999999987 C 416.25166,333.9064999999999 416.76427,334.70279999999985 417.40996,335.32669999999985 C 418.15639,336.04794999999984 418.81792,336.33572999999984 419.80864,336.86136999999985 C 420.39397,337.17191999999983 421.2751,337.80219999999986 421.78462,338.4960399999999 C 422.18870000000004,339.04629999999986 422.71568,339.87356999999986 423.2353,340.4493799999999 C 423.90629,341.1929399999999 424.65708,341.9075999999999 425.16261,342.4126999999999 C 425.89493999999996,343.14438999999993 426.40999,343.6844599999999 427.01126999999997,344.17603999999994 C 427.78320999999994,344.80713999999995 428.61075999999997,345.19492999999994 429.38843999999995,345.7600499999999 C 430.14475999999996,346.3096699999999 430.71710999999993,346.95291999999995 431.4099499999999,347.6600399999999 C 431.91522999999995,348.1757599999999 432.47412999999995,349.00436999999994 432.9099499999999,349.6391999999999 C 433.4660999999999,350.4492599999999 434.31314999999995,350.6971499999999 435.0626299999999,351.0172199999999 C 435.7768599999999,351.3222399999999 436.6360199999999,351.9883799999999 437.2939499999999,352.4600299999999 C 438.0442899999999,352.9978999999999 438.8407599999999,353.3818399999999 439.6097799999999,353.9813599999999 C 440.2214699999999,354.4582299999999 440.7368199999999,355.0237799999999 441.5259499999999,355.7746899999999 C 442.1502499999999,356.3687799999999 442.9186199999999,356.8689599999999 443.3952699999999,357.1880499999999 C 444.13195999999994,357.6812099999999 444.6181399999999,358.0414999999999 445.20593999999994,358.48403999999994 C 446.75226999999995,359.6482199999999 447.71011999999996,360.4145199999999 448.7872699999999,361.26937999999996 C 449.95321999999993,362.19469999999995 451.1755099999999,363.17440999999997 452.4307599999999,364.18087999999995 C 453.6914999999999,365.1917399999999 454.9282599999999,366.1870799999999 456.1192699999999,367.13735999999994 C 458.2406399999999,368.82998999999995 459.12808999999993,369.52678999999995 459.9019199999999,370.12136999999996 C 460.5690999999999,370.63399999999996 461.1494499999999,371.06841999999995 461.6599199999999,371.43087999999995 C 462.1045299999999,371.74654999999996 462.5050099999999,372.0162399999999 462.8779099999999,372.24535999999995 C 463.57013999999987,372.67070999999993 463.9310399999999,372.86028999999996 464.2925799999999,373.06136999999995 C 464.6580299999999,373.26462 465.0262799999999,373.46773999999994 465.38907999999986,373.68087999999995 C 465.7503199999999,373.89309999999995 466.10675999999984,374.10751999999997 466.4405899999999,374.34536999999995 C 467.09015999999986,374.8082299999999 467.37192999999985,375.07607999999993 467.63925999999987,375.34270999999995 C 467.90054999999984,375.60329999999993 468.3559999999999,376.14980999999995 468.8009099999999,376.65020999999996 C 469.5888399999999,377.53637999999995 470.20153999999985,378.02422999999993 470.8670699999999,378.35105 C 471.8072299999999,378.81272 472.6500299999999,379.03756999999996 473.4572499999999,379.41721 C 474.2592499999999,379.79441 474.9707999999999,380.29679 475.59924999999987,380.8707 C 476.43475999999987,381.6337 476.99264999999986,382.27433 477.60992999999985,382.82404 C 478.38888999999983,383.51777000000004 479.02484999999984,383.89618 479.64590999999984,384.32138000000003 C 480.59310999999985,384.96988000000005 481.0957099999998,385.42602000000005 481.63525999999985,385.9107 C 482.46002999999985,386.65161 483.22177999999985,387.35742000000005 483.95275999999984,387.8457 C 484.58187999999984,388.26593 485.41701999999987,388.6463 486.19924999999984,389.06002 C 486.93145999999984,389.44729 487.8143299999998,390.03664000000003 488.20858999999984,390.54537 C 488.89565999999985,391.43197 489.09054999999984,392.08788 489.89391999999987,392.77468 C 490.5309099999999,393.31924 491.3767099999999,393.77578 492.03524999999985,394.26003 C 492.87917999999985,394.88059999999996 493.62807999999984,395.19606999999996 494.3883999999999,395.76018 C 495.04095999999987,396.24433999999997 495.4440899999999,397.02529 496.00991999999985,397.79868999999997 C 496.55071999999984,398.53788999999995 497.3636799999999,398.90214 498.10992999999985,399.30735999999996 C 498.8710399999998,399.72062999999997 499.8524199999998,399.71959 500.4352499999998,400.2347 C 501.02304999999984,400.75419999999997 501.5642199999998,401.57628 502.40991999999983,401.66002 C 503.20599999999985,401.73884999999996 504.2333499999998,401.24733 505.0527399999998,401.71718 C 505.7406099999998,402.11161999999996 506.40991999999983,402.66002 507.2099099999998,402.66002 C 508.0459099999998,402.66002 509.0741099999998,402.58067 509.7572399999998,402.71718 C 510.6819499999998,402.90193 511.5032699999998,403.59513999999996 512.2242499999998,403.65553 C 513.1759699999998,403.73524 513.9307299999998,403.65855 514.7272399999997,403.66002 C 515.9572799999997,403.66227999999995 516.6424599999997,403.65171999999995 517.5766099999997,403.82667999999995 C 518.3704899999997,403.97535999999997 519.1727999999997,404.28887 520.2432399999998,404.49336999999997 C 521.1767099999998,404.67170999999996 521.8625599999998,404.65776999999997 522.8314399999998,404.66002999999995 C 523.6459499999999,404.66191999999995 524.5144199999999,404.66002999999995 525.7097399999998,404.66002999999995 C 526.3054399999997,404.66002999999995 527.1739099999998,404.66002999999995 528.2432499999998,404.66002999999995 C 529.1739099999998,404.66002999999995 529.8054399999997,404.66002999999995 530.8086199999998,404.66002999999995 C 531.7527699999998,404.66002999999995 532.6713499999998,404.84505999999993 533.6099499999998,404.65736999999996 C 534.4587699999998,404.48762999999997 534.9183599999998,403.62278999999995 535.2099299999998,403.05735999999996 C 535.7249399999997,402.05861 536.0373199999998,401.39793999999995 536.4099399999998,400.32667999999995 C 536.6288099999998,399.69744 536.7640699999998,398.98152999999996 537.2242699999998,397.96534999999994 C 537.6787999999998,396.96162999999996 538.1563399999998,396.40696999999994 538.6712899999998,395.93201999999997 C 539.4296499999998,395.23256 540.2553999999998,394.67409 540.9527799999997,394.06001 C 541.3970499999997,393.66884 542.0027099999998,393.05402999999995 542.8099599999997,392.26133 C 543.4055999999997,391.6764 543.9878799999997,391.11485 544.8099599999997,390.54401 C 545.3950999999997,390.13773000000003 546.4243399999997,389.51050000000004 547.0054599999997,389.00733 C 547.5888999999997,388.50214 548.3686199999997,387.65958 548.9307499999998,387.16001 C 549.7163299999997,386.46186 550.4160399999997,386.01447 550.8891199999997,385.66001 C 551.5642899999997,385.15412 552.1489499999997,384.19935 552.6952699999997,383.46134 C 553.2639299999997,382.69312 554.4896399999997,382.53989 554.2379299999997,381.85868 C 553.9238999999997,381.00876999999997 552.5545199999997,380.8924 551.9099299999997,380.63917 C 551.0503699999997,380.30145999999996 550.4052899999997,379.61960999999997 549.8086099999997,379.14268 C 549.0301699999997,378.52045999999996 548.2285299999998,378.04636999999997 547.4099299999997,377.82667 C 546.6234899999997,377.61557999999997 545.7590499999997,377.57581999999996 544.8099499999997,376.95016999999996 C 544.1707299999997,376.52880999999996 543.4265899999997,375.80111999999997 542.8099499999997,375.41718 C 542.0296199999997,374.93131 541.1965499999998,374.58435999999995 540.4099299999997,374.13915999999995 C 539.7989699999997,373.7933699999999 539.0173499999997,373.1653099999999 538.3891199999997,372.65999999999997 C 537.7334799999998,372.13268999999997 536.7271299999998,371.54425 536.1952699999997,371.28533999999996 C 535.4195699999997,370.90772 534.3725799999997,370.18172999999996 533.9307399999997,369.65999999999997 C 533.2325599999997,368.83559999999994 532.7692399999996,368.38881999999995 532.0054499999997,367.9645 C 531.0308399999997,367.42305999999996 530.4052899999997,367.20045999999996 529.4312899999996,366.56016999999997 C 528.7661299999996,366.12291 527.9094999999996,365.80442999999997 527.1992299999996,365.59864999999996 C 526.1809799999996,365.30366999999995 525.6540599999996,364.76493999999997 524.8952699999996,364.22797999999995 C 524.1867699999997,363.72660999999994 523.4287799999996,363.61814999999996 522.3955799999997,363.29831999999993 C 521.5780099999996,363.0452399999999 520.9907899999996,362.8057999999999 520.1101199999997,362.33847999999995 C 519.2024099999998,361.85681999999997 518.6239099999997,361.47830999999996 517.5766099999997,360.65997999999996 C 517.0818599999998,360.27338 516.4029599999998,359.64243 515.9000999999997,359.25998999999996 C 514.7959099999997,358.42024 514.0962699999998,358.05429999999996 513.7379299999998,357.84930999999995 C 512.9900099999998,357.42148 512.1958799999998,356.99285999999995 511.00974999999977,356.23846999999995 C 510.6045999999998,355.98080999999996 509.79899999999975,355.42434999999995 508.9739199999998,354.84930999999995 C 508.5526199999998,354.55566999999996 507.2460799999998,353.6556499999999 506.7884299999998,353.3603299999999 C 505.85840999999976,352.7601699999999 505.3782099999998,352.47372999999993 504.88907999999975,352.20163999999994 C 503.9137699999998,351.65909999999997 503.42691999999977,351.38492999999994 501.91040999999973,350.80280999999997 C 501.41940999999974,350.61432999999994 500.44101999999975,350.32438999999994 499.5179199999997,350.04533 C 499.08099999999973,349.91325 497.8784199999997,349.54908 496.9768999999997,349.00282 C 496.4304499999997,348.6717 495.7467399999997,348.03547 494.9884099999997,347.46031 C 494.1922399999997,346.85643 493.6375499999997,346.43782 492.4099199999997,345.99333 C 491.8259399999997,345.7819 490.9118999999997,345.73573 490.09524999999974,345.49199 C 489.06271999999973,345.18381999999997 488.43948999999975,344.62804 487.81124999999975,344.14266 C 487.0180099999997,343.52977999999996 486.37200999999976,343.15276 485.6392499999997,342.77599 C 484.7715999999997,342.32988 484.1004899999997,342.01054999999997 483.40990999999974,341.63915 C 482.71099999999973,341.26325999999995 481.44741999999974,340.46727 480.91973999999976,340.06449999999995 C 480.18770999999975,339.50575 479.7563199999998,339.09400999999997 478.72591999999975,338.54398999999995 C 477.93032999999974,338.1193099999999 477.32570999999973,337.9695899999999 476.33123999999975,337.33867 C 475.60561999999976,336.87831 474.9912399999998,336.25716 473.98840999999976,335.68131999999997 C 473.46872999999977,335.38291999999996 472.59222999999974,335.05012 472.00857999999977,334.77599 C 470.7931599999998,334.20513 470.1939099999998,333.82155 469.57391999999976,333.41332 C 468.9188299999998,332.98195 467.88769999999977,332.23989 467.1572599999998,331.70733 C 466.7841199999998,331.43527 466.03750999999977,330.88223 465.2939199999998,330.34399 C 464.2344399999998,329.57708 463.5672399999998,329.11013 462.9099199999998,328.68084000000005 C 462.2617299999998,328.25753000000003 461.2460099999998,327.65502000000004 460.52591999999976,327.26000000000005 C 459.78735999999975,326.85488000000004 459.4072399999998,326.66497000000004 458.66257999999976,326.26000000000005 C 457.57260999999977,325.66726000000006 456.89301999999975,325.26150000000007 456.2352699999998,324.86001000000005 C 455.2559299999998,324.26223000000005 454.2450399999998,323.65685 453.52728999999977,323.26000000000005 C 453.16266999999976,323.05840000000006 452.42041999999975,322.6778800000001 451.71978999999976,322.26000000000005 C 450.43307999999973,321.49254 449.92519999999973,321.06338000000005 449.23125999999974,320.49599000000006 C 448.41100999999975,319.82534000000004 447.80779999999976,319.40868000000006 447.17394999999976,319.0346600000001 C 446.24669999999975,318.4875100000001 445.45141999999976,318.01150000000007 444.9099399999998,317.6391500000001 C 444.0848099999998,317.0717400000001 443.32866999999976,316.4634000000001 442.6459299999998,315.8706600000001 C 442.0118399999998,315.3201500000001 441.2236899999998,314.6592300000001 440.6099499999998,314.2959800000001 C 439.8264399999998,313.8322300000001 439.0268199999998,313.4267200000001 438.2459399999998,313.0960000000001 C 437.3120399999998,312.7004900000001 436.4293799999998,312.3106300000001 435.9992699999998,311.8093200000001 C 435.27496999999977,310.96511000000015 434.4618599999998,310.99868000000015 433.6527699999998,310.4386500000001 C 432.9345999999998,309.9415500000001 432.24193999999983,309.4967600000001 431.5845899999998,309.2346700000001 C 430.5744899999998,308.83190000000013 429.8919599999998,308.6040900000001 429.30010999999985,307.9555000000001 C 428.7324199999998,307.3334000000001 428.05178999999987,307.0358800000001 427.0459299999998,306.6853300000001 C 426.20302999999984,306.39157000000006 425.5307599999998,305.92077000000006 424.59527999999983,305.6853300000001 C 423.74832999999984,305.4721600000001 423.31658999999985,304.59314000000006 422.76327999999984,304.0599900000001 C 422.15866999999986,303.4774100000001 421.42199999999985,303.1499300000001 420.43160999999986,302.7813300000001 C 419.58605999999986,302.46663000000007 419.37365999999986,301.5230900000001 418.70543999999984,301.0171700000001 C 418.01021999999983,300.4908000000001 417.0168699999998,300.36998000000006 416.53127999999987,299.5601700000001 C 416.0936599999999,298.8303700000001 415.3503699999999,298.37502000000006 414.7099299999999,298.01265000000006 C 413.8891599999999,297.54823000000005 413.32250999999985,297.0570200000001 412.6482799999999,296.49300000000005 C 411.88475999999986,295.85427000000004 411.4081399999999,295.15313000000003 411.1197799999999,294.66082000000006 C 410.5318299999999,293.65701000000007 410.29442999999986,292.88189000000006 409.8352599999999,292.0599900000001 C 409.4036799999999,291.2874700000001 408.7786199999999,290.6742200000001 408.3846099999999,290.0493400000001 C 407.9126299999999,289.3008000000001 407.49394999999987,288.4613300000001 407.0572799999999,287.71267000000006 L 406.4352699999999,287.2239900000001 L 406.0572799999999,286.36001000000005" fill="none" id="svg_6" stroke="#000" stroke-width="2"/>
</svg>
