<?xml version="1.0" ?>
<svg baseProfile="full" height="480" version="1.1" width="640" xmlns="http://www.w3.org/2000/svg" xmlns:ev="http://www.w3.org/2001/xml-events" xmlns:xlink="http://www.w3.org/1999/xlink">
	<defs/>
	<path d="M 296.0,342.0 C 296.0,355.0 296.0,356.2995 296.0,357.59601 C 296.0,358.88651 296.0,360.168 296.0,361.4375 C 296.0,362.69199 296.0,363.9285 296.0,365.14401 C 296.0,367.5 296.0,368.63482 296.0,369.73868 C 296.0,370.81049 296.0,371.84934 296.0,372.85416 C 296.0,373.82401 296.0,374.75784999999996 296.0,375.65466999999995 C 296.0,377.33334999999994 295.99817,378.11367999999993 296.00266,378.85598999999996 C 296.00693,379.56237999999996 296.0156,380.2349 296.04166,380.87499999999994 C 296.06653,381.48556999999994 296.09936999999996,382.06936999999994 296.17066,382.62398999999994 C 296.30521,383.6706499999999 296.43271,384.16051999999996 296.57334,384.63332999999994 C 296.71286999999995,385.10238999999996 296.8859,385.5631399999999 297.08335,386.02083999999996 C 297.28574,386.49001999999996 297.51841,386.96504999999996 297.77335,387.45333999999997 C 298.32276,388.50561999999996 298.64115,389.06356999999997 298.96398999999997,389.64401 C 299.2908,390.23156 299.61785999999995,390.81246999999996 299.93749999999994,391.375 C 300.2405999999999,391.90842 300.52315999999996,392.39899 300.77599999999995,392.836 L 301.47333,393.95065" fill="none" id="svg_5" stroke="#000" stroke-width="2"/>
</svg>
