<?xml version="1.0" ?>
<svg baseProfile="full" height="480" version="1.1" width="640" xmlns="http://www.w3.org/2000/svg" xmlns:ev="http://www.w3.org/2001/xml-events" xmlns:xlink="http://www.w3.org/1999/xlink">
	<defs/>
	<path d="M 464.0,335.0 C 465.60001,335.57468 466.47601,335.83109 467.3045,336.36166 C 467.96383000000003,336.78389999999996 468.47506000000004,337.49487 469.02084,338.0 C 469.59085000000005,338.52756 470.60327,339.23019 471.34283000000005,339.6955 C 472.12582000000003,340.18811 472.65026000000006,340.65049 473.54266000000007,341.32151 C 474.2421800000001,341.84751 474.8066100000001,342.1486 475.66665000000006,343.00001 C 476.2256100000001,343.55339 476.60409000000004,344.38804 477.3045000000001,344.89466 C 478.0883100000001,345.46159 478.8429500000001,345.86472 479.4045100000001,346.409 C 480.20981000000006,347.18952 480.6420300000001,347.55111999999997 481.2856700000001,348.34283999999997 C 481.8833600000001,349.07804 482.2149900000001,349.92501999999996 482.8573300000001,350.48666999999995 C 483.5452900000001,351.0882 484.1736800000001,351.45742999999993 485.1666600000001,352.1666599999999 C 485.8848600000001,352.6796299999999 486.2468300000001,352.95001999999994 486.9791600000001,353.4791599999999 C 487.6888800000001,353.9919499999999 488.6635500000001,354.6715699999999 489.4766600000001,355.1856699999999 C 490.1042800000001,355.5824899999999 490.7557700000001,356.2554899999999 491.2533300000001,356.8853499999999 C 491.77872000000013,357.5504499999999 492.52539000000013,357.9937799999999 493.2333400000001,358.5159999999999 C 494.03723000000014,359.1089899999999 494.6342500000001,359.6469199999999 495.54315000000014,360.32150999999993 C 496.0106500000001,360.6684599999999 496.8516500000001,361.22000999999995 497.4880000000001,361.6013299999999 C 498.51208000000014,362.2149799999999 499.24398000000014,362.5948899999999 499.95834000000013,362.9791699999999 C 500.63330000000013,363.34226999999987 501.50238000000013,363.82972999999987 502.31332000000015,364.3640299999999 C 502.9685900000001,364.7957599999999 503.76800000000014,365.2000299999999 504.50000000000017,365.5000199999999 C 505.23199000000017,365.8000099999999 506.17737000000017,366.3182299999999 506.88266000000016,366.8000099999999 C 507.64389000000017,367.3199999999999 508.40729000000016,367.6945699999999 509.3986800000002,368.20002999999986 C 509.98080000000016,368.49680999999987 510.97400000000016,369.10618999999986 511.50000000000017,369.50001999999984 C 512.3145100000002,370.10981999999984 513.0467500000002,370.51200999999986 513.6866500000002,370.88536999999985 C 514.6935500000002,371.47285999999986 515.2425600000003,371.83751999999987 515.8106700000002,372.24669999999986 C 516.4083300000002,372.67714999999987 517.2993200000002,373.42159999999984 517.8955100000002,373.9436899999999 C 518.7632500000002,374.7035499999999 519.2544000000001,375.2596099999999 520.3173200000002,375.74669999999986 C 520.9909000000002,376.05534999999986 521.7838100000002,376.1245999999999 522.6430000000003,376.4431999999999 C 523.6921300000002,376.83220999999986 524.0514500000003,377.0444599999999 524.8090200000003,377.4661799999999 C 526.0163000000002,378.1382699999999 526.7977300000002,378.6807799999999 527.1909800000003,378.9436899999999 C 527.9590500000003,379.4572399999999 528.6498400000003,380.00011999999987 529.6666900000004,380.50002999999987 C 530.4743100000004,380.8970899999999 531.2948000000004,381.05178999999987 531.8533400000003,381.25203999999985 C 532.8809900000003,381.6204799999999 533.6671800000004,382.05855999999983 534.5208200000003,382.5416799999999 C 534.9625300000002,382.7916799999999 535.8366800000003,383.31331999999986 537.0568300000003,384.07835999999986 C 537.4290200000004,384.31172999999984 538.1132900000003,384.7596599999999 539.0338200000003,385.3383699999999 C 539.8299000000003,385.8388599999999 540.5379100000004,386.2523099999999 541.3955100000003,386.6955199999999 C 542.1955000000003,387.10890999999987 543.0000000000003,387.5000199999999 543.5999800000003,387.8000099999999 C 544.5999800000003,388.3000099999999 545.4020400000003,388.69603999999987 546.2002000000003,389.10017999999985 C 547.0228900000003,389.51673999999986 547.6916600000003,389.87492999999984 548.4215100000004,390.32151999999985 C 549.2432900000003,390.82435999999984 549.8114000000004,391.2096099999998 550.4013100000003,391.6013399999998 C 551.5988200000003,392.39653999999985 552.1826200000003,392.7836199999998 552.7280300000003,393.1640199999998 C 553.6736500000003,393.8234999999998 554.3502200000004,394.40626999999984 554.9196800000003,394.7526699999998 C 555.9522100000003,395.3807799999998 556.7267500000003,395.6616399999998 557.5833200000003,396.0208599999998 C 558.0416900000002,396.2130899999998 559.0052600000002,396.6015499999998 560.0000100000003,397.0000199999998 C 560.9959200000003,397.3989199999998 561.4870700000004,397.5941999999998 562.4375100000003,397.97917999999976 C 562.8922800000004,398.16337999999973 563.7492200000003,398.50267999999977 564.8358300000003,398.97868999999974 C 565.7176700000003,399.3649799999997 566.5013000000004,399.75178999999974 567.3333300000003,400.16667999999976 C 567.9684000000003,400.4833599999998 569.0000200000003,401.0000199999998 569.6946600000002,401.34733999999975 C 570.6667100000002,401.83335999999974 571.2293300000002,402.11466999999976 572.1786700000002,402.58933999999977 C 573.0000200000003,403.0000199999998 573.6140300000002,403.28699999999975 574.4571700000002,403.75718999999975 C 575.4331800000002,404.30146999999977 575.9600400000003,404.6598699999997 576.5417000000002,405.02085999999974 C 577.4840200000002,405.60566999999975 578.5209500000002,406.20222999999976 578.8893600000002,406.40269999999975 C 579.6659100000003,406.82527999999974 580.5194300000003,407.27067999999974 580.9760300000003,407.5143599999997 C 582.5024000000003,408.32889999999975 583.0648400000002,408.6413699999997 583.6519900000003,408.96934999999974 C 584.2588600000003,409.30833999999976 584.8777000000003,409.65846999999974 585.5000100000003,410.02085999999974 C 586.7453700000003,410.74604999999974 587.3538300000004,411.1081099999997 588.5000100000003,411.83335999999974 C 589.0379100000004,412.1737199999997 590.0189300000003,412.83018999999973 590.4706500000003,413.13200999999975 C 591.2950500000003,413.68284999999975 591.9928100000003,414.2097399999997 592.9569800000003,414.63585999999975 C 593.7064900000003,414.96712999999977 594.3910000000003,415.1008599999997 595.4000300000002,415.56801999999976 L 596.0000100000002,416.00002999999975 L 596.5999900000002,416.43203999999974 L 597.5819800000002,416.88570999999973" fill="none" id="svg_5" stroke="#000" stroke-width="2"/>
</svg>
