<?xml version="1.0" ?>
<svg baseProfile="full" height="480" version="1.1" width="640" xmlns="http://www.w3.org/2000/svg" xmlns:ev="http://www.w3.org/2001/xml-events" xmlns:xlink="http://www.w3.org/1999/xlink">
	<defs/>
	<path d="M 303.51135,139.09091 C 304.51135,139.09091 305.30246,139.15494 305.99536,139.65890000000002 C 306.72543,140.18991000000003 307.46695,140.94816000000003 308.31003,141.08824 C 309.17242999999996,141.23152000000002 310.05987999999996,141.29404000000002 310.76203,141.52691000000002 C 311.51279,141.77592 312.57511,142.24839000000003 313.20237,142.79090000000002 C 313.95597,143.44266000000002 314.47479999999996,144.13218000000003 315.14738,144.69091000000003 C 315.79985,145.23295000000002 316.49302,145.61832000000004 317.49003,145.96973000000003 C 318.25184,146.23824000000002 318.98042,146.67716000000001 319.68604,147.24024000000003 C 320.47384999999997,147.86889000000002 321.28656,148.07998000000003 322.16404,148.44806000000003 C 322.88026,148.74849000000003 323.55936,149.40917000000002 324.39536,149.80556 C 325.12104,150.14965 326.03952999999996,150.1458 326.88604999999995,150.51624 C 327.84763,150.93702000000002 328.55898999999994,150.93819000000002 329.49001999999996,151.3124 C 330.19030999999995,151.59386 331.00170999999995,152.28012999999999 331.68602999999996,152.69091 C 332.49757999999997,153.17808 333.06398999999993,153.73846 333.92202,154.06557 C 334.80382999999995,154.40175000000002 335.56892999999997,154.57842 336.51133999999996,155.25757000000002 C 337.13777,155.709 337.68206,156.30287 338.51133999999996,156.92423000000002 C 339.08768999999995,157.35607000000002 339.86042999999995,157.71081 340.87534999999997,158.06557000000004 C 341.71680999999995,158.35971000000004 342.39890999999994,158.64843000000005 343.21135,159.20073000000005 C 343.91044999999997,159.67600000000004 344.24555999999995,160.62108000000006 344.99052,161.04923000000005 C 345.74433,161.48246000000006 346.54731,161.82981000000004 347.31135,162.17490000000006 C 348.07948,162.52184000000005 348.82356,163.20760000000007 349.53218,163.59090000000006 C 350.49922,164.11397000000005 351.17122,164.28995000000006 351.79701,164.79090000000005 C 352.55046,165.39403000000004 352.66594,166.44814000000005 353.05302,167.09090000000006 C 353.5904,167.98323000000005 354.34599000000003,168.44045000000006 355.02735,168.88956000000007 C 355.76459,169.37549000000007 356.47831,170.12598000000008 357.07535,170.65490000000008 C 357.80689,171.3029300000001 358.63696,171.47678000000008 359.26868,172.1909100000001 C 359.8064,172.79877000000008 360.38861,173.46587000000008 361.02866,173.89091000000008 C 361.89829,174.46842000000007 362.51822,175.25344000000007 362.91135,175.91624000000007 C 363.31852000000003,176.60270000000008 363.87339000000003,177.51767000000007 364.67801000000003,178.09091000000006 C 365.31308,178.54335000000006 365.91977,178.78316000000007 366.91,179.29091000000005 C 367.67843000000005,179.68492000000006 368.56942000000004,180.11786000000006 368.99051000000003,180.65341000000006 C 369.65338,181.49647000000007 369.79767000000004,182.45099000000008 370.03217,183.07008000000008 C 370.37073,183.96385000000006 371.06119,184.6604700000001 371.65000000000003,185.15625000000009 C 372.45435000000003,185.8334800000001 372.43616000000003,186.66806000000008 372.76469000000003,187.4095800000001 C 373.23475,188.4705700000001 373.76200000000006,188.8848800000001 374.51051,189.3720700000001 C 375.33299,189.90741000000008 376.18617,190.11093000000008 376.83268,190.75491000000008 C 377.39439,191.31442000000007 377.74442,192.16024000000007 378.62736,192.83757000000008 C 379.32188,193.3703500000001 380.17362,193.7904100000001 380.68601,194.2762400000001 C 381.50538,195.05317000000008 382.0922,195.50884000000008 382.45868,196.39541000000008 C 382.79855000000003,197.21755000000007 382.96835000000004,198.1310100000001 383.51132,198.92423000000008 C 383.97998,199.6088900000001 384.68735000000004,200.0763100000001 385.33667,200.50156000000007 C 386.03775,200.96071000000006 386.75305000000003,201.74431000000007 387.20685000000003,202.43824000000006 C 387.71008,203.20773000000005 388.22293,203.83590000000007 388.81583,204.74357000000006 C 389.154,205.26129000000006 389.83783,206.06292000000008 390.51133,206.59091000000006 C 391.3512,207.24934000000007 391.74854,207.74728000000007 392.20686,208.43825000000007 C 392.80406,209.33863000000008 393.26783,209.93726000000007 394.03218,210.59091000000006 C 394.79237,211.24103000000005 395.66193999999996,211.41807000000006 396.26851,212.19107000000005 C 396.71211,212.75638000000006 396.8268,213.76605000000006 397.21587,214.43825000000004 C 397.75957,215.37764000000004 398.28234,215.89031000000003 398.83269,216.63358000000005 C 399.34987,217.33202000000006 399.83208,218.10570000000004 400.48986,218.94791000000006 C 400.97152,219.56459000000007 401.74783,220.07938000000007 402.22604,220.80558000000008 C 402.66574,221.47329000000008 402.64254,222.43555000000006 402.94735000000003,223.33092000000008 C 403.18819,224.03844000000007 403.9071,224.81539000000006 404.51135000000005,225.42424000000008 C 405.10165000000006,226.01906000000008 405.22265000000004,226.96487000000008 405.56402,227.78641000000007 C 405.9143,228.62940000000006 406.96911,228.86898000000008 407.48602000000005,229.52692000000008 C 407.9952400000001,230.17507000000006 408.09808000000004,231.23438000000007 408.59536,231.80558000000008 C 409.12515,232.41412000000008 410.25259000000005,232.63453000000007 410.47536,233.49091000000007 C 410.70214000000004,234.36263000000008 410.51134,235.29091000000008 410.51134,236.19092000000006 C 410.51134,237.09091000000006 410.16728,237.99349000000007 410.5967,238.80557000000007 C 411.05044,239.66368000000008 411.20962,240.3122400000001 411.56853,241.13908000000006 C 411.87288,241.84021000000007 412.69026,242.72082000000006 412.14968,243.38641000000007 C 411.53933,244.13791000000006 410.35387,243.78184000000007 409.68068999999997,244.37625000000006 C 409.00332,244.97435000000004 408.77777,245.83426000000006 408.02736999999996,246.28958000000006 C 407.35936999999996,246.69490000000005 406.34279999999995,246.86342000000005 405.51134999999994,247.25758000000005 C 404.8104799999999,247.58984000000004 403.9930999999999,248.23768000000004 403.3727099999999,248.69091000000006 C 402.63314999999994,249.23121000000006 402.3981299999999,250.32632000000007 401.74968999999993,250.73374000000007 C 400.9511999999999,251.23546000000007 400.0735399999999,251.08277000000007 399.25951999999995,251.80074000000008 C 398.78890999999993,252.21582000000006 397.99218999999994,253.11855000000008 397.2500299999999,253.44423000000006 C 396.4805599999999,253.78191000000007 395.42788999999993,253.93808000000007 394.76870999999994,254.06557000000006 C 393.74343999999996,254.26387000000005 393.40279999999996,254.96929000000006 392.66070999999994,255.48023000000006 C 391.81240999999994,256.0642900000001 391.05450999999994,256.2867300000001 390.3260199999999,256.7015600000001 C 389.5161099999999,257.1627400000001 388.78872999999993,257.8464600000001 387.85869999999994,258.0337400000001 C 387.17574999999994,258.1712800000001 386.14736999999997,258.0909000000001 385.20687999999996,258.0909000000001 C 384.34469999999993,258.0909000000001 383.47452,257.9791400000001 382.53252999999995,258.3122400000001 C 381.80794999999995,258.56844000000007 380.97167999999994,258.99950000000007 380.26070999999996,259.0548900000001 C 379.28171,259.1311500000001 378.31670999999994,259.0909000000001 377.54335999999995,259.0909000000001 C 376.49702999999994,259.0909000000001 375.6900299999999,259.0909000000001 375.10869999999994,259.0909000000001 C 373.91268999999994,259.0909000000001 373.03218999999996,259.0903500000001 372.19667999999996,259.0909000000001 C 371.19401999999997,259.0915700000001 370.48742,259.08242000000007 369.74202999999994,259.1762300000001 C 368.53783999999996,259.3277800000001 367.87163999999996,259.5174500000001 367.19801999999993,259.6655800000001 C 366.0118299999999,259.9264100000001 365.0532099999999,260.0804700000001 364.1898699999999,260.0909000000001 C 363.3007399999999,260.1016400000001 362.31150999999994,260.0909000000001 361.5321899999999,260.0909000000001 C 360.6780299999999,260.0909000000001 359.8500299999999,260.0909000000001 358.9685299999999,260.0909000000001 C 357.99052999999986,260.0909000000001 357.19401999999985,260.0909000000001 356.1980199999999,260.0909000000001 C 355.3580199999999,260.0909000000001 354.3940299999999,260.0909000000001 353.5420099999999,260.0909000000001 C 352.7420199999999,260.0909000000001 351.99052999999986,260.0923600000001 351.1940199999999,260.0909000000001 C 349.9640099999999,260.0886400000001 349.2757499999999,260.11214000000007 348.0900199999999,259.8694000000001 C 347.5527599999999,259.7594100000001 346.72777999999994,259.5036800000001 345.6780299999999,259.0909000000001 C 344.9665999999999,258.8111500000001 344.20460999999995,258.3250000000001 343.2595099999999,258.1480600000001 C 342.1950299999999,257.9487800000001 341.50150999999994,258.0909000000001 340.7260299999999,258.0909000000001 C 339.6780299999999,258.0909000000001 338.75785999999994,258.1065900000001 337.9980299999999,258.0909000000001 C 336.9898799999999,258.07006000000007 336.16874999999993,257.7737600000001 335.5105099999999,257.3855800000001 C 334.7873699999999,256.95913000000013 333.8929599999999,256.3019900000001 333.0685199999999,255.86957000000012 C 332.34030999999993,255.48761000000013 331.39847999999995,255.13921000000013 330.6273599999999,255.09223000000011 C 329.6876899999999,255.0349900000001 328.9451999999999,255.10470000000012 328.0113299999999,254.5700700000001 C 327.29883999999987,254.1621700000001 326.7003299999999,253.6350100000001 325.9100099999999,253.3762400000001 C 324.9438499999999,253.0598900000001 324.0733099999999,253.01622000000012 323.40600999999987,252.38640000000012 C 322.78884999999985,251.80391000000012 322.1219199999999,251.3626400000001 321.11267999999984,251.17623000000012 C 320.3565199999998,251.03655000000012 319.24118999999985,251.18456000000012 318.34466999999984,250.9242300000001 C 317.63845999999984,250.7191700000001 317.0406199999998,250.3445000000001 316.08999999999986,249.7695700000001 C 315.27804999999984,249.2785000000001 314.7474099999999,248.8986300000001 313.67800999999986,248.2575800000001 C 312.9753699999999,247.8363900000001 312.32198999999986,247.5015800000001 311.51131999999984,247.0909100000001 C 310.70067999999986,246.6802500000001 310.04445999999984,246.3499900000001 309.08998999999983,245.7694100000001 C 308.5530299999998,245.44280000000012 307.7268599999998,244.89346000000012 307.1953399999998,244.4895800000001 C 306.17864999999983,243.71706000000012 305.5484599999998,243.1164300000001 304.9980099999998,242.5762500000001 C 304.2623499999998,241.8543000000001 303.7893299999998,241.2030700000001 303.0113199999998,240.6117400000001 C 302.2733699999998,240.05087000000012 301.3872999999998,239.89784000000012 300.8113399999998,239.3864100000001 C 300.0790699999998,238.7362000000001 299.1927199999998,238.3482200000001 298.5939899999998,237.8055700000001 C 297.87569999999977,237.1545200000001 297.4625799999998,236.63369000000012 296.67799999999977,236.0909100000001 C 296.00630999999976,235.6262000000001 295.25331999999975,234.9313900000001 294.81132999999977,234.27658000000008 C 294.3465799999998,233.5880300000001 294.0579699999998,232.60205000000008 293.7966499999998,231.9442400000001 C 293.38474999999977,230.90741000000008 292.84940999999975,230.4591200000001 292.19013999999976,229.76924000000008 C 291.5162499999998,229.06409000000008 291.00333999999975,228.43211000000008 290.67798999999974,227.4082500000001 C 290.4301599999997,226.62840000000008 290.38318999999973,225.7487800000001 289.65796999999975,225.0602400000001 C 289.07477999999975,224.50654000000011 288.2108899999997,224.28816000000012 287.4806599999998,223.60692000000012 C 286.9807499999998,223.14054000000013 286.36322999999976,222.2340300000001 285.6966299999998,221.72692000000012 C 285.0965899999998,221.27047000000013 284.5470899999998,220.4544100000001 284.5099799999998,219.60558000000012 C 284.46975999999984,218.6856000000001 284.2250099999998,217.6931200000001 283.9366499999998,216.9269100000001 C 283.63037999999983,216.1131600000001 283.51354999999984,215.3382600000001 283.51129999999984,214.4382500000001 C 283.50912999999986,213.5749100000001 283.51129999999984,212.5909100000001 283.51129999999984,211.60825000000008 C 283.51129999999984,210.80075000000008 283.44034999999985,209.9327900000001 283.1586399999998,209.01941000000008 C 282.9251499999998,208.2623600000001 282.7517799999998,207.69338000000008 282.59531999999984,206.49091000000007 C 282.4786799999998,205.59456000000006 282.50995999999986,204.98258000000007 282.2899899999998,203.79108000000008 C 282.1243099999998,202.8936500000001 281.8823999999998,202.33860000000007 281.6779899999998,201.25759000000008 C 281.4994599999998,200.31338000000008 281.5158199999998,199.58108000000007 281.5111499999998,198.4479100000001 L 281.50681999999983,197.77658000000008 L 281.49048999999985,197.04924000000008 L 281.4541399999998,196.2819100000001" fill="none" id="svg_5" stroke="#000" stroke-width="2"/>
</svg>
