<?xml version="1.0" ?>
<svg baseProfile="full" height="480" version="1.1" width="640" xmlns="http://www.w3.org/2000/svg" xmlns:ev="http://www.w3.org/2001/xml-events" xmlns:xlink="http://www.w3.org/1999/xlink">
	<defs/>
	<path d="M 337.0,303.0 C 338.5,304.5 339.17001,305.23718 339.75717,305.70001 C 340.45000999999996,306.24615 341.23742999999996,306.51166 342.11465,307.20132 C 342.74667,307.69821 343.22850999999997,308.47232 343.59999999999997,309.24667 C 344.03389999999996,310.15115 344.28258999999997,310.95501 344.59999999999997,311.73867 C 344.97936,312.67525 345.39446,313.33306 346.09999999999997,314.10015 C 346.59612,314.63955 347.18913999999995,315.49041 347.59999999999997,316.17464 C 348.08736999999996,316.98629 348.60945999999996,317.62697000000003 349.32131,318.09999 C 349.97744,318.53596 351.02587,319.04945 351.47915,319.52083 C 352.18133,320.25102 352.45773,321.02684 352.99999,321.83333 C 353.46499,322.52486 354.09734000000003,323.32289 354.49999,323.99998999999997 C 354.99672000000004,324.83529 355.51357,325.46623999999997 356.20000000000005,326.20131 C 356.71028000000007,326.74775999999997 357.21315000000004,327.47819999999996 357.59999000000005,328.21065 C 358.11775000000006,329.19097 358.4133800000001,329.80460999999997 358.70000000000005,330.45714 C 359.11980000000005,331.41285999999997 359.39174,332.22837999999996 359.70000000000005,333.04731999999996 C 360.08962,334.08244999999994 360.39327000000003,334.76723 360.79998000000006,335.59864999999996 C 361.19353000000007,336.40317999999996 361.59783000000004,337.20106999999996 361.9999900000001,337.99998999999997 C 362.39785000000006,338.7904 362.8391900000001,339.48906 363.3893300000001,340.37465 C 363.8684600000001,341.14588999999995 363.9286400000001,341.84398 364.08400000000006,342.6013 C 364.2918200000001,343.61438999999996 364.7322500000001,344.38104999999996 364.9146600000001,345.39997999999997 C 365.0562300000001,346.1909 364.9526200000001,347.20264999999995 365.0208300000001,347.99998999999997 C 365.1069500000001,349.00688999999994 365.3291500000001,349.90489999999994 365.9719700000001,350.42931 C 366.6627400000001,350.99282 367.52791000000013,350.85114999999996 368.6666400000001,351.16665 C 369.3643300000001,351.35995 370.1555000000001,352.01925 370.83598000000006,352.39999 C 371.58958000000007,352.82165 372.3792200000001,353.25402 373.23597000000007,353.56399 C 374.14704000000006,353.89360999999997 374.9564000000001,353.95931 375.81065000000007,353.98931 C 376.40101000000004,354.01003 377.6005400000001,353.98388 378.49998000000005,354.02083 C 379.10057000000006,354.04549 380.30552000000006,354.19936 381.19999000000007,354.43599 C 381.8040900000001,354.59581000000003 382.9994000000001,355.00172 383.6013000000001,355.2 C 384.5199700000001,355.50264 385.15431000000007,355.70967 386.1666400000001,355.99998999999997 C 386.8834100000001,356.20552999999995 387.6331600000001,356.40229999999997 388.41066000000006,356.56399 C 389.1986800000001,356.72784 390.39851000000004,356.89443 391.19099000000006,356.94284 C 392.32682000000005,357.01221 393.02931000000007,356.99933 394.2306300000001,357.0 C 394.97913000000005,357.00043 395.68266000000006,357.0 396.6839700000001,357.0 C 397.4999800000001,357.0 398.3159900000001,357.0 399.5473100000001,357.0 C 400.22532000000007,357.0 401.4213000000001,357.0 402.22532000000007,357.0 C 402.7746400000001,357.0 404.0784700000001,357.0 404.7639900000001,357.0 C 405.5986500000001,357.0 406.6044700000001,357.0 407.4571400000001,357.0 L 408.4211600000001,357.0 L 409.2146500000001,357.0 L 409.9901600000001,357.0" fill="none" id="svg_5" stroke="#000" stroke-width="2"/>
</svg>
