<?xml version="1.0" ?>
<svg baseProfile="full" height="480" version="1.1" width="640" xmlns="http://www.w3.org/2000/svg" xmlns:ev="http://www.w3.org/2001/xml-events" xmlns:xlink="http://www.w3.org/1999/xlink">
	<defs/>
	<path d="M 384.0,220.0 C 376.16666,229.83333 375.4191,230.77611 374.69067,231.71466 C 373.9721,232.64049 373.27160000000003,233.55884 372.60415,234.47917 C 371.94772,235.38432 371.31472,236.2837 370.74267000000003,237.19867000000002 C 369.63033,238.97780000000003 369.17214,239.89363000000003 368.74133,240.80267000000003 C 368.31485,241.70257000000004 367.93362,242.61734000000004 367.58334,243.54167000000004 C 367.23224000000005,244.46811000000005 366.90994,245.41174000000004 366.60534,246.37066000000004 C 365.98351,248.32816000000005 365.69558,249.34322000000003 365.39999,250.38265000000004 C 365.09546,251.45354000000003 364.79361,252.56635000000003 364.5,253.72916000000004 C 364.19333,254.94365000000005 363.88849,256.22100000000006 363.60001,257.57067000000006 C 362.97501,260.4947700000001 362.69193,262.09096000000005 362.40534,263.76000000000005 C 362.10898000000003,265.48595000000006 361.83191000000005,267.25847000000005 361.58335,269.06249 C 361.33314,270.87853 361.10593,272.69527000000005 360.94135,274.49999 C 360.62253,277.99624 360.57114,279.66994 360.54001,281.28264 C 360.50998,282.83876000000004 360.52506,284.34151 360.5625,285.79164000000003 C 360.59866,287.19221000000005 360.66058,288.54433 360.72,289.85066 C 360.83292,292.33336 360.88217000000003,293.51436 360.91467,294.66264 C 360.94641,295.78471 360.96646,296.88795 360.97915,297.97914000000003 C 360.99178,299.06529 360.99676,300.15349000000003 360.99865,301.25065 C 361.00256,303.49998 360.99755,304.66398 361.00399,305.85197 C 361.01052,307.05802 361.0245,308.27619 361.06248999999997,309.49998 C 361.10047999999995,310.72422 361.15135999999995,311.94355 361.256,313.14799 C 361.46065,315.50373 361.65105,316.63752 361.85465999999997,317.74131 C 362.054,318.82194 362.28959999999995,319.87251 362.54164,320.89582 C 362.78844,321.89786000000004 363.05442999999997,322.87266 363.31865,323.82532000000003 C 363.82964,325.66767000000004 364.08022,326.55652000000003 364.31465,327.42929000000004 C 364.54454,328.28519000000006 364.76511999999997,329.12765 364.97914,329.95831000000004 C 365.19041,330.77835000000005 365.39606999999995,331.59082000000006 365.59864999999996,332.39731000000006 C 366.00114999999994,333.9997000000001 366.20014999999995,334.80063000000007 366.40131999999994,335.60532000000006 C 366.60447999999997,336.4179700000001 366.81064999999995,337.2426500000001 367.02082999999993,338.08332000000007 C 367.2359799999999,338.94398000000007 367.4571399999999,339.8286500000001 367.68531999999993,340.74131000000006 C 368.16666999999995,342.66663000000005 368.42115999999993,343.68464000000006 368.68265999999994,344.7306300000001 C 368.9481599999999,345.79264000000006 369.2146399999999,346.85865000000007 369.4791399999999,347.91663000000005 C 369.7386599999999,348.9546500000001 369.9901599999999,349.96064000000007 370.23063999999994,350.92264000000006 C 370.66660999999993,352.66663000000005 370.85795999999993,353.42771000000005 371.02799999999996,354.11731000000003 C 371.18213999999995,354.74240000000003 371.3203,355.31131000000005 371.43747999999994,355.83331000000004 C 371.54538999999994,356.31402 371.6408799999999,356.76272000000006 371.71198999999996,357.18930000000006 C 371.84678999999994,357.9978300000001 371.88208999999995,358.39883000000003 371.91465999999997,358.79330000000004 C 371.94633999999996,359.17718 371.96608,359.54653 371.97914,359.89581000000004 C 371.99125999999995,360.21991 371.99663,360.51413 371.99863999999997,360.77331000000004 C 372.00168999999994,361.16662 371.99210999999997,361.29373000000004 372.00532,361.37597000000005 C 372.01306999999997,361.42419000000007 372.04325,361.44549000000006 372.08331999999996,361.43746000000004 C 372.14561,361.42498000000006 372.22691,361.38338000000005 372.34131999999994,361.36397000000005 C 372.66345999999993,361.30931000000004 372.88681999999994,361.34038000000004 373.14664999999997,361.36528000000004 C 373.44685,361.39406 373.78623999999996,361.43520000000007 374.16664,361.45830000000007 C 374.58632,361.48381000000006 375.04771,361.4992200000001 375.54663999999997,361.4612900000001 C 376.67069,361.37581000000006 377.28941,361.22688000000005 377.94131999999996,361.0546100000001 C 378.63253999999995,360.8719300000001 379.34835999999996,360.6356600000001 380.08331999999996,360.3541100000001 C 380.84741999999994,360.0614200000001 381.62613999999996,359.7272800000001 382.40531,359.33861000000013 C 384.01761,358.53435000000013 384.80636999999996,358.04470000000015 385.60264,357.5399600000001 C 386.41532,357.02482000000015 387.22663,356.46730000000014 388.04164000000003,355.8749500000001 C 388.87749,355.2674700000001 389.72023,354.6223900000001 390.57066000000003,353.9399500000001 C 392.34584,352.5154200000001 393.25221000000005,351.7416500000001 394.17997,350.9199600000001 C 395.15437000000003,350.0569800000001 396.16074000000003,349.1139300000001 397.18748000000005,348.0624500000001 C 398.2886500000001,346.9347300000001 399.43647000000004,345.68028000000015 400.59999000000005,344.25996000000015 C 403.22935000000007,341.05030000000016 404.56441000000007,339.12642000000017 405.98131000000006,337.08262000000013 C 407.4629100000001,334.9454700000001 408.9374000000001,332.70985000000013 410.39583000000005,330.41660000000013 C 411.85613000000006,328.12046000000015 413.26735,325.83216000000016 414.58531000000005,323.57062000000013 C 417.04094000000003,319.35687000000013 418.05955000000006,317.4083000000001 418.97999000000004,315.58396000000016 C 419.84358000000003,313.87229000000013 420.61350000000004,312.2245800000002 421.31248000000005,310.6249500000002 C 421.99324000000007,309.0670000000002 422.62510000000003,307.5086200000002 423.23997,305.93595000000016 C 424.51582,302.67274000000015 425.16484,300.93006000000014 425.84931,299.13062000000014 C 426.55021,297.28806000000014 427.25739,295.41965000000016 427.95832,293.54160000000013 C 428.65473000000003,291.67560000000014 429.33564,289.83847000000014 429.9773,288.04261000000014 C 431.18165,284.6719400000001 431.69974,283.1179300000001 432.17063,281.65730000000013 C 432.61228,280.28740000000016 433.00651,278.9942100000001 433.35413,277.77079000000015 C 433.68207,276.61668000000014 433.97422,275.51914000000016 434.22263,274.46928000000014 C 434.68744,272.5047700000001 434.86283,271.56623000000013 435.02799,270.66130000000015 C 435.18692999999996,269.7904800000002 435.3173,268.95061000000015 435.43746999999996,268.1458000000002 L 435.54263,267.3759600000002 L 435.63379,266.6421300000002 L 435.71198,265.94529000000017" fill="none" id="svg_5" stroke="#000" stroke-width="2"/>
</svg>
