<?xml version="1.0" ?>
<svg baseProfile="full" height="480" version="1.1" width="640" xmlns="http://www.w3.org/2000/svg" xmlns:ev="http://www.w3.org/2001/xml-events" xmlns:xlink="http://www.w3.org/1999/xlink">
	<defs/>
	<path d="M 289.51135,325.09091 C 291.31137,325.09091 292.21136,325.09091 293.07538,325.09091 C 293.95804,325.09091 294.83286,325.09091 295.72204999999997,325.09091 C 296.71121999999997,325.09091 297.49134,325.13046 298.48986999999994,325.09076 C 299.20858999999996,325.06217 299.93371999999994,324.40472 300.81136999999995,324.14806999999996 C 301.67693999999995,323.89495999999997 302.61135999999993,324.09090999999995 303.51134999999994,324.09090999999995 C 304.31136999999995,324.09090999999995 305.21135999999996,324.09090999999995 306.11135999999993,324.09090999999995 C 307.01134999999994,324.09090999999995 307.98763999999994,324.2352599999999 308.81136999999995,323.7337299999999 C 309.38259999999997,323.38591999999994 309.92644999999993,322.4163499999999 310.81136999999995,322.1480699999999 C 311.6743799999999,321.8864399999999 312.79500999999993,322.3954099999999 313.42601999999994,321.8069099999999 C 313.9956899999999,321.2755999999999 314.61134999999996,321.0909099999999 315.51134999999994,321.0909099999999 C 316.2685199999999,321.0909099999999 317.15953999999994,321.0909099999999 318.17803999999995,321.0909099999999 C 319.03219999999993,321.0909099999999 319.91952999999995,321.2074299999999 320.81136999999995,321.0864199999999 C 321.63268999999997,320.9749999999999 322.27791999999994,320.2389799999999 323.15419999999995,320.0953899999999 C 324.10930999999994,319.9388699999999 325.01134999999994,320.0908999999999 325.9113699999999,320.0908999999999 C 326.8113599999999,320.0908999999999 327.71300999999994,320.1452799999999 328.6113499999999,320.0907499999999 C 329.3152399999999,320.0480299999999 330.1073499999999,319.3910399999999 330.9953499999999,319.1762299999999 C 331.8381499999999,318.9723399999999 332.8186199999999,319.1889299999999 333.4860099999999,318.6655799999999 C 334.1098799999999,318.1763499999999 334.7146499999999,317.54768999999993 335.6113499999999,317.2123899999999 C 336.4619699999999,316.8943099999999 337.0589199999999,316.6447599999999 337.7966799999999,316.1762299999999 C 338.4882999999999,315.7370199999999 339.40284999999994,316.18763999999993 340.32600999999994,316.08021999999994 C 341.2855399999999,315.96855999999997 341.6442799999999,315.17839999999995 342.21669999999995,314.43821999999994 C 342.63591999999994,313.89613999999995 343.34203999999994,312.97623999999996 343.59401999999994,312.29221999999993 L 344.12203999999997,311.52689999999996" fill="none" id="svg_7" stroke="#000" stroke-width="2"/>
</svg>
