<?xml version="1.0" ?>
<svg baseProfile="full" height="480" version="1.1" width="640" xmlns="http://www.w3.org/2000/svg" xmlns:ev="http://www.w3.org/2001/xml-events" xmlns:xlink="http://www.w3.org/1999/xlink">
	<defs/>
	<path d="M 388.5,354.0 C 387.10001,354.86133 386.68042,355.50403 386.11066,356.36401 C 385.56494,357.18768 385.37528,358.03430000000003 384.7955,358.70001 C 384.24240000000003,359.33511000000004 383.56088,360.09387000000004 383.5,361.0 C 383.44638,361.79819 383.68372,362.7265 383.46399,363.60001 C 383.24695,364.4628 382.88208000000003,365.46341 382.21466000000004,365.91468 C 381.45352,366.42929999999996 380.362,366.03544 379.85718,366.70450999999997 C 379.29053000000005,367.45549 378.78437,368.03256999999996 378.10001000000005,368.42533999999995 C 377.28605000000005,368.89246999999995 376.44916000000006,369.30085999999994 375.79999000000004,369.64735999999994 C 374.95062,370.10069999999996 373.89075,369.8328199999999 373.20450000000005,370.3571999999999 C 372.4541300000001,370.9305599999999 372.17240000000004,371.86076999999995 371.43750000000006,372.0000199999999 C 370.34036000000003,372.2079099999999 369.54068000000007,372.3499299999999 368.97916000000004,372.5208599999999 C 368.09513000000004,372.7899599999999 367.19825000000003,373.0943799999999 366.31067,373.4000099999999 C 365.45526,373.6945999999999 364.41678,374.0894299999999 363.73599,374.4000099999999 C 363.09991,374.6901999999999 362.09732,375.2000299999999 361.45834,375.5000199999999 L 360.72934000000004,375.8000099999999" fill="none" id="svg_5" stroke="#000" stroke-width="2"/>
</svg>
