<?xml version="1.0" ?>
<svg baseProfile="full" height="480" version="1.1" width="640" xmlns="http://www.w3.org/2000/svg" xmlns:ev="http://www.w3.org/2001/xml-events" xmlns:xlink="http://www.w3.org/1999/xlink">
	<defs/>
	<path d="M 257.0,123.0 C 262.05701,124.543 262.80347,124.99238 263.45834,125.54166 C 264.1094,126.08775999999999 265.00402,126.99601999999999 265.59866,127.60132999999999 C 266.19339,128.20671 266.49868,128.50404 267.04284,129.15715999999998 C 267.86355000000003,130.14225 268.31707,130.88197999999997 268.77465,131.61466 C 269.2264,132.338 269.63522,133.07165999999998 270.42116,133.95716 C 270.91872,134.51774999999998 271.5208,134.93714 272.23064,135.68265 C 272.8984,136.38396 273.33059,137.21340999999998 273.57866,137.73865 C 274.10582,138.85474000000002 274.53197,139.50905 274.97066,139.96799000000001 C 275.75112,140.78447000000003 276.25066,141.25066 276.99465000000004,141.99465 C 277.66665000000006,142.66666 278.33895,143.33835000000002 278.88265,143.88265 C 279.48299000000003,144.48365 280.23888,145.10665 280.75716,145.97832000000002 C 281.16799,146.66927 281.85451,147.22959000000003 282.084,147.88666000000003 C 282.41252000000003,148.82727000000003 282.83263,149.54508000000004 283.81465000000003,149.93865000000002 C 284.63331000000005,150.26674000000003 285.39735,150.66974000000002 285.91597,151.28533000000002 C 286.47673000000003,151.95095 286.66307,152.66132000000002 287.54298,153.32149 C 288.25669,153.85698000000002 288.82072,154.21154 289.40266,154.60132000000002 C 290.29872,155.20151 291.19432,155.79119000000003 291.72798,156.23598 C 292.24516,156.66701 293.0695,157.66588000000002 293.45833,158.52082000000001 C 293.71846,159.09278 294.07975999999996,160.30732 294.30897999999996,160.89100000000002 C 294.64248,161.74018 295.30656999999997,162.70127000000002 295.76664999999997,163.02932 C 296.44379999999995,163.51215000000002 297.63081999999997,163.91219 297.95833,164.54166 C 298.43608,165.45986000000002 298.38289,166.28101 298.76164,166.99465 C 299.2437,167.90288 300.06764,168.42844 300.43065,168.96799000000001 C 301.06398,169.90934000000001 300.87065,170.78617000000003 301.22148000000004,171.85715000000002 C 301.43635000000006,172.51314000000002 302.07493000000005,173.33818000000002 302.54164000000003,174.02082000000001 C 302.94905000000006,174.61669 303.76881000000003,175.40484 304.27199,175.82133000000002 C 304.81932,176.27439 305.43068,176.74273000000002 306.30031,177.64300000000003 C 306.92989,178.29476000000003 307.53908,179.04391000000004 307.872,179.42134000000004 C 308.56536,180.20738000000006 309.32635,181.00728000000004 309.74334,181.39999000000003 C 310.60909,182.21536000000003 311.08758,182.60711000000003 311.58333999999996,183.00000000000003 C 312.61166,183.81494000000004 313.16445999999996,184.21304000000003 314.33333999999996,185.00000000000003 C 314.93832,185.40730000000002 315.56976,185.80331000000004 316.20984,186.21350000000004 C 316.86179,186.63130000000004 317.52466,187.05685000000003 318.18532999999996,187.50799000000004 C 318.85576999999995,187.96580000000003 319.54269,188.42478000000003 320.83333999999996,189.49999000000003 C 321.49181999999996,190.04854000000003 322.12008,190.64777000000004 322.74281999999994,191.26249 C 323.36952999999994,191.88113 323.98018999999994,192.51983 324.58931999999993,193.16000000000003 C 325.19652999999994,193.79817000000003 325.7857899999999,194.44600000000003 326.99999999999994,195.66667000000004 C 327.59392999999994,196.26376000000005 328.19936999999993,196.83542000000003 328.80449999999996,197.39917000000003 C 329.40871999999996,197.96210000000002 330.02194,198.51964000000004 330.63597999999996,199.08667000000003 C 331.25825999999995,199.66130000000004 331.89851999999996,200.23991000000004 333.16664999999995,201.50000000000003 C 333.82827,202.15741000000003 334.48738999999995,202.85150000000002 335.15266999999994,203.56700000000004 C 335.82878999999997,204.29414000000003 336.50203999999997,205.03985000000003 337.17463999999995,205.79600000000005 C 337.84934999999996,206.55451000000005 338.51753999999994,207.31732000000005 339.83332999999993,208.83332000000004 C 340.4792299999999,209.57751000000005 341.1133899999999,210.31307000000004 341.7428099999999,211.03382000000005 C 342.3627699999999,211.74372000000005 342.9762399999999,212.44012000000004 343.5893099999999,213.11733000000004 C 344.1926099999999,213.78376000000003 344.7843199999999,214.44205000000005 345.9999899999999,215.66666000000004 C 346.5932199999999,216.26427000000004 347.1986299999999,216.83489000000003 347.80448999999993,217.39466000000004 C 348.40800999999993,217.95223000000004 349.02048999999994,218.50037000000003 349.63596999999993,219.05065000000005 C 350.25681999999995,219.60570000000004 350.89206999999993,220.16062000000005 352.1666399999999,221.33332000000004 C 352.82499999999993,221.93905000000004 353.4863699999999,222.56821000000005 354.1571499999999,223.20983000000004 C 354.83704999999986,223.86019000000005 355.5203699999999,224.52131000000003 356.2106499999999,225.18532000000005 C 356.9040399999999,225.85231000000005 357.5948099999999,226.52428000000003 358.99998999999985,227.83331000000004 C 359.69627999999983,228.48195000000004 360.39628999999985,229.11433000000005 361.0864799999999,229.74281000000005 C 361.7682999999999,230.36366000000004 362.4407599999999,230.97567000000004 363.09199999999987,231.58932000000004 C 363.73170999999985,232.19207000000003 364.36683999999985,232.77706000000003 365.49998999999985,233.99998000000005 C 366.04634999999985,234.58963000000006 366.54902999999985,235.19255000000004 367.01948999999985,235.79548000000005 C 367.47825999999986,236.38345000000007 367.90278999999987,236.97444000000004 368.2959799999999,237.56397000000004 C 368.6790099999999,238.13831000000005 369.04228999999987,238.70507000000003 369.6666499999999,239.83330000000004 C 369.9658699999999,240.37401000000003 370.2340299999999,240.91497000000004 370.5036599999999,241.44281000000004 C 370.77001999999993,241.96429000000003 371.0347599999999,242.48300000000003 371.3226599999999,242.98930000000004 C 371.6127599999999,243.49945000000005 371.90489999999994,244.02407000000005 372.66664999999995,244.99997000000005 C 373.06798999999995,245.51415000000006 373.53258999999997,246.00453000000005 374.01066999999995,246.50447000000005 C 374.49787999999995,247.01396000000005 375.00355999999994,247.51735000000005 375.49864999999994,248.03596000000005 C 375.99290999999994,248.55371000000005 376.5052999999999,249.05332000000004 377.33333999999996,250.16664000000006 C 377.73476999999997,250.70639000000006 378.06994,251.27719000000005 378.37582,251.84813000000005 C 378.67654,252.40946000000005 378.94014999999996,252.97794000000005 379.19331999999997,253.53864000000004 C 379.44178999999997,254.08896000000004 379.65914,254.64069000000003 380.16664999999995,255.66665000000003 C 380.4115499999999,256.16172000000006 380.67819,256.63105 380.95714999999996,257.07664000000005 C 381.2290899999999,257.51103000000006 381.49074999999993,257.9407100000001 382.10448999999994,258.67665000000005 C 382.95946999999995,259.70186000000007 383.29583999999994,259.96184000000005 384.1893299999999,260.74931000000004 C 384.7614699999999,261.25355 385.36373999999995,261.72746000000006 386.07848999999993,262.6428 C 386.5786999999999,263.28339 386.9829699999999,264.01865000000004 387.39550999999994,264.75181000000003 C 387.60056,265.11625000000004 388.39733999999993,266.51197 388.77865999999995,267.14265000000006 L 389.12798999999995,267.71733000000006" fill="none" id="svg_6" stroke="#000" stroke-width="2"/>
</svg>
