<?xml version="1.0" ?>
<svg baseProfile="full" height="480" version="1.1" width="640" xmlns="http://www.w3.org/2000/svg" xmlns:ev="http://www.w3.org/2001/xml-events" xmlns:xlink="http://www.w3.org/1999/xlink">
	<defs/>
	<path d="M 285.0,333.0 C 297.08499,333.87851 297.74652,333.91779 298.32834,333.94284 C 299.29144,333.98431 300.05499000000003,333.99773999999996 301.29984,334.0 C 302.18934,334.00162 302.76404,334.00986 304.07868,333.99985 C 304.77472,333.99454 305.46335000000005,333.99442 306.68534,333.71466 C 307.24183,333.58725 308.10493,333.29684 309.29999,332.89999 C 309.90020999999996,332.70068 310.80001999999996,332.40011 311.4,332.20001 C 312.60272999999995,331.79889000000003 313.22242,331.59241000000003 313.87201999999996,331.36401 C 314.57185,331.11795 315.74326999999994,330.68023 316.60535999999996,330.34732 C 317.50061999999997,330.00159 317.94798,329.82181 318.83200999999997,329.48401 C 320.05514999999997,329.01660000000004 320.78452,328.75385 321.45835,328.52084 C 322.39576,328.19668 323.29999,327.90002000000004 324.20002,327.6 C 324.8,327.39999 326.00061999999997,327.00176000000005 326.59866999999997,326.79998 C 327.48004999999995,326.50262 328.31467,326.2 329.31332999999995,325.80132000000003 L 329.95834999999994,325.52083000000005 L 330.9781899999999,325.12148 L 331.58566999999994,324.9955" fill="none" id="svg_5" stroke="#000" stroke-width="2"/>
</svg>
