<?xml version="1.0" ?>
<svg baseProfile="full" height="480" version="1.1" width="640" xmlns="http://www.w3.org/2000/svg" xmlns:ev="http://www.w3.org/2001/xml-events" xmlns:xlink="http://www.w3.org/1999/xlink">
	<defs/>
	<path d="M 512.5,343.89999 C 514.09998,344.51068 514.90375,345.14001 515.21466,345.78534 C 515.63348,346.65472 515.88275,347.48764 516.37866,348.12149 C 516.95984,348.86435 517.25274,349.62671 517.69867,350.38534 C 518.11023,351.08547 518.31934,352.11157 518.5,352.85832999999997 C 518.71582,353.75041999999996 519.75653,353.99116999999995 520.21466,354.70131999999995 C 520.67248,355.41103999999996 520.45349,356.43337999999994 520.92535,357.29997999999995 C 521.32409,358.03230999999994 521.80072,358.7209399999999 522.59985,358.90016999999995 C 523.4422,359.08906999999994 523.16864,360.3531699999999 523.7853399999999,360.81465999999995 C 524.5207499999999,361.36494999999996 525.5507799999999,360.5991399999999 526.2000099999999,360.25264999999996 C 527.0493799999999,359.79930999999993 527.9088699999999,359.79965 528.5253299999999,359.32534 C 529.19751,358.80816 530.1661999999999,358.98913 530.8473499999999,358.84283 C 531.9045399999999,358.61578 532.5938699999999,357.96087 533.4999999999999,357.89999 C 534.2982199999999,357.84634 535.2000099999999,357.89999 536.0999799999998,357.89999 C 536.9999999999999,357.89999 537.8435699999999,357.96698 538.5253299999998,358.47467 C 539.1661399999998,358.9519 540.1191399999998,358.73477 540.9999999999998,358.92084 C 541.8473499999998,359.09983 542.5999799999997,359.77866 543.2999899999998,359.98401 L 544.0999799999997,360.47467 L 544.9000299999998,360.86401" fill="none" id="svg_5" stroke="#000" stroke-width="2"/>
</svg>
