<?xml version="1.0" ?>
<svg baseProfile="full" height="480" version="1.1" width="640" xmlns="http://www.w3.org/2000/svg" xmlns:ev="http://www.w3.org/2001/xml-events" xmlns:xlink="http://www.w3.org/1999/xlink">
	<defs/>
	<path d="M 401.0,278.0 C 402.70001,279.05267 403.56375,279.47592 403.94733,280.29999 C 404.30414,281.06653 404.82386,281.65997999999996 405.70002,282.05267999999995 C 406.43229,282.38086999999996 407.31635,282.92135999999994 408.00001,282.97916 C 408.97508,283.06158999999997 410.06181,283.21533999999997 409.99985999999996,284.09983 C 409.94327999999996,284.90757 408.82456999999994,285.14579 408.16400999999996,285.43601 C 407.38760999999994,285.77714000000003 406.61731999999995,286.23423 405.83601,286.564 C 404.90247999999997,286.95801 403.88514,286.91172 403.11467,287.08533 C 402.32198,287.26395 401.47612,287.69138 400.63599999999997,287.97467 C 399.79132999999996,288.25949 399.01261999999997,288.91498 398.20002999999997,288.99866000000003 C 397.30474,289.09088 396.40000999999995,289.00000000000006 395.50001999999995,289.00000000000006 L 394.60002999999995,289.00000000000006" fill="none" id="svg_5" stroke="#000" stroke-width="2"/>
</svg>
