<?xml version="1.0" ?>
<svg baseProfile="full" height="480" version="1.1" width="640" xmlns="http://www.w3.org/2000/svg" xmlns:ev="http://www.w3.org/2001/xml-events" xmlns:xlink="http://www.w3.org/1999/xlink">
	<defs/>
	<path d="M 324.0,322.0 C 331.0,331.66666 331.69577,332.55887 332.39334,333.42267 C 333.07422,334.26581 333.74542,335.07574999999997 334.39584,335.85416 C 335.01876000000004,336.59967 335.61605000000003,337.30359 336.17334,337.97067999999996 C 337.17007,339.16382999999996 337.59366,339.69165999999996 337.97601,340.17199999999997 C 338.32394,340.60907 338.63606999999996,341.01363999999995 338.9375,341.37499999999994 C 339.48245,342.02825999999993 340.31564,342.8576699999999 340.96399,343.31066999999996 C 341.60217,343.75656 342.66742000000005,345.54508 343.37467000000004,344.54531999999995 C 343.69983,344.0856299999999 343.00931,345.0001199999999 342.99601,345.70800999999994 C 342.97953,346.58431999999993 342.91618,347.55965999999995 342.8285,348.05550999999997 C 342.57053,349.51424999999995 342.15992,350.36325 341.9015,350.74199999999996 C 341.36051,351.53497 340.977,351.90489999999994 340.08403,352.652 C 339.02842999999996,353.53512 338.37404,353.96905 337.68534999999997,354.45466999999996 C 336.95155,354.97207 336.16625,355.5028 335.33335999999997,356.04164999999995 C 334.46767,356.60170999999997 333.56483999999995,357.16670999999997 332.62134999999995,357.71864999999997 C 330.67909,358.85484999999994 329.66071999999997,359.38548999999995 328.62934999999993,359.91331999999994 C 327.5893699999999,360.44557999999995 326.53083999999996,360.95933999999994 325.4583599999999,361.45832999999993 C 324.3814899999999,361.9593699999999 323.29410999999993,362.44553999999994 322.19733999999994,362.91331999999994 C 320.00614999999993,363.84782999999993 318.90155999999996,364.28022999999996 317.8066799999999,364.71464999999995 C 316.7231799999999,365.1445499999999 315.65246999999994,365.56181999999995 314.6041699999999,365.97914999999995 C 313.5791499999999,366.38719999999995 312.5813099999999,366.78480999999994 311.6266899999999,367.19865999999996 C 309.8245399999999,367.97993999999994 309.0031899999999,368.39198999999996 308.2253499999999,368.79997999999995 C 307.47726999999986,369.19233999999994 306.76675999999986,369.59556999999995 306.0833499999999,369.99998999999997 C 305.41476999999986,370.39565 304.7653299999999,370.79997999999995 304.12133999999986,371.2 C 302.83337999999986,372.00002 302.1805699999999,372.40215 301.51867999999985,372.79598 C 300.85790999999983,373.18914 300.1980599999998,373.57160999999996 299.54165999999987,373.93748999999997 C 298.89932999999985,374.29555 298.2712099999999,374.6368 297.65466999999984,374.94399 C 296.50760999999983,375.51552 295.9676299999998,375.74046999999996 295.4639999999998,375.94264999999996 C 295.0004099999998,376.12874999999997 294.5727299999998,376.28340999999995 294.1875099999998,376.41664999999995 C 293.8486399999998,376.53383999999994 293.5546399999998,376.62404999999995 293.3160199999998,376.71065999999996 C 292.9973899999998,376.82631999999995 292.9046699999998,376.87393 292.9093399999998,376.91466999999994 C 292.9135799999998,376.95186999999993 292.9931399999998,376.99004999999994 293.3126599999998,376.99550999999997 C 294.2100899999998,377.01082999999994 294.6772799999998,376.82962 296.0000099999998,376.49999999999994 C 296.6578199999998,376.3360599999999 297.4214899999998,376.14458999999994 298.2770199999998,375.92849999999993 C 299.2108299999998,375.69262999999995 300.20865999999984,375.4387499999999 301.2560199999998,375.16799999999995 C 302.3399999999998,374.88778999999994 303.4472999999998,374.60326999999995 305.6666599999998,373.99999999999994 C 306.7578199999998,373.70339999999993 307.82906999999983,373.4023399999999 308.8811699999998,373.0954899999999 C 309.91839999999985,372.7929699999999 310.93902999999983,372.48394999999994 311.9426599999998,372.16399999999993 C 312.9353699999998,371.84755999999993 313.9183099999998,371.5322299999999 315.8333499999998,370.8333399999999 C 316.78103999999985,370.4874799999999 317.7108499999998,370.1210899999999 318.6248499999998,369.7518299999999 C 319.52282999999983,369.3890399999999 320.3965499999998,369.02251999999993 321.2453299999998,368.6613499999999 C 322.0675299999998,368.31146999999993 322.8560199999998,367.9662799999999 324.3333399999998,367.33334999999994 C 325.0135499999998,367.04193999999995 325.6582299999998,366.76892999999995 326.2758399999998,366.52334999999994 C 326.8649799999998,366.28909999999996 327.4349299999998,366.07571999999993 327.99333999999976,365.89334999999994 C 328.53676999999976,365.71585999999996 329.07371999999975,365.54303999999996 330.1666499999998,365.33334999999994 C 330.71742999999975,365.22766999999993 331.2740399999998,365.16436999999996 331.8211599999998,365.11432999999994 C 332.3501499999998,365.0659299999999 332.8540299999998,365.0383099999999 333.3226599999998,365.02133999999995 C 333.74706999999984,365.00595999999996 334.11864999999983,365.00134999999995 334.66664999999983,365.00001 C 334.93330999999984,364.99937 333.98530999999986,365.012 333.37114999999983,365.51451 C 333.0613399999998,365.76802 332.16652999999985,366.49985999999996 331.56383999999986,366.99336 C 330.8638599999999,367.56651 330.07964999999984,368.20936 329.22533999999985,368.91334 C 328.31194999999985,369.666 327.35366999999985,370.45878 326.36483999999984,371.28334 C 325.35494999999986,372.12544 323.33184999999986,373.83162 322.34350999999987,374.67802 C 321.3731999999999,375.50898 320.4270999999999,376.32853 319.50399999999985,377.132 C 318.60345999999987,377.91584 317.72942999999987,378.68147 316.88049999999987,379.42402 C 316.05874999999986,380.14279999999997 314.50079999999986,381.50092 313.7650199999999,382.13516999999996 C 313.0607699999999,382.74222999999995 312.3851099999999,383.31958999999995 311.7399999999999,383.87066999999996 C 311.1250999999999,384.39593999999994 310.5392899999999,384.89514999999994 309.9849999999999,385.37217 C 309.4592999999999,385.82455999999996 308.4984599999999,386.66492999999997 308.0650199999999,387.05649999999997 C 307.6585599999999,387.42371999999995 307.2838899999999,387.77097999999995 306.9400199999999,388.09601999999995 C 306.6239799999999,388.39475999999996 306.3393699999999,388.67002999999994 306.0850099999999,388.91950999999995 C 305.8594199999999,389.14075999999994 305.5000199999999,389.50001999999995 305.3645199999999,389.63550999999995 C 305.2560299999999,389.74399999999997 304.8958599999999,389.82526999999993 305.0320299999999,389.96799999999996 C 305.4053199999999,390.35932999999994 306.0239099999999,389.06125999999995 307.0000199999999,388.16666999999995 C 307.6567899999999,387.56476999999995 308.4136899999999,386.87089 309.25450999999987,386.10718999999995 C 310.15623999999985,385.28815999999995 311.1018599999999,384.4349199999999 312.0760099999999,383.57068999999996 C 313.0515299999999,382.70523999999995 314.0029199999999,381.84916 315.83335999999986,380.33334999999994 C 316.64310999999987,379.66275999999993 317.40403999999984,379.07248999999996 318.11335999999983,378.53482999999994 C 318.7775399999998,378.03137999999996 319.4179899999998,377.56427999999994 320.03333999999984,377.10535999999996 C 320.64133999999984,376.65192999999994 321.26252999999986,376.2032 322.50000999999986,375.16666999999995 C 323.17258999999984,374.60331999999994 323.8549899999999,373.98197999999996 324.55350999999985,373.32767999999993 C 325.26978999999983,372.65674999999993 325.98267999999985,371.9618699999999 326.6879999999999,371.25467999999995 C 327.3883499999999,370.55249999999995 328.07279999999986,369.85880999999995 329.33335999999986,368.50001 C 329.9185699999999,367.86920999999995 330.45948999999985,367.26057 330.9668399999999,366.68052 C 331.4473999999999,366.13111 331.8963399999999,365.60456 332.3213299999999,365.10401 C 332.72528999999986,364.62824 333.1037399999999,364.16981000000004 333.8333499999999,363.33335 C 334.1753899999999,362.94123 334.50921999999986,362.57334 334.82934999999986,362.22785 C 335.13061999999985,361.90272 335.41580999999985,361.60334 335.68133999999986,361.32935 C 335.9232499999999,361.07975 336.1423399999999,360.85834 336.4999999999999,360.5 C 336.6353799999999,360.36438 336.7839999999999,360.28799 336.48800999999986,360.68268 C 335.6715399999999,361.77136 335.29199999999986,362.27735 334.8705199999999,362.83933 C 334.4159899999999,363.44535 333.93750999999986,364.08335 333.4440099999999,364.74134000000004 C 332.9444999999999,365.40733000000006 332.4479199999999,366.06928000000005 331.50000999999986,367.33335000000005 C 331.06448999999986,367.91413000000006 330.27042999999986,368.97504000000004 329.90799999999984,369.46668000000005 C 329.5614699999999,369.93674000000004 328.90930999999983,370.83625000000006 328.60400999999985,371.28000000000003 C 327.68710999999985,372.61267000000004 327.40069999999986,373.08533000000006 326.78933999999987,374.02533000000005 C 326.48019999999985,374.50067000000007 326.1803599999999,374.98618000000005 325.5146799999999,375.9159900000001 C 324.8494899999999,376.8451300000001 324.11980999999986,377.71564000000006 323.7563499999999,378.14283000000006 C 323.3971599999999,378.56498000000005 322.68520999999987,379.37980000000005 322.3670099999999,379.79551000000004 C 321.46490999999986,380.97395000000006 321.02911999999986,381.78275 320.7186599999999,382.55735000000004 C 320.4425099999999,383.24635000000006 319.59118999999987,384.67725 320.0853299999999,384.85068000000007 C 320.7928199999999,385.09900000000005 320.6827699999999,383.80539000000005 321.3333499999999,382.6666600000001 C 321.7712499999999,381.9002100000001 322.27697999999987,381.0152300000001 322.8348499999999,380.0311600000001 C 323.4357099999999,378.9712500000001 324.0647099999999,377.85538000000014 324.7053299999999,376.7026700000001 C 325.3523899999999,375.5383900000001 325.9987299999999,374.38645000000014 327.16665999999987,372.16666000000015 C 327.69973999999985,371.15351000000015 328.17989999999986,370.1946100000001 328.6276599999999,369.28666000000015 C 329.05444999999986,368.42121000000014 329.45718999999985,367.58277000000015 329.85467999999986,366.76667000000015 C 330.2478399999999,365.9594500000002 330.63479999999987,365.14576000000017 331.4999999999999,363.50001000000015 C 331.9563599999999,362.63194000000016 332.4500099999999,361.74690000000015 332.9580099999999,360.84202000000016 C 333.4739999999999,359.92289000000017 334.0009799999999,359.0005600000002 334.5239899999999,358.07600000000014 C 335.0429699999999,357.15855000000016 335.5631399999999,356.26017000000013 336.4999999999999,354.50001000000015 C 336.9428699999999,353.66795000000013 337.3497599999999,352.85548000000017 337.7329999999999,352.06251000000015 C 338.1069599999999,351.28874000000013 338.4583399999999,350.52085000000017 338.8039799999999,349.76002000000017 L 339.14366999999993,348.99919000000017 L 339.4813199999999,348.23335000000014" fill="none" id="svg_5" stroke="#000" stroke-width="2"/>
</svg>
