<?xml version="1.0" ?>
<svg baseProfile="full" height="480" version="1.1" width="640" xmlns="http://www.w3.org/2000/svg" xmlns:ev="http://www.w3.org/2001/xml-events" xmlns:xlink="http://www.w3.org/1999/xlink">
	<defs/>
	<path d="M 217.0,163.0 C 215.3,163.0 214.364,163.0 213.51601,163.0 C 212.65267,163.0 211.62534,163.0 210.67866999999998,163.0 C 209.99999999999997,163.0 209.02131999999997,162.99487 208.11599999999999,163.0 C 207.17461999999998,163.00534 206.43385999999998,162.98622 205.49999999999997,163.52083 C 204.78748999999996,163.92873 204.15705999999997,164.37103 203.48398999999998,164.79999999999998 C 202.60062999999997,165.36299 201.84445999999997,166.01924999999997 201.164,166.39998999999997 C 200.41037999999998,166.82166999999998 199.55845,167.13327999999998 198.83599999999998,167.63599999999997 C 197.96233999999998,168.24393999999998 197.66268,169.11460999999997 196.99999999999997,169.66666999999995 C 196.34858999999997,170.20935999999995 195.31713999999997,170.31696999999994 194.59549999999996,170.76166999999995 C 193.76744999999997,171.27193999999994 193.21231999999995,171.83985999999996 192.59999999999997,172.34732999999994 C 191.81551999999996,172.99747999999994 191.00893999999997,173.46002999999993 190.48532999999998,173.79864999999995 C 189.60416999999998,174.36851999999996 188.83744,175.00685999999996 188.17466,175.39997999999994 C 187.48818,175.80714999999995 186.65858,176.42692999999994 185.80131999999998,176.91598999999994 C 185.10105,177.31549999999993 184.60040999999998,177.85614999999993 183.79998999999998,178.28398999999993 C 182.94411999999997,178.74145999999993 181.90418999999997,179.11441999999994 182.16665999999998,179.99998999999994 C 182.37711,180.71005999999994 183.48125,180.95285999999993 184.34731999999997,180.99548999999993 C 185.24173999999996,181.03952999999993 186.24315999999996,180.88131999999993 186.88530999999998,181.17065999999994 C 187.74136,181.55638999999994 188.35315999999997,182.39708999999993 189.19980999999999,182.75715999999994 C 189.94552,183.07429999999994 190.97662,183.22534999999993 191.66131,183.61065999999994 C 192.53969999999998,184.10496999999995 193.27011,184.33788999999993 193.93748,184.69997999999993 C 194.88822,185.21579999999992 195.30378,186.04467999999991 196.04165,186.49997999999994 C 196.58305000000001,186.83405999999994 197.61237,187.26990999999992 198.34281000000001,187.69997999999993 C 199.13563000000002,188.16677999999993 199.86852000000002,188.77411999999993 200.65714000000003,188.94730999999993 C 201.39429000000004,189.10918999999993 202.39602000000002,189.29096999999993 203.16398000000004,189.57463999999993 C 204.11149000000003,189.92462999999992 204.95376000000005,190.24211999999994 205.69998000000004,190.64731999999992 C 206.46110000000004,191.06061999999991 207.44708000000003,190.9059699999999 208.29999000000004,191.35263999999992 C 209.05222000000003,191.7465899999999 209.79999000000004,191.99930999999992 210.69998000000004,191.99997999999994 C 211.59999000000005,192.00064999999995 212.49998000000005,191.99997999999994 213.39998000000003,191.99997999999994 L 214.29999000000004,191.99997999999994 L 215.19998000000004,191.99997999999994 L 216.09949000000003,191.99997999999994" fill="none" id="svg_6" stroke="#000" stroke-width="2"/>
</svg>
