<?xml version="1.0" ?>
<svg baseProfile="full" height="480" version="1.1" width="640" xmlns="http://www.w3.org/2000/svg" xmlns:ev="http://www.w3.org/2001/xml-events" xmlns:xlink="http://www.w3.org/1999/xlink">
	<defs/>
	<path d="M 362.0,370.0 C 363.64816,370.70984 364.47119,371.25189 364.82935,372.11465 C 365.21270999999996,373.03810999999996 365.25903999999997,373.81243 365.97199,374.25466 C 366.82065,374.78109 367.27091,375.29861 367.78534,375.83199 C 368.32761,376.39425 369.08649,377.29339000000004 369.53833000000003,377.89098 C 370.16473,378.71947 370.48999000000003,379.24755 371.25183000000004,380.19915000000003 C 371.79358,380.87585 372.32712000000004,381.50497 373.00983,382.35348000000005 C 373.51624000000004,382.98287000000005 373.98239,383.66482 374.83335,384.33334 C 375.48679,384.84668000000005 376.4368,384.97287 376.89466,385.70984000000004 C 377.34452,386.43399000000005 377.73524,387.21665 378.35184,387.75266000000005 C 379.14939,388.44596000000007 379.47916,389.00000000000006 380.09983,389.97867 L 380.564,390.62534 L 380.91468000000003,391.48401 L 380.98933000000005,392.17465" fill="none" id="svg_6" stroke="#000" stroke-width="2"/>
</svg>
