<?xml version="1.0" ?>
<svg baseProfile="full" height="480" version="1.1" width="640" xmlns="http://www.w3.org/2000/svg" xmlns:ev="http://www.w3.org/2001/xml-events" xmlns:xlink="http://www.w3.org/1999/xlink">
	<defs/>
	<path d="M 519.0,378.0 C 520.79999,378.0 521.79266,378.35492 522.56403,377.96399 C 523.26215,377.6102 523.93177,377.39295000000004 524.71466,376.91467 C 525.51794,376.42395 526.22491,376.25625 526.87866,375.77865 C 527.57776,375.26794 528.29791,375.15933 528.94732,374.64733 C 529.5619399999999,374.1628 530.38934,373.98931 530.99999,373.49999 C 531.6106500000001,373.01067 532.4063,372.90362000000005 533.0526600000001,372.35265000000004 C 533.6570300000001,371.83748 534.3079700000001,371.23302000000007 534.94731,370.64733000000007 C 535.53056,370.11300000000006 536.2512,369.5671300000001 536.99998,369.16665000000006 C 537.79142,368.7433700000001 538.3519100000001,368.1728800000001 538.94731,367.64733000000007 C 539.58543,367.08407000000005 540.1304200000001,366.5433300000001 540.71599,365.91598000000005 C 541.3586300000001,365.2275 541.96031,364.76971000000003 542.7,364.35266000000007 C 543.445,363.9326200000001 544.15886,363.48190000000005 544.71599,362.91598000000005 C 545.3767,362.24484000000007 546.05956,361.71502000000004 546.7,361.35266000000007 C 547.5208,360.88824000000005 548.1856,360.51126000000005 548.8333,359.8333400000001 C 549.43736,359.2011100000001 549.94731,358.6473400000001 550.49999,358.00000000000006 L 551.0253200000001,357.42532000000006" fill="none" id="svg_6" stroke="#000" stroke-width="2"/>
</svg>
