<?xml version="1.0" ?>
<svg baseProfile="full" height="480" version="1.1" width="640" xmlns="http://www.w3.org/2000/svg" xmlns:ev="http://www.w3.org/2001/xml-events" xmlns:xlink="http://www.w3.org/1999/xlink">
	<defs/>
	<path d="M 169.51137,136.09091 C 169.3447,137.92424 168.7377,138.36098 168.29004,139.19092 C 167.94071,139.83856 167.57895,140.85979 166.80687,141.08641 C 165.9476,141.33864 164.95940000000002,140.80182 164.12204,141.10158 C 163.38528,141.36533 162.70186,142.01856 162.51137,142.70159 C 162.2724,143.55846 161.98419,144.30038000000002 161.63288,145.19092 C 161.37224,145.85161 161.92258,146.91348 161.4542,147.73375000000001 C 160.98988,148.54691000000003 160.79336999999998,149.04819 161.61121,149.09091 C 162.53543,149.13919 163.44289,148.69859 164.22603,149.17624 C 165.02963,149.66637 165.61138,150.09091 166.51137,150.09091 C 167.31137,150.09091 168.21137,150.09091 169.11138,150.09091 C 170.01137,150.09091 170.9007,150.10158 171.51137,150.59091 L 172.15871,151.08641 L 173.03220000000002,151.09091 L 173.91137,151.09091" fill="none" id="svg_8" stroke="#000" stroke-width="2"/>
</svg>
