<?xml version="1.0" ?>
<svg baseProfile="full" height="480" version="1.1" width="640" xmlns="http://www.w3.org/2000/svg" xmlns:ev="http://www.w3.org/2001/xml-events" xmlns:xlink="http://www.w3.org/1999/xlink">
	<defs/>
	<path d="M 546.5,360.89999 C 548.25714,360.89999 549.16351,360.9533 549.90448,360.84283 C 550.91339,360.69244 551.69141,360.33233 552.47852,359.80017 C 553.22358,359.29641999999996 554.03205,358.96520999999996 554.79999,358.54733 C 555.64087,358.08975 556.50049,357.92706 557.29999,357.89999 C 558.14429,357.8714 558.60047,357.10821 559.0,356.39999 C 559.49536,355.52203000000003 560.07733,354.9588 560.52533,354.28933 C 561.01746,353.55389 561.4572800000001,352.70303 561.5,351.79998 C 561.54254,350.90099 561.6543,349.98373 562.5,349.89999 C 563.29608,349.82116 564.20001,349.89999 565.09998,349.89999 C 566.0,349.89999 567.1465499999999,350.08453000000003 567.4791899999999,349.37918 C 567.8543099999999,348.58377 567.3634699999999,347.54336 567.7839999999999,346.70001 C 568.1139599999999,346.03836 568.4977499999999,345.20001 568.4999999999999,344.29999000000004 C 568.5023199999999,343.37918 568.5014599999998,342.41602000000006 568.4999999999999,341.72534 C 568.4977399999999,340.66168 568.1442899999998,339.92859000000004 567.2986499999998,339.89999 C 566.3338699999998,339.86737 565.4999999999999,339.89999 564.5214899999999,339.89999 C 563.8045099999998,339.89999 562.9000299999999,339.9053 562.0000099999999,339.89999 C 561.0999199999999,339.89465 560.1861699999998,339.55758000000003 559.5000099999999,338.89999 C 558.9895099999999,338.41073 558.2999999999998,337.70001 557.7000199999999,337.1 C 557.0999799999998,336.49996000000004 556.3984499999999,335.80157 555.9000299999999,335.29998 C 555.1977599999999,334.59322000000003 554.6779799999999,333.94003 554.29865,333.13198 C 553.9592299999999,332.40902 553.7091099999999,331.58742 553.01465,330.86932 C 552.36731,330.19992 551.48511,329.75103 550.90003,329.24282 C 550.28376,328.70748 549.5069,327.89297 548.90003,327.3045 C 548.30665,326.72906 547.50214,326.06359000000003 546.90003,325.64816 C 546.30213,325.23559 545.4834,324.58111 544.90003,323.89465 C 544.4880400000001,323.40991 543.96229,322.60022000000004 543.09998,321.87066 C 542.53693,321.39425 541.4894499999999,320.91992 540.909,320.59999999999997 C 540.05414,320.12883999999997 539.5,319.39998999999995 538.93067,318.70131999999995 L 538.3146399999999,318.33599 L 537.38532,317.98530999999997" fill="none" id="svg_6" stroke="#000" stroke-width="2"/>
</svg>
