<?xml version="1.0" ?>
<svg baseProfile="full" height="480" version="1.1" width="640" xmlns="http://www.w3.org/2000/svg" xmlns:ev="http://www.w3.org/2001/xml-events" xmlns:xlink="http://www.w3.org/1999/xlink">
	<defs/>
	<path d="M 390.5,279.0 C 392.55466,279.56934 393.19675,279.86258 393.896,280.18533 C 394.61808,280.51861 395.67505,280.98694 396.65332,281.36401 C 397.25134,281.59451 398.33926,281.98635 399.04285,282.29998 C 399.90308,282.68346 400.68998,283.12261 401.54166,283.49999 C 402.26239,283.81936 403.14581999999996,284.08962 404.14002,284.41067000000004 C 404.81568,284.62884 405.52204,284.77444 406.44666,285.48400000000004 C 407.03489,285.93542 407.80426,286.88644000000005 408.50983,287.23833 C 409.25888000000003,287.61193000000003 410.33139,287.84624 411.04285000000004,287.94731 C 411.89347000000004,288.06813 412.91654000000005,288.24538 413.47916000000004,288.52083 C 414.51645,289.02864 415.14328000000006,289.47258 415.88935000000004,289.97466 C 416.55765,290.4244 417.21497000000005,291.02666 417.69868,291.85332 C 418.06434,292.47826 418.31639,293.21504 418.464,294.32799 C 418.57856,295.19179 418.13835,295.94731 417.17784,296.22133 L 416.62135,296.42531 L 415.86683,296.64733" fill="none" id="svg_6" stroke="#000" stroke-width="2"/>
</svg>
