<?xml version="1.0" ?>
<svg baseProfile="full" height="480" version="1.1" width="640" xmlns="http://www.w3.org/2000/svg" xmlns:ev="http://www.w3.org/2001/xml-events" xmlns:xlink="http://www.w3.org/1999/xlink">
	<defs/>
	<path d="M 329.0,273.0 C 329.0,275.60449 329.0,276.45715 329.0,277.42151 C 329.0,278.23599 329.0,279.10449 329.0,280.29984 C 329.0,280.89551 329.0,281.76401000000004 329.0,282.83335 C 329.0,283.78535 329.0,284.50983 329.0,285.64268 C 329.0,286.30534 329.0,287.00001 329.0,288.03202 C 329.0,288.95716 329.0,289.97916 329.0,290.68269 C 329.0,291.68534999999997 329.0,292.52085999999997 329.0,293.40135 C 329.0,294.29967 329.0,295.17868999999996 329.0,295.98566999999997 C 329.0,297.03202999999996 329.01184,297.80542999999994 328.99866,298.76935999999995 C 328.98837999999995,299.52103999999997 329.01847,300.34516999999994 328.64282999999995,301.53833999999995 C 328.44305999999995,302.17283 327.70559999999995,303.05896999999993 327.35718999999995,303.75265999999993 C 326.93137999999993,304.60043999999994 327.15729999999996,305.36117999999993 326.98932999999994,306.3640199999999 C 326.8437599999999,307.2331299999999 326.1778699999999,307.87222999999994 325.70001999999994,308.65268999999995 C 325.28146999999996,309.33630999999997 324.7166199999999,310.25821999999994 324.20001999999994,310.79868999999997 C 323.6078299999999,311.41822999999994 322.85531999999995,312.03983999999997 322.17465999999996,312.38935999999995 C 321.19482999999997,312.89246999999995 320.41074,312.99467999999996 319.50001,313.00001999999995 C 318.60004999999995,313.0053 317.69550999999996,313.00001999999995 316.83335,313.00001999999995 C 315.97916,313.00001999999995 315.00001,313.00001999999995 314.20002,313.00001999999995 C 313.4,313.00001999999995 312.33662,313.14787999999993 311.60001,312.7713499999999 C 310.67823,312.30018999999993 310.39124,311.58588999999995 310.0,310.9583599999999 C 309.59079,310.3020199999999 308.80106,309.0418899999999 308.40451,308.5008399999999 C 308.0217,307.9785299999999 307.42801000000003,307.17106999999993 307.02151000000003,306.13569999999993 C 306.71267000000006,305.3490799999999 306.52084,304.4583599999999 306.41067000000004,304.0040199999999 L 306.20132000000007,303.08134999999993" fill="none" id="svg_6" stroke="#000" stroke-width="2"/>
</svg>
