<?xml version="1.0" ?>
<svg baseProfile="full" height="480" version="1.1" width="640" xmlns="http://www.w3.org/2000/svg" xmlns:ev="http://www.w3.org/2001/xml-events" xmlns:xlink="http://www.w3.org/1999/xlink">
	<defs/>
	<path d="M 210.0,142.0 C 210.0,143.8 210.00056,144.7 210.0,145.52083 C 209.99933,146.48399999999998 210.08578,147.21842999999998 209.64734,148.24732999999998 C 209.35997,148.92171 209.01918,149.83541999999997 209.00133000000002,150.60133 C 208.97806000000003,151.59973 209.00000000000003,152.39999 209.00000000000003,153.39999 C 209.00000000000003,154.19999 208.95264000000003,155.20263 209.02083000000002,156.0 C 209.10695,157.0069 209.42459000000002,157.80524 209.70450000000002,158.39999 C 210.17948,159.40925000000001 210.55643000000003,159.9759 210.83333000000002,161.0 C 211.04588,161.78609 211.08716,162.64883 211.70534,163.5955 C 212.09973,164.19947 212.71370000000002,165.00175 213.08667,165.66133 C 213.60545,166.57878 214.06891,167.00882 214.52083,167.54166999999998 C 215.2437,168.39397999999997 215.86685,169.29453999999998 216.19467,169.89549 C 216.66443,170.75664 216.90166,171.37149 217.76933,172.31733 C 218.22836,172.81771 218.80912,173.23753 219.31733,173.76933 C 220.11764,174.60678 220.54545,175.29915 220.97916,175.97917 C 221.39801,176.63588000000001 222.17627000000002,177.76153000000002 222.79999,178.31334 C 223.37898,178.82558 224.20726000000002,179.53677000000002 224.60449,180.00983000000002 C 225.24762,180.77571000000003 225.6546,181.34829000000002 226.42116,182.07866 C 227.18532,182.80675000000002 227.77345,183.19063000000003 228.23065,183.68401 C 229.10306,184.62548 229.33955,185.25161 229.80531,186.16167000000002 C 230.32252,187.17227000000003 230.7642,187.88608000000002 231.00981,188.24817000000002 C 231.51048,188.98628000000002 232.03405999999998,189.70465000000002 232.83330999999998,190.66667 C 233.30695999999998,191.23677 233.99005999999997,191.97877 234.50981,192.33383 C 235.58603,193.06904 236.30208,193.24397000000002 236.97915999999998,193.5 C 237.63873999999998,193.7494 238.79142,194.26724 239.30265999999997,194.84665999999999 C 239.80334999999997,195.41412 240.29518,196.43934 240.84664999999998,197.21465999999998 C 241.22875,197.75186 241.62451,198.31485999999998 242.68265,199.03067 C 243.43977999999998,199.54285 244.07616,199.6395 245.03333,200.48533999999998 C 245.57596,200.96486 246.01922000000002,201.64433999999997 246.764,202.2 C 247.63897,202.8528 248.34066,203.17513 248.94799,203.60001 C 249.75942,204.16768 250.29391,204.81632 250.80082000000002,205.4 C 251.51652,206.2241 252.27883000000003,206.81589 252.85732000000002,207.23600000000002 C 253.48391,207.69103 254.51853000000003,208.42495000000002 255.25266000000002,208.94367000000003 C 255.62392000000003,209.20600000000002 256.35232,209.74242000000004 257.11599,210.14535000000004 C 258.15096,210.69142000000002 259.16409,210.88655000000003 259.75332000000003,211.07601000000003 C 260.85787000000005,211.43119000000002 261.55697000000004,212.05799000000002 261.99999,212.54168 C 262.46294,213.04713 263.40963000000005,214.09289 263.96166000000005,214.54734000000002 C 264.52965000000006,215.01495000000003 265.16451000000006,215.44866000000002 266.16665000000006,216.16668 C 266.88470000000007,216.68115 267.25182000000007,216.94781 267.97915000000006,217.50001 C 268.69378000000006,218.04258000000002 269.66811000000007,218.83161 270.2306500000001,219.31335 C 270.9811400000001,219.95605 271.4058800000001,220.40785000000002 272.42151000000007,220.97851 C 273.20709000000005,221.41992 273.80863000000005,221.59533 275.00000000000006,222.00001 C 275.5976600000001,222.20301 276.48456000000004,222.48539 277.31467000000004,222.80001000000001 C 278.32016000000004,223.18110000000001 278.92026000000004,223.59519 279.97867,223.8785 C 280.73483000000004,224.08091 281.65268000000003,224.00001 282.51599000000004,224.00001 C 283.47916000000004,224.00001 284.3045,224.00001 285.32132000000007,224.00001 L 286.00000000000006,224.00001" fill="none" id="svg_6" stroke="#000" stroke-width="2"/>
</svg>
