<?xml version="1.0" ?>
<svg baseProfile="full" height="480" version="1.1" width="640" xmlns="http://www.w3.org/2000/svg" xmlns:ev="http://www.w3.org/2001/xml-events" xmlns:xlink="http://www.w3.org/1999/xlink">
	<defs/>
	<path d="M 206.0,66.0 C 200.856,63.256 200.06387,63.03127 199.0,63.0 C 198.20035,62.9765 197.39999,63.0 196.39999,63.0 C 195.6,63.0 194.57887,62.87534 193.83599,63.072 C 192.97085,63.301030000000004 192.57873,64.06098 191.89982,64.9785 C 191.51086,65.50417 190.63708,66.04108 190.02082000000001,66.52083999999999 C 189.27651,67.10028 189.02546,68.0632 188.91732000000002,68.77201 C 188.78437000000002,69.6434 188.57343000000003,70.63973999999999 188.42533000000003,71.31334 C 188.16451000000004,72.49954 188.01458000000002,73.31281 187.99999000000003,74.33333999999999 C 187.99039000000002,75.00528 187.83742000000004,75.80166 188.22165000000004,76.85700999999999 C 188.50816000000003,77.64398999999999 189.32149000000004,78.09983999999999 190.02081000000004,78.47916999999998 L 190.99998000000005,78.83333999999998 L 191.81065000000004,78.96399999999998 L 192.68531000000004,78.99866999999999" fill="none" id="svg_6" stroke="#000" stroke-width="2"/>
</svg>
