<?xml version="1.0" ?>
<svg baseProfile="full" height="480" version="1.1" width="640" xmlns="http://www.w3.org/2000/svg" xmlns:ev="http://www.w3.org/2001/xml-events" xmlns:xlink="http://www.w3.org/1999/xlink">
	<defs/>
	<path d="M 264.0,144.0 C 268.12851,145.88567 269.10016,146.0 269.88535,146.0 C 270.82535,146.0 271.83335,146.00061 272.62534,146.0 C 273.48267,145.99933 274.58762,146.18149 274.97867,145.38933 C 275.38165000000004,144.57297 275.0,143.51601 275.0,142.82533 C 275.0,141.75717 275.0,140.89982 275.0,140.11467000000002 C 275.0,139.17467000000002 275.37799,138.00876000000002 274.88568,137.36166000000003 C 274.39227,136.71310000000003 273.16666,137.00000000000003 272.33865,137.00000000000003 C 271.45732999999996,137.00000000000003 270.74933,137.00000000000003 269.768,137.00000000000003 C 268.80983999999995,137.00000000000003 267.83333999999996,136.99992000000003 266.99998999999997,137.00000000000003 C 266.02149999999995,137.00009000000003 265.14561999999995,136.86453000000003 264.52083,137.54167000000004 C 263.92681,138.18547000000004 264.00533,139.17462000000003 263.99998999999997,140.11734000000004 C 263.99517,140.96931000000004 263.99998999999997,141.76801000000003 263.99998999999997,142.74933000000004 C 263.99998999999997,143.66667000000004 263.99992999999995,144.57868000000005 263.99998999999997,145.41066000000004 C 264.00007999999997,146.32134000000005 263.79952,147.27310000000003 264.28797999999995,148.11333000000005 C 264.66321999999997,148.75879000000006 265.76771999999994,148.93767000000005 266.52082999999993,148.97917000000004 C 267.31632999999994,149.02301000000003 268.3159999999999,149.00000000000003 269.22532999999993,149.00000000000003 C 270.1666399999999,149.00000000000003 270.94816999999995,149.00000000000003 271.73866999999996,149.00000000000003 L 272.85698999999994,149.00000000000003 L 273.6909999999999,149.00000000000003" fill="none" id="svg_8" stroke="#000" stroke-width="2"/>
</svg>
