<?xml version="1.0" ?>
<svg baseProfile="full" height="480" version="1.1" width="640" xmlns="http://www.w3.org/2000/svg" xmlns:ev="http://www.w3.org/2001/xml-events" xmlns:xlink="http://www.w3.org/1999/xlink">
	<defs/>
	<path d="M 304.51135,253.09091 C 304.51135,256.04358 304.51135,256.59091 304.51135,257.40692 C 304.51135,258.62924000000004 304.51135,259.42923 304.51135,260.46557 C 304.51135,261.25756 304.5011,262.13644 304.59671,262.77758 C 304.74688999999995,263.78466 305.03851,264.60552 305.22736,265.49224 C 305.41758,266.38531 305.45606,267.2835 305.56403,268.13374999999996 C 305.6962,269.17452 306.06717,270.02995999999996 306.3447,270.92425 C 306.55436,271.59988 306.72402999999997,272.63656 306.94736,273.36291 C 307.20569,274.20312 307.5083,275.09194 307.81137,275.98641 C 308.00937,276.57072999999997 308.27991000000003,277.41875 308.71136,278.40423 C 309.0845,279.25649 309.68923,280.02017 310.07537,280.71623999999997 C 310.52578,281.52819 310.49532,282.52907999999996 311.07937000000004,283.20556 C 311.56982000000005,283.77364 312.44372000000004,284.3905 312.51135000000005,285.25756 C 312.5794000000001,286.13015 312.5524300000001,286.7875 312.79669000000007,287.77358000000004 C 312.99640000000005,288.57979000000006 313.2126800000001,289.38106000000005 313.81586000000004,290.28106 C 314.31906000000004,291.03188 314.99539000000004,291.57488 315.68604000000005,292.26556000000005 C 316.34470000000005,292.92425000000003 316.92661000000004,293.42703000000006 317.51136,294.25756000000007 C 317.96345,294.89965000000007 318.37125000000003,295.7119400000001 318.99403,296.48955000000007 C 319.47154,297.08580000000006 319.90141,297.6310900000001 320.53221,298.5909000000001 C 320.98311,299.2770000000001 321.56001000000003,299.7520300000001 322.2354,300.2295700000001 C 323.13509000000005,300.8657400000001 323.87035000000003,301.4007400000001 324.36205,301.9629100000001 C 324.97677,302.6657000000001 325.30095,303.50371000000007 325.56206000000003,304.29091000000005 C 325.90023,305.31044 326.38225000000006,305.88323 326.86321000000004,306.49089000000004 C 327.64300000000003,307.47609000000006 327.87056,308.21522000000004 328.67806,308.75755000000004 C 329.40072000000004,309.2429 330.23733000000004,309.46388 330.84472,310.09089000000006 C 331.42452,310.6894300000001 332.0891,311.33094000000006 332.73272,311.9695500000001 C 333.30413,312.5365100000001 333.70268999999996,313.2172300000001 334.27306,313.8480600000001 C 334.96031999999997,314.6081300000001 335.51058,315.0916800000001 336.02738999999997,315.6068800000001 C 336.75760999999994,316.3348200000001 337.38176,316.9110500000001 338.16405,317.3908800000001 C 338.84736999999996,317.8100100000001 339.73708,318.4197200000001 340.39536999999996,318.8908800000001 C 341.14104,319.4246000000001 341.90567999999996,319.7260200000001 342.74970999999994,320.3863900000001 C 343.4318399999999,320.9200800000001 343.92402999999996,321.5732800000001 344.6780499999999,322.0908900000001 C 345.32089999999994,322.5321700000001 346.11765999999994,322.88114000000013 347.10687999999993,323.3908800000001 C 347.67828999999995,323.6853100000001 348.57742999999994,324.3616400000001 349.20688999999993,324.7337100000001 C 350.0238499999999,325.2166200000001 350.53986999999995,325.8913600000001 351.22119999999995,326.38639000000006 C 351.95724999999993,326.92115000000007 352.8721699999999,327.05649000000005 353.51135999999997,327.59089000000006 C 354.12937,328.10755000000006 354.86172999999997,328.60832000000005 355.71137,329.0068800000001 C 356.57178,329.4105100000001 357.31417999999996,329.5594900000001 358.07538,330.11622000000006 C 358.74332,330.6047500000001 359.36157,331.07038000000006 360.34335,331.09089000000006 C 361.22101,331.1092300000001 362.0903,331.0527400000001 362.86467999999996,331.51621000000006 C 363.70797,332.0209100000001 364.39205,332.49412000000007 365.02867999999995,332.89222000000007 C 365.91527999999994,333.44666000000007 366.66051999999996,334.12214000000006 367.33669,334.48023000000006 C 368.01137,334.8375300000001 369.04021,334.99296000000004 369.81584999999995,335.44806000000005 C 370.44649999999996,335.8181200000001 371.34322,336.44952000000006 371.94203999999996,336.80554000000006 C 372.82570999999996,337.33090000000004 373.38836,337.84494000000007 374.33669,338.0655500000001 C 375.33610999999996,338.2980300000001 375.96894999999995,338.70132000000007 376.83268999999996,338.9695400000001 C 377.65959,339.2263100000001 378.58723999999995,339.44348000000014 379.31001999999995,339.8068800000001 C 380.07744999999994,340.1927100000001 380.82216999999997,340.7072100000001 381.71000999999995,341.0055500000001 C 382.53175999999996,341.2816700000001 383.37269999999995,341.0908800000001 384.3446799999999,341.0908800000001 C 385.20685999999995,341.0908800000001 386.1473499999999,341.0908800000001 386.9953499999999,341.0908800000001 C 387.8586899999999,341.0908800000001 388.7541999999999,341.0908800000001 389.7113499999999,341.0908800000001 C 390.6113399999999,341.0908800000001 391.5113399999999,341.0908800000001 392.3900299999999,341.0908800000001 C 393.21586999999994,341.0908800000001 394.1113399999999,341.0908800000001 395.0113399999999,341.0908800000001 C 395.9113599999999,341.0908800000001 396.8113599999999,341.0908800000001 397.7113499999999,341.0908800000001 C 398.6113399999999,341.0908800000001 399.5113399999999,341.0908800000001 400.3113599999999,341.0908800000001 C 401.2113499999999,341.0908800000001 402.1113499999999,341.0908800000001 403.0113399999999,341.0908800000001 C 403.9220199999999,341.0908800000001 404.8563099999999,341.2539700000001 405.6500099999999,341.0548700000001 C 406.5222899999999,340.8360600000001 407.0776499999999,340.1375700000001 407.8631799999999,340.0953700000001 C 408.8845699999999,340.0405000000001 409.8326899999999,340.09149000000014 410.6860299999999,340.09088000000014 C 411.62468999999993,340.0902100000001 412.2842999999999,339.69894000000016 412.8446899999999,339.09088000000014 C 413.4125899999999,338.4746700000001 414.3344699999999,338.18143000000015 415.2640299999999,338.0953700000001 C 416.1557799999999,338.0128200000001 416.8661099999999,337.8992000000001 417.6166899999999,337.44355000000013 C 418.3173399999999,337.01820000000015 419.3448699999999,337.10804000000013 420.20686999999987,337.0908900000001 C 421.1118999999999,337.0728800000001 421.9086799999999,336.6520500000001 422.61152999999985,335.9908800000001 C 423.14533999999986,335.48871000000014 423.97328999999985,334.8414400000001 424.72202999999985,334.5268900000001 C 425.49091999999985,334.2038600000001 426.49033999999983,334.1013200000001 427.34467999999987,334.0908900000001 C 428.2067999999999,334.0803600000001 428.9121499999999,333.89066000000014 429.5953499999999,333.3748900000001 C 430.2107099999999,332.9103200000001 431.21134999999987,333.0337300000001 431.9905199999999,332.5908900000001 L 432.5126799999999,331.8068900000001" fill="none" id="svg_6" stroke="#000" stroke-width="2"/>
</svg>
