<?xml version="1.0" ?>
<svg baseProfile="full" height="480" version="1.1" width="640" xmlns="http://www.w3.org/2000/svg" xmlns:ev="http://www.w3.org/2001/xml-events" xmlns:xlink="http://www.w3.org/1999/xlink">
	<defs/>
	<path d="M 213.0,102.0 C 212.0,105.4375 211.26576,105.87088 211.01067,106.61066 C 210.72074,107.45147 211.36551,108.50335 212.10001,108.87867 C 212.94147,109.30864 213.65261,109.80017 214.5,109.97916 C 215.3808,110.16520999999999 216.3,110.0 217.20134,110.0 C 218.16666999999998,110.0 218.87249999999997,110.17568 219.83333,109.83334 C 220.65922999999998,109.53907000000001 221.31135999999998,108.88088 221.71465999999998,108.2 C 222.20461999999998,107.37284 222.68619999999999,106.57764 222.94284,105.7 C 223.19594999999998,104.83445 223.0,103.9 223.0,103.0 C 223.0,102.2 223.36317,101.20311 222.964,100.436 C 222.56886,99.67662000000001 221.78477,99.06089 220.89999,99.0 C 220.00212,98.93821 219.19999,99.0 218.3,99.0 L 217.39999,99.0 L 216.5,99.0 L 215.61067,99.01067" fill="none" id="svg_6" stroke="#000" stroke-width="2"/>
</svg>
