<?xml version="1.0" ?>
<svg baseProfile="full" height="480" version="1.1" width="640" xmlns="http://www.w3.org/2000/svg" xmlns:ev="http://www.w3.org/2001/xml-events" xmlns:xlink="http://www.w3.org/1999/xlink">
	<defs/>
	<path d="M 298.0,314.0 C 308.77133,310.48584 309.48907,310.33026 310.16599,310.22415 C 310.80396,310.12414 311.4159,310.05328000000003 312.58735,309.96084 C 313.16233,309.91546 314.33451,309.84475000000003 315.57334000000003,309.71334 C 316.22401,309.64431 316.89384,309.55678 317.58335000000005,309.45834 C 318.29386000000005,309.3569 319.0241500000001,309.24301 319.77335000000005,309.11334 C 321.33506000000006,308.84305 322.14310000000006,308.67926 322.9706800000001,308.51733 C 323.8144300000001,308.35226 324.6713900000001,308.18203 325.5416600000001,308.02084 C 326.4207200000001,307.858 327.3072900000001,307.69848 328.20267000000007,307.56933000000004 C 329.9968600000001,307.31054000000006 330.89997000000005,307.23568000000006 331.80399000000006,307.16934000000003 C 332.71302000000003,307.10263000000003 333.63187000000005,307.05856000000006 334.56250000000006,307.02084 C 335.5078700000001,306.98251000000005 336.47162000000003,306.95480000000003 337.45599000000004,306.91732 C 339.50024,306.83950000000004 340.56451000000004,306.78176 341.65466000000004,306.71465 C 342.76721000000003,306.64614 343.89749000000006,306.56606 345.04165000000006,306.47915 C 346.1961600000001,306.39144 347.3564400000001,306.29696 348.51867000000004,306.19866 C 350.83358000000004,306.00289000000004 351.97845000000007,305.9013 353.11334000000005,305.79867 C 354.23846000000003,305.69692000000003 355.35364000000004,305.59231 356.4583400000001,305.47915 C 357.55365000000006,305.36697 358.6392200000001,305.24993 359.7133400000001,305.11465 C 361.83517000000006,304.84740999999997 362.87905000000006,304.68222 363.9146600000001,304.51599 C 364.9434100000001,304.35086 365.96404000000007,304.17508 366.9791400000001,304.0 C 367.9893600000001,303.82578 368.99473000000006,303.64801 369.9986400000001,303.48401 C 371.99849000000006,303.15732 372.99959000000007,303.01932 373.9986400000001,302.88266 C 374.99525000000006,302.74634 375.9897000000001,302.61746 376.9791400000001,302.47916 C 377.9643700000001,302.34143 378.9448700000001,302.20221 379.9146600000001,302.03067 C 381.83769000000007,301.69052 382.7801400000001,301.46518 383.71199000000007,301.23064999999997 C 384.63585000000006,300.99814 385.54393000000005,300.74303999999995 386.43748000000005,300.47914999999995 C 387.31858000000005,300.2189599999999 388.18132,299.9487199999999 389.0280000000001,299.68267 C 390.6669800000001,299.16769 391.4563800000001,298.92062 392.2266400000001,298.68532999999996 C 392.9763700000001,298.45629999999994 393.7068000000001,298.23650999999995 394.4166400000001,298.02083999999996 C 395.1068000000001,297.81114999999994 395.77769000000006,297.60774999999995 396.4266500000001,297.40133 C 397.6686500000001,297.00624999999997 398.2574300000001,296.80242 398.8266400000001,296.60130999999996 C 399.3774500000001,296.40669999999994 399.9070800000001,296.21178 400.4166400000001,296.02083999999996 C 400.90706000000006,295.83705999999995 401.3764800000001,295.65666999999996 401.8266400000001,295.48531999999994 C 402.6662700000001,295.16573999999997 403.05619000000013,295.02037999999993 403.4266500000001,294.88665999999995 C 403.7762300000001,294.76046999999994 404.1066400000001,294.64667 404.4166400000001,294.5416599999999 L 404.7066500000001,294.4466599999999 L 404.9766400000001,294.3616699999999 L 405.2266400000001,294.28665999999987" fill="none" id="svg_6" stroke="#000" stroke-width="2"/>
</svg>
