<?xml version="1.0" ?>
<svg baseProfile="full" height="480" version="1.1" width="640" xmlns="http://www.w3.org/2000/svg" xmlns:ev="http://www.w3.org/2001/xml-events" xmlns:xlink="http://www.w3.org/1999/xlink">
	<defs/>
	<path d="M 230.0,236.0 C 229.12134,235.22133 228.60837,235.87126 227.79866,236.284 C 227.0779,236.6514 226.05112000000003,236.66913 225.33333000000002,237.16667999999999 C 224.70966,237.59897999999998 224.41059,238.60774999999998 223.60001000000003,238.97467999999998 C 222.81818,239.32859 222.11174000000003,239.72526 221.52083000000002,240.50000999999997 C 220.96106000000003,241.23393999999996 220.45931000000002,241.87463999999997 220.00000000000003,242.52083999999996 C 219.50450000000004,243.21794999999997 219.31854000000004,244.23236999999997 218.71600000000004,244.91600999999997 C 218.18925000000004,245.51364999999998 217.63260000000002,246.14799999999997 217.28399000000005,246.80000999999996 C 216.83093000000005,247.64738999999994 216.45791000000006,248.44569999999996 215.70449000000005,248.94732999999997 C 215.01522000000006,249.40624999999997 214.74535000000006,250.56890999999996 215.43600000000004,250.96400999999997 C 216.18661000000003,251.39340999999996 217.19999000000004,251.00000999999997 218.10000000000002,251.00000999999997 C 218.99999000000003,251.00000999999997 219.8,251.00000999999997 220.69999,251.00000999999997 C 221.60000000000002,251.00000999999997 222.49999000000003,251.00000999999997 223.39999,251.00000999999997 C 224.3,251.00000999999997 225.19999,251.00000999999997 226.1,251.00000999999997 C 226.99999,251.00000999999997 227.79999999999998,251.00000999999997 228.69998999999999,251.00000999999997 C 229.6,251.00000999999997 230.49999,251.00000999999997 231.39998999999997,251.00000999999997 L 232.29999999999998,251.00000999999997 L 233.19998999999999,250.99867999999998" fill="none" id="svg_6" stroke="#000" stroke-width="2"/>
</svg>
