<?xml version="1.0" ?>
<svg baseProfile="full" height="480" version="1.1" width="640" xmlns="http://www.w3.org/2000/svg" xmlns:ev="http://www.w3.org/2001/xml-events" xmlns:xlink="http://www.w3.org/1999/xlink">
	<defs/>
	<path d="M 197.0,158.0 C 198.83333,158.16667 199.0,159.0 199.0,159.8 C 199.0,160.69999 198.99805,161.61961000000002 199.42534,162.39999 C 199.87572,163.22256000000002 200.0,164.1 200.0,165.0 C 200.0,165.8 200.0,166.7 200.0,167.60001 C 200.0,168.5 200.0,169.4 200.0,170.30001 C 200.0,171.2 200.0,172.10001 200.0,173.00000999999997 C 200.0,173.80001 200.0,174.70000999999996 200.0,175.60001999999997 C 200.0,176.50000999999997 200.0,177.40000999999998 200.0,178.30001999999996 C 200.0,179.20000999999996 200.0,180.10001999999997 200.0,181.00001999999995 C 200.0,181.80001999999996 200.0,182.70001999999994 200.0,183.60002999999995 C 200.0,184.50001999999995 200.0,185.40001999999996 200.0,186.30002999999994 C 200.0,187.20001999999994 200.0,188.10002999999995 200.0,189.00002999999992 C 200.0,189.80002999999994 200.0,190.7000299999999 200.0,191.60003999999992 C 200.0,192.50002999999992 199.88351,193.40818999999993 200.0045,194.3000399999999 C 200.11592000000002,195.1213899999999 200.84585,195.7668999999999 200.98933,196.60003999999992 C 201.14209,197.48702999999992 200.90599,198.44712999999993 201.35266,199.3000399999999 C 201.74660999999998,200.0522699999999 202.44911,200.5462599999999 202.91466999999997,201.2866999999999 C 203.38527999999997,202.0351699999999 202.88927999999999,203.03413999999992 203.16666999999998,203.8333599999999 C 203.44834999999998,204.6449399999999 203.82751,205.4779699999999 204.35716,206.3000299999999 C 204.87189999999998,207.09894999999992 205.67398,207.4153299999999 205.94284,208.3000299999999 C 206.20547,209.16423999999992 206.14579999999998,210.1754899999999 206.43599999999998,210.8360299999999 C 206.77712999999997,211.6124599999999 207.21719,212.3933399999999 207.59999999999997,213.2360199999999 C 208.01898999999997,214.15830999999991 208.28258999999997,214.9550299999999 208.59999999999997,215.7386899999999 C 208.97935999999996,216.6753199999999 209.43716999999995,217.3129899999999 209.99998999999997,218.1666999999999 C 210.42916999999997,218.81769999999992 210.78602999999998,219.60852999999992 211.19998999999996,220.3973699999999 C 211.58705999999995,221.13495999999992 212.49097999999995,221.74267999999992 212.87865999999997,222.4428699999999 C 213.24526999999998,223.1049899999999 213.23966999999996,224.1516699999999 213.80132999999998,224.7986899999999 C 214.45028999999997,225.5462599999999 215.20195999999999,226.0214499999999 215.64283999999998,226.7000299999999 C 216.15762999999998,227.4923599999999 216.68595,228.1002699999999 217.08399999999997,228.8013599999999 C 217.49083,229.51790999999992 218.24074999999996,230.1672499999999 218.7,230.7571999999999 C 219.36211999999998,231.6077899999999 219.64660999999998,232.3849299999999 220.2,233.11469999999989 C 220.74975999999998,233.83968999999988 221.40966,234.38698999999988 221.916,235.1986999999999 C 222.37592,235.9359899999999 223.22191999999998,236.2609299999999 223.79999999999998,236.80135999999987 C 224.41366,237.37505999999988 224.76372999999998,238.26708999999988 225.22149,239.10003999999986 C 225.59246,239.77505999999985 226.46795,240.35116999999985 226.87882,241.10003999999986 C 227.24337,241.76447999999988 227.87548999999999,242.37765999999988 228.51731999999998,242.80003999999985 C 229.38415999999998,243.37048999999985 230.09999,244.10003999999986 230.59999,244.60003999999986 C 231.29998999999998,245.30003999999985 231.97055,246.03262999999987 232.52080999999998,246.50002999999987 C 233.28318,247.14759999999987 234.10506999999998,247.36509999999987 234.75715,248.09986999999987 C 235.35891,248.77793999999986 236.15345,248.81869999999986 236.99998,249.16669999999988 C 237.67105999999998,249.44258999999988 238.41069,249.96299999999988 239.32130999999998,250.00019999999986 C 240.17468999999997,250.03504999999987 241.11851,250.28155999999987 241.75265,250.70452999999986 C 242.48693,251.19428999999985 243.31627999999998,251.75994999999986 244.24281,251.94286999999986 C 245.08562999999998,252.10926999999987 246.00037999999998,251.97466999999986 246.79998,252.00002999999987 C 247.70133,252.02861999999988 248.42234,252.68622999999988 249.29998,252.94286999999986 C 250.16553000000002,253.19597999999985 251.10125,252.95223999999985 251.99998,253.00002999999987 C 252.80339,253.04274999999987 253.45147,253.60135999999986 254.30447999999998,253.94735999999986 C 255.28035999999997,254.34318999999985 255.97833999999997,254.56027999999986 256.83331999999996,254.83335999999986 C 257.60963,255.08131999999986 258.46995,255.31933999999987 259.34729999999996,255.64736999999985 C 260.23459999999994,255.97912999999986 261.16664,256.00002999999987 261.99997999999994,256.00002999999987 C 262.97846999999996,256.00002999999987 263.6954799999999,256.00002999999987 264.59998999999993,256.00002999999987 L 265.49997999999994,256.00002999999987 L 266.39996999999994,256.01070999999985 L 267.29995999999994,256.3526899999998" fill="none" id="svg_7" stroke="#000" stroke-width="2"/>
</svg>
