<?xml version="1.0" ?>
<svg baseProfile="full" height="480" version="1.1" width="640" xmlns="http://www.w3.org/2000/svg" xmlns:ev="http://www.w3.org/2001/xml-events" xmlns:xlink="http://www.w3.org/1999/xlink">
	<defs/>
	<path d="M 224.0,176.0 C 225.82933,180.22934 225.98933,181.17849999999999 226.0,182.19983 C 226.00813,182.97913 226.0,183.9785 226.0,184.69549999999998 C 226.0,185.63600999999997 226.0,186.48533999999998 226.0,187.40449999999998 C 226.0,188.39999999999998 226.0,189.2 226.0,190.19983 C 226.0,190.97916999999998 226.0,191.9785 226.0,192.69549999999998 C 226.0,193.63600999999997 226.0,194.48399999999998 226.0,195.34733999999997 C 226.0,196.36399999999998 226.0,197.20134 226.0,198.16667999999999 C 226.0,199.00000999999997 226.0,199.97884 226.0,200.66134 C 226.0,201.76801 226.0,202.50001 226.0,203.232 C 226.0,204.33867 226.0,205.32168 226.0,206.04167999999999 C 226.0,207.16667999999999 226.0,207.95718 226.0,208.52084 C 226.0,209.40134999999998 226.0,210.59868 226.0,211.18934 C 226.0,212.04283999999998 226.0,213.31599999999997 226.0,214.00000999999997 C 226.0,215.16667999999999 226.0,215.95717999999997 226.0,216.52083999999996 C 226.0,217.40134999999995 226.0,218.60134999999997 226.0,219.21066999999996 C 226.0,220.15716999999995 226.0,221.16667999999996 226.0,221.88533999999996 C 226.0,222.63600999999997 226.0,223.80450999999996 226.0,225.00000999999995 C 226.0,225.80000999999996 226.0,226.60001999999994 226.0,227.39999999999995 C 226.0,228.19999999999996 225.98784,229.39990999999995 226.009,230.19099999999995 C 226.02954,230.95875999999996 226.01407999999998,231.71356999999995 226.33333,232.66667999999996 C 226.62222,233.52914999999996 227.21368999999999,234.23353999999995 227.51734,234.76800999999995 C 228.18273,235.93917999999994 228.39364999999998,236.69421999999994 228.54167999999999,237.08332999999993 C 228.86195999999998,237.92527999999993 229.49336,239.33683999999994 229.76433999999998,239.84266999999994 C 230.04776999999999,240.37174999999993 230.69379999999998,241.45290999999995 231.04167999999999,241.99999999999994 C 231.39245,242.55160999999995 231.74685,243.10120999999995 232.83334,244.66666999999995 C 233.1752,245.15923999999995 233.51986,245.62525999999994 234.14267999999998,246.53865999999996 C 234.44128999999998,246.97659999999996 235.03563999999997,247.82123999999996 235.66667999999999,249.16666999999995 C 235.87608999999998,249.61315999999997 236.20002,250.55396999999996 236.37067,251.02532999999994 C 236.71534,251.97735999999995 236.83311999999998,252.49758999999995 237.66667999999999,253.83332999999993 C 237.95689,254.29838999999993 238.72044,255.15983999999995 239.13333999999998,255.59598999999994 C 239.55868999999998,256.04528999999997 240.46997999999996,256.95854999999995 240.92000999999996,257.45467999999994 C 241.85260999999997,258.4828499999999 242.28435999999996,259.0599399999999 242.71733999999995,259.65200999999996 C 243.15749999999994,260.25390999999996 243.58365999999995,260.87717 244.02083999999996,261.49999999999994 C 244.45966999999996,262.12517999999994 244.89543999999995,262.75319999999994 245.36934999999997,263.3479899999999 C 246.30541999999997,264.52278999999993 247.36385999999996,265.5543199999999 247.91434999999996,266.0374999999999 C 248.46529999999996,266.5210799999999 249.04015999999996,266.98106999999993 249.62134999999995,267.4399999999999 C 250.20746999999994,267.9027999999999 250.81468999999996,268.3519899999999 252.00000999999995,269.3333399999999 C 252.60640999999995,269.83537999999993 253.20338999999996,270.3670299999999 253.80450999999994,270.9098199999999 C 254.41275999999993,271.4590399999999 255.01995999999994,272.0217899999999 255.63600999999994,272.5853299999999 C 256.25632999999993,273.15276999999986 256.87298999999996,273.7316899999999 258.1666599999999,274.8333499999999 C 258.81555999999995,275.38592999999986 259.4837999999999,275.9196499999999 260.1616599999999,276.4473299999999 C 260.84381999999994,276.9783699999999 261.5403799999999,277.5017399999999 262.2466799999999,278.0253299999999 C 262.9603899999999,278.5544099999999 263.6877799999999,279.0824899999999 265.1666599999999,280.16665999999987 C 265.92223999999993,280.72057999999987 266.6858899999999,281.28506999999985 267.4616699999999,281.85265999999984 C 268.2458799999999,282.42641999999984 269.0395199999999,283.00298999999984 269.84667999999994,283.57467999999983 C 270.65951999999993,284.1503599999998 271.4759199999999,284.7323299999998 273.1666599999999,285.8333499999998 C 274.01620999999994,286.38656999999984 274.8822399999999,286.91855999999984 275.75717999999995,287.43832999999984 C 276.6329099999999,287.95858999999984 277.51825999999994,288.46301999999986 278.41067999999996,288.95333999999986 C 279.30195,289.44302999999985 280.19512999999995,289.92553999999984 281.99999999999994,290.83333999999985 C 282.89715999999993,291.28456999999986 283.79970999999995,291.71810999999985 284.70449999999994,292.14281999999986 C 285.60903999999994,292.56743999999986 286.51958999999994,292.98192999999986 287.43600999999995,293.38933999999983 C 288.35592999999994,293.79830999999984 289.2828999999999,294.20439999999985 291.16666,294.99999999999983 C 292.12061,295.40288999999984 293.08709999999996,295.80224999999984 294.06617,296.20000999999985 C 295.0564,296.60228999999987 296.06147,297.0026799999998 297.08268,297.39998999999983 C 298.11778,297.80269999999985 299.1685,298.20955999999984 301.33335,298.99999999999983 C 302.44088999999997,299.4043899999998 303.5662,299.80123999999984 304.70533,300.1864899999998 C 305.84892,300.5732699999998 306.99766,300.94521999999984 308.14933,301.2919899999998 C 309.29240000000004,301.6361699999998 310.42371,301.9785099999998 312.66666000000004,302.49999999999983 C 313.75324000000006,302.7526199999998 314.82825,302.9528199999998 315.88568000000004,303.13750999999985 C 316.92697000000004,303.3193899999998 317.95843,303.47853999999984 318.97867,303.64000999999985 C 319.99109000000004,303.80022999999983 321.00214,303.94136999999984 323.0,304.33333999999985 C 324.00241,304.52999999999986 324.99966,304.76387999999986 325.99551,305.0053399999999 C 326.99032,305.2465499999999 327.97885,305.5011899999999 328.96399,305.7493299999999 C 329.94254,305.99581999999987 330.90964,306.2547899999999 332.83334,306.66665999999987 C 333.77551,306.8683799999999 334.70868,307.0344899999999 335.62484,307.1901599999999 C 336.52071,307.3423799999999 337.39605,307.4779099999999 338.24532,307.6146599999999 C 339.06701,307.7469499999999 339.8622,307.8583699999999 341.33333,308.1666599999999 C 342.01763,308.3100599999999 342.66872,308.48126999999994 343.30280999999997,308.6526799999999 C 343.93138,308.8226299999999 344.56248,308.99999999999994 345.2093,309.17464999999993 L 345.88214999999997,309.3473199999999 L 346.59198999999995,309.51598999999993" fill="none" id="svg_6" stroke="#000" stroke-width="2"/>
</svg>
