<?xml version="1.0" ?>
<svg baseProfile="full" height="480" version="1.1" width="640" xmlns="http://www.w3.org/2000/svg" xmlns:ev="http://www.w3.org/2001/xml-events" xmlns:xlink="http://www.w3.org/1999/xlink">
	<defs/>
	<path d="M 234.0,258.0 C 234.95334,260.77866 234.78081,261.60654 234.19867,262.168 C 233.53351,262.80954 233.29819999999998,263.40808 232.79999999999998,264.39999 C 232.39854,265.19928 232.00934999999998,266.00479 231.58934,266.81067 C 231.25034,267.46112 230.68622,268.42627 230.34283,268.95267 C 229.80139,269.78266 229.42473999999999,270.33744 228.6,271.31467000000004 C 228.212,271.77442 227.60114,272.39664000000005 226.79999999999998,273.20002000000005 C 226.20084999999997,273.80085 225.59886999999998,274.39887000000004 224.99999999999997,275.00001000000003 C 224.40336999999997,275.59889000000004 223.79316999999998,276.16606 223.16666999999998,277.00001000000003 C 222.59537999999998,277.76048000000003 222.31776,278.35182000000003 221.7045,279.24284000000006 C 221.17793,280.00789000000003 220.84554,280.91627000000005 219.98934,281.00001000000003 C 219.20243,281.07694000000004 218.29995,280.99006 217.4,281.00001000000003 C 216.45817,281.01045000000005 215.66642000000002,281.16575000000006 214.73867,281.42533000000003 C 213.94796000000002,281.64658000000003 212.92193,281.88172000000003 212.23600000000002,281.97468000000003 C 211.40183000000002,282.08772000000005 210.39275,282.34068 209.80001000000001,282.61067 C 208.78684,283.07216000000005 207.99973000000003,283.49946 207.4,283.8 C 206.40404,284.29908 205.63344,284.66511 204.88401000000002,285.20002 C 204.22509000000002,285.67033 203.50722000000002,286.18522 202.82534,286.60001 C 201.87261,287.1796 201.24218000000002,287.64331 200.61068,288.4 C 200.0635,289.05566999999996 199.96282,290.00086 200.00001,290.79999 C 200.04272,291.71765 200.85571000000002,291.98807 201.60002,291.38935 C 202.25535,290.86219 202.8697,290.21844999999996 203.84668,290.02533999999997 C 204.45485,289.90513 205.68789999999998,289.72366999999997 206.23601,289.56401 C 207.1088,289.30977 208.00144,289.00419999999997 208.89551,288.70002999999997 C 209.76541,288.40407 210.31342,288.19685999999996 211.54735,287.70451999999995 C 212.22466,287.4342899999999 213.16411,287.14723999999995 213.95268,287.05269999999996 C 214.77249999999998,286.95439999999996 215.84096,286.86031999999994 216.54283999999998,286.64736999999997 C 217.40612,286.38543999999996 218.39761,286.05236999999994 219.20001,286.01070999999996 C 220.19856,285.95888999999994 220.97917999999999,286.00003 221.97868,286.00003 C 222.75268,286.00003 223.65718,286.00003 224.40451,286.00003 C 225.39867999999998,286.00003 226.34285,286.00003 227.24733999999998,286.00003 C 228.16667999999999,286.00003 229.02084999999997,285.9935 230.00000999999997,286.00003 C 230.80006999999998,286.00536999999997 231.61769999999999,286.02689 232.60451999999998,286.35721 C 233.24978,286.57321 234.16176,287.0134 234.94817999999998,287.29553 C 235.73398999999998,287.57745 236.67332,287.80377 237.47919,288.00003 C 238.49372,288.2471 239.15416,288.63775999999996 240.11602,288.91602 C 240.87122,289.1345 241.8466,289.39844 242.51603,289.80137 C 243.26905,290.25462000000005 244.0924,290.93788 244.80003,290.99870000000004 C 245.69671,291.07576000000006 246.85039999999998,291.01014000000004 246.99869999999999,290.19871000000006 C 247.14929999999998,289.3747000000001 246.44444,288.50367000000006 245.9792,288.00004000000007 C 245.18945,287.1450900000001 244.62233,286.6528400000001 244.1212,285.90022000000005 C 243.64293999999998,285.18196000000006 242.93938999999997,285.08296000000007 241.8002,284.7787000000001 C 241.19752,284.61775000000006 240.17784,284.10109000000006 239.4467,284.0107300000001 C 238.48599,283.89202000000006 237.48909,283.7698500000001 237.12153999999998,282.9000400000001 C 236.76803999999998,282.0634900000001 237.00002999999998,281.2428700000001 237.00002999999998,280.3428800000001 C 237.00002999999998,279.5955400000001 236.88025,278.5863200000001 237.05719,277.6572100000001 C 237.23708,276.7126600000001 237.74869999999999,276.1512600000001 238.10003999999998,275.23604000000006 C 238.44410999999997,274.33974000000006 238.57244999999998,273.66652000000005 238.80003999999997,273.05205000000007 C 239.24675999999997,271.84596000000005 239.75386999999998,271.2894800000001 240.29553999999996,270.34737000000007 C 240.68265999999997,269.6740900000001 240.97143999999997,268.7585000000001 241.00003999999996,267.8000400000001 C 241.02687999999995,266.90044000000006 240.83188999999996,265.9636100000001 241.08536999999995,265.20006000000006 C 241.34171999999995,264.42787000000004 241.94287999999995,263.70006000000006 242.00136999999995,262.80138000000005 L 242.35269999999994,262.0527200000001 L 243.00003999999996,261.5000500000001" fill="none" id="svg_6" stroke="#000" stroke-width="2"/>
</svg>
