<?xml version="1.0" ?>
<svg baseProfile="full" height="480" version="1.1" width="640" xmlns="http://www.w3.org/2000/svg" xmlns:ev="http://www.w3.org/2001/xml-events" xmlns:xlink="http://www.w3.org/1999/xlink">
	<defs/>
	<path d="M 287.0,180.0 C 291.51468,183.032 292.16876,183.33965 292.78934,183.65067 C 293.40353999999996,183.9585 294.60983999999996,184.75623 295.18933,185.26134 C 295.7756,185.77233999999999 296.3125,186.31954 297.07867,187.07851 C 297.7727,187.76599 298.20474,188.21387 299.16665,189.0 C 299.67220000000003,189.41316 300.49578,189.97961 300.99017,190.39999 C 301.88907,191.16435 302.33691,191.81961 302.80532999999997,192.45716000000002 C 303.52419999999995,193.43558000000002 304.00897,193.96223 304.54166,194.52082000000001 C 305.10339999999997,195.1099 305.99872,196.00127 306.59866999999997,196.59733000000003 C 306.89486999999997,196.89163000000002 307.75152999999995,197.74207000000004 308.31467,198.22933000000003 C 309.06255999999996,198.87642000000002 309.78833,199.32964000000004 310.45266999999996,199.80532000000002 C 311.44238999999993,200.51395000000002 311.95293999999996,201.00028000000003 312.47916,201.49999000000003 C 312.99487999999997,201.98974 313.80701,202.91573000000002 314.5,203.45832000000001 C 315.28256,204.07107000000002 316.0238,204.2658 316.74933,204.63599000000002 C 317.69329999999997,205.11765000000003 318.39353,205.78704000000002 318.71200999999996,206.51599000000002 C 319.07681999999994,207.35106000000002 319.31402999999995,208.34451 319.70984,209.00532 C 320.16354,209.76278000000002 320.47641,210.26454 321.24282999999997,211.18565 C 321.77146,211.82098000000002 322.52022999999997,212.36851000000001 322.83335,213.33331 C 323.04398,213.98237 322.9463,215.07727 323.44285,215.85698000000002 C 323.89088000000004,216.56050000000002 324.94697,216.88806000000002 325.45835,217.52081 C 326.02662,218.22397 325.83726,219.18902 326.00135,220.11331 C 326.15009,220.9512 326.982,221.4461 327.00001,222.32132000000001 C 327.01756,223.17447 326.93372999999997,224.11714 327.00001,224.99999000000003 C 327.05731999999995,225.76360000000003 327.57541999999995,226.48021000000003 328.18534,227.21065000000002 C 328.83991,227.99456 329.27039,228.59014000000002 329.58933,229.23598 C 330.03977000000003,230.14809000000002 330.29871,230.96385 330.63599,231.84665 C 330.88114,232.48828 331.31549,233.52426 331.65717,234.25716 C 332.01456,235.02378 332.40308,235.80521 333.0,236.99999 C 333.19986,237.40006 333.58963,238.2065 334.04166,238.97916 C 334.49518,239.75435000000002 334.72144,240.15699 335.64301,241.17899 C 336.28165,241.88723 336.67527,242.19251 337.42133,242.89733 C 337.8107,243.26519000000002 339.00559,244.49523000000002 339.40067,244.96465 C 339.81119,245.45244 340.21578999999997,245.97771 341.08335,247.08332000000001 C 341.54285,247.66891 342.01935,248.27848 342.54133,248.88932000000003 C 343.64723000000004,250.18354000000002 344.28040000000004,250.82690000000002 344.94001000000003,251.48533000000003 C 345.61863000000005,252.16276000000002 346.33112000000006,252.83837000000003 347.06251000000003,253.52082000000004 C 347.80442000000005,254.21308000000005 348.56202,254.90319000000005 349.32002000000006,255.60133000000005 C 350.8357700000001,256.9974 351.58229000000006,257.69726 352.3173300000001,258.40667 C 353.0553100000001,259.11892 353.7902600000001,259.84856 354.5208500000001,260.60415 C 355.26636000000013,261.37518 356.0187400000001,262.17785 356.7693500000001,263.02667 C 358.3523300000001,264.81674000000004 359.1469100000001,265.80401 359.9706700000001,266.824 C 360.8183600000001,267.87359000000004 361.6725400000001,268.95825 362.5416500000001,270.06249 C 363.4218700000001,271.1809 364.30441000000013,272.31182 365.2026600000001,273.43599 C 366.9908700000001,275.67397 367.8945500000001,276.76277 368.8080100000001,277.83199 C 369.7205800000001,278.90014 370.6559700000001,279.95672 371.62500000000006,280.99999 C 372.60791000000006,282.05822 373.63004000000006,283.11855 374.7120100000001,284.16799000000003 C 376.9732400000001,286.36126 378.2236700000001,287.44887000000006 379.50934000000007,288.57198000000005 C 380.82892000000004,289.72469000000007 382.1941800000001,290.88323 383.58335000000005,292.06249 C 384.99152000000004,293.25789000000003 386.41913000000005,294.45867000000004 387.8373500000001,295.68798000000004 C 390.6797000000001,298.15173000000004 392.0625100000001,299.41518 393.42802000000006,300.68398 C 394.7868500000001,301.94658000000004 396.1209800000001,303.22158 397.4375100000001,304.49999 C 398.7463200000001,305.77093 400.0357200000001,307.04546000000005 401.3120200000001,308.31600000000003 C 403.83704000000006,310.82964000000004 405.07835000000006,312.07833000000005 406.31333000000006,313.31331000000006 C 407.53834000000006,314.53832000000006 408.75333000000006,315.75331000000006 409.95835000000005,316.95833000000005 C 411.15333000000004,318.15331000000003 412.33835000000005,319.33833000000004 413.51334,320.51332 C 415.83335000000005,322.83333000000005 416.97886000000005,323.97795 418.11335,325.11464 C 419.23887,326.2423 420.35462,327.36272 421.45835000000005,328.47914000000003 C 422.55463000000003,329.58803 423.64161000000007,330.69231 424.71335000000005,331.79866000000004 C 426.83981000000006,333.99373 427.87973000000005,335.09880000000004 428.91599,336.19865000000004 C 429.94840000000005,337.29448 430.97342000000003,338.39048 432.0,339.47914000000003 C 433.02408,340.56514000000004 434.04697,341.64833000000004 435.08401,342.71464000000003 C 437.15529999999995,344.8444 438.21718999999996,345.88224 439.28265,346.91197000000005 C 440.34423,347.93791000000004 441.41208,348.94545000000005 442.47915,349.93748000000005 C 443.5361,350.92008000000004 444.58837,351.88313000000005 445.63067,352.82798 C 447.66317000000004,354.67048 448.65719,355.55640000000005 449.62667,356.4293 C 450.57716999999997,357.2851 451.50872,358.12568 452.41665,358.95832 C 453.30871,359.7764 454.18267000000003,360.58469 455.02667,361.39732000000004 C 456.67849,362.98777 457.4599,363.79622000000006 458.22665,364.59465000000006 C 458.97982,365.37892000000005 459.70703000000003,366.15697000000006 460.41665,366.9166400000001 C 461.10699,367.6556500000001 461.77184,368.3759300000001 462.42666,369.0586400000001 C 463.65762,370.34206000000006 464.25295,370.9180800000001 464.82800000000003,371.45866000000007 C 465.37750000000005,371.97526000000005 465.91562000000005,372.4579300000001 466.43750000000006,372.9166400000001 C 466.94101000000006,373.3592100000001 467.4351500000001,373.7805000000001 467.91199000000006,374.1946600000001 C 468.83588000000003,374.9970900000001 469.27945000000005,375.39809000000014 469.7120100000001,375.7959800000001 C 470.1350800000001,376.1851100000001 470.54242000000005,376.5682600000001 470.93750000000006,376.9374900000001 C 471.31708000000003,377.2922300000001 471.67773000000005,377.6322800000001 472.0280200000001,377.9439900000001 C 472.66059000000007,378.5068900000001 472.9537700000001,378.7385200000001 473.2240000000001,378.9413300000001 C 473.4654200000001,379.1225100000001 473.6839000000001,379.2728400000001 473.8750000000001,379.3958300000001 C 474.0335100000001,379.4978200000001 474.1616500000001,379.5733500000001 474.2560100000001,379.6253200000001 C 474.33282000000014,379.6676200000001 474.3129900000001,379.6564800000001 474.2506700000001,379.6253200000001 C 474.14435000000014,379.5721600000001 473.99200000000013,379.4959900000001 473.79166000000015,379.3958300000001 C 473.54132000000016,379.2706500000001 473.23902000000015,379.1194900000001 472.88266000000016,378.9413300000001 C 472.00000000000017,378.5000200000001 471.4706400000002,378.23601000000014 470.88800000000015,377.9426400000001 C 470.25659000000013,377.6247400000001 469.58313000000015,377.2830300000001 468.87500000000017,376.9166400000001 C 468.13507000000016,376.5338000000001 467.3705400000002,376.1338300000001 466.5920100000002,375.7106500000001 C 464.99496000000016,374.8425500000001 464.19705000000016,374.3827100000001 463.3986800000002,373.9106600000001 C 462.59265000000016,373.43407000000013 461.7855800000002,372.93785000000014 460.9791500000002,372.41664000000014 C 460.1601200000002,371.88728000000015 459.3356600000002,371.33406000000014 458.5146700000002,370.74266000000017 C 456.8182600000002,369.5206400000002 455.9747200000002,368.8398000000002 455.1119900000002,368.1440000000002 C 454.2302800000002,367.4328800000002 453.34206000000023,366.6927100000002 452.4374900000002,365.9374900000002 C 451.5167100000002,365.1687200000002 450.5848300000002,364.3820400000002 449.6279800000002,363.5960000000002 C 447.6740900000002,361.9909000000002 446.6597800000002,361.19662000000017 445.6306700000002,360.3999900000002 C 444.5928000000002,359.5965800000002 443.53954000000016,358.79879000000017 442.4791500000002,358.00000000000017 C 441.41558000000015,357.1988200000002 440.3468000000002,356.40182000000016 439.28265000000016,355.60001000000017 C 437.16394000000014,354.0036000000002 436.11999000000014,353.20194000000015 435.08532000000014,352.40000000000015 C 434.05566000000016,351.60193000000015 433.0350300000001,350.80121000000014 432.02084000000013,350.00001000000015 C 431.00973000000016,349.20124000000015 430.00399000000016,348.40061000000014 429.00134000000014,347.60002000000014 C 426.99902000000014,346.00123000000013 426.00024000000013,345.2000600000001 425.00134000000014,344.40135000000015 C 424.0045700000001,343.60438000000016 423.01092000000017,342.8103800000001 422.02084000000013,342.02086000000014 C 421.0362500000001,341.2357000000001 420.05780000000016,340.45638000000014 419.08532000000014,339.68535000000014 C 417.16790000000015,338.1651200000001 416.22067000000015,337.42186000000015 415.28399000000013,336.6813500000001 C 414.35198000000014,335.9445300000001 413.42288000000013,335.2070500000001 412.49999000000014,334.45836000000014 C 411.57219000000015,333.70570000000015 410.64092000000016,332.94054000000017 409.71599000000015,332.14534000000015 C 407.82005000000015,330.51530000000014 406.87499000000014,329.63893000000013 405.91197000000017,328.74400000000014 C 404.93059000000017,327.83198000000016 403.94246000000015,326.89219000000014 402.93748000000016,325.93751000000015 C 401.9171200000002,324.96821000000017 400.88563000000016,323.98173000000014 399.82798000000014,322.9960100000001 C 397.67573000000016,320.9901800000001 396.5614400000001,319.99528000000015 395.4293000000001,319.0026600000001 C 394.29011000000014,318.0038800000001 393.13249000000013,317.0159000000001 391.9583200000001,316.0416600000001 C 390.7831200000001,315.0665600000001 389.59806000000015,314.1053200000001 388.39732000000015,313.1706600000001 C 386.01387000000017,311.3153700000001 384.80378000000013,310.4377200000001 383.59999000000016,309.5706800000001 C 382.40373000000017,308.7090800000001 381.20235000000014,307.8685900000001 379.99998000000016,307.0416600000001 C 378.80229000000014,306.2179300000001 377.6011500000002,305.40726000000006 376.39997000000017,304.60266000000007 C 374.00230000000016,302.99655000000007 372.7998400000002,302.20047000000005 371.6012900000002,301.39999000000006 C 370.40418000000017,300.60046000000006 369.2098700000002,299.80114000000003 368.0208200000002,299.00000000000006 C 366.8352100000002,298.20117000000005 365.6551300000002,297.40292000000005 364.48530000000017,296.60001000000005 C 362.1626400000002,295.00583000000006 361.02088000000015,294.20227000000006 359.89063000000016,293.40400000000005 C 358.77390000000014,292.61527000000007 357.6779500000002,291.83299000000005 356.60413000000017,291.06251000000003 C 355.55393000000015,290.30897000000004 354.5330500000002,289.57167000000004 353.5426400000002,288.85600000000005 C 351.66645000000017,287.50029000000006 350.78733000000017,286.8636000000001 349.9439800000002,286.26002000000005 C 349.1386200000002,285.68367000000006 348.3675600000002,285.1367900000001 347.62498000000016,284.62501000000003 C 346.91679000000016,284.13691000000006 346.23771000000016,283.67652000000004 345.57597000000015,283.26002000000005 C 344.34321000000017,282.48411000000004 343.7456500000002,282.16032000000007 343.17463000000015,281.85469000000006 C 342.6298600000001,281.56313000000006 342.10337000000015,281.2985100000001 341.60413000000017,281.04167000000007 C 341.1287300000002,280.79710000000006 340.6736500000002,280.5680700000001 340.2586400000002,280.3186800000001 C 339.4866700000002,279.8548100000001 339.15848000000017,279.5855900000001 338.85465000000016,279.31734000000006 C 338.5611900000002,279.05825000000004 338.29731000000015,278.7853600000001 338.04163000000017,278.5208600000001 L 337.79596000000015,278.2613400000001 L 337.55631000000017,278.00984000000005 L 337.3186400000002,277.76936000000006" fill="none" id="svg_6" stroke="#000" stroke-width="2"/>
</svg>
