<?xml version="1.0" ?>
<svg baseProfile="full" height="480" version="1.1" width="640" xmlns="http://www.w3.org/2000/svg" xmlns:ev="http://www.w3.org/2001/xml-events" xmlns:xlink="http://www.w3.org/1999/xlink">
	<defs/>
	<path d="M 233.0,189.0 C 235.74667,193.51601 235.90584,194.17616 236.03999,194.82533 C 236.31785,196.16997 236.54740999999999,196.89479 236.88266,197.62533000000002 C 237.23209,198.38676 237.66713,199.13037000000003 238.16666999999998,199.83332000000001 C 238.66236999999998,200.53088000000002 239.22659,201.16523 239.73865999999998,201.82532 C 240.24257999999998,202.47492 240.8806,203.51132 241.19017,204.25716 C 241.50319,205.0113 241.72227,205.81388 242.16666999999998,206.99999 C 242.46792,207.80407 242.81938,208.58721 243.21066,209.32799 C 243.5856,210.03784 244.19173999999998,210.96356 244.6,211.49465 C 245.18824,212.25985 245.63024,212.74801 246.19982,213.643 C 246.6182,214.30041 246.9992,215.03248 247.34283,215.809 C 247.86407,216.98687 248.13,217.79379 248.35333,218.58933 C 248.56956,219.35961 248.74428,220.11031 248.87866,221.17864999999998 C 249.00354,222.17144999999996 249.00784,222.82711999999998 249.084,223.48397999999997 C 249.24673,224.88746999999998 249.42603,225.61451999999997 249.57466,226.33865999999998 C 249.71666,227.03051999999997 249.93712,228.23042999999998 249.97916999999998,228.99998999999997 C 250.02109,229.76709999999997 249.99999999999997,230.97331999999997 249.99999999999997,231.69331999999997 L 249.99999999999997,232.49331999999998 L 249.99999999999997,233.37331999999998" fill="none" id="svg_6" stroke="#000" stroke-width="2"/>
</svg>
