<?xml version="1.0" ?>
<svg baseProfile="full" height="480" version="1.1" width="640" xmlns="http://www.w3.org/2000/svg" xmlns:ev="http://www.w3.org/2001/xml-events" xmlns:xlink="http://www.w3.org/1999/xlink">
	<defs/>
	<path d="M 284.5,136.89999 C 284.49551,134.2955 284.48697,133.43428 284.2785,132.47866 C 284.10116,131.66566 283.81274,130.84588 283.40017,129.82148999999998 C 283.12219,129.13123 282.73632,128.31144999999998 282.55267,127.29998999999998 C 282.4085,126.50605999999998 282.38388,125.64973999999998 281.97915,124.94164999999998 C 281.42922,123.97948999999998 280.66131,123.84166999999998 279.73199,123.33064999999998 C 278.97836,122.91623999999997 278.48956,122.56912999999997 277.47067,121.78664999999998 C 276.91244,121.35795999999998 276.05681999999996,121.01502999999998 275.20000999999996,120.54731999999998 C 274.45467999999994,120.14045999999999 273.55224,119.98309999999998 272.936,119.28931999999999 C 272.35137,118.63114999999999 271.92262999999997,117.95879 271.47467,117.28931999999999 C 270.98254000000003,116.55387999999999 270.70004,115.6539 270.33334,114.89997999999999 C 269.96194,114.13635999999998 269.56527,113.36789999999999 269.14734000000004,112.59997999999999 C 268.68967000000004,111.75902999999998 268.37439000000006,110.86730999999999 267.88934000000006,110.29997999999999 C 267.25091000000003,109.55327 266.7777700000001,109.00935 266.00000000000006,108.42080999999999 C 265.26266000000004,107.86285999999998 264.27673000000004,107.99633999999999 263.3333400000001,107.73330999999999 C 262.6516700000001,107.54324999999999 261.67755000000005,106.99398999999998 260.87466000000006,106.91063999999999 C 260.01919000000004,106.82182999999999 259.28933000000006,106.89996999999998 258.29998000000006,106.89996999999998 C 257.4999900000001,106.89996999999998 256.4999900000001,106.89996999999998 255.71066000000008,106.89996999999998 C 254.66667000000007,106.89996999999998 253.80450000000008,106.89996999999998 252.8999900000001,106.89996999999998 C 252.00000000000009,106.89996999999998 251.0554600000001,106.80449999999998 250.3000000000001,107.18396999999999 C 249.4328000000001,107.61955999999999 248.72009000000008,107.89255999999999 247.84733000000008,108.25713999999999 C 247.13069000000007,108.55650999999999 246.44000000000008,109.20433 245.69016000000008,109.5428 C 244.78203000000008,109.95272 243.97382000000007,109.76974 242.83332000000007,110.06663 C 242.13648000000006,110.24803 241.33527000000007,110.74361 240.47916000000006,110.89997000000001 C 239.50206000000006,111.07842000000001 238.68546000000006,111.28974000000001 237.98532000000006,111.7013 C 237.22667000000007,112.14725 236.50783000000007,112.77726 235.69998000000007,112.89863 C 234.79143000000008,113.03514 234.37781000000007,113.7606 233.63865000000007,114.29997 C 233.01798000000008,114.75287 232.13651000000007,115.30054 231.49998000000008,115.89997 C 230.90048000000007,116.46450999999999 230.07482000000007,116.95662999999999 229.47465000000008,117.47464 C 228.8459300000001,118.01728999999999 227.99998000000008,118.39997 227.2999800000001,118.81464 L 226.39997000000008,118.89997" fill="none" id="svg_6" stroke="#000" stroke-width="2"/>
</svg>
