<?xml version="1.0" ?>
<svg baseProfile="full" height="480" version="1.1" width="640" xmlns="http://www.w3.org/2000/svg" xmlns:ev="http://www.w3.org/2001/xml-events" xmlns:xlink="http://www.w3.org/1999/xlink">
	<defs/>
	<path d="M 226.0,189.0 C 223.256,197.23199 223.00551,198.00594 223.83333,198.5 C 224.42317,198.85204 225.14986,199.28293 225.98134,199.688 C 226.40389,199.89386 227.65811,200.40533 228.42533999999998,200.45999999999998 C 229.39362999999997,200.52898 230.49967999999998,200.60882999999998 230.98649999999998,199.71866999999997 C 231.38249999999996,198.99457999999998 230.99999999999997,197.884 230.99999999999997,197.16266999999996 C 230.99999999999997,196.50533999999996 230.89255999999997,195.92233999999996 230.16666999999998,195.49999999999997 C 229.57193999999998,195.15395999999998 228.84064999999998,194.71399999999997 227.98265999999998,194.31199999999998 C 227.53956,194.10439 226.17324,193.60715 225.29199999999997,193.54 C 224.49161999999998,193.47901 223.01527,193.10763 222.58131999999998,193.96084 C 222.14108999999996,194.82640999999998 222.97372,195.70101 222.98931999999996,196.29867 C 223.02106999999995,197.51367 223.45717999999997,197.99101 224.33330999999995,198.00000999999997 C 225.27725999999996,198.00970999999998 225.83931999999996,198.00000999999997 226.44530999999995,198.00000999999997 C 227.74131999999994,198.00000999999997 228.40731999999994,198.00000999999997 229.06931999999995,198.00000999999997 C 230.33330999999995,198.00000999999997 231.45765999999995,198.01028999999997 232.44530999999995,197.97867999999997 C 232.89603999999994,197.96424999999996 233.75594999999996,198.00153999999998 235.17797999999996,197.55733999999998 C 235.84833999999995,197.34794 236.45969999999997,197.06526999999997 237.14265999999995,196.56801 C 238.03161999999995,195.92075 237.99998999999994,194.89351 237.99998999999994,194.24117999999999 C 237.99998999999994,193.16269 238.48457999999994,192.22133 237.74798999999993,191.52002 C 237.07188999999994,190.8763 236.00547999999992,191.06357 235.50881999999993,190.88933999999998 C 234.39615999999992,190.49901999999997 233.79981999999993,190.29306999999997 233.18281999999994,190.11067999999997 C 232.56372999999994,189.92767999999998 230.74481999999995,189.55603999999997 230.17465999999993,189.54666999999998 C 229.10339999999994,189.52906 228.56138999999993,189.55221999999998 227.68048999999993,189.94668 C 226.41849999999994,190.51176999999998 226.11565999999993,190.94774999999998 225.58499999999992,191.70166999999998 C 225.07530999999992,192.42580999999998 224.01272999999992,193.23412999999996 224.48949999999994,194.38850999999997 C 224.78290999999993,195.09892999999997 225.99123999999995,195.44400999999996 226.33866999999992,195.79066999999998 C 227.1356399999999,196.58587999999997 227.53861999999992,197.04457999999997 227.97066999999993,197.49465999999998 C 228.82865999999993,198.38846999999998 229.63408999999993,199.21015999999997 230.42932999999994,199.772 C 231.10251999999994,200.24761999999998 231.76648999999995,200.55397 232.39732999999993,200.70799 C 233.58279999999993,200.99743 234.49983999999992,200.9862 235.09999999999994,200.9955 C 236.29935999999995,201.01407 237.16798999999995,201.00096 237.92848999999993,201.0 C 238.98932999999994,200.99866 238.3173299999999,200.82932 237.22932999999992,200.55733 C 236.72798999999992,200.43199 235.5973299999999,200.14934 234.9999899999999,200.0 C 234.4026499999999,199.85066 233.2719899999999,199.56799 232.3333199999999,199.33333 C 231.2879899999999,199.07200999999998 231.4266599999999,199.0 232.4186599999999,199.0 C 233.1159899999999,199.0 234.6771899999999,199.85988 235.1711599999999,199.0 C 235.3359699999999,198.7131 234.9999899999999,197.89348999999999 234.9999899999999,196.884 L 234.9999899999999,196.16267 L 234.9999899999999,195.0" fill="none" id="svg_7" stroke="#000" stroke-width="2"/>
</svg>
