<?xml version="1.0" ?>
<svg baseProfile="full" height="480" version="1.1" width="640" xmlns="http://www.w3.org/2000/svg" xmlns:ev="http://www.w3.org/2001/xml-events" xmlns:xlink="http://www.w3.org/1999/xlink">
	<defs/>
	<path d="M 371.0,332.0 C 375.33334,347.83334 375.61661,348.91898 375.85733,349.884 C 376.06927,350.73373000000004 376.24863,351.47790000000003 376.39583999999996,352.125 C 376.63005999999996,353.15448 376.89781999999997,354.15833 376.97914999999995,355.04166 C 377.08232999999996,356.16211 376.99998999999997,356.99201 376.99998999999997,357.48217999999997 C 376.99998999999997,358.56249999999994 376.99998999999997,359.13068 376.99998999999997,359.70282 C 376.99998999999997,361.33333999999996 376.99998999999997,362.25467 376.99998999999997,363.02398999999997 C 376.99998999999997,363.91049999999996 376.99998999999997,364.85549999999995 376.99998999999997,365.508 C 376.99998999999997,366.71067 376.99998999999997,367.13849 376.99998999999997,368.10416 C 376.99998999999997,369.16983 376.99998999999997,369.72265999999996 376.99998999999997,370.83335 C 376.99998999999997,371.91468 376.99998999999997,372.44285 376.99998999999997,373.47916 C 376.99998999999997,374.49552 376.99998999999997,374.99866 376.99998999999997,376.50016 C 376.99998999999997,377.00135 376.99998999999997,378.01069 376.99998999999997,379.03602 C 376.99998999999997,379.55717 376.99998999999997,381.16667 376.99998999999997,381.7205 C 376.99998999999997,382.27735 376.99998999999997,383.37202 376.99998999999997,384.39466 C 376.99998999999997,384.86152 376.99998999999997,386.27167 376.99998999999997,387.07999 C 376.99998999999997,387.88535 376.99944,388.70133 376.99998999999997,389.58933 C 377.00066,390.66535000000005 377.09016999999994,391.42038 377.28398999999996,392.42667 C 377.42895,393.17929 377.58135,394.05237 377.64732999999995,394.5225 C 377.85432999999995,395.99719999999996 377.8917799999999,396.49876 377.94282999999996,397.48652 C 377.99192999999997,398.43692999999996 377.99772999999993,399.32849999999996 377.99998999999997,400.50001 C 378.00120999999996,401.14133999999996 377.99998999999997,402.09601999999995 377.99998999999997,402.98132999999996 C 377.99998999999997,403.83334999999994 377.99998999999997,404.78135 377.99998999999997,405.58334999999994 C 377.99998999999997,406.4653399999999 378.00329,406.92132999999995 377.99983999999995,408.27865999999995 C 377.99760999999995,409.14733999999993 377.9964499999999,410.00091999999995 377.94282999999996,410.85266999999993 C 377.86000999999993,412.1686199999999 377.79518999999993,412.6241799999999 377.63832999999994,413.5571699999999 C 377.47578999999996,414.5239399999999 377.37096999999994,415.0151199999999 377.11333999999994,416.00134999999995 C 376.8511899999999,417.00482999999997 376.5119899999999,417.9973499999999 376.3338299999999,418.49099999999993 L 375.93749999999994,419.45834999999994 L 375.71734999999995,419.92801999999995 L 375.22799999999995,420.82935999999995" fill="none" id="svg_7" stroke="#000" stroke-width="2"/>
</svg>
