<?xml version="1.0" ?>
<svg baseProfile="full" height="480" version="1.1" width="640" xmlns="http://www.w3.org/2000/svg" xmlns:ev="http://www.w3.org/2001/xml-events" xmlns:xlink="http://www.w3.org/1999/xlink">
	<defs/>
	<path d="M 333.0,206.0 C 330.03833,206.0 329.45834,205.99985 328.51334,206.0 C 327.47818,206.00017 326.73291,205.99164 325.9375,206.04167 C 325.0798,206.09563 323.6647,206.32458 323.15732,206.44284000000002 C 322.09024000000005,206.69153000000003 321.54846000000003,206.85829 321.0,207.02083000000002 C 319.90353,207.34578000000002 319.37076,207.52655000000001 317.84268,207.97867000000002 C 317.36882999999995,208.11887000000002 316.45043999999996,208.37386000000004 315.54934999999995,208.62534000000002 C 315.09454999999997,208.75226000000004 313.66518999999994,209.16190000000003 312.63467999999995,209.484 C 312.10290999999995,209.65021000000002 311.56913,209.82067 310.5226799999999,210.17467000000002 C 310.0188999999999,210.34510000000003 308.6621099999999,210.82187000000002 307.94134999999994,211.11467000000002 C 307.07766999999996,211.46553000000003 306.3984699999999,211.78517000000002 305.40451999999993,212.3 C 304.65182999999996,212.68986 303.8657299999999,213.17834000000002 303.2013299999999,213.8 C 302.57003999999995,214.39068 301.83334999999994,215.16665 301.34732999999994,215.65266 C 300.82532999999995,216.17464999999999 300.0213099999999,216.97863 299.5000099999999,217.5 C 298.67862999999994,218.32146 298.1538499999999,218.81758 297.6526899999999,219.4045 C 296.9931099999999,220.17693000000003 296.6290399999999,220.81284000000002 296.1160099999999,221.68534000000002 C 295.6819599999999,222.42351000000002 295.1650199999999,223.23615000000004 294.8613399999999,223.84667000000002 C 294.54804999999993,224.47651000000002 294.2073199999999,225.51630000000003 294.06134999999995,226.63601000000003 C 293.96072999999996,227.40786000000003 293.94937999999996,228.20550000000003 293.7785099999999,229.39983000000004 C 293.6641899999999,230.19884000000005 293.4900599999999,230.98188000000005 293.2955099999999,231.74283000000003 C 293.01562999999993,232.83745000000002 292.79486999999995,233.51280000000003 292.6106699999999,234.16400000000002 C 292.3479099999999,235.09292000000002 292.1053599999999,236.29831000000001 292.0571699999999,236.89549000000002 C 291.9872199999999,237.76243000000002 291.97315999999995,238.83401000000003 292.01068999999995,239.77467000000001 C 292.03779,240.45372 292.21057999999994,241.42402 292.42533,242.21466 C 292.63678999999996,242.99312 292.86564,244.04707000000002 293.10983999999996,244.8625 C 293.38557,245.78314 293.69467999999995,246.36561 294.18533999999994,247.324 C 294.50744999999995,247.95315000000002 295.07989999999995,248.97488 295.62533999999994,249.604 C 296.28036999999995,250.35954 296.84667999999994,250.84666 297.4616699999999,251.46167000000003 C 298.1666599999999,252.16667000000004 298.6830799999999,252.68903000000003 299.24666999999994,253.23599000000002 C 299.84288999999995,253.8146 300.47380999999996,254.41636000000003 301.52165999999994,255.29983000000001 C 301.88228999999995,255.60389 302.6377499999999,256.20193 303.4466499999999,256.764 C 303.8572299999999,257.04931 305.1625899999999,257.84103 305.62148999999994,258.07848 C 306.54918999999995,258.55852 307.03264999999993,258.77178000000004 308.0106799999999,259.18932 C 308.50283999999994,259.39943 309.99965999999995,260.00084 310.49999999999994,260.19982 C 311.49932999999993,260.59722 311.99721999999997,260.79684 312.99999999999994,261.16399 C 313.4986599999999,261.34658 314.99834999999996,261.83910000000003 315.4998499999999,261.97847 C 316.4923999999999,262.25429 316.98815999999994,262.3691 317.9639899999999,262.58931 C 318.91356999999994,262.8036 319.8348699999999,262.99342 320.7159999999999,263.20131000000003 C 321.5761999999999,263.40425000000005 322.4286199999999,263.62486 323.2839899999999,263.88533 C 324.1702199999999,264.15520000000004 325.0846799999999,264.48848000000004 326.0466499999999,264.81465000000003 C 326.5406399999999,264.98213000000004 327.5585499999999,265.30235000000005 328.0866599999999,265.43065 C 329.1608799999999,265.69161 330.28474999999986,265.83739 330.8571699999999,265.89464000000004 C 332.01979999999986,266.01094000000006 332.6116899999999,266.04042000000004 333.2044899999999,266.10533000000004 C 335.0036499999999,266.30235000000005 335.6018899999999,266.43584000000004 336.2026599999999,266.57066000000003 C 336.81062999999995,266.7071 338.0422299999999,267.03959000000003 338.67198999999994,267.22133 C 339.31492999999995,267.40688 339.9688299999999,267.60896 341.33333999999996,267.99999 C 342.04155999999995,268.20296 342.76388,268.40822000000003 344.23999,268.77865 C 344.97781,268.96380000000005 345.71222,269.13326 346.4375,269.28567000000004 C 347.1456,269.43447000000003 348.49875,269.67599 349.13501,269.75717000000003 C 350.31293,269.90747000000005 350.86005,269.93805000000003 351.85999000000004,270.01468000000006 C 352.74003000000005,270.08212000000003 353.84385000000003,270.18912000000006 354.69199000000003,270.42532000000006 C 355.39441000000005,270.6209400000001 356.39762,270.94766000000004 357.20002000000005,270.9893200000001 C 358.19907000000006,271.0411700000001 359.04166000000004,271.00000000000006 359.77067000000005,271.00000000000006 C 360.96934000000005,271.00000000000006 361.66136000000006,271.00000000000006 362.38536000000005,271.00000000000006 C 363.11735000000004,271.00000000000006 364.51601000000005,271.00000000000006 365.17467000000005,271.00000000000006 C 365.82537,271.00000000000006 367.16667000000007,271.00000000000006 367.88137000000006,271.00000000000006 C 368.6040300000001,271.00000000000006 369.63302000000004,271.00000000000006 370.73553000000004,271.00000000000006 C 371.43753000000004,271.00000000000006 372.40002000000004,271.00000000000006 373.30001000000004,270.9955100000001 L 374.10003000000006,270.7786500000001 L 374.80001000000004,270.2839900000001" fill="none" id="svg_7" stroke="#000" stroke-width="2"/>
</svg>
