<?xml version="1.0" ?>
<svg baseProfile="full" height="480" version="1.1" width="640" xmlns="http://www.w3.org/2000/svg" xmlns:ev="http://www.w3.org/2001/xml-events" xmlns:xlink="http://www.w3.org/1999/xlink">
	<defs/>
	<path d="M 291.0,266.0 C 289.02151,276.54199 288.95328,277.63239 288.0,278.0 C 287.2536,278.28784 286.29996,277.99408 285.39999,278.0 C 284.58926,278.00534 283.6759,278.2157 282.95834,278.52084 C 282.31106,278.79611 281.31707,279.20684 280.47915,279.5 C 279.60113,279.80716 278.69415,280.0834 277.81066,280.41068 C 277.23183,280.62510000000003 276.14698999999996,281.13913 275.45714,281.65268000000003 C 274.79064,282.14883000000003 274.01493999999997,282.85617 273.39997999999997,283.24283 C 272.81339999999994,283.61163000000005 271.77754,284.06073000000004 271.02083,284.52085000000005 C 270.46729999999997,284.85740000000004 269.72911,285.64088000000004 269.30449,286.40452000000005 C 268.87093,287.18427 268.40346,287.93992000000003 268.12147999999996,288.97868000000005 C 267.91639999999995,289.73411000000004 268.0891,290.6662400000001 267.94282999999996,291.34733000000006 C 267.71577999999994,292.40452000000005 266.53914,293.54814000000005 267.28398999999996,293.91334000000006 C 267.98747999999995,294.25828000000007 268.43539,292.88874000000004 269.18532999999996,292.40000000000003 C 269.97103999999996,291.88795000000005 270.62451,291.36317 271.32149999999996,290.67869 C 271.83538999999996,290.17402000000004 272.37056999999993,289.60737 273.20000999999996,289.02152 C 273.97085,288.47706 274.59975999999995,288.20081 275.59999999999997,287.70002 C 276.39977,287.2996 277.20000999999996,286.9 277.99998999999997,286.50001 C 278.59999999999997,286.20002 279.57768999999996,285.66337 280.34281999999996,285.35719 C 281.22493,285.00419 282.03407,284.6688 282.79997,284.28401 C 283.58588999999995,283.88914 284.48398999999995,284.00001000000003 285.34729999999996,284.00001000000003 C 286.36398999999994,284.00001000000003 287.20129999999995,284.00001000000003 288.16664,284.00001000000003 C 288.99998,284.00001000000003 289.83351,284.01716000000005 290.69548,284.00001000000003 C 291.60053999999997,283.982 292.35091,283.42646 293.32129999999995,283.1215 C 293.97583999999995,282.91581 294.97864999999996,282.99809000000005 295.75263999999993,283.00001000000003 C 296.65714999999994,283.00227 297.6145199999999,283.03834 298.3986699999999,283.28401 C 299.17988999999994,283.52873 300.11421999999993,283.94026 301.1666399999999,284.00001000000003 C 301.8246299999999,284.03736000000004 302.8567599999999,284.30989000000005 303.3746499999999,284.85069000000004 C 303.9092299999999,285.40889000000004 304.8435199999999,285.86934 305.5159799999999,286.08268000000004 C 306.5165299999999,286.40012 307.3198699999999,286.89387000000005 308.1666499999999,287.16666000000004 C 308.8402299999999,287.38364 309.9134499999999,288.30381000000006 310.6383299999999,287.93833 C 311.2949799999999,287.60728 311.0775999999999,286.33158000000003 310.5533399999999,285.58933 C 309.9510499999999,284.73661000000004 309.34731999999985,284.34733 308.82533999999987,283.82535 C 308.0213199999999,283.02133000000003 307.5041399999999,282.49582000000004 306.6784899999999,281.67868000000004 C 306.1665599999999,281.17206000000004 305.63148999999987,280.60440000000006 304.8001599999999,280.02167000000003 C 304.0506799999999,279.49628 303.14240999999987,279.24472000000003 302.4106599999999,278.97467 C 301.5625799999999,278.66171 300.7953299999999,278.12494 299.8999799999999,277.99985 C 298.99351999999993,277.8732 298.2501999999999,277.45428999999996 298.02082999999993,276.5 C 297.81037999999995,275.62439 297.54700999999994,274.89279 297.1666399999999,274.0 C 296.8464499999999,273.24847 296.99997999999994,272.328 296.99997999999994,271.45715 C 296.99997999999994,270.73867 296.99997999999994,269.94818000000004 296.99997999999994,268.68667 C 296.99997999999994,268.04165 296.99997999999994,267.02151 296.99997999999994,265.99998999999997 L 296.99997999999994,265.2 L 297.05713999999995,264.35717 L 297.83331999999996,263.83334" fill="none" id="svg_7" stroke="#000" stroke-width="2"/>
</svg>
