<?xml version="1.0" ?>
<svg baseProfile="full" height="480" version="1.1" width="640" xmlns="http://www.w3.org/2000/svg" xmlns:ev="http://www.w3.org/2001/xml-events" xmlns:xlink="http://www.w3.org/1999/xlink">
	<defs/>
	<path d="M 535.5,317.89999 C 535.21332,315.21466 534.99207,314.3652 534.61334,313.49865 C 534.21362,312.58404 533.85327,312.00091 533.32532,311.13598 C 532.9878,310.583 532.38397,309.58401000000003 532.0,308.89999 C 531.61603,308.216 531.01526,307.21862 530.68536,306.68533 C 530.20678,305.91168000000005 529.82287,304.78219 529.33197,304.10266 C 528.7945599999999,303.35882000000004 527.9588,303.0704 527.6098599999999,302.25183000000004 C 527.19598,301.28100000000006 526.7180799999999,300.85916000000003 526.0999699999999,300.03866000000005 C 525.6376899999999,299.42498000000006 525.1996999999999,298.65743000000003 524.4999899999999,297.89999000000006 C 523.9998099999999,297.35852000000006 523.4935199999999,296.56955000000005 523.19549,295.89016000000004 C 522.8566199999999,295.11782000000005 522.3539999999999,294.05215000000004 521.84735,293.35265000000004 C 521.3454,292.65969 520.92853,292.24721000000005 520.38397,291.21465000000006 C 519.95501,290.4013300000001 519.7832,289.7777300000001 519.17865,288.6000000000001 C 518.8656599999999,287.9902600000001 518.4877899999999,287.40688000000006 518.15265,286.79998000000006 C 517.49725,285.6131500000001 517.27777,284.99316000000005 516.8747,284.1359800000001 C 516.3646299999999,283.0513900000001 516.0280799999999,282.5733000000001 515.47919,281.89999000000006 C 514.91236,281.2046500000001 514.30359,280.47577000000007 513.68933,279.6746800000001 C 513.2666,279.1233200000001 512.85077,278.54739000000006 512.07867,277.82150000000007 C 511.30886,277.09778000000006 510.71942,276.7183800000001 510.18399,276.30133000000006 C 509.17532,275.51572000000004 508.53793,274.9246800000001 507.98666,274.38534000000004 C 507.24762,273.66229000000004 506.6296,273.07983 505.84731999999997,272.6 C 505.16402999999997,272.1809 504.45221,271.59802 503.70131999999995,271.18533 C 502.85768999999993,270.72168000000005 501.99486999999993,270.38446000000005 501.39998999999995,269.79998 C 500.79472999999996,269.20531 500.05156999999997,268.52538 499.49999999999994,267.73333 C 499.05962999999997,267.10094000000004 498.75805999999994,266.33981 498.10000999999994,265.536 C 497.5461199999999,264.85943 497.01467999999994,264.34942 496.17849999999993,263.79998 C 495.5051899999999,263.35757 494.4962499999999,262.90734000000003 493.9045099999999,262.6 C 493.1522799999999,262.20928000000004 492.2742899999999,261.57116 491.61599999999993,261.1 C 490.8703299999999,260.56628 490.1526799999999,260.20001 489.3853499999999,259.69866 L 488.8045099999999,259.14281" fill="none" id="svg_7" stroke="#000" stroke-width="2"/>
</svg>
