<?xml version="1.0" ?>
<svg baseProfile="full" height="480" version="1.1" width="640" xmlns="http://www.w3.org/2000/svg" xmlns:ev="http://www.w3.org/2001/xml-events" xmlns:xlink="http://www.w3.org/1999/xlink">
	<defs/>
	<path d="M 223.0,130.0 C 223.0,131.8 222.58789,132.84476 223.07201,133.564 C 223.56612,134.29809 224.51734000000002,133.99933 225.58934,134.0 C 226.5,134.00056 227.39999,134.00067 228.29999999999998,134.0 C 229.19867,133.99933 229.95728999999997,133.71764 229.99999999999997,132.8 C 230.04183999999998,131.90097 229.99999999999997,131.0 229.99999999999997,130.19999 C 229.99999999999997,129.3 230.00940999999997,128.18818000000002 229.29549999999998,128.00449 C 228.39336999999998,127.77237000000001 227.50158999999996,127.89043000000001 226.65265999999997,128.05715 C 225.72594999999995,128.23914000000002 225.06896999999998,129.088 224.47916999999998,129.47916 C 223.59833999999998,130.06334 222.63606,129.86713 222.10983,130.70533 C 221.71013,131.34199 221.29549999999998,132.04816 220.52083,132.52082000000001 L 220.05715999999998,133.29999" fill="none" id="svg_7" stroke="#000" stroke-width="2"/>
</svg>
