<?xml version="1.0" ?>
<svg baseProfile="full" height="480" version="1.1" width="640" xmlns="http://www.w3.org/2000/svg" xmlns:ev="http://www.w3.org/2001/xml-events" xmlns:xlink="http://www.w3.org/1999/xlink">
	<defs/>
	<path d="M 371.0,357.0 C 373.01434,357.0 373.82132,356.99869 375.0,357.0 C 375.59866,357.00067 376.48456,356.9707 377.31467,357.08533 C 378.32489,357.22483 379.19244999999995,357.60422 380.0,358.0 C 380.80313,358.39362 381.39096,358.71857 382.40134,359.19867 C 383.01557,359.49054 384.16407,359.85314999999997 384.95716,359.94732999999997 C 385.51935,360.01406999999995 386.40988999999996,360.03848999999997 387.60132999999996,360.28533999999996 C 388.21597999999994,360.41268999999994 389.15513,360.71164 390.16666999999995,360.99999999999994 C 390.88123999999993,361.20369999999997 391.61159,361.40261999999996 392.33867,361.56399999999996 C 393.66152,361.85760999999997 394.4919,361.9328 395.21468,362.02532999999994 C 396.16933,362.14751999999993 396.95006,362.36260999999996 397.77468,362.57467999999994 C 398.83016,362.84612999999996 399.54170999999997,362.96725999999995 400.39553,362.99551999999994 C 401.39947,363.02874999999995 402.20003,363.0000099999999 403.20019,363.0000099999999 C 404.02087,363.0000099999999 405.16677000000004,362.9907899999999 405.95718,363.0044999999999 C 406.52102,363.0142699999999 407.41131,363.0329999999999 408.59735,363.2853499999999 C 409.18475,363.4103199999999 409.98569000000003,363.70450999999986 411.0307,364.19867999999985 L 411.7482,364.64282999999983 L 412.66168,364.94284999999985 L 413.4617,364.99551999999983" fill="none" id="svg_7" stroke="#000" stroke-width="2"/>
</svg>
