<?xml version="1.0" ?>
<svg baseProfile="full" height="480" version="1.1" width="640" xmlns="http://www.w3.org/2000/svg" xmlns:ev="http://www.w3.org/2001/xml-events" xmlns:xlink="http://www.w3.org/1999/xlink">
	<defs/>
	<path d="M 243.0,296.0 C 243.4375,296.0 242.76401,296.0 241.672,296.0 C 240.6955,296.0 239.83191,295.96686 238.95833,296.02084 C 238.31135999999998,296.06082000000004 237.31059,296.27133000000003 236.47916999999998,296.52084 C 235.59407,296.78647 234.70111999999997,297.10397 233.78933999999998,297.39999 C 233.16486999999998,297.60272 232.51820999999998,297.81256 231.11467,298.20001 C 230.36583,298.40674 229.58956999999998,298.60092000000003 228.79865999999998,298.79999000000004 C 228.00023,299.00095000000005 227.19911,299.20181 226.38932999999997,299.40000000000003 C 225.56445999999997,299.60187 224.71577999999997,299.80503000000004 223.37882999999997,300.10001000000005 C 222.91770999999997,300.20176000000004 221.98458999999997,300.39658000000003 221.06133999999997,300.60001000000005 C 220.16858999999997,300.79670000000004 219.33127999999996,300.99241000000006 218.21882999999997,301.29551000000004 C 217.56126999999998,301.47468000000003 216.69434999999996,301.74931000000004 215.68665999999996,301.91599 C 214.85093999999995,302.05423 213.91831999999997,302.34305 213.30449999999996,302.64734000000004 C 212.43811999999997,303.07684000000006 211.49999999999997,302.99777000000006 210.59999999999997,303.00000000000006 C 209.69546999999997,303.00226000000004 208.83592999999996,303.17343000000005 207.97916999999995,303.50000000000006 C 207.40038999999996,303.7206100000001 206.38271999999995,303.84268000000003 205.48532999999995,304.08401000000003 C 204.59181999999996,304.32431 203.83527999999995,304.84365 202.97916999999995,305.00000000000006 C 202.00206999999995,305.1784400000001 201.22432999999995,305.4621000000001 200.48532999999995,305.71600000000007 C 199.63885999999994,306.0068300000001 198.64905999999993,305.81448000000006 197.86131999999995,306.0360100000001 C 196.93709999999996,306.2959000000001 196.46566999999996,307.0591700000001 195.89015999999995,307.7045000000001 C 195.32750999999996,308.3354200000001 194.57944999999995,308.6094400000001 193.75715999999994,309.3045100000001 C 193.14317999999994,309.8234900000001 192.71882999999994,310.6638900000001 192.29998999999995,311.3473300000001 C 191.81988999999996,312.13078000000013 191.22898999999995,312.7994200000001 190.67864999999995,313.5426700000001 C 190.16147999999995,314.2411300000001 189.66674999999995,315.0051000000001 189.16665999999995,315.6666600000001 C 188.65031999999994,316.3497300000001 187.96526999999995,317.1476800000001 187.59998999999996,317.8573300000001 C 187.26757999999995,318.5031400000001 186.89727999999997,319.6416600000001 186.69997999999995,320.3008400000001 C 186.49720999999997,320.9783300000001 186.27784999999994,321.9814100000001 185.80130999999994,322.94400000000013 C 185.41743999999994,323.71939000000015 185.00815999999995,324.49979000000013 184.99997999999994,325.3999900000001 C 184.99176999999995,326.3044700000001 185.11731999999995,327.1893900000001 185.52080999999993,328.0000000000001 C 185.94914999999992,328.8605700000001 186.53015999999994,329.4505900000001 186.91730999999993,330.2013200000001 C 187.39908999999992,331.13555000000014 187.69748999999993,331.6642700000001 188.35181999999992,332.34732000000014 C 188.96707999999992,332.98959000000013 189.58931999999993,333.58932000000016 190.30448999999993,334.30450000000013 C 190.88531999999992,334.88534000000016 191.45081999999994,335.51944000000015 192.17464999999993,336.1386700000001 C 192.94509999999994,336.7977600000001 194.01488999999992,336.9324900000001 193.91330999999994,336.1986700000001 C 193.78496999999993,335.2715500000001 193.11610999999994,334.5586900000001 192.71597999999994,333.7999900000001 C 192.26326999999995,332.9416200000001 191.87327999999994,332.5436100000001 192.35263999999995,333.2955000000001 C 192.84772999999996,334.07208000000014 193.53868999999995,334.5034500000001 194.19997999999995,335.2013200000001 C 194.71422999999996,335.7440100000001 194.91326999999995,337.5060100000001 195.71463999999995,337.3453300000001 C 196.15578999999994,337.2568900000001 195.19678999999994,336.3446000000001 195.01064999999994,335.3999900000001 C 194.85180999999994,334.59390000000013 194.83597999999995,333.6658900000001 194.57464999999993,332.7386700000001 C 194.42683999999994,332.2142300000001 194.12258999999995,331.17184000000015 194.03597999999994,330.2466700000001 C 193.96506999999994,329.4891900000001 193.99997999999994,328.5000000000001 193.99997999999994,327.5146800000001 C 193.99997999999994,326.7893400000001 193.95261999999994,325.7973300000001 194.02080999999993,325.0000000000001 C 194.10692999999992,323.99310000000014 194.42218999999992,323.19357000000014 194.80130999999992,322.3999900000001 C 195.18608999999992,321.5945400000001 195.54604999999992,320.8003200000001 196.0999899999999,320.0215100000001 C 196.5575199999999,319.37826000000007 197.2999899999999,318.7000100000001 197.9999799999999,318.0000000000001 C 198.4999799999999,317.5000000000001 199.3346099999999,316.8825700000001 199.71463999999992,316.1146500000001 C 200.14265999999992,315.2497500000001 200.28369999999993,314.4573600000001 200.8786399999999,313.7786500000001 C 201.40848999999992,313.17419000000007 202.1999699999999,312.9999900000001 203.0999799999999,312.9999900000001 C 203.9999699999999,312.9999900000001 204.8865099999999,312.9742900000001 205.4999699999999,313.54165000000006 C 206.2221699999999,314.20956000000007 206.5528899999999,314.97238000000004 206.8332999999999,315.8333400000001 C 207.09650999999988,316.6415400000001 207.22625999999988,317.5416200000001 207.42530999999988,318.2720000000001 C 207.65299999999988,319.1074800000001 207.8946099999999,320.29831000000013 207.9428099999999,320.8955000000001 C 208.01278999999988,321.7624100000001 207.9999699999999,322.8333400000001 207.9999699999999,323.77465000000007 C 207.9999699999999,324.45266000000004 207.9999699999999,325.42132000000004 207.9999699999999,326.22533000000004 C 207.9999699999999,327.04732000000007 207.9999699999999,328.07848000000007 207.9999699999999,328.97914000000003 C 207.9999699999999,329.99998000000005 207.9629699999999,330.78996 207.9999699999999,331.83333000000005 C 208.0285599999999,332.63985 208.7670799999999,333.03163000000006 209.5207999999999,332.45833000000005 C 210.2361299999999,331.91423000000003 210.8461199999999,331.18242000000004 211.3473099999999,330.59548000000007 C 212.00671999999992,329.8232300000001 212.3771099999999,329.2069900000001 212.79862999999992,328.3999800000001 C 213.2129999999999,327.6066800000001 213.6063499999999,326.8031500000001 213.9999699999999,325.9999900000001 C 214.3957399999999,325.19243000000006 214.72877999999992,324.5587700000001 214.9146399999999,323.3160000000001 C 215.0357199999999,322.50646000000006 214.9977099999999,321.9526600000001 214.9999699999999,320.6853200000001 C 215.0011399999999,320.0208300000001 214.9999699999999,318.9999900000001 214.9999699999999,318.2000000000001 C 214.9999699999999,317.3999800000001 214.9999699999999,316.3999800000001 214.9999699999999,315.5999900000001 C 214.9999699999999,314.6013000000001 214.9993399999999,313.6571500000001 214.9999699999999,312.7571600000001 C 215.00063999999992,311.8013200000001 215.3310699999999,311.1857200000001 216.0999799999999,310.7786400000001 C 216.8574999999999,310.3776100000001 217.67970999999991,310.0054800000001 218.4853099999999,309.4306500000001 C 219.0554699999999,309.02379000000013 219.5706099999999,308.4392300000001 220.3999699999999,307.8853300000001 C 221.17352999999991,307.3687000000001 221.99525999999992,306.9902800000001 222.81064999999992,306.5999900000001 C 223.4535199999999,306.2922800000001 224.41846999999993,305.8917100000001 225.23596999999992,305.5999900000001 C 226.10139999999993,305.2911800000001 227.00101999999993,305.0030700000001 227.89546999999993,304.7000000000001 C 228.47983999999994,304.5020000000001 229.32358999999994,304.2216700000001 230.31463999999994,303.7999800000001 C 230.98551999999995,303.5145200000001 231.99525999999994,302.99029000000013 232.81063999999995,302.60000000000014 C 233.45350999999994,302.29229000000015 234.41598999999994,301.88491000000016 235.22529999999995,301.61065000000013 C 235.77123999999995,301.42565000000013 236.82810999999995,301.12258000000014 237.75329999999994,301.0360000000001 C 238.51078999999993,300.9651100000001 239.61013999999994,301.0046900000001 240.39996999999994,300.57467000000014 C 241.22520999999995,300.1253600000001 241.89413999999994,299.93942000000015 242.82530999999994,299.57467000000014 C 243.52304999999996,299.30139000000014 244.47914999999995,299.02084000000013 245.39996999999994,298.99999000000014 L 246.29997999999995,298.99999000000014 L 247.19996999999995,298.99999000000014 L 248.09980999999996,298.9998400000001" fill="none" id="svg_7" stroke="#000" stroke-width="2"/>
</svg>
