<?xml version="1.0" ?>
<svg baseProfile="full" height="480" version="1.1" width="640" xmlns="http://www.w3.org/2000/svg" xmlns:ev="http://www.w3.org/2001/xml-events" xmlns:xlink="http://www.w3.org/1999/xlink">
	<defs/>
	<path d="M 174.0,368.66666 C 174.0,366.61066 174.0,365.60416 174.0,364.85314999999997 C 174.0,363.66666 174.0,362.86667 174.0,362.06665 C 174.0,361.26666 174.0,360.46666999999997 174.0,359.26633 C 174.0,358.45768 174.0,357.625 174.0,357.19467 C 174.0,356.29598999999996 174.0,354.82399999999996 174.0,354.29866999999996 C 174.0,353.21599999999995 174.0,352.66664999999995 174.0,351.57198999999997 C 174.0,351.03466999999995 173.98956,349.50732 174.00934,349.02133 C 174.05052,348.00937 174.12613000000002,347.45453 174.252,346.85598999999996 C 174.55087,345.43478999999996 175.15715,343.66315 175.54950000000002,342.61132999999995 C 175.97894000000002,341.46004999999997 176.46697000000003,340.25008999999994 176.98801000000003,339.00533999999993 C 177.51459000000003,337.74736999999993 178.05295000000004,336.51210999999995 178.58850000000004,335.32732999999996 C 179.09196000000003,334.21356 179.99032000000003,332.32831 180.37100000000004,331.61065999999994 C 180.68020000000004,331.0277699999999 180.94426000000004,330.57241999999997 181.18400000000003,330.24267999999995 C 181.36561000000003,329.99288999999993 181.52593000000002,329.82159999999993 181.67300000000003,329.73867999999993 C 181.78567000000004,329.67513999999994 182.00000000000003,329.6666599999999 182.39999000000003,329.6666599999999 C 183.30000000000004,329.6666599999999 184.25729000000004,329.8303899999999 185.10000000000002,329.4453499999999 C 185.76930000000002,329.1395299999999 186.62000000000003,328.8371999999999 187.49999000000003,328.6458499999999 C 188.34632000000002,328.4618299999999 189.09466000000003,327.7512599999999 189.79999000000004,327.66800999999987 C 190.69567000000004,327.5622999999999 191.42275000000004,326.9817899999999 192.29999000000004,326.72382999999985 C 193.16405000000003,326.46973999999983 193.66588000000004,326.1350199999998 194.10982000000004,325.37201999999985 C 194.53496000000004,324.64133999999984 195.54499000000004,324.6456699999998 196.36399000000003,324.24133999999987 C 197.23276000000004,323.81241999999986 197.72050000000002,323.16272999999984 198.06133000000003,322.5173399999999 C 198.52112000000002,321.6466999999999 199.39339000000004,321.71533999999986 200.36399000000003,321.24133999999987 C 201.14065000000002,320.86206999999985 202.03825000000003,320.8402199999999 202.79999000000004,320.58133999999984 C 203.68790000000004,320.27957999999984 204.39945000000003,319.6853399999998 205.29999000000004,319.66666999999984 C 206.19846000000004,319.64804999999984 206.81897000000004,319.11893999999984 207.56932000000003,318.7506799999998 C 208.28242000000003,318.4006999999998 209.26962000000003,318.3398199999998 209.99998000000002,317.66666999999984 C 210.51992,317.18744999999984 211.10792000000004,316.3358299999998 211.79998000000003,315.95200999999986 C 212.62446000000003,315.49476999999985 213.67429000000004,316.0002299999999 214.47915000000003,315.64585999999986 C 215.13993000000002,315.35493999999983 214.99566000000004,314.18268999999987 214.99998000000002,313.3193499999999 C 215.00448000000003,312.4193299999999 215.30784000000003,311.4787699999999 215.86131000000003,310.84134999999986 C 216.33095000000003,310.30048999999985 217.09645000000003,309.52741999999984 217.66131000000004,309.04132999999985 C 218.51252000000005,308.30884999999984 219.03727000000003,308.05347999999987 219.71331000000004,307.45599999999985 C 220.54835000000003,306.71801999999985 220.57714000000004,305.71466999999984 221.16665000000003,305.00000999999986 C 221.62203000000002,304.44797999999986 222.70004000000003,304.67706999999984 223.59998000000004,304.66666999999984 C 224.50016000000005,304.65625999999986 225.60366000000005,304.3292099999998 225.47915000000003,303.66666999999984 C 225.33698000000004,302.91022999999984 224.99998000000002,302.06665999999984 224.99998000000002,301.16666999999984 C 224.99998000000002,300.35767999999985 224.98936000000003,299.33319999999986 225.00448000000003,298.64783999999986 C 225.02299000000002,297.80893999999984 225.03869000000003,297.1711599999999 225.28665000000004,295.78134999999986 C 225.42146000000002,295.02572999999984 225.62991000000002,294.25073999999984 225.88666000000003,293.46533999999986 C 226.14963000000003,292.66089999999986 226.48061000000004,291.86523999999986 226.82532000000003,291.06665999999984 C 227.17128000000002,290.26520999999985 227.54344000000003,289.47690999999986 227.97849000000002,288.26700999999986 C 228.26078,287.48190999999986 228.47484000000003,286.70703999999984 228.69549000000004,285.9809999999999 C 228.99415000000005,284.99820999999986 229.26104000000004,284.15848999999986 229.63600000000002,283.4880199999999 C 230.11329000000003,282.63452999999987 230.70897000000002,282.1118899999999 231.29016000000001,281.2666799999999 C 231.81494,280.5034999999999 231.81862,279.63425999999987 232.22150000000002,278.6881899999999 C 232.50527000000002,278.0218099999999 233.45212,277.44193999999993 233.83333000000002,276.5000199999999 C 234.08606000000003,275.87556999999987 233.99585000000002,274.6943599999999 234.61067000000003,274.1133599999999 C 235.25416000000004,273.5052699999999 236.08829000000003,273.2493499999999 236.57466000000002,272.6413399999999 C 237.10446000000002,271.9790799999999 236.99992000000003,271.0050199999999 237.00000000000003,270.2049999999999 C 237.00009000000003,269.2451899999999 236.98108000000002,268.4285999999999 237.05716000000004,267.56217999999996 C 237.13608000000005,266.66346999999996 237.34346000000005,265.75657999999993 237.54167000000004,265.14585999999997 C 237.85789000000003,264.17152999999996 238.31781000000004,263.14372 238.65266000000003,262.41402 C 238.99638000000002,261.665 239.36323000000002,260.92635 239.83332000000001,259.83335999999997 C 240.12456,259.15621 240.372,258.50548 240.69549,257.57117999999997 C 241.00775000000002,256.66931999999997 241.30345,255.77819999999997 241.47917,255.20833999999996 C 241.8502,254.00507999999996 241.95589,253.18660999999997 242.00033000000002,252.34517999999997 C 242.04739,251.45435999999998 242.29325000000003,250.63872999999998 242.86132,249.86667999999997 C 243.32062000000002,249.24245999999997 244.01989,248.49071999999998 244.35332,247.86667999999997 C 244.76676,247.09293999999997 244.88049999999998,246.05866999999998 245.05266,245.32384999999996 C 245.27005,244.39600999999996 245.82909,243.49903999999995 245.98532,242.83066999999997 C 246.16447,242.06420999999997 246.68866,241.05277999999996 247.18532,240.50267999999997 C 247.94727,239.65874999999997 248.46831999999998,239.14322999999996 249.32148999999998,238.56650999999997 C 249.99760999999998,238.10947999999996 250.62733999999998,237.81447999999997 251.39997999999997,237.18134999999995 C 252.02203999999998,236.67160999999996 252.60660999999996,236.07190999999995 253.39864999999998,235.26667999999995 C 253.98407999999998,234.67147999999995 254.56421999999998,234.10152999999994 255.11330999999998,233.26800999999995 C 255.59894999999997,232.53079999999994 255.73613999999998,231.63862999999995 256.084,230.86801999999994 C 256.46623,230.02125999999996 257.64037,229.87483999999995 257.97914000000003,229.14584999999994 C 258.36354000000006,228.31866999999994 258.14500000000004,227.60003999999995 258.56932,226.61334999999994 C 258.84483,225.97267999999994 259.18196,225.30502999999993 259.83333,224.00001999999995 C 260.11455,223.43662999999995 260.46797,222.68797999999995 260.88399,222.06935999999996 C 261.44368,221.23711999999995 262.01613,220.66209999999995 262.60130999999996,220.06668999999997 C 263.39366999999993,219.26044999999996 263.99998999999997,218.66667999999996 264.59999999999997,218.06668999999997 C 265.39867999999996,217.26800999999998 265.97914999999995,216.68751999999998 266.51466999999997,216.15201999999996 C 267.24282,215.42386999999997 267.79860999999994,214.86795999999995 268.49998999999997,214.16667999999996 C 269.09993999999995,213.56680999999995 269.71223999999995,213.05145999999996 270.59999999999997,212.64134999999996 C 271.41195,212.26623999999995 272.14507,211.90254999999996 272.99998999999997,211.50001999999995 C 273.68361,211.17813999999996 274.48278,210.71433999999994 275.4045,210.67117999999994 C 276.3976,210.62466999999992 277.22578999999996,210.80067999999994 278.11464,210.38134999999994 C 278.76247,210.07572999999994 279.37547,209.24128999999994 280.10014,208.56684999999993 C 280.61909,208.08387999999994 281.48994,207.77882999999994 282.40449,207.61400999999992 C 283.2046,207.4698099999999 283.98182,207.17363999999992 284.97831,206.78783999999993 C 285.71534,206.50248999999994 285.60712,205.36913999999993 286.36164,204.78099999999992 C 287.00291000000004,204.2811399999999 288.22166000000004,204.8931699999999 288.83063000000004,204.0986699999999 C 289.29209000000003,203.4966599999999 289.59180000000003,202.8037899999999 290.39997000000005,202.23066999999992 C 291.07169000000005,201.75430999999992 291.53577000000007,200.91692999999992 292.49998000000005,200.68749999999991 C 293.37608000000006,200.4790299999999 294.21546000000006,200.3987999999999 294.79997000000003,199.86532999999991 C 295.51967,199.2084399999999 296.48918000000003,198.87921999999992 296.87864,198.2239999999999 C 297.32298000000003,197.4764999999999 297.63114,196.8403799999999 298.49998,196.6458299999999 C 299.34513,196.45657999999992 300.13322,195.8785999999999 300.79997,195.5826599999999 C 301.65776,195.20190999999988 302.45869,194.77085999999989 303.16664,194.3333299999999 C 303.88475,193.88950999999992 304.33146999999997,193.2985199999999 305.11598,192.5519999999999 C 305.74030999999997,191.9579099999999 306.45862999999997,191.40938999999992 307.21065,191.1026599999999 C 308.17177,190.7106299999999 309.02681,190.8221599999999 309.97846999999996,190.4453299999999 C 310.75388999999996,190.1382799999999 311.61515999999995,189.7211899999999 311.94730999999996,188.9613399999999 C 312.34223999999995,188.0578499999999 312.79322999999994,187.6072799999999 313.48398999999995,187.09866999999988 C 314.21094999999997,186.56343999999987 314.95712999999995,185.8186999999999 315.7986599999999,185.6693299999999 C 316.68805999999995,185.5114599999999 317.4216799999999,185.1076799999999 317.9518299999999,184.3711699999999 C 318.39710999999994,183.7525499999999 319.1852899999999,183.6727299999999 320.24281999999994,183.6666599999999 C 321.19999999999993,183.66116999999988 321.96495999999996,183.44447999999988 322.69999999999993,183.0193399999999 C 323.4479599999999,182.58674999999988 323.5641099999999,181.7805399999999 324.1666399999999,181.0000099999999 C 324.6039599999999,180.4335099999999 325.6040499999999,180.4987099999999 326.2213299999999,179.7878399999999 C 326.7891399999999,179.13395999999992 326.94355999999993,178.46489999999991 327.4999899999999,177.6875099999999 C 327.96217999999993,177.0417699999999 328.7303399999999,176.6564599999999 329.52082999999993,176.14583999999988 C 330.3509699999999,175.6095999999999 330.85761999999994,175.2892399999999 331.6012999999999,174.7813399999999 C 332.42554999999993,174.2184099999999 332.9830099999999,173.64626999999987 333.59998999999993,173.15067999999988 C 334.3781599999999,172.52558999999988 335.16398999999996,172.07734999999988 335.97846999999996,171.56667999999988 L 336.69548,170.96666999999988 L 337.29096999999996,170.37117999999987" fill="none" id="svg_7" stroke="#000" stroke-width="2"/>
</svg>
