<?xml version="1.0" ?>
<svg baseProfile="full" height="480" version="1.1" width="640" xmlns="http://www.w3.org/2000/svg" xmlns:ev="http://www.w3.org/2001/xml-events" xmlns:xlink="http://www.w3.org/1999/xlink">
	<defs/>
	<path d="M 252.0,75.0 C 250.74001,79.51334 250.89558,80.17258 251.36084,81.03833 C 251.79863,81.85296 252.25223,82.53791 252.6955,83.3955 C 253.109,84.1955 253.49262000000002,85.01807 253.88533,85.6 C 254.44382000000002,86.42759 255.12685000000002,86.91315999999999 255.66667,88.0 C 256.03653,88.74467 255.57438000000002,89.62208 256.03601000000003,90.55334 C 256.36627000000004,91.21962 257.41782,91.43925 258.16666000000004,92.16667000000001 C 258.65741,92.64336000000002 259.08954000000006,93.27244000000002 260.11466,93.83067000000001 C 260.94629000000003,94.28355 261.54743,94.55663000000001 262.33335,95.33334 C 262.7699,95.76477000000001 263.49592,96.48500000000001 263.93751,96.99467000000001 C 264.66407,97.83324000000002 264.98274,98.72811000000002 265.44667,99.42134000000001 C 265.83812,100.00626000000001 266.48402,100.76800000000001 267.00001,101.50001000000002 C 267.51599999999996,102.23201000000002 268.21574,102.97502000000001 268.55334999999997,103.68668000000002 C 269.03576999999996,104.70359000000002 268.94291,105.36287000000003 269.02532999999994,106.36001000000002 C 269.08101999999997,107.03359000000002 269.28399999999993,108.22934000000002 269.49999999999994,108.95835000000001 L 269.71599999999995,109.59735" fill="none" id="svg_7" stroke="#000" stroke-width="2"/>
</svg>
