<?xml version="1.0" ?>
<svg baseProfile="full" height="480" version="1.1" width="640" xmlns="http://www.w3.org/2000/svg" xmlns:ev="http://www.w3.org/2001/xml-events" xmlns:xlink="http://www.w3.org/1999/xlink">
	<defs/>
	<path d="M 455.01334,346.02252 C 456.87067,346.02252 457.53217,346.02252 458.65650000000005,346.02252 C 459.33216000000004,346.02252 460.07584,346.02252 460.87949000000003,346.02252 C 462.18,346.02252 463.09732,346.02252 464.03867,346.02252 C 464.51334,346.02252 465.46067000000005,346.02252 466.84665,346.02252 C 467.72934000000004,346.02252 468.16065000000003,346.02252 469.01334,346.02252 C 469.86600000000004,346.02252 471.18,346.02252 472.09732,346.02252 C 472.56598,346.02252 473.51334,346.02252 474.46066,346.02252 C 475.84665,346.02252 476.29165,346.02252 477.15167,346.02252 C 477.97165,346.02252 478.75165000000004,346.02252 480.19183000000004,346.02252 C 480.85617,346.02252 481.80267000000003,346.02252 482.41198,346.02252 C 483.61599,346.02252 484.23464,346.02252 485.22765000000004,346.02252 C 486.34664000000004,346.02252 487.18264000000005,346.02252 488.07463,346.02252 C 488.53413,346.02252 489.46513,346.02252 490.84663,346.02252 C 491.72932000000003,346.02252 492.16063,346.02252 493.01332,346.02252 C 493.86598000000004,346.02252 495.17998,346.02252 496.0973,346.02252 C 496.56596,346.02252 497.51332,346.02252 498.46064,346.02252 C 499.84663,346.02252 500.29163,346.02252 501.15165,346.02252 C 501.97163,346.02252 502.75163000000003,346.02252 504.19181000000003,346.02252 C 504.85615,346.02252 505.80265,346.02252 506.41196,346.02252 C 507.61597,346.02252 508.23462,346.02252 509.22763000000003,346.02252 C 510.34662000000003,346.02252 511.1813,346.02252 512.06393,346.02252 C 512.51327,346.02252 513.40799,346.02252 514.67996,346.02252 C 515.44266,346.02252 516.4716500000001,346.02252 517.10428,346.02252 C 518.31345,346.02252 519.22397,346.02252 519.84928,346.02252 C 520.49863,346.02252 521.8973100000001,346.02252 522.63865,346.02252 C 523.38798,346.02252 524.12931,346.02252 525.19181,346.02252 C 526.17728,346.02252 527.1088000000001,346.02252 528.01328,346.02252 C 528.9133,346.02252 529.8133300000001,346.02252 530.4133,346.02252 C 531.6133100000001,346.02252 532.51328,346.02252 533.1133100000001,346.02252 C 534.3133200000001,346.02252 535.21329,346.02252 535.8133200000001,346.02252 C 537.01327,346.02252 537.9133,346.02252 538.51327,346.02252 C 539.4132900000001,346.02252 540.61593,346.02252 541.23464,346.02252 C 541.88527,346.02252 543.34664,346.02252 544.1813,346.02252 C 544.61862,346.02252 545.5132699999999,346.02252 546.40798,346.02252 C 547.67995,346.02252 548.44265,346.02252 549.14126,346.02252 C 550.10427,346.02252 551.31332,346.02252 551.91329,346.02252 C 552.81331,346.02252 554.0132699999999,346.02252 554.61464,346.02252 C 555.53413,346.02252 556.17043,346.02252 557.53493,346.02252 C 558.2749200000001,346.02252 559.0549500000001,346.02252 559.87496,346.02252 C 561.17995,346.02252 561.6341199999999,346.02252 562.55245,346.02252 L 563.45077,346.02252 L 564.2891500000001,346.02252" fill="none" id="svg_11" stroke="#000" stroke-width="2"/>
</svg>
