<?xml version="1.0" ?>
<svg baseProfile="full" height="480" version="1.1" width="640" xmlns="http://www.w3.org/2000/svg" xmlns:ev="http://www.w3.org/2001/xml-events" xmlns:xlink="http://www.w3.org/1999/xlink">
	<defs/>
	<path d="M 575.0,410.0 C 575.61066,411.564 576.47797,411.82755 577.29999,412.35718 C 578.09888,412.87192000000005 578.51825,413.52341 579.16669,414.16666000000004 C 579.83338,414.82801000000006 580.37641,415.3844 581.19983,415.97849 C 581.77106,416.3906 582.52631,416.78238000000005 583.3747000000001,417.40000000000003 C 584.17798,417.98478000000006 584.84418,418.36906000000005 585.5160000000001,418.79999000000004 C 586.39039,419.36087000000003 587.0412100000001,419.9635 587.5999800000001,420.63599000000005 C 588.14228,421.28867 588.4681400000001,422.05768000000006 589.16669,423.00000000000006 C 589.62409,423.61697000000004 590.14862,424.2327000000001 591.0,424.66666000000004 C 591.74695,425.04740000000004 592.62823,425.04847 593.36401,425.86133 C 593.89209,426.44473 594.22363,427.34757 595.0998500000001,427.87866 C 595.82739,428.31964000000005 595.72522,429.23886000000005 596.22149,429.87884 C 596.77392,430.59121000000005 597.34155,431.15878000000004 598.09997,431.75717000000003 C 598.70605,432.23535000000004 599.54363,432.50992 600.09997,433.32117000000005 C 600.53546,433.95624000000004 601.09966,434.75684000000007 601.5811699999999,434.63834 L 601.1119899999999,434.11335" fill="none" id="svg_7" stroke="#000" stroke-width="2"/>
</svg>
