<?xml version="1.0" ?>
<svg baseProfile="full" height="480" version="1.1" width="640" xmlns="http://www.w3.org/2000/svg" xmlns:ev="http://www.w3.org/2001/xml-events" xmlns:xlink="http://www.w3.org/1999/xlink">
	<defs/>
	<path d="M 228.0,189.0 C 233.49966,195.15666 233.99364,195.63075 234.49099999999999,196.07666 C 234.9751,196.51068 235.92579999999998,197.3094 236.38566999999998,197.67667 C 236.82724,198.02932 238.06005,198.95462 238.80366999999998,199.50817 C 239.54406999999998,200.05932 239.93381,200.34525 240.73866999999998,201.02401 C 241.67997,201.81785 242.18753999999998,202.30503000000002 242.73866999999998,202.82267000000002 C 243.32165999999998,203.37023000000002 243.92278,203.9479 244.54167999999999,204.54168 C 245.17077999999998,205.14524 245.80091,205.75393000000003 246.43466999999998,206.35067 C 247.66134999999997,207.50568 248.25500999999997,208.03791 248.82933999999997,208.54534 C 249.38376999999997,209.03519 249.92764999999997,209.50309000000001 250.45833999999996,209.95833000000002 C 250.97832999999997,210.40441 251.50308999999996,210.83002000000002 253.00000999999997,212.16667 C 253.50462999999996,212.61726000000002 254.00511999999998,213.08681 254.51350999999997,213.56616 C 255.03314999999998,214.05612 255.56221999999997,214.5628 256.10801,215.08267 C 256.67121,215.61914000000002 257.25122999999996,216.17714 258.50001,217.33333000000002 C 259.16163,217.94589000000002 259.85416999999995,218.57112 260.56251,219.21883000000003 C 261.28749,219.88175000000004 262.02432999999996,220.55883000000003 262.76002,221.25734000000003 C 263.5027,221.96248000000003 264.25495,222.66736000000003 265.66667,224.16667000000004 C 266.36787000000004,224.91139000000004 267.03517,225.68042000000003 267.68568,226.45717000000005 C 268.33387,227.23114000000004 268.9618,228.01813000000004 269.57869,228.81067000000004 C 270.19446999999997,229.60182000000003 270.79872,230.40032000000005 272.00002,232.00000000000006 C 272.60051,232.79965000000007 273.20037,233.60008000000005 273.79552,234.40450000000007 C 274.39104000000003,235.20942000000008 274.98259,236.01841000000007 275.56401,236.83600000000007 C 276.14625,237.65474000000006 276.73091,238.47464000000008 277.83335999999997,240.16667000000007 C 278.38689,241.01620000000005 278.91898999999995,241.88351000000006 279.44734,242.75717000000006 C 279.97769999999997,243.63418000000007 280.50014,244.52075000000005 281.02533999999997,245.41066000000006 C 281.55280999999997,246.30443000000005 282.07480999999996,247.20692000000005 283.16666999999995,249.00000000000006 C 283.71671999999995,249.90334000000007 284.28459,250.80363000000006 284.85266999999993,251.71350000000007 C 285.42590999999993,252.63164000000006 286.00467999999995,253.55968000000007 286.5746899999999,254.50799000000006 C 287.15210999999994,255.46865000000005 287.7438199999999,256.44103000000007 288.8333599999999,258.4999900000001 C 289.39271999999994,259.55703000000005 289.9213699999999,260.65224000000006 290.4383399999999,261.77150000000006 C 290.9615299999999,262.90425000000005 291.46473999999995,264.05980000000005 291.95334999999994,265.2319800000001 C 292.44476999999995,266.41084000000006 292.92700999999994,267.5988000000001 293.83334999999994,269.9999900000001 C 294.28534999999994,271.1974400000001 294.71777999999995,272.3988900000001 295.14282999999995,273.6000000000001 C 295.56711999999993,274.79888000000005 295.9809599999999,275.9993800000001 296.3893499999999,277.2000100000001 C 296.7973099999999,278.39938000000006 297.19915999999995,279.59985000000006 298.0000099999999,282.00000000000006 C 298.4004299999999,283.20007000000004 298.80045999999993,284.40164000000004 299.2045099999999,285.60449000000006 C 299.6097799999999,286.81097000000005 300.0190899999999,288.0214500000001 300.4360199999999,289.2359900000001 C 300.8554199999999,290.45776000000006 301.2774799999999,291.6881400000001 302.16666999999995,294.16665000000006 C 302.61719999999997,295.42242000000005 303.08188999999993,296.68160000000006 303.54816999999997,297.9436600000001 C 304.0139,299.2042800000001 304.48042,300.4578800000001 304.93866999999995,301.7026600000001 C 305.39142999999996,302.9325500000001 305.84280999999993,304.1410500000001 306.66666999999995,306.4999900000001 C 307.06253999999996,307.6334700000001 307.43280999999996,308.7420200000001 307.77669,309.82848000000007 C 308.11269,310.89009000000004 308.42452,311.93532000000005 308.70667999999995,312.96798000000007 C 308.98441999999994,313.9844300000001 309.25452999999993,314.99007000000006 309.66666999999995,316.9999900000001 C 309.87104999999997,317.9967600000001 310.03538,318.9952600000001 310.19016999999997,319.9865000000001 C 310.34331,320.9672700000001 310.47916999999995,321.9374900000001 310.61467,322.8919900000001 L 310.74818,323.82848000000007 L 310.88267,324.7439800000001" fill="none" id="svg_7" stroke="#000" stroke-width="2"/>
</svg>
