<?xml version="1.0" ?>
<svg baseProfile="full" height="480" version="1.1" width="640" xmlns="http://www.w3.org/2000/svg" xmlns:ev="http://www.w3.org/2001/xml-events" xmlns:xlink="http://www.w3.org/1999/xlink">
	<defs/>
	<path d="M 317.51135,390.09091 C 317.51135,388.3909 317.51135,387.4909 317.51135,386.57007 C 317.51135,385.6069 317.51135,384.91623 317.51135,383.84357 C 317.51135,382.92426 317.51135,382.04926 317.51135,381.40424 C 317.51135,380.40424 317.51135,379.54926 317.51135,378.60425000000004 C 317.51135,377.56958000000003 317.51135,376.83826000000005 317.51135,376.09091 C 317.51135,375.34357 317.51135,373.91241 317.51135,373.24808 C 317.51135,372.30158 317.51135,371.69223 317.51135,370.49091000000004 C 317.51135,369.89090000000004 317.51135,368.99091000000004 317.51135,367.79075000000006 C 317.51135,367.1864100000001 317.51135,366.2549200000001 317.51135,365.60560000000004 C 317.51135,364.20692 317.51135,363.46559 317.51135,362.71626000000003 C 317.51135,361.97493000000003 317.51135,360.91243000000003 317.51135,359.92692000000005 C 317.51135,359.30158000000006 317.51135,358.09092000000004 317.51135,357.19093000000004 C 317.51135,356.59092000000004 317.49875,355.69084000000004 317.51269,354.49226000000004 C 317.52294,353.61161000000004 317.46661,353.02546000000007 317.79803000000004,351.77226 C 317.99404000000004,351.03108000000003 318.28201,350.52778 318.83251,349.22676 C 318.99669,348.83873 319.34029000000004,348.00941 319.65001,347.13093000000003 C 319.95622000000003,346.26246000000003 320.27998,345.03596000000005 320.40602,344.30525000000006 C 320.52174,343.6342900000001 320.62547,342.6754000000001 320.95418,341.79075000000006 C 321.18431,341.17143000000004 321.71419000000003,340.2635900000001 322.02867000000003,339.60560000000004 C 322.51759000000004,338.58265000000006 322.75868,337.84724000000006 323.01134,337.13258 L 323.39534000000003,336.14558" fill="none" id="svg_9" stroke="#000" stroke-width="2"/>
</svg>
