<?xml version="1.0" ?>
<svg baseProfile="full" height="480" version="1.1" width="640" xmlns="http://www.w3.org/2000/svg" xmlns:ev="http://www.w3.org/2001/xml-events" xmlns:xlink="http://www.w3.org/1999/xlink">
	<defs/>
	<path d="M 349.5,364.89999 C 350.41467,368.78534 350.47208,369.53579 350.48932,370.31067 C 350.50690000000003,371.1012 350.5,372.29999000000004 350.5,373.10001 C 350.5,373.9 350.5,374.70002 350.5,375.9 C 350.5,376.69867999999997 350.5,377.48936 350.5,378.26401 C 350.5,379.01468 350.5,380.07867999999996 350.5,381.07468 C 350.5,381.72535 350.5,383.06668 350.5,383.78934 C 350.5,384.568 350.5,385.41866999999996 350.5,386.35733 C 350.5,387.39999 350.5,387.96398999999997 350.5,389.15799 C 350.5,389.776 350.5,390.39999 350.5,391.642 C 350.5,392.24802 350.5,393.4 350.5,394.444 C 350.5,395.392 350.5,395.83749 350.5,396.68649 C 350.5,397.89999 350.5,398.69867 350.5,399.48935 C 350.5,400.64282000000003 350.5,401.73334 350.5,402.41333 C 350.5,403.35834 350.5,404.21335 350.5,405.21466 C 350.5,405.87917999999996 350.5,406.89999 350.5,407.71065999999996 C 350.5,408.58531999999997 350.5,409.58531999999997 350.5,410.42082999999997 C 350.5,411.30132 350.5,412.19982 350.5,413.08932 C 350.5,413.94284 350.47485,414.97936999999996 350.51068,415.664 C 350.55447,416.50085 350.87726,417.48627 351.14734,418.24282999999997 C 351.50786999999997,419.25275 351.66614,420.25543 352.30133,420.61465999999996 C 353.10745000000003,421.07052999999996 354.03101,420.40969999999993 354.69867,419.70001999999994 C 355.24093999999997,419.12362999999993 355.48651,418.08822999999995 356.2045,417.90451999999993 C 357.07207999999997,417.68253999999996 358.12212999999997,418.33374999999995 358.97916,417.8583499999999 C 359.69683999999995,417.4602499999999 359.49775,416.4338499999999 359.5,415.4783499999999 C 359.50192,414.6533399999999 359.5,413.73835999999994 359.5,412.7333499999999 C 359.5,412.0159999999999 359.5,411.2746699999999 359.5,410.1526899999999 C 359.5,409.0666899999999 359.5,408.3853599999999 359.5,407.4208499999999 C 359.5,406.8045199999999 359.5,405.6000199999999 359.5,404.70001999999994 C 359.5,404.10000999999994 359.5,402.8999999999999 359.5,402.0000099999999 C 359.5,401.3999999999999 359.5,400.5000099999999 359.5,399.2999999999999 C 359.5,398.7000199999999 359.5,397.7999999999999 359.5,396.5990099999999 C 359.5,395.9729999999999 359.5,395.2749999999999 359.5,394.4570099999999 C 359.5,392.8999999999999 359.49927,392.27118999999993 359.50134,391.5893299999999 C 359.50354000000004,390.8615199999999 359.50842,390.0946399999999 359.52084,389.2958399999999 C 359.53366,388.4719899999999 359.55099,387.6299499999999 359.58532,386.7773499999999 C 359.65426,385.0661399999999 359.71709000000004,384.2213499999999 359.78533000000004,383.3866599999999 C 359.85280000000006,382.5613099999999 359.93297000000007,381.7463399999999 360.02083000000005,380.9416799999999 C 360.10765000000004,380.1463299999999 360.20229000000006,379.3613899999999 360.30132000000003,378.5866699999999 C 360.49569,377.06612999999993 360.60003000000006,376.32186999999993 360.69866,375.58800999999994 C 360.79568,374.86620999999997 360.8919,374.1576799999999 360.97915,373.46248999999995 C 361.14773,372.11943999999994 361.22649,371.4730799999999 361.33334,370.23332999999997 C 361.38415000000003,369.64394 361.45004,368.52806999999996 361.47915,367.50417 C 361.49264,367.02941 361.49932,366.15864999999997 361.49999,364.756 C 361.50036,363.96247999999997 361.49999,363.304 361.49999,362.30449 L 361.49999,361.38533 L 361.47915,360.44167" fill="none" id="svg_8" stroke="#000" stroke-width="2"/>
</svg>
