<?xml version="1.0" ?>
<svg baseProfile="full" height="480" version="1.1" width="640" xmlns="http://www.w3.org/2000/svg" xmlns:ev="http://www.w3.org/2001/xml-events" xmlns:xlink="http://www.w3.org/1999/xlink">
	<defs/>
	<path d="M 420.0,354.0 C 428.79285,348.72168 429.37918,348.29071 429.92316,347.86166 C 430.44443,347.45052999999996 430.93207,347.03493999999995 431.89185,346.26165 C 432.36139,345.88334999999995 433.32165999999995,345.14855 434.37066999999996,344.484 C 434.90851,344.14327 435.47076999999996,343.8232 436.04166,343.49998999999997 C 436.62012,343.17247999999995 437.80811,342.52540999999997 439.0,341.83333 C 439.60294,341.48323 440.20245,341.11647 440.8045,340.74280999999996 C 441.41183,340.36585999999994 442.02072000000004,339.97896 442.63598,339.58930999999995 C 443.88509,338.79825999999997 445.16549000000003,337.99805999999995 445.82116,337.60013999999995 C 446.48150000000004,337.19937999999996 447.14755,336.80344999999994 447.81466,336.41065999999995 C 448.47854,336.01978999999994 449.13854,335.63575999999995 449.79015,335.25715999999994 C 450.43053,334.8851199999999 451.66787,334.16874999999993 452.25682,333.8213099999999 C 453.3835,333.1566699999999 453.92076000000003,332.8307699999999 454.43748,332.4999899999999 C 455.44061999999997,331.8578099999999 455.92735,331.5362799999999 456.83332,330.83332999999993 C 457.72898000000004,330.13834999999995 458.13834,329.7563599999999 458.95832,329.0416399999999 C 459.35334,328.69733999999994 460.11332,328.0546399999999 461.17866000000004,327.26413999999994 L 461.8473,326.8624699999999 L 462.49998,326.52082999999993 L 463.15265999999997,326.19913999999994" fill="none" id="svg_8" stroke="#000" stroke-width="2"/>
</svg>
