<?xml version="1.0" ?>
<svg baseProfile="full" height="480" version="1.1" width="640" xmlns="http://www.w3.org/2000/svg" xmlns:ev="http://www.w3.org/2001/xml-events" xmlns:xlink="http://www.w3.org/1999/xlink">
	<defs/>
	<path d="M 289.0,234.0 C 284.0,251.83333 283.70462,253.57596 283.51334,255.31734 C 283.32306000000005,257.04932 283.20914000000005,258.78461 283.14585000000005,260.52085 C 283.08243000000004,262.26078 283.07065000000006,264.00996 283.09333000000004,265.76935 C 283.13926000000004,269.3338 283.21470000000005,271.1438 283.29069000000004,272.97466999999995 C 283.36759000000006,274.82815999999997 283.46720000000005,276.7047999999999 283.60417000000007,278.6041599999999 C 283.74306000000007,280.53021999999993 283.9100200000001,282.4830999999999 284.14268000000004,284.4586799999999 C 284.61930000000007,288.5058599999999 284.96846000000005,290.5689999999999 285.35069000000004,292.6653499999999 C 285.7411,294.80658999999986 286.19853000000006,296.9873699999999 286.72917000000007,299.2083499999999 C 287.2740600000001,301.4890499999999 287.88725000000005,303.8227599999999 288.60267000000005,306.20132999999987 C 290.10212000000007,311.1865299999999 291.03184000000005,313.75561999999985 291.99735000000004,316.3840099999999 C 292.98118000000005,319.0622299999999 294.03440000000006,321.7525699999999 295.14585000000005,324.43750999999986 C 296.25712000000004,327.12198999999987 297.4032,329.77286999999984 298.60935000000006,332.3559999999999 C 300.94550000000004,337.3591699999999 302.1832600000001,339.6944099999999 303.40134000000006,341.94934999999987 C 304.58808000000005,344.1462799999999 305.79996000000006,346.26761999999985 307.02085000000005,348.3333499999999 C 308.22547000000003,350.37158999999986 309.45267000000007,352.3721099999999 310.68534000000005,354.3573399999999 C 313.1576600000001,358.3389699999999 314.42127000000005,360.3415599999999 315.68000000000006,362.3613399999999 C 316.9396100000001,364.3825799999999 318.1931200000001,366.39746999999994 319.4375100000001,368.3958599999999 C 320.6664500000001,370.3694599999999 321.8743400000001,372.30979999999994 323.0600100000001,374.2053399999999 C 325.3304900000001,377.8351599999999 326.4137400000001,379.5500399999999 327.4586900000001,381.2053399999999 C 328.4710800000001,382.8090399999999 329.4575600000001,384.36835999999994 330.4166700000001,385.8958599999999 C 331.35887000000014,387.3964099999999 332.28734000000014,388.8795899999999 333.19469000000015,390.3613399999999 C 335.01064000000014,393.32685999999995 335.90087000000017,394.84149999999994 336.80001000000016,396.36267999999995 C 337.70089000000013,397.88681999999994 338.59560000000016,399.41065 339.5000200000002,400.91666999999995 C 340.3956200000002,402.40799999999996 341.28371000000016,403.87645 342.2000300000002,405.2906899999999 C 343.9687700000002,408.0205199999999 344.8882300000002,409.27863999999994 345.7947000000002,410.4826799999999 C 346.6713500000002,411.6471399999999 347.5508600000002,412.7466899999999 348.4166800000002,413.7916699999999 C 349.2498100000002,414.7971899999999 350.0693600000002,415.7460499999999 350.8587000000002,416.6506799999999 C 352.3297100000002,418.3365599999999 353.01501000000025,419.1119499999999 353.6533500000002,419.8533499999999 C 354.2549100000002,420.5520199999999 354.81540000000024,421.21165999999994 355.33337000000023,421.8333599999999 C 355.8152700000002,422.4117599999999 356.25756000000024,422.94999999999993 356.6533500000002,423.4533599999999 C 357.3407600000002,424.3275999999999 357.61752000000024,424.71156999999994 357.8587000000002,425.0586799999999 C 358.07449000000025,425.3692299999999 358.2560400000002,425.65602999999993 358.4166800000002,425.91667999999993 L 358.5573700000002,426.1573399999999 L 358.6820300000002,426.3820099999999 L 358.7947000000002,426.5946899999999" fill="none" id="svg_8" stroke="#000" stroke-width="2"/>
</svg>
