<?xml version="1.0" ?>
<svg baseProfile="full" height="480" version="1.1" width="640" xmlns="http://www.w3.org/2000/svg" xmlns:ev="http://www.w3.org/2001/xml-events" xmlns:xlink="http://www.w3.org/1999/xlink">
	<defs/>
	<path d="M 448.0,413.0 C 447.16666,430.33334 447.11868,431.68341 447.08533,432.93466 C 447.05457,434.08777000000003 447.03406,435.14398 447.02085,436.10415 C 447.00894999999997,436.96929 447.00333,437.7405 447.00135,438.41866 C 446.99818,439.49998999999997 447.00718,439.9081 446.99735,440.24397999999997 C 446.97522,441.00066 446.82824999999997,441.75575999999995 446.5575,442.99281999999994 C 446.43281,443.56251999999995 446.29566,444.19578999999993 446.16001,444.88133999999997 C 446.01713,445.60341999999997 445.7479,447.10988999999995 445.65333,447.87066 C 445.4719,449.33009999999996 445.44766999999996,450.01311999999996 445.45468999999997,450.652 C 445.46732,451.8034 445.51761999999997,452.31594 445.65635,453.19615999999996 C 445.84592999999995,454.39894999999996 446.0283,455.12609 446.22135,456.10751 C 446.35470999999995,456.78542999999996 446.50001,457.60415 446.64734,458.52249 L 446.716,459.00665" fill="none" id="svg_8" stroke="#000" stroke-width="2"/>
</svg>
