<?xml version="1.0" ?>
<svg baseProfile="full" height="480" version="1.1" width="640" xmlns="http://www.w3.org/2000/svg" xmlns:ev="http://www.w3.org/2001/xml-events" xmlns:xlink="http://www.w3.org/1999/xlink">
	<defs/>
	<path d="M 252.0,369.0 C 249.252,373.51599 249.10083,374.18097 248.924,374.82535 C 248.55173000000002,376.18192 248.1576,376.89051 247.71334000000002,377.62534 C 247.48475000000002,378.00342 246.96812000000003,378.72791 246.33334000000002,379.83335 C 245.94778000000002,380.50477 245.67199000000002,381.18488 245.19468000000003,382.15269 C 244.68902000000003,383.17799 244.23289000000003,383.88508 243.99917000000002,384.25718 C 243.51989000000003,385.02027 242.97767000000002,385.76817 242.50001000000003,387.00001000000003 C 242.19827000000004,387.77818 242.09089000000003,388.57942 241.96002000000004,389.32801 C 241.83729000000005,390.03004 241.45354000000003,391.24253 241.00001000000003,391.95835 C 240.58721000000003,392.6099 240.10511000000002,393.39393 240.02134000000004,394.27201 C 239.92053000000004,395.32877 240.03346000000005,395.96873000000005 239.95834000000005,396.97916000000004 C 239.90924000000004,397.63968000000006 239.60208000000006,398.77121000000005 239.13868000000005,399.31333 C 238.53710000000004,400.01713 237.84771000000006,400.75089 237.54168000000004,401.50001000000003 C 237.24854000000005,402.21757 237.25947000000005,403.58671000000004 236.55334000000005,403.96400000000006 C 235.78109000000003,404.37663000000003 234.78935000000004,404.00001000000003 233.79985000000005,404.00001000000003 C 232.97919000000005,404.00001000000003 232.31468000000004,404.00001000000003 231.31468000000004,404.00001000000003 C 230.47919000000005,404.00001000000003 229.59866000000005,404.00514000000004 228.69984000000005,403.99986 C 227.78930000000005,403.99452 226.83955000000006,403.96983 225.83334000000005,403.83336 C 225.11045000000004,403.73534 224.35464000000005,403.56752 223.55334000000005,403.42534 C 222.71464000000006,403.27651000000003 221.37910000000005,403.11556 220.91601000000006,403.08534000000003 C 219.97540000000006,403.02394000000004 219.02537000000007,403.00673 218.08401000000006,403.00136000000003 C 217.16670000000008,402.99614 216.28535000000005,403.00002 215.43602000000007,403.00002 C 214.61069000000006,403.00002 213.80135000000007,403.00002 212.60019000000008,403.00002 C 211.80452000000008,403.00002 211.02084000000008,403.00002 210.2571900000001,403.00002 C 209.1666900000001,403.00002 208.1611100000001,402.98934 207.5416900000001,403.02086 C 206.6853500000001,403.06441 205.46222000000012,403.35417 204.8466800000001,403.57469000000003 C 203.8875100000001,403.91832000000005 202.8784600000001,404.52681 203.57335000000012,404.91469 C 204.20541000000011,405.2675 205.33342000000013,405.00902 206.30985000000013,404.99553000000003 C 207.02097000000012,404.9857 207.7572500000001,404.98714 208.83335000000014,404.83336 C 209.84515000000013,404.68877000000003 210.45316000000014,404.47832000000005 211.31336000000013,404.28401 C 212.31064000000012,404.05873 213.23194000000012,404.01320000000004 214.16669000000013,403.83336 C 214.96416000000013,403.67995 215.80608000000012,403.40447 216.40135000000012,403.28401 C 217.59094000000013,403.04332000000005 218.47902000000013,403.01369 219.04284000000013,403.0045 C 220.31583000000012,402.98378 221.00001000000012,403.00001000000003 222.16668000000013,403.00001000000003 C 222.95718000000014,403.00001000000003 223.52084000000013,403.00001000000003 224.40134000000012,403.00001000000003 C 225.5986700000001,403.00001000000003 226.47918000000013,403.00001000000003 227.04283000000012,403.00001000000003 C 228.3159900000001,403.00001000000003 229.0000000000001,402.99665000000005 230.16667000000012,403.00001000000003 C 230.94818000000012,403.00227 231.77043000000012,402.89277000000004 232.66667000000012,403.16667 C 233.53100000000012,403.43083 234.1669000000001,404.33320000000003 234.48533000000012,404.76802000000004 C 235.0212000000001,405.49974000000003 235.55375000000012,406.28136000000006 236.20016000000012,406.85719000000006 C 236.96905000000012,407.5421600000001 237.69577000000012,407.86564000000004 238.42117000000013,408.32167000000004 C 239.22668000000013,408.82805 239.82402000000013,409.16792000000004 240.66667000000012,410.16667000000007 C 241.07529000000014,410.65098000000006 241.47471000000013,411.5229300000001 241.74817000000013,412.10451000000006 C 242.31218000000013,413.30403000000007 242.63597000000013,413.90166000000005 243.17467000000013,414.72801000000004 C 243.50588000000013,415.2361 244.29187000000013,416.16121000000004 244.69550000000012,416.80534000000006 C 245.27228000000014,417.7258100000001 245.50730000000013,418.49156000000005 245.71467000000013,419.23201000000006 C 245.97910000000013,420.1762800000001 245.99101000000013,421.10024000000004 246.00001000000012,421.88536000000005 C 246.01068000000012,422.81486000000007 247.44647000000012,423.12395000000004 247.18034000000011,423.9910100000001 C 247.05287000000013,424.40629000000007 245.79200000000012,423.3435800000001 245.3910200000001,422.9375100000001 C 244.71483000000012,422.2527600000001 244.2751300000001,421.6971200000001 243.35701000000012,421.1426800000001 C 242.71387000000013,420.7542800000001 241.95230000000012,420.5147500000001 241.19101000000012,420.1946800000001 C 239.9900500000001,419.68974000000014 239.1911600000001,419.2451000000001 238.41068000000013,418.7280100000001 C 238.01552000000012,418.4662300000001 237.24373000000014,417.9072400000001 236.16669000000013,417.0000100000001 C 235.81690000000012,416.7053600000001 235.15769000000014,416.0988600000001 234.50002000000012,415.5208500000001 C 233.8522400000001,414.95154000000014 232.8427600000001,414.1522900000001 232.1146900000001,413.6853400000001 C 231.7474600000001,413.4498100000001 230.98336000000012,413.0129200000001 230.1955200000001,412.6045000000001 C 229.0061900000001,411.98795000000007 228.2008600000001,411.60102000000006 227.8045300000001,411.4000000000001 C 227.0198500000001,411.0019900000001 226.2490900000001,410.6145100000001 225.1667000000001,410.0000100000001 C 224.4828000000001,409.6117700000001 223.8573600000001,409.2213500000001 223.0188600000001,408.7143300000001 L 222.1430400000001,408.2428300000001 L 221.3090400000001,407.95184000000006" fill="none" id="svg_10" stroke="#000" stroke-width="2"/>
</svg>
