<?xml version="1.0" ?>
<svg baseProfile="full" height="480" version="1.1" width="640" xmlns="http://www.w3.org/2000/svg" xmlns:ev="http://www.w3.org/2001/xml-events" xmlns:xlink="http://www.w3.org/1999/xlink">
	<defs/>
	<path d="M 455.0,187.0 C 457.16666,187.83333 457.60898,188.50723 458.35718,188.94284 C 459.08731,189.36793 460.33045000000004,189.0486 460.71466000000004,189.80132999999998 C 461.10043,190.55713999999998 460.14358000000004,190.92424999999997 459.41666000000004,190.99999999999997 C 458.51169000000004,191.09429999999998 457.47385,191.19796999999997 456.75183000000004,191.36165999999997 C 455.65262,191.61086999999998 454.94607,191.84012999999996 454.04217000000006,192.32115999999996 C 453.19464000000005,192.77218999999997 452.66305000000006,193.19430999999997 451.97601000000003,193.43065999999996 C 450.72415,193.86130999999995 450.17895000000004,193.84981999999997 449.052,193.92798999999997 C 448.45898,193.96912999999998 447.85476,193.98659999999995 446.64932000000005,193.99732999999998 C 445.50003000000004,194.00757 444.45865000000003,193.99845999999997 443.98050000000006,194.00449999999998 C 443.10407000000004,194.01557999999997 442.31308000000007,193.96724999999998 441.04285000000004,194.2215 C 440.24817,194.38056 439.55957000000006,194.72419 438.57868,195.09984 C 437.78065000000004,195.40546 436.96320000000003,195.69498 435.92151,195.8785 C 435.24115,195.99836 434.40134,195.99933000000001 433.39099,196.00001 C 432.48566,196.00061 431.35733,196.00001 430.69467,196.00001 C 430.0,196.00001 428.96799,196.00001 428.04285,196.00001 C 427.26133,196.00001 426.31732999999997,196.00001 425.31601,196.00001 C 424.5,196.00001 423.68399,196.00001 422.68268,196.00001 C 421.73868,196.00001 420.66666,196.00001 420.03201,196.00001 C 419.34933,196.00001 418.30533,196.00001 417.33334,196.00001 C 416.50982000000005,196.00001 415.55182,196.00001 414.57867000000005,196.00001 C 413.77465000000007,196.00001 412.95266000000004,196.00001 411.92166000000003,196.00001 C 411.04166000000004,196.00001 410.16666000000004,196.00001 409.3045,196.00001 L 408.39999,196.00001" fill="none" id="svg_8" stroke="#000" stroke-width="2"/>
</svg>
