<?xml version="1.0" ?>
<svg baseProfile="full" height="480" version="1.1" width="640" xmlns="http://www.w3.org/2000/svg" xmlns:ev="http://www.w3.org/2001/xml-events" xmlns:xlink="http://www.w3.org/1999/xlink">
	<defs/>
	<path d="M 391.0,361.0 C 392.0,362.0 392.75824,361.96045 393.65268,362.00449 C 394.51871,362.04711999999995 395.27810999999997,362.61728 396.20000999999996,362.91468 C 397.06039,363.19223999999997 397.99999999999994,363.00001 398.79999,363.00001 C 399.70000999999996,363.00001 400.60001,363.00001 401.52085,363.00001 C 402.32133,363.00001 403.17466,363.00001 404.116,363.00001 C 405.16666,363.00001 405.82534999999996,363.00001 406.83335,363.00001 C 407.6955,363.00001 408.52085,363.00001 409.48533,363.00001 C 410.21067,363.00001 411.19984,363.00001 412.16400999999996,363.00001 C 413.11600999999996,363.00001 413.88401,363.00001 414.83601,363.00001 C 415.60132999999996,363.00001 416.5955,363.00001 417.34285,363.00001 C 418.37468,363.00001 419.32152,363.00001 420.02085999999997,363.00001 C 421.00001999999995,363.00001 421.78934999999996,363.00001 422.83335999999997,363.00001 C 423.62534999999997,363.00001 424.6527,363.00001 425.34734,363.00001 C 426.37467999999996,363.00001 427.32133999999996,363.00001 428.17467,363.00001 C 429.11602,363.00001 429.88401999999996,363.00001 430.82536999999996,363.00001 C 431.51600999999994,363.00001 432.62535999999994,363.00001 433.48402999999996,363.00001 C 434.34734,363.00001 435.24285,363.00001 436.20002999999997,363.00001 C 437.10002,363.00001 438.00001999999995,363.00001 438.80001,363.00001 C 439.63601,363.00001 440.65719,363.00001 441.40452999999997,363.00001 C 442.39869999999996,363.00001 443.16402,363.00001 444.11467,363.00001 C 445.10017,363.00001 445.88536,363.00001 446.82536,363.00001 L 447.51599999999996,363.00001 L 448.58932999999996,363.00001 L 449.50001,363.00001" fill="none" id="svg_8" stroke="#000" stroke-width="2"/>
</svg>
