<?xml version="1.0" ?>
<svg baseProfile="full" height="480" version="1.1" width="640" xmlns="http://www.w3.org/2000/svg" xmlns:ev="http://www.w3.org/2001/xml-events" xmlns:xlink="http://www.w3.org/1999/xlink">
	<defs/>
	<path d="M 539.0,374.0 C 538.0,375.0 537.79236,375.74518 537.0,376.16666 C 536.35944,376.50739 535.48566,376.84756999999996 534.59998,377.01068 C 533.76856,377.16379 532.9737,377.76245 532.29999,378.05267 C 531.45819,378.41528 530.6474,378.8309 529.79999,379.28398999999996 C 529.14801,379.63258999999994 528.29999,379.99773999999996 527.47919,379.99998999999997 C 526.51599,380.00260999999995 525.65265,379.99998999999997 524.75269,379.99998999999997 C 523.8333200000001,379.99998999999997 522.97919,379.99998999999997 522.0,379.99998999999997 C 521.18933,379.99998999999997 520.54285,379.99998999999997 519.31732,379.99998999999997 C 518.52081,379.99998999999997 517.76935,380.00062999999994 516.81433,379.99998999999997 C 515.7986400000001,379.99931999999995 515.1113300000001,379.92393999999996 514.164,379.57466999999997 C 513.39587,379.29146999999995 512.40546,379.04008999999996 511.65716,379.00447999999994 C 510.6155,378.9548899999999 509.65691999999996,378.68352999999996 508.99465,378.29015999999996 C 508.49226999999996,377.99175999999994 507.71776,377.54396999999994 506.81431999999995,376.75264999999996 C 506.27674999999994,376.28175999999996 505.75651999999997,375.2861 505.29197999999997,374.86132 C 504.58952999999997,374.21898999999996 503.63444999999996,374.09788999999995 502.95833,374.02083999999996 C 501.88331999999997,373.89831 500.81496,373.80636 500.15715,373.63832999999994 C 499.19942,373.39369999999997 498.58559,373.1445299999999 497.7,372.67848999999995 C 496.78258,372.19569999999993 496.19811,371.79222999999996 495.59999,371.39867 C 494.6971,370.80455 493.80539999999996,370.20183 493.2,369.83599 C 492.60517999999996,369.47655 491.39849,368.88597999999996 490.79998,368.61465 C 490.19848,368.34198 488.98519,367.68627 488.39999,367.22934 C 487.78372,366.74814 487.1958,366.18298 486.6,365.59731999999997 C 485.69390000000004,364.70665999999994 485.10339000000005,364.10988999999995 484.54165,363.52083999999996 C 484.00897,362.96221999999995 483.32424000000003,362.17333999999994 482.80532,361.45714999999996 C 482.34112,360.81651999999997 481.68487,359.97902999999997 481.22933,359.60131999999993 C 480.48641,358.98531999999994 479.91152,358.61709999999994 478.70016,358.0213299999999 C 478.11375999999996,357.7329399999999 477.22231999999997,357.40194999999994 476.68532999999996,357.11599999999993 C 475.65657999999996,356.5682099999999 475.06233999999995,355.9575499999999 474.40133,355.56933999999995 C 473.44615999999996,355.00839999999994 472.5191,354.95606 471.57867,354.55715999999995 C 471.03125,354.32494999999994 470.22731999999996,353.81139999999994 469.68399,353.4826699999999 C 468.68892999999997,352.88064999999995 467.8288,352.38726999999994 467.0,352.1666599999999 C 466.2131,351.9571899999999 465.35852,351.9017099999999 464.39999,351.2946799999999 C 463.76937,350.8953299999999 463.02649,350.2325499999999 462.21066,350.0719899999999 C 461.18387,349.8699299999999 460.36334,350.0003299999999 459.51333,349.7159999999999 C 458.74166,349.4578499999999 457.83578,349.1484599999999 457.05181,349.0526699999999 C 456.26333,348.9563299999999 455.118,348.8253399999999 454.52083,348.47914999999995 C 453.63655,347.96651999999995 453.00627,347.43416999999994 451.99998999999997,347.16664999999995 C 451.20473,346.95521999999994 450.53454,346.98927999999995 449.57865999999996,346.77849999999995 C 448.76604,346.59929999999997 447.94202999999993,346.32210999999995 446.92164999999994,345.89998999999995 C 446.2390899999999,345.61760999999996 445.5300199999999,345.1301199999999 444.61463999999995,344.61064999999996 C 443.70420999999993,344.09398999999996 442.98267999999996,344.09202999999997 442.21464999999995,343.93864999999994 C 441.1528799999999,343.72660999999994 440.44746999999995,343.3030299999999 439.8106599999999,342.81465999999995 C 438.98713999999995,342.18306999999993 438.43483999999995,341.68263999999994 437.5999999999999,341.36166 C 436.6300899999999,340.98873999999995 435.7574699999999,341.01253999999994 434.8333399999999,340.83333999999996 C 434.0403999999999,340.67956 433.2340999999999,340.38647 432.1666499999999,340.16664999999995 C 431.4664499999999,340.02244999999994 430.56889999999987,340.01201999999995 429.7526499999999,339.29466999999994 C 429.1695199999999,338.78218999999996 428.5252299999999,338.10429999999997 427.7893299999999,338.02131999999995 C 426.80617999999987,337.91044999999997 425.83598999999987,337.99998999999997 424.8839999999999,337.99998999999997 C 424.1159899999999,337.99998999999997 423.1219799999999,338.13311 422.4840099999999,337.82933999999995 C 421.5025999999999,337.36198999999993 421.3187899999999,336.3185399999999 420.3640099999999,336.0213299999999 C 419.5540399999999,335.7691899999999 418.6490699999999,336.0762299999999 417.7526499999999,335.9955099999999 C 416.8228999999999,335.9117999999999 416.0262099999999,335.42500999999993 415.1666499999999,335.1666499999999 C 414.42741999999987,334.9444499999999 413.4935499999999,335.09798999999987 412.5893199999999,334.9893099999999 C 411.66127999999986,334.8777699999999 410.96931999999987,334.52891999999986 410.1666499999999,333.99998999999985 C 409.4708199999999,333.54145999999986 408.7049499999999,332.84672999999987 407.9791499999999,332.5208299999999 C 407.0292599999999,332.09431999999987 406.2112699999999,332.0191199999999 405.4853099999999,332.0013299999999 C 404.4109999999999,331.9749899999999 403.56175999999994,332.0848599999999 402.6786699999999,331.77830999999986 C 401.9698399999999,331.53224999999986 401.1430899999999,330.85191999999984 400.6359799999999,330.1853199999999 C 400.1795299999999,329.5852799999999 399.3838399999999,329.01536999999985 398.5999999999999,328.5746599999999 C 397.7819499999999,328.11469999999986 396.8750899999999,327.8079099999999 396.2999799999999,327.29548999999986 C 395.6711999999999,326.73524999999984 394.8410299999999,326.26414999999986 393.9999899999999,325.8333299999999 C 393.33564999999993,325.49302999999986 392.8012599999999,324.5370999999999 391.9999899999999,324.16663999999986 C 391.2971399999999,323.84168999999986 390.3256699999999,324.12305999999984 389.4839999999999,323.91465999999986 C 388.5932199999999,323.6940799999999 387.89998999999995,322.90015999999986 387.29997999999995,322.35715999999985 L 386.47914999999995,321.9999799999998" fill="none" id="svg_8" stroke="#000" stroke-width="2"/>
</svg>
