<?xml version="1.0" ?>
<svg baseProfile="full" height="480" version="1.1" width="640" xmlns="http://www.w3.org/2000/svg" xmlns:ev="http://www.w3.org/2001/xml-events" xmlns:xlink="http://www.w3.org/1999/xlink">
	<defs/>
	<path d="M 220.0,170.0 C 220.0,177.75467 220.21585,177.01067 221.32784,177.0 C 222.11147,176.99248 222.97918,177.0 223.41201,177.0 C 224.83334000000002,177.0 225.01801,176.95792 225.00001,176.11484 C 224.98281,175.30951 225.74652,173.72133 225.00001,173.72133 C 224.05467000000002,173.72133 224.93838,175.42964 225.14401,176.33467 C 225.28705000000002,176.96419999999998 226.11972,177.9846 226.74402,178.30266999999998 C 227.42198000000002,178.64807 228.21268,178.86193999999998 229.39984,179.32099999999997 C 230.20065000000002,179.63065999999998 230.57489,179.84461999999996 231.36401,180.10265999999996 C 232.81073,180.57573999999997 233.51942,180.61748999999995 234.39584000000002,180.45832999999996 C 235.06959000000003,180.33596999999997 234.85601000000003,179.99999999999997 233.86401,179.99999999999997 C 233.29867000000002,179.99999999999997 232.24987000000002,180.56392999999997 231.34135,179.99999999999997 C 231.01615,179.79813999999996 231.67051,178.67469999999997 232.05351000000002,177.87049999999996 C 232.26912000000002,177.41776999999996 232.70671000000002,176.45096999999996 232.88484000000003,175.94450999999995 C 233.38669000000002,174.51765999999995 233.51887000000002,173.65944999999996 233.46667000000002,172.95066999999995 C 233.40655,172.13438999999994 232.77236000000002,171.67249999999996 231.83334000000002,171.83332999999993 C 231.02246000000002,171.97221999999994 230.04411000000002,171.96731999999994 229.54168,171.97916999999993 C 228.58312,172.00179999999992 227.34969,172.02318999999991 227.00001,172.83332999999993 C 226.73651,173.44379999999992 226.23387,174.15644999999992 225.97918,174.56249999999994 C 225.45158,175.40366999999995 224.76266,176.65075999999993 224.62534000000002,177.42533999999995 C 224.50788000000003,178.08799999999994 224.08989000000003,179.32900999999995 225.00084,179.99999999999994 C 225.67113,180.49372999999994 226.75884000000002,179.99999999999994 227.47917,179.99999999999994 C 228.17950000000002,179.99999999999994 229.26919,179.87995999999995 228.66667,180.49999999999994 C 228.18799,180.99259999999995 227.77868,181.83201999999994 227.39734,182.40400999999994 C 226.80054,183.29917999999995 226.48461,184.42803999999995 225.7715,184.81416999999993 C 225.61711,184.89775999999992 226.08269,184.02084999999994 227.10667,184.00000999999995 C 227.76319,183.98663999999994 228.5,184.00183999999996 229.23666,184.00000999999995 C 230.57734,183.99666999999994 231.25619,183.57747999999995 231.66383,182.89284999999995 C 232.06020999999998,182.22711999999996 232.50184,181.44802999999996 232.88482,180.59183999999996 C 233.07399999999998,180.16890999999995 233.52415,178.94339999999997 233.46665,177.91468999999995 C 233.42272,177.12852999999996 232.77285999999998,176.57395999999994 231.67231999999998,176.21467999999996 C 231.28930999999997,176.08962999999997 230.46645999999998,175.70469999999995 229.62398,175.30134999999996 C 228.87206999999998,174.94135999999995 227.99999,174.83334999999997 227.22665999999998,174.96401999999995 L 226.67997999999997,174.98934999999994 L 225.48597999999998,175.00001999999995 L 224.99999,175.28584999999995" fill="none" id="svg_8" stroke="#000" stroke-width="2"/>
</svg>
