<?xml version="1.0" ?>
<svg baseProfile="full" height="480" version="1.1" width="640" xmlns="http://www.w3.org/2000/svg" xmlns:ev="http://www.w3.org/2001/xml-events" xmlns:xlink="http://www.w3.org/1999/xlink">
	<defs/>
	<path d="M 251.0,146.0 C 252.47917,147.5 252.89072,148.3391 253.42534,148.97467 C 253.97154,149.62401 254.80614,149.62852 255.564,150.036 C 256.29334,150.42814 256.43406,151.67412 257.29999,151.94285 C 258.1601,152.20976 258.81046,152.49054999999998 259.43600999999995,152.97468 C 260.18179999999995,153.55186 261.03689999999995,153.73689000000002 261.79999,154.08401 C 262.65427,154.47259 263.35947,155.01284 264.02085,155.50001 C 264.68226,155.98719 265.58906,155.94589 266.36402,156.43601 C 267.20169999999996,156.96581 267.69919,157.64472 268.50001,158.00001 C 269.29916999999995,158.35455 270.09684,158.90504 271.00001,159.00001 C 271.75516999999996,159.07942 272.64018,159.38412 273.34733,159.64735000000002 C 274.34831,160.01995000000002 275.13838,160.38609000000002 275.8,160.71601 C 276.64338000000004,161.13657 277.61921,160.83478000000002 278.50001000000003,161.02083000000002 C 279.34739,161.19982000000002 280.09388,161.93912000000003 281.00001000000003,162.00000000000003 C 281.7982,162.05363000000003 282.70002000000005,161.99944000000002 283.52085000000005,162.00000000000003 C 284.48267000000004,162.00067000000004 285.41508000000005,161.92381000000003 286.01469000000003,162.61067000000003 C 286.60371000000004,163.28543000000002 287.32994,163.85594000000003 288.00984000000005,163.94732000000002 C 288.78233000000006,164.05114000000003 289.8553600000001,164.10052000000002 290.75334000000004,164.436 C 291.35634000000005,164.66127 292.16365,165.42953 293.00001000000003,165.83332000000001 C 293.70991000000004,166.17606 294.64173000000005,166.37995 295.34733000000006,166.64733 C 296.23048000000006,166.98199000000002 297.30274000000003,167.199 297.71467000000007,167.80132 C 298.26887000000005,168.61165 298.6799700000001,169.35750000000002 299.35185000000007,169.64283 C 300.32927000000007,170.05791 301.35008000000005,169.86831 302.1000200000001,170.22132 C 302.8755300000001,170.58635999999998 303.43574000000007,171.24206999999998 304.16667000000007,171.83332 C 304.86448000000007,172.39779 305.67766000000006,172.44196 306.47917000000007,172.99999 C 307.09587000000005,173.42936 307.5722800000001,174.19546 308.35185000000007,174.69998999999999 C 309.11757000000006,175.19555 309.6966700000001,175.69881999999998 310.40001000000007,176.39998999999997 C 311.10100000000006,177.09882999999996 311.41744000000006,177.68947999999997 312.00002000000006,178.47916999999998 C 312.47069000000005,179.11715999999998 313.2662200000001,179.50603999999998 313.87887000000006,180.22165999999999 C 314.3507900000001,180.77292999999997 314.6995800000001,181.66223 315.18536000000006,182.17466 C 315.96222000000006,182.99411999999998 316.45880000000005,183.64679999999998 316.97470000000004,184.38932 C 317.44217000000003,185.06214 318.46243000000004,185.27239 318.83337000000006,186.16666 C 319.15896000000004,186.95163 319.18057000000005,187.82599000000002 319.57470000000006,188.58933000000002 C 319.9894300000001,189.39254000000003 320.4530000000001,190.10718000000003 320.83337000000006,190.99999000000003 C 321.1535600000001,191.75153000000003 321.33105000000006,192.45147000000003 321.83337000000006,193.16666000000004 C 322.32180000000005,193.86209000000002 322.0558700000001,194.81864000000004 322.52087000000006,195.52082000000004 C 323.06640000000004,196.34461000000005 323.45880000000005,197.02616000000003 324.00003000000004,197.83332000000004 C 324.52533000000005,198.61671000000004 324.87091000000004,199.32825000000005 325.22153000000003,200.32133000000005 C 325.46848000000006,201.02078000000006 326.05857000000003,201.79492000000005 326.47919,202.50000000000006 C 326.94709,203.28432000000006 326.90876000000003,204.17917000000006 327.00138000000004,205.11467000000005 C 327.09013000000004,206.01093000000006 327.80021000000005,206.65260000000004 327.97919,207.50000000000006 C 328.16523,208.38080000000005 327.86838,209.35007000000004 328.22138,210.10001000000005 C 328.58643,210.87552000000005 328.99778000000003,211.69999000000004 329.00004,212.60001000000005 C 329.00227,213.50000000000006 329.00004,214.40000000000006 329.00004,215.30001000000004 C 329.00004,216.20000000000005 329.00004,217.10001000000005 329.00004,218.00001000000003 C 329.00004,218.80001000000004 329.00004,219.70001000000002 329.00004,220.60002000000003 L 329.00004,221.50001000000003 L 329.00004,222.40000000000003" fill="none" id="svg_9" stroke="#000" stroke-width="2"/>
</svg>
