<?xml version="1.0" ?>
<svg baseProfile="full" height="480" version="1.1" width="640" xmlns="http://www.w3.org/2000/svg" xmlns:ev="http://www.w3.org/2001/xml-events" xmlns:xlink="http://www.w3.org/1999/xlink">
	<defs/>
	<path d="M 195.0,218.0 C 199.40016,224.15717 199.79616,224.63525 200.2045,225.09016 C 201.01073,225.98834 201.43363,226.41699 201.85716,226.84816 C 203.15939,228.17386000000002 203.6215,228.62151 204.08532,229.08533 C 204.55715,229.55716 205.03599,230.036 206.01066,231.01067 C 206.5045,231.50451 207.0014,232.00126 207.99999,233.0 C 208.50037,233.50046 209.00339,234.00328 209.50898999999998,234.5135 C 210.02204999999998,235.03126 210.54612999999998,235.55819 211.61432,236.67149 C 212.17301,237.25375 213.33515,238.49832 213.94266,239.16417 C 214.56986999999998,239.85161000000002 215.20667999999998,240.56130000000002 215.85065,241.28667000000002 C 216.50136,242.01963 217.15036,242.75910000000002 217.79465,243.49916000000002 C 218.43303,244.23244000000003 219.66718,245.66623 220.25699,246.35683000000003 C 220.82984,247.02756000000002 221.38516,247.68158000000003 221.92798,248.31734000000003 C 222.45784,248.93791000000002 222.97713,249.54399000000004 223.49097999999998,250.13384000000002 C 223.99581999999998,250.71332 224.99845999999997,251.83474 225.50015,252.37917000000002 C 225.9998,252.92139 226.50589,253.45954 227.01065,254.00667 C 227.52223,254.56119 228.0401,255.12972000000002 228.55714,255.72417000000002 C 229.08958,256.33631 230.17187,257.66266 230.72148,258.38568000000004 C 231.29075,259.13458 231.85895000000002,259.91839000000004 232.43599,260.72266 C 233.02264,261.54035000000005 233.60919,262.37171 234.20448,263.20368 C 234.79985,264.03574000000003 235.99527999999998,265.67026000000004 236.60016,266.45701 C 237.1967,267.23292000000004 237.80032,267.98908 238.41064999999998,268.72801000000004 C 239.0167,269.46177000000006 239.63252999999997,270.18171000000007 240.25715999999997,270.891 C 240.88186999999996,271.60038000000003 242.16425999999998,273.00224000000003 242.82148999999998,273.70002 C 243.48292999999998,274.40226 244.15562999999997,275.10151 244.83598999999998,275.8 C 245.51928999999998,276.50151 246.20990999999998,277.20076 246.90448999999998,277.90001 C 247.60057999999998,278.60075 249.0005,279.99953 249.69982,280.70018 C 250.39916,281.40085999999997 251.09751,282.10251999999997 251.78932999999998,282.81068 C 252.48118999999997,283.51887 253.16760999999997,284.23262 253.84283,284.95716 C 254.51828999999998,285.68198 255.83760999999998,287.163 256.47866,287.92133 C 257.12032,288.68036 257.74844,289.45179 258.37466,290.22535 C 259.00109000000003,290.99912 259.62313,291.77644 260.25265,292.54734 C 260.8818,293.31782000000004 262.16162,294.83781000000005 262.82165000000003,295.5785 C 263.48165000000006,296.31916 264.15756000000005,297.04676 264.84667,297.76402 C 265.53756000000004,298.48311 266.24346,299.19261 266.96166,299.89552000000003 C 267.68345999999997,300.60197000000005 269.16509,302.00169000000005 269.9215,302.70036000000005 C 270.68374,303.40440000000007 271.45775,304.10835000000003 272.23598,304.82133000000005 C 273.02146999999997,305.5409700000001 273.8134,306.26908000000003 274.60447999999997,307.01435000000004 C 275.40412999999995,307.76771 277.00395999999995,309.32944000000003 277.80015999999995,310.14283000000006 C 278.60533999999996,310.96540000000005 279.40541999999994,311.80897000000004 280.21064999999993,312.6613500000001 C 281.0217799999999,313.5199600000001 281.83390999999995,314.3873300000001 282.65714999999994,315.2518300000001 C 283.48322999999993,316.1193200000001 285.16193999999996,317.8381300000001 286.0217999999999,318.6786800000001 C 286.8832799999999,319.5208100000001 287.7624599999999,320.3513200000001 288.65732999999994,321.1746500000001 C 289.55878999999993,322.0040300000001 290.47992999999997,322.8284300000001 291.4187999999999,323.6526800000001 C 292.3692699999999,324.48712000000006 294.33224999999993,326.1679400000001 295.34280999999993,327.0216700000001 C 296.36819999999994,327.88794000000007 297.41058999999996,328.7607100000001 298.4613099999999,329.6466700000001 C 299.5216099999999,330.5407100000001 300.5879599999999,331.4435500000001 301.6517999999999,332.36167000000006 C 302.72000999999995,333.28355000000005 304.83712999999995,335.16251000000005 305.8786399999999,336.12134000000003 C 306.9198099999999,337.07987 307.9482799999999,338.05164 308.9746499999999,339.02533000000005 C 310.0009599999999,339.99896000000007 311.0233599999999,340.97672000000006 312.05264999999986,341.9473300000001 C 313.0820699999999,342.9180300000001 315.16305999999986,344.8373400000001 316.2209799999999,345.7785100000001 C 317.27776999999986,346.7186700000001 318.34341999999987,347.6430700000001 319.40395999999987,348.5640000000001 C 320.4580999999999,349.4794100000001 321.50585999999987,350.38569000000007 322.5329599999999,351.2955100000001 C 323.5484899999999,352.1950800000001 325.5063199999999,353.9934500000001 326.43563999999986,354.9000000000001 C 327.3516299999999,355.7935500000001 328.2366299999999,356.6965100000001 329.10262999999986,357.6000100000001 C 329.96193999999986,358.4965200000001 330.80449999999985,359.3994800000001 331.64364999999987,360.2999900000001 C 332.48184999999984,361.1995000000001 334.1643099999999,363.0022000000001 335.02114999999986,363.8996600000001 C 335.88030999999984,364.7995600000001 336.74663999999984,365.6924800000001 337.61462999999986,366.5786800000001 C 338.47763999999984,367.45981000000006 339.3378999999999,368.3287400000001 340.19012999999984,369.1856700000001 C 341.02990999999986,370.03006000000005 342.6668799999998,371.6664100000001 343.45712999999984,372.45734000000004 C 344.2308699999998,373.23175000000003 344.99118999999985,373.99363000000005 345.73864999999984,374.74933000000004 C 346.4801699999998,375.49899000000005 347.2163699999998,376.24899000000005 347.9481499999998,377.00534000000005 C 348.68438999999984,377.76633000000004 350.1692199999998,379.33093 350.9209599999998,380.14282000000003 C 351.6839599999998,380.96689000000003 352.4472999999998,381.80658000000005 353.20397999999983,382.66134000000005 C 353.96200999999985,383.5176000000001 354.70772999999986,384.3810700000001 355.4329799999998,385.25182000000007 C 356.1503599999998,386.1131200000001 357.5065899999998,387.82839000000007 358.1354599999998,388.67849000000007 C 358.7504799999998,389.50988000000007 359.3332399999998,390.33956000000006 359.8919599999998,391.16399000000007 C 360.4422199999998,391.9759400000001 360.97047999999984,392.78771000000006 361.4864699999998,393.59548000000007 C 361.99848999999983,394.3970500000001 362.99989999999985,396.00002000000006 363.49980999999985,396.79964000000007 C 363.9985599999998,397.5973400000001 364.49507999999986,398.3912200000001 364.98927999999984,399.17867000000007 C 365.47871999999984,399.95858000000004 365.9632799999998,400.72841000000005 366.44279999999986,401.4856500000001 C 366.91398999999984,402.2297300000001 367.83189999999985,403.66757000000007 368.2784599999999,404.35665000000006 C 368.71323999999987,405.0275500000001 369.1401499999999,405.67840000000007 369.56394999999986,406.3066600000001 C 369.97657999999984,406.9183500000001 370.38547999999986,407.50939000000005 370.7954599999999,408.0766500000001 C 371.19493999999986,408.6293500000001 371.99604999999985,409.6698500000001 372.39961999999986,410.1570000000001 C 372.79350999999986,410.6324900000001 373.19023999999985,411.0862900000001 373.57863999999984,411.5280000000001 C 373.95757999999984,411.9589700000001 374.3305599999998,412.37642000000005 374.68562999999983,412.7909700000001 C 375.0318199999998,413.1951400000001 375.6720799999998,413.99608000000006 375.95680999999985,414.39931000000007 C 376.23332999999985,414.7909400000001 376.4833899999999,415.18059000000005 376.7173099999998,415.5573300000001 C 376.9395999999998,415.9153300000001 377.1410799999998,416.2569500000001 377.3337999999998,416.5713100000001 C 377.51052999999985,416.85955000000007 377.8273899999998,417.3382500000001 377.9776299999998,417.5136600000001 C 378.1031799999998,417.66024000000004 378.2163099999998,417.76763000000005 378.3106399999998,417.8346400000001 C 378.3725599999998,417.87862000000007 378.4092999999998,417.88533000000007 378.4096399999998,417.8676600000001 L 378.3719799999998,417.8239900000001" fill="none" id="svg_9" stroke="#000" stroke-width="2"/>
</svg>
