<?xml version="1.0" ?>
<svg baseProfile="full" height="480" version="1.1" width="640" xmlns="http://www.w3.org/2000/svg" xmlns:ev="http://www.w3.org/2001/xml-events" xmlns:xlink="http://www.w3.org/1999/xlink">
	<defs/>
	<path d="M 358.0,260.89999 C 359.02084,261.89999 359.99084,262.10192 360.62534,262.51068 C 361.503,263.07610999999997 362.08234,263.37115 363.0,264.23334 C 363.42984,264.63721 363.97717,265.40146 364.34283,265.89466 C 365.11319,266.93375 365.64349,267.53715 366.33333999999996,268.06669 C 366.98909999999995,268.57008 367.71318999999994,269.10716 368.66664999999995,269.56669 C 369.43336999999997,269.93622999999997 370.28706999999997,270.28095 370.8853399999999,270.70133 C 371.63213999999994,271.22605 372.3140199999999,271.67881 373.36400999999995,271.86402 C 374.28661999999997,272.02677 375.09126999999995,272.13383 375.75717,272.6045 C 376.47729,273.1135 377.23782,273.52103 378.16664999999995,273.9 C 378.94563999999997,274.21781 379.77836999999994,274.49024 380.316,274.70002 C 381.55177999999995,275.1822 382.21718,275.4957 382.99998999999997,276.06669 C 383.62379999999996,276.52171 384.16427,277.12068 384.99998999999997,277.73335 C 385.76948999999996,278.29747 386.38523999999995,278.5981 387.39732999999995,278.81602 C 388.27599,279.00523 388.92711999999995,279.67499999999995 389.70448999999996,279.89552 C 390.56602999999996,280.13989999999995 391.60927999999996,279.73274 392.29549,280.25717999999995 C 393.04594999999995,280.8306999999999 393.1436,281.73053999999996 393.85067,282.29999999999995 C 394.63948999999997,282.93528 394.97646,283.5491099999999 395.28398999999996,284.38400999999993 C 395.60774999999995,285.26294999999993 395.66436,286.41351999999995 396.35716999999994,286.8428399999999 C 397.15648999999996,287.33816999999993 397.8099899999999,287.3736899999999 398.44316999999995,288.0000099999999 C 398.96734,288.5184699999999 400.16759999999994,288.89755999999994 400.68267,289.10135999999994 C 401.48064,289.4170899999999 402.33315,289.67285999999996 403.18566,290.55267999999995 C 403.64034,291.02191999999997 404.10490999999996,292.12423999999993 404.7,292.53833999999995 C 405.50414,293.09790999999996 406.31792,293.48918 407.09999,293.7785099999999 C 407.95174,294.0936299999999 408.80039999999997,293.87274999999994 409.7,293.8999999999999 C 410.64412,293.92858999999993 410.84569,294.81625999999994 409.99998999999997,294.8999999999999 C 409.20390999999995,294.9788299999999 408.29997999999995,294.8999999999999 407.39997999999997,294.8999999999999 C 406.49998999999997,294.8999999999999 405.58948999999996,294.7673099999999 404.7,294.90451999999993 C 403.7686,295.04819999999995 403.23136999999997,295.75183999999996 402.29998,295.8955199999999 C 401.41048,296.0327299999999 400.27859,295.77829999999994 400.01067,296.5106899999999 C 399.71227,297.3263899999999 400.69259,297.8840099999999 401.30449,298.6143599999999 C 401.6935,299.0786799999999 402.28992999999997,300.1296799999999 402.84666999999996,300.6893399999999 C 403.43019999999996,301.2759199999999 404.15581,301.7546199999999 404.95266,302.1473499999999 C 405.76417999999995,302.5473099999999 406.35812,302.7190099999999 407.31332,303.3840099999999 C 407.99123999999995,303.85595999999987 408.80776999999995,304.76074999999986 409.37465999999995,305.26400999999987 C 410.13424,305.9383599999999 410.84047999999996,306.27493999999984 411.51598999999993,306.70000999999985 C 412.2604999999999,307.16851999999983 413.18172999999996,307.63100999999983 413.7999899999999,308.06932999999987 C 414.5464199999999,308.5984999999999 414.8222399999999,309.4725299999999 415.8253499999999,309.83864999999986 C 416.4880699999999,310.08052999999984 417.4578299999999,310.42116999999985 417.9473299999999,311.19548999999984 C 418.3567499999999,311.8430999999998 419.32168999999993,311.70509999999985 420.19866999999994,311.90132999999986 C 421.0057099999999,312.08189999999985 421.47371999999996,312.64946999999984 422.29549999999995,312.90449999999987 C 423.0585899999999,313.1413199999999 423.79027999999994,313.83229999999986 423.99550999999997,314.60447999999985 C 424.22567,315.47047999999984 423.55577999999997,316.29228999999987 422.90016999999995,316.99998999999985 C 422.35020999999995,317.5936199999999 422.01042999999993,318.39979999999986 421.99998999999997,319.29997999999983 C 421.98958,320.19993999999986 422.1513,321.1128499999998 421.99983999999995,321.99983999999984 C 421.85444999999993,322.8512499999998 420.83333999999996,322.89998999999983 419.99998999999997,322.89998999999983 C 419.02149999999995,322.89998999999983 418.30449,322.9007199999998 417.364,322.89998999999983 C 416.51466999999997,322.8993199999998 415.58043,322.90364999999986 414.79997,322.67848999999984 C 413.97929,322.44172999999984 412.99622999999997,321.90733999999986 412.40448999999995,321.59999999999985 C 411.65225999999996,321.20927999999986 410.61035999999996,320.70442999999983 410.16664,319.89998999999983 C 409.76173,319.16591999999986 409.55945999999994,318.36348999999984 409.05265999999995,317.6044899999998 C 408.5554399999999,316.8598299999998 408.06336999999996,316.1252099999998 407.29549,315.90450999999985 C 406.43483,315.6571299999998 404.62133,315.02132999999986 404.62133,315.89998999999983 C 404.62133,316.27864999999986 405.80016,315.88124999999985 406.7,315.89998999999983 C 407.56453,315.91799999999984 408.05361,316.60393999999985 408.49998999999997,317.39998999999983 C 408.94829,318.1994599999998 409.19082,319.0260299999998 409.70448999999996,319.59999999999985 C 410.37260999999995,320.34654999999987 410.88534,320.7853299999999 411.65716,321.55714999999987 C 412.21065999999996,322.11064999999985 412.99998999999997,322.89997999999986 413.59999999999997,323.49998999999985 C 413.99998999999997,323.89997999999986 414.59396,324.50608999999986 415.40133,325.29997999999983 C 416.01626,325.9046599999998 416.67199,326.51671999999985 417.42116999999996,327.09965999999986 C 417.93924,327.5027699999999 418.70091999999994,328.09904999999986 419.66664999999995,328.5666699999999 C 420.43269999999995,328.9376099999999 421.84703999999994,329.3600999999999 421.45833999999996,329.8791699999999 C 420.94368999999995,330.56642999999985 419.70000999999996,329.89997999999986 418.79997999999995,329.89997999999986 C 417.89998999999995,329.89997999999986 416.99998999999997,329.89997999999986 416.24281999999994,329.89997999999986 C 415.34282999999994,329.89997999999986 414.39805999999993,329.86942999999985 413.39998999999995,329.90449999999987 C 412.5987799999999,329.9326399999999 411.80162999999993,330.1266699999999 410.97914999999995,330.39997999999986 C 410.31609,330.6203199999999 409.31895999999995,330.83988999999985 408.52083999999996,330.8791699999999 C 407.33459,330.9375499999999 406.50228999999996,330.8546299999999 405.67868,331.1213299999999 C 404.80001999999996,331.4058499999999 404.02805,331.8378199999999 403.20132,331.89866999999987 C 402.30242,331.9648299999999 401.2474,332.35343999999986 400.43600000000004,331.8279899999999 C 399.69287,331.3467599999999 399.67669,330.2118099999999 398.97915000000006,329.8999799999999 C 398.17739000000006,329.5415799999999 397.55737000000005,328.85453999999993 396.9999900000001,328.06666999999993 C 396.60381000000007,327.50663999999995 396.0371300000001,327.00544999999994 395.2306400000001,326.4146599999999 C 394.4862200000001,325.8693399999999 393.9271700000001,325.5218699999999 392.9215000000001,324.69999999999993 C 392.4469200000001,324.3121499999999 391.8080100000001,323.7026899999999 390.9999900000001,322.8999799999999 C 390.3935100000001,322.2974999999999 389.97915000000006,321.87916999999993 389.31466000000006,321.2146499999999 C 388.57882000000006,320.4788099999999 388.05181000000005,319.9518299999999 387.26132000000007,319.1613399999999 C 386.7693500000001,318.66933999999986 385.97238000000004,317.86894999999987 385.4213200000001,317.3213399999999 C 384.6977200000001,316.60221999999993 384.1167900000001,316.1775699999999 383.1853300000001,315.9253099999999 C 382.24493000000007,315.67063999999993 381.8753300000001,314.8664999999999 381.38934000000006,314.2999699999999 C 380.75180000000006,313.5567099999999 380.00955000000005,313.0107499999999 379.2000100000001,312.90131999999994 C 378.3062100000001,312.78049999999996 377.55093000000005,312.29261999999994 376.69549000000006,311.95264999999995 C 375.86877000000004,311.62409999999994 375.17105000000004,311.41721999999993 374.3133200000001,311.18396999999993 C 373.3318100000001,310.91705999999994 372.4949900000001,310.93918999999994 371.6839900000001,310.81598999999994 C 370.6767900000001,310.6629699999999 370.0161700000001,310.38901999999996 369.0000000000001,309.89996999999994 C 368.2069400000001,309.51831999999996 367.4901700000001,309.16867999999994 366.6253400000001,308.92529999999994 C 365.6836300000001,308.6602899999999 364.9707100000001,308.4268599999999 364.1666600000001,307.89996999999994 C 363.4940500000001,307.45919999999995 362.6966900000001,306.92855999999995 361.6786800000001,306.89996999999994 C 361.0002700000001,306.8809299999999 359.9782100000001,307.0910999999999 359.2013200000001,306.81463999999994 C 358.2986100000001,306.4934099999999 357.8856500000001,305.55905999999993 357.1146500000001,305.18530999999996 C 356.2302800000001,304.75659999999993 355.39868000000007,304.90063999999995 354.3999900000001,304.89996999999994 C 353.60000000000014,304.89941999999996 352.5986600000001,304.89996999999994 351.7640000000001,304.89996999999994 C 350.83334000000013,304.89996999999994 350.0428400000001,304.89996999999994 349.1893200000001,304.89996999999994 C 347.99999000000014,304.89996999999994 347.40133000000014,304.89996999999994 346.5208300000001,304.89996999999994 C 345.6853200000001,304.89996999999994 344.68666000000013,304.89996999999994 343.84667000000013,304.89996999999994 C 342.88534000000016,304.89996999999994 341.8998300000001,304.9044599999999 341.1146400000001,304.89996999999994 C 340.1852900000001,304.89462999999995 339.4659300000001,304.43969999999996 338.77849000000015,304.0214899999999 C 338.02083000000016,303.56051999999994 336.99999000000014,303.89996999999994 336.20000000000016,303.89996999999994 C 335.2999800000002,303.89996999999994 334.39998000000014,303.89996999999994 333.49999000000014,303.89996999999994 C 332.5893100000001,303.89996999999994 331.6786700000001,303.89996999999994 330.82534000000015,303.89996999999994 C 329.88534000000016,303.89996999999994 328.98745000000014,303.8084799999999 328.24282000000017,303.95712999999995 C 327.3180800000002,304.14172999999994 326.68548000000015,304.68362999999994 325.6359800000002,304.86398999999994 C 324.7128500000002,305.02261999999996 323.6993300000002,304.71942999999993 323.0840100000002,305.18396999999993 C 322.4007800000002,305.6997799999999 321.7000100000002,305.89996999999994 320.79998000000023,305.89996999999994 C 319.89999000000023,305.89996999999994 318.99999000000025,305.89996999999994 318.2000000000002,305.89996999999994 C 317.2428200000002,305.89996999999994 316.3473100000002,305.89996999999994 315.6526700000002,305.89996999999994 C 314.62533000000025,305.89996999999994 313.6763800000002,305.93585999999993 312.9583300000002,305.87915999999996 C 311.8274400000002,305.78986999999995 311.0520200000002,305.54654999999997 310.2613100000002,305.32532999999995 C 309.3335800000002,305.06577999999996 308.52098000000024,304.91040999999996 307.5159800000002,304.89997999999997 C 306.8253700000002,304.89281 305.75716000000017,304.89997999999997 304.8999800000002,304.89997999999997 C 303.9999900000002,304.89997999999997 303.1813500000002,304.84409999999997 302.4791400000002,304.37917 C 301.6554100000002,303.83376 301.0403900000002,303.30214 300.0213200000002,303.0215 C 299.26662000000016,302.81368 298.33657000000017,302.95271 297.5954800000002,302.84282 C 296.5855300000002,302.69307000000003 295.82180000000017,302.2411 294.8001600000002,302.0215 C 294.03191000000015,301.85634 293.1666500000002,301.89998 292.30449000000016,301.89998 L 291.39998000000014,301.89998 L 290.4359900000001,301.86400000000003 L 289.94731000000013,301.25264000000004" fill="none" id="svg_10" stroke="#000" stroke-width="2"/>
</svg>
