<?xml version="1.0" ?>
<svg baseProfile="full" height="480" version="1.1" width="640" xmlns="http://www.w3.org/2000/svg" xmlns:ev="http://www.w3.org/2001/xml-events" xmlns:xlink="http://www.w3.org/1999/xlink">
	<defs/>
	<path d="M 311.0,165.0 C 318.0,172.0 318.70001,172.70084 319.40399,173.40266 C 320.113,174.10949 320.83081000000004,174.82254 321.5625,175.54167 C 322.30682,176.27322 323.06882,177.01712 323.85599,177.77066000000002 C 325.49445000000003,179.33914000000001 326.36365,180.14441000000002 327.25733,180.97333000000003 C 328.17496,181.82445000000004 329.11905,182.69290000000004 330.08335000000005,183.58333000000005 C 331.06840000000005,184.49291000000005 332.07343000000003,185.42040000000006 333.0893300000001,186.37334000000004 C 335.1723400000001,188.32730000000004 336.2224500000001,189.34221000000005 337.28800000000007,190.36934000000005 C 338.36680000000007,191.40921000000006 339.45502000000005,192.46376000000006 340.5625100000001,193.52083000000005 C 341.6803400000001,194.58779000000004 342.8107700000001,195.66068000000004 343.97199000000006,196.71733000000003 C 346.31714000000005,198.85129000000003 347.5391900000001,199.88351000000003 348.77067000000005,200.91867000000002 C 350.01054000000005,201.96089 351.2724400000001,202.99548000000001 352.54167000000007,204.04167 C 353.82176000000004,205.09682 355.11653000000007,206.15814 356.40269000000006,207.25467 C 359.01536000000004,209.4821 360.3043600000001,210.65839 361.59602000000007,211.84934 C 362.8914000000001,213.04372 364.16908000000006,214.25355000000002 365.4375100000001,215.45833000000002 C 366.6930600000001,216.65088000000003 367.9234400000001,217.83304 369.14402000000007,218.97734000000003 C 371.4903300000001,221.17703000000003 372.6313600000001,222.19627000000003 373.7386900000001,223.17200000000003 C 374.80714000000006,224.11348000000004 375.84938000000005,225.00930000000002 376.85417000000007,225.87500000000003 C 377.82405000000006,226.71063000000004 378.76454000000007,227.51280000000003 379.65468000000004,228.30800000000002 C 381.34618000000006,229.81909000000002 382.11870000000005,230.57361000000003 382.86,231.312 C 383.58028,232.02942000000002 384.26683,232.74253000000002 384.93751000000003,233.4375 C 385.59349000000003,234.1172 386.23158,234.78879 386.88001,235.42799 C 388.15192,236.68179 388.81635,237.26205 389.48002,237.828 C 390.13477,238.38635 390.79261,238.91823 391.43751000000003,239.4375 C 392.06599000000006,239.94356 392.6815,240.42703 393.26002000000005,240.912 C 394.34407000000004,241.82071000000002 394.81925000000007,242.27319 395.26002000000005,242.71333 C 395.68077000000005,243.13348000000002 396.06669000000005,243.55333000000002 396.43751000000003,243.95833000000002 L 396.79334000000006,244.35333000000003 L 397.13917000000004,244.73832000000002 L 397.48002,245.11332000000002" fill="none" id="svg_9" stroke="#000" stroke-width="2"/>
</svg>
