<?xml version="1.0" ?>
<svg baseProfile="full" height="480" version="1.1" width="640" xmlns="http://www.w3.org/2000/svg" xmlns:ev="http://www.w3.org/2001/xml-events" xmlns:xlink="http://www.w3.org/1999/xlink">
	<defs/>
	<path d="M 337.0,344.0 C 334.36432,347.74365 334.14645,348.62994 334.04166,349.625 C 333.98487,350.16428 333.96851,350.73849 333.83335,352.66666 C 333.78287,353.38666 333.71656,354.14432 333.63833999999997,354.93766 C 333.55670999999995,355.76565999999997 333.46151999999995,356.6254 333.35333999999995,357.51469 C 333.24164999999994,358.43275 333.12350999999995,359.37751 332.83334999999994,361.33335 C 332.68341999999996,362.34397 332.51681999999994,363.37284 332.33383999999995,364.41883 C 332.14759,365.48353000000003 331.94375999999994,366.56379000000004 331.71734999999995,367.65736000000004 C 331.48751999999996,368.76753 331.25088999999997,369.89378000000005 330.66666,372.16667000000007 C 330.36913999999996,373.3240800000001 330.03592,374.4820700000001 329.69916,375.64369000000005 C 329.36258,376.80476000000004 329.0181,377.95756000000006 328.68668,379.10267000000005 C 328.35978,380.23222000000004 328.02326000000005,381.33784 327.5,383.50001000000003 C 327.25027,384.53196 327.04761,385.54093 326.87601,386.52400000000006 C 326.70917000000003,387.47972000000004 326.57541000000003,388.41569000000004 326.46799,389.3320100000001 C 326.36289,390.2284600000001 326.27425999999997,391.1096600000001 326.16666,392.8333500000001 C 326.11395999999996,393.6777400000001 326.08225,394.5119400000001 326.05267999999995,395.3338400000001 C 326.02359999999993,396.14262000000014 326.0012899999999,396.9375400000001 325.97468,397.7173500000001 C 325.94858999999997,398.4812000000001 325.93161999999995,399.22898000000015 325.83335,400.66666000000015 C 325.78616999999997,401.35688000000016 325.71949,402.0243600000002 325.64735,402.66767000000016 C 325.57804000000004,403.28574000000015 325.50117,403.87516000000016 325.42533000000003,404.43467000000015 C 325.35377000000005,404.96250000000015 325.27750000000003,405.4551500000002 325.16666000000004,406.33335000000017 C 325.11869,406.71351000000016 325.08301000000006,407.0571400000002 325.05716,407.36683000000016 C 325.03394000000003,407.64518000000015 325.0192,407.89579000000015 325.01068000000004,408.1213500000002 C 325.00299,408.3247800000002 325.00067,408.50935000000015 325.00000000000006,408.8333600000002 C 324.99969000000004,408.9782000000002 325.00000000000006,409.2338400000002 325.00000000000006,409.2338400000002 C 324.99100000000004,408.3428500000002 325.01401000000004,407.5257700000002 324.4293200000001,406.6026800000002 C 324.0373800000001,405.98388000000017 323.44592000000006,405.4449000000002 322.3909900000001,405.10985000000016 C 321.7480500000001,404.9056600000002 320.6661100000001,404.83623000000017 319.6766700000001,404.64736000000016 C 318.9162300000001,404.50222000000014 318.5098600000001,404.40371000000016 317.62668000000014,404.28402000000017 C 316.16159000000016,404.08547000000016 315.63107000000014,404.0754900000002 314.53867000000014,404.03603000000015 C 313.9793100000001,404.01583000000016 312.8481800000001,404.00328000000013 312.28266000000013,404.00136000000015 C 311.16666000000015,403.99758000000014 310.0866800000001,404.0000200000001 309.56168000000014,404.0000200000001 C 308.54166000000015,404.0000200000001 307.56168000000014,404.0000200000001 307.08667000000014,404.0000200000001 C 305.72198000000014,404.0000200000001 304.87067000000013,404.0000200000001 304.08334000000013,404.0000200000001 C 303.0573400000001,404.0000200000001 302.05465000000015,404.0000200000001 301.25634000000014,404.0000200000001 C 300.34731000000016,404.0000200000001 298.6666500000001,403.18267000000014 298.6666500000001,404.0000200000001 C 298.6666500000001,404.6880400000001 300.1751600000001,404.0000200000001 301.1666500000001,404.0000200000001 C 301.88665000000015,404.0000200000001 303.0416500000001,404.0000200000001 303.4466500000001,404.0000200000001 C 304.28665000000007,404.0000200000001 305.6213300000001,404.0000200000001 306.5526700000001,404.0000200000001 C 307.5000000000001,404.0000200000001 307.9746700000001,404.0000200000001 308.9159800000001,404.0000200000001 C 310.2785000000001,404.0000200000001 311.1428200000001,404.0000200000001 311.5639900000001,404.0000200000001 C 312.3893400000001,404.0000200000001 313.19866000000013,404.0000200000001 314.3999900000001,404.0000200000001 C 315.20001000000013,404.0000200000001 316.0000000000001,404.0000200000001 316.7999800000001,404.0000200000001 C 317.99999000000014,404.0000200000001 318.79867000000013,404.0000200000001 319.5893200000001,404.0000200000001 C 320.7428200000001,404.0000200000001 321.8333400000001,404.0000200000001 322.5133300000001,404.0000200000001 C 323.45834000000013,404.0000200000001 324.0386300000001,403.97329000000013 325.3120100000001,404.00136000000015 C 326.1178900000001,404.01912000000016 326.9639900000001,404.44444000000016 327.0000000000001,405.32152000000013 C 327.0286900000001,406.0202800000001 327.0000000000001,407.0000200000001 327.0000000000001,407.82134000000013 C 327.0000000000001,408.77068000000014 327.0000000000001,409.6430300000001 327.0000000000001,410.67202000000015 C 327.0000000000001,411.42135000000013 327.0000000000001,412.20269000000013 327.0000000000001,413.40020000000015 C 327.0000000000001,414.2045200000002 327.0000000000001,415.0208700000002 327.0000000000001,415.85720000000015 C 327.0000000000001,416.28536000000014 327.0000000000001,417.62170000000015 327.0000000000001,418.56170000000014 C 327.0000000000001,419.0466900000001 327.0000000000001,420.0466900000001 327.0000000000001,421.08669000000015 C 327.0000000000001,422.16668000000016 327.0000000000001,422.72152000000017 327.0000000000001,423.85720000000015 C 327.0000000000001,424.43603000000013 327.0000000000001,425.6106800000002 327.0000000000001,426.2045200000002 C 327.0000000000001,426.8013500000002 327.0000000000001,428.5995100000002 327.0000000000001,429.19604000000015 C 327.0000000000001,429.78652000000017 327.0000000000001,430.93753000000015 327.0000000000001,431.49203000000017 C 327.0000000000001,432.5440300000002 327.0000000000001,433.93521000000015 327.0000000000001,434.71954000000017 C 327.0000000000001,435.3958700000002 327.0000000000001,436.22537000000017 327.0000000000001,437.3386800000002 C 327.0000000000001,438.16668000000016 327.0000000000001,439.06671000000017 327.0000000000001,438.7573500000002 C 327.0000000000001,437.7996800000002 327.0000000000001,436.95837000000023 327.0000000000001,436.2293700000002 C 327.0000000000001,435.35654000000017 327.0000000000001,434.29602000000017 327.0000000000001,433.4707000000002 C 327.0000000000001,433.0195300000002 327.0000000000001,431.5000300000002 327.0000000000001,430.9355100000002 C 327.0000000000001,430.34402000000017 327.0000000000001,429.0920300000002 327.0000000000001,428.4375200000002 C 327.0000000000001,427.7680300000002 326.9999400000001,427.0865100000002 327.0000000000001,426.3960200000002 C 327.0001800000001,424.3003500000002 326.9996000000001,423.6026500000002 327.0090000000001,422.90902000000017 C 327.01831000000016,422.2213100000002 327.03149000000013,421.5411300000002 327.07199000000014,420.87203000000017 C 327.15085000000016,419.5693600000002 327.3197000000001,418.33068000000014 327.44266000000016,417.74318000000017 C 327.67920000000015,416.61305000000016 327.84848000000017,416.08205000000015 328.14933000000013,415.0573600000002 C 328.29362000000015,414.5658700000002 328.69523000000015,413.1715000000002 328.82935000000015,412.2880100000002 C 328.9549000000001,411.46098000000023 328.98722000000015,410.68288000000024 328.99735000000015,409.9720000000002 C 329.01447000000013,408.77080000000024 329.01426000000015,408.0415800000002 329.00001000000015,407.00002000000023 C 328.98933000000017,406.22115000000025 328.5802400000001,405.14104000000026 327.8146800000001,405.0213500000002 C 326.8936600000001,404.8773700000002 326.16862000000015,405.0714000000002 325.2280100000001,405.5707000000002 C 324.7043000000001,405.84868000000023 323.8409600000001,406.4211900000002 322.8333600000001,407.00002000000023 C 322.1195800000001,407.41005000000024 321.36318000000006,407.8091300000002 320.97917000000007,408.02086000000025 C 320.19374000000005,408.45397000000025 318.99324000000007,409.1563900000003 318.2000300000001,409.6866900000003 C 317.7965000000001,409.9565000000003 316.9964500000001,410.5370600000003 316.6000200000001,410.8466900000003 C 315.7926200000001,411.4773400000003 314.99403000000007,412.16008000000033 314.2026800000001,412.8826700000003 C 313.8059800000001,413.2448800000003 313.0392600000001,413.9767300000003 312.3143400000001,414.6901700000003 C 311.96952000000005,415.0295300000003 311.0428600000001,415.9571700000003 310.50984000000005,416.4901900000003 C 309.78535000000005,417.2146800000003 309.31441000000007,417.67980000000034 308.57884000000007,418.4215300000003 C 308.04973000000007,418.9551000000003 307.47706000000005,419.48528000000033 306.76936000000006,420.4013600000003 C 306.0998000000001,421.2680600000003 305.80986000000007,421.8910100000003 305.38536000000005,422.7280200000003 L 304.83336,423.6666800000003 L 304.34734000000003,424.1811800000003 L 303.65270000000004,424.63385000000034" fill="none" id="svg_9" stroke="#000" stroke-width="2"/>
</svg>
