<?xml version="1.0" ?>
<svg baseProfile="full" height="480" version="1.1" width="640" xmlns="http://www.w3.org/2000/svg" xmlns:ev="http://www.w3.org/2001/xml-events" xmlns:xlink="http://www.w3.org/1999/xlink">
	<defs/>
	<path d="M 236.0,241.0 C 236.0,244.88533 236.0,245.636 236.0,246.41066 C 236.0,247.20134000000002 236.0,248.40033 236.0,249.209 C 236.0,250.04167 236.0,250.91434 236.0,251.37067 C 236.0,252.84301 236.0,253.37067 236.0,254.47199999999998 C 236.0,255.04166999999998 236.0,256.20901 236.0,256.80267 C 236.0,258.0 236.0,259.19867 236.0,259.7955 C 236.0,260.38934 236.0,261.56399 236.0,262.14282000000003 C 236.0,262.71466000000004 236.0,264.37817 236.0,264.91199 C 236.0,265.94266 236.0,266.91733 236.0,267.38117 C 236.0,268.66666 236.0,269.78116 236.0,270.43751 C 236.0,271.31201999999996 236.23483,272.36954999999995 235.92799,273.11735 C 235.54891999999998,274.04118 234.48265999999998,273.99867 233.60399999999998,274.00001 C 232.49999999999997,274.00169 231.944,274.00001 230.93749999999997,274.00001 C 230.18648999999996,274.00001 228.99999999999997,274.00001 228.19866999999996,274.00001 C 227.38932999999997,274.00001 226.56399999999996,274.00001 225.71465999999995,274.00001 C 224.83332999999996,274.00001 223.91332999999995,274.00001 222.95333999999994,274.00001 C 222.45832999999993,274.00001 221.43833999999995,273.99989 220.91332999999995,274.00001 C 219.27866999999995,274.00034999999997 218.71508999999995,273.98368 217.57465999999994,274.04267 C 216.99932999999993,274.07241999999997 216.41248999999993,274.08038999999997 215.28399999999993,274.34135 C 214.15019999999993,274.60355999999996 213.07926999999992,275.12904 212.55715999999993,275.42417 C 212.0296299999999,275.72236 211.51453999999993,276.05344 210.50449999999992,276.76084000000003 C 209.99813999999992,277.11548000000005 209.00664999999992,277.84324000000004 208.0026699999999,278.51200000000006 C 207.5122099999999,278.83869000000004 207.0295299999999,279.15644000000003 206.07200999999992,279.71735000000007 C 205.17814999999993,280.24097000000006 204.33622999999992,280.67276000000004 203.57200999999992,281.03202000000005 C 202.88522999999992,281.35487000000006 201.91709999999992,281.73765000000003 201.16667999999993,282.33335000000005 C 200.40129999999994,282.94092000000006 200.05067999999991,283.52634000000006 199.40133999999992,284.232 C 198.63905999999992,285.06037000000003 197.63717999999992,285.53571000000005 197.9653399999999,285.96399 C 198.45883999999992,286.60806 199.64335999999992,286.01157 200.68266999999992,285.98932 C 201.45756999999992,285.97272000000004 202.28975999999992,285.93179000000003 203.16667999999993,285.83334 C 204.08752999999993,285.72995000000003 205.03827999999993,285.55267000000003 205.52083999999994,285.4375 C 206.50958999999995,285.20154 207.01904999999994,285.07251 208.50034999999994,284.45715 C 209.00922999999995,284.24575 210.02134999999993,283.73867 210.54168999999993,283.47915 C 211.07201999999992,283.21465 212.16180999999995,282.66219 213.33334999999994,282.16665 C 213.93812999999994,281.91085 214.56344999999993,281.67605000000003 215.84001999999995,281.23599 C 216.47760999999994,281.0162 217.11363999999995,280.81155 217.73752999999996,280.60449 C 218.34697999999997,280.40222 220.03723999999997,279.80411 220.54535999999996,279.60132 C 221.50568999999996,279.21808 222.40128999999996,278.8291 222.84369999999996,278.65717 C 224.15886999999995,278.14603 225.08084999999997,277.87961 225.54819999999995,277.76166 C 226.47576999999995,277.52759000000003 227.38626999999994,277.33399000000003 228.66669999999996,277.16666 C 229.42472999999995,277.06759999999997 230.11339999999996,277.08033 230.97669999999997,276.94732999999997 C 232.04189999999997,276.78320999999994 232.64513999999997,276.19928 233.52085999999997,276.02084999999994 C 234.46485999999996,275.82849999999996 235.34736999999998,276.0000099999999 236.25185999999997,276.0000099999999 C 236.96935999999997,276.0000099999999 238.01183999999998,275.9722099999999 238.78536999999997,276.0360199999999 C 239.83788999999996,276.1228699999999 240.57190999999997,276.3500499999999 241.36936999999998,276.68268999999987 C 242.03106999999997,276.95871999999986 243.30686999999998,277.54321999999985 243.82268999999997,277.7693599999999 C 244.37216999999995,278.0102399999999 245.54189999999997,278.5203999999999 246.14536999999996,278.7853499999999 C 246.75123999999997,279.0513699999999 247.35538999999994,279.30701999999985 249.03553999999997,280.0786799999999 C 249.54548999999997,280.3128999999999 250.03490999999997,280.5347299999999 250.93752999999998,281.0000099999999 C 251.79273999999998,281.4408399999999 252.21071999999998,281.66052999999994 253.39986,282.42133999999993 C 254.20579999999998,282.9369699999999 254.97987999999998,283.4990699999999 255.36402999999999,283.77466999999996 C 256.11602999999997,284.31415999999996 257.17841,285.07847 257.83838,285.54285999999996 C 258.45840999999996,285.97914 259.05553999999995,286.37379 260.07851999999997,287.19969 C 260.55102,287.58115999999995 261.10576999999995,288.28821999999997 262.19985999999994,288.75699999999995 C 262.93972999999994,289.07401999999996 264.50890999999996,289.57355999999993 264.56319999999994,288.99100999999996 C 264.63823999999994,288.18567999999993 262.78826999999995,288.56937999999997 261.91417999999993,288.27216999999996 C 261.41750999999994,288.10328999999996 260.8856799999999,287.91907999999995 259.7775199999999,287.41950999999995 C 259.18767999999994,287.1535799999999 257.9942899999999,286.50928999999996 257.4000199999999,286.13569999999993 C 256.7940299999999,285.7547199999999 256.19557999999995,285.3391899999999 255.60002999999992,284.9026999999999 C 254.3908199999999,284.01643999999993 253.80122999999992,283.54209999999995 253.2000199999999,283.08134999999993 C 252.00242999999992,282.1635299999999 251.4025499999999,281.71879999999993 250.8026999999999,281.2880199999999 C 250.2111799999999,280.8631799999999 249.6233199999999,280.4544899999999 249.0416999999999,280.0625299999999 C 248.4739199999999,279.6798999999999 247.3761599999999,278.9630399999999 246.3333599999999,278.33336999999995 C 245.84554999999992,278.03880999999996 244.91755999999992,277.50841999999994 244.0416999999999,277.04167999999993 C 243.6228799999999,276.8184999999999 242.8029799999999,276.40214999999995 241.60002999999992,275.80000999999993 C 240.8002099999999,275.39964999999995 240.40002999999993,275.2000299999999 239.60002999999992,274.80000999999993 C 238.8000399999999,274.4000199999999 237.6017799999999,273.79777999999993 236.81352999999993,273.40901999999994 C 236.06372999999994,273.03923999999995 235.37152999999992,272.71434999999997 234.50001999999992,272.33336999999995 L 233.56251999999992,272.04167999999993 L 232.69551999999993,272.00001999999995" fill="none" id="svg_10" stroke="#000" stroke-width="2"/>
</svg>
