<?xml version="1.0" ?>
<svg baseProfile="full" height="480" version="1.1" width="640" xmlns="http://www.w3.org/2000/svg" xmlns:ev="http://www.w3.org/2001/xml-events" xmlns:xlink="http://www.w3.org/1999/xlink">
	<defs/>
	<path d="M 387.0,303.0 C 384.88666,296.31201 384.36383,295.70071 384.08533,294.79999 C 383.81833,293.93649999999997 383.94077,292.90427 384.61066,292.42533 C 385.33048,291.91065 386.21549,291.73215 386.79999,291.19867999999997 C 387.51968999999997,290.54179 388.37284,290.20462999999995 389.20000999999996,289.71466999999996 C 389.88086,289.31137999999993 390.43154999999996,288.62631999999996 390.91732999999994,287.79999999999995 C 391.37429999999995,287.02268999999995 392.05434999999994,286.49799999999993 392.60265999999996,286.11466999999993 C 393.41982999999993,285.54337999999996 393.97995,284.9757199999999 394.59999999999997,284.48401999999993 C 395.56579,283.7181499999999 396.22682999999995,283.4987299999999 397.11465,282.7986899999999 C 397.74597,282.3008899999999 398.21272999999997,281.5215599999999 398.59999999999997,280.7893499999999 C 399.01372999999995,280.0071199999999 399.45333,279.2231599999999 399.71464999999995,278.4000099999999 C 400.02531999999997,277.4214299999999 399.99314999999996,276.5850999999999 400.22148999999996,275.7999999999999 C 400.46002,274.9798099999999 401.01448999999997,274.0069399999999 401.29549999999995,273.4000099999999 C 401.66191999999995,272.6085999999999 401.9476599999999,271.6023999999999 401.98931999999996,270.7999999999999 C 402.04116999999997,269.8009499999999 401.99999999999994,268.9583599999999 401.99999999999994,268.2293499999999 C 401.99999999999994,267.0320199999999 401.99999999999994,266.3493499999999 401.99999999999994,265.6506799999999 C 401.99999999999994,264.3333599999999 401.99999999999994,263.5143599999999 401.99999999999994,262.82132999999993 C 401.99999999999994,261.79984999999994 401.99999999999994,260.97916999999995 401.99999999999994,260.31467999999995 C 401.99999999999994,259.3133399999999 401.99999999999994,258.45835999999997 401.99999999999994,257.51334999999995 C 401.99999999999994,256.47867999999994 401.99999999999994,255.74733999999995 401.99999999999994,255.00000999999995 C 401.99999999999994,254.25267999999994 401.99999999999994,252.82167999999996 401.99999999999994,252.16167999999993 C 401.99999999999994,251.24668999999994 401.99999999999994,250.16667999999993 401.99999999999994,249.45267999999993 C 401.99999999999994,248.54734999999994 402.01198999999997,247.57810999999992 401.98931999999996,246.75333999999992 C 401.97281,246.15303999999992 401.84274,244.8317399999999 401.71599999999995,244.11600999999993 C 401.58440999999993,243.37288999999993 401.40810999999997,242.62842999999992 401.28398999999996,241.88401999999994 C 401.05162999999993,240.49035999999992 401.04479,239.83417999999995 400.94731999999993,238.90450999999993 C 400.85225999999994,237.99782999999994 400.64259999999996,237.10117999999994 400.42531999999994,236.20000999999993 C 400.28084999999993,235.60076999999993 400.06587999999994,234.40255999999994 400.02083999999996,233.52083999999994 C 399.99206,232.95767999999993 399.99999999999994,231.68534999999994 399.99999999999994,231.02083999999994 C 399.99999999999994,230.00000999999995 399.99999999999994,229.17867999999993 399.99999999999994,228.48567999999995 C 399.99999999999994,227.35733999999994 399.99999999999994,226.69467999999995 399.99999999999994,225.65066999999993 C 399.99999999999994,224.96800999999994 399.99999999999994,223.77200999999994 399.99999999999994,223.06249999999994 C 399.99999999999994,222.02132999999995 399.99999999999994,221.11599999999996 399.99999999999994,220.34282999999994 C 399.99999999999994,219.39865999999992 399.99944999999997,218.39998999999995 399.99999999999994,217.59999999999994 C 400.00066999999996,216.59865999999994 399.95736999999997,215.96928999999994 400.1666599999999,214.83331999999993 C 400.3132099999999,214.03795999999994 400.59786999999994,213.22064999999992 400.80132999999995,212.68399999999994 C 401.27077999999995,211.44568999999993 401.59786999999994,210.80960999999994 401.99999999999994,209.99998999999994 C 402.39788999999996,209.19892999999993 402.7999899999999,208.39999999999995 403.20000999999996,207.59999999999994 C 403.59999999999997,206.80000999999993 404.01451999999995,206.00699999999995 404.38933999999995,205.21065999999993 C 404.72786999999994,204.49140999999995 404.96755999999993,203.47183999999993 405.16664999999995,202.66666999999993 C 405.3985799999999,201.72860999999992 405.68721999999997,200.94139999999993 405.99998999999997,200.16666999999993 C 406.37922999999995,199.2273399999999 406.71184,198.61028999999994 407.19865999999996,197.59999999999994 C 407.48616999999996,197.00333999999992 407.83146999999997,195.99965999999995 407.97466,195.21065999999993 C 408.1642,194.16622999999993 408.62816,193.54767999999993 408.8785,192.67865999999992 C 409.11668999999995,191.8517899999999 408.82158,190.83189999999993 409.16664999999995,189.9999899999999 C 409.4919699999999,189.21562999999992 409.97914999999995,188.4999899999999 409.99998999999997,187.5999999999999 L 409.99998999999997,186.6999899999999" fill="none" id="svg_9" stroke="#000" stroke-width="2"/>
</svg>
