<?xml version="1.0" ?>
<svg baseProfile="full" height="480" version="1.1" width="640" xmlns="http://www.w3.org/2000/svg" xmlns:ev="http://www.w3.org/2001/xml-events" xmlns:xlink="http://www.w3.org/1999/xlink">
	<defs/>
	<path d="M 359.0,342.0 C 361.36401,343.41068 361.99838,344.16766 362.41068,344.836 C 362.88349,345.60248 363.4827,346.40363 364.02085,347.02084 C 364.40265999999997,347.45877 365.20774,348.41583 365.60001,348.95715 C 366.21219,349.80197000000004 366.59884999999997,350.4021 367.20002,351.29983 C 367.59925,351.89601999999996 368.18971,352.77166 368.60001,353.31466 C 369.18564,354.08968 369.78959,354.78634 370.45716,355.3955 C 371.1457,356.02377 371.96287,356.60168000000004 372.52085,357.04165 C 373.11063,357.50668 374.01162999999997,358.32253000000003 374.60001,358.96798 C 375.21231,359.63964 375.4881,360.01046 376.10001,360.69466 C 376.98307,361.68206 377.58793,362.24422 378.20002,362.72799 C 378.78873,363.19329 379.39936,363.59826 380.3,364.20000999999996 C 381.19938,364.80092999999994 381.8,365.20000999999996 382.40001,365.59999999999997 C 383.3,366.20000999999996 384.20003,366.80001 384.8,367.20000999999996 C 385.40001,367.60002999999995 386.29615,368.20572 386.90001,368.59549 C 387.79439,369.17278999999996 388.38408,369.54697 389.3,369.97848999999997 C 390.18574,370.39579 390.79811,370.59490999999997 392.00001000000003,370.99999999999994 C 392.59773,371.20144999999997 393.47068,371.51162999999997 394.31468,371.7146599999999 C 395.3062,371.95318999999995 396.18931000000003,371.9946599999999 397.20018,371.99999999999994 C 398.02085999999997,372.0043299999999 398.68534999999997,371.99999999999994 399.68269,371.9986599999999 L 400.47916999999995,371.9791599999999 L 401.66666999999995,371.83334999999994 L 402.31733999999994,371.56399999999996" fill="none" id="svg_9" stroke="#000" stroke-width="2"/>
</svg>
