<?xml version="1.0" ?>
<svg baseProfile="full" height="480" version="1.1" width="640" xmlns="http://www.w3.org/2000/svg" xmlns:ev="http://www.w3.org/2001/xml-events" xmlns:xlink="http://www.w3.org/1999/xlink">
	<defs/>
	<path d="M 264.78333,215.5 C 264.78333,213.8 264.78269,212.90001 264.78333,211.97917 C 264.784,211.01733000000002 264.8671,210.2281 265.35801,209.48533 C 265.80357,208.8112 265.92866,208.05406 266.49933999999996,207.41599 C 267.08228999999994,206.76423 267.81523,206.37346 268.38334,205.88933 C 269.1287,205.25415 270.02711,204.84509 270.66218,204.27849 C 271.33484999999996,203.67835 271.67767999999995,203.15042 272.61668,202.49999 C 273.16828999999996,202.11789 273.82316,201.35531 274.17267999999996,200.67466 C 274.67578999999995,199.69483 274.97531999999995,199.11173 275.49933999999996,198.41599 C 275.96320999999995,197.80011 275.99307999999996,196.94092 276.66202999999996,196.27866 C 277.27817999999996,195.66866 277.79828999999995,195.11242000000001 278.35801,194.47466 C 278.87543999999997,193.88508 279.56811999999996,193.38595 280.30418,192.99999 C 281.08838999999995,192.58877999999999 281.97409999999996,192.671 282.89802,192.49732 C 283.82678999999996,192.32273 284.28333,191.49999 284.88318999999996,190.74283 L 285.61668,190.33333" fill="none" id="svg_9" stroke="#000" stroke-width="2"/>
</svg>
