<?xml version="1.0" ?>
<svg baseProfile="full" height="480" version="1.1" width="640" xmlns="http://www.w3.org/2000/svg" xmlns:ev="http://www.w3.org/2001/xml-events" xmlns:xlink="http://www.w3.org/1999/xlink">
	<defs/>
	<path d="M 436.0,282.0 C 437.71466,283.08401 438.26447,283.78195 439.0,284.16666 C 439.68732,284.52612999999997 440.51047,285.16186999999996 441.17465,285.63599 C 441.8631,286.12745 442.34515,286.83759 442.79866999999996,287.51599 C 443.37639999999993,288.38025 444.10078999999996,289.09920999999997 444.59999999999997,289.59999999999997 C 445.29661999999996,290.29884999999996 446.28405,291.24931999999995 445.66664999999995,291.83333999999996 C 445.13154999999995,292.3395 443.82493999999997,291.68425999999994 443.31465999999995,291.43066 C 442.46419999999995,291.00799 441.91527999999994,290.60888 440.7001599999999,290.02151 C 440.11342999999994,289.73791 439.23412999999994,289.41551999999996 438.6853299999999,289.20131999999995 C 437.6831899999999,288.81014999999996 436.8729499999999,288.35326999999995 435.8813399999999,288.08401 C 435.14717999999993,287.88464 434.23356999999993,287.78735 433.3026699999999,287.56399 C 432.6023799999999,287.39596 431.8777099999999,287.21124 430.8216499999999,286.89999 C 429.8431599999999,286.6116 429.2379699999999,286.4227 428.16664999999995,286.0 C 427.45559,285.71945 426.67430999999993,285.31644 425.75264999999996,285.05267 C 424.84401999999994,284.79263 424.18179,284.52263999999997 423.39867999999996,284.28398999999996 C 422.42226999999997,283.98643999999996 421.46759,283.95766999999995 420.62532999999996,283.57466999999997 C 419.81433,283.2059 418.97914999999995,283.02083999999996 417.99998999999997,282.99998999999997 L 417.22132999999997,282.98931 L 416.33333,282.83333 L 415.77849,282.12147999999996" fill="none" id="svg_11" stroke="#000" stroke-width="2"/>
</svg>
