<?xml version="1.0" ?>
<svg baseProfile="full" height="480" version="1.1" width="640" xmlns="http://www.w3.org/2000/svg" xmlns:ev="http://www.w3.org/2001/xml-events" xmlns:xlink="http://www.w3.org/1999/xlink">
	<defs/>
	<path d="M 292.01334,257.02252 C 294.57584,257.02252 295.68006,257.01568 296.34934000000004,257.02518 C 297.11481000000003,257.03603999999996 297.92512000000005,257.02103 298.67734,257.19318 C 299.90625,257.47443 300.38559000000004,258.10703 301.18,258.85587 C 301.81245,259.45203 302.48087,259.76542 303.43449,260.34369 C 303.96482,260.66528 304.71778,261.2265 305.68,261.68917999999996 C 306.34229,262.00762999999995 307.35407,262.16509999999994 308.02317,262.38419 C 308.80836,262.64126999999996 309.86118,263.16852 310.56068,263.67521 C 311.25364,264.17716 311.66056,264.60481 312.69599,265.13587 C 313.46836,265.53199 314.22751,265.82123 315.2035,265.96537 C 316.17118,266.10828 316.88349,265.97971 317.78535,266.19318 C 318.67305,266.40328999999997 319.32478,266.71921 320.36268,267.20786 C 321.04948,267.53119 321.97459000000003,267.9932 322.75199000000003,268.39718999999997 C 323.46534,268.76788999999997 324.434,269.34522 324.9705,269.67521 C 325.8227,270.19938 326.4001,270.56802999999996 327.31352000000004,271.0012 C 328.21065000000004,271.42665 328.85200000000003,271.64128 329.49867000000006,271.90653 C 330.53908000000007,272.33329 331.2660000000001,272.67521 332.01335000000006,273.02252999999996 C 332.7606600000001,273.36985 333.84035000000006,273.87174 334.5280000000001,274.13586999999995 C 335.48424000000006,274.50314999999995 336.09816000000006,274.72265999999996 337.3133400000001,274.90103999999997 C 338.2078100000001,275.03236 338.8133100000001,275.01718999999997 340.0133500000001,275.02252999999996 C 340.9133400000001,275.02653 341.5133500000001,275.02252999999996 342.4133400000001,275.02252999999996 C 343.6133200000001,275.02252999999996 344.2133300000001,275.02252999999996 345.1133200000001,275.02252999999996 C 346.3133300000001,275.02252999999996 346.9133400000001,275.02252999999996 347.8133300000001,275.02252999999996 C 349.01334000000014,275.02252999999996 349.6133200000001,275.02252999999996 350.51334000000014,275.02252999999996 C 351.41333000000014,275.02252999999996 352.31488000000013,274.98704 353.2133200000001,275.04385999999994 C 354.11630000000014,275.10095999999993 355.0315000000001,275.3152799999999 355.9088200000001,275.73236999999995 C 356.5061100000001,276.01633999999996 357.3169900000001,276.55862999999994 358.0919900000001,277.00085999999993 C 358.77867000000015,277.3927099999999 359.6869600000001,277.79696999999993 360.69868000000014,277.9371999999999 C 361.52870000000013,278.0522499999999 362.1178400000001,278.0202699999999 363.3133300000001,278.0225299999999 C 364.2133200000001,278.0242099999999 364.8133600000001,278.0164599999999 366.01334000000014,278.0225299999999 C 366.90436000000017,278.0270499999999 367.80857000000015,277.9199899999999 368.6800000000001,278.3558699999999 C 369.4384500000001,278.7352599999999 369.82120000000015,279.62008999999995 370.6795100000001,279.90820999999994 C 371.4939900000001,280.18161999999995 372.6561600000001,280.02252999999996 373.3231600000001,280.02252999999996 C 374.0341600000001,280.02252999999996 374.7651800000001,280.01795 376.19184000000007,280.02268 C 376.85618000000005,280.02488 377.8053300000001,280.0326 378.41199000000006,280.10785 C 379.62082000000004,280.25777999999997 380.22772000000003,280.4307 381.11331000000007,280.78418 C 382.02994000000007,281.15006 382.9144300000001,281.68628 383.5549900000001,282.00167999999996 C 384.21985000000006,282.32903999999996 385.34073000000006,282.72317999999996 386.1813300000001,282.85186999999996 C 387.0592600000001,282.98627 387.5129300000001,282.99402 388.4079800000001,283.01351999999997 C 389.6797100000001,283.04123 390.4426500000001,283.02252 391.47164000000015,283.02252 C 392.1043300000002,283.02252 393.3133100000002,283.02252 394.21331000000015,283.02252 C 394.81332000000015,283.02252 396.01333000000017,283.02252 396.91781000000015,283.02252 C 397.53414000000015,283.02252 398.49865000000017,283.02252 399.53448000000014,283.02267 L 400.2615000000001,283.027 L 400.99249000000015,283.04336 L 402.04400000000015,283.10784" fill="none" id="svg_13" stroke="#000" stroke-width="2"/>
</svg>
