<?xml version="1.0" ?>
<svg baseProfile="full" height="480" version="1.1" width="640" xmlns="http://www.w3.org/2000/svg" xmlns:ev="http://www.w3.org/2001/xml-events" xmlns:xlink="http://www.w3.org/1999/xlink">
	<defs/>
	<path d="M 306.0,288.0 C 307.0,289.16666 307.61523,289.64111 308.32132,290.10001 C 308.98184000000003,290.5293 310.00177,291.07285 310.58933,291.60001 C 311.22657000000004,292.17173 311.72226,292.89063 312.50001000000003,293.47916 C 313.23735000000005,294.03711 314.30473,293.81412 314.91600000000005,294.284 C 315.59639000000004,294.80701 316.08409000000006,295.41452 316.6473500000001,296.05268 C 317.17289000000005,296.64808 317.9717500000001,297.21171 318.6000200000001,297.57468 C 319.4456600000001,298.06324 319.9284800000001,298.60703 320.5680100000001,299.20002 C 321.21483000000006,299.79975 321.76009000000005,300.65049 322.5208600000001,300.97916 C 323.3281400000001,301.32791 324.3501800000001,300.92694 324.97469000000007,301.42533 C 325.5826600000001,301.91053 326.40001000000007,301.99933999999996 327.30001000000004,302.00001 C 328.19869000000006,302.00068 328.74764000000005,302.62769999999995 329.52087000000006,302.97916999999995 C 330.32144000000005,303.34306 331.30001000000004,303.00001 332.19870000000003,303.00136 L 332.94736,303.35267999999996 L 333.43604,303.96401" fill="none" id="svg_12" stroke="#000" stroke-width="2"/>
</svg>
