<?xml version="1.0" ?>
<svg baseProfile="full" height="480" version="1.1" width="640" xmlns="http://www.w3.org/2000/svg" xmlns:ev="http://www.w3.org/2001/xml-events" xmlns:xlink="http://www.w3.org/1999/xlink">
	<defs/>
	<path d="M 319.0,133.0 C 324.71399,146.17717 324.92801,146.84946 325.65601,147.43866 C 326.29278999999997,147.95403 327.25336,147.61731 327.79999,147.08533 C 328.4733,146.43006 329.0098,145.33786 329.19968,144.91451 C 329.61249,143.99418 329.79419,143.49318 330.12799,142.46534 C 330.29343,141.95596 330.69629000000003,140.50513 330.82800000000003,139.65601 C 330.94345000000004,138.91159000000002 330.97894,137.90741 330.83334,137.0 C 330.68759,136.09167 330.48736,135.49739 330.19867,134.60001 C 329.90842,133.69782 329.61066,132.832 329.35717999999997,132.07151 C 329.00003,131.00001 328.74764999999996,130.13001 328.43749999999994,129.45834 C 328.0693099999999,128.66094999999999 327.48720999999995,127.88919999999999 326.76000999999997,127.25734 C 326.30431999999996,126.86138 325.3891,126.12266 324.49999999999994,126.00001 C 323.73128999999994,125.89397000000001 322.82192999999995,125.82258 321.8879999999999,126.07201 C 321.0591099999999,126.29338 320.2745999999999,126.86129000000001 319.6653399999999,127.25734 C 319.0360699999999,127.66641 318.1957999999999,128.37928 317.7079999999999,129.24668 C 317.3842699999999,129.82233 316.99153999999993,131.1644 316.8013199999999,131.88667999999998 C 316.60176999999993,132.64439 316.41770999999994,133.44360999999998 316.28532999999993,134.28667 C 316.1475699999999,135.16389999999998 316.06666999999993,136.08067999999997 316.04664999999994,137.004 C 316.02717999999993,137.90245 315.97547999999995,138.34466999999998 316.22132999999997,139.83516 C 316.31879999999995,140.42609 316.7372,141.23903 317.02531999999997,142.15866 C 317.31480999999997,143.08266 317.34562999999997,143.77185 317.54164999999995,144.52083 C 317.74510999999995,145.29836 318.2429399999999,146.68366999999998 318.81465999999995,147.24533 C 319.36479999999995,147.7858 320.32124999999996,148.19281999999998 321.02083999999996,148.5 C 321.96374,148.91402 322.78918,148.93576 323.48531999999994,148.43066 C 324.25554999999997,147.87180999999998 325.01433999999995,147.18603 325.59099999999995,146.74365999999998 C 326.14232999999996,146.32071999999997 326.78819999999996,145.24148999999997 326.88568,144.63298999999998 C 326.99300999999997,143.96295999999998 326.99866,142.88133 327.0,141.82133 C 327.00082,141.15266 327.0,140.17466 327.0,139.516 C 327.0,138.47916999999998 327.0,137.40666 327.0,136.73333 C 327.0,135.66666 326.82516,134.75205 326.43066,134.14399 C 325.97429999999997,133.44062 325.46051,132.60705000000002 325.02133,131.70033 C 324.73819,131.11578 324.50615999999997,130.18272000000002 323.83333999999996,129.33333000000002 C 323.27223999999995,128.62496000000002 322.48400999999996,128.54401000000001 321.77966,129.11966 L 321.59033,130.00366" fill="none" id="svg_9" stroke="#000" stroke-width="2"/>
</svg>
