<?xml version="1.0" ?>
<svg baseProfile="full" height="480" version="1.1" width="640" xmlns="http://www.w3.org/2000/svg" xmlns:ev="http://www.w3.org/2001/xml-events" xmlns:xlink="http://www.w3.org/1999/xlink">
	<defs/>
	<path d="M 310.0,244.0 C 311.63599,243.38933 312.35095,242.94533 312.97916,242.5 C 313.87771999999995,241.86301 314.30645999999996,241.21228 315.19867,240.99867 C 315.94849,240.81915 316.43546,240.018 317.29999,240.0 C 318.19982999999996,239.98126 319.10001,240.0 320.0,240.0 C 320.79999,240.0 321.70151,240.05449 322.5,240.5 C 323.297,240.94467 323.8555,241.49612 324.28534,242.2 C 324.69779,242.87537999999998 325.52643,243.47457 326.19867,244.2 C 326.73657,244.78045999999998 327.72943,246.00275 326.96398999999997,246.528 C 326.37917999999996,246.92928999999998 325.81854,245.49049 324.89998999999995,245.12151 C 324.05727999999993,244.78299 323.32158999999996,244.71476 322.71599999999995,244.084 C 322.16600999999997,243.51114 321.56444999999997,243.02043 320.59999999999997,243.0 C 319.70467999999994,242.98103 319.19313999999997,242.32947 318.47914999999995,242.02083 C 317.67195999999996,241.67189 316.70000999999996,242.0 315.79997999999995,242.0 C 314.89998999999995,242.0 313.9545499999999,241.8062 313.19999999999993,242.08533 C 312.33039999999994,242.40702 312.15611999999993,243.46405 311.71464999999995,244.2 C 311.30754999999994,244.87861999999998 310.49998999999997,245.5 309.79997999999995,246.19867 L 309.19999999999993,246.71465999999998" fill="none" id="svg_10" stroke="#000" stroke-width="2"/>
</svg>
