<?xml version="1.0" ?>
<svg baseProfile="full" height="480" version="1.1" width="640" xmlns="http://www.w3.org/2000/svg" xmlns:ev="http://www.w3.org/2001/xml-events" xmlns:xlink="http://www.w3.org/1999/xlink">
	<defs/>
	<path d="M 258.0,185.0 C 258.0,194.66667 257.99738,195.55669 258.004,196.42667 C 258.01047,197.27671 258.02396000000005,198.10703 258.0625,198.91668 C 258.10013,199.70709000000002 258.15067,200.47932 258.25601,201.22668000000002 C 258.45984,202.67291 258.84387,204.03161000000003 259.06698,204.68118 C 259.28677,205.32107000000002 259.53488,205.94041 259.79598,206.54268000000002 C 260.30547,207.71782000000002 260.83628999999996,208.83202000000003 261.07866,209.37885000000003 C 261.55312000000004,210.44930000000002 261.7758,210.98487000000003 261.99999,211.52085000000002 C 262.45504000000005,212.60886000000002 262.68187,213.17023000000003 263.16665,214.33335000000002 C 263.67776,215.55962000000002 263.93917,216.17385000000002 264.19332,216.77602000000002 L 264.43749,217.35419000000002 L 264.87581,218.39452000000003" fill="none" id="svg_9" stroke="#000" stroke-width="2"/>
</svg>
