<?xml version="1.0" ?>
<svg baseProfile="full" height="480" version="1.1" width="640" xmlns="http://www.w3.org/2000/svg" xmlns:ev="http://www.w3.org/2001/xml-events" xmlns:xlink="http://www.w3.org/1999/xlink">
	<defs/>
	<path d="M 241.0,297.0 C 242.0,298.0 242.54761,298.44608 243.28534,298.91467 C 243.97679,299.35388 244.96031,299.23031 245.7,299.64734 C 246.44501,300.06737999999996 247.04778,300.65531 247.7045,301.05267 C 248.49423,301.53051 249.12363,302.30383 249.79999999999998,302.71466 C 250.57613999999998,303.18607 251.07056999999998,303.76363999999995 251.99999999999997,304.0 C 252.82361999999998,304.20944 253.30066999999997,304.82114 254.09983999999997,305.00015 C 254.94347999999997,305.18911 255.10302999999996,306.23864000000003 255.80132999999998,306.71466000000004 C 256.55062999999996,307.22543 257.07059,307.76364 258.0,308.00000000000006 C 258.82364,308.20944000000003 259.23645,308.8436300000001 259.97198,309.16934000000003 C 260.78601,309.52981000000005 261.4826,310.03091 262.23199,310.432 C 263.16122,310.92934 263.73886,311.60830000000004 264.436,311.96398 C 265.20245,312.355 265.87716,312.71664 266.61064999999996,312.98931 C 267.42526,313.29213999999996 268.13039,313.45669 268.71599999999995,314.08401 C 269.35857999999996,314.77236 270.09999999999997,315.0 270.99999999999994,315.0 C 271.7999899999999,315.0 272.3871199999999,315.31451 273.1666599999999,315.83334 C 273.87411999999995,316.30423 274.8344199999999,315.80404000000004 275.70001999999994,316.05716 C 276.5776399999999,316.31381 277.29864999999995,316.97134 278.20001999999994,317.0 C 279.09955999999994,317.02863 279.97174999999993,317.2117 280.60000999999994,317.57468 C 281.44564999999994,318.06324 281.93661999999995,318.77481 282.70449999999994,318.99552 C 283.5651899999999,319.2429 284.5129999999999,318.85795 285.3999999999999,319.01069 C 286.23315999999994,319.15415 286.9873999999999,319.91499 287.7999899999999,319.99867 C 288.6952799999999,320.09089 289.60000999999994,320.00001000000003 290.49999999999994,320.00001000000003 C 291.39998999999995,320.00001000000003 292.35015999999996,319.92695000000003 292.97466999999995,320.42533000000003 C 293.58263999999997,320.91053000000005 294.39998999999995,321.00001000000003 295.2999899999999,321.00001000000003 C 296.2000099999999,321.00001000000003 297.2308999999999,320.75736 297.9159899999999,321.28401 C 298.5466399999999,321.76878000000005 299.3228799999999,321.98475 300.1249999999999,322.02086 C 300.6909199999999,322.04631 301.8337999999999,322.16277 302.8186599999999,322.28401 C 303.3590999999999,322.35054 304.4791499999999,322.50004 305.0373199999999,322.57469000000003 C 306.0946599999999,322.71608000000003 307.3694699999999,322.89454 307.95699999999994,322.94285 C 308.9980499999999,323.02845 309.8001699999999,322.982 310.70000999999996,323.00001000000003 C 311.60054999999994,323.01802000000004 312.31032999999996,323.61811000000006 313.20000999999996,323.91468000000003 C 314.05764999999997,324.20054000000005 314.99999999999994,324.00001000000003 315.79999,324.00001000000003 C 316.70000999999996,324.00001000000003 317.60001,324.00001000000003 318.5,324.00001000000003 C 319.39999,324.00001000000003 320.35016,323.92695000000003 320.97467,324.42533000000003 C 321.58264,324.91053000000005 322.5,325.00001000000003 323.39999,325.00001000000003 C 324.29998,325.00001000000003 325.20861,324.87599000000006 326.09982,325.00016000000005 C 326.9017,325.11188000000004 327.28238000000005,325.95722000000006 328.20001,326.00001000000003 C 329.09903,326.04194 329.96094,326.23933000000005 330.67199,326.57469000000003 C 331.50604,326.96806000000004 332.25027,326.97835000000003 333.23199,326.99867 C 334.18997,327.01851 335.16799,327.16325 335.82534,327.42534 C 336.83544,327.82811 337.38827,328.19203 338.08401,328.71602 C 338.69989,329.17986 339.76617,329.03105 340.65716,329.35268 C 341.41278,329.62545 342.20696,329.83763000000005 343.164,330.02535 C 343.98596,330.18657 344.40810999999997,330.85158 345.02533,331.56402 C 345.55222,332.17217000000005 346.67859,331.65698000000003 347.47916,332.02087 C 348.25237999999996,332.37234 348.70301,333.05535 349.5,333.50003 C 350.29849,333.94552999999996 351.2897,333.85125999999997 351.94733,334.35269 C 352.62418,334.86877 353.00208000000003,335.60962 353.7045,336.0527 C 354.47641,336.53961000000004 355.34096999999997,336.88855 355.97467,337.42535000000004 C 356.56818,337.92813 357.44684,337.94677 358.02084,338.52087000000006 C 358.63809000000003,339.1382100000001 359.22873000000004,339.53762000000006 360.11465000000004,340.20004000000006 C 360.72845000000007,340.65896000000004 361.36547,341.44290000000007 362.09982,341.87869000000006 C 362.88348,342.34375000000006 363.35266,342.9473500000001 364.0,343.50003000000004 C 364.64734,344.0527 365.07059,344.76367000000005 366.0,345.00003000000004 C 366.82364,345.20947 367.5072,345.60904000000005 367.94284,346.35721000000007 C 368.36731,347.0861500000001 368.48505,347.82605000000007 369.0,348.5208800000001 C 369.51035,349.2094800000001 369.99905,350.0009800000001 370.5,350.50004000000007 C 371.20801,351.2053900000001 371.84293,351.7227000000001 372.39734,352.05604000000005 C 373.63000999999997,352.7971600000001 374.18744,353.0530800000001 374.76867999999996,353.3580400000001 C 375.37676999999996,353.67710000000005 376.00140999999996,353.9973500000001 377.23132999999996,354.64204000000007 C 377.81269,354.94676000000004 378.84779,355.47593000000006 379.60400999999996,355.94538000000006 C 380.39081,356.43378000000007 381.15838999999994,357.17521000000005 381.65268999999995,357.64820000000003 C 382.33609999999993,358.30216 383.1600399999999,358.72944 384.00001,359.16669 C 384.64363,359.50171 385.55769,359.93802 386.02533999999997,360.61069000000003 C 386.52786999999995,361.3335 387.24609999999996,361.80002 388.00001,362.16669 C 388.76365,362.53809 389.45615999999995,363.1279 390.05267999999995,363.64737 C 390.70631,364.21655000000004 391.50515999999993,364.5156 392.20001999999994,365.20004 C 392.80450999999994,365.79547 393.3858399999999,366.4115 394.1986799999999,366.91601 C 394.9350699999999,367.37307000000004 395.4814899999999,367.72567000000004 396.2955099999999,368.00451000000004 C 397.1103299999999,368.28362000000004 397.4493799999999,369.13839 398.0840199999999,369.71603000000005 C 398.73068999999987,370.30459 399.3312699999999,370.85748000000007 399.9746799999999,371.42535000000004 C 400.56909999999993,371.94998000000004 401.3240799999999,372.33194000000003 402.0000099999999,373.00003000000004 C 402.58566999999994,373.57892000000004 402.9758399999999,374.38840000000005 403.5000099999999,375.00003000000004 C 404.05389999999994,375.64633000000003 404.9121799999999,375.63568000000004 405.6428299999999,376.05719000000005 C 406.4539299999999,376.5251200000001 407.0000099999999,377.00003000000004 407.7999999999999,377.00003000000004 C 408.7000199999999,377.00003000000004 409.6000199999999,377.00003000000004 410.5000099999999,377.00003000000004 C 411.3999999999999,377.00003000000004 412.34845999999993,377.07089 412.9746799999999,376.57471000000004 C 413.63974999999994,376.04773000000006 413.9871599999999,375.29544000000004 414.0000099999999,374.40003 C 414.0126399999999,373.52073 414.7748199999999,373.06342 414.99551999999994,372.29554 C 415.24289999999996,371.43485000000004 415.0000099999999,370.50004 415.0000099999999,369.60004000000004 C 415.0000099999999,368.70005000000003 415.0000099999999,367.80002 415.0000099999999,366.90003 C 415.0000099999999,366.00004 415.0000099999999,365.20005000000003 415.0000099999999,364.30002 C 415.0000099999999,363.40003 415.0022399999999,362.50003000000004 415.0000099999999,361.60004000000004 C 414.99774999999994,360.70005000000003 414.7321599999999,359.78455 414.1986799999999,359.20005000000003 C 413.54178999999993,358.48035000000004 413.2165299999999,357.70634 412.6473499999999,357.05271000000005 C 412.1278799999999,356.4561800000001 411.5297699999999,355.76765000000006 411.1666699999999,355.00004000000007 C 410.8295999999999,354.2874500000001 410.7806499999999,353.2555900000001 410.1986799999999,352.5693800000001 C 409.6347199999999,351.9043700000001 409.3985699999999,351.2858700000001 408.9639999999999,350.4360500000001 C 408.6076799999999,349.73921000000007 408.4027199999999,349.0622400000001 407.91467999999986,348.2853800000001 C 407.44973999999985,347.5453300000001 406.8333499999999,347.00004000000007 406.29550999999987,346.3572200000001 L 405.5208499999999,346.00004000000007" fill="none" id="svg_10" stroke="#000" stroke-width="2"/>
</svg>
