<?xml version="1.0" ?>
<svg baseProfile="full" height="480" version="1.1" width="640" xmlns="http://www.w3.org/2000/svg" xmlns:ev="http://www.w3.org/2001/xml-events" xmlns:xlink="http://www.w3.org/1999/xlink">
	<defs/>
	<path d="M 370.0,371.0 C 372.68399,372.20132 373.51904,372.4809 374.31601,372.88535 C 375.09964,373.28302 375.7673,373.87049 376.56699000000003,374.34733 C 377.47055000000006,374.88612 378.24787000000003,375.12879 379.07599000000005,375.36402 C 379.92005000000006,375.6038 380.75739000000004,375.76660999999996 381.8356600000001,376.10017 C 382.4388100000001,376.28675 383.21591000000006,376.61496999999997 384.16665000000006,377.16667 C 384.9812600000001,377.63939 385.57342000000006,378.03935 386.27599000000004,378.40452 C 387.48375000000004,379.03227 387.96056000000004,379.20954 388.96700000000004,379.60002 C 389.49541000000005,379.80503999999996 390.04110000000003,380.00156999999996 391.15633,380.40000999999995 C 391.71837000000005,380.60081999999994 392.83571,380.99363999999997 393.91466,381.40135 C 394.44402,381.60139 395.48128,382.01581999999996 395.98931000000005,382.23600999999996 C 397.00304000000006,382.67537 398.00182000000007,383.16312999999997 398.49999,383.42118999999997 C 399.50371,383.94109 399.99566000000004,384.22301 400.99999,384.73868999999996 C 401.49788,384.99433999999997 402.99605,385.67737999999997 403.49999,385.85718999999995 C 404.49267000000003,386.21140999999994 404.99883,386.34284999999994 405.99999,386.61466999999993 C 406.49944000000005,386.7502599999999 408.00213,387.15989999999994 408.49999,387.3216699999999 C 409.50451000000004,387.64805999999993 410.00518000000005,387.8339399999999 410.99999,388.24668999999994 C 411.50271000000004,388.45527999999996 413.00283,389.16117999999994 413.49984,389.42152999999996 C 414.50137,389.94615999999996 414.99187,390.23164999999995 415.47915,390.52085999999997 C 416.44799,391.0959 416.92288,391.38901999999996 418.2785,392.29985 C 418.71734000000004,392.59471 419.56326,393.19041 419.97915,393.47917 C 420.79406,394.04497000000003 421.99682,394.83858000000004 422.40017,395.0785 C 423.19839,395.55329 424.01693,395.98707 424.85717,396.39552000000003 C 425.28341,396.6027 426.62017,397.20213 427.08266,397.39869000000004 C 428.01270999999997,397.79395000000005 428.93773,398.16633 429.39016,398.34284 C 430.66411999999997,398.83988000000005 431.43721999999997,399.10547 432.14932,399.396 C 432.85611,399.68436 433.58679,400.02445 434.74316,400.76435000000004 C 435.17938,401.04346000000004 436.08248,401.69758 436.5625,402.04166000000004 C 437.05716,402.39624000000003 438.07788,403.13419000000005 439.16666,403.83335000000005 C 439.7165,404.1864100000001 440.27905999999996,404.5259500000001 441.43600999999995,405.1640100000001 C 442.01773999999995,405.4848400000001 442.60974999999996,405.7911200000001 443.20449999999994,406.0955000000001 C 443.8004199999999,406.40046000000007 444.99850999999995,407.0030300000001 446.19866999999994,407.59733000000006 C 446.7947699999999,407.89250000000004 447.38695999999993,408.18379000000004 447.9791599999999,408.45835000000005 C 449.13821999999993,408.99570000000006 449.7046499999999,409.2558700000001 450.83334999999994,409.66666000000004 C 451.9031099999999,410.05600000000004 452.43310999999994,410.19275000000005 453.4375099999999,410.47916000000004 C 453.9169999999999,410.61588000000006 454.84802999999994,410.83014000000003 456.05682999999993,411.32132 C 456.79477999999995,411.62119 457.4400099999999,411.99579 458.31201999999996,412.51599 C 459.08106,412.97476 459.77173999999997,413.39554 460.50982999999997,413.69549 C 461.62451999999996,414.14846 462.31301999999994,414.30487 463.04166,414.49999 C 463.80764999999997,414.70513 465.00183,414.99285000000003 465.80532999999997,415.204 C 466.64464999999996,415.42455 467.54569,415.70311 468.02865999999995,415.87148 C 468.54315999999994,416.05083 470.2866599999999,416.76137 470.9373499999999,417.05199000000005 C 471.61639999999994,417.35527 472.3115899999999,417.67693 473.02084999999994,417.99999 C 473.73425999999995,418.32494 474.4430899999999,418.64998 475.14932999999996,418.94799 C 476.49366,419.51525 477.12904,419.75454 478.31949999999995,420.12850000000003 C 478.86798999999996,420.30080000000004 479.89563999999996,420.56948000000006 480.3721699999999,420.68648 C 481.66565999999995,421.00408000000004 482.4226799999999,421.19731 483.3541599999999,421.45833 L 484.09615999999994,421.58116 L 483.60265999999996,421.34267" fill="none" id="svg_9" stroke="#000" stroke-width="2"/>
</svg>
