<?xml version="1.0" ?>
<svg baseProfile="full" height="480" version="1.1" width="640" xmlns="http://www.w3.org/2000/svg" xmlns:ev="http://www.w3.org/2001/xml-events" xmlns:xlink="http://www.w3.org/1999/xlink">
	<defs/>
	<path d="M 461.5,214.89999 C 463.35733,213.51066 464.00797,213.19757 465.14316,213.02133 C 465.8143,212.91714000000002 466.56314000000003,212.90883 467.36618000000004,212.84733 C 468.66785000000004,212.74764 469.58514,212.62014 470.05267000000003,212.53832 C 471.00250000000005,212.37211 471.95047000000005,212.14959 472.41598000000005,212.01333 C 473.78823000000006,211.61164 474.63592000000006,211.25222 475.04266000000007,211.07466 C 475.8214700000001,210.73466 477.1653100000001,210.06398 477.7306500000001,209.78534 C 478.4774200000001,209.41727999999998 479.1769700000001,209.08682 480.1839900000001,208.7 C 480.9955700000001,208.38823 481.82715000000013,208.12673999999998 482.8133200000001,207.7 C 483.46618000000007,207.41747999999998 484.29498000000007,206.84152999999998 485.0000000000001,206.42084 C 485.7845200000001,205.95272 486.5734900000001,206.01161 487.5000000000001,205.56667 C 488.37738000000013,205.14531 488.7203700000001,204.65959999999998 489.6666600000001,203.89999999999998 C 490.1797200000001,203.48816999999997 491.0596700000001,202.87488 491.7188500000001,202.44284999999996 C 492.0705000000001,202.21236999999996 493.2436000000001,201.47926999999996 494.1143300000001,200.93834999999996 C 494.57231000000013,200.65382999999997 495.5227200000001,200.05547999999996 496.0090100000001,199.73834999999997 C 496.5040700000001,199.41549999999998 498.0025700000001,198.38202999999996 498.4986600000001,198.01333999999997 C 498.9982900000001,197.64202999999998 499.5001200000001,197.26632999999998 500.4639900000001,196.45333999999997 C 500.94837000000007,196.04478999999998 501.4328000000001,195.63189999999997 502.3333400000001,194.73333999999997 C 503.2331500000001,193.83549999999997 503.64407000000006,193.35294999999996 504.0639900000001,192.88532999999998 C 504.8917800000001,191.96353 505.2880800000001,191.50294 505.69866000000013,191.06933999999998 C 506.87902000000014,189.82279999999997 507.29043000000013,189.45958 508.10000000000014,188.77201 C 508.49542000000014,188.43618999999998 509.29867000000013,187.8073 509.70001000000013,187.50268 C 510.89566000000013,186.5951 511.68866000000014,186.00729 512.0679900000001,185.71067 C 512.7961400000002,185.1413 513.4880300000001,184.62855 514.2356500000001,183.82151 C 514.8402000000001,183.16888999999998 515.2062300000001,182.47628 515.8214700000001,181.70016999999999 C 516.3075500000001,181.087 516.8703600000001,180.5111 517.90002,179.784 C 518.48193,179.37311 519.1336600000001,179.05774 520.0955200000001,178.24733 C 520.68573,177.75005000000002 521.2525600000001,176.96747 522.0000000000001,176.44167000000002 C 522.7546400000001,175.91079000000002 523.5476100000001,176.05269 524.4786400000002,175.6785 C 525.1789600000002,175.39704 525.9586800000002,174.64273 526.7107000000002,174.336 C 527.6718200000003,173.94397 528.5163600000002,174.03324 529.3333200000002,173.73334000000003 C 530.1856800000002,173.42044 530.7950500000002,172.74672000000004 531.5208200000002,172.42084000000003 C 532.4707100000002,171.99433000000002 533.3089700000002,171.97785000000002 534.0999800000002,171.81600000000003 C 535.1113900000001,171.60906000000003 535.8623700000002,171.22480000000004 536.6146900000002,170.70135000000002 C 537.3180000000002,170.21200000000002 538.6036400000003,170.31446000000003 538.9583200000002,169.4 C 539.1474700000002,168.91242 537.9725400000002,168.83242 537.3901400000002,168.1955 C 536.8196400000002,167.57161000000002 536.1017500000002,167.21509 535.1013200000002,166.98267 C 534.3427800000002,166.80645 533.3369800000003,166.36200000000002 532.9106500000003,165.67867 C 532.4447100000002,164.93178 532.0996800000003,164.10016000000002 531.7999900000002,163.5 C 531.3007800000003,162.50026 530.8700600000002,161.71924 530.6666900000002,160.89999 C 530.4714400000003,160.11328 530.5420600000002,159.29893 530.4954900000002,158.3045 C 530.4523400000003,157.38279 530.0376700000003,156.54344 529.5000100000002,155.73333 C 529.0788700000002,155.09884 528.5523800000002,154.08871 527.8640200000002,153.92132999999998 C 526.8759200000002,153.68106999999998 526.1526600000002,153.89997999999997 525.1253100000002,153.89997999999997 C 524.1785300000003,153.89997999999997 523.4791900000002,153.89352999999997 522.5000000000002,153.89997999999997 C 521.6892700000002,153.90531999999996 520.8054200000003,153.94388999999998 519.8159800000002,154.18531999999996 C 518.9909100000002,154.38662999999997 518.1711400000002,154.67034999999996 517.4215100000002,155.00031999999996 C 516.5034800000002,155.40439999999995 515.8585200000002,155.82988999999995 515.0999800000002,156.66932999999995 C 514.6748700000002,157.13975999999994 514.1180500000002,157.96601999999996 513.5000000000002,158.73332999999994 C 512.9210800000002,159.45202999999995 512.5304600000002,159.86786999999993 511.6666600000002,160.73332999999994 C 511.1417900000002,161.25918999999993 510.0664100000002,162.08175999999995 509.6214900000002,161.45715999999993 C 509.18594000000024,160.84568999999993 509.3547400000002,159.73587999999992 509.6706500000002,159.01599999999993 C 510.0479400000002,158.15620999999993 510.84231000000017,157.54306999999994 511.4788200000002,156.92132999999993 C 512.1514300000002,156.26435999999993 512.8170200000002,155.70944999999992 513.5143400000002,155.25181999999992 C 514.3038900000001,154.73365999999993 514.8790900000001,154.39051999999992 516.0999700000002,154.06799999999993 C 516.6911000000002,153.91183999999993 517.6199300000002,153.86247999999992 518.4999900000003,153.56665999999993 C 519.4263800000002,153.25525999999994 520.0062200000002,152.86826999999994 520.5999700000002,152.49098999999993 C 521.8129800000003,151.72024999999994 522.3954400000002,151.29725999999994 522.9999900000003,150.92082999999994 C 523.5955700000003,150.54997999999995 524.7993700000003,149.92064999999994 525.3909800000002,149.65265999999994 C 526.2275900000002,149.27368999999993 527.2148300000002,148.77971999999994 527.6901700000002,148.23833999999994 C 528.1671000000002,147.69519999999994 528.6620900000001,146.73046999999994 529.1526300000002,145.94733999999994 C 529.4967500000001,145.39795999999993 530.0182900000002,144.58539999999994 530.6160100000002,143.58666999999994 C 531.0015100000002,142.94256999999993 531.3647300000002,142.36625999999995 532.1481800000001,141.64815999999993 C 532.7751900000002,141.07341999999994 533.3525900000002,140.13610999999995 533.4791700000002,139.39998999999995 C 533.6044100000001,138.67140999999995 534.0208000000002,137.79224999999994 534.3784600000001,136.79999999999995 C 534.6193000000002,136.13184999999996 534.6080100000001,135.38512999999995 534.0568000000002,136.22132999999997 C 533.6887600000002,136.77967999999996 533.0790200000001,137.32181999999997 532.0784700000002,137.87833999999998 C 531.2948400000001,138.31420999999997 530.7013900000002,138.51084999999998 529.4999800000002,138.73333999999997 C 528.9058600000002,138.84335999999996 528.0209800000001,138.88836999999998 527.1853400000001,138.89866999999998 C 526.1854000000001,138.91099999999997 525.3106500000001,138.89999999999998 524.29996,138.89999999999998 C 523.4999700000001,138.89999999999998 522.48734,139.02014999999997 521.7212900000001,138.87866999999997 C 520.7957500000001,138.70772999999997 520.69901,137.81534999999997 520.2784800000001,136.92166999999998 C 519.9302100000001,136.18165 518.8973800000001,135.90082999999998 518.4473,135.19549999999998 C 517.95639,134.42613999999998 517.62333,133.54878999999997 517.0746200000001,132.92533999999998 C 516.5602200000001,132.34087999999997 515.8706400000001,131.73914999999997 514.9999700000001,131.92083999999997 C 514.1545100000001,132.09725999999998 514.03677,134.20658999999998 513.2186600000001,133.81333999999998 C 512.8606300000001,133.64123999999998 513.9727500000001,133.03419999999997 514.4493100000001,132.08533999999997 C 514.8687400000001,131.25023 515.6061100000001,131.05910999999998 516.3332800000001,130.56665999999998 C 517.1018300000001,130.04617 517.45694,129.09929999999997 518.2999500000001,128.90266 C 519.1783700000001,128.69774999999998 520.0114400000001,128.41984 520.7954300000001,127.95266 C 521.4483200000001,127.56361 520.9793300000001,126.91041999999999 520.0999300000001,126.89998999999999 C 519.2000300000001,126.88932999999999 518.2999400000001,126.89998999999999 517.3999800000001,126.89998999999999 C 516.4999600000001,126.89998999999999 515.6895900000002,126.79991999999999 514.8639700000001,126.93598999999999 C 513.9896400000001,127.08008999999998 513.2709500000001,127.55371999999998 512.0784500000001,127.77848999999999 C 511.5483000000001,127.87840999999999 510.68932000000007,127.89168 509.4999600000001,127.89998999999999 C 508.5999700000001,127.90628 507.9959000000001,127.87822999999999 507.0999700000001,127.98531999999999 C 505.8930900000001,128.12958999999998 505.2902200000001,128.29607 504.4571200000001,128.66164999999998 C 503.6437700000001,129.01854999999998 502.98327000000006,129.57608 502.1616200000001,130.19015 C 501.4030400000001,130.75708999999998 500.6022300000001,130.94666999999998 499.84280000000007,131.25715 C 499.0799800000001,131.56902 498.09146000000004,132.08167 497.52081000000004,132.39997 C 496.50271000000004,132.96787 495.90237,133.54104999999998 495.17831000000007,133.99998 C 494.4826300000001,134.44091 493.8203700000001,134.71814999999998 492.8146300000001,135.09999 C 491.9847000000001,135.41508 491.39486000000005,135.59814 490.19979000000006,136.00015 C 489.59515000000005,136.20354999999998 488.65990000000005,136.52566 488.01464000000004,136.78531999999998 C 486.97149,137.20508999999998 486.23446000000007,137.55386 485.45830000000007,137.94164999999998 C 484.63414000000006,138.35341999999997 484.20873000000006,138.57841 482.87880000000007,139.32115 C 482.4156700000001,139.57979999999998 481.48613000000006,140.11614999999998 481.02080000000007,140.37914999999998 C 480.1114400000001,140.89309999999998 479.68270000000007,141.15756 478.44295000000005,141.75715999999997 C 477.72173000000004,142.10597999999996 476.71529000000004,142.50118999999998 476.10262000000006,142.78265999999996 C 475.19094000000007,143.20149999999995 474.3131900000001,143.71293999999997 473.77196000000004,144.07464999999996 C 472.81856000000005,144.71180999999996 472.14919000000003,145.24082999999996 471.40013000000005,145.99998999999997 C 470.92094000000003,146.48562999999996 470.49995000000007,147.37915999999996 469.88930000000005,147.88931999999997 L 469.02080000000007,147.92082999999997 L 468.4472800000001,148.54732999999996 L 467.7839500000001,148.98400999999996" fill="none" id="svg_9" stroke="#000" stroke-width="2"/>
</svg>
