<?xml version="1.0" ?>
<svg baseProfile="full" height="480" version="1.1" width="640" xmlns="http://www.w3.org/2000/svg" xmlns:ev="http://www.w3.org/2001/xml-events" xmlns:xlink="http://www.w3.org/1999/xlink">
	<defs/>
	<path d="M 256.0,329.0 C 257.0,330.08334 257.06683,330.77634 257.284,331.97333 C 257.41498,332.69527999999997 257.58249,333.4921 257.64734,333.92334 C 257.85886,335.32974 257.91992,336.36908 257.94284,336.90981999999997 C 257.98993,338.02045 257.99167,338.58529999999996 257.99550999999997,339.15182 C 258.00694999999996,340.83331 257.99999999999994,341.37832 257.99999999999994,342.43832 C 257.99999999999994,342.95333 257.99999999999994,343.95333 257.99999999999994,344.91333 C 257.99999999999994,345.83333999999996 257.99999999999994,346.71335 257.99999999999994,347.55334 C 257.99999999999994,348.35332999999997 257.98061999999993,349.11352 258.00265999999993,350.51198999999997 C 258.01260999999994,351.14284999999995 257.92184999999995,352.08714999999995 258.56533999999994,353.02801 C 259.05267999999995,353.74056 258.91680999999994,353.98956 257.79983999999996,353.99998999999997 C 256.97918999999996,354.00764999999996 256.31467,353.99998999999997 255.31333999999995,353.99998999999997 C 254.45832999999996,353.99998999999997 253.83832999999996,353.99998999999997 252.47849999999994,353.99998999999997 C 251.74282999999994,353.99998999999997 250.97916999999995,353.99998999999997 250.19549999999995,353.99998999999997 C 248.99999999999994,353.99998999999997 248.20133999999996,353.99998999999997 247.41065999999995,353.99998999999997 C 246.63599999999994,353.99998999999997 245.88532999999995,353.99998999999997 244.48665999999994,353.99998999999997 C 243.84665999999996,353.99998999999997 242.96166999999994,353.99998999999997 241.92148999999995,353.99998999999997 C 241.02081999999996,353.99998999999997 239.99999999999994,353.99998999999997 239.21065999999996,353.99998999999997 C 238.48532999999995,353.99998999999997 237.66666999999995,353.99998999999997 238.35465999999997,353.99998999999997 C 239.17516999999998,353.99998999999997 240.16666999999995,353.99998999999997 241.25716999999997,353.99998999999997 C 242.02082999999996,353.99998999999997 242.80449999999996,353.99998999999997 243.99999999999997,353.99998999999997 C 244.80132999999998,353.99998999999997 245.61066999999997,353.99998999999997 246.43599999999998,353.99998999999997 C 246.85715999999996,353.99998999999997 248.16666999999998,353.99998999999997 249.08266999999998,353.99998999999997 C 250.01466,353.99998999999997 250.47916999999998,353.99998999999997 251.39016999999998,353.99998999999997 C 252.66666999999998,353.99998999999997 253.428,353.99998999999997 254.43749999999997,353.99998999999997 C 255.31199999999998,353.99998999999997 256.31467,353.99998999999997 257.18933,353.99998999999997 C 258.0,353.99998999999997 258.95333999999997,353.99784999999997 258.9375,354.04164999999995 C 258.59735,354.98247999999995 257.49213,355.0720099999999 257.03067,355.6879799999999 C 256.47229,356.43333999999993 255.99094,356.9667299999999 255.4375,357.5208399999999 C 254.84412,358.1149599999999 253.83881,359.0066199999999 253.11734,359.5973199999999 C 252.75455000000002,359.8943499999999 252.02844000000002,360.4687799999999 251.30983,360.98565999999994 C 250.34337,361.6808199999999 249.76265,362.0214899999999 249.02083000000002,362.49999999999994 C 248.31079000000003,362.95800999999994 247.31156000000001,363.76171999999997 246.78534000000002,364.25066999999996 C 246.25545000000002,364.74303999999995 245.81487,365.28032999999994 244.80983,366.18114999999995 C 244.27478,366.66072999999994 242.84477,367.36339999999996 242.74133,366.71199999999993 C 242.60644,365.86259999999993 244.21243,365.4669999999999 244.6045,364.9811699999999 C 245.03455,364.4482999999999 245.45258,363.8305699999999 246.16666,362.8333399999999 C 246.68203,362.1136099999999 247.23098000000002,361.3707899999999 247.81066,360.6253299999999 C 248.102,360.2506999999999 248.99206,359.1595699999999 249.59865000000002,358.4866599999999 C 250.18176000000003,357.8397799999999 250.47568,357.5382699999999 251.04282000000003,356.9616699999999 C 252.07189000000002,355.9154699999999 252.56520000000003,355.4899899999999 253.11733000000004,354.84667999999994 C 253.79715000000004,354.05456999999996 253.78527000000003,353.0622599999999 253.02799000000005,353.0013399999999 C 252.23322000000005,352.9374399999999 251.21465000000003,352.9999999999999 250.16666000000004,352.9999999999999 C 249.45716000000004,352.9999999999999 248.60450000000003,352.9999999999999 247.60132000000004,352.9999999999999 L 246.83598000000003,352.9999999999999 L 245.88531000000003,352.9999999999999" fill="none" id="svg_9" stroke="#000" stroke-width="2"/>
</svg>
