<?xml version="1.0" ?>
<svg baseProfile="full" height="480" version="1.1" width="640" xmlns="http://www.w3.org/2000/svg" xmlns:ev="http://www.w3.org/2001/xml-events" xmlns:xlink="http://www.w3.org/1999/xlink">
	<defs/>
	<path d="M 271.0,116.0 C 272.22134,116.87867 272.78931,117.38222 273.00134,118.19866999999999 C 273.20923000000005,118.99911999999999 273.98956000000004,119.52064999999999 274.0,120.39999999999999 C 274.01068,121.29993999999999 274.0,122.19999999999999 274.0,123.1 C 274.0,124.0 274.41769,124.55438 274.87851,125.22149999999999 C 275.38257,125.95119999999999 275.0,126.99999999999999 275.0,127.80000999999999 C 275.0,128.7 275.24203,129.44835999999998 275.716,130.08400999999998 C 276.28927,130.85281999999998 276.41769,131.55437999999998 276.87851,132.22150999999997 C 277.38257,132.95121999999998 276.67764,134.15380999999996 277.22134,134.87867999999997 C 277.70364,135.52169999999998 277.84066,136.29789999999997 278.35266,136.94733999999997 C 278.83719,137.56195999999997 278.9827,138.31134999999998 279.5,139.00000999999997 C 279.96997,139.62568 280.08948,140.41737999999998 280.57468,141.02533999999997 C 281.07306,141.64983999999998 281.31449,142.38715999999997 281.83335,143.16667999999999 C 282.30424,143.87413999999998 282.63975,144.45589999999999 282.91334,145.284 C 283.13676,145.96026999999998 281.70002,146.0 280.8,146.0 C 279.90001,146.0 278.85112000000004,146.33708 278.16667,145.83333 C 277.51369,145.35273999999998 276.89317,145.11077 276.00001000000003,145.0 C 275.10078000000004,144.88849 274.71766,144.04271 273.8,144.0 C 272.90098,143.95816 272.00001000000003,144.0 271.20002,144.0 C 270.3,144.0 269.4,144.0 268.50001,144.0 C 267.60002,144.0 266.70002,144.00009 265.79999999999995,144.0 C 264.90018999999995,143.99991 264.39136999999994,143.49219 263.64282999999995,143.05716 C 262.9124499999999,142.63269 261.8999999999999,143.0 261.00001,143.0 C 260.20002,143.0 259.29999999999995,143.0 258.4,143.0 C 257.50001,143.0 256.60001,143.0 255.7,143.0 C 254.80001,143.0 253.89999999999998,143.0 253.0,143.0 L 252.2,143.0 L 251.30001,143.0 L 250.39999999999998,143.0" fill="none" id="svg_9" stroke="#000" stroke-width="2"/>
</svg>
