<?xml version="1.0" ?>
<svg baseProfile="full" height="480" version="1.1" width="640" xmlns="http://www.w3.org/2000/svg" xmlns:ev="http://www.w3.org/2001/xml-events" xmlns:xlink="http://www.w3.org/1999/xlink">
	<defs/>
	<path d="M 348.0,270.0 C 348.0,271.79999 348.0,272.70001 348.0,273.60001 C 348.0,274.5 348.0,275.4 348.0,276.29999 C 348.0,277.10033999999996 348.0,277.97067 348.0,278.76935 C 348.0,279.78533999999996 348.0,280.83335 348.0,281.53833 C 348.0,282.33835 348.0,283.36400999999995 348.0,284.29999 C 348.0,285.20000999999996 348.0,286.10001 348.0,287.0 C 348.0,287.79999 348.0,288.70001 348.0,289.60001 C 348.0,290.5 348.0,291.30451 348.0,292.32132 C 348.0,293.0 348.0,293.97849 348.0,295.0 C 348.0,295.79999 348.09851,296.70847 347.97916,297.52084 C 347.83383999999995,298.50995 347.34046,299.18847 347.12149,300.19983 C 346.9552,300.96784 347.0,301.83334 347.0,302.69550000000004 L 347.03601,303.60001000000005 L 347.42532,304.40000000000003 L 347.91467,305.19733" fill="none" id="svg_10" stroke="#000" stroke-width="2"/>
</svg>
