<?xml version="1.0" ?>
<svg baseProfile="full" height="480" version="1.1" width="640" xmlns="http://www.w3.org/2000/svg" xmlns:ev="http://www.w3.org/2001/xml-events" xmlns:xlink="http://www.w3.org/1999/xlink">
	<defs/>
	<path d="M 251.0,329.0 C 251.88667,329.0 252.95323,328.68625 253.75734,329.2215 C 254.34882,329.61521 254.88899,330.3855 255.60266,330.88535 C 256.41913,331.45719 257.00885,331.99479 257.51468,332.60132000000004 C 258.15378,333.36768000000006 258.53677,334.19943000000006 259.10016,334.97867 C 259.59223000000003,335.65924 260.32919000000004,336.31421 260.836,336.84668000000005 C 261.41339,337.45334 262.00662,338.16165000000007 262.60449,338.95715000000007 C 263.02551,339.51736000000005 263.43823,340.1198100000001 264.16665,341.00000000000006 C 264.67111,341.60956000000004 265.22131,342.1932100000001 265.77465,342.76401000000004 C 266.31213,343.31845000000004 267.32555,344.30457000000007 267.75332000000003,344.77466000000004 C 268.35601,345.43701000000004 268.98531,346.41791000000006 269.37466,347.21466000000004 C 269.6297,347.73657000000003 270.12716,348.70776000000006 270.83599,349.34933 C 271.37629999999996,349.83840000000004 272.21538,350.53036000000003 272.59999999999997,351.01434 C 273.22563999999994,351.8016 273.59844,352.40371 274.20016,353.29998 C 274.60345,353.90069 275.22328999999996,354.80972 275.68532999999996,355.39999 C 276.40193999999997,356.31549 276.95266,356.89999 277.49999999999994,357.5 C 278.04732999999993,358.10001 278.8420699999999,358.9931 279.3133199999999,359.59732 C 279.76170999999994,360.17224000000004 280.3241799999999,360.99618000000004 280.8333399999999,361.66666000000004 C 281.3602599999999,362.36054 281.8891899999999,362.96411000000006 282.4853199999999,363.76801000000006 C 283.0255699999999,364.49653000000006 283.3464999999999,365.05201000000005 284.2000099999999,365.85733000000005 C 284.76436999999993,366.3898300000001 285.4491599999999,366.75534000000005 286.2001599999999,367.54300000000006 C 286.8563199999999,368.2311700000001 287.2276299999999,368.82788000000005 287.6853299999999,369.4026800000001 C 288.4081099999999,370.3103900000001 288.9486999999999,370.8950500000001 289.4791499999999,371.4791600000001 C 289.9906599999999,372.04239000000007 290.8563499999999,373.07920000000007 291.3493299999999,373.7640100000001 C 291.8044099999999,374.3961500000001 292.5319499999999,375.2127100000001 293.0053399999999,375.5954900000001 C 293.7334299999999,376.1842400000001 294.6548799999999,376.8486900000001 295.32799999999986,377.3533300000001 C 295.9887699999999,377.8486900000001 296.85481999999985,378.00891000000007 297.59999999999985,378.6106500000001 C 298.25432999999987,379.1390300000001 298.87746999999985,379.73235000000005 299.47914999999983,380.4999900000001 C 299.9886099999998,381.1499500000001 300.33333999999985,381.9999900000001 300.99998999999985,382.4999900000001 L 301.7569799999998,383.1000000000001" fill="none" id="svg_10" stroke="#000" stroke-width="2"/>
</svg>
