<?xml version="1.0" ?>
<svg baseProfile="full" height="480" version="1.1" width="640" xmlns="http://www.w3.org/2000/svg" xmlns:ev="http://www.w3.org/2001/xml-events" xmlns:xlink="http://www.w3.org/1999/xlink">
	<defs/>
	<path d="M 296.0,393.0 C 302.14966,400.47101 302.65433,401.23743 302.875,401.875 C 303.25516,402.97327 303.46002,403.77637 303.716,404.51468 C 304.04538,405.46463 304.38095,406.28708 304.80133,406.88535 C 305.32605,407.63215 305.76913,408.50171 305.97467,409.396 C 306.12421,410.04673 306.28714,411.05399 306.42532,411.69733 C 306.65252,412.75525000000005 306.84433,413.8321 306.91598,414.51334 C 307.01522,415.45688 307.02572,416.32676000000004 307.28399,417.31467000000004 C 307.46072000000004,417.99066000000005 307.8847,418.99320000000006 307.96398,419.78934000000004 C 308.0675,420.82883000000004 307.99998999999997,421.62534000000005 307.99998999999997,422.48267000000004 C 307.99998999999997,423.29017000000005 307.89128999999997,423.70801000000006 308.00133,422.79999000000004 C 308.11280999999997,421.88022 308.80016,421.34622 308.97914,420.47916000000004 C 309.17418,419.53434000000004 308.96617,418.77369000000004 309.22132999999997,417.79984 C 309.441,416.96143 309.77497999999997,416.32462000000004 309.91465999999997,415.31601 C 310.02696,414.50519 309.99931999999995,413.68399 309.99998999999997,412.45715 C 310.00035999999994,411.81067 309.99998999999997,410.79998 309.99998999999997,410.0 C 309.99998999999997,409.0 309.99998999999997,408.21066 309.99998999999997,407.16666 C 309.99998999999997,406.33866 309.99998999999997,405.45734 309.99998999999997,404.5 C 309.99998999999997,403.76801 310.09675999999996,402.78751 309.83333,401.83334 C 309.64501,401.15121000000005 309.15819,400.16864000000004 308.99998999999997,399.47915 C 308.76613,398.45995 308.55397999999997,397.7442 308.35265,396.94817 C 308.09461999999996,395.92803 308.13169999999997,395.00591000000003 307.83333,394.16665 C 307.54558,393.3572 307.01799,392.60055 306.99998999999997,391.70001 C 306.98197999999996,390.80017000000004 306.99998999999997,389.89999 306.99998999999997,389.0 C 306.99998999999997,388.20001 307.05449,387.29849 307.49998999999997,386.5 C 307.94465999999994,385.703 308.56089999999995,385.10828 309.09999999999997,384.33551 C 309.50622,383.7532 309.69937,382.88629 309.99998999999997,382.0 C 310.30382,381.10428 310.46763999999996,380.49557 310.88534,379.68533 C 311.41836,378.65139000000005 311.94692,377.99981 312.51599,377.57199 C 313.38858,376.91598000000005 313.98931999999996,376.38934 314.02083999999996,375.52084 L 314.57466999999997,374.97467 L 315.08401,374.284" fill="none" id="svg_10" stroke="#000" stroke-width="2"/>
</svg>
