<?xml version="1.0" ?>
<svg baseProfile="full" height="480" version="1.1" width="640" xmlns="http://www.w3.org/2000/svg" xmlns:ev="http://www.w3.org/2001/xml-events" xmlns:xlink="http://www.w3.org/1999/xlink">
	<defs/>
	<path d="M 312.0,359.0 C 312.0,363.40033 312.0,364.20901 312.0,365.04166 C 312.0,365.91434 312.0,367.33335 312.0,367.84366 C 312.0,368.93234 312.0,369.51468 312.0,370.125 C 312.0,371.43765 312.0,372.14401 312.0,373.66666 C 312.0,374.48566 312.0,375.33866 312.0,376.21966999999995 C 312.0,377.12269 312.0,378.04166 312.0,378.97067999999996 C 312.0,379.90365999999995 311.99985,380.83466 312.0,382.66666 C 312.00009,383.55649 311.99973,384.42533 312.00449,385.27216 C 312.00912999999997,386.09601 312.01748999999995,386.89590999999996 312.03601,387.67066 C 312.05391999999995,388.41958999999997 312.06728999999996,389.14252 312.16666,390.50001 C 312.21322999999995,391.13617999999997 312.28022,391.74485 312.36167,392.32849999999996 C 312.44044,392.89291999999995 312.52393,393.44138 312.76166,394.48652 C 312.87802,394.99806 313.31861,396.50068 313.48267,396.99867 C 313.8096,397.99101 314.00226,398.47203 314.29017,399.44285 C 314.69975,400.82395 314.77601,401.27546 314.89018,402.13383000000005 C 314.99681,402.93537000000003 315.03006999999997,404.03742000000005 315.22136,404.95686000000006 C 315.38173,405.72773000000007 315.90645,406.82191000000006 315.98933,407.58934000000005 C 316.08714,408.49480000000005 316.00001,409.30901000000006 316.00001,410.33336 C 316.00001,411.00536000000005 316.00001,411.99468 316.00001,412.85735000000005 C 316.00001,413.80535000000003 316.00001,414.76803000000007 316.00001,415.50002000000006 C 316.00001,416.23201000000006 316.00001,417.3958600000001 316.00001,416.93752000000006 C 316.00001,416.00002000000006 316.00001,415.2106800000001 316.00001,414.16668000000004 C 316.00001,413.30453000000006 315.94374,412.29186000000004 315.14533,412.08669000000003 C 314.47855,411.91536 313.15659,412.13228000000004 312.45267,412.35720000000003 C 311.76316,412.57751 310.82871,412.9884 310.04285,413.30901000000006 C 309.18408999999997,413.65938000000006 308.56989,413.92785000000003 307.70035,414.5426800000001 C 307.08728,414.9761500000001 306.53241,415.4904000000001 305.77066,416.23201000000006 C 304.96069,417.02058000000005 304.35287,417.56899000000004 303.90051,418.3211800000001 C 303.43316,419.09834000000006 303.77029,419.9350100000001 304.47067,419.9910100000001 C 305.41866999999996,420.06682000000006 306.25342,420.03035000000006 307.16165,419.88569000000007 C 308.17746,419.7239200000001 308.88907,419.4401000000001 309.63598,419.1386800000001 C 310.41470000000004,418.8244400000001 311.19055000000003,418.4536800000001 312.39950000000005,418.02168000000006 C 313.17999000000003,417.74278000000004 313.93392000000006,417.5273900000001 314.62850000000003,417.36168000000004 C 315.73046000000005,417.09874 316.60433,416.97572 317.48266,417.00136000000003 C 318.29174,417.02498 318.96145,417.70705000000004 318.55715000000004,418.54317000000003 C 318.18725000000006,419.30812000000003 317.79412,419.84694 317.48266,420.48802 C 316.98803000000004,421.50609000000003 316.75375,422.25917 316.47915,423.02086 C 316.19589,423.80663000000004 315.68240000000003,425.00878 315.23065,425.80135 C 314.99820000000005,426.20919000000004 314.47470000000004,427.01806 313.94818000000004,427.85720000000003 C 313.68042,428.28396000000004 312.91534,429.61825000000005 312.68533,430.08404 C 312.22351000000003,431.01928000000004 312.0195,431.49945 311.60449,432.44735000000003 C 310.99804,433.83251 310.80295,434.27963000000005 310.40451,435.13836000000003 C 310.0235,435.95959000000005 309.64078,436.73116000000005 309.16666000000004,437.83337000000006 C 308.87656000000004,438.5077800000001 308.61756,439.13336000000004 308.36167000000006,439.98120000000006 C 308.04798000000005,441.02051000000006 308.09260000000006,441.81119000000007 307.6473500000001,442.63919000000004 C 307.2424400000001,443.39215 307.03096000000005,442.63684000000006 307.33335000000005,441.50003000000004 C 307.53638000000007,440.73675000000003 307.86689000000007,439.91132000000005 308.04166000000004,439.47919 C 308.39859,438.59659 308.99115000000006,437.32871 309.39869000000004,436.56937 C 309.78111000000007,435.85688 310.1854000000001,435.19617 310.51469000000003,434.51736999999997 C 311.01109,433.49411999999995 311.25462000000005,432.75656999999995 311.45835000000005,432.02088 C 311.65409000000005,431.31406 311.90464000000003,430.04508 311.96400000000006,429.25070999999997 C 312.02040000000005,428.49613 312.00001000000003,427.35722 312.00001000000003,426.69019 C 312.00001000000003,425.97918999999996 312.00001000000003,424.88268999999997 312.00001000000003,423.82187 C 312.00001000000003,423.1662 312.00001000000003,422.28269 312.00001000000003,421.14285 C 312.00001000000003,420.38537 311.74302000000006,419.27765 312.08534000000003,418.56936 C 312.42668000000003,417.86303000000004 313.65278,417.9891 314.34733000000006,418.00002 C 315.36439000000007,418.01604000000003 316.12925000000007,418.65133000000003 316.38935000000004,419.28667 C 316.67588000000006,419.98656 316.63776,421.28557 317.44266000000005,421.87886000000003 C 318.03015000000005,422.31190000000004 318.82935000000003,422.56535 319.00000000000006,423.17134000000004 L 319.00000000000006,422.39467" fill="none" id="svg_10" stroke="#000" stroke-width="2"/>
</svg>
