<?xml version="1.0" ?>
<svg baseProfile="full" height="480" version="1.1" width="640" xmlns="http://www.w3.org/2000/svg" xmlns:ev="http://www.w3.org/2001/xml-events" xmlns:xlink="http://www.w3.org/1999/xlink">
	<defs/>
	<path d="M 253.0,261.0 C 253.0,265.79999 253.0,266.60001 253.0,267.39999 C 253.0,268.20001 253.00595,269.3999 252.9955,270.19549 C 252.9852,270.97924 252.98306,271.74761 252.83333,272.83334 C 252.73863,273.51995 252.47615,274.50628 252.23833,275.15268000000003 C 251.86131999999998,276.17740000000003 251.51483,276.88480000000004 251.17467,277.63599000000005 C 250.82411,278.41013000000004 250.45935,279.19211000000007 250.02167,280.39966000000004 C 249.87856,280.7945 249.61569,281.57117000000005 249.36167,282.68567 C 249.1394,283.66083000000003 249.03272,284.48001 249.00451,285.33383000000003 C 248.97050000000002,286.36346000000003 249.00001,287.20132 249.00001,288.16665000000006 C 249.00001,288.9999900000001 249.02598,289.83373000000006 249.00001,290.69549000000006 C 248.97142,291.64410000000004 248.23835,291.9977400000001 247.34735,291.9999900000001 C 246.48401,292.00216000000006 245.61468,291.9999900000001 244.66669000000002,291.9999900000001 C 243.73868000000002,291.9999900000001 242.94818,291.9999900000001 241.92134000000001,291.9999900000001 C 241.22534000000002,291.9999900000001 240.31601,291.9999900000001 239.31468,291.9999900000001 C 238.47919000000002,291.9999900000001 237.89541,291.9857100000001 236.70051,292.0003300000001 C 235.83183,292.0109500000001 234.83003000000002,291.8522000000001 234.16702,292.7053200000001 C 233.69578,293.3116700000001 233.78584,294.0000000000001 234.56251,294.0000000000001 C 235.32002,294.0000000000001 236.31468,294.0000000000001 237.18934000000002,294.0000000000001 C 238.19984000000002,294.0000000000001 238.97918,294.0000000000001 239.97851000000003,294.0000000000001 C 240.79867000000002,294.0000000000001 241.67201000000003,294.0000000000001 242.76802000000004,294.0000000000001 C 243.50001000000003,294.0000000000001 244.23201000000003,294.0000000000001 245.34935000000004,294.0000000000001 C 246.33334000000005,294.0000000000001 247.01434000000003,294.0000000000001 247.82135000000005,294.0000000000001 C 249.00002000000006,294.0000000000001 249.59932000000006,293.9594400000001 250.45834000000005,294.02084000000013 C 251.67234000000005,294.10763000000014 252.36975000000004,294.44418000000013 252.86251000000004,294.81884000000014 C 253.78283000000005,295.51858000000016 254.35801000000004,296.00533000000013 255.00001000000003,296.49999000000014 C 255.64201000000003,296.99465000000015 256.48060000000004,297.69124000000016 257.31333,298.3279900000001 C 257.95237000000003,298.8166400000001 258.77631,299.1829400000001 259.50001000000003,299.5208300000001 C 260.24098000000004,299.8667500000001 261.03221,300.4827100000001 261.61466,301.1746400000001 C 262.16813,301.8321100000001 262.76414,302.5119800000001 263.83335,302.8333300000001 C 264.55656,303.0506800000001 264.32737,302.3264000000001 263.45685,301.6786700000001 C 262.99176,301.3326000000001 262.15509,300.80132000000015 261.512,300.48400000000015 C 260.49665,299.9830200000001 259.74857,299.74068000000017 258.97916,299.5416500000002 C 258.20072,299.3403000000002 257.00113,299.1550500000002 256.20133,299.08401000000015 C 255.4116,299.01385000000016 254.63375,298.99856000000017 253.88533999999999,298.91598000000016 C 252.47833999999997,298.76074000000017 251.82977,298.5541900000002 250.84734999999998,298.3526600000002 C 249.83745,298.1455100000002 249.11772,298.0922800000002 248.39601,298.01468000000017 C 247.36544999999998,297.90387000000015 246.42073,297.7713600000002 245.70801,297.14932000000016 C 245.12834,296.64340000000016 244.36402,296.02133000000015 243.51735,295.99865000000017 L 242.70985,295.9428300000002 L 242.09335,295.3173100000002" fill="none" id="svg_10" stroke="#000" stroke-width="2"/>
</svg>
