<?xml version="1.0" ?>
<svg baseProfile="full" height="480" version="1.1" width="640" xmlns="http://www.w3.org/2000/svg" xmlns:ev="http://www.w3.org/2001/xml-events" xmlns:xlink="http://www.w3.org/1999/xlink">
	<defs/>
	<path d="M 478.0,275.0 C 480.47916,275.5 481.32184,275.88797 482.16666,276.16666 C 482.84247,276.38959 483.86163999999997,276.96546 484.47916,277.5 C 485.13201999999995,278.06516 485.60400999999996,278.64807 486.48532,279.20001 C 487.18735,279.63965 488.0,280.0 488.79999,280.39999 C 489.60001,280.79998 490.41988999999995,281.16656 491.20000999999996,281.63598 C 492.02257999999995,282.13094 492.57077,282.69497 493.23598999999996,283.13867 C 494.12615999999997,283.73239 494.95894999999996,283.86462 495.77466,284.05066 C 496.84299,284.29431 497.55744,284.70642 498.02085,285.04166 C 498.77875,285.58991 499.63859,286.20687999999996 500.30532999999997,286.60001 C 500.99584999999996,287.00715 501.71887,287.36243 502.66666,288.0 C 503.50385,288.56317 503.93491,288.98187 504.83335,289.83334 C 505.38376999999997,290.35501 506.33004999999997,290.85476 507.00535,290.94732000000005 C 507.74647000000004,291.04891000000003 508.95033,291.09295000000003 509.57868,291.64666000000005 C 510.21842000000004,292.2104100000001 510.42344,293.14559 511.33335,293.66665000000006 C 511.95283,294.02142000000003 512.8241,293.93377000000004 513.83332,294.3333400000001 C 514.57642,294.6275600000001 515.1374599999999,295.2022100000001 515.9788299999999,295.9783300000001 C 516.5109999999999,296.4692100000001 517.5413299999999,296.89105000000006 518.2613599999999,296.97467000000006 C 519.0503599999998,297.06628000000006 520.1074899999999,297.14655000000005 520.9583199999998,297.5208400000001 C 521.8714699999998,297.9225400000001 522.3104899999998,298.54138000000006 523.3216599999998,298.8786600000001 C 524.0143499999998,299.10971000000006 524.6931799999999,299.05374000000006 525.6840299999999,299.2839900000001 C 526.5062299999998,299.4750600000001 527.3096999999999,299.7502400000001 528.3133599999999,299.91598000000005 C 529.1491099999998,300.05401000000006 530.1033399999999,300.30938000000003 530.8098199999998,300.70449 C 531.7518399999998,301.23131 532.5110499999998,301.51504 533.3173299999999,301.71465 C 534.3046999999999,301.9591 534.9791299999998,301.98275 536.0000099999999,301.99999 C 536.7999399999999,302.01351000000005 537.6167099999999,302.02941000000004 538.5955299999998,302.35265000000004 C 539.3583499999999,302.60457 540.3634699999998,302.98198 541.2026499999998,302.99999 C 541.9704699999999,303.01647 543.0118499999999,302.97219 543.7853499999999,303.036 C 544.8378399999999,303.12285 545.5333999999999,303.36635 546.3383299999999,303.64733 C 547.2420799999999,303.96279 548.1666999999999,304.16665 549.00001,304.49999 C 549.83332,304.83333000000005 550.66126,304.99465000000004 551.54286,304.99999 C 552.26137,305.00435000000004 553.05195,304.98214 554.31465,305.00133000000005 C 554.97938,305.0114300000001 556.00477,305.15236000000004 556.8000000000001,305.42531 C 557.6050500000001,305.70162000000005 558.60621,305.93434 559.2360400000001,306.02532 C 560.4251300000001,306.19707 561.2293900000001,306.42379 561.7746800000001,306.61065 C 562.8417600000001,306.97631 563.5234600000001,307.34768 564.3955300000001,307.64282000000003 C 565.3803300000001,307.97613 566.2167000000002,307.87893 567.1160500000001,308.28534 C 567.8106900000001,308.59924 568.4533900000001,309.26410000000004 569.3473700000001,309.64282000000003 C 570.2221900000001,310.01343 571.1680500000001,310.16324000000003 571.8253400000001,310.42532000000006 C 572.8354700000001,310.82809000000003 573.6094,310.82830000000007 574.5000200000001,311.0208400000001 C 575.3506100000001,311.2047100000001 576.1697600000001,311.81997000000007 576.8146600000001,311.97467000000006 C 577.7620500000002,312.20193000000006 578.0274300000001,313.16525000000007 578.7616800000001,313.6428200000001 C 579.5509900000001,314.1562200000001 580.4201300000001,313.89062000000007 581.24288,314.3571800000001 C 582.1068300000001,314.8471100000001 582.46255,315.6617500000001 582.97469,316.3893500000001 C 583.4374,317.0466700000001 584.71279,316.8815400000001 584.98934,317.6106600000001 C 585.30477,318.4422600000001 585.00002,319.4000000000001 585.00002,320.2999900000001 C 585.00002,321.2000100000001 585.2586299999999,322.2266300000001 584.7787099999999,322.8786600000001 C 584.26473,323.57693000000006 583.5378,323.9249200000001 582.6786699999999,324.22134000000005 C 581.9851899999999,324.46063000000004 581.0280399999999,324.93780000000004 580.2013799999999,324.99865000000005 C 579.3024499999999,325.0648100000001 578.3808799999998,324.83477000000005 577.5000299999998,325.0208400000001 C 576.6526799999998,325.1998300000001 575.9076799999998,325.9378300000001 575.2000399999998,325.99865000000005 C 574.3033099999998,326.0757100000001 573.3640399999998,325.9999900000001 572.5160199999998,325.9999900000001 C 571.6526799999998,325.9999900000001 570.6360199999998,325.9999900000001 569.7986699999998,325.9999900000001 C 568.8333399999998,325.9999900000001 567.9583399999998,325.9999900000001 567.3133799999998,325.9999900000001 C 566.3173499999998,325.9999900000001 565.5208399999998,325.9999900000001 564.3333399999998,325.9999900000001 C 563.6507199999998,325.9999900000001 562.6667099999997,325.9999900000001 561.7386699999998,325.9999900000001 C 560.9481999999998,325.9999900000001 559.9215299999998,325.9999900000001 559.2360499999999,325.9999900000001 C 558.4013299999999,325.9999900000001 557.4000499999999,325.9999900000001 556.5999999999999,325.9999900000001 C 555.6013399999999,325.9999900000001 554.6571899999999,325.9999900000001 553.7571699999999,325.9999900000001 C 552.9000499999999,325.9999900000001 551.9617599999999,326.17354000000006 551.2000399999998,325.9146600000001 C 550.3121599999998,325.6129000000001 549.5414699999998,324.98604000000006 550.0000299999998,324.9999900000001 C 550.8041699999998,325.0244300000001 551.4775099999998,325.6196500000001 552.4826999999998,325.9159800000001 C 553.1206399999998,326.1040300000001 553.9153199999998,326.68218000000013 554.7143899999998,326.9428400000001 C 555.3766799999997,327.1588700000001 556.3987199999998,327.0000000000001 557.3428699999997,327.0000000000001 L 558.2428899999998,327.0044900000001" fill="none" id="svg_10" stroke="#000" stroke-width="2"/>
</svg>
