<?xml version="1.0" ?>
<svg baseProfile="full" height="480" version="1.1" width="640" xmlns="http://www.w3.org/2000/svg" xmlns:ev="http://www.w3.org/2001/xml-events" xmlns:xlink="http://www.w3.org/1999/xlink">
	<defs/>
	<path d="M 298.0,127.0 C 302.62183,134.257 303.08081,134.83559 303.56616,135.38567 C 304.05026000000004,135.93433000000002 304.55658,136.46431 305.08267,136.97867 C 305.61294,137.4971 306.15964,138.01181 307.33334,139.0 C 307.93673,139.50803 308.57016000000004,140.00464 309.21432000000004,140.5135 C 309.87149000000005,141.03265 310.54443000000003,141.55904999999998 311.22134000000005,142.108 C 311.91186000000005,142.66798 312.6227400000001,143.23381 314.00000000000006,144.5 C 314.71036000000004,145.15306 315.4039000000001,145.84959 316.09549000000004,146.567 C 316.79465000000005,147.29225 317.48230000000007,148.03883000000002 318.16400000000004,148.79600000000002 C 318.84598000000005,149.55349 319.51663,150.31697000000003 320.83334,151.83332000000001 C 321.4801,152.57816000000003 322.11908,153.31947000000002 322.76083,154.05633 C 323.40576,154.79681 324.06042,155.5435 324.73333,156.29733000000002 C 325.42205,157.06888 326.13140000000004,157.86267 327.66665,159.50000000000003 C 328.48077,160.36827000000002 329.33486,161.25308000000004 330.21066,162.15800000000002 C 331.10019,163.0771 332.00058,163.99945000000002 332.89868,164.92399 C 333.78988000000004,165.84144 334.67264,166.7398 336.33334,168.49999 C 337.11862,169.3323 337.86572,170.14658 338.58484000000004,170.94648999999998 C 339.29099,171.73197 339.98154000000005,172.51873999999998 340.66535000000005,173.31197999999998 C 341.3559,174.11306999999996 342.05381000000006,174.93469 343.50001000000003,176.66665999999998 C 344.26637000000005,177.58442999999997 345.05644,178.54073999999997 345.87602000000004,179.52415999999997 C 346.71773,180.53411999999997 347.58061000000004,181.56481999999997 348.468,182.60665999999998 C 349.3679,183.66319 350.27482000000003,184.73298999999997 352.16667,186.83330999999998 C 353.11461,187.88571 354.08583,188.92203999999998 355.06618000000003,189.96080999999998 C 356.05516000000006,191.00874 357.06331000000006,192.06172999999998 358.08269,193.13331 C 359.11965000000004,194.22338 360.18395000000004,195.32896 362.33336,197.66665 C 363.44942000000003,198.88046 364.57491000000005,200.14007 365.71886,201.43314 C 366.88564,202.75202000000002 368.06395000000003,204.10289 369.25734,205.47864 C 370.46764,206.87387 371.68776,208.29083 374.16667,211.16664 C 375.42122,212.62207 376.68678,214.08693 377.95268,215.57063 C 379.22816,217.06556 380.50595999999996,218.57837 381.77467,220.11863 C 383.05336,221.67101 384.34468000000004,223.23526999999999 386.83336,226.49996 C 388.09328000000005,228.15276 389.31947,229.84814 390.54735000000005,231.55345999999997 C 391.77812000000006,233.26280999999997 392.99651000000006,234.98164999999997 394.22536,236.68796999999998 C 395.44921000000005,238.38730999999999 396.64885000000004,240.08962999999997 399.16667,243.33328999999998 C 400.40419,244.92758999999998 401.67662,246.46615999999997 402.95268,247.97579 C 404.21806,249.47279999999998 405.49809,250.93913999999998 406.77467,252.39328999999998 C 408.04542000000004,253.84081999999998 409.32957,255.26819999999998 411.83336,258.16661999999997 C 413.0855,259.61611 414.32112,261.08507999999995 415.54735000000005,262.57063999999997 C 416.7798,264.06374 418.00475000000006,265.57955 419.22536,267.11861 C 420.45748000000003,268.67217 421.69588000000005,270.24825 424.16667,273.49996 C 425.42793,275.15984 426.68886000000003,276.85531 427.96617000000003,278.57146 C 429.25819,280.30733 430.56026,282.06414 431.88267,283.83196 C 433.21659,285.61516 434.55482,287.4172 437.33335,290.99996 C 438.73438,292.80651 440.16569,294.60262 441.61433,296.39547 C 443.06703,298.19331999999997 444.53782,299.98232 446.02134,301.76397 C 447.50517,303.54600999999997 448.99485,305.32127999999994 452.00001000000003,308.83331 C 453.49613000000005,310.58178 454.99827000000005,312.31615999999997 456.50001000000003,314.04281 C 457.99827000000005,315.76547 459.499,317.47999999999996 461.00001000000003,319.18928999999997 C 462.49903,320.89635 463.99961,322.59898999999996 467.00001000000003,325.99996 C 468.49995,327.70016 470.00050000000005,329.40072 471.5045,331.09997 C 473.00984,332.80071 474.51918,334.50146 476.03602,336.19998 C 477.55549,337.90146 479.07762,339.60699 482.16667,342.99996999999996 C 483.7173,344.70318999999995 485.28090000000003,346.39892999999995 486.84819,348.09096999999997 C 488.41292,349.78024 489.97832,351.4591 491.53868,353.12796 C 493.08934,354.78643999999997 494.6313,356.42870999999997 497.66667,359.66663 C 499.15666,361.25605 500.62446,362.82355 502.06767,364.36765 C 503.48579,365.88489000000004 504.87562,367.37439 506.23469,368.83463 C 507.56294,370.26175 508.85847,371.65369 511.33335,374.33332 C 512.51465,375.61237 513.65552,376.85386 514.75782,378.05781 C 515.82484,379.22322 516.85505,380.35337000000004 517.8493100000001,381.44932 C 518.8113500000001,382.50971 519.7412800000001,383.5363 521.5000100000001,385.49998 C 522.3362500000001,386.4337 523.1402100000001,387.33848 523.9149900000001,388.21049 C 524.6601700000001,389.04917 525.3744000000002,389.85469 526.0600100000001,390.62397 C 526.7144900000002,391.35830999999996 527.3350300000002,392.05921 528.5000100000002,393.33331999999996 C 529.0325400000002,393.91574999999995 529.5390700000002,394.45563 530.0105100000002,394.96232 C 530.4497200000002,395.43433999999996 530.8574300000001,395.87210999999996 531.2240100000001,396.28531999999996 C 531.5608600000002,396.66501999999997 531.8822700000002,397.00433999999996 532.3333200000002,397.66664 C 532.5252800000002,397.94847 532.6687700000002,398.21797 532.7488500000002,398.46767 C 532.8173300000002,398.68117 532.8397300000001,398.88353 532.7773500000002,399.03466 C 532.7196100000002,399.17449 532.5746500000001,399.30944 532.1666900000001,399.33333999999996 C 531.8917900000001,399.34945 531.5656200000001,399.26439999999997 531.2006900000001,399.14883 C 530.7833300000001,399.01666 530.3283100000001,398.82280999999995 529.8386900000002,398.57732999999996 C 529.3002400000001,398.30736999999993 528.7191200000002,397.99539 527.5000100000002,397.16664999999995 C 526.8240500000002,396.70714999999996 526.1334900000002,396.17387999999994 525.4015000000002,395.60515999999996 C 524.6253200000002,395.00206999999995 523.8138500000001,394.35240999999996 522.9520400000001,393.67464999999993 C 522.0450000000001,392.9613299999999 521.0988900000001,392.2025099999999 519.0000100000001,390.66664999999995 C 517.87904,389.84633999999994 516.6928800000001,389.0254499999999 515.4615000000001,388.19014999999996 C 514.1982600000001,387.33327999999995 512.8980200000001,386.47576 511.5720000000001,385.61465 C 510.2324000000001,384.74472 508.8802300000001,383.87808 506.1666700000001,382.16665 C 504.82228000000015,381.31875 503.48027000000013,380.48095 502.13917000000015,379.64367 C 500.79359000000017,378.80358 499.43717000000015,377.95885999999996 498.06669000000016,377.10265 C 496.6755200000002,376.23350999999997 495.25703000000016,375.35003 492.33335000000017,373.49998999999997 C 490.8124500000002,372.53758999999997 489.2566600000002,371.54441999999995 487.6713300000002,370.51948999999996 C 486.0539600000002,369.47383999999994 484.4136100000002,368.40040999999997 482.7573300000002,367.29598 C 481.0789200000002,366.17681 479.38126000000017,365.04452 476.0000100000002,362.66665 C 474.2926700000002,361.46597 472.5914100000002,360.23022000000003 470.8865200000002,358.96768000000003 C 469.1633400000002,357.69162000000006 467.43318000000016,356.38064 465.6920000000002,355.03467 C 463.9240900000002,353.66803 462.1326700000002,352.27008 458.5000100000002,349.33335 C 456.6299800000002,347.82157 454.7443300000002,346.26414 452.8375000000002,344.68032999999997 C 450.9109900000002,343.08016999999995 448.9781900000002,341.4595 447.0400100000002,339.82935 C 445.09985000000023,338.19748 443.1681500000002,336.56356999999997 439.33334000000025,333.33335 C 437.44506000000024,331.74277 435.57980000000026,330.1778 433.75033000000025,328.63233 C 431.95584000000025,327.11643000000004 430.20422000000025,325.62977 428.50933000000026,324.16535000000005 C 426.86233000000027,322.74228000000005 425.26134000000025,321.37021000000004 422.33334000000025,318.66666000000004 C 420.96048000000025,317.39902000000006 419.67907000000025,316.15033000000005 418.45282000000026,314.95118 C 417.27518000000026,313.79957 416.15118000000024,312.68198 415.04935000000023,311.62269000000003 C 413.98398000000026,310.59846000000005 412.9656700000002,309.58399000000003 410.8333500000002,307.83335000000005 C 409.79856000000024,306.98377000000005 408.72919000000024,306.21732000000003 407.66984000000025,305.48585 C 406.63429000000025,304.77082 405.60398000000026,304.10447000000005 404.60536000000025,303.45335 C 403.63832000000025,302.82283 402.68190000000027,302.2465 401.00001000000026,301.00001 C 400.2153100000003,300.41844 399.50361000000026,299.81201999999996 398.8475100000003,299.20450999999997 C 398.21714000000026,298.6208 397.6390700000003,298.02707999999996 397.1000100000003,297.43602 C 396.57755000000026,296.86316999999997 396.0892700000003,296.28871 395.16666000000026,295.16667 C 394.7197000000003,294.62312000000003 394.28531000000027,294.08641 393.8616700000003,293.55717 C 393.4453500000003,293.03706 393.04166000000026,292.52085 392.6466700000003,292.01069 L 392.2616600000003,291.50449000000003 L 391.8866600000003,291.00135000000006" fill="none" id="svg_10" stroke="#000" stroke-width="2"/>
</svg>
