<?xml version="1.0" ?>
<svg baseProfile="full" height="480" version="1.1" width="640" xmlns="http://www.w3.org/2000/svg" xmlns:ev="http://www.w3.org/2001/xml-events" xmlns:xlink="http://www.w3.org/1999/xlink">
	<defs/>
	<path d="M 289.0,309.0 C 285.48599,314.27899 285.19598,315.15158 285.08334,316.04166 C 285.02591,316.49555 285.00268,317.45468 285.0,319.06417999999996 C 284.99902,319.65331999999995 285.0,320.26250999999996 285.0,320.88665999999995 C 285.0,322.16000999999994 285.0,322.79916999999995 285.0,323.4333199999999 C 285.0,325.2568399999999 285.0,325.8279999999999 285.0,326.38116999999994 C 285.0,327.4375099999999 285.0,328.4338399999999 285.0,328.91198999999995 C 285.0,330.27898999999996 285.0,331.15633999999994 285.0,332.0416599999999 C 285.0,332.4973499999999 285.0,333.45467999999994 285.0,335.0636599999999 C 285.0,335.64931999999993 285.0,336.24898999999994 285.0,337.4583399999999 C 285.0,338.0519999999999 285.0,338.6276499999999 285.0,340.1666499999999 C 285.0,340.9760099999999 285.00009,341.9374899999999 285.0,342.4918099999999 C 284.99982,343.6428099999999 285.03152,344.31297999999987 284.92801,345.3853299999999 C 284.85702999999995,346.1205299999999 284.58484,347.1898299999999 284.29467999999997,347.8338199999999 C 283.88845999999995,348.7353399999999 283.46056999999996,349.7314299999999 283.02085,350.4374899999999 C 282.60743,351.1013099999999 282.26655,351.8442899999999 281.74534,352.4319999999999 C 281.128,353.1281099999999 280.20411,352.9834499999999 279.16667,352.9999899999999 C 278.22542,353.01499999999993 277.54085000000003,353.02253999999994 276.57817,353.2213299999999 C 275.73592,353.3952499999999 274.78676,353.6846799999999 273.66667,353.83332999999993 C 272.83391,353.9438599999999 272.39021,353.94785999999993 271.47917,353.9999899999999 C 270.5482,354.0532399999999 269.16572,354.1594399999999 268.72136,354.2214899999999 C 267.8506,354.3430699999999 266.99916,354.5169899999999 266.14735,354.7044899999999 C 264.83204,354.9940399999999 264.37800000000004,355.0986199999999 263.43834000000004,355.3044999999999 C 262.45802000000003,355.5192499999999 261.95088000000004,355.6258499999999 260.91335000000004,355.8853399999999 C 259.83068000000003,356.15611999999993 259.27721,356.3157299999999 258.15184000000005,356.65266999999994 C 257.5844900000001,356.82253 257.02095,357.00026999999994 255.90985000000006,357.34730999999994 C 255.36940000000007,357.51609999999994 253.84402000000006,357.98081999999994 252.92335000000006,358.24281999999994 C 252.49365000000006,358.3650999999999 251.68350000000007,358.55803999999995 250.33334000000005,358.9999899999999 C 249.76623000000004,359.1856299999999 248.82135000000005,359.56398999999993 248.00001000000006,359.83332999999993 L 247.22134000000005,359.9853099999999" fill="none" id="svg_10" stroke="#000" stroke-width="2"/>
</svg>
