<?xml version="1.0" ?>
<svg baseProfile="full" height="480" version="1.1" width="640" xmlns="http://www.w3.org/2000/svg" xmlns:ev="http://www.w3.org/2001/xml-events" xmlns:xlink="http://www.w3.org/1999/xlink">
	<defs/>
	<path d="M 339.0,182.0 C 333.72101,189.25734 333.28391,189.83401 332.84366,190.39467 C 332.40653,190.95134 331.96146,191.50258 331.50266,192.05066 C 331.03614,192.60797 330.55451,193.17629 329.5,194.33333 C 328.94016,194.9476 328.34464,195.57387 327.724,196.21883 C 327.08333999999996,196.8846 326.41769999999997,197.56354 325.73199999999997,198.25734 C 325.0304,198.96722 324.31109999999995,199.68842 322.83335,201.16667 C 322.07773,201.92254 321.30738,202.6927 320.51585,203.47966000000002 C 319.70076,204.29005000000004 318.85545,205.12630000000001 317.97334,205.99066000000002 C 317.05381,206.89169 316.09144000000003,207.83298000000002 314.00001000000003,209.83333000000002 C 312.8729,210.91135000000003 311.68156000000005,212.03481000000002 310.43901000000005,213.21733 C 309.14015000000006,214.45343 307.7879500000001,215.74615 306.39201,217.10533 C 304.94044,218.51868000000002 303.43132,219.98506 300.33336,223.16667 C 298.70329000000004,224.84076000000002 297.05159000000003,226.59578000000002 295.35784,228.40466 C 293.62084,230.2597 291.85482,232.16728 290.04937,234.11067 C 288.2112,236.08928 286.35287,238.10808 282.50002,242.16667 C 280.54287,244.22833 278.54821,246.28811000000002 276.53301,248.35716000000002 C 274.50554,250.43881000000002 272.45835999999997,252.52083000000002 270.40400999999997,254.61067000000003 L 268.34367999999995,256.70450000000005 L 266.28135999999995,258.80133000000006" fill="none" id="svg_11" stroke="#000" stroke-width="2"/>
</svg>
