<?xml version="1.0" ?>
<svg baseProfile="full" height="480" version="1.1" width="640" xmlns="http://www.w3.org/2000/svg" xmlns:ev="http://www.w3.org/2001/xml-events" xmlns:xlink="http://www.w3.org/1999/xlink">
	<defs/>
	<path d="M 307.0,247.0 C 305.436,247.64667 305.04712,248.48126 305.00449,249.34734 C 304.96045,250.24176 305.0,251.2 305.0,252.10001 C 305.0,253.0 305.0,253.80001 305.0,254.7 C 305.0,255.60001 305.0,256.5 305.0,257.4 C 305.0,258.29999 304.91788,259.2038 305.00015,260.10001 C 305.08383000000003,261.01145 305.04873000000003,262.6445 305.97915,262.45835 C 306.42904,262.36832 305.99999,261.20002 305.99999,260.29999 C 305.99999,259.4 305.99999,258.5 305.99999,257.60001 C 305.99999,256.70002 305.90362000000005,255.77674 306.16665,254.83333 C 306.35671,254.15169 306.83334,253.16666999999998 306.99999,252.5 L 307.28533000000004,251.51733 L 307.61065,250.86131999999998 L 308.29549000000003,250.10531999999998" fill="none" id="svg_11" stroke="#000" stroke-width="2"/>
</svg>
