<?xml version="1.0" ?>
<svg baseProfile="full" height="480" version="1.1" width="640" xmlns="http://www.w3.org/2000/svg" xmlns:ev="http://www.w3.org/2001/xml-events" xmlns:xlink="http://www.w3.org/1999/xlink">
	<defs/>
	<path d="M 247.0,331.0 C 247.0,332.79999 247.0,333.63599 247.0,334.48401 C 247.0,335.34732 247.0,336.36401 247.0,337.29999000000004 C 247.0,338.20001 247.0,339.00000000000006 247.0,339.88535 C 247.0,340.82535 247.0,341.516 247.0,342.58933 C 247.0,343.50001000000003 246.86343,344.35663 247.284,345.20002 C 247.61392999999998,345.86164 247.98095999999998,346.7002 248.0,347.60001 C 248.02042,348.56446 248.79256,349.00043 248.99867,349.80133 C 249.22313,350.67349 249.66285,351.42633 249.91467,352.20001 C 250.19446,353.05966 249.82644,354.03824000000003 250.08532,354.79999000000004 C 250.38708,355.68793000000005 250.98132999999999,356.39948000000004 250.99999,357.29999000000004 C 251.01864,358.19983 251.30083,359.05084000000005 251.64733,359.70001 C 252.10068,360.54938000000004 252.23269000000002,361.53872 251.96799000000001,362.41067000000004 C 251.70972,363.26144000000005 250.95783,363.67843000000005 250.23999,364.13867000000005 C 249.35672,364.70495000000005 248.60724000000002,365.02691000000004 247.97465,365.57467 C 247.32589,366.13644000000005 246.51681,366.60717000000005 246.08531,367.28533000000004 C 245.59215999999998,368.06038000000007 246.00015,369.1 246.16665,369.99999 L 246.64665,370.56399000000005" fill="none" id="svg_11" stroke="#000" stroke-width="2"/>
</svg>
