<?xml version="1.0" ?>
<svg baseProfile="full" height="480" version="1.1" width="640" xmlns="http://www.w3.org/2000/svg" xmlns:ev="http://www.w3.org/2001/xml-events" xmlns:xlink="http://www.w3.org/1999/xlink">
	<defs/>
	<path d="M 362.0,253.0 C 359.3645,258.7215 359.22705,259.28198 359.108,260.436 C 359.04782,261.0195 359.01999,261.61044 359.004,262.80133 C 358.98792000000003,263.99991 359.0,264.60016 359.0,265.8045 C 359.0,266.41067000000004 359.0,267.02084 359.0,268.25717000000003 C 359.0,268.88534000000004 359.0,270.16665 359.0,270.82101000000006 C 359.0,272.14367000000004 359.0,272.8039800000001 359.0,273.4583400000001 C 359.0,274.10266000000007 359.0,275.3453300000001 359.0,276.50000000000006 C 359.0,277.03568000000007 359.0,278.03299000000004 359.0,278.9583400000001 C 359.0,279.8436500000001 359.0,281.16665000000006 359.0,281.62133000000006 C 359.0,282.55267000000003 359.0,283.4999900000001 359.0,283.9746600000001 C 359.0,284.9159700000001 359.0,286.2784900000001 359.0,287.1428100000001 C 359.0,287.9791400000001 359.0,288.7954900000001 359.0,289.99999000000014 C 359.0,290.79598000000016 359.0,291.56798000000015 359.0,292.29198000000014 C 359.0,293.49999000000014 359.0,294.13298000000015 359.0,295.16664000000014 C 359.0,295.99998000000016 359.0,296.97880000000015 359.0,297.66133000000013 C 359.0,298.76933000000014 359.0,299.52083000000016 359.0,300.31731000000013 C 359.0,301.31465000000014 359.0,302.1893200000001 359.0,303.19982000000016 C 359.0,303.9791500000002 359.02771,304.97893000000016 359.0,305.7986700000002 C 358.97141,306.6442800000002 358.27005,307.0316700000002 357.23499,307.44284000000016 C 356.60764,307.69205000000017 355.88022,308.03470000000016 355.01502,308.35184000000015 C 354.54273,308.52494000000013 352.93689,308.9826400000002 352.348,309.1173400000001 C 351.7429,309.25577000000015 351.12144,309.37402000000014 349.87602000000004,309.66135000000014 C 349.2567,309.80423000000013 348.62459,309.89417000000014 346.96419000000003,310.54285000000016 C 346.44371,310.7461900000002 345.95635000000004,310.99866000000014 345.02086,311.52085000000017 C 344.55690000000004,311.77982000000014 343.6469,312.3435400000002 342.66667,312.83335000000017 C 341.64537,313.3437000000002 341.09532,313.5489000000002 340.00001000000003,314.00001000000015 C 339.451,314.22615000000013 338.886,314.41151000000013 337.33335000000005,315.1666700000001 C 336.83680000000004,315.4081900000001 335.91996000000006,315.9428200000001 335.4933500000001,316.2146700000001 C 334.6868300000001,316.72862000000015 333.9881000000001,317.2531800000001 333.0431500000001,317.8568500000001 C 332.2939400000001,318.3354600000001 331.5549900000001,318.40406000000013 330.6466700000001,318.98533000000015 C 329.9699100000001,319.41840000000013 330.3536400000001,320.3917900000001 331.1413300000001,320.26002000000017 C 332.1233900000001,320.09574000000015 332.8088400000001,319.6156100000002 334.0000000000001,319.1666700000002 C 334.7955300000001,318.86683000000016 335.20645000000013,318.7540400000002 336.02084000000013,318.4791700000002 C 336.8592200000001,318.1961800000002 338.17035000000016,317.67451000000017 338.6211500000001,317.4571700000002 C 339.55612000000013,317.0063600000002 340.0192500000001,316.7466600000002 340.9386500000001,316.2146800000002 C 341.3924500000001,315.95211000000023 342.6713800000001,315.1740600000002 343.4306500000001,314.68270000000024 C 344.1431700000001,314.22158000000024 344.82478000000015,313.75173000000024 345.48265000000015,313.23067000000026 C 346.17760000000015,312.68022000000025 346.8873100000001,312.03701000000024 347.6146400000001,311.34935000000024 C 347.9815200000001,311.00249000000025 348.69078000000013,310.3060200000002 349.0306600000001,309.96800000000025 C 349.95879000000014,309.04497000000026 350.71325000000013,308.26649000000026 351.1786700000001,307.85734000000025 C 352.1696700000001,306.98615000000024 352.7582000000001,306.57557000000025 353.51467000000014,306.28666000000027 C 354.4492700000001,305.9297300000003 355.42132000000015,305.99702000000025 356.33333000000016,306.00001000000026 C 357.01433000000014,306.00227000000024 357.83016000000015,305.97212000000025 358.99999000000014,306.16667000000024 C 359.90502000000015,306.31718000000023 360.5208000000001,306.4866500000002 361.3146600000001,306.97200000000026 C 362.1284400000001,307.46953000000025 362.7799300000001,308.26775000000026 363.22534000000013,308.8213300000003 C 363.68954000000014,309.3982600000003 364.4081400000001,310.3123900000003 364.96167000000014,310.89552000000026 C 365.5281400000001,311.49229000000025 366.13367000000017,312.07982000000027 367.16666000000015,312.83336000000025 C 367.8633800000002,313.34160000000026 368.24970000000013,313.53795000000025 368.95835000000017,314.00002000000023 C 369.63892000000016,314.44375000000025 370.76487000000014,315.4003800000002 371.13300000000015,315.9482000000002 C 371.64624000000015,316.7119600000002 372.10941000000014,317.7275600000002 372.65268000000015,318.18117000000024 C 373.28912000000014,318.71257000000026 374.5552700000001,319.06450000000024 374.62668000000014,318.42803000000026 C 374.7110300000001,317.6763800000003 373.67771000000016,316.82384000000025 373.23200000000014,316.3173400000003 C 372.51737000000014,315.5052400000003 372.01453000000015,315.0006000000003 371.33335000000017,314.3333600000003 C 370.65961000000016,313.6734200000003 370.04710000000017,313.20387000000034 368.98566000000017,313.0571800000003 C 368.1849700000002,312.9465200000003 367.00000000000017,313.0000200000003 366.4013400000002,313.0000200000003 C 365.52085000000017,313.0000200000003 364.68534000000017,313.0000200000003 363.6826800000002,313.0000200000003 C 362.73868000000016,313.0000200000003 361.66663000000017,312.9963900000003 361.03067000000016,313.0013600000003 C 360.33862000000016,313.0067600000003 359.60760000000016,312.9732200000003 358.16666000000015,313.1666700000003 C 357.48337000000015,313.2584100000003 356.52628000000016,313.4966900000003 356.01883000000015,313.8188600000003 C 355.05969000000016,314.4277800000003 354.6826800000002,315.25068000000033 354.36618000000016,315.9946700000003 L 354.0826700000002,317.02934000000033 L 353.8306600000002,317.79735000000034" fill="none" id="svg_12" stroke="#000" stroke-width="2"/>
</svg>
